<?xml version="1.0" encoding="UTF-8"?>
<svg width="185px" height="118px" viewBox="0 0 185 118" version="1.1" xmlns="http://www.w3.org/2000/svg" xmlns:xlink="http://www.w3.org/1999/xlink">
    <!-- Generator: Sketch 52.2 (67145) - http://www.bohemiancoding.com/sketch -->
    <title>合并形状</title>
    <desc>Created with Sketch.</desc>
    <g id="Page-1" stroke="none" stroke-width="1" fill="none" fill-rule="evenodd">
        <g id="分组" fill="#ED4A81">
            <path d="M185,78.8001404 C185,99.1729674 169.454639,115.916793 149.571355,117.818257 C148.326084,117.939419 147.063219,118 145.78667,118 L120.685759,118 L120.685759,98.232202 C120.685759,96.899614 121.766232,95.8195121 123.099083,95.8195121 L149.149097,95.8195121 L149.149097,95.8566425 L152.239207,95.8566425 C154.015624,95.8566425 155.455603,94.4171581 155.455603,92.6413511 L155.455603,81.530197 C162.510836,80.0744925 167.814478,73.8266302 167.814478,66.3438911 C167.814478,57.6530483 160.663846,50.6320934 151.925054,50.8396324 C143.472655,51.0401362 136.678011,58.1019345 136.789636,66.5529935 C136.887381,73.9446655 142.159549,80.0879767 149.149097,81.530197 L149.149097,86.6465613 C149.149097,88.2320265 147.863555,89.5171268 146.277545,89.5171268 L123.784862,89.5171268 C122.073152,89.5171268 120.685759,88.1302112 120.685759,86.4190892 L120.685759,40.2211391 C120.685759,38.3282739 119.150968,36.7940095 117.257452,36.7940095 L110.082384,36.7940095 C108.625984,29.7412006 102.378125,24.4374258 94.8908598,24.4374258 C86.1985945,24.4374258 79.1762043,31.5832559 79.3810777,40.3168963 C79.5795,48.7656102 86.6400108,55.5596793 95.0929965,55.4516105 C102.488577,55.3572213 108.639082,50.08745 110.082384,43.0963948 L111.898486,43.0963948 C112.749258,43.0963948 113.438947,43.7858464 113.438947,44.6365219 L113.438947,118 L58.9676256,118 L58.9676256,84.5528014 C58.9676256,82.945058 57.6637076,81.641588 56.0554117,81.641588 L48.4404915,81.641588 C47.0140013,74.6352897 40.8654512,69.3475396 33.4614646,69.2435746 C25.0014413,69.1247576 17.9288102,75.9209763 17.7296059,84.3765301 C17.523755,93.1131018 24.5465362,100.257564 33.2391925,100.257564 C40.7108186,100.257564 46.9489031,94.9791941 48.4209425,87.9459275 L50.7912582,87.9459275 C51.8240316,87.9459275 52.6611196,88.7829234 52.6611196,89.8151466 L52.6611196,118 L39.535142,118 C17.9376072,118 -0.0290926359,100.336124 3.53675048e-05,78.7462037 C0.0274039613,58.4173469 15.5356221,41.714951 35.370033,39.7878868 C38.9650933,29.1881541 45.5140068,19.9505183 54.0334591,13.048185 L54.0334591,63.430528 C54.0334591,65.0394439 55.3383546,66.3438911 56.9480189,66.3438911 L60.3380102,66.3438911 L60.3380102,66.3067608 L76.1474784,66.3067608 C77.3780877,66.3067608 78.3758684,67.3041988 78.3758684,68.5345807 L78.3758684,74.3288668 C71.318681,75.7867209 66.0150385,82.0324336 66.0150385,89.5171268 C66.0150385,98.2048428 73.1637152,105.225016 81.9030937,105.019627 C90.3551019,104.820686 97.1509192,97.760256 97.0398809,89.309197 C96.9427224,81.9171341 91.6721177,75.7732367 84.6823744,74.3288668 L84.6823744,63.7744722 C84.6823744,61.6912651 82.9929502,60.0026167 80.9090272,60.0026167 L63.0676364,60.0026167 C61.5602134,60.0026167 60.3380102,58.7808333 60.3380102,57.2739281 L60.3380102,8.59449935 C69.2425777,3.14239863 79.7149746,0 90.9243686,0 C116.652802,0 138.514443,16.5638412 146.416147,39.6061436 C167.785155,39.9422708 185,57.3622592 185,78.8001404" id="合并形状"></path>
        </g>
    </g>
</svg>