<?xml version="1.0" encoding="UTF-8"?>
<svg width="90px" height="80px" viewBox="0 0 45 40" version="1.1" xmlns="http://www.w3.org/2000/svg" xmlns:xlink="http://www.w3.org/1999/xlink">
    <!-- Generator: Sketch 46.1 (44463) - http://www.bohemiancoding.com/sketch -->
    <title>Page 1 Copy 2</title>
    <desc>Created with Sketch.</desc>
    <defs>
        <polygon id="path-1" points="44.8859358 -5.68434189e-14 44.8859358 36.036036 22.4429799 36.036036 2.40641711e-05 36.036036 2.40641711e-05 -5.00153806e-14"></polygon>
    </defs>
    <g id="Page-1" stroke="none" stroke-width="1" fill="none" fill-rule="evenodd">
        <g id="ooto-Sessions-Copy-4" transform="translate(-1086.000000, -612.000000)">
            <g id="Page-1-Copy-2" transform="translate(1086.000000, 612.000000)">
                <path d="M13.474889,3.84888889 C13.474889,3.84888889 6.79154679,0.32036036 6.23770989,0.178138138 C6.23770989,0.178138138 5.94268316,0.107627628 5.79480882,0.0822822823 C5.48065107,0.0283483483 5.15518316,-5.68434189e-14 4.82201471,-5.68434189e-14 C2.29022326,-5.68434189e-14 0.215049465,1.63375375 0.0124291444,3.71159159 L0.0031644385,3.70870871 L0.0031644385,8.68396396 C0.0031644385,8.68396396 13.6755842,4.69021021 13.474889,3.84888889" id="Fill-1" fill="#939393"></path>
                <path d="M11.9222326,4.06508108 C11.9222326,4.06508108 6.54088235,1.22387988 6.09497326,1.10940541 C6.09497326,1.10940541 5.85733957,1.05258859 5.73834225,1.03216817 C5.48530749,0.988804805 5.22336898,0.965981982 4.95505348,0.965981982 C2.91645722,0.965981982 1.2455615,2.28141742 1.08240642,3.95457057 L1.0748262,3.95228829 L1.0748262,7.95829429 C1.0748262,7.95829429 12.0839439,4.74243844 11.9222326,4.06508108" id="Fill-3" fill="#3D3D3D"></path>
                <path d="M31.4090374,3.84888889 C31.4090374,3.84888889 38.0923797,0.32036036 38.6462166,0.178138138 C38.6462166,0.178138138 38.9412433,0.107627628 39.0891176,0.0822822823 C39.4032754,0.0283483483 39.7287433,-5.68434189e-14 40.0619118,-5.68434189e-14 C42.5937032,-5.68434189e-14 44.668877,1.63375375 44.8714973,3.71159159 L44.880762,3.70870871 L44.880762,8.68396396 C44.880762,8.68396396 31.2083422,4.69021021 31.4090374,3.84888889" id="Fill-5" fill="#939393"></path>
                <path d="M32.9616337,4.06508108 C32.9616337,4.06508108 38.3431043,1.22387988 38.7890134,1.10940541 C38.7890134,1.10940541 39.0265267,1.05258859 39.1456444,1.03216817 C39.3986791,0.988804805 39.6606176,0.965981982 39.9289332,0.965981982 C41.9675294,0.965981982 43.6383048,2.28141742 43.8015802,3.95457057 L43.8090401,3.95228829 L43.8090401,7.95829429 C43.8090401,7.95829429 32.8000428,4.74243844 32.9616337,4.06508108" id="Fill-7" fill="#3D3D3D"></path>
                <g id="Group-11" transform="translate(0.000000, 3.848889)">
                    <mask id="mask-2" fill="white">
                        <use xlink:href="#path-1"></use>
                    </mask>
                    <g id="Clip-10"></g>
                    <path d="M39.5048503,36.036036 L5.38113369,36.036036 C2.42148128,36.036036 2.40641711e-05,33.6186186 2.40641711e-05,30.6639039 L2.40641711e-05,5.37213213 C2.40641711e-05,2.41741742 2.42148128,0 5.38113369,0 L39.5048503,0 C42.4645027,0 44.8859599,2.41741742 44.8859599,5.37213213 L44.8859599,30.6639039 C44.8859599,33.6186186 42.4645027,36.036036 39.5048503,36.036036" id="Fill-9" fill="#C6C6C6" mask="url(#mask-2)"></path>
                </g>
                <path d="M38.7621217,38.3834234 L6.36440775,38.3834234 C3.85836497,38.3834234 1.80797727,36.3364565 1.80797727,33.8344745 L1.80797727,10.3197598 C1.80797727,7.8178979 3.85836497,5.77081081 6.36440775,5.77081081 L38.7621217,5.77081081 C41.2681644,5.77081081 43.3186725,7.8178979 43.3186725,10.3197598 L43.3186725,33.8344745 C43.3186725,36.3364565 41.2681644,38.3834234 38.7621217,38.3834234" id="Fill-12" fill="#E8E8E8"></path>
                <path d="M38.8656457,26.911952 L6.26097995,26.911952 C3.81184893,26.911952 1.80790508,24.9114715 1.80790508,22.4664264 L1.80790508,10.2163363 C1.80790508,7.77129129 3.81184893,5.77081081 6.26097995,5.77081081 L38.8656457,5.77081081 C41.3147767,5.77081081 43.3186003,7.77129129 43.3186003,10.2163363 L43.3186003,22.4664264 C43.3186003,24.9114715 41.3147767,26.911952 38.8656457,26.911952" id="Fill-14" fill="#6B6B6B"></path>
                <path d="M11.3132888,33.1484084 C11.3132888,34.546967 10.1777005,35.6807808 8.77668449,35.6807808 C7.37578877,35.6807808 6.24020053,34.546967 6.24020053,33.1484084 C6.24020053,31.7498498 7.37578877,30.616036 8.77668449,30.616036 C10.1777005,30.616036 11.3132888,31.7498498 11.3132888,33.1484084" id="Fill-16" fill="#DBDBDB"></path>
                <path d="M38.3854813,33.1484084 C38.3854813,34.546967 37.249893,35.6807808 35.848877,35.6807808 C34.4479813,35.6807808 33.312393,34.546967 33.312393,33.1484084 C33.312393,31.7498498 34.4479813,30.616036 35.848877,30.616036 C37.249893,30.616036 38.3854813,31.7498498 38.3854813,33.1484084" id="Fill-18" fill="#DBDBDB"></path>
                <path d="M25.1070642,36.941982 L20.0796979,36.941982 C19.2186818,36.941982 18.5143235,36.2387988 18.5143235,35.3790991 L18.5143235,35.1413814 C18.5143235,34.2818018 19.2186818,33.5786186 20.0796979,33.5786186 L25.1070642,33.5786186 C25.9680802,33.5786186 26.6724385,34.2818018 26.6724385,35.1413814 L26.6724385,35.3790991 C26.6724385,36.2387988 25.9680802,36.941982 25.1070642,36.941982" id="Fill-20" fill="#DBDBDB"></path>
                <path d="M26.2330749,32.83397 L18.8935027,32.83397 C18.1655615,32.83397 17.5699733,32.2393754 17.5699733,31.5126486 L17.5699733,30.5994955 C17.5699733,29.8728889 18.1655615,29.2781742 18.8935027,29.2781742 L26.2330749,29.2781742 C26.961016,29.2781742 27.5566043,29.8728889 27.5566043,30.5994955 L27.5566043,31.5126486 C27.5566043,32.2393754 26.961016,32.83397 26.2330749,32.83397" id="Fill-22" fill="#6B6B6B"></path>
                <path d="M6.07933155,9.55459459 L6.07933155,9.55459459 C5.48374332,9.55459459 4.99644385,9.06810811 4.99644385,8.47351351 C4.99644385,7.87891892 5.48374332,7.39243243 6.07933155,7.39243243 C6.67491979,7.39243243 7.16221925,7.87891892 7.16221925,8.47351351 C7.16221925,9.06810811 6.67491979,9.55459459 6.07933155,9.55459459" id="Fill-24" fill="#707070"></path>
                <path d="M6.07933155,12.4855135 L6.07933155,12.4855135 C5.48374332,12.4855135 4.99644385,11.999027 4.99644385,11.4044324 C4.99644385,10.8098378 5.48374332,10.3233514 6.07933155,10.3233514 C6.67491979,10.3233514 7.16221925,10.8098378 7.16221925,11.4044324 C7.16221925,11.999027 6.67491979,12.4855135 6.07933155,12.4855135" id="Fill-26" fill="#707070"></path>
                <path d="M6.07933155,15.4164324 L6.07933155,15.4164324 C5.48374332,15.4164324 4.99644385,14.9299459 4.99644385,14.3353514 C4.99644385,13.7407568 5.48374332,13.2542703 6.07933155,13.2542703 C6.67491979,13.2542703 7.16221925,13.7407568 7.16221925,14.3353514 C7.16221925,14.9299459 6.67491979,15.4164324 6.07933155,15.4164324" id="Fill-28" fill="#707070"></path>
                <path d="M6.07933155,18.3474114 L6.07933155,18.3474114 C5.48374332,18.3474114 4.99644385,17.8609249 4.99644385,17.2663303 C4.99644385,16.6717357 5.48374332,16.1852492 6.07933155,16.1852492 C6.67491979,16.1852492 7.16221925,16.6717357 7.16221925,17.2663303 C7.16221925,17.8609249 6.67491979,18.3474114 6.07933155,18.3474114" id="Fill-30" fill="#707070"></path>
                <path d="M6.07933155,21.2783303 L6.07933155,21.2783303 C5.48374332,21.2783303 4.99644385,20.7918438 4.99644385,20.1972492 C4.99644385,19.6026547 5.48374332,19.1161682 6.07933155,19.1161682 C6.67491979,19.1161682 7.16221925,19.6026547 7.16221925,20.1972492 C7.16221925,20.7918438 6.67491979,21.2783303 6.07933155,21.2783303" id="Fill-32" fill="#707070"></path>
                <path d="M6.07933155,24.2092492 L6.07933155,24.2092492 C5.48374332,24.2092492 4.99644385,23.7227628 4.99644385,23.1281682 C4.99644385,22.5335736 5.48374332,22.0470871 6.07933155,22.0470871 C6.67491979,22.0470871 7.16221925,22.5335736 7.16221925,23.1281682 C7.16221925,23.7227628 6.67491979,24.2092492 6.07933155,24.2092492" id="Fill-34" fill="#707070"></path>
                <path d="M9.38815508,9.55459459 L9.38815508,9.55459459 C8.79256684,9.55459459 8.30526738,9.06810811 8.30526738,8.47351351 C8.30526738,7.87891892 8.79256684,7.39243243 9.38815508,7.39243243 C9.98374332,7.39243243 10.4710428,7.87891892 10.4710428,8.47351351 C10.4710428,9.06810811 9.98374332,9.55459459 9.38815508,9.55459459" id="Fill-36" fill="#707070"></path>
                <path d="M9.38815508,12.4855135 L9.38815508,12.4855135 C8.79256684,12.4855135 8.30526738,11.999027 8.30526738,11.4044324 C8.30526738,10.8098378 8.79256684,10.3233514 9.38815508,10.3233514 C9.98374332,10.3233514 10.4710428,10.8098378 10.4710428,11.4044324 C10.4710428,11.999027 9.98374332,12.4855135 9.38815508,12.4855135" id="Fill-38" fill="#707070"></path>
                <path d="M9.38815508,15.4164324 L9.38815508,15.4164324 C8.79256684,15.4164324 8.30526738,14.9299459 8.30526738,14.3353514 C8.30526738,13.7407568 8.79256684,13.2542703 9.38815508,13.2542703 C9.98374332,13.2542703 10.4710428,13.7407568 10.4710428,14.3353514 C10.4710428,14.9299459 9.98374332,15.4164324 9.38815508,15.4164324" id="Fill-40" fill="#707070"></path>
                <path d="M9.38815508,18.3474114 L9.38815508,18.3474114 C8.79256684,18.3474114 8.30526738,17.8609249 8.30526738,17.2663303 C8.30526738,16.6717357 8.79256684,16.1852492 9.38815508,16.1852492 C9.98374332,16.1852492 10.4710428,16.6717357 10.4710428,17.2663303 C10.4710428,17.8609249 9.98374332,18.3474114 9.38815508,18.3474114" id="Fill-42" fill="#707070"></path>
                <path d="M9.38815508,21.2783303 L9.38815508,21.2783303 C8.79256684,21.2783303 8.30526738,20.7918438 8.30526738,20.1972492 C8.30526738,19.6026547 8.79256684,19.1161682 9.38815508,19.1161682 C9.98374332,19.1161682 10.4710428,19.6026547 10.4710428,20.1972492 C10.4710428,20.7918438 9.98374332,21.2783303 9.38815508,21.2783303" id="Fill-44" fill="#707070"></path>
                <path d="M9.38815508,24.2092492 L9.38815508,24.2092492 C8.79256684,24.2092492 8.30526738,23.7227628 8.30526738,23.1281682 C8.30526738,22.5335736 8.79256684,22.0470871 9.38815508,22.0470871 C9.98374332,22.0470871 10.4710428,22.5335736 10.4710428,23.1281682 C10.4710428,23.7227628 9.98374332,24.2092492 9.38815508,24.2092492" id="Fill-46" fill="#707070"></path>
                <path d="M12.6969786,9.55459459 L12.6969786,9.55459459 C12.1013904,9.55459459 11.6140909,9.06810811 11.6140909,8.47351351 C11.6140909,7.87891892 12.1013904,7.39243243 12.6969786,7.39243243 C13.2925668,7.39243243 13.7798663,7.87891892 13.7798663,8.47351351 C13.7798663,9.06810811 13.2925668,9.55459459 12.6969786,9.55459459" id="Fill-48" fill="#707070"></path>
                <path d="M12.6969786,12.4855135 L12.6969786,12.4855135 C12.1013904,12.4855135 11.6140909,11.999027 11.6140909,11.4044324 C11.6140909,10.8098378 12.1013904,10.3233514 12.6969786,10.3233514 C13.2925668,10.3233514 13.7798663,10.8098378 13.7798663,11.4044324 C13.7798663,11.999027 13.2925668,12.4855135 12.6969786,12.4855135" id="Fill-50" fill="#707070"></path>
                <path d="M12.6969786,15.4164324 L12.6969786,15.4164324 C12.1013904,15.4164324 11.6140909,14.9299459 11.6140909,14.3353514 C11.6140909,13.7407568 12.1013904,13.2542703 12.6969786,13.2542703 C13.2925668,13.2542703 13.7798663,13.7407568 13.7798663,14.3353514 C13.7798663,14.9299459 13.2925668,15.4164324 12.6969786,15.4164324" id="Fill-52" fill="#707070"></path>
                <path d="M12.6969786,18.3474114 L12.6969786,18.3474114 C12.1013904,18.3474114 11.6140909,17.8609249 11.6140909,17.2663303 C11.6140909,16.6717357 12.1013904,16.1852492 12.6969786,16.1852492 C13.2925668,16.1852492 13.7798663,16.6717357 13.7798663,17.2663303 C13.7798663,17.8609249 13.2925668,18.3474114 12.6969786,18.3474114" id="Fill-54" fill="#707070"></path>
                <path d="M12.6969786,21.2783303 L12.6969786,21.2783303 C12.1013904,21.2783303 11.6140909,20.7918438 11.6140909,20.1972492 C11.6140909,19.6026547 12.1013904,19.1161682 12.6969786,19.1161682 C13.2925668,19.1161682 13.7798663,19.6026547 13.7798663,20.1972492 C13.7798663,20.7918438 13.2925668,21.2783303 12.6969786,21.2783303" id="Fill-56" fill="#707070"></path>
                <path d="M12.6969786,24.2092492 L12.6969786,24.2092492 C12.1013904,24.2092492 11.6140909,23.7227628 11.6140909,23.1281682 C11.6140909,22.5335736 12.1013904,22.0470871 12.6969786,22.0470871 C13.2925668,22.0470871 13.7798663,22.5335736 13.7798663,23.1281682 C13.7798663,23.7227628 13.2925668,24.2092492 12.6969786,24.2092492" id="Fill-58" fill="#707070"></path>
                <path d="M15.7651604,9.75882282 L16.0058021,9.55461862 C15.4102139,9.55461862 14.9229144,9.06813213 14.9229144,8.47353754 C14.9229144,7.87894294 15.4102139,7.39245646 16.0058021,7.39245646 C16.6013904,7.39245646 17.0886898,7.87894294 17.0886898,8.47353754 C17.0886898,9.06813213 16.3607487,9.75882282 15.7651604,9.75882282" id="Fill-60" fill="#707070"></path>
                <path d="M16.0058021,12.4855135 L16.0058021,12.4855135 C15.4102139,12.4855135 14.9229144,11.999027 14.9229144,11.4044324 C14.9229144,10.8098378 15.4102139,10.3233514 16.0058021,10.3233514 C16.6013904,10.3233514 17.0886898,10.8098378 17.0886898,11.4044324 C17.0886898,12.5435315 15.9597193,12.4855135 16.0058021,12.4855135" id="Fill-62" fill="#707070"></path>
                <path d="M15.7651604,15.6206607 L15.7651604,15.6206607 C15.1695722,15.6206607 14.6822727,15.1341742 14.6822727,14.5395796 C14.6822727,13.944985 15.1695722,13.4584985 15.7651604,13.4584985 C16.3607487,13.4584985 16.8480481,13.944985 16.8480481,14.5395796 C16.8480481,15.1341742 16.3607487,15.6206607 15.7651604,15.6206607" id="Fill-64" fill="#707070"></path>
                <path d="M16.0058021,18.3474114 L16.0058021,18.3474114 C15.4102139,18.3474114 14.9229144,17.8609249 14.9229144,17.2663303 C14.9229144,16.6717357 15.4102139,16.1852492 16.0058021,16.1852492 C16.6013904,16.1852492 17.0886898,16.6717357 17.0886898,17.2663303 C17.0886898,17.8609249 16.6013904,18.3474114 16.0058021,18.3474114" id="Fill-66" fill="#707070"></path>
                <path d="M16.0058021,21.2783303 L16.0058021,21.2783303 C15.4102139,21.2783303 14.9229144,20.7918438 14.9229144,20.1972492 C14.9229144,19.6026547 15.4102139,19.1161682 16.0058021,19.1161682 C16.6013904,19.1161682 17.0886898,19.6026547 17.0886898,20.1972492 C17.0886898,20.7918438 16.6013904,21.2783303 16.0058021,21.2783303" id="Fill-68" fill="#707070"></path>
                <path d="M16.0058021,24.2092492 L16.0058021,24.2092492 C15.4102139,24.2092492 14.9229144,23.7227628 14.9229144,23.1281682 C14.9229144,22.5335736 15.4102139,22.0470871 16.0058021,22.0470871 C16.6013904,22.0470871 17.0886898,22.5335736 17.0886898,23.1281682 C17.0886898,23.7227628 16.6013904,24.2092492 16.0058021,24.2092492" id="Fill-70" fill="#707070"></path>
                <path d="M19.3146257,9.55459459 L19.3146257,9.55459459 C18.7190374,9.55459459 18.231738,9.06810811 18.231738,8.47351351 C18.231738,7.87891892 18.7190374,7.39243243 19.3146257,7.39243243 C19.9102139,7.39243243 20.3975134,7.87891892 20.3975134,8.47351351 C20.3975134,9.06810811 19.9102139,9.55459459 19.3146257,9.55459459" id="Fill-72" fill="#707070"></path>
                <path d="M19.3146257,12.4855135 L19.3146257,12.4855135 C18.7190374,12.4855135 18.231738,11.999027 18.231738,11.4044324 C18.231738,10.8098378 18.7190374,10.3233514 19.3146257,10.3233514 C19.9102139,10.3233514 20.3975134,10.8098378 20.3975134,11.4044324 C20.3975134,11.999027 19.9102139,12.4855135 19.3146257,12.4855135" id="Fill-74" fill="#707070"></path>
                <path d="M19.3146257,15.4164324 L19.3146257,15.4164324 C18.7190374,15.4164324 18.231738,14.9299459 18.231738,14.3353514 C18.231738,13.7407568 18.7190374,13.2542703 19.3146257,13.2542703 C19.9102139,13.2542703 20.3975134,13.7407568 20.3975134,14.3353514 C20.3975134,14.9299459 19.9102139,15.4164324 19.3146257,15.4164324" id="Fill-76" fill="#707070"></path>
                <path d="M19.3146257,18.3474114 L19.3146257,18.3474114 C18.7190374,18.3474114 18.231738,17.8609249 18.231738,17.2663303 C18.231738,16.6717357 18.7190374,16.1852492 19.3146257,16.1852492 C19.9102139,16.1852492 20.3975134,16.6717357 20.3975134,17.2663303 C20.3975134,17.8609249 19.9102139,18.3474114 19.3146257,18.3474114" id="Fill-78" fill="#707070"></path>
                <path d="M19.3146257,21.2783303 L19.3146257,21.2783303 C18.7190374,21.2783303 18.231738,20.7918438 18.231738,20.1972492 C18.231738,19.6026547 18.7190374,19.1161682 19.3146257,19.1161682 C19.9102139,19.1161682 20.3975134,19.6026547 20.3975134,20.1972492 C20.3975134,20.7918438 19.9102139,21.2783303 19.3146257,21.2783303" id="Fill-80" fill="#707070"></path>
                <path d="M19.3146257,24.2092492 L19.3146257,24.2092492 C18.7190374,24.2092492 18.231738,23.7227628 18.231738,23.1281682 C18.231738,22.5335736 18.7190374,22.0470871 19.3146257,22.0470871 C19.9102139,22.0470871 20.3975134,22.5335736 20.3975134,23.1281682 C20.3975134,23.7227628 19.9102139,24.2092492 19.3146257,24.2092492" id="Fill-82" fill="#707070"></path>
                <path d="M22.6234492,9.55459459 L22.6234492,9.55459459 C22.027861,9.55459459 21.5405615,9.06810811 21.5405615,8.47351351 C21.5405615,7.87891892 22.027861,7.39243243 22.6234492,7.39243243 C23.2190374,7.39243243 23.7063369,7.87891892 23.7063369,8.47351351 C23.7063369,9.06810811 23.2190374,9.55459459 22.6234492,9.55459459" id="Fill-84" fill="#707070"></path>
                <path d="M22.6234492,12.4855135 L22.6234492,12.4855135 C22.027861,12.4855135 21.5405615,11.999027 21.5405615,11.4044324 C21.5405615,10.8098378 22.027861,10.3233514 22.6234492,10.3233514 C23.2190374,10.3233514 23.7063369,10.8098378 23.7063369,11.4044324 C23.7063369,11.999027 23.2190374,12.4855135 22.6234492,12.4855135" id="Fill-86" fill="#707070"></path>
                <path d="M22.6234492,15.4164324 L22.6234492,15.4164324 C22.027861,15.4164324 21.5405615,14.9299459 21.5405615,14.3353514 C21.5405615,13.7407568 22.027861,13.2542703 22.6234492,13.2542703 C23.2190374,13.2542703 23.7063369,13.7407568 23.7063369,14.3353514 C23.7063369,14.9299459 23.2190374,15.4164324 22.6234492,15.4164324" id="Fill-88" fill="#707070"></path>
                <path d="M22.6234492,18.3474114 L22.6234492,18.3474114 C22.027861,18.3474114 21.5405615,17.8609249 21.5405615,17.2663303 C21.5405615,16.6717357 22.027861,16.1852492 22.6234492,16.1852492 C23.2190374,16.1852492 23.7063369,16.6717357 23.7063369,17.2663303 C23.7063369,17.8609249 23.2190374,18.3474114 22.6234492,18.3474114" id="Fill-90" fill="#707070"></path>
                <path d="M22.6234492,21.2783303 L22.6234492,21.2783303 C22.027861,21.2783303 21.5405615,20.7918438 21.5405615,20.1972492 C21.5405615,19.6026547 22.027861,19.1161682 22.6234492,19.1161682 C23.2190374,19.1161682 23.7063369,19.6026547 23.7063369,20.1972492 C23.7063369,20.7918438 23.2190374,21.2783303 22.6234492,21.2783303" id="Fill-92" fill="#707070"></path>
                <path d="M22.6234492,24.2092492 L22.6234492,24.2092492 C22.027861,24.2092492 21.5405615,23.7227628 21.5405615,23.1281682 C21.5405615,22.5335736 22.027861,22.0470871 22.6234492,22.0470871 C23.2190374,22.0470871 23.7063369,22.5335736 23.7063369,23.1281682 C23.7063369,23.7227628 23.2190374,24.2092492 22.6234492,24.2092492" id="Fill-94" fill="#707070"></path>
                <path d="M25.9322727,9.55459459 L25.9322727,9.55459459 C25.3366845,9.55459459 24.849385,9.06810811 24.849385,8.47351351 C24.849385,7.87891892 25.3366845,7.39243243 25.9322727,7.39243243 C26.527861,7.39243243 27.0151604,7.87891892 27.0151604,8.47351351 C27.0151604,9.06810811 26.527861,9.55459459 25.9322727,9.55459459" id="Fill-96" fill="#707070"></path>
                <path d="M25.9322727,12.4855135 L25.9322727,12.4855135 C25.3366845,12.4855135 24.849385,11.999027 24.849385,11.4044324 C24.849385,10.8098378 25.3366845,10.3233514 25.9322727,10.3233514 C26.527861,10.3233514 27.0151604,10.8098378 27.0151604,11.4044324 C27.0151604,11.999027 26.527861,12.4855135 25.9322727,12.4855135" id="Fill-98" fill="#707070"></path>
                <path d="M25.9322727,15.4164324 L25.9322727,15.4164324 C25.3366845,15.4164324 24.849385,14.9299459 24.849385,14.3353514 C24.849385,13.7407568 25.3366845,13.2542703 25.9322727,13.2542703 C26.527861,13.2542703 27.0151604,13.7407568 27.0151604,14.3353514 C27.0151604,14.9299459 26.527861,15.4164324 25.9322727,15.4164324" id="Fill-100" fill="#707070"></path>
                <path d="M25.9322727,18.3474114 L25.9322727,18.3474114 C25.3366845,18.3474114 24.849385,17.8609249 24.849385,17.2663303 C24.849385,16.6717357 25.3366845,16.1852492 25.9322727,16.1852492 C26.527861,16.1852492 27.0151604,16.6717357 27.0151604,17.2663303 C27.0151604,17.8609249 26.527861,18.3474114 25.9322727,18.3474114" id="Fill-102" fill="#707070"></path>
                <path d="M25.9322727,21.2783303 L25.9322727,21.2783303 C25.3366845,21.2783303 24.849385,20.7918438 24.849385,20.1972492 C24.849385,19.6026547 25.3366845,19.1161682 25.9322727,19.1161682 C26.527861,19.1161682 27.0151604,19.6026547 27.0151604,20.1972492 C27.0151604,20.7918438 26.527861,21.2783303 25.9322727,21.2783303" id="Fill-104" fill="#707070"></path>
                <path d="M25.9322727,24.2092492 L25.9322727,24.2092492 C25.3366845,24.2092492 24.849385,23.7227628 24.849385,23.1281682 C24.849385,22.5335736 25.3366845,22.0470871 25.9322727,22.0470871 C26.527861,22.0470871 27.0151604,22.5335736 27.0151604,23.1281682 C27.0151604,23.7227628 26.527861,24.2092492 25.9322727,24.2092492" id="Fill-106" fill="#707070"></path>
                <path d="M29.2410963,9.55459459 L29.2410963,9.55459459 C28.645508,9.55459459 28.1582086,9.06810811 28.1582086,8.47351351 C28.1582086,7.87891892 28.645508,7.39243243 29.2410963,7.39243243 C29.8366845,7.39243243 30.323984,7.87891892 30.323984,8.47351351 C30.323984,9.06810811 29.8366845,9.55459459 29.2410963,9.55459459" id="Fill-108" fill="#707070"></path>
                <path d="M29.2410963,12.4855135 L29.2410963,12.4855135 C28.645508,12.4855135 28.1582086,11.999027 28.1582086,11.4044324 C28.1582086,10.8098378 28.645508,10.3233514 29.2410963,10.3233514 C29.8366845,10.3233514 30.323984,10.8098378 30.323984,11.4044324 C30.323984,11.999027 29.8366845,12.4855135 29.2410963,12.4855135" id="Fill-110" fill="#707070"></path>
                <path d="M29.2410963,15.4164324 L29.2410963,15.4164324 C28.645508,15.4164324 28.1582086,14.9299459 28.1582086,14.3353514 C28.1582086,13.7407568 28.645508,13.2542703 29.2410963,13.2542703 C29.8366845,13.2542703 30.323984,13.7407568 30.323984,14.3353514 C30.323984,14.9299459 29.8366845,15.4164324 29.2410963,15.4164324" id="Fill-112" fill="#707070"></path>
                <path d="M29.2410963,18.3474114 L29.2410963,18.3474114 C28.645508,18.3474114 28.1582086,17.8609249 28.1582086,17.2663303 C28.1582086,16.6717357 28.645508,16.1852492 29.2410963,16.1852492 C29.8366845,16.1852492 30.323984,16.6717357 30.323984,17.2663303 C30.323984,17.8609249 29.8366845,18.3474114 29.2410963,18.3474114" id="Fill-114" fill="#707070"></path>
                <path d="M29.2410963,21.2783303 L29.2410963,21.2783303 C28.645508,21.2783303 28.1582086,20.7918438 28.1582086,20.1972492 C28.1582086,19.6026547 28.645508,19.1161682 29.2410963,19.1161682 C29.8366845,19.1161682 30.323984,19.6026547 30.323984,20.1972492 C30.323984,20.7918438 29.8366845,21.2783303 29.2410963,21.2783303" id="Fill-116" fill="#707070"></path>
                <path d="M29.2410963,24.2092492 L29.2410963,24.2092492 C28.645508,24.2092492 28.1582086,23.7227628 28.1582086,23.1281682 C28.1582086,22.5335736 28.645508,22.0470871 29.2410963,22.0470871 C29.8366845,22.0470871 30.323984,22.5335736 30.323984,23.1281682 C30.323984,23.7227628 29.8366845,24.2092492 29.2410963,24.2092492" id="Fill-118" fill="#707070"></path>
                <path d="M32.5499198,9.55459459 L32.5499198,9.55459459 C31.9543316,9.55459459 31.4670321,9.06810811 31.4670321,8.47351351 C31.4670321,7.87891892 31.9543316,7.39243243 32.5499198,7.39243243 C33.145508,7.39243243 33.6328075,7.87891892 33.6328075,8.47351351 C33.6328075,9.06810811 33.145508,9.55459459 32.5499198,9.55459459" id="Fill-120" fill="#707070"></path>
                <path d="M32.5499198,12.4855135 L32.5499198,12.4855135 C31.9543316,12.4855135 31.4670321,11.999027 31.4670321,11.4044324 C31.4670321,10.8098378 31.9543316,10.3233514 32.5499198,10.3233514 C33.145508,10.3233514 33.6328075,10.8098378 33.6328075,11.4044324 C33.6328075,11.999027 33.145508,12.4855135 32.5499198,12.4855135" id="Fill-122" fill="#707070"></path>
                <path d="M32.5499198,15.4164324 L32.5499198,15.4164324 C31.9543316,15.4164324 31.4670321,14.9299459 31.4670321,14.3353514 C31.4670321,13.7407568 31.9543316,13.2542703 32.5499198,13.2542703 C33.145508,13.2542703 33.6328075,13.7407568 33.6328075,14.3353514 C33.6328075,14.9299459 33.145508,15.4164324 32.5499198,15.4164324" id="Fill-124" fill="#707070"></path>
                <path d="M32.5499198,18.3474114 L32.5499198,18.3474114 C31.9543316,18.3474114 31.4670321,17.8609249 31.4670321,17.2663303 C31.4670321,16.6717357 31.9543316,16.1852492 32.5499198,16.1852492 C33.145508,16.1852492 33.6328075,16.6717357 33.6328075,17.2663303 C33.6328075,17.8609249 33.145508,18.3474114 32.5499198,18.3474114" id="Fill-126" fill="#707070"></path>
                <path d="M32.5499198,21.2783303 L32.5499198,21.2783303 C31.9543316,21.2783303 31.4670321,20.7918438 31.4670321,20.1972492 C31.4670321,19.6026547 31.9543316,19.1161682 32.5499198,19.1161682 C33.145508,19.1161682 33.6328075,19.6026547 33.6328075,20.1972492 C33.6328075,20.7918438 33.145508,21.2783303 32.5499198,21.2783303" id="Fill-128" fill="#707070"></path>
                <path d="M32.5499198,24.2092492 L32.5499198,24.2092492 C31.9543316,24.2092492 31.4670321,23.7227628 31.4670321,23.1281682 C31.4670321,22.5335736 31.9543316,22.0470871 32.5499198,22.0470871 C33.145508,22.0470871 33.6328075,22.5335736 33.6328075,23.1281682 C33.6328075,23.7227628 33.145508,24.2092492 32.5499198,24.2092492" id="Fill-130" fill="#707070"></path>
                <path d="M35.8587433,9.55459459 L35.8587433,9.55459459 C35.2631551,9.55459459 34.7758556,9.06810811 34.7758556,8.47351351 C34.7758556,7.87891892 35.2631551,7.39243243 35.8587433,7.39243243 C36.4543316,7.39243243 36.941631,7.87891892 36.941631,8.47351351 C36.941631,9.06810811 36.4543316,9.55459459 35.8587433,9.55459459" id="Fill-132" fill="#707070"></path>
                <path d="M35.8587433,12.4855135 L35.8587433,12.4855135 C35.2631551,12.4855135 34.7758556,11.999027 34.7758556,11.4044324 C34.7758556,10.8098378 35.2631551,10.3233514 35.8587433,10.3233514 C36.4543316,10.3233514 36.941631,10.8098378 36.941631,11.4044324 C36.941631,11.999027 36.4543316,12.4855135 35.8587433,12.4855135" id="Fill-134" fill="#707070"></path>
                <path d="M35.8587433,15.4164324 L35.8587433,15.4164324 C35.2631551,15.4164324 34.7758556,14.9299459 34.7758556,14.3353514 C34.7758556,13.7407568 35.2631551,13.2542703 35.8587433,13.2542703 C36.4543316,13.2542703 36.941631,13.7407568 36.941631,14.3353514 C36.941631,14.9299459 36.4543316,15.4164324 35.8587433,15.4164324" id="Fill-136" fill="#707070"></path>
                <path d="M35.8587433,18.3474114 L35.8587433,18.3474114 C35.2631551,18.3474114 34.7758556,17.8609249 34.7758556,17.2663303 C34.7758556,16.6717357 35.2631551,16.1852492 35.8587433,16.1852492 C36.4543316,16.1852492 36.941631,16.6717357 36.941631,17.2663303 C36.941631,17.8609249 36.4543316,18.3474114 35.8587433,18.3474114" id="Fill-138" fill="#707070"></path>
                <path d="M35.8587433,21.2783303 L35.8587433,21.2783303 C35.2631551,21.2783303 34.7758556,20.7918438 34.7758556,20.1972492 C34.7758556,19.6026547 35.2631551,19.1161682 35.8587433,19.1161682 C36.4543316,19.1161682 36.941631,19.6026547 36.941631,20.1972492 C36.941631,20.7918438 36.4543316,21.2783303 35.8587433,21.2783303" id="Fill-140" fill="#707070"></path>
                <path d="M35.8587433,24.2092492 L35.8587433,24.2092492 C35.2631551,24.2092492 34.7758556,23.7227628 34.7758556,23.1281682 C34.7758556,22.5335736 35.2631551,22.0470871 35.8587433,22.0470871 C36.4543316,22.0470871 36.941631,22.5335736 36.941631,23.1281682 C36.941631,23.7227628 36.4543316,24.2092492 35.8587433,24.2092492" id="Fill-142" fill="#707070"></path>
                <path d="M39.1675668,9.55459459 L39.1675668,9.55459459 C38.5719786,9.55459459 38.0846791,9.06810811 38.0846791,8.47351351 C38.0846791,7.87891892 38.5719786,7.39243243 39.1675668,7.39243243 C39.7631551,7.39243243 40.2504545,7.87891892 40.2504545,8.47351351 C40.2504545,9.06810811 39.7631551,9.55459459 39.1675668,9.55459459" id="Fill-144" fill="#707070"></path>
                <path d="M39.1675668,12.4855135 L39.1675668,12.4855135 C38.5719786,12.4855135 38.0846791,11.999027 38.0846791,11.4044324 C38.0846791,10.8098378 38.5719786,10.3233514 39.1675668,10.3233514 C39.7631551,10.3233514 40.2504545,10.8098378 40.2504545,11.4044324 C40.2504545,11.999027 39.7631551,12.4855135 39.1675668,12.4855135" id="Fill-146" fill="#707070"></path>
                <path d="M39.1675668,15.4164324 L39.1675668,15.4164324 C38.5719786,15.4164324 38.0846791,14.9299459 38.0846791,14.3353514 C38.0846791,13.7407568 38.5719786,13.2542703 39.1675668,13.2542703 C39.7631551,13.2542703 40.2504545,13.7407568 40.2504545,14.3353514 C40.2504545,14.9299459 39.7631551,15.4164324 39.1675668,15.4164324" id="Fill-148" fill="#707070"></path>
                <path d="M39.1675668,18.3474114 L39.1675668,18.3474114 C38.5719786,18.3474114 38.0846791,17.8609249 38.0846791,17.2663303 C38.0846791,16.6717357 38.5719786,16.1852492 39.1675668,16.1852492 C39.7631551,16.1852492 40.2504545,16.6717357 40.2504545,17.2663303 C40.2504545,17.8609249 39.7631551,18.3474114 39.1675668,18.3474114" id="Fill-150" fill="#707070"></path>
                <path d="M39.1675668,21.2783303 L39.1675668,21.2783303 C38.5719786,21.2783303 38.0846791,20.7918438 38.0846791,20.1972492 C38.0846791,19.6026547 38.5719786,19.1161682 39.1675668,19.1161682 C39.7631551,19.1161682 40.2504545,19.6026547 40.2504545,20.1972492 C40.2504545,20.7918438 39.7631551,21.2783303 39.1675668,21.2783303" id="Fill-152" fill="#707070"></path>
                <path d="M39.1675668,24.2092492 L39.1675668,24.2092492 C38.5719786,24.2092492 38.0846791,23.7227628 38.0846791,23.1281682 C38.0846791,22.5335736 38.5719786,22.0470871 39.1675668,22.0470871 C39.7631551,22.0470871 40.2504545,22.5335736 40.2504545,23.1281682 C40.2504545,23.7227628 39.7631551,24.2092492 39.1675668,24.2092492" id="Fill-154" fill="#707070"></path>
                <path d="M12.6540241,18.3233634 L12.6540241,18.3233634 C12.0348529,18.3233634 11.5281818,17.8175375 11.5281818,17.1993994 L11.5281818,11.3992793 C11.5281818,10.7811411 12.0348529,10.2753153 12.6540241,10.2753153 C13.2731952,10.2753153 13.7798663,10.7811411 13.7798663,11.3992793 L13.7798663,17.1993994 C13.7798663,17.8175375 13.2731952,18.3233634 12.6540241,18.3233634" id="Fill-156" fill="#00FFFF"></path>
                <path d="M32.5069652,18.3233634 L32.5069652,18.3233634 C31.8877941,18.3233634 31.381123,17.8175375 31.381123,17.1993994 L31.381123,11.3992793 C31.381123,10.7811411 31.8877941,10.2753153 32.5069652,10.2753153 C33.1261364,10.2753153 33.6328075,10.7811411 33.6328075,11.3992793 L33.6328075,17.1993994 C33.6328075,17.8175375 33.1261364,18.3233634 32.5069652,18.3233634" id="Fill-158" fill="#00FFFF"></path>
                <path d="M13.1181016,5.17021021 L9.38815508,5.17021021 C9.18878342,5.17021021 9.02719251,5.00888889 9.02719251,4.80984985 C9.02719251,4.61081081 9.18878342,4.44948949 9.38815508,4.44948949 L13.1181016,4.44948949 C13.3174733,4.44948949 13.4790642,4.61081081 13.4790642,4.80984985 C13.4790642,5.00888889 13.3174733,5.17021021 13.1181016,5.17021021" id="Fill-160" fill="#FFFFFF"></path>
                <path d="M7.94430481,5.17021021 L6.38013369,5.17021021 C6.18076203,5.17021021 6.01917112,5.00888889 6.01917112,4.80984985 C6.01917112,4.61081081 6.18076203,4.44948949 6.38013369,4.44948949 L7.94430481,4.44948949 C8.14367647,4.44948949 8.30526738,4.61081081 8.30526738,4.80984985 C8.30526738,5.00888889 8.14367647,5.17021021 7.94430481,5.17021021" id="Fill-162" fill="#FFFFFF"></path>
                <path d="M18.2918984,17.3023423 C18.2918984,17.3023423 21.9015241,19.7047447 27.0753209,17.1822222" id="Stroke-174" stroke="#43FFFA" stroke-width="1.68" stroke-linecap="round" stroke-linejoin="round"></path>
                <path d="M32.9710428,26.0711111 L12.9977807,26.0711111 C12.731992,26.0711111 12.5164973,25.855976 12.5164973,25.5906306 C12.5164973,25.3252853 12.731992,25.1101502 12.9977807,25.1101502 L32.9710428,25.1101502 C33.2368316,25.1101502 33.4523262,25.3252853 33.4523262,25.5906306 C33.4523262,25.855976 33.2368316,26.0711111 32.9710428,26.0711111" id="Fill-176" fill="#7C7C7C"></path>
            </g>
        </g>
    </g>
</svg>