<?xml version="1.0" encoding="UTF-8"?>
<svg width="20px" height="20px" viewBox="0 0 20 20" version="1.1" xmlns="http://www.w3.org/2000/svg" xmlns:xlink="http://www.w3.org/1999/xlink">
    <!-- Generator: Sketch 52.5 (67469) - http://www.bohemiancoding.com/sketch -->
    <title>Combined Shape Copy</title>
    <desc>Created with Sketch.</desc>
    <g id="Page-1" stroke="none" stroke-width="1" fill="none" fill-rule="evenodd">
        <g id="Artboard" transform="translate(-20.000000, -494.000000)" fill="#9300DB" fill-rule="nonzero">
            <g id="左侧全部-copy">
                <path d="M25.2019144,512.775873 C25.5248745,512.313015 25.7142857,511.750056 25.7142857,511.142857 C25.7142857,509.564901 24.4350993,508.285714 22.8571429,508.285714 C22.2499441,508.285714 21.6869846,508.475125 21.2241268,508.798086 C20.4437313,507.373741 20,505.73869 20,504 C20,502.26131 20.4437313,500.626259 21.2241268,499.201914 C21.6869846,499.524875 22.2499441,499.714286 22.8571429,499.714286 C24.4350993,499.714286 25.7142857,498.435099 25.7142857,496.857143 C25.7142857,496.249944 25.5248745,495.686985 25.2019144,495.224127 C26.6262592,494.443731 28.2613101,494 30,494 C31.7386899,494 33.3737408,494.443731 34.7980856,495.224127 C34.4751255,495.686985 34.2857143,496.249944 34.2857143,496.857143 C34.2857143,498.435099 35.5649007,499.714286 37.1428571,499.714286 C37.7500559,499.714286 38.3130154,499.524875 38.7758732,499.201914 C39.5562687,500.626259 40,502.26131 40,504 C40,505.73869 39.5562687,507.373741 38.7758732,508.798086 C38.3130154,508.475125 37.7500559,508.285714 37.1428571,508.285714 C35.5649007,508.285714 34.2857143,509.564901 34.2857143,511.142857 C34.2857143,511.750056 34.4751255,512.313015 34.7980856,512.775873 C33.3737408,513.556269 31.7386899,514 30,514 C28.2613101,514 26.6262592,513.556269 25.2019144,512.775873 Z M24.2890957,512.209944 C23.3156197,511.531518 22.4684824,510.68438 21.7900557,509.710904 C22.0877586,509.488697 22.4570877,509.357143 22.8571429,509.357143 C23.8433656,509.357143 24.6428571,510.156634 24.6428571,511.142857 C24.6428571,511.542912 24.5113033,511.912241 24.2890957,512.209944 Z M21.7900557,498.289096 C22.4684824,497.31562 23.3156197,496.468482 24.2890957,495.790056 C24.5113033,496.087759 24.6428571,496.457088 24.6428571,496.857143 C24.6428571,497.843366 23.8433656,498.642857 22.8571429,498.642857 C22.4570877,498.642857 22.0877586,498.511303 21.7900557,498.289096 Z M35.7109043,495.790056 C36.6843803,496.468482 37.5315176,497.31562 38.2099443,498.289096 C37.9122414,498.511303 37.5429123,498.642857 37.1428571,498.642857 C36.1566344,498.642857 35.3571429,497.843366 35.3571429,496.857143 C35.3571429,496.457088 35.4886967,496.087759 35.7109043,495.790056 Z M38.2099443,509.710904 C37.5315176,510.68438 36.6843803,511.531518 35.7109043,512.209944 C35.4886967,511.912241 35.3571429,511.542912 35.3571429,511.142857 C35.3571429,510.156634 36.1566344,509.357143 37.1428571,509.357143 C37.5429123,509.357143 37.9122414,509.488697 38.2099443,509.710904 Z M29.2307692,502.461538 C28.8059348,502.461538 28.4615385,502.805935 28.4615385,503.230769 L28.4615385,504.769231 C28.4615385,505.194065 28.8059348,505.538462 29.2307692,505.538462 L30.7692308,505.538462 C31.1940652,505.538462 31.5384615,505.194065 31.5384615,504.769231 L31.5384615,503.230769 C31.5384615,502.805935 31.1940652,502.461538 30.7692308,502.461538 L29.2307692,502.461538 Z M30,503.230769 C30.4248344,503.230769 30.7692308,503.575166 30.7692308,504 C30.7692308,504.424834 30.4248344,504.769231 30,504.769231 C29.5751656,504.769231 29.2307692,504.424834 29.2307692,504 C29.2307692,503.575166 29.5751656,503.230769 30,503.230769 Z M30,499.384615 C30.6372516,499.384615 31.1538462,498.868021 31.1538462,498.230769 C31.1538462,497.593518 30.6372516,497.076923 30,497.076923 C29.3627484,497.076923 28.8461538,497.593518 28.8461538,498.230769 C28.8461538,498.868021 29.3627484,499.384615 30,499.384615 Z M30,510.923077 C30.6372516,510.923077 31.1538462,510.406482 31.1538462,509.769231 C31.1538462,509.131979 30.6372516,508.615385 30,508.615385 C29.3627484,508.615385 28.8461538,509.131979 28.8461538,509.769231 C28.8461538,510.406482 29.3627484,510.923077 30,510.923077 Z M27.6923077,500.00296 C28.2441838,499.684334 28.4332705,498.978653 28.1146447,498.426777 C27.7960189,497.8749 27.0903376,497.685814 26.5384615,498.00444 C25.9865854,498.323065 25.7974987,499.028747 26.1161245,499.580623 C26.4347504,500.132499 27.1404316,500.321585 27.6923077,500.00296 Z M33.4615385,509.99556 C34.0134146,509.676935 34.2025013,508.971253 33.8838755,508.419377 C33.5652496,507.867501 32.8595684,507.678415 32.3076923,507.99704 C31.7558162,508.315666 31.5667295,509.021347 31.8853553,509.573223 C32.2039811,510.1251 32.9096624,510.314186 33.4615385,509.99556 Z M26.0029597,501.692308 C26.3215855,501.140432 26.1324988,500.43475 25.5806227,500.116125 C25.0287466,499.797499 24.3230653,499.986585 24.0044395,500.538462 C23.6858137,501.090338 23.8749004,501.796019 24.4267765,502.114645 C24.9786526,502.433271 25.6843339,502.244184 26.0029597,501.692308 Z M35.9955605,507.461538 C36.3141863,506.909662 36.1250996,506.203981 35.5732235,505.885355 C35.0213474,505.566729 34.3156661,505.755816 33.9970403,506.307692 C33.6784145,506.859568 33.8675012,507.56525 34.4193773,507.883875 C34.9712534,508.202501 35.6769347,508.013415 35.9955605,507.461538 Z M25.3846154,504 C25.3846154,503.362748 24.8680209,502.846154 24.2307692,502.846154 C23.5935176,502.846154 23.0769231,503.362748 23.0769231,504 C23.0769231,504.637252 23.5935176,505.153846 24.2307692,505.153846 C24.8680209,505.153846 25.3846154,504.637252 25.3846154,504 Z M36.9230769,504 C36.9230769,503.362748 36.4064824,502.846154 35.7692308,502.846154 C35.1319791,502.846154 34.6153846,503.362748 34.6153846,504 C34.6153846,504.637252 35.1319791,505.153846 35.7692308,505.153846 C36.4064824,505.153846 36.9230769,504.637252 36.9230769,504 Z M26.0029597,506.307692 C25.6843339,505.755816 24.9786526,505.566729 24.4267765,505.885355 C23.8749004,506.203981 23.6858137,506.909662 24.0044395,507.461538 C24.3230653,508.013415 25.0287466,508.202501 25.5806227,507.883875 C26.1324988,507.56525 26.3215855,506.859568 26.0029597,506.307692 Z M35.9955605,500.538462 C35.6769347,499.986585 34.9712534,499.797499 34.4193773,500.116125 C33.8675012,500.43475 33.6784145,501.140432 33.9970403,501.692308 C34.3156661,502.244184 35.0213474,502.433271 35.5732235,502.114645 C36.1250996,501.796019 36.3141863,501.090338 35.9955605,500.538462 Z M27.6923077,507.99704 C27.1404316,507.678415 26.4347504,507.867501 26.1161245,508.419377 C25.7974987,508.971253 25.9865854,509.676935 26.5384615,509.99556 C27.0903376,510.314186 27.7960189,510.1251 28.1146447,509.573223 C28.4332705,509.021347 28.2441838,508.315666 27.6923077,507.99704 Z M33.4615385,498.00444 C32.9096624,497.685814 32.2039811,497.8749 31.8853553,498.426777 C31.5667295,498.978653 31.7558162,499.684334 32.3076923,500.00296 C32.8595684,500.321585 33.5652496,500.132499 33.8838755,499.580623 C34.2025013,499.028747 34.0134146,498.323065 33.4615385,498.00444 Z" id="Combined-Shape-Copy"></path>
            </g>
        </g>
    </g>
</svg>