<svg width="310" height="284" xmlns="http://www.w3.org/2000/svg" xmlns:xlink="http://www.w3.org/1999/xlink"><defs><path id="a" d="M0 .168h56.15v72.555H0z"/><path id="c" d="M.342.438h48.414v88.623H.342z"/><path d="M2.235.005C1.355.005.439.637.19 1.416c-.25.78.261 1.411 1.142 1.411h66.13c.88 0 1.796-.631 2.045-1.41.25-.78-.262-1.412-1.142-1.412H2.235z" id="e"/><path d="M.413 2.825l-.006.02c-.489 1.524.51 2.76 2.23 2.76 1.718 0 3.508-1.236 3.995-2.76l.007-.02C7.127 1.302 6.128.067 4.409.067 2.689.067.9 1.302.413 2.825z" id="g"/><path d="M.512 3.157l-.006.02c-.488 1.523.51 2.758 2.23 2.758 1.719 0 3.508-1.235 3.996-2.759l.005-.02C7.226 1.634 6.227.399 4.508.399 2.788.398 1 1.633.512 3.157z" id="i"/><path d="M.463 3.232l-.007.02C-.031 4.774.967 6.01 2.686 6.01c1.72 0 3.508-1.235 3.996-2.759l.007-.02C7.176 1.71 6.177.474 4.458.474 2.739.473.95 1.71.463 3.232z" id="k"/><path d="M.192 3.21l-.006.02c-.487 1.523.51 2.758 2.23 2.758 1.719 0 3.508-1.235 3.996-2.758l.006-.02c.488-1.523-.51-2.758-2.23-2.758C2.47.452.68 1.687.192 3.21z" id="m"/><path d="M.197 2.788l-.007.02C-.298 4.331.7 5.566 2.42 5.566s3.508-1.235 3.996-2.758l.006-.02C6.91 1.265 5.912.029 4.192.029 2.473.03.684 1.265.197 2.788z" id="o"/><path d="M.409 2.766l-.007.02c-.487 1.524.511 2.758 2.23 2.758 1.72 0 3.508-1.234 3.996-2.758l.007-.02C7.122 1.243 6.124.008 4.405.008 2.685.008.896 1.243.409 2.766z" id="q"/><path d="M.246 3.194l-.006.02c-.488 1.523.51 2.758 2.23 2.758 1.719 0 3.508-1.235 3.996-2.758l.006-.02C6.96 1.671 5.962.436 4.242.436 2.523.436.734 1.67.246 3.194z" id="s"/><path d="M.458 3.173l-.006.02c-.488 1.523.51 2.758 2.23 2.758S6.19 4.716 6.678 3.193l.006-.02c.488-1.524-.51-2.759-2.23-2.759C2.736.414.947 1.65.459 3.173z" id="u"/><path d="M.362 2.825l-.006.02c-.488 1.524.51 2.76 2.23 2.76 1.719 0 3.508-1.236 3.996-2.76l.006-.02c.488-1.523-.51-2.758-2.23-2.758S.85 1.302.362 2.825z" id="w"/><path d="M.461 3.157l-.006.02c-.488 1.523.51 2.758 2.23 2.758 1.719 0 3.508-1.235 3.996-2.759l.006-.02c.488-1.523-.51-2.758-2.23-2.758C2.739.398.95 1.633.462 3.157z" id="y"/><path d="M.412 3.232l-.007.02c-.487 1.523.51 2.758 2.23 2.758s3.508-1.235 3.996-2.759l.007-.02C7.125 1.71 6.127.474 4.408.474 2.687.473.9 1.71.411 3.232z" id="A"/><path d="M.141 3.21l-.005.02c-.488 1.523.51 2.758 2.23 2.758 1.719 0 3.508-1.235 3.995-2.758l.007-.02C6.855 1.687 5.857.452 4.138.452 2.417.452.628 1.687.14 3.21z" id="C"/><path d="M.146 2.788l-.007.02C-.349 4.331.65 5.566 2.37 5.566c1.72 0 3.508-1.235 3.996-2.758l.006-.02C6.86 1.265 5.861.029 4.141.029 2.423.03.634 1.265.147 2.788z" id="E"/><path d="M.358 2.766l-.006.02c-.488 1.524.51 2.758 2.23 2.758 1.719 0 3.508-1.234 3.995-2.758l.007-.02c.488-1.523-.51-2.758-2.23-2.758S.845 1.243.358 2.766z" id="G"/><path d="M.195 3.194l-.006.02C-.299 4.737.7 5.972 2.42 5.972s3.508-1.235 3.996-2.758l.007-.02C6.909 1.671 5.91.436 4.192.436 2.471.436.682 1.67.194 3.194z" id="I"/><path d="M.408 3.173l-.007.02C-.086 4.716.912 5.95 2.631 5.95c1.72 0 3.508-1.235 3.996-2.758l.006-.02C7.121 1.649 6.123.414 4.404.414 2.684.414.896 1.65.408 3.173z" id="K"/><path d="M.387 2.825l-.006.02c-.488 1.524.51 2.76 2.23 2.76s3.508-1.236 3.996-2.76l.006-.02c.488-1.523-.51-2.758-2.23-2.758C2.665.067.876 1.302.388 2.825z" id="M"/><path d="M.487 3.157l-.007.02C-.007 4.7.99 5.934 2.71 5.934S6.218 4.7 6.707 3.176l.005-.02C7.2 1.634 6.202.399 4.483.399 2.763.398.974 1.633.487 3.157z" id="O"/><path d="M.437 3.232l-.006.02C-.057 4.774.94 6.01 2.66 6.01c1.719 0 3.508-1.235 3.995-2.759l.007-.02C7.15 1.71 6.153.474 4.433.474S.925 1.71.437 3.232z" id="Q"/><path d="M.167 3.21l-.006.02c-.488 1.523.51 2.758 2.23 2.758 1.719 0 3.508-1.235 3.995-2.758l.007-.02C6.881 1.687 5.882.452 4.163.452 2.443.452.655 1.687.167 3.21z" id="S"/><path d="M.171 2.788l-.007.02c-.487 1.523.511 2.758 2.23 2.758 1.72 0 3.51-1.235 3.997-2.758l.005-.02C6.885 1.265 5.886.029 4.167.029 2.447.03.658 1.265.171 2.788z" id="U"/><path d="M.383 2.766l-.006.02c-.487 1.524.51 2.758 2.23 2.758 1.719 0 3.508-1.234 3.996-2.758l.006-.02C7.097 1.243 6.1.008 4.38.008 2.66.008.87 1.243.383 2.766z" id="W"/><path d="M.22 3.194l-.005.02c-.488 1.523.51 2.758 2.23 2.758 1.718 0 3.508-1.235 3.995-2.758l.007-.02c.487-1.523-.51-2.758-2.23-2.758S.709 1.67.22 3.194z" id="Y"/><path d="M.433 3.173l-.006.02c-.488 1.523.51 2.758 2.23 2.758 1.719 0 3.508-1.235 3.996-2.758l.006-.02c.488-1.524-.51-2.759-2.23-2.759S.921 1.65.433 3.173z" id="aa"/><path d="M.337 2.825l-.007.02c-.487 1.524.511 2.76 2.23 2.76 1.72 0 3.508-1.236 3.997-2.76l.005-.02C7.05 1.302 6.052.067 4.332.067 2.615.067.825 1.302.338 2.825z" id="ac"/><path d="M.436 3.157l-.006.02C-.058 4.7.94 5.934 2.66 5.934c1.719 0 3.508-1.235 3.996-2.759l.006-.02c.487-1.523-.51-2.758-2.23-2.758C2.713.398.924 1.633.436 3.157z" id="ae"/><path d="M.29 3.232l-.006.02c-.488 1.523.51 2.758 2.23 2.758S6.022 4.775 6.51 3.251l.007-.02C7.004 1.71 6.006.474 4.287.474 2.566.473.777 1.71.29 3.232z" id="ag"/><path d="M.599 3.21l-.007.02c-.487 1.523.511 2.758 2.23 2.758 1.72 0 3.508-1.235 3.996-2.758l.007-.02C7.312 1.687 6.314.452 4.595.452 2.875.452 1.087 1.687.599 3.21z" id="ai"/><path d="M.603 2.788l-.007.02c-.487 1.523.51 2.758 2.23 2.758s3.508-1.235 3.996-2.758l.006-.02c.488-1.523-.51-2.759-2.23-2.759C2.88.03 1.092 1.265.604 2.788z" id="ak"/><path d="M.333 2.766l-.006.02c-.489 1.524.51 2.758 2.229 2.758 1.72 0 3.509-1.234 3.996-2.758l.007-.02C7.046 1.243 6.048.008 4.329.008 2.609.008.819 1.243.333 2.766z" id="am"/><path d="M.17 3.194l-.006.02c-.488 1.523.51 2.758 2.23 2.758s3.508-1.235 3.995-2.758l.007-.02c.488-1.523-.51-2.758-2.23-2.758C2.447.436.658 1.67.17 3.194z" id="ao"/><path d="M.382 3.173l-.006.02C-.11 4.716.886 5.95 2.606 5.95c1.719 0 3.508-1.235 3.995-2.758l.007-.02c.488-1.524-.51-2.759-2.23-2.759C2.66.414.87 1.65.382 3.173z" id="aq"/><path d="M.599 2.825l-.006.02c-.488 1.524.51 2.76 2.23 2.76 1.719 0 3.508-1.236 3.996-2.76l.006-.02C7.312 1.302 6.314.067 4.595.067 2.876.067 1.087 1.302.599 2.825z" id="as"/><path d="M.216 3.157l-.006.02C-.278 4.7.72 5.934 2.44 5.934c1.719 0 3.508-1.235 3.996-2.759l.006-.02C6.93 1.634 5.932.399 4.212.399 2.494.398.705 1.633.217 3.157z" id="au"/><path d="M.167 3.232l-.006.02C-.327 4.774.67 6.01 2.39 6.01c1.72 0 3.508-1.235 3.996-2.759l.006-.02C6.88 1.71 5.882.474 4.162.474 2.443.473.654 1.71.167 3.232z" id="aw"/><path d="M.38 3.21l-.008.02c-.487 1.523.511 2.758 2.23 2.758 1.72 0 3.508-1.235 3.997-2.758l.005-.02C7.092 1.687 6.094.452 4.375.452 2.655.452.867 1.687.38 3.21z" id="ay"/><path d="M.383 2.788l-.006.02c-.488 1.523.51 2.758 2.23 2.758 1.719 0 3.508-1.235 3.995-2.758l.007-.02c.488-1.523-.51-2.759-2.23-2.759C2.66.03.87 1.265.383 2.788z" id="aA"/><path d="M.595 2.766l-.006.02c-.488 1.524.51 2.758 2.23 2.758S6.327 4.31 6.815 2.786l.006-.02C7.309 1.243 6.31.008 4.59.008 2.872.008 1.083 1.243.595 2.766z" id="aC"/><path d="M.433 3.194l-.007.02c-.487 1.523.511 2.758 2.23 2.758 1.72 0 3.508-1.235 3.996-2.758l.007-.02C7.146 1.671 6.148.436 4.429.436 2.709.436.92 1.67.433 3.194z" id="aE"/><path d="M.163 3.173l-.007.02C-.33 4.716.667 5.95 2.386 5.95c1.72 0 3.508-1.235 3.996-2.758l.006-.02c.488-1.524-.51-2.759-2.23-2.759C2.44.414.652 1.65.164 3.173z" id="aG"/><path d="M.548 2.825l-.006.02c-.487 1.524.51 2.76 2.23 2.76s3.508-1.236 3.996-2.76l.007-.02C7.262 1.302 6.264.067 4.545.067c-1.72 0-3.509 1.235-3.997 2.758z" id="aI"/><path d="M.165 3.157l-.005.02C-.328 4.7.67 5.934 2.389 5.934c1.72 0 3.508-1.235 3.996-2.759l.007-.02C6.879 1.634 5.88.399 4.162.399 2.441.398.653 1.633.164 3.157z" id="aK"/><path d="M.558 3.232l-.006.02c-.488 1.523.51 2.758 2.23 2.758 1.718 0 3.508-1.235 3.995-2.759l.007-.02C7.27 1.71 6.273.474 4.554.474 2.834.473 1.046 1.71.558 3.232z" id="aM"/><path d="M.328 3.21l-.006.02c-.488 1.523.51 2.758 2.23 2.758 1.719 0 3.508-1.235 3.996-2.758l.006-.02c.488-1.523-.51-2.758-2.23-2.758C2.605.452.816 1.687.328 3.21z" id="aO"/><path d="M.332 2.788l-.006.02c-.488 1.523.51 2.758 2.23 2.758 1.719 0 3.508-1.235 3.996-2.758l.006-.02c.488-1.523-.51-2.759-2.23-2.759S.82 1.265.332 2.788z" id="aQ"/><path d="M.545 2.766l-.007.02c-.488 1.524.51 2.758 2.23 2.758S6.276 4.31 6.764 2.786l.006-.02C7.258 1.243 6.26.008 4.54.008 2.823.008 1.033 1.243.546 2.766z" id="aS"/><path d="M.382 3.194l-.006.02c-.488 1.523.51 2.758 2.23 2.758 1.718 0 3.507-1.235 3.995-2.758l.007-.02C7.095 1.671 6.097.436 4.378.436 2.657.436.868 1.67.381 3.194z" id="aU"/><path d="M.594 3.173l-.007.02C.1 4.716 1.1 5.95 2.817 5.95c1.72 0 3.509-1.235 3.997-2.758l.006-.02C7.308 1.649 6.31.414 4.59.414S1.082 1.65.594 3.173z" id="aW"/><path d="M.574 2.825l-.007.02c-.487 1.524.511 2.76 2.23 2.76 1.72 0 3.509-1.236 3.996-2.76l.007-.02C7.287 1.302 6.289.067 4.57.067 2.85.067 1.062 1.302.574 2.825z" id="aY"/><path d="M.191 3.157l-.006.02c-.488 1.523.51 2.758 2.23 2.758 1.719 0 3.508-1.235 3.995-2.759l.007-.02C6.905 1.634 5.906.399 4.187.399 2.468.398.679 1.633.191 3.157z" id="ba"/><path d="M.141 3.232l-.006.02c-.488 1.523.51 2.758 2.23 2.758 1.719 0 3.508-1.235 3.996-2.759l.006-.02C6.855 1.71 5.857.474 4.137.474S.63 1.71.141 3.232z" id="bc"/><path d="M.354 3.21l-.007.02c-.488 1.523.511 2.758 2.23 2.758 1.719 0 3.508-1.235 3.996-2.758l.006-.02C7.067 1.687 6.07.452 4.35.452 2.632.452.842 1.687.355 3.21z" id="be"/><path d="M.357 2.788l-.006.02c-.487 1.523.51 2.758 2.23 2.758S6.09 4.331 6.577 2.808l.006-.02c.488-1.523-.51-2.759-2.23-2.759C2.635.03.846 1.265.358 2.788z" id="bg"/><path d="M.57 2.766l-.006.02c-.488 1.524.51 2.758 2.23 2.758 1.719 0 3.508-1.234 3.996-2.758l.006-.02c.487-1.523-.51-2.758-2.23-2.758S1.058 1.243.57 2.766z" id="bi"/><path d="M.407 3.194l-.006.02c-.488 1.523.511 2.758 2.23 2.758 1.72 0 3.508-1.235 3.996-2.758l.006-.02C7.12 1.671 6.123.436 4.403.436 2.684.436.895 1.67.407 3.194z" id="bk"/><path d="M.137 3.173l-.006.02C-.356 4.716.64 5.95 2.36 5.95c1.719 0 3.508-1.235 3.996-2.758l.006-.02C6.85 1.648 5.852.413 4.132.413 2.414.414.625 1.65.137 3.173z" id="bm"/><path d="M.523 2.825l-.006.02c-.488 1.524.51 2.76 2.23 2.76s3.508-1.236 3.996-2.76l.006-.02c.488-1.523-.51-2.758-2.23-2.758S1.01 1.302.523 2.825z" id="bo"/><path d="M.14 3.157l-.006.02c-.488 1.523.51 2.758 2.23 2.758S5.872 4.7 6.36 3.176l.006-.02c.488-1.523-.51-2.758-2.23-2.758C2.417.398.628 1.633.14 3.157z" id="bq"/><path d="M.573 3.232l-.006.02c-.488 1.523.51 2.758 2.23 2.758 1.718 0 3.508-1.235 3.995-2.759l.007-.02C7.286 1.71 6.288.474 4.569.474 2.849.473 1.061 1.71.573 3.232z" id="bs"/><path d="M.303 3.21l-.006.02c-.488 1.523.51 2.758 2.229 2.758 1.72 0 3.509-1.235 3.996-2.758l.007-.02c.487-1.523-.51-2.758-2.23-2.758S.79 1.687.303 3.21z" id="bu"/><path d="M.307 2.788l-.007.02c-.487 1.523.511 2.758 2.23 2.758 1.72 0 3.509-1.235 3.996-2.758l.007-.02c.488-1.523-.51-2.759-2.23-2.759S.795 1.265.307 2.788z" id="bw"/><path d="M.519 2.766l-.006.02c-.488 1.524.51 2.758 2.23 2.758 1.719 0 3.508-1.234 3.995-2.758l.007-.02c.488-1.523-.51-2.758-2.23-2.758C2.796.008 1.007 1.243.52 2.766z" id="by"/><path d="M.357 3.194l-.007.02c-.487 1.523.51 2.758 2.23 2.758 1.719 0 3.508-1.235 3.996-2.758l.006-.02C7.07 1.671 6.072.436 4.352.436 2.633.436.844 1.67.357 3.194z" id="bA"/><path d="M.569 3.173l-.007.02c-.487 1.523.512 2.758 2.23 2.758 1.72 0 3.508-1.235 3.996-2.758l.007-.02c.487-1.524-.51-2.759-2.23-2.759S1.056 1.65.569 3.173z" id="bC"/><path d="M.265 2.825l-.006.02c-.488 1.524.51 2.76 2.23 2.76 1.718 0 3.508-1.236 3.995-2.76l.007-.02C6.978 1.302 5.98.067 4.261.067 2.54.067.752 1.302.265 2.825z" id="bE"/><path d="M.364 3.157l-.006.02C-.13 4.7.868 5.934 2.588 5.934S6.096 4.7 6.584 3.176l.006-.02C7.077 1.634 6.08.399 4.36.399S.852 1.633.364 3.157z" id="bG"/><path d="M.314 3.232l-.006.02C-.179 4.774.82 6.01 2.538 6.01c1.72 0 3.508-1.235 3.996-2.759l.007-.02C7.028 1.71 6.03.474 4.31.474 2.59.473.801 1.71.313 3.232z" id="bI"/><path d="M.527 3.21l-.007.02c-.487 1.523.511 2.758 2.23 2.758 1.72 0 3.509-1.235 3.997-2.758l.005-.02C7.241 1.687 6.242.452 4.523.452 2.803.452 1.015 1.687.527 3.21z" id="bK"/><path d="M.531 2.788l-.007.02c-.487 1.523.511 2.758 2.23 2.758 1.72 0 3.509-1.235 3.996-2.758l.007-.02C7.244 1.265 6.246.029 4.527.029 2.808.03 1.019 1.265.53 2.788z" id="bM"/><path d="M.26 2.766l-.005.02c-.488 1.524.51 2.758 2.23 2.758 1.719 0 3.508-1.234 3.995-2.758l.007-.02c.487-1.523-.51-2.758-2.23-2.758S.749 1.243.26 2.766z" id="bO"/><path d="M.58 3.194l-.006.02c-.488 1.523.51 2.758 2.23 2.758S6.312 4.737 6.8 3.214l.006-.02c.488-1.523-.51-2.758-2.23-2.758C2.858.436 1.069 1.67.582 3.194z" id="bQ"/><path d="M.31 3.173l-.006.02c-.488 1.523.51 2.758 2.23 2.758S6.042 4.716 6.53 3.193l.006-.02c.488-1.524-.51-2.759-2.23-2.759C2.588.414.799 1.65.312 3.173z" id="bS"/><path d="M.214 2.825l-.006.02c-.488 1.524.51 2.76 2.23 2.76 1.719 0 3.508-1.236 3.996-2.76l.006-.02C6.927 1.302 5.93.067 4.21.067S.702 1.302.214 2.825z" id="bU"/><path d="M.314 3.157l-.007.02C-.18 4.7.818 5.934 2.537 5.934c1.719 0 3.508-1.235 3.996-2.759l.007-.02C7.027 1.634 6.028.399 4.31.399 2.59.398.8 1.633.313 3.157z" id="bW"/><path d="M.264 3.232l-.006.02c-.489 1.523.51 2.758 2.23 2.758 1.719 0 3.508-1.235 3.995-2.759l.007-.02C6.978 1.71 5.98.474 4.26.474S.75 1.71.264 3.232z" id="bY"/><path d="M.476 3.21l-.006.02C-.018 4.753.98 5.988 2.7 5.988c1.719 0 3.508-1.235 3.995-2.758l.007-.02C7.19 1.687 6.192.452 4.472.452 2.753.452.964 1.687.476 3.21z" id="ca"/><path d="M.48 2.788l-.006.02c-.488 1.523.51 2.758 2.23 2.758 1.719 0 3.508-1.235 3.996-2.758l.006-.02C7.194 1.265 6.195.029 4.476.029 2.756.03.968 1.265.48 2.788z" id="cc"/><path d="M.21 2.766l-.006.02c-.488 1.524.51 2.758 2.23 2.758S5.942 4.31 6.429 2.786l.007-.02c.488-1.523-.51-2.758-2.23-2.758S.698 1.243.21 2.766z" id="ce"/><path d="M.53 3.194l-.006.02c-.488 1.523.51 2.758 2.23 2.758 1.719 0 3.507-1.235 3.996-2.758l.006-.02C7.243 1.671 6.245.436 4.526.436 2.806.436 1.017 1.67.53 3.194z" id="cg"/><path d="M.26 3.173l-.007.02C-.234 4.716.764 5.95 2.483 5.95c1.72 0 3.508-1.235 3.996-2.758l.006-.02c.488-1.524-.51-2.759-2.23-2.759C2.537.414.749 1.65.26 3.173z" id="ci"/><path d="M.24 2.825l-.007.02c-.487 1.524.51 2.76 2.23 2.76s3.508-1.236 3.996-2.76l.006-.02c.488-1.523-.51-2.758-2.23-2.758C2.517.067.728 1.302.24 2.825z" id="ck"/><path d="M.34 3.157l-.008.02C-.155 4.7.843 5.934 2.562 5.934c1.72 0 3.508-1.235 3.997-2.759l.006-.02C7.052 1.634 6.054.399 4.335.399 2.615.398.827 1.633.339 3.157z" id="cm"/><path d="M.289 3.232l-.006.02c-.488 1.523.51 2.758 2.23 2.758 1.719 0 3.508-1.235 3.995-2.759l.007-.02C7.003 1.71 6.005.474 4.285.474S.777 1.71.29 3.232z" id="co"/><path d="M.501 3.21l-.006.02c-.488 1.523.51 2.758 2.23 2.758S6.233 4.753 6.721 3.23l.006-.02c.488-1.523-.51-2.758-2.23-2.758C2.779.452.99 1.687.502 3.21z" id="cq"/><path d="M.505 2.788l-.006.02c-.487 1.523.511 2.758 2.23 2.758 1.72 0 3.508-1.235 3.996-2.758l.006-.02C7.22 1.265 6.221.029 4.501.029 2.782.03.994 1.265.505 2.788z" id="cs"/><path d="M.235 2.766l-.006.02C-.259 4.31.74 5.544 2.46 5.544S5.967 4.31 6.455 2.786l.007-.02C6.949 1.243 5.95.008 4.232.008 2.511.008.722 1.243.234 2.766z" id="cu"/><path d="M.555 3.194l-.006.02c-.488 1.523.51 2.758 2.23 2.758s3.508-1.235 3.996-2.758l.006-.02C7.268 1.671 6.27.436 4.55.436 2.832.436 1.043 1.67.555 3.194z" id="cw"/><path d="M.286 3.173l-.007.02C-.21 4.716.789 5.95 2.509 5.95c1.718 0 3.508-1.235 3.996-2.758l.006-.02C6.999 1.649 6 .414 4.28.414 2.561.414.773 1.65.286 3.173z" id="cy"/><path d="M.19 2.825l-.008.02c-.487 1.524.511 2.76 2.23 2.76 1.72 0 3.508-1.236 3.997-2.76l.005-.02c.488-1.523-.51-2.758-2.23-2.758C2.467.067.677 1.302.19 2.825z" id="cA"/><path d="M.288 3.157l-.006.02c-.488 1.523.51 2.758 2.23 2.758 1.719 0 3.508-1.235 3.996-2.759l.006-.02c.488-1.523-.51-2.758-2.23-2.758C2.565.398.776 1.633.288 3.157z" id="cC"/><path d="M.577 3.232l-.006.02c-.488 1.523.51 2.758 2.23 2.758 1.719 0 3.508-1.235 3.995-2.759l.007-.02C7.291 1.71 6.293.474 4.573.474S1.065 1.71.577 3.232z" id="cE"/><path d="M.45 3.21l-.005.02c-.488 1.523.51 2.758 2.229 2.758 1.72 0 3.509-1.235 3.996-2.758l.007-.02c.487-1.523-.51-2.758-2.23-2.758S.939 1.687.45 3.21z" id="cG"/><path d="M.455 2.788l-.007.02c-.487 1.523.511 2.758 2.23 2.758 1.72 0 3.509-1.235 3.996-2.758l.007-.02C7.168 1.265 6.17.029 4.45.029 2.73.03.942 1.265.455 2.788z" id="cI"/><path d="M.185 2.766l-.007.02C-.309 4.31.69 5.544 2.408 5.544c1.72 0 3.509-1.234 3.996-2.758l.006-.02C6.898 1.243 5.9.008 4.18.008 2.462.008.673 1.243.186 2.766z" id="cK"/><path d="M.505 3.194l-.007.02c-.488 1.523.51 2.758 2.23 2.758s3.508-1.235 3.996-2.758l.006-.02C7.218 1.671 6.22.436 4.5.436 2.782.436.992 1.67.505 3.194z" id="cM"/><path d="M.234 3.173l-.006.02C-.26 4.716.738 5.95 2.458 5.95c1.719 0 3.508-1.235 3.996-2.758l.006-.02C6.948 1.649 5.95.414 4.23.414 2.511.414.722 1.65.234 3.173z" id="cO"/><path d="M.535 2.825l-.006.02c-.488 1.524.51 2.76 2.23 2.76s3.508-1.236 3.996-2.76l.006-.02C7.25 1.302 6.251.067 4.531.067 2.812.067 1.023 1.302.535 2.825z" id="cQ"/><path d="M.152 3.157l-.006.02C-.34 4.7.656 5.934 2.376 5.934c1.719 0 3.508-1.235 3.996-2.759l.006-.02c.488-1.523-.51-2.758-2.23-2.758S.64 1.633.152 3.157z" id="cS"/><path d="M.585 3.232l-.006.02C.09 4.774 1.089 6.01 2.808 6.01c1.72 0 3.509-1.235 3.997-2.759l.006-.02C7.298 1.71 6.3.474 4.58.474S1.073 1.71.585 3.232z" id="cU"/><path d="M.315 3.21l-.007.02c-.487 1.523.511 2.758 2.23 2.758 1.72 0 3.508-1.235 3.996-2.758l.007-.02C7.028 1.687 6.03.452 4.31.452 2.59.452.803 1.687.315 3.21z" id="cW"/><path d="M.319 2.788l-.006.02c-.488 1.523.51 2.758 2.23 2.758 1.719 0 3.508-1.235 3.996-2.758l.006-.02c.488-1.523-.51-2.759-2.23-2.759S.806 1.265.32 2.788z" id="cY"/><path d="M.532 2.766l-.007.02c-.488 1.524.51 2.758 2.23 2.758 1.719 0 3.508-1.234 3.996-2.758l.006-.02c.488-1.523-.51-2.758-2.23-2.758C2.808.008 1.02 1.243.532 2.766z" id="da"/><path d="M.368 3.194l-.006.02c-.487 1.523.511 2.758 2.23 2.758 1.72 0 3.508-1.235 3.996-2.758l.007-.02C7.082 1.671 6.083.436 4.365.436 2.644.436.856 1.67.367 3.194z" id="dc"/><path d="M.581 3.173l-.007.02c-.487 1.523.511 2.758 2.23 2.758 1.72 0 3.509-1.235 3.996-2.758l.007-.02c.488-1.524-.51-2.759-2.23-2.759S1.07 1.65.581 3.173z" id="de"/><path d="M.485 2.825l-.007.02c-.487 1.524.51 2.76 2.23 2.76s3.509-1.236 3.996-2.76l.006-.02C7.198 1.302 6.2.067 4.48.067 2.761.067.972 1.302.485 2.825z" id="dg"/><path d="M.584 3.157l-.006.02c-.488 1.523.51 2.758 2.23 2.758 1.719 0 3.508-1.235 3.996-2.759l.006-.02C7.297 1.634 6.299.399 4.58.399 2.861.398 1.072 1.633.584 3.157z" id="di"/><path d="M.487 3.232l-.007.02C-.008 4.774.99 6.01 2.71 6.01s3.508-1.235 3.996-2.759l.006-.02C7.2 1.71 6.202.474 4.482.474 2.763.473.974 1.71.487 3.232z" id="dk"/><path d="M.264 3.21l-.006.02c-.488 1.523.51 2.758 2.23 2.758 1.719 0 3.508-1.235 3.996-2.758l.006-.02C6.978 1.687 5.98.452 4.26.452S.752 1.687.264 3.21z" id="dm"/><path d="M.268 2.788l-.006.02c-.488 1.523.51 2.758 2.23 2.758S6 4.331 6.488 2.808l.006-.02c.488-1.523-.51-2.759-2.23-2.759C2.546.03.757 1.265.269 2.788z" id="do"/><path d="M.48 2.766l-.005.02c-.489 1.524.51 2.758 2.229 2.758 1.72 0 3.508-1.234 3.996-2.758l.006-.02c.488-1.523-.51-2.758-2.23-2.758C2.757.008.968 1.243.48 2.766z" id="dq"/><path d="M.318 3.194l-.006.02c-.488 1.523.51 2.758 2.23 2.758 1.719 0 3.508-1.235 3.995-2.758l.007-.02c.487-1.523-.51-2.758-2.23-2.758S.806 1.67.318 3.194z" id="ds"/><path d="M.53 3.173l-.006.02c-.488 1.523.51 2.758 2.23 2.758 1.719 0 3.508-1.235 3.996-2.758l.006-.02C7.243 1.649 6.245.414 4.526.414 2.806.414 1.018 1.65.53 3.173z" id="du"/><path d="M.51 2.825l-.006.02c-.488 1.524.51 2.76 2.23 2.76 1.719 0 3.508-1.236 3.995-2.76l.007-.02C7.224 1.302 6.225.067 4.506.067 2.786.067.998 1.302.51 2.825z" id="dw"/><path d="M.61 3.157l-.007.02c-.488 1.523.51 2.758 2.23 2.758S6.341 4.7 6.83 3.176l.006-.02c.488-1.523-.51-2.758-2.23-2.758C2.887.398 1.098 1.633.61 3.157z" id="dy"/><path d="M.56 3.232l-.007.02c-.488 1.523.511 2.758 2.23 2.758 1.72 0 3.508-1.235 3.996-2.759l.006-.02C7.273 1.71 6.275.474 4.555.474 2.836.473 1.047 1.71.56 3.232z" id="dA"/><path d="M.29 3.21l-.007.02c-.488 1.523.51 2.758 2.23 2.758S6.02 4.753 6.509 3.23l.006-.02c.488-1.523-.51-2.758-2.23-2.758C2.566.452.777 1.687.29 3.21z" id="dC"/><path d="M.294 2.788l-.007.02c-.488 1.523.51 2.758 2.23 2.758s3.509-1.235 3.996-2.758l.006-.02C7.008 1.265 6.01.029 4.29.029 2.57.03.782 1.265.295 2.788z" id="dE"/><path d="M.505 2.766l-.005.02c-.488 1.524.51 2.758 2.23 2.758 1.719 0 3.508-1.234 3.995-2.758l.007-.02c.487-1.523-.51-2.758-2.23-2.758C2.783.008.994 1.243.505 2.766z" id="dG"/><path d="M.343 3.194l-.006.02c-.487 1.523.51 2.758 2.23 2.758s3.508-1.235 3.996-2.758l.007-.02C7.057 1.671 6.058.436 4.339.436 2.619.436.83 1.67.343 3.194z" id="dI"/><path d="M.556 3.173l-.007.02C.062 4.716 1.06 5.95 2.78 5.95s3.508-1.235 3.996-2.758l.006-.02C7.27 1.649 6.271.414 4.551.414 2.833.414 1.045 1.65.557 3.173z" id="dK"/><path d="M.46 2.825l-.007.02c-.488 1.524.51 2.76 2.23 2.76s3.508-1.236 3.996-2.76l.006-.02c.488-1.523-.51-2.758-2.23-2.758S.947 1.302.46 2.825z" id="dM"/><path d="M.559 3.157l-.006.02c-.488 1.523.51 2.758 2.229 2.758 1.72 0 3.508-1.235 3.996-2.759l.007-.02C7.272 1.634 6.274.399 4.555.399c-1.72 0-3.508 1.235-3.996 2.759z" id="dO"/><path d="M.509 3.232l-.006.02c-.489 1.523.51 2.758 2.23 2.758 1.718 0 3.508-1.235 3.995-2.759l.007-.02C7.223 1.71 6.225.474 4.505.474S.996 1.71.509 3.232z" id="dQ"/><path d="M.24 3.21l-.008.02c-.488 1.523.511 2.758 2.23 2.758 1.72 0 3.509-1.235 3.996-2.758l.006-.02c.489-1.523-.51-2.758-2.23-2.758C2.517.452.727 1.687.24 3.21z" id="dS"/><path d="M.243 2.788l-.006.02c-.488 1.523.51 2.758 2.23 2.758 1.719 0 3.508-1.235 3.996-2.758l.006-.02C6.956 1.265 5.958.029 4.239.029 2.52.03.731 1.265.243 2.788z" id="dU"/><path d="M.455 2.766l-.006.02c-.488 1.524.51 2.758 2.23 2.758 1.719 0 3.508-1.234 3.996-2.758l.006-.02c.488-1.523-.51-2.758-2.23-2.758S.943 1.243.455 2.766z" id="dW"/><path d="M.293 3.194l-.007.02c-.488 1.523.511 2.758 2.23 2.758 1.72 0 3.508-1.235 3.996-2.758l.006-.02c.488-1.523-.51-2.758-2.23-2.758C2.57.436.78 1.67.293 3.194z" id="dY"/><path d="M.505 3.173l-.007.02C.011 4.716 1.01 5.95 2.728 5.95c1.72 0 3.508-1.235 3.996-2.758l.007-.02C7.218 1.649 6.22.414 4.5.414 2.78.414.992 1.65.504 3.173z" id="ea"/></defs><g fill="none" fill-rule="evenodd"><path d="M10 32h290c5.523 0 10 4.477 10 10v231.277c0 5.523-4.477 10-10 10H10c-5.523 0-10-4.477-10-10V42c0-5.523 4.477-10 10-10z" fill="#9B9B9B"/><path fill="#7C7C7C" d="M65.431 89.625l150.325.447-15.8 60.354H48.85z"/><path d="M66.567 89.167l-7.53-4.124L44.2 130.857s11.951 1.867 11.672 1.257c-.28-.609 10.696-42.947 10.696-42.947" fill="#6B6B6B"/><path d="M232.613 29.264l-34.747 114.34c-1.828 6.306-7.047 10.572-12.933 10.572 0 0-122.016-.15-123.417-.584-5.56-1.72-12.81-8.847-15.608-18.023-1.169-3.834-.425-10.415 1.058-15.263l32.873-101.29c1.77-6.412 7.035-10.781 12.993-10.781l126.626.59c9.252 0 16.028 10.528 13.155 20.44" fill="#BFBFBF"/><path d="M211.407.926S232.24-.638 235.34 14.024c1.134 5.363-5.752 25.923-5.752 25.923L214.53 30.89 211.407.926z" fill="#3D3D3D"/><path d="M217.188 26.389l-31.566 102.635c-1.832 5.957-7.063 9.987-12.963 9.987H55.892c-12.363 0-10.85-9.58-8.009-18.932L79.062 17.442C80.879 11.46 84.148 8.37 92.04 8.37h112.186c10.96 0 15.842 8.656 12.962 18.019" fill="#DDD"/><path d="M171.447 11.31L210.475 1.2c1.126-.406 7.463-.647 9.564 1.237 2.301 2.063 3.476 6.744 2.375 9.673l-6.342 19.717-44.625-20.517zm-36.735 8.07s-16.872-8.468-31.967-16.032c-4.77-2.39-8.278-3.95-13.983-.957-5.705 2.993-9.642 16.79-9.642 16.79l55.592.2z" fill="#232323"/><path d="M213.306 25.299l-30.571 98.148c-1.775 5.697-6.84 9.55-12.555 9.55H57.094c-11.973 0-10.508-9.16-7.756-18.105l30.196-98.148c1.76-5.721 4.925-8.676 12.57-8.676h108.648c10.615 0 15.343 8.277 12.554 17.23" fill="#FFF"/><path d="M204.815 29.784L190.65 74.466c-1.783 5.276-6.874 8.846-12.615 8.846H79.263c-8.946 0-15.33-7.006-12.674-15.264l14.877-46.056c1.725-5.365 6.86-9.02 12.673-9.02h98.995c9.026 0 14.484 8.519 11.681 16.812" fill="#6B6B6B"/><path d="M137.118 91.165l-3.497 10.15c-.413 1.197-1.592 2.008-2.922 2.008h-23.181c-2.072 0-3.55-1.903-2.935-3.779l3.327-10.149c.4-1.218 1.59-2.049 2.936-2.049h23.35c2.09 0 3.571 1.935 2.922 3.82m-13.9 30.468h-19.437c-3.094 0-4.48-2.547-3.816-5.1.664-2.552 3.467-4.64 6.23-4.64h19.437c2.762 0 4.479 2.088 3.815 4.64-.663 2.553-2.858 5.1-6.229 5.1m36.624-31.31c6.556.527 11.435 6.763 10.897 13.931-.537 7.167-6.288 12.551-12.844 12.025-6.555-.526-11.434-6.763-10.897-13.93.538-7.168 6.288-12.552 12.844-12.026m-85.688 23.382c-5.8-2.345-8.64-9.406-6.34-15.77 2.3-6.367 8.866-9.626 14.667-7.28 5.8 2.344 8.64 9.405 6.34 15.77-2.3 6.366-8.866 9.625-14.667 7.28" fill="#DBDBDB"/><path d="M222.147 62.406c-1.011 3.98-4.643 6.443-8.112 5.5-3.47-.942-5.463-4.933-4.453-8.914 1.011-3.98 4.643-6.443 8.113-5.5 3.47.942 5.463 4.934 4.452 8.914" fill="#ADADAD"/><path d="M223.714 44.737c0 1.66-1.173 3.005-2.62 3.005-1.446 0-2.619-1.345-2.619-3.005s1.173-3.005 2.62-3.005c1.446 0 2.619 1.346 2.619 3.005" fill="#8E8E8E"/><path fill="#B2B2B2" d="M157.712 186.791l3.544 29.228-23.476-.093-.886-42.976z"/><path d="M141.666 200.694c0-19.858-13.462-36.105-29.916-36.105h25.79c16.454 0 29.917 16.247 29.917 36.105 0 19.858-13.463 36.105-29.917 36.105h-25.79c16.454 0 29.916-16.247 29.916-36.105" fill="#333"/><path d="M131.432 236.799H41.373C23.018 236.799 8 221.809 8 203.488V197.9c0-18.321 15.018-33.311 33.373-33.311h90.059c18.355 0 33.373 14.99 33.373 33.311v5.588c0 18.321-15.018 33.31-33.373 33.31" fill="#3D3D3D"/><g transform="translate(8 164.076)"><mask id="b" fill="#fff"><use xlink:href="#a"/></mask><path d="M25.79 36.619C25.79 16.76 39.253.514 56.15.169H30.36C13.463.513 0 16.76 0 36.618c0 19.857 13.463 36.104 29.917 36.104h25.79c-16.454 0-29.917-16.247-29.917-36.104" fill="#333" mask="url(#b)"/></g><path d="M129.482 223.99c-3.802-5.496-5.967-13.703-5.967-22.876 0-9.173 2.165-17.38 5.967-22.876 1.63-2.358.652-6.905-1.484-6.905H71.553c-2.136 0-3.115 4.547-1.484 6.905 3.802 5.495 5.966 13.703 5.966 22.876 0 9.173-2.164 17.38-5.966 22.877-1.63 2.357-.652 6.904 1.484 6.904h56.445c2.136 0 3.114-4.547 1.484-6.904" fill="#545454"/><path d="M72.888 200.429c0 16.552-7.859 29.97-17.553 29.97-9.695 0-17.554-13.418-17.554-29.97 0-16.553 7.859-29.97 17.554-29.97 9.694 0 17.553 13.417 17.553 29.97m88.811.13c0 16.552-7.86 29.97-17.554 29.97-9.694 0-17.553-13.418-17.553-29.97s7.859-29.97 17.553-29.97c9.695 0 17.554 13.418 17.554 29.97" fill="#545454"/><path fill="#333" d="M51.193 167.922h94.962l-4.832-3.22H55.394zm95.847 65.508H50.75l4.22 2.813c.399.266.864.408 1.338.408h84.064c.74 0 1.46-.246 2.054-.702l4.615-2.519z"/><path d="M142.147 191.478l12.74-1.347.223 24.186c.027 2.912-3.065 5.323-7.012 5.46-6.147.215-14.083.364-14.083-.296 0-1.077 5.913-28.003 5.913-28.003h2.219z" fill="#B2B2B2"/><path d="M282.077 202.527c0-19.858-13.463-36.105-29.917-36.105h25.79c16.455 0 29.917 16.247 29.917 36.105 0 19.858-13.462 36.105-29.916 36.105h-25.79c16.453 0 29.916-16.247 29.916-36.105" fill="#333"/><path d="M271.541 238.012h-90.348c-18.03 0-32.783-15.13-32.783-33.62v-4.35c0-18.49 14.752-33.62 32.783-33.62h90.348c18.03 0 32.783 12.376 32.783 35.795 0 23.37-14.752 35.795-32.783 35.795" fill="#3D3D3D"/><path d="M174.2 202.446c0-19.814 13.463-36.025 30.36-36.37h-25.79c-16.897.345-30.36 16.556-30.36 36.37 0 19.813 13.463 36.024 29.917 36.024h25.79c-16.454 0-29.916-16.21-29.916-36.024" fill="#333"/><path d="M268.977 224.026c-3.716-5.103-5.832-12.723-5.832-21.24 0-8.516 2.116-16.137 5.832-21.24 1.595-2.188.638-6.41-1.45-6.41h-55.172c-2.089 0-3.045 4.222-1.45 6.41 3.716 5.103 5.831 12.724 5.831 21.24 0 8.517-2.115 16.137-5.832 21.24-1.594 2.189-.638 6.411 1.451 6.411h55.172c2.088 0 3.045-4.222 1.45-6.41" fill="#EAEAEA"/><path d="M268.084 224.026c-3.754-5.103-5.891-12.723-5.891-21.24 0-8.516 2.137-16.137 5.89-21.24 1.61-2.188.644-6.41-1.465-6.41H214.02c-2.11 0-3.075 4.222-1.465 6.41 3.753 5.103 5.89 12.724 5.89 21.24 0 8.517-2.137 16.137-5.89 21.24-1.61 2.189-.644 6.411 1.465 6.411h52.598c2.11 0 3.075-4.222 1.466-6.41" fill="#FFF"/><path d="M213.298 202.15c0 15.368-7.858 27.826-17.553 27.826s-17.553-12.458-17.553-27.826 7.858-27.826 17.553-27.826 17.553 12.458 17.553 27.826" fill="#EAEAEA"/><path d="M211.583 202.15c0 13.09-6.694 23.703-14.952 23.703S181.68 215.24 181.68 202.15s6.694-23.702 14.952-23.702 14.952 10.612 14.952 23.702" fill="#FFF"/><path d="M302.11 202.27c0 15.368-7.86 27.827-17.554 27.827-9.695 0-17.554-12.459-17.554-27.826 0-15.368 7.86-27.826 17.554-27.826 9.694 0 17.553 12.458 17.553 27.826" fill="#EAEAEA"/><path d="M300.222 202.27c0 12.941-6.617 23.432-14.78 23.432-8.164 0-14.782-10.49-14.782-23.431s6.618-23.431 14.781-23.431c8.164 0 14.781 10.49 14.781 23.43" fill="#FFF"/><path fill="#333" d="M280.405 167.451l-90.359.372v-1.89l89.916.63z"/><path d="M273.242 129.88H242.48c-6.57 0-5.488-23.204-4.807-32.342.182-2.438-.708-4.843-2.451-6.493-18.115-17.152-37.108-4.983-40.414-1.725l-15.151 43.351c-.885 2.393-4.714 6.357-7.865 6.357l-112.837-2.053c-4.73 0-12.035-1.677-10.707-5.269l11.216-44.645c1.05-4.423-2.198-3.86-4.496 1.27l-22.737 53.15-5.646 13.196c-1.907 4.603-4.334 9.375-8.485 11.954-6.162 3.827-8.042 9.353-9.412 20.048-.647 5.052 2.793 9.18 7.72 9.18h140.493c4.41 0 11.838 1.177 16.564-3.348 4.727-4.524 4.234-26.173 4.234-26.173.906-2.215 0 0 2.325-.002h102.873c6.523 0 13.517 7.564 16.99 11.9.618.77 1.825.2 1.666-.788-2.083-12.987-10.251-47.568-28.31-47.568" fill="#FFF"/><path d="M301.375 176.371c-.342.453-1.059.567-1.49.028-3.474-4.335-10.468-11.896-16.988-11.896H180.024c-2.325.002-2.633 1.427-3.539 3.642l-2.629 17.419c-.499 3.305-2.825 5.995-5.94 6.89-3.738 1.075-8.45 1.572-11.015 1.572H16.266c-4.003 0-7.07-2.12-7.523-5.57-.544 4.517 2.852 7.402 7.523 7.402h140.635c4.355.643 10.085.078 13.341-1.036 3.885-1.33 6.586-5.508 6.834-9.734.421-7.193 1.347-18.751 2.948-18.753h102.873c6.52 0 13.514 7.561 16.988 11.897.619.773 1.827.206 1.668-.785a132.26 132.26 0 0 0-.178-1.076" fill="#BFBFBF"/><path d="M119.13 212.26H44.367c-7.787 0-14.158-6.359-14.158-14.131v-.51c0-7.772 6.37-14.131 14.158-14.131h74.763c7.788 0 14.158 6.359 14.158 14.132v.509c0 7.772-6.37 14.132-14.158 14.132" fill="#B2B2B2"/><path d="M143.714 185.829c.79-2.078-.024-5.199-.898-6.083-3.113-3.15-4.03-2.953-10.264-2.953h-93.2c-11.885 0-21.608 9.709-21.608 21.575 0 11.867 9.723 21.576 21.607 21.576h93.2c3.504 0 8.033.1 10.833-.006 1.1-.042 1.793-1.27 1.263-2.268-4.506-8.484-4.487-22.506-.933-31.841" fill="#FFF"/><path d="M198.722 101.843l-10.528 32.808c-1.996 6.22 3.33 27.302 8.266 27.302h79.902c5.481 0 9.925-4.234 9.925-9.457v-4.223c0-2.664-1.18-5.205-3.25-6.997l-3.285-2.846c-1.827-1.583-4.207-2.46-6.676-2.46h-28.063c-4.501 0-8.53-2.863-9.594-7.03a6.137 6.137 0 0 1-.212-1.495c0-2.41 1.131-17.427 1.131-18.945 0-7.86-12.949-14.498-26.143-13.16-5.097.516-9.978 1.844-11.473 6.503" fill="#F4F4F4"/><path d="M227.707 206.962c1.694 0 3.067-1.727 3.067-3.858 0-2.13-1.373-3.859-3.067-3.859-1.694 0-3.067 1.728-3.067 3.859 0 2.131 1.373 3.858 3.067 3.858m24.805 0c1.694 0 3.067-1.727 3.067-3.858 0-2.13-1.373-3.859-3.067-3.859-1.694 0-3.067 1.728-3.067 3.859 0 2.131 1.373 3.858 3.067 3.858" fill="#545454"/><path fill="#333" d="M279.962 238.47h-89.915v-1.374l89.915.458z"/><path d="M194.603 191.76c0 1.785 1.399 3.232 3.125 3.232 1.725 0 3.125-1.447 3.125-3.232 0-1.785-1.4-3.232-3.125-3.232-1.726 0-3.125 1.447-3.125 3.232m0 21.027c0 1.785 1.399 3.232 3.125 3.232 1.725 0 3.125-1.447 3.125-3.232 0-1.785-1.4-3.232-3.125-3.232-1.726 0-3.125 1.447-3.125 3.232m-5.503-7.281c1.725 0 3.124-1.448 3.124-3.233 0-1.785-1.399-3.232-3.125-3.232-1.725 0-3.124 1.447-3.124 3.232 0 1.785 1.399 3.233 3.124 3.233m16.503 0c1.726 0 3.125-1.448 3.125-3.233 0-1.785-1.399-3.232-3.125-3.232-1.725 0-3.125 1.447-3.125 3.232 0 1.785 1.4 3.233 3.125 3.233m-9.761-2.041h4.136c.645 0 1.172-.526 1.172-1.17v-.043c0-.644-.527-1.17-1.172-1.17h-4.136c-.645 0-1.173.526-1.173 1.17v.042c0 .645.528 1.171 1.173 1.171" fill="#545454"/><path d="M199.061 204.475v-4.403c0-.633-.518-1.15-1.152-1.15-.634 0-1.152.517-1.152 1.15v4.403c0 .633.518 1.15 1.152 1.15.634 0 1.152-.517 1.152-1.15m84.355-12.715c0 1.785 1.399 3.232 3.125 3.232 1.725 0 3.124-1.447 3.124-3.232 0-1.785-1.399-3.232-3.124-3.232-1.726 0-3.125 1.447-3.125 3.232m0 21.027c0 1.785 1.399 3.232 3.125 3.232 1.725 0 3.124-1.447 3.124-3.232 0-1.785-1.399-3.232-3.124-3.232-1.726 0-3.125 1.447-3.125 3.232m-5.504-7.281c1.726 0 3.125-1.448 3.125-3.233 0-1.785-1.4-3.232-3.125-3.232-1.726 0-3.125 1.447-3.125 3.232 0 1.785 1.4 3.233 3.125 3.233m16.503 0c1.725 0 3.125-1.448 3.125-3.233 0-1.785-1.4-3.232-3.125-3.232-1.726 0-3.125 1.447-3.125 3.232 0 1.785 1.399 3.233 3.125 3.233m-9.761-2.041h4.135c.645 0 1.173-.526 1.173-1.17v-.043c0-.644-.528-1.17-1.173-1.17h-4.135c-.645 0-1.173.526-1.173 1.17v.042c0 .645.528 1.171 1.173 1.171" fill="#545454"/><path d="M287.874 204.475v-4.403c0-.633-.519-1.15-1.153-1.15-.633 0-1.152.517-1.152 1.15v4.403c0 .633.519 1.15 1.152 1.15.634 0 1.153-.517 1.153-1.15" fill="#545454"/><path d="M195.461 84.585c-1.454 1.5-8.41 27.06-12.441 37.919-3.191 8.598-10.396 9.164-11.287 9.492-3.016 1.107-97.379.584-114.354 0-11.143-.384-10.333-5.966-10.263-6.518.565-4.409 13.009-40.331 13.009-40.331s-.66-2.823-2.43.035l-17.949 45.112c-2.904 8.361 4.076 14.478 8.612 14.318 0 0 119.888 1.985 124.76 1.985 8.495 0 10.85-7.333 12.748-12.796 1.016-2.923 7.51-25.867 12.35-39.22 1.99-5.49 5.35-6.35 7.532-6.937 6.138-1.652 19.128-1.303 29.376 5.265 3.42 2.192.795-3.986-6.73-7.674-10.118-4.959-29.969-3.708-32.933-.65" fill="#F4F4F4"/><path d="M134.344 191.8c.968-1.971 1.334-3.254 0-5.04-1.055-1.41-3.006-1.833-5.325-1.833H43.616c-10.564 0-13.407 6.603-13.407 12.372v11.337c0 5.77 6.897 10.446 13.407 10.446h89.471c1.527 0 2.875-1.607 1.934-2.704-2.14-2.494-3.916-17.984-.677-24.577z" stroke="#E2E2E2" stroke-width="1.685"/><g transform="translate(50.444 169.852)"><mask id="d" fill="#fff"><use xlink:href="#c"/></mask><path d="M18.781.73C15.147 3.793-2.96 28.582 13.158 59.046a.633.633 0 0 1-.556.933H1.585c-1.172 0-1.69 1.473-.776 2.205L34.025 88.79c.623.498 1.547.29 1.894-.427l12.712-26.194a1.238 1.238 0 0 0-1.087-1.778l-16.172-.394a1.242 1.242 0 0 1-1.078-.68c-2.221-4.36-13.272-29.597 13.042-56.04.751-.755.248-2.044-.817-2.103L19.652.44a1.242 1.242 0 0 0-.87.29" fill="#FFDF5A" mask="url(#d)"/></g><g transform="translate(92.887 74.051)"><mask id="f" fill="#fff"><use xlink:href="#e"/></mask><path fill="#7C7C7C" mask="url(#f)" d="M-2.56 4.414h72.898l1.92-5.996h-72.9z"/></g><g transform="translate(83.723 19.652)"><mask id="h" fill="#fff"><use xlink:href="#g"/></mask><path fill="#707070" mask="url(#h)" d="M-2.775 7.19h9.807L9.82-1.52H.013z"/></g><g transform="translate(75.042 46.13)"><mask id="j" fill="#fff"><use xlink:href="#i"/></mask><path fill="#707070" mask="url(#j)" d="M-2.676 7.522h9.807l2.789-8.71H.112z"/></g><g transform="translate(79.383 32.65)"><mask id="l" fill="#fff"><use xlink:href="#k"/></mask><path fill="#707070" mask="url(#l)" d="M-2.726 7.597h9.808l2.788-8.71H.063z"/></g><g transform="translate(71.183 59.128)"><mask id="n" fill="#fff"><use xlink:href="#m"/></mask><path fill="#707070" mask="url(#n)" d="M-2.996 7.575h9.808L9.6-1.135H-.207z"/></g><g transform="translate(81.794 26.392)"><mask id="p" fill="#fff"><use xlink:href="#o"/></mask><path fill="#707070" mask="url(#p)" d="M-2.992 7.153h9.808l2.788-8.71H-.203z"/></g><g transform="translate(73.113 52.87)"><mask id="r" fill="#fff"><use xlink:href="#q"/></mask><path fill="#707070" mask="url(#r)" d="M-2.78 7.132h9.808L9.816-1.58H.01z"/></g><g transform="translate(77.453 39.39)"><mask id="t" fill="#fff"><use xlink:href="#s"/></mask><path fill="#707070" mask="url(#t)" d="M-2.942 7.56h9.807l2.789-8.711H-.153z"/></g><g transform="translate(68.772 65.867)"><mask id="v" fill="#fff"><use xlink:href="#u"/></mask><path fill="#707070" mask="url(#v)" d="M-2.73 7.538h9.808l2.788-8.71H.059z"/></g><g transform="translate(143.53 19.652)"><mask id="x" fill="#fff"><use xlink:href="#w"/></mask><path fill="#707070" mask="url(#x)" d="M-2.826 7.19h9.807L9.77-1.52H-.038z"/></g><g transform="translate(134.849 46.13)"><mask id="z" fill="#fff"><use xlink:href="#y"/></mask><path fill="#707070" mask="url(#z)" d="M-2.727 7.522h9.808l2.788-8.71H.062z"/></g><g transform="translate(139.19 32.65)"><mask id="B" fill="#fff"><use xlink:href="#A"/></mask><path fill="#707070" mask="url(#B)" d="M-2.776 7.597H7.03l2.788-8.71H.012z"/></g><g transform="translate(130.99 59.128)"><mask id="D" fill="#fff"><use xlink:href="#C"/></mask><path fill="#707070" mask="url(#D)" d="M-3.046 7.575H6.76l2.788-8.71H-.258z"/></g><g transform="translate(141.601 26.392)"><mask id="F" fill="#fff"><use xlink:href="#E"/></mask><path fill="#707070" mask="url(#F)" d="M-3.042 7.153h9.807l2.789-8.71H-.254z"/></g><g transform="translate(132.92 52.87)"><mask id="H" fill="#fff"><use xlink:href="#G"/></mask><path fill="#707070" mask="url(#H)" d="M-2.83 7.132h9.807L9.766-1.58H-.042z"/></g><g transform="translate(137.26 39.39)"><mask id="J" fill="#fff"><use xlink:href="#I"/></mask><path fill="#707070" mask="url(#J)" d="M-2.993 7.56h9.808l2.788-8.711H-.205z"/></g><g transform="translate(128.579 65.867)"><mask id="L" fill="#fff"><use xlink:href="#K"/></mask><path fill="#707070" mask="url(#L)" d="M-2.78 7.538h9.807l2.789-8.71H.008z"/></g><g transform="translate(113.627 19.652)"><mask id="N" fill="#fff"><use xlink:href="#M"/></mask><path fill="#707070" mask="url(#N)" d="M-2.8 7.19h9.807l2.788-8.71H-.012z"/></g><g transform="translate(104.945 46.13)"><mask id="P" fill="#fff"><use xlink:href="#O"/></mask><path fill="#3ED5FF" mask="url(#P)" d="M-2.701 7.522h9.807l2.789-8.71H.087z"/></g><g transform="translate(109.286 32.65)"><mask id="R" fill="#fff"><use xlink:href="#Q"/></mask><path fill="#707070" mask="url(#R)" d="M-2.751 7.597h9.807l2.789-8.71H.038z"/></g><g transform="translate(101.087 59.128)"><mask id="T" fill="#fff"><use xlink:href="#S"/></mask><path fill="#707070" mask="url(#T)" d="M-3.021 7.575h9.807l2.789-8.71H-.233z"/></g><g transform="translate(111.698 26.392)"><mask id="V" fill="#fff"><use xlink:href="#U"/></mask><path fill="#707070" mask="url(#V)" d="M-3.017 7.153H6.79l2.789-8.71H-.23z"/></g><g transform="translate(103.016 52.87)"><mask id="X" fill="#fff"><use xlink:href="#W"/></mask><path fill="#3ED5FF" mask="url(#X)" d="M-2.805 7.132h9.808L9.79-1.58H-.016z"/></g><g transform="translate(107.357 39.39)"><mask id="Z" fill="#fff"><use xlink:href="#Y"/></mask><path fill="#3ED5FF" mask="url(#Z)" d="M-2.967 7.56H6.84l2.788-8.711H-.179z"/></g><g transform="translate(98.675 65.867)"><mask id="ab" fill="#fff"><use xlink:href="#aa"/></mask><path fill="#707070" mask="url(#ab)" d="M-2.755 7.538h9.807l2.789-8.71H.033z"/></g><g transform="translate(173.434 19.652)"><mask id="ad" fill="#fff"><use xlink:href="#ac"/></mask><path fill="#707070" mask="url(#ad)" d="M-2.851 7.19h9.807l2.788-8.71H-.063z"/></g><g transform="translate(164.752 46.13)"><mask id="af" fill="#fff"><use xlink:href="#ae"/></mask><path fill="#3ED5FF" mask="url(#af)" d="M-2.752 7.522h9.807l2.789-8.71H.036z"/></g><g transform="translate(169.093 32.65)"><mask id="ah" fill="#fff"><use xlink:href="#ag"/></mask><path fill="#707070" mask="url(#ah)" d="M-2.898 7.597H6.91l2.788-8.71H-.109z"/></g><g transform="translate(160.412 59.128)"><mask id="aj" fill="#fff"><use xlink:href="#ai"/></mask><path fill="#707070" mask="url(#aj)" d="M-2.59 7.575h9.808l2.789-8.71H.199z"/></g><g transform="translate(171.023 26.392)"><mask id="al" fill="#fff"><use xlink:href="#ak"/></mask><path fill="#707070" mask="url(#al)" d="M-2.586 7.153h9.808l2.789-8.71H.203z"/></g><g transform="translate(162.823 52.87)"><mask id="an" fill="#fff"><use xlink:href="#am"/></mask><path fill="#707070" mask="url(#an)" d="M-2.855 7.132h9.807L9.74-1.58H-.067z"/></g><g transform="translate(167.164 39.39)"><mask id="ap" fill="#fff"><use xlink:href="#ao"/></mask><path fill="#3ED5FF" mask="url(#ap)" d="M-3.018 7.56h9.807l2.789-8.711H-.23z"/></g><g transform="translate(158.482 65.867)"><mask id="ar" fill="#fff"><use xlink:href="#aq"/></mask><path fill="#707070" mask="url(#ar)" d="M-2.806 7.538h9.808l2.788-8.71H-.018z"/></g><g transform="translate(98.675 19.652)"><mask id="at" fill="#fff"><use xlink:href="#as"/></mask><path fill="#707070" mask="url(#at)" d="M-2.589 7.19H7.22l2.788-8.71H.199z"/></g><g transform="translate(90.476 46.13)"><mask id="av" fill="#fff"><use xlink:href="#au"/></mask><path fill="#3ED5FF" mask="url(#av)" d="M-2.972 7.522h9.808l2.788-8.71H-.184z"/></g><g transform="translate(94.817 32.65)"><mask id="ax" fill="#fff"><use xlink:href="#aw"/></mask><path fill="#707070" mask="url(#ax)" d="M-3.022 7.597h9.808l2.788-8.71H-.233z"/></g><g transform="translate(86.135 59.128)"><mask id="az" fill="#fff"><use xlink:href="#ay"/></mask><path fill="#707070" mask="url(#az)" d="M-2.81 7.575h9.808l2.789-8.71H-.021z"/></g><g transform="translate(96.746 26.392)"><mask id="aB" fill="#fff"><use xlink:href="#aA"/></mask><path fill="#707070" mask="url(#aB)" d="M-2.805 7.153h9.807l2.789-8.71H-.017z"/></g><g transform="translate(88.064 52.87)"><mask id="aD" fill="#fff"><use xlink:href="#aC"/></mask><path fill="#707070" mask="url(#aD)" d="M-2.593 7.132h9.808l2.788-8.711H.195z"/></g><g transform="translate(92.405 39.39)"><mask id="aF" fill="#fff"><use xlink:href="#aE"/></mask><path fill="#3ED5FF" mask="url(#aF)" d="M-2.756 7.56h9.808L9.84-1.152H.033z"/></g><g transform="translate(84.206 65.867)"><mask id="aH" fill="#fff"><use xlink:href="#aG"/></mask><path fill="#707070" mask="url(#aH)" d="M-3.026 7.538h9.808l2.788-8.71H-.237z"/></g><g transform="translate(158.482 19.652)"><mask id="aJ" fill="#fff"><use xlink:href="#aI"/></mask><path fill="#707070" mask="url(#aJ)" d="M-2.64 7.19h9.808l2.788-8.71H.15z"/></g><g transform="translate(150.283 46.13)"><mask id="aL" fill="#fff"><use xlink:href="#aK"/></mask><path fill="#3ED5FF" mask="url(#aL)" d="M-3.023 7.522h9.808l2.788-8.71H-.234z"/></g><g transform="translate(154.141 32.65)"><mask id="aN" fill="#fff"><use xlink:href="#aM"/></mask><path fill="#707070" mask="url(#aN)" d="M-2.63 7.597h9.807l2.789-8.71H.158z"/></g><g transform="translate(145.942 59.128)"><mask id="aP" fill="#fff"><use xlink:href="#aO"/></mask><path fill="#707070" mask="url(#aP)" d="M-2.86 7.575h9.807l2.789-8.71H-.072z"/></g><g transform="translate(156.553 26.392)"><mask id="aR" fill="#fff"><use xlink:href="#aQ"/></mask><path fill="#707070" mask="url(#aR)" d="M-2.856 7.153h9.807l2.789-8.71H-.067z"/></g><g transform="translate(147.871 52.87)"><mask id="aT" fill="#fff"><use xlink:href="#aS"/></mask><path fill="#3ED5FF" mask="url(#aT)" d="M-2.644 7.132h9.808L9.952-1.58H.145z"/></g><g transform="translate(152.212 39.39)"><mask id="aV" fill="#fff"><use xlink:href="#aU"/></mask><path fill="#707070" mask="url(#aV)" d="M-2.806 7.56H7l2.79-8.712H-.018z"/></g><g transform="translate(143.53 65.867)"><mask id="aX" fill="#fff"><use xlink:href="#aW"/></mask><path fill="#707070" mask="url(#aX)" d="M-2.594 7.538h9.807l2.79-8.71H.194z"/></g><g transform="translate(128.579 19.652)"><mask id="aZ" fill="#fff"><use xlink:href="#aY"/></mask><path fill="#707070" mask="url(#aZ)" d="M-2.614 7.19h9.807l2.789-8.71H.174z"/></g><g transform="translate(120.38 46.13)"><mask id="bb" fill="#fff"><use xlink:href="#ba"/></mask><path fill="#707070" mask="url(#bb)" d="M-2.997 7.522H6.81l2.79-8.71H-.21z"/></g><g transform="translate(124.72 32.65)"><mask id="bd" fill="#fff"><use xlink:href="#bc"/></mask><path fill="#707070" mask="url(#bd)" d="M-3.047 7.597H6.76l2.79-8.71H-.259z"/></g><g transform="translate(116.039 59.128)"><mask id="bf" fill="#fff"><use xlink:href="#be"/></mask><path fill="#707070" mask="url(#bf)" d="M-2.835 7.575h9.808l2.788-8.71H-.046z"/></g><g transform="translate(126.65 26.392)"><mask id="bh" fill="#fff"><use xlink:href="#bg"/></mask><path fill="#707070" mask="url(#bh)" d="M-2.83 7.153h9.807l2.788-8.71H-.042z"/></g><g transform="translate(117.968 52.87)"><mask id="bj" fill="#fff"><use xlink:href="#bi"/></mask><path fill="#707070" mask="url(#bj)" d="M-2.618 7.132h9.807L9.977-1.58H.17z"/></g><g transform="translate(122.309 39.39)"><mask id="bl" fill="#fff"><use xlink:href="#bk"/></mask><path fill="#707070" mask="url(#bl)" d="M-2.78 7.56h9.807l2.788-8.711H.007z"/></g><g transform="translate(114.11 65.867)"><mask id="bn" fill="#fff"><use xlink:href="#bm"/></mask><path fill="#707070" mask="url(#bn)" d="M-3.05 7.538h9.806l2.789-8.71H-.263z"/></g><g transform="translate(188.386 19.652)"><mask id="bp" fill="#fff"><use xlink:href="#bo"/></mask><path fill="#707070" mask="url(#bp)" d="M-2.665 7.19h9.807l2.789-8.71H.123z"/></g><g transform="translate(180.186 46.13)"><mask id="br" fill="#fff"><use xlink:href="#bq"/></mask><path fill="#3ED5FF" mask="url(#br)" d="M-3.048 7.522H6.76l2.788-8.71H-.26z"/></g><g transform="translate(184.045 32.65)"><mask id="bt" fill="#fff"><use xlink:href="#bs"/></mask><path fill="#707070" mask="url(#bt)" d="M-2.615 7.597h9.807l2.788-8.71H.173z"/></g><g transform="translate(175.846 59.128)"><mask id="bv" fill="#fff"><use xlink:href="#bu"/></mask><path fill="#707070" mask="url(#bv)" d="M-2.885 7.575h9.807l2.788-8.71H-.097z"/></g><g transform="translate(186.457 26.392)"><mask id="bx" fill="#fff"><use xlink:href="#bw"/></mask><path fill="#707070" mask="url(#bx)" d="M-2.881 7.153h9.807l2.789-8.71H-.093z"/></g><g transform="translate(177.775 52.87)"><mask id="bz" fill="#fff"><use xlink:href="#by"/></mask><path fill="#3ED5FF" mask="url(#bz)" d="M-2.669 7.132h9.807L9.927-1.58H.119z"/></g><g transform="translate(182.116 39.39)"><mask id="bB" fill="#fff"><use xlink:href="#bA"/></mask><path fill="#707070" mask="url(#bB)" d="M-2.832 7.56h9.808l2.788-8.711H-.043z"/></g><g transform="translate(173.434 65.867)"><mask id="bD" fill="#fff"><use xlink:href="#bC"/></mask><path fill="#707070" mask="url(#bD)" d="M-2.62 7.538h9.808l2.788-8.71H.17z"/></g><g transform="translate(91.44 19.652)"><mask id="bF" fill="#fff"><use xlink:href="#bE"/></mask><path fill="#707070" mask="url(#bF)" d="M-2.923 7.19h9.807l2.788-8.71H-.135z"/></g><g transform="translate(82.759 46.13)"><mask id="bH" fill="#fff"><use xlink:href="#bG"/></mask><path fill="#3ED5FF" mask="url(#bH)" d="M-2.824 7.522h9.807l2.789-8.71H-.036z"/></g><g transform="translate(87.1 32.65)"><mask id="bJ" fill="#fff"><use xlink:href="#bI"/></mask><path fill="#707070" mask="url(#bJ)" d="M-2.874 7.597h9.808l2.788-8.71H-.085z"/></g><g transform="translate(78.418 59.128)"><mask id="bL" fill="#fff"><use xlink:href="#bK"/></mask><path fill="#707070" mask="url(#bL)" d="M-2.661 7.575h9.807l2.789-8.71H.127z"/></g><g transform="translate(89.029 26.392)"><mask id="bN" fill="#fff"><use xlink:href="#bM"/></mask><path fill="#707070" mask="url(#bN)" d="M-2.657 7.153H7.15l2.789-8.71H.13z"/></g><g transform="translate(80.83 52.87)"><mask id="bP" fill="#fff"><use xlink:href="#bO"/></mask><path fill="#3ED5FF" mask="url(#bP)" d="M-2.927 7.132H6.88L9.668-1.58H-.139z"/></g><g transform="translate(84.688 39.39)"><mask id="bR" fill="#fff"><use xlink:href="#bQ"/></mask><path fill="#707070" mask="url(#bR)" d="M-2.608 7.56H7.2l2.788-8.711H.181z"/></g><g transform="translate(76.489 65.867)"><mask id="bT" fill="#fff"><use xlink:href="#bS"/></mask><path fill="#707070" mask="url(#bT)" d="M-2.878 7.538H6.93l2.788-8.71H-.089z"/></g><g transform="translate(151.248 19.652)"><mask id="bV" fill="#fff"><use xlink:href="#bU"/></mask><path fill="#707070" mask="url(#bV)" d="M-2.974 7.19h9.807l2.789-8.71H-.186z"/></g><g transform="translate(142.566 46.13)"><mask id="bX" fill="#fff"><use xlink:href="#bW"/></mask><path fill="#707070" mask="url(#bX)" d="M-2.875 7.522h9.808l2.788-8.71H-.086z"/></g><g transform="translate(146.907 32.65)"><mask id="bZ" fill="#fff"><use xlink:href="#bY"/></mask><path fill="#707070" mask="url(#bZ)" d="M-2.924 7.597h9.807l2.788-8.71H-.136z"/></g><g transform="translate(138.225 59.128)"><mask id="cb" fill="#fff"><use xlink:href="#ca"/></mask><path fill="#707070" mask="url(#cb)" d="M-2.712 7.575h9.807l2.789-8.71H.076z"/></g><g transform="translate(148.836 26.392)"><mask id="cd" fill="#fff"><use xlink:href="#cc"/></mask><path fill="#707070" mask="url(#cd)" d="M-2.708 7.153h9.807l2.79-8.71H.08z"/></g><g transform="translate(140.637 52.87)"><mask id="cf" fill="#fff"><use xlink:href="#ce"/></mask><path fill="#707070" mask="url(#cf)" d="M-2.978 7.132h9.807L9.618-1.58H-.189z"/></g><g transform="translate(144.495 39.39)"><mask id="ch" fill="#fff"><use xlink:href="#cg"/></mask><path fill="#707070" mask="url(#ch)" d="M-2.658 7.56h9.807l2.788-8.711H.13z"/></g><g transform="translate(136.296 65.867)"><mask id="cj" fill="#fff"><use xlink:href="#ci"/></mask><path fill="#707070" mask="url(#cj)" d="M-2.928 7.538h9.807l2.789-8.71H-.14z"/></g><g transform="translate(121.344 19.652)"><mask id="cl" fill="#fff"><use xlink:href="#ck"/></mask><path fill="#707070" mask="url(#cl)" d="M-2.949 7.19H6.86l2.788-8.71H-.16z"/></g><g transform="translate(112.662 46.13)"><mask id="cn" fill="#fff"><use xlink:href="#cm"/></mask><path fill="#3ED5FF" mask="url(#cn)" d="M-2.85 7.522h9.808l2.789-8.71H-.061z"/></g><g transform="translate(117.003 32.65)"><mask id="cp" fill="#fff"><use xlink:href="#co"/></mask><path fill="#707070" mask="url(#cp)" d="M-2.9 7.597h9.808l2.79-8.71H-.11z"/></g><g transform="translate(108.322 59.128)"><mask id="cr" fill="#fff"><use xlink:href="#cq"/></mask><path fill="#707070" mask="url(#cr)" d="M-2.687 7.575h9.808l2.788-8.71H.102z"/></g><g transform="translate(118.932 26.392)"><mask id="ct" fill="#fff"><use xlink:href="#cs"/></mask><path fill="#707070" mask="url(#ct)" d="M-2.683 7.153h9.808l2.788-8.71H.106z"/></g><g transform="translate(110.733 52.87)"><mask id="cv" fill="#fff"><use xlink:href="#cu"/></mask><path fill="#3ED5FF" mask="url(#cv)" d="M-2.953 7.132h9.808L9.643-1.58H-.164z"/></g><g transform="translate(114.592 39.39)"><mask id="cx" fill="#fff"><use xlink:href="#cw"/></mask><path fill="#707070" mask="url(#cx)" d="M-2.633 7.56h9.807l2.789-8.711H.155z"/></g><g transform="translate(106.392 65.867)"><mask id="cz" fill="#fff"><use xlink:href="#cy"/></mask><path fill="#707070" mask="url(#cz)" d="M-2.903 7.538h9.807l2.789-8.71H-.115z"/></g><g transform="translate(181.151 19.652)"><mask id="cB" fill="#fff"><use xlink:href="#cA"/></mask><path fill="#707070" mask="url(#cB)" d="M-3 7.19h9.808l2.788-8.71H-.21z"/></g><g transform="translate(172.47 46.13)"><mask id="cD" fill="#fff"><use xlink:href="#cC"/></mask><path fill="#3ED5FF" mask="url(#cD)" d="M-2.9 7.522h9.807l2.789-8.71H-.112z"/></g><g transform="translate(176.328 32.65)"><mask id="cF" fill="#fff"><use xlink:href="#cE"/></mask><path fill="#707070" mask="url(#cF)" d="M-2.611 7.597h9.807l2.789-8.71H.177z"/></g><g transform="translate(168.129 59.128)"><mask id="cH" fill="#fff"><use xlink:href="#cG"/></mask><path fill="#707070" mask="url(#cH)" d="M-2.737 7.575H7.07l2.789-8.71H.05z"/></g><g transform="translate(178.74 26.392)"><mask id="cJ" fill="#fff"><use xlink:href="#cI"/></mask><path fill="#707070" mask="url(#cJ)" d="M-2.733 7.153h9.807l2.789-8.71H.055z"/></g><g transform="translate(170.54 52.87)"><mask id="cL" fill="#fff"><use xlink:href="#cK"/></mask><path fill="#707070" mask="url(#cL)" d="M-3.003 7.132h9.807L9.592-1.58H-.215z"/></g><g transform="translate(174.399 39.39)"><mask id="cN" fill="#fff"><use xlink:href="#cM"/></mask><path fill="#3ED5FF" mask="url(#cN)" d="M-2.684 7.56h9.808l2.788-8.711H.105z"/></g><g transform="translate(166.2 65.867)"><mask id="cP" fill="#fff"><use xlink:href="#cO"/></mask><path fill="#707070" mask="url(#cP)" d="M-2.954 7.538h9.807l2.789-8.71H-.165z"/></g><g transform="translate(105.91 19.652)"><mask id="cR" fill="#fff"><use xlink:href="#cQ"/></mask><path fill="#707070" mask="url(#cR)" d="M-2.653 7.19h9.807l2.79-8.71H.135z"/></g><g transform="translate(97.71 46.13)"><mask id="cT" fill="#fff"><use xlink:href="#cS"/></mask><path fill="#3ED5FF" mask="url(#cT)" d="M-3.036 7.522h9.808l2.788-8.71H-.247z"/></g><g transform="translate(101.57 32.65)"><mask id="cV" fill="#fff"><use xlink:href="#cU"/></mask><path fill="#707070" mask="url(#cV)" d="M-2.603 7.597h9.807l2.789-8.71H.185z"/></g><g transform="translate(93.37 59.128)"><mask id="cX" fill="#fff"><use xlink:href="#cW"/></mask><path fill="#707070" mask="url(#cX)" d="M-2.873 7.575h9.807l2.789-8.71H-.085z"/></g><g transform="translate(103.98 26.392)"><mask id="cZ" fill="#fff"><use xlink:href="#cY"/></mask><path fill="#707070" mask="url(#cZ)" d="M-2.87 7.153h9.808l2.789-8.71H-.081z"/></g><g transform="translate(95.299 52.87)"><mask id="db" fill="#fff"><use xlink:href="#da"/></mask><path fill="#707070" mask="url(#db)" d="M-2.657 7.132H7.15L9.94-1.58H.131z"/></g><g transform="translate(99.64 39.39)"><mask id="dd" fill="#fff"><use xlink:href="#dc"/></mask><path fill="#3ED5FF" mask="url(#dd)" d="M-2.82 7.56h9.808l2.788-8.711H-.03z"/></g><g transform="translate(90.958 65.867)"><mask id="df" fill="#fff"><use xlink:href="#de"/></mask><path fill="#707070" mask="url(#df)" d="M-2.607 7.538H7.2l2.788-8.71H.181z"/></g><g transform="translate(165.717 19.652)"><mask id="dh" fill="#fff"><use xlink:href="#dg"/></mask><path fill="#707070" mask="url(#dh)" d="M-2.704 7.19h9.808l2.788-8.71H.085z"/></g><g transform="translate(157.035 46.13)"><mask id="dj" fill="#fff"><use xlink:href="#di"/></mask><path fill="#3ED5FF" mask="url(#dj)" d="M-2.604 7.522h9.807l2.788-8.71H.184z"/></g><g transform="translate(161.376 32.65)"><mask id="dl" fill="#fff"><use xlink:href="#dk"/></mask><path fill="#707070" mask="url(#dl)" d="M-2.702 7.597h9.808l2.788-8.71H.087z"/></g><g transform="translate(153.177 59.128)"><mask id="dn" fill="#fff"><use xlink:href="#dm"/></mask><path fill="#707070" mask="url(#dn)" d="M-2.924 7.575h9.807l2.79-8.71H-.136z"/></g><g transform="translate(163.788 26.392)"><mask id="dp" fill="#fff"><use xlink:href="#do"/></mask><path fill="#707070" mask="url(#dp)" d="M-2.92 7.153h9.807l2.79-8.71H-.132z"/></g><g transform="translate(155.106 52.87)"><mask id="dr" fill="#fff"><use xlink:href="#dq"/></mask><path fill="#3ED5FF" mask="url(#dr)" d="M-2.708 7.132H7.1L9.888-1.58H.081z"/></g><g transform="translate(159.447 39.39)"><mask id="dt" fill="#fff"><use xlink:href="#ds"/></mask><path fill="#3ED5FF" mask="url(#dt)" d="M-2.87 7.56h9.807l2.789-8.711H-.082z"/></g><g transform="translate(150.765 65.867)"><mask id="dv" fill="#fff"><use xlink:href="#du"/></mask><path fill="#707070" mask="url(#dv)" d="M-2.658 7.538H7.15l2.788-8.71H.13z"/></g><g transform="translate(135.814 19.652)"><mask id="dx" fill="#fff"><use xlink:href="#dw"/></mask><path fill="#707070" mask="url(#dx)" d="M-2.678 7.19h9.807l2.789-8.71H.11z"/></g><g transform="translate(127.132 46.13)"><mask id="dz" fill="#fff"><use xlink:href="#dy"/></mask><path fill="#707070" mask="url(#dz)" d="M-2.579 7.522h9.807l2.79-8.71H.21z"/></g><g transform="translate(131.473 32.65)"><mask id="dB" fill="#fff"><use xlink:href="#dA"/></mask><path fill="#707070" mask="url(#dB)" d="M-2.628 7.597h9.807l2.788-8.71H.16z"/></g><g transform="translate(123.273 59.128)"><mask id="dD" fill="#fff"><use xlink:href="#dC"/></mask><path fill="#707070" mask="url(#dD)" d="M-2.899 7.575H6.91l2.788-8.71H-.11z"/></g><g transform="translate(133.884 26.392)"><mask id="dF" fill="#fff"><use xlink:href="#dE"/></mask><path fill="#707070" mask="url(#dF)" d="M-2.895 7.153h9.808l2.789-8.71H-.106z"/></g><g transform="translate(125.203 52.87)"><mask id="dH" fill="#fff"><use xlink:href="#dG"/></mask><path fill="#707070" mask="url(#dH)" d="M-2.682 7.132h9.807L9.914-1.58H.106z"/></g><g transform="translate(129.543 39.39)"><mask id="dJ" fill="#fff"><use xlink:href="#dI"/></mask><path fill="#707070" mask="url(#dJ)" d="M-2.845 7.56h9.808L9.75-1.152H-.057z"/></g><g transform="translate(120.862 65.867)"><mask id="dL" fill="#fff"><use xlink:href="#dK"/></mask><path fill="#707070" mask="url(#dL)" d="M-2.633 7.538h9.808l2.788-8.71H.156z"/></g><g transform="translate(195.62 19.652)"><mask id="dN" fill="#fff"><use xlink:href="#dM"/></mask><path fill="#707070" mask="url(#dN)" d="M-2.729 7.19h9.807l2.79-8.71H.06z"/></g><g transform="translate(186.939 46.13)"><mask id="dP" fill="#fff"><use xlink:href="#dO"/></mask><path fill="#707070" mask="url(#dP)" d="M-2.63 7.522h9.808l2.788-8.71H.159z"/></g><g transform="translate(191.28 32.65)"><mask id="dR" fill="#fff"><use xlink:href="#dQ"/></mask><path fill="#707070" mask="url(#dR)" d="M-2.68 7.597h9.808l2.789-8.71H.109z"/></g><g transform="translate(183.08 59.128)"><mask id="dT" fill="#fff"><use xlink:href="#dS"/></mask><path fill="#707070" mask="url(#dT)" d="M-2.95 7.575h9.808l2.789-8.71H-.161z"/></g><g transform="translate(193.691 26.392)"><mask id="dV" fill="#fff"><use xlink:href="#dU"/></mask><path fill="#707070" mask="url(#dV)" d="M-2.945 7.153h9.807l2.788-8.71H-.157z"/></g><g transform="translate(185.01 52.87)"><mask id="dX" fill="#fff"><use xlink:href="#dW"/></mask><path fill="#707070" mask="url(#dX)" d="M-2.733 7.132h9.807L9.863-1.58H.055z"/></g><g transform="translate(189.35 39.39)"><mask id="dZ" fill="#fff"><use xlink:href="#dY"/></mask><path fill="#707070" mask="url(#dZ)" d="M-2.896 7.56h9.808L9.7-1.152H-.107z"/></g><g transform="translate(180.669 65.867)"><mask id="eb" fill="#fff"><use xlink:href="#ea"/></mask><path fill="#707070" mask="url(#eb)" d="M-2.683 7.538h9.807l2.788-8.71H.105z"/></g></g></svg>