<?xml version="1.0" encoding="UTF-8"?>
<svg width="202px" height="24px" viewBox="0 0 202 24" version="1.1" xmlns="http://www.w3.org/2000/svg" xmlns:xlink="http://www.w3.org/1999/xlink">
    <!-- Generator: Sketch 49 (51002) - http://www.bohemiancoding.com/sketch -->
    <title>LOGO中英文</title>
    <desc>Created with Sketch.</desc>
    <defs>
        <polygon id="path-1" points="0 23.54795 201.655 23.54795 201.655 -5e-05 0 -5e-05"></polygon>
    </defs>
    <g id="LOGO" stroke="none" stroke-width="1" fill="none" fill-rule="evenodd">
        <g id="loading页面" transform="translate(-224.000000, -448.000000)">
            <g id="Group-33-Copy-3" transform="translate(45.000000, 158.000000)">
                <g id="Group-32">
                    <g id="LOGO中英文" transform="translate(179.000000, 290.000000)">
                        <path d="M25.15015,13.4061 L25.15015,23.0381 L21.79015,23.0381 L21.79015,14.5106 C21.79015,11.9346 20.46265,10.4951 18.22315,10.4951 C16.06265,10.4951 14.25515,11.9186 14.25515,14.5416 L14.25515,23.0381 L10.89465,23.0381 L10.89465,14.5106 C10.89465,11.9346 9.56715,10.4951 7.32715,10.4951 C5.16715,10.4951 3.35965,11.9186 3.35965,14.5416 L3.35965,23.0381 L0.00015,23.0381 L0.00015,7.7106 L3.32715,7.7106 L3.32715,9.5831 C4.55965,7.7751 6.46365,7.3106 8.03165,7.3106 C10.36765,7.3106 12.27065,8.3506 13.32715,10.0466 C14.65515,7.8541 17.02265,7.3106 18.92665,7.3106 C22.57465,7.3106 25.15015,9.8231 25.15015,13.4061" id="Fill-1" fill="#717171"></path>
                        <path d="M32.67115,13.43835 L32.67115,19.64635 L38.09515,19.64635 C40.94265,19.64635 42.84665,19.10235 42.84665,16.51085 C42.84665,13.98235 40.94265,13.43835 38.09515,13.43835 L32.67115,13.43835 Z M32.67115,4.03135 L32.67115,10.06235 L37.63115,10.06235 C40.14265,10.06235 42.33415,9.67835 42.33415,7.00685 C42.33415,4.43135 40.11115,4.03135 37.59865,4.03135 L32.67115,4.03135 Z M37.74315,0.63935 C42.52665,0.63935 46.12615,2.28685 46.12615,6.73535 C46.12615,9.03885 44.63865,10.95885 42.67015,11.50285 C44.79865,12.12685 46.63865,14.06235 46.63865,16.63835 C46.63865,21.10135 43.35865,23.03785 38.25515,23.03785 L29.05565,23.03785 L29.05565,0.63935 L37.74315,0.63935 Z" id="Fill-3" fill="#717171"></path>
                        <mask id="mask-2" fill="white">
                            <use xlink:href="#path-1"></use>
                        </mask>
                        <g id="Clip-6"></g>
                        <polygon id="Fill-5" fill="#717171" mask="url(#mask-2)" points="49.4875 23.03795 52.847 23.03795 52.847 -5e-05 49.4875 -5e-05"></polygon>
                        <path d="M58.8313,15.3739 C58.8313,18.2704 60.8953,20.2859 63.6313,20.2859 C66.3663,20.2859 68.4463,18.2704 68.4463,15.3739 C68.4463,12.4784 66.3663,10.4629 63.6313,10.4629 C60.8953,10.4629 58.8313,12.4784 58.8313,15.3739 M71.8858,15.3739 C71.8858,19.9659 68.3663,23.4374 63.6313,23.4374 C58.8953,23.4374 55.3918,19.9659 55.3918,15.3739 C55.3918,10.7829 58.8953,7.3104 63.6313,7.3104 C68.3663,7.3104 71.8858,10.7829 71.8858,15.3739" id="Fill-7" fill="#717171" mask="url(#mask-2)"></path>
                        <path d="M87.1184,9.75865 L84.9744,12.04665 C83.9024,11.03915 82.7664,10.46265 81.2949,10.46265 C78.7189,10.46265 76.7669,12.47815 76.7669,15.37365 C76.7669,18.27015 78.7189,20.28615 81.2949,20.28615 C82.7664,20.28615 84.0784,19.59765 85.0539,18.68615 L87.1184,20.99015 C85.7264,22.60515 83.6779,23.43715 81.3909,23.43715 C76.5109,23.43715 73.3274,19.96565 73.3274,15.37365 C73.3274,10.78315 76.5109,7.31065 81.3909,7.31065 C83.6779,7.31065 85.7579,8.14265 87.1184,9.75865" id="Fill-8" fill="#717171" mask="url(#mask-2)"></path>
                        <polygon id="Fill-9" fill="#717171" mask="url(#mask-2)" points="92.6223 13.53405 94.3018 13.53405 99.3583 7.71105 103.5658 7.71105 97.1503 14.92655 103.6298 23.03805 99.3898 23.03805 94.2863 16.57405 92.6223 16.57405 92.6223 23.03805 89.2628 23.03805 89.2628 5e-05 92.6223 5e-05"></polygon>
                        <path d="M133.67555,18.42855 C134.45555,19.64805 135.27455,21.26755 135.57505,22.36805 L133.21505,23.02705 C132.95605,21.96755 132.21505,20.26855 131.47605,19.00855 L133.67555,18.42855 Z M129.13655,11.12955 L126.17705,11.12955 L126.17705,9.72955 L129.13655,9.72955 L129.13655,9.07005 L126.73655,9.07005 L126.73655,7.69005 L129.13655,7.69005 L129.13655,7.07005 L126.33605,7.07005 L126.33605,5.69005 L129.13655,5.69005 L129.13655,4.85055 L131.35555,4.85055 L131.35555,5.69005 L134.39455,5.69005 L134.39455,7.07005 L131.35555,7.07005 L131.35555,7.69005 L134.07555,7.69005 L134.07555,9.07005 L131.35555,9.07005 L131.35555,9.72955 L134.77455,9.72955 L134.77455,11.12955 L131.35555,11.12955 L131.35555,11.90905 L129.13655,11.90905 L129.13655,11.12955 Z M128.57655,21.28805 C129.43605,21.28805 129.59605,21.06805 129.69555,19.58755 C130.19555,19.92755 131.11605,20.20805 131.75505,20.32805 C131.47605,22.62755 130.83605,23.22755 128.77555,23.22755 L124.99705,23.22755 C122.25705,23.22755 121.55755,22.62755 121.55755,20.70805 L121.55755,18.56805 L123.91705,18.56805 L123.91705,20.66805 C123.91705,21.20805 124.11705,21.28805 125.23655,21.28805 L128.57655,21.28805 Z M133.27555,17.98805 L126.81655,17.98805 C127.51655,18.44805 128.25605,19.02805 128.63655,19.48805 L127.13655,20.82805 C126.69655,20.22855 125.65705,19.38855 124.79705,18.86805 L125.79605,17.98805 L118.81755,17.98805 L118.81755,16.48805 L130.93605,16.48805 L130.93605,15.74905 L119.61805,15.74905 L119.61805,14.36905 L130.93605,14.36905 L130.93605,13.66855 L118.93755,13.66855 L118.93755,12.18905 L133.27555,12.18905 L133.27555,17.98805 Z M120.59805,11.12955 L117.39755,11.12955 L117.39755,9.72955 L120.59805,9.72955 L120.59805,9.07005 L118.13805,9.07005 L118.13805,7.69005 L120.59805,7.69005 L120.59805,7.07005 L117.65805,7.07005 L117.65805,5.69005 L120.59805,5.69005 L120.59805,4.85055 L122.77655,4.85055 L122.77655,5.69005 L125.41605,5.69005 L125.41605,7.07005 L122.77655,7.07005 L122.77655,7.69005 L125.19705,7.69005 L125.19705,9.07005 L122.77655,9.07005 L122.77655,9.72955 L125.61705,9.72955 L125.61705,11.12955 L122.77655,11.12955 L122.77655,11.90905 L120.59805,11.90905 L120.59805,11.12955 Z M117.21855,21.92755 C117.93755,21.06805 118.57805,19.76855 118.91805,18.60805 L120.97755,19.48805 C120.55805,20.66805 120.01805,22.12755 119.29805,23.08755 L117.21855,21.92755 Z" id="Fill-10" fill="#717171" mask="url(#mask-2)"></path>
                        <path d="M154.375,17.34845 L155.1955,17.34845 L155.1955,15.20895 L154.375,15.20895 L154.375,17.34845 Z M152.1155,17.34845 L152.936,17.34845 L152.936,15.20895 L152.1155,15.20895 L152.1155,17.34845 Z M149.7365,17.34845 L150.6765,17.34845 L150.6765,15.20895 L149.7365,15.20895 L149.7365,17.34845 Z M148.377,10.22945 L154.4755,10.22945 L154.4755,8.80945 L148.377,8.80945 L148.377,10.22945 Z M156.9555,21.50745 C156.9555,22.24795 156.875,22.70795 156.4355,23.00745 C156.0355,23.30745 155.5155,23.34745 154.8555,23.34745 C154.795,22.82795 154.6155,22.10745 154.396,21.66795 L155.0355,21.66795 C155.1555,21.66795 155.1955,21.62795 155.1955,21.46745 L155.1955,19.14845 L154.376,19.14845 L154.376,22.88745 L152.936,22.88745 L152.936,19.14845 L152.116,19.14845 L152.116,22.92745 L150.6765,22.92745 L150.6765,19.14845 L149.7365,19.14845 L149.7365,23.32695 L147.937,23.32695 L147.937,17.18845 C147.577,19.36795 146.957,21.54795 145.917,23.24795 C145.5375,22.86695 144.5975,22.14745 144.1175,21.92745 C144.5175,21.28795 144.837,20.62795 145.0975,19.90795 C143.1175,20.82795 141.018,21.74795 139.298,22.50745 L138.758,20.36795 C140.2375,19.84845 142.498,18.94795 144.6575,18.04845 L145.1175,19.84845 C146.117,17.00845 146.217,13.62895 146.217,11.18945 L146.217,6.89045 L150.5765,6.89045 C150.3965,6.36995 150.1765,5.81045 149.9565,5.35045 L152.256,4.69045 C152.616,5.36995 152.976,6.23045 153.1955,6.89045 L156.675,6.89045 L156.675,12.14945 L148.377,12.14945 C148.3565,12.52895 148.337,12.90895 148.337,13.30945 L156.9555,13.30945 L156.9555,21.50745 Z M144.877,14.86895 C144.8575,15.46845 144.9375,16.32895 144.9975,16.78895 C140.7375,17.82795 139.979,18.08895 139.5385,18.36795 C139.4385,17.96845 139.0785,16.96845 138.8575,16.40895 C139.3175,16.30845 139.7375,15.84845 140.3175,15.08895 C140.578,14.76845 141.078,14.02895 141.678,13.04845 C140.138,13.24895 139.678,13.36895 139.378,13.52895 C139.258,13.06895 138.9385,12.04945 138.6785,11.46945 C139.0585,11.36895 139.3575,10.92945 139.758,10.26945 C140.158,9.62995 141.3175,7.12995 141.918,4.77045 L144.1375,5.55045 C143.4375,7.47045 142.4375,9.50945 141.3975,11.14945 L142.837,11.04945 C143.1775,10.32995 143.5375,9.56995 143.8575,8.84945 L145.697,9.92945 C144.797,11.80945 143.6175,13.72945 142.418,15.40895 L144.877,14.86895 Z" id="Fill-11" fill="#717171" mask="url(#mask-2)"></path>
                        <path d="M171.0765,9.80945 L176.076,9.80945 L176.076,7.40995 L171.0765,7.40995 L171.0765,9.80945 Z M168.858,11.80945 L178.396,11.80945 L178.396,5.40995 L168.858,5.40995 L168.858,11.80945 Z M179.4355,20.84745 L179.4355,23.00745 L167.877,23.00745 L167.877,20.84745 L172.6165,20.84745 L172.6165,19.02795 L169.137,19.02795 L169.137,16.92845 L172.6165,16.92845 L172.6165,15.14945 L168.657,15.14945 L168.657,13.02895 L179.0155,13.02895 L179.0155,15.14945 L174.996,15.14945 L174.996,16.92845 L178.5155,16.92845 L178.5155,19.02795 L174.996,19.02795 L174.996,20.84745 L179.4355,20.84745 Z M167.0775,18.20795 C166.8165,17.60845 166.377,16.70895 165.917,15.84845 L165.917,23.54795 L163.718,23.54795 L163.718,16.62895 C163.138,18.08895 162.4985,19.46745 161.798,20.42745 C161.5585,19.72845 161.0185,18.68845 160.6585,18.06845 C161.678,16.76845 162.698,14.62895 163.338,12.70895 L161.1785,12.70895 L161.1785,10.48895 L163.718,10.48895 L163.718,8.04945 C163.058,8.16995 162.4385,8.27045 161.8175,8.36995 C161.718,7.85045 161.418,7.05045 161.1585,6.52995 C163.078,6.19045 165.1975,5.59045 166.6175,4.91095 L167.9975,6.85045 C167.377,7.11045 166.6575,7.32995 165.917,7.52995 L165.917,10.48895 L167.9975,10.48895 L167.9975,12.70895 L165.917,12.70895 L165.917,13.04845 C166.5375,13.72945 168.097,15.72845 168.4575,16.22845 L167.0775,18.20795 Z" id="Fill-12" fill="#717171" mask="url(#mask-2)"></path>
                        <path d="M200.88695,7.98815 L193.47045,7.98815 L193.31395,12.95715 L195.78645,12.95715 C199.74695,12.95715 201.65445,15.21265 201.65445,17.90115 C201.65445,21.33365 199.08595,23.26565 195.90645,23.26565 C193.54245,23.26565 191.63395,22.37765 190.21795,20.64915 L191.45445,19.44915 C192.54595,20.75765 194.20245,21.50165 195.90645,21.50165 C198.37795,21.50165 199.73445,19.95315 199.73445,18.05765 C199.73445,16.22165 198.52245,14.70865 195.22245,14.70865 L191.56245,14.70865 L191.77745,6.23615 L200.88695,6.23615 L200.88695,7.98815 Z" id="Fill-13" fill="#717171" mask="url(#mask-2)"></path>
                    </g>
                </g>
            </g>
        </g>
    </g>
</svg>