<svg width="120" height="120" viewBox="0 0 120 120" xmlns="http://www.w3.org/2000/svg" xmlns:xlink="http://www.w3.org/1999/xlink"><defs><path id="a" d="M0 .576h119.324V61.63H0z"/><path id="c" d="M0 .576h119.324v57.545H0z"/><path id="e" d="M.867.576h113.75v57.545H.868z"/></defs><g fill="none" fill-rule="evenodd"><g transform="translate(0 29.939)"><mask id="b" fill="#fff"><use xlink:href="#a"/></mask><path d="M64.989.576c-10.479 0-20.261 1.673-28.56 4.56-.046.016-.092.03-.141.041-1.7.409-3.42.885-5.152 1.44C11.234 12.983-2.532 26.607.391 37.046c1.38 4.929 6.234 8.265 13.066 9.745 3.718.805 7.288 2.236 10.534 4.333C33.951 57.56 48.62 61.63 64.99 61.63c30.008 0 54.335-13.668 54.335-30.527 0-16.86-24.327-30.527-54.335-30.527" fill="#7E2227" mask="url(#b)"/></g><g transform="translate(0 29.939)"><mask id="d" fill="#fff"><use xlink:href="#c"/></mask><path d="M64.989.576c-10.479 0-20.261 1.577-28.56 4.298a1.638 1.638 0 0 1-.141.039c-1.7.385-3.42.834-5.152 1.357-19.902 6-33.668 18.84-30.745 28.68 1.38 4.645 6.234 7.79 13.066 9.184 3.718.76 7.288 2.109 10.534 4.085 9.96 6.065 24.629 9.902 40.998 9.902 30.008 0 54.335-12.882 54.335-28.772C119.324 13.458 94.997.576 64.99.576" fill="#9D4A24" mask="url(#d)"/></g><path d="M24.62 39.432c-1.472 6.067-3.459 10.79-4.439 10.55-.98-.242-.584-5.356.887-11.423 1.471-6.068 3.46-10.791 4.44-10.55.98.241.583 5.355-.889 11.423" fill="#9AC444"/><path d="M30.788 41.86c-4.183 4.61-8.176 7.793-8.922 7.108-.744-.686 2.04-4.98 6.223-9.592 4.18-4.611 8.175-7.793 8.92-7.108.746.686-2.04 4.98-6.221 9.591" fill="#9AC444"/><path d="M31.803 49.44c-6.114 1.03-11.207 1.052-11.373.049-.167-1.003 4.655-2.651 10.77-3.681 6.116-1.031 11.208-1.053 11.374-.05.167 1.003-4.656 2.651-10.77 3.681" fill="#9AC444"/><path d="M13.729 57.525l-.125-.105a.446.446 0 0 1-.059-.625l7.43-9.04a.44.44 0 0 1 .62-.058l.125.103a.449.449 0 0 1 .06.626l-7.431 9.04a.44.44 0 0 1-.62.059" fill="#9AC444"/><path d="M39.215 65.252l22.988-23.158" fill="#FFF"/><path d="M39.215 65.252l.907-1.076c.595-.667 1.413-1.653 2.451-2.777 1.042-1.122 2.23-2.459 3.55-3.842 1.312-1.393 2.742-2.847 4.17-4.302 1.446-1.44 2.887-2.882 4.27-4.202 1.372-1.332 2.7-2.528 3.814-3.577 1.114-1.047 2.094-1.869 2.758-2.468l1.068-.914-.906 1.077c-.595.667-1.412 1.655-2.452 2.777-1.041 1.124-2.227 2.462-3.55 3.842-1.311 1.393-2.742 2.846-4.171 4.301-1.445 1.44-2.888 2.88-4.27 4.202-1.374 1.33-2.7 2.527-3.814 3.576-1.115 1.047-2.094 1.87-2.757 2.47l-1.068.913" fill="#EF7C2F"/><path d="M50.012 65.252L73 42.094" fill="#FFF"/><path d="M50.012 65.252l.907-1.076c.595-.667 1.413-1.653 2.452-2.777 1.041-1.122 2.23-2.459 3.55-3.842 1.311-1.393 2.742-2.847 4.17-4.302 1.446-1.44 2.887-2.882 4.27-4.202 1.371-1.332 2.7-2.528 3.813-3.577 1.114-1.047 2.094-1.869 2.758-2.468L73 42.094l-.906 1.077c-.595.667-1.411 1.655-2.451 2.777-1.042 1.124-2.227 2.462-3.55 3.842-1.312 1.393-2.742 2.846-4.172 4.301a294.462 294.462 0 0 1-4.27 4.202c-1.373 1.33-2.7 2.527-3.813 3.576-1.115 1.047-2.095 1.87-2.758 2.47l-1.068.913" fill="#EF7C2F"/><path d="M60.81 65.252l22.988-23.158" fill="#FFF"/><path d="M60.81 65.252l.906-1.076c.596-.667 1.413-1.653 2.452-2.777 1.041-1.122 2.228-2.459 3.55-3.842 1.311-1.393 2.742-2.847 4.17-4.302 1.446-1.44 2.887-2.882 4.27-4.202 1.371-1.332 2.7-2.528 3.814-3.577 1.114-1.047 2.094-1.869 2.757-2.468l1.069-.914-.906 1.077c-.596.667-1.412 1.655-2.452 2.777-1.041 1.124-2.227 2.462-3.55 3.842-1.311 1.393-2.743 2.846-4.171 4.301-1.445 1.44-2.889 2.88-4.27 4.202-1.374 1.33-2.7 2.527-3.814 3.576-1.115 1.047-2.095 1.87-2.757 2.47l-1.069.913" fill="#EF7C2F"/><path d="M68.124 72.62l22.987-23.158" fill="#FFF"/><path d="M68.124 72.62l.907-1.075c.595-.668 1.412-1.654 2.451-2.777 1.041-1.123 2.23-2.46 3.55-3.843 1.311-1.392 2.742-2.846 4.17-4.302 1.446-1.439 2.887-2.881 4.27-4.201 1.371-1.332 2.7-2.528 3.814-3.577 1.114-1.048 2.095-1.87 2.757-2.469.68-.58 1.068-.914 1.068-.914l-.905 1.078c-.596.667-1.412 1.654-2.451 2.777-1.041 1.122-2.228 2.46-3.55 3.842-1.311 1.392-2.743 2.846-4.171 4.3-1.445 1.44-2.888 2.88-4.272 4.202-1.373 1.331-2.699 2.527-3.813 3.576-1.115 1.048-2.094 1.87-2.758 2.47l-1.067.914" fill="#EF7C2F"/><path d="M39.737 65.779L62.726 42.62" fill="#FFF"/><path d="M39.737 65.779l.907-1.076c.596-.668 1.412-1.655 2.451-2.777 1.042-1.123 2.23-2.46 3.55-3.843 1.312-1.392 2.743-2.846 4.171-4.303 1.445-1.438 2.887-2.88 4.27-4.201 1.371-1.331 2.7-2.527 3.814-3.576 1.114-1.048 2.094-1.87 2.756-2.469l1.07-.914-.907 1.078c-.596.667-1.411 1.654-2.451 2.777-1.041 1.122-2.227 2.46-3.55 3.842-1.311 1.393-2.743 2.846-4.171 4.301-1.445 1.439-2.888 2.88-4.27 4.201-1.374 1.33-2.7 2.527-3.815 3.576-1.114 1.048-2.094 1.87-2.756 2.47-.68.58-1.069.914-1.069.914" fill="#6C3A0E"/><path d="M50.535 65.779L73.523 42.62" fill="#FFF"/><path d="M50.535 65.779l.907-1.076c.595-.668 1.412-1.655 2.45-2.777 1.042-1.123 2.23-2.46 3.55-3.843 1.313-1.392 2.743-2.846 4.17-4.303 1.447-1.438 2.889-2.88 4.27-4.201 1.373-1.331 2.7-2.527 3.814-3.576 1.115-1.048 2.095-1.87 2.758-2.469.68-.58 1.069-.914 1.069-.914l-.907 1.078c-.595.667-1.41 1.654-2.45 2.777-1.042 1.122-2.229 2.46-3.55 3.842-1.312 1.393-2.744 2.846-4.172 4.301-1.445 1.439-2.888 2.88-4.27 4.201-1.373 1.33-2.7 2.527-3.815 3.576-1.114 1.048-2.094 1.87-2.756 2.47-.68.58-1.068.914-1.068.914" fill="#6C3A0E"/><path d="M61.332 65.779L84.32 42.62" fill="#FFF"/><path d="M61.332 65.779l.907-1.076c.595-.668 1.412-1.655 2.45-2.777 1.042-1.123 2.23-2.46 3.551-3.843 1.312-1.392 2.743-2.846 4.17-4.303 1.447-1.438 2.888-2.88 4.27-4.201 1.372-1.331 2.7-2.527 3.814-3.576 1.114-1.048 2.094-1.87 2.757-2.469l1.07-.914-.908 1.078c-.595.667-1.41 1.654-2.45 2.777-1.042 1.122-2.229 2.46-3.55 3.842-1.312 1.393-2.743 2.846-4.172 4.301-1.444 1.439-2.888 2.88-4.27 4.201-1.373 1.33-2.7 2.527-3.814 3.576-1.114 1.048-2.094 1.87-2.757 2.47-.68.58-1.068.914-1.068.914" fill="#6C3A0E"/><path d="M68.646 73.147l22.988-23.159" fill="#FFF"/><path d="M68.646 73.147l.907-1.076c.595-.668 1.413-1.654 2.452-2.777 1.04-1.123 2.23-2.46 3.55-3.843 1.31-1.39 2.741-2.846 4.17-4.302 1.446-1.439 2.887-2.88 4.27-4.201 1.37-1.332 2.7-2.527 3.813-3.577 1.114-1.048 2.094-1.87 2.758-2.469.68-.58 1.068-.914 1.068-.914l-.906 1.078c-.595.667-1.412 1.654-2.452 2.777-1.04 1.123-2.227 2.461-3.549 3.842-1.312 1.393-2.742 2.846-4.17 4.301-1.446 1.439-2.89 2.88-4.272 4.201-1.373 1.331-2.7 2.528-3.813 3.577-1.116 1.047-2.094 1.87-2.758 2.47l-1.068.913" fill="#6C3A0E"/><g transform="translate(4.706 29.939)"><mask id="f" fill="#fff"><use xlink:href="#e"/></mask><path d="M60.283.576c-10.366 0-20.042 1.547-28.285 4.214 8.997-1.087 18.182-1.245 26.487-.827C71.888 4.64 90.17 8.71 90.15 25.675c-.019 14.441-14.935 19.124-26.615 20.463-14.325 1.644-28.988-.017-43.2-1.962-6.33-.867-13.024-1.607-19.468-2.97 2.137 1.315 4.808 2.301 7.884 2.928 3.718.76 7.289 2.109 10.534 4.085 9.96 6.065 24.629 9.902 40.998 9.902 30.008 0 54.335-12.882 54.335-28.772 0-15.891-24.327-28.773-54.335-28.773" fill="#8B401F" mask="url(#f)"/></g></g></svg>