<svg width="120" height="120" viewBox="0 0 120 120" xmlns="http://www.w3.org/2000/svg" xmlns:xlink="http://www.w3.org/1999/xlink"><defs><path id="a" d="M.264.351H24.21V6.16H.264z"/><path id="c" d="M.319.384h106.709v7.443H.318z"/><path id="e" d="M.32.139h106.708V3.86H.319z"/></defs><g fill="none" fill-rule="evenodd"><g transform="translate(47.437 20.971)"><mask id="b" fill="#fff"><use xlink:href="#a"/></mask><path d="M24.21 6.159H.264l1.135-4.357A1.94 1.94 0 0 1 3.276.352h17.921a1.94 1.94 0 0 1 1.878 1.45L24.21 6.16z" fill="#E29233" mask="url(#b)"/></g><path d="M27.049 53.888a7.982 7.982 0 0 0-6.37-7.146l-2.512-.52.357-1.725 2.511.52a9.732 9.732 0 0 1 7.768 8.714l-1.754.157z" fill="#F2F2F2"/><path d="M24.423 44.49a4.986 4.986 0 1 1-9.973 0 4.986 4.986 0 1 1 9.973 0" fill="#CCC"/><path d="M24.423 44.49a4.97 4.97 0 0 0-.268-1.601 4.96 4.96 0 0 0-1.6-.268 4.986 4.986 0 0 0-4.987 4.986c0 .561.097 1.098.268 1.602.502.17 1.04.267 1.6.267a4.986 4.986 0 0 0 4.987-4.986" fill="#B7B7B7"/><path d="M91.339 53.888a7.982 7.982 0 0 1 6.37-7.146l2.51-.52-.356-1.725-2.511.52a9.731 9.731 0 0 0-7.767 8.714l1.754.157z" fill="#F2F2F2"/><path d="M93.964 44.49a4.986 4.986 0 1 0 9.973 0 4.986 4.986 0 0 0-9.973 0" fill="#CCC"/><path d="M93.964 44.49c0-.561.097-1.098.268-1.601a4.963 4.963 0 0 1 1.6-.268 4.986 4.986 0 0 1 4.987 4.986c0 .561-.097 1.098-.268 1.602a4.97 4.97 0 0 1-1.6.267 4.986 4.986 0 0 1-4.987-4.986" fill="#B7B7B7"/><path d="M24.363 99.486H18.59a4.571 4.571 0 0 1-4.57-4.57V73.703h14.913v21.213a4.57 4.57 0 0 1-4.57 4.57" fill="#42210B"/><path d="M28.933 94.916V73.703h-7.457v25.783h2.887a4.57 4.57 0 0 0 4.57-4.57" fill="#592C16"/><path d="M100.215 99.486h-5.773a4.57 4.57 0 0 1-4.57-4.57V73.703h14.913v21.213a4.57 4.57 0 0 1-4.57 4.57" fill="#42210B"/><path d="M104.785 94.916V73.703H97.33v25.783h2.886a4.57 4.57 0 0 0 4.57-4.57" fill="#592C16"/><path d="M103.248 56.828l-10.49-6.724-2.978-18.572a7.685 7.685 0 0 0-7.01-4.535H35.617a7.685 7.685 0 0 0-7.01 4.535L25.63 50.104l-10.49 6.724a13.64 13.64 0 0 0-4.423 10.055v10.494c0 5.66 4.588 10.25 10.25 10.25H97.42c5.661 0 10.25-4.59 10.25-10.25V66.883a13.64 13.64 0 0 0-4.423-10.055" fill="#F4A53B"/><path d="M25.636 50.064l-.007.04-10.49 6.724a13.64 13.64 0 0 0-4.424 10.056v10.493c0 5.66 4.59 10.25 10.25 10.25H37.51a22.871 22.871 0 0 0 5.776-15.222c0-10.853-7.53-19.942-17.65-22.34m82.036 27.312V66.884c0-3.825-1.606-7.473-4.424-10.056l-10.49-6.724-.006-.04C82.632 52.464 75.1 61.552 75.1 72.405c0 5.841 2.184 11.17 5.775 15.222h16.546c5.66 0 10.25-4.59 10.25-10.25" fill="#E29233"/><g transform="translate(6 76.514)"><mask id="d" fill="#fff"><use xlink:href="#c"/></mask><path d="M103.307 7.827H4.04a3.722 3.722 0 1 1 0-7.443h99.266a3.722 3.722 0 0 1 0 7.443" fill="#E6E6E6" mask="url(#d)"/></g><g transform="translate(6 80.481)"><mask id="f" fill="#fff"><use xlink:href="#e"/></mask><path d="M4.04 3.86h99.267a3.722 3.722 0 0 0 3.721-3.721H.32A3.722 3.722 0 0 0 4.041 3.86" fill="#B3B3B3" mask="url(#f)"/></g><path d="M86.942 66.661a7.565 7.565 0 1 0 15.131 0 7.565 7.565 0 0 0-15.13 0" fill="#FFF"/><path d="M91.621 66.819a3.048 3.048 0 0 0 3.044 3.043 3.047 3.047 0 0 0 3.044-3.043 3.047 3.047 0 0 0-3.044-3.044 3.047 3.047 0 0 0-3.044 3.044m-2.718 0a5.769 5.769 0 0 1 5.762-5.763 5.77 5.77 0 0 1 5.762 5.763 5.769 5.769 0 0 1-5.762 5.762 5.769 5.769 0 0 1-5.762-5.762" fill="#CCC"/><path d="M97.556 72.405a2.653 2.653 0 1 0 5.305 0 2.653 2.653 0 0 0-5.305 0" fill="#EC5C44"/><path d="M98.345 71.993a1.452 1.452 0 1 0 2.903 0 1.452 1.452 0 0 0-2.903 0" fill="#CC3A27"/><path d="M31.445 66.661a7.565 7.565 0 1 1-15.13 0 7.565 7.565 0 0 1 15.13 0" fill="#FFF"/><path d="M23.722 63.775a3.047 3.047 0 0 0-3.044 3.044 3.047 3.047 0 0 0 3.044 3.044 3.047 3.047 0 0 0 3.044-3.044 3.047 3.047 0 0 0-3.044-3.044m0 8.806a5.768 5.768 0 0 1-5.762-5.762 5.768 5.768 0 0 1 5.762-5.763 5.769 5.769 0 0 1 5.762 5.763 5.769 5.769 0 0 1-5.762 5.762" fill="#CCC"/><path d="M20.831 72.405a2.653 2.653 0 1 1-5.306 0 2.653 2.653 0 0 1 5.306 0" fill="#EC5C44"/><path d="M20.043 71.993a1.452 1.452 0 1 1-2.904 0 1.452 1.452 0 0 1 2.904 0" fill="#CC3A27"/><path d="M89.872 49.188H28.516l2.306-16.11a4.742 4.742 0 0 1 4.687-4.015h47.37a4.743 4.743 0 0 1 4.686 4.015l2.307 16.11z" fill="#192024"/><path d="M69.131 86.055H50.216a3.446 3.446 0 0 1-3.447-3.447v-3.977a3.446 3.446 0 0 1 3.447-3.446h18.915a3.446 3.446 0 0 1 3.447 3.446v3.977a3.446 3.446 0 0 1-3.447 3.447" fill="#FFF"/><path d="M69.131 75.185H50.216a3.446 3.446 0 0 0-3.447 3.446v2.352h25.809v-2.352a3.446 3.446 0 0 0-3.447-3.446" fill="#F2F2F2"/><path fill="#374B54" d="M47.997 49.188L68.04 29.063h-4.004L43.993 49.188z"/><path fill="#4E7684" d="M56.473 49.188l20.042-20.125H72.51L52.468 49.188z"/><path d="M64.948 49.188l19.694-19.782a4.713 4.713 0 0 0-1.763-.343h-1.894L60.944 49.188h4.004z" fill="#374B54"/><path d="M75.762 73.277H42.235a3.35 3.35 0 0 1-3.253-2.555l-.796-3.26a.997.997 0 0 1 .969-1.233h39.688a.997.997 0 0 1 .969 1.233l-.796 3.26a3.35 3.35 0 0 1-3.254 2.555" fill="#FFF"/><path d="M42.236 73.276h33.526a3.35 3.35 0 0 0 3.254-2.554l.136-.556H38.847l.135.556a3.35 3.35 0 0 0 3.254 2.554" fill="#E6E6E6"/><path d="M42.098 72.27a.872.872 0 0 1-.872-.873v-3.288a.872.872 0 1 1 1.745 0v3.288c0 .482-.39.873-.873.873m3.38 0a.872.872 0 0 1-.872-.873v-3.288a.872.872 0 1 1 1.745 0v3.288c0 .482-.39.873-.873.873m3.381 0a.872.872 0 0 1-.873-.873v-3.288a.872.872 0 1 1 1.745 0v3.288c0 .482-.39.873-.872.873m3.38 0a.872.872 0 0 1-.873-.873v-3.288a.872.872 0 1 1 1.745 0v3.288c0 .482-.39.873-.872.873m3.38 0a.872.872 0 0 1-.872-.873v-3.288a.872.872 0 1 1 1.744 0v3.288c0 .482-.39.873-.872.873m3.381 0a.872.872 0 0 1-.873-.873v-3.288a.872.872 0 1 1 1.744 0v3.288c0 .482-.39.873-.872.873m3.381 0a.873.873 0 0 1-.874-.873v-3.288a.873.873 0 1 1 1.746 0v3.288c0 .482-.39.873-.873.873m3.381 0a.873.873 0 0 1-.873-.873v-3.288a.873.873 0 1 1 1.745 0v3.288c0 .482-.39.873-.873.873m3.381 0a.872.872 0 0 1-.873-.873v-3.288a.872.872 0 1 1 1.745 0v3.288c0 .482-.39.873-.873.873m3.381 0a.872.872 0 0 1-.873-.873v-3.288a.872.872 0 1 1 1.745 0v3.288c0 .482-.39.873-.873.873m3.381 0a.872.872 0 0 1-.873-.873v-3.288a.872.872 0 1 1 1.745 0v3.288c0 .482-.39.873-.873.873" fill="#B3B3B3"/><path d="M62.775 60.747a3.102 3.102 0 1 1-6.203 0 3.102 3.102 0 0 1 6.203 0" fill="#FFF"/></g></svg>