<svg width="100" height="280" viewBox="0 0 100 280" xmlns="http://www.w3.org/2000/svg"><g fill="none"><path d="M75.8 148.5s3 1 4.9 5.5c1.3 3.1 3.2 5.1 2.4 5.6-1.6 1-3.5-3.8-3.5-3.8s.6 4.6.7 6.1c.1 1.4 0 4.4-.6 4.8-1 .6-1.1-1.2-1.3-4.3 0 0 0 2.6-.6 4-.5 1.2-1.5 1.7-1.8.1 0 0-.7 2.5-2-.2 0 0-1.7 1.5-1.5-5.1.1-2.8-5.1-13.2 3.3-12.7z" fill="#BD8962"/><path d="M74.1 166.3v-6.4c0-.7.1-1.2.1-1.2s.2.5.3 1.2c.1.7.2 1.7.3 2.6 0 1-.1 1.9-.3 2.6-.2.7-.4 1.2-.4 1.2zm2.1.6v-8.2s.2.5.4 1.2.3 1.8.3 2.8c0 1-.1 2.1-.3 2.8-.2.9-.4 1.4-.4 1.4zm2.3-2.6s-.1-.4-.1-1c-.1-.6-.1-1.4-.1-2.1v-3.1s.2.4.3.9c.2.6.3 1.4.3 2.1 0 .8-.1 1.6-.2 2.1-.1.7-.2 1.1-.2 1.1zm-1.7-15.2h.3c.2 0 .4.1.7.3.5.3 1.1 1 1.6 1.6.5.7.8 1.4 1.1 2 .2.6.3 1 .3 1s-.3-.3-.6-.8c-.4-.5-.8-1.1-1.3-1.8-.4-.6-.9-1.3-1.3-1.7l-.5-.5c-.2-.1-.3-.1-.3-.1zm2.8 6.7s-.3.1-.9.1c-.5 0-1.2-.2-1.8-.6-.3-.2-.6-.4-.8-.7-.2-.3-.4-.5-.5-.8-.1-.2-.2-.4-.2-.6 0-.1-.1-.2-.1-.2l.2.2c.1.1.2.3.4.4l.6.6c.2.2.5.4.7.6.5.3 1.1.6 1.5.8.6.1.9.2.9.2z" fill="#824D39"/><path d="M63.1 118c-1.2 5.9 3 13.9 4.1 19.1 1.2 5.2 2.7 14.8 2.7 14.8s7.6 2.3 9.8-2.6c0 0-3.3-19.8-3.7-24.3-.4-4.5-1.6-7.3-4-9.4-2.6-2.1-7.5-4.4-8.9 2.4z" fill="#D9C2B1"/><path d="M69.8 74.6c-4.3-7-10.9-8.6-12.6-2.1-1.5 5.7 0 26.4 4 41 .2.8.4 2.1.7 2.9.7 2.3-.5 2.6.2 4.1 1 2.1 2.2 2.9 6.5 2.3 1.3-.2 5.4-1.7 6.2-4 .6-1.8-.5-1.4-.2-3.9.1-1.1 1-1.9.7-3.3-3.4-13.3-2.4-31.9-5.5-37z" fill="#D9C2B1"/><path d="M71.8 81.4s.2 2.1.6 5.4c.3 3.2.7 7.5 1.1 11.8.1 1.1.2 2.1.3 3.2.1 1 .3 2 .5 3 .4 2 .8 3.8 1.1 5.4.1.4.1.8.2 1.2.1.4 0 .8 0 1.1-.2.7-.3 1.2-.5 1.6-.3.9-.4 1.4-.4 1.4s0-.5.1-1.5c.1-.5.2-1 .3-1.7.1-.6-.1-1.3-.3-2.1-.3-1.6-.7-3.4-1.1-5.4-.2-1-.4-2-.5-3.1-.1-1.1-.2-2.1-.3-3.2-.2-2.2-.3-4.3-.5-6.3-.1-2-.2-3.9-.3-5.5-.2-3.2-.3-5.3-.3-5.3zm1.3 34.8s-.3.4-.8.8c-.5.5-1.2 1-1.9 1.5-.8.5-1.6.8-2.2 1-.7.2-1.1.2-1.1.2s.1-.1.3-.1c.2-.1.4-.2.7-.4.6-.3 1.3-.8 2-1.2.7-.5 1.5-.9 2-1.2.6-.4 1-.6 1-.6zm-3.8.9s-.3.3-.9.6c-.6.3-1.4.6-2.3.6h-.7c-.2 0-.4-.1-.6-.1-.4-.1-.8-.3-1-.5-.5-.4-.6-.9-.6-.9l.2.2c.1.1.4.2.6.4.1.1.3.1.4.2.2 0 .3.1.5.1.4 0 .7.1 1.1 0 .8 0 1.6-.2 2.2-.3.7-.3 1.1-.3 1.1-.3z" fill="#A68F81"/><path d="M81.4 266.6l-.2 1.6s-8.8 1.8-13.6.5c-4.8-1.3-10.9-3.6-12.1-3.6v1.3s-4 0-6.2-1.6l-.2-5.1c.1 0 27.9-2.4 32.3 6.9z" fill="#17110B"/><path d="M63.2 234.6s-4.6 4.7-13.8-.2c0 0 .3 17.6.3 20.8 0 3.2-2.8 7.4 4 8.3 6.8.9 10 3.8 17 4.2 7 .4 10.7-1.1 10.7-1.1s.3-3.8-2.6-5.6c-2.9-1.8-12-4.3-14.5-7.9-2.5-3.6-1.1-18.5-1.1-18.5z" fill="#3D241B"/><path d="M81.4 266.6s0-.7-.2-1.8c-.1-.6-.3-1.2-.7-1.9-.4-.7-1-1.4-1.8-1.7-1.8-.7-4-1.4-6.3-2.4-1.1-.5-2.3-1-3.4-1.6-1.1-.6-2.3-1.3-3.3-2.2-1-.9-1.9-2-2.3-3.3-.3-1.3-.4-2.6-.5-3.8-.2-2.5-.1-4.8-.1-6.7.1-3.9.3-6.5.3-6.5s0 2.6.1 6.5c0 2 .1 4.2.3 6.7.1 1.2.2 2.5.5 3.7.3 1.2 1.2 2.2 2.1 3 2 1.6 4.3 2.8 6.5 3.8 1.1.5 2.2 1 3.3 1.4 1 .4 2 .8 2.9 1.2.9.4 1.6 1.2 1.9 2 .4.7.5 1.4.6 2 .1.6.1 1 .1 1.3v.3zm-19.3-31.3s-.1.1-.4.3c-.3.2-.7.4-1.2.6-.5.2-1.2.4-1.9.5-.7.1-1.5.1-2.3.1-.4 0-.8-.1-1.1-.1-.4-.1-.7-.1-1.1-.2-.7-.2-1.3-.4-1.9-.6-.5-.2-.9-.5-1.2-.6-.3-.2-.5-.2-.5-.2s.2 0 .5.1.8.2 1.3.4c.3.1.6.1.9.2.3.1.6.1 1 .2.3.1.7.1 1.1.2.4.1.7.1 1.1.1.7.1 1.5 0 2.2 0 .7-.1 1.3-.2 1.9-.3.5-.1 1-.3 1.3-.4.1-.2.3-.3.3-.3zm-12.5 1.5s.1 1.8.3 4.6c0 1.4.1 3 .2 4.7 0 1.7.1 3.6.1 5.4v2.8c0 .9-.1 1.9-.3 2.7-.2.9-.3 1.7-.3 2.4 0 .8.1 1.5.4 2.1.1.3.4.5.6.7.2.2.5.4.7.5.5.3 1 .4 1.3.5.4.1.7.1.9.2.2 0 .3.1.3.1h-.3c-.2 0-.5 0-.9-.1s-.9-.2-1.4-.4c-.3-.1-.5-.3-.8-.5-.2-.2-.5-.5-.7-.8-.4-.6-.6-1.4-.6-2.2 0-.8.1-1.7.2-2.5.2-.9.3-1.7.3-2.6v-12.9c-.1-2.8 0-4.7 0-4.7z" fill="#241510"/><path d="M74.7 259.5s-.2.1-.5.4c-.3.2-.7.6-1.1.9-.4.3-.8.7-1.1.9l-.6.4s.1-.3.3-.6c.2-.4.6-.8 1-1.1.4-.3.9-.6 1.3-.7.4-.3.7-.2.7-.2zm-5.7-2.6s-.2.2-.6.4c-.3.2-.8.5-1.2.8l-1.2.9c-.2.1-.3.2-.4.3-.1.1-.2.1-.2.1s.1-.3.3-.7c.2-.4.6-.8 1.1-1.2.5-.3 1-.6 1.4-.7.6.1.8.1.8.1zm-4.6-3.7s-.2.1-.6.2c-.4.1-.8.3-1.3.5-.4.2-.9.3-1.2.5-.2.1-.3.1-.4.2-.1 0-.2.1-.2.1s.1-.2.4-.5c.3-.3.7-.6 1.2-.8.5-.2 1-.3 1.4-.2.4-.1.7 0 .7 0zm-1.2-6.3s-.2.2-.6.4c-.4.2-1 .4-1.6.4-.6 0-1.2-.1-1.6-.3-.4-.2-.7-.3-.7-.3h2.2c.5 0 1.1-.1 1.5-.1.5 0 .8-.1.8-.1zm-.1-7.3s-.2.2-.6.5c-.4.3-.9.5-1.5.6-.3 0-.6.1-.9 0-.3 0-.5-.1-.8-.2-.2-.1-.4-.2-.5-.2-.1-.1-.2-.1-.2-.1h.7c.4 0 .9 0 1.5-.1.5-.1 1.1-.2 1.5-.3.5-.1.8-.2.8-.2zm-7.5 23.9s-.1-.7-.3-1.7c-.1-.5-.3-1.1-.5-1.7-.1-.3-.2-.6-.4-.9-.1-.3-.3-.6-.5-.9-.2-.3-.3-.6-.6-.8-.2-.2-.4-.5-.6-.7l-.3-.3c-.1-.1-.2-.2-.4-.3-.2-.2-.5-.3-.7-.4l-.6-.3c-.2-.1-.4-.1-.5-.2-.3-.1-.4-.2-.4-.2s.2 0 .5.1c.2 0 .3 0 .6.1.2 0 .4.1.7.2.3.1.5.2.8.4.1.1.3.2.4.2.1.1.3.2.4.3.3.2.5.5.8.7.3.3.4.6.6.9.4.6.7 1.3.8 1.9.2.6.3 1.3.3 1.8 0 1.1-.1 1.8-.1 1.8z" fill="#241510"/><path d="M69.3 202s1.5 3.6.8 10.2-.4 16-2.3 20.4c-1.9 4.4-15.8 10.7-20 .9-4.2-9.8-2.7-29.8 2.3-31.5 5-1.7 17.2-6.7 19.2 0z" fill="#396E4C"/><path d="M64.6 235.9s-.6.3-1.6.9c-.5.3-1.1.6-1.9.9-.7.3-1.6.6-2.6.9-.5.2-1 .2-1.5.3-.5.1-1.1.1-1.7.1-1.2 0-2.4-.2-3.6-.7-.3-.1-.6-.3-.8-.5l-.4-.3-.4-.3-.7-.7-.6-.8c-.4-.5-.7-1.1-1-1.7-.3-.6-.5-1.2-.8-1.8-.4-1.2-.8-2.6-1.1-3.8-.3-1.3-.5-2.6-.6-3.8-.1-1.2-.2-2.4-.2-3.6 0-1.1 0-2.2.1-3.2.1-2 .3-3.6.5-4.8.2-1.1.3-1.8.3-1.8s-.4 2.6-.5 6.6c0 2 0 4.3.3 6.7.3 2.4.8 5 1.7 7.5.3.6.4 1.3.7 1.8.3.6.5 1.2 1 1.6l.6.8.7.6.3.3.4.2c.3.2.5.3.8.5 1.1.5 2.2.7 3.4.7.6 0 1.1 0 1.6-.1s1-.1 1.5-.3c1-.2 1.8-.5 2.6-.8.8-.3 1.4-.6 1.9-.8 1-.3 1.6-.6 1.6-.6z" fill="#1F453B"/><path d="M71.1 180.6c1.1-18.3 3.9-48.7-7.7-53.3-11.6-4.6-20.1 9-19.4 27.4.4 9.5 3.2 31.9 2.1 35.4s-2.8 6.3-1.1 8.1c1.8 1.8-1.6 3.8-.1 5.6 1.6 1.8 5.7 5.6 14.4 4.9 4.7-.4 11-4.3 12.4-7.2 1.1-2.4-2.5-2.2.4-8.2 1.3-2.5-1.4-6.2-1-12.7z" fill="#396E4C"/><path d="M45 203.8s.5.3 1.4.8c.8.4 1.9 1 3.1 1.5.6.2 1.2.5 1.7.7.6.2 1.1.4 1.5.5.4.2.8.3 1.1.4.3.1.4.1.4.1h-.4c-.3 0-.7 0-1.1-.1-.5-.1-1-.2-1.6-.3l-1.8-.6c-.6-.3-1.2-.5-1.7-.8-.5-.3-1-.6-1.4-.9-.8-.8-1.2-1.3-1.2-1.3zm1.4-4.4l.6.6c.2.2.4.4.7.6.3.2.6.4 1 .6.4.2.8.4 1.3.6l1.5.6c.5.2 1.1.3 1.6.5.6.2 1.1.3 1.7.4.6.1 1.2.2 1.7.4.6.1 1.1.2 1.7.3 1.1.2 2.1.3 3 .4.9.1 1.6.2 2.1.2.5.1.8.1.8.1h-3c-.9-.1-2-.1-3.1-.2-.6-.1-1.1-.1-1.7-.2l-1.8-.3c-.6-.2-1.2-.3-1.7-.5-.6-.2-1.1-.3-1.6-.6-.5-.2-1-.4-1.5-.7-.5-.2-.9-.5-1.3-.7-.4-.3-.7-.5-1-.8-.3-.2-.5-.5-.7-.7-.2-.3-.3-.6-.3-.6zm-1.8-50.7s-.3 2.7-.3 6.7c0 2 .1 4.4.3 6.9.3 2.5.6 5.2.9 7.9.3 2.7.5 5.4.8 7.9.2 2.5.3 4.9.3 6.9s-.2 3.7-.4 4.9c-.1.6-.3 1-.4 1.3-.1.3-.2.4-.2.4s.3-.6.4-1.8c.2-1.2.2-2.8.2-4.9-.1-2-.3-4.4-.5-6.9s-.5-5.2-.8-7.9c-.3-2.7-.6-5.4-.8-7.9-.2-2.5-.2-4.9-.1-6.9s.3-3.7.4-4.9c.1-1 .2-1.7.2-1.7zm23.2 50s.1-.2.3-.5c.2-.3.5-.7.9-1.2s.9-1.1 1.6-1.7c.6-.7 1.3-1.4 1.7-2.4.2-.5.2-1 .1-1.6-.1-.6-.2-1.2-.4-1.8-.3-1.2-.7-2.5-.9-3.9-.2-1.4-.3-2.8-.3-4.3.1-1.4.2-2.9.2-4.4.3-5.9.6-11.7.8-16.1.1-2.2.2-4 .3-5.3.1-1.3.1-2 .1-2s.1 2.9 0 7.4c0 2.2-.1 4.8-.2 7.5-.1 2.8-.2 5.7-.4 8.6-.1 1.5-.2 2.9-.3 4.4-.1 1.4 0 2.8.2 4.2.2 1.3.5 2.6.8 3.9.2 1.2.5 2.5.2 3.6-.4 1.1-1.2 1.8-1.8 2.4-.7.6-1.2 1.2-1.6 1.6-.4.5-.7.9-.9 1.2-.3.2-.4.4-.4.4z" fill="#1F453B"/><path d="M24.8 122.9S9.4 140 16.1 153.8c6.7 13.8 54 7.5 54-7.7S63.7 120 55 118.5s-26.4 0-30.2 4.4z" fill="#396E4C"/><path d="M23.8 123.9s-.2.2-.4.6c-.3.4-.7.9-1.1 1.6-.5.7-.9 1.5-1.5 2.3-.5.9-1.1 1.8-1.6 2.8-.5.9-1 1.9-1.4 2.8-.4.9-.9 1.8-1.2 2.5-.3.7-.6 1.4-.8 1.8-.2.4-.3.7-.3.7s.1-.3.2-.7c.1-.5.3-1.1.6-1.9.3-.8.6-1.7 1-2.6.4-.9.9-1.9 1.4-2.9.5-1 1.1-1.9 1.6-2.7.5-.9 1.1-1.6 1.6-2.3 1.1-1.2 1.9-2 1.9-2zm28.9 35.3s-1 .5-2.7 1c-.8.2-1.8.5-2.8.8l-3.3.6c-1.1.1-2.3.2-3.4.1-.5 0-1.1-.1-1.6-.1-.5-.1-1-.2-1.4-.2-.4-.1-.8-.2-1.1-.3-.3-.1-.6-.2-.8-.3-.5-.2-.7-.3-.7-.3s.3.1.8.2c.2.1.5.2.9.2.3.1.7.1 1.1.2.4 0 .9.1 1.4.1h1.5c1.1 0 2.2-.1 3.3-.2 1.1-.1 2.2-.3 3.3-.5 1-.2 2-.4 2.9-.6.8-.2 1.5-.3 2-.5.4-.2.6-.2.6-.2z" fill="#1F453B"/><path d="M63.3 118.3s1.1 3 .6 5.4c0 0-7.9 3.6-18.2 4.3-7.3.5-16.2-.1-21.3-4.3 0 0-.8-3.8.8-4.4 1.6-.6 20-5.6 38.1-1z" fill="#3D241B"/><path d="M43.7 123.8l.1 4.3c2.8.9 7.9-.6 7.9-.6l-.1-4.4c-2.6.5-7.9.7-7.9.7zm1.6 1.2c2.2.3 5.2-.1 5.2-.1l.1 1.9c-1.8.4-5.3.3-5.3.3V125z" fill="#C29356"/><path d="M30.1 126.5s-.4-.2-.9-.6c-.3-.2-.5-.4-.8-.7-.1-.2-.3-.3-.4-.5-.1-.2-.3-.4-.2-.8.1-.2.3-.4.4-.4l.3-.1c.2-.1.4-.2.6-.2.4-.1.7-.2 1.1-.3.6-.1 1.1-.2 1.1-.2s-.4.2-.9.5c-.3.1-.6.3-1 .5-.2.1-.4.2-.5.3l-.3.1c-.1.1-.1 0-.1 0s0 .2.1.3c.1.2.2.3.3.5.2.3.4.6.6.8l.6.8z" fill="#241510"/><g transform="translate(14 52)"><path d="M12.1 18.1c3.2-1.5 9.2-4.3 10.5-5.8 1.8-2.1 2.2-3.7 1.2-8.8C23-.6 35.7 0 36.5 4.4c.4 2.3 1.1 7.9 2.5 8.5 1.4.5 10.8 4.8 10.8 4.8s-2.8 13.5-18 12.4c-6.9-.5-11.9-2.4-15.5-5.2-3.6-2.8-4.2-6.8-4.2-6.8" fill="#BD8962"/><path d="M38 22s-5.6 2.2-12.5.3l8.2 21.3L38 22z" fill="#D9C2B1"/><path d="M38.1 11.2s1.8 4.6-2.8 5.3l-2.5 15.3-4-15s-5.6-.8-5.8-5.6c0 0-6.3 2.8-16.5 5.7 0 0 4.4.9 5.2 18 .4 8.7-1.3 15.8-6.9 13.1 0 0 1.5 14.5 6 20.2 4.5 5.7 36.3 4.9 39.1-3 2.8-7.9 1.1-13 1-20.6-.1-7.6 1.5-22.4 0-27.6-.1 0-10.8-3.9-12.8-5.8z" fill="#82654F"/><path d="M11.5 48.4c5.9-4 1.1-29.2-3.6-30.9-4.7-1.7-7.8 6.7-7 12.1.8 5.4.8 25.5 10.6 18.8z" fill="#D9C2B1"/><path d="M28.8 16.9s.7 1.7 1.5 4.4c.4 1.3.9 2.9 1.3 4.6.4 1.7.8 3.5 1.2 5.3.3 1.8.6 3.7.9 5.4.2 1.7.4 3.4.5 4.7.1 1.4.2 2.6.2 3.4 0 .8.1 1.3.1 1.3s-.3-1.8-.6-4.6c-.2-1.4-.5-3-.7-4.7-.3-1.7-.6-3.5-1-5.4-.3-1.8-.7-3.6-1.1-5.3-.4-1.7-.7-3.3-1.1-4.6-.7-2.7-1.2-4.5-1.2-4.5z" fill="#5E3829"/><circle fill="#5E3829" transform="rotate(-2.864 36.302 19.003)" cx="36.302" cy="19.003" r="1"/><circle fill="#5E3829" transform="rotate(-2.864 35.902 25.004)" cx="35.902" cy="25.004" r="1"/><circle fill="#5E3829" transform="rotate(-2.864 30.902 34.904)" cx="30.902" cy="34.904" r="1"/><circle fill="#5E3829" transform="rotate(-2.864 31.902 40.304)" cx="31.902" cy="40.304" r="1"/><circle fill="#5E3829" transform="rotate(-2.864 35.302 30.904)" cx="35.302" cy="30.904" r="1"/></g><path d="M63.9 117.2s.2-.6.5-1.8c.1-.6.2-1.3.3-2.1.1-.8.2-1.7.2-2.7.1-2 .1-4.3-.1-6.8-.1-1.3-.2-2.5-.4-3.9-.2-1.3-.2-2.7-.2-4 0-2.7.2-5.4.4-7.9s.4-4.8.5-6.9c.1-2 .2-3.7.2-4.9v-1.8s0 .7.1 1.8c0 1.2.1 2.9 0 4.9-.1 2-.2 4.4-.3 6.9-.2 2.5-.3 5.2-.3 7.9 0 1.3 0 2.7.2 4 .1 1.3.3 2.6.3 3.9.1 1.3.1 2.5.1 3.6 0 1.2-.1 2.3-.2 3.3-.2 2-.5 3.7-.8 4.8-.3 1.1-.5 1.7-.5 1.7z" fill="#5E3829"/><path d="M51.7 272.7l-.2 1.6s-8.8 1.8-13.6.5c-4.8-1.3-10.9-3.6-12.1-3.6v1.3s-4 0-6.2-1.6l-.2-5.1c.1 0 27.8-2.4 32.3 6.9z" fill="#17110B"/><path d="M33.4 240.6s-4.6 4.7-13.8-.2c0 0 .3 17.6.3 20.8 0 3.2-2.8 7.4 4 8.3 6.8.9 10 3.8 17 4.2 7 .4 10.7-1.1 10.7-1.1s.3-3.8-2.6-5.6c-2.9-1.8-12-4.3-14.5-7.9-2.3-3.4-1.1-18.5-1.1-18.5z" fill="#3D241B"/><path d="M51.7 272.7s0-.7-.2-1.8c-.1-.6-.3-1.2-.7-1.9-.4-.7-1-1.4-1.8-1.7-1.8-.7-4-1.4-6.3-2.4-1.1-.5-2.3-1-3.4-1.6-1.1-.6-2.3-1.3-3.3-2.2-1-.9-1.9-2-2.3-3.3-.3-1.3-.4-2.6-.5-3.8-.2-2.5-.1-4.8-.1-6.7.1-3.9.3-6.5.3-6.5s0 2.6.1 6.5c0 2 .1 4.2.3 6.7.1 1.2.2 2.5.5 3.7.3 1.2 1.2 2.2 2.1 3 2 1.6 4.3 2.8 6.5 3.8 1.1.5 2.2 1 3.3 1.4 1 .4 2 .8 2.9 1.2.9.4 1.6 1.2 1.9 2 .4.7.5 1.4.6 2 .1.6.1 1 .1 1.3v.3zm-19.4-31.4s-.1.1-.4.3c-.3.2-.7.4-1.2.6-.5.2-1.2.4-1.9.5-.7.1-1.5.1-2.3.1-.4 0-.8-.1-1.1-.1-.4-.1-.7-.1-1.1-.2-.7-.2-1.3-.4-1.9-.6-.5-.2-.9-.5-1.2-.6-.3-.2-.5-.2-.5-.2s.2 0 .5.1.8.2 1.3.4c.3.1.6.1.9.2.3.1.6.1 1 .2.3.1.7.1 1.1.2.4.1.7.1 1.1.1.7.1 1.5 0 2.2 0 .7-.1 1.3-.2 1.9-.3.5-.1 1-.3 1.3-.4l.3-.3zm-12.4 1.5s.1 1.8.3 4.6c0 1.4.1 3 .2 4.7 0 1.7.1 3.6.1 5.4v2.8c0 .9-.1 1.9-.3 2.7-.2.9-.3 1.7-.3 2.4 0 .8.1 1.5.4 2.1.1.3.4.5.6.7.2.2.5.4.7.5.5.3 1 .4 1.3.5.4.1.7.1.9.2.2 0 .3.1.3.1h-.3c-.2 0-.5 0-.9-.1s-.9-.2-1.4-.4c-.3-.1-.5-.3-.8-.5-.2-.2-.5-.5-.7-.8-.4-.6-.6-1.4-.6-2.2 0-.8.1-1.7.2-2.5.2-.9.3-1.7.3-2.6v-12.9c-.1-2.8 0-4.7 0-4.7z" fill="#241510"/><path d="M44.9 265.5s-.2.1-.5.4c-.3.2-.7.6-1.1.9-.4.3-.8.7-1.1.9l-.6.4s.1-.3.3-.6c.2-.4.6-.8 1-1.1.4-.3.9-.6 1.3-.7.4-.3.7-.2.7-.2zm-5.6-2.6s-.2.2-.6.4c-.3.2-.8.5-1.2.8l-1.2.9c-.2.1-.3.2-.4.3-.1.1-.2.1-.2.1s.1-.3.3-.7c.2-.4.6-.8 1.1-1.2.5-.3 1-.6 1.4-.7.5.1.8.1.8.1zm-4.6-3.7s-.2.1-.6.2c-.4.1-.8.3-1.3.5-.4.2-.9.3-1.2.5-.2.1-.3.1-.4.2-.1 0-.2.1-.2.1s.1-.2.4-.5c.3-.3.7-.6 1.2-.8.5-.2 1-.3 1.4-.2.4-.1.7 0 .7 0zm-1.2-6.3s-.2.2-.6.4c-.4.2-1 .4-1.6.4-.6 0-1.2-.1-1.6-.3-.4-.2-.7-.3-.7-.3h2.2c.5 0 1.1-.1 1.5-.1.5 0 .8-.1.8-.1zm-.2-7.3s-.2.2-.6.5c-.4.3-.9.5-1.5.6-.3 0-.6.1-.9 0-.3 0-.5-.1-.8-.2-.2-.1-.4-.2-.5-.2-.1-.1-.2-.1-.2-.1h.7c.4 0 .9 0 1.5-.1.5-.1 1.1-.2 1.5-.3.5-.1.8-.2.8-.2zm-7.5 24s-.1-.7-.3-1.7c-.1-.5-.3-1.1-.5-1.7-.1-.3-.2-.6-.4-.9-.1-.3-.3-.6-.5-.9-.2-.3-.3-.6-.6-.8-.2-.2-.4-.5-.6-.7l-.3-.3c-.1-.1-.2-.2-.4-.3-.2-.2-.5-.3-.7-.4l-.6-.3c-.2-.1-.4-.1-.5-.2-.3-.1-.4-.2-.4-.2s.2 0 .5.1c.2 0 .3 0 .6.1.2 0 .4.1.7.2.3.1.5.2.8.4.1.1.3.2.4.2.1.1.3.2.4.3.3.2.5.5.8.7.3.3.4.6.6.9.4.6.7 1.3.8 1.9.2.6.3 1.3.3 1.8.1 1.1-.1 1.8-.1 1.8z" fill="#241510"/><path d="M39.5 208s1.5 3.6.8 10.2c-.8 6.7-.4 16-2.3 20.4-1.9 4.4-15.8 10.7-20 .9-4.2-9.8-2.7-29.8 2.3-31.5 5-1.7 17.3-6.6 19.2 0z" fill="#396E4C"/><path d="M34.9 241.9s-.6.3-1.6.9c-.5.3-1.1.6-1.9.9-.7.3-1.6.6-2.6.9-.5.2-1 .2-1.5.3-.5.1-1.1.1-1.7.1-1.2 0-2.4-.2-3.6-.7-.3-.1-.6-.3-.8-.5l-.4-.3-.4-.3-.7-.7-.6-.8c-.4-.5-.7-1.1-1-1.7-.3-.6-.5-1.2-.8-1.8-.4-1.2-.8-2.6-1.1-3.8-.3-1.3-.5-2.6-.6-3.8-.1-1.2-.2-2.4-.2-3.6 0-1.1 0-2.2.1-3.2.1-2 .3-3.6.5-4.8.2-1.1.3-1.8.3-1.8s-.4 2.6-.5 6.6c0 2 0 4.3.3 6.7.3 2.4.8 5 1.7 7.5.3.6.4 1.3.7 1.8.3.6.5 1.2 1 1.6l.6.8.7.6.3.3.4.2c.3.2.5.3.8.5 1.1.5 2.2.7 3.4.7.6 0 1.1 0 1.6-.1s1-.1 1.5-.3c1-.2 1.8-.5 2.6-.8.8-.3 1.4-.6 1.9-.8 1-.3 1.6-.6 1.6-.6z" fill="#1F453B"/><path d="M41.3 186.6c1.1-18.3 4.2-49.1-7.4-53.6-11.6-4.6-21.9 1.3-19.7 27.7.8 9.4 3.2 31.9 2.1 35.4s-2.8 6.3-1.1 8.1c1.8 1.8-1.6 3.8-.1 5.6 1.6 1.8 5.7 5.6 14.4 4.9 4.7-.4 11-4.3 12.4-7.2 1.1-2.4-2.5-2.2.4-8.2 1.3-2.4-1.4-6.2-1-12.7z" fill="#396E4C"/><path d="M15.3 209.8s.5.3 1.4.8c.8.4 1.9 1 3.1 1.5.6.2 1.2.5 1.7.7.6.2 1.1.4 1.5.5.4.2.8.3 1.1.4.3.1.4.1.4.1h-.4c-.3 0-.7 0-1.1-.1-.5-.1-1-.2-1.6-.3l-1.8-.6c-.6-.3-1.2-.5-1.7-.8-.5-.3-1-.6-1.4-.9-.8-.8-1.2-1.3-1.2-1.3zm1.3-4.4l.6.6c.2.2.4.4.7.6.3.2.6.4 1 .6.4.2.8.4 1.3.6l1.5.6c.5.2 1.1.3 1.6.5.6.2 1.1.3 1.7.4.6.1 1.2.2 1.7.4.6.1 1.1.2 1.7.3 1.1.2 2.1.3 3 .4.9.1 1.6.2 2.1.2.5.1.8.1.8.1h-3c-.9-.1-2-.1-3.1-.2-.6-.1-1.1-.1-1.7-.2l-1.8-.3c-.6-.2-1.2-.3-1.7-.5-.6-.2-1.1-.3-1.6-.6-.5-.2-1-.4-1.5-.7-.5-.2-.9-.5-1.3-.7-.4-.3-.7-.5-1-.8-.3-.2-.5-.5-.7-.7-.1-.3-.3-.6-.3-.6zm-2-50.7s-.2 2.7-.1 6.8c0 2 .1 4.4.4 6.9.3 2.5.6 5.2.9 7.9.3 2.7.5 5.4.7 7.9.2 2.5.3 4.9.3 6.9s-.1 3.7-.4 4.9c-.1.6-.3 1-.4 1.3-.1.3-.2.4-.2.4s.3-.6.5-1.8c.2-1.2.2-2.9.1-4.9-.1-2-.3-4.4-.5-6.9s-.5-5.2-.8-7.9c-.3-2.7-.6-5.4-.8-7.9-.2-2.5-.2-4.9-.2-7 .1-3.9.5-6.6.5-6.6zm23.5 50s.1-.2.3-.5c.2-.3.5-.7.9-1.2s.9-1.1 1.6-1.7c.6-.7 1.3-1.4 1.7-2.4.2-.5.2-1 .1-1.6l-.3-1.8c-.3-1.2-.7-2.5-.9-3.9-.2-1.4-.3-2.8-.3-4.3.1-1.4.2-2.9.2-4.4.3-5.9.7-11.7.9-16.1.1-2.2.2-4 .3-5.3.1-1.3.1-2 .1-2s.1 2.9-.1 7.3c-.1 2.2-.1 4.8-.2 7.5s-.3 5.7-.4 8.6c-.1 1.5-.2 2.9-.3 4.4-.1 1.4 0 2.8.2 4.2.2 1.3.5 2.6.8 3.9.2 1.2.5 2.5.1 3.6s-1.2 1.8-1.8 2.4c-.7.6-1.2 1.2-1.6 1.6-.4.5-.7.9-.9 1.2-.3.4-.4.5-.4.5z" fill="#1F453B"/><path d="M15.8 153.2s2.5 1.8 2.9 6.6c.3 3.2 1.5 5.7.6 5.9-1.8.5-2.1-4.6-2.1-4.6s-.9 4.6-.1 6.3c.6 1.3.5 3.6-.1 3.8-.6.3-1.6-2.8-2.3-4.8 0 0 .4 2.4.4 3.9s-.5 2-1.4.5c0 0-1 2.5-2.4-2.3 0 0-1 .5-1.5-2.1-.3-2.7-1.6-16.1 6-13.2z" fill="#BD8962"/><path d="M16.5 170.8l-.3-.3c-.1-.2-.4-.5-.6-.8-.2-.4-.4-.8-.6-1.3-.2-.5-.3-1-.4-1.6-.2-1.1-.2-2.2-.2-3 0-.4.1-.7.1-1 0-.2.1-.4.1-.4s0 .1.1.4c0 .2.1.6.1 1s.1.9.2 1.3c.1.5.1 1 .2 1.5.2 1 .4 2 .7 2.8.3.9.6 1.4.6 1.4zm-2.7 0s-.3-.4-.7-1.1c-.2-.3-.3-.8-.5-1.2l-.3-1.5c-.1-1-.2-2-.1-2.8.1-.8.2-1.2.2-1.2v.3c0 .2.1.5.1.9s.1.8.1 1.3c.1.5.1.9.2 1.4.1 1 .3 1.9.5 2.7.3.7.5 1.2.5 1.2zm-2.4-2.4s-.2-.3-.4-.9c-.2-.5-.4-1.3-.5-2-.1-.8-.1-1.5 0-2.1.1-.6.2-.9.2-.9v.3c0 .2.1.4.1.7.1.6.2 1.3.3 2 .1.7.2 1.5.2 2 .1.6.1.9.1.9zm5.1-14.3s.1 0 .3.1c.2.1.4.3.6.5.4.5.7 1.2 1 2 .2.8.3 1.5.4 2.1v1s-.2-.4-.4-.9c-.2-.6-.4-1.3-.6-2-.2-.7-.4-1.5-.7-2-.1-.3-.2-.5-.3-.6-.2-.1-.3-.2-.3-.2z" fill="#824D39"/><path d="M18.9 119.7c2.3 5.5-.3 14.2-.5 19.6-.2 5.4.2 15 .2 15s-7.1 3.7-10.1-.7c0 0-.5-20-.9-24.6-.4-4.6.2-7.4 2.2-10 2-2.6 6.5-5.7 9.1.7z" fill="#D9C2B1"/><path d="M26.8 79.4c-2.2-7.9-6.8-13.1-10.3-7.3-3 5.1-8 27.3-8.2 42.4 0 .9-.2 2.1-.2 2.9 0 2.4-1.2 2.4-.9 4 .4 2.3 1.3 3.4 5.6 4.1 1.3.2 5.7-.1 7.1-2.1 1.1-1.5-.1-1.5.9-3.8.4-1 1.5-1.5 1.5-3 .4-13.7 6.1-31.5 4.5-37.2z" fill="#D9C2B1"/><path d="M27.3 86.5s-.5 2.7-1.2 6.7c-.4 2-.8 4.3-1.3 6.8-.2 1.2-.5 2.5-.8 3.8-.2 1.3-.5 2.7-.7 4-.3 2.7-.5 5.4-.7 7.9 0 .3-.1.6-.1 1-.1.3-.2.7-.4.9-.3.6-.6 1-.9 1.5-.3.5-.6 1-.6 1.5s0 1.1-.1 1.6c-.2 1.1-1 1.8-1.7 2.2-.7.4-1.5.6-2 .7-.6.1-1 .2-1.4.2h-.5s.2 0 .5-.1.8-.1 1.3-.3c.6-.2 1.3-.4 2-.8s1.3-1.1 1.5-2.1c.1-.5 0-1 .1-1.6 0-.6.3-1.1.6-1.7.3-.5.6-1 .9-1.6.1-.3.2-.5.3-.8 0-.3.1-.6.1-.9.2-2.5.4-5.2.6-7.9.2-1.4.5-2.7.7-4 .3-1.3.5-2.6.8-3.8.5-2.5 1.1-4.8 1.5-6.8.9-3.7 1.5-6.4 1.5-6.4z" fill="#A68F81"/><path d="M18.9 120.4s-.4.3-1 .6-1.4.6-2.3.9c-.9.2-1.7.4-2.4.4s-1.1-.1-1.1-.1.1 0 .3-.1c.2 0 .5-.1.8-.2.6-.2 1.5-.4 2.3-.6.8-.2 1.7-.5 2.3-.6.7-.2 1.1-.3 1.1-.3zm-3.9-.3s-.4.2-1 .3c-.6.1-1.5.2-2.4 0-.2 0-.4-.1-.6-.2l-.6-.3c-.4-.2-.6-.5-.8-.8-.4-.6-.4-1-.4-1l.2.2c.1.2.3.3.5.5.1.1.2.2.4.3.1.1.3.2.5.2.3.1.7.3 1.1.3.8.2 1.6.2 2.2.3.5.2.9.2.9.2z" fill="#A68F81"/><path d="M66.2 31.2c-.4 5-2.1 9.4.6 12.8 2.3 2.9 3 8 .6 9.2 0 0 .6-3.7-.8-4.8 0 0 .8 1.8-.1 3 0 0-1.2-3.3-2.6-4.8-2.7-2.7-3.7-6-2.3-11.8 1.4-5.8 4.8-6.9 4.6-3.6zM23.9 83.9c-1.9-.4-3.9.7-3.6 3.9.3 3.2-2.8 3.2-3.8 2.9 0 0 3.6 2.7 6.5-.5 0 0-1 1.7-2.1 2.1 0 0 4.7-1 5.1-5.1.2-1.2-.3-2.9-2.1-3.3z" fill="#3D241B"/><path d="M16.5 90.8s.2 0 .4.1c.3 0 .7 0 1.1-.1.4-.1.9-.5 1.2-.9.2-.2.3-.5.5-.7.1-.2.2-.5.2-.8.1-.6 0-1.3.1-1.9.1-.7.5-1.3.9-1.6.4-.3.8-.5 1.1-.6.3-.1.4-.1.4-.1s-.1.1-.4.2c-.2.1-.6.4-.9.7-.3.3-.5.8-.6 1.4v2c0 .4-.1.7-.3 1.1-.2.3-.4.6-.6.8-.5.5-1 .8-1.6.9-.5.1-1 0-1.3-.1 0-.3-.2-.4-.2-.4z" fill="#241510"/><path d="M26.5 47.8s-6.5 7.4-.9 14c0 0-4.6 2.4-1.4 9.4 0 0-4.1 2.6-.7 7.7 0 0-2.7 2.1-.4 5.8 0 0 5.1.2 4.2-5.8 0 0 2.9-3.5 1.4-7.4 0 0 6-2.9 2.9-10.1 0 0 6.5-6 2.9-11.5s-6-4-8-2.1z" fill="#3D241B"/><path d="M28.9 51.9s.4.3.9.8c.5.6 1 1.5 1.2 2.4.1.5.2 1 .2 1.4 0 .5 0 .9-.1 1.3 0 .4-.1.7-.2.9-.1.2-.1.3-.1.3v-.3c0-.2 0-.5-.1-.9-.1-.7-.2-1.6-.4-2.5-.1-.4-.3-.9-.4-1.3-.2-.4-.3-.8-.5-1.1-.2-.6-.5-1-.5-1z" fill="#241510"/><path d="M30.9 55.7s.1-.3.2-.7c.2-.4.5-.9.9-1.3s.9-.7 1.3-.9c.4-.2.7-.2.7-.2s0 .1-.1.1l-.4.4c-.3.3-.7.7-1.1 1-.4.4-.8.8-1.1 1-.1.4-.4.6-.4.6zm-2.7 7.7s.3.2.7.7c.4.4.8 1.1 1 1.9.1.4.1.8.1 1.2v.5c0 .2-.1.3-.1.5-.1.3-.2.5-.3.7l-.1.2v-.9c0-.6-.1-1.3-.2-2-.2-.7-.4-1.4-.7-1.9-.2-.6-.4-.9-.4-.9z" fill="#241510"/><path d="M30.6 64.8v.3c0 .1 0 .2-.1.3 0 .1-.1.2-.1.3-.1.1-.1.2-.2.3-.1.1-.1.2-.2.2l-.2.2v-.3c0-.1 0-.2.1-.3 0-.1.1-.2.1-.3.1-.1.1-.2.2-.3.1-.1.1-.2.2-.2.1-.2.2-.2.2-.2zm-5.3 7.3s.3.2.6.7c.2.2.4.5.5.8.2.3.3.6.5.9.1.3.2.7.3 1 .1.3.1.7.1.9 0 .3-.1.5-.1.6 0 .2-.1.2-.1.2V77c0-.2 0-.4-.1-.6 0-.3-.1-.5-.2-.9l-.3-.9c-.2-.6-.5-1.3-.8-1.7-.2-.5-.4-.8-.4-.8z" fill="#241510"/><path d="M27.7 73.8s0 .1-.1.3c0 .1 0 .2-.1.2 0 .1-.1.2-.1.2l-.2.2c0 .1-.1.1-.2.2l-.2.2s-.1-.1-.1-.3c0-.1 0-.2.1-.3 0-.1.1-.2.1-.3.1-.1.1-.2.2-.2l.2-.2c.3.1.4 0 .4 0zm-2.6 5.5s.2.2.3.6c.1.4.2 1 .2 1.6 0 .3-.1.6-.2.8-.1.3-.2.5-.3.7-.1.2-.2.3-.3.4l-.1.1s0-.1.1-.2c0-.1.1-.3.1-.5.1-.2.1-.4.2-.7.1-.2.1-.5.1-.8v-1.5c0-.2-.1-.5-.1-.5z" fill="#241510"/><path d="M26.6 80.4s0 .1-.1.2c0 .1-.1.1-.1.2l-.2.2c-.1.1-.2.1-.2.2-.1.1-.2.1-.2.1-.1.1-.3.1-.3.1s0-.1.1-.3c0-.1.1-.1.1-.2l.2-.2c.1-.1.2-.1.2-.2.1-.1.2-.1.2-.1h.3zm-.8-31.8s-.1.2-.3.5c-.2.3-.5.8-.7 1.4-.1.3-.3.6-.4 1-.1.3-.2.7-.4 1.1-.1.4-.2.8-.2 1.2l-.1.6v1.9c0 .4.1.8.2 1.2.1.4.2.8.3 1.1.1.4.3.7.4 1 .1.3.2.6.4.8l.3.6c.2.3.3.5.3.5s-.1-.2-.4-.5c-.1-.2-.3-.3-.4-.6-.2-.2-.3-.5-.5-.8-.2-.3-.4-.6-.5-1-.1-.4-.3-.7-.4-1.2-.1-.4-.2-.8-.3-1.3 0-.5-.1-.9-.1-1.4V54l.1-.7c0-.5.2-.9.3-1.3.2-.4.3-.8.5-1.1.2-.4.3-.7.5-1 .4-.6.7-1 1-1.3.3.1.4 0 .4 0zm5.9 12.8s.5.6.9 1.6l.3.9c.1.3.1.7.2 1V66l-.1.6-.1.6c-.1.4-.3.7-.4 1.1l-.6.9c-.2.3-.5.5-.7.8-.2.2-.5.4-.7.6-.4.4-.9.5-1.1.7-.3.2-.5.2-.5.2s.1-.1.4-.3c.2-.2.6-.5 1-.9l.6-.6c.2-.2.4-.5.6-.8.2-.3.3-.6.5-.9.1-.3.3-.6.4-1l.1-.5.1-.5c.1-.3 0-.7.1-1 0-.3 0-.7-.1-1 0-.3-.1-.6-.1-.9-.1-.5-.2-1-.3-1.3-.5-.3-.5-.4-.5-.4zm-7.5 9.8s-.4.4-.8 1c-.2.3-.4.7-.6 1.2-.1.2-.1.5-.2.7 0 .2-.1.5-.1.7v.8c0 .2 0 .5.1.7.1.2.1.5.2.7.1.2.1.4.2.6.1.4.2.7.3.9.1.2.1.4.1.4s-.1-.1-.2-.3c-.1-.2-.4-.5-.6-.8-.2-.4-.4-.8-.6-1.3-.1-.2-.1-.5-.2-.8-.1-.3 0-.6-.1-.8 0-.6.1-1.1.4-1.6.2-.5.5-.9.8-1.2.8-.8 1.3-.9 1.3-.9z" fill="#241510"/><path d="M27.3 78.9s.2.5.3 1.3c0 .4.1.9 0 1.4 0 .3-.1.5-.2.8-.1.2-.2.5-.4.7-.1.2-.3.5-.5.6-.2.2-.4.3-.6.5-.2.1-.5.2-.7.3-.2.1-.4.1-.6.1-.4.1-.7 0-1 0h-.4s.1 0 .3-.1c.2-.1.5-.1.9-.3.2-.1.4-.1.5-.2l.6-.3c.2-.1.4-.3.5-.4.2-.2.3-.3.4-.5.2-.2.2-.4.3-.6.1-.2.2-.4.2-.7.1-.4.2-.9.2-1.2.2-.9.2-1.4.2-1.4z" fill="#241510"/><path d="M60.5 17.4c4.7 6.8 4.2 20.9 4.2 20.9s5.1 16.2-10.5 22.4c-8 3.2-16.1-.2-20.7-6.3-5-6.6-8-13.2-8.2-22-.1-3.9 1.2-11.2 4.6-15.9 6.4-8.5 22.3-11.2 30.6.9z" fill="#BD8962"/><path d="M53.1 41.1s.4.3.9 1c.5.6 1.1 1.6 1.3 2.7v.9c-.1.3-.2.6-.3.8-.1.2-.3.4-.5.6-.2.2-.4.3-.6.4-.7.4-1.3.4-1.3.4s.1-.1.3-.2c.2-.1.5-.3.8-.5.3-.2.6-.6.8-.9.1-.2.1-.4.2-.6V45c-.1-.5-.2-.9-.4-1.4-.2-.4-.4-.8-.5-1.2-.4-.9-.7-1.3-.7-1.3zm-2.3 5.4s-.1.1-.3.1c-.1 0-.2.1-.3.1-.1 0-.2.1-.3.1-.2.1-.4.2-.5.3l-.2.2v-.4c0-.1.1-.2.2-.3l.3-.3c.1-.1.3-.1.4-.1h.4l.3.3z" fill="#633B2C"/><g transform="translate(54 34)" fill="#3D241B"><ellipse transform="rotate(-89.572 3.358 2.528)" cx="3.358" cy="2.528" rx="2.5" ry="1.3"/><path d="M6.5 1.4s-.1-.1-.3-.1c-.2-.1-.4-.2-.7-.3-.3-.1-.7-.2-1-.3C4.1.6 3.7.6 3.3.6c-.2 0-.4.1-.6.1-.2.1-.4.1-.6.2-.2.1-.4.1-.5.2-.2.1-.3.2-.5.2-.3.1-.5.3-.7.4-.2.1-.3.1-.3.1l.2-.2c.1-.1.3-.4.6-.6.3-.2.6-.5 1-.6.2-.1.4-.2.7-.2.2 0 .5-.1.7-.1.5 0 1 0 1.4.2.4.1.8.3 1.1.5.4.2.7.6.7.6z"/></g><g transform="translate(39 34)" fill="#3D241B"><ellipse transform="rotate(-89.572 3.59 2.83)" cx="3.59" cy="2.831" rx="2.5" ry="1.3"/><path d="M6.3 1.9s-.4-.3-1-.6S3.9.7 3.1.7c-.4 0-.8.1-1.2.2-.2.1-.4.1-.5.2-.2.1-.3.2-.5.2-.3.1-.5.3-.7.4C.1 2 0 2 0 2s.1-.1.2-.3c.1-.1.3-.4.6-.6.3-.2.6-.5 1-.7.2-.1.4-.2.7-.2.2 0 .5-.1.7-.1.2 0 .5 0 .7.1.2 0 .5.1.7.2.4.2.8.4 1 .6.5.5.7.9.7.9z"/></g><path d="M46.4 33.2s-.6-.2-1.6-.5c-.5-.2-1-.3-1.6-.5-.6-.2-1.3-.3-1.9-.4-.7-.1-1.3-.2-1.9-.3-.3 0-.6-.1-.9-.1h-.8c-.5 0-.9 0-1.2.1-.3 0-.5.1-.5.1l.4-.2c.3-.1.7-.3 1.2-.5.3-.1.5-.1.8-.2.3-.1.6-.1 1-.2.7-.1 1.4-.1 2.1-.1.7 0 1.4.1 2.1.2.7.1 1.3.3 1.8.4 1 .3 1.7.6 1.7.6.4.2.6.7.4 1.1-.2.5-.7.7-1.1.5zm6.5-1.6s.6-.2 1.5-.4c.5-.1 1-.2 1.6-.3.6-.1 1.2-.1 1.8-.1.6 0 1.3.1 1.8.1.6.1 1.1.3 1.6.4l.6.3c.2.1.3.2.4.2l.4.2s-.2 0-.4-.1c-.1 0-.3-.1-.5-.1s-.4 0-.6-.1h-1.5c-.5 0-1.1.1-1.7.2-.6.1-1.1.2-1.7.3-.5.1-1 .2-1.4.4-.8.2-1.4.4-1.4.4-.4.1-.9-.1-1-.6-.1-.2.1-.7.5-.8z" fill="#3D241B"/><path d="M54.4 54.2s-.6-.1-1.4-.1c-.8-.1-1.9-.1-3-.1s-2.2-.1-3.1-.1c-.4 0-.8 0-1-.1h-.4s.5-.2 1.4-.3c.8-.1 2-.2 3.1-.2s2.3.2 3.1.4c.4.1.7.2 1 .3.2.1.3.2.3.2z" fill="#633B2C"/><path d="M64 52.3s-.2.4-.7 1.1c-.2.3-.5.8-.8 1.2-.3.5-.7 1-1.2 1.5s-1 1.1-1.6 1.6c-.6.5-1.2 1.1-2 1.6-.7.5-1.5 1-2.3 1.4-.9.4-1.7.8-2.6 1-.9.3-1.9.4-2.8.5h-1.4c-.5 0-.9 0-1.3-.1-.9-.1-1.7-.2-2.5-.4s-1.5-.4-2.2-.7c-.7-.3-1.3-.5-1.8-.7-.5-.3-.9-.5-1.3-.7-.7-.4-1.1-.6-1.1-.6s.4.2 1.2.5c.4.2.8.4 1.3.6.5.2 1.1.4 1.8.6.6.3 1.4.4 2.2.6.8.2 1.6.2 2.5.3.4.1.9.1 1.3 0H50c.9-.2 1.8-.2 2.7-.5.9-.2 1.7-.6 2.6-.9.8-.4 1.6-.8 2.3-1.3.7-.5 1.4-1 2-1.5.6-.5 1.2-1 1.6-1.5 1-1 1.7-1.9 2.2-2.5.4-.7.6-1.1.6-1.1z" fill="#824D39"/><path d="M32.9 53.6c-14-8.3-11.9-22.9-10.2-31.2 1.7-8.4 12.1-10.9 12.1-10.9.5-1.4-.1-4.1-.1-4.1 1.7 1 1.7 3.6 1.7 3.6s2.8-2.9 6.5-2.9 6.8-2.8 6.8-2.8c-.6 2-1.5 3-1.5 3 5.5-1.2 9.1 2.8 11.7 5 2.7 2.3 5.7 1.9 5.7 1.9-3 1.2-4.5.6-4.5.6s4.1 4.2 5.2 11.4c1.1 7.2-1.4 11.2-1.4 11.2-.1-4-.8-9.7-.8-9.7-16.3-.8-17.9-9.9-17.9-9.9 0 4.4 3.1 7.9 3.1 7.9-6.1-1.7-6.7-10-6.7-10s.2 5.4 1.5 6.5c0 0-5.2-1.9-5.1-5.4 0 0 .3 11.6-3.8 15.2-9.8 8.7-2.3 20.6-2.3 20.6z" fill="#3D241B"/><path d="M64 28.6s-1.4.2-3.4 0c-.5-.1-1.1-.1-1.7-.2l-1.8-.3c-.6-.1-1.3-.3-1.9-.5-.7-.2-1.3-.5-1.9-.7-.6-.3-1.2-.6-1.8-1-.5-.4-1.2-.7-1.6-1.2-.5-.4-1-.8-1.3-1.3-.4-.5-.8-.9-1-1.4-.3-.5-.5-.9-.7-1.2-.1-.4-.3-.7-.4-1l-.3-.9s.2.3.4.8c.1.3.3.6.5 1 .2.3.5.7.8 1.1.2.4.7.8 1 1.2.4.5.9.8 1.3 1.2.4.4 1 .7 1.6 1.1l1.8.9c.6.2 1.2.6 1.9.8.6.2 1.2.4 1.9.6 1.2.3 2.4.6 3.4.7.5.1 1 .1 1.4.2.4 0 .8.1 1.1.1h.7zm-14.8-2s-.2 0-.5-.1c-.2 0-.4-.1-.6-.2-.2-.1-.5-.2-.7-.3-.5-.3-1.1-.7-1.6-1.2-.2-.3-.5-.5-.7-.9-.2-.3-.5-.6-.7-1-.2-.3-.4-.7-.5-1-.2-.3-.3-.7-.4-1-.1-.3-.3-.7-.3-1-.1-.3-.2-.6-.2-.9-.1-.6-.2-1-.3-1.4 0-.3-.1-.5-.1-.5s.1.2.2.5.3.8.5 1.3c.1.3.2.5.3.8.1.3.3.6.4.9.1.3.3.6.5 1 .2.3.3.7.5 1 .4.7.8 1.2 1.3 1.8.5.5.9 1 1.4 1.3.7.7 1.5.9 1.5.9zM44 23.2s-.5 0-1.2-.3c-.4-.1-.8-.3-1.2-.5-.4-.2-.8-.6-1.2-.9-.4-.4-.7-.8-.9-1.2l-.3-.6c-.2-.3-.2-.5-.3-.7-.1-.4-.1-.7-.1-.9v-.3s.1.1.1.3c.1.2.2.5.4.8.2.3.4.7.6 1 .2.4.6.7.9 1 .7.7 1.5 1.2 2.1 1.6.6.4 1.1.7 1.1.7zM32.9 53.6s-.8-.3-2-1.1-2.9-2-4.5-3.9-3.2-4.4-4.1-7.4c-1-3-1.4-6.3-1.3-9.6.1-1.6.2-3.3.4-4.9.2-1.6.5-3.2 1.1-4.7l.9-2.1c.4-.7.8-1.3 1.2-1.8.9-1.2 1.8-2.1 2.8-2.9 1-.8 1.9-1.4 2.8-1.9.9-.5 1.7-.8 2.4-1.1 1.3-.5 2.2-.7 2.2-.7s-.8.2-2.2.8c-1.3.6-3.1 1.6-5 3.2-.9.8-1.8 1.8-2.6 2.9-.8 1.1-1.5 2.4-2 3.8s-.8 3-1 4.6c-.2 1.6-.3 3.2-.4 4.8-.1 3.2.3 6.5 1.2 9.4.9 2.9 2.3 5.4 3.9 7.3 1.5 1.9 3.1 3.3 4.2 4.1 1.3.8 2 1.2 2 1.2zm32.5-38.4s-.5.4-1.3.7c-.8.3-2.1.6-3.3.5-.3 0-.6-.1-.9-.1-.3 0-.6-.2-.9-.2-.3-.1-.5-.2-.8-.3-.2-.1-.4-.2-.6-.4-.4-.2-.7-.5-.9-.7l-.3-.3s.1.1.4.2c.1.1.3.1.4.2.2.1.4.1.6.2.2.1.4.2.7.2.2.1.5.2.7.2.5.1 1.1.2 1.6.3 1.1.1 2.3 0 3.1-.2 1-.1 1.5-.3 1.5-.3zM49.5 5.3s0 .5-.2 1.2-.7 1.7-1.5 2.3c-.2.2-.4.3-.6.5-.2.2-.4.2-.7.3-.2.1-.4.1-.7.2-.2.1-.4.1-.6.1-.4.1-.7 0-.9 0H44s.1 0 .3-.1c.1 0 .2-.1.4-.1.1 0 .3-.1.5-.2s.3-.1.5-.2l.6-.3.6-.3c.2-.1.4-.3.5-.4.7-.6 1.2-1.4 1.6-2 .4-.6.5-1 .5-1z" fill="#241510"/><path d="M32.3 41.6s-.5-6.6-9-9.1c0 0-.8 12.8 7.6 14.2" fill="#BD8962"/><path d="M24.1 33.9s.8.3 1.9.9c.5.3 1.2.7 1.8 1.2.6.5 1.3 1 1.8 1.7.3.4.5.7.6 1.2.1.3 0 .5 0 .7v.6c0 .8-.1 1.5.1 2.1.1.3.1.5.3.7.1.2.3.3.4.4.3.2.5.2.5.2s-.2 0-.6-.1c-.2-.1-.4-.2-.6-.4-.2-.2-.3-.5-.4-.8-.2-.6-.3-1.4-.3-2.2V39c0-.3-.3-.6-.5-.9-.5-.6-1.1-1.2-1.7-1.7-.6-.5-1.2-.9-1.6-1.3-1-.7-1.7-1.2-1.7-1.2z" fill="#824D39"/><path d="M29.3 38s-.2.2-.4.5-.5.7-.7 1.2c-.1.2-.2.4-.3.7-.1.2-.2.4-.2.6-.1.2-.1.3-.2.5 0 .1-.1.2-.1.2s-.1-.3-.1-.7v-.7c0-.3.1-.5.2-.8.1-.3.3-.5.5-.7.2-.2.4-.4.6-.5.4-.2.7-.3.7-.3z" fill="#824D39"/><path d="M36.9 29.6c-1.2 4.9-3.5 8.9-1.4 12.7 1.8 3.2 1.7 8.3-.8 9.1 0 0 1.1-3.6-.1-4.9 0 0 .5 1.9-.6 2.9 0 0-.6-3.5-1.8-5.1-2.3-3.1-2.8-6.6-.4-12s5.9-6 5.1-2.7z" fill="#3D241B"/><path d="M34.7 51.4s.4-.1.9-.7c.2-.3.5-.7.6-1.2.2-.5.2-1.1.2-1.7 0-.6-.1-1.3-.2-2.1-.1-.7-.4-1.5-.6-2.3-.2-.8-.6-1.6-.8-2.4-.2-.9-.4-1.8-.4-2.7-.1-1.8.3-3.6.9-5.2.5-1.6 1.2-3 1.7-4.2.5-1.2.9-2.2 1.1-3 .2-.7.3-1.2.3-1.2s-.1 1.8-1 4.3c-.4 1.3-1 2.7-1.5 4.2s-.9 3.3-.8 5c0 .9.1 1.7.3 2.5.2.8.5 1.6.7 2.4.2.8.4 1.6.5 2.3.1.8.2 1.5.1 2.2 0 .3-.1.7-.1 1-.1.3-.1.6-.3.8-.2.5-.5.9-.7 1.2-.3.3-.5.4-.7.5-.1.3-.2.3-.2.3zm-3.5-9s-.1-.1-.3-.4c-.2-.2-.4-.6-.5-1.1-.2-.5-.3-1.1-.4-1.7-.1-.6-.1-1.3 0-2s.2-1.3.4-1.9c.2-.6.4-1.1.6-1.6.2-.5.4-.8.6-1.1l.2-.4s0 .2-.1.4c-.1.3-.2.7-.3 1.1-.1.2-.1.5-.2.8-.1.3-.1.6-.2.9-.1.3-.1.6-.2.9-.1.3-.1.6-.1.9-.2 1.3-.1 2.5.1 3.5.1.5.2.9.3 1.1 0 .5.1.6.1.6z" fill="#241510"/></g></svg>