<svg width="120" height="120" viewBox="0 0 120 120" xmlns="http://www.w3.org/2000/svg" xmlns:xlink="http://www.w3.org/1999/xlink"><defs><path d="M7.211 1.202C2.84 2.452 1.453 5.957 1.453 5.957s-1.06 2.466-.204 4.53c0 0 4.595 4.584 17.517 1.891a1.286 1.286 0 0 0 .977-.907C21.371 6.42 17.845 1.088 12.537.658a15.003 15.003 0 0 0-5.326.543" id="a"/><path d="M7.211 1.202C2.84 2.452 1.453 5.957 1.453 5.957s-1.06 2.466-.204 4.53c0 0 4.595 4.584 17.517 1.891a1.286 1.286 0 0 0 .977-.907C21.371 6.42 17.845 1.088 12.537.658a15.003 15.003 0 0 0-5.326.543" id="c"/><path d="M7.211 1.202C2.84 2.452 1.453 5.957 1.453 5.957s-1.06 2.466-.204 4.53c0 0 4.595 4.584 17.517 1.891a1.286 1.286 0 0 0 .977-.907C21.371 6.42 17.845 1.088 12.537.658a15.003 15.003 0 0 0-5.326.543" id="e"/><path d="M7.211 1.202C2.84 2.452 1.453 5.957 1.453 5.957s-1.06 2.466-.204 4.53c0 0 4.595 4.584 17.517 1.891a1.286 1.286 0 0 0 .977-.907C21.371 6.42 17.845 1.088 12.537.658a15.003 15.003 0 0 0-5.326.543" id="g"/><path d="M1.46 11.483c.002.02.008.039.013.057.099.445.439.803.874.937 12.616 3.88 17.617-.26 17.617-.26 1.047-1.974.22-4.53.22-4.53s-1.052-3.615-5.288-5.267a14.893 14.893 0 0 0-5.224-1.034l-.119-.001c-5.277 0-9.236 4.944-8.092 10.098" id="i"/><path d="M1.46 11.483c.002.02.008.039.013.057.099.445.439.803.874.937 12.616 3.88 17.617-.26 17.617-.26 1.047-1.974.22-4.53.22-4.53s-1.052-3.615-5.288-5.267a14.893 14.893 0 0 0-5.224-1.034l-.119-.001c-5.277 0-9.236 4.944-8.092 10.098" id="k"/><path d="M1.46 11.483c.002.02.008.039.013.057.099.445.439.803.874.937 12.616 3.88 17.617-.26 17.617-.26 1.047-1.974.22-4.53.22-4.53s-1.052-3.615-5.288-5.267a14.893 14.893 0 0 0-5.224-1.034l-.119-.001c-5.277 0-9.236 4.944-8.092 10.098" id="m"/><path d="M1.46 11.483c.002.02.008.039.013.057.099.445.439.803.874.937 12.616 3.88 17.617-.26 17.617-.26 1.047-1.974.22-4.53.22-4.53s-1.052-3.615-5.288-5.267a14.893 14.893 0 0 0-5.224-1.034l-.119-.001c-5.277 0-9.236 4.944-8.092 10.098" id="o"/></defs><g fill="none" fill-rule="evenodd"><path d="M74.566 55.713s2.493.167 12.459-1.713c6.153-1.164 13.994-6.807 13.994-6.807l6.96 5.971s-6.402 5.75-12.393 10.502c0 0-13.891 11.63-26.165 7.624 0 0-5.227-9.912 5.145-15.577" fill="#FF83AF"/><path d="M101.909 47.908l-1.337-.603a1.729 1.729 0 0 1-.86-2.287 1.74 1.74 0 0 1 2.294-.86l1.334.601a1.73 1.73 0 0 1 .863 2.29 1.74 1.74 0 0 1-2.294.86" fill="#FFC2A6"/><path d="M109.267 52.859c-2.672 1.906-6.39 1.294-8.301-1.37a5.913 5.913 0 0 1 1.37-8.272 5.966 5.966 0 0 1 8.304 1.37 5.917 5.917 0 0 1-1.373 8.272" fill="#FFC2A6"/><path d="M73.955 69.806c-2.31-.342-4.17-2.097-4.676-4.372-.262-1.179-.427-2.571-.31-4.05-2.171 4.922.452 9.907.452 9.907 9.18 2.997 19.265-2.756 23.764-5.845.02-.014.042-.03.062-.042.139-.095.266-.184.394-.273.045-.034.092-.067.137-.099-5 2.812-12.427 5.868-19.823 4.774" fill="#F0719E"/><path d="M78.825 83.91c0 18.798-11.517 18.511-25.728 18.511-14.207 0-25.728.287-25.728-18.51 0-18.802 11.52-48.934 25.728-48.934 14.21 0 25.728 30.132 25.728 48.934" fill="#FF83AF"/><path d="M53.098 82.014c-9.858 0-18.823-.372-25.512-2.79a53.792 53.792 0 0 0-.216 4.686c0 18.797 11.519 18.512 25.728 18.512 14.21 0 25.728.285 25.728-18.512 0-1.499-.074-3.068-.216-4.686-6.69 2.418-15.654 2.79-25.512 2.79" fill="#E06A94"/><path d="M53.098 97.818c-13.36 0-24.34-1.441-25.605-17.238a52.848 52.848 0 0 0-.123 3.33c0 18.798 11.519 18.511 25.728 18.511 14.21 0 25.728.287 25.728-18.51a54.01 54.01 0 0 0-.122-3.331C77.44 96.377 66.46 97.818 53.098 97.818" fill="#CC5C84"/><path d="M53.098 100.63c-13.968 0-25.328.26-25.71-17.587-.006.29-.018.583-.018.868 0 18.797 11.519 18.51 25.728 18.51 14.21 0 25.728.287 25.728-18.51 0-.285-.012-.579-.018-.868-.38 17.848-11.742 17.586-25.71 17.586" fill="#BF4772"/><path d="M23.882 86.218a46.051 46.051 0 0 1 3.488-2.307s12.109-.536 20.506 18.403c0 0-6.221 2.821-15.217 3.954-6.158.773-11.916-1.291-13.402-7.293-1.186-4.794.623-9.847 4.625-12.757" fill="#CC5C84"/><path d="M32.658 103.616c-6.156.776-11.916-1.29-13.401-7.292a12.707 12.707 0 0 1-.28-1.61 12.26 12.26 0 0 0 .28 4.26c1.485 6.004 7.245 8.068 13.401 7.294 8.996-1.133 15.217-3.955 15.217-3.955-.343-.777-.295-1.012-.648-1.725-2.13.834-7.749 2.17-14.569 3.028" fill="#BF4772"/><path d="M20.068 90.822s-2.575 3.847-.974 11.6c1.024 4.95 6.601 9.069 9.756 9.444 4.215.5 11.656-2.426 10.861-8.094 0 0-4.368-7.31-19.643-12.95" fill="#CC5C84"/><path d="M44.421 106.594c1.409-3.763-3.534-6.862-6.301-3.928-.124.13-.246.27-.37.417-3.966 4.697-9.994 5.583-10.95 9.015-.956 3.436 4.493 11.742 11.609 3.922 3.341-3.674 5.094-6.965 6.012-9.426" fill="#91415E"/><path d="M82.242 86.218a46.011 46.011 0 0 0-3.486-2.307s-12.11-.536-20.51 18.403c0 0 6.225 2.821 15.223 3.954 6.155.773 11.914-1.291 13.4-7.293 1.182-4.794-.624-9.847-4.627-12.757" fill="#CC5C84"/><path d="M86.868 96.323c-1.485 6.002-7.243 8.068-13.4 7.293-6.822-.857-12.274-2.214-14.403-3.048-.354.71-.473.97-.817 1.746 0 0 6.224 2.822 15.22 3.954 6.157.774 11.915-1.29 13.4-7.292.35-1.42.432-2.862.28-4.263a12.17 12.17 0 0 1-.28 1.61" fill="#BF4772"/><path d="M86.054 90.822s2.578 3.847.976 11.6c-1.021 4.95-6.601 9.069-9.755 9.444-4.217.5-12.533-1.168-11.738-6.835 0 0 5.247-8.57 20.517-14.21" fill="#CC5C84"/><path d="M61.702 106.594c-1.408-3.763 3.536-6.862 6.303-3.928.122.13.246.27.37.417 3.966 4.697 9.994 5.583 10.949 9.015.957 3.436-4.492 11.742-11.606 3.922-3.343-3.674-5.095-6.965-6.016-9.426" fill="#91415E"/><path d="M23.862 35.45c-.3 4.078-3.862 7.143-7.958 6.843-4.094-.3-7.168-3.85-6.87-7.93.303-4.078 3.865-7.143 7.96-6.843 4.095.3 7.17 3.851 6.868 7.93" fill="#E3AC94"/><path d="M20.957 34.532c-.183 2.48-2.35 4.344-4.84 4.161-2.489-.183-4.359-2.341-4.177-4.821a4.514 4.514 0 0 1 4.84-4.162 4.507 4.507 0 0 1 4.177 4.822" fill="#CF967E"/><path d="M97.75 40.858c-.3 4.079-3.863 7.144-7.958 6.844-4.095-.3-7.17-3.85-6.868-7.93.301-4.078 3.864-7.143 7.959-6.843 4.093.3 7.167 3.85 6.866 7.93" fill="#E3AC94"/><path d="M94.846 39.94c-.183 2.48-2.351 4.345-4.842 4.162a4.51 4.51 0 0 1-4.175-4.822 4.515 4.515 0 0 1 4.839-4.161 4.51 4.51 0 0 1 4.178 4.821" fill="#CF967E"/><path d="M85.236 15.723c-.526-.758-1.499-1.121-2.717-1.13.792-2.577.566-4.807-.783-5.665-1.14-.725-2.832-.31-4.541.92.583-4.468-.491-8.146-2.875-8.879-2.354-.724-5.275 1.642-7.313 5.567-.847-2.187-2.18-3.593-3.635-3.54-1.41.049-2.605 1.461-3.3 3.586-1.203-1.399-2.557-2.114-3.746-1.78-2.26.632-3.064 4.778-1.799 9.261 1.265 4.482 4.123 7.603 6.38 6.971.723-.203 1.296-.768 1.7-1.586.437.27.898.415 1.372.398a2.35 2.35 0 0 0 1.127-.355c.495 1.56 1.354 2.663 2.545 3.03 1.207.37 2.563-.08 3.872-1.124.012.057.026.115.042.17-.76 1.442-.91 2.792-.264 3.724 1.33 1.925 5.53 1.343 9.376-1.299 3.85-2.641 5.889-6.344 4.56-8.269" fill="#E4C626"/><path d="M57.557 7.799a48.997 48.997 0 0 0-3.379-.125c-.406 1.716-.324 4.003.35 6.39 1.264 4.48 4.122 7.602 6.38 6.97.722-.203 1.295-.768 1.7-1.586.437.27.897.415 1.37.398a2.35 2.35 0 0 0 1.128-.355c.496 1.56 1.354 2.663 2.545 3.03 1.207.37 2.56-.08 3.872-1.125.013.057.027.117.042.17-.76 1.444-.91 2.793-.265 3.725 1.33 1.925 5.53 1.343 9.377-1.298 1.907-1.308 3.366-2.876 4.195-4.359C78.538 13.153 68.776 8.62 57.557 7.8" fill="#C7AD21"/><path d="M90.338 39.61c-1.143 15.476-18.607 26.808-39.01 25.314-20.406-1.495-36.02-15.249-34.878-30.723C17.59 18.728 35.057 7.394 55.46 8.888 75.862 10.38 91.476 24.137 90.337 39.61" fill="#FFC2A6"/><path d="M58.754 59.618c-.122 1.666-2.747 2.834-5.863 2.605-3.117-.228-5.545-1.763-5.421-3.43.122-1.667 2.748-2.833 5.866-2.604 3.116.228 5.542 1.763 5.418 3.43m3.559-45.186c.16 1.983-5.826 4.08-13.37 4.685-7.547.606-13.791-.51-13.952-2.492-.159-1.982 5.826-4.08 13.37-4.685 7.545-.606 13.791.51 13.952 2.492" fill="#FFD1BD"/><path d="M38.659 47.72c3.07 6.254 14.413 6.998 14.413 6.998s11.332.918 15.288-4.824c3.956-5.741-1.143-9.483-5.276-7.569-4.136 1.914-7.333 2.656-9.28 2.513-1.952-.142-5.008-1.342-8.814-3.837-3.81-2.497-9.404.464-6.331 6.72" fill="#BF4545"/><path d="M64.576 44.922c-.014-.687-.458-1.86-.883-2.832-.205.066-.41.142-.61.236a39.97 39.97 0 0 1-3.002 1.247c-.077.751-.054 1.477.234 1.891.767 1.112 4.29.786 4.261-.542" fill="#FFF"/><path d="M53.397 50.33s-5.917-.478-10.692 1.423c4.444 2.576 10.367 2.965 10.367 2.965s5.919.477 10.693-1.423C59.32 50.72 53.397 50.33 53.397 50.33" fill="#FF5C5C"/><path d="M54.089 39.76c5.07.37 4.025-2.68 4.025-2.68s-.003 1.962-3.95 1.675c-3.95-.29-3.66-2.233-3.66-2.233s-1.483 2.867 3.585 3.237" fill="#E3AC94"/><path d="M24.36 34.603c-2.952-.215-5.485 1.531-5.66 3.902-.175 2.37 2.076 4.467 5.027 4.684 2.95.216 5.486-1.532 5.66-3.901.175-2.372-2.076-4.468-5.027-4.685m58.056 4.251c-2.954-.217-5.488 1.529-5.662 3.901-.173 2.37 2.078 4.466 5.027 4.683 2.953.217 5.488-1.53 5.66-3.901.175-2.371-2.074-4.468-5.025-4.683" fill="#FFA6A6"/><path d="M44.727 33.857c1.628-5.05-1.897-10.383-7.204-10.812-1.597-.13-3.39-.01-5.326.543-4.371 1.252-5.76 4.754-5.76 4.754s-1.059 2.468-.202 4.53c0 0 4.595 4.585 17.515 1.891.448-.092.817-.418.959-.85.006-.017.01-.036.018-.056" fill="#FFE3D6"/><g transform="translate(24.985 22.386)"><mask id="b" fill="#fff"><use xlink:href="#a"/></mask><path d="M15.448 8.792c-.077 3.362-2.245 6.04-4.84 5.98-2.596-.06-4.638-2.835-4.56-6.197.078-3.361 2.246-6.038 4.84-5.978 2.598.06 4.639 2.834 4.56 6.195" fill="#74B4C4" mask="url(#b)"/></g><g transform="translate(24.985 22.386)"><mask id="d" fill="#fff"><use xlink:href="#c"/></mask><path d="M13.843 8.756c-.052 2.212-1.48 3.974-3.187 3.936-1.71-.04-3.053-1.867-3.002-4.079.051-2.214 1.478-3.975 3.187-3.935 1.708.038 3.052 1.864 3.002 4.078" fill="#426770" mask="url(#d)"/></g><g transform="translate(24.985 22.386)"><mask id="f" fill="#fff"><use xlink:href="#e"/></mask><path d="M11.078 6.881C10.792 8.364 9.63 9.39 8.484 9.17 7.338 8.95 6.643 7.568 6.93 6.085c.287-1.483 1.449-2.507 2.594-2.287 1.146.22 1.84 1.601 1.554 3.084" fill="#FFF" mask="url(#f)"/></g><g transform="translate(24.985 22.386)"><mask id="h" fill="#fff"><use xlink:href="#g"/></mask><path d="M13.748 11.152c-.196 1.023-.997 1.73-1.788 1.577-.789-.151-1.27-1.103-1.072-2.126.198-1.023 1-1.73 1.789-1.579.792.15 1.27 1.105 1.071 2.128" fill="#FFF" mask="url(#h)"/></g><path d="M61.96 33.87c-1.153-5.194 2.878-10.174 8.213-10.097 1.595.022 3.359.308 5.224 1.032 4.234 1.654 5.289 5.27 5.289 5.27s.824 2.553-.223 4.529c0 0-5.001 4.138-17.617.26a1.286 1.286 0 0 1-.874-.937c-.004-.02-.009-.037-.012-.057" fill="#FFE3D6"/><g transform="translate(60.5 22.386)"><mask id="j" fill="#fff"><use xlink:href="#i"/></mask><path d="M5.985 9.214c-.237 3.356 1.672 6.22 4.26 6.404 2.592.18 4.884-2.393 5.12-5.748.235-3.354-1.672-6.22-4.263-6.4C8.51 3.287 6.22 5.86 5.985 9.214" fill="#74B4C4" mask="url(#j)"/></g><g transform="translate(60.5 22.386)"><mask id="l" fill="#fff"><use xlink:href="#k"/></mask><path d="M7.588 9.327c-.156 2.208 1.101 4.095 2.804 4.214 1.705.12 3.214-1.574 3.368-3.783.158-2.208-1.1-4.094-2.802-4.214-1.707-.118-3.215 1.574-3.37 3.783" fill="#426770" mask="url(#l)"/></g><g transform="translate(60.5 22.386)"><mask id="n" fill="#fff"><use xlink:href="#m"/></mask><path d="M7.196 7.45c-.224 1.494.53 2.844 1.683 3.015 1.154.173 2.272-.898 2.496-2.394.223-1.493-.532-2.844-1.684-3.017-1.151-.17-2.27.9-2.495 2.396" fill="#FFF" mask="url(#n)"/></g><g transform="translate(60.5 22.386)"><mask id="p" fill="#fff"><use xlink:href="#o"/></mask><path d="M11.355 10.954c-.198 1.023.284 1.975 1.072 2.127.79.151 1.592-.555 1.788-1.578.199-1.023-.281-1.976-1.072-2.128-.789-.152-1.59.554-1.788 1.579" fill="#FFF" mask="url(#p)"/></g><path d="M47.876 66.758s4.192 19.058-7.981 17.74c-12.173-1.32-11.858-13.585-.278-20.222l8.26 2.482z" fill="#C08041"/><path d="M37.07 65.997a7.007 7.007 0 0 0 3.942 3.605 7.049 7.049 0 0 0 7.142-1.38 29.616 29.616 0 0 0-.278-1.465l-8.26-2.481a20.927 20.927 0 0 0-2.546 1.721m4.743 14.819c1.094.292 2.04.883 2.858 1.633.329 2.793-.54 7.163-2.664 10.547a1.723 1.723 0 0 1-1.545.79c-.96-.054-2.394-.469-3.621-2.2a1.752 1.752 0 0 1-.232-1.561c.463-1.399 1.918-5.468 1.621-8.853 1.066-.506 2.265-.709 3.583-.356" fill="#AB713A"/><path d="M39.643 90.742c-1.17-.62-2.344-.705-2.621-.185-.277.52.447 1.445 1.618 2.065 1.169.622 2.342.705 2.619.185.278-.519-.444-1.445-1.616-2.065" fill="#85592D"/><path d="M32.496 77.928c-.993-.545-2.086-.777-3.195-.8-2.183 1.782-4.391 4.472-5.22 8.378a1.71 1.71 0 0 0 .565 1.639c.728.623 2.049 1.315 4.138.918a1.762 1.762 0 0 0 1.255-.963c.638-1.326 2.22-4.206 4.788-6.44-.413-1.098-1.138-2.075-2.331-2.732" fill="#AB713A"/><path d="M27.354 85.518c1.275.36 2.179 1.114 2.015 1.68-.16.566-1.327.73-2.6.368-1.277-.362-2.18-1.114-2.017-1.679.16-.566 1.328-.73 2.602-.369" fill="#85592D"/><path d="M35.371 66.852c-3.048-2.444-3.182-5.355-2.785-7.326a38.93 38.93 0 0 1-4.605-2.961c-9.244 1.281-10.432 14.666-2.847 19.61 4.181 2.723 8.5 3.873 8.5 3.873 11.036 3.172 14.668 3.457 14.668 3.457l-.023-8.445s-8.03-4.297-12.908-8.208" fill="#FF83AF"/><path d="M87.025 54a206.88 206.88 0 0 1-4.067.727c-7.18 7.018-18.826 11.135-31.632 10.198-9.082-.666-17.215-3.766-23.344-8.361-.807.11-1.55.321-2.234.604 6.34 6.017 15.727 10.182 26.438 10.967 15.059 1.101 28.508-4.788 34.984-14.168-.048.01-.097.023-.145.032M34.921 78.577s-4.322-1.148-8.503-3.874c-5.4-3.521-6.35-11.318-3.11-15.98-4.683 4.285-4.197 13.526 1.827 17.451 4.181 2.725 8.5 3.874 8.5 3.874 11.034 3.172 14.668 3.457 14.668 3.457l-.005-1.653c-1.867-.31-5.939-1.136-13.377-3.275" fill="#F0719E"/><path d="M49.068 75.548l-.417-1.4A1.732 1.732 0 0 1 49.823 72a1.74 1.74 0 0 1 2.156 1.168l.415 1.399a1.733 1.733 0 0 1-3.326.981" fill="#FFC2A6"/><path d="M50.124 84.331c-3.194-.764-5.163-3.967-4.394-7.149.769-3.186 3.982-5.146 7.177-4.378 3.196.764 5.163 3.966 4.394 7.147-.769 3.186-3.98 5.146-7.177 4.38" fill="#FFC2A6"/><path d="M47.63 67.096s4.344 5.364 1.808 11.634a1.303 1.303 0 0 1-1.051.793c-.726.088-1.856-.033-3.005-1.166a1.333 1.333 0 0 1-.383-1.14c.198-1.357.499-4.79-.892-7.77 0 0 .037-3.824 3.523-2.351" fill="#AB713A"/><path d="M47.366 77.353c-.959-.31-1.848-.216-1.987.209-.137.426.527 1.023 1.487 1.332.957.31 1.85.217 1.987-.21.138-.422-.528-1.02-1.487-1.331" fill="#85592D"/><path d="M38.608 64.276s-6.346-2.75-11.737 1.35a1.29 1.29 0 0 0-.492 1.22c.108.72.525 1.774 1.925 2.577.37.211.816.234 1.206.067 1.262-.553 4.505-1.748 7.756-1.207 0 0 3.69-1.05 1.342-4.007" fill="#AB713A"/><path d="M28.75 67.249c.555.84.7 1.72.324 1.965-.375.246-1.127-.234-1.681-1.073-.556-.84-.701-1.72-.326-1.964.375-.245 1.127.232 1.683 1.072" fill="#85592D"/><path d="M49.616 59.23a2.883 2.883 0 0 1 3.076-2.672 2.877 2.877 0 0 1 2.682 3.065 2.881 2.881 0 0 1-3.074 2.672 2.881 2.881 0 0 1-2.684-3.064" fill="#AB713A"/><path d="M50.748 59.58a1.751 1.751 0 0 1 1.868-1.626 1.75 1.75 0 0 1 1.632 1.864 1.753 1.753 0 0 1-1.871 1.626 1.748 1.748 0 0 1-1.63-1.863" fill="#85592D"/><path d="M37.483 55.06a2.879 2.879 0 0 1 3.075-2.67 2.879 2.879 0 0 1 2.683 3.062 2.884 2.884 0 0 1-3.075 2.674 2.88 2.88 0 0 1-2.683-3.066" fill="#AB713A"/><path d="M38.611 55.411a1.754 1.754 0 0 1 1.872-1.626 1.75 1.75 0 0 1 1.632 1.865 1.754 1.754 0 0 1-1.87 1.626 1.755 1.755 0 0 1-1.634-1.865" fill="#85592D"/><path d="M51.065 63.966c-1.342 3.636-5.386 5.502-9.034 4.165-3.648-1.337-5.519-5.366-4.177-9.002 1.34-3.635 5.384-5.498 9.031-4.163 3.65 1.337 5.52 5.366 4.18 9" fill="#C08041"/><path d="M43.715 62.617c-.138.375-.871.452-1.637.17-.764-.28-1.274-.81-1.135-1.185.138-.374.871-.451 1.637-.173.764.279 1.272.811 1.135 1.188" fill="#4A3119"/><path d="M42.62 62.01c-.048.13-.373.13-.725 0-.355-.13-.602-.338-.554-.47.046-.127.374-.127.726 0 .352.132.6.34.552.47" fill="#FFF"/><path d="M39.392 58.726a1.432 1.432 0 0 1 1.836-.848 1.425 1.425 0 0 1 .849 1.83m3.398 1.244a1.75 1.75 0 0 1 2.244-1.034 1.737 1.737 0 0 1 1.038 2.234m-6.728.378c-.536 1.452-2.647 1.526-3.186.077a2.64 2.64 0 0 1-.15-.674m3.336.597c-.536 1.452 1.024 2.87 2.38 2.112.182-.1.365-.237.55-.414" stroke="#4A3119" stroke-width=".55" stroke-linecap="round" stroke-linejoin="round"/></g></svg>