<svg width="120" height="120" viewBox="0 0 120 120" xmlns="http://www.w3.org/2000/svg" xmlns:xlink="http://www.w3.org/1999/xlink"><defs><path id="a" d="M0 119.575h92.682V0H0z"/></defs><g transform="translate(14)" fill="none" fill-rule="evenodd"><path d="M26.289 26.933V41.91h12.263v-4.656c0-4.21 3.712-7.623 8.29-7.623 4.578 0 8.29 3.414 8.29 7.623v4.656H66.53V26.933H26.289z" fill="#F3D2A5"/><path fill="#EE383C" d="M46.41 0L22.318 21.216v5.717H70.85v-5.717zM35.301 41.912H25.045L6.973 103.077H31.95z"/><path fill="#D83136" d="M6.973 103.077l-3.438 11.638h27.778l.637-11.638z"/><path fill="#C52C30" d="M3.535 114.715H.045v-11.07l3.49-.071L24.19 38.789h2.066v3.123l-.926.07z"/><path fill="#EE383C" d="M.044 103.645l1.999-.674 21.258-64.183h1.102L3.535 103.645z"/><path fill="#D45F26" d="M60.731 103.077l.638 11.638h27.778l-3.438-11.638z"/><path fill="#EA692B" d="M67.637 41.912H57.381l3.35 61.165H85.71z"/><path fill="#D8D423" d="M57.381 41.912h-22.08l-4.428 61.165h30.936z"/><path fill="#C3C021" d="M30.873 103.077l-.843 11.638h32.622l-.842-11.638z"/><path fill="#C15621" d="M89.147 114.715h3.49v-11.07l-3.49-.071-20.655-64.785h-2.065v3.123l.926.07z"/><path fill="#EA692B" d="M92.638 103.645l-1.999-.674-21.257-64.183h-1.104l20.87 64.857z"/><mask id="b" fill="#fff"><use xlink:href="#a"/></mask><path fill="#A7A71B" mask="url(#b)" d="M30.315 119.575H62.58v-4.86H30.315z"/><path fill="#B8511E" mask="url(#b)" d="M62.581 119.575h30.057v-4.86H62.58z"/><path fill="#BB292D" mask="url(#b)" d="M.044 119.575h30.27v-4.86H.045z"/><path fill="#92952E" mask="url(#b)" d="M28.18 119.575h2.563v-4.86H28.18zm33.653 0h2.564v-4.86h-2.564z"/><path fill="#B0AF2A" mask="url(#b)" d="M30.734 114.864h-2.555l1.387-11.942 2.551.155zm31.104-.034l-1.107-11.753h2.609l1.057 11.787z"/><path fill="#C3C021" mask="url(#b)" d="M32.117 103.077H29.56l4.545-65.565h3.528l.944 4.4H36.37zm28.614 0l-4.409-61.165h-2.217l.837-4.4h3.63l4.768 65.565z"/><path fill="#BB292D" mask="url(#b)" d="M0 114.945h3.535V103.61H0z"/><path fill="#B8511E" mask="url(#b)" d="M89.147 114.945h3.535V103.61h-3.535z"/><path fill="#A7A71B" mask="url(#b)" d="M38.577 41.912h-2.171v-4.4h1.227zm17.7 0h-2.172l.676-4.4h1.496z"/></g></svg>