<svg width="120" height="120" viewBox="0 0 120 120" xmlns="http://www.w3.org/2000/svg" xmlns:xlink="http://www.w3.org/1999/xlink"><defs><path id="a" d="M0 119.664h84.756V0H0z"/></defs><g transform="translate(18)" fill="none" fill-rule="evenodd"><path d="M28.586 46.324h7.357v14.981a3.673 3.673 0 0 1-3.678 3.668 3.674 3.674 0 0 1-3.68-3.668v-14.98z" fill="#A6F4FF"/><path d="M33.26 43.541h-.623a2.14 2.14 0 0 0 .359-1.154c0-1.382-1.358-2.5-3.033-2.5-.74 0-1.41.228-1.938.591.027-.216.04-.435.04-.655 0-3.68-3.622-6.664-8.09-6.664-3.397 0-6.3 1.724-7.5 4.165a8.073 8.073 0 0 0-2.671-.445c-3.778 0-6.84 2.522-6.84 5.633 0 .351.044.693.12 1.03h-.401C1.202 43.541 0 44.79 0 46.333c0 1.542 1.202 2.79 2.683 2.79H33.26c1.482 0 2.682-1.248 2.682-2.79 0-1.544-1.2-2.793-2.682-2.793" fill="#A6F4FF"/><path fill="#FFF" d="M40.665 107.481H23.867l3.435-53.666h9.926z"/><path fill="#FF5D42" d="M37.228 53.815h-9.927l-.465 7.284h10.859zm-13.362 53.666h16.798l-.467-7.284H24.334zm.991-15.461h14.817l-.466-7.283H25.323zm.989-15.461h12.838l-.467-7.282H26.312z"/><mask id="b" fill="#fff"><use xlink:href="#a"/></mask><path fill="#603813" mask="url(#b)" d="M20.497 119.664h23.049V107.48H20.497z"/><path fill="#E6E6E6" mask="url(#b)" d="M32.265 69.277v-8.179h-5.43l-.679 10.604.156-2.425zm0 15.46v-8.178h-6.419l-.835 13.033.312-4.855zm0 15.46v-8.178h-7.408l-.99 15.462.466-7.284z"/><path fill="#E6533C" mask="url(#b)" d="M32.265 53.815H27.3l-.465 7.284h5.429zm-7.932 46.382l-.467 7.284h8.399v-7.284zm7.932-15.46h-6.942l-.312 4.855-.154 2.428h7.408zm0-15.46h-5.953l-.156 2.425-.31 4.857h6.419z"/><path fill="#376B73" mask="url(#b)" d="M35.259 119.664H63.73v-29.01H35.26z"/><path fill="#315F66" mask="url(#b)" d="M34.428 90.654H64.56V88.78H34.428z"/><path d="M65.182 18.213H75.36v20.722a5.08 5.08 0 0 1-5.089 5.075c-2.81 0-5.089-2.273-5.089-5.075V18.213z" fill="#84C3CC" mask="url(#b)"/><path d="M71.65 14.362h-.863c.307-.481.497-1.019.497-1.597 0-1.91-1.88-3.457-4.195-3.457a4.727 4.727 0 0 0-2.68.817c.035-.297.056-.6.056-.905 0-5.091-5.012-9.22-11.192-9.22-4.7 0-8.715 2.386-10.377 5.763a11.163 11.163 0 0 0-3.694-.615c-5.224 0-9.461 3.487-9.461 7.79 0 .487.06.961.165 1.424h-.556c-2.048 0-3.708 1.728-3.708 3.865 0 2.132 1.66 3.86 3.708 3.86h42.3c2.05 0 3.71-1.728 3.71-3.86 0-2.137-1.66-3.865-3.71-3.865" fill="#84C3CC" mask="url(#b)"/><path fill="#FFF" mask="url(#b)" d="M81.89 102.81H58.654l4.753-74.235h13.731z"/><path fill="#FF5D42" mask="url(#b)" d="M77.138 28.575h-13.73l-.646 10.075h15.022zM58.654 102.81H81.89l-.644-10.074H59.3zm1.37-21.388H80.52l-.645-10.073H60.669zm1.37-21.385h17.758l-.645-10.073H62.04z"/><path fill="#603813" mask="url(#b)" d="M55.789 119.664h28.967V102.81H55.789z"/><path fill="#E6E6E6" mask="url(#b)" d="M70.272 49.964V38.65h-7.51l-.94 14.667.217-3.354zm0 21.385V60.036h-8.878l-1.155 18.03.43-6.717zm0 21.387V81.423H60.024l-1.37 21.388.647-10.075z"/><path fill="#E6533C" mask="url(#b)" d="M70.272 28.575h-6.865l-.644 10.075h7.509zM59.3 92.736l-.646 10.075h11.618V92.736zm10.972-21.387h-9.603l-.43 6.717-.215 3.356h10.248zm0-21.385h-8.233l-.216 3.354-.43 6.718h8.879z"/></g></svg>