<svg width="100" height="100" viewBox="0 0 100 100" xmlns="http://www.w3.org/2000/svg" xmlns:xlink="http://www.w3.org/1999/xlink"><defs><path id="a" d="M20.126 31.4H.123V.19h20.003z"/><path d="M.733 3.625a.737.737 0 0 0-.549.959l5.939 18.844c.137.435.61.71 1.056.614l5.368-1.152 1.616-.347 5.224-1.121a.925.925 0 0 0 .711-.994L17.778.807a.735.735 0 0 0-.735-.665.803.803 0 0 0-.17.018l-4.694 1.007L.733 3.625z" id="c"/><path d="M14.332.027l.166 1.4a.928.928 0 0 1-.533.935l-12.572 2.7a.93.93 0 0 1-.87-.634L.099 3.083 14.332.027z" id="e"/><path d="M16.362.724l.375 3.175.684 6.721-14.01 3.16L.04 3.255s4.756.77 8.005-1.718C9.42.483 11.133.179 12.65.179c1.848 0 3.406.451 3.71.545z" id="g"/><path d="M16.413.157l.87 7.36c.108 1.184.179 2.028.179 2.028L3.419 12.799 2.344 9.652.047 2.364c.675-.215 3.31-.815 7.625 1.058C12.719 5.615 16.02.936 16.309.092c.011-.033.024-.049.036-.049.021 0 .044.04.068.114z" id="i"/><path d="M9.07 1.504C10.22.434 11.407.077 12.478.077c2.154 0 3.842 1.446 3.842 1.446l.666 6.36L2.98 10.89S-.113 1.615.21 2.124c.324.509 5.394 2.601 8.86-.62z" id="k"/><path d="M6.784 24.113a.62.62 0 0 1-.578-.422L.1 4.32a.492.492 0 0 1 .373-.64L17.143.1a.49.49 0 0 1 .603.431l2.384 20.17a.343.343 0 0 1 .004.056v.02a.619.619 0 0 1-.479.586l-5.76 1.237-1.08.231L6.91 24.1a.573.573 0 0 1-.114.013h-.012z" id="m"/><path d="M.611.196a.551.551 0 1 0 .231 1.078.551.551 0 0 0-.23-1.078z" id="o"/><path d="M.6.027a.55.55 0 1 0 .231 1.077.55.55 0 0 0-.23-1.077z" id="q"/><path d="M.423.078a.321.321 0 1 0 .135.629.321.321 0 0 0-.135-.629z" id="s"/><path d="M.434.035a.321.321 0 1 0 .134.629.321.321 0 0 0-.134-.629z" id="u"/><path d="M.478.113a.551.551 0 1 0 .23 1.078.551.551 0 0 0-.23-1.078z" id="w"/><path d="M.465.03a.46.46 0 1 0 .194.9.46.46 0 0 0-.194-.9z" id="y"/><path d="M.482.038a.551.551 0 1 0 .232 1.078A.551.551 0 0 0 .482.038z" id="A"/><path d="M17.15.1L.472 3.68a.491.491 0 0 0-.377.621v.001l.006.02L6.205 23.69l.005.013.007.02a.622.622 0 0 0 .567.389h.008a.53.53 0 0 0 .119-.013l5.76-1.237 1.08-.231 5.905-1.268a.619.619 0 0 0 .474-.663L17.746.533A.49.49 0 0 0 17.15.1z" id="C"/><path id="E" d="M.026.529L3.793 12.47l1.093-.228L2.407.017z"/></defs><g fill="none" fill-rule="evenodd"><path d="M20.242 75.684c.64 6.51 4.44 11.595 8.922 12.368v.001l.025.003c.436.074.878.104 1.324.093 1.371.04 3.566-.052 5.51-.825.016-.006.029-.013.045-.02 4.439-1.641 7.251-7.7 6.457-14.41-.718-6.066-4.167-10.777-8.249-11.891a2.534 2.534 0 0 0-.701-.158l-.022-.002a6.917 6.917 0 0 0-1.44-.087c-3.292-.059-5.43.864-5.43.864l-.003.005c-4.28 1.65-7.086 7.477-6.438 14.059" fill="#3E3F41"/><path d="M82.88 80.375c-.197 1.43-1.45 2.507-3.01 2.585-3.405.17-10.995.37-26.808.17-15.813-.202-23.39-.596-26.785-.851-1.555-.117-2.787-1.224-2.954-2.657-.227-1.95-.41-5.321-.205-10.925.194-5.284.58-8.342.922-10.09.266-1.358 1.526-2.378 3.036-2.466 3.114-.18 10.219-.355 26.258-.093 15.981.262 23.095.586 26.228.803 1.529.106 2.795 1.166 3.034 2.547.305 1.771.626 4.833.713 10.055.092 5.598-.161 8.97-.43 10.922" fill="#2F9AD4"/><path d="M24.782 71.454L10.455 59.481c-2.787-2.33-3.173-6.679-.883-9.708l.166-.22c2.276-3.012 6.355-3.598 9.132-1.315l14.27 11.734" fill="#2F9AD4"/><path d="M73.896 35.195l8.906 3.36c.58.292.955.973.943 1.71l-.033 3.95 2.396 1.118.238 5.534-6.748.578-10.59-1.714 4.888-14.536z" fill="#8B8B8B"/><path d="M75.166 61.84l-1.409-.267c-.768-.146-1.313-.79-1.217-1.437l.726-4.893.721-4.857c.094-.635.787-1.034 1.548-.892l1.394.262c.762.142 1.304.773 1.212 1.41l-1.412 9.763c-.093.649-.793 1.057-1.563.91" fill="#C97F38"/><path d="M73.748 61.571l-.695-.132c-.38-.072-.61-.655-.513-1.303l.726-4.893.721-4.857c.094-.635.475-1.093.85-1.022l.689.128c.376.071.605.643.511 1.279l-1.43 9.757c-.095.647-.48 1.115-.859 1.043" fill="#D58830"/><path d="M65.22 35.464s5.072-1.384 8.513-.378c.493.144.84.611.836 1.144l-.084 9.447c-.004.407.281.76.664.82l3.91.624c.391.063.686.42.688.838l.015 2.7c.003.405-.304.729-.688.724l-13.91-.172.057-15.747z" fill="#58595B"/><path d="M70.808 80.222c-.167 1.43-1.178 2.51-2.425 2.592-2.723.178-8.791.398-21.431.237-12.64-.16-18.696-.535-21.408-.782-1.242-.113-2.22-1.216-2.342-2.649-.167-1.95-.29-5.32-.084-10.923.194-5.284.525-8.343.812-10.091.222-1.359 1.237-2.382 2.445-2.473 2.49-.188 8.172-.382 20.994-.159 12.773.222 18.457.528 20.96.737 1.22.102 2.225 1.16 2.406 2.54.232 1.77.465 4.83.496 10.05.033 5.597-.195 8.97-.423 10.921" fill="#4CC0FF"/><path d="M68.155 59.265l-38.342-.477c-2.446-.03-4.373-2.187-4.282-4.782l.593-16.963c.087-2.505 2.113-4.522 4.503-4.492l37.445.455c2.39.029 4.362 2.096 4.38 4.603l.121 16.98c.019 2.598-1.97 4.706-4.418 4.676" fill="#8B8B8B"/><path d="M41.92 40.967a6.721 6.721 0 0 1-6.721-6.72v-18.82a6.721 6.721 0 1 1 13.442 0v18.82a6.721 6.721 0 0 1-6.721 6.72" fill="#FFF"/><path d="M41.92 42.696a4.24 4.24 0 0 1-4.24-4.241V26.58a4.24 4.24 0 0 1 8.48 0v11.874a4.24 4.24 0 0 1-4.24 4.24" fill="#F2A7BD"/><path d="M59.202 40.967a6.721 6.721 0 0 1-6.72-6.72v-18.82a6.721 6.721 0 1 1 13.441 0v18.82a6.721 6.721 0 0 1-6.72 6.72" fill="#FFF"/><path d="M59.202 42.696a4.24 4.24 0 0 1-4.24-4.241V26.58a4.24 4.24 0 0 1 8.481 0v11.874a4.24 4.24 0 0 1-4.24 4.24" fill="#F2A7BD"/><path d="M66.72 59.315l-37.532-.467c-2.446-.03-4.372-2.187-4.28-4.782l.605-17.03c.089-2.505 2.116-4.522 4.505-4.493l36.653.446c2.39.029 4.36 2.095 4.374 4.603l.1 17.047c.015 2.597-1.976 4.706-4.424 4.676" fill="#323232"/><path d="M36.698 35.597c-.335-.004-2.503-.276-3.302-.286-5.18-.063-9.54 4.29-9.743 9.77-.205 5.536 3.902 10.118 9.176 10.183.145.002 3.328-.213 3.375-.212 5.142.064 9.385-4.3 9.478-9.7.09-5.347-3.932-9.694-8.984-9.755" fill="#868585"/><path d="M42.62 45.315c-.11 5.55-4.485 10.037-9.77 9.971-5.286-.065-9.402-4.657-9.197-10.204.203-5.493 4.573-9.855 9.764-9.792 5.19.064 9.312 4.53 9.203 10.025" fill="#636465"/><path d="M41.476 45.3c-.102 4.878-3.95 8.817-8.592 8.76-4.642-.058-8.262-4.089-8.087-8.964.174-4.833 4.017-8.675 8.586-8.62 4.57.056 8.193 3.99 8.093 8.825" fill="#FFF"/><path d="M25.418 45.628c.17-4.838 4.014-8.683 8.585-8.627a7.9 7.9 0 0 1 4.716 1.632c-1.418-1.32-3.279-2.131-5.336-2.156-4.57-.056-8.413 3.786-8.586 8.619-.107 2.983 1.209 5.65 3.314 7.285-1.737-1.653-2.788-4.075-2.693-6.753" fill="#515252"/><path d="M63.362 45.99c-.006 5.557-4.3 10.05-9.59 9.984-5.29-.065-9.495-4.663-9.394-10.217.1-5.5 4.392-9.866 9.587-9.803 5.196.063 9.403 4.535 9.397 10.037" fill="#888"/><path d="M57.255 36.225c-.336-.004-2.51-.276-3.31-.285-5.184-.063-9.466 4.294-9.566 9.781-.1 5.542 4.095 10.129 9.372 10.195.146.001 3.326-.213 3.374-.213 5.145.064 9.31-4.305 9.3-9.71-.008-5.354-4.114-9.706-9.17-9.768" fill="#868585"/><path d="M63.362 45.99c-.006 5.557-4.3 10.05-9.59 9.984-5.29-.065-9.495-4.663-9.394-10.217.1-5.5 4.392-9.866 9.587-9.803 5.196.063 9.403 4.535 9.397 10.037" fill="#888"/><path d="M67.844 59.786a5.761 5.761 0 1 1-11.522 0 5.761 5.761 0 0 1 11.522 0" fill="#FFB0CA"/><path d="M62.216 45.977c-.01 4.883-3.786 8.826-8.433 8.769-4.646-.058-8.343-4.093-8.26-8.975.084-4.839 3.858-8.685 8.43-8.63 4.574.056 8.274 3.995 8.263 8.836" fill="#FFF"/><path d="M46.09 46.257c.081-4.843 3.855-8.693 8.43-8.637a8.037 8.037 0 0 1 4.749 1.634c-1.444-1.322-3.32-2.133-5.38-2.158-4.572-.056-8.346 3.79-8.43 8.628-.051 2.987 1.315 5.657 3.452 7.294-1.769-1.655-2.865-4.08-2.82-6.76" fill="#515252"/><path d="M30.75 44.683c.214-3.054 2.267-5.42 4.586-5.3 2.32.12 4.047 2.682 3.856 5.738m10.031.486c.156-3.057 2.164-5.426 4.484-5.305 2.32.12 4.094 2.684 3.96 5.742" stroke="#323232" stroke-width="2.112" stroke-linecap="round" stroke-linejoin="round"/><path d="M83.768 59.385l-.973-.184c-.53-.1-.91-.543-.848-.989l.473-3.375.472-3.359c.062-.44.539-.716 1.066-.617l.966.18c.528.1.906.536.846.977l-.928 6.74c-.062.447-.542.727-1.074.627" fill="#C97F38"/><path d="M80.407 44.398s14.846 1.103 5.213 5.894c-6.632 3.298-15.955 8.273.747 8.742" stroke="#3E3F41" stroke-width="2" stroke-linecap="round" stroke-linejoin="round"/><path d="M92.728 63.89l-14.903 7.404-2.463-11.77 14.762-7.25c1.345-.66 2.715.04 3.06 1.565l1.366 6.027c.35 1.547-.464 3.35-1.822 4.025" fill="#2F9AD4"/><path d="M61.968 63.873c-.001.704-.535 1.268-1.192 1.26-.657-.008-1.187-.586-1.183-1.29.003-.702.536-1.264 1.192-1.256.655.008 1.185.584 1.183 1.286" fill="#2381A9"/><path d="M46.09 46.257c.081-4.843 3.855-8.693 8.43-8.637a8.037 8.037 0 0 1 4.749 1.634c-1.444-1.322-3.32-2.133-5.38-2.158-4.572-.056-8.346 3.79-8.43 8.628-.051 2.987 1.315 5.657 3.452 7.294-1.769-1.655-2.865-4.08-2.82-6.76" fill="#515252"/><path d="M78.736 71.842l-18.277.6c-3.729.121-6.848-3.036-6.965-7.027-.116-3.963 2.775-7.252 6.457-7.371l18.046-.584c3.677-.12 6.84 2.97 7.066 6.927.229 3.984-2.603 7.333-6.327 7.455" fill="#2F9AD4"/><g transform="matrix(-1 0 0 1 97.2 60.184)"><mask id="b" fill="#fff"><use xlink:href="#a"/></mask><path d="M20.09 15.252c.469 8.697-3.689 15.978-9.28 16.145C5.232 31.564.46 24.584.14 15.924-.176 7.39 3.962.397 9.39.194c5.443-.204 10.237 6.487 10.7 15.058" fill="#3E3F41" mask="url(#b)"/></g><path d="M73.56 75.316c-.497 8.704 3.647 15.991 9.248 16.159 5.586.166 10.389-6.819 10.735-15.485.342-8.54-3.783-15.539-9.22-15.742-5.453-.204-10.275 6.491-10.764 15.068" fill="#3E3F41"/><path fill="#3E3F41" d="M86.018 91.57l-3.702-.11 1.528-31.23 3.603.135z"/><path d="M84.94 75.837c-.284 5.994 1.736 10.968 4.511 11.054 2.771.086 5.205-4.738 5.438-10.72.23-5.92-1.788-10.757-4.508-10.855-2.724-.1-5.16 4.587-5.442 10.52" fill="#959595"/><path fill="#959595" d="M89.266 86.886l-1.837-.057.966-21.585 1.804.065z"/><path d="M83.173 75.778c-.292 5.996 1.722 10.972 4.5 11.058 2.774.086 5.217-4.74 5.458-10.723.24-5.923-1.773-10.762-4.496-10.86-2.726-.1-5.172 4.589-5.462 10.525" fill="#CCCECD"/><path d="M86.74 75.97c-.061 1.329.523 2.428 1.305 2.454.782.026 1.462-1.032 1.52-2.359.057-1.324-.527-2.417-1.306-2.444-.778-.027-1.459 1.024-1.52 2.35" fill="#3E3F41"/><path d="M65.276 78.337c0 .722.54 1.314 1.206 1.323.665.008 1.202-.57 1.2-1.292-.001-.721-.54-1.312-1.205-1.32-.664-.008-1.201.568-1.2 1.29" fill="#0079AC"/><path d="M43.646 71.386c2.968 0 5.328-4.232 6.01-10.752.126-1.2-.005-2.44-.357-3.399-.352-.956-.878-1.505-1.443-1.505h-8.302c-.565 0-1.095.549-1.454 1.505-.36.96-.5 2.198-.384 3.4.633 6.519 2.962 10.75 5.93 10.75" fill="#2F9AD4"/><path d="M46.878 71.784c-.93 1.256-2.032 1.95-3.232 1.95-1.201 0-2.297-.694-3.218-1.95h-.611c1.03 1.86 2.35 2.912 3.829 2.912 1.478 0 2.806-1.052 3.85-2.912h-.618z" fill="#007CB2"/><path d="M47.623 64.57a5.77 5.77 0 0 0-5.747 6.275c.555.353 1.148.54 1.77.54 2.29 0 4.216-2.519 5.29-6.663a5.777 5.777 0 0 0-1.313-.152" fill="#095D7A"/><path d="M30.59 59.786a5.761 5.761 0 1 1-11.522 0 5.761 5.761 0 0 1 11.522 0" fill="#FFB0CA"/><path d="M36.567 74.5s-2.125 2.644-7.157 3.978c-4.524 1.2-2.924-3.651-1.469-2.714 1.303.839 2.598.805 2.71-1.552.05-1.07-.725-1.853-1.865-2.292a6.77 6.77 0 0 0-11.103-6.9 6.77 6.77 0 1 0-7.361 11.23 6.77 6.77 0 0 0 12.271 5.715c.209.109.43.213.663.312 4.85 2.05 11.675-.862 13.31-7.778m3.529-.921s.354 4.69-3.862 7.744c0 0-6.05 3.733-4.97 4.902 3.57 3.87 9.79-5.605 8.832-12.646" fill="#FFF"/><g transform="matrix(-1 0 0 1 23 31.784)"><mask id="d" fill="#fff"><use xlink:href="#c"/></mask><path fill="#EEFEFE" mask="url(#d)" d="M22.63 21.195l-18.5 3.972-4.668-21.74 18.5-3.97z"/></g><g transform="matrix(-1 0 0 1 17.4 50.784)"><mask id="f" fill="#fff"><use xlink:href="#e"/></mask><path fill="#EF476E" mask="url(#f)" d="M19.684 1.604L-4.281 6.75l-.656-3.056 23.965-5.145z"/></g><g transform="matrix(-1 0 0 1 20.6 40.184)"><mask id="h" fill="#fff"><use xlink:href="#g"/></mask><path fill="#FFBBC4" mask="url(#h)" d="M19.064 10.889L1.996 14.553-.63 2.33l17.07-3.665z"/></g><g transform="matrix(-1 0 0 1 20.6 41.184)"><mask id="j" fill="#fff"><use xlink:href="#i"/></mask><path fill="#FE6775" mask="url(#j)" d="M18.99 9.926L1.805 13.615-.68 2.03l17.183-3.689z"/></g><g transform="matrix(-1 0 0 1 20.2 42.984)"><mask id="l" fill="#fff"><use xlink:href="#k"/></mask><path fill="#EF476E" mask="url(#l)" d="M18.2 8.092L1.752 11.623l-2.119-9.87 16.448-3.53z"/></g><g transform="matrix(-1 0 0 1 23 31.784)"><mask id="n" fill="#fff"><use xlink:href="#m"/></mask><path d="M17.746.533a.492.492 0 0 0-.603-.431L.474 3.68a.492.492 0 0 0-.373.641l6.105 19.37c.091.29.406.473.704.41l5.905-1.269 1.08-.231 5.76-1.237a.616.616 0 0 0 .475-.663L17.746.533z" stroke="#EEFEFE" stroke-width=".894" mask="url(#n)"/></g><g transform="matrix(-1 0 0 1 12.2 44.384)"><mask id="p" fill="#fff"><use xlink:href="#o"/></mask><path fill="#FF7B99" mask="url(#p)" d="M1.927 1.51l-1.976.425L-.473-.04l1.976-.424z"/></g><g transform="matrix(-1 0 0 1 10.4 42.384)"><mask id="r" fill="#fff"><use xlink:href="#q"/></mask><path fill="#FF7B99" mask="url(#r)" d="M1.916 1.341l-1.976.425L-.484-.21l1.976-.425z"/></g><g transform="matrix(-1 0 0 1 9.4 46.384)"><mask id="t" fill="#fff"><use xlink:href="#s"/></mask><path fill="#FF7B99" mask="url(#t)" d="M1.418.992l-1.527.328-.327-1.527L1.09-.535z"/></g><g transform="matrix(-1 0 0 1 14.8 47.584)"><mask id="v" fill="#fff"><use xlink:href="#u"/></mask><path fill="#FF848F" mask="url(#v)" d="M1.429.95l-1.527.327L-.426-.25l1.527-.328z"/></g><g transform="matrix(-1 0 0 1 12.2 47.784)"><mask id="x" fill="#fff"><use xlink:href="#w"/></mask><path fill="#FF7B99" mask="url(#x)" d="M1.794 1.428l-1.977.424-.424-1.976L1.37-.548z"/></g><g transform="matrix(-1 0 0 1 16.2 43.184)"><mask id="z" fill="#fff"><use xlink:href="#y"/></mask><path fill="#FF8994" mask="url(#z)" d="M1.653 1.185l-1.796.386L-.53-.225l1.796-.386z"/></g><g transform="matrix(-1 0 0 1 12.4 40.384)"><mask id="B" fill="#fff"><use xlink:href="#A"/></mask><path fill="#FF7B99" mask="url(#B)" d="M1.798 1.353l-1.976.424-.424-1.976 1.976-.424z"/></g><g transform="matrix(-1 0 0 1 23 31.784)"><mask id="D" fill="#fff"><use xlink:href="#C"/></mask><path d="M.101 4.321a.492.492 0 0 1 .373-.64L17.143.1a.492.492 0 0 1 .603.432L20.13 20.7a.617.617 0 0 1-.474.663l-5.905 1.268-1.08.231-5.76 1.237a.617.617 0 0 1-.705-.41L.1 4.322z" stroke="#EEFEFE" stroke-width=".894" mask="url(#D)"/></g><g transform="matrix(-1 0 0 1 20.6 36.584)"><mask id="F" fill="#fff"><use xlink:href="#E"/></mask><path fill="#FFF" mask="url(#F)" d="M2.291 13.269l3.28-.704L2.76-.528-.52.176z"/></g><path d="M2.862 30.07l.195-.613c.14-.445 1.025-.777 2.07-.777h1.702" stroke="#FFF" stroke-width="1.267" stroke-linecap="round" stroke-linejoin="round"/></g></svg>