<svg xmlns="http://www.w3.org/2000/svg" version="1.1" id="Layer_1" x="0" y="0" width="91.001" height="54.672" viewBox="27.169 40.82 91.001 54.672" xml:space="preserve"><defs><style/></defs><linearGradient id="SVGID_1_" gradientUnits="userSpaceOnUse" x1="27.17" y1="75.844" x2="118.17" y2="75.844" gradientTransform="matrix(1 0 0 -1 0 144)"><stop offset=".012" stop-color="#a7a9ac"/><stop offset="1" stop-color="#414042"/></linearGradient><path fill="url(#SVGID_1_)" d="M118.17 86.887a8.606 8.606 0 0 1-8.605 8.605H35.773a8.605 8.605 0 0 1-8.604-8.605V49.424a8.604 8.604 0 0 1 8.604-8.604h73.791a8.603 8.603 0 0 1 8.605 8.604v37.463h.001z"/><linearGradient id="SVGID_2_" gradientUnits="userSpaceOnUse" x1="30.583" y1="75.845" x2="114.756" y2="75.845" gradientTransform="matrix(1 0 0 -1 0 144)"><stop offset="0" stop-color="#d1d2d3"/><stop offset="1" stop-color="#a4a5a8"/></linearGradient><path fill="url(#SVGID_2_)" d="M109.564 44.233H35.773a5.196 5.196 0 0 0-5.19 5.19v37.463a5.196 5.196 0 0 0 5.19 5.19h73.791a5.195 5.195 0 0 0 5.191-5.19V49.424a5.196 5.196 0 0 0-5.191-5.191z"/></svg>