<svg width="120" height="120" viewBox="0 0 120 120" xmlns="http://www.w3.org/2000/svg" xmlns:xlink="http://www.w3.org/1999/xlink"><defs><path id="a" d="M0 .34h76.025v105.434H0z"/><path id="c" d="M.966.829h86.369v87.277H.965z"/></defs><g fill="none" fill-rule="evenodd"><path d="M41.127 102.207c-7.886.156-16.372-3.889-25.12-13.938C7.502 78.502-7.517 58.212 9 48.761c13.674-7.82 24.972 5.806 32.524 15.228-3.574-4.46 12.902-35.86 15.885-40.205 7.878-11.47 28.768-23.933 30.088-.41 1.478 26.33-18.78 78.29-46.369 78.833" fill="#47B5C4"/><g transform="translate(0 1.804)"><mask id="b" fill="#fff"><use xlink:href="#a"/></mask><path d="M70.585 59.733C75.343 46.157 84.857-1.654 56.535.403c-32.99 2.416-18.242 75.568-8.179 90.515-7.535-11.19-17.377-26.197-32.668-25.893C-3.28 65.403-3.251 86.052 6.27 95.69c12.866 13.025 41.485 15.515 51.258-5.097 4.8-10.125 9.344-20.268 13.056-30.859" fill="#57D3DD" mask="url(#b)"/></g><g transform="translate(32 31.554)"><mask id="d" fill="#fff"><use xlink:href="#c"/></mask><path d="M84.94 29.96c-16.343 8.756-32.67 17.559-48.4 27.383C49.745 39.6 64.767 23.163 74.352 3c.948-1.996-2.293-3.11-3.231-1.136C61.02 23.112 44.64 40.185 31 59.106c-.135.083-.271.156-.405.264A493407.3 493407.3 0 0 0 2.217 82.099c-3.46 2.772.996 7.982 4.435 5.225l28.38-22.729c1.09-.873 1.393-1.986 1.192-3.018C52.506 51.295 69.452 42.142 86.423 33.05c1.942-1.04.467-4.136-1.483-3.09" fill="#D09A6F" mask="url(#d)"/></g></g></svg>