<svg width="480" height="360" viewBox="0 0 480 360" xmlns="http://www.w3.org/2000/svg" xmlns:xlink="http://www.w3.org/1999/xlink" style="background:#fff"><defs><path id="a" d="M.35.001h411.383v213.283H.349z"/><path id="c" d="M.227.29h35.601v98.887H.228z"/><path id="e" d="M.988 361.192h880.167V.296H.988z"/></defs><g fill="none" fill-rule="evenodd"><path fill="#37474F" d="M-394.936 360.278H485.23V-.617h-880.166z"/><g transform="translate(-395.925 -.914)"><path fill="#FFF" opacity=".05" d="M881.154.297L740.438 361.19H628.407L776.711.297zm-153.402 0L564.706 361.19h-58.382L687.303.297zm-185.146 0L363.07 361.19H243.006L431.024.297zm-134.149 0L222.881 361.19h-25.495L378.364.297z"/><path d="M748.513 320.507L538.214 162.214a20.877 20.877 0 0 0-2.195-1.435c-1.56-.895-3.315-1.662-5.208-2.3-4.727-1.597-10.309-2.395-15.892-2.395-5.582 0-11.162.798-15.89 2.395-1.891.638-3.646 1.405-5.208 2.3-.782.447-1.517.924-2.195 1.435l-22.63 17.035-187.67 141.258c-11.728 8.829 1.482 20.394 23.294 20.394h420.6c21.812 0 35.021-11.565 23.293-20.394" fill="#003027"/><g transform="translate(469.422 103.52)"><mask id="b" fill="#fff"><use xlink:href="#a"/></mask><path d="M544.538 189.749L301.85 7.079a24.083 24.083 0 0 0-2.528-1.66c-1.805-1.032-3.83-1.915-6.013-2.653C287.856.924 281.412.001 274.97.001c-6.441 0-12.883.923-18.34 2.765-2.18.738-4.207 1.621-6.01 2.654-.9.517-1.747 1.069-2.53 1.66l-26.115 19.656L5.401 189.75c-13.532 10.19 1.71 23.535 26.884 23.535h485.373c25.17 0 40.416-13.346 26.88-23.535" fill="#003027" mask="url(#b)"/></g><path d="M384.449 278.534l37.002-11.994s123.812-6.715 125.236-6.537c1.423.176 63.013-3.92 63.013-3.92l177.023-4.282 67.302 13.368v40.55l-471.949-13.282 2.373-13.903z" fill="#004136"/><g transform="translate(845.326 209.873)"><mask id="d" fill="#fff"><use xlink:href="#c"/></mask><path d="M.89 79.755l13.62-23.589h-3.585c-2.892 0-4.701-3.13-3.255-5.637L20.273 28.7h-3.486c-2.013 0-3.27-2.176-2.262-3.916L27.909 1.598A2.588 2.588 0 0 1 30.173.29c.879 0 1.76.435 2.263 1.308L45.82 24.783c1.007 1.74-.251 3.916-2.263 3.916H40.07l12.604 21.83c1.445 2.507-.36 5.637-3.254 5.637h-3.584l13.617 23.589c1.884 3.258-.469 7.334-4.234 7.334H35.605v12.088H24.74V87.089H5.125c-3.764 0-6.117-4.076-4.236-7.334" fill="#004136" mask="url(#d)"/></g><path d="M818.76 271.934l13.825-23.944h-3.638c-2.938 0-4.772-3.176-3.305-5.72l12.792-22.158h-3.537c-2.04 0-3.319-2.21-2.298-3.979l13.586-23.531a2.628 2.628 0 0 1 2.298-1.326c.893 0 1.788.442 2.297 1.326l13.586 23.531c1.021 1.77-.255 3.98-2.298 3.98h-3.539l12.794 22.157c1.469 2.544-.367 5.72-3.304 5.72h-3.636l13.822 23.944c1.91 3.31-.477 7.446-4.298 7.446h-19.909v12.268H842.97V279.38h-19.91c-3.822 0-6.211-4.136-4.3-7.446" fill="#004136"/><path d="M771.658 250.295l13.822-23.942h-3.636c-2.938 0-4.773-3.178-3.304-5.721l12.792-22.159h-3.538c-2.042 0-3.319-2.21-2.297-3.977l13.585-23.533a2.632 2.632 0 0 1 2.298-1.326c.893 0 1.788.444 2.298 1.326l13.585 23.533c1.022 1.768-.256 3.977-2.297 3.977h-3.54l12.794 22.159c1.467 2.543-.366 5.72-3.304 5.72h-3.638l13.824 23.943c1.91 3.31-.478 7.447-4.3 7.447h-19.908v12.267h-11.03v-12.267h-19.908c-3.821 0-6.209-4.137-4.298-7.447" fill="#004136"/><path d="M716.325 267.536l13.823-23.944h-3.637c-2.937 0-4.773-3.178-3.304-5.721L736 215.714h-3.537c-2.043 0-3.32-2.211-2.298-3.979l13.586-23.531a2.628 2.628 0 0 1 2.297-1.326c.893 0 1.788.442 2.298 1.326l13.586 23.531c1.021 1.768-.257 3.98-2.298 3.98h-3.539l12.794 22.156c1.467 2.543-.367 5.72-3.304 5.72h-3.639l13.825 23.945c1.91 3.31-.479 7.447-4.3 7.447H751.56v12.265h-11.029v-12.265h-19.908c-3.822 0-6.21-4.137-4.299-7.447" fill="#004136"/><path d="M693.317 229.385l12.124-21.001h-3.189c-2.576 0-4.186-2.787-2.899-5.017l11.22-19.435h-3.102c-1.792 0-2.91-1.94-2.015-3.49l11.917-20.64a2.304 2.304 0 0 1 2.015-1.164c.783 0 1.566.389 2.013 1.164l11.917 20.64c.897 1.55-.223 3.49-2.013 3.49h-3.106l11.222 19.435c1.287 2.23-.321 5.017-2.9 5.017h-3.19l12.126 21.001c1.676 2.903-.42 6.532-3.77 6.532h-17.464v10.76h-9.672v-10.76h-17.463c-3.352 0-5.447-3.63-3.771-6.532" fill="#004136"/><path d="M665.222 249.251l12.124-21.001h-3.19c-2.575 0-4.185-2.79-2.897-5.017l11.22-19.435h-3.103c-1.791 0-2.91-1.94-2.015-3.49l11.915-20.641a2.307 2.307 0 0 1 2.017-1.165c.783 0 1.566.389 2.014 1.165l11.917 20.641c.897 1.55-.224 3.49-2.015 3.49h-3.105l11.222 19.435c1.288 2.228-.322 5.017-2.899 5.017h-3.19l12.126 21.001c1.676 2.901-.42 6.53-3.772 6.53h-17.462v10.76h-9.673v-10.76h-17.462c-3.352 0-5.448-3.629-3.772-6.53M596.4 269.119l10.507-18.201h-2.763c-2.234 0-3.63-2.415-2.512-4.348l9.724-16.842h-2.692c-1.55 0-2.522-1.68-1.746-3.026l10.327-17.887a2.001 2.001 0 0 1 1.748-1.009 2 2 0 0 1 1.746 1.009l10.327 17.887c.776 1.346-.193 3.026-1.746 3.026h-2.69l9.724 16.842c1.115 1.933-.279 4.348-2.51 4.348h-2.765l10.509 18.201c1.452 2.516-.365 5.66-3.27 5.66h-15.135v9.325H614.8v-9.324h-15.133c-2.907 0-4.72-3.145-3.268-5.661" fill="#004136"/><path d="M557.537 263.342l13.103-22.699h-3.447c-2.784 0-4.524-3.01-3.132-5.422l12.128-21.005h-3.356c-1.936 0-3.146-2.098-2.178-3.774l12.881-22.308a2.486 2.486 0 0 1 2.177-1.256 2.49 2.49 0 0 1 2.178 1.256l12.88 22.308c.966 1.676-.242 3.774-2.178 3.774h-3.354l12.128 21.005c1.392 2.411-.35 5.422-3.132 5.422h-3.45l13.104 22.7c1.814 3.137-.453 7.059-4.074 7.059H590.94v11.627h-10.454v-11.627H561.61c-3.621 0-5.886-3.922-4.074-7.06" fill="#004136"/><path d="M529.075 282.759l10.324-17.88h-2.718c-2.191 0-3.563-2.375-2.466-4.273l9.555-16.547h-2.644c-1.526 0-2.477-1.652-1.714-2.973l10.145-17.574a1.963 1.963 0 0 1 1.715-.992c.67 0 1.335.332 1.716.992l10.146 17.574c.763 1.32-.189 2.973-1.715 2.973h-2.644l9.556 16.547c1.096 1.898-.276 4.272-2.469 4.272h-2.715l10.323 17.88c1.427 2.472-.355 5.562-3.21 5.562h-14.868v9.161h-8.239v-9.16h-14.867c-2.855 0-4.637-3.09-3.21-5.562" fill="#004136"/><path d="M487.805 289.255l10.323-17.882h-2.717c-2.193 0-3.563-2.372-2.466-4.272l9.553-16.547h-2.644c-1.524 0-2.477-1.652-1.715-2.973l10.146-17.574a1.965 1.965 0 0 1 1.715-.992c.669 0 1.336.332 1.718.992l10.146 17.574c.762 1.32-.191 2.973-1.715 2.973h-2.644l9.553 16.547c1.097 1.9-.273 4.272-2.466 4.272h-2.717l10.323 17.882c1.427 2.472-.355 5.56-3.21 5.56H514.12v9.161h-8.237v-9.16h-14.867c-2.855 0-4.638-3.089-3.211-5.56" fill="#004136"/><path d="M450.936 277.492l12.124-20.999h-3.19c-2.575 0-4.185-2.789-2.898-5.019l11.22-19.433h-3.102c-1.791 0-2.91-1.94-2.015-3.49l11.915-20.64a2.306 2.306 0 0 1 2.015-1.164c.785 0 1.568.389 2.016 1.165l11.915 20.64c.897 1.549-.224 3.489-2.014 3.489h-3.104l11.222 19.433c1.287 2.23-.323 5.019-2.899 5.019h-3.19l12.126 21c1.676 2.902-.42 6.53-3.772 6.53H481.84v10.76h-9.671v-10.76h-17.462c-3.352 0-5.448-3.628-3.772-6.53" fill="#004136"/><path d="M426.295 293.225l12.124-21h-3.19c-2.575 0-4.185-2.79-2.898-5.018l11.22-19.435h-3.104c-1.79 0-2.91-1.94-2.013-3.488l11.917-20.641a2.304 2.304 0 0 1 2.013-1.165c.783 0 1.568.389 2.016 1.165l11.917 20.641c.895 1.548-.224 3.488-2.017 3.488h-3.103l11.22 19.435c1.288 2.228-.322 5.017-2.897 5.017h-3.19l12.124 21.001c1.676 2.901-.418 6.53-3.772 6.53h-17.46v10.76h-9.673v-10.76h-17.464c-3.35 0-5.446-3.629-3.77-6.53" fill="#004136"/><path d="M399.636 308.32l12.124-21.002h-3.19c-2.575 0-4.185-2.789-2.898-5.017l11.22-19.435h-3.104c-1.79 0-2.91-1.94-2.013-3.49l11.915-20.64a2.306 2.306 0 0 1 2.015-1.164c.785 0 1.568.389 2.015 1.165l11.916 20.64c.896 1.549-.224 3.489-2.014 3.489h-3.104l11.22 19.435c1.287 2.228-.322 5.017-2.897 5.017h-3.19l12.124 21.001c1.676 2.901-.42 6.53-3.77 6.53H430.54v10.76h-9.671v-10.76h-17.464c-3.35 0-5.446-3.629-3.77-6.53m-24.848-18.222l6.392-11.072h-1.681c-1.359 0-2.208-1.47-1.53-2.644l5.918-10.246h-1.637a1.227 1.227 0 0 1-1.062-1.842l6.282-10.882c.237-.407.65-.613 1.064-.613.412 0 .825.206 1.061.613l6.282 10.882a1.227 1.227 0 0 1-1.061 1.842h-1.638l5.916 10.246c.678 1.174-.169 2.644-1.528 2.644h-1.681l6.392 11.072c.884 1.53-.22 3.444-1.988 3.444h-9.207v5.673h-5.099v-5.673h-9.207c-1.766 0-2.872-1.915-1.988-3.444" fill="#004136"/><path d="M446.137 282.171v15.878h3.777v-15.104a9.793 9.793 0 0 1-3.777-.774" fill="#AD6B3E"/><path d="M449.914 298.05h3.777v-15.878a9.8 9.8 0 0 1-3.777.774v15.104z" fill="#955C34"/><path d="M449.914 217.274v65.67a9.798 9.798 0 0 0 3.777-.772c5.686-2.367 9.85-9.942 9.85-18.929 0-10.88-6.102-45.969-13.627-45.969" fill="#007E6C"/><path d="M449.914 217.274c-7.526 0-13.628 35.09-13.628 45.969 0 8.987 4.162 16.562 9.85 18.93a9.798 9.798 0 0 0 3.778.771v-65.67z" fill="#00997B"/><path d="M512.264 276.883v23.063h5.484v-21.94c-1.903 0-3.742-.397-5.484-1.123" fill="#AD6B3E"/><path d="M517.749 299.946h5.486v-23.062c-1.744.724-3.581 1.122-5.486 1.122v21.94z" fill="#955C34"/><path d="M517.749 182.615v95.39c1.905 0 3.742-.396 5.486-1.122 8.263-3.438 14.308-14.442 14.308-27.494 0-15.805-8.862-66.774-19.794-66.774" fill="#007E6C"/><path d="M517.749 182.615c-10.93 0-19.793 50.97-19.793 66.774 0 13.052 6.046 24.056 14.308 27.494 1.742.726 3.581 1.122 5.485 1.122v-95.39z" fill="#00997B"/><path d="M761.286 280.753v19.193h4.564v-18.258c-1.584 0-3.113-.332-4.564-.935" fill="#AD6B3E"/><path d="M765.85 299.946h4.565v-19.193c-1.45.603-2.98.935-4.564.935v18.258z" fill="#955C34"/><path d="M765.85 202.299v79.389c1.585 0 3.114-.332 4.565-.935 6.876-2.86 11.908-12.02 11.908-22.88 0-13.156-7.374-55.574-16.472-55.574" fill="#007E6C"/><path d="M765.85 202.299c-9.096 0-16.471 42.418-16.471 55.573 0 10.861 5.031 20.02 11.908 22.88 1.45.604 2.98.936 4.564.936v-79.39z" fill="#00997B"/><mask id="f" fill="#fff"><use xlink:href="#e"/></mask><path fill="#AD6B3E" mask="url(#f)" d="M824.034 298.05h8.141v-18.12h-8.141z"/><path fill="#955C34" mask="url(#f)" d="M832.177 298.05h8.143v-18.12h-8.143z"/><path d="M876.072 268.936l-20.416-35.359h5.374c4.335 0 7.047-4.694 4.878-8.45l-18.892-32.721h5.226c3.014 0 4.901-3.266 3.392-5.875l-20.064-34.756a3.885 3.885 0 0 0-3.393-1.958V279.93h37.547c5.642 0 9.17-6.108 6.348-10.995" fill="#007E6C" mask="url(#f)"/><path d="M832.177 149.817a3.883 3.883 0 0 0-3.393 1.958L808.72 186.53c-1.507 2.611.376 5.877 3.394 5.877h5.224l-18.892 32.722c-2.167 3.755.54 8.45 4.88 8.45h5.37l-20.412 35.358c-2.824 4.887.704 10.995 6.346 10.995h37.547V149.817z" fill="#00997B" mask="url(#f)"/><path fill="#AD6B3E" mask="url(#f)" d="M713.628 298.05h6.596v-14.672h-6.596z"/><path fill="#955C34" mask="url(#f)" d="M720.224 298.05h6.594v-14.672h-6.594z"/><path d="M755.767 274.475l-16.53-28.633h4.35c3.51 0 5.707-3.801 3.95-6.843l-15.298-26.497h4.232c2.443 0 3.969-2.644 2.747-4.758l-16.248-28.142a3.14 3.14 0 0 0-2.747-1.586v105.362h30.403c4.57 0 7.428-4.948 5.141-8.903" fill="#007E6C" mask="url(#f)"/><path d="M720.224 178.015a3.14 3.14 0 0 0-2.747 1.586l-16.248 28.144c-1.222 2.112.306 4.758 2.748 4.758h4.23L692.91 239c-1.756 3.04.44 6.841 3.952 6.841h4.35l-16.533 28.633c-2.285 3.957.572 8.904 5.142 8.904h30.404V178.015z" fill="#00997B" mask="url(#f)"/><path fill="#AD6B3E" mask="url(#f)" d="M571.01 298.05h5.475v-12.184h-5.475z"/><path fill="#955C34" mask="url(#f)" d="M576.485 298.05h5.475v-12.184h-5.475z"/><path d="M606 278.474l-13.727-23.776h3.613c2.915 0 4.738-3.156 3.28-5.679l-12.702-22.002h3.514c2.026 0 3.295-2.197 2.28-3.954l-13.492-23.366a2.61 2.61 0 0 0-2.28-1.319v87.489h25.246c3.793 0 6.166-4.108 4.268-7.393" fill="#007E6C" mask="url(#f)"/><path d="M576.486 198.379a2.61 2.61 0 0 0-2.281 1.318l-13.492 23.367c-1.013 1.757.254 3.952 2.282 3.952h3.514l-12.702 22.002c-1.46 2.525.363 5.68 3.279 5.68h3.614l-13.73 23.776c-1.895 3.286.476 7.393 4.27 7.393h25.246V198.38z" fill="#00997B" mask="url(#f)"/><path d="M426.461 271.952l-18.3-31.697h4.816c3.887 0 6.317-4.207 4.373-7.573l-16.934-29.332h4.685c2.703 0 4.392-2.928 3.04-5.268l-17.986-31.152a3.478 3.478 0 0 0-3.04-1.757v116.635h33.655c5.059 0 8.22-5.475 5.691-9.856" fill="#007E6C" mask="url(#f)"/><path fill="#004136" mask="url(#f)" d="M-2.404 361.192h887.846v-69.746H-2.404z"/><path d="M422.76 348.938c0 1.793-14.055 3.245-31.394 3.245-17.34 0-31.395-1.452-31.395-3.245 0-1.794 14.055-3.246 31.395-3.246 17.339 0 31.394 1.452 31.394 3.246" fill="#003027" mask="url(#f)"/><path d="M391.367 348.938v-17.286c6.15 0 10.606 5.31 10.606 7.534 0 0 6.843-.11 8.83 4.77 0 0 7.928-1.068 8.777 4.982h-28.213z" fill="#007E6C" mask="url(#f)"/><path d="M516.755 303.606c0 1.427-11.193 2.584-24.997 2.584-13.806 0-24.998-1.157-24.998-2.584 0-1.426 11.192-2.584 24.998-2.584 13.804 0 24.997 1.158 24.997 2.584" fill="#003027" mask="url(#f)"/><path d="M491.759 303.606v-13.763c-4.9 0-8.444 4.226-8.444 6 0 0-5.45-.089-7.033 3.797 0 0-6.313-.85-6.988 3.966h22.465z" fill="#00997B" mask="url(#f)"/><path d="M491.759 303.606v-13.763c4.897 0 8.444 4.226 8.444 6 0 0 5.448-.089 7.03 3.797 0 0 6.313-.85 6.988 3.966H491.76z" fill="#007E6C" mask="url(#f)"/><path d="M818.311 345.868c0 1.686-13.21 3.05-29.504 3.05-16.296 0-29.504-1.364-29.504-3.05 0-1.683 13.208-3.049 29.504-3.049 16.294 0 29.504 1.366 29.504 3.05" fill="#003027" mask="url(#f)"/><path d="M788.808 345.868v-16.242c-5.78 0-9.968 4.987-9.968 7.078 0 0-6.431-.103-8.3 4.483 0 0-7.448-1.003-8.246 4.681h26.514z" fill="#00997B" mask="url(#f)"/><path d="M788.808 345.868v-16.242c5.78 0 9.968 4.987 9.968 7.078 0 0 6.43-.103 8.299 4.483 0 0 7.448-1.003 8.246 4.681h-26.513z" fill="#007E6C" mask="url(#f)"/><path d="M828.99 309.732c0 1.1-8.623 1.99-19.256 1.99-10.636 0-19.256-.89-19.256-1.99s8.62-1.99 19.256-1.99c10.633 0 19.255.89 19.255 1.99" fill="#003027" mask="url(#f)"/><path d="M809.734 309.732v-10.6c-3.774 0-6.506 3.254-6.506 4.619 0 0-4.197-.066-5.417 2.926 0 0-4.86-.654-5.382 3.055h17.305z" fill="#00997B" mask="url(#f)"/><path d="M809.734 309.732v-10.6c3.773 0 6.506 3.254 6.506 4.619 0 0 4.195-.066 5.415 2.926 0 0 4.86-.654 5.383 3.055h-17.304z" fill="#007E6C" mask="url(#f)"/><path d="M564.866 135.76h-47.069c-9.033 0-4.912-9.51 0-8.875 0 0-.158-9.508 9.984-7.289 0 0 1.11-9.984 11.729-9.667 10.617.317 11.726 11.244 10.776 12.91 0 0 9.348-3.243 11.252 5.947 0 0 4.912-.16 5.704 2.06.794 2.218-.157 4.914-2.376 4.914m146.089-72.688H639.26c-13.76 0-7.483-14.485 0-13.518 0 0-.24-14.484 15.209-11.105 0 0 1.688-15.208 17.863-14.726 16.173.484 17.864 17.128 16.415 19.67 0 0 14.24-4.944 17.138 9.056 0 0 7.483-.242 8.692 3.14 1.206 3.379-.242 7.483-3.622 7.483M401.388 89.511h90.562c17.381 0 9.45-18.296 0-17.077 0 0 .304-18.292-19.21-14.024 0 0-2.134-19.21-22.565-18.6-20.429.61-22.563 21.633-20.733 24.842 0 0-17.99-6.242-21.65 11.444 0 0-9.453-.306-10.977 3.963-1.526 4.269.304 9.452 4.573 9.452m377.58 4.628h60.603c11.63 0 6.326-12.244 0-11.426 0 0 .203-12.243-12.856-9.388 0 0-1.427-12.855-15.099-12.447-13.672.408-15.1 14.478-13.877 16.627 0 0-12.038-4.18-14.486 7.656 0 0-6.326-.205-7.346 2.653-1.021 2.855.202 6.325 3.06 6.325" fill="#0E6566" mask="url(#f)"/><path d="M872.335 336.922c0 1.443-7.93 2.615-17.713 2.615-9.783 0-17.714-1.172-17.714-2.615 0-1.445 7.93-2.617 17.714-2.617 9.782 0 17.713 1.172 17.713 2.617" fill="#003027" mask="url(#f)"/><path d="M850.838 321.588v15.91h3.782v-15.134a9.795 9.795 0 0 1-3.782-.776" fill="#AD6B3E" mask="url(#f)"/><path d="M854.621 337.497h3.783v-15.91a9.755 9.755 0 0 1-3.783.777v15.133z" fill="#955C34" mask="url(#f)"/><path d="M854.621 256.56v65.804a9.788 9.788 0 0 0 3.783-.776c5.701-2.372 9.87-9.962 9.87-18.965 0-10.903-6.113-46.062-13.653-46.062" fill="#007E6C" mask="url(#f)"/><path d="M854.621 256.56c-7.54 0-13.653 35.16-13.653 46.063 0 9.003 4.17 16.593 9.87 18.965a9.785 9.785 0 0 0 3.783.776v-65.803z" fill="#00997B" mask="url(#f)"/><path d="M460.959 338.129c0 1.445-7.935 2.617-17.723 2.617s-17.724-1.172-17.724-2.617 7.936-2.618 17.724-2.618 17.723 1.173 17.723 2.618" fill="#003027" mask="url(#f)"/><path d="M439.45 322.788v15.916h3.785v-15.142a9.836 9.836 0 0 1-3.785-.774" fill="#AD6B3E" mask="url(#f)"/><path d="M443.236 338.704h3.785v-15.916a9.795 9.795 0 0 1-3.785.773v15.143z" fill="#955C34" mask="url(#f)"/><path d="M443.236 257.725v65.836a9.795 9.795 0 0 0 3.785-.774c5.702-2.372 9.876-9.968 9.876-18.976 0-10.907-6.117-46.086-13.661-46.086" fill="#007E6C" mask="url(#f)"/><path d="M443.236 257.725c-7.546 0-13.66 35.179-13.66 46.086 0 9.008 4.173 16.604 9.875 18.976a9.8 9.8 0 0 0 3.785.774v-65.836z" fill="#00997B" mask="url(#f)"/><path fill="#FFF" mask="url(#f)" d="M603.362 142.762l1.02 3.832 3.83 1.02-3.83 1.017-1.02 3.833-1.02-3.833-3.831-1.017 3.83-1.02zM735.88 36.44l1.021 3.833 3.83 1.02-3.83 1.017-1.021 3.832-1.02-3.832-3.83-1.018 3.83-1.02zm-215.132-2.75l1.02 3.832 3.832 1.02-3.832 1.018-1.02 3.832-1.02-3.832-3.83-1.018 3.83-1.02zm332.542 90.37l1.02 3.832 3.83 1.02-3.83 1.017-1.02 3.833-1.02-3.833-3.831-1.018 3.83-1.02zm9.25-115.275l1.021 3.832 3.83 1.02-3.83 1.017-1.021 3.833-1.02-3.833-3.83-1.017 3.83-1.02z"/><path d="M587.382 344.296c0 2.492-16.112 4.515-35.988 4.515-19.875 0-35.986-2.023-35.986-4.515 0-2.494 16.111-4.514 35.986-4.514 19.876 0 35.988 2.02 35.988 4.514m202.255-37.714c0 3.926-50.276 7.11-112.293 7.11-62.019 0-112.295-3.184-112.295-7.11s50.276-7.109 112.295-7.109c62.017 0 112.293 3.183 112.293 7.11" fill="#003027" mask="url(#f)"/><path d="M551.405 332.562h19.426a2.976 2.976 0 0 1 .605 5.888h-20.03v-5.888z" fill="#A86736" mask="url(#f)"/><path d="M531.374 338.45a2.976 2.976 0 0 1 .605-5.888h19.426v5.888h-20.03zm40.062 0h2.989a2.974 2.974 0 1 1 0 5.948h-23.02v-5.948h20.031z" fill="#8C552B" mask="url(#f)"/><path d="M528.384 338.45h23.022v5.948h-23.022a2.975 2.975 0 0 1 0-5.948" fill="#764720" mask="url(#f)"/><path d="M551.405 332.562v-38.574s-21.087 13.705-12.997 38.574h12.997z" fill="#EB4023" mask="url(#f)"/><path d="M551.405 332.562v-31.173s-.785 4.546-4.8 7.825c-4.02 3.278-5.71 9.516-3.385 12.054 2.327 2.538-2.538 6.832 1.27 11.294h6.915z" fill="#F2851E" mask="url(#f)"/><path d="M551.405 332.562v-38.574s21.087 13.705 12.997 38.574h-12.997z" fill="#ED5B22" mask="url(#f)"/><path d="M551.405 332.562v-31.173s.785 4.546 4.8 7.825c4.02 3.278 5.71 9.516 3.386 12.054-2.327 2.538 2.537 6.832-1.271 11.294h-6.915z" fill="#F59E1B" mask="url(#f)"/><path fill="#CB743C" mask="url(#f)" d="M727.01 206.106l51.415 100.088H673.538L624.18 206.106z"/><path fill="#FFD93A" mask="url(#f)" d="M708.874 241.411l15.143 29.479h-30.893l-14.537-29.479z"/><path fill="#CB743C" mask="url(#f)" d="M696.876 241.411l15.145 29.479h-5.349l-14.537-29.479z"/><path fill="#EA995E" mask="url(#f)" d="M624.18 206.106l51.414 100.088h-32.22l-19.195-59.64z"/><path fill="#CB743C" mask="url(#f)" d="M624.18 206.106l-51.415 100.088h32.22l19.194-59.64z"/><path d="M624.18 246.552l19.194 59.64s13.025-7.54 12.34-21.593c0 0-24.68-23.65-31.535-38.047" fill="#ED5B22" mask="url(#f)"/><path d="M624.18 246.552l-19.196 59.64s-13.024-7.54-12.338-21.593c0 0 24.679-23.65 31.533-38.047" fill="#EB4023" mask="url(#f)"/><path fill="#FEBE10" mask="url(#f)" d="M624.18 246.552v59.64h-19.196z"/><path fill="#FFD93A" mask="url(#f)" d="M643.374 306.194h-19.195v-59.64z"/><path fill="#CB743C" mask="url(#f)" d="M682.906 258.436h38.34v-4.57h-38.34z"/><path d="M701.527 316.232c0 1.48-11.598 2.68-25.904 2.68-14.309 0-25.905-1.2-25.905-2.68 0-1.48 11.596-2.677 25.905-2.677 14.306 0 25.904 1.198 25.904 2.677" fill="#003027" mask="url(#f)"/><path d="M675.623 316.232V301.97c-5.078 0-8.75 4.379-8.75 6.214 0 0-5.65-.088-7.29 3.939 0 0-6.538-.882-7.239 4.11h23.279z" fill="#00997B" mask="url(#f)"/><path d="M675.623 316.232V301.97c5.075 0 8.75 4.379 8.75 6.214 0 0 5.648-.088 7.287 3.939 0 0 6.54-.882 7.241 4.11h-23.278z" fill="#007E6C" mask="url(#f)"/><path d="M752.965 324.41c0 1.42-7.8 2.571-17.42 2.571-9.621 0-17.42-1.151-17.42-2.57 0-1.42 7.799-2.571 17.42-2.571 9.62 0 17.42 1.151 17.42 2.57" fill="#003027" mask="url(#f)"/><path fill="#AD6B3E" mask="url(#f)" d="M731.43 324.41h4.114v-9.153h-4.115z"/><path fill="#955C34" mask="url(#f)" d="M735.544 324.41h4.113v-9.153h-4.113z"/><path d="M757.72 309.702l-10.314-17.864h2.714c2.192 0 3.561-2.371 2.465-4.269l-9.545-16.532h2.643c1.522 0 2.473-1.649 1.712-2.97L737.26 250.51a1.96 1.96 0 0 0-1.715-.99v65.736h18.97c2.851 0 4.632-3.084 3.207-5.554" fill="#007E6C" mask="url(#f)"/><path d="M735.545 249.52c-.668 0-1.335.332-1.715.99l-10.136 17.557c-.763 1.32.19 2.97 1.714 2.97h2.639l-9.544 16.532c-1.097 1.897.273 4.268 2.464 4.268h2.714l-10.314 17.864c-1.425 2.47.357 5.556 3.208 5.556h18.97V249.52z" fill="#00997B" mask="url(#f)"/></g></g></svg>