<svg width="480" height="360" viewBox="0 0 480 360" xmlns="http://www.w3.org/2000/svg" xmlns:xlink="http://www.w3.org/1999/xlink"><defs><path id="a" d="M0 .247h466.548v214.994H0z"/><path id="c" d="M0 .307h453.384v214.196H0z"/><path id="e" d="M0 .328h466.549v204.207H0z"/><path id="g" d="M.105.342H273.64v275.816H.105z"/></defs><g fill="none" fill-rule="evenodd"><path fill="#27A9E0" d="M-20 360h517V-2H-20z"/><path d="M159.692 84.378l-.303-.011c.087-.317.149-.64.161-.983a4.195 4.195 0 0 0-4.043-4.343 4.159 4.159 0 0 0-2.285.59c-.804-2.761-3.282-4.836-6.303-4.944a6.85 6.85 0 0 0-7.09 6.604c-.03.835.118 1.639.362 2.395a5.245 5.245 0 0 0-4.292 2.046 4.292 4.292 0 0 0-4.384-1.568 7.438 7.438 0 0 0-5.94-3.064c.383-1.06.634-2.191.634-3.377 0-5.37-4.347-9.722-9.712-9.722-2.98 0-5.633 1.362-7.406 3.491a11.749 11.749 0 0 0-9.443-4.912c.604-1.673 1.002-3.458 1.002-5.329 0-8.474-6.861-15.342-15.329-15.342-6.764 0-12.472 4.44-14.495 10.553a9.306 9.306 0 0 0-5.065-1.503c-5.178 0-9.392 4.195-9.392 9.392 0 .764.112 1.492.283 2.21h-.681c-6.502 0-11.784 5.272-11.784 11.772s5.282 11.761 11.784 11.761h34.625A7.466 7.466 0 0 0 97.898 96h27.593c.362 0 .717-.035 1.065-.085.474.292 1.028.47 1.624.493l12.32.443a3.337 3.337 0 0 0 3.356-2.52l15.459.554a5.26 5.26 0 0 0 5.45-5.062 5.265 5.265 0 0 0-5.073-5.445" fill="#A0CBD5"/><path d="M163.115 90.432l-.444-.016c.129-.465.219-.94.237-1.44a6.148 6.148 0 0 0-5.925-6.366 6.09 6.09 0 0 0-3.351.864c-1.178-4.048-4.81-7.088-9.238-7.247-5.54-.2-10.192 4.135-10.392 9.68-.044 1.224.173 2.402.53 3.51a7.691 7.691 0 0 0-6.291 2.998 6.29 6.29 0 0 0-4.77-2.462 6.28 6.28 0 0 0-1.656.164 10.902 10.902 0 0 0-8.707-4.49c.562-1.554.93-3.212.93-4.95 0-7.87-6.372-14.25-14.236-14.25-4.367 0-8.256 1.996-10.854 5.117-3.098-4.317-8.14-7.142-13.842-7.2.886-2.452 1.469-5.068 1.469-7.81 0-12.421-10.057-22.489-22.468-22.489-9.916 0-18.282 6.508-21.246 15.468a13.64 13.64 0 0 0-7.425-2.202c-7.59 0-13.767 6.148-13.767 13.765 0 1.12.165 2.188.416 3.24h-.999c-9.53 0-17.272 7.727-17.272 17.255 0 9.527 7.742 17.239 17.272 17.239h50.752c1.048 4.947 5.445 8.657 10.704 8.657h40.443c.532 0 1.05-.051 1.561-.124a4.87 4.87 0 0 0 2.381.721l18.059.65a4.892 4.892 0 0 0 4.918-3.695l22.66.813c4.254.155 7.834-3.166 7.987-7.42.153-4.253-3.18-7.826-7.436-7.98" fill="#BEE6F4"/><path d="M488.561 89.492l-.309-.011a4.31 4.31 0 0 0 .165-1.002 4.276 4.276 0 0 0-4.122-4.428 4.24 4.24 0 0 0-2.33.6c-.82-2.814-3.346-4.93-6.426-5.04a6.985 6.985 0 0 0-7.229 6.734c-.03.851.12 1.67.37 2.442a5.348 5.348 0 0 0-4.377 2.085 4.376 4.376 0 0 0-3.318-1.713 4.394 4.394 0 0 0-1.152.115 7.582 7.582 0 0 0-6.057-3.124c.392-1.08.648-2.235.648-3.443 0-5.474-4.432-9.912-9.902-9.912-3.038 0-5.744 1.388-7.55 3.559a11.982 11.982 0 0 0-9.629-5.009c.617-1.705 1.021-3.525 1.021-5.432 0-8.64-6.995-15.643-15.628-15.643-6.897 0-12.717 4.527-14.778 10.76a9.486 9.486 0 0 0-5.165-1.532c-5.279 0-9.576 4.277-9.576 9.575 0 .78.115 1.521.29 2.253h-.695c-6.629 0-12.015 5.375-12.015 12.002 0 6.627 5.386 11.992 12.015 11.992h35.302a7.613 7.613 0 0 0 7.446 6.021h28.131c.37 0 .731-.035 1.087-.086.483.297 1.048.48 1.655.502l12.561.451a3.404 3.404 0 0 0 3.422-2.57l15.761.566a5.363 5.363 0 0 0 5.557-5.16 5.368 5.368 0 0 0-5.173-5.552" fill="#A0CBD5"/><path d="M479.813 103.046l-.453-.017a6.31 6.31 0 0 0 .243-1.469 6.27 6.27 0 0 0-6.042-6.49 6.216 6.216 0 0 0-3.416.881c-1.201-4.126-4.905-7.227-9.42-7.388-5.648-.204-10.39 4.215-10.594 9.87-.045 1.247.176 2.448.541 3.578a7.843 7.843 0 0 0-6.415 3.057 6.413 6.413 0 0 0-4.863-2.51 6.425 6.425 0 0 0-1.689.167c-2.005-2.744-5.228-4.541-8.877-4.579.574-1.583.95-3.274.95-5.046 0-8.024-6.498-14.529-14.516-14.529-4.453 0-8.418 2.036-11.067 5.217-3.158-4.4-8.298-7.282-14.112-7.34.903-2.5 1.497-5.168 1.497-7.964 0-12.664-10.252-22.928-22.907-22.928-10.11 0-18.64 6.635-21.661 15.77a13.907 13.907 0 0 0-7.57-2.245c-7.738 0-14.037 6.269-14.037 14.035 0 1.142.169 2.23.424 3.303h-1.018c-9.716 0-17.61 7.878-17.61 17.592 0 9.714 7.894 17.576 17.61 17.576h51.744c1.068 5.044 5.551 8.827 10.914 8.827h41.234c.542 0 1.071-.052 1.592-.127a4.969 4.969 0 0 0 2.427.736l18.412.661a4.988 4.988 0 0 0 5.015-3.766l23.102.829c4.338.159 7.988-3.228 8.144-7.565.155-4.336-3.243-7.98-7.582-8.136" fill="#BEE6F4"/><path d="M497 53.712V259.41c-21.09 17.15-49.197 27.616-80.06 27.616-65.461 0-132.36-47.081-132.36-105.159S388.06 53.712 497 53.712M60.06 76.708c-30.863 0-58.97 10.467-80.06 27.617V259.41c21.09 17.15 49.197 27.616 80.06 27.616 65.462 0 151.306-47.081 151.306-105.16 0-58.077-85.844-105.159-151.305-105.159" fill="#15729B"/><g transform="translate(-20 144.759)"><mask id="b" fill="#fff"><use xlink:href="#a"/></mask><path d="M243.464 14.048C209.637 5.099 173.401.248 135.72.248 87.429.248 41.516 8.218 0 22.566V215.24h466.55c-22.47-94.36-109.1-171.039-223.087-201.192" fill="#51B84F" mask="url(#b)"/></g><g transform="translate(-20 145.497)"><mask id="d" fill="#fff"><use xlink:href="#c"/></mask><path d="M362.353 68.244c-3.854 5.16-8.249 10.209-12.666 14.552-15.529 15.27-37.95 17.816-58.494 16.33-17.992-1.302-33.866-9.599-52.063-9.78-16.13-.162-33.203 6.735-49.125 2.25-14.727-4.148-23.74-23.165-32.132-34.713C150.4 46.6 142.2 40.846 130.543 35.979 112.56 28.47 111.736 15.662 109.377.307 70.72 2.653 33.893 10.113 0 21.827v159.566c24.918 15.584 55.392 22.188 84.47 28.53 6.469 1.41 12.903 2.987 19.333 4.58h275.369c8.614-3.737 17.207-7.7 26.199-10.431 13.627-4.14 28.45-12.51 40.079-20.66a36.127 36.127 0 0 0 7.934-7.546c-18.643-41.641-50.25-78.506-91.031-107.622" fill="#53AC4E" mask="url(#d)"/></g><g transform="translate(-20 155.465)"><mask id="f" fill="#fff"><use xlink:href="#e"/></mask><path d="M466.549 204.535c-6.428-26.998-18.111-52.546-34.181-75.972-6.244 4.9-11.292 12.283-18.384 15.886-14.798 7.518-28.147 2.964-43.586 4.32-16.804 1.475-29.369 16.387-46.483 18.532-11.179 1.4-23.788-.232-34.977-.758-11.025-.519-22.826-1.01-33.357-4.43-17.363-5.641-31.208-15.62-47.715-22.279-18.476-7.451-40.33.008-59.377-4.306-19.1-4.326-24.801-19.41-35.878-32.722-11.71-14.072-29.27-15.683-45.606-21.788C47.689 73.8 43.562 58.45 40.069 39.132c-1.935-10.705 2.08-27.292.064-38.804A397.529 397.529 0 0 0 0 11.858v192.677h466.549z" fill="#48A046" mask="url(#f)"/></g><g transform="translate(223.36 83.841)"><mask id="h" fill="#fff"><use xlink:href="#g"/></mask><path d="M234.722.342C143.482.342 60.725 28.784.105 74.966 114.09 105.119 200.72 181.797 223.189 276.158h50.452V2.087A433.058 433.058 0 0 0 234.72.342" fill="#48A046" mask="url(#h)"/></g><path d="M497 141.256c-11.668 11.172-23.21 22.511-37.288 30.68-14.246 8.267-29.674 12.181-46.43 10.519-10.238-1.016-21.266-2.377-31.162 2.141-9.644 4.403-18.075 11.987-28.198 16.114-8.721 3.555-18.276 2.917-27.71 2.216 37.08 23.312 67.723 52.647 89.507 86.113 17.846-6.475 35.683-9.704 54.78-10.803 10.07-.58 15.629-5.224 24.826-8.886a72.795 72.795 0 0 1 1.675-.642V141.256z" fill="#438E43"/><path d="M497 360V242.918c-11.242 10.116-27.858 17.642-42.5 17.768-10.953.095-18.943 1.435-28.953 5.702-7.323 3.122-14.47 5.406-22.654 4.718 20.99 26.84 36.025 56.846 43.656 88.894H497z" fill="#3E7C3E"/></g></svg>