<svg width="480" height="360" viewBox="0 0 480 360" xmlns="http://www.w3.org/2000/svg"><g fill="none" fill-rule="evenodd"><path fill="#7DB0BE" d="M.225 360H480V.45H.225z"/><path fill="#BFA36B" d="M0 359.89h480.55V297H0z"/><path fill="#6EA3AF" d="M.225 297.11H480v-15.541H.225z"/><path stroke="#5F959E" d="M.225 297.11H480v-15.541H.225z"/><path fill="#E8DFCF" d="M.225 59.063H480V.45H.225z"/><path fill="#F7F7F2" d="M.225 325.829h12.314V.449H.225z"/><path fill="#EDEDE8" d="M12.54.45v325.379l12.4-9.773V.45z"/><path fill="#F7F7F2" d="M.225 348.448h13.484v-23.54H.225z"/><path d="M13.71 348.447l12.27-10.206a.681.681 0 0 0 .246-.523v-21.769a.681.681 0 0 0-1.117-.524l-11.4 9.482v23.54z" fill="#EDEDE8"/><path d="M282.105 34.774h-13.342a5.186 5.186 0 0 1-4.175-2.11c-2.523-3.424-.078-8.261 4.175-8.261h13.342c4.253 0 6.698 4.837 4.176 8.261a5.186 5.186 0 0 1-4.176 2.11m-152.544 0H116.22a5.186 5.186 0 0 1-4.175-2.11c-2.523-3.424-.078-8.261 4.175-8.261h13.342c4.253 0 6.698 4.837 4.176 8.261a5.186 5.186 0 0 1-4.176 2.11" fill="#F4F4E9"/><path d="M65.44 313.657h152.22c.542 0 1.052.254 1.378.687l19.87 26.343c.858 1.137.046 2.766-1.379 2.766H45.57c-1.424 0-2.236-1.629-1.378-2.766l19.87-26.343a1.725 1.725 0 0 1 1.378-.687" fill="#FFEBC4"/><path stroke="#DDDDD3" d="M.225 324.907H13.71l11.399-9.482L24.94.45M12.681 324.907L12.54.45"/><path d="M359.775 59.063H25.11" fill="#E8DFCF"/><path d="M359.775 59.063H25.11" stroke="#DDD3C3"/><path d="M259.557 282.469l-.453 8.095c1.599.3 3.198.597 4.798.89l1.388-8.985h-5.733z" fill="#DDDCC5"/><path d="M258.429 321.212h.034a.982.982 0 0 0 .97-.833l4.469-28.925c-1.6-.293-3.2-.59-4.798-.89l-1.656 29.61a.983.983 0 0 0 .98 1.038m67.727 4.292a.982.982 0 0 0 .97-1.145l-4.541-27.212c-1.56.062-3.12.105-4.677.123l7.299 27.503c.114.431.504.73.95.73" fill="#FAFEEE"/><path d="M315.118 286.76l2.789 10.51c1.557-.018 3.116-.06 4.677-.123l-1.733-10.387h-5.733zm24.895 8.66l-3.461-20.74h-5.733l5.645 21.274c.893-.12 1.786-.246 2.68-.385.292-.045.58-.096.869-.148" fill="#DDDCC5"/><path d="M339.144 295.57a135.3 135.3 0 0 1-2.68.384l4.443 16.739a.983.983 0 0 0 1.918-.414l-2.812-16.858a33.69 33.69 0 0 1-.87.148m-57.703 13.163h.034a.982.982 0 0 0 .971-.832l2.017-13.054a364.23 364.23 0 0 1-3.258-.471l-.745 13.32a.982.982 0 0 0 .98 1.037" fill="#FAFEEE"/><path d="M282.568 269.988l-1.364 24.387c1.085.162 2.171.319 3.258.471l3.84-24.858h-5.734z" fill="#DDDCC5"/><path d="M344.035 280.959l-.04-68.894c0-2.01-1.659-3.72-3.684-3.8l-55.286-2.184c-1.62-.064-3.027.946-3.448 2.475l-19.941 72.403h82.4z" fill="#E5B745"/><path d="M344.035 280.959l-.04-68.894c0-2.01-1.659-3.72-3.684-3.8l-55.286-2.184c-1.62-.064-3.027.946-3.448 2.475l-19.941 72.403h82.4z" stroke="#BF8C26" stroke-width=".5"/><path d="M343.996 212.065s13.936 49.58 10.896 60.895c-3.04 11.315-29.259 14.862-29.259 14.862s9.938-6.102 7.992-34.572l10.391-6.003-.02-35.182zm-72.826 34.279h-27.74l10.751 27.627 21.927-2.29s1.392-25.576-4.938-25.337" fill="#DDAD43"/><path d="M271.17 246.344h-27.74l10.751 27.627 21.927-2.29s1.392-25.576-4.938-25.337z" stroke="#BF8C26" stroke-width=".5"/><path d="M243.283 246.344h-4.125l9.08 31.244c1.04 3.578 4.295 6.176 7.994 6.382l69.4 3.852c4.65.258 8.402-3.306 8.342-7.921l-.35-26.652-4.903-.698c-1.326-.19-2.502.7-2.65 2.005l-2.517 22.142-69.373-2.727-9.054-26.312a1.951 1.951 0 0 0-1.844-1.315" fill="#E5B745"/><path d="M243.15 246.344h-3.992l9.08 31.244c1.04 3.578 4.295 6.176 7.993 6.382l69.402 3.852c4.648.258 8.401-3.306 8.34-7.921l-.348-26.652-4.904-.698c-1.326-.19-2.502.7-2.65 2.005l-2.517 22.142-69.373-2.727-9.012-26.187a2.135 2.135 0 0 0-2.018-1.44z" stroke="#BF8C26" stroke-width=".5"/><path d="M283.624 253.25l-5.354-.935 1.693-.922c4.297-2.338 9.08-3.75 14.053-4.146l-10.392 6.003z" fill="#EFC056"/><path d="M333.624 253.25l-5.354-.935 1.693-.922c4.297-2.338 9.08-3.75 14.053-4.146l-10.392 6.003z" stroke="#BF8C26" stroke-width=".5"/><path d="M323.933 277.862h-67.018c-1.066 0-1.977-.86-2.036-1.92l-.769-13.866a1.801 1.801 0 0 1 1.822-1.92h67.019c1.065 0 1.976.86 2.035 1.92l.77 13.866a1.801 1.801 0 0 1-1.823 1.92" fill="#E5B745"/><path d="M254.682 272.388l.197 3.555c.059 1.06.97 1.92 2.036 1.92h67.018c1.065 0 1.88-.86 1.822-1.92l-.484-8.73c-22.644 5.67-47.65 3.725-70.59 5.175" fill="#DDAE45"/><path d="M323.933 277.862h-67.018c-1.066 0-1.977-.86-2.036-1.92l-.769-13.866a1.801 1.801 0 0 1 1.822-1.92h67.019c1.065 0 1.976.86 2.035 1.92l.77 13.866a1.801 1.801 0 0 1-1.823 1.92z" stroke="#BF8C26" stroke-width=".5"/><path d="M396.117 331.917c-6.857 16.113-9.352 18.304-9.98 18.589-1.836-2.593-4.153-14.645-5.847-25.05a97.87 97.87 0 0 1-2.051-.463c1.645 10.29 4.152 23.768 6.4 26.748.418.553 1.027.816 1.674.72 1.01-.15 3.375-.499 11.556-19.71a382.69 382.69 0 0 0 2.12-5.088c-.69-.014-1.38-.034-2.07-.06a355.318 355.318 0 0 1-1.802 4.314" fill="#937A5F"/><path d="M378.397 312.777a.97.97 0 1 0-1.922.256c.169 1.26.826 6.092 1.763 11.96.684.16 1.367.317 2.052.462a478.964 478.964 0 0 1-1.893-12.678" fill="#846A4F"/><path d="M428.369 324.985c-.195 2.1-.424 4.304-.693 6.502-2.227 18.209-5.016 19.131-5.553 19.131-.76 0-3.748-1.319-10.307-18.293a239.443 239.443 0 0 1-1.823-4.882 126.5 126.5 0 0 1-2.02.11c.638 1.778 1.32 3.621 2.032 5.463 6.767 17.515 10.157 19.541 12.118 19.541 2.116 0 5.195-2.16 7.479-20.844.296-2.422.544-4.85.75-7.14-.66.142-1.32.278-1.983.412" fill="#937A5F"/><path d="M405.306 313.462a.97.97 0 0 0-.9-.687c-.436-.025-.794.244-.937.634a473.66 473.66 0 0 1-5.55 14.194c.69.026 1.38.045 2.07.06a492.343 492.343 0 0 0 4.308-10.945 333.52 333.52 0 0 0 3.675 10.835c.675-.032 1.348-.067 2.022-.11a319.717 319.717 0 0 1-4.688-13.98m25.931-1.822a.968.968 0 1 0-1.937-.078c-.003.077-.255 6.117-.931 13.422.662-.134 1.324-.27 1.984-.413.64-7.093.881-12.855.884-12.93m-47.054 1.715a.969.969 0 1 0-1.778.774c.033.074 2.48 5.694 5.676 12.654.746.098 1.494.183 2.242.265a665.006 665.006 0 0 1-6.14-13.693m37.766 2.403a.97.97 0 0 0-1.825-.657 543.548 543.548 0 0 1-4.424 11.85c.72-.078 1.438-.16 2.157-.249 2.349-6.112 4.067-10.877 4.092-10.944" fill="#846A4F"/><path d="M415.7 326.953c-5.033 13.013-10 24.285-11.807 25.628-1.824-1.34-7.52-12.447-13.57-25.531-.748-.082-1.496-.167-2.242-.265a617.533 617.533 0 0 0 3.366 7.21c9.685 20.372 11.404 20.513 12.327 20.587.078.007.158.013.243.013 1.135 0 3.111-1.167 10.577-19.606a507.111 507.111 0 0 0 3.263-8.285c-.719.09-1.437.17-2.157.249" fill="#937A5F"/><path d="M434.858 313.744c0 5.02-13.645 9.088-30.478 9.088-16.832 0-30.477-4.069-30.477-9.088 0-.67-.09-2.934.371-3.563 2.996-4.08 15.522-5.524 30.106-5.524 16.125 0 29.369 1.834 30.449 6.56.047.208.029 2.316.029 2.527" fill="#EDF2DD"/><path d="M434.858 311.602c0 5.019-13.645 9.087-30.478 9.087-16.832 0-30.477-4.068-30.477-9.087s13.645-9.087 30.477-9.087c16.833 0 30.478 4.068 30.478 9.087" fill="#FAFEEE"/><path fill="#C7DEE2" d="M51.673 295.42h97.038V91.464H51.673z"/><path d="M119.326 231.077v-19.763H101.62v-37.051h44.573v56.814h-26.868zm26.868 60.706h-45.708v-35.795h18.84v-20.416h26.868v56.211zm-93.64 0h43.438v-35.795H52.555v35.795zM98.24 93.667v36.588H80.564v19.764h-28.01V93.666H98.24zM85.06 169.77h61.135v-35.02H85.058v35.02zm12.068 41.545H52.555v-56.802h28.009v19.762h4.494v-.012h12.07v37.051zm-44.572 40.18h62.276V215.81H52.555v35.684zm50.178-121.24h43.461V93.668h-43.46v36.588zM48.06 299.112h102.63V89.172H48.06v209.939z" fill="#E5E3C6"/><path fill="#7B8238" d="M102.733 169.769h5.675v-24.151h-5.675z"/><path fill="#DC6039" d="M111.863 169.769h5.805v-26.38h-5.805z"/><path fill="#CF694A" d="M121.124 169.769h5.674v-24.151h-5.674z"/><path fill="#ECBD7F" d="M117.668 169.769h3.456v-24.151h-3.456z"/><path fill="#D0A938" d="M108.408 169.769h3.455v-22.445h-3.455z"/><path fill="#91B0A9" d="M100.486 169.769h2.344v-22.445h-2.344z"/><path d="M97.127 169.769h3.36v-12.076h-.254a3.105 3.105 0 0 0-3.106 3.106v8.97zm33.03 0h-3.359v-12.076h.254a3.106 3.106 0 0 1 3.105 3.106v8.97z" fill="#E8C877"/><path fill="#D37B63" d="M76.3 211.314l-5.88-10.183 5.88-10.183h11.758l5.879 10.183-5.88 10.183z"/><path fill="#C56E52" d="M68.091 211.314l-5.88-10.183 5.88-10.183h11.76l5.878 10.183-5.879 10.183z"/><path fill="#BA6149" d="M93.937 201.131h-8.208l-5.879 10.183h8.208z"/><path d="M139.377 231.077h-12.601a1.4 1.4 0 0 1-1.393-1.542l3.095-30.379h9.197l3.095 30.38a1.4 1.4 0 0 1-1.393 1.541" fill="#FAFEEE"/><path d="M137.675 199.156h-2.76l2.935 28.825a1.4 1.4 0 0 1-1.392 1.541h-11.074l-.001.014a1.4 1.4 0 0 0 1.393 1.541h12.601a1.4 1.4 0 0 0 1.393-1.541l-3.095-30.38z" fill="#EFF4DF"/><path fill="#FAFEEE" d="M128.477 199.156h9.198v-7.038h-9.198z"/><path fill="#EFF4DF" d="M135.1 199.156h2.575v-7.038H135.1z"/><path d="M74.002 132.502c0 9.66-2.936 9.109-6.559 9.109-3.622 0-6.559.55-6.559-9.109s2.937-25.87 6.56-25.87c3.622 0 6.558 16.211 6.558 25.87" fill="#FAFEEE"/><path fill="#EEF2DF" d="M71.822 150.018h-8.758l2.133-8.436h4.492z"/><path fill="#D3E3E2" d="M59.962 251.698h48.446v-11.604H59.962z"/><path fill="#4C7E80" d="M62.212 240.094h46.196v-4.986H62.212z"/><path fill="#91B0A9" d="M60.64 235.108h45.066v-5.43H60.64z"/><path fill="#BADBE1" d="M65.563 229.678h35.22v-2.829h-35.22z"/><path fill="#726757" d="M108.144 291.783h29.268v-20.67h-29.268z"/><path fill="#7B7160" d="M107.71 281.448h30.137v-10.859H107.71z"/><path d="M124.247 286.653h-2.938a.474.474 0 0 1-.473-.474v-7.629c0-.261.212-.474.473-.474h2.938c.262 0 .474.213.474.474v7.63a.474.474 0 0 1-.474.473" fill="#A59B8B"/><path fill="#7B7160" d="M122.184 285.304h1.189v-5.88h-1.19z"/><path d="M67.966 291.783h11.836a9.29 9.29 0 1 0-11.836 0" fill="#FAEBC1"/><path d="M67.735 291.582c.077.068.152.136.23.201h11.837a9.269 9.269 0 0 0 3.371-7.16 9.23 9.23 0 0 0-.97-4.113c-3.419 4.99-8.641 8.869-14.468 11.072" fill="#F2E2B8"/><path d="M67.886 279.423a7.927 7.927 0 0 1 7.596-2.58m-8.805 11.119a7.931 7.931 0 0 1-.605-4.773" stroke="#FFF7E3" stroke-width="3" stroke-linecap="round" stroke-linejoin="round"/><path fill="#DDDABA" d="M150.689 299.11h8.978V89.173h-8.978z"/><path d="M137.675 199.156h-7.932" fill="#EFF4DF"/><path d="M137.675 199.156h-7.932" stroke="#E0E5CA" stroke-linecap="round" stroke-linejoin="round"/><path d="M128.5 124.373s13.411-8.932 9.324-10.394c-4.087-1.46-10.707 9.4-10.707 9.4l1.383.994z" fill="#7B8238"/><path d="M129.496 122.05c2.056-2.04 4.288-3.886 6.57-5.664.15-.117-.048-.378-.203-.265-2.369 1.712-4.465 3.704-6.426 5.869-.036.04.02.098.06.06" fill="#6D702C"/><path d="M120.325 122.795s-9.636-23.32-5.073-26.386c4.562-3.065 6.606 25.601 6.606 25.601l-1.533.785z" fill="#7B8238"/><path d="M115.654 99.637c.114 4.043 1.06 8.25 2.342 12.077.086.257.46.153.406-.112-.823-3.978-1.598-8.062-2.665-11.976-.012-.046-.084-.037-.083.011" fill="#6D702C"/><path d="M123.518 122.608s.767-20.167 5.748-20.437c4.981-.27-4.47 21.035-4.47 21.035l-1.278-.598z" fill="#7B8238"/><path d="M128.59 104.55c-1.118 2.98-2.25 6.09-2.81 9.23-.038.21.262.3.325.089.916-3.093 1.646-6.203 2.73-9.251.055-.155-.188-.218-.244-.067" fill="#6D702C"/><path d="M117.132 124.956s-6.897-7.765-4.342-10.556c2.554-2.791 5.492 9.186 5.492 9.186l-1.15 1.37z" fill="#7B8238"/><path d="M113.198 116.038c.921 2.299 1.695 4.656 2.577 6.97.076.2.376.126.325-.089-.586-2.462-1.577-4.712-2.748-6.947-.044-.082-.19-.024-.154.066" fill="#6D702C"/><path d="M121.858 124.754s-5.745-18.478-.535-19.185c5.209-.708 2.195 18.804 2.195 18.804l-1.66.381z" fill="#898C41"/><path d="M121.354 106.978c.004 4.504.203 9.093 1.124 13.514.024.115.214.09.207-.028-.29-4.5-.903-8.99-1.289-13.486-.002-.027-.042-.028-.042 0" fill="#828237"/><path d="M125.32 123.205s.808-17.695 4.39-17.402c3.58.294-2.593 17.577-2.593 17.577l-1.797-.175z" fill="#898C41"/><path d="M129.542 107.337c-.619 2.66-1.34 5.318-1.828 8.005-.029.159.194.225.244.068.829-2.612 1.266-5.358 1.625-8.068.003-.023-.036-.028-.041-.005" fill="#828237"/><path d="M129.73 123.205s3.63-5.406 8.06-4.285c4.428 1.12-7.609 4.285-7.609 4.285h-.45z" fill="#898C41"/><path d="M133.508 121.512c.813-.264 1.595-.536 2.372-.892.752-.345 1.598-.62 2.25-1.133.128-.1-.016-.27-.144-.247-.765.14-1.484.567-2.193.881a22.87 22.87 0 0 0-2.35 1.237c-.08.048-.028.184.065.154" fill="#828237"/><path d="M120.473 123s-1.452-11.222-3.775-10.693c-2.324.529 2.767 10.898 2.767 10.898l1.008-.205z" fill="#898C41"/><path d="M116.59 113.218c.426 1.521.965 3.161 1.737 4.547.093.168.358.054.308-.13-.414-1.532-1.17-3.076-1.93-4.465-.033-.064-.134-.02-.115.048" fill="#828237"/><path d="M118.282 123.586s-6.194-7.611-8.082-7.03c-1.887.58 3.146 12.915 7.421 7.816" fill="#898C41"/><path d="M110.332 117.433c.995 1.668 2.41 3.06 3.625 4.569.112.139.298-.038.232-.179-.823-1.759-2.52-3.023-3.79-4.441-.033-.036-.091.01-.067.05" fill="#828237"/><path d="M135.4 130.255h-24.564a2.167 2.167 0 0 1-2.167-2.167v-5.607h28.899v5.607c0 1.197-.97 2.167-2.167 2.167" fill="#CE994D"/><path d="M137.568 127.113v-4.632h-28.9v4.63c9.634-.178 19.267.166 28.9.002" fill="#C48D45"/><path d="M138.098 125.463h-29.96a.502.502 0 0 1-.502-.502v-3.01c0-.278.225-.502.502-.502h29.96c.277 0 .502.224.502.502v3.01a.502.502 0 0 1-.502.502" fill="#CE994D"/><path fill="#30383F" d="M177.755 189.116h59.68V117.09h-59.68z"/><path fill="#FAFEEE" d="M180.002 186.87h55.186v-67.534h-55.186z"/><path fill="#EDF2DD" d="M185.395 181.476h44.4v-56.747h-44.4z"/><path fill="#FAE8A3" d="M185.395 181.476h44.4v-35.235h-44.4z"/><path fill="#EAA48D" d="M185.395 181.476l12.908-28.374 12.907 28.374z"/><path fill="#EAA48D" d="M203.98 181.476l12.907-28.374 12.907 28.374z"/><path fill="#DC6039" d="M185.395 168.043l12.908-28.373 12.907 28.373z"/><path fill="#DC6039" d="M203.98 168.043l12.907-28.373 12.907 28.373z"/><path fill="#E5B745" d="M185.395 146.24l12.908 28.374 12.907-28.373z"/><path fill="#E5B745" d="M203.98 146.24l12.907 28.374 12.907-28.373z"/><path stroke="#545B60" stroke-linecap="round" stroke-linejoin="round" d="M236.71 117.807h-58.474l-.162 47.783"/></g></svg>