<svg width="150" height="152" viewBox="-1 -1 150 152" xmlns="http://www.w3.org/2000/svg"><path fill="#824600" d="M103.783 47.636c-.826-.117-38.906 8.236-38.906 8.236v3.925l41.561-1.713c-.11-.9-2.247-9.527-2.655-10.448z"/><path fill="#6E1E3C" d="M98.329 46.457l1.701 15.367 15.532-19.256c-2.269.282-17.233 3.889-17.233 3.889z"/><path fill="#F01446" d="M93.26 82.095c.705.325 1.422.617 2.138.898l17.123 5.183-19.261-6.081z"/><path fill="#BE0A3C" d="M117.883 85.409l-13.27-9.395-17.836 4.163c-1.361 1.158-.061 7.488.161 8.881a104.879 104.879 0 0 0 2.55 11.752c1.894 6.811 6.987 15.317 9.704 21.825l16.914-1.332c.078-4.773.244-8.612.511-13.369.161-2.91 1.111-7.353 1.516-10.241.334-2.479 1.483-5.244 1.483-7.683l-1.733-4.601z"/><path fill="#6E1E3C" d="M120.856 148.796s-2.551 0-4.27.138V150c3.473-.094 9.113-.215 9.113-.215l-8.938-28.163-16.405.502s4.741 7.814 7.529 12.088c5.001 7.621 12.971 14.584 12.971 14.584z"/><path fill="#F0E6D2" d="M97.315 118.62c.656 2.226 2.565 6.389 3.97 8.069h17.314c.06-1.909-.64-6.792-1.094-9.121l-20.19 1.052zm21.743 10.096l-16.674.33c.11.574.242 1.14.395 1.697h16.837a13.336 13.336 0 0 1-.558-2.027z"/><path fill="#BE0A3C" d="M128.845 51.358c.028-1.848-2.355-6.454-2.073-6.796-2.261-2.168-7.01-2.079-9.896-1.925-4.113.221-6.882 2.598-9.508 5.599a104.801 104.801 0 0 0-8.293 11.076c-1.343 2.019-2.676 4.066-4.063 6.068-1.106 1.611-3.599 5.571-3.583 5.571-1.277 2.703-3.538 5.572-4.251 8.479 11.018 3.034 21.942 7.049 32.756 10.773 2.382-5.632 4.046-11.452 6.158-17.183s5.335-12.136 5.689-18.297c-.011-.011-2.936-3.365-2.936-3.365z"/><path d="M128.076 22.263a4.982 4.982 0 0 1-.253-2.813c.169-.621.197-1.274.376-1.889.499-1.72.902-3.467 1.827-5.051a35.887 35.887 0 0 0 1.451-2.802 12.462 12.462 0 0 1 2.415-3.266c.947-.985 1.922-1.954 2.886-2.928a13.638 13.638 0 0 1 5.469-3.266c1.267-.424 2.55-.223 3.816 0a1.773 1.773 0 0 1 1.272 1.089c.561 1.192.908 2.416.46 3.734a2.43 2.43 0 0 0-.129.489 11.614 11.614 0 0 1-1.911 4.583 20.177 20.177 0 0 1-5.34 5.497c-.56.43-1.121.892-1.681 1.355a23.378 23.378 0 0 1-3.889 2.547 31.07 31.07 0 0 1-2.903 1.377c-1.177.49-2.387.914-3.586 1.361-.062.038-.14.005-.28-.017z"/><path fill="#824600" d="M125.272 22.809l-11.489-8.62-12.413 20.21c.781 1.464 4.315 3.409 5.739 4.191 3.323 1.829 7.577 2.661 11.183 1.214 4.194-1.663 6.62-6.414 7.168-10.599.272-2.078.427-4.368-.188-6.396z"/><path fill="#642800" d="M105.425 26.96c.108-.136 4.218-7.095 4.945-7.703.802.312 5.281 13.468 5.19 14.065-.443.984-1.296 1.058-2.137 1.137-.409.046-7.777-7.01-7.998-7.499z"/><path fill="#BE0A3C" d="M92.309 30.117c0 .179-.928 5.362 4.366 6.922a9.726 9.726 0 0 0 1.936.43 15.884 15.884 0 0 0 5.278-.559c.326-.084 2.172-.604 2.751-.839a22.574 22.574 0 0 0 5.346-3.226 12.214 12.214 0 0 0 3.432-4.148 52.12 52.12 0 0 0 1.688-3.685c.242-.559 2.566-7.1 2.509-7.782L92.309 30.117z"/><path fill="#F01446" d="M129.643 20.077c-1.236-6.92-2.877-11.47-8.937-15.449-5.283-3.465-11.443-4.705-17.53-2.541-5.977 2.12-9.98 5.867-12.441 11.701-1.314 3.117-1.913 6.001-1.27 9.333.377 1.971 2.867 7.284 2.867 7.284l25.602-8.214s3.221 4.428 6.182 4.816c3.992.553 6.165-3.36 5.527-6.93z"/><path fill="#FFC800" d="M75.519 60.038c-3.122 1.844-34.644 2.283-38.733 2.5-8.288.428-27.644.393-35.938-.074-1.717-1.969-.433-6.34.411-8.388 1.222-.651 4.006-.212 5.45-.251 1.844-.046 3.639-.075 5.472 0 4.445.159 20.044.376 24.511.65 7.683.468 31.933.845 39.332 3.138.05.885-.555 1.541-.505 2.425z"/><path fill="#824600" d="M120.306 55.049l.324 10.218a31.234 31.234 0 0 1-15.39 2.511c-3.715-.319-22.44-4.946-24.144-5.006.497-1.277 13.195-8.042 13.195-8.042l26.015.319z"/><path fill="#F01446" d="M95.288 65.878l-12.165-2.644 1.649-8.305 10.43-.199.086 11.148"/><path fill="#824600" d="M76.594 54.862c3.289-1.318 8.019-1.28 11.511-.957.263 3.281.109 8.51-3.064 10.299-2.933 1.641-7.548 0-9.494-2.429-.735-2.406-.976-4.999 1.047-6.913z"/><path fill="#824600" d="M65.159 53.111c3.979-1.421 12.371.932 11.86 6.07-.512 5.138-5.752 4.744-8.337 4.6-3.685-.205-5.596-2.353-5.813-4.938-.2-2.447 1.173-5.333 2.29-5.732z"/><path fill="#FFC800" d="M90.203 58.915c.108 1.941-.298 2.863-1.747 3.833-3.829 1.078-2.38-7.945.833-5.601l.914 1.768z"/><path fill="#BE0A3C" d="M103.989 20.245c.94 2.161.4 4.795-2.532 5.786-2.099.715-4.777.298-5.75-1.908-1.339-3.023.737-5.094 3.297-5.702 1.536-.366 4.04-.344 4.985 1.824z"/><path fill="#6E1E3C" d="M126.712 20.456a4.82 4.82 0 0 1-.106.571c-.233.872-.512 1.71-1.47 2.024-1.114.382-2.106.405-3.036-.359a5.728 5.728 0 0 1-.902-.873 2.462 2.462 0 0 1-.513-2.093 5.331 5.331 0 0 1 .686-1.853 2.507 2.507 0 0 1 2.551-.485c1.548.57 2.027 1.084 2.79 3.068z"/><path d="M120.014 34.54l.616.91c-.438 1.236-1.456 2.215-2.76 2.653-.94.36-1.938.64-2.989.14l-.324-.575a.9.9 0 0 1 0-.254c.311-.826.959-1.5 1.8-1.874.69-.29 1.359-.63 2.054-.905.611-.215.621-.215 1.603-.095z"/><path fill="#F01446" d="M86.954 79.054c-.039-.089-13.026 31.351-17.009 39.825 1.035 2.28 6.969 7.73 9.078 9.837 3.087-2.463 12.019-10.465 14.956-13.156l9.872-9.053c5.593-5.121 11.141-10.287 16.779-15.358-.184-.456-33.508-11.678-33.676-12.095z"/><path fill="#FFC800" d="M102.011 84.122c1.048.751 2.377 1.053 3.414 1.793-2.693 5.763-11.31 14.361-15.078 19.451-4.005 5.415-7.807 11.306-12.431 16.256l-1.847-1.149c-.496-1.637 3.593-5.976 4.506-7.344 2.016-2.987 4.061-5.947 6.195-8.867 3.999-5.533 10.826-14.955 15.241-20.14z"/><path fill="#6E1E3C" d="M71.053 116.554s-13.294 27.091-16.122 31.39c-.667 0-4.072-.521-4.246.387.561.65 2.883.426 4.269.533 2.037.163 4.083.163 6.12 0C63.727 145.5 82.11 128.37 82.11 128.37l-11.057-11.816z"/><path fill="#F0E6D2" d="M86.164 126.344c-5.14-5.587-14.429-15.77-14.657-15.871-.722.873-4.342 8.961-4.603 9.974.147.214 7.698 7.159 12.822 12.323 2.199-1.971 5.239-4.629 6.438-6.426zm-20.467-4.722l-.82 1.994 11.798 11.181c.57-.628 1.044-1.013 1.38-1.481-5.398-5.465-12.358-11.694-12.358-11.694z"/><path fill="#6E1E3C" d="M86.622 76.773l35.884 10.916-1.475 4.848L85.148 81.62l1.474-4.848z"/><path fill="#F01446" d="M109.701 83.113l7.732 2.445-2.14 6.764-7.73-2.445 2.138-6.764zM89.26 76.735l2.9.917-2.14 6.765-2.899-.917 2.14-6.765zm7.1 3.089l2.899.917-2.14 6.764-2.899-.917 2.14-6.764zm14.133-25.466s3.805-4.216 5.837-6.107c2.206-2.051 4.759-4.386 7.857-4.638 6.584-.603 7.723 7.598 7.583 11.556-.876 2.933-1.482 5.762-3.732 8.037-2.251 2.275-10.361 6.726-10.361 6.726l-7.184-15.574z"/></svg>