<svg width="100" height="100" viewBox="0 0 100 100" xmlns="http://www.w3.org/2000/svg" xmlns:xlink="http://www.w3.org/1999/xlink"><defs><path id="a" d="M19.4.054V27.96H.112V.054H19.4z"/><path id="c" d="M19.327 28H.039V.094h19.288V28z"/></defs><g fill="none" fill-rule="evenodd"><path d="M20.658 63.528c-.066 5.87 2.938 10.809 7 12.026v.002l.023.005c.395.117.8.196 1.214.24 1.261.2 3.297.385 5.177-.056l.045-.011c4.285-.9 7.604-5.888 7.672-11.95.063-5.545-2.614-10.255-6.333-11.788a2.494 2.494 0 0 0-.644-.233l-.02-.005a6.813 6.813 0 0 0-1.35-.261c-3.107-.47-5.232.105-5.232.105l-.003.004c-4.226.969-7.482 5.918-7.55 11.922" fill="#3E3F41"/><path d="M79.498 67.404c-.219 1.276-1.417 2.235-2.875 2.304-3.182.15-10.27.33-25.03.15-14.766-.178-21.848-.529-25.024-.757-1.456-.104-2.632-1.09-2.823-2.37-.26-1.749-.513-4.784-.456-9.87.055-4.841.347-7.664.631-9.284.222-1.263 1.402-2.213 2.843-2.295 2.974-.168 9.766-.332 25.106-.087 15.276.244 22.07.546 25.059.748 1.458.099 2.64 1.085 2.833 2.368.246 1.639.471 4.462.417 9.24-.057 5.073-.38 8.106-.68 9.853" fill="#D9568C"/><path d="M71.922 25.375l8.587 3.245c.554.28.9.935.868 1.642l-.14 3.778 2.282 1.064.066 5.236-6.495.544-10.143-1.615 4.975-13.894z" fill="#8B8B8B"/><path d="M72.632 50.57l-1.335-.247c-.729-.134-1.237-.73-1.134-1.328l.78-4.552.78-4.556c.102-.599.776-.975 1.505-.84l1.336.246c.729.134 1.236.729 1.134 1.328l-1.56 9.107c-.103.6-.777.976-1.506.842" fill="#C97F38"/><path d="M71.288 50.321l-.66-.121c-.36-.067-.568-.606-.465-1.205l.78-4.552.78-4.556c.102-.599.477-1.03.837-.964l.66.121c.36.067.568.607.465 1.206l-1.56 9.107c-.102.6-.477 1.03-.837.964" fill="#D58830"/><path d="M32.921 57.094l-9.068 1.62-7.927 1.416c-3.465.619-6.757-1.795-7.353-5.392-.596-3.598 1.73-7.016 5.194-7.635l16.995-3.035c3.465-.62 6.757 1.795 7.354 5.392.596 3.597-1.73 7.015-5.195 7.634" fill="#D9568C"/><path d="M63.466 25.635s4.963-1.342 8.299-.366c.478.14.807.592.792 1.107l-.266 9.055a.757.757 0 0 0 .625.78l3.756.59c.376.06.651.4.644.794l-.05 2.549a.683.683 0 0 1-.678.682l-13.354-.162.232-15.029z" fill="#58595B"/><path d="M68.204 67.267c-.179 1.277-1.138 2.238-2.304 2.311-2.545.159-8.212.354-20.012.211-11.804-.143-17.465-.476-20.004-.696-1.164-.1-2.102-1.084-2.251-2.364-.204-1.748-.4-4.782-.343-9.867.055-4.842.295-7.666.526-9.287.18-1.262 1.125-2.216 2.278-2.3 2.378-.176 7.808-.357 20.071-.149 12.213.207 17.644.493 20.033.687 1.165.095 2.109 1.08 2.26 2.36.192 1.64.366 4.462.312 9.24-.057 5.073-.322 8.106-.566 9.854" fill="#F2A7BD"/><path d="M65.997 48.187l-36.565-.443c-2.334-.028-4.221-2.034-4.194-4.457l.181-16.125c.027-2.423 1.96-4.383 4.293-4.354l36.565.442c2.334.029 4.222 2.034 4.195 4.458l-.181 16.125c-.028 2.423-1.96 4.383-4.294 4.354" fill="#8B8B8B"/><path d="M64.63 48.234L28.836 47.8c-2.334-.028-4.221-2.034-4.194-4.457l.182-16.188c.027-2.423 1.959-4.383 4.293-4.355l35.792.434c2.334.028 4.222 2.034 4.194 4.457l-.182 16.188c-.027 2.424-1.959 4.383-4.293 4.355" fill="#323232"/><path d="M43.789 56.973c-4.212.517-7.88-1.936-9.344-6.25a2.848 2.848 0 0 1 .251-2.385 2.641 2.641 0 0 1 1.947-1.283l11.863-1.459a2.593 2.593 0 0 1 2.182.776c.58.594.864 1.417.78 2.258-.453 4.55-3.467 7.825-7.679 8.343" fill="#D9568C"/><path d="M35.685 25.764c-.327-.004-2.442-.267-3.221-.276-5.048-.061-9.187 4.137-9.246 9.377-.06 5.24 3.985 9.537 9.032 9.598.14.002 3.181-.198 3.227-.198 4.92.06 8.957-4.033 9.014-9.142.058-5.11-3.885-9.3-8.806-9.359" fill="#868585"/><path d="M41.535 35.087c-.059 5.251-4.207 9.459-9.265 9.397-5.058-.061-9.111-4.368-9.052-9.619.059-5.251 4.207-9.459 9.265-9.398 5.059.062 9.111 4.368 9.052 9.62" fill="#636465"/><path d="M40.43 35.073c-.052 4.618-3.7 8.318-8.147 8.264-4.448-.054-8.012-3.841-7.96-8.459.052-4.617 3.7-8.317 8.147-8.263 4.448.054 8.012 3.84 7.96 8.458" fill="#FFF"/><path d="M24.935 35.384c.052-4.618 3.7-8.317 8.147-8.263a7.819 7.819 0 0 1 4.607 1.573 7.86 7.86 0 0 0-5.218-2.08c-4.448-.053-8.096 3.647-8.148 8.264-.032 2.83 1.296 5.347 3.353 6.885a8.483 8.483 0 0 1-2.741-6.379" fill="#515252"/><path d="M61.553 35.729c-.058 5.251-4.207 9.459-9.265 9.397-5.058-.06-9.111-4.368-9.052-9.619.06-5.251 4.207-9.459 9.266-9.398 5.058.062 9.11 4.368 9.051 9.62" fill="#888"/><path d="M55.703 26.372c-.327-.004-2.442-.267-3.22-.276-5.048-.061-9.188 4.137-9.246 9.377-.06 5.24 3.984 9.537 9.032 9.598.139.002 3.18-.198 3.227-.198 4.92.06 8.956-4.033 9.014-9.142.057-5.11-3.886-9.3-8.807-9.359" fill="#868585"/><path d="M61.553 35.729c-.058 5.251-4.207 9.459-9.265 9.397-5.058-.06-9.111-4.368-9.052-9.619.06-5.251 4.207-9.459 9.266-9.398 5.058.062 9.11 4.368 9.051 9.62" fill="#888"/><path d="M60.448 35.716c-.052 4.617-3.7 8.317-8.147 8.263-4.448-.054-8.012-3.841-7.96-8.459.052-4.617 3.7-8.317 8.148-8.263 4.447.054 8.011 3.84 7.96 8.459" fill="#FFF"/><path d="M44.89 35.982c.053-4.618 3.7-8.317 8.148-8.263a7.817 7.817 0 0 1 4.607 1.573 7.858 7.858 0 0 0-5.219-2.08c-4.448-.053-8.095 3.646-8.147 8.264-.032 2.83 1.296 5.347 3.352 6.885-1.703-1.554-2.769-3.84-2.74-6.38" fill="#515252"/><path d="M34.038 35.136c-.033 2.918-1.887 5.262-4.14 5.234-2.255-.027-4.056-2.415-4.023-5.333.033-2.918 1.887-5.262 4.14-5.235 2.255.028 4.055 2.415 4.023 5.334m20.006.1c-.033 2.918-1.886 5.262-4.14 5.234-2.254-.027-4.055-2.415-4.022-5.333.033-2.918 1.886-5.262 4.14-5.234 2.254.027 4.055 2.415 4.022 5.333" fill="#323232"/><path d="M80.88 48.298l-.923-.17c-.504-.093-.854-.504-.783-.918l.538-3.146.54-3.149c.07-.414.536-.674 1.04-.581l.923.17c.504.093.855.504.784.918l-1.078 6.295c-.071.414-.537.674-1.04.581" fill="#C97F38"/><path d="M78.038 34.215s14.303 1.05 4.867 5.583c-6.45 3.1-15.457 7.74.463 8.175" stroke="#3E3F41" stroke-width="3.28" stroke-linecap="round" stroke-linejoin="round"/><path d="M89.268 52.46L74.96 59.223l-2.096-10.797 14.305-6.763c1.313-.621 2.603.036 2.881 1.467l1.092 5.613c.278 1.431-.561 3.095-1.874 3.715" fill="#D9568C"/><path d="M60.062 52.443c-.008.647-.519 1.165-1.142 1.158-.622-.008-1.122-.538-1.114-1.185.007-.647.518-1.165 1.14-1.157.624.007 1.123.538 1.116 1.184" fill="#2381A9"/><path d="M44.89 35.982c.053-4.618 3.7-8.317 8.148-8.263a7.817 7.817 0 0 1 4.607 1.573 7.858 7.858 0 0 0-5.219-2.08c-4.448-.053-8.095 3.646-8.147 8.264-.032 2.83 1.296 5.347 3.352 6.885-1.703-1.554-2.769-3.84-2.74-6.38" fill="#515252"/><path d="M75.807 59.722l-17.238.543c-3.514.111-6.449-2.757-6.556-6.405-.106-3.649 2.656-6.696 6.17-6.807l17.237-.543c3.515-.11 6.45 2.757 6.557 6.406.106 3.648-2.656 6.695-6.17 6.806M63.046 65.58c-.007.646.492 1.176 1.115 1.184.623.007 1.134-.51 1.141-1.157.007-.647-.492-1.177-1.115-1.185-.623-.007-1.134.51-1.14 1.157" fill="#D9568C"/><g transform="translate(73.6 48.815)"><mask id="b" fill="#fff"><use xlink:href="#a"/></mask><path d="M.51 15.814c1.508 7.64 6.871 13.025 11.978 12.027 5.107-.998 8.023-8 6.514-15.64C17.494 4.56 12.13-.826 7.024.172 1.917 1.171-1 8.173.509 15.814" fill="#3E3F41" mask="url(#b)"/></g><g transform="translate(70.4 49.415)"><mask id="d" fill="#fff"><use xlink:href="#c"/></mask><path d="M.436 15.854c1.51 7.64 6.872 13.025 11.979 12.027 5.107-.998 8.023-8 6.514-15.64C17.42 4.598 12.057-.786 6.951.212c-5.107.997-8.024 8-6.515 15.64" fill="#3E3F41" mask="url(#d)"/></g><path fill="#3E3F41" d="M85.747 76.723l-3.382.66-5.464-27.667 3.382-.661z"/><path d="M81.375 63.335c1.044 5.286 3.957 9.166 6.507 8.668 2.55-.498 3.772-5.187 2.728-10.472-1.044-5.286-3.957-9.166-6.507-8.668-2.55.498-3.772 5.187-2.728 10.472" fill="#959595"/><path fill="#959595" d="M87.712 72.036l-1.688.33-3.78-19.14 1.689-.33z"/><path d="M79.74 63.655c1.045 5.285 3.958 9.166 6.508 8.668 2.55-.499 3.771-5.187 2.727-10.473-1.043-5.285-3.957-9.166-6.507-8.667-2.55.498-3.771 5.186-2.727 10.472" fill="#CCCECD"/><path d="M83.058 63.073c.233 1.176 1.007 2.015 1.73 1.874.724-.142 1.122-1.21.89-2.386-.232-1.176-1.007-2.015-1.73-1.873-.724.14-1.122 1.209-.89 2.385" fill="#3E3F41"/><path d="M45.989 51.762c1.533 0 2.921.544 3.926 1.422-1.366 2.087-3.515 3.468-6.126 3.789a8.581 8.581 0 0 1-3.351-.234l-.003-.117c0-2.684 2.486-4.86 5.554-4.86" fill="#B73E75"/><path d="M7.883 63.181l4.19 1.654a1.395 1.395 0 0 0 1.751-.656l6.247-12.052a1.395 1.395 0 0 0-.726-1.94l-6.768-2.671a1.395 1.395 0 0 0-1.856.92l-3.669 13.07a1.395 1.395 0 0 0 .831 1.675" fill="#4D4D4D"/><path d="M9.62 41.46a8.863 8.863 0 1 0 16.488 6.508A8.863 8.863 0 0 0 9.62 41.46" fill="#8B8B8B"/><path d="M24.706 50.381L8.84 44.119a1.338 1.338 0 0 1 .983-2.49l15.865 6.263a1.337 1.337 0 1 1-.982 2.489" fill="#4D4D4D"/><path fill="#FFF" d="M10.568 55.227l4.822 1.904.736-1.867-4.821-1.903zm-.606 3.357l3.577 1.412.737-1.866-3.577-1.413z"/></g></svg>