<svg xmlns="http://www.w3.org/2000/svg" width="132.462" height="74.491" viewBox="1.12 0.384 132.462 74.491"><defs><style/></defs><path id="Back_Leg2" fill="#E29339" stroke="#000" stroke-width="1.528" stroke-linejoin="round" d="M57.438 63.685c-6.54-2.474-19.405-7.934-15.722-14.02 3.682-6.086 19.546 8.69 23.527 10.116 0 0 5.167-3.748 5.538.006.372 3.753-4.552 3.155-4.552 3.155s5.653.372 3.692 3.919c-1.962 3.546-4.436.716-5.064-.422 0 0 1.902 3.542-.734 4.5-2.637.955-4.14-2.579-2.127-4.675 0 0-1.372-1.374-4.558-2.58h0z"/><path id="Back_Leg1" fill="#E29339" stroke="#000" stroke-width="1.528" stroke-linejoin="round" d="M57.791 17.613c-5.924 3.37-18.756 6.812-15.003 12.854 3.753 6.04 18.89-7.57 22.853-9.043 0 0 5.211 3.687 5.537-.07.327-3.758-4.588-3.102-4.588-3.102s5.649-.436 3.644-3.96c-2.002-3.525-4.443-.665-5.057.48 0 0 1.86-3.564-.788-4.489-2.648-.925-4.11 2.626-2.07 4.698-.001-.001-2.067 1.232-4.528 2.632h0z"/><path id="Front_Leg2" fill="#E29339" stroke="#000" stroke-width="1.528" stroke-linejoin="round" d="M101.13 9.472c-5.925 3.37-18.758 6.812-15.004 12.854 3.753 6.042 18.889-7.57 22.853-9.043 0 0 5.21 3.687 5.537-.07.326-3.758-4.589-3.102-4.589-3.102s5.649-.436 3.644-3.96c-2.002-3.525-4.444-.665-5.057.48 0 0 1.86-3.564-.788-4.489-2.648-.925-4.11 2.626-2.07 4.697 0 0-2.067 1.233-4.527 2.633h0z"/><path id="Front_Leg1" fill="#E29339" stroke="#000" stroke-width="1.528" stroke-linejoin="round" d="M105.577 59.575c-6.255-2.706-16.723-10.888-19.292-4.256-2.57 6.633 17.408 10.539 20.97 12.819 0 0 .188 6.38 3.387 4.38 3.199-1.998-.283-5.53-.283-5.53s3.746 4.25 5.357.529c1.61-3.72-2.142-3.95-3.426-3.751 0 0 3.965-.659 3.112-3.33-.853-2.672-4.57-1.704-4.998 1.171 0 .001-2.228-.909-4.827-2.032h0z"/><path id="Body" fill="#E29339" stroke="#000" stroke-width="1.528" d="M102.85 21.548c-6.31-4.336-19.468.955-27.637 1.663-4.28.371-11.073-4.35-18.764-3.763-11.341.866-23.038 6.67-22.949 20.065.09 13.395 10.63 21.395 25.034 22.115 8.748.437 12.06-4.95 16.97-5.303 6.39-.46 15.594 2.506 24.02-1.855 3.993-2.066 9.092-10.455 9.046-17.6.253-6.723-2.846-13.347-5.72-15.322h0z"/><path id="Whisker6" fill="none" stroke="#000" stroke-width="1.528" stroke-linecap="round" d="M120.337 17.74l3.233-8.04"/><path id="Whisker5" fill="none" stroke="#000" stroke-width="1.528" stroke-linecap="round" d="M123.622 19.403l5.134-6.416"/><path id="Whisker4" fill="none" stroke="#000" stroke-width="1.528" stroke-linecap="round" d="M127.012 21.753l6.176-1.795"/><path id="Whisker3" fill="none" stroke="#000" stroke-width="1.528" stroke-linecap="round" d="M121.834 55.61l3.888 6.135"/><path id="Whisker2" fill="none" stroke="#000" stroke-width="1.528" stroke-linecap="round" d="M125 53.44l6.09 5.516"/><path id="Whisker1" fill="none" stroke="#000" stroke-width="1.528" stroke-linecap="round" d="M127.178 51.315l6.384.787"/><path id="Head" fill="#E29339" stroke="#000" stroke-width="1.528" stroke-linejoin="round" d="M96.987 52.02s17.593 18.543 24.847 3.59c0 0 7.256-.206 7.666-18.144.35-15.376-2.832-16.166-7.341-18.452-.038-.02-.112-.063-.112-.063s-4.542-15.488-26.097 2.01"/><g id="L_Eye"><path id="White" fill="#FFF" stroke="#000" d="M295.376 465.391c.94 0 1.791.382 2.408.998.616.617.998 1.468.998 2.408s-.382 1.791-.998 2.408a3.398 3.398 0 0 1-2.408.998c-.94 0-1.791-.382-2.408-.998a3.398 3.398 0 0 1-.998-2.408c0-.94.382-1.791.998-2.408a3.398 3.398 0 0 1 2.408-.998h0z" transform="rotate(-87.842 13.228 255.662) scale(.76416)"/><path id="Pupil" d="M296.137 467.327c.586 0 1.117.238 1.501.623.385.384.623.915.623 1.501 0 .586-.238 1.117-.623 1.501a2.114 2.114 0 0 1-1.501.623 2.114 2.114 0 0 1-1.501-.623 2.114 2.114 0 0 1-.623-1.501c0-.586.238-1.117.623-1.501a2.114 2.114 0 0 1 1.501-.623z" transform="rotate(-87.842 13.228 255.662) scale(.76416)"/></g><g id="R_Eye"><path id="White_1_" fill="#FFF" stroke="#000" d="M322.263 465.549c.94 0 1.791.382 2.408.998.616.617.998 1.468.998 2.408s-.382 1.791-.998 2.408a3.398 3.398 0 0 1-2.408.998c-.94 0-1.791-.382-2.408-.998a3.398 3.398 0 0 1-.998-2.408c0-.94.382-1.791.998-2.408a3.398 3.398 0 0 1 2.408-.998h0z" transform="rotate(-87.842 13.228 255.662) scale(.76416)"/><path id="Pupil_1_" d="M323.024 467.485c.586 0 1.117.238 1.501.623.385.384.623.915.623 1.501 0 .586-.238 1.117-.623 1.501a2.114 2.114 0 0 1-1.501.623 2.114 2.114 0 0 1-1.501-.623 2.114 2.114 0 0 1-.623-1.501c0-.586.238-1.117.623-1.501a2.114 2.114 0 0 1 1.501-.623z" transform="rotate(-87.842 13.228 255.662) scale(.76416)"/></g><path id="Nose" fill="#EC008C" stroke="#000" stroke-width="2" d="M308.973 472.729c1.331 0 2.536.351 3.409.918.874.567 1.414 1.351 1.414 2.215 0 .864-.54 1.648-1.414 2.215-.873.567-2.078.918-3.409.918s-2.536-.351-3.409-.918c-.874-.567-1.414-1.351-1.414-2.215 0-.864.54-1.648 1.414-2.215.873-.567 2.078-.918 3.409-.918h0z" transform="matrix(.02878 -.76361 .52296 .01971 -127.6 264)"/><g id="L_Ear"><path id="Outer_Ear" fill="#E29339" stroke="#000" stroke-width="1.528" stroke-linecap="round" stroke-linejoin="round" d="M101.228 43.522s-3.623 7.452-5.28 9.994c-1.658 2.542-3.2 3.293-2.446 4.308.753 1.015 10.193-1.505 13.055-1.005"/><path id="Inner_Ear" fill="#58595B" d="M282.808 434.062s2.397 8.46 2.004 10.903c.002-.002-.062.722-.062.722 2.062-1.062 6.784-3.407 9.625-4.25-4.754-2.08-11.567-7.375-11.567-7.375z" transform="rotate(-87.842 13.228 255.662) scale(.76416)"/></g><g id="R_Ear"><path id="Outer_Ear_1_" fill="#E29339" stroke="#000" stroke-width="1.528" stroke-linecap="round" stroke-linejoin="round" d="M106.551 18.038c-2.892.282-12.115-2.94-12.942-1.986-.828.956.653 1.822 2.114 4.481 1.462 2.658 4.513 10.362 4.513 10.362"/><path id="Inner_Ear_1_" fill="#58595B" d="M331.78 432.144s-2.397 8.46-2.004 10.903c-.003-.002.062.722.062.722-2.062-1.062-6.783-3.407-9.625-4.25 4.754-2.081 11.567-7.375 11.567-7.375z" transform="rotate(-87.842 13.228 255.662) scale(.76416)"/></g><path id="Tail" fill="#E29339" stroke="#000" stroke-width="1.528" d="M37.758 41.757a3.99 3.99 0 0 1-4.765 3c-7.247-1.626-12.868-.874-16.706 2.236-6.38 5.17-6.435 15.592-6.434 15.695a3.99 3.99 0 0 1-3.944 4.04 3.991 3.991 0 0 1-4.04-3.943c-.006-.583-.062-14.333 9.391-21.996 5.831-4.724 13.732-6.01 23.482-3.82a3.993 3.993 0 0 1 3.02 4.769l-.004.019h0z"/></svg>