<svg xmlns="http://www.w3.org/2000/svg" width="108.459" height="94.551" viewBox="0.31 0.914 108.459 94.551"><defs><style/></defs><g id="ID0.02422462310642004" transform="translate(-183 -146)"><path id="ID0.7662904155440629" fill="#919191" stroke="#919191" stroke-width="2.953" d="M198.125 212.9c10.367 0 19.76 1.014 26.562 2.652 6.803 1.639 11.013 3.901 11.013 6.398s-4.21 4.759-11.013 6.398c-6.802 1.638-16.195 2.652-26.562 2.652s-19.76-1.014-26.562-2.652c-6.803-1.639-11.013-3.901-11.013-6.398s4.21-4.759 11.013-6.398c6.802-1.638 16.195-2.652 26.562-2.652z" transform="matrix(.71598 -.00307 -.00397 1.25608 113.7 -54.55)"/><path id="ID0.8972083395346999" fill="#A85B00" stroke="none" stroke-linecap="round" d="M219.625 162.15c18.147 0 34.591 3.538 46.498 9.254 11.907 5.716 18.23 12.558 19.277 22.321 1.414 13.251-4.106 28.516-13.85 38.075-10.672 11.012-26.684 18.113-42.45 18.65-18.334.622-38.39-4.468-52.85-15.55-12.685-9.38-21.892-25.799-22.4-41.175-.32-9.814 7.37-16.605 19.277-22.321 11.907-5.716 28.351-9.254 46.498-9.254z" transform="rotate(22.091 59.372 387.933) scale(.69108)"/><path id="ID0.10735392430797219" fill="#EF9300" stroke="#EAC28E" stroke-width="2.372" stroke-linecap="round" d="M248.996 167.192c11.072 4.494 20.382 10.35 26.478 16.179 6.096 5.83 8.979 11.633 7.197 16.023-1.782 4.39-7.894 6.543-16.328 6.475-8.435-.069-19.191-2.357-30.264-6.851-11.073-4.495-20.382-10.35-26.479-16.18-6.096-5.829-8.979-11.632-7.197-16.022 1.782-4.39 7.894-6.543 16.328-6.475 8.435.068 19.192 2.357 30.265 6.851z"/><path id="ID0.4141157087869942" fill="none" stroke="#EAC28E" stroke-width="1.379" stroke-linecap="round" d="M246.393 166.84s-4.305 12.608-8.08 17.977c-2.791 3.971-11.154 9.383-11.154 9.383"/><path id="ID0.011384283192455769" fill="none" stroke="#EAC28E" stroke-width="1.379" stroke-linecap="round" d="M239.855 181.938l35.296 1.609"/><path id="ID0.8657065210863948" fill="none" stroke="#EAC28E" stroke-width="1.379" stroke-linecap="round" d="M260.285 204.922l-20.703-22.312-34.406-18.961"/><path id="ID0.9600630304776132" fill="none" stroke="#EAC28E" stroke-width="1.379" stroke-linecap="round" d="M238.27 182.077l-29.11-.59"/><path id="ID0.13748089503496885" fill="none" stroke="#EAC28E" stroke-width="1.379" stroke-linecap="round" d="M238.669 183.023l-14.12-22.363"/><path id="ID0.14989860635250807" fill="none" stroke="#EAC28E" stroke-width="1.379" stroke-linecap="round" d="M239.531 183.746l42.043 16.318"/><path id="ID0.12017638329416513" fill="none" stroke="#EF9300" stroke-width="1.544" stroke-linecap="round" d="M242.744 159.574c-.568-3.69-2.842-5.596-2.67-7.97.137-1.883 2.382-4.69 3.83-4.178 1.782.63 2.631 4.138 2.631 6.46 0 2.324-1.366 4.909-2.63 6.462-.438.536-.453-1.548-.774-2.283z"/><path id="ID0.2274529174901545" fill="none" stroke="#EF9300" stroke-width="1.544" stroke-linecap="round" d="M235.206 156.457c-1.048-1.34-1.861-2.768-3.017-2.67-1.094.093-2.477 1.888-1.935 2.67.773 1.114 3.006 1.254 4.565 1.122.501-.043.287-1.097 0-1.51z"/><path id="ID0.12017638329416513" fill="none" stroke="#EF9300" stroke-width="1.995" stroke-linecap="round" d="M179.5 117.7c-.734-4.768-3.673-7.232-3.45-10.3.177-2.433 3.078-6.061 4.95-5.4 2.303.814 3.4 5.348 3.4 8.35s-1.765 6.343-3.4 8.35c-.565.693-.584-2-1-2.95z" transform="matrix(-.4097 -.73025 -.67483 .3786 409.8 251.6)"/><path id="ID0.2274529174901545" fill="none" stroke="#EF9300" stroke-width="1.995" stroke-linecap="round" d="M172.15 120.65c-1.355-1.732-2.406-3.577-3.9-3.45-1.414.12-3.201 2.44-2.5 3.45.999 1.44 3.884 1.621 5.9 1.45.647-.055.37-1.417 0-1.95z" transform="matrix(-.4097 -.73025 -.67483 .3786 419.65 249.8)"/></g></svg>