<svg width="120" height="120" viewBox="0 0 120 120" xmlns="http://www.w3.org/2000/svg" xmlns:xlink="http://www.w3.org/1999/xlink"><defs><path id="a" d="M0 69.855h118.898V.975H0z"/></defs><g fill="none" fill-rule="evenodd"><path fill="#315F66" d="M4.096 48.647v46.377h35.642V48.647l-17.574-13.64z"/><path stroke="#2B5359" stroke-width="4.057" stroke-linecap="round" d="M41.807 50.228L22.193 35.006 2.03 50.228"/><path fill="#376B73" d="M60.666 41.468h6.392v-11.66h-6.392z"/><path fill="#376B73" d="M57.812 43.977v51.048h39.23V43.977L77.156 28.96z"/><path stroke="#315F66" stroke-width="4.466" stroke-linecap="round" d="M55.535 45.716L77.123 28.96l22.198 16.755"/><path fill="#315F66" d="M59.517 29.809h8.69v-2.836h-8.69z"/><path fill="#E6E6E6" d="M99.94 95.023h3.1V81.93h-3.1zm7.929 0h3.099V81.93h-3.1zm7.93 0h3.1V81.93h-3.1z"/><path fill="#E6E6E6" d="M97.074 88.912h20.275V85.71H97.074z"/><path fill="#8C6239" d="M37.878 95.023h3.176V78.771h-3.176z"/><g transform="translate(0 25.17)"><path d="M51.274 45.742c0 2.203-.98 4.174-2.525 5.51a7.25 7.25 0 0 1 .943 3.58c0 4.02-3.255 7.282-7.27 7.282a7.233 7.233 0 0 1-2.842-.578 7.239 7.239 0 0 1-2.843.578c-4.015 0-7.269-3.261-7.269-7.283 0-1.247.313-2.42.865-3.446a7.277 7.277 0 0 1-2.675-5.643 7.283 7.283 0 0 1 5.02-6.926c-.004-.118-.016-.237-.016-.358 0-4.022 3.254-7.284 7.268-7.284 4.015 0 7.27 3.262 7.27 7.284 0 .246-.013.49-.038.73a7.282 7.282 0 0 1 4.112 6.554" fill="#427953"/><path d="M32.662 38.45c0 .12.011.238.017.358a7.282 7.282 0 0 0-5.022 6.925 7.278 7.278 0 0 0 2.676 5.644 7.246 7.246 0 0 0-.865 3.446c0 4.023 3.253 7.283 7.268 7.283a7.24 7.24 0 0 0 2.844-.578h.008V31.184a7.272 7.272 0 0 0-6.926 7.268" fill="#386646"/><mask id="b" fill="#fff"><use xlink:href="#a"/></mask><path fill="#8C6239" mask="url(#b)" d="M57.806 69.854h4.301V47.857h-4.301z"/><path d="M75.939 37.22a9.837 9.837 0 0 1-3.417 7.458 9.82 9.82 0 0 1 1.275 4.844c0 5.443-4.406 9.857-9.838 9.857a9.797 9.797 0 0 1-3.849-.783 9.782 9.782 0 0 1-3.847.783c-5.434 0-9.837-4.414-9.837-9.857 0-1.688.424-3.274 1.17-4.663a9.862 9.862 0 0 1 3.176-17.013c-.008-.16-.024-.32-.024-.485 0-5.443 4.406-9.857 9.838-9.857 5.433 0 9.839 4.414 9.839 9.857 0 .335-.019.667-.052.991a9.849 9.849 0 0 1 5.566 8.868" fill="#427953" mask="url(#b)"/><path d="M50.748 27.351c0 .164.016.32.024.487a9.852 9.852 0 0 0-6.798 9.37 9.847 9.847 0 0 0 3.622 7.638 9.824 9.824 0 0 0-1.17 4.665c0 5.444 4.403 9.859 9.837 9.859 1.366 0 2.666-.28 3.847-.786.005 0 .008 0 .012.003v-41.07a9.838 9.838 0 0 0-9.374 9.834" fill="#386646" mask="url(#b)"/></g></g></svg>