<svg width="40" height="42" viewBox="0 0 40 42" xmlns="http://www.w3.org/2000/svg"><g fill="none" fill-rule="evenodd"><path d="M12.783 40.65v-11.8m5.007 11.8v-11.8" stroke="#E54529" stroke-width=".8" stroke-linecap="round"/><path d="M30.733 13.92h3.085" stroke="#E54529" stroke-width="1.6" stroke-linecap="round"/><path d="M30.822 12.758c0 4.198-3.364 7.601-7.513 7.601s-7.512-3.403-7.512-7.6c0-4.199 3.363-7.601 7.512-7.601 4.15 0 7.513 3.402 7.513 7.6" fill="#FFDB5D"/><path d="M26.39 12.758c0 1.721-1.38 3.116-3.08 3.116-1.702 0-3.08-1.395-3.08-3.116 0-1.72 1.378-3.116 3.08-3.116 1.7 0 3.08 1.395 3.08 3.116" fill="#FFF4E3"/><path d="M25.319 12.758c0 1.124-.9 2.034-2.01 2.034-1.11 0-2.01-.91-2.01-2.034 0-1.123.9-2.033 2.01-2.033 1.11 0 2.01.91 2.01 2.033" fill="#17242D"/><path d="M24.726 5.8c-1.31 0-2.372-1.075-2.372-2.4S23.416 1 24.726 1" stroke="#FFDB5D" stroke-width=".8"/><path d="M28.053 18.383c0 7.838-6.28 14.191-14.027 14.191C6.28 32.574 0 26.221 0 18.383h28.053z" fill="#FFDB5D"/><path d="M18.549 18.4c0 3.617-2.899 6.55-6.474 6.55-3.576 0-6.474-2.933-6.474-6.55h12.948z" fill="#FECB43"/><path d="M0 18.441v-6.217h6.961c1.1 0 2.162.398 2.996 1.122l5.89 5.112L0 18.44z" fill="#FFDB5D"/></g></svg>