<svg width="120" height="120" viewBox="0 0 120 120" xmlns="http://www.w3.org/2000/svg" xmlns:xlink="http://www.w3.org/1999/xlink"><defs><path id="a" d="M0 119.21h21.573V.749H0z"/></defs><g fill="none" fill-rule="evenodd"><path fill="#916D57" d="M51.714 53.237h16.101l.029 55.462H51.743z"/><path fill="#886257" d="M51.714 53.252h16.073v-.529H51.714z"/><path fill="#875F55" d="M51.047 52.752h17.465v-.7H51.047z"/><path fill="#9B7260" d="M50.365 52.082h18.814v-.686H50.366z"/><path fill="#AC836D" d="M50.365 51.41h18.758v-1.385H50.365z"/><path fill="#75524C" d="M49.057 50.025h21.516v-.7H49.057z"/><path fill="#D8AB81" d="M49.725 49.31h20.008V35.875H49.725z"/><path fill="#A08572" d="M49 35.874h21.544v-.7H49z"/><path fill="#BC916E" d="M49.669 35.188h20.178v-.742H49.67z"/><path fill="#C49977" d="M50.379 34.446H69.15v-.571H50.38z"/><path fill="#A9856D" d="M51.686 33.917h16.101v-3.47H51.686z"/><path fill="#798B9F" d="M50.379 33.889h.682V29.79h-.682zm18.133-.013h.626v-3.428h-.626z"/><path fill="#778C9D" d="M51.685 30.462h.683v-5.383h-.683zm15.448 0h.655v-5.397h-.654z"/><path fill="#0A3045" d="M51.7 30.462h16.073l-3.979-6.083h-8.057z"/><path fill="#AA846F" d="M55.75 24.408h8.044v-4.055h-8.043z"/><path fill="#778C9D" d="M55.75 20.381h.696V14.34h-.696zm7.433-.028h.611v-6.041h-.611z"/><path fill="#0A3045" d="M55.75 20.381h7.972l-2.614-7.397h-2.657z"/><path fill="#0A3045" d="M59.048 12.998h1.349V.789h-1.35z"/><path fill="#444A4A" d="M58.763 12.998h2.017v-2.056h-2.017z"/><path fill="#DAC99D" d="M53.022 49.311h13.53V35.846h-13.53z"/><g transform="translate(49 .041)"><path d="M4.889 42.273c.015-3.128 2.558-5.655 5.67-5.64a5.664 5.664 0 0 1 5.642 5.684 5.65 5.65 0 0 1-5.685 5.625c-3.111 0-5.641-2.542-5.627-5.67" fill="#AB9073"/><path d="M5.16 42.244c.013-2.983 2.43-5.397 5.4-5.383 2.969.014 5.371 2.441 5.356 5.426a5.404 5.404 0 0 1-5.4 5.398c-2.97-.014-5.372-2.442-5.357-5.441" fill="#D6CDC4"/><path d="M10.958 43.815a.316.316 0 0 1-.313.314s-.299-.142-.299-.314l.014-5.026c0-.17.143-.3.313-.3 0 0 .299 0 .299.357l-.014 4.97z" fill="#AE937E"/><path d="M10.886 44.015c-.1.129-.298.143-.426.043 0 0-.242-.2-.043-.443l2.06-2.527a.311.311 0 0 1 .427-.043.305.305 0 0 1 .042.443l-2.06 2.527z" fill="#987E71"/><mask id="b" fill="#fff"><use xlink:href="#a"/></mask><path fill="#614338" mask="url(#b)" d="M4.76 33.876h1.266v-2.699H4.76zm2.147 0h1.265v-2.699H6.907zm2.16 0h1.265v-2.699H9.067zm2.161 0h1.264v-2.699h-1.264zm2.159 0h1.265v-2.699h-1.265zm2.147 0h1.263v-2.699h-1.263zm-7.902-9.509H8.3V21.67h-.668zm1.122 0h.67V21.67h-.67zm1.138 0h.653V21.67h-.653zm1.122 0h.653V21.67h-.653zm1.123 0h.668V21.67h-.668zm1.122 0h.67V21.67h-.67z"/><path fill="#62443A" mask="url(#b)" d="M4.76 51.354h1.266v-1.156H4.76zm2.147 0h1.265v-1.156H6.907zm2.16 0h1.265v-1.156H9.067zm2.161 0h1.264v-1.156h-1.264zm2.159 0h1.265v-1.156h-1.265zm2.147 0h1.263v-1.156h-1.263z"/><path fill="#FFF" mask="url(#b)" d="M4.732 37.204h.669v-.686h-.669zm11.413-.014h.696v-.686h-.696zm.013 10.795h.668V47.3h-.668zM4.732 47.97h.682v-.671h-.682z"/><path fill="#AF826B" mask="url(#b)" d="M2.714 108.515h7.93V53.21h-7.93z"/><path fill="#663F42" mask="url(#b)" d="M2.373 103.347h16.542v-1.015H2.373zm0-12.767h16.542v-1.013H2.373zm0-12.765h16.542v-1.014H2.373zm0-12.766h16.542v-1.014H2.373z"/><path fill="#62443A" mask="url(#b)" d="M4.76 102.318h1.266v-10.51H4.76zm2.147 0h1.265v-10.51H6.907zm2.16 0h1.265v-10.51H9.067zm2.161 0h1.264v-10.51h-1.264zm2.159 0h1.265v-10.51h-1.265zm2.147 0h1.263v-10.51h-1.263zM4.76 89.567h1.266V78.915H4.76zm2.147 0h1.265V78.915H6.907zm2.16 0h1.265V78.915H9.067zm2.161 0h1.264V78.915h-1.264zm2.159 0h1.265V78.915h-1.265zm2.147 0h1.263V78.915h-1.263zM4.76 76.8h1.266V66.149H4.76zm2.147 0h1.265V66.149H6.907zm2.16 0h1.265V66.149H9.067zm2.161 0h1.264V66.149h-1.264zm2.159 0h1.265V66.149h-1.265zm2.147 0h1.263V66.149h-1.263zM4.76 64.02h1.266v-9.68H4.76zm2.147 0h1.265v-9.68H6.907zm2.16 0h1.265v-9.68H9.067zm2.161 0h1.264v-9.68h-1.264zm2.159 0h1.265v-9.68h-1.265zm2.147 0h1.263v-9.68h-1.263z"/><path fill="#0A3045" mask="url(#b)" d="M2.686 30.422h.938v-1.058h-.938zm15.164 0h.936v-1.058h-.937zM13.856 20.34h.937v-1.056h-.937zm-7.106 0h.939v-1.056h-.938z"/><path fill="#6B4A41" mask="url(#b)" d="M1.819 119.21h17.736v-10.695H1.819z"/><path fill="#956F5C" mask="url(#b)" d="M1.819 119.21h8.783v-10.695H1.819z"/></g></g></svg>