<svg width="120" height="120" viewBox="0 0 120 120" xmlns="http://www.w3.org/2000/svg" xmlns:xlink="http://www.w3.org/1999/xlink"><defs><path id="a" d="M0 .473h109.775v90.088H0z"/></defs><g fill="none" fill-rule="evenodd"><g transform="translate(10 .107)"><mask id="b" fill="#fff"><use xlink:href="#a"/></mask><path d="M42.797 80.87c-5.685-1.63-20.967-7.033-21.867-7.545a20.107 20.107 0 0 1-1.707-1.07l6.37-2.899s-9.5-6.12-13.07-8.045c-3.57-1.925-5.486-4.306-5.486-4.306l3.843.269s-3.202-4.9-7.08-13.072C-.075 36.032 0 34.83 0 34.83l9.175 6.249 1.495-1.697s4.957 6.04 7.616 5.385c2.66-.656 3.088-3.257 1.507-5.461-1.58-2.204-10.51-14.366-10.51-14.366s7.024 4.559 8.436 1.147c1.413-3.412-.872-13.142-.872-13.142s4.08.307 5.886-3.282c1.807-3.59 3.215-9.19 3.215-9.19s6.545 11.89 9.109 13.285c2.565 1.394 4.688-1.172 4.688-1.172s-.264 6.031 1.049 12.807c1.313 6.776 5.18 9.114 5.18 9.114l1.237-13.402s.776 4.137 1.76 3.327c.984-.81 1.574-11.767 1.574-11.767s1.606 5.002 2.985 4.743c1.379-.258 5.233-4.847 5.957-7.4.725-2.554 1.175-3.816 1.175-3.816s1.654 4.342 2.806 4.35c1.154.007 4.895-2.05 6.998-4.496a105.656 105.656 0 0 0 3.184-3.925 105.778 105.778 0 0 0-.33 5.043c-.12 3.225 1.23 7.275 2.08 8.053.852.777 5.015-1.286 5.015-1.286s-.527 1.232-1.73 3.598c-1.202 2.366-1.49 8.352-.655 9.478.837 1.127 5.412-1.454 5.412-1.454s-7.01 8.443-6.838 9.705c.172 1.263 3.552-1.246 3.552-1.246L71.96 44.688s4.425.911 9.993-3.17c5.566-4.08 9.469-8.685 9.469-8.685s-.185 3.325 2.644 4.044c2.83.719 15.71-3.56 15.71-3.56s-2.77 5.065-3.884 8.926c-1.113 3.862 2.09 6.407 2.09 6.407s-8.286 5.589-9.567 9.052c-1.282 3.463 6.97 4.89 6.97 4.89S90.57 65.45 87.913 65.993c-2.657.544-4.11 2.745-2.603 5.032 1.506 2.287 9.247 1.222 9.247 1.222l-.057 2.26 10.979 1.647s-.76.934-9.157 4.296c-8.396 3.363-14.074 4.784-14.074 4.784l3.002 2.413s-3.023.446-6.95-.567c-3.928-1.012-15.056-2.974-15.056-2.974l2.704 6.454s-.798-.096-1.98-.373c-1.007-.237-15.893-6.652-21.171-9.318" fill="#CD6549" mask="url(#b)"/></g><path d="M41.172 118.221c3.366-13.185 7.073-26.114 11.37-38.9-2.47-2.121-5.064-4.636-7.623-7.25-3.414.016-4.601.883-8.441.063-1.146-.245-1.798-.477-2.917-.826l1.5.228 1.484.28c3.58.558 4.922-.18 7.806-.327-2.515-2.588-4.988-5.249-7.269-7.699-3.775-.184-8.793-.644-11.639-3.271l.263.13c4.033 2.217 6.603 2.475 10.862 2.59-.372-.401-.74-.795-1.1-1.181a1309.62 1309.62 0 0 1-5.868-6.313.311.311 0 0 1-.018-.011c-3.9-.31-6.544-.251-9.782-2.746 3.578 2.238 5.583 2.103 9.44 2.367a469.008 469.008 0 0 1-6.634-7.35c-.699-.792-.444-.488-1.053-1.265.73.639.47.392 1.205 1.123a421.786 421.786 0 0 1 7.064 7.23c1.605-2.017-.025-7.607-.66-9.654 1.007 2.155 2.749 7.718.97 9.977 2.276 2.376 4.545 4.764 6.818 7.109.549-2.857-.425-5.671-1.61-8.291 1.793 2.482 2.725 5.79 2.125 8.821 2.331 2.403 4.891 5.086 7.511 7.715.891-2.747.55-2.935.097-6.04 1.112 2.829 1.157 3.772.386 6.523 2.289 2.282 4.615 4.506 6.868 6.454-2.049-5.043-3.861-11.083-5.472-17.21-5.862-2.257-9.356-4.62-11.758-10.69l.777 1.228c3.044 4.851 5.58 6.538 10.702 8.393-1.069-4.131-2.048-8.278-2.946-12.161-4.087-1.571-5.474-2.647-8.5-5.904 3.54 2.993 4.108 3.824 8.38 5.381-.434-1.882-.85-3.698-1.247-5.417-.496-2.146-.986-4.278-1.478-6.403a.334.334 0 0 1-.052-.081c-3.784-2.894-5.787-4.513-8.774-8.364 3.357 3.417 4.958 4.882 8.626 7.578-1.429-6.166-2.875-12.273-4.52-18.472.484 1.226.398.948.818 2.271 1.588 5.002 2.967 10.614 4.267 16.067 1.959-3.093 3.069-5.532 4.288-9.12-.549 3.582-2.221 6.906-4.084 9.98.52 2.18 1.026 4.33 1.53 6.397.422 1.725.86 3.553 1.32 5.447 2.24-4.144 2.43-4.885 3.168-10.02-.112 5.082-.752 6.467-2.977 10.809.92 3.791 1.916 7.83 2.997 11.85 3.134-2.715 4.439-5.756 4.943-9.935.048 4.28-1.647 7.72-4.788 10.508 1.683 6.212 3.568 12.354 5.683 17.451a416.148 416.148 0 0 1 6.626-18.056c.21-.53.418-1.062.628-1.594-1.446-1.724-2.72-4.069-3.767-6.62-2.6-1.381-3.84-2.32-5.82-4.518 2.282 1.94 3.045 2.692 5.614 4.005-1.558-3.952-2.57-8.327-2.826-11.644.801 3.62 1.805 7.94 3.407 11.817 1.169-2.442 1.017-5.371.91-8.02.387 2.713.458 5.835-.774 8.344.944 2.224 2.091 4.29 3.517 5.978a1391.91 1391.91 0 0 1 3.965-9.913c-1.173-2.19-1.943-4.707-2.46-7.367a14.916 14.916 0 0 1-9.552-5.575c2.748 2.635 5.648 4.513 9.449 5.017-.962-5.356-.945-11.23-1.132-16.15.604 2.804.714 4.89.8 7.724.052 1.694.39 4.869.99 8 1.882-2.333 2.702-6.166 3.053-9.028.159 3.01-.936 7.331-2.922 9.695.542 2.651 1.272 5.194 2.177 6.69 2.323-5.728 4.7-11.472 7.12-17.168-.784-.966-1.268-2.44-1.552-4.052-2.187-.773-3.997-2.624-5.302-4.491 1.474 1.652 3.12 3.443 5.252 4.194-.377-2.378-.34-5.003-.19-6.716.164 1.68.247 4.294.679 6.612 1.85-1.558 2.852-4.766 2.844-7.077l-.019-1.076.143 1.071c.206 2.434-.956 5.874-2.89 7.474.278 1.345.687 2.562 1.315 3.401a889.73 889.73 0 0 1 6.263-14.376c.498-1.114 1.097-2.556 1.708-3.575-.24.912-.591 1.76-.928 2.64a1432.623 1432.623 0 0 1-6.14 15.684c1.039-.183 2.178-.803 3.307-1.609-.333-2.488 1.151-5.802 2.956-7.449l.832-.688-.745.776c-1.575 1.69-3.02 4.726-2.72 7.126 1.892-1.408 3.728-3.27 4.99-4.392-1.054 1.36-2.809 3.312-4.702 4.8 2.074.897 4.5.701 6.704.49-2.226.484-4.811.613-6.942-.306-1.323 1.006-2.702 1.768-3.95 1.928-2.278 5.737-4.572 11.47-6.835 17.218 1.703-.41 4.09-1.84 6.405-3.502.149-3.083 2.28-6.998 4.442-9.1-1.688 2.339-3.69 5.71-3.893 8.7 2.568-1.89 4.972-3.992 6.16-5.2 1.99-2.02 3.488-3.476 5.835-5.124-3.479 3.485-7.458 7.806-11.8 11.083 3.13 2.213 6.534 2.805 10.34 2.737-3.766.62-7.648-.25-10.796-2.398-2.275 1.667-4.646 3.033-7.098 3.832a1089.98 1089.98 0 0 0-3.877 10c2.313-.23 4.69-.993 7.02-2.04.8-2.68 2.973-4.922 5.099-6.65-1.877 1.871-3.979 3.917-4.78 6.504 3.81-1.758 7.481-4.246 10.528-6.357-2.44 2.259-6.156 4.782-9.984 6.625 2.777.781 3.849.747 6.841.874-2.946.268-4.495.114-7.34-.638-2.642 1.227-5.314 2.11-7.636 2.342a431.721 431.721 0 0 0-6.863 19.314c4.863-2.283 10.205-5.394 15.454-8.68-.41-4.18.681-7.856 3.625-10.965-2.47 3.41-3.577 6.527-3.122 10.648 3.525-2.216 6.999-4.502 10.25-6.66 1.317-4.698 1.787-6.149 5.157-9.954-2.947 4.27-3.31 4.942-4.481 9.505 1.623-1.078 3.187-2.12 4.669-3.101 1.773-1.175 3.605-2.407 5.467-3.655.722-3.521 1.753-7.096 3.783-10.098-1.542 3.461-2.384 6.006-3.049 9.606 4.659-3.119 9.483-6.3 14.046-8.892 1.208-.686.956-.54 2.143-1.111-5.418 3.432-10.627 6.93-15.865 10.486 4.523.512 6.694.525 11.478.297-4.807.798-7.377.625-12.12.178a.299.299 0 0 1-.094.024c-1.803 1.225-3.611 2.458-5.434 3.695-1.529 1.04-3.145 2.144-4.825 3.286 4.253 1.791 5.22 1.563 9.876 1.773-4.46.337-6.202.18-10.321-1.471-3.23 2.194-6.684 4.514-10.191 6.766 5.018 2.118 8.026 2.603 13.555 1.11l1.405-.372c-5.886 2.822-10.057 2.183-15.891-.143-5.164 3.287-10.41 6.387-15.206 8.676 2.998.1 6.24.044 9.488-.08 1.327-2.596 1.988-3.258 4.749-4.59-2.462 1.987-2.826 1.875-4.063 4.564 3.493-.142 6.975-.354 10.156-.528 1.587-2.754 4.597-4.632 7.684-5.253-2.728 1.15-5.432 2.605-6.948 5.213l.063-.003c3.353-.179 6.732-.395 10.11-.599.048-2.917 5.252-5.909 7.498-6.822-1.897 1.093-7.059 4.19-7.05 6.795 3.419-.205 6.835-.393 10.22-.514 1.035-.037.677-.032 1.647-.005-.975.155-.582.106-1.632.213-3.264.332-6.563.62-9.862.886 3.01 2.427 4.39 3.888 8.537 4.676-4.075-.368-5.975-2.21-9.052-4.635-2.878.229-5.754.44-8.608.647l-1.61.12c3.204 2.809 5.265 4.366 9.73 5.479l.282.082c-3.873-.005-7.868-3.076-10.764-5.505-3.368.25-7.027.527-10.663.717 2.138 2.145 2.572 3.618 5.649 5.687l1.28.803 1.255.851c-1.058-.504-1.694-.776-2.701-1.376-3.427-2.037-3.666-3.492-6.27-5.887a.36.36 0 0 1-.06-.035c-3.473.168-6.906.25-10.027.147-4.184 12.9-7.785 25.926-11.048 39.217a1.052 1.052 0 1 1-2.041-.508" fill="#B0563D"/></g></svg>