<svg width="300" height="120" viewBox="0 0 300 120" xmlns="http://www.w3.org/2000/svg"><g fill="none"><path d="M186.6 70.9c4.9 2.2 5.2 23.2 5.2 29.2 0 .7.8.8 1.4.3C215.5 80.6 212 56.2 212 56.2c-9.4-.4-18 3.8-25.4 14.7z" fill="#6DA3B2"/><path d="M186.8 70.8s.4.3.8 1c.5.7 1 1.7 1.4 3.1.9 2.7 1.3 6.4 1.6 10.2.2 1.9.3 3.8.4 5.5.1 1.8.3 3.4.4 4.8.2 2.8.4 4.7.4 4.7v-4.7c0-1.4-.1-3.1-.2-4.8-.1-1.8-.2-3.7-.4-5.5-.1-.9-.2-1.9-.3-2.8-.1-.9-.2-1.8-.4-2.7-.1-.9-.3-1.7-.5-2.5s-.4-1.5-.7-2.2c-.5-1.3-1.1-2.4-1.6-3-.5-.8-.9-1.1-.9-1.1zM212 56.2s.1.8.2 2.1v2.4c0 .9-.1 2-.2 3.1s-.3 2.4-.5 3.7c-.3 1.3-.5 2.7-.9 4.1-.2.7-.3 1.4-.6 2.1-.2.7-.5 1.4-.7 2.1-.1.4-.2.7-.4 1.1l-.4 1.1-.9 2.1c-.6 1.4-1.3 2.8-2 4.1-.8 1.3-1.5 2.6-2.3 3.8-.8 1.2-1.6 2.3-2.4 3.4-.7 1.1-1.6 2-2.3 2.9-.7.9-1.4 1.7-2 2.4-.6.7-1.2 1.3-1.7 1.8-.9 1-1.5 1.5-1.5 1.5s.6-.5 1.5-1.5c.5-.5 1.1-1 1.8-1.7.7-.6 1.4-1.4 2.2-2.3.7-.9 1.6-1.8 2.4-2.9.8-1.1 1.6-2.2 2.5-3.4.8-1.2 1.5-2.5 2.3-3.8.7-1.4 1.4-2.7 2.1-4.2.3-.7.6-1.4.9-2.2l.4-1.1c.1-.4.2-.7.4-1.1.2-.7.5-1.5.7-2.2.2-.7.4-1.4.5-2.1.4-1.4.6-2.8.8-4.1.2-1.3.3-2.6.4-3.7 0-.6.1-1.1.1-1.7v-1.5c0-.9-.1-1.8-.1-2.4-.2-1.2-.3-1.9-.3-1.9z" fill="#6C8D9C"/><path d="M54.9 61.3c-5.4 0-9.6-2.2-15.4-10.6C34 42.6 23.6 28.8 6.6 23.3c-1-.3-1.8.7-1.4 1.6 1.2 2.7 5.7 8.6 8.5 12.5 7.2 9.9 7.1 16.7 7.4 22.8.4 7.5-6.8 22.4-11.7 29.3-.6.9.2 1.9 1.3 1.7 7.7-1.7 15.8-4.9 23.1-11.1 9.3-7.8 14.4-10.7 20.7-10.6" fill="#93BCC7"/><path d="M50.7 60.7s-.8-.4-2.3-1.1c-.7-.4-1.5-.9-2.3-1.6-.4-.4-.8-.8-1.2-1.3-.4-.5-.9-.9-1.3-1.5-.4-.5-.9-1.1-1.2-1.7-.4-.6-.8-1.3-1.2-2-.8-1.4-1.7-2.8-2.8-4.2-1-1.4-2.1-2.9-3.3-4.3l-3.6-4.2c-1.3-1.3-2.6-2.7-4-3.9-1.3-1.2-2.7-2.4-4.1-3.5-2.8-2.1-5.6-3.8-8.1-5.1-2.5-1.3-4.7-2.1-6.2-2.6-.8-.3-1.4-.4-1.8-.5-.4-.1-.6-.2-.6-.2s.2.1.6.2c.4.1 1 .4 1.7.7 1.5.6 3.5 1.7 5.9 3.1 1.2.7 2.5 1.5 3.8 2.4 1.3.9 2.6 1.9 3.9 3 1.3 1.1 2.7 2.2 4 3.5 1.3 1.2 2.6 2.5 3.9 3.9 2.5 2.7 4.8 5.5 6.9 8.2 1 1.4 2 2.7 2.9 4 .4.7.9 1.3 1.3 1.9.4.6.9 1.2 1.4 1.7 1 1 1.9 1.9 2.8 2.6.9.7 1.8 1.2 2.6 1.5.8.3 1.4.5 1.8.6.3.3.5.4.5.4zM7.2 28.1s.1.2.4.6c.2.4.6 1 1.1 1.8 1 1.5 2.4 3.6 4.2 6.1.9 1.3 1.8 2.6 2.7 4.1.9 1.5 1.8 3.1 2.5 4.8.7 1.7 1.3 3.6 1.7 5.5.4 1.9.6 3.9.7 5.9.1 2 0 4-.3 6s-.7 3.9-1.2 5.7c-1 3.6-2.4 7-3.7 9.7-1.3 2.8-2.5 5-3.3 6.6-.9 1.6-1.4 2.5-1.4 2.5s.1-.2.4-.6c.3-.4.7-1 1.2-1.7 1-1.5 2.4-3.7 3.8-6.4s3-6 4.1-9.7c.6-1.8 1.1-3.8 1.3-5.9.3-2 .4-4.1.4-6.2-.1-2.1-.3-4.2-.8-6.2-.4-2-1.1-3.9-1.9-5.7-.8-1.8-1.7-3.4-2.8-4.9-1-1.5-2-2.8-3-4-1.9-2.4-3.5-4.4-4.6-5.8-.9-1.3-1.5-2.2-1.5-2.2zM49.3 70s-.2 0-.5.1-.8.2-1.3.4c-1.1.4-2.7 1.1-4.5 2.1-1.8 1-3.7 2.4-5.8 3.9-2.1 1.5-4.2 3.1-6.4 4.7-1.1.8-2.2 1.5-3.3 2.3-1.1.7-2.2 1.4-3.3 2-1.1.6-2.2 1.2-3.2 1.7s-2 1-2.9 1.4c-.9.4-1.8.7-2.5 1-.8.3-1.4.5-2 .7-1.1.3-1.8.6-1.8.6s.7-.1 1.8-.3c.6-.1 1.3-.3 2.1-.5s1.7-.4 2.7-.8c1-.3 2-.7 3.1-1.2.5-.2 1.1-.5 1.6-.7.6-.3 1.1-.6 1.7-.8 1.1-.6 2.3-1.2 3.4-2 1.1-.7 2.3-1.5 3.4-2.2 2.2-1.6 4.3-3.3 6.3-4.8 2-1.6 3.9-3 5.5-4.2 1.6-1.2 3.1-2.1 4.1-2.5 1.1-.7 1.8-.9 1.8-.9z" fill="#6C8D9C"/><path d="M105.8 85c-7.4 0-14.5 3-17.8 3.4-3.4.3.7-5.7-1-8.4" fill="#AEDEEB"/><path d="M101.1 85.3h-.9c-.6 0-1.4.1-2.4.3-1 .2-2.1.4-3.4.6-1.2.3-2.5.6-3.8.9-.6.2-1.3.3-1.9.5-.6.2-1.3.3-1.4.1-.1 0-.2-.5-.1-1s.2-1.1.2-1.6c.2-2 .1-3.4.1-3.4s-.3 1.3-.8 3.2c-.1.5-.3 1-.5 1.5-.1.3-.1.6-.1 1s.2 1 .7 1.3c.5.3.9.3 1.3.3s.7-.1 1.1-.2c.6-.1 1.3-.3 2-.4 1.3-.3 2.6-.7 3.8-1.1 1.2-.4 2.3-.7 3.2-1 .9-.3 1.7-.6 2.3-.8l.6-.2z" fill="#648F9E"/><path d="M83.3 79c-5.6 0-10.9 2.3-13.5 2.5-2.5.3.5-4.3-.8-6.4" fill="#AEDEEB"/><path d="M80 79.2h-.8c-.5 0-1.2.1-2 .3-.8.1-1.8.3-2.7.6-1 .2-2 .5-3.1.7-.5.1-1 .2-1.5.2h-.4l.1.1-.1-.1v-.1c-.1-.3 0-.8 0-1.3.1-.5.1-.9.1-1.3.1-.8-.1-1.6-.2-2.1-.2-.5-.4-.7-.4-.7s.1.3.1.7c0 .5-.1 1.1-.3 1.9-.1.4-.2.8-.4 1.3-.1.5-.3 1-.2 1.6 0 .1.1.4.2.6 0 .1.1.1.1.2l.1.1.2.2c.5.3.8.3 1.1.3.6 0 1.2-.1 1.7-.2 2.2-.4 4.3-1.2 5.8-1.8.8-.3 1.4-.6 1.8-.8l.8-.4z" fill="#648F9E"/><path d="M177.4 37.3c-3 .4-6.4.3-9.2-3.9-2.8-4.1-19-19.7-33.8-15.6-1.9.5 1.2.4 4.2 6.2s2.6 14.7-3.5 17.5" fill="#93BCC7"/><path d="M174 37.1s-.2 0-.5-.1-.8-.1-1.3-.4c-.5-.2-1.1-.6-1.7-1.2-.6-.6-1.2-1.3-1.8-2.1-.6-.8-1.3-1.7-2-2.6-.8-.9-1.6-1.9-2.5-2.8-1.8-1.8-4-3.6-6.3-5.2-1.2-.8-2.3-1.5-3.5-2.1-1.2-.7-2.4-1.2-3.6-1.7-2.4-1-4.8-1.5-6.9-1.8-1-.1-2-.2-2.8-.2-.8 0-1.6 0-2.2.1-.6 0-1.1.1-1.4.2-.3 0-.5.1-.5.1h1.9c1.2 0 2.9.2 4.9.6 2 .4 4.2 1.1 6.5 2.1s4.7 2.3 6.9 3.8 4.3 3.2 6.2 4.9c.9.9 1.8 1.7 2.6 2.6.8.9 1.5 1.7 2.2 2.5 1.4 1.5 2.8 2.7 4 3 .6.2 1.1.2 1.4.2.3.1.4.1.4.1zm-37 3.2s.1 0 .2-.1.4-.2.6-.4c.2-.2.5-.5.9-.8.3-.3.6-.7.9-1.2.6-1 1.1-2.2 1.4-3.6.1-.7.2-1.4.2-2.2 0-.7-.1-1.5-.1-2.2-.2-1.5-.5-3-1-4.3-.5-1.3-1.2-2.5-1.9-3.3-.7-.9-1.4-1.5-1.9-1.9-.5-.4-.8-.6-.8-.6s.2.3.6.8c.4.5.9 1.2 1.5 2.1.5.9 1.1 2 1.4 3.3.2.6.3 1.3.5 2l.3 2.1c.1.7.2 1.4.2 2.1 0 .7 0 1.4-.1 2-.1.6-.2 1.3-.4 1.8-.2.6-.3 1.1-.6 1.6-.4 1-.9 1.7-1.3 2.2-.3.4-.6.6-.6.6z" fill="#6C8D9C"/><path d="M265.4 56.2c1.2-5.6-35.1-20.1-89.4-19.3-54.4.8-101 21.2-123.8 24.6-7.9 1.2-9.1 6 1.2 7.9 10.3 1.9 36.5 19 87.7 21.4 51.2 2.4 102.4-7.5 105.9-19 0 0 17.5-11.3 18.4-15.6z" fill="#93BCC7"/><path d="M58.9 70.1c5.4-.5 4.6 3.5 9.8 2.4 5.2-1.1 9 1.9 13.3 3.3 4.3 1.4 8.7-.8 13.3-.8 4.6 0 5.4 4.1 9 4.1 3.5 0 9 3 13.3 4.3 4.3 1.4 12.8-5.2 15.5-6.2 2.7-1.1 6.8-.3 9.8.5 3 .8 7.1-3.5 14.9-1.4 7.9 2.2 29.1 14.9 33.9 6.8 4.8-8.1 16-11.7 19.3-11.7 3.3 0 3.3-.8 5.2-1.9 1.9-1.1 6 4.1 8.1.3 2.2-3.8 6.2-3.6 8.6-3.3 2.4.3 3.6-6.6 10.4-7.5 6.8-.8 11.4.6 15.2-1.3 2.3-1.2 4.2-2.1 6.8-2.7.2.4.3.8.2 1.1-1 4.4-18.5 15.7-18.5 15.7-3.6 11.5-54.8 21.4-105.9 19C95 88.7 69.2 74.6 57 70.4c.6-.1 1.2-.3 1.9-.3z" fill="#AEDEEB"/><path d="M264.4 54.1s-.3-.3-.9-.8c-.6-.5-1.5-1.2-2.8-2-2.5-1.6-6.3-3.6-11.1-5.3-4.8-1.7-10.5-3.3-16.8-4.5-6.2-1.2-12.9-2.2-19.6-3.1-6.7-.8-13.5-1.4-19.8-1.7-6.3-.3-12.3-.3-17.3-.1-2.5.1-4.9.2-6.9.3-2.1.1-3.8.3-5.3.4-2.9.3-4.6.5-4.6.5s1.7-.1 4.6-.3c2.9-.2 7.2-.2 12.2-.3 2.5 0 5.3 0 8.2.1 2.9.1 5.9.3 9.1.4 6.3.3 13 1 19.7 1.9 6.7.8 13.4 1.7 19.6 2.9 3.1.6 6.1 1.2 8.9 1.8 2.8.7 5.4 1.4 7.8 2.2 4.8 1.5 8.6 3.3 11.2 4.8 1.3.7 2.2 1.4 2.9 1.9.5.7.9.9.9.9zm-117.1-15h-.8c-.5 0-1.2 0-2.2.1-1.9.1-4.6.4-7.7.9-3.2.5-6.9 1.1-10.8 1.9-3.9.8-8.1 1.7-12.3 2.7-2.1.5-4.2 1-6.2 1.5-2.1.5-4.1 1-6 1.5-3.9 1-7.5 2.1-10.6 3.1-3.1.9-5.6 1.9-7.4 2.5-1.8.6-2.8 1-2.8 1s1-.3 2.8-.8c1.8-.5 4.4-1.2 7.5-2 3.1-.8 6.7-1.7 10.6-2.6 3.9-.9 8.1-1.9 12.3-2.8 4.2-1 8.3-1.9 12.3-2.8 3.9-.9 7.6-1.7 10.7-2.3 3.1-.6 5.8-1.1 7.6-1.4 1.9-.4 3-.5 3-.5z" fill="#6C8D9C"/><path d="M229.8 82.3s-.5.1-1.5.4c-1 .2-2.3.6-4.1 1-1.8.4-3.9.9-6.5 1.4-1.2.3-2.6.5-4 .7-1.4.2-2.9.5-4.4.8-3.1.5-6.5 1-10 1.4-3.6.4-7.3.8-11.2 1.1-7.8.7-16.2 1.1-24.5 1.3-8.3.3-16.7 0-24.5-.4-3.9-.2-7.7-.5-11.3-.8-3.6-.3-7-.6-10.1-1-1.6-.2-3-.4-4.5-.6-1.4-.2-2.8-.4-4-.6-1.3-.2-2.4-.4-3.5-.6-1.1-.2-2.1-.4-3-.6-.9-.2-1.7-.4-2.4-.5-.7-.2-1.3-.3-1.7-.5-.9-.3-1.5-.4-1.5-.4s.5.2 1.4.5c.5.2 1 .3 1.7.6.7.2 1.5.4 2.4.6.9.3 1.9.5 3 .7 1.1.3 2.2.5 3.5.8 1.3.3 2.6.5 4 .8 1.4.3 2.9.5 4.5.7 3.1.5 6.5.9 10.1 1.3 3.6.4 7.4.7 11.3 1 7.8.5 16.2.8 24.6.6 8.4-.3 16.8-.7 24.6-1.5 3.9-.4 7.7-.8 11.3-1.3 3.6-.5 6.9-1 10-1.6 3.1-.6 5.9-1.1 8.4-1.8 2.5-.6 4.6-1.2 6.4-1.6 1.8-.5 3.1-.9 4.1-1.2.9-.6 1.4-.7 1.4-.7zm-139 .3s-1-.3-2.4-.8c-.7-.2-1.5-.5-2.4-.8-.9-.3-1.9-.6-2.8-.9-1-.3-1.9-.6-2.8-.9-.9-.3-1.8-.5-2.5-.7-1.5-.4-2.4-.7-2.4-.7s.9.4 2.3 1c.7.3 1.5.6 2.4.9.9.3 1.9.6 2.8 1 1 .3 1.9.6 2.8.9.9.3 1.8.5 2.5.6 1.5.2 2.5.4 2.5.4zm-18.9-6.1s-1-.5-2.5-1.2c-.7-.3-1.6-.8-2.6-1.2-.9-.4-2-.8-3-1.3l-3-1.2c-1-.4-1.9-.7-2.7-.9-.8-.3-1.4-.4-1.9-.6-.5-.1-.7-.2-.7-.2s.3.1.7.3c.4.2 1.1.5 1.8.8.8.3 1.6.7 2.6 1.1.9.4 2 .8 3 1.3l3 1.2c1 .4 1.9.7 2.6 1 1.6.6 2.7.9 2.7.9zm175.5-4.8s-.3-.1-.8-.2-1.2-.2-2.1-.3c-.4 0-.9-.1-1.4-.1h-1.6c-1.1 0-2.3.2-3.4.4s-2.3.4-3.3.7c-1.1.3-2 .6-2.8.9-1.6.6-2.7 1.2-2.7 1.2s1.2-.2 2.9-.5 3.9-.7 6.2-1.1c.6-.1 1.1-.2 1.7-.3.6-.1 1.1-.2 1.6-.2.5-.1 1-.2 1.5-.2s.9-.1 1.4-.2c.8-.1 1.6-.2 2.1-.2.4.1.7.1.7.1z" fill="#648F9E"/><path d="M199.3 59.6s-.2.3-.4.8c-.1.2-.3.6-.4.9-.1.4-.3.8-.4 1.2-.1.5-.3 1-.4 1.5-.1.5-.2 1.1-.3 1.7 0 .6-.1 1.2 0 1.9 0 .6.1 1.3.2 1.9.1.6.3 1.3.4 1.9.1.6.4 1.2.7 1.8.2.6.6 1.1.8 1.5.3.5.6.9.9 1.3.3.4.6.7.9 1l.7.7c.4.4.7.6.7.6s-.2-.3-.5-.7c-.1-.2-.3-.5-.5-.8-.2-.3-.4-.7-.6-1.1-.2-.4-.5-.8-.7-1.3-.2-.5-.5-1-.6-1.5-.2-.5-.4-1.1-.5-1.7-.2-.6-.3-1.1-.4-1.7-.1-.6-.2-1.2-.2-1.8-.1-.6 0-1.2-.1-1.7 0-.6 0-1.1.1-1.6 0-.5.1-1 .1-1.5.1-.9.2-1.7.4-2.2 0-.8.1-1.1.1-1.1zm-3.9 0s-.2.3-.4.8c-.1.2-.3.6-.4.9-.1.4-.3.8-.4 1.2-.1.5-.3 1-.4 1.5-.1.5-.2 1.1-.3 1.7 0 .6-.1 1.2 0 1.9 0 .6.1 1.3.2 1.9.1.6.3 1.3.4 1.9.1.6.4 1.2.7 1.8.2.6.6 1.1.8 1.5.3.5.6.9.9 1.3.3.4.6.7.9 1l.7.7c.4.4.7.6.7.6s-.2-.3-.5-.7c-.1-.2-.3-.5-.5-.8-.2-.3-.4-.7-.6-1.1-.2-.4-.5-.8-.7-1.3-.2-.5-.5-1-.6-1.5-.2-.5-.4-1.1-.5-1.7-.2-.6-.3-1.1-.4-1.7-.1-.6-.2-1.2-.2-1.8-.1-.6 0-1.2-.1-1.7 0-.6 0-1.1.1-1.6 0-.5.1-1 .1-1.5.1-.9.2-1.7.4-2.2.1-.8.1-1.1.1-1.1zm-4.9 0s-.2.3-.4.8c-.1.2-.3.6-.4.9-.1.4-.3.8-.4 1.2-.1.5-.3 1-.4 1.5-.1.5-.2 1.1-.3 1.7 0 .6-.1 1.2 0 1.9 0 .6.1 1.3.2 1.9.1.6.3 1.3.4 1.9.1.6.4 1.2.7 1.8.2.6.6 1.1.8 1.5.3.5.6.9.9 1.3.3.4.6.7.9 1l.7.7c.4.4.7.6.7.6s-.2-.3-.5-.7c-.1-.2-.3-.5-.5-.8-.2-.3-.4-.7-.6-1.1-.2-.4-.5-.8-.7-1.3-.2-.5-.5-1-.6-1.5-.2-.5-.4-1.1-.5-1.7-.2-.6-.3-1.1-.4-1.7-.1-.6-.2-1.2-.2-1.8-.1-.6 0-1.2-.1-1.7 0-.6 0-1.1.1-1.6 0-.5.1-1 .1-1.5.1-.9.2-1.7.4-2.2 0-.8.1-1.1.1-1.1z" fill="#6C8D9C"/><g transform="matrix(-1 0 0 1 294 40)"><path d="M34.8 1.6c9.8.7 45.1 7.7 48 9.8 3.9 2.9 5.8 17.1-6.5 15.1-12-1.9-28-8-47.4-8.4-10.3 0-33.4-.8-28.1-13.6 2-4.7 22.6-3.7 34-2.9z" fill="#93BCC7"/><path d="M0 8.7s.1-.4.1-1.1c0-.4.1-.8.1-1.3s.1-1.1.4-1.8c.3-.6.9-1.2 1.6-1.6.7-.4 1.6-.7 2.5-.9 1.8-.5 4-.8 6.3-1l3.6-.3c1.2-.1 2.5-.1 3.9-.2h4.1c1.4 0 2.8.1 4.3.1 5.8.3 12 .9 18.1 1.8 6.1 1 12.2 2.2 17.8 3.4 2.8.6 5.6 1.2 8.1 1.8 2.6.6 5 1.3 7.2 1.9 1.1.3 2.2.6 3.2 1 .5.2 1 .3 1.5.6s.8.7 1.1 1.1c1.1 1.7 1.4 3.3 1.6 4.6.2 1.3.2 2.4.1 3.1-.1.7-.3 1.1-.3 1.1s.1-.4.2-1.1c.1-.7 0-1.8-.3-3.1s-.7-2.9-1.8-4.4c-.3-.4-.6-.7-1-.9-.3-.2-.9-.3-1.4-.5-1-.3-2.1-.6-3.2-.9C73.3 9 68 7.9 62.4 6.8c-5.7-1.1-11.7-2.3-17.8-3.2-6.1-1-12.2-1.7-17.9-2-2.9-.2-5.7-.3-8.3-.3h-3.8c-1.2.1-2.4.1-3.6.2-2.3.1-4.4.3-6.2.7-1.8.4-3.4 1-4 2.2C.5 5 .4 5.6.3 6.1c-.1.5-.1 1-.2 1.3 0 .9-.1 1.3-.1 1.3z" fill="#6C8D9C"/><ellipse fill="#212F33" cx="80.7" cy="18.7" rx="1.7" ry="3"/></g><path d="M209 62.7s.1.1.2.4l.5 1c.2.4.5.9 1 1.4.4.5 1 1 1.8 1.4.8.4 1.7.6 2.7.6 1 .1 2-.1 3-.3 2-.4 4-.9 6.1-1.4 2.1-.5 4.1-1 6.1-1.5 1.9-.5 3.7-1 5.3-1.5 1.5-.4 2.8-.9 3.7-1.2.9-.3 1.4-.5 1.4-.5s-.5.1-1.5.2c-.9.2-2.2.4-3.8.6-1.6.3-3.4.7-5.4 1.1-2 .4-4 .9-6.1 1.4-2.1.5-4.1 1-6.1 1.5-.9.2-1.8.5-2.7.5-.9 0-1.7-.1-2.4-.3-1.4-.5-2.3-1.5-2.9-2.2-.5-.8-.9-1.2-.9-1.2zm84.3-11.4s-.3.2-.8.6c-.5.3-1.3.8-2.2 1.2-.5.2-1 .5-1.5.7-.5.2-1.1.5-1.7.7-.6.2-1.2.4-1.9.7-.6.2-1.3.4-2 .6-1.3.4-2.7.7-3.9.9-.6.1-1.3.2-1.8.3-.6.1-1.1.2-1.7.3-.5.1-1 .2-1.4.2-.4.1-.8.1-1.1.1-.6.1-1 .1-1 .1s.4.1 1 .1c.6.1 1.5.2 2.6.2h1.7c.6 0 1.3 0 1.9-.1.7-.1 1.4-.1 2-.3.7-.1 1.4-.3 2.1-.5.7-.2 1.4-.4 2-.6.7-.2 1.3-.5 1.9-.8.6-.3 1.2-.6 1.7-.9l1.5-.9c.9-.6 1.5-1.2 2-1.7.2-.2.4-.4.5-.6l.1-.3z" fill="#6C8D9C"/><path d="M159.4 75.7c2.6 5.2-11.4 22.8-15.4 27.8-.5.6.1 1.2 1 1.2 32-1.4 45.6-24.1 45.6-24.1-7.6-6.7-17.6-9-31.2-4.9z" fill="#93BCC7"/><path d="M159.6 75.7s.1.5 0 1.4c-.1.9-.5 2.1-1 3.4-.3.7-.6 1.4-1.1 2.2-.4.8-.9 1.5-1.4 2.3-.5.8-1 1.6-1.6 2.4-.6.8-1.1 1.7-1.7 2.5-1.1 1.7-2.3 3.3-3.3 4.9-1.1 1.6-2 3-2.9 4.3-.8 1.3-1.5 2.3-2 3.1-.5.7-.7 1.2-.7 1.2s.4-.4.9-1c.6-.7 1.4-1.6 2.4-2.8 1-1.2 2.1-2.6 3.2-4.1.6-.8 1.2-1.5 1.7-2.4.6-.8 1.2-1.6 1.7-2.5.6-.8 1.1-1.7 1.6-2.5s1-1.7 1.5-2.5.9-1.7 1.2-2.5c.4-.8.6-1.6.9-2.3.4-1.5.6-2.8.6-3.7.2-.9 0-1.4 0-1.4zm30.9 4.9s-.1.2-.3.5c-.2.3-.6.8-1 1.3-.5.6-1 1.3-1.7 2-.3.4-.7.8-1.1 1.2-.4.4-.8.8-1.2 1.3-.4.4-.9.9-1.4 1.3-.5.4-1 .9-1.5 1.4-1.1.9-2.2 1.9-3.5 2.7-.6.4-1.2.9-1.9 1.4-.7.4-1.3.8-2 1.3-.3.2-.7.4-1 .6l-1.1.6c-.7.4-1.4.8-2.2 1.2-1.5.7-3 1.4-4.4 2.1-1.5.6-3 1.1-4.4 1.7-1.5.4-2.9.9-4.3 1.3-.7.2-1.4.3-2 .5-.6.1-1.3.3-1.9.4-1.2.3-2.3.6-3.3.7-1 .2-1.9.3-2.6.4-1.4.2-2.3.4-2.3.4s.8 0 2.3-.1c.7 0 1.6-.1 2.6-.2 1 0 2.1-.2 3.4-.4 1.2-.2 2.6-.3 4-.7 1.4-.4 2.9-.7 4.4-1.1 1.5-.5 3-1.1 4.6-1.6 1.5-.7 3-1.3 4.6-2.1.7-.4 1.5-.8 2.2-1.2l1.1-.6c.4-.2.7-.5 1-.7.7-.5 1.4-.9 2-1.4.7-.5 1.3-1 1.9-1.4 1.3-.9 2.4-2 3.4-2.9 1-1 2-2 2.8-2.9.4-.5.8-.9 1.2-1.4.3-.5.7-.9 1-1.3.6-.8 1.1-1.6 1.5-2.2.8-1.4 1.1-2.1 1.1-2.1z" fill="#6C8D9C"/></g></svg>