<svg width="120" height="120" viewBox="0 0 120 120" xmlns="http://www.w3.org/2000/svg" xmlns:xlink="http://www.w3.org/1999/xlink"><defs><path id="a" d="M.064.166h11.389v17.229H.064z"/></defs><g fill="none" fill-rule="evenodd"><path d="M110.763 50.195c-.727-1.05-4.907-1.09-9.844-3.084 2.774-4.791 4.781-9.692 5.53-15.229a1.38 1.38 0 0 0-1.923-1.448c-5.135 2.306-10.59 4.119-14.742 4.003-1.531-2.476-1.173-6.289-2.683-6.593-1.412-.284-3.378 3.268-7.977 5.863-6.456-4.503-6.524-8.337-7.93-8.682-1.459-.358-4.829 9.663-11.64 13.841-3.207-.882-8.823-7.197-10.247-8.074-2.025-1.247-.467 7.948-4.173 14.618-2.557.074-8.781-2.487-13.752-4.13-1.033-.341-2.17-.514-1.656 1.722.654 2.206 1.562 7.94.88 11.018-5.679 1.007-10.586-4.37-9.417-.318.64 2.221 1.403 7.813.623 7.905-6.232.667-14.48 2.913-16.2 4.354-3.04 2.547 3.893 1.923 7.123 7.274-1.533 2.84-4.843 7.595-4.963 8.416-.401 2.734 6.003 1.011 10.208 3.436-.445 2.157-2.865 12.6-1.984 14.808.909 2.277 8.152-5.75 14.176-6.731 5.426 3.943 5.186 12.014 7.373 9.242 2.337-2.961 4.129-6.624 5.297-8.806 2.57 2.883 4.298 11.69 6.387 9.507 3.505-3.662 5.92-9.585 7.496-14.035 3.798.554 7.383 6.473 8.55 4.138 1.168-2.337 1.383-5.46 1.746-7.588 4.473 2.856 12.975 6.653 13.676 4.939.439-1.072-.935-6.39.66-11.615 5.026.394 7.604 3.744 8.298 2.42.856-1.637.934-4.37.223-9.478 7.176.127 12.794-1.408 14.186-2.757 1.938-1.876-4.284-4.909-5.333-9.054 1.579-.889 13.377-7.939 12.032-9.882" fill="#000"/><path d="M21.882 61.597h.008l-.022.003a.036.036 0 0 1 .014-.003" fill="red"/><path d="M97.303 58.862l-.02.01a.868.868 0 0 0-.423.957c.635 2.718 2.089 5.686 3.444 8.132-17.613 5.413-10.536-2.638-12.222 9.893-6.763-1.039-7.893-1.018-8.142-.196-.203.667-1.922 5.474-2.212 9.564-7.86-1.939-11.499-4.03-11.265-4.004a.897.897 0 0 0-.992.791c-.166 1.474-.271 2.905-1.746 5.974-3.01-2.151-7.815-3.525-8.364-2.192l-.016.038c-1.677 4.07-4.284 8.291-6.596 11.183-1.406-2.925-6.606-10.64-7.373-7.84l-.024.085c-.376 1.374-.666 2.899-4.224 7.006-.026-.041-.05-.084-.076-.124-1.51-2.36-4.32-5.223-5.89-6.456-1.77-1.14-11.909 4.509-13.007 5.163.048-3.812 1.187-9.53 1.657-11.992l.01-.052c.293-1.555-7.609-3.616-8.754-3.881 1.315-2.471 1.902-4.233 3.41-7.226l.02-.04c.686-1.375-3.752-5.627-5.017-6.686 6.371-2.812 13.54-4.018 13.306-3.885 1.583-.9 1.168-5.589 1.195-7.459l.017.005c1.82.428 7.846.739 8.115-.36l.104-.425c.603-2.356.903-7.469.538-10.24l-.01-.078c1.761.572 12.773 3.847 13.658 2.213 1.555-2.872 2.95-7.65 3.576-10.671.016-.075.03-.152.044-.228l.073.059c2.288 1.793 6.68 4.16 9.5 4.784.861.186 7.482-6.038 8.024-6.56 1.932-1.838 3.04-3.25 3.92-4.555 7.045 6.55 7.552 6.174 7.991 5.922.234-.134 5.46-3.162 6.667-3.945.378.948 2.03 4.728 3.087 4.673 5.317-.28 10.064-1.165 14.044-2.409-2.254 12.496-5.967 13.528-4.058 14.456 0 0 3.163 1.481 7.041 3.358-3.486 3.16-6.255 5.706-9.01 7.238" fill="#8A0000"/><path d="M14.241 83.907c20.04-7.323 21.575-6.15 7.793 6.192 18.097-11.24 20.498-11.081 12.832.776C47.6 78.638 50.132 78.225 48.538 88.57c6.02-11.46 7.8-11.997 9.673-2.938 1.604-10.29 3.288-10.962 9.156-3.672-1.707-9.153.487-10.294 11.982-6.176-7.356-6.583-5.473-7.913 10.289-7.193-12.518-3.42-11.177-4.788 7.338-7.398-16.028-.546-15.14-2.298 4.917-9.39-19.343 4.101-19.403 2.827-.276-6.834-20.396 6.424-23.162 5.053-13.43-7.41-16.071 11.528-19.093 11.521-15.958-.017-8.678 12.187-11.113 12.663-13.078 2.602-2.295 11.26-4.123 11.894-9.882 3.462 2.021 10.02.151 10.977-10.142 5.155 6.788 7.92 5.152 9.063-8.861 6.175 10.893 5.417 9.438 6.815-7.86 7.548 14.391 2.632 13.117 4.626-6.78 10.686 18.283-2.054 17.994-.045-1.385 10.737" fill="#F50"/><path d="M57.676 33.933l.034-2.086a214.784 214.784 0 0 0-.169-11.239 1.164 1.164 0 1 1 2.326-.002v.007s-.147 3.36-.408 6.71a216.124 216.124 0 0 1-.402 4.598l-.215 2.085a.584.584 0 0 1-1.166-.067v-.006zm1.691.734l.282-1.164a75.2 75.2 0 0 1 .687-2.553c.528-1.85 1.163-3.674 1.163-3.674l.002-.007a1.054 1.054 0 1 1 1.948.797s-.801 1.697-1.506 3.44a73.043 73.043 0 0 0-.933 2.415l-.398 1.111-.002.007a.649.649 0 0 1-1.243-.372M18.788 58.452l-.158-.02-.189-.023-.292-.056a3.977 3.977 0 0 1-.35-.083 4.757 4.757 0 0 1-.395-.115 5.828 5.828 0 0 1-.438-.154 6.994 6.994 0 0 1-.472-.196c-.326-.143-.664-.32-1.016-.518a14.38 14.38 0 0 1-2.125-1.512 16.23 16.23 0 0 1-1.019-.951 14.352 14.352 0 0 1-1.741-2.156 11.55 11.55 0 0 1-.656-1.13 9.514 9.514 0 0 1-.47-1.107 7.342 7.342 0 0 1-.282-1.012c-.037-.154-.053-.307-.075-.445a3.598 3.598 0 0 1-.04-.387 4.699 4.699 0 0 1-.014-.556l.004-.2a1.164 1.164 0 1 1 2.323.13l-.007.08-.011.118c-.009.076-.023.189-.02.34a1.83 1.83 0 0 0 .004.25c.007.093.006.193.025.302.025.218.067.468.142.743.065.275.172.574.293.888.13.313.278.644.463.976.357.669.83 1.35 1.357 1.993.27.316.543.63.836.919a12.717 12.717 0 0 0 1.777 1.5 9.933 9.933 0 0 0 1.238.725c.126.064.246.115.36.161.112.05.22.09.319.123.1.037.19.068.266.088l.21.06.186.039.155.032a.585.585 0 0 1-.188 1.154m-1.515 1.258l-.337.025-.177.013-.234.004c-.166.001-.359.006-.553-.007a10.284 10.284 0 0 1-1.345-.138 12.26 12.26 0 0 1-.75-.152c-.252-.065-.51-.129-.762-.214-.256-.075-.504-.176-.752-.267-.242-.107-.485-.203-.711-.324-.23-.11-.445-.236-.65-.356a9.262 9.262 0 0 1-.563-.376c-.168-.133-.328-.242-.458-.366-.13-.122-.25-.218-.338-.317l-.281-.302a1.056 1.056 0 1 1 1.614-1.355l.043.058.158.209c.046.069.126.144.204.236.075.094.189.185.297.295.117.103.248.214.394.326.149.109.306.227.482.334.17.115.361.213.55.323.197.095.394.203.603.287.204.094.416.17.625.248.21.07.42.14.624.195.41.113.801.193 1.138.238.172.03.317.039.449.052l.185.019a56.243 56.243 0 0 0 .515.015.65.65 0 0 1 .03 1.297m72.334-31.185l.255-.436c.084-.14.176-.307.277-.497.104-.189.22-.405.34-.648.123-.239.249-.503.38-.784.133-.278.26-.58.396-.888.263-.622.524-1.295.77-1.974.487-1.361.91-2.751 1.218-3.803l.508-1.758.002-.005a.991.991 0 1 1 1.877.634l-.666 1.72a70.598 70.598 0 0 1-1.585 3.768 41.614 41.614 0 0 1-.976 1.97c-.17.307-.328.607-.493.885a22.01 22.01 0 0 1-.466.779c-.146.24-.288.457-.417.65-.128.194-.239.36-.333.488l-.292.412a.473.473 0 0 1-.795-.513" fill="red"/><g transform="translate(91.404 13.09)"><mask id="b" fill="#fff"><use xlink:href="#a"/></mask><path d="M.32 16.022l.575-.523c.09-.084.195-.176.298-.276l.326-.325.37-.37.402-.43c.284-.296.573-.634.876-.993.308-.354.603-.753.919-1.155.298-.416.615-.838.904-1.291.304-.443.576-.916.86-1.38.26-.477.535-.947.765-1.43.248-.474.455-.958.666-1.42.19-.472.387-.922.539-1.362.159-.437.305-.851.42-1.24l.17-.556.135-.506c.087-.317.16-.594.206-.825l.16-.722.012-.05a1.28 1.28 0 1 1 2.482.625l-.219.783c-.066.25-.16.55-.274.891l-.178.545-.22.595c-.147.418-.33.86-.53 1.325-.19.469-.43.946-.664 1.444-.255.489-.507.999-.802 1.496-.278.506-.6.997-.908 1.494-.332.483-.651.973-1.003 1.43-.336.468-.7.902-1.042 1.328-.361.413-.699.82-1.048 1.18-.343.365-.67.707-.99 1.006l-.452.435-.428.382-.376.335c-.116.101-.222.183-.318.263l-.6.492A.79.79 0 0 1 .32 16.022" fill="red" mask="url(#b)"/></g><path d="M42.767 39.179l-.204-.366c-.066-.11-.14-.271-.228-.448a9.589 9.589 0 0 1-.27-.598c-.099-.218-.183-.46-.28-.716-.094-.257-.18-.532-.268-.817-.078-.288-.166-.585-.228-.895-.075-.306-.124-.625-.178-.943-.04-.32-.088-.642-.101-.965l-.025-.48.006-.474c.001-.311.04-.617.068-.907.055-.29.08-.567.16-.821.066-.255.127-.49.214-.693.08-.205.142-.386.225-.527l.238-.45a.993.993 0 1 1 1.702 1.02l-.057.086-.184.272c-.066.081-.118.204-.19.338-.077.13-.136.296-.206.476-.08.176-.12.392-.189.61-.044.227-.105.465-.132.723l-.048.393-.022.41c-.02.276-.006.562-.002.847.018.286.03.573.068.855.026.284.078.56.12.829.052.267.104.526.163.769.064.241.118.474.187.68.064.21.123.402.184.562.06.163.105.303.163.428l.163.386a.474.474 0 0 1-.85.416m-1.44 1.892l-.421-.434a9.005 9.005 0 0 1-.486-.525c-.183-.217-.413-.457-.618-.732-.212-.273-.451-.563-.673-.895l-.35-.504-.338-.545a8.074 8.074 0 0 1-.332-.576c-.106-.2-.223-.396-.322-.604l-.298-.629c-.101-.21-.18-.432-.272-.649l-.133-.327-.113-.333c-.073-.224-.158-.443-.219-.668l-.184-.667c-.058-.221-.098-.444-.147-.662l-.068-.324-.05-.322c-.03-.212-.066-.42-.09-.624-.032-.408-.085-.795-.086-1.154-.013-.36-.02-.69-.005-.982.01-.292.014-.548.04-.757l.062-.66a1.28 1.28 0 1 1 2.54.325l-.012.073-.09.54c-.034.172-.05.384-.076.626a8.793 8.793 0 0 0-.053.819c-.023.3.002.627.003.974.008.173.027.35.04.532l.022.276.04.28c.028.187.048.38.084.573l.118.584c.038.197.1.39.149.588l.077.296.096.292c.067.194.121.392.197.583l.223.57c.074.19.166.369.247.552.082.182.164.361.259.531l.267.508.282.473c.177.312.376.588.55.85.172.267.351.476.499.681.142.199.294.378.42.526l.39.462a.79.79 0 0 1-1.169 1.06m-16.087 63.263l3.652-8.458.01-.026a.465.465 0 0 1 .887.259l-.026.595.014.593.052.591.087.588.12.582.147.577.173.573.197.566a23.077 23.077 0 0 0 .96 2.226c.356.734.741 1.462 1.134 2.198a1.112 1.112 0 1 1-2.02.917 67 67 0 0 1-.87-2.4 24.64 24.64 0 0 1-.716-2.499l-.134-.642-.109-.65-.08-.655-.048-.66-.013-.662.027-.663.07-.659.113-.651.897.232-2.85 8.761a.897.897 0 1 1-1.674-.633m59.928-21.726l.559.278c.176.085.399.21.65.342.256.133.526.294.83.466.6.35 1.293.773 2.013 1.261.363.24.728.503 1.1.77.367.272.742.548 1.105.839l.546.436.53.45c.352.295.683.606 1.009.902.315.309.63.596.907.894l.411.427.372.414c.24.263.45.516.633.744.186.225.345.424.468.596l.395.535a1.2 1.2 0 1 1-1.98 1.348l-.03-.048-.308-.496a9.14 9.14 0 0 0-.371-.563 12.748 12.748 0 0 0-.514-.715l-.306-.403c-.11-.137-.226-.277-.344-.422-.23-.294-.502-.584-.77-.895-.28-.3-.565-.616-.873-.92l-.463-.464-.481-.454c-.321-.304-.655-.594-.983-.882-.333-.282-.66-.561-.987-.818a33.118 33.118 0 0 0-1.823-1.364c-.275-.185-.526-.366-.751-.506-.227-.145-.415-.273-.588-.375l-.535-.323a.602.602 0 0 1 .58-1.054m-.265 12.37l.118-.431c.043-.146.068-.281.109-.453.042-.165.074-.37.113-.589.04-.219.065-.459.095-.713.018-.254.043-.523.044-.802.012-.28-.005-.568-.016-.863a11.438 11.438 0 0 0-.092-.891c-.036-.3-.099-.597-.158-.89-.068-.292-.134-.58-.219-.855-.073-.278-.17-.54-.253-.792-.085-.252-.183-.484-.264-.702-.087-.217-.177-.411-.252-.586-.072-.176-.15-.324-.208-.448l-.187-.388-.013-.026a.715.715 0 0 1 1.265-.666l.23.4c.071.13.165.281.257.466.094.183.205.387.317.615.106.232.23.478.344.748.112.271.238.554.342.858.116.3.215.62.314.945.091.327.185.661.253 1.003.076.34.13.685.18 1.026.038.342.08.68.09 1.01.022.33.016.65.014.953-.013.302-.023.59-.05.852-.029.263-.05.502-.089.725-.034.217-.064.422-.093.552l-.087.437a1.081 1.081 0 1 1-2.104-.495m25.321-29.681l-.472-.355-.457-.329c-.313-.219-.63-.432-.954-.64a29.438 29.438 0 0 0-5.15-2.618c-.36-.139-.724-.27-1.09-.394h-.001a.572.572 0 0 1 .09-1.119l.027-.003a43.645 43.645 0 0 0 3.546-.58 59.67 59.67 0 0 0 3.504-.827c.58-.153 1.157-.318 1.73-.49.287-.086.574-.17.859-.262.284-.093.57-.179.853-.276.567-.187 1.13-.385 1.689-.59.558-.206 1.11-.422 1.66-.645l.007-.003a1.222 1.222 0 1 1 .819 2.302 58.71 58.71 0 0 1-1.796.52c-.6.161-1.201.314-1.804.456-.301.074-.604.136-.906.205-.3.07-.605.129-.907.192-.605.124-1.211.24-1.82.343a60.998 60.998 0 0 1-3.66.527 45.199 45.199 0 0 1-3.695.27l.118-1.122c.394.097.786.2 1.175.311a30.76 30.76 0 0 1 3.433 1.226 30.935 30.935 0 0 1 3.281 1.632l.538.32.507.315a.993.993 0 1 1-1.12 1.637l-.004-.003zM93.53 73.613l.259.246a22.823 22.823 0 0 1 2.574 2.959 22.993 22.993 0 0 1 2.205 3.733 1.113 1.113 0 1 1-2.055.844l-.008-.024-.108-.322a21.083 21.083 0 0 0-1.464-3.318 21.287 21.287 0 0 0-2.264-3.322.588.588 0 0 1 .861-.796m4.778 1.628l.227.133a16.355 16.355 0 0 1 2.356 1.71 18.954 18.954 0 0 1 1.562 1.537c.401.442.652.752.652.752l.01.013a.81.81 0 1 1-1.3.964s-.206-.306-.54-.746a17.439 17.439 0 0 0-1.313-1.539 15.1 15.1 0 0 0-2.024-1.763l-.215-.152a.541.541 0 0 1 .585-.909m-87.696-.881l-.42.1a26.702 26.702 0 0 0-4.214 1.426 27.481 27.481 0 0 0-3.898 2.082l-.348.225-.017.011A1.112 1.112 0 1 1 .61 76.278l.399-.202a29.57 29.57 0 0 1 4.38-1.78 28.288 28.288 0 0 1 4.584-1.034l.427-.056a.587.587 0 0 1 .213 1.154m-2.269-1.368l-.25-.009a13.951 13.951 0 0 0-2.526.18 16.97 16.97 0 0 0-1.865.417c-.503.143-.832.255-.832.255a.81.81 0 1 1-.453-1.555l.018-.004s.366-.088.923-.191a18.313 18.313 0 0 1 2.059-.263 15.193 15.193 0 0 1 2.764.06 198 198 0 0 1 .248.032.54.54 0 0 1-.086 1.078M23.952 47.5s.07.038.19.107l.246.149.296.194c.422.29.947.702 1.432 1.152.49.447.936.935 1.252 1.319a9.545 9.545 0 0 1 .504.66.461.461 0 0 1-.706.59l-.014-.015-.144-.148a8.905 8.905 0 0 0-.39-.381 12.18 12.18 0 0 0-1.3-1.036 11.681 11.681 0 0 0-1.406-.843l-.266-.126-.194-.084-.202-.08a.811.811 0 1 1 .702-1.459m.879-5.543l.097.326.113.354c.041.134.099.292.156.462.237.678.592 1.577 1.003 2.447.41.87.88 1.709 1.28 2.294.098.148.19.282.277.394.085.115.157.217.224.293l.202.247.02.024a.51.51 0 0 1-.76.676s-.092-.094-.25-.26c-.083-.082-.17-.187-.275-.307a8.37 8.37 0 0 1-.337-.41c-.484-.605-1.049-1.457-1.55-2.341a27.636 27.636 0 0 1-1.252-2.497c-.075-.177-.146-.334-.205-.483l-.153-.38-.122-.317a.81.81 0 1 1 1.532-.522m35.122 57.657l-.016-.27-.017-.31-.038-.359c-.01-.13-.035-.28-.06-.438a7.207 7.207 0 0 0-.086-.495 13.02 13.02 0 0 0-.253-1.076 16.9 16.9 0 0 0-.954-2.609l-.11-.228-.011-.024a.461.461 0 0 1 .805-.445l.153.244a18.093 18.093 0 0 1 1.32 2.655c.152.38.292.765.404 1.136.06.183.113.363.157.537.046.172.092.333.124.495l.093.433.052.306.045.267a.81.81 0 1 1-1.608.18m-3.573 3.099l.114-.366.113-.397.138-.53c.187-.785.396-1.853.506-2.932.06-.54.093-1.08.109-1.586a14.96 14.96 0 0 0-.022-1.379c-.008-.201-.028-.384-.045-.545a5.207 5.207 0 0 0-.051-.418l-.055-.361-.005-.029a.51.51 0 0 1 1-.187l.088.392c.03.126.059.278.087.453.03.174.065.372.089.588.06.432.098.936.123 1.477.02.54.023 1.116-.003 1.69a24.616 24.616 0 0 1-.328 3.145l-.11.585-.1.458-.089.373a.81.81 0 1 1-1.56-.43M82.666 25.05l-.147.16-.139.16-.185.229c-.268.345-.608.842-.904 1.369a12.193 12.193 0 0 0-.723 1.495 8.679 8.679 0 0 0-.253.71l-.006.018a.461.461 0 0 1-.893-.227l.042-.225c.024-.144.069-.346.128-.588.118-.482.31-1.116.559-1.73.242-.616.538-1.215.793-1.658l.182-.304.159-.24.123-.18a.81.81 0 1 1 1.264 1.011m-1.509-4.829l-.06.094c-.037.06-.103.156-.164.262-.055.104-.124.212-.203.37-.078.159-.172.334-.26.538-.093.2-.186.423-.281.66-.098.237-.188.494-.284.757-.088.267-.186.541-.266.826-.088.282-.164.573-.238.864-.075.291-.136.585-.197.874-.049.29-.11.575-.142.853-.019.139-.038.275-.055.409l-.035.391c-.027.256-.03.495-.037.717-.012.223.002.423.007.602l.008.25c.01.077.017.147.024.21l.043.398.005.044a.509.509 0 0 1-1.007.142l-.077-.448-.04-.237-.028-.279c-.017-.199-.046-.424-.048-.668-.008-.245-.019-.51-.006-.788l.011-.43.033-.444c.017-.304.063-.612.098-.928.047-.313.093-.632.154-.947.06-.316.123-.632.199-.939.067-.31.154-.609.23-.901.087-.29.167-.57.258-.834.088-.264.174-.513.265-.742.083-.23.177-.439.256-.625.08-.186.174-.365.24-.504.07-.134.12-.216.156-.283l.054-.098a.81.81 0 1 1 1.414.788l-.023.04-.004.006zm24.656 23.622l.4-.248a79.154 79.154 0 0 1 4.398-2.513 79.131 79.131 0 0 1 3.416-1.7c.943-.441 1.58-.72 1.58-.72l.008-.003a1.12 1.12 0 1 1 .838 2.08s-.632.234-1.573.61a76.797 76.797 0 0 0-7.843 3.67l-.413.225a.81.81 0 0 1-.81-1.401m4.119 1.935l.38-.08a33.681 33.681 0 0 1 4.161-.595 33.69 33.69 0 0 1 4.225-.064l.398.02a.81.81 0 1 1-.15 1.613l-.014-.002-.376-.051a32.295 32.295 0 0 0-4.037-.283 32.498 32.498 0 0 0-4.06.23l-.387.048a.424.424 0 0 1-.14-.836m-95.336 41.53l-.39.265a77.147 77.147 0 0 0-3.996 2.917 77.019 77.019 0 0 0-4.137 3.474 1.121 1.121 0 1 1-1.462-1.7l.01-.008s.54-.437 1.366-1.072a78.99 78.99 0 0 1 3.08-2.25 78.468 78.468 0 0 1 4.255-2.749l.404-.242a.809.809 0 0 1 .87 1.365m-.373 1.59l-.22.321a32.484 32.484 0 0 0-2.074 3.501 32.357 32.357 0 0 0-1.607 3.716l-.127.357-.004.012a.81.81 0 1 1-1.5-.608l.165-.363a33.943 33.943 0 0 1 2.001-3.722A33.59 33.59 0 0 1 13.3 88.69l.247-.3a.424.424 0 0 1 .676.508m57.753 7.097l-.293-.188a8.473 8.473 0 0 1-.404-.312c-.146-.125-.277-.259-.433-.41-.136-.16-.3-.322-.441-.51a8.432 8.432 0 0 1-.44-.589c-.151-.204-.28-.428-.424-.649-.128-.228-.27-.454-.388-.69a12.61 12.61 0 0 1-.35-.708c-.113-.233-.206-.472-.304-.698-.086-.233-.178-.453-.247-.67-.072-.216-.141-.419-.191-.612a6.833 6.833 0 0 1-.136-.528c-.035-.159-.07-.296-.085-.414l-.06-.366a.46.46 0 0 1 .9-.19l.01.035s.028.115.08.316c.021.1.063.222.107.36.041.14.098.296.163.465.06.17.14.35.222.541.079.192.183.388.279.593.108.2.211.412.334.617.118.208.242.415.375.618.126.206.272.398.405.594.145.185.277.377.424.542.14.173.283.33.421.473.134.15.276.264.397.385.126.1.248.206.343.273.097.06.156.11.24.16l.308.162.005.002a.81.81 0 1 1-.817 1.398m-31.696 8.823l.179-.211.158-.205c.06-.083.132-.19.208-.303.071-.119.156-.242.233-.384a10.132 10.132 0 0 0 .69-1.466 9.6 9.6 0 0 0 .338-1.061 7.27 7.27 0 0 0 .213-1.325c.008-.113.013-.211.01-.29l-.003-.253v-.041a.46.46 0 0 1 .916-.06l.037.3c.014.095.021.21.026.343.008.133.014.283.009.444.002.327-.034.7-.086 1.099-.06.396-.138.816-.25 1.227-.05.208-.115.41-.175.612-.067.199-.13.397-.203.583-.07.189-.143.37-.22.54-.07.17-.153.329-.222.477-.078.148-.146.28-.217.403l-.198.321-.155.23a.81.81 0 1 1-1.29-.977l.002-.003z" fill="red"/><path d="M118.935 62.072l-.363.062c-.108.02-.273.04-.448.063-.181.027-.372.042-.582.061a19 19 0 0 1-1.42.066 32.77 32.77 0 0 1-1.605-.021c-1.086-.041-2.159-.12-2.96-.177l-1.33-.092h-.006a.462.462 0 0 1 .026-.923l1.343-.016a84.444 84.444 0 0 0 2.922-.063 31.95 31.95 0 0 0 1.535-.104c.486-.047.934-.104 1.31-.168.188-.033.362-.062.502-.095.146-.032.263-.052.382-.085l.356-.091a.81.81 0 1 1 .338 1.583" fill="red"/><path d="M46.24 82.382c-.706.312-1.434.661-2.186 1.048s-1.534.814-2.345 1.284a329.6 329.6 0 0 1-4.665-7.954l-.127.843c.18.677.411 1.499.698 2.466.286.968.573 1.941.86 2.92.288.98.6 2.027.936 3.141-1.07.869-2.14 1.74-3.208 2.615-3.1-10.841-5.453-18.935-7.31-24.165.374-.11.781-.256 1.222-.435.44-.18.872-.35 1.295-.509.423-.158.86-.347 1.309-.567.02.089.063.252.13.49l.242.88c.096.348.203.732.323 1.154.119.422.274.988.465 1.695.19.708.46 1.666.81 2.874l.117-.095c.024-1.074.043-2.206.057-3.395.037-2.359.08-3.99.118-4.892 1.59-.995 2.973-1.943 4.147-2.848-.508 6.003-.727 10.282-.737 12.82a77.346 77.346 0 0 0 3.82 5.44 795.987 795.987 0 0 0 4.03 5.19" fill="#FFD900"/><path d="M45.04 61.859l-.943.49c.465 1.757.935 3.51 1.412 5.261.543-.363 1.049-1.23 1.523-2.6.494-1.403.61-2.413.342-3.035-.25-.582-.791-.723-1.624-.42-.24.091-.477.192-.71.304m7.629 17.774c-3.57-4.816-5.509-7.628-5.881-8.343l-.228.259a484.935 484.935 0 0 0 2.699 8.856 762.122 762.122 0 0 0-2.98 3.099c-3.115-10.755-5.28-18.419-6.765-22.854 1.374-1.542 3.11-2.808 5.205-3.8 1.572-.743 2.82-.424 3.751.944.284.42.57.972.862 1.653.291.681.505 1.465.643 2.352.138.887.19 1.773.155 2.659-.09 1.806-.488 3.354-1.199 4.647a177.15 177.15 0 0 1 3.61 3.988 558.064 558.064 0 0 0 2.796 3.17 751.116 751.116 0 0 0-2.668 3.37" fill="#FFD900"/><path d="M56.995 68.044l1.54-.922a10.196 10.196 0 0 1-.237-.622l-.363-1.029a255.226 255.226 0 0 1-2.21-6.092c-.331-.909-.66-1.819-.987-2.73l-.337.194a810.59 810.59 0 0 0 2.594 11.2m.83 3.272a788.2 788.2 0 0 0 1.081 4.77l-1.06.778c-.402.296-.802.586-1.202.87-.4.283-.81.579-1.234.888a704.312 704.312 0 0 1-1.587-7.554c-.42-2.063-.762-3.76-1.03-5.089-.268-1.328-.532-2.646-.791-3.954a518.4 518.4 0 0 1-.741-3.797c-.234-1.223-.45-2.34-.65-3.351 2.585-1.518 4.507-2.784 5.764-3.812a174.07 174.07 0 0 0 2.639 7.131 581.557 581.557 0 0 0 6.012 14.854c-.388.308-.77.601-1.144.879-.374.279-.76.575-1.154.887-.394.313-.753.598-1.077.853-.703-1.956-1.334-3.72-1.9-5.29-.642.311-1.284.623-1.926.937m10.272-4.762c.362-.171.61-.655.745-1.45.127-.815.1-1.58-.077-2.3l3.154.185c.257 2.346.135 4.367-.374 6.07-.454 1.514-1.169 2.507-2.149 2.98-.923.445-1.93.246-3.022-.606-1.155-.916-2.18-2.362-3.064-4.343a29.552 29.552 0 0 1-1.964-6.026c-.425-2.034-.602-3.954-.534-5.751.068-1.798.397-3.374.984-4.727.587-1.353 1.46-2.288 2.615-2.805.746-.334 1.544-.232 2.394.302.843.561 1.534 1.48 2.078 2.758l.163.383c.05.118.097.25.141.393a750.33 750.33 0 0 0-2.477 2.39c-.386-.412-.699-.564-.94-.454-.24.11-.411.411-.513.905-.102.495-.153 1.096-.153 1.804 0 .707.043 1.484.132 2.329.088.845.209 1.68.362 2.508.316 1.838.703 3.26 1.152 4.266.448 1.007.9 1.402 1.347 1.19m16.771-2.924c-.713.281-1.45.597-2.21.95a56.02 56.02 0 0 0-2.374 1.17 311.387 311.387 0 0 1-4.482-7.676l-.145.8c.163.648.376 1.436.64 2.364.265.928.53 1.861.794 2.8.265.94.553 1.944.863 3.012-1.09.804-2.18 1.611-3.269 2.422-2.846-10.394-5.02-18.161-6.76-23.188.377-.097.787-.226 1.23-.387.445-.161.88-.313 1.307-.454.426-.142.866-.312 1.32-.512.019.086.059.242.12.471.06.23.136.51.224.843.087.334.186.703.296 1.108.11.405.253.947.428 1.625.175.679.423 1.598.746 2.757l.119-.088c.048-1.022.092-2.101.132-3.233.09-2.247.169-3.8.226-4.66 1.611-.91 3.014-1.781 4.207-2.617-.638 5.707-.952 9.778-1.018 12.196a73.489 73.489 0 0 0 3.696 5.266 761.522 761.522 0 0 0 3.91 5.03m3.072.458c-.39.179-.748.244-1.067.195a2.258 2.258 0 0 1-.889-.335c-.585-.4-1.042-.963-1.37-1.691-.562-1.244-.543-2.316.054-3.209.199-.297.487-.531.866-.702.872-.394 1.642-.417 2.31-.075a3.122 3.122 0 0 1 1.465 1.541c.369.82.444 1.621.224 2.41-.252.871-.782 1.493-1.593 1.866m-3.182-25.705c.229 2.843.55 5.669.963 8.474a508.49 508.49 0 0 0 1.311 8.44 15.89 15.89 0 0 0-1.274.637l-1.248.698c-.597-2.61-1.195-5.22-1.795-7.829a297.19 297.19 0 0 1-1.706-7.903c.254-.178.554-.38.9-.608.347-.228.69-.46 1.033-.697.343-.236.678-.458 1.006-.666.328-.207.599-.39.81-.546" fill="#FFD900"/></g></svg>