<svg width="120" height="120" viewBox="0 0 120 120" xmlns="http://www.w3.org/2000/svg" xmlns:xlink="http://www.w3.org/1999/xlink"><defs><path id="a" d="M0 0h118.31v119.169H0z"/></defs><g transform="translate(1)" fill="none" fill-rule="evenodd"><mask id="b" fill="#fff"><use xlink:href="#a"/></mask><path d="M28.979 42.141l2.85 6.043-8.25 2.954-10.913-9.351 16.313.354zm-4.991-17.98l12.94 6.196.706 8.79-6.64-.143-7.006-14.842zm31.197 33.95l-22.68.677-6.147-5.27 9.824-3.52-3.673-7.781 6.193.135 16.483 15.76zm-5.124-32.354l-2.224 6.302-7.908-3.786-1.153-14.384L50.06 25.757zm2.442 2.569l4.289 4.509.677 23.077-16.598-15.87-.65-8.108 9.418 4.51 2.864-8.118zM59.155 9.49l4.8 13.598-5.673 6.718-4.594-4.832L59.155 9.49zm9.516 26.954l7.724-3.698-.14 6.562-15.618 16.93-.69-23.497 5.23-6.192 3.494 9.895zm8.152-23.688l-.353 16.432-5.996 2.871-2.935-8.308 9.284-10.995zm9.782 27.757l-4.477 9.486 8.058 2.885-4.476 4.32-22.268.663 15.43-16.726 7.733-.628zm-7.02-9.295l14.736-7.056-6.15 13.034-8.728.71.141-6.688zm24.934 7.839L92.74 50.425l-6.258-2.241 3.757-7.967 14.281-1.16zm4.368 20.527l-13.5 4.836-6.668-5.715 4.794-4.627 15.374 5.506zm-3.244 17.798l-16.312-.353-2.85-6.043 8.25-2.955 10.912 9.351zM94.321 95.007l-12.94-6.194-.705-8.792 6.641.144 7.004 14.842zM68.25 93.413l2.225-6.303 7.908 3.786 1.152 14.386L68.25 93.413zm17.553-16.46l-6.478-.141-16.467-15.748 22.947-.682 6.149 5.269-9.825 3.517 3.674 7.785zm-19.997 13.89l-4.289-4.509-.666-22.805 16.611 15.887.627 7.819-9.417-4.511-2.866 8.12zm-6.65 18.837l-4.802-13.598 5.673-6.718 4.594 4.833-5.465 15.483zM49.64 82.724l-7.726 3.7.116-5.346 15.678-16.995.655 22.346-5.23 6.191-3.493-9.896zm-8.152 23.689l.352-16.43 5.998-2.873 2.932 8.31-9.282 10.993zm-9.781-27.757l4.476-9.488-8.059-2.884 4.475-4.32 23.397-.695-15.373 16.663-8.916.724zm7.018 9.295l-14.736 7.056 6.152-13.033 8.728-.71-.144 6.687zM13.79 80.112l11.782-11.367 6.257 2.241-3.758 7.967-14.28 1.16zM9.422 59.584l13.5-4.834 6.669 5.715-4.796 4.625-15.373-5.506zm9.282-8.448l-8.18-1.236a2.765 2.765 0 0 0-2.697-2.195 2.773 2.773 0 0 0-2.763 2.782 2.773 2.773 0 0 0 2.763 2.783c.866 0 1.632-.412 2.14-1.042l7.435 1.123L0 59.584l20.125 7.21-7.356 1.592a2.743 2.743 0 0 0-2.181-1.09 2.77 2.77 0 0 0-2.76 2.781c0 1.537 1.235 2.783 2.76 2.783a2.763 2.763 0 0 0 2.682-2.144l7.342-1.588L5.194 84l19.3-1.568-6.365 4.477a2.72 2.72 0 0 0-1.358-.375 2.775 2.775 0 0 0-2.763 2.784 2.774 2.774 0 0 0 2.763 2.782 2.772 2.772 0 0 0 2.762-2.782 2.8 2.8 0 0 0-.045-.457l5.846-4.11-8.008 16.967 19.452-9.316-4.466 6.888c-.122-.015-.242-.037-.367-.037a2.772 2.772 0 0 0-2.761 2.783 2.77 2.77 0 0 0 2.761 2.782 2.77 2.77 0 0 0 2.35-4.227l4.3-6.63-.456 21.321 12.522-14.828-.832 6.906a2.771 2.771 0 0 0-1.886 2.625 2.772 2.772 0 0 0 2.762 2.782 2.772 2.772 0 0 0 2.762-2.782c0-.987-.515-1.85-1.287-2.346l.739-6.132 6.236 17.66 7.207-20.413 2.125 9.199a2.778 2.778 0 0 0-.889 2.032 2.772 2.772 0 0 0 2.763 2.782 2.773 2.773 0 0 0 2.763-2.782 2.769 2.769 0 0 0-2.372-2.743l-2.012-8.715 14.655 15.41-1.533-19.127 5.036 7.292a2.78 2.78 0 0 0-.455 1.523 2.773 2.773 0 0 0 2.763 2.783c1.525 0 2.76-1.246 2.76-2.783a2.77 2.77 0 0 0-2.76-2.781c-.094 0-.185.018-.275.027l-5.08-7.357 17.13 8.204-9.067-19.221 8.682 5.95a2.712 2.712 0 0 0-.042.422 2.772 2.772 0 0 0 2.761 2.782 2.773 2.773 0 0 0 2.764-2.782 2.772 2.772 0 0 0-2.764-2.782c-.509 0-.977.148-1.387.39l-9.033-6.191 21.554.467L99.81 68.209l5.967.975c.307 1.203 1.38 2.096 2.668 2.096a2.77 2.77 0 0 0 2.761-2.781c0-1.537-1.235-2.783-2.76-2.783-.908 0-1.707.447-2.21 1.128l-5.625-.92 17.7-6.34-20.487-7.337 7.62-1.504a2.747 2.747 0 0 0 2.212 1.131 2.772 2.772 0 0 0 2.762-2.782 2.771 2.771 0 0 0-2.762-2.782 2.758 2.758 0 0 0-2.666 2.093l-7.032 1.387 15.156-14.623-19.129 1.556 5.268-3.804c.395.221.844.356 1.328.356a2.773 2.773 0 0 0 2.764-2.781 2.773 2.773 0 0 0-2.764-2.782 2.773 2.773 0 0 0-2.762 2.782c0 .169.021.33.049.49l-4.961 3.584 8.075-17.118-19.284 9.236 2.48-4.684c.043.002.084.012.127.012a2.772 2.772 0 0 0 2.761-2.782 2.772 2.772 0 0 0-2.761-2.781 2.772 2.772 0 0 0-2.762 2.781c0 .618.207 1.186.546 1.648l-2.38 4.492.46-21.486-11.916 14.111.887-6.542a2.77 2.77 0 0 0 1.924-2.638 2.772 2.772 0 0 0-2.761-2.782 2.773 2.773 0 0 0-2.764 2.782c0 .976.5 1.83 1.253 2.326l-1.028 7.581L59.154 0l-7.346 20.81-2.166-9.807a2.78 2.78 0 0 0 1.069-2.185 2.772 2.772 0 0 0-2.762-2.782 2.774 2.774 0 0 0-2.763 2.782c0 1.324.919 2.426 2.147 2.709l1.946 8.811L34.915 5.231l1.56 19.453-4.644-6.262c.202-.388.33-.822.33-1.29a2.772 2.772 0 0 0-2.764-2.782 2.772 2.772 0 0 0-2.762 2.782 2.774 2.774 0 0 0 2.762 2.783c.187 0 .368-.021.545-.057l4.174 5.631-16.79-8.039 9.447 20.018-6.685-4.278c.06-.227.103-.462.103-.708a2.773 2.773 0 0 0-2.763-2.784c-1.526 0-2.761 1.246-2.761 2.784a2.772 2.772 0 0 0 2.761 2.781c.394 0 .77-.087 1.112-.238l6 3.84-20.681-.448 14.845 12.72z" fill="#B0E1E7" mask="url(#b)"/></g></svg>