<svg width="120" height="120" viewBox="0 0 120 120" xmlns="http://www.w3.org/2000/svg"><g fill="none" fill-rule="evenodd"><path fill="#144261" d="M30 120.826h60v-89.7H30z"/><path fill="#1E597E" d="M30 31.125h60v-29.9H30zm7.5 82.226a3.744 3.744 0 0 0 3.75 3.738h37.5a3.744 3.744 0 0 0 3.75-3.738 3.744 3.744 0 0 0-3.75-3.737h-37.5a3.744 3.744 0 0 0-3.75 3.737"/><path d="M78.75 109.614h-37.5a3.739 3.739 0 0 0-3.617 2.803 3.739 3.739 0 0 0 3.617 2.803h37.5c1.745 0 3.2-1.194 3.617-2.803a3.739 3.739 0 0 0-3.617-2.803M82.5 83.45c0-12.384-10.074-22.424-22.5-22.424S37.5 71.066 37.5 83.45c0 12.385 10.074 22.425 22.5 22.425s22.5-10.04 22.5-22.425" fill="#000"/><path d="M80.625 83.45c0 11.354-9.234 20.557-20.625 20.557s-20.625-9.203-20.625-20.556c0-11.353 9.234-20.557 20.625-20.557s20.625 9.204 20.625 20.557" fill="#144261"/><path d="M76.875 83.45c0 9.29-7.555 16.82-16.875 16.82s-16.875-7.53-16.875-16.82c0-9.288 7.555-16.818 16.875-16.818s16.875 7.53 16.875 16.819" fill="#FDC00F"/><path d="M65.625 83.45c0 3.097-2.518 5.607-5.625 5.607s-5.625-2.51-5.625-5.606c0-3.097 2.518-5.607 5.625-5.607s5.625 2.51 5.625 5.607m5.625-37.376c0-6.192-5.037-11.212-11.25-11.212s-11.25 5.02-11.25 11.212c0 6.193 5.037 11.213 11.25 11.213s11.25-5.02 11.25-11.213" fill="#000"/><path d="M69.375 46.075c0 5.16-4.197 9.344-9.375 9.344s-9.375-4.183-9.375-9.344c0-5.16 4.197-9.343 9.375-9.343s9.375 4.183 9.375 9.343" fill="#FDC00F"/><path d="M63.75 46.075A3.744 3.744 0 0 1 60 49.813a3.744 3.744 0 0 1-3.75-3.738A3.744 3.744 0 0 1 60 42.338a3.744 3.744 0 0 1 3.75 3.737m-22.5-9.344c0 1.033-.84 1.87-1.875 1.87a1.872 1.872 0 0 1-1.875-1.87c0-1.032.84-1.868 1.875-1.868 1.035 0 1.875.836 1.875 1.868m0 67.276c0 1.032-.84 1.869-1.875 1.869a1.872 1.872 0 0 1-1.875-1.869c0-1.032.84-1.868 1.875-1.868 1.035 0 1.875.836 1.875 1.868M82.5 36.731c0 1.033-.84 1.87-1.875 1.87a1.872 1.872 0 0 1-1.875-1.87c0-1.032.84-1.868 1.875-1.868 1.035 0 1.875.836 1.875 1.868m0 67.276c0 1.032-.84 1.869-1.875 1.869a1.872 1.872 0 0 1-1.875-1.869c0-1.032.84-1.868 1.875-1.868 1.035 0 1.875.836 1.875 1.868" fill="#000"/><path fill="#144261" d="M30 29.257h60v-1.869H30z"/><path d="M61.875 80.648c0 .516-.84.934-1.875.934-1.035 0-1.875-.418-1.875-.934s.84-.935 1.875-.935c1.035 0 1.875.419 1.875.935m-.625-36.441c0 .344-.56.622-1.25.622s-1.25-.278-1.25-.622.56-.623 1.25-.623 1.25.279 1.25.623" fill="#FFF"/></g></svg>