<svg width="120" height="120" viewBox="0 0 120 120" xmlns="http://www.w3.org/2000/svg" xmlns:xlink="http://www.w3.org/1999/xlink"><defs><path id="a" d="M0 0h53.976v53.553H0z"/><path id="c" d="M0 .42h53.976v53.55H0z"/></defs><g fill="none" fill-rule="evenodd"><path d="M48.21 72.137c-6.465 4.855-10.47 12.572-10.803 20.64-.85 20.121 22.241 33.927 39.918 23.841 13.665-7.792 18.78-28.013 8.876-40.76-8.918-11.488-26.803-12.12-37.99-3.72M48.21 10.72c-6.465 4.848-10.47 12.572-10.803 20.64-.85 20.121 22.241 33.927 39.918 23.842 13.665-7.792 18.78-28.013 8.876-40.76C77.283 2.946 59.398 2.32 48.211 10.72" fill="#E6E6E6"/><path d="M66.839 71.753c10.444 6.357 10.11 21.79 2.152 30.116-7.516 7.875-20.805 8.268-28.264.175-9.193-9.969-3.646-22.657 4.647-31.117 6.724-3.178 15.158-3.012 21.465.826m0-61.416c10.444 6.356 10.11 21.79 2.152 30.115-7.516 7.876-20.805 8.268-28.264.176-9.193-9.97-3.646-22.658 4.647-31.117 6.724-3.179 15.158-3.012 21.465.826" fill="#F5846B"/><g transform="translate(29)"><mask id="b" fill="#fff"><use xlink:href="#a"/></mask><path d="M39.991 40.453c7.958-8.326 8.292-23.76-2.152-30.116-6.307-3.837-14.742-4.005-21.465-.825-8.293 8.459-13.84 21.146-4.648 31.117 7.46 8.092 20.748 7.7 28.265-.176M48.817 9.41c9.903 12.747 4.788 32.97-8.876 40.761C22.263 60.258-.828 46.452.022 26.33.356 18.262 4.36 10.537 10.826 5.69 22.013-2.71 39.9-2.086 48.817 9.41" fill="#D6503A" mask="url(#b)"/></g><g transform="translate(29 61)"><mask id="d" fill="#fff"><use xlink:href="#c"/></mask><path d="M39.991 40.87c7.958-8.326 8.292-23.76-2.152-30.116-6.307-3.838-14.742-4.004-21.465-.826-8.293 8.46-13.84 21.148-4.648 31.116 7.46 8.094 20.748 7.7 28.265-.174m8.826-31.042c9.903 12.747 4.788 32.969-8.876 40.76C22.263 60.675-.828 46.869.022 26.746.356 18.68 4.36 10.963 10.826 6.107c11.187-8.4 29.073-7.765 37.991 3.722" fill="#D6503A" mask="url(#d)"/></g><path d="M68.78 21.505c-2.28-3.738-7.023-5.94-11.236-4.427-2.95 1.061-2.784 6.135.793 5.858 6.134-.476 2.965 9.263 3.245 12.335.324 3.573 4.565 4.794 6.65 1.801 2.963-4.256 3.302-11.052.548-15.567M54.056 34.962c-4.718 0-4.726 7.332 0 7.332 4.718 0 4.726-7.332 0-7.332m6.836 38.868c-2.022-1.504-4.01 1.609-2.547 3.302 3.243 3.752 2.172 7.621 2.326 12.09.102 2.924 3.6 3.576 5.193 1.404 4.027-5.488-.298-13.32-4.972-16.797m-4.755 21.167a4.034 4.034 0 0 0-1.442-1.442c-.338-.246-.817-.38-1.204-.535a4.147 4.147 0 0 0-4.041 1.069c-.747.811-1.217 1.811-1.217 2.936 0 1.067.463 2.186 1.217 2.94a4.145 4.145 0 0 0 4.04 1.067c.388-.155.867-.29 1.205-.534a4.013 4.013 0 0 0 1.442-5.502" fill="#FFF" opacity=".5"/></g></svg>