<svg width="120" height="120" viewBox="0 0 120 120" xmlns="http://www.w3.org/2000/svg" xmlns:xlink="http://www.w3.org/1999/xlink"><defs><path id="a" d="M0 0h120v120H0z"/><path id="c" d="M0 120h120V0H0z"/></defs><g fill="none" fill-rule="evenodd"><mask id="b" fill="#fff"><use xlink:href="#a"/></mask><path d="M117.122 53.05L66.95 2.879c-3.838-3.838-10.06-3.838-13.898 0L2.878 53.05c-3.837 3.838-3.837 10.06 0 13.897l50.173 50.174c3.838 3.837 10.06 3.837 13.898 0l50.173-50.174c3.837-3.836 3.837-10.06 0-13.897" fill="#FF6187" mask="url(#b)"/><path d="M73.434 86.984c0 7.698-6.24 13.939-13.938 13.939s-13.938-6.243-13.938-13.94 6.24-13.938 13.938-13.938 13.938 6.24 13.938 13.938" fill="#FFE967"/><path d="M103.08 58.67c0 7.697-6.24 13.938-13.939 13.938-7.697 0-13.937-6.241-13.937-13.938 0-7.697 6.24-13.938 13.937-13.938 7.698 0 13.938 6.241 13.938 13.938" fill="#EDCF3D"/><path d="M45.325 61.512c-1.8 7.484-9.328 12.09-16.812 10.289C21.03 70 16.423 62.473 18.223 54.99c1.802-7.485 9.33-12.091 16.813-10.29 7.484 1.8 12.091 9.329 10.29 16.812" fill="#336FC6"/><path d="M73.217 36.076c-1.862 7.47-9.427 12.015-16.896 10.153-7.468-1.862-12.014-9.425-10.152-16.895 1.86-7.469 9.426-12.015 16.895-10.153 7.468 1.862 12.014 9.426 10.153 16.895" fill="#61AFFC"/><path d="M52.734 35.828H66.41l-6.875-9.738-6.8 9.738zm15.431 1.82H50.991a.905.905 0 0 1-.806-.49.907.907 0 0 1 .06-.94l8.54-12.23a.904.904 0 0 1 .742-.389h.002c.296 0 .572.143.743.385l8.635 12.23c.196.276.221.64.065.941a.906.906 0 0 1-.807.492zM65.45 93.955a.96.96 0 0 1-.683-.283L52.655 81.56a.962.962 0 0 1 0-1.364.96.96 0 0 1 1.364 0l12.113 12.113a.962.962 0 0 1 0 1.364.96.96 0 0 1-.682.283" fill="#FFF"/><path d="M53.338 93.955a.96.96 0 0 1-.683-.283.962.962 0 0 1 0-1.364l12.113-12.113a.96.96 0 0 1 1.364 0 .962.962 0 0 1 0 1.364L54.02 93.672a.96.96 0 0 1-.682.283m35.946-41.693a6.405 6.405 0 0 0-6.397 6.397 6.406 6.406 0 0 0 6.397 6.398c3.525 0 6.395-2.871 6.395-6.398a6.404 6.404 0 0 0-6.395-6.397m0 14.726c-4.593 0-8.328-3.736-8.328-8.33 0-4.591 3.735-8.327 8.328-8.327 4.592 0 8.325 3.736 8.325 8.328 0 4.593-3.733 8.329-8.325 8.329" fill="#FFF"/><mask id="d" fill="#fff"><use xlink:href="#c"/></mask><path d="M26.082 63.869h10.801V53.068H26.082v10.801zM37.848 65.8H25.117a.967.967 0 0 1-.966-.966v-12.73c0-.534.433-.966.966-.966h12.731c.533 0 .965.432.965.966v12.73a.966.966 0 0 1-.965.966z" fill="#FFF" mask="url(#d)"/></g></svg>