<svg width="120" height="120" viewBox="0 0 120 120" xmlns="http://www.w3.org/2000/svg" xmlns:xlink="http://www.w3.org/1999/xlink"><defs><path id="a" d="M.918.51h16.985v19.274H.918z"/></defs><g fill="none" fill-rule="evenodd"><path d="M31.407 87.657a.775.775 0 0 1-.662-.868l.12-.94c.422-3.389.902-7.225 2.436-10.18.248-.477 12.634-3.538 12.907-3.614l.413 1.49c-.305.086-10.934 2.55-12.04 3.021-1.335 2.691-1.786 6.29-2.183 9.475-.04.32-.08.637-.121.951a.77.77 0 0 1-.87.665m54.445.187a.772.772 0 0 0 .668-.862c-.037-.308-.074-.625-.11-.942-.4-3.388-.853-7.229-2.366-10.195-.246-.48-12.61-3.63-12.88-3.706l-.424 1.488c.303.088 10.916 2.625 12.018 3.105 1.316 2.7 1.74 6.304 2.116 9.49l.111.951a.772.772 0 0 0 .867.67M34.776 103.99a.774.774 0 0 1-.901-.615l-.182-.931c-.661-3.347-1.41-7.14-.883-10.43.087-.53 10.884-7.34 11.118-7.497l.86 1.287c-.262.175-9.58 5.862-10.482 6.66-.422 2.973.28 6.532.903 9.68l.184.94a.774.774 0 0 1-.617.906m47.942.617a.773.773 0 0 0 .915-.59l.207-.926c.75-3.33 1.598-7.102 1.155-10.403-.072-.536-10.686-7.627-10.915-7.79l-.894 1.264c.257.183 9.423 6.113 10.303 6.933.344 2.985-.452 6.524-1.156 9.656-.072.314-.142.627-.21.933a.775.775 0 0 0 .595.923M59.357 75.48c6.58 0 11.911-8.105 11.911-18.103 0-10-5.332-18.105-11.91-18.105s-11.911 8.106-11.911 18.105c0 9.998 5.333 18.103 11.91 18.103" fill="#FAB52D"/><g transform="translate(63.05 6.51)"><mask id="b" fill="#fff"><use xlink:href="#a"/></mask><path d="M2.794 19.784C3.879 14.15 6.664 8.84 10.06 5.928c1.605-1.375 4.42-3.305 7.841-3.53.02.04-.47-2.052-.466-1.878-2.928.268-5.868 1.597-8.617 3.954C5.052 7.702 2.1 13.289.92 19.423l1.875.361z" fill="#19171C" mask="url(#b)"/></g><path d="M47.447 60.052c-4.367 4.871-8.286 12.17-8.286 20.292 0 14.562 18.425 33.146 19.98 33.146 1.442 0 19.972-18.675 19.972-33.146 0-8.058-3.464-15.393-7.845-20.292h-23.82z" fill="#B56F27"/><path d="M53.215 26.294c-1.35-5.578-4.383-10.75-7.914-13.496-1.668-1.298-4.571-3.092-8-3.155-.016.042.375-2.07.378-1.898 2.937.13 5.938 1.318 8.795 3.54 3.915 3.047 7.129 8.488 8.597 14.56l-1.856.449z" fill="#19171C"/><path d="M59.746 44.41c6.793 0 12.3-5.518 12.3-12.324 0-6.803-5.507-12.32-12.3-12.32-6.792 0-12.3 5.517-12.3 12.32 0 6.806 5.508 12.325 12.3 12.325" fill="#FAB52D"/><path d="M58.433 27.2a4.842 4.842 0 0 1-4.838 4.845 4.84 4.84 0 0 1-4.836-4.846 4.84 4.84 0 0 1 4.836-4.846 4.842 4.842 0 0 1 4.838 4.846m12.658.001a4.842 4.842 0 0 1-4.837 4.845 4.84 4.84 0 0 1-4.837-4.846 4.84 4.84 0 0 1 4.837-4.846A4.842 4.842 0 0 1 71.09 27.2" fill="#19171C"/><path d="M38.549 57.966L53.76 42.775S24.323 29.458 0 54.768l7.165 5.263c9.39 6.898 23.45 5.865 31.384-2.065" fill="#5CC7D1"/><path d="M15.937 71.6l7.67 2.497C33.6 77.352 44.331 71.875 47.58 61.86l6.228-19.194S25.414 40.222 15.937 71.6" fill="#9DD8D6"/><path d="M29.225 56.187c7.142-1.436 8.45-3.025 24.535-13.506 0 0-26.302-12.51-53.76 7.823l7.165 3.435c6.305 3.02 14.77 3.725 22.06 2.248" fill="#D97F26"/><path d="M80.564 57.966L65.352 42.775s29.437-13.317 53.76 11.993l-7.165 5.263c-9.39 6.898-23.45 5.865-31.383-2.065" fill="#5CC7D1"/><path d="M103.176 71.6l-7.67 2.497c-9.995 3.255-20.726-2.222-23.974-12.237l-6.226-19.194s28.392-2.444 37.87 28.934" fill="#9DD8D6"/><path d="M89.888 56.187c-7.143-1.436-8.451-3.025-24.536-13.506 0 0 26.302-12.51 53.76 7.823l-7.166 3.435c-6.304 3.02-14.768 3.725-22.058 2.248" fill="#D97F26"/></g></svg>