<svg width="94" height="97" viewBox="-1 -1 94 97" xmlns="http://www.w3.org/2000/svg"><path fill="#F9A41E" d="M66.242 35.117s14.71-7.761 18.501-16.154c3.88-8.484-5.776-13.628-8.213-7.22-1.534 3.88-7.22 13.808-12.364 17.598-4.964 3.791-1.534 7.942 2.076 5.776zM8.03 71.94c7.942-10.74 18.231-16.155 18.231-16.155l17.96 8.664S35.737 77.896 31.856 79.52c0 0-9.656-.992-13.718-3.249"/><path fill="#F9A41E" d="M8.03 71.94S2.615 78.075.9 83.22c-2.165 6.95 7.13 11.192 11.192 3.43 2.075-4.061 4.241-8.483 7.04-11.552"/><path fill="none" stroke="#231F20" stroke-linecap="round" stroke-linejoin="round" d="M8.03 71.94c9.116-10.74 18.231-16.155 18.231-16.155l17.96 8.664S35.737 77.896 31.856 79.52c0 0-9.656-.992-13.718-3.249" stroke-width=".902"/><path fill="#FFF" d="M29.51 58.763c-3.61 1.624-10.289 7.49-8.393 11.642 1.895 4.152 12.996 6.318 18.05-4.151 3.7-7.491-6.047-9.025-9.657-7.491z"/><path fill="none" stroke="#231F20" stroke-linecap="round" stroke-linejoin="round" d="M8.03 71.94S2.615 78.075.9 83.22c-2.165 6.95 7.13 11.192 11.192 3.43 2.075-4.061 4.241-8.483 7.04-11.552" stroke-width=".902"/><path fill="#F9A41E" d="M37 82.86c-2.165 5.415-6.949 8.212-10.739 6.678-3.249-1.263-3.88-5.956-1.625-10.018 2.527-4.512 6.95-7.13 10.289-6.137 3.159 1.083 3.88 4.874 2.076 9.477z"/><path fill="none" stroke="#231F20" stroke-linecap="round" stroke-linejoin="round" d="M37 82.86c-2.165 5.415-6.949 8.212-10.739 6.678-3.249-1.263-3.88-5.956-1.625-10.018 2.527-4.512 6.95-7.13 10.289-6.137 3.159 1.083 3.88 4.874 2.076 9.477z" stroke-width=".902"/><path fill="#F9A41E" d="M17.236 52.445s-10.56-1.805-14.71 5.686c-4.694 8.393 5.324 10.83 8.031 4.964 3.25-6.588 10.56-5.686 10.56-5.686l-3.881-4.964z"/><path fill="none" stroke="#231F20" stroke-linecap="round" stroke-linejoin="round" d="M66.242 35.117s14.71-7.761 18.501-16.154c3.88-8.484-5.776-13.628-8.213-7.22-1.534 3.88-7.22 13.808-12.364 17.598-4.964 3.791-1.534 7.942 2.076 5.776zM17.236 52.445s-11.1-1.805-14.71 5.686c-4.242 8.664 5.324 10.83 8.031 4.964 3.25-6.588 10.56-5.686 10.56-5.686l-3.881-4.964z" stroke-width=".902"/><path fill="#F9A41E" d="M40.43 9.938c-5.054.27-9.476 2.527-9.476 2.527L16.334 2.266l1.985 20.758s-5.866 4.332-6.588 16.606c-.722 13.628 12.454 24.728 29.692 26.172 22.833 2.076 40.522-7.851 38.898-22.833-.903-7.852-6.95-8.664-6.95-8.664s.542-5.144-2.888-11.371c-3.429-6.318-8.844-9.025-8.844-9.025L58.751 1.274l-9.025 9.115s-4.242-.542-9.296-.451z"/><path fill="#FFF" d="M54.238 39.54c-7.942 1.534-27.977-7.04-31.407 6.137-3.88 14.26 7.762 19.223 18.502 20.125 32.58 2.979 40.702-14.44 38.897-22.833-1.263-6.227-3.339-7.942-6.949-8.664-8.032-1.444-11.01 3.79-19.043 5.235z"/><path fill="none" stroke="#231F20" stroke-width=".632" stroke-linecap="round" stroke-linejoin="round" d="M29.149 11.201L33.3 14.18"/><path fill="none" stroke="#231F20" stroke-linecap="round" stroke-linejoin="round" d="M40.43 9.938c-5.054.27-9.476 2.527-9.476 2.527L16.334 2.266l1.985 20.758s-5.866 4.332-6.588 16.606c-.722 13.628 12.454 24.728 29.692 26.172 22.833 2.076 40.522-7.851 38.898-22.833-.903-7.852-6.95-8.664-6.95-8.664s.542-5.144-2.888-11.371c-3.429-6.318-8.844-9.025-8.844-9.025L58.751 1.274l-9.025 9.115s-4.242-.542-9.296-.451z" stroke-width=".902"/><path fill="none" stroke="#231F20" stroke-linecap="round" stroke-linejoin="round" d="M1.803 44.413s4.513.451 6.588.451c2.076-.09 5.957-.45 5.957-.45m.271-4.243s-2.527-1.985-6.589-3.88c-4.512-2.076-6.949-2.618-6.949-2.618" stroke-width=".902"/><path fill="#FFF" stroke="#231F20" stroke-linecap="round" stroke-linejoin="round" d="M68.137 23.114c3.068 4.964 3.068 10.47 0 12.455-3.069 1.985-8.032-.542-11.191-5.506-3.069-4.963-3.069-10.469 0-12.454 3.068-1.895 8.122.541 11.191 5.505z" stroke-width=".902"/><path fill="#231F20" d="M66.645 26.406c.361 1.173-.36 2.346-1.353 2.527-.993.27-2.166-.451-2.437-1.625-.361-1.173.361-2.346 1.354-2.527.992-.18 2.075.542 2.436 1.625"/><path fill="#FFF" stroke="#231F20" stroke-linecap="round" stroke-linejoin="round" d="M41.874 26.092c3.069 4.964 2.617 10.83-.993 13.087-3.61 2.256-9.115.09-12.183-4.874-3.069-4.964-2.618-10.83.992-13.086 3.61-2.256 9.116-.09 12.184 4.873z" stroke-width=".902"/><path fill="#231F20" d="M40.112 29.655c0 1.173-.903 2.076-1.986 2.076-.992 0-1.985-.993-1.985-2.166 0-1.174.902-2.076 1.985-2.076 1.174.09 1.986.993 1.986 2.166"/><path fill="#231F20" stroke="#231F20" stroke-width=".632" stroke-linecap="round" stroke-linejoin="round" d="M53.426 37.013c1.805-.271 5.054-1.174 5.415.992 0 .903-1.805 4.603-4.061 4.693-2.166.09-6.137-2.436-5.866-4.151.27-1.625 2.888-1.264 4.512-1.534z"/><path fill="none" stroke="#231F20" stroke-linecap="round" stroke-linejoin="round" d="M60.917 46.038c.09 2.166-14.079 3.79-13.899.992" stroke-width=".902"/><path fill="#231F20" stroke="#231F20" stroke-width=".632" stroke-linecap="round" stroke-linejoin="round" opacity=".1" d="M21.839 58.943c-.722.542-1.535 1.174-2.437 1.805m23.736 5.325a36.042 36.042 0 0 1-1.535 2.166"/><path fill="none" stroke="#231F20" stroke-linecap="round" stroke-linejoin="round" d="M74.996 39.9s4.964-.721 7.49-1.534c2.979-.902 5.055-2.617 5.055-2.617m-12.184 10.65s2.978 1.263 5.956 1.624c2.979.361 5.054.271 5.054.271" stroke-width=".902"/></svg>