<svg width="480" height="360" viewBox="0 0 480 360" xmlns="http://www.w3.org/2000/svg"><g fill="none"><path fill="#D7F0FC" d="M1 1h478v355H1z"/><path d="M488.141 145.798c-1.752-30.724-27.214-55.134-58.356-55.134-15.948 0-30.386 6.374-40.928 16.736-6.131-4.592-13.743-7.31-22.02-7.31-3.624 0-7.127.513-10.45 1.51-4.621-23.715-25.523-41.6-50.563-41.6-24.406 0-44.824 16.978-50.17 39.757a30.95 30.95 0 0 0-10.21-1.722c-12.203 0-22.775 7.009-27.88 17.22-2.234-.725-4.62-1.148-7.067-1.148a22.7 22.7 0 0 0-6.917 1.088c-1.692-20.695-19.03-36.948-40.143-36.948-17.941 0-33.165 11.752-38.36 27.975a33.709 33.709 0 0 0-7.038-.725c-16.552 0-30.416 11.54-33.95 27.038a21.255 21.255 0 0 0-12.445 8.882c-5.104-14.229-18.697-24.44-34.675-24.44-17.58 0-32.26 12.326-35.884 28.82H-38V248h551V145.798h-24.859z" fill="#FFF"/><path d="M288.111 181.696l-87.587-54.285c-11.974-7.425-27.593-7.184-39.276.57l-32.015 21.222c-11.327 7.515-26.399 7.995-38.243 1.202-9.52-5.44-21.3-6.282-31.594-2.254L1 170.991s0 50.021 6.082 50.021c6.081 0 276.834 5.56 281.062 7.905 4.195 2.375-.033-47.221-.033-47.221z" fill="#D3E59E"/><path d="M478 178.49c-116.732-44.932-185.063-22.511-250.864 22.721-65.8 45.233-65.136 58.05-65.136 58.05s316 6.393 316 2.46V178.49z" fill="#C1D95C"/><path d="M1 191.712c110.452-25.153 175.108-12.607 237.368 12.697C300.628 229.712 300 236.903 300 236.903s-299 3.58-299 1.384v-46.575z" fill="#B0D241"/><path d="M401.545 133.11l26.987 49.682-5.029 2.732-26.987-49.683z" fill="#314B02"/><path d="M421.672 103.006h8.69v122.996h-8.69z" fill="#314B02"/><path d="M479.082 92.584c0 7.32-1.705 14.248-4.73 20.484-8.303 17.02-26.678 28.859-47.981 28.859-29.124 0-52.712-22.111-52.712-49.343 0-16.9 9.075-31.841 22.945-40.728 8.463-5.452 18.729-8.615 29.767-8.615 29.123 0 52.711 22.08 52.711 49.343z" fill="#749829"/><path d="M479.082 92.584c0 7.32-1.705 14.248-4.73 20.484-8.464 5.452-18.73 8.615-29.767 8.615-29.124 0-52.712-22.11-52.712-49.342 0-7.32 1.706-14.249 4.73-20.485 8.464-5.452 18.73-8.615 29.768-8.615 29.123 0 52.711 22.08 52.711 49.343z" fill="#8EB633"/><path d="M441.85 121.683c0 5.242-1.223 10.212-3.412 14.7-5.953 12.231-19.147 20.726-34.433 20.726-20.917 0-37.844-15.875-37.844-35.426 0-12.14 6.533-22.864 16.476-29.25 6.082-3.916 13.452-6.205 21.368-6.205 20.885.03 37.844 15.905 37.844 35.455z" fill="#8EB633"/><path d="M441.85 121.683c0 5.242-1.223 10.212-3.412 14.7-6.082 3.917-13.451 6.176-21.368 6.176-20.917 0-37.844-15.875-37.844-35.425 0-5.242 1.223-10.212 3.411-14.7 6.082-3.917 13.452-6.206 21.368-6.206 20.885.03 37.844 15.905 37.844 35.455z" fill="#ADD136"/><path d="M74.182 78.12H84.48v160.617H74.182z" fill="#314B02"/><path d="M113.943 119.135l4.649 3.392-36.667 50.26-4.65-3.392z" fill="#314B02"/><path d="M454.058 204.542c-4.47 0-8.667 1.18-12.29 3.239-3.654-8.567-12.139-14.591-22.013-14.591h-.09c-7.58-9.233-19.085-15.137-31.949-15.137-17.12 0-31.826 10.444-38.107 25.339a27.762 27.762 0 0 0-9.422-1.635c-4.65 0-9.028 1.15-12.893 3.178-4.44-6.145-11.626-10.14-19.779-10.14-9.059 0-16.97 4.964-21.168 12.32a28.241 28.241 0 0 0-3.26-.394c.03-.454.03-.938.03-1.392 0-18.95-15.34-34.329-34.243-34.329a34.011 34.011 0 0 0-16.276 4.117 33.713 33.713 0 0 0-11.112-1.877c-15.28 0-28.204 10.141-32.431 24.097a21.204 21.204 0 0 0-8.093-1.604c-6.311 0-11.988 2.785-15.883 7.174a20.874 20.874 0 0 0-8.938-3.784c-5.103-9.203-14.917-15.439-26.15-15.439-13.951 0-25.637 9.566-28.959 22.493a17.513 17.513 0 0 0-16.155.787 18.188 18.188 0 0 0-9.028-2.392c-.665 0-1.299.03-1.933.091-2.385-5.116-7.58-8.688-13.588-8.688-.936 0-1.842.09-2.748.242v-.242c0-6.781-5.496-12.29-12.26-12.29-6.824-.031-12.32 5.478-12.32 12.29 0 2.089.513 4.087 1.45 5.812v32.876h27.388a18.168 18.168 0 0 0 13.98 6.509c1.178 0 2.356-.122 3.473-.333a13.92 13.92 0 0 0 2.99.333 13.55 13.55 0 0 0 7.096-1.998c1.389.363 2.838.544 4.348.544 5.496 0 10.387-2.542 13.618-6.478 5.496 6.388 13.619 10.414 22.678 10.414a29.883 29.883 0 0 0 14.887-3.966c2.415.939 5.012 1.484 7.76 1.484 6.25 0 11.867-2.725 15.732-7.054a21.147 21.147 0 0 0 12.592 4.147c6.462 0 12.26-2.906 16.155-7.477 6.16 6.388 14.797 10.384 24.369 10.384a33.46 33.46 0 0 0 15.34-3.694 34.412 34.412 0 0 0 12.018 2.18 34.1 34.1 0 0 0 8.304-1.03c2.868 10.899 12.773 18.951 24.55 18.951 9.934 0 18.54-5.721 22.707-14.076 1.027.12 2.053.211 3.08.211a24.33 24.33 0 0 0 7.881-1.301c4.62 9.02 13.981 15.196 24.791 15.196 7.49 0 14.283-2.966 19.296-7.78C366.88 256.762 376.816 261 387.716 261c15.038 0 28.174-8.052 35.42-20.07a23.733 23.733 0 0 0 7.55-2.422c3.593 9.445 12.682 16.135 23.342 16.135 13.8 0 24.972-11.201 24.972-25.036 0-13.834-11.142-25.065-24.942-25.065z" fill="#749829"/><path fill="#D5D7D8" d="M1 231h478v36H1z"/><path fill="#EFEFF0" d="M1 223h478v11H1z"/><path fill="#C2C4C6" d="M1 234h478v6H1z"/><path fill="#749829" d="M1 267h478v33H1z"/><path fill="#939598" d="M1 275h478v25H1z"/><path fill="#808285" d="M1 292h478v8H1z"/><path fill="#757679" d="M68 275h2v25h-2zm49 0h2v25h-2zm48 0h2v25h-2zm48 0h2v25h-2zm48 0h2v25h-2zm49 0h2v25h-2zm48 0h2v25h-2zm48 0h2v25h-2zm48 0h2v25h-2z"/><path fill="#48484A" d="M1 300h478v123H1z"/><path d="M136.797 69.376c0 8.627-1.865 16.804-5.233 24.168-9.172 20.11-29.47 34.088-53.015 34.088-32.177 0-58.278-26.092-58.278-58.256 0-19.96 10.043-37.575 25.35-48.065 9.352-6.433 20.689-10.19 32.898-10.19 32.176 0 58.278 26.061 58.278 58.255z" fill="#749829"/><path d="M136.797 69.376c0 8.627-1.865 16.804-5.233 24.168-9.352 6.433-20.689 10.19-32.898 10.19-32.176 0-58.278-26.091-58.278-58.255 0-8.628 1.865-16.804 5.233-24.168 9.352-6.433 20.689-10.19 32.898-10.19 32.176 0 58.278 26.061 58.278 58.255z" fill="#8EB633"/><path d="M157.636 105.298c0 5.38-1.173 10.46-3.278 15.06-5.713 12.535-18.373 21.222-33.048 21.222-20.058 0-36.296-16.232-36.296-36.282 0-12.445 6.255-23.417 15.787-29.94a36.168 36.168 0 0 1 20.509-6.343c20.087-.03 36.326 16.233 36.326 36.283z" fill="#8EB633"/><path d="M157.636 105.298c0 5.38-1.173 10.46-3.278 15.06a36.168 36.168 0 0 1-20.508 6.342c-20.058 0-36.296-16.232-36.296-36.282 0-5.38 1.172-10.46 3.247-15.06a36.168 36.168 0 0 1 20.509-6.343c20.087-.03 36.326 16.233 36.326 36.283z" fill="#ADD136"/></g></svg>