<svg width="61" height="149" viewBox="0 0 61 149" xmlns="http://www.w3.org/2000/svg"><g fill="none"><path d="M46.9 88.232c.25-1.304.5-2.509.75-3.713.8-3.463 1.25-7.026 1.85-10.54.1-.752.2-1.455.35-2.208.05-.35 0-.602-.15-.903-.45-.853-1-1.556-1.85-2.058-.45-.25-.85-.552-1.2-.953-.4-.452-.5-1.004-.25-1.556.25-.502.7-.753 1.25-.702.4.05.8.15 1.15.35.2.151.35.352.7.352 0-.25.05-.502.05-.803 0-.301 0-.552.05-.853v-2.359c0-.401.05-.753.15-1.154.1-.402.25-.703.6-.954.3-.2.65-.1.95 0 .2-.25.35-.552.6-.752.55-.502 1.15-.502 1.45.3.05.151.1.302.2.452h.15c1.05-.401 1.5-.15 1.6.954.15 1.154 0 2.258-.1 3.413-.15 1.756-.6 3.462-.9 5.219-.05.2-.05.452-.15.602-.6 1.154-.6 2.46-.75 3.714-.1.953-.25 1.907-.4 2.86l-.3 2.861c-.3 2.91-.75 5.822-1.2 8.732-.05.452-.2.904-.3 1.355-.15.653-.55 1.155-1.15 1.406-.2.1-.35.2-.55.25-3.1 1.356-6.2 2.61-9.35 3.815-.65.25-1.3.552-1.95.853-1.3.552-2.6 1.004-3.9 1.505-.35.1-.7.201-1.1.1-.35-.05-.75-.1-1.1-.05-.5.05-.75-.2-.95-.602-.1-.15-.15-.3-.25-.451-.35-.703-.3-.954.25-1.456a7.997 7.997 0 0 1 2.2-1.455c.85-.351 1.75-.803 2.65-1.104 3.25-1.154 6.45-2.56 9.7-3.814.35-.251.75-.452 1.2-.653zm4-17.213c-.05.2-.1.401-.1.552-.15 1.355-.3 2.66-.5 4.015-.5 2.66-.8 5.37-1.35 8.03-.35 1.505-.65 2.96-.95 4.466-.1.552-.35.853-.85 1.104a93.263 93.263 0 0 1-4.7 1.957c-3.15 1.255-6.3 2.56-9.45 3.965-.4.2-.8.401-1.15.652-.3.201-.3.402-.2.753.1.25.3.351.55.401.8 0 1.55-.1 2.3-.35 2.85-1.105 5.65-2.159 8.45-3.313 2.15-.853 4.25-1.807 6.4-2.66.6-.25.9-.703 1-1.355.1-.903.3-1.807.4-2.71.3-2.409.6-4.768.9-7.177.25-1.806.45-3.663.75-5.47.2-1.204.3-2.459.8-3.613.1-.2.15-.452.15-.703.25-1.405.55-2.86.75-4.266.15-1.204.2-2.409.3-3.613 0-.2.05-.452-.25-.502-.2.15-.25.402-.3.653-.15 1.003-.4 2.007-.45 3.06-.05.402-.1.754-.2 1.155-.05.301-.3.502-.5.402-.25-.1-.35-.301-.35-.552 0-.352 0-.703.1-1.054.2-1.104.15-2.259.2-3.413 0-.351-.05-.652-.05-1.004-.2-.05-.25.05-.3.15-.2.402-.3.854-.3 1.356 0 .903 0 1.857-.05 2.76 0 .402-.05.803-.1 1.154-.05.352-.2.402-.6.251-.05 0-.1-.05-.2-.1-.15-.602-.1-1.204-.1-1.807 0-.803 0-1.606-.05-2.459 0-.2 0-.401-.3-.502-.35 1.857-.05 3.764-.3 5.621-.05.2 0 .402.1.602.2.201.4.251.65.251.25.05.45.1.7.15.15.051.3.202.3.402 0 .201-.15.301-.35.301-.9.05-1.75-.05-2.3-.853-.4-.552-.9-.803-1.45-1.154-.35-.2-.45-.15-.8.351.1.15.2.301.3.402.25.2.45.401.75.552 1.05.552 1.75 1.405 2.3 2.459.15.25.25.452.4.703z" fill="#010101"/><path d="M50.9 71.019c-.15-.251-.25-.452-.4-.703-.55-1.054-1.25-1.907-2.3-2.46-.25-.15-.5-.35-.75-.551-.15-.1-.2-.251-.3-.402.3-.502.45-.552.8-.351.5.351 1.05.602 1.45 1.154.55.803 1.4.904 2.3.853.2 0 .35-.1.35-.3 0-.201-.1-.352-.3-.402-.25-.05-.45-.15-.7-.15-.25-.05-.45-.101-.65-.252-.1-.2-.1-.401-.1-.602.25-1.857-.05-3.764.3-5.62.35.05.3.3.3.501 0 .803 0 1.606.05 2.46 0 .602-.05 1.204.1 1.806.05.05.15.1.2.1.4.15.55.1.6-.25.05-.402.1-.753.1-1.155 0-.903 0-1.857.05-2.76 0-.452.15-.903.3-1.355.05-.1.1-.15.3-.15 0 .3.05.652.05 1.003-.05 1.154.05 2.258-.2 3.413-.05.351-.05.702-.1 1.054 0 .3.1.501.35.552.2.05.45-.15.5-.402.1-.401.15-.753.2-1.154.05-1.004.3-2.008.45-3.061.05-.251.1-.502.3-.653.25.1.25.301.25.502-.1 1.204-.15 2.409-.3 3.613-.2 1.456-.5 2.861-.75 4.266-.05.251-.05.502-.15.703-.5 1.154-.6 2.409-.8 3.613-.3 1.807-.5 3.664-.75 5.47-.3 2.41-.6 4.768-.9 7.177-.1.903-.25 1.807-.4 2.71-.1.652-.35 1.104-1 1.355-2.15.853-4.25 1.807-6.4 2.66-2.8 1.104-5.65 2.208-8.45 3.312-.75.301-1.5.402-2.3.351-.25 0-.45-.15-.55-.401-.15-.301-.1-.552.2-.753.35-.25.75-.502 1.15-.652 3.1-1.405 6.25-2.71 9.45-3.965 1.6-.602 3.15-1.255 4.7-1.957.5-.2.75-.552.85-1.104.3-1.506.6-2.961.95-4.467.6-2.66.9-5.37 1.35-8.03.25-1.304.35-2.66.5-4.014 0-.15.05-.301.1-.552z" fill="#D0E9EA"/><path d="M34.25 141.78c-.15-1.706-.4-3.362-.65-4.968-.3-2.007-.55-4.065-.95-6.072-.3-1.656-.6-3.312-.85-5.019-.25-1.656-.45-3.312-.5-4.968-.05-1.255-.05-2.51-.05-3.814 0-1.506 0-3.011.1-4.567.1-1.757.25-3.463.4-5.22 0-.15.05-.35.05-.501-.05-.854.35-1.556.65-2.36.25-.652 1.55-1.153 2.1-1.103.45 0 .8.25 1.1.451.4.352.75.703.85 1.255.1.753.2 1.455.2 2.208-.05 1.556 0 3.112-.15 4.668-.05.401-.2.752-.25 1.154-.1.502-.05 1.054-.1 1.556-.05.652-.05 1.304-.15 2.007-.1 1.154-.15 2.258-.15 3.413v2.459c0 .401.05.803.1 1.204.35 2.309.8 4.567 1.3 6.825.1.352.15.753.2 1.155.4 2.308.75 4.617 1.2 6.875.3 1.707.5 3.413 1.05 5.069.05.15.05.25.1.401.1.703 0 .854-.65 1.255-.15.05-.25.15-.4.2-1.4.402-2.75.954-4.2 1.155l-3.15.452c-.25.05-.5 0-.75 0-.5 0-.75-.351-.55-.904.15-.451.45-.803.85-1.104 1.2-.953 2.1-2.158 3.25-3.161zm4.5 2.61c.15-.25.05-.401.05-.552-.25-1.305-.55-2.56-.8-3.864l-.9-5.27c-.25-1.455-.45-2.91-.8-4.366-.2-.752-.3-1.505-.45-2.258-.15-.703-.3-1.455-.45-2.158-.15-.853-.35-1.706-.4-2.61-.1-1.154-.1-2.358-.1-3.563 0-2.058.25-4.165.4-6.223.05-.703.3-1.405.25-2.158-.05-.401 0-.753 0-1.154 0-1.205.05-2.41.05-3.664 0-.652-.05-1.254-.3-1.857-.2-.502-.5-.702-1.05-.702s-.85.15-1.1.652a1.5 1.5 0 0 0-.2.502c-.35.954-.35 1.907-.45 2.86-.05.703-.05 1.406-.15 2.058a20.1 20.1 0 0 0-.2 2.961c0 1.004.05 2.008 0 2.961-.15 1.957-.05 3.915.1 5.872.2 2.86.75 5.62 1.2 8.431.3 1.656.55 3.312.8 4.918.1.753.15 1.506.3 2.259.25 1.154.3 2.308.4 3.513 0 .2-.05.351-.1.552-.15.602-.4 1.104-1 1.505-.15.1-.3.301-.45.452-.45.502-.9.954-1.45 1.355-.25.2-.5.452-.75.703-.1.1-.15.25 0 .401 2.7-.1 5.2-.602 7.55-1.556z" fill="#010101"/><path d="M38.75 144.39c-2.35.954-4.85 1.456-7.4 1.707-.15-.15-.15-.251 0-.402.25-.25.45-.502.75-.702.55-.402 1-.854 1.45-1.355.15-.151.25-.352.45-.452.6-.402.8-.903 1-1.506.05-.2.1-.351.1-.552-.05-1.204-.15-2.358-.4-3.513-.15-.753-.2-1.505-.3-2.258-.25-1.656-.55-3.312-.8-4.918-.45-2.81-1.05-5.571-1.2-8.432-.15-1.957-.2-3.914-.1-5.871.05-1.004 0-2.008 0-2.961 0-1.004.05-2.008.2-2.961.1-.703.1-1.355.15-2.058.1-.953.1-1.907.45-2.86.05-.151.1-.302.2-.502.25-.502.55-.653 1.1-.653s.85.201 1.05.703c.2.602.25 1.255.3 1.857 0 1.204 0 2.409-.05 3.663 0 .402-.05.753 0 1.155.05.702-.2 1.405-.25 2.158-.15 2.057-.35 4.165-.4 6.223 0 1.204 0 2.358.1 3.563.05.853.25 1.706.4 2.61.15.702.3 1.455.45 2.157.15.753.25 1.506.45 2.259.35 1.455.5 2.91.8 4.366l.9 5.27c.25 1.304.5 2.559.8 3.864-.15 0-.1.15-.2.401z" fill="#D0E9EA"/><path d="M30.65 107.303c-.15.652-.5 1.204-.95 1.756-1 1.205-2 2.46-2.9 3.714a37.17 37.17 0 0 0-1.55 2.309c-1.2 1.806-2.35 3.663-3.55 5.47-.35.502-.55 1.104-.85 1.606-.7 1.405-1.05 2.86-1.4 4.366-.25 1.255-.6 2.56-.85 3.814-.25 1.004-.45 2.008-.65 3.011-.3 1.305-.55 2.61-.85 3.915l-.6 3.011c-.05.15-.05.301-.05.402-.25.803-.6 1.003-1.55.853-1.6-.251-3.2-.502-4.8-.803-.4-.05-.8-.15-1.2-.201-.45-.05-.8-.2-1.1-.502-.5-.351-.55-.803-.1-1.104.3-.2.6-.351 1-.401 1.1-.251 2.1-.753 3.05-1.255.45-.2.8-.452.8-1.004.95-2.459 1.35-5.119 2.1-7.628.45-1.556.85-3.162 1.35-4.718.2-.702.4-1.405.55-2.107.3-1.305.95-2.41 1.6-3.564.7-1.204 1.55-2.408 2.4-3.513 1.2-1.555 2.15-3.262 3.2-4.918l1.35-2.108c.05-.05.1-.15.15-.2.5-.201.65-.653.85-1.004.45-.803 1.15-1.455 1.9-2.058.75-.602 1.65-.501 2.45.15.4.302.45.704.5 1.105 0 .2.05.402 0 .602a3.34 3.34 0 0 1-.3 1.004zM8.7 139.623c.25.15.5.2.75.25 1.65.252 3.25.502 4.9.753 1 .151 1.25.251 1.45-.953.1-.803.2-1.656.35-2.46.5-2.559 1-5.068 1.65-7.577.15-.603.35-1.255.45-1.857.2-1.054.4-2.058.75-3.062.1-.3.2-.552.25-.853.3-1.555 1-2.96 1.9-4.215 1.1-1.556 2.15-3.212 3.25-4.768 1.55-2.258 3.2-4.517 4.85-6.725.5-.652.75-1.455.9-2.208.05-.351-.15-.552-.55-.552-.8-.05-1.4.2-1.8.753-.3.451-.6.903-.95 1.305-.7.803-1.3 1.656-1.9 2.559-.75 1.104-1.4 2.208-2.1 3.312-.9 1.456-2 2.76-2.9 4.216-.6.903-1.15 1.756-1.65 2.71-.35.652-.6 1.305-.8 2.007-.45 1.707-.95 3.363-1.45 5.07-.45 1.605-.9 3.211-1.3 4.817a63.684 63.684 0 0 1-1.2 4.416c-.25.703-.65 1.255-1.35 1.656-.9.502-1.8 1.004-2.85 1.205-.2.05-.35.1-.5.2-.1-.15-.1-.05-.15 0z" fill="#010101"/><path d="M8.7 139.623c.05-.05.05-.15.15-.201.15-.1.35-.15.5-.2 1.05-.202 1.95-.703 2.85-1.205.7-.402 1.1-.954 1.35-1.656.5-1.456.85-2.911 1.2-4.417.4-1.606.85-3.212 1.3-4.818.45-1.706 1-3.362 1.45-5.068.2-.703.45-1.355.8-2.008.5-.903 1.05-1.807 1.65-2.71.95-1.405 2-2.76 2.9-4.215.7-1.105 1.35-2.259 2.1-3.313.6-.853 1.2-1.756 1.9-2.56.35-.4.65-.852.95-1.304.4-.552 1-.853 1.8-.753.4.05.6.251.55.552-.15.803-.4 1.556-.9 2.208-1.65 2.209-3.3 4.467-4.85 6.725-1.1 1.606-2.15 3.212-3.25 4.768-.9 1.305-1.6 2.66-1.9 4.216-.05.3-.15.602-.25.853-.35 1.003-.5 2.057-.75 3.061-.15.602-.3 1.255-.45 1.857-.7 2.51-1.2 5.019-1.65 7.578-.15.803-.25 1.656-.35 2.46-.2 1.204-.45 1.103-1.45.953-1.65-.251-3.25-.502-4.9-.753-.25.2-.5.15-.75-.05z" fill="#D0E9EA"/><path d="M9.35 58.221c.05-.552.1-.903.1-1.254 0-.352.2-.603.5-.703.3-.1.65.1.9.401.2.251.2.653.5.803.05 0 .05-.05.1-.05.15-.3.25-.652.65-.652.45.05.8.3 1 .702.35.653.65 1.305.8 2.008.25 1.104.5 2.258.75 3.362.05.251.05.552.35.803.35-.351.6-.803 1.1-1.003.25-.1.5-.201.75-.151.55.05.85.552.7 1.054-.05.15-.15.301-.2.452-.25.401-.35.803-.3 1.304 0 .201 0 .352-.05.552-.05 1.205-.65 2.008-1.6 2.51-.1.05-.2.1-.25.15-.05.05-.1.1-.15.1.5 2.811 1.1 5.621 1.9 8.382.35 1.204.65 2.459 1 3.663.25.904.65 1.757 1.05 2.61.45.953 1.2 1.706 1.9 2.459.55.602 1.15 1.154 1.7 1.757.9.953 1.95 1.656 2.95 2.459.9.702 1.75 1.555 2.65 2.358.55.502 1.1 1.054 1.55 1.657.7.853.5 2.057-.35 2.559-.25.15-.5.2-.75.301-.4.15-.75.15-1.15-.1-1-.602-2-1.205-2.9-1.907-1.85-1.456-3.6-3.011-5.35-4.567-1.35-1.205-2.6-2.56-3.55-4.166-.55-.903-.95-1.907-1.2-2.91-.5-2.108-.9-4.216-1.35-6.324-.3-1.355-.65-2.66-.8-4.015-.1-.803-.2-1.555-.35-2.358-.1-.753-.3-1.456-.8-2.108-.45-.602-.7-1.355-1-2.058-.55-1.204-.9-2.459-1.25-3.714-.3-1.003-.55-2.007-.85-3.01-.15-.503-.3-1.055-.1-1.557.2-.602.65-.752 1.15-.3 0 .15.05.25.25.501zm1.95 2.51c-.05-.954-.35-1.857-.95-2.81-.1 1.003.3 1.705.55 2.508.05.201.05.452.1.653.15.803.3 1.556.4 2.359.05.25-.05.451-.3.501-.2.05-.4-.05-.5-.3-.15-.302-.3-.603-.35-.904-.25-.954-.7-1.807-1.05-2.76-.05-.201-.15-.402-.45-.352.35 1.305.7 2.56 1.1 3.865.45 1.606 1.05 3.161 1.9 4.617.55.953.9 1.957 1.05 3.061.2 1.405.4 2.81.75 4.216.5 2.208 1 4.416 1.45 6.624.45 2.208 1.4 4.065 2.95 5.671 1.6 1.757 3.4 3.262 5.2 4.768.4.301.7.753 1.1 1.004 1.05.702 2.1 1.405 3.1 2.158.3.2.55.3.85.3.55 0 .8-.3.6-.903-.2-.552-.45-1.053-.9-1.455-1.25-1.255-2.6-2.359-3.95-3.413-.3-.2-.6-.401-.85-.652-1.1-1.104-2.2-2.258-3.35-3.312-1.4-1.305-2.25-3.011-2.8-4.818-.95-3.212-1.8-6.474-2.5-9.736-.25-1.154-.45-2.309-.45-3.513.4-.251.8-.552 1.2-.753.55-.301.8-.803.8-1.455.05-.703.05-1.456.3-2.158-.15-.05-.25 0-.3.1-.35.401-.7.853-.85 1.355-.3.753-.95.903-1.6.954-.15 0-.25-.1-.3-.201-.1-.2 0-.351.1-.452.25-.25.65-.15.9-.552-.55-2.258-.9-4.567-1.8-6.825-.25.15-.2.3-.2.502l.6 3.914c.05.452-.05.753-.25.803-.2.05-.4-.1-.55-.552-.3-.702-.5-1.405-.75-2.058z" fill="#010101"/><path d="M11.3 60.73c.25.703.45 1.356.7 2.058.15.452.35.602.55.552.25-.05.35-.351.25-.803l-.6-3.914c-.05-.201-.05-.352.2-.502.9 2.258 1.2 4.567 1.8 6.825-.2.402-.65.301-.9.552-.15.15-.2.251-.1.452.05.15.15.25.3.2.65-.1 1.3-.2 1.6-.953.2-.502.55-.954.85-1.355.05-.1.15-.15.3-.1-.25.652-.25 1.405-.3 2.158-.05.652-.3 1.154-.8 1.455-.4.25-.75.502-1.2.753 0 1.204.2 2.359.45 3.513.7 3.262 1.55 6.524 2.5 9.736.55 1.807 1.4 3.463 2.8 4.818 1.15 1.054 2.2 2.208 3.35 3.312.25.25.55.452.85.652 1.35 1.054 2.7 2.158 3.95 3.413.4.402.7.903.9 1.455.2.552 0 .904-.6.904-.3 0-.6-.1-.85-.301-1.05-.753-2.1-1.456-3.1-2.158-.4-.301-.7-.703-1.1-1.004-1.8-1.455-3.6-3.011-5.2-4.768a11.705 11.705 0 0 1-2.95-5.67c-.45-2.209-.95-4.417-1.45-6.625-.35-1.405-.55-2.81-.75-4.216-.15-1.054-.45-2.057-1.05-3.061-.85-1.456-1.4-3.011-1.9-4.617-.4-1.305-.7-2.56-1.1-3.865.25-.05.4.201.45.352.3.903.8 1.806 1.05 2.76.05.301.25.602.35.903.1.251.3.352.5.301.2-.05.3-.25.3-.501-.15-.803-.25-1.556-.4-2.36-.05-.2-.05-.4-.1-.652.3-.05.35.15.45.301z" fill="#D0E9EA"/><path d="M11.3 60.73c-.1-.1-.15-.35-.4-.35-.25-.754-.65-1.506-.55-2.51.6.953.9 1.857.95 2.86z" fill="#A9BDBE"/><path d="M32.8 35.336c-.05.552-.05 1.054-.05 1.556V47.08c0 3.162.05 6.323.05 9.485 0 1.857-.05 3.764-.05 5.62v24.341c0 2.409-.05 4.818-.05 7.177v7.327c0 .853.25 1.154 1 1.405 1.25.401 2.5.753 3.75 1.154 1.5.452 3.1.753 4.55 1.405.45.201.85.151 1.3.201.85.05 1.6.402 2.4.753 1 .452 1.3 2.158.85 2.91-.65 1.155-1.85 1.607-2.95 1.155-.55-.25-1.1-.552-1.5-1.004-.3-.3-.6-.502-1-.652-2.55-1.004-5.15-2.008-7.8-2.66-.15-.05-.35-.05-.45-.05-1.25.452-2.5.25-3.75 0-.4-.1-.8-.1-1.2 0-.55.15-1.1.301-1.6.452-2.2.602-4.3 1.455-6.4 2.308-.3.1-.55.251-.8.502-.45.452-1 .753-1.6 1.054-1.3.702-3.15-.502-3.15-2.108 0-.954.4-1.656 1.3-2.108.75-.351 1.55-.652 2.4-.652.45 0 .85-.1 1.3-.251 1.8-.703 3.65-1.054 5.5-1.656.85-.301 1.7-.502 2.5-.753.75-.251 1.2-.903 1.25-1.706V87.178c0-3.764-.05-7.527-.05-11.291V45.976c0-3.062.05-6.073.05-9.134 0-.452-.05-.853-.05-1.305-.45-.401-.9-.502-1.45-.502-3.55-.2-7.05-.652-10.5-1.505-2.75-.703-5.45-1.556-7.9-3.011-1.3-.753-2.5-1.556-3.5-2.66-.8-.904-1.45-1.907-1.7-3.162-.25-1.305-.1-2.51.6-3.714.9-1.606 2.25-2.71 3.75-3.613 2.2-1.355 4.5-2.359 7-3.061a53.49 53.49 0 0 1 4.9-1.155c2.2-.401 4.4-.702 6.65-.803 1.1-.05 2.2-.15 3.3-.2 2.45-.1 4.95.05 7.4.3 2.05.201 4.1.452 6.15.904 2.9.652 5.75 1.355 8.4 2.61 1.5.752 2.95 1.555 4.25 2.66 1 .853 1.75 1.856 2.25 3.06.75 1.657.5 3.263-.4 4.819-.8 1.405-1.95 2.409-3.25 3.262-1.8 1.154-3.7 2.007-5.7 2.71-3.3 1.154-6.7 1.857-10.15 2.258-1.6.2-3.15.452-4.75.352-.3.1-.7.2-1.1.25zm-1.65-1.104h1.55c1.95 0 3.9-.2 5.85-.401 1.2-.15 2.35-.351 3.55-.502 2.05-.301 4.05-.903 6-1.455 1.05-.302 2.05-.803 3.1-1.255 1.95-.853 3.75-1.907 5.15-3.613 1.75-2.108 1.7-4.216.1-6.223-.6-.753-1.35-1.355-2.1-1.958-1.1-.803-2.3-1.405-3.55-1.957-2.4-1.004-4.85-1.807-7.4-2.309-1.6-.3-3.2-.602-4.85-.802a38.53 38.53 0 0 0-5.4-.352c-1.45 0-2.95-.15-4.4-.05-2.3.15-4.6.25-6.9.652-1.95.352-3.95.603-5.85 1.205-2.8.853-5.55 1.706-8 3.362-1.25.854-2.3 1.857-3 3.162-.85 1.556-.7 3.112.2 4.567.7 1.104 1.7 2.007 2.85 2.71 1.9 1.204 3.9 2.108 6.05 2.81 2.5.803 5 1.406 7.55 1.757 1.5.2 3 .351 4.5.502 1.7.15 3.35 0 5 .15zm-1.35 1.155c-.05.702-.15 1.254-.15 1.856 0 2.861.1 5.722.05 8.582v3.212c-.05 2.41.05 4.868 0 7.277 0 2.961-.05 5.922 0 8.883.05 2.007 0 3.965 0 5.972 0 3.965-.15 7.88 0 11.844.05 2.007 0 4.065 0 6.073 0 2.408-.05 4.868-.05 7.276v4.066c0 .451-.05.903.25 1.304.55.15 1.05.251 1.6.05.2-.752.1-1.505.1-2.208-.05-3.262-.05-6.574-.05-9.836 0-1.305-.05-2.66.05-3.965.1-1.003-.05-2.057-.05-3.111V72.323c0-.853-.1-1.656 0-2.509.1-1.004.05-2.007 0-2.96 0-1.306.05-2.66 0-3.966-.05-2.158-.05-4.316-.05-6.474 0-1.505.05-3.06.05-4.566 0-1.054-.15-2.158-.05-3.212.15-1.606-.05-3.162 0-4.768.05-.853 0-1.656 0-2.51v-4.315c0-.653 0-1.255-.2-1.907-.4.15-.9.2-1.5.25zm12.25 70.762c-.1-.05-.2-.15-.3-.201-1.15-.351-2.25-.753-3.45-1.004-1.5-.351-2.9-.803-4.35-1.254-.2-.05-.4-.251-.7 0-.05.35-.1.752.15 1.154 2.75.702 5.45 1.706 8.1 2.76.4-.452.65-.853.55-1.455zm-14.25-2.46c-.1 0-.2-.05-.25-.05l-7.8 2.259c-.2.05-.5.1-.6.552.15.351.2.903.75 1.154 1.5-.652 3.05-1.204 4.6-1.706.9-.301 1.85-.552 2.75-.853.6-.15.7-.352.7-.954-.05-.15-.15-.301-.15-.401zm1.3 1.356c1.1.15 2.2.451 3.3-.05.05-.753.15-1.456-.3-2.159-1 .151-1.9-.05-2.85-.2-.35.752-.65 1.505-.15 2.409z" fill="#010101"/><path d="M31.15 34.232c-1.65-.1-3.25 0-4.9-.15-1.5-.15-3-.301-4.5-.502-2.6-.351-5.1-.954-7.55-1.757-2.15-.652-4.15-1.606-6.05-2.81C7 28.31 6 27.407 5.3 26.303c-.9-1.405-1.05-3.011-.2-4.567.7-1.355 1.8-2.308 3-3.162 2.45-1.656 5.2-2.509 8-3.362 1.9-.602 3.9-.853 5.85-1.205 2.3-.401 4.6-.501 6.9-.652 1.45-.1 2.9.05 4.4.05 1.8 0 3.6.1 5.4.352 1.6.2 3.25.501 4.85.802 2.55.502 5 1.305 7.4 2.309a16.36 16.36 0 0 1 3.55 1.957c.8.552 1.55 1.205 2.1 1.958 1.55 2.007 1.65 4.115-.1 6.223-1.4 1.656-3.2 2.71-5.15 3.613-1 .452-2 .953-3.1 1.255-2 .552-3.95 1.204-6 1.455-1.2.15-2.35.351-3.55.502-1.95.25-3.9.401-5.85.401h-1.65zm-3.5-16.36c.5 1.003 1.45 1.355 2.45 1.505.8.15 1.6.1 2.4 0 .5-.05 1-.3 1.5-.451.4-.15.35-.703.7-.854.65-.1 1.15.05 1.7.302 1 .451 2 1.003 2.9 1.656.2.15.45.351.7.502.2.15.4.1.55-.05.2-.201.1-.402 0-.553-.15-.2-.3-.401-.5-.501-1.55-1.004-3.1-2.108-4.95-2.56-.35-.1-.7-.2-1-.602 0-.502.1-1.255-.7-1.506-.5 0-.95.352-1.35.502-.65-.452-1.2-.301-1.75.05-.15-.05-.3-.15-.45-.2-.85-.402-1.35-.201-1.65.652-.1.25-.15.502-.2.753-.4.3-.85.3-1.3.401-1.55.502-3.05 1.205-4.35 2.208-.4.302-.75.603-.7 1.155.35.3.6.2.9 0 .55-.352 1.1-.653 1.65-1.004.95-.602 2.15-1.054 3.45-1.405z" fill="#FFC941"/><path d="M29.8 35.387c.6-.05 1.1-.15 1.65-.201.2.652.2 1.305.2 1.907v6.826c-.05 1.605.15 3.16 0 4.767-.1 1.054.05 2.158.05 3.212 0 1.505-.05 3.061-.05 4.567 0 2.158 0 4.316.05 6.474 0 1.304-.05 2.61 0 3.964 0 1.004.05 2.008 0 2.961-.1.853.05 1.656 0 2.51-.05 3.462-.05 6.875 0 10.338 0 1.054.15 2.058.05 3.111-.1 1.305-.05 2.66-.05 3.965 0 3.262-.05 6.574.05 9.837 0 .702.1 1.455-.1 2.208-.55.2-1.1.1-1.6-.05-.3-.402-.25-.854-.25-1.305v-4.065c0-2.41.05-4.868.05-7.277 0-2.008.05-4.065 0-6.073-.1-3.964.05-7.879 0-11.844 0-2.007.05-3.964 0-5.972-.05-2.96 0-5.922 0-8.883 0-2.409-.1-4.868 0-7.277.05-1.054 0-2.158 0-3.212 0-2.86-.05-5.72-.05-8.581-.15-.603-.05-1.205 0-1.907z" fill="#CDE6E7"/><path d="M42.05 106.149c.1.552-.15 1.003-.55 1.455-2.65-1.054-5.35-2.007-8.1-2.76-.25-.402-.2-.803-.15-1.154.3-.251.5-.05.7 0 1.45.451 2.9.903 4.35 1.254 1.15.301 2.3.653 3.45 1.004.1.05.2.15.3.2zM27.8 103.69c.05.15.1.3.1.451 0 .602-.1.753-.7.954-.9.3-1.85.552-2.75.853-1.55.502-3.1 1.054-4.6 1.706-.55-.3-.6-.803-.75-1.154.1-.401.35-.452.6-.552l7.8-2.258c.1-.1.15-.05.3 0z" fill="#CAE2E3"/><path d="M29.1 105.045c-.5-.904-.2-1.606.15-2.41.95.201 1.9.402 2.85.201.45.703.35 1.406.3 2.158-1.1.452-2.2.201-3.3.05z" fill="#C8DFE0"/><path d="M27.65 17.872c-1.3.3-2.45.803-3.55 1.455-.55.351-1.1.653-1.65 1.004-.3.15-.6.25-.9 0 0-.552.35-.853.7-1.154 1.3-1.004 2.8-1.707 4.35-2.209.4-.15.85-.15 1.3-.401.05-.251.1-.502.2-.753.3-.903.8-1.054 1.65-.652.15.05.3.15.45.2.55-.401 1.1-.501 1.75-.05.4-.15.85-.451 1.35-.502.85.251.7.954.7 1.506.3.401.65.502 1 .602 1.85.502 3.4 1.556 4.95 2.56.2.15.35.3.5.502.1.15.2.35 0 .552-.15.15-.35.2-.55.05-.25-.15-.45-.301-.7-.502a14.98 14.98 0 0 0-2.9-1.656c-.5-.251-1.05-.352-1.7-.301-.3.15-.3.702-.7.853-.5.15-1 .401-1.5.452-.8.1-1.6.15-2.4 0-.9-.201-1.85-.502-2.35-1.556zm2.9-1.255c-.55.1-.9-.552-1.5-.652.3.803.85.903 1.45.903.55.1 1.1.1 1.65 0 .2-.05.35-.2.2-.452-.5.452-.85.05-1.2-.25-.2.2-.4.35-.6.451zm2.6 1.054c-.7.25-1.45.05-2.15.15-.7.1-1.35-.35-2.05-.2.25.3.55.401.85.502l1.65.3c.75.151 1.1 0 1.7-.752z" fill="#020201"/><path d="M33.15 17.671c-.6.753-.95.903-1.7.753l-1.65-.301c-.3-.05-.6-.15-.85-.502.75-.15 1.35.3 2.05.2.7-.05 1.45.1 2.15-.15z" fill="#A2B5B6"/><path d="M30.55 16.617c.2-.15.35-.25.6-.452.35.302.7.653 1.2.251.15.301.05.402-.2.452-.55.1-1.1.15-1.65 0 .05-.05.05-.15.05-.25z" fill="#A6BABA"/><path d="M30.55 16.617v.251c-.6 0-1.2-.1-1.45-.903.6.15.9.752 1.45.652z" fill="#656768"/><path d="M30.95 30.117c-1-.1-2-.552-2.9-1.305-.15-.15-.2-.351-.2-.552 0-.25.25-.451.5-.401.3.05.5.25.7.401.45.301.9.552 1.4.653 1.1.3 2.05-.05 2.95-.603.2-.1.4-.3.6-.401.15-.1.3-.05.45.1.15.15.1.301.1.452-.05.25-.25.401-.45.552-.85.753-1.85 1.104-3.15 1.104z" fill="#0B0B0B"/><path d="M35.25 22.489c.65 0 1.15.502 1.1 1.154-.05.653-.6 1.205-1.1 1.205-.7-.05-1.1-.502-1.05-1.305 0-.703.4-1.054 1.05-1.054z" fill="#0D0C0D"/><path d="M26.15 23.894c0-.652.4-1.004 1.05-1.004.65.05 1.15.502 1.15 1.104 0 .502-.6 1.004-1.15 1.004-.55.1-1.05-.452-1.05-1.104z" fill="#0B0B0B"/></g></svg>