<svg width="120" height="120" viewBox="0 0 120 120" xmlns="http://www.w3.org/2000/svg"><g transform="translate(6 31)" fill="none" fill-rule="evenodd"><path d="M44.516 24.385a.927.927 0 0 1-.4-.09L1.453 3.832a.93.93 0 0 1-.527-.84v-1.86a.93.93 0 0 1 .928-.93H3.71c.513 0 .927.417.927.93 0 .515-.414.93-.927.93h-.928v.345l42.134 20.208a.932.932 0 0 1-.4 1.769z" fill="#736F7B"/><path d="M63.064 21.595H44.516a3.715 3.715 0 0 0-3.71 3.72v1.86h25.968v-1.86a3.715 3.715 0 0 0-3.71-3.72z" fill="#EDEDEE"/><path d="M1.855 25.315h100.527c.87 0 1.622.605 1.811 1.456l3.343 15.084c.03.133.044.268.044.404v10.957c0 1.028-.83 1.86-1.855 1.86H29.677l-27.938-1.75A1.858 1.858 0 0 1 0 51.468V27.175c0-1.027.83-1.86 1.855-1.86z" fill="#DCDBDE"/><path d="M0 43.916v7.553c0 .982.762 1.795 1.74 1.856l27.937 1.751h76.048a1.858 1.858 0 0 0 1.855-1.86v-9.3H0z" fill="#96E178"/><path d="M4.637 42.056h102.739l.16-.2-2.842-12.82H4.637a.929.929 0 0 0-.928.93v11.16c0 .513.416.93.928.93z" fill="#625D6B"/><path d="M1.74 53.325l27.937 1.752h76.048a1.858 1.858 0 0 0 1.855-1.86v-3.72H0v1.972c0 .982.762 1.795 1.74 1.856z" fill="#8CCD73"/><ellipse fill="#504B5A" cx="27.822" cy="53.216" rx="5.565" ry="5.58"/><ellipse fill="#DCDBDE" cx="27.822" cy="53.216" rx="2.782" ry="2.79"/><ellipse fill="#504B5A" cx="81.612" cy="53.216" rx="5.565" ry="5.58"/><ellipse fill="#DCDBDE" cx="81.612" cy="53.216" rx="2.782" ry="2.79"/><path d="M90.886 30.895h9.275c1.024 0 1.854.833 1.854 1.86v20.461c0 1.028-.83 1.86-1.854 1.86h-9.275a1.858 1.858 0 0 1-1.854-1.86v-20.46c0-1.028.83-1.86 1.854-1.86zm-48.226 0h9.275c1.024 0 1.855.833 1.855 1.86v20.461c0 1.028-.83 1.86-1.855 1.86h-9.274a1.858 1.858 0 0 1-1.855-1.86v-20.46c0-1.028.83-1.86 1.855-1.86z" fill="#504B5A"/><path d="M45.443 51.356h-1.855a.929.929 0 0 1-.927-.93v-14.88c0-.514.415-.93.927-.93h1.855a.93.93 0 0 1 .928.93v14.88a.93.93 0 0 1-.928.93zm5.565 0h-1.855a.929.929 0 0 1-.928-.93v-14.88a.93.93 0 0 1 .928-.93h1.855c.512 0 .927.416.927.93v14.88a.93.93 0 0 1-.927.93zm42.661 0h-1.855a.929.929 0 0 1-.928-.93v-14.88c0-.514.415-.93.928-.93h1.855c.512 0 .927.416.927.93v14.88c0 .514-.415.93-.927.93zm5.564 0h-1.855a.929.929 0 0 1-.927-.93v-14.88c0-.514.415-.93.927-.93h1.855a.93.93 0 0 1 .928.93v14.88a.93.93 0 0 1-.928.93z" fill="#625D6B"/><path d="M56.572 40.196h12.984a.929.929 0 0 0 .927-.93v-7.44a.929.929 0 0 0-.927-.93H56.572a.929.929 0 0 0-.927.93v7.44c0 .513.415.93.927.93zm-31.532 0h12.984a.929.929 0 0 0 .927-.93v-7.44a.929.929 0 0 0-.927-.93H25.04a.929.929 0 0 0-.927.93v7.44c0 .513.415.93.927.93zm-16.693 0H21.33a.929.929 0 0 0 .928-.93v-7.44a.929.929 0 0 0-.928-.93H8.347a.929.929 0 0 0-.928.93v7.44c0 .513.416.93.928.93zm64.919 0h12.983a.929.929 0 0 0 .928-.93v-7.44a.929.929 0 0 0-.928-.93H73.266a.929.929 0 0 0-.928.93v7.44c0 .513.415.93.928.93zm31.841-9.301h-.31a.929.929 0 0 0-.927.93v7.44c0 .514.415.93.928.93h2.37l-2.061-9.3z" fill="#736F7B"/></g></svg>