<svg width="120" height="120" viewBox="0 0 120 120" xmlns="http://www.w3.org/2000/svg" xmlns:xlink="http://www.w3.org/1999/xlink"><defs><path id="a" d="M0 0h120v120H0z"/><path id="c" d="M0 .917h110.212V111H0z"/></defs><g fill="none" fill-rule="evenodd"><mask id="b" fill="#fff"><use xlink:href="#a"/></mask><path d="M81.797 118.125c-10.898 2.5-32.695 2.5-43.594 0C18.648 113.64 6.32 101.361 1.875 81.797c-2.512-11.056-2.488-32.85 0-43.594C6.402 18.657 18.66 6.415 38.203 1.875c10.693-2.484 32.487-2.516 43.594 0 19.567 4.433 31.675 16.812 36.328 36.328 2.452 10.285 2.548 32.058 0 43.594-4.327 19.591-16.773 31.843-36.328 36.328" fill="#EF5350" mask="url(#b)"/><g transform="translate(0 9)"><mask id="d" fill="#fff"><use xlink:href="#c"/></mask><path d="M91.64 99.281c-10.898 2.5-32.695 2.5-43.594 0-19.555-4.485-31.883-16.764-36.328-36.328-2.512-11.056-2.488-32.85 0-43.594 1.651-7.13 4.343-13.275 8.03-18.442C10.753 7.337 4.75 16.791 1.874 29.203c-2.487 10.743-2.51 32.538 0 43.594 4.445 19.564 16.773 31.842 36.328 36.328 10.9 2.5 32.696 2.5 43.594 0 12.44-2.854 21.99-8.863 28.416-17.892-5.207 3.707-11.407 6.404-18.572 8.048" fill="#D84A4A" mask="url(#d)"/></g><path d="M85.93 49.031l-4.505 4.492-4.495-4.492a4.586 4.586 0 0 0-6.475 0 4.563 4.563 0 0 0-.007 6.475l4.504 4.5-4.496 4.49a4.555 4.555 0 0 0-.008 6.467 4.58 4.58 0 0 0 6.482 0l4.495-4.485 4.505 4.485a4.58 4.58 0 0 0 6.48 0 4.572 4.572 0 0 0 0-6.468l-4.495-4.49 4.494-4.499a4.58 4.58 0 0 0 0-6.475 4.594 4.594 0 0 0-6.48 0m-26.995-16.79a3.739 3.739 0 0 0-3.967.47L37.414 44.58H30.62c-4.156 0-6.726 3.53-7.532 7.71-.807 4.181-.764 11.873 0 15.417.896 4.156 3.376 7.712 7.532 7.712h6.215l18.13 11.865a3.716 3.716 0 0 0 4.155.374c1.19-.666 1.844-1.996 1.962-3.38 1.038-12.14 1.074-36.42 0-48.559-.13-1.456-.848-2.84-2.15-3.479" fill="#FFF"/></g></svg>