<svg width="120" height="120" viewBox="0 0 120 120" xmlns="http://www.w3.org/2000/svg"><g fill="none"><path d="M105.327 58.706c.44-2.774 5.028-4.345 10.246-3.51.155.024.309.052.462.08.227 2.419-.373 5.916-2.2 9.94-5.145-.866-8.944-3.762-8.508-6.51" fill="#FFE269"/><path d="M113.835 66.063c.327 0 .63-.19.768-.496 1.734-3.819 2.541-7.502 2.272-10.37a.846.846 0 0 0-.685-.753 18.412 18.412 0 0 0-3.379-.319c-4.553 0-7.895 1.787-8.318 4.448-.514 3.239 3.528 6.524 9.202 7.478a.859.859 0 0 0 .14.012m1.398-10.062c.063 2.31-.613 5.252-1.9 8.258-4.68-.962-7.474-3.517-7.172-5.42.278-1.75 3.075-3.02 6.65-3.02.792 0 1.606.062 2.422.182" fill="#000"/><path d="M49.922 52.764h-.001c5.639-2.894 12.453-8.705 20.394-9.139 10.355-.565 14.773 4.012 14.773 4.012.591 7.063-5.319 12.714-24.116 13.844-4.919.296-11.38.088-18.24-.38 1.122-4.108 7.19-8.337 7.19-8.337" fill="#DBAF33"/><path d="M85.088 47.637c.591 7.063-5.318 12.714-24.116 13.844-4.92.296-11.38.088-18.24-.38.324-1.185 1.06-2.38 1.943-3.48.358-.014.727-.02 1.109-.015 11.347.137 13.87-4.206 13.87-4.206s5.764.933 11.913-2.137c3.646-1.82 5.467-4.872 6.345-7.055 4.961 1.14 7.176 3.43 7.176 3.43" fill="#BA9027"/><path d="M55.849 62.466c1.904 0 3.644-.047 5.174-.139 11.412-.686 18.999-3.122 22.55-7.24 1.806-2.094 2.599-4.625 2.356-7.52a.846.846 0 0 0-.235-.52c-.17-.176-4.274-4.317-13.633-4.317-.587 0-1.19.016-1.792.05-6.046.329-11.36 3.605-16.05 6.494-1.654 1.02-3.214 1.981-4.683 2.735a.832.832 0 0 0-.133.084c-.567.4-6.33 4.555-7.485 8.785a.85.85 0 0 0 .126.714.843.843 0 0 0 .632.355c5.052.344 9.485.519 13.173.519m28.42-14.43c.124 2.313-.523 4.26-1.972 5.941-3.243 3.76-10.434 6-21.375 6.658-1.497.09-3.203.136-5.072.136h-.001c-3.373 0-7.382-.148-11.93-.44 1.547-3.291 5.984-6.515 6.446-6.844 1.508-.778 3.077-1.745 4.737-2.768 4.518-2.784 9.64-5.94 15.259-6.247a31.25 31.25 0 0 1 1.7-.048c7.45 0 11.297 2.836 12.208 3.612" fill="#000"/><path d="M24.728 48.97s13.957 5.844 20.373 5.391c1.496-.105 3.104-.718 4.82-1.598 0 0-6.067 4.23-7.188 8.338-9.607-.654-19.993-1.818-28.018-2.825l10.013-9.307z" fill="#727272"/><path d="M14.715 58.276l7.194-6.687c1.763 1.687 4.423 3.531 8.334 4.806 4.81 1.57 9.77 2.348 13.37 2.734-.39.648-.7 1.312-.88 1.972-9.607-.654-19.992-1.818-28.018-2.825" fill="#545454"/><path d="M42.733 61.949a.845.845 0 0 0 .814-.624c1.028-3.768 6.798-7.825 6.856-7.866a.847.847 0 0 0-.866-1.45c-1.836.941-3.264 1.42-4.495 1.507a9.947 9.947 0 0 1-.687.022c-6.446 0-19.174-5.298-19.302-5.351a.841.841 0 0 0-.898.16l-10.013 9.307a.85.85 0 0 0 .469 1.463c7.302.916 18.098 2.15 28.065 2.83a.57.57 0 0 0 .057.002m3.058-6.812c-1.453 1.433-2.946 3.227-3.653 5.074-8.951-.63-18.5-1.691-25.516-2.552l8.285-7.7c2.494 1.013 13.344 5.275 19.448 5.275.28 0 .551-.01.806-.027.206-.015.416-.038.63-.07" fill="#000"/><path d="M60.972 61.481c4.745-.285 8.665-.859 11.87-1.67.312 4.098.094 12.728-6.354 17.605 0 0 10.704 3.74 23.701 4.52-3.449.84-7.287 1.433-11.545 1.695-20.148 1.244-50.652-11.414-60.782-16.838C7.732 61.368.866 56.396.866 56.396s41.309 6.216 60.106 5.085" fill="#E6E7E8"/><path d="M60.972 61.481c4.745-.285 8.665-.859 11.87-1.67.08 1.048.124 2.394.04 3.896-4.514.796-14.114 1.733-30.993.147-19.589-1.84-33.11-4.443-38.199-5.52C1.877 57.127.866 56.395.866 56.395s41.309 6.216 60.106 5.085" fill="#FFF"/><path d="M75.779 84.564c1 0 1.981-.029 2.917-.087 4.124-.254 8.059-.832 11.693-1.717a.847.847 0 0 0-.15-1.67c-9.99-.6-18.703-2.995-22.033-4.013 5.487-5.11 5.811-12.94 5.478-17.33a.842.842 0 0 0-1.048-.758c-3.239.82-7.18 1.373-11.715 1.646-1.498.09-3.208.136-5.08.136-19.968 0-54.504-5.161-54.85-5.214a.843.843 0 0 0-.907.519.85.85 0 0 0 .288 1.007c.07.05 7.03 5.068 17.093 10.457 10.373 5.555 38.275 17.024 58.314 17.024m8.42-2.346c-1.818.26-3.69.45-5.607.567-.9.056-1.847.084-2.813.084-19.528 0-47.677-11.554-57.52-16.824a176.984 176.984 0 0 1-13.91-8.293c9.437 1.323 35.233 4.714 51.492 4.714 1.906 0 3.65-.047 5.181-.14 4.191-.25 7.898-.74 11.038-1.456.192 4.485-.506 11.653-6.08 15.869a.85.85 0 0 0 .23 1.477c.091.032 7.809 2.698 17.988 4.002" fill="#000"/><path d="M72.842 59.81c9.494-2.402 12.688-6.892 12.246-12.173 0 0 26.339 3.73 28.871 4.153 1.115.186 1.885 1.457 2.076 3.486a18.596 18.596 0 0 0-.462-.08c-5.218-.835-9.805.736-10.246 3.51-.436 2.748 3.363 5.644 8.508 6.509-.122.269-.249.54-.382.814-2.996 6.15-10.39 12.771-23.264 15.907-12.998-.781-23.702-4.521-23.702-4.521 6.45-4.876 6.666-13.506 6.355-17.604" fill="#727272"/><path d="M77.83 61.101a43.61 43.61 0 0 1-4.903.996c0-.855-.035-1.63-.085-2.286 9.494-2.403 12.688-6.893 12.246-12.174 0 0 26.339 3.73 28.871 4.153 1 .167 1.721 1.208 1.997 2.884L88.873 52.11s-2.289 6.69-11.043 8.991" fill="#8C8C8C"/><path d="M113.835 65.215c-.122.27-.249.541-.382.815-2.996 6.15-10.39 12.771-23.264 15.906-8.467-.508-15.958-2.272-20.153-3.44 3.656-1.53 10.35-5.2 13.498-12.433 0 0 9.405-2.516 13.12-4.114 0 0 3.376 3.271 7.316 4.114 0 0-2.477-3.175-1.801-5.969h3.286c.753 2.276 4.1 4.401 8.38 5.121" fill="#595959"/><path d="M90.19 82.445a.48.48 0 0 0 .119-.015c16.096-3.92 21.866-12.618 23.599-16.177.136-.278.264-.554.388-.827a.512.512 0 0 0-.377-.713c-3.991-.67-7.274-2.636-7.983-4.78a.507.507 0 0 0-.48-.348h-3.287a.507.507 0 0 0-.493.388c-.467 1.937.414 3.984 1.127 5.23-3.19-1.124-5.769-3.593-5.798-3.62a.506.506 0 0 0-.551-.102c-3.639 1.565-12.957 4.065-13.05 4.09a.507.507 0 0 0-.334.288c-3.07 7.052-9.606 10.65-13.23 12.167a.508.508 0 0 0 .06.96c4.681 1.303 11.997 2.962 20.258 3.458h.03m22.91-16.849l-.101.211c-1.668 3.424-7.232 11.791-22.854 15.618-7.635-.466-14.511-1.978-18.597-3.047 3.828-1.818 9.457-5.445 12.352-11.886 1.465-.396 9.08-2.479 12.65-3.947.865.777 3.85 3.275 7.315 4.016a.507.507 0 0 0 .505-.81c-.022-.03-2.088-2.722-1.779-5.148h2.518c.977 2.253 4.086 4.194 7.992 4.993" fill="#000"/><path d="M90.19 82.784a.841.841 0 0 0 .198-.024c16.235-3.954 22.069-12.756 23.823-16.358.137-.28.267-.558.392-.835a.85.85 0 0 0-.628-1.188c-5.065-.851-8.13-3.552-7.814-5.54.277-1.75 3.074-3.02 6.65-3.02a16.713 16.713 0 0 1 3.07.29.843.843 0 0 0 .994-.912c-.229-2.44-1.24-3.986-2.777-4.243-2.514-.421-27.816-4.004-28.892-4.157a.848.848 0 0 0-.96.91c.454 5.421-3.452 9.217-11.61 11.281a.848.848 0 0 0-.636.887c.33 4.347-.013 12.32-6.02 16.863a.85.85 0 0 0 .23 1.478c.108.038 10.964 3.787 23.929 4.566a.654.654 0 0 0 .05.002m22.417-16.949c-1.748 3.482-7.311 11.514-22.493 15.247-9.939-.612-18.59-2.991-21.907-4.005 5.203-4.845 5.764-12.138 5.524-16.623 8.12-2.209 12.232-6.185 12.243-11.836 4.844.687 25.635 3.638 27.847 4.008.522.088.946.689 1.19 1.635-.74-.09-1.477-.137-2.199-.137-4.553 0-7.895 1.788-8.317 4.449-.481 3.027 3.02 6.095 8.112 7.262" fill="#000"/><path d="M4.903 59.131a178.462 178.462 0 0 0 11.764 7.016L8.632 67.64s-3.77-4.294-4.39-5.593c-.619-1.3.66-2.916.66-2.916z" fill="#DD3E3E"/><path d="M8.632 68.488a.86.86 0 0 0 .154-.014l8.036-1.493a.85.85 0 0 0 .25-1.579A178.428 178.428 0 0 1 5.36 58.42a.842.842 0 0 0-1.053.109c-.019.018-1.711 2.028-.828 3.883.651 1.366 4.124 5.34 4.518 5.79a.842.842 0 0 0 .633.286m5.563-2.744l-5.245.975c-1.443-1.664-3.561-4.23-3.946-5.039-.19-.397-.037-.934.167-1.367a180.561 180.561 0 0 0 9.024 5.43" fill="#000"/><path d="M77.83 44.188s3.853-4.292 3.065-8.926c-.788-4.633-3.94-10.284-3.94-10.284s13.635 8.654 17.511 23.99c-5.193-.738-9.378-1.33-9.378-1.33s-2.239-2.316-7.258-3.45" fill="#DBAF33"/><path d="M76.956 24.978s13.634 8.654 17.51 23.991l-3.089-.439c-2.948-7.62-7.94-13.912-11.884-18.07-1.16-3.013-2.537-5.482-2.537-5.482" fill="#E5D057"/><path d="M94.466 49.816a.843.843 0 0 0 .818-1.055c-3.914-15.487-17.31-24.138-17.877-24.499a.842.842 0 0 0-1.032.101.85.85 0 0 0-.156 1.03c.03.055 3.09 5.58 3.844 10.012.665 3.91-2.385 7.66-2.811 8.16a.847.847 0 0 0-.272.624c0 .422.306.772.709.836 4.643 1.06 6.775 3.184 6.796 3.206.13.132.302.22.485.246 0 0 4.185.593 9.377 1.332.04.005.08.007.119.007M79.289 27.781c3.97 3.258 11.095 10.225 14.022 20.168l-7.842-1.114c-.634-.565-2.617-2.121-6.183-3.148 1.157-1.648 3.05-4.993 2.441-8.567-.427-2.512-1.504-5.27-2.438-7.339" fill="#000"/><path d="M73.946 43.64l-3.42-5.016s-7.724-.48-8.99-1.65c-1.267-1.17-1.014-3.915-1.014-3.915l10.975 1.695 6.333 9.435c-1.32-.3-2.168-.479-3.884-.55" fill="#727272"/><path d="M77.83 45.036a.843.843 0 0 0 .698-.37.85.85 0 0 0 .003-.951l-6.334-9.435a.844.844 0 0 0-.572-.364L60.65 32.221a.847.847 0 0 0-.969.76c-.03.323-.248 3.202 1.282 4.616 1.291 1.194 6.849 1.691 9.098 1.846l3.188 4.675c.15.22.396.357.662.369 1.626.066 2.399.227 3.734.529.062.013.124.02.185.02zm-6.827-9.5l4.988 7.428a18.338 18.338 0 0 0-1.586-.151l-3.183-4.668a.843.843 0 0 0-.644-.367c-3.586-.223-7.846-.85-8.471-1.428-.53-.49-.709-1.51-.752-2.305l9.648 1.49z" fill="#000"/><path fill="#E6E7E8" d="M104.163 91.655l3.262-2.24L96.89 76.338l-3.063 2.488z"/><path d="M104.415 92.463a.83.83 0 0 0 .224-.11l3.263-2.239a.848.848 0 0 0 .18-1.233L97.545 75.805a.843.843 0 0 0-1.187-.126l-3.063 2.488a.85.85 0 0 0-.125 1.192l10.335 12.828a.842.842 0 0 0 .909.276zm1.778-3.23l-1.864 1.28-9.315-11.561 1.75-1.422 9.43 11.703z" fill="#000"/><path d="M92.525 80.417l-2.765-3.423a3.994 3.994 0 0 1 .581-5.603 3.957 3.957 0 0 1 5.581.584l2.766 3.422-6.163 5.02z" fill="#DBAF33"/><path d="M92.525 81.265a.843.843 0 0 0 .532-.19l6.163-5.019a.85.85 0 0 0 .124-1.192l-2.766-3.423a4.786 4.786 0 0 0-3.74-1.788 4.811 4.811 0 0 0-3.028 1.08 4.804 4.804 0 0 0-1.755 3.25 4.811 4.811 0 0 0 1.05 3.545l2.765 3.423a.841.841 0 0 0 .655.314zm4.975-5.992l-4.851 3.952-2.234-2.765a3.122 3.122 0 0 1-.68-2.301 3.12 3.12 0 0 1 1.138-2.11 3.08 3.08 0 0 1 1.965-.701 3.11 3.11 0 0 1 2.429 1.16l2.233 2.765z" fill="#000"/><path d="M74.564 93.576S92.63 92.22 99.58 91.373c9.126-1.113 16.19-5.915 16.73-11.612l2.617 2.966c-.788 8.308-7.543 13.392-19.347 13.392H74.564c-1.646 0-2.152-.423-2.152-1.102 0-.677.64-1.308 2.152-1.44" fill="#727272"/><path d="M74.564 96.966H99.58c11.976 0 19.334-5.16 20.187-14.158a.851.851 0 0 0-.208-.643l-2.617-2.967a.843.843 0 0 0-1.473.482c-.495 5.218-7.22 9.781-15.99 10.85-6.852.837-24.797 2.188-24.978 2.201-2.166.19-2.934 1.306-2.934 2.286 0 1.294 1.009 1.95 2.997 1.95zm43.484-13.957c-.928 7.8-7.634 12.263-18.468 12.263H74.565c-1 0-1.266-.173-1.308-.207.001-.005-.001-.021-.001-.048 0-.183.375-.507 1.382-.596.17-.013 18.154-1.367 25.044-2.207 8.761-1.069 15.467-5.318 17.115-10.622l1.25 1.417z" fill="#000"/><path d="M5.614 82.744c1.73-1.055 13.304-8.818 19.026-12.664a180.85 180.85 0 0 0 4.054 1.762c-4.316 2.904-18.649 12.536-21.05 14.027-.202.488-.12 2.371.978 4.32.775 1.378 1.748 2.2 2.599 2.2h12.451c5.656 0 7.99-4.6 7.99-4.601l4.124-13.032 3.54 1.129-3.954 12.496c-1.253 3.962 3.876 4.009 3.876 4.009h19.5c2.665 0 4.404-.864 4.893-1.665.105-.173.384-.631-.13-1.64-1.294-2.538-3.482-5.824-4.584-7.434 1.715.371 3.424.702 5.113.985.97 1.518 2.006 3.236 2.778 4.75.943 1.851.94 3.728-.009 5.285-1.315 2.159-4.328 3.448-8.06 3.448H11.221c-3.5 0-6.029-3.454-6.982-6.879-.845-3.028-.33-5.456 1.375-6.496" fill="#727272"/><path d="M11.221 96.966H58.75c4.028 0 7.31-1.44 8.78-3.853 1.108-1.818 1.122-3.99.04-6.112-.677-1.33-1.625-2.952-2.818-4.823a.844.844 0 0 0-.572-.379 108.636 108.636 0 0 1-5.074-.977.842.842 0 0 0-.879.356.85.85 0 0 0 .006.953c1.15 1.682 3.27 4.872 4.528 7.341.198.388.252.66.16.81-.25.412-1.599 1.26-4.17 1.26H39.247c-.599-.008-2.32-.226-2.965-1.122-.313-.436-.347-1.018-.105-1.782L40.13 76.14a.85.85 0 0 0-.549-1.064l-3.54-1.13a.845.845 0 0 0-1.06.552l-4.1 12.957c-.283.514-2.424 4.085-7.209 4.085H11.221c-.431 0-1.175-.547-1.864-1.77-.83-1.473-.976-2.833-.953-3.381 3.144-2.003 16.587-11.036 20.76-13.844a.847.847 0 0 0-.143-1.486 178.92 178.92 0 0 1-4.036-1.754.842.842 0 0 0-.815.069c-5.13 3.447-17.249 11.58-18.994 12.644-2.048 1.248-2.703 4.033-1.75 7.449 1.04 3.733 3.853 7.498 7.795 7.498m52.31-13.557c1.069 1.69 1.921 3.158 2.536 4.365.804 1.577.812 3.159.022 4.455-1.16 1.905-3.904 3.043-7.34 3.043H11.221c-3.057 0-5.301-3.144-6.17-6.26-.736-2.64-.361-4.713 1.001-5.543 1.676-1.022 12.24-8.103 18.67-12.424.72.322 1.458.645 2.205.966C21.564 75.617 9.389 83.79 7.2 85.148a.847.847 0 0 0-.336.396c-.313.755-.204 2.886 1.023 5.062.941 1.673 2.156 2.632 3.333 2.632h12.452c6.182 0 8.75-5.077 8.772-5.129a.901.901 0 0 0 .023-.064l3.868-12.224 1.93.616-3.697 11.688c-.51 1.614-.092 2.681.35 3.292 1.256 1.742 4.012 1.817 4.322 1.82h19.51c2.644 0 4.846-.812 5.613-2.07.424-.697.392-1.504-.098-2.467-.942-1.847-2.334-4.064-3.477-5.798.929.184 1.846.353 2.744.507" fill="#000"/><path d="M50.983 86.626a2.453 2.453 0 0 0 2.448 2.458c1.352 0 2.447-1.1 2.447-2.458a2.453 2.453 0 0 0-2.447-2.458 2.453 2.453 0 0 0-2.448 2.458" fill="#E5D057"/><path d="M53.43 89.932a3.303 3.303 0 0 0 3.293-3.305 3.303 3.303 0 0 0-3.292-3.306 3.303 3.303 0 0 0-3.293 3.306 3.303 3.303 0 0 0 3.293 3.305m0-4.916c.884 0 1.604.722 1.604 1.61 0 .888-.72 1.61-1.604 1.61a1.609 1.609 0 0 1-1.604-1.61c0-.888.72-1.61 1.604-1.61" fill="#000"/><path d="M15.064 86.626a2.453 2.453 0 0 0 2.448 2.458c1.351 0 2.448-1.1 2.448-2.458a2.453 2.453 0 0 0-2.448-2.458 2.453 2.453 0 0 0-2.448 2.458" fill="#E5D057"/><path d="M17.512 89.932a3.303 3.303 0 0 0 3.292-3.305 3.303 3.303 0 0 0-3.292-3.306 3.303 3.303 0 0 0-3.292 3.306 3.302 3.302 0 0 0 3.292 3.305m0-4.916c.884 0 1.604.722 1.604 1.61 0 .888-.72 1.61-1.604 1.61a1.609 1.609 0 0 1-1.604-1.61c0-.888.72-1.61 1.604-1.61" fill="#000"/></g></svg>