<svg width="120" height="120" viewBox="0 0 120 120" xmlns="http://www.w3.org/2000/svg" xmlns:xlink="http://www.w3.org/1999/xlink"><defs><path id="a" d="M.2.3h13.173v5.567H.2z"/></defs><g fill="none" fill-rule="evenodd"><path d="M25.734 61.314c11.723 15.17 24.38.59 18.467-13.197-4.29-10.013 15.381 2.057 15.381 2.057s-8.275 30.79-17.637 32.04c-9.358 1.25-15.563-12.943-16.211-20.9" fill="#2C2C2D"/><path d="M84.858 19.147c-.024-.235-.05-.475-.074-.718C81.672 8.24 72.188.824 60.982.824c-9.761 0-18.211 5.618-22.287 13.8a46.898 46.898 0 0 0-1.102 3.607c-19.167 17.443 1.11 32.657 23.47 32.657 22.279 0 39.951-15.327 23.795-31.74" fill="#2C2C2D"/><path d="M93.423 41.558c-1.22-.517-2.679-.044-3.86 1.093-.534-.805-1.167-1.255-1.756-1.14-1.097.213-1.61 2.311-1.15 4.685.175.908.467 1.724.823 2.374.05.297.118.578.214.842l-5.573 6.541s-2.554-1.259-8.642-3.096c-.774-.279-3.107-1.112-3.107-1.112-1.344-.936-4.3-1.368-6.087-1.543.297-.665.48-1.394.48-1.924h-7.689c0 .53.188 1.27.49 1.94-1.816.17-4.742.6-6.042 1.535-.688.37-6.563 3.524-8.267 5.7-3.626 4.631-5.132 18.977-5.13 18.957-.478.694-.818 1.595-.92 2.599-.254 2.384.89 4.461 2.55 4.64 1.087.112 2.123-.613 2.784-1.793.615.508 1.22.709 1.658.478.816-.43.72-2.213-.214-3.976a6.871 6.871 0 0 0-1.224-1.673 3.971 3.971 0 0 0-.11-.214s1.614-10.313 3.34-12.75c.857-1.22 1.946-2.18 2.149-2.723-1.347 10.21.157 24.412.157 24.412l1.721 14.917.467 11.697h.007c-1.829 1.13-3.15 3.425-1.589 5.3 1.178 1.32 2.92.272 4.242-.282 1.46-.696 3.126-1.187 4.446-2.09.853-.598 1.857-1.237 2.435-2.125.177-.275.262-.54.199-.803h-.009v-11.706l.526-7.616h.294l.51 7.616v11.706h.005c-.063.264.02.526.199.803.578.888 1.582 1.531 2.435 2.13 1.32.903 2.989 1.387 4.448 2.08 1.32.555 3.06 1.609 4.24.287 1.564-1.875.235-4.17-1.586-5.3h.006l.471-11.697L73.5 85.412v-.002s1.752-15.64.07-25.887c.09.037 8.952 3.585 11.384 2.703 3.031-1.095 6.502-10.961 6.502-10.961 1.3-.465 2.56-1.709 3.288-3.428 1.137-2.68.546-5.492-1.32-6.28" fill="#E7C59F"/><path d="M57.903 50.838l6.831-2.254.018-.015c-1.275.22-2.582.331-3.917.331-1.27 0-2.524-.15-3.742-.346.068.658.373 1.625.81 2.284" fill="#E2A86E"/><path d="M60.25 111.998h.018v-.028c-1.793 1.915-10.704 5.524-11.677 2.116-.5 1.032-.524 2.2.343 3.236 1.18 1.32 2.915.279 4.237-.277 1.462-.696 3.128-1.183 4.448-2.086.856-.598 1.86-1.257 2.433-2.143.181-.275.262-.554.199-.818m12.649 5.323c.865-1.038.856-2.208.352-3.235-2.96 3.351-9.864-.192-11.655-2.114v.026h-.018c-.065.264.022.543.199.818.574.886 1.575 1.538 2.43 2.14 1.322.904 2.994 1.39 4.451 2.086 1.32.556 3.06 1.6 4.242.28" fill="#43B7B2"/><path d="M50.324 111.909c2.339.94 9.798 1.59 10.093 0 .55-2.974.384-13.015.384-13.015h.294s-.146 10.036.384 13.015c.288 1.616 8.04 1.47 10.094 0 12.519-4.382 1.488-20.228 2.476-32.272-2.972 3.157-6.79 5.97-13.067 6.906-6.484-1.08-11.099-4.54-13.202-6.906.726 12.277-10.244 27.136 2.544 32.272" fill="#7EC8C5"/><path d="M60.975 87.21l-.078-.006c-2.902-.369-6.07-1.673-9.417-3.88-2.47-1.629-4.087-3.139-4.154-3.204a.66.66 0 0 1-.029-.936.662.662 0 0 1 .936-.03c.075.067 6.33 5.87 12.753 6.721 5.581-.65 12.554-6.676 12.626-6.737a.66.66 0 0 1 .936.063c.24.277.21.696-.065.938-.297.26-7.423 6.422-13.431 7.065l-.077.007z" fill="#B0DBDC"/><path d="M47.384 68.333c12.57 4.536 27.063 0 27.063 0 .227-3.783-.526-7.615-.526-7.615s-5.867-4.558-12.942.565c-7.543-4.732-13.109.834-13.109.834s-.667 2.834-.486 6.216" fill="#7EC8C5"/><path d="M42.858 57.41c1.23 2.932 6.34 5.169 6.34 5.169l-.235 1.645s-7.36-.083-8.221-1.964c-.264-1.813 2.116-4.85 2.116-4.85m30.739 3.833c1.768-2.127 1.12-8.047 1.12-8.047s2.578.509 4.557 1.512c.072 5.782-5.677 8.51-5.677 8.51s-.035-1.482 0-1.975" fill="#7EC8C5"/><path d="M83.93 29.183c.171-1.137.26-2.304.26-3.487 0-12.807-10.38-23.188-23.185-23.188-12.808 0-23.19 10.38-23.19 23.188 0 1.128.082 2.24.24 3.327-1.34.734-2.244 2.115-2.244 3.703 0 2.352 1.981 4.259 4.43 4.259.167 0 .329-.013.488-.028 3.964 7.114 11.56 11.925 20.276 11.925 8.71 0 16.3-4.802 20.26-11.904.07.005.14.007.207.007 2.446 0 4.43-1.907 4.43-4.259 0-1.48-.786-2.782-1.973-3.543" fill="#E7C59F"/><path d="M56.311 24.65s-.503 1.803-2.082 1.446c-.772-.174-.908-1.201-3.386-.74-.779.18-2.417 1.156-2.732 1.808-.316.652-.088-2.392 2.457-3.522 1.835-.675 2.457-.642 3.977-.642s1.987.907 1.766 1.65m9.741 0s.503 1.803 2.082 1.446c.772-.174.908-1.201 3.386-.74.779.18 2.417 1.156 2.732 1.808.316.652.087-2.392-2.457-3.522-1.835-.675-2.457-.642-3.977-.642s-1.987.907-1.766 1.65M54 32c0 1.657-.895 3-2 3s-2-1.343-2-3 .895-3 2-3 2 1.343 2 3m18 0c0 1.657-.895 3-2 3s-2-1.343-2-3 .895-3 2-3 2 1.343 2 3l15.83 1.128" fill="#343434"/><path d="M61.02 35.07c.839-.115 2.96 1.756 2.96 1.756s.103-.414-.34-1.238C63.163 34.703 60.99 34 60.99 34s-1.687.448-2.487 1.604c-.296.29-.503 1.299-.503 1.299s1.895-1.681 3.02-1.834z" fill="#683918"/><g transform="translate(54 38)"><mask id="b" fill="#fff"><use xlink:href="#a"/></mask><path d="M.2.696S7.097 3.904 13.372.299c0 0-1.39 5.47-5.95 5.561-4.115.122-4.984-1.492-5.477-1.956C1.453 3.441.525 2.132.2.696" fill="#683918" mask="url(#b)"/></g><path d="M36.996 22.903c.016-1.206.105-2.677.275-4.239C40.367 8.512 49.811 1.127 60.98 1.127c9.716 0 18.13 5.598 22.19 13.745 1.123 3.203 1.812 6.354 1.869 7.774.198 4.935.486 6.094-1.108 6.537-2.322-6.832-20.18-7.314-23.036-13.087-4.654 6.393-20.36 5.867-22.837 12.923-.932-.473-1.091-3.912-1.06-6.116" fill="#2C2C2D"/><path d="M65.194 51.74a.784.784 0 1 0-.295-.037.79.79 0 0 0-.737.781.79.79 0 0 0 .537.746h-.016a.786.786 0 0 0-.787.784c0 .248.118.469.297.613a.153.153 0 0 1-.029-.005.787.787 0 0 0-.674 1.207.79.79 0 0 0-.334-.079.785.785 0 0 0-.755.993.808.808 0 0 0-.31-.059.784.784 0 0 0-.778.855.79.79 0 0 0-1.362 0 .784.784 0 0 0-.781-.855.79.79 0 0 0-.305.059.806.806 0 0 0 .03-.207.788.788 0 0 0-.788-.786.75.75 0 0 0-.331.079.772.772 0 0 0 .12-.421.783.783 0 0 0-.783-.786s-.029.005-.042.005a.783.783 0 0 0-.49-1.396h-.018a.785.785 0 0 0-.203-1.528.784.784 0 1 0-.288.037.793.793 0 0 0-.543.744c0 .436.353.786.787.786h.015a.786.786 0 0 0 .249 1.53l.042-.003a.777.777 0 0 0-.29.61.783.783 0 0 0 1.114.71.785.785 0 0 0 .969 1.143.896.896 0 0 0-.03.207c0 .435.353.781.785.781a.787.787 0 0 0 .683-.39c-.002.022-.007.05-.007.074a.784.784 0 0 0 1.571 0c0-.024 0-.052-.004-.074.135.233.388.39.678.39a.781.781 0 0 0 .755-.988.784.784 0 0 0 .97-1.143.79.79 0 0 0 1.121-.71.782.782 0 0 0-.295-.61l.026.002a.788.788 0 0 0 .799-.785.79.79 0 0 0-.535-.744h.015a.784.784 0 0 0 .247-1.53M40.133 36.4c-.718-.062-3.596 3.438-2.959 4.708.59 1.182 4.211 1.608 4.914.486.892-1.418-1.331-5.142-1.955-5.195m41.674.001c.72-.062 3.591 3.438 2.958 4.708-.587 1.182-4.21 1.608-4.913.486-.892-1.418 1.33-5.142 1.955-5.195" fill="#F6B90C"/><path d="M61.022 4.982c-12.68 0-21.017 6.971-23.66 13.395 3.19-3.46 12.901-9.95 23.66-9.95 9.91 0 20.647 7.26 23.836 10.72C82.728 12.8 72.856 4.982 61.022 4.982" fill="#43B7B2"/><path d="M65.128 7.85c0 2.825-1.802 5.115-4.023 5.115-2.226 0-4.024-2.29-4.024-5.116 0-2.825 1.798-5.114 4.024-5.114 2.22 0 4.023 2.289 4.023 5.114" fill="#F6B90C"/><path d="M61.105 12.567c-2.003 0-3.626-2.114-3.626-4.719 0-2.598 1.623-4.715 3.626-4.715 1.996 0 3.624 2.117 3.624 4.715 0 2.605-1.628 4.72-3.624 4.72" fill="#268D85"/><path d="M58.184 9.65c-1.18-5.482 3.061-6.183 3.061-6.183s-3.766 1.198-3.06 6.184m3.832 2.259c1.396-.895 2.04-2.713 2.04-2.713s-.238 1.922-2.04 2.712" fill="#4EB9B1"/></g></svg>