<svg xmlns="http://www.w3.org/2000/svg" width="81.767" height="111.272" viewBox="1.741 0.5 81.767 111.272"><defs><style/></defs><g id="ID0.6455738404765725" transform="translate(-187 -101)" stroke="#000"><path id="ID0.1406416855752468" fill="#0CC" stroke-width="2" stroke-linecap="round" d="M49.1 89.45l91.05 1.9-7.15 162.5-68.25-4.9L49.1 89.45z" transform="matrix(.71773 0 0 .60083 153.5 60.25)"/><path id="ID0.1406416855752468" fill="#099" stroke-width="2" stroke-linecap="round" d="M56.5 88.35l55.2-19.3-27.55 161L40.2 248.1 56.55 90.25l-.05-1.9z" transform="matrix(.2955 0 0 .61673 237.5 59.4)"/><g id="ID0.8624390144832432" transform="translate(187 101)" stroke-width="1"><path id="ID0.6190396044403315" fill="#666" d="M282.5 235c1.517 0 2.892.616 3.888 1.612A5.483 5.483 0 0 1 288 240.5a5.483 5.483 0 0 1-1.612 3.888A5.483 5.483 0 0 1 282.5 246a5.483 5.483 0 0 1-3.888-1.612A5.483 5.483 0 0 1 277 240.5c0-1.517.616-2.892 1.612-3.888A5.483 5.483 0 0 1 282.5 235z" transform="translate(-884.3 -700.6) scale(3.26196)"/><path id="ID0.6190396044403315" fill="#DDDFEA" d="M282.5 235c1.517 0 2.892.616 3.888 1.612A5.483 5.483 0 0 1 288 240.5a5.483 5.483 0 0 1-1.612 3.888A5.483 5.483 0 0 1 282.5 246a5.483 5.483 0 0 1-3.888-1.612A5.483 5.483 0 0 1 277 240.5c0-1.517.616-2.892 1.612-3.888A5.483 5.483 0 0 1 282.5 235z" transform="translate(-375.8 -267.95) scale(1.46163)"/></g><path id="ID0.1406416855752468" fill="#0FF" stroke-width="2" stroke-linecap="round" d="M60.3 49.35l89.95-.05-24.7 207.4-96.4-15.65L60.3 49.35z" transform="matrix(.66906 0 0 .06389 169.7 98.35)"/><g id="ID0.8624390144832432" transform="translate(187 101)" stroke-width="1"><path id="ID0.6190396044403315" fill="#666" d="M282.5 235c1.517 0 2.892.616 3.888 1.612A5.483 5.483 0 0 1 288 240.5a5.483 5.483 0 0 1-1.612 3.888A5.483 5.483 0 0 1 282.5 246a5.483 5.483 0 0 1-3.888-1.612A5.483 5.483 0 0 1 277 240.5c0-1.517.616-2.892 1.612-3.888A5.483 5.483 0 0 1 282.5 235z" transform="translate(-885.4 -745) scale(3.26196)"/><path id="ID0.6190396044403315" fill="#DDDFEA" d="M282.5 235c1.517 0 2.892.616 3.888 1.612A5.483 5.483 0 0 1 288 240.5a5.483 5.483 0 0 1-1.612 3.888A5.483 5.483 0 0 1 282.5 246a5.483 5.483 0 0 1-3.888-1.612A5.483 5.483 0 0 1 277 240.5c0-1.517.616-2.892 1.612-3.888A5.483 5.483 0 0 1 282.5 235z" transform="translate(-376.9 -312.35) scale(1.46163)"/></g></g></svg>