<svg width="120" height="120" viewBox="0 0 120 120" xmlns="http://www.w3.org/2000/svg" xmlns:xlink="http://www.w3.org/1999/xlink"><defs><path id="a" d="M0 .109h63.742v119.45H0z"/></defs><g fill="none" fill-rule="evenodd"><g transform="translate(28 .332)"><mask id="b" fill="#fff"><use xlink:href="#a"/></mask><path d="M50.809 113.624c-3.819 3.416-8.36 5.878-12.906 5.932a45.844 45.844 0 0 1-15.676-2.582C12.288 113.478 3.53 106.114.915 95.513c-1.05-4.255-.957-8.7-.858-13.082l.4-17.75 3.64 6.257c.27.463.577.959 1.076 1.145.638.239 1.346-.118 1.857-.57 2.651-2.341 2.18-6.498 2.304-10.045.115-3.252.93-6.476 2.374-9.387 1.06-2.133 2.449-4.097 3.391-6.285 4.026-9.347-.524-21.483 5.58-29.61A33.788 33.788 0 0 0 27.152.11c3.2 7.168 11.452 11.556 13.183 19.22.475 2.105.403 4.302.82 6.42.415 2.118 1.476 4.296 3.43 5.188 1.953.892 4.786-.25 4.933-2.404a10.265 10.265 0 0 1 2.427-5.935c-1.262 1.472.507 10.559.662 12.639.343 4.638.835 9.27 1.667 13.848.775 4.262 1.999 8.105 3.524 12.09 1.7 4.436 2.496 8.721 4.19 13.208 3.555 9.41 1.21 18.745-2.645 27.666-1.664 3.851-4.743 8.184-8.535 11.575" fill="#AF2312" mask="url(#b)"/></g><path d="M46.436 114.641c-4.766-2.71-9.825-7.937-12.214-12.946-2.347-4.921-1.994-10.658-1.59-16.102a20.808 20.808 0 0 0 2.918 6.86c1.144 1.737 3.084 3.46 5.046 2.796 1.29-.437 2.073-1.827 2.212-3.19.896-8.757-5.188-15.746-.249-24.307 2.158-3.738 5.122-7.2 5.836-11.464.689-4.107-.842-8.242-1.02-12.403-.237-5.506 1.673-12.897 5.563-16.895 1.776-1.826 3.32-2.852 4.364-5.384.715-1.734 2.246-6.81.897-8.528a18.562 18.562 0 0 1 3.883 10.053c.2 2.763-.223 5.55.073 8.304.681 6.336 4.916 5.518 8.39 9.313 2.157 2.355 1.72 5.99 1.808 9.192.147 5.42 2.266 10.762 5.867 14.794 1.071 1.198 2.29 2.318 2.952 3.786.257.571.44 1.209.9 1.632.487.449 1.18.564 1.787.824 2.728 1.168 3.183 4.907 2.558 7.823-.626 2.916-1.912 5.89-1.137 8.77.424 1.575 1.429 2.924 2.033 4.44 1.202 3.02.71 6.51-.62 9.476-1.33 2.965-3.428 5.504-5.52 7.984-2.061 2.443-4.178 4.9-6.83 6.675-7.078 4.738-20.925 2.465-27.907-1.503" fill="#F46E0B"/><path d="M65.125 118.146c4.261-.6 8.118-3.994 8.755-9.138.569-4.599-1.322-9.203-4.018-12.96-.989-1.378-2.151-2.879-1.956-4.568.298-2.583 3.392-3.678 5.034-5.686 1.806-2.208 1.685-5.57.307-8.071-2.643-4.795-9.864-5.7-11.563-11.09-.438-1.39.118-2.91.91-4.132.79-1.222 1.821-2.286 2.494-3.578 1.513-2.903.834-6.793-1.57-9.004.74 1.998.312 4.388-1.076 6-1.258 1.462-3.124 2.214-4.685 3.343-5.2 3.76-1.323 12.853 2.72 16.093 4.616 3.697 4.356 7.199.793 11.423-3.837 4.548-7.486 8.712-8.443 14.897-.285 1.844-.072 3.733.292 5.563.494 2.492 1.296 4.984 2.84 6.995 2.469 3.215 5.934 4.367 9.166 3.913" fill="#FEE215"/><path d="M51.234 80.005c.178-2.423-.205-4.627-1.868-6.61.862.538 1.721 1.1 2.523 1.726 2.738 2.135 4.92 5.274 3.957 8.766-.473 1.71-5.961 9.99-4.817 11.454-1.498-1.916-1.718-4.563-1.39-6.978.329-2.416 1.136-4.746 1.467-7.16.055-.406.099-.805.128-1.198" fill="#FEE215"/><path d="M30.621 39.765c.878-3.196.158-6.59-.563-9.824.962.242 1.72.978 2.353 1.747 3.387 4.112 4.268 10.078 2.754 15.122-1.545 5.146-2.837 8.46-2.978 14.026-.01.427-.148.977-.571 1.012a20.577 20.577 0 0 1-3.39-12.789c.252-3.536 1.479-5.956 2.395-9.294" fill="#AF2312"/><path d="M57.652 34.753c1.19 3.227 3.655 7.725 2.794 11.287-.521 2.157-4.993 7.906-3.176 10.313-5.796-7.678 1.209-13.759.382-21.6" fill="#FEE215"/></g></svg>