<svg width="120" height="120" viewBox="0 0 120 120" xmlns="http://www.w3.org/2000/svg" xmlns:xlink="http://www.w3.org/1999/xlink"><defs><path id="a" d="M0 .714h35.114v57.337H0z"/><path id="c" d="M.373.948h78.538V36H.374z"/><path id="e" d="M.373.948h35.715V36H.372z"/></defs><g fill="none" fill-rule="evenodd"><path d="M79.897 21.409s5.291 38.36-.662 57.375c-5.952 19.014-17.36 16.204-22.983 13.888-5.786-2.149 6.118-59.689 23.645-71.263" fill="#693"/><path d="M81.716 42.242c.661 12.07.496 26.787-2.48 36.542-2.977 9.258-7.11 13.392-11.409 14.88l-7.606.332s-1.984-3.97-3.637-21.991c1.487-7.441 3.802-15.708 6.613-23.48 5.787-4.298 13.56-5.786 18.52-6.282" fill="#436E17"/><path d="M47.655 10S35.75 47.037 38.396 66.713c2.48 19.676 14.054 18.683 20.172 17.361C64.685 82.751 63.032 24.22 47.655 10" fill="#693"/><path d="M43.025 26.7c-2.976 12.401-6.118 28.935-4.629 40.013 2.15 17.527 11.574 18.684 18.022 17.693 0-10.582-.165-28.605-2.645-38.526C50.135 31.495 43.025 26.7 43.025 26.7" fill="#436E17"/><g transform="translate(18 29.458)"><mask id="b" fill="#fff"><use xlink:href="#a"/></mask><path d="M.059.714s-1.323 27.447 8.597 44.81C18.742 63.048 29.16 58.087 34.285 54.78 39.412 51.475 19.9 8.651.06.714" fill="#693" mask="url(#b)"/></g><path d="M18.555 44.722c.827 9.26 2.976 21.164 8.102 30.258 6.448 11.243 13.062 13.228 18.353 12.236.496-.33.827-.66.66-1.158-.825-5.457-7.604-22.32-20.667-37.202-2.976-3.307-4.96-4.465-6.448-4.134" fill="#436E17"/><path d="M103.707 36.29s-1.323 27.282-13.063 43.816c-11.739 16.535-21.66 10.582-26.289 6.779-4.795-3.803 19.015-44.477 39.352-50.595" fill="#693"/><path d="M99.077 61.918c-1.819 6.283-4.629 12.896-8.433 18.187-7.77 10.75-14.55 11.906-19.84 10.417-.662-1.818-.828-3.967-.33-6.613 2.81-13.227 17.525-19.18 28.603-21.99" fill="#436E17"/><path d="M24.507 39.431c.662-.496 1.819-.33 2.315.496l2.149 2.976c.496.827.33 1.82-.496 2.315-.661.662-1.818.496-2.314-.33l-2.15-2.977c-.496-.827-.331-1.818.496-2.48m10.582 13.724c.662-.496 1.819-.33 2.315.331l2.149 3.141c.496.662.33 1.82-.496 2.315-.661.496-1.818.331-2.314-.496l-2.15-2.976c-.496-.662-.331-1.819.496-2.315m7.771 14.881c.827-.331 1.82 0 2.15.827l1.653 3.306c.496.827.165 1.82-.66 2.15-.828.496-1.82.166-2.316-.661l-1.654-3.307c-.496-.827 0-1.82.827-2.315m-13.723-4.133c.827-.496 1.819-.166 2.149.66l1.654 3.308c.496.827.165 1.819-.661 2.315-.827.33-1.82 0-2.315-.827l-1.654-3.307c-.33-.826 0-1.818.827-2.15M50.3 21.575a1.467 1.467 0 0 1 1.985 1.157l.992 3.471c.166.994-.33 1.82-1.157 2.15-.992.165-1.82-.33-2.15-1.157l-.826-3.638a1.467 1.467 0 0 1 1.157-1.983m3.968 17.03c.992-.165 1.819.33 2.149 1.157l.993 3.638c.165.827-.331 1.819-1.158 1.984-.992.33-1.819-.165-2.15-1.157l-.992-3.473c-.165-.992.331-1.818 1.158-2.15m3.141 22.322c.828 0 1.654.827 1.654 1.819l-.165 3.638c0 .992-.661 1.653-1.654 1.653-.992 0-1.653-.827-1.653-1.653V62.58c.165-.827.827-1.654 1.819-1.654m.661 14.22c.827 0 1.653.827 1.653 1.653l-.165 3.803c0 .827-.826 1.653-1.653 1.653-.992 0-1.654-.826-1.654-1.818v-3.638c0-.992.827-1.653 1.819-1.653M49.64 49.683c.991-.166 1.818.496 1.818 1.488l.496 3.637c0 .827-.66 1.654-1.488 1.819-.992.166-1.819-.496-1.819-1.487l-.496-3.638c-.165-.992.496-1.82 1.488-1.82M44.68 37.117c.826 0 1.652.661 1.818 1.488l.33 3.803c.165.827-.496 1.653-1.488 1.818-.827 0-1.653-.661-1.819-1.487l-.33-3.638c-.166-.992.496-1.819 1.488-1.984m32.241-3.803c.993 0 1.82.662 1.82 1.488l.496 3.638c.165.992-.496 1.818-1.488 1.984-.992 0-1.82-.662-1.82-1.488l-.495-3.803c0-.827.66-1.653 1.488-1.82m-5.952 10.913c.827.331 1.323 1.323.992 2.15l-1.323 3.472c-.331.827-1.322 1.323-2.15.992-.991-.33-1.322-1.323-.991-2.15l1.323-3.472c.33-.826 1.322-1.323 2.149-.992M67 55.966c.992.331 1.488 1.157 1.157 2.15l-.99 3.472c-.333.826-1.324 1.322-2.15 1.157-.828-.33-1.324-1.323-1.159-2.15l1.158-3.472A1.467 1.467 0 0 1 67 55.966m11.244-6.614c.827.165 1.323 1.157 1.158 1.984l-1.158 3.638c-.165.826-1.157 1.322-1.984 1.157-.992-.33-1.488-1.323-1.157-2.15l.992-3.637c.33-.827 1.322-1.323 2.149-.992M74.11 71.508c.827.496 1.157 1.488.661 2.315l-1.653 3.307c-.496.661-1.488.992-2.315.661-.827-.496-1.157-1.488-.66-2.314l1.652-3.308c.496-.826 1.488-1.157 2.315-.66m9.094-12.567c.827.661.992 1.653.331 2.48l-2.15 2.977c-.496.661-1.488.826-2.314.33-.662-.496-.827-1.653-.33-2.315l2.148-2.976c.496-.827 1.654-.992 2.315-.496M95.44 45.384c.661.661.661 1.82 0 2.314l-2.647 2.646c-.66.662-1.653.662-2.314 0-.662-.66-.662-1.653 0-2.314l2.646-2.646c.661-.662 1.653-.662 2.314 0m-.33 13.393c.827.496 1.157 1.488.827 2.315l-1.654 3.307c-.496.827-1.488 1.157-2.315.827-.826-.496-1.157-1.49-.826-2.315l1.653-3.307c.496-.827 1.488-1.158 2.315-.827m-9.921 13.558c.827.496 1.157 1.488.827 2.314l-1.654 3.307c-.496.827-1.488 1.158-2.315.827-.826-.496-1.157-1.488-.826-2.314l1.653-3.308c.496-.826 1.488-1.157 2.315-.826" fill="#FF6"/><path d="M20.539 80.602s-1.654 13.559 4.464 24.802c3.307 5.952 7.44 9.26 12.07 11.243 0 1.488.166 2.315.166 2.315 15.707.66 29.1.66 44.642 0 0 0 .166-.827.331-2.315 4.464-1.983 8.763-5.291 12.07-11.243 6.118-11.243 4.299-24.802 4.299-24.802-29.927 1.158-48.115 1.158-78.042 0" fill="#E1C35D"/><g transform="translate(20 83.458)"><mask id="d" fill="#fff"><use xlink:href="#c"/></mask><path d="M.373.948c0 4.96.497 13.557 4.63 20.997 3.307 5.953 7.44 9.26 12.07 11.243 0 1.49.165 2.316.165 2.316 15.709.662 29.1.662 44.644 0 0 0 .165-.826.33-2.316 4.465-1.983 8.763-5.29 12.07-11.243 4.133-7.44 4.63-16.038 4.63-20.997-28.274.494-50.265.494-78.538 0" fill="#D1A338" mask="url(#d)"/></g><g transform="translate(20 83.458)"><mask id="f" fill="#fff"><use xlink:href="#e"/></mask><path d="M.373.948c0 4.96.497 13.557 4.63 20.997 3.307 5.953 7.44 9.26 12.07 11.243 0 1.49.165 2.316.165 2.316 6.614.33 12.733.33 18.85.497C16.741 22.938 20.874 1.278 20.874 1.278c-6.613 0-13.392-.165-20.502-.33" fill="#B48133" mask="url(#f)"/></g><path d="M46.829 100.444c2.81 0 5.125-2.315 5.125-5.126 0-2.811-2.314-5.126-5.125-5.126s-5.126 2.315-5.126 5.126c0 2.81 2.315 5.126 5.126 5.126" fill="#000"/><path d="M45.34 96.31c1.323 0 2.315-.992 2.315-2.15 0-1.323-.992-2.314-2.315-2.314-1.157 0-2.149.99-2.149 2.315 0 1.157.992 2.149 2.15 2.149m3.472 1.984c.661 0 1.322-.496 1.322-1.157 0-.662-.66-1.323-1.322-1.323s-1.158.661-1.158 1.323a1.13 1.13 0 0 0 1.158 1.157" fill="#FFF"/><path d="M77.252 93.333c.33.496.33 1.158-.166 1.654-.33.33-.992.33-1.488-.166a5.008 5.008 0 0 0-1.157-.826 6.237 6.237 0 0 0-2.48 0c-.496.165-.992.33-1.488.661 1.653-.33 3.637 0 5.29 2.315.33.496.166 1.157-.33 1.488-.496.331-1.158.165-1.488-.33-2.15-2.977-6.118 0-6.614.33-.165.331-.661.496-1.157.331-.496-.33-.827-.992-.496-1.488.496-1.323 1.323-2.48 2.149-3.307.992-.992 2.315-1.819 3.472-2.149 1.323-.33 2.646-.33 3.969.165.66.331 1.322.826 1.984 1.322m-29.927 11.906H71.96c-6.117 12.07-18.518 12.07-24.636 0" fill="#000"/><path d="M50.135 105.239h3.472c-.33 1.652-.66 3.802-.992 4.298-.496.661-1.653-2.315-2.48-4.299m18.849.001h-3.472c.331 1.652.826 3.802 1.158 4.298.33.661 1.653-2.315 2.314-4.299" fill="#FFF"/></g></svg>