<svg width="480" height="360" viewBox="0 0 480 360" xmlns="http://www.w3.org/2000/svg" xmlns:xlink="http://www.w3.org/1999/xlink"><defs><path id="a" d="M0 427.376h501.945V.43H0z"/></defs><g fill="none" fill-rule="evenodd"><path fill="#FFBB1F" d="M-1 247h482V-25H-1z"/><path fill="#E77F56" d="M149.573.027V-12.41L135.905-26 2.274.027-1 66.18 4.134 79H481V.027h-7.937V-12.41l3.115-11.3L344.52.028l-57.462 56.7 6.383-6.74-60.64-29.897V-24.13h-25.005l-14.378 42.353-54.664 38.639V.027z"/><path fill="#FFBB1F" d="M-1 215h481v-33H-1z"/><path d="M13.968 99.934h2.254V99.9H31.19v.034h2.317V99.9h14.97v.034h2.256V99.9H65.7v.034h2.578V99.9h14.967v.034H85.5V99.9h14.967v.034h2.321V99.9h14.967v.034h2.255V99.9h14.969v14.687H120.01v-9.699h-2.255v9.7h-14.967v-9.7h-2.32v9.7H85.5v-9.7h-2.254v9.7H68.28v-9.7H65.7v9.7H50.734v-9.7h-2.257v9.7h-14.97v-9.7h-2.316v9.7H16.22v-9.7h-2.253v9.7H-1V99.9h14.968v.034zM-1 131.19v-14.687h14.968v14.687H-1zm0 16.603v-14.687h14.968v14.687H-1zm0 16.602V149.71h14.968v14.686H-1zM-1 181v-14.687h14.968V181H-1zm17.222-49.81v-14.687H31.19v14.687H16.22zm0 16.603v-14.687H31.19v14.687H16.22zm0 16.602V149.71H31.19v14.686H16.22zm0 16.605v-14.687H31.19V181H16.22zm17.286-49.81v-14.687h14.97v14.687h-14.97zm0 16.603v-14.687h14.97v14.687h-14.97zm0 16.602V149.71h14.97v14.686h-14.97zm0 16.605v-14.687h14.97V181h-14.97zm17.226-49.81v-14.687h14.967v14.687H50.734zm0 16.603v-14.687h14.967v14.687H50.734zm0 16.602V149.71h14.967v14.686H50.734zm0 16.605v-14.687h14.967V181H50.734zm17.545-49.81v-14.687h14.967v14.687H68.28zm0 16.603v-14.687h14.967v14.687H68.28zm0 16.602V149.71h14.967v14.686H68.28zm0 16.604v-14.687h14.967V181H68.28zM85.5 131.19v-14.686h14.967v14.687H85.5zm0 16.604v-14.687h14.967v14.687H85.5zm0 16.602V149.71h14.967v14.686H85.5zm0 16.604v-14.687h14.967V181H85.5zm17.288-49.81v-14.686h14.967v14.687h-14.967zm0 16.604v-14.687h14.967v14.687h-14.967zm0 16.602V149.71h14.967v14.686h-14.967zm0 16.604v-14.687h14.967V181h-14.967zm17.222-49.81v-14.686h14.969v14.687H120.01zm0 16.604v-14.687h14.969v14.687H120.01zm0 16.602V149.71h14.969v14.686H120.01zm0 16.604v-14.687h14.969V181H120.01zm17.224-66.412V99.9H152.2v14.687h-14.966zm0 16.603v-14.687H152.2v14.687h-14.966zm0 16.603v-14.687H152.2v14.687h-14.966zm0 16.602V149.71H152.2v14.686h-14.966zm0 16.604v-14.687H152.2V181h-14.966zm17.222-66.412V99.9h14.966v14.687h-14.966zm0 16.603v-14.687h14.966v14.687h-14.966zm0 16.603v-14.687h14.966v14.687h-14.966zm0 16.602V149.71h14.966v14.686h-14.966zm0 16.604v-14.687h14.966V181h-14.966zm17.286-66.412V99.9h14.969v14.687h-14.969zm0 16.603v-14.687h14.969v14.687h-14.969zm0 16.603v-14.687h14.969v14.687h-14.969zm0 16.602V149.71h14.969v14.686h-14.969zm0 16.604v-14.687h14.969V181h-14.969zm17.224-66.412V99.9h14.967v14.687h-14.967zm0 16.603v-14.687h14.967v14.687h-14.967zm0 16.603v-14.687h14.967v14.687h-14.967zm0 16.602V149.71h14.967v14.686h-14.967zm0 16.604v-14.687h14.967V181h-14.967zm17.544-66.412V99.9h14.97v14.687h-14.97zm0 16.603v-14.687h14.97v14.687h-14.97zm0 16.603v-14.687h14.97v14.687h-14.97zm0 16.602V149.71h14.97v14.686h-14.97zm0 16.604v-14.687h14.97V181h-14.97zm17.223-66.412V99.9H238.7v14.687h-14.967zm0 16.603v-14.687H238.7v14.687h-14.967zm0 16.603v-14.687H238.7v14.687h-14.967zm0 16.602V149.71H238.7v14.686h-14.967zm0 16.605v-14.687H238.7V181h-14.967zm17.287-66.413V99.9h14.968v14.687H241.02zm0 16.603v-14.687h14.968v14.687H241.02zm0 16.603v-14.687h14.968v14.687H241.02zm0 16.602V149.71h14.968v14.686H241.02zm0 16.604v-14.687h14.968V181H241.02zm17.223-66.412V99.9h14.967v14.687h-14.967zm0 16.603v-14.687h14.967v14.687h-14.967zm0 16.603v-14.687h14.967v14.687h-14.967zm0 16.602V149.71h14.967v14.686h-14.967zm0 16.604v-14.687h14.967V181h-14.967zm17.288-66.412V99.9h14.967v14.687H275.53zm0 16.603v-14.687h14.967v14.687H275.53zm0 16.603v-14.687h14.967v14.687H275.53zm0 16.602V149.71h14.967v14.686H275.53zm0 16.604v-14.687h14.967V181H275.53zm17.221-66.412V99.9h14.969v14.687h-14.969zm0 16.603v-14.687h14.969v14.687h-14.969zm0 16.603v-14.687h14.969v14.687h-14.969zm0 16.602V149.71h14.969v14.686h-14.969zm0 16.604v-14.687h14.969V181h-14.969zm17.288-66.412V99.9h14.968v14.687H310.04zm0 16.603v-14.687h14.968v14.687H310.04zm0 16.603v-14.687h14.968v14.687H310.04zm0 16.602V149.71h14.968v14.686H310.04zm0 16.605v-14.687h14.968V181H310.04zm17.222-66.413V99.9h14.967v14.687h-14.967zm0 16.603v-14.687h14.967v14.687h-14.967zm0 16.603v-14.687h14.967v14.687h-14.967zm0 16.602V149.71h14.967v14.686h-14.967zm0 16.605v-14.687h14.967V181h-14.967zm17.546-66.413V99.9h14.968v14.687h-14.968zm0 16.603v-14.687h14.968v14.687h-14.968zm0 16.603v-14.687h14.968v14.687h-14.968zm0 16.602V149.71h14.968v14.686h-14.968zm0 16.604v-14.687h14.968V181h-14.968zm17.224-66.412V99.9h14.967v14.687h-14.967zm0 16.603v-14.687h14.967v14.687h-14.967zm0 16.603v-14.687h14.967v14.687h-14.967zm0 16.602V149.71h14.967v14.686h-14.967zm0 16.604v-14.687h14.967V181h-14.967zm17.287-66.412V99.9h14.966v14.687H379.32zm0 16.603v-14.687h14.966v14.687H379.32zm0 16.603v-14.687h14.966v14.687H379.32zm0 16.602V149.71h14.966v14.686H379.32zm0 16.605v-14.687h14.966V181H379.32zm17.221-66.413V99.9h14.968v14.687H396.54zm0 16.603v-14.687h14.968v14.687H396.54zm0 16.603v-14.687h14.968v14.687H396.54zm0 16.602V149.71h14.968v14.686H396.54zm0 16.604v-14.687h14.968V181H396.54zm17.32-66.412V99.9h14.969v14.687h-14.97zM-1 97.687V83h14.968v14.687H-1zm17.222 0V83H31.19v14.687H16.22zm17.286 0V83h14.97v14.687h-14.97zm17.226 0V83h14.967v14.687H50.734zm17.545 0V83h14.967v14.687H68.28zm17.221 0V83h14.967v14.687H85.5zm17.288 0V83h14.967v14.687h-14.967zm17.222 0V83h14.969v14.687H120.01zm17.224 0V83H152.2v14.687h-14.966zm17.222 0V83h14.966v14.687h-14.966zm17.286 0V83h14.969v14.687h-14.969zm17.224 0V83h14.967v14.687h-14.967zm17.544 0V83h14.97v14.687h-14.97zm17.223 0V83H238.7v14.687h-14.967zm17.287 0V83h14.968v14.687H241.02zm17.223 0V83h14.967v14.687h-14.967zm17.288 0V83h14.967v14.687H275.53zm17.221 0V83h14.969v14.687h-14.969zm17.288 0V83h14.968v14.687H310.04zm17.222 0V83h14.967v14.687h-14.967zm17.546 0V83h14.968v14.687h-14.968zm17.224 0V83h14.967v14.687h-14.967zm17.287 0V83h14.966v14.687H379.32zm17.221 0V83h14.968v14.687H396.54zm17.32 0V83h14.969v14.687h-14.97zm0 33.503v-14.687h14.969v14.687h-14.97zm0 16.603v-14.687h14.969v14.687h-14.97zm0 16.602V149.71h14.969v14.686h-14.97zm0 16.605v-14.687h14.969V181h-14.97zm17.63-66.413V99.9h14.967v14.687H431.49zm0 16.603v-14.687h14.967v14.687H431.49zm0 16.603v-14.687h14.967v14.687H431.49zm0 16.602V149.71h14.967v14.686H431.49zm0 16.604v-14.687h14.967V181H431.49zm17.225-66.412V99.9h14.965v14.687h-14.965zm0 16.603v-14.687h14.965v14.687h-14.965zm0 16.603v-14.687h14.965v14.687h-14.965zm0 16.602V149.71h14.965v14.686h-14.965zm0 16.604v-14.687h14.965V181h-14.965zm17.317-66.412V99.9H481v14.687h-14.968zm-34.542-16.9V83h14.967v14.687H431.49zm17.225 0V83h14.965v14.687h-14.965zm17.317 0V83H481v14.687h-14.968zm0 33.503v-14.687H481v14.687h-14.968zm0 16.603v-14.687H481v14.687h-14.968zm0 16.602V149.71H481v14.686h-14.968zm0 16.604v-14.687H481V181h-14.968z" fill="#FFF2C6"/><path fill="#FC8912" d="M266 348h7V196h-7zm-140 0h10V196h-10zM409 67h5v-80h-5z"/><g transform="translate(-11 -68)"><path d="M350.284 206.851v-4.157c0-5.727-4.661-10.386-10.39-10.386h-5.4c-5.729 0-10.39 4.66-10.39 10.386v44.431h6.648v-44.431a3.746 3.746 0 0 1 3.742-3.741h5.4a3.746 3.746 0 0 1 3.741 3.74v4.158h6.649z" fill="#4B86B4"/><mask id="b" fill="#fff"><use xlink:href="#a"/></mask><path fill="#175658" mask="url(#b)" d="M323.479 247.125H332v-18.454h-8.521z"/><path d="M333.66 235.298a1.245 1.245 0 1 0 0-2.491h-12.466a1.245 1.245 0 1 0 0 2.49h12.466z" fill="#175658" mask="url(#b)"/><path d="M317.456 238.204a4.153 4.153 0 1 0 0-8.306h-.833a4.154 4.154 0 0 0 0 8.306h.833zm20.774 0a4.153 4.153 0 1 0 0-8.306h-.83a4.156 4.156 0 0 0-4.156 4.154 4.154 4.154 0 0 0 4.156 4.152h.83zm11.635-29.284a1.661 1.661 0 1 0 0-3.322h-5.816a1.662 1.662 0 1 0 0 3.321h5.816z" fill="#175658" mask="url(#b)"/><path d="M12.465 167.392a2.493 2.493 0 0 0 2.493 2.491h116.345a2.493 2.493 0 0 0 0-4.983H14.958a2.493 2.493 0 0 0-2.493 2.492" fill="#A9C4E5" mask="url(#b)"/><path d="M300.094 240.47c-4.908 0-5.7.396-5.7 3.751v13.283c0 3.9 3.164 7.062 7.066 7.062h111.992a7.064 7.064 0 0 0 7.066-7.062V244.22c0-3.355-.95-3.751-5.7-3.751-2.014 0-1.597 2.021-1.597 2.208 0 2.112-1.98 1.955-5.14 1.955h-101.25c-3.16 0-5.14.157-5.14-1.955 0-1.01.169-2.208-1.597-2.208" fill="#B2A5AC" mask="url(#b)"/><path d="M415.008 264.389c3.152-.71 5.51-3.52 5.51-6.885v-8.089H294.394v8.089c0 3.365 2.358 6.176 5.51 6.885h115.104z" fill="#51424E" mask="url(#b)"/><path fill="#7B2719" mask="url(#b)" d="M12.465 434.203h481.343v-18.455H12.465z"/><path fill="#FFBB1F" mask="url(#b)" d="M424.658 298.62h66.483v-33.223h-66.483zm0 34.88h66.483v-33.222h-66.483zm0 34.886h66.483v-33.222h-66.483zm0 47.362h66.483v-45.701h-66.483z"/><path d="M469.324 277.857c1.03 0 1.873-.843 1.873-1.871v-1.24c0-1.03-.844-1.872-1.873-1.872h-22.848c-1.03 0-1.873.842-1.873 1.872v1.24c0 1.028.843 1.871 1.873 1.871h22.848z" fill="#51424E" mask="url(#b)"/><path fill="#FC8912" mask="url(#b)" d="M424.658 301.112h66.483v-2.493h-66.483zm0 34.882h66.483v-2.49h-66.483zm0 34.884h66.483v-2.492h-66.483z"/><path d="M469.324 312.739c1.03 0 1.873-.843 1.873-1.872v-1.24c0-1.03-.844-1.871-1.873-1.871h-22.848c-1.03 0-1.873.841-1.873 1.871v1.24c0 1.03.843 1.872 1.873 1.872h22.848zm0 34.886c1.03 0 1.873-.843 1.873-1.872v-1.241c0-1.03-.844-1.872-1.873-1.872h-22.848c-1.03 0-1.873.842-1.873 1.872v1.24c0 1.03.843 1.873 1.873 1.873h22.848zm0 34.881c1.03 0 1.873-.843 1.873-1.872v-1.24c0-1.03-.844-1.872-1.873-1.872h-22.848c-1.03 0-1.873.842-1.873 1.872v1.24c0 1.03.843 1.872 1.873 1.872h22.848z" fill="#51424E" mask="url(#b)"/><path fill="#FFBB1F" mask="url(#b)" d="M354.85 415.749h67.315V260.412h-67.314zm-70.805 0h69.036V260.412h-69.036z"/><path fill="#FC8912" mask="url(#b)" d="M352.358 415.748h2.493V261.244h-2.493zm69.807 0h2.493V261.244h-2.493z"/><path d="M366.276 343.47c1.03 0 1.872-.843 1.872-1.872v-22.835a1.878 1.878 0 0 0-1.872-1.872h-1.24a1.878 1.878 0 0 0-1.874 1.872v22.835c0 1.029.842 1.872 1.873 1.872h1.24z" fill="#51424E" mask="url(#b)"/><path fill="#FFBB1F" mask="url(#b)" d="M9.973 298.62H136.29v-33.223H9.973zm1 34.88H137.29v-33.222H10.973zm0 34.886H137.29v-33.222H10.973zm0 47.362H137.29v-45.701H10.973z"/><path fill="#FFC405" mask="url(#b)" d="M9.973 134.98H136.29V55.246H9.973z"/><path fill="#84B8B7" mask="url(#b)" d="M24.93 113.385h96.401v-44.02h-96.4z"/><path d="M26.491 111.825h93.28v-40.9H26.49v40.9zm-3.121 3.12h99.522v-47.14H23.37v47.14z" fill="#F2AD00" mask="url(#b)"/><path d="M59.835 122.732v1.24c0 1.029.842 1.871 1.873 1.871h22.847c1.03 0 1.873-.842 1.873-1.872v-1.24a1.878 1.878 0 0 0-1.873-1.871H61.708c-1.03 0-1.873.842-1.873 1.872" fill="#51424E" mask="url(#b)"/><path fill="#FFC405" mask="url(#b)" d="M285.045 134.98h136.289V55.246h-136.29z"/><path fill="#84B8B7" mask="url(#b)" d="M299.925 113.385h106.372v-44.02H299.925z"/><path d="M301.485 111.825h103.252v-40.9H301.485v40.9zm-3.12 3.12h109.493v-47.14H298.364v47.14z" fill="#F2AD00" mask="url(#b)"/><path d="M364.612 125.843c1.03 0 1.873-.842 1.873-1.871v-1.24c0-1.03-.843-1.872-1.873-1.872h-22.846c-1.03 0-1.873.842-1.873 1.872v1.24c0 1.03.844 1.871 1.873 1.871h22.846z" fill="#51424E" mask="url(#b)"/><path fill="#FFC405" mask="url(#b)" d="M424.762 134.98h67.314V55.246h-67.314z"/><path fill="#84B8B7" mask="url(#b)" d="M439.72 113.385h37.397v-44.02H439.72z"/><path d="M441.281 111.825h34.276v-40.9h-34.276v40.9zm-3.122 3.12h40.519v-47.14h-40.519v47.14z" fill="#F2AD00" mask="url(#b)"/><path d="M469.844 125.843c1.03 0 1.873-.842 1.873-1.871v-1.24c0-1.03-.844-1.872-1.873-1.872h-22.85a1.878 1.878 0 0 0-1.872 1.872v1.24c0 1.03.843 1.871 1.873 1.871h22.849zM59.835 274.746v1.24c0 1.029.842 1.871 1.873 1.871h22.847c1.03 0 1.873-.842 1.873-1.872v-1.24a1.878 1.878 0 0 0-1.873-1.871H61.708c-1.03 0-1.873.842-1.873 1.872" fill="#51424E" mask="url(#b)"/><path fill="#FC8912" mask="url(#b)" d="M9.973 301.112H136.29v-2.493H9.973zm0 34.882H136.29v-2.49H9.973zm0 34.884H136.29v-2.492H9.973z"/><path d="M59.835 309.627v1.24c0 1.03.842 1.872 1.873 1.872h22.847c1.03 0 1.873-.842 1.873-1.872v-1.24c0-1.03-.843-1.872-1.873-1.872H61.708c-1.03 0-1.873.843-1.873 1.872m0 34.885v1.24c0 1.03.842 1.872 1.873 1.872h22.847c1.03 0 1.873-.842 1.873-1.871v-1.241c0-1.03-.843-1.872-1.873-1.872H61.708c-1.03 0-1.873.842-1.873 1.872m0 34.882v1.24c0 1.03.842 1.872 1.873 1.872h22.847c1.03 0 1.873-.842 1.873-1.872v-1.24c0-1.03-.843-1.872-1.873-1.872H61.708c-1.03 0-1.873.842-1.873 1.872m181.876-176.819a2.908 2.908 0 0 0-2.909-2.908 2.907 2.907 0 1 0 0 5.814 2.907 2.907 0 0 0 2.909-2.906" fill="#51424E" mask="url(#b)"/><path d="M248.875 233.72h12.458a30.1 30.1 0 0 0 4.994-16.656c0-16.539-13.21-29.945-29.502-29.945a28.987 28.987 0 0 0-15.293 4.358l2.917 2.916a19.928 19.928 0 0 1 10.603-3.031c10.846 0 19.64 8.552 19.64 19.103 0 5.306-2.227 10.106-5.817 13.568v9.688z" fill="#51424E" mask="url(#b)"/><path fill="#3E7498" mask="url(#b)" d="M223.194 223.753l-6.649-11.627h-6.648l8.31 26.577h29.918z"/><path d="M252.042 210.465h-26.48c-5.659 6.304-9.495 16.532-9.975 28.239h46.43c-.48-11.707-4.315-21.935-9.975-28.24" fill="#4B86B4" mask="url(#b)"/><path d="M258.6 236.235c-.439-10.689-3.94-20.03-9.11-25.785h-6.662c5.169 5.756 8.671 15.096 9.11 25.785h6.662z" fill="#157D78" mask="url(#b)"/><path d="M238.802 203.82c-4.92 0-9.481 2.459-13.24 6.645h26.48c-3.759-4.186-8.318-6.644-13.24-6.644" fill="#51424E" mask="url(#b)"/><path fill="#175658" mask="url(#b)" d="M219.038 242.857h39.059v-4.153h-39.059z"/><path fill="#51424E" mask="url(#b)" d="M157.898 242.766l-1.664 4.152h48.2l-1.662-4.152zm102.652 0h-44.877l-1.662 4.152h48.2z"/><path d="M228.684 210.465c-5.66 6.304-9.495 16.532-9.975 28.239h6.242c.48-11.707 4.316-21.935 9.975-28.24h-6.242z" fill="#A9C4E5" mask="url(#b)"/><path d="M261.853 236.157h-46.102c-.07.841-.13 2.312-.164 3.17h46.43c-.035-.858-.093-2.329-.164-3.17" fill="#3E5F74" mask="url(#b)"/><path fill="#993C1B" mask="url(#b)" d="M144.6 416.373h132.964V256.486H144.6z"/><path fill="#993C1B" mask="url(#b)" d="M144.6 258.268h132.964v-11.764H144.6z"/><path fill="#51424E" mask="url(#b)" d="M9.989 269.764h481.343v-4.347H9.989zm332.187 73.706c1.03 0 1.873-.843 1.873-1.872v-22.835a1.879 1.879 0 0 0-1.873-1.872h-1.241c-1.03 0-1.873.843-1.873 1.872v22.835c0 1.029.842 1.872 1.873 1.872h1.241z"/><path d="M258.865 301.737a7.064 7.064 0 0 0 7.065-7.063v-12.452c0-3.9-3.164-7.063-7.065-7.063H162.47a7.065 7.065 0 0 0-7.066 7.063v12.452c0 3.9 3.164 7.063 7.066 7.063h96.395z" fill="#FFFAFC" mask="url(#b)"/><path d="M258.865 384.586a7.065 7.065 0 0 0 7.065-7.064v-58.55a7.064 7.064 0 0 0-7.065-7.064H162.47a7.065 7.065 0 0 0-7.066 7.064v58.55c0 3.9 3.164 7.064 7.066 7.064h96.395z" fill="#84B8B7" mask="url(#b)"/><path d="M252.165 292.946a5.812 5.812 0 0 0 .816-8.182 5.82 5.82 0 0 0-8.188-.814 5.81 5.81 0 0 0-.816 8.18 5.82 5.82 0 0 0 8.188.816m-14.49-4.498a5.815 5.815 0 0 0-5.816-5.814 5.815 5.815 0 1 0 0 11.628 5.815 5.815 0 0 0 5.816-5.814m-16.62 0a5.815 5.815 0 0 0-5.818-5.814 5.815 5.815 0 0 0 0 11.628 5.815 5.815 0 0 0 5.818-5.814m-16.621 0a5.815 5.815 0 0 0-5.816-5.814 5.816 5.816 0 0 0-5.818 5.814 5.816 5.816 0 0 0 5.818 5.814 5.815 5.815 0 0 0 5.816-5.814m-31.579 0a5.816 5.816 0 0 0-5.817-5.814 5.815 5.815 0 1 0 0 11.628 5.815 5.815 0 0 0 5.817-5.814" fill="#51424E" mask="url(#b)"/><path d="M265.93 377.522v-58.55a7.064 7.064 0 0 0-7.065-7.064h-9.555l-53.582 72.677h63.137a7.065 7.065 0 0 0 7.065-7.063m-46.024-65.561l-53.582 72.624h16.185l53.505-72.624c-.382-.065-16.108 0-16.108 0" fill="#5F6C7C" mask="url(#b)"/><path d="M254.086 326.027c1.03 0 1.872-.842 1.872-1.871v-1.24c0-1.03-.842-1.871-1.872-1.871h-87.668c-1.03 0-1.873.841-1.873 1.871v1.24c0 1.029.842 1.871 1.873 1.871h87.668z" fill="#51424E" mask="url(#b)"/><path d="M256.353 329.271c1.03 0 1.873-.842 1.873-1.872v-1.24a1.878 1.878 0 0 0-1.873-1.871h-87.669c-1.03 0-1.873.842-1.873 1.872v1.24c0 1.029.844 1.871 1.873 1.871h87.669z" fill="#51424E" mask="url(#b)"/><path fill="#FBEAF1" mask="url(#b)" d="M188.229 120.455h45.706V42.783h-45.706z"/><path fill="#B2A5AC" mask="url(#b)" d="M144.6 134.98h132.964v-17.017H144.6z"/><path fill="#FFFAFC" mask="url(#b)" d="M233.866 88.468h-45.913L144.6 117.963h132.965z"/><path fill="#51424E" mask="url(#b)" d="M48.506 252.94h18.352v-7.76H48.506z"/><path d="M57.682 249.77c11.197 0 20.545-7.898 22.777-18.425H34.904c2.232 10.527 11.58 18.425 22.778 18.425" fill="#98AA3B" mask="url(#b)"/><path d="M38.934 233.35c1.264 5.967 5.918 10.668 11.85 12.032a15.734 15.734 0 0 1-9.386-12.031h-2.464z" fill="#FFFAFC" mask="url(#b)"/><path d="M56.192 247.689c1.21.303 2.461.466 3.746.466 8.627 0 15.83-7.206 17.55-16.81h-7.493c-1.464 8.174-6.898 14.607-13.803 16.344" fill="#FFC405" mask="url(#b)"/><path fill="#157D78" mask="url(#b)" d="M36.898 208.42h2.66v-36.544h-2.66z"/><path d="M35.568 162.575v11.96a2.659 2.659 0 0 0 2.66 2.657c1.47 0 2.66-1.19 2.66-2.658v-11.96a2.659 2.659 0 0 0-5.32 0m-3.988 51.828c0 5.32 2.976 9.634 6.648 9.634 3.672 0 6.648-4.314 6.648-9.634 0-5.321-2.976-9.635-6.648-9.635-3.672 0-6.649 4.314-6.649 9.635" fill="#51424E" mask="url(#b)"/><g mask="url(#b)" fill="#FFFAFC"><path d="M35.45 221.174l6.17-13.052c-.694-.772-1.519-1.305-2.418-1.521l-5.604 11.853c.455 1.112 1.092 2.045 1.853 2.72m2.849 1.17l.01-.002 5.094-10.767a9.383 9.383 0 0 0-.696-1.846l-5.832 12.334c.455.177.93.28 1.424.28"/></g><path fill="#157D78" mask="url(#b)" d="M83.851 201.776h2.66v-29.9h-2.66z"/><path d="M87.84 174.534v-11.96a2.66 2.66 0 0 0-5.318 0v11.96a2.657 2.657 0 0 0 2.658 2.658c1.47 0 2.66-1.189 2.66-2.658m-4.737 33.97a1.247 1.247 0 1 1 .001-2.494 1.247 1.247 0 0 1 0 2.494m0 4.153a1.246 1.246 0 1 1-.001-2.493 1.246 1.246 0 0 1 0 2.493m0 4.153a1.247 1.247 0 1 1 0-2.494 1.247 1.247 0 0 1 0 2.494m0 4.152a1.247 1.247 0 1 1 0-2.493 1.247 1.247 0 0 1 0 2.493m-4.154-8.305a1.247 1.247 0 1 1-.002-2.493 1.247 1.247 0 0 1 .002 2.493m0 4.153a1.247 1.247 0 1 1-.001-2.494 1.247 1.247 0 0 1 0 2.494m8.311 1.661a1.246 1.246 0 1 1 .001 2.491 1.246 1.246 0 0 1-.001-2.49m0-4.154a1.246 1.246 0 1 1 0 2.492 1.246 1.246 0 0 1 0-2.492m0-4.153a1.246 1.246 0 1 1 0 2.493 1.246 1.246 0 0 1 0-2.493m0-4.153a1.246 1.246 0 1 1 0 2.492 1.246 1.246 0 0 1 0-2.492m4.155 8.306a1.247 1.247 0 1 1 0 2.493 1.247 1.247 0 0 1 0-2.493m0-4.153a1.247 1.247 0 1 1 0 2.494 1.247 1.247 0 0 1 0-2.494m5.818 3.323c0-6.651-5.395-12.043-12.05-12.043-6.655 0-12.051 5.392-12.051 12.043 0 6.65 5.396 12.043 12.05 12.043 6.656 0 12.05-5.393 12.05-12.043" fill="#51424E" mask="url(#b)"/><path fill="#157D78" mask="url(#b)" d="M56.013 202.884h2.657v-31.008h-2.657z"/><path d="M54.683 162.575v11.96a2.658 2.658 0 1 0 5.318 0v-11.96a2.659 2.659 0 0 0-5.318 0m5.567 51.328a.831.831 0 0 1-1.662 0v-8.306a.83.83 0 1 1 1.663 0v8.306zm-4.155 0a.83.83 0 0 1-1.662 0v-8.306a.831.831 0 0 1 1.662 0v8.306zm-2.215-12.458a2.355 2.355 0 0 0-2.356 2.354v11.902c0 1.3 1.055 2.355 2.356 2.355h6.923a2.356 2.356 0 0 0 2.356-2.355v-11.902c0-1.3-1.055-2.354-2.356-2.354H53.88z" fill="#51424E" mask="url(#b)"/><path d="M480.118 242.321c.294-1.28.548-2.384.548-3.152 0-1.561 1.095-2.833 2.44-2.833.9 0 1.853.406 2.375 1.013.386.448.527.971.429 1.598-.25 1.642-1.06 2.186-2.866 3.266-1.147.684-2.767 1.56-3.405 2.267-.417.464-.736.277-.982.462.096-.898 1.266-1.773 1.461-2.62m-1.569 4.812c1.323-1.613 2.844-2.175 5.253-3.613 1.859-1.109 3.215-1.96 3.574-4.314.416-2.732-2.104-4.314-4.27-4.314-2.166 0-3.92 1.93-3.92 4.314 0 1.778-1.616 9.119-.637 7.927" fill="#FF3B20" mask="url(#b)"/><path d="M467.463 249.917h10.342s.379-1.803.786-2.784c.633-1.535 3.097-4.998 3.743-6.528 1.641-3.887 1.046-8.528 1.046-8.528h-21.49s-.596 4.64 1.045 8.528c.645 1.53 3.11 4.993 3.745 6.528.405.98.783 2.784.783 2.784" fill="#FF3B20" mask="url(#b)"/><path d="M480.128 252.939c4.772-.71 8.013-2.102 8.013-3.702h-30.502c0 1.6 3.241 2.992 8.013 3.702h14.476z" fill="#993C1B" mask="url(#b)"/><path d="M476.668 239.858a4.032 4.032 0 0 0-8.065 0 4.033 4.033 0 0 0 8.065 0" fill="#FFFAFC" mask="url(#b)"/><path d="M446.046 242.321c.294-1.28.549-2.384.549-3.152 0-1.561 1.094-2.833 2.44-2.833.899 0 1.852.406 2.375 1.013.385.448.526.971.428 1.598-.249 1.642-1.06 2.186-2.866 3.266-1.148.684-2.767 1.56-3.405 2.267-.416.464-.737.277-.983.462.096-.898 1.267-1.773 1.462-2.62m-1.57 4.812c1.322-1.613 2.845-2.175 5.253-3.613 1.86-1.109 3.217-1.96 3.574-4.314.416-2.732-2.103-4.314-4.268-4.314-2.167 0-3.92 1.93-3.92 4.314 0 1.778-1.617 9.119-.638 7.927" fill="#157D78" mask="url(#b)"/><path d="M432.609 247.134c.403.98.781 2.783.781 2.783h10.344s.378-1.803.785-2.783c.633-1.536 3.098-5 3.742-6.53 1.642-3.886 1.046-8.527 1.046-8.527h-21.49s-.594 4.641 1.045 8.528c.646 1.53 3.111 4.993 3.747 6.529" fill="#157D78" mask="url(#b)"/><path d="M446.055 252.939c4.772-.71 8.013-2.102 8.013-3.702h-30.502c0 1.6 3.243 2.992 8.014 3.702h14.475z" fill="#175658" mask="url(#b)"/><path d="M442.594 239.858a4.03 4.03 0 0 0-4.032-4.03 4.03 4.03 0 1 0 0 8.06 4.031 4.031 0 0 0 4.032-4.03" fill="#FFFAFC" mask="url(#b)"/><path d="M413.024 173.21a2.493 2.493 0 0 0 0-4.983H296.678a2.493 2.493 0 0 0-2.492 2.492 2.493 2.493 0 0 0 2.492 2.492h116.346z" fill="#51424E" mask="url(#b)"/><path d="M413.024 169.884a2.493 2.493 0 0 0 0-4.983H296.678a2.493 2.493 0 0 0-2.492 2.49 2.493 2.493 0 0 0 2.492 2.493h116.346z" fill="#A9C4E5" mask="url(#b)"/><path d="M404.713 164.369c0-3.133-2.541-3.322-5.676-3.322h-29.368c-3.134 0-5.676.189-5.676 3.322v40.044h40.72v-40.044z" fill="#C3C73D" mask="url(#b)"/><path fill="#FFFAFC" mask="url(#b)" d="M363.993 198.389h40.72v-3.983h-40.72z"/><path d="M369.42 208.393v-7.072a1.357 1.357 0 1 0-2.716 0v7.072a1.358 1.358 0 0 0 2.716 0m5.43 0v-7.072a1.357 1.357 0 1 0-2.716 0l.001 7.072a1.357 1.357 0 0 0 2.716 0m5.429 0v-7.072a1.357 1.357 0 1 0-2.716 0v7.072a1.358 1.358 0 0 0 2.717 0m5.431 0v-7.072a1.358 1.358 0 0 0-2.716 0v7.072a1.357 1.357 0 0 0 2.716 0m5.428 0v-7.072a1.357 1.357 0 0 0-2.715 0v7.072a1.359 1.359 0 0 0 2.716 0m5.429 0v-7.072a1.356 1.356 0 1 0-2.713 0v7.072a1.356 1.356 0 1 0 2.713 0m5.432 0v-7.072a1.358 1.358 0 1 0-2.717 0v7.072a1.358 1.358 0 0 0 2.717 0" fill="#E7C352" mask="url(#b)"/><path d="M480.52 191.928a3.047 3.047 0 0 0 3.045-3.042v-10.648a3.047 3.047 0 0 0-3.045-3.042h-10.653a3.046 3.046 0 0 0-3.044 3.042v10.648a3.046 3.046 0 0 0 3.044 3.042h10.653z" fill="#FFFAFC" mask="url(#b)"/><path d="M467.76 188.886v-10.648c0-1.164.943-2.107 2.106-2.107h10.654c1.165 0 2.108.943 2.108 2.107v10.648a2.107 2.107 0 0 1-2.108 2.106h-10.654a2.106 2.106 0 0 1-2.106-2.106zm12.76 3.978a3.984 3.984 0 0 0 3.981-3.978v-10.648a3.984 3.984 0 0 0-3.98-3.979h-10.655a3.983 3.983 0 0 0-3.98 3.979v10.648a3.983 3.983 0 0 0 3.98 3.978h10.654z" fill="#F4D29E" mask="url(#b)"/><path d="M478.912 183.562a3.716 3.716 0 0 0-3.718-3.715 3.716 3.716 0 0 0 0 7.43 3.716 3.716 0 0 0 3.718-3.715" fill="#CEB9BD" mask="url(#b)"/><path d="M474.45 183.562a.743.743 0 1 0-1.485 0 .743.743 0 0 0 1.486 0m2.973 0a.743.743 0 1 0-1.485-.001.743.743 0 0 0 1.485.001" fill="#7F696E" mask="url(#b)"/><path d="M446.321 191.928a3.047 3.047 0 0 0 3.044-3.042v-10.648a3.047 3.047 0 0 0-3.044-3.042h-10.654a3.046 3.046 0 0 0-3.044 3.042v10.648a3.047 3.047 0 0 0 3.044 3.042h10.654z" fill="#FFFAFC" mask="url(#b)"/><path d="M433.56 188.886v-10.648c0-1.164.944-2.107 2.107-2.107h10.654c1.165 0 2.107.943 2.107 2.107v10.648a2.106 2.106 0 0 1-2.107 2.106h-10.654a2.107 2.107 0 0 1-2.107-2.106zm12.76 3.978a3.983 3.983 0 0 0 3.981-3.978v-10.648a3.984 3.984 0 0 0-3.98-3.979h-10.654a3.983 3.983 0 0 0-3.98 3.979v10.648a3.983 3.983 0 0 0 3.98 3.978h10.654z" fill="#F4D29E" mask="url(#b)"/><path d="M444.712 183.562a3.716 3.716 0 0 0-3.717-3.715 3.716 3.716 0 1 0 0 7.43 3.716 3.716 0 0 0 3.717-3.715" fill="#CEB9BD" mask="url(#b)"/><path d="M440.251 183.562a.743.743 0 1 0-1.485 0 .743.743 0 0 0 1.485 0m2.974 0a.743.743 0 1 0-1.486 0 .743.743 0 0 0 1.486 0" fill="#7F696E" mask="url(#b)"/><path fill="#FF3B20" mask="url(#b)" d="M0 265.397h501.945V252.94H0z"/><path d="M65.192 111.84l30.381-40.863c-.382-.065-30.296 0-30.296 0L34.819 111.84h30.373zm300.896-40.863c-.382-.065-30.296 0-30.296 0l-30.457 40.864h30.372l30.381-40.864zm10.073 0l-30.457 40.864h9.564l30.38-40.864c-.382-.065-9.487 0-9.487 0m99.507 1.065l-29.249 39.799h9.564l19.685-25.657z" fill="#C8D1CE" mask="url(#b)"/><path d="M156.965 377.522v-58.55a5.51 5.51 0 0 1 5.505-5.504h96.394a5.51 5.51 0 0 1 5.506 5.504v58.55a5.51 5.51 0 0 1-5.506 5.503H162.47a5.51 5.51 0 0 1-5.505-5.503zm101.9 8.622c4.756 0 8.626-3.868 8.626-8.622v-58.55c0-4.755-3.87-8.623-8.627-8.623H162.47c-4.757 0-8.627 3.868-8.627 8.623v58.55c0 4.754 3.87 8.622 8.627 8.622h96.394z" fill="#FFFAFC" mask="url(#b)"/><path d="M270.933 126.297a3.922 3.922 0 1 0-7.844.002 3.922 3.922 0 0 0 7.844-.002m-11.208 0a3.923 3.923 0 0 0-7.847 0 3.921 3.921 0 0 0 3.923 3.92 3.922 3.922 0 0 0 3.924-3.92m-11.21 0a3.923 3.923 0 0 0-7.846 0 3.922 3.922 0 0 0 3.923 3.92 3.922 3.922 0 0 0 3.923-3.92" fill="#51424E" mask="url(#b)"/><path fill="#FFFAFC" mask="url(#b)" d="M181.46 117.963l-12.682 17.016h30.35l12.65-17.016z"/><path fill="#FF3B20" mask="url(#b)" d="M0 265.397h501.945V252.94H0z"/><path fill="#FF5B22" mask="url(#b)" d="M0 256.038h501.945v-3.1H0z"/><path d="M245.5 125.569v-3.9a.936.936 0 0 0-1.872 0v3.9a.936.936 0 0 0 1.873 0m11.237 0v-3.9a.936.936 0 0 0-1.873 0v3.9a.936.936 0 0 0 1.873 0m11.08 0v-3.9a.936.936 0 0 0-1.872 0v3.9a.936.936 0 0 0 1.872 0m-68.513 160.969v-3.9a.936.936 0 0 0-1.873 0v3.9a.936.936 0 0 0 1.873 0m-31.525 0v-3.9a.936.936 0 0 0-1.873 0v3.9a.936.936 0 0 0 1.873 0m48.224 0v-3.9a.936.936 0 0 0-1.873 0v3.9a.936.936 0 0 0 1.873 0m16.699 0v-3.9a.936.936 0 0 0-1.872 0v3.9a.936.936 0 0 0 1.872 0m17.939 1.535l3.019-2.471a.935.935 0 1 0-1.186-1.448l-3.02 2.47a.934.934 0 0 0 .594 1.66c.209 0 .42-.07.593-.211" fill="#B2A5AC" mask="url(#b)"/><path d="M300.094 239.221c-4.909 0-5.7.397-5.7 3.752v1.872c0-3.355.791-3.751 5.7-3.751 1.766 0 1.598 1.198 1.598 2.208 0 2.112 1.98 1.955 5.139 1.955h101.251c3.159 0 5.14.157 5.14-1.955 0-.187-.418-2.208 1.596-2.208 4.749 0 5.7.396 5.7 3.751v-1.872c0-3.355-.951-3.752-5.7-3.752-2.014 0-1.597 2.022-1.597 2.208 0 2.112-1.98 1.956-5.14 1.956h-101.25c-3.16 0-5.14.156-5.14-1.956 0-1.01.169-2.208-1.597-2.208" fill="#FFFAFC" mask="url(#b)"/><path d="M278.19 138.554c1.029 0 1.872-.805 1.872-1.787 0-.984-.843-1.788-1.873-1.788H143.975c-1.03 0-1.873.804-1.873 1.788 0 .982.843 1.787 1.873 1.787h134.214z" fill="#51424E" mask="url(#b)"/></g></g></svg>