<svg width="120" height="120" viewBox="0 0 120 120" xmlns="http://www.w3.org/2000/svg"><g fill="none" fill-rule="evenodd"><path d="M31.67 33.156c13.829-8.223 6.18-22.024 6.18-22.024h43.86s7.65 13.801-6.178 22.024H31.67z" fill="#181818"/><path d="M71.277 11.23h-5.94s7.649 13.8-6.18 22.022h5.941c13.828-8.222 6.18-22.023 6.18-22.023m-16.859.001h-5.941s7.65 13.8-6.18 22.022h5.942c13.83-8.222 6.18-22.023 6.18-22.023" fill="#FBCC02"/><path d="M13.078 76.727C36.766 62.643 23.66 39 23.66 39H98.8s13.104 23.643-10.585 37.727H13.078z" fill="#181818"/><path d="M92.487 39h-11.68S93.91 62.642 70.223 76.726h11.68C105.59 62.642 92.486 39 92.486 39m-25.415 0h-11.68s13.104 23.642-10.584 37.726h11.68C80.174 62.642 67.07 39 67.07 39m-25.415 0h-11.68S43.078 62.642 19.39 76.726h11.68C54.76 62.642 41.656 39 41.656 39" fill="#FBCC02"/><path d="M83.05 9.59H35.257a.77.77 0 1 0 0 1.542H83.05a.772.772 0 0 0 0-1.542m16.954 27.869H20.746a.772.772 0 0 0 0 1.54h79.258a.771.771 0 1 0 0-1.54" fill="#B67C49"/><path d="M60.16.645c-.017-.86-.667-.86-.683 0l-1.73 87.89h4.143L60.16.645z" fill="#7F542E"/><path d="M102.377 74.67c-.56 0-1.014.454-1.014 1.013v5.134H82.111v-5.134a1.013 1.013 0 0 0-2.027 0v5.134h-19.25v-5.134a1.014 1.014 0 0 0-2.03 0v5.134H39.553v-5.134a1.013 1.013 0 0 0-2.028 0v5.134H18.274v-5.134a1.013 1.013 0 0 0-2.028 0v13.203h2.028V82.74h19.251v6.146h2.028V82.74h19.251v6.146h2.03V82.74h19.25v6.146h2.027V82.74h19.252v6.146h2.028V75.683c0-.559-.454-1.012-1.014-1.012m-37.52 45.217H54.78c-19.362 0-36.514-12.465-42.459-30.855h94.994c-5.944 18.39-23.096 30.855-42.458 30.855" fill="#926536"/><path d="M9.886 88.535a46.757 46.757 0 0 0 2.808 6.8h94.25a46.864 46.864 0 0 0 2.807-6.8H9.886z" fill="#B67C49"/><path d="M97.438 105.732c.476-.508.959-1.009 1.412-1.54H20.787c.453.531.936 1.032 1.411 1.54h75.24zm-14.232 10.183a44.326 44.326 0 0 0 3.092-1.54H33.339a44.326 44.326 0 0 0 3.092 1.54h46.775zm-65.119-15.274h83.462c.352-.509.705-1.017 1.037-1.54H17.051c.331.523.684 1.031 1.036 1.54m73.707 10.183a42.7 42.7 0 0 0 1.956-1.541H25.885a44.33 44.33 0 0 0 1.958 1.54h63.95z" fill="#7F542E"/><path d="M91.588 102.925c0 2.243-1.82 4.06-4.068 4.06a4.064 4.064 0 0 1-4.068-4.06 4.065 4.065 0 0 1 4.068-4.06 4.064 4.064 0 0 1 4.068 4.06" fill="#181818"/><path d="M87.52 99.88a3.051 3.051 0 0 0-3.05 3.045 3.052 3.052 0 0 0 6.102 0 3.051 3.051 0 0 0-3.051-3.044m0 8.12c-2.804 0-5.085-2.278-5.085-5.076 0-2.798 2.28-5.075 5.085-5.075 2.803 0 5.084 2.277 5.084 5.075S90.324 108 87.521 108" fill="#B67C49"/></g></svg>