<svg xmlns="http://www.w3.org/2000/svg" width="101.113" height="130.617" viewBox="0.111 -3.535 101.113 130.617"><defs><style/></defs><g id="ID0.8892158004455268" transform="translate(.25 -.4) scale(.77378)"><path id="R_Arm_1_" fill="#1B75BB" stroke="#000" d="M88.942 106.658c-.758 1.641.812 4.105 1.195 4.678.863 1.299 3.77 2.385 3.77 2.385s10.5 3 10.25 6l-.137.279c-2.205.613-6.09 1.697-10.428 2.914-6.621 1.855-11.209 14.193.619 15.451 11.75 1.25 19.719-16.895 19.719-22.145s-20.953-11.055-20.953-11.055c-.123-.006-.17.43-.17.43s-2.844.874-3.865 1.063"/><path id="R_Leg_1_" fill="#1B75BB" stroke="#000" d="M79.206 156.057c-.078 3.557.79 8.695 4.272 8.538 2.29-.103 1.893-5.058 2.054-10.12a28.735 28.735 0 0 1 1.284-7.554s.112-.267.112-.363c.001-2.253-1.247-3.012-2.832-3.249-1.988-.298-2.229 1.422-2.239 1.466-.408 1.748-1.104 3.945-1.104 3.945-.938 3.077-1.5 5.26-1.547 7.337h0z"/><path id="L_Leg" fill="#1B75BB" stroke="#000" d="M69.856 156.057c-.077 3.557.79 8.695 4.272 8.538 2.291-.103 1.893-5.058 2.055-10.12a28.701 28.701 0 0 1 1.283-7.554s.112-.267.112-.363c.001-2.253-1.247-3.012-2.832-3.249-1.987-.298-2.228 1.422-2.238 1.466-.409 1.748-1.104 3.945-1.104 3.945-.939 3.077-1.5 5.26-1.548 7.337h0z"/><g id="Body_1_" stroke="#000"><path id="Body" fill="#1B75BB" d="M84.768 146.56a23.07 23.07 0 0 0 4.385-.908c10.866-3.341 6.688-17.343 5.225-22.778-.589-2.195-1.146-5.416-1.602-8.475l-.082-.193-.875-7.385c-.492-.624-.228-2.074-1.913-2.953-1.993-1.039-6.232-1.643-8.361-1.645-7.829-.008-11.349 2.792-11.349 2.792-1.309 2.871.008 4.214-2.18 9.019-3.986 8.756-3.251 10.09-4.192 10.291-.138.029-.11 1.919-.32 1.958-.004.667.037 2.604.571 5.159 0 0 1.461 6.062 3.973 8.986a14.61 14.61 0 0 0 1.795 1.729s2.129 1.714 4.107 2.663c1.979.948 5.379 1.424 6.962 1.661 1.584.237 3.856.077 3.856.079h0z"/><path id="Belly" fill="#D0D2D3" d="M96.364 135.874c.319-4.81-1.206-10.054-1.977-12.914-.786-2.906-1.506-7.604-2.012-11.351l-.227-.186c-1.137-1.003-2.09-2.92-4.757-2.443-5.84 1.051-8.467 6.669-8.467 14.891 0 8.225 4.533 15.562 9.205 15.562 2.339 0 6.638-.682 8.17-3.378l.065-.181h0z"/></g><path id="L_Arm_1_" fill="#1B75BB" stroke="#000" d="M75.444 106.722c.758 1.639-.813 4.105-1.195 4.676-.866 1.297-3.77 2.383-3.77 2.383s-10.5 3-10.25 6l.137.281c2.205.615 6.089 1.699 10.426 2.914 6.622 1.855 11.209 14.195-.619 15.453-11.75 1.25-19.717-16.898-19.717-22.148s20.953-11.053 20.953-11.053c.123-.004.17.428.17.428s2.843.874 3.865 1.066"/><g id="Head_1_"><path id="Head" fill="#1B75BB" stroke="#000" stroke-linecap="round" stroke-linejoin="round" d="M124.042 69.899c.118.421 2.93 10.708-4.177 20.235-4.814 6.448-13.201 14.688-34.633 16.537-10.494.903-19.835-1.804-26.55-5.941.099.061.192.125.292.185l-.096-.058c-6.239-2.817-14.15-7.175-19.403-14.47 0 0-2.827 5.898-15.502 6.144C7.956 92.847 1.49 83.968.662 77.275c-.841-6.789 1.233-14.571 14.769-16.867 11.332-1.917 17.492 1.506 19.196 2.669l.132.151c1.249-3.863 3.331-5.642 3.331-5.642l-.171-.061c-4.77-1.79-11.046-4.649-18.726-9.217C3.116 38.743 3.275 21.87 7.722 15.803c4.603-6.272 18.239-14.152 37.502-3.425 10.84 6.032 16.326 15.323 19.053 22.286l.576-.228c.743-.428 1.553-.85 2.42-1.249l.113-.198c-4.225-9.926-10.603-30.336 7.556-31.911C92.212-.42 90.726 20.39 89.333 29.238l.136.021c2.231.157 4.497.484 6.762 1.016-.05-.104-2.626-5.51.682-13.385 2.592-6.164 14.202-20.942 23.633-13.09 9.949 8.286 4.548 17.658-.63 23.406-4.486 4.977-9.646 7.011-11.987 7.909l.066.042c.576.362 1.152.739 1.721 1.141 15.835 11.144 14.477 34.216 14.477 34.216l-.035-.164a7.867 7.867 0 0 0-.116-.451h0zm-18.491-36.153a38.553 38.553 0 0 1 2.803 1.634m-19.065-5.585a72.869 72.869 0 0 1-.692 3.312m-18.688 5.23a70.794 70.794 0 0 1-2.598-5.529M33.869 70.405c-.101-2.219.106-4.459.714-6.599m-15.13 28.433"/><path id="Hair1" fill="#F1F1F2" stroke="#000" d="M19.535 92.367C6.743 91.127 1.409 83.313.662 77.275c-.841-6.789 1.233-14.571 14.769-16.867a39.86 39.86 0 0 1 5.439-.557l.128.008c-5.396 10.436-5.906 22.71-1.545 32.379l.082.129h0z"/><path id="Hair2" fill="#F1F1F2" stroke="#000" d="M16.693 46.672C3.146 36.924 3.519 21.537 7.721 15.802 12.105 9.826 24.7 2.391 42.543 10.985l-.179.059c-10.241 3.206-19.101 11.271-23.26 22.527a37.996 37.996 0 0 0-2.366 13.053l-.045.048h0z"/><path id="Hair3" fill="#F1F1F2" stroke="#000" d="M62.897 17.055c-.754-7.847 1.537-15.069 12.047-15.979 10.604-.918 14.138 6.572 14.962 14.54l-.081-.082c-8.862-3.438-18.543-2.7-26.885 1.397l-.043.124h0z"/><path id="Hair4" fill="#F1F1F2" stroke="#000" d="M110.503 2.453c3.299-1.377 6.801-1.354 10.042 1.347 6.372 5.311 6.448 11.064 4.315 16.026l-.108.008c-2.595-7.163-7.478-13.361-14.264-17.345l.015-.036h0z"/><path id="Face_1_" fill="#E6E7E8" stroke="#000" d="M110.153 55.871c-6.062-4.423-15.547-16.909-15.547-16.909s-.249 13.17-18.238 24.257c-17.991 11.093-27.388 9.4-28.427 22.365-.782 9.74 15.863 22.932 37.292 21.088 21.432-1.85 29.818-10.089 34.633-16.537 7.256-9.728 4.171-20.255 4.171-20.255-2.086-7.272-5.163-7.658-13.884-14.009h0z"/><g id="L_Eye"><path id="Inner_Eye_1_" fill="#FFF" d="M80.352 74.813a1.273 1.273 0 0 0-1.231-1.002c-.093 0-.185.011-.276.03-.337.072-.619.27-.804.554a1.272 1.272 0 0 0 1.337 1.923 1.271 1.271 0 0 0 .974-1.505z"/><path id="Outer_Eye_1_" fill="#231F20" d="M82.3 74.395c-.374-1.724-2.169-2.874-3.881-2.499a3.249 3.249 0 0 0-2.054 1.423 3.211 3.211 0 0 0-.438 2.452 3.267 3.267 0 0 0 3.181 2.569 3.268 3.268 0 0 0 3.192-3.945zm-4.426.954a1.244 1.244 0 0 1 .167-.953c.185-.285.467-.482.804-.554a1.272 1.272 0 0 1 1.507.972 1.27 1.27 0 0 1-.975 1.505 1.272 1.272 0 0 1-1.503-.97z"/></g><g id="R_Eye"><path id="Inner_Eye" fill="#FFF" d="M111.285 72.907a1.271 1.271 0 0 0-2.311-.418 1.274 1.274 0 0 0 1.337 1.924 1.274 1.274 0 0 0 .974-1.506z"/><path id="Outer_Eye" fill="#231F20" d="M113.233 72.487c-.373-1.724-2.168-2.874-3.88-2.499a3.244 3.244 0 0 0-2.055 1.423 3.216 3.216 0 0 0-.438 2.452 3.267 3.267 0 0 0 3.871 2.496 3.267 3.267 0 0 0 2.502-3.872zm-4.427.954a1.248 1.248 0 0 1 .167-.953 1.272 1.272 0 0 1 1.08-.584 1.27 1.27 0 0 1 1.231 1.002 1.271 1.271 0 0 1-.975 1.505 1.272 1.272 0 0 1-1.503-.97z"/></g><path id="Mouth" fill="none" stroke="#231F20" stroke-linecap="round" d="M80.305 84.797s5.504-3.543 15.801-5.047c10.301-1.504 15.082 2.159 15.082 2.159"/><path id="R_Eyebrow" fill="#231F20" d="M107.524 73.627a1.801 1.801 0 0 1-.745-3.44l5.75-2.602a1.801 1.801 0 0 1 2.383.896 1.802 1.802 0 0 1-.898 2.383l-5.75 2.602c-.24.11-.492.161-.74.161z"/><path id="L_Eyebrow" fill="#231F20" d="M81.374 75.431a1.77 1.77 0 0 1-.664-.128l-5.859-2.328a1.8 1.8 0 0 1 1.328-3.347l5.859 2.328a1.8 1.8 0 0 1-.664 3.475z"/></g></g></svg>