<svg xmlns="http://www.w3.org/2000/svg" width="64.384" height="91.961" viewBox="0.562 -5.912 64.384 91.961"><defs><style/></defs><g id="ID0.9514507986605167"><path id="ID0.33620395278558135" fill="#FF9400" d="M329 416c2.883 4.45 9.146 5.521 9 13-2.503-.17-3.131 1.536-4 3-5.109-.224-4.443-6.224-8-8-10.647-1.143-10.693 5.549-18 6-11.419.705-23.618-9.873-27-20-5.875-17.593 2.198-45.075 14-53 7.63-5.124 22.071-6.381 31 0 6.893 4.925 11.124 20.814 11 32-.131 11.743-2.776 17.906-8 27zm-20 4c2.651-.356 5.868-2.068 7-6-.979-3.688-4.379-4.954-6-8 6.223-7.67 7.712 1.503 15 3 5.747-12.67 2.689-33.299-3-45-36.375-22.637-44.531 60.237-13 56z" transform="translate(-226.85 -294.5) scale(.8454)"/><path id="ID0.25073340628296137" d="M322 364c5.689 11.701 8.747 32.33 3 45-7.288-1.497-8.777-10.67-15-3 1.621 3.046 5.021 4.312 6 8-1.132 3.932-4.349 5.644-7 6-31.531 4.237-23.375-78.637 13-56zm-15 51c-6.829-4.285 6.356-24.092 13-15-.789-15.732-3.705-32.899-21-29-9.63 12.405-8.639 42.665 8 44z" transform="translate(-226.85 -294.5) scale(.8454)"/><path id="ID0.5218712696805596" d="M344 427v9c-5.124.543-6.415 4.918-10 7h-5c-.939-4.394-4.312-6.355-8-8-22.445 15.141-49.851-4.257-52-28v-19c6.474-19.526 18.254-33.745 39-39h3c29.955-.39 34.158 41.866 23 65 2.985 4.682 5.775 9.558 10 13zm-7-38c.124-11.186-4.107-27.075-11-32-8.929-6.381-23.37-5.124-31 0-11.802 7.925-19.875 35.407-14 53 3.382 10.127 15.581 20.705 27 20 7.307-.451 7.353-7.143 18-6 3.557 1.776 2.891 7.776 8 8 .869-1.464 1.497-3.17 4-3 .146-7.479-6.117-8.55-9-13 5.224-9.094 7.869-15.257 8-27z" transform="translate(-226.85 -294.5) scale(.8454)"/></g></svg>