<svg width="116" height="156" viewBox="0 0 116 156" xmlns="http://www.w3.org/2000/svg"><g fill="none"><path d="M54.537 42.75c.15.85-.252 1.5-.905 2.05-1.71 1.5-3.419 2.95-5.53 3.9-2.615 1.2-5.179 2.45-7.893 3.35-2.564.85-5.128 1.6-7.742 1.95-3.47.5-6.988.65-10.507 0-1.106-.2-2.162-.45-3.168-.85-.553-.25-.854-.55-.955-1.05-.251-1.3-.503-2.6-.754-3.95-.05-.2-.05-.4 0-.55.352-.55.15-1.05 0-1.6-.804-2.9-1.609-5.85-2.413-8.75-.402-1.5-.804-3-1.207-4.6-.653-.25-1.055-.75-1.206-1.5-.252-1.05-.503-2.15-.905-3.15-.201-.65-.05-1.05.352-1.5.653-.7 1.407-1.3 2.212-1.9 2.463-1.7 5.128-2.95 7.842-4.05 4.475-1.85 9.15-3.2 13.926-4.15 2.765-.55 5.53-.95 8.396-.9.402 0 .854 0 1.257.05 1.458.2 2.362 1 2.714 2.4.252.95.553 1.85.604 2.8 0 .3.1.6.15.95-.2.3-.351.55-.553.9.604 2.4 1.257 4.85 1.86 7.25.805.35 1.559.2 2.263.1.905-.1 1.86-.05 2.765-.05s1.76-.35 2.614-.25c.855.1 1.66.2 2.463.15 1.157-.05 2.313-.1 3.52-.15.452-1.9.854-3.75 1.307-5.65-.503-.5-.604-1.05-.402-1.75.301-1.1.502-2.25.703-3.35.1-.55.453-.9.956-1.1.854-.35 1.76-.55 2.664-.65 3.268-.4 6.536-.2 9.803.15 4.173.4 8.295 1.25 12.368 2.35 3.016.8 5.982 1.85 8.797 3.3.352.2.754.4 1.106.6 1.257.8 1.81 1.95 1.458 3.4-.15.8-.402 1.6-.603 2.4-.05.2-.201.4-.251.65-.05.65-.503.95-1.056 1.15-.503 1.25-.704 2.55-1.006 3.85-.653 2.7-1.307 5.35-1.96 8-.151.55-.252 1.05.2 1.5.202.2.202.5.152.8-.302 1.5-.553 3-.956 4.45-.15.6-.502.95-1.055 1.15-.654.2-1.358.3-2.011.45-1.76.4-3.52.6-5.33.55-3.116-.1-6.183-.3-9.25-.85-2.211-.4-4.423-.9-6.585-1.6-3.77-1.3-7.29-3.05-10.407-5.6-.603-.5-1.106-1.1-1.659-1.65-.402-.4-.503-.8-.352-1.25.402-1.35.855-2.7 1.307-4.05.05-.1.05-.2.101-.25.855-1.3.855-1.3 1.056-2.65-1.157-.1-2.263-.2-3.47 0-.2 1.5-.05 2.95-.1 4.4-.05 1.45-.05 2.95 0 4.4 0 1.4.1 2.85.05 4.25a63.09 63.09 0 0 0 0 4.35c.101.2.302.3.453.3 1.458 0 2.916.3 4.324.6 2.815.6 5.429 1.7 7.993 3 4.072 2.05 7.44 4.9 10.256 8.4 1.307 1.6 2.161 3.4 2.865 5.3.201.45.302.95.503 1.4.905 1.95 1.307 4.1 1.81 6.2.754 3.15 1.307 6.35 1.71 9.6.351 2.75.3 5.5-.152 8.2-.653 3.9-1.91 7.65-3.971 11.1-1.006 1.65-2.011 3.3-3.318 4.75-2.816 3.05-5.933 5.75-9.602 7.75-2.363 1.25-4.827 2.15-7.44 2.9-1.61.45-3.269.55-4.877.8-2.363.4-4.676.2-7.039-.05-2.111-.2-4.172-.7-6.183-1.35a34.03 34.03 0 0 1-6.184-2.7c-2.061-1.15-3.921-2.55-5.68-4.15-3.771-3.35-6.486-7.5-8.447-12.1-.603-1.4-1.156-2.9-1.407-4.45-.201-1.25-.604-2.5-.704-3.75-.151-1.95-.352-3.95-.151-5.9.201-2.1.503-4.2.905-6.25.553-2.85 1.207-5.65 1.86-8.45.503-2.2 1.408-4.25 2.614-6.2 1.157-1.9 2.413-3.7 4.022-5.25 1.86-1.8 3.82-3.45 6.033-4.8 2.765-1.7 5.731-2.95 8.798-3.8 1.81-.5 3.67-.85 5.58-.95.302 0 .654-.05.955-.1.302-.25.302-.6.302-.9 0-4.55-.05-9.1-.05-13.65 0-.95.15-1.95-.201-2.95-1.257 0-2.414-.2-3.67 0 .25 1.05.502 2.1.754 3.1.05.25.1.55.452.65.603.15.754.6.905 1.1.402 1.35.804 2.65 1.207 3.95zm-30.818-11.6c1.257-.1 2.464-.4 3.62-.8.854-.1 1.659-.25 2.463-.6h.252c3.267-.95 6.535-1.95 9.652-3.3 1.96-.9 3.972-1.75 5.731-3 .855-.6 1.71-1.2 2.363-2.2-.201-.85-.402-1.8-.654-2.85-.553.45-1.005.75-1.357 1.15-.754.7-1.558 1.25-2.463 1.75-3.268 1.75-6.687 3.3-10.256 4.4l-4.223 1.35c-.855.1-1.659.3-2.463.6-1.157.15-2.263.4-3.369.8-.553 0-1.106 0-1.608.25-.503.05-1.006 0-1.509.1-.754.15-1.558.2-2.312.2-.402 0-.805.05-1.257.05-.402 0-.804.05-1.257.05-.402 0-.804-.05-1.257-.1-.402-.05-.804-.1-1.257-.15.101.8.403 1.5.654 2.15.1.35.402.6.804.7.352.1.704.1 1.106.15 1.961.25 3.972 0 5.933-.1.804-.05 1.659-.1 2.413-.5l.1.05.151-.15zm24.986 5.5c.603 2.6 1.005 3.7 1.458 4.05.05-.05.1-.05.1-.1-.301-1.55-.653-3.05-1.256-4.55-.151-1.05-.403-2.05-1.308-2.75a1.1 1.1 0 0 1-.402-.7c-.301-1.3.05-2.05 1.358-2.6.15-.05.251-.15.301-.35-.301-1.25-.704-2.55-.905-3.9-.1-.7-.352-1.4-.553-2.1 0-.05-.05-.1-.1-.1s-.1 0-.201-.05c-.402.35-.855.7-1.257 1.05 0 .15-.05.2 0 .25.553.95.603 2 .704 3.05.05.75-.1 1.55-.704 2.15-.201.2-.402.35-.453.65.302 1.45.855 2.8 1.056 4.25.1.6.302 1.15.553 1.7.1.3.302.5.654.55.1-.2.05-.3 0-.45-.201-.55-.402-1.1-.553-1.7-.1-.35.05-.5.352-.7.754.6.804 1.55 1.156 2.35zm28.857-7.15c-.704-.3-1.458-.45-2.212-.6-.704-.35-1.408-.5-2.112-.7-.402.3-.352.65-.452.95-.151.5-.252.95-.553 1.4-.553.75-1.257 1.3-2.263 1.35-.351 1.35-.703 2.65-1.005 3.9 1.357 1.95 1.307 4.05.452 6.15.755.55 1.509.8 2.313 1 .654.25 1.257.65 1.96.7.855.4 1.81.55 2.715.75 1.358.4 2.765.75 4.173.9.05.05.151.15.201.15 1.508.2 3.017.45 4.525.6.955.1 1.91.1 2.815.15.352-.45.402-.9.553-1.35.453-1.6 1.257-2.95 2.866-3.65.452-.2.603-.5.704-.95.301-1.25.653-2.45.955-3.7-1.056-1.5-1.006-1-1.006-3.3 0-.4.151-.8-.05-1.2-.352-.3-.804-.25-1.207-.25-2.161-.1-4.323-.4-6.435-.8-.25-.05-.553-.05-.804-.05-.1-.05-.201-.2-.352-.2-1.407-.1-2.765-.55-4.173-.8-.553-.15-1.005-.65-1.608-.45zm1.407-3.9c-.2-.2-.502-.2-.754-.3-4.223-1.1-8.295-2.45-11.914-4.95-.05-.05-.151 0-.252-.05-.1.45-.1.9-.251 1.35-.352 1 0 1.7.854 2.2.202.1.403.25.604.35 1.257.75 2.614 1.4 3.921 2 2.212 1 4.575 1.65 6.938 2.15.905.3 1.81.65 2.765.65 1.407.45 2.865.65 4.323.9 4.173.7 8.396 1.2 12.619.75 1.005-.1 2.01-.3 2.966-.8.201-.75.452-1.55.654-2.35.05-.1.05-.25-.101-.35-.1-.15-.251-.05-.352 0-1.257.25-2.463.65-3.77.7-3.972.1-7.893-.2-11.815-.95-1.307-.25-2.614-.45-3.92-.7-.856-.3-1.66-.55-2.515-.6zm-51.882 6.1c-.804.05-1.558.2-2.262.5-.754 0-1.458.1-2.162.45.403 1.75.754 3.45-1.055 4.65.502 2.15 1.005 4.25 1.458 6.25 1.86 1 2.865 2.55 3.368 5.15 1.206.2 1.408.15 2.363-.15.754-.05 1.558.1 2.262-.3.855 0 1.659-.2 2.463-.55 1.458-.2 2.816-.6 4.173-1.1h.402c2.313-.7 4.475-1.6 6.687-2.6.1-.05.2-.2.251-.3-.654-3.9-.654-4.1.905-6.4-.503-2.25-1.056-4.5-1.559-6.8-1.91-.35-2.312-2.05-3.016-3.5-.452.2-.905.35-1.307.55-1.66.7-3.318 1.35-5.027 1.9-.503.15-1.056.25-1.509.6-.2 0-.502-.05-.653.05-1.307.55-2.715.75-4.022 1.2-.352.05-.704.1-1.106.15-.352-.05-.553.05-.654.25zm6.938 20.7c1.156-.15 2.212-.4 3.268-.85.1 0 .201.05.251 0 4.374-1.15 8.547-2.85 12.418-5.25 1.307-.85 2.463-1.9 3.469-3.1-.403-1.1-.503-2.25-.956-3.25-.251.05-.402.15-.502.3-1.157 1.5-2.665 2.55-4.223 3.45-2.011 1.2-4.173 2.15-6.385 2.95-1.81.65-3.62 1.35-5.43 1.9-.854.05-1.658.25-2.463.55l-1.206.15-2.715.45c-2.363.35-4.676.25-7.038.1-1.207-.1-2.414-.2-3.52-.55a.311.311 0 0 0-.351.05c-.05.9.1 1.8.603 2.9.754.4 1.609.6 2.463.75 3.67.55 7.34.6 11.01-.1.352-.2.905-.1 1.307-.45zm40.772-3.6c.804.3 1.608.5 2.463.6.402.35.855.25 1.307.35 4.173.95 8.396 1.25 12.67 1.05 1.558-.1 3.066-.55 4.574-1.05.1-.05.201-.15.251-.25.201-.9.402-1.75.604-2.6.05-.25.2-.55-.151-.75-1.207.65-2.564.9-3.922 1.1-2.915.4-5.781.15-8.697-.2-1.76-.2-3.469-.45-5.178-.7-.955-.4-1.96-.65-3.016-.85-.352-.3-.855-.35-1.307-.45-1.76-.55-3.52-1.1-5.128-2-2.263-1.2-4.625-2.35-6.486-4.15-.15-.15-.351-.3-.653-.15-.1.35-.201.75-.352 1.15-.503 1.75-.503 1.75.855 2.95.05.05.15.1.2.15 3.52 2.7 7.441 4.6 11.664 5.8h.302zM57.05 120.45c2.866 0 6.083-.45 9.25-1.5 2.766-.9 5.43-2.05 7.843-3.7 1.408-.95 2.765-1.95 4.022-3.15 2.011-1.95 3.871-4.05 5.329-6.45.855-1.45 1.71-2.95 2.313-4.5.854-2.35 1.608-4.75 1.96-7.25.453-3.1.402-6.1-.05-9.15-.302-2.15-.804-4.2-1.559-6.25-.854-2.4-2.262-4.5-3.418-6.7-1.207-1.35-2.262-2.85-3.52-4.15A30.894 30.894 0 0 0 71.63 62c-2.464-1.35-5.179-2.15-7.893-2.95-.654-.2-1.307-.1-1.91-.25-1.76-.45-3.57-.4-5.33-.45-2.714 0-5.43.4-8.043 1.1-1.458.4-2.916.85-4.274 1.45-.804.35-1.508.8-2.312 1.2-2.514 1.3-4.776 2.9-6.787 4.9a76.94 76.94 0 0 0-2.011 2.05c-.855.9-1.408 2.05-2.313 2.9-.754 1.6-1.76 3-2.513 4.55-1.307 2.75-2.061 5.7-2.464 8.7-.251 1.7-.352 3.45-.301 5.2.05 1.9.301 3.75.653 5.6.352 1.9 1.056 3.8 1.81 5.6 1.006 2.35 2.262 4.6 3.871 6.6 1.76 2.2 3.67 4.25 5.932 5.9 1.509 1.1 3.117 2.2 4.776 3 2.212 1.05 4.475 1.95 6.888 2.45 2.413.55 4.776.95 7.641.9zm18.5-57.7c-.3-1.5-.552-2.7-.804-3.9a.962.962 0 0 0-.553-.75c-1.106-.75-2.212-1.45-3.468-2-1.86-.85-3.77-1.5-5.681-2.1-1.559-.5-3.218-.7-4.877-.95-.251-.05-.553-.15-.804.1-.1.3-.252.65.2.9.202.1.403.25.554.4.452.5.352 1.05-.15 1.45-.353.25-.705.4-1.157.4-1.056 0-2.112 0-3.167-.05-.403 0-.805-.15-1.207-.3-.201-.1-.352-.25-.503-.45-.301-.35-.2-.8.151-1.1.302-.2.704-.25.955-.55.1-.3.151-.6-.2-.9h-.503a25.9 25.9 0 0 0-5.832 1c-1.408.4-2.815.8-4.173 1.4-.905.4-1.659.9-2.564 1.3-.854.35-1.558.95-2.363 1.4-.301.15-.553.4-.603.75-.15 1.25-.653 2.45-.704 3.9 5.681-3.8 11.865-5.8 18.601-5.8 6.737-.05 13.021 1.85 18.853 5.85zm-6.434-42c.251.4.653.5 1.005.65 1.76.8 3.52 1.55 5.43 2.05 3.67 1.05 7.39 1.9 11.21 2.5 3.067.5 6.134.75 9.251.75.955 0 1.91-.1 2.866-.3-.201-.35-.503-.45-.805-.6-1.96-.95-3.971-1.8-6.033-2.4-3.217-1-6.485-1.7-9.803-2.3a52.69 52.69 0 0 0-11.563-.7c-.553.05-1.055.05-1.558.35zM44.482 19.1c-2.162-.2-4.273 0-6.334.35-4.776.75-9.351 2.1-13.876 3.75-2.815 1.05-5.48 2.45-7.993 4.05-.201.15-.553.2-.503.65.15.05.352.1.503.05 1.81-.05 3.57-.15 5.379-.5 3.016-.55 5.932-1.3 8.848-2.15 3.77-1.1 7.44-2.5 10.96-4.25 1.055-.5 2.06-1.15 3.016-1.95zm-30.315 8.7c.704-.75 1.508-1.4 2.413-1.95 2.715-1.7 5.58-3 8.597-4.1 3.268-1.15 6.636-2 10.004-2.75 2.816-.65 5.631-1 8.497-1.1.603 0 1.206.05 1.81.05.603 0 .703-.05.955-.9-.754-.45-1.61-.55-2.514-.55-2.363 0-4.726.25-7.038.7-4.173.8-8.245 1.95-12.267 3.35-3.217 1.15-6.334 2.5-9.3 4.25-.654.35-1.257.8-1.81 1.25-.453.3-.855.7-.956 1.35.453.45 1.006.5 1.61.4zm53.642-7.75c.653-.15 1.257-.4 1.91-.45 3.268-.4 6.536-.3 9.803.1 2.916.35 5.732.95 8.547 1.65 4.273 1.05 8.446 2.3 12.267 4.6.502.3.854.05 1.156-.35-.1-.45-.402-.65-.704-.9-.654-.55-1.357-.95-2.111-1.3a45.29 45.29 0 0 0-6.737-2.5c-4.072-1.1-8.245-2-12.468-2.5-2.966-.35-5.982-.55-8.999-.4-.804.05-1.659.1-2.463.3-.503.1-1.106.2-1.307.8.251.45.653.75 1.106.95zM56.196 54.5c1.76.3 1.91.15 1.96-1.3v-.15c0-3 .05-5.95.05-8.95V31.85c0-.3 0-.65-.25-.9-.805-.3-1.107-.3-1.408-.1-.453.35-.352.8-.352 1.25v22.4zm-38.66-21.35c-.604-.1-1.056-.2-1.509-.25-.452-.05-.905-.2-1.407.05-.1.6.2 1.15.352 1.7.653 1.95 1.256 3.9 1.76 5.9.552 2.3 1.155 4.65 1.708 6.95.101.35.252.55.704.4-.251-1.1-.502-2.1-.704-3.1-.2-1-.703-1.95-.502-3.05.452.05.603.4.704.65.301 1.05.653 2.1.854 3.2.151.9.402 1.8.603 2.7.05.15.151.2.403.15-.1-.5-.151-1.05-.252-1.55-.2-1.05-.452-2.05-.653-3.1-.05-.35-.151-.7.2-1.05.855.6.554 1.65 1.057 2.4.904-.75 1.106-1.55.703-2.6-.251-.6-.251-1.25-.402-1.85-.301-1.1-.452-2.25-.905-3.25-1.257-.35-1.307-.4-1.91-1.45-.453-.95-.654-1.9-.804-2.85zm20.008 26.5c-.301-.05-.452.05-.603.15-.251.15-.452.3-.654.5-.754.7-1.457 1.5-2.262 2.2-1.357 1.15-2.312 2.6-3.268 4-1.357 1.95-1.96 4.2-2.463 6.5.352 0 .402-.25.503-.45 1.357-2 2.765-4 4.524-5.7.855-.85 1.76-1.6 2.615-2.4.502-.45.854-.9.904-1.6.05-.6.302-1.15.403-1.75.1-.5.2-1 .301-1.45zM85.103 73c-.453-2.2-.905-4.3-2.061-6.15-.352-.6-.805-1.1-1.207-1.65-1.307-1.95-3.067-3.5-4.776-5.1-.302-.25-.603-.5-1.156-.5.251 1.1.603 2.1.754 3.15.1.75.452 1.25 1.005 1.7.855.75 1.71 1.5 2.514 2.3 1.357 1.35 2.564 2.9 3.67 4.45.402.65.855 1.25 1.257 1.8zM68.915 31.35c-.955-.5-1.056-1.35-1.056-2.35s.352-1.85.452-2.85c-.653-.4-1.256-.85-1.86-1.25-.2-.15-.402-.2-.754-.05-.15 1.5-.754 3-.704 4.6.252.2.453.35.604.5 1.106 1.2 1.106 2.1.15 3.4-.15.2-.351.4-.402.7-.352 1.35-.703 2.75-1.055 4.1-.05.2-.151.4.15.6.403-.45.453-1 .604-1.5.352-1.05.603-2.1.955-3.15.1-.25.201-.5.653-.45.403.9-.402 1.7-.301 2.6.2-.1.301-.25.503-.3.904-.2 1.206-.85 1.357-1.65.15-.95.452-1.95.704-2.95zm25.388 5.55c-.302 1.3-.553 2.5-.805 3.7-.05.3 0 .55.352.7.302-.35.352-.8.402-1.25 0-.35.101-.65.252-.9.1-.2.251-.25.452-.2.201.25.151.5.151.8 0 1.45-.402 2.9-.704 4.3-.1.55-.2 1.05-.05 1.6.201-.35.302-.75.402-1.15.402-1.7.805-3.4 1.156-5.1.101-.45.302-.7.755-.75.402.25.301.6.25.9-.401 1.7-.803 3.35-1.206 5.05-.05.15-.1.35.201.5.704-1.4.855-2.95 1.257-4.45.453-1.55.754-3.1 1.106-4.65.302-1.5 1.006-2.9 1.056-4.5-.653.1-1.156.2-1.659.3-.251.55-.251 1.05-.402 1.5-.453 1.6-1.006 3.15-2.966 3.6zm-39.364-4.1c0-.65.251-1.2.1-1.8-1.508-.25-5.43-.15-6.636.15-.2.4-.352.8-.2 1.2.401.45.854.45 1.306.45h2.464c1.005.05 1.91.15 2.966 0zm10.205 0c.453-1.05.453-1.05.05-1.85-1.508-.4-3.066.05-4.625-.05-.402-.05-.804-.05-1.256.2-.151.55-.101 1.1.1 1.7 1.71.05 3.318.05 4.977.1.252-.05.453-.1.754-.1zM46.04 43.25c1.006-.4 1.86-.95 2.715-1.55.1-1.25-.352-2.3-1.106-3.2-.352-.45-.754-.45-1.206-.1-.553.55-.805 1.2-.855 1.95 0 1 .1 1.95.452 2.9zm43.386 3c1.106.05 2.162-.1 3.218-.2.653-1.1.704-2.25.452-3.45-.05-.35-.352-.55-.704-.5-.653 0-1.106.35-1.508.8-.854.9-1.206 2-1.458 3.35zM25.177 48.8c-.201-1.1-.503-2.05-1.106-2.85-.201-.3-.402-.6-.704-.85-.352-.35-.905-.25-1.156.2a3.14 3.14 0 0 0-.402 1.15c-.05.75 0 1.55.15 2.35h3.218zm40.37-8.95c.904.65 1.759 1.15 2.714 1.55.553-.75.453-1.6.503-2.4.05-.6 0-1.2-.251-1.75-.202-.5-.654-.65-1.106-.35-.553.3-.905.8-1.157 1.3-.251.5-.452 1-.704 1.65zm27.8-7.9c-.2.75-.15 1.4-.15 2 0 .25.1.55.2.8.453 1.1 1.207 1.2 1.961.25.654-.85.855-1.85.905-3.05-1.005 0-1.91-.05-2.915 0zm-72.041.8c-.905.05-1.86 0-2.815.2.251 1 .452 1.95 1.005 2.75.352.55.855.7 1.559.5.502-.15.804-.5.804-1.15-.05-.8-.1-1.55-.553-2.3zm20.863-6.2c.352.7.553 1.25.855 1.75.251.45.603.8 1.056 1 .452.25.955.1 1.156-.35.251-.55.402-1.15.251-1.75-.15-.7-.15-1.45-.754-2-.854.45-1.659.85-2.564 1.35zm27.148 0c-.402 1-.503 1.95-.453 2.9.05.6.403 1 1.006 1.15.603.15 1.056-.05 1.357-.6.352-.7.704-1.45.604-2.3-.805-.4-1.61-.75-2.514-1.15zM51.067 39.8c.252-.7.202-1.1.101-1.5-.251-1.15-.553-2.3-.804-3.45-.05-.2-.15-.45-.201-.65-.05-.2-.201-.3-.453-.25-.05.1-.15.25-.1.35.452 1.8.754 3.55 1.458 5.5zm12.267-1.85c.101-.15.202-.2.252-.25.301-1.1.603-2.2.905-3.25 0-.1.05-.2 0-.25-.05-.05-.1-.15-.201-.2-.05 0-.201 0-.252.05-.1.1-.2.2-.251.3-.251 1-.553 2-.804 3-.05.15.05.4.351.6z" fill="#010001"/><path d="M54.537 42.75l-1.207-3.9c-.15-.5-.302-.95-.905-1.1-.352-.05-.352-.4-.452-.65-.252-1-.503-2.05-.754-3.1 1.256-.2 2.413-.05 3.67 0 .301 1 .15 1.95.2 2.95-.301.15-.25.45-.25.7V42c-.051.3 0 .55-.302.75z" fill="#FCFCFC"/><path d="M57.05 120.45c-2.865.05-5.278-.4-7.641-.85-2.413-.5-4.676-1.4-6.888-2.45-1.709-.8-3.267-1.9-4.776-3-2.312-1.65-4.172-3.7-5.932-5.9-1.609-2.05-2.865-4.25-3.87-6.6-.805-1.8-1.459-3.7-1.81-5.6-.353-1.85-.654-3.7-.654-5.6-.05-1.75.05-3.5.301-5.2.403-3 1.207-5.9 2.464-8.7.754-1.6 1.76-3 2.513-4.55.905-.85 1.408-2 2.313-2.9.653-.7 1.307-1.4 2.01-2.05 2.012-2 4.274-3.6 6.788-4.9.754-.4 1.508-.85 2.312-1.2 1.408-.6 2.816-1.05 4.274-1.45 2.614-.75 5.329-1.15 8.043-1.1 1.76 0 3.57-.05 5.33.45.603.15 1.256.05 1.91.25 2.664.8 5.379 1.6 7.893 2.95 2.765 1.5 5.328 3.35 7.59 5.65 1.308 1.3 2.313 2.8 3.52 4.15 1.206 2.2 2.564 4.35 3.418 6.7.755 2.05 1.257 4.1 1.559 6.25.452 3.05.503 6.1.05 9.15-.352 2.5-1.106 4.9-1.96 7.25-.604 1.6-1.458 3.05-2.313 4.5-1.458 2.4-3.268 4.55-5.329 6.45-1.207 1.15-2.614 2.15-4.022 3.15-2.413 1.65-5.027 2.8-7.842 3.7-3.168 1-6.335 1.45-9.25 1.45zM86.46 89.4c0-15.8-12.568-29.15-28.957-29.6-16.59-.45-30.617 12.75-30.617 29.7 0 7.7 2.715 14.55 8.094 20.15 5.933 6.25 13.373 9.45 21.97 9.35 16.087-.1 29.46-13 29.51-29.6z" fill="#CFE8E9"/><path d="M33.472 30.05c.453-.35 1.006-.4 1.508-.6 1.71-.55 3.369-1.2 5.028-1.9.402-.2.854-.35 1.307-.55.754 1.45 1.106 3.15 3.016 3.5.553 2.3 1.056 4.55 1.559 6.8-1.559 2.35-1.559 2.5-.905 6.4-.1.1-.151.25-.252.3-2.161 1-4.373 1.9-6.686 2.6-.15.05-.251 0-.402 0-.05-.25-.05-.45-.1-.7-.554-2.05-1.107-4.1-1.61-6.15-.603-2.35-1.256-4.7-1.81-7.1-.2-.85-.703-1.7-.653-2.6zm50.223.8c.251 0 .553 0 .804.05 2.112.45 4.274.75 6.435.8.403 0 .855-.05 1.207.25.201.4.05.8.05 1.2 0 2.3 0 1.8 1.006 3.3a98.574 98.574 0 0 0-.955 3.7c-.101.45-.252.75-.704.95-1.609.7-2.413 2.1-2.866 3.65-.15.45-.201.9-.553 1.35-.905-.05-1.86-.05-2.815-.15-1.508-.15-3.017-.4-4.525-.6-.1 0-.15-.1-.2-.15 0-.35 0-.7.1-1.1.251-.9.502-1.8.704-2.75.553-2.45 1.005-4.95 1.709-7.35.301-1 .653-2.05.603-3.15z" fill="#DD002B"/><path d="M75.55 62.75c-5.83-4-12.065-5.9-18.852-5.9-6.736 0-12.92 2-18.6 5.8.05-1.45.552-2.6.703-3.9.05-.35.302-.55.603-.75.805-.45 1.509-1.05 2.363-1.4.855-.35 1.66-.9 2.564-1.3 1.358-.6 2.765-1 4.173-1.4 1.91-.55 3.87-.85 5.832-1h.502c.352.25.302.55.201.9-.251.3-.653.35-.955.55-.402.25-.452.7-.15 1.1.15.15.301.35.502.45.402.15.804.3 1.207.3 1.055.05 2.111.05 3.167.05.452 0 .804-.1 1.156-.4.503-.4.603-.95.15-1.45-.15-.15-.351-.3-.552-.4-.453-.25-.302-.6-.201-.9.251-.25.553-.15.804-.1 1.66.2 3.268.4 4.877.95 1.91.65 3.82 1.3 5.68 2.1 1.207.55 2.363 1.3 3.47 2 .301.2.452.45.552.75.252 1.25.503 2.45.805 3.95z" fill="#DC002B"/><path d="M69.116 20.75c.452-.25.955-.25 1.508-.3 3.871-.2 7.742.05 11.563.7 3.318.6 6.586 1.3 9.803 2.3 2.061.65 4.072 1.45 6.033 2.4.302.15.603.2.804.6-.955.2-1.91.3-2.865.3-3.117-.05-6.184-.25-9.25-.75-3.771-.6-7.491-1.45-11.211-2.5-1.86-.55-3.67-1.25-5.43-2.05-.302-.2-.704-.35-.955-.7zM44.482 19.1c-.955.8-1.96 1.45-3.016 1.95-3.52 1.75-7.19 3.1-10.96 4.25-2.916.85-5.882 1.6-8.848 2.15-1.76.35-3.57.45-5.38.5-.15 0-.351-.05-.502-.05-.05-.4.251-.5.503-.65 2.564-1.6 5.178-3 7.993-4.05 4.525-1.7 9.1-3 13.876-3.75 2.06-.35 4.172-.55 6.334-.35z" fill="#F4E6D0"/><path d="M33.472 30.05c0 .95.453 1.75.654 2.65.553 2.4 1.206 4.75 1.81 7.1.553 2.05 1.106 4.1 1.608 6.15.05.2.05.45.1.7-1.357.5-2.764.95-4.172 1.1-.05-.95-.402-1.85-.704-2.75-.452-1.45-.955-2.95-1.307-4.4-.452-1.65-.653-3.35-1.257-5a8.576 8.576 0 0 1-.553-2.5c-.1-.75-.352-1.3-.854-1.8 1.357-.45 2.714-.65 4.022-1.2.15-.1.402-.05.653-.05zm50.223.8c.05 1.1-.302 2.15-.603 3.2-.704 2.45-1.156 4.9-1.71 7.35-.2.9-.452 1.85-.703 2.75-.1.35-.1.7-.1 1.1-1.459-.1-2.816-.5-4.174-.9 0-.25 0-.55.05-.8.353-1.6.654-3.2.906-4.8.301-1.75.854-3.4 1.256-5.15.252-1.25.805-2.45.604-3.75 1.407.25 2.715.7 4.172.8.101 0 .202.15.302.2z" fill="#F73D61"/><path d="M78.668 46.3c1.709.25 3.469.5 5.178.7 2.865.35 5.781.6 8.697.2 1.358-.2 2.715-.45 3.921-1.1.352.25.202.5.151.75-.2.85-.402 1.7-.603 2.6-.05.05-.15.2-.251.25-1.458.5-2.966 1-4.575 1.05-4.273.2-8.496-.05-12.67-1.05-.452-.1-.954 0-1.306-.35.251-.1.553.05.804-.25.252-.85.453-1.85.654-2.8zm8.144 2.4c.201.45.553.4.955.4H93.6c.251 0 .452 0 .704-.05.251-.1.502-.25.352-.65-.403-.25-.805-.1-1.207-.1h-5.68c-.403-.05-.805-.05-.956.4zm-50.876-.2c1.86-.55 3.62-1.25 5.429-1.9 2.212-.8 4.374-1.75 6.385-2.95 1.608-.95 3.117-2 4.223-3.45.1-.15.251-.25.502-.3.453 1.05.604 2.15.956 3.25-1.006 1.2-2.162 2.3-3.47 3.1-3.87 2.4-7.993 4.1-12.417 5.25h-.251c.1-1.1-.603-1.95-.654-2.95-.251 0-.502 0-.703-.05zm15.735-5.9c-.1 0-.201 0-.251.05-1.307.7-2.564 1.5-3.972 2.1-.855.35-1.659.9-2.514 1.4-.15.1-.15.35-.1.5.1.2.251.25.452.2.151-.05.352-.15.503-.2 1.66-.7 3.268-1.6 4.877-2.4.452-.25.804-.55 1.156-.95.301-.3.15-.55-.151-.7z" fill="#D0E9EA"/><path d="M28.746 48.55c-.955.3-1.206.3-2.362.15-.503-2.55-1.458-4.1-3.369-5.15-.452-2-.955-4.1-1.458-6.25 1.81-1.15 1.458-2.9 1.056-4.65.704-.4 1.458-.45 2.162-.45.1.55.251 1.05.302 1.6.301 2.35 1.005 4.6 1.508 6.9.653 2.65 1.458 5.25 2.161 7.85z" fill="#DD002B"/><path d="M81.433 26.2c1.307.25 2.614.45 3.921.7 3.921.7 7.843 1 11.814.95 1.307-.05 2.514-.4 3.77-.7.101-.05.252-.15.353 0 .15.1.1.25.1.35-.2.8-.452 1.6-.653 2.35-1.006.5-1.961.7-2.966.8-4.274.45-8.446-.05-12.619-.75-1.458-.25-2.916-.45-4.323-.9.2-.95.653-1.8.603-2.8zm17.646 2.95c-.1-.25-.201-.4-.402-.4-.604-.05-1.207-.15-1.76 0-.654.2-1.257.2-1.91.2h-4.424c-.252 0-.453 0-.503.35.352.3.704.45 1.206.45h6.335c.653 0 1.106-.2 1.458-.6z" fill="#CFE8E9"/><path d="M28.948 27l4.222-1.35c3.57-1.1 6.988-2.6 10.256-4.4.905-.5 1.71-1.05 2.464-1.75.402-.4.854-.7 1.357-1.15.251 1.05.452 1.95.654 2.85-.654 1-1.509 1.6-2.363 2.2-1.81 1.25-3.77 2.1-5.731 3-3.117 1.4-6.385 2.35-9.653 3.3h-.251c-.1-.9-.352-1.75-.654-2.6-.1-.05-.2-.05-.301-.1zm16.992-5.4c0-.2-.251-.4-.453-.35-.15.05-.25.1-.351.15-.956.55-1.86 1.15-2.866 1.65-1.156.65-2.313 1.25-3.469 1.85-.201.1-.402.25-.553.4-.05.05 0 .25 0 .4 0 .05.15.15.201.15.151 0 .302 0 .402-.05 1.81-.8 3.57-1.65 5.28-2.65.401-.25.803-.45 1.206-.7.251-.15.553-.4.603-.85z" fill="#D0E8E9"/><path d="M14.167 27.8c-.603.1-1.156.05-1.558-.4.1-.65.502-1 .955-1.35.603-.45 1.206-.85 1.81-1.25 2.966-1.75 6.083-3.1 9.3-4.25a80.959 80.959 0 0 1 12.267-3.35c2.313-.45 4.675-.7 7.038-.7.855 0 1.71.1 2.514.55-.302.85-.352.95-.955.9-.604 0-1.207-.05-1.81-.05-2.866.1-5.681.45-8.496 1.1-3.369.75-6.737 1.6-10.005 2.75-3.016 1.1-5.882 2.4-8.596 4.1-.956.55-1.76 1.2-2.464 1.95zm53.642-7.75a1.792 1.792 0 0 1-1.106-1c.2-.6.804-.7 1.307-.8.804-.15 1.659-.25 2.463-.3 3.017-.1 5.983.05 9 .4 4.222.5 8.344 1.4 12.467 2.5 2.312.65 4.524 1.5 6.737 2.5.754.35 1.457.75 2.111 1.3.302.25.603.45.704.9-.252.4-.654.65-1.156.35-3.771-2.3-7.994-3.55-12.267-4.6-2.815-.7-5.681-1.3-8.547-1.65-3.267-.4-6.535-.5-9.803-.1-.653.1-1.257.3-1.91.5z" fill="#AACECF"/><path d="M56.196 54.5V32.1c0-.45-.1-.95.352-1.25.351-.25.603-.25 1.407.1.252.25.252.6.252.9V44.1c0 3-.05 5.95-.05 8.95v.15c-.051 1.5-.202 1.6-1.961 1.3z" fill="#CFE7E8"/><path d="M17.536 33.15c.15 1 .402 1.9.854 2.75.603 1.05.654 1.1 1.91 1.45.453 1.05.604 2.15.905 3.25.151.6.202 1.3.403 1.85.402 1.05.15 1.85-.704 2.6-.503-.7-.201-1.8-1.056-2.4-.352.35-.251.7-.201 1.05.201 1.05.402 2.05.654 3.1.1.5.15 1.05.25 1.55-.25.05-.351 0-.401-.15-.201-.9-.453-1.75-.604-2.7-.2-1.1-.553-2.15-.854-3.2-.1-.3-.252-.6-.704-.65-.201 1.1.302 2.05.503 3.05.2 1.05.452 2.05.704 3.1-.453.15-.604-.05-.704-.4-.553-2.3-1.157-4.65-1.71-6.95-.502-2-1.106-3.95-1.76-5.9-.2-.55-.502-1.1-.351-1.7.452-.25.955-.1 1.408-.05.402.1.854.2 1.458.35z" fill="#DC002B"/><path d="M71.73 42.9c-.804-.25-1.558-.45-2.313-1 .855-2.1.855-4.15-.452-6.15.352-1.25.654-2.55 1.005-3.9 1.006-.05 1.71-.6 2.263-1.35.301-.4.402-.9.553-1.4.1-.3.05-.65.452-.95.654.2 1.408.35 2.112.7-.05.05-.1.05-.1.1-.705 1.55-1.107 3.2-1.509 4.8-.704 2.6-1.156 5.3-1.81 7.95-.1.4-.2.8-.2 1.2z" fill="#DD002B"/><path d="M74.797 48.8c-.1 0-.201.05-.252 0-4.223-1.25-8.194-3.1-11.663-5.8-.05-.05-.15-.1-.201-.15-1.358-1.15-1.358-1.2-.855-2.95.1-.4.252-.8.352-1.15.302-.15.453 0 .654.15 1.91 1.8 4.223 2.95 6.485 4.15 1.609.85 3.368 1.45 5.128 2 .452.15.905.2 1.307.45-.603.85-.855 1.85-1.106 2.85-.1.1.05.3.15.45zm-6.787-3.6c.251-.7.251-.85-.201-1.05-1.458-.75-2.816-1.7-4.123-2.7-.15-.1-.301-.2-.452-.25-.15-.05-.251-.05-.352.1-.1.1-.15.2-.1.35.1.25.301.45.502.65a18.269 18.269 0 0 0 4.374 2.85c.05 0 .201 0 .352.05zm-33.985 7.2c-.452.35-.955.25-1.458.3-3.67.7-7.34.7-11.01.1-.854-.15-1.709-.35-2.463-.75-.452-1.15-.603-2-.603-2.9.1-.15.251-.1.352-.05 1.156.35 2.362.5 3.519.55 2.363.15 4.725.25 7.038-.1l2.715-.45 1.206-.15c.1 1.05.201 2.05.352 3.05.1.25.302.35.352.4zm-7.34-.15c.05-.45-.15-.7-.603-.75-.754-.05-1.458-.05-2.212-.15-.955-.1-1.91-.25-2.866-.35-.301-.05-.653-.1-.804.3.05.4.352.5.654.6 1.709.55 4.524.7 5.831.35z" fill="#D0E8E9"/><path d="M28.746 31.25c.503.5.755 1.1.855 1.8.1.85.251 1.7.553 2.5.603 1.6.855 3.35 1.257 5 .402 1.5.855 2.95 1.307 4.4.302.9.603 1.8.704 2.75-.754.4-1.559.55-2.464.55-.2-1.65-.854-3.25-1.307-4.85-.854-3.3-1.659-6.55-2.111-9.9-.1-.6-.15-1.25-.503-1.8.151-.2.352-.3.603-.3.352-.05.755-.1 1.106-.15z" fill="#DD002B"/><path d="M27.087 31.7c.352.55.403 1.2.503 1.8.503 3.35 1.257 6.65 2.112 9.9.402 1.6 1.055 3.2 1.307 4.85-.704.35-1.508.2-2.263.3-.703-2.6-1.508-5.2-2.111-7.85-.503-2.3-1.257-4.55-1.508-6.9-.05-.55-.201-1.05-.302-1.6.704-.3 1.458-.45 2.262-.5z" fill="#F73C60"/><path d="M78.115 28.35c-2.413-.5-4.726-1.15-6.938-2.15a36.055 36.055 0 0 1-3.921-2c-.201-.1-.402-.25-.604-.35-.854-.5-1.206-1.2-.854-2.2.15-.45.15-.9.251-1.35.1 0 .201 0 .252.05 3.62 2.5 7.691 3.85 11.914 4.95.252.05.553.05.754.3-.502.85-.754 1.8-.854 2.75zm-6.435-3.2c.05-.4-.252-.7-.603-.8-1.207-.45-2.313-1.05-3.42-1.75a.974.974 0 0 0-.502-.15c-.1 0-.251.1-.301.2-.05.05-.05.2-.05.25.05.1.1.25.2.35 1.307.85 2.665 1.6 4.173 2.1.201.1.352 0 .503-.2z" fill="#D3E9EA"/><path d="M71.73 42.9c0-.4.1-.8.201-1.2.603-2.65 1.056-5.35 1.81-7.95.452-1.6.804-3.25 1.508-4.8 0-.05.05-.05.1-.1.755.15 1.509.3 2.213.6a26.55 26.55 0 0 1-1.006 3.4c-.352.95-.653 1.9-.905 2.85-.603 2.45-1.156 4.95-1.659 7.4-.05.2-.1.35-.251.45-.754 0-1.357-.4-2.01-.65z" fill="#F73C60"/><path d="M73.69 43.6c.152-.1.252-.25.252-.45.503-2.5 1.056-4.95 1.66-7.4.25-.95.602-1.9.904-2.85.402-1.1.754-2.25 1.005-3.4.604-.15 1.106.3 1.66.35.25 1.3-.302 2.5-.604 3.75-.352 1.7-.905 3.4-1.257 5.15l-.905 4.8c-.05.25-.05.55-.05.8-.854-.15-1.81-.3-2.664-.75z" fill="#DD012B"/><path d="M37.544 59.65c-.1.45-.2.95-.301 1.4-.151.6-.352 1.15-.403 1.75-.05.7-.402 1.15-.904 1.6-.905.8-1.81 1.55-2.615 2.4-1.76 1.7-3.117 3.7-4.524 5.7-.1.15-.201.4-.503.45.503-2.3 1.106-4.55 2.463-6.5.956-1.4 1.961-2.85 3.268-4 .805-.7 1.508-1.45 2.262-2.2.202-.2.453-.3.654-.5.15-.1.302-.15.603-.1zM85.103 73c-.402-.6-.855-1.2-1.257-1.8-1.106-1.6-2.313-3.1-3.67-4.45-.804-.8-1.66-1.55-2.514-2.3-.553-.45-.905-.95-1.005-1.7-.151-1-.453-2-.754-3.15.553.05.854.25 1.156.5 1.71 1.6 3.469 3.15 4.776 5.1l1.207 1.65c1.206 1.9 1.608 4 2.06 6.15z" fill="#DB002B"/><path d="M68.915 31.35c-.252 1-.553 2-.754 2.95-.151.85-.453 1.45-1.358 1.65-.15.05-.301.2-.502.3-.101-.9.653-1.7.301-2.6-.402-.1-.553.2-.653.45-.302 1.05-.604 2.1-.956 3.15-.15.5-.25 1.05-.603 1.5-.301-.15-.2-.4-.15-.6.351-1.35.753-2.75 1.055-4.1.05-.3.251-.5.402-.7 1.006-1.3.955-2.2-.15-3.4-.151-.15-.352-.3-.604-.5-.05-1.55.503-3.05.704-4.6.352-.15.553-.1.754.05.603.4 1.207.8 1.86 1.25-.1.95-.452 1.85-.452 2.85.05 1 .15 1.85 1.106 2.35z" fill="#DA012B"/><path d="M94.303 36.9c1.96-.5 2.513-2 2.966-3.55.15-.5.1-1 .402-1.5.503-.1 1.006-.15 1.66-.3-.051 1.6-.755 3.05-1.057 4.5-.352 1.55-.653 3.15-1.106 4.65-.402 1.45-.553 3.05-1.257 4.45-.301-.15-.25-.35-.2-.5.402-1.7.804-3.4 1.206-5.05.1-.3.15-.65-.251-.9-.453 0-.654.25-.755.75-.351 1.7-.754 3.4-1.156 5.1-.1.4-.251.75-.402 1.15-.15-.55-.05-1.05.05-1.6.302-1.4.654-2.85.704-4.3 0-.25.05-.55-.15-.8-.202-.05-.353 0-.453.2-.151.3-.252.6-.252.9 0 .45-.1.9-.402 1.25-.352-.15-.402-.4-.352-.7.252-1.25.503-2.45.805-3.75z" fill="#D7022B"/><path d="M48.705 36.65c-.402-.8-.453-1.75-1.207-2.4-.301.15-.502.35-.352.7.202.55.352 1.15.553 1.7.05.15.101.25 0 .45-.351 0-.553-.25-.653-.55-.201-.55-.453-1.1-.553-1.7-.201-1.45-.754-2.8-1.056-4.25.05-.3.302-.45.453-.65.603-.6.754-1.4.703-2.15-.1-1.05-.15-2.1-.703-3.05v-.25c.402-.3.854-.7 1.256-1.05.101 0 .151 0 .202.05.05 0 .05.05.1.1.201.7.402 1.4.553 2.1.251 1.35.603 2.65.905 3.9-.1.2-.15.3-.302.35-1.307.55-1.659 1.3-1.357 2.6.05.3.201.55.402.7.955.7 1.156 1.7 1.307 2.75 0 .3.05.55-.251.65z" fill="#D9012B"/><path d="M23.518 31.2c-.754.4-1.609.45-2.413.5-1.96.15-3.921.35-5.932.1-.352-.05-.754-.1-1.106-.15-.403-.1-.654-.35-.805-.7-.251-.7-.502-1.35-.653-2.15.502.05.854.1 1.257.15.402.05.804.05 1.256.1.403 0 .805 0 1.257-.05.402 0 .805-.05 1.257-.05.804 0 1.559-.05 2.313-.2.502-.1 1.005-.05 1.508-.1.1.3.301.55.301.9-.05.6.252 1.1.453 1.6.503 0 .905 0 1.307.05zm-3.62-.35c-.15-.7-.553-.8-.955-.75-1.206.2-2.363.15-3.57.1-.2 0-.351 0-.552.05-.201.05-.352.15-.352.35 0 .2.15.3.301.4.101.05.151.05.252.05 1.357.1 2.765.1 4.122-.05.252.05.453-.05.754-.15z" fill="#CCE4E5"/><path d="M54.939 32.8c-1.056.15-2.011.05-2.916.05H49.56c-.453 0-.905 0-1.308-.45-.15-.4 0-.8.202-1.2 1.206-.35 5.127-.45 6.636-.15.15.55-.151 1.1-.151 1.75z" fill="#CDE5E6"/><path d="M74.797 48.8c-.1-.15-.252-.35-.201-.5.251-1 .452-2 1.106-2.85 1.055.2 2.06.45 3.016.85-.201.95-.402 1.9-.603 2.8-.252.3-.553.15-.805.25a8.029 8.029 0 0 1-2.513-.55zm-40.772 3.6c-.1-.1-.251-.2-.251-.3-.151-1-.252-2.05-.352-3.05.804-.3 1.609-.45 2.463-.55.201.05.453.05.754.1.05 1 .754 1.9.654 2.95-1.006.45-2.112.75-3.268.85z" fill="#F1FDFD"/><path d="M65.144 32.8c-.301.05-.502.05-.754.05-1.659-.05-3.268-.05-4.977-.1-.201-.55-.251-1.15-.1-1.7.452-.25.854-.2 1.256-.2 1.559.1 3.117-.35 4.626.05.402.85.402.85-.05 1.9z" fill="#CCE5E5"/><path d="M46.04 43.25c-.351-.95-.452-1.9-.402-2.9.05-.75.302-1.45.855-1.95.402-.4.855-.35 1.206.1.704.9 1.207 1.95 1.106 3.2-.904.6-1.76 1.15-2.765 1.55z" fill="#CEE6E7"/><path d="M89.426 46.25c.252-1.35.604-2.45 1.458-3.35.402-.45.905-.8 1.508-.8.352 0 .654.15.704.5.201 1.2.201 2.35-.452 3.45-1.056.05-2.112.2-3.218.2z" fill="#CEE7E8"/><path d="M25.177 48.8H22.01c-.151-.85-.201-1.6-.151-2.35 0-.4.15-.8.402-1.15.302-.45.805-.55 1.156-.2.252.25.453.55.704.85.553.8.855 1.75 1.056 2.85zm40.369-8.95c.252-.6.453-1.15.704-1.65.252-.55.604-1 1.157-1.3.502-.25.904-.15 1.106.35.25.55.25 1.15.25 1.75-.05.8.101 1.65-.502 2.4-.955-.4-1.81-.95-2.715-1.55z" fill="#CCE5E6"/><path d="M93.348 31.95c1.005-.05 1.91 0 2.915 0-.05 1.15-.2 2.15-.905 3.05-.754.95-1.508.85-1.96-.25-.1-.25-.201-.55-.201-.8-.05-.6-.1-1.25.15-2zm-72.042.8c.452.75.503 1.5.503 2.3 0 .65-.252.95-.805 1.15-.703.2-1.206.05-1.558-.5-.553-.8-.754-1.75-1.006-2.75 1.006-.2 1.961-.15 2.866-.2z" fill="#CDE6E7"/><path d="M42.17 26.55c.904-.45 1.709-.9 2.563-1.3.604.55.604 1.35.754 2 .151.6 0 1.2-.25 1.75-.202.45-.705.55-1.157.35-.453-.25-.855-.55-1.056-1-.302-.55-.503-1.1-.855-1.8z" fill="#CCE5E6"/><path d="M69.317 26.55c.905.4 1.71.75 2.514 1.15.1.85-.252 1.6-.604 2.3-.301.6-.804.75-1.357.6-.603-.15-.955-.55-1.006-1.15-.05-.95.101-1.9.453-2.9z" fill="#CEE6E7"/><path d="M28.948 27c.05.05.2.1.2.15.302.85.604 1.7.654 2.6-.804.35-1.609.5-2.463.6-.201-.05-.553-.05-.553-.3 0-.85-.453-1.6-.302-2.45a7.12 7.12 0 0 1 2.464-.6z" fill="#F0FBFB"/><path d="M78.115 28.35c.1-.95.352-1.9.854-2.75.855.05 1.66.3 2.464.6.05 1-.402 1.85-.553 2.8-.955 0-1.86-.35-2.765-.65z" fill="#F2FDFD"/><path d="M26.534 27.6c-.15.85.302 1.65.302 2.45 0 .25.352.25.553.3-1.206.4-2.363.7-3.62.8.1-.35.503-.2.654-.45-.251-.75.1-1.65-.603-2.25-.201-.05-.453-.05-.654-.1a18.33 18.33 0 0 1 3.368-.75z" fill="#CDE5E6"/><path d="M23.116 28.35c.251.05.452.05.653.1.754.65.352 1.55.604 2.25-.201.2-.604.1-.654.45l-.1.05-.101-.05c-.402-.05-.804-.05-1.257-.1-.2-.5-.503-1-.452-1.6.05-.35-.201-.6-.302-.9.503-.15 1.056-.15 1.609-.2z" fill="#F2FEFE"/><path d="M51.068 39.8c-.704-1.95-1.006-3.7-1.458-5.45-.05-.1.05-.25.1-.35.252-.05.352.05.453.25.1.2.15.4.2.65.303 1.15.554 2.3.805 3.45.1.35.151.75-.1 1.45z" fill="#A80B28"/><path d="M63.334 37.95c-.301-.15-.402-.4-.351-.6.25-1 .502-2 .804-3 .05-.1.15-.2.251-.3.05-.05.201-.05.252-.05.05 0 .15.1.2.2.051.1.051.2 0 .25-.3 1.1-.603 2.2-.904 3.25-.05.05-.151.1-.252.25z" fill="#B00C2A"/><path d="M48.705 36.65c.302-.1.251-.4.302-.6.603 1.45.955 3 1.256 4.55 0 .05-.05.05-.1.1-.453-.35-.855-1.45-1.458-4.05z" fill="#9D0F29"/><path d="M86.46 89.4c-.05 16.6-13.423 29.5-29.51 29.65-8.647.05-16.037-3.1-21.97-9.35-5.329-5.65-8.094-12.45-8.094-20.15-.05-16.95 14.027-30.15 30.617-29.7 16.339.45 28.957 13.8 28.957 29.55zM56.85 61.2c-1.66-.05-3.017.1-4.425.3-2.212.25-4.323.85-6.385 1.65-1.709.65-3.318 1.55-4.876 2.55-1.76 1.2-3.419 2.45-4.927 3.95-1.206 1.2-2.262 2.55-3.217 3.9-.905 1.25-1.559 2.7-2.263 4.1-.653 1.35-1.206 2.8-1.558 4.25-.453 1.75-.754 3.5-.905 5.3-.15 1.85-.15 3.65.05 5.5.201 1.7.553 3.35 1.006 4.95.352 1.1.704 2.15 1.156 3.2 1.056 2.35 2.363 4.55 4.022 6.55 1.106 1.3 2.262 2.55 3.57 3.65 1.96 1.6 4.071 2.95 6.384 4.05 3.217 1.5 6.586 2.35 10.105 2.6 3.62.25 7.189-.15 10.608-1.3 2.413-.8 4.725-1.75 6.837-3.2 2.262-1.55 4.323-3.2 6.133-5.3 1.408-1.7 2.665-3.5 3.67-5.45 1.558-2.95 2.514-6.1 2.916-9.4A29.17 29.17 0 0 0 83.997 82a22.782 22.782 0 0 0-2.966-6.9c-1.408-2.2-2.967-4.25-4.927-6.05-2.413-2.2-5.027-4-7.994-5.3-1.86-.8-3.77-1.45-5.781-1.9-1.76-.55-3.72-.8-5.48-.65z" fill="#010101"/><path d="M86.812 48.7c.15-.45.553-.45.905-.45h5.68c.403 0 .855-.1 1.207.1.151.35-.1.55-.352.65-.2.1-.452.05-.703.05h-5.832c-.302.05-.704.05-.905-.35z" fill="#FDFEFE"/><path d="M51.671 42.6c.302.15.402.4.201.65-.302.4-.704.7-1.156.95-1.609.8-3.218 1.7-4.877 2.4-.15.05-.352.15-.502.2-.201.05-.352 0-.453-.2-.05-.15-.1-.4.1-.5.805-.5 1.61-1.05 2.514-1.4 1.408-.6 2.665-1.4 3.972-2.1h.201z" fill="#FCFDFD"/><path d="M99.079 29.15c-.352.4-.855.65-1.408.65h-6.334c-.503 0-.855-.15-1.207-.45.05-.35.251-.35.503-.35h4.424c.653 0 1.257 0 1.91-.2.553-.15 1.156-.05 1.76 0 .15-.05.301.1.352.35z" fill="#FCFEFD"/><path d="M45.94 21.6c0 .45-.302.7-.603.9-.352.25-.805.45-1.207.7-1.659 1.05-3.469 1.85-5.279 2.65-.1.05-.251.05-.402.05-.1 0-.2-.1-.2-.15-.051-.1-.101-.3 0-.4.15-.15.351-.3.552-.4a116.78 116.78 0 0 1 3.469-1.85l2.866-1.65c.1-.05.25-.1.351-.15.202-.1.453.1.453.3z" fill="#FCFDFD"/><path d="M68.01 45.2c-.151 0-.252 0-.402-.05-1.61-.75-3.017-1.7-4.374-2.85-.201-.2-.402-.35-.503-.65-.05-.15 0-.25.1-.35.101-.1.252-.15.353-.1.15.1.352.15.452.25 1.307 1 2.665 1.95 4.122 2.7.453.2.453.35.252 1.05z" fill="#0C0D0D"/><path d="M26.685 52.25c-1.307.35-4.122.2-5.831-.35-.302-.1-.654-.15-.654-.6.15-.4.503-.3.804-.3.956.1 1.91.25 2.866.35.704.05 1.458.1 2.212.15.402.05.603.3.603.75z" fill="#0D0E0E"/><path d="M71.68 25.15c-.151.15-.302.25-.503.2-1.508-.5-2.866-1.25-4.173-2.1-.1-.05-.15-.2-.2-.35-.051-.05 0-.2.05-.25.1-.1.2-.2.301-.2.151 0 .352.05.503.15 1.106.65 2.212 1.3 3.419 1.75.351.15.603.4.603.8z" fill="#101111"/><path d="M19.898 30.85c-.301.1-.502.2-.703.2-1.358.15-2.765.15-4.123.05-.1 0-.201-.05-.251-.05-.151-.1-.302-.2-.302-.4s.15-.35.352-.35c.201-.05.352-.05.553-.05 1.207.05 2.413.1 3.57-.1.351-.1.804 0 .904.7z" fill="#111212"/><path d="M56.85 61.2c1.708-.1 3.72.1 5.63.55 1.96.4 3.921 1.05 5.781 1.9 2.966 1.3 5.58 3.1 7.994 5.3 1.96 1.8 3.519 3.85 4.926 6.05a23.902 23.902 0 0 1 2.967 6.9c.904 3.6 1.206 7.3.754 11.05-.403 3.3-1.408 6.45-2.916 9.4a28.042 28.042 0 0 1-3.67 5.45c-1.76 2.1-3.871 3.8-6.133 5.3-2.112 1.45-4.425 2.4-6.838 3.2-3.468 1.15-7.038 1.55-10.607 1.3-3.52-.25-6.888-1.1-10.105-2.6a31.316 31.316 0 0 1-6.385-4.05c-1.307-1.05-2.463-2.35-3.57-3.65-1.658-2-2.965-4.2-4.021-6.55-.453-1.05-.855-2.1-1.156-3.2-.503-1.65-.805-3.3-1.006-4.95-.201-1.85-.201-3.65-.05-5.5.15-1.8.503-3.55.905-5.3.352-1.5.905-2.9 1.558-4.25.704-1.4 1.358-2.8 2.262-4.1.956-1.35 2.011-2.7 3.218-3.9 1.508-1.5 3.167-2.8 4.927-3.95a22.634 22.634 0 0 1 4.876-2.55c2.061-.75 4.173-1.4 6.385-1.65 1.257-.1 2.614-.25 4.273-.2z" fill="#F4E6D0"/></g></svg>