<svg width="120" height="120" viewBox="0 0 120 120" xmlns="http://www.w3.org/2000/svg"><g fill="none" fill-rule="evenodd"><path d="M81.72 82.164c.294-.25.423-.676.291-1.088-.171-.538-.718-.846-1.221-.688l-3.267 1.03c-3.055-.634-5.752-2.968-6.819-6.315-1.134-3.556-.106-7.235 2.325-9.482l.571-.18c.497-.157.763-.714.593-1.246l-.007-.024a1.024 1.024 0 0 0-.71-.686 21.885 21.885 0 0 0-.819-3.624C69.225 49.097 58.285 42.94 48.221 46.11c-10.065 3.17-15.442 14.464-12.01 25.228a21.953 21.953 0 0 0 1.375 3.318c-.397.212-.593.706-.442 1.18l.007.024c.17.531.71.835 1.207.679l.887-.28c3.289.447 6.261 2.865 7.396 6.422 1.066 3.347.214 6.798-1.916 9.064l-3.266 1.03c-.504.158-.773.723-.601 1.26.131.413.484.688.868.724-.129 3.727 1.084 9.854 2.156 13.218 4.119 12.916 15.014 13.297 27.09 9.494 12.078-3.804 20.764-10.35 16.646-23.267-1.073-3.364-3.633-9.066-5.897-12.04" fill="#B84018"/><path fill="#38342F" d="M36.732 21.307l15.661 50.705 7.507-2.364-16.58-50.415zm34.24 96.163a57.296 57.296 0 0 0 2.512-.853l-3.926-12.312 1.557-7.03-11.798 3.717 5.345 4.854 3.929 12.321a59.57 59.57 0 0 0 2.381-.696"/><path d="M32.885 1.03l-1.72 4.436a1.22 1.22 0 0 0 .053.993l2.22 4.33 6.48-2.041-.694-4.81a1.218 1.218 0 0 0-.533-.842L34.715.454a1.232 1.232 0 0 0-1.83.576" fill="#B84018"/><path fill="#FFF" d="M62.116 100.448L37.242 18.303l.252-.076 24.875 82.145zm6.038-1.898L40.886 17.16l.25-.084 27.268 81.392zm-4.189 1.317L38.358 17.953l.252-.078L64.217 99.79zm2.34-.735L39.771 17.509l.25-.08L66.556 99.05z"/><path fill="#292622" d="M39.918 8.748l-6.48 2.04 3.294 10.52 6.588-2.075z"/><path d="M42.353 9.442l-.727.79-8.724 2.748-1.052-.23a.692.692 0 0 0-.812.882l.445 1.395a.696.696 0 0 0 1.175.257l.727-.79 8.724-2.748 1.052.23a.692.692 0 0 0 .811-.882L43.528 9.7a.696.696 0 0 0-1.175-.257m1.715 5.377l-.727.792-8.724 2.747-1.053-.23a.692.692 0 0 0-.81.882l.444 1.395a.696.696 0 0 0 1.175.257l.726-.79 8.725-2.748 1.052.23a.692.692 0 0 0 .811-.882l-.444-1.395a.696.696 0 0 0-1.175-.257" fill="#292622"/><path d="M74 85.57c-.537.36-.869.908-.972 1.496-3.228-2.62-1.44-6.988-3.728-10.354-1.859-2.732-6.297-3.944-6.577-3.514-.145.222.157.691.69 1.056.532.367 1.086.486 1.238.268.083-.12.027-.316-.127-.53 6.897 3.312 4.654 6.63 5.71 11.574.235 1.1 1.04 2.29 1.914 3.132.594.573 2.504 1.92 4.412.639a2.264 2.264 0 0 0 .615-3.156A2.296 2.296 0 0 0 74 85.57m-23.988 7.554a2.289 2.289 0 0 1 1.66.667c1.122-3.989-2.87-6.537-2.95-10.599-.065-3.297 2.86-6.827 3.34-6.637.247.099.271.655.048 1.258-.223.605-.608 1.02-.858.928-.137-.05-.205-.242-.203-.505-3.72 6.654.036 8.083 2.039 12.73.446 1.034.476 2.467.25 3.655-.154.808-.934 3.003-3.237 3.048a2.28 2.28 0 0 1-2.33-2.228 2.279 2.279 0 0 1 2.24-2.317m37.942 2.228c-.59 1.284-1.59 2.527-3.23 3.57-2.116 1.346-7.512 2.069-8.293 6.755-.78 4.686-2.946 10.94-2.946 10.94 10.383-3.785 17.487-9.995 14.47-21.265" fill="#38342F"/></g></svg>