<svg width="120" height="120" viewBox="0 0 120 120" xmlns="http://www.w3.org/2000/svg" xmlns:xlink="http://www.w3.org/1999/xlink"><defs><path id="a" d="M.13.007h37V36.45h-37z"/><path id="c" d="M.022.09h9.454v10.322H.022z"/><path id="e" d="M0 .156h7.363V7.04H0z"/><path id="g" d="M.019.002h5.577V8.29H.019z"/></defs><g fill="none" fill-rule="evenodd"><path d="M2.707 67.883c2.052 14.738 29.272 9.457 26.042-6.478-1.694-8.357-13.497-12.838-20.753-8.645-4.2 2.427-5.911 10.654-5.289 15.123" fill="#81BA33"/><path d="M22.292 69.214c3.572 3.634 13.517 6.068 18.326 4.377 4.37-1.535 7.127-7.072 7.935-11.296.981-5.132-1.672-10.471-5.732-13.511-2.963-2.219-10.296-3.013-13.829-1.97A13.93 13.93 0 0 0 23.2 50.19c-4.746 4.637-5.778 14.07-.908 19.023" fill="#AFD185"/><path d="M71.025 64.372c-2.978 17.16-29.497 14.99-28.552-2.87.446-8.416 6.51-14.662 15.107-12.28 6.913 1.914 14.859 7 13.445 15.15" fill="#81BA33"/><path d="M73.905 44.01c12.125-1.7 21.566 15.989 14.154 25.638-8.652 11.264-28.382 3.211-27.342-10.898.512-6.956 6.178-13.758 13.188-14.74" fill="#AFD185"/><g transform="translate(82.792 40.975)"><mask id="b" fill="#fff"><use xlink:href="#a"/></mask><path d="M35.487 12.585c3.816 6.885.514 14.984-5.021 19.78-5.986 5.185-16.548 5.297-23.13 1.109C1.71 29.893-.496 22.454.28 16 1.137 8.877 6.464 3.134 13.221.802c9.507-3.28 18.044 4.164 22.266 11.783" fill="#81BA33" mask="url(#b)"/></g><g transform="translate(86.497 37.073)"><mask id="d" fill="#fff"><use xlink:href="#c"/></mask><path d="M9.194 6.35c-.736-1.44-1.477-2.744-2.49-4.01C5.404.716 2.802-.943.932.897c-1.74 1.712-.686 4.366.68 5.893 1.16 1.3 2.531 2.172 3.938 3.164 2.291 1.615 4.775-1.39 3.644-3.604" fill="#1E8035" mask="url(#d)"/></g><path d="M113.255 47.992c1.798-1.838 5.347-3.644 5.375-6.529.009-.853-.575-1.531-1.35-1.787-3.36-1.106-6.017 3.24-7.322 5.695-1.11 2.09 1.562 4.395 3.297 2.621" fill="#1E8035"/><g transform="translate(0 51.54)"><mask id="f" fill="#fff"><use xlink:href="#e"/></mask><path d="M.005 1.364C.15 2.617.528 3.522 1.363 4.475c.88 1.005 2.106 2.214 3.441 2.508 1.822.402 3.098-1.371 2.333-3.027C6.213 1.96 3.384.956 1.5.214.83-.051-.078.635.005 1.364" fill="#1E8035" mask="url(#f)"/></g><g transform="translate(9.503 74.621)"><mask id="h" fill="#fff"><use xlink:href="#g"/></mask><path d="M1.213.4C.112 1.387.019 2.64.019 4.038c0 1.857.932 4.253 3.094 4.253 1.098 0 2.086-.87 2.371-1.918.25-.918.034-1.803-.185-2.696C4.957 2.285 4.25.855 2.948.193 2.345-.113 1.723-.056 1.213.4" fill="#1E8035" mask="url(#h)"/></g><path d="M33.08 72.925l-.035.316.237-.868c-.598 1.356-.69 2.54-.68 4.02.01 1.497.748 3.549 2.56 3.548 1.74 0 2.35-2.16 2.227-3.552-.07-.801-.087-1.612-.28-2.396-.205-.826-.666-1.204-1.101-1.851-.919-1.366-2.76-.802-2.929.783m24.75.902c-1.568.416-2.17 1.813-2.32 3.312-.151 1.503.325 2.912 1.58 3.791 1.24.869 2.804-.044 3.238-1.315.327-.96.022-1.91-.157-2.863.077.41.039-.467.036-.555-.015-.547-.228-1.071-.457-1.558-.326-.693-1.221-.997-1.92-.812m18.995-.665c-.635.744-1.164 1.324-1.477 2.288-.358 1.103-.368 2.58.27 3.572.79 1.227 2.805 1.509 3.56.036.433-.843.536-1.766.472-2.708-.062-.912-.358-1.68-.537-2.553-.2-.973-1.625-1.412-2.288-.635" fill="#1E8035"/><path d="M108.885 58.65a2.39 2.39 0 0 1 2.149-2.459c1.803-.198 2.116 1.694 1.989 3.094-.086.949 1.38.942 1.466 0 .204-2.249-.764-4.574-3.292-4.582-2.113-.007-3.822 1.864-3.778 3.948.02.951 1.487.955 1.466-.001m-18.845-.409a2.39 2.39 0 0 1 2.15-2.458c1.802-.199 2.115 1.693 1.988 3.093-.086.95 1.38.943 1.466 0 .204-2.248-.764-4.573-3.292-4.582-2.112-.007-3.822 1.864-3.777 3.948.02.951 1.486.955 1.466 0m8.006 9.311c2.58 2.375 6.32 2.058 8.52-.672.59-.733-.43-1.798-1.025-1.059-1.67 2.073-4.412 2.57-6.446.698-.697-.642-1.747.39-1.049 1.033" fill="#1D1D1B"/><path d="M74.669 57.173c-.207-.47-.792-.747-1.275-.749l-.056.002a1.427 1.427 0 0 0-.403-.183l-1.13-.314c-.576-.16-1.383.079-1.648.669-.533 1.183-1.007 2.634-.515 3.92.45 1.174 1.36 1.903 2.611 2.004 1.026.084 2.06-.573 2.558-1.45.703-1.241.4-2.67-.142-3.9m-40.664.962c-.46-.332-1.05-.568-1.682-.692a1.608 1.608 0 0 0-.291-.221 3.476 3.476 0 0 0-3.133-.207c-1.35.57-1.635 2.09-1.273 3.385.59 2.113 3.054 3.373 5.151 2.94 2.454-.504 3.331-3.692 1.228-5.205" fill="#81BA33"/><path d="M54.212 60.613c-.99-.443-1.934-.69-2.966-.23-.042.02-.08.042-.12.063-.886.096-2.002.333-2.406 1.225-.466 1.027-.08 2.105.906 2.641 1.866 1.013 4.05.05 5.095-1.67.38-.626.216-1.704-.509-2.029m-41.825-.175c-.407.055-.81.205-1.2.398a2.507 2.507 0 0 0-.66.16c-1.126.458-1.781 1.428-1.724 2.677.034.752.273 1.572.822 2.111.565.556 1.26.676 2.012.563.99-.148 1.783-1.057 2.35-1.812.587-.78.955-1.742.786-2.725-.199-1.16-1.402-1.505-2.386-1.372" fill="#AFD185"/></g></svg>