<svg width="120" height="120" viewBox="0 0 120 120" xmlns="http://www.w3.org/2000/svg"><g fill="none" fill-rule="evenodd"><path d="M65.424 35.353H24.448c-1.46 0-2.648.962-2.648 2.144v3.45h1.015v-3.45c0-.73.732-1.322 1.633-1.322H26.2v4.772h1.014v-4.772h3.541v4.772h1.015v-4.772h3.541v4.772h1.016v-4.772h3.54v4.772h1.015v-4.772h3.542v4.772h1.023v-4.772h3.542v4.772h1.014v-4.772h3.542v4.772h1.014v-4.772h3.542v4.772h1.014v-4.772h3.542v4.772h1.015v-4.772h1.752c.9 0 1.633.593 1.633 1.322v3.45h1.015v-3.45c0-1.182-1.188-2.144-2.648-2.144" fill="#373559"/><path fill="#F8941C" d="M21.297 44.504h46.97L78.97 64.461H12.8z"/><path d="M32.253 47.65h-5.731c-.687 0-1.243.56-1.243 1.248v5.155c0 .688.556 1.247 1.243 1.247h5.731c.687 0 1.243-.559 1.243-1.247v-5.155c0-.689-.556-1.248-1.243-1.248" fill="#373559"/><path d="M32.253 47.65h-5.731a1.24 1.24 0 0 0-1.232 1.147c.034-.003.067-.011.102-.011h5.73c.687 0 1.243.56 1.243 1.248v5.154c0 .035-.007.068-.01.102a1.242 1.242 0 0 0 1.14-1.237v-5.155c0-.689-.555-1.248-1.242-1.248" fill="#C66802"/><path d="M46.934 47.65h-5.731c-.687 0-1.243.56-1.243 1.248v5.155c0 .688.556 1.247 1.243 1.247h5.73c.687 0 1.243-.559 1.243-1.247v-5.155c0-.689-.556-1.248-1.242-1.248" fill="#373559"/><path d="M46.934 47.65h-5.731a1.24 1.24 0 0 0-1.233 1.147c.034-.003.067-.011.102-.011h5.731c.686 0 1.242.56 1.242 1.248v5.154c0 .035-.006.068-.01.102a1.242 1.242 0 0 0 1.141-1.237v-5.155c0-.689-.556-1.248-1.242-1.248" fill="#C66802"/><path d="M61.614 47.65h-5.731c-.687 0-1.243.56-1.243 1.248v5.155c0 .688.556 1.247 1.243 1.247h5.731c.687 0 1.243-.559 1.243-1.247v-5.155c0-.689-.556-1.248-1.243-1.248" fill="#373559"/><path d="M61.614 47.65h-5.731a1.24 1.24 0 0 0-1.232 1.147c.034-.003.067-.011.102-.011h5.73c.687 0 1.243.56 1.243 1.248v5.154c0 .035-.007.068-.01.102a1.242 1.242 0 0 0 1.14-1.237v-5.155c0-.689-.555-1.248-1.242-1.248" fill="#C66802"/><path d="M68.923 40.391H20.948a1.19 1.19 0 0 0-1.188 1.193v1.727c0 .658.532 1.193 1.188 1.193h47.975c.657 0 1.19-.535 1.19-1.193v-1.727c0-.659-.533-1.193-1.19-1.193" fill="#0D5394"/><path d="M32.277 58.943H9.141c-1.46 0-2.648.961-2.648 2.143v3.45h1.015v-3.45c0-.73.732-1.322 1.633-1.322h1.752v4.773h1.015v-4.773h3.541v4.773h1.015v-4.773h3.541v4.773h1.016v-4.773h3.54v4.773h1.015v-4.773h3.542v4.773h1.013v-4.773h2.146v-.821z" fill="#373559"/><path d="M64.874 84.89H25.03c-7.808 0-14.727-5.057-17.123-12.52l-2.66-8.276L114.57 42.837 99.543 66.014C91.91 77.788 78.866 84.89 64.873 84.89" fill="#373559"/><path fill="#DD1B20" d="M109.268 51.015l5.302-8.177L5.248 64.094l2.16 6.727z"/><path d="M96.937 62.72a3.77 3.77 0 0 1-3.761 3.776 3.77 3.77 0 0 1-3.761-3.777 3.77 3.77 0 0 1 3.76-3.776 3.77 3.77 0 0 1 3.762 3.776" fill="#1C1C3D"/><path d="M93.176 58.943a3.75 3.75 0 0 0-3.095 1.632 3.735 3.735 0 0 1 2.135-.668 3.77 3.77 0 0 1 3.761 3.777c0 .796-.247 1.534-.666 2.144a3.777 3.777 0 0 0 1.626-3.109 3.77 3.77 0 0 0-3.761-3.776" fill="#292949"/><path d="M86.883 62.72a3.77 3.77 0 0 1-3.762 3.776 3.77 3.77 0 0 1-3.76-3.777 3.77 3.77 0 0 1 3.76-3.776 3.77 3.77 0 0 1 3.762 3.776" fill="#1C1C3D"/><path d="M83.122 58.943a3.75 3.75 0 0 0-3.095 1.632 3.737 3.737 0 0 1 2.135-.668 3.77 3.77 0 0 1 3.761 3.777c0 .796-.247 1.534-.667 2.144a3.777 3.777 0 0 0 1.627-3.109 3.77 3.77 0 0 0-3.761-3.776" fill="#292949"/><path d="M19.76 79.756a2.979 2.979 0 0 1-2.969-2.98 2.979 2.979 0 0 1 2.97-2.982 2.978 2.978 0 0 1 2.968 2.981 2.978 2.978 0 0 1-2.969 2.981m0-8.218c-2.876 0-5.217 2.349-5.217 5.237s2.34 5.237 5.217 5.237c2.876 0 5.216-2.349 5.216-5.237s-2.34-5.237-5.216-5.237" fill="#FFF"/><path d="M17.944 71.866l.602 2.19a2.934 2.934 0 0 1 2.428 0l.603-2.19a5.171 5.171 0 0 0-3.633 0m3.632 9.819l-.602-2.19a2.933 2.933 0 0 1-2.428 0l-.603 2.19a5.172 5.172 0 0 0 1.818.327 5.17 5.17 0 0 0 1.815-.327m1.153-4.91c0 .435-.094.847-.26 1.219l2.18.605a5.226 5.226 0 0 0 .327-1.824c0-.64-.115-1.256-.327-1.824l-2.18.606c.166.372.26.784.26 1.218m-5.938 0c0-.434.094-.846.26-1.218l-2.18-.606a5.226 5.226 0 0 0-.327 1.824c0 .641.115 1.256.326 1.824l2.182-.605a2.966 2.966 0 0 1-.261-1.219" fill="#DD1B20"/><path d="M8.595 74.17c2.862 6.463 9.272 10.72 16.435 10.72h39.844a41.272 41.272 0 0 0 27.733-10.72H8.595z" fill="#E4E5E6"/><path d="M108.968 52.597c-.45 0-.816-.35-.816-.78 0-.432.366-.781.816-.781.45 0 .816.35.816.78 0 .432-.365.781-.816.781m5.41 6.727l-.505.216a.138.138 0 0 0-.025.241c-.86 1.08-2.368 1.447-4.134 1.52l-.433-7.036 1.765-.105a.191.191 0 0 0 0-.382l-1.795-.107-.04-.767c.525-.107.919-.553.919-1.088 0-.614-.52-1.112-1.162-1.112-.642 0-1.161.498-1.161 1.112 0 .535.393.981.918 1.088l-.04.767-1.795.107a.19.19 0 1 0 0 .381l1.765.106-.433 7.036c-1.766-.073-3.273-.44-4.135-1.52.12 0 .154-.165.043-.212l-.572-.245a.138.138 0 0 0-.191.14l.049.529c.01.104.128.16.214.1l.038-.025c.944 1.703 2.811 2.557 5.077 2.617l.101.195c.052.1.193.1.244 0l.102-.195c2.265-.06 4.133-.914 5.076-2.617l.038.025c.087.06.205.004.214-.1l.05-.529a.138.138 0 0 0-.192-.14" fill="#1C1C3D"/></g></svg>