<svg width="120" height="120" viewBox="0 0 120 120" xmlns="http://www.w3.org/2000/svg" xmlns:xlink="http://www.w3.org/1999/xlink"><defs><path id="a" d="M0 .127h119.375v76.078H0z"/></defs><g fill="none" fill-rule="evenodd"><path fill="#97B0BE" d="M50.72 77.661l1.975-.874 1.265-1.113.553-.875h.79l-.554 2.703-1.659.637-1.816 1.271-1.185-.795zm-12.087-6.995l1.58 1.987 2.212.875.79.953 1.66.239 1.185.318 1.5-.08 1.66.398 1.896.874.868-1.669-1.975-1.51-2.606-.398-1.738.16-.949-1.034-2.686-1.352-1.264-.795zm-12.957 9.619l2.291-2.544.395.636.554.874-.395.557-1.343 2.226-.475.954s-.868-.16-1.027-2.703m11.653-8.639c-1.15.22-2.842.728-3.987.989-.942.214-1.068-.416-1.936-.769l.341 1.098s1.14.495 1.31.907c.17.411.428.824.428.824s2.648.824 2.904 1.153c.256.33 1.88 1.565 1.88 1.565s.342 1.566.342 1.895c0 .33.443 2.09.443 2.09l.217 2.197 1.047-3.151 1.053-6.042s-1.82-.12-2.162-.45c-.252-.241-1.525-1.314-1.88-2.306m55.87-4.982l-1.554-.45-3.397-4.001-1.791-.636-1.607 4.796-1.659.61-6.215 2.65 3.53 2.066 1.737.795 1.264 1.67-.474.556-.948.398-.553-.398-.632.954s1.027 1.829 1.501 2.544c.474.716 1.738 2.226 2.45 2.783.71.556 2.053 1.907 2.053 1.907s-.553-1.272-.71-1.907c-.158-.636-.317-1.909-.317-1.909l.554-1.113s2.267-.96 3.171-1.368c-.122-.92-.231-2.15.068-2.05.39.131 1.47.53 1.8 1.066l.49-.27 1.502.158.632-2.464.948-1.828.395-1.273-2.238-3.286z"/><path d="M36.895 91.255l3.002-5.644 1.185-2.782 1.897-6.28s1.421-.557 1.816-.398c.395.16 1.185.08 1.58.08h1.818l.948.556-.475 1.59s.159.715.633.954 1.975 1.192 1.975 1.192 1.738-.715 1.975-.795c.237-.08 1.027-.318 1.027-.318s.79 1.193 1.343 2.385a120.26 120.26 0 0 1 1.264 2.862l.237.556-.316 3.34s-.948-1.034-1.264-1.352c-.316-.318-.87-1.51-.87-1.51s-3.475-.398-4.424-.398c-.947 0-3.555-.318-3.555-.318l-2.054 1.113-.71.795-2.134-.159s-1.027.954-1.501 1.351c-.474.398-3.397 3.18-3.397 3.18m21.094.875s1.185-4.531 1.817-5.962c0 0 1.738-1.193 2.133-1.352.395-.159 2.134-1.113 2.134-1.113s1.105.874 2.133 1.113c1.026.239 3.238 1.431 3.238 1.431s.87.874 1.027 1.272c.159.398.87 2.067.87 2.067s-1.106-.556-1.738-.398c-.632.16-3.556 1.51-3.872 1.67-.315.159-4.187-1.67-4.187-1.67s-1.185.398-1.58.875a33.403 33.403 0 0 0-.869 1.113l-1.106.954zm14.063-9.699s-.395 1.113-.395 1.352c0 .238 1.5 2.862 1.738 3.339.237.476.474 1.192.474 1.192l.079 1.43s.474 3.022.71 3.738A3482.1 3482.1 0 0 0 76.871 100l-.237-2.703s0-4.452.474-5.565c.474-1.112 1.264-2.384 1.264-2.384l.079-1.431s-.869-1.272-.632-1.988c.237-.715 1.501-2.385 1.975-2.862.475-.477 2.45-3.02 2.45-3.02l-2.055-2.385-.71-.637s-1.344 1.59-2.134 2.147c-.79.556-5.293 3.26-5.293 3.26" fill="#97B0BE"/><path d="M77.266 71.302l-.553.557-.316 2.86-1.264 1.194-3.081 2.384-2.37 1.75-.395 1.033-2.291-.477-1.817-.954-1.976.397-2.37.636-2.054-1.749-1.738-2.067-1.738-1.271-.316 1.907 1.58 2.783 2.054 4.293 3.081-1.193 2.45-1.113 1.184.636 2.054.398 2.529 1.033-.08-1.749s1.58-1.271 2.054-1.59c.475-.318 3.714-2.385 3.714-2.385l2.37-1.907.79-.319.237-.794 1.027-2.226-.869-1.192.474-1.352-1.106-.239-1.264.716z" fill="#97B0BE"/><path d="M31.26 51.19c.21-.319 1.896-3.817 1.896-3.817l2.738-2.65 2.212-2.649 4.424.317 2.107.743 4.108-2.544 2.213-1.246 3.054 2.2 7.796-.742 3.686.424 4.53-2.12 5.478-.636-.422 2.226 2.528 2.756 1.475 1.616 3.713-2.147 4.266-.079.158 2.226 5.136-1.616h6.215l-2.318 3.815-1.685 2.226-1.896 2.544-.395 1.537-.975 1.643-.21.954-2.107 1.166-1.158 1.378-2.002 1.378.368 2.067-1 2.703-.816 1.59-1.502.317-3.055 1.696-2.423 1.166-.842 2.756-.237 2.809-2.291 1.537-3.476 2.597-1.264 1.75-1.686-.214-3.476-1.483-3.291 1.299-3.872-4.161-1.58-.53-.08-1.192-1.5-1.034h-1.16l-.657.795-1.976-1.51-2.607-.398-2.212.16s.29-.743-1.185-1.273c-1.475-.53-3.687-1.802-3.687-1.802l-2.633.425-4.635.318-.58-1.167-.263-2.332-1.369-.318-1.16-1.483-2.421-1.696-.632-2.438 1.474-1.378.21-2.226-1.764-1.802.817-3.498 1.369-1.166 2.528.212z" fill="#B26254"/><path d="M31.76 76.151l-.159-1.43-1.105-.637-.395-3.972-.948.58-1.053-1.378s-1.265-1.59-1.37-2.65a8.96 8.96 0 0 0-.171-1.02l-2.568-2.583-1.791.212s-2.66.556-2.739.318c-.079-.239-4.108-1.273-4.108-1.273l-2.212.425s-1.764-.107-2.87.927c0 0 2.238-.927 5.82.769 0 0 1.685 1.775 2.95 2.332 1.263.556 3.288 1.747 4.318 2.437 1.896 1.272 2.318 4.876 2.318 4.876l1.422-.397.79 1.828.79.318 1.106.583.632 1.272.737 1.908 1.896 4.558-1.29-8.003z" fill="#97B0BE"/><path d="M33.34 35.051c-.632.398-3.95 3.657-3.95 3.657s.71 1.193 1.026 1.67c.317.477.396.795.79 1.192.396.397.08 1.033.08 1.033l.869.637H30.89l-.79-.16-.473-1.35s-1.027-1.352-1.186-1.75c-.157-.397-1.027-1.193-1.027-1.193 2.45-2.544 6.4-4.61 6.4-4.61s.158.477-.474.874zM21.784 48.334l.19-.059-.09.052-.1.007zm82.501-8.433c-.395.159-1.58.238-1.58.238s-1.738.795-2.449.875c-.71.08-3.002-1.113-3.002-1.113-2.133.556-5.609 1.59-5.609 1.59l-.553-.398.79-1.43.632-1.67 1.501-3.021c.158-.318.474-1.67.474-1.67l1.5-1.907 1.976-3.975-1.264 1.193s-1.817 2.066-2.29 2.464c-.475.397-1.423.794-1.423.794s-3.319 2.624-5.214 3.896c-.607.406-2.845 4.213-2.845 4.213s-1.58.318-2.449.318c-.87 0-3.08-.16-3.08-.16s-1.107-4.213-1.581-5.723a608.76 608.76 0 0 1-1.5-4.928l.315-6.519c-.237.795-1.343 5.724-1.659 6.677-.316.955-.632 6.042-.632 6.042L73 36.243c-2.45-1.35-9.639-3.736-9.639-3.736l-.553-.874s-.553-.397-.948-.715c-.395-.318-1.659-2.067-1.659-2.067.474 2.067 2.133 4.372 2.133 4.372l.79 1.828.948.636 2.528 1.431c-.632.795-1.58.875-2.607.795-1.027-.08-3.002-.874-3.002-.874s-1.58.08-1.896.238c-.316.16-.974 1.087-.974 1.087l-.606-1.087s0-.635-.079-1.352c-.08-.714-1-3.39-1-3.39-1.265 1.165-3.03 2.676-3.266 2.914-.237.238-.316 1.51-.316 1.51-.87-.317-1.027-1.192-1.502-1.828-.473-.636-1.263-2.862-1.263-2.862s-.474-2.544-.632-4.055c-.159-1.51-.475-7.074-.475-7.074l-1.185 5.008s.08 4.452.158 6.2c.08 1.75-.236 5.326-.236 5.326-3.003.875-7.111 2.544-7.111 2.544-.553.08-1.343-1.748-1.343-1.748-.87-.239-1.58-1.67-1.738-1.988-.158-.318-.948-.874-1.422-1.59-.475-.715-2.291-4.85-2.291-4.85l-1.501-1.907 1.817 3.975.473 1.192c-.395-.635-1.658 0-1.658 0-1.66.636-5.294 2.783-6.004 2.941-.712.16-3.319-1.43-4.583-2.702-1.264-1.272-2.844-2.703-2.844-2.703 2.291 3.975 6.399 7.87 6.399 7.87l.87.636c.552 1.829 2.053 4.214 2.053 4.214-1.027 1.351-2.054 2.782-2.054 2.782s-4.977-1.59-5.45-1.59c-.475 0-3.16 0-4.583-.477-.618-.207-1.738-1.193-2.528-1.193s-2.37-1.033-2.37-1.033c.948 1.431 1.817 1.749 1.817 1.749l4.345 2.226s-4.345 0-5.372-.16c-1.028-.159-3.871-1.59-3.871-1.59-3.319-.556-8.69-.396-8.69-.396l6.556 1.51 4.899 2.464s1.421.795 2.37.875c.694.058 2.315.71 3.136 1.058l1.262.77 3.37-.424 2.529.954-.949 2.756s-1.474.318-1.79.318c-.316 0-1.58.318-2.107.636-.527.318-5.161 1.166-5.161 1.166h1.58l4.424.106 1.896-.318 1.79 1.802-.526.848s-2.739.742-3.16.742c-.422 0-2.212.318-3.16-.106s-3.687-1.272-3.687-1.272-.943.696-3.477 2.225c0 0-2.37.663-2.686 1.06-.316.398-.79 1.352-.79 1.352l-1.685 1.829-2.106 1.749 3.08-.954s1.817-1.67 2.133-1.83c.317-.158 2.212-.873 2.212-.873l1.66-.557.035-.476 2.15-.451 3.582.53 3.266.742 4.108-1.485 3.265-1.483-.316-1.908-1.238-1.59-.342-1.696 1.475-2.756.421-2.226-1.686-.72c1.733.578 4.32 1.595 4.32 1.595l1.5-1.59 2.924-2.624 2.686-2.544-.206-.754.206.198 1.659.159 2.37.238 2.686.557 6.4-4.134s2.29 1.988 3.95 1.67c1.659-.318 11.376.635 11.376.635l4.187-2.623 3.477.239 1.58 1.51 2.37 3.18 1.185 1.113 2.133-1.034 1.58-1.113 4.267-.079.157 2.226 5.926-1.67 4.977.16-1.58 4.213.974-.716 1.791-1.272s1.264-1.272 1.66-1.749c.394-.476.868-1.828.868-1.828l2.37-.954 4.346-2.941s-3.872 1.43-4.267 1.59zm-10.56 11.924l-.421 4.452-.527 2.438s-3.686 3.71-3.686 3.392c0-.318-3.477-1.379-3.477-1.379s0-.635.843-.953c.842-.318 2.528-2.438 2.528-2.438l2.107-1.166s-.106-1.06.21-1.378c.316-.318 1.37-2.756 1.37-2.756s1.053-1.696 1.053-.212m14.668 22.418c-.71-.795-2.765-2.225-2.765-2.225l-1.264-.398s-2.449-2.464-2.686-3.1c-.237-.637-.859-2.984-1.422-4.214-1.396-3.047 3.795-3.382 3.687-3.79-1.458-.01-2.517-.334-4.003-.105-.57.087-3.123.412-3.677.452l-.747.502-2.317 2.968 2.001 2.014 2.317 2.437 1.897 3.392-.844.106-2.106-1.457s-.87 2.782-.79 3.338c.079.557.079 1.193-.158 1.431-.237.24-1.106 1.431-1.106 1.431l-1.527 2.57s2.08-1.616 2.475-1.854 1.58-2.226 2.054-2.226c.474 0 1.264.16 1.264.16h4.108l3.266.635s-2.397-.954-2.554-1.192c-.159-.239-1.976-1.272-1.976-1.272l-2.29-.954 4.818.874 3.556 1.67 4.818 2.146-1.58-1.51s-1.738-1.034-2.449-1.829m7.032-20.193l-3.08.637-2.608.159-1.738-.238-2.055.636.475-2.227 3.95-1.669.157-.557-.947-1.271-2.844 1.51-.395-.954 1.184-.954-.316-.556-3.238.477-6.367 2.712-1.034-.142 1.37-2.12.316-.742.948-2.014-2.634 3.286-1.474 2.12s.21 3.71-.527 5.83c-.121.348.324.824.871 1.256 1.13-.188 2.278-.31 3.408-.45 1.413-.177 2.88-.336 4.238.177.135.05.242.132.325.23l1.903-.047s1.106-.636 1.5-.875c.395-.238 1.422-1.43 1.422-1.43l3.161-.239.553-.556 1.421-.716 3.872-1.51-1.817.238zm-87.642 10.6l.737 3.287 2.318-.849s-1.054-2.543-3.055-2.437" fill="#97B0BE"/><path d="M38.95 54.687h2.21c.739 0 1.739.795 1.739.795s-1.633-.477-1.949-.371c-.316.106-.948.848-.948.848l-2.317-.636s-.106-.53 1.264-.636m17.697-9.699l.158 2.227s.536-1.311.632-1.75c.096-.438 2.985-.49 2.985-.49l.384-.438 1.055-.175s-1.439-.176-2.014-.176c-.576 0-3.008-.162-3.2.802m10.85 9.169s-.316-.318-.948.106c-.633.424-1.054 1.166-1.054 1.166l.21 2.332s.37-1.166.686-1.59c.316-.424 1.475-.53 1.475-.53s.948-.954 1.58-.954c.631 0 2.475-.424 2.475-.424s-1.79-.106-2.107-.106h-2.317zm-13.958.423s.738-.211 1.054-.211c.316 0 2.054.318 2.054.318h1.685s-1.895.53-2.423.53c-.526 0-2 .318-2 .318l-.95-.106.58-.848zm-6.057.213l1.58-.265.527.795s-2.001 0-2.107-.53m-4.529 10.282s2.423.424 3.37.424c.949 0 2.424.53 2.424.53s-2.423 0-3.055.105c-.632.106-2.107.424-2.107.424s-1.475-.953-.632-1.483m21.91-.742h2.844c.527 0-.474.583-.474.583s-.948.318-1.58.424c-.632.106-2.054.158-2.054.158s.211-.847 1.264-1.165m3.898-17.172s0 1.06.105 1.378c.106.318.264-.053.264-.053s.473-1.113.684-1.43c.21-.318 2.475-1.75 2.475-1.75s-3.317.584-3.528 1.855" fill="#FF988A"/><path d="M77.292 49.705c-.316.424-1.58.318-2.317.318-.737 0-3.155.452-4.214.636-2.37.414-3.937-1.002-4.177-1.236l.016-.619s.582-1.058 1.897-2.861c.868-1.193 3.634-1.962 3.634-1.962l3.634.849 1.778.804c-.022.612-.04 1.2-.04 1.422 0 .529.105 2.225-.21 2.65zm-11.17.89l.252.1-.037.282-.214-.383zm-2.629-.148c-.421.318-1.896.424-2.423.318-.526-.106-3.581.106-4.53 0-.948-.106-2.422-1.166-2.422-1.166-.737-.106-.21 2.438-.21 2.438l6.004 1.06.5-.036c-.064.187-.215.728.132.99.42.318.315 1.378.315 2.226 0 .848-.631 2.12-.947 2.756-.317.636-2.002 1.696-2.529 1.802-.526.106-3.897.317-5.266.106-1.37-.212-3.161-.318-3.688-.848-.526-.53-1.895-3.074-2.107-4.346-.21-1.272 1.37-2.332 1.37-2.332-.527-.636-2.212.318-2.212.318l-.314 1.581-.213-.733-1.158 2.332s-.211 2.544-.316 2.968c-.106.424-1.58.848-1.58.848s-2.213.106-2.74 0c-.526-.106-2.211-.742-2.211-.742l-1.265-.53-1.158-1.802.316-2.544 1.264.106s1.053-.636 1.474-1.166c.422-.53 2.107-1.59 2.107-1.59l-1.263-.424-2.107.742-2.95-.212 2.95-.212 2.528-1.271 1.58 1.377 3.055.848.875-.203.283.309s5.583-.742 5.9-.742c.315 0 2.422-1.06 2.422-1.06l.527-1.378.12-2.42.196-.76 1.264-2.12s1.79-1.59 3.37-1.696c1.58-.106 4.53.212 4.53.212l1.79.955.738 2.756v2.307l-.105-.188s-1.475.848-1.896 1.166zm-20.752-3.18c.422-.424 3.16-1.272 3.16-1.272l.948.742.721-.279 1.07 1.975s.085-1.29.147-2.446l.801-.31.738-1.484.343.095a3.5 3.5 0 0 0 .078.754c.316 1.483.105 4.77.105 4.77s-.632 1.59-1.369 1.695c-.516.074-3.294.304-4.921.435l-.978-.435c-.948-.423-1.58-1.378-1.58-1.378s.315-2.437.737-2.862zm51.827-2.543l-2.528-.955-6.637 1.273-2.844-1.379-2.844 1.59-1.546-1.011-.455-1.215-1.791-2.12L74.764 39l-3.792-.424-3.897 2.755-5.689-.423h-4.845s-2.845 0-2.95.318c-.03.09-.06.442-.088.897l-2.545-1.639-2.213-.106-3.054 2.332-3.582 1.06-1.79-1.06-2.845-.212-1.053 1.801-4.108 4.876-4.424 2.014-1.16 2.862 1.686 3.18.526 3.286 2.107.953c0 .425 2.845.637 2.845.637l4.213.636 1.896.742 4.53-.742 1.264-1.06-.092-3.994c.217.606.427 1.17.514 1.344.21.424-.632 3.604-.632 3.604l1.369.318s3.265 0 4.319.106c1.053.106 3.792 2.332 3.792 2.332l-2.107-1.485s-.421.955-.842.955c-.422 0-2.107.424-2.107.424s1.685.53 2.001.742c.316.212 1.58 1.377 1.58 1.377s-.632.742-.948.954c-.316.212-.421 1.272-.421 1.272s-.698.702-1.127 1.02c-.963.063-2.285.176-3.192.358-1.58.319-5.056-.954-5.056-.954-1.58-.212.632 1.379.632 1.379L45.48 72.6s2.633-.212 3.37 0l2.634.742s2.95.53 3.266.742c.316.212 1.475 1.802 1.475 1.802l1.264 1.908 3.055 2.332s1.895-.424 3.265-.742 2.739 1.378 2.739 1.378l2.317.212.633-1.802 3.054-2.014 3.055-2.12.527-1.484-.422-1.695 1.054-2.438 5.372-2.756 2.844-.53-.105-1.378.632-1.166-.316-1.59-.316-1.696 2.633-1.802 2.844-2.332.316-2.12-1.896-.954-5.162-.424-2.527-.318c-2.634 0-2.423 2.332-2.107 2.12.316-.212 2.423-.106 2.423-.106s.315 2.862-.422 4.028c-.737 1.166-2.528 1.484-2.528 1.484l-.316 2.438-2.212.53-3.898.318-3.16-.212 1.58 1.696.422 2.755s-.632 2.226-1.264 2.756c-.633.53-3.266 1.379-3.266 1.379l-2.423-.849s-2.844.424-4.108.212c-1.264-.212-2.212-2.12-2.212-2.12l-.527-1.378.843-3.603.572-.734a3.06 3.06 0 0 0-.361 1.688l-.316 1.484s3.476-.742 4.74-1.484c1.264-.743 2.528-1.696 2.528-1.696l-.458-.533 1.511.32h4.951l2.529-.105 4.529-.424V58.29l.105-3.604-.948-2.014-4.424.212s1.264 1.06 1.58 1.272c.316.212.316.954 0 1.272-.316.318-1.58.848-2.212.954-.632.106-.843 1.272-.948 1.696-.105.424-1.58 2.332-1.58 2.332s-2.95.318-3.687.106c-.737-.212-1.58-1.59-1.58-1.59l-.278 3.077-.46-.534-1.79.743-2.844.106 2.317-.637 2.318-.847.526-2.862-.21-3.286-1.159-1.802s2.844-.742 3.16-.848c.316-.106 2.95.954 2.95.954l6.214-.53 4.53-.318 2.739.318 6.32.636 2.844.212 2.318-3.286 1.159-2.967-.527-2.332z" fill="#6A3B33"/><path d="M49.483 53.203s1.158 1.696 1.58 2.226c.422.53.948 1.166.948 1.166l-.21-3.604s-1.16-.212-2.318.212M36.842 65.922c0-.424-.632-2.12.316-2.437.948-.319-1.686-1.06-2.002-1.06-.315 0-7.162-.53-7.162-.53l.21 1.802 2.74 1.907 2.422 2.12.632 1.908 5.794-.318s-2.95-2.12-2.95-3.392" fill="#6A3B33"/><path d="M67.39 62.319s3.477-1.113 4.424-1.113c.949 0 2.845-1.113 2.845-1.113l1.106-.477s.158-1.272.316-2.385c.158-1.113.316-1.908.316-1.908l.895-2.65.211 4.24.158 4.61-1.738 1.325-3.002-.211-5.53-.318zm16.907-10.335s1.897-.636 3.476-.954c1.58-.318 3.002-1.272 3.002-1.272l3.319-2.543 1-.16-3.213 5.406-2.211.318-5.373-.795zm-5.846 9.381s.948-.954 2.686-.478c1.739.478 3.634 1.909 3.634 1.909l.106 1.96s-6.426-1.96-6.426-3.391m-23.859 4.611s.948 2.067.79 3.02c-.158.954-.474 3.022-.474 3.022l-1.422 1.59 1.106 1.27 2.37-1.43.316-3.498-.21-2.543-2.476-1.431zM37.053 51.825s-2.036-.961-1.264-.795c.93.2 2.058-1.69 2.058-1.69l.628-1.013.474 2.067s-.316 1.59-1.896 1.431M72.92 63.75s1.265 1.749 1.581 2.544c.316.794 1.106 1.749 1.106 1.749v2.384l.106 1.431-2.634.477s.158-3.816 0-4.452c-.158-.636-.949-5.246-.158-4.133M60.912 74.72s2.528.477 2.844 1.908c.316 1.431-.632 2.544-.632 2.544l2.528.318v-3.657s-3.16-1.749-4.74-1.113m6.794-.318s2.529.795 3.318.795c.79 0 3.319.159 3.319.159l1.264-.318.527-1.484s-5.9.053-8.428.848" fill="#514E60"/><path d="M43.136 36.005l-.474-1.271s-.711-.08-1.185.476c0 0 .316.795.553 1.352l1.106-.557zm46.691 39.828l-.105-.901c-.105-.212 1.001.318 1.001.318l-.896.583zm1.739-.901c-.211-.053-1.686-.742-1.686-.742s-.526-.318-.631.159v1.855c0 .265.368.53.631.477.263-.053.948-.636 1.159-.742.21-.106.685-.424.685-.424s.052-.53-.158-.583zm18.013-30.527c-.316.266-1.053 1.59-1.053 1.59s.316.477.632.371c.316-.106 1.579-1.643 1.579-1.643s-.842-.583-1.158-.318M109 49.07c-.106.211-3.266 1.801-3.266 1.801l-.106-.318s2.266-1.272 2.792-1.537c.527-.265.685-.159.58.053m.21-.901c-.263 0-2.95 1.378-4.319 2.332 0 0-.053.371.052.69.106.317.37.741.79.688.422-.053 2.266-1.06 2.687-1.272.422-.212 1.37-.689 1.475-.901.105-.212 0-.742 0-.742s-.422-.795-.685-.795m-1.106 19.98c0 .212-.264.424-.264.424l-1.263-.477-.053-.318s.79-.053 1.211 0c.37.047.369.16.369.371m-2.107-.9s0 1.218.105 1.378c.106.158 1.107.53 1.107.53l.79.317s1.369-.847 1.316-1.113c-.052-.265-.632-1.219-.632-1.219s-1.37-.264-2.686.106M82.296 37.622c.474-.212 1.264 0 1.264 0v.848l-.368.053-.58.158-.316-.158v-.901zm0 1.643s1.159.106 1.317 0c.157-.106.579-.69.579-.69s-.053-.9-.106-1.165c-.052-.265-.263-.636-2.264-.53 0 0-.316.265-.316.476 0 .212.105 1.485.158 1.644.052.159.632.265.632.265zM23.043 73.82s-.948.264-1.106.264c-.158 0-.422-.265-.422-.265.159-.053.79-.318 1.106-.318.316 0 .843.212.843.212l-.421.106zm1.211-.16s-.158-.53-.421-.53H21.99s-.738.212-1.159.477l.105.477.685.689s.369.265.58.16c.21-.107 1.263-.53 1.474-.69.21-.159.58-.583.58-.583zm.527 3.763c-.316.106-.58-1.06-.58-1.06s2.423-2.014 2.687-2.12c.263-.106.527.901.527.901s-2.318 2.173-2.634 2.28m2.686-3.71s-.474-.478-.684-.319c-.211.159-3.266 2.756-3.266 2.756l-.106.477s.422 1.06.474 1.378c.053.318.316.583.316.583s.527.265.738.106c.21-.159 2.634-2.544 2.845-2.862.21-.318.262-.424.21-.636-.053-.212-.527-1.484-.527-1.484" fill="#000"/><g transform="translate(0 22.285)"><mask id="b" fill="#fff"><use xlink:href="#a"/></mask><path d="M100.836 36.483c-.211.054-.79-.053-.79-.053l.532-.318c1.096-.583 3.207-1.484 3.207-1.484s.895-.477 1.264-.635c.369-.16 2.95-1.167 2.95-1.167l-2.002 1.485s-2.265.9-2.422 1.007c-.159.106-2.529 1.112-2.74 1.165zm-10.613.292c-.395.159-1.264 1.192-1.264 1.192l-.395.477-2.292-.715s1.422-.556 1.738-.795c.316-.239 1.186-1.431 1.186-1.431l2.211-1.034 1.343.08-1.659 1.351s-.473.716-.868.875zm-2.845 6.2l-.71 1.988-1.265-.716 1.185-3.656.474 1.112.316 1.272zm5.689-11.288c.079.556-.08 1.193-.08 1.193l-1.342.556s.316-1.113.632-1.51c.316-.398 1.027-1.829 1.027-1.829s-.316 1.034-.237 1.59zM84.534 43.85s-1.474-.159-1.896.159c-.42.318-1.685 1.166-1.685 1.166l-1.099.632c-.533.223-1.063.419-1.534.587a5.43 5.43 0 0 1-1.604.319c-.223.693-.41 2.13-.793 2.78l-.158 3.022s-2.054 1.67-2.528 1.987c-.474.318-3.002 2.227-3.002 2.227l-.553.238-1.107 1.272s-2.054-.477-2.527-.795c-.475-.318-1.58-.954-1.58-.954s-.712.239-1.185.556c-.475.318-2.292.954-2.292.954s-2.054-2.146-2.765-2.941a53.399 53.399 0 0 1-1.422-1.67l-.948-.556s.237-1.272 0-1.351c-.237-.08-2.607-.637-2.607-.637s-.87.08-1.185.955c0 0-.87-.398-1.106-.637-.285-.286-.711-1.192-1.186-1.112-.473.08-3.87-.08-3.87-.08s-.317-.556-.79-.636c-.3-.05-1.096-.477-1.746-.847a4.649 4.649 0 0 1-.957-.312c-.37-.16-1.277-.952-1.485-1.305-.622-.127-1.84-.156-2.147-.296 0 0-3.842.592-4.726.773-.334-.51-.676-.954-.874-1.601l-.064-.511c.148-.75-.273-.856-.273-.856l-1.475-.212-.738-1.166s-1-1.06-2.107-1.484c-.66-.253-.948-2.438-.948-2.438l2.766-.795-1.054-2.437.211-1.06s-1.791-.425-1.896-.743c-.106-.318.053-1.749.369-2.596.315-.848 1.395-1.696 1.395-1.696l2.528 1.06s.21-1.697.738-2.332a43.713 43.713 0 0 0 1.159-1.485v-1.59l.737-.847.842-.106 2.95-1.696s.5-.356.467-.697a.236.236 0 0 0 .021-.002l.065-.07-.14-.496a58.004 58.004 0 0 1-.05-.538l.901.557s1.264-.08 2.133 0c.87.08 2.765.319 2.765.319s1.423-.795 2.054-1.193c.633-.397 3.082-1.749 3.082-1.749l1.343-.875s2.054 1.829 3.002 2.067c0 0 1.975-.08 3.002-.158 1.027-.08 3.634-.398 3.634-.398s4.187.636 5.689 1.272c0 0 1.58-1.192 2.132-1.67.554-.477 1.976-1.669 1.976-1.669l3.95.16-.396 1.032s2.134 1.51 2.45 2.226c.316.716.158.875.711 1.273.553.397 1.66 1.351 1.66 1.351l.71.159s1.106-.636 1.422-.875c.316-.238 1.186-.715 1.186-.715s1.5-.16 1.895-.16h1.58l.633-.237-.395.635.236 1.908s1.185-.556 2.134-.795c.947-.238 2.449-.477 3.002-.636.553-.159 2.449-.635 2.449-.635s1.975-.318 3.713-.318c0 0-.617 1.052-1.194 2.072-.368.526-.774.997-1.15 1.187 0 0-1.37 1.801-1.79 2.332-.422.53-1.58 1.801-1.58 1.801s-.106 1.909-.212 2.65c-.059.421-.817.918-.71 1.882-.449.253-1.349.753-1.736.91-.527.211-1.053 1.165-1.37 1.377-.316.212-2.662 1.608-2.662 1.608l.659 2.809-1.054 3.392zm-1.343 2.783l-1.659 1.669s-.87-.477-1.501-.636c-.632-.16-2.054-.318-2.054-.318 1.422-.318 3.16-1.272 3.397-1.43.237-.16 1.185-.955 1.58-.955s1.975.795 1.975.795-1.5.636-1.738.875zm-.895 3.842c.158.158.685 1.271.685 1.271l-1.107.318s-1.58-.847-1.738-1.165a31.576 31.576 0 0 0-.579-1.06l.316-.212s1.212.53 1.37.583c.158.053.895.106 1.053.265zm-3.477 1.96c-.157.372-.368 1.326-.368 1.326l-1.264-.53s.106-.901.158-1.273c.052-.37-.052-.689 0-1.165.052-.477.316-1.06.316-1.06l.421-.265s1.001-.583.79-.371c-.21.212-.42.741-.42.741s.051.372.157.583c.105.212.58.424.58.742 0 .319-.211.901-.37 1.273zm-3.317 3.658c-.475.424-3.214 1.88-3.53 1.987-.316.106-1.632 1.405-1.632 1.405s.053-1.008.158-1.325c.105-.319.369-.69.369-.69s2.265-1.484 2.791-1.855c.527-.37 2.528-1.642 2.528-1.642l1.159.583s-1.37 1.113-1.843 1.537zm-7.9 4.61s-.844-.318-1.054-.37c-.211-.054-1.264-.478-1.475-.69-.21-.212-.685-.424-.685-.424l-.052-.953c.263-.16.79 0 .79 0s.42.317.79.476c.369.16 2.686.955 2.686.955l.316 1.219.368.582-1.685-.795zm-6.058-.477c-.365.214-1.15.64-1.749.962.346-.76 1.117-2.128 1.117-2.128s.474-.106.79-.265c.316-.159 2.002-.635 2.002-.635l.158 1.218s-1.686.477-2.318.848zm-2.686.796c-.105-.212-.632-1.167-.632-1.167s-1.317-2.067-1.738-2.862c-.421-.794-1.37-1.907-1.37-1.907.37-.636.474-1.167.474-1.167l.37.319s1.158 1.483 1.737 2.013c.58.53 1.686 1.855 2.002 2.226.315.371.684.477.684.477-.337.53-1.02 1.835-1.387 2.543a2.027 2.027 0 0 0-.14-.475zm-4.74-6.096s-.527.106-1.16.424c-.631.319-1.579 1.113-1.579 1.113l-.527-.636s1.264-2.014 1.475-2.49c.21-.478.21-.795.21-.795l.527-.53c.474 0 1.791.795 1.791.795l-.737 2.12zm-3.424-1.643c-.579-.158-1.58-.953-1.58-.953l.79-1.007c.422.105 1.264 1.113 1.264 1.113-.21.635-.474.847-.474.847zm-2.896-1.377c-.211 0-1.265.212-1.265.212s-.895 0-1.58-.16l1.528-.953s.948-.212 1.106-.212c.158 0 .421.212.684.212.264 0 1.265-.054 1.265-.054l-.843 1.007s-.685-.052-.895-.052zm-4.214-.795l-.263-.478s-.738-.052-1.317-.106c-.58-.052-.843-.264-1.106-.476-.263-.213-1.422-.954-1.422-.954l-.685-.716c.263-.265 1.738-.238 1.738-.238.474.106 1.159.848 1.58 1.06.421.212 1.58.635 1.896.689.316.053.79.265.79.265l-1.21.954zm-12.299-4.558l-2.054.954-.395-.239.08-.953 3.001-.875-.632 1.113zm-3.08-2.942c-.02-.057-.107-.55-.159-.715.375.015 1.369.76 1.66.954.397.304.395.715.395.715l-1.502.637s-.316-1.352-.395-1.59zm3.412-22.146l.933.206s.79.635 1.343 1.43l-.948.636-1.328-2.272zm-1.832-2.339c-.238-.397-1.897-2.702-1.897-2.702s1.738-1.51 2.37-1.988c.632-.477 1.818-1.51 2.292-1.67.402-.134 1.598-.954 1.951-1.2l1.106 3.012c-.04.421-.115 1.39-.055 2.402.079 1.351.79 3.657.79 3.657l-1.975 2.279-1.422-1.961s-.712-.08-1.028-.08c-.316 0-1.184-.238-1.184-.238s-.711-1.113-.948-1.51zm15.247-1.35l.396 1.748-1.107.477c-.948-.636-1.5-1.51-1.5-1.51.79-.557 2.211-.716 2.211-.716zm22.622-2.863s-1.422-.636-1.844-.954c-.421-.318-2.16-1.166-2.16-1.166l-.21-.37 2.16.583s1.158.9 1.738 1.218c.58.318 1.948 1.113 1.948 1.113l-1.632-.424zm11.798 4.876c.474-.053 1.633.424 1.633.424l-.106.583s-1.527 1.06-1.685 1.007c-.159-.053-.316-.742-.37-1.272-.052-.53.528-.742.528-.742zm15.186 28.964l-.465 1.457-1.027-1.988s-.21-.467-.498-.815l-.055-1.887 2.045 3.233zm-4.6-32.78c0-.477.21-1.537.527-1.802.316-.265 1.106-.9 1.106-.9s1.053-1.007 1.738-1.538c0 0-1.053 1.59-1.37 1.961-.315.371-.948 1.749-.948 1.749l-1.474 1.749s.421-.742.421-1.22zm16.934 18.655s.395-.397.552-.635c.159-.24 1.502-1.034 1.502-1.034h1.106l2.29-.239s2.213-.556 2.845-.794c.632-.24 4.108-.875 4.108-.875s-3.24.318-4.187.477c-.948.159-5.293.715-5.293.715l-1.818-.397-1.5.636-1.38.607c-.761.161-1.655.326-1.886.267-.421-.106-3.476.955-3.476.955s-2.107.423-2.74.317c-.631-.106-1.685.106-1.685.106l-1.645.497c.121-.969.276-2.334.276-3.04 0-.662.034-1.494.064-2.09l.19-.237c.278-.99.855-1.953 1.396-2.717.557-.787 1.162-1.5 1.83-2.142l-.03.004 2.844-4.452 4.187-1.59.475-.397s1.105-.636 1.975-1.192c.868-.557 3.08-2.624 3.08-2.624s-1.737 1.113-2.37 1.59c-.631.477-4.424 2.544-4.424 2.544s-3.081.716-3.555.874c-.474.16-3.871.239-4.582.239-.711 0-1.501-.239-1.501-.239-3.318.795-5.451 1.829-5.451 1.829l.632-2.067 1.658-2.226c.238-.318 1.66-1.828 1.66-1.828s.315-1.431.553-1.829c.237-.397 1.738-1.908 1.738-1.908.395-.874 1.106-1.987 1.738-3.02.632-1.034 2.528-4.85 2.528-4.85s-1.659 2.306-2.054 3.1c-.395.795-2.054 3.26-2.054 3.26s-1.027.716-1.264.874c-.237.16-1.66 1.511-1.66 1.511s-1.5.716-1.896 1.431c-.394.715-1.816 3.656-1.816 3.656-1.186 1.59-2.45 2.306-2.45 2.306l-3.396.08-.317-.875c-1.264-.238-2.923-.16-2.923-.16-.553.319-.87 1.353-.87 1.353l-1.342-1.273c.395-1.033 1.58-3.18 1.58-3.18s-.632-1.59-.79-2.464c-.158-.874-.474-4.213-.553-4.929-.079-.715-.395-1.748-.395-1.748s.158-2.306.158-3.1c0-.795-.08-3.578-.08-3.578s-.71 8.347-.71 9.221c0 .875.237 5.406.237 5.406l-.474 1.033-3.555-.158s-.396-.636-1.501-1.272c-1.106-.636-6.636-2.703-7.11-2.862-.475-.16-1.028-.795-1.344-1.431-.316-.636-1.106-1.67-1.106-1.67s1.027 2.863 1.343 3.499a15 15 0 0 0 .79 1.35s2.924 1.352 3.397 1.59c.475.24.79.796.79.796l1.58.874-1.975.954-5.003-.689-1.475.768c-1.975-.079-6.4.637-6.4.637-.71-.795-2.923-2.783-2.923-2.783s-.316-2.066-.473-3.339c-.159-1.272-.395-3.418-.711-4.293-.316-.874-.79-3.816-.79-3.816v7.633c0 .795-.158 1.987-.158 2.305 0 .318.316 3.02.316 3.02l-3.319 1.431a16.85 16.85 0 0 0-.395-1.43c-.71.079-3.16.715-3.397 1.033-.237.318.395 1.43.395 1.43l-2.607-.078s-2.054-1.988-2.45-2.386c-.394-.397-.631-1.43-1.026-2.305-.09-.199-.184-.317-.276-.385l-1.7-3.748L33.42 7.52s-.711-1.272-1.58-2.226c0 0 1.184 2.464 1.659 3.657.344.865.687 1.77.85 2.202a156.32 156.32 0 0 0-2.51 1.455c-.79.477-1.816.874-1.816.874l-3.793 2.544-1.106-1.43s-1.027-.398-1.343-.875c-.316-.477-1.659-2.146-1.659-2.146l-2.45-2.625s1.896 2.703 2.45 3.26c.552.556 1.421 1.987 1.658 2.305.237.318.553.954.948 1.35.395.4 1.343 1.432 1.343 1.432l1.265-.159s1.263 1.352 1.422 1.67c.157.317.553.874.71 1.271.158.398.554 1.034.554 1.034l.704.155 1.666 3.581-1.663 1.616h-1.05l-.316.637s-3.476-1.272-4.108-1.696a18.686 18.686 0 0 1-1.159-.848l-1.159.212-1.369-.477c-.395-.16-1.264-.636-1.264-.636s-1.738-.159-2.054-.239c-.316-.08-2.923-1.192-2.923-1.192l-2.213-.954s1.422 1.033 1.738 1.193c.317.158 2.529 1.033 2.924 1.271.395.239.948.716.948.716l1.66.08s.75.666 1.195 1.102c-.368.106-.72.214-1.045.318-.766-.01-1.74-.03-2.6-.07-1.739-.079-4.425-.238-4.425-.238l-1.105-.477s-2.212-1.192-2.528-1.272c-.317-.079-1.186-.715-1.186-.715l-2.449-.715s-1.467-.391-3.476-.557c-.789-.065-2.074-.147-2.765-.08 0 0 3.555.319 4.819.795 1.264.478 2.528 1.113 2.765 1.352.238.238 1.817.715 1.817.715l2.37 1.829s3.398.318 4.188.318c.623 0 1.484.098 2.056.179.626-.033 1.235-.056 1.775-.112l2.305.198s1.58-.637 2.317-.213c.737.425 2.423 1.803 2.423 1.803s-.948.847-1.264 1.696c-.316.848-.632 3.073-.632 3.073s-1.475-.424-2.213-.53c-.736-.106-1.58.424-1.58.424s-4.002.212-4.423.212c-.422 0-2.845.213-2.845.213l3.687.318s3.16-.212 3.687 0c.527.212 1.685.53 1.685.53l3.924.795.5 1.43s-2.212.319-2.949.53c-.737.212-3.897 1.378-3.897 1.378s-1.053.106-2.002-.106c-.948-.212-3.16-1.06-3.16-1.06l-1.264-.318s-.737.742-1.474.954c-.348.1-.787.246-1.156.374-.117.02-.23.044-.349.061l.01.057-.402.144-.511.468a3.4 3.4 0 0 1-.41.142c-.632.159-.948.238-1.423.556-.474.318-2.054 1.352-2.054 1.352s-.316.715-1.185 1.112c-.869.398-2.133.795-2.133.795l-1.738.954s1.264-.476 1.975-.636c.711-.158 1.502-.238 2.45-.795.947-.556 3.001-1.907 4.344-2.464.069-.028.14-.054.21-.081l4.478-1.085s1.896.318 2.528.53c.632.212 2.318.318 2.318.318l1.369.212.588-.107.025.048c.151-.044.302-.09.453-.136l2.41-.441s.632 1.166 1.58 1.908c.949.742 1.264 1.272 1.264 1.272s.527 2.12.632 2.862c.106.742 0 1.802 0 1.802l.738 1.484 1.004-.446.628 3.864.79.318 1.107 4.213-.395-5.087-.553-.398-.536-3.372.54-.24.612-.177c.219 1.382.727 1.96.727 1.96 1.027-.397 4.977-1.112 4.977-1.112s1.58 2.226 2.054 2.384c.474.16 2.923.637 2.923.637s-1.185 4.928-1.58 6.439c-.395 1.51-.948 4.532-.948 4.532l-.474.556s-.87 1.987-1.343 3.02c-.474 1.034-1.975 3.896-1.975 3.896l1.501-2.067s2.29-4.293 2.686-4.929a96.49 96.49 0 0 1 1.422-2.146l.158-1.67s1.343-3.975 1.58-4.77c.238-.794.395-1.033 1.027-1.35.632-.32 1.185.238 1.185.238h2.686c.396 0 2.134 1.113 2.134 1.113-.475.874-.79 2.066-.79 2.066.474.557 1.5 1.193 1.5 1.193l.633-.239s.236-.397.79-.715c.553-.318 1.896-.477 1.896-.477l.553.397s.948 1.908 1.58 3.26c.632 1.351 1.58 2.782 1.58 2.782a31.96 31.96 0 0 0-.632 3.816s.711-2.067.948-2.941c.237-.875 1.58-1.193 1.58-1.193s1.58-.636 2.291-1.192c.71-.557 1.66-.636 1.66-.636.394.318 1.737.795 2.528.874.79.08 1.5.875 1.5.875s1.265.397 1.818.635c.553.239 1.343 2.068 1.658 2.465.316.397.948 1.987.948 1.987s.633 1.75.949 2.464c.316.717 3.002 6.44 3.002 6.44s-1.975-5.247-2.449-6.44C73.631 68.573 73 65.632 73 65.632s-.79-1.113-1.264-2.067c-.475-.954-1.264-2.385-1.264-2.623 0-.239.79-1.67.79-1.67s1.026-.636 1.659-.954c.632-.318 2.765-1.51 3.476-2.067.711-.556 1.659-1.033 1.659-1.033l1.738-.16s2.528 3.5 3.002 3.896c.474.398 4.266 2.703 4.266 2.703l-3.476-3.1s-1.58-2.067-2.29-2.942c-.712-.874-1.818-1.908-1.818-1.908l.553-1.749s1.501 1.113 1.896 1.273c.395.158.948-.239 1.343-.398.395-.16.869-.477.711-.954-.158-.477-.948-1.352-1.264-1.749-.315-.397-.948-.636-.948-.636l.395-.715 1.422-1.51s.869-.875 1.607-.875c.737 0 1.685.106 1.685.106s.527-1.272.738-2.015c.21-.74.632-2.013.632-2.013s1.474 1.06 1.895 1.59c.422.53.749 2.386.749 2.386a7.39 7.39 0 0 1 .935 2.573l.607.076.712 1.113s.079 2.146.079 2.703c0 .556-.237.874-.237.874s-.316.954-.395 1.43c-.08.478-.395 1.591-.395 1.591l2.37-4.372c-.079-1.113 1.027-4.055 1.027-4.055s1.343 1.352 1.975 1.75c.632.396 1.343 1.271 1.343 1.271l.87-.239s2.765.637 3.396.795c.632.16 2.054.716 2.844.955.79.238 3.319 1.67 3.319 1.67l3.95 1.192s-4.977-2.306-5.373-2.624c-.395-.318-2.844-1.272-2.844-1.272l-.79-.795s-.948-.16-2.37-.477a48.45 48.45 0 0 1-2.528-.636s-2.131-1.963-3.66-3.895c-1.105-1.396-2.768-2.669-3.988-3.94l-.015-.3s1.121-1.029 1.896-2.12c.79-1.113 2.37-1.749 2.37-1.749l4.15-.535.027.03c.556-.052 1.709-.17 2.065-.29.473-.159 1.026.16 1.5.08s1.975-.16 2.608-.239c.632-.08 1.184.239 1.659.318.473.08 2.29.318 2.29.318l-2.843-1.112s-2.133.079-2.687.158c-.553.08-2.29-.318-2.29-.318l2.211-.874 2.292-.875z" fill="#000" mask="url(#b)"/></g><g fill="#000"><path d="M48.43 65.252s1.94.283 2.553.566c.612.284 1.634.567 1.634.567s-.817-.85-1.226-1.039c-.408-.189-2.962-.094-2.962-.094m9.718-22.172s-2.212.08-2.528.398c-.316.318-.474.716-.474.716s.079 1.033.079 1.51c0 .477.237 1.908.237 1.908s.316-1.113.316-1.75c0-.635.237-1.43.237-1.43s1.106-.954 2.133-1.352M39.476 61.365S38 60.252 37.922 59.934c-.079-.318-.71-.716-.71-.716s-1.028-.954-1.107-1.51c0 0-.086.696-.003 1.25-.025-.019-.049-.041-.076-.058-.395-.238-1.264-1.351-1.422-2.146 0 0-.158.795.079 1.43.237.637.395 1.75.395 1.75l.711.477.735-.593c.316.411.687.831.687.831l2.265.716zm27.282-.53l2.107.424s1.58-.318 2.423-.318 2.212-.212 2.212-.212l.948-.212 1.054.318s.632-1.484.632-1.802c0-.318-.316-2.12-.316-2.12l-.527-1.908s-.47 1.476-.421 2.014c.105 1.166-.738 2.226-.738 2.226l-.105-2.226-.948.424s-.106 1.166-.527 1.59c-.421.424-1.159.53-1.159.53l-1.158.106s-1.054.954-.738.954c.316 0-2.739.212-2.739.212"/><path d="M92.145 51.401c-.421.424-1.158.636-1.896.742-.738.106-3.265-.106-4.951-.106-1.686 0-2.95-.318-3.37-.954-.422-.636-.422-2.332-.422-4.345 0-2.015.842-1.909.842-1.909-.631 2.333.948 3.286 1.054 2.862.105-.424 1.264-.741 1.264-.741l2.001.106 4.846-1.167s.527.955.21 1.802c-.175.471-1.105 1.59-1.105 1.59s.29-1.616.052-2.014c0 0-.684 1.458-1.395 1.855 0 0 0-.715-.475-1.033 0 0-.554.532-1.184 1.113-1.58 1.457-2.529.82-2.529.82s-1.5.372-1.685.955l2.528.212s3.44-.113 4.424-.212c.79-.08 2.318-1.855 2.318-1.855l.607.344c-.308.772-.83 1.63-1.134 1.935zm-12.22-1.908c0 .53-.842 1.908-1.263 2.014-.084.021-.24.042-.45.061.028-.02.056-.04.08-.06.87-.716.87-2.306.79-3.499a6.399 6.399 0 0 1 .046-1.059l.887-1.102c-.03 1.07-.09 3.249-.09 3.645zm-1.053 14.204c3.266.424 4.949 1.448 4.95 1.59-.236.113-.842.106-2.527-.53-.37-.238-2.95-.212-2.95-.212s1.37.848 1.897 1.165c.527.318.843.53-.105 1.272-.949.743-3.476 1.59-3.476 1.59s-.738-1.166-.844-1.908c-.105-.742-.632-1.801-.632-1.801l-.105 2.225s-.023 1.542.086 2.4c-.073.395-.127.668-.127.668s-.023.13-.064.325c-.164.415-.066.948-.248 1.253a1.37 1.37 0 0 1-.279-.088c-.421-.212-.526-.741-.526-.741s-.106-2.968-.106-3.605c0-.636-.42-2.437-.632-2.967-.21-.53.632-1.06.632-1.06 2.001 0 3.477-.319 3.477-.319s.84.647 1.58.743zm-6.847 8.48s-2.633.953-4.213 1.059c-1.58.106-5.161.424-5.161.424a6.85 6.85 0 0 1-2.225-.721c.91-.07 2.253-.266 3.093-.286 2.186-.053 4.662-.874 4.662-.874l.078.636 1.422-.636c.712-.318.948-.795.948-.795v.874c.79-.397 1.186-.953 1.343-1.51.159-.557-.078-1.034-.237-1.51-.157-.478-.236-2.147-.236-2.147s-.553-1.192-.711-1.908c-.09-.4-.202-.876-.284-1.217a.653.653 0 0 1 .151.025c.317.106.844.742.844.742s.21 1.06.421 1.59c.21.53.737 1.59.737 1.59s.21 1.907.316 3.074c.105 1.165-.948 1.59-.948 1.59zm-8.742 6.439s-1.107-.637-1.739-1.034c-.632-.397-2.291-.795-2.291-.795s-.632-.397-.316-.477c.316-.08 2.238-.106 2.238-.106s-1.053-.37-1.685-.61c-.506-.19-1.62-.228-2.043-.236l.147-.558s3.476-.239 4.66.159c1.186.397 1.819.318 2.45 1.192 0 0 .057 1.6.074 2.182l-1.495.283zm-6.005-13.753c-.08.397-.316 1.59-.316 1.59s-1.264-.875-1.738-1.59c-.474-.716.08-1.192.08-1.192l2.053.238s0 .556-.079.954zm-5.047-2.557c-.433-.084-2.987-.591-3.564-1.1-.632-.557-1.502-2.306-1.738-2.862-.098-.23-.29-1.05-.453-1.698a48.743 48.743 0 0 1-.048-1.641c0-.848 1.475-1.378 1.475-1.378h3.16c.316 0 .948 2.332.948 2.332l.316-2.226s.632-.53 1.054-.636c.42-.106 2.844.212 4.213.53 1.169.271 3.022.003 3.543-.082.212.563.588 1.667.644 2.573.08 1.272-.316 2.464-.71 3.1-.368.593-1.901 2.012-2.748 2.59-.808.14-1.86.371-2.415.51-.518.131-2.194.061-3.677-.012zm-5.276-.835c-.345-.434-.407-2.07-.419-2.885.15.659.377 1.375.709 1.745.498.558.882 1.31 1.447 1.793-.77-.107-1.468-.315-1.737-.653zM42.32 52.78c-.527-.107-2.423-1.273-2.739-1.697-.316-.424-.105-4.133-.105-5.194 0-.775.114-1.548.381-2.033l.751.178v1.988c0 .795-.316 2.305-.316 2.305s.395 1.272.632 1.988c.237.715.79.715 1.027.954.237.238 1.58.159 1.58.159s-.686-.532-1.067-.856c-.157-.742-.41-2.039-.355-2.483.045-.36.165-1.148.261-1.768.498-.538 1.435-1.447 2.373-1.81 1.37-.53 2.107-1.06 2.107-1.06l.11-.021.627 1.4.201-1.559.294-.056.769 4.158.418-3.871c.228.445.588 1.035.846 1.327 0 0 .246-1.33.316-2.014.536-.119 1.616-.225 1.896 0 .527.424.737 2.544.737 3.817v2.967s-.316.318-.842 1.166c-.527.848-.105 1.06-1.37 1.378-1.264.318-1.896.106-3.055.318-1.158.212-4.95.424-5.477.319zm2.317 9.115c-.526.53-1.896.53-2.739.424-.842-.106-1.58.53-1.58.53s-.526-.424-1.369-.636c-.22-.056-.646-.132-1.168-.219-.314-.252-.74-.544-1.123-.63-.711-.158-1.817-.476-1.817-.476s-.632-1.431-.87-2.147c-.236-.715-.157-2.385-.157-2.782 0-.285.081-1.675.127-2.438.504.003 2.125.017 2.48.106.421.106 1.159-.742 1.159-.742s.737-.318 1.58.106c.843.424 2.528.742 2.528.742s.843-.212 1.58 0c.737.212 1.37.636 1.37.636s-.106.848 0 1.802c.105.954.737 2.65.737 3.286 0 .636-.211 1.908-.738 2.438zm-11.166-.636c-.737-.212-1.158-.53-1.263-1.378-.106-.848.316-3.392.316-3.392s.909 4.012 1.202 4.83a3.68 3.68 0 0 1-.255-.06zm-2.038-9.73l.37-.579.036.001s2.449.636 3.95.238c0 0-1.449-.45-1.054-1.166.395-.715 1.133-1.219 1.686-1.775.553-.557 1.264-.716 1.185-1.272-.079-.556-.237-.874-.237-.874l.793-.549c.115.305.191.644.155.973-.106.953-.21 1.801-.21 1.801s.104.742.104 1.272-.21 1.378-.842 1.908-1.264.424-1.791.53c-.527.106-4.003 0-4.003 0s-.065-.21-.142-.509zm-.697 8.122c-.253-.603-.736-1.794-.794-2.261-.078-.636.238-1.987.238-1.987s-.554-.875-.79-1.272c-.237-.398-.79-.319-1.027-.557-.146-.146.095-.472.303-.702.618.142 1.67.453 1.961.967.421.742.421 1.378.527 2.332.101.918-.38 3.3-.418 3.48zm10.597-13.36a.972.972 0 0 0 .21.268c.007.206.013.408.013.576 0 .636-.079 2.305-.079 2.305l.177.415c-.27-.264-.53-.596-.572-.97-.05-.45.119-1.714.251-2.593zm12.89 2.884c.105-.53 0-2.967 0-4.558 0-1.59.737-2.014.737-2.014s4.846-.848 5.373-.636c.527.212 4.319.53 5.056.954.737.425.948 1.908.948 3.605 0 .874-.096 2.453-.29 3.153-.14-.736-.394-2.623-.394-3.1 0-.716-.396-1.989-.396-1.989s-.079-1.775-3.87-1.244c0 0 2.37.794 2.843 1.59.475.795.948 1.192.948 1.908 0 .51-.092 2.879-.316 4.027-.682.519-1.793 1.081-2.633 1.166-1.054.106-6.11 0-7.163-.53s-.948-1.802-.843-2.332zm11.271 12.72c-.737-.212-.737-1.379-.737-2.014 0-.636.105-2.544.105-3.604s-.526-2.862-.526-2.862l1.79-.318s1.265.318 2.002.424c.737.106 4.213-.318 5.056-.318s3.37.106 3.37.106.317 1.272.317 2.014c0 .742.527 3.71.21 5.3-.315 1.59-1.369 1.59-1.369 1.59l-.527-.53c-.526.53-1.474.53-2.738.424-1.264-.106-6.216 0-6.953-.212zM62.44 56.7c-.177-.657-.228-1.712-.05-2.268l.05.042s.738 2.438.738 4.028c0 1.59-.421 2.438-.948 2.65-.527.212-1.159.53-1.685.53 0 0 .895-1.246 1.369-1.802.474-.557.764-2.306.526-3.18zm2.634 14.733c-4.003 1.378-6.426-.635-6.426-.635s-.316-2.439-.21-3.074c.105-.637-.211-.743-.211-1.803s1.37-2.968 1.37-2.968l.104 1.06.528-.848s.632-.212 1.158-.423c.527-.212 1.58-.53 1.58-.53s.527 1.271 1.791 1.378c1.264.106 4.108.106 4.108.106.527.82 1.212 1.325 1.212 1.96 0 .637.079 1.59.079 1.59l-.553.636s-.317 1.113-.633 1.75c-.316.635-1.422 1.35-1.422 1.35l.58-1.987s-2.038 2.088-3.055 2.438zM67.6 44.3c.316-.954 1.264-1.379 1.264-1.379 1.552-.575 5.76-.45 7.573-.364l.259.4a30.31 30.31 0 0 1-1.485.044c-.948 0-2.291.477-3.24.636-.948.159-2.132.159-2.843.477-.711.318-.79 2.306-.79 2.306.79-1.193 2.607-1.83 2.607-1.83s.948-.238 1.738-.476 1.58-.159 2.29-.159c.61 0 2.313.29 2.793.375l.528.558c.014.314.085 1.913.156 2.485.08.636.316 1.829 0 2.703-.253.699-1.662 1.346-2.22 1.578-.74.01-1.577 0-2.415-.04-2.212-.107-5.056.317-5.056.317s-1.159-.742-1.37-1.166c-.21-.424-.105-1.59-.21-2.65-.105-1.06.105-2.862.421-3.815zm24.755-.848l-5.135 1.616-.159-2.226-4.265.08-3.295 1.904c.033-.147.055-.236.055-.236l-.93.176-.255-1.129s-2.384-2.659-2.322-1.883l-.625-.683.182-1.647s-4.53-1.166-6.215.212c0 0 1.79.424 2.633.742.542.203 1.168.538 1.548.752-1.193.12-2.624.245-3.101.202-.617-.057-1.311-1.071-1.664-1.657l-3.314 1.55-3.687-.423-7.794.742-3.055-2.2-2.213 1.246-4.108 2.543-2.106-.742-4.425-.318-.929 1.113-2.573 1.008-2.686 3.26s-1.565 2.146-1.092 3.076l-.508.58-1.587-.133-.91.775c-.012.217-.03.433-.044.65l-.916 1.33-.237 2.704 1.58 1.67.409 2.113-1.146.297.156-.402-.999.933.558 2.15.074.712s1.027.794 1.264.794c.238 0 1.422.875 1.422.875l1.106 1.352 1.343.556.08 1.828 1.027 1.034 3.792-.557s-.369-1.219-.764-1.854c-.395-.637-.843-2.438-.843-2.438-.237 1.113-.289 2.702-.289 2.702s-.553-.954-.87-1.59c-.315-.635-.42-1.96-.42-1.96l-.764.132c-.158.557-.08 1.51-.08 1.51s-.553-.794-.947-1.35c-.395-.558-.79-.796-.79-.796s-1.265-.238-1.897-.318c-.296-.037-.487-.302-.608-.573a13.71 13.71 0 0 1 1.083-.063c.947 0 3.239.636 3.87.557.633-.08 1.423-.08 1.423-.08s.948.318 1.5.239c.554-.08 1.107-.398 1.581.238s.316 1.59.237 2.305c-.053.48 0 2.356.042 3.538l1.33-.214 1.452.788.573 1.055 2.844.478s-.395-1.034-.869-1.431c-.474-.398-1.027-1.034-1.263-1.352-.238-.318-1.028-1.908-1.186-3.498 0 0-.474.478-.474 1.272v2.02l-.584-.236.057-1.041s-.105-1.484-.21-2.332c-.106-.848.948-1.59.948-1.59l1.475.106s3.897.106 4.845 0 3.476-.318 3.476-.318l2.001 1.06s.844.636 1.16 1.165c.315.53 2.001 2.12 2.001 2.12s.421 3.922.316 4.452c-.068.343-1.017.907-1.68 1.264l-.532-.23.79-.796s.08-.714-.08-1.35c-.157-.637-.552-1.829-.473-1.432.079.398-.316 1.113-.396 1.431-.032.134-.53.705-1.094 1.324-.9.111-1.697-.529-1.697-.529s-.948-.106-1.474 0c-.527.106-5.057-.08-5.057-.08l.843.928 1.896-.318 2.002.424 2.211 1.696 1.567-1.379c.428.08.763.424.935.853l.031.081a.65.65 0 0 1 .042.084c.04.077.083.154.125.232l.382.023.07-.09.246.17.079 1.192 1.58.53.138.148.023-.087.392.681 3.24 3.577 3.16-1.245 3.005.981c-.233-.776-.478-1.723-.478-1.723s-.078-2.464.08-3.02c.158-.557 1.185-1.114 1.185-1.114 1.612-.42 5.794-.569 7.74-.616-.127.283-.345.612-.709.775-.711.318-1.422.557-1.422.557l-.553.476s-.79.08-1.343.318c-.553.24-1.185.557-1.185.557s-.632-.08-1.028.238c-.394.318-.658.796-.658 1.193 0 0-.764-.318-.922-1.51 0 0-.316.795-.236 1.35.079.558 0 2.942 0 2.942l1.343.318s1.659-1.908 2.449-2.464c.79-.557 3.476-2.464 3.476-2.464l1.58-1.352.142-.952h.03l.04-.476.025-.162-.01.003.089-1.063.131-.429-.128-.008.419-1.683 1.553-1.351 1.896-.636.761-.566.214-.096 1.655-.873.955-.216.365-.078.817-1.59.672-1.814.723-1.047-1.105-1.829L87.3 58.98s-.023-.049-.05-.126l.523-.113.79-1.033s.632-.318.79-.795c.158-.477-.237-1.43-.237-1.43-.552.555-.552 1.191-1.027 1.748a1.92 1.92 0 0 1-.727.526c.264-.538.332-1.639.332-1.639s-.237-.636-.553-1.351c0 0 .08.953-.316 1.59-.395.635-1.027 1.112-1.263 1.43-.238.318-1.027 1.352-1.027 1.352s-.159-.398-.79-.159c-.632.238-1.265.636-1.265.636s.396-1.034.79-1.67c.395-.636.395-1.51.395-1.51s-.552.954-1.106 1.51l-1.58 1.59-.948 1.192s.185.716 1.054.955c.868.238 2.527 1.165 2.527 1.165l.74.381c-.551.043-1.153.047-1.476-.063-.633-.212-3.161-1.271-3.793-1.59-.632-.317-.21-1.483-.21-2.12 0-.635.42-3.285.42-4.663 0-1.378.844-1.802.844-1.802.421-.106 2.106.424 2.106.424s3.371-.106 4.319 0 2.002-.106 2.633.636c.632.742.632 2.756.632 2.756l-.01.07 1.275-.706.21-1.696.975-1.643.395-.795 1.896-2.544 1.685-2.226 2.318-3.815h-6.215z"/></g></g></svg>