<svg width="120" height="120" viewBox="0 0 120 120" xmlns="http://www.w3.org/2000/svg" xmlns:xlink="http://www.w3.org/1999/xlink"><defs><path id="a" d="M0 0h120v120H0z"/><path id="c" d="M0 .917h110.212V111H0z"/></defs><g fill="none" fill-rule="evenodd"><mask id="b" fill="#fff"><use xlink:href="#a"/></mask><path d="M81.797 118.125c-10.898 2.5-32.695 2.5-43.594 0C18.648 113.64 6.32 101.361 1.875 81.797c-2.512-11.056-2.488-32.851 0-43.594C6.402 18.657 18.66 6.415 38.203 1.875c10.693-2.484 32.487-2.516 43.594 0 19.567 4.433 31.675 16.812 36.328 36.328 2.452 10.285 2.548 32.058 0 43.594-4.327 19.591-16.773 31.843-36.328 36.328" fill="#FBC02D" mask="url(#b)"/><g transform="translate(0 9)"><mask id="d" fill="#fff"><use xlink:href="#c"/></mask><path d="M91.64 99.281c-10.898 2.5-32.695 2.5-43.594 0-19.555-4.485-31.883-16.764-36.328-36.328-2.512-11.056-2.488-32.85 0-43.594 1.651-7.13 4.343-13.275 8.03-18.442C10.753 7.337 4.75 16.791 1.874 29.203c-2.487 10.743-2.51 32.538 0 43.594 4.445 19.564 16.773 31.842 36.328 36.328 10.9 2.5 32.696 2.5 43.594 0 12.441-2.854 21.99-8.863 28.416-17.892-5.207 3.707-11.407 6.404-18.572 8.048" fill="#E8AD28" mask="url(#d)"/></g><path d="M67.137 26.961l5.117 10.425a7.964 7.964 0 0 0 6.35 4.422l11.714 1.171c6.728.671 9.611 8.94 4.772 13.688l-9.108 8.94a8.028 8.028 0 0 0-2.285 7.078l1.995 11.692c1.115 6.537-5.709 11.522-11.548 8.437L63.62 87.25a7.918 7.918 0 0 0-7.275-.067l-11.272 5.692c-5.967 3.014-12.75-2.255-11.356-8.82l2.377-11.198a8.032 8.032 0 0 0-2.225-7.397l-8.959-8.793c-4.838-4.748-1.956-13.017 4.772-13.688l11.714-1.171a7.964 7.964 0 0 0 6.35-4.422l5.117-10.425c2.92-5.948 11.355-5.948 14.274 0" fill="#FFF"/></g></svg>