<svg width="120" height="120" viewBox="0 0 120 120" xmlns="http://www.w3.org/2000/svg"><g fill="none" fill-rule="evenodd"><path fill="#DA8F7B" d="M.777 94.167l89.32 22.49-1.553-69.409L0 30.187z"/><path fill="#C0674E" d="M88.544 47.248l1.553 69.408 27.573-12.408 2.039-70.862z"/><path fill="#2D0400" d="M0 30.187l88.544 17.062L120 33.386 36.117 15.84z"/><path fill="#63332B" d="M.282 53.37L89.1 72.16l-.282-12.61L.129 40.847z"/><path fill="#641915" d="M118.925 60.614l.373-12.95-30.484 11.639.29 12.932z"/><path fill="#63332B" d="M.541 74.762L89.619 95.31l-.147-6.615-.346-9.651L.375 61.034z"/><path fill="#641915" d="M118.656 69.972l-29.402 9.033.363 16.181 28.648-11.596zm-28.892 31.823l.333 14.861 27.572-12.408.356-12.355z"/><path d="M.777 94.167l89.32 22.49-.323-14.46C83.315 100.78 17.867 86.447.639 82.795l.138 11.37z" fill="#63332B"/><path d="M77.14 25.788l5.938 3.814 1.08.693s-6.096 8.486-28.27 4.29c0 0-16.153-3.637-6.923-21.066" fill="#A80021"/><path d="M57.924 33.289c.042.586 1.64.755 1.306.006-.177-.39-1.168-.489-1.292-.054m10.95.664c.041.586 1.64.755 1.305.006-.176-.39-1.167-.49-1.292-.054m7.394-.864c.043.587 1.642.755 1.306.007-.176-.39-1.168-.49-1.293-.054" fill="#FFA056"/><path d="M46.806 14.318c-5.322-5.149-13.574 1.533-10.935-2.183 2.372-2.218 12.821.085 11.01 3.04" fill="#344C1F"/><path d="M44.96 14.243s-1.746 6.22-6.825 3.037c0 0-1.466.064-1.734 2.014 0 0 .791-.74 2.411.012 0 0 6.942 4.098 8.521-2.78 1.58-6.88.203-3.414.203-3.414l-2.576 1.13z" fill="#344C1F"/><path d="M49.569 12.083S37.686 34.286 66.825 33.715c0 0 8.335.575 14.816-1.822 0 0 6.31-.903 1.102-7.915 0 0-22.309-32.577-33.021-11.98" fill="#FF5645"/><path d="M50.36 10.86c.267.125.611.199 1.045.204 1.26.101 2.96-2.243 4.354-2.617 2.399-.731 3.98-.41 6.073.83 1.854 1.171 3.351 1.34 5.121 2.359 3.13 1.663 6.431 5.433 8.9 8.065 1.65 1.884 6.806 6.825 4.22 8.66-.306.17-2.262.256-2.806.357-.85.273-1.446 1.003-2.38 1.122-2.177.409-3.861-.457-6.04-.05-2.33.495-2.874.597-5.562.088-1.973-.305-4.678.596-6.362-.27-2.16-1-1.549-3.141-3.25-4.397-1.787-1.41-3.3-.169-4.288-3.021-.513-1.273.823-6.036-1.394-5.756-.019-.039-.036-.077-.056-.115-1.804 6.413-2.09 17.807 18.89 17.396 0 0 8.335.575 14.815-1.823 0 0 6.31-.902 1.104-7.915 0 0-21.45-31.32-32.385-13.117" fill="#DA143B"/><path d="M58.712 10.51c-2.246-.64-5.56-.87-8.043-.149a21.13 21.13 0 0 0-.948 1.637l-.152.085s-.967 1.809-1.673 4.38c.184.334.386.687.599 1.07l-.064-.116c8.652 6.901 16.766 6.898 27.304 5.85-3.14-4.56-11.665-11.231-17.023-12.758" fill="#FED0C1"/><path d="M53.583 17.677c5.048 4.026 9.782 4.025 15.93 3.413-1.832-2.66-6.805-6.552-9.932-7.443-1.668-.475-4.347-.563-5.746.388-1.726 1.31-1.108 2.104-.215 3.709" fill="#FF7165"/><path d="M47.896 16.463s.162 5.864-5.059 8.362c0 0-1.633.306-1.291 2.718 0 0-3.063-1.902.882-4.892 0 0 3.18-2.565 2.193-5.419 0 0-1.038-2.225.339-2.99 0 0-2.23-2.563 1.495-5.23 0 0 1.691-2.091 4.281-2.028 0 0 2.641-.116 2.615-3.402 0 0 1.013 3.417-2.682 6.78 0 0-1.958 2.446-2.773 6.1" fill="#486E38"/><path d="M60.383 34.826c.042.585 1.64.754 1.306.005-.177-.39-1.168-.49-1.292-.054m4.476-.344c.043.586 1.642.755 1.307.006-.177-.39-1.168-.49-1.293-.055m-8.667-.018c-.176-.387-1.153-.487-1.288-.063.589.2.956.283.956.283l.356.064c.03-.074.028-.166-.024-.284m-5.031-3.563c-.209.55 1.17 1.374 1.182.555.005-.428-.853-.934-1.148-.593M47.74 29.01c.152.021.285-.049.34-.272.097-.406-.587-1.067-.96-.85.187.395.395.769.62 1.122m24.568 5.717c.29.51 1.807-.027 1.18-.558-.328-.274-1.265.063-1.19.509m-3.011 1.025c-.188-.382-1.163-.477-1.286-.046l-.014.049c.001.013.006.024.009.037.441-.007.871-.021 1.291-.04" fill="#FFA056"/></g></svg>