<svg width="120" height="120" viewBox="0 0 120 120" xmlns="http://www.w3.org/2000/svg"><g fill="none"><path d="M60.061 16.837H12.744V36.06c0 25.96 1.83 83.388 35.67 83.388h23.293c33.842 0 35.671-57.429 35.671-83.388V16.837H60.061z" fill="#E59225"/><path d="M99.085 0H21.037c-5.915 0-10.671 4.776-10.671 10.714v4.47c0 2.326 1.89 4.224 4.207 4.224h91.037c2.317 0 4.207-1.898 4.207-4.224v-4.47C109.757 4.776 105 0 99.085 0zm6.83 65.082H14.268c-1.707 0-3.11 1.408-3.11 3.122s1.403 3.123 3.11 3.123h91.647c1.707 0 3.11-1.409 3.11-3.123-.062-1.775-1.403-3.122-3.11-3.122z" fill="#E5DBBA"/><path d="M93.598 68.143a3.08 3.08 0 0 1-2.805-1.837L74.207 28.714 64.33 65.878c-.366 1.346-1.524 2.265-2.927 2.326-1.402.061-2.622-.857-3.048-2.143L46.28 29.265 34.024 66.061c-.426 1.286-1.585 2.143-2.926 2.143-1.342 0-2.5-.857-2.927-2.143L12.927 20.388c-.549-1.653.305-3.368 1.951-3.919 1.646-.55 3.354.307 3.902 1.96l12.257 36.857 12.256-36.857c.427-1.286 1.585-2.143 2.927-2.143 1.341 0 2.5.857 2.926 2.143l11.708 35.755 9.45-35.572c.367-1.285 1.464-2.204 2.745-2.326 1.28-.123 2.56.612 3.049 1.836l16.28 37.041 8.049-36.428a3.14 3.14 0 0 1 3.72-2.388 3.153 3.153 0 0 1 2.377 3.735l-10.06 45.673c-.305 1.286-1.403 2.265-2.744 2.45.06-.062 0-.062-.122-.062z" fill="#E5DBBA"/></g></svg>