<svg width="308" height="215" viewBox="0 0 308 215" xmlns="http://www.w3.org/2000/svg"><g fill="none"><path d="M94.242 151.544l-4.12-48.95-28.921 1.783c-.97 14.912-.566 32.741 1.212 45.87 1.13 8.51 3.393 17.019 5.412 25.366.323 1.297 6.14 23.097 9.452 19.532-.08-3.323-2.585-6.89-3.393-10.13l.566-.244c3.312 3.647 3.231 10.455 9.613 10.94.323-3.484-2.342-8.59-1.05-11.831l.808-.162c2.1 4.943 3.716 9.32 8.725 11.913 2.423-2.999.888-8.915.888-12.4 0-5.997 2.02-25.771.808-31.687z" fill="#A0AA1E"/><path d="M89.072 76.903s-30.699 11.508-31.91 38.01c3.554 4.214 33.445 1.053 33.445 1.053l-1.535-39.063z" fill="#824600"/><path d="M241.758 150.814c-.162-7.294-.566-14.669-1.131-21.962-.324-3.81-.97-7.537-1.535-11.346-.323-2.35-.97-13.21-2.747-15.155-3.959.891-25.286 8.104-28.84 10.13l2.908 54.866c0 3.323 2.585 24.07 5.332 26.339l1.211.08c2.424-2.187 3.636-9.805 6.706-10.048 1.938 1.945 1.454 8.023 2.262 10.697 4.281 1.135 4.362-11.184 7.432-9.4.242 1.944-.97 6.645 0 8.185l.889.08c4.847-3.97 5.816-13.615 6.624-19.45 1.131-7.78 1.05-15.236.889-23.016z" fill="#A0AA1E"/><path d="M209.362 75.364l-7.593 25.528 12.037 14.02c13.653-.324 26.336.487 27.952-1.296-1.697-20.099-26.821-36.226-32.396-38.252z" fill="#824600"/><path d="M184.4 187.689l24.72 3.809c0 .405-3.716 22.286-3.716 22.286l9.775.162s-.08.649-.162.892c-3.231.081-31.345-.081-31.345-.081s.566-26.582.728-27.068z" fill="#A0AA1E"/><path d="M213.079 202.844c.161-2.918 0-5.998.242-8.834.404-4.376 2.343-24.718 2.02-26.987l-38.94-16.857c0 2.188-.16 39.306 1.374 52.759l35.304-.081z" fill="#005A5A"/><path fill="#006482" d="M174.544 196.765h41.605v13.372h-41.605z"/><path d="M122.76 187.689l-24.72 3.809c0 .405 3.715 22.286 3.715 22.286l-9.775.162s.081.649.162.892c3.231.081 31.345-.081 31.345-.081s-.646-26.582-.727-27.068z" fill="#A0AA1E"/><path d="M128.172 201.547l-.08-43.115-35.304 10.212s1.697 24.637 3.797 32.984l31.587-.081z" fill="#005A5A"/><path fill="#006482" d="M91.738 198.386h39.504v13.372H91.738z"/><path d="M174.059 56.075v2.107c3.312.082 8.644-.08 10.34-.08v-2.108c-2.908-.08-7.432 0-10.34.081z" fill="#FAB414"/><path d="M183.996 50.727s-3.07 0-4.605.729l2.423 10.86a32.551 32.551 0 0 0 4.767-.81l-2.585-10.78z" fill="#FFC800"/><path d="M126.072 56.075v2.107c-3.312.082-8.644-.08-10.34-.08v-2.108c2.827-.08 7.351 0 10.34.081z" fill="#FAB414"/><path d="M116.135 50.727s3.07 0 4.605.729l-2.423 10.86a32.551 32.551 0 0 1-4.767-.81l2.585-10.78z" fill="#FFC800"/><path d="M174.463 45.945c-7.594-2.107-32.234-1.135-37.646-1.054-5.09.082-10.18-1.134-12.684 4.053-2.1 4.376-3.474 18.153-4.281 25.366l60.912-.243c-.727-6.565-4.281-26.177-6.301-28.122z" fill="#A0AA1E"/><path d="M178.502 59.56s.081 0 .081.081l-.08-.08z" fill="#A0AA1E"/><path d="M157.417 57.94c-3.15 1.053-13.734.567-14.057.324 0-2.675-.565-5.511 6.14-5.917 6.705-.405 7.352 3.161 7.917 5.592z" fill="#82783C"/><path d="M147.965 61.019s2.99-.162 4.443-.081c.162.405.243.891.162 1.297-.08.08-.08.243-.162.243-.565 0-4.2.324-4.443-.243v-1.216zm23.025-5.916c-.486 0-.89.324-1.051.73-.323.485-.242 2.187 1.05 2.268.485 0 1.131-.162 1.131-1.377 0-1.216-.646-1.621-1.13-1.621zm-39.101 0c-.485 0-.889.324-1.05.73-.324.485-.243 2.187 1.05 2.268.484 0 1.13-.162 1.13-1.377 0-1.216-.646-1.621-1.13-1.621z" fill="#000"/><path d="M154.67 55.59c-.404 0-.808.161-1.05.485-.242.325-.242 1.46 1.05 1.54.485 0 1.131-.08 1.131-.891 0-.649-.484-1.135-1.13-1.135.08 0 .08 0 0 0zm-8.886.08c-.404 0-.808.162-1.05.486-.243.325-.243 1.46 1.05 1.54.485 0 1.13-.08 1.13-.891 0-.568-.484-1.054-1.13-1.135.08.081.08 0 0 0z" fill="#645A1E"/><path d="M90.526 115.966l60.428 23.664 62.77-24.718s-.969-17.586-1.938-22.61c-.08-.325-2.181-15.642-2.424-17.02-4.12-4.538-16.4-7.618-23.75-7.942-8.16-.324-69.073.162-69.073.162s-8.32 1.216-14.218 3.404c-5.897 2.188-13.249 5.835-13.249 5.835s-.323 14.183.08 21.477c.566 10.373 1.374 17.748 1.374 17.748z" fill="#A0640A"/><path d="M151.277 87.439c-16.318 0-32.637.162-32.637.162s-3.555.243-3.636 0c-4.524 1.702-24.559 28.365-24.559 28.365l2.262 52.597 58.57-.73 7.675-45.627-7.675-34.767z" fill="#008264"/><path d="M151.277 167.833l64.064-.81-1.616-52.11s-21.893-24.151-27.144-27.069c-5.17-.324-20.44-.405-35.223-.405l-.08 80.394z" fill="#00A08C"/><path d="M181.653 65.638l.808 36.307 7.755.082s.243-28.041-1.13-36.389h-7.433z" fill="#005A5A"/><path d="M186.5 95.705c-.889 0-1.697.405-2.262 1.135-.566.73-.485 3.16 2.181 3.242 1.05.08 2.343-.244 2.343-1.946.08-1.215-.889-2.269-2.1-2.35-.081-.08-.162-.08-.162-.08z" fill="#FFC800"/><path d="M111.773 65.638c-1.373 8.348-1.131 36.389-1.131 36.389l7.675-.082.807-36.307h-7.351z" fill="#005A5A"/><path d="M114.277 95.705c.889 0 1.697.405 2.262 1.135.566.73.485 3.16-2.18 3.242-1.051.08-2.344-.244-2.344-1.946-.08-1.215.889-2.269 2.1-2.35 0-.08.082-.08.162-.08z" fill="#FFC800"/><path d="M137.301 107.213c-1.292 5.511.97 13.048 4.282 16.614 3.958 2.918 12.926 3.242 17.127.81 4.847-2.755 6.14-9.076 6.059-14.02 0-1.135 0-2.27-.081-3.404H137.3z" fill="#005A5A"/><path fill="#006482" d="M135.362 102.027h31.022v8.753h-31.022z"/><path d="M151.277 104.458c-.888-.081-1.777.405-2.343 1.134-.646.81-.484 3.242 2.263 3.404 1.13.081 2.342-.243 2.342-2.026.081-1.297-.888-2.431-2.18-2.512h-.082z" fill="#FAB414"/></g></svg>