<svg width="114" height="117" viewBox="0 0 114 117" xmlns="http://www.w3.org/2000/svg"><g transform="translate(13 3)" fill="none"><path d="M28.117 73.816c-.767-4.335-8.35-5.692-8.616-5.849-3.386-2.027-4.852-3.774-6.92-7.058-2.07-3.283-3.13-6.98-4.278-10.606C7.069 46.405 5.917 37.015 4.96 37.09c-.956.076.73 3.766-.277 3.978-1.009.213-1.346-3.737-2.133-3.797-.788-.06.26 4.283-.864 4.239-.615-.024-1.093-3.32-1.583-3.12-.49.201 1.318 17.195 5.086 23.538 3.767 6.343 7.23 9.66 11.87 12.397 2.988 1.759 6.743 2.056 9.097 2.49 0 0 2.735 1.336 1.96-3z" fill="#BE0A3C"/><path d="M7.632 40.106c-.643-.217-1.117 2.184-1.117 2.184-.71.233-2.494.955-2.366 2.36.161 1.75 2.358 3.614 3.266 1.534 0-.016.863-5.861.217-6.078z" fill="#82001E"/><path d="M95.598 25.372c-.94-1.136-2.844 2.87-3.498 1.843-.655-1.028 2.277-3.995 1.663-4.617-.615-.622-3.19 3.128-3.58 2.69-.148-.169.11-.699.475-1.365.594-1.084 1.145-2.312.803-2.59-.341-.276-1.173 1.076-2.526 2.59-4.419 4.962-30.853 36.091-27.23 41.202 3.623 5.11 25.916-27.476 28.607-31.41 2.896-4.28 5.535-8.022 5.286-8.343z" fill="#BE0A3C"/><path d="M86.247 22.582c.864 0 .502 3.087.502 3.087.768.558 2.652 2.132 1.945 3.786-.88 2.06-4.278 3.473-4.56.582.005 0 1.25-7.443 2.113-7.455zM62.392 74.306c-.16-.08 1.832-6.226-5.692-7.375-7.523-1.148-6.214 37.164-4.932 41.668.502 1.766 1.205 1.204 2.474 1.297 1.27.092 2.065.136 1.607-.695-.093-.169-1.703.072-1.703.072s2.872-7.824 3.98-11.81c.55-1.98 1.08-3.983 1.527-5.99.24-1.056 3.008-16.107 2.739-17.167zM23.377 92.3c-.682 1.46-1.377 2.89-2.08 4.34-1.145 2.352-1.888 5.997-3.64 7.936-.3-.212-1.437-1.353-1.707-1.349-1.646.037-.144.932.133 1.205a15.604 15.604 0 0 0 2.474 1.955c1.205.77.984.61 2.201-.313 2.037-1.538 28.54-30.608 22.16-36.983C36.54 62.716 23.9 91.184 23.379 92.3z" fill="#82001E"/><path d="M36.609 17.468c-1.583-4.188-3.085-11.382-.872-15.557 2.032-3.83 5.587-1.361 7.282 4.713 1.43 5.11 1.173 13.533 1.237 15.312.073 1.963-.164 3.886-.249 5.837-.068 1.646.523 4.388-.068 5.873-2.968-5.142-5.234-10.634-7.33-16.178z" fill="#82783C"/><path d="M43.975 33.57c-2.346.12-5.262-2.256-7.07-3.553-.963-.71-12.957-10.345-16.219-15.163-1.474-2.168-2.86-4.328-2.502-7.05.478-3.649 2.968-4.48 6.194-2.89 5 2.465 9.182 7.985 11.805 12.778 1.305 2.381 2.546 4.818 3.868 7.17 1.273 2.277 3.984 6.018 3.924 8.708z" fill="#A0AA1E"/><path d="M43.533 33.438c-.152-1.69.976-3.95 1.362-5.597.402-1.762.803-3.496 1.374-5.219a94.86 94.86 0 0 1 3.844-10.406c1.337-2.934 2.76-6.194 4.916-8.627 1.836-2.088 5.326-4.292 7.853-1.77 2.181 2.18.803 6.684.032 9.233-1.056 3.4-2.94 6.21-5.073 9.021-2.008 2.65-11.604 12.47-14.308 13.365z" fill="#A0AA1E"/><path d="M43.883 33.558c1.108-1.45 2.928-2.654 4.274-3.93 1.743-1.654 3.522-3.264 5.294-4.882 2.574-2.349 5.326-4.757 8.933-5.219 1.305-.165 3.68-.245 4.13 1.369.4 1.485-1.555 3.184-2.52 3.982a30.103 30.103 0 0 1-4.574 3.007c-.896.51-11.597 4.54-15.537 5.673zm-.257.076c-.273-4.974.305-9.856.466-14.798.016-2.577.301-5.145.851-7.663.281-1.149 1.711-5.22 3.173-2.907.844 1.329.306 4.248.254 5.729-.077 2.144-.1 4.492-.832 6.544-.482 1.333-3.647 13.111-3.912 13.095z" fill="#A0AA1E"/><path d="M43.232 94.708c-3.96.02-7.832-1.17-11.098-3.408-2.17-1.505-3.88-3.774-5.346-5.942-2.19-3.24-4.338-6.547-6.359-9.9A66.598 66.598 0 0 1 12.5 55.98c-1.253-5.565-1.647-15.83 4.133-19.27 2.96-1.77 7.347-2.783 10.7-3.473 2.905-.598 5.769-1.349 8.753-1.606 1.703-.136 3.423-.293 5.11-.028 1.297.205 1.928.92 2.864.927.18 0 1.357-.654 1.683-.734.662-.13 1.334-.203 2.008-.217 2.145-.125 4.161.217 6.266.534 5.435.803 11.167 2.874 15.42 6.451 5.306 4.46 4.443 11.285 2.973 17.424-1.607 6.76-7.347 22.128-12.854 29.58-5.507 7.45-13.062 9.156-16.324 9.14z" fill="#F01446"/><path d="M16.706 41.399s.574-1.514 3.113-2.847a18.084 18.084 0 0 1 10.343-1.678c8.222 1.265 7.198 28.347-2.603 28.347-5.31 0-8.901-2.284-10.584-7.467-1.422-4.384-2.442-11.145-.27-16.355z" fill="#F00A78"/><ellipse fill="#F04650" cx="37.974" cy="75.037" rx="1" ry="1.028"/><ellipse fill="#F04650" cx="57.122" cy="46.622" rx="1" ry="1.028"/><ellipse fill="#F04650" cx="53.969" cy="41.84" rx="1" ry="1.028"/><ellipse fill="#F04650" cx="61.03" cy="42.318" rx="1" ry="1.028"/><ellipse fill="#F04650" cx="49.575" cy="37.039" rx="1" ry="1.028"/><ellipse fill="#F04650" cx="41.352" cy="39.612" rx="1" ry="1.028"/><ellipse fill="#F04650" cx="34.608" cy="38.905" rx="1" ry="1.028"/><ellipse fill="#F04650" cx="26.065" cy="38.713" rx="1" ry="1.028"/><ellipse fill="#F04650" cx="32.118" cy="47.131" rx="1" ry="1.028"/><ellipse fill="#F04650" cx="23.474" cy="46.634" rx="1" ry="1.028"/><ellipse fill="#F04650" cx="48.297" cy="77.357" rx="1" ry="1.028"/><ellipse fill="#F04650" cx="45.128" cy="45.562" rx="1" ry="1.028"/><ellipse fill="#F04650" cx="47.418" cy="52.15" rx="1" ry="1.028"/><ellipse fill="#F04650" cx="39.637" cy="47.216" rx="1" ry="1.028"/><ellipse fill="#F04650" cx="31.013" cy="81.027" rx="1" ry="1.028"/><ellipse fill="#F04650" cx="37.974" cy="53.591" rx="1" ry="1.028"/><ellipse fill="#F04650" cx="26.101" cy="70.593" rx="1" ry="1.028"/><ellipse fill="#F04650" cx="32.973" cy="60.347" rx="1" ry="1.028"/><ellipse fill="#F04650" cx="25.651" cy="60.082" rx="1" ry="1.028"/><ellipse fill="#F04650" cx="58.291" cy="58.589" rx="1" ry="1.028"/><ellipse fill="#F04650" cx="64.641" cy="47.131" rx="1" ry="1.028"/><ellipse fill="#F04650" cx="65.268" cy="57.248" rx="1" ry="1.028"/><ellipse fill="#F04650" cx="68.666" cy="51.869" rx="1" ry="1.028"/><ellipse fill="#F04650" cx="68.863" cy="42.242" rx="1" ry="1.028"/><ellipse fill="#F04650" cx="56.997" cy="35.878" rx="1" ry="1.028"/><ellipse fill="#F04650" cx="17.481" cy="42.964" rx="1" ry="1.028"/><ellipse fill="#F04650" cx="15.742" cy="56.73" rx="1" ry="1.028"/><ellipse fill="#F04650" cx="13.998" cy="50.399" rx="1" ry="1.028"/><ellipse fill="#F04650" cx="44.192" cy="56.971" rx="1" ry="1.028"/><ellipse fill="#F04650" cx="61.673" cy="66.149" rx="1" ry="1.028"/><ellipse fill="#F04650" transform="rotate(-68.5 50.121 61.627)" cx="50.121" cy="61.627" rx="1.028" ry="1"/><ellipse fill="#F04650" cx="53.33" cy="50.399" rx="1" ry="1.028"/><ellipse fill="#F04650" cx="40.794" cy="65.763" rx="1" ry="1.028"/><ellipse fill="#F04650" cx="60.689" cy="52.447" rx="1" ry="1.028"/><ellipse fill="#F04650" cx="61.946" cy="74.844" rx="1" ry="1.028"/><ellipse fill="#F04650" cx="53.555" cy="69.24" rx="1" ry="1.028"/><ellipse fill="#F04650" cx="28.438" cy="53.655" rx="1" ry="1.028"/><ellipse fill="#F04650" cx="21.425" cy="52.238" rx="1" ry="1.028"/></g></svg>