<svg xmlns="http://www.w3.org/2000/svg" width="116.2" height="169.3" viewBox="0.9 0.7 116.2 169.3"><defs><style/></defs><defs><linearGradient id="grad_1" x1="191.016" y1="337.454" x2="193.863" y2="228.108" gradientUnits="userSpaceOnUse"><stop offset="0" stop-color="#81D3F1"/><stop offset=".308" stop-color="#7FD0EF"/><stop offset=".495" stop-color="#78C7E8"/><stop offset=".65" stop-color="#6DBBDF"/><stop offset=".787" stop-color="#5DABD3"/><stop offset=".91" stop-color="#4998C4"/><stop offset="1" stop-color="#4A99C5"/><stop offset="1"/></linearGradient><linearGradient id="grad_2" x1="202.172" y1="337.745" x2="205.019" y2="228.399" gradientUnits="userSpaceOnUse"><stop offset="0" stop-color="#81D3F1"/><stop offset=".308" stop-color="#7FD0EF"/><stop offset=".495" stop-color="#78C7E8"/><stop offset=".65" stop-color="#6DBBDF"/><stop offset=".787" stop-color="#5DABD3"/><stop offset=".91" stop-color="#4998C4"/><stop offset="1" stop-color="#4A99C5"/><stop offset="1"/></linearGradient><linearGradient id="grad_3" x1="204.716" y1="337.811" x2="207.564" y2="228.465" gradientUnits="userSpaceOnUse"><stop offset="0" stop-color="#81D3F1"/><stop offset=".308" stop-color="#7FD0EF"/><stop offset=".495" stop-color="#78C7E8"/><stop offset=".65" stop-color="#6DBBDF"/><stop offset=".787" stop-color="#5DABD3"/><stop offset=".91" stop-color="#4998C4"/><stop offset="1" stop-color="#4A99C5"/><stop offset="1"/></linearGradient><linearGradient id="grad_4" x1="213.327" y1="338.035" x2="216.175" y2="228.689" gradientUnits="userSpaceOnUse"><stop offset="0" stop-color="#81D3F1"/><stop offset=".308" stop-color="#7FD0EF"/><stop offset=".495" stop-color="#78C7E8"/><stop offset=".65" stop-color="#6DBBDF"/><stop offset=".787" stop-color="#5DABD3"/><stop offset=".91" stop-color="#4998C4"/><stop offset="1" stop-color="#4A99C5"/><stop offset="1"/></linearGradient><linearGradient id="grad_5" x1="214.861" y1="338.075" x2="217.708" y2="228.729" gradientUnits="userSpaceOnUse"><stop offset="0" stop-color="#81D3F1"/><stop offset=".308" stop-color="#7FD0EF"/><stop offset=".495" stop-color="#78C7E8"/><stop offset=".65" stop-color="#6DBBDF"/><stop offset=".787" stop-color="#5DABD3"/><stop offset=".91" stop-color="#4998C4"/><stop offset="1" stop-color="#4A99C5"/><stop offset="1"/></linearGradient><linearGradient id="grad_6" x1="226.016" y1="338.366" x2="228.863" y2="229.02" gradientUnits="userSpaceOnUse"><stop offset="0" stop-color="#81D3F1"/><stop offset=".308" stop-color="#7FD0EF"/><stop offset=".495" stop-color="#78C7E8"/><stop offset=".65" stop-color="#6DBBDF"/><stop offset=".787" stop-color="#5DABD3"/><stop offset=".91" stop-color="#4998C4"/><stop offset="1" stop-color="#4A99C5"/><stop offset="1"/></linearGradient><linearGradient id="grad_7" x1="224.483" y1="338.326" x2="227.331" y2="228.98" gradientUnits="userSpaceOnUse"><stop offset="0" stop-color="#81D3F1"/><stop offset=".308" stop-color="#7FD0EF"/><stop offset=".495" stop-color="#78C7E8"/><stop offset=".65" stop-color="#6DBBDF"/><stop offset=".787" stop-color="#5DABD3"/><stop offset=".91" stop-color="#4998C4"/><stop offset="1" stop-color="#4A99C5"/><stop offset="1"/></linearGradient><linearGradient id="grad_8" x1="235.639" y1="338.616" x2="238.487" y2="229.27" gradientUnits="userSpaceOnUse"><stop offset="0" stop-color="#81D3F1"/><stop offset=".308" stop-color="#7FD0EF"/><stop offset=".495" stop-color="#78C7E8"/><stop offset=".65" stop-color="#6DBBDF"/><stop offset=".787" stop-color="#5DABD3"/><stop offset=".91" stop-color="#4998C4"/><stop offset="1" stop-color="#4A99C5"/><stop offset="1"/></linearGradient><linearGradient id="grad_9" x1="237.17" y1="338.656" x2="240.018" y2="229.31" gradientUnits="userSpaceOnUse"><stop offset="0" stop-color="#81D3F1"/><stop offset=".308" stop-color="#7FD0EF"/><stop offset=".495" stop-color="#78C7E8"/><stop offset=".65" stop-color="#6DBBDF"/><stop offset=".787" stop-color="#5DABD3"/><stop offset=".91" stop-color="#4998C4"/><stop offset="1" stop-color="#4A99C5"/><stop offset="1"/></linearGradient><linearGradient id="grad_10" x1="246.795" y1="338.907" x2="249.642" y2="229.561" gradientUnits="userSpaceOnUse"><stop offset="0" stop-color="#81D3F1"/><stop offset=".308" stop-color="#7FD0EF"/><stop offset=".495" stop-color="#78C7E8"/><stop offset=".65" stop-color="#6DBBDF"/><stop offset=".787" stop-color="#5DABD3"/><stop offset=".91" stop-color="#4998C4"/><stop offset="1" stop-color="#4A99C5"/><stop offset="1"/></linearGradient><linearGradient id="grad_11" x1="248.325" y1="338.947" x2="251.172" y2="229.601" gradientUnits="userSpaceOnUse"><stop offset="0" stop-color="#81D3F1"/><stop offset=".308" stop-color="#7FD0EF"/><stop offset=".495" stop-color="#78C7E8"/><stop offset=".65" stop-color="#6DBBDF"/><stop offset=".787" stop-color="#5DABD3"/><stop offset=".91" stop-color="#4998C4"/><stop offset="1" stop-color="#4A99C5"/><stop offset="1"/></linearGradient><linearGradient id="grad_12" x1="259.479" y1="339.237" x2="262.327" y2="229.891" gradientUnits="userSpaceOnUse"><stop offset="0" stop-color="#81D3F1"/><stop offset=".308" stop-color="#7FD0EF"/><stop offset=".495" stop-color="#78C7E8"/><stop offset=".65" stop-color="#6DBBDF"/><stop offset=".787" stop-color="#5DABD3"/><stop offset=".91" stop-color="#4998C4"/><stop offset="1" stop-color="#4A99C5"/><stop offset="1"/></linearGradient><linearGradient id="grad_13" x1="247.916" y1="254.31" x2="248.675" y2="165.462" gradientUnits="userSpaceOnUse"><stop offset="0" stop-color="#81D3F1"/><stop offset=".308" stop-color="#7FD0EF"/><stop offset=".495" stop-color="#78C7E8"/><stop offset=".65" stop-color="#6DBBDF"/><stop offset=".787" stop-color="#5DABD3"/><stop offset=".91" stop-color="#4998C4"/><stop offset="1" stop-color="#4A99C5"/><stop offset="1"/></linearGradient><linearGradient id="grad_14" x1="244.082" y1="254.277" x2="244.841" y2="165.429" gradientUnits="userSpaceOnUse"><stop offset="0" stop-color="#81D3F1"/><stop offset=".308" stop-color="#7FD0EF"/><stop offset=".495" stop-color="#78C7E8"/><stop offset=".65" stop-color="#6DBBDF"/><stop offset=".787" stop-color="#5DABD3"/><stop offset=".91" stop-color="#4998C4"/><stop offset="1" stop-color="#4A99C5"/><stop offset="1"/></linearGradient><linearGradient id="grad_15" x1="192.167" y1="337.484" x2="195.014" y2="228.138" gradientUnits="userSpaceOnUse"><stop offset="0" stop-color="#81D3F1"/><stop offset=".308" stop-color="#7FD0EF"/><stop offset=".495" stop-color="#78C7E8"/><stop offset=".65" stop-color="#6DBBDF"/><stop offset=".787" stop-color="#5DABD3"/><stop offset=".91" stop-color="#4998C4"/><stop offset="1" stop-color="#4A99C5"/><stop offset="1"/></linearGradient><linearGradient id="grad_16" x1="203.245" y1="337.773" x2="206.093" y2="228.427" gradientUnits="userSpaceOnUse"><stop offset="0" stop-color="#81D3F1"/><stop offset=".308" stop-color="#7FD0EF"/><stop offset=".495" stop-color="#78C7E8"/><stop offset=".65" stop-color="#6DBBDF"/><stop offset=".787" stop-color="#5DABD3"/><stop offset=".91" stop-color="#4998C4"/><stop offset="1" stop-color="#4A99C5"/><stop offset="1"/></linearGradient><linearGradient id="grad_17" x1="214.257" y1="338.06" x2="217.105" y2="228.714" gradientUnits="userSpaceOnUse"><stop offset="0" stop-color="#81D3F1"/><stop offset=".308" stop-color="#7FD0EF"/><stop offset=".495" stop-color="#78C7E8"/><stop offset=".65" stop-color="#6DBBDF"/><stop offset=".787" stop-color="#5DABD3"/><stop offset=".91" stop-color="#4998C4"/><stop offset="1" stop-color="#4A99C5"/><stop offset="1"/></linearGradient><linearGradient id="grad_18" x1="225.27" y1="338.346" x2="228.117" y2="229" gradientUnits="userSpaceOnUse"><stop offset="0" stop-color="#81D3F1"/><stop offset=".308" stop-color="#7FD0EF"/><stop offset=".495" stop-color="#78C7E8"/><stop offset=".65" stop-color="#6DBBDF"/><stop offset=".787" stop-color="#5DABD3"/><stop offset=".91" stop-color="#4998C4"/><stop offset="1" stop-color="#4A99C5"/><stop offset="1"/></linearGradient><linearGradient id="grad_19" x1="236.282" y1="338.633" x2="239.129" y2="229.287" gradientUnits="userSpaceOnUse"><stop offset="0" stop-color="#81D3F1"/><stop offset=".308" stop-color="#7FD0EF"/><stop offset=".495" stop-color="#78C7E8"/><stop offset=".65" stop-color="#6DBBDF"/><stop offset=".787" stop-color="#5DABD3"/><stop offset=".91" stop-color="#4998C4"/><stop offset="1" stop-color="#4A99C5"/><stop offset="1"/></linearGradient><linearGradient id="grad_20" x1="247.294" y1="338.92" x2="250.141" y2="229.574" gradientUnits="userSpaceOnUse"><stop offset="0" stop-color="#81D3F1"/><stop offset=".308" stop-color="#7FD0EF"/><stop offset=".495" stop-color="#78C7E8"/><stop offset=".65" stop-color="#6DBBDF"/><stop offset=".787" stop-color="#5DABD3"/><stop offset=".91" stop-color="#4998C4"/><stop offset="1" stop-color="#4A99C5"/><stop offset="1"/></linearGradient><linearGradient id="grad_21" x1="258.328" y1="339.207" x2="261.175" y2="229.861" gradientUnits="userSpaceOnUse"><stop offset="0" stop-color="#81D3F1"/><stop offset=".308" stop-color="#7FD0EF"/><stop offset=".495" stop-color="#78C7E8"/><stop offset=".65" stop-color="#6DBBDF"/><stop offset=".787" stop-color="#5DABD3"/><stop offset=".91" stop-color="#4998C4"/><stop offset="1" stop-color="#4A99C5"/><stop offset="1"/></linearGradient></defs><g id="ID0.7352098976261914" transform="translate(-21 -146)"><path id="ID0.8545032935217023" fill="#C3E8F3" d="M270.1 190.7l-49.5 4-8.5 34.2h-20.5l-9.2 18.4-.5 112.7h88.2V190.7zm-47.8 14.1l7.9-.6.1.1 36.3-2.6v38.5l-43.8 1.4-.5-36.8zm-33.9 47.4h8.1v80.6h-8.1v-80.6zm13.4 80.6h-2.1v-80.6h8.1v80.5h-6zm9.3 0v-80.5h8.1V333h-8.1zm11.3 0v-80.6h8.1v80.6h-8.1zm11.3 0v-80.5h8.1v80.5h-8.1zm11.3 0v-80.6h8.1v80.6H245zm11.3-53.2v-27.4h8.1v80.5h-8.1v-53.1z" transform="translate(-160 -44)"/><path id="ID0.975953864865005" fill="#C3E8F3" d="M196.6 252.2h-8.2v64l8.2-7.8v-56.2" transform="translate(-160 -44)"/><path id="ID0.8673065602779388" fill="url(#grad_1)" d="M196.6 252.2h-8.2v64l8.2-7.8v-56.2" transform="translate(-160 -44)"/><path id="ID0.8760471809655428" fill="#C3E8F3" d="M207.9 252.2h-8.2v53.1l8.2-7.9v-45.2" transform="translate(-160 -44)"/><path id="ID0.7196954139508307" fill="url(#grad_2)" d="M207.9 252.2h-8.2v53.1l8.2-7.9v-45.2" transform="translate(-160 -44)"/><path id="ID0.05960062285885215" fill="#C3E8F3" d="M201.8 332.8h6.1v-5.9l-6.1 5.9" transform="translate(-160 -44)"/><path id="ID0.7375213345512748" fill="url(#grad_3)" d="M201.8 332.8h6.1v-5.9l-6.1 5.9" transform="translate(-160 -44)"/><path id="ID0.9089473183266819" fill="#C3E8F3" d="M219.2 252.2h-8.1v42.1l8.1-7.8v-34.3" transform="translate(-160 -44)"/><path id="ID0.07450101105496287" fill="url(#grad_4)" d="M219.2 252.2h-8.1v42.1l8.1-7.8v-34.3" transform="translate(-160 -44)"/><path id="ID0.5845435252413154" fill="#C3E8F3" d="M211.1 323.7v9.1h8.1v-17l-8.1 7.9" transform="translate(-160 -44)"/><path id="ID0.34498749719932675" fill="url(#grad_5)" d="M211.1 323.7v9.1h8.1v-17l-8.1 7.9" transform="translate(-160 -44)"/><path id="ID0.5947716715745628" fill="#C3E8F3" d="M222.4 312.7v20.1h8.1v-28l-8.1 7.9" transform="translate(-160 -44)"/><path id="ID0.5732809505425394" fill="url(#grad_6)" d="M222.4 312.7v20.1h8.1v-28l-8.1 7.9" transform="translate(-160 -44)"/><path id="ID0.6384242596104741" fill="#C3E8F3" d="M230.5 252.2h-8.1v31.2l8.1-7.9v-23.3" transform="translate(-160 -44)"/><path id="ID0.6162898438051343" fill="url(#grad_7)" d="M230.5 252.2h-8.1v31.2l8.1-7.9v-23.3" transform="translate(-160 -44)"/><path id="ID0.5884986985474825" fill="#C3E8F3" d="M241.8 252.2h-8.1v20.2l8.1-7.8v-12.4" transform="translate(-160 -44)"/><path id="ID0.6047590277157724" fill="url(#grad_8)" d="M241.8 252.2h-8.1v20.2l8.1-7.8v-12.4" transform="translate(-160 -44)"/><path id="ID0.3613296621479094" fill="#C3E8F3" d="M233.7 301.7v31.1h8.1v-39.1l-8.1 8" transform="translate(-160 -44)"/><path id="ID0.39592458168044686" fill="url(#grad_9)" d="M233.7 301.7v31.1h8.1v-39.1l-8.1 8" transform="translate(-160 -44)"/><path id="ID0.6458407514728606" fill="#C3E8F3" d="M253.1 252.2H245v9.3l8.1-7.9v-1.4" transform="translate(-160 -44)"/><path id="ID0.8484288924373686" fill="url(#grad_10)" d="M253.1 252.2H245v9.3l8.1-7.9v-1.4" transform="translate(-160 -44)"/><path id="ID0.7328262785449624" fill="#C3E8F3" d="M245 290.6v42.2h8.1v-50.1l-8.1 7.9" transform="translate(-160 -44)"/><path id="ID0.5436356589198112" fill="url(#grad_11)" d="M245 290.6v42.2h8.1v-50.1l-8.1 7.9" transform="translate(-160 -44)"/><path id="ID0.25805519660934806" fill="#C3E8F3" d="M264.4 271.6l-8.1 8v53.2h8.1v-61.2" transform="translate(-160 -44)"/><path id="ID0.7574803261086345" fill="url(#grad_12)" d="M264.4 271.6l-8.1 8v53.2h8.1v-61.2" transform="translate(-160 -44)"/><path id="ID0.8348133186809719" fill="#40B4E5" d="M270.1 360h28l-1.2-162.9-26.8-6.4V360" transform="translate(-160 -44)"/><path id="ID0.07479591574519873" fill="#C3E8F3" d="M247.4 231.9l11.5-29.5 7.6-.7-36.3 2.6 11.3 27.8 5.9-.2zm4.6-29.2l-8.3 18.4-7.9-17.1 16.2-1.3z" transform="translate(-160 -44)"/><path id="ID0.4458111459389329" fill="url(#grad_13)" d="M247.4 231.9l11.5-29.5 7.6-.7-36.3 2.6 11.3 27.8 5.9-.2zm4.6-29.2l-8.3 18.4-7.9-17.1 16.2-1.3z" transform="translate(-160 -44)"/><path id="ID0.7393439514562488" fill="#C3E8F3" d="M222.7 241.6l43.8-1.4v-33.7l-15 34.1-14.3.3-14.9-36h-.1l.5 36.7" transform="translate(-160 -44)"/><path id="ID0.08146621007472277" fill="url(#grad_14)" d="M222.7 241.6l43.8-1.4v-33.7l-15 34.1-14.3.3-14.9-36h-.1l.5 36.7" transform="translate(-160 -44)"/><path id="ID0.7938482165336609" fill="#9BDBF1" d="M251.5 240.6l15-34.1v-4.8l-7.6.7-11.5 29.5-6 .2-11.2-27.8-.1-.1-7.8.6v.1l14.9 36 14.3-.3" transform="translate(-160 -44)"/><path id="ID0.8088220404461026" fill="#9BDBF1" d="M252 202.7l-16.2 1.3 7.9 17.1 8.3-18.4" transform="translate(-160 -44)"/><path id="ID0.31497198436409235" fill="#C3E8F3" d="M196.6 332.8v-24.4l-8.2 7.8v16.6h8.2" transform="translate(-160 -44)"/><path id="ID0.04896959289908409" fill="url(#grad_15)" d="M196.6 332.8v-24.4l-8.2 7.8v16.6h8.2" transform="translate(-160 -44)"/><path id="ID0.38707465259358287" fill="#D9F0F6" opacity=".56" d="M196.6 332.8v-24.4l-8.2 7.8v16.6h8.2" transform="translate(-160 -44)"/><path id="ID0.23735713539645076" fill="#C3E8F3" d="M207.9 297.4l-8.2 7.9v27.5h2.1l6.1-5.9v-29.5" transform="translate(-160 -44)"/><path id="ID0.6971203424036503" fill="url(#grad_16)" d="M207.9 297.4l-8.2 7.9v27.5h2.1l6.1-5.9v-29.5" transform="translate(-160 -44)"/><path id="ID0.5022018379531801" fill="#D9F0F6" opacity=".56" d="M207.9 297.4l-8.2 7.9v27.5h2.1l6.1-5.9v-29.5" transform="translate(-160 -44)"/><path id="ID0.7823559269309044" fill="#C3E8F3" d="M219.2 286.5l-8.1 7.8v29.4l8.1-7.9v-29.3" transform="translate(-160 -44)"/><path id="ID0.16822492377832532" fill="url(#grad_17)" d="M219.2 286.5l-8.1 7.8v29.4l8.1-7.9v-29.3" transform="translate(-160 -44)"/><path id="ID0.96534986468032" fill="#D9F0F6" opacity=".56" d="M219.2 286.5l-8.1 7.8v29.4l8.1-7.9v-29.3" transform="translate(-160 -44)"/><path id="ID0.9581986172124743" fill="#C3E8F3" d="M230.5 275.5l-8.1 7.9v29.3l8.1-7.9v-29.3" transform="translate(-160 -44)"/><path id="ID0.17190683726221323" fill="url(#grad_18)" d="M230.5 275.5l-8.1 7.9v29.3l8.1-7.9v-29.3" transform="translate(-160 -44)"/><path id="ID0.9630941208451986" fill="#D9F0F6" opacity=".56" d="M230.5 275.5l-8.1 7.9v29.3l8.1-7.9v-29.3" transform="translate(-160 -44)"/><path id="ID0.9489440503530204" fill="#C3E8F3" d="M241.8 264.6l-8.1 7.8v29.3l8.1-8v-29.1" transform="translate(-160 -44)"/><path id="ID0.24033186165615916" fill="url(#grad_19)" d="M241.8 264.6l-8.1 7.8v29.3l8.1-8v-29.1" transform="translate(-160 -44)"/><path id="ID0.8563483008183539" fill="#D9F0F6" opacity=".56" d="M241.8 264.6l-8.1 7.8v29.3l8.1-8v-29.1" transform="translate(-160 -44)"/><path id="ID0.46940037654712796" fill="#C3E8F3" d="M253.1 253.6l-8.1 7.9v29.1l8.1-7.9v-29.1" transform="translate(-160 -44)"/><path id="ID0.1012669880874455" fill="url(#grad_20)" d="M253.1 253.6l-8.1 7.9v29.1l8.1-7.9v-29.1" transform="translate(-160 -44)"/><path id="ID0.5606321641243994" fill="#D9F0F6" opacity=".56" d="M253.1 253.6l-8.1 7.9v29.1l8.1-7.9v-29.1" transform="translate(-160 -44)"/><path id="ID0.07834019418805838" fill="#C3E8F3" d="M264.4 252.2h-8.1v27.4l8.1-8v-19.4" transform="translate(-160 -44)"/><path id="ID0.6999503024853766" fill="url(#grad_21)" d="M264.4 252.2h-8.1v27.4l8.1-8v-19.4" transform="translate(-160 -44)"/><path id="ID0.3238086733035743" fill="#D9F0F6" opacity=".56" d="M264.4 252.2h-8.1v27.4l8.1-8v-19.4" transform="translate(-160 -44)"/></g></svg>