<svg width="120" height="120" viewBox="0 0 120 120" xmlns="http://www.w3.org/2000/svg" xmlns:xlink="http://www.w3.org/1999/xlink"><defs><path id="a" d="M0 .346h68.274v89.672H0z"/></defs><g fill="none" fill-rule="evenodd"><g transform="translate(26 .217)"><mask id="b" fill="#fff"><use xlink:href="#a"/></mask><path d="M4.626 53.812c-.536-1.331-.922-2.445-1.294-3.397.124.396.524 1.608 1.294 3.397m43.542 22.395c1.904-.414 3.122-.794 3.517-.924-.99.252-2.121.585-3.517.924M59.655.346c-.421 4.06.276 6.707.781 8.275.002-.005.008-.009.012-.013.742-.586 1.395-1.012 1.93-1.215.336 1.65.136 2.871-.096 4.421l-.07.111.016-.015c.307-.288 2.092.107 2.387-.17.356 1.616-.808 4.102-.96 4.261-.747.815 2.57-.184 2.59-.105.539 2.39-1.418 5.43-1.418 5.43s2.37-.19 2.362-.604c.156 1.733-1.281 4.42-2.082 5.2-.068.072-.054.127.019.16l-.1.099c.418.1 1.577-.033 2.421-.484-.298 1.978-.614 3.453-2.286 4.867.616.205 2.093.553 2.622.386-.087 2.146-1.327 3.77-2.607 5.274.545.34 1.826.547 2.473.474-.18 1.85-1.297 3.047-2.35 4.33.141.012.306.05.482.091-.188.13-.384.253-.575.38.202-.113.408-.221.605-.34.771.178 1.879.635 2.463.43-.207 1.881-1.777 3.022-3.03 4.372.608.085 2.013.754 2.667.633-.499 1.818-2.126 2.617-3.15 3.972.541-.024 2.094.335 2.674.918-.868 1.685-2.26 1.587-3.278 2.931.643.004 1.528.677 2.344.815-.423 1.053-2.042 2.211-3.245 2.973.682.215 1.729.964 2.266.753-.672 2.17-2.82 2.31-3.564 3.566.616-.115 1.222.226 1.857.289-1.18 3.189-3.137 2.95-4.93 3.96.365-.083 2.114 1.463 2.514 1.364-1.448 1.953-2.89 2.272-5.204 2.793.719.137 1.168 1.342 1.934 1.392-1.287 1.802-3.985 1.938-6.135 2.887-.047.01-.097.024-.144.035.515.07 1.943 2.222 2.438 2.276-1.874 1.2-5.08.738-7.124 1.575.603.063 1.442 1.733 2.01 2.005-2.251 1.367-4.454.296-6.79.849.513.207 1.338 1.984 1.844 2.191-2.448.67-5.958-.807-8.493-.56.59.554 2.538 2.087 2.699 2.994-2.277.117-4.882.121-7.376-.093-4.737-.408-12.584 1.531-17.523 3.539-1.24-5.185-4.226-12.696-7.313-16.312-1.625-1.904-3.136-4.025-4.366-5.945.832-.397 3.212.295 4.007.452-1.274-2.205-4.518-4.201-5.397-6.581.463.29 2.389-.072 2.855.224-.91-2.222-3.061-3.39-3.259-6.016.552.303 2.398.015 2.8.47C2.356 54.158.115 51.818 0 49.596c.332.371 2.913.282 3.27.66a17.977 17.977 0 0 0-.055-.139c-.479-2.299-1.937-4.573-1.22-6.668.486.593 1.727.258 2.256.763-.92-2.185-1.5-3.544-.755-5.858.154.383 2.429.907 2.573 1.253-.223-2.046-1.554-3.5.354-6.315.42.48 1.05.774 1.314 1.342.59-1.334-.545-3.164.829-4.972.14.56 1.357.975 1.93 1.405-.08-1.421-.08-3.413.53-4.369.588.584 1.65.913 2.027 1.433.501-1.61-.388-2.685.478-4.372.811.133 2.006 1.188 2.302 1.641.507-1.62.21-3.409 1.398-4.872.282.603 1.644 1.357 2.067 1.802.37-1.805.384-3.746 1.794-5.008.173.595 1.19 1.23 1.782 1.753.018.23.05.46.075.69-.006-.23-.02-.46-.025-.689.137.12.263.232.354.339.432-1.603.755-3.208 2.156-4.43.317.569 1.23 1.49 1.824 1.737.478-1.916 1.079-3.87 2.775-5.188.17.526 1.312 1.526 1.838 1.908.177-2.183 1.193-3.298 2.629-4.691.124.95.691 1.969 1.014 2.25l.023-.137c.069.04.122.018.14-.079.17-1.105 1.52-3.836 3.02-4.717-.342.233.882 2.272.882 2.272s1.335-3.36 3.593-4.312c.076-.03 1.193 3.25 1.42 2.168.042-.216 1.387-2.609 2.91-3.26-.055.402 1.304 1.625 1.249 2.041L48.748 5l.05-.121c1.125-1.09 2.003-1.964 3.54-2.65.146.554.18 1.333.134 2.277-.001.006-.001.013-.003.017 1.568-.5 4.128-1.473 7.186-4.177" fill="#FAA819" mask="url(#b)"/></g><path d="M63.516 37.923l-.419.787.419-.787zM30.918 118.64c2.462-13.388 8.537-30.425 14.884-45.601-7.16-8.054-11.328-17.874-11.247-28.751l.116.943c1.244 11.186 3.837 18.663 11.433 27.088a434.109 434.109 0 0 1 3.86-8.903c-5.49-6.795-8.496-20.711-8.23-29.166.047-1.512.132-2.047.52-3.495-.199 1.3-.296 2.174-.295 3.499.008 8.229 2.974 21.717 8.327 28.445a408.23 408.23 0 0 1 5.015-10.741c-3.913-8.038-5.374-20.033-4.827-28.801l.068 1.016c.484 9.293 1.007 18.486 5.15 26.986a325.043 325.043 0 0 1 6.356-12.32c-1.91-6.856-3.9-16.162-2.18-23.17-.874 7.642.546 14.98 2.66 22.289 1.88-3.424 3.89-6.917 5.966-10.274-.906-5.447-1.026-11.15-.456-16.643.085 1.325.07.814.083 2.127.046 5.127.054 8.66.93 13.622 4.076-6.51 8.381-12.434 12.433-16.263l-.865 1.072c-3.781 4.613-7.28 9.634-10.533 14.882 4.63-1.473 7.73-3.068 12.204-5.33 1.17-.592.71-.37 1.926-.905-4.528 2.972-9.541 5.448-14.69 7.144a209.34 209.34 0 0 0-6.01 10.533c7.522-1.265 14.767-3.168 21.287-7.279-5.537 4.564-14.713 6.808-21.706 8.066a303.704 303.704 0 0 0-6.132 12.283c9.336-1.057 17.351-5.493 25.428-10.014l.897-.484c-7.057 5.086-17.837 10.193-26.675 11.24a453.604 453.604 0 0 0-5.128 11.31c8.586.698 21.667-4.859 28.502-9.737 1.079-.77 1.734-1.357 2.675-2.275-.952 1.158-1.338 1.538-2.54 2.457-6.832 5.217-20.219 10.967-28.935 10.238a448.803 448.803 0 0 0-3.8 8.992c11.21 1.253 18.785-.991 28.576-6.467l.834-.454c-8.735 6.344-19.056 8.679-29.686 7.599-6.052 14.843-12.1 32.023-14.485 45.535a.868.868 0 0 1-1.71-.293z" fill="#DC9517"/></g></svg>