<svg width="120" height="120" viewBox="0 0 120 120" xmlns="http://www.w3.org/2000/svg" xmlns:xlink="http://www.w3.org/1999/xlink"><defs><path id="a" d="M.387.122h44.26v49.352H.387z"/></defs><g fill="none" fill-rule="evenodd"><path d="M52.522 62.86c-25.995-18.62-70.14 30.977-11.54 25.66 6.936-.628 13.662-16.19 11.54-25.66" fill="#F5BAB6"/><path d="M52.384 61.945c-3.936-4.073-5.203-22.563-14.383-34.048-12.23-15.303-25.877-4.59-26.42 12.287C11.23 51.19-1.321 67.073 23.74 69.368c6.936.635 29.038 2.275 28.645-7.423" fill="#EC7FA9"/><path d="M22.8 23.909c4.206-3.705 12.068 1.484 12.796 7.501C37.629 48.208-1.206 45.06 22.8 23.909" fill="#F5BAB6"/><path d="M23.607 26.645c2.852-2.513 8.186 1.007 8.68 5.09 1.379 11.395-24.965 9.259-8.68-5.09" fill="#EC7FA9"/><path d="M24.594 29.998c1.196-1.054 3.432.422 3.639 2.133.578 4.778-10.466 3.882-3.639-2.133" fill="#F5BAB6"/><path d="M23.102 78.357c1.216 2.47-2.218 5.56-5.145 5.15-8.171-1.147-1.8-19.246 5.145-5.15" fill="#EC898C"/><path d="M21.71 78.397c.826 1.674-1.504 3.772-3.49 3.493-5.542-.778-1.22-13.055 3.49-3.493" fill="#EC7FA9"/><path d="M20.007 78.445c.346.702-.63 1.581-1.463 1.464-2.324-.326-.512-5.473 1.463-1.464" fill="#EC898C"/><path d="M68.382 62.86c25.996-18.62 70.14 30.977 11.54 25.66-6.936-.628-13.662-16.19-11.54-25.66" fill="#F5BAB6"/><g transform="translate(68.128 20.408)"><mask id="b" fill="#fff"><use xlink:href="#a"/></mask><path d="M.392 41.537c3.935-4.073 5.203-22.563 14.383-34.048 12.23-15.303 25.877-4.59 26.42 12.287.353 11.005 12.903 26.888-12.158 29.184C22.101 49.595 0 51.234.392 41.537" fill="#EC7FA9" mask="url(#b)"/></g><path d="M98.104 23.909c-4.206-3.705-12.068 1.484-12.796 7.501-2.033 16.798 36.802 13.65 12.796-7.501" fill="#F5BAB6"/><path d="M97.298 26.645c-2.853-2.513-8.186 1.007-8.68 5.09-1.38 11.395 24.965 9.259 8.68-5.09" fill="#EC7FA9"/><path d="M96.31 29.998c-1.196-1.054-3.431.422-3.639 2.133-.578 4.778 10.467 3.882 3.64-2.133" fill="#F5BAB6"/><path d="M97.802 78.357c-1.216 2.47 2.219 5.56 5.146 5.15 8.17-1.147 1.798-19.246-5.146-5.15" fill="#EC898C"/><path d="M99.193 78.397c-.825 1.674 1.505 3.772 3.49 3.493 5.544-.778 1.22-13.055-3.49-3.493" fill="#EC7FA9"/><path d="M100.897 78.445c-.346.702.63 1.581 1.464 1.464 2.323-.326.51-5.473-1.464-1.464" fill="#EC898C"/><path d="M49.766 54.425c.006-.004 11.748 1.796 16.524.054 2.383-.869 1.47 2.266-1.377 5.562-2.212 2.561-1.626 6.802-8.752 3.665-2.297-1.012-6.265-5.175-6.302-7.809 0-.007-.608-1.127-.093-1.472" fill="#F1C28C"/><path d="M75.99 50.81c2.592-.992 13.804-7.167 16.06-9.397.688-.68 1.42-2.746 1.98-3.292.397-.637.767-1.282.924-1.958.4-1.733.785-1.443 1.201-.94.243.293-.07 2.026-.26 3.12.87-.305 3.005-1.988 5.42-2.66 1.027.56-3.357 2.933-2.917 2.844 1.171-.238 3.704-2.06 4.55-1.637 1.233.618-3.5 1.756-4.17 2.893-.002.004 4.203-1.777 4.448-.813.021.084-.124.201-.578.39-.639.263-3.044 1.318-3.484 1.503.878-.102 1.562-.193 2.394-.096 2.064.24-1.97 1.122-2.422 1.215-1.477.308-4.149 1.38-5.363 2.358-4.939 5.79-16.633 11.25-20.774 14.633-3.794 3.1-2.29.675-2.482-5.008-.06-1.738 3.193-2.282 5.472-3.154" fill="#FAD3A3"/><path d="M80.734 39.644c-.11 19.054-43.14 24.2-42.926-2.585.163-20.506 43.076-23.51 42.926 2.585" fill="#FAD3A3"/><path d="M46.186 36.477c2.788-.11 3.77 3.255 2.664 5.055-1.131 1.84-4.399 2.09-5.751-.702-1.353-2.793 2.005-4.311 3.087-4.353" fill="#FEFEFE"/><path d="M49.317 39.93c-.15-.706-.042-1.399-.767-2.37-1.455-1.953-4.284-1.341-5.96-.073-1.478 1.118-2.446-.757-1.801.107 1.832 2.456 5.118-1.596 7.478.77.065.065 1.054 1.584 1.05 1.566" fill="#210001"/><path d="M45.772 37.552c2.002-.078 2.707 2.337 1.913 3.629-.813 1.322-3.159 1.501-4.13-.504-.971-2.005 1.44-3.095 2.217-3.125" fill="#231916"/><path d="M70.047 35.546c-2.788.108-3.507 3.539-2.266 5.247 1.27 1.747 4.547 1.741 5.68-1.148 1.133-2.89-2.332-4.141-3.414-4.1" fill="#FEFEFE"/><path d="M69.826 36.89c-1.924.075-2.421 2.442-1.564 3.62.876 1.206 3.137 1.202 3.92-.791.782-1.995-1.609-2.858-2.356-2.83" fill="#231916"/><path d="M67.006 39.202c.035-.65.074-1.201.583-2.167 1.021-1.94 3.387-1.84 5.052-.95 1.469.785 2.067-1.017 1.615-.159-1.286 2.44-4.769-.697-6.535 1.737-.05.067-.716 1.555-.715 1.539" fill="#210001"/><path d="M59.505 39.202c4.153-.3 4.436 3.956 1.404 5.49-1.755.889 1.358-.367.881-3.162-.477-2.798-3.271-2.256-2.285-2.328" fill="#F1C28C"/><path d="M49.006 32.075c-1.798-1.36-4.262-1.262-5.454.86-.215.382.115.636 1.216-.02.936-.557 2.324-.846 3.398-.637.298.058.648.39.912.102-.025-.155.083-.188-.072-.305m17.903-.837c1.687-1.496 4.152-1.59 5.504.433.243.365-.066.642-1.214.075-.976-.483-2.383-.663-3.437-.371-.292.08-.616.44-.901.173.012-.157-.097-.18.048-.31" fill="#F2B800"/><path d="M46.668 38.86c.777-.03 1.05.907.742 1.409-.315.513-1.225.582-1.602-.196-.378-.779.558-1.202.86-1.214m23.132-.577c.778-.03 1.051.907.743 1.41-.315.513-1.226.582-1.603-.196-.377-.779.559-1.202.86-1.214" fill="#FEFEFE"/><path d="M63.399 46.958c1.361.368-8.138.758-8.115 1.04.355 4.34 5.943 4.882 7.425 1.775.637-1.335.556-2.852.69-2.815" fill="#EE8785"/><path d="M61.168 51.051c-.392-1.404-2.865-1.195-3.34.17.47.271 1.064.544 1.69.53.638-.016 1.242-.41 1.65-.7" fill="#D76B6C"/><path d="M72.692 44.74c-.008-1.036-3.657-1.335-3.408.476.07.512 3.42 1.175 3.408-.475m-24.239.945c-.008-1.036-3.657-1.336-3.408.476.071.511 3.42 1.175 3.408-.476" fill="#EC7FA9"/><path d="M76.445 49.04c.262-3.988-.025-22.121-4.865-24.36.078 1.427.094 1.267.792 3.78-6.505.982-24.471 2.734-29.132 1.654.36-1.737.597-3.74 1.593-5.125-5.9 9.344-4.618 17.725-.313 26.535-.768-.074-2.134 1.339-3.684 1.151-1.032-.125-2.106-1.888-3.29-1.878-.897.008-2.194 1.4-2.956 1.135-1.317-.46-.705-1.966-1.169-3.356-.273-.82-1.892-1.488-1.886-2.181.015-1.555 2.204-1.58 2.025-2.333-.204-.862-1.768-1.563-1.763-2.355.008-1.065 1.348-1.612 1.284-2.73-.062-1.086-1.965-2.491-1.764-3.602.218-1.21 2.042-1.824 2.42-3.004 3.303-10.284 10.985-19.637 22.534-20.313 11.891-.695 21.389 6.795 26.303 16.56.44.873 2.045.23 2.498 1.79.507 1.752-.64 2.59-.368 3.461.225.715 1.719.235 2.327 1.856.692 1.842-1.289 2.28-1.14 3.272.111.742 2.061.436 2.432 1.904.337 1.336-2.072 2.172-2.084 3.09-.006.492.332 1.745-1.315 2.716-1.669.985-2.848-1.25-3.256-.302-1.262 2.934-3.523 2.675-5.223 2.634" fill="#F2B800"/><path d="M56.91 48.668c.591.01 5.259-.096 5.468-.57.01-.022.297-.466.46-.825-1.136-.039-7.039.573-7.037.596.064.806.674.791 1.108.799" fill="#FEFEFE"/><path d="M39.306 35.504c.29-4.186 4.794-13.513 9.181-15.94 11.079-6.13 25.242.098 28.691 12.629.494 1.792-.101-10.74-6.65-14.824-9.857-6.148-27.649-4.64-31.213 8.84-.275 1.037-1.443 5.717-.009 9.295" fill="#1CA9E2"/><path d="M46.98 18.913c-.727-8.641-.018-6.65-2.393-14.345-.383-1.243 2.427-3.602 3.172 12.884.017.377-.765 1.633-.78 1.461m19.918-1.341c.338-8.713-.28-6.632 1.744-14.624.327-1.29-2.58-3.264-2.586 13.271 0 .379.835 1.527.842 1.353" fill="#1CA9E2"/><path d="M43.596 1.611c-.772.077-2.293 3.582 2.355 3.366.864-5.415-2.209-3.38-2.355-3.366M69.567.41c.775.005 2.519 3.358-2.13 3.573C66.225-1.337 69.42.408 69.568.41" fill="#1CA9E2"/><path d="M43.54 53.19c-2.593-.993-13.805-7.169-16.061-9.399-.688-.68-1.42-2.746-1.98-3.292-.397-.637-.767-1.282-.924-1.958-.4-1.733-.785-1.443-1.2-.94-.244.293.07 2.027.26 3.12-.87-.304-3.006-1.987-5.421-2.66-1.027.56 3.357 2.934 2.917 2.844-1.171-.237-3.703-2.06-4.549-1.636-1.234.618 3.499 1.756 4.17 2.892.002.004-4.204-1.777-4.449-.813-.02.084.124.202.578.39.64.263 3.044 1.318 3.484 1.503-.878-.102-1.562-.193-2.394-.096-2.064.24 1.97 1.122 2.422 1.216 1.477.307 4.15 1.38 5.363 2.358v-.001c4.939 5.791 16.633 11.25 20.774 14.634 3.794 3.1 2.29.674 2.482-5.008.06-1.738-3.193-2.282-5.472-3.154m12.164 36.866c.804 1.112-1.018 17.965 1.341 23.231.833 1.86-2.286 9.961-6.128-.922-1.453-4.114-7.33-20.401-2.735-22.04 1.593-.569 6.514-1.665 7.522-.27m8.649-.505c-.765 1.141 1.646 17.92-.528 23.266-.767 1.888 2.633 9.874 6.092-1.139 1.308-4.163 6.611-20.647 1.963-22.123-1.612-.512-6.568-1.433-7.527-.003" fill="#FAD3A3"/><path d="M59.893 115.044c-2.571-5.097-5.052 2.072-7.483.15-.49-.387-.649-.636-.8-1.048-.434-1.177-.439 4.895-.14 5.738 1.76-.629 1.188.27 1.178-1.014.016-.013 10.16 1.952 7.245-3.826" fill="#1CA9E2"/><path d="M61.224 113.142c3-4.854 4.854 2.503 7.442.8.52-.342.7-.576.887-.973.534-1.135.014 4.914-.355 5.728-1.7-.779-1.208.165-1.087-1.113-.015-.014-10.29 1.06-6.887-4.442" fill="#1CA9E2"/><path d="M66.397 54.126c-1.86 5.48-3.016 9.124-8.827 8.027-4.051-.765-4.695-6.043-5.53-7.434-2.585-.2-4.282-1.336-4.701-1.501-2.096-.826-4.353-2.62-5.187-1.651-1.922 2.232-2.872 7.978-2.6 8.51.452.886 6.02 1.65 6.497 2.59.065.128-.105 3.1 2.056 4.503-11.314 5.218-9.871 22.274-10.603 24.3.837.504 1.1 6.03 2.278 6.412 1.564.506 4.158-4.178 6.161-3.862 1.533.242 2.693 6.096 4.388 6.242 1.769.152 4.08-5.407 5.933-5.345 1.301.044 2.221 5.061 3.525 5.068 1.284.006 2.952-4.997 4.207-5.021 1.27-.025 3.513 4.897 4.721 4.845 2.045-.087 2.986-5.17 4.73-5.313 1.17-.096 2.733 4.31 3.71 4.199.994-.114 1.4-4.746 2.145-4.867.192-2.337.225-20.825-8.901-26.743 2.927-1.787 2.152-2.871 2.303-3.626 1.122-5.628 7.904-4.537 6.474-7.388-.587-1.172.041-5.848-2.042-5.763-2.778.113-8.927 3.324-10.737 3.818" fill="#63C4EF"/><path d="M52.026 54.727c-2.552 2.232-.2 10.378 4.592 10.15 1.226-.058 2.423-.2 2.786-1.842.308-1.397-.021 2.26 3.294 1.806 4.31-.59 6.263-9.174 4.033-10.619-1.87 2.349-2.664 8.056-8.083 7.836-3.836-.156-6.752-7.217-6.622-7.33m-4.272 12.414c.468 2 18.01 3.646 22.293-.085.584.405.603.418.935.674-.768 4.119-19.032 6.594-24.312-.032l1.084-.557z" fill="#1CA9E2"/></g></svg>