<svg width="120" height="120" viewBox="0 0 120 120" xmlns="http://www.w3.org/2000/svg"><g fill="none" fill-rule="evenodd"><path d="M19.024 79.667c.59-21.996 18.667-39.71 40.804-39.71 22.136 0 40.214 17.714 40.804 39.71H19.024zm40.804-58.581C26.863 21.086.138 47.81.138 80.775v17.762h119.379V80.775c0-32.965-26.724-59.69-59.69-59.69z" fill="#F5C624"/><path fill="#B99834" d="M3.63 98.537h.904v-3.233H3.63zm3.368 0h.904v-3.233h-.904zm3.383 0h.904v-3.233h-.904zm3.369 0h.904v-3.233h-.904zm3.383 0h.904v-3.233h-.904zm3.384 0h.904v-3.233h-.904zm3.384 0h.904v-3.233h-.904zm3.369 0h.903v-3.233h-.904zm3.383 0h.904v-3.233h-.904zm3.368 0h.904v-3.233h-.904zm3.384 0h.904v-3.233h-.904zm3.368 0h.904v-3.233h-.904zm3.384 0h.904v-3.233h-.904zm3.383 0h.904v-3.233h-.904zm3.384 0h.904v-3.233h-.904zm3.368 0h.904v-3.233h-.904zm3.384 0h.904v-3.233h-.904zm3.384 0h.904v-3.233h-.904zm3.368 0h.904v-3.233h-.904zm3.384 0h.904v-3.233h-.904zm3.368 0h.904v-3.233h-.904zm3.383 0h.905v-3.233h-.905zm3.369 0h.904v-3.233h-.904zm3.383 0h.904v-3.233h-.904zm3.384 0h.904v-3.233H84.7zm3.384 0h.904v-3.233h-.904zm3.367 0h.905v-3.233h-.904zm3.385 0h.904v-3.233h-.904zm3.384 0h.904v-3.233h-.904zm3.383 0h.904v-3.233h-.904zm3.384 0h.904v-3.233h-.904zm3.368 0h.904v-3.233h-.904zm3.384 0h.904v-3.233h-.904zm3.384 0h.904v-3.233h-.904zM59.44 23.682h.775v-2.596h-.775zm-8.94.782l-.763.135-.45-2.557.762-.134.451 2.556m-9.431 2.458l-.728.264-.887-2.44.727-.264.888 2.44m-8.861 4.058l-.67.386-1.299-2.248.67-.387 1.299 2.248m-8.022 5.535l-.593.498-1.67-1.99.594-.497 1.669 1.989m-6.939 6.844l-.498.593-1.989-1.67.498-.592 1.989 1.669m-5.645 7.944l-.388.67-2.248-1.297.387-.671 2.249 1.298m-4.181 8.804l-.264.728-2.44-.888.265-.728 2.44.888m-2.588 9.397l-.135.762-2.556-.45.134-.763 2.557.45M1.321 79.98h2.596v-.775H1.321zm114.417 0h2.596v-.775h-2.596zm1.64-10.928l.135.762-2.557.45-.135-.761 2.557-.451m-2.705-9.834l.265.728-2.44.888-.264-.728 2.44-.888m-4.372-9.214l.387.67-2.248 1.299-.387-.67 2.248-1.3m-5.905-8.314l.498.593-1.989 1.669-.497-.593 1.988-1.67m-7.259-7.163l.593.498-1.668 1.989-.593-.498 1.668-1.989m-8.392-5.795l.67.388-1.298 2.248-.67-.387 1.298-2.248m-9.272-4.249l.728.265-.888 2.44-.728-.265.888-2.44m-9.868-2.574l.763.134-.451 2.557-.763-.135.45-2.556"/><path fill="#B99834" d="M.139 98.537h119.75V96.92H.138z"/></g></svg>