<svg width="120" height="120" viewBox="0 0 120 120" xmlns="http://www.w3.org/2000/svg"><g fill="none" fill-rule="evenodd"><path fill="#ACC953" d="M0 34.004l2.338 24.935 2.337 1.558 5.6 4.471-1.704-4.47 6.599-27.61zm91.948 29.61h24.156V48.812L120 30.887a23.25 23.25 0 0 1-25.924 9.21l-2.128-.639v24.156z"/><path d="M9.35 45.692s-4.675-.78-4.675-6.234m1.559 10.909S2.338 48.81 2.338 39.458m106.752 6.234s4.676-.78 4.676-6.234" fill="#87B828"/><path d="M113.766 53.095c0 15.48-24.595 28.028-54.935 28.028-30.34 0-54.935-12.549-54.935-28.028 0-15.48 10.13-29.174 54.935-24.912 44.805 4.262 54.935 9.432 54.935 24.912" fill="#FFF"/><path d="M85.318 76.471l-22.59 22.59-22.591-22.59 5.86-3.425a53.549 53.549 0 0 0 21.799-24.234l4.16 7.592a139.934 139.934 0 0 0 13.362 20.067" fill="#87B828"/><path d="M1.558 77.25c0 13.987 25.642 25.325 57.273 25.325 31.631 0 57.273-11.338 57.273-25.325V51.536c0 13.986-25.642 25.325-57.273 25.325-31.63 0-57.273-11.339-57.273-25.325V77.25z" fill="#BF8B61"/><path d="M66.234 60.497s-2.338 9.35-11.689 13.247m11.689 0s4.675-4.675 2.337-13.247m7.013 10.13s.78-2.338-3.896-8.571" fill="#ACC953"/><path d="M112.208 50.367s3.896-1.558 3.896-10.909" fill="#87B828"/><path d="M62.338 25.432c0 4.304-3.14 7.792-7.013 7.792-3.874 0-7.013-3.488-7.013-7.792 0-4.303 3.14-7.792 7.013-7.792 3.873 0 7.013 3.489 7.013 7.792" fill="#FFF"/><path d="M69.35 25.432c0 4.304-2.093 7.792-4.675 7.792S60 29.736 60 25.432c0-4.303 2.093-7.792 4.675-7.792s4.676 3.489 4.676 7.792" fill="#FFF"/><path d="M75.584 29.328c0 4.304-2.093 7.792-4.675 7.792s-4.675-3.488-4.675-7.792c0-4.303 2.093-7.792 4.675-7.792s4.675 3.489 4.675 7.792" fill="#FFF"/><path d="M80.243 30.379c-2.4 3.57-6.085 5.298-8.227 3.857-2.143-1.44-1.934-5.504.468-9.075 2.401-3.571 6.085-5.298 8.228-3.857 2.142 1.44 1.933 5.503-.469 9.075" fill="#FFF"/><path d="M65.056 31.811c-.114.901-.354 1.831-.81 2.713a5.856 5.856 0 0 1-.866 1.238 5.68 5.68 0 0 1-1.183.974c-.872.537-1.844.801-2.78.9a8.835 8.835 0 0 1-2.088-.031 9.63 9.63 0 0 1-.347-.052l-.178-.033a4.844 4.844 0 0 1-.204-.045l1.371-.706c-.59 1.904-1.442 3.765-2.604 5.456a18.91 18.91 0 0 1-4.245 4.474 21.04 21.04 0 0 1-5.42 2.934c-1.92.714-3.91 1.156-5.898 1.423-1.99.26-3.985.331-5.96.267a47.32 47.32 0 0 1-5.862-.59 48.51 48.51 0 0 1-2.876-.555c-.951-.21-1.897-.44-2.833-.707a50.036 50.036 0 0 1-4.162-1.35l-.683-.266a22.155 22.155 0 0 1-.696-.29 1.17 1.17 0 0 1 .78-2.2l.041.012.65.181.669.178c.449.115.898.23 1.35.336a77.79 77.79 0 0 0 2.722.593c.91.176 1.822.344 2.737.487.913.144 1.83.26 2.745.37 3.66.407 7.343.485 10.894-.013 1.772-.254 3.509-.651 5.156-1.246a20.45 20.45 0 0 0 2.405-1.02c.197-.092.383-.202.575-.302.095-.052.193-.1.285-.155l.279-.166c.186-.11.375-.216.554-.337.18-.119.365-.23.541-.355a18.329 18.329 0 0 0 2.025-1.615c.156-.15.32-.293.472-.448.15-.156.304-.31.457-.465.152-.155.292-.323.44-.484.071-.082.146-.162.217-.245l.206-.255c.135-.173.281-.337.409-.516l.396-.529c.133-.176.25-.364.376-.547l.187-.275c.06-.093.116-.19.175-.284l.354-.568.33-.587.166-.293.155-.301c.103-.2.208-.402.315-.602l.537-1.002a.448.448 0 0 1 .835.295l.092.02.12.022a6.938 6.938 0 0 0 .77.086 6.5 6.5 0 0 0 1.025-.024c.668-.07 1.294-.253 1.802-.568.254-.158.48-.346.683-.563.205-.213.368-.473.518-.744.288-.557.472-1.214.56-1.915a1.169 1.169 0 0 1 2.32.288l-.001.002z" fill="#F9D5CC"/><path d="M70.861 28.72c.288.861.474 1.804.445 2.796-.025.495-.089 1-.245 1.491-.151.49-.37.961-.645 1.39-.554.862-1.316 1.52-2.117 2.015a8.827 8.827 0 0 1-1.895.875 8.24 8.24 0 0 1-.336.103l-.174.048c-.065.016-.112.028-.204.048l.93-1.23c.294 1.971.33 4.018.015 6.045a18.908 18.908 0 0 1-1.89 5.871 21.046 21.046 0 0 1-3.617 4.992c-1.422 1.474-3.024 2.734-4.7 3.835a36.765 36.765 0 0 1-5.258 2.82 47.291 47.291 0 0 1-5.54 2.006c-.936.281-1.883.521-2.832.744-.949.222-1.9.425-2.86.59a49.918 49.918 0 0 1-4.336.584l-.732.056c-.248.017-.483.03-.751.04a1.17 1.17 0 0 1-.25-2.321l.042-.008.664-.117.68-.13c.454-.09.91-.181 1.363-.28a77.886 77.886 0 0 0 2.71-.645 77.991 77.991 0 0 0 2.678-.745 73.513 73.513 0 0 0 2.635-.855c3.476-1.218 6.83-2.741 9.815-4.727 1.487-.996 2.881-2.106 4.109-3.355.616-.621 1.2-1.272 1.726-1.96.137-.169.258-.349.388-.522.063-.088.13-.173.19-.264l.18-.27c.12-.179.244-.356.353-.543.11-.185.23-.366.334-.554.435-.747.8-1.53 1.126-2.333.076-.202.162-.402.232-.607.067-.206.14-.411.21-.617.07-.206.124-.418.187-.627.03-.105.062-.21.09-.315l.075-.32c.048-.213.108-.424.146-.641l.128-.649c.043-.216.067-.436.102-.655l.05-.33c.014-.11.022-.22.034-.331l.074-.666.043-.671.023-.337.01-.338c.006-.226.013-.452.023-.679l.05-1.136a.448.448 0 0 1 .88-.095l.092-.022.118-.032a7.098 7.098 0 0 0 .73-.256 6.49 6.49 0 0 0 .915-.465c.572-.353 1.056-.788 1.378-1.292a3.34 3.34 0 0 0 .372-.803c.093-.281.127-.586.145-.896.018-.626-.1-1.298-.324-1.968a1.169 1.169 0 1 1 2.215-.744l.001.002z" fill="#F9D5CC"/><path d="M25.62 40.33s23.322 3.842 23.682-6.517c0 0-9.076 5.476-15.556.998M84.79 58.555s-.968-23.617-11.184-21.868c0 0 7.202 7.777 4.132 15.03m.969-17.554s10.56.917 13.163 8.35" stroke="#F9D5CC" stroke-width="2.338" stroke-linecap="round" stroke-linejoin="round"/><path d="M116.104 64.536V60.11C110.14 71.004 86.338 79.42 58.83 79.42c-27.507 0-51.31-8.417-57.273-19.312v4.425c8.626 10.31 30.717 17.474 57.273 17.474 3.337 0 6.6-.116 9.779-.334l-.113 15.572c-3.147.26-6.373.403-9.666.403-27.94 0-51.37-9.783-57.273-22.837v2.208c0 1.134.186 2.249.513 3.343 3.092 4.017 7.752 7.685 13.84 10.79 11.486 5.858 26.728 9.083 42.92 9.083s31.434-3.225 42.92-9.083c6.088-3.105 10.748-6.773 13.84-10.79.327-1.094.513-2.209.513-3.343v-2.176c-5.045 11.1-22.773 19.825-45.159 22.175l.113-15.534c20.979-1.822 37.782-8.27 45.046-16.949" fill="#C69C6D"/><path d="M79.499 87.185a.42.42 0 0 1-.408.432.42.42 0 0 1-.408-.432.42.42 0 0 1 .408-.43.42.42 0 0 1 .408.43m-3.263 0c0 1.664 1.281 3.019 2.855 3.019s2.855-1.355 2.855-3.019c0-1.664-1.281-3.018-2.855-3.018s-2.855 1.354-2.855 3.018" fill="#C69C6D"/></g></svg>