<svg width="120" height="120" viewBox="0 0 120 120" xmlns="http://www.w3.org/2000/svg" xmlns:xlink="http://www.w3.org/1999/xlink"><defs><path id="a" d="M.188.11h7.845v13.093H.188z"/></defs><g fill="none" fill-rule="evenodd"><path d="M15.339 60.833c-1.21-.785-1.597-1.81-2.022-3.153a36.494 36.494 0 0 1-1.178-4.977c-.429-2.567-.75-5.991.672-8.28.896-1.441.306-3.464-1.124-4.303-1.61-.946-3.257-.228-4.286 1.128-2.715 3.577-1.49 9.715-.266 13.637.979 3.138 3.668 9.398 7.868 8.53 1.252-.26 1.287-1.966.336-2.582m60.259 9.749c2.057 1 5.079.381 7.22-.109 2.468-.565 4.903-1.608 7.14-2.79 4.343-2.294 9.735-6.99 9.831-12.337.067-3.736-5.215-4.248-6.31-.858-.289.894-.346 1.853-.696 2.735-.383.965-.994 1.936-1.626 2.755-1.16 1.505-2.633 2.876-4.147 4.014-1.65 1.242-3.505 2.113-5.442 2.802a29.398 29.398 0 0 1-3.078.917c-.978.233-2.015.334-2.892.845-.715.417-.806 1.634 0 2.026" fill="#E95235"/><path d="M62.4 79.53c1.216.84 2.767 1.184 4.032 2.027a11.296 11.296 0 0 1 3.238 3.266c1.84 2.867 2.125 6.244 2 9.57-.095 2.474 3.843 3.072 4.354.592.935-4.545-.314-9.245-3.345-12.762-1.303-1.51-3.011-2.708-4.85-3.468-1.55-.64-3.839-1.204-5.428-.444-.514.246-.397.945 0 1.22m-2.828 8.349c.127.923 1.208 1.308 1.849 1.86.8.689 1.44 1.506 1.96 2.425 1.096 1.937.957 3.942 1.28 6.062.357 2.363 3.738 1.936 4.351 0 .988-3.12-.934-6.857-3.181-8.963-1.04-.973-2.35-1.83-3.71-2.27-.826-.268-2.751-.58-2.549.887m14.825-23.326a466.051 466.051 0 0 0-4.623 4.704c-.838.314-1.76.594-2.24 1.424-.522.9-.353 2.083.384 2.81.651.64 1.662.982 2.475 1.37a55.622 55.622 0 0 0 3.36 1.458c2.02.803 3.847 1.127 4.855-1.2.85-1.963 1.307-4.054 1.453-6.187.116-1.682.265-4.056-.994-5.384-1.631-1.723-3.401-.273-4.67 1.005m-56.223-4.737c.24-.4.378-.052 0 0m-.725 4.398a3.94 3.94 0 0 0-.272-.115h.14l.132.115m2.22-9.665c-2.236-1.464-4.686 0-6.085 1.873-1.237 1.656-2.134 3.545-2.868 5.472-.72 1.889-1.485 4.179-.794 6.171 1.116 3.216 5.377 3.322 7.928 1.54.914-.28 1.739-.898 2.29-1.867 1.082-1.9 1.17-4.563 1.28-6.695.114-2.182.331-5.131-1.75-6.494m.522-34.951c-.812-.556-1.919.023-2.174.887-.297 1.007-.74 1.833-.923 2.892a66.194 66.194 0 0 1-.488 2.61 26.548 26.548 0 0 1-1.77 5.33c-.795 1.759-1.802 3.376-2.853 4.987-.192.294-.398.578-.611.856.132-.593.273-1.183.4-1.766a126.508 126.508 0 0 1 2.83-10.705c.559-1.79.999-3.866 1.842-5.542.577-1.147-.37-2.376-1.619-2.113-3.048.64-6.036 1.435-8.636 3.236-2.69 1.864-4.694 4.413-5.678 7.565-.958 3.068-.555 6.621 1.048 9.401a9.743 9.743 0 0 0 1.711 2.165c.254.498.544.979.877 1.435 1.971 2.702 4.932 4.536 8.202 3.258 5.264-.79 10.836-3.48 12.672-8.669 1.012-2.862 1.058-6.405.267-9.32-.754-2.776-2.768-4.915-5.097-6.508m93.57 19.231a2.35 2.35 0 0 0-.144.035l.107-.12.037.085M116 33.431c-.91-1.124-2.722-1.2-3.614.011-2.854 3.877-5.776 7.702-8.594 11.608-1.947 2.698-3.96 5.417-5.708 8.275-.085.009-.168.02-.254.028-.025.002-.048.006-.072.009l.016-.208c.16-2.632.07-5.28-.071-7.91-.27-5.055-1.093-10.167.105-15.167.35-1.456-1.44-2.573-2.668-2.02-6.338 2.85-12.451 8.016-12.788 15.526-.28 6.275 3.681 12.31 9.738 13.19.852.506 1.796.812 2.742.737a2.863 2.863 0 0 0 1.207-.357c.152.262.36.495.626.683 6.44 4.522 15.22 2.929 19.985-3.253 4.725-6.128 4.146-15.231-.65-21.152M54.134 94.47c.328 1.017 1.375 1.47 1.61 2.62.295 1.456-.44 2.791-.82 4.148-.75 2.683 3.102 3.61 4.071 1.127.838-2.147.906-4.942-.331-6.952-.76-1.234-2.98-2.986-4.339-1.67a.743.743 0 0 0-.191.727M25.175 75.731c-3.318-.723-6.546 2.357-8.547 4.647a27.017 27.017 0 0 0-5.252 9.068c-.94 2.737 3.442 3.96 4.327 1.198.833-2.604 2.036-5.074 3.652-7.283a24.426 24.426 0 0 1 2.525-2.933c1.085-1.073 2.284-1.627 3.602-2.334.952-.51.77-2.128-.307-2.363m2.312 8.935c-3.123.375-5.71 4.083-6.928 6.725-1.508 3.27-2.04 6.89-1.345 10.435.55 2.808 4.825 1.62 4.275-1.183a14.34 14.34 0 0 1 .598-7.759c.436-1.205 1.055-2.31 1.773-3.368.76-1.116 1.934-2.092 2.51-3.305.293-.617-.04-1.646-.883-1.545" fill="#CE2017"/><g transform="translate(26.771 90.788)"><mask id="b" fill="#fff"><use xlink:href="#a"/></mask><path d="M7.775.817C5.415-1.46 1.867 2.31.894 4.372c-1.457 3.084-.613 6.508 2.11 8.51.961.708 2.434.156 2.997-.788.668-1.122.151-2.294-.786-3.009-1.03-.786-1.182-2.33-.81-3.47.558-1.712 1.769-2.505 3.19-3.396.476-.297.604-.993.18-1.402" fill="#CE2017" mask="url(#b)"/></g><path d="M74.017 69.944a102.026 102.026 0 0 1-3.973 7.378 86.337 86.337 0 0 1-4.273 6.526 75.18 75.18 0 0 1-6.244 7.603 66.863 66.863 0 0 1-4.167 4.054c-.053.045-.107.094-.16.142-.358.318-.72.631-1.088.938-1.878 1.57-3.889 2.986-6.137 3.932-2.688 1.132-5.757 1.55-8.538.677-2.51-.787-4.6-2.55-6.403-4.467a39.01 39.01 0 0 1-1.35-1.515 47.497 47.497 0 0 1-3.397-4.578c-.238-.363-.473-.73-.705-1.1a84.312 84.312 0 0 1-2.365-4.012c-.002 0-.002-.003-.002-.003-.026-.042-.049-.088-.071-.13l-.003-.003c-.459-.825-.909-1.655-1.354-2.488-.634-1.18-1.257-2.366-1.88-3.546-2.741-5.186-5.655-10.759-4.978-16.59.266-2.297.447-4.117 2.095-5.911 2.416-2.627 5.837-4.145 9.326-4.868 7.113-1.467 14.29-.27 21.375.708 7.162.99 14.37 2.363 20.93 5.525 1.841.884 3.727 2.024 4.563 3.892 1.113 2.497-.003 5.382-1.2 7.836" fill="#E95235"/><path d="M28.37 49.074c-1.588-3.833-1.436-8.57.845-11.833 5.436-7.777 17.815-7.113 22.948.595 2.793 4.194 2.576 10.18-.513 14.16-3.222 4.151-9.234 5.395-14.19 4.176-1.815-.446-3.604-1.086-5.162-2.123-1.759-1.17-3.087-2.946-3.928-4.975" fill="#EE7D00"/><path d="M33.329 35.942c-4.839 6.892.81 15.3 8.584 15.8 2.76.176 5.616-.765 7.593-2.707 1.977-1.942 2.983-4.894 2.406-7.61-.465-2.185-1.85-4.046-3.266-5.77-3.685-4.483-11.903-4.576-15.317.287" fill="#FFF"/><path d="M41.428 34.33c-4.776.753-1.605 11.108 3.76 7.637 1.751-1.134 2.37-3.281 1.56-5.199-.737-1.742-2.508-2.277-4.29-2.457a4.024 4.024 0 0 0-1.03.019" fill="#1D1D1B"/><path d="M54.517 51.545c-.729-3.47.658-7.302 3.437-9.493 6.391-5.037 16.401-1.406 18.714 6.207 1.259 4.144-.4 9.009-3.922 11.51-3.1 2.202-8.081 2.645-11.292.387-2.86-2.012-6.192-5.068-6.937-8.61" fill="#EE7D00"/><path d="M61.657 42.01c-6.033 4.735-3.27 12.719 3.15 15.124 2.224.834 4.804.772 6.909-.332 2.105-1.103 3.661-3.278 3.858-5.654.158-1.912-.52-3.787-1.258-5.557-1.92-4.603-8.65-6.727-12.66-3.581" fill="#FFF"/><path d="M68.48 41.957c-3.397.11-4.698 5.107-2.263 7.77.867.948 2.187 1.287 3.413 1.121 1.102-.149 1.97-.65 2.65-1.534 1.854-2.41.615-5.932-2.008-7.002-.647-.264-1.246-.372-1.792-.355" fill="#1D1D1B"/><path d="M70.044 77.322a86.337 86.337 0 0 1-4.273 6.526c-.27.378-.544.753-.825 1.125a75.176 75.176 0 0 1-5.42 6.477 66.863 66.863 0 0 1-4.166 4.055c-.053.045-.107.094-.16.142-.358.318-.72.631-1.088.938-1.878 1.57-3.889 2.986-6.137 3.932-2.688 1.132-5.757 1.55-8.538.677-2.51-.787-4.6-2.55-6.404-4.467a38.42 38.42 0 0 1-1.35-1.515 47.458 47.458 0 0 1-3.396-4.578c-.238-.363-.473-.73-.705-1.1a84.312 84.312 0 0 1-2.365-4.012c-.002 0-.002-.003-.002-.003-.026-.042-.049-.088-.071-.13l-.003-.003a160.71 160.71 0 0 1-1.354-2.488c.312-1.942.841-3.836 1.694-5.601 2.305-4.771 6.878-8.217 11.92-9.798 5.04-1.581 10.503-1.425 15.66-.279 5.865 1.305 11.577 3.972 15.627 8.428.48.529.94 1.086 1.356 1.674" fill="#E88135"/><path d="M65.77 83.848c-.269.378-.543.753-.823 1.125-1.088-1.808-2.187-3.605-3.543-5.22-3.073-3.66-7.437-5.203-12.095-5.544-9.165-.674-19.611 2.266-23.757 11.268-.071.159-.238.142-.334.045-.003 0-.003-.003-.003-.003a.215.215 0 0 1-.071-.13l-.003-.003a.261.261 0 0 1 .02-.137c1.583-3.56 4.321-6.485 7.62-8.515 6.33-3.904 15.267-4.868 22.336-2.602 3.313 1.06 5.972 3.088 8.07 5.849.938 1.234 1.768 2.547 2.584 3.867" fill="#E95235"/><path d="M61.08 89.742a73.326 73.326 0 0 1-1.554 1.708 13.867 13.867 0 0 0-1.135-2.519c-2.09-3.62-5.727-5.803-9.807-6.417-4.446-.668-8.995.552-12.94 2.59-2.667 1.38-5.48 3.11-7.357 5.53a71.84 71.84 0 0 1-.705-1.1c1.43-1.987 3.509-3.577 5.528-4.87 6.542-4.191 15.281-6.165 22.256-1.763 2.594 1.635 4.545 4.068 5.715 6.84m-5.721 5.764a43.65 43.65 0 0 1-1.249 1.08c-2.877-2.581-7.102-3.784-10.86-3.787-3.894-.006-7.626 1.174-10.849 3.241a40.314 40.314 0 0 1-.72-.827c3.456-2.607 7.854-3.972 12.175-3.91 4.092.057 8.448 1.442 11.503 4.203m36.396-60.628a1.7 1.7 0 0 0 .252.035.746.746 0 0 1-.252-.035m1.995-2.055c-.393-.632-1.02-.932-1.743-.976-.634-.038-1.244.45-1.451 1.05a1.9 1.9 0 0 0-.57 1.317c-.015 1.081.984 1.876 2.002 1.923 1.15.053 2.08-.88 2.114-2.018a2.353 2.353 0 0 0-.352-1.296m-5.898 7.811c.063.012.082.005-.006.108a.293.293 0 0 1 .006-.108m.897.8l-.002.001-.047.018a.483.483 0 0 0-.016.003.21.21 0 0 1 .069-.029l-.004.007m.028-.01a.073.073 0 0 0-.006.002l.001-.002c.005 0 .008-.002.013-.003-.003 0-.005.003-.008.003m.427-4.144a3.968 3.968 0 0 0-2.033.096c-.184.024-.368.1-.545.21a4.25 4.25 0 0 0-1.69 1.402c-1.041 1.488-1.055 3.646.323 4.934 1.324 1.238 3.26 1.145 4.51.018 1.046-.65 1.822-1.743 1.991-2.975a3.292 3.292 0 0 0-2.556-3.685M10.577 20.917l.005.003-.01.002-.006-.003.01-.002m-.172-.529a1.25 1.25 0 0 0-.375.202c-.695.145-.851.993-.575 1.546.223.447.729.69 1.208.718a1.383 1.383 0 0 0 1.273-.69c.577-.967-.54-2.108-1.531-1.776m-3.945 2.365c-2.365-.026-3.768 2.434-3.112 4.443a2.9 2.9 0 0 0 .082.485c.74 2.77 4.317 2.466 5.744.489 1.552-2.151-.029-5.389-2.714-5.417" fill="#E95235"/><path d="M26.684 59.682a.481.481 0 0 0 .024-.037c.06-.034.052-.023-.024.037m-.062.019v-.004.004m-.196-.212c.04-.048.025-.029 0 0m-.127.014v.008h-.001l.001-.008m.325.17c0-.025 0-.025 0 0m1.01-3.67c-2.902-1-5.707 1.984-4.906 4.842.267.953 1.044 1.396 1.83 1.4 1.343.89 3.252.864 4.44-.408 1.7-1.818 1.007-5.016-1.365-5.834m-3.75 8.435a1.37 1.37 0 0 0-.482-.041.89.89 0 0 0-.702-.152 1.152 1.152 0 0 0-.73.543c-.174.332-.189.724-.098 1.083.074.294.244.58.457.792.11.109.247.214.387.284.292.147.469.175.801.213.468.054.968-.301 1.192-.686.224-.385.24-.83.07-1.234a1.356 1.356 0 0 0-.895-.802" fill="#EE7866"/></g></svg>