<svg width="480" height="360" viewBox="0 0 480 360" xmlns="http://www.w3.org/2000/svg"><defs><radialGradient cx="49.998%" cy="49.993%" fx="49.998%" fy="49.993%" r="97.642%" gradientTransform="matrix(.38845 0 0 1 .306 0)" id="a"><stop stop-color="#EBEBEA" offset="0%"/><stop stop-color="#C8D9F1" offset="100%"/></radialGradient><linearGradient x1="50.014%" y1="100.005%" x2="50.014%" y2=".021%" id="b"><stop stop-color="#F3F1F0" stop-opacity=".6" offset="0%"/><stop stop-color="#FFF" offset="100%"/></linearGradient><linearGradient x1="49.998%" y1="100.003%" x2="49.998%" y2=".007%" id="c"><stop stop-color="#F3F1F0" stop-opacity=".6" offset="0%"/><stop stop-color="#FAF9F9" stop-opacity=".863" offset="65.62%"/><stop stop-color="#FFF" offset="100%"/></linearGradient><radialGradient cx="50.033%" cy="49.927%" fx="50.033%" fy="49.927%" r="54.12%" gradientTransform="matrix(.86282 0 0 1 .069 0)" id="d"><stop stop-color="#2D632B" offset="0%"/><stop stop-color="#1C4523" offset="100%"/></radialGradient><radialGradient cx="50.09%" cy="50.065%" fx="50.09%" fy="50.065%" r="80.29%" gradientTransform="matrix(1 0 0 .4906 0 .255)" id="e"><stop stop-color="#2D632B" offset="0%"/><stop stop-color="#1C4523" offset="100%"/></radialGradient><radialGradient cx="50.077%" cy="50.024%" fx="50.077%" fy="50.024%" r="65.172%" gradientTransform="matrix(1 0 0 .64573 0 .177)" id="f"><stop stop-color="#2D632B" offset="0%"/><stop stop-color="#1C4523" offset="100%"/></radialGradient><linearGradient x1="-.002%" y1="50.008%" x2="100.009%" y2="50.008%" id="g"><stop stop-color="#5E867A" offset="0%"/><stop stop-color="#598271" offset="7.1%"/><stop stop-color="#46734F" offset="37.55%"/><stop stop-color="#396A39" offset="64.28%"/><stop stop-color="#30652F" offset="86.01%"/><stop stop-color="#2D632B" offset="100%"/></linearGradient><linearGradient x1="-.007%" y1="50.008%" x2="100.003%" y2="50.008%" id="h"><stop stop-color="#81A0D3" offset="0%"/><stop stop-color="#426FB5" offset="100%"/></linearGradient></defs><g fill="none"><path fill="#D6D6D6" d="M1.42-18h477.146v363.998H1.42z"/><path fill="#F1F1F1" d="M1.42 320.336h477.146v55.385H1.42z"/><path fill="#818282" d="M73.022 35.773h333.941v135.124H73.022z"/><path fill="url(#a)" d="M6.376 5.325h322.85v125.411H6.376z" transform="translate(72.426 34.722)"/><path d="M401.666 166.438v-13.136h-5.524v-8.848h-4.871v-6.859l-6.39-.326v-27.735l-17.539-.128v16.686h-4.19v8.55H351.04V73.05h-4.019v-5.056l-34.31-.128v5.07h-5.695v20.691h-3.166l-.029-48.681h-3.891v-4.885H285.8l-.355 79.285h-20.919V64.559h-7.228v8.634l-16.204.1V58.224h-13.96v-3.92H220.9l.057 10.254h-25.392v88.189h-7.782l.355-78.533s-26.4.185-26.442.142c-.157-.127-.739 55.726-.739 55.726l-18.973-.114v3.92h-16.288v-9.614h-4.7V82.82h-13.96v-3.025H100.8v50.102h-2.315v7.342h-4.857v7.711h-5.481v9.941h-9.345v11.049l322.864.497z" fill="#818282" opacity=".2"/><path d="M340.09 55.867c11.105 11.106 22.196 22.225 33.302 33.33 9.415 9.43 18.845 18.86 28.26 28.29v-26.77c-2.826-2.826-5.652-5.638-8.478-8.464-14.102-14.073-28.204-28.132-42.291-42.206H324.27l15.82 15.82z" fill="#FFF" opacity=".3"/><path d="M14.173 79.853l28.715 28.885c7.285 7.328 14.584 14.656 21.87 21.984h18.73a19357.95 19357.95 0 0 1-24.17-24.128 62681.297 62681.297 0 0 1-31.583-31.57C20.62 67.91 13.49 60.81 6.362 53.695v18.292c2.613 2.641 5.212 5.254 7.81 7.867z" fill="url(#b)" opacity=".6" transform="translate(72.426 34.722)"/><path d="M201.7 165.444h53.95A526860.9 526860.9 0 0 0 136.7 46.65c-2.2-2.201-4.416-4.402-6.617-6.604H78.462c6.347 6.334 118.991 121.15 123.237 125.397z" fill="#FFF" opacity=".3"/><path d="M123.877 43.938c15.153 15.153 30.291 30.306 45.444 45.458 13.76 13.776 27.536 27.55 41.297 41.326h40.061c-8.492-8.45-16.984-16.914-25.462-25.378a46914.213 46914.213 0 0 1-46.055-46.026c-15.295-15.309-30.575-30.617-45.87-45.926a4326.954 4326.954 0 0 1-8.052-8.08H85.264c12.866 12.88 25.747 25.746 38.613 38.626z" fill="url(#c)" opacity=".4" transform="translate(72.426 34.722)"/><path d="M129.373 40.047h5.027v125.411h-5.027zm54.249 0h5.027v125.411h-5.027zm54.262 0h5.027v125.411h-5.027zm54.249 0h5.027v125.411h-5.027zm54.262 0h5.027v125.411h-5.027z" fill="#818282"/><path fill="#FFF" d="M50.443 218.613h379.101v7.314H50.443z"/><path fill="#F29077" d="M77.694 230.826h77.78v103.896h-77.78z"/><path fill="#CEC7D2" opacity=".5" d="M85.122 238.523h63.721v26.045h-63.72zm0 31.228h63.721v26.045h-63.72zm0 31.229h63.721v26.045h-63.72z"/><path fill="#EBEBEA" d="M101.68 300.98h29.638v3.48H101.68zm0-31.229h29.638v3.48H101.68zm0-31.228h29.638v3.48H101.68z"/><path fill="#81A0D3" d="M50.33 143.049h20.562v75.579H50.33z"/><path fill="#FFF" opacity=".73" d="M54.05 148.246h13.136v41.283H54.05z"/><path fill="#818282" opacity=".8" d="M54.831 151.683h11.56v1h-11.56zm0 2.4h11.56v1h-11.56zm0 2.414h11.56v1h-11.56zm0 2.4h11.56v1h-11.56z"/><path fill="#F29077" d="M73.065 143.049h20.563v75.579H73.065z"/><path fill="#FFF" opacity=".73" d="M76.772 148.246h13.136v41.283H76.772zm-11.347 55.626a4.81 4.81 0 0 1-4.814 4.814 4.81 4.81 0 0 1-4.815-4.814 4.818 4.818 0 0 1 4.815-4.814c2.655.014 4.814 2.159 4.814 4.814zm22.735 0a4.81 4.81 0 0 1-4.813 4.814 4.81 4.81 0 0 1-4.814-4.814 4.818 4.818 0 0 1 4.814-4.814c2.655.014 4.814 2.159 4.814 4.814z"/><path fill="#CFCCC9" d="M96.028 143.049h20.563v75.579H96.028z"/><path fill="#FFF" opacity=".73" d="M99.749 148.246h13.136v41.283H99.749z"/><path fill="#818282" opacity=".8" d="M100.53 151.683h11.56v1h-11.56zm0 2.4h11.56v1h-11.56zm0 2.414h11.56v1h-11.56zm0 2.4h11.56v1h-11.56z"/><path d="M111.124 203.872a4.81 4.81 0 0 1-4.814 4.814 4.81 4.81 0 0 1-4.814-4.814 4.818 4.818 0 0 1 4.814-4.814c2.656.014 4.814 2.159 4.814 4.814z" fill="#FFF" opacity=".73"/><path d="M242.869 142.097c0 .028 0 .057-.015.071l.086-.071c2.073.213 9.571.667 14.456-2.883 5.71-4.147 8.024-15.579 8.024-15.579s-11.716-.042-16.9 4.744c-4.444 4.09-5.453 11.545-5.651 13.604l-.1.086c.029.028.071.028.1.028z" fill="#2D632B"/><path d="M22.196 30.916h.071l-.085-.071c-.156-2.073-.994-9.543-5.34-13.733C11.773 12.213.115 11.915.115 11.915S2.102 23.46 7.71 27.735c4.8 3.664 12.313 3.366 14.386 3.21l.1.085c.014-.043 0-.086 0-.114z" fill="url(#d)" transform="translate(214.438 111.408)"/><path d="M237.685 141.373c.029 0 .057.014.071.014l-.057-.1c.568-2.002 2.33-9.301-.326-14.74-3.096-6.348-13.946-10.609-13.946-10.609s-2.073 11.518 1.733 17.468c3.266 5.084 10.423 7.37 12.426 7.924l.07.114c.015 0 .03-.043.03-.071z" fill="#2D632B"/><path d="M24.554 29.44c.014.013.042.027.057.042l-.015-.114c1.208-1.69 5.368-7.953 4.73-13.96-.739-7.015-9.473-14.74-9.473-14.74s-5.893 10.125-4.345 16.998c1.32 5.894 7.27 10.495 8.96 11.702l.029.128c.028 0 .043-.029.057-.057z" fill="url(#e)" transform="translate(214.438 111.408)"/><path d="M240.412 140.805c.014.014.028.042.042.057l.015-.1c1.718-1.164 7.768-5.638 9.216-11.489 1.704-6.845-3.863-17.098-3.863-17.098s-9.003 7.498-9.898 14.485c-.767 5.993 3.238 12.355 4.417 14.06l-.029.127c.043-.014.071-.028.1-.042z" fill="#2D632B"/><path d="M27.309 29.822c0 .029.014.057.014.071l.057-.099c2.016-.511 9.216-2.641 12.596-7.64 3.948-5.851 2.216-17.382 2.216-17.382S31.172 8.734 27.934 15.01c-2.77 5.368-1.179 12.71-.654 14.726l-.07.114c.042-.014.07-.014.099-.029z" fill="url(#f)" transform="translate(214.438 111.408)"/><path fill="#000" d="M250.622 165.77H229.08l-3.152-22.352h27.848z"/><path d="M255.096 144.81h-30.49a1.38 1.38 0 0 1-1.378-1.378v-3.082a1.38 1.38 0 0 1 1.378-1.377h30.49c.753 0 1.377.61 1.377 1.377v3.082a1.37 1.37 0 0 1-1.377 1.377z" fill="#F3F1F0"/><path d="M64.97 225.927h6.59v108.795h-6.59zm343.456 0h6.59v108.795h-6.59z" fill="#818282"/><path d="M62.315 30.007L.128 29.95C.043 19.314 7.47 10.637 20.62 10.594l20.237-.057c13.15-.042 21.373 8.833 21.458 19.47z" fill="url(#g)" transform="translate(139.172 80.166)"/><path d="M180.014 90.703l-.028-3.394c-.029-3.934-4.573-7.115-10.14-7.087-5.567.029-10.054 3.238-10.026 7.172l.029 3.366 20.165-.057z" fill="#1C4523"/><path d="M169.846 80.222c.61 0 1.221.043 1.804.114V0h-3.153v80.308c.44-.057.895-.086 1.35-.086z" fill="#CFCCC9"/><path d="M62.556 30.007L.37 29.95C.284 19.314 7.711 10.637 20.862 10.594l20.236-.057c13.15-.042 21.373 8.833 21.458 19.47z" fill="url(#h)" transform="translate(279.763 80.166)"/><path d="M320.847 90.703l-.028-3.394c-.028-3.934-4.573-7.115-10.14-7.087-5.567.029-10.054 3.238-10.026 7.172l.029 3.366 20.165-.057z" fill="#373A83"/><path d="M310.68 80.222c.61 0 1.22.043 1.803.114V0h-3.153v80.308c.44-.057.88-.086 1.35-.086z" fill="#CFCCC9"/><path d="M77.566 151.683h11.56v1h-11.56zm0 2.4h11.56v1h-11.56zm0 2.414h11.56v1h-11.56zm0 2.4h11.56v1h-11.56z" opacity=".8" fill="#818282"/></g></svg>