<svg width="99" height="129" xmlns="http://www.w3.org/2000/svg"><path fill="#1B75BB" stroke="#000" d="M67.327 79.162c-3.333 6.883-2.361 13.258-1.39 23.72 1.17 12.529 9.688 20.033 14.915 16.486 5.22-3.545-.616-12.862-2.485-15.32-1.44-1.895-5.725-18.115-7.62-25.459 0 0-.182-1.065-1.314-1.017-1.133.05-2.106 1.591-2.106 1.59h0zM61.23 121.27c-.06 2.754.613 6.729 3.306 6.607 1.772-.08 1.466-3.913 1.59-7.83.08-2.54.621-4.66.993-5.845 0 0 .087-.207.087-.28 0-1.745-.965-2.332-2.191-2.515-1.539-.23-1.725 1.1-1.733 1.135-.315 1.352-.854 3.052-.854 3.052-.726 2.38-1.162 4.07-1.197 5.677h0zm-7.234 0c-.06 2.754.611 6.729 3.305 6.607 1.772-.08 1.465-3.913 1.59-7.83.08-2.54.62-4.66.993-5.845 0 0 .087-.207.087-.28 0-1.745-.966-2.332-2.191-2.515-1.539-.23-1.725 1.1-1.732 1.135-.316 1.352-.854 3.052-.854 3.052-.727 2.38-1.16 4.07-1.198 5.677h0z" stroke-width=".774"/><g stroke="#000" stroke-width=".774"><path fill="#1B75BB" d="M65.535 113.923a17.863 17.863 0 0 0 3.393-.703c8.407-2.586 5.175-13.42 4.043-17.625-.455-1.698-.887-4.19-1.24-6.558l-.063-.149-.678-5.714c-.38-.483-.177-1.605-1.479-2.285-1.543-.804-4.822-1.272-6.47-1.274-6.058-.006-8.782 2.161-8.782 2.161-1.013 2.221.006 3.26-1.687 6.979-3.084 6.775-2.515 7.807-3.243 7.963-.107.022-.086 1.485-.247 1.515-.003.516.028 2.015.44 3.991 0 0 1.131 4.69 3.075 6.953.34.398.809.86 1.389 1.338 0 0 1.648 1.327 3.178 2.06 1.531.734 4.162 1.103 5.388 1.285 1.225.185 2.983.061 2.983.063h0z"/><path fill="#D0D2D3" d="M74.507 105.654c.247-3.722-.932-7.78-1.53-9.993-.608-2.249-1.165-5.884-1.556-8.783l-.177-.145c-.88-.776-1.617-2.26-3.68-1.89-4.52.814-6.552 5.16-6.552 11.523 0 6.364 3.507 12.042 7.122 12.042 1.81 0 5.137-.529 6.322-2.615l.051-.14h0z"/></g><path fill="#1B75BB" stroke="#000" d="M54.363 81.346c-6.417 4.16-8.89 10.113-13.484 19.564-5.497 11.318-2.103 22.15 4.204 21.828 6.306-.325 6.147-11.32 5.822-14.39-.249-2.366 4.494-18.459 6.684-25.72 0 0 .399-1.006-.597-1.554-.995-.544-2.627.272-2.629.272h0z" stroke-width=".774"/><path fill="#1B75BB" stroke="#000" stroke-linecap="round" stroke-linejoin="round" d="M95.924 54.603c.092.327 2.268 8.287-3.231 15.658-3.725 4.99-10.215 11.365-26.8 12.796-8.12.699-15.347-1.396-20.543-4.596.076.047.148.096.226.143l-.075-.045c-4.827-2.18-10.949-5.553-15.013-11.197 0 0-2.188 4.563-11.995 4.754C6.099 72.361 1.096 65.49.455 60.312c-.65-5.254.954-11.276 11.428-13.053 8.768-1.483 13.535 1.166 14.853 2.066l.103.117c.966-2.99 2.577-4.367 2.577-4.367l-.132-.047c-3.691-1.386-8.548-3.597-14.49-7.132-12.44-7.4-12.317-20.457-8.876-25.151 3.562-4.852 14.113-10.95 29.018-2.65C43.324 14.762 47.57 21.95 49.68 27.339l.446-.176a23.272 23.272 0 0 1 1.872-.967l.087-.153c-3.27-7.68-8.205-23.473 5.845-24.692 13.364-1.16 12.214 14.943 11.136 21.79l.106.016c1.725.121 3.479.374 5.232.786-.039-.08-2.032-4.263.528-10.357 2.006-4.77 10.99-16.204 18.287-10.129 7.698 6.412 3.52 13.664-.487 18.111-3.471 3.852-7.464 5.425-9.275 6.12l.05.033c.446.28.891.572 1.332.883 12.253 8.623 11.202 26.475 11.202 26.475l-.026-.127a7.54 7.54 0 0 0-.092-.349h0zM81.616 26.63c.74.39 1.465.813 2.169 1.264m-14.751-4.321a58.573 58.573 0 0 1-.536 2.562m-14.461 4.047a55.062 55.062 0 0 1-2.01-4.278M26.15 54.995c-.078-1.718.082-3.45.552-5.106" stroke-width=".774"/><path fill="#F1F1F2" stroke="#000" d="M15.058 71.989C5.16 71.029 1.033 64.983.455 60.312c-.65-5.254.954-11.276 11.428-13.053a30.842 30.842 0 0 1 4.208-.43l.1.006c-4.176 8.075-4.57 17.571-1.196 25.054l.063.1h0zM12.86 36.63C2.376 29.089 2.665 17.183 5.916 12.745 9.309 8.12 19.055 2.367 32.862 9.017l-.139.046c-7.924 2.48-14.78 8.72-17.998 17.43a29.4 29.4 0 0 0-1.83 10.1l-.036.038h0zm35.751-22.916c-.583-6.072 1.19-11.66 9.322-12.365C66.138.64 68.873 6.435 69.51 12.6l-.063-.063c-6.857-2.66-14.349-2.09-20.804 1.08l-.033.097h0zM85.447 2.415C88 1.349 90.71 1.367 93.218 3.457c4.93 4.11 4.989 8.561 3.338 12.4l-.083.007c-2.008-5.543-5.787-10.338-11.038-13.421l.012-.028h0z" stroke-width=".774"/><path fill="#E6E7E8" stroke="#000" d="M85.177 43.749c-4.69-3.423-12.03-13.084-12.03-13.084s-.193 10.19-14.112 18.77c-13.921 8.584-21.193 7.273-21.996 17.305-.606 7.537 12.274 17.745 28.855 16.318 16.584-1.432 23.073-7.807 26.799-12.796 5.614-7.528 3.228-15.673 3.228-15.673-1.614-5.627-3.996-5.925-10.744-10.84h0z" stroke-width=".774"/><path fill="#FFF" stroke="#231F20" stroke-linecap="round" d="M76.24 72.837C66.495 74.5 63.95 60.759 63.95 60.759s4.32-1.172 12.29-2.338c7.968-1.164 9.846.608 9.846.608s-.1 12.148-9.846 13.808h0z" stroke-width=".774"/><path fill="#231F20" d="M84.684 54.75a.832.832 0 0 1-.812-.653 2.702 2.702 0 0 1 .37-2.054 2.705 2.705 0 0 1 1.717-1.19 2.698 2.698 0 0 1 2.053.373 2.722 2.722 0 0 1 1.187 1.718c.032.154.05.308.056.462a.83.83 0 0 1-.8.864c-.424.03-.848-.34-.862-.8a1.06 1.06 0 1 0-2.096.27.835.835 0 0 1-.813 1.01zm-23.746 1.88a.832.832 0 0 1-.811-.654 2.716 2.716 0 0 1 .37-2.051 2.715 2.715 0 0 1 1.717-1.19 2.674 2.674 0 0 1 2.048.37 2.717 2.717 0 0 1 1.252 2.184.834.834 0 0 1-.801.863.826.826 0 0 1-.865-.801 1.062 1.062 0 0 0-.487-.847 1.062 1.062 0 0 0-1.607 1.117.834.834 0 0 1-.816 1.009z"/></svg>