<svg xmlns="http://www.w3.org/2000/svg" width="97.589" height="137.882" viewBox="0.432 1.021 97.589 137.882"><defs><style/></defs><g id="ID0.9334461996331811" transform="matrix(.95 0 0 .95 -177.2 -123.85)"><path id="Tail" fill="#594A42" stroke="#000" stroke-width="1.027" d="M224.894 248.502c-4.4 1.147-9.737 1.529-16.113.432-14.475-2.488-20.396-15.1-21.506-21.42a3.08 3.08 0 0 1 6.067-1.064c.103.561 2.725 14.05 16.48 16.415 19.017 3.268 26.53-9.009 26.84-9.532a3.087 3.087 0 0 1 4.208-1.098 3.071 3.071 0 0 1 1.12 4.19c-.283.492-5.355 9.015-17.096 12.077h0z"/><g id="Back_Leg" transform="translate(186 131)" stroke="#000" stroke-width="2"><path id="Leg_1_" fill="#594A42" d="M350.673 503.112a4.501 4.501 0 0 1-2.295-7.857c.146-.128 15.196-13.646 10.389-24.033-3.313-7.158-19.355-8.907-24.717-8.955a4.498 4.498 0 0 1-4.463-4.534 4.502 4.502 0 0 1 4.528-4.466c2.693.021 26.523.575 32.818 14.176 7.726 16.695-11.83 33.896-12.666 34.617a4.481 4.481 0 0 1-3.594 1.052h0z" transform="translate(-104.95 -131) scale(.51334)"/><path id="Foot_1_" fill="#C2B59B" d="M345.528 498.238l15.477 31.533s5.466 9.015 12.423 5.37c2.961-1.55 14.346-7.731 3.446-26.853-10.897-19.113-29.095-11.281-29.095-11.281l-2.251 1.231h0z" transform="translate(-104.95 -131) scale(.51334)"/></g><g id="Back_Arm" transform="translate(186 131)" stroke="#000" stroke-width="2"><path id="Arm_1_" fill="#594A42" d="M392.24 395.188c-.283.971-7.17 23.752-25.979 24.247-19.336.509-30.243-15.556-30.698-16.241a4.5 4.5 0 0 1 7.485-4.994c.139.202 8.741 12.614 22.976 12.238 12.243-.322 17.53-17.614 17.582-17.788.708-2.378 9.206.588 8.634 2.538h0z" transform="translate(-104.95 -131) scale(.51334)"/><path id="Hand_1_" fill="#9B8579" d="M380.474 394.756s-5.468-10.037-1.747-11.815c3.723-1.774 5.271 4.539 5.271 4.539s4.567-14.366 13.516-9.801c8.952 4.566-.385 18.171-.385 18.171s-3.28 3.239-7.961 3.282c-4.679.045-8.694-4.376-8.694-4.376h0z" transform="translate(-104.95 -131) scale(.51334)"/></g><g id="Body_1_" transform="translate(186 131)" stroke="#000" stroke-width="2"><path id="Body" fill="#594A42" d="M292.107 406.327s-6.592 15.487-5.953 29.69c.639 14.203 13.233 28.895 35.783 29.327 22.552.436 32.353-20.023 28.98-38.296-1.676-9.098-5.909-17.311-5.909-17.311s-4.033-13.972-15.422-17.325c-11.389-3.353-23.91-3.057-29.92 1.411-2.931 2.181-7.559 12.504-7.559 12.504h0z" transform="translate(-104.95 -131) scale(.51334)"/><path id="Belly" fill="#C2B59B" d="M349.63 445.873c2.709-16.632-6.408-23.755-13.694-22.812-7.597.983-12.987 7.936-13.62 22.305-.635 14.368-7.74 19.151-7.74 19.151l-.051.131a48.61 48.61 0 0 0 7.414.697c14.599.281 23.854-8.192 27.65-19.162l.041-.31h0z" transform="translate(-104.95 -131) scale(.51334)"/></g><g id="Front_Leg" transform="translate(186 131)" stroke="#000" stroke-width="2"><path id="Leg" fill="#594A42" d="M297.383 498.161c-15.052 5.339-27.173-2.662-31.899-8.33a4.5 4.5 0 0 1 .575-6.338 4.497 4.497 0 0 1 6.338.574c1.09 1.274 11.219 12.367 26.576 3.461 15.36-8.908 6.017-27.355 5.611-28.138a4.497 4.497 0 0 1 1.922-6.065c2.193-1.146 4.921-.285 6.066 1.922 4.802 9.251 9.082 29.533-9.086 40.068a36.41 36.41 0 0 1-6.103 2.846h0z" transform="translate(-104.95 -131) scale(.51334)"/><path id="Foot" fill="#C2B59B" d="M268.407 479.834l-25.652 23.994s-7.028 7.857-1.516 13.45c2.348 2.379 11.583 11.467 26.692-4.534 15.104-16 2.308-31.115 2.308-31.115l-1.832-1.795h0z" transform="translate(-104.95 -131) scale(.51334)"/></g><g id="Front_Arm" transform="translate(186 131)" stroke="#000" stroke-width="2"><path id="Arm" fill="#594A42" d="M252.013 436.627c-.292-.967-6.979-23.808 8.499-34.504 15.914-10.996 33.829-3.507 34.584-3.183a4.5 4.5 0 0 1-3.537 8.274c-.227-.094-14.215-5.784-25.93 2.312-10.074 6.962-5.05 24.331-4.998 24.506.707 2.379-8.03 4.539-8.618 2.595h0z" transform="translate(-104.95 -131) scale(.51334)"/><path id="Hand" fill="#9B8579" d="M267.479 438.28s5.799 9.85 2.138 11.75c-3.661 1.897-5.419-4.361-5.419-4.361s-4.086 14.51-13.183 10.244c-9.097-4.267-.218-18.174-.218-18.174s3.172-3.347 7.848-3.545c4.674-.199 8.834 4.086 8.834 4.086h0z" transform="translate(-104.95 -131) scale(.51334)"/></g><g id="R_Ear" transform="translate(186 131)" stroke="#000"><path id="Ear_1_" fill="#9B8579" stroke-width="1.027" d="M74.668 26.738c.073-.798.35-2.411 1.409-3.115 1.794-1.19 3.91-1.08 6.773 3.647 2.862 4.727 2.724 9.66.276 11.885a5.403 5.403 0 0 1-1.661 1.01l-.05.026c-1.998-1.65-3.69-2.433-3.69-2.432 0 0-.989-5.37-3.073-10.93l.016-.091h0z"/><path id="Inner_Ear_1_" fill="none" stroke-width="2.053" stroke-linecap="round" d="M80.01 30.66s-.465 2.287-3.091 3.471"/></g><path id="Head" fill="#726658" stroke="#000" stroke-width="1.027" d="M211.586 176.125c-.139-1.933-3.024-34.983 22.429-37.02a41.1 41.1 0 0 1 1.707-.103l-.006-.054c-.158-.281-.692-1.331-.887-2.994-.229-1.961-.012-4.511-.012-4.511l3.123 3.673.05-3.226s.914 1.635 3.403 4.837c1.338 1.721 2.87 2.673 3.454 3.08l.15.061c10.904 2.75 15.035 11.143 16.498 15.662 0 0 .082.164.21.485.127.322 1.62 4.288 2.332 7.508.584 2.64.538 4.86.503 5.574l.019.104a11.703 11.703 0 0 0-.834-.443s-4.414-23.973-14.26-23.058c-3.709.346-2.215 8.265-2.215 8.265s-3.288-10.216-13.572-7.5c-13.91 3.675-9.67 26.858-9.67 26.858l-.076.066-4.023.3s-2.612-.231-5.271 1.204c-.984.53-1.612 1.813-2.637 2.668l-.415-1.436h0z"/><g id="L_Ear" transform="translate(186 131)" stroke="#000"><path id="Ear" fill="#9B8579" stroke-width="1.027" stroke-linejoin="round" d="M31.475 43.286s-.096 1.388-2.492 2.222c-1.497.521-2.748.168-2.748.168-.777-.132-1.577-.495-2.394-.842-3.623-1.54-5.2-6.282-3.055-11.583 2.145-5.3 6.035-5.267 7.673-4.95 1.637.317 2.98 3.69 2.98 3.69l.047.217c-.579 2.736-.173 6.37 0 10.629l-.011.45h0z"/><path id="Inner_Ear" fill="none" stroke-width="2.053" stroke-linecap="round" d="M25.65 36.93c-.042-.073 1.755 2.171 4.766 2.584"/></g><path id="Face" fill="#C2B59B" stroke="#000" stroke-width="1.027" d="M219.74 172.786c-1.411.024-9.909-.258-9.218 12.557.8 14.865 18.018 19.754 34.536 18.607 20.362-1.414 29.662-12.394 28.647-21.721-1.017-9.327-9.98-13.47-9.98-13.47s-4.414-23.973-14.26-23.058c-3.709.345-2.215 8.265-2.215 8.265s-3.288-10.217-13.572-7.5c-13.91 3.674-9.67 26.857-9.67 26.857s-1.485-.583-4.267-.537h0z"/><path id="Nose" fill="#726658" stroke="#000" stroke-width=".696" d="M247.715 180.386c-.039-.725.508-1.414 1.422-1.94.915-.527 2.197-.892 3.63-.969 1.433-.077 2.747.148 3.714.573.965.425 1.583 1.051 1.622 1.776.039.726-.508 1.414-1.422 1.941-.915.527-2.197.891-3.63.968-1.433.077-2.747-.147-3.713-.572-.966-.426-1.583-1.052-1.623-1.777h0z"/><path id="White_1_" fill="#F1F2F2" d="M320.717 333.248c.256-6.195.281-28.387-12.547-27.061-14.231 1.473-8.202 25.625-7.632 27.793l.011.16c2.078-.416 5.184-.904 9.033-1.106 5.738-.302 9.662.105 11.091.296l.044-.082z" transform="matrix(.5127 -.02554 .02554 .5127 71.05 13)"/><path id="Pupil_1_" fill="#594A42" stroke="#000" d="M302.177 332.58s-4.247-19.25 3.29-19.25c7.536 0 8.084 19.25 8.084 19.25" transform="matrix(.5127 -.02554 .02554 .5127 71.05 13)"/><path id="Outline_1_" d="M316.191 307.112c-2.213-2.165-4.964-3.094-8.176-2.763-3.416.354-6.074 1.891-7.902 4.57-4.676 6.853-2.37 19.356-1.362 23.728-.947.222-1.489.384-1.552.404l.875 2.87c.045-.014 4.564-1.366 11.587-1.736 4.309-.227 7.576-.042 9.476.138l-.003.043 1.39.112c.312.042.48.07.488.072l.006-.032 1.106.089c.066-.82 1.541-20.187-5.933-27.495zm-6.688 24.077a66.511 66.511 0 0 0-7.805.864c-.903-3.93-3.107-15.581.894-21.443 1.326-1.943 3.201-3.015 5.733-3.276 2.318-.244 4.2.39 5.769 1.922 4.873 4.763 5.273 16.484 5.168 22.063-2.037-.187-5.37-.36-9.759-.13z" transform="matrix(.5127 -.02554 .02554 .5127 71.05 13)"/><g id="R_Eye" transform="translate(186 131)"><path id="White" fill="#F1F2F2" d="M336.084 331.289c-1.326-4.315-7.363-25.536 1.604-26.949 10.019-1.58 11.162 21.691 11.295 26.486l-.021.071a60.684 60.684 0 0 0-10.218.271c-.905.104-1.763.226-2.567.358l-.093-.237z" transform="matrix(.40911 0 0 .46976 -66.15 -112.3)"/><path id="Pupil" fill="#594A42" stroke="#000" d="M335.241 330.796s-3.379-19.249 2.617-19.249c5.995 0 6.433 19.249 6.433 19.249" transform="matrix(.40911 0 0 .46976 -66.15 -112.3)"/><path id="Outline" d="M350.46 330.109l.064-.595-.088-.009c-.233-5.552-1.395-20.075-7.159-24.977-1.704-1.449-3.664-2.009-5.823-1.67-1.891.298-3.43 1.342-4.453 3.018-3.629 5.948-.333 19.149 1.235 24.502-.791.158-1.585.312-2.35.504l.73 2.91a48.93 48.93 0 0 1 6.298-1.134c6.124-.7 11.237-.166 11.287-.161l.089-.821.205-.001c0-.128-.005-.692-.035-1.566zm-11.886-.431c-.457.052-.9.135-1.353.199-1.761-5.957-4.438-17.888-1.659-22.438.573-.939 1.323-1.453 2.358-1.617 1.274-.2 2.391.124 3.412.992 4.372 3.717 5.799 15.899 6.099 22.512a61.674 61.674 0 0 0-8.857.352z" transform="matrix(.40911 0 0 .46976 -66.15 -112.3)"/></g><path id="ID0.9196255002170801" fill="none" stroke="#000" stroke-width="1" stroke-linecap="round" d="M253.55 189.307s.384-1.34.517-2.006c.113-.684.22-1.371.22-2.038.003-.7-.228-2.087-.228-2.087"/><path id="ID0.7217612732201815" fill="#000" stroke="none" stroke-linecap="round" d="M244.15 188.9c1.431-.37 2.934-.432 4.4-.6a58.542 58.542 0 0 1 4-.3c1.244-.088 2.5-.17 3.75-.15.312.005.545-.081.55.2-.044 1.213-.051 2.518-.65 3.55-.577.994-1.575 1.916-2.7 2.15-1.922.399-4.03.431-5.8-.35-1.667-.734-2.694-2.418-3.8-3.8-.287-.383-.108-.607.25-.7z" transform="translate(1.5 -.5)"/></g></svg>