<svg width="120" height="120" viewBox="0 0 120 120" xmlns="http://www.w3.org/2000/svg"><path d="M60.5 49.008c6.068 0 10.987 4.921 10.987 10.993 0 6.07-4.919 10.992-10.987 10.992-6.068 0-10.987-4.921-10.987-10.992 0-6.072 4.919-10.993 10.987-10.993M8.567 90a4.226 4.226 0 0 0 5.777 1.55l12.736-7.358-2.835 10.583a4.23 4.23 0 0 0 8.17 2.19l5.024-18.757.49-.283 13.048-1.42 5.294 12.012v.569l-13.725 13.732a4.233 4.233 0 0 0 0 5.984 4.228 4.228 0 0 0 5.981 0l7.744-7.747v14.714a4.23 4.23 0 1 0 8.458 0v-14.714l7.743 7.747a4.228 4.228 0 0 0 5.981 0 4.233 4.233 0 0 0 0-5.984L64.73 89.086v-.57c1.765-4.003 3.53-8.007 5.293-12.01l13.05 1.42.488.282 5.024 18.758a4.23 4.23 0 1 0 8.17-2.19L93.92 84.191l12.736 7.357A4.227 4.227 0 0 0 112.433 90a4.233 4.233 0 0 0-1.548-5.78l-12.736-7.357 10.578-2.836a4.232 4.232 0 0 0-2.19-8.174L87.79 70.879l-.481-.279L79.552 60l7.756-10.6.481-.277 18.749 5.025a4.232 4.232 0 0 0 2.19-8.175l-10.58-2.835 12.737-7.357A4.234 4.234 0 0 0 112.433 30a4.229 4.229 0 0 0-5.777-1.549L93.92 35.808l2.834-10.583a4.228 4.228 0 1 0-8.17-2.19L83.56 41.792l-.488.282-13.05 1.42-5.293-12.011v-.57l13.725-13.731a4.234 4.234 0 0 0 0-5.985 4.228 4.228 0 0 0-5.982 0l-7.743 7.748V4.232a4.23 4.23 0 1 0-8.458 0v14.714l-7.744-7.748a4.227 4.227 0 0 0-5.98 0 4.233 4.233 0 0 0 0 5.985L56.27 30.914v.57l-5.294 12.011-13.048-1.42-.49-.282-5.023-18.759a4.228 4.228 0 0 0-5.18-2.99 4.23 4.23 0 0 0-2.99 5.18L27.08 35.81l-12.736-7.36A4.228 4.228 0 0 0 8.567 30a4.233 4.233 0 0 0 1.548 5.78l12.736 7.358-10.577 2.836a4.231 4.231 0 0 0 2.189 8.174l18.747-5.025.482.278c2.586 3.532 5.17 7.066 7.756 10.6l-7.756 10.6-.482.278-18.747-5.026a4.232 4.232 0 0 0-2.19 8.175l10.578 2.835-12.736 7.357A4.232 4.232 0 0 0 8.567 90" fill="#70A8E2" fill-rule="evenodd"/></svg>