<svg width="120" height="120" viewBox="0 0 120 120" xmlns="http://www.w3.org/2000/svg"><g fill="none" fill-rule="evenodd"><path d="M77.347 40.746s2.638-8.61 7.042-7.833c4.4.776 3.296 3.583 4.095 4.516.799.934 4.051-1.52 7.645-.669 3.593.85 2.112 4.085 4.129 5.656 2.017 1.573 8.535-1.963 11.049 2.084 2.517 4.047-.735 6.504.478 8.161 1.212 1.658 6.383.461 7.463 3.027 1.082 2.563-5.553 5.724-5.041 7.36.511 1.633 5.671 2.172 5.515 5.219-.153 3.048-10.003 9.41-13.297 5.88-3.293-3.529-40.291-24.268-34.946-29.336 5.344-5.068 5.868-4.065 5.868-4.065" fill="#4D9C27"/><path d="M119.723 68.267c.156-3.046-5.005-3.587-5.517-5.22-.512-1.634 6.123-4.795 5.043-7.36-.544-1.29-2.122-1.627-3.711-1.857-1.727.839-3.374 1.801-4.815 2.992-3.32 2.744-5.914 7.941-4.156 12.24 1.177 2.883 4.107 4.372 7.18 4.866 3.1-1.513 5.894-4.05 5.976-5.66" fill="#4D9C27"/><path d="M100.624 57.51c-1.751 2.313-3.25 5.23-6.093 6.387a7.456 7.456 0 0 1-2.333.547c3.68 2.436 7.16 4.672 9.784 6.43-1.991-5.037-.284-11.266 3.068-15.31 1.872-2.257 4.202-3.92 6.743-5.243.132-.449.28-.937.381-1.47-.341.113-.685.222-1.017.355-4.185 1.662-7.84 4.75-10.533 8.304m.583-12.936c-4.229 3.591-9.699 4.4-14.897 3.354-.437 2.296-.431 4.633.541 6.86.72 1.652 2.915 4.901 5.178 4.678 1.904-.188 3.256-2.96 4.219-4.224 3.75-4.92 8.863-9.115 14.848-11.02-1.88-2.533-5.546-1.625-8.229-1.415a11.326 11.326 0 0 1-1.66 1.767m-18.919-1.139a30.137 30.137 0 0 1 4.159-7.903c.284-.384.595-.765.919-1.142-.498-.637-1.369-1.193-2.977-1.477-4.032-.712-6.58 6.44-6.985 7.655 1.676 1.262 3.426 2.266 4.884 2.867m-1.136 9.768c-.342-2.207-.193-4.526.3-6.814-.45-.2-.899-.41-1.335-.636-1.628-.839-3.556-2.184-5.312-3.83-.821.622-1.898 1.533-3.326 2.889-2.386 2.262 3.667 7.647 11.394 13.23-.88-1.589-1.481-3.281-1.721-4.84M98.14 41.521c.324-.286.653-.638.967-1.024-.438-1.503-.553-3.163-2.977-3.737-1.78-.422-3.473-.032-4.83.353-1.887 2.169-3.215 4.938-4.111 7.559 3.902.415 7.921-.473 10.95-3.15M41.883 81.968s-2.819 8.553-7.204 7.684c-4.385-.87-3.22-3.653-4.001-4.602-.78-.95-4.082 1.436-7.656.51-3.575-.925-2.025-4.127-4.01-5.743-1.982-1.614-8.572 1.786-11.002-2.313-2.429-4.098.872-6.487-.305-8.17-1.176-1.683-6.37-.595-7.396-3.182-1.027-2.587 5.672-5.607 5.195-7.251-.479-1.645-5.624-2.293-5.405-5.335.219-3.043 10.202-9.2 13.42-5.6 3.218 3.597 39.77 25.106 34.317 30.06-5.45 4.954-5.953 3.942-5.953 3.942" fill="#4D9C27"/><path d="M.1 53.566c-.22 3.042 4.926 3.69 5.404 5.334.477 1.646-6.222 4.666-5.195 7.253.517 1.3 2.086 1.672 3.67 1.934 1.744-.803 3.41-1.73 4.876-2.89 3.38-2.673 6.08-7.816 4.414-12.151-1.116-2.906-4.015-4.458-7.077-5.016C3.06 49.478.213 51.958.1 53.566" fill="#4D9C27"/><path d="M18.965 64.721c1.803-2.276 3.36-5.162 6.226-6.26a7.492 7.492 0 0 1 2.346-.496c-3.628-2.513-7.06-4.823-9.646-6.634 1.884 5.078.046 11.269-3.392 15.243-1.918 2.217-4.283 3.832-6.85 5.1-.143.446-.3.932-.413 1.461.344-.104.688-.207 1.023-.334 4.22-1.575 7.94-4.583 10.706-8.08m-.855 12.921c4.303-3.503 9.79-4.197 14.964-3.042.485-2.287.529-4.623-.395-6.87-.686-1.668-2.811-4.962-5.08-4.785-1.905.148-3.317 2.89-4.305 4.135-3.854 4.839-9.055 8.925-15.078 10.705 1.824 2.572 5.508 1.741 8.198 1.588a11.342 11.342 0 0 1 1.695-1.731M37 79.176a30.113 30.113 0 0 1-4.327 7.815c-.29.376-.61.751-.94 1.123.485.645 1.342 1.22 2.946 1.538 4.013.795 6.716-6.301 7.144-7.507-1.648-1.297-3.378-2.338-4.823-2.97m1.343-9.741c.294 2.214.097 4.529-.445 6.806.448.208.89.43 1.321.665 1.612.872 3.51 2.256 5.231 3.94.833-.605 1.93-1.494 3.386-2.819 2.435-2.212-3.506-7.723-11.11-13.467.843 1.608 1.41 3.312 1.617 4.875m-17.23 11.324c-.331.28-.667.624-.99 1.003.407 1.513.484 3.175 2.9 3.799 1.77.458 3.469.106 4.831-.254 1.936-2.126 3.322-4.867 4.273-7.47-3.894-.498-7.93.307-11.014 2.922" fill="#4D9C27"/><path d="M89.29 71.39s4.298 8.936.148 11.564c-4.15 2.627-5.352-.467-6.698-.632-1.346-.165-2.148 4.231-5.698 6.202-3.548 1.97-4.767-1.75-7.58-1.533-2.81.22-5.45 7.911-10.517 6.49-5.066-1.42-4.266-5.817-6.49-6.265-2.222-.447-5.52 4.351-8.314 3.071-2.794-1.28.223-8.754-1.414-9.7-1.638-.946-6.227 2.435-8.38-.15-2.152-2.585 1.076-15.033 6.387-14.61 5.31.424 50.817-10.141 50.274-2.077-.544 8.067-1.718 7.64-1.718 7.64" fill="#4D9C27"/><path d="M34.348 80.437c2.152 2.584 6.74-.795 8.379.151 1.637.946-1.381 8.419 1.414 9.699 1.405.643 2.938-.25 4.397-1.24.773-1.96 1.389-3.957 1.667-5.99.64-4.684-1.143-10.814-5.785-13.001-3.109-1.466-6.6-.505-9.461 1.37-1.383 3.521-1.749 7.645-.611 9.011" fill="#4D9C27"/><path d="M57.879 75.026c-.308-3.173-1.276-6.646.162-9.69a8.146 8.146 0 0 1 1.484-2.17c-4.806.75-9.299 1.51-12.74 2.029 5.38 2.61 8.654 8.923 8.96 14.683.17 3.216-.474 6.29-1.547 9.242.23.463.476.967.793 1.474.192-.344.388-.687.558-1.04 2.15-4.446 2.804-9.653 2.33-14.528m9.201 10.92c.743-6.043 4.574-10.745 9.57-13.745-1.363-2.185-3.114-4.075-5.567-5.162-1.82-.807-6.029-1.818-7.698.04-1.4 1.559-.426 4.808-.26 6.547.636 6.764-.374 13.95-3.8 19.922 3.417.665 5.71-2.786 7.731-4.942-.085-.902-.08-1.8.024-2.66m16.191-13.079a33.025 33.025 0 0 1 2.539 9.488c.057.52.09 1.058.11 1.605.88.145 2.001-.045 3.519-1.006 3.8-2.406.52-10.093-.063-11.376-2.301.216-4.472.698-6.105 1.29m-6.381-8.762c1.928 1.538 3.54 3.527 4.849 5.748a26.09 26.09 0 0 1 1.561-.473c1.947-.524 4.514-.863 7.17-.825.2-1.114.393-2.649.537-4.805.243-3.6-8.693-3.486-19.133-2.297 1.902.639 3.655 1.567 5.016 2.652M71.85 86.15c-.048.472-.052 1-.019 1.546 1.481.895 2.815 2.158 5.21.827 1.758-.975 2.84-2.543 3.649-3.86-.088-3.156-1.083-6.384-2.317-9.172-3.475 2.55-6.068 6.247-6.522 10.66" fill="#4D9C27"/><path d="M96.663 48.606c0 7.531-7.29 13.638-16.278 13.638-8.991 0-16.281-6.107-16.281-13.638s7.29-13.638 16.28-13.638c8.99 0 16.28 6.107 16.28 13.638" fill="#FAAC2F"/><path d="M64.962 52.868c0-7.533 7.288-13.638 16.279-13.638 7.171 0 13.245 3.89 15.416 9.284-.06-7.489-7.32-13.545-16.273-13.545-8.99 0-16.279 6.104-16.279 13.637 0 1.524.312 2.985.861 4.354 0-.032-.004-.06-.004-.092" fill="#FAAC2F"/><path d="M90.935 38.23c1.452 2.04 2.3 4.417 2.3 6.967 0 7.53-7.287 13.637-16.278 13.637-4.028 0-7.707-1.231-10.55-3.262 2.841 3.99 8.028 6.671 13.978 6.671 8.99 0 16.278-6.104 16.278-13.637 0-4.157-2.227-7.875-5.728-10.376" fill="#F7A305"/><path d="M70.084 50.205c.11.31.274.449.574.548.318.105.737.056 1.068.049.123-.003.632-.077.605-.086-.32-.106-.409-.226-.51-.511-.096-.266-1.707.083-1.737 0m5.394-5.949c.071.034.143.07.214.107.269.136.772.054 1.068.048.11-.003.648-.063.604-.086l-.212-.106c-.27-.136-.774-.056-1.07-.048-.11.001-.647.063-.604.085m1.902 4.986c.074.177.145.354.218.532.112.28 1.694-.103 1.735 0l-.216-.532c-.115-.283-1.694.104-1.736 0M76.1 54.535c.971 0 1.002-.139 0-.139-.973 0-1.003.14 0 .14m6.63-9.554l.858.958c.125.139.697.068.87.07.096 0 .835-.108.866-.07-.285-.32-.572-.64-.858-.958-.123-.14-.697-.07-.869-.07-.095 0-.835.106-.867.07m1.713 6.501l.32.639c.153.304 1.669-.139 1.737 0a76.325 76.325 0 0 1-.32-.64c-.154-.303-1.667.14-1.737 0m-11.689-3.938c.11.31.275.449.574.549.318.106.737.056 1.068.048.122-.003.632-.077.605-.086-.32-.106-.409-.227-.51-.51-.096-.267-1.706.082-1.737 0m5.394-5.95c.071.035.143.07.214.107.269.135.772.055 1.068.048.11-.003.648-.063.604-.086-.071-.034-.142-.07-.212-.105-.27-.136-.773-.056-1.07-.049-.11.002-.647.064-.604.085m1.902 4.986c.074.177.145.355.217.534.11.28 1.695-.102 1.734 0l-.214-.534c-.115-.28-1.695.103-1.736 0m-1.281 5.294c.972 0 1.002-.14 0-.14-.973 0-1.003.14 0 .14m6.63-9.555l.858.959c.123.139.697.07.87.07.095 0 .835-.108.866-.07l-.858-.958c-.123-.14-.697-.068-.869-.07-.095 0-.835.106-.867.07m1.713 6.501c.107.213.215.426.321.64.152.303 1.668-.138 1.736 0l-.32-.64c-.154-.304-1.667.14-1.737 0" fill="#B85E26"/><path d="M106.2 61.472c0 6.52-6.308 11.805-14.09 11.805s-14.092-5.286-14.092-11.805 6.31-11.804 14.092-11.804c7.782 0 14.09 5.285 14.09 11.804" fill="#FF4F19"/><path d="M78.76 65.161c0-6.519 6.309-11.805 14.09-11.805 6.207 0 11.466 3.369 13.346 8.036-.053-6.48-6.337-11.723-14.087-11.723-7.782 0-14.09 5.284-14.09 11.803 0 1.32.269 2.584.746 3.77 0-.028-.005-.054-.005-.081" fill="#FAAC2F"/><path d="M101.241 52.492c1.258 1.767 1.993 3.823 1.993 6.03 0 6.518-6.31 11.804-14.092 11.804-3.486 0-6.67-1.067-9.13-2.824 2.459 3.454 6.95 5.776 12.097 5.776 7.782 0 14.092-5.286 14.092-11.805 0-3.598-1.93-6.815-4.96-8.98" fill="#EA2207"/><path d="M91.086 53.812l-5.271 9.464s-1.592-7.5 2.774-9.464l-8.034-1.32s4.672-4.755 9.71-.641c0 0 .087-4.673 4.629-4.954l-2.784 4.766s5.637-3.457 8.547-.56l-7.55 1.869s7.363-.281 6.8 4.018l-8.821-3.178z" fill="#09632C"/><path d="M77.504 43.703c0 7.531-7.288 13.638-16.28 13.638-8.991 0-16.28-6.107-16.28-13.638s7.289-13.638 16.28-13.638c8.992 0 16.28 6.107 16.28 13.638" fill="#FAAC2F"/><path d="M45.803 47.965c0-7.532 7.288-13.638 16.279-13.638 7.17 0 13.245 3.89 15.417 9.284-.06-7.489-7.32-13.545-16.276-13.545-8.99 0-16.277 6.105-16.277 13.637 0 1.525.311 2.986.863 4.354 0-.03-.006-.06-.006-.092" fill="#FAAC2F"/><path d="M71.774 33.328c1.453 2.04 2.304 4.417 2.304 6.965 0 7.533-7.29 13.639-16.28 13.639-4.029 0-7.708-1.233-10.55-3.263 2.84 3.99 8.028 6.672 13.976 6.672 8.993 0 16.28-6.106 16.28-13.638 0-4.157-2.228-7.874-5.73-10.375" fill="#F7A305"/><path d="M50.925 45.303c.109.31.275.448.574.548.317.106.737.056 1.068.049.121-.004.632-.078.604-.087-.319-.105-.408-.226-.51-.51-.096-.266-1.706.083-1.736 0m5.393-5.95l.214.106c.27.136.77.056 1.068.048.111-.001.649-.063.605-.084l-.213-.106c-.272-.136-.771-.056-1.07-.048-.11.001-.646.063-.604.084m1.905 4.986c.071.178.143.355.216.533.114.28 1.693-.104 1.734 0a39.067 39.067 0 0 1-.214-.533c-.112-.28-1.697.101-1.736 0m-1.282 5.293c.973 0 1.003-.139 0-.139-.972 0-1.002.14 0 .14m6.631-9.553l.857.957c.124.14.697.07.869.07.097 0 .835-.107.867-.07-.286-.318-.571-.639-.857-.958-.123-.139-.697-.068-.869-.07-.095 0-.835.107-.867.07m1.712 6.501l.32.639c.152.305 1.668-.137 1.737 0l-.32-.64c-.153-.303-1.669.14-1.737 0m-11.689-3.937c.11.31.275.449.574.548.317.106.737.056 1.068.049.123-.003.632-.077.604-.086-.319-.106-.408-.226-.51-.511-.096-.266-1.706.083-1.736 0m5.393-5.949l.215.105c.27.136.77.056 1.067.049.111-.002.649-.064.605-.085l-.213-.106c-.272-.136-.771-.056-1.07-.048-.11.002-.646.063-.604.085m1.905 4.986c.071.178.143.355.216.532.114.281 1.693-.103 1.734 0-.071-.177-.144-.354-.214-.532-.114-.28-1.696.101-1.736 0m-1.282 5.293c.973 0 1.003-.14 0-.14-.972 0-1.002.14 0 .14m6.631-9.553c.284.319.571.639.857.958.124.139.697.068.869.07.097 0 .835-.108.867-.07-.286-.32-.571-.64-.857-.958-.123-.14-.697-.068-.869-.07-.095 0-.835.106-.867.07m1.712 6.501l.32.638c.152.304 1.668-.137 1.737 0l-.32-.639c-.153-.304-1.669.14-1.737 0" fill="#B85E26"/><path d="M27.342 27.947c-5.663 1.32-18.078 4.432-20.73 11.037-1.157 2.882-.389 23.974 2.268 26.945 2.657 2.97 29.886 24.644 60.952 18.863 31.067-5.78 23.075-11.764 23.075-11.764s.037-15.433-3.525-16.467c-3.564-1.033-25.144-12.802-27.536-18.987-2.393-6.185-17.797-13.523-34.504-9.627" fill="#B85E26"/><path d="M92.907 73.027s.016-7.016-1.066-11.903c-.04.015-.08.036-.121.053-5.244 2.028-11.207 2.342-16.794 2.16-10.919-.354-22.621-1.246-33.166-4.15-10.797-2.974-21.796-8.928-30.734-15.586-1.468-1.092-3.07-2.337-4.634-3.711-.816 4.938.023 23.283 2.488 26.04 2.657 2.97 29.885 24.643 60.953 18.863 31.066-5.782 23.074-11.766 23.074-11.766" fill="#AC571E"/><path d="M48.195 60.675c-2.178-.43-4.333-.91-6.434-1.489a72.027 72.027 0 0 1-4.996-1.586v24.26a74.808 74.808 0 0 0 11.43 2.944v-24.13zm44.712 12.352s.016-7.016-1.066-11.903c-.04.015-.08.036-.121.053-5.244 2.028-11.207 2.342-16.794 2.16a255.27 255.27 0 0 1-9.366-.47v22.551a57.811 57.811 0 0 0 4.273-.625c31.066-5.782 23.074-11.766 23.074-11.766" fill-opacity=".387" fill="#FAAC2F"/><path d="M92.907 73.027s.016-7.016-1.066-11.903c-.04.015-.08.036-.121.053-.187.073-.383.127-.573.195-.033.14-.062.283-.1.425a12.89 12.89 0 0 1-1.782 6.556c-1.054 3.22-2.854 6.008-5.402 8.361-1.76 1.354-3.522 2.708-5.286 4.062l-6.237 2.619c-.417.056-.835.113-1.253.168a23.973 23.973 0 0 1-5.527.835v1.02a57.811 57.811 0 0 0 4.273-.625c31.066-5.782 23.074-11.766 23.074-11.766" fill="#AC571E"/><path d="M26.345 53.1a106.836 106.836 0 0 1-15.319-9.498c-1.469-1.094-3.07-2.338-4.634-3.713-.816 4.939.022 23.283 2.488 26.04 1.23 1.376 7.745 6.768 17.465 11.584V53.1z" fill-opacity=".387" fill="#FAAC2F"/><path d="M13.757 45.555a100.53 100.53 0 0 1-2.731-1.953c-1.469-1.094-3.07-2.337-4.635-3.712-.815 4.938.023 23.283 2.489 26.04.568.634 2.261 2.124 4.877 4.017V45.555zm5.933-2.94s12.3-11.784 32.559-6.17c0 0-23.299-11.269-32.56 6.17m9.117 7.026s12.3-11.784 32.558-6.17c0 0-23.297-11.268-32.558 6.17m13.729 5.631s9.673-9.27 25.605-4.854c0 0-18.322-8.861-25.605 4.854m15.31 4.124s7.78-7.454 20.593-3.903c0 0-14.736-7.126-20.593 3.903" fill="#AC571E"/><path d="M111.727 71.206c0 5.92-5.728 10.72-12.797 10.72-7.068 0-12.798-4.8-12.798-10.72 0-5.92 5.73-10.721 12.798-10.721 7.07 0 12.797 4.8 12.797 10.721" fill="#FF4F19"/><path d="M86.806 74.556c0-5.92 5.73-10.721 12.798-10.721 5.638 0 10.412 3.058 12.118 7.298-.047-5.887-5.754-10.649-12.793-10.649-7.067 0-12.796 4.801-12.796 10.722 0 1.198.246 2.347.678 3.422 0-.024-.005-.048-.005-.072" fill="#FAAC2F"/><path d="M107.224 63.05c1.142 1.605 1.809 3.473 1.809 5.476 0 5.92-5.728 10.72-12.796 10.72-3.167 0-6.06-.969-8.294-2.564 2.233 3.137 6.312 5.245 10.987 5.245 7.068 0 12.797-4.801 12.797-10.722 0-3.268-1.75-6.189-4.503-8.155" fill="#EA2207"/><path d="M98.001 64.248l-4.786 8.596s-1.448-6.813 2.519-8.596l-7.298-1.198s4.243-4.317 8.82-.583c0 0 .079-4.243 4.203-4.499l-2.53 4.328s5.12-3.14 7.766-.508l-6.86 1.697s6.688-.254 6.176 3.65l-8.01-2.887z" fill="#09632C"/></g></svg>