<svg width="152" height="136" viewBox="0 0 152 136" xmlns="http://www.w3.org/2000/svg"><g fill="none"><path d="M97.278 94.847c-1.359-.23-7.22.804-8.553.96-.04.833 2.59 10.516 2.983 11.244h6.456c-.106-1.23-.78-10.964-.886-12.204z" fill="#DCAA78"/><path d="M101.369 127.413a2.695 2.695 0 0 0-.06-.347c-.232-5.738-1.269-21.33-1.38-21.963a55.284 55.284 0 0 0-10.188.07c2.4 8.073 8.724 22.867 9.157 24.283.503.396 1.902-.206 2.435-.316.297-.588.076-1.16.036-1.727z" fill="#000"/><path d="M107.95 129.581c-.81 0-1.625.07-2.43 0a26.533 26.533 0 0 0-2.798-.296c-.035 0-1.826-7.927-1.927-7.977-.1-.05-2.189 3.795-2.189 3.795s.287 4.202.312 4.358c.033.134.077.265.131.391.095.235.17.477.226.723.066.412.04.834.126 1.24.086.407.302.532.795.412a1.138 1.138 0 0 0-.08-1.506l.357-.849c.503-.12.785.201 1.072.472l.17 1.587.776.19c.038-.191.056-.386.055-.582a5.902 5.902 0 0 0-.176-.823.532.532 0 0 1 .226-.658l1.258.15c.674.628.262 1.582.77 2.31l.599.03c.206-.753-.554-1.43-.06-2.118h.945a.697.697 0 0 1 .247.793c-.131.502.085.763.558.969l.388-.221v-1.396c.533-.09 1.207.312 1.373-.502a.735.735 0 0 0-.724-.492z" fill="#000"/><path fill="#F01446" d="M99.019 118.477l-5.535-.08-1.248-2.957h6.783z"/><path d="M99.482 108.873c1.73 0 3.396 1.045 3.783 1.637a11.972 11.972 0 0 1 1.958 5.156c.503 3.338-.715 8.72-4.09 9.166-6.34.834-7.337-14.924-1.651-15.959z" fill="#00A08C"/><path d="M99.9 111.87a3.324 3.324 0 0 1 2.364 1.004 7.485 7.485 0 0 1 1.223 3.223c.322 2.089-.448 5.452-2.556 5.733-3.985.537-4.609-9.297-1.032-9.96z" fill="#008264"/><path fill="#F01446" d="M88.881 104.175H100.8v2.766H88.881z"/><path d="M53.52 95.018c-.252.783-2.516 10.19-2.602 11.044l7.13-.672c.407-.573 4.287-8.434 4.337-9.227-1.6.005-7.266-1.175-8.866-1.145z" fill="#DCAA78"/><path d="M58.687 106.017h-8.74l-3.829 20.864s-1.866.22-2.143.22c-.84 0-1.68 0-2.516-.045-.45-.004-.85.291-.976.723l.116.377.9.105.976-.16-.166 2.384c.438.336.438.336.836.125l.226-2.6 1.157.136c.07.736.07 1.477 0 2.213l.896.211c.085-.22-.07-1.29.221-2.364l1.288-.12c.05.928-.327 1.766.056 2.625h.679c.201-.864-.317-1.848.619-2.646l1.006.05c.171.869-.458 1.682.196 2.465l.458.146.378-.296a1.333 1.333 0 0 0-.036-.261c.045-.797.151-1.59.317-2.37 0 0 5.585-15.266 8.08-21.782z" fill="#000"/><path fill="#F01446" d="M49.942 118.477l5.535-.08 1.248-2.957h-6.783z"/><path d="M53.781 113.688a14.936 14.936 0 0 1-1.046 4.608c-.906 2.073-3.79 6.767-6.863 4.875-1.007-.849-1.947-1.506-2.264-2.817-.393-1.576-.207-3.132.025-4.708.231-1.577 1.157-4.815 3.668-6.23 1.107-.623 4.16-1.13 5.625.055 1.187.939.926 3.499.855 4.217z" fill="#00A08C"/><path d="M51.98 114.561a9.72 9.72 0 0 1-.68 3.012c-.588 1.35-2.465 4.403-4.462 3.173-.66-.552-1.268-1.004-1.474-1.832a7.789 7.789 0 0 1 0-3.063c.155-1.049.754-3.132 2.384-4.056.72-.406 2.707-.738 3.658.035.785.588.624 2.264.574 2.731z" fill="#008264"/><path fill="#F01446" d="M48.247 104.175h11.919v2.766H48.247z"/><path d="M86.818 24.175c.895-1.536 1.861-3.575 4.07-3.012 1.676.421 2.44 2.62 2.113 4.206-.327 1.587-2.128 3.113-3.778 3.093-2.909-.05-2.672-2.124-2.405-4.287z" fill="#DCAA78"/><path d="M88.231 17.036l-14.234-2.334-8.644-1.42c-2.123-.347-2.254-.583-3.27 1.63-1.791 3.906-1.117 9.539.106 13.63.77 2.575 5.534 11.1 13.232 11.1 7.698 0 12.78-8.846 13.017-10.784a39.07 39.07 0 0 0-.207-11.822z" fill="#DCAA78"/><path d="M60.247 14.25s-3.96 1.305-5.616 3.63c-2.047 2.881-2.364 6.22-3.23 9.538-.79 3.042-2.294 5.813-5.278 7.108-2.983 1.295-6.671.402-8.221-2.67-2.777-5.493-.232-14.935 4.83-18.274 2.782-1.837 6.194-1.907 9.379-1.506 2.8.34 5.54 1.071 8.136 2.174zm1.806.276c3.019-5.592 10.395-7.36 16.845-5.969 8.01 1.722 10.742 7.32 10.103 14.137-4.377.075-26.692-7.465-26.948-8.168z" fill="#000"/><path d="M63.366 21.876s2.088 4.362 2.199 6.27c-1.082 0-4.056.753-5.45.396-1.121-.286-2.329-1.144-2.59-2.32-.237-1.063-.81-3.292-.358-4.246 1.706-3.57 6.199-.1 6.199-.1z" fill="#DCAA78"/><path d="M61.182 18.356a3.133 3.133 0 0 1-1.086-3.88c1.046-2.51 3.522-1.506 3.522-1.506l-2.436 5.386z" fill="#F01446"/><path d="M75.215 21.59c.378.678.692 1.39.936 2.128.14.607.407 1.32-.211 1.902a1.165 1.165 0 0 1-1.369.267c-.438-.176-.503-.543-.568-.964a4.846 4.846 0 0 1 .694-2.681 4.41 4.41 0 0 1 .518-.653z" fill="#BE8C64"/><path d="M77.177 29.084c-.88-.145-1.75-.341-2.641-.431-.7-.076-1.655-.427-2.325-.392-1.605.095-1.097 2.108-.382 3.012 1.595 2.008 6.631.904 7.225-1.596a11.249 11.249 0 0 0-1.877-.593zm-8.699-6.932c.448-.126.69 0 .765.236.11.366.075 1.716-.287 1.967l-.503-.175.025-2.028zm13.58 2.048c-.503-.116-.795-.954-.503-1.531.08-.166.241-.342.357-.327.116.015.292.236.317.412.13.486.069 1.003-.171 1.446zM71.457 14.024L61.02 26.574s-5.16-16.17 10.608-18.258l-.171 5.708z" fill="#000"/><path fill="#000" d="M66.274 12.88l-1.987 15.4 6.199-13.885z"/><path d="M52.765 81.614l-1.55 8.956s.413 2.169 1.233 3.238l3.814-12.937-3.497.743zm40.312-1.827l3.889 14.794s.503-10.16 4.025-12.992v-2.058l-7.914.256z" fill="#DCAA78"/><path d="M64.76 98.663l3.622-11.843 12.795-.14v-.12l4.342 12.098h14.21c-1.802-8.349-4.177-20.392-5.178-22.671l-28.68-.623c-1.881-.04-7.98-1.119-9.292.096-.59.542-.931 3.067-1.178 3.845-.644 2.045-1.3 4.087-1.967 6.125a2097.27 2097.27 0 0 1-4.332 13.223l15.658.01z" fill="#F01446"/><path d="M115.497 61.936c-.87-6.988-5.48-12.084-11.18-15.266-1.605-.894-7.703-2.375-9.082-2.37l-.573 8.243c6.244 0 10.017 2.54 11.99 9.097 1.972 6.556-1.233 10.16-2.702 12.239-1.47 2.078-5.837 3.83-7.522 4.367-1.686.537-4.604-.22-5.988.949.86 1.978 4.116.582 5.43 2.58 1.312 1.998 1.121 2.51 2.183 4.709.206-.08 1.006-1.571 1.585-2.214 1.087-1.25 2.681-1.074 4.186-1.541a15.952 15.952 0 0 0 7.497-4.95c3.451-4.096 4.845-10.507 4.176-15.843zM58.31 80.144c-.765-.753-2.964.135-3.94.065a8.747 8.747 0 0 1-3.26-1.155c-2.043-1.205-3.8-3.65-5.032-5.793-2.636-4.583-2.923-10.452 1.102-16.024 4.025-5.572 7.874-4.619 8.196-4.754l-.156-7.646c-2.516.367-4.97.502-7.381 1.697-2.048 1.004-13.63 6.712-11.286 19.262 1.158 6.2 3.804 11.973 8.463 15.693 1.43 1.14 4.443 1.842 5.535 3.253 1.384 1.797-.176 3.755.664 5.823.976-2.756 1.268-4.478 2.445-7.118.62-1.39 1.007-1.727 2.37-2.008.599-.146 3.739.135 2.28-1.295z" fill="#DCAA78"/><path d="M96.946 53.823a63.578 63.578 0 0 1-.569-7.79c-.035-.438-.065-2.355-.095-2.727H76.096L68.438 61.38l3.788 10.326 3.85 6.335 19.481-.763c-1.051-4.603-3.934-16.064-5.821-23.539l7.21.085z" fill="#008264"/><path d="M54.325 43.301c-.076 1.105-.207 3.725-.121 4.835.077.924.104 1.853.08 2.78 0 .673-.12 1.848.317 2.375.468.045 3.095.1 6.823.16a4818.073 4818.073 0 0 0-6.742 25.402l21.414-.808V43.306l-21.771-.005zm31.099 6.049c1.112 1.035 1.806 2.39 1.836 2.832a4.565 4.565 0 0 1-.629 3.012 4.102 4.102 0 0 1-5.992.813c-4.387-3.504.735-9.664 4.785-6.657z" fill="#00A08C"/><path fill="#F01446" d="M93.756 42.383h4.684v12.184h-4.684zm-40.614 0h4.684v12.184h-4.684z"/></g></svg>