<svg width="165" height="210" viewBox="0 0 165 210" xmlns="http://www.w3.org/2000/svg"><g transform="translate(28 3)" fill="none"><path d="M8.8.068c1.968-.152.62 6.848 2.868 6.068 1.688-.584 1.372-5.6 2.644-5.6s.744 2.512.672 4.716c-.04 1.288-.56 8.4-.624 10.556-.108 3.776.448 57.976 2.68 62.4 3.268 6.472 10.16 12.436 13.58 13.2 2.148.468 11.124.672 11.124.672l-.308 10.628s-13.5.608-19.6-2.332c-8.684-4.188-15.9-16.124-17.156-23.5-2.2-12.936-1.74-56.288-1.6-60.828.024-.896-.728-13.228-.184-13.576.884-.556 2.448 6.224 4.572 4.4C8.948 5.548 6.828.22 8.8.068z" fill="#A0640A"/><path d="M9.484 19.2c-1.728-2.46-1.304-5.812.256-7.812s2.732-.188 4.748-1.788 2.668-3.352 3.648-3.02c.64.216-1.956 11.004-3.528 12.364-1.572 1.36-3.408 2.728-5.124.256z" fill="#824600"/><path d="M16.168 17.828c.048 2.568.196 5.224-.292 7.764-.5.4-6.46.036-7.296 0a54.932 54.932 0 0 1-5.78-.532C.96 24.752.656 24.08.324 22.012c-.256-1.6.4-3.696.932-5.2.228-.16 2.152.076 5.448.164a71.2 71.2 0 0 1 9.464.852z" fill="#780046"/><path d="M102.8 11.776c.232-3.712.848-8.572.304-8.92-.884-.556-2.448 6.224-4.568 4.4-1.504-1.3.616-6.628-1.352-6.8-1.968-.172-.62 6.844-2.864 6.068-1.688-.584-1.376-5.6-2.644-5.6-1.268 0-.748 2.512-.676 4.716.044 1.288.56 8.4.624 10.556.068 2.4 1.712 29.544 1.348 45.48-.208 9.276-.148 12.548-1.784 16.184-4.448 9.88-7.972 12.428-11.392 13.172-.936.204-7.6 1.1-9.812 1.2v10.184c4.452-.12 12.8-.056 16.376-1.78 8.688-4.188 12.064-6.68 16.512-23.152s.184-56.536.064-61.076a32.996 32.996 0 0 1-.136-4.632z" fill="#A0640A"/><path d="M96.984 19.2c1.724-2.46 1.304-5.812-.256-7.812S94 11.2 92 9.6c-2-1.6-2.668-3.352-3.648-3.02-.64.216 1.956 11.004 3.528 12.364 1.572 1.36 3.376 2.728 5.104.256z" fill="#824600"/><path d="M89.832 18.228c-.052 2.568-.2 5.224.288 7.764.5.4 6.46.036 7.296 0a55.008 55.008 0 0 0 5.784-.532c1.836-.308 2.14-.98 2.472-3.048.256-1.6-.4-3.696-.932-5.2-.228-.16-2.152.076-5.448.164a71.04 71.04 0 0 0-9.46.852zM70.912 90.76H35.736l-4.128 13.316 43.504-.072zm-13.668 25.152l-19.644 12s2.628 2.08 9.392 2.08c6.764 0 5.512 1.328 12.692.42 7.18-.908 11.916-6.644 11.916-6.644l-14.356-7.856z" fill="#780046"/><path fill="#FFDC00" d="M46.008 119.188h18.248v8.464H46.008z"/><path d="M41.224 127.676l.532 44.724.168 4.5 8.952-4.244s-.104-42.96-.152-43.036l-9.5-1.944z" fill="#824600"/><path fill="#FAB414" d="M41.892 187.36l-.136-14.956 9.12.256-.264 14.904z"/><path d="M38.8 125.272l-.324 27.928c.22-.176 15.124 0 15.124 0l-.068-27.928H38.8zm-3.288 75.392l6.616-.856 9.78.624-.24 1.3-16.472.132z" fill="#FFDC00"/><path d="M36.696 199.376a27.288 27.288 0 0 0 3.556-.428l.4-12.548h10.86l.4 14.032-16.4.236a8 8 0 0 0 .4-1.048c.25-.114.514-.196.784-.244z" fill="#AA3278"/><circle fill="#FFDC00" cx="46.788" cy="191.288" r="3.076"/><circle fill="#780046" cx="46.788" cy="191.288" r="1.46"/><path fill="#FFDC00" d="M39.54 188.612v.78h2.012l.252-.78z"/><path fill="#FAB414" d="M39.54 190.432v.78h2.012l.252-.78z"/><path fill="#FFDC00" d="M39.54 192.252v.784h2.012l.252-.784z"/><path fill="#FAB414" d="M39.54 194.072v.784h2.012l.252-.784z"/><path fill="#FFDC00" d="M39.54 195.896v.78h2.012l.252-.78z"/><path d="M67.572 127.676L67.04 172.4l-.168 4.5-8.952-4.24s.104-42.96.152-43.036l9.5-1.948z" fill="#824600"/><path fill="#FAB414" d="M66.908 187.36l.132-14.956-9.12.256.268 14.904z"/><path d="M69.52 122.108l.8 31.092c-.216-.176-15.124 0-15.124 0l.068-27.928 14.256-3.164zm3.768 78.556l-6.616-.856-9.78.624.236 1.3 16.472.132z" fill="#FFDC00"/><path d="M72.104 199.376a27.292 27.292 0 0 1-3.56-.428l-.4-12.548h-10.86l-.4 14.032 16.4.236a7.94 7.94 0 0 1-.4-1.048 3.224 3.224 0 0 0-.78-.244z" fill="#AA3278"/><circle fill="#FFDC00" cx="62.008" cy="191.288" r="3.076"/><circle fill="#780046" cx="62.008" cy="191.288" r="1.46"/><path fill="#FFDC00" d="M69.26 188.612v.78h-2.012l-.252-.78z"/><path fill="#FAB414" d="M69.26 190.432v.78h-2.012l-.252-.78z"/><path fill="#FFDC00" d="M69.26 192.252v.784h-2.012l-.252-.784z"/><path fill="#FAB414" d="M69.26 194.072v.784h-2.012l-.252-.784z"/><path fill="#FFDC00" d="M69.26 195.896v.78h-2.012l-.252-.78z"/><path d="M42.188 88.988l3.972-.352s-.616 9.708 7.064 9.708S60.64 88.9 60.64 88.9l3.88.176s6.884 33.2 7.064 34.692c-2.516.72-34 4.148-34 4.148l4.604-38.928z" fill="#AA3278"/><path d="M66.576 54.604c-4.8-4.596-12.752-6.5-18.988-4.284-6.956 2.472-11.06 9.092-10.432 16.4.244 2.836.8 6.164 2.636 8.456 1.736 2.144 6.424 6 14.704 5.428 8.28-.572 11.496-3.744 12.428-4.92 3.74-4.716 4.304-16.628-.348-21.08z" fill="#000"/><path d="M64.46 74.556c0-.304-.516-5.62-2.944-8.66-2.192-2.744-6.256-3.252-7.556-3.312-5.484-.248-9.68 3.436-10.12 6.528-.664 4.636.596 9.4 3.732 13.736 1.72 2.38 4.216 3.128 6.488 3.124 6.316-.008 10.672-5.32 10.4-11.416z" fill="#A0640A"/><path fill="#000" d="M44.252 73.564l-.292-10.252-2.864 2.676L43.2 72.1zM64.516 72.1l2.108-6.112-4.432-3.08.82 9.652z"/><path d="M61.896 78.224s2.8-1.168 4.4-3.396c1.032-1.44 1.408-3.896.764-4.84-.836-1.236-2.304-1.62-3.484-.552-.908.824-1.856 5.564-1.972 6.68.016.02.292 2.108.292 2.108zm-15.072-.376s-3.012-.18-5.26-1.756c-1.452-1.016-2.62-3.2-2.328-4.312.4-1.444 1.64-2.292 3.104-1.672 1.132.476 3.6 4.632 4.08 5.648-.02.028.404 2.092.404 2.092z" fill="#A0640A"/><path d="M51.804 78.8a8.712 8.712 0 0 1 4.82.204c.94 2.072-5.748 2-4.82-.204z" fill="#000"/><path d="M55.464 75.92c-1.036.424-2.08.184-3.112-.072-.348-.888 1.016-3.232 1.952-3.264.896.924 1.508 1.92 1.16 3.336z" fill="#824600"/><path d="M48.76 72.536c.096.652.172 1.232-.204 1.764-.948.084-.66-1.6-.216-1.98l.42.216zm11.216.056c.072.612.4 1.2-.088 1.796l-.676-.144c.036-.624-.208-1.244.264-1.792l.5.14z" fill="#000"/></g></svg>