<svg width="120" height="120" viewBox="0 0 120 120" xmlns="http://www.w3.org/2000/svg" xmlns:xlink="http://www.w3.org/1999/xlink"><defs><path id="a" d="M.068.08h35.476v12.77H.068z"/><path id="c" d="M0 .036h25.464v49.162H0z"/></defs><g fill="none" fill-rule="evenodd"><path d="M68.26 20.553c-4-3.03 3.206-13.828 6.981-14.66.119 4.422 1.633 7.774 5.058 10.492L68.26 20.553z" fill="#CE4017"/><path d="M71.116 15.176c3.787-1.86 8.079-.976 9.735-5.768.822-2.377-3.786-10.92 2.102-9.175 7.958 2.36 9.544 17.43 8.831 24.124-.571 5.363-1.388 11.798-7.23 13.555-6.459 1.943-11.789.212-15.635-5.593-3.733-5.635-4.888-13.664 2.197-17.143" fill="#E7590D"/><path d="M85.953 15.364c-.415 2.422-.376 4.755-.491 7.21-.101 2.155-.92 4.938.014 6.938.282.605 1.057.65 1.574.399 2.219-1.077 2.776-4.618 2.944-6.825.22-2.9-.556-5.583-2.06-8.002-.462-.743-1.814-.696-1.981.28" fill="#ED733E"/><g transform="translate(42.14 107.026)"><mask id="b" fill="#fff"><use xlink:href="#a"/></mask><path d="M17.987 4.128C16.008 1.896 11.27.104 8.37.08 5.456.055.435 2.432.094 5.703-.336 9.832 4.78 12.133 8.145 12c3.522-.14 9.553-3.722 10.676-7.18 1.134 2.2 2.568 5.18 4.741 6.505 2.315 1.411 7.105 2.244 9.417.686 2.626-1.77 3.944-4.833.441-5.915-3.41-1.052-11.59-3.582-14.762-1.518l-.67-.45z" fill="#CE4017" mask="url(#b)"/></g><path d="M83.412 33.961c-.01.196.022.418.096.607a1.97 1.97 0 0 0 1.383 1.363c.348.09.695.087 1.042-.01.456-.131.954-.473 1.162-.917.01-.02.02-.04.032-.058l-.306.408.009-.009c.384-.328.575-.934.57-1.423a2.023 2.023 0 0 0-1.004-1.722 2.001 2.001 0 0 0-2.013.02c-.63.38-.936 1.023-.971 1.741" fill="#ED733E"/><path d="M54.918 104.48c-2.14 2.103.066 5.383 2.066 6.609 2.715 1.663 6.486.515 7.797-2.422.615-1.377.41-2.966-.988-3.79-1.318-.776-2.981-.288-3.768.994.032-.05-.557.821-.258.46-.151.183-.321.21-.073.122-.314.073-.312.081.007.024-.161.001-.322.005-.483.01-.217.006-.22-.04-.144-.006-1.01-.444-1.658-1.511-2.731-2.187-.45-.283-1.055-.178-1.425.185" fill="#E7590D"/><path d="M51.112 23.133c3.333-2.63-2.94-11.641-6.147-12.282-.027 3.743-1.252 6.602-4.104 8.959l10.25 3.323z" fill="#CE4017"/><path d="M48.608 18.634c-3.234-1.51-6.85-.69-8.33-4.715-.734-1.997 3.022-9.3-1.93-7.725-6.69 2.13-7.783 14.9-7.069 20.55.572 4.527 1.37 9.955 6.34 11.344 5.494 1.534 9.974-.019 13.13-4.993 3.065-4.828 3.908-11.637-2.141-14.461" fill="#E7590D"/><path d="M47.463 92.878c.721 2.867 1.252 5.878 2.964 8.311 2.237 3.177 5.847 6.215 9.774 6.842 7.56 1.206 11.155-11.463 12.761-16.727l-25.499 1.574z" fill="#CE4017"/><path d="M47.184 24.837l.01.006-.406-.308.01.013-.313-.4c.1.156.224.295.342.438.31.379.912.564 1.38.559.351-.004.677-.097.979-.277.29-.176.52-.412.69-.708.196-.27.304-.757.293-1.085-.024-.712-.384-1.365-1.005-1.722a2 2 0 0 0-2.014.02 2.024 2.024 0 0 0-.972 1.742c.007.727.402 1.345 1.006 1.722" fill="#ED733E"/><path d="M45.897 89.73c-.31.014-.316.34-.63.026.434 1.699.074 3.001 1.29 4.528.976 1.226 2.95 2.669 4.31 3.486 3.135 1.883 6.743 3.136 10.464 2.98 3.672-.153 6.419-1.204 9.232-3.548 1.192-.993 2.294-1.968 2.846-3.425.692-1.827-.234-2.894 0-4.722l-27.512.675z" fill="#E7590D"/><path d="M40.426 35.07c-1.863 3.486-1.284 8.521-.27 12.167 1.185 4.257 3.938 8.634 8.381 9.832 1.962.528 2.886-1.735 1.812-3.13-2.142-2.781-4.495-5.006-5.646-8.427-1.12-3.333-1.05-7.335-2.729-10.442-.316-.584-1.233-.589-1.548 0" fill="#CE4017"/><path d="M44.108 81.408c-4.505 9.644 8.987 15.465 16.273 15.968 4.063.28 10.77-2.017 13.7-4.997 1.6-1.629 2.776-5.245 2.583-7.517-.22-2.592-2.828-3.93-4.82-5.253l-27.736 1.799z" fill="#ED733E"/><path d="M79.855 36.227c-.917 3.657-1.59 7.293-3.423 10.642a31.983 31.983 0 0 1-3.387 4.972c-1.14 1.382-2.76 2.936-3.066 4.782-.11.666.27 1.246.97 1.281 2.088.106 3.79-1.621 5.145-2.997 1.767-1.795 3.201-4.042 4.351-6.27 1.96-3.797 3.662-9.066.645-12.738-.359-.436-1.108-.18-1.235.328" fill="#CE4017"/><path d="M73.906 56.161c-1.575-3.227-3.602-6.178-5.778-9.02-1.492-1.95-3.63-6.023-5.788-7.098-4.187-2.086-8.113 4.642-10.18 7.124-4.326 5.192-6.023 10.912-7.829 17.316-1.571 5.573-3.876 12.845-1.793 18.554 1.936 5.308 7.24 8.016 12.469 9.122 5.603 1.185 13.015 1.324 17.954-1.918 4.604-3.022 5.41-8.539 5.598-13.726.258-7.096-1.57-14.033-4.653-20.354" fill="#E7590D"/><path d="M70.23 56.576c-.65.193-1.069.844-1.192 1.484-.206 1.075-.014 1.988.89 2.673.635.48 1.588.092 1.96-.517.442-.72.306-1.526.077-2.28-.213-.7-.884-1.613-1.735-1.36m-21.028-.139c-.665.628-1.098 1.697-.799 2.604.281.855 1.292 1.386 2.111.864 1.024-.653 1.465-2.149.762-3.2-.482-.72-1.426-.88-2.074-.268" fill="#1D1D1B"/><path d="M48.281 64.987c-1.17.814-1.755 1.537-2.38 2.866-.757 1.61-1.141 3.423-1.375 5.176-.426 3.176-.433 9.16 3.598 10.055 1.666.37 3.017-.745 3.148-2.411.1-1.276-.49-2.367-.805-3.471-.355-1.242-.34-2.575-.365-3.856-.052-2.645.495-5.204-.296-7.735-.188-.602-.951-1.022-1.525-.624m.464 21.879l.21.171c.27.22.404.343.748.438.283.078.633.085.912-.017l-.41.055h.026c.817.012 1.526-.7 1.515-1.523v-.026l-.056.412c.102-.28.095-.631.017-.917-.094-.345-.216-.48-.435-.752l-.17-.211c-.263-.327-.777-.491-1.179-.491a1.67 1.67 0 0 0-1.667 1.676c0 .404.163.921.489 1.185" fill="#ED733E"/><path d="M53.518 33.742c-1.368 1.701-1.306 3.986-1.26 6.077.051 2.27.412 5.416 2.618 6.583.76.403 2.005.278 2.391-.63.884-2.076.038-3.906-.371-6.003-.36-1.844-.386-4.173-1.426-5.774-.4-.614-1.421-.912-1.952-.253m13.048-.856c-1.703.87-1.912 4.379-2.273 6.055-.532 2.462-1.486 4.907-.777 7.436.141.505.558.965 1.08 1.086 2.921.677 3.543-5.59 3.853-7.37a16.48 16.48 0 0 0 .102-5.216c-.112-.803-.87-2.56-1.985-1.99" fill="#CE4017"/><g transform="translate(29 34.085)"><mask id="d" fill="#fff"><use xlink:href="#c"/></mask><path d="M24.583.172c-.786.648-1.488 1.098-2.204 1.884-.778.853-1.484 1.786-2.205 2.686-1.408 1.759-2.701 3.6-3.966 5.466-2.62 3.863-4.959 7.91-7.111 12.054-2.137 4.114-4.022 8.357-5.737 12.665-1.632 4.097-3.607 8.83-3.335 13.296.062 1.01 1.285 1.332 1.847.502 2.425-3.582 3.4-8.205 4.892-12.25 1.569-4.248 3.284-8.42 5.24-12.504 1.934-4.037 4.107-7.956 6.418-11.786 1.103-1.83 2.289-3.603 3.434-5.405.623-.98 1.267-1.947 1.918-2.909.69-1.02 1.086-1.998 1.624-3.067.275-.548-.363-1.006-.815-.632" fill="#E7590D" mask="url(#d)"/></g><path d="M66.646 34.764c.814 2.205 1.653 4.23 2.848 6.29 1.35 2.328 2.624 4.697 3.904 7.065 2.508 4.636 4.474 9.512 6.258 14.469 1.746 4.853 3.12 9.837 4.261 14.866 1.13 4.978 1.564 10.455 3.512 15.18.34.823 1.409.685 1.514-.205.586-4.965-.796-10.4-1.874-15.229a128.692 128.692 0 0 0-4.463-15.43c-1.726-4.806-3.937-9.438-6.369-13.919a191.457 191.457 0 0 0-3.983-6.964c-1.431-2.392-3.027-4.48-4.74-6.63-.323-.405-1.044.03-.868.507" fill="#E7590D"/></g></svg>