<svg width="120" height="120" viewBox="0 0 120 120" xmlns="http://www.w3.org/2000/svg"><g fill="none" fill-rule="evenodd"><path d="M114.342 76.16v-2.543H19.5c-7.396 0-13.392 5.996-13.392 13.392 0 7.396 5.996 13.392 13.392 13.392h94.842v-2.544l-9.88-9.97 9.88-11.727" fill="#3BAB48"/><path d="M19.5 97.857c-6.327 0-11.406-5.444-10.8-11.894.53-5.62 5.472-9.803 11.118-9.803h94.524a42.637 42.637 0 0 0 0 21.697H19.5" fill="#CCC7A7"/><path d="M17.467 77.144v.878h96.448c.064-.294.132-.586.202-.878h-96.65M14.37 79.16v.879h99.164c.049-.293.088-.587.142-.878H14.371m-2.658 2.353v.878h101.495c.032-.293.05-.587.087-.878H11.713m-1.594 2.456v.878h102.889c.015-.293.027-.586.048-.879H10.119m102.84 2.408H9.476v.878h103.47c-.001-.293.008-.585.013-.878m.038 2.466H10.12v.878h102.907c-.02-.292-.016-.586-.029-.878m.179 2.457h-102.1v.879H113.26c-.035-.292-.055-.586-.084-.878m.312 2.394H13.484v.878H113.63c-.052-.291-.095-.585-.142-.878m.428 2.301H17.467v.878h96.65c-.07-.292-.138-.585-.201-.878" fill="#DDD8B9"/><path d="M108.468 49.622V47.08H13.626C6.23 47.079.234 53.075.234 60.47c0 7.396 5.996 13.392 13.392 13.392h94.842v-2.544l-9.88-9.97 9.88-11.727" fill="#DF5431"/><path d="M13.626 71.319c-6.327 0-11.406-5.444-10.799-11.894.53-5.62 5.471-9.803 11.117-9.803h94.524a42.637 42.637 0 0 0 0 21.697H13.626" fill="#CCC7A7"/><path d="M11.594 50.606v.878h96.448c.063-.294.131-.586.2-.878H11.595m-3.098 2.017v.878h99.163c.049-.293.088-.587.142-.878H8.497M5.84 54.975v.879h101.494c.032-.293.05-.587.087-.879H5.84m-1.595 2.456v.879h102.889c.015-.293.027-.586.048-.879H4.245m102.84 2.408H3.602v.878h103.47c-.001-.293.008-.586.013-.878m.039 2.466H4.244v.878h102.908c-.02-.293-.016-.586-.028-.878m.179 2.458H5.203v.878h102.185c-.036-.292-.056-.586-.085-.878m.311 2.394H7.61v.878h100.147c-.053-.291-.096-.585-.143-.878m.428 2.301H11.594v.878h96.649c-.07-.292-.138-.585-.201-.878" fill="#DDD8B9"/><path d="M119.909 22.65v-2.544H25.067c-7.396 0-13.392 5.996-13.392 13.392 0 7.396 5.996 13.392 13.392 13.392h94.842v-2.544l-9.88-9.97 9.88-11.726" fill="#AB2531"/><path d="M25.067 44.346c-6.327 0-11.406-5.444-10.799-11.893.53-5.621 5.471-9.803 11.117-9.803h94.524a42.637 42.637 0 0 0 0 21.696H25.067" fill="#CCC7A7"/><path d="M23.034 23.633v.878h96.449c.063-.293.131-.586.2-.878H23.035m-3.097 2.017v.878H119.1c.049-.292.088-.586.142-.878H19.938m-2.658 2.353v.878h101.495c.032-.293.05-.586.088-.878H17.28m-1.594 2.456v.878h102.889c.015-.293.027-.585.048-.878H15.686m102.84 2.407H15.043v.878h103.47c-.001-.293.009-.585.013-.878m.038 2.466H15.686v.878h102.906c-.018-.292-.015-.585-.028-.878m.18 2.458h-102.1v.878h102.184c-.035-.292-.055-.585-.084-.878m.311 2.395H19.051v.878h100.146c-.052-.292-.095-.585-.142-.878m.428 2.3H23.034v.878h96.65a37.2 37.2 0 0 1-.201-.878" fill="#DDD8B9"/></g></svg>