<svg width="120" height="120" viewBox="0 0 120 120" xmlns="http://www.w3.org/2000/svg" xmlns:xlink="http://www.w3.org/1999/xlink"><defs><path id="a" d="M.708.308h51.526v65.351H.708z"/><path id="c" d="M.295.403h40.04v64.56H.295z"/></defs><g fill="none" fill-rule="evenodd"><g transform="matrix(-1 0 0 1 95.593 .595)"><mask id="b" fill="#fff"><use xlink:href="#a"/></mask><path d="M9.182 45.217c-.777.047-1.273.693-1.24 1.615.034.986.633 1.644 1.481 1.631.87-.013 1.458-.742 1.365-1.689-.09-.917-.8-1.606-1.606-1.557m23.85 1.965c.029-.91-.698-1.685-1.636-1.743-.831-.053-1.517.504-1.586 1.285-.081.915.772 1.806 1.769 1.846.836.035 1.423-.528 1.452-1.388m-24.72 8.53c1.266.018 1.89-.554 1.941-1.78.058-1.365-1.245-2.81-2.506-2.783-1.056.023-2.039 1.018-2.05 2.073-.01 1.168 1.358 2.47 2.615 2.49m24.846-.74c0-1.798-.474-2.294-2.209-2.31-1.606-.015-2.684.873-2.721 2.24-.036 1.302 1.028 2.331 2.424 2.344 1.861.018 2.505-.567 2.506-2.273m17.899-26.019c-.658.664-1.245 1.423-1.987 1.972-2.28 1.687-3.364 3.931-3.751 6.72-.469 3.37-.094 6.825-1.108 10.129-.422 1.376-.794 2.77-1.187 4.155-.322.258-.722.46-.953.784-1.72 2.399-3.54 4.674-6.11 6.258-.446.275-.616 1-.915 1.516l-2.027-1.015-.192.267c.29.43.584.86.875 1.29-.64.027-1.128.269-1.335.922-.829-.044-1.383-1.218-2.782-.532l1.463 1.137c-2.621.639-5.23 1.336-7.867 1.899-2.263.481-4.558.809-6.839 1.203l-.029-.149c.132-.657.564-1.327-.102-1.95-1.002-.941-3.276-1.034-4.566-.176-1.214-.569-2.157-1.387-2.524-2.737l.232-.83c-.327.008-.656.005-.982.033-.114.01-.22.092-.332.14l-.447-1.1c.607-.662.42-1.03-.426-1.15-.331-.265-.822-.461-.97-.805a54.239 54.239 0 0 1-3.524-11.768c-.3-1.665-.294-3.386-.428-5.081.201-1.047.36-2.103.61-3.136.97-4.021 2.355-7.87 4.857-11.227.428-.576.797-1.133.535-1.91-.506-1.496-.923-3.023-1.479-4.5C5.241 15.264 2.96 11.61.708 7.943c1.084-.798 2.068-.121 3.023.276.57.237 1.083.668 1.544 1.096a510.435 510.435 0 0 1 6.776 6.405c.715.69 1.289 1.114 2.468.796 1.166-.313 2.504.01 3.766.058.298.01.595.038.874.056.652-2.82.652-2.82 2.39-1.987.265-.48.47-1.018.82-1.435.25-.296.714-.62 1.04-.58.336.04.803.461.887.798.185.732.081 1.688.925 1.941 1.133.342 2.342.479 3.528.564.307.02.762-.42.958-.757.892-1.537 1.835-3.06 2.538-4.685 1.236-2.857 3.412-4.842 5.787-6.665 3.583-2.752 7.69-3.777 12.143-3.46.7.05 1.373.478 2.059.732-3.51 1.79-6.651 4.052-9.202 7.096-2.213 2.642-4.026 5.486-5.079 8.816-1.029 3.258-.785 6.154 1.48 8.889 2.572 3.103 6.253 4.396 10.132 3.289.48-.138.993-.157 1.491-.23" fill="#D3D3D3" mask="url(#b)"/></g><g transform="matrix(-1 0 0 1 82.978 54.73)"><mask id="d" fill="#fff"><use xlink:href="#c"/></mask><path d="M21.139 30.934l-2.115-.149c1.479 1.067 1.35 2.232 1.205 3.504l1.952-1.731c-1.366-1.372.967-2.08.824-3.292l-.456-.35-1.41 2.018zM19.75 7.817c.206-.654.696-.896 1.334-.923 1.046.684 1.81 1.792 3.418 2.379-.503-.875-.806-1.4-1.109-1.924.405-.157.874-.23 1.201-.486 2.032-1.591 4.218-3.011 5.699-5.224.335-.501.933-.828 1.41-1.236.474.522.95 1.043 1.426 1.565.295 1.887.871 3.645 2.323 4.993.174.855.197 1.777.545 2.555 1.764 3.943 3.02 8.031 3.952 12.248.693 3.132.401 6.138-.485 9.16-.298 1.018-.418 2.087-.62 3.132-1.163.312-1.213 1.367-1.506 2.259-1.407 1.616-2.836 3.211-4.196 4.866-.23.28-.271.83-.204 1.224.473 2.807 1.045 5.597 1.488 8.408.394 2.497.776 5.006.95 7.524.154 2.237-.542 3.082-2.752 3.67a8.843 8.843 0 0 1-2.995.261c-1.556-.137-2.015-1.126-1.315-2.524.17-.34.312-.754.592-.966 1.152-.87 1.093-1.936.808-3.2-.612-2.714-1.07-5.464-1.646-8.188-.182-.855-.544-1.672-.823-2.503L21.09 46.37c.196 4.517.336 8.816.583 13.107.156 2.713-1.107 4.485-4.015 5.095-.74.155-1.483.331-2.233.386-1.03.074-1.68-.59-2.036-1.44-.356-.85-.04-1.643.7-2.188.505-.373 1.048-.73 1.629-.96 1.02-.408 1.53-1.048 1.398-2.185-.14-1.191-.2-2.392-.326-3.586-.272-2.58-.563-5.156-.852-7.734-.027-.243-.093-.482-.115-.59-1.875-.53-3.628-1.012-5.373-1.523a6.898 6.898 0 0 1-3.193-1.982C6.05 41.465 4.7 40.283 3.57 38.919c-1.85-2.232-2.32-5.033-2.856-7.773-.438-2.25-.62-4.516-.112-6.792.042-.19-.183-.44-.283-.66.991-1.773.963-3.804 1.424-5.711.024-.106-.22-.276-.34-.416.387-.764.79-1.52 1.155-2.293.287-.606.528-1.235.79-1.853 1.056-.127 2.13-.174 3.165-.396 3.305-.71 6.71-.975 9.893-2.234 1.108-.438 2.25-.794 3.375-1.187.65.588 1.02 1.52 2.278 1.497L19.75 7.817z" fill="#C7C7C7" mask="url(#d)"/></g><path d="M44.537 29.549c.499.074 1.012.094 1.492.23 3.878 1.107 7.559-.185 10.13-3.289 2.267-2.735 2.511-5.63 1.482-8.888-1.052-3.331-2.866-6.175-5.08-8.817-2.55-3.044-5.693-5.305-9.202-7.096-2.927 2.012-4.44 4.819-4.985 8.316a24.917 24.917 0 0 0 .429 9.959c.933 3.762 2.721 7.051 5.734 9.585M94.885 8.537c-2.25 3.667-4.532 7.32-6.058 11.372-.556 1.475-.973 3.004-1.479 4.499-.262.776.107 1.333.536 1.909 2.501 3.358 3.886 7.206 4.856 11.227.25 1.034.409 2.09.61 3.136 1.193-1.3 2.438-2.555 3.567-3.908 2.303-2.76 3.472-5.995 3.7-9.562.17-2.645.281-5.296.375-7.946.105-2.936-.859-5.618-2.202-8.148-.798-1.502-2.064-2.54-3.905-2.58" fill="#E0B0B0"/><path d="M45.64 91.045c-.293-.893-.344-1.947-1.507-2.26-1.867 3.713-5.421 4.745-9.037 5.587-.817.19-1.782.013-2.62-.21-3.238-.867-6.279-2.079-7.994-5.28-.57-1.065-1.238-2.08-1.749-3.169-1.75-3.732-.438-7.373 2.86-9.922 1.135-.876 3.997-.53 5.196.505 1.23 1.062 1.615 3.161.863 4.705-.562 1.152-1.436 1.532-2.868 1.256-.55-.106-1.102-.215-1.657-.292-.099-.015-.217.11-.325.172.141 1.323 1.013 2.211 2.357 2.409 1.643.24 3.051-.396 3.857-1.863 1.425-2.596 1.582-7.278-2.256-9.319-2.31-1.228-4.502-1.066-6.676.203-2.932 1.712-5.575 5.737-4.581 10.483.88 4.21 3.427 7.261 6.546 10.007 2.05 1.806 4.473 2.747 7.061 2.948 1.775.138 3.692-.215 5.394-.796 2.85-.975 5.37-2.595 7.136-5.164m1.885-29.355c1.452-1.347 2.028-3.104 2.324-4.992-3.207-.726-5.701-2.646-8.04-4.822-.418-.389-.787-.833-1.227-1.194-1.09-.896-2.258-.483-2.527.928-.264 1.382.01 2.696 1.06 3.685 1.336 1.255 2.695 2.5 4.15 3.608 1.348 1.026 2.835 1.866 4.26 2.788m34.049 10.606c-.119.14-.363.31-.338.416.46 1.907.432 3.938 1.424 5.71 2.2 1.624 4.807 2.26 7.385 2.874.919.219 2.004-.02 2.952-.274.44-.118 1.02-.77 1.024-1.184.004-.516-.45-1.101-.843-1.533-.276-.3-.766-.429-1.182-.577-3.433-1.212-6.55-3.023-9.58-5.007-.261-.172-.56-.286-.842-.425m-18.377-7.963c1.127.393 2.266.749 3.375 1.186 3.183 1.26 6.589 1.525 9.893 2.235 1.036.222 2.109.27 3.165.396l-.378-1.897c-2.28-.395-4.576-.722-6.838-1.204-2.638-.562-5.247-1.26-7.865-1.899l-1.352 1.183m-11.922-9.201c.477.408 1.073.734 1.41 1.237 1.48 2.212 3.666 3.632 5.698 5.223.326.256.797.328 1.199.486.32-.332.644-.664.966-.996-.298-.517-.468-1.242-.915-1.517-2.57-1.583-4.391-3.859-6.11-6.258-.231-.324-.631-.525-.953-.783l-1.295 2.608" fill="#B8B8B8"/><path d="M83.95 63.978c-1.29-.858-3.564-.765-4.567.176-.665.624-.233 1.293-.102 1.95 2.749.654 3.428.344 4.668-2.126" fill="#656162"/><path d="M87.555 60.585c-.111-.049-.219-.132-.332-.14-.325-.028-.654-.025-.982-.033l.233.83c.63.56 1.287 1.093 1.884 1.688.452.45.828.977 1.39 1.344-.052-1.674-1.41-2.504-2.193-3.69m.873-2.25c-.846.121-1.032.489-.427 1.15l3.78 1.763c-.729-1.743-2.271-2.06-3.353-2.913" fill="#787878"/><path d="M62.437 55.568c0 1.706.644 2.29 2.506 2.274 1.396-.014 2.46-1.043 2.424-2.345-.038-1.368-1.116-2.255-2.722-2.24-1.734.016-2.208.512-2.208 2.31m24.845.739c1.257-.019 2.626-1.322 2.615-2.49-.01-1.055-.995-2.05-2.049-2.073-1.261-.026-2.564 1.42-2.508 2.783.052 1.226.676 1.8 1.942 1.78" fill="#E0B0B0"/><path d="M62.562 47.776c.03.86.617 1.423 1.452 1.389.997-.04 1.85-.931 1.77-1.846-.07-.782-.755-1.337-1.586-1.286-.94.059-1.665.833-1.636 1.743m23.849-1.965c-.805-.048-1.515.64-1.605 1.558-.094.947.494 1.675 1.364 1.689.849.012 1.447-.645 1.481-1.632.034-.922-.463-1.568-1.24-1.615" fill="#464036"/><path d="M63.197 64.334l1.352-1.183 1.46-1.136c-1.399-.686-1.952.488-2.782.532L60.92 65.83c1.256.025 1.627-.909 2.277-1.496" fill="#787878"/><path d="M60.548 61.083l-.966.996c-.301.525-.604 1.05-1.107 1.923 1.607-.586 2.372-1.694 3.418-2.377.29-.43.583-.86.874-1.29-.063-.09-.128-.178-.192-.267l-2.027 1.015" fill="#726D6F"/><path d="M61.84 85.664l-1.41-2.018-.457.35c-.143 1.212 2.19 1.92.824 3.292.63.56 1.21 1.074 1.952 1.73-.146-1.27-.274-2.436 1.205-3.503l-2.115.149" fill="#D7D4D5"/></g></svg>