<svg width="120" height="120" viewBox="0 0 120 120" xmlns="http://www.w3.org/2000/svg" xmlns:xlink="http://www.w3.org/1999/xlink"><defs><path id="a" d="M.003.105h93.658v119.677H.003z"/><path id="c" d="M.021.138h74.411V110.4H.022z"/></defs><g fill="none" fill-rule="evenodd"><path d="M30.008 51.297a10.471 10.471 0 0 0-3.422-5.344c-.969-.801-2.19-1.447-3.435-1.27-.94.133-1.761.723-2.39 1.432a6.746 6.746 0 0 0-1.59 5.456c-1.226-1.725-3.682-2.098-5.762-1.7-2.803.538-5.503 2.421-6.272 5.167-.812 2.896.819 5.47 3.405 6.477-2.269.528-3.93 2.3-4.692 4.462-1.719 4.873-.727 10.895 2.038 15.211 2.936 4.581 7.572 6.398 12.933 6.526.667.016 1.345 0 1.984-.19.663-.198 1.255-.576 1.837-.949 1.324-.848 2.684-1.732 3.566-3.032l1.8-32.246z" fill="#B55E40"/><g transform="translate(22.262 .113)"><mask id="b" fill="#fff"><use xlink:href="#a"/></mask><path d="M25.143 108.149c-1.728-.143-3.391.787-4.46 2.17l.038-.122a7.52 7.52 0 0 0 .385-1.206c.422-1.818.696-3.663.95-5.513 1.109.206 2.252.334 3.41.392.05 2.293 0 4.304-.323 4.279m68.379-54.753a21.593 21.593 0 0 0-.585-4.225c-1.267-5.118-2.335-10.155-4.551-14.981l1.264.68c.167.09.341.182.53.192 1.862.09-.353-6.542-.713-7.47-1.018-2.624-2.48-5.063-4.159-7.317-1.77-2.376-3.771-4.64-6-6.6l-.03-.025c.329-3.206-1.337-6.378-3.118-8.926-1.346-1.926-3.501-4.948-6.172-4.59-2.975.399-5.572 2.927-7.556 4.984-1.342 1.391-2.621 2.877-3.744 4.453-5.028-2.465-23.944 1.1-23.944 1.1-.84-1.256-1.884-2.394-3.012-3.395-1.354-1.201-2.936-2.396-4.662-2.995-1.914-.664-3.165.248-3.738 2.07-.72 2.285-1.797 4.454-2.71 6.698-.82 2.016-2.339 4.473-2.638 6.648-.061.454-7.123 6.608-9.038 16.628 0 0-.678 1.817 2.595.413 0 0-3.243 4.646-3.446 9.018C3.453 53.807.542 63.088.07 72.126c-.306 5.85.437 11.226 2.328 16.741 1.776 5.178 5.288 9.702 4.965 15.446l.065.54c-1 .473-1.9 1.125-2.61 1.95-.59.686-.868 1.592-.977 2.49-.633 5.232 3.234 7.723 7.981 6.915 2.467-.42 6.09-1.834 7.916-4.133-2.37 6.471 4.399 8.207 9.665 7.59 4.778-.559 8.913-1.485 10.003-6.698.937-4.488-.267-8.875 2.556-12.465.193-.091.382-.187.572-.283.102.223.203.448.303.682 1.01 2.365 3.59.213 4.72-.706-.599.958-1.95 2.741-1.604 4.016.823 3.039 8.07-2.177 9.374-2.934.742-.43 1.477-.871 2.208-1.32.302 1.119.497 2.255.555 3.36.15 2.836.573 5.647 1.003 8.45.309 2.012.28 4.817 1.882 6.294 2.057 1.897 7.161 1.702 9.757 1.366 2.928-.38 6.568-2.982 4.819-6.307-.843-1.603-2.73-2.485-4.543-2.459.073-5.03.4-10.001 1.727-14.806 1.22-4.413 2.971-8.647 4.688-12.885.497-.53.991-1.063 1.48-1.6.378 4.483 4.221-1.582 4.221-1.582 2.359-3.56 4.572-7.264 6.111-11.258 1.561-4.053 1.995-8.736 1.144-12.978.574.63 2.194 3.198 3.035 1.534.453-.895.151-2.717.108-3.69" fill="#D3804E" mask="url(#b)"/></g><path d="M38.528 67.846a24.637 24.637 0 0 1 .162-4.586c.307-2.28 1.148-4.236 1.232-6.632.012-.357.006-.762-.258-1.003-.367-.338-.958-.128-1.385.13a9.109 9.109 0 0 0-3.158 3.232 35.72 35.72 0 0 1 3.284-17.11c-1.47-1.123-3.52.177-4.886 1.424a237.401 237.401 0 0 0 2.476-5.181c.396-.856 2.04-3.257 1.801-4.183-.328-1.267-3.1-.882-3.323.283 1.032-5.379 4.545-8.951 7.455-13.286 2.704-4.026 4.725-8.442 4.87-13.394.028-.957 0-1.911-.072-2.863-.5.394-.884.998-1.133 1.787-.719 2.285-1.796 4.454-2.71 6.698-.82 2.016-2.338 4.473-2.637 6.648-.061.454-7.123 6.608-9.038 16.628 0 0-.678 1.817 2.595.413 0 0-4.36 6.241-3.29 11.065.058.26 3.13-1.882 3.248-1.987.158.246.133.472.03.74a30.023 30.023 0 0 0-1.956 11.323c.023 1.046.11 2.126.6 3.05.491.925 1.48 1.658 2.521 1.552 1.038-.107 1.816-.964 2.487-1.762-1.768 2.104-1.44 5.757-1.164 8.282.446 4.071 2.22 8.956 4.839 12.157-.727-2.062-1.065-4.323-1.548-6.456-.52-2.292-.918-4.62-1.042-6.97" fill="#B55E40"/><path d="M81.414 51.942c-.06-.696-.123-1.404-.39-2.05-.418-1.013-1.317-1.783-2.335-2.192-1.018-.409-2.146-.484-3.239-.379-.437.042-.884.116-1.264.337-2.034 1.183-1.39 4.425-1.016 6.291.403 2.015 2.362 3.456 4.37 3.546 2.99.134 4.086-3.1 3.874-5.553" fill="#D4D1A8"/><path d="M49.552 19.377c.161-.145-.379-3.03-.339-3.44.065-.665.213-1.587.875-1.947.885-.482 1.644.395 2.333.899a18.966 18.966 0 0 0-2.479-7.084c-.741-1.252-2.26-4.637-3.896-2.303-.095.136-.176.29-.254.448a5.12 5.12 0 0 0-.199.514c-.719 2.285-1.796 4.454-2.71 6.698-.717 1.764-1.969 3.865-2.471 5.82-.07.28-.129.556-.166.829-.001.01-.01.025-.018.04 2.909 1.327 7.444 1.218 9.324-.474" fill="#B24D4D"/><path d="M43.091 109.947c.874-2.474 1.02-5.447 1.43-7.777.623-3.53 1.424-7.956.465-11.486-.48 3.906-1.098 7.826-1.993 11.66-.743 3.183-1.442 6.985-3.981 9.296-2.445 2.225-5.998 3.72-9.068 1.689-1.21-.802-1.762-2.351-1.738-3.754.022-1.232 1.117-3.178 2.357-3.597a11.697 11.697 0 0 1 6.351-.308c-.284-.374-.738-.575-1.18-.73-3.173-1.114-6.4-.644-8.654 1.976-.59.686-.868 1.592-.977 2.49-.633 5.232 3.234 7.723 7.98 6.915 2.556-.435 5.19-1.441 7.098-3.243.886-.838 1.484-1.925 1.91-3.13M78.096 75.31c.26 1.378 1.916 2.859 2.869 1.086a4.618 4.618 0 0 0 .544-2.345c-.166.576-.46 1.105-.768 1.62-.122.202-.257.414-.472.514-.803.375-1.31-1.036-1.428-1.551-.168-.727-.222-1.49-.23-2.234-.01-.785-.019-1.576.124-2.348-.476 1.563-.918 3.067-1.808 4.461-.605.948-1.541.741-1.86-.293-.348-1.134-.244-2.576-.08-3.731.084-.585.211-1.185.074-1.759-.53 2.044-1.235 4.382-2.396 6.167-.173.265-.434.55-.745.493-.27-.05-.422-.332-.52-.586-.788-2.018-.657-4.269-.376-6.416-.436 1.884-1.973 7.315.835 8.21 1.53.489 2.193-2.61 2.415-3.537-.197.843-.324 4.236 1.3 3.776 1.131-.32 2.03-1.227 2.405-2.308.036.275.071.536.117.78" fill="#B55E40"/><path d="M80.677 44.767c-2.294-.93-5.014-1.009-7.373-.28-3.388 1.048-7.45 6.425-3.933 9.515.873.767 2.113 1.187 3.27 1.142.603-.022 1.208-.169 1.72-.497 1.268-.812 2.467-2.602 2.252-4.178l-.531-3.891a14.69 14.69 0 0 0 .58 3.682c.145.497.32.993.617 1.417.963 1.375 3.314 1.666 4.84 1.36 1.844-.371 2.81-2.471 2.481-4.207-.401-2.125-2.037-3.297-3.923-4.063" fill="#F1EFD1"/><path d="M73.119 48.76c.643-.046.332-1.018-.22-.654-.385.254-.226.685.22.654m1.241 2.551c.644-.046.332-1.017-.22-.654-.385.254-.226.686.22.654m6.662-4.577c.644-.046.333-1.017-.219-.654-.385.254-.226.686.22.654m-2.637 2.844c.644-.046.333-1.017-.219-.654-.386.254-.226.686.22.654m1.876 2.64c.644-.046.332-1.018-.22-.655-.385.255-.226.686.22.655m-8.855 1.881c.643-.046.332-1.018-.22-.654-.385.254-.226.685.22.654m-1.541-3.979c.644-.046.332-1.017-.219-.654-.386.254-.227.686.22.654" fill="#BEBBA4"/><path d="M62.182 48.725a.288.288 0 0 1-.101-.437c3.042-3.9 9.788.622 10.074.817a.29.29 0 0 1 .076.402.3.3 0 0 1-.403.076c-.065-.045-6.58-4.413-9.29-.94a.29.29 0 0 1-.356.082m.166 5.131a.288.288 0 0 1-.139-.373c1.468-3.442 9.313-2.816 9.646-2.787a.29.29 0 1 1-.049.576c-.077-.006-7.76-.62-9.063 2.437a.29.29 0 0 1-.38.153l-.015-.006m1.498 4.172a.29.29 0 0 1-.146-.353c1.261-3.688 7.079-5.425 7.325-5.497a.29.29 0 0 1 .163.556c-.058.016-5.775 1.725-6.94 5.129a.29.29 0 0 1-.402.165M81.57 47.805a.28.28 0 0 1-.102-.087.286.286 0 0 1 .054-.4c.398-.302 6.22-2.874 9.23-.043.116.11.122.292.011.409a.288.288 0 0 1-.409.012c-2.687-2.528-8.087-.198-8.482.084a.297.297 0 0 1-.301.025m.709 2.716a.289.289 0 0 1-.017-.51c.041-.024 4.15-2.343 7.548 1.65a.29.29 0 1 1-.441.375c-3.087-3.63-6.779-1.547-6.816-1.524a.29.29 0 0 1-.273.01m6.697 6.291a.288.288 0 0 1-.137-.144c-1.594-3.652-6.615-4.905-6.665-4.918a.29.29 0 0 1 .137-.562c.216.051 5.352 1.335 7.058 5.249a.288.288 0 0 1-.15.38.288.288 0 0 1-.243-.005" fill="#231F20"/><path d="M78.203 41.277c-2.042-1.12-5.12-.18-5.616 2.253-.15.734-.02 1.545.45 2.13.798.995 3.025 1.364 4.223 1.227.997-.113 1.987-.69 2.365-1.619.264-.65.206-1.386.062-2.073-.065-.31-.15-.623-.32-.891-.26-.412-.675-.759-1.164-1.027" fill="#242424"/><path d="M95.072 14.666c.268-.588.51-1.247 1.145-1.522 1.125-.486 1.61.642 1.734 1.51.009-.328.186-.647.46-.828.952-.632 1.83.915 2.901.08.088-.068.164-.147.234-.231.29-3.176-1.36-6.314-3.124-8.838a44.3 44.3 0 0 0-.772-1.077 13.819 13.819 0 0 0-.765-.761c-1.08-.993-2.236-.95-3.036.308a29.247 29.247 0 0 0-1.95 3.567c-1.262 2.77-2.131 5.924-1.553 8.975-.033-.175.58-.814.68-.946.484-.64.995-1.274 1.578-1.829.357-.34.989-.983 1.55-.88.82.15.889 1.883.918 2.472" fill="#B24D4D"/><g transform="translate(41.49 9.495)"><mask id="d" fill="#fff"><use xlink:href="#c"/></mask><path d="M56.658 104.628l-.01.049c-.17.793-.43 1.603-.996 2.186-1.114 1.147-5.067.715-6.586.535-3.167-.376-5.084-1.844-5.696-5.075-.898-4.736-1.242-9.656-.932-14.472.166-.117.335-.23.5-.348l.216-.159c.449-.326.892-.66 1.331-.998.127-.098.255-.195.38-.294.51-.4 1.014-.805 1.508-1.223 4.7-3.976 9.156-8.29 13.301-12.84.012.139.027.268.045.387.486 3.174 3.196-.806 4.545-2.533 2.218-3.387 4.285-6.91 5.743-10.695 1.56-4.053 1.994-8.735 1.144-12.978.574.63 2.194 3.198 3.035 1.535.453-.896.151-2.717.108-3.69-.064-1.423-.242-2.842-.585-4.225-1.268-5.119-2.335-10.156-4.551-14.982l1.264.68c.167.09.34.182.53.192 1.862.091-.353-6.542-.713-7.47-1.019-2.624-2.48-5.063-4.159-7.316-1.77-2.377-3.772-4.64-6.001-6.6-.01-.01-.019-.017-.029-.025.144-1.4-.093-2.793-.554-4.131-1.084.529-1.894 1.534-1.784 2.717.09.968.735 1.782 1.353 2.533 3.93 4.77 8.167 9.065 9.557 15.284.063.285.11.627-.1.828-.287.274-.754.044-1.074-.19l-1.5-1.1c-.078.042-.063.155-.038.239 1.36 4.486 2.865 8.933 4.102 13.463.737 2.701 1.888 5.303 2.234 8.103.12.962.422 2.788-1.042 2.125-.941-.426-1.718-1.12-2.37-1.91.187 1.361.013 2.693.158 4.012.152 1.387.386 2.754.466 4.15.163 2.832-.04 5.697-.837 8.429a22.078 22.078 0 0 1-3.32 6.814c-.608.834-3.236 4.942-4.444 4.545-.43-.141-.682-.578-.871-.988.129.28-2.194 2.686-2.466 3.008a101.915 101.915 0 0 1-2.742 3.107 79.606 79.606 0 0 1-5.76 5.686c-4.044 3.584-8.528 6.726-13.165 9.494-2.081 1.242-4.248 2.518-6.406 3.5-1.147.523-1.281-.48-.897-1.317.377-.823.89-1.576 1.32-2.37.395-.73.85-1.82 1.517-2.352-1.285 1.022-2.495 1.58-4.021 2.196-2.008.811-2.886-1.306-4.11-2.648-1.393-1.528-2.814-3.036-4.494-4.257-2.37-1.722-4.275-3.581-7.06-4.7a26 26 0 0 0 3.224 2.841c1.037.77 1.87 1.8 2.889 2.62 1.072.862 2.16 1.721 3.044 2.805.051.063.1.128.15.192a14.841 14.841 0 0 1 .756 1.043c.055.083.11.165.164.249.134.21.267.423.396.644.025.043.05.09.074.134.09.157.179.32.267.484-2.034 2.201-3.087 5.232-3.345 8.239-.222 2.574-.617 5.563-2.22 7.713-1.19 1.594-3.109 2.518-5.062 2.901-3.415.67-9.335.357-10.123-4.04-.227-1.265.383-2.67 1.443-3.408.956-.665 2.767-.815 3.924-.956 1.668-.202 3.804.355 5.356.931-.377-.14-.852-.85-1.227-1.098-1.099-.73-2.398-.743-3.623-1.004.213-1.38-.239-2.673-.2-4.051a33.166 33.166 0 0 0-.406-6.18c-.42-2.61-.735-5.04-2.328-7.24.274 1.156.376 2.297.585 3.45a53.145 53.145 0 0 1 .16.951l.04.253c.037.248.073.5.108.754l.034.245c.044.332.087.668.129 1.012.09.74.723 10.801.004 10.744-2.249-.185-4.392 1.442-5.25 3.526-2.803 6.8 4.136 8.62 9.51 7.99 4.777-.558 8.913-1.484 10.002-6.698.984-4.71-.385-9.308 3.014-12.992l.05.106c.124.266.247.538.367.82 1.01 2.365 3.591.213 4.72-.705-.598.958-1.948 2.74-1.603 4.015.823 3.04 8.07-2.177 9.374-2.934.723-.419 1.44-.85 2.153-1.286l.046-.03c.304 1.118.505 2.251.564 3.357.149 2.835.573 5.646 1.003 8.45.308 2.01.279 4.816 1.881 6.293 2.058 1.897 7.162 1.702 9.758 1.366 2.66-.345 5.895-2.527 5.154-5.417" fill="#B55E40" mask="url(#d)"/></g><path d="M81.834 39.733c0 2.886 1.835 5.226 4.099 5.226 2.263 0 4.098-2.34 4.098-5.226 0-2.885-1.835-5.225-4.098-5.225-2.264 0-4.099 2.34-4.099 5.225m-19.528 0c0 2.886 1.835 5.226 4.098 5.226 2.264 0 4.099-2.34 4.099-5.226 0-2.885-1.835-5.225-4.099-5.225-2.263 0-4.098 2.34-4.098 5.225" fill="#242424"/></g></svg>