<svg xmlns="http://www.w3.org/2000/svg" width="108.544" height="102.318" viewBox="1.69 0.396 108.544 102.318"><defs><style/></defs><defs><linearGradient id="grad_1" y2="1"><stop offset="0" stop-color="#CC0"/><stop offset="1" stop-color="#995900"/></linearGradient><linearGradient id="grad_2" y2="1"><stop offset="0" stop-color="#CC0"/><stop offset="1" stop-color="#995900"/></linearGradient><linearGradient id="grad_3" y2="1"><stop offset="0" stop-color="#F99"/><stop offset="1" stop-color="#C00"/></linearGradient><linearGradient id="grad_4" y2="1"><stop offset="0" stop-color="#F99"/><stop offset="1" stop-color="#C00"/></linearGradient><linearGradient id="grad_5" y2="1"><stop offset="0" stop-color="#0F5"/><stop offset="1" stop-color="#062"/></linearGradient><linearGradient id="grad_6" y2="1"><stop offset="0" stop-color="#F99"/><stop offset="1" stop-color="#C00"/></linearGradient><linearGradient id="grad_7" y2="1"><stop offset="0" stop-color="#666"/><stop offset="1"/></linearGradient><linearGradient id="grad_8" y2="1"><stop offset="0" stop-color="#0F5"/><stop offset="1" stop-color="#062"/></linearGradient><linearGradient id="grad_9" y2="1"><stop offset="0" stop-color="#0F5"/><stop offset="1" stop-color="#062"/></linearGradient></defs><g id="ID0.9906059131026268" stroke-width="2"><path id="ID0.57411087770015" fill="#995900" stroke="#995900" d="M311.5 191H329v44.5h-17.5V191z" transform="matrix(.59457 0 0 .4369 -134.1 -6.1)"/><path id="ID0.4764567194506526" fill="url(#grad_1)" stroke="url(#grad_2)" stroke-linecap="round" d="M253 180.5h149.5V198l-33.45 7.5-39.75 8.65L253 198v-17.5z" transform="matrix(.72605 0 0 .4369 -182 -13.25)"/><path id="ID0.5194686623290181" fill="#995900" stroke="#995900" d="M283.5 233H351v14h-67.5v-14z" transform="matrix(.59457 0 0 .4369 -132 -5.2)"/></g><g id="ID0.46222010301426053" stroke-linecap="round"><g id="ID0.2631391347385943"><path id="ID0.5673541482537985" fill="url(#grad_3)" stroke="#900" stroke-width="2" d="M179.25 78.5c14.08-1.769 28.395.319 42.5.5 15.148.195 30.629-1.941 45.5 1 3.705.745.973-2.326 1 8.5.754 43.284.737 86.709 1 130 .224 36.876.48 74.036.5 111 .007 9.24 3.65 4.323-.5 4.5-16.582 1.671-33.316.147-50 0-14.974-.138-29.843 1.521-45-.5-3.789-.505-.503 2.991-.5-6 .012-35.966.393-72.036.5-108 .15-44.656-1.617-89.412 0-134 .421-11.154 1.586-6.375 5-7z" transform="matrix(.0759 0 0 .1946 -8.75 .25)"/><path id="ID0.09529179334640503" fill="#FFF45C" stroke="none" d="M215.25 196c3.688 3.474 7.281 7.769 9.5 12.5 1.655 3.525 2.629 7.585 2.5 11.5-.13 3.248-1.574 6.717-3.5 9.5-1.373 2.079-3.678 5.431-6 4.5-3.427-1.407-4.497-5.283-5.5-8.5-1.191-3.842-1.511-7.936-1-12 .676-4.921 3.407-9.589 4.5-14.5.274-1.231-1.506-3.926-.5-3z" transform="matrix(.32164 0 0 .48441 -61.95 -93.95)"/><path id="ID0.6337189464829862" fill="#FF8C33" stroke="none" d="M218.25 210.5c.691-.203 2.712 5.336 3.5 8 .727 2.387 1.473 4.872 1 7-.561 2.714-1.469 5.997-3.5 7.5-.836.603-1.717-1.453-2-2.5-.31-1.884-.559-3.992-.5-6 .183-1.626.531-3.033.5-4.5.527-3.203.326-9.293 1-9.5z" transform="matrix(.32164 0 0 .48441 -61.9 -93.95)"/></g><g id="ID0.2631391347385943"><path id="ID0.5673541482537985" fill="url(#grad_4)" stroke="#900" stroke-width="2" d="M179.25 78.5c14.08-1.769 28.395.319 42.5.5 15.148.195 30.629-1.941 45.5 1 3.705.745.973-2.326 1 8.5.754 43.284.737 86.709 1 130 .224 36.876.48 74.036.5 111 .007 9.24 3.65 4.323-.5 4.5-16.582 1.671-33.316.147-50 0-14.974-.138-29.843 1.521-45-.5-3.789-.505-.503 2.991-.5-6 .012-35.966.393-72.036.5-108 .15-44.656-1.617-89.412 0-134 .421-11.154 1.586-6.375 5-7z" transform="matrix(.0759 0 0 .1946 7.2 .7)"/><path id="ID0.09529179334640503" fill="#FFF45C" stroke="none" d="M215.25 196c3.688 3.474 7.281 7.769 9.5 12.5 1.655 3.525 2.629 7.585 2.5 11.5-.13 3.248-1.574 6.717-3.5 9.5-1.373 2.079-3.678 5.431-6 4.5-3.427-1.407-4.497-5.283-5.5-8.5-1.191-3.842-1.511-7.936-1-12 .676-4.921 3.407-9.589 4.5-14.5.274-1.231-1.506-3.926-.5-3z" transform="matrix(.32164 0 0 .48441 -45.95 -93.4)"/><path id="ID0.6337189464829862" fill="#FF8C33" stroke="none" d="M218.25 210.5c.691-.203 2.712 5.336 3.5 8 .727 2.387 1.473 4.872 1 7-.561 2.714-1.469 5.997-3.5 7.5-.836.603-1.717-1.453-2-2.5-.31-1.884-.559-3.992-.5-6 .183-1.626.531-3.033.5-4.5.527-3.203.326-9.293 1-9.5z" transform="matrix(.32164 0 0 .48441 -45.9 -93.4)"/></g><g id="ID0.2631391347385943"><path id="ID0.5673541482537985" fill="url(#grad_5)" stroke="#062" stroke-width="2" d="M179.25 78.5c14.08-1.769 28.395.319 42.5.5 15.148.195 30.629-1.941 45.5 1 3.705.745.973-2.326 1 8.5.754 43.284.737 86.709 1 130 .224 36.876.48 74.036.5 111 .007 9.24 3.65 4.323-.5 4.5-16.582 1.671-33.316.147-50 0-14.974-.138-29.843 1.521-45-.5-3.789-.505-.503 2.991-.5-6 .012-35.966.393-72.036.5-108 .15-44.656-1.617-89.412 0-134 .421-11.154 1.586-6.375 5-7z" transform="matrix(.0759 0 0 .1946 87.2 .55)"/><path id="ID0.09529179334640503" fill="#FFF45C" stroke="none" d="M215.25 196c3.688 3.474 7.281 7.769 9.5 12.5 1.655 3.525 2.629 7.585 2.5 11.5-.13 3.248-1.574 6.717-3.5 9.5-1.373 2.079-3.678 5.431-6 4.5-3.427-1.407-4.497-5.283-5.5-8.5-1.191-3.842-1.511-7.936-1-12 .676-4.921 3.407-9.589 4.5-14.5.274-1.231-1.506-3.926-.5-3z" transform="matrix(.32164 0 0 .48441 34 -93.5)"/><path id="ID0.6337189464829862" fill="#FF8C33" stroke="none" d="M218.25 210.5c.691-.203 2.712 5.336 3.5 8 .727 2.387 1.473 4.872 1 7-.561 2.714-1.469 5.997-3.5 7.5-.836.603-1.717-1.453-2-2.5-.31-1.884-.559-3.992-.5-6 .183-1.626.531-3.033.5-4.5.527-3.203.326-9.293 1-9.5z" transform="matrix(.32164 0 0 .48441 34.05 -93.5)"/></g><g id="ID0.2631391347385943"><path id="ID0.5673541482537985" fill="url(#grad_6)" stroke="#900" stroke-width="2" d="M179.25 78.5c14.08-1.769 28.395.319 42.5.5 15.148.195 30.629-1.941 45.5 1 3.705.745.973-2.326 1 8.5.754 43.284.737 86.709 1 130 .224 36.876.48 74.036.5 111 .007 9.24 3.65 4.323-.5 4.5-16.582 1.671-33.316.147-50 0-14.974-.138-29.843 1.521-45-.5-3.789-.505-.503 2.991-.5-6 .012-35.966.393-72.036.5-108 .15-44.656-1.617-89.412 0-134 .421-11.154 1.586-6.375 5-7z" transform="matrix(.0759 0 0 .1946 23.2 0)"/><path id="ID0.09529179334640503" fill="#FFF45C" stroke="none" d="M215.25 196c3.688 3.474 7.281 7.769 9.5 12.5 1.655 3.525 2.629 7.585 2.5 11.5-.13 3.248-1.574 6.717-3.5 9.5-1.373 2.079-3.678 5.431-6 4.5-3.427-1.407-4.497-5.283-5.5-8.5-1.191-3.842-1.511-7.936-1-12 .676-4.921 3.407-9.589 4.5-14.5.274-1.231-1.506-3.926-.5-3z" transform="matrix(.32164 0 0 .48441 -29.95 -94.1)"/><path id="ID0.6337189464829862" fill="#FF8C33" stroke="none" d="M218.25 210.5c.691-.203 2.712 5.336 3.5 8 .727 2.387 1.473 4.872 1 7-.561 2.714-1.469 5.997-3.5 7.5-.836.603-1.717-1.453-2-2.5-.31-1.884-.559-3.992-.5-6 .183-1.626.531-3.033.5-4.5.527-3.203.326-9.293 1-9.5z" transform="matrix(.32164 0 0 .48441 -29.9 -94.1)"/></g><g id="ID0.2631391347385943"><path id="ID0.5673541482537985" fill="url(#grad_7)" stroke="#666" stroke-width="2" d="M179.25 78.5c14.08-1.769 28.395.319 42.5.5 15.148.195 30.629-1.941 45.5 1 3.705.745.973-2.326 1 8.5.754 43.284.737 86.709 1 130 .224 36.876.48 74.036.5 111 .007 9.24 3.65 4.323-.5 4.5-16.582 1.671-33.316.147-50 0-14.974-.138-29.843 1.521-45-.5-3.789-.505-.503 2.991-.5-6 .012-35.966.393-72.036.5-108 .15-44.656-1.617-89.412 0-134 .421-11.154 1.586-6.375 5-7z" transform="matrix(.0759 0 0 .1946 39.1 .9)"/><path id="ID0.09529179334640503" fill="#FFF45C" stroke="none" d="M215.25 196c3.688 3.474 7.281 7.769 9.5 12.5 1.655 3.525 2.629 7.585 2.5 11.5-.13 3.248-1.574 6.717-3.5 9.5-1.373 2.079-3.678 5.431-6 4.5-3.427-1.407-4.497-5.283-5.5-8.5-1.191-3.842-1.511-7.936-1-12 .676-4.921 3.407-9.589 4.5-14.5.274-1.231-1.506-3.926-.5-3z" transform="matrix(.32164 0 0 .48441 -14.05 -93.2)"/><path id="ID0.6337189464829862" fill="#FF8C33" stroke="none" d="M218.25 210.5c.691-.203 2.712 5.336 3.5 8 .727 2.387 1.473 4.872 1 7-.561 2.714-1.469 5.997-3.5 7.5-.836.603-1.717-1.453-2-2.5-.31-1.884-.559-3.992-.5-6 .183-1.626.531-3.033.5-4.5.527-3.203.326-9.293 1-9.5z" transform="matrix(.32164 0 0 .48441 -14 -93.2)"/></g><g id="ID0.2631391347385943"><path id="ID0.5673541482537985" fill="url(#grad_8)" stroke="#062" stroke-width="2" d="M179.25 78.5c14.08-1.769 28.395.319 42.5.5 15.148.195 30.629-1.941 45.5 1 3.705.745.973-2.326 1 8.5.754 43.284.737 86.709 1 130 .224 36.876.48 74.036.5 111 .007 9.24 3.65 4.323-.5 4.5-16.582 1.671-33.316.147-50 0-14.974-.138-29.843 1.521-45-.5-3.789-.505-.503 2.991-.5-6 .012-35.966.393-72.036.5-108 .15-44.656-1.617-89.412 0-134 .421-11.154 1.586-6.375 5-7z" transform="matrix(.0759 0 0 .1946 55.25 .2)"/><path id="ID0.09529179334640503" fill="#FFF45C" stroke="none" d="M215.25 196c3.688 3.474 7.281 7.769 9.5 12.5 1.655 3.525 2.629 7.585 2.5 11.5-.13 3.248-1.574 6.717-3.5 9.5-1.373 2.079-3.678 5.431-6 4.5-3.427-1.407-4.497-5.283-5.5-8.5-1.191-3.842-1.511-7.936-1-12 .676-4.921 3.407-9.589 4.5-14.5.274-1.231-1.506-3.926-.5-3z" transform="matrix(.32164 0 0 .48441 2.05 -93.9)"/><path id="ID0.6337189464829862" fill="#FF8C33" stroke="none" d="M218.25 210.5c.691-.203 2.712 5.336 3.5 8 .727 2.387 1.473 4.872 1 7-.561 2.714-1.469 5.997-3.5 7.5-.836.603-1.717-1.453-2-2.5-.31-1.884-.559-3.992-.5-6 .183-1.626.531-3.033.5-4.5.527-3.203.326-9.293 1-9.5z" transform="matrix(.32164 0 0 .48441 2.15 -93.9)"/></g><g id="ID0.2631391347385943"><path id="ID0.5673541482537985" fill="url(#grad_9)" stroke="#062" stroke-width="2" d="M179.25 78.5c14.08-1.769 28.395.319 42.5.5 15.148.195 30.629-1.941 45.5 1 3.705.745.973-2.326 1 8.5.754 43.284.737 86.709 1 130 .224 36.876.48 74.036.5 111 .007 9.24 3.65 4.323-.5 4.5-16.582 1.671-33.316.147-50 0-14.974-.138-29.843 1.521-45-.5-3.789-.505-.503 2.991-.5-6 .012-35.966.393-72.036.5-108 .15-44.656-1.617-89.412 0-134 .421-11.154 1.586-6.375 5-7z" transform="matrix(.0759 0 0 .1946 71.2 .4)"/><path id="ID0.09529179334640503" fill="#FFF45C" stroke="none" d="M215.25 196c3.688 3.474 7.281 7.769 9.5 12.5 1.655 3.525 2.629 7.585 2.5 11.5-.13 3.248-1.574 6.717-3.5 9.5-1.373 2.079-3.678 5.431-6 4.5-3.427-1.407-4.497-5.283-5.5-8.5-1.191-3.842-1.511-7.936-1-12 .676-4.921 3.407-9.589 4.5-14.5.274-1.231-1.506-3.926-.5-3z" transform="matrix(.32164 0 0 .48441 18 -93.7)"/><path id="ID0.6337189464829862" fill="#FF8C33" stroke="none" d="M218.25 210.5c.691-.203 2.712 5.336 3.5 8 .727 2.387 1.473 4.872 1 7-.561 2.714-1.469 5.997-3.5 7.5-.836.603-1.717-1.453-2-2.5-.31-1.884-.559-3.992-.5-6 .183-1.626.531-3.033.5-4.5.527-3.203.326-9.293 1-9.5z" transform="matrix(.32164 0 0 .48441 18.05 -93.7)"/></g></g></svg>