<svg width="480" height="360" viewBox="0 0 480 360" xmlns="http://www.w3.org/2000/svg"><g fill="none" fill-rule="evenodd"><path fill="#BBE1E5" d="M-.527 359.976h480.445V0H-.527z"/><path fill="#4E7A5C" d="M-.527 319.452h480.445v-106.86H-.527z"/><path d="M480.046 121.976H357c1.876-6.956 7.968-12.256 15.228-12.256 3.132 0 6.028.884 8.488 2.552 4.6-7.54 12.636-12.54 21.752-12.54 2.96 0 5.812.528 8.448 1.512C415.56 90.46 425.84 83 437.764 83c12.788 0 23.7 8.656 27.78 20.72 3.652-1.58 7.648-2.384 11.816-2.384.904 0 1.802.04 2.686.12v20.52M95.166 68.024H-1V23.078A38.078 38.078 0 0 1 8.02 22c16.19 0 29.997 10.22 35.164 24.468 4.623-1.864 9.682-2.815 14.958-2.815 16.655 0 30.954 10.005 37.024 24.371" fill="#F5FAFA"/><path fill="#CB845E" d="M1.903 202.352H482.35v-13.799H1.903zm0 50H482.35v-13.799H1.903z"/><path d="M-3 268.593v-90.4c0-12.371 10.862-22.4 23.234-22.4 12.37 0 22.4 10.029 22.4 22.4v90.4H-3m52.534 0v-90.4c0-12.371 10.723-22.4 23.094-22.4s22.4 10.029 22.4 22.4v90.4H49.534m52.533 0v-90.4c0-12.371 10.584-22.4 22.955-22.4 12.372 0 22.4 10.029 22.4 22.4v90.4h-45.355m52.533 0v-90.4c0-12.371 10.446-22.4 22.817-22.4s22.4 10.029 22.4 22.4v90.4H154.6m157.6 0v-90.4c0-12.371 10.03-22.4 22.4-22.4 12.372 0 22.4 10.029 22.4 22.4v90.4h-44.8m-105.066 0v-90.4c0-12.371 10.306-22.4 22.677-22.4s22.4 10.029 22.4 22.4v90.4h-45.077m52.533 0v-90.4c0-12.371 10.167-22.4 22.539-22.4 12.37 0 22.4 10.029 22.4 22.4v90.4h-44.94m107.334 0v-90.4c0-12.371 10.862-22.4 23.234-22.4 12.37 0 22.4 10.029 22.4 22.4v90.4H367m52.534 0v-90.4c0-12.371 10.723-22.4 23.094-22.4s22.4 10.029 22.4 22.4v90.4h-45.494m52.533 0v-90.4c0-12.371 10.584-22.4 22.955-22.4 12.372 0 22.4 10.029 22.4 22.4v90.4h-45.355" fill="#F1BD80"/><path d="M-1 359.976h481v-92.983H-1z" fill="#8AB346"/><g fill="#708F3D"><path d="M409.33 296.39c0-.27.125-.526.347-.753-.222.227-.347.483-.347.753m.348-.754l.012-.013-.012.013m.017-.017v-.001m.004-.003l.001-.001h-.001m.013-.012l.002-.001-.002.001m.016-.014v-.001m.038-.035l.002-.002-.001.002M384.68 280.93c-1.514 0-2.74-.769-2.74-1.718 0-.948 1.226-1.718 2.74-1.718 1.51 0 2.739.77 2.739 1.718 0 .95-1.228 1.718-2.74 1.718m-54.781 0c-1.513 0-2.74-.77-2.74-1.718s1.226-1.719 2.74-1.719c1.512 0 2.74.77 2.74 1.719 0 .948-1.228 1.718-2.74 1.718m27.39 51.535c-1.513 0-2.74-.769-2.74-1.718 0-.948 1.227-1.718 2.74-1.718 1.512 0 2.74.77 2.74 1.718 0 .95-1.228 1.718-2.74 1.718m54.782.001c-1.514 0-2.74-.77-2.74-1.718s1.226-1.719 2.74-1.719c1.51 0 2.739.77 2.739 1.719 0 .949-1.228 1.718-2.74 1.718m-27.39 17.178c-1.514 0-2.74-.77-2.74-1.718s1.226-1.718 2.74-1.718c1.511 0 2.739.77 2.739 1.718 0 .949-1.228 1.718-2.74 1.718m-54.78 0c-1.514 0-2.74-.77-2.74-1.719 0-.947 1.226-1.718 2.74-1.718 1.51 0 2.74.77 2.74 1.718 0 .95-1.23 1.719-2.74 1.719m54.781-34.357c-1.514 0-2.74-.769-2.74-1.718 0-.948 1.226-1.718 2.74-1.718 1.511 0 2.74.77 2.74 1.718 0 .949-1.229 1.718-2.74 1.718"/><path d="M412.07 298.109c-1.514 0-2.74-.77-2.74-1.719 0-.27.1-.526.278-.753v-.001l.01-.013.004-.004v-.001l.003-.003.001-.001.008-.01.002-.003.001-.001.011-.013v-.001l.031-.035.002-.002c.47-.523 1.363-.877 2.389-.877 1.346 0 2.467.612 2.696 1.415.028.098.043.2.043.303 0 .95-1.228 1.719-2.74 1.719M275.117 280.93c-1.513 0-2.74-.77-2.74-1.72 0-.947 1.227-1.717 2.74-1.717 1.511 0 2.74.77 2.74 1.718 0 .95-1.229 1.718-2.74 1.718m-54.781 0c-1.513 0-2.74-.77-2.74-1.719 0-.947 1.227-1.718 2.74-1.718 1.512 0 2.74.77 2.74 1.718 0 .95-1.228 1.719-2.74 1.719m27.39 51.535c-1.513 0-2.74-.769-2.74-1.718 0-.948 1.227-1.718 2.74-1.718 1.512 0 2.74.77 2.74 1.718 0 .95-1.228 1.718-2.74 1.718m54.781.001c-1.513 0-2.74-.769-2.74-1.719 0-.947 1.227-1.718 2.74-1.718.036 0 .071 0 .106.002 1.463.035 2.634.79 2.634 1.716 0 .95-1.229 1.719-2.74 1.719m-27.39 17.178c-1.514 0-2.74-.769-2.74-1.718 0-.948 1.226-1.718 2.74-1.718 1.511 0 2.739.77 2.739 1.718 0 .949-1.228 1.718-2.74 1.718m-54.78-.001c-1.514 0-2.74-.768-2.74-1.718 0-.948 1.226-1.718 2.74-1.718 1.51 0 2.74.77 2.74 1.718 0 .95-1.23 1.718-2.74 1.718m-54.781-68.714c-1.513 0-2.74-.769-2.74-1.718 0-.948 1.227-1.718 2.74-1.718 1.511 0 2.74.77 2.74 1.718 0 .95-1.229 1.718-2.74 1.718m-54.781 0c-1.514 0-2.74-.769-2.74-1.718 0-.948 1.226-1.718 2.74-1.718 1.511 0 2.74.77 2.74 1.718 0 .95-1.229 1.718-2.74 1.718m27.39 51.536c-1.514 0-2.74-.77-2.74-1.719 0-.947 1.226-1.718 2.74-1.718 1.511 0 2.74.77 2.74 1.718 0 .95-1.229 1.719-2.74 1.719m54.781 0c-1.513 0-2.74-.77-2.74-1.718s1.227-1.718 2.74-1.718c1.511 0 2.74.77 2.74 1.718 0 .949-1.228 1.718-2.74 1.718m-27.391 17.178c-1.513 0-2.739-.769-2.739-1.718 0-.948 1.226-1.718 2.74-1.718 1.51 0 2.739.77 2.739 1.718 0 .95-1.228 1.718-2.74 1.718m-54.78 0c-1.514 0-2.74-.77-2.74-1.718s1.226-1.718 2.74-1.718c1.51 0 2.739.77 2.739 1.718 0 .949-1.228 1.718-2.74 1.718m54.782-34.357c-1.514 0-2.74-.769-2.74-1.718 0-.948 1.226-1.718 2.74-1.718 1.511 0 2.74.77 2.74 1.718 0 .95-1.229 1.718-2.74 1.718m-54.781 0c-1.514 0-2.74-.769-2.74-1.718 0-.948 1.226-1.719 2.74-1.719 1.511 0 2.74.77 2.74 1.719 0 .949-1.229 1.718-2.74 1.718m-27.391 17.178c-1.513 0-2.74-.769-2.74-1.718 0-.948 1.226-1.718 2.74-1.718 1.511 0 2.74.77 2.74 1.718 0 .949-1.229 1.718-2.74 1.718m54.781-34.357c-1.513 0-2.74-.768-2.74-1.718l.002-.055c.047-.922 1.254-1.663 2.738-1.663 1.346 0 2.468.611 2.697 1.414.028.1.043.2.043.304 0 .95-1.228 1.718-2.74 1.718m-54.78 0c-1.514 0-2.74-.769-2.74-1.718 0-.948 1.226-1.718 2.74-1.718 1.51 0 2.739.77 2.739 1.718 0 .95-1.228 1.718-2.74 1.718"/></g><path fill="#79A34C" d="M-.527 273.793h480.445v-6.8H-.527z"/><path d="M261.539 319.345c-60.549 0-109.633-8.156-109.633-18.217 0-10.06 49.084-18.217 109.633-18.217 60.549 0 109.633 8.156 109.633 18.217 0 10.061-49.084 18.217-109.633 18.217m67.359-7.495c-1.514 0-2.74.77-2.74 1.718 0 .95 1.226 1.718 2.74 1.718 1.511 0 2.74-.768 2.74-1.718 0-.948-1.229-1.718-2.74-1.718m-54.78 0c-1.515 0-2.74.77-2.74 1.718 0 .95 1.225 1.718 2.74 1.718 1.51 0 2.738-.769 2.738-1.718 0-.948-1.228-1.718-2.739-1.718m-54.781 0c-1.514 0-2.74.77-2.74 1.718 0 .949 1.226 1.718 2.74 1.718 1.511 0 2.74-.77 2.74-1.718s-1.229-1.719-2.74-1.719m134.213-15.459c0 .95 1.226 1.718 2.74 1.718 1.51 0 2.739-.769 2.739-1.718 0-.948-1.228-1.718-2.74-1.718-1.513 0-2.739.77-2.739 1.718m-54.781 0c0 .949 1.226 1.718 2.74 1.718 1.51 0 2.74-.77 2.74-1.718s-1.23-1.718-2.74-1.718c-1.514 0-2.74.77-2.74 1.718m-54.78 0c0 .948 1.225 1.717 2.738 1.717 1.512 0 2.74-.769 2.74-1.718 0-.947-1.228-1.718-2.74-1.718-1.398 0-2.55.657-2.718 1.505a.936.936 0 0 0-.01.058v.004a.839.839 0 0 0-.01.123v.028m-54.782 0c0 .949 1.226 1.718 2.74 1.718 1.51 0 2.739-.769 2.739-1.718v-.033c-.029-.933-1.246-1.685-2.74-1.685-1.513 0-2.739.77-2.739 1.718" fill="#4C7443"/><path d="M328.898 315.286c-1.514 0-2.74-.768-2.74-1.718 0-.948 1.226-1.718 2.74-1.718 1.511 0 2.74.77 2.74 1.718 0 .95-1.229 1.718-2.74 1.718m27.391-17.178c-1.514 0-2.74-.769-2.74-1.718 0-.948 1.226-1.718 2.74-1.718 1.511 0 2.739.77 2.739 1.718 0 .95-1.228 1.718-2.74 1.718m-82.171 17.178c-1.514 0-2.74-.769-2.74-1.718 0-.948 1.226-1.718 2.74-1.718 1.511 0 2.74.77 2.74 1.718 0 .95-1.229 1.718-2.74 1.718m-54.781 0c-1.514 0-2.74-.77-2.74-1.718s1.226-1.719 2.74-1.719c1.511 0 2.74.77 2.74 1.719 0 .949-1.229 1.718-2.74 1.718m27.391-17.179c-1.514 0-2.74-.769-2.74-1.718v-.028c.001-.041.005-.083.01-.123l.001-.004a.936.936 0 0 1 .01-.058c.168-.848 1.32-1.505 2.718-1.505 1.512 0 2.74.77 2.74 1.718 0 .95-1.228 1.718-2.74 1.718m54.782.001c-1.514 0-2.74-.77-2.74-1.718s1.226-1.718 2.74-1.718c1.51 0 2.74.77 2.74 1.718 0 .949-1.23 1.718-2.74 1.718m-109.562-.001c-1.514 0-2.74-.769-2.74-1.718 0-.948 1.226-1.718 2.74-1.718 1.493 0 2.71.752 2.738 1.685v.033c0 .949-1.227 1.718-2.738 1.718" fill="#486F37"/><path d="M153.182 302.844a4.804 4.804 0 0 1-4.804-4.804v-39.576h9.608v39.576a4.804 4.804 0 0 1-4.804 4.804m217.781 0a4.804 4.804 0 0 1-4.804-4.804v-39.576h9.608v39.576a4.804 4.804 0 0 1-4.804 4.804m-109.424 18.301a6.239 6.239 0 0 1-6.239-6.239v-31.902a6.239 6.239 0 0 1 12.478 0v31.902a6.239 6.239 0 0 1-6.24 6.239" fill="#3A3366"/><path d="M382.678 263.388c0 11.137-54.332 20.165-121.353 20.165-67.021 0-121.352-9.028-121.352-20.165 0-2.327-1.434-9.284 2.933-11.365 16.526-7.872 65.406-8.799 118.42-8.799 53.636 0 103.603 1.27 119.64 9.288 4.003 2 1.712 8.652 1.712 10.876" fill="#43387A"/><path d="M382.891 256.056c0 11.136-54.331 20.164-121.352 20.164s-121.352-9.028-121.352-20.164c0-11.136 54.331-20.164 121.352-20.164s121.352 9.028 121.352 20.164" fill="#FFFFFE"/><path d="M262.539 268.888c-52.847 0-91.481-5.634-107.245-10.973-1.786-.605-1.786-3.113 0-3.717 15.764-5.34 54.398-10.974 107.245-10.974 52.846 0 91.481 5.634 107.245 10.974 1.786.604 1.786 3.112 0 3.717-15.764 5.339-54.399 10.973-107.245 10.973" fill="#DB6261"/><path d="M262.539 264.977c-40.475 0-70.066-3.702-82.14-7.21-1.367-.398-1.367-2.046 0-2.443 12.074-3.51 41.665-7.211 82.14-7.211s70.066 3.702 82.14 7.21c1.367.398 1.367 2.046 0 2.443-12.074 3.509-41.665 7.211-82.14 7.211" fill="#FFFFFE"/><path d="M262.539 260.207c-19.701 0-34.104-1.784-39.98-3.476-.667-.191-.667-.986 0-1.177 5.876-1.692 20.279-3.476 39.98-3.476 19.701 0 34.104 1.784 39.98 3.476.667.191.667.986 0 1.177-5.876 1.692-20.279 3.476-39.98 3.476" fill="#DB6261"/></g></svg>