<svg width="133" height="191" viewBox="-1 -1 133 191" xmlns="http://www.w3.org/2000/svg"><path fill="#65B8E7" d="M56.652 89.344l-.601 5.644v11.638l1.704 12.015.252 3.22 12.186 7.041 2.307.255h.853l13.59-10.744 1.455-5.544.802-12.835-2.043-13.986-1.219-1.619-5.615 1.969-6.82 1.548-9.528.4-6.57-.051-.753 1.049"/><path fill="#EF463C" d="M87.596 111.67l-8.576 1.449-2.407-.724-2.157-.725-3.298 1.149-1.968 1.449-11.835.749.501 6.043 12.337-1.049s1.111 1.299 1.458 1.399c.347.1 2.805-.1 2.955 0 .151.1 4.414-2.148 4.414-2.148l5.416-.621 2.721-.678.439-6.293z"/><path fill="#30419A" d="M71.56 129.694a.325.325 0 0 1 .104-.005c.236.023.541.243.763.335.252.104 1.078.458 1.302.159.111-.15.026-.636-.03-.804-.102-.308-.353-.519-.55-.764-.301-.372-.514-.711-.955-.925-.372-.182-.815-.333-1.235-.298-1.01.083-1.561 1.308-1.498 2.189.022.312.261 1.365.713 1.345.295-.013.752-.643.946-.857.13-.142.254-.336.44-.375z"/><path fill="#FFF" d="M74.857 94.339l-4.313-.5-3.962.5s-2.558 2.697-2.558 2.747c0 .05-.601 4.135-.601 4.135l2.457 3.157 4.062 1.442 4.062.406 3.712-1.257 1.869-2.339v-3.146l-1.117-2.847-3.611-2.298z"/><path fill="#30419A" d="M76.922 93.851c-3.201-1.517-6.498-1.779-9.835-.819-4.276 1.23-5.738 5.376-4.371 8.995 1.017 2.697 4.777 5.805 8.696 5.558 1.462-.186 2.965-.214 4.376-.588 3.54-.939 4.992-3.757 4.911-7.262-.057-2.518-1.236-4.68-3.777-5.884zm1.339 8.717c-.467 1.127-1.343 1.82-2.471 2.168-.863.265-1.761.431-2.652.59-.517.092-1.053.087-1.855.145-2.365-.209-4.689-.995-6.19-3.342-1.559-2.439-.709-5.449 1.911-6.702 3.061-1.465 6.099-1.204 9.011.394 2.17 1.193 3.193 4.459 2.246 6.747z"/><path fill="#30419A" d="M89.787 95.115c-.092-.871-.19-1.742-.293-2.616l-.29-2.484-.147-1.258c-.016-.141-.047-1.18-.142-1.221a.412.412 0 0 0 .037.016l-.539-1.56c-.093-.271-.157-.601-.295-.853-.078-.143-.178-.19-.279-.312-.181-.219-.207-.533-.488-.684-.341-.182-.856-.055-1.167.112-.653.354-.765 1.115-.476 1.727.145.306.19.628.286.953.14.484.346.947.47 1.436.302 1.191.704 2.379.814 3.591.294 3.213.631 6.439.611 9.656-.017 2.676-.649 5.344-.745 8.026-.049 1.361-.663 1.579-1.719 1.675-2.469.225-4.934.5-7.406.703-.306.024-.715-.196-.947-.43-1.108-1.112-2.965-1.477-4.348-.645-1.144.688-2.181 1.552-3.407 2.441-.779-.959-1.966-.441-2.994-.341-2.247.22-4.469.685-6.71.978-1.492.194-1.911-.296-2.035-1.823-.219-2.696-.606-5.38-.765-8.079-.152-2.576-.158-5.164-.123-7.745.024-1.701.249-3.399.354-5.101.028-.469.371-.898.693-1.214.327-.323.825-.471.902-.948a1.424 1.424 0 0 0-.042-.547c-.148-.475-.617-.848-1.071-.997-.375-.124-1.018-.162-1.39.029-.299.153-.572.451-.755.726-.219.331-.163.636-.24 1.003-.058.281-.069.568-.108.852a15.572 15.572 0 0 0-.157 1.641c-.012.478-.145.906-.125 1.392.087 2.054.394 4.097.155 6.15-.06.522-.029 1.058-.048 1.583-.028.768-.024 1.545-.031 2.313-.004.401 0 .803 0 1.204 0 .277-.053.561-.022.837.022.204.117.37.139.573.059.561-.013 1.153-.013 1.715-.001 1.125.11 2.264.684 3.259.199.344.049.885.073 1.334.037.715.048 1.436.136 2.146.148 1.191.357 2.373.52 3.562.051.37-.093.829.08 1.109.279.455.469.962.53 1.493.037.338-.058.713.197.98.378.395 1.147.486 1.667.487 1.294.004 2.542-.287 3.837-.344a209.13 209.13 0 0 0 5.976-.365c.363-.027.715-.201 1.149-.33 1.825 2.303 2.441 2.508 5.141 1.322 1.193-.524 2.204-1.478 3.411-1.947 1.197-.465 2.532-.598 3.816-.819.801-.138 1.618-.147 2.42-.276.347-.055.583-.128.931-.077.386.056.77.04 1.157.039.588-.001 1.077-.152 1.551-.533.314-.251.521-.435.47-.81-.14-1.03-.141-2.021.12-3.043.213-.834.374-1.69.457-2.546.044-.452.087-.905.129-1.357.191-2.055.364-4.112.56-6.168.098-1.027.219-2.053.314-3.08.035-.367-.071-.706-.083-1.075-.015-.497-.042-.994-.06-1.491a33.008 33.008 0 0 0-.117-1.836 183.35 183.35 0 0 0-.21-2.108zm-29.551 25.143c-.458-.034-1.025-.581-1.267-1.035-.343-.647-.444-1.425-.626-2.153-.172-.688.183-1.118.806-1.263 2.119-.496 4.263-.768 6.449-.556.893.087 1.793.112 2.535.157l.317 3.74c-2.673.795-5.403 1.317-8.214 1.11zm13.25.489c-.259.08-.653-.121-.93-.284-1.746-1.025-2.333-3.034-1.826-5.008.509-1.979 2.041-2.583 3.629-3.223.154-.062.378-.016.55.039 1.005.32 2.905 2.876 2.889 3.862-.081 2.882-1.729 3.816-4.312 4.614zm12.824-4.641c-.063.23-.384.484-.635.552-1.626.442-3.26.868-4.91 1.212-.232.05-.761-.333-.815-.587-.215-1.017-.299-2.062-.47-3.404 2.475-.29 4.977-.584 7.531-.882-.23 1.058-.425 2.096-.701 3.109z"/><path fill="#EF463C" d="M90.265 97.761l2.418-9.178-4.566-1.718 2.148 10.896"/><path fill="#65B8E7" d="M93.721 88.354l-2.809 10.032s2.608 1.299 2.809 1.299c.2 0 2.758.349 2.758.349l1.858-.049 1.452-1.299.997-2.098.457-2.748-.457-1.947-2.401-2.046-4.664-1.493z"/><path fill="#30419A" d="M91.436 88.641c.13.064.213.415.173.603a222.574 222.574 0 0 1-.805 3.601c-.116.499-.228 1-.355 1.497-.069.272-.126.526-.383.676-.253.148-.571.153-.832.301a1.763 1.763 0 0 0-.589.56c-.636.951-.566 2.341-.291 3.4.16.619.883 2.423 1.855 1.821.18-.113.187-.335.266-.512.285-.636.719-.874 1.402-.703.434.109.865.242 1.295.357.419.113.788.353 1.217.413.641.091 1.913.798 2.382-.03.151-.265.165-.736-.061-.966-.272-.277-.679-.317-1.013-.485-.346-.174-.639-.377-1.019-.494a76.127 76.127 0 0 1-2.032-.649c-.782-.265-1.028-.772-.806-1.577.538-1.947 1.06-3.898 1.541-5.86.152-.619.508-.809 1.103-.599.759.268 1.533.463 2.327.598.433.073.92.265 1.361.225.7-.064.707-.84.415-1.319-.45-.74-1.602-.862-2.345-1.144-1.189-.451-2.413-.814-3.585-1.302-.945-.393-1.882-.809-2.815-1.228-.481-.217-.965-.425-1.442-.651-.482-.229-.673-.238-1.023.224-.273.359-.269.801-.078 1.211.309.665.99 1.047 1.691 1.18.41.078.72.084 1.114.252.449.191.895.387 1.332.6z"/><path fill="#EF463C" d="M55.057 89.851l-6.26 2.183 4.973 8.504 1.873-.5V89.851h-.586"/><path fill="#65B8E7" d="M48.019 92.317l4.883 9.271-1.423 1.049-2.186.872-1.825.226-1.684-.676-1.627-.773s-1.404-3.146-1.404-3.296c0-.15-.552-1.708-.552-2.128 0-.419.301-2.267.301-2.267l5.517-2.278z"/><path fill="#30419A" d="M54.191 98.796c-.287.043-.543.017-.682-.218a149.515 149.515 0 0 1-3.148-5.551c-.073-.137.275-.689.522-.774a30.235 30.235 0 0 1 2.268-.67c.608-.155 1.183-.224 1.793-.329.99-.17 1.939-.741 1.926-1.851-.007-.585-.278-.657-.809-.653-.597.006-1.159.066-1.689.334-.478.243-.94.514-1.451.686-1.963.663-3.933 1.308-5.902 1.955-.984.323-1.968.647-2.952.973-.413.138-.882.229-1.279.394-.283.117-.557.413-.753.642-.197.229-.471.61-.219.897.492.563 1.81.353 2.364.07 1.132-.576 2.444-.926 3.636-1.37l3.735 7.554c-.821.381-1.592.823-2.416 1.107a60.74 60.74 0 0 1-1.693.552c-.46.144-.917.232-1.292.544-.471.392-1.192 1.331-.342 1.74.283.135.672.148.979.147.413-.002.622-.157.982-.304 1.143-.465 2.447-.697 3.634-1.04.703-.203 1.397-.4 2.078-.651.635-.234 1.394-.085 2.057-.3.488-.159.605-.661.561-1.118-.023-.243-.144-.436-.195-.655-.07-.301.151-.543.165-.844.029-.588.016-1.315-.685-1.481-.283-.067-.771.149-1.193.214z"/><path fill="#65B8E7" d="M101.822 101.225l2.37-8.1-2.708-1.092-2.737-1.498-2.232 1.273s-1.538 2.473-1.576 2.66c-.037.188-.414 2.51-.376 2.623.038.112 1.893 2.947 1.893 2.947l3.712 1.187h1.654z"/><path fill="#FFF" d="M104.192 93.008l-2.219 8.84 10.456 3.109 1.546 3.934 3.532 2.06 5.83-.262 6.996-4.645 1.279-6.006-.978-2.273-2.784-3.921-6.281-4.021-5.68.344-2.67 1.454-1.241 1.504-.151 1.493-.301.637-6.507-2.473-.827.226"/><path fill="#30419A" d="M102.32 92.958c.169.159.392.418.367.539-.441 2.169-.806 4.075-1.224 5.971-.222 1.01-1.026 1.133-1.911.901a19.05 19.05 0 0 1-1.239-.381 9.423 9.423 0 0 0-.986-.275c-.356-.077-.75-.223-1.116-.225-.24-.001-.306-.013-.453.174-.118.153-.245.401-.257.594-.06.999 1.149.906 1.765 1.205.358.174.61.375 1.022.432a9.759 9.759 0 0 1 1.612.335c1.502.467 3.024.824 4.562 1.154 1.003.215 2.018.187 3.039.469 1.081.301 2.594.409 3.242 1.414.412.639.603 1.483 1 2.154.41.696.88 1.356 1.369 1.998 3.206 4.207 10.17 3.483 13.956.437 1.54-1.239 3.21-2.56 4.163-4.219 1.41-2.457 1.637-5.193.47-8.031-1.271-3.09-3.354-5.344-5.972-7.309-1.987-1.49-4.215-1.952-6.552-1.936-2.827.02-5.495.713-7.329 3.096-.513.668-.724 1.565-1.179 2.594-1.125-.565-2.239-1.142-3.37-1.673-1.12-.526-2.381-.629-3.522-1.095-.52-.213-1.044-.591-1.582-.733-.493-.129-.991-.361-1.492-.462-.621-.125-1.211-.447-1.788-.693-.458-.195-1.114-.47-1.522-.039-.698.737.312 1.326.858 1.666.363.225.752.399 1.112.632.405.264.798.549 1.238.756.265.124.528.221.819.263.256.037.533.029.759.174a.935.935 0 0 1 .141.113zm3.138 1.286c1.853.879 3.487 1.617 5.081 2.433.45.231.766.71 1.169 1.046.728.609 1.479.388 2.182-.035.711-.429.461-1.007.279-1.664-.688-2.471-.054-3.738 2.972-4.695 3.597-1.137 6.772.01 9.575 2.431 1.904 1.645 3.299 3.752 3.593 6.089.285 2.27.077 4.831-1.981 6.581-.574.488-1.508.656-1.907 1.226-.474.678-.948.897-1.713 1.074-1.076.251-2.046.951-3.122 1.191-1.726.383-3.468.474-5.186-.31-1.432-.653-2.828-2.82-2.599-4.362.188-1.265-.095-1.636-1.388-1.986-2.842-.769-5.677-1.565-8.775-2.423a5154.71 5154.71 0 0 0 1.82-6.596z"/><path fill="#65B8E7" d="M69.769 129.145l-.601-3.65s-4.214-2.46-4.464-2.553c-.25-.094-6.383-.76-6.383-.76l-2.293 2.414s-3.126 8.292-3.143 8.441c-.017.15-4.681 12.836-4.681 12.836l-.451 3.247 2.457 2.048 6.643 3.996 1.986-.35 5.112-10.938 5.115-11.638.703-3.093z"/><path fill="#30419A" d="M49.827 144.022c.644-1.627 1.187-3.292 1.836-4.917.382-.954.903-1.852 1.326-2.79.262-.583.51-1.182.672-1.796.483-1.839.933-3.686 1.371-5.536.485-2.048 2.081-3.455 3.011-5.233.374-.716.935-1.307 1.676-1.647.297-.137.826-.312.62-.741-.158-.328-.673-.462-.986-.563-.511-.166-1.029-.294-1.566-.232-.217.026-.468.086-.653.206-.257.167-.199.316-.223.589-.063.696-.396 1.388-.76 1.973-1.819 2.929-2.87 6.181-4.111 9.348-1.498 3.821-2.883 7.684-4.314 11.53-.249.667-1.185 2.709-.076 3.162.288.119.58.044.762-.203.144-.196.192-.453.322-.651a4.58 4.58 0 0 0 .376-.751c.246-.581.486-1.162.717-1.748zm18.02-12.687c-1.354 3.379-2.721 6.753-4.152 10.1l-.146.342a638.712 638.712 0 0 1-2.476 5.69c-.417.946-.836 1.891-1.255 2.837-.184.416-.355.839-.538 1.256-.141.317-.349.6-.411.951-.056.323-.061.784.24.967.937.567 1.742-1.406 2.03-1.938.61-1.123 1.309-2.2 1.844-3.363 2.29-4.982 4.493-10.003 6.748-15.001.452-1.002.962-1.976 1.444-2.964.293-.601.75-1.521.182-2.101-1.411-1.441-3.148 2.317-3.51 3.224z"/><path fill="#65B8E7" d="M92.965 126.59l-4.612-6.343-1.454-1.349-2.107.55s-2.358.35-2.608.549c-.25.2-4.162 2.611-4.162 2.611l-4.234 3.982s-.931 1.945-.681 2.248c.25.303 1.855 3.246 1.855 3.246l11.937 17.082s1.605 2.298 1.805 2.498c.2.199 2.204.2 2.205.25.001.049 5.418-2.298 5.418-2.298l4.212-2.847.701-1.992-.762-2.77-7.513-15.417z"/><path fill="#30419A" d="M87.18 119.9c1.047 1.436 2.024 2.92 2.998 4.406.919 1.402 1.352 2.906 2.216 4.328 1.355 2.234 2.941 4.15 3.967 6.579a124.25 124.25 0 0 0 1.994 4.419c.29.616.528 1.449.991 1.952.279.3.976.73 1.312.273.348-.473-.125-.772-.274-1.199-.176-.506-.427-.967-.667-1.454-1.758-3.562-3.378-7.194-5.212-10.716-1.415-2.717-2.992-5.36-4.645-7.943a9.234 9.234 0 0 1-.716-1.337c-.196-.457-.266-.952-.445-1.408-.355-.907-1.743-.526-2.334-.135-.391.259-.531.923-.332 1.345.106.227.293.22.506.333.252.133.472.327.641.557zm-3.243 23.751c-1.843-2.529-3.11-5.457-5.044-7.889-.717-.9-1.483-1.769-2.131-2.72-.737-1.08-1.456-2.173-2.275-3.192-.652-.812-1.517-2.057-2.658-2.126-.318-.02-.594.222-.651.538-.064.348.101.773.277 1.068.366.616.963 1.06 1.449 1.579a22.149 22.149 0 0 1 1.54 1.851c.943 1.257 1.782 2.585 2.666 3.883 1.235 1.814 1.715 4.079 3.376 5.635.357.334.847.555 1.123.938.382.529.561 1.201.928 1.743.821 1.213 1.672 2.408 2.511 3.61.587.841 1.016 1.814 2.226 1.625.436-.069.645-.43.722-.851.198-1.086-1.049-2.203-1.692-2.93-.804-.906-1.651-1.78-2.367-2.762z"/><path fill="#65B8E7" d="M89.738 152.387L102 145.868s-2.558-2.921-4.815-4.645c-2.256-1.723-6.782 3.578-6.782 3.578l-1.493 2.649v4.488l.828.449z"/><path fill="#FFF" d="M121.483 155.184l-6.168.648-5.793 4.346L102 146.633l-13.09 6.353 6.617 12.886 5.72 12.213s1.279 4.495 5.116 3.97c3.836-.524 13.616-4.87 13.616-4.87l7.297-4.195 3.235-6.518-1.806-5.068-2.482-3.848-4.74-2.372z"/><path fill="#30419A" d="M130.562 163.757c-.33-2.324-1.353-4.475-2.888-6.281-.936-1.099-2.003-2.147-3.186-2.966-2.096-1.452-4.48-.711-6.783-.602-3.059.144-5.483 1.526-7.608 3.572-.535.515-.876.459-1.21-.178a250.159 250.159 0 0 0-2.013-3.754c-.307-.56-.702-1.076-.964-1.655a150.051 150.051 0 0 1-1.972-4.614c-.148-.36-.204-.76-.278-1.147-.161-.844.237-1.962-1.145-2.195-.176-.031-.353-.281-.459-.468-.361-.642-.728-1.281-1.09-1.923-.296-.526-.6-1.147-1.121-1.493-.206-.136-.58-.509-.81-.157-.302.464.222 1.293.36 1.734.208.667.499 1.281.792 1.917.389.849.51 1.635-.505 2.208-1.781 1.008-3.517 2.093-5.305 3.086-1.445.802-2.938 1.519-4.414 2.267-.234.118-.488.198-.716.288-.087-.067-.188-.104-.198-.158-.227-1.193-.81-3.016-2.104-3.452-.264-.089-.784-.16-1.003.068-.216.226-.12.742-.118 1.033.008 1.139.843 2.053 1.419 2.971 1.009 1.61 1.759 3.38 2.63 5.076 1.631 3.177 3.296 6.335 4.884 9.532.868 1.746 1.58 3.57 2.414 5.332 1.397 2.954 2.83 5.89 4.261 8.826 1.62 3.326 5.438 2.627 8.377 1.504 2.079-.794 4.47-1.184 6.402-2.296 1.687-.969 3.446-1.664 5.204-2.51 2.681-1.288 5.633-2.774 7.902-4.72.59-.508.845-1.438 1.154-2.216.159-.4-.006-.93.167-1.318.792-1.789.17-3.581-.076-5.311zm-1.897 5.459c-.355.963-1.158 1.787-1.854 2.593-.756.873-1.66 1.476-2.669 2.01-1.378.729-2.83 1.698-4.29 2.223-1.517.546-3.078 1.047-4.608 1.614-1.364.505-2.696 1.138-4.075 1.597-1.623.54-3.29 1.156-4.979 1.46-1.219.219-1.898-.173-2.748-1.042-1.106-1.133-1.711-2.798-2.491-4.163-.83-1.452-1.686-2.89-2.465-4.371-.544-1.034-.798-2.22-1.197-3.331-.441-1.231-.768-2.525-1.376-3.669-1.294-2.434-2.757-4.78-4.108-7.185a12.949 12.949 0 0 1-1.017-2.373c-.073-.228.166-.711.399-.855.93-.576 1.889-1.122 2.885-1.571 2.608-1.174 5.242-2.29 7.666-4.44 1.092 2.192 2.146 4.217 3.117 6.281.826 1.756 1.563 3.556 2.321 5.343.109.256.046.6.189.825.295.467.596 1.017 1.044 1.279.462.269.965.297 1.595-.199 2.004-1.577 3.443-3.936 6.259-4.438 2.111-.376 4.225-.695 6.319-.234.9.199 1.9.765 2.469 1.472 1.424 1.773 3.237 3.354 3.724 5.719.374 1.813.539 3.699-.11 5.455z"/><path fill="#65B8E7" d="M57.02 155.537l-10.281-6.443 2.156-2.098 1.956-1.798s3.651.5 3.907.65c.256.15 2.111 1.316 2.262 1.557.15.242 1.504 2.588 1.504 2.588l.384 2.493-.283 2.653-.703.648-.902-.25z"/><path fill="#FFF" d="M57.522 156.485l-10.783-6.593-5.767 16.283-.753.45-10.431-2.248s-4.513.2-7.221 2.248c-2.709 2.048-3.812 5.294-4.113 6.293-.3.999-.704 6.343 2.558 9.84 3.262 3.497 14.143 5.144 15.447 5.194 1.304.05 6.118 0 7.172-.899 1.053-.899 4.413-7.442 4.413-7.442l4.78-9.34 3.845-8.912s2.157-3.476.853-4.874z"/><path fill="#30419A" d="M58.349 153.688c-.164.373-.396.716-.608 1.093-3.227-2.02-6.397-4.006-9.822-6.152-.025-.015.432-1.012.471-1.103.136-.316.186-.565.235-.898.073-.499.359-1.348-.128-1.739-.808-.648-1.46 1.25-1.629 1.694-.157.414-.71.663-.992 1.052a2.792 2.792 0 0 0-.495 1.125c-.09.533.103 1.14-.076 1.625-.92 2.502-1.923 4.973-2.889 7.458-.094.242-.127.51-.194.762-.524 1.998-.996 4.012-1.593 5.989-.405 1.343-.51 1.25-1.863.758-1.366-.498-2.801-.817-4.222-1.15-.693-.162-1.442-.101-2.129-.28-1.744-.454-3.481-.503-5.233-.099-2.883.663-5.48 1.861-7.338 4.241-.54.691-.872 1.574-1.177 2.412-.77 2.118-1.606 4.251-.999 6.566.773 2.947 1.669 5.438 3.936 7.568 2.066 1.941 5.382 2.473 8.019 3.266 1.685.508 3.383 1.082 5.116 1.296 2.207.274 4.462.135 6.683.323 1.614.138 2.636-.637 3.362-1.853.957-1.601 1.906-3.234 2.613-4.954 1.606-3.9 3.644-7.582 5.495-11.359.522-1.065.898-2.2 1.391-3.28 1.198-2.635 2.434-5.25 3.634-7.882.357-.785.678-1.588.957-2.403.386-1.129.696-2.281 1.076-3.411.168-.501.342-.982.466-1.491.099-.407.29-.907.063-1.309-.293-.515-.851.021-1.151.24-.501.367-.726 1.321-.979 1.895zm-2.703 5.374c-.354.712-.478 1.536-.707 2.309-.075.249-.131.508-.239.743-.925 2.028-1.816 4.072-2.803 6.068-1.595 3.226-3.277 6.41-4.881 9.633-1.004 2.02-1.727 4.158-2.566 6.247-.387.964-.601 1.494-1.522 2.086-1.467.944-2.668.814-4.303.797-1.862-.02-3.732-.08-5.571-.399-1.939-.337-3.868-1.229-5.794-1.734-1.521-.398-3.024-1.069-4.179-2.134-1.39-1.281-2.869-2.518-3.213-4.421-.392-2.167-.936-4.049-.037-6.198 1.47-3.509 3.881-6.064 7.72-6.868 1.209-.253 2.563-.097 3.802.134 1.538.285 3.057.657 4.565 1.069.723.198 1.49.352 2.158.698.557.287 1.016.707 1.628.891 2.846.86 2.954-3.327 3.34-5.113.435-2.018 1.391-4.138 2.156-6.059.689-1.73 1.49-3.415 2.351-5.367 2.196 1.486 4.312 2.918 6.427 4.347.312.211.621.427.944.619 1.332.791 1.415 1.265.724 2.652z"/><path fill="#FFF" d="M70.529 87.808l-7.121.545-6.068-.545-3.887-.65-7.297-3.092-8.579-5.848-5.489-7.792-2.106-6.818-.768-9.665 2.273-6.743 1.955-4.795 4.364-5.169 7.748-5.17 7.339-3.371 6.051-1.648 9.102-.825 10.306 1.424 11.36 3.746 6.845 5.619 4.664 7.068 2.972 6.568.413 5.319-.902 7.567-2.483 6.968-3.535 5.244-4.741 4.645-8.274 4.642-7.597 2.776h-6.545"/><path fill="#FBAE5A" d="M49.867 56.89l-2.407 7.392 1.404 8.891 5.065 9.34 10.833 4.645 12.537-.849 8.827-5.045 5.667-8.641 1.103-11.288-2.654-7.342-3.815-4.345-15.296-4.146s-7.523 1.049-7.623 1.198c-.1.15-7.974 3.996-7.974 3.996l-5.667 6.194z"/><path fill="#79C8A2" d="M51.321 56.99s4.614.05 4.864 0c.251-.05 6.909-2.348 6.909-2.348l4.927-4.245.997-4.296 3.215 2.547 5.367 5.095s7.622 2.098 7.873 2.148c.251.049 4.564-.6 4.564-.6v-2.198l2.056-1.299s3.812-1.997 4.012-2.048c.201-.05 2.608-6.892 2.608-6.892l-4.012-7.193-6.469-4.994-4.614-.549-3.911 1.599-2.608 3.346-.502 3.946.051 3.046 1.554 2.847-.301.799-5.165-.2h-4.414L63.094 46.6l-6.457 2.248-.1-4.345-2.708-6.043-5.066-3.746-4.112-.799-7.372 3.796-4.714 6.243v5.644l2.357 4.346 4.714 3.496s5.717.55 6.068.599c.351.05 5.617-1.049 5.617-1.049z"/><path fill="#EF463C" d="M66.065 14.735s-1.905.25-2.055.3c-.151.049-3.411-.95-3.411-.95S57.74 10.039 57.79 9.89a1246.4 1246.4 0 0 0 1.605-5.944s5.568-2.048 5.818-1.998c.251.05 5.466 1.049 5.466 1.049l2.558 4.745-.652 4.245-2.658 2.248-3.862.5z"/><path fill="#30419A" d="M59.506 89.229c.734.106 1.467.211 2.202.308 1.993.266 4.003.512 6.012.612 1.191.059 2.385.009 3.571-.093a21.63 21.63 0 0 1 1.704-.101c.628-.006 1.254-.143 1.878-.222.458-.058.912-.138 1.369-.199.888-.121 1.687-.437 2.547-.693.89-.264 1.765-.587 2.615-.961a36.624 36.624 0 0 0 3.477-1.728c.607-.349 1.181-.744 1.809-1.056 1.142-.568 2.296-1.115 3.445-1.676.349-.17.701-.267 1.034-.467.343-.207.667-.44.997-.664 1.215-.826 2.319-1.803 3.348-2.847 2.746-2.786 5.822-6.234 7.42-9.842.578-1.305.967-2.675 1.465-4.009.445-1.192.659-2.437.834-3.706.365-2.646.54-5.007.306-7.69-.09-1.027.012-1.994-.311-2.965-.34-1.021-.68-2.058-1.013-3.089-.398-1.229-.835-2.461-1.395-3.627-2.673-5.57-6.657-10.473-12.063-13.626-3.707-2.161-7.821-3.596-12.024-4.437-2.728-.547-5.534-.716-8.31-1.02-.752-.083-1.517-.038-2.273-.087-.615-.04-1.017-.258-1.067-1.011-.158-2.361-.336-4.724-.627-7.071-.121-.978.286-1.098 1.081-1.393 1.676-.622 3.523-1.209 4.807-2.356 1.888-1.686 1.919-4.131 1.675-6.597-.275-2.761-3.968-6.948-7.385-6.724-1.845.121-3.7.616-5.467 1.197-1.475.486-2.849 1.157-3.608 2.831-1.094 2.416-1.224 4.866-.412 7.23.791 2.307 2.242 4.21 5.007 4.686 2.025.348 2.034.485 2.279 2.556.208 1.746.363 3.497.566 5.243.107.918-.197 1.351-1.186 1.225a4.762 4.762 0 0 0-1.45.031c-1.854.343-3.728.627-5.54 1.127-2.542.702-5.037 1.567-7.544 2.388-.386.126-.723.398-1.092.585-.628.318-1.294.573-1.891.942-2.166 1.342-4.389 2.613-6.436 4.119-1.504 1.106-2.831 2.477-4.116 3.843-1.15 1.223-2.439 2.459-3.129 3.938-1.042 2.234-2.271 4.376-3.094 6.705-.698 1.974-1.356 4.117-1.344 6.239.01 1.743.034 3.607.205 5.34.582 5.927 2.265 11.312 6.052 15.969 1.303 1.602 2.753 3.126 4.338 4.447 1.432 1.193 3.187 1.994 4.709 3.092a20.006 20.006 0 0 0 4.668 2.485c1.235.465 2.531.908 3.82 1.194.9.199 1.763.513 2.673.68.826.152 1.616.431 2.447.556.804.119 1.601.269 2.417.389zm21.723-5.823c-1.475.741-3.167 1.556-4.732 2.05-.826.26-1.765.333-2.614.574-1.686.478-3.105.246-4.819.252a27.914 27.914 0 0 1-5.258-.462c-3.454-.648-6.795-2.042-9.458-4.361-2.162-1.884-3.607-4.404-4.483-7.182-.349-1.107-.774-2.199-1.019-3.329-.756-3.49-.49-7.109.962-10.389.513-1.159.926-2.123 2.301-2.21 1.805-.115 3.448-.252 5.229-.648 2.664-.591 5.204-1.683 7.627-2.914.425-.216.863-.473 1.181-.816 1.146-1.233 2.299-2.468 3.333-3.793.433-.554.573-1.334.934-2.23.683.73 1.399 1.419 2.025 2.181 2.406 2.93 5.328 5.238 9.007 6.158 2.496.625 5.153 1.291 7.779.155.228-.099.828.203.991.475 1.737 2.888 1.699 6.111 1.605 9.314-.084 2.875-.716 5.672-2.064 8.215-.762 1.437-1.891 2.687-2.898 3.988-1.557 2.012-3.355 3.831-5.629 4.972zM52.555 56.188c1.511-1.783 2.645-3.533 4.177-4.812 1.522-1.271 3.353-2.306 5.215-3.005 1.879-.706 3.961-.874 5.955-1.277l.244.52c-1.182 2.023-2.104 4.237-4.508 5.298-2.123.936-4.2 1.976-6.327 2.901-1.375.598-2.837.661-4.756.375zm19.454-9.459c1.834-.195 3.401-.15 4.997.218 4.654 1.073 9.114 2.428 11.765 7.114-2.588.665-5.095.712-7.641.141-4.224-.946-6.6-4.084-9.121-7.473zm27.357-1.483c.141-1.042.303-1.237.923-.235.509.823.956 1.683 1.323 2.577 1.261 3.075 1.878 5.734 1.866 9.077-.004.964.063 1.951.002 2.913-.243 3.827-1.805 7.5-3.553 10.832a35.701 35.701 0 0 1-1.726 2.959c-1.165 1.772-2.861 2.934-4.274 4.491-1.056 1.163-2.57 2.348-3.917 3.156-1.654.99-3.387 1.849-5.085 2.767l-.175-.26c.693-.631 1.471-1.193 2.063-1.907 2.237-2.695 4.857-5.007 5.946-8.421 1.091-3.427 1.061-7.084.919-10.638-.121-3.004-1.105-5.739-2.442-8.373-.414-.816-.119-1.116.65-1.22 2.567-.344 4.875-1.752 6.219-3.975.694-1.146 1.082-2.423 1.261-3.743zM89.93 32.965c1.803 1.48 3.577 3.009 5.239 4.642 1.477 1.452 2.117 3.335 2.186 6.188-.201.814-.326 2.476-1.015 3.86-1.242 2.496-3.702 3.261-6.31 3.526-.301.03-.728-.226-.948-.479-2.15-2.467-4.699-4.273-7.911-5.151-.663-.181-1.242-.821-1.756-1.349-1.633-1.677-1.879-3.756-1.729-5.983.249-3.704 2.531-5.626 5.797-6.643 2.369-.738 4.566-.155 6.447 1.389zM64.668 14.062c-.751.205-1.68.228-2.405-.025-2.367-.824-3.688-2.805-3.353-5.663.091-.778.141-1.599.436-2.306.515-1.242 1.349-2.273 2.723-2.697 1.726-.532 3.342-1.243 5.317-.849 2.595.517 4.777 3.794 4.651 6.078-.085 2.941-1.967 4.34-4.363 5.007-.072.02-.181.061-.218.029-1.115-.929-1.862.174-2.788.426zM52.236 29.831c1.923-.735 3.948-1.247 5.965-1.686 1.838-.399 3.722-.593 5.591-.829.735-.092 1.504-.205 2.079.538.128.165.681.24.836.112.78-.642 1.624-.4 2.47-.312 3.293.343 6.59.648 9.875 1.043.882.106 1.731.478 2.688.879-3.165 1.077-5.282 3.248-5.883 6.353-.553 2.854-.809 5.884 1.582 8.624-6.979-.537-13.287.292-19.572 2.822-.102-7.328-3.952-12.042-10.756-14.542l-.18-.393c1.763-.884 3.471-1.91 5.305-2.609zM33.68 43.712c.825-1.258 1.757-2.456 2.734-3.605 2.503-2.949 5.704-4.575 9.479-4.896 4.095.306 6.542 2.805 8.541 5.87 1.432 2.194 1.617 4.797 1.38 7.231-.16 1.642-1.485 3.114-2.865 4.262-.464.386-.98.731-1.358 1.188-2.749 3.325-6.38 3.667-10.303 3.095-2.675-.39-4.476-1.988-5.926-4.131-1.425-2.104-2.453-4.346-2.357-6.933a4.265 4.265 0 0 1 .675-2.081zm15.53 40.843c-2.029-.995-4.182-1.824-6.031-3.087-5.607-3.828-10.265-8.53-11.82-15.401a51.754 51.754 0 0 1-1.246-10.048c-.052-2.009.821-4.04 1.34-6.33 1.843 3.15 3.341 6.147 6.528 7.831 3.139 1.659 6.384 1.822 9.815 1.169-.415 1.864-.945 3.554-1.14 5.28-.275 2.426-.239 4.851.549 7.246.967 2.942 2.037 5.827 3.633 8.489 1.591 2.655 3.819 4.634 6.633 5.949.975.457 1.958.899 2.89 1.624-.313.043-.633.155-.935.118-3.545-.443-6.991-1.26-10.216-2.84z"/><path fill="#30419A" d="M83.217 65.756c-.403.088-.783.285-1.187.362-2.592.491-5.207.876-7.838 1.09-2.148.174-4.429.508-6.566.433-2.113-.075-4.22-.098-6.316-.33-2.596-.287-5.161-.873-7.918-1.364-.84.944-.658 1.774.85 2.204.752.214 1.559.241 2.342.348 2.985.41 5.961 1.03 8.96 1.166 3.041.137 6.102-.248 9.156-.323 3.548-.086 7.023-.517 10.401-1.719.208-1.74-.308-2.211-1.884-1.867zm-8.378-3.53c.389-.013 1.065-.721 1.073-1.123.027-1.201-.803-2.192-1.538-2.133-.93.074-1.104.637-.835 1.478-.235 1.035.152 1.817 1.3 1.778zm-10.199.018c.396-.061.738-.478.936-.616.008-1.211-.816-2.327-1.478-2.18-.394.087-.927.565-.987.934-.152.92.757 1.982 1.529 1.862z"/><path fill="#65B8E7" d="M41.74 104.944l-4.13-8.631 2.065-1.148 2.339-.427 2.332.427s1.868 3.02 1.918 3.17c.051.149.847 2.485.898 2.697.051.212 0 2.285 0 2.285l-2.781 1.336-2.641.291z"/><path fill="#FFF" d="M25.556 130.515l9.83-4.607 2.897 6.44-9.968 4.758-3.129-5.485.37-1.106"/><path fill="#DB6FAB" d="M28.792 137.063l9.491-4.715 2.966 7.748-.645 1.034-8.168 3.862-3.644-7.929"/><path fill="#FCB322" d="M30.461 115.318l4.925 10.59-8.927 4.041-2.185-3.493-3.188-7.846 2.462-1.191 3.408-1.052 3.153-1.609.352.56"/><path fill="#FFF" d="M13.645 97.982l4.238-2.704 5.417-.928 2.973 1.13 2.711 2.348.672 1.604 2.535-1.201 5.419-2.193 3.438 9.74-3.825 1.418-4.043 1.328-1.178 2.886s-1.798 2.715-1.938 2.84c-.14.125-4.594 2.548-4.594 2.548l-3.282.74-4.071-.898-3.599-2.263-2.733-4.422-.86-6.288.721-2.726 1.999-2.959z"/><path fill="#FCB322" d="M11.903 97.91l3.337-1.78 4.48-2.292 1.123-.099-4.52-11.787-2.612-6.464-3.729.78-3.472 1.473-1.548 1.375-.668.886 7.609 17.908"/><path fill="#FCF6B6" d="M4.166 78.56l6.772-2.828 2.319-1.107-9.52-9.314-1.573.889 2.002 12.36"/><path fill="none" d="M30.902 140.23c.369.968.754 1.933 1.197 2.869.47.987.714 1.036 1.77.485 1.387-.729 2.744-1.52 4.156-2.196.673-.321 1.447-.435 2.174-.643l-.173-.597-2.483-6.448-7.531 3.929c.286.84.559 1.732.89 2.601zM16.169 95.109c1.235-.647 2.547-1.144 4.07-1.815-.917-2.232-1.843-4.471-2.755-6.715-.222-.543-.367-1.119-.602-1.656-1.113-2.54-2.247-5.072-3.373-7.606-.18-.407-.285-.912-.932-.719-2.515.751-4.947 1.673-7.001 3.372-.149.123-.279.267-.495.475l7.505 16.844c1.21-.746 2.358-1.538 3.583-2.18zm20.673 2.199c-.003-.034-.009-.065-.013-.099-.291.132-.643.204-.935.329-.24.103-.461.246-.707.337-.575.213-1.14.455-1.71.692a10.12 10.12 0 0 1-1.521.496c-.457.111-.936.144-1.379.304-.813.293-1.623.22-2.32-.313-.553-.422-.714-.968-.981-1.565a2.922 2.922 0 0 0-1.266-1.328c-.522-.273-.829-.541-1.418-.61-.733-.086-1.404-.16-2.142-.045-1.097.169-2.159.564-3.257.734-2.995.464-4.844 2.434-6.412 4.762-1.293 1.917-.777 4.115-.449 6.087.317 1.914 1.265 3.789 2.243 5.508.581 1.02 1.622 1.987 2.689 2.49 2.865 1.351 5.886 1.616 8.89.302 1.372-.6 2.728-1.322 3.761-2.427.47-.503 1.058-1.127 1.311-1.767.301-.76.276-1.596.431-2.389.016-.08.036-.164.058-.249l-.032-.365c.013-.044.014-.09.025-.134.138-.564.812-1.064 1.383-1.078.686-.016 1.377-.284 2.039-.493.538-.171 1.066-.377 1.601-.561.526-.18 1.069-.334 1.59-.524.644-.235 1.22-.543 1.908-.589l-3.034-7.659-.353.154zm-26.11-24.556c-1.196-1.294-2.413-2.567-3.623-3.849-.293-.31-.544-.695-.9-.898-.255-.147-.709-.167-.975-.039-.79.383-1.531.866-2.469 1.412l1.551 8.555 7.761-3.567c-.446-.538-.87-1.099-1.345-1.614zm18.613 61.41c-.584.325-1.044.742-.456 1.6l7.872-3.618-.471-1.5c-1.271.61-2.477 1.162-3.66 1.76a86.267 86.267 0 0 0-3.285 1.758zm2.086-5.673c-1.434.783-2.868 1.562-4.332 2.289-.76.376-.507.85-.259 1.358.235.485.501.812 1.141.466a114.233 114.233 0 0 1 4.685-2.406c.935-.455 1.92-.809 2.989-1.254-.107-.317-.198-.665-.335-.994-.475-1.125-.866-1.248-1.972-.611-.646.373-1.263.796-1.917 1.152zm-9.186-10.297c1.443 3.595 2.846 7.088 4.265 10.617l7.681-3.481-4.569-9.936c-2.237 1.798-4.496 3.03-7.377 2.8z"/><path fill="none" d="M29.345 134.162c-.584.325-1.044.742-.456 1.6l7.872-3.618-.471-1.5c-1.271.61-2.477 1.162-3.66 1.76a86.267 86.267 0 0 0-3.285 1.758zM16.169 95.109c1.235-.647 2.547-1.144 4.07-1.815-.917-2.232-1.843-4.471-2.755-6.715-.222-.543-.367-1.119-.602-1.656-1.113-2.54-2.247-5.072-3.373-7.606-.18-.407-.285-.912-.932-.719-2.515.751-4.947 1.673-7.001 3.372-.149.123-.279.267-.495.475l7.505 16.844c1.21-.746 2.358-1.538 3.583-2.18zm14.733 45.121c.369.968.754 1.933 1.197 2.869.47.987.714 1.036 1.77.485 1.387-.729 2.744-1.52 4.156-2.196.673-.321 1.447-.435 2.174-.643l-.173-.597-2.483-6.448-7.531 3.929c.286.84.559 1.732.89 2.601zm4.285-42.355c-.575.213-1.14.455-1.71.692a10.12 10.12 0 0 1-1.521.496c-.457.111-.936.144-1.379.304-.813.293-1.623.22-2.32-.313-.553-.422-.714-.968-.981-1.565a2.922 2.922 0 0 0-1.266-1.328c-.522-.273-.829-.541-1.418-.61-.733-.086-1.404-.16-2.142-.045-1.097.169-2.159.564-3.257.734-2.995.464-4.844 2.434-6.412 4.762-1.293 1.917-.777 4.115-.449 6.087.317 1.914 1.265 3.789 2.243 5.508.581 1.02 1.622 1.987 2.689 2.49 2.865 1.351 5.886 1.616 8.89.302 1.372-.6 2.728-1.322 3.761-2.427.47-.503 1.058-1.127 1.311-1.767.301-.76.276-1.596.431-2.389.016-.08.036-.164.058-.249l-.032-.365c.013-.044.014-.09.025-.134.138-.564.812-1.064 1.383-1.078.686-.016 1.377-.284 2.039-.493.538-.171 1.066-.377 1.601-.561.526-.18 1.069-.334 1.59-.524.644-.235 1.22-.543 1.908-.589l-3.034-7.659-.353.153c-.003-.034-.009-.065-.013-.099-.291.133-.643.204-.935.329-.24.104-.461.247-.707.338zM10.732 72.752c-1.196-1.294-2.413-2.567-3.623-3.849-.293-.31-.544-.695-.9-.898-.255-.147-.709-.167-.975-.039-.79.383-1.531.866-2.469 1.412l1.551 8.555 7.761-3.567c-.446-.538-.87-1.099-1.345-1.614zm20.699 55.737c-1.434.783-2.868 1.562-4.332 2.289-.76.376-.507.85-.259 1.358.235.485.501.812 1.141.466a114.233 114.233 0 0 1 4.685-2.406c.935-.455 1.92-.809 2.989-1.254-.107-.317-.198-.665-.335-.994-.475-1.125-.866-1.248-1.972-.611-.646.373-1.263.796-1.917 1.152zm-9.186-10.297c1.443 3.595 2.846 7.088 4.265 10.617l7.681-3.481-4.569-9.936c-2.237 1.798-4.496 3.03-7.377 2.8z"/><path fill="none" d="M29.345 134.162c-.584.325-1.044.742-.456 1.6l7.872-3.618-.471-1.5c-1.271.61-2.477 1.162-3.66 1.76a86.267 86.267 0 0 0-3.285 1.758zm1.557 6.068c.369.968.754 1.933 1.197 2.869.47.987.714 1.036 1.77.485 1.387-.729 2.744-1.52 4.156-2.196.673-.321 1.447-.435 2.174-.643l-.173-.597-2.483-6.448-7.531 3.929c.286.84.559 1.732.89 2.601zm-20.17-67.478c-1.196-1.294-2.413-2.567-3.623-3.849-.293-.31-.544-.695-.9-.898-.255-.147-.709-.167-.975-.039-.79.383-1.531.866-2.469 1.412l1.551 8.555 7.761-3.567c-.446-.538-.87-1.099-1.345-1.614zm24.455 25.123c-.575.213-1.14.455-1.71.692a10.12 10.12 0 0 1-1.521.496c-.457.111-.936.144-1.379.304-.813.293-1.623.22-2.32-.313-.553-.422-.714-.968-.981-1.565a2.922 2.922 0 0 0-1.266-1.328c-.522-.273-.829-.541-1.418-.61-.733-.086-1.404-.16-2.142-.045-1.097.169-2.159.564-3.257.734-2.995.464-4.844 2.434-6.412 4.762-1.293 1.917-.777 4.115-.449 6.087.317 1.914 1.265 3.789 2.243 5.508.581 1.02 1.622 1.987 2.689 2.49 2.865 1.351 5.886 1.616 8.89.302 1.372-.6 2.728-1.322 3.761-2.427.47-.503 1.058-1.127 1.311-1.767.301-.76.276-1.596.431-2.389.016-.08.036-.164.058-.249l-.032-.365c.013-.044.014-.09.025-.134.138-.564.812-1.064 1.383-1.078.686-.016 1.377-.284 2.039-.493.538-.171 1.066-.377 1.601-.561.526-.18 1.069-.334 1.59-.524.644-.235 1.22-.543 1.908-.589l-3.034-7.659-.353.153c-.003-.034-.009-.065-.013-.099-.291.133-.643.204-.935.329-.24.104-.461.247-.707.338zm-19.018-2.766c1.235-.647 2.547-1.144 4.07-1.815-.917-2.232-1.843-4.471-2.755-6.715-.222-.543-.367-1.119-.602-1.656-1.113-2.54-2.247-5.072-3.373-7.606-.18-.407-.285-.912-.932-.719-2.515.751-4.947 1.673-7.001 3.372-.149.123-.279.267-.495.475l7.505 16.844c1.21-.746 2.358-1.538 3.583-2.18zm15.262 33.38c-1.434.783-2.868 1.562-4.332 2.289-.76.376-.507.85-.259 1.358.235.485.501.812 1.141.466a114.233 114.233 0 0 1 4.685-2.406c.935-.455 1.92-.809 2.989-1.254-.107-.317-.198-.665-.335-.994-.475-1.125-.866-1.248-1.972-.611-.646.373-1.263.796-1.917 1.152zm-9.186-10.297c1.443 3.595 2.846 7.088 4.265 10.617l7.681-3.481-4.569-9.936c-2.237 1.798-4.496 3.03-7.377 2.8z"/><path fill="none" d="M16.169 95.109c1.235-.647 2.547-1.144 4.07-1.815-.917-2.232-1.843-4.471-2.755-6.715-.222-.543-.367-1.119-.602-1.656-1.113-2.54-2.247-5.072-3.373-7.606-.18-.407-.285-.912-.932-.719-2.515.751-4.947 1.673-7.001 3.372-.149.123-.279.267-.495.475l7.505 16.844c1.21-.746 2.358-1.538 3.583-2.18zm14.733 45.121c.369.968.754 1.933 1.197 2.869.47.987.714 1.036 1.77.485 1.387-.729 2.744-1.52 4.156-2.196.673-.321 1.447-.435 2.174-.643l-.173-.597-2.483-6.448-7.531 3.929c.286.84.559 1.732.89 2.601zm-1.557-6.068c-.584.325-1.044.742-.456 1.6l7.872-3.618-.471-1.5c-1.271.61-2.477 1.162-3.66 1.76a86.267 86.267 0 0 0-3.285 1.758zm7.497-36.854c-.003-.034-.009-.065-.013-.099-.291.132-.643.204-.935.329-.24.103-.461.246-.707.337-.575.213-1.14.455-1.71.692a10.12 10.12 0 0 1-1.521.496c-.457.111-.936.144-1.379.304-.813.293-1.623.22-2.32-.313-.553-.422-.714-.968-.981-1.565a2.922 2.922 0 0 0-1.266-1.328c-.522-.273-.829-.541-1.418-.61-.733-.086-1.404-.16-2.142-.045-1.097.169-2.159.564-3.257.734-2.995.464-4.844 2.434-6.412 4.762-1.293 1.917-.777 4.115-.449 6.087.317 1.914 1.265 3.789 2.243 5.508.581 1.02 1.622 1.987 2.689 2.49 2.865 1.351 5.886 1.616 8.89.302 1.372-.6 2.728-1.322 3.761-2.427.47-.503 1.058-1.127 1.311-1.767.301-.76.276-1.596.431-2.389.016-.08.036-.164.058-.249l-.032-.365c.013-.044.014-.09.025-.134.138-.564.812-1.064 1.383-1.078.686-.016 1.377-.284 2.039-.493.538-.171 1.066-.377 1.601-.561.526-.18 1.069-.334 1.59-.524.644-.235 1.22-.543 1.908-.589l-3.034-7.659-.353.154zm-26.11-24.556c-1.196-1.294-2.413-2.567-3.623-3.849-.293-.31-.544-.695-.9-.898-.255-.147-.709-.167-.975-.039-.79.383-1.531.866-2.469 1.412l1.551 8.555 7.761-3.567c-.446-.538-.87-1.099-1.345-1.614zm20.699 55.737c-1.434.783-2.868 1.562-4.332 2.289-.76.376-.507.85-.259 1.358.235.485.501.812 1.141.466a114.233 114.233 0 0 1 4.685-2.406c.935-.455 1.92-.809 2.989-1.254-.107-.317-.198-.665-.335-.994-.475-1.125-.866-1.248-1.972-.611-.646.373-1.263.796-1.917 1.152zm-9.186-10.297c1.443 3.595 2.846 7.088 4.265 10.617l7.681-3.481-4.569-9.936c-2.237 1.798-4.496 3.03-7.377 2.8z"/><path fill="none" d="M30.902 140.23c.369.968.754 1.933 1.197 2.869.47.987.714 1.036 1.77.485 1.387-.729 2.744-1.52 4.156-2.196.673-.321 1.447-.435 2.174-.643l-.173-.597-2.483-6.448-7.531 3.929c.286.84.559 1.732.89 2.601zM16.169 95.109c1.235-.647 2.547-1.144 4.07-1.815-.917-2.232-1.843-4.471-2.755-6.715-.222-.543-.367-1.119-.602-1.656-1.113-2.54-2.247-5.072-3.373-7.606-.18-.407-.285-.912-.932-.719-2.515.751-4.947 1.673-7.001 3.372-.149.123-.279.267-.495.475l7.505 16.844c1.21-.746 2.358-1.538 3.583-2.18zm-5.437-22.357c-1.196-1.294-2.413-2.567-3.623-3.849-.293-.31-.544-.695-.9-.898-.255-.147-.709-.167-.975-.039-.79.383-1.531.866-2.469 1.412l1.551 8.555 7.761-3.567c-.446-.538-.87-1.099-1.345-1.614zm18.613 61.41c-.584.325-1.044.742-.456 1.6l7.872-3.618-.471-1.5c-1.271.61-2.477 1.162-3.66 1.76a86.267 86.267 0 0 0-3.285 1.758zm7.497-36.854c-.003-.034-.009-.065-.013-.099-.291.132-.643.204-.935.329-.24.103-.461.246-.707.337-.575.213-1.14.455-1.71.692a10.12 10.12 0 0 1-1.521.496c-.457.111-.936.144-1.379.304-.813.293-1.623.22-2.32-.313-.553-.422-.714-.968-.981-1.565a2.922 2.922 0 0 0-1.266-1.328c-.522-.273-.829-.541-1.418-.61-.733-.086-1.404-.16-2.142-.045-1.097.169-2.159.564-3.257.734-2.995.464-4.844 2.434-6.412 4.762-1.293 1.917-.777 4.115-.449 6.087.317 1.914 1.265 3.789 2.243 5.508.581 1.02 1.622 1.987 2.689 2.49 2.865 1.351 5.886 1.616 8.89.302 1.372-.6 2.728-1.322 3.761-2.427.47-.503 1.058-1.127 1.311-1.767.301-.76.276-1.596.431-2.389.016-.08.036-.164.058-.249l-.032-.365c.013-.044.014-.09.025-.134.138-.564.812-1.064 1.383-1.078.686-.016 1.377-.284 2.039-.493.538-.171 1.066-.377 1.601-.561.526-.18 1.069-.334 1.59-.524.644-.235 1.22-.543 1.908-.589l-3.034-7.659-.353.154zm-14.597 20.884c1.443 3.595 2.846 7.088 4.265 10.617l7.681-3.481-4.569-9.936c-2.237 1.798-4.496 3.03-7.377 2.8zm9.186 10.297c-1.434.783-2.868 1.562-4.332 2.289-.76.376-.507.85-.259 1.358.235.485.501.812 1.141.466a114.233 114.233 0 0 1 4.685-2.406c.935-.455 1.92-.809 2.989-1.254-.107-.317-.198-.665-.335-.994-.475-1.125-.866-1.248-1.972-.611-.646.373-1.263.796-1.917 1.152z"/><path fill="#30419A" d="M48.027 102.697c-.738-.179-1.546.12-2.218.332-.96.303-1.917.621-2.853.997a2.538 2.538 0 0 1-.281.092c-.175.005-.353.033-.51.057-.462-.044-.706-.395-.905-.896-.783-1.98-1.509-3.982-2.245-5.98-.074-.199-.066-.427-.1-.672-.013-.092 2.441-.91 2.679-.999.426-.158.924-.278 1.311-.514.309-.189.632-.224.957-.382.344-.167.56-.372.572-.77.011-.36-.164-.809-.531-.874-.033-.005-.065-.01-.098-.013-.959-.114-1.859.31-2.748.607a156.963 156.963 0 0 0-4.371 1.537c-.364.134-.713.257-1.079.386a10.38 10.38 0 0 1-1.545.413c-.464.087-.922.194-1.37.343-.414.138-.773.201-1.19.28-.556.106-1.171.492-1.752.327-.33-.093-.396-.439-.623-.669-.326-.331-.628-.687-.965-1.007a6.946 6.946 0 0 0-2.848-1.636c-1.049-.307-2.153-.384-3.241-.333-.127.006-.256-.018-.508-.039-.587-1.801-1.102-3.658-1.796-5.444-.831-2.136-1.828-4.208-2.731-6.317-.927-2.163-1.762-4.368-2.768-6.493-.467-.988-1.161-1.905-1.895-2.727-2.732-3.059-5.515-6.073-8.298-9.086-.678-.735-1.363-1.497-2.169-2.074-.792-.567-1.407-.161-1.386.86.027 1.337.047 2.687.243 4.006.639 4.298 1.164 8.629 2.121 12.859.565 2.501 1.809 4.859 2.843 7.241.623 1.432 1.451 2.774 2.135 4.18.191.395.12.917.307 1.315.666 1.412 1.454 2.769 2.076 4.198.491 1.131.814 2.335 1.194 3.512.033.103-.022.275-.097.366-1.674 2.022-1.213 4.432-.967 6.664.429 3.887 2.177 7.265 5.057 9.958.635.591 1.586 1.01 2.452 1.162 1.427.249 2.127 1.049 2.656 2.291a347.7 347.7 0 0 0 4.207 9.448c.323.701.325 1.202-.224 1.761-.524.536-.209 1.168.371 1.613.553.426.926 1.119 1.292 1.743.513.876.99 1.779 1.406 2.705 1.092 2.441 2.141 4.902 3.213 7.353.25.569.462 1.166.797 1.683.429.665 1.122.546 1.68.237 2.303-1.273 4.623-2.529 6.841-3.94.908-.577 2.077-1.315 1.648-2.705-.375-1.21-1.049-2.324-1.499-3.514-.493-1.3-.881-2.641-1.316-3.962-.061-.188-.06-.43-.182-.556-1.243-1.3-1.414-3.093-2.155-4.621-1.061-2.19-2.063-4.408-3.072-6.624-.8-1.756-1.589-3.516-2.335-5.294-.087-.211.033-.646.212-.807.637-.57 1.001-1.336 1.306-2.118.242-.618.596-1.297.792-1.954.035-.117.065-.232.088-.347.024-.118-.017-.322.027-.424.046-.109.057-.121.112-.134.031-.006.074-.012.144-.034.252-.075.489-.192.742-.263.284-.081.56-.166.837-.266.487-.175.974-.356 1.463-.531.889-.318 1.765-.458 2.689-.634.674-.129 1.366-.422 1.987-.683.405-.169.893-.24 1.255-.478a4.82 4.82 0 0 0 1.475-.832c.074-.061.223-.024.332-.055 1.256-.353 3.542-.609 3.875-2.187.09-.43-.136-.544-.523-.638zM2.767 69.379c.937-.547 1.678-1.03 2.468-1.412.266-.128.72-.108.976.038.355.204.606.588.899.899 1.21 1.281 2.427 2.554 3.623 3.849.475.514.899 1.075 1.346 1.615l-7.762 3.566c-.529-2.914-1.06-5.847-1.55-8.555zm2.312 11.066c.216-.209.347-.353.496-.476 2.053-1.699 4.485-2.62 7-3.371.648-.194.752.311.933.718 1.125 2.535 2.259 5.067 3.372 7.606.235.537.381 1.112.602 1.657.912 2.244 1.838 4.482 2.755 6.714-1.523.671-2.835 1.168-4.07 1.815-1.225.642-2.372 1.434-3.584 2.18L5.079 80.445zm34.947 59.703l.173.597c-.727.208-1.501.322-2.174.643-1.412.676-2.769 1.467-4.156 2.196-1.056.552-1.3.502-1.77-.485a39.974 39.974 0 0 1-1.197-2.869c-.331-.869-.604-1.761-.89-2.601l7.531-3.929 2.483 6.448zm-3.265-8.004l-7.872 3.618c-.588-.858-.128-1.275.456-1.6a87.731 87.731 0 0 1 3.285-1.759c1.183-.598 2.389-1.15 3.66-1.759l.471 1.5zm-1.441-4.196c.138.329.229.677.335.994-1.068.445-2.053.799-2.989 1.254-1.58.765-3.141 1.569-4.684 2.406-.641.346-.906.018-1.142-.466-.248-.508-.501-.982.26-1.358 1.463-.727 2.897-1.507 4.332-2.289.654-.356 1.271-.779 1.918-1.152 1.105-.637 1.496-.514 1.97.611zm-1.129-2.62l-7.681 3.481-4.265-10.617c2.881.23 5.14-1.002 7.377-2.8l4.569 9.936zm4.129-19.924c-.52.189-1.064.344-1.59.523-.535.184-1.063.389-1.601.561-.662.21-1.352.477-2.039.494-.571.012-1.245.513-1.382 1.077-.011.044-.012.09-.026.135l.033.365a4.41 4.41 0 0 0-.059.248c-.154.793-.13 1.629-.43 2.389-.254.641-.841 1.265-1.311 1.767-1.033 1.105-2.389 1.827-3.762 2.427-3.004 1.314-6.025 1.049-8.89-.302-1.066-.503-2.108-1.47-2.688-2.49-.978-1.719-1.926-3.593-2.244-5.508-.327-1.972-.844-4.17.449-6.087 1.568-2.328 3.418-4.297 6.412-4.761 1.098-.171 2.16-.566 3.257-.735.739-.115 1.41-.04 2.142.045.589.069.896.337 1.418.61a2.914 2.914 0 0 1 1.266 1.329c.267.597.428 1.142.982 1.565.697.532 1.506.606 2.32.312.509-.185 1.067-.176 1.561-.407.481-.225.973-.431 1.481-.589.39-.122.776-.26 1.164-.388a11.08 11.08 0 0 0 1.336-.523c.227-.108.806-.416 1.052-.284.209.112.355.814.441 1.032l.884 2.232.886 2.238c.08.202.739 2.143.847 2.136-.688.046-1.264.353-1.909.589z"/></svg>