<svg width="157" height="122" viewBox="0 0 157 122" xmlns="http://www.w3.org/2000/svg"><g fill="none"><path d="M117.797 70.073c4.602 3.801 9.62 7.303 13.272 9.983v3.126c-4.537-1.86-10.995-5.167-17.016-8.804-11.869-7.188-15.504-14.679-13.556-19.08 1.948-4.4 11.083 9.64 17.3 14.775z" fill="#006482"/><path d="M47.577 105.927s4.17 4.504 3.644 4.883c-.525.38-1.447-.85-2.104-1.37a3.21 3.21 0 0 0-1.022-.614l-.518-2.9z" fill="#008264"/><path d="M47.758 112.966c.645.08-.325-3.909.862-2.535.232.267 0 2.66.881 2.496a83.078 83.078 0 0 1 .578-21.48c.489-3.098 1.687-7.159 4.81-16.61 3.122-9.452-.26-8.545-2.209-6.473-1.948 2.072-4.125 10.721-4.874 13.245a46.986 46.986 0 0 0-1.603 8.074c-.401 3.502-.778 6.92-.886 10.458a63.153 63.153 0 0 0 .036 5.227c.048.914.108 6.62 1.022 7.127.333-1.561-.289-2.711.329-2.671.617.04.412 3.063 1.054 3.142z" fill="#00A08C"/><path d="M73.123 96.603c-.721 4.432-1.844 10.182-2.289 11.951-.376 1.502-.825 3.007-1.23 4.5-.433 1.598-1.604 3.195-1.664 4.888.766.223 2.53-.232 2.53-.232s.629.583.16.799c-.553.263-2.265.172-2.918.18-.57 0-2.077-.1-2.077-.1s-2.176-26.39 3.28-27.293c5.455-.902 4.208 5.307 4.208 5.307zm22.604 0c-1.944 5.167-4.065 10.665-4.702 12.21-1.203 2.912-3.207 5.703-4.065 8.714.53.2 2.866-.152 2.898.43.06 1.051-2.34.448-2.85.44-1.082 0-2.765.56-3.126-.267-.273-.631 3.167-14.839 4.57-21.531 0 0-.45-4.66 5.006-5.439 5.456-.778 2.269 5.443 2.269 5.443z" fill="#006482"/><path fill="#828278" d="M96.428 27.767l3.079 12.558 2.365-.12-5.267-15.737z"/><path d="M61.058 69.458l-3.291 31.433s17.469-.211 20.844-.447c-1.515-3.593-3.303-31.146-3.303-31.146l-14.25.16z" fill="#008264"/><path d="M52.251 36.879c1.46 0 13.962-.491 13.962-.491l8.478 17.629c.493 1.493-16.928 46.874-16.928 46.874s-8.61-41.483-9.62-46.634c-.513-2.624-.902-5.271-1.395-7.895-.55-2.915-1.712-6.077-1.712-9.052 2.189-.775 4.93-.44 7.215-.431z" fill="#00A08C"/><path d="M57.911 46.89l8.306-10.502 17.505-.26 3.154 6.361-8.25 57.955-2.216-3.761a48.997 48.997 0 0 1-2.072-3.993c-1.139-2.452-2.405-4.832-3.52-7.304-1.964-4.392-4.076-8.808-5.736-13.32-1.868-5.096-3.904-10.175-5.5-15.362-.729-2.368-1.779-4.735-2.272-7.163-.249-1.218-.156-1.581.601-2.652z" fill="#78C8C8"/><path d="M60.256 50.128c0 1.11.637 1.996 1.423 1.996s1.423-.898 1.423-1.996a2.31 2.31 0 0 0-.633-1.67 1.149 1.149 0 0 0-.802-.335c-.4 0-.954.555-1.202.919-.249.363-.209.53-.209 1.086z" fill="#281446"/><path d="M57.975 15.248a161.606 161.606 0 0 1 17.85-.067c4.41.211 16.034-1.079 18.651 3.382 1.443 2.447 2.145 5.498 2.806 8.23.637 2.623 1.788 5.39 2.113 8.057-1.945-.22-2.005-3.494-2.494-5.15-.705-2.397-1.222-4.832-1.844-7.264-.505-1.997-1.038-4.532-3.062-5.427-1.948-.866-5.07-.479-7.167-.579-8.17-.399-18.631 0-26.793.076-1.43 0-3.278.132-3.727 1.94-.337 1.367 2.641 13.885 3.523 18.201.4 1.873.497 3.79.886 5.646.228 1.098.549 2.18.802 3.27.18.731.276 2.972.777 3.575.112.131.934.343 1.547.598.087.334.064.687-.068 1.007l-.208.06c-1.603.43-2.301-1.027-2.71-2.213-2.313-6.74-5.584-27.552-5.636-28.941-.088-3.147 1.948-4.229 4.754-4.4z" fill="#828278"/><path d="M83.718 36.128l33.935.092s-1.359 5.43-1.672 6.736c-.721 2.987-1.603 5.946-2.164 8.965-1.203 6.289-3.239 12.514-4.81 18.627-1.572 6.114-3.516 12.131-5.05 18.245-.662 2.631-2.98 10.617-2.98 10.617s-4.172.324-5.49.435c-3.06.264-6.073.46-9.14.535-1.627.04-3.255.116-4.878.104-1.624-.012-2.85-.04-2.85-.04l5.099-64.316z" fill="#00A0B4"/><path fill="#828278" d="M131.081 113.681l2.37 3.798-.133 1.381-7.195-.096-.245-1.285z"/><path d="M132.861 79.96l.044.044c.34.363 2.978 2.591 1.668 5.894-1.42 3.573-2.963 3.993-2.963 3.993l1.251-9.931z" fill="#006482"/><path d="M133.45 117.479h-7.572s2.109-62.092 2.405-68.357c.113-2.54.37-5.068.493-7.615.069-1.398-.22-4.393.401-6.046h2.806c.57 1.33.473 3.518.581 4.676.26 2.795.253 5.642.43 8.45.372 5.61.456 68.892.456 68.892z" fill="#C8C8BE"/><path d="M123.189 4.136c.505 5.247.449 22.62 1.459 24.421.509.907 1.439.088 1.439.088s1.41-22.437 1.687-24.51h1.159c.348 2.2.048 20.15.228 21.779.084.77 1.034 3.662 2.682 1.945.826-.859.802-18.556 1.307-23.723h.617c.545 5.338-.481 24.162 2.084 24.198 2.566.036 1.72-18.971 2.321-24.198h.553c.361 3.781.706 14.842 1.079 20.664.4 6.013 0 16.036-8.867 16.523-8.867.487-9.777-9.324-9.777-13.48 0-2.368.566-18.648 1.283-23.707h.746z" fill="#C8C8BE"/><path d="M130.64 38.504c-3.162 0-4.974-1.122-5.046-2.12-.044-.595.83-2.284 5.255-2.189 4.425.096 4.862.919 5.006 1.458.305 1.142-2.052 2.851-5.215 2.851z" fill="#828278"/></g></svg>