<svg width="120" height="120" viewBox="0 0 120 120" xmlns="http://www.w3.org/2000/svg"><g fill="none" fill-rule="evenodd"><path d="M64.508 79.56h-.013.013zm.117 0h-.022.022zm.174-.002h-.033.033zm.215-.001h-.04.04zm.226-.002h-.055.055zm.304-.003h-.08.08zm.33-.004h-.084.083zm.318-.004h-.087.087zm.422-.005h-.125.125zm.43-.007c-.036 0-.073 0-.109.002l.11-.002zm.422-.007c-.058 0-.114.002-.17.003l.17-.003zm.51-.01a536.555 536.555 0 0 0 0 0zm.503-.011a11.054 11.054 0 0 1 0 0zm.52-.011l-.19.005.19-.005zm.605-.015l-.2.005.2-.005zm.627-.017l-.33.009.33-.01zm.546-.014l-.248.007.248-.007zm.677-.021l-.23.007.23-.007zm.618-.02a13.275 13.275 0 0 1 0 0zm.686-.024l-.268.01.268-.01zm.743-.026a31.001 31.001 0 0 0 0 0zm.615-.025l-.264.01.264-.01zm.793-.032a25.086 25.086 0 0 1 0 0zm.792-.035c-.123.006-.247.01-.369.017l.37-.017zm.668-.031a26.836 26.836 0 0 1 0 0zm.832-.041l-.285.014.285-.014zm.81-.042l-.373.02.373-.02zm.722-.04c-.096.006-.19.012-.287.016.096-.004.191-.01.287-.015zm.876-.05l-.3.018.3-.018zm.811-.05l-.385.024.385-.024zm.77-.05l-.289.019c.095-.006.192-.012.29-.02zm.888-.06a13.095 13.095 0 0 1 0 0zm.785-.057l-.336.025.336-.025zm.837-.063l-.287.022.287-.022zm.882-.071a22.776 22.776 0 0 1 0 0zm.738-.061l-.24.02.24-.02zm.91-.08l-.27.024.27-.024zm17.54-3.334l.128-.058c-.042.02-.086.039-.129.058zm-.45.19l.145-.06-.146.06zm-.46.18a9.56 9.56 0 0 1 0 0zm-.583.208l.105-.036-.105.036zm-.574.186c.06-.017.117-.036.173-.054-.056.018-.114.037-.173.054zm-.543.166l.177-.053-.177.053zm-.549.156l.092-.027-.092.027zm9.992-5.367c-.149.12-.296.24-.45.362.154-.122.301-.242.45-.362zm.804-.673a30.064 30.064 0 0 1 0 0zm.664-.587a36.58 36.58 0 0 1 0 0zm0-.001a62.008 62.008 0 0 0 0 0zm4.532-5.525l.315.064-.315-.064zm-1.026-.196a22.32 22.32 0 0 1 0 0zm-.993-.167c.13.02.26.04.39.063l-.39-.063zm2.77-1.02a41.403 41.403 0 0 1 0 0zM85.23 44.897l.217-.86-.33 1.307.113-.447zm-17.016-4.198c.004-.02.01-.036.015-.054l-.015.054zm-.012.196a.75.75 0 0 1 0 0zm.12.356a.853.853 0 0 0 0 0zm-.12-.355a.79.79 0 0 0 0 0zm.314.605l-.048-.048.048.048zm.147.137l-.05-.043.05.043zm-.775 10.69a.734.734 0 0 0 0 0zm-9.72.793c3.1-1.121 5.566-2.001 9.238-.908-3.672-1.093-6.139-.213-9.238.908zM45.27 55.303l.252.013-.252-.013zm-1.004-.068h.021-.02zm-1.279-.135a11.406 11.406 0 0 0 0 0zM23.78 49.507a1.2 1.2 0 0 1 0 0zm-.664.016a1.269 1.269 0 0 1 0 0zm-.013.005a1.38 1.38 0 0 0 0 0zm-.227.098a1.268 1.268 0 0 0 0 0zM20.91 59.32a22.997 22.997 0 0 0 0 0zm-.506.337a25.654 25.654 0 0 0 0 0zm-.51.319c.09-.056.18-.111.271-.17-.09.059-.18.114-.272.17zm-.508.298c.082-.047.163-.093.244-.141-.08.048-.162.094-.244.14zm-1.247.66c.05-.023.098-.05.146-.073-.048.024-.097.05-.146.073zm-.5.236l.134-.061-.134.06zm-.429.193a.373.373 0 0 0 0 0zm-9.75 2.235l.073-.005-.073.005zm-.657.035l.161-.007-.16.007zm-.575.022a10.64 10.64 0 0 0 0 0zm-.54.012l.156-.003-.156.003zm15.88-4.822a20.492 20.492 0 0 0 0 0zM9.5 63.407a1.82 1.82 0 0 1 0 0zm.646-.087a.314.314 0 0 0 0 0zm2.792-.536h-.003.003zm2.882-.868l.003-.001s-.002 0-.003.002v-.001zm-6.983 1.566l-.057.007.057-.007zM94.88 77.515a15.783 15.783 0 0 1 0 0zm-.752.118a23.773 23.773 0 0 0 0 0zm-.72.108c.094-.014.188-.03.282-.042l-.283.042zm-.795.112a159.974 159.974 0 0 1 0 0zm-.915.12c.1-.012.201-.024.3-.038-.099.014-.2.026-.3.039zm-.757.097l.318-.04-.318.04zm-.75.09a28.843 28.843 0 0 1 0 0zm-.984.11l.287-.031-.287.03zm-.803.086l.34-.035-.34.035zm-.766.078l.343-.034-.343.034zm-.762.074a30.75 30.75 0 0 0 0 0zm12.993-1.995l.177-.044-.177.044zm-.63.154l.214-.051-.215.05zm-.619.14l.198-.043-.198.044zm-.717.155a1.846 1.846 0 0 0 0 0zm-.773.155l.233-.045-.233.045zm-.682.129l.25-.047c-.084.015-.166.03-.25.047zm-.674.12l.198-.035c-.067.01-.132.023-.198.035zm17.185-13.784c-.113-.013-.226-.028-.34-.04.114.012.227.027.34.04zm1.026.133l-.385-.053.385.053zm-3.71-.368c.137.008.275.015.414.025-.139-.01-.277-.017-.415-.025zm-1.015-.048c.153.006.307.01.46.019-.153-.008-.307-.013-.46-.02zm-.986-.024a38.463 38.463 0 0 1 0 0zm3.138.152c.083.007.166.012.25.02-.084-.008-.167-.013-.25-.02zm5.19-.798h0zm-1.153-.21c.004 0 .007 0 .011.002l-.01-.002zm-1.162-.18a.368.368 0 0 1 0 0zm-1.157-.151l.044.005-.044-.005zM87.741 67.22a18.385 18.385 0 0 0 0 0zm-58.1-15.464l-.154-.054.154.054zm.98.339l-.023-.008.023.008zm1.125.372l-.188-.061.188.06zm1.036.33c-.013-.005-.027-.008-.04-.012.013.004.027.007.04.012zm1.176.355l-.216-.064c.072.02.144.042.216.064zm1.073.307c-.016-.004-.034-.01-.05-.013l.05.013zm1.215.326l-.239-.063.24.063zm1.094.273l-.057-.014.057.014zm1.237.283l-.253-.055.253.055zm1.093.228l-.05-.01.05.01zm1.251.229a23.6 23.6 0 0 1 0 0zm1.074.17l-.037-.004c.013 0 .025.003.037.005zm-13.414-3.592a.008.008 0 0 0 .004.002l-.006-.002h.002zm-4.068-1.581a1.009 1.009 0 0 1 0 0zm-.362 5.333l-.126.06.126-.06zm.562-.233l-.06.022.06-.022zm.612-.208l-.144.045.144-.045zm.558-.156l-.1.026.1-.026zm.667-.146l-.08.014.08-.014zm.663-.11c-.044.007-.088.014-.13.019l.13-.018zm-3.553 1.096a2.765 2.765 0 0 0 0 0zm-1.573 3.07a29.764 29.764 0 0 0 0 0zm.98-.835a26.833 26.833 0 0 1 0 0zm4.973-1.93a11.895 11.895 0 0 0 0 0zm11.486 2.173a50.627 50.627 0 0 1 0 0zm-1.209-.448a48.409 48.409 0 0 1 0 0zm-.955-.322a41.11 41.11 0 0 1 0 0zm-1.153-.358a42.204 42.204 0 0 1 0 0zm-.918-.252a31.629 31.629 0 0 1 0 0zm-1.092-.266a32.224 32.224 0 0 1 0 0zm1.621-1.147c-.03-.008-.059-.017-.088-.023.03.006.058.015.088.023zm.851.234l-.132-.037.132.037zm.816.247a.202.202 0 0 0 0 0zm.977.32l-.132-.044.132.045zm.93.33l-.246-.09.246.09zm.853.323l-.244-.094.244.094zm-11.032-2.377l.1-.001h-.1zm-.697.02l.076-.002-.076.003zm-.698.05a.088.088 0 0 0 0 0zm3.794.054l-.049-.005.05.005zm1.674.24l-.067-.012.067.012zm.034 1.526a26.776 26.776 0 0 1 0 0zm-1.025-.176a27.115 27.115 0 0 1 0 0zm-.833-.106a23.336 23.336 0 0 1 0 0zm-1.735-.118a19.242 19.242 0 0 1 0 0zm1.113-1.436a1.361 1.361 0 0 1 0 0zm-2.719 1.483a15.544 15.544 0 0 1 0 0zm-2.178.39a8.54 8.54 0 0 0 0 0zm-1.597.646a6.982 6.982 0 0 0 0 0zm-.393.23c-.09.058-.182.115-.269.177.087-.062.177-.12.27-.177zm-.403.275c-.062.046-.125.09-.185.139.06-.048.123-.093.185-.14zM88.39 66.77a18.262 18.262 0 0 0 0 0zm.686-.44a18.274 18.274 0 0 0 0 0zm.758-.446a22.764 22.764 0 0 0 0 0zm.916-.492a22.21 22.21 0 0 0 0 0zm-1.2 2.42a17.767 17.767 0 0 0 0 0zm.845-.514a21.327 21.327 0 0 0 0 0zm.918-.503a23.326 23.326 0 0 0 0 0zm-2.537 1.54a17.095 17.095 0 0 0 0 0zm2.724-3.308a30.054 30.054 0 0 0 0 0zm.778-.35a25.978 25.978 0 0 0 0 0zm.81-.333c-.16.064-.32.128-.479.194.158-.066.318-.13.478-.194zm.901-.341c-.19.07-.382.139-.57.21.188-.071.38-.14.57-.21zm1.045-.357a27.77 27.77 0 0 0 0 0zm.85-.26c-.152.044-.304.09-.454.137.15-.046.302-.093.453-.137zm.862-.241a52.681 52.681 0 0 0 0 0zm.87-.22a60.563 60.563 0 0 0 0 0zm.767-.176l-.277.06.277-.06zm1.43-.286a31.027 31.027 0 0 0 0 0zm6.517.826c.17-.005.342-.007.513-.01-.17.003-.343.005-.513.01zm-1.485.07a43.357 43.357 0 0 1 0 0zm-.915.067c.197-.016.395-.033.594-.047-.2.014-.396.03-.594.047zm-.928.088c.198-.02.397-.041.596-.06-.199.019-.398.04-.596.06zm-.924.108a57.108 57.108 0 0 1 0 0zm-.915.128a34.295 34.295 0 0 1 0 0zm-3.216.63a37.86 37.86 0 0 1 0 0zm-.808.205a36.398 36.398 0 0 1 0 0zm-.818.229a35.217 35.217 0 0 1 0 0zm-3.647 1.328a29.683 29.683 0 0 1 0 0zm-.676.312a23.487 23.487 0 0 1 0 0zm-.685.34a23.178 23.178 0 0 1 0 0zm15.985-3.523h.492-.492zm3.73-1.38l.157.012-.158-.012zm-.926-.056l.152.008-.152-.008zm-3.506-.048l.15-.003-.15.003zm-.949.033l.217-.01-.217.01zm-.906.049c.064-.004.127-.01.192-.013l-.192.013zm-2.486.227a11.169 11.169 0 0 1 0 0zm-.94.125c.101-.015.204-.028.305-.042-.1.014-.204.027-.305.042zm-.926.144c.11-.02.222-.037.332-.055l-.332.055zm-98.77.559a2.825 2.825 0 0 1 2.1-.793c3.437.144 11.99-.095 18.021-5.366a482.585 482.585 0 0 1-.999-5.547 2.746 2.746 0 0 1 1.012-2.651 2.74 2.74 0 0 1 2.805-.388C29.5 50.254 38.93 53.75 46.53 53.837c5.027.058 8.27-1.11 11.125-2.138 3.19-1.15 5.96-2.15 10.017-.984a84.25 84.25 0 0 0 2.946-3.428c-.183-.766-.817-2.795-2.66-4.29-1.45-1.01-1.455-2.342-1.015-3.18.584-1.117 2.17-1.871 4.063-1.15 2.458.936 6.734 4.79 7.764 5.736h5.026l1.114-4.398a.755.755 0 0 1 .733-.57c4.356 0 19.761 1.756 34.966 24.359.005.008.006.018.012.026a.634.634 0 0 1 .048.09l.023.053c.012.035.02.073.027.11.003.015.008.028.01.044.008.049.01.105.006.158 0 .005-.003.01-.003.014a.774.774 0 0 1-.03.144v.01c-.005.015-.013.028-.018.04-.015.036-.028.07-.045.1-.01.019-.02.032-.033.049a.625.625 0 0 1-.103.123.606.606 0 0 1-.078.066.578.578 0 0 1-.144.083c-.01.005-.02.012-.033.017-1.9.72-3.242 2.058-4.943 3.754-2.236 2.229-5.019 5.006-10.332 7.662-9.36 4.68-39.318 4.733-40.589 4.733H15.201a9.064 9.064 0 0 1-7.615-4.171 3.024 3.024 0 0 1-2.573-2.986V69.22a1.36 1.36 0 0 0-1.359-1.36h-.053a2.869 2.869 0 0 1-1.983-4.937z" stroke="#343A40" stroke-width="4.528"/><path d="M3.6 66.353h.054a2.87 2.87 0 0 1 2.868 2.868v2.913h55.41c.409 0 .917.01 1.51.018 5.294.085 17.694.284 23.683-4.466 6.95-5.507 19.737-7.386 31.078-4.714-5.721-8.1-12.031-14.12-18.781-17.894-6.08-3.402-10.93-4.036-13.197-4.121l-1.11 4.387-.007.018-.002.017-2.272 7.459a3.308 3.308 0 0 1-3.18 2.358H74.28c-2.765 3.046-12.247 4.935-21.025 4.935-4.895 0-9.572-.586-12.742-1.89-7.932-3.262-14.291-3.493-17.448-.635-5.593 5.117-13.1 6.065-17.89 6.065a34.11 34.11 0 0 1-1.522-.033 1.355 1.355 0 0 0-1.408 1.359c0 .747.608 1.356 1.355 1.356zm2.922 7.56a1.51 1.51 0 0 0 1.51 1.509h65.307c9.737 0 16.705-.681 21.359-4.065 4.405-3.203 12.77-.242 14.717.517 2.058-1.516 3.538-2.985 4.823-4.268 1.225-1.221 2.335-2.32 3.64-3.16-10.923-2.586-23.195-.825-29.814 4.423-5.45 4.319-15.49 4.822-21.734 4.822-1.104 0-2.092-.018-2.913-.03-.583-.007-1.084-.018-1.484-.018H6.522v.27zm8.68 5.647h49.18c.309 0 30.872-.053 39.916-4.573a36.825 36.825 0 0 0 3.595-2.056c-2.75-.948-9.054-2.72-12.307-.354-4.986 3.625-12.21 4.354-22.247 4.354H9.49a7.547 7.547 0 0 0 5.71 2.629zm63.27-33.647a.754.754 0 0 1-.516-.205c-.05-.047-5.016-4.688-7.49-5.63-1.058-.405-1.92-.075-2.188.44-.214.406-.01.86.556 1.25a.348.348 0 0 1 .048.036c2.778 2.235 3.273 5.437 3.293 5.572a.756.756 0 0 1-.16.58c-.017.022-1.798 2.246-3.56 4.132a.751.751 0 0 1-.778.204c-3.827-1.222-6.335-.32-9.51.829-2.976 1.07-6.35 2.284-11.655 2.225-7.856-.088-17.494-3.657-22.538-5.775a1.25 1.25 0 0 0-1.283.176c-.37.294-.541.75-.461 1.214.267 1.55.554 3.143.849 4.746 3.81-2.433 10.263-2.046 18.009 1.139 3.985 1.638 11 2.203 18.307 1.477 6.92-.69 12.516-2.428 13.925-4.332a.755.755 0 0 1 .606-.305h5.728c.802 0 1.502-.516 1.736-1.285l1.975-6.488h-4.893zM1.619 62.923a2.821 2.821 0 0 1 2.098-.792c3.439.144 11.99-.095 18.023-5.366-.35-1.874-.685-3.738-1-5.547a2.743 2.743 0 0 1 1.012-2.651 2.74 2.74 0 0 1 2.805-.388C29.5 50.254 38.93 53.75 46.53 53.837c5.026.058 8.269-1.11 11.124-2.138 3.19-1.15 5.96-2.15 10.017-.984a85.304 85.304 0 0 0 2.947-3.428c-.184-.766-.818-2.795-2.662-4.29-1.45-1.01-1.454-2.342-1.014-3.18.584-1.117 2.169-1.871 4.063-1.15 2.458.936 6.735 4.79 7.764 5.736h5.026l1.115-4.398a.754.754 0 0 1 .732-.57c4.356 0 19.76 1.756 34.966 24.359.005.008.007.018.013.026a.755.755 0 0 1 .07.143c.013.036.019.073.027.11.003.015.008.028.01.044a.636.636 0 0 1 .006.158l-.003.015a.889.889 0 0 1-.03.143v.01c-.005.015-.013.028-.018.04-.015.036-.027.07-.045.1a.511.511 0 0 1-.033.049.625.625 0 0 1-.103.123.606.606 0 0 1-.126.098.617.617 0 0 1-.095.05c-.011.006-.021.013-.034.018-1.901.72-3.242 2.058-4.943 3.754-2.236 2.229-5.018 5.006-10.332 7.662-9.36 4.68-39.318 4.733-40.59 4.733h-49.18a9.065 9.065 0 0 1-7.616-4.171 3.024 3.024 0 0 1-2.573-2.986V69.22a1.36 1.36 0 0 0-1.36-1.36h-.052a2.869 2.869 0 0 1-1.982-4.937z" fill="#343A40"/><path d="M68.202 40.895a.68.68 0 0 1 .076-.376c.27-.516 1.13-.846 2.188-.44 2.474.94 7.44 5.582 7.49 5.629a.752.752 0 0 0 .516.205h4.893l-5.666 1.169s-5.17-5.842-9.497-6.187m-9.016 12.948c-2.493 1.258-8.241 2.74-16.287 1.855-4.942-.543-10.268-2.32-14.317-4.322 5.199 1.896 12.06 3.904 17.93 3.97 5.306.059 8.679-1.154 11.655-2.226 3.099-1.12 5.566-2.001 9.239-.907-2.167-.16-5.99.504-8.22 1.63" fill="#67707A"/><path d="M24.073 53.671c-.281-.479-.727-2.942-.5-4.197.136.01.27.041.4.096 1.277.536 2.848 1.164 4.609 1.806 4.05 2.003 9.376 3.779 14.317 4.322 8.046.885 13.794-.597 16.287-1.855 2.232-1.126 6.053-1.79 8.22-1.63.09.027.179.05.27.079a.757.757 0 0 0 .78-.204c1.762-1.887 3.543-4.11 3.56-4.131a.757.757 0 0 0 .16-.581c-.021-.136-.516-3.338-3.293-5.572a.39.39 0 0 0-.048-.035c-.396-.273-.611-.577-.633-.874 4.327.344 9.498 6.187 9.498 6.187l5.665-1.17L81.39 52.4a1.805 1.805 0 0 1-1.736 1.286h-5.727a.759.759 0 0 0-.607.304c-1.41 1.905-7.004 3.643-13.925 4.332-7.305.727-14.322.161-18.306-1.476-2.475-1.018-4.816-1.748-6.982-2.194-4.703-1.79-8.555-1.654-10.034-.981" fill="#495057"/><path d="M22.69 49.746c.259-.206.57-.297.884-.272-.228 1.254.218 3.717.499 4.197 1.479-.673 5.33-.809 10.034.981-4.616-.95-8.435-.602-11.028 1.054a424.893 424.893 0 0 1-.85-4.745 1.26 1.26 0 0 1 .462-1.215" fill="#40474D"/><path d="M59.963 61.799c-5.346.755-13.01.539-21.253-3.032-5.153-2.233-9.352-3.005-12.766-2.707 3.496-1.015 8.584-.281 14.57 2.18 3.17 1.305 7.846 1.89 12.742 1.89 8.777 0 18.26-1.89 21.024-4.935h.295c-3.233 4.104-9.966 5.949-14.612 6.604" fill="#E8E8E8"/><path d="M7.573 65.636c2.705-.2 5.827-1.85 8.248-3.72 2.523-.92 5.034-2.288 7.245-4.31.775-.701 1.742-1.216 2.879-1.546 3.413-.298 7.611.474 12.765 2.707 8.244 3.57 15.908 3.787 21.254 3.032 4.645-.655 11.379-2.5 14.611-6.603h5.079a3.31 3.31 0 0 0 3.18-2.358l2.272-7.46.002-.016.008-.018.113-.447 13.494 8.61c.959 2.192 3.542 4.633 7.929 5.059l5.333 3.403c-9.534-.873-19.16 1.2-24.86 5.717-5.988 4.75-18.39 4.55-23.682 4.466-.594-.008-1.101-.018-1.51-.018H34.66L9.49 70.289s-.03-3.46-1.917-4.653" fill="#CED4DA"/><path d="M2.662 64.013c.27-.257.62-.39.991-.375.47.02.98.033 1.523.033 2.896 0 6.786-.348 10.645-1.755-2.42 1.87-5.543 3.52-8.248 3.72C9.46 66.83 9.49 70.289 9.49 70.289l25.17 1.845H6.521V69.22a2.87 2.87 0 0 0-2.868-2.868H3.6a1.358 1.358 0 0 1-.938-2.34" fill="#B7BDC2"/><path d="M108.02 58.632a.757.757 0 0 0 .738-.908c-.57-2.77-3.295-5.826-3.411-5.955a.759.759 0 0 0-.262-.189c-.17-.075-4.258-1.811-6.354.982a.763.763 0 0 0-.1.729c.03.071.06.144.092.216l-13.494-8.61.549-2.172c5.029-.172 11.836 1.665 17.393 5.615 4.37 3.107 9.949 9.816 13.43 14.289a45.747 45.747 0 0 0-4.616-.66l-5.333-3.403c.438.043.894.066 1.369.066" fill="#CED4DA"/><path d="M103.171 48.34c-5.558-3.95-12.364-5.787-17.394-5.615l.448-1.769c2.266.086 7.117.72 13.197 4.121 6.75 3.776 13.06 9.794 18.78 17.895a45.536 45.536 0 0 0-1.6-.343c-3.483-4.473-9.06-11.182-13.43-14.289" fill="#E3E3E3"/><path d="M98.73 52.562c2.097-2.793 6.185-1.057 6.355-.981a.756.756 0 0 1 .262.188c.116.129 2.84 3.186 3.41 5.955a.754.754 0 0 1-.737.908c-.474 0-.93-.023-1.368-.066l-7.93-5.06a6.624 6.624 0 0 1-.09-.215.763.763 0 0 1 .099-.73" fill="#CED4DA"/><path d="M13.309 76.93c.734.686 1.848 1.578 2.67 1.578h70.896C75.952 79.54 64.57 79.56 64.383 79.56H15.202a7.547 7.547 0 0 1-5.711-2.63h3.818z" fill="#B7BDC2"/><path d="M13.309 76.93h60.03c10.038 0 17.26-.728 22.247-4.353 3.253-2.365 9.557-.594 12.307.354a36.825 36.825 0 0 1-3.595 2.056c-3.543 1.77-10.387 2.856-17.423 3.52H15.98c-.823 0-1.937-.891-2.671-1.576" fill="#CED4DA"/><path d="M91.312 66.795c6.935-3.595 17.24-4.558 26.566-2.35-1.305.841-2.415 1.94-3.64 3.161a62.897 62.897 0 0 1-2.166 2.085 69.295 69.295 0 0 0 2.169-4.37c-5.248-1.566-15.033-.564-22.93 1.474" fill="#FFC98C"/><path d="M61.933 73.643c.4 0 .9.01 1.484.018.82.012 1.809.03 2.913.03 6.245 0 16.285-.503 21.734-4.822a20.076 20.076 0 0 1 3.248-2.074c7.896-2.038 17.68-3.04 22.929-1.473 0 0-.914 2.056-2.17 4.37a33.423 33.423 0 0 1-2.656 2.182c-1.947-.76-10.312-3.72-14.717-.517-4.654 3.384-11.622 4.065-21.36 4.065H8.033a1.51 1.51 0 0 1-1.51-1.51v-.27h55.41z" fill="#FFC078"/><path d="M106.993 57.08c-.71-1.822-2.23-3.674-2.656-4.172-.595-.222-2.829-.933-4.115.244.945 1.862 3.287 3.633 6.77 3.927m-8.262-4.518c2.096-2.793 6.184-1.056 6.355-.98a.75.75 0 0 1 .262.187c.116.13 2.84 3.186 3.411 5.956a.746.746 0 0 1-.153.628.754.754 0 0 1-.585.28c-5.38 0-8.421-2.878-9.387-5.34a.762.762 0 0 1 .097-.73" fill="#343A40"/><path d="M100.223 53.153c.943 1.86 3.285 3.633 6.77 3.927-.71-1.822-2.23-3.673-2.657-4.171-.593-.222-2.828-.934-4.113.244" fill="#FFC078"/><path d="M25.084 67.871a.757.757 0 0 0 .727-.962l-1.322-4.653a.754.754 0 1 0-1.452.412l1.321 4.654a.755.755 0 0 0 .726.55m3.735-.001a.757.757 0 0 0 .727-.962l-1.322-4.653a.754.754 0 1 0-1.452.412l1.32 4.654a.755.755 0 0 0 .727.55m3.734-.001a.757.757 0 0 0 .727-.962l-1.322-4.653a.754.754 0 1 0-1.452.412l1.321 4.654a.755.755 0 0 0 .726.55" fill="#343A40"/></g></svg>