<svg width="120" height="120" viewBox="0 0 120 120" xmlns="http://www.w3.org/2000/svg" xmlns:xlink="http://www.w3.org/1999/xlink"><defs><path id="a" d="M.582.302h32.121v22.544H.583z"/><path id="c" d="M0 .243h28.536v24.36H0z"/><path id="e" d="M.524.243h28.535v24.36H.524z"/></defs><g fill="none" fill-rule="evenodd"><g transform="translate(43.099 86.915)"><mask id="b" fill="#fff"><use xlink:href="#a"/></mask><path d="M32.683.302H.603S.113 7.397 3.915 14.5c3.802 7.104 4.959-3.396 4.959-3.396s.571 2.47 3.563 7.875c1.361 2.46 2.869 3.803 4.354 3.868 1.459-.065 2.939-1.408 4.275-3.868 2.937-5.405 3.498-7.875 3.498-7.875s1.136 10.5 4.868 3.396C33.164 7.397 32.682.302 32.682.302" fill="#380D00" mask="url(#b)"/></g><path d="M33.799 11.31c-.56-.247-1.227-.464-1.76-.163-.529.3-.693 1.02-.535 1.608.158.588.561 1.073.954 1.538l1.379 1.631a52.445 52.445 0 0 0-5.314-2.228c-.845-.3-2.158-.305-2.238.59-.03.35.183.672.4.95.68.864 1.49 1.625 2.396 2.248a9.263 9.263 0 0 0-6.249-.384c-.237.07-.485.159-.643.35-.439.532.123 1.301.68 1.708 2.792 2.038 6.348 2.704 9.794 2.948a49.068 49.068 0 0 0 16.48-1.641c-3.037-1.068-10.165-6.883-15.344-9.156m51.884.001c.562-.247 1.227-.464 1.76-.163.53.3.693 1.02.535 1.608-.157.588-.561 1.073-.954 1.538l-1.379 1.631a52.54 52.54 0 0 1 5.315-2.228c.844-.3 2.157-.305 2.237.59.031.35-.183.672-.4.95a10.919 10.919 0 0 1-2.396 2.248 9.263 9.263 0 0 1 6.249-.384c.237.07.485.159.643.35.439.532-.122 1.301-.679 1.708-2.793 2.038-6.348 2.704-9.795 2.948a49.063 49.063 0 0 1-16.479-1.641c3.036-1.068 10.164-6.883 15.343-9.156" fill="#380D00"/><path d="M35.615 90.064c-.93 1.864-.895 4.178.09 6.011.447.832 1.301 1.643 2.212 1.4.464-.127.818-.505 1.095-.902 1.24-1.782 1.347-4.29.263-6.172-.46-.797-1.217-1.53-2.137-1.547-.92-.018-1.218.487-1.523 1.21" fill="#CA6E13"/><path d="M39.278 90.173c-1.07 2.03-1.029 4.553.105 6.551.512.906 1.494 1.788 2.54 1.523.534-.136.94-.549 1.257-.981 1.427-1.943 1.55-4.675.303-6.725-.528-.87-1.399-1.668-2.456-1.688-1.056-.019-1.398.53-1.75 1.32" fill="#CA6E13"/><path d="M43.673 90.064c-.93 1.864-.896 4.178.09 6.011.448.832 1.301 1.643 2.211 1.4.466-.127.82-.505 1.096-.902 1.24-1.782 1.347-4.29.262-6.172-.46-.797-1.216-1.53-2.136-1.547-.92-.018-1.218.487-1.523 1.21" fill="#CA6E13"/><path d="M39.72 94.937c-.276.397-.629.775-1.095.9-.91.245-1.764-.566-2.21-1.398-.815-1.516-.97-3.358-.476-5.005-.122.18-.223.391-.324.63-.93 1.864-.895 4.178.092 6.012.445.831 1.3 1.642 2.21 1.398.465-.126.817-.504 1.095-.9a5.592 5.592 0 0 0 .803-1.797c-.033.052-.059.109-.094.16" fill="#A74E16"/><path d="M43.89 95.63c-.318.432-.723.845-1.258.98-1.047.266-2.028-.617-2.54-1.522-.933-1.646-1.113-3.644-.554-5.433-.092.156-.176.33-.26.517a6.914 6.914 0 0 0 .105 6.552c.512.906 1.493 1.789 2.539 1.522.535-.135.941-.548 1.259-.98a5.939 5.939 0 0 0 .934-1.999c-.076.12-.14.247-.225.362" fill="#A74E16"/><path d="M47.779 94.937c-.276.397-.63.775-1.096.9-.91.245-1.763-.566-2.21-1.398-.815-1.515-.97-3.357-.476-5.004-.122.18-.223.391-.324.63-.93 1.863-.895 4.177.091 6.01.447.832 1.3 1.643 2.21 1.4.467-.127.82-.505 1.095-.902a5.588 5.588 0 0 0 .804-1.797c-.034.052-.059.11-.094.16" fill="#A74E16"/><path d="M83.882 90.064c.91 1.864.875 4.178-.089 6.011-.435.832-1.269 1.643-2.159 1.4-.454-.127-.8-.505-1.07-.902-1.212-1.782-1.316-4.29-.256-6.172.448-.797 1.189-1.53 2.087-1.547.898-.018 1.19.487 1.487 1.21" fill="#CA6E13"/><path d="M80.304 90.173c1.044 2.03 1.005 4.553-.102 6.551-.502.906-1.46 1.788-2.482 1.523-.522-.136-.919-.549-1.23-.981-1.393-1.943-1.513-4.675-.294-6.725.516-.87 1.366-1.668 2.4-1.688 1.03-.019 1.366.53 1.708 1.32" fill="#CA6E13"/><path d="M76.01 90.064c.908 1.864.874 4.178-.09 6.011-.435.832-1.27 1.643-2.158 1.4-.456-.127-.801-.505-1.07-.902-1.213-1.782-1.318-4.29-.257-6.172.449-.797 1.188-1.53 2.087-1.547.899-.018 1.19.487 1.488 1.21" fill="#CA6E13"/><path d="M79.871 94.937c.27.397.616.775 1.07.9.89.245 1.724-.566 2.16-1.398.796-1.516.947-3.358.465-5.005.118.18.218.391.316.63.91 1.864.875 4.178-.089 6.012-.435.831-1.269 1.642-2.159 1.398-.454-.126-.8-.504-1.07-.9a5.661 5.661 0 0 1-.785-1.797c.033.052.058.109.092.16" fill="#A74E16"/><path d="M75.798 95.63c.31.432.706.845 1.23.98 1.021.266 1.98-.617 2.48-1.522.912-1.646 1.087-3.644.542-5.433.09.156.172.33.254.517 1.044 2.031 1.005 4.554-.102 6.552-.502.906-1.46 1.789-2.482 1.522-.522-.135-.919-.548-1.23-.98a6.006 6.006 0 0 1-.912-1.999c.074.12.137.247.22.362" fill="#A74E16"/><path d="M71.998 94.937c.27.397.615.775 1.07.9.89.245 1.723-.566 2.16-1.398.796-1.515.947-3.357.466-5.004.118.18.217.391.316.63.908 1.863.875 4.177-.089 6.01-.437.832-1.27 1.643-2.16 1.4-.455-.127-.8-.505-1.07-.902a5.658 5.658 0 0 1-.785-1.797c.033.052.058.11.092.16" fill="#A74E16"/><g transform="translate(0 44.608)"><mask id="d" fill="#fff"><use xlink:href="#c"/></mask><path d="M28.536 1.883c-9.11-4.234-28.537.812-28.537 2.99 0 2.176 10.115 2.599 10.115 2.599S6.25 9.293 2.203 12.626c-.377.31-.778.698-.773 1.187.01.905 1.25 1.15 2.152 1.07a35.115 35.115 0 0 0 6.886-1.31 33.925 33.925 0 0 0-5.524 6.196c-.888 1.283-1.641 3.165-.53 4.263.89.88 2.37.584 3.549.158 8.42-3.043 17.2-14.004 20.573-22.307" fill="#380D00" mask="url(#d)"/></g><g transform="translate(90.423 44.608)"><mask id="f" fill="#fff"><use xlink:href="#e"/></mask><path d="M.524 1.883c9.11-4.234 28.536.812 28.536 2.99 0 2.176-10.114 2.599-10.114 2.599s3.863 1.821 7.911 5.154c.377.31.778.698.773 1.187-.011.905-1.251 1.15-2.153 1.07a35.118 35.118 0 0 1-6.885-1.31 33.89 33.89 0 0 1 5.523 6.196c.889 1.283 1.642 3.165.531 4.263-.891.88-2.37.584-3.549.158-8.42-3.043-17.2-14.004-20.573-22.307" fill="#380D00" mask="url(#f)"/></g><path d="M96.632 60.614c-.575-10.202-1.623-35.382-1.623-35.382s-15.785-8.597-35.274-8.618c-19.489.021-35.273 8.618-35.273 8.618s-.979 23.753-1.614 35.382c-.567 10.375 2.27 36.079 36.78 36.079h.223c34.51 0 37.365-25.704 36.78-36.08" fill="#642710"/><path d="M93.98 69.55c-.743-6.073-3.857-11.885-8.66-16.16H34.162c-4.804 4.275-7.918 10.087-8.66 16.16-.188 1.541.09 3.56 1.739 3.958 2.156.522 5.542-1.884 5.542-1.884s-2.852 5.24-1.467 8.08c.78 1.601 3.233 1.983 5.118 1.627 1.885-.357 3.518-1.386 5.094-2.393-.49 1.084-.984 2.189-1.1 3.356-.117 1.166.2 2.426 1.13 3.237 1.167 1.016 2.999 1.097 4.57.754 2.388-.521 4.456-1.839 6.46-3.13-.937 2.593 2.09 8.899 7.01 8.899 4.921 0 8.231-6.306 7.294-8.898 2.004 1.29 4.073 2.608 6.46 3.129 1.572.343 3.404.262 4.57-.754.93-.81 1.247-2.071 1.13-3.237-.115-1.167-.61-2.272-1.1-3.356 1.576 1.007 3.21 2.036 5.095 2.393 1.884.356 4.337-.026 5.117-1.627 1.385-2.84-1.468-8.08-1.468-8.08s3.387 2.406 5.544 1.884c1.649-.399 1.927-2.417 1.738-3.958" fill="#C8B4AB"/><path d="M59.747 80.97h-.012.012zm35.874-26.025c-.414-3.466-1.663-6.467-3.692-9.306H27.553c-2.029 2.839-3.279 5.84-3.692 9.306-.148 1.241.16 2.585 1.169 3.32 1.682 1.225 5.702-2.114 5.702-2.114s-2.297 5.261-.472 7.81c.767 1.07 2.407 1.166 3.596.598 1.189-.569 2.045-1.642 2.859-2.68-.297 1.48-.595 2.983-.468 4.486.126 1.504.738 3.035 1.947 3.934 1.286.956 3.069 1.052 4.59.55 1.52-.503 2.813-1.534 3.939-2.674-.656 2.688-1.122 6.3 1.284 7.659 2.406 1.358 5.239-.478 7.196-2.43 0 0-.712 7.56 4.538 7.566 5.25-.006 4.538-7.566 4.538-7.566 1.957 1.952 4.79 3.788 7.196 2.43 2.406-1.36 1.94-4.971 1.284-7.659 1.126 1.14 2.42 2.17 3.94 2.673 1.52.503 3.304.407 4.589-.549 1.21-.9 1.821-2.43 1.948-3.934.127-1.503-.172-3.006-.468-4.485.813 1.037 1.67 2.11 2.859 2.679 1.189.568 2.827.473 3.595-.598 1.826-2.549-.472-7.81-.472-7.81s4.02 3.34 5.702 2.114c1.01-.735 1.317-2.079 1.17-3.32" fill="#E2DAD6"/><path d="M69.784 22.564C61.845 25.64 59.74 39.467 59.74 39.467S57.637 25.64 49.698 22.564c-12.732-4.932-28.682 5.975-22.915 23.522 12.906 2.958 25.451 10.018 32.958 18.507 7.507-8.489 20.053-15.55 32.959-18.507 5.766-17.547-10.184-28.454-22.916-23.522" fill="#C8B4AB"/><path d="M64.555 36.283c0-6.795 6.29-12.304 13.075-12.304 6.785 0 12.898 5.51 12.898 12.304 0 5.782-7.188 13.16-13.957 12.68-6.302-.447-12.016-5.886-12.016-12.68" fill="#3A0D00"/><path d="M88.578 36.283c0-6.104-4.94-11.051-11.036-11.051-6.096 0-11.037 4.947-11.037 11.05 0 6.104 4.941 11.052 11.037 11.052 6.095 0 11.036-4.948 11.036-11.051" fill="#FFF"/><path d="M86.403 34.417c0-4.878-3.95-8.832-8.82-8.832-4.871 0-8.82 3.954-8.82 8.832 0 4.877 3.949 8.83 8.82 8.83 4.87 0 8.82-3.953 8.82-8.83" fill="#000"/><path d="M28.954 36.283c0-6.795 6.29-12.304 13.074-12.304 6.786 0 12.899 5.51 12.899 12.304 0 5.782-7.188 13.16-13.957 12.68-6.303-.447-12.016-5.886-12.016-12.68" fill="#3A0D00"/><path d="M52.977 36.283c0-6.104-4.941-11.051-11.037-11.051-6.094 0-11.036 4.947-11.036 11.05 0 6.104 4.942 11.052 11.036 11.052 6.096 0 11.037-4.948 11.037-11.051" fill="#FFF"/><path d="M50.801 34.417c0-4.878-3.949-8.832-8.82-8.832-4.87 0-8.82 3.954-8.82 8.832 0 4.877 3.95 8.83 8.82 8.83 4.871 0 8.82-3.953 8.82-8.83" fill="#000"/><path d="M64.328 20.385l-.029.017c-.95.596-1.696 1.46-2.426 2.31.325-1.32.653-2.686.417-4.026-.236-1.338-1.195-2.65-2.539-2.847h-.02c-1.344.197-2.303 1.509-2.539 2.847-.236 1.34.092 2.706.418 4.026-.731-.85-1.477-1.714-2.427-2.31l-.028-.017c-1.607-.991-3.612.489-3.296 2.35.352 2.075 1.536 4.105 2.685 5.935l3.341 5.32h3.712l3.342-5.32c1.15-1.83 2.332-3.86 2.684-5.935.316-1.861-1.69-3.341-3.295-2.35" fill="#380D00"/><path d="M57.098 38.354s.59 3.377 2.938 3.377c2.348 0 2.348-3.5 2.348-3.5l-5.286.123z" fill="#A44118"/><path d="M59.832 31.525c-1.569-.012-3.353 5.026-3.494 7.357l6.804-.156c.08-.353-1.742-7.19-3.31-7.201" fill="#CA6E13"/></g></svg>