<svg width="120" height="120" viewBox="0 0 120 120" xmlns="http://www.w3.org/2000/svg" xmlns:xlink="http://www.w3.org/1999/xlink"><defs><path id="a" d="M.843.945h65.701V87H.843z"/></defs><g fill="none" fill-rule="evenodd"><g transform="translate(29 16.055)"><mask id="b" fill="#fff"><use xlink:href="#a"/></mask><path d="M66.068 79.276c-1.693-1.997-7.877-2.514-14.076-1.177-8.176 1.762-14.033 1.268-17.906-1.514-3.374-2.422-5.397-6.597-6.182-12.764l-.035-.15-.006-.044c.049-.032.28-.154 1.016-.08l1.474.154c2.258.24 5.346.57 7.383.508 1.084-.032 1.562.228 2.07.504.538.292 1.149.624 2.229.441a4.775 4.775 0 0 0 2.717-1.432c1.082.095 2.72-.179 3.517-1.735a1.962 1.962 0 0 0 1.108-.77c.265-.383.402-.85.402-1.402 0-.414-.076-.872-.23-1.374-.284-.944-.997-1.739-2.063-2.3-1.822-.958-4.557-1.153-7.192-.625a5.92 5.92 0 0 0 .417-1.752c.914-.629 3.523-2.723 3.523-6.196 0-.165-.006-.333-.02-.503-.21-2.965-2.725-4.98-4.437-6.023 2.324-.854 6.34-2.855 7.54-6.71.695.212 1.706.343 2.61-.288 1-.695 1.188-1.818 1.203-2.537.874-.272 2.39-.979 2.714-2.69a3.28 3.28 0 0 0 .062-.612c0-.637-.21-1.092-.41-1.383a2.415 2.415 0 0 0-.91-.77 2.583 2.583 0 0 0-.114-1.347c-.332-.928-1.197-1.665-2.52-2.219-.01-1.698-.431-7.197-5.073-10.784.37-.96 1.083-3.085 1.083-5.259 0-1.566-.371-3.15-1.51-4.333-2.931-3.044-8.806.72-10.268 1.736-1.444-.633-6.891-2.54-15.1-.005-.702-.885-2.59-2.6-6.305-1.784-1.051.231-1.87.821-2.434 1.753-.67 1.108-.877 2.57-.877 3.948 0 1.58.27 3.045.425 3.761-1.061.936-4.038 4.091-4.886 10.427-.904-.128-1.97.01-2.374 1.036a2.079 2.079 0 0 0-.147.776c0 .411.125.797.29 1.143-.398.117-.827.307-1.185.65-.49.468-.748 1.118-.748 1.882 0 1.501.87 2.3 1.748 2.687-.304.5-.592 1.16-.592 1.897 0 .398.085.82.296 1.244.363.74 1.047 1.254 1.978 1.492 1.006.255 2.22.141 3.174-.25.663 1.345 2.524 4.294 6.499 6.458-1.735.878-4.406 2.73-4.406 5.787 0 3.684 2.784 5.77 3.743 6.38a7.11 7.11 0 0 0 .69 2.072c-2.181-.56-5.644-1.027-8.055.74-1.281.94-1.965 2.138-1.965 3.365 0 .43.084.862.254 1.286.513 1.292 1.715 2.17 2.92 2.222.687.963 2.174 2.006 4.332 1.14.457.397 1.315.986 2.437 1.02.996.031 1.953-.394 2.853-1.218 1.077.233 4.196.83 5.926.356.42-.113.614-.073.657-.036.28.243.124 1.723.054 2.355-.101.987.573 8.862 6.532 14.704 5.016 4.914 12.109 6.753 21.087 5.47 6.452-.923 14.364-2.618 15.419-5.458.244-.65.115-1.314-.356-1.87" fill="#654B1D" mask="url(#b)"/></g><path d="M85.488 95.046s-.673-.4-2.896.023c.054.23.726 3.323-2.903 3.7-3.195.332-4.027-1.723-4.206-2.357-1.315.096-2.497.091-3.43.008 0 0-1.545 1.665-3.285 1.37-1.741-.295-1.741-1.763-1.741-1.763s-1.354-.368-2.975-1.203c-.621.364-2.175 1.11-3.015.027-.881-1.137-.434-2.07-.256-2.356a8.045 8.045 0 0 1-1.29-1.657s-1.546.488-2.512-1.078c-.968-1.568.579-2.645.579-2.645s-.365-1.155-.76-2.584c-.286-.122-.822-.499-1.384-1.647-.665-1.359.103-2.547.429-2.963-.017-1.209.508-1.382 1.304-1.327 1.015.076 3.262.442 5.437.442 2.174 0 5.653-.293 7.03.147 1.378.442 3.19-.147 3.552-1.029.36-.88.36-1.175-1.16-2.422-1.522-1.249 1.814 0 1.884 1.321.073 1.323 1.377 1.541 1.957.221.58-1.322-.217-2.79-1.232-3.085-1.015-.294 1.594.147 1.812 1.763.217 1.615 1.377.221.217-1.544-1.158-1.762-5.363-2.79-10.003-1.027 0 0 3.407-3.452 1.304-11.017 0 0 1.814 2.057 1.235 6.317 0 0 1.087-.44 1.52-1.616 0 0-.798-.514-.652-2.13.147-1.616 1.162-1.91 1.162-1.91s-.074-1.102-1.087-2.13c0 0-1.595.148-2.321-.955-.725-1.102-.216-1.617-.216-1.617s-.075-.88-1.377-1.247c0 0-1.307.735-3.407.735 0 0 .144 3.01-1.96 2.277 0 0-.796 3.745-3.114.146 0 0-3.697 2.717-5.146-1.542 0 0 2.536 3.231 4.855.661 0 0 2.465 3.085 2.972 0 0 0 2.029 1.615 1.81-2.35 0 0 7.904.808 13.339-8.006 0 0 4.057 1.543 3.26-2.424 0 0 2.103-.367 2.32-1.983.217-1.615-1.884-1.615-1.884-1.615s2.175-2.058-1.088-3.746c0 0-2.391 1.468-3.623-.44-1.233-1.91 2.1-3.306 2.1-3.306s-.216-.882-.796-1.616c0 0-3.334.368-3.697-1.616-.361-1.983 1.885-2.057 1.885-2.057s-.29-1.174-1.666-2.202c0 0 2.535-6.758-.147-8.593-2.68-1.836-6.304.88-8.334 2.202 0 0-1.271-.48-3.318-.868.033.247.056.498.056.76l-.01.262c1.247.123 2.04.304 2.04.508 0 .211-.855.4-2.182.52-.454 1.906-1.882 3.3-3.581 3.3-1.7 0-3.132-1.4-3.583-3.314-1.243-.12-2.034-.303-2.034-.506 0-.196.735-.37 1.896-.492a5.541 5.541 0 0 1 .111-1.416c-1.863.167-3.85.564-5.848 1.32 0 0-1.16-2.423-4.857-2.35-3.695.074-2.608 7.272-2.102 8.226 0 0-1.304 1.175-1.81 1.91 0 0 2.029.441 1.81 2.276-.217 1.837-3.551 2.13-3.551 2.13s-.507 1.103-.58 1.91c0 0 2.61-.148 2.32 2.643-.29 2.792-3.841 2.277-4.71.81 0 0-.945-.369-1.307.293-.361.66.362 1.615 1.307 2.497 0 0-2.828-.22-2.9 1.395-.072 1.617 2.68 2.423 2.68 2.423s-2.245 1.69-.65 3.16c1.594 1.467 4.42-.222 4.42-.222s.29 4.04 10.22 8.741c0 0-.942.441-1.883.294 0 0 .289 1.247-1.017 1.762-1.303.515-2.173-.367-2.173-.367s-.941.588-1.521 1.396c0 0 1.377 0 .869 1.836-.508 1.835-1.596 2.35-1.596 2.35s.29 1.983 2.248 3.378c0 0-.435-4.039 2.465-7.05 0 0-3.843 7.271 1.375 12.265 0 0 .242.27-.096.367-.34.1-1.16-.245-1.643-.83 0 0-4.637-1.912-7.585-.882-2.948 1.026-3.043 3.033-2.852 3.767.193.736 1.595 1.863 2.029.345.436-1.519 1.596-2.25 2.657-2.3 0 0-2.221.782-2.077 3.083.145 2.302 3.334 2.448 3.334.636a2.28 2.28 0 0 1 1.545-2.252s-.722.44-.82 1.47c-.097 1.028-.24 2.545 2.127 2.448 2.367-.098 1.402-1.42 3.43-.735 2.029.685 2.754.784 4.494.441 1.74-.345 3.092 0 2.898 1.91-.193 1.91-.433 5.092 1.79 9.5 2.222 4.405 4.83 7.537 10.63 9.792 5.797 2.251 12.853 1.565 20.873-.295 8.022-1.86-3.092-.88-1.738-4.8" fill="#FFCF88"/><path d="M42.433 26.303s-2.537-5.583 3.552-3.38c0 0-6.378-3.304-3.552 3.38m24.063-3.306s4.64-3.451 3.699 1.837c0 0 2.243-6.39-3.698-1.837M52.435 38.972c0 2.251-1.068 4.076-2.391 4.076-1.32 0-2.392-1.825-2.392-4.076 0-2.25 1.072-4.076 2.392-4.076 1.323 0 2.39 1.825 2.39 4.076m14.788-.074c0 2.251-1.07 4.077-2.392 4.077-1.321 0-2.392-1.826-2.392-4.077 0-2.25 1.071-4.076 2.392-4.076 1.322 0 2.392 1.826 2.392 4.076m-8.335 7.492c0 .426-.536.77-1.195.77-.66 0-1.198-.344-1.198-.77 0-.426.537-.77 1.198-.77.66 0 1.195.344 1.195.77M24.13 44.51a.22.22 0 0 0-.11.29.214.214 0 0 0 .284.115c6.51-2.866 12.826-.797 12.89-.776a.217.217 0 0 0 .276-.14.224.224 0 0 0-.137-.28c-.065-.02-6.535-2.146-13.203.792m1.145 3.336a.223.223 0 0 0-.092.296c.057.11.188.152.293.095.056-.027 5.432-2.794 12.044-1.74a.221.221 0 0 0 .069-.436c-6.758-1.075-12.258 1.757-12.314 1.785m14.098-.024c-5.62.392-9.473 4.236-9.513 4.275v.31h.31c.036-.036 3.78-3.764 9.235-4.145a.22.22 0 0 0 .2-.236.217.217 0 0 0-.232-.204m35.169-.763a.22.22 0 0 0 .217.224c.066 0 6.97.133 9.2 3.238.07.1.204.121.303.05a.222.222 0 0 0 .048-.308c-2.356-3.284-9.254-3.417-9.547-3.422a.222.222 0 0 0-.22.218m.067-2.072a.222.222 0 0 0-.158.266.218.218 0 0 0 .264.162c.054-.013 5.516-1.34 10.522 0a.217.217 0 0 0 .266-.158.222.222 0 0 0-.155-.269c-5.115-1.369-10.681-.014-10.738 0m-.334-1.647a.222.222 0 0 0-.098.295.215.215 0 0 0 .29.099c.048-.025 4.829-2.402 9.814-1.352a.221.221 0 0 0 .088-.433c-5.135-1.08-10.045 1.366-10.094 1.39" fill="#654B1D"/><path d="M42.047 47.905s16.128 14.672 32.104-1.678c0 0-13.792 14.564-32.104 1.678" fill="#654B1D"/></g></svg>