<svg width="197" height="147" viewBox="0 0 197 147" xmlns="http://www.w3.org/2000/svg"><g fill="none"><path d="M158.713 42.271c1.609-4.285 1.223-9.018-.966-13.048-2.124-3.773-4.634-6.076-5.47-10.553-.515-2.558-.258-5.053.064-7.611.129-1.215 1.158-4.541-.064-5.437-1.416-.256-2.446 4.222-2.704 5.053l-.45.448c-3.862 1.343-1.995-5.82-2.446-7.228a.799.799 0 0 0-.9-.255c-1.674 2.366-.902 5.564-2.704 7.803l-.708.255a3.554 3.554 0 0 1-2.381-1.407c-.258-1.215.707-4.988-.451-5.948-3.347-.064-3.154 7.42-3.09 9.53.194 3.71.837 7.291 3.154 10.298 4.827 6.395 7.917 10.489 2.768 17.652-2.188 3.07-4.57 5.82-4.699 9.722-.128 4.03 2.189 7.228 3.798 10.745 1.287 2.815 1.93 7.164-.837 9.338-2.06 1.6-7.916 1.408-11.971 1.471v13.176c5.149 0 10.941-.512 15.575-1.919 3.605-1.15 6.694-3.517 8.625-6.78 2.188-3.453 2.446-8.506 1.416-12.407-1.094-4.094-3.669-7.292-2.768-11.769.901-4.477 5.6-6.972 7.209-11.129z" fill="#78C8C8"/><path d="M139.469 77.449c-3.798.192-4.055 5.692-.13 5.5 3.927-.192 3.412-5.692.13-5.5zm3.218-28.399c-2.124.129-2.317 3.199-.065 3.135 2.253-.064 1.867-3.198.065-3.134zm7.659 18.037c-2.124.128-2.317 3.198-.065 3.134 2.253-.064 1.867-3.198.065-3.134zm-9.59-51.743c-2.124.128-2.317 3.198-.065 3.134 2.253-.064 1.931-3.198.065-3.134z" fill="#AADCDC"/><path d="M67.062 71.756c-3.926-.128-9.719-.575-11.006-2.046-3.283-3.838-1.48-11.321.386-15.479 1.352-2.942 1.995-5.5.837-8.634-1.03-2.878-3.218-4.925-4.506-7.675-1.48-3.134-1.673-6.076.065-9.082 1.866-3.198 4.376-4.605 4.376-8.571 0-3.326-.708-6.652-2.124-9.722-.514-1.087-2.96-6.332-4.827-5.372-.257 1.343 3.025 5.564.837 6.46-2.896.575-3.347-6.396-6.694-5.117-1.802 1.663 4.506 5.692.901 7.1-2.38-.576-3.41-3.07-5.985-3.519-1.61.96 3.347 7.164 3.797 8.571 1.48 4.221-.45 7.675-1.802 11.577-1.352 3.901-1.094 7.419 1.159 10.873 2.317 3.582 4.376 6.076 4.054 10.617-.579 7.74-6.243 14.519-3.668 22.45 1.223 3.582 3.99 6.46 7.53 7.867 5.342 1.79 10.942 2.814 16.605 2.942l.065-13.24z" fill="#78C8C8"/><path d="M44.149 32.677c-2.124.128-2.317 3.198-.064 3.134 2.252-.064 1.93-3.262.064-3.134z" fill="#AADCDC"/><path d="M49.555 53.656c-2.124.128-2.317 3.198-.064 3.134 2.253-.064 1.866-3.198.064-3.134z" fill="#00A0B4"/><path d="M52.516 45.341c-4.57.256-4.956 6.908-.193 6.716 4.763-.192 4.183-6.908.193-6.716z" fill="#AADCDC"/><path fill="#006482" d="M76.652 38.242h43.509v33.131H76.652z"/><path d="M99.307 40.736s-.708 3.902 1.158 4.605c1.867.704 3.412.768 4.12-.703.708-1.472.514-4.67.514-4.67l-5.792.768z" fill="#FFF"/><path d="M101.366 60.372c-7.916-1.152-15.06.511-19.308 4.22v6.013h33.726v-6.524c-2.768-1.919-7.66-2.686-14.418-3.71z" fill="#000"/><path d="M97.312 119.982c-.58 5.756-2.382 7.675-5.922 8.506-1.802.448-3.54.512-5.149-.32-3.41-1.79-4.119-6.78-5.856-10.041-3.476-.96-3.025 2.686-7.981 2.686-8.625 0-8.56-4.54-10.17-17.525-1.608-12.983 33.855-8.954 33.855-8.954s1.802 19.955 1.223 25.648zm5.921-2.814c-1.223-3.262.257-19.188.257-19.188l25.552 2.878s.901 8.379 1.03 11c.322 11.897-3.54 13.368-6.179 13.432-11.842.448-8.817-11.065-11.971-12.728-5.535-2.878-6.372 1.408-8.689 4.606z" fill="#00A0B4"/><path d="M134.191 81.414c-1.545-16.373 1.416-32.235-3.604-48.225-4.377-14.007-11.778-22.642-26.324-25.584-14.031-2.814-31.28 4.67-37.073 17.333-6.371 13.943-4.955 29.997-6.05 44.772-.643 8.378-.064 16.373.322 24.816.322 7.93 2.703 22.705 10.556 21.298 3.604-.64 5.277-5.692 10.426-5.116 5.15.575 3.797 7.035 5.15 8.89 2.51 3.454 8.56 6.332 12.678 4.733 8.432-3.326 2.189-17.717 9.333-18.292 7.144-.576 8.174 8.314 10.555 11 2.896 3.326 8.11 4.03 10.684 0 2.575-4.029 2.317-10.745 2.51-15.35.322-6.651 1.416-13.687.837-20.275zm-21.11-26.031c-.322 9.082-8.368 11.704-15.834 11.704-7.466 0-13.837-3.773-14.738-11.512-.902-7.74 5.342-14.327 15.768-13.688 9.783.576 15.125 4.35 14.803 13.496z" fill="#AADCDC"/><path d="M122.928 108.917c.193 2.174 1.094 4.03 4.376 4.221 3.798.192 2.768-15.67-1.223-15.926-3.99-.256-3.54 6.588-3.153 11.705zm-10.041-7.675c.193 1.087 1.094 1.982 4.377 2.11 3.797.064 2.767-7.803-1.223-7.995-3.99-.192-3.54 3.326-3.154 5.885z" fill="#78C8C8"/><path d="M121.319 84.292c-3.798.384-4.055 11.001-.13 10.682 3.927-.32 3.412-11.001.13-10.682z" fill="#00A0B4"/><path d="M81.093 101.945c-3.798.192-4.055 5.693-.13 5.5 3.927-.191 3.412-5.628.13-5.5z" fill="#006482"/><path d="M128.27 67.599c-3.798.192-4.055 5.692-.129 5.5 3.926-.191 3.411-5.692.129-5.5zM79.612 17.135c-3.218-1.983-11.006 7.227-7.659 9.338 3.347 2.11 10.427-7.611 7.66-9.338zm.837 78.095c-2.703.127-2.96 4.093-.129 3.965 2.832-.128 2.446-4.093.129-3.966zm16.605-11.577c-2.703.128-2.96 4.093-.128 3.965 2.831-.128 2.445-4.093.128-3.965zm-5.149 30.061c-2.703.128-2.96 4.093-.128 3.965 2.832-.128 2.445-4.093.128-3.965z" fill="#78C8C8"/><path d="M106.837 94.462c-2.703.128-2.96 4.093-.128 3.965 2.831-.128 2.445-4.093.128-3.965z" fill="#00A0B4"/><path d="M65.71 104.312c.258 3.262 1.738 5.948 6.822 6.204 5.922.32 4.313-23.09-1.866-23.473-6.179-.384-5.535 9.721-4.956 17.269z" fill="#78C8C8"/><path d="M117.328 51.481c1.352.64 2.446 1.6 3.862 1.791.386.064.708.128.901.576l-.193.256c-.515.064-.966 0-1.416-.256-1.223-.64-2.446-1.216-3.669-1.855-.257-.128-.579-.256-.9-.384l-.194-.512 4.892-2.622.9.128-.064.448c-2.06.96-3.41 1.663-4.119 2.43zm-42.092.129c-.966-1.088-2.06-2.048-3.154-3.007-.193-.256-.129-.576.129-.767h.064c.064 0 .193 0 .257.063.13.064.194.128.322.256a16.158 16.158 0 0 0 3.411 3.198c.322.192.708.448.58 1.024l-.58.128c-.193 0-.386.064-.579.127-.9.384-1.738.832-2.639 1.216l-1.03.447c-.45-.064-.643-.191-.579-.575a183.227 183.227 0 0 0 3.54-1.727c.065-.128.129-.256.258-.384z" fill="#000"/></g></svg>