<svg width="480" height="360" viewBox="0 0 480 360" xmlns="http://www.w3.org/2000/svg"><defs><linearGradient x1="92.388%" y1="-20.657%" x2="7.186%" y2="125.096%" id="a"><stop stop-color="#78A8C3" offset=".31%"/><stop stop-color="#6F99B7" offset="6.91%"/><stop stop-color="#587098" offset="27.4%"/><stop stop-color="#454F7E" offset="47.43%"/><stop stop-color="#38386D" offset="66.59%"/><stop stop-color="#302A62" offset="84.52%"/><stop stop-color="#2D255E" offset="100%"/></linearGradient><linearGradient x1="93.805%" y1="-28.49%" x2="5.672%" y2="134.758%" id="b"><stop stop-color="#78A8C3" offset=".31%"/><stop stop-color="#6F99B7" offset="6.91%"/><stop stop-color="#587098" offset="27.4%"/><stop stop-color="#454F7E" offset="47.43%"/><stop stop-color="#38386D" offset="66.59%"/><stop stop-color="#302A62" offset="84.52%"/><stop stop-color="#2D255E" offset="100%"/></linearGradient><linearGradient x1="8.104%" y1="118.702%" x2="92.298%" y2="-22.773%" id="c"><stop stop-color="#78A8C3" offset=".31%"/><stop stop-color="#6F99B7" offset="6.91%"/><stop stop-color="#587098" offset="27.4%"/><stop stop-color="#454F7E" offset="47.43%"/><stop stop-color="#38386D" offset="66.59%"/><stop stop-color="#302A62" offset="84.52%"/><stop stop-color="#2D255E" offset="100%"/></linearGradient><linearGradient x1="6.639%" y1="125.284%" x2="93.856%" y2="-30.896%" id="d"><stop stop-color="#78A8C3" offset=".31%"/><stop stop-color="#6F99B7" offset="6.91%"/><stop stop-color="#587098" offset="27.4%"/><stop stop-color="#454F7E" offset="47.43%"/><stop stop-color="#38386D" offset="66.59%"/><stop stop-color="#302A62" offset="84.52%"/><stop stop-color="#2D255E" offset="100%"/></linearGradient></defs><g fill="none"><path fill="#272556" d="M-45.8 0h569.003v358.602H-45.8z"/><g transform="translate(189.188 118.339)"><ellipse fill="#61BF7E" cx="10.098" cy="10.267" rx="10.088" ry="10.169"/><g transform="translate(3.194 1.992)" fill="#61A964"><ellipse cx="1.555" cy="6.468" rx="1.466" ry="1.274"/><path d="M5.589 3.317a.62.62 0 0 1-.618.623.62.62 0 0 1-.618-.623.62.62 0 0 1 .618-.623.62.62 0 0 1 .618.623z"/><ellipse cx="12.422" cy="11.133" rx="1.841" ry="1.673"/><path d="M12.082 2.688c0 .348-.217.63-.484.63-.268 0-.485-.282-.485-.63 0-.347.217-.629.485-.629.267 0 .484.282.484.63zM7.66 8.72a.164.164 0 0 1-.164.165.164.164 0 0 1-.163-.164c0-.091.073-.165.163-.165.09 0 .163.074.163.165zm-2.435 6.505c0 .485-.629.878-1.405.878s-1.405-.393-1.405-.878c0-.484.629-.877 1.405-.877s1.405.393 1.405.877zM2.512.472A.414.414 0 0 1 2.1.887a.413.413 0 0 1-.412-.415c0-.23.184-.416.412-.416.227 0 .412.186.412.416z"/></g><path d="M15.684 1.799a11.294 11.294 0 0 1 2.045 6.503c0 6.232-5.011 11.284-11.194 11.284-.17 0-.338-.005-.506-.012a9.982 9.982 0 0 0 4.07.862c5.57 0 10.087-4.553 10.087-10.169A10.18 10.18 0 0 0 15.684 1.8z" opacity=".3" fill="#468668"/></g><path d="M523.203 139.181L-45.8 341.113v17.489H7.19l516.013-182.123zM-45.816 80.745L184.773 0H80.728L-45.816 44.556zm0 31.023L275.543 0h-49.92L-45.816 94.787zM372.177.14L-45.8 152.224v17.713L420.858.14z" fill="#2B285E"/><g transform="translate(95.153 211.176)"><ellipse fill="#3D6694" cx="1.851" cy="28.694" rx="1.834" ry="1.849"/><ellipse fill="#3D6694" cx="13.781" cy=".931" rx="1" ry="1"/><path d="M39.177 33.525c0 .722-.581 1.308-1.297 1.308a1.302 1.302 0 0 1-1.297-1.308c0-.722.58-1.307 1.297-1.307.716 0 1.297.585 1.297 1.307z" fill="#3D6694"/><path d="M18.945 45.693c0 .722-.581 1.307-1.298 1.307a1.302 1.302 0 0 1-1.297-1.307c0-.723.581-1.308 1.297-1.308.717 0 1.298.586 1.298 1.308z" fill="#2A3A66"/><ellipse fill="#2A3A66" cx="42.095" cy="7.773" rx="2.908" ry="2.931"/></g><g transform="translate(157.244 138.66)"><ellipse fill="#3D6694" cx="1.998" cy="101.983" rx="1.834" ry="1.849"/><ellipse fill="#2A3A66" cx="115.254" cy="1.415" rx="1.297" ry="1.308"/></g><g transform="translate(198.172 144.636)"><path d="M22.97 3.48a1.857 1.857 0 0 1-.617-2.54 1.826 1.826 0 0 1 2.52-.621 1.857 1.857 0 0 1 .617 2.54 1.826 1.826 0 0 1-2.52.622zm17.865 23.842a.867.867 0 0 1-.288-1.186.852.852 0 0 1 1.176-.29.867.867 0 0 1 .288 1.186.853.853 0 0 1-1.176.29z" fill="#3D6694"/><ellipse fill="#2A3A66" cx="1.311" cy="6.694" rx="1.297" ry="1.308"/><ellipse fill="#2A3A66" cx="20.787" cy="47.434" rx="2.908" ry="2.931"/></g><path d="M190.934 199.331a1.85 1.85 0 0 1-1.346 2.236 1.833 1.833 0 0 1-2.217-1.357 1.85 1.85 0 0 1 1.346-2.235 1.833 1.833 0 0 1 2.217 1.356z" fill="#3D6694"/><path d="M209.764 212.186c.17.702-.256 1.41-.952 1.581a1.297 1.297 0 0 1-1.568-.96c-.17-.7.256-1.408.951-1.58a1.297 1.297 0 0 1 1.569.96z" fill="#2A3A66"/><g transform="translate(165.829 58.173)"><path d="M119.338.392a1.29 1.29 0 0 1 1.824.198 1.314 1.314 0 0 1-.197 1.838 1.29 1.29 0 0 1-1.824-.198 1.315 1.315 0 0 1 .197-1.838z" fill="#3D6694"/><path d="M.668 102.053a1.29 1.29 0 0 1 1.824.198c.45.562.362 1.385-.196 1.838a1.29 1.29 0 0 1-1.824-.198 1.315 1.315 0 0 1 .196-1.838z" fill="#2A3A66"/><ellipse fill="#2A3A66" cx="97.611" cy="14.253" rx="2.908" ry="2.931"/></g><g transform="translate(71.394 74.111)"><ellipse fill="#3D6694" cx="127.892" cy="170.591" rx="1.297" ry="1.308"/><path d="M36.285.398a1.29 1.29 0 0 1 1.824.199c.45.562.362 1.385-.196 1.838a1.29 1.29 0 0 1-1.824-.198 1.315 1.315 0 0 1 .196-1.839zM2.678 22.143a1.502 1.502 0 0 1-.277 2.094c-.65.5-1.58.376-2.077-.28A1.502 1.502 0 0 1 .6 21.865a1.474 1.474 0 0 1 2.077.28z" fill="#2A3A66"/></g><g transform="translate(140.673 26.297)"><ellipse fill="#3D6694" cx="1.964" cy="1.931" rx="1.834" ry="1.849"/><path d="M107.134 30.565a1.305 1.305 0 0 1-1.15-1.44 1.3 1.3 0 0 1 1.428-1.16 1.305 1.305 0 0 1 1.15 1.44 1.3 1.3 0 0 1-1.428 1.16z" fill="#2A3A66"/></g><g transform="translate(251.28 225.122)"><ellipse fill="#3D6694" cx="34.677" cy="7.637" rx="1.041" ry="1.049"/><path d="M38.223 38.037a.867.867 0 0 1 .281-1.188.852.852 0 0 1 1.178.283.867.867 0 0 1-.28 1.188.852.852 0 0 1-1.179-.283zM.377 23.244a1.313 1.313 0 0 1 .425-1.8 1.291 1.291 0 0 1 1.784.429c.376.615.186 1.42-.424 1.799a1.291 1.291 0 0 1-1.785-.428z" fill="#3D6694"/><path d="M11.281 2.192a1.313 1.313 0 0 1 .425-1.799 1.291 1.291 0 0 1 1.784.428c.376.615.186 1.42-.424 1.799a1.291 1.291 0 0 1-1.785-.428zM9.695 47.701a1.887 1.887 0 0 1 .61-2.584 1.855 1.855 0 0 1 2.564.615c.54.884.266 2.04-.61 2.584a1.855 1.855 0 0 1-2.564-.615z" fill="#2A3A66"/></g><path d="M234.335 265.413a1.834 1.834 0 0 1-2.209 1.37 1.85 1.85 0 0 1-1.36-2.226 1.834 1.834 0 0 1 2.21-1.37 1.85 1.85 0 0 1 1.36 2.226z" fill="#3D6694"/><path d="M245.274 285.511a1.297 1.297 0 0 1-1.562.97 1.308 1.308 0 0 1-.961-1.575 1.297 1.297 0 0 1 1.562-.97c.697.168 1.127.873.961 1.575z" fill="#2A3A66"/><g transform="translate(204.362 186.274)"><ellipse fill="#3D6694" cx="73.162" cy="17.352" rx="1.834" ry="1.849"/><ellipse fill="#3D6694" cx="45.545" cy="5.501" rx="1" ry="1"/><path d="M89.917.015c.716-.005 1.3.577 1.305 1.3a1.302 1.302 0 0 1-1.289 1.315 1.302 1.302 0 0 1-1.305-1.3 1.303 1.303 0 0 1 1.29-1.315z" fill="#2A3A66"/><ellipse fill="#2A3A66" cx="2.588" cy="151.629" rx="2.4" ry="2.419"/></g><g transform="translate(203.763 313.577)"><ellipse fill="#3D6694" cx="24.568" cy="2.019" rx="1.834" ry="1.849"/><ellipse fill="#2A3A66" cx="1.47" cy="1.405" rx="1.297" ry="1.308"/></g><path d="M291.29 332.66a1.294 1.294 0 0 1-1.656.794 1.31 1.31 0 0 1-.789-1.67c.24-.68.981-1.036 1.656-.794a1.31 1.31 0 0 1 .789 1.67z" fill="#3D6694"/><path d="M268.186 337.304a1.294 1.294 0 0 1-1.657.795 1.31 1.31 0 0 1-.788-1.67c.24-.68.98-1.036 1.656-.795a1.31 1.31 0 0 1 .789 1.67zM150.274 310.39a1.28 1.28 0 0 1-1.637.786 1.295 1.295 0 0 1-.78-1.65 1.28 1.28 0 0 1 1.637-.785c.667.238 1.016.977.78 1.65z" fill="#2A3A66"/><g transform="translate(-29.03 76.103)"><path d="M39.306 33.634c0 .722-.581 1.308-1.298 1.308a1.302 1.302 0 0 1-1.297-1.308c0-.722.581-1.307 1.297-1.307.717 0 1.298.585 1.298 1.307z" fill="#FF207B"/><ellipse fill="#2A3A66" cx="42.224" cy="7.882" rx="2.908" ry="2.931"/></g><g transform="translate(63.209 62.954)"><ellipse fill="#3D6694" cx="1.89" cy="1.852" rx="1.834" ry="1.849"/><path d="M12.008 56.296a1.297 1.297 0 0 1-1.544-.999 1.308 1.308 0 0 1 .991-1.556c.7-.154 1.391.293 1.544 1a1.307 1.307 0 0 1-.99 1.555z" fill="#2A3A66"/></g><g transform="translate(-4.473 16.536)"><path d="M24.825.475a1.29 1.29 0 0 1 1.824.198c.449.562.36 1.385-.197 1.838a1.29 1.29 0 0 1-1.824-.198 1.315 1.315 0 0 1 .197-1.838z" fill="#3D6694"/><path d="M46.916 8.726a1.29 1.29 0 0 1 1.824.198c.45.563.362 1.386-.196 1.839a1.29 1.29 0 0 1-1.824-.198 1.314 1.314 0 0 1 .196-1.839z" fill="#2A3A66"/><ellipse fill="#2A3A66" cx="3.098" cy="14.336" rx="2.908" ry="2.931"/></g><g transform="translate(152.452 27.094)"><path d="M7.887 71.67a1.858 1.858 0 0 1 .601-2.544 1.826 1.826 0 0 1 2.524.605c.53.87.262 2.009-.601 2.544a1.826 1.826 0 0 1-2.524-.605z" fill="#F6EE65"/><path d="M12.996 101.1a.867.867 0 0 1 .28-1.187.852.852 0 0 1 1.18.283.867.867 0 0 1-.281 1.187.853.853 0 0 1-1.179-.282z" fill="#3D6694"/><ellipse fill="#3D6694" cx="46.834" cy="67.417" rx="1.297" ry="1.308"/><path d="M56.633 47.05a1.313 1.313 0 0 1 .425-1.798 1.291 1.291 0 0 1 1.785.428c.375.615.185 1.42-.425 1.799a1.291 1.291 0 0 1-1.785-.428z" fill="#2A3A66"/><ellipse fill="#2A3A66" cx="3.049" cy="3.046" rx="2.908" ry="2.931"/></g><path d="M110.282 130.449a1.834 1.834 0 0 1-2.21 1.37 1.85 1.85 0 0 1-1.36-2.226 1.834 1.834 0 0 1 2.21-1.371 1.85 1.85 0 0 1 1.36 2.227z" fill="#3D6694"/><path d="M138.214 43.813a1.297 1.297 0 0 1-1.562.97 1.308 1.308 0 0 1-.961-1.575 1.297 1.297 0 0 1 1.562-.97c.697.167 1.127.872.961 1.575z" fill="#2A3A66"/><path d="M102.987 181.947a1.86 1.86 0 0 1-.016-2.615 1.824 1.824 0 0 1 2.594-.016 1.86 1.86 0 0 1 .017 2.615 1.824 1.824 0 0 1-2.595.016z" fill="#3D6694"/><path d="M80.267 180.948a1.315 1.315 0 0 1-.011-1.85 1.29 1.29 0 0 1 1.834-.01c.51.507.515 1.334.012 1.848a1.29 1.29 0 0 1-1.835.012z" fill="#2A3A66"/><g transform="translate(36.056 118.538)"><path d="M243.681 1.867a1.294 1.294 0 0 1-1.656.795 1.31 1.31 0 0 1-.788-1.67c.24-.68.98-1.036 1.656-.794a1.31 1.31 0 0 1 .788 1.67z" fill="#3D6694"/><ellipse fill="#2A3A66" cx="219.355" cy="6.075" rx="1.297" ry="1.308"/><path d="M4.166 16.217a2.052 2.052 0 0 1-2.625 1.26A2.077 2.077 0 0 1 .29 14.83a2.052 2.052 0 0 1 2.625-1.26 2.077 2.077 0 0 1 1.25 2.647z" fill="#2A3A66"/></g><g transform="translate(78.582 277.12)"><ellipse fill="#3D6694" cx="46.741" cy="26.734" rx="1.834" ry="1.849"/><path d="M28.406 51.133a.856.856 0 1 1 1.673.367.856.856 0 0 1-1.018.66.863.863 0 0 1-.655-1.027zM11.28 14.035a1.297 1.297 0 0 1 1.543-1c.7.153 1.144.85.992 1.555a1.297 1.297 0 0 1-1.542 1 1.307 1.307 0 0 1-.993-1.555z" fill="#3D6694"/><path d="M100.241 1.08a1.297 1.297 0 0 1 1.543-1c.7.153 1.144.85.992 1.555a1.297 1.297 0 0 1-1.542 1 1.308 1.308 0 0 1-.993-1.554zM.17 37.956a2.908 2.908 0 0 1 3.458-2.243c1.57.343 2.566 1.904 2.226 3.486a2.908 2.908 0 0 1-3.459 2.243C.826 41.1-.17 39.538.17 37.956z" fill="#2A3A66"/></g><g transform="translate(39.45 203.208)"><path d="M2.992 3.47a1.826 1.826 0 0 1-2.535-.555A1.858 1.858 0 0 1 1.007.36a1.826 1.826 0 0 1 2.535.554 1.858 1.858 0 0 1-.55 2.556z" fill="#FF207B"/><ellipse fill="#2A3A66" cx="10.766" cy="28.244" rx="1.297" ry="1.308"/></g><g transform="translate(9.303 305.409)"><path d="M15.699 17.986a1.843 1.843 0 0 1 1.785-1.897 1.84 1.84 0 0 1 1.882 1.8 1.843 1.843 0 0 1-1.786 1.897 1.841 1.841 0 0 1-1.881-1.8z" fill="#3D6694"/><ellipse fill="#2A3A66" cx="1.298" cy="1.365" rx="1.297" ry="1.308"/></g><path d="M66.117 260.467a1.744 1.744 0 0 1 2.412-.57 1.775 1.775 0 0 1 .567 2.43 1.744 1.744 0 0 1-2.412.572 1.774 1.774 0 0 1-.567-2.432z" fill="#2A3A66"/><path d="M47.817 330.06a1.291 1.291 0 0 1 1.785-.423c.61.38.797 1.186.42 1.8a1.291 1.291 0 0 1-1.786.423 1.313 1.313 0 0 1-.42-1.8z" fill="#F6EE65"/><path d="M71.373 330.459a1.291 1.291 0 0 1 1.785-.423c.61.38.797 1.186.42 1.8a1.291 1.291 0 0 1-1.786.423 1.313 1.313 0 0 1-.42-1.8z" fill="#2A3A66"/><path d="M161.806 336.148a1.828 1.828 0 0 1 2.445.875 1.856 1.856 0 0 1-.868 2.464c-.915.44-2.01.048-2.445-.875a1.856 1.856 0 0 1 .868-2.464z" fill="#3D6694"/><path d="M39.514 284.028a1.292 1.292 0 0 1 1.729.619 1.312 1.312 0 0 1-.614 1.742c-.646.31-1.42.034-1.728-.618a1.312 1.312 0 0 1 .613-1.743z" fill="#2A3A66"/><path d="M308.41 210.025l.508 1.574h1.642c.233 0 .33.301.142.44l-1.329.972.508 1.574c.072.224-.182.41-.371.272l-1.328-.973-1.329.973c-.189.138-.443-.048-.37-.272l.507-1.574-1.328-.972c-.19-.139-.092-.44.141-.44h1.642l.507-1.574a.24.24 0 0 1 .459 0z" fill="#9DDCF9"/><path d="M196.713 170.954l.434 1.345h1.403c.2 0 .282.257.12.376l-1.134.831.433 1.345c.062.192-.155.35-.317.232l-1.135-.83-1.135.83c-.161.119-.378-.04-.317-.232l.434-1.345-1.135-.831c-.162-.119-.079-.376.12-.376h1.404l.434-1.345a.205.205 0 0 1 .39 0z" fill="#FF207B"/><path d="M205.064 178.758l.17.53h.553c.08 0 .112.102.048.148l-.447.328.17.53c.025.075-.06.138-.124.092l-.448-.328-.447.328c-.063.046-.15-.017-.125-.092l.171-.53-.447-.328c-.064-.046-.031-.148.047-.148h.553l.171-.53a.08.08 0 0 1 .155 0zm-3.483-144.224l1.403-.038.397-1.357a.205.205 0 0 1 .391-.01l.47 1.332 1.403-.038c.2-.006.29.249.131.372l-1.112.862.47 1.333c.066.189-.147.354-.311.24l-1.157-.8-1.113.863c-.158.122-.38-.03-.323-.224l.397-1.356-1.157-.8c-.164-.114-.088-.373.111-.379z" fill="#9DDCF9"/><path d="M256.055 71.288l.553-.015.157-.535a.081.081 0 0 1 .154-.004l.185.525.553-.015c.078-.002.114.098.052.147l-.439.34.185.524c.027.075-.057.14-.122.095l-.456-.315-.438.34a.082.082 0 0 1-.128-.088l.157-.535-.456-.315c-.065-.045-.035-.147.043-.15z" fill="#FF207B"/><path d="M11.287 81.334l.638 1.98h2.064c.293 0 .415.377.178.551l-1.67 1.223.638 1.98c.09.28-.229.514-.466.34l-1.67-1.222-1.67 1.223c-.237.173-.557-.06-.466-.342l.638-1.979-1.67-1.223c-.237-.173-.115-.552.178-.552h2.064l.638-1.979a.302.302 0 0 1 .576 0z" fill="#9DDCF9"/><path d="M59.644 173.344l.212.657h.685c.097 0 .138.126.059.183l-.555.406.212.657c.03.093-.076.17-.154.113l-.555-.406-.554.406c-.079.058-.185-.02-.155-.113l.212-.657-.554-.406a.1.1 0 0 1 .059-.183h.685l.212-.657a.1.1 0 0 1 .19 0z" fill="#F6EE65"/><path d="M69.941 268.994l.613 1.9h1.982c.282 0 .4.364.171.531l-1.603 1.175.612 1.9c.087.27-.22.495-.448.328l-1.603-1.175-1.604 1.175c-.228.167-.535-.058-.448-.328l.613-1.9-1.604-1.175c-.228-.167-.11-.53.17-.53h1.983l.613-1.9a.29.29 0 0 1 .553 0z" fill="#9DDCF9"/><path d="M218.403 298.262l.223.691h.72c.103 0 .146.132.063.193l-.584.427.223.691c.032.099-.08.18-.163.12l-.583-.428-.583.428c-.083.06-.195-.021-.163-.12l.223-.69-.584-.428c-.083-.06-.04-.193.062-.193h.721l.223-.691a.106.106 0 0 1 .202 0z" fill="#F6EE65"/><path d="M291.439 289.265l.124.387h.404c.057 0 .081.074.035.108l-.327.24.125.387a.059.059 0 0 1-.091.066l-.327-.239-.326.24c-.047.033-.11-.012-.092-.067l.125-.388-.327-.239c-.046-.034-.022-.108.035-.108h.404l.125-.387a.06.06 0 0 1 .113 0z" fill="#FF207B"/><path d="M53.15 281.545l.333 1.034h1.078c.154 0 .218.198.094.288l-.873.64.333 1.034c.048.147-.12.269-.243.178l-.873-.64-.873.64c-.124.09-.29-.032-.243-.178l.333-1.034-.873-.64c-.124-.09-.06-.288.093-.288h1.079l.333-1.034a.158.158 0 0 1 .302 0z" fill="#25CFE0"/><g transform="translate(289.013 17.93)"><g transform="translate(124.382 194.641)"><ellipse fill="#3D6694" cx="1.894" cy="28.66" rx="1.834" ry="1.849"/><path d="M14.68.897a.86.86 0 0 1-.855.863.86.86 0 0 1-.857-.863.86.86 0 0 1 .857-.864.86.86 0 0 1 .856.864zm24.54 32.594c0 .722-.58 1.307-1.297 1.307a1.302 1.302 0 0 1-1.297-1.307c0-.722.58-1.308 1.297-1.308.716 0 1.297.586 1.297 1.308z" fill="#3D6694"/><path d="M18.988 45.658c0 .723-.581 1.308-1.298 1.308a1.302 1.302 0 0 1-1.297-1.308c0-.722.581-1.307 1.297-1.307.717 0 1.298.585 1.298 1.307z" fill="#2A3A66"/><ellipse fill="#2A3A66" cx="42.138" cy="7.739" rx="2.908" ry="2.931"/></g><ellipse fill="#3D6694" cx="188.514" cy="224.073" rx="1.834" ry="1.849"/><path d="M136.952 57.94a1.29 1.29 0 0 1 1.824.198c.45.562.362 1.385-.196 1.838a1.29 1.29 0 0 1-1.824-.198 1.315 1.315 0 0 1 .196-1.838zm-33.607 21.744a1.501 1.501 0 0 1-.277 2.094c-.65.501-1.58.376-2.077-.28a1.501 1.501 0 0 1 .277-2.093 1.474 1.474 0 0 1 2.077.28z" fill="#2A3A66"/><ellipse fill="#3D6694" cx="171.91" cy="11.659" rx="1.834" ry="1.849"/><path d="M179.546 293.821a1.28 1.28 0 0 1-1.637.786 1.295 1.295 0 0 1-.78-1.65 1.28 1.28 0 0 1 1.638-.786c.667.239 1.016.977.779 1.65z" fill="#2A3A66"/><g transform="translate(.2 59.568)"><ellipse fill="#3D6694" cx="2.023" cy="28.769" rx="1.834" ry="1.849"/><ellipse fill="#3D6694" cx="13.953" cy="1.005" rx="1" ry="1"/><path d="M39.348 33.6c0 .722-.58 1.307-1.297 1.307a1.302 1.302 0 0 1-1.297-1.307c0-.722.581-1.308 1.297-1.308.717 0 1.297.586 1.297 1.308z" fill="#FF207B"/><path d="M19.116 45.767c0 .722-.58 1.308-1.297 1.308a1.302 1.302 0 0 1-1.297-1.308c0-.722.58-1.307 1.297-1.307.716 0 1.297.585 1.297 1.307z" fill="#2A3A66"/><ellipse fill="#2A3A66" cx="42.267" cy="7.848" rx="2.908" ry="2.931"/></g><g transform="translate(92.438 46.22)"><ellipse fill="#3D6694" cx="1.933" cy="2.017" rx="1.834" ry="1.849"/><path d="M12.051 56.461a1.297 1.297 0 0 1-1.543-.999 1.308 1.308 0 0 1 .99-1.556c.7-.153 1.391.294 1.544 1a1.307 1.307 0 0 1-.99 1.555z" fill="#2A3A66"/></g><g transform="translate(24.956)"><path d="M24.668.44a1.29 1.29 0 0 1 1.824.199c.45.562.361 1.385-.197 1.838a1.29 1.29 0 0 1-1.823-.198A1.315 1.315 0 0 1 24.668.44z" fill="#3D6694"/><path d="M46.76 8.692a1.29 1.29 0 0 1 1.824.198c.449.563.36 1.386-.197 1.839a1.29 1.29 0 0 1-1.824-.199 1.315 1.315 0 0 1 .197-1.838z" fill="#2A3A66"/><ellipse fill="#2A3A66" cx="2.942" cy="14.302" rx="2.908" ry="2.931"/></g><g transform="translate(181.682 10.559)"><ellipse fill="#F6EE65" cx="9.493" cy="70.666" rx="1.834" ry="1.849"/><path d="M.616 4.548A2.945 2.945 0 0 1 1.568.515a2.894 2.894 0 0 1 4 .96 2.945 2.945 0 0 1-.952 4.033 2.894 2.894 0 0 1-4-.96z" fill="#2A3A66"/></g><path d="M139.554 113.88a1.834 1.834 0 0 1-2.21 1.37 1.85 1.85 0 0 1-1.359-2.227 1.834 1.834 0 0 1 2.21-1.37 1.85 1.85 0 0 1 1.359 2.226z" fill="#3D6694"/><path d="M167.487 27.243a1.297 1.297 0 0 1-1.562.97 1.308 1.308 0 0 1-.962-1.575 1.297 1.297 0 0 1 1.562-.97c.697.168 1.128.873.962 1.575z" fill="#2A3A66"/><path d="M132.26 165.377a1.86 1.86 0 0 1-.017-2.615 1.824 1.824 0 0 1 2.594-.016 1.86 1.86 0 0 1 .017 2.615 1.824 1.824 0 0 1-2.594.016z" fill="#3D6694"/><path d="M109.54 164.378a1.315 1.315 0 0 1-.012-1.849 1.29 1.29 0 0 1 1.834-.012c.51.508.515 1.336.012 1.85a1.29 1.29 0 0 1-1.834.011zm-40.045-46.193a2.052 2.052 0 0 1-2.626 1.26 2.077 2.077 0 0 1-1.25-2.647 2.052 2.052 0 0 1 2.626-1.26 2.077 2.077 0 0 1 1.25 2.647z" fill="#2A3A66"/><g transform="translate(107.811 260.584)"><ellipse fill="#3D6694" cx="46.784" cy="26.7" rx="1.834" ry="1.849"/><path d="M28.449 51.1a.856.856 0 1 1 1.673.365.856.856 0 0 1-1.018.66.864.864 0 0 1-.655-1.026zM11.323 14.001a1.297 1.297 0 0 1 1.543-1c.7.153 1.144.849.992 1.554a1.297 1.297 0 0 1-1.542 1 1.307 1.307 0 0 1-.993-1.554z" fill="#3D6694"/><path d="M.213 37.922a2.908 2.908 0 0 1 3.458-2.243c1.57.343 2.566 1.904 2.225 3.486a2.908 2.908 0 0 1-3.458 2.243C.87 41.065-.127 39.504.213 37.922z" fill="#2A3A66"/></g><g transform="translate(68.88 186.672)"><path d="M2.835 3.436A1.826 1.826 0 0 1 .3 2.88 1.858 1.858 0 0 1 .85.326 1.826 1.826 0 0 1 3.385.88a1.858 1.858 0 0 1-.55 2.556z" fill="#FF207B"/><ellipse fill="#2A3A66" cx="10.609" cy="28.21" rx="1.297" ry="1.308"/></g><g transform="translate(0 304.811)"><path d="M1.536 18.49a.868.868 0 0 1 .032 1.221.851.851 0 0 1-1.21.032.868.868 0 0 1-.032-1.22.851.851 0 0 1 1.21-.032z" fill="#3D6694"/><ellipse fill="#2A3A66" cx="25.358" cy="3.121" rx="2.908" ry="2.931"/></g><g transform="translate(38.533 288.873)"><path d="M15.741 17.952a1.843 1.843 0 0 1 1.786-1.897 1.84 1.84 0 0 1 1.882 1.8 1.843 1.843 0 0 1-1.786 1.897 1.84 1.84 0 0 1-1.882-1.8z" fill="#3D6694"/><ellipse fill="#2A3A66" cx="1.34" cy="1.33" rx="1.297" ry="1.308"/></g><g transform="translate(19.166 210.18)"><path d="M6.593 22.79a1.828 1.828 0 0 1 2.447-.867 1.856 1.856 0 0 1 .86 2.466 1.828 1.828 0 0 1-2.447.868 1.856 1.856 0 0 1-.86-2.467z" fill="#3D6694"/><ellipse fill="#2A3A66" cx="1.299" cy="1.376" rx="1.297" ry="1.308"/></g><path d="M7.8 155.48a1.291 1.291 0 0 1 1.786-.423c.609.38.796 1.186.42 1.8a1.291 1.291 0 0 1-1.786.422 1.313 1.313 0 0 1-.42-1.8zm87.59 88.417a1.744 1.744 0 0 1 2.412-.57 1.774 1.774 0 0 1 .566 2.43 1.744 1.744 0 0 1-2.412.572 1.775 1.775 0 0 1-.566-2.432z" fill="#2A3A66"/><path d="M77.089 313.49a1.291 1.291 0 0 1 1.786-.423c.609.38.796 1.186.42 1.8a1.291 1.291 0 0 1-1.787.423 1.313 1.313 0 0 1-.419-1.8z" fill="#F6EE65"/><path d="M100.645 313.89a1.291 1.291 0 0 1 1.786-.424c.609.38.796 1.187.42 1.8a1.291 1.291 0 0 1-1.786.423 1.313 1.313 0 0 1-.42-1.8z" fill="#2A3A66"/><path d="M191.078 319.578a1.828 1.828 0 0 1 2.445.875 1.856 1.856 0 0 1-.868 2.464 1.828 1.828 0 0 1-2.444-.874 1.855 1.855 0 0 1 .867-2.465z" fill="#3D6694"/><path d="M68.787 267.458a1.292 1.292 0 0 1 1.728.619 1.312 1.312 0 0 1-.613 1.742c-.647.31-1.42.034-1.729-.618a1.312 1.312 0 0 1 .614-1.743z" fill="#2A3A66"/></g><path d="M258.028 14.562l.638 1.98h2.064c.294 0 .416.378.178.552l-1.67 1.223.638 1.978c.091.282-.228.516-.466.342l-1.67-1.223-1.67 1.223c-.237.173-.556-.06-.465-.342l.637-1.978-1.67-1.223c-.237-.174-.115-.553.179-.553h2.064l.638-1.979a.302.302 0 0 1 .575 0z" fill="#9DDCF9"/><path d="M377.93 174.704l.211.657h.686c.097 0 .138.126.059.183l-.555.406.212.657c.03.094-.076.171-.154.114l-.555-.406-.554.406c-.079.057-.185-.02-.155-.114l.212-.657-.554-.406c-.08-.057-.039-.183.059-.183h.685l.212-.657a.1.1 0 0 1 .19 0z" fill="#F6EE65"/><path d="M388.227 270.355l.613 1.9h1.982c.282 0 .399.364.17.53l-1.603 1.175.613 1.9c.087.271-.22.495-.448.329l-1.604-1.175-1.603 1.175c-.228.166-.535-.058-.448-.328l.613-1.9-1.604-1.175c-.228-.167-.11-.53.17-.53h1.983l.613-1.901a.29.29 0 0 1 .553 0z" fill="#9DDCF9"/><path d="M371.436 282.906l.333 1.034h1.078c.154 0 .217.197.093.288l-.872.64.333 1.033c.047.147-.12.27-.244.178l-.872-.639-.873.64c-.124.09-.29-.032-.243-.179l.333-1.034-.873-.639c-.124-.09-.06-.288.093-.288h1.079l.333-1.034a.158.158 0 0 1 .302 0z" fill="#25CFE0"/><g transform="translate(471.094 41.837)"><ellipse fill="#3C3F7A" opacity=".3" cx="9.093" cy="9.188" rx="9.089" ry="9.162"/><ellipse fill="#36386F" cx="9.093" cy="9.188" rx="8.442" ry="8.51"/><path d="M10.17 12.926a.826.826 0 0 0-.822-.83H4.56a.63.63 0 0 1-.628-.632v-.19a.63.63 0 0 1 .628-.632h2.536a.63.63 0 0 0 .628-.633.63.63 0 0 0-.628-.632H2.037a.63.63 0 0 1-.627-.633v-.151a.63.63 0 0 1 .627-.633h2.654a.706.706 0 0 0 .703-.708.706.706 0 0 0-.703-.709H1.068A8.562 8.562 0 0 0 .65 9.188c0 1.68.484 3.248 1.318 4.567h7.379a.826.826 0 0 0 .822-.83z" fill="#303163"/><path d="M14.058 2.305a9.458 9.458 0 0 1 1.484 5.51c-.217 5.21-4.583 9.257-9.752 9.038a9.514 9.514 0 0 1-.422-.027 8.358 8.358 0 0 0 3.372.864c4.658.197 8.593-3.45 8.788-8.146a8.526 8.526 0 0 0-3.47-7.24z" opacity=".3" fill="#22224F"/></g><g transform="translate(370.47 18.528)"><ellipse fill="#CA2E8E" opacity=".3" cx="32.279" cy="32.552" rx="32.27" ry="32.529"/><ellipse fill="#901E91" cx="32.279" cy="32.552" rx="29.971" ry="30.212"/><path d="M25.567 45.823c0-1.626-1.307-2.944-2.92-2.944H19.9a2.572 2.572 0 0 1-2.561-2.582 2.572 2.572 0 0 1 2.561-2.582h7.787a2.238 2.238 0 0 0 2.229-2.247c0-1.24-.998-2.246-2.229-2.246H10.423a2.505 2.505 0 0 1-2.495-2.515 2.505 2.505 0 0 1 2.495-2.515h5.69a2.505 2.505 0 0 0 2.494-2.515 2.505 2.505 0 0 0-2.495-2.515H3.787a30.405 30.405 0 0 0-1.478 9.39 30.24 30.24 0 0 0 4.678 16.214h15.66c1.613 0 2.92-1.318 2.92-2.943zm2.889-26.542c0 1.626 1.307 2.944 2.92 2.944h16.998a2.238 2.238 0 0 1 2.23 2.246v.67a2.238 2.238 0 0 1-2.23 2.247H39.37a2.238 2.238 0 0 0-2.23 2.247 2.24 2.24 0 0 0 2.23 2.247h17.96a2.238 2.238 0 0 1 2.229 2.246v.537c0 1.24-.998 2.246-2.23 2.246h-9.42a2.505 2.505 0 0 0-2.496 2.515 2.505 2.505 0 0 0 2.495 2.515h12.864a30.403 30.403 0 0 0 1.479-9.39c0-5.967-1.717-11.53-4.68-16.214H31.377c-1.613 0-2.92 1.318-2.92 2.944z" fill="#771276"/><path d="M48.875 7.393a33.554 33.554 0 0 1 6.076 19.32c0 18.516-14.89 33.525-33.258 33.525-.504 0-1.004-.013-1.502-.035a29.662 29.662 0 0 0 12.088 2.56c16.553 0 29.971-13.526 29.971-30.211a30.244 30.244 0 0 0-13.375-25.16z" opacity=".3" fill="#571E71"/></g><path d="M150.602 243.005L23.46 296.732a.24.24 0 0 1-.191-.438l126.013-56.315c.834-.372 1.813 0 2.186.832a1.65 1.65 0 0 1-.833 2.181l-.032.013z" fill="url(#a)" transform="translate(-46)"/><path d="M123.766 297.042L56.52 317.215a.24.24 0 0 1-.143-.457l66.8-21.602a.987.987 0 1 1 .61 1.88l-.02.006z" fill="url(#b)" transform="translate(-46)"/><path d="M435.037 145.276l125.178-58.14a.239.239 0 1 1 .207.432l-123.958 60.686a1.656 1.656 0 0 1-2.214-.755 1.649 1.649 0 0 1 .757-2.208l.03-.015z" fill="url(#c)" transform="translate(-46)"/><path d="M302.305 33.691l66.497-22.513a.24.24 0 0 1 .159.451l-66 23.926a.987.987 0 1 1-.656-1.864z" fill="url(#d)" transform="translate(-46)"/><path d="M523.203 358.602V169.324c-112.504-48.917-244.144.331-297.238 112.784-11.71 24.8-18.639 50.65-21.168 76.494h318.406z" fill="#C8B3FF" opacity=".06"/><path d="M523.203 358.602V210.16a194.813 194.813 0 0 0-7.854-3.993c-95.94-46.027-210.73-4.942-256.392 91.77-9.294 19.683-15.007 40.154-17.404 60.665h281.65z" fill="#A27AFF"/><path d="M345.073 358.602c.084-1.234.128-2.483.128-3.746 0-21.68-12.523-39.255-27.97-39.255s-27.97 17.575-27.97 39.255c0 1.263.045 2.512.128 3.746h55.684zm6.364 0h1.475a44.62 44.62 0 0 0-.053-6.355c-.422-5.5-1.983-10.944-4.764-15.652 2.181 5.007 3.333 10.355 3.52 15.724a53.366 53.366 0 0 1-.178 6.283z" fill="#9166FF"/><g fill="#875FED"><path d="M293.138 358.602c.808-20.664 13.001-37.07 27.926-37.07 7.188 0 13.742 3.807 18.697 10.061-5.093-9.698-13.287-15.992-22.53-15.992-15.447 0-27.97 17.575-27.97 39.255 0 1.263.046 2.512.129 3.746h3.748z"/><path d="M293.438 358.602c.41-9.78 3.339-19.878 9.706-27.493 5.371-6.426 13.438-10.63 21.954-8.867 5.869 1.214 10.772 4.964 14.451 9.563.22.275.622-.075.47-.362-2.851-5.38-6.9-10.304-12.276-13.318-4.548-2.55-9.886-3.464-14.996-2.328-10.262 2.282-17.241 11.652-20.682 21.02-2.549 6.94-3.447 14.425-2.974 21.785.01.16.128.298.299.298h3.748c.385 0 .386-.597 0-.597h-3.748l.3.299c-.75-11.67 1.973-24.28 9.624-33.428 3.033-3.626 6.897-6.662 11.415-8.191 4.867-1.648 10.192-1.366 14.88.735 6.183 2.772 10.776 8.146 13.893 14.026l.47-.362c-3.313-4.141-7.602-7.6-12.725-9.2a20.844 20.844 0 0 0-13.134.255c-8.397 2.976-14.252 10.62-17.545 18.594-2.302 5.574-3.477 11.559-3.73 17.57-.016.385.583.384.6 0z"/></g><g transform="translate(448.334 287.479)"><ellipse fill="#9166FF" transform="rotate(-57.317 14.893 16.024)" cx="14.893" cy="16.024" rx="12.951" ry="9.189"/><path d="M8.487 12.525C12.35 6.517 18.95 3.869 23.231 6.609c.194.124.376.26.554.401a6.77 6.77 0 0 0-1.92-1.867c-4.281-2.74-10.882-.092-14.744 5.915-3.687 5.736-3.543 12.456.202 15.437-2.343-3.386-2.005-9.042 1.164-13.97z" fill="#875FED"/><path d="M12.046 29.94c.904.043 1.777-.15 2.607-.449.832-.295 1.643-.67 2.426-1.075a19.98 19.98 0 0 0 2.256-1.374 18.755 18.755 0 0 0 2.057-1.648 18.435 18.435 0 0 0 3.366-4.03 14.946 14.946 0 0 0 1.918-4.93c-.011 1.805-.523 3.616-1.375 5.235-.419.816-.935 1.579-1.495 2.305a17.91 17.91 0 0 1-1.876 2.008 17.085 17.085 0 0 1-4.582 2.992 15.22 15.22 0 0 1-2.586.89c-.888.206-1.834.296-2.716.075z" fill="#9166FF"/></g><path d="M357.236 243.084c-9.95 0-18.016 6.419-18.016 14.337 0 2.18.613 4.247 1.707 6.097.206-5.64 4.8-10.313 9.58-12.794 6.87-3.428 16.063-4.296 22.512-.221-3.068-4.423-8.986-7.419-15.783-7.419z" fill="#875FED"/><path d="M350.506 250.724c-4.78 2.48-9.373 7.154-9.579 12.794 2.88 4.868 9.1 8.238 16.31 8.238 9.95 0 18.016-6.418 18.016-14.336 0-2.508-.811-4.866-2.234-6.918-6.45-4.074-15.641-3.206-22.513.222z" fill="#9166FF"/><path d="M348.25 275.71c1.302.65 2.697.939 4.103 1.05 1.406.122 2.836.11 4.243.041.705-.03 1.407-.1 2.106-.171a35.716 35.716 0 0 0 2.087-.307 32.745 32.745 0 0 0 4.088-.99c.335-.104.67-.208 1-.326.334-.11.661-.235.99-.358.33-.118.65-.258.977-.386l.962-.421a29.43 29.43 0 0 0 3.685-2.017 24.782 24.782 0 0 0 6.233-5.742c-1.194 2.646-3.167 4.959-5.504 6.762a23.725 23.725 0 0 1-3.756 2.358 26.926 26.926 0 0 1-4.115 1.651 27.096 27.096 0 0 1-4.326.959 25.96 25.96 0 0 1-4.416.237 24.323 24.323 0 0 1-4.376-.522c-.719-.169-1.433-.377-2.11-.675a9.461 9.461 0 0 1-.983-.505 7.702 7.702 0 0 1-.887-.638z" fill="#9166FF"/><path d="M297.058 252.326c-2.995 2.036-4.104 5.619-2.477 8.002a4.35 4.35 0 0 0 1.767 1.486c-1.097-1.74-.675-4.086.254-5.811 1.364-2.438 3.953-4.58 6.731-4.674-1.832-.703-4.229-.394-6.275.997z" fill="#875FED"/><path d="M296.602 256.003c-.929 1.725-1.351 4.071-.254 5.811 1.868.876 4.432.618 6.602-.857 2.995-2.036 4.104-5.619 2.477-8.002-.515-.756-1.244-1.3-2.094-1.626-2.778.094-5.367 2.236-6.73 4.674z" fill="#9166FF"/><path d="M301.058 263.985c.525-.07 1.005-.269 1.45-.523.449-.251.877-.547 1.286-.856.206-.153.403-.318.6-.483.191-.169.383-.339.564-.519a11.92 11.92 0 0 0 1.027-1.135c.08-.1.16-.199.235-.302.077-.101.15-.206.224-.31.075-.104.143-.211.215-.317l.203-.323c.263-.437.495-.891.694-1.362.4-.94.636-1.95.696-3.003.185 1.04.066 2.14-.267 3.162a8.612 8.612 0 0 1-.645 1.478 9.77 9.77 0 0 1-2.005 2.513 9.42 9.42 0 0 1-2.705 1.713c-.251.096-.51.18-.774.228a2.766 2.766 0 0 1-.798.039z" fill="#9166FF"/><g transform="translate(380.653 321.347)"><ellipse fill="#9166FF" cx="5.175" cy="5.343" rx="5.118" ry="5.159"/><path d="M3 11.64c.336.116.663.153.995.15.331 0 .668-.02.995-.053a9.652 9.652 0 0 0 1.917-.386 8.59 8.59 0 0 0 1.784-.771 7.454 7.454 0 0 0 1.582-1.237c-.21.676-.663 1.28-1.218 1.747-.558.468-1.22.81-1.912 1.022a5.86 5.86 0 0 1-2.146.25 5.064 5.064 0 0 1-1.062-.187c-.346-.107-.695-.268-.935-.535z" fill="#9166FF"/><path d="M1.191 6.852c0-2.85 2.292-5.159 5.118-5.159 1.326 0 2.534.508 3.443 1.342A5.113 5.113 0 0 0 5.175.185C2.35.185.058 2.495.058 5.343c0 1.513.646 2.874 1.675 3.817a5.17 5.17 0 0 1-.542-2.308z" fill="#875FED"/></g><g transform="translate(435.956 214.364)"><ellipse fill="#9166FF" cx="30.712" cy="14.986" rx="30.527" ry="14.969"/><path d="M6.95 32.42c2.181.839 4.458 1.29 6.749 1.598 1.145.158 2.296.284 3.451.385.577.056 1.155.097 1.73.15.578.049 1.156.082 1.733.124 4.619.282 9.247.272 13.851-.047 4.602-.334 9.19-.941 13.667-2.031 2.235-.553 4.449-1.21 6.585-2.076 1.079-.41 2.12-.907 3.153-1.43l.765-.41c.257-.134.498-.295.75-.44.509-.282.977-.625 1.472-.937a22.432 22.432 0 0 1-2.762 2.167 29.56 29.56 0 0 1-3.055 1.763c-1.051.534-2.139.989-3.233 1.428-.552.204-1.102.42-1.663.598l-.84.278c-.28.092-.562.172-.844.259-2.255.686-4.559 1.2-6.879 1.592-.58.096-1.161.192-1.744.27l-.873.122-.876.106c-1.168.14-2.34.242-3.511.33a78.042 78.042 0 0 1-14.072-.308 70.368 70.368 0 0 1-6.944-1.127c-1.145-.265-2.285-.56-3.397-.944a24.617 24.617 0 0 1-1.643-.634 17.84 17.84 0 0 1-1.57-.786z" fill="#9166FF"/><path d="M7.123 19.307c0-8.267 13.667-14.97 30.527-14.97 7.707 0 14.746 1.402 20.119 3.712C52.667 3.275 42.466.017 30.712.017 13.852.017.185 6.72.185 14.986c0 4.488 4.029 8.514 10.409 11.257-2.216-2.073-3.471-4.433-3.471-6.936z" fill="#875FED"/></g><path d="M-45.816 0v212.25a183.32 183.32 0 0 0 33.512 3.077c101.467 0 183.722-82.916 183.722-185.197 0-10.26-.832-20.324-2.424-30.13h-214.81z" fill="#F6EE2A" opacity=".05"/><path d="M-45.816 0v173.929a145.816 145.816 0 0 0 33.512 3.883c80.913 0 146.506-66.12 146.506-147.682A149.42 149.42 0 0 0 131.147 0H-45.816z" fill="#F6EE2A" opacity=".05"/><path d="M-45.816 0v132.757a106.277 106.277 0 0 0 33.512 5.39c59.18 0 107.156-48.361 107.156-108.017 0-10.458-1.477-20.567-4.228-30.13h-136.44z" fill="#F6EE2A" opacity=".05"/><path d="M-45.816 0v110.336c10.304 4.38 21.627 6.801 33.512 6.801 47.67 0 86.314-38.954 86.314-87.007 0-10.592-1.878-20.742-5.317-30.13H-45.816z" fill="#FFE235"/></g></svg>