<svg width="120" height="120" viewBox="0 0 120 120" xmlns="http://www.w3.org/2000/svg" xmlns:xlink="http://www.w3.org/1999/xlink"><defs><path id="a" d="M0 119.173h66.55V0H0z"/></defs><g transform="translate(27)" fill="none" fill-rule="evenodd"><path d="M30.561 24.492l-1.772-.88 5.01-9.989a.99.99 0 0 1 .976-.539.989.989 0 0 1 .863.707l2.912 9.986-1.903.549-2.206-7.564-3.88 7.73zM41.82 2.239a1.842 1.842 0 0 0-1.844 1.837c0 .236.048.458.128.663l-3.672 3.654 1.051 1.043 3.67-3.653c.208.082.431.13.667.13a1.84 1.84 0 0 0 1.845-1.837 1.841 1.841 0 0 0-1.845-1.837" fill="#333E48"/><path d="M45.917 14.77c-4.1 4.08-10.746 4.08-14.844 0a10.408 10.408 0 0 1 0-14.77l14.844 14.77z" fill="#608085"/><mask id="b" fill="#fff"><use xlink:href="#a"/></mask><path fill="#F2D383" mask="url(#b)" d="M10.714 44.648h47.241V25.64h-47.24z"/><path fill="#595658" mask="url(#b)" d="M8.696 25.64h51.272v-3.37H8.696z"/><path d="M28.575 34.142c0-2.745-2.233-4.971-4.993-4.971-2.759 0-4.996 2.226-4.996 4.97 0 2.745 2.237 4.97 4.996 4.97 2.76 0 4.993-2.225 4.993-4.97" fill="#007298" mask="url(#b)"/><path d="M27.114 30.628l-7.064 7.028a4.996 4.996 0 0 0 3.532 1.455c2.76 0 4.993-2.225 4.993-4.97a4.939 4.939 0 0 0-1.46-3.513" fill="#005E85" mask="url(#b)"/><path d="M50.082 34.142c0-2.745-2.235-4.971-4.994-4.971-2.76 0-4.997 2.226-4.997 4.97 0 2.745 2.237 4.97 4.997 4.97s4.994-2.225 4.994-4.97" fill="#007298" mask="url(#b)"/><path d="M48.62 30.628l-7.064 7.028a4.993 4.993 0 0 0 3.532 1.455c2.76 0 4.994-2.225 4.994-4.97a4.943 4.943 0 0 0-1.462-3.513" fill="#005E85" mask="url(#b)"/><path fill="#FAE7BB" mask="url(#b)" d="M10.714 44.648h4.046V25.64h-4.046z"/><path fill="#F2D383" mask="url(#b)" d="M1.51 119.173h63.532v-72.75H1.51z"/><path fill="#595658" mask="url(#b)" d="M0 46.422h66.55v-3.37H0z"/><path fill="#007298" mask="url(#b)" d="M10.713 59.355h5.215v-8.646h-5.215z"/><path fill="#005E85" mask="url(#b)" d="M15.928 59.355h-5.215l5.215-8.646z"/><path fill="#007298" mask="url(#b)" d="M20.974 59.355h5.214v-8.646h-5.214z"/><path fill="#005E85" mask="url(#b)" d="M26.188 59.355h-5.214l5.214-8.646z"/><path fill="#007298" mask="url(#b)" d="M31.235 59.355h5.214v-8.646h-5.214z"/><path fill="#005E85" mask="url(#b)" d="M36.449 59.355h-5.214l5.214-8.646z"/><path fill="#007298" mask="url(#b)" d="M41.496 59.355h5.212v-8.646h-5.212z"/><path fill="#005E85" mask="url(#b)" d="M46.708 59.355h-5.212l5.212-8.646z"/><path fill="#007298" mask="url(#b)" d="M51.758 59.355h5.212v-8.646h-5.212z"/><path fill="#005E85" mask="url(#b)" d="M56.97 59.355h-5.212l5.212-8.646z"/><path fill="#007298" mask="url(#b)" d="M10.713 72.36h5.215v-8.648h-5.215z"/><path fill="#005E85" mask="url(#b)" d="M15.928 72.36h-5.215l5.215-8.648z"/><path fill="#007298" mask="url(#b)" d="M20.974 72.36h5.214v-8.648h-5.214z"/><path fill="#005E85" mask="url(#b)" d="M26.188 72.36h-5.214l5.214-8.648z"/><path fill="#007298" mask="url(#b)" d="M31.235 72.36h5.214v-8.648h-5.214z"/><path fill="#005E85" mask="url(#b)" d="M36.449 72.36h-5.214l5.214-8.648z"/><path fill="#007298" mask="url(#b)" d="M41.496 72.36h5.212v-8.648h-5.212z"/><path fill="#005E85" mask="url(#b)" d="M46.708 72.36h-5.212l5.212-8.648z"/><path fill="#007298" mask="url(#b)" d="M51.758 72.36h5.212v-8.648h-5.212z"/><path fill="#005E85" mask="url(#b)" d="M56.97 72.36h-5.212l5.212-8.648z"/><path fill="#007298" mask="url(#b)" d="M10.714 82.84H56.97v-4.323H10.714z"/><path fill="#005E85" mask="url(#b)" d="M56.97 82.84H10.714l46.256-4.323z"/><path fill="#007298" mask="url(#b)" d="M10.713 98.367h5.215V89.72h-5.215z"/><path fill="#005E85" mask="url(#b)" d="M15.928 98.367h-5.215l5.215-8.647z"/><path fill="#007298" mask="url(#b)" d="M20.974 98.367h5.214V89.72h-5.214z"/><path fill="#005E85" mask="url(#b)" d="M26.188 98.367h-5.214l5.214-8.647z"/><path fill="#007298" mask="url(#b)" d="M31.235 98.367h5.214V89.72h-5.214z"/><path fill="#005E85" mask="url(#b)" d="M36.449 98.367h-5.214l5.214-8.647z"/><path fill="#007298" mask="url(#b)" d="M41.496 98.367h5.212V89.72h-5.212z"/><path fill="#005E85" mask="url(#b)" d="M46.708 98.367h-5.212l5.212-8.647z"/><path fill="#007298" mask="url(#b)" d="M51.758 98.367h5.212V89.72h-5.212z"/><path fill="#005E85" mask="url(#b)" d="M56.97 98.367h-5.212l5.212-8.647z"/><path fill="#007298" mask="url(#b)" d="M10.713 111.372h5.215v-8.648h-5.215z"/><path fill="#005E85" mask="url(#b)" d="M15.928 111.371h-5.215l5.215-8.647z"/><path fill="#007298" mask="url(#b)" d="M20.974 111.372h5.214v-8.648h-5.214z"/><path fill="#005E85" mask="url(#b)" d="M26.188 111.371h-5.214l5.214-8.647z"/><path fill="#007298" mask="url(#b)" d="M31.235 111.372h5.214v-8.648h-5.214z"/><path fill="#005E85" mask="url(#b)" d="M36.449 111.371h-5.214l5.214-8.647z"/><path fill="#007298" mask="url(#b)" d="M41.496 111.372h5.212v-8.648h-5.212z"/><path fill="#005E85" mask="url(#b)" d="M46.708 111.371h-5.212l5.212-8.647z"/><path fill="#007298" mask="url(#b)" d="M51.758 111.372h5.212v-8.648h-5.212z"/><path fill="#005E85" mask="url(#b)" d="M56.97 111.371h-5.212l5.212-8.647z"/></g></svg>