<svg width="120" height="120" viewBox="0 0 120 120" xmlns="http://www.w3.org/2000/svg" xmlns:xlink="http://www.w3.org/1999/xlink"><defs><path id="a" d="M0 119.143h90.939V.397H0z"/></defs><g fill="none" fill-rule="evenodd"><path fill="#196B94" d="M43.58 83.41H26.52l2.476-81.364h12.658zm23.932 0H50.451l2.476-81.364h12.659zm24.888 0H75.34l2.476-81.364h12.658z"/><path fill="#5979A6" d="M20.743 67.038h79.452V49.834H20.743z"/><g transform="translate(15 .46)"><path d="M28.544 1.389a.99.99 0 0 1-.992.99H13.403a.992.992 0 1 1 0-1.982h14.149c.548 0 .992.444.992.992m23.83 0c0 .547-.445.99-.993.99H37.233a.992.992 0 1 1 0-1.982H51.38c.548 0 .993.444.993.992m24.822 0a.99.99 0 0 1-.992.99H62.054a.992.992 0 1 1 0-1.982h14.149c.548 0 .992.444.992.992" fill="#196B94"/><mask id="b" fill="#fff"><use xlink:href="#a"/></mask><path fill="#50B6C7" mask="url(#b)" d="M0 119.143h90.939V59.887H0z"/><path fill="#196B94" mask="url(#b)" d="M5.743 72.311h33.504v-5.733H5.743zm41.161 0H80.41v-5.733H46.904z"/><path fill="#FFF" mask="url(#b)" d="M5.743 82.825h33.504V77.09H5.743z"/><path fill="#196B94" mask="url(#b)" d="M46.904 82.825H80.41V77.09H46.904zM5.743 93.339h33.504v-5.736H5.743zm41.161 0H80.41v-5.736H46.904zM5.743 103.85h33.504v-5.733H5.743z"/><path fill="#FFF" mask="url(#b)" d="M46.904 103.85H80.41v-5.733H46.904z"/><path fill="#196B94" mask="url(#b)" d="M5.743 114.364h33.504v-5.734H5.743zm41.161 0H80.41v-5.734H46.904z"/></g></g></svg>