<svg width="39" height="37" viewBox="-1 -1 39 37" xmlns="http://www.w3.org/2000/svg"><path fill="#FAAC18" stroke="#000" stroke-width="2.183" d="M19.07 34.984c9.5 0 17.427-6.565 17.427-16.063.001-9.5-7.928-17.43-17.427-17.43-9.5 0-17.428 7.929-17.428 17.43 0 9.499 7.927 16.063 17.428 16.063h0z"/><path d="M10.914 28.377c-.11-.009-.082.409-.597.409s-.455-.371-.594-.359c-.28.024-.145 1.028.635 1.004.786-.024.778-1.037.556-1.054zm6.568 1.73c-.14-.011-.104.511-.748.511s-.568-.465-.742-.449c-.35.03-.182 1.288.793 1.257.986-.032.974-1.298.697-1.32zm6.823-1.861c-.14-.01-.103.512-.748.512-.644 0-.567-.466-.742-.45-.35.031-.182 1.288.793 1.257.986-.034.975-1.3.697-1.32zm-1.285 3.316c-.14-.01-.104.512-.747.512s-.57-.465-.743-.45c-.349.03-.182 1.288.795 1.257.984-.031.973-1.298.695-1.319zm-3.302-7.215c-.112-.009-.082.41-.598.41-.515 0-.455-.372-.594-.36-.28.024-.144 1.03.635 1.006.788-.027.779-1.039.557-1.056zM7.164 22.486c-.112-.008-.082.41-.598.41-.515 0-.455-.373-.594-.359-.28.024-.144 1.029.635 1.005.788-.027.779-1.04.557-1.056zm6.962 2.794c-.111-.01-.082.41-.597.41s-.456-.373-.594-.36c-.28.024-.146 1.03.635 1.005.786-.026.778-1.04.556-1.055zm-5.751-6.574c-.1-.008-.074.358-.526.358-.45 0-.399-.324-.52-.315-.244.021-.126.9.557.88.69-.022.682-.908.489-.923zm7.035-.064c-.111-.01-.082.409-.597.409-.516 0-.456-.372-.594-.36-.28.025-.144 1.03.634 1.005.789-.025.78-1.04.558-1.054zm-3.287-5.663c-.097-.008-.072.356-.523.356-.45 0-.398-.323-.52-.314-.244.021-.127.9.556.88.69-.021.683-.908.487-.922zm17.651 9.507c-.11-.008-.081.41-.597.41-.515 0-.455-.373-.593-.36-.28.025-.145 1.03.634 1.006.787-.027.778-1.04.556-1.056zM28.321 9.534c-.078-.006-.06.294-.43.294-.372 0-.328-.267-.428-.258-.199.017-.105.741.457.723.567-.018.562-.747.401-.759zm5.385 11.072c-.116-.008-.086.423-.62.423-.533 0-.47-.382-.615-.37-.288.022-.15 1.064.656 1.038.819-.025.81-1.074.58-1.091zm-.02 3.741c-.11-.009-.082.41-.597.41s-.456-.372-.593-.36c-.28.024-.146 1.03.634 1.006.787-.027.778-1.039.556-1.056zM10.746 7.673c-.081-.006-.06.294-.431.294-.373 0-.328-.267-.427-.259-.201.017-.106.741.456.722.568-.017.562-.746.402-.757zM33.5 16.586c-.075-.006-.057.283-.411.283-.355 0-.316-.256-.41-.247-.193.017-.1.71.44.692.54-.017.535-.716.381-.728zM21.418 7.673c-.081-.006-.06.294-.431.294-.373 0-.328-.267-.427-.259-.201.017-.106.741.456.722.568-.017.562-.746.402-.757zM22.78 3.94c-.081-.006-.06.293-.433.293-.371 0-.327-.266-.427-.257-.2.016-.106.74.456.721.57-.017.563-.745.403-.757zm6.332 23.508c-.112-.01-.083.409-.598.409-.516 0-.456-.372-.594-.359-.28.023-.145 1.028.634 1.004.788-.026.779-1.038.558-1.054zM5.11 13.91c-.097-.008-.072.357-.523.357-.45 0-.398-.325-.52-.314-.244.02-.127.9.556.879.69-.021.682-.908.488-.922zm18.549-.213c-.1-.007-.075.357-.526.357-.449 0-.399-.324-.52-.314-.244.02-.127.9.557.88.69-.023.682-.91.489-.923zm8-2.616c-.077-.005-.057.284-.413.284-.355 0-.314-.257-.409-.249-.193.017-.1.71.44.693.541-.017.535-.717.382-.728zM25.442 23.92c-.112-.009-.083.41-.599.41-.515 0-.455-.371-.593-.359-.28.024-.145 1.029.634 1.004.788-.025.779-1.039.558-1.054zm-.424-5.278c-.112-.01-.082.409-.598.409-.515 0-.456-.372-.594-.36-.279.025-.145 1.03.635 1.005.788-.025.778-1.04.557-1.054zm3.908-2.986c-.075-.006-.055.283-.411.283-.355 0-.316-.257-.41-.248-.193.017-.1.711.44.693.54-.018.535-.717.381-.728zm-8.625 4.968c-.112-.01-.083.409-.598.409s-.455-.371-.592-.358c-.281.023-.146 1.029.634 1.003.788-.025.778-1.037.556-1.054zm-2.396-6.927c-.098-.007-.073.357-.523.357s-.398-.324-.52-.314c-.245.02-.129.9.555.88.69-.023.681-.91.488-.923zm-1.097-7.208c-1.846.177-2.052-1.98-.205-2.157 1.847-.176 2.052 1.98.205 2.157" fill="#231F20"/></svg>