<svg width="120" height="120" viewBox="0 0 120 120" xmlns="http://www.w3.org/2000/svg" xmlns:xlink="http://www.w3.org/1999/xlink"><defs><path id="a" d="M0 .342h119.03v69.343H0z"/></defs><g fill="none" fill-rule="evenodd"><g transform="matrix(-1 0 0 1 120 25.973)"><mask id="b" fill="#fff"><use xlink:href="#a"/></mask><path d="M22.283 9.924s3.492-4.843 10.93-4.39c7.439.454 11.688 4.39 11.688 4.39S48.899.54 56.919.39c8.02-.153 10.333 4.994 10.315 10.139-.019 5.146-3.372 7.265-5.415 6.812-2.04-.455-3.105-3.936-2.953-5.904.151-1.967-4.402 1.482-4.706 5.963-.304 4.48 1.063 9.625 1.063 9.625s39.314-4.722 45.69 5.888c1.518 1.38 18.368-6.51 17.152-16.264-.757-3.395 7.742 12.216-14.723 17.729-1.214.67 3.034 5.06-1.214 15.35-2.125 4.24-.76 16.8-.912 18.466-.151 1.663-2.732 0-2.732 0s-1.35 1.781-2.574.739c0 0-1.928 2.135-2.181-1.345-.253-3.482-.375-8.627-1.074-8.778-.698-.151-3.718 1.06-3.726 1.967-.008.908.16 6.962 0 7.87-.16.909-2.314 1.21-2.678.151 0 0-2.035 1.211-3.098-.15 0 0-2.222 2.42-2.553-6.205 0 0-17.25-.606-22.375-1.362v6.809c0 2.12-1.94 2.12-2.396.605 0 0-1.212 2.573-2.883.152 0 0-3.036 4.087-3.187-9.232 0 0-2.125.606-3.795-.301 0 0 .302 6.961-.152 9.08-.455 2.118-1.974 1.512-2.277-.455 0 0-1.183 3.481-2.564.455 0 0-3.356 3.784-3.508-1.514-.153-5.298.304-9.081.152-10.292-.152-1.211-2.58-2.42-3.947-5.599-1.366-3.179-7.589 2.572-16.394-6.054-8.805-8.627-4.403-23.006-3.643-26.335.456-2.12-2.125-6.054-4.4-6.66-2.278-.605-.154 4.54-2.734 5.146-2.58.606-5.615-.303-6.375-4.237C-.638 8.713 2.095.99 9.382.386c7.286-.602 11.992 4.998 12.9 9.538" fill="#DDA551" mask="url(#b)"/></g><path d="M88.457 53.907c5.312 0 7.892 1.314 7.437 4.743-.455 3.431-5.16 4.036-5.16 4.036s.607 2.12 2.883 2.27c2.277.152 4.96 1.514 2.329 1.817-2.631.302-5.515-.756-7.489-3.633 0 0-2.884 4.035-7.439 3.683-1.82-.505-.871-1.837 1.974-1.564 2.847.272 3.492-2.573 3.492-2.573s-5.466-.756-5.616-5.145c-.152-4.39 7.589-3.634 7.589-3.634m-9.109-4.237c1.975.151 1.671 4.742-.606 4.189-2.277-.556-1.366-4.34.606-4.19m19.634.001c1.973.151 1.67 4.742-.608 4.189-2.277-.556-1.366-4.34.608-4.19m-36.633 8.325c1.669 1.211.151 2.15-1.215 1.604-1.366-.544-.456-2.815 1.215-1.604m-5.162-2.118c1.823.757.91 3.886-.91 2.774-1.82-1.109-.91-3.532.91-2.774m-5.92-1.972c1.517.76 2.43 3.031 0 2.879-2.429-.15-1.516-3.638 0-2.879m-6.527 1.39c1.82.187 1.974 3.408 0 3.357-1.973-.05-2.731-3.637 0-3.357m-6.375 0c1.488.301.91 3.205-1.063 3.407-1.973.202-1.063-3.838 1.063-3.407m-6.528.438c1.968 1.066 1.063 3.593-.606 3.154-1.671-.438-2.733-4.963.606-3.154m-5.92 2.918c1.667.154 2.126 3.43 0 3.28-2.124-.152-2.73-3.53 0-3.28m7.038 1.636c1.31.281 1.008 3.763-.965 3.157-1.974-.606-.348-3.438.965-3.157m-4.911 3.228c1.516.989 1.334 4.159-.7 3.33-2.033-.828-.82-4.32.7-3.33m8.803 1.646c1.67-.052 2.429 2.823 0 2.52-2.43-.302-1.67-2.469 0-2.52m2.356-5.403c1.742.029 2.805 2.919.984 3.756-1.822.838-4.092-3.81-.984-3.756m6.96.51c1.204.514-.258 2.721-1.6 2.419-1.341-.302-.165-3.174 1.6-2.42m-2.179 4.085c1.515.606.695 2.95-1.02 2.08-1.715-.869-.494-2.685 1.02-2.08m7.283-5.643c1.28.69.644 3.838-1.499 3.227-2.144-.612-1.386-4.784 1.5-3.227m5.465 1.644c1.061.82.443 3.149-1.45 2.364-1.89-.787.385-3.186 1.45-2.364m-6.501 3.162c1.894.509 1.072 3.483-.464 2.918-1.538-.567-2.09-3.604.464-2.918M1.935 42.623c-.51 4.091 2.161 7.85 5.544 10.74-.674.291-1.174.67-1.142 1.15.025.418-.042.845-.189 1.228C-2.6 49.055 2.533 39.95 1.935 42.623m74.833 48.48c1.67 2.083 3.037 0 3.037 0 .976.631 2.114.872 2.756.425-.005.368-.013.741-.024 1.125-.152 5.298-3.508 1.514-3.508 1.514-1.38 3.026-2.563-.455-2.563-.455-.303 1.967-1.823 2.573-2.278.455-.106-.495-.17-1.259-.207-2.132 1.398.284 2.787-.932 2.787-.932m-6.934.463c-.863 5.626-2.78 3.054-2.78 3.054-1.67 2.422-2.883-.151-2.883-.151-.457 1.513-2.395 1.513-2.395-.605v-1.787c1.225-.018 2.318-.974 2.318-.974 1.671 2.082 2.808 0 2.808 0 .95.614 2.297.886 2.932.463M31.071 94.62c-.066-.37-.076-1.61-.066-3.002 1.627 1.27 2.744.08 2.744.08 1.671 2.083 4.241-.105 4.241-.105.384.249.747.36 1.088.376-.713 4.301-2.231 2.651-2.231 2.651-1.063 1.362-3.098.151-3.098.151-.364 1.06-2.518.758-2.678-.15m-9.792-3.027c1.67 2.082 3.272 0 3.272 0 .374.24 1.491.35 1.823.372-.033.552-.067 1.092-.103 1.595-.253 3.481-2.18 1.346-2.18 1.346-1.224 1.043-2.575-.74-2.575-.74s-2.58 1.664-2.733 0c-.03-.343.002-1.15.055-2.247 1.515.624 2.44-.326 2.44-.326" fill="#8D3D00"/></g></svg>