<svg width="120" height="120" viewBox="0 0 120 120" xmlns="http://www.w3.org/2000/svg" xmlns:xlink="http://www.w3.org/1999/xlink"><defs><path id="a" d="M.378.99h23.247v23.26H.378z"/><path id="c" d="M.853.046H16v15.148H.853z"/><path id="e" d="M.001.046H60V78H.001z"/></defs><g fill="none" fill-rule="evenodd"><path fill="#FDF245" d="M111.43 30.81v64.592H6.574V30.81l3.697 3.696L34.3 58.537 55.45 34.65 59 30.634l3.555 4.017 21.149 23.886 24.03-24.03z"/><path fill="#FFAC00" d="M6.574 101.01H111.43v-8.706H6.574zm33.969-34.625l18.458-18.449 18.46 18.45L59 84.842z"/><path fill="#00B4C8" d="M45.07 66.385l13.932 13.932 13.93-13.932-13.93-13.923z"/><path fill="#FFF" d="M59.001 52.462v27.854l13.932-13.93z"/><path fill="#FFF" d="M72.93 66.392H45.076l13.93-13.93z"/><path d="M25.092 67.99a5.068 5.068 0 1 1-10.135 0 5.068 5.068 0 0 1 10.135 0m79.62 0a5.068 5.068 0 1 1-10.137-.002 5.068 5.068 0 0 1 10.137.003" fill="#FFAC00"/><g transform="translate(47 18.01)"><mask id="b" fill="#fff"><use xlink:href="#a"/></mask><path fill="#FDF245" mask="url(#b)" d="M.378 12.626L12.001.99l11.624 11.636L12.001 24.25z"/></g><path fill="#FFAC00" d="M66.572 30.634l-4.018 4.017-3.553 3.553-3.551-3.553-4.019-4.017 7.57-7.578zm-60 7.573L-1 30.633l7.572-7.572 7.574 7.572z"/><g transform="translate(103 23.01)"><mask id="d" fill="#fff"><use xlink:href="#c"/></mask><path fill="#FFAC00" mask="url(#d)" d="M16 7.624l-7.57 7.57-3.697-3.697-3.88-3.873L8.43.046z"/></g><g transform="translate(59 23.01)"><mask id="f" fill="#fff"><use xlink:href="#e"/></mask><path fill="#FAFAFA" opacity=".5" mask="url(#f)" d="M60 7.624l-7.57 7.57V78H.001V.046l7.57 7.578-4.016 4.017 21.15 23.885 24.028-24.03-3.88-3.872L52.43.046z"/></g></g></svg>