<svg width="120" height="120" viewBox="0 0 120 120" xmlns="http://www.w3.org/2000/svg"><g fill="none" fill-rule="evenodd"><path d="M8.211 72.608c-.018.08-.03.16-.043.242.013-.081.025-.162.043-.242zm.097-.345a3.37 3.37 0 0 0 0 0zm.132-.332a3.798 3.798 0 0 0 0 0zm.17-.32a3.245 3.245 0 0 0 0 0zm.212-.311a4.304 4.304 0 0 0 0 0zm-.67 1.664a3.461 3.461 0 0 0 0 0zm85.908 8.463l-.242.008.242-.008zm.793-.036l-.264.014.264-.014zm.75-.055c-.079.008-.157.013-.234.02.077-.007.155-.012.233-.02zm.723-.07c-.013.003-.028.004-.043.006l.043-.006zm.921-.116l-.21.03.21-.03zm.728-.113l-.238.039.238-.04zm.681-.124l-.214.04.214-.04zm.658-.135l-.072.015.072-.015zm.833-.197c-.066.015-.129.033-.195.048.066-.015.13-.033.195-.048zm.657-.174l-.223.06.223-.06zm.613-.178c-.069.022-.14.042-.21.063.07-.021.141-.041.21-.063zm.588-.184a5.382 5.382 0 0 0 0 0zm.753-.26c-.066.023-.13.048-.195.07.065-.022.13-.047.195-.07zm.58-.216l-.22.084.22-.084zm.541-.215l-.218.088.218-.088zm.518-.218l-.179.076.18-.076zm.688-.311c-.074.034-.147.069-.223.103.076-.034.15-.07.223-.103zm.492-.237c-.078.04-.157.078-.237.117.08-.04.16-.077.237-.117zm.463-.232l-.239.12.24-.12zm1.082-.592a28.34 28.34 0 0 1 0 0zm.392-.23c-.086.053-.174.104-.263.156.09-.052.177-.103.263-.155zm.382-.233a21.162 21.162 0 0 1 0 0zm.955-.624a25.179 25.179 0 0 1 0 0zm.002-.001a24.05 24.05 0 0 0 0 0zm1.557-1.16a36.547 36.547 0 0 0 0 0zm-2.138-8.886a30.224 30.224 0 0 1 0 0zm.56.52l-.36-.333.36.333zm.692.628a52.161 52.161 0 0 1 0 0zm.514.457l-.22-.195.22.195zm.475.416l-.137-.12.137.12zm-2.778-2.531a49.744 49.744 0 0 1 0 0zM67.747 53.036a17.18 17.18 0 0 1 0 0zm-.946-.038a15.44 15.44 0 0 1 0 0zm-.753.015a14.742 14.742 0 0 1 0 0zm-.849.06a13.634 13.634 0 0 1 0 0zm-.705.096a12.403 12.403 0 0 1 0 0zm-.754.144a12.999 12.999 0 0 1 0 0zm-.67.172a12.004 12.004 0 0 1 0 0zm-.663.21a12.776 12.776 0 0 1 0 0zm-.656.253a10.965 10.965 0 0 1 0 0zm-.563.253a11.781 11.781 0 0 1 0 0zm-1.124.607a13.055 13.055 0 0 1 0 0zm-.565.359a12.73 12.73 0 0 1 0 0zm-.48.334a15.88 15.88 0 0 1 0 0zm-.51.38a15.252 15.252 0 0 1 0 0zm-.476.378a34.028 34.028 0 0 1 0 0zm-1.564 1.373l-.482.446.482-.446zm-5.826 3.959c-.044.01-.086.022-.13.03.044-.008.086-.02.13-.03zm.444-.116c-.046.014-.092.029-.139.042.047-.013.093-.028.14-.042zm.417-.143c-.044.016-.087.034-.13.049.043-.015.086-.033.13-.05zm-13.88-2.1a215.377 215.377 0 0 1 0 0zm-2.494-.606a78.659 78.659 0 0 1 0 0zm3.754.937c.4.107.8.213 1.192.319l-1.192-.32zm-8.356-1.676c-.122-.008-.243-.013-.362-.018.12.005.24.01.362.018zm.587.047a20.504 20.504 0 0 0 0 0zm.511.057a19.674 19.674 0 0 0 0 0zm.522.069a23.906 23.906 0 0 0 0 0zm1.183.194a33.914 33.914 0 0 0 0 0zm.563.109a37.163 37.163 0 0 0 0 0zm1.236.262a54.04 54.04 0 0 0 0 0zm-5.522-.768a17.064 17.064 0 0 1 0 0zm-.419.012a10.548 10.548 0 0 1 0 0zm-.419.029a5.7 5.7 0 0 1 0 0zm-.493.06a6.262 6.262 0 0 1 0 0zm-.357.07a5.98 5.98 0 0 1 0 0zm-.348.096a4.413 4.413 0 0 1 0 0zm-.406.146a3.905 3.905 0 0 1 0 0zM11.05 70.014l.107-.014c-.036.003-.07.009-.107.014zm-.33.059a2.6 2.6 0 0 1 0 0zm-.307.087a2.937 2.937 0 0 1 0 0zm-.29.113c.044-.02.09-.038.136-.057-.046.019-.092.037-.137.057zm-.753.46a3.323 3.323 0 0 0 0 0zm.36-.251a3.216 3.216 0 0 0 0 0zm.255-.144c-.045.024-.092.046-.136.072.044-.026.091-.048.136-.072zm47 3.207a27.472 27.472 0 0 0 0 0zm-.01-16.372a115.322 115.322 0 0 0 0 0zm.518-.458a37.234 37.234 0 0 0 0 0zm.54-.455a25.562 25.562 0 0 0 0 0zm-6.127 4.904c-.038.017-.076.035-.114.05.038-.015.076-.033.114-.05zm.392-.194l-.093.05.093-.05zm.384-.215a1.552 1.552 0 0 1 0 0zm.377-.237l-.037.025.037-.025zm.372-.257h0zm1.561 13.13a23.854 23.854 0 0 0 0 0zm-1.049-.147a23.91 23.91 0 0 0 0 0zm-1.04-.194a24.357 24.357 0 0 0 0 0zm-2.937-.801a26.367 26.367 0 0 0 0 0zm-.914-.324a29.222 29.222 0 0 0 0 0zm-.919-.357a33.447 33.447 0 0 0 0 0zm-.916-.387a42.534 42.534 0 0 0 0 0zm-1.767-.825a44.238 44.238 0 0 0 0 0zm-.822-.415a56.42 56.42 0 0 0 0 0zm-.844-.44a80.154 80.154 0 0 0 0 0zm-.85-.456c.25.135.498.27.75.403-.252-.133-.5-.268-.75-.403zm-.856-.466a177.025 177.025 0 0 0 0 0zm-.846-.466l.753.415-.753-.415zm-20.357-3.345c-.11.02-.22.037-.332.059.111-.022.221-.04.332-.06zm.838-.137c-.115.018-.23.032-.348.05.117-.018.233-.032.348-.05zm.816-.104c-.12.014-.238.024-.358.04.12-.016.238-.026.358-.04zm.792-.074c-.12.009-.24.016-.363.027.122-.011.242-.018.363-.027zm.77-.047l-.36.015.36-.015zm.753-.02c-.119.002-.237 0-.358.004.121-.003.24-.002.358-.004zm-5.142.617c.096-.022.19-.04.285-.06-.095.02-.189.038-.285.06zm19.396 3.819l.366.2-.366-.2zm-.576-.313l.335.18-.335-.18zm-.582-.31a14.492 14.492 0 0 1 0 0zm-.58-.306l.316.166-.316-.166zm-.586-.3l.315.16-.315-.16zm-.585-.293l.313.156-.313-.156zm-.59-.284l.312.15-.312-.15zm-.592-.275l.311.143-.31-.143zm-.597-.265l.31.136-.31-.136zm-.602-.254a28.777 28.777 0 0 1 0 0zm-.609-.242c.106.04.21.082.314.123l-.314-.123zm-.613-.228a40.026 40.026 0 0 1 0 0zm-.62-.215a29.475 29.475 0 0 1 0 0zm-.63-.2l.32.1-.32-.1zm-.637-.182c.11.029.216.06.324.09-.108-.03-.215-.061-.324-.09zm-.645-.167c.11.026.217.055.326.083-.109-.028-.217-.057-.326-.083zm-.656-.15a19.685 19.685 0 0 1 0 0zm-.666-.127c.113.02.223.042.333.063-.11-.021-.22-.043-.333-.063zm-.676-.11a18.204 18.204 0 0 1 0 0zm-.688-.088c.114.013.228.029.341.043-.113-.014-.227-.03-.34-.043zm-.7-.066c.115.01.23.02.346.032l-.347-.032zm-.714-.043c.118.005.234.014.35.02-.116-.007-.232-.016-.35-.02zm14.48 5.153a299.466 299.466 0 0 0-.31-.172l.31.171zm-15.206-5.174c.118.002.234.007.351.01-.117-.003-.233-.009-.35-.01zm-13.75 3.95h2.404c1.397-1.693 8.082-9.608 12.627-11.578 3.17-1.375 8.671.103 13.997 1.534 2.264.607 4.445 1.193 6.302 1.52.013.004.027.004.041.007.944.164 1.801.263 2.545.263 2 0 3.532-1.419 5.471-3.216 2.988-2.765 6.701-6.208 13.878-5.397 6.13.691 9.486.65 11.246.481L69.6 45.224h-7.265a6.42 6.42 0 0 1-5.284-2.788h-5.697a2.46 2.46 0 0 1-2.449-2.663 2.473 2.473 0 0 1 2.45-2.252h12.62c.088 0 .173.016.256.043.085.027 8.442 2.775 18 7.436 12.851 6.263 21.67 12.827 26.214 19.504 2.141 2.13 5.065 4.535 5.888 5.204h1.91a2.753 2.753 0 0 1 2.75 2.752 2.754 2.754 0 0 1-2.75 2.75h-3.03c-1.397 1.471-8.187 7.886-20.17 7.886h-75.56c-3.365 0-5.44-3.447-6.116-4.77a5.003 5.003 0 0 1-4.887-4.995 5.004 5.004 0 0 1 4.998-4.999z" stroke="#343A40" stroke-width="7.044"/><path d="M11.478 76.676h.413c.33 0 .63.2.759.503.009.015.22.507.613 1.147.774 1.266 2.245 3.12 4.22 3.12h75.559c9.136 0 15.153-4.046 17.739-6.236.94-.796 1.427-1.346 1.444-1.365a.823.823 0 0 1 .624-.286h3.393a1.1 1.1 0 0 0 0-2.2h-2.201a.82.82 0 0 1-.515-.182c-.066-.053-.76-.608-1.731-1.428-1.3-1.094-3.102-2.666-4.574-4.135a.84.84 0 0 1-.1-.121c-10.12-14.964-41.068-25.578-43.28-26.32H51.354a.809.809 0 1 0-.595 1.354.8.8 0 0 0 .595.257h6.15a.83.83 0 0 1 .716.413 4.766 4.766 0 0 0 4.115 2.377h7.51c.157 0 .314.047.448.132l12.287 7.953a.824.824 0 0 1-.037 1.409c-.39.225-2.905 1.29-13.982.038-6.424-.726-9.69 2.299-12.572 4.97-1.854 1.717-3.612 3.346-5.92 3.616-.22.024-.443.039-.674.039-.853 0-1.815-.111-2.861-.295-1.937-.341-4.157-.936-6.456-1.554-4.815-1.293-10.272-2.757-12.911-1.612-1.834.795-4.131 2.742-6.241 4.81l-.003.003a81.9 81.9 0 0 0-2.08 2.127 101.61 101.61 0 0 0-2.798 3.122 67.608 67.608 0 0 0-1.128 1.346.827.827 0 0 1-.64.305h-2.798A3.352 3.352 0 0 0 8.13 73.33a3.35 3.35 0 0 0 3.348 3.345m0-8.344h2.404c1.398-1.691 8.082-9.606 12.627-11.576 3.169-1.375 8.67.103 13.997 1.533 2.264.608 4.446 1.194 6.302 1.52.014.004.027.004.04.007.945.165 1.803.263 2.546.263 2 0 3.532-1.42 5.472-3.215 2.987-2.765 6.7-6.21 13.878-5.397 6.13.69 9.485.648 11.246.48l-10.391-6.722h-7.265a6.423 6.423 0 0 1-5.284-2.79h-5.697a2.46 2.46 0 0 1-2.448-2.662 2.471 2.471 0 0 1 2.448-2.251h12.62c.089 0 .174.014.257.042.085.027 8.442 2.775 17.999 7.435 12.853 6.264 21.672 12.827 26.216 19.504 2.14 2.132 5.064 4.536 5.887 5.205h1.91a2.754 2.754 0 0 1 2.75 2.75 2.754 2.754 0 0 1-2.75 2.752h-3.03c-1.397 1.472-8.186 7.887-20.17 7.887H17.484c-3.365 0-5.442-3.447-6.115-4.771a5.003 5.003 0 0 1-4.89-4.995 5.004 5.004 0 0 1 4.999-5" fill="#343A40"/><path d="M10.084 74.9c-1.327-.876-1.51-2.757-.714-4.167a3.329 3.329 0 0 1 2.108-.75h17.867l6.56 5.646h-21.9s-2.74.05-3.92-.729" fill="#66D9E8"/><path d="M9.37 70.733c-.796 1.41-.613 3.291.714 4.167 1.181.778 3.921.73 3.921.73h21.9l1.217 1.045H11.477a3.349 3.349 0 0 1-3.347-3.343 3.34 3.34 0 0 1 1.24-2.598m38.918 3.623c-3.6-1.414-5.995-3.228-8.165-4.972l.311.172c5.034 2.779 10.24 5.654 17.367 5.654h52.98c-.51.43-1.155.935-1.93 1.465H70.708s-14.718.707-22.42-2.32" fill="#3BC9DB"/><path d="M32.08 79.469l4.134-1.143h3.134a.823.823 0 0 0 .54-1.45l-9.699-8.343a.827.827 0 0 0-.539-.201H16.044a100.3 100.3 0 0 1 2.798-3.122c9.2-2.37 15.103.766 21.281 4.175 2.17 1.744 4.565 3.558 8.165 4.972 7.702 3.026 22.42 2.319 22.42 2.319h38.143c-3.15 2.162-8.473 4.77-15.809 4.77h-74.75c-1.728-.977-2.259-1.977-2.259-1.977H32.08z" fill="#15AABF"/><path d="M32.08 79.469H16.033s.531 1 2.258 1.978h-.808c-1.975 0-3.447-1.855-4.22-3.121h22.951l-4.134 1.143z" fill="#1098AD"/><path d="M25.176 61.442c1.573-1.882 5.84-2.692 9.954-2.818 1.634.368 3.326.822 4.946 1.257 2.3.62 4.52 1.213 6.456 1.554 1.825.487 2.763 1.772 3.952 3.398 2.142 2.924 4.808 6.567 13.92 6.567h49.636a.785.785 0 0 0 .253-.042h1.948a1.1 1.1 0 1 1 0 2.2h-58.44c-.603 0-1.19-.022-1.767-.065-4.53-1.26-9.076-3.094-11.895-5.16-5.686-4.168-12.445-6.837-18.963-6.89" fill="#66D9E8"/><path d="M27.166 58.27c1.751-.76 4.742-.37 7.964.354-4.114.126-8.38.937-9.954 2.819 6.517.054 13.277 2.723 18.963 6.89 2.82 2.067 7.365 3.9 11.895 5.16-5.837-.431-10.389-2.944-14.803-5.38-5.759-3.181-11.696-6.46-20.306-5.031 2.11-2.07 4.406-4.017 6.241-4.812m50.214-3.01c-5.707.187-13.29-.79-19.348 1 2.476-2.03 5.555-3.716 10.528-3.154 11.077 1.252 13.591.187 13.982-.038a.833.833 0 0 0 .413-.697.822.822 0 0 0-.377-.712l-2.318-1.501 6.37 2.948s-1.48 1.903-9.25 2.155" fill="#3BC9DB"/><path d="M53.431 60.26c1.571 2.108 2.726 4.883 6.204 6.738 5.158 2.75 9.56 1.975 13.205 1.975h38.045c.32.276.629.539.91.776H64.403c-8.272 0-10.564-3.131-12.585-5.892-.562-.768-1.109-1.513-1.75-2.165 1.248-.146 2.335-.691 3.363-1.431" fill="#1098AD"/><path d="M59.635 66.998c-3.479-1.855-4.633-4.63-6.204-6.737.874-.628 1.705-1.396 2.557-2.184a45.558 45.558 0 0 1 2.044-1.817c6.057-1.79 13.641-.814 19.347-.999 7.772-.252 9.25-2.156 9.25-2.156l-6.369-2.947-9.968-6.452a.845.845 0 0 0-.448-.132h-7.51a4.766 4.766 0 0 1-4.115-2.377.827.827 0 0 0-.716-.413h-6.15a.8.8 0 0 1-.804-.872.812.812 0 0 1 .804-.739h12.49c2.21.742 33.158 11.355 43.278 26.32a.92.92 0 0 0 .1.121c1.153 1.152 2.506 2.362 3.664 3.36H72.84c-3.645 0-8.047.775-13.205-1.976" fill="#15AABF"/><path d="M17.61 64.682a.827.827 0 0 0 1.01.586l.222-.058c9.354-2.41 15.3.872 21.592 4.347 5.034 2.778 10.239 5.653 17.367 5.653h55.048a.824.824 0 0 0 .825-.826.824.824 0 0 0-.825-.825H57.8c-6.704 0-11.72-2.77-16.57-5.446-5.76-3.181-11.695-6.46-20.306-5.032l-.002.002c-.881.144-1.79.339-2.727.589a.825.825 0 0 0-.586 1.01" fill="#343A40"/><path d="M46.505 61.428l.027.008c1.825.487 2.763 1.77 3.952 3.397 2.142 2.924 4.808 6.567 13.918 6.567h49.638a.785.785 0 0 0 .253-.041.82.82 0 0 0 .572-.785.823.823 0 0 0-.825-.825H64.402c-8.27 0-10.563-3.131-12.585-5.892-.56-.768-1.108-1.513-1.749-2.165-.82-.833-1.793-1.508-3.145-1.86l-.074-.016c-.014-.003-.028-.003-.04-.006a.825.825 0 0 0-.304 1.618M11.066 77.501c0 .457.368.825.825.825h27.457a.825.825 0 0 0 .539-1.449l-9.697-8.344a.824.824 0 0 0-.54-.2H14.277a.824.824 0 1 0 0 1.65h15.069l7.778 6.693H11.89a.825.825 0 0 0-.825.825" fill="#343A40"/><path d="M91.684 66.414a.826.826 0 0 0 .794-1.051l-1.444-5.089a.825.825 0 1 0-1.588.451l1.444 5.09c.104.363.434.6.794.6m-4.334-.001a.826.826 0 0 0 .794-1.051l-1.442-5.089a.826.826 0 0 0-1.59.451l1.445 5.09c.104.363.435.6.794.6m-4.333-.001a.827.827 0 0 0 .795-1.051l-1.444-5.089a.826.826 0 0 0-1.588.451l1.444 5.09c.103.363.434.6.793.6" fill="#343A40"/></g></svg>