<svg xmlns="http://www.w3.org/2000/svg" width="49.639" height="190.974" viewBox="0.518 0.602 49.639 190.974"><defs><style/></defs><g id="ID0.5701931728981435" transform="translate(.4 .5)"><g id="Face"><path id="Face_1_" fill="#D8AD8C" d="M37.164 18.866c-.168.1.447-.052.545.131.217.402.246-.111.633.156.57.39-.059 1.269-.004 1.987.061.772-.852 1.123-.748 1.885.025.172.023.425.133.568.086.111-.74 1.854-.75 1.955-.035.393.225 1.167.207 1.411-.1 1.363.34.445-.018 1.8-.178.675-.398 1.098-.67 1.747-.15.357-.461.676-.611 1.033-.211.5-.562 1.023-.824 1.483-.428.748-.252.4-.805 1.094-.211.264-.77 1.205-.949 1.493-.119.191-.082.165-.271.353-.092.092-.527.609-.633.666-1.32.7-2.289 1.378-3.758 1.844-.684.215-.684.215-1.375.068-.268-.058-.701-.008-.928-.123-.342-.176-.818-.637-1.028-.318-.339.513-.76 1.116-.488 1.526.33.499.251.396.614.882.22.296.798.53.902.885.113.385.73.724.898 1.085.299.643.316 1.022.535 1.683.244.735 1.391 1.93 1.189 2.71-.145.568-.523 2.077-1.174 2.382-.32.15-1.604.911-1.941.904-.686-.016-1.175-.278-1.686-.337-.861-.099-1.951-.421-2.412-1.267-.164-.299-1.027-1.34-1.188-1.646-.707-1.35-1.17-.361-1.676-1.965-.244-.775-.592-1.199-1.066-1.87-.455-.644-.439-.848-.961-1.425-.551-.608-1.365-1.385-1.906-2.021-.217-.255-.594-1.209-.863-1.423-.246-.198 2.285-2.38 2.121-3.076.246-.472.031-.905.305-1.782.398-1.272-.178-1.981.188-3.276.186-.662-.303-.956-.188-1.643.051-.311-.268-.799-.281-1.122-.012-.295.105-.604-.033-.84-.029-.154.387.043.018-.669-.203-.395.682-1.482.162-1.371-.572.124-1.865.501-2.434-.454-.383-.643-.881-.931-1.088-1.622-.209-.703-.34-1.31-.449-2.075-.23-1.623.779-3.159 1.537-3.237.688-.073 1.703.549 2.252.899.527.339 1.002 2.208 1.381 2.693.789 1.006.406 1.226.561 1.545.061-.382.188.482.398.793.342.553.051-.208.113.472.033.349.08.237.043.572-.037.32.314-.897.338-.572.215-.981.041.357.258-.643.105-.471.125.034.105-.471-.025-.631.248.053.205-.585.09.331-.068-2.816.184-1.983.174.575.172-2.417.105-1.826.109-.46.348 4.305.377 3.81.025-.436.693-1.243.676-1.688-.061-1.393.689-2.101.551-3.49-.07-.659.115-1.135.152-1.777.027-.532-.223-.96.215-1.359.094.635.289-2.668.602-2.113.303.534.326 2.624.791 3.024 1.109.951.982 1.839 2.326 2.381-.41-.242 1.186.605.945.283a9.97 9.97 0 0 1-.811-1.368c-.184-.386-.061-.492-.288-.867-.291-.485-.477-.603-.254-1.101.424.541-.262-1.701.023-1.084.34.739.686 1.257 1.364 1.802.656.527 1.734 1.716 2.408 1.889.797.204 1.475.931 2.377 1.068.766.115 1.76.819 2.498.751-.336.215 0 0 .963.29l1.082.339c1.225-.06-.256.049.943.07" transform="matrix(.95 0 0 .95 .2 1.15)"/><g id="Face_Lines"><g id="ID0.10531485360115767" fill="#010101"><path id="ID0.6090669264085591" d="M15.326 17.438c.145.074.625.054.314-.106-1.025-.526-2.268-.724-3.053.338-.748 1.012-.568 2.129-.316 3.316.316 1.511.752 2.496 2.006 3.456.904.693 1.797.319 2.484-.45.107-.119-.389-.303-.49-.189-1.051 1.178-2.613.045-3.027-1.1a10.557 10.557 0 0 1-.51-1.938c-.107-.645-.275-1.394-.125-2.043.268-1.159 1.506-1.908 2.717-1.284z" transform="matrix(.95 0 0 .95 .2 1.15)"/><path id="ID0.0664755660109222" d="M16.303 23.368c-.061.104.438.291.525.141.355-.612-.197-.91-.75-1.011a5.816 5.816 0 0 0-1.021-.077c-.801-.007-1.398-.445-1.59-1.22-.039-.149-.557-.231-.521-.08.199.804.895 1.346 1.697 1.492.512.094 2.181-.141 1.66.755z" transform="matrix(.95 0 0 .95 .2 1.15)"/><path id="ID0.6626838762313128" d="M12.75 19.085c-.031.154.496.283.525.141.197-.919 1.342-.785 1.811-.144.461.631.75 1.368 1.23 1.987.086.113.602.176.479.018-.717-.921-.986-2.203-2.176-2.637-.689-.253-1.687-.23-1.869.635z" transform="matrix(.95 0 0 .95 .2 1.15)"/><path id="ID0.341710327193141" d="M14.528 17.085c-.35-.021.057.238.217.248 1.791.11 2.482 2.697 2.76 4.134.029.148.553.239.521.08-.368-1.896-1.252-4.325-3.498-4.462z" transform="matrix(.95 0 0 .95 .2 1.15)"/><path id="ID0.3829536600969732" d="M38.793 19.509c-.021-.146-.543-.246-.52-.08.223 1.602-.637 2.854-1.08 4.325-.242.797-.697 1.821-.615 2.671.014.143.537.251.521.08-.102-1.031.529-2.413.861-3.369.435-1.249 1.027-2.236.833-3.627z" transform="matrix(.95 0 0 .95 .2 1.15)"/><path id="ID0.21730650449171662" d="M27.51 38.664c.367.037.146-.212-.088-.234-6.676-.664-11.713-7.876-10.734-14.185.023-.162-.504-.279-.525-.141-1.03 6.659 4.497 13.879 11.347 14.56z" transform="matrix(.95 0 0 .95 .2 1.15)"/><path id="ID0.5822489578276873" d="M32.102 26.78c.078.145.578.188.521.079-.785-1.448.547-4.505 1.9-5.243.1-.053-.346-.268-.49-.189-1.412.77-2.736 3.865-1.931 5.353z" transform="matrix(.95 0 0 .95 .2 1.15)"/><path id="ID0.9758873996324837" d="M32.629 27.62c-.08-.143-.58-.184-.521-.081.451.807 1.271 1.982.488 2.849-.332.368-1.039.213-1.5.415-.186.081.295.282.426.225.6-.262 1.287.044 1.674-.604.584-.977-.082-1.935-.567-2.804z" transform="matrix(.95 0 0 .95 .2 1.15)"/><path id="ID0.5614598542451859" d="M30.938 30.553c.348.03-.061-.234-.217-.249-.498-.043-1.275.292-1.637-.175-.361-.467-.1-.991.367-1.249.1-.054-.346-.269-.49-.189-.609.336-.816 1.156-.172 1.593.293.199.646.35 1.006.348.381-.003.762-.111 1.143-.079z" transform="matrix(.95 0 0 .95 .2 1.15)"/><path id="ID0.14297197572886944" d="M37.043 26.443c-.104-.09-.625-.141-.41.045.842.726-.096 2.856-.414 3.64-.486 1.198-1.045 2.449-1.879 3.451-.104.127.396.304.492.189.973-1.168 1.662-2.684 2.141-4.114.291-.868.932-2.468.07-3.211z" transform="matrix(.95 0 0 .95 .2 1.15)"/><path id="ID0.22262887004762888" d="M16.965 29.319c-.004-.176-.527-.257-.523-.14.08 3.298.043 6.493-2.74 8.735-.111.086.365.291.49.189 2.787-2.246 2.855-5.452 2.773-8.784z" transform="matrix(.95 0 0 .95 .2 1.15)"/><path id="ID0.7726471880450845" d="M25.108 42.898c.095.105.609.162.48.018-1.25-1.398-.457-3.13-.159-4.733.028-.158-.498-.282-.524-.141-.309 1.672-1.086 3.414.203 4.856z" transform="matrix(.95 0 0 .95 .2 1.15)"/><path id="ID0.33542889822274446" d="M32.026 33.149c.352.016-.055-.241-.217-.249-1.633-.075-3.518.145-4.959-.771-.111-.071-.643-.102-.41.045 1.662 1.057 3.703.888 5.586.975z" transform="matrix(.95 0 0 .95 .2 1.15)"/><path id="ID0.787878300063312" d="M31.926 33.141c.107-.115-.387-.302-.49-.189-.498.534-1.168.855-1.697 1.357-.109.104.377.297.492.189.527-.5 1.195-.822 1.695-1.357z" transform="matrix(.95 0 0 .95 .2 1.15)"/><path id="ID0.9444534494541585" d="M32.621 32.507c.021-.163-.506-.276-.523-.141-.059.443-.371.521-.787.558-.277.024.199.256.332.244.299-.026.572-.129.859-.213a.07.07 0 0 0 .051-.042c.018-.137.051-.268.068-.406z" transform="matrix(.95 0 0 .95 .2 1.15)"/><path id="ID0.752304382622242" d="M26.147 32.396c.047.15.564.222.521.08-.076-.241-.088-.417.189-.494.18-.051-.289-.263-.426-.225-.345.097-.384.317-.284.639z" transform="matrix(.95 0 0 .95 .2 1.15)"/><path id="ID0.7513119117356837" d="M30.772 37.755c.109-.107-.379-.3-.49-.19-.844.836-2.002.852-3.119.853-.352 0 .053.248.217.248 1.198 0 2.485-.011 3.392-.911z" transform="matrix(.95 0 0 .95 .2 1.15)"/></g></g></g><g id="Hair"><path id="Hair_1_" fill="#A15927" d="M36.955 25.816c.137-.737.244-.873.396-1.406.174-.609.172-.634.459-1.454.211-.6.607-1.458.723-2.109.121-.684-.07-.839-.047-1.549-.043-.024-.729-.306-.777-.3a26.064 26.064 0 0 1-1.807-.42c-.668-.184-1.658-.474-2.314-.653-1.199-.328-2.221-.534-3.375-1.017-1.178-.49-2.271-1.02-3.213-1.927-.951-.914-1.404-1.561-1.942-2.658-.183.907.169 1.62.363 2.441.112.469.272 1.046.586 1.434.273.333.727.797.816 1.21-1.145-.333-2.846-1.459-3.5-2.521-1.084-1.753-.797-3.839-.57-4.773-.275.796-.699 2.469-.896 3.312-.191.818-.209 1.575-.312 2.445-.205 1.802-.676 4.957-1.188 5.938.145-.996-.273-2.834-.477-3.878-.037.949-.104 1.427-.287 3.81-.094 1.23-.385 1.512-.904 2.271.057-1.311-.088-.847-.484-1.795-.27-.295-.215-.864-.27-.295-.014-.041-.027-.528-.043-.557-.188-.41-.301-1.346-.488-1.833-.189-.492-1.008-1.65-1.398-1.926-.758-.538-.895-.605-1.596-.605-2.891 0-2.363 3.077-1.822 4.774.344 1.08.863 2.529 2.363 2.877.479.11 1.355-.702 1.34-.348-.092 2.161.004 1.991.018 2.404.053 1.924.248 2.307.395 3.995-.395.108-4.012 1.531-4.393 1.528.895-1.166 1.236-2.926 1.545-3.445.348-.585-2.064 1.3-1.08.861-.971.25-1.906 1.278-3.301 1.143.209-.353 1.572-1.485 1.883-1.755.473-.414.59-1.271.764-1.815.318-1 .109-1.01.146-2.15-.301.992-1.064 3.34-2.814 3.357.795-1.173.902-3.889.613-5.149-.27-1.153-.229-2.483-.422-3.664-.174-1.038-.078-1.875-.357-3.052-.29-1.211-.499-2.28-.518-3.562-.012-.629.279-1.208.172-1.821-.123-.673.097-1.375.271-2.039.289-1.076.567-1.569 1.227-2.256 2.688-2.802 2.578-1.956 3.768-2.408 2.154-.819.092-1.636 4.297-3.958 1.139-.628 4.768-1.231 5.783-1.396 1.381-.225 1.537.102 3.123.358 1.383.222 2.316.638 3.631 1.069 1.33.436 1.955.989 3.453 1.801-.006-.006.844.688 1.254 1.12 1.068.524.537.506 1.418 1.235.02.04.832.89 1.148 1.286 1.025.956.326.602 1.188 1.71.619.795 2.102 2.783 2.646 3.549.703 1.174.994 1.897 1.34 2.95.357 1.085.588 2.236.408 3.305-.672-.906-1.256-1.605-3.135-2.431.357 1.374 1.355 2.379 2.031 3.36.518.752 1.443 1.556 1.363 2.538-.746-.094-1.699-.607-2.439-.809-.68-.185-.996-.414-1.621-.575-.742-.021.031 1.962.199 3.136.1.682.234 1.096.176 1.829-.066.835.068 1.474.168 2.209-.158-.253-.307-.572-.492-.828-.271-.375-.535-.856-.822-1.235.014.75-.074 1.08-.053 1.85.02.729-.15 2.205-.209 2.938-.104-.337-.727-1.53-1.047-1.906-.512-.598-.416-.621-.992-1.097" transform="matrix(.95 0 0 .95 .2 1.15)"/><g id="Hair_Lines"><g id="ID0.3166307252831757" fill="#010101"><path id="ID0.7305007590912282" d="M23.223 10.051c.039-.152-.355-.257-.395-.107-1.004 3.907.957 6.009 4.248 7.767.096.052.387.021.24-.131.85.891-3.949-6.55-1.322-3.613.986 1.104 2.072 2.064 3.438 2.687 4.686 2.139 9.91 2.574 14.674 4.578.061.026.307.069.277-.069-.219-1.056-.668-1.776-1.336-2.648a121.51 121.51 0 0 1-1.062-1.392c-.885-1.145-.289-.866 1.791.838.062.097.379.194.381.012.098-4.91-2.924-9.536-6.842-12.331-.133-.095-.467-.02-.25.135 3.191 2.275 6.801 6.91 6.719 11.078.002-.129-2.391-1.535-2.889-1.751-.045-.02-.33-.065-.277.069.498 1.289 1.242 2.249 2.059 3.361.977 1.325 1.35 2.293-.797 1.568-5.381-1.818-14.068-1.855-16.464-7.991-.048-.121-.394-.236-.395-.043-.012 1.489.018 3.54 1.148 4.726-2.282-2.391-3.884-3.097-2.946-6.743z" transform="matrix(.95 0 0 .95 .2 1.15)"/><path id="ID0.5642167287878692" d="M16.67 30.804c.168-.109-.191-.277-.307-.203-1.213.78-3.064 1.325-4.486 1.588l.273.215c1.082-.721 1.951-2.406 1.896-3.704-.004-.135-.301-.188-.379-.102-1.143 1.248-2.506 1.684-4.1 2.101-.84.222-.156.382.393.007.318-.218.641-.441.902-.732 1.336-1.481 1.951-3.47 1.314-5.404-.043-.128-.396-.231-.395-.043.01 1.936-.758 3.422-2.629 4.133-.174.066.182.25.311.201 1.93-.733 2.723-2.276 2.713-4.291l-.395-.043c.834 2.536-.533 5.557-3.113 6.415-.229.077.104.266.236.229 1.918-.529 3.727-.888 5.123-2.411a26.588 26.588 0 0 0-.379-.102c.049 1.242-.783 2.858-1.814 3.546-.178.119.182.233.273.215 1.444-.266 3.319-.815 4.563-1.615z" transform="matrix(.95 0 0 .95 .2 1.15)"/><path id="ID0.2972793853841722" d="M23.174 10.152c.064-.126-.318-.25-.391-.105-1.324 2.589-1.227 5.327-1.68 8.125-.139.859-.646 2.387-.625 2.943-.055-1.331-.277-2.603-.551-3.905-.031-.146-.43-.207-.395-.043.33 1.57.576 3.059.525 4.674-.004.155.328.254.395.105 1.679-3.774.833-8.092 2.722-11.794z" transform="matrix(.95 0 0 .95 .2 1.15)"/><path id="ID0.1473966771736741" d="M39.746 19.611c-.043-.143-.441-.197-.395-.041.564 1.825.729 3.501.953 5.38.094.795.287 1.405.615 1.992a31.04 31.04 0 0 0-1.412-2.254c-.045-.067-.375-.2-.381-.043-.061 1.401-.096 2.809-.215 4.207-.08.945.566 1.575.096.417-.428-1.052-.883-1.86-1.682-2.671-.1-.102-.486-.088-.32.08 1.041 1.053 1.812 2.268 1.75 3.83-.006.157.377.254.395.105.176-1.67.26-3.342.334-5.019.041-.96.637.591.744.784.225.371.422.757.594 1.156.049.103.41.183.381.012-.447-2.657-.654-5.346-1.457-7.935z" transform="matrix(.95 0 0 .95 .2 1.15)"/><path id="ID0.16095514222979546" d="M24.211-1c-.266.003-.012.243.148.242 5.402-.05 12.436 3.241 14.885 8.345.062.126.457.162.369-.02C37.074 2.272 29.842-1.052 24.211-1z" transform="matrix(.95 0 0 .95 .2 1.15)"/><path id="ID0.12451788503676653" d="M14.244 5.805c-.023.159.371.254.395.106.768-5.056 5.467-6.001 9.766-6.675.228-.037-.1-.25-.236-.229-4.378.686-9.145 1.679-9.925 6.798z" transform="matrix(.95 0 0 .95 .2 1.15)"/><path id="ID0.0286970566958189" d="M9.114 28.708c-.053.141.336.256.393.106 2.887-7.553-5.385-21.058 5.23-24.337.227-.071-.098-.272-.236-.229-10.784 3.332-2.497 16.899-5.387 24.46z" transform="matrix(.95 0 0 .95 .2 1.15)"/><path id="ID0.4032960757613182" d="M19.979 17.39c.037-.154-.357-.256-.393-.107-.229.979-.016 1.905-.008 2.894.01 1.425-.477 2.844-1.201 4.059l.377.133c.379-1.002-.271-2.134-.748-2.999-.066-.124-.465-.155-.367.02.455.831 1.088 1.909.723 2.874-.053.135.312.244.377.133.59-.985 1.115-2.174 1.205-3.333.097-1.229-.25-2.46.035-3.674z" transform="matrix(.95 0 0 .95 .2 1.15)"/></g></g></g><g id="Shoes"><path id="Shoe_Left" fill="#0B1938" d="M36.246 170.338c.5.328 1.303.816 1.855 1.064.938.418 1.963.943 2.918 1.248.891.279 1.9.668 2.836.896.4.1 1.656.477 2.059.537.652.098.223.678.342 1.156.633 2.529-2.23 3.629-4.33 3.689-.576.02-1.062-.137-1.605-.25-.432-.092-1.246.154-1.527-.18-.461-.551-.693-1.645-1.721-1.984-2.516-.828-5.875-1.498-7.961-1.842.645-.764 2.566-1.424 3.471-1.943 1.132-.646 2.564-1.84 3.663-2.391m-.109 8.676c-.139-.281-.105-.646-.27-.916-.166-.271-.141-.273-.398-.42-.215-.123-.855-.191-1.094-.271-.992-.344-2.041-.525-3.051-.842-.771-.244-1.539-.389-2.336-.598-.658-.17-1.631-.373-2.291-.23-.576.121-1.38.49-1.973.5-.337 1.598 3.606 1.371 4.434 1.42 1.773.109 3.486 1.039 5.248 1.262.545.07 1.061-.1 1.586-.029" transform="matrix(.95 0 0 .95 .2 1.15)"/><path id="Shoe_Trim_Left" fill="#A2C6DD" d="M46.114 174.165c-.059.172.164.531.129.797-.045.332-.166.57-.096.922.127.646-.059 1.094-.354 1.656-.248.467-1.076.938-1.564 1.104-.951.322-2.02.252-3.008.199-.459-.027-.926-.051-1.375-.096-.23-.021-.598.031-.809-.064-.17-.074-.148-.1-.236-.285-.324-.676-.643-1.156-1.188-1.689-.281-.273-.473-.312-.873-.42-.469-.129-.787-.127-1.258-.244-.416-.104-.975-.348-1.408-.408-.51-.068-.768-.162-1.273-.287a17.571 17.571 0 0 0-2.092-.355c-.496-.053-1.041-.215-1.527-.215-.303-.002-.811.156-1.045.318-.445.305-.623.494-1.15.604.799.07 1.475.107 2.262.275.697.146 1.104.357 1.82.521.754.174 1.336.477 2.105.592.32.047.715.201 1.035.277.348.082.973.195 1.275.383.246.152.645.963.631 1.244-1.176.059-2.426-.068-3.529-.48a31.915 31.915 0 0 0-2.824-.873c-1.234-.311-2.551.01-3.414-.131-.574-.092-1.018-.131-1.433-.549-.223-.225-.28-.652-.612-.645-.238.006-.637.043-.854.135-.535.221.363.826.518 1.23.186.479.057 1.305.535 1.469.52.176 1.204.23 1.768.127a10.728 10.728 0 0 1 1.795-.184c1.252-.037 2.506.697 3.693 1.145.816.307 1.656.566 2.453.898.666.279 1.361.332 2.068.438.887.135 1.703.014 2.6.104.947.096 1.949.18 2.906.102.881-.07 1.973.213 2.801-.146.293-.127.525-.141.811-.271a23.56 23.56 0 0 1 1.736-.717c.887-.32 1.049-1.08 1.297-1.975.207-.74.146-1.207.086-1.895a5.515 5.515 0 0 0-.49-1.762c-.125-.266-.402-.486-.654-.625-.207-.111-1.193-.457-1.289-.23" transform="matrix(.95 0 0 .95 .2 1.15)"/><path id="Shoe_Right" fill="#0B1938" d="M22.643 185.84c.627.104 1.27.537 1.809.867.607.373.891.717 1.449 1.123.34.246.74.736 1.078.994.375.283.73.574 1.146.803.75.412 1.451.273 2.248.445.295.064.586.203.832.391.297.23.244.449.254.812.012.371.086.707-.119 1.023a7.294 7.294 0 0 1-1.123 1.279c-.391.332-.693.336-1.082.66-.359.307-1.043.805-1.5.895-1.156.23-1.352.33-2.503.602-.848.195-2.303.65-3.188.605-.607-.025-1.258-.258-1.834-.414-.65-.176-1.125-.512-1.67-.914-.562-.416-.666-.764-.729-1.443-.021-.264-.287-.623-.416-.857-.125-.232-.188-.523-.414-.639-.533-.275-1.154-.449-1.676-.744-.604-.342-1.146-.721-1.771-1.025-.59-.287-1.141-.699-1.736-.959-.359-.154-.637-.422-.699-.865-.043-.32.268-.514.252-.852.85.299 1.562.877 2.408 1.215.361.145.656.326 1.051.381.443.062.936.045 1.338-.119.412-.166.693-.475 1.125-.621.516-.174.943-.467 1.418-.699.994-.484 2-1.027 3.016-1.463.195-.084 1.107-.316 1.1-.51m-8.187 6.75c-.072-.301-.658-.449-.922-.572-.299-.137-.531-.318-.799-.502-.516-.354-1.033-.729-1.59-1.025-.514-.275-1.176-.35-1.398-.922-.09-.23-.078-.473-.139-.73-.053-.24-.176-.477-.234-.732-.131-.557.186-1.002.473-1.463-.408-.312-.875-.617-1.373-.768-.371-.109-.576.021-.629.375-.043.287-.24.402-.41.646-.176.254-.006.457-.043.785-.039.34.02.689.033 1.025.025.613-.391 1.361.121 1.787.496.414 1.148.781 1.629 1.205a9.186 9.186 0 0 0 2.041 1.396c.387.189.852.115 1.262.256.455.16 1.041.439 1.543.354.248-.043.398-.178.471-.441.043-.16.047-.652-.098-.701" transform="matrix(.95 0 0 .95 .2 1.15)"/><path id="Shoe_Trim_Right" fill="#A2C6DD" d="M31.285 190.399c.83.193.285 1.549.023 1.973-.273.445-.367.775-.82 1.086-.268.182-.408.451-.654.668-.281.248-.59.211-.969.379-1.098.484-2.457 1.078-3.623 1.363a17.33 17.33 0 0 1-2.395.414c-1.545.146-2.57-.117-3.947-.895-1.008-.57-1.072-1.654-1.455-2.604-.203-.496-.736-.598-1.188-.865-.654-.389-1.277-.805-1.943-1.18-.693-.391-1.336-.613-2.045-.99-.562-.303-1.262-.611-1.162-1.352.033-.246.344-.711.271-.865-.068-.152-.52-.248-.662-.318-.154-.076-.402-.328-.572-.342-.463-.033-.6.891-.594 1.271.004.482.266 1.051.459 1.484.133.297.211.449.479.609.363.217.686.488 1.059.678.602.303 1.111.676 1.689 1.018.436.26 1.172.596 1.303 1.094.053.211.17.535-.059.65-.16.082-.689-.064-.896-.064-.689 0-1.43-.244-2.035-.537-.775-.377-1.494-.705-2.168-1.252-.529-.434-1.27-1.127-1.773-1.355-.043.258.094.545.162.791.076.275.088.506.088.795 0 .605.148 1.02.582 1.457.764.779 2.125 1.016 3.174 1.191 1.07.18 2.148.559 3.189.926.689.238 1.236.582 1.879.922.678.363 1.141.82 1.74 1.26.301.223.611.4.895.645.219.193.424.236.699.352.357.15.754.367 1.111.484.264.084.504.207.768.248.703.111 1.439-.074 2.139-.096 1.01-.035 1.908-.387 2.854-.74.9-.34 1.734-.59 2.592-1.045.391-.209 1.014-.381 1.363-.658.354-.279.943-.797 1.34-1.004 1.488-.787 2.77-2.064 2.35-3.842-.148-.627-.664-1.156-1.275-1.359-.584-.197-1.441-.486-2.066-.455" transform="matrix(.95 0 0 .95 .2 1.15)"/><g id="Shoe_Right_Lines"><g id="ID0.805455737747252" fill="#010101"><path id="ID0.00972522096708417" d="M8.449 186.159c.117-.189-.393-.359-.486-.201-1.543 2.535-1.352 7.822 2.152 8.604 2.367.525 5.344 1.15 7.295 2.545-.072-.055 2.32 1.879 2.91 2.129 1.605.686 3.385.535 5.044.084 2.926-.799 11.948-3.85 8.61-8.211-.732-.959-2.758-.791-3.668-.936-2.787-.443-4.604-3.104-7.096-4.229-.236-.105-.541.078-.209.227 2.005.902 3.854 3.744 6.143 4.104.818.162 1.643.26 2.477.295 2.414 2.121 2.701 3.764.859 4.918-2.125 1.67-4.746 3.053-7.434 3.537-4.345.787-7.466-2.58-11.222-3.766-4.191-1.323-8.33-4.243-5.375-9.1z" transform="matrix(.95 0 0 .95 .2 1.15)"/><path id="ID0.3988698124885559" d="M14.422 193.815c.355-.006 0-.309-.199-.305-2.547.045-4.818-1.562-6.48-3.324-.123-.131-.637-.135-.424.092 1.82 1.931 4.343 3.586 7.103 3.537z" transform="matrix(.95 0 0 .95 .2 1.15)"/><path id="ID0.4998235604725778" d="M30.944 190.27c-.314-.076-.391.191-.074.271 1.129.273-.217 2.219-.453 2.496-.77.906-1.98 1.547-3.1 1.936-3.463 1.207-8.906 2.283-9.768-2.529-.029-.182-.561-.271-.521-.062.35 1.961.799 2.98 2.83 3.605 2.373.734 4.677.248 7.008-.453 1.842-.553 4.033-1.551 4.762-3.492.355-.956.329-1.528-.684-1.772z" transform="matrix(.95 0 0 .95 .2 1.15)"/><path id="ID0.051066906191408634" d="M11.315 188.985c-.234-.119-.533.061-.209.225 1.139.574 2.227 1.219 3.33 1.854.809.465 1.805.861 2.521 1.455.135.109.656.102.422-.092-.879-.729-2.021-1.182-3.006-1.752-1.009-.587-2.015-1.165-3.058-1.69z" transform="matrix(.95 0 0 .95 .2 1.15)"/><path id="ID0.29027328873053193" d="M10.219 189.958c-.176-.096-.637-.008-.326.162 1.512.838 2.977 1.752 4.438 2.676.172.109.627.027.328-.162-1.461-.925-2.926-1.839-4.44-2.676z" transform="matrix(.95 0 0 .95 .2 1.15)"/><path id="ID0.8385372925549746" d="M9.78 190.108c.08.154.607.211.49-.018-.434-.842-.75-2.297-.154-3.127.127-.178-.381-.355-.486-.207-.655.914-.325 2.428.15 3.352z" transform="matrix(.95 0 0 .95 .2 1.15)"/><path id="ID0.5103147840127349" d="M10.961 189.073c.061.18.586.25.523.062-.154-.467-.117-.906.051-1.363.066-.176-.453-.33-.523-.141-.178.481-.215.95-.051 1.442z" transform="matrix(.95 0 0 .95 .2 1.15)"/><path id="ID0.5206834953278303" d="M14.252 193.665c.004.178.529.287.523.064-.006-.301-.039-.604.023-.904.047-.195-.479-.33-.521-.143-.072.322-.033.656-.025.983z" transform="matrix(.95 0 0 .95 .2 1.15)"/></g></g><g id="Shoe_Left_Lines"><g id="ID0.3930317051708698" fill="#010101"><path id="ID0.36537556536495686" d="M24.166 178.737c-.084-.057-.607-.141-.396-.004.287.186.729.6 1.16.646 2.567.285 4.874.045 7.417 1.098 3.174 1.309 6.842 1.512 10.236 1.328 2.697-.139 7.562-1.316 6.414-5.195-.176-.596-.387-2.033-1.117-2.285-3.893-1.354-7.633-1.783-11.299-3.875-.084-.049-.611-.125-.395-.002 2.262 1.291 4.643 2.369 7.172 3.033 1.158.303 4.41.615 4.795 1.916.664 2.238.217 4.822-2.377 5.635-5.551 1.732-11.045-.496-16.332-1.912-1.635-.442-3.858.545-5.278-.383z" transform="matrix(.95 0 0 .95 .2 1.15)"/><path id="ID0.9793007900007069" d="M46.576 174.2c-.014-.145-.529-.189-.525-.139.145 1.629.24 3.393-1.566 4.209-1.811.818-3.74.324-5.637.238-.246-.012.246.191.344.195 1.693.078 3.77.65 5.402-.088 1.992-.9 2.16-2.429 1.982-4.415z" transform="matrix(.95 0 0 .95 .2 1.15)"/><path id="ID0.12077416619285941" d="M37.696 176.495c-.094-.119-.535-.123-.516-.1.557.699 1.139 1.381 1.582 2.158.072.127.543.15.516.104-.444-.782-1.026-1.461-1.582-2.162z" transform="matrix(.95 0 0 .95 .2 1.15)"/><path id="ID0.4060809356160462" d="M28.858 174.653c-.34-.041.111.176.232.188 2.797.34 5.689.904 8.375 1.73.191.055.535.014.176-.094-2.838-.873-5.836-1.469-8.783-1.824z" transform="matrix(.95 0 0 .95 .2 1.15)"/><path id="ID0.03009743755683303" d="M26.692 175.538c-.25.004.244.197.344.195 2.76-.045 5.758 1.361 8.416 2.016.303.076.342-.061.037-.137-2.772-.682-5.901-2.121-8.797-2.074z" transform="matrix(.95 0 0 .95 .2 1.15)"/><path id="ID0.1507524475455284" d="M36.381 179.01c.117-.008-.316-.197-.436-.188-2.219.184-4.439-.908-6.576-1.332-1.264-.25-3.887.4-4.333-1.146-.037-.123-.54-.186-.516-.102.383 1.328 2.481 1.342 3.579 1.363 2.823.058 5.454 1.638 8.282 1.405z" transform="matrix(.95 0 0 .95 .2 1.15)"/><path id="ID0.33529303036630154" d="M35.881 177.731c-.08-.123-.539-.137-.516-.1.264.402.434.85.656 1.273.066.127.543.152.516.1-.22-.421-.392-.873-.656-1.273z" transform="matrix(.95 0 0 .95 .2 1.15)"/></g></g></g><g id="Eyes"><path id="Eye_Whites" fill="#F5F6F6" d="M28.367 23.322c.492.814-1.785 1.187-2.25 1.153-.997-.07-2.326-.405-3.021-1.159-.443-.478-.801-1.16-.408-1.822.381-.649 1.578-.536 2.219-.469 1.466.154 2.56.967 3.472 2.178m4.651 1.229c-.551-.242-.771.878-.461 1.131.242.2.924.334 1.25.364.742.067 1.924-.334 2.475-.854.502-.473.658-1.129.004-1.693-.535-.461-1.34-.484-1.961-.274-.391.131-1.461.8-1.502 1.258" transform="matrix(.95 0 0 .95 .2 1.15)"/><path id="Left_Iris" fill="#33512E" d="M34.883 23.217c0 2.047-1.186 1.723-2.061 1.482-.846-.233.695-.369.629-1.083.475-.394.441-.445.916-.37" transform="matrix(.95 0 0 .95 .2 1.15)"/><path id="Right_Iris" fill="#33512E" d="M25.895 21.289c.18.16.133.582.002.791-.184.297-.87.846-1.269.825-.706-.038-.752-.05-1.196-.386-.414-.31-.59-.37-.744-1.024-.1-.407.67-1.572 3.207-.206" transform="matrix(.95 0 0 .95 .2 1.15)"/><g id="Eye_Lines"><g id="ID0.7769623710773885" fill="#010101"><path id="ID0.6697850325144827" d="M28.037 23.709c.018.236.551.313.533.041-.145-1.976-5.809-4.734-6.332-2.085-.484 2.45 4.678 3.972 6.092 2.276.172-.205-.328-.413-.479-.23-1.072 1.284-5.762.009-5.09-1.906.72-2.049 5.157.256 5.276 1.904z" transform="matrix(.95 0 0 .95 .2 1.15)"/><path id="ID0.2517737289890647" d="M32.106 25.191c-.029.252.498.38.523.141.109-.934.926-1.599 1.777-1.886.664-.224 2.148-.452 2.131.669-.023 1.473-3.09 1.972-3.951 1.069-.16-.169-.666-.085-.438.154 1.121 1.176 5.406.727 4.871-1.446-.252-1.024-1.562-1.143-2.406-.944-1.115.263-2.361 1-2.507 2.243z" transform="matrix(.95 0 0 .95 .2 1.15)"/></g></g><g id="Iris_Lines"><g id="ID0.33216363098472357" fill="#010101"><path id="ID0.5463177780620754" d="M32.875 24.646c-.119-.05-.271.037-.104.109.539.231 1.281.443 1.807.052.451-.335.594-.901.498-1.436-.016-.09-.281-.135-.262-.033.066.372.021.818-.227 1.122-.446.552-1.116.44-1.712.186z" transform="matrix(.95 0 0 .95 .2 1.15)"/><path id="ID0.3722339170053601" d="M26.207 21.475c.021-.095-.242-.162-.262-.07-.123.551-.463 1.107-1.012 1.322-1.001.394-1.71-.422-2.123-1.235-.039-.077-.305-.107-.244.006.416.823 1.07 1.532 2.055 1.489.82-.036 1.42-.763 1.586-1.512z" transform="matrix(.95 0 0 .95 .2 1.15)"/></g></g></g><g id="Pants"><path id="Pants_2_" fill="#244764" d="M23.196 176.147c.078.018.152-.01.234.012.018.756.248 1.414.488 2.059.271.732.225 1.316.34 2.119.107.746.292 1.477.414 2.221.112.686.577 1.148.763 1.783.343 1.193-2.186 1.248-3.143 1.688-1.529.693-3.084 1.605-4.621 2.248-1.289.537-2.418 1.355-3.658.754-1.621-.783-1.455-.662-3.193-1.9-1.863-1.008-2.365-.854-3.295-2.457-.5-.861-.35-1.41-.266-2.359.121-1.355.059-2.639.334-3.938.252-1.193.906-2.352 1.328-3.539.418-1.176.607-2.326.479-3.695-.123-1.291-.453-2.393-.508-3.746-.102-2.621.168-5.383.32-7.916.166-2.725.543-5.312.941-7.969.203-1.348.311-2.572.494-3.949.18-1.365.637-2.531.781-4.08.055-.609-.15-1.211-.012-1.867.146-.715.605-1.242 1.035-1.764.928-1.129.719-2.482.719-3.885 0-1.555-.037-3.014-.168-4.58-.143-1.752-.297-3.508-.578-5.395-.398-2.654-.361-5.219-.133-7.938.246-.328.383-.428.936-.244.484.162 1.166-.186 1.648 0 .619.236.402 1.414 2.033.357.803-.521-1.289-5.365-.738-5.336-.115.338-.078-3.467-.352-3.688-2.436-1.945-3.85-6.234-3.52-6.057.051.062 2.744 1.562 5.682 2.168 1.084-.09 2.24.293 3.324.182 1.629-.17 1.768-.348 3.316-.777 3.395-.936 11.188-7.423 14.415-8.238.824-.209 1.611 14.509-.254 18.863-.305.715-.27 1.98-.396 2.627a20.077 20.077 0 0 0-.326 2.713c-.074 1.551.07 3.148-.09 4.66-.178 1.664-.486 3.084-.32 4.699.146 1.398-.248 2.789-.248 4.191.002 1.375-.262 2.842-.258 4.23.014 5.459-1.078 10.818-.811 16.203.066 1.301.373 2.695.248 3.963-.131 1.322-.863 2.48-1.25 3.762-.393 1.297-.258 2.57.205 3.791.396 1.049 1.406 2.068 1.127 3.291-.227.99-1.498 1.676-2.301 2.258-1.139.83-3.053 1.814-4.295 2.434-2.34 1.168-3.916 2.215-6.633 2.234" transform="matrix(.95 0 0 .95 .2 1.15)"/><g id="Pants_Lines"><g id="ID0.521418830845505" fill="#010101"><path id="ID0.45028172666206956" d="M34.184 109.331c.203-.068-.273-.291-.42-.24-.92.316-1.986.543-2.666 1.295-1.059 1.168-1.496 2.844-1.941 4.314-.049.162.473.309.525.141.428-1.42.859-3.32 2.012-4.367.699-.634 1.619-.845 2.49-1.143z" transform="matrix(.95 0 0 .95 .2 1.15)"/><path id="ID0.6126202144660056" d="M31.623 110.754c.016-.186-.512-.293-.523-.141-.404 5.299-1.176 11.076-2.814 16.148-1.119 3.469-3.412 7.531-3.412 11.221 0 .191.524.285.524.141 0-4.334 2.948-8.592 3.844-12.787 1.032-4.81 2.006-9.669 2.381-14.582z" transform="matrix(.95 0 0 .95 .2 1.15)"/><path id="ID0.35208251606673" d="M12.639 117.461c.021-.184-.506-.297-.521-.143-.602 5.082.355 9.564.662 14.598.229 3.705.09 5.408-1.201 8.59-.771 1.898-.953 4.959-1.086 7.029-.014.188.512.293.523.141.15-2.365.355-5.971 1.697-7.914.877-1.266.803-3.033.75-4.479-.221-6.021-1.537-11.783-.824-17.822z" transform="matrix(.95 0 0 .95 .2 1.15)"/><path id="ID0.4035844667814672" d="M26.686 132.723c-.01-.156-.533-.27-.523-.072.117 2.432 1.189 4.934.965 7.371-.215 2.352-.932 4.609-.965 6.979-.004.189.521.287.523.141.039-2.689.984-5.236.955-7.93-.026-2.18-.852-4.299-.955-6.489z" transform="matrix(.95 0 0 .95 .2 1.15)"/><path id="ID0.3998723579570651" d="M39.395 96.231c-.018-.162-.541-.266-.521-.072.453 4.423 1.17 8.947.689 13.398-.443 4.102-1.764 7.971-1.947 12.113-.008.189.518.289.525.141.229-5.236 2.17-10.131 2.057-15.416-.075-3.412-.456-6.767-.803-10.164z" transform="matrix(.95 0 0 .95 .2 1.15)"/><path id="ID0.08060981752350926" d="M37.102 158.436c.062-.143-.449-.309-.525-.139-1.096 2.398-1.523 5.475-3.27 7.496-1.838 2.125-3.287 2.986-6.23 3.121-.352.014.027.281.211.273 2.84-.129 4.408-.77 6.24-2.891 1.916-2.217 2.365-5.217 3.574-7.86z" transform="matrix(.95 0 0 .95 .2 1.15)"/><path id="ID0.26791228353977203" d="M36.576 158.836c.037.164.564.25.523.072-1.615-7.148-.227-15.91.361-23.174.42-5.176.531-10.318.744-15.504.008-.189-.518-.289-.523-.143a782.06 782.06 0 0 1-1.043 19.352c-.409 6.2-1.442 13.28-.062 19.397z" transform="matrix(.95 0 0 .95 .2 1.15)"/><path id="ID0.2938264459371567" d="M35.043 163.911c-.037-.164-.562-.25-.521-.072.23 1.01.346 2.357.959 3.223 1.666 2.354.588 3.529-1.682 4.717-3.465 1.818-6.568 4.291-10.631 4.479-.354.016.025.283.209.273 4.443-.209 8.43-3.021 12.139-5.25 1.311-.791 1.893-1.787 1.178-3.182-.752-1.47-1.276-2.559-1.651-4.188z" transform="matrix(.95 0 0 .95 .2 1.15)"/><path id="ID0.02239962900057435" d="M10.639 178.231c.021.16.547.26.521.072-.76-5.752-2.623-10.57-1.748-16.535.689-4.705.422-9.68 1.582-14.322.043-.168-.48-.309-.523-.143-1.256 5.023-1.51 10.885-1.895 16.031-.39 5.231 1.391 9.809 2.063 14.897z" transform="matrix(.95 0 0 .95 .2 1.15)"/><path id="ID0.4201449337415397" d="M25.817 184.381c-.021-.162-.545-.264-.525-.078.121.98-4.28 2.035-5.02 2.391-1.297.623-2.533 1.459-3.854 2.021-2.184.93-3.6-.363-5.205-1.357-2.152-1.336-4.162-2.369-3.873-5.361.119-1.217.299-2.383.645-3.564.664-2.266 1.658-4.336 1.682-6.73.002-.193-.521-.287-.523-.141-.041 4.115-3.602 8.506-2.086 12.678.609 1.68 1.096 1.557 2.754 2.584 1.307.811 2.814 2.111 4.318 2.514 2.625.703 5.252-1.955 7.557-2.828.899-.343 4.307-.666 4.13-2.129z" transform="matrix(.95 0 0 .95 .2 1.15)"/><path id="ID0.9555845097638667" d="M26.567 146.944c-.002-.191-.525-.281-.523-.141.043 2.719.367 5.502.049 8.207-.33 2.793-1.433 4.787-2.309 7.373-.863 2.555-.217 3.352.336 5.875.707 3.225-1.066 4.262-2.408 6.689-.07.127.434.307.525.141 1.135-2.057 2.458-2.809 2.748-5.164.316-2.582-2.017-4.545-.675-7.398 2.46-5.244 2.345-9.912 2.257-15.582z" transform="matrix(.95 0 0 .95 .2 1.15)"/><path id="ID0.4508976424112916" d="M21.321 172.592c.021-.184-.506-.297-.523-.141-.26 2.215 2.074 2.799 2.582 4.695.684 2.539.791 4.994 1.916 7.412.073.158.586.215.522.072-.544-1.172-1.012-2.281-1.202-3.568-.175-1.199-.193-2.734-.712-3.844-.763-1.612-2.816-2.655-2.583-4.626z" transform="matrix(.95 0 0 .95 .2 1.15)"/></g></g></g><g id="Shirt"><path id="Shirt_2_" fill="#555D7B" d="M14.828 37.188c-1.363.495-.877.849-.311 1.526.736.877 1.965 2.361 2.428 3.426.512 1.178 1.822 2.369 2.295 3.562.449 1.13 1.883 1.799 2.518 2.854.85 1.408 2.012 1.398 3.729 1.568 1.617.161 3.164-2.003 3.486-3.251.377-1.466-.117-.858-.65-2.122-.23-.546-1.617-2.834-1.973-3.355-.408-.597-1.031-.801-1.518-1.767.488-1.526 4.899.628 5.864 1.393 1.992 1.58 4.799 2.776 5.104 5.494.148 1.34 1.693 3.644 2.361 4.436.852 1.014 1.416 1.182 2.141 2.282.648.983.143-.294.818.799.607.981-.684 3.329-.662 7.224.004.662-2.285 2.567-3.256 3.121-.564.322-1.652.613-2.281.715-.863.137-1.596-.342-1.498 1.029.111 1.536-.254 2.659.205 3.772.553 1.338.314 2.601.543 4.021.113.69.352 1.334.547 2.014.232.8.637 1.443.84 2.175.182.647.105 1.25.334 1.86.236.639.623 1.229.908 1.858.58 1.269 1.391 2.206 1.789 3.567.195.664.527 1.26.42 2.012-.086.621-.541 1.211-.586 1.841-.1 1.378.744 2.483 1.084 3.601.227.75.371 1.392.244 2.062-.18.937-.283.966-1.162 1.521-1.258.795-2.205 1.289-3.414 2.144-1.309.924-2.691 1.942-4.068 2.743-1.289.748-2.842 1.529-4.16 2.236-1.057.568-2.854 1.459-4.018 1.605-2.799.355-4.938.686-7.354-.479-1.383-.668-3.15-.998-3.553-2.623-.33-1.328-.652-2.852-.652-4.27.004-3.424-.295-6.866-.082-10.299.164-2.675.584-5.746-.51-8.322-.539-1.264-.783-2.13-.498-3.567.268-1.375.486-2.976.939-4.273.863-2.461 1.703-5.088 2.227-7.613-.939.471-2.625.657-3.688.758-1.174.11-2.402-.254-3.504-.688-1.211-.479-2.262-1.167-3.346-1.921-.713-.494-2.742-2.169-2.58-3.017.113-.621 1.025-1.01 1.254-1.684.217-.621.525-1.283.738-1.918.42-1.25 1.07-2.368 1.188-3.743.236-2.722.248-2.04.84-4.84.293-1.386 1.463-4.614 2.248-5.845.902-1.416 1.793-2.322 3.152-2.801 2.336-.823 1.266-.149 3.703-.823" transform="matrix(.95 0 0 .95 .2 1.15)"/><g id="Shirt_Lines"><g id="ID0.6298563573509455" fill="#010101"><path id="ID0.3166353008709848" d="M40.875 54.013c.084.098.588.166.477.035-2.133-2.498-4.154-4.266-5.291-7.464-.822-2.314-1.889-3.383-3.811-4.778-2.035-1.476-4.496-2.164-6.879-2.894-.305-.094-.347.077-.046.17 3.201.982 8.035 2.287 9.515 5.645.762 1.727 1.109 3.786 2.312 5.286 1.145 1.425 2.538 2.609 3.723 4z" transform="matrix(.95 0 0 .95 .2 1.15)"/><path id="ID0.9185628267005086" d="M40.832 61.237c.045-.089-.457-.273-.525-.141-1.012 2.027-4.418 4.312-6.748 3.947-.367-.058-.117.168.096.201 2.548.4 6.062-1.776 7.177-4.007z" transform="matrix(.95 0 0 .95 .2 1.15)"/><path id="ID0.12254117103293538" d="M34.569 51.306c-.01-.16-.529-.223-.523-.141.393 5.746-1.498 11.578-.855 17.239.018.162.533.214.523.142-.643-5.662 1.247-11.494.855-17.24z" transform="matrix(.95 0 0 .95 .2 1.15)"/><path id="ID0.8404460097663105" d="M33.709 68.521c-.02-.129-.537-.223-.516-.09.656 4.175 1.223 8.707 2.979 12.593.828 1.83 3.164 4.731 2.432 6.868-.662 1.926-1.723 3.508-2.754 5.25-.047.08.443.277.523.143 1.316-2.225 2.715-4.027 2.799-6.688.059-1.85-1.854-3.81-2.482-5.483-1.532-4.068-2.307-8.312-2.981-12.593z" transform="matrix(.95 0 0 .95 .2 1.15)"/><path id="ID0.354075635317713" d="M25.244 40.136c-.095-.086-.592-.142-.474-.035 1.472 1.341 4.265 4.498 3.802 6.787-.773 3.824-4.527 3.777-6.998 1.189-2.822-2.958-4.93-6.741-7.369-10.024-.094-.126-.559-.145-.518-.09 2.248 3.028 4.158 6.669 6.76 9.396 1.076 1.128 2.453 2.624 4.104 2.831 1.687.212 3.96-.276 4.367-2.283.604-2.985-1.58-5.864-3.674-7.771z" transform="matrix(.95 0 0 .95 .2 1.15)"/><path id="ID0.5037678750231862" d="M38.584 89.544c0-.154-.523-.231-.523-.141.004 2.227 2.766 5.091.703 6.975-.088.078.387.277.492.18 2.125-1.939-.668-4.754-.672-7.014z" transform="matrix(.95 0 0 .95 .2 1.15)"/><path id="ID0.27832916798070073" d="M22.481 102.725c.262-.01-.225-.225-.338-.219-4.906.176-7.955-3.103-10.381-6.902-.086-.131-.561-.156-.52-.09 2.647 4.141 6.057 7.399 11.239 7.211z" transform="matrix(.95 0 0 .95 .2 1.15)"/><path id="ID0.5802103593014181" d="M39.379 96.283c.078-.048-.363-.259-.492-.178-7.902 5.057-16.551 12.659-26.494 6.979-.1-.057-.629-.111-.404.021 10.203 5.823 18.724-1.272 27.39-6.822z" transform="matrix(.95 0 0 .95 .2 1.15)"/><path id="ID0.77571508474648" d="M.004 58.917c-.043.057.426.271.523.141 3.025-3.973 3.533-8.922 4.422-13.721 1.068-5.801 4.361-7.345 9.734-7.973.264-.031-.225-.233-.34-.219-3.992.465-7.609 1.07-9.221 5.361C3.045 48.031 3.733 54.017.004 58.917z" transform="matrix(.95 0 0 .95 .2 1.15)"/><path id="ID0.17650616681203246" d="M14.76 63.167c.084-.063-.377-.27-.492-.18-4.336 3.359-11.006-.238-13.742-3.956-.092-.126-.559-.146-.518-.09 2.875 3.906 10.107 7.829 14.752 4.226z" transform="matrix(.95 0 0 .95 .2 1.15)"/><path id="ID0.8647219268605113" d="M14.235 62.906c.021.13.539.222.514.091-.455-2.703-.641-7.898 2.344-9.268.066-.03-.35-.245-.49-.18-3.048 1.395-2.833 6.612-2.368 9.357z" transform="matrix(.95 0 0 .95 .2 1.15)"/></g></g></g><g id="Right_Arm"><path id="Skin_Arm_Right" fill="#D8AD8C" d="M13.752 63.913c-.674-.123-1.037 2.448-1.25 3.043-.426 1.191-.721 2.336-1.092 3.52-.412 1.311-.162 2.596-.484 3.888-.07.281-.318.526-.379.795-.066.295.088.651-.01.94-.215.646-.684.934-.377 1.719.207.523.588.995.779 1.562.211.629.357 1.267.545 1.877.408 1.342.053 2.451-.074 3.748-.242 2.498-.176 5.002-.049 7.566.061 1.271.205 2.545.205 3.836 0 1.321.342 2.318.393 3.595.082 2.211.729 5.176 2.01 7.051.613.898 1.537 1.396 1.975 2.396.498 1.125.135 2.396.312 3.598.08.535.072 1.295.221 1.812.152.545.529.92.697 1.408.312.9.068 2.533-1.295 2.312-.357.016-.883-.93-1.729-.844-.805.082-1.332-.189-2.109-.314a5.288 5.288 0 0 1-1.582-.523c-.557-.277-1.053-.281-1.623-.51-.904-.354-1.404-2.09-1.645-3.023-.318-1.221-.529-2.42-.467-3.752.062-1.314.689-2.49.547-3.828-.262-2.48-.896-4.412-1.49-6.799-.291-1.16-.824-2.565-1.062-3.758-.258-1.3-.771-2.589-1.234-3.859-.213-.584-.242-1.174-.486-1.757-.238-.564-.283-1.113-.473-1.715a93.128 93.128 0 0 1-1.031-3.598c-.615-2.26-1.303-5.094-.412-7.435.508-1.338.395-2.317.332-3.713-.062-1.422.16-2.946.605-4.265.424-1.25.348-2.315.494-3.562.082-.72.068-1.121.354-1.762.27-.604.418-.963.438-1.592.73.229 1.408 1.082 2.168 1.416.799.353 1.742.65 2.576.845.816.19 1.873.116 2.723.073.43-.021.793-.075 1.189-.154.256-.051.521-.096.783-.158.166-.039.824-.105.543-.156" transform="matrix(.95 0 0 .95 .2 1.15)"/><g id="Right_Arm_Lines"><g id="ID0.5565653857775033" fill="#010101"><path id="ID0.7390023171901703" d="M13.713 63.886c.047-.154-.477-.301-.523-.141-1.336 4.504-2.484 9.012-3.316 13.639-.033.17.496.293.523.141.83-4.627 1.976-9.135 3.316-13.639z" transform="matrix(.95 0 0 .95 .2 1.15)"/><path id="ID0.11225102422758937" d="M1.108 75.316c-.012.179.514.282.521.142.312-4.52.93-8.951 1.746-13.404.033-.17-.496-.295-.521-.142-.821 4.454-1.434 8.886-1.746 13.404z" transform="matrix(.95 0 0 .95 .2 1.15)"/><path id="ID0.15624535456299782" d="M14.631 108.063c.096.117.615.174.486.008-3.615-4.592-4.006-12.435-3.619-18.109.15-2.218.529-4.518.402-6.742-.164-2.885-1.291-5.142-2.342-7.793-.062-.156-.58-.219-.521-.075 1.566 3.958 2.561 6.687 2.189 11.114a54.294 54.294 0 0 0-.078 8.105c.305 4.821.383 9.553 3.483 13.492z" transform="matrix(.95 0 0 .95 .2 1.15)"/><path id="ID0.6846040775999427" d="M6.953 106.215c.031.158.555.248.521.076-1.049-5.357-2.502-10.404-4.023-15.642-.744-2.559-1.891-5.133-2.33-7.766-.451-2.682.17-4.985.482-7.599.021-.176-.504-.288-.523-.141-.324 2.704-1.166 4.922-.48 7.663.654 2.619 1.521 5.189 2.33 7.765 1.633 5.208 2.976 10.293 4.023 15.644z" transform="matrix(.95 0 0 .95 .2 1.15)"/><path id="ID0.49699828727170825" d="M15.551 111.1c-.078-.15-.586-.197-.525-.074.623 1.195 1.018 2.449 1.34 3.756.17.691.818 2.164.545 2.885-.191.502-.662.701-1.158.832-.459.117-1.053-1.383-1.188-1.678-.52-1.141-.928-2.324-1.432-3.473-.064-.154-.578-.213-.52-.074.818 1.867 1.367 3.848 2.684 5.445.1.119.309.158.453.121 1.17-.303 1.938-.705 1.625-2.01-.469-1.955-.888-3.933-1.824-5.73z" transform="matrix(.95 0 0 .95 .2 1.15)"/><path id="ID0.7388878483325243" d="M14.981 117.94c.352 0-.039-.266-.213-.266h-2.082c-.354 0 .039.266.213.266h2.082z" transform="matrix(.95 0 0 .95 .2 1.15)"/><path id="ID0.9862808394245803" d="M12.549 117.719c.088.125.609.188.484.01-.744-1.068-1.133-2.268-1.604-3.465-.062-.156-.578-.219-.521-.074.481 1.221.885 2.441 1.641 3.529z" transform="matrix(.95 0 0 .95 .2 1.15)"/><path id="ID0.9836344607174397" d="M12.483 117.524c.352.004-.039-.264-.211-.266a7.439 7.439 0 0 1-1.863-.229c-.311-.084-.373.141-.061.225a8.617 8.617 0 0 0 2.135.27z" transform="matrix(.95 0 0 .95 .2 1.15)"/><path id="ID0.7222945359535515" d="M10.301 117.219c.094.119.615.178.484.01-.723-.939-.908-2.086-1.146-3.215-.033-.158-.557-.248-.521-.076.244 1.158.445 2.322 1.183 3.281z" transform="matrix(.95 0 0 .95 .2 1.15)"/><path id="ID0.9816707284189761" d="M10.235 116.774c.352 0-.039-.264-.213-.264-.455-.002-1.055.061-1.43-.256-.477-.406-.648-1.068-.785-1.658-.035-.158-.561-.242-.521-.074.168.725.426 1.607 1.154 1.963.564.277 1.175.289 1.795.289z" transform="matrix(.95 0 0 .95 .2 1.15)"/><path id="ID0.2610876765102148" d="M7.285 114.522c.029.156.553.25.521.078-.242-1.291-.748-2.598-.809-3.912-.062-1.518.332-2.959.395-4.467.008-.182-.52-.281-.523-.141-.055 1.314-.473 2.631-.416 3.945.069 1.542.553 2.987.832 4.497z" transform="matrix(.95 0 0 .95 .2 1.15)"/><path id="ID0.9225743990391493" d="M15.199 107.944c-.082-.125-.602-.195-.484-.008.457.717 1.143 1.283 1.246 2.176.1.861.057 1.736-.141 2.586-.041.164.486.299.521.141.199-.84.287-1.791.141-2.65-.163-.933-.792-1.474-1.283-2.245z" transform="matrix(.95 0 0 .95 .2 1.15)"/></g></g></g><g id="Left_Arm"><path id="ID0.7626921548508108" fill="#D8AD8C" d="M33.662 65.194c.055.022-.064-.006 0 0 1.416.146 2.594-.311 3.793-.975.277-.153.793-.562 1.035-.756.293-.238.572-.377.859-.646.428-.399 1.086-1.071 1.266-1.649.199-.64.006-1.522.1-2.172.104-.701.363-1.33.363-2.08.002-1.484.1-3.039-.055-4.478-.16-1.483-.523-2.902-.668-4.387-.037-.378-.068-.658-.361-.903-.291-.244-.766-.329-1.096-.487-.307-.148-.541-.032-.85-.144-.438-.16-.748-.489-1.133-.807-.551-.456-.975-1-1.48-1.504-.537-.536-1.193-.931-1.82-1.345-.729-.479-1.084-.895-1.164-1.74-.053-.565.229-1.703-.373-1.938-.334-.131-.75.05-1.041-.224-.307-.291-.191-.686-.27-1.042-.104-.48-.254-.533-.68-.723-.338-.15-.709-.357-.535-.768.111-.266.611-.523.816-.714.238-.222.621-.384.855-.593.512-.461.979-.893 1.6-1.179 1.498-.689 2.475.239 3.787.8 1.545.659 3.217 1.676 4.367 2.906a15.308 15.308 0 0 1 1.639 2.034c.432.646.543 1.201.766 1.947.113.381.348.763.412 1.164.059.369-.08.778-.006 1.143.066.325.322.738.453 1.038.158.361.279.713.41 1.085.275.786.695 1.499 1.008 2.261.279.683.391 1.367.721 2.07.318.675.639 1.382.896 2.09.322.888.348 1.955.541 2.886.158.754.27 1.528.555 2.274.172.451.352.863.396 1.354.031.381.307.885.363 1.254.129.852.109 1.586.301 2.418.256 1.105.242 2.359.184 3.473-.051.992-.025 1.664-.205 2.623-.154.824-.545 1.504-.572 2.33-.053 1.701-3.146 1.881-4.674 1.271-2.264-.904-3.057-1.486-5.145-2.729-1.059-.629-2.566-1.881-3.598-2.545-.518-.334-2.396-1.194-1.893-1.897" transform="matrix(.95 0 0 .95 .2 1.15)"/><g id="Left_Arm_Lines"><g id="ID0.16565376473590732" fill="#010101"><path id="ID0.1540714567527175" d="M43.694 44.061c.008.143.404.219.395.045-.271-5.778-5.666-9.042-10.557-10.769-.184-.065-.418.089-.16.18 4.8 1.695 10.054 4.88 10.322 10.544z" transform="matrix(.95 0 0 .95 .2 1.15)"/><path id="ID0.42666460294276476" d="M29.735 36.224c-.113.117.26.265.363.158 1.021-1.056 2.309-1.796 3.393-2.781.117-.104-.254-.259-.363-.158-1.085.984-2.372 1.724-3.393 2.781z" transform="matrix(.95 0 0 .95 .2 1.15)"/><path id="ID0.23849423369392753" d="M33.151 36.043c.113-.12-.262-.267-.363-.158-.59.637-2.592 2.127-2.877.577-.027-.146-.424-.209-.395-.045.367 2.001 2.846.479 3.635-.374z" transform="matrix(.95 0 0 .95 .2 1.15)"/><path id="ID0.7982878955081105" d="M32.672 35.914c-.268-.05-.143.2.051.237 1.262.235 2.521.598 3.693 1.125.184.083.41-.069.16-.18-1.238-.56-2.57-.935-3.904-1.182z" transform="matrix(.95 0 0 .95 .2 1.15)"/><path id="ID0.4956959583796561" d="M32.229 38.18c.012.144.408.218.395.045-.055-.732.053-1.585.773-1.958.172-.089-.188-.263-.312-.199-.784.406-.917 1.307-.856 2.112z" transform="matrix(.95 0 0 .95 .2 1.15)"/><path id="ID0.597209039144218" d="M36.147 39.311c.184.068.416-.085.16-.18-1.217-.449-2.674-.217-3.756-.994-.133-.096-.465-.022-.248.133 1.143.821 2.576.573 3.844 1.041z" transform="matrix(.95 0 0 .95 .2 1.15)"/><path id="ID0.20498670684173703" d="M32.778 40.847c.137.074.48-.008.248-.133-.691-.371-.619-1.556-.402-2.188.049-.143-.342-.254-.393-.105-.26.756-.256 1.997.547 2.426z" transform="matrix(.95 0 0 .95 .2 1.15)"/><path id="ID0.13908223807811737" d="M32.026 39.272c.266-.006.012-.244-.148-.24-.928.018-1.023-1.034-.881-1.726.031-.154-.363-.253-.395-.105-.221 1.062.228 2.094 1.424 2.071z" transform="matrix(.95 0 0 .95 .2 1.15)"/><path id="ID0.2357101235538721" d="M32.854 42.214c.084.109.482.13.369-.018-.328-.425-.506-.89-.463-1.431.012-.161-.383-.248-.395-.105-.044.587.131 1.093.489 1.554z" transform="matrix(.95 0 0 .95 .2 1.15)"/><path id="ID0.9606323847547174" d="M40.172 47.427c.137.085.475.008.248-.133-.467-.29-.926-.38-1.445-.543-1.031-.323-1.779-.91-2.521-1.668-1.074-1.097-2.057-2.277-3.428-3.013-.137-.074-.482.008-.248.133 1.623.873 2.57 2.391 3.945 3.548 1.076.907 2.305.966 3.449 1.676z" transform="matrix(.95 0 0 .95 .2 1.15)"/><path id="ID0.6485585644841194" d="M43.723 68.118c.137.075.48-.007.248-.132-4.604-2.464-2.844-9.039-2.695-13.056.094-2.563-.357-5.024-.783-7.547-.025-.146-.422-.211-.395-.045.309 1.833.764 3.73.818 5.59.078 2.695-.672 5.406-.547 8.076.123 2.649.842 5.771 3.354 7.114z" transform="matrix(.95 0 0 .95 .2 1.15)"/><path id="ID0.4888677541166544" d="M44.076 44.073c-.055-.129-.447-.169-.371.018 3.379 8.158 8.027 18.798 4.645 27.648-.053.139.338.254.395.105 3.421-8.954-1.247-19.505-4.669-27.771z" transform="matrix(.95 0 0 .95 .2 1.15)"/><path id="ID0.05895658303052187" d="M48.729 71.872c.113-.115-.258-.265-.363-.16-3.234 3.267-12.508-4.008-14.814-6.207-.102-.098-.488-.084-.318.078 2.674 2.551 6.096 4.676 9.48 6.146 2.05.891 4.228 1.948 6.015.143z" transform="matrix(.95 0 0 .95 .2 1.15)"/><path id="ID0.5479405275546014" d="M32.471 40.595c-.271-.017-.154.224.047.237 1.174.073 2.344.196 3.475.532.238.07.293-.148.059-.217-1.165-.345-2.372-.477-3.581-.552z" transform="matrix(.95 0 0 .95 .2 1.15)"/></g></g></g><g id="Eyebrows"><g id="Eyebrow_Lines"><g id="ID0.1897554756142199" fill="#010101"><path id="ID0.5683310334570706" d="M29.061 19.347c.336.213 1.252.065.65-.314-2.721-1.718-5.135-1.504-7.676.362-.289.214.674.633.975.412 2.005-1.474 3.807-1.877 6.051-.46z" transform="matrix(.95 0 0 .95 .2 1.15)"/><path id="ID0.21590652968734503" d="M34.68 19.937c-.707.066.004.634.406.598 1.018-.095 1.852.129 2.43 1.023.186.289 1.242.388.977-.023-.835-1.29-2.34-1.736-3.813-1.598z" transform="matrix(.95 0 0 .95 .2 1.15)"/></g></g></g></g></svg>