<svg width="120" height="120" viewBox="0 0 120 120" xmlns="http://www.w3.org/2000/svg" xmlns:xlink="http://www.w3.org/1999/xlink"><defs><path id="a" d="M0 .841h119.163v2.9H0z"/><path id="c" d="M0 104.753h119.164V.117H0z"/></defs><g fill="none" fill-rule="evenodd"><path fill="gray" d="M51.52 33.876h1.889v-6.015H51.52zm13.996 0h1.888v-6.015h-1.888z"/><g transform="translate(0 8.13)"><g transform="translate(0 101.012)"><mask id="b" fill="#fff"><use xlink:href="#a"/></mask><path d="M119.163 3.081c0 .364-.31.66-.691.66H.691C.31 3.74 0 3.445 0 3.08V1.5C0 1.135.31.84.69.84h117.782c.381 0 .691.295.691.66v1.58z" fill="#4D4D4D" mask="url(#b)"/></g><mask id="d" fill="#fff"><use xlink:href="#c"/></mask><path fill="#F2F2F2" mask="url(#d)" d="M35.671 101.852h47.82V30.491h-47.82z"/><path fill="#CCC" mask="url(#d)" d="M35.671 101.852h47.82v-5.727h-47.82z"/><path fill="#F2F2F2" mask="url(#d)" d="M83.491 101.852h33.105V46.498H83.491z"/><path fill="#CCC" mask="url(#d)" d="M83.491 101.852h33.105V97.41H83.491z"/><path fill="#F2F2F2" mask="url(#d)" d="M49.214 20.569h20.499V.119h-20.5z"/><path fill="gray" mask="url(#d)" d="M35.671 30.49h47.82v-2.603h-47.82z"/><path d="M59.253 104.028c0 .157.129.286.288.286h8.948a.287.287 0 0 0 .288-.286V84.756a.287.287 0 0 0-.288-.287H59.54a.287.287 0 0 0-.287.287v19.272z" fill="#333" mask="url(#d)"/><path d="M59.462 103.72c0 .152.123.275.275.275h8.556a.275.275 0 0 0 .275-.274V85.063a.274.274 0 0 0-.275-.274h-8.556a.275.275 0 0 0-.275.274v18.658z" fill="#E6E6E6" mask="url(#d)"/><path d="M60.24 103.173V85.885c0-.152.122-.274.274-.274h7c.152 0 .276.122.276.274v17.288h-7.55z" fill="#333" mask="url(#d)"/><path d="M60.858 94.392A.571.571 0 1 0 62 94.39a.571.571 0 0 0-1.143.003" fill="#F2E9EC" mask="url(#d)"/><path d="M59.253 104.028a.287.287 0 0 1-.286.286h-8.95a.287.287 0 0 1-.288-.286V84.756c0-.158.129-.287.288-.287h8.95c.157 0 .286.129.286.287v19.272z" fill="#333" mask="url(#d)"/><path d="M59.044 103.72a.275.275 0 0 1-.275.275h-8.556a.275.275 0 0 1-.275-.274V85.063c0-.152.122-.274.275-.274h8.556c.151 0 .275.122.275.274v18.658z" fill="#E6E6E6" mask="url(#d)"/><path d="M58.266 103.173V85.885a.274.274 0 0 0-.274-.274h-7.001a.275.275 0 0 0-.275.274v17.288h7.55z" fill="#333" mask="url(#d)"/><path d="M57.648 94.392a.571.571 0 1 1-1.143-.003.571.571 0 0 1 1.143.003" fill="#F2E9EC" mask="url(#d)"/><path d="M69.437 103.173H49.07c-.152 0-.275.184-.275.412v1.168h20.918v-1.168c0-.228-.123-.412-.275-.412" fill="#CCC" mask="url(#d)"/><path d="M79.504 41.073a.66.66 0 0 1-.662.66H40.321a.66.66 0 0 1-.661-.66v-7.486a.66.66 0 0 1 .66-.661h38.522c.366 0 .662.297.662.66v7.487zm0 13.162c0 .364-.296.66-.662.66H40.321a.66.66 0 0 1-.661-.66V46.75a.66.66 0 0 1 .66-.66h38.522c.366 0 .662.296.662.66v7.486zm0 13.162a.661.661 0 0 1-.662.661H40.321a.66.66 0 0 1-.661-.661v-7.485a.66.66 0 0 1 .66-.66h38.522a.66.66 0 0 1 .662.66v7.485zm0 13.163c0 .364-.296.66-.662.66H40.321a.66.66 0 0 1-.661-.66v-7.487a.66.66 0 0 1 .66-.66h38.522c.366 0 .662.296.662.66v7.486z" fill="#9FECFF" mask="url(#d)"/><path d="M48.397 92.275a.661.661 0 0 1-.661.661h-7.415a.662.662 0 0 1-.663-.66V84.79c0-.366.297-.661.663-.661h7.415a.66.66 0 0 1 .661.66v7.485z" fill="#9CF2FB" mask="url(#d)"/><path d="M79.504 92.275a.661.661 0 0 1-.662.661h-7.414a.662.662 0 0 1-.662-.66V84.79a.66.66 0 0 1 .662-.661h7.414a.66.66 0 0 1 .662.66v7.485zM113.81 57.5a.66.66 0 0 1-.661.66H87.2a.661.661 0 0 1-.661-.66v-7.485c0-.365.296-.661.661-.661h25.948a.66.66 0 0 1 .66.66V57.5zm0 11.335a.66.66 0 0 1-.661.66H87.2a.66.66 0 0 1-.661-.66v-7.486a.66.66 0 0 1 .661-.66h25.948a.66.66 0 0 1 .66.66v7.486zm0 18.097a.66.66 0 0 1-.661.66H87.2a.66.66 0 0 1-.661-.66v-7.486a.66.66 0 0 1 .661-.66h25.948a.66.66 0 0 1 .66.66v7.486zm0 11.335a.66.66 0 0 1-.661.66H87.2a.66.66 0 0 1-.661-.66V90.78a.66.66 0 0 1 .661-.66h25.948a.66.66 0 0 1 .66.66v7.486z" fill="#9FECFF" mask="url(#d)"/><path d="M85.81 27.661a.66.66 0 0 1-.66.66H34.012a.662.662 0 0 1-.661-.66v-3.02a.66.66 0 0 1 .661-.66H85.15c.365 0 .662.295.662.66v3.02z" fill="#333" mask="url(#d)"/><path fill="gray" mask="url(#d)" d="M83.491 47.73h33.535v-2.398H83.491z"/><path d="M118.553 41.734H83.492v3.997h35.063a.61.61 0 0 0 .61-.607v-2.782a.608.608 0 0 0-.61-.608m-.002 29.933H83.492v3.997h35.063a.61.61 0 0 0 .61-.607v-2.782a.608.608 0 0 0-.61-.608" fill="#333" mask="url(#d)"/><path fill="#FF6565" mask="url(#d)" d="M57.495 18.266h3.935V2.418h-3.935z"/><path fill="#FF6565" mask="url(#d)" d="M51.52 12.306h15.885V8.38H51.52z"/><path fill="#000" mask="url(#d)" d="M83.491 101.852h4.714V41.734h-4.714z"/><path fill="#F2F2F2" mask="url(#d)" d="M2.566 101.852h33.105V46.498H2.566z"/><path fill="#CCC" mask="url(#d)" d="M2.566 101.852h33.105V97.41H2.566z"/><path d="M32.623 57.5a.66.66 0 0 1-.66.66h-6.866a.662.662 0 0 1-.662-.66v-7.485c0-.365.297-.661.662-.661h6.865a.66.66 0 0 1 .661.66V57.5zm-9.541 0a.66.66 0 0 1-.66.66h-6.866a.662.662 0 0 1-.662-.66v-7.485c0-.365.297-.661.662-.661h6.865a.66.66 0 0 1 .661.66V57.5zm-9.541 0a.66.66 0 0 1-.66.66H6.014a.661.661 0 0 1-.661-.66v-7.485c0-.365.296-.661.661-.661h6.865a.66.66 0 0 1 .661.66V57.5zm19.082 11.228a.66.66 0 0 1-.66.66h-6.866a.662.662 0 0 1-.662-.66v-7.485c0-.365.297-.66.662-.66h6.865a.66.66 0 0 1 .661.66v7.485zm-9.541 0a.66.66 0 0 1-.66.66h-6.866a.662.662 0 0 1-.662-.66v-7.485c0-.365.297-.66.662-.66h6.865a.66.66 0 0 1 .661.66v7.485zm-9.541 0a.66.66 0 0 1-.66.66H6.014a.66.66 0 0 1-.661-.66v-7.485a.66.66 0 0 1 .661-.66h6.865a.66.66 0 0 1 .661.66v7.485zm19.082 18.204c0 .364-.296.66-.662.66H6.015a.66.66 0 0 1-.662-.66v-7.486a.66.66 0 0 1 .662-.66H31.96c.366 0 .662.296.662.66v7.486zm0 11.335c0 .364-.296.66-.662.66H6.015a.66.66 0 0 1-.662-.66V90.78a.66.66 0 0 1 .662-.66H31.96a.66.66 0 0 1 .662.66v7.486z" fill="#9FECFF" mask="url(#d)"/><path fill="gray" mask="url(#d)" d="M2.136 47.73h33.535v-2.398H2.136z"/><path d="M.61 41.734h35.062v3.997H.609A.609.609 0 0 1 0 45.124v-2.782c0-.336.273-.608.61-.608m0 29.933h35.062v3.997H.609A.609.609 0 0 1 0 75.057v-2.782c0-.336.273-.608.61-.608" fill="#333" mask="url(#d)"/><path fill="#000" mask="url(#d)" d="M30.957 101.852h4.714V41.734h-4.713z"/></g></g></svg>