<svg width="120" height="120" viewBox="0 0 120 120" xmlns="http://www.w3.org/2000/svg" xmlns:xlink="http://www.w3.org/1999/xlink"><defs><path id="a" d="M0 .116h85.19V75.84H0z"/><path id="c" d="M.067.076H26.4v22.466H.067z"/></defs><g fill="none" fill-rule="evenodd"><g transform="translate(0 26.832)"><mask id="b" fill="#fff"><use xlink:href="#a"/></mask><path d="M28.188 11.83c4.549 1.593 9.625.46 12.94-3.056a24.918 24.918 0 0 1 6.378-4.877l1.413-.75L53.44.708c2.476-1.311 5.615-.37 6.87 2.147 1.216 2.438.273 5.418-2.137 6.693l-4.917 2.65c-3.049 1.615-4.22 5.41-2.617 8.479l4.064 7.775 7.551-3.997 4.032 7.713c1.622 3.102 5.436 4.295 8.52 2.663l2.984-1.58c2.477-1.311 5.616-.37 6.87 2.147 1.217 2.438.273 5.418-2.137 6.693l-8.655 4.582-3.047 1.612a24.805 24.805 0 0 1-7.483 2.538c-4.801.806-8.633 4.405-9.898 9.135-1.622 6.061-5.08 10.995-10.22 13.715-12.195 6.454-29.23-1.99-38.049-18.862-8.819-16.872-6.083-35.782 6.111-42.236 5.106-2.703 11.06-2.792 16.906-.744" fill="#532412" mask="url(#b)"/></g><path fill="#532412" d="M31.22 75.122l-5.807-11.109 68.58-36.298 5.806 11.109z"/><path d="M26.417 66.274l.824 1.577 70.563-37.349-.824-1.576-70.563 37.348zm.468 2.73l-1.614-3.088 72.065-38.143 1.614 3.088-72.065 38.143zm2.078 1.824l.824 1.577 70.562-37.349-.824-1.576-70.562 37.348zm.468 2.73l-1.614-3.088 72.064-38.143 1.615 3.088L29.43 73.558z" fill="#FFF"/><g transform="translate(93.6 17.352)"><mask id="d" fill="#fff"><use xlink:href="#c"/></mask><path d="M25.894 6.627l-2.187-4.183A4.39 4.39 0 0 0 18.259.36L2.919 6.18C.441 7.118-.658 10.03.574 12.385l4.071 7.788c1.232 2.357 4.237 3.095 6.41 1.574l13.456-9.423a4.446 4.446 0 0 0 1.382-5.698" fill="#532412" mask="url(#d)"/></g><path d="M16.442 65.442l6.38 13.828" fill="#323232"/><path d="M16.442 65.442l6.38 13.828" stroke="#FFF" stroke-width="2.499" stroke-linecap="round"/><path d="M23.803 61.985l6.38 13.828" fill="#323232"/><path d="M23.803 61.985l6.38 13.828" stroke="#FFF" stroke-width="2.499" stroke-linecap="round"/><path d="M101.84 21.981l6.38 13.828m.982-17.285l6.38 13.828" stroke="#532412" stroke-width="4.408" stroke-linecap="round"/></g></svg>