<svg width="120" height="120" viewBox="0 0 120 120" xmlns="http://www.w3.org/2000/svg"><g fill="none" fill-rule="evenodd"><path d="M0 0h120v120H0z"/><path d="M37.87 112.48A248.16 248.16 0 0 1 48.93 6.7a1.13 1.13 0 0 1 1.21-.7l5.65.59a1.1 1.1 0 0 1 1 1.41 248.15 248.15 0 0 0-11 104.92 1.1 1.1 0 0 1-1.24 1.08l-5.65-.59a1.13 1.13 0 0 1-1.03-.93z" fill="#8CB842" fill-rule="nonzero"/><path d="M36.38 90.4A1.4 1.4 0 0 1 35 89.06a1.44 1.44 0 0 1 1.31-1.54L44 87a1.4 1.4 0 0 1 1.48 1.34 1.44 1.44 0 0 1-1.31 1.54l-7.77.56-.02-.04zm3.42-44.69l7.68 1.28m-7.98.13a1.43 1.43 0 0 1-1.08-1.64A1.41 1.41 0 0 1 40 44.29l7.68 1.28a1.44 1.44 0 0 1-.46 2.84l-7.68-1.28-.04-.01zm18.6-21.59S51.51 29.32 45.23 41" fill="#BCCA3B" fill-rule="nonzero"/><path d="M45.12 42.06a1 1 0 0 1-.4-.13 1.1 1.1 0 0 1-.41-1.48c6.35-11.8 13-15.71 13.28-15.87A1 1 0 0 1 59 25a1.11 1.11 0 0 1-.41 1.48c-.09.06-6.44 3.85-12.45 15a1.05 1.05 0 0 1-1.02.58z" fill="#BCCA3B" fill-rule="nonzero"/><path d="M61.85 28c-1.5-.16-4.43-1.73-4.27-3.27.16-1.54 3.35-2.47 4.85-2.32 0 0 22.76 3.64 22.6 5.19-.15 1.5-23.18.4-23.18.4zm-7.13 8.28c-1.25-1.1-2.7-4.68-1.35-6.3 1.36-1.63 5-.69 6.26.42 0 0 18 18.19 16.64 19.82-1.36 1.61-21.55-13.94-21.55-13.94z" fill="#8CB842" fill-rule="nonzero"/><path d="M59.18 77.47l-6.23-13.38a7.09 7.09 0 0 1 3.18-9.3 6.64 6.64 0 0 1 9 3.22l6.23 13.39a2.73 2.73 0 0 1-1.22 3.6l-7.5 3.74a2.55 2.55 0 0 1-3.46-1.27z" fill="#D93A2A" fill-rule="nonzero"/><path d="M59.79 29.58c-.82-.51-1.88-2.63-1.1-4 .78-1.33 3.1-1.37 3.92-.86 0 0 12 8.87 11.19 10.2-.8 1.37-14.01-5.34-14.01-5.34z" fill="#50A648" fill-rule="nonzero"/><path d="M57.92 63.24a3 3 0 0 1-2.72-3.34v-.21A3 3 0 0 1 58.58 57a3 3 0 0 1 2.72 3.34v.21a3 3 0 0 1-3.38 2.69z" fill="#FBEEEE" fill-rule="nonzero"/><path d="M58.84 60.76c-.28 0-.46-.25-.61-.54l-.12-.32-.08-.2-1.11-2.86v-.07L55.05 52c-5.84-15.13-3.76-23.2-3.67-23.54a.79.79 0 0 1 1-.57.81.81 0 0 1 .55 1 20.84 20.84 0 0 0-.32 5.72 55 55 0 0 0 3.94 16.78l3 7.83.05.14.09.24a.78.78 0 0 1-.43 1.06.84.84 0 0 1-.42.1z" fill="#D93A2A" fill-rule="nonzero"/><ellipse fill="#F1D11E" fill-rule="nonzero" transform="rotate(-84.03 62.73 69.253)" cx="62.73" cy="69.253" rx="3.47" ry="3.36"/></g></svg>