<svg width="120" height="120" viewBox="0 0 120 120" xmlns="http://www.w3.org/2000/svg"><g fill="none" fill-rule="evenodd"><path d="M92.79 39.088c0 38.021-65.438 38.215-65.438 0 0-21.213 14.649-38.409 32.72-38.409 18.07 0 32.718 17.196 32.718 38.409" fill="#42210B"/><path d="M79.255 44.065c-1.83 3.457-1.946 9.645.938 11.555 2.885 1.91 7.678-1.18 9.507-4.638 1.83-3.457.975-7.808-1.91-9.718-2.884-1.91-6.706-.656-8.535 2.801m-37.592 0c1.83 3.457 1.946 9.645-.939 11.555-2.885 1.91-7.678-1.18-9.507-4.638-1.83-3.457-.974-7.808 1.91-9.718 2.885-1.91 6.706-.656 8.536 2.801" fill="#ECBA97"/><path d="M35.645 70.775c-.152-.661-3.658-16.342.422-29.681l5.565 1.702c-3.63 11.87-.348 26.534-.314 26.68l-5.673 1.299zm49.385 0l-5.672-1.298c.033-.146 3.304-14.85-.314-26.681l5.564-1.702c4.08 13.339.574 29.02.423 29.68M73.772 60.567a7.692 7.692 0 0 0-1.035 2.281 8.228 8.228 0 0 0-.26 2.734 8.53 8.53 0 0 0 .744 2.92 8.338 8.338 0 0 0 1.966 2.706l.167.153a1.706 1.706 0 0 1-.812 2.932c-1.495.302-3.132.315-4.78.037-1.648-.276-3.307-.838-4.893-1.654-3.177-1.63-6.049-4.289-8.18-7.66l-2.987-4.724c-3.535-5.592-1.868-12.99 3.724-16.525 5.592-3.536 12.99-1.868 16.525 3.723 2.613 4.133 2.375 9.26-.18 13.077" fill="#42210B"/><path d="M63.727 65.017c-2.131 3.37-5.004 6.03-8.18 7.659-1.586.816-3.245 1.378-4.894 1.654-1.647.278-3.284.265-4.779-.037a1.706 1.706 0 0 1-.813-2.932l.168-.153a8.34 8.34 0 0 0 1.965-2.707 8.5 8.5 0 0 0 .744-2.919 8.224 8.224 0 0 0-.259-2.734 7.695 7.695 0 0 0-1.035-2.28c-3.687-5.493-2.224-12.935 3.269-16.622 5.493-3.687 12.934-2.223 16.621 3.269 2.725 4.06 2.637 9.183.188 13.07l-2.995 4.732z" fill="#42210B"/><path d="M92.681 94.859c0 26.673 3.836 23.763-32.623 23.763-36.46 0-32.624 3.298-32.624-23.763 0-13.124 14.606-21.436 32.624-21.436 18.017 0 32.623 8.312 32.623 21.436" fill="#E6E6E6"/><path d="M40.206 92.321l14.464 26.837a26.833 26.833 0 0 1 5.388-.536c2.175 0 4.19.246 6.06.699l13.79-26.223-3.843-4.783 9.749-9.417c-5.49-8.466-14.779-4.62-25.368-4.432v-.768c-10.911 0-20.52-4.249-26.144 4.424l9.748 9.417-3.844 4.782z" fill="#B3B3B3"/><path d="M46.53 75.281l11.001 43.346a638.9 638.9 0 0 1 5.407 0l10.957-43.273c-4.247-1.009-8.924-1.543-13.837-1.543-4.794 0-9.363.508-13.527 1.47" fill="#FFF"/><path d="M67.108 68.917a6.962 6.962 0 0 0-13.8-1.856c-.199 1.473.11 5.584 0 6.401a6.962 6.962 0 1 0 13.8 1.857c.198-1.473-.11-5.584 0-6.402" fill="#ECBA97"/><path d="M36.8 46.881c-4.512-21.959 6.19-37.8 23.408-37.8 17.216 0 27.92 15.841 23.408 37.8-.029.14-.705 1.872-1.03 3.468-.283 1.393-.932 6.06-.956 6.166-1.344 5.941-5.458 9.425-9.654 11.523-2.672 1.337-7.505 2.951-10.06 3.323a11.798 11.798 0 0 1-3.417-.004c-2.557-.377-7.395-2.002-10.068-3.345-4.208-2.114-8.335-5.62-9.668-11.597-.02-.088-.66-4.711-.934-6.066-.324-1.594-1.005-3.347-1.03-3.468" fill="#ECCDAF"/><path d="M55.16 57.195c1.488.904 3.21 2.208 5.047 2.208 1.838 0 3.56-1.304 5.048-2.208" stroke="#C1272D" stroke-width="1.358" stroke-linecap="round" stroke-linejoin="round"/><path d="M45.005 44.132c0 3.214 1.78 5.431 3.976 5.431 2.197 0 3.977-2.217 3.977-5.431s-1.78-4.656-3.977-4.656c-2.196 0-3.976 1.442-3.976 4.656m22.84 0c0 3.214 1.78 5.431 3.977 5.431 2.196 0 3.976-2.217 3.976-5.431s-1.78-4.656-3.976-4.656c-2.197 0-3.977 1.442-3.977 4.656" fill="#FFF"/><path d="M45.684 44.158c0 2.992 1.657 5.056 3.7 5.056 2.045 0 3.702-2.064 3.702-5.056 0-2.99-1.657-4.332-3.701-4.332s-3.701 1.341-3.701 4.332" fill="#42210B"/><path d="M48.515 42.444a1.649 1.649 0 1 1-3.297 0 1.649 1.649 0 0 1 3.297 0" fill="#FFF"/><path d="M67.717 44.158c0 2.992 1.657 5.056 3.701 5.056s3.701-2.064 3.701-5.056c0-2.99-1.657-4.332-3.7-4.332-2.045 0-3.702 1.341-3.702 4.332" fill="#42210B"/><path d="M41.722 35.864c.87-.92 1.938-1.646 3.092-2.165 1.155-.52 2.395-.827 3.647-.972a14.26 14.26 0 0 1 3.781.08c.63.102 1.255.25 1.868.45a11.2 11.2 0 0 1 1.788.768.805.805 0 1 1-.798 1.398l-.005-.003a9.67 9.67 0 0 0-1.492-.737 11.029 11.029 0 0 0-1.62-.482 12.94 12.94 0 0 0-3.417-.253c-1.145.072-2.285.29-3.353.705a8.826 8.826 0 0 0-2.893 1.804l-.002.002a.421.421 0 0 1-.596-.595" fill="#754C24"/><path d="M71.018 42.444a1.649 1.649 0 1 1-3.298 0 1.649 1.649 0 0 1 3.298 0" fill="#FFF"/><path d="M65.065 33.868a11.72 11.72 0 0 1 3.606-1.1 14.184 14.184 0 0 1 3.703-.019c.613.074 1.22.193 1.817.359.596.164 1.18.371 1.744.628a9.787 9.787 0 0 1 3.014 2.137.409.409 0 0 1-.577.579l-.004-.003a8.867 8.867 0 0 0-2.831-1.779 10.625 10.625 0 0 0-1.613-.48 11.075 11.075 0 0 0-1.669-.233 12.876 12.876 0 0 0-3.351.204 10.167 10.167 0 0 0-3.08 1.127.805.805 0 1 1-.763-1.418l.004-.002z" fill="#754C24"/><path d="M67.192 39.737a8.757 8.757 0 0 1 2.546-.654c.859-.089 1.707-.07 2.547.041a9.146 9.146 0 0 1 2.452.67c.78.343 1.514.816 2.12 1.426a.493.493 0 0 1-.66.73l-.007-.005a5.8 5.8 0 0 0-1.892-1.008 7.84 7.84 0 0 0-2.14-.356 9.219 9.219 0 0 0-2.162.184 6.933 6.933 0 0 0-1.953.715.972.972 0 1 1-.862-1.738l.011-.005zM52.76 41.48a6.934 6.934 0 0 0-1.954-.715 9.206 9.206 0 0 0-2.161-.184 7.835 7.835 0 0 0-2.14.356 5.8 5.8 0 0 0-1.892 1.008l-.005.004a.493.493 0 0 1-.663-.73 6.903 6.903 0 0 1 2.12-1.425 9.177 9.177 0 0 1 2.453-.67 10.79 10.79 0 0 1 2.546-.04 8.76 8.76 0 0 1 2.546.653l.01.004a.971.971 0 1 1-.86 1.74m8.388-32.326a7.208 7.208 0 0 0-2.779-.085 7.526 7.526 0 0 0-2.739 1.041 8.704 8.704 0 0 0-2.323 2.136 10.573 10.573 0 0 0-1.578 3.003 12.918 12.918 0 0 0-.658 3.54c-.057 1.22.054 2.461.346 3.673.299 1.207.773 2.39 1.445 3.465a10.29 10.29 0 0 0 2.572 2.827l.011.007a.678.678 0 0 1-.708 1.15 11.831 11.831 0 0 1-1.892-1.173 12.764 12.764 0 0 1-1.657-1.518 14.44 14.44 0 0 1-2.486-3.793A16.323 16.323 0 0 1 47.43 19a17.307 17.307 0 0 1-.169-2.33c-.006-.783.043-1.575.149-2.369.215-1.585.67-3.182 1.406-4.692a14.367 14.367 0 0 1 3.024-4.141 13.973 13.973 0 0 1 4.511-2.87 14.395 14.395 0 0 1 5.41-.983l.264.002a3.815 3.815 0 1 1-.877 7.538" fill="#42210B"/><path d="M60.103 3.395c-8.873 0-12.212 8.294-8.603 16.224 2.81 6.176 9.2 10.346 14.827 10.448 5.018.091 15.105 1.729 20.062 1.824 5.64.108-18.34-28.496-26.286-28.496" fill="#42210B"/><path d="M29.454 25.522c1.77 8.707 6.5 19.182 6.893 22.295.345 2.73.952-15.278 6.107-20.606 6.387-6.599 10.589-16.59 10.21-19.584-.248-1.97-1.088-3.742-2.35-5.21-9.615 3.521-17.323 12.111-20.86 23.105m61.113 0c-1.77 8.707-6.5 19.182-6.893 22.295-.345 2.73-.951-15.278-6.107-20.606-6.386-6.599-10.589-16.59-10.21-19.584.248-1.97 1.089-3.742 2.35-5.21 9.616 3.521 17.324 12.111 20.86 23.105" fill="#42210B"/><path d="M69.708 2.416c-1.155 1.344-1.955 2.942-2.274 4.713-2.912-2.266-5.533-3.734-7.331-3.734-8.873 0-12.212 8.294-8.603 16.224 2.81 6.176 9.2 10.346 14.827 10.448l.1.002c8.477.186 15.547 6.541 16.675 14.944.319 2.373.46 3.697.572 2.804.393-3.113 5.123-13.588 6.893-22.295-3.536-10.994-11.244-19.584-20.86-23.106" fill="#42210B"/><path d="M59.092 50.912a4.17 4.17 0 0 1 0-5.898" stroke="#F15A24" stroke-width="1.164" stroke-linecap="round" stroke-linejoin="round"/><path d="M49.829 81.226c0 5.397 4.647 3.944 10.379 3.944 5.732 0 10.379 1.246 10.379-3.944 0-5.19-4.647-3.944-10.38-3.944-5.731 0-10.378-1.453-10.378 3.944" fill="#FFF"/><path fill="#F2F2F2" d="M71.406 75.373l-8.737 7.721-2.696-5.518 8.736-7.722z"/><path fill="#F2F2F2" d="M49.01 75.373l8.736 7.721 2.697-5.518-8.736-7.722z"/><path d="M71.07 51.794a.873.873 0 1 1-1.745 0 .873.873 0 0 1 1.746 0m2.328 1.94a.873.873 0 1 1-1.746 0 .873.873 0 0 1 1.746 0m1.745-1.94a.873.873 0 1 1-1.745 0 .873.873 0 0 1 1.745 0m-28.127 0a.873.873 0 1 1-1.746 0 .873.873 0 0 1 1.746 0m2.327 1.94a.873.873 0 1 1-1.745 0 .873.873 0 0 1 1.745 0m2.134-1.94a.873.873 0 1 1-1.746 0 .873.873 0 0 1 1.746 0" fill="#C69C6D"/><path d="M60.071 0c-3.407 0-6.768.598-9.99 1.779-.004 0-.01.003-.013.004-.264.097-.543.204-.846.326l-.15.062-.08.033c-.228.094-.432.18-.623.264l-.224.1-.048.021a32 32 0 0 0-1.446.697l-.075.038-.158.081c-.235.123-.476.254-.715.387l-.033.019-.063.034c-.279.157-.558.32-.83.484l-.036.023-.016.01c-.24.145-.488.3-.736.46l-.122.08-.07.046a32.044 32.044 0 0 0-1.376.951l-.048.035-.155.114c-.194.144-.398.299-.605.46l-.056.043a34.093 34.093 0 0 0-2.29 1.956l-.073.07-.047.044c-.197.186-.393.374-.58.559l-.138.137c-.189.188-.38.383-.567.578l-.041.043-.07.073c-.221.232-.435.462-.635.685l-.02.021a37.344 37.344 0 0 0-1.94 2.34l-.03.041-.02.027a38.19 38.19 0 0 0-.552.744l-.062.086c-.187.26-.371.524-.548.783l-.011.016-.015.022a39.939 39.939 0 0 0-2.163 3.577l-.01.02c-.16.298-.32.607-.476.917l-.014.028a42.115 42.115 0 0 0-2.098 4.955l-.004.012c-.116.33-.232.677-.343 1.022l-.002.007c-1.417 4.403-2.135 9.037-2.135 13.774 0 3.762.628 7.303 1.867 10.525a25.986 25.986 0 0 0 4.905 8.02c.193 7.342 1.482 13.051 1.538 13.293a.68.68 0 0 0 .813.51l5.673-1.298a.679.679 0 0 0 .51-.813c-.005-.024-.504-2.233-.9-5.65.346.194.696.381 1.046.56 1.267 1.362 2.813 2.58 4.603 3.626a7.63 7.63 0 0 1-1.957 2.846l-.168.153a2.365 2.365 0 0 0-.702 1.17c-4.662.312-7.815 2.092-10.17 5.722a.679.679 0 0 0 .099.858l1.178 1.138c-5.404 3.96-8.253 9.17-8.253 15.11 0 2.602-.036 4.936-.067 6.995-.123 8.05-.191 12.484 2.222 14.934 2.211 2.245 6.284 2.64 14.024 2.64 1.928 0 4.053-.024 6.512-.051 1.447-.017 2.94-.033 4.545-.047l.082.15a.68.68 0 0 0 .733.344 26.31 26.31 0 0 1 5.252-.522 25.1 25.1 0 0 1 5.9.68.682.682 0 0 0 .76-.344l.161-.306c1.002.007 1.966.016 2.893.024 2.35.021 4.38.04 6.251.04 8.62 0 12.853-.396 15.16-2.739 2.437-2.475 2.368-6.887 2.244-14.898a430.658 430.658 0 0 1-.067-6.9c0-5.76-2.694-10.851-7.801-14.77l.726-.702a.68.68 0 0 0 .098-.858c-2.294-3.537-5.34-5.316-9.802-5.694a2.373 2.373 0 0 0-.769-1.974l-.167-.154a7.632 7.632 0 0 1-1.95-2.826c1.968-1.148 3.639-2.503 4.973-4.035.323-.175.646-.358.967-.546-.401 3.625-.933 6.001-.94 6.028a.68.68 0 0 0 .511.811l5.673 1.299a.683.683 0 0 0 .513-.087.679.679 0 0 0 .3-.424c.06-.257 1.425-6.311 1.553-13.98a25.969 25.969 0 0 0 4.514-7.792c1.135-3.098 1.71-6.485 1.71-10.066 0-10.42-3.461-20.222-9.746-27.6C80.66 7.891 77.087 5.065 73.11 3.09 68.98 1.04 64.594 0 60.07 0m0 .679c18.07 0 32.719 17.196 32.719 38.409 0 7.242-2.376 13.11-6.22 17.604-.101 7.662-1.447 13.679-1.54 14.083l-5.672-1.298c.015-.066.687-3.09 1.09-7.477-.716.463-1.454.9-2.212 1.306-1.552 1.81-3.432 3.195-5.372 4.265a8.335 8.335 0 0 0 2.322 3.637l.168.153c.598.546.717 1.42.335 2.096 4.053.177 7.517 1.42 10.125 5.44l-1.302 1.258c5.083 3.659 8.169 8.672 8.169 14.704 0 21.896 2.587 23.856-16.658 23.856-2.723 0-5.885-.039-9.552-.067l-.354.673a25.64 25.64 0 0 0-6.06-.699c-1.891 0-3.684.188-5.387.536l-.275-.512c-4.531.037-8.31.103-11.46.103-17.98 0-15.5-2.132-15.5-23.89 0-6.213 3.274-11.347 8.633-15.031L34.3 78.122c2.625-4.048 6.119-5.28 10.207-5.444a1.7 1.7 0 0 1 .553-1.317l.168-.153a8.337 8.337 0 0 0 2.329-3.657c-1.793-.99-3.537-2.251-5.017-3.866a31.835 31.835 0 0 1-2.28-1.276c.407 4.165 1.042 7.003 1.057 7.068l-5.673 1.298c-.09-.392-1.36-6.07-1.527-13.41-4.164-4.57-6.766-10.66-6.766-18.277 0-4.776.745-9.347 2.102-13.566v-.003c.111-.342.225-.681.343-1.019l.001-.003a41.305 41.305 0 0 1 2.064-4.876l.014-.026c.153-.304.31-.606.469-.905l.009-.016a39.085 39.085 0 0 1 2.125-3.516l.026-.037a38.176 38.176 0 0 1 1.141-1.586l.05-.067a36.586 36.586 0 0 1 1.904-2.296l.02-.021c.205-.227.412-.451.622-.672l.11-.114c.184-.192.37-.38.557-.568l.134-.134c.188-.185.378-.367.57-.548l.118-.111c.224-.21.45-.416.679-.618l.013-.012c.48-.423.969-.83 1.468-1.223l.139-.107c.196-.153.393-.303.593-.45l.198-.147a31.593 31.593 0 0 1 1.348-.931c.062-.041.124-.083.187-.123.24-.154.48-.305.723-.452l.05-.03c.268-.163.539-.32.812-.474.03-.018.062-.034.094-.052.231-.13.464-.256.699-.379.075-.04.151-.078.227-.116a28.95 28.95 0 0 1 1.414-.681l.266-.12c.202-.087.405-.173.61-.257.074-.03.149-.063.224-.093.276-.11.553-.218.833-.32l.006-.003A28.277 28.277 0 0 1 60.07.68" fill="#1A1A1A"/></g></svg>