<svg width="169" height="169" viewBox="0 0 169 169" xmlns="http://www.w3.org/2000/svg"><g fill="none"><g transform="translate(17 89.453)"><ellipse fill="#B5C5C1" transform="rotate(-59.53 15.263 14.77)" cx="15.263" cy="14.77" rx="10.661" ry="10.627"/><path d="M13.01 19.722h1.626c.813 0 .813-1.26 0-1.26H13.01c-.813 0-.813 1.26 0 1.26zm-.181 3.422c.542-.18 1.084-.27 1.626-.45.723-.27.452-1.441-.361-1.17-.542.18-1.084.36-1.626.45-.814.18-.452 1.35.361 1.17zm-.813-8.735c.723.54 1.716 1.08 2.62 1.35.813.18 1.084-.99.361-1.17-.361-.09-.723-.27-1.084-.45-.18-.09-.361-.18-.632-.36-.09-.09-.181-.09-.271-.18 0 0-.181-.18-.181-.09-.271-.18-.632-.27-.903 0-.09.18-.181.63.09.9zm2.801-2.702c.542.45 1.174.99 1.806 1.441.271.18.723 0 .814-.18.18-.36 0-.63-.181-.81-.542-.36-.994-.811-1.536-1.261-.271-.18-.632-.27-.903 0-.181.18-.271.63 0 .81zm3.343-2.701c.18.72.632 1.35 1.174 1.89.542.541 1.445-.36.903-.9-.361-.36-.723-.81-.813-1.35-.27-.721-1.445-.451-1.265.36zm3.613 1.801c.18.54.452 1.08.723 1.62.361.721 1.445.09 1.084-.63-.271-.45-.452-.9-.632-1.35-.181-.721-1.356-.36-1.175.36zM7.047 15.94c.813.36 1.626.54 2.44.9.27.09.722-.18.722-.45.09-.36-.09-.63-.452-.72-.723-.27-1.445-.45-2.168-.72-.632-.361-1.265.63-.542.99zm.452-4.233c.542.36 1.174.81 1.716 1.261.271.18.633.27.904 0 .18-.18.27-.63 0-.9-.633-.45-1.265-.991-1.988-1.441-.271-.18-.723-.09-.813.18-.18.36-.09.63.18.9zm2.891-3.062c.813.81 1.536 1.621 2.439 2.252.632.45 1.265-.63.632-1.081-.813-.54-1.445-1.35-2.168-2.071-.632-.54-1.445.27-.903.9zm3.613-2.341c.181.18.362.36.452.54.542.54 1.446-.27.904-.9-.181-.18-.362-.36-.452-.54-.542-.541-1.446.36-.904.9zM7.318 21.163h1.988c.813 0 .813-1.26 0-1.26H7.318c-.813 0-.813 1.26 0 1.26zm9.757-1.801c.633 0 1.265.09 1.807.18.361.09.632-.09.723-.45.09-.27-.09-.72-.452-.72l-2.168-.27c-.723 0-.723 1.17.09 1.26zm.362 3.422c.36 0 .632-.09.993-.18.271-.09.542-.45.452-.72-.09-.27-.452-.54-.723-.45-.18.09-.451.18-.632.18-.904 0-.904 1.26-.09 1.17zm0-7.384c.451.63.993 1.26 1.626 1.8.542.54 1.445-.36.903-.9a7.18 7.18 0 0 1-1.355-1.53.59.59 0 0 0-.813-.181c-.452.18-.632.54-.361.81zm2.8-1.351l.542.81c.452.72 1.446.09 1.084-.63-.18-.27-.36-.54-.542-.81-.451-.631-1.535 0-1.084.63z" fill="#CBD7D4"/></g><path d="M105.719 120.162c-.723-3.782-.452-7.565.09-11.437 1.174-8.465 20.599-21.613 22.857-13.869 2.35 8.195 1.446 22.244-1.355 30.71-1.355 4.142 2.8 15.219 2.8 15.219l6.686 2.07c1.446 1.172 2.891 2.432 3.162 4.233.271 1.441-2.439 2.432-6.053.18 2.35 2.792-.994 2.792-3.162 2.522-5.24-.54-10.48-6.664-11.383-7.925-2.71-3.512-12.016-13.598-13.642-21.703z" fill="#B5C5C1"/><path d="M65.696 144.657c-4.698-4.773 2.168-5.584 1.897-10.176-.542-8.556-16.804-11.347-15.449-22.244 1.265-10.176 18.702-12.518 25.748-12.067 9.487.63 18.43 5.223 25.93 11.707 5.51 4.773 6.595 11.977 1.174 16.84-5.06 4.593-9.848 6.574-15.088 10.627 3.795 2.07 10.48-.72 14.907-.63 1.446 0 3.885-.721 5.963-.27 2.349.45 4.156 2.25 5.42 3.511 3.343 3.152-3.161 3.332-5.42 3.602 13.371 4.143-18.701 4.143-22.767 3.152 0 .09-20.418-2.07-22.315-4.052z" fill="#B5C5C1"/><path d="M108.248 133.67c-4.788 6.754-22.767 16.66-30.536 18.011-12.649 2.252-40.023-4.773-42.01-28.187-2.079-24.135 17.888-42.236 41.106-42.416 23.219-.18 24.664 2.341 27.194-5.313.723-2.342 5.15-11.978 5.963-14.23 1.355-3.781 13.19 2.252 17.075 2.162 9.125-.18 5.06-11.437 13.28 9.636 7.409 18.912 3.072 37.823-12.467 51.872l-19.605 8.465z" fill="#CBD7D4"/><path d="M96.594 129.978c-.542-3.782.09-7.655.813-11.437 1.716-8.375 32.524-23.234 34.15-15.31 1.807 8.376-9.938 29.629-13.461 33.681-2.8 3.332 2.349 12.968 2.349 12.968l7.227 3.872c1.356 1.261 1.898 3.603 1.175 4.954-.633 1.35-2.53 1.71-5.963-.72 2.168 2.97-1.174 2.61-3.343 2.34-5.51-.63-10.118-6.393-10.931-7.654-2.169-3.782-10.932-14.5-12.016-22.694z" fill="#CBD7D4"/><path d="M123.788 159.516c-.452-1.981-1.898-3.782-3.795-4.593-.723-.36-1.355.72-.632 1.08 1.626.721 2.89 2.162 3.252 3.873.18.72 1.355.36 1.175-.36zm2.891-91.046c-9.938-4.052-20.78-28.007-24.122-38.543-3.614-11.347-2.71-26.567-2.71-26.567 5.42-2.341 17.616 18.912 21.32 27.557 5.421 12.608 12.74 26.837 14.636 40.705l-9.124-3.152z" fill="#B5C5C1"/><path d="M119.903 61.176c-12.649 6.664-32.344 1.26-45.805-3.783-3.795-1.44-8.221-4.052-12.558-7.024-5.963-4.233-11.745-9.276-15.268-13.328-5.421-6.124 27.284-2.702 36.77.54 15.9 5.494 34.512 12.788 45.715 24.495l-8.854-.9z" fill="#C9D8D5"/><path d="M138.604 90.624c-6.776 4.322-15.99-.36-23.85-2.882-15.811-5.043-20.057-34.221 1.174-41.155 19.424-6.394 31.53 19.542 29.723 32.78-1.807 13.238-7.047 11.257-7.047 11.257z" fill="#B5C5C1"/><path d="M113.037 89.723c-11.655-9.996-15.45-35.031 4.246-43.226 19.605-8.105 31.982 18.01 29.814 32.96 0 0-1.175 10.897-10.932 14.95-10.751 4.412-14.094 3.061-23.128-4.684z" fill="#C9D8D5"/><g transform="translate(110.959 62.436)"><ellipse fill="#3C4F45" transform="rotate(-12.099 2.987 8.284)" cx="2.987" cy="8.284" rx="1.988" ry="2.522"/><g fill="#3C4F45"><path d="M19.966 17.921c.813.36 1.988.81 2.982.45.903-.36.993-1.08 1.264-1.89.271-.811-.993-1.172-1.264-.361-.09.36-.09.81-.452.99-.452.18-1.355-.18-1.807-.36-.813-.36-1.536.81-.723 1.171z"/><path d="M21.773 17.921c.361 1.44.542 2.972.452 4.503-.09.9 1.265.81 1.355 0 .18-1.621-.09-3.332-.452-4.863-.27-.81-1.626-.45-1.355.36z"/><path d="M19.334 22.334c1.445 1.53 5.15 1.08 6.414-.45.542-.631-.451-1.622-.903-.901-.813.99-3.524 1.53-4.517.45-.633-.72-1.536.27-.994.9z"/></g><path d="M10.66 15.67c-1.806.18-3.523.81-5.059 1.71-.722.36-.09 1.442.633 1.081 1.355-.81 2.89-1.35 4.427-1.53.813-.18.813-1.351 0-1.261zm-1.987 3.962c-1.174.54-2.259 1.08-3.343 1.891-.632.45 0 1.531.633 1.08.994-.72 2.168-1.35 3.343-1.89.632-.36 0-1.441-.633-1.081zm22.315-6.754c1.084-.45 2.259-.9 3.343-1.26.723-.271.452-1.442-.361-1.172-1.175.45-2.44.901-3.614 1.441-.723.18-.09 1.261.632.99zm.813 2.252c.723 0 1.536-.09 2.259-.09.813 0 .813-1.262 0-1.262-.723 0-1.536.09-2.259.09-.813.09-.813 1.261 0 1.261zm-19.424 5.042c-.994 1.081-1.897 2.072-2.8 3.152-.543.63.36 1.441.903.9.903-1.08 1.897-2.16 2.8-3.151.543-.63-.36-1.441-.903-.9zM31.44 17.29c.903.18 1.807.631 2.8.54.814-.09.814-1.35 0-1.26-.903.09-1.626-.27-2.439-.45-.813-.18-1.084.99-.361 1.17z" fill="#B5C5C1"/><path d="M25.929 3.512c1.897.27 3.794-.18 4.608-2.071.36-.81-.814-1.441-1.175-.63-.542 1.26-1.807 1.62-3.072 1.44-.903-.09-1.264 1.171-.361 1.261z" fill="#3C4F45"/></g><path d="M110.146 63.337c-.09-.45.27-.99.542-1.35.451-.541.993-.811 1.626-.811.813 0 .813-1.171 0-1.261-1.807-.09-3.614 1.891-3.343 3.692.18.81 1.355.54 1.175-.27zm24.664-5.944c1.084-.63 1.807-.81 3.071-.45.723.27 1.085-.9.362-1.17-1.536-.45-2.71-.18-3.975.54-.723.45-.09 1.53.542 1.08z" fill="#B5C5C1"/><path d="M49.886 157.445c-4.337-5.133 2.62-5.404 2.71-9.996.18-8.556-15.359-17.02-13.19-27.827 2.077-10.087 18.7-9.186 25.567-8.105 9.396 1.35 20.87 11.437 27.826 18.551 5.06 5.223 5.602 12.428-.18 16.84-5.421 4.143-12.649 3.602-18.25 7.205 3.614 2.341 10.48.09 14.907.63 1.445.18 3.975-.36 5.963.18 2.258.63 3.884 2.612 5.15 3.963 3.071 3.422-3.434 3.152-5.692 3.152 13.01 5.133-18.973 2.611-22.948 1.35.09 0-20.057-3.872-21.863-5.943z" fill="#CBD7D4"/><path d="M65.063 111.517c8.583 1.26 19.063 9.906 26.11 16.84-6.685-11.437-20.147-18.551-29.994-18.011-3.614.18-6.505.45-8.854.9 4.788-.63 9.667-.18 12.738.27zm27.556 50.25c1.807.36 3.162.991 4.246 2.432.452.63 1.536 0 1.084-.63-.632-.811-1.265-1.621-2.168-2.072-.904-.45-1.898-.72-2.801-.9-.813-.18-1.084 1.08-.361 1.17z" fill="#B5C5C1"/></g></svg>