<svg width="120" height="120" viewBox="0 0 120 120" xmlns="http://www.w3.org/2000/svg" xmlns:xlink="http://www.w3.org/1999/xlink"><defs><path id="a" d="M0 .092h118.826v51.73H0z"/></defs><g fill="none" fill-rule="evenodd"><g transform="matrix(-1 0 0 1 120 34.086)"><mask id="b" fill="#fff"><use xlink:href="#a"/></mask><path d="M111.267 4.495v47.328h-6.431V44.71h-2.474v7.112h-6.43V44.22H76.636v7.602H69.71V44.71h-3.711v7.112h-7.174c.248 0 0-11.281 0-11.281s-8.657 8.74-32.158 8.294c-23.5-.445-33.641-26.194-21.52-36.74 0 0-2.226-4.659 1.484-7.601 3.71-2.943 7.669 3.433 7.669 3.433s-1.484-5.885 3.71-6.621c5.194-.736 5.442 4.168 5.442 4.168s21.027-.98 25.478-.735c0 0-3.71-1.622-1.978-3.509 1.731-1.885 5.197 3.019 5.197 3.019S54.125-.442 56.846.8c2.72 1.243-1.212 3.695-1.212 3.695S95.93 1.835 104.096.59c8.161-1.245 11.873-.265 13.85 4.149 1.98 4.414 0 6.62 0 6.62s-.988-7.355-6.679-6.865" fill="#E6A960" mask="url(#b)"/></g><path d="M66.865 41.278c0-.677-.555-1.225-1.238-1.225a1.23 1.23 0 0 0-1.236 1.225 1.23 1.23 0 0 0 1.236 1.227c.683 0 1.238-.548 1.238-1.227m4.699 0a1.23 1.23 0 0 0-1.236-1.225c-.683 0-1.238.548-1.238 1.225 0 .679.555 1.227 1.238 1.227a1.23 1.23 0 0 0 1.236-1.227" fill="#604C3F"/><path d="M54.002 83.424l.864-.502 1.608 1.147 1.363-1.96 1.358 1.96 1.391-1.147.48.25c.002 1.575.03 2.736.11 2.736h-7.174v-2.484zm-10.639-.144l.62-.358 1.607 1.147 1.361-1.96 1.36 1.96 1.39-1.147.589.308v2.678h-6.927zm-25.725.144l.866-.502 1.606 1.147 1.363-1.96 1.358 1.96 1.238-1.02v2.859h-6.431zm-8.905-.414l1.482 1.059 1.363-1.961 1.358 1.96 1.393-1.145.835.435v2.55H8.733zM112.01 41.278c1.73 1.471-1.484 4.168-2.968 2.576-1.485-1.595 1.237-4.047 2.968-2.576m-10.885-3.065c2.104.367 1.856 5.028-.494 4.293-2.351-.736-1.609-4.66.494-4.293m-29.19 21.831s1.315 23.37 31.932 20.743c-3.119 1.28-6.64 2.06-10.533 2.136-.665.013-1.315.014-1.955.013-9.05-3.284-19.848-9.925-19.444-22.892" fill="#89622B"/></g></svg>