<svg width="120" height="120" viewBox="0 0 120 120" xmlns="http://www.w3.org/2000/svg" xmlns:xlink="http://www.w3.org/1999/xlink"><defs><path id="a" d="M.188.113h7.798v12.351H.188z"/><path id="c" d="M0 .096h23.61v25.36H0z"/></defs><g fill="none" fill-rule="evenodd"><path d="M40.073 68.89l-.05-.068-.08-.106-.094-.115a6.296 6.296 0 0 0-.646-.67 6.006 6.006 0 0 0-1.21-.85 4.447 4.447 0 0 0-2-.529c-.195-.006-.394.019-.595.034-.201.017-.393.077-.593.12-.204.04-.378.13-.57.2l-.14.058-.07.03-.119.058-.012.008-.024.014-.192.12c-.159.103-.515.378-.635.542-.079.093-.16.187-.232.283l-.185.29a5.03 5.03 0 0 0-.482 1.16c-.221.76-.301 1.48-.396 2.165a13.83 13.83 0 0 1-.15.95l-.023.102-.01.05-.002.007c.007-.019-.019.053.016-.042l-.006.016-.01.031-.084.252-.042.126-.038.081-.072.165a3.66 3.66 0 0 1-1.062 1.304c-.445.343-.96.574-1.468.613a2.416 2.416 0 0 1-1.44-.325 2.124 2.124 0 0 1-.932-.976c-.203-.398-.297-.835-.347-1.226a6.044 6.044 0 0 1-.036-1.04c.015-.293.042-.524.063-.681l.037-.24.002-.015a.357.357 0 0 0-.7-.143l-.067.257a9 9 0 0 0-.145.74 6.88 6.88 0 0 0-.08 1.185c.012.465.064 1.006.282 1.584.1.291.265.578.466.866.117.144.26.313.356.396l.08.078.02.02.01.01.004.004.034.028.053.04.213.158a3.781 3.781 0 0 0 2.17.725c.825.019 1.646-.253 2.35-.686a5.42 5.42 0 0 0 1.775-1.768l.172-.306.083-.153.054-.121.11-.242.013-.03.007-.015.024-.067.026-.077.052-.151c.127-.396.212-.758.296-1.102.163-.68.311-1.316.52-1.812.098-.256.216-.458.328-.61a1.56 1.56 0 0 0 .083-.103l.08-.07c.011-.008.028-.031.032-.029a.027.027 0 0 1 .004.008l-.003-.001-.005-.004c-.001-.002.03-.015.043-.022l.203-.099.026-.012.012-.006-.097.048h.004l.035-.009.069-.017c.09-.016.18-.065.262-.06a1.65 1.65 0 0 1 .454-.004c.274.04.52.153.745.309.222.155.411.338.557.5.148.163.247.31.31.402l.038.06.012.024.023.038a1.518 1.518 0 1 0 2.536-1.656" fill="#FFB700"/><g transform="matrix(-1 0 0 1 30.075 59.524)"><mask id="b" fill="#fff"><use xlink:href="#a"/></mask><path d="M7.932 7.52l-.857.611a.033.033 0 0 1-.051-.034c.532-2.331-.92-4.988-1.12-5.338a.035.035 0 0 0-.055-.008c-.577.575-.746 2.146-.793 2.813-.002.04-.058.045-.067.005-.092-.453-.336-1.336-.931-2.079-.742-.926-.503-2.887-.436-3.337C3.627.12 3.587.1 3.562.122c-2.806 2.42-2.03 6.68-1.756 7.834.01.039-.04.056-.06.023-.44-.764-1.277-1.47-1.494-1.646a.034.034 0 0 0-.056.025c-.106 1.87.769 4.979 2.642 5.864.571.27 1.235.333 1.991.092 3.042-.97 3.157-4.265 3.157-4.767 0-.028-.032-.043-.054-.027" fill="#341E12" mask="url(#b)"/></g><path d="M34.85 69.4l-.004-.001-.005-.004c.002 0 .004-.003.004-.003a.02.02 0 0 1 .004.008" fill="#FFB700"/><path d="M25.151 72.825c-.008-.465.03-.863.08-1.185.05-.323.106-.57.147-.74l.066-.257a.36.36 0 0 1 .194-.232s-.59 3.945 1.217 4.847c1.807.902 4.881 1.272 6.325-3.615.428-2.084 1.284-4.527 3.852-3.116 1.284 1.317 1.682 2.56 3.195 1.89a1.518 1.518 0 0 1-2.69.13l-.023-.038-.012-.024-.039-.06c-.061-.091-.16-.239-.308-.401a3.284 3.284 0 0 0-.559-.501 1.745 1.745 0 0 0-.744-.31 1.7 1.7 0 0 0-.454.005c-.083-.005-.172.043-.262.06l-.069.017-.035.008-.004.001.101-.05-.004.002-.012.005-.026.013-.203.1c-.013.006-.044.02-.043.021-.005.003-.018.02-.028.026l-.08.07a2.296 2.296 0 0 1-.083.103 2.61 2.61 0 0 0-.329.61c-.208.497-.356 1.131-.52 1.812-.083.345-.168.706-.295 1.102l-.052.152-.026.076-.024.067-.007.015-.013.03-.11.242-.054.12-.083.154-.172.306a5.42 5.42 0 0 1-1.775 1.768c-.704.433-1.525.705-2.35.686a3.775 3.775 0 0 1-2.17-.725l-.213-.158-.053-.04-.034-.028-.005-.005-.01-.01-.02-.019-.08-.078a3.93 3.93 0 0 1-.355-.396 3.546 3.546 0 0 1-.466-.866c-.219-.578-.27-1.12-.283-1.584" fill="#ED9406"/><path d="M55.606 75.865c2.01.763 3.1 2.943 2.541 5.018-.71 2.633-1.865 6.644-3.17 10.063-2.155 5.648-2.963 16.979-1.481 19.652.942 1.867.942 2.405-2.088 2.607-3.031.201-3.637-1.38-2.56-2.607 1.078-1.226-.247-8.49.203-15.483.269-3.587.718-8.787.538-13.092-.145-3.481 1.884-7.726 6.017-6.158" fill="#FFB700"/><path d="M48.047 114.628a3.642 3.642 0 0 1 1.413-1.926c1.947-1.38 5.18 0 5.18 0s1.08.95 1.279 2.54c.075.598-.324 1.153-.907 1.308-1.16.309-3.311.68-5.756.113-.91-.21-1.485-1.144-1.21-2.035" fill="#341E12"/><path d="M48.848 110.598c1.078-1.226-.247-8.489.202-15.484.27-3.586.719-8.787.54-13.09-.146-3.482 1.883-7.727 6.016-6.159 2.01.763 3.1 2.944 2.541 5.018-.572 2.125-1.436 5.146-2.433 8.03a30.195 30.195 0 0 1-1.32-.075c-1.643-.13-3.103 1.04-3.303 2.674-.53 4.347-1.267 12.085-.547 16.988.285 1.71-.243 2.442-.3 3.134-.057.693 2.434 1.056 3.079 1.288-.42.138-1.04.225-1.915.283-3.031.202-3.637-1.38-2.56-2.607" fill="#ED9406"/><path d="M78.066 78.551s-3.233 18.964-2.559 26.63c.27 2.96 1.28 6.86.808 7.465-.471.605-3.57 1.345-5.253 0-1.683-1.345.472-1.614.606-3.699.135-2.085 2.447-15.87.113-24.927-2.335-9.056 6.106-8.787 6.285-5.469" fill="#FFB700"/><path d="M71.667 112.646c.405-.404 3.772-1.143 5.253 0 0 0 1.247.996 1.252 2.944a1.193 1.193 0 0 1-1.042 1.171c-1.73.234-5.359.529-6.472-.887-.54-1.072.605-2.824 1.01-3.228" fill="#341E12"/><path d="M73.84 113.396c-.966.04-2.016-.141-2.778-.75-1.684-1.345.472-1.614.606-3.699.135-2.084 2.447-15.87.112-24.927-2.334-9.055 6.107-8.787 6.287-5.47 0 0-.366 2.146-.826 5.283-.59.651-1.374 1.464-2.092 2.039a2.405 2.405 0 0 0-.899 1.888c.012 3.942-.014 15.689-.707 18.365-.837 3.23 0 5.911 0 5.911l.298 1.36z" fill="#ED9406"/><path d="M70.422 80.655s-3.233 18.964-2.56 26.63c.27 2.96 1.28 6.86.809 7.465-.471.606-3.57 1.346-5.253 0-1.684-1.344.472-1.614.606-3.698.135-2.085 2.447-15.871.113-24.927-2.335-9.056 6.106-8.787 6.285-5.47" fill="#FFB700"/><path d="M64.023 114.75c.405-.403 3.772-1.143 5.253 0 0 0 1.183.945 1.25 2.795a1.3 1.3 0 0 1-1.133 1.333c-1.765.23-5.285.491-6.38-.9-.539-1.072.606-2.824 1.01-3.228" fill="#341E12"/><path d="M46.84 76.8c2.011.801 3.101 3.092 2.542 5.27-.71 2.764-1.866 6.975-3.17 10.565-2.155 5.932-2.963 17.829-1.482 20.636.943 1.96.943 2.525-2.087 2.737-3.03.211-3.638-1.45-2.56-2.737 1.078-1.288-.247-8.914.202-16.258.27-3.766.719-9.227.539-13.746-.145-3.656 1.884-8.113 6.017-6.467" fill="#FFB700"/><path d="M39.282 117.431a3.644 3.644 0 0 1 1.413-1.925c1.947-1.38 5.18 0 5.18 0s1.08.95 1.28 2.54c.074.598-.326 1.153-.908 1.308-1.16.308-3.31.68-5.756.113-.91-.21-1.485-1.145-1.21-2.036" fill="#341E12"/><path d="M82.821 18.37s-4.741 23.98-2.018 38.49c2.422 7.255 4.843 23.376-9.485 28.01-14.328 4.635-25.83 1.008-32.087-4.232-6.256-5.24-2.22-19.16 6.66-18.136 6.827.788 16.9 1.16 20.836-2.77 3.935-3.93 4.087-16.625 4.39-20.101.302-3.476 4.237-24.181 4.237-24.181s4.642-4.131 7.467 2.922" fill="#FFB700"/><path d="M78.066 56.99c-.853-3.925 0-25.643 0-25.643-.793-.826-3.238-6.102-4.164-8.133.797-4.317 1.453-7.766 1.453-7.766s4.64-4.13 7.466 2.923c0 0-1.184 5.993-2.03 13.798l-.03.287-.052.494-.03.282-.051.519c-.741 7.498-1.097 16.334.175 23.108 2.422 7.255 4.843 23.376-9.485 28.01-.552.179-1.1.344-1.644.498 11.552-3.282 9.246-24.45 8.392-28.377" fill="#ED9406"/><path d="M65.217 70.197c.67-1.052 1.57-1.94 2.407-2.864a3.966 3.966 0 0 1 4.68-.884c2.132 1.04 4.289 2.84 4.301 4.581.01 1.543-2.317 4.174-3.53 5.115-2.088 1.62-4.808-.172-6.799-1.579-1.956-1.383-2.34-2.356-1.06-4.369m-10.81-6.971c.033-.072.073-.146.115-.22 4.65-.048 9.196-.745 11.753-2.868.131.314.211.654.227 1.01.071 1.545.045 3.072-.905 4.287-.8 1.023-2.026 1.984-3.008 2.842-1.753 1.533-2.884.866-4.577-.395-1.493-1.112-4.658-2.35-3.605-4.656m2.478 7.342c-.317-.684-1.07-1.333-1.52-1.735-1.11-.99-2.152-2.377-3.495-3.027-1.48-.715-3.013 1.025-4.132 1.932-1.364 1.106-2.542 2.14-.932 3.82 1.517 1.582 5.249 1.831 7.317 1.49.85-.141 1.888-.453 2.527-1.063.463-.442.456-.938.235-1.417M45.89 62.501c.634.073 1.297.143 1.98.206.027.2.029.405 0 .61-.114.845-.17 1.774-.548 2.527-.355.712-.927 1.423-1.587 1.894-1.48 1.056-3.51.954-5.122.275-.682-.287-1.807-.61-2.678-1.121 1.656-2.838 4.422-4.798 7.956-4.39M62.247 73.77c-.887-1.12-1.824-1.962-3.557-.783-1.302.886-1.389 2.469-.311 3.67 1.123 1.253 3.95 2.817 5.702 2.582 1.387-.186 1.863-1.606 1.046-2.605-.48-.587-1.195-.864-1.71-1.41-.42-.444-.79-.975-1.17-1.455m-25.522-4.028c1.316-.863 2.774-1.027 4.422-.082.904.519 3.248 1.616 3.556 2.71.388 1.382-2.47 3.448-3.53 4.007-1.098.578-2.84 1.341-4.205 1.102-.959-2.347-.983-5.172-.243-7.737m39.533-3.843c-1.38.354-3.418-1.281-4.55-1.919-3.785-2.132-3.308-4.816-.23-7.322 1.019-.83 2.593-2.478 4.016-1.525 1.504 1.008 2.466 4.931 2.565 6.602.069 1.177-.304 3.357-1.453 4.022a1.35 1.35 0 0 1-.348.142m-21.246 9.406c-.578-.281-1.33-.034-1.953-.05a8.802 8.802 0 0 1-2.371-.386c-.904-.278-1.77-.705-2.707-.835-1.807-.252-2.954 1.145-3.993 2.415-1.338 1.634 2.681 3.203 3.65 3.603.847.349 1.838.843 2.756.948 1.702.195 3.19.24 4.848.03.72-.09 3.32-.402 2.885-1.811-.314-1.017-1.64-1.533-2.132-2.515-.251-.5-.435-1.095-.925-1.37a1.682 1.682 0 0 0-.058-.03m14.235-20.605c.886-3.13 1.3-6.905 1.536-9.998 1.035.782 1.721 1.925 2.72 2.748.891.736 2.224 1.396 2.24 2.726.016 1.377-2.06 2.968-3.061 3.802-1.402 1.168-2.542 1.254-3.435.722m4.242-29.228c.65.636 1.432 1.221 2.211 1.767.583.41 1.037.875 1.207 1.585.261 1.09-.394 3.374-1.352 3.979-.879.554-2.341.564-3.401.139.404-2.334.877-4.968 1.335-7.47m-2.373 14.16c.072-.82.346-2.603.723-4.847a1.822 1.822 0 0 1 1.86.496c2.269 2.407 4.42 5.092 2.122 8.16-.94 1.256-2.568.412-3.626-.415-.508-.398-.902-.951-1.2-1.58.044-.736.081-1.356.121-1.814M81.54 2.253c1.291-.06 2.365.484 2.398 1.213.014.304-.156.593-.452.83-.52.414-.847 1.018-.844 1.682.008 1.332.2 3.296.305 3.827a.395.395 0 0 1-.371.469l-.668.03-.667.03a.395.395 0 0 1-.413-.433c.056-.538.068-2.511-.046-3.838-.057-.661-.44-1.233-.994-1.599-.317-.208-.513-.48-.527-.784-.033-.73.987-1.368 2.278-1.427M71.264 7.025c.904-.924 2.06-1.258 2.583-.749.218.213.29.54.236.915-.097.657.077 1.322.533 1.805.916.968 2.4 2.272 2.838 2.59a.394.394 0 0 1 .05.595l-.468.477-.467.477a.395.395 0 0 1-.597-.035c-.327-.431-1.668-1.882-2.658-2.774-.493-.445-1.164-.603-1.819-.492-.374.064-.703-.001-.921-.214-.523-.51-.213-1.672.69-2.595" fill="#C96F27"/><g transform="matrix(-1 0 0 1 98 9.248)"><mask id="d" fill="#fff"><use xlink:href="#c"/></mask><path d="M20.057 1.207a6.945 6.945 0 0 0-.938-.506C16.307-.55 12.78.3 10.225 1.784c-1.52.884-2.845 2.072-3.986 3.402-6.383 7.436-10.054 16.1 0 19.784 7.05 2.583 12.723-5.732 15.41-11.008 1.105-2.173 2.206-4.566 1.913-7.07-.267-2.28-1.57-4.441-3.505-5.685" fill="#FFB700" mask="url(#d)"/></g><path d="M94.844 18.482c-2.653-.942-6.633-1.577-10.563.732-2.99 1.756-4.563 5.043-5.296 8.424 3.057 4.4 7.535 8.5 12.777 6.58 8.265-3.028 7.251-9.424 3.082-15.736" fill="#F3D3A5"/><path d="M63.647 14.103c2.047-1.93 6.748.543 8.345 1.065.856.28 1.843.209 2.575.082 1.149-.199 2.062.972 1.583 2.033a.617.617 0 0 0-.011.026c-.387.851-1.966 2.33-5.163 3.82-5.79 1.783-9.375-5.095-7.329-7.026" fill="#FFB700"/><path d="M65.802 15.534c.881-.029 2.59.09 4.316 1.181.467.188.87.35 1.214.463.192.064.391.117.597.16a.448.448 0 0 1 .136.822c-.507.308-1.118.64-1.844.985-.18.05-.361.089-.537.115-1.808.273-2.998-.783-3.546-1.437-.448-.534-.693-1.175-.821-1.633a.517.517 0 0 1 .485-.656" fill="#C96F27"/><path d="M89.98.064c-2.704.782-2.954 6.082-3.313 7.721-.192.88-.755 1.693-1.235 2.258-.754.888-.207 2.268.952 2.394.01 0 .019.002.028.003.931.098 3.008-.51 5.915-2.507 4.475-4.078.357-10.651-2.347-9.869" fill="#FFB700"/><path d="M90.122 2.644a7.663 7.663 0 0 0-1.169 4.313c-.075.497-.138.927-.216 1.28a5.614 5.614 0 0 1-.165.594c-.13.384.284.727.64.535.524-.28 1.12-.638 1.786-1.088.135-.13.26-.266.371-.403 1.153-1.418.844-2.978.558-3.781-.234-.656-.663-1.192-.993-1.536a.519.519 0 0 0-.812.086" fill="#C96F27"/><path d="M77.795 18.082c.616 1.453 1.803 2.341 2.65 1.983.847-.358 1.033-1.827.416-3.28-.616-1.454-1.803-2.342-2.65-1.984-.847.359-1.033 1.827-.416 3.28m5.773-2.808c.977 1.242 2.355 1.789 3.078 1.221.723-.567.518-2.033-.458-3.275-.977-1.241-2.354-1.788-3.078-1.22-.723.567-.518 2.033.458 3.274" fill="#3C2415"/><path d="M89.408 29.895a.842.842 0 0 0 .06-.917c-.286-.496-.859-.898-1.413-.878-.731.027-1.333 1.015-1.084 1.76.341 1.018 1.752.97 2.437.035m3.568-2.42a.845.845 0 0 1-.791-.47c-.247-.516-.254-1.215.076-1.66.437-.587 1.594-.522 2.067.105.647.858-.192 1.992-1.352 2.025" fill="#C96F27"/></g></svg>