<svg width="480" height="360" viewBox="0 0 480 360" xmlns="http://www.w3.org/2000/svg" xmlns:xlink="http://www.w3.org/1999/xlink" style="background:#fff"><defs><path id="a" d="M0 .488h667.377V142H0z"/><path id="c" d="M.683.264h229.694V77.83H.683z"/><path id="e" d="M0 369h667.377V0H0z"/></defs><g fill="none" fill-rule="evenodd"><path fill="#FBF0D1" d="M-187 359.605h667.377v-369H-187z"/><g transform="translate(-187 -9.395)"><g transform="translate(0 227)"><mask id="b" fill="#fff"><use xlink:href="#a"/></mask><path d="M667.377 47.564c-55.297 9.81-113.753 3.13-164.79-19.89C476.453 15.885 450.565-.336 421.773.52c-29.792.885-55.516 19.922-84.186 27.848C282.36 43.635 225.347 16.593 168.841 6.7 111.995-3.252 52.031 4.954.001 29.268V142h667.376V47.564z" fill="#FFF6DE" mask="url(#b)"/></g><path d="M77.72 297.938c5.864-6.115 13.933-10.072 22.358-10.964 8.426-.892 17.144 1.287 24.16 6.04 5.417-4.357 13.402-3.546 18.221 1.466 6.915-4.898 15.516-7.088 23.927-6.06 8.411 1.026 16.388 5.284 21.921 11.702 7.607-4.69 19.27-4.366 26.057 1.447 5.28-2.238 11.791-2.134 17.194-.21 5.402 1.924 10.032 5.933 12.71 11.005-7.11 8.68-18.865 14.86-29.577 18.195-10.713 3.336-21.95 4.56-33.105 5.765-29.31 3.17-59.64 6.245-87.716-2.752-7.435-2.383-15.03-5.944-19.213-12.538-4.276-6.742-2.462-17.333 3.063-23.096" fill="#E1E66E"/><g transform="translate(437 272)"><mask id="d" fill="#fff"><use xlink:href="#c"/></mask><path d="M230.377 6.825C224.264 2.973 217.184.647 209.962.306c-12.826-.605-25.234 5.285-33.502 15.11-5.96-3.875-13.306-5.565-20.359-4.684-7.053.881-13.976 4.708-18.799 9.93-5.743-3.624-12.747-5.203-19.488-4.393-6.743.81-14.077 3.712-18.797 8.592-6.074-4.534-16.117-3.468-21.407 1.96-6.153-6.074-15.14-9.148-23.724-8.113-8.584 1.034-16.309 6.208-20.842 13.57-5.099-3.23-11.438-4.45-17.37-3.34C9.737 30.047 4.27 33.473.683 38.33c4.12 14.675 14.868 28.124 29.118 33.533 14.25 5.41 29.824 6.041 45.066 5.961 24.218-.127 48.64-1.93 71.895-8.693 18.273-5.315 35.951-13.702 54.943-14.904 7.287-.46 14.91.098 21.567-2.9 2.67-1.204 5.038-2.935 7.104-5V6.824z" fill="#E1E66E" mask="url(#d)"/></g><path d="M402.654 307.685c2.527-1.952 4.825-4.197 7.439-6.03 2.615-1.833 5.647-3.267 8.84-3.29 3.194-.024 6.533 1.623 7.824 4.544 2.086-3.145 5.427-4.948 9.2-5.02 3.775-.072 7.534 1.806 9.74 4.868 4.848-8.449 14.27-12.613 24.007-12.293 9.735.32 18.946 4.803 26.659 10.75 7.614-4.038 17.655-1.474 23.376 4.973-3.373 4.832-10.861 7.284-16.627 8.506a467.948 467.948 0 0 1-34.865 6.024c-11.553 1.548-23.291 2.663-34.843 1.105-11.551-1.56-22.52-5.882-30.75-14.137m-227.389-5.979c-5.29-1.435-11.493-.508-16.332 2.068-2.888-3.944-7.56-6.525-12.436-6.872-4.875-.345-10.229 1.615-13.645 5.111a22.262 22.262 0 0 0-14.1-4.675c-5.05.117-10.508 1.889-14.338 5.182-3.819-3.85-10.162-5.019-15.134-2.851-4.002-4.34-9.702-7.07-15.59-7.47-5.89-.4-12.244 1.301-16.796 5.06-3.582-4.343-9.42-6.71-15.016-6.09-3.6.4-6.668 1.644-9.787 3.487-4.217-5.678-10.53-9.76-17.438-11.273-4.825-1.057-9.91-.851-14.653.524v39.523a42.574 42.574 0 0 0 7.588 4.939c7.54 3.842 15.95 5.639 24.33 6.81 26.255 3.669 53.06 1.549 79.098-3.434 26.037-4.984 51.777-12.635 77.115-20.43-2.876-4.666-7.575-8.175-12.866-9.609" fill="#8E942C"/><mask id="f" fill="#fff"><use xlink:href="#e"/></mask><path fill="#AAB033" mask="url(#f)" d="M0 369h667.377v-62.49H0z"/><path d="M667.377 324.776c-.307-.042-.61-.097-.918-.137-78.396-10.346-155.654 33.744-234.46 27.218-38.272-3.17-74.482-18.13-112.03-26.182-60.039-12.875-122.544-7.867-183.055 2.571-33.639 5.802-67.222 13.285-101.354 13.743-11.83.16-23.819-.609-35.56-2.545V369h667.377v-44.224z" fill="#9DA330" mask="url(#f)"/><path d="M347.079 362.08c-37.062-12.426-72.56-31.753-111.518-34.936-43.783-3.577-86.166 13.622-128.452 25.524C72.284 362.471 33.388 368.221 0 356.842V369h370.8a316.788 316.788 0 0 1-23.721-6.92m268.581-17.732c-29.661 6.069-58.03 17.263-87.386 24.652h139.104v-28.09c-17.122-1.66-34.826-.018-51.718 3.438" fill="#8E942C" mask="url(#f)"/><path d="M582.153 211.889c.27-1.754-.825-3.437-2.113-4.657-3.236-3.065-8.467-4.261-12.794-3.195.513-.857.382-1.99-.12-2.854-.501-.864-1.32-1.5-2.17-2.023-2.89-1.78-6.644-2.466-10-1.968 1.406-3.862.019-8.411-2.891-11.314-2.91-2.903-7.108-4.275-11.218-4.343-4.11-.07-8.156 1.062-11.97 2.596-2.387.96-4.78 2.132-6.475 4.067-1.695 1.934-2.52 5.305-1.478 7.658-1.853-2.07-5.068-2.218-7.772-1.583-2.931.688-5.73 2.157-7.69 4.44-1.961 2.283-3.004 5.423-2.446 8.38.56 2.958 2.85 5.608 5.786 6.268 4.846 5.067 11.549 8.227 18.515 9.02 6.966.793 14.19-.93 20.053-4.777 6.685 4.443 16.29 4.327 22.82-.341 3.106 1.63 6.966 1.32 10.018-.405.916-.518 1.774-1.198 2.287-2.116.513-.92.19-1.946-.342-2.853" fill="#FFFBF2" mask="url(#f)"/><path d="M580.04 207.231c-3.236-3.064-8.467-4.26-12.794-3.194.514-.858.382-1.99-.12-2.855-.501-.864-1.318-1.499-2.17-2.023-2.89-1.78-6.644-2.466-10-1.967 1.405-3.863.02-8.412-2.892-11.315-2.91-2.903-7.107-4.275-11.216-4.343a22.017 22.017 0 0 0-1.543.03c1.1.347 2.175.77 3.204 1.301 3.283 1.702 6.091 4.511 7.276 8.013 1.188 3.502.547 7.694-2.026 10.35 3.13-1.412 6.151-1.679 9.57-1.36 1.77.164 3.579.595 4.982 1.687 1.4 1.093 2.3 2.968 1.834 4.683-1.756-1.695-5.303-1.47-7.062.222 3.346-.689 6.983.634 8.993 3.396 1.08-2 3.36-3.25 5.627-3.398 2.269-.148 4.524.66 6.423 1.906 1.538 1.01 2.866 2.297 4.103 3.665-.026-.047-.05-.095-.077-.14.27-1.755-.825-3.437-2.113-4.658m1.214 8.925c-1.374.632-2.808 1.1-4.312 1.225-2.718.227-5.827-.734-7.116-3.139-2.25 3.646-7.3 4.897-11.376 3.573-4.075-1.325-7.223-4.618-9.185-8.428-5.36 5.384-12.656 8.8-20.224 9.466-6.433.567-13.017-.863-18.668-3.983 4.673 4.182 10.701 6.8 16.944 7.511 6.966.793 14.192-.929 20.053-4.778 6.686 4.444 16.29 4.327 22.821-.34 3.105 1.63 6.965 1.321 10.017-.406a7.855 7.855 0 0 0 1.046-.7m-74.711-15.287c1.454-3.39 4.61-5.922 8.161-6.863a12.76 12.76 0 0 0-1.552.265c-2.93.69-5.729 2.158-7.69 4.441-1.96 2.283-3.004 5.423-2.445 8.381.53 2.798 2.61 5.318 5.321 6.141-2.722-3.405-3.524-8.338-1.795-12.366" fill="#FAF5E8" mask="url(#f)"/><path d="M499.508 312.99c0 .724-4.438 1.311-9.913 1.311-5.475 0-9.912-.587-9.912-1.31 0-.725 4.437-1.31 9.912-1.31 5.475 0 9.913.585 9.913 1.31" fill="#9EA330" mask="url(#f)"/><path d="M491.079 312.522a2.32 2.32 0 0 1-2.967 0v-17.834h2.967v17.834z" fill="#9D4600" mask="url(#f)"/><path d="M491.079 312.522v-11.483a3.651 3.651 0 0 0-1.265-.147c-.64.034-1.137.238-1.702.445v.6c1.423 1.681 2.118 3.916 2.276 6.125.116 1.647-.036 3.291-.27 4.928.345-.079.675-.23.96-.469" fill="#823B00" mask="url(#f)"/><path d="M496.924 292.442c0 9.155-3.28 10.928-7.329 10.928-4.048 0-7.329-1.773-7.329-10.928 0-9.155 3.281-22.228 7.33-22.228 4.047 0 7.328 13.073 7.328 22.228" fill="#AAB033" mask="url(#f)"/><path d="M489.687 303.368c4.005-.026 7.237-1.84 7.237-10.926 0-7.969-2.486-18.9-5.8-21.6 3.991 8.376 4.658 18.332 1.619 27.114-1.669-.207-3.464-.062-5.134.135 1.322.075 2.771.66 3.231 1.901.368.994-.025 2.144-.717 2.947-.134.156-.285.292-.436.43" fill="#9EA32F" mask="url(#f)"/><path d="M564.946 313.837c0 1.42-8.718 2.573-19.472 2.573-10.754 0-19.471-1.152-19.471-2.573s8.717-2.573 19.47-2.573c10.755 0 19.473 1.152 19.473 2.573" fill="#9EA330" mask="url(#f)"/><path d="M548.194 313.094a3.795 3.795 0 0 1-4.85 0V283.94h4.85v29.153z" fill="#9D4600" mask="url(#f)"/><path d="M548.194 313.094v-18.772a5.938 5.938 0 0 0-2.067-.24c-1.047.057-1.861.39-2.783.73v.98c2.326 2.748 3.462 6.4 3.719 10.012.19 2.689-.056 5.38-.438 8.056a3.766 3.766 0 0 0 1.569-.766" fill="#823B00" mask="url(#f)"/><path d="M558.326 272.207a68.977 68.977 0 0 0-1.327-2.554c-1.695-12.787-6.083-25.716-11.23-25.716-5.36 0-9.896 14.02-11.426 27.301-.796 1.325-1.585 2.656-2.25 4.041-1.723 3.595-2.604 7.671-1.99 11.61.616 3.937 2.837 7.701 6.27 9.727a11.022 11.022 0 0 0 7.158 1.381c.726.092 1.473.136 2.238.136.516 0 1.02-.026 1.518-.065 3.185.229 6.479-.961 8.867-3.125 3.026-2.744 4.652-6.831 4.86-10.911.21-4.08-.906-8.148-2.688-11.825" fill="#AAB033" mask="url(#f)"/><path d="M556.999 269.653c-1.207-9.103-3.782-18.25-7.02-22.782 1.07 2.414 1.683 5.007 2.27 7.584 1.21 5.3 2.425 10.78 1.41 16.12-3.433-1.352-7.784-.68-10.848 1.377 2.886-1.374 6.452.21 8.516 2.652 2.066 2.443 2.765 5.787 2.73 8.986-.042 3.84-1.073 7.706-3.202 10.904a16.637 16.637 0 0 1-3.235 3.58c3.08.126 6.23-1.042 8.534-3.13 3.027-2.745 4.653-6.832 4.861-10.912.21-4.08-.908-8.149-2.69-11.825a68.192 68.192 0 0 0-1.327-2.554" fill="#9EA32F" mask="url(#f)"/><path d="M649.735 317.616c0 2.56-15.701 4.635-35.07 4.635-19.37 0-35.071-2.075-35.071-4.635 0-2.56 15.702-4.636 35.07-4.636 19.37 0 35.07 2.075 35.07 4.636" fill="#9EA330" mask="url(#f)"/><path d="M614.765 298.097a25.805 25.805 0 0 0 3.545 2.259v-25.338h-6.88v24.693a37.794 37.794 0 0 0 3.335-1.614" fill="#823B00" mask="url(#f)"/><path d="M618.31 316.373a5.384 5.384 0 0 1-6.881 0v-41.355h6.881v41.355z" fill="#9D4600" mask="url(#f)"/><path d="M653.183 258.49c-1.118-2.458-3.003-4.58-5.282-6.02 1.003-1.202 1.886-2.498 2.59-3.9 2.038-4.068 2.507-9.045.623-13.186-1.525-3.352-4.727-5.972-8.295-6.646.321-2 .124-4.238-.28-6.133-.507-2.392-1.854-4.643-3.877-6.019-1.989-1.354-4.458-1.785-6.855-1.998.34-4.853-2.076-10.268-5.248-13.955-3.172-3.689-8.04-5.938-12.897-5.673-3.241.175-6.866 2.252-8.806 5.074-1.161.003-2.311.146-3.417.517-4.078 1.361-6.818 5.79-6.452 10.074.133 1.563.659 3.062 1.468 4.4-3.316.343-6.521 1.885-8.75 4.374-3.282 3.667-4.296 9.214-2.524 13.806.26.674.584 1.318.954 1.936-2.829.816-5.44 2.383-7.406 4.578-3.855 4.306-5.046 10.82-2.965 16.211 1.036 2.683 2.858 5.026 5.136 6.778-4.016 6.264-5.327 14.314-3.034 21.423 1.023 3.173 2.795 6.253 5.611 8.04 1.709 1.083 3.703 1.631 5.692 2.006 8.663 1.634 17.869.12 25.596-4.114 7.338 5.608 17.63 7.068 26.41 4.197 2.633-.862 5.219-2.17 6.968-4.318 2.455-3.014 2.686-7.524.886-10.927 1.341-1.537 2.506-3.215 3.422-5.044 2.394-4.776 2.945-10.62.732-15.482" fill="#AAB033" mask="url(#f)"/><path d="M601.332 261.373c-1.938-1.939-8.453-3.237-14.813.646-5.748-2.121-9.907-7.973-10.018-14.096-.054-2.972.853-5.911 2.442-8.419-.07.074-.146.14-.214.216-3.855 4.305-5.046 10.819-2.965 16.211 1.037 2.682 2.858 5.025 5.135 6.777-4.014 6.265-5.327 14.314-3.034 21.423.953 2.954 2.567 5.811 5.054 7.636-1.322-2.794-2.202-5.787-2.466-8.866-.482-5.671 1.172-11.583 4.895-15.887 3.723-4.305 10.334-6.326 15.984-5.641m16.978-32.653c-.048.003-.095-.003-.143 0-3.804.207-8.061 2.644-10.339 5.958-1.364.004-2.714.173-4.012.606-4.789 1.599-8.006 6.8-7.576 11.83.092 1.095.367 2.158.761 3.174-.407-4.203 1.511-8.607 4.966-11.064 3.888-2.766 9.472-2.89 13.479-.3-1.388-1.722-3.083-3.192-5.019-4.263 1.79-2.893 4.65-5.08 7.883-5.94" fill="#C0C73A" mask="url(#f)"/><path d="M653.183 258.49c-1.118-2.458-3.003-4.58-5.282-6.02 1.003-1.202 1.886-2.498 2.59-3.9 2.038-4.068 2.507-9.045.623-13.186-1.525-3.352-4.727-5.972-8.295-6.646.321-2 .124-4.238-.28-6.133-.507-2.392-1.854-4.643-3.877-6.019-1.989-1.354-4.458-1.785-6.855-1.998.34-4.853-2.076-10.268-5.248-13.955a16.423 16.423 0 0 0-2.879-2.626c3.258 5.365 4.754 11.817 3.964 18.051-3.903-1.359-8.822.152-11.861 2.952 4.681-1.179 10.097-1.102 14.564.732 4.466 1.834 8.142 6.06 8.334 10.885-1.505-.292-3.971.151-5.091 1.196 3.346.437 5.456 2.686 7.061 5.653 1.604 2.97 1.689 6.71.221 9.748-3.493-2.079-8.179-2.896-12.221-2.468a19.126 19.126 0 0 0-10.912 4.958c4.156-2.34 9.528-2.767 14.03-1.193 4.502 1.575 8.261 5.155 10.054 9.574-2.972-.632-6.376 0-9.144 1.254 2.435-.302 5.155-.06 6.919 1.645 1.593 1.541 2.037 3.98 1.683 6.168-.355 2.187-1.396 4.194-2.422 6.158-6.122-3.395-14.702-3.526-21.027-.523 4.621-.62 9.284-.058 13.467 1.996 4.184 2.054 7.489 6.353 7.316 11.01-.103 2.737-1.366 5.335-3.118 7.44-.735.883-1.565 1.675-2.435 2.425a29.328 29.328 0 0 0 8.113-1.408c2.633-.862 5.219-2.17 6.968-4.318 2.455-3.014 2.686-7.524.886-10.927 1.341-1.537 2.506-3.215 3.422-5.044 2.394-4.776 2.945-10.62.732-15.482" fill="#9EA32F" mask="url(#f)"/><path d="M606.189 218.414c-1.554-1.94-4.122-2.693-6.507-1.995-2.002-2.968-2.614-6.832-1.631-10.274.613-2.141 1.836-4.092 3.459-5.615-.023.008-.048.013-.071.021-4.078 1.361-6.817 5.79-6.452 10.074.134 1.563.659 3.062 1.469 4.399-3.317.344-6.522 1.886-8.75 4.375-3.283 3.667-4.297 9.214-2.525 13.806.123.32.264.632.414.939-.232-4.893 1.97-9.856 5.79-12.931 3.976-3.2 9.934-4.325 14.804-2.799" fill="#C0C73A" mask="url(#f)"/></g></g></svg>