<svg xmlns="http://www.w3.org/2000/svg" width="55.613" height="46.133" viewBox="0.497 0.117 55.613 46.133"><defs><style/></defs><defs><linearGradient id="grad_1" x1="352.593" y1="1042.448" x2="352.593" y2="1139.941" gradientUnits="userSpaceOnUse"><stop offset="0" stop-color="#EE2A7B"/><stop offset="1" stop-color="#811150"/></linearGradient></defs><g id="ID0.16137408139184117"><path id="ID0.6278323931619525" fill="url(#grad_1)" stroke="#FFF" stroke-width="2.5" d="M93.71 81.997s-49.484.021-71.958.021c-5.887 0-10.659-4.773-10.659-10.659 0-5.887 4.772-10.658 10.659-10.658 18.842 0 71.9-.022 71.9-.022s-3.562-3.605-19.995-20.037c-4.163-4.163-4.163-10.911 0-15.073 4.165-4.162 10.912-4.163 15.074 0 13.325 13.323 38.24 38.241 38.24 38.241 4.162 4.163 4.162 10.912 0 15.073l-37.934 37.935c-4.165 4.165-10.913 4.165-15.074 0-4.163-4.162-4.163-10.912 0-15.071a138450.2 138450.2 0 0 1 19.747-19.75z" transform="matrix(-.4633 0 0 .4633 61.25 -9.8)"/></g></svg>