<svg xmlns="http://www.w3.org/2000/svg" viewBox="0 0 120 120"><g data-name="图层 2"><g data-name="图层 1"><path fill="none" d="M0 0h120v120H0z"/><path fill="#803d1f" d="M88.43 109.96L49.25 96.9l1.37-7.04 40.94 6.17-3.13 13.93z"/><ellipse cx="89.37" cy="102.85" rx="7.14" ry="3.21" transform="rotate(-77.33 89.372 102.854)" fill="#803d1f"/><ellipse cx="89.37" cy="102.85" rx="5.7" ry="2.57" transform="rotate(-77.33 89.372 102.854)" fill="#da8f2f"/><path fill="#803d1f" d="M30.13 95.07l45.98-3.71-.28 4.35-42.5 14.25-3.2-14.89z"/><ellipse cx="32.4" cy="102.37" rx="3.43" ry="7.61" transform="rotate(-12.11 32.42 102.395)" fill="#803d1f"/><ellipse cx="32.4" cy="102.37" rx="2.83" ry="6.29" transform="rotate(-12.11 32.42 102.395)" fill="#da8f2f"/><path fill="#803d1f" d="M83.46 85.65l-29.7 8.79 1.04 4.74 31.04-4.15-2.38-9.38z"/><path d="M81.8 90.91c-.66-2.59-.12-4.9 1.19-5.16s2.91 1.62 3.56 4.25.12 4.9-1.19 5.16-2.9-1.66-3.56-4.25zm-47.94 3.74l34.85 2.5-.21-2.93-32.22-9.59-2.42 10.02z" fill="#803d1f"/><path d="M38.11 90.22c-.67 2.78-2.34 4.78-3.75 4.53S32.37 92 33 89.25s2.35-4.79 3.75-4.53 2.03 2.73 1.36 5.5z" fill="#803d1f"/><path d="M80.68 80.93c0 11.06-9.35 15.77-20.88 15.77S38.92 92 38.92 80.93 53.32 46.2 59.8 46s20.88 23.86 20.88 34.93z" fill="#fcd429"/><path d="M73.1 88c0 3.85-6 5.48-13.36 5.48S46.39 91.86 46.39 88s9.22-12.08 13.36-12.15S73.1 84.16 73.1 88z" fill="#eb7600"/><path d="M53.33 85.56c0 3.71-1.55 5.29-3.47 5.29s-3.47-1.58-3.47-5.29 2.4-11.66 3.47-11.73 3.47 8.02 3.47 11.73zm19.87-.61c0 4.29-1.8 6.11-4 6.11s-4-1.82-4-6.11 2.77-13.47 4-13.55 4 9.26 4 13.55z" fill="#eb7600"/><path d="M68.39 84.92c0 6-4 8.57-9 8.57s-9-2.56-9-8.57 6.23-18.88 9-19 9 12.99 9 19z" fill="#eb7600"/><ellipse cx="60" cy="54.6" rx="54.05" ry="44.56" fill="#fff380" opacity=".31"/></g></g></svg>