<svg width="120" height="120" viewBox="0 0 120 120" xmlns="http://www.w3.org/2000/svg" xmlns:xlink="http://www.w3.org/1999/xlink"><defs><path id="a" d="M0 .222h44.23V53.46H0z"/><path id="c" d="M.716.54h41.431v32.367H.716z"/></defs><g fill="none" fill-rule="evenodd"><path d="M73.977 99.578c2.3-7.586 2.646-12.978 3.387-20.863.603-6.41.406-13.305-3.387-18.787-3.945-5.701-10.931-9.585-16.993-12.653-6.615-3.35-13.01-3.737-20.055-1.49-11.113 3.548-25.908 9.276-27.804 22.447-1.08 7.48 1.902 14.786 3.158 22.047 1.103 6.366-.74 14.102 2.909 19.83 3.512 5.508 11.874 7.085 17.813 8.127 6.333 1.113 10.84 1.947 15.673-2.719 3.011 6.946 10.832 2.658 15.84 0 5.868-3.117 12.538-8.461 9.603-15.94-.688-1.752-3.548-.991-2.851.785 3.489 8.915-16.689 20.71-20.37 12.31-.378-.86-1.634-.857-2.222-.283-5.631 5.476-14.116 3.705-20.918 1.788-4.42-1.247-9.32-2.625-11.137-7.352-1.2-3.126-.922-6.653-.995-9.934-.173-7.853-3.126-15.117-3.843-22.87-.77-8.368 3.164-14.614 10.235-18.811 5.927-3.524 13.262-6.729 20.096-7.908 9.076-1.566 18.576 4.282 25.428 9.813C80.797 67.82 72.91 85.441 71.27 99.578c-.066.583.836.583 2.707 0z" fill="#D58B80"/><path d="M68.47 89.907c2.632-5.71 5.149-12.108 2.412-18.269-.948-2.14-2.438-3.928-4.454-5.13-2.453-1.461-3.864-1.236-5.634-4.382-.753-1.335-1.074-2.681-2.02-3.96-7.08-9.55-22.946-7.276-31.23-.849-4.489 3.483-7.527 8.579-8.344 14.21-.421 2.88-.245 5.815.615 8.599.682 2.2 1.545 3.76 1.563 6.132.018 2.28-.676 4.384-.77 6.643-.512 12.753 12.68 19.376 23.412 14.389 2.485-1.153 4.267-1.721 7.019-1.549 1.72.109 3.28.276 5.004.012 3.068-.471 5.977-1.838 8.362-3.81 3.665-3.03 8.102-9.706 4.077-14.02-1.226-1.311-3.19.658-1.966 1.967 2.924 3.134-2.11 8.684-4.625 10.513-2.845 2.07-6.213 2.947-9.69 2.713-2.892-.193-4.704-.366-7.502.796-3.097 1.29-5.71 2.79-9.222 2.573-8.462-.527-13.013-8.225-11.763-16.045.483-3.006.843-5.09-.109-8.002-1.08-3.325-2.165-6.015-1.82-9.635 1.326-13.996 19.147-22.993 31.381-16.05 3.413 1.934 3.875 4.562 5.716 7.609 1.15 1.911 2.41 2.596 4.408 3.5 9.229 4.174 6.63 13.783 4.025 21.557-.223.67.854 1.144 1.156.488" fill="#D58B80"/><path d="M55.178 68.53c-4.255-7.533-11.947-12.945-20.657-8.628-3.75 1.859-6.393 5.313-7.268 9.407a14.942 14.942 0 0 0 .012 6.187 13.6 13.6 0 0 0 .858 2.655c1.159 2.649 2.171 4.323 1.574 7.569-.363 1.981-1.2 3.272-.998 5.412.2 2.095 1.042 4.112 2.286 5.789 2.62 3.524 6.896 5.382 11.143 6.015 5.259.781 9.541-.91 13.92-3.718 3.898-2.496 8.215-5.338 10.63-9.415 4.61-7.788-1.338-22.718-11.304-22.431-1.686.05-1.615 2.397 0 2.57 5.754.608 9.659 6.913 10.241 12.33.583 5.406-3.1 9.126-7.141 12.111-3.984 2.939-8.497 6.179-13.636 6.196-5.072.018-11.24-2.45-13.03-7.545-1.09-3.102-.109-4.63.825-7.586.442-1.393.62-2.333.15-3.755-.51-1.531-1.684-2.717-2.395-4.148-1.34-2.707-1.548-5.98-.673-8.856 1.525-5.032 6.372-8.184 11.529-8.178 5.56.006 9.91 4.344 12.81 8.678.46.69 1.543.08 1.124-.658" fill="#D58B80"/><path d="M55.83 74.691c-3.81-6.196-11.04-12.1-17.912-6.14-3.03 2.628-4.326 6.477-4.797 10.355-.594 4.894.392 8.166 4.393 11.195 5.947 4.502 14.898 5.344 20.435-.29 4.1-4.173 6.515-15.614-1.756-16.765-1.387-.193-2.046 1.836-.597 2.163 7.984 1.812 2.423 12.536-1.783 14.907-4.946 2.789-11.549 1.2-15.676-2.383-4.495-3.901-3.494-12.129.223-16.446 5.505-6.386 12.541-1.2 16.413 4.022.457.615 1.481.07 1.057-.618" fill="#D58B80"/><path d="M52.746 81.801c-1.264-4.58-4.712-10.996-10.604-9.26-4.206 1.24-5.125 6.661-3.09 10.097 2.411 4.074 9.652 6.635 14.11 4.911 3.869-1.498 3.705-7.662-.972-6.904-1.264.208-.954 2.254.301 2.219 1.414 1.744.949 2.666-1.402 2.763-.611.029-1.217.011-1.826-.053-1.294-.117-2.614-.38-3.837-.814-2.652-.94-5.101-2.903-5.21-5.92-.128-3.712 3.357-5.386 6.483-3.566 2.485 1.446 3.758 4.505 4.944 6.993.298.629 1.282.181 1.103-.466" fill="#D58B80"/><g transform="translate(4 1.705)"><mask id="b" fill="#fff"><use xlink:href="#a"/></mask><path d="M3.437 30.838c-1.244-9.591-.747-17.443 0-27.043-.802.33 1.086.986.284 1.317 6.108 6.24 9.436 10.656 14.552 17.736.655.91 2.341.975 2.616-.34 1.405-6.766 2.494-13.598 3.434-20.443-.905.117.755 2.93-.15 3.047 3.527 6.26 5.219 8.967 9.987 14.303 6.076 6.796 5.587 14.695 7.73 23.104.333 1.309 2.326 1.019 2.338-.316.047-6.773-1.206-16.124-5.3-21.714-2.134-2.915-4.853-5.37-7.122-8.183-2.88-3.574-5.388-7.385-7.633-11.383-.57-1.015-2.529-.954-2.71.354-.945 6.855-1.967 10.33-3.19 17.138.872-.114-.458.111.414 0C13.293 11.215 9.618 7.348 3.311.926 2.4-.002.993.75.905 1.921c-.91 11.857-1.876 24.126 1.124 35.784 1.809 7.033 6.067 15.155 14.128 15.752.77.055.854-1.074.175-1.294C7.247 49.204 4.537 39.335 3.437 30.838z" fill="#D58B80" mask="url(#b)"/></g><g transform="translate(72.317 69.022)"><mask id="d" fill="#fff"><use xlink:href="#c"/></mask><path d="M26.313 5.1c5.848 3.407 8.413 9.134 12.85 14.037.09-.694-2.09.486 0-.211-7.59 4.437-17.249 12.247-26.214 6.68-.88-.547-2.04.164-2.04 1.168.068 1.49.591 2.136.296 3.603-2.798-1.335-4.727-3.615-7.756-4.224-.823-.164-1.347-.43-2.087.14-.694.533-.899 1.388-.27 2.085.06.061.115.123.17.184.463.512 1.294.445 1.768 0 .044-.04.085-.082.132-.123.942-.884-.073-2.19-1.165-1.999-.061.012-.123.02-.184.032l1.536.872c-.011-.084-.026-.172-.038-.257-.427.559-.854 1.118-1.279 1.68 1.955-.152 7.127 3.129 9.173 3.998.705.304 1.894.161 2.028-.825.243-1.742.392-3.401.387-5.166-.68.392.657 1.276-.022 1.665 10.11 6.258 19.36-3.205 27.905-8.215.767-.451.84-1.458.27-2.087C35.966 11.739 31.558 2.519 22.239.813 14.503-.604 5.164 3.599 2.612 11.405c-.176.53.544.916.919.536C9.698 5.66 17.237-.182 26.313 5.1z" fill="#D58B80" mask="url(#d)"/></g></g></svg>