<svg width="120" height="120" viewBox="0 0 120 120" xmlns="http://www.w3.org/2000/svg" xmlns:xlink="http://www.w3.org/1999/xlink"><defs><path d="M51.567 83.533c-17.657 0-31.972-14.315-31.972-31.973 0-17.659 14.315-31.973 31.972-31.973 17.658 0 31.973 14.314 31.973 31.973 0 17.658-14.315 31.973-31.973 31.973m0-83.25C23.249.284.29 23.242.29 51.56c0 28.32 22.958 51.277 51.276 51.277 28.32 0 51.277-22.957 51.277-51.277S79.887.284 51.567.284" id="a"/></defs><g fill="none" fill-rule="evenodd"><path d="M60.045 92.01c-17.657 0-31.972-14.314-31.972-31.972s14.315-31.972 31.972-31.972c17.659 0 31.973 14.314 31.973 31.972S77.704 92.011 60.045 92.011zm0-83.248c-28.319 0-51.276 22.957-51.276 51.276 0 28.32 22.957 51.278 51.276 51.278 28.32 0 51.277-22.958 51.277-51.278 0-28.319-22.957-51.276-51.277-51.276z" fill="#507A88"/><path d="M115.318 60.038c0 30.526-24.747 55.273-55.273 55.273-30.526 0-55.27-24.747-55.27-55.273 0-30.526 24.744-55.272 55.27-55.272 30.526 0 55.273 24.746 55.273 55.272z" stroke="#162E44" stroke-width="3"/><path d="M64.523 7.353a2.96 2.96 0 0 1-5.92 0V3.506a2.96 2.96 0 1 1 5.92 0v3.847M7.362 55.561a2.96 2.96 0 0 1 0 5.92h-3.85a2.96 2.96 0 0 1 0-5.92h3.85m48.208 57.162a2.96 2.96 0 1 1 5.918 0v3.849a2.96 2.96 0 0 1-5.919 0v-3.849m57.161-48.207a2.96 2.96 0 0 1 0-5.92h3.85a2.96 2.96 0 0 1 0 5.92h-3.85" fill="#507A88"/><g transform="translate(8.478 8.478)"><mask id="b" fill="#fff"><use xlink:href="#a"/></mask><path d="M52.863 25.767v-41.734M25.336 49.741h-41.734M49.31 77.267v41.734m27.526-65.708h41.734" stroke="#E6776F" stroke-width="51" mask="url(#b)"/></g></g></svg>