<svg width="120" height="120" viewBox="0 0 120 120" xmlns="http://www.w3.org/2000/svg" xmlns:xlink="http://www.w3.org/1999/xlink"><defs><path d="M1.065 27.31c0 5.554 25.744 10.055 57.5 10.055 31.755 0 57.5-4.501 57.5-10.056 0-5.553-25.745-26.368-57.5-26.368-31.756 0-57.5 20.815-57.5 26.368" id="a"/><path d="M1.065 27.31c0 5.554 25.744 10.055 57.5 10.055 31.755 0 57.5-4.501 57.5-10.056 0-5.553-25.745-26.368-57.5-26.368-31.756 0-57.5 20.815-57.5 26.368" id="c"/><path d="M1.065 27.31c0 5.554 25.744 10.055 57.5 10.055 31.755 0 57.5-4.501 57.5-10.056 0-5.553-25.745-26.368-57.5-26.368-31.756 0-57.5 20.815-57.5 26.368" id="e"/><path d="M1.065 27.31c0 5.554 25.744 10.055 57.5 10.055 31.755 0 57.5-4.501 57.5-10.056 0-5.553-25.745-26.368-57.5-26.368-31.756 0-57.5 20.815-57.5 26.368" id="g"/><path d="M1.065 27.31c0 5.554 25.744 10.055 57.5 10.055 31.755 0 57.5-4.501 57.5-10.056 0-5.553-25.745-26.368-57.5-26.368-31.756 0-57.5 20.815-57.5 26.368" id="i"/><path d="M1.065 27.31c0 5.554 25.744 10.055 57.5 10.055 31.755 0 57.5-4.501 57.5-10.056 0-5.553-25.745-26.368-57.5-26.368-31.756 0-57.5 20.815-57.5 26.368" id="k"/><path d="M1.065 27.31c0 5.554 25.744 10.055 57.5 10.055 31.755 0 57.5-4.501 57.5-10.056 0-5.553-25.745-26.368-57.5-26.368-31.756 0-57.5 20.815-57.5 26.368" id="m"/><path d="M1.065 27.31c0 5.554 25.744 10.055 57.5 10.055 31.755 0 57.5-4.501 57.5-10.056 0-5.553-25.745-26.368-57.5-26.368-31.756 0-57.5 20.815-57.5 26.368" id="o"/><path d="M1.065 27.31c0 5.554 25.744 10.055 57.5 10.055 31.755 0 57.5-4.501 57.5-10.056 0-5.553-25.745-26.368-57.5-26.368-31.756 0-57.5 20.815-57.5 26.368" id="q"/><path d="M1.065 27.31c0 5.554 25.744 10.055 57.5 10.055 31.755 0 57.5-4.501 57.5-10.056 0-5.553-25.745-26.368-57.5-26.368-31.756 0-57.5 20.815-57.5 26.368" id="s"/><path d="M1.065 27.31c0 5.554 25.744 10.055 57.5 10.055 31.755 0 57.5-4.501 57.5-10.056 0-5.553-25.745-26.368-57.5-26.368-31.756 0-57.5 20.815-57.5 26.368" id="u"/><path d="M1.065 27.31c0 5.554 25.744 10.055 57.5 10.055 31.755 0 57.5-4.501 57.5-10.056 0-5.553-25.745-26.368-57.5-26.368-31.756 0-57.5 20.815-57.5 26.368" id="w"/><path d="M1.065 27.31c0 5.554 25.744 10.055 57.5 10.055 31.755 0 57.5-4.501 57.5-10.056 0-5.553-25.745-26.368-57.5-26.368-31.756 0-57.5 20.815-57.5 26.368" id="y"/><path d="M1.065 27.31c0 5.554 25.744 10.055 57.5 10.055 31.755 0 57.5-4.501 57.5-10.056 0-5.553-25.745-26.368-57.5-26.368-31.756 0-57.5 20.815-57.5 26.368" id="A"/><path d="M1.065 27.31c0 5.554 25.744 10.055 57.5 10.055 31.755 0 57.5-4.501 57.5-10.056 0-5.553-25.745-26.368-57.5-26.368-31.756 0-57.5 20.815-57.5 26.368" id="C"/><path d="M1.065 27.31c0 5.554 25.744 10.055 57.5 10.055 31.755 0 57.5-4.501 57.5-10.056 0-5.553-25.745-26.368-57.5-26.368-31.756 0-57.5 20.815-57.5 26.368" id="E"/><path d="M1.065 27.31c0 5.554 25.744 10.055 57.5 10.055 31.755 0 57.5-4.501 57.5-10.056 0-5.553-25.745-26.368-57.5-26.368-31.756 0-57.5 20.815-57.5 26.368" id="G"/><path d="M1.065 27.31c0 5.554 25.744 10.055 57.5 10.055 31.755 0 57.5-4.501 57.5-10.056 0-5.553-25.745-26.368-57.5-26.368-31.756 0-57.5 20.815-57.5 26.368" id="I"/><path d="M1.065 27.31c0 5.554 25.744 10.055 57.5 10.055 31.755 0 57.5-4.501 57.5-10.056 0-5.553-25.745-26.368-57.5-26.368-31.756 0-57.5 20.815-57.5 26.368" id="K"/><path d="M1.065 27.31c0 5.554 25.744 10.055 57.5 10.055 31.755 0 57.5-4.501 57.5-10.056 0-5.553-25.745-26.368-57.5-26.368-31.756 0-57.5 20.815-57.5 26.368" id="M"/><path d="M1.065 27.31c0 5.554 25.744 10.055 57.5 10.055 31.755 0 57.5-4.501 57.5-10.056 0-5.553-25.745-26.368-57.5-26.368-31.756 0-57.5 20.815-57.5 26.368" id="O"/><path d="M1.065 27.31c0 5.554 25.744 10.055 57.5 10.055 31.755 0 57.5-4.501 57.5-10.056 0-5.553-25.745-26.368-57.5-26.368-31.756 0-57.5 20.815-57.5 26.368" id="Q"/><path d="M1.065 27.31c0 5.554 25.744 10.055 57.5 10.055 31.755 0 57.5-4.501 57.5-10.056 0-5.553-25.745-26.368-57.5-26.368-31.756 0-57.5 20.815-57.5 26.368" id="S"/><path d="M1.065 27.31c0 5.554 25.744 10.055 57.5 10.055 31.755 0 57.5-4.501 57.5-10.056 0-5.553-25.745-26.368-57.5-26.368-31.756 0-57.5 20.815-57.5 26.368" id="U"/><path d="M1.065 27.31c0 5.554 25.744 10.055 57.5 10.055 31.755 0 57.5-4.501 57.5-10.056 0-5.553-25.745-26.368-57.5-26.368-31.756 0-57.5 20.815-57.5 26.368" id="W"/><path d="M1.065 27.31c0 5.554 25.744 10.055 57.5 10.055 31.755 0 57.5-4.501 57.5-10.056 0-5.553-25.745-26.368-57.5-26.368-31.756 0-57.5 20.815-57.5 26.368" id="Y"/><path d="M1.065 27.31c0 5.554 25.744 10.055 57.5 10.055 31.755 0 57.5-4.501 57.5-10.056 0-5.553-25.745-26.368-57.5-26.368-31.756 0-57.5 20.815-57.5 26.368" id="aa"/><path d="M1.065 27.31c0 5.554 25.744 10.055 57.5 10.055 31.755 0 57.5-4.501 57.5-10.056 0-5.553-25.745-26.368-57.5-26.368-31.756 0-57.5 20.815-57.5 26.368" id="ac"/><path d="M1.065 27.31c0 5.554 25.744 10.055 57.5 10.055 31.755 0 57.5-4.501 57.5-10.056 0-5.553-25.745-26.368-57.5-26.368-31.756 0-57.5 20.815-57.5 26.368" id="ae"/><path d="M1.065 27.31c0 5.554 25.744 10.055 57.5 10.055 31.755 0 57.5-4.501 57.5-10.056 0-5.553-25.745-26.368-57.5-26.368-31.756 0-57.5 20.815-57.5 26.368" id="ag"/><path d="M1.065 27.31c0 5.554 25.744 10.055 57.5 10.055 31.755 0 57.5-4.501 57.5-10.056 0-5.553-25.745-26.368-57.5-26.368-31.756 0-57.5 20.815-57.5 26.368" id="ai"/><path d="M1.065 27.31c0 5.554 25.744 10.055 57.5 10.055 31.755 0 57.5-4.501 57.5-10.056 0-5.553-25.745-26.368-57.5-26.368-31.756 0-57.5 20.815-57.5 26.368" id="ak"/><path d="M1.065 27.31c0 5.554 25.744 10.055 57.5 10.055 31.755 0 57.5-4.501 57.5-10.056 0-5.553-25.745-26.368-57.5-26.368-31.756 0-57.5 20.815-57.5 26.368" id="am"/></defs><g fill="none" fill-rule="evenodd"><path d="M23.128 68.769c-.474.06-.467.753.008.807 8.983 1.015 19.685 1.607 31.18 1.607 11.494 0 22.195-.592 31.178-1.607.476-.054.483-.747.008-.807-5.178-.655-16.484-1.82-31.187-1.82-14.704 0-26.01 1.165-31.187 1.82" fill="#ECEAEA"/><path d="M119.46 65.582c0 6.138-26.742 11.113-59.73 11.113C26.74 76.695 0 71.72 0 65.582 0 59.445 26.741 54.47 59.73 54.47c32.988 0 59.73 4.976 59.73 11.113" fill="#FFF"/><path d="M117.229 65.097c0 5.553-25.743 10.056-57.5 10.056-31.755 0-57.498-4.503-57.498-10.056 0-5.553 25.743-10.054 57.498-10.054 31.757 0 57.5 4.501 57.5 10.054" fill="#D8D8D8"/><path d="M119.46 65.582c0 6.138-26.742 11.113-59.73 11.113C26.74 76.695 0 71.72 0 65.582c0 10.1 26.741 18.168 59.73 18.168 32.988 0 59.73-7.539 59.73-18.168" fill="#D8D8D8"/><g transform="translate(1.165 37.787)"><mask id="b" fill="#fff"><use xlink:href="#a"/></mask><path d="M34.018 30.158s-1 .373-1.23.633c-.44.503-1.104 1.432-1.175 2.543-.106 1.682 3.706.42 7.839 1.054 4.132.633 15.144 2.565 17.493 2.95.607.101.962-.682.099-2.714-.214-.508-1.336-1.256-1.901-1.382-4.176-.946-19.891-3.11-21.125-3.084" fill="#F1C043" mask="url(#b)"/></g><g transform="translate(1.165 37.787)"><mask id="d" fill="#fff"><use xlink:href="#c"/></mask><path d="M34.018 30.158s-1 .373-1.23.633c-.44.503 7.59.113 24.256 3.833-.214-.508-1.336-1.256-1.901-1.382-4.176-.946-19.891-3.11-21.125-3.084" fill="#F5D279" mask="url(#d)"/></g><g transform="translate(1.165 37.787)"><mask id="f" fill="#fff"><use xlink:href="#e"/></mask><path d="M93.104 20.382s-5.735 4.579-10.99 6.194c-5.253 1.616-10.436 2.743-10.436 2.743s-.121 1.506.747 2.165c.869.658 2.084.417 5.564-.507 3.48-.925 10.035-3.932 11.287-4.536 1.252-.606 4.452-3.069 4.56-3.864.108-.797-.008-2.415-.732-2.195" fill="#F5D279" mask="url(#f)"/></g><g transform="translate(1.165 37.787)"><mask id="h" fill="#fff"><use xlink:href="#g"/></mask><path d="M93.104 20.382s-.313 3.501-7.697 6.483c-5.1 2.06-9.71 4.266-12.982 4.62.869.657 2.084.416 5.564-.508 3.48-.925 10.035-3.932 11.287-4.536 1.252-.606 4.452-3.069 4.56-3.864.108-.797-.008-2.415-.732-2.195" fill="#F1C043" mask="url(#h)"/></g><g transform="translate(1.165 37.787)"><mask id="j" fill="#fff"><use xlink:href="#i"/></mask><path d="M35.147 31.258s.873.874 1.653 1 7.66-.606 9.738-.377c2.08.23 9.576.12 10.417-.297.344-.17.225-1.284.211-2.068-.012-.785-2.833-.983-3.952-1.007-1.117-.024-6.79.595-8.746.242-1.956-.354-6.226-.222-7.31.016-1.085.236-2.216 2.303-2.011 2.491" fill="#F5D279" mask="url(#j)"/></g><g transform="translate(1.165 37.787)"><mask id="l" fill="#fff"><use xlink:href="#k"/></mask><path d="M35.147 31.258s.873.874 1.653 1 7.66-.606 9.738-.377c2.08.23 9.576.12 10.417-.297.344-.17-1.079-.527-1.731-.964-.66-.428-10.174.472-12.13.121-1.957-.354-8.152.33-7.947.517" fill="#F1C043" mask="url(#l)"/></g><g transform="translate(1.165 37.787)"><mask id="n" fill="#fff"><use xlink:href="#m"/></mask><path d="M49.97 35.716s-.844.66-.984.973c-.273.613-.63 1.7-.366 2.781.396 1.637 3.66-.716 7.79-1.36 4.13-.646 15.211-2.125 17.567-2.467.61-.088.716-.941-.712-2.621-.355-.418-1.647-.792-2.224-.745-4.265.36-19.902 3.04-21.07 3.439" fill="#F1C043" mask="url(#n)"/></g><g transform="translate(1.165 37.787)"><mask id="p" fill="#fff"><use xlink:href="#o"/></mask><path d="M49.97 35.716s-.844.66-.984.973c-.273.613 7.273-2.182 24.28-3.667-.356-.418-1.648-.792-2.225-.745-4.265.36-19.902 3.04-21.07 3.439" fill="#F5D279" mask="url(#p)"/></g><g transform="translate(1.165 37.787)"><mask id="r" fill="#fff"><use xlink:href="#q"/></mask><path d="M46.854 24.84s-1.054.17-1.328.377c-.53.407-1.361 1.188-1.644 2.262-.431 1.63 3.552 1.144 7.483 2.577 3.93 1.435 14.357 5.5 16.584 6.34.577.218 1.077-.48.624-2.644-.113-.537-1.069-1.493-1.598-1.729-3.912-1.75-18.906-6.968-20.121-7.184" fill="#F1C043" mask="url(#r)"/></g><g transform="translate(1.165 37.787)"><mask id="t" fill="#fff"><use xlink:href="#s"/></mask><path d="M46.854 24.84s-1.054.17-1.328.377c-.53.407 7.421 1.607 23.047 8.535-.113-.537-1.069-1.493-1.598-1.729-3.912-1.75-18.906-6.968-20.121-7.184" fill="#F5D279" mask="url(#t)"/></g><g transform="translate(1.165 37.787)"><mask id="v" fill="#fff"><use xlink:href="#u"/></mask><path d="M84.724 29.256s-17.68 7.167-20.788 6.737c0 0-.292.134-.145.987.147.857.723 2.02 1.52 2.364.796.347 4.477-.17 8.954-1.794 4.477-1.627 17.714-8.011 17.714-8.011s-2.173-2.033-3.278-1.824c-1.106.21-3.977 1.54-3.977 1.54" fill="#F1C043" mask="url(#v)"/></g><g transform="translate(1.165 37.787)"><mask id="x" fill="#fff"><use xlink:href="#w"/></mask><path d="M84.724 29.256s-17.68 7.167-20.788 6.737c0 0 1.953.924 6.43-.704 4.476-1.625 20.255-7.021 19.139-7.45-.295-.113-.574-.166-.804-.124-1.106.21-3.977 1.54-3.977 1.54" fill="#F1C043" mask="url(#x)"/></g><g transform="translate(1.165 37.787)"><mask id="z" fill="#fff"><use xlink:href="#y"/></mask><path d="M93.62 31.073s-9.986.85-11.482.152c0 0-.169.02-.226.473-.057.454.055 1.128.402 1.424.347.299 2.278.614 4.777.492 2.5-.12 10.132-1.27 10.132-1.27s-.782-1.358-1.37-1.427c-.587-.066-2.233.156-2.233.156" fill="#F1C043" mask="url(#z)"/></g><g transform="translate(1.165 37.787)"><mask id="B" fill="#fff"><use xlink:href="#A"/></mask><path d="M93.62 31.073s-9.986.85-11.482.152c0 0 .839.766 3.34.647 2.498-.12 11.256-.377 10.76-.767a.838.838 0 0 0-.385-.188c-.587-.066-2.233.156-2.233.156" fill="#F1C043" mask="url(#B)"/></g><g transform="translate(1.165 37.787)"><mask id="D" fill="#fff"><use xlink:href="#C"/></mask><path d="M53.138 23.64s9.984.85 11.481.151c0 0 .17.021.225.474.057.452-.055 1.128-.402 1.425-.347.297-2.276.61-4.775.491-2.5-.12-10.133-1.269-10.133-1.269s.78-1.36 1.37-1.428c.586-.065 2.234.155 2.234.155" fill="#F1C043" mask="url(#D)"/></g><g transform="translate(1.165 37.787)"><mask id="F" fill="#fff"><use xlink:href="#E"/></mask><path d="M53.138 23.64s9.984.85 11.481.151c0 0-.84.767-3.339.646-2.499-.12-11.258-.376-10.762-.765.131-.103.263-.174.385-.188.587-.065 2.235.155 2.235.155" fill="#F1C043" mask="url(#F)"/></g><g transform="translate(1.165 37.787)"><mask id="H" fill="#fff"><use xlink:href="#G"/></mask><path d="M76.997 21.95s-8.73 12.233-12.852 15.287a1.415 1.415 0 0 1-1.986-.289c-.508-.686-1.094-1.613-1.168-2.329-.135-1.29 2-.476 3.532-3.598 1.533-3.12 7.13-7.529 9.345-10.978 2.215-3.447 2.853.459 3.13 1.906" fill="#F1C043" mask="url(#H)"/></g><g transform="translate(1.165 37.787)"><mask id="J" fill="#fff"><use xlink:href="#I"/></mask><path d="M64.068 33.676s-2.174 1.26-3.078.943c-.134-1.29 2.001-.476 3.534-3.598 1.533-3.12 7.128-7.529 9.344-10.978.943-1.466 1.599-1.602 2.064-1.163.629.595-8.643 14.057-11.864 14.796" fill="#F1C043" mask="url(#J)"/></g><g transform="translate(1.165 37.787)"><mask id="L" fill="#fff"><use xlink:href="#K"/></mask><path d="M56.657 15.73s-.38 1.335-.357 2.173c.024.84.488 1.166 1.413 1.155.924-.012 8.544.147 11.804 1.306 3.258 1.158 10.603 3.686 11.764 4.571.317.241 1.945-1.704 1.368-2.483-.578-.778-7.124-5.172-12.375-6.05-5.251-.882-11.716-1.694-13.617-.673" fill="#F1C043" mask="url(#L)"/></g><g transform="translate(1.165 37.787)"><mask id="N" fill="#fff"><use xlink:href="#M"/></mask><path d="M56.3 17.903c.023.84.488 1.166 1.413 1.154.924-.01 8.544.148 11.803 1.307 3.259 1.158 10.603 3.686 11.765 4.572.317.24-5.87-3.636-10.942-5.26-4.32-1.385-14.062-2.61-14.039-1.773" fill="#F1C043" mask="url(#N)"/></g><g transform="translate(1.165 37.787)"><mask id="P" fill="#fff"><use xlink:href="#O"/></mask><path d="M71.397 18.681S52.005 31.828 50.566 32.953c0 0-.993.196.52 1.687 1.514 1.489 1.807.97 3.334.615 1.527-.356 15.887-11.799 19.317-13.502 3.431-1.705-1.924-3.354-2.34-3.072" fill="#F1C043" mask="url(#P)"/></g><g transform="translate(1.165 37.787)"><mask id="R" fill="#fff"><use xlink:href="#Q"/></mask><path d="M71.397 18.681S52.005 31.828 50.566 32.953c0 0-.388.076-.31.498.048.253.756.07 2.282-.284.896-.21 7.476-5.563 13.124-9.494 3.97-2.764 7.884-4.484 7.283-4.702-.726-.265-1.41-.384-1.548-.29" fill="#F5D279" mask="url(#R)"/></g><g transform="translate(1.165 37.787)"><mask id="T" fill="#fff"><use xlink:href="#S"/></mask><path d="M66.325 15.198s8.877-6.047 11.212-6.195c0 0 1.32 1.142.982 2.73-.336 1.588-.964.918-3.488 2.314-2.525 1.395-11.14 6.163-12.546 6.758-1.404.595 2.706-4.85 3.84-5.607" fill="#F1C043" mask="url(#T)"/></g><g transform="translate(1.165 37.787)"><mask id="V" fill="#fff"><use xlink:href="#U"/></mask><path d="M66.325 15.198c-.651.434-2.28 2.412-3.287 3.906 1.979-1.014 10.504-6.736 11.64-7.363 2.525-1.395 2.859-2.738 2.859-2.738-2.335.148-11.212 6.195-11.212 6.195" fill="#F5D279" mask="url(#V)"/></g><g transform="translate(1.165 37.787)"><mask id="X" fill="#fff"><use xlink:href="#W"/></mask><path d="M67.08 7.627s-4.672 8.896-10.355 13.825c-5.682 4.93-11.543 9.209-11.543 9.209s.67 1.948 2.113 2.29c1.444.342 2.83-.634 6.674-3.716 3.843-3.083 10.392-10.47 11.628-11.919 1.234-1.449 3.89-6.299 3.59-7.353-.297-1.054-1.325-3.011-2.108-2.336" fill="#F5D279" mask="url(#X)"/></g><g transform="translate(1.165 37.787)"><mask id="Z" fill="#fff"><use xlink:href="#Y"/></mask><path d="M67.08 7.627s1.515 4.549-6.086 12.364c-5.247 5.397-9.805 10.706-13.699 12.96 1.444.342 2.83-.634 6.674-3.716 3.843-3.083 10.392-10.47 11.628-11.919 1.234-1.449 3.89-6.299 3.59-7.353-.297-1.054-1.325-3.011-2.108-2.336" fill="#F1C043" mask="url(#Z)"/></g><g transform="translate(1.165 37.787)"><mask id="ab" fill="#fff"><use xlink:href="#aa"/></mask><path d="M68.516 29.754s-.697 1.229-.486 2.358c.212 1.128 5.665 2.34 7.815 3.324 2.151.987 11.249 3.12 12.322 3.07a9.154 9.154 0 0 0 1.092-.111.532.532 0 0 0 .433-.588c-.103-.842-.394-2.546-1.113-2.98-.965-.582-17.69-6.018-18.68-6.087-.992-.07-1.248.74-1.383 1.014" fill="#F5D279" mask="url(#ab)"/></g><g transform="translate(1.165 37.787)"><mask id="ad" fill="#fff"><use xlink:href="#ac"/></mask><path d="M68.516 29.754s-.697 1.229-.486 2.358c.212 1.128 5.665 2.34 7.815 3.324 2.151.987 11.249 3.12 12.322 3.07a9.154 9.154 0 0 0 1.092-.111.532.532 0 0 0 .433-.588c-.071-.584-.232-1.577-.562-2.28-.374 1.525-21.008-4.777-20.614-5.773" fill="#F1C043" mask="url(#ad)"/></g><g transform="translate(1.165 37.787)"><mask id="af" fill="#fff"><use xlink:href="#ae"/></mask><path d="M73.584 16.535s-.067 1.605.495 2.466c.561.862 7.26 6.85 8.858 9.054 1.597 2.204 8.241 9.33 9.37 9.774.46.181 1.413-.903 2.145-1.601s-1.544-3.586-2.496-4.687c-.951-1.096-6.489-6.02-7.863-8.213-1.372-2.193-5.221-6.194-6.395-7.03-1.172-.838-4.114-.125-4.114.237" fill="#F5D279" mask="url(#af)"/></g><g transform="translate(1.165 37.787)"><mask id="ah" fill="#fff"><use xlink:href="#ag"/></mask><path d="M73.584 16.535s-.067 1.605.495 2.466c.561.862 7.26 6.85 8.858 9.054 1.597 2.204 8.241 9.33 9.37 9.774.46.181-.442-1.498-.598-2.508-.17-1.01-9.327-9.39-10.7-11.583-1.372-2.193-7.425-7.565-7.425-7.203" fill="#F1C043" mask="url(#ah)"/></g><g transform="translate(1.165 37.787)"><mask id="aj" fill="#fff"><use xlink:href="#ai"/></mask><path d="M33.967 38.929c10.724-.104 7.426-3.41 19.258-1.168 2.463.468 2.958-.852 2.958-.852s.17.083 1.237-3.692c1.069-3.772.899-3.853.899-3.853s.314-1.508-2.07-2.296c-11.044-3.65-6.69-5.447-15.745-11.24-10.73-6.868-23.253-4.7-25.76 5.075-2.988 9.637 6.517 18.146 19.223 18.026" fill="#D1873A" mask="url(#aj)"/></g><g transform="translate(1.165 37.787)"><mask id="al" fill="#fff"><use xlink:href="#ak"/></mask><path d="M56.319 36.457c-.642 1.219-4.919-.87-6.601-1.062-5.347-.613-6.613.179-14.77.256-12.078.115-21.254-7.566-19.567-16.603-.254.584-.47 1.201-.637 1.855-2.988 9.638 6.516 18.145 19.222 18.026 10.724-.103 7.426-3.41 19.258-1.169 2.463.47 2.958-.85 2.958-.85s.044.02.224-.443c-.029-.003-.073-.037-.087-.01" fill="#AC773B" mask="url(#al)"/></g><g transform="translate(1.165 37.787)"><mask id="an" fill="#fff"><use xlink:href="#am"/></mask><path d="M55.546 32.625c-.937 3.337.773 3.832.773 3.832s5.6 1.087 7.673 3.018c1.764 1.639 4.135 2.45 5.566.358.765-1.122-.622-2.807-.488-3.286.135-.477 2.202-.997 2.124-2.538-.129-2.545-2.565-3.126-4.915-2.68-2.762.528-8.086-1.548-8.086-1.548s-1.71-.496-2.647 2.844" fill="#FDF7E5" mask="url(#an)"/></g></g></svg>