<svg width="100" height="100" viewBox="0 0 100 100" xmlns="http://www.w3.org/2000/svg"><g fill="none" fill-rule="evenodd"><path d="M19.739 60.557c-.064 5.473 2.843 10.076 6.775 11.21v.002l.021.005c.383.109.775.183 1.175.224 1.221.186 3.19.358 5.01-.053l.043-.01c4.148-.839 7.36-5.488 7.425-11.14.06-5.167-2.53-9.558-6.129-10.987a2.483 2.483 0 0 0-.643-.221 6.806 6.806 0 0 0-1.306-.244c-3.006-.438-5.063.098-5.063.098l-.003.004c-4.089.903-7.24 5.516-7.305 11.112" fill="#3E3F41"/><path d="M78.681 67.976c-.212 1.189-1.37 2.083-2.782 2.147-3.08.14-9.939.307-24.222.14-14.289-.166-21.142-.493-24.216-.705-1.408-.097-2.547-1.017-2.731-2.21-.251-1.63-.497-4.459-.441-9.199.052-4.513.335-7.144.61-8.655.215-1.176 1.356-2.062 2.752-2.138 2.877-.157 9.45-.31 24.294-.081 14.783.227 21.357.509 24.25.697 1.41.092 2.555 1.012 2.741 2.207.238 1.528.456 4.159.404 8.612-.055 4.73-.368 7.556-.659 9.185" fill="#007CB2"/><path d="M25.873 60.487L12.388 50.25a6.04 6.04 0 0 1-1.158-8.462l.146-.193a6.039 6.039 0 0 1 8.462-1.158l13.485 10.237" fill="#0079AC"/><path d="M71.35 28.8l8.309 3.024c.537.261.872.872.84 1.531l-.136 3.522 2.209.992.064 4.88-6.285.507-9.816-1.505L71.35 28.8z" fill="#8B8B8B"/><path d="M72.037 52.284l-1.292-.23c-.706-.125-1.197-.68-1.098-1.238l.755-4.242.755-4.247c.099-.558.751-.91 1.456-.784l1.293.23c.705.125 1.197.68 1.097 1.238l-1.509 8.49c-.1.558-.752.909-1.457.783" fill="#C97F38"/><path d="M70.736 52.053l-.638-.114c-.348-.062-.55-.564-.45-1.123l.754-4.242.755-4.247c.099-.558.462-.96.81-.899l.638.113c.348.062.55.565.451 1.124l-1.51 8.489c-.099.558-.462.96-.81.899" fill="#D58830"/><path d="M63.167 29.043s4.802-1.251 8.03-.341c.463.13.782.551.767 1.031l-.257 8.44a.712.712 0 0 0 .605.726l3.634.552c.364.055.63.371.623.74l-.047 2.375a.65.65 0 0 1-.657.636l-12.923-.151.225-14.008z" fill="#58595B"/><path d="M67.751 67.848c-.172 1.19-1.1 2.086-2.229 2.154-2.462.148-7.947.33-19.365.197-11.423-.133-16.902-.444-19.359-.649-1.125-.094-2.034-1.01-2.178-2.204-.197-1.629-.387-4.457-.331-9.197.052-4.513.285-7.145.508-8.656.174-1.177 1.089-2.066 2.205-2.145 2.3-.163 7.555-.331 19.423-.138 11.818.193 17.073.46 19.385.641 1.128.089 2.041 1.005 2.187 2.2.187 1.528.355 4.158.303 8.612-.055 4.729-.313 7.556-.549 9.185" fill="#22A2D1"/><path d="M65.616 50.064l-35.384-.413a4.119 4.119 0 0 1-4.059-4.155l.176-15.03a4.12 4.12 0 0 1 4.154-4.06l35.384.414a4.119 4.119 0 0 1 4.06 4.154l-.176 15.03a4.119 4.119 0 0 1-4.155 4.06" fill="#8B8B8B"/><path d="M64.292 50.107l-34.636-.404a4.119 4.119 0 0 1-4.058-4.155l.176-15.09a4.119 4.119 0 0 1 4.154-4.058l34.636.404a4.119 4.119 0 0 1 4.059 4.155l-.176 15.09a4.119 4.119 0 0 1-4.155 4.058" fill="#323232"/><path d="M36.283 29.163c-.316-.004-2.364-.249-3.117-.258a8.844 8.844 0 1 0-.207 17.688c.135.001 3.079-.186 3.123-.185a8.623 8.623 0 0 0 .2-17.245" fill="#868585"/><path d="M41.944 37.853a8.863 8.863 0 1 1-17.725-.207 8.863 8.863 0 0 1 17.725.207" fill="#636465"/><path d="M40.875 37.84a7.794 7.794 0 1 1-15.587-.182 7.794 7.794 0 0 1 15.587.182" fill="#FFF"/><path d="M25.88 38.13a7.794 7.794 0 0 1 12.343-6.236 7.794 7.794 0 0 0-9.69 12.182 7.774 7.774 0 0 1-2.653-5.946" fill="#515252"/><path d="M61.316 38.45a8.864 8.864 0 1 1-17.726-.206 8.864 8.864 0 0 1 17.726.207" fill="#888"/><path d="M55.655 29.73c-.316-.004-2.364-.25-3.117-.258a8.845 8.845 0 0 0-.207 17.687c.135.002 3.079-.185 3.123-.184a8.623 8.623 0 0 0 .2-17.246" fill="#868585"/><path d="M61.316 38.45a8.864 8.864 0 1 1-17.726-.206 8.864 8.864 0 0 1 17.726.207" fill="#888"/><path d="M60.247 38.439a7.794 7.794 0 1 1-15.587-.182 7.794 7.794 0 0 1 15.587.182" fill="#FFF"/><path d="M45.191 38.687a7.794 7.794 0 0 1 12.343-6.236 7.794 7.794 0 0 0-9.69 12.182 7.774 7.774 0 0 1-2.653-5.946" fill="#515252"/><path d="M38.84 37.898c-.032 2.72-1.826 4.905-4.007 4.88-2.181-.026-3.924-2.252-3.892-4.972.032-2.72 1.825-4.904 4.007-4.88 2.18.026 3.923 2.252 3.892 4.972m19.36.094c-.032 2.72-1.826 4.904-4.007 4.879-2.181-.026-3.924-2.251-3.892-4.971.032-2.72 1.826-4.905 4.007-4.88 2.181.026 3.924 2.251 3.892 4.972" fill="#323232"/><path d="M80.019 50.167l-.894-.159c-.487-.086-.827-.47-.758-.855l.521-2.932.522-2.936c.069-.386.52-.628 1.007-.542l.893.16c.488.086.827.469.759.855l-1.043 5.867c-.07.386-.52.629-1.007.542" fill="#C97F38"/><path d="M77.268 37.04s13.841.978 4.71 5.204c-6.242 2.89-14.958 7.214.448 7.62" stroke="#3E3F41" stroke-width="2" stroke-linecap="round" stroke-linejoin="round"/><path d="M87.624 61.387c.064-5.463-2.674-10.106-6.48-11.616a2.613 2.613 0 0 0-.658-.23l-.021-.005a7.215 7.215 0 0 0-1.381-.257c-3.179-.463-5.353.103-5.353.103l-.003.004c-4.323.955-7.655 5.832-7.724 11.749-.067 5.786 3.007 10.652 7.163 11.852v.001l.023.006c.404.115.819.193 1.242.237 1.29.197 3.373.378 5.297-.056l.045-.011c4.385-.887 7.78-5.803 7.85-11.777" fill="#3E3F41"/><path d="M86.181 61.428c.05-4.26-1.49-7.873-3.644-9.041a1.237 1.237 0 0 0-.372-.178l-.012-.004a3.091 3.091 0 0 0-.782-.197c-1.8-.353-3.034.094-3.034.094l-.002.003c-2.453.756-4.353 4.567-4.407 9.18-.052 4.512 1.678 8.298 4.03 9.223v.002l.014.004c.228.089.463.149.703.181.73.15 1.91.287 3.002-.056l.026-.01c2.487-.701 4.424-4.542 4.478-9.2" fill="#3E3F41"/><path d="M84.771 61.413c.038-3.28-1.147-6.061-2.805-6.96a.948.948 0 0 0-.287-.137l-.009-.003a2.372 2.372 0 0 0-.602-.152c-1.386-.272-2.336.072-2.336.072l-.001.003c-1.889.581-3.351 3.515-3.393 7.067-.04 3.473 1.292 6.388 3.103 7.1v.001l.01.004c.176.068.357.114.541.14.563.115 1.471.22 2.312-.044l.02-.007c1.914-.54 3.405-3.498 3.447-7.084" fill="#CDCECC"/><path d="M81.966 54.453a.948.948 0 0 0-.287-.137l-.009-.003a2.38 2.38 0 0 0-.602-.152 5.323 5.323 0 0 0-1.647-.07c.111.015.224.032.342.055.206.024.407.075.603.152l.009.003a.952.952 0 0 1 .287.136c1.657.9 2.843 3.681 2.805 6.96-.042 3.587-1.533 6.544-3.448 7.085l-.02.007a3.49 3.49 0 0 1-.595.128c.543.074 1.241.094 1.9-.113l.02-.007c1.914-.54 3.405-3.498 3.447-7.084.038-3.28-1.147-6.061-2.805-6.96" fill="#8B8B8B"/><path d="M80.114 60.525c-.01.859-.431 1.55-.94 1.544-.51-.006-.915-.707-.905-1.565.01-.859.431-1.55.94-1.544.51.006.915.707.905 1.565" fill="#515252"/><path d="M88.135 54.046L74.289 60.35l-2.028-10.064 13.843-6.304c1.271-.579 2.52.034 2.789 1.368l1.055 5.232c.27 1.334-.542 2.884-1.813 3.463" fill="#197DAC"/><path d="M59.872 54.03a1.092 1.092 0 1 1-2.183-.025 1.092 1.092 0 0 1 2.183.026" fill="#2381A9"/><path d="M45.191 38.687a7.794 7.794 0 0 1 12.343-6.236 7.794 7.794 0 0 0-9.69 12.182 7.774 7.774 0 0 1-2.653-5.946" fill="#515252"/><path d="M75.109 60.815l-16.68.506a6.16 6.16 0 0 1-.374-12.315l16.68-.506a6.16 6.16 0 1 1 .374 12.315" fill="#007CB2"/><path d="M69.323 60.426c.22 7.253 4.48 13.008 9.516 12.855 5.035-.153 8.938-6.156 8.718-13.409-.22-7.252-4.48-13.008-9.515-12.855-5.035.153-8.939 6.156-8.719 13.409" fill="#3E3F41"/><path d="M66.096 60.524c.22 7.252 4.48 13.008 9.516 12.855 5.035-.153 8.938-6.156 8.718-13.409-.22-7.252-4.48-13.008-9.516-12.855-5.035.153-8.938 6.156-8.718 13.409" fill="#3E3F41"/><path fill="#3E3F41" d="M78.503 73.291l-3.334.102-.797-26.264 3.334-.102z"/><path d="M76.467 60.324c.153 5.017 2.314 9.023 4.829 8.946 2.514-.076 4.429-4.205 4.277-9.222-.153-5.017-2.314-9.023-4.829-8.946-2.514.076-4.43 4.205-4.277 9.222" fill="#959595"/><path fill="#959595" d="M81.128 69.275l-1.665.051-.552-18.169 1.666-.05z"/><path d="M74.856 60.373c.152 5.017 2.314 9.022 4.828 8.946 2.514-.076 4.43-4.205 4.277-9.222-.152-5.017-2.314-9.023-4.828-8.946-2.515.076-4.43 4.205-4.277 9.222" fill="#CCCECD"/><path d="M78.116 60.335c.034 1.117.64 2.004 1.353 1.983.713-.022 1.264-.945 1.23-2.061-.034-1.117-.64-2.004-1.353-1.982-.713.021-1.264.944-1.23 2.06" fill="#3E3F41"/><path d="M27.554 54.217a1.092 1.092 0 1 0 2.183.025 1.092 1.092 0 0 0-2.183-.025m-1.27 11.633a1.092 1.092 0 1 0 2.183.025 1.092 1.092 0 0 0-2.183-.026m36.476.426a1.091 1.091 0 1 0 2.183.026 1.091 1.091 0 0 0-2.182-.026" fill="#0079AC"/><path d="M46.877 47.715c.847 0 1.475.787 1.289 1.614-.603 2.682-2.671 4.245-5.13 4.245-2.46 0-4.528-1.563-5.13-4.245a1.323 1.323 0 0 1 1.288-1.614h7.683z" fill="#FFF"/><path d="M39.194 48.106a.93.93 0 0 0-.908 1.137c.546 2.43 2.366 3.94 4.75 3.94 2.383 0 4.203-1.51 4.749-3.94a.93.93 0 0 0-.909-1.137h-7.682zm-1.67 1.308a1.707 1.707 0 0 1 .334-1.447 1.703 1.703 0 0 1 1.336-.643h7.682c.523 0 1.01.235 1.337.643.327.409.449.936.334 1.447-.62 2.765-2.784 4.551-5.512 4.551-2.727 0-4.89-1.786-5.511-4.55z" fill="#323232"/><path d="M46.856 47.668a1.323 1.323 0 0 1 1.309 1.598c-.57 2.69-2.653 1.521-5.112 1.551-2.46.03-4.513 1.25-5.148-1.426a1.323 1.323 0 0 1 1.27-1.629l7.68-.094z" fill="#FFF"/><path d="M44.868 50.554c1.777.204 2.576.227 2.914-1.369a.93.93 0 0 0-.922-1.126l-7.681.094a.93.93 0 0 0-.894 1.148c.377 1.588 1.176 1.545 2.947 1.297.549-.077 1.171-.164 1.816-.172.645-.008 1.269.064 1.82.128m-7.344-1.072a1.707 1.707 0 0 1 .317-1.452 1.704 1.704 0 0 1 1.328-.659l7.682-.093a1.702 1.702 0 0 1 1.344.626c.332.404.46.93.352 1.443-.5 2.36-2.161 2.168-3.769 1.983-.553-.064-1.125-.13-1.72-.122-.596.007-1.166.087-1.718.164-.456.064-.917.128-1.355.134-1.101.013-2.062-.346-2.46-2.024" fill="#323232"/><path d="M44.997 49.308a2.229 2.229 0 0 0 1.81-2.189l-.002-.08a.392.392 0 0 1 .39-.404h.005c.106 0 .207.05.28.126a.405.405 0 0 1 .11.291l-.002.067a2.23 2.23 0 0 0 1.81 2.19.39.39 0 0 1 0 .767 2.23 2.23 0 0 0-1.81 2.189.39.39 0 1 1-.781 0 2.23 2.23 0 0 0-1.81-2.19.39.39 0 0 1 0-.767" fill="#F4D723"/></g></svg>