<svg width="120" height="120" viewBox="0 0 120 120" xmlns="http://www.w3.org/2000/svg" xmlns:xlink="http://www.w3.org/1999/xlink"><defs><path id="a" d="M.796.309h45.665V21.38H.796z"/></defs><g fill="none" fill-rule="evenodd"><path d="M6.622 65.677c0 12.68 25.38 22.96 56.69 22.96 31.307 0 56.688-10.28 56.688-22.96 0-12.68-25.38-22.96-56.688-22.96-31.31 0-56.69 10.28-56.69 22.96" fill="#F4F4F4"/><path d="M9.303 65.2c0 11.818 24.18 21.397 54.009 21.397 29.828 0 54.007-9.58 54.007-21.397 0-11.818-24.18-21.397-54.007-21.397-29.828 0-54.009 9.58-54.009 21.397z" stroke="#F4C4A4" stroke-width=".538"/><path d="M25.58 64.788c0 8.233 16.892 14.907 37.731 14.907 20.84 0 37.732-6.674 37.732-14.907S84.151 49.881 63.311 49.881c-20.839 0-37.732 6.674-37.732 14.907" fill="#DBDBDB"/><path d="M26.055 65.453c0 7.865 16.68 14.241 37.256 14.241s37.256-6.376 37.256-14.241c0-7.866-16.68-14.241-37.256-14.241s-37.256 6.375-37.256 14.24" fill="#E5E5E5"/><path d="M47.756 63.222c2.681 1.637 3.366 2.983 5.649 3.465 2.281.481 3.776-.576 4.911 3.034 1.136 3.608 2.548 3.705 3.268 6.305.72 2.598 3.378 3.945-1.318 4.908-4.694.963-6.205.482-7.675.963-1.469.482-1.165 3.465-6.28 1.443-5.115-2.02-7.511-3.08-11.505-2.792-3.993.29-2.51 2.311-7.074.194-4.563-2.118-.798-2.118-5.818-4.044-5.02-1.924-6.047-.845-6.39-3.069-.342-2.224.228-4.535.57-6.075.344-1.54 4.108-.963 6.733-1.349 2.623-.384 3.308-.123 5.134-1.36 1.826-1.237 2.738-1.335 5.248-1.141 2.51.192 3.885-.386 5.993-.482 2.108-.096 3.363-.578 4.847 0 1.482.577 3.707 0 3.707 0" fill="#87AF43"/><path d="M17.548 72.04c.158-.205.413-.294.652-.341.488-.086.983-.049 1.462.032.961.157 1.888.482 2.806.714.234.043.466.095.7.13.235.012.471.058.704.046.466.007.941-.087 1.305-.337.368-.252.537-.707.492-1.158-.04-.452-.238-.89-.508-1.266-.137-.198-.29-.337-.459-.564-.07-.118-.145-.258-.121-.423a.608.608 0 0 1 .204-.389c.418-.358.913-.458 1.387-.573.959-.202 1.928-.268 2.896-.304a33.9 33.9 0 0 1 5.704.348c.246-.384.643-.65 1.026-.844.514-.259 1.062-.418 1.612-.55.285-.065.572-.12.86-.17-.669-.267-1.368-.474-2.065-.669a20.228 20.228 0 0 0-1.296-.302c-.431-.083-.873-.166-1.298-.169a3.002 3.002 0 0 0-.634.077c-.095.023-.193.065-.215.104-.026.029-.011.122.03.215.02.046.044.094.069.141.026.046.053.088.08.171a.21.21 0 0 1 .015.121c0 .046-.01.087-.035.122-.037.082-.096.114-.15.162-.224.13-.452.17-.678.205-.906.114-1.803.026-2.687-.095.892.029 1.79.044 2.656-.094.212-.037.431-.094.59-.194.073-.06.096-.103.073-.16a.74.74 0 0 0-.066-.129c-.027-.052-.055-.103-.079-.159-.042-.105-.114-.255-.019-.428.104-.153.242-.179.354-.216.238-.056.45-.085.692-.093.928.02 1.796.238 2.667.464.83.226 1.65.494 2.438.862a27.64 27.64 0 0 1 2.04-.208c.558-.037 1.119-.06 1.677-.08.563-.02 1.113-.014 1.617-.154.507-.126.955-.422 1.148-.864.196-.445.128-.986-.038-1.477l-.002-.006v-.004a.229.229 0 0 1 .435-.138c.176.558.265 1.207-.003 1.8-.27.596-.871.95-1.438 1.078-.58.148-1.159.127-1.71.141-.04 0-.081.004-.122.004.324.157.647.318.964.492.25.138.5.28.737.462.116.095.235.188.327.35a.326.326 0 0 1 .048.14.259.259 0 0 1-.017.17.429.429 0 0 1-.193.215c-.143.094-.31.125-.374.177-.067.05-.07.11-.019.224.11.213.323.408.535.58.432.345.92.63 1.415.892.499.258 1.013.488 1.538.692.524.21 1.063.365 1.6.58.52.23 1.066.485 1.436.956.184.226.315.526.27.825-.039.29-.218.572-.488.672.259-.125.397-.415.408-.679a1.02 1.02 0 0 0-.297-.729c-.366-.406-.893-.645-1.406-.85-1.063-.347-2.16-.723-3.172-1.251-.509-.263-1.006-.55-1.462-.91-.226-.186-.453-.374-.61-.666a.56.56 0 0 1-.06-.272.401.401 0 0 1 .152-.271c.169-.113.3-.122.391-.19.1-.073.113-.095.07-.182-.046-.089-.151-.182-.256-.263a5.79 5.79 0 0 0-.698-.448 25.822 25.822 0 0 0-1.339-.7c-.349.008-.697.013-1.045.03-1.109.058-2.218.154-3.297.384-.537.117-1.071.265-1.559.502-.481.23-.945.57-1.096 1.065-.15.495.05 1.041.328 1.5.277.394.52.864.617 1.365 1.78-.164 3.594-.19 5.37.125.45.084.898.175 1.337.308.221.057.438.135.654.205.218.076.442.159.646.315.101.07.2.192.239.342.03.16-.032.299-.094.411-.14.217-.318.37-.494.52-.355.293-.729.55-1.044.857-.314.291-.577.703-.314 1.033.248.32.668.528 1.072.698.83.35 1.682.66 2.534.963.852.307 1.715.59 2.55.956a4.9 4.9 0 0 1 .608.318c.183.129.396.271.458.518.05.255-.147.454-.32.587-.18.14-.381.247-.582.35.196-.112.392-.229.564-.374.166-.138.333-.34.277-.55-.058-.205-.262-.34-.446-.452a4.78 4.78 0 0 0-.603-.299c-.834-.342-1.702-.604-2.562-.893a45.182 45.182 0 0 1-2.567-.912c-.42-.18-.857-.377-1.174-.776a.759.759 0 0 1-.088-.754c.098-.238.263-.42.427-.584.335-.327.712-.586 1.054-.874.323-.268.733-.663.352-.892-.158-.12-.364-.202-.574-.27-.213-.07-.425-.145-.641-.2a12.47 12.47 0 0 0-1.313-.298c-1.74-.294-3.52-.295-5.286-.151.062.57-.053 1.142-.267 1.659a6.217 6.217 0 0 1-.876 1.451c-.7.885-1.545 1.636-2.43 2.318-.89.68-1.827 1.297-2.806 1.838-.02.01-.044.004-.053-.015-.01-.02-.004-.043.015-.052a22.69 22.69 0 0 0 2.774-1.862c.873-.688 1.702-1.444 2.38-2.321.664-.865 1.208-1.925 1.072-3.017-.002-.018-.008-.034-.01-.052-.01-.015-.022-.026-.023-.044-.001-.01.007-.016.009-.026-.087-.493-.317-.934-.621-1.358-.297-.475-.547-1.073-.376-1.679.017-.06.042-.119.065-.175a35.775 35.775 0 0 0-5.582-.297c-.957.032-1.919.095-2.849.289-.454.102-.945.225-1.264.503-.163.141-.165.312-.05.488.115.16.317.358.452.559.288.406.506.878.55 1.391.055.508-.154 1.077-.596 1.372-.432.295-.954.387-1.445.378-.247.012-.49-.033-.736-.05-.242-.036-.48-.091-.721-.136-.951-.234-1.843-.584-2.785-.758-.465-.096-.946-.161-1.411-.102-.227.036-.468.094-.625.27-.159.17-.196.435-.131.666-.083-.223-.073-.5.084-.705" fill="#AAD36A"/><path d="M41.367 67.246c-2.002.136-5.477-.143-5.105 1.371.37 1.515-.262 1.342 1.21 1.743 1.47.4 2.23-.297 3.039.457 0 0-.45-.913-1.309-1.343-.857-.428-2.228-.972-1.03-1.057 1.198-.086 1.513-.028 2.426.058.911.085.684-.687 1.51-.573.828.116.024-.708-.74-.656m.335 9.086c.886.251-1.477-1.4-.621-2.059.855-.655 1.027-1.943-1.256-2.055-2.281-.116-3.28-.287-3.28-.287s-1.225 4.686-4.478 5.513c0 0 1.284.573 2.567-1 1.283-1.57.602-1.754 1.599-1.706.997.05.793-1.007 1.238-1.406.443-.4.387-.83 1.242-.258.856.572.371.057 1.057 1.457.684 1.4 1.128 1.571 1.932 1.8m4.855-12.371s.038 2.228-1.996 2.782c.647.188 1.57.76.975 1.314-.596.551-1.327.635 0 .974 1.326.34 2.143.438 2.486 1.017.342.58 1.349.465 1.75.77 0 0-.723-.682-1.104-.77-.38-.087.361-.469-.78-1.154-1.14-.685-1.388-.228-1.52-.876-.133-.648-.343-1.142.532-1.543.875-.4 1.026-.724 2.09-.457 1.066.267 1.733.742 1.733.742s.528-.452-.173-.92c-.703-.47-1.235-.393-1.958-1.117-.722-.723-1.426-.819-2.035-.762m13.73 13.829c-.874-1.258.304-.425-.989-2.25-1.293-1.826-1.179-1.713-2.167-2.36-.99-.648-.381-.953-1.713 0-1.33.953.114-.118-2.585 1.56-2.7 1.678-5.666 1.832-2.472 2.212 3.194.38 3.385.608 2.852 1.332-.532.725 1.102 2.63 2.739 1.506 1.635-1.124.418-1.43 2.244-1.048 1.825.38 2.09-.952 2.09-.952m-27.62-7.115s1.256.372-.257 2.429c-1.51 2.057-1.311 2.156-2.824 2.434-1.51.28-1.825.937-1.967 1.68-.142.743-.57-.229 0-1.543.57-1.314-.258-1.514.77-1.828 1.026-.315 1.255-.6 1.255-1.1 0-.5.286-1.7-.714-.814-.998.884-1.654 1.6-2.423 1.427-.771-.17-1.313.343-.23-.613 1.084-.957 1.427-.215 1.285-1.329-.144-1.114-1.027-1.371-.029-1.514.999-.142 2.653-.772 3.765-.486a1.91 1.91 0 0 1 1.37 1.257m-9.698-2.143c-.714.771-.428 1.114-1.712.943-1.283-.172-2.338-.371-3.11.228-.77.601-1.767 2.1-1.425.536.342-1.564-.682-1.593.7-2.25 1.382-.656 1.056-.6 2.387-.485 1.334.115.65-.056 2.16-.07 1.513-.016 1 1.098 1 1.098" fill="#7CA037"/><path d="M44.568 77.006c-.31-2.225.207-4.534.516-6.075.31-1.541 3.714-.962 6.088-1.348 2.371-.385 2.991-.124 4.643-1.361a7.756 7.756 0 0 1 1.23-.782c.473.396.892 1.078 1.271 2.28 1.136 3.61 2.547 3.706 3.267 6.304.72 2.6 3.379 3.947-1.317 4.91-4.253.873-5.893.562-7.256.852-.25-.43-.75-.9-2.665-1.71-4.54-1.925-5.468-.846-5.777-3.07m50.036-18.583c2.424 1.637 3.043 2.985 5.107 3.465 2.063.482 3.414-.575 4.441 3.033 1.027 3.61 2.305 3.706 2.956 6.305.65 2.598 3.054 3.948-1.19 4.91-4.248.96-5.613.481-6.942.96-1.329.483-1.054 3.467-5.68 1.445-4.624-2.022-6.791-3.08-10.402-2.791-3.612.288-2.27 2.31-6.398.193-4.127-2.119-.722-2.119-5.261-4.044-4.54-1.925-5.468-.846-5.779-3.07-.309-2.223.207-4.534.518-6.074.309-1.54 3.713-.963 6.086-1.347 2.374-.387 2.993-.125 4.643-1.363 1.652-1.238 2.475-1.333 4.746-1.141 2.27.193 3.513-.384 5.42-.481 1.906-.097 3.04-.577 4.382 0 1.341.577 3.353 0 3.353 0" fill="#87AF43"/><path d="M72.216 65.068c1.484.578 3.71 0 3.71 0 2.68 1.637 3.364 2.985 5.646 3.466 2.283.482 3.776-.575 4.912 3.033.969 3.08 2.14 3.606 2.907 5.308-2.3-.904-4.076-1.319-6.497-1.124-3.612.288-2.27 2.308-6.397.192-4.127-2.12-.723-2.12-5.262-4.043-4.54-1.926-5.468-.846-5.778-3.071-.167-1.21-.09-2.44.064-3.563a17.458 17.458 0 0 1 1.85-.198c2.108-.095 3.362-.577 4.845 0" fill="#87AF43"/><path d="M67.288 67.241c.142-.205.372-.294.589-.342.441-.086.89-.048 1.322.033.869.156 1.706.483 2.536.713.213.043.423.096.634.13.213.014.425.059.638.046.42.008.85-.088 1.18-.338.332-.25.485-.705.444-1.156-.035-.452-.216-.89-.46-1.266-.123-.199-.26-.336-.414-.565-.062-.117-.131-.256-.11-.42a.62.62 0 0 1 .185-.39c.379-.359.825-.46 1.253-.575.866-.203 1.745-.267 2.62-.303a27.564 27.564 0 0 1 5.158.348c.223-.383.58-.65.927-.844.465-.259.961-.419 1.458-.549.259-.065.519-.121.779-.17-.607-.268-1.238-.475-1.87-.67a15.59 15.59 0 0 0-1.17-.3c-.39-.085-.79-.167-1.174-.17a2.602 2.602 0 0 0-.573.075c-.088.025-.176.066-.194.105-.025.03-.011.122.027.215.017.045.04.093.062.14.022.047.047.089.072.172a.241.241 0 0 1 .013.121.233.233 0 0 1-.03.122c-.034.081-.087.115-.137.16-.204.132-.41.172-.613.206-.818.114-1.63.027-2.43-.094.805.028 1.62.044 2.402-.094.192-.037.389-.093.534-.194.065-.06.086-.103.065-.16a.738.738 0 0 0-.06-.13c-.024-.051-.049-.1-.07-.158-.038-.105-.104-.255-.018-.43.094-.15.219-.177.32-.214a2.71 2.71 0 0 1 .625-.092c.84.018 1.624.237 2.412.462.751.226 1.494.495 2.206.863a22.544 22.544 0 0 1 1.843-.208c.506-.037 1.012-.06 1.518-.08.509-.022 1.006-.014 1.461-.155.46-.125.865-.42 1.04-.864.176-.443.115-.986-.034-1.476l-.002-.006s0-.003-.002-.003c-.033-.12.026-.249.135-.287.11-.039.225.028.259.15.16.557.24 1.205-.003 1.799-.243.596-.786.949-1.3 1.077-.524.148-1.048.127-1.545.14l-.111.005c.293.157.584.318.872.491.226.14.453.28.667.463.105.094.212.187.293.35.022.04.04.08.044.142a.281.281 0 0 1-.016.167.403.403 0 0 1-.174.216c-.129.094-.28.123-.338.177-.06.05-.062.11-.016.225.098.212.292.407.483.578.39.345.83.632 1.28.892.451.259.917.49 1.392.693.472.209.958.365 1.446.58.47.23.964.484 1.298.956.167.226.285.525.243.825-.034.289-.196.572-.44.67.234-.123.359-.412.369-.677a1.079 1.079 0 0 0-.268-.729c-.332-.406-.808-.645-1.273-.851-.96-.346-1.953-.722-2.867-1.25a8.083 8.083 0 0 1-1.323-.911c-.204-.186-.41-.373-.55-.665a.59.59 0 0 1-.055-.272.4.4 0 0 1 .139-.271c.15-.113.27-.122.351-.191.09-.072.103-.095.063-.182a.912.912 0 0 0-.231-.262 5.074 5.074 0 0 0-.631-.448 23.868 23.868 0 0 0-1.211-.702c-.316.01-.63.015-.944.034-1.002.056-2.007.152-2.983.382-.485.117-.968.266-1.409.501-.434.23-.856.572-.99 1.066-.138.494.044 1.04.296 1.5.25.393.472.864.557 1.365 1.61-.164 3.25-.192 4.856.125.407.084.812.176 1.21.307.2.057.395.135.592.207.195.073.398.158.583.314a.61.61 0 0 1 .215.342.653.653 0 0 1-.084.412c-.128.216-.288.368-.447.518-.32.293-.66.552-.944.858-.284.291-.52.702-.284 1.033.226.32.604.528.97.698.75.35 1.52.66 2.29.963.772.308 1.552.588 2.307.956.188.093.373.195.55.319.166.127.36.27.415.515.044.257-.134.456-.288.589a3.41 3.41 0 0 1-.529.35c.178-.112.355-.227.51-.374.15-.138.302-.34.252-.55-.053-.207-.238-.338-.404-.452a4.012 4.012 0 0 0-.546-.298c-.753-.344-1.539-.605-2.316-.894a40.015 40.015 0 0 1-2.32-.912c-.379-.181-.776-.376-1.063-.776a.83.83 0 0 1-.08-.755c.088-.237.237-.418.387-.583.303-.327.643-.586.952-.872.292-.27.663-.665.317-.894-.142-.12-.327-.2-.518-.271-.193-.068-.384-.144-.58-.2-.39-.127-.787-.215-1.186-.297-1.573-.293-3.184-.295-4.78-.151.056.57-.05 1.142-.242 1.659a6.394 6.394 0 0 1-.791 1.45c-.633.884-1.398 1.637-2.2 2.32a20.84 20.84 0 0 1-2.537 1.838.034.034 0 0 1-.047-.016.042.042 0 0 1 .015-.053 20.576 20.576 0 0 0 2.506-1.861c.79-.688 1.54-1.444 2.153-2.323.601-.863 1.094-1.923.971-3.014-.002-.019-.009-.035-.011-.055-.008-.012-.017-.025-.02-.042 0-.01.006-.016.008-.025-.078-.494-.286-.935-.562-1.36-.267-.474-.494-1.07-.34-1.677a1.73 1.73 0 0 1 .06-.176 29.18 29.18 0 0 0-5.047-.296c-.865.031-1.737.094-2.577.287-.41.102-.855.225-1.143.504-.147.14-.15.312-.046.488.104.16.287.358.41.559.26.406.457.877.497 1.391.048.507-.14 1.077-.54 1.372-.39.295-.862.385-1.305.38-.226.01-.445-.037-.666-.052-.22-.036-.436-.09-.652-.135-.861-.236-1.668-.586-2.52-.76-.42-.095-.854-.16-1.276-.102-.204.037-.423.095-.565.271-.142.17-.176.435-.118.666-.075-.223-.065-.501.077-.706" fill="#AAD36A"/><path d="M88.827 62.447c-1.811.136-4.954-.143-4.618 1.371.335 1.514-.235 1.342 1.093 1.744 1.333.399 2.018-.296 2.75.456 0 0-.408-.914-1.184-1.342-.776-.429-2.014-.972-.93-1.058 1.084-.086 1.367-.029 2.192.058.826.084.619-.687 1.367-.573.748.116.02-.708-.67-.656m.303 9.085c.8.251-1.335-1.4-.562-2.057.774-.657.929-1.943-1.135-2.057-2.063-.115-2.966-.286-2.966-.286s-1.109 4.686-4.05 5.514c0 0 1.161.571 2.322-1s.544-1.756 1.446-1.706c.902.05.717-1.008 1.118-1.408.402-.4.35-.828 1.123-.257.775.572.337.056.955 1.456.619 1.4 1.021 1.572 1.75 1.8M93.52 59.16s.035 2.228-1.804 2.782c.585.19 1.418.761.88 1.314-.537.552-1.198.636 0 .975 1.2.34 1.939.439 2.248 1.017.31.579 1.222.465 1.582.77 0 0-.653-.682-.997-.77-.344-.088.327-.468-.705-1.155-1.032-.685-1.256-.228-1.376-.876-.12-.646-.309-1.14.482-1.542.791-.4.929-.724 1.893-.456.962.265 1.563.742 1.563.742s.48-.455-.156-.922c-.634-.468-1.116-.392-1.769-1.116-.654-.724-1.29-.818-1.84-.762m12.415 13.828c-.79-1.258.274-.425-.895-2.25-1.169-1.827-1.065-1.712-1.96-2.359-.894-.648-.343-.952-1.547 0s.104-.117-2.338 1.56c-2.442 1.678-5.124 1.83-2.236 2.211 2.889.38 3.061.61 2.579 1.332-.482.725.997 2.63 2.476 1.506 1.479-1.124.379-1.429 2.03-1.047 1.65.38 1.89-.953 1.89-.953M80.96 65.875s1.135.372-.232 2.428c-1.367 2.058-1.187 2.156-2.555 2.436-1.367.279-1.65.935-1.779 1.679-.129.742-.516-.23 0-1.544.516-1.313-.231-1.513.697-1.828.929-.313 1.135-.6 1.135-1.1 0-.5.258-1.699-.646-.814-.903.886-1.495 1.6-2.192 1.429-.696-.171-1.186.343-.206-.615.98-.957 1.289-.213 1.16-1.328-.129-1.114-.929-1.37-.025-1.515.902-.142 2.4-.77 3.404-.485 1.007.286 1.238 1.257 1.238 1.257m-8.769-2.143c-.646.773-.386 1.115-1.548.944-1.16-.171-2.115-.373-2.81.228-.698.6-1.601 2.098-1.29.534.309-1.563-.618-1.591.631-2.248 1.251-.658.955-.6 2.16-.487 1.207.115.588-.056 1.954-.07 1.367-.015.903 1.099.903 1.099" fill="#7CA037"/><path d="M87.18 39.605c-2.165 4.507-.821 10.83 3.55 12.934 4.373 2.107 10.117-.8 12.282-5.307" fill="#C1AB29"/><path d="M87.18 39.605c-2.165 4.507-.375 9.868 3.997 11.974 4.372 2.107 9.67.16 11.835-4.347" fill="#D3BE34"/><path d="M87.627 39.82c-2.043 4.254-.354 9.313 3.772 11.3 4.124 1.988 9.123.15 11.167-4.102" fill="#FFE0AE"/><path d="M96.602 44.144a.7.7 0 0 0 .052.696l3.076 3.49a.696.696 0 0 0 1.225-.056h.001l.792-1.65m-13.305-6.41l-.791 1.65h-.002a.698.698 0 0 0 .722.996l4.642.226a.698.698 0 0 0 .576-.392m.884 7.856a.711.711 0 0 0 .063-.395l.226-4.651a.695.695 0 0 0-1.088-.524l-3.517 3.102a.7.7 0 0 0 .09 1.206l3.295 1.586.001.001a.696.696 0 0 0 .93-.325m1.391.605h.002l3.45-1.212a.7.7 0 0 0 .223-1.189l-3.153-3.474a.695.695 0 0 0-1.14.4l-.289 4.648a.696.696 0 0 0 .02.398.695.695 0 0 0 .887.429m-6.395-3.081a.691.691 0 0 0 .323-.235l3.444-3.128a.696.696 0 0 0-.4-1.14l-4.678-.298a.697.697 0 0 0-.786.916l1.208 3.456v.001a.696.696 0 0 0 .89.428" fill="#D3BE34"/><path d="M52.53 44.057s-6.717-3.137-12.044-8.355l-7.161 9.406s9.77 7.888 13.139 9.35c0 0 6.31-4.388 6.067-10.4" fill="#FFC83E"/><path d="M48.202 52.99c-.98.938-1.739 1.467-1.739 1.467-3.367-1.46-13.139-9.349-13.139-9.349l1.362-1.788c1.903 1.52 10.03 7.95 13.516 9.67" fill="#F49937"/><path d="M51.535 44.82c-.274-.15-1.74-1.064-2.165-1.39-.425-.324-3.87-2.867-4.33-3.219-.463-.353-2.162-1.768-2.726-2.081a10.439 10.439 0 0 1-1.093-.718l-.51.903-.631.974s.204.228 1.021.911c.82.684.652.616 2.059 1.807 1.405 1.192 2.754 1.497 3.739 2.347.984.851.914.917 2.25 1.862 1.335.946 2.16 1.077 2.16 1.077l.423-1.37.15-1.014-.347-.088z" fill="#FFD580"/><path d="M35.9 39.678c-1.967 2.584-3.12 5.015-2.576 5.43.544.416 2.579-1.34 4.546-3.924 1.968-2.584 3.121-5.015 2.577-5.43-.545-.415-2.58 1.342-4.547 3.924m15.856 5.972a120.359 120.359 0 0 0-2.008-1.523l-2.03-1.492-2.049-1.465a109.92 109.92 0 0 0-2.074-1.43c-.014-.008-.034-.003-.044.013-.01.015-.01.035.003.043.662.516 1.33 1.025 2.005 1.526l2.031 1.488 2.05 1.464c.686.485 1.377.962 2.074 1.433.013.009.033.004.044-.013.011-.016.009-.034-.002-.044m-3.024-1.051a120.359 120.359 0 0 0-2.007-1.523l-2.03-1.492-2.05-1.463c-.684-.485-1.376-.963-2.074-1.432-.012-.008-.033-.003-.043.013-.011.015-.009.035.002.043.664.516 1.333 1.025 2.006 1.526l2.031 1.489 2.051 1.463c.686.485 1.377.962 2.072 1.433.014.009.034.004.045-.013.011-.014.01-.034-.003-.044m.946 1.605a127.516 127.516 0 0 0-2.008-1.523l-2.029-1.492-2.049-1.465c-.686-.484-1.378-.961-2.074-1.431-.014-.009-.034-.003-.045.014-.01.014-.01.034.003.043.663.515 1.332 1.023 2.005 1.524l2.031 1.49 2.052 1.464c.685.485 1.376.96 2.072 1.433.015.008.033.002.044-.013.011-.016.01-.036-.002-.044m1.142 2.722a131.54 131.54 0 0 0-2.007-1.523l-2.03-1.492-2.049-1.465a109.92 109.92 0 0 0-2.075-1.431.033.033 0 0 0-.043.012c-.012.016-.01.035.003.045.661.515 1.33 1.023 2.005 1.524l2.031 1.49 2.05 1.464c.687.485 1.378.96 2.074 1.431.013.01.033.004.044-.01.01-.017.009-.037-.002-.045m-1.415.004a125.604 125.604 0 0 0-2.007-1.523l-2.028-1.491-2.05-1.466a119.13 119.13 0 0 0-2.075-1.43c-.014-.009-.033-.003-.045.012-.01.015-.01.035.003.043.664.517 1.332 1.025 2.005 1.526l2.033 1.49 2.05 1.463c.685.484 1.377.961 2.073 1.432.014.01.032.004.043-.012.012-.015.01-.035-.002-.044m-3.484-1.017a131.54 131.54 0 0 0-2.008-1.523l-2.03-1.492-2.048-1.465c-.686-.484-1.379-.961-2.075-1.43-.013-.008-.033-.003-.044.012-.01.016-.01.035.003.044.662.516 1.33 1.025 2.005 1.524l2.031 1.49 2.05 1.463c.687.486 1.378.963 2.074 1.434.015.008.033.004.044-.013.011-.016.01-.034-.002-.044m3.139 3.455a120.359 120.359 0 0 0-2.008-1.523l-2.029-1.492-2.048-1.466a120.75 120.75 0 0 0-2.076-1.43c-.013-.008-.034-.002-.043.014-.012.015-.01.035.002.043.663.516 1.331 1.024 2.005 1.526l2.032 1.488 2.05 1.465c.685.484 1.378.96 2.073 1.43.014.01.033.005.045-.01.01-.016.01-.036-.003-.045m-2.957-1.201a125.604 125.604 0 0 0-2.006-1.523l-2.03-1.492-2.05-1.464c-.686-.485-1.377-.963-2.074-1.432-.013-.008-.033-.003-.044.013-.01.015-.01.035.002.044.664.515 1.332 1.025 2.005 1.525l2.032 1.49 2.05 1.463c.686.485 1.379.962 2.073 1.431.015.01.035.005.045-.01.01-.017.01-.036-.003-.045m.754 2.688a142.396 142.396 0 0 0-2.008-1.523l-2.03-1.491-2.047-1.464a112.16 112.16 0 0 0-2.075-1.431c-.014-.009-.033-.004-.045.012-.01.016-.01.035.003.045.662.515 1.331 1.023 2.007 1.524l2.03 1.49 2.05 1.463c.686.486 1.378.961 2.073 1.432.014.009.033.004.044-.01.01-.017.01-.037-.002-.047m-3.278-1.227a125.701 125.701 0 0 0-2.008-1.523l-2.03-1.492-2.048-1.465c-.686-.484-1.379-.961-2.075-1.43-.014-.008-.034-.003-.044.011-.01.017-.01.035.003.045.663.516 1.33 1.024 2.005 1.524l2.03 1.49 2.051 1.464c.687.485 1.377.96 2.074 1.433.013.008.033.002.043-.013.012-.016.011-.036-.001-.044" fill="#FFB23E"/><path d="M39.515 37.177c.163-.646-.033-.82-.565-.433-.533.388-1.497 1.583-2.138 2.352-.64.77-.914 1.465-1.376 2.072-.461.605-.956 1.064-1.158 1.616-.2.551-.671 1.218-.431 1.406.24.189.358.272.747-.022.39-.296.413-.302.054-.431-.357-.13-.365-.384-.26-.619.107-.235.14-.254.429-.562.29-.307.42-.407.809-.99.39-.585.876-1.558 1.615-2.314.74-.757 1.302-2.069 1.55-1.747.248.321.118.156-.236 1.053-.354.898.557.347.78-.259.223-.604.18-1.122.18-1.122" fill="#F4A338"/><path d="M35.832 44.989s-7.989 1.45-16.146.615v10.833s13.84.308 17.769-.502c0 0 2.605-6.705-1.623-10.946" fill="#FFC83E"/><path d="M38 53.902c-.232 1.227-.545 2.033-.545 2.033-3.93.81-17.768.502-17.768.502v-2.06c2.684.049 14.108.21 18.314-.475" fill="#F49937"/><path d="M35.469 46.098c-.342.042-2.238.192-2.827.192-.59 0-5.31.065-5.95.065-.642 0-3.076-.086-3.78 0-.707.085-1.439.085-1.439.085l.156.942.096 1.058s.332.053 1.506.097c1.175.042.982.085 3.011.17 2.029.086 3.415-.442 4.847-.37 1.433.072 1.415.159 3.218.103 1.804-.053 2.614-.416 2.614-.416l-.543-1.233-.547-.822-.362.13z" fill="#FFD580"/><path d="M18.319 51.05c0 2.975.612 5.388 1.367 5.388.754 0 1.367-2.413 1.367-5.388s-.613-5.388-1.367-5.388c-.755 0-1.367 2.413-1.367 5.388m17.897-4.47c-.927-.005-1.852-.004-2.778.006l-2.776.043-2.777.074c-.924.03-1.85.066-2.775.112-.018 0-.03.016-.03.034 0 .016.015.03.031.03.926.007 1.852.006 2.778-.005l2.776-.045 2.777-.074c.926-.029 1.85-.069 2.775-.112.017 0 .03-.015.03-.033a.031.031 0 0 0-.031-.03m-3.354.915c-.927-.004-1.852-.002-2.777.008l-2.778.043-2.776.073c-.924.029-1.85.066-2.776.112a.034.034 0 0 0-.03.033.033.033 0 0 0 .033.031c.925.008 1.852.005 2.777-.005l2.777-.046 2.776-.074c.924-.029 1.85-.067 2.775-.11.019-.002.032-.015.031-.034a.033.033 0 0 0-.032-.03m1.901.642a183.55 183.55 0 0 0-2.777.007l-2.778.044-2.776.071c-.924.03-1.85.067-2.775.113a.034.034 0 0 0-.03.034c0 .016.014.03.032.03.925.007 1.852.006 2.777-.006l2.777-.043 2.776-.075c.925-.029 1.85-.067 2.775-.11a.033.033 0 0 0 .031-.034.033.033 0 0 0-.032-.031m2.82 1.347a172.92 172.92 0 0 0-2.778.007l-2.777.043-2.776.072c-.924.03-1.85.067-2.775.113-.017 0-.03.016-.03.034 0 .017.015.03.031.03.926.007 1.852.004 2.778-.006l2.777-.044 2.775-.075c.927-.028 1.85-.067 2.776-.11a.032.032 0 0 0-.001-.064m-1.237.789c-.927-.004-1.852-.002-2.779.008l-2.776.043-2.776.072c-.924.03-1.85.067-2.775.113-.017 0-.03.016-.03.033s.015.03.031.03c.926.009 1.852.006 2.778-.005l2.776-.045 2.777-.074c.925-.029 1.85-.067 2.775-.112.018 0 .03-.014.03-.032a.033.033 0 0 0-.031-.03m-3.736 1.197c-.927-.004-1.853-.003-2.78.007l-2.775.043-2.776.073c-.924.029-1.851.066-2.775.112a.033.033 0 0 0-.031.035c.001.016.015.03.03.03.929.006 1.854.004 2.78-.006l2.776-.044 2.776-.074c.925-.03 1.85-.067 2.776-.11a.034.034 0 0 0 .03-.035.034.034 0 0 0-.032-.031m5.062.769c-.927-.004-1.852-.002-2.777.009l-2.776.042-2.777.073c-.926.029-1.85.066-2.776.112a.032.032 0 0 0-.03.033.03.03 0 0 0 .032.031c.925.008 1.852.006 2.778-.005l2.776-.044 2.775-.076a159.74 159.74 0 0 0 2.776-.11.032.032 0 0 0 .031-.034.033.033 0 0 0-.032-.03m-3.396.768c-.926-.003-1.851-.002-2.778.008l-2.776.044-2.776.073c-.926.03-1.85.067-2.776.111a.032.032 0 0 0-.03.035c.001.016.015.03.03.03.927.007 1.854.005 2.78-.005l2.777-.045 2.775-.074c.925-.03 1.85-.068 2.776-.11a.032.032 0 0 0 .03-.035.03.03 0 0 0-.032-.031m2.457 1.54c-.926-.005-1.852-.003-2.777.008l-2.777.042-2.775.073c-.926.028-1.851.066-2.778.113-.017 0-.03.016-.03.033.002.016.016.031.033.031.927.006 1.852.004 2.777-.006l2.778-.045 2.776-.074c.924-.03 1.85-.067 2.774-.11a.034.034 0 0 0 .031-.035.032.032 0 0 0-.032-.03m-3.696.929c-.927-.005-1.852-.004-2.777.007l-2.778.043-2.776.073c-.925.03-1.85.067-2.776.111a.037.037 0 0 0-.03.035c.002.016.015.03.031.03.927.007 1.854.005 2.779-.004l2.777-.046 2.775-.074c.927-.029 1.85-.068 2.776-.11a.032.032 0 0 0 .03-.035.031.031 0 0 0-.031-.03" fill="#FFB23E"/><path d="M19.82 47.218c-.288-.562-.577-.577-.786 0-.208.578-.256 1.984-.304 2.9-.048.92.177 1.576.177 2.274s-.129 1.307.063 1.821c.193.513.225 1.261.562 1.264.336.002.496-.001.64-.434.144-.428.16-.447-.24-.342-.4.106-.577-.075-.64-.306-.065-.23-.049-.261 0-.648.047-.385.095-.529.047-1.17-.047-.643-.273-1.622-.13-2.583.146-.964-.24-2.232.194-2.135.433.096.209.05.496.898.288.851.721-.058.513-.622-.209-.565-.592-.917-.592-.917" fill="#F4A338"/><path d="M74.976 65.784c2.423 1.637 3.043 2.984 5.107 3.465 2.063.482 3.414-.575 4.44 3.033 1.028 3.61 2.306 3.705 2.956 6.305.651 2.6 3.055 3.946-1.19 4.909-4.247.963-5.613.482-6.941.963-1.329.48-1.054 3.464-5.68 1.443-4.624-2.022-6.792-3.08-10.403-2.791-3.61.288-2.269 2.31-6.397.192-4.127-2.117-.721-2.117-5.261-4.044-4.54-1.924-5.47-.845-5.778-3.069-.31-2.224.206-4.534.515-6.074.31-1.54 3.715-.963 6.088-1.348 2.373-.386 2.992-.124 4.643-1.362 1.65-1.237 2.476-1.333 4.747-1.141 2.268.192 3.512-.384 5.418-.481 1.906-.097 3.04-.578 4.383 0 1.341.577 3.353 0 3.353 0" fill="#87AF43"/><path d="M47.658 74.602c.144-.205.374-.294.59-.343.44-.085.89-.047 1.323.034.87.156 1.706.483 2.536.713.212.043.422.096.635.13.211.013.425.059.636.046.421.008.85-.088 1.18-.338.333-.25.486-.705.445-1.156-.036-.452-.216-.891-.46-1.266-.123-.199-.261-.336-.416-.565-.062-.118-.13-.256-.109-.42a.62.62 0 0 1 .186-.39c.379-.359.825-.46 1.252-.575.867-.203 1.746-.267 2.62-.303 1.726-.055 3.45.078 5.159.348.221-.383.58-.65.927-.844.465-.259.96-.42 1.457-.549.26-.065.518-.122.78-.17a16.858 16.858 0 0 0-1.869-.67c-.388-.115-.78-.217-1.171-.302-.391-.083-.79-.165-1.176-.169a2.539 2.539 0 0 0-.572.076c-.087.023-.175.065-.195.106-.022.029-.01.12.028.214.017.045.04.092.063.14.02.047.047.089.071.172.015.034.02.075.014.121a.223.223 0 0 1-.03.12c-.034.083-.089.117-.137.163-.204.13-.41.17-.614.204-.817.115-1.63.027-2.43-.093.806.028 1.62.042 2.402-.094.193-.038.39-.094.534-.194.066-.06.087-.103.066-.16a.847.847 0 0 0-.06-.13c-.024-.051-.05-.102-.071-.158-.037-.105-.103-.255-.017-.429.094-.15.218-.178.32-.215.214-.057.408-.087.625-.093.838.02 1.625.238 2.412.463.751.227 1.493.494 2.206.863a22.545 22.545 0 0 1 1.843-.208 40.658 40.658 0 0 1 1.517-.08c.51-.022 1.006-.015 1.462-.155.46-.125.864-.42 1.038-.863.178-.445.116-.987-.033-1.477l-.002-.006v-.003c-.035-.121.025-.249.135-.287.108-.039.224.028.258.148.158.558.24 1.207-.003 1.8-.245.597-.788.95-1.3 1.078-.523.147-1.05.127-1.547.14-.035 0-.073.004-.11.004.294.158.584.319.873.492.226.14.452.28.666.463.104.095.213.188.294.349.02.04.04.082.044.143a.281.281 0 0 1-.016.167.4.4 0 0 1-.173.214c-.13.096-.281.127-.34.179-.059.048-.061.109-.015.224.097.213.292.408.482.579.392.345.832.632 1.28.892.452.259.917.488 1.391.692.474.211.96.366 1.448.58.47.23.963.486 1.297.957.166.225.286.525.244.824-.035.29-.197.572-.44.672.232-.124.36-.414.368-.678a1.087 1.087 0 0 0-.268-.73c-.332-.405-.807-.644-1.272-.85-.96-.346-1.953-.723-2.869-1.25a8.074 8.074 0 0 1-1.321-.911c-.204-.186-.41-.373-.55-.667a.567.567 0 0 1-.055-.27.403.403 0 0 1 .137-.271c.152-.114.27-.122.353-.191.09-.072.103-.096.063-.181a.918.918 0 0 0-.231-.263 5.168 5.168 0 0 0-.631-.448c-.394-.25-.802-.476-1.21-.7-.316.007-.632.014-.947.032-1.002.056-2.005.152-2.981.381-.486.118-.969.267-1.41.502-.433.23-.855.57-.989 1.066-.138.494.044 1.04.296 1.498.25.395.471.866.557 1.367 1.61-.164 3.25-.192 4.857.125.405.084.811.175 1.208.307.2.057.395.135.593.206.195.074.4.159.582.315.093.07.18.192.216.34a.655.655 0 0 1-.084.414c-.127.215-.289.368-.448.518-.32.294-.657.552-.943.858-.284.291-.522.702-.284 1.032.225.32.603.53.97.699.75.348 1.52.66 2.292.963.77.307 1.549.588 2.305.955.186.093.374.195.55.32.166.127.359.269.413.515.046.257-.132.456-.287.59a3.585 3.585 0 0 1-.528.35 3.52 3.52 0 0 0 .51-.375c.15-.139.302-.34.252-.55-.053-.207-.239-.338-.406-.452a3.925 3.925 0 0 0-.544-.298c-.753-.343-1.539-.606-2.316-.894a39.517 39.517 0 0 1-2.322-.912c-.379-.182-.776-.376-1.063-.776a.834.834 0 0 1-.079-.755c.09-.237.238-.418.387-.583.303-.327.642-.586.953-.874.292-.269.663-.663.318-.892-.142-.12-.328-.2-.52-.271-.191-.068-.383-.145-.58-.2a10.316 10.316 0 0 0-1.186-.297c-1.574-.294-3.182-.295-4.78-.151a3.734 3.734 0 0 1-.242 1.66 6.426 6.426 0 0 1-.79 1.449c-.634.886-1.398 1.636-2.199 2.32a20.662 20.662 0 0 1-2.537 1.837.034.034 0 0 1-.048-.016.04.04 0 0 1 .015-.052 20.706 20.706 0 0 0 2.506-1.861c.79-.688 1.54-1.444 2.153-2.323.6-.863 1.093-1.924.97-3.014-.002-.019-.008-.036-.01-.055-.008-.014-.019-.025-.02-.042-.001-.009.006-.016.007-.025-.078-.494-.286-.937-.563-1.36-.266-.474-.493-1.072-.339-1.677.016-.062.039-.12.061-.176a29.31 29.31 0 0 0-5.049-.296c-.864.03-1.735.093-2.577.287-.408.102-.853.226-1.143.504-.147.14-.148.312-.044.488.104.16.287.358.41.559.26.405.456.878.497 1.391.05.507-.14 1.076-.54 1.372-.39.294-.863.385-1.306.379-.225.01-.444-.036-.667-.05-.219-.037-.434-.091-.65-.137-.862-.234-1.667-.585-2.52-.758-.421-.096-.854-.162-1.276-.103-.204.037-.423.095-.564.27-.144.17-.177.436-.119.666-.074-.223-.066-.501.075-.705" fill="#AAD36A"/><path d="M69.198 69.807c-1.811.137-4.952-.142-4.617 1.371.335 1.515-.236 1.343 1.094 1.743 1.33.4 2.017-.294 2.75.458 0 0-.409-.915-1.185-1.344-.776-.428-2.014-.97-.93-1.057 1.083-.086 1.366-.028 2.191.057.826.087.62-.685 1.367-.57.749.114.021-.71-.67-.658m.304 9.085c.8.252-1.336-1.399-.562-2.057.773-.657.93-1.943-1.136-2.057-2.063-.114-2.966-.286-2.966-.286s-1.109 4.686-4.048 5.515c0 0 1.16.57 2.32-1 1.161-1.57.544-1.755 1.446-1.706.902.048.717-1.009 1.12-1.409.4-.399.348-.828 1.123-.256.774.571.335.057.953 1.457.62 1.4 1.022 1.571 1.75 1.8m4.39-12.372s.035 2.228-1.805 2.781c.584.19 1.42.762.881 1.316-.538.551-1.199.634 0 .974 1.199.34 1.939.439 2.248 1.017.31.579 1.222.465 1.582.77 0 0-.653-.682-.997-.77-.344-.088.327-.468-.705-1.155-1.032-.685-1.256-.228-1.376-.876-.12-.646-.31-1.142.481-1.542.792-.4.93-.724 1.892-.458.964.267 1.565.744 1.565.744s.48-.454-.156-.923c-.635-.467-1.116-.392-1.769-1.116-.654-.723-1.29-.817-1.84-.762M86.308 80.35c-.792-1.257.275-.426-.894-2.251-1.17-1.825-1.067-1.711-1.961-2.358-.893-.648-.343-.952-1.548 0-1.204.951.104-.118-2.338 1.561-2.442 1.678-5.124 1.83-2.236 2.21 2.89.38 3.061.61 2.58 1.333-.483.723.997 2.63 2.475 1.505 1.48-1.124.379-1.428 2.03-1.047 1.65.38 1.892-.953 1.892-.953m-24.977-7.114s1.135.37-.232 2.429c-1.367 2.057-1.187 2.155-2.554 2.434-1.367.28-1.65.936-1.78 1.679-.127.743-.516-.228 0-1.542.516-1.315-.231-1.515.698-1.829.928-.313 1.133-.6 1.133-1.1 0-.5.26-1.7-.643-.814s-1.497 1.6-2.192 1.428c-.698-.17-1.188.344-.208-.614s1.29-.213 1.16-1.328c-.127-1.114-.928-1.372-.025-1.516.903-.141 2.4-.77 3.405-.484 1.006.286 1.238 1.257 1.238 1.257m-8.77-2.143c-.645.772-.387 1.114-1.548.943-1.16-.17-2.114-.372-2.81.228-.697.6-1.6 2.098-1.29.534.309-1.561-.618-1.59.633-2.248 1.25-.658.955-.6 2.16-.487 1.205.116.585-.054 1.953-.069 1.367-.015.902 1.1.902 1.1" fill="#7CA037"/><g transform="matrix(-1 0 0 1 82.887 32.93)"><mask id="b" fill="#fff"><use xlink:href="#a"/></mask><path d="M.796 14.887S6.315 4.661 15.833.307c0 0 25.66 4.044 30.628 16.051 0 0-3.234 2.974-2.76 5.023 0 0-32.006-8.82-42.905-6.494" fill="#9E3C21" mask="url(#b)"/></g><path d="M75.708 44.261a30.13 30.13 0 0 0-1.09-1.355 41.908 41.908 0 0 0-1.147-1.288 35.25 35.25 0 0 0-2.461-2.406 24.58 24.58 0 0 0-2.72-2.104c-.48-.314-.97-.611-1.476-.879a14.02 14.02 0 0 0-1.563-.705.069.069 0 0 0-.089.04.07.07 0 0 0 .036.087h.001c.511.238 1.007.506 1.488.801a18.1 18.1 0 0 1 1.385.963c.446.342.878.704 1.298 1.077.418.377.823.767 1.22 1.166a34.3 34.3 0 0 1 2.24 2.52c.352.435.696.88 1.029 1.331.33.45.66.915.955 1.37l.005.006a.54.54 0 0 0 .752.16.546.546 0 0 0 .16-.754l-.023-.03m-3.978.989a30.051 30.051 0 0 0-1.09-1.353c-.374-.44-.756-.868-1.147-1.288a34.992 34.992 0 0 0-2.46-2.408 29.506 29.506 0 0 0-1.326-1.098c-.454-.35-.916-.688-1.395-1.005-.48-.313-.97-.61-1.476-.878a14.496 14.496 0 0 0-1.563-.707.07.07 0 0 0-.053.128h.002a14.7 14.7 0 0 1 1.488.802c.477.297.936.622 1.385.963.446.342.877.703 1.297 1.076.42.377.824.767 1.22 1.165a34.818 34.818 0 0 1 2.24 2.52c.353.437.697.88 1.03 1.334.33.448.659.913.954 1.367l.005.007c.164.253.5.326.752.161a.548.548 0 0 0 .16-.755l-.022-.03m-3.573 1.279a30.981 30.981 0 0 0-1.09-1.354 40.496 40.496 0 0 0-1.148-1.288 35.262 35.262 0 0 0-2.46-2.407 30.186 30.186 0 0 0-1.324-1.098c-.455-.35-.918-.69-1.397-1.005-.48-.314-.97-.611-1.475-.879a14.365 14.365 0 0 0-1.563-.706.07.07 0 0 0-.089.04.069.069 0 0 0 .036.088c.513.236 1.008.506 1.488.801.478.298.938.622 1.387.962.445.342.877.705 1.296 1.078.419.375.824.766 1.22 1.165a34.557 34.557 0 0 1 2.24 2.519c.353.436.697.882 1.03 1.333.33.45.66.913.955 1.368l.004.008a.543.543 0 1 0 .913-.594l-.023-.03m-3.434 1.23a29.27 29.27 0 0 0-1.092-1.354 37.762 37.762 0 0 0-3.606-3.695 29.534 29.534 0 0 0-1.325-1.1 24.146 24.146 0 0 0-1.396-1.003c-.48-.313-.97-.612-1.476-.88a14.507 14.507 0 0 0-1.563-.705.067.067 0 0 0-.088.04.07.07 0 0 0 .035.088 14.56 14.56 0 0 1 1.489.8c.478.298.938.624 1.386.963.446.342.877.704 1.296 1.078.42.376.825.766 1.221 1.165a36.754 36.754 0 0 1 3.268 3.852c.33.45.661.914.956 1.369l.005.007a.544.544 0 1 0 .89-.625m-3.61.99a30.091 30.091 0 0 0-1.091-1.354 38.871 38.871 0 0 0-1.147-1.288 35.244 35.244 0 0 0-2.46-2.407 29.506 29.506 0 0 0-1.324-1.098c-.454-.35-.918-.689-1.397-1.005-.479-.313-.97-.61-1.476-.878a14.606 14.606 0 0 0-1.562-.707.07.07 0 0 0-.09.041.07.07 0 0 0 .035.087h.001c.514.237 1.01.507 1.489.802.478.297.937.622 1.386.961.446.343.878.705 1.297 1.078.418.376.824.766 1.22 1.165a34.073 34.073 0 0 1 2.24 2.52c.353.437.697.881 1.03 1.332.33.45.659.915.954 1.368l.005.008a.543.543 0 1 0 .912-.594l-.022-.03m-2.992 1.665a30.981 30.981 0 0 0-1.091-1.354 41.908 41.908 0 0 0-1.147-1.288 34.992 34.992 0 0 0-2.46-2.408 29.665 29.665 0 0 0-1.326-1.097 23.539 23.539 0 0 0-1.395-1.005c-.48-.314-.97-.611-1.476-.879a14.606 14.606 0 0 0-1.562-.706.07.07 0 0 0-.09.04.068.068 0 0 0 .035.087h.001c.514.237 1.01.507 1.489.802.477.298.937.622 1.386.962.446.343.878.705 1.297 1.078.42.376.824.766 1.22 1.165a34.557 34.557 0 0 1 2.24 2.519c.353.437.697.882 1.03 1.333.33.45.659.915.955 1.37l.003.005a.543.543 0 1 0 .913-.593l-.022-.031m-3.07 1.318a30.846 30.846 0 0 0-1.091-1.355 41.908 41.908 0 0 0-1.147-1.288 35.25 35.25 0 0 0-2.46-2.406 31.123 31.123 0 0 0-1.324-1.1c-.455-.35-.918-.687-1.396-1.003-.48-.315-.97-.61-1.477-.88a14.597 14.597 0 0 0-1.562-.705.069.069 0 0 0-.09.04c-.012.035.003.073.035.087h.002a14.43 14.43 0 0 1 1.488.801c.479.298.938.624 1.387.962.445.344.877.705 1.296 1.08.418.375.824.765 1.22 1.164a34.3 34.3 0 0 1 2.24 2.52c.353.435.697.88 1.03 1.332.33.449.66.914.953 1.368l.005.008a.545.545 0 1 0 .89-.625m-2.344 2.081a30.091 30.091 0 0 0-1.091-1.354 40.541 40.541 0 0 0-1.147-1.289 35.25 35.25 0 0 0-2.46-2.406 31.123 31.123 0 0 0-1.324-1.1 24.169 24.169 0 0 0-1.397-1.003c-.48-.315-.97-.612-1.476-.88a14.64 14.64 0 0 0-1.563-.705.068.068 0 0 0-.088.04.07.07 0 0 0 .034.088h.002a14.1 14.1 0 0 1 1.488.801c.477.298.938.622 1.387.962.445.342.876.704 1.296 1.078.418.375.824.766 1.22 1.165a34.251 34.251 0 0 1 2.24 2.519c.353.437.696.88 1.03 1.333.33.45.659.913.953 1.368l.005.008a.544.544 0 1 0 .913-.594c-.007-.01-.014-.022-.022-.03m-2.301 2.109a31.023 31.023 0 0 0-1.09-1.356 41.908 41.908 0 0 0-1.148-1.287 35 35 0 0 0-2.461-2.406 27.711 27.711 0 0 0-1.324-1.098 22.988 22.988 0 0 0-1.396-1.005c-.48-.314-.97-.611-1.476-.879a14.473 14.473 0 0 0-1.562-.706.069.069 0 0 0-.09.04.07.07 0 0 0 .036.088c.514.236 1.009.505 1.489.8.479.297.939.623 1.387.962.445.343.876.705 1.296 1.079.418.375.824.766 1.22 1.165a34.557 34.557 0 0 1 2.24 2.519c.353.436.697.88 1.03 1.332.33.45.66.914.954 1.37l.005.007a.543.543 0 1 0 .89-.625" fill="#8C311C"/><path d="M37.182 50.062c7.822-3.773 18.176-8.318 32.44-8.318 3.012 0 5.92.238 8.716.656 2.442 2.992 3.752 5.417 3.752 5.417-10.899-2.327-42.904 6.494-42.904 6.494.323-1.399-1.08-3.229-2.004-4.249" fill="#9E3C21"/><path d="M69.352 43.58c21.888 0 38.076 13.218 43.778 15.52.897.462 1.587 1.706 1.276 2.396 0 0 1.588 1.729-.793 4.561-2.38 2.833-29.085 10.271-48.675 10.271-19.591 0-33.019-11.975-48.838-10.962-1.563-1.428-3.54-7.278 0-10.502 2.116.23 1.979 1.29 9.934 1.29 7.955 0 20.233-12.575 43.318-12.575" fill="#C45B2F"/><path d="M16.11 54.88s-5.562-6.903-15.103-6.044l3.803 9.718L.04 68.751s9.988-.246 16.694-3.744c-2.535-2.069-2.887-7.514-.624-10.128" fill="#A84624"/><path d="M14.61 59.832s-5.395-3.707-10.572-3.25l-3.03-7.747c9.54-.858 15.102 6.044 15.102 6.044-1.07 1.236-1.554 3.107-1.5 4.953zm-10.297-.217L2.12 67.53c6.376-.387 11.193-3.333 13.097-4.69.358.875.864 1.634 1.517 2.166C10.028 68.504.04 68.751.04 68.751l4.273-9.136z" fill="#9E3C21"/><path d="M16.684 56.724a50.507 50.507 0 0 0-2.739-1.652 57.657 57.657 0 0 0-2.818-1.488 44.785 44.785 0 0 0-2.91-1.292 29.41 29.41 0 0 0-3.012-1.01c-.005-.002-.01.001-.01.006-.002.005 0 .01.005.011 1.002.337 1.98.732 2.94 1.175.952.452 1.89.932 2.809 1.45.917.518 1.82 1.063 2.705 1.631a50.326 50.326 0 0 1 2.6 1.78l.006.004a.372.372 0 0 0 .522-.08.376.376 0 0 0-.08-.524l-.018-.011m-.398 1.298a52.084 52.084 0 0 0-2.92-1.301 56.187 56.187 0 0 0-2.982-1.127 44.389 44.389 0 0 0-3.045-.925 29.748 29.748 0 0 0-3.115-.628c-.004-.002-.009.002-.009.006 0 .005.003.008.008.01a29.87 29.87 0 0 1 3.06.803c1.001.33 1.992.691 2.967 1.091.975.402 1.937.832 2.886 1.286.948.455 1.89.936 2.799 1.444l.006.004a.375.375 0 0 0 .364-.654l-.019-.01m-.093 1.422a48.197 48.197 0 0 0-5.407-1.161 38.565 38.565 0 0 0-2.74-.32 25.565 25.565 0 0 0-2.756-.057c-.003 0-.006.004-.006.008 0 .003.004.007.006.007.918.021 1.83.096 2.737.215.905.126 1.806.282 2.7.472.891.193 1.78.41 2.659.653a44.48 44.48 0 0 1 2.609.8l.006.001a.322.322 0 0 0 .41-.2.325.325 0 0 0-.2-.413l-.018-.005m-.129 1.427c-.9.205-1.826.371-2.748.515-.923.143-1.85.257-2.782.339a34.14 34.14 0 0 1-2.805.12 21.465 21.465 0 0 1-2.802-.205c-.004 0-.007.003-.007.006-.001.003.001.008.005.01.921.185 1.858.298 2.8.362a35.5 35.5 0 0 0 2.826.039 45.783 45.783 0 0 0 2.827-.184 41.424 41.424 0 0 0 2.817-.368.324.324 0 0 0 .266-.374.322.322 0 0 0-.374-.264.05.05 0 0 0-.017.003h-.006zm-.192 2.45c-.931.327-1.886.626-2.841.903-.958.277-1.922.533-2.893.759-.97.222-1.948.42-2.934.571a23.94 23.94 0 0 1-2.98.266c-.004 0-.008.004-.008.007s.004.007.006.007a23.726 23.726 0 0 0 3.003-.109c.998-.1 1.991-.247 2.98-.416.988-.176 1.97-.383 2.95-.611.978-.23 1.948-.476 2.92-.761a.325.325 0 0 0-.182-.623.07.07 0 0 1-.015.005l-.006.002z" fill="#8C311C"/><path d="M69.352 43.58c21.888 0 38.076 13.218 43.778 15.52.897.462 1.587 1.706 1.276 2.396 0 0 1.588 1.729-.793 4.561-2.38 2.833-29.085 10.271-48.675 10.271-19.591 0-33.019-11.975-48.838-10.962-1.563-1.428-3.54-7.278 0-10.502 2.116.23 1.979 1.29 9.934 1.29 7.955 0 20.233-12.575 43.318-12.575" fill="#C45B2F"/><path d="M64.768 72.526c17.742 0 40.758-4.986 49.963-8.35-.189.553-.532 1.184-1.118 1.88-2.38 2.833-29.085 10.272-48.675 10.272-19.591 0-33.019-11.975-48.838-10.963-.685-.625-1.448-2.1-1.793-3.83 16.004.603 30.275 10.99 50.461 10.99" fill="#B7502C"/><path d="M16.1 54.864c2.116.23 1.979 1.29 9.935 1.29 7.954 0 20.233-12.575 43.317-12.575 21.888 0 38.076 13.22 43.778 15.522.527.271.982.813 1.205 1.354 0 0 .145.252.162.62.011.237-.09.422-.09.422-6.795 1.428-23.211-7.876-28.869-6.08 0 0-16.692-4.56-35.593-.967-13.605 2.585-27.71 5.578-35.78 6.131-.197-1.988.225-4.16 1.936-5.717" fill="#A84624"/><path d="M100.169 58.29c0 .86 1.206 1.556 2.692 1.556 1.485 0 2.69-.697 2.69-1.555 0-.86-1.205-1.556-2.69-1.556-1.486 0-2.692.697-2.692 1.556" fill="#F4C4B8"/><path d="M101.285 58.29c0 .502.704.911 1.575.911.87 0 1.576-.409 1.576-.91 0-.504-.705-.911-1.576-.911-.871 0-1.575.407-1.575.91" fill="#544846"/><path d="M88.847 62.424c-8.064 1.682-18.07 2.75-27.875 1.73s-17.783-3.771-25.664-4.393c-7.882-.621-7.402 2.22-2.884 3.283 4.517 1.066 24.7 8.343 34.41 7.633 9.71-.71 17.784-.716 20.57-2.177 2.79-1.462 5.824-6.99 1.443-6.076" fill="#DD7052"/><path d="M83.19 65.2c-2.743.461-14.41 1.76-23.001.549-8.592-1.21-14.723-3.12-17.348-3.183-2.625-.065.203 2.747 3.307 3.73 3.103.982 12.692 2.893 16.072 2.956 3.38.063 15.204-.954 18.984-1.465 3.779-.509 4.498-3.01 1.985-2.587" fill="#F2856B"/><path d="M89.867 62.205c-1-1.532-2.228-2.978-3.589-4.35a38.301 38.301 0 0 0-4.534-3.83 41.494 41.494 0 0 0-8.155-4.6 33.99 33.99 0 0 0-1.508-.591c-.256-.09-.512-.183-.77-.268-.263-.084-.522-.169-.79-.24-.028-.01-.06.003-.07.026-.01.017 0 .038.02.048l.002.001a79.93 79.93 0 0 1 5.397 2.996 78.948 78.948 0 0 1 5.028 3.304 68.28 68.28 0 0 1 4.63 3.62 87.553 87.553 0 0 1 4.247 3.929c.018.017.052.02.077.007.02-.012.027-.035.015-.052m-11.113 2.663c-1.264-1.933-2.811-3.757-4.528-5.486a48.233 48.233 0 0 0-5.717-4.831 52.231 52.231 0 0 0-10.287-5.803 42.316 42.316 0 0 0-1.901-.745 46.641 46.641 0 0 0-.974-.338c-.329-.105-.655-.212-.994-.302-.036-.01-.076.005-.09.03-.01.024.002.049.028.064h.001c2.362 1.185 4.613 2.46 6.808 3.78a99.815 99.815 0 0 1 6.34 4.166 86.747 86.747 0 0 1 5.842 4.567c1.855 1.593 3.618 3.251 5.354 4.952a.086.086 0 0 0 .098.012c.026-.015.034-.044.02-.066m-15.566.748c-1.027-1.573-2.285-3.056-3.681-4.461a39.225 39.225 0 0 0-4.652-3.93 42.399 42.399 0 0 0-8.365-4.72 34.527 34.527 0 0 0-2.337-.882c-.269-.085-.535-.17-.81-.245-.03-.007-.062.004-.072.026-.009.019 0 .039.022.05l.001.001a82.29 82.29 0 0 1 5.536 3.074 81.258 81.258 0 0 1 5.158 3.39 70.069 70.069 0 0 1 4.749 3.713 87.895 87.895 0 0 1 4.356 4.028c.018.019.054.023.08.008.02-.013.028-.035.015-.052" fill="#8C311C"/><path d="M89.874 56.735s-2.081 10.75 7.116 12.407c0 0-5.633-2.752-7.116-12.407" fill="#B54D28"/><path d="M114.308 61.36c-1.309.039-2.594.4-3.81.868-.608.239-1.203.508-1.787.795a27.4 27.4 0 0 0-.866.455c-.287.154-.57.314-.85.478-.558.335-1.113.673-1.651 1.035-.271.18-.537.366-.804.549-.133.093-.268.185-.397.281l-.196.143-.1.072-.103.08a1.75 1.75 0 0 0-.378.4 2.449 2.449 0 0 0-.075.134c-.016.051-.04.097-.05.154a.683.683 0 0 0 .015.335.928.928 0 0 0 .37.456c.152.101.311.172.472.225.324.103.654.156.985.161.329.004.663-.03.966-.151-.158.035-.32.043-.479.04a3.382 3.382 0 0 1-.475-.04 3.407 3.407 0 0 1-.897-.263 1.715 1.715 0 0 1-.38-.23.583.583 0 0 1-.21-.296.388.388 0 0 1 .092-.295c.076-.1.189-.194.309-.277l.091-.062.103-.063.204-.129.409-.256c.273-.17.546-.34.821-.506a54.327 54.327 0 0 1 1.656-.98 37.004 37.004 0 0 1 1.685-.92c.28-.155.57-.292.854-.435.144-.074.29-.136.433-.204l.434-.205c1.166-.516 2.363-.963 3.623-1.212v-.001a.069.069 0 0 0 .055-.082.068.068 0 0 0-.07-.055" fill="#A84624"/><path d="M69.371 44.984c-23.773 0-36.417 12.574-44.61 12.574-7.649 0-8.034-.922-9.823-1.232a5.79 5.79 0 0 1 1.162-1.462c2.116.23 1.978 1.29 9.934 1.29 7.955 0 20.233-12.794 43.318-12.794 21.89 0 38.077 13.438 43.779 15.742.528.271.982.814 1.205 1.355-5.976-2.43-22.572-15.473-44.965-15.473" fill="#9B391F"/><path d="M38.04 64.743s-7.989 1.45-16.147.614v10.834s13.84.309 17.77-.502c0 0 2.605-6.705-1.624-10.946" fill="#FFC83E"/><path d="M40.207 73.655c-.232 1.23-.544 2.035-.544 2.035-3.93.809-17.77.501-17.77.501v-2.059c2.685.047 14.11.21 18.314-.477" fill="#F49937"/><path d="M37.676 65.852c-.342.042-2.239.194-2.828.194s-5.31.063-5.949.063c-.642 0-3.077-.086-3.78 0-.706.085-1.438.085-1.438.085l.156.942.096 1.06s.33.053 1.505.095c1.175.042.982.087 3.012.17 2.029.086 3.414-.443 4.846-.37 1.432.071 1.416.159 3.219.104 1.802-.053 2.614-.417 2.614-.417l-.545-1.233-.545-.822-.363.13z" fill="#FFD580"/><path d="M20.527 70.804c0 2.975.612 5.388 1.365 5.388.756 0 1.369-2.413 1.369-5.388s-.613-5.388-1.369-5.388c-.753 0-1.365 2.413-1.365 5.388m17.897-4.471c-.928-.003-1.854-.002-2.779.008l-2.776.043-2.776.073c-.925.029-1.85.066-2.776.112a.03.03 0 0 0-.029.033c0 .016.014.031.03.031.927.006 1.853.005 2.779-.005l2.777-.046 2.775-.075c.925-.027 1.85-.066 2.775-.11a.03.03 0 0 0 .03-.033.03.03 0 0 0-.03-.03m-3.354.916c-.926-.005-1.853-.004-2.778.007l-2.776.044-2.776.072a183.4 183.4 0 0 0-2.776.111.034.034 0 0 0-.031.035c0 .017.015.03.032.03.926.007 1.852.005 2.778-.005l2.777-.045 2.776-.074c.925-.03 1.85-.067 2.774-.11a.032.032 0 0 0 .03-.034.03.03 0 0 0-.03-.031m1.9.642a171.5 171.5 0 0 0-2.778.007l-2.776.042-2.776.074c-.925.03-1.85.066-2.776.111a.035.035 0 0 0-.03.035c.002.016.015.03.031.03.927.007 1.852.006 2.779-.004l2.777-.045 2.776-.075c.923-.029 1.85-.067 2.775-.11a.032.032 0 0 0 .03-.035.03.03 0 0 0-.031-.03m2.819 1.346c-.927-.004-1.852-.002-2.777.009l-2.778.042-2.775.073c-.925.03-1.85.066-2.777.112a.033.033 0 0 0-.03.033.033.033 0 0 0 .033.031c.925.007 1.852.005 2.777-.005l2.777-.045 2.776-.075a170.63 170.63 0 0 0 2.775-.11c.019-.002.032-.015.031-.034a.032.032 0 0 0-.032-.03m-1.237.79a173.04 173.04 0 0 0-2.778.006l-2.776.043-2.776.074c-.926.028-1.851.065-2.776.111a.033.033 0 0 0-.03.035c.001.016.015.03.03.03.927.006 1.854.004 2.78-.005l2.775-.045 2.777-.074c.924-.03 1.85-.067 2.776-.112.017 0 .03-.015.03-.033 0-.016-.016-.03-.032-.03m-3.737 1.197c-.925-.005-1.85-.002-2.776.008l-2.777.043-2.776.072c-.926.03-1.851.066-2.776.113a.03.03 0 0 0-.03.033c.001.018.015.031.03.031.927.006 1.853.005 2.78-.006l2.775-.045 2.776-.074c.926-.028 1.851-.068 2.775-.11a.032.032 0 0 0 0-.065m5.061.771c-.926-.005-1.852-.004-2.777.006l-2.778.044-2.776.072c-.924.029-1.85.066-2.774.113a.03.03 0 0 0-.03.033c.001.017.015.031.03.031.926.007 1.853.004 2.778-.006l2.777-.044 2.776-.075c.926-.028 1.85-.068 2.775-.11a.034.034 0 0 0 .031-.035.032.032 0 0 0-.032-.03m-3.397.769c-.925-.004-1.85-.003-2.776.009l-2.777.042-2.776.073c-.925.03-1.85.065-2.775.111-.018.002-.03.016-.03.035 0 .016.014.03.031.03.926.007 1.851.005 2.779-.005l2.776-.045 2.775-.075c.925-.029 1.85-.067 2.775-.11.018-.002.032-.016.03-.034a.032.032 0 0 0-.032-.031m2.459 1.54c-.927-.004-1.853-.003-2.778.007l-2.776.044-2.776.073c-.925.028-1.85.065-2.776.111a.032.032 0 0 0-.03.034.03.03 0 0 0 .031.03c.927.007 1.852.006 2.779-.004l2.776-.045 2.775-.077c.926-.027 1.851-.065 2.776-.109a.033.033 0 0 0 .03-.033.033.033 0 0 0-.032-.031m-3.696.929a151.19 151.19 0 0 0-2.777.008l-2.777.043-2.776.072c-.925.03-1.85.067-2.775.113a.033.033 0 0 0-.031.033.033.033 0 0 0 .032.031c.927.006 1.852.005 2.777-.006l2.778-.045 2.776-.074c.924-.029 1.85-.067 2.774-.11a.034.034 0 0 0 .031-.034.033.033 0 0 0-.032-.03" fill="#FFB23E"/><path d="M22.026 66.972c-.287-.562-.576-.578-.784 0-.209.577-.256 1.983-.304 2.9-.048.919.175 1.577.175 2.273 0 .699-.127 1.308.065 1.823.192.511.225 1.26.561 1.264.336.002.495-.003.64-.433.145-.431.16-.45-.24-.344-.4.105-.576-.075-.64-.306-.065-.23-.05-.26 0-.646.047-.387.096-.532.047-1.172-.048-.642-.272-1.62-.128-2.584.145-.963-.24-2.23.193-2.134.432.097.208.049.496.899.288.851.721-.058.512-.623a2.566 2.566 0 0 0-.593-.917" fill="#F4A338"/><path d="M41.116 68.32s7.988 1.453 16.145.617v10.832s-13.84.31-17.768-.5c0 0-2.606-6.705 1.623-10.948" fill="#FFC83E"/><path d="M38.947 77.234c.233 1.228.545 2.034.545 2.034 3.93.81 17.77.501 17.77.501v-2.06c-2.685.049-14.109.211-18.315-.475" fill="#F49937"/><path d="M41.479 69.43c.341.044 2.238.194 2.828.194.589 0 5.31.064 5.95.064.64 0 3.075-.085 3.78 0a13.94 13.94 0 0 0 1.437.085l-.155.941-.097 1.06s-.33.053-1.506.095c-1.175.042-.982.086-3.01.171-2.03.087-3.415-.442-4.846-.37-1.434.072-1.417.158-3.22.104-1.802-.055-2.613-.418-2.613-.418l.543-1.233.546-.821.363.129z" fill="#FFD580"/><path d="M58.629 74.383c0 2.975-.613 5.386-1.367 5.386-.755 0-1.367-2.411-1.367-5.386s.612-5.387 1.367-5.387c.754 0 1.367 2.412 1.367 5.387m-17.897-4.471c.927-.005 1.852-.004 2.778.008l2.777.043 2.776.072c.924.028 1.85.066 2.775.113.017 0 .03.016.03.033a.032.032 0 0 1-.031.03c-.926.007-1.852.006-2.778-.005l-2.777-.045-2.776-.074c-.925-.029-1.85-.067-2.775-.11a.032.032 0 0 1 .001-.065m3.354.916a172.92 172.92 0 0 1 2.777.008l2.776.042 2.777.074c.926.029 1.85.066 2.776.112.017 0 .03.016.03.033-.002.017-.016.031-.032.031-.926.006-1.852.005-2.778-.005l-2.776-.045-2.776-.075c-.926-.029-1.851-.067-2.775-.11a.032.032 0 0 1 .001-.065m-1.901.642a171.31 171.31 0 0 1 2.777.008l2.778.044 2.776.071c.924.03 1.85.067 2.775.113.017 0 .03.016.03.034a.031.031 0 0 1-.032.03c-.926.007-1.852.006-2.777-.006l-2.777-.044-2.776-.075c-.926-.028-1.85-.066-2.775-.11a.034.034 0 0 1-.031-.033.033.033 0 0 1 .032-.031m-2.82 1.346a183.75 183.75 0 0 1 2.778.007l2.776.044 2.776.072c.925.03 1.85.067 2.776.112.017 0 .03.018.03.034a.03.03 0 0 1-.031.03c-.927.008-1.852.006-2.779-.005l-2.776-.045-2.776-.074c-.925-.029-1.85-.067-2.775-.11a.033.033 0 0 1-.03-.034.033.033 0 0 1 .031-.031m1.237.79c.926-.004 1.853-.004 2.778.008l2.776.042 2.777.073c.925.03 1.85.067 2.776.113.017 0 .03.016.03.033a.031.031 0 0 1-.032.03c-.926.007-1.853.005-2.778-.004l-2.777-.046-2.777-.075c-.924-.028-1.85-.067-2.773-.11a.034.034 0 0 1-.032-.034.033.033 0 0 1 .032-.03m3.737 1.198c.926-.004 1.851-.004 2.777.008l2.776.043 2.776.072c.925.03 1.85.065 2.776.111a.035.035 0 0 1 .03.035.03.03 0 0 1-.031.031c-.926.006-1.852.005-2.779-.006l-2.776-.045-2.775-.074a182.88 182.88 0 0 1-2.776-.11.032.032 0 0 1-.03-.035.03.03 0 0 1 .032-.03m-5.063.769c.927-.004 1.852-.002 2.78.008l2.775.043 2.776.073c.926.029 1.85.066 2.776.112.016 0 .03.016.029.033a.03.03 0 0 1-.03.031c-.927.006-1.853.005-2.778-.005l-2.778-.045-2.775-.075a171.08 171.08 0 0 1-2.775-.11.033.033 0 0 1-.032-.034c.003-.017.016-.03.032-.03m3.396.769a184.09 184.09 0 0 1 2.78.008l2.775.043 2.776.072c.926.03 1.85.067 2.775.112.017.002.031.017.03.034a.033.033 0 0 1-.031.031c-.926.006-1.852.005-2.777-.006l-2.777-.045-2.777-.074c-.925-.028-1.85-.067-2.775-.11a.031.031 0 0 1-.03-.035.03.03 0 0 1 .031-.03m-2.456 1.54a172.92 172.92 0 0 1 2.777.007l2.776.043 2.776.072c.926.03 1.851.067 2.776.113.018 0 .031.016.03.034a.03.03 0 0 1-.03.03c-.926.007-1.853.005-2.78-.006l-2.775-.044-2.777-.075c-.925-.028-1.849-.067-2.774-.11a.032.032 0 0 1 0-.064m3.697.928c.925-.003 1.852-.002 2.777.008l2.778.043 2.776.073c.925.029 1.85.066 2.775.112.017.001.03.016.03.033-.002.018-.014.031-.032.031-.925.006-1.852.005-2.778-.005l-2.776-.044-2.775-.076c-.927-.028-1.85-.067-2.776-.11a.031.031 0 0 1-.03-.035.03.03 0 0 1 .031-.03" fill="#FFB23E"/><path d="M57.128 70.55c.289-.56.577-.577.785 0 .209.578.257 1.984.304 2.901.048.918-.176 1.575-.176 2.274 0 .698.129 1.307-.063 1.82-.193.515-.225 1.262-.561 1.266-.337 0-.497-.003-.641-.434-.144-.43-.16-.449.24-.343.4.105.576-.075.64-.306.065-.231.049-.262 0-.647-.046-.386-.096-.53-.046-1.173.047-.64.272-1.62.127-2.582-.145-.963.241-2.23-.193-2.135-.432.097-.208.05-.495.9-.29.85-.721-.06-.513-.624.208-.563.592-.917.592-.917" fill="#F4A338"/></g></svg>