<svg width="480" height="360" viewBox="0 0 480 360" xmlns="http://www.w3.org/2000/svg"><g fill="none" fill-rule="evenodd"><path fill="#F8C87E" d="M-5.183 358.655H482.41V0H-5.183z"/><path d="M13 98.254c0-1.65.069-2.526.13-3.3a26.8 26.8 0 0 0 .096-2.48c0-1.356-.021-2.016-.045-2.714-.025-.753-.051-1.532-.051-3.065 0-1.465.005-2.197.01-2.93.007-.712.012-1.424.012-2.848 0-1.337-.026-1.987-.055-2.675-.031-.763-.064-1.552-.064-3.104 0-1.551.032-2.34.063-3.102.028-.688.055-1.338.055-2.677 0-1.532.026-2.311.052-3.065.023-.697.045-1.356.045-2.713 0-1.553.033-2.342.064-3.106a54.63 54.63 0 0 0 .056-2.673 34.67 34.67 0 0 0-.08-2.566c-.046-.754-.099-1.607-.099-3.214 0-1.458.004-2.188.008-2.917.004-.715.008-1.43.008-2.861 0-1.362-.021-2.023-.044-2.723a81.975 81.975 0 0 1-.048-3.057c0-1.627.06-2.49.113-3.253.047-.678.087-1.263.087-2.526l.004-5.781c0-1.342-.026-1.995-.053-2.685a67.97 67.97 0 0 1-.06-3.093c0-1.41-.01-2.116-.02-2.821-.009-.74-.019-1.48-.019-2.96 0-1.44-.001-2.16-.003-2.88-.002-.725-.003-1.45-.003-2.901 0-1.584.044-2.425.083-3.167a41.62 41.62 0 0 0 .07-2.615c0-1.428-.005-2.143-.01-2.856A372.12 372.12 0 0 1 13.292 0h21.853c0 1.428.004 2.142.01 2.856.004.731.009 1.463.009 2.926 0 1.583-.045 2.424-.084 3.166-.037.703-.069 1.308-.069 2.616 0 1.439.002 2.159.003 2.879.002.725.003 1.45.003 2.902 0 1.41.01 2.115.02 2.82.01.74.019 1.48.019 2.96 0 1.343.025 1.995.052 2.686.03.76.061 1.546.061 3.093l-.003 5.78c0 1.627-.06 2.491-.113 3.253-.047.678-.088 1.264-.088 2.527 0 1.361.021 2.023.043 2.723.025.751.05 1.528.05 3.057 0 1.458-.005 2.188-.009 2.917-.003.715-.007 1.43-.007 2.861 0 1.284.037 1.878.079 2.567a45 45 0 0 1 .1 3.213 64.3 64.3 0 0 1-.065 3.107 54.757 54.757 0 0 0-.055 2.672c0 1.533-.027 2.312-.052 3.066a68.071 68.071 0 0 0-.046 2.712c0 1.551-.032 2.34-.063 3.102a56.225 56.225 0 0 0-.054 2.677c0 1.337.026 1.987.055 2.674.031.763.064 1.553.064 3.105 0 1.465-.006 2.197-.012 2.93a298.14 298.14 0 0 0-.011 2.848c0 1.357.022 2.017.046 2.715.025.753.051 1.532.051 3.065 0 1.65-.068 2.526-.13 3.299-.051.665-.097 1.24-.097 2.48 0 1.278.038 1.87.082 2.556.048.755.103 1.611.103 3.222 0 1.27.04 1.857.085 2.538.051.76.11 1.62.11 3.241 0 1.455-.003 2.182-.007 2.91-.002.717-.005 1.434-.005 2.869 0 1.552-.033 2.34-.064 3.103-.027.688-.054 1.338-.054 2.675 0 1.51-.02 2.277-.038 3.02-.017.69-.034 1.38-.034 2.76 0 1.251.043 1.832.092 2.504.057.767.12 1.637.12 3.275 0 1.66-.072 2.54-.135 3.318-.055.66-.102 1.23-.102 2.46 0 1.257.042 1.84.09 2.514.056.765.117 1.632.117 3.264 0 1.436.003 2.154.005 2.872.003.726.005 1.453.005 2.907 0 1.402.011 2.103.023 2.804.011.743.024 1.487.024 2.974 0 1.613-.055 2.47-.104 3.226a33.25 33.25 0 0 0-.083 2.552c0 1.347.025 2.001.05 2.694.029.758.058 1.542.058 3.084 0 1.488-.012 2.232-.024 2.976-.012.7-.023 1.402-.023 2.803 0 1.5-.016 2.25-.032 3-.015.695-.03 1.39-.03 2.778 0 1.382.017 2.074.033 2.765.018.753.036 1.507.036 3.013 0 1.557-.034 2.348-.067 3.114a51.93 51.93 0 0 0-.058 2.664l.005 5.777c0 1.246.044 1.824.095 2.493.058.77.125 1.642.125 3.285 0 1.396.012 2.095.025 2.792.014.747.028 1.493.028 2.985 0 1.51-.02 2.278-.038 3.02a95.78 95.78 0 0 0-.034 2.759c0 1.59-.047 2.434-.09 3.18-.038.696-.072 1.298-.072 2.597 0 1.543-.029 2.327-.057 3.085-.026.692-.051 1.346-.051 2.692 0 1.49-.014 2.236-.027 2.98-.012.7-.024 1.4-.024 2.797 0 1.328.029 1.973.06 2.655.033.767.07 1.561.07 3.123 0 1.387.015 2.08.03 2.774.016.75.033 1.501.033 3.002 0 1.532-.026 2.31-.052 3.063a69.221 69.221 0 0 0-.045 2.714c0 1.23.047 1.8.101 2.46.064.778.137 1.66.137 3.319 0 1.67-.076 2.556-.145 3.339a24.07 24.07 0 0 0-.104 2.437c0 1.316.03 1.955.065 2.632.035.737.077 1.572.077 3.145 0 1.588-.047 2.431-.088 3.175-.038.699-.072 1.3-.072 2.601 0 1.288.036 1.884.078 2.576.044.75.096 1.601.096 3.203l-.004 5.776c0 1.332.028 1.978.057 2.663.033.765.068 1.556.068 3.112 0 1.68-.081 2.571-.152 3.358-.06.676-.108 1.21-.108 2.419 0 1.284.036 1.88.078 2.57.046.75.098 1.602.098 3.203v.005c0 1.59-.047 2.435-.089 3.181a39.088 39.088 0 0 0-.073 2.596c0 1.366.02 2.029.041 2.732.023.748.046 1.523.046 3.046 0 1.398.013 2.097.025 2.795.014.746.027 1.492.027 2.983 0 1.684-.082 2.579-.154 3.368-.062.673-.11 1.205-.11 2.41H13.047c0-1.684.082-2.579.155-3.368.061-.673.11-1.205.11-2.41 0-1.397-.013-2.096-.025-2.795-.014-.746-.027-1.491-.027-2.983 0-1.365-.02-2.028-.041-2.73-.023-.75-.047-1.524-.047-3.048 0-1.59.048-2.435.09-3.18.039-.698.072-1.3.072-2.597a35.6 35.6 0 0 0-.078-2.57 45.667 45.667 0 0 1-.098-3.208c0-1.68.08-2.571.151-3.358.061-.676.11-1.21.11-2.419 0-1.33-.03-1.978-.058-2.663a62.207 62.207 0 0 1-.067-3.112l.003-5.776a35.91 35.91 0 0 0-.077-2.576 46.64 46.64 0 0 1-.096-3.203c0-1.588.047-2.432.088-3.176.038-.698.07-1.3.07-2.6 0-1.316-.03-1.955-.064-2.632-.036-.737-.077-1.572-.077-3.145 0-1.67.076-2.556.144-3.34a23.67 23.67 0 0 0 .105-2.436c0-1.23-.046-1.8-.1-2.46a35.228 35.228 0 0 1-.137-3.319c0-1.531.026-2.31.051-3.062.023-.698.045-1.357.045-2.715 0-1.386-.015-2.08-.03-2.773-.016-.75-.033-1.501-.033-3.003 0-1.327-.029-1.971-.06-2.654-.034-.768-.07-1.562-.07-3.124 0-1.49.014-2.235.026-2.98.013-.7.025-1.399.025-2.797 0-1.543.03-2.327.058-3.085.026-.692.051-1.346.051-2.692 0-1.59.047-2.435.089-3.18.04-.698.072-1.3.072-2.597 0-1.51.02-2.279.038-3.02a128.37 128.37 0 0 0 .009-5.549c-.014-.747-.028-1.494-.028-2.987 0-1.245-.044-1.823-.095-2.492-.058-.77-.124-1.642-.124-3.286l-.005-5.777c0-1.557.034-2.348.067-3.114.03-.685.057-1.332.057-2.664 0-1.383-.016-2.073-.032-2.765a108.59 108.59 0 0 1-.036-3.013c0-1.5.016-2.25.032-3 .014-.695.03-1.39.03-2.778 0-1.488.012-2.232.024-2.976.011-.7.023-1.401.023-2.803 0-1.346-.025-2-.05-2.693a70.458 70.458 0 0 1-.058-3.085c0-1.613.055-2.47.104-3.226a33.3 33.3 0 0 0 .082-2.552c0-1.403-.011-2.104-.022-2.805-.012-.743-.024-1.487-.024-2.973 0-1.436-.002-2.154-.005-2.872-.002-.727-.005-1.454-.005-2.907 0-1.257-.042-1.84-.09-2.515a39.64 39.64 0 0 1-.117-3.264c0-1.659.073-2.54.136-3.318.055-.66.101-1.23.101-2.46a28.46 28.46 0 0 0-.092-2.503c-.056-.768-.12-1.638-.12-3.275 0-1.51.019-2.277.037-3.02.017-.69.034-1.38.034-2.76 0-1.551.033-2.34.064-3.103.028-.688.055-1.338.055-2.675 0-1.455.002-2.182.005-2.91a655.8 655.8 0 0 0 .006-2.869c0-1.269-.04-1.857-.085-2.538-.052-.76-.11-1.62-.11-3.24 0-1.279-.037-1.871-.08-2.557A43.946 43.946 0 0 1 13 98.254zm43.083 0c0-1.65.068-2.526.13-3.3a26.8 26.8 0 0 0 .096-2.48c0-1.356-.022-2.016-.045-2.714a78.108 78.108 0 0 1-.052-3.065c0-1.465.006-2.197.011-2.93.006-.712.012-1.424.012-2.848 0-1.337-.027-1.987-.056-2.675-.03-.763-.063-1.552-.063-3.104 0-1.551.032-2.34.063-3.102.028-.688.054-1.338.054-2.677 0-1.532.026-2.311.052-3.065.023-.697.045-1.356.045-2.713 0-1.553.033-2.342.065-3.106.029-.688.055-1.336.055-2.673 0-1.283-.037-1.877-.079-2.566-.046-.754-.1-1.607-.1-3.214 0-1.458.004-2.188.008-2.917.004-.715.008-1.43.008-2.861 0-1.362-.021-2.023-.044-2.723-.023-.752-.048-1.529-.048-3.057 0-1.627.06-2.49.113-3.253.047-.678.088-1.263.088-2.526l.003-5.781c0-1.342-.026-1.995-.052-2.685a67.97 67.97 0 0 1-.06-3.093c0-1.41-.01-2.116-.02-2.821-.01-.74-.02-1.48-.02-2.96 0-1.44-.001-2.16-.003-2.88-.001-.725-.003-1.45-.003-2.901 0-1.584.044-2.425.084-3.167.036-.702.069-1.308.069-2.615 0-1.428-.005-2.143-.01-2.856A367.04 367.04 0 0 1 56.374 0h21.853c0 1.428.005 2.142.01 2.856.004.731.01 1.463.01 2.926 0 1.583-.045 2.424-.084 3.166a41.63 41.63 0 0 0-.07 2.616c0 1.439.002 2.159.004 2.879.001.725.003 1.45.003 2.902 0 1.41.009 2.115.019 2.82.01.74.02 1.48.02 2.96 0 1.343.025 1.995.052 2.686.03.76.06 1.546.06 3.093l-.003 5.78c0 1.627-.06 2.491-.113 3.253-.047.678-.088 1.264-.088 2.527 0 1.361.021 2.023.044 2.723.024.751.048 1.528.048 3.057 0 1.458-.004 2.188-.008 2.917-.003.715-.007 1.43-.007 2.861 0 1.284.037 1.878.08 2.567.046.753.099 1.606.099 3.213 0 1.554-.033 2.343-.065 3.107-.028.687-.055 1.336-.055 2.672 0 1.533-.026 2.312-.052 3.066a69.176 69.176 0 0 0-.045 2.712c0 1.551-.033 2.34-.064 3.102-.027.688-.054 1.339-.054 2.677 0 1.337.027 1.987.055 2.674.031.763.064 1.553.064 3.105 0 1.465-.006 2.197-.012 2.93-.005.712-.01 1.424-.01 2.848 0 1.357.021 2.017.045 2.715.025.753.051 1.532.051 3.065 0 1.65-.068 2.526-.13 3.299-.051.665-.096 1.24-.096 2.48 0 1.278.037 1.87.081 2.556.049.755.103 1.611.103 3.222 0 1.27.04 1.857.085 2.538.052.76.11 1.62.11 3.241 0 1.455-.003 2.182-.007 2.91-.002.717-.004 1.434-.004 2.869 0 1.552-.034 2.34-.065 3.103-.027.688-.054 1.338-.054 2.675 0 1.51-.02 2.277-.037 3.02-.017.69-.035 1.38-.035 2.76 0 1.251.043 1.832.092 2.504.057.767.121 1.637.121 3.275 0 1.66-.073 2.54-.136 3.318-.055.66-.102 1.23-.102 2.46 0 1.257.043 1.84.09 2.514.056.765.118 1.632.118 3.264 0 1.436.002 2.154.004 2.872.003.726.005 1.453.005 2.907 0 1.402.012 2.103.023 2.804.012.743.024 1.487.024 2.974 0 1.613-.055 2.47-.104 3.226a33.25 33.25 0 0 0-.083 2.552c0 1.347.025 2.001.051 2.694.028.758.058 1.542.058 3.084 0 1.488-.013 2.232-.025 2.976-.011.7-.023 1.402-.023 2.803 0 1.5-.016 2.25-.032 3-.014.695-.03 1.39-.03 2.778 0 1.382.017 2.074.033 2.765.018.753.036 1.507.036 3.013 0 1.557-.034 2.348-.067 3.114-.03.685-.057 1.332-.057 2.664l.004 5.777c0 1.246.044 1.824.095 2.493.058.77.125 1.642.125 3.285 0 1.396.013 2.095.026 2.792.014.747.028 1.493.028 2.985 0 1.51-.02 2.278-.039 3.02-.017.69-.034 1.38-.034 2.759 0 1.59-.047 2.434-.089 3.18-.038.696-.072 1.298-.072 2.597 0 1.543-.03 2.327-.058 3.085a60.13 60.13 0 0 0-.051 2.692c0 1.49-.013 2.236-.026 2.98-.013.7-.025 1.4-.025 2.797 0 1.328.029 1.973.06 2.655.034.767.07 1.561.07 3.123 0 1.387.015 2.08.03 2.774.017.75.033 1.501.033 3.002 0 1.532-.026 2.31-.051 3.063-.023.698-.045 1.357-.045 2.714 0 1.23.046 1.8.101 2.46.064.778.136 1.66.136 3.319 0 1.67-.076 2.556-.144 3.339a23.707 23.707 0 0 0-.105 2.437c0 1.316.031 1.955.065 2.632.035.737.077 1.572.077 3.145 0 1.588-.047 2.431-.088 3.175-.038.699-.071 1.3-.071 2.601 0 1.288.035 1.884.077 2.576.045.75.096 1.601.096 3.203l-.004 5.776c0 1.332.028 1.978.058 2.663.033.765.067 1.556.067 3.112 0 1.68-.08 2.571-.151 3.358a22.41 22.41 0 0 0-.109 2.419c0 1.284.036 1.88.078 2.57.046.75.098 1.602.098 3.203v.005c0 1.59-.047 2.435-.089 3.181a39.088 39.088 0 0 0-.073 2.596c0 1.366.02 2.029.042 2.732.022.748.046 1.523.046 3.046 0 1.398.012 2.097.025 2.795.013.746.027 1.492.027 2.983 0 1.684-.082 2.579-.155 3.368-.062.673-.11 1.205-.11 2.41H56.13c0-1.684.082-2.579.155-3.368.062-.673.11-1.205.11-2.41 0-1.397-.012-2.096-.025-2.795-.014-.746-.027-1.491-.027-2.983 0-1.365-.02-2.028-.04-2.73a86.226 86.226 0 0 1-.047-3.048c0-1.59.048-2.435.089-3.18.039-.698.073-1.3.073-2.597 0-1.285-.037-1.881-.079-2.57a45.742 45.742 0 0 1-.097-3.208c0-1.68.08-2.571.15-3.358.062-.676.11-1.21.11-2.419 0-1.33-.029-1.978-.058-2.663a62.207 62.207 0 0 1-.067-3.112l.004-5.776c0-1.288-.036-1.885-.077-2.576-.045-.75-.097-1.601-.097-3.203 0-1.588.047-2.432.088-3.176.038-.698.071-1.3.071-2.6 0-1.316-.032-1.955-.065-2.632-.036-.737-.077-1.572-.077-3.145 0-1.67.077-2.556.145-3.34.056-.653.105-1.218.105-2.436 0-1.23-.047-1.8-.101-2.46-.064-.777-.137-1.659-.137-3.319 0-1.531.026-2.31.051-3.062.024-.698.046-1.357.046-2.715 0-1.386-.016-2.08-.03-2.773-.017-.75-.034-1.501-.034-3.003 0-1.327-.029-1.971-.06-2.654-.033-.768-.07-1.562-.07-3.124 0-1.49.014-2.235.027-2.98.012-.7.025-1.399.025-2.797 0-1.543.03-2.327.057-3.085.027-.692.052-1.346.052-2.692 0-1.59.047-2.435.088-3.18.04-.698.072-1.3.072-2.597 0-1.51.02-2.279.039-3.02.017-.69.034-1.38.034-2.759 0-1.395-.013-2.093-.026-2.79-.014-.747-.028-1.494-.028-2.987 0-1.245-.044-1.823-.095-2.492-.058-.77-.124-1.642-.124-3.286l-.004-5.777c0-1.557.034-2.348.066-3.114.03-.685.058-1.332.058-2.664 0-1.383-.016-2.073-.033-2.765a106.81 106.81 0 0 1-.036-3.013c0-1.5.016-2.25.032-3 .015-.695.03-1.39.03-2.778 0-1.488.012-2.232.024-2.976.011-.7.023-1.401.023-2.803 0-1.346-.024-2-.05-2.693-.028-.758-.058-1.542-.058-3.085 0-1.613.055-2.47.104-3.226.044-.685.083-1.276.083-2.552 0-1.403-.012-2.104-.023-2.805-.011-.743-.024-1.487-.024-2.973 0-1.436-.002-2.154-.005-2.872-.002-.727-.004-1.454-.004-2.907 0-1.257-.043-1.84-.09-2.515a39.586 39.586 0 0 1-.118-3.264c0-1.659.073-2.54.137-3.318.054-.66.101-1.23.101-2.46 0-1.252-.043-1.832-.092-2.503a38.65 38.65 0 0 1-.121-3.275c0-1.51.019-2.277.037-3.02.017-.69.034-1.38.034-2.76 0-1.551.033-2.34.064-3.103.028-.688.055-1.338.055-2.675 0-1.455.002-2.182.006-2.91a655.8 655.8 0 0 0 .005-2.869c0-1.269-.04-1.857-.085-2.538-.051-.76-.11-1.62-.11-3.24 0-1.279-.037-1.871-.08-2.557a43.608 43.608 0 0 1-.103-3.222zm43.082 0c0-1.65.068-2.526.13-3.3.051-.664.096-1.24.096-2.48a68.16 68.16 0 0 0-.045-2.714c-.025-.753-.052-1.532-.052-3.065 0-1.465.006-2.197.011-2.93.007-.712.012-1.424.012-2.848 0-1.337-.027-1.987-.055-2.675-.031-.763-.064-1.552-.064-3.104 0-1.551.032-2.34.063-3.102.028-.688.054-1.338.054-2.677 0-1.532.027-2.311.052-3.065.024-.697.046-1.356.046-2.713a64.3 64.3 0 0 1 .064-3.106c.029-.688.056-1.336.056-2.673a34.67 34.67 0 0 0-.08-2.566c-.046-.754-.1-1.607-.1-3.214 0-1.458.004-2.188.009-2.917.003-.715.008-1.43.008-2.861 0-1.362-.022-2.023-.044-2.723a81.976 81.976 0 0 1-.049-3.057c0-1.627.06-2.49.113-3.253.047-.678.088-1.263.088-2.526l.003-5.781c0-1.342-.025-1.995-.052-2.685a67.97 67.97 0 0 1-.06-3.093c0-1.41-.01-2.116-.02-2.821-.01-.74-.02-1.48-.02-2.96 0-1.44 0-2.16-.003-2.88-.001-.725-.003-1.45-.003-2.901 0-1.584.045-2.425.084-3.167a41.62 41.62 0 0 0 .069-2.615c0-1.428-.005-2.143-.01-2.856A372.15 372.15 0 0 1 99.456 0h21.853c0 1.428.005 2.142.01 2.856.005.731.01 1.463.01 2.926 0 1.583-.045 2.424-.084 3.166-.037.703-.07 1.308-.07 2.616 0 1.439.003 2.159.004 2.879.002.725.003 1.45.003 2.902 0 1.41.01 2.115.019 2.82.01.74.02 1.48.02 2.96 0 1.343.025 1.995.052 2.686.03.76.06 1.546.06 3.093l-.003 5.78c0 1.627-.06 2.491-.113 3.253a30.823 30.823 0 0 0-.087 2.527c0 1.361.02 2.023.043 2.723.024.751.049 1.528.049 3.057 0 1.458-.005 2.188-.008 2.917-.004.715-.008 1.43-.008 2.861 0 1.284.037 1.878.08 2.567.046.753.1 1.606.1 3.213a64.3 64.3 0 0 1-.065 3.107 54.757 54.757 0 0 0-.056 2.672c0 1.533-.026 2.312-.052 3.066a68.07 68.07 0 0 0-.045 2.712c0 1.551-.033 2.34-.064 3.102-.027.688-.054 1.339-.054 2.677 0 1.337.027 1.987.056 2.674.03.763.063 1.553.063 3.105 0 1.465-.005 2.197-.011 2.93a298.14 298.14 0 0 0-.011 2.848c0 1.357.022 2.017.045 2.715.025.753.052 1.532.052 3.065 0 1.65-.069 2.526-.13 3.299-.052.665-.097 1.24-.097 2.48 0 1.278.038 1.87.082 2.556.048.755.103 1.611.103 3.222 0 1.27.04 1.857.084 2.538.052.76.11 1.62.11 3.241 0 1.455-.003 2.182-.006 2.91a656.15 656.15 0 0 0-.005 2.869c0 1.552-.033 2.34-.064 3.103-.028.688-.055 1.338-.055 2.675 0 1.51-.019 2.277-.037 3.02-.017.69-.034 1.38-.034 2.76 0 1.251.042 1.832.091 2.504.057.767.122 1.637.122 3.275 0 1.66-.073 2.54-.137 3.318-.054.66-.101 1.23-.101 2.46 0 1.257.042 1.84.09 2.514.055.765.117 1.632.117 3.264 0 1.436.002 2.154.005 2.872.002.726.005 1.453.005 2.907 0 1.402.011 2.103.022 2.804.012.743.025 1.487.025 2.974 0 1.613-.056 2.47-.104 3.226a33.25 33.25 0 0 0-.083 2.552c0 1.347.025 2.001.05 2.694.029.758.058 1.542.058 3.084 0 1.488-.012 2.232-.025 2.976-.011.7-.022 1.402-.022 2.803 0 1.5-.017 2.25-.033 3-.014.695-.029 1.39-.029 2.778 0 1.382.017 2.074.032 2.765.018.753.037 1.507.037 3.013 0 1.557-.035 2.348-.068 3.114-.03.685-.057 1.332-.057 2.664l.005 5.777c0 1.246.044 1.824.094 2.493.059.77.125 1.642.125 3.285 0 1.396.013 2.095.026 2.792.014.747.028 1.493.028 2.985 0 1.51-.02 2.278-.039 3.02a95.78 95.78 0 0 0-.034 2.759c0 1.59-.047 2.434-.088 3.18-.039.696-.073 1.298-.073 2.597 0 1.543-.03 2.327-.058 3.085-.026.692-.05 1.346-.05 2.692 0 1.49-.014 2.236-.027 2.98-.012.7-.025 1.4-.025 2.797 0 1.328.03 1.973.06 2.655.034.767.07 1.561.07 3.123 0 1.387.015 2.08.03 2.774.017.75.033 1.501.033 3.002 0 1.532-.026 2.31-.05 3.063a69.22 69.22 0 0 0-.046 2.714c0 1.23.046 1.8.101 2.46.064.778.137 1.66.137 3.319 0 1.67-.077 2.556-.145 3.339-.056.654-.105 1.219-.105 2.437 0 1.316.031 1.955.065 2.632.036.737.077 1.572.077 3.145 0 1.588-.046 2.431-.087 3.175-.039.699-.072 1.3-.072 2.601 0 1.288.036 1.884.077 2.576.045.75.097 1.601.097 3.203l-.004 5.776c0 1.332.028 1.978.057 2.663.033.765.067 1.556.067 3.112 0 1.68-.08 2.571-.15 3.358-.062.676-.11 1.21-.11 2.419 0 1.284.037 1.88.079 2.57.046.75.097 1.602.097 3.203v.005c0 1.59-.047 2.435-.088 3.181a39.088 39.088 0 0 0-.073 2.596c0 1.366.02 2.029.041 2.732.023.748.046 1.523.046 3.046 0 1.398.013 2.097.025 2.795.014.746.027 1.492.027 2.983 0 1.684-.082 2.579-.155 3.368-.062.673-.11 1.205-.11 2.41H99.213c0-1.684.081-2.579.154-3.368.062-.673.11-1.205.11-2.41 0-1.397-.012-2.096-.025-2.795-.013-.746-.026-1.491-.026-2.983 0-1.365-.02-2.028-.042-2.73-.022-.75-.046-1.524-.046-3.048 0-1.59.048-2.435.09-3.18.038-.698.072-1.3.072-2.597a35.6 35.6 0 0 0-.078-2.57 45.667 45.667 0 0 1-.098-3.208c0-1.68.08-2.571.15-3.358.062-.676.11-1.21.11-2.419 0-1.33-.028-1.978-.058-2.663-.032-.764-.067-1.556-.067-3.112l.004-5.776c0-1.288-.036-1.885-.077-2.576a46.423 46.423 0 0 1-.096-3.203c0-1.588.046-2.432.088-3.176.037-.698.07-1.3.07-2.6 0-1.316-.031-1.955-.064-2.632-.036-.737-.077-1.572-.077-3.145 0-1.67.076-2.556.144-3.34a23.67 23.67 0 0 0 .105-2.436c0-1.23-.046-1.8-.1-2.46a34.787 34.787 0 0 1-.138-3.319c0-1.531.027-2.31.052-3.062.023-.698.045-1.357.045-2.715 0-1.386-.015-2.08-.03-2.773-.017-.75-.033-1.501-.033-3.003 0-1.327-.03-1.971-.06-2.654-.034-.768-.07-1.562-.07-3.124 0-1.49.013-2.235.026-2.98.013-.7.025-1.399.025-2.797 0-1.543.03-2.327.058-3.085.026-.692.05-1.346.05-2.692 0-1.59.048-2.435.09-3.18.039-.698.072-1.3.072-2.597 0-1.51.02-2.279.038-3.02.017-.69.034-1.38.034-2.759 0-1.395-.013-2.093-.025-2.79a137.56 137.56 0 0 1-.028-2.987c0-1.245-.044-1.823-.095-2.492-.058-.77-.125-1.642-.125-3.286l-.004-5.777c0-1.557.034-2.348.066-3.114.03-.685.058-1.332.058-2.664 0-1.383-.016-2.073-.033-2.765a108.59 108.59 0 0 1-.036-3.013c0-1.5.016-2.25.033-3 .014-.695.03-1.39.03-2.778 0-1.488.011-2.232.024-2.976.011-.7.023-1.401.023-2.803 0-1.346-.025-2-.05-2.693a70.458 70.458 0 0 1-.058-3.085c0-1.613.055-2.47.103-3.226a32.96 32.96 0 0 0 .083-2.552c0-1.403-.011-2.104-.023-2.805-.011-.743-.024-1.487-.024-2.973 0-1.436-.002-2.154-.004-2.872-.003-.727-.005-1.454-.005-2.907 0-1.257-.042-1.84-.09-2.515a39.64 39.64 0 0 1-.117-3.264c0-1.659.072-2.54.136-3.318.054-.66.101-1.23.101-2.46a28.46 28.46 0 0 0-.092-2.503 38.65 38.65 0 0 1-.12-3.275c0-1.51.018-2.277.036-3.02.018-.69.035-1.38.035-2.76 0-1.551.033-2.34.064-3.103.027-.688.054-1.338.054-2.675 0-1.455.003-2.182.006-2.91.003-.717.005-1.434.005-2.869 0-1.269-.04-1.857-.085-2.538-.051-.76-.11-1.62-.11-3.24 0-1.279-.036-1.871-.08-2.557a43.946 43.946 0 0 1-.103-3.222zm43.082 0c0-1.65.069-2.526.13-3.3a26.8 26.8 0 0 0 .097-2.48c0-1.356-.022-2.016-.046-2.714-.025-.753-.051-1.532-.051-3.065 0-1.465.006-2.197.01-2.93.007-.712.012-1.424.012-2.848 0-1.337-.027-1.987-.055-2.675-.03-.763-.064-1.552-.064-3.104 0-1.551.033-2.34.064-3.102.027-.688.053-1.338.053-2.677 0-1.532.027-2.311.052-3.065.024-.697.046-1.356.046-2.713 0-1.553.033-2.342.064-3.106.03-.688.056-1.336.056-2.673a34.67 34.67 0 0 0-.08-2.566c-.046-.754-.099-1.607-.099-3.214 0-1.458.004-2.188.008-2.917.004-.715.008-1.43.008-2.861 0-1.362-.021-2.023-.044-2.723a83.011 83.011 0 0 1-.048-3.057c0-1.627.06-2.49.113-3.253.047-.678.088-1.263.088-2.526l.003-5.781c0-1.342-.026-1.995-.053-2.685a67.97 67.97 0 0 1-.06-3.093c0-1.41-.01-2.116-.02-2.821-.009-.74-.019-1.48-.019-2.96 0-1.44-.002-2.16-.003-2.88-.002-.725-.003-1.45-.003-2.901 0-1.584.044-2.425.083-3.167.037-.702.07-1.308.07-2.615 0-1.428-.006-2.143-.01-2.856a372.1 372.1 0 0 1-.01-2.926h21.852c0 1.428.005 2.142.01 2.856.005.731.01 1.463.01 2.926 0 1.583-.045 2.424-.084 3.166a41.63 41.63 0 0 0-.069 2.616c0 1.439.002 2.159.003 2.879.002.725.004 1.45.004 2.902 0 1.41.009 2.115.018 2.82.01.74.02 1.48.02 2.96 0 1.343.025 1.995.053 2.686.03.76.06 1.546.06 3.093l-.003 5.78c0 1.627-.06 2.491-.113 3.253-.047.678-.088 1.264-.088 2.527 0 1.361.02 2.023.044 2.723.023.751.048 1.528.048 3.057 0 1.458-.004 2.188-.008 2.917-.004.715-.007 1.43-.007 2.861 0 1.284.037 1.878.08 2.567.045.753.099 1.606.099 3.213 0 1.554-.033 2.343-.065 3.107a54.058 54.058 0 0 0-.056 2.672c0 1.533-.026 2.312-.052 3.066a69.175 69.175 0 0 0-.045 2.712c0 1.551-.032 2.34-.063 3.102a56.225 56.225 0 0 0-.054 2.677c0 1.337.027 1.987.055 2.674.03.763.064 1.553.064 3.105 0 1.465-.006 2.197-.012 2.93-.005.712-.01 1.424-.01 2.848 0 1.357.021 2.017.045 2.715.025.753.051 1.532.051 3.065 0 1.65-.069 2.526-.13 3.299-.052.665-.096 1.24-.096 2.48 0 1.278.037 1.87.081 2.556.048.755.103 1.611.103 3.222 0 1.27.04 1.857.085 2.538.052.76.11 1.62.11 3.241 0 1.455-.003 2.182-.006 2.91-.003.717-.006 1.434-.006 2.869 0 1.552-.033 2.34-.064 3.103a56.158 56.158 0 0 0-.054 2.675c0 1.51-.02 2.277-.038 3.02-.017.69-.034 1.38-.034 2.76 0 1.251.043 1.832.092 2.504.057.767.121 1.637.121 3.275 0 1.66-.073 2.54-.137 3.318-.054.66-.101 1.23-.101 2.46 0 1.257.042 1.84.09 2.514.055.765.118 1.632.118 3.264 0 1.436.002 2.154.005 2.872.001.726.004 1.453.004 2.907 0 1.402.011 2.103.023 2.804.012.743.024 1.487.024 2.974 0 1.613-.056 2.47-.104 3.226a33.017 33.017 0 0 0-.082 2.552c0 1.347.024 2.001.05 2.694.028.758.058 1.542.058 3.084 0 1.488-.013 2.232-.025 2.976-.012.7-.023 1.402-.023 2.803 0 1.5-.016 2.25-.032 3-.015.695-.03 1.39-.03 2.778 0 1.382.017 2.074.033 2.765.018.753.036 1.507.036 3.013 0 1.557-.034 2.348-.067 3.114-.03.685-.057 1.332-.057 2.664l.004 5.777c0 1.246.044 1.824.095 2.493.058.77.124 1.642.124 3.285 0 1.396.013 2.095.026 2.792.014.747.028 1.493.028 2.985 0 1.51-.02 2.278-.038 3.02a95.78 95.78 0 0 0-.034 2.759c0 1.59-.048 2.434-.09 3.18-.038.696-.071 1.298-.071 2.597 0 1.543-.03 2.327-.058 3.085a60.129 60.129 0 0 0-.051 2.692c0 1.49-.014 2.236-.026 2.98-.013.7-.025 1.4-.025 2.797 0 1.328.029 1.973.06 2.655.034.767.07 1.561.07 3.123 0 1.387.014 2.08.03 2.774.016.75.033 1.501.033 3.002 0 1.532-.027 2.31-.052 3.063-.023.698-.045 1.357-.045 2.714 0 1.23.047 1.8.102 2.46.063.778.136 1.66.136 3.319 0 1.67-.077 2.556-.144 3.339a23.869 23.869 0 0 0-.105 2.437c0 1.316.03 1.955.064 2.632.036.737.077 1.572.077 3.145 0 1.588-.046 2.431-.087 3.175-.039.699-.072 1.3-.072 2.601 0 1.288.036 1.884.077 2.576.046.75.097 1.601.097 3.203l-.004 5.776c0 1.332.028 1.978.058 2.663.032.765.066 1.556.066 3.112 0 1.68-.08 2.571-.15 3.358-.062.676-.11 1.21-.11 2.419 0 1.284.037 1.88.079 2.57.046.75.098 1.602.098 3.203v.005c0 1.59-.047 2.435-.089 3.181-.04.697-.073 1.298-.073 2.596 0 1.366.02 2.029.041 2.732.023.748.046 1.523.046 3.046 0 1.398.013 2.097.026 2.795.013.746.027 1.492.027 2.983 0 1.684-.083 2.579-.156 3.368-.061.673-.11 1.205-.11 2.41h-21.852c0-1.684.082-2.579.154-3.368.062-.673.11-1.205.11-2.41 0-1.397-.011-2.096-.024-2.795a142.72 142.72 0 0 1-.027-2.983c0-1.365-.02-2.028-.041-2.73a86.095 86.095 0 0 1-.046-3.048c0-1.59.047-2.435.088-3.18.04-.698.074-1.3.074-2.597 0-1.285-.037-1.881-.079-2.57a45.742 45.742 0 0 1-.098-3.208c0-1.68.08-2.571.151-3.358.061-.676.109-1.21.109-2.419 0-1.33-.028-1.978-.057-2.663a62.207 62.207 0 0 1-.067-3.112l.003-5.776c0-1.288-.036-1.885-.077-2.576a46.64 46.64 0 0 1-.096-3.203c0-1.588.046-2.432.088-3.176.038-.698.071-1.3.071-2.6 0-1.316-.031-1.955-.065-2.632-.036-.737-.077-1.572-.077-3.145 0-1.67.077-2.556.145-3.34.056-.653.105-1.218.105-2.436 0-1.23-.047-1.8-.102-2.46-.063-.777-.136-1.659-.136-3.319 0-1.531.026-2.31.051-3.062.023-.698.045-1.357.045-2.715 0-1.386-.015-2.08-.03-2.773-.016-.75-.033-1.501-.033-3.003 0-1.327-.029-1.971-.06-2.654-.034-.768-.07-1.562-.07-3.124 0-1.49.014-2.235.027-2.98.012-.7.024-1.399.024-2.797 0-1.543.03-2.327.058-3.085.027-.692.051-1.346.051-2.692 0-1.59.047-2.435.089-3.18.039-.698.072-1.3.072-2.597 0-1.51.02-2.279.038-3.02.017-.69.035-1.38.035-2.759 0-1.395-.013-2.093-.026-2.79-.014-.747-.028-1.494-.028-2.987 0-1.245-.044-1.823-.095-2.492a37.684 37.684 0 0 1-.125-3.286l-.004-5.777c0-1.557.034-2.348.067-3.114.03-.685.057-1.332.057-2.664 0-1.383-.016-2.073-.032-2.765-.019-.753-.036-1.507-.036-3.013 0-1.5.016-2.25.032-3 .014-.695.03-1.39.03-2.778 0-1.488.012-2.232.024-2.976.011-.7.023-1.401.023-2.803 0-1.346-.024-2-.05-2.693a69.909 69.909 0 0 1-.058-3.085c0-1.613.055-2.47.104-3.226.044-.685.082-1.276.082-2.552 0-1.403-.011-2.104-.022-2.805-.012-.743-.024-1.487-.024-2.973 0-1.436-.003-2.154-.005-2.872-.002-.727-.005-1.454-.005-2.907 0-1.257-.042-1.84-.09-2.515a39.586 39.586 0 0 1-.117-3.264c0-1.659.073-2.54.136-3.318.055-.66.102-1.23.102-2.46 0-1.252-.043-1.832-.093-2.503-.056-.768-.12-1.638-.12-3.275 0-1.51.019-2.277.037-3.02.017-.69.034-1.38.034-2.76 0-1.551.033-2.34.064-3.103a55.61 55.61 0 0 0 .054-2.675c0-1.455.003-2.182.006-2.91.003-.717.006-1.434.006-2.869 0-1.269-.04-1.857-.086-2.538-.05-.76-.109-1.62-.109-3.24 0-1.279-.037-1.871-.081-2.557-.048-.755-.103-1.611-.103-3.222zm43.082 0c0-1.65.069-2.526.13-3.3.052-.664.097-1.24.097-2.48a68.16 68.16 0 0 0-.046-2.714 80.028 80.028 0 0 1-.05-3.065c0-1.465.005-2.197.01-2.93.006-.712.012-1.424.012-2.848 0-1.337-.027-1.987-.055-2.675a63.84 63.84 0 0 1-.065-3.104c0-1.551.033-2.34.064-3.102.028-.688.054-1.338.054-2.677 0-1.532.026-2.311.052-3.065.023-.697.046-1.356.046-2.713 0-1.553.032-2.342.064-3.106a54.63 54.63 0 0 0 .055-2.673 34.8 34.8 0 0 0-.079-2.566c-.047-.754-.1-1.607-.1-3.214 0-1.458.004-2.188.009-2.917.003-.715.007-1.43.007-2.861 0-1.362-.02-2.023-.043-2.723a81.975 81.975 0 0 1-.05-3.057c0-1.627.06-2.49.114-3.253.047-.678.088-1.263.088-2.526l.003-5.781c0-1.342-.026-1.995-.053-2.685-.029-.76-.06-1.547-.06-3.093 0-1.41-.01-2.116-.019-2.821-.01-.74-.02-1.48-.02-2.96 0-1.44-.001-2.16-.003-2.88-.001-.725-.003-1.45-.003-2.901 0-1.584.044-2.425.083-3.167.038-.702.07-1.308.07-2.615 0-1.428-.005-2.143-.01-2.856a367.04 367.04 0 0 1-.01-2.926h21.853c0 1.428.004 2.142.01 2.856.004.731.01 1.463.01 2.926 0 1.583-.046 2.424-.085 3.166-.036.703-.069 1.308-.069 2.616 0 1.439.002 2.159.004 2.879.001.725.003 1.45.003 2.902 0 1.41.01 2.115.018 2.82.01.74.02 1.48.02 2.96 0 1.343.026 1.995.053 2.686.03.76.06 1.546.06 3.093l-.003 5.78c0 1.627-.06 2.491-.113 3.253a30.737 30.737 0 0 0-.087 2.527c0 1.361.02 2.023.043 2.723.024.751.049 1.528.049 3.057 0 1.458-.005 2.188-.009 2.917-.003.715-.007 1.43-.007 2.861 0 1.284.037 1.878.08 2.567.046.753.099 1.606.099 3.213 0 1.554-.033 2.343-.065 3.107-.028.687-.055 1.336-.055 2.672 0 1.533-.026 2.312-.052 3.066a68.071 68.071 0 0 0-.046 2.712c0 1.551-.032 2.34-.063 3.102a56.566 56.566 0 0 0-.054 2.677c0 1.337.027 1.987.055 2.674.031.763.064 1.553.064 3.105 0 1.465-.006 2.197-.012 2.93-.005.712-.01 1.424-.01 2.848 0 1.357.022 2.017.045 2.715.025.753.052 1.532.052 3.065 0 1.65-.07 2.526-.13 3.299-.052.665-.097 1.24-.097 2.48 0 1.278.037 1.87.081 2.556.049.755.103 1.611.103 3.222 0 1.27.04 1.857.086 2.538.05.76.108 1.62.108 3.241 0 1.455-.002 2.182-.005 2.91a656.11 656.11 0 0 0-.006 2.869c0 1.552-.032 2.34-.063 3.103-.028.688-.055 1.338-.055 2.675 0 1.51-.02 2.277-.038 3.02-.017.69-.034 1.38-.034 2.76 0 1.251.043 1.832.093 2.504.056.767.12 1.637.12 3.275 0 1.66-.072 2.54-.136 3.318a25.04 25.04 0 0 0-.101 2.46c0 1.257.041 1.84.09 2.514.055.765.117 1.632.117 3.264 0 1.436.002 2.154.005 2.872.002.726.005 1.453.005 2.907 0 1.402.01 2.103.022 2.804.012.743.024 1.487.024 2.974 0 1.613-.055 2.47-.104 3.226a33.25 33.25 0 0 0-.082 2.552c0 1.347.024 2.001.05 2.694.029.758.058 1.542.058 3.084 0 1.488-.012 2.232-.025 2.976-.012.7-.023 1.402-.023 2.803 0 1.5-.016 2.25-.032 3-.014.695-.03 1.39-.03 2.778 0 1.382.017 2.074.033 2.765.018.753.036 1.507.036 3.013 0 1.557-.034 2.348-.067 3.114-.029.685-.057 1.332-.057 2.664l.004 5.777c0 1.246.044 1.824.095 2.493.059.77.125 1.642.125 3.285 0 1.396.012 2.095.025 2.792.014.747.028 1.493.028 2.985 0 1.51-.019 2.278-.037 3.02a91.59 91.59 0 0 0-.035 2.759c0 1.59-.047 2.434-.089 3.18-.038.696-.072 1.298-.072 2.597 0 1.543-.03 2.327-.058 3.085-.026.692-.05 1.346-.05 2.692 0 1.49-.014 2.236-.027 2.98-.012.7-.025 1.4-.025 2.797 0 1.328.03 1.973.06 2.655.034.767.07 1.561.07 3.123 0 1.387.015 2.08.03 2.774.016.75.033 1.501.033 3.002 0 1.532-.026 2.31-.051 3.063a69.222 69.222 0 0 0-.046 2.714c0 1.23.047 1.8.102 2.46.063.778.136 1.66.136 3.319 0 1.67-.076 2.556-.144 3.339-.056.654-.105 1.219-.105 2.437 0 1.316.03 1.955.065 2.632.036.737.077 1.572.077 3.145 0 1.588-.047 2.431-.088 3.175-.038.699-.071 1.3-.071 2.601 0 1.288.036 1.884.077 2.576.045.75.096 1.601.096 3.203l-.003 5.776c0 1.332.027 1.978.057 2.663.032.765.067 1.556.067 3.112 0 1.68-.08 2.571-.151 3.358-.061.676-.11 1.21-.11 2.419 0 1.284.038 1.88.08 2.57.045.75.097 1.602.097 3.203v.005c0 1.59-.047 2.435-.089 3.181a39.087 39.087 0 0 0-.072 2.596c0 1.366.02 2.029.04 2.732.023.748.047 1.523.047 3.046 0 1.398.012 2.097.025 2.795.013.746.027 1.492.027 2.983 0 1.684-.082 2.579-.155 3.368-.061.673-.11 1.205-.11 2.41h-21.853c0-1.684.082-2.579.155-3.368.061-.673.11-1.205.11-2.41 0-1.397-.012-2.096-.025-2.795-.013-.746-.027-1.491-.027-2.983 0-1.365-.02-2.028-.041-2.73-.022-.75-.046-1.524-.046-3.048 0-1.59.048-2.435.089-3.18.039-.698.073-1.3.073-2.597 0-1.285-.037-1.881-.078-2.57a45.667 45.667 0 0 1-.099-3.208c0-1.68.08-2.571.152-3.358.06-.676.108-1.21.108-2.419 0-1.33-.027-1.978-.057-2.663a62.207 62.207 0 0 1-.067-3.112l.004-5.776c0-1.288-.036-1.885-.077-2.576a46.422 46.422 0 0 1-.097-3.203c0-1.588.047-2.432.088-3.176.038-.698.071-1.3.071-2.6 0-1.316-.031-1.955-.065-2.632-.035-.737-.077-1.572-.077-3.145 0-1.67.077-2.556.145-3.34.056-.653.105-1.218.105-2.436 0-1.23-.047-1.8-.101-2.46-.064-.777-.137-1.659-.137-3.319 0-1.531.026-2.31.052-3.062.022-.698.044-1.357.044-2.715 0-1.386-.014-2.08-.03-2.773-.016-.75-.033-1.501-.033-3.003 0-1.327-.028-1.971-.059-2.654-.034-.768-.07-1.562-.07-3.124 0-1.49.013-2.235.026-2.98.012-.7.025-1.399.025-2.797 0-1.543.029-2.327.058-3.085.026-.692.05-1.346.05-2.692 0-1.59.047-2.435.09-3.18.038-.698.072-1.3.072-2.597 0-1.51.019-2.279.038-3.02.017-.69.034-1.38.034-2.759 0-1.395-.013-2.093-.026-2.79-.014-.747-.028-1.494-.028-2.987a27.23 27.23 0 0 0-.095-2.492c-.058-.77-.124-1.642-.124-3.286l-.005-5.777c0-1.557.035-2.348.068-3.114.029-.685.057-1.332.057-2.664 0-1.383-.016-2.073-.033-2.765a106.81 106.81 0 0 1-.036-3.013c0-1.5.016-2.25.032-3 .015-.695.03-1.39.03-2.778 0-1.488.012-2.232.024-2.976.012-.7.023-1.401.023-2.803 0-1.346-.024-2-.05-2.693-.028-.758-.058-1.542-.058-3.085 0-1.613.055-2.47.104-3.226.045-.685.083-1.276.083-2.552 0-1.403-.011-2.104-.023-2.805-.012-.743-.024-1.487-.024-2.973 0-1.436-.002-2.154-.005-2.872-.002-.727-.005-1.454-.005-2.907 0-1.257-.041-1.84-.09-2.515a39.64 39.64 0 0 1-.117-3.264c0-1.659.073-2.54.136-3.318.055-.66.102-1.23.102-2.46 0-1.252-.043-1.832-.092-2.503a38.65 38.65 0 0 1-.121-3.275c0-1.51.02-2.277.037-3.02.017-.69.035-1.38.035-2.76 0-1.551.032-2.34.063-3.103.028-.688.055-1.338.055-2.675 0-1.455.003-2.182.006-2.91.002-.717.005-1.434.005-2.869 0-1.269-.04-1.857-.085-2.538-.052-.76-.11-1.62-.11-3.24 0-1.279-.037-1.871-.08-2.557a43.945 43.945 0 0 1-.104-3.222zm43.083 0c0-1.65.068-2.526.13-3.3a26.8 26.8 0 0 0 .096-2.48c0-1.356-.022-2.016-.045-2.714-.025-.753-.052-1.532-.052-3.065 0-1.465.006-2.197.012-2.93.005-.712.01-1.424.01-2.848 0-1.337-.026-1.987-.054-2.675-.031-.763-.064-1.552-.064-3.104 0-1.551.032-2.34.063-3.102.028-.688.054-1.338.054-2.677 0-1.532.026-2.311.052-3.065.024-.697.046-1.356.046-2.713 0-1.553.032-2.342.064-3.106.029-.688.056-1.336.056-2.673a34.67 34.67 0 0 0-.08-2.566c-.046-.754-.099-1.607-.099-3.214 0-1.458.004-2.188.008-2.917.004-.715.007-1.43.007-2.861 0-1.362-.02-2.023-.043-2.723-.024-.752-.049-1.529-.049-3.057 0-1.627.06-2.49.113-3.253.047-.678.088-1.263.088-2.526l.003-5.781c0-1.342-.025-1.995-.052-2.685a67.97 67.97 0 0 1-.06-3.093c0-1.41-.01-2.116-.02-2.821-.009-.74-.02-1.48-.02-2.96l-.002-2.88c-.002-.725-.003-1.45-.003-2.901 0-1.584.044-2.425.083-3.167.037-.702.069-1.308.069-2.615 0-1.428-.005-2.143-.01-2.856-.004-.731-.01-1.463-.01-2.926h21.853c0 1.428.005 2.142.01 2.856.005.731.01 1.463.01 2.926 0 1.583-.045 2.424-.084 3.166a41.63 41.63 0 0 0-.07 2.616c0 1.439.002 2.159.004 2.879.001.725.003 1.45.003 2.902 0 1.41.01 2.115.019 2.82.01.74.02 1.48.02 2.96 0 1.343.025 1.995.052 2.686.03.76.06 1.546.06 3.093l-.002 5.78c0 1.627-.06 2.491-.113 3.253-.047.678-.088 1.264-.088 2.527 0 1.361.02 2.023.043 2.723.024.751.049 1.528.049 3.057 0 1.458-.004 2.188-.008 2.917-.004.715-.008 1.43-.008 2.861 0 1.284.037 1.878.08 2.567.046.753.1 1.606.1 3.213 0 1.554-.033 2.343-.066 3.107-.028.687-.055 1.336-.055 2.672 0 1.533-.026 2.312-.052 3.066a69.175 69.175 0 0 0-.045 2.712c0 1.551-.032 2.34-.063 3.102-.028.688-.055 1.339-.055 2.677 0 1.337.027 1.987.056 2.674.03.763.063 1.553.063 3.105 0 1.465-.006 2.197-.011 2.93a298.14 298.14 0 0 0-.011 2.848c0 1.357.022 2.017.046 2.715.025.753.05 1.532.05 3.065 0 1.65-.068 2.526-.129 3.299-.052.665-.097 1.24-.097 2.48 0 1.278.038 1.87.082 2.556.048.755.102 1.611.102 3.222 0 1.27.04 1.857.086 2.538.051.76.109 1.62.109 3.241 0 1.455-.003 2.182-.006 2.91-.002.717-.005 1.434-.005 2.869 0 1.552-.033 2.34-.064 3.103-.028.688-.055 1.338-.055 2.675 0 1.51-.019 2.277-.037 3.02-.017.69-.034 1.38-.034 2.76 0 1.251.042 1.832.092 2.504.057.767.12 1.637.12 3.275 0 1.66-.072 2.54-.136 3.318-.054.66-.1 1.23-.1 2.46 0 1.257.04 1.84.089 2.514a39.6 39.6 0 0 1 .117 3.264c0 1.436.002 2.154.005 2.872.002.726.005 1.453.005 2.907 0 1.402.011 2.103.022 2.804.012.743.024 1.487.024 2.974 0 1.613-.055 2.47-.103 3.226a33.018 33.018 0 0 0-.083 2.552c0 1.347.024 2.001.05 2.694.029.758.058 1.542.058 3.084 0 1.488-.012 2.232-.024 2.976-.012.7-.023 1.402-.023 2.803 0 1.5-.016 2.25-.033 3-.014.695-.03 1.39-.03 2.778 0 1.382.017 2.074.034 2.765.017.753.035 1.507.035 3.013 0 1.557-.034 2.348-.066 3.114a51.93 51.93 0 0 0-.058 2.664l.005 5.777c0 1.246.044 1.824.094 2.493.059.77.125 1.642.125 3.285 0 1.396.013 2.095.026 2.792.014.747.028 1.493.028 2.985 0 1.51-.02 2.278-.038 3.02-.017.69-.035 1.38-.035 2.759 0 1.59-.046 2.434-.089 3.18-.038.696-.072 1.298-.072 2.597 0 1.543-.03 2.327-.058 3.085a60.13 60.13 0 0 0-.05 2.692c0 1.49-.014 2.236-.027 2.98-.012.7-.024 1.4-.024 2.797 0 1.328.028 1.973.06 2.655.033.767.07 1.561.07 3.123 0 1.387.014 2.08.03 2.774.016.75.032 1.501.032 3.002 0 1.532-.026 2.31-.051 3.063-.023.698-.045 1.357-.045 2.714 0 1.23.047 1.8.101 2.46.064.778.137 1.66.137 3.319 0 1.67-.077 2.556-.145 3.339a23.869 23.869 0 0 0-.105 2.437c0 1.316.031 1.955.065 2.632.036.737.077 1.572.077 3.145 0 1.588-.047 2.431-.087 3.175-.039.699-.072 1.3-.072 2.601 0 1.288.036 1.884.077 2.576.045.75.096 1.601.096 3.203l-.003 5.776c0 1.332.028 1.978.057 2.663.033.765.067 1.556.067 3.112 0 1.68-.08 2.571-.151 3.358a22.41 22.41 0 0 0-.109 2.419c0 1.284.037 1.88.078 2.57.047.75.099 1.602.099 3.203v.005c0 1.59-.048 2.435-.09 3.181-.038.697-.072 1.298-.072 2.596 0 1.366.02 2.029.041 2.732.022.748.046 1.523.046 3.046 0 1.398.012 2.097.025 2.795.014.746.027 1.492.027 2.983 0 1.684-.082 2.579-.155 3.368-.061.673-.11 1.205-.11 2.41h-21.853c0-1.684.082-2.579.155-3.368.062-.673.11-1.205.11-2.41a129.6 129.6 0 0 0-.025-2.795c-.013-.746-.026-1.491-.026-2.983 0-1.365-.02-2.028-.042-2.73a86.226 86.226 0 0 1-.046-3.048c0-1.59.048-2.435.09-3.18.038-.698.072-1.3.072-2.597a35.48 35.48 0 0 0-.078-2.57c-.046-.753-.098-1.604-.098-3.208 0-1.68.08-2.571.151-3.358.061-.676.109-1.21.109-2.419 0-1.33-.028-1.978-.058-2.663-.032-.764-.067-1.556-.067-3.112l.004-5.776c0-1.288-.036-1.885-.077-2.576-.045-.75-.097-1.601-.097-3.203 0-1.588.047-2.432.088-3.176.038-.698.072-1.3.072-2.6 0-1.316-.032-1.955-.065-2.632-.036-.737-.078-1.572-.078-3.145 0-1.67.077-2.556.145-3.34a23.67 23.67 0 0 0 .105-2.436c0-1.23-.046-1.8-.101-2.46a35.316 35.316 0 0 1-.136-3.319c0-1.531.026-2.31.051-3.062.023-.698.045-1.357.045-2.715 0-1.386-.015-2.08-.03-2.773-.017-.75-.033-1.501-.033-3.003 0-1.327-.03-1.971-.06-2.654-.034-.768-.07-1.562-.07-3.124 0-1.49.014-2.235.026-2.98.013-.7.025-1.399.025-2.797 0-1.543.03-2.327.058-3.085.026-.692.05-1.346.05-2.692 0-1.59.048-2.435.09-3.18.039-.698.072-1.3.072-2.597 0-1.51.019-2.279.038-3.02.017-.69.034-1.38.034-2.759 0-1.395-.013-2.093-.026-2.79a137.56 137.56 0 0 1-.027-2.987c0-1.245-.044-1.823-.095-2.492-.058-.77-.125-1.642-.125-3.286l-.004-5.777c0-1.557.034-2.348.067-3.114.03-.685.057-1.332.057-2.664 0-1.383-.016-2.073-.033-2.765a106.81 106.81 0 0 1-.036-3.013c0-1.5.017-2.25.033-3 .014-.695.029-1.39.029-2.778 0-1.488.012-2.232.025-2.976.01-.7.023-1.401.023-2.803 0-1.346-.025-2-.05-2.693a71.382 71.382 0 0 1-.058-3.085c0-1.613.054-2.47.103-3.226.045-.685.083-1.276.083-2.552 0-1.403-.011-2.104-.023-2.805-.011-.743-.024-1.487-.024-2.973 0-1.436-.002-2.154-.005-2.872-.002-.727-.004-1.454-.004-2.907 0-1.257-.042-1.84-.09-2.515a39.585 39.585 0 0 1-.118-3.264c0-1.659.073-2.54.137-3.318.055-.66.101-1.23.101-2.46 0-1.252-.043-1.832-.092-2.503a38.643 38.643 0 0 1-.121-3.275c0-1.51.02-2.277.038-3.02.017-.69.034-1.38.034-2.76 0-1.551.032-2.34.064-3.103.028-.688.054-1.338.054-2.675 0-1.455.003-2.182.006-2.91.002-.717.006-1.434.006-2.869 0-1.269-.04-1.857-.086-2.538-.051-.76-.109-1.62-.109-3.24 0-1.279-.038-1.871-.082-2.557-.047-.755-.102-1.611-.102-3.222zm43.082 0c0-1.65.068-2.526.13-3.3.051-.664.097-1.24.097-2.48a68.16 68.16 0 0 0-.046-2.714c-.025-.753-.051-1.532-.051-3.065 0-1.465.006-2.197.011-2.93.006-.712.011-1.424.011-2.848 0-1.337-.027-1.987-.055-2.675-.031-.763-.064-1.552-.064-3.104 0-1.551.032-2.34.064-3.102.028-.688.054-1.338.054-2.677 0-1.532.026-2.311.052-3.065a68.07 68.07 0 0 0 .045-2.713c0-1.553.033-2.342.064-3.106.03-.688.056-1.336.056-2.673a34.67 34.67 0 0 0-.08-2.566c-.046-.754-.099-1.607-.099-3.214 0-1.458.004-2.188.008-2.917.004-.715.008-1.43.008-2.861 0-1.362-.021-2.023-.044-2.723a81.973 81.973 0 0 1-.049-3.057c0-1.627.06-2.49.113-3.253.048-.678.088-1.263.088-2.526l.003-5.781c0-1.342-.025-1.995-.052-2.685a67.97 67.97 0 0 1-.06-3.093c0-1.41-.01-2.116-.019-2.821-.01-.74-.02-1.48-.02-2.96 0-1.44-.001-2.16-.003-2.88-.002-.725-.003-1.45-.003-2.901 0-1.584.044-2.425.083-3.167a41.62 41.62 0 0 0 .069-2.615c0-1.428-.004-2.143-.01-2.856a372.15 372.15 0 0 1-.01-2.926h21.854c0 1.428.005 2.142.009 2.856.005.731.01 1.463.01 2.926 0 1.583-.045 2.424-.084 3.166-.037.703-.069 1.308-.069 2.616 0 1.439.002 2.159.003 2.879.002.725.004 1.45.004 2.902 0 1.41.009 2.115.018 2.82.01.74.02 1.48.02 2.96 0 1.343.025 1.995.053 2.686.029.76.06 1.546.06 3.093l-.003 5.78c0 1.627-.06 2.491-.113 3.253a30.736 30.736 0 0 0-.088 2.527c0 1.361.02 2.023.043 2.723.025.751.05 1.528.05 3.057 0 1.458-.005 2.188-.009 2.917-.003.715-.008 1.43-.008 2.861 0 1.284.038 1.878.08 2.567.046.753.1 1.606.1 3.213a64.3 64.3 0 0 1-.065 3.107 54.757 54.757 0 0 0-.055 2.672c0 1.533-.027 2.312-.052 3.066a68.07 68.07 0 0 0-.046 2.712c0 1.551-.032 2.34-.063 3.102a56.566 56.566 0 0 0-.054 2.677c0 1.337.026 1.987.055 2.674.031.763.064 1.553.064 3.105 0 1.465-.006 2.197-.012 2.93-.005.712-.01 1.424-.01 2.848 0 1.357.021 2.017.045 2.715.025.753.051 1.532.051 3.065 0 1.65-.068 2.526-.13 3.299-.051.665-.096 1.24-.096 2.48 0 1.278.037 1.87.08 2.556a42.9 42.9 0 0 1 .104 3.222c0 1.27.04 1.857.085 2.538.051.76.11 1.62.11 3.241 0 1.455-.004 2.182-.007 2.91a656.11 656.11 0 0 0-.005 2.869c0 1.552-.033 2.34-.064 3.103a56.158 56.158 0 0 0-.054 2.675c0 1.51-.02 2.277-.038 3.02-.017.69-.034 1.38-.034 2.76 0 1.251.043 1.832.092 2.504.057.767.121 1.637.121 3.275 0 1.66-.073 2.54-.137 3.318-.054.66-.1 1.23-.1 2.46 0 1.257.04 1.84.09 2.514.054.765.116 1.632.116 3.264 0 1.436.003 2.154.005 2.872.002.726.005 1.453.005 2.907 0 1.402.011 2.103.023 2.804.011.743.024 1.487.024 2.974 0 1.613-.055 2.47-.104 3.226a33.25 33.25 0 0 0-.083 2.552c0 1.347.025 2.001.05 2.694.03.758.058 1.542.058 3.084 0 1.488-.012 2.232-.024 2.976-.012.7-.023 1.402-.023 2.803 0 1.5-.016 2.25-.032 3-.015.695-.03 1.39-.03 2.778 0 1.382.017 2.074.033 2.765.018.753.036 1.507.036 3.013 0 1.557-.035 2.348-.067 3.114-.03.685-.057 1.332-.057 2.664l.004 5.777c0 1.246.044 1.824.095 2.493.058.77.125 1.642.125 3.285 0 1.396.013 2.095.025 2.792.014.747.028 1.493.028 2.985 0 1.51-.02 2.278-.038 3.02-.017.69-.034 1.38-.034 2.759 0 1.59-.047 2.434-.09 3.18-.038.696-.071 1.298-.071 2.597 0 1.543-.03 2.327-.059 3.085-.026.692-.05 1.346-.05 2.692 0 1.49-.014 2.236-.027 2.98-.012.7-.024 1.4-.024 2.797 0 1.328.029 1.973.06 2.655.033.767.07 1.561.07 3.123 0 1.387.014 2.08.03 2.774.016.75.032 1.501.032 3.002 0 1.532-.026 2.31-.05 3.063a69.44 69.44 0 0 0-.045 2.714c0 1.23.046 1.8.1 2.46.064.778.137 1.66.137 3.319 0 1.67-.077 2.556-.145 3.339-.056.654-.105 1.219-.105 2.437 0 1.316.032 1.955.065 2.632.036.737.078 1.572.078 3.145 0 1.588-.047 2.431-.088 3.175-.038.699-.072 1.3-.072 2.601 0 1.288.036 1.884.077 2.576.045.75.097 1.601.097 3.203l-.004 5.776c0 1.332.028 1.978.058 2.663.032.765.066 1.556.066 3.112 0 1.68-.08 2.571-.15 3.358-.062.676-.11 1.21-.11 2.419 0 1.284.037 1.88.079 2.57.046.75.098 1.602.098 3.203v.005c0 1.59-.047 2.435-.09 3.181a39.087 39.087 0 0 0-.072 2.596c0 1.366.02 2.029.041 2.732.023.748.046 1.523.046 3.046 0 1.398.013 2.097.026 2.795.013.746.026 1.492.026 2.983a32.01 32.01 0 0 1-.154 3.368c-.062.673-.11 1.205-.11 2.41h-21.853c0-1.684.082-2.579.155-3.368.061-.673.11-1.205.11-2.41 0-1.397-.012-2.096-.025-2.795-.014-.746-.027-1.491-.027-2.983 0-1.365-.02-2.028-.041-2.73a86.095 86.095 0 0 1-.046-3.048c0-1.59.047-2.435.089-3.18.039-.698.072-1.3.072-2.597a35.6 35.6 0 0 0-.078-2.57 45.667 45.667 0 0 1-.098-3.208c0-1.68.08-2.571.151-3.358.061-.676.11-1.21.11-2.419 0-1.33-.03-1.978-.058-2.663a62.207 62.207 0 0 1-.067-3.112l.003-5.776a35.91 35.91 0 0 0-.077-2.576 46.423 46.423 0 0 1-.096-3.203c0-1.588.047-2.432.088-3.176.038-.698.071-1.3.071-2.6 0-1.316-.032-1.955-.065-2.632-.036-.737-.077-1.572-.077-3.145 0-1.67.077-2.556.144-3.34.057-.653.106-1.218.106-2.436 0-1.23-.047-1.8-.102-2.46-.063-.777-.136-1.659-.136-3.319 0-1.531.026-2.31.051-3.062.023-.698.045-1.357.045-2.715 0-1.386-.015-2.08-.03-2.773-.017-.75-.033-1.501-.033-3.003 0-1.327-.029-1.971-.06-2.654-.034-.768-.07-1.562-.07-3.124 0-1.49.014-2.235.027-2.98.012-.7.024-1.399.024-2.797 0-1.543.03-2.327.058-3.085.026-.692.05-1.346.05-2.692 0-1.59.048-2.435.09-3.18.04-.698.072-1.3.072-2.597 0-1.51.02-2.279.038-3.02.017-.69.034-1.38.034-2.759 0-1.395-.012-2.093-.025-2.79-.014-.747-.028-1.494-.028-2.987 0-1.245-.044-1.823-.095-2.492-.058-.77-.125-1.642-.125-3.286l-.004-5.777c0-1.557.034-2.348.067-3.114.03-.685.057-1.332.057-2.664 0-1.383-.016-2.073-.032-2.765-.019-.753-.036-1.507-.036-3.013 0-1.5.016-2.25.032-3 .015-.695.03-1.39.03-2.778 0-1.488.012-2.232.024-2.976.011-.7.023-1.401.023-2.803 0-1.346-.025-2-.05-2.693a69.909 69.909 0 0 1-.058-3.085c0-1.613.055-2.47.104-3.226.044-.685.082-1.276.082-2.552 0-1.403-.01-2.104-.022-2.805-.012-.743-.024-1.487-.024-2.973 0-1.436-.002-2.154-.005-2.872-.002-.727-.005-1.454-.005-2.907 0-1.257-.042-1.84-.09-2.515a39.586 39.586 0 0 1-.117-3.264c0-1.659.072-2.54.137-3.318.054-.66.1-1.23.1-2.46a28.46 28.46 0 0 0-.092-2.503 38.65 38.65 0 0 1-.12-3.275c0-1.51.019-2.277.037-3.02.017-.69.034-1.38.034-2.76 0-1.551.033-2.34.064-3.103.028-.688.055-1.338.055-2.675 0-1.455.002-2.182.005-2.91.003-.717.006-1.434.006-2.869 0-1.269-.04-1.857-.085-2.538-.052-.76-.11-1.62-.11-3.24 0-1.279-.037-1.871-.081-2.557a43.946 43.946 0 0 1-.103-3.222zm43.082 0c0-1.65.069-2.526.13-3.3a26.8 26.8 0 0 0 .097-2.48c0-1.356-.022-2.016-.045-2.714a76.954 76.954 0 0 1-.052-3.065c0-1.465.006-2.197.011-2.93.006-.712.011-1.424.011-2.848 0-1.337-.026-1.987-.055-2.675-.03-.763-.063-1.552-.063-3.104 0-1.551.032-2.34.063-3.102.028-.688.054-1.338.054-2.677 0-1.532.026-2.311.052-3.065.023-.697.045-1.356.045-2.713 0-1.553.033-2.342.064-3.106.03-.688.057-1.336.057-2.673 0-1.283-.038-1.877-.08-2.566-.046-.754-.1-1.607-.1-3.214 0-1.458.004-2.188.009-2.917.003-.715.007-1.43.007-2.861 0-1.362-.02-2.023-.043-2.723a81.975 81.975 0 0 1-.049-3.057c0-1.627.06-2.49.113-3.253.047-.678.088-1.263.088-2.526l.003-5.781c0-1.342-.026-1.995-.053-2.685a67.97 67.97 0 0 1-.06-3.093c0-1.41-.009-2.116-.019-2.821-.01-.74-.02-1.48-.02-2.96 0-1.44-.001-2.16-.003-2.88-.002-.725-.003-1.45-.003-2.901 0-1.584.045-2.425.084-3.167a41.62 41.62 0 0 0 .069-2.615c0-1.428-.005-2.143-.01-2.856a372.1 372.1 0 0 1-.01-2.926h21.853c0 1.428.005 2.142.01 2.856.004.731.009 1.463.009 2.926 0 1.583-.044 2.424-.083 3.166a41.63 41.63 0 0 0-.07 2.616c0 1.439.002 2.159.004 2.879.001.725.003 1.45.003 2.902 0 1.41.009 2.115.019 2.82.01.74.02 1.48.02 2.96 0 1.343.024 1.995.052 2.686.03.76.06 1.546.06 3.093l-.003 5.78c0 1.627-.06 2.491-.113 3.253-.047.678-.088 1.264-.088 2.527 0 1.361.021 2.023.044 2.723.024.751.049 1.528.049 3.057 0 1.458-.005 2.188-.008 2.917-.004.715-.008 1.43-.008 2.861 0 1.284.037 1.878.08 2.567.046.753.099 1.606.099 3.213a63.56 63.56 0 0 1-.065 3.107c-.028.687-.055 1.336-.055 2.672 0 1.533-.026 2.312-.052 3.066a69.177 69.177 0 0 0-.046 2.712c0 1.551-.032 2.34-.063 3.102a56.225 56.225 0 0 0-.054 2.677c0 1.337.027 1.987.055 2.674.032.763.064 1.553.064 3.105 0 1.465-.006 2.197-.012 2.93-.005.712-.01 1.424-.01 2.848 0 1.357.021 2.017.045 2.715.025.753.051 1.532.051 3.065 0 1.65-.068 2.526-.13 3.299-.05.665-.096 1.24-.096 2.48 0 1.278.038 1.87.081 2.556.048.755.103 1.611.103 3.222 0 1.27.04 1.857.085 2.538.052.76.11 1.62.11 3.241 0 1.455-.003 2.182-.006 2.91a656.11 656.11 0 0 0-.006 2.869c0 1.552-.032 2.34-.063 3.103a55.572 55.572 0 0 0-.055 2.675c0 1.51-.02 2.277-.038 3.02-.017.69-.034 1.38-.034 2.76 0 1.251.043 1.832.092 2.504.057.767.121 1.637.121 3.275 0 1.66-.072 2.54-.136 3.318a25.04 25.04 0 0 0-.101 2.46c0 1.257.041 1.84.09 2.514.055.765.117 1.632.117 3.264 0 1.436.002 2.154.005 2.872.002.726.005 1.453.005 2.907 0 1.402.01 2.103.022 2.804.012.743.024 1.487.024 2.974 0 1.613-.055 2.47-.104 3.226a33.25 33.25 0 0 0-.082 2.552c0 1.347.024 2.001.05 2.694.028.758.058 1.542.058 3.084 0 1.488-.013 2.232-.025 2.976-.011.7-.023 1.402-.023 2.803 0 1.5-.016 2.25-.032 3-.014.695-.03 1.39-.03 2.778 0 1.382.017 2.074.033 2.765.018.753.036 1.507.036 3.013 0 1.557-.034 2.348-.067 3.114-.03.685-.057 1.332-.057 2.664l.004 5.777c0 1.246.044 1.824.095 2.493.058.77.125 1.642.125 3.285 0 1.396.013 2.095.026 2.792.014.747.027 1.493.027 2.985 0 1.51-.019 2.278-.038 3.02a95.78 95.78 0 0 0-.034 2.759c0 1.59-.047 2.434-.089 3.18a39.188 39.188 0 0 0-.072 2.597c0 1.543-.03 2.327-.058 3.085-.026.692-.05 1.346-.05 2.692 0 1.49-.014 2.236-.027 2.98-.012.7-.025 1.4-.025 2.797 0 1.328.03 1.973.06 2.655.034.767.07 1.561.07 3.123 0 1.387.015 2.08.03 2.774.016.75.033 1.501.033 3.002 0 1.532-.026 2.31-.051 3.063a69.222 69.222 0 0 0-.045 2.714c0 1.23.046 1.8.1 2.46.065.778.138 1.66.138 3.319 0 1.67-.077 2.556-.145 3.339a23.868 23.868 0 0 0-.105 2.437c0 1.316.03 1.955.065 2.632.035.737.077 1.572.077 3.145 0 1.588-.047 2.431-.087 3.175-.039.699-.072 1.3-.072 2.601 0 1.288.035 1.884.077 2.576.045.75.096 1.601.096 3.203l-.004 5.776c0 1.332.028 1.978.058 2.663.032.765.067 1.556.067 3.112 0 1.68-.08 2.571-.151 3.358a22.41 22.41 0 0 0-.109 2.419c0 1.284.036 1.88.078 2.57.046.75.098 1.602.098 3.203v.005c0 1.59-.047 2.435-.089 3.181-.039.697-.073 1.298-.073 2.596 0 1.366.02 2.029.042 2.732.022.748.046 1.523.046 3.046 0 1.398.012 2.097.025 2.795.013.746.027 1.492.027 2.983 0 1.684-.082 2.579-.155 3.368-.062.673-.11 1.205-.11 2.41h-21.853c0-1.684.082-2.579.155-3.368.061-.673.11-1.205.11-2.41 0-1.397-.012-2.096-.025-2.795-.013-.746-.027-1.491-.027-2.983 0-1.365-.02-2.028-.04-2.73-.023-.75-.047-1.524-.047-3.048 0-1.59.047-2.435.089-3.18.04-.698.073-1.3.073-2.597a35.48 35.48 0 0 0-.079-2.57c-.045-.753-.097-1.604-.097-3.208 0-1.68.08-2.571.15-3.358.062-.676.11-1.21.11-2.419 0-1.33-.029-1.978-.058-2.663-.032-.764-.067-1.556-.067-3.112l.004-5.776c0-1.288-.036-1.885-.078-2.576-.044-.75-.096-1.601-.096-3.203 0-1.588.047-2.432.088-3.176.038-.698.071-1.3.071-2.6 0-1.316-.031-1.955-.064-2.632a55.818 55.818 0 0 1-.077-3.145c0-1.67.076-2.556.144-3.34.056-.653.105-1.218.105-2.436 0-1.23-.047-1.8-.101-2.46a35.227 35.227 0 0 1-.137-3.319c0-1.531.026-2.31.052-3.062.023-.698.045-1.357.045-2.715 0-1.386-.015-2.08-.03-2.773-.017-.75-.034-1.501-.034-3.003 0-1.327-.029-1.971-.06-2.654-.033-.768-.07-1.562-.07-3.124 0-1.49.014-2.235.027-2.98.012-.7.024-1.399.024-2.797 0-1.543.03-2.327.058-3.085.027-.692.051-1.346.051-2.692 0-1.59.047-2.435.09-3.18.038-.698.072-1.3.072-2.597 0-1.51.019-2.279.037-3.02a128.485 128.485 0 0 0 .009-5.55 137.56 137.56 0 0 1-.028-2.986c0-1.245-.044-1.823-.094-2.492a37.578 37.578 0 0 1-.125-3.286l-.005-5.777c0-1.557.035-2.348.067-3.114.03-.685.058-1.332.058-2.664 0-1.383-.016-2.073-.033-2.765-.018-.753-.036-1.507-.036-3.013 0-1.5.016-2.25.032-3 .015-.695.03-1.39.03-2.778 0-1.488.012-2.232.025-2.976.01-.7.022-1.401.022-2.803 0-1.346-.024-2-.05-2.693a70.458 70.458 0 0 1-.058-3.085c0-1.613.056-2.47.104-3.226.045-.685.082-1.276.082-2.552 0-1.403-.01-2.104-.022-2.805-.012-.743-.024-1.487-.024-2.973 0-1.436-.002-2.154-.005-2.872-.002-.727-.005-1.454-.005-2.907 0-1.257-.041-1.84-.09-2.515a39.586 39.586 0 0 1-.117-3.264c0-1.659.073-2.54.137-3.318.054-.66.1-1.23.1-2.46 0-1.252-.042-1.832-.091-2.503a38.643 38.643 0 0 1-.121-3.275c0-1.51.019-2.277.037-3.02.017-.69.034-1.38.034-2.76 0-1.551.033-2.34.064-3.103.028-.688.055-1.338.055-2.675 0-1.455.003-2.182.006-2.91.003-.717.005-1.434.005-2.869 0-1.269-.04-1.857-.085-2.538-.051-.76-.11-1.62-.11-3.24 0-1.279-.037-1.871-.08-2.557a43.458 43.458 0 0 1-.104-3.222zm42.424 0c0-1.65.069-2.526.13-3.3a26.8 26.8 0 0 0 .096-2.48c0-1.356-.021-2.016-.045-2.714-.025-.753-.051-1.532-.051-3.065 0-1.465.005-2.197.01-2.93.007-.712.012-1.424.012-2.848 0-1.337-.026-1.987-.055-2.675-.031-.763-.064-1.552-.064-3.104 0-1.551.032-2.34.063-3.102.028-.688.055-1.338.055-2.677 0-1.532.026-2.311.052-3.065.023-.697.045-1.356.045-2.713 0-1.553.033-2.342.064-3.106a54.63 54.63 0 0 0 .056-2.673 34.67 34.67 0 0 0-.08-2.566c-.046-.754-.099-1.607-.099-3.214 0-1.458.004-2.188.008-2.917.004-.715.008-1.43.008-2.861 0-1.362-.021-2.023-.044-2.723a81.975 81.975 0 0 1-.048-3.057c0-1.627.06-2.49.113-3.253.047-.678.087-1.263.087-2.526l.004-5.781c0-1.342-.026-1.995-.053-2.685a67.97 67.97 0 0 1-.06-3.093c0-1.41-.01-2.116-.02-2.821-.009-.74-.019-1.48-.019-2.96 0-1.44-.001-2.16-.003-2.88-.002-.725-.003-1.45-.003-2.901 0-1.584.044-2.425.083-3.167.037-.702.07-1.308.07-2.615 0-1.428-.005-2.143-.01-2.856a372.1 372.1 0 0 1-.01-2.926h21.853c0 1.428.004 2.142.01 2.856.004.731.009 1.463.009 2.926 0 1.583-.045 2.424-.084 3.166-.037.703-.069 1.308-.069 2.616 0 1.439.002 2.159.003 2.879.002.725.003 1.45.003 2.902 0 1.41.01 2.115.02 2.82.01.74.019 1.48.019 2.96 0 1.343.025 1.995.052 2.686.03.76.061 1.546.061 3.093l-.003 5.78c0 1.627-.06 2.491-.113 3.253-.047.678-.088 1.264-.088 2.527 0 1.361.021 2.023.043 2.723.025.751.05 1.528.05 3.057 0 1.458-.005 2.188-.009 2.917-.003.715-.007 1.43-.007 2.861 0 1.284.037 1.878.079 2.567a45 45 0 0 1 .1 3.213 64.3 64.3 0 0 1-.065 3.107 54.757 54.757 0 0 0-.055 2.672c0 1.533-.027 2.312-.052 3.066a68.071 68.071 0 0 0-.046 2.712c0 1.551-.032 2.34-.063 3.102a56.225 56.225 0 0 0-.054 2.677c0 1.337.026 1.987.055 2.674.031.763.064 1.553.064 3.105 0 1.465-.006 2.197-.012 2.93a298.14 298.14 0 0 0-.011 2.848c0 1.357.022 2.017.046 2.715.025.753.051 1.532.051 3.065 0 1.65-.068 2.526-.13 3.299-.051.665-.097 1.24-.097 2.48 0 1.278.038 1.87.082 2.556.048.755.103 1.611.103 3.222 0 1.27.04 1.857.085 2.538.051.76.11 1.62.11 3.241 0 1.455-.003 2.182-.007 2.91a656.11 656.11 0 0 0-.005 2.869c0 1.552-.033 2.34-.064 3.103-.027.688-.054 1.338-.054 2.675 0 1.51-.02 2.277-.038 3.02-.017.69-.034 1.38-.034 2.76 0 1.251.043 1.832.092 2.504.057.767.12 1.637.12 3.275 0 1.66-.072 2.54-.135 3.318-.055.66-.102 1.23-.102 2.46 0 1.257.042 1.84.09 2.514.056.765.117 1.632.117 3.264 0 1.436.003 2.154.005 2.872.003.726.005 1.453.005 2.907 0 1.402.011 2.103.023 2.804.011.743.024 1.487.024 2.974 0 1.613-.055 2.47-.104 3.226a33.25 33.25 0 0 0-.083 2.552c0 1.347.025 2.001.05 2.694.029.758.058 1.542.058 3.084 0 1.488-.012 2.232-.024 2.976-.012.7-.023 1.402-.023 2.803 0 1.5-.016 2.25-.032 3-.015.695-.03 1.39-.03 2.778 0 1.382.017 2.074.033 2.765.018.753.036 1.507.036 3.013 0 1.557-.034 2.348-.067 3.114a51.93 51.93 0 0 0-.058 2.664l.005 5.777c0 1.246.044 1.824.095 2.493.058.77.125 1.642.125 3.285 0 1.396.012 2.095.025 2.792.014.747.028 1.493.028 2.985 0 1.51-.02 2.278-.038 3.02a95.78 95.78 0 0 0-.034 2.759c0 1.59-.047 2.434-.09 3.18-.038.696-.072 1.298-.072 2.597 0 1.543-.029 2.327-.057 3.085-.026.692-.051 1.346-.051 2.692 0 1.49-.014 2.236-.027 2.98-.012.7-.024 1.4-.024 2.797 0 1.328.029 1.973.06 2.655.033.767.07 1.561.07 3.123 0 1.387.015 2.08.03 2.774.016.75.033 1.501.033 3.002 0 1.532-.026 2.31-.052 3.063a69.22 69.22 0 0 0-.045 2.714c0 1.23.047 1.8.101 2.46.064.778.137 1.66.137 3.319 0 1.67-.076 2.556-.145 3.339a24.07 24.07 0 0 0-.104 2.437c0 1.316.03 1.955.065 2.632.035.737.077 1.572.077 3.145 0 1.588-.047 2.431-.088 3.175-.038.699-.072 1.3-.072 2.601 0 1.288.036 1.884.078 2.576.044.75.096 1.601.096 3.203l-.004 5.776c0 1.332.028 1.978.057 2.663.033.765.068 1.556.068 3.112 0 1.68-.081 2.571-.152 3.358-.06.676-.108 1.21-.108 2.419 0 1.284.036 1.88.078 2.57.046.75.098 1.602.098 3.203v.005c0 1.59-.047 2.435-.089 3.181a39.087 39.087 0 0 0-.073 2.596c0 1.366.02 2.029.041 2.732.023.748.046 1.523.046 3.046 0 1.398.013 2.097.025 2.795.014.746.027 1.492.027 2.983 0 1.684-.082 2.579-.154 3.368-.062.673-.11 1.205-.11 2.41h-21.853c0-1.684.082-2.579.155-3.368.061-.673.11-1.205.11-2.41 0-1.397-.013-2.096-.025-2.795-.014-.746-.027-1.491-.027-2.983 0-1.365-.02-2.028-.041-2.73-.023-.75-.047-1.524-.047-3.048 0-1.59.048-2.435.09-3.18.039-.698.072-1.3.072-2.597a35.6 35.6 0 0 0-.078-2.57 45.667 45.667 0 0 1-.098-3.208c0-1.68.08-2.571.151-3.358.061-.676.11-1.21.11-2.419 0-1.33-.03-1.978-.058-2.663a62.207 62.207 0 0 1-.067-3.112l.003-5.776a35.91 35.91 0 0 0-.077-2.576 46.64 46.64 0 0 1-.096-3.203c0-1.588.047-2.432.088-3.176.038-.698.07-1.3.07-2.6 0-1.316-.03-1.955-.064-2.632-.036-.737-.077-1.572-.077-3.145 0-1.67.076-2.556.144-3.34a23.67 23.67 0 0 0 .105-2.436c0-1.23-.046-1.8-.1-2.46a35.227 35.227 0 0 1-.137-3.319c0-1.531.026-2.31.051-3.062.023-.698.045-1.357.045-2.715 0-1.386-.015-2.08-.03-2.773-.016-.75-.033-1.501-.033-3.003 0-1.327-.029-1.971-.06-2.654-.034-.768-.07-1.562-.07-3.124 0-1.49.014-2.235.026-2.98.013-.7.025-1.399.025-2.797 0-1.543.03-2.327.058-3.085.026-.692.051-1.346.051-2.692 0-1.59.047-2.435.089-3.18.04-.698.072-1.3.072-2.597 0-1.51.02-2.279.038-3.02a128.37 128.37 0 0 0 .009-5.549c-.014-.747-.028-1.494-.028-2.987 0-1.245-.044-1.823-.095-2.492-.058-.77-.124-1.642-.124-3.286l-.005-5.777c0-1.557.034-2.348.067-3.114.03-.685.057-1.332.057-2.664 0-1.383-.016-2.073-.032-2.765a108.59 108.59 0 0 1-.036-3.013c0-1.5.016-2.25.032-3 .014-.695.03-1.39.03-2.778 0-1.488.012-2.232.024-2.976.011-.7.023-1.401.023-2.803 0-1.346-.025-2-.05-2.693a70.457 70.457 0 0 1-.058-3.085c0-1.613.055-2.47.104-3.226a33.3 33.3 0 0 0 .082-2.552c0-1.403-.011-2.104-.022-2.805-.012-.743-.024-1.487-.024-2.973 0-1.436-.002-2.154-.005-2.872-.002-.727-.005-1.454-.005-2.907 0-1.257-.042-1.84-.09-2.515a39.64 39.64 0 0 1-.117-3.264c0-1.659.073-2.54.136-3.318.055-.66.101-1.23.101-2.46a28.46 28.46 0 0 0-.092-2.503c-.056-.768-.12-1.638-.12-3.275 0-1.51.019-2.277.037-3.02.017-.69.034-1.38.034-2.76 0-1.551.033-2.34.064-3.103.028-.688.055-1.338.055-2.675 0-1.455.002-2.182.005-2.91.003-.717.006-1.434.006-2.869 0-1.269-.04-1.857-.085-2.538-.052-.76-.11-1.62-.11-3.24 0-1.279-.037-1.871-.08-2.557a43.946 43.946 0 0 1-.104-3.222zm43.083 0c0-1.65.068-2.526.13-3.3a26.8 26.8 0 0 0 .096-2.48c0-1.356-.022-2.016-.045-2.714a78.109 78.109 0 0 1-.052-3.065c0-1.465.006-2.197.011-2.93.006-.712.012-1.424.012-2.848 0-1.337-.027-1.987-.056-2.675-.03-.763-.063-1.552-.063-3.104 0-1.551.032-2.34.063-3.102.028-.688.054-1.338.054-2.677 0-1.532.026-2.311.052-3.065a68.07 68.07 0 0 0 .045-2.713c0-1.553.033-2.342.065-3.106.029-.688.055-1.336.055-2.673 0-1.283-.037-1.877-.079-2.566-.046-.754-.1-1.607-.1-3.214 0-1.458.004-2.188.008-2.917.004-.715.008-1.43.008-2.861 0-1.362-.021-2.023-.044-2.723-.023-.752-.048-1.529-.048-3.057 0-1.627.06-2.49.113-3.253.047-.678.088-1.263.088-2.526l.003-5.781c0-1.342-.026-1.995-.052-2.685a67.97 67.97 0 0 1-.06-3.093c0-1.41-.01-2.116-.02-2.821-.01-.74-.02-1.48-.02-2.96 0-1.44-.001-2.16-.003-2.88-.001-.725-.003-1.45-.003-2.901 0-1.584.044-2.425.084-3.167.036-.702.069-1.308.069-2.615 0-1.428-.005-2.143-.01-2.856a367.04 367.04 0 0 1-.01-2.926h21.853c0 1.428.005 2.142.01 2.856.004.731.01 1.463.01 2.926 0 1.583-.045 2.424-.084 3.166a41.63 41.63 0 0 0-.07 2.616c0 1.439.002 2.159.004 2.879.001.725.003 1.45.003 2.902 0 1.41.009 2.115.019 2.82.01.74.02 1.48.02 2.96 0 1.343.025 1.995.052 2.686.03.76.06 1.546.06 3.093l-.003 5.78c0 1.627-.06 2.491-.113 3.253-.047.678-.088 1.264-.088 2.527 0 1.361.021 2.023.044 2.723.024.751.048 1.528.048 3.057 0 1.458-.004 2.188-.008 2.917-.003.715-.007 1.43-.007 2.861 0 1.284.037 1.878.08 2.567.046.753.099 1.606.099 3.213a63.56 63.56 0 0 1-.065 3.107c-.028.687-.055 1.336-.055 2.672 0 1.533-.026 2.312-.052 3.066a69.177 69.177 0 0 0-.045 2.712c0 1.551-.033 2.34-.064 3.102-.027.688-.054 1.339-.054 2.677 0 1.337.027 1.987.055 2.674.031.763.064 1.553.064 3.105 0 1.465-.006 2.197-.012 2.93-.005.712-.01 1.424-.01 2.848 0 1.357.021 2.017.045 2.715.025.753.051 1.532.051 3.065 0 1.65-.068 2.526-.13 3.299-.051.665-.096 1.24-.096 2.48 0 1.278.037 1.87.081 2.556.049.755.103 1.611.103 3.222 0 1.27.04 1.857.085 2.538.052.76.11 1.62.11 3.241 0 1.455-.003 2.182-.007 2.91-.002.717-.004 1.434-.004 2.869 0 1.552-.034 2.34-.065 3.103-.027.688-.054 1.338-.054 2.675 0 1.51-.02 2.277-.037 3.02-.017.69-.035 1.38-.035 2.76 0 1.251.043 1.832.092 2.504.057.767.121 1.637.121 3.275 0 1.66-.073 2.54-.136 3.318-.055.66-.102 1.23-.102 2.46 0 1.257.043 1.84.09 2.514.056.765.118 1.632.118 3.264 0 1.436.002 2.154.004 2.872.003.726.005 1.453.005 2.907 0 1.402.012 2.103.023 2.804.012.743.024 1.487.024 2.974 0 1.613-.055 2.47-.104 3.226a33.25 33.25 0 0 0-.083 2.552c0 1.347.025 2.001.051 2.694.028.758.058 1.542.058 3.084 0 1.488-.013 2.232-.025 2.976-.011.7-.023 1.402-.023 2.803 0 1.5-.016 2.25-.032 3-.014.695-.03 1.39-.03 2.778 0 1.382.017 2.074.033 2.765.018.753.036 1.507.036 3.013 0 1.557-.034 2.348-.067 3.114-.03.685-.057 1.332-.057 2.664l.004 5.777c0 1.246.044 1.824.095 2.493.058.77.125 1.642.125 3.285 0 1.396.013 2.095.026 2.792.014.747.028 1.493.028 2.985 0 1.51-.02 2.278-.039 3.02-.017.69-.034 1.38-.034 2.759 0 1.59-.047 2.434-.089 3.18-.038.696-.072 1.298-.072 2.597 0 1.543-.03 2.327-.058 3.085a60.129 60.129 0 0 0-.051 2.692c0 1.49-.013 2.236-.026 2.98-.013.7-.025 1.4-.025 2.797 0 1.328.029 1.973.06 2.655.034.767.07 1.561.07 3.123 0 1.387.015 2.08.03 2.774.017.75.033 1.501.033 3.002 0 1.532-.026 2.31-.051 3.063-.023.698-.045 1.357-.045 2.714 0 1.23.046 1.8.101 2.46.064.778.136 1.66.136 3.319 0 1.67-.076 2.556-.144 3.339a23.707 23.707 0 0 0-.105 2.437c0 1.316.031 1.955.065 2.632.035.737.077 1.572.077 3.145 0 1.588-.047 2.431-.088 3.175-.038.699-.071 1.3-.071 2.601 0 1.288.035 1.884.077 2.576.045.75.096 1.601.096 3.203l-.004 5.776c0 1.332.028 1.978.058 2.663.033.765.067 1.556.067 3.112 0 1.68-.08 2.571-.151 3.358a22.41 22.41 0 0 0-.109 2.419c0 1.284.036 1.88.078 2.57.046.75.098 1.602.098 3.203v.005c0 1.59-.047 2.435-.089 3.181a39.087 39.087 0 0 0-.073 2.596c0 1.366.02 2.029.042 2.732.022.748.046 1.523.046 3.046 0 1.398.012 2.097.025 2.795.013.746.027 1.492.027 2.983 0 1.684-.082 2.579-.155 3.368-.062.673-.11 1.205-.11 2.41H400.13c0-1.684.082-2.579.155-3.368.062-.673.11-1.205.11-2.41 0-1.397-.012-2.096-.025-2.795-.014-.746-.027-1.491-.027-2.983 0-1.365-.02-2.028-.04-2.73a86.224 86.224 0 0 1-.047-3.048c0-1.59.048-2.435.089-3.18.039-.698.073-1.3.073-2.597 0-1.285-.037-1.881-.079-2.57a45.742 45.742 0 0 1-.097-3.208c0-1.68.08-2.571.15-3.358.062-.676.11-1.21.11-2.419 0-1.33-.029-1.978-.058-2.663a62.207 62.207 0 0 1-.067-3.112l.004-5.776c0-1.288-.036-1.885-.077-2.576-.045-.75-.097-1.601-.097-3.203 0-1.588.047-2.432.088-3.176.038-.698.071-1.3.071-2.6 0-1.316-.032-1.955-.065-2.632-.036-.737-.077-1.572-.077-3.145 0-1.67.077-2.556.145-3.34.056-.653.105-1.218.105-2.436 0-1.23-.047-1.8-.101-2.46-.064-.777-.137-1.659-.137-3.319 0-1.531.026-2.31.051-3.062a69.22 69.22 0 0 0 .046-2.715c0-1.386-.016-2.08-.03-2.773-.017-.75-.034-1.501-.034-3.003 0-1.327-.029-1.971-.06-2.654-.033-.768-.07-1.562-.07-3.124 0-1.49.014-2.235.027-2.98.012-.7.025-1.399.025-2.797 0-1.543.03-2.327.057-3.085.027-.692.052-1.346.052-2.692 0-1.59.047-2.435.088-3.18.04-.698.072-1.3.072-2.597 0-1.51.02-2.279.039-3.02.017-.69.034-1.38.034-2.759 0-1.395-.013-2.093-.026-2.79-.014-.747-.028-1.494-.028-2.987 0-1.245-.044-1.823-.095-2.492-.058-.77-.124-1.642-.124-3.286l-.004-5.777c0-1.557.034-2.348.066-3.114.03-.685.058-1.332.058-2.664 0-1.383-.016-2.073-.033-2.765-.018-.753-.036-1.507-.036-3.013 0-1.5.016-2.25.032-3 .015-.695.03-1.39.03-2.778 0-1.488.012-2.232.024-2.976.011-.7.023-1.401.023-2.803 0-1.346-.024-2-.05-2.693-.028-.758-.058-1.542-.058-3.085 0-1.613.055-2.47.104-3.226.044-.685.083-1.276.083-2.552 0-1.403-.012-2.104-.023-2.805-.011-.743-.024-1.487-.024-2.973 0-1.436-.002-2.154-.005-2.872-.002-.727-.004-1.454-.004-2.907 0-1.257-.043-1.84-.09-2.515a39.586 39.586 0 0 1-.118-3.264c0-1.659.073-2.54.137-3.318.054-.66.101-1.23.101-2.46 0-1.252-.043-1.832-.092-2.503a38.65 38.65 0 0 1-.121-3.275c0-1.51.019-2.277.037-3.02.017-.69.034-1.38.034-2.76 0-1.551.033-2.34.064-3.103a55.61 55.61 0 0 0 .055-2.675c0-1.455.002-2.182.006-2.91.002-.717.005-1.434.005-2.869 0-1.269-.04-1.857-.085-2.538-.051-.76-.11-1.62-.11-3.24 0-1.279-.037-1.871-.08-2.557a43.608 43.608 0 0 1-.103-3.222zm43.082 0c0-1.65.068-2.526.13-3.3.051-.664.096-1.24.096-2.48a68.16 68.16 0 0 0-.045-2.714c-.025-.753-.052-1.532-.052-3.065 0-1.465.006-2.197.011-2.93.007-.712.012-1.424.012-2.848 0-1.337-.027-1.987-.055-2.675-.031-.763-.064-1.552-.064-3.104 0-1.551.032-2.34.063-3.102.028-.688.054-1.338.054-2.677 0-1.532.027-2.311.052-3.065.024-.697.046-1.356.046-2.713a64.3 64.3 0 0 1 .064-3.106c.029-.688.056-1.336.056-2.673a34.67 34.67 0 0 0-.08-2.566c-.046-.754-.1-1.607-.1-3.214 0-1.458.004-2.188.009-2.917.003-.715.008-1.43.008-2.861 0-1.362-.022-2.023-.044-2.723a81.976 81.976 0 0 1-.049-3.057c0-1.627.06-2.49.113-3.253.047-.678.088-1.263.088-2.526l.003-5.781c0-1.342-.025-1.995-.052-2.685a67.97 67.97 0 0 1-.06-3.093c0-1.41-.01-2.116-.02-2.821-.01-.74-.02-1.48-.02-2.96 0-1.44 0-2.16-.003-2.88-.001-.725-.003-1.45-.003-2.901 0-1.584.045-2.425.084-3.167a41.62 41.62 0 0 0 .069-2.615c0-1.428-.005-2.143-.01-2.856a372.15 372.15 0 0 1-.01-2.926h21.853c0 1.428.005 2.142.01 2.856.005.731.01 1.463.01 2.926 0 1.583-.045 2.424-.084 3.166-.037.703-.07 1.308-.07 2.616 0 1.439.003 2.159.004 2.879.002.725.003 1.45.003 2.902 0 1.41.01 2.115.019 2.82.01.74.02 1.48.02 2.96 0 1.343.025 1.995.052 2.686.03.76.06 1.546.06 3.093l-.003 5.78c0 1.627-.06 2.491-.113 3.253a30.823 30.823 0 0 0-.087 2.527c0 1.361.02 2.023.043 2.723.024.751.049 1.528.049 3.057 0 1.458-.005 2.188-.008 2.917-.004.715-.008 1.43-.008 2.861 0 1.284.037 1.878.08 2.567.046.753.1 1.606.1 3.213a64.3 64.3 0 0 1-.065 3.107 54.757 54.757 0 0 0-.056 2.672c0 1.533-.026 2.312-.052 3.066a68.07 68.07 0 0 0-.045 2.712c0 1.551-.033 2.34-.064 3.102-.027.688-.054 1.339-.054 2.677 0 1.337.027 1.987.056 2.674.03.763.063 1.553.063 3.105 0 1.465-.005 2.197-.011 2.93a298.14 298.14 0 0 0-.011 2.848c0 1.357.022 2.017.045 2.715.025.753.052 1.532.052 3.065 0 1.65-.069 2.526-.13 3.299-.052.665-.097 1.24-.097 2.48 0 1.278.038 1.87.082 2.556.048.755.103 1.611.103 3.222 0 1.27.04 1.857.084 2.538.052.76.11 1.62.11 3.241 0 1.455-.003 2.182-.006 2.91a656.15 656.15 0 0 0-.005 2.869c0 1.552-.033 2.34-.064 3.103-.028.688-.055 1.338-.055 2.675 0 1.51-.019 2.277-.037 3.02-.017.69-.034 1.38-.034 2.76 0 1.251.042 1.832.091 2.504.057.767.122 1.637.122 3.275 0 1.66-.073 2.54-.137 3.318-.054.66-.101 1.23-.101 2.46 0 1.257.042 1.84.09 2.514.055.765.117 1.632.117 3.264 0 1.436.002 2.154.005 2.872.002.726.005 1.453.005 2.907 0 1.402.011 2.103.022 2.804.012.743.025 1.487.025 2.974 0 1.613-.056 2.47-.104 3.226a33.25 33.25 0 0 0-.083 2.552c0 1.347.025 2.001.05 2.694.029.758.058 1.542.058 3.084 0 1.488-.012 2.232-.025 2.976-.011.7-.022 1.402-.022 2.803 0 1.5-.017 2.25-.033 3-.014.695-.029 1.39-.029 2.778 0 1.382.017 2.074.032 2.765.018.753.037 1.507.037 3.013 0 1.557-.035 2.348-.068 3.114-.03.685-.057 1.332-.057 2.664l.005 5.777c0 1.246.044 1.824.094 2.493.059.77.125 1.642.125 3.285 0 1.396.013 2.095.026 2.792.014.747.028 1.493.028 2.985 0 1.51-.02 2.278-.039 3.02a95.78 95.78 0 0 0-.034 2.759c0 1.59-.047 2.434-.088 3.18-.039.696-.073 1.298-.073 2.597 0 1.543-.03 2.327-.058 3.085-.026.692-.05 1.346-.05 2.692 0 1.49-.014 2.236-.027 2.98-.012.7-.025 1.4-.025 2.797 0 1.328.03 1.973.06 2.655.034.767.07 1.561.07 3.123 0 1.387.015 2.08.03 2.774.017.75.033 1.501.033 3.002 0 1.532-.026 2.31-.05 3.063a69.22 69.22 0 0 0-.046 2.714c0 1.23.046 1.8.101 2.46.064.778.137 1.66.137 3.319 0 1.67-.077 2.556-.145 3.339-.056.654-.105 1.219-.105 2.437 0 1.316.031 1.955.065 2.632.036.737.077 1.572.077 3.145 0 1.588-.046 2.431-.087 3.175-.039.699-.072 1.3-.072 2.601 0 1.288.036 1.884.077 2.576.045.75.097 1.601.097 3.203l-.004 5.776c0 1.332.028 1.978.057 2.663.033.765.067 1.556.067 3.112 0 1.68-.08 2.571-.15 3.358-.062.676-.11 1.21-.11 2.419 0 1.284.037 1.88.079 2.57.046.75.097 1.602.097 3.203v.005c0 1.59-.047 2.435-.088 3.181a39.088 39.088 0 0 0-.073 2.596c0 1.366.02 2.029.041 2.732.023.748.046 1.523.046 3.046 0 1.398.013 2.097.025 2.795.014.746.027 1.492.027 2.983 0 1.684-.082 2.579-.155 3.368-.062.673-.11 1.205-.11 2.41h-21.852c0-1.684.081-2.579.154-3.368.062-.673.11-1.205.11-2.41 0-1.397-.012-2.096-.025-2.795-.013-.746-.026-1.491-.026-2.983 0-1.365-.02-2.028-.042-2.73-.022-.75-.046-1.524-.046-3.048 0-1.59.048-2.435.09-3.18.038-.698.072-1.3.072-2.597a35.6 35.6 0 0 0-.078-2.57 45.667 45.667 0 0 1-.098-3.208c0-1.68.08-2.571.15-3.358.062-.676.11-1.21.11-2.419 0-1.33-.028-1.978-.058-2.663-.032-.764-.067-1.556-.067-3.112l.004-5.776c0-1.288-.036-1.885-.077-2.576a46.423 46.423 0 0 1-.096-3.203c0-1.588.046-2.432.088-3.176.037-.698.07-1.3.07-2.6 0-1.316-.031-1.955-.064-2.632-.036-.737-.077-1.572-.077-3.145 0-1.67.076-2.556.144-3.34a23.67 23.67 0 0 0 .105-2.436c0-1.23-.046-1.8-.1-2.46a34.787 34.787 0 0 1-.138-3.319c0-1.531.027-2.31.052-3.062.023-.698.045-1.357.045-2.715 0-1.386-.015-2.08-.03-2.773-.017-.75-.033-1.501-.033-3.003 0-1.327-.03-1.971-.06-2.654-.034-.768-.07-1.562-.07-3.124 0-1.49.013-2.235.026-2.98.013-.7.025-1.399.025-2.797 0-1.543.03-2.327.058-3.085.026-.692.05-1.346.05-2.692 0-1.59.048-2.435.09-3.18.039-.698.072-1.3.072-2.597 0-1.51.02-2.279.038-3.02.017-.69.034-1.38.034-2.759 0-1.395-.013-2.093-.025-2.79a137.56 137.56 0 0 1-.028-2.987c0-1.245-.044-1.823-.095-2.492-.058-.77-.125-1.642-.125-3.286l-.004-5.777c0-1.557.034-2.348.066-3.114.03-.685.058-1.332.058-2.664 0-1.383-.016-2.073-.033-2.765a108.59 108.59 0 0 1-.036-3.013c0-1.5.016-2.25.033-3 .014-.695.03-1.39.03-2.778 0-1.488.011-2.232.024-2.976.011-.7.023-1.401.023-2.803 0-1.346-.025-2-.05-2.693a70.458 70.458 0 0 1-.058-3.085c0-1.613.055-2.47.103-3.226a32.96 32.96 0 0 0 .083-2.552c0-1.403-.011-2.104-.023-2.805-.011-.743-.024-1.487-.024-2.973 0-1.436-.002-2.154-.004-2.872-.003-.727-.005-1.454-.005-2.907 0-1.257-.042-1.84-.09-2.515a39.64 39.64 0 0 1-.117-3.264c0-1.659.072-2.54.136-3.318.054-.66.101-1.23.101-2.46a28.46 28.46 0 0 0-.092-2.503 38.65 38.65 0 0 1-.12-3.275c0-1.51.018-2.277.036-3.02.018-.69.035-1.38.035-2.76 0-1.551.033-2.34.064-3.103.027-.688.054-1.338.054-2.675 0-1.455.003-2.182.006-2.91.003-.717.005-1.434.005-2.869 0-1.269-.04-1.857-.085-2.538-.051-.76-.11-1.62-.11-3.24 0-1.279-.036-1.871-.08-2.557a43.946 43.946 0 0 1-.103-3.222z" fill="#E4AF69"/><path fill="#D33837" d="M-5.716 358.655H482.41v-64.933H-5.716z"/><path fill="#C12F32" d="M-5.183 358.655h488.126v-51.786H-5.183z"/><path fill="#DE4F4D" d="M-5.716 293.722H482.41v-14.693H-5.716z"/><path fill="#E36868" d="M-5.716 281.335H482.41v-2.104H-5.716z"/><path fill="#C9A96A" d="M239.307 179.17h121.336V22.152H239.307z"/><path fill="#F7DDA6" d="M239.307 175.17h121.336V18.15H239.307z"/><path d="M297.553 94.21c0-1.88.007-1.88.007-3.759s-.1-1.879-.1-3.757c0-1.88.005-1.88.005-3.76 0-1.878.036-1.878.036-3.757 0-1.88-.017-1.88-.017-3.759 0-1.88.004-1.88.004-3.76 0-1.879-.012-1.879-.012-3.759s.029-1.88.029-3.758c0-1.88.078-1.88.078-3.76s-.094-1.88-.094-3.76v-3.76c0-1.88.095-1.88.095-3.758 0-1.88-.102-1.88-.102-3.76 0-1.879-.015-1.879-.015-3.758 0-1.88.048-1.88.048-3.76 0-1.881-.003-1.881-.003-3.762 0-1.88-.007-1.88-.007-3.76s-.034-1.88-.034-3.763c0-1.88.056-1.88.056-3.762l-.036-.076c-1.885 0-1.885.04-3.77.04-1.884 0-1.884.076-3.768.076-1.885 0-1.885-.003-3.77-.003-1.884 0-1.884-.036-3.769-.036-1.885 0-1.885-.057-3.77-.057-1.884 0-1.884.01-3.77.01-1.884 0-1.884.038-3.768.038s-1.884.002-3.769.002c-1.884 0-1.884.044-3.769.044h-3.77c-1.885 0-1.885-.008-3.771-.008-1.885 0-1.885-.041-3.77-.041-1.886 0-1.886-.01-3.773-.01-1.886 0-1.886.056-3.773.056l-.035-.035c0 1.88.027 1.88.027 3.758 0 1.879.038 1.879.038 3.758 0 1.88-.004 1.88-.004 3.759 0 1.878-.029 1.878-.029 3.757 0 1.88-.04 1.88-.04 3.76s-.044 1.88-.044 3.76c0 1.878.12 1.878.12 3.758 0 1.88-.117 1.88-.117 3.759 0 1.88.009 1.88.009 3.76s.032 1.88.032 3.76c0 1.879.08 1.879.08 3.759s-.124 1.88-.124 3.759c0 1.88.034 1.88.034 3.759s.068 1.879.068 3.759-.038 1.88-.038 3.76.042 1.88.042 3.76c0 1.881-.005 1.881-.005 3.76 0 1.882-.08 1.882-.08 3.764 0 1.88.07 1.88.07 3.762l-.004.011c1.885 0 1.885-.014 3.77-.014s1.885.05 3.769.05c1.884 0 1.884-.023 3.769-.023 1.885 0 1.885.043 3.77.043s1.885.017 3.77.017c1.884 0 1.884-.12 3.769-.12 1.884 0 1.884.096 3.769.096 1.884 0 1.884-.095 3.768-.095 1.885 0 1.885.01 3.77.01s1.885-.014 3.77-.014 1.885.094 3.77.094c1.886 0 1.886-.056 3.771-.056 1.886 0 1.886-.005 3.773-.005 1.886 0 1.886.062 3.772.062l.062-.056m57.755.001c0-1.88.019-1.88.019-3.759s-.012-1.879-.012-3.757c0-1.88-.107-1.88-.107-3.76 0-1.878.075-1.878.075-3.757 0-1.88-.047-1.88-.047-3.759 0-1.88.069-1.88.069-3.76 0-1.879.02-1.879.02-3.759s-.072-1.88-.072-3.758c0-1.88.007-1.88.007-3.76s.058-1.88.058-3.76-.102-1.88-.102-3.76.062-1.88.062-3.758c0-1.88.051-1.88.051-3.76 0-1.879-.015-1.879-.015-3.758 0-1.88-.085-1.88-.085-3.76 0-1.881.038-1.881.038-3.762 0-1.88.045-1.88.045-3.76s.018-1.88.018-3.763c0-1.88-.094-1.88-.094-3.762l.003-.07c-1.92 0-1.92.023-3.838.023-1.92 0-1.92-.016-3.838-.016l-3.838.002c-1.919 0-1.919.073-3.838.073-1.92 0-1.92-.04-3.839-.04s-1.919.004-3.838.004-1.919.036-3.838.036-1.919-.005-3.837-.005c-1.92 0-1.92-.063-3.838-.063-1.92 0-1.92-.002-3.838-.002-1.92 0-1.92.03-3.84.03s-1.92-.024-3.84-.024-1.92.01-3.84.01c-1.922 0-1.922-.026-3.842-.026l-.05.068c0 1.88.073 1.88.073 3.758 0 1.879-.032 1.879-.032 3.758 0 1.88-.012 1.88-.012 3.759 0 1.878-.07 1.878-.07 3.757 0 1.88.103 1.88.103 3.76s-.091 1.88-.091 3.76c0 1.878.058 1.878.058 3.758 0 1.88.03 1.88.03 3.759 0 1.88.025 1.88.025 3.76s-.047 1.88-.047 3.76c0 1.879-.03 1.879-.03 3.759s-.05 1.88-.05 3.759c0 1.88.04 1.88.04 3.759s-.004 1.879-.004 3.759-.003 1.88-.003 3.76l-.002 3.76c0 1.881.009 1.881.009 3.76 0 1.882-.004 1.882-.004 3.764 0 1.88.05 1.88.05 3.762l.007.06c1.919 0 1.919.004 3.838.004s1.919-.007 3.838-.007c1.918 0 1.918.019 3.837.019 1.92 0 1.92-.087 3.839-.087s1.919.04 3.838.04c1.92 0 1.92-.066 3.839-.066 1.918 0 1.918.038 3.837.038 1.92 0 1.92-.006 3.837-.006 1.92 0 1.92-.015 3.839-.015s1.919.07 3.838.07c1.92 0 1.92-.035 3.84-.035s1.92.031 3.839.031c1.92 0 1.92-.074 3.841-.074 1.921 0 1.921.082 3.842.082l.07-.054m-57.756 76.333c0-1.88.007-1.88.007-3.758 0-1.879-.1-1.879-.1-3.758 0-1.88.005-1.88.005-3.759s.036-1.879.036-3.758c0-1.88-.017-1.88-.017-3.758 0-1.88.004-1.88.004-3.76s-.012-1.88-.012-3.76c0-1.879.029-1.879.029-3.758 0-1.88.078-1.88.078-3.76s-.094-1.88-.094-3.76v-3.76c0-1.879.095-1.879.095-3.758 0-1.88-.102-1.88-.102-3.759 0-1.88-.015-1.88-.015-3.759 0-1.88.048-1.88.048-3.76s-.003-1.88-.003-3.761c0-1.88-.007-1.88-.007-3.76 0-1.881-.034-1.881-.034-3.763 0-1.881.056-1.881.056-3.762l-.036-.076c-1.885 0-1.885.039-3.77.039-1.884 0-1.884.077-3.768.077-1.885 0-1.885-.003-3.77-.003-1.884 0-1.884-.037-3.769-.037-1.885 0-1.885-.056-3.77-.056-1.884 0-1.884.009-3.77.009-1.884 0-1.884.039-3.768.039s-1.884.002-3.769.002c-1.884 0-1.884.044-3.769.044h-3.77c-1.885 0-1.885-.009-3.771-.009-1.885 0-1.885-.04-3.77-.04-1.886 0-1.886-.01-3.773-.01-1.886 0-1.886.056-3.773.056l-.035-.035c0 1.879.027 1.879.027 3.758 0 1.878.038 1.878.038 3.757 0 1.88-.004 1.88-.004 3.76 0 1.878-.029 1.878-.029 3.757 0 1.88-.04 1.88-.04 3.759 0 1.88-.044 1.88-.044 3.76 0 1.879.12 1.879.12 3.758 0 1.88-.117 1.88-.117 3.76s.009 1.88.009 3.76c0 1.879.032 1.879.032 3.76 0 1.878.08 1.878.08 3.758 0 1.88-.124 1.88-.124 3.76 0 1.879.034 1.879.034 3.758 0 1.88.068 1.88.068 3.76s-.038 1.88-.038 3.76.042 1.88.042 3.76-.005 1.88-.005 3.76c0 1.882-.08 1.882-.08 3.763 0 1.882.07 1.882.07 3.763l-.004.01c1.885 0 1.885-.013 3.77-.013s1.885.05 3.769.05c1.884 0 1.884-.023 3.769-.023 1.885 0 1.885.043 3.77.043s1.885.017 3.77.017c1.884 0 1.884-.12 3.769-.12 1.884 0 1.884.095 3.769.095 1.884 0 1.884-.094 3.768-.094 1.885 0 1.885.01 3.77.01s1.885-.014 3.77-.014 1.885.094 3.77.094c1.886 0 1.886-.056 3.771-.056 1.886 0 1.886-.006 3.773-.006 1.886 0 1.886.063 3.772.063l.062-.056m57.755 0c0-1.88.019-1.88.019-3.758 0-1.879-.012-1.879-.012-3.758 0-1.88-.107-1.88-.107-3.759s.075-1.879.075-3.758c0-1.88-.047-1.88-.047-3.758 0-1.88.069-1.88.069-3.76s.02-1.88.02-3.76c0-1.879-.072-1.879-.072-3.758 0-1.88.007-1.88.007-3.76s.058-1.88.058-3.76-.102-1.88-.102-3.76c0-1.879.062-1.879.062-3.758 0-1.88.051-1.88.051-3.759 0-1.88-.015-1.88-.015-3.759 0-1.88-.085-1.88-.085-3.76s.038-1.88.038-3.761c0-1.88.045-1.88.045-3.76 0-1.881.018-1.881.018-3.763 0-1.881-.094-1.881-.094-3.762l.003-.07c-1.92 0-1.92.023-3.838.023-1.92 0-1.92-.016-3.838-.016l-3.838.001c-1.919 0-1.919.074-3.838.074-1.92 0-1.92-.04-3.839-.04s-1.919.004-3.838.004-1.919.035-3.838.035-1.919-.004-3.837-.004c-1.92 0-1.92-.063-3.838-.063-1.92 0-1.92-.002-3.838-.002-1.92 0-1.92.029-3.84.029s-1.92-.024-3.84-.024-1.92.011-3.84.011c-1.922 0-1.922-.026-3.842-.026l-.05.068c0 1.879.073 1.879.073 3.758 0 1.878-.032 1.878-.032 3.757 0 1.88-.012 1.88-.012 3.76 0 1.878-.07 1.878-.07 3.757 0 1.88.103 1.88.103 3.759 0 1.88-.091 1.88-.091 3.76 0 1.879.058 1.879.058 3.758 0 1.88.03 1.88.03 3.76s.025 1.88.025 3.76c0 1.879-.047 1.879-.047 3.76 0 1.878-.03 1.878-.03 3.758 0 1.88-.05 1.88-.05 3.76 0 1.879.04 1.879.04 3.758 0 1.88-.004 1.88-.004 3.76s-.003 1.88-.003 3.76l-.002 3.76c0 1.88.009 1.88.009 3.76 0 1.882-.004 1.882-.004 3.763 0 1.882.05 1.882.05 3.763l.007.059c1.919 0 1.919.004 3.838.004s1.919-.007 3.838-.007c1.918 0 1.918.02 3.837.02 1.92 0 1.92-.088 3.839-.088s1.919.04 3.838.04c1.92 0 1.92-.065 3.839-.065 1.918 0 1.918.038 3.837.038 1.92 0 1.92-.006 3.837-.006 1.92 0 1.92-.016 3.839-.016s1.919.071 3.838.071c1.92 0 1.92-.035 3.84-.035s1.92.031 3.839.031c1.92 0 1.92-.074 3.841-.074 1.921 0 1.921.082 3.842.082l.07-.054" fill="#FCE9C1"/><path d="M297.552 94.21c0-1.859.007-1.859.007-3.719 0-1.86-.097-1.86-.097-3.72s.005-1.86.005-3.72.034-1.86.034-3.72c0-1.861-.016-1.861-.016-3.722 0-1.86.004-1.86.004-3.72s-.012-1.86-.012-3.72c0-1.861.028-1.861.028-3.722 0-1.86.076-1.86.076-3.722 0-1.86-.09-1.86-.09-3.72l-.001-3.721c0-1.86.091-1.86.091-3.721 0-1.86-.097-1.86-.097-3.72 0-1.861-.015-1.861-.015-3.722 0-1.862.046-1.862.046-3.723 0-1.86-.003-1.86-.003-3.722 0-1.862-.007-1.862-.007-3.724s-.032-1.862-.032-3.724l.018-.031c-1.759 0-1.759-.042-3.518-.042s-1.759.038-3.518.038-1.759.074-3.518.074c-1.758 0-1.758-.002-3.518-.002-1.758 0-1.758-.036-3.518-.036-1.759 0-1.759-.055-3.518-.055-1.76 0-1.76.01-3.518.01-1.76 0-1.76.037-3.518.037-1.76 0-1.76.002-3.518.002-1.759 0-1.759.042-3.518.042h-3.518c-1.76 0-1.76-.008-3.52-.008s-1.76-.04-3.519-.04c-1.76 0-1.76-.009-3.521-.009s-1.761.055-3.522.055l-.034-.035c0 1.86.026 1.86.026 3.719 0 1.86.036 1.86.036 3.72s-.003 1.86-.003 3.72-.029 1.86-.029 3.72c0 1.861-.039 1.861-.039 3.722 0 1.86-.043 1.86-.043 3.72 0 1.861.117 1.861.117 3.721s-.113 1.86-.113 3.721.008 1.861.008 3.722c0 1.86.031 1.86.031 3.721 0 1.86.078 1.86.078 3.72s-.12 1.86-.12 3.721c0 1.86.033 1.86.033 3.721 0 1.86.066 1.86.066 3.721 0 1.862-.038 1.862-.038 3.723 0 1.861.042 1.861.042 3.722 0 1.862-.005 1.862-.005 3.724 0 1.863-.077 1.863-.077 3.725l.064-.007c1.76 0 1.76.016 3.518.016 1.76 0 1.76-.013 3.518-.013 1.76 0 1.76.048 3.518.048 1.76 0 1.76-.022 3.518-.022 1.76 0 1.76.042 3.518.042 1.76 0 1.76.016 3.52.016 1.758 0 1.758-.116 3.517-.116 1.76 0 1.76.093 3.518.093 1.759 0 1.759-.092 3.518-.092 1.758 0 1.758.01 3.518.01 1.759 0 1.759-.014 3.518-.014 1.76 0 1.76.091 3.52.091s1.76-.054 3.519-.054c1.76 0 1.76-.006 3.521-.006 1.76 0 1.76.061 3.521.061l.061-.053m57.755-.001c0-1.859.018-1.859.018-3.719 0-1.86-.011-1.86-.011-3.72s-.104-1.86-.104-3.72.072-1.86.072-3.72c0-1.861-.045-1.861-.045-3.722 0-1.86.067-1.86.067-3.72s.019-1.86.019-3.72c0-1.861-.07-1.861-.07-3.722 0-1.86.007-1.86.007-3.722 0-1.86.057-1.86.057-3.72s-.1-1.86-.1-3.721c0-1.86.06-1.86.06-3.721 0-1.86.05-1.86.05-3.72 0-1.861-.015-1.861-.015-3.722 0-1.862-.081-1.862-.081-3.723 0-1.86.036-1.86.036-3.722 0-1.862.044-1.862.044-3.724s.017-1.862.017-3.724l-.09.007c-1.79 0-1.79-.074-3.581-.074s-1.791.022-3.582.022c-1.792 0-1.792-.015-3.583-.015l-3.581.001c-1.792 0-1.792.071-3.583.071-1.791 0-1.791-.038-3.583-.038-1.79 0-1.79.003-3.582.003-1.79 0-1.79.035-3.582.035-1.79 0-1.79-.005-3.582-.005-1.79 0-1.79-.06-3.581-.06-1.792 0-1.792-.002-3.583-.002-1.792 0-1.792.028-3.585.028-1.791 0-1.791-.023-3.582-.023-1.793 0-1.793.01-3.586.01s-1.793-.025-3.585-.025l-.05.065c0 1.86.071 1.86.071 3.719 0 1.86-.031 1.86-.031 3.72s-.012 1.86-.012 3.72-.068 1.86-.068 3.72c0 1.861.1 1.861.1 3.722 0 1.86-.087 1.86-.087 3.72 0 1.861.056 1.861.056 3.721s.029 1.86.029 3.721.025 1.861.025 3.722c0 1.86-.046 1.86-.046 3.721 0 1.86-.029 1.86-.029 3.72s-.05 1.86-.05 3.721c0 1.86.039 1.86.039 3.721 0 1.86-.003 1.86-.003 3.721 0 1.862-.003 1.862-.003 3.723l-.002 3.722c0 1.862.008 1.862.008 3.724 0 1.863-.004 1.863-.004 3.725l.057.002c1.79 0 1.79.054 3.582.054 1.79 0 1.79.005 3.582.005 1.791 0 1.791-.007 3.582-.007 1.79 0 1.79.018 3.582.018 1.791 0 1.791-.084 3.582-.084 1.792 0 1.792.038 3.583.038 1.791 0 1.791-.063 3.582-.063s1.791.037 3.582.037 1.791-.006 3.582-.006 1.791-.015 3.582-.015 1.791.069 3.583.069c1.792 0 1.792-.034 3.584-.034 1.791 0 1.791.03 3.583.03 1.793 0 1.793-.072 3.585-.072 1.793 0 1.793.08 3.586.08l.068-.052m-57.755 76.333c0-1.782.006-1.782.006-3.564 0-1.781-.096-1.781-.096-3.562 0-1.782.005-1.782.005-3.565 0-1.781.034-1.781.034-3.563 0-1.782-.016-1.782-.016-3.564s.004-1.782.004-3.565c0-1.782-.012-1.782-.012-3.564s.028-1.782.028-3.564.075-1.782.075-3.564c0-1.783-.09-1.783-.09-3.565v-3.565c0-1.782.091-1.782.091-3.564s-.097-1.782-.097-3.564-.015-1.782-.015-3.564c0-1.783.046-1.783.046-3.565 0-1.783-.003-1.783-.003-3.567 0-1.782-.007-1.782-.007-3.565 0-1.784-.032-1.784-.032-3.568 0-1.783.054-1.783.054-3.567l-.036-.072c-1.759 0-1.759.038-3.518.038s-1.759.073-3.518.073l-3.518-.002c-1.758 0-1.758-.036-3.518-.036-1.758 0-1.758-.054-3.518-.054-1.759 0-1.759.009-3.518.009-1.76 0-1.76.037-3.518.037-1.76 0-1.76.002-3.518.002-1.76 0-1.76.042-3.518.042h-3.518c-1.76 0-1.76-.007-3.518-.007-1.76 0-1.76-.04-3.52-.04s-1.76-.01-3.519-.01c-1.76 0-1.76.055-3.521.055s-1.761-.065-3.522-.065l-.008.03c0 1.781.036 1.781.036 3.563 0 1.782-.003 1.782-.003 3.563 0 1.782-.029 1.782-.029 3.564s-.039 1.782-.039 3.563c0 1.782-.043 1.782-.043 3.564 0 1.783.117 1.783.117 3.565s-.113 1.782-.113 3.564.009 1.782.009 3.564c0 1.783.03 1.783.03 3.565s.078 1.782.078 3.565c0 1.782-.12 1.782-.12 3.564s.033 1.782.033 3.564c0 1.783.065 1.783.065 3.565s-.037 1.782-.037 3.564.042 1.782.042 3.565-.005 1.783-.005 3.566-.077 1.783-.077 3.565c0 1.784.066 1.784.066 3.568s-.016 1.784-.016 3.568l.014-.004c1.76 0 1.76.048 3.518.048 1.76 0 1.76-.022 3.518-.022 1.76 0 1.76.041 3.518.041 1.76 0 1.76.017 3.518.017 1.76 0 1.76-.116 3.518-.116 1.76 0 1.76.092 3.52.092 1.758 0 1.758-.091 3.517-.091 1.76 0 1.76.01 3.518.01 1.759 0 1.759-.014 3.518-.014 1.758 0 1.758.09 3.518.09 1.759 0 1.759-.053 3.518-.053 1.76 0 1.76-.006 3.52-.006s1.76.061 3.519.061c1.76 0 1.76-.042 3.521-.042 1.76 0 1.76.03 3.521.03l.061-.041m57.755 0c0-1.782.018-1.782.018-3.564 0-1.781-.012-1.781-.012-3.562 0-1.782-.103-1.782-.103-3.565 0-1.781.072-1.781.072-3.563 0-1.782-.045-1.782-.045-3.564s.066-1.782.066-3.565c0-1.782.02-1.782.02-3.564s-.07-1.782-.07-3.564.007-1.782.007-3.564c0-1.783.057-1.783.057-3.565 0-1.783-.1-1.783-.1-3.565s.06-1.782.06-3.564.05-1.782.05-3.564-.015-1.782-.015-3.564c0-1.783-.081-1.783-.081-3.565 0-1.783.036-1.783.036-3.567 0-1.782.043-1.782.043-3.565 0-1.784.017-1.784.017-3.568 0-1.783-.09-1.783-.09-3.567l.002-.067c-1.79 0-1.79.022-3.582.022-1.791 0-1.791-.015-3.582-.015-1.792 0-1.792.002-3.583.002-1.79 0-1.79.07-3.581.07-1.792 0-1.792-.038-3.583-.038-1.791 0-1.791.004-3.583.004-1.79 0-1.79.034-3.582.034-1.79 0-1.79-.004-3.582-.004-1.79 0-1.79-.061-3.582-.061-1.79 0-1.79-.002-3.581-.002-1.792 0-1.792.028-3.583.028-1.792 0-1.792-.023-3.585-.023-1.791 0-1.791.01-3.582.01-1.793 0-1.793-.024-3.586-.024s-1.793.02-3.585.02l.021.044c0 1.781-.031 1.781-.031 3.563 0 1.782-.012 1.782-.012 3.563 0 1.782-.067 1.782-.067 3.564s.1 1.782.1 3.563c0 1.782-.088 1.782-.088 3.564 0 1.783.056 1.783.056 3.565s.029 1.782.029 3.564.024 1.782.024 3.564c0 1.783-.045 1.783-.045 3.565s-.029 1.782-.029 3.565c0 1.782-.049 1.782-.049 3.564s.038 1.782.038 3.564c0 1.783-.003 1.783-.003 3.565s-.003 1.782-.003 3.564l-.001 3.565c0 1.783.007 1.783.007 3.566s-.004 1.783-.004 3.565c0 1.784.05 1.784.05 3.568s-.055 1.784-.055 3.568l.062.06c1.79 0 1.79-.007 3.582-.007 1.79 0 1.79.018 3.582.018 1.791 0 1.791-.083 3.582-.083 1.79 0 1.79.038 3.582.038 1.791 0 1.791-.063 3.582-.063 1.792 0 1.792.037 3.583.037 1.791 0 1.791-.006 3.582-.006s1.791-.015 3.582-.015 1.791.068 3.582.068 1.791-.034 3.582-.034 1.791.03 3.583.03c1.792 0 1.792-.07 3.584-.07 1.791 0 1.791.078 3.583.078 1.793 0 1.793.022 3.585.022 1.793 0 1.793-.104 3.586-.104l.068.03" fill="#FFFFFE"/><path fill="#DE4F4D" d="M51.306 90.808h96.64v-65.22h-96.64z"/><path fill="#E36868" d="M51.306 88.496h96.64v-65.22h-96.64z"/><path fill="#DE4F4D" d="M56.69 84.28h85.873V27.492H56.69z"/><path fill="#E9EDDE" d="M59.248 81.928h80.757V29.845H59.248z"/><path fill="#69BC96" d="M76.177 58.199l16.14-21.51 5.38 21.804 7.173-9.25 2.69 9.25 12.777-21.803 4.035 15.69 6.725-8.742 7.845 28.693-57.384 3.138-5.38-16.14V58.2"/><path d="M140.005 57.294c-12.634-.125-23.128 11.159-37.943 12.065-17.378 1.064-12.435-20.789-24.764-27.962-6.345-3.692-13.042-.08-18.05 4.294v36.237h80.757V57.294" fill="#97CBB2"/><path fill="#DE4F4D" d="M101.032 171.837h96.64v-65.22h-96.64z"/><path fill="#E36868" d="M101.032 169.525h96.64v-65.22h-96.64z"/><path fill="#DE4F4D" d="M106.415 165.308h85.874V108.52h-85.874z"/><path fill="#E9EDDE" d="M108.974 162.956h80.756v-52.083h-80.756z"/><path d="M168.537 162.956h-25.081l1.93-9.89-3.362-2.578 3.335-3.133-5.072-8.128 11.059-2.548-8.003-25.806h-34.37v52.083-52.083h53.93c-1.83 7.768-2.37 19.408 5.18 31.246 4.945 7.756 3.804 14.918.454 20.837m-40.88-33.556c-3.676 0-7.793-.63-11.878-2.524 0 0 6.244-4.356 13.594-4.356 3.675 0 7.626 1.089 11.213 4.356 0 0-5.58 2.524-12.93 2.524" fill="#F1D9AC"/><path d="M143.456 162.956h-34.482v-52.083h34.37l8.002 25.806-11.059 2.548 5.072 8.128-3.335 3.133 3.362 2.578-1.93 9.89m-14.083-40.436c-7.35 0-13.594 4.356-13.594 4.356 4.085 1.894 8.202 2.524 11.878 2.524 7.35 0 12.929-2.524 12.929-2.524-3.587-3.267-7.538-4.356-11.213-4.356" fill="#EBC489"/><path d="M134.415 125.96a3.44 3.44 0 1 1-6.88 0 3.44 3.44 0 0 1 6.88 0" fill="#E4AF69"/></g></svg>