<svg width="120" height="120" viewBox="0 0 120 120" xmlns="http://www.w3.org/2000/svg" xmlns:xlink="http://www.w3.org/1999/xlink"><defs><path id="a" d="M.428.159h28.367v23.94H.428z"/><path id="c" d="M0 .036h85.345v113.6H0z"/></defs><g fill="none" fill-rule="evenodd"><path d="M54.846 54.899l-.153-.02.153.02zm-7.773-1.268c.03.004.062.009.092.015l-.104-.014h.012zm19.21-10.49c.231.075.476.115.712.17l.214.05a285.484 285.484 0 0 0-.809.442 2.506 2.506 0 0 0-.117-.663zm-9.94-5.866a1.308 1.308 0 0 0 1.608.425c-.31.23-.62.458-.925.695a2 2 0 0 0-1.083-.683 3.82 3.82 0 0 0 .4-.437zm2.324-.185l-.09.15c-.074.053-.146.107-.218.16l.308-.31zm34.263-2.864a1.123 1.123 0 0 1-.057.007l.057-.007zM86.138 6.449c-.341.22-.662.49-.937.79-.768.835-1.472 1.726-2.193 2.602l-.096.118c-.262.18-.483.393-.693.643-.194.233-.376.478-.562.717l-.095.123c-.307.243-.608.493-.906.746-.318.27-.635.54-.948.814l-1.766 1.541c-.981.855-1.918 1.765-2.874 2.647-.586.541-1.17 1.085-1.753 1.63a1.427 1.427 0 0 0-.078-.023l-.449-.06a1.684 1.684 0 0 0-.852.23c-.17.072-.34.145-.508.225-.175.084-.342.209-.504.314-.333.215-.655.446-.98.674-.242.172-.485.343-.727.516l-2.053 1.471c-1.018.73-2.002 1.507-2.998 2.266-.963.732-1.9 1.49-2.835 2.256-.887.726-1.792 1.435-2.658 2.188l-3.389 2.949c-.956.832-1.866 1.723-2.796 2.583-.77.713-1.53 1.437-2.285 2.167-.064.04-.129.08-.194.118-.536.317-1.064.668-1.618.954l-1.857.959c-.555.286-1.126.544-1.689.816-.557.269-1.104.56-1.655.84a45.217 45.217 0 0 0-2.97 1.675c-.57.348-1.14.692-1.679 1.09-.591.436-1.146.922-1.35 1.661-.11.396-.09.936.02 1.331l.013.05c-.69.482-1.385.96-2.106 1.393-.25.15-.5.297-.748.449-.109.066-.215.136-.322.205a4.889 4.889 0 0 0-.658.518c-.371.345-.587.928-.587 1.43 0 .756.441 1.331 1.05 1.73.5.33 1.173.315 1.746.276.981-.065 1.945-.298 2.88-.587.888-.274 1.745-.637 2.598-1 .143-.06.287-.121.43-.183.3.344.697.605 1.153.724.332.087.67.13 1.013.126.116-.002.24-.014.368-.032.041.003.083.004.125.004 0 .229.029.455.088.67.295 1.065 1.319 1.87 2.443 1.85l.217-.006c1.252.24 2.508.495 3.768.683a224.48 224.48 0 0 0 4.01.559l-.032-.005.033.005c.772.099 1.546.182 2.321.257.364.035.73.049 1.095.052.122 0 .232-.002.355-.01.396-.026.806-.056 1.182-.19.28-.079.54-.193.779-.344.243.005.486.012.728.012a28.1 28.1 0 0 0 1.564-.039c-.227.236-.453.473-.677.711l-2.051 2.181c-.276.28-.55.56-.82.843-1.456 1.525-2.918 3.044-4.367 4.575-1.693 1.787-3.437 3.545-5.018 5.433-.12.154-.24.307-.359.462a2.283 2.283 0 0 0-.019 2.272l-1.82 2.212c-.321.392-.644.783-.966 1.173-.617.728-1.232 1.456-1.844 2.187-.37.442-.731.89-1.096 1.335-.124.157-.246.316-.37.475a2.33 2.33 0 0 0-.321 1.183c-.46.392-.919.787-1.377 1.183-1.853 1.606-3.588 3.347-5.334 5.066-1.722 1.694-3.538 3.288-5.218 5.022a49.1 49.1 0 0 0-2.382 2.683c-.835 1-1.644 2.009-2.312 3.13-.349.585-.704 1.203-.893 1.857a1.133 1.133 0 0 0 .522 1.274c.425.243.854.291 1.323.138.464-.151.835-.477 1.209-.779 1.023-.761 2.032-1.537 2.98-2.394l1.613-1.457c.795-.717 1.595-1.425 2.368-2.163 1.99-1.9 3.98-3.802 5.968-5.704a219.038 219.038 0 0 1 4.898-4.574c1.904-1.711 3.8-3.432 5.753-5.09.64-.543 1.277-1.09 1.92-1.63.9-.754 1.84-1.475 2.689-2.285.329-.315.425-.81.279-1.23.468-.383.936-.767 1.406-1.149a2.53 2.53 0 0 0 3.116-.363c2.04-1.787 3.93-3.752 5.851-5.665 1.925-1.918 3.862-3.818 5.8-5.722 1.745-1.716 3.53-3.393 5.302-5.082a500.647 500.647 0 0 1 5.062-4.749 821.191 821.191 0 0 1 5.578-5.127c.79-.719 1.58-1.433 2.366-2.157l1.85-1.704c.373-.344.76-.679 1.121-1.034.232-.23.465-.46.699-.689.383-.376.815-.743 1.06-1.227a2.61 2.61 0 0 0 .361-1.332l-.094-.702a2.634 2.634 0 0 0-.683-1.165l-.022-.026a2.653 2.653 0 0 0-1.177-.677 2.65 2.65 0 0 0-.332-.117c-.716-.261-1.48-.038-2.12.288-.44.224-.715.596-.995.981a1.643 1.643 0 0 0-.129.21l-.03-.01c-.622-.182-1.146-.119-1.768.005l-.273.054c-1.25.143-2.5.254-3.75.382-.757.077-1.512.154-2.267.24l-1.347.15c-.67.076-1.339.166-2.004.268-.484.074-.936.212-1.396.365a198.075 198.075 0 0 1-5.965.262l-2.014.055-.181.006a2.513 2.513 0 0 0-.51-.133 9.99 9.99 0 0 0-1.179-.132 9.316 9.316 0 0 0-1.112.025 5.544 5.544 0 0 0-.533.055l.313-.58c.632-1.177 1.288-2.345 1.9-3.532.317-.619.444-1.268.255-1.952a2.348 2.348 0 0 0-.07-.214c.077-.18.15-.36.218-.536.056-.144.095-.29.127-.436a.995.995 0 0 0 .233.187 1.006 1.006 0 0 0 1.357-.356l.003.002c1.565-2.15 3.07-4.337 4.624-6.497a406.92 406.92 0 0 1 3.157-4.313c.352-.363.702-.728 1.04-1.103l3.228-3.566c.771-.853 1.485-1.756 2.216-2.642.357-.433.707-.872 1.058-1.306.15-.186.297-.373.45-.556.311-.307.621-.614.924-.929.221-.23.454-.51.53-.826a1.332 1.332 0 0 0-.62-1.468 1.604 1.604 0 0 0-.792-.207c-.25 0-.498.06-.7.19z" fill="#FFE11A"/><path d="M94.916 46.397c.157-.167.317-.332.476-.5l.002.042.015.527a1.867 1.867 0 0 0-.593.039l.05-.057.05-.05m2.398-8.084c-.282.08-.527.221-.734.426a.962.962 0 0 0-.034.03 1.189 1.189 0 0 0-.157-.012c-.638 0-1.2.538-1.188 1.183.005.286.013.573.02.86a7.063 7.063 0 0 0-.67.253c-.217.099-.388.243-.578.39-.275.214-.534.447-.788.684l-.3.281c-.137.07-.266.16-.384.268-.808.74-1.595 1.5-2.397 2.244l-1.062.984c-.345.32-.68.652-1.035.961-.34.25-.68.515-.854.91a1.548 1.548 0 0 0-.13 1.292l-.168.184c-.367.402-.76.784-1.14 1.173-.519.394-1.033.794-1.55 1.19-1.11.85-2.214 1.71-3.318 2.568-1.86 1.444-3.698 2.916-5.545 4.376-.725.575-1.45 1.152-2.177 1.724l-.363.278c-.447.327-.892.656-1.336.989l-.409.314a2.01 2.01 0 0 0-.59 1.412l-.212.182c-3.68 3.177-7.345 6.371-10.942 9.64-.182.165-.363.33-.546.494a4.512 4.512 0 0 0-.508.528 3.325 3.325 0 0 0-.341.492l-.385.27c-1.121.795-2.268 1.561-3.356 2.4.122-.095.242-.188.363-.28l-3.253 2.495c-1.018.78-2.001 1.609-2.986 2.432a9.953 9.953 0 0 0-.655.546 1.843 1.843 0 0 0-.32 2.195c-.04.036-.082.071-.123.106l-1.571 1.365a1.17 1.17 0 0 0-1.419.176l-.182.234a1.171 1.171 0 0 0-.067.132 6.434 6.434 0 0 1-.265.368c-.472.594-.963 1.172-1.433 1.767a1.09 1.09 0 0 0-.243.366c-1.507 1.136-3.004 2.288-4.4 3.555-.89.808-1.783 1.614-2.673 2.421-.891.808-1.745 1.654-2.6 2.5-.832.822-1.685 1.622-2.515 2.444-.396.393-.795.782-1.204 1.163-.228.212-.458.425-.685.638-.322.305-.661.605-.873 1-.177.334-.194.72 0 1.052.244.411.724.588 1.183.478.541-.13.98-.44 1.427-.756l.996-.705c.368-.26.736-.522 1.098-.79l2.999-2.21a1168.55 1168.55 0 0 1 6.266-4.604c2.153-1.568 4.31-3.13 6.467-4.694 1.747-1.266 3.489-2.54 5.253-3.786a474.643 474.643 0 0 1 5.792-4.034c.749-.513 1.505-1.018 2.252-1.533.434-.301.87-.597 1.3-.901l.841-.593c.138-.097.274-.195.41-.292a6.18 6.18 0 0 0 .566-.454c.146-.131.251-.312.367-.47.27-.366.219-.948 0-1.32a1.304 1.304 0 0 0-.248-.305l.27-.22.246-.2c.286-.217.571-.434.856-.653.625-.478 1.244-.963 1.864-1.448.246-.193.488-.39.732-.586l.4-.323c.133-.109.266-.216.395-.33.155-.133.282-.29.412-.447a525.281 525.281 0 0 1 10.204-8.127c.28-.21.561-.42.841-.632l.355-.266c.169-.126.339-.249.506-.374l.527-.405a.6.6 0 0 0 .176-.156 1.759 1.759 0 0 0 .518-1.383l.246-.189 1.92-1.468c.99-.756 1.979-1.516 2.968-2.273a334.091 334.091 0 0 0 6.087-4.768c.252-.202.501-.407.751-.612a6.06 6.06 0 0 0 .729-.7c.236-.272.443-.571.655-.864.345-.256.68-.525.959-.848a2.18 2.18 0 0 0 .073-.077l.093.038c.273.074.546.074.818 0a1.74 1.74 0 0 0 1.076-.584c.135-.132.24-.284.314-.453a4.62 4.62 0 0 0 .262-.679c.116-.356.154-.733.203-1.103.02-.138.036-.276.051-.416.13-.24.209-.51.181-.76.026-.698.007-1.398-.021-2.097.18-.446.21-.939.274-1.423.03-.23.036-.467.05-.699.041-.838.21-1.845-.484-2.475a1.97 1.97 0 0 0-.866-.477 1.68 1.68 0 0 0-.444-.197 1.713 1.713 0 0 0-.885 0M71 31.528l-.031.024.03-.024M88.647 7.959a1.29 1.29 0 0 0-.455.458.835.835 0 0 0-.491.55c-.137.057-.264.14-.384.258-.253.253-.368.57-.384.922a13.12 13.12 0 0 0-.01.848 5.247 5.247 0 0 0-.726.491c-.256.21-.49.437-.717.677a32.347 32.347 0 0 0-1.365 1.542c-.407.489-.799.988-1.192 1.487l-.027.035a2.13 2.13 0 0 0-.24.255c-.147.187-.32.356-.481.53-.282.305-.557.614-.836.922a72.857 72.857 0 0 0-1.42 1.624c-1.264 1.49-2.523 2.997-3.614 4.618a1.806 1.806 0 0 0-.18 1.423c-.755.855-1.555 1.67-2.293 2.54a1.943 1.943 0 0 0-.575 1.384c-.315.28-.63.563-.937.852-.295.276-.583.563-.845.872-.16.19-.316.4-.459.607-.166.241-.275.553-.385.815a4.558 4.558 0 0 0-.25.75c-.146.647-.01 1.302.472 1.782.23.227.501.383.813.47l.49.066c.332-.001.642-.084.929-.25.487-.213.816-.662 1.165-1.043l.852-.932c.392-.43.788-.857 1.183-1.285.809-.877 1.627-1.744 2.44-2.616 1.474-1.578 2.974-3.13 4.375-4.772.112-.036.221-.084.325-.146.187-.11.368-.253.51-.42.139-.14.247-.298.324-.473l.617-.755c.425-.42.84-.848 1.257-1.274.217-.22.429-.447.643-.67l.426-.451c.332-.354.623-.738.91-1.13.077-.13.133-.268.168-.411.225.036.45.023.675-.037.52-.141.987-.575 1.112-1.107.102-.43.114-.847.084-1.272a1.36 1.36 0 0 0 .6-.544c.047-.107.093-.214.138-.322a1.346 1.346 0 0 0 0-.716c-.082-.524-.163-1.046-.237-1.57a84.572 84.572 0 0 0-.047-.37l.012-.211c.007-.145.003-.292.004-.437.004-.301.001-.602 0-.904-.004-.256-.012-.51-.019-.766a9.686 9.686 0 0 0-.111-1.088c-.026-.18-.224-.483-.348-.606a1.199 1.199 0 0 0-.589-.317 1.428 1.428 0 0 0-.32-.038c-.204 0-.402.048-.587.155m-49.98 44.829c-.631.034-1.262.067-1.893.095l-1.909.083c-.356.016-.713.028-1.07.05-.463.026-.918.045-1.379.12-.5.081-.932.3-1.381.524a1.328 1.328 0 0 0-.544.529l-.005-.002c-.406-.111-.968-.015-1.249.328-.234.289-.398.522-.47.895-.061.318-.035.633-.047.955-.021.563.395 1.05.915 1.204.084.244.166.49.248.734-.455.656-.387 1.627.205 2.19.202.191.414.365.648.52.058.026.116.052.174.076.416.658 1.346.874 2.017.475a1.84 1.84 0 0 0 .21-.138c.24.004.48 0 .72-.012a34.173 34.173 0 0 0 3.258-.317c.644-.09 1.288-.175 1.931-.272.128.03.26.045.396.045a72.27 72.27 0 0 0 3.169-.478c.522-.087 1.048-.155 1.572-.227.471-.056.942-.115 1.415-.17.293-.035.588-.062.882-.093.129-.014.259-.026.388-.039.3-.028.599-.066.893-.131.222-.048.434-.172.638-.272.428-.212.752-.686.876-1.134.046-.168.068-.336.066-.502a21.423 21.423 0 0 0 2.824-.58c1.006-.285 1.621-1.336 1.341-2.346-.276-.998-1.353-1.618-2.36-1.334-1.329.374-2.683.663-4.034.941-.17.035-.34.068-.51.1a2 2 0 0 0-1.695-.977c-.863-.018-1.721.093-2.577.2a1.5 1.5 0 0 0-.047.002 1.976 1.976 0 0 0-1.761-1.124h-.072c-.594 0-1.19.05-1.783.082" fill="#FFD34E"/><path d="M57.028 54.37c-.616.217-1.254.322-1.897.417-1.518.18-3.033.396-4.561.239l-1.39-.213-.55-.074a2.071 2.071 0 0 0-1.995 1.51 2.068 2.068 0 0 0 .21 1.587c.244.415.735.868 1.235.945.567.086 1.134.176 1.702.26a13.94 13.94 0 0 0 2.413.15c1.052-.028 2.104-.213 3.135-.417 1.082-.215 2.144-.532 3.113-1.067.717-.396 1.058-1.286.843-2.062a1.842 1.842 0 0 0-.843-1.091 1.96 1.96 0 0 0-.952-.258 1.4 1.4 0 0 0-.463.074" fill="#FFD34E"/><g transform="translate(20.944 95.866)"><mask id="b" fill="#fff"><use xlink:href="#a"/></mask><path d="M28.791.16c-.283.176-.553.373-.824.57-.249.182-.5.362-.748.546-.507.375-1.016.75-1.521 1.128A428.765 428.765 0 0 0 21.62 5.5c-.037.028-.073.053-.106.082-.612.47-1.222.941-1.832 1.414-.906.702-1.79 1.435-2.68 2.159a212.648 212.648 0 0 0-3.51 2.907c-.652.553-1.29 1.125-1.931 1.692a332.703 332.703 0 0 0-7.044 6.427A332.787 332.787 0 0 0 .43 24.094c-.002.002.001.006.005.003a401.96 401.96 0 0 0 9.182-7.295 327.454 327.454 0 0 0 5.518-4.63c2.144-1.838 4.243-3.725 6.36-5.592 1.003-.885 2.003-1.775 3.004-2.664.998-.886 1.99-1.78 2.998-2.655.398-.347.79-.708 1.21-1.03l-.003.001.09-.068c.003-.002.002-.005 0-.005h-.002" fill="#7F7F7F" mask="url(#b)"/></g><path d="M46.113 105.165c-1.467 1.171-2.956 2.317-4.408 3.506-.68.557-1.356 1.118-2.025 1.689-.604.516-1.191 1.051-1.781 1.584a110.24 110.24 0 0 0-4.883 4.708c-.002.002 0 .006.003.005a101.448 101.448 0 0 0 5.793-4.402c1.438-1.181 2.781-2.48 4.102-3.787a103.144 103.144 0 0 0 3.203-3.3c.002-.002 0-.004-.002-.004h-.002m57.452-55.245l-.004.002.285-.207c.002-.002.001-.005-.001-.005h-.002c-.566.333-1.113.702-1.651 1.079-.543.383-1.085.767-1.622 1.158l-.895.652c-.17.124-.327.262-.489.393-.61.493-1.22.989-1.827 1.486-.371.304-.727.63-1.089.944-.69.602-1.38 1.206-2.066 1.813-.691.61-1.375 1.23-2.055 1.852a240.516 240.516 0 0 0-5.462 5.176 460.722 460.722 0 0 0-6.804 6.8c-.371.377-.743.755-1.113 1.134-.002.003.001.007.004.004a309.135 309.135 0 0 0 8.068-6.91 205.884 205.884 0 0 0 5.467-5.005c1.828-1.74 3.642-3.5 5.44-5.27.405-.4.83-.78 1.243-1.169.414-.389.82-.783 1.251-1.152 1.002-.86 1.992-1.739 3.034-2.551l.288-.224m-14.7 19.074a.627.627 0 0 0 .622-.62.627.627 0 0 0-.622-.619.627.627 0 0 0-.623.62c0 .337.283.619.623.619m-3.038 2.157a138.794 138.794 0 0 0-4.953 4.335c-2.143 1.976-4.162 4.089-6.143 6.225-.39.42-.778.845-1.16 1.27-.003.004 0 .008.004.005 2.33-1.989 4.664-3.972 6.925-6.04 2.124-1.945 4.143-3.993 6.158-6.049l.7-.717c.258-.265.532-.512.805-.76l-.04.06.003-.002c-.034.043-.07.085-.107.125-.003.004.001.007.003.004.117-.103.212-.217.307-.339.017-.02.002-.055-.02-.055a.03.03 0 0 0-.018.007c-.428.307-.854.61-1.263.943-.4.328-.8.658-1.2.988m1.468-43.936c.397-.417.797-.83 1.19-1.25.281-.301.56-.605.844-.904 1.15-1.21 2.27-2.45 3.38-3.696.002-.002 0-.004-.002-.004h-.002a84.668 84.668 0 0 0-3.689 3.488 25.46 25.46 0 0 0-.866.922c-.375.416-.75.833-1.113 1.259-.808.948-1.614 1.903-2.332 2.921-.002.003.002.007.004.004.829-.943 1.72-1.83 2.586-2.74m4.434-1.931a32.556 32.556 0 0 0-1.649 2.524c-.002.003.003.006.005.003.641-.74 1.317-1.448 1.978-2.17.265-.29.531-.58.795-.872.258-.284.502-.579.766-.857.592-.628 1.143-1.294 1.723-1.933.9-.989 1.761-2.012 2.604-3.048.002-.002 0-.004-.002-.004h-.002a60.144 60.144 0 0 0-2.986 2.567c-.653.6-1.247 1.26-1.828 1.93-.248.288-.47.598-.7.9-.24.317-.476.636-.705.96M67.561 13.427l-.003.003a.015.015 0 0 1-.004.002l.007-.005" fill="#7F7F7F"/><path d="M67.558 13.43c1.814-1.399 3.555-2.888 5.31-4.358 2.071-1.734 4.112-3.504 6.188-5.231.181-.15.365-.298.549-.446l-.002.001.201-.152c.002-.002 0-.005 0-.005h-.002c-.532.331-1.045.694-1.558 1.052-.501.351-1.003.702-1.502 1.055a333.61 333.61 0 0 0-3.365 2.413 147.597 147.597 0 0 0-6.202 4.757c-.933.756-1.865 1.51-2.789 2.277a230.46 230.46 0 0 0-3.601 3.053c-1.077.93-2.155 1.86-3.222 2.8-.003.002 0 .006.003.004a196.151 196.151 0 0 0 4.743-3.311 225.691 225.691 0 0 0 5.249-3.909m2.049-6.845c.777-.498 1.547-1.005 2.322-1.507.003-.001.001-.005-.001-.005l-.002.001c-.889.477-1.768.974-2.639 1.482-.676.395-1.348.797-2.005 1.222a88.798 88.798 0 0 0-2.8 1.892c-.004.002-.002.006.002.005 1.73-.99 3.445-2.012 5.123-3.09M32.37 42.948a232.3 232.3 0 0 0 3.2-2.645c.904-.761 1.784-1.55 2.664-2.336a276.1 276.1 0 0 0 5.582-5.132c.763-.719 1.525-1.439 2.285-2.161.786-.747 1.576-1.49 2.35-2.25.001-.003 0-.005-.003-.005h-.002c-1 .834-2.026 1.639-3.045 2.45-.999.794-1.996 1.59-2.99 2.39-2.322 1.86-4.64 3.724-6.916 5.636a230.254 230.254 0 0 0-5.954 5.2 311.245 311.245 0 0 0-6.844 6.357c-.003.002 0 .007.003.005a297.849 297.849 0 0 0 9.67-7.51m5.205-10.364a63.782 63.782 0 0 0 2.244-2.259c.68-.71 1.349-1.43 2.02-2.147.002-.002 0-.005-.002-.005h-.001c-1.656 1.195-3.28 2.447-4.79 3.822-.29.263-.559.548-.83.827-.341.352-.693.701-1.01 1.074a42.256 42.256 0 0 0-2.228 2.83c-.002.002.002.005.004.002 1.55-1.361 3.095-2.727 4.593-4.144M26.16 87.577a470.274 470.274 0 0 0 4.056-4.18 417.56 417.56 0 0 0 1.985-2.091c.319-.34.641-.675.953-1.019a169.97 169.97 0 0 0 3.248-3.66 90.608 90.608 0 0 0 1.839-2.196 258.037 258.037 0 0 0 3.488-4.437 219.27 219.27 0 0 0 3.502-4.692c.001-.002-.001-.004-.003-.004h-.001a312.424 312.424 0 0 0-7.755 8.474c-.637.726-1.282 1.446-1.919 2.173a168.941 168.941 0 0 0-3.11 3.665c-.928 1.12-1.863 2.232-2.784 3.356a562.29 562.29 0 0 0-2.404 2.95c-.415.514-.831 1.026-1.247 1.538-.421.522-.84 1.046-1.278 1.554-.003.003 0 .006.003.004.486-.468.956-.953 1.428-1.435m.952-7.263a89.778 89.778 0 0 0 2.506-3.617c.433-.656.862-1.316 1.284-1.979.002-.002 0-.004-.002-.004H30.9a91.396 91.396 0 0 0-3.353 4.234c-.413.554-.798 1.128-1.184 1.7a85.076 85.076 0 0 0-1.07 1.632 60.2 60.2 0 0 0-1.307 2.131c-.002.003.002.005.005.003l.277-.362-.003.003.134-.172.007-.009.3-.388v.001a124.115 124.115 0 0 0 2.408-3.173" fill="#7F7F7F"/><path d="M60.117 53.468l.186.024-.219-.029.033.005M41.264 40.166l.007-.005.01-.008-.017.013" fill="#161616"/><g transform="translate(16 .456)"><mask id="d" fill="#fff"><use xlink:href="#c"/></mask><path d="M14.531 95.626c2.933-3.959 5.928-7.87 8.9-11.8l1.103-1.46c1.707-2.13 3.428-4.25 5.141-6.374.485-.601.959-1.212 1.457-1.8l2.919-3.45c3.136-3.708 6.3-7.395 9.31-11.207.71-.9 1.413-1.801 2.113-2.708.21-.271.415-.547.62-.823.317-.002.67-.198.879-.405a1.355 1.355 0 0 0 .316-1.442c.068-.138.122-.282.152-.433.08-.33.039-.618-.054-.936a1.386 1.386 0 0 0-1.323-1.002c-.576 0-1.208.413-1.324 1.002l-.014.07c-.046.073-.099.144-.15.215l-.272-.037.127.017-.314-.041-.053-.008.02.003a633.048 633.048 0 0 1-14.513-2.1l-2.607-.411c-.473-.075-.946-.158-1.422-.208l-2.284-.24-1.12-.117c-.148-.015-.297-.04-.446-.045-1.085-.032-2.172-.09-3.258-.09-.133 0-.266 0-.4.003-.397.006-.794.013-1.19.023l.003-.002 3.97-3.331c1.86-1.56 3.793-3.035 5.702-4.537l.351-.277c2.009-1.535 4.018-3.068 6.013-4.619 1.82-1.413 3.625-2.845 5.43-4.277 2.108-1.673 4.212-3.35 6.313-5.034 1.91-1.532 3.786-3.111 5.672-4.675 1.52-1.262 3.07-2.483 4.629-3.696 2.059-1.551 4.124-3.095 6.16-4.677a85.887 85.887 0 0 0 5.326-4.504 119.539 119.539 0 0 1 3.52-3.108c1.111-.94 2.23-1.876 3.376-2.775.046-.035.094-.066.14-.1l-.535.89c-.138.227-.265.466-.418.684l-.619.889c-.694 1-1.39 1.998-2.085 2.997a27.73 27.73 0 0 1-.823 1.137l-4.217 5.45c-.451.572-.931 1.123-1.396 1.686l-2.32 2.802c-1.078 1.301-2.168 2.592-3.255 3.886-.433.515-.86 1.036-1.285 1.558-.536.657-1.08 1.308-1.604 1.975a252.77 252.77 0 0 0-1.876 2.4 71.5 71.5 0 0 0-.762 1.002c-.276.37-.54.741-.799 1.122a11.33 11.33 0 0 0-.618 1.045 1.292 1.292 0 0 0-.164.69c-.022.11-.034.221-.034.334 0 .905.785 1.755 1.725 1.715 1.875-.078 3.751-.155 5.627-.256l5.234-.28c2.453-.132 4.9-.34 7.35-.531 1.696-.132 3.394-.262 5.089-.41.953-.083 1.908-.157 2.86-.251l1.561-.155c.415-.042.83-.093 1.246-.13a10.932 10.932 0 0 1 .601-.038c-.135.234-.295.454-.445.681-.213.318-.43.63-.66.934-.874 1.109-1.826 2.163-2.79 3.193-.48.512-.97 1.016-1.461 1.517-.451.459-.897.928-1.367 1.37l-1.734 1.632-5.458 5.137c-.337.318-.693.615-1.041.92l-3.022 2.647c-1.073.94-2.147 1.882-3.222 2.822-.474.416-.945.837-1.424 1.249-3.426 2.936-6.858 5.866-10.288 8.797-3.095 2.646-6.158 5.327-9.235 7.99l-2.652 2.295c-.317.274-.641.543-.952.824l-4.547 4.114-5.49 4.967c-.253.228-.498.46-.743.695l-2.51 2.403-5.468 5.235c-.323.309-.636.627-.952.943l-2.922 2.93c-.736.737-1.47 1.474-2.205 2.214l3.187-4.304m23.486-38.592c-.316.02-.633.068-.948.103-.226.025-.451.048-.676.078l-2.002.264c-.717.095-1.43.218-2.144.332-2.68.425-5.354.897-8.029 1.355-1.366.234-2.735.446-4.103.666-1.428.23-2.855.457-4.284.679.03-.226-.002-.492-.133-.668a9.206 9.206 0 0 1-.743-1.151 24.325 24.325 0 0 1-.54-1.098l-.304-.782a10.503 10.503 0 0 1-.572-2.182 8.927 8.927 0 0 1-.047-.553l.037.046c.09.108.185.213.278.32.222.254.444.51.663.766.235.274.698.24.938 0a.66.66 0 0 0 .194-.465c0-.187-.077-.329-.194-.467-.274-.322-.546-.646-.817-.97l-.195-.252a63.61 63.61 0 0 1 1.96-.124c.923-.046 1.85-.07 2.772-.061.27.003.543.002.815.002.732 0 1.466-.002 2.195.059 1.158.096 2.316.19 3.475.289 4.992.708 9.987 1.402 14.985 2.067l2.07.273-.582.767c-.315.413-.633.825-.952 1.235a1.264 1.264 0 0 0-.163-.203c-.25-.248-.55-.342-.893-.368a8.707 8.707 0 0 0-.63-.021c-.476 0-.95.032-1.431.064m32.197-37.72c-1.37 1.543-2.733 3.091-4.108 4.63a490.03 490.03 0 0 1-3.838 4.26c-.614.667-1.23 1.331-1.85 1.993-.631.676-1.289 1.327-1.876 2.041-.132.163-.224.323-.25.524-1.39.07-2.78.137-4.171.2l.28-.466c.382-.64.776-1.275 1.187-1.896.45-.678.89-1.362 1.367-2.02l1.083-1.492c.206-.284.405-.575.619-.853l-.135.173c1.043-1.34 2.091-2.674 3.126-4.02l3.567-4.53c.968-1.231 1.89-2.496 2.826-3.752l1.995-2.678c.28-.377.54-.76.8-1.15l2.022-3.034.6-.9c.014-.02.025-.043.038-.065.06 2.76.126 5.521.379 8.272.018.198.054.38.123.55a656.678 656.678 0 0 0-3.784 4.213m-13.598 51.01a293.053 293.053 0 0 1 8.587-7.233 442.095 442.095 0 0 1 4.128-3.305 831.022 831.022 0 0 0 4.874-3.896c1.465-1.18 2.916-2.375 4.369-3.569l1.963-1.612c.731-.6 1.453-1.21 2.201-1.788l1.718-1.33.518-.38c.164-.119.288-.243.345-.445a.749.749 0 0 0-.735-.943.627.627 0 0 0-.366.103c-1.797 1.312-3.52 2.719-5.246 4.121-1.352 1.097-2.703 2.195-4.064 3.28-3.132 2.498-6.303 4.943-9.464 7.405a182.045 182.045 0 0 0-3.924 3.14l-2.533 2.088c-.811.67-1.602 1.364-2.402 2.045-2.774 2.362-5.487 4.793-8.257 7.16l-2.385 2.04c-.803.688-1.626 1.35-2.44 2.026-1.465 1.216-2.956 2.4-4.442 3.591-.582.467-1.178.918-1.767 1.376l-1.924 1.496c-1.425 1.067-2.842 2.146-4.282 3.194a1066.14 1066.14 0 0 1-5.25 3.79c-1.372.983-2.75 1.956-4.102 2.965l-2.679 1.999c-.32.239-.632.491-.946.738l-1.633 1.28a325.404 325.404 0 0 0-7.277 5.892l1.839-1.956c.502-.535.998-1.075 1.508-1.602l5.209-5.38c.363-.375.718-.757 1.09-1.121l1.977-1.935 5.83-5.704c.908-.888 1.85-1.74 2.784-2.6l6.312-5.815c.835-.77 1.667-1.542 2.52-2.291l11.206-9.854c3.097-2.724 6.217-5.421 9.326-8.13 3.027-2.636 5.997-5.337 8.984-8.018.41-.368.835-.724 1.23-1.106l1.921-1.857 5.215-5.04c.185-.178.359-.367.538-.552.488-.504.972-1.012 1.452-1.524a60.005 60.005 0 0 0 2.768-3.158c.392-.483.772-.977 1.13-1.487a5.062 5.062 0 0 1-.01.174 18.386 18.386 0 0 0-.045 1.643c.003.68.009 1.358.027 2.037.016.586.03 1.174.07 1.759.054.783.14 1.558.29 2.329.05.257.264.498.485.627.243.141.54.18.812.105a1.06 1.06 0 0 0 .736-1.29c-.288-1.055-.472-2.129-.647-3.207-.068-.506-.138-1.011-.18-1.52l-.098-1.14a13.717 13.717 0 0 1-.037-.605.62.62 0 0 0 .724.088.6.6 0 0 0 .214-.814c-.263-.494-.522-.99-.793-1.48-.115-.206-.325-.294-.543-.294l-.032.002a1.948 1.948 0 0 0 .16-.588 1.317 1.317 0 0 0-.002-.171c.239-.191.422-.452.506-.757a1.481 1.481 0 0 0-.15-1.145c-.182-.31-.526-.611-.892-.682a9.47 9.47 0 0 0-1.808-.154c-.29 0-.58.009-.872.022-.59.026-1.18.045-1.769.082-1.217.076-2.435.15-3.651.24-2.788.204-5.575.417-8.363.633-1.711.132-3.425.213-5.139.305l-.246.013.33-.329c.358-.36.7-.738 1.048-1.11.72-.774 1.428-1.558 2.137-2.341a357.643 357.643 0 0 0 3.834-4.314c1.184-1.35 2.36-2.705 3.557-4.041l4.297-4.79c.222-.14.403-.34.517-.576l.303-.337c.17-.19.276-.405.276-.665 0-.248-.1-.49-.276-.665a.902.902 0 0 0-.19-.14c-.039-2.485-.09-4.97-.144-7.455-.017-.81-.666-1.486-1.494-1.486-.16 0-.317.028-.466.078l.337-.6c.113-.203.22-.408.332-.613l.096-.183c.28-.152.563-.303.842-.46a1.295 1.295 0 0 0 .793-.867 1.3 1.3 0 0 0 0-.684.754.754 0 0 0-.006-.038 1.317 1.317 0 0 0-.926-.921C75.82.068 75.66.035 75.5.035a.914.914 0 0 0-.303.048 3.972 3.972 0 0 0-.823.38 9.614 9.614 0 0 0-.79.512c-.45.323-.903.64-1.353.962-.544.387-1.062.807-1.588 1.217-.468.366-.94.73-1.41 1.095a88.293 88.293 0 0 0-2.854 2.325c-.899.762-1.773 1.554-2.65 2.34-1.899 1.7-3.885 3.292-5.887 4.868-2.017 1.546-4.042 3.082-6.037 4.655-1.987 1.567-3.919 3.205-5.86 4.828-3.68 3.078-7.444 6.053-11.196 9.044a680.344 680.344 0 0 1-9.478 7.394c-1.01.78-2.004 1.582-3.005 2.373-.81.64-1.639 1.263-2.43 1.928l-6.2 5.21c-.406.34-.806.688-1.206 1.037l-.023.005a1.492 1.492 0 0 0-1.004.893l-.4.35c-.523.453-.466 1.327 0 1.789.238.237.563.371.9.371h.019l-.018.187c-.037.337-.02.692.001 1.029.03.438.105.874.175 1.306.08.505.21.999.35 1.49a11.747 11.747 0 0 0 .952 2.439c.13.246.282.478.442.706-.075.011-.15.024-.224.034-.312.047-.62.333-.773.592a1.29 1.29 0 0 0-.13.99c.089.322.305.6.594.769l.31.13c.228.06.457.06.687 0 5.567-.81 11.114-1.758 16.66-2.7 1.248-.212 2.501-.395 3.751-.59.756-.099 1.51-.203 2.267-.291.873-.102 1.75-.215 2.63-.242-.59.734-1.178 1.467-1.766 2.202-.704.877-1.438 1.732-2.159 2.596a3635.558 3635.558 0 0 1-5.025 6.005c-.585.698-1.184 1.386-1.753 2.096-.822 1.026-1.644 2.05-2.465 3.077l-3.203 3.998c-.42.522-.84 1.042-1.243 1.576a21765.55 21765.55 0 0 0-5.507 7.31c-1.15 1.526-2.31 3.045-3.447 4.58L3.323 106.07c-1.05 1.42-2.087 2.847-3.13 4.272-.211.288-.233.746-.142 1.077a1.401 1.401 0 0 0 1.215 1.018 1 1 0 0 0 .251.917.97.97 0 0 0 .68.28c.086-.01.17-.022.256-.034a.954.954 0 0 0 .424-.246c1.52-1.167 2.955-2.438 4.41-3.681a473.473 473.473 0 0 1 4.582-3.856c1.381-1.15 2.783-2.277 4.181-3.405 1.332-1.075 2.68-2.125 4.027-3.18.838-.628 1.679-1.255 2.518-1.882.676-.505 1.363-.996 2.047-1.49 1.537-1.11 3.086-2.204 4.616-3.325 1.486-1.087 2.979-2.164 4.451-3.27l2.646-1.99c.832-.626 1.642-1.282 2.463-1.923 1.584-1.239 3.149-2.502 4.715-3.764.625-.505 1.237-1.027 1.853-1.542.66-.55 1.326-1.094 1.978-1.655 1.5-1.29 3.002-2.575 4.486-3.882 1.588-1.397 3.177-2.792 4.766-4.186" fill="#161616" mask="url(#d)"/></g></g></svg>