<svg width="120" height="120" viewBox="0 0 120 120" xmlns="http://www.w3.org/2000/svg" xmlns:xlink="http://www.w3.org/1999/xlink"><defs><path d="M45.959.998C18.905 2.774-1.581 26.068.199 53.03c1.783 26.96 25.157 47.379 52.209 45.604 27.052-1.776 47.54-25.07 45.757-52.031C96.457 20.734 74.873.889 49.232.89c-1.083 0-2.178.036-3.273.108z" id="a"/><path d="M45.959.998C18.905 2.774-1.581 26.068.199 53.03c1.783 26.96 25.157 47.379 52.209 45.604 27.052-1.776 47.54-25.07 45.757-52.031C96.457 20.734 74.873.889 49.232.89c-1.083 0-2.178.036-3.273.108z" id="c"/><path d="M45.959.998C18.905 2.774-1.581 26.068.199 53.03c1.783 26.96 25.157 47.379 52.209 45.604 27.052-1.776 47.54-25.07 45.757-52.031C96.457 20.734 74.873.889 49.232.89c-1.083 0-2.178.036-3.273.108z" id="e"/><path d="M45.959.998C18.905 2.774-1.581 26.068.199 53.03c1.783 26.96 25.157 47.379 52.209 45.604 27.052-1.776 47.54-25.07 45.757-52.031C96.457 20.734 74.873.889 49.232.89c-1.083 0-2.178.036-3.273.108z" id="g"/></defs><g fill="none" fill-rule="evenodd"><path d="M118.345 56.544c2.129 32.21-22.348 60.042-54.668 62.164-32.32 2.12-60.247-22.273-62.375-54.484C-.825 32.014 23.65 4.182 55.97 2.062c32.321-2.122 60.246 22.27 62.375 54.482" fill="#B7EB3E"/><path d="M114.323 56.808c1.982 29.998-20.811 55.916-50.911 57.89-30.099 1.976-56.106-20.74-58.087-50.738-1.982-29.996 20.81-55.915 50.91-57.89 30.099-1.976 56.106 20.742 58.088 50.738" fill="#E8FF9E"/><path d="M108.511 57.196c1.77 26.797-18.592 49.952-45.482 51.716-26.888 1.764-50.122-18.529-51.892-45.327-1.77-26.799 18.592-49.953 45.48-51.717 26.89-1.764 50.123 18.53 51.894 45.328" fill="#B7EB3E"/><g transform="translate(10.633 10.448)"><mask id="b" fill="#fff"><use xlink:href="#a"/></mask><path fill="#E8FF9E" mask="url(#b)" d="M52.47 123.6l4.217-.276-9.79-148.172-4.217.276z"/></g><g transform="translate(10.633 10.448)"><mask id="d" fill="#fff"><use xlink:href="#c"/></mask><path fill="#E8FF9E" mask="url(#d)" d="M-25.286 52.712l.277 4.204 148.676-9.756-.276-4.204z"/></g><g transform="translate(10.633 10.448)"><mask id="f" fill="#fff"><use xlink:href="#e"/></mask><path fill="#E8FF9E" mask="url(#f)" d="M-1.796 103.879l4.027 3.518L100.18-3.98l-4.028-3.517z"/></g><g transform="translate(10.633 10.448)"><mask id="h" fill="#fff"><use xlink:href="#g"/></mask><path fill="#E8FF9E" mask="url(#h)" d="M-4.93-1l-3.53 4.015 111.757 97.615 3.529-4.013z"/></g></g></svg>