<svg width="150" height="181" viewBox="0 0 150 181" xmlns="http://www.w3.org/2000/svg"><g fill="none"><path d="M72.8 146.82l-1.056-.724c-.925-10.267 7.266-19.677 13.08-27.508 3.699-4.739 6.606-10.003 8.786-15.597.594-1.514 2.51-12.438 11.692-9.345 9.183 3.093-1.915 14.807-3.5 17.373-2.907 4.607-5.88 9.214-8.985 13.755-5.285 7.765-9.447 20.598-20.016 22.045zm23.98-40.473c-1.717.263-4.558 5.067-5.482 6.384a70.656 70.656 0 0 0-5.351 8.489c-1.718 3.159-3.37 6.317-5.285 9.41-1.52 2.501-4.096 5.463-5.02 8.16.131.527.263 1.12.33 1.646.396.395.66.856 1.32.987 5.682-4.409 8.192-10.66 11.892-16.518 1.981-3.093 3.765-6.252 5.747-9.345 1.255-1.974 5.285-6.449 2.642-8.884l-.792-.329z" fill="#C8BEA0"/><path d="M107.152 47.448c1.453.395 3.501 4.475 4.228 6.186 0 11.583-.99 24.284-1.453 26.653-.727 4.08-2.775 16.913-7.4 18.295-1.849-1.12-.462-5.265 0-6.91 4.229-15.202 3.7-37.775 3.238-38.893-.463-1.12-1.652-1.975-1.982-3.225.066-1.777 2.114-1.777 3.37-2.106z" fill="#AAA082"/><path d="M106.558 96.673c-.199 2.5-2.048 4.344-4.228 4.278-1.916 0-3.435-1.58-3.37-3.422v-.198c.133-1.184.925-2.237 1.982-2.83.265-.131.595-.263.86-.329.396-.065.858-.131 1.254-.065a7.177 7.177 0 0 1 3.502 2.566z" fill="#AAA082"/><path d="M67.12 152.742a4.016 4.016 0 0 0 3.435-2.632c.198-.658.66-4.014-.529-5.265-2.18-2.171-6.804-1.974-7.597.263-.462 1.317-.66 3.488.396 4.87 1.057 1.382 3.237 2.172 4.294 2.764zm-6.012-3.422l-1.718.527-4.69 1.382c-1.387.395-2.642 1.053-3.832 1.842-1.056.724-1.123 1.316-.528 2.567.33.263.727.066 1.057 0a18.319 18.319 0 0 0 4.822-2.04c.925-.592 1.916-1.119 2.907-1.711.529-.33.991-.658 1.453-.987.463-.395.661-.988.529-1.58zm-10.9.922c1.916.263 8.522-1.514 10.57-2.764.066-.198.066-.395.066-.593 0-.263-.066-.46-.066-.658-.265-.066-.595-.066-.86-.066-.396.066-.858.132-1.254.264-1.586.394-3.171.724-4.757 1.184-.99.33-1.915.724-2.84 1.25-.529.132-.925.724-.86 1.383zM65.6 152.94l-1.123-.856a18.381 18.381 0 0 0-4.096 1.645c-1.321.724-2.708 1.448-4.162 2.04-.99.395-1.717 1.12-2.18 2.106.265.132.529.33.793.33.396 0 .727-.066 1.057-.198 3.237-1.316 6.342-3.027 9.38-4.672.067-.066.133-.198.331-.395zm-2.312 5.923c.528.263 1.189.263 1.651-.132l1.784-1.185c.66-.526 1.255-1.118 1.916-1.645a7.084 7.084 0 0 0 1.585-2.106 6.45 6.45 0 0 0 .33-1.053 2.19 2.19 0 0 0-.924 0c-2.18.79-4.162 2.04-5.814 3.62-.792.592-.99 1.645-.528 2.5z" fill="#C8BEA0"/><path d="M106.161 131.091c1.454 2.106.991 4.541-.925 5.923-1.585 1.053-4.161 1.053-5.35-.79-.661-1.053-.661-2.435-.067-3.553.133-.264.33-.593.595-.79.33-.33.66-.592 1.057-.856 1.057-.526 3.303-1.382 4.69.066zm-8.588.592c.727.066 1.19.724 1.123 1.448v.066c-.132.658-.726 1.053-1.387.987-.396-.066-.66-.395-.793-.79 0-.065-.066-.197-.066-.329 0-.131 0-.263.066-.394.132-.395.463-1.053 1.057-.988zm2.775-1.513c-2.643.79-3.37.987-5.813-2.83-1.85-2.961-1.982-8.029-2.18-11.45-.199-3.554-.265-7.174-2.775-9.938-2.642-2.895-2.708-5.791-1.321-8.687.726-1.513 5.681-3.224 9.314-.197 3.303 2.764 5.351 10.003 5.946 13.36 1.057 5.593-.529 19.018-3.171 19.742z" fill="#AAA082"/><path d="M95.46 98.779c1.585 1.448.858 3.356-.53 4.343a2.77 2.77 0 0 1-3.897-.592c0-.066-.066-.066-.066-.131-.462-.856-.528-1.909-.066-2.764a5.64 5.64 0 0 1 .397-.659c.198-.263.462-.46.792-.658.793-.329 1.784-.987 3.37.461z" fill="#DCD2B4"/><path d="M125.45 175.315l-1.32.592s-21.14-38.432-19.818-40.604c1.123-.197 2.312-.395 3.765 1.25 6.87 7.766 17.374 38.762 17.374 38.762zm-27.546-35.471l.858-.132c4.69 4.014 9.183 15.728 12.684 20.796l11.098 15.925-1.321 1.382-2.84-1.513c0 .066-23.386-30.864-20.48-36.458z" fill="#AAA082"/><path d="M129.943 171.564s-7.663 4.804-8.191 5.198c0 .198-1.454-2.698-1.52-2.698-.66.79-1.255 1.58-1.85 2.37l2.313 2.369a9.163 9.163 0 0 0 3.369-1.514c.66-.066 6.87-4.87 6.87-4.87l-.991-.855z" fill="#AAA082"/><path d="M43.734 52.515s1.52 23.823 7.53 24.81l4.89-1.25-2.775-22.638-9.645-.922z" fill="#C8BEA0"/><path d="M90.307 54.556l-1.19 21.98 7.994.79s6.011-17.243 2.642-23.692l-9.446.922z" fill="#AAA082"/><path d="M40.233 47.909c-.066-.395-3.04-2.567-4.228-5.462 1.255-3.62 7.002-1.382 8.522.46 1.52 1.843 2.378 4.08 1.52 5.2-.86 1.118-3.634.92-5.814-.198z" fill="#DCD2B4"/><path d="M97.705 44.224c-.264.263-3.897.592-6.473 2.434-.925 3.686 5.152 4.87 7.464 4.146 2.312-.723 4.162-2.237 4.03-3.62-.132-1.447-2.576-2.763-5.02-2.96z" fill="#C8BEA0"/><path d="M86.21 102.399c-.462 4.606-6.87 3.75-10.305 3.75-3.633 0-8.852-.065-11.758-2.632-3.37-2.895-.397-7.634-2.973-10.858-2.973-3.685-7.927-1.316-11.627-2.303-.198-6.055 14.666-2.435 17.837-2.238 7.002.46 13.938-.066 20.875-.658 2.576-.197 6.011-.856 8.522-.132 2.51.724 4.36 4.212 1.123 5.528-1.916.79-5.351-1.118-7.597-.724-3.832.593-4.096 3.028-4.096 10.267zm-18.562-9.016c-.396 1.184-.198 5.462 1.453 6.975.991.922 2.907.988 4.69 1.317 3.634.658 6.012.197 6.805-2.764.528-1.975.396-2.633.462-4.87.066-2.238-2.312-2.106-3.237-1.777-.925.329-.132 1.711-1.057 2.37-.66.46-3.765.855-4.558-.067-.793-.921.066-1.777-1.585-2.171-1.652-.395-2.577-.198-2.973.987z" fill="#DCD2B4"/><path d="M66.195 88.118c.132-1.053.462-1.711 1.057-1.843a6.73 6.73 0 0 1 1.651-.394c1.585-.198 3.237.065 4.822.065 1.454-.065 2.907 0 4.427 0h.726c.859 1.382.264 3.488-.528 4.015-.198.065-.33.197-.529.263-.99.329-2.048.46-3.039.395-1.85 0-3.699-.066-5.615-.198-.594 0-1.189-.131-1.783-.329-.595-.329-1.057-.855-1.19-1.974zm1.321-42.578c.132-1.053.462-1.711 1.057-1.843a6.73 6.73 0 0 1 1.651-.395c1.586-.197 3.237.066 4.823.066 1.453-.066 2.906 0 4.426 0h.726c.86 1.382.265 3.488-.528 4.014-.198.066-.33.198-.529.264-.99.329-2.047.46-3.038.394-1.85 0-3.7-.065-5.616-.197-.594 0-1.189-.132-1.783-.329-.595-.263-1.057-.79-1.19-1.974zm-25.764 9.74a5.308 5.308 0 0 1 .529-3.883c2.246-2.304 9.909-.395 12.617-.132 4.096.33 8.192.856 12.287 1.645.397.395.529.987.33 1.514-3.038 1.974-8.323 1.58-11.89 1.777-3.832.197-10.702 1.777-13.873-.922zm1.453 8.357c-.594-1.316-.924-2.5-.264-3.817 7.003-1.382 15.723-2.106 22.857-1.382 1.057 1.316 1.123 1.514 1.057 2.698-6.936 3.488-16.25 5.002-23.65 2.501zm2.841 6.318a90.858 90.858 0 0 1 12.618-2.435c2.18-.33 7.597-2.632 9.446-1.053.33 2.566-11.825 5.857-13.608 6.45-1.784.591-5.615 1.776-7.465 1.184-2.246-.724-1.52-2.238-.99-4.146zm3.104 8.687c3.04-1.843 6.937-2.501 10.306-3.752 2.907-1.052 6.012-2.895 9.183-2.764-1.255 3.225-18.431 11.583-19.488 6.516z" fill="#DCD2B4"/><path d="M44.923 52.713l-3.237 1.974s1.982 20.4 7.861 24.547l2.577.329c-2.18-5.396-4.03-10.924-5.616-16.518a68.515 68.515 0 0 1-1.585-10.332zm34.087 9.805l-.726-1.316c.132-.46.33-.921.528-1.382 2.444-1.908 9.315-.066 12.155.132 3.171.197 6.21.329 9.315 1.119.594.92.925 1.974 1.057 3.093-1.387 3.224-7.861 1.513-10.438 1.25-4.096-.33-8.06-1.316-11.89-2.896zm-.33-7.831c.925-3.224 7.2-2.04 9.513-1.974 3.963.131 7.86.197 11.825.329 3.963 4.212-6.673 4.343-7.994 4.343-2.576-.066-12.75 1.053-13.344-2.698zm1.387 11.977c6.738.527 13.74 2.435 20.413 3.883l.66.987c.067.856-.132 1.711-.528 2.5-2.444.264-22.857-4.408-20.545-7.37zm.265 7.042c.66-2.896 15.722 3.159 18.1 3.948l.463 1.317c-1.123 4.343-16.78-2.567-18.563-5.265z" fill="#DCD2B4"/><path d="M95.261 79.76l3.039.066s2.114-2.303 3.237-7.831c1.123-5.791.793-15.268-1.123-18.23l-3.105-.065c.859 1.514 1.453 3.225 1.652 4.936.396 2.303.066 5.199-.265 8.62-.396 4.015-3.038 10.99-3.435 12.504z" fill="#DCD2B4"/><path d="M72.404 52.055a116.35 116.35 0 0 0-.594 13.556c-.066 2.83.066 5.66 0 8.49-.066 2.237-.397 4.935.264 6.91.793.46 1.321.197 1.982-.987.792-9.016.594-18.69.066-27.903l-1.718-.066z" fill="#C8BEA0"/><path d="M67.978 80.221c.397-3.685 6.54-1.974 9.117-1.777 2.51 6.45-8.787 5.725-9.117 1.777zm1.057-7.239c.33-3.62 5.747-1.974 7.993-1.777 2.247 6.384-7.729 5.726-7.993 1.777zm.793-6.581c.33-3.685 5.417-3.817 6.672-1.053 1.916 4.475-6.408 5.002-6.672 1.053z" fill="#C8BEA0"/><path d="M69.3 59.491c.33-3.62 5.416-3.817 6.672-1.053 1.915 4.475-6.408 4.936-6.673 1.053zm.66-6.186c.264-2.961 4.36-3.093 5.35-.855 1.52 3.62-5.152 4.014-5.35.855z" fill="#C8BEA0"/><path d="M74.254 80.09c.132.657-.33 1.316-.991 1.447h-.066c-.66.066-1.255-.329-1.387-.987 0-.395.132-.79.462-.987a.502.502 0 0 1 .264-.132c.132-.066.265-.066.397-.066.462.066 1.189.132 1.32.724zm.198-7.24c.132.658-.33 1.317-.99 1.448h-.133c-.66.066-1.255-.329-1.387-.987 0-.395.198-.79.528-.987a.502.502 0 0 1 .265-.132c.132-.066.264-.066.396-.066.462 0 1.189.132 1.321.724zm.132-6.91c.132.659-.33 1.382-1.057 1.448h-.066c-.66.066-1.255-.329-1.387-.987 0-.395.132-.79.462-.987a.502.502 0 0 1 .265-.132c.132-.065.264-.065.396-.065.528 0 1.255.131 1.387.723zm-.33-7.041c.132.658-.33 1.382-1.057 1.448h-.066c-.66.066-1.255-.33-1.387-.987 0-.395.132-.79.462-.988a.502.502 0 0 1 .264-.131c.132-.066.265-.066.397-.066.528.066 1.255.132 1.387.724zm-.066-6.055c.132.659-.33 1.382-1.057 1.448h-.066c-.66.066-1.255-.329-1.387-.987 0-.395.198-.79.462-.987a.502.502 0 0 1 .264-.132c.132-.065.264-.065.397-.065.462.065 1.189.131 1.387.723z" fill="#DCD2B4"/><path d="M40.365 130.038c-.33.593-.198 1.382.462 1.711 0 0 .066 0 .066.066a1.202 1.202 0 0 0 1.652-.46c.132-.33.132-.79-.132-1.12a.89.89 0 0 1-.198-.263c-.133-.065-.199-.197-.33-.197-.463-.066-1.124-.197-1.52.263zm19.422-32.444c-1.982-3.027-6.672-4.08-9.91-2.434-2.774 1.382-3.765 6.91-1.255 8.555 2.643 2.5.925 4.54-.462 7.239-1.585 2.895-2.576 5.988-3.832 9.081-.99 2.304-2.444 5.133-2.246 7.766.133 1.842 1.322 2.895 2.841 3.422.396.131 3.105-.263 5.285-2.567 3.369-3.488 6.804-9.871 7.795-12.7 2.048-6.319 3.7-15.4 1.784-18.362z" fill="#C8BEA0"/><path d="M51.595 97.924c-1.189 1.579-1.123 3.422.198 4.54 1.19.987 2.907.856 3.898-.329 0-.066.066-.066.066-.131.528-.856.66-1.843.264-2.764-.066-.264-.198-.461-.396-.658-.198-.264-.463-.461-.727-.658-.859-.659-2.576-.79-3.303 0z" fill="#F0E6D2"/><path d="M46.839 138.462c.066-.198.264-.46.33-.724.793-2.303.33-3.422-1.916-4.738a4.024 4.024 0 0 0-3.369-.33c-2.378 1.054-1.982 4.541 0 5.726l1.454.921c1.189.066 2.444.132 3.5-.855zm.066 5.001c-.066-.724 0-1.316-.463-1.842-.594-.264-1.123 0-1.783.131-7.333 8.819-13.939 23.889-19.356 33.958l1.19.394c3.632-3.29 8.587-13.425 10.965-17.636 3.501-6.055 6.408-8.621 9.447-15.005z" fill="#C8BEA0"/><path d="M28.672 176.565c.727.263 2.114.592 2.51 1.316l-.33.395c-1.585.263-4.228-.921-5.747-1.316-1.784-.527-3.105-1.119-3.105-1.58 0-.723.33-1.447.859-1.974-.132.132 2.048 1.777 2.048 1.777s3.633 1.316 3.765 1.382z" fill="#C8BEA0"/><path d="M38.78 138.922c-1.256-.79-3.502 5.265-4.757 7.897-1.453 3.028-1.85 2.962-3.17 6.12-1.322 3.357-7.994 20.401-7.994 20.401l.33 2.106 1.453.33 14.005-32.379c.066.066 1.388-3.685.132-4.475zM88.06 31.851c1.85-.065 5.285-.79 7.135-.92.066.328.66 7.37-1.717 8.16-.727.658-2.445.065-3.303-.132-1.388-1.053-2.379-5.133-2.114-7.108z" fill="#C8BEA0"/><path d="M77.69 38.103c-.86-.987-1.124-7.107-.992-8.292 1.123.066 4.823 2.962 5.681 3.29.463.527.133 4.74-.132 5.2-1.85.658-2.84.592-4.558-.198z" fill="#F0E6D2"/><path d="M96.252 32.444a19.933 19.933 0 0 0 .198 4.87c1.586.724 2.378.724 3.7 0 .396-.527.528-6.713.462-9.016l-4.36 4.146z" fill="#AAA082"/><path d="M87.862 33.233c.397.724-.198 4.475-.396 5.2-.264.92-1.189 1.447-2.048 1.184a3.227 3.227 0 0 0-.462-.198c-.132-.065-.264-.197-.397-.263-.528-.987-1.453-5.593-1.123-6.646.925-.264 3.568.46 4.426.723z" fill="#F0E6D2"/><path d="M96.384 4.014C92.222 1.58 86.872 1.382 82.247.79c-7.002-.922-24.706 2.895-29.199 9.937-2.047 3.159-2.18 8.818 0 11.977 2.577 3.817 6.805 5.002 11.165 5.66 5.35.855 9.314 0 12.948 4.606 1.915 2.435 4.558 3.356 7.398 3.488 1.652.066 7.862-.197 9.183-.526 3.17-.856 5.747-3.028 7.068-5.989 6.078-14.083-.594-23.691-4.426-25.929z" fill="#DCD2B4"/><path d="M94.006 16.452c-.793-.066-1.453.46-1.651 1.185-.529 1.25-.925 2.5-1.123 3.817-.133 1.382-.529 2.698-.793 4.014-.198.921-.595 2.896.99 2.896 1.586 0 1.784-2.172 2.841-2.37 1.057-.197.86 1.317 2.378 2.172 1.52.856 1.586-.526 1.718-.79.066-2.83-1.718-10.595-4.36-10.924z" fill="#C8BEA0"/><path d="M87.004 15.926c2.048 3.29-.199 7.107-3.7 8.423-2.774 1.053-6.672-.131-7.663-3.553-.528-1.843 0-4.41 1.321-5.726.33-.395.727-.79 1.19-1.053.594-.395 1.255-.724 1.915-.855 1.982-.46 4.889-.593 6.937 2.764z" fill="#FFF"/><path d="M84.758 17.44c.528.197.858.657.924 1.184-.132.79-.198 1.645-1.32 1.777-.794-.527-.595-1.316-.53-2.04 0-.527.397-.922.926-.922z" fill="#000"/><path d="M111.116 15.992c2.048 3.29-.198 7.107-3.7 8.423-2.774 1.053-6.672-.132-7.663-3.554-.528-1.842 0-4.409 1.322-5.725.33-.395.726-.724 1.189-1.053.594-.395 1.255-.724 1.915-.855 1.982-.461 4.889-.527 6.937 2.764z" fill="#FFF"/><path d="M107.813 17.505c.528.198.859.658.925 1.185-.133.79-.199 1.645-1.322 1.777-.792-.527-.528-1.317-.528-2.04 0-.527.396-.922.925-.922z" fill="#000"/><path d="M81.587 130.367c-4.823.46-7.597-3.553-10.834-6.712a71.18 71.18 0 0 1-9.645-11.714c-2.51-3.817-5.02-7.502-7.795-11.122-1.388-1.777-2.775-3.883-4.69-5.133-2.048-1.316-9.58-5.528-4.493-11.78s11.825 8.424 12.75 9.872c2.973 4.475 7.002 8.752 10.305 12.964 3.37 4.277 7.333 7.568 10.702 11.648 3.37 4.08 6.87 7.107 3.7 11.977zm-31.18-38.366c-1.058 2.106 3.368 7.634 4.623 9.279 2.246 3.093 4.757 6.054 7.2 9.016 2.115 2.5 4.03 5.133 6.012 7.7 1.784 2.237 4.69 7.37 7.928 7.567l1.915-1.316c-.528-3.159-4.227-5.989-6.143-8.49-2.312-2.96-4.492-6.054-6.804-9.08-1.982-2.503-11.693-16.52-14.732-14.677z" fill="#DCD2B4"/><path d="M47.17 87.723l-.794.263c-4.558-3.553-6.143-11.319-7.993-16.386-1.387-3.751-2.84-7.436-4.162-11.187-.99-2.764-2.51-6.713-2.246-9.806.066-.79 1.387-3.817 2.577-1.908 3.963 6.317 11.956 28.692 12.617 39.024z" fill="#C8BEA0"/><path d="M48.028 84.893c1.52 1.053 1.982 3.16 1.057 4.804a2.767 2.767 0 0 1-3.832.724c-.066 0-.066-.065-.132-.065-.793-.659-1.123-1.646-1.057-2.633 0-.263.066-.526.198-.724.133-.329.265-.592.529-.855.925-.79 2.048-1.185 3.237-1.25z" fill="#C8BEA0"/><path d="M83.502 138.725c-.858-.658-1.519-1.448-1.915-2.435a4.394 4.394 0 0 1 0-3.422c.33-.921 1.189-1.382 1.981-1.777.33-.131.661-.066.925.066.793.329 1.586.724 2.312 1.25 1.19.987 1.718 2.633 1.322 4.146-.066.132-.066.264-.132.33-.727.855-1.52 1.645-2.51 2.237-.595.395-1.19.197-1.983-.395z" fill="#AAA082"/><path d="M101.801 142.147l-.99 1.119c-.53.066-1.124 0-1.586-.33a294.696 294.696 0 0 0-6.21-3.487c-.925-.46-1.783-1.119-2.51-1.843-.397-.329-.66-.724-.66-1.25.131-.395.462-.46.858-.395 1.057 0 2.18.263 3.105.79 1.255.724 2.642 1.25 3.897 1.974 1.123.658 2.18 1.448 3.171 2.238.265.329.595.723.925 1.184zm-1.981 5.199c-.661.329-1.454.197-2.048-.197-.793-.461-1.586-.988-2.379-1.448-1.717-.987-3.369-2.04-4.888-3.29a16.804 16.804 0 0 1-1.982-1.712c-.462-.329-.66-.921-.396-1.448.198 0 .33 0 .528.066.529.264 1.057.46 1.652.527.264.066.462.131.726.263 1.718.987 3.634 1.777 5.22 2.961a16.783 16.783 0 0 1 2.84 2.435c.462.461.726 1.12.726 1.843zm-3.964.724c-2.444-.33-8.522-4.475-9.843-6.647.66-.263 1.387-.131 1.982.263l3.567 2.567c.726.526 1.453.987 2.18 1.448.99.46 1.717 1.316 2.114 2.369zm0-15.663c-.595.461-1.388.658-2.114.461-.397-.066-.727-.132-1.057-.263a47.134 47.134 0 0 0-6.144-1.777c-.198-.066-.396-.132-.528-.197.132-.264.264-.461.396-.659a3.237 3.237 0 0 1 2.51-.92c1.982.262 4.03.328 5.88 1.118 1.123.46 1.321.79 1.057 2.237z" fill="#C8BEA0"/></g></svg>