<svg width="40" height="42" viewBox="0 0 40 42" xmlns="http://www.w3.org/2000/svg"><g fill="none" fill-rule="evenodd"><path d="M12.917 40.953V29.224m5.127 11.729V29.224" stroke="#E54529" stroke-width=".8" stroke-linecap="round"/><path d="M36.843 27.994l2.233 2.194" stroke="#E54529" stroke-width="1.6" stroke-linecap="round"/><path d="M37.445 27.381c-2.598 3.3-7.429 3.907-10.789 1.355-3.36-2.553-3.978-7.297-1.38-10.598 2.599-3.301 7.43-3.908 10.79-1.355 3.36 2.552 3.978 7.297 1.38 10.598" fill="#FFDB5D"/><path d="M33.856 24.654c-1.066 1.353-3.046 1.602-4.424.555a3.06 3.06 0 0 1-.566-4.344c1.066-1.354 3.046-1.603 4.424-.556a3.061 3.061 0 0 1 .566 4.345" fill="#FFF4E3"/><path d="M32.989 23.996a2.082 2.082 0 0 1-2.887.362 1.997 1.997 0 0 1-.369-2.835 2.083 2.083 0 0 1 2.887-.363 1.998 1.998 0 0 1 .369 2.836" fill="#17242D"/><path d="M36.815 18.16a2.358 2.358 0 0 1-.435-3.347 2.458 2.458 0 0 1 3.407-.428" stroke="#FFDB5D" stroke-width=".8"/><path d="M31.722 30.1c-4.852 6.163-13.871 7.296-20.146 2.53-6.273-4.765-7.427-13.625-2.575-19.787L31.72 30.1z" fill="#FFDB5D"/><path d="M24.013 24.267c-2.239 2.844-6.402 3.367-9.298 1.168-2.895-2.2-3.428-6.289-1.188-9.133l10.486 7.965z" fill="#FECB43"/><path d="M8.965 12.888L12.813 8l5.638 4.283a4.616 4.616 0 0 1 1.732 2.724l1.606 7.643-12.824-9.762z" fill="#FFDB5D"/></g></svg>