<svg width="120" height="120" viewBox="0 0 120 120" xmlns="http://www.w3.org/2000/svg" xmlns:xlink="http://www.w3.org/1999/xlink"><defs><path id="a" d="M0 4.123h119.036v53.528H0z"/><path id="c" d="M3.84.971h29.796v29.732H3.841z"/></defs><g fill="none" fill-rule="evenodd"><g transform="translate(1 52.377)"><mask id="b" fill="#fff"><use xlink:href="#a"/></mask><path d="M119.036 30.887c0 14.782-26.649 26.764-59.52 26.764C26.649 57.651 0 45.67 0 30.887 0 16.107 26.65 4.123 59.516 4.123c32.871 0 59.52 11.983 59.52 26.764" fill="#FFE967" mask="url(#b)"/></g><path d="M95.778 77.228c-7.6-3.229-19.47-6.187-35.262-6.187-15.787 0-27.658 2.958-35.258 6.187-5.35 2.27-5.35 9.805 0 12.08 7.6 3.22 19.471 6.178 35.258 6.178 15.787 0 27.662-2.958 35.262-6.178 5.347-2.275 5.347-9.81 0-12.08" fill="#FFE967"/><path d="M62.206 83.767h-4.39a4.02 4.02 0 0 1-4.028-4.013v-49.15h12.436v49.15a4.013 4.013 0 0 1-4.018 4.013" fill="#336FC6"/><g transform="translate(41 12.464)"><mask id="d" fill="#fff"><use xlink:href="#c"/></mask><path d="M33.636 15.837c0 8.21-6.67 14.866-14.897 14.866S3.84 24.046 3.84 15.837c0-8.213 6.671-14.87 14.898-14.87 8.226 0 14.897 6.657 14.897 14.87" fill="#FF6187" mask="url(#d)"/></g></g></svg>