<svg xmlns="http://www.w3.org/2000/svg" width="80.555" height="67.618" viewBox="0.846 1.514 80.555 67.618"><defs><style/></defs><g id="ID0.6519905929453671" transform="translate(-118.7 -101.05) scale(.8145)"><path id="ID0.2171387574635446" fill="#703D00" stroke="none" d="M166.525 201c8.932 0 17.026 1.361 22.887 3.561 5.86 2.199 9.488 5.237 9.488 8.589 0 3.352-3.628 6.39-9.488 8.589-5.861 2.2-13.955 3.561-22.887 3.561s-17.026-1.361-22.887-3.561c-5.86-2.199-9.488-5.237-9.488-8.589 0-3.352 3.628-6.39 9.488-8.589 5.861-2.2 13.955-3.561 22.887-3.561z" transform="matrix(.84022 0 0 .9074 63.1 4.5)"/><path id="ID0.43220555409789085" fill="#A85B00" stroke="#A85B00" stroke-width="1.995" stroke-linecap="round" d="M197.8 176.4a471.469 471.469 0 0 1 31.55.5c2.626.132 6.619-1.583 6.45 1-.676 10.327-5.044 20.644-8.85 30.55-2.104 5.623-3.082 14.022-8.8 16.6-9.456 3.986-20.86 2.573-31.1 1-3.722-.599-6.05-4.022-8.1-6.7-3.451-4.497-5.951-9.711-8.15-14.5-3.71-8.179-9.069-16.385-10.2-24.9-.308-2.32 3.935-2.19 6.55-2.55 10.112-1.314 20.556-.828 30.65-1z" transform="matrix(1.10263 0 0 1 -23 -24.3)"/><path id="ID0.8022473398596048" fill="#703D00" stroke="none" d="M140.875 204.1c8.435 0 16.079 1.16 21.614 3.033 5.535 1.874 8.961 4.462 8.961 7.317 0 2.855-3.426 5.443-8.961 7.317-5.535 1.873-13.179 3.033-21.614 3.033s-16.079-1.16-21.614-3.033c-5.535-1.874-8.961-4.462-8.961-7.317 0-2.855 3.426-5.443 8.961-7.317 5.535-1.873 13.179-3.033 21.614-3.033z" transform="matrix(1.25347 0 0 1 20.9 -48.55)"/><path id="ID0.818717781919986" fill="#F0C444" stroke="#A85B00" stroke-width="1.995" stroke-linecap="round" d="M194.95 126.15c11.565.368 22.701 5.975 32.65 11.9 4.427 3.003 9.204 8.504 8.6 13.725-.606 5.21-4.645 7.902-12.148 10.621-7.504 2.72-17.866 4.404-29.302 4.404s-21.798-1.684-29.302-4.404c-7.503-2.719-12.61-5.283-12.148-10.621.675-7.078 7.814-12.407 13.65-16.325 8.528-4.919 18.346-9.61 28-9.3z" transform="matrix(1.17786 0 0 1.05627 -33.25 -7)"/></g></svg>