<svg xmlns="http://www.w3.org/2000/svg" width="116.646" height="151.671" viewBox="0.859 0.231 116.646 151.671"><defs><style/></defs><g id="ID0.5285904193297029" transform="translate(.55) scale(1.1025)"><g id="ID0.8156192279420793"><g id="ID0.8212421177886426"><g id="Bottom"><g id="Bottom_1_"><path id="ID0.26467505656182766" fill="#20891D" d="M47.989 114.262c-21.502 0-41.138-11.031-44.068-12.752 28.113-15.389 39.182-67.145 40.701-74.928 15.933 49.883 40.338 67.805 43.01 69.646-10.199 11.966-23.536 18.034-39.643 18.034z" transform="translate(-2.55 -.45) scale(1.15762)"/><path id="ID0.09849025495350361" d="M44.681 27.58c8.688 26.809 19.74 44.01 27.563 53.786 7.47 9.335 13.336 13.744 15.015 14.912-10.126 11.768-23.336 17.733-39.27 17.733-20.667 0-39.615-10.229-43.562-12.497 15.616-8.781 25.78-28.683 31.585-43.961 5.038-13.259 7.742-25.389 8.669-29.973m-.12-2.02S34.235 85.091 3.416 101.499c0 0 21.026 13.013 44.574 13.013 13.699 0 28.251-4.403 40.014-18.336-.001 0-26.503-16.786-43.443-70.616z" transform="translate(-2.55 -.45) scale(1.15762)"/></g><path id="Snow_10_" fill="#FFF" stroke="#000" stroke-width=".579" d="M102.324 106.83c-1.711-.821-7.132-1.237-7.928 1.05-.151.433.112.817.435 1.067 1.35 1.042-2.19 2.251-2.698 3.122-.339.577-.455 1.27-.52 1.926-.254 2.557-1.11 3.401-3.62 3.99-2.296.541-4.847 2.584-5.46 5.035-1.939-.107-3.847.08-4.567.281-1.125.315-2.045 1.01-2.92 1.748a36.62 36.62 0 0 0-1.339 1.47c-1.457 1.64-2.345 1.107-3.864 1.339-1.383.212-2.679.687-3.78 1.454a4.173 4.173 0 0 0-.663-.254c-3.539-1.01-6.766 1.98-10.443 1.145-1.684-.382-3.368-1.131-5.136-.671-.68.177-1.868.673-2.996.897-1.075-.794-1.672-1.885-2.707-2.967-2.007-2.102-5.573-1.572-7.753-.152-1.073.7-3.01-.44-4.279-.112-.08.022-.182.02-.268.032-.49-.208-1.012-.357-1.486-.488-1.173-.326-2.368-.849-3.556-.71a28.112 28.112 0 0 1-1.7-.817c-.512-.269-1.105-1.083-1.753-1.73 1.9.182 3.956-.217 5.16-1.762.074-.093-.02-.255-.137-.178-2.286 1.504-5.549.538-7.935-.343a14.72 14.72 0 0 0-1.758-.515 13.912 13.912 0 0 0-2.922-.622c-.589-.198-1.293-.224-1.857-.256-.767-.043-1.422-.31-2.091-.558-.771-.726-1.393-1.629-2.327-2.23-1.305-.84-2.204-1.533-2.297-2.954a2.1 2.1 0 0 1 .245-.092c.524-.15.976-.444 1.226-.928.577-1.117-3.824-1.83-6.1-.662-1.732.889-2.25 2.786-2.226 4.505.018 1.358 1.28 2.92 2.522 3.37 2.134.773 4.288.909 5.814 2.762.948 1.151 1.706 1.84 3.2 2.252.839.23 1.78.08 2.63-.058 5.403-.88 6.021 2.056 8.634 5.19 1.247 1.495 1.441 1.413 3.428 2.034.767.24 3.81 2.697 5.037 2.92 3.41.614 5.853-1.654 9.117-1.404 1.577.508 2.7 2.444 4.288 3.009 2.29.815 4.045-.063 6.205-.872 2.615-.98 6.118 1.072 8.945.976 2.255-.075 4.416-.903 6.175-2.291a3.99 3.99 0 0 0 .82-.87c.898.197 1.766.634 2.827.983 2.212.73 3.93-.236 5.656-1.621.989-.796 1.731-1.958 2.577-2.898 1.67-1.858 4.07-1.468 6.29-1.588 1.583-.087 2.785-1.068 3.167-2.56.146-.572.055-1.038-.178-1.434a9.03 9.03 0 0 1 .339-.742c1.37-2.576 4.604-2.093 6.91-3.217 1.694-.827 2.224-3.175 2.935-4.72.991-2.152 3.905-1.984 5.735-3.023 2.705-1.54 1.136-5.203-1.053-6.257z"/><path id="Snow_9_" fill="#FFF" stroke="#000" stroke-width=".579" d="M83.538 108.775c.076-.282-.281-.492-.49-.283-1.817 1.807-3.131 3.991-5.957 4.215-2.175.17-4.309-1.398-6.478-.45-.794.348-1.398.774-2.07 1.304-1.471 1.159-2.44.69-4.038.244-1.499-.418-3.269.87-4.218 1.846-.112.114.031.306.171.222.791-.47 1.583-.607 2.378-.57 1.527.602 3.19 1.74 4.822 1.74.455 0 .937-.219 1.325-.446 1.373-.804 2.61-1.567 4.286-1.597 2.654-.046 5.385.534 7.043-1.468 1.573-1.067 2.71-2.844 3.226-4.757z"/><path id="Snow_8_" fill="#FFF" stroke="#000" stroke-width=".579" d="M51.526 109.097c-4.38 1.289-8.812-2.302-13.402-2.27-2.84.02-5.415-.77-8.007-1.825-1.505-.614-10.046 1.143-9.442-2.41.138-.806-.34-1.63-1.237-1.626-4.936.027-1.59 6.656 1.002 7.953 3.246 1.622 9.153-.271 12.195 2.111 4.339 3.398 5.862-.243 10.824-.423 3.19.844 5.1 1.389 8.35-.836.333-.227.135-.797-.283-.674z"/><path id="Snow_7_" fill="#FFF" stroke="#000" stroke-width=".579" d="M85.573 93.315c-.909-.436-1.77-.19-2.353.617l-.293.409c-.27.375-.194.85.037 1.22-.664.218-1.313.477-1.839.76-1.839.988-2.743 2.873-5.122 3.068-2.216.183-4.117.622-6.373.44a4.686 4.686 0 0 0-1.457.12c-.947-.233-1.854-.466-2.563-.615-3.055-.645-5.252 2.457-8.53 1.823-2.303-.444-3.812.079-5.75 1.241-.179.108-.059.37.138.328 7.069-1.523 2.8 1.609 7.206 1.195 3.095-.288 5.733-2.317 9.035-.676a9.28 9.28 0 0 0 3.087.899c2.203 2.49 6.914.224 9.518-.343 3.687-.807 6.536-2.267 6.969-6.32.785-1.539.558-3.073-1.71-4.166z"/><g id="Lights_4_"><path id="String_3_" d="M77.228 86.298c-.556.106-.308.911.23.835 2.995-.427 2.107 3.738 1.648 5.23-.631 2.045-2.253 3.633-3.805 5.012-3.223 2.866-7.365 4.619-11.538 5.528-8.235 1.796-17.178-.379-24.14-4.93-5.648-3.69-8.704-10.868-15.311-13.036-5.08-1.666-8.19 1.77-8.193 6.571 0 .145.208.169.248.033 1.307-4.34 2.302-7.358 7.772-5.976 4.228 1.069 6.937 5.154 9.66 8.23 5.371 6.067 13.093 9.511 21.06 10.375 7.797.845 15.847-1.39 21.731-6.639 2.312-2.062 3.965-4.84 3.967-7.997.004-2.112-1.159-3.649-3.329-3.236z" transform="translate(-2.55 -.45) scale(1.15762)"/><g id="Light_17_"><path id="Base_8_" fill="#B7B7B7" stroke="#000" stroke-width=".579" d="M14.542 104.378c-.326-.115-.456-.586-.293-1.055h0c.164-.469.56-.758.887-.643l1.629.568c.326.114.457.587.294 1.055h0c-.164.468-.561.758-.887.644l-1.63-.57z"/><path id="Light_18_" fill="#EA0000" stroke="#000" stroke-width=".579" d="M12.92 104.786c-1.494-.822-2.693-1.805-2.361-2.753.331-.948 1.876-.969 3.562-.681 1.707.287 2.382 1.694 2.052 2.642-.33.948-1.734 1.63-3.253.792z"/><path id="Highlight_10_" fill="#FFF" d="M14.488 88.812c-.785-.338-1.225-.21-1.158-.405.07-.196.271-.242 1.096-.016.837.229 1.288.629 1.221.824-.069.198-.36-.062-1.159-.403z" transform="translate(-2.55 -.45) scale(1.15762)"/></g><g id="Light_19_"><path id="Base_9_" fill="#B7B7B7" stroke="#000" stroke-width=".579" d="M33.797 101.719c.263-.225.735-.102 1.062.273h0c.324.375.377.863.113 1.089l-1.306 1.128c-.261.224-.736.103-1.061-.271h0c-.323-.377-.375-.866-.114-1.09l1.306-1.13z"/><path id="Light_20_" fill="#FFF533" stroke="#000" stroke-width=".579" d="M34.253 100.11c1.458-.885 2.908-1.434 3.563-.672.657.76-.097 2.11-1.187 3.427-1.102 1.335-2.658 1.217-3.316.458-.655-.76-.544-2.315.94-3.214z"/><path id="Highlight_11_" fill="#FFF" d="M33.045 88.888c.685-.512.793-.958.929-.802.135.158.074.355-.534.957-.617.61-1.188.802-1.324.646-.135-.157.235-.281.929-.801z" transform="translate(-2.55 -.45) scale(1.15762)"/></g><g id="Light_21_"><path id="Base_10_" fill="#B7B7B7" stroke="#000" stroke-width=".579" d="M48.524 118.457c-.193.286-.681.29-1.095.013h0c-.41-.278-.589-.737-.393-1.022l.966-1.428c.195-.286.686-.29 1.098-.015h0c.41.28.587.738.392 1.023l-.968 1.429z"/><path id="Light_22_" fill="#FF6D00" stroke="#000" stroke-width=".579" d="M48.504 120.13c-1.179 1.231-2.435 2.14-3.266 1.575-.834-.564-.455-2.062.255-3.618.716-1.576 2.25-1.868 3.081-1.305.831.563 1.129 2.095-.07 3.347z"/><path id="Highlight_12_" fill="#FFF" d="M42.366 102.537c-.527.672-.517 1.131-.688 1.016-.172-.117-.164-.324.267-1.062.437-.751.938-1.084 1.11-.969.171.116-.154.331-.689 1.015z" transform="translate(-2.55 -.45) scale(1.15762)"/></g><g id="Light_23_"><path id="Base_11_" fill="#B7B7B7" stroke="#000" stroke-width=".579" d="M68.715 118.327c.012-.345.426-.607.922-.59h0c.498.02.89.316.874.66l-.067 1.724c-.016.346-.43.608-.926.592h0c-.496-.023-.89-.317-.873-.662l.07-1.724z"/><path id="Light_24_" fill="#EA0000" stroke="#000" stroke-width=".579" d="M67.849 116.894c.35-1.67.938-3.104 1.942-3.062 1.006.038 1.475 1.512 1.694 3.208.222 1.716-.928 2.773-1.93 2.735-1.003-.04-2.064-1.185-1.706-2.881z"/><path id="Highlight_13_" fill="#FFF" d="M63.145 101.83c.095-.85-.156-1.233.051-1.226.207.009.309.188.333 1.043.024.868-.226 1.415-.432 1.408-.208-.007-.045-.362.048-1.225z" transform="translate(-2.55 -.45) scale(1.15762)"/></g><g id="Light_25_"><path id="Base_12_" fill="#B7B7B7" stroke="#000" stroke-width=".579" d="M91.132 101.927c.222-.263.708-.213 1.09.11h0c.377.324.5.797.275 1.06l-1.12 1.312c-.228.263-.714.212-1.094-.109h0c-.373-.324-.5-.799-.274-1.062l1.123-1.311z"/><path id="Light_26_" fill="#0074FF" stroke="#000" stroke-width=".579" d="M91.338 100.267c1.31-1.093 2.66-1.856 3.42-1.2.767.652.223 2.1-.656 3.567-.887 1.485-2.446 1.605-3.207.953-.763-.653-.89-2.209.443-3.32z"/><path id="Highlight_14_" fill="#FFF" d="M82.647 88.812c.601-.609.641-1.065.799-.932.157.136.126.34-.385 1.026-.518.696-1.053.972-1.21.838-.158-.136.189-.312.796-.932z" transform="translate(-2.55 -.45) scale(1.15762)"/></g></g></g><g id="Middle"><g id="Middle_1_"><path id="ID0.12049101293087006" fill="#20891D" d="M46.83 78.137c-13.679-.001-24.945-3.843-27.142-4.642C37.042 58.016 40.129 24.281 40.55 18.204c21.516 43.534 34.163 50.788 36.829 51.888-8.646 5.339-18.919 8.045-30.545 8.045h-.004z" transform="translate(-2.55 -.45) scale(1.15762)"/><path id="ID0.2506782151758671" d="M40.731 19.133c20.267 40.789 32.652 49.307 36.117 50.99-8.521 5.152-18.615 7.764-30.018 7.764-12.962 0-23.752-3.461-26.664-4.486 16.421-15.003 19.929-46.32 20.565-54.268m-.374-1.884S38.66 56.648 19.21 73.583c0 0 12.2 4.804 27.62 4.804 9.839 0 20.987-1.954 31.122-8.358 0-.001-13.254-3.262-37.595-52.78z" transform="translate(-2.55 -.45) scale(1.15762)"/></g><path id="Snow_3_" fill="#FFF" stroke="#000" stroke-width=".579" d="M76.423 69.119c-.145-.522-.608-1.065-1.167-1.167a99.17 99.17 0 0 1-.573-.103c-.58-.104-1.187.149-1.348.765-.446 1.71-2.246 1.579-3.731 2.295-.679.328-1.371.832-1.762 1.494-1.064 1.8-2.607.836-4.206 1.29-2.855.813-3.981 3.313-7.222 3.24-2.27-.052-3.78.855-4.917 2.719-.125.202.078.443.299.388 2.173-.543 3.716-.437 5.916-.304 1.023.062 2.227.176 3.168-.374 1.49-.872 2.597-2.309 4.596-2.109 1.558.155 2.547-.034 3.854-.902.916-.606 1.178-1.955 2.294-2.345.922-.324 1.818-.637 2.718-1.027 1.625-.705 2.557-2.146 2.081-3.86z"/><path id="Snow_2_" fill="#FFF" stroke="#000" stroke-width=".579" d="M61.079 67.644c-1.624 3.036-4.94.171-7.192.604-1.877.361-3.097 1.552-4.775 1.661a1.61 1.61 0 0 0-.267-.09 4.554 4.554 0 0 0-1.252-.113 5.495 5.495 0 0 1-.43-.152c-1.8-.739-3.766 1.424-5.242 2.004-.222.088-.462.14-.685.201-1.342-.118-2.72-.591-3.9-.969-.135-.044-.251.118-.182.235 1.044 1.767 2.674 2.904 4.626 3.457 1.049.297 2.125.164 3.127-.214.652-.248 1.472-1.007 2.257-1.316 1.403.412 2.862 1.443 4.35.18 1.328-1.13 2.419-2.789 4.29-2.827.997-.02 1.882.007 2.866-.14 1.36-.204 2.204-1.27 2.6-2.442.037-.112-.136-.183-.191-.08z"/><path id="Snow_1_" fill="#FFF" stroke="#000" stroke-width=".579" d="M87.11 76.597c-1.685-1.099-3.39-.034-5.113.117-.536.047-2.456 2.61-2.62 3.98-.169 1.389-5.28 2.59-5.68 2.799-2.573 1.336-3.293 1.852-6.46 1.796-.137-.002-.261.014-.394.017-.18-.133-3.16.47-4.505 1.055-2.803 1.218-2.367.232-4.825.638-3.501.578-6.316 1.584-10.11.989-1.291-.202-2.999-.426-4.282-.082-.217.058-.423.1-.63.144-1.724-.03-3.795-.172-5.7-.556-1.541-.604-3.047-1.458-4.825-2.199l-.001-.002c-1.72-1.92-7.945-2.658-8.185-2.801-.04-.025-.337-1.706-1.296-1.44-2.009.557-6.581 1.784-4.773 4.872.58.988 2.1.935 3.065.944 2.057.025 4.543 2.163 6.682 1.25a2.454 2.454 0 0 1 1.618-.12l.772.305c.604.317 7.61 8.27 10.926 6.304 3.287-1.95 5.764-2.565 7.936-1.573 2.579 1.176 5.563 3.22 8.02 2.724 2.483-.501 4.338-2.08 6.45.126 1.037 1.086 2.37 1.001 3.656.73 1.011-.216 1.683-1.507 2.168-2.292.675-1.097 5.635-2.117 5.777-2.262.974-.218 2.076-.649 2.365-1.695.046-.17.069-.365.094-.558 1.138-1.263 4.034-3.084 4.086-3.114 1.376-.495 2.784-1.115 3.818-1.966.574-.235 1.116-.55 1.71-.985 1.155-.845 2.19-1.906 2.386-3.377.211-1.565-.892-2.964-2.13-3.768z"/><g id="Lights_3_"><path id="String_2_" d="M70.245 61.517c-1.325-.729-3.031.854-3.703 1.804-4.334 6.123-9.851 9.786-17.421 10.628-3.438.383-7.144-.062-10.497-.824-3.416-.778-6.02-2.761-8.812-4.728-1.364-.962-3.986-2.562-5.725-1.569-1.418.81-1.689 1.797-1.042 3.229.072.158.322.045.276-.116-.033-2.718 2.375-3.304 4.178-2.18.462.223.909.473 1.339.751.884.532 1.699 1.193 2.522 1.812a21.96 21.96 0 0 0 4.856 2.781c3.883 1.604 8.765 1.923 12.903 1.634a23.923 23.923 0 0 0 11.642-4.017c1.396-.944 2.6-2.146 3.718-3.397a26.496 26.496 0 0 0 1.477-1.831c.32-.425.635-.854.943-1.286l.683-.893c1.19-1.566 3.148-1.537 2.877 1.557-.207.318.338.633.508.296.541-1.072 1.002-2.702-.722-3.651z" transform="translate(-2.55 -.45) scale(1.15762)"/><g id="Light_11_"><path id="Base_5_" fill="#B7B7B7" stroke="#000" stroke-width=".579" d="M81.017 70.58c.313-.145.736.104.944.554h0c.21.452.125.934-.188 1.079l-1.566.727c-.313.145-.737-.103-.946-.555h0c-.208-.45-.123-.933.19-1.077l1.566-.727z"/><path id="Light_12_" fill="#FFF533" stroke="#000" stroke-width=".579" d="M81.895 69.16c1.645-.451 3.19-.582 3.612.33.423.912-.674 2.004-2.081 2.97-1.428.982-2.892.442-3.315-.47-.423-.91.113-2.375 1.784-2.83z"/><path id="Highlight_7_" fill="#FFF" d="M73.599 62.417c.799-.304 1.026-.703 1.114-.516.087.188-.026.362-.776.773-.761.418-1.362.446-1.45.259-.089-.189.301-.204 1.112-.516z" transform="translate(-2.55 -.45) scale(1.15762)"/></g><g id="Light_15_"><path id="Base_7_" fill="#B7B7B7" stroke="#000" stroke-width=".579" d="M40.339 86.43c-.213.273-.7.245-1.093-.06h0c-.391-.305-.538-.773-.324-1.046l1.06-1.361c.212-.272.7-.246 1.095.06h0c.39.306.536.775.323 1.045l-1.061 1.363z"/><path id="Light_16_" fill="#0074FF" stroke="#000" stroke-width=".579" d="M40.207 88.097c-1.257 1.153-2.571 1.973-3.363 1.355-.793-.617-.317-2.088.494-3.592.82-1.526 2.369-1.714 3.162-1.098.793.615.986 2.166-.293 3.335z"/><path id="Highlight_9_" fill="#FFF" d="M35.311 74.755c-.571.636-.59 1.095-.754.968-.164-.128-.142-.334.336-1.043.485-.719 1.008-1.019 1.172-.893.164.128-.175.32-.754.968z" transform="translate(-2.55 -.45) scale(1.15762)"/></g><g id="Light_13_"><path id="Base_6_" fill="#B7B7B7" stroke="#000" stroke-width=".579" d="M66.773 82.752c.246.243.16.725-.19 1.078h0c-.35.354-.833.443-1.079.198l-1.224-1.216c-.246-.243-.16-.726.19-1.08h0c.35-.352.833-.44 1.077-.197l1.226 1.217z"/><path id="Light_14_" fill="#FF6D00" stroke="#000" stroke-width=".579" d="M68.412 83.082c.994 1.386 1.652 2.789.944 3.502-.709.712-2.113.065-3.508-.922-1.417-.995-1.419-2.557-.712-3.27.706-.712 2.267-.72 3.276.69z"/><path id="Highlight_1_" fill="#FFF" d="M60.534 72.678c-.518-.681-.965-.785-.81-.923.157-.137.355-.077.962.526.614.611.811 1.181.656 1.318-.155.138-.281-.231-.808-.921z" transform="translate(-2.55 -.45) scale(1.15762)"/></g></g></g><g id="Top"><g id="Top_1_"><path id="ID0.985733509529382" fill="#20891D" d="M34.373 50.762c-3.416 0-5.915-.272-6.865-.395 11.272-14.876 8.736-30.673 7.216-40.142l-.242-1.523c-.12-.766-.539-2.33-.884-3.555C53.735 36.904 63.239 40.935 65.67 41.424c-10.333 7.705-22.688 9.338-31.297 9.338.001 0 .001 0 0 0z" transform="translate(-2.55 -.45) scale(1.15762)"/><path id="ID0.27076679933816195" d="M34.272 6.673c18.319 28.606 27.535 33.939 30.805 34.876-10.187 7.385-22.256 8.963-30.704 8.963-2.973 0-5.25-.208-6.406-.341 11.036-14.858 8.518-30.551 7.003-39.985-.084-.526-.166-1.034-.242-1.522-.071-.461-.249-1.205-.456-1.991M32.866 3.52s1.161 3.888 1.369 5.221c1.471 9.438 4.947 26.112-7.186 41.815 0 0 2.871.456 7.324.456 8.025 0 21.19-1.48 31.961-9.778 0 0-.036.005-.109.005-1.087 0-10.415-1.155-33.359-37.719z" transform="translate(-2.55 -.45) scale(1.15762)"/></g><path id="Snow_6_" fill="#FFF" stroke="#000" stroke-width=".579" d="M76.502 46.876c-2.467-3.247-8.616-3.644-12.389-2.864-1.824.377-3.913 3.105-1.815 4.522.94.636-.143.305-1.086.72-.78.342-1.236.7-1.808 1.178-1.297.395-2.61.743-3.92 1.098-1.835-.681-3.888-1.116-5.667.055-1.729 1.142-3.612 2.652-5.774 2.788-2.171.136-4.29-.917-6.371-.777-2.056.138-4.987-.608-6.884.022-2.9.963-7.955 3.987-2.939 6.926 1.929 1.13 5.087-1.156 7.32-.338.524.192 1.258.19 1.798.042 2.174-.599 3.813-.932 6.102-.414 2.23.505 4.195-1 6.304-1.716.71-.096 2.34-.34 2.453-.327 1.057.126 2.387-.444 3.321-.8 1.62-.621 3.195.019 4.733-.866 1.52-.875 3.986-2.608 5.218-3.02 1.83-.611 3.023-.553 4.616-1.683 2.391-1.696 4.937-.204 6.79-3.047.258-.4.298-1.105-.002-1.499z"/><path id="Snow_5_" fill="#FFF" stroke="#000" stroke-width=".579" d="M57.377 34.508c-1.242.517-2.22 1.567-2.81 2.755-.206.411-2.002.15-2.39.13-.73-.033-1.457.403-2.046.773-1.668 1.053-2.307 2.296-4.442 2.733-1.398.288-2.263.95-2.67 2.291-.022.075.05.127.118.117 2.034-.329 4.377.15 6.279-.557.672-.249 1.178-.719 1.678-1.213 1.28-1.264 2.504-.378 3.903-.777 2.008.077 4.53-1.323 5.652-2.563 2.11-2.33-.928-4.665-3.272-3.689z"/><path id="Snow_4_" fill="#FFF" stroke="#000" stroke-width=".579" d="M44.898 31.334c.03-.143-.062-.25-.2-.264-.874-.094-1.465.24-2.356-.082-.77-.28-1.595-.624-2.433-.43-.921.215-1.476.798-2.028 1.527a2.01 2.01 0 0 0-.253.513 1.016 1.016 0 0 0-.067.192c-.252.095-.492.203-.694.404-1.418 1.417.362 3.763 2.149 3.101.745-.275 1.258-.702 1.715-1.35.182-.258.348-.53.552-.77.255-.301.674-.39.94-.71.083-.1.15-.218.204-.34 1.12-.022 2.214-.61 2.47-1.791z"/><g id="Lights_2_"><path id="String_1_" d="M58.844 35.198c-1.536-1.143-3.171-.229-4.56.939-2.195 1.846-3.825 4.074-5.109 6.625-1.487 2.954-2.209 6.25-4.761 8.526-3.397 3.03-8.835 3.491-12.877 5.499-2.273 1.13-6.016 3.389-3.355 5.914.171.164.396-.076.254-.252-3.751-4.632 11.4-7.359 14.215-9.136 2.716-1.715 4.409-3.722 5.617-6.592.919-2.182 1.842-4.321 3.134-6.312.7-1.078 1.588-1.966 2.472-2.883.441-.44.919-.837 1.432-1.193.829-.722 4.399-1.479 2.867.355-.21.195.059.511.297.384.634-.336 1.294-1.189.374-1.874z" transform="translate(-2.55 -.45) scale(1.15762)"/><g id="Light_4_"><path id="Base" fill="#B7B7B7" stroke="#000" stroke-width=".579" d="M48.967 61.732c0 .345-.404.625-.9.625h0c-.496 0-.898-.28-.898-.625v-1.726c0-.345.403-.625.898-.625h0c.497 0 .9.28.9.625v1.726z"/><path id="Light_1_" fill="#EA0000" stroke="#000" stroke-width=".579" d="M49.887 63.128c-.283 1.683-.814 3.137-1.819 3.137s-1.534-1.455-1.82-3.137c-.289-1.709.815-2.81 1.82-2.81 1.003 0 2.107 1.101 1.819 2.81z"/><path id="Highlight_2_" fill="#FFF" d="M42.949 54.55c-.06.852.208 1.227 0 1.227-.207 0-.317-.176-.376-1.029-.06-.866.168-1.424.376-1.424s.059.361 0 1.226z" transform="translate(-2.55 -.45) scale(1.15762)"/></g><g id="Light_5_"><path id="Base_2_" fill="#B7B7B7" stroke="#000" stroke-width=".579" d="M29.579 69.089c-.34.069-.694-.273-.792-.759h0c-.097-.487.097-.937.436-1.005l1.692-.34c.338-.068.692.271.79.758h0c.099.487-.096.937-.435 1.005l-1.691.34z"/><path id="Light_6_" fill="#FF6D00" stroke="#000" stroke-width=".579" d="M28.391 70.267c-1.705.053-3.236-.18-3.435-1.166-.198-.984 1.124-1.79 2.717-2.402 1.617-.62 2.916.244 3.113 1.23.198.985-.663 2.284-2.395 2.338z"/><path id="Highlight_4_" fill="#FFF" d="M26.628 58.712c-.847.11-1.162.445-1.203.242-.041-.203.11-.345.935-.571.837-.229 1.43-.116 1.47.088.041.203-.341.129-1.202.241z" transform="translate(-2.55 -.45) scale(1.15762)"/></g><g id="Light_3_"><path id="Base_1_" fill="#B7B7B7" stroke="#000" stroke-width=".579" d="M58.91 45.852c.31.15.387.635.17 1.082h0c-.217.447-.644.686-.955.535l-1.553-.753c-.311-.15-.386-.635-.169-1.081h0c.217-.447.644-.688.955-.537l1.553.754z"/><path id="Light_2_" fill="#FFF533" stroke="#000" stroke-width=".579" d="M60.567 45.633c1.39.988 2.47 2.1 2.03 3.005-.438.904-1.978.745-3.617.267-1.665-.484-2.173-1.958-1.735-2.861.44-.904 1.912-1.417 3.322-.411z"/><path id="Highlight_3_" fill="#FFF" d="M53.166 41.759c.74.425 1.194.348 1.104.536-.091.186-.297.208-1.089-.11-.806-.325-1.209-.773-1.118-.96.091-.187.349.103 1.103.534z" transform="translate(-2.55 -.45) scale(1.15762)"/></g></g><g id="Lights"><path id="String" d="M46.807 22.303c-3.227.688-3.742 5.114-5.313 7.469-1.58 2.368-3.463 4.639-6.218 5.614-1.185.419-2.375.838-3.191 1.839-1.097 1.347-.23 3.571 1.443 2.623.276-.157-.234-.433-.542-.336-1.257-.203-.501-2.135.648-2.606a8.49 8.49 0 0 1 1.362-.593c.608-.229 1.222-.425 1.817-.688 1.82-.805 3.202-2.571 4.375-4.103 1.304-1.702 2.088-3.471 2.92-5.419.483-1.129 1.91-4.164 3.653-2.776.837.666.857 2.387.888 3.343.014.414.649.417.645 0-.016-1.33-.313-4.83-2.487-4.367z" transform="translate(-2.55 -.45) scale(1.15762)"/><g id="Light_7_"><path id="Base_3_" fill="#B7B7B7" stroke="#000" stroke-width=".579" d="M41.538 40.964c-.22.267-.71.226-1.091-.09h0c-.384-.316-.516-.789-.295-1.056l1.1-1.329c.219-.266.708-.226 1.09.09h0c.383.316.516.789.296 1.056l-1.1 1.329z"/><path id="Light_8_" fill="#EA0000" stroke="#000" stroke-width=".579" d="M41.358 42.628c-1.29 1.115-2.626 1.9-3.402 1.259-.774-.639-.255-2.099.597-3.577.864-1.501 2.417-1.647 3.191-1.007.776.64.924 2.191-.386 3.325z"/><path id="Highlight_5_" fill="#FFF" d="M36.355 35.43c-.588.62-.621 1.078-.782.946-.16-.132-.132-.337.365-1.032.506-.705 1.038-.991 1.198-.859.16.132-.184.316-.781.945z" transform="translate(-2.55 -.45) scale(1.15762)"/></g><g id="Light_9_"><path id="Base_4_" fill="#B7B7B7" stroke="#000" stroke-width=".579" d="M51.813 26.05c.346-.024.648.362.679.858h0c.03.497-.222.915-.568.937l-1.721.107c-.346.02-.65-.364-.68-.86h0c-.03-.494.223-.914.569-.935l1.721-.108z"/><path id="Light_10_" fill="#0074FF" stroke="#000" stroke-width=".579" d="M53.15 25.043c1.695.18 3.181.618 3.243 1.622.063 1.003-1.356 1.62-3.018 2.009-1.687.395-2.855-.64-2.917-1.642-.063-1.001.969-2.17 2.692-1.989z"/><path id="Highlight_6_" fill="#FFF" d="M47.891 24.389c.854.007 1.212-.283 1.225-.075.013.207-.156.327-1.003.438-.861.112-1.433-.08-1.445-.288-.014-.206.354-.08 1.223-.075z" transform="translate(-2.55 -.45) scale(1.15762)"/></g></g><g id="Star_2_"><path id="Star" fill="#FFF533" stroke="#000" stroke-width=".579" d="M46.966 15.85c-.893 1.473-6.874-.6-6.874-.6s-2.71 5.72-4.39 5.325c-1.68-.395-1.555-6.723-1.555-6.723s-6.277-.81-6.42-2.529c-.144-1.72 5.913-3.557 5.913-3.557s-1.17-6.22.421-6.888c1.592-.668 5.21 4.525 5.21 4.525s5.555-3.035 6.681-1.727c1.127 1.306-2.692 6.353-2.692 6.353s4.602 4.344 3.706 5.82z"/><path id="Star_1_" fill="#FFF" d="M38.814 11.87c-.388.64-2.984-.26-2.984-.26s-1.176 2.483-1.906 2.311c-.729-.171-.675-2.917-.675-2.917s-2.725-.352-2.786-1.098c-.062-.747 2.567-1.544 2.567-1.544s-.508-2.7.182-2.99c.691-.29 2.262 1.964 2.262 1.964s2.411-1.317 2.9-.75c.489.568-1.168 2.758-1.168 2.758s1.997 1.885 1.608 2.526z" transform="translate(-2.55 -.45) scale(1.15762)"/></g></g></g></g></g></svg>