<svg xmlns="http://www.w3.org/2000/svg" width="211.777" height="32.578" viewBox="-0.247 0.223 211.777 32.578"><defs><style/></defs><g id="ID0.8779984749853611" transform="matrix(.95 0 0 .95 -.5 -.15)"><path id="ID0.6018807697109878" fill="#FFF" stroke="#E3DEEE" d="M513.2 535.9c10.8-.7 453.2 0 458.6 0 6.9 0 1.4-10.1-10-16.1-18.7-9.8-34.1-4-35.1-5.4-.8-1.1 4.4-23.4-36.3-30.3-29.2-4.9-52.3-2.9-91.3 10.3-9.9-6.6-45.7-29.2-100.5-29.8-62.6-.8-109.5 41.9-114.2 45.9-7.1.3-19.2 1.8-34.5 5.9-13.8 3.7-26.5 9.9-34.9 14.6-4.5 2.5-5 4.9-1.8 4.9z" transform="translate(-242.3 -220.2) scale(.47562)"/><path id="ID0.37631497299298644" fill="#E3DEEE" d="M720.8 520.4c25.1-1.2 49.5-16.8 78.3-26-9.9-6.6-45.7-29.2-100.5-29.8-62.6-.8-109.5 41.9-114.2 45.9 43.8-1.2 104.4 11.4 136.4 9.9z" transform="translate(-242.3 -220.2) scale(.47562)"/></g></svg>