<svg width="120" height="120" viewBox="0 0 120 120" xmlns="http://www.w3.org/2000/svg" xmlns:xlink="http://www.w3.org/1999/xlink"><defs><path id="a" d="M.177.27h11.71v5.038H.178z"/></defs><g fill="none" fill-rule="evenodd"><path d="M51.868 113.22c-1.59.945-2.747 2.93-1.386 4.559 1.029 1.144 2.543.213 3.694-.27 1.271-.603 2.728-1.037 3.877-1.824.744-.516 1.615-1.036 2.116-1.805.159-.24.23-.501.176-.66h-8.477zm18.11 0c1.59.945 2.745 2.93 1.384 4.559-1.028 1.144-2.543.213-3.693-.27-1.272-.603-2.727-1.037-3.876-1.824-.745-.516-1.615-1.036-2.122-1.805-.153-.24-.227-.501-.172-.66h8.479z" fill="#5B5683"/><path fill="#FDDFBB" d="M49.944 90.112l1.726 23.145h8.748l.333-16.61h.256l.33 16.61h8.749l1.726-23.145z"/><path d="M59.863 37.464c.52-.52 1.225-1.23 1.225-1.23s.58.648 1.122 1.179l-2.347.051zm28.44 35.534c-.003-.046-.003-.09-.005-.136l-.002-.064v-.01c0-.006.002.004 0-.013l-.001-.02-.004-.033c-.008-.05-.016-.096-.02-.145a1.084 1.084 0 0 0-.022-.145c-.014-.05-.023-.095-.037-.149-.005-.024-.01-.05-.017-.074l-.027-.074a2.765 2.765 0 0 0-.053-.147l-.067-.148-.033-.07-.045-.073c-.027-.044-.052-.097-.088-.14-.12-.184-.266-.346-.4-.508a2.7 2.7 0 0 1-.344-.487 2.021 2.021 0 0 1-.182-.547c-.011-.053-.015-.114-.023-.17l-.011-.087-.004-.023c-.002-.015.002.011.002.006v-.01l-.002-.04-.002-.158-.002-.04.002-.038.006-.078c.017-.206.063-.398.149-.589.084-.19.212-.383.352-.615a2.8 2.8 0 0 0 .348-.827c.017-.076.028-.156.042-.236l.01-.057.005-.063.006-.128.006-.125-.004-.101-.002-.1-.002-.05v-.024s-.004-.053-.004-.036l-.004-.017a2.927 2.927 0 0 0-.239-.943c-.038-.074-.074-.152-.12-.224a1.76 1.76 0 0 0-.134-.214l-.073-.1c-.024-.031-.05-.06-.074-.092l-.073-.09-.069-.082c-.388-.442-.537-.7-.58-1.192l-.007-.053-.003-.027-.002-.011c-.004-.014.007.047.004.017l-.002-.084v-.084l-.002-.042.002-.04.015-.158a2.64 2.64 0 0 0 .03-.145c.048-.186.14-.356.282-.592l.116-.19.027-.05.034-.057.062-.11a4.39 4.39 0 0 0 .122-.252c.034-.092.074-.18.101-.276l.042-.145c.012-.05.027-.097.03-.145l.028-.15c.007-.05.017-.097.019-.153.005-.104.013-.219.013-.323l-.008-.22v-.028l-.001-.013c0-.021.005.028-.004-.052l-.008-.07-.019-.141-.021-.141-.034-.143a2.044 2.044 0 0 0-.08-.29c-.035-.095-.068-.194-.115-.285l-.07-.141c-.022-.048-.05-.09-.078-.136-.025-.041-.051-.087-.08-.127l-.084-.12a3.213 3.213 0 0 0-.168-.217c-.029-.036-.056-.065-.08-.097l-.077-.09-.067-.08c-.023-.025-.046-.055-.063-.076-.033-.048-.075-.095-.1-.135l-.042-.061-.03-.06c-.008-.018-.025-.037-.033-.057a.69.69 0 0 0-.02-.057c-.022-.036-.027-.078-.043-.118l-.007-.028-.008-.017v-.012c-.002-.015-.004-.032-.008-.048a.178.178 0 0 0-.011-.045l-.014-.11-.015-.11-.006-.056c-.001-.016.012.08.006.036v-.029c0-.05 0-.1-.002-.15.004-.046.012-.088.016-.132 0-.023.005-.04.01-.06a.268.268 0 0 0 .012-.06c.002-.017.01-.034.016-.053l.017-.055c.011-.036.034-.073.048-.11l.065-.123.042-.074.023-.036.027-.042.11-.185c.02-.034.04-.065.062-.105l.067-.118.034-.059.03-.066.066-.138c.022-.041.04-.097.059-.144l.059-.15c.03-.106.06-.212.084-.32.023-.106.04-.214.058-.323.011-.114.013-.238.017-.356l.004-.087-.004-.056-.004-.106-.002-.107a2.053 2.053 0 0 0-.006-.069l-.002-.017-.003-.038-.012-.074-.023-.145a1.12 1.12 0 0 0-.025-.15 3.844 3.844 0 0 0-.074-.301c-.03-.105-.071-.208-.11-.31-.041-.1-.095-.2-.143-.298a4.11 4.11 0 0 0-.166-.278c-.057-.08-.119-.166-.174-.24-.115-.143-.224-.27-.304-.366l-.063-.076c-.017-.02-.029-.04-.046-.059-.013-.019-.032-.04-.042-.059l-.032-.05c-.008-.013-.027-.032-.03-.045l-.02-.04c-.02-.029-.023-.054-.036-.08-.012-.023-.016-.054-.025-.08l-.01-.04v-.025c-.002-.01-.002-.015-.006-.025l-.002-.004-.003-.013-.004-.05c-.01-.066-.02-.13-.025-.2l-.004-.013c-.008-.059.01.065.01.052v-.157l.007-.047c.002-.015.002-.029.006-.044l.002-.023a.24.24 0 0 1 .006-.019.963.963 0 0 1 .017-.072c.029-.09.069-.166.174-.341l.092-.147.053-.091.027-.046c.01-.013.017-.03.029-.048l.059-.108.032-.054c.008-.019.018-.036.027-.059.042-.085.082-.165.119-.255.038-.095.074-.187.105-.282a4.01 4.01 0 0 0 .136-.594l.01-.076.005-.036.004-.04c0-.058.004-.113.005-.168.004-.055.004-.112.006-.168v-.082l-.002-.045c0-.061-.004-.12-.005-.18v-.043l-.002-.012a.52.52 0 0 0-.006-.081l-.004-.033a1.244 1.244 0 0 0-.02-.13 3.786 3.786 0 0 0-.422-1.318 4.938 4.938 0 0 0-.562-.779c-.154-.186-.254-.299-.284-.367l-.01-.013-.004-.012-.01-.023c-.001-.005-.005-.01-.009-.017-.004-.006-.004-.013-.006-.02l-.011-.033a.085.085 0 0 0-.008-.038l-.002-.017c-.004-.008 0-.008 0-.008l.002-.004c-.002-.004-.007-.06-.011-.097-.008-.044-.014-.09-.02-.135l-.001-.033-.002-.017c.02.147.004.036.01.07v-.034c.003-.02.003-.04.003-.06v-.03l.006-.023.006-.042c0-.007 0-.013.002-.019.001-.006.005-.01.005-.013.002-.012.008-.021.01-.03 0-.012.006-.016.007-.024.006-.009.01-.015.01-.022.008-.008.013-.018.02-.027l.005-.011c0-.006.004-.01.008-.018.01-.013.015-.026.024-.04l.01-.017.017-.03.079-.126c.015-.027.03-.05.045-.074.02-.035.039-.067.06-.097.015-.03.034-.063.053-.096l.063-.114c.021-.036.042-.072.06-.11.02-.044.042-.086.063-.128.02-.044.038-.086.059-.126a1.21 1.21 0 0 0 .05-.133c.034-.09.07-.173.093-.263a3.69 3.69 0 0 0 .07-.257c.003-.023.01-.04.014-.063.002-.02.008-.042.012-.057.008-.042.013-.082.019-.12.013-.076.021-.147.032-.217l.012-.223c.006-.072.006-.141.008-.202v-.091l-.002-.046c-.002-.052-.002-.095-.006-.133-.004-.07-.004-.109-.004-.109l-.174.013.2-.076c-.418-1.095-.934-1.406-1.431-1.703-.428-.259-.868-.522-1.396-1.459-.206-.365-.292-.908-.382-1.487-.128-.825-.273-1.764-.826-2.538-.445-.619-1.168-1.001-1.864-1.371-.58-.309-1.177-.625-1.575-1.06-.333-.369-.562-.915-.8-1.492-.326-.781-2.116-.134-2.783-.692-.63-.53-.013-2.165-.822-2.343-.636-.139-1.235-.27-1.705-.55-.425-.255-.801-.697-1.2-1.166-.56-.655-1.14-1.331-1.974-1.647-.774-.296-1.63-.18-2.462-.067-.64.086-1.243.168-1.782.068-.474-.083-.975-.356-1.504-.645-.765-.417-1.556-.848-2.466-.848-.91 0-1.698.433-2.463.85-.522.287-1.019.56-1.483.643-.541.1-1.144.02-1.778-.066-.828-.109-1.685-.223-2.455.076-.832.324-1.401 1.013-1.954 1.678-.384.467-.753.909-1.166 1.168-.46.287-1.05.428-1.679.579.119 1.324.576 2.937-.04 3.482-.655.579-3.471-.35-3.471-.35-.216.582-.421 1.13-.738 1.504-.377.45-.958.785-1.516 1.11-.687.4-1.39.812-1.809 1.452-.516.792-.616 1.735-.702 2.566-.059.579-.118 1.123-.305 1.495-.476.95-.9 1.236-1.31 1.512-.482.326-.983.661-1.34 1.78l.025.005a1.374 1.374 0 0 0-.006.065 3.08 3.08 0 0 0-.02.131c-.001.01-.001.021-.003.029l.008-.002a.5.5 0 0 1-.006.025v.019l-.002.007a.082.082 0 0 0-.004.023c-.013.038-.032.09-.174.263a.853.853 0 0 1-.055.067l-.075.087-.038.044a.264.264 0 0 1-.044.05c-.027.04-.06.076-.092.116a.789.789 0 0 1-.046.059l-.051.068-.105.145c-.018.023-.035.052-.052.078a2.164 2.164 0 0 1-.055.086c-.031.055-.07.114-.102.173a2.47 2.47 0 0 0-.093.189c-.035.068-.067.13-.092.198-.025.065-.048.135-.073.202-.013.036-.027.07-.038.107-.01.032-.017.066-.025.1a4.14 4.14 0 0 0-.053.208c-.01.034-.016.069-.023.103-.004.034-.014.067-.018.1-.007.068-.019.136-.028.203-.004.032-.012.068-.016.103v.013l-.005.088v.015l-.002.032a3 3 0 0 1-.004.137c0 .05-.008.075-.006.185.006.092.008.183.012.274 0 .046.002.094.005.138l.021.123c.014.08.025.166.042.246.02.086.04.168.065.25l.035.125c.015.038.029.08.044.12.017.04.03.078.044.118l.025.061.026.054c.031.072.067.143.098.215.036.06.07.12.103.183a.587.587 0 0 0 .05.08l.044.078a8 8 0 0 1 .078.131c.098.157.144.24.174.3a.93.93 0 0 1 .058.22v.088l.001.046v.011a.496.496 0 0 0 .008-.06v.01l-.006.046c-.007.057-.017.116-.023.176l-.003.041c-.004.002-.004.004-.004.006l-.002.012v.024l-.008.016c-.004.019-.004.041-.011.06-.01.018-.014.037-.021.056a.333.333 0 0 0-.029.065.74.74 0 0 0-.048.076c-.007.005-.011.015-.017.023l-.021.028-.04.048a.146.146 0 0 1-.023.032l-.027.03-.053.065c-.044.054-.09.107-.136.158-.052.067-.105.132-.157.197-.055.076-.113.154-.168.232-.056.088-.113.175-.163.265-.047.093-.097.19-.141.286-.044.099-.075.2-.113.299-.01.022-.017.05-.025.074l-.017.072-.038.149-.036.15-.02.141-.02.141-.01.07-.004.039a.575.575 0 0 1-.008.072v.013l-.005.202v.05c-.002.006 0 .025 0 .038v.044l.003.179c.002.059.006.12.012.177.006.057.017.109.023.162.019.105.036.211.065.316.027.107.053.215.094.312l.055.149c.021.051.042.091.065.14l.063.132c.021.044.042.079.065.119.02.04.042.08.061.112l.061.099c.079.131.14.227.188.312l.057.109.042.09c.008.03.021.057.029.089l.023.097c.004.036.007.072.013.11.004.02 0 .042 0 .067v.115l.002.007c-.002.013.015-.091.008-.04l-.014.109-.015.104-.006.054a.044.044 0 0 1-.007.019c-.008.027-.008.046-.012.074-.01.034-.019.069-.027.103-.017.032-.028.063-.042.095a.316.316 0 0 0-.026.052c-.012.017-.016.032-.029.051l-.038.055c-.006.012-.01.021-.021.029l-.025.034-.048.067a.939.939 0 0 0-.063.074l-.145.172-.037.045-.044.052-.086.108a1.188 1.188 0 0 0-.088.118c-.028.04-.059.078-.086.124-.057.09-.114.18-.164.274a3.195 3.195 0 0 0-.35 1.195l-.008.034-.003.02c.003-.035-.006.07-.004.062l-.002.055-.004.11-.002.113c0 .055.002.116.004.171l.008.176.003.042.008.04.012.08c.017.104.032.207.063.312l.044.154c.013.052.034.1.051.149.021.046.037.095.058.145l.063.131c.044.093.086.166.132.244a.71.71 0 0 0 .06.108l.062.103c.153.252.245.41.296.577.017.04.021.088.033.132.013.042.015.093.02.143l.008.07-.001.082.001.08v.044-.025l-.003.012-.002.028-.029.22c-.011.045-.02.075-.025.117a.282.282 0 0 1-.017.063l-.021.067a.256.256 0 0 1-.027.066l-.025.063c-.019.044-.05.086-.072.128-.027.046-.056.09-.088.135l-.061.073-.025.038-.03.038-.142.165-.075.09-.082.101-.042.05c-.01.017-.023.034-.036.053l-.08.112c-.054.074-.102.16-.148.24-.048.086-.088.174-.13.26-.032.089-.065.178-.094.266-.026.091-.044.18-.067.27a.265.265 0 0 0-.015.065l-.006.065-.019.13-.019.13a1.422 1.422 0 0 1-.004.045v.04l-.002.053-.003.109c-.002.036-.004.064-.002.12l.015.291c.015.091.032.181.044.27.021.09.046.178.075.265.026.086.063.168.091.252.039.074.073.154.113.226.075.141.157.273.224.387.141.229.24.411.294.61.06.192.075.409.061.636v.011c-.002.023.004-.019.004-.011l-.004.024-.005.05-.014.099-.011.101-.017.07-.016.069-.005.036-.014.036c-.013.048-.03.098-.05.147a2.01 2.01 0 0 1-.342.549c-.15.183-.338.386-.493.626l-.113.187c-.027.065-.06.13-.092.194-.026.065-.047.132-.07.2-.027.065-.04.132-.058.198l-.025.1-.01.05-.005.05c-.007.065-.017.13-.025.195l-.005.05-.004.01s-.004.037-.002.027v.02l-.002.09c-.002.058-.006.115-.006.176.006.28.046.53.126.771.083.237.201.448.312.63.109.19.222.355.296.525.16.333.207.685.186 1.028v.03l-.002.02c.002-.014 0 .002 0 0v.01l-.008.066a1.502 1.502 0 0 0-.017.13l-.008.064-.013.06-.029.114c-.004.017-.004.036-.011.055l-.017.055c-.016.036-.027.072-.04.11-.01.037-.027.071-.043.105-.019.033-.032.069-.047.101-.138.263-.327.473-.496.673a3.28 3.28 0 0 0-.401.579c-.023.045-.044.09-.063.133-.025.042-.033.086-.05.128-.015.04-.028.08-.04.118-.01.038-.017.074-.027.106-.005.035-.015.069-.02.098-.008.028-.012.059-.018.085-.004.05-.01.096-.011.132a2.378 2.378 0 0 0-.016.108l.023-.106c.004-.037.017-.078.025-.13.01-.027.015-.053.027-.082l.029-.093c.011-.033.022-.065.036-.101.017-.036.032-.074.048-.11.019-.039.034-.082.059-.12l.07-.124c.106-.166.259-.34.44-.518.182-.181.404-.383.583-.661.02-.037.04-.07.062-.107.02-.038.046-.074.06-.112l.056-.12.025-.061c.006-.021.015-.044.023-.065.015-.042.027-.088.044-.134.004-.02.013-.043.02-.066l.013-.061c.01-.044.019-.09.03-.132l.013-.064.002-.01c.002-.004 0 .002.002-.015l.004-.017.002-.035c.008-.047.012-.097.017-.144a.742.742 0 0 0 .014-.145l.003-.152c0-.027.002-.052 0-.079l-.005-.076c-.004-.053-.012-.104-.016-.158-.007-.051-.019-.105-.026-.158-.008-.027-.012-.051-.02-.08l-.022-.078c-.018-.051-.03-.109-.052-.156-.07-.21-.174-.402-.264-.589a2.812 2.812 0 0 1-.216-.56 2.163 2.163 0 0 1-.044-.573c.004-.053.015-.114.023-.172l.01-.087.002-.021c.001-.017 0 .01.001.004v-.01l.012-.036c.011-.051.023-.105.032-.154l.01-.04.013-.036.025-.073c.065-.198.157-.373.287-.535.13-.166.298-.32.491-.512a3.27 3.27 0 0 0 .346-.402c.155 1.253.415 2.346.811 3.219a.898.898 0 0 0-.101.188 1.177 1.177 0 0 0-.096.393l-.006.042v.017l.002.03v.036l.004.06.006.055c0 .02.004.032.006.051a.882.882 0 0 0 .02.097c.027.132.085.255.15.354.135.206.288.336.416.44.136.103.249.187.333.267a.558.558 0 0 1 .163.213.308.308 0 0 1 .024.122v.018l.002.005c0 .004.004-.023.004-.01l-.004.014-.003.053c-.002.021 0 .029-.006.052a.496.496 0 0 1-.124.232 2.123 2.123 0 0 1-.276.215c-.107.073-.222.147-.33.235a1.349 1.349 0 0 0-.293.32.86.86 0 0 0-.126.398.887.887 0 0 0 .218.674c.14.162.287.261.413.362.122.095.231.185.304.278a.72.72 0 0 1 .15.257c.014.04.02.076.026.109.001.03.005.057.005.08l.002.068s.002-.022.01-.068l.004-.082c-.002-.032-.002-.07-.008-.114a.855.855 0 0 0-.117-.303 2.178 2.178 0 0 0-.277-.337c-.11-.117-.237-.24-.329-.387a.7.7 0 0 1-.093-.232.757.757 0 0 1 .01-.261c.041-.176.156-.303.347-.41.094-.055.205-.105.325-.164a2.33 2.33 0 0 0 .392-.226 1.135 1.135 0 0 0 .344-.446c.02-.04.035-.105.05-.154l.01-.052.003-.015c0 .011.004-.02.004-.021l.004-.01.004-.036a1.063 1.063 0 0 0-.008-.31 1.118 1.118 0 0 0-.038-.143c.524.451 1.124.88 1.797 1.28l.061.055a.57.57 0 0 1 .164.215.419.419 0 0 1 .025.122v.023l.002-.01v.014l-.004.053c-.003.021 0 .027-.005.052a.448.448 0 0 1-.132.23 1.669 1.669 0 0 1-.272.22c-.107.07-.218.144-.327.23-.11.09-.216.194-.292.32a.86.86 0 0 0-.126.4.854.854 0 0 0 .044.375.84.84 0 0 0 .172.297c.14.164.286.263.413.362.124.095.23.187.306.278a.697.697 0 0 1 .174.368c.003.03.007.057.007.08 0 .044.002.066.002.066s.002-.022.01-.066c.002-.023.002-.05.003-.082-.001-.033-.001-.073-.01-.116a.826.826 0 0 0-.114-.301 2.208 2.208 0 0 0-.277-.34c-.113-.116-.239-.236-.329-.384a.777.777 0 0 1-.095-.234.656.656 0 0 1 .011-.258c.042-.177.155-.306.346-.413.096-.055.205-.105.327-.164.119-.057.254-.125.39-.224a1.07 1.07 0 0 0 .193-.19c.063-.075.113-.163.153-.256.017-.044.034-.105.05-.154l.01-.054.003-.011c-.002.006 0-.004 0-.01a22.98 22.98 0 0 0 2.013.916.401.401 0 0 1 .03.065.345.345 0 0 1 .028.12l.001.02v.003l.002-.01-.002.014-.005.055c-.002.021 0 .027-.008.052a.452.452 0 0 1-.124.23c-.073.076-.17.147-.275.217-.106.074-.22.145-.331.233-.107.085-.214.19-.29.32a.886.886 0 0 0-.129.398.896.896 0 0 0 .222.674c.138.16.285.263.407.36.128.097.233.187.31.278.078.09.124.181.149.261.013.04.017.076.023.107l.01.08v.068l.007-.068a.647.647 0 0 0-.004-.196.782.782 0 0 0-.116-.3 1.88 1.88 0 0 0-.278-.339c-.107-.116-.235-.24-.325-.388a.64.64 0 0 1-.093-.233.662.662 0 0 1 .007-.259c.042-.177.157-.304.348-.411.094-.055.203-.107.327-.164.12-.059.254-.124.386-.227.071-.051.138-.114.201-.19.057-.072.11-.162.147-.253a.92.92 0 0 0 .048-.157l.015-.051.002-.015.002-.021.002-.006a37.01 37.01 0 0 0 4.32 1.274.583.583 0 0 1 .191.244.359.359 0 0 1 .028.12v.019c0 .006.004-.02.002-.005v.013l-.004.053c-.006.021-.002.029-.01.052a.43.43 0 0 1-.126.228 1.594 1.594 0 0 1-.275.22c-.105.072-.216.144-.33.23a1.3 1.3 0 0 0-.29.32.921.921 0 0 0-.084.779.89.89 0 0 0 .176.293c.138.162.287.267.41.364.125.097.232.185.307.276a.73.73 0 0 1 .174.37c.004.032.008.057.008.08v.064l.011-.064c.004-.023.004-.048.004-.082 0-.035 0-.073-.012-.115a.747.747 0 0 0-.116-.302 1.81 1.81 0 0 0-.274-.338c-.109-.118-.239-.24-.326-.384a.695.695 0 0 1-.094-.236.589.589 0 0 1 .008-.258c.042-.179.154-.304.346-.415.097-.053.206-.103.328-.16.117-.059.255-.126.387-.227a1.35 1.35 0 0 0 .198-.19 1.054 1.054 0 0 0 .197-.411l.014-.05.002-.013c0 .01.003-.023.003-.023v-.01l.004-.036a.975.975 0 0 0 .01-.211c7.985 1.706 18.162 1.758 25.845-.021a1.584 1.584 0 0 0-.061.205 1.323 1.323 0 0 0-.006.313l.004.038.002.008s.005.032.004.02l.005.014.01.053c.015.05.029.113.05.154.036.092.09.183.15.256.06.074.129.137.196.188.135.103.27.168.39.229.12.057.229.108.327.162.189.108.303.234.342.413a.624.624 0 0 1 .013.257.71.71 0 0 1-.094.235c-.091.146-.22.27-.328.386-.111.116-.21.227-.278.34a.782.782 0 0 0-.114.3c-.008.044-.008.082-.01.114l.004.084c.008.042.01.065.01.065v-.065a.5.5 0 0 1 .007-.084c.006-.03.012-.068.025-.104a.75.75 0 0 1 .151-.263 1.92 1.92 0 0 1 .304-.276c.124-.097.273-.2.413-.362a.892.892 0 0 0 .216-.675.835.835 0 0 0-.124-.398 1.27 1.27 0 0 0-.293-.32c-.11-.085-.222-.158-.327-.23a1.612 1.612 0 0 1-.277-.22.476.476 0 0 1-.126-.232c-.006-.02-.004-.026-.006-.047l-.006-.053-.001-.016c0-.013.001.012.001.008v-.006l.002-.013a.441.441 0 0 1 .027-.122.553.553 0 0 1 .163-.217c.084-.078.197-.162.33-.267.073-.059.151-.122.228-.202.365-.099.723-.2 1.072-.308a1.06 1.06 0 0 0-.038.158.947.947 0 0 0-.008.31l.004.038v.01s.006.03.006.019l.004.013.008.054a1.007 1.007 0 0 0 .203.41c.057.073.125.136.194.188.136.103.27.171.39.228.119.06.231.107.325.162.193.109.306.234.344.413a.565.565 0 0 1 .012.258.623.623 0 0 1-.094.234c-.092.147-.218.27-.329.387a1.986 1.986 0 0 0-.273.339.829.829 0 0 0-.119.3c-.005.044-.007.08-.01.115.003.034.003.06.007.084a.47.47 0 0 0 .01.064v-.064c0-.023.005-.05.007-.082.005-.03.011-.069.026-.107a.747.747 0 0 1 .148-.263c.076-.091.183-.179.307-.274.125-.1.274-.202.413-.364a.926.926 0 0 0 .172-.295.904.904 0 0 0 .044-.38.883.883 0 0 0-.126-.397 1.314 1.314 0 0 0-.294-.32 4.1 4.1 0 0 0-.327-.23 1.826 1.826 0 0 1-.275-.22.459.459 0 0 1-.127-.228c-.005-.025-.001-.033-.005-.052l-.004-.055v-.011c-.006-.016.002.01.002.005v-.019a.395.395 0 0 1 .023-.122.618.618 0 0 1 .164-.217c.084-.078.199-.162.33-.266.098-.08.215-.174.318-.303.461-.168.905-.345 1.33-.53a.902.902 0 0 0 .009.162l.003.034.002.01c0 .002.006.032.002.02l.006.016.011.051c.014.05.031.111.05.157.034.091.09.18.151.253.06.076.128.139.191.19.138.103.272.168.392.227.123.057.232.109.325.164.193.107.306.234.348.411a.664.664 0 0 1 .01.26.676.676 0 0 1-.094.232c-.094.148-.216.272-.329.388a1.95 1.95 0 0 0-.275.34.857.857 0 0 0-.119.298c-.005.042-.005.082-.007.117l.004.08c.01.045.011.068.011.068l.002-.068a.68.68 0 0 1 .029-.187.72.72 0 0 1 .154-.261c.073-.091.178-.18.304-.278.123-.097.27-.2.411-.36a.902.902 0 0 0 .216-.674.82.82 0 0 0-.128-.398 1.199 1.199 0 0 0-.288-.32c-.111-.088-.224-.159-.327-.233a1.608 1.608 0 0 1-.277-.217.51.51 0 0 1-.128-.23c-.006-.025-.004-.03-.006-.052l-.004-.055-.002-.013c0-.014.002.013.002.01v-.005l.002-.019a.394.394 0 0 1 .025-.12.583.583 0 0 1 .162-.215c.086-.08.199-.162.333-.267.063-.051.132-.108.2-.177a13.88 13.88 0 0 0 1.21-.716 1.128 1.128 0 0 0 .317.379c.137.103.27.17.391.229.122.057.233.106.327.162.191.108.306.234.344.413a.593.593 0 0 1 .014.257.772.772 0 0 1-.094.234c-.094.147-.218.269-.329.385-.11.116-.208.229-.277.34a.855.855 0 0 0-.117.302c-.006.042-.006.08-.007.114.001.033.001.06.003.082l.008.067v-.067c.002-.023.008-.05.011-.08.006-.03.01-.067.025-.107a.671.671 0 0 1 .15-.26c.072-.092.18-.181.305-.279.125-.097.272-.2.411-.36a.908.908 0 0 0 .218-.676.846.846 0 0 0-.126-.396 1.18 1.18 0 0 0-.292-.32 3.884 3.884 0 0 0-.331-.232 1.75 1.75 0 0 1-.27-.217.436.436 0 0 1-.13-.233c-.005-.025-.002-.03-.005-.05l-.006-.055v-.01.007-.008c.705-.522 1.306-1.088 1.782-1.701 1.15-1.48 1.65-4.232 1.743-7.581.084.088.165.166.24.24.194.189.336.341.437.52.097.175.168.381.214.602l.002.011c.002.025-.002-.02 0-.011l.002.025.01.051.009.1.013.096v.073l.002.072.002.036-.002.038c-.004.05-.005.103-.011.155a2.039 2.039 0 0 1-.199.615c-.101.215-.235.457-.327.731-.021.069-.042.136-.061.204-.012.07-.027.141-.042.212-.01.07-.014.14-.02.213-.009.068-.007.135-.007.206l.002.102.004.05.006.05c.007.066.011.129.022.194l.004.05.002.013s.004.036.004.026l.006.021.017.084c.015.06.025.112.04.173.075.269.178.503.312.715.14.211.302.386.459.543.15.152.298.287.416.432.234.286.364.613.427.952l.007.03.004.016c-.002-.011 0 .004 0 .004l.004.006.006.068c.007.044.011.086.019.132l.007.062.002.06c0 .038 0 .076.002.118l.002.057-.006.059c-.003.038-.005.076-.011.114 0 .04-.01.076-.015.112-.006.039-.016.075-.023.109-.067.29-.201.539-.316.775a3.52 3.52 0 0 0-.248.66c-.01.05-.017.096-.025.144-.013.048-.013.091-.017.135-.004.044-.006.084-.012.124 0 .04.004.076.004.11l.002.098a3.068 3.068 0 0 0 .023.221l.011.106-.003-.106-.002-.134c-.002-.026 0-.055.002-.087 0-.029.001-.061.005-.096.002-.032.004-.07.008-.108l.023-.12c.008-.04.011-.084.027-.128.011-.045.025-.09.036-.137.063-.188.164-.39.298-.61.136-.22.3-.468.406-.782.013-.04.022-.08.036-.12.01-.042.027-.082.03-.124.006-.042.016-.084.021-.128a.823.823 0 0 1 .014-.066c.002-.023.004-.044.004-.067l.007-.139c.002-.023.002-.048.006-.07l-.004-.065z" fill="#9A9999"/><path d="M81.436 61.782c4.865 1.777 2.028 19.73-1.926 23.06-3.521 2.966-2.942-14.645-2.942-14.645l3.979-7.19s.57-.82.889-1.225" fill="#614091"/><path d="M45.528 65.942c-3.225 4.107-4.462 16.46-4.462 16.46s0-.018.006-.056c-.419.598-.707 1.377-.801 2.247-.216 2.063.772 3.861 2.216 4.014.942.099 1.844-.528 2.418-1.549.533.438 1.061.613 1.443.415.706-.377.622-1.916-.193-3.442a5.73 5.73 0 0 0-1.057-1.447c-.03-.065-.065-.126-.097-.185 0 0 1.4-8.922 2.898-11.03.751-1.058 1.231-1.652 1.405-2.119.138-.377.287-1.097.348-1.367.48-2.12 3.112-6.897 3.112-6.897s-5.664 2.958-7.236 4.956M89.092 52.19c-1.06-.448-2.325-.039-3.35.946-.466-.7-1.017-1.086-1.525-.987-.954.183-1.402 2-1 4.053.151.785.407 1.494.719 2.056.038.255.1.5.18.73l-4.835 5.66-10.265-3.66s1.746 2.755 2.176 3.761c.312.733.92 3.055.92 3.055s7.497 3.035 9.625 2.267c2.625-.949 5.644-9.482 5.644-9.482l-.002-.002c1.132-.402 2.229-1.48 2.862-2.965.984-2.319.47-4.751-1.15-5.433" fill="#B6CD38"/><path d="M83.159 55.95c.294 1.96 1.27 3.44 2.179 3.307.908-.137 1.409-1.838 1.115-3.796-.295-1.96-1.268-3.44-2.18-3.303-.912.133-1.407 1.832-1.114 3.792" fill="#B6CD38"/><path d="M81.436 61.782c-.922.45-2.222 2.619-2.222 2.619s-10.62-4.598-16.678-4.72c-.384-.008-1.543.059-1.543.059h-.128l-1.543-.06s-5.54.174-7.381 1.359c-.746.41-4.875 2.722-6.298 4.539-3.223 4.1-4.995 16.208-4.995 16.208s-1.378 3.085-.757 3.731c1.63 1.724 6.265.777 7.077 1.027-.564 1.723-2.485 21.84-5.664 27.02 4.563 4.05 35.717 4.14 39.696-.005-3.493-5.354-4.873-17.661-5.615-23.684 8.557-5.206 2.175-14.682 6.05-28.093" fill="#343434"/><path d="M79.346 64.46l-.11.24a90.06 90.06 0 0 0-.282.638c-.057.133-.122.274-.185.428-.065.152-.132.31-.2.478-.073.166-.142.34-.217.516-.069.174-.143.355-.214.53-.07.179-.14.362-.206.535-.067.18-.136.353-.201.52-.119.343-.231.66-.329.932l-.285.92s.102-.374.245-.934l.283-.945.176-.531c.061-.179.12-.364.183-.547.065-.18.128-.362.19-.542l.189-.526c.063-.17.126-.334.181-.49.058-.154.115-.3.165-.436.103-.27.19-.495.254-.655.065-.156.096-.246.096-.246l.267.114zM75.3 89.896l-.095-.469c-.015-.076-.03-.156-.05-.246a16.39 16.39 0 0 1-.045-.295 18.904 18.904 0 0 0-.08-.518 5.28 5.28 0 0 1-.022-.19c-.017-.13-.032-.265-.048-.402-.015-.141-.032-.286-.045-.437-.012-.146-.027-.299-.037-.457a9.317 9.317 0 0 1-.038-.478l-.033-.495-.015-.251a10.591 10.591 0 0 1-.01-.256c-.015-.343-.034-.69-.04-1.036-.003-.171-.011-.347-.017-.518l-.005-.516c-.006-.343-.006-.678-.006-1.004-.002-.326.002-.64.002-.937.005-.297.007-.581.013-.842.023-1.04.054-1.733.054-1.733s-.02.693-.027 1.735v.84c.006.297.006.611.011.935.008.328.012.663.021 1.004l.018.514c.01.174.015.345.02.52a60.018 60.018 0 0 0 .129 2.03c.011.164.03.324.047.479l.046.457c.01.145.033.29.052.427a45.733 45.733 0 0 0 .078.592c.01.059.018.12.029.177.023.116.038.227.055.33.02.102.033.202.05.291.023.09.038.17.056.244.063.299.103.465.103.465l-.17.04zM46.882 86.53s.03-.172.076-.467c.025-.149.05-.328.084-.535.033-.208.071-.44.11-.697l.221-1.743c.033-.318.067-.65.105-.985.03-.339.073-.68.102-1.019l.093-1.023c.015-.166.033-.333.044-.5l.04-.488c.025-.32.05-.633.075-.926.023-.293.042-.572.057-.829.017-.259.037-.493.052-.704.013-.208.023-.389.03-.54l.031-.472-.021.472c-.01.151-.017.336-.025.543-.011.208-.027.446-.038.703l-.046.83-.061.928-.03.488c-.012.166-.026.333-.037.5-.027.34-.052.68-.077 1.024-.024.343-.06.685-.091 1.023-.027.337-.058.668-.088.988-.071.644-.134 1.24-.193 1.754-.033.254-.067.488-.098.696l-.074.537a31.25 31.25 0 0 1-.07.468l-.171-.026z" fill="#000001"/><path d="M41.113 47.619a20.016 20.016 0 0 1-.228-3.008c0-11.045 8.99-20.004 20.076-20.004 11.09 0 20.077 8.959 20.077 20.004 0 .975-.069 1.934-.206 2.87 1.16.633 1.94 1.825 1.94 3.195 0 2.029-1.713 3.674-3.835 3.674-.14 0-.28-.01-.422-.023A20.082 20.082 0 0 1 60.96 64.613c-7.54 0-14.11-4.14-17.54-10.267a5.899 5.899 0 0 1-.184.004c-2.116 0-3.835-1.645-3.835-3.674 0-1.274.68-2.398 1.711-3.057" fill="#B6CD38"/><path d="M63.526 50.347a.697.697 0 0 1-.698.695.696.696 0 1 1 0-1.39c.384 0 .698.312.698.695" fill="#99A920"/><path d="M63.177 49.744l.003.086a.698.698 0 0 1-1.043.604.698.698 0 0 0 1.39-.088.695.695 0 0 0-.35-.602" fill="#8B9226"/><path d="M35.43 60.61v-.001.002zm36.8-20.928c.679.37 1.453.941 2.25 1.608a2.23 2.23 0 0 1-.099.255 8.326 8.326 0 0 1-.088.208c-.01.02-.017.042-.025.06l-.03.066c-.021.047-.04.099-.06.148-.013.023-.02.046-.032.074l-.033.09-.06.175c-.024.061-.039.13-.058.194-.017.069-.04.136-.052.204-.013.073-.025.145-.042.217-.013.07-.025.145-.032.216-.006.072-.01.146-.017.22a2.226 2.226 0 0 1-.01.113v.107c0 .07 0 .142.004.217a1.91 1.91 0 0 0 .012.211c.005.07.01.141.018.212l.01.104.002.014.011.08.002.017.008.038c.011.05.019.1.029.15.005.025.01.052.013.077l.004.02.004.006.001.017.018.067c.019.088.042.18.067.265.011.044.024.09.038.135l.042.118c.029.08.057.162.09.24.036.08.07.16.113.242l.059.118.067.114c.025.039.044.077.065.115l.072.11c.195.294.392.513.53.673.14.162.216.257.277.35a1.494 1.494 0 0 1 .166.459l.016.061.004.015c.001.014-.012-.108-.004-.05v.012l.007.05.021.198.006.05c0 .01-.002.013-.002.018 0 .014 0 .025.002.035.006.038 0 .116 0 .179l-.011.097-.02.099c-.003.015-.013.036-.017.055l-.019.06a.42.42 0 0 1-.023.068l-.028.072-.008.017-.01.023-.017.044-.038.088-.096.213a5.907 5.907 0 0 1-.105.253c-.03.097-.069.19-.097.292-.03.103-.06.207-.086.312-.02.109-.042.217-.06.328a4.626 4.626 0 0 0-.032.485v.157l.004.156.013.15.014.149.007.072.004.04a.37.37 0 0 0 .011.069l.002.011c.014.076.027.15.044.223l.008.055.004.016.006.022.01.042.043.176.046.175c.02.055.04.106.055.158.042.105.079.21.13.31.05.103.096.21.155.303.058.095.113.196.178.28l.094.13c.028.044.06.076.088.116l.09.112.082.097c.051.058.1.117.147.174.03.03.044.05.065.074l.06.069.093.123c.02.039.05.075.073.115.019.038.042.076.059.116.017.042.038.086.055.13.012.049.029.099.046.148.015.051.021.11.033.164l.01.042.005.023.002.01c.002.01-.004-.08-.002-.033l.013.118.014.122.007.06v.035c0 .038.004.08.006.12a1.88 1.88 0 0 0-.006.147c-.019.19-.067.365-.19.647l-.1.229-.025.063-.033.068-.055.137-.054.15c-.017.054-.036.102-.053.157l-.042.164c-.015.053-.033.11-.042.166a3.84 3.84 0 0 0-.035 1.308l.002.038.002.02c-.002-.03.006.06.006.058l.013.06.023.123.025.124c.013.053.025.114.042.17.03.116.061.236.103.335.031.078.058.16.096.238l5.508-5.387c.638-3.238 3.64-3.565 3.64-3.565v-.01l-.002-.004c-.002-.002-.002-.002-.004-.013l-.004-.05a3.12 3.12 0 0 1-.025-.2l-.003-.013c-.008-.057.01.065.01.053v-.158l.007-.047c.002-.016.002-.029.005-.044l.002-.023.006-.02c.006-.024.012-.05.02-.071.026-.09.066-.166.173-.341l.09-.147.056-.092.024-.045c.01-.014.018-.03.03-.048l.058-.108.033-.054c.01-.019.019-.036.028-.059.04-.084.08-.166.117-.255.04-.095.075-.185.107-.282a3.95 3.95 0 0 0 .134-.594l.01-.076.005-.037.004-.04c0-.057.006-.11.008-.167.004-.055.004-.11.005-.168v-.082l-.001-.045c0-.061-.004-.12-.006-.18v-.043l-.002-.012a.619.619 0 0 0-.008-.082l-.004-.032c-.003-.042-.011-.086-.019-.13a4.406 4.406 0 0 0-.038-.257 3.792 3.792 0 0 0-.384-1.06 4.788 4.788 0 0 0-.562-.78c-.155-.186-.253-.299-.285-.365l-.01-.016-.003-.011-.01-.021c-.002-.008-.006-.011-.01-.02-.003-.005-.003-.012-.003-.02a.618.618 0 0 1-.012-.032.085.085 0 0 0-.008-.039l-.003-.017c-.004-.007 0-.007 0-.007.003-.002.003-.004.003-.004a.714.714 0 0 1-.013-.095c-.008-.046-.013-.092-.019-.137l-.002-.033-.002-.017c.021.147.004.036.01.07v-.037c.004-.019.004-.04.004-.059v-.03l.005-.023a.762.762 0 0 0 .006-.042c0-.006 0-.013.002-.019s.006-.01.006-.013c.003-.012.01-.021.011-.03 0-.012.006-.016.008-.024a.048.048 0 0 0 .007-.023c.008-.007.014-.017.02-.024l.005-.014c0-.005.004-.01.008-.017.01-.013.015-.026.027-.04l.01-.017.015-.029.078-.127.046-.074c.02-.035.038-.067.06-.098.014-.03.035-.062.053-.093.02-.038.042-.076.065-.116.019-.036.04-.072.057-.11.023-.044.042-.086.063-.128l.06-.126c.017-.04.036-.088.05-.133.033-.09.07-.174.095-.263.024-.086.047-.175.068-.257.004-.023.012-.04.014-.063.002-.021.007-.04.011-.057l.02-.12c.013-.076.02-.147.034-.217l.011-.223c.004-.073.004-.14.006-.202v-.092l-.002-.045-.004-.134c-.004-.07-.004-.108-.004-.108l-.175.013.2-.076c-.416-1.095-.935-1.406-1.432-1.703-.426-.259-.868-.522-1.393-1.459-.209-.366-.295-.909-.383-1.486-.13-.826-.275-1.765-.827-2.537-.444-.62-1.167-1.004-1.864-1.373-.578-.309-1.178-.625-1.576-1.061-.332-.368-.562-.914-.799-1.492-.327-.78-2.317-.152-2.986-.712-.633-.528.19-2.145-.62-2.322-.636-.139-1.234-.268-1.705-.55-.424-.256-.8-.697-1.2-1.166-.56-.655-1.14-1.331-1.971-1.648-.776-.295-1.633-.179-2.463-.066-.64.085-1.244.167-1.783.07-.474-.086-.975-.356-1.505-.647-.765-.418-1.556-.848-2.464-.848-.912 0-1.7.432-2.463.85-.523.289-1.02.56-1.485.645-.541.097-1.141.017-1.776-.068-.83-.109-1.684-.223-2.457.076-.831.324-1.4 1.013-1.953 1.678-.385.467-.754.908-1.165 1.168-.462.287-1.051.428-1.678.579 0 0 .382 2.424-.233 2.97-.654.58-3.28.161-3.28.161-.217.583-.422 1.131-.739 1.505-.377.45-.958.785-1.516 1.11-.684.4-1.388.812-1.807 1.452-.518.792-.615 1.735-.701 2.565-.061.58-.12 1.126-.308 1.496-.476.95-.899 1.236-1.31 1.512-.481.326-.982.661-1.338 1.779l.023.006a1.277 1.277 0 0 0-.006.066c-.003.033-.011.077-.017.13l-.004.03.008-.001-.006.022v.019l-.002.008a.084.084 0 0 0-.003.025c-.016.038-.035.087-.176.26-.016.024-.037.046-.054.067-.025.029-.052.06-.074.088l-.04.044a.34.34 0 0 1-.043.05c-.028.04-.06.076-.091.116l-.048.059-.052.07-.105.143c-.015.023-.032.051-.052.078a3.374 3.374 0 0 1-.053.086c-.033.055-.069.114-.103.175-.035.059-.063.124-.094.187-.033.068-.067.131-.092.198l-.072.204a1.687 1.687 0 0 0-.037.104 1.155 1.155 0 0 0-.027.101c-.019.069-.038.14-.051.208-.01.034-.017.07-.025.105-.004.032-.013.064-.017.099-.008.066-.02.135-.027.202l-.015.102v.014l-.008.087v.016l-.002.034c0 .044-.002.091-.004.135 0 .05-.007.074-.005.185.005.091.007.183.011.274.002.046.004.094.008.137.005.04.013.082.019.124.013.08.025.166.042.246a4.008 4.008 0 0 0 .101.375l.042.12c.017.04.033.078.046.118l.023.061.027.054c.032.072.067.142.1.215.034.06.068.12.1.183a.773.773 0 0 0 .05.082l.044.076c.027.044.054.085.079.131.097.156.143.24.174.301a.744.744 0 0 1 .057.22v.087l.002.045v.012a.452.452 0 0 0 .008-.061v.013l-.006.044c-.008.057-.017.116-.021.175l-.004.042c-.004.002-.004.004-.004.006l-.002.011v.025l-.007.015c-.006.02-.006.044-.014.061-.01.02-.013.037-.02.056a.273.273 0 0 0-.028.064c-.015.023-.036.052-.05.077-.007.005-.01.015-.017.022l-.019.029-.042.05a.209.209 0 0 1-.023.03l-.024.03-.056.067c-.044.052-.088.105-.136.158l-.156.194c-.056.077-.111.155-.169.233-.055.09-.11.175-.162.265-.048.095-.098.19-.142.285-.042.1-.074.2-.112.3l-.023.074-.02.074-.038.147-.036.15-.02.141-.02.141-.008.07-.004.039a.575.575 0 0 1-.007.072v.013l-.006.202v.05c-.004.007 0 .024 0 .038v.046a5.595 5.595 0 0 0 .015.354c.004.057.016.108.021.162.02.104.037.211.065.318.027.105.054.213.094.31l.057.149c.02.051.04.091.063.139l.063.133c.023.044.043.078.065.118.02.04.044.08.062.113l.063.099c.078.133.137.226.185.312l.06.109c.01.03.026.06.04.09.007.03.023.058.03.089.008.03.014.063.021.097l.014.112c.003.017 0 .04 0 .065v.114l.002.008.007-.04-.013.109-.016.104-.003.054c-.002.01-.004.013-.008.02-.008.025-.008.044-.011.073a1.033 1.033 0 0 0-.03.103.612.612 0 0 0-.04.097c-.009.015-.02.03-.028.05-.011.017-.015.032-.029.05l-.038.058c-.006.01-.01.02-.02.027l-.026.034-.048.067c-.019.02-.042.05-.063.074l-.143.171-.038.046-.042.052-.086.108a.96.96 0 0 0-.09.118c-.029.04-.058.078-.086.124-.056.091-.115.179-.165.274a3.205 3.205 0 0 0-.35 1.195l-.007.034-.004.019c.004-.032-.004.07-.002.063l-.002.057-.004.108-.002.113c0 .055.002.116.004.173l.006.174.004.041.008.04.011.08c.017.105.032.208.063.313l.044.154c.015.052.034.1.052.149.02.047.038.095.057.144l.065.134c.042.091.086.165.13.244.023.043.04.074.061.106l.061.103c.155.252.245.41.299.58.017.04.019.087.03.129.014.042.015.093.021.143l.008.07-.002.082.002.08v.02l-.004.01-.002.029-.029.219c-.01.046-.017.076-.022.118-.002.02-.012.042-.02.063l-.02.069c-.006.022-.016.043-.025.064l-.027.063c-.02.044-.05.086-.071.128a2.76 2.76 0 0 1-.09.135l-.06.072-.026.038-.03.039-.123.144h10.69l.218-.925-.667-2.698c.017-.024.032-.047.05-.07l.064-.082.033-.036.034-.048.16-.194c.031-.034.058-.067.089-.107l.093-.122.044-.059.05-.068.09-.135c.063-.098.12-.2.176-.298a6.67 6.67 0 0 0 .147-.318c.042-.108.082-.217.12-.323.035-.119.064-.239.092-.359l.014-.043.005-.04.014-.065.023-.122.023-.122c-.006.034.007-.06.007-.06v-.02l.006-.04.008-.078c.007-.107.02-.21.026-.316.004-.113.004-.221.004-.332-.005-.112-.017-.228-.027-.343-.01-.114-.036-.228-.055-.342-.023-.115-.055-.223-.086-.336a7.308 7.308 0 0 0-.105-.308l-.054-.14-.053-.13c-.035-.077-.065-.155-.098-.23-.118-.281-.166-.445-.187-.618-.008-.038-.004-.09-.006-.136 0-.019-.004-.043-.004-.062.004-.018.004-.035.004-.056.002-.015.002-.032.002-.051v-.034l.008-.06c.007-.077.017-.154.025-.232l.002-.013c.003-.053-.006.051-.002.038l.002-.021.007-.038.02-.078.013-.08c.005-.023.015-.044.02-.069l.022-.066.02-.063c.02-.038.031-.078.047-.116.07-.143.147-.258.304-.444.044-.054.088-.107.132-.158l.076-.092.033-.047.02-.023.022-.027.084-.11c.028-.037.055-.069.084-.115l.086-.123c.027-.044.055-.082.086-.132.05-.09.105-.18.155-.274.044-.1.09-.196.135-.292.075-.198.148-.384.2-.611.013-.053.028-.109.038-.16l.02-.082.012-.051c.008-.067.023-.134.033-.202l.007-.048.008-.013c-.01.045.007-.08.007-.073l.002-.032c.006-.048.012-.093.016-.139l.023-.272a4.599 4.599 0 0 0-.092-1.168c-.084-.387-.228-.735-.33-.987-.112-.253-.183-.417-.207-.53l-.014-.041-.005-.042-.006-.038-.002-.038c-.004-.025-.012-.046-.012-.073v-.078l-.002-.038.002-.026c.004-.018.004-.035.004-.052v-.011c-.002 0 0-.008 0-.016l.004-.019.01-.082c.002-.051.005-.102.015-.156l.004-.038.002-.02c-.014.123-.002.032-.004.058l.002-.005.007-.048c.008-.032.016-.063.021-.093l.008-.044a.302.302 0 0 0 .013-.038c.01-.025.016-.05.025-.075.029-.095.065-.16.1-.222.01-.018.023-.033.034-.048.01-.015.015-.032.029-.05l.042-.053.019-.025a.14.14 0 0 1 .025-.034l.264-.32.078-.099c.033-.036.06-.076.088-.114.027-.038.055-.069.086-.11.027-.045.055-.086.084-.126.025-.044.057-.084.082-.122.025-.046.052-.092.079-.134.047-.087.095-.167.135-.257a6.9 6.9 0 0 0 .117-.25c.036-.077.063-.156.088-.23a2.62 2.62 0 0 0 .075-.215c.02-.074.042-.147.055-.215.02-.069.034-.134.048-.195l.02-.085a.233.233 0 0 1 .01-.048c.01-.059.02-.11.025-.15.01-.048.016-.494.017-.867.16-.116.316-.23.475-.341 3.345-2.341 6.324 2.185 10.298-1.693.356-.345 1.68-1.68 1.68-1.68s1.094 1.219 1.681 1.68c3.533 2.779 5.506-.378 9.463 1.765z" fill="#9A9999"/><path d="M29.439 38.369c0 8.019 22.232 1.401 31.857 1.407 9.628.01 30.686 5.054 30.686-1.371 0-1.3-17.26-12.76-30.686-12.76-10.711 0-31.857 11.05-31.857 12.724" fill="#2C2C2D"/><path d="M70.198 17.687c-.01.005-.017.013-.025.019V17.7h.025s.71-2.754.32-3.554c-.517-1.061-3.954-2.577-3.954-2.577s1.965-1.309 2.002-2.016C68.734 5.988 61.16.513 57.58.38 53.109.212 43.038 10.786 43.038 10.786c8.299-3.762 12.218-2.497 12.218-2.497s-2.097 1.552-2.12 2.34c-.027.846 2.26 1.818 2.12 2.652-1.49.015-2.22.331-2.48.935-.32.735-.048 3.078-.005 3.42a.56.56 0 0 0-.008.05L45.47 31.918c3.085 3.07 28.66 3.364 31.398-.013l-6.67-14.217z" fill="#2C2C2D"/><path d="M76.869 31.905l-1.793-3.827c-10.534 2.375-17.128 2.375-27.637 0l-1.969 3.84c3.084 3.068 28.66 3.362 31.399-.013" fill="#A55299"/><path d="M65.101 33.675a2.133 2.133 0 0 1-2.137 2.128h-3.602a2.133 2.133 0 0 1-2.139-2.128v-3.36c0-1.179.958-2.13 2.14-2.13h3.601c1.18 0 2.137.951 2.137 2.13v3.36z" fill="#F7B90B"/><path d="M59.362 34.2a.527.527 0 0 1-.527-.524v-3.362c0-.291.237-.525.527-.525h3.602c.289 0 .528.234.528.525v3.362a.529.529 0 0 1-.528.524h-3.601z" fill="#A55299"/><path d="M57.388 43.493s-.448 1.631-1.851 1.309c-.686-.158-.807-1.088-3.01-.67-.692.163-2.148 1.045-2.429 1.635-.28.59-.077-2.163 2.184-3.186 1.632-.61 2.185-.58 3.536-.58 1.35 0 1.766.82 1.57 1.492m8.658 0s.447 1.631 1.851 1.309c.686-.158.807-1.088 3.01-.67.692.163 2.148 1.045 2.428 1.635.281.59.078-2.163-2.184-3.186-1.631-.61-2.184-.58-3.535-.58-1.35 0-1.767.82-1.57 1.492m-10.713 6.65c0 1.499-.796 2.714-1.778 2.714s-1.777-1.215-1.777-2.714c0-1.5.795-2.714 1.777-2.714.982 0 1.778 1.215 1.778 2.714m16 0c0 1.499-.795 2.714-1.777 2.714-.983 0-1.778-1.215-1.778-2.714 0-1.5.795-2.714 1.778-2.714.982 0 1.777 1.215 1.777 2.714" fill="#333433"/><path d="M61.573 52.92c.746-.103 2.632 1.59 2.632 1.59s.09-.376-.303-1.12c-.424-.802-2.355-1.438-2.355-1.438s-1.5.406-2.211 1.452c-.263.262-.447 1.174-.447 1.174s1.684-1.52 2.684-1.658z" fill="#147633"/><g transform="translate(55.333 55.571)"><mask id="b" fill="#fff"><use xlink:href="#a"/></mask><path d="M.177.63S6.31 3.532 11.887.27c0 0-1.236 4.949-5.289 5.032-3.658.11-4.43-1.35-4.868-1.77C1.291 3.113.466 1.93.177.63" fill="#147633" mask="url(#b)"/></g></g></svg>