<svg width="120" height="120" viewBox="0 0 120 120" xmlns="http://www.w3.org/2000/svg"><g fill="none"><path d="M118.243 63.682c-7.397.349-29.414 1.479-35.27 1.787a3.347 3.347 0 0 0-2.384 1.182l-3.123 3.667a3.792 3.792 0 0 1-2.65 1.326C63.39 72.322.081 71.449.081 71.449c0 9.904 9.606 11.26 9.606 11.26h99.288a3.247 3.247 0 0 0 0-6.493h-1.993c7.582 0 11.353-6.596 12.863-10.254a1.655 1.655 0 0 0-1.603-2.28z" fill="#555C6B"/><path d="M108.966 76.195h-1.993.072H.976C3.37 81.805 9.678 82.7 9.678 82.7h99.288a3.247 3.247 0 0 0 3.246-3.247 3.25 3.25 0 0 0-3.246-3.257z" fill="#444955"/><path d="M27.318 67.75H2.764c-.74 0-1.326.596-1.326 1.325v2.374l27.226.298v-2.672a1.346 1.346 0 0 0-1.346-1.325z" fill="#C3B1A6"/><path fill="#D8C4B8" d="M9.164 55.575H26.63V67.76H9.164z"/><path d="M27.658 53.675H8.148a.943.943 0 0 0-.946.945c0 .524.421.945.945.945h19.51a.943.943 0 0 0 .946-.945.95.95 0 0 0-.945-.945z" fill="#444955"/><path fill="#D8C4B8" d="M14.733 48.476h10.952v5.209H14.733z"/><path d="M23.908 49.411h-1.336a.412.412 0 0 0-.411.41v1.028c0 .226.185.411.41.411h1.337a.412.412 0 0 0 .41-.41v-1.028a.412.412 0 0 0-.41-.411zm.082 7.911h-1.336a.412.412 0 0 0-.41.41v1.028c0 .226.184.411.41.411h1.336a.412.412 0 0 0 .41-.41v-1.028a.412.412 0 0 0-.41-.411zm-3.606 0h-1.336a.412.412 0 0 0-.411.41v1.028c0 .226.185.411.41.411h1.337a.412.412 0 0 0 .41-.41v-1.028a.412.412 0 0 0-.41-.411zm-3.596 0h-1.336a.412.412 0 0 0-.41.41v1.028c0 .226.184.411.41.411h1.336a.412.412 0 0 0 .41-.41v-1.028a.412.412 0 0 0-.41-.411zm-3.606 0h-1.336a.412.412 0 0 0-.411.41v1.028c0 .226.185.411.41.411h1.337a.412.412 0 0 0 .41-.41v-1.028a.412.412 0 0 0-.41-.411zm7.705-7.911h-1.336a.412.412 0 0 0-.41.41v1.028c0 .226.184.411.41.411h1.336a.412.412 0 0 0 .41-.41v-1.028a.412.412 0 0 0-.41-.411zm-3.021 0h-1.335a.412.412 0 0 0-.411.41v1.028c0 .226.185.411.41.411h1.336a.412.412 0 0 0 .411-.41v-1.028a.412.412 0 0 0-.41-.411z" fill="#A19288"/><path d="M26.209 46.75h-11.99a.35.35 0 0 0-.287.555l.811 1.171h10.952l.812-1.171a.355.355 0 0 0-.298-.555z" fill="#444955"/><path d="M22.223 62.582h-.905a1.1 1.1 0 0 0-1.099 1.1v4.068h3.103v-4.068c0-.617-.493-1.1-1.1-1.1zm-9.966 6.73h-.606a.445.445 0 0 0-.442.441c0 .237.195.442.442.442h.606a.445.445 0 0 0 .442-.442.439.439 0 0 0-.442-.441zm-2.887 0h-.606a.445.445 0 0 0-.442.441c0 .237.195.442.442.442h.606a.445.445 0 0 0 .442-.442.452.452 0 0 0-.442-.441zm-2.887 0h-.606a.445.445 0 0 0-.442.441c0 .237.195.442.442.442h.606a.445.445 0 0 0 .442-.442.452.452 0 0 0-.442-.441zm14.445 0h-.606a.445.445 0 0 0-.442.441c0 .237.195.442.442.442h.606a.445.445 0 0 0 .442-.442.439.439 0 0 0-.442-.441zm2.897 0h-.606a.445.445 0 0 0-.442.441c0 .237.196.442.442.442h.606a.445.445 0 0 0 .442-.442.452.452 0 0 0-.442-.441zm-8.671 0h-.606a.445.445 0 0 0-.442.441c0 .237.195.442.442.442h.606a.445.445 0 0 0 .442-.442.452.452 0 0 0-.442-.441zm2.887 0h-.606a.445.445 0 0 0-.442.441c0 .237.195.442.442.442h.606a.445.445 0 0 0 .442-.442.452.452 0 0 0-.442-.441z" fill="#A19288"/><path d="M118.243 63.682c-7.397.349-29.414 1.479-35.27 1.787a3.347 3.347 0 0 0-2.384 1.182l-.586.688 39.925-2.384c-.185-.729-.853-1.315-1.685-1.273z" fill="#444955"/><path fill="#3C66AE" d="M61.418 65.757h14.116v6.134H61.418z"/><path fill="#4A7FDB" d="M46.253 65.757h14.116v6.134H46.253z"/><path fill="#F5DC79" d="M53.712 59.654h14.116v6.134H53.712z"/><path fill="#DE8F31" d="M38.548 59.654h14.116v6.134H38.548z"/><path fill="#B33D26" d="M31.089 65.757h14.116v6.134H31.089z"/><path d="M22.777 37a.548.548 0 0 0-.544.545v9.205h1.089v-9.205a.548.548 0 0 0-.545-.545z" fill="#444955"/><path fill="#4A7FDB" d="M46.253 53.49h14.116v6.134H46.253z"/></g></svg>