<svg width="120" height="120" viewBox="0 0 120 120" xmlns="http://www.w3.org/2000/svg"><g fill="none" fill-rule="evenodd"><path d="M20.932 48.304c-2.043 0-3.704-1.672-3.704-3.729V42.98h1.032a2.352 2.352 0 0 0 2.344-2.36v-8.8c0-1.304-1.05-2.36-2.344-2.36h-3.557a2.352 2.352 0 0 0-2.345 2.36v8.798c0 1.304 1.05 2.36 2.345 2.36h.462v1.596c0 3.202 2.587 5.806 5.767 5.806h6.609v-2.077h-6.61zm77.365 0c2.043 0 3.704-1.672 3.704-3.729V42.98h-1.033a2.352 2.352 0 0 1-2.344-2.36v-8.8c0-1.304 1.05-2.36 2.344-2.36h3.558a2.352 2.352 0 0 1 2.344 2.36v8.798c0 1.304-1.05 2.36-2.344 2.36h-.462v1.596c0 3.202-2.587 5.806-5.767 5.806h-6.61v-2.077h6.61z" fill="#42210B"/><path d="M97.58 51.938H21.649l2.79-26.772c.39-3.749 3.633-6.728 7.25-6.728h55.85c3.618 0 6.86 2.979 7.252 6.728l2.789 26.772z" fill="#C69C6D"/><path d="M26.874 103.808h-5.767c-2.521 0-4.565-2.058-4.565-4.596V77.88h14.897v21.332c0 2.538-2.043 4.596-4.565 4.596" fill="#42210B"/><path d="M31.44 99.212V77.88h-7.45v25.928h2.884c2.521 0 4.565-2.057 4.565-4.596" fill="#592C16"/><path d="M98.121 103.808h-5.766c-2.522 0-4.566-2.058-4.566-4.596V77.88h14.898v21.332c0 2.538-2.044 4.596-4.566 4.596" fill="#42210B"/><path d="M102.687 99.212V77.88h-7.449v25.928h2.883c2.522 0 4.566-2.057 4.566-4.596" fill="#592C16"/><path d="M105.395 89.18H13.834V58.779c0-5.212 4.196-9.437 9.372-9.437h72.817c5.176 0 9.372 4.225 9.372 9.437v30.4z" fill="#C69C6D"/><path d="M13.833 58.778V89.18h26.342v-26.4c0-7.421-5.975-13.438-13.347-13.438h-3.622c-5.176 0-9.373 4.225-9.373 9.436m65.22 4.002v26.4h26.342V58.779c0-5.212-4.196-9.436-9.372-9.436H92.4c-7.372 0-13.348 6.016-13.348 13.437" fill="#B2875B"/><path d="M109.193 90.24H10.036c-2.053 0-3.717-1.676-3.717-3.743s1.664-3.742 3.717-3.742h99.157c2.053 0 3.717 1.675 3.717 3.742s-1.664 3.742-3.717 3.742" fill="#E6E6E6"/><path d="M6.319 86.497c0 2.067 1.664 3.742 3.717 3.742h26.687a3.933 3.933 0 0 0 3.637 2.452h38.51a3.93 3.93 0 0 0 3.636-2.452h26.688c2.053 0 3.717-1.675 3.717-3.742H6.319z" fill="#B3B3B3"/><path d="M69.062 91.963H50.167c-1.902 0-3.443-1.552-3.443-3.466v-4c0-1.914 1.541-3.466 3.443-3.466h18.895c1.901 0 3.442 1.552 3.442 3.466v4c0 1.914-1.541 3.466-3.442 3.466" fill="#FFF"/><path d="M69.062 81.031H50.167c-1.902 0-3.443 1.552-3.443 3.466v2.366h25.78v-2.366c0-1.914-1.541-3.466-3.442-3.466" fill="#F2F2F2"/><path d="M89.893 92.71a2.531 2.531 0 0 1-2.523-2.54v-7.346c0-1.403 1.13-2.54 2.523-2.54a2.531 2.531 0 0 1 2.523 2.54v7.346c0 1.402-1.13 2.54-2.523 2.54m-60.557 0a2.531 2.531 0 0 1-2.523-2.54v-7.346a2.531 2.531 0 0 1 2.523-2.54 2.531 2.531 0 0 1 2.522 2.54v7.346a2.53 2.53 0 0 1-2.522 2.54m6.646-25.98c0 4.203-3.384 7.609-7.557 7.609-4.174 0-7.557-3.406-7.557-7.608s3.383-7.609 7.557-7.609c4.173 0 7.557 3.407 7.557 7.609" fill="#FFF"/><path d="M28.268 63.828c-1.677 0-3.04 1.373-3.04 3.061s1.363 3.06 3.04 3.06c1.676 0 3.04-1.372 3.04-3.06s-1.364-3.061-3.04-3.061m0 8.856c-3.174 0-5.756-2.6-5.756-5.795s2.582-5.794 5.756-5.794c3.173 0 5.755 2.599 5.755 5.794 0 3.195-2.582 5.795-5.755 5.795" fill="#CCC"/><path d="M23.55 76.842a2.659 2.659 0 0 1-2.65 2.667 2.658 2.658 0 0 1-2.65-2.667 2.659 2.659 0 0 1 2.65-2.668 2.659 2.659 0 0 1 2.65 2.668" fill="#EC5C44"/><path d="M22.762 76.427c0 .806-.649 1.46-1.45 1.46-.8 0-1.45-.654-1.45-1.46 0-.806.65-1.46 1.45-1.46.801 0 1.45.654 1.45 1.46" fill="#CC3A27"/><path d="M83.246 66.73c0 4.203 3.384 7.609 7.558 7.609 4.173 0 7.557-3.406 7.557-7.608s-3.384-7.609-7.557-7.609c-4.174 0-7.558 3.407-7.558 7.609" fill="#FFF"/><path d="M87.92 66.889c0 1.688 1.365 3.06 3.041 3.06 1.677 0 3.04-1.372 3.04-3.06s-1.363-3.06-3.04-3.06c-1.676 0-3.04 1.372-3.04 3.06m-2.716 0c0-3.195 2.582-5.794 5.756-5.794 3.173 0 5.756 2.599 5.756 5.794 0 3.195-2.583 5.794-5.756 5.794-3.174 0-5.756-2.6-5.756-5.794" fill="#CCC"/><path d="M95.679 76.842a2.659 2.659 0 0 0 2.65 2.667 2.658 2.658 0 0 0 2.65-2.667 2.659 2.659 0 0 0-2.65-2.668 2.659 2.659 0 0 0-2.65 2.668" fill="#EC5C44"/><path d="M96.466 76.427c0 .806.65 1.46 1.45 1.46.801 0 1.45-.654 1.45-1.46 0-.806-.649-1.46-1.45-1.46-.8 0-1.45.654-1.45 1.46" fill="#CC3A27"/><path d="M44.331 76.842a1.942 1.942 0 0 1-1.935-1.949V59.09c0-1.077.866-1.949 1.935-1.949 1.07 0 1.936.872 1.936 1.949v15.803a1.942 1.942 0 0 1-1.936 1.95m6.113-.001a1.942 1.942 0 0 1-1.935-1.949V59.09c0-1.077.867-1.949 1.935-1.949 1.07 0 1.936.872 1.936 1.949v15.803a1.942 1.942 0 0 1-1.936 1.95m6.114-.001a1.942 1.942 0 0 1-1.936-1.949V59.09c0-1.077.867-1.949 1.936-1.949s1.935.872 1.935 1.949v15.803a1.942 1.942 0 0 1-1.935 1.95m6.112-.001a1.942 1.942 0 0 1-1.934-1.949V59.09c0-1.077.866-1.949 1.935-1.949s1.936.872 1.936 1.949v15.803a1.942 1.942 0 0 1-1.936 1.95m6.113-.001a1.942 1.942 0 0 1-1.935-1.949V59.09c0-1.077.866-1.949 1.935-1.949s1.936.872 1.936 1.949v15.803a1.942 1.942 0 0 1-1.936 1.95m6.113-.001a1.942 1.942 0 0 1-1.935-1.949V59.09c0-1.077.867-1.949 1.935-1.949 1.07 0 1.936.872 1.936 1.949v15.803a1.942 1.942 0 0 1-1.936 1.95" fill="#603813"/><path d="M28.119 47.784c-1.01 0-1.798-.88-1.692-1.892L28.54 25.6c.167-1.602 1.639-3.007 3.148-3.007h55.85c1.51 0 2.981 1.405 3.149 3.008l2.114 20.292a1.708 1.708 0 0 1-1.692 1.892H28.12z" fill="#192024"/><path fill="#374B54" d="M69.752 22.592L44.88 47.784h4.69l24.874-25.192z"/><path fill="#4E7684" d="M79.679 22.592L54.806 47.784h4.69L84.37 22.592z"/><path d="M90.688 25.6c-.107-1.02-.742-1.958-1.578-2.507L64.733 47.784h4.69l21.325-21.607-.06-.577z" fill="#374B54"/></g></svg>