<svg width="120" height="120" viewBox="0 0 120 120" xmlns="http://www.w3.org/2000/svg"><g fill="none" fill-rule="evenodd"><path d="M32.915 82.318a9.144 9.144 0 0 1 1.382 2.507c1.276 3.52.227 7.624-2.875 11.247-3.437 4.02-10.436 5.715-16.534 4.087-2.843-4.321-2.74-10.408-.84-14.874.84-1.98 4.15-8.336 11.361-7.103 3.242.552 5.854 2.014 7.506 4.136zM3.96 98.692c1.932 2.48 4.639 4.394 7.987 5.592.795.945 1.72 1.82 2.777 2.599 12.854 9.483 28.193-3.188 28.84-3.732l58.296-45.395a2.408 2.408 0 0 0 .422-3.378 2.407 2.407 0 0 0-3.38-.426L40.534 99.407c-.163.139-8.895 7.316-17.432 5.932 4.775-.697 9.158-2.84 11.979-6.137 4.261-4.98 5.627-10.815 3.748-16.017-1.835-5.067-6.548-8.714-12.609-9.748-7.11-1.215-13.47 2.598-16.603 9.96-1.64 3.858-2.24 8.514-1.39 12.887-1.377-1.53-2.457-3.62-2.746-6.441-.718-7.03 3.834-11.06 9.595-16.159C30.556 59.99 76.074 25.252 76.34 25.05a2.408 2.408 0 0 0 .478-3.371l-.025-.035a2.404 2.404 0 0 0-3.346-.443c-.27.202-45.937 35.057-61.56 48.874C5.904 75.37-.282 80.84.69 90.335c.325 3.194 1.454 6.023 3.27 8.357z" fill="#16394D"/><path d="M101.085 47.535c11.027-6.776 5.379-18.686-3.03-24.823-4.526-3.544-15.459-2.057-15.059 5.702-.133-.106-.251-.18-.384-.29 0 0-3.469 5.748-9.251 3.91-5.78-1.839-7.76-6.708-1.42-13.072 6.338-6.363 26.169-16.594 39.668-1.579 10.252 11.403 9.61 23.765 4.118 30.883-5.492 7.12-12.69 16.905-22.442 14.88-9.749-2.034-6.323-14.112-2.846-16.124 7.908-4.578 10.979-.272 10.979-.272" fill="#66BFB2"/><path d="M101.085 47.535c11.027-6.776 5.379-18.686-3.03-24.823-4.526-3.544-15.459-2.057-15.059 5.702 7.044 5.539 9.184-1.498 9.184-1.498 11.39 8.829 9.238 19.834 9.238 19.834l-.333.785" fill="#3196A0"/></g></svg>