<svg width="480" height="360" viewBox="0 0 480 360" xmlns="http://www.w3.org/2000/svg"><g fill="none" fill-rule="evenodd"><path fill="#FA898D" d="M.343-44H480v392H.343z"/><path d="M461.533 48c3.837 18.96-47.075-18.069-47.075 29.211 0 18.652-19.426.652-23.4 31.509-.857 6.583-18.947-9.977-25.49 18.411-12.711 4.423-8.292-7.68-20.386 19.098-.89 1.988-3.323 3.737-6.99 5.245H98.33c-5.927-11.931-4.831-4.457-15.246-8.091-6.544-28.389-24.669-11.863-25.49-18.412-3.94-30.891-23.401-12.857-23.401-31.508 0-47.28-29.054-20.16-28.232-40.8.24-6.343-1.884-12.034-5.618-16.8V348H480V23.931c-5.893-2.125-22.475 4.32-18.467 24.069z" fill="#FFABAE"/><path d="M450.535 105.874c-4.145 4.835-37.893 18.446-46.252 28.286-19.53 22.903-19.838 8.091-29.91 3.086-15.247-7.577-8.497-18.583-32.24-23.452-8.463-1.714-12.197-5.794-17.679-9.085-9.49-5.692-14.081-11.966-22.407-6.892-23.811 14.469-52.694 24.549-77.944 37.714-32.994 17.212-17.268 12.789-47.04 2.126-26.108-9.326-80.583-37.543-110.939-48-.582.137-5.584 3.086-6.098 3.429-14.63 9.257-37.756 21.531-59.683 34.32V348H480V119.074c-.651-.48-1.336-.994-1.987-1.474-5.893-4.423-22.373-17.726-27.478-11.726z" fill="#E8696D"/><path d="M465.576 223.406c-5.653 1.783-12.848 11.417-15.76 9.325-8.497-6.068-1.679-5.588-15.52-11.965-5.174-2.366-14.116-4.286-14.596-10.217-.445-5.555-12.676-4.732-14.15-13.235-.959-5.725-7.332-8.331-10.38-1.337-4.66 10.732-16.104 8.229-17.782 12.446-2.364 6-7.4 6.891-8.943 8.674-9.661 11.04-10.244-3.737-16.102 4.08-4.283 5.692-5.071 11.52-10.45 7.234-2.638-2.091-3.186-5.794-3.94-5.897-13.636-2.023-6.373-3.6-13.156-10.388-6.442-6.446-6.647-5.452-11.135-1.406-6.955 6.24-8.189 11.006-18.125 11.006-12.676 0-13.738 13.234-27.957 4.834-.034 0-7.469-2.229-7.948-2.331-.651-3.086-7.949-10.458-8.6-10.629-15.383-4.183-8.702-4.011-11.272-7.611-8.565-12.035-9.936-.206-12.848 4.937-8.462 14.88-9.73 2.194-17.781 7.063-4.728 2.88-8.771 1.2-11.82-3.429-2.365-3.6-21.688 10.32-25.217 12-7.332 3.429-6.646 5.623-11.546.789-1.918-1.886 1.542-.24 1.37-2.606-6.92 0-12.813 1.611-18.74 5.177-3.29 1.989-19.29 29.246-19.46 32.091-.412 6.789-.343 10.115.548 11.898H480v-53.52c-1.439.514-2.74.925-3.769.857-6.646-.309-6.44.823-10.655 2.16z" fill="#DC5C60"/><path d="M176.651 248.949c-.377-1.475-2.775-7.886-3.529-8.332 4.694-.926 7.846.309 7.16-5.314-.17-1.474-5.31-9.943-6.132-13.646-.274-1.234-5.893-13.988-4.18-13.92 2.33.103 3.666-.308 4.934 1.68-3.77-9.874-9.388-19.474-12.814-29.794-1.884-5.657-7.058-17.383-10.86-21.6-.035-.034-3.735-5.829-3.94-5.349-4.044 9.669-8.977 20.572-14.356 29.657-.549.926-3.187 6.926-4.694 11.315-3.05-5.76-5.825-12.069-8.223-17.76-.137-.377-2.946 4.045-2.98 4.08-2.879 3.188-6.853 12.137-8.258 16.423-1.233 3.702-2.843 7.302-4.488 10.834-1.987-6.377-5.173-15.257-5.173-15.326 0-.583 3.494-.274 4.557-.24 1.507.069-4.489-13.954-5.345-15.36-5.174-8.743-9.902-19.268-13.808-28.56-.205-.446-3.734 5.109-3.803 5.143-3.665 4.046-8.668 15.36-10.45 20.811-3.185 9.6-8.325 18.583-11.956 27.738-1.097-2.88-2.433-5.863-2.776-6.412-4.077-6.926-7.811-15.223-10.895-22.56-.137-.377-2.946 4.046-2.98 4.08-2.741 3.017-6.407 11.177-8.017 15.669-1.68-6.069-6.065-18.24-6.065-18.309 0-.583 3.495-.274 4.557-.24 1.508.069-4.488-13.954-5.345-15.36-5.173-8.743-9.901-19.268-13.807-28.56-.206-.446-3.734 5.109-3.803 5.143-2.878 3.189-6.578 10.869-8.908 16.663v117.086c6.133.171 13.842.137 18.98.137-1.335 2.743-2.397 5.623-2.26 8.914h162.878c-1.714-3.326-3.598-6.48-4.66-9.84-1.473-4.731 1.473-1.989 5.07-1.68 3.393.274 5.482 2.674 2.056-4.971-2.09-4.663-4.18-6.48-5.687-12.24zm-117.893-34.8c-.034.102-.034.205-.068.308-1.268-3.737-2.467-7.063-2.467-7.097 0-.446 2.74-.24 3.597-.206.583.035-.24-2.605-1.336-5.417 1.096-1.2 2.33-.891 4.283-.994 1.644-.034-3.77 12.24-4.009 13.406z" fill="#C24044"/><path d="M465.61 270.565c-3.392 0-7.332-11.271-7.297-11.16-.823-.722-12.643-2.055-13.122-1.11-4.146 7.883-8.977 2.553-10.827 8.494-2.467 7.996-9.113 1.833-12.574 7.385-5.07 8.217-5.516-.333-8.428 2.72-2.775 2.943-4.625 1.888-8.291 1.888-7.264 0-1.37-7.717-6.955-7.384-4.18.277-7.949-5.775-8.566-5.664-3.392.833-6.407-3.498-6.44-3.498-9.457 0-2.81-2.72-8.943-3.442.103 1.055-5.448 6.107-6.304 6.885-.925-.111-1.508 3.11-2.947 3.054-8.017-.556-5.036 3.053-10.45 3.053-10.86 0-8.427-3.886-9.866-4.386-5.722-1.888-2.227 1-6.167-6.885-5.996 1.11-3.46 6.885-7.504 6.885-3.871 0-7.708 8.384-10.004 4.053-2.535-4.83-7.537-.11-8.84-2.61-4.83-9.16-8.599 1.61-11.408 1.61-5.071 0-2.878 1.777-4.249 2.222-5.516 1.832-3.734-3.942-7.777-3.942-6.099 0-3.255 1.72-6.955 1.72-2.261 0-5.14-6.107-7.298-3.164-3.357 4.553-6.818 1.721-8.051 3.887-2.022 3.664-6.578 2.054-7.675.444-2.809-4.053-11.032 3.72-12.95-3.776-1.097-4.275-7.71-2.665-8.292-1.888-4.59 6.274-7.469-.222-10.38 4.498-1.645 2.665-6.408 1-6.887-.555-1.405-4.553-4.626-.334-5.859-2.666-1.576-2.998-4.488-4.386-5.653-1.499-2.364 5.941-7.16 1.277-8.188 3.22-3.53 6.719-6.51 2.277-7.88 4.11-1.097 1.498-8.429 2.11-9.49-.056-3.359-6.885-9.114-3.776-9.765-1.61-1.234 3.997-7.64.388-7.64.333-.72-2.332-4.352-1.277-4.386-1.222-2.707 3.11-5.174 1-7.572 1.166-2.364.167-9.25-3.276-9.73-1.776-1.747 5.607-7.846-.833-8.223-.833-4.762.277-3.392-8.495-5.55-6.385-2.81 2.776-5.996 1.665-6.407 2.61-2.364 5.107-6.818.443-8.6 6.495-.959 3.387-5.584 1.944-5.618 1.944-3.22-3.72-5.38 5.385-13.602-1.388-.103.166-5.413.832-6.338 2.665-1.953 3.72-8.6.944-8.463.999-5.345 0-4.008-2.665-7.229-4.22-3.734-1.832-6.68-9.272-6.68-9.216-1.645 0-2.947-.556-4.112 1.165-3.838 5.608-6.441-1.72-8.017 1.278-3.015 5.718-5.996 3.164-6.339 6.607-.89 8.495-8.77 2.22-8.805 2.22-7.811.556-1.816 6.941-9.113 6.941-7.47 0-4.489-1.721-6.099-2.22-.754-5.387-10.484-.167-12.026-5.22-2.809-9.161-4.35-.61-5.653-11.216-.308-2.554-3.289-4.275-6.783-5.496v147.968H480V275.062c-2.09-.277-3.906-.389-5.036-.61-7.024-1.222-.274-3.887-9.354-3.887z" fill="#572B2D"/></g></svg>