<svg width="120" height="120" viewBox="0 0 120 120" xmlns="http://www.w3.org/2000/svg" xmlns:xlink="http://www.w3.org/1999/xlink"><defs><path id="a" d="M.148.222h19.92v37.482H.148z"/><path id="c" d="M.189.145H21.02v93.792H.19z"/></defs><g fill="none" fill-rule="evenodd"><g transform="translate(50.75 .05)"><mask id="b" fill="#fff"><use xlink:href="#a"/></mask><path d="M1.617 31.352c-4.014-6.241.577-40.038 9.162-28.893 1.207 1.568.073 7.775.654 9.888 1.133 4.12 4.35 7.3 6.37 11.106 1.751 3.299 3.173 4.211 1.558 7.372-1.77 3.465-12.152 7.166-15.638 6.861l-2.106-6.334z" fill="#8F4A21" mask="url(#b)"/></g><path d="M103.466 103.007c-.206.17-.412.343-.618.512-2.809 2.313-5.538 4.26-8.253 5.908-.806.488-1.61.948-2.411 1.384-6.933 3.769-13.866 5.678-21.796 6.786-.744.103-1.498.201-2.261.291a157.66 157.66 0 0 1-6.713.643c-6.081.464-12.303 1.201-18.384 1.243-.87.01-1.741 0-2.607-.023-9.161-.263-17.892-2.43-25.167-9.887C3.502 97.827-1.45 76.428 4.574 60.769c6.46-16.796 19.918-28.218 40.221-33.262a135.28 135.28 0 0 1 3.066-.723c1.283-.286 2.575-.554 3.867-.798 2.495-.474 5.014-.868 7.537-1.173a80.793 80.793 0 0 1 2.36-.258c3.019-.3 6.043-.465 9.072-.474.974-.01 1.947 0 2.926.033 4.292.117 8.576.55 12.812 1.351 10.014 1.896 18.505 8.26 23.505 15.622 12.808 18.87 12.911 45.552-6.474 61.92" fill="#F9A11D"/><g transform="translate(30.708 25.841)"><mask id="d" fill="#fff"><use xlink:href="#c"/></mask><path d="M3.582 31.713c-1.072 6.11-1.151 12.365-.969 18.555.239 7.841.95 15.715 2.495 23.416 1.157 5.753 3.216 14.233 7.214 20.25-.87.008-1.741 0-2.607-.024-1.325-2.145-2.42-4.482-3.305-6.819C1.162 73.234-.125 57.42.249 42.694c.202-7.973 1.4-15.805 4.667-23.154C7.97 12.675 12.256 6.56 17.153.943 18.436.656 19.728.389 21.02.145 12.73 9.127 5.731 19.47 3.582 31.713" fill="#F37820" mask="url(#d)"/></g><path d="M70.388 117.597c-.744.103-1.498.202-2.261.29-.66-6.114-1.985-12.195-3.258-18.103-2.215-10.273-4.72-20.545-5.248-31.08-.421-8.442.725-16.931.96-25.369.154-5.73.547-12.689-1.316-18.522a79.783 79.783 0 0 1 2.36-.258c1.638 5.594 1.46 12.051 1.329 17.5-.21 8.713-1.447 17.503-1.011 26.217.562 11.267 3.37 22.178 5.669 33.173 1.11 5.307 2.19 10.713 2.776 16.152m24.207-8.17c-.805.488-1.61.948-2.411 1.384 1.09-14.758-1.662-30.08-5.21-44.12-2.313-9.16-4.555-18.396-8.02-27.204-2.083-5.293-4.638-10.83-8.257-15.406.974-.01 1.947 0 2.925.033 2.983 4.153 5.248 8.902 7.116 13.562 3.75 9.362 6.147 19.16 8.628 28.911 3.469 13.651 6.053 28.471 5.229 42.84" fill="#F37820"/></g></svg>