<svg width="100" height="100" viewBox="0 0 100 100" xmlns="http://www.w3.org/2000/svg" xmlns:xlink="http://www.w3.org/1999/xlink"><defs><path d="M3.771.782C2.687.529 1.33.022.217.022c-.04 0-.078 0-.117.002v2.152h3.67V.782z" id="a"/></defs><g fill="none" fill-rule="evenodd"><path d="M59.573 9.308l-1.128 5.578 3.353-2.225-2.225-3.353zm-3.316 9.736a1.32 1.32 0 0 1-1.032-1.556l2.39-11.829a1.32 1.32 0 0 1 2.395-.468l4.719 7.11a1.32 1.32 0 0 1-.37 1.83l-7.11 4.719a1.321 1.321 0 0 1-.992.194z" fill="#458AC1"/><path d="M49.147 23.763a1.32 1.32 0 0 1-.469-2.395l6.01-3.988-3.988-6.01a1.32 1.32 0 1 1 2.2-1.46l4.72 7.11a1.32 1.32 0 0 1-.37 1.83l-7.11 4.719c-.305.201-.661.26-.993.194" fill="#458AC1"/><path d="M57.182 21.136l-1.128 5.579 3.353-2.226-2.225-3.353zm-3.316 9.737a1.32 1.32 0 0 1-1.033-1.556l2.392-11.829a1.32 1.32 0 0 1 2.394-.469l4.72 7.11a1.32 1.32 0 0 1-.37 1.83l-7.11 4.72a1.322 1.322 0 0 1-.993.194z" fill="#458AC1"/><path d="M50.8 95.715h.928c1.1 0 1.992-.891 1.992-1.991V71.778h-4.912v21.946c0 1.1.892 1.991 1.991 1.991m-15.343-2.668l.911.184a1.991 1.991 0 0 0 2.347-1.557l4.347-21.511-4.814-.973L33.9 90.7a1.991 1.991 0 0 0 1.557 2.347" fill="#ACC953"/><path d="M76.986 64.642l3.715-18.377c1.343-6.647-2.956-13.125-9.603-14.468l-33.47-6.765c-6.646-1.344-13.124 2.956-14.468 9.603L19.446 53.01c-1.344 6.647 2.956 13.125 9.603 14.468l33.469 6.766c6.647 1.343 13.125-2.956 14.468-9.603" fill="#ACC953"/><path d="M70.416 35.765l-33.7-6.812a7.981 7.981 0 0 0-9.404 6.242l-3.75 18.547a7.982 7.982 0 0 0 6.242 9.404l33.7 6.812a7.981 7.981 0 0 0 9.405-6.242l3.748-18.547a7.981 7.981 0 0 0-6.241-9.404" fill="#FFF"/><path d="M61.777 60.318c-.93 6.295-4.514 9.86-4.588 9.933a2.143 2.143 0 0 0 2.959 3.101c.192-.182 4.709-4.551 5.869-12.409a2.143 2.143 0 1 0-4.24-.625" fill="#ACC953"/><path d="M50.996 87.009c-5.894 4.475-12.83 1.954-16.76-3.221-3.93-5.175-4.494-12.533 1.4-17.008 5.894-4.476 16.015-4.374 19.945.801 3.93 5.176 1.309 14.952-4.585 19.428" fill="#AD6333"/><path fill="#AD6333" d="M68.563 54.77l2.68 3.488-29.18 22.422-2.68-3.489z"/><path d="M47.612 79.695a4.8 4.8 0 1 1-5.849-7.612 4.8 4.8 0 0 1 5.85 7.612" fill="#601C1C"/><path d="M38.124 79.481a19.335 19.335 0 0 1 5.505-5.894l23.676-16.528m.593.772l.764.995-29.18 22.422-.764-.995z" stroke="#490606" stroke-width=".5"/><path d="M39.384 83.759l-3.666-4.772a.791.791 0 0 1 .145-1.11l.49-.375a.791.791 0 0 1 1.11.145l3.666 4.771a.791.791 0 0 1-.146 1.11l-.489.376a.792.792 0 0 1-1.11-.145" fill="#FFB633"/><path d="M67.227 51.821c.264.343.689.488 1.087.412l5.306 6.905a1.106 1.106 0 1 0 .726-.558l-5.285-6.878a1.105 1.105 0 1 0-1.834.119m5.908 8.959a1.106 1.106 0 0 0-1.185-.388l-5.259-6.844a1.106 1.106 0 1 0-.712.481l5.304 6.903a1.106 1.106 0 1 0 1.852-.152m-2.34 1.797a1.104 1.104 0 0 0-.999-.424l-5.356-6.97a1.106 1.106 0 1 0-.822.648l5.316 6.917a1.106 1.106 0 1 0 1.861-.17" fill="#601C1C"/><path d="M65.825 62.038l-2.31-3.006a1.805 1.805 0 0 1 .331-2.53l5.702-4.382a1.805 1.805 0 0 1 2.53.332l2.31 3.006c.608.79.46 1.923-.33 2.53l-5.703 4.382a1.804 1.804 0 0 1-2.53-.332" fill="#AD6333"/><path d="M33.664 65.142a2.143 2.143 0 0 0-4.05 1.405c.087.25 2.187 6.173 8.854 10.49a2.143 2.143 0 1 0 2.33-3.598c-5.343-3.459-7.099-8.2-7.134-8.297m24.753 3.61l4.337 1.216a23.869 23.869 0 0 0 3.263-9.025 2.143 2.143 0 1 0-4.24-.626c-.583 3.949-2.21 6.822-3.36 8.435" fill="#ACC953"/><path d="M60.25 57.312l-2.461-.497a1.085 1.085 0 0 1 .43-2.127l2.46.498a1.085 1.085 0 1 1-.43 2.126m-20.073-4.058l-2.46-.497a1.085 1.085 0 0 1 .43-2.126l2.46.497a1.085 1.085 0 1 1-.43 2.126" fill="#EEC6C7"/><path d="M46.063 47.641c-.218 1.72-1.764 2.946-3.454 2.736-1.69-.21-2.883-1.776-2.665-3.497.218-1.72 1.765-2.945 3.454-2.735 1.69.21 2.883 1.775 2.665 3.496" fill="#514740"/><path d="M40.427 42.218a.792.792 0 0 1-.33-1.402 5.331 5.331 0 0 1 3.968-1.085 5.504 5.504 0 0 1 3.68 2.107.792.792 0 1 1-1.252.971 3.918 3.918 0 0 0-2.626-1.505 3.755 3.755 0 0 0-2.796.763.792.792 0 0 1-.644.151" fill="#ACC953"/><path d="M54.451 49.337c-.467 1.67.482 3.4 2.121 3.862 1.639.463 3.346-.517 3.814-2.187.467-1.67-.482-3.4-2.12-3.863-1.64-.462-3.347.517-3.815 2.188" fill="#514740"/><path d="M61.753 46.529a.792.792 0 0 0 .848-1.164 5.331 5.331 0 0 0-3.235-2.54 5.501 5.501 0 0 0-4.21.511.792.792 0 1 0 .777 1.381 3.918 3.918 0 0 1 3.004-.367c.98.275 1.79.91 2.281 1.79a.79.79 0 0 0 .535.389" fill="#ACC953"/><path d="M55.254 55.676c-.436 3.444-3.402 4.95-6.74 4.534-3.34-.415-6.18-2.697-5.743-6.14.436-3.444 4.239-1.283 6.258-1.053 1.606.182 6.66-.785 6.225 2.659" fill="#514740"/><path d="M49.906 57.56c-1.843-.372-3.623.291-4.588 1.557.927.57 2.028.948 3.195 1.094 1.633.203 3.174-.057 4.376-.775-.66-.916-1.71-1.619-2.983-1.876" fill="#DE6C6D"/><path d="M54.127 53.465c-.406.952-1.093 2.223-1.85 2.154-.775-.07-1.404-1.788-1.658-2.592 1.154-.021 2.547-.014 3.508.438z" fill="#42AED2"/><g transform="translate(44.6 52.115)"><mask id="b" fill="#fff"><use xlink:href="#a"/></mask><path d="M.142-1.633s-.324 3.415.825 3.781c.97.31 2.804-2.074 2.804-2.074L.142-1.633z" fill="#42AED2" mask="url(#b)"/></g></g></svg>