<svg xmlns="http://www.w3.org/2000/svg" width="97.188" height="63.005" viewBox="0.155 -2.656 97.188 63.005"><defs><style/></defs><g id="ID0.10398576222360134" transform="translate(.15 .3) scale(.9025)"><path id="Tongue" fill="#DD1A5A" d="M167.02 32.799c-10 7.167-15.826-1.38-22.666-2-9.881-.896-13.067 7.929-22.666 9.667-7.791 1.412-9.41-4.237-18.688-5.452-.351 1.104-.992 2.148-1.909 3.104 1.368-.107 2.737-.054 4.113.306 5.906 1.542 9.646 7.812 16.111 8.034 7.093.243 11.408-6.401 16.809-9.816 6.466-4.092 9.455-.192 15.042 3.378 6.272 4.01 17.394 6.453 23.137-.178 5.777-6.672-3.52-11.173-9.283-7.043z" transform="translate(.3 .55) scale(.58981)"/><g id="Body"><path id="Fill_4_" fill="#6CBD45" d="M87.687 9.707c.055-1.179-.305-2.536-1.195-3.725-2.613-3.493-9.761-3.432-12.188 1.234-.549 1.055-1.907 1.224-2.474-.028-5.586-12.276-20.549-1.001-18.313 10.051.175.868-.24 1.862-1.179 2.076-17.566 3.994-24.948 28.589-21.114 44.461a34.524 34.524 0 0 0-.497-.564c-.03 1.343-.332 18.387 3.588 19.621l.016.004c2.978-.122 6.614-.256 10.041-.322l12.672-.079 31.192-.227a401.56 401.56 0 0 1 9.052.051c2.726.475 4.405-18.5 4.405-18.5.314-4.506.717-15.195-2.737-22.188a3.451 3.451 0 0 1-.149-.357c-6.916 4.827-15.584 7.244-24.017 6.849-8.884-.417-20.735-5.119-24.794-11.792-.893-1.47 1.101-3.756 2.47-2.47 3.255 3.059 5.942 5.414 9.658 7.346 4.901 2.547 8.415 3.356 12.764 3.547 7.798.342 16.435-1.305 22.854-6.133 5.676-4.27 12.098-14.235 2.977-18.439-3.228-1.487-6.736-2.104-10.093-3.175-3.937-1.84-2.939-7.241-2.939-7.241z" transform="translate(.3 .55) scale(.58981)"/><path id="Outline_4_" d="M100.348 40.081c.024-.02.051-.037.074-.057 5.191-4.081 10.514-12.664 5.996-18.963-3.54-4.938-9.975-3.973-15.354-5.832 0 0-.031-.026-.083-.074-.354-.327-1.728-1.765-1.739-4.298.052-.107.092-.222.131-.337 1.596-4.669-6.98-15.358-16.1-5.511-7.541-11.494-24.34-1.318-23.249 11.446-8.933 2.711-15.019 10.561-18.704 18.865-2.16 4.874-3.281 10.093-3.684 15.393-.217 2.87-.015 5.37.539 7.798-.071-.04-.113-.06-.113-.06 1.5 7 .333 14.833 1.833 21.166s5.573 5.492 5.573 5.492c3.218.215 6.627.279 9.692.269l12.807-.15 29.595-.236a177.53 177.53 0 0 0 10.114-.479s3.719 1.938 4.719-12.562l1.515-9.74c.928-5.082.564-14.788-3.317-21.769a2.494 2.494 0 0 0-.245-.361zm-9.722-23.135c3.356 1.07 6.865 1.688 10.093 3.175 9.121 4.204 2.699 14.17-2.977 18.439-6.419 4.828-15.056 6.475-22.854 6.133-4.349-.19-7.863-1-12.764-3.547-3.716-1.932-6.403-4.287-9.658-7.346-1.369-1.286-3.363 1-2.47 2.47 4.059 6.673 15.91 11.375 24.794 11.792 8.432.396 17.101-2.021 24.017-6.849.041.115.09.234.149.357 3.454 6.993 3.052 17.683 2.737 22.188 0 0-1.68 18.975-4.405 18.5a407.584 407.584 0 0 0-9.052-.051l-31.192.227-12.672.079c-3.427.066-7.063.2-10.041.322a.172.172 0 0 0-.016-.004c-3.92-1.234-3.618-18.278-3.588-19.621.163.183.321.359.497.564-3.833-15.873 3.549-40.467 21.114-44.461.939-.214 1.354-1.208 1.179-2.076C51.281 6.187 66.244-5.088 71.83 7.188c.567 1.252 1.925 1.083 2.474.028 2.427-4.666 9.575-4.728 12.188-1.234.89 1.188 1.25 2.546 1.195 3.725 0 0-.998 5.401 2.939 7.239z" transform="translate(.3 .55) scale(.58981)"/></g><g id="R_Leg"><path id="Fill_1_" fill="#6CBD45" d="M104.702 71.608c.887-1.253 1.487-2.674 2.373-3.903.731-1.018 2.797-.832 2.643.715-.299 2.988-2.927 5.573-4.825 7.739-1.439 1.646-3.018 3.265-4.234 5.089-.331.495-.637.976-.982 1.416.059.06.113.125.164.2 5.098 7.665 8.963 16.073 14.374 23.521 1.777-5.5 5.929-7.66 11.812-7.568-3.145-4.482-2.975-9.079.834-12.716-5.987-.651-12.086-2.123-17.562-4.361-1.069-.434-1.54-1.964-.343-2.621 4.079-2.235 10.895-6.991 9.384-12.692-2.067-7.805-10.647-4.191-15.176-.774-.991.747-2.256-.72-1.684-1.632-5.421 4.249-17.072 14.791-4.191 18.24.246-2.314 2.353-4.477 3.75-6.157 1.229-1.481 2.549-2.924 3.663-4.496z" transform="translate(.3 .55) scale(.58981)"/><path id="Outline_1_" d="M130.801 83.544c-5.916-.271-12.166-1.504-17.873-3.489 5.312-3.589 10.258-9.3 7.678-15.95-2.94-7.594-11.209-5.305-16.695-1.893l-2.217 1.548-.175.178c-.02.025-.022.056-.039.082-.572.912.692 2.379 1.684 1.632 4.528-3.417 13.108-7.03 15.176.774 1.511 5.701-5.305 10.457-9.384 12.692-1.197.657-.727 2.188.343 2.621 5.476 2.238 11.574 3.71 17.562 4.361-3.809 3.637-3.979 8.233-.834 12.716-5.883-.092-10.034 2.068-11.812 7.568-5.411-7.447-9.276-15.855-14.374-23.521a1.368 1.368 0 0 0-.164-.2c.346-.44.651-.921.982-1.416 1.217-1.824 2.795-3.442 4.234-5.089 1.898-2.166 4.526-4.751 4.825-7.739.154-1.547-1.911-1.732-2.643-.715-.886 1.229-1.486 2.65-2.373 3.903-1.114 1.572-2.435 3.015-3.664 4.494-1.397 1.681-3.504 3.843-3.75 6.157l.168.973.221 1.281c5.459 8.762 9.706 18.151 16.216 26.247.899 1.119 2.338.055 2.479-1.024.354-2.772.647-5.063 3.119-6.851 2.631-1.897 6.446-1.456 9.428-1.031 1.312.188 2.487-1.277 1.381-2.372-2.473-2.442-4.422-4.685-3.765-8.457.431-2.474 3.068-3.705 4.986-4.795 1.301-.736.67-2.622-.72-2.685z" transform="translate(.3 .55) scale(.58981)"/></g><g id="L_Leg"><path id="Fill" fill="#6CBD45" d="M31.224 63.776a.142.142 0 0 1 .004.02c.04.049.086.088.124.138.745.937-.443 2.217-1.342 1.344-3.921-3.812-10.734-5.541-15.287-1.419-5.939 5.377 1.462 13.178 6.453 16.098.287.168.474.387.586.625.619.51.623 1.789-.386 2.188-5.155 2.045-10.776 2.209-16.103 3.522 2.122 1.131 3.811 2.465 4.414 5.308.559 2.624-.629 5.055-2.233 7.129 3.088-.084 6.02.449 8.749 2.421 1.714 1.238 2.507 3.102 2.962 5.078 5.127-7.12 8.849-15.094 13.543-22.503-1.939-1.808-3.501-4.151-5.145-6.193-1.758-2.186-4.794-5.003-5.468-7.772-.352-1.448 1.436-2.574 2.526-1.471 1.013 1.024 1.564 2.465 2.36 3.666a164.914 164.914 0 0 0 3.181 4.601c1.372 1.923 3.32 3.977 4.153 6.278 15.919-5.452-3.091-19.058-3.091-19.058z" transform="translate(.3 .55) scale(.58981)"/><path id="Outline" d="M26.981 71.954c-.796-1.201-1.347-2.642-2.36-3.666-1.09-1.104-2.878.022-2.526 1.471.674 2.77 3.71 5.587 5.468 7.772 1.644 2.042 3.206 4.386 5.145 6.193-4.694 7.409-8.416 15.383-13.543 22.503-.455-1.977-1.248-3.84-2.962-5.078-2.729-1.972-5.661-2.505-8.749-2.421 1.604-2.074 2.792-4.505 2.233-7.129-.603-2.843-2.292-4.177-4.414-5.308 5.327-1.313 10.948-1.478 16.103-3.522 1.009-.399 1.005-1.679.386-2.188a1.422 1.422 0 0 0-.586-.625c-4.991-2.92-12.392-10.721-6.453-16.098 4.553-4.122 11.366-2.393 15.287 1.419.899.873 2.087-.407 1.342-1.344-.038-.05-.084-.089-.124-.138a.142.142 0 0 0-.004-.02 39.743 39.743 0 0 0-2.234-2.4c.064.186.122.371.189.559-4.764-3.34-12.408-3.229-16.698.54-6.699 5.895-.498 14.521 5.363 18.818-5.548 1.34-11.406 1.256-16.797 3.311-1.062.402-1.546 1.998-.342 2.611 1.479.76 3.008 1.406 4.468 2.207 4.855 2.658-.4 8.205-2.264 10.041-1.126 1.107.07 2.598 1.398 2.406 3.332-.476 6.336-.587 9.426 1.006 2.558 1.317 2.825 4.396 3.141 6.854.135 1.062 1.552 2.108 2.438 1.01 6.354-7.891 10.666-16.95 15.732-25.653.14.01.285.016.425.024l-1.154-2.277c-.833-2.302-2.781-4.355-4.153-6.278a163.396 163.396 0 0 1-3.181-4.6z" transform="translate(.3 .55) scale(.58981)"/></g><g id="L_Arm"><path id="Fill_2_" fill="#6CBD45" d="M47.207 69.073c-.756 4.072-1.947 7.51-.723 11.723.695 2.393 1.61 4.707 2.402 7.069.305.907-.487 1.693-1.336 1.755-2.035.146-4.583.713-6.201 1.986-1.56 1.23.231 3.722 2.159 2.961.331-.131 2.893-1.65 3.581-1.998.747-.357 1.826.436 1.25 1.25-.668.947-1.754 2.877-2.081 3.998-.844 1.689 1.375 4.041 3.327 2.03 1.405-1.578 2.108-3.481 2.86-5.421.46-1.184 2.185-1.038 2.247.307.003.77.107 1.533.306 2.283.294 2.288 3.344 2.926 3.974.279.396-1.664.588-3.518-.002-5.176-.974-2.744-2.74-5.044-3.837-7.728-1.919-4.697-1.284-10.16.574-14.763.727-1.799 3.341-1.372 3.556.099.602-5.288-2.766-7.784-7.2-7.943-4.667-.167-6 6.167-6 6.167-.017.08-.027.16-.043.241.537-.313 1.334.083 1.187.881z" transform="translate(.3 .55) scale(.58981)"/><path id="Outline_2_" d="M60.299 90.017c-.836-1.688-1.669-3.211-2.331-4.789l-.924-2.793c-.2-.839-.34-1.719-.392-2.67-.166-3.206 1.284-6.299 2.491-9.188a1.58 1.58 0 0 0 .12-.849c-.214-1.471-2.829-1.897-3.556-.099-1.858 4.603-2.493 10.065-.574 14.763 1.097 2.684 2.863 4.983 3.837 7.728.59 1.658.398 3.512.002 5.176-.63 2.646-3.68 2.009-3.974-.279a9.024 9.024 0 0 1-.306-2.283c-.062-1.345-1.787-1.49-2.247-.307-.752 1.939-1.455 3.843-2.86 5.421-1.952 2.011-4.171-.341-3.327-2.03.327-1.121 1.413-3.051 2.081-3.998.576-.814-.503-1.607-1.25-1.25-.688.348-3.25 1.867-3.581 1.998-1.928.761-3.719-1.73-2.159-2.961 1.618-1.273 4.166-1.841 6.201-1.986.849-.062 1.641-.848 1.336-1.755-.792-2.362-1.707-4.677-2.402-7.069-1.224-4.213-.033-7.65.723-11.723.146-.798-.65-1.194-1.188-.88a.85.85 0 0 0-.374.45c-1.896 5.088-2.134 9.304-1.204 13.87l-.07.001.789 2.864c.18.613.371 1.233.584 1.871-3.207.842-8.562 2.664-7.811 6.146.768 3.557 4.348 3.232 7.298 2.114-1.272 2.743-2.03 6.352 1.405 7.012 3.427.657 5.298-1.55 6.624-4.224 1.441 3.263 4.453 5.33 7.216.896 1.522-2.437 1.04-6.726-.177-9.177z" transform="translate(.3 .55) scale(.58981)"/></g><g id="R_Arm"><path id="Fill_3_" fill="#6CBD45" d="M85.751 69.573c.756 4.072 1.947 7.51.723 11.723-.695 2.393-1.61 4.707-2.402 7.069-.305.907.487 1.693 1.336 1.755 2.035.146 4.583.713 6.201 1.986 1.561 1.23-.23 3.722-2.159 2.961-.331-.131-2.893-1.65-3.581-1.998-.747-.357-1.826.436-1.25 1.25.668.947 1.754 2.877 2.081 3.998.844 1.689-1.375 4.041-3.327 2.03-1.405-1.578-2.108-3.481-2.86-5.421-.46-1.184-2.185-1.038-2.247.307a9.018 9.018 0 0 1-.306 2.283c-.294 2.288-3.344 2.926-3.974.279-.396-1.664-.588-3.518.002-5.176.974-2.744 2.74-5.044 3.837-7.728 1.919-4.697 1.284-10.16-.574-14.763-.727-1.799-3.341-1.372-3.556.099-.602-5.288 2.766-7.784 7.2-7.943 4.667-.167 6 6.167 6 6.167.017.08.027.16.043.241-.536-.313-1.333.083-1.187.881z" transform="translate(.3 .55) scale(.58981)"/><path id="Outline_3_" d="M72.66 90.517c.836-1.688 1.669-3.211 2.331-4.789l.924-2.793c.2-.839.34-1.719.392-2.67.166-3.206-1.284-6.299-2.491-9.188a1.58 1.58 0 0 1-.12-.849c.214-1.471 2.829-1.897 3.556-.099 1.858 4.603 2.493 10.065.574 14.763-1.097 2.684-2.863 4.983-3.837 7.728-.59 1.658-.398 3.512-.002 5.176.63 2.646 3.68 2.009 3.974-.279.199-.75.303-1.514.306-2.283.062-1.345 1.787-1.49 2.247-.307.752 1.939 1.455 3.843 2.86 5.421 1.952 2.011 4.171-.341 3.327-2.03-.327-1.121-1.413-3.051-2.081-3.998-.576-.814.503-1.607 1.25-1.25.688.348 3.25 1.867 3.581 1.998 1.928.761 3.719-1.73 2.159-2.961-1.617-1.273-4.166-1.841-6.201-1.986-.849-.062-1.641-.848-1.336-1.755.792-2.362 1.707-4.677 2.402-7.069 1.224-4.213.033-7.65-.723-11.723-.146-.798.65-1.194 1.188-.88a.85.85 0 0 1 .374.45c1.896 5.088 2.134 9.304 1.204 13.87l.07.001-.789 2.864c-.18.613-.371 1.233-.584 1.871 3.207.842 8.562 2.664 7.811 6.146-.769 3.557-4.349 3.232-7.298 2.114 1.272 2.743 2.029 6.352-1.405 7.012-3.427.657-5.298-1.55-6.624-4.224-1.441 3.263-4.453 5.33-7.216.896-1.523-2.437-1.041-6.726.177-9.177z" transform="translate(.3 .55) scale(.58981)"/></g><g id="R_Eye"><g id="Eyeball"><path id="ID0.6646096208132803" fill="#FFF" d="M84.952 22.359c-3.609 0-6.546-3.199-6.546-7.131 0-3.932 2.937-7.131 6.546-7.131 3.609 0 6.546 3.199 6.546 7.131 0 3.932-2.936 7.131-6.546 7.131z" transform="translate(.3 .55) scale(.58981)"/><path id="ID0.8477742313407362" d="M84.952 9.097c3.063 0 5.546 2.744 5.546 6.131 0 3.386-2.483 6.131-5.546 6.131s-5.546-2.745-5.546-6.131 2.483-6.131 5.546-6.131m0-2c-4.161 0-7.546 3.647-7.546 8.131s3.385 8.131 7.546 8.131c4.161 0 7.546-3.647 7.546-8.131s-3.385-8.131-7.546-8.131v2z" transform="translate(.3 .55) scale(.58981)"/></g><path id="Pupil" fill="#231F20" d="M87.875 13.441c.644 0 1.228.312 1.651.817.423.504.685 1.201.685 1.97 0 .769-.262 1.466-.685 1.97-.423.505-1.007.817-1.651.817-.644 0-1.228-.312-1.651-.817-.423-.504-.685-1.201-.685-1.97 0-.769.262-1.466.685-1.97.423-.505 1.007-.817 1.651-.817z" transform="translate(.3 .55) scale(.58981)"/></g><g id="L_Eye"><g id="Eyeball_1_"><path id="ID0.20669082133099437" fill="#FFF" d="M67.021 24.859c-4.565 0-8.279-3.887-8.279-8.665 0-4.778 3.714-8.665 8.279-8.665 4.565 0 8.279 3.887 8.279 8.665 0 4.778-3.714 8.665-8.279 8.665z" transform="translate(.3 .55) scale(.58981)"/><path id="ID0.18157231388613582" d="M67.021 8.529c4.02 0 7.279 3.432 7.279 7.665 0 4.233-3.259 7.665-7.279 7.665s-7.279-3.432-7.279-7.665c0-4.233 3.259-7.665 7.279-7.665m0-2c-5.116 0-9.279 4.336-9.279 9.665 0 5.329 4.163 9.665 9.279 9.665s9.279-4.336 9.279-9.665c0-5.329-4.163-9.665-9.279-9.665v2z" transform="translate(.3 .55) scale(.58981)"/></g><path id="Pupil_1_" fill="#231F20" d="M71.11 13.782c.853 0 1.626.382 2.185 1 .56.618.906 1.471.906 2.412 0 .941-.346 1.794-.906 2.412-.559.618-1.332 1-2.185 1s-1.626-.382-2.185-1a3.586 3.586 0 0 1-.906-2.412c0-.941.346-1.794.906-2.412.559-.618 1.332-1 2.185-1z" transform="translate(.3 .55) scale(.58981)"/></g></g></svg>