<svg width="480" height="360" viewBox="0 0 480 360" xmlns="http://www.w3.org/2000/svg" xmlns:xlink="http://www.w3.org/1999/xlink" style="background:#fff"><defs><path id="a" d="M.169.166h195.896V154.4H.169z"/><path id="c" d="M.169.827h195.896v91.036H.169z"/><path id="e" d="M.608.73h142.661v104.84H.608z"/><path id="g" d="M.608 1.11h142.661v61.882H.608z"/><path id="i" d="M1.286.162h351.676v143.97H1.286z"/><path id="k" d="M.621.664h377.604v103.552H.621z"/><path id="m" d="M.608 479h478.67V0H.608z"/></defs><g transform="translate(0 -59)" fill="none" fill-rule="evenodd"><path d="M430.707 89.304c0 9.7-7.858 17.564-17.55 17.564-9.693 0-17.55-7.864-17.55-17.564s7.857-17.563 17.55-17.563c9.692 0 17.55 7.863 17.55 17.563m-17.55-21.584a1.081 1.081 0 0 1-1.08-1.083v-4.035a1.081 1.081 0 1 1 2.16 0v4.035c0 .598-.484 1.082-1.08 1.082m0 49.884a1.081 1.081 0 0 1-1.08-1.081v-4.036c0-.596.483-1.082 1.08-1.082.596 0 1.08.486 1.08 1.082v4.036a1.08 1.08 0 0 1-1.08 1.081m15.433-43.486a1.084 1.084 0 0 1 0-1.53l2.853-2.853a1.08 1.08 0 0 1 1.53 0 1.084 1.084 0 0 1 0 1.53l-2.853 2.853a1.082 1.082 0 0 1-1.53 0m-35.247 35.273a1.081 1.081 0 0 1 0-1.53l2.85-2.853a1.08 1.08 0 0 1 1.53 0 1.084 1.084 0 0 1 0 1.53l-2.853 2.853a1.078 1.078 0 0 1-1.527 0m41.642-19.828c0-.598.484-1.082 1.08-1.082h4.033c.597 0 1.08.484 1.08 1.082a1.08 1.08 0 0 1-1.08 1.081h-4.032a1.081 1.081 0 0 1-1.081-1.081m-49.85 0c0-.598.484-1.082 1.08-1.082h4.034a1.081 1.081 0 0 1 0 2.163h-4.034a1.08 1.08 0 0 1-1.08-1.081m43.455 15.445a1.08 1.08 0 0 1 1.53 0l2.852 2.853a1.084 1.084 0 0 1 0 1.53 1.08 1.08 0 0 1-1.529 0l-2.852-2.853a1.084 1.084 0 0 1 0-1.53m-35.248-35.273a1.078 1.078 0 0 1 1.527 0l2.852 2.852a1.082 1.082 0 0 1-1.53 1.53l-2.85-2.852a1.081 1.081 0 0 1 0-1.53" fill="#FFE300"/><g transform="translate(283.213 126.403)"><mask id="b" fill="#fff"><use xlink:href="#a"/></mask><path fill="#A6B834" mask="url(#b)" d="M.169 154.4L132.939.166 265.709 154.4z"/></g><path d="M416.152 126.568l-41.286 47.689s3.292 8.285 17.352 1.274c0 0 5.684 17.528 28.421 6.374 0 0 11.37 5.736 19.747-3.505 0 0 9.671 5.099 16.353-4.674l-40.587-47.158z" fill="#C1C12A"/><g transform="translate(283.213 188.939)"><mask id="d" fill="#fff"><use xlink:href="#c"/></mask><path d="M.169 91.863h265.54l-67.69-78.634 14.698 40.712L170.036.827s5.695 63.487 6.713 68.162c-1.461-4.27-21.073-56.689-21.073-56.689s-7.18 58.212-7.18 59.487c0 1.274-8.377-50.564-8.377-50.564l-26.726 50.564 12.366-60.761-32.31 53.537 9.174-61.187-36.698 45.891s4.672-24.261 8.539-43.71L.169 91.863z" fill="#9CAD30" mask="url(#d)"/></g><g transform="translate(0 135.717)"><mask id="f" fill="#fff"><use xlink:href="#e"/></mask><path fill="#A6B834" mask="url(#f)" d="M-37.23 105.57L53.02.73l90.249 104.84z"/></g><path d="M53.02 136.447l-28.064 32.416s2.237 5.632 11.796.866c0 0 3.863 11.915 19.318 4.334 0 0 7.726 3.898 13.423-2.384 0 0 6.573 3.466 11.115-3.177L53.02 136.447z" fill="#C1C12A"/><g transform="translate(0 178.294)"><mask id="h" fill="#fff"><use xlink:href="#g"/></mask><path d="M-37.23 62.992h180.5L97.257 9.541l9.99 27.673L78.238 1.11s3.87 43.155 4.561 46.332C81.805 44.54 68.474 8.91 68.474 8.91s-4.88 39.57-4.88 40.437c0 .866-5.693-34.371-5.693-34.371l-18.167 34.37 8.405-41.302-21.962 36.392 6.236-41.59L7.468 34.037s3.175-16.491 5.803-29.711l-50.5 58.665z" fill="#9CAD30" mask="url(#h)"/></g><path fill="#A6B834" d="M26.41 278.108l132.77-154.234 132.77 154.234z"/><path d="M159.18 123.874l-41.286 47.688s3.292 8.286 17.352 1.275c0 0 5.684 17.528 28.42 6.374 0 0 11.37 5.736 19.747-3.505 0 0 9.673 5.099 16.353-4.674l-40.587-47.158z" fill="#C1C12A"/><path d="M26.41 278.108h265.54l-67.69-78.634 14.698 40.712-42.681-53.115s5.695 63.488 6.713 68.162c-1.461-4.27-21.073-56.688-21.073-56.688s-7.18 58.212-7.18 59.486c0 1.275-8.377-50.563-8.377-50.563l-26.726 50.563L152 197.271l-32.31 53.537 9.174-61.187-36.698 45.89s4.672-24.26 8.539-43.71L26.41 278.109z" fill="#9CAD30"/><path fill="#A6B834" d="M159.004 305.492l132.77-132.68 132.768 132.68z"/><path d="M291.773 172.812l-41.285 41.025s3.29 7.127 17.352 1.096c0 0 5.684 15.078 28.42 5.483 0 0 11.37 4.934 19.746-3.016 0 0 9.673 4.387 16.354-4.021l-40.587-40.567z" fill="#C1C12A"/><path d="M159.004 305.492h265.538l-67.69-67.645 14.7 35.021-42.681-45.69s5.693 54.616 6.712 58.635c-1.462-3.672-21.074-48.766-21.074-48.766s-7.178 50.077-7.178 51.175c0 1.096-8.377-43.499-8.377-43.499l-26.727 43.499 12.365-52.271-32.31 46.057 9.176-52.637-36.7 39.476s4.673-20.87 8.54-37.6l-74.294 74.245z" fill="#9CAD30"/><path d="M251.641 259.322s1.312 4.73 1.838 7.356c.525 2.626 0 7.355 0 7.355h2.362s.526-4.99.788-6.306c.262-1.311 3.411-6.566 3.411-6.566l-2.333-.519-2.654 4.985s-.786-7.618-1.05-6.83c-.262.787-2.362.525-2.362.525" fill="#4E372F"/><path d="M256.558 240.534c-12.087.572-17.099 17.054-13.603 19.843 3.494 2.789 21.406 4.633 26.284.811 4.879-3.821 1.743-21.336-12.68-20.654" fill="#939C38"/><path d="M269.507 247.845a5.84 5.84 0 0 1-1.047 2.797c.034 3.89-2.26 7.71-5.708 9.508.575-1.445.807-3.024.678-4.574-1.228 2.31-3.22 4.308-5.724 5.066-2.5.757-5.507.063-7.081-2.026-2.27.85-4.913.639-7.018-.563a8.155 8.155 0 0 1-1.73-1.345c-.065 1.696.286 3.036 1.077 3.668 3.496 2.79 21.407 4.633 26.286.812 2.668-2.09 2.931-8.276.267-13.343" fill="#838C31"/><path d="M259.383 241.783c2.029.064 4.018.49 5.936 1.16-2.248-1.61-5.15-2.58-8.76-2.408-7.166.338-11.844 6.268-13.738 11.622 2.225-3.194 6.075-5.28 9.986-5.137a7.87 7.87 0 0 0-4.242-.885c2.616-3.05 6.8-4.48 10.818-4.352" fill="#A2AE35"/><path d="M337.802 229.984s1.312 4.727 1.837 7.355c.525 2.627 0 7.354 0 7.354h2.363s.525-4.99.787-6.304c.263-1.313 3.412-6.566 3.412-6.566l-2.334-.52-2.654 4.985s-.785-7.617-1.049-6.83c-.262.788-2.362.526-2.362.526" fill="#4E372F"/><path d="M342.719 211.196c-12.087.572-17.098 17.053-13.604 19.842 3.495 2.789 21.406 4.633 26.285.812 4.878-3.822 1.743-21.337-12.681-20.654" fill="#939C38"/><path d="M355.667 218.506a5.84 5.84 0 0 1-1.046 2.797c.033 3.89-2.26 7.71-5.708 9.508a10.16 10.16 0 0 0 .678-4.574c-1.227 2.31-3.22 4.308-5.723 5.065-2.502.759-5.509.063-7.082-2.026a8.403 8.403 0 0 1-7.019-.563 8.099 8.099 0 0 1-1.728-1.344c-.067 1.697.284 3.037 1.075 3.669 3.496 2.79 21.408 4.633 26.286.811 2.67-2.09 2.932-8.277.267-13.343" fill="#838C31"/><path d="M345.543 212.444c2.029.064 4.018.49 5.937 1.16-2.249-1.61-5.15-2.58-8.761-2.408-7.166.338-11.843 6.269-13.738 11.621 2.226-3.193 6.076-5.28 9.987-5.136a7.858 7.858 0 0 0-4.243-.884c2.618-3.053 6.801-4.48 10.818-4.353" fill="#A2AE35"/><path d="M16.478 203.902s1.31 4.73 1.837 7.356c.524 2.626 0 7.355 0 7.355h2.362s.525-4.991.788-6.306c.262-1.311 3.412-6.566 3.412-6.566l-2.333-.519-2.654 4.984s-.787-7.617-1.05-6.83c-.263.788-2.362.526-2.362.526" fill="#4E372F"/><path d="M21.394 185.114c-12.087.572-17.098 17.054-13.602 19.843 3.493 2.788 21.404 4.633 26.283.811 4.878-3.821 1.744-21.337-12.681-20.654" fill="#939C38"/><path d="M34.342 192.425a5.851 5.851 0 0 1-1.045 2.797c.032 3.89-2.26 7.71-5.708 9.508.575-1.445.807-3.024.677-4.575-1.227 2.31-3.22 4.309-5.723 5.067-2.502.757-5.509.063-7.082-2.026a8.418 8.418 0 0 1-7.019-.563 8.147 8.147 0 0 1-1.728-1.345c-.067 1.696.284 3.036 1.077 3.668 3.494 2.79 21.406 4.633 26.284.812 2.67-2.09 2.932-8.276.267-13.343" fill="#838C31"/><path d="M24.218 186.363c2.03.064 4.018.49 5.937 1.16-2.249-1.61-5.15-2.58-8.761-2.408-7.166.338-11.842 6.268-13.737 11.622 2.225-3.195 6.076-5.281 9.986-5.137a7.868 7.868 0 0 0-4.243-.885c2.618-3.051 6.801-4.48 10.818-4.352" fill="#A2AE35"/><path d="M204.679 236.028s2.62 6.557 2.883 11.279c.262 4.72 0 28.067 0 28.067h4.719v-20.722c0-2.624 6.814-16.002 6.814-16.002l-1.573-1.048-5.241 10.23-.788-12.066-2.622-.264-.522 5.51-1.574-5.51-2.096.526z" fill="#4E372F"/><path d="M194.955 211.415s-9.502 7.664-4.367 17.96c5.134 10.297 17.593 8.512 17.593 8.512s12.649 7.586 24.03-3.595c11.38-11.18-.403-24.06-.403-24.06s-3.317-14.667-18.023-14.116c-18.498.692-18.83 15.299-18.83 15.299" fill="#939C38"/><path d="M232.21 234.293c11.382-11.181-.402-24.06-.402-24.06s-1.963-8.644-9.531-12.41c5.393 4.957 6.692 12.848 6.692 12.848s5.243 16.264-3.845 21.51c-9.087 5.245-14.156 1.224-14.156 1.224 2.273-2.624 2.448-6.47 2.448-6.47s-5.067 6.819-14.154 4.37c-6.115-1.647-8.825-7.17-9.945-10.61-.506 2.54-.324 5.483 1.27 8.68 5.136 10.296 17.594 8.511 17.594 8.511s12.648 7.587 24.03-3.593" fill="#838C31"/><path d="M208.089 196.875c-12.864 3.117-13.134 14.54-13.134 14.54s-1.78 1.436-3.382 3.897c2.44-1.671 6.58-3.735 11.882-3.417 0 0-3.146-1.574-6.116-1.05 0 0 1.325-9.443 10.75-13.97" fill="#A2AE35"/><path d="M447.072 196.164s2.206 5.518 2.427 9.49c.22 3.973 0 23.616 0 23.616h3.97v-17.436c0-2.207 5.733-13.462 5.733-13.462l-1.323-.884-4.41 8.608-.663-10.152-2.205-.221-.441 4.635-1.323-4.635-1.765.441z" fill="#4E372F"/><path d="M438.89 175.456s-7.993 6.448-3.673 15.111 14.803 7.161 14.803 7.161 10.642 6.384 20.218-3.023c9.575-9.407-.339-20.244-.339-20.244s-2.79-12.34-15.165-11.877c-15.563.583-15.844 12.872-15.844 12.872" fill="#939C38"/><path d="M470.238 194.705c9.575-9.407-.339-20.245-.339-20.245s-1.651-7.271-8.019-10.44c4.537 4.17 5.63 10.81 5.63 10.81s4.412 13.684-3.234 18.098c-7.645 4.414-11.91 1.029-11.91 1.029 1.911-2.206 2.058-5.443 2.058-5.443s-4.265 5.738-11.91 3.679c-5.144-1.387-7.425-6.034-8.367-8.928-.425 2.135-.273 4.613 1.07 7.302 4.319 8.663 14.803 7.16 14.803 7.16s10.642 6.385 20.218-3.022" fill="#838C31"/><path d="M449.942 163.222c-10.825 2.623-11.052 12.233-11.052 12.233s-1.496 1.21-2.843 3.28c2.052-1.406 5.535-3.143 9.996-2.874 0 0-2.647-1.325-5.147-.883 0 0 1.117-7.946 9.046-11.756" fill="#A2AE35"/><path d="M.608 365.54V214.353s194.484-17.897 351.675 153.314L.608 365.54z" fill="#E1DC52"/><g transform="translate(126.316 223.533)"><mask id="j" fill="#fff"><use xlink:href="#i"/></mask><path d="M352.962 142.144V.664S158.477-16.086 1.286 144.131l351.676-1.988z" fill="#E1DC52" mask="url(#j)"/></g><g transform="translate(101.053 263.45)"><mask id="l" fill="#fff"><use xlink:href="#k"/></mask><path d="M378.226 102.09S351.22.665 205.713.665.62 104.216.62 104.216l377.605-2.125z" fill="#C6C345" mask="url(#l)"/></g><path d="M211.656 292.782s-3.49-.332-3.657-3.659c0 0 3.657 0 3.657 3.66m.706-.001s3.49-.332 3.657-3.659c0 0-3.657 0-3.657 3.66m-.272-1.677s2.342-2.611.212-5.17c0 0-2.688 2.48-.211 5.17m31.005 10.665s-3.49-.332-3.655-3.659c0 0 3.655 0 3.655 3.66m.706-.001s3.49-.332 3.657-3.659c0 0-3.657 0-3.657 3.66m-.272-1.677s2.342-2.61.212-5.17c0 0-2.688 2.48-.211 5.17m34.568-22.572s-3.49-.333-3.657-3.66c0 0 3.657 0 3.657 3.66m.706 0s3.49-.333 3.657-3.66c0 0-3.657 0-3.657 3.66m-.271-1.677s2.341-2.61.211-5.17c0 0-2.688 2.48-.211 5.17m19.296 22.212s-3.491-.333-3.657-3.66c0 0 3.656 0 3.656 3.66m.707 0s3.49-.333 3.656-3.66c0 0-3.656 0-3.656 3.66m-.273-1.677s2.343-2.61.213-5.17c0 0-2.689 2.48-.213 5.17m32.475-20.776s-3.49-.333-3.657-3.66c0 0 3.657 0 3.657 3.66m.706 0s3.49-.333 3.657-3.66c0 0-3.657 0-3.657 3.66m-.273-1.677s2.343-2.61.213-5.17c0 0-2.688 2.48-.213 5.17m21.706 26.226s-3.49-.333-3.657-3.66c0 0 3.657 0 3.657 3.66m.706 0s3.49-.333 3.657-3.66c0 0-3.657 0-3.657 3.66m-.273-1.677s2.343-2.61.212-5.17c0 0-2.689 2.48-.212 5.17m32.774-4.61s-3.49-.333-3.656-3.66c0 0 3.656 0 3.656 3.66m.706 0s3.49-.333 3.657-3.66c0 0-3.657 0-3.657 3.66m-.272-1.677s2.342-2.61.212-5.17c0 0-2.688 2.48-.212 5.17m29.184 25.028s-3.49-.333-3.656-3.66c0 0 3.656 0 3.656 3.66m.707 0s3.49-.333 3.656-3.66c0 0-3.656 0-3.656 3.66m-.273-1.677s2.343-2.61.211-5.17c0 0-2.688 2.48-.211 5.17m10.536 40.197s-3.49-.333-3.657-3.66c0 0 3.657 0 3.657 3.66m.706 0s3.49-.333 3.655-3.66c0 0-3.655 0-3.655 3.66m-.273-1.678s2.343-2.61.212-5.17c0 0-2.689 2.48-.212 5.17m42.248 5.07s-3.49-.332-3.657-3.659c0 0 3.657 0 3.657 3.66m.707-.001s3.49-.332 3.656-3.659c0 0-3.657 0-3.657 3.66m-.271-1.678s2.341-2.61.211-5.169c0 0-2.688 2.48-.211 5.17m-118.906-4.311s-3.49-.333-3.656-3.66c0 0 3.656 0 3.656 3.66m.707 0s3.49-.333 3.656-3.66c0 0-3.656 0-3.656 3.66m-.273-1.677s2.343-2.61.211-5.17c0 0-2.688 2.48-.211 5.17m95.799-20.776s-3.49-.333-3.656-3.66c0 0 3.656 0 3.656 3.66m.706 0s3.49-.333 3.657-3.66c0 0-3.657 0-3.657 3.66m-.272-1.677s2.343-2.61.211-5.17c0 0-2.688 2.48-.211 5.17m-65.654 7.066s-3.489-.333-3.655-3.66c0 0 3.655 0 3.655 3.66m.706 0s3.49-.333 3.657-3.66c0 0-3.657 0-3.657 3.66m-.271-1.677s2.342-2.61.212-5.17c0 0-2.689 2.48-.212 5.17m-48.9-15.987s-3.49-.333-3.656-3.659c0 0 3.657 0 3.657 3.66m.706-.001s3.49-.333 3.657-3.659c0 0-3.657 0-3.657 3.66m-.273-1.677s2.343-2.61.212-5.17c0 0-2.689 2.48-.212 5.17m-62.361 5.269s-3.49-.333-3.657-3.66c0 0 3.657 0 3.657 3.66m.706 0s3.49-.333 3.656-3.66c0 0-3.656 0-3.656 3.66m-.273-1.677s2.343-2.61.212-5.17c0 0-2.689 2.48-.212 5.17m-59.669 1.078s-3.49-.333-3.656-3.66c0 0 3.656 0 3.656 3.66m.707 0s3.49-.333 3.656-3.66c0 0-3.656 0-3.656 3.66m-.273-1.676s2.343-2.61.211-5.17c0 0-2.688 2.48-.211 5.17m-36.035-7.006s-3.49-.333-3.657-3.659c0 0 3.657 0 3.657 3.66m.706-.001s3.49-.333 3.657-3.659c0 0-3.657 0-3.657 3.66m-.272-1.678s2.342-2.61.212-5.169c0 0-2.688 2.479-.213 5.17" fill="#D1CE57"/><path d="M.608 365.54s25.149-65.899 160.666-65.899 191.009 68.025 191.009 68.025L.608 365.54z" fill="#A6B834"/><path d="M32.367 352.766s-3.341-.318-3.5-3.503c0 0 3.5 0 3.5 3.503m.677 0s3.343-.318 3.5-3.503c0 0-3.5 0-3.5 3.503m-.26-1.606s2.242-2.5.202-4.949c0 0-2.574 2.374-.202 4.95m27.407-15.459s-3.343-.32-3.502-3.503c0 0 3.502 0 3.502 3.503m.675 0s3.343-.32 3.501-3.503c0 0-3.5 0-3.5 3.503m-.26-1.605s2.241-2.5.202-4.95c0 0-2.574 2.372-.202 4.95m25.313 22.262s-3.344-.318-3.502-3.504c0 0 3.501 0 3.501 3.504m.677 0s3.341-.318 3.5-3.504c0 0-3.5 0-3.5 3.504m-.261-1.606s2.243-2.5.202-4.95c0 0-2.574 2.373-.202 4.95m14.244-27.433s-3.343-.319-3.502-3.504c0 0 3.502 0 3.502 3.503m.675.001s3.343-.319 3.501-3.504c0 0-3.5 0-3.5 3.503m-.261-1.605s2.242-2.5.202-4.95c0 0-2.574 2.374-.202 4.95m52.954 6.401s-3.343-.318-3.501-3.503c0 0 3.5 0 3.5 3.503m.677 0s3.341-.318 3.501-3.503c0 0-3.5 0-3.5 3.503m-.262-1.605s2.243-2.499.202-4.95c0 0-2.574 2.374-.202 4.95m30.697-9.77s-3.341-.319-3.5-3.504c0 0 3.5 0 3.5 3.503m.677.001s3.343-.319 3.5-3.504c0 0-3.5 0-3.5 3.503m-.26-1.605s2.242-2.5.202-4.95c0 0-2.574 2.372-.202 4.95m-1.314 34.536s-3.341-.318-3.5-3.503c0 0 3.5 0 3.5 3.503m.677 0s3.342-.318 3.5-3.503c0 0-3.5 0-3.5 3.503m-.261-1.605s2.243-2.5.203-4.95c0 0-2.574 2.373-.203 4.95m19.629-12.166s-3.342-.318-3.501-3.503c0 0 3.5 0 3.5 3.503m.677 0s3.342-.318 3.501-3.503c0 0-3.5 0-3.5 3.503m-.262-1.605s2.243-2.5.202-4.95c0 0-2.573 2.374-.202 4.95m24.117 20.166s-3.343-.318-3.501-3.503c0 0 3.5 0 3.5 3.503m.677 0s3.342-.318 3.501-3.503c0 0-3.5 0-3.5 3.503m-.262-1.605s2.243-2.5.202-4.95c0 0-2.574 2.373-.202 4.95m31.895-12.765s-3.342-.318-3.501-3.503c0 0 3.5 0 3.5 3.503m.677 0s3.342-.318 3.501-3.503c0 0-3.5 0-3.5 3.503m-.262-1.605s2.243-2.499.202-4.95c0 0-2.572 2.374-.202 4.95m28.305-3.484s-3.342-.318-3.501-3.503c0 0 3.5 0 3.5 3.503m.677 0s3.343-.318 3.5-3.503c0 0-3.5 0-3.5 3.503m-.26-1.605s2.242-2.5.202-4.95c0 0-2.574 2.372-.202 4.95m20.825 22.561s-3.342-.318-3.5-3.503c0 0 3.5 0 3.5 3.503m.677 0s3.341-.318 3.5-3.503c0 0-3.5 0-3.5 3.503m-.261-1.605s2.243-2.5.202-4.95c0 0-2.574 2.373-.202 4.95m-71.917-36.715s-3.342-.318-3.502-3.503c0 0 3.501 0 3.501 3.503m.677 0s3.343-.318 3.5-3.503c0 0-3.5 0-3.5 3.503m-.261-1.605s2.243-2.5.203-4.95c0 0-2.574 2.374-.203 4.95m-106.321 37.829s-3.342-.318-3.5-3.503c0 0 3.5 0 3.5 3.503m.676 0s3.342-.318 3.502-3.503c0 0-3.501 0-3.501 3.503m-.261-1.605s2.243-2.5.202-4.95c0 0-2.574 2.374-.202 4.95m-1.131-43.007s-3.343-.32-3.501-3.504c0 0 3.5 0 3.5 3.504m.677 0s3.342-.32 3.501-3.504c0 0-3.5 0-3.5 3.504m-.262-1.605s2.243-2.5.202-4.95c0 0-2.574 2.372-.202 4.95" fill="#BFC02B"/><path d="M28.722 339.423s2.82 10.159 3.948 15.803c1.128 5.644 0 15.804 0 15.804h5.077s1.127-10.724 1.692-13.546c.563-2.822 7.332-14.11 7.332-14.11l-5.015-1.117-5.702 10.712s-1.693-16.368-2.256-14.676c-.564 1.694-5.076 1.13-5.076 1.13" fill="#4E372F"/><path d="M39.287 299.053c-25.97 1.229-36.74 36.643-29.23 42.635 7.509 5.992 45.994 9.955 56.477 1.744 10.483-8.21 3.745-45.847-27.247-44.38" fill="#939C38"/><path d="M67.11 314.762c-.228 2.154-.983 4.251-2.25 6.01.073 8.357-4.856 16.567-12.264 20.428a21.777 21.777 0 0 0 1.455-9.827c-2.638 4.963-6.92 9.256-12.295 10.885-5.377 1.628-11.835.133-15.218-4.354-4.877 1.828-10.556 1.372-15.08-1.21-1.37-.782-2.606-1.771-3.716-2.888-.142 3.643.612 6.523 2.315 7.882 7.509 5.993 45.995 9.954 56.477 1.743 5.736-4.492 6.3-17.784.575-28.67" fill="#838C31"/><path d="M45.356 301.736c4.359.138 8.635 1.052 12.755 2.49-4.829-3.458-11.065-5.54-18.823-5.174-15.396.73-25.448 13.47-29.52 24.975 4.783-6.866 13.057-11.347 21.458-11.037a16.883 16.883 0 0 0-9.113-1.902c5.621-6.558 14.611-9.626 23.243-9.352" fill="#A2AE35"/><path d="M73.49 276.037s7.9 19.768 8.692 34c.79 14.234 0 84.607 0 84.607h14.222v-62.467c0-7.906 20.545-48.233 20.545-48.233l-4.741-3.162-15.804 30.838-2.37-36.374-7.902-.79-1.58 16.605-4.74-16.605-6.322 1.58z" fill="#4E372F"/><path d="M44.177 201.841s-28.642 23.104-13.163 54.14c15.477 31.04 53.036 25.66 53.036 25.66s38.129 22.869 72.435-10.834c34.307-33.705-1.213-72.531-1.213-72.531s-10-44.21-54.331-42.552c-55.763 2.088-56.764 46.117-56.764 46.117" fill="#939C38"/><path d="M156.485 270.806c34.307-33.703-1.213-72.531-1.213-72.531s-5.917-26.054-28.73-37.402c16.255 14.94 20.17 38.727 20.17 38.727s15.804 49.026-11.588 64.84c-27.393 15.815-42.67 3.69-42.67 3.69 6.848-7.907 7.376-19.504 7.376-19.504s-15.279 20.558-42.67 13.178c-18.432-4.966-26.6-21.617-29.977-31.986-1.525 7.654-.976 16.526 3.83 26.165C46.49 287.02 84.05 281.64 84.05 281.64s38.129 22.87 72.435-10.835" fill="#838C31"/><path d="M83.769 158.011c-38.778 9.398-39.592 43.83-39.592 43.83s-5.36 4.33-10.189 11.751c7.352-5.042 19.833-11.26 35.814-10.3 0 0-9.481-4.746-18.437-3.164 0 0 3.999-28.467 32.404-42.117" fill="#A2AE35"/><path d="M352.853 346.877s2.156 7.763 3.017 12.076c.862 4.314 0 12.076 0 12.076h3.88s.862-8.193 1.291-10.35c.431-2.157 5.605-10.783 5.605-10.783l-3.834-.853-4.355 8.186s-1.294-12.509-1.725-11.214c-.43 1.293-3.879.862-3.879.862" fill="#4E372F"/><path d="M360.927 316.029c-19.846.94-28.075 28-22.338 32.58 5.74 4.58 35.148 7.607 43.158 1.332 8.01-6.274 2.863-35.034-20.82-33.912" fill="#939C38"/><path d="M382.187 328.033c-.174 1.646-.75 3.248-1.719 4.592.056 6.387-3.71 12.659-9.371 15.61a16.661 16.661 0 0 0 1.111-7.508c-2.015 3.792-5.286 7.072-9.395 8.317-4.108 1.244-9.043.102-11.628-3.326-3.728 1.395-8.068 1.048-11.524-.925a13.325 13.325 0 0 1-2.84-2.208c-.107 2.784.467 4.986 1.769 6.024 5.738 4.58 35.147 7.607 43.157 1.332 4.383-3.432 4.815-13.59.44-21.908" fill="#838C31"/><path d="M365.564 318.079c3.331.106 6.598.803 9.747 1.904-3.69-2.643-8.456-4.234-14.383-3.955-11.766.558-19.446 10.293-22.558 19.084 3.654-5.246 9.977-8.67 16.398-8.434a12.895 12.895 0 0 0-6.965-1.452c4.296-5.012 11.165-7.356 17.761-7.147" fill="#A2AE35"/><path d="M433.433 340.57s2.718 9.791 3.804 15.23c1.088 5.44 0 15.23 0 15.23h4.892s1.086-10.335 1.631-13.054c.544-2.72 7.066-13.599 7.066-13.599l-4.835-1.075-5.494 10.323s-1.628-15.774-2.172-14.143c-.544 1.633-4.892 1.089-4.892 1.089" fill="#4E372F"/><path d="M443.614 301.667c-25.028 1.185-35.405 35.313-28.17 41.087 7.238 5.775 44.325 9.592 54.427 1.68 10.102-7.912 3.61-44.18-26.257-42.767" fill="#939C38"/><path d="M470.425 316.806c-.218 2.076-.948 4.097-2.166 5.792.07 8.054-4.68 15.964-11.82 19.685a21 21 0 0 0 1.403-9.47c-2.541 4.783-6.669 8.92-11.85 10.49-5.18 1.568-11.403.129-14.663-4.196-4.7 1.762-10.175 1.323-14.533-1.165-1.32-.753-2.512-1.707-3.581-2.785-.137 3.513.589 6.288 2.23 7.597 7.237 5.775 44.325 9.592 54.426 1.68 5.527-4.329 6.07-17.138.554-27.628" fill="#838C31"/><path d="M449.461 304.253c4.202.133 8.323 1.014 12.293 2.4-4.654-3.332-10.664-5.34-18.14-4.986-14.837.702-24.523 12.98-28.445 24.066 4.607-6.615 12.58-10.934 20.677-10.636a16.276 16.276 0 0 0-8.784-1.831c5.419-6.32 14.081-9.277 22.4-9.013" fill="#A2AE35"/><path d="M384.168 291.684s5.783 14.466 6.36 24.881c.579 10.415 0 61.912 0 61.912h10.409v-45.71c0-5.787 15.034-35.297 15.034-35.297l-3.469-2.315-11.565 22.566-1.734-26.616-5.784-.579-1.155 12.152-3.47-12.152-4.626 1.158z" fill="#4E372F"/><path d="M362.718 237.39s-20.96 16.905-9.633 39.618c11.324 22.714 38.81 18.776 38.81 18.776s27.903 16.735 53.008-7.928c25.104-24.662-.888-53.076-.888-53.076s-7.317-32.353-39.76-31.138c-40.804 1.528-41.537 33.747-41.537 33.747" fill="#939C38"/><path d="M444.902 287.856c25.105-24.663-.888-53.077-.888-53.077s-4.33-19.064-21.023-27.37c11.895 10.933 14.76 28.34 14.76 28.34s11.563 35.876-8.481 47.449c-20.046 11.572-31.224 2.7-31.224 2.7 5.01-5.787 5.396-14.273 5.396-14.273s-11.179 15.044-31.224 9.643c-13.488-3.633-19.466-15.819-21.937-23.405-1.115 5.6-.714 12.092 2.803 19.145 11.326 22.713 38.812 18.775 38.812 18.775s27.901 16.736 53.006-7.927" fill="#838C31"/><path d="M391.69 205.315c-28.378 6.877-28.972 32.074-28.972 32.074s-3.922 3.17-7.457 8.598c5.38-3.688 14.513-8.24 26.208-7.537 0 0-6.938-3.472-13.49-2.314 0 0 2.924-20.833 23.71-30.821" fill="#A2AE35"/><mask id="n" fill="#fff"><use xlink:href="#m"/></mask><path fill="#949D38" mask="url(#n)" d="M.608 460.295h478.67v-42.108H.608zm0-67.85h478.67V365.54H.608z"/><path fill="#FFD698" mask="url(#n)" d="M.608 418.187h478.67v-35.139H.608z"/><path d="M127.737 402.76H17.642c-4.168 0-7.579-3.414-7.579-7.585 0-4.171 3.41-7.584 7.58-7.584h110.094c4.17 0 7.578 3.413 7.578 7.584 0 4.171-3.409 7.584-7.578 7.584m72.897 11.177H144.79c-2.852 0-5.184-2.335-5.184-5.19 0-2.853 2.332-5.188 5.184-5.188h55.845c2.854 0 5.186 2.335 5.186 5.189s-2.332 5.189-5.186 5.189m72.997-2.096h-48.666a3.1 3.1 0 0 1-3.09-3.094 3.1 3.1 0 0 1 3.09-3.093h48.666c1.7 0 3.091 1.392 3.091 3.093a3.102 3.102 0 0 1-3.091 3.094m-145.097 1.497h-75.89a3.101 3.101 0 0 1-3.09-3.094 3.101 3.101 0 0 1 3.09-3.093h75.89c1.7 0 3.092 1.391 3.092 3.093a3.102 3.102 0 0 1-3.092 3.094m-88.255 0H15.848a3.101 3.101 0 0 1-3.091-3.094 3.101 3.101 0 0 1 3.091-3.093H40.28c1.7 0 3.092 1.391 3.092 3.093a3.102 3.102 0 0 1-3.092 3.094m137.318-16.765h-24.432a3.1 3.1 0 0 1-3.09-3.093 3.1 3.1 0 0 1 3.09-3.094h24.432c1.7 0 3.091 1.392 3.091 3.094a3.101 3.101 0 0 1-3.091 3.093m152.876-1.497H303.35a3.102 3.102 0 0 1-3.092-3.093 3.102 3.102 0 0 1 3.092-3.094h27.125c1.7 0 3.092 1.392 3.092 3.094a3.102 3.102 0 0 1-3.092 3.093m44.575 0h-33.408a3.1 3.1 0 0 1-3.09-3.093 3.1 3.1 0 0 1 3.09-3.094h33.408a3.1 3.1 0 0 1 3.09 3.094 3.101 3.101 0 0 1-3.09 3.093m88.554 15.268h-57.34a3.101 3.101 0 0 1-3.092-3.093 3.101 3.101 0 0 1 3.092-3.094h57.34c1.7 0 3.092 1.392 3.092 3.094a3.102 3.102 0 0 1-3.092 3.093m-180.3-10.777h-85.361c-2.854 0-5.187-2.335-5.187-5.19 0-2.853 2.333-5.188 5.187-5.188h85.361c2.854 0 5.186 2.335 5.186 5.189s-2.332 5.19-5.186 5.19M465.2 397.17h-68.61c-2.851 0-5.185-2.334-5.185-5.188 0-2.855 2.334-5.19 5.184-5.19H465.2c2.852 0 5.184 2.335 5.184 5.19 0 2.854-2.332 5.189-5.184 5.189m-81.374 16.765h-83.767c-4.169 0-7.58-3.413-7.58-7.584 0-4.172 3.411-7.584 7.58-7.584h83.767c4.168 0 7.579 3.412 7.579 7.584 0 4.171-3.41 7.584-7.579 7.584" fill="#FEC987" mask="url(#n)"/><path d="M337.304 368.7c0 1.799-4.352 3.256-9.72 3.256-5.37 0-9.72-1.457-9.72-3.256 0-1.799 4.35-3.256 9.72-3.256 5.368 0 9.72 1.457 9.72 3.256" fill="#D7D6D2" mask="url(#n)"/><path d="M316.71 237.841l5.928 20.637 10.594-.523 5.24-20.336c-4.4.086-15.429.282-21.762.222" fill="#FFEFB5" mask="url(#n)"/><path fill="#614C45" mask="url(#n)" d="M326.583 257.344h2v-18.573h-2z"/><path fill="#726659" mask="url(#n)" d="M324.7 368.7h5.766V258.496h-5.765z"/><path fill="#614C45" mask="url(#n)" d="M322.871 369.276h9.425V346.34h-9.425zm-2.017-109.59h13.46v-2.378h-13.46zm2.199 3.678h9.063v-2.378h-9.063zm-7.173-24.557h23.407v-2.813H315.88z"/><path fill="#614C45" mask="url(#n)" d="M320.854 257.308l-4.973-18.502h1.533l5.224 18.502zm13.46 0l4.973-18.502h-1.533l-5.225 18.502zm-18.47-21.315l11.74-10.854 11.739 10.854z"/><path fill="#705950" mask="url(#n)" d="M327.584 225.14l9.972 10.854h-3.188zm0 0l5.756 10.854h-1.297zm6.783 13.667h3.189v-2.813h-3.189zm-2.325-.037h1.297v-2.776h-1.297z"/><path d="M312.424 371.576c0 3.333-31.36 6.036-70.047 6.036-38.686 0-70.046-2.703-70.046-6.036 0-3.333 31.36-6.035 70.046-6.035 38.686 0 70.047 2.702 70.047 6.035m-157.762-1.496c0 2.506-9.732 4.538-21.74 4.538-12.005 0-21.738-2.032-21.738-4.539 0-2.506 9.733-4.538 21.738-4.538 12.008 0 21.74 2.032 21.74 4.538" fill="#D7D6D2" mask="url(#n)"/><path fill="#A8612B" mask="url(#n)" d="M237.101 336.827h8.13v-33.974h-8.13zm-13.15 0h8.13v-33.974h-8.13zm-13.15 0h8.13v-33.974h-8.13zm-13.149 0h8.13v-33.974h-8.13zm78.898 0h8.13v-33.974h-8.13zm-13.15 0h8.13v-33.974h-8.13zm-13.15 0h8.13v-33.974h-8.13z"/><path fill="#A8612B" mask="url(#n)" d="M237.101 336.827h8.13v-33.974h-8.13z"/><path fill="#7F481A" mask="url(#n)" d="M183.606 342.81h8.367v-45.936h-8.367zm106.632 0h8.367v-45.936h-8.367z"/><path fill="#A8612B" mask="url(#n)" d="M189.105 355.968h103.046v-8.135H189.105z"/><path fill="#7F481A" mask="url(#n)" d="M189.105 342.808h103.046v-8.135H189.105zm0-36.126h103.046v-8.133H189.105z"/><path fill="#C27034" mask="url(#n)" d="M183.606 371.28h8.367v-45.937h-8.367zm106.632 0h8.367v-45.937h-8.367z"/><path d="M177.794 332.521h13.057c.62 0 1.122-.503 1.122-1.123v-4.932c0-.62-.502-1.123-1.122-1.123h-13.057c-.62 0-1.122.503-1.122 1.123v4.932c0 .62.503 1.123 1.122 1.123m113.566 0h13.057c.62 0 1.122-.503 1.122-1.123v-4.932c0-.62-.502-1.123-1.122-1.123H291.36c-.62 0-1.122.503-1.122 1.123v4.932c0 .62.501 1.123 1.122 1.123" fill="#C27034" mask="url(#n)"/><path fill="#C55527" mask="url(#n)" d="M115.77 328.932h34.306l-2.992 42.348h-28.323zm0 0h34.306l-2.992-11.594h-28.323z"/><path fill="#A3461D" mask="url(#n)" d="M114.025 333.204h37.796v-5.402h-37.796z"/><path d="M142.808 350.106c0 5.463-4.425 9.893-9.886 9.893-5.46 0-9.884-4.43-9.884-9.893 0-5.463 4.425-9.893 9.884-9.893 5.46 0 9.886 4.43 9.886 9.893" fill="#FFF" mask="url(#n)"/><path d="M129.012 344.538l1.39 2.488s2.923-2.43 5.651-.53l1.479-2.232s-3.843-2.931-8.52.274" fill="#949D38" mask="url(#n)"/><path fill="#949D38" mask="url(#n)" d="M137.266 342.934l-2.723 4.199 4.474.04zm2.766 7.308l-2.788-.583s-.083 3.803-3.305 4.62l.713 2.58s4.732-.983 5.38-6.617"/><path fill="#949D38" mask="url(#n)" d="M135.831 357.53l-1.383-4.81-2.963 3.354zm-6.723-1.21l1.872-2.148s-3.272-1.935-2.404-5.146l-2.598-.641s-1.461 4.609 3.13 7.934"/><path fill="#949D38" mask="url(#n)" d="M124.815 349.084l4.868 1.15-1.47-4.229z"/><path d="M351.552 375.418s-3.951-.377-4.139-4.144c0 0 4.14 0 4.14 4.144m.799 0s3.953-.377 4.14-4.144c0 0-4.14 0-4.14 4.144m-.308-1.898s2.652-2.957.24-5.855c0 0-3.045 2.808-.24 5.855m38.472 6.088s-3.706-.354-3.883-3.885c0 0 3.883 0 3.883 3.885m.75 0s3.706-.354 3.883-3.885c0 0-3.883 0-3.883 3.885m-.289-1.781s2.486-2.773.224-5.49c0 0-2.856 2.632-.224 5.49m39.519-3.309s-3.706-.354-3.883-3.885c0 0 3.883 0 3.883 3.885m.75 0s3.706-.354 3.883-3.885c0 0-3.883 0-3.883 3.885m-.289-1.781s2.488-2.771.226-5.49c0 0-2.858 2.634-.226 5.49m39.927 7.469s-3.706-.352-3.883-3.885c0 0 3.883 0 3.883 3.885m.75 0s3.706-.352 3.883-3.885c0 0-3.883 0-3.883 3.885m-.289-1.78s2.487-2.773.226-5.49c0 0-2.858 2.632-.226 5.49m-454.832-3.008s-3.953-.377-4.14-4.144c0 0 4.14 0 4.14 4.144m.799 0s3.953-.377 4.14-4.144c0 0-4.14 0-4.14 4.144m-.308-1.898s2.651-2.957.24-5.855c0 0-3.044 2.808-.24 5.855m38.471 6.088s-3.706-.354-3.883-3.885c0 0 3.883 0 3.883 3.885m.751 0s3.705-.354 3.882-3.885c0 0-3.882 0-3.882 3.885m-.29-1.781s2.488-2.773.226-5.49c0 0-2.857 2.632-.226 5.49m39.52-3.309s-3.707-.354-3.883-3.885c0 0 3.883 0 3.883 3.885m.75 0s3.707-.354 3.884-3.885c0 0-3.884 0-3.884 3.885m-.289-1.781s2.487-2.771.225-5.49c0 0-2.856 2.634-.225 5.49m39.927 7.469s-3.707-.352-3.884-3.885c0 0 3.884 0 3.884 3.885m.75 0s3.707-.352 3.883-3.885c0 0-3.883 0-3.883 3.885m-.289-1.78s2.487-2.773.225-5.49c0 0-2.856 2.632-.225 5.49" fill="#A6B834" mask="url(#n)"/><path d="M57.985 249.762s-2.435-.325-3.169-2.596c-.734-2.272 2.806-3.947 3.979-2.318 1.174 1.627-.225 4.72-.225 4.72l-.585.194z" fill="#FFF" mask="url(#n)"/><path d="M58.459 249.426s-.254-2.446 1.782-3.689c2.035-1.245 4.489 1.807 3.18 3.33-1.307 1.523-4.639.883-4.639.883l-.323-.524z" fill="#FFF" mask="url(#n)"/><path d="M59.021 249.794s2.237-1.02 4.063.515c1.827 1.535-.283 4.835-2.142 4.08-1.858-.756-2.314-4.121-2.314-4.121l.393-.474z" fill="#FFF" mask="url(#n)"/><path d="M58.876 250.628s1.856 1.611 1.22 3.912c-.64 2.3-4.514 1.75-4.599-.255-.084-2.006 2.784-3.818 2.784-3.818l.595.16z" fill="#FFF" mask="url(#n)"/><path d="M58.12 250.423s-1.003 2.245-3.387 2.303c-2.384.057-2.983-3.812-1.09-4.476 1.894-.664 4.458 1.557 4.458 1.557l.019.616z" fill="#FFF" mask="url(#n)"/><path d="M60.144 249.086c.503.96.135 2.146-.825 2.65a1.963 1.963 0 1 1 .826-2.65" fill="#FFD056" mask="url(#n)"/><path d="M101.758 220.761s-2.645-.353-3.441-2.82c-.798-2.465 3.046-4.284 4.32-2.517 1.275 1.768-.242 5.127-.242 5.127l-.637.21z" fill="#FFF" mask="url(#n)"/><path d="M102.272 220.396s-.275-2.656 1.935-4.006c2.211-1.35 4.876 1.963 3.456 3.617-1.42 1.653-5.038.958-5.038.958l-.353-.57z" fill="#FFF" mask="url(#n)"/><path d="M102.884 220.796s2.428-1.107 4.41.559c1.985 1.667-.306 5.25-2.325 4.43-2.018-.82-2.513-4.474-2.513-4.474l.428-.515z" fill="#FFF" mask="url(#n)"/><path d="M102.725 221.702s2.016 1.75 1.323 4.248c-.69 2.498-4.9 1.902-4.992-.278-.092-2.177 3.023-4.146 3.023-4.146l.646.176z" fill="#FFF" mask="url(#n)"/><path d="M101.905 221.48s-1.088 2.437-3.68 2.5c-2.588.063-3.238-4.14-1.183-4.86 2.056-.722 4.843 1.69 4.843 1.69l.02.67z" fill="#FFF" mask="url(#n)"/><path d="M104.102 220.027a2.13 2.13 0 1 1-3.772 1.981 2.13 2.13 0 1 1 3.772-1.981" fill="#FFD056" mask="url(#n)"/><path d="M55.072 325.87s-1.537-.205-2-1.638c-.462-1.433 1.77-2.49 2.511-1.463.74 1.027-.142 2.979-.142 2.979l-.369.122z" fill="#FFF" mask="url(#n)"/><path d="M55.371 325.659s-.16-1.544 1.125-2.329c1.284-.784 2.832 1.142 2.006 2.102-.824.961-2.927.558-2.927.558l-.204-.331z" fill="#FFF" mask="url(#n)"/><path d="M55.726 325.89s1.412-.642 2.563.326c1.153.968-.178 3.05-1.35 2.574-1.174-.478-1.462-2.6-1.462-2.6l.249-.3z" fill="#FFF" mask="url(#n)"/><path d="M55.635 326.417s1.17 1.016.768 2.468c-.403 1.451-2.846 1.104-2.901-.161-.053-1.265 1.758-2.41 1.758-2.41l.375.103z" fill="#FFF" mask="url(#n)"/><path d="M55.158 326.287s-.634 1.416-2.136 1.453c-1.506.038-1.883-2.405-.69-2.824 1.195-.418 2.814.983 2.814.983l.012.388z" fill="#FFF" mask="url(#n)"/><path d="M56.435 325.444a1.24 1.24 0 0 1-.522 1.673 1.236 1.236 0 0 1-1.67-.522 1.237 1.237 0 1 1 2.192-1.15" fill="#FFD056" mask="url(#n)"/><path d="M20.391 329.863s-1.535-.205-2-1.638c-.462-1.433 1.77-2.49 2.512-1.463.74 1.028-.142 2.98-.142 2.98l-.37.12z" fill="#FFF" mask="url(#n)"/><path d="M20.69 329.65s-.16-1.543 1.125-2.328c1.284-.783 2.833 1.142 2.006 2.103-.824.96-2.926.557-2.926.557l-.205-.331z" fill="#FFF" mask="url(#n)"/><path d="M21.046 329.883s1.41-.643 2.563.326c1.153.968-.179 3.05-1.352 2.573-1.173-.476-1.46-2.6-1.46-2.6l.249-.3z" fill="#FFF" mask="url(#n)"/><path d="M20.954 330.409s1.171 1.018.768 2.468c-.401 1.452-2.845 1.106-2.9-.16-.054-1.266 1.757-2.41 1.757-2.41l.375.102z" fill="#FFF" mask="url(#n)"/><path d="M20.477 330.28s-.633 1.416-2.136 1.453c-1.506.038-1.883-2.405-.69-2.824 1.195-.42 2.814.983 2.814.983l.012.388z" fill="#FFF" mask="url(#n)"/><path d="M21.754 329.436a1.236 1.236 0 1 1-2.191 1.15 1.238 1.238 0 1 1 2.19-1.15" fill="#FFD056" mask="url(#n)"/><path d="M41.31 310.602s-1.536-.205-1.999-1.638c-.464-1.433 1.77-2.49 2.51-1.463.741 1.027-.141 2.98-.141 2.98l-.37.121z" fill="#FFF" mask="url(#n)"/><path d="M41.609 310.39s-.16-1.543 1.124-2.328c1.285-.784 2.834 1.141 2.008 2.102-.826.96-2.928.558-2.928.558l-.204-.332z" fill="#FFF" mask="url(#n)"/><path d="M41.964 310.622s1.411-.642 2.564.326c1.153.969-.178 3.05-1.351 2.573-1.174-.476-1.461-2.6-1.461-2.6l.248-.299z" fill="#FFF" mask="url(#n)"/><path d="M41.872 311.148s1.172 1.018.769 2.469c-.402 1.451-2.846 1.105-2.9-.161-.055-1.266 1.756-2.409 1.756-2.409l.375.101z" fill="#FFF" mask="url(#n)"/><path d="M41.396 311.02s-.633 1.415-2.137 1.453c-1.504.037-1.883-2.406-.689-2.825 1.194-.42 2.814.983 2.814.983l.012.389z" fill="#FFF" mask="url(#n)"/><path d="M42.672 310.176a1.236 1.236 0 1 1-2.191 1.15 1.24 1.24 0 0 1 .52-1.672 1.236 1.236 0 0 1 1.671.522" fill="#FFD056" mask="url(#n)"/><path d="M79.493 187.18s-2.322-.309-3.02-2.473c-.7-2.167 2.673-3.763 3.792-2.212 1.12 1.553-.214 4.501-.214 4.501l-.558.184z" fill="#FFF" mask="url(#n)"/><path d="M79.945 186.86s-.243-2.331 1.698-3.517c1.94-1.185 4.28 1.723 3.034 3.175-1.247 1.45-4.425.842-4.425.842l-.307-.5z" fill="#FFF" mask="url(#n)"/><path d="M80.481 187.21s2.132-.97 3.872.493c1.742 1.462-.27 4.608-2.041 3.888-1.771-.721-2.206-3.928-2.206-3.928l.375-.453z" fill="#FFF" mask="url(#n)"/><path d="M80.342 188.006s1.769 1.537 1.162 3.73c-.607 2.192-4.301 1.668-4.382-.244-.081-1.912 2.652-3.64 2.652-3.64l.568.154z" fill="#FFF" mask="url(#n)"/><path d="M79.621 187.81s-.956 2.14-3.228 2.195c-2.274.056-2.844-3.634-1.04-4.266 1.805-.633 4.251 1.484 4.251 1.484l.017.588z" fill="#FFF" mask="url(#n)"/><path d="M81.551 186.536a1.87 1.87 0 1 1-3.312 1.739 1.87 1.87 0 1 1 3.312-1.739" fill="#FFD056" mask="url(#n)"/><path d="M132.464 191.739s-2.063-.276-2.684-2.198c-.621-1.924 2.376-3.344 3.37-1.964.995 1.378-.19 3.998-.19 3.998l-.496.164z" fill="#FFF" mask="url(#n)"/><path d="M132.865 191.454s-.215-2.071 1.51-3.125c1.724-1.053 3.802 1.533 2.695 2.82-1.108 1.291-3.93.75-3.93.75l-.275-.445z" fill="#FFF" mask="url(#n)"/><path d="M133.342 191.766s1.893-.863 3.441.437c1.546 1.3-.24 4.095-1.814 3.455-1.574-.64-1.96-3.49-1.96-3.49l.333-.402z" fill="#FFF" mask="url(#n)"/><path d="M133.219 192.472s1.571 1.365 1.032 3.315c-.539 1.948-3.823 1.48-3.894-.217-.073-1.7 2.358-3.235 2.358-3.235l.504.137z" fill="#FFF" mask="url(#n)"/><path d="M132.579 192.299s-.85 1.901-2.869 1.95c-2.02.05-2.528-3.229-.925-3.79 1.605-.563 3.778 1.318 3.778 1.318l.016.522z" fill="#FFF" mask="url(#n)"/><path d="M134.293 191.167a1.664 1.664 0 0 1-.7 2.244 1.662 1.662 0 1 1 .7-2.245" fill="#FFD056" mask="url(#n)"/><path d="M127.722 258.156s-1.982-.264-2.58-2.113c-.598-1.85 2.284-3.212 3.24-1.887.956 1.325-.184 3.843-.184 3.843l-.476.157z" fill="#FFF" mask="url(#n)"/><path d="M128.108 257.883s-.206-1.992 1.45-3.003c1.659-1.014 3.656 1.471 2.59 2.71-1.064 1.24-3.777.72-3.777.72l-.263-.427z" fill="#FFF" mask="url(#n)"/><path d="M128.566 258.182s1.82-.83 3.307.42c1.487 1.249-.231 3.935-1.743 3.32-1.513-.614-1.884-3.353-1.884-3.353l.32-.387z" fill="#FFF" mask="url(#n)"/><path d="M128.448 258.861s1.51 1.312.992 3.185c-.52 1.872-3.674 1.424-3.743-.209-.069-1.632 2.267-3.108 2.267-3.108l.484.132z" fill="#FFF" mask="url(#n)"/><path d="M127.833 258.695s-.817 1.827-2.758 1.874c-1.941.047-2.428-3.104-.888-3.644s3.63 1.268 3.63 1.268l.016.502z" fill="#FFF" mask="url(#n)"/><path d="M129.48 257.606a1.597 1.597 0 1 1-2.155-.672 1.595 1.595 0 0 1 2.154.672" fill="#FFD056" mask="url(#n)"/><path d="M370.58 269.463s-1.835-.245-2.386-1.955c-.554-1.711 2.112-2.972 2.997-1.747.884 1.227-.17 3.557-.17 3.557l-.44.145z" fill="#FFF" mask="url(#n)"/><path d="M370.936 269.21s-.191-1.842 1.343-2.778c1.533-.937 3.381 1.36 2.397 2.508-.986 1.145-3.495.665-3.495.665l-.245-.395z" fill="#FFF" mask="url(#n)"/><path d="M371.36 269.487s1.685-.768 3.06.388c1.376 1.157-.213 3.64-1.613 3.073-1.4-.57-1.743-3.103-1.743-3.103l.297-.358z" fill="#FFF" mask="url(#n)"/><path d="M371.25 270.115s1.399 1.215.918 2.946c-.479 1.734-3.398 1.32-3.461-.192-.066-1.51 2.095-2.875 2.095-2.875l.448.121z" fill="#FFF" mask="url(#n)"/><path d="M370.682 269.96s-.754 1.692-2.55 1.736c-1.798.043-2.248-2.871-.822-3.372 1.425-.5 3.358 1.173 3.358 1.173l.014.464z" fill="#FFF" mask="url(#n)"/><path d="M372.206 268.954a1.478 1.478 0 1 1-2.618 1.373 1.478 1.478 0 0 1 2.618-1.373" fill="#FFD056" mask="url(#n)"/><path d="M396.87 258.32s-1.994-.266-2.594-2.124c-.6-1.858 2.294-3.227 3.255-1.896.96 1.33-.184 3.86-.184 3.86l-.478.16z" fill="#FFF" mask="url(#n)"/><path d="M397.256 258.044s-.207-2 1.457-3.017c1.666-1.018 3.673 1.48 2.604 2.723-1.07 1.246-3.796.723-3.796.723l-.265-.429z" fill="#FFF" mask="url(#n)"/><path d="M397.716 258.345s1.83-.833 3.324.422c1.493 1.256-.233 3.955-1.751 3.337-1.521-.619-1.895-3.37-1.895-3.37l.322-.389z" fill="#FFF" mask="url(#n)"/><path d="M397.598 259.027s1.518 1.319.996 3.2c-.522 1.882-3.69 1.432-3.76-.209-.07-1.64 2.277-3.122 2.277-3.122l.487.131z" fill="#FFF" mask="url(#n)"/><path d="M396.98 258.86s-.82 1.837-2.771 1.885c-1.951.047-2.442-3.12-.893-3.662 1.55-.544 3.648 1.273 3.648 1.273l.016.505z" fill="#FFF" mask="url(#n)"/><path d="M398.635 257.766a1.605 1.605 0 1 1-2.842 1.492 1.605 1.605 0 0 1 2.842-1.492" fill="#FFD056" mask="url(#n)"/><path d="M397.34 221.418s-1.747-.232-2.274-1.864c-.526-1.63 2.014-2.832 2.856-1.664.843 1.17-.161 3.39-.161 3.39l-.42.138z" fill="#FFF" mask="url(#n)"/><path d="M397.68 221.177s-.181-1.756 1.281-2.649c1.462-.892 3.223 1.299 2.285 2.391-.94 1.093-3.333.635-3.333.635l-.232-.377z" fill="#FFF" mask="url(#n)"/><path d="M398.085 221.441s1.606-.732 2.917.37c1.312 1.102-.204 3.471-1.537 2.929-1.335-.542-1.662-2.958-1.662-2.958l.282-.34z" fill="#FFF" mask="url(#n)"/><path d="M397.98 222.04s1.333 1.158.876 2.809c-.458 1.651-3.24 1.257-3.3-.184-.062-1.44 1.998-2.74 1.998-2.74l.427.115z" fill="#FFF" mask="url(#n)"/><path d="M397.438 221.893s-.72 1.612-2.432 1.654c-1.711.042-2.14-2.738-.783-3.214 1.359-.477 3.202 1.117 3.202 1.117l.013.443zm28.05 25.157s-1.553-.206-2.023-1.655c-.467-1.449 1.791-2.517 2.54-1.48.748 1.039-.144 3.013-.144 3.013l-.373.123z" fill="#FFF" mask="url(#n)"/><path d="M425.79 246.837s-.162-1.561 1.137-2.354c1.3-.794 2.864 1.154 2.03 2.125-.835.971-2.96.563-2.96.563l-.207-.334z" fill="#FFF" mask="url(#n)"/><path d="M426.15 247.071s1.425-.65 2.591.329c1.165.98-.18 3.084-1.365 2.602-1.188-.481-1.477-2.627-1.477-2.627l.25-.304z" fill="#FFF" mask="url(#n)"/><path d="M426.056 247.603s1.185 1.029.778 2.496c-.407 1.468-2.878 1.117-2.933-.163-.054-1.279 1.776-2.435 1.776-2.435l.38.102z" fill="#FFF" mask="url(#n)"/><path d="M425.575 247.473s-.64 1.431-2.161 1.469c-1.522.037-1.904-2.433-.695-2.856 1.207-.423 2.844.994 2.844.994l.012.393zm-.38 86.112s-1.457-.195-1.894-1.553c-.44-1.359 1.678-2.36 2.378-1.387.704.973-.133 2.824-.133 2.824l-.35.116z" fill="#FFF" mask="url(#n)"/><path d="M425.479 333.383s-.15-1.462 1.066-2.206c1.218-.744 2.684 1.082 1.903 1.992-.782.91-2.775.528-2.775.528l-.194-.314z" fill="#FFF" mask="url(#n)"/><path d="M425.816 333.604s1.338-.61 2.43.308c1.091.918-.17 2.892-1.281 2.44-1.113-.452-1.386-2.465-1.386-2.465l.237-.283z" fill="#FFF" mask="url(#n)"/><path d="M425.73 334.103s1.108.964.728 2.34c-.38 1.374-2.698 1.046-2.751-.153-.05-1.2 1.666-2.283 1.666-2.283l.356.096z" fill="#FFF" mask="url(#n)"/><path d="M425.277 333.98s-.6 1.343-2.026 1.377c-1.427.035-1.785-2.28-.653-2.677 1.133-.396 2.667.932 2.667.932l.012.368z" fill="#FFF" mask="url(#n)"/><path d="M426.487 333.18a1.173 1.173 0 1 1-2.077 1.091 1.173 1.173 0 0 1 2.077-1.09" fill="#FFD056" mask="url(#n)"/><path d="M444.604 320.788s-1.457-.194-1.895-1.552c-.439-1.359 1.678-2.36 2.379-1.387.703.974-.133 2.824-.133 2.824l-.351.115z" fill="#FFF" mask="url(#n)"/><path d="M444.887 320.588s-.152-1.463 1.066-2.206c1.218-.746 2.685 1.08 1.903 1.991-.782.91-2.775.529-2.775.529l-.194-.314z" fill="#FFF" mask="url(#n)"/><path d="M445.224 320.808s1.337-.61 2.43.307c1.091.918-.17 2.893-1.28 2.44-1.114-.45-1.386-2.464-1.386-2.464l.236-.283z" fill="#FFF" mask="url(#n)"/><path d="M445.138 321.307s1.108.963.728 2.34c-.38 1.375-2.698 1.046-2.75-.153-.051-1.2 1.665-2.284 1.665-2.284l.357.097z" fill="#FFF" mask="url(#n)"/><path d="M444.686 321.184s-.6 1.343-2.027 1.377c-1.427.036-1.784-2.28-.653-2.677 1.133-.396 2.668.932 2.668.932l.012.368z" fill="#FFF" mask="url(#n)"/><path d="M445.896 320.384c.302.575.08 1.284-.495 1.585a1.175 1.175 0 0 1-1.089-2.08c.573-.3 1.282-.08 1.584.495" fill="#FFD056" mask="url(#n)"/><path d="M350.224 338.1s-1.457-.195-1.895-1.553c-.439-1.359 1.678-2.36 2.379-1.387.703.973-.133 2.824-.133 2.824l-.351.115z" fill="#FFF" mask="url(#n)"/><path d="M350.507 337.899s-.15-1.464 1.066-2.208c1.218-.744 2.685 1.082 1.903 1.992-.78.911-2.775.528-2.775.528l-.194-.312z" fill="#FFF" mask="url(#n)"/><path d="M350.845 338.118s1.337-.61 2.429.309c1.092.918-.169 2.891-1.28 2.439-1.113-.451-1.386-2.464-1.386-2.464l.237-.284z" fill="#FFF" mask="url(#n)"/><path d="M350.758 338.617s1.109.965.728 2.34c-.38 1.375-2.698 1.046-2.75-.152-.051-1.2 1.665-2.284 1.665-2.284l.357.096z" fill="#FFF" mask="url(#n)"/><path d="M350.306 338.495s-.6 1.342-2.027 1.377c-1.426.035-1.784-2.28-.652-2.677 1.132-.397 2.667.931 2.667.931l.012.369z" fill="#FFF" mask="url(#n)"/><path d="M351.516 337.695a1.173 1.173 0 1 1-2.077 1.091 1.173 1.173 0 0 1 2.077-1.09" fill="#FFD056" mask="url(#n)"/><path d="M368.117 327.529s-1.457-.194-1.896-1.553c-.439-1.358 1.678-2.36 2.38-1.386.703.972-.134 2.823-.134 2.823l-.35.116z" fill="#FFF" mask="url(#n)"/><path d="M368.4 327.328s-.151-1.463 1.067-2.207c1.216-.744 2.684 1.082 1.9 1.992-.78.911-2.773.528-2.773.528l-.194-.313z" fill="#FFF" mask="url(#n)"/><path d="M368.736 327.548s1.338-.61 2.43.308c1.093.919-.17 2.892-1.28 2.44-1.112-.452-1.385-2.465-1.385-2.465l.235-.283z" fill="#FFF" mask="url(#n)"/><path d="M368.65 328.047s1.11.964.728 2.34c-.38 1.375-2.698 1.046-2.75-.153-.05-1.2 1.665-2.283 1.665-2.283l.356.096z" fill="#FFF" mask="url(#n)"/><path d="M368.197 327.925s-.6 1.342-2.025 1.377c-1.428.034-1.785-2.28-.654-2.677 1.134-.397 2.669.931 2.669.931l.01.369z" fill="#FFF" mask="url(#n)"/><path d="M369.408 327.125a1.173 1.173 0 1 1-2.077 1.09 1.174 1.174 0 1 1 2.077-1.09" fill="#FFD056" mask="url(#n)"/><path d="M460.32 326.723s-1.458-.195-1.897-1.553c-.439-1.359 1.678-2.36 2.38-1.386.702.973-.134 2.824-.134 2.824l-.35.115z" fill="#FFF" mask="url(#n)"/><path d="M460.602 326.522s-.151-1.462 1.065-2.206c1.218-.744 2.685 1.08 1.903 1.992-.78.91-2.774.528-2.774.528l-.194-.314z" fill="#FFF" mask="url(#n)"/><path d="M460.939 326.742s1.337-.61 2.429.309c1.093.918-.17 2.891-1.28 2.439-1.112-.451-1.385-2.464-1.385-2.464l.236-.284z" fill="#FFF" mask="url(#n)"/><path d="M460.852 327.241s1.109.965.728 2.34c-.38 1.375-2.698 1.046-2.75-.152-.051-1.2 1.665-2.285 1.665-2.285l.357.097z" fill="#FFF" mask="url(#n)"/><path d="M460.4 327.118s-.6 1.343-2.025 1.378c-1.428.035-1.786-2.28-.654-2.678 1.132-.396 2.667.932 2.667.932l.012.368z" fill="#FFF" mask="url(#n)"/><path d="M461.61 326.319a1.172 1.172 0 0 1-.493 1.584 1.173 1.173 0 1 1 .493-1.585" fill="#FFD056" mask="url(#n)"/><path d="M423.106 275.785s-1.493-.198-1.942-1.59c-.45-1.394 1.72-2.421 2.44-1.423.719.998-.137 2.895-.137 2.895l-.36.118z" fill="#FFF" mask="url(#n)"/><path d="M423.397 275.58s-.155-1.5 1.093-2.262c1.249-.763 2.754 1.108 1.95 2.04-.8.935-2.845.543-2.845.543l-.198-.322z" fill="#FFF" mask="url(#n)"/><path d="M423.742 275.805s1.371-.625 2.49.317c1.122.94-.172 2.964-1.312 2.5-1.14-.463-1.42-2.526-1.42-2.526l.242-.291z" fill="#FFF" mask="url(#n)"/><path d="M423.653 276.316s1.137.989.747 2.4c-.39 1.41-2.767 1.073-2.819-.156-.053-1.231 1.708-2.342 1.708-2.342l.364.098z" fill="#FFF" mask="url(#n)"/><path d="M423.19 276.19s-.615 1.378-2.078 1.414c-1.46.035-1.83-2.34-.667-2.745 1.16-.408 2.734.954 2.734.954l.01.378z" fill="#FFF" mask="url(#n)"/><path d="M424.43 275.371a1.205 1.205 0 1 1-2.13 1.117 1.205 1.205 0 0 1 2.13-1.117" fill="#FFD056" mask="url(#n)"/><path d="M424.624 104.482c-7.402 0-5.5-12.489 4.442-10.584 0 0 1.692-6.562 8.25-6.562 6.557 0 7.827 4.869 7.827 4.869s5.922-1.058 7.825 4.445c0 0 4.02.212 5.078 2.963 1.057 2.752.844 4.869-3.174 4.869h-30.248zM234.75 141.605c-8.211 0-6.1-13.85 4.925-11.737 0 0 1.877-7.277 9.148-7.277 7.272 0 8.679 5.4 8.679 5.4s6.568-1.174 8.68 4.93c0 0 4.455.233 5.628 3.284 1.174 3.053.939 5.4-3.517 5.4H234.75zm143.715-19.978c5.28 0 3.92-8.906-3.169-7.548 0 0-1.206-4.678-5.882-4.678-4.677 0-5.582 3.471-5.582 3.471s-4.224-.754-5.58 3.17c0 0-2.866.151-3.621 2.114-.754 1.961-.604 3.471 2.261 3.471h21.573zm-31.24 49.098c4.503 0 3.345-7.598-2.704-6.439 0 0-1.029-3.991-5.019-3.991-3.989 0-4.761 2.96-4.761 2.96s-3.604-.644-4.762 2.705c0 0-2.445.13-3.087 1.803-.644 1.674-.516 2.962 1.93 2.962h18.403zm-21.159-95.202c7.813 0 5.804-13.18-4.688-11.17 0 0-1.786-6.924-8.707-6.924-6.92 0-8.26 5.137-8.26 5.137s-6.249-1.116-8.26 4.692c0 0-4.24.223-5.356 3.128-1.117 2.903-.894 5.137 3.348 5.137h31.923zM62.354 96.42c7.402 0 5.5-12.488-4.442-10.583 0 0-1.691-6.562-8.249-6.562-6.558 0-7.828 4.868-7.828 4.868s-5.922-1.058-7.825 4.446c0 0-4.019.211-5.077 2.963-1.057 2.751-.845 4.868 3.173 4.868h30.248zm135.16-9.005c8.21 0 6.1-13.848-4.926-11.736 0 0-1.876-7.278-9.148-7.278s-8.679 5.4-8.679 5.4-6.568-1.174-8.68 4.93c0 0-4.455.234-5.628 3.286-1.174 3.05-.939 5.398 3.517 5.398h33.544zm-79.987 41.397c-5.28 0-3.923-8.906 3.167-7.547 0 0 1.207-4.68 5.883-4.68 4.675 0 5.582 3.472 5.582 3.472s4.223-.755 5.58 3.169c0 0 2.866.152 3.621 2.114.754 1.963.604 3.472-2.263 3.472h-21.57zM386.6 83.013c-4.503 0-3.345-7.597 2.704-6.438 0 0 1.03-3.992 5.02-3.992 3.988 0 4.76 2.962 4.76 2.962s3.604-.644 4.762 2.704c0 0 2.445.129 3.088 1.803.643 1.673.516 2.961-1.93 2.961h-18.403zM14.172 142.761c-4.504 0-3.346-7.597 2.703-6.439 0 0 1.03-3.993 5.02-3.993 3.988 0 4.76 2.962 4.76 2.962s3.604-.644 4.76 2.705c0 0 2.446.13 3.09 1.803.643 1.674.514 2.962-1.931 2.962H14.172z" fill="#FFF" mask="url(#n)"/></g></svg>