<svg width="120" height="120" viewBox="0 0 120 120" xmlns="http://www.w3.org/2000/svg"><g fill="none" fill-rule="evenodd"><path d="M10.236 68.884c7.923-15.558 12.032-32.74 12.053-50.208.002-1.271 1.294-1.702 2.18-1.302.23-.211.538-.357.927-.38a159.447 159.447 0 0 1 58.147 7.312c.744.238 1.05.862 1.033 1.476.544.162.964.614.9 1.369-1.28 14.81 1.53 29.618 8.247 42.876.5.986-.103 2.275-1.293 2.259l-80.902-1.143c-1.178-.016-1.805-1.25-1.292-2.259" fill="#23292B"/><path d="M16.663 49.32c.558-.358 1.276-.436 1.824.003 5.487 4.382 11.24 7.536 18.305 7.318 7.242-.223 6.78 4.292 6.523 5.48a2.103 2.103 0 0 1-.57 1.744c-.07.422-.357.79-.927.943-6.702 1.793-13.863 1.236-20.048-2.039-2.624-1.39-5.62-3.267-6.94-6.054-1.242-2.627-.676-5.792 1.833-7.395m75.597 5.179c-1.04 2.904-3.837 5.067-6.313 6.709-5.834 3.87-12.906 5.129-19.75 4.005-.583-.095-.904-.433-1.016-.847a2.102 2.102 0 0 1-.738-1.68c-.373-1.155-2.554-3.26-1.768-4.144.07-.126 5.79-1.697 7.723-1.952 7.008-.922 12.469-4.184 17.499-9.087.503-.49 1.225-.483 1.816-.183 2.653 1.348 3.527 4.442 2.547 7.179M52.932 91.862l-4.698 22.357c-.249 1.184-1.894 1.863-2.674.705-4.523-6.717-6.275-14.746-4.843-22.736.006-.034.019-.062.027-.095-.458-.842-.181-2.102 1.043-2.228a36.43 36.43 0 0 1 9.864.306c.752.127 1.452.88 1.28 1.691m14.514.52c.557 8.453.604 17.522-6.224 23.582-.91.808-2.214-.087-2.353-1.1-1-7.285-1.72-14.598-2.157-21.94a1.429 1.429 0 0 1 .306-1.008c.087-.594.501-1.093 1.293-1.075l7.517.172c.797.018 1.561.495 1.618 1.369" fill="#D0E2CC"/><path d="M44.452 57.702l.001-.01a.931.931 0 0 1-.017-.193c.029-.638.57-1.368 1.287-1.291.041.005.079.013.118.018a1.25 1.25 0 0 1 .57-.11l15.443.547c.761.027 1.169.591 1.229 1.185.185.204.306.48.303.84-.058 5.405-4.202 9.992-9.743 9.889-5.524-.104-9.542-4.838-9.368-10.244.008-.247.073-.457.177-.63" fill="#161A1C"/><path d="M30.3 77.724c1.158-3.629 1.8-7.32 1.875-11.133.01-.555.316-.933.709-1.13a1.21 1.21 0 0 1 .331-.249c3.804-1.943 6.53-5.126 7.695-9.27.18-.64.803-1.147 1.499-.97l3.776.957c.222.056.397.156.538.281.412.145.74.495.756 1.072.103 3.814 2.783 7.014 6.719 7.109 4.07.096 7.077-3.207 7.068-7.205-.001-.513.304-1.143.855-1.271l2.977-.69c.65-.429 1.586-.35 1.775.608.818 4.146 3.261 7.572 6.993 9.563.514.087.978.451 1.035 1.12a73.534 73.534 0 0 0 2.465 13.6c.222.79-.273 1.614-1.123 1.67-15 .961-30.044.317-44.91-1.9-.738-.11-1.02-.691-.957-1.266-.142-.235-.191-.536-.076-.896" fill="#161A1C"/><path d="M25.26 20.246c.047-.77.557-1.227 1.143-1.382.1-.664.57-1.298 1.407-1.387 17.77-1.888 35.572-.153 53.271 1.652.267.028.493.115.685.236.77.16 1.43.835 1.142 1.812-2.346 7.95.4 16.405-1.952 24.346-2.102 7.097-8.376 11.629-15.34 13.294-7.402 1.768-15.857 1.268-23.232-.494-6.406-1.532-12.681-4.839-15.838-10.893-4.368-8.377-1.827-18.26-1.286-27.184" fill="#C6E5BE"/><path d="M53.085 38.345c.273-1.826 1.983-3.289 3.847-3.144.461.036.889.097 1.275.29.219-.208.508-.403.84-.403h.126c.657 0 1.287.643 1.256 1.324a1.419 1.419 0 0 1-.466.996c.187.429.304.91.336 1.39.075 1.158-1.722 1.162-1.797.008-.063-.97-.884-1.858-1.891-1.814-1.007.043-1.654.9-1.793 1.83-.172 1.144-1.903.66-1.733-.477m-1.6 4.6c2.166 4.099 7.545 4.657 10.218.682 1.072-1.594 3.665-.093 2.585 1.515-3.849 5.724-12.102 5.539-15.388-.681-.901-1.707 1.682-3.226 2.585-1.516" fill="#A8D69A"/><path d="M67.726 105.083c.002.025.016.138.016.164.075 4.069-1.79 8.94-5.639 10.862-5.463 2.728-6.072-6.268-6.18-9.553a1.631 1.631 0 0 1 .135-.724 1.945 1.945 0 0 1 .085-.647c.074-.615.448-1.264 1.191-1.328l8.946-.766c1.103-.095 1.628 1.098 1.446 1.992m-17.773 8.207c-.606 1.864-2.058 3.495-4.162 3.387-2.217-.114-3.62-1.905-4.546-3.733-1.227-2.427-2.27-4.98-2.681-7.68-.059-.383.015-.702.17-.957.136-.498.497-.922 1.043-1.041a1.43 1.43 0 0 1 .63-.212 56.35 56.35 0 0 1 9.59-.106c.807.06 1.387.924 1.28 1.691-.388 2.798-.447 5.96-1.324 8.652" fill="#161A1C"/><path d="M65.378 30.465c2.014-3.601 6.849-4.567 10.283-2.528.494.294.702.732.713 1.175 1.97 1.945 2.864 4.895 1.771 7.655-1.458 3.682-6.258 5.458-9.77 3.662-3.48-1.78-4.913-6.538-2.997-9.964" fill="#FAFCF8"/><path d="M73.369 29.244c4.02 0 4.02 9.646 0 9.646-5.025 0-5.025-9.646 0-9.646" fill="#161A1C"/><path d="M73.388 30.778c.785-.18 1.626.236 1.84 1.049.242.913.335 1.866.227 2.806-.089.777-.624 1.54-1.496 1.501-.734-.033-1.592-.666-1.497-1.501.091-.79.062-1.32-.12-2.008-.2-.759.253-1.666 1.046-1.847M37.01 27.91c2.916-2.67 7.46-2.303 10.28.258.277.252.417.534.46.817.261.111.498.318.673.646 1.722 3.232 1.076 7.465-1.891 9.757-3.069 2.37-7.816 1.79-10.28-1.195-2.437-2.951-2.052-7.71.757-10.283" fill="#FAFCF8"/><path d="M43.72 28.643c4.523 0 4.523 9.647 0 9.647-4.522 0-4.522-9.647 0-9.647" fill="#161A1C"/><path d="M42.92 30.433c.53-.532 1.599-.628 2.116 0 .973 1.183 1.35 2.585 1.024 4.094-.171.793-1.093 1.255-1.841 1.049-.817-.225-1.217-1.052-1.045-1.847l.023-.112.005-.144c0-.09-.005-.181-.012-.272 0 .025-.008.005-.02-.067a2.083 2.083 0 0 0-.068-.24c.043.076.04.068-.007-.022-.03-.066-.253-.41-.175-.315-.515-.624-.61-1.512 0-2.124" fill="#FAFCF8"/><path d="M19.46 25.506C18.524 9.832 38.117-7.34 60.66 3.953c11.164-3.64 27.356-.53 27.646 18.694a14.095 14.095 0 0 1-.523 5.148c-.176.601-.832 1.235-1.513 1.156-3.645-.424-15.746-.575-15.746-.575-1.976-.029-32.037-.645-32.037-.645l-17.572-.188c-1.204-.012-1.686-1.136-1.454-2.037" fill="#161A1C"/><path d="M20.562 98.166l.177-.393.006-.013a685.984 685.984 0 0 1 9.427-20.221c.104-.214.25-.357.417-.452.184-.306.534-.523 1.055-.501l43.74 1.83c.514.021.863.265 1.05.582.409.058.768.301.876.787a91.175 91.175 0 0 0 6.955 20.005c.431.89-.573 2.27-1.72 1.529l-3.778-2.441-.578 2.993c-.169.874-1.468 1.015-2.1.493l-7.38-6.098-5.26 3.367c-.407.261-1.202.183-1.522-.175l-3.361-3.744-6.853 4.997c-.624.455-1.522.436-1.973-.226l-2.39-3.513-7.517 5.136c-.7.479-1.598-.074-1.845-.668l-2.004-4.798a43.188 43.188 0 0 0-6.829 4.537 1.341 1.341 0 0 1-2.099-.493l-1.522-3.418-2.625 1.624c-.69 1.142-2.923.565-2.347-.726" fill="#520E59"/><path d="M85.414 33.82c-.04-1.615 2.463-1.835 2.504-.21.258 10.27 1.696 20.434 3.19 30.582 1.507 10.25 3.017 20.499 4.526 30.748.237 1.606-2.268 1.81-2.504.21-1.508-10.25-3.019-20.5-4.526-30.748-1.494-10.148-2.931-20.313-3.19-30.582" fill="#DD8D00"/><path d="M92.822 93.578c.493-.491 1.132-.466 1.606-.189.176-.139.405-.228.708-.22 6.266.158 11.694 3.666 14.41 9.338.55 1.149-.786 1.918-1.723 1.497a19.54 19.54 0 0 1 1.787 6.195c.118 1.026-.853 1.48-1.622 1.262a19.524 19.524 0 0 1-.043 3.254c-.162 1.612-2.632 1.142-2.47-.466.29-2.89-.219-5.743-1.357-8.307a28.153 28.153 0 0 1 1.072 4.624c.165 1.137-1.04 1.567-1.842 1.155.166 2.266.191 4.56.184 6.823-.005 1.61-2.509 1.834-2.504.21.003-.817.004-1.645-.003-2.477-.755.42-1.852.167-1.811-.913.028-.76.033-1.515.028-2.27a1.1 1.1 0 0 1-.845.733c.185 1.202.385 2.402.612 3.6.302 1.591-2.203 1.79-2.504.209a105.938 105.938 0 0 1-.77-4.615c-.695.276-1.683-.025-1.826-1.003-.025-.172-.042-.344-.066-.516a1.14 1.14 0 0 1-.783-.12c.19.618.406 1.23.656 1.837.62 1.503-1.742 2.366-2.359.87a22.822 22.822 0 0 1-1.715-8.42 16.952 16.952 0 0 0 .401 6.09c.395 1.558-1.961 2.44-2.359.869-1.73-6.84.118-14.052 5.138-19.05" fill="#401F0F"/><path d="M93.514 95.493l.018-.03c.212-.46.67-.795 1.314-.677 5.367.978 9.794 4.667 11.767 9.764.587 1.516-1.774 2.381-2.36.87a13.017 13.017 0 0 0-6.086-6.848c2.474 2.887 4.104 6.33 4.845 10.174.308 1.59-2.2 1.787-2.504.21a18.67 18.67 0 0 0-3.864-8.293l1.679 7.145c.367 1.562-1.99 2.445-2.359.87l-1.684-7.171c-.403 2.658-.181 5.375.687 8.054.5 1.542-1.859 2.414-2.36.87-1.617-4.995-1.314-10.177.907-14.938" fill="#662E19"/><path d="M44.223 45.802c1.508 0 1.508 2.521 0 2.521-1.507 0-1.507-2.52 0-2.52" fill="#A8D69A"/></g></svg>