<svg width="194" height="112" viewBox="0 0 194 112" xmlns="http://www.w3.org/2000/svg"><g fill="none" fill-rule="evenodd"><path d="M133.374 54.996c1.394 2.876 9.494 18.649 9.494 18.649s2.66 4.26 3.403 5.416c.64.999.78.793 1.852 3.692.546 1.475-1.99 3.24-5.037 5.795-2.602 2.182-3.57 5.856-5.023 5.95-.967.063-3.063 1.409-3.063 1.409-1.369.564-3.264 3.43-3.139 3.025.2-.639.212-6.407.212-7.233 0-.911.856.422 1.731-.198 1.513-1.07.423-1.79 2.39-3.3 1.183-.908 2.212-.437 3.93-1.958 1.32-1.171.891-2.297.156-4.793-.164-.554-.454-2.219-1.757-4.247-1.304-2.026-9.155-12.152-13.574-15.07" fill="#B1B6CC"/><path d="M133.374 54.996c1.394 2.876 10.182 19.99 10.182 19.99s4.376 6.236 4.506 7.5c.155 1.503-.535 1.834-2.14 3.757-1.385 1.659-2.74 1.678-3.742 3.432-1.4 2.454-4.117 4.823-4.117 4.823-2.434.188-6.03 3.931-6.202 4.434-.215.634.171-6.05.183-7.064.01-.911 1.338.552 2.399-.94.621-.876.448-1.929 1.56-2.614 2.6-1.603 2.257.523 4.398-2.321 1.189-1.58.44-2.515.159-3.396-.176-.551-.734-3.366-2.037-5.394-1.304-2.026-9.155-12.152-13.574-15.07" stroke="#424763" stroke-width=".563"/><path d="M132.044 91.868l-3.949-.035.007 11.854s2.16-2.712 3.095-2.83c0 0 .469-1.93.718-2.319" fill="#313753"/><path d="M134.413 71.813s4.703-4.157 5.001-5.074l1.574 3.241-3.64 5.228-2.935-3.395zm-4.923-5.619s6.068-4.927 6.366-5.844l1.575 3.241-4.844 6.04-3.097-3.437zm9.352 11.55s3.727-2.294 4.042-3.374c0 0 1.733 1.945 1.934 2.463 0 0-4.348 4.466-4.538 4.617l-.185-.43-1.253-3.276zm2.051 5.734s5.628-1.79 6.117-3.206c.04-.12 1.188 1.76 1.049 2.957-.167 1.44-1.97 2.816-1.97 2.816s-5.226-.57-5.492-.333c-.268.237.682-1.39.296-2.234m2.351 4.882s-.921 1.306-.605.65c.115-.31-1.726 2.495-1.726 2.495s-3.362-4.064-4.397-3.48c-.415.23.81-.311.81-.311l2.088-.58 3.83 1.226zm-8.802 2.568c.05-.094 2.903 3.82 1.591 4.304-.575.212-2.455 1.771-2.455 1.771s.204-3.632-.002-5.416c-.027-.24.866-.66.866-.66" fill="#424763"/><path d="M113.137 63.135c.752-.06 10.159-1.211 10.159-1.211l-10.12 4.815-.04-3.604zm2.453 4.825s6.287-1.217 7-1.221c.31 0-.89 2.397-.89 2.397l-6.11-1.176z" fill="#313753"/><path d="M59.679 41.4s-.076 15.535-12.821 27.155C36.215 78.67 22.692 79.14 22.692 79.14s-1.803-.57-1.209 6.292c.595 6.862 1.431 14.955 1.431 14.955s.45 2.744 2.728 4.373c1.077.814-6.824 3.696-6.824 3.696s-1.37-22.801-4.598-33.7c-.763-2.602-.447-2.213.983-2.772 1.577-.617 12.355-3.305 12.58-17.274.223-13.968 8.058-28.162 8.04-28.35" fill="#B1B6CC"/><path d="M59.92 38.394s-.317 18.541-13.062 30.16C36.216 78.672 22.69 79.142 22.69 79.142s-1.802-.57-1.208 6.292c.595 6.862 1.43 14.955 1.43 14.955s.913 3.402 2.729 4.373c.983.298-6.825 3.696-6.825 3.696s-1.369-22.801-4.597-33.7c-.763-2.602-.447-2.213.983-2.772 1.576-.617 12.355-3.305 12.579-17.274.224-13.968 8.06-28.162 8.042-28.35" stroke="#424763" stroke-width=".563"/><path d="M17.323 55.17c16.072-5.429 15.752-16.332 16.34-20.792" stroke="#424763" stroke-width="1.5"/><path d="M19.329 111.323s1.605-1.117.956-3.581c.33-.13 5.169-2.506 5.169-2.506l3.17 1.624 1.256 4.463H19.329zm-.363-56.429l-.145.126c-.092.085-.234.2-.433.331a6.006 6.006 0 0 1-.745.427c-.293.147-.625.301-.986.453-.355.16-.746.325-1.113.509-.1.043-.176.098-.262.147l-.117.07-.144.1c-.188.138-.412.26-.589.397-.373.258-.756.566-1.147.871-.387.309-.78.627-1.161.964-.39.325-.767.67-1.145 1.004a4.668 4.668 0 0 0-.476.474c-.12.127-.254.319-.361.496-.451.732-.73 1.59-1.004 2.322-.258.74-.515 1.368-.727 1.787-.102.212-.203.37-.269.477l-.1.164s.04-.267.083-.725c.05-.46.088-1.107.176-1.897.043-.396.098-.831.202-1.292a6.15 6.15 0 0 1 .478-1.461c.122-.253.247-.49.444-.758.214-.3.3-.391.557-.648.37-.372.762-.735 1.168-1.086.409-.347.83-.685 1.267-.989.43-.315.882-.578 1.34-.839.23-.134.434-.235.652-.336l.16-.075c.082-.04.13-.053.196-.08.123-.046.248-.1.361-.129.465-.153.889-.224 1.28-.297.39-.074.744-.127 1.056-.177.293-.048.58-.106.795-.154.446-.091.709-.176.709-.176" fill="#424763"/><path d="M3.563 60.61l.09-.146c.063-.093.132-.24.266-.407.13-.156.285-.35.475-.557.2-.203.459-.422.745-.656.28-.206.592-.444.925-.653l.508-.33c.23-.134.38-.209.58-.317l.574-.307c.212-.094.43-.186.654-.272.222-.086.446-.182.673-.26l.67-.206c.897-.274 1.807-.45 2.654-.588a31.88 31.88 0 0 1 2.323-.297c.68-.07 1.254-.105 1.656-.139.405-.024.643-.025.643-.025s-.2.122-.562.313c-.36.197-.889.447-1.538.69a27.68 27.68 0 0 1-2.226.748c-.806.236-1.666.487-2.526.74-.434.115-.848.246-1.238.38-.199.066-.399.125-.599.183l-.606.238c-.188.07-.42.173-.562.211-.191.079-.378.154-.56.228-.362.152-.693.285-1.011.405l-.82.36c-.243.14-.466.25-.647.342l-.541.322" fill="#424763"/><path d="M.001 57.812c-.001.007.062.053.197.011.134-.031.323-.113.564-.212.479-.205 1.152-.531 1.967-.905.43-.182.793-.413 1.39-.585.492-.153 1.01-.321 1.551-.466.542-.146 1.097-.318 1.67-.455.58-.124 1.19-.212 1.79-.32l1.806-.258c.164-.018.263-.048.478-.057l.436-.007.854-.014c.555-.03 1.127.042 1.647.067l1.456.112c.444.033.854.081 1.218.12.356.006.672.027.934.04.525.033.836.064.836.064s-.284.093-.8.234c-.258.068-.574.155-.943.236-.364.06-.776.119-1.23.17-.456.057-.943.113-1.44.146-.508.05-1.022.064-1.586.131l-.85.09-.433.046c-.077.001-.265.042-.392.062l-1.722.295c-.58.088-1.158.15-1.733.255-.574.131-1.147.221-1.698.33-.55.11-1.089.187-1.598.268l-.19.03-.046.007c.02-.007-.005 0-.005-.002l-.082.02-.354.091-.687.164c-.883.21-1.637.333-2.174.38-.267.028-.485.02-.63.004-.157-.01-.211-.092-.2-.092" fill="#424763"/><path d="M4.172 54.787s.828-.438 2.112-.903c.315-.128.699-.177 1.092-.256.396-.074.818-.158 1.26-.215l.333-.048c.163-.017.231-.013.352-.02.218-.013.438-.022.66-.024.444-.011.895-.008 1.346-.007.919.058 1.845.146 2.694.27a29.43 29.43 0 0 1 2.289.451c1.326.317 2.199.662 2.199.662 0-.001-.922.158-2.288.197-.68.031-1.47.037-2.313.01-.419-.018-.844 0-1.279-.023l-1.313-.065c-.45-.01-.902-.016-1.346-.039a14.519 14.519 0 0 1-.66-.037c-.096-.005-.244-.02-.295-.017l-.303.008c-.401.019-.794.006-1.17.002-.375.013-.732-.048-1.075-.01-1.36.116-2.295.064-2.295.064m31.919-6.527s6.28 14.16 13.298 17.723c.267.135-2.531 2.572-2.531 2.572S42.093 64.67 36.091 48.26m-6.593-5.323s6.94 16.823 11.706 22.235c3.643 4.136-6.692-4.426-12.86-16.703m-.527 2.783s7.85 17.266 13.862 21.4L38.51 74.57s-8.334-11.65-10.721-20.294c.003-2.069.028-3.023.028-3.023m-.687 8.649s2.303 14.383 6.566 16.771l-2.896.963s-3.775-4.12-5.356-13.464c.294-.816 1.685-4.27 1.685-4.27m-4.796 8.157s3.124 9.016 4.763 10.488l-2.497.412s-3.201-4.203-3.99-9.433c-.055-.378 1.724-1.467 1.724-1.467m-5.638 3.391c.24-.043 4.792 7.252 5.519 7.827 0 0-1.064 1.407-.793 2.284.271.877-7.201-6.805-7.201-6.805s-.63-1.607-.363-2.067c.296-.51 1.647-1.034 2.838-1.24m4.788 13.984l-5.238-1.156s.364 3.696.545 3.634c.181-.063 4.947.375 4.947.375l-.254-2.853zm.579 6.048l-4.864-.434.429 3.693 4.746.25zm.742 7.83l-4.692.25.398 5.2s4.032-1.034 5.303-1.754c.298-.169-1.022-1.879-1.009-3.696" fill="#424763"/><path d="M163.796 26.007s-2.838 8.106 1 12.1c2.682 2.79 13.5 8.073 15.947 13.551.308.75.543 1.395.658 2.02.13.708.106 1.388-.144 2.162 0 0 3.465 3.007 7.819.798 4.353-2.208 6.226-7.505 3.417-14.91-2.808-7.405-2.894-7.542-4.587-13.136-1.567-5.176-1.468-6.48-4.695-11.48 0 0 1.865-1.699 4.603-.344 0 0 3.325-11.853-8.189-15.325-10.418-3.141-37.848 1.368-44.619 5.04-6.622 3.592-7.22 6.538-6.728 7.901.492 1.362 4.014 2.728 4.014 2.728" fill="#D3D5DF"/><path d="M174.786 10.54s-3.172-1.915-10.756-.474c-6.503 1.235-23.937 4.698-27.683 5.324-3.745.627-8.364-.438-14.606 0-6.241.439-13.482 1.629-17.977 1.378-4.494-.25-13.108-.063-16.853-1.315-3.745-1.253-19.412-6.139-28.089-4.26-8.676 1.88-20.036 11.213-22.158 14.22-2.123 3.006-2.684 6.388-2.747 8.769-.062 2.38-.873 21.172 16.791 16.036 13.17-3.696 10.143-3.774 14.122-.11 2.868 2.642 16.48 19.309 32.756 19.904 16.593.607 30.49 1.472 42.222-16.407 8.493-12.77 20.107-17.081 23.273-18.816" fill="#D3D5DF"/><path d="M178.592 14.656s-2.054 1.956-2.678 1.893c-.624-.063-.993-3.85 2.434-7.698 3.33-3.739 5.436-5.623 5.436-5.623s-.885 6.277-5.192 11.428" fill="#C0A1A7"/><path d="M172.827 44.016s2.559-7.298 7.668-8.52c0 0-4.868 5.92-4.406 11.002m2.941-6.084c-.075.065 2.215-3.946 5.898-3.257 3.683.689 4.713 3.257 4.713 3.257s-6.398-3.664-10.611 0m-2.427 6.522s.398-3.549 2.207-5.174c1.498-1.347 4.995-1.066 6.96-.764.805.124 1.53 1.202.219 1.452-1.311.251-3.964-.532-5.494 1.034-1.528 1.566-2.09 3.32-2.12 3.884-.033.563 4.555-3.79 7.24-2.193.78.72-5.267 1.033-6.114 4.792m12.137-9.132s-1.654-2.553-3.09-3.757c-1.435-1.205-3.716-3.741-4.214-5.402-.498-1.66 3.184 3.038 4.37 4.228 1.187 1.19 1.942 1.828 1.942 1.828m-2.42-6.256s-1.862-1.616-2.799-3.214c-.55-.937-1.341-4.102-1.341-4.102s-.446 3.124.553 4.972c.999 1.848 4.047 5.739 5.304 7.556" fill="#424763"/><path d="M185.895 35.748s-2.56-2.38-2.902-3.539c-.343-1.16-.75-1.015-1.966-.884-1.218.132-3.605-.025-4.424-.431-.82-.408-.936-.91-2.049 0-1.111.908-5.232 4.29-5.074 10.43.015.658 1.09 1.377 1.09 1.144l1.205.814s-.466-4.341 1.052-7.784c.897-2.037 2.394-3.284 2.855-3.284.46 0 1.1 1.279 2.973.903 1.873-.376 3.152-1.096 3.34-.752.187.345 2.387 3.117 3.9 3.383m-3.058-11.745s-3.13-4.448-.754-8.156c.17-.264 1.573 2.245 1.573 2.245s-1.972 3.815-.819 5.911m-1.181-8.833c-.093 0-3.032 1.958-4.375 7.142-.693 2.676-.5 2.286-.842 1.847-.343-.438-1.28-3.257.687-6.326 1.966-3.07 2.668-4.392 2.668-4.392m-14.058 25.683c.093-.031 4.43-5.537 5.71-8.419 1.28-2.881 2.465-7.172 2.465-8.863 0-1.692-1.997 4.353-5.15 8.957-2.126 3.104-4.681 4.698-4.681 4.698s4.979-5.574 5.18-10.523c.204-4.95-1.435 1.687-3.245 4.197-1.284 1.78-2.74 3.476-3.396 4.228m3.117 5.725s-3.529-3.22-2.904-5.694m9.78-23.552s-1.916 1.445-1.76 3.356c.156 1.91.093 6.228-1.03 8.075-.84 1.383-3.058 3.508-3.058 3.508s1.372-3.138 1.372-5.86c0-2.722-1.83-7.58 1.561-9.408.843-.454 2.602.329 2.915.329m-4.6-.35c-.093.032-4.543 5.045-4.93 12.721-.388 7.676-1.748 1.065-1.748 1.065s-1.498-5.794 1.685-11.15c1.935-3.257 3.034-2.448 3.034-2.448l1.96-.188zm-8.463 1.356s-.587 11.115-.025 15.875c.561 4.761.436 4.917-.25 2.756-.687-2.16-2.653-10.398-2.715-15.159-.063-4.76 0-2.89 0-2.89l2.99-.582m-4.993.973s.411 15.403 5.48 24.326l-4.43 2.378s-3.541-7.01-4.665-15.842c-1.123-8.832-.518-9.897-.518-9.897l4.133-.965zm-7.36 1.435s-.531 18.033 5.034 27.433c-.39.526-2.942 2.212-2.942 2.212s-5.754-13.316-4.413-29.195c1.384-.301 1.602-.665 2.07-.508m.525 31.253s-4.926-12.637-6.269-26.444c.001-3.29-1.244 8.5-.56 16.703.477 5.71 2.04 11.754 2.877 13.722m-4.593-33.298s-2.622 19.952-1.654 32.167c.265 3.35-1.802-1.838-2.551-7.287-.75-5.45-1.225-10.485-1.007-24.461m1.178 44.078s-4.611-9.45-4.892-27.615c.187-3.852-1.217 10.304-.718 18.573.5 8.268.914 11.171 1.444 12.894m-.289-47.847s-4.363 12.621-7.203 37.39c.156 3.513-.394-14.673.286-20.089.592-4.714 2.204-16.268 3.047-17.49.406-.625 3.87.189 3.87.189m-5.056-.062c-.594.532-3.745 8.236-5.524 17.977-1.779 9.74-3.652 22.519-3.652 22.519-1.591-7.71-1.153-11.106-1.03-16.411.188-8.05 2.435-18.578 4.214-21.95 1.498-2.527 1.486-2.308 1.651-2.32a838.6 838.6 0 0 1 4.341-.14s.593-.208 0 .324m-8.021.207s-2.334 3.708-4.602 14.138c-2.206 10.15-1.952 31.523-1.952 31.664 0 .14-2.6-6.103-2.622-17.946-.025-13.765 3.932-24.387 4.916-26.194.983-1.806 1.303-1.408 1.303-1.408l2.395-.254h.562zm-6.601.654s-6.273 15.313-8.755 46.37c-.395 4.943-3.557-11.98-1.217-25.98s3.932-17.794 4.729-19.116c.796-1.32 2.2-1.046 2.2-1.046l2.81-.229h.233zm-6.458.326c-.092.14-4.029 3.573-6.79 17.104-2.763 13.53-4.542 30.255-4.542 30.255s-1.732-7.188-1.263-17.665c.468-10.476 2.153-20.67 5.945-28.282 1.274-2.558 1.361-1.588 1.361-1.588l5.098.171.191.005zm-11.705-.434S81.218 54.102 81.64 60.209c.378 5.484-2.515-6.232.187-22.645 2.763-16.771 7.007-21.61 7.007-21.61m-6.284.486c-.62 1.118-2.982 7.49-4.375 12.762-3.698 14-3.09 27.671-3.09 27.671s-1.545-4.557-1.45-13.624c.093-9.067.926-15.733 4.998-26.633 1.227-2.843 2.505-2.843 2.505-2.843l2.748.794 1.044.321s-1.761.433-2.38 1.552m-7.98-3.869c-.187.047-9.223 21.563-7.771 35.094 0 0-2.217-13.794.327-24.805 2.248-9.725 3.619-11.406 3.619-11.406l3.825.713v.404zm-7.1-1.556c-.094.083-10.315 16.401-11.252 34.16-.749 7.94-2.949-19.7 6.742-34.406 2.944-.232 4.51.246 4.51.246M53.3 13.04s-5.415 24.242-1.67 32.792c0 0-6.685-19.854-2.378-30.662 2.098-1.706 4.047-2.13 4.047-2.13m-9.314 5.606s-2.887 12.623.128 24.79c1.433 5.788-4.255-6.907-4.616-13.476-.28-5.122.078-7.779.078-7.779s2.562-2.489 4.41-3.535m45.753 49.408c-.046-.282-1.908-15.84-.921-26.98.938-10.604-3.67 14.264-3.014 25.962l.416.19 3.536 1.382-.017-.554zm10.192 2.202s-2.984-13.59-2.842-19.772c.14-6.108-2.095 9.304-.972 19.452m12.067.32s-1.92-15.13-1.45-23.676c.467-8.546-1.672 15.573-1.687 23.664 0 .394 2.342.009 2.342.009m80.986-57.833s-3.894-.549-6.423 2.232c-.133.082-1.277-1.211-1.277-1.211s1.641-3.416 6.946-4.947c0 0 .894 2.064.754 3.926m-15.762-3.013s1.58-5.367 1.398-8.912c-.016-.266 3.813.529 3.813.529s-.019 4.64-4.05 8.76M168.796.44s.531 6.006-.232 8.686h1.991s2.057-4.628 1.724-8.173l-.099-.512" fill="#424763"/><path d="M167.475.44s.208 5.859-.553 8.769l-2.339.198s-.066-6.906-.696-8.77c-.132-.3 2.62-.196 2.62-.196h.968zm-5.297.281s1.16 3.912.232 9.063l-1.625.29s-.631-6.84-2.008-9.038c-.298-.632.68-.116.68-.116l2.72-.199zm-4.86.515s.382 7.736.952 9.205c-.039.083-2.395.516-2.395.516s-1.328-.998-2.67-9.055c-.042-.367.594-.333.594-.333l3.519-.333zm-6.448.798s1.007 7.508 1.554 9.54l-2.272.498s-2.438-3.795-2.847-9.37l.505-.102 3.06-.566zm-5.926 1.416s.161 2.333.38 3.42c.191.944.631 2.789 1.112 3.671.435.797 1.033 1.964 1.033 1.964l-2.923.691s-1.925-2.538-2.954-6.366c-.459-1.714-.646-2.381-.646-2.381l3.963-1.22.035.221zm-5.11 1.948s1.957 5.226 1.891 8.39l-2.14.415s-1.343-4.478-3.566-8.106c-.143-.184.431-.184.431-.184l3.152-1.098.232.583zm-5.076 1.655s2.24 2.956 2.455 7.383c0 0-1.028.483-1.608.483 0 0-1.975-4.754-3.5-6.214l-.4-.296 2.813-1.688.24.332zm-4.206 2.475c.052-.006.767 2.944 1.95 5.49h-1.542s-1.576-2.313-2.222-2.763c-.647-.45 1.167-2.643 1.814-2.727m55.667-3.649s-1.702-2.037-2.089-2.166c-.386-.13-.865 2.166-.865 2.166l-.714 2.204s-.621 1.56-.597 1.49m-1.692-7.807s.453 2.505-1.296 4.666l4.543-3.382" fill="#424763"/><path d="M185.654 4.978c.07.009 1.94-1.826 1.94-1.826l-.68 3.754-1.26-1.928z" fill="#D3D5DF"/><path d="M185.533 4.825c1.528-1.316 2.204-1.775 2.204-1.775s-.428 1.804-.822 3.856" stroke="#424763" stroke-width=".563"/><path d="M181.027 55.84s.73-2.113.674-2.74c-.056-.626.342-2.22.904-2.345s3.665.747 4.5-2.087c.348-1.179.976-3.508 1.163-4.767.188-1.259.361-1.777 1.147-2.638s2.437-.501 2.62-.128c3.473 7.078.586 12.478-1.293 14.203-3.223 2.96-6.183 2.569-9.715.502" fill="#C0A1A7"/><path d="M163.565 26.007s-2.838 8.106 1 12.1c2.682 2.79 13.499 8.073 15.947 13.551.307.75.543 1.395.657 2.02a4.24 4.24 0 0 1-.143 2.162s3.465 3.007 7.819.798c4.353-2.208 6.226-7.505 3.417-14.91-2.808-7.405-3.698-7.358-4.587-13.136-.89-5.78-3.444-10.52-7.751-15.358" stroke="#424763" stroke-width=".563"/><path d="M192.035 41.135s-1.657-.881-2.91.376c-.889.892-.655 1.973-1.217 4.274-.562 2.303-.913 4.253-2.598 4.863-1.685.611-2.785-.446-3.347.54-.562.987.125 2.162-.717 3.383m8.207 0s.608-1.01 0-2.255c-.319-.733-.491-1.41 0-1.762.492-.352 1.662.658 1.17 2.255-.514 1.363-1.17 1.762-1.17 1.762z" stroke="#424763" stroke-width=".5"/><path d="M183.625 29.648s.114-3.482-2.809-3.758a143.253 143.253 0 0 1-4.213-.447s.772.588.845 1.946c.083 1.526 1.308 1.907 3.555 1.837 2.247-.07 2.622.422 2.622.422" fill="#EDEEF4"/><path d="M183.625 29.648s.114-3.482-2.809-3.758a143.253 143.253 0 0 1-4.213-.447s.772.588.845 1.946c.083 1.526 1.308 1.907 3.555 1.837 2.247-.07 2.622.422 2.622.422z" stroke="#424763" stroke-width=".5"/><path d="M180.114 26.007s-.936.376-.913 1.41c.024 1.033.492 1.427.913 1.691.42.264 1.132.252 1.132.252s2.262-.04 2.379.288c.117.329.033-3.222-2.628-3.725-.7-.124-.883.084-.883.084" fill="#424763"/><path d="M173.567 16.768s-1.997-2.13-.218-4.823C175.128 9.25 184.086 2.8 184.086 2.8s-1.498 5.386-2.435 7.328a34.208 34.208 0 0 1-2.59 4.417" stroke="#424763" stroke-width=".563"/><path d="M175.783 16.298s-3.026-3.1 8.303-13.498" fill="#C0A1A7"/><path d="M174.555 10.54s-3.172-1.915-10.756-.474c-6.503 1.235-23.938 4.698-27.683 5.324-3.746.627-8.364-.438-14.607 0-6.24.439-13.482 1.629-17.976 1.378-4.495-.25-13.109-.063-16.854-1.315-3.745-1.253-19.412-6.139-28.088-4.26-8.677 1.88-20.036 11.213-22.16 14.22-2.121 3.006-2.683 6.388-2.745 8.769-.063 2.38-.874 21.172 16.79 16.036 13.17-3.696 10.144-3.774 14.122-.11 2.869 2.642 16.48 19.309 32.756 19.904 16.593.607 30.491 1.472 42.222-16.407 8.493-12.77 20.107-17.081 23.273-18.816" stroke="#424763" stroke-width=".563"/><path d="M183.012 17.128s2.322-1.926 4.803-.36c0 0 2.34-6.499-2.481-12.183C180.512-1.1 164.115.3 159.668.817c-4.448.517-24.402 2.65-29.932 9.419-3.102 3.797-.673 5.187-.673 5.187" stroke="#424763" stroke-width=".563"/><path d="M130.073 57.922s-3.469 2.443-4.713 5.388c-1.245 2.943-8.24 19.073-8.24 19.073s.114 1.356.366 2.603c.236 1.164-1.404 3.505-3.017 6.136-1.612 2.63-2.888 6.388-3.05 8.393-.162 2.005.719 3.32.719 3.32-.19 2.455.052 2.733.048 4.166-.003.669-5.807.528-6.418.452-.901-.11.813-1 .425-2.003-.387-1.002-2.015-1.953-.64-4.02 1.374-2.067 2.4-3.167 3.52-6.55 1.119-3.382 1.227-8.472.94-8.973-.288-.501 1.37-1.801 2.038-4.119.667-2.317 3.122-14.908 2.414-20.17 0 0 4.325-2.255 4.872-5.763" fill="#D3D5DF"/><path d="M130.073 57.922s-3.469 2.443-4.713 5.388c-1.245 2.943-8.24 19.073-8.24 19.073s.114 1.356.366 2.603c.236 1.164-1.404 3.505-3.017 6.136-1.612 2.63-2.888 6.388-3.05 8.393-.162 2.005.719 3.32.719 3.32-.19 2.455.052 2.733.048 4.166-.003.669-5.807.528-6.418.452-.901-.11.813-1 .425-2.003-.387-1.002-2.015-1.953-.64-4.02 1.374-2.067 2.4-3.167 3.52-6.55 1.119-3.382 1.227-8.472.94-8.973-.288-.501 1.37-1.801 2.038-4.119.667-2.317 3.122-14.908 2.414-20.17 0 0 4.325-2.255 4.872-5.763" stroke="#424763" stroke-width=".563"/><path d="M105.768 107.453l-.039 3.963h11.813s-3.64-2.542-3.757-3.481c0 0-1.577-.433-1.964-.684" fill="#313753"/><path d="M114.654 63.135c.756-.06 10.232-1.211 10.232-1.211l-10.41 4.815.178-3.604zm2.162 4.825s6.36-1.217 7.072-1.221c.311 0-1.034 2.397-1.034 2.397l-6.038-1.176zm5.674 2.02s-7.433 1.01-8.186 1.41c-.755.399-.509 2.255-.509 2.255l8.177-2.466.517-1.199zm-9.141 6.178s5.536.118 6.42-.258l-1.102 2.607-5.888 1.08.57-3.429zm-1.859 7.306s4.536.234 5.554-.235c0 0 .493 2.043.237 2.537 0 0-6.656 1.571-6.895 1.527l-.17-1.809 1.275-2.02zm-1.307 6.966s3.857.303 4.712.003c.228-.094-1.497 2.356-1.497 2.356s-3.206.219-3.56.171c-.355-.046-.037-1.684.345-2.53m-.883 4.967s2.202.187 2.903-.004c.307-.118-.61 2.33-.61 2.33s-2.199.492-3.318.093c-.445-.164.002-.61.002-.61l.702-1.813.32.004zm-2.766 4.82c.104-.023 1.693.775 4.115.066 1.443-.424.839 1.338.839 1.338s-3.416 1.186-5.681 1.034c-1.753-.117.727-2.438.727-2.438" fill="#424763"/><path d="M34.6 28.917c.173.074-8.877 14.655 4.153 29.113 9.395 10.425 8.272 19.912 8.192 21.662-.071 1.59-.538 1.693 2.048 2.244 26.058 8.146 24.84 12.013 24.84 12.013s10.378-2.13 9.238-1.529c-2.215-3.872-8.144-6.142-8.144-6.142s-7.436-3.13-13.697-5.892c-6.26-2.762-5.049-4.149-5.049-4.149s11.535-12.719 9.075-24.465C59.92 35.675 57.733 34.84 57.733 34.84s-8.907 12.106-13.389 10.993c-7.59-1.885-9.743-16.916-9.743-16.916" fill="#D3D5DF"/><path d="M57.23 34.113s4.238 5.78 7.241 14.283c4.691 14.694-8.29 27.842-8.29 27.842s-1.212 1.386 5.048 4.148a1047.144 1047.144 0 0 0 13.698 5.892s5.597 2.009 8.144 6.142c1.14-.6-9.238 1.528-9.238 1.528s1.623-3.835-24.84-12.012c-2.586-.55-2.12-.655-2.047-2.243.079-1.751 1.54-10.905-8.193-21.663-12.923-14.286-3.828-29.363-4-29.437" stroke="#424763" stroke-width=".563"/><path d="M75.2 96.909s1.005-.911 1.123-3.414c.397-.041 6.369-1.075 6.369-1.075l3.258 3.512 1.03 3.749-11.78-2.772z" fill="#313753"/><path d="M39.813 47.325s16.544.374 22.439-4.381c.224-.18 1.161 3.107 1.161 3.107s-6.823 3.653-23.6 1.274M34.25 51.91s18.732.298 25.364-1.487c5.066-1.365-9.783 5.222-22.995 4.99m2.568 1.637s19.952.857 25.951-2.696l.35 4.12s-15.125 2.027-23.658.06c-1.815-1.001-2.643-1.484-2.643-1.484m2.776 5.176s18.524 3.163 22.3.382l-1.495 3.617s-9.596 2.317-18.424-.73c-.601-.665-2.381-3.27-2.381-3.27m3.829 7.531s12.899.801 14.838 0l-1.212 2.463s-8.113 1.629-13.018-.166c-.353-.13-.608-2.297-.608-2.297m1.271 8.303c.059-.244 8.258-.923 9.05-1.315 0 0 .816 1.66 1.692 1.832.877.173-8.812 3.36-8.812 3.36s-1.66-.194-1.959-.662c-.332-.52-.26-2.019.03-3.215m14.166 2.327l-5.42 3.766s5.73 1.956 5.747 1.759c.016-.198 2.279-4.383 2.279-4.383l-2.606-1.142zm5.54 2.383l-2.298 4.68 2.998 1.37 2.503-4.645zm6.5 2.809l-3.033 4.73 2.825 2.112s3.58-6.284 3.782-5.282c.085.418-1.984-.672-3.574-1.56" fill="#424763"/></g></svg>