<svg xmlns="http://www.w3.org/2000/svg" width="190.408" height="116.36" viewBox="0.037 -0.691 190.408 116.36"><defs><style/></defs><g id="Back_Ear" transform="translate(-2)"><path id="Fill_3_" fill="#8395D4" d="M88.616 61.125c-.312.293-.3-.3-.369-.978-.269-2.596-1.57-5.318-3.55-6.158-1.937-.821-3.814.076-5.152 1.977-3.629 5.158-2.809 11.895-3.915 18.215a.56.56 0 0 0 .001.019l-.01.029c-.057.312-.111.625-.176.936-.813 3.849-2.812 6.324-3.901 9.78-.395 1.25-.281 3.377.3 4.511 1.177 2.3 3.953 3.762 6.001 3.327 2.423-.516 4.454-3.896 5.775-6.389.015.138.021.271.024.405 1.711-4.065 5.201-13.04 5.201-18.598a103.14 103.14 0 0 0-.229-7.076z" transform="translate(-3.5 -66.5) scale(1.3401)"/><path id="Outline_3_" fill="#272525" d="M77.846 92.782c-2.049.435-4.825-1.027-6-3.327-.581-1.135-.695-3.26-.3-4.51 1.089-3.457 3.088-5.935 3.901-9.781.065-.311.121-.623.176-.936l.009-.048c1.107-6.321.286-13.057 3.915-18.215 1.338-1.9 3.218-2.798 5.152-1.977 1.979.84 3.282 3.562 3.55 6.158.07.678.059 1.271.369.978.062-.06.137-.144.23-.287-.121-1.777-.332-3.278-.711-4.512 0-.005-.004-.009-.005-.014-.797-2.587-2.342-3.981-5.411-4.168-3.35-.202-5.529 4.593-6.552 8.168-1.398 4.887-.481 10.278-1.8 15.248-1.036 3.907-4.067 6.963-4.727 10.569-1.372 7.511 6.368 10.527 10.428 7.277 1.703-1.363 3.687-3.744 3.576-6.607-.006-.134-.012-.269-.025-.405-1.321 2.493-3.353 5.875-5.775 6.389z" transform="translate(-3.5 -66.5) scale(1.3401)"/></g><g id="Front_Leg_2" transform="translate(-2)"><path id="Fill_5_" fill="#8395D4" d="M64.979 123.768c.224 1.379 1.009 2.883 1.932 3.674 1.86 1.592 9.75 2.177 10.259-.754.503-2.904-4.011-5.308-5.152-7.696-1.137-2.376-2.143-4.888-1.385-7.763.05.028.092.064.132.103-.538-1.289-1.635-2.634-3.844-2.492-2.191.14-2.771 1.528-2.92 2.392v.002c-.331 4.03.337 8.578.978 12.534z" transform="translate(-3.5 -66.5) scale(1.3401)"/><path id="Toenail2_2_" fill="#B7CBE7" d="M71.293 125.408c-.962.072-.982 2.134-1.237 3.158.721.119 1.494.183 2.254.188-.19-1.115-.041-3.418-1.017-3.346z" transform="translate(-3.5 -66.5) scale(1.3401)"/><path id="Toenail1_2_" fill="#B7CBE7" d="M75.102 125.055c-1.355.252-.848 2.705-1.023 3.592.883-.127 1.657-.369 2.219-.744-.221-1.16-.349-3.005-1.196-2.848z" transform="translate(-3.5 -66.5) scale(1.3401)"/><path id="Outline_6_" fill="#272525" d="M73.9 130.079c2.174-.091 5.057-1.313 4.463-4.962-.18-1.1-.918-2.381-1.646-2.953a17.908 17.908 0 0 1-1.868-1.684 13.365 13.365 0 0 1-2.427-3.502c-.482-1.008-.923-2.217-1.119-3.418-.037-.224-.08-.446-.098-.668-.041-.537-.072-1.229-.441-1.562a.748.748 0 0 0-.132-.102c-.758 2.873.248 5.386 1.385 7.762.236.494.621.99 1.072 1.49 1.727 1.916 4.478 3.903 4.08 6.207-.019.104-.065.195-.103.293a13.937 13.937 0 0 0-.436-1.672c-.673-2.104-3.333-1.645-3.276 1.41.022 1.176.012 1.729.103 1.996-.115.01-.231.014-.348.021.142-.736-.07-1.982-.277-2.881-.5-2.179-3.257-2.058-3.47.988-.051.742-.096 1.235-.103 1.569-1.024-.233-1.881-.571-2.351-.974a4.404 4.404 0 0 1-.521-.547 6.947 6.947 0 0 1-1.411-3.127c-.641-3.955-1.309-8.504-.979-12.537v-.002c-.076-.166-.147-.521-.356-.375-.766 2.054-.858 5.223-.668 7.479.214 2.543.177 5.26 1.145 7.538.58 1.366 1.365 2.298 2.269 2.939 2.16 1.536 5.017 1.381 7.513 1.274zm1.202-5.024c.847-.156.975 1.688 1.196 2.848-.562.375-1.336.617-2.219.744.175-.887-.332-3.34 1.023-3.592zm-3.809.353c.976-.072.827 2.23 1.017 3.346a14.491 14.491 0 0 1-2.254-.188c.255-1.024.275-3.086 1.237-3.158z" transform="translate(-3.5 -66.5) scale(1.3401)"/></g><g id="Back_Leg_2" transform="translate(-2)"><path id="Fill_6_" fill="#8395D4" d="M38.982 120.716c.224 1.379 1.009 2.884 1.932 3.675 1.86 1.592 9.75 2.176 10.259-.754.503-2.904-4.011-5.308-5.152-7.697-1.137-2.375-2.143-4.888-1.385-7.762.05.028.092.064.132.103-.538-1.289-1.635-2.634-3.844-2.492-2.191.14-2.771 1.528-2.92 2.392v.002c-.331 4.03.337 8.579.978 12.533z" transform="translate(-3.5 -66.5) scale(1.3401)"/><path id="Toenail2_3_" fill="#B7CBE7" d="M45.296 122.357c-.962.072-.982 2.135-1.237 3.16.722.116 1.494.181 2.254.187-.19-1.116-.041-3.418-1.017-3.347z" transform="translate(-3.5 -66.5) scale(1.3401)"/><path id="Toenail1_3_" fill="#B7CBE7" d="M49.105 122.004c-1.355.252-.848 2.705-1.023 3.591.883-.126 1.658-.368 2.219-.743-.221-1.161-.349-3.004-1.196-2.848z" transform="translate(-3.5 -66.5) scale(1.3401)"/><path id="Outline_7_" fill="#272525" d="M47.904 127.027c2.174-.09 5.056-1.313 4.463-4.961-.18-1.1-.918-2.381-1.646-2.953a20.836 20.836 0 0 1-.722-.599c-1.407-1.216-2.641-2.641-3.573-4.587-.482-1.008-.923-2.217-1.119-3.418-.037-.224-.08-.447-.098-.669-.041-.536-.072-1.228-.441-1.562a.803.803 0 0 0-.132-.103c-.758 2.874.248 5.386 1.385 7.763.406.85 1.239 1.701 2.12 2.575 1.598 1.586 3.356 3.248 3.032 5.121-.019.105-.065.196-.103.294a14.13 14.13 0 0 0-.435-1.672c-.673-2.104-3.333-1.645-3.276 1.41.022 1.175.012 1.729.103 1.996-.115.01-.231.014-.348.021.142-.736-.07-1.982-.277-2.881-.5-2.179-3.257-2.058-3.47.988-.051.742-.096 1.234-.103 1.568-1.024-.232-1.881-.57-2.351-.973-.923-.791-1.708-2.296-1.932-3.675-.116-.714-.23-1.452-.342-2.199-.506-3.386-.907-7.032-.637-10.337v-.002c-.076-.167-.147-.521-.356-.376-.766 2.054-.858 5.224-.668 7.479.089 1.063.138 2.156.231 3.235.13 1.502.35 2.977.914 4.302 1.966 4.633 6.24 4.368 9.781 4.215zm1.201-5.023c.847-.156.975 1.688 1.196 2.848-.561.375-1.336.617-2.219.743.175-.886-.332-3.339 1.023-3.591zm-3.809.353c.976-.071.827 2.23 1.017 3.347-.76-.006-1.532-.07-2.254-.187.255-1.025.275-3.087 1.237-3.16z" transform="translate(-3.5 -66.5) scale(1.3401)"/></g><g id="Body" transform="translate(-2)"><path id="Fill_8_" fill="#8395D4" d="M140.214 63.127c.904-2.436 1.851-4.763.657-6.929-1.314-2.381-4.158-.073-5.589 2.166-2.632 4.115-6.158 6.347-10.853 7.362-5.509 1.19-9.205 1.794-13.479 1.624-1.729-.068-9.448-.782-16.854-3.679-5.72-2.241-10.979-6.567-15-7.396-3.732-.123-7.372.576-11.347 1.133-4.061.569-7.246-1.795-10.373-4.017-8.622-4.283-16.294-1.964-25.421 2.81-2.634 1.388-3.542 4.095-5.45 5.599-1.153 1.92-2.401 3.777-3.553 5.676a77.392 77.392 0 0 0-1.126 3.381c-1.205 8.261-1.63 14.275.675 22.37 1.503 5.282 4.841 9.311 6.27 11.076 1.789 1.102 3.255 2.608 5.039 3.758a54.93 54.93 0 0 0 6.227 3.465c4.988 2.363 9.946 4.346 15.506 4.759 5.045.374 10.105.042 15.082-.851a75.419 75.419 0 0 0 4.05-.82 13.12 13.12 0 0 0 1.586-.817c4.396-2.651 6.739-5.412 10.356-9.093 3.945 0 6.492-.059 9.945-2.6 3.002-2.223 3.248-5.035 5.672-8.229 1.479-1.948 3.615-1.624 3.369-6.495-.129-2.554 18.248-13.965 23.101-15.806 4.315-1.625 5.796-3.465 10.274-3.465 1.974 0 5.67 3.032 5.836-1.732.099-2.725-2.543-2.816-4.6-3.25z" transform="translate(-3.5 -66.5) scale(1.3401)"/><path id="Outline_10_" fill="#272525" d="M145.766 65.783c-.709-2.598-3.52-3.34-5.051-4.036 1.939-2.369 3.256-6.387-.119-8.046-.916-.451-2.291.495-3.039 1.232-1.125 1.105-4.125 6.193-7.426 7.928-2.389 1.259-5.236 1.762-7.771 2.311-7.008 1.512-17 2.395-28.713-2.097-4.854-1.862-8.869-6.813-13.871-7.989-1.334-.313-5.631-.838-8.265.095v-.005s-4.509 1.324-7.968.491c-2.736-.66-6.699-2.855-8.239-3.746-3.032-1.998-7.908-1.745-10.886-1.451-6.866.676-12.821 4.399-17.926 10.289 0 0-4.21 4.708-5.483 11.233-2.671 10.835-1.336 23.783 5.899 30.865 13.573 18.024 41.45 14.716 41.45 14.716l.018-.041c5.504-.322 10.663-2.998 14.709-8.019.993-1.307 1.753-2.808 2.864-3.695 3.827 0 7.598-.65 10.725-3.041 2.164-1.731 5.086-4.232 5.468-7.853 2.969-.85 5.334-4.207 4.308-7.593.297-.24.599-.473.892-.719 4.352-3.646 8.912-7.08 13.68-9.7 5.043-2.771 9.498-5.612 14.789-7.582 3.371-1.257 6.373 2.135 8.707.539 1.699-1.163 1.604-2.776 1.248-4.086zm-1.661 1.777c-.254.888-1.229.762-1.899.576-3.729-1.03-5.358-1.558-9.062.462-9.722 5.302-19.274 9.294-27.91 17.552-.947.908-2.664 1.689-3.75 2.816.281-1.348.394-2.726.304-3.933-.248-3.284-2.458-6.729-4.123-6.543 1.778 2.987 3.444 7.968 1.257 12.085-.863 1.627-2.126 2.497-3.154 3.888l.146.729c2.439.592 4.24-1.771 5.177-4.699.375.304.989.47 1.485-.111l1.938-1.506c-.002.002-.005.006-.008.007-.38 2.16-2.046 4.234-3.537 4.657-2.717 7.852-9 10.661-15.167 10.701-3.618 5.548-12.578 10.854-17.887 11.469a8.11 8.11 0 0 0-.88.161c-23.383 1.829-36.296-11.056-38.938-14.021.009.004.019 0 .028.002-2.033-2.109-3.305-4.612-4.75-8.43-3.12-8.246-1.939-14.783-.682-20.57.006-.029 2.308-8.356 6.211-12 6.429-6.264 12.717-9.369 21.125-8.692 1.357.108 2.667.428 3.982.729l.007.004c1.85.896 8.817 4.937 10.192 5.437 1.372.499 7.269-1.188 7.298-1.197 2.624-.423 7.176-1.064 11.223 1.299 9.293 5.426 17.561 8.628 26.812 9.254-.462 1.481-1.036 3.463-.245 3.528.906.076.733-1.698.613-3.502a52.27 52.27 0 0 0 6.649-.041c-.49 1.738-.871 4.572.103 4.351.841-.188.655-2.89.132-4.363a59.303 59.303 0 0 0 4.221-.448c-.104 1.529.289 4.224.766 3.887.466-.333.207-2.516-.383-3.941 5.164-.76 10.404-2.312 14.295-7.17.713-.89 2.851-5.708 4.853-3.626 1.531 1.594-.577 5.467-1.993 7.039 2.524-.378 6.305 1.518 5.551 4.16z" transform="translate(-3.5 -66.5) scale(1.3401)"/></g><g id="Back_Leg_1" transform="translate(-2)"><path id="Fill_7_" fill="#8395D4" d="M27.877 122.604c.154 1.861 1.043 3.951 2.192 5.104 2.314 2.316 12.774 3.922 13.759.068.973-3.821-4.793-7.498-6.065-10.806-1.267-3.286-2.345-6.739-1.034-10.493a.98.98 0 0 1 .166.148c-.583-1.775-2.309-7.27-5.27-7.312-2.938-.045-3.451 5.334-3.74 6.471v.002c-1.697 7.464-.447 11.48-.008 16.818z" transform="translate(-3.5 -66.5) scale(1.3401)"/><path id="Toenail2_1_" fill="#B7CBE7" d="M36.126 125.454c-1.29-.004-1.534 2.743-1.982 4.085.952.23 1.974.398 2.988.482-.137-1.505.302-4.561-1.006-4.567z" transform="translate(-3.5 -66.5) scale(1.3401)"/><path id="Toenail1_1_" fill="#B7CBE7" d="M41.241 125.381c-1.833.195-1.413 3.518-1.738 4.682 1.19-.076 2.249-.318 3.036-.761-.174-1.568-.153-4.041-1.298-3.921z" transform="translate(-3.5 -66.5) scale(1.3401)"/><g id="Outline_9_" fill="#272525"><path id="Knee_Swirl_1_" d="M35.292 114.213c.346.923.803 2.719-.265 3.379-1.032.641-1.888-1.337-1.377-2.033.184.909.532 1.652 1.125 1.162.82-.677-.374-3.546-1.328-2.654-1.841 1.722.499 4.711 1.795 4.449.396-.08.788-.224.857-1.121.119-1.533.02-3.043-.327-4.391.597 1.023.999 3.703.647 5.209-.706 3.02-3.828 1.23-4.265-1.129-.433-2.344 1.784-6.479 3.138-2.871z" transform="translate(-3.5 -66.5) scale(1.3401)"/><path id="ID0.38349081110209227" d="M45.584 125.807c-.12-1.418-.904-3.106-1.769-3.985-.039-.04-.078-.088-.117-.124-2.136-1.977-3.971-4.219-5.184-7.363-.537-1.396-.999-3.053-1.135-4.675-.026-.302-.061-.604-.061-.903.001-.719.034-1.645-.424-2.129a.906.906 0 0 0-.166-.148c-1.312 3.754-.233 7.207 1.034 10.494.594 1.543 2.164 3.168 3.573 4.849 1.611 1.921 3.012 3.917 2.492 5.956-.036.138-.109.256-.168.381-.081-.772-.245-1.6-.403-2.274-.677-2.876-4.273-2.541-4.517 1.538-.094 1.567-.166 2.307-.073 2.672-.154.002-.31-.007-.467-.01.267-.967.115-2.65-.067-3.871-.438-2.956-4.127-3.082-4.729.957-.147.984-.257 1.639-.302 2.082a11.4 11.4 0 0 1-1.934-.787c-.451-.239-.834-.492-1.098-.756-1.148-1.15-2.038-3.241-2.192-5.104-.32-3.896-.938-7.842-.438-12.104.269-2.287 2.625-9.977 1.436-9.5-1.25.5-2.282 6.768-2.282 6.768l.003.012c-.594 2.39-.832 5.186-.82 7.367.019 3.412-.316 7.033.736 10.173.962 2.871 2.655 4.463 4.655 5.366 2.441 1.104 5.342 1.18 7.947 1.272 2.908.101 6.881-1.229 6.47-6.154zm-4.343-.426c1.145-.12 1.124 2.354 1.298 3.921-.787.442-1.846.685-3.036.761.325-1.165-.095-4.487 1.738-4.682zm-7.097 4.158c.448-1.342.692-4.089 1.982-4.085 1.308.006.869 3.062 1.006 4.567a19.603 19.603 0 0 1-2.988-.482z" transform="translate(-3.5 -66.5) scale(1.3401)"/></g></g><g id="Front_Leg_1" transform="translate(-2)"><path id="Fill_4_" fill="#8395D4" d="M56.573 127.914c.274 1.689 1.236 3.533 2.367 4.502 2.279 1.949 11.945 2.665 12.568-.924.615-3.559-4.914-6.502-6.312-9.43-1.393-2.91-2.625-5.987-1.697-9.508a.814.814 0 0 1 .162.123c-.66-1.578-2.002-3.227-4.709-3.054-2.685.171-3.396 1.873-3.577 2.931v.002c-.405 4.942.414 10.514 1.198 15.358z" transform="translate(-3.5 -66.5) scale(1.3401)"/><path id="Toenail2" fill="#B7CBE7" d="M64.309 129.925c-1.179.089-1.204 2.614-1.517 3.871.886.144 1.831.222 2.763.229-.233-1.368-.051-4.188-1.246-4.1z" transform="translate(-3.5 -66.5) scale(1.3401)"/><path id="Toenail1" fill="#B7CBE7" d="M70.44 132.979c-.271-1.418-.429-3.679-1.466-3.486-1.659.309-1.037 3.314-1.251 4.398 1.08-.155 2.03-.452 2.717-.912z" transform="translate(-3.5 -66.5) scale(1.3401)"/><g id="Outline_4_" fill="#272525"><path id="Knee_Swirl" d="M62.741 119.721c.382.817.928 2.424 0 3.104-.896.657-1.819-1.086-1.403-1.759.233.817.605 1.472 1.11.979.7-.676-.595-3.21-1.402-2.329-1.558 1.705.793 4.268 1.958 3.936.356-.103.703-.26.702-1.086-.001-1.407-.2-2.778-.613-3.984.618.893 1.177 3.311.964 4.71-.428 2.808-3.407 1.399-3.975-.726-.563-2.107 1.165-6.043 2.659-2.845z" transform="translate(-3.5 -66.5) scale(1.3401)"/><path id="Outline_5_" d="M67.504 135.648c2.662-.112 6.194-1.611 5.466-6.08-.22-1.346-1.125-2.916-2.017-3.617-.1-.079-.196-.161-.294-.241-1.969-1.598-3.697-3.459-4.967-6.11-.59-1.235-1.13-2.717-1.371-4.188-.045-.272-.099-.548-.12-.819-.051-.658-.087-1.504-.54-1.914a.814.814 0 0 0-.162-.123c-.928 3.521.304 6.598 1.697 9.508.573 1.199 1.838 2.401 3.091 3.647 1.806 1.796 3.584 3.682 3.221 5.782-.022.129-.081.24-.126.359a17.426 17.426 0 0 0-.532-2.047c-.824-2.578-4.084-2.016-4.014 1.728.027 1.438.014 2.116.125 2.444-.141.013-.284.018-.427.024.174-.901-.086-2.429-.339-3.528-.613-2.668-3.99-2.52-4.25 1.213-.063.907-.117 1.513-.126 1.922-1.247-.285-2.291-.695-2.868-1.184l-.011-.008c-1.131-.969-2.093-2.812-2.367-4.502-.784-4.844-1.603-10.416-1.198-15.357v-.002c-.094-.205-.181-.641-.437-.461-.938 2.516-1.051 6.398-.818 9.161.262 3.115.216 6.444 1.402 9.235.846 1.992 2.046 3.233 3.429 4.012 2.552 1.436 5.739 1.267 8.553 1.146zm1.47-6.156c1.037-.192 1.195 2.068 1.466 3.486-.687.461-1.637.758-2.717.912.214-1.083-.408-4.089 1.251-4.398zm-4.665.433c1.195-.088 1.013 2.732 1.246 4.101a18.546 18.546 0 0 1-2.763-.229c.313-1.258.338-3.783 1.517-3.872z" transform="translate(-3.5 -66.5) scale(1.3401)"/></g></g><g id="Front_Ear" transform="translate(-2)"><g id="Outer_Ear"><path id="Fill_2_" fill="#8395D4" d="M68.929 60.504c-.364.342-.349-.351-.431-1.143-.314-3.035-1.836-6.216-4.15-7.198-2.262-.96-4.459.089-6.021 2.31-4.241 6.029-3.282 13.902-4.577 21.291l.001.021-.012.033c-.065.365-.129.73-.206 1.095-.95 4.496-3.286 7.392-4.559 11.433-.461 1.461-.328 3.945.351 5.271 1.375 2.688 4.62 4.396 7.014 3.889 2.832-.604 5.207-4.555 6.751-7.468.018.16.022.317.029.476 2-4.753 6.08-15.242 6.08-21.738 0-3.276-.12-6.067-.27-8.272z" transform="translate(-3.5 -66.5) scale(1.3401)"/><path id="Outline_2_" fill="#272525" d="M56.34 97.506c-2.394.508-5.639-1.201-7.014-3.889-.679-1.326-.812-3.811-.351-5.271 1.273-4.041 3.609-6.937 4.559-11.433.077-.363.141-.729.206-1.095l.01-.055c1.294-7.389.335-15.262 4.577-21.292 1.562-2.221 3.759-3.27 6.021-2.31 2.314.982 3.836 4.163 4.15 7.198.082.792.067 1.485.431 1.143.074-.07.159-.168.27-.335-.142-2.077-.389-3.832-.831-5.274l-.005-.016c-.932-3.024-2.737-4.653-6.325-4.872-3.914-.236-6.462 5.368-7.657 9.546-1.634 5.712-.564 12.013-2.104 17.822-1.211 4.567-4.753 8.138-5.524 12.354-1.604 8.776 7.443 12.305 12.187 8.506 1.993-1.596 4.31-4.377 4.18-7.724-.006-.157-.011-.315-.029-.476-1.544 2.918-3.919 6.869-6.751 7.473z" transform="translate(-3.5 -66.5) scale(1.3401)"/></g><g id="Inner_Ear"><path id="Fill_1_" fill="#B7CBE7" d="M64.29 70.331c-1.328-3.58 1.289-5.665.907-9.123-.198-1.778-1.099-3.733-2.544-4.08-1.74-.417-3.528 1.956-4.267 3.811-2.276 5.716 1.009 11.885-.351 17.897-.572 2.531-4.039 6.135-3.449 8.583.191.794 1.303 1.664 1.899 1.771 4.715.854 3.833-12.053 9.324-13.586-.022.061-.056.105-.082.162.33-.386.579-.8.63-1.323a4.794 4.794 0 0 0-.022-1.277c-.481.939-1.912-2.475-2.045-2.835z" transform="translate(-3.5 -66.5) scale(1.3401)"/><path id="Outline_1_" fill="#272525" d="M63.295 55.858c-1.414-.681-3.474.089-4.559 1.386-5.513 6.593.128 15.669-1.812 21.132-1.009 2.84-7.123 7.915-2.542 12.008 1.224 1.095 3.412 1.22 4.646.115 3.421-3.063 2.541-9.515 5.466-13.124.423-.523.929-.948 1.233-1.609.026-.057.059-.103.082-.162-5.491 1.533-4.609 14.44-9.324 13.586-.596-.105-1.708-.977-1.899-1.771-.59-2.448 2.877-6.052 3.449-8.583 1.36-6.012-1.925-12.181.351-17.897.739-1.855 2.527-4.228 4.267-3.811 1.445.347 2.346 2.302 2.544 4.08.382 3.458-2.235 5.543-.907 9.123.133.36 1.564 3.774 2.045 2.834.049-.095.091-.218.118-.41-3.765-5.31 4.482-13.211-3.158-16.897z" transform="translate(-3.5 -66.5) scale(1.3401)"/></g></g><g id="Tail" transform="translate(0 -10)"><path id="Fill" fill="#8395D4" d="M27.008 62.518c-1.615-.383-2.128.407-4.243.798-2.707.5-2.695-4.566-6.49-4.031-1.441.203-3.655.493-4.65-.049.411.712 1.485 1.235 2.27 1.222 3.442-.062 4.532.329 6.354 3.547 1.081 1.911 3.293-.038 4.296 1.706-.023.122-.12.294-.248.488 4.666.107 3.343-2.673 2.711-3.681z" transform="translate(-6.5 -49.5) scale(1.3401)"/><path id="Outline" fill="#272525" d="M20.25 64.004c-1.823-3.219-2.912-3.609-6.354-3.547-.785.014-1.859-.509-2.27-1.222.995.542 3.209.252 4.65.049 3.795-.535 3.783 4.531 6.49 4.031 2.114-.391 2.848-.798 4.462-.415.372.088 1.338-.061 1.66-.849.178-.434-.368-.99-.427-.96-1.847-1.146-3.531.039-5.538.145-1.574.082-2.109-1.819-3.202-2.65-2.729-2.078-6.541.956-9.088-.665.451-.768.415-1.911 1.064-2.361.9-.624 1.419-3.392.768-3.423-1.278 1.257-2.203 3.262-2.221 5.488-.019-.017-.039-.026-.058-.044-.263-.244-.362-.642-.58-.937-.295-.793-1.768-2.221-2.206-1.635.337 1.13.956 2 1.865 2.445.048.219.116.44.213.663-1.497.575-3.787 3.092-4.6 3.505.392.718 1.151-.126 1.728-.073 1.024-1.091 2.293-1.612 3.403-2.505.982 1.405 2.641 2.601 3.753 2.572 5.112-.126 6.454 7.387 10.071 5.906.877-.358 3.621-.706 1.085-2.999-.172-.153-3.587 1.392-4.668-.519z" transform="translate(-6.5 -49.5) scale(1.3401)"/></g><path id="R_Eye" fill="#272525" d="M96.993 68.522c-.142-2.507-5.286 1.182-4.8 2.971.866-1.676 4.869-1.727 4.8-2.971z" transform="translate(-5.5 -66.5) scale(1.3401)"/><g id="R_Eyebrow" transform="translate(-2)"><path id="ID0.9025702434591949" fill="#272525" d="M91.657 68.535c1.8-1.179 3.81-3.342 5.004-5.57-.397-.574-.952-.67-1.533-.686-2.589-.072-3.567 4.083-3.471 6.256z" transform="translate(-3.5 -66.5) scale(1.3401)"/><path id="ID0.12845947360619903" fill="#B7CBE7" d="M92.26 67.336l3.057-3.865c-1.618-.844-2.653 2.48-3.057 3.865z" transform="translate(-3.5 -66.5) scale(1.3401)"/></g><path id="L_Eye" fill="#272525" d="M82.05 74.39c-1.284-1.976 6.71-4.387 7.188-2.592-1.953-.369-6.549 3.572-7.188 2.592z" transform="translate(-5.5 -66.5) scale(1.3401)"/><g id="L_Eyebrow" transform="translate(-2)"><path id="ID0.17539279349148273" fill="#272525" d="M89.275 69.137c-2.516.301-7.69-.343-10.111-1.354.124-.768.711-1.735 1.316-2.167 2.693-1.916 8.93 1.404 8.795 3.521z" transform="translate(-3.5 -66.5) scale(1.3401)"/><path id="ID0.19790117954835296" fill="#B7CBE7" d="M88.248 68.213l-7.191-.864c1.559-1.893 6.047-.009 7.191.864z" transform="translate(-3.5 -66.5) scale(1.3401)"/></g></svg>