<svg width="120" height="120" viewBox="0 0 120 120" xmlns="http://www.w3.org/2000/svg" xmlns:xlink="http://www.w3.org/1999/xlink"><defs><path id="a" d="M0 .222h32.245v21.383H0z"/><path id="c" d="M.633.634h9.198V12.52H.633z"/><path id="e" d="M.598.634h9.198V12.52H.598z"/></defs><g fill="none" fill-rule="evenodd"><g transform="translate(0 29.628)"><mask id="b" fill="#fff"><use xlink:href="#a"/></mask><path d="M32.245 18.22C28.84 8.904 11.78-1.144 10.265.375c-1.515 1.517 5.242 8.876 5.242 8.876s-3.962-1.427-9.105-1.93c-.48-.046-1.029-.056-1.365.288-.624.64.071 1.675.755 2.249a34.748 34.748 0 0 0 5.714 3.896 33.351 33.351 0 0 0-8.167.464C1.826 14.494-.01 15.28 0 16.82c.01 1.238 1.248 2.064 2.366 2.59 7.99 3.758 21.745 2.244 29.88-1.192" fill="#380D00" mask="url(#b)"/></g><path d="M87.35 47.847c3.405-9.314 20.465-19.362 21.98-17.843 1.516 1.517-5.242 8.876-5.242 8.876s3.963-1.427 9.106-1.93c.48-.046 1.028-.056 1.364.288.624.64-.07 1.675-.754 2.249a34.748 34.748 0 0 1-5.714 3.896 33.351 33.351 0 0 1 8.166.464c1.514.275 3.35 1.062 3.34 2.602-.009 1.238-1.247 2.064-2.365 2.59-7.991 3.758-21.745 2.244-29.88-1.192M75.615 86.23H43.981s-.484 7 3.266 14.006c3.75 7.008 4.89-3.35 4.89-3.35s.563 2.437 3.513 7.768c1.343 2.426 2.83 3.751 4.294 3.815 1.439-.064 2.898-1.389 4.215-3.815 2.897-5.331 3.45-7.768 3.45-7.768s1.12 10.358 4.8 3.35c3.68-7.007 3.206-14.005 3.206-14.005" fill="#380D00"/><path d="M90.033 57.11c-2.792-7.816.355-12.304.355-12.304h-60.99s3.134 4.483.355 12.305c-4.648 13.077 2.488 32.892 30.051 32.892h.178c27.562 0 34.177-21.342 30.051-32.892" fill="#C8B4AB"/><path d="M81.287 7.676c.46-.39 1.029-.784 1.617-.648.584.134.942.77.957 1.37.016.6-.23 1.172-.47 1.722l-.846 1.93a51.817 51.817 0 0 1 4.4-3.601c.713-.523 1.953-.896 2.278-.074.128.324.016.687-.111 1.011-.4 1.01-.952 1.957-1.633 2.8a9.141 9.141 0 0 1 5.799-2.121c.244-.001.503.013.705.15.564.379.25 1.265-.161 1.805-2.069 2.713-5.243 4.344-8.432 5.545a48.378 48.378 0 0 1-16.037 3.086c2.57-1.864 7.675-9.368 11.934-12.975m-42.978 0c-.46-.39-1.03-.784-1.618-.648-.584.134-.941.77-.956 1.37-.016.6.229 1.172.47 1.722.281.643.563 1.287.846 1.93a51.817 51.817 0 0 0-4.4-3.601c-.713-.523-1.953-.896-2.279-.074-.128.324-.016.687.112 1.011.4 1.01.95 1.957 1.632 2.8a9.141 9.141 0 0 0-5.798-2.121c-.244-.001-.503.013-.706.15-.564.379-.25 1.265.162 1.805 2.068 2.713 5.242 4.344 8.432 5.545a48.378 48.378 0 0 0 16.037 3.086c-2.57-1.864-7.676-9.368-11.934-12.975" fill="#380D00"/><path d="M96.176 59.99c-.567-10.064-1.6-34.9-1.6-34.9s-15.566-8.481-34.784-8.502c-19.218.021-34.783 8.502-34.783 8.502s-.965 23.43-1.592 34.9c-.56 10.235 2.239 35.589 36.269 35.589h.22c34.03 0 36.846-25.355 36.27-35.59" fill="#642710"/><path d="M93.56 68.805c-.731-5.991-3.802-11.724-8.54-15.941H34.575c-4.737 4.217-7.808 9.95-8.54 15.94-.185 1.52.089 3.51 1.715 3.905 2.126.515 5.465-1.86 5.465-1.86s-2.812 5.17-1.446 7.972c.769 1.579 3.187 1.955 5.046 1.604 1.859-.352 3.47-1.368 5.024-2.36-.484 1.07-.971 2.159-1.086 3.31-.114 1.15.198 2.394 1.116 3.194 1.15 1.001 2.956 1.081 4.505.743 2.356-.515 4.395-1.814 6.37-3.087-.923 2.557 2.061 8.777 6.914 8.777 4.852 0 8.117-6.22 7.192-8.777 1.976 1.273 4.016 2.572 6.371 3.087 1.55.338 3.356.258 4.506-.743.918-.8 1.23-2.044 1.115-3.194-.114-1.151-.602-2.24-1.085-3.31 1.553.992 3.164 2.008 5.023 2.36 1.859.351 4.278-.025 5.047-1.604 1.366-2.802-1.447-7.972-1.447-7.972s3.339 2.375 5.466 1.86c1.626-.394 1.9-2.384 1.714-3.904" fill="#C8B4AB"/><path d="M59.804 80.07l-.006-.002-.007.001h.013z" fill="#E2DAD6"/><path d="M95.18 54.398c-.409-3.42-1.64-6.38-3.641-9.18H28.057c-2 2.8-3.233 5.76-3.64 9.18-.147 1.225.157 2.55 1.152 3.275 1.659 1.208 5.623-2.085 5.623-2.085s-2.266 5.19-.466 7.703c.757 1.057 2.373 1.15 3.546.59 1.172-.561 2.017-1.619 2.82-2.643-.293 1.46-.587 2.942-.462 4.425.124 1.483.728 2.993 1.92 3.88 1.268.944 3.026 1.038 4.526.542s2.774-1.513 3.884-2.637c-.646 2.65-1.105 6.214 1.267 7.555 2.373 1.34 5.166-.471 7.096-2.398 0 0-.703 7.458 4.475 7.464 5.177-.006 4.475-7.464 4.475-7.464 1.93 1.927 4.722 3.738 7.096 2.398 2.372-1.341 1.913-4.904 1.266-7.555 1.11 1.124 2.385 2.14 3.884 2.637 1.5.496 3.259.402 4.526-.541 1.193-.888 1.796-2.398 1.921-3.88.125-1.484-.169-2.967-.462-4.426.803 1.024 1.647 2.082 2.82 2.643 1.172.56 2.788.467 3.546-.59 1.8-2.514-.466-7.703-.466-7.703s3.964 3.293 5.622 2.085c.996-.725 1.3-2.05 1.154-3.275" fill="#E2DAD6"/><path d="M69.701 22.458c-7.828 3.033-9.903 16.672-9.903 16.672s-2.075-13.639-9.904-16.672C37.34 17.592 21.61 28.352 27.298 45.66c12.726 2.918 25.097 9.882 32.5 18.255 7.402-8.373 19.774-15.337 32.5-18.255 5.687-17.308-10.042-28.068-22.597-23.202" fill="#C8B4AB"/><path d="M55.05 36.383c0 6.702-6.202 12.136-12.893 12.136-6.69 0-12.718-5.434-12.718-12.136 0-5.703 7.088-12.982 13.762-12.507 6.215.442 11.85 5.805 11.85 12.507" fill="#3A0D00"/><path d="M31.361 36.383c0 6.02 4.873 10.902 10.883 10.902 6.011 0 10.884-4.881 10.884-10.902 0-6.02-4.873-10.9-10.884-10.9-6.01 0-10.883 4.88-10.883 10.9" fill="#FFF"/><path d="M33.507 38.224c0 4.811 3.894 8.712 8.697 8.712 4.804 0 8.698-3.9 8.698-8.712 0-4.811-3.894-8.711-8.698-8.711-4.803 0-8.697 3.9-8.697 8.71" fill="#000"/><path d="M90.157 36.383c0 6.702-6.202 12.136-12.893 12.136-6.691 0-12.719-5.434-12.719-12.136 0-5.703 7.089-12.982 13.764-12.507 6.215.442 11.848 5.805 11.848 12.507" fill="#3A0D00"/><path d="M66.468 36.383c0 6.02 4.873 10.902 10.883 10.902 6.01 0 10.884-4.881 10.884-10.902 0-6.02-4.873-10.9-10.883-10.9-6.011 0-10.884 4.88-10.884 10.9" fill="#FFF"/><path d="M68.613 38.224c0 4.811 3.894 8.712 8.698 8.712 4.803 0 8.697-3.9 8.697-8.712 0-4.811-3.894-8.711-8.697-8.711-4.804 0-8.698 3.9-8.698 8.71" fill="#000"/><path d="M64.32 20.308l-.027.018c-.937.586-1.673 1.439-2.393 2.278.32-1.302.644-2.65.41-3.971-.232-1.321-1.177-2.615-2.502-2.809h-.02c-1.325.194-2.271 1.488-2.504 2.809-.232 1.32.091 2.67.412 3.971-.72-.84-1.457-1.692-2.393-2.278l-.028-.018c-1.584-.977-3.562.482-3.25 2.319.348 2.046 1.514 4.049 2.648 5.853l3.295 5.248h3.66l3.295-5.248c1.134-1.804 2.3-3.807 2.647-5.853.312-1.837-1.666-3.296-3.25-2.319" fill="#380D00"/><path d="M62.362 45.237h-5.129c-.812-3.153-.592-6.571 0-10.085h5.13c.942 3.602 1.166 7.022 0 10.085" fill="#000"/><path d="M61.99 45.31s-.244-2.801-2.192-2.801c-1.947 0-2.192 2.902-2.192 2.902 1.462.826 2.924.792 4.384-.1" fill="#752445"/><path d="M56.442 45.324s.374 4.29 3.356 4.29c2.98 0 3.356-4.444 3.356-4.444-2.24-1.266-4.476-1.214-6.712.154" fill="#A44118"/><path d="M59.898 30.86c-1.734-.014-3.704 5.554-3.86 8.13 2.506-1.223 5.012-1.28 7.517-.172.088-.39-1.924-7.945-3.657-7.959M97.87 96.49c-2.183-1.542-4.86-2.368-7.474-1.491-2.663.892-4.338 3.121-5.738 5.43-.109-.01-.156-.275-.419-1.054-.37-1.094-.51-2.204-.554-3.352-.128-3.215-5.13-3.228-5 0 .126 3.176.84 8.038 4.263 9.361 1.199.463 2.38.24 3.49-.246a3.4 3.4 0 0 0 .699-.212c1.722-.755 3.4.1 4.483 1.458.844 1.058 2.657.88 3.536 0 .458-.46.666-.995.696-1.54 1.412-.342 2.71-1.955 1.968-3.733-.02-.05-.047-.097-.068-.147 1.336-.863 1.875-3.235.118-4.475" fill="#CA6E13"/><path d="M89.178 102.343c-3.932.487-5.508 3.049-5.882 3.128 1.078.302 2.14.106 3.142-.333.236-.047.47-.112.698-.212 1.723-.755 3.4.1 4.484 1.458.843 1.058 2.656.88 3.535 0 .1-.099-2.447-4.477-5.977-4.04m8.557.978c-3.836-5.549-8.223-3.027-8.223-3.027 4.583-.695 6.34 4.549 6.34 4.549.77-.187 1.494-.76 1.883-1.522m1.242-4.599c-4.799-4.43-7.67-1.275-7.67-1.275 4.346-.983 6.127 2.725 6.452 3.51.702-.457 1.178-1.33 1.218-2.235" fill="#A74E16"/><path d="M80.709 87.762l-3.913 1.793c-.134 1.302-.797 7.266-.763 8.575.023.886.127 1.865.778 2.467.273.253.668.418 1.02.3.205-.07.37-.223.514-.384a4.23 4.23 0 0 0 1.06-2.441 6.37 6.37 0 0 0 1.437 2.34c.362.374.98.705 1.357.347.147-.14.205-.349.246-.548.17-.822.178-1.679.024-2.504.653.866 2.082.86 2.889.134.807-.724 1.025-1.95.762-3.003-.264-1.053-.934-1.958-1.68-2.746-.534-.562-3.114-3.86-3.731-4.33" fill="#642710"/><g transform="translate(80 99.738)"><mask id="d" fill="#fff"><use xlink:href="#c"/></mask><path d="M1.034 2.386c-1.465 4.39 1.238 9.038 5.714 10.062 3.129.715 4.417-4.126 1.268-4.845-1.965-.45-2.777-2.052-2.145-3.947 1.02-3.057-3.82-4.321-4.837-1.27" fill="#CA6E13" mask="url(#d)"/></g><path d="M88.016 107.341c-1.964-.449-2.778-2.051-2.145-3.947 0 0-3.59 4.365 2.497 8.632 1.841-.888 2.173-4.108-.352-4.685" fill="#A74E16"/><path d="M21.726 96.49c2.182-1.542 4.86-2.368 7.474-1.491 2.662.892 4.337 3.121 5.737 5.43.11-.01.156-.275.42-1.054.369-1.094.509-2.204.554-3.352.128-3.215 5.128-3.228 5 0-.126 3.176-.84 8.038-4.264 9.361-1.198.463-2.379.24-3.489-.246a3.348 3.348 0 0 1-.699-.212c-1.723-.755-3.4.1-4.483 1.458-.845 1.058-2.657.88-3.536 0a2.312 2.312 0 0 1-.696-1.54c-1.413-.342-2.71-1.955-1.968-3.733.02-.05.046-.097.068-.147-1.337-.863-1.876-3.235-.118-4.475" fill="#CA6E13"/><path d="M30.417 102.343c3.932.487 5.508 3.049 5.883 3.128-1.08.302-2.14.106-3.142-.333a3.451 3.451 0 0 1-.699-.212c-1.723-.755-3.4.1-4.483 1.458-.844 1.058-2.657.88-3.536 0-.098-.099 2.448-4.477 5.977-4.04m-8.557.978c3.837-5.549 8.224-3.027 8.224-3.027-4.584-.695-6.34 4.549-6.34 4.549-.771-.187-1.494-.76-1.884-1.522m-1.241-4.599c4.798-4.43 7.67-1.275 7.67-1.275-4.347-.983-6.128 2.725-6.453 3.51-.701-.457-1.177-1.33-1.217-2.235" fill="#A74E16"/><path d="M38.887 87.762l3.913 1.793c.133 1.302.797 7.266.763 8.575-.024.886-.128 1.865-.778 2.467-.273.253-.668.418-1.02.3-.206-.07-.37-.223-.515-.384a4.23 4.23 0 0 1-1.06-2.441 6.37 6.37 0 0 1-1.437 2.34c-.361.374-.979.705-1.356.347-.148-.14-.205-.349-.246-.548a6.492 6.492 0 0 1-.024-2.504c-.654.866-2.083.86-2.89.134-.806-.724-1.024-1.95-.761-3.003.263-1.053.934-1.958 1.68-2.746.533-.562 3.113-3.86 3.73-4.33" fill="#642710"/><g transform="translate(29.167 99.738)"><mask id="f" fill="#fff"><use xlink:href="#e"/></mask><path d="M9.395 2.386c1.465 4.39-1.239 9.038-5.714 10.062-3.129.715-4.417-4.126-1.268-4.845 1.965-.45 2.777-2.052 2.145-3.947-1.02-3.057 3.82-4.321 4.837-1.27" fill="#CA6E13" mask="url(#f)"/></g><path d="M31.58 107.341c1.964-.449 2.777-2.051 2.145-3.947 0 0 3.59 4.365-2.497 8.632-1.842-.888-2.173-4.108.352-4.685" fill="#A74E16"/></g></svg>