<svg width="120" height="120" viewBox="0 0 120 120" xmlns="http://www.w3.org/2000/svg" xmlns:xlink="http://www.w3.org/1999/xlink"><defs><path d="M5.18.664c-.594 0-1.28.244-1.95.707-.671.463-1.325 1.141-1.856 1.988C.669 4.48.319 5.667.32 6.654c0 .475.081.903.235 1.254.155.351.38.626.678.813.167.105.36.17.572.211l.036.01 24.746 9.254c-.13-.3-.193-.644-.193-1.015.002-.704.224-1.504.665-2.267.36-.621.817-1.13 1.303-1.486.328-.24.672-.412 1.014-.5L6.168.922 5.745.745a1.907 1.907 0 0 0-.563-.081H5.18zm20.977 13.93L2.45 3.804s.706-1.78 2.343-2.2l22.31 11.582-.947 1.408z" id="a"/><path d="M4.3.543l-.11.2L4.188.74 4.185.739a1.063 1.063 0 0 0-.538-.137h-.004c-.369 0-.808.164-1.237.478-.43.314-.848.776-1.178 1.348-.406.698-.603 1.43-.603 2.038 0 .328.056.617.161.849.102.226.246.397.433.51l11.042 4.373a6.588 6.588 0 0 1 2.32-3.135c.19-.143.387-.274.584-.395L4.19.742l.11-.2zm8.58 7.03L2.293 2.582l1.053-.996 10.212 5.232-.678.757z" id="c"/><path d="M6.44.072c-.022 0-.055 0-.1.002-.085.004-.207.01-.362.024-.308.028-.746.082-1.253.188C3.713.5 2.42.924 1.293 1.76.718 2.49.259 3.39.025 4.542a3.5 3.5 0 0 1 1.114.717c.625.59 1.244 1.608 1.242 3.25v.015c0 .557-.072 1.186-.236 1.897l.075.19a80.27 80.27 0 0 0 1.375 3.208 94.494 94.494 0 0 0 4.246 8.228c3.682 6.344 9.046 13.736 15.73 17.982.04-.022.08-.05.143-.084.143-.09.365-.225.644-.401a65.574 65.574 0 0 0 9.536-7.39c3.735-3.726 7.367-8.417 9.187-13.748-.016-.023-.04-.053-.064-.089a42.166 42.166 0 0 0-1.637-2.12 48.88 48.88 0 0 0-5.11-5.276C31.812 6.943 25.272 2.557 16.96.889l-.397.266a633.493 633.493 0 0 0-5.062 3.48c-2.91 2.026-6.141 4.33-7.375 5.401a.173.173 0 0 1-.112.042.173.173 0 0 1-.17-.17.17.17 0 0 1 .058-.13C5.166 8.684 8.39 6.387 11.31 4.356c1.978-1.381 3.822-2.637 4.792-3.299-.557.09-1.367.179-2.424.179-1.772 0-4.22-.25-7.237-1.163zm-.906 10.1l11.671-8.373s15.457 2.436 24.557 16.387c0 0-4.085 10.492-10.912 14.721-3.266 2.023-5.928 2.97-7.454 2.97-2.408 0-1.995-2.353 3.33-6.565L11.038 10.07s-.58-.787-2.145-.787c-.824 0-1.923.22-3.359.888zM20.44 31.603a.157.157 0 0 1-.12-.053c-.007-.006-8.423-8.747-13.199-17.373a.17.17 0 0 1 .07-.233 96.732 96.732 0 0 0 1.805-.98.17.17 0 0 1 .223.053c3.409 4.988 11.316 14.398 13.517 16.988a.17.17 0 0 1 .04.135.16.16 0 0 1-.08.119 27.24 27.24 0 0 1-2.177 1.324.183.183 0 0 1-.08.02zm-.421-27.909s-1.574.693-2.79 2.17c0 0 13.176 10.578 17.547 15.711 0 0 2.79-2.75 3.664-5.01 0 0-8.472-10.335-18.421-12.87zm14.2 16.048a.175.175 0 0 1-.126-.053c-.048-.053-.088-.099-.135-.144-6.644-6.935-13.041-11.769-14.94-13.158a.202.202 0 0 1-.072-.13c0-.052.024-.101.063-.136.334-.298.652-.595.946-.89a.172.172 0 0 1 .12-.051c.023 0 .047.006.07.016.017.007 9.855 4.477 16.054 12.112a.16.16 0 0 1 0 .216 87.217 87.217 0 0 1-1.852 2.16.177.177 0 0 1-.127.058zM16.245 6.553s-2.05 1.108-4.26 2.692L28.093 28.38s4.561-3.384 5.634-5.807c0 0-14.916-15.078-17.483-16.02zM27.68 26.342a.19.19 0 0 1-.119-.043l-.008-.01-.016-.016L13.9 10.28a.167.167 0 0 1-.04-.135.18.18 0 0 1 .08-.118c.525-.339 1.05-.673 1.566-1.029a.155.155 0 0 1 .095-.03c.04 0 .08.015.111.043.056.047.112.09.183.153 3.799 3.456 12.246 12.272 14.408 14.539a.167.167 0 0 1-.008.239 67.72 67.72 0 0 1-2.503 2.357.17.17 0 0 1-.112.043z" id="e"/><path d="M1.92.243c-.7.77-1.257 1.775-1.527 3.101.224.087.666.295 1.111.715.627.59 1.246 1.609 1.245 3.253 0 .56-.072 1.194-.238 1.91l.075.19c.062.158.156.39.278.688.247.597.614 1.458 1.098 2.52a94.905 94.905 0 0 0 4.246 8.229c3.68 6.344 9.045 13.736 15.728 17.982.048-.026.104-.061.175-.105.175-.105.43-.26.747-.466.239-.15.517-.327.819-.53-.278.172-.43.262-.437.262a.159.159 0 0 1-.08.023.196.196 0 0 1-.095-.027c-6.803-4.29-12.215-11.759-15.93-18.154S3.4 8.114 3.398 8.11l.16-.06-.16.06-.007-.1a8.217 8.217 0 0 0 .239-1.883c-.001-1.461-.503-2.35-1.03-2.9a3.085 3.085 0 0 0-1.205-.785l-.02-.005a.173.173 0 0 1-.123-.196 7.191 7.191 0 0 1 .67-1.997" id="g"/><path d="M2.41.015C.773.435.067 2.215.067 2.215l23.706 10.79.946-1.408L2.41.015" id="i"/><path id="k" d="M1.756.79l-1.053.996L11.29 6.78l.679-.757L1.756.79"/></defs><g fill="none" fill-rule="evenodd"><path d="M42.673 39.258L10.235 22.18l-.005.007c-2.451-1.145-5.908.452-7.926 3.753-2.122 3.47-1.845 7.504.617 9.008.336.205.697.348 1.072.441l32.81 13.477 5.87-9.607" fill="#44433F"/><path d="M42.673 39.258l.107-.2-32.636-17.184-.112.201.198.111.096-.205a4.272 4.272 0 0 0-1.817-.391c-2.277.004-4.787 1.595-6.4 4.23-.977 1.6-1.46 3.32-1.46 4.878 0 1.891.717 3.566 2.152 4.444.36.218.743.37 1.138.467l.054-.22-.086.209 32.99 13.551 6.098-9.979-.215-.113-.107.201-.194-.118-5.77 9.44L4.065 35.172l-.016-.004a3.596 3.596 0 0 1-1.01-.414c-1.264-.772-1.932-2.27-1.933-4.055-.001-1.464.457-3.108 1.394-4.64 1.541-2.53 3.948-4.019 6.01-4.013a3.81 3.81 0 0 1 1.624.347l.193.09.108-.192-.199-.11-.107.2 32.44 17.08.105-.202-.194-.118.194.118" fill="#2C2627"/><path d="M3.13 25.137c-.222.29-.434.596-.631.92-.937 1.533-1.395 3.177-1.394 4.64.001 1.786.669 3.284 1.934 4.056.315.192.653.326 1.01.414l.015.004L35.87 48.235a2.952 2.952 0 0 1-.188-.354c-.217-.495-.323-1.071-.323-1.695 0-1.244.42-2.68 1.248-4.039.646-1.055 1.447-1.91 2.29-2.506.745-.525 1.523-.85 2.266-.922l-23.9-12.582 20.381 11.915c-3.275.84-4.68 5.563-4.68 5.563S7.895 33.467 4.6 30.823c-2.7-2.168-1.86-4.804-1.469-5.686" fill="#30302D"/><path d="M13.239 23.76l.028.041 3.996 2.336 23.899 12.582a3.008 3.008 0 0 1 .47-.01L13.24 23.761zm-10.01.901c-.332.393-.643.817-.925 1.278-2.122 3.47-1.845 7.504.617 9.008.336.205.697.348 1.072.441l32.133 13.2a2.64 2.64 0 0 1-.257-.353L4.064 35.171l-.016-.004a3.596 3.596 0 0 1-1.01-.414c-1.264-.772-1.932-2.27-1.933-4.055-.001-1.464.457-3.108 1.394-4.64.197-.325.409-.632.631-.92.088-.194.151-.303.151-.303l-.051-.174z" fill="#1D1819"/><path d="M42.678 45.857c-1.622 2.654-4.253 4-5.875 3.008-1.622-.99-1.623-3.946-.003-6.599 1.622-2.652 4.251-4 5.873-3.008 1.624.992 1.624 3.946.005 6.6" fill="#44433F"/><path d="M42.678 45.857l-.194-.12c-.614 1.007-1.378 1.819-2.166 2.375s-1.6.853-2.302.852c-.403 0-.77-.095-1.095-.292a2.134 2.134 0 0 1-.823-.976c-.187-.422-.286-.938-.286-1.51 0-1.142.392-2.508 1.182-3.801.614-1.006 1.378-1.818 2.165-2.373.787-.556 1.599-.854 2.302-.852.403 0 .771.095 1.094.292.363.222.637.553.825.976.186.423.285.938.285 1.51 0 1.143-.391 2.507-1.181 3.8l.194.12.194.118c.827-1.357 1.247-2.793 1.247-4.038 0-.623-.104-1.2-.324-1.693-.218-.495-.552-.906-1.002-1.181-.4-.244-.857-.36-1.332-.359-.83.001-1.72.34-2.564.936-.844.596-1.645 1.451-2.29 2.506-.83 1.359-1.248 2.795-1.25 4.04 0 .623.107 1.2.324 1.694.219.493.554.904 1.003 1.178.4.246.857.36 1.332.36.83-.001 1.72-.34 2.564-.936.845-.596 1.646-1.452 2.292-2.507l-.194-.119" fill="#2C2627"/><g transform="translate(36.556 39.278)"><mask id="b" fill="#fff"><use xlink:href="#a"/></mask><path d="M5.18.664c-.594 0-1.28.244-1.95.707-.671.463-1.325 1.141-1.856 1.988C.669 4.48.319 5.667.32 6.654c0 .475.081.903.235 1.254.155.351.38.626.678.813.167.105.36.17.572.211l.036.01 24.746 9.254c-.13-.3-.193-.644-.193-1.015.002-.704.224-1.504.665-2.267.36-.621.817-1.13 1.303-1.486.328-.24.672-.412 1.014-.5L6.168.922 5.745.745a1.907 1.907 0 0 0-.563-.081H5.18zm20.977 13.93L2.45 3.804s.706-1.78 2.343-2.2l22.31 11.582-.947 1.408z" fill="#E6E6E6" mask="url(#b)"/></g><path d="M67.179 52.594l.104-.202-24.358-12.6-.016-.008-.442-.186-.02-.008a2.39 2.39 0 0 0-.708-.104c-.717.002-1.483.286-2.21.789-.728.502-1.421 1.224-1.984 2.12-.743 1.186-1.122 2.444-1.124 3.537 0 .527.088 1.015.275 1.437.184.42.469.776.85 1.016.23.143.48.225.73.272l.042-.223-.08.213 25.486 9.53c.1.038.214 0 .271-.092l3.375-5.37a.225.225 0 0 0-.087-.323l-.104.202-.193-.121-3.277 5.213-25.311-9.465-.037-.01a1.672 1.672 0 0 1-.572-.212 1.782 1.782 0 0 1-.677-.813c-.154-.351-.235-.779-.235-1.254-.001-.987.348-2.175 1.053-3.295.531-.847 1.185-1.525 1.856-1.988.671-.464 1.36-.708 1.953-.707.201 0 .393.028.57.083l.07-.217-.089.21.434.183 24.349 12.595.106-.202-.193-.121.193.121" fill="#635C5B"/><g transform="translate(62.781 51.993)"><mask id="d" fill="#fff"><use xlink:href="#c"/></mask><path d="M4.3.543l-.11.2L4.188.74 4.185.739a1.063 1.063 0 0 0-.538-.137h-.004c-.369 0-.808.164-1.237.478-.43.314-.848.776-1.178 1.348-.406.698-.603 1.43-.603 2.038 0 .328.056.617.161.849.102.226.246.397.433.51l11.042 4.373a6.588 6.588 0 0 1 2.32-3.135c.19-.143.387-.274.584-.395L4.19.742l.11-.2zm8.58 7.03L2.293 2.582l1.053-.996 10.212 5.232-.678.757z" fill="#D8D8D8" mask="url(#d)"/></g><path d="M67.08 52.536l.114-.197a1.51 1.51 0 0 0-.766-.2c-.5.002-1.022.211-1.51.567a4.875 4.875 0 0 0-1.303 1.486c-.441.763-.663 1.563-.664 2.268 0 .379.065.73.202 1.034.135.305.348.56.633.726l.014.009 12.612 4.995 2.852-4.368-12.076-6.52-.107.2.113-.197-.113.197-.11.2 11.64 6.286-2.375 3.642-12.252-4.853-.084.212.115-.197a1.101 1.101 0 0 1-.448-.518 2.073 2.073 0 0 1-.16-.848c0-.608.196-1.34.602-2.039a4.388 4.388 0 0 1 1.179-1.348c.43-.315.872-.479 1.24-.478.2 0 .378.045.538.137l.004.002.002.002.109-.2" fill="#635C5B"/><g transform="translate(76.291 57.556)"><mask id="f" fill="#fff"><use xlink:href="#e"/></mask><path d="M6.44.072c-.022 0-.055 0-.1.002-.085.004-.207.01-.362.024-.308.028-.746.082-1.253.188C3.713.5 2.42.924 1.293 1.76.718 2.49.259 3.39.025 4.542a3.5 3.5 0 0 1 1.114.717c.625.59 1.244 1.608 1.242 3.25v.015c0 .557-.072 1.186-.236 1.897l.075.19a80.27 80.27 0 0 0 1.375 3.208 94.494 94.494 0 0 0 4.246 8.228c3.682 6.344 9.046 13.736 15.73 17.982.04-.022.08-.05.143-.084.143-.09.365-.225.644-.401a65.574 65.574 0 0 0 9.536-7.39c3.735-3.726 7.367-8.417 9.187-13.748-.016-.023-.04-.053-.064-.089a42.166 42.166 0 0 0-1.637-2.12 48.88 48.88 0 0 0-5.11-5.276C31.812 6.943 25.272 2.557 16.96.889l-.397.266a633.493 633.493 0 0 0-5.062 3.48c-2.91 2.026-6.141 4.33-7.375 5.401a.173.173 0 0 1-.112.042.173.173 0 0 1-.17-.17.17.17 0 0 1 .058-.13C5.166 8.684 8.39 6.387 11.31 4.356c1.978-1.381 3.822-2.637 4.792-3.299-.557.09-1.367.179-2.424.179-1.772 0-4.22-.25-7.237-1.163zm-.906 10.1l11.671-8.373s15.457 2.436 24.557 16.387c0 0-4.085 10.492-10.912 14.721-3.266 2.023-5.928 2.97-7.454 2.97-2.408 0-1.995-2.353 3.33-6.565L11.038 10.07s-.58-.787-2.145-.787c-.824 0-1.923.22-3.359.888zM20.44 31.603a.157.157 0 0 1-.12-.053c-.007-.006-8.423-8.747-13.199-17.373a.17.17 0 0 1 .07-.233 96.732 96.732 0 0 0 1.805-.98.17.17 0 0 1 .223.053c3.409 4.988 11.316 14.398 13.517 16.988a.17.17 0 0 1 .04.135.16.16 0 0 1-.08.119 27.24 27.24 0 0 1-2.177 1.324.183.183 0 0 1-.08.02zm-.421-27.909s-1.574.693-2.79 2.17c0 0 13.176 10.578 17.547 15.711 0 0 2.79-2.75 3.664-5.01 0 0-8.472-10.335-18.421-12.87zm14.2 16.048a.175.175 0 0 1-.126-.053c-.048-.053-.088-.099-.135-.144-6.644-6.935-13.041-11.769-14.94-13.158a.202.202 0 0 1-.072-.13c0-.052.024-.101.063-.136.334-.298.652-.595.946-.89a.172.172 0 0 1 .12-.051c.023 0 .047.006.07.016.017.007 9.855 4.477 16.054 12.112a.16.16 0 0 1 0 .216 87.217 87.217 0 0 1-1.852 2.16.177.177 0 0 1-.127.058zM16.245 6.553s-2.05 1.108-4.26 2.692L28.093 28.38s4.561-3.384 5.634-5.807c0 0-14.916-15.078-17.483-16.02zM27.68 26.342a.19.19 0 0 1-.119-.043l-.008-.01-.016-.016L13.9 10.28a.167.167 0 0 1-.04-.135.18.18 0 0 1 .08-.118c.525-.339 1.05-.673 1.566-1.029a.155.155 0 0 1 .095-.03c.04 0 .08.015.111.043.056.047.112.09.183.153 3.799 3.456 12.246 12.272 14.408 14.539a.167.167 0 0 1-.008.239 67.72 67.72 0 0 1-2.503 2.357.17.17 0 0 1-.112.043z" fill="#D8D8D8" mask="url(#f)"/></g><path d="M110.511 77.128l.12-.118c-.04-.044-.08-.092-.136-.145-6.667-6.955-13.072-11.8-14.98-13.197l-.103.139.111.126c.342-.3.668-.602.97-.905l-.127-.12-.072.156s.151.068.437.205c1.947.952 10.133 5.202 15.497 11.81l.135-.107-.135-.109a84.546 84.546 0 0 1-1.844 2.152l.127.113.12-.118-.12.118.127.113a87.217 87.217 0 0 0 1.852-2.16.16.16 0 0 0 0-.216c-6.199-7.635-16.037-12.105-16.053-12.112a.167.167 0 0 0-.19.035c-.295.295-.613.593-.946.89a.182.182 0 0 0-.064.136.202.202 0 0 0 .072.13c1.899 1.39 8.296 6.223 14.94 13.158.048.045.087.091.135.145.032.034.08.053.127.052a.177.177 0 0 0 .127-.058l-.127-.113zm-6.54 6.6l.111-.128-13.629-15.984-.127.11.087.143c.525-.337 1.05-.671 1.574-1.033l-.096-.14-.11.127c.063.058.118.102.174.15 3.775 3.438 12.23 12.258 14.392 14.521l.12-.117-.12-.122a71.821 71.821 0 0 1-2.495 2.345l.119.127.111-.127-.111.127.111.128a67.72 67.72 0 0 0 2.503-2.357.167.167 0 0 0 .008-.239c-2.161-2.266-10.609-11.083-14.408-14.539-.071-.062-.127-.106-.182-.153a.165.165 0 0 0-.207-.012c-.517.356-1.041.69-1.566 1.028a.18.18 0 0 0-.079.118.167.167 0 0 0 .04.136l13.637 15.992.016.016.008.01a.178.178 0 0 0 .23 0l-.111-.128zm-7.24 5.261l.127-.117c0-.001-.135-.136-.373-.392-1.67-1.785-8.623-9.414-12.774-16.91l-.15.083.081.15a93.062 93.062 0 0 0 1.812-.983l-.087-.15-.135.097c3.425 5.017 11.332 14.42 13.534 17.017l.135-.11-.096-.142a28.07 28.07 0 0 1-2.153 1.307l.08.15.126-.117-.127.117.08.151a27.24 27.24 0 0 0 2.177-1.324.16.16 0 0 0 .08-.118.17.17 0 0 0-.04-.135c-2.202-2.591-10.109-12-13.518-16.988a.168.168 0 0 0-.223-.053c-.712.396-1.324.725-1.805.98a.17.17 0 0 0-.07.233c4.776 8.625 13.192 17.366 13.2 17.373a.165.165 0 0 0 .199.032l-.08-.15zm-3.52-30.725l-.096-.141S90.517 59.88 87.6 61.91c-2.92 2.032-6.143 4.328-7.407 5.424a.17.17 0 0 0 .224.258c1.233-1.072 4.464-3.376 7.374-5.402a633.493 633.493 0 0 1 3.854-2.654c.509-.346.922-.628 1.208-.826.294-.196.453-.305.453-.305a.177.177 0 0 0 .064-.216.175.175 0 0 0-.207-.089l-.048.013c-.23.066-1.319.336-3.147.336-1.74 0-4.164-.247-7.164-1.158l-.05-.006c-.015.002-3.011 0-5.391 1.77l-.033.03c-.634.802-1.141 1.81-1.377 3.095a.173.173 0 0 0 .123.195l.02.006c.114.035.676.237 1.205.785.527.549 1.029 1.438 1.03 2.899 0 .544-.07 1.169-.239 1.883l.007.1c.002.006 2.023 5.33 5.739 11.726 3.714 6.395 9.126 13.863 15.929 18.154.056.033.127.035.175.004.008-.005 5.15-2.968 10.474-7.977l.008-.004c3.775-3.766 7.462-8.522 9.298-13.96a.168.168 0 0 0-.024-.15c-.008-.012-9.592-14.392-26.456-17.745a.17.17 0 0 0-.127.026l.096.141-.032.166c8.352 1.658 14.908 6.06 19.383 10.047a48.88 48.88 0 0 1 5.11 5.276 42.164 42.164 0 0 1 1.637 2.12l.11.159.136-.095-.159-.055c-1.804 5.365-5.46 10.085-9.219 13.829l.128.121-.12-.124a65.52 65.52 0 0 1-9.536 7.392c-.278.176-.5.311-.644.401-.15.09-.23.135-.23.135l.087.149.088-.145c-6.724-4.236-12.12-11.666-15.817-18.036a94.494 94.494 0 0 1-4.247-8.23 80.27 80.27 0 0 1-1.096-2.52c-.124-.298-.217-.53-.279-.688-.062-.155-.093-.237-.093-.237l-.16.06.167.04a8.625 8.625 0 0 0 .247-1.963c.003-1.643-.616-2.661-1.242-3.251-.625-.591-1.247-.763-1.263-.769l-.045.165.167.03c.226-1.23.706-2.18 1.31-2.942l-.135-.106.102.136c1.133-.844 2.433-1.272 3.45-1.487a9.874 9.874 0 0 1 1.615-.212c.082-.003.124-.003.124-.003v-.17l-.05.163c3.035.92 5.483 1.171 7.263 1.171 2.13 0 3.282-.36 3.298-.364l-.055-.163-.096-.141S90.517 59.88 87.6 61.91c-2.92 2.032-6.143 4.328-7.407 5.424a.17.17 0 0 0 .224.258c1.233-1.072 4.464-3.376 7.374-5.402a633.493 633.493 0 0 1 3.854-2.654c.509-.346.922-.628 1.208-.826.294-.196.453-.305.453-.305l-.095-.142-.032.166.032-.166z" fill="#635C5B"/><g transform="translate(74.702 59.94)"><mask id="h" fill="#fff"><use xlink:href="#g"/></mask><path d="M1.92.243c-.7.77-1.257 1.775-1.527 3.101.224.087.666.295 1.111.715.627.59 1.246 1.609 1.245 3.253 0 .56-.072 1.194-.238 1.91l.075.19c.062.158.156.39.278.688.247.597.614 1.458 1.098 2.52a94.905 94.905 0 0 0 4.246 8.229c3.68 6.344 9.045 13.736 15.728 17.982.048-.026.104-.061.175-.105.175-.105.43-.26.747-.466.239-.15.517-.327.819-.53-.278.172-.43.262-.437.262a.159.159 0 0 1-.08.023.196.196 0 0 1-.095-.027c-6.803-4.29-12.215-11.759-15.93-18.154S3.4 8.114 3.398 8.11l.16-.06-.16.06-.007-.1a8.217 8.217 0 0 0 .239-1.883c-.001-1.461-.503-2.35-1.03-2.9a3.085 3.085 0 0 0-1.205-.785l-.02-.005a.173.173 0 0 1-.123-.196 7.191 7.191 0 0 1 .67-1.997" fill="#BBB" mask="url(#h)"/></g><path d="M78.258 67.99l.167.038a8.625 8.625 0 0 0 .247-1.962c.003-1.643-.616-2.661-1.242-3.251-.625-.591-1.247-.763-1.263-.769l-.045.165.167.03c.226-1.23.706-2.18 1.31-2.942a.17.17 0 0 0-.013-.225.169.169 0 0 0-.223-.018c-1.21.899-2.256 2.26-2.632 4.31a.172.172 0 0 0 .123.196l.02.005a3.1 3.1 0 0 1 1.204.786c.527.549 1.029 1.439 1.031 2.9 0 .544-.071 1.168-.238 1.883l.004.1c.003.005 2.024 5.33 5.74 11.725 3.713 6.394 9.125 13.864 15.928 18.154a.172.172 0 0 0 .175.003c.008-.005 5.96-3.442 11.706-9.166a.174.174 0 0 0 0-.239.17.17 0 0 0-.239-.005 65.52 65.52 0 0 1-9.536 7.392c-.278.176-.5.311-.644.401-.15.09-.23.135-.23.135l.087.149.088-.145c-6.724-4.236-12.12-11.666-15.817-18.036a94.494 94.494 0 0 1-4.247-8.23 80.27 80.27 0 0 1-1.096-2.52c-.124-.298-.217-.53-.279-.688-.062-.155-.093-.237-.093-.237l-.16.06.167.04-.167-.04-.159.06c.002.006 2.023 5.33 5.739 11.726 3.714 6.395 9.126 13.863 15.929 18.154.056.033.127.035.175.004.008-.005 5.15-2.968 10.474-7.977l-.111-.124-.128-.121c-2.852 2.845-5.761 5.125-7.954 6.691a58.304 58.304 0 0 1-3.41 2.264 6.2 6.2 0 0 1-.262.157l.087.148.088-.144c-6.723-4.238-12.12-11.666-15.816-18.038a94.905 94.905 0 0 1-4.246-8.228 79.032 79.032 0 0 1-1.098-2.52 55.43 55.43 0 0 1-.278-.688l-.093-.24-.16.062.167.039a8.639 8.639 0 0 0 .249-1.962c0-1.644-.618-2.662-1.245-3.252-.626-.59-1.246-.762-1.262-.768l-.045.165.168.03c.361-1.963 1.348-3.237 2.5-4.098l-.103-.136-.134-.106c-.634.8-1.141 1.809-1.377 3.094a.173.173 0 0 0 .123.195l.02.006c.114.035.676.237 1.205.785.527.549 1.029 1.438 1.03 2.899 0 .545-.07 1.169-.239 1.883l.007.1.16-.06" fill="#635C5B"/><path d="M86.042 69.335c-1.714.957-2.899 1.545-2.899 1.545.136.256.276.514.418.773a83.415 83.415 0 0 0 1.806-.983c3.425 5.003 11.332 14.41 13.534 17.004.381-.254.763-.506 1.144-.779-1.08-1.275-10.252-12.07-14.003-17.56" fill="#9C9A90"/><path d="M86.042 69.335l-.08-.149c-.857.478-1.58.863-2.09 1.13-.51.265-.804.41-.804.41a.168.168 0 0 0-.087.102.167.167 0 0 0 .012.132c.136.257.277.517.42.775a.171.171 0 0 0 .23.068 93.062 93.062 0 0 0 1.811-.983l-.087-.15-.135.097c3.425 5.017 11.332 14.42 13.534 17.017.055.066.15.08.222.032.382-.253.77-.505 1.16-.783.032-.027.064-.071.064-.117a.161.161 0 0 0-.04-.132c-1.08-1.27-10.244-12.072-13.987-17.545a.17.17 0 0 0-.222-.053l.08.15-.144.096c3.767 5.504 12.93 16.296 14.019 17.573l.127-.11-.095-.139c-.382.272-.763.521-1.145.776l.096.142.127-.111c-2.202-2.591-10.109-12-13.518-16.988a.168.168 0 0 0-.223-.053c-.712.396-1.324.725-1.805.98l.08.15.149-.083a38.531 38.531 0 0 1-.416-.769l-.152.08.077.153c.001-.002 1.19-.59 2.91-1.549l-.088-.149-.143.097.143-.097" fill="#635C5B"/><path d="M112.363 74.972c.302-.367.469-.583.469-.583-6.143-7.803-16.268-12.404-16.268-12.404-.485.494-1.033.99-1.629 1.48.095.067.27.19.477.342.334-.3.66-.6.954-.9 0 0 9.822 4.47 15.997 12.065" fill="#9C9A90"/><path d="M112.363 74.972l.127.11c.302-.368.477-.586.477-.587a.174.174 0 0 0 0-.211c-6.183-7.845-16.315-12.447-16.331-12.455a.169.169 0 0 0-.191.036 24.71 24.71 0 0 1-1.613 1.469.18.18 0 0 0-.064.137.17.17 0 0 0 .072.132c.095.067.262.19.469.341a.172.172 0 0 0 .214-.01c.342-.301.668-.603.97-.906l-.127-.12-.072.156s.151.068.437.205c1.947.952 10.133 5.202 15.497 11.81a.168.168 0 0 0 .262.002l-.127-.109.127-.107c-6.199-7.635-16.037-12.105-16.053-12.112a.167.167 0 0 0-.19.035c-.295.295-.613.593-.946.89l.11.129.096-.139a62.11 62.11 0 0 0-.469-.342l-.103.138.111.131a23.898 23.898 0 0 0 1.645-1.49l-.127-.12-.071.155s.159.07.445.21c2.01.981 10.418 5.355 15.767 12.145l.127-.106-.127-.106s-.175.215-.477.58l.135.11.127-.108-.127.107" fill="#635C5B"/><path d="M92.233 65.786c-.056-.055-.12-.1-.175-.152a61.302 61.302 0 0 1-2.265 1.485l.024.014.509.593c.516-.338 1.04-.671 1.565-1.03.056.052.12.096.175.15 3.791 3.448 12.239 12.266 14.4 14.53.199-.197.413-.398.612-.594-.922-.97-10.689-11.215-14.845-14.996" fill="#9C9A90"/><path d="M92.233 65.786l.12-.127c-.072-.061-.136-.106-.183-.152a.177.177 0 0 0-.215-.013 55.52 55.52 0 0 1-2.249 1.48.169.169 0 0 0-.08.141.17.17 0 0 0 .072.143v.002l.493.577a.17.17 0 0 0 .222.032c.525-.337 1.05-.671 1.574-1.033l-.096-.14-.11.127c.063.058.118.102.174.15 3.775 3.438 12.23 12.258 14.392 14.521a.16.16 0 0 0 .12.053.154.154 0 0 0 .118-.049c.2-.197.414-.397.612-.596a.172.172 0 0 0 0-.237c-.922-.972-10.68-11.214-14.845-15.005l-.119.126-.111.126c4.14 3.771 13.907 14.02 14.829 14.988l.127-.118-.127-.12c-.19.193-.397.394-.604.593l.12.122.126-.118c-2.161-2.266-10.609-11.083-14.408-14.539-.071-.062-.127-.106-.182-.153a.165.165 0 0 0-.207-.012c-.517.356-1.041.69-1.566 1.028l.096.143.127-.11-.509-.594-.031-.03-.016-.014-.104.14.096.146a70.36 70.36 0 0 0 2.265-1.49l-.096-.14-.119.128c.072.06.127.102.183.15l.111-.126" fill="#635C5B"/><path d="M93.497 59.355l-11.671 8.373c1.436-.67 2.535-.889 3.358-.889 1.566 0 2.146.788 2.146.788l15.687 19.241c-5.324 4.212-5.738 6.566-3.33 6.566 1.526 0 4.188-.948 7.455-2.97 6.826-4.23 10.911-14.722 10.911-14.722-9.1-13.95-24.556-16.387-24.556-16.387zm17.57 19.777c-4.37-5.133-17.546-15.71-17.546-15.71a8.47 8.47 0 0 1 2.789-2.17c9.95 2.536 18.421 12.87 18.421 12.87-.874 2.26-3.663 5.01-3.663 5.01zm-6.683 6.804L88.275 66.8c2.21-1.584 4.26-2.69 4.26-2.69 2.567.94 17.484 16.018 17.484 16.018-1.073 2.423-5.635 5.807-5.635 5.807z" fill="#D8D8D8"/><g transform="translate(38.94 40.868)"><mask id="j" fill="#fff"><use xlink:href="#i"/></mask><path d="M2.41.015C.773.435.067 2.215.067 2.215l23.706 10.79.946-1.408L2.41.015" fill="#FFF" mask="url(#j)"/></g><g transform="translate(64.37 52.788)"><mask id="l" fill="#fff"><use xlink:href="#k"/></mask><path fill="#FFF" mask="url(#l)" d="M1.756.79l-1.053.996L11.29 6.78l.679-.757L1.756.79"/></g><path d="M8.455 23.289c-.64 0-1.472.163-2.437.736-2.271 1.345-.65 2.566-.65 2.566l28.34 13.125c.508-1.003 1.756-2.086 1.756-2.086L9.833 23.59s-.511-.301-1.378-.301" fill="#53514C"/></g></svg>