<svg width="120" height="120" viewBox="0 0 120 120" xmlns="http://www.w3.org/2000/svg"><g transform="translate(0 32)" fill="none" fill-rule="evenodd"><path d="M69.643 13.792c-.053 0-.105-.004-.16-.012L42.458 9.593a1.046 1.046 0 0 1 .317-2.069L69.8 11.711a1.047 1.047 0 0 1-.157 2.081z" fill="#FF6464"/><path fill="#625D6B" d="M65.483 14.838h4.158v6.28h-4.158z"/><path fill="#504B5A" d="M2.079 6.466h2.079v14.652H2.079z"/><path fill="#625D6B" d="M75.878 42.05h6.236v6.28h-6.236z"/><path d="M96.666 50.423H82.114a2.086 2.086 0 0 1-2.079-2.093v-8.373h16.631v10.466z" fill="#736F7B"/><path d="M91.469 48.33h-6.237c-.574 0-1.04-.469-1.04-1.047V45.19c0-.578.466-1.047 1.04-1.047h6.237c.574 0 1.04.469 1.04 1.047v2.093c0 .578-.466 1.046-1.04 1.046z" fill="#625D6B"/><path d="M75.878 48.33H5.198a2.086 2.086 0 0 1-2.08-2.094v-8.372h72.76v10.465z" fill="#736F7B"/><path fill="#625D6B" d="M57.168 37.864h18.709v4.186H57.168z"/><path d="M100.824 29.49l-3.635-13.336a2.08 2.08 0 0 0-1.93-1.316H82.114a2.086 2.086 0 0 0-2.079 2.093V42.05h35.34V33.4c0-1.043-.76-1.926-1.784-2.073l-12.767-1.836z" fill="#FF6464"/><path fill="#D2555A" d="M97.97 19.025H80.036V29.49h20.789z"/><path d="M50.932 52.516h12.473a2.086 2.086 0 0 0 2.078-2.093v-4.187c0-1.156-.93-2.093-2.078-2.093H50.932a2.086 2.086 0 0 0-2.08 2.093v4.187c0 1.156.931 2.093 2.08 2.093z" fill="#B9B7BD"/><ellipse fill="#504B5A" cx="27.025" cy="49.376" rx="7.276" ry="7.326"/><ellipse fill="#DCDBDE" cx="27.025" cy="49.376" rx="4.158" ry="4.186"/><ellipse fill="#504B5A" cx="41.577" cy="49.376" rx="7.276" ry="7.326"/><ellipse fill="#DCDBDE" cx="41.577" cy="49.376" rx="4.158" ry="4.186"/><path d="M98.35 29.49h2.474L97.97 19.026h-1.558c-.945 0-1.654.87-1.468 1.803l1.39 7a2.058 2.058 0 0 0 2.015 1.663zm-5.273 0h-7.845c-.574 0-1.04-.468-1.04-1.046v-8.373c0-.578.466-1.046 1.04-1.046h6.05a1.5 1.5 0 0 1 1.467 1.21L94.29 28a1.244 1.244 0 0 1-1.214 1.49z" fill="#625D6B"/><path d="M60.286 42.05H2.08c-.574 0-1.04-.469-1.04-1.047V38.91c0-.578.466-1.046 1.04-1.046h58.207c.574 0 1.04.468 1.04 1.046v2.093c0 .578-.466 1.047-1.04 1.047zm16.631 8.373h-2.079c-.574 0-1.04-.469-1.04-1.047V22.165c0-.578.466-1.047 1.04-1.047h2.079c.574 0 1.04.469 1.04 1.047v27.211c0 .578-.466 1.047-1.04 1.047z" fill="#FF6464"/><path d="M14.552 50.423h-2.079c-.574 0-1.04-.469-1.04-1.047v-8.372c0-.578.466-1.047 1.04-1.047h2.079c.574 0 1.04.469 1.04 1.047v8.372c0 .578-.466 1.047-1.04 1.047zM70.68 39.957h-6.236c-.574 0-1.04-.469-1.04-1.047V20.071c0-.578.466-1.046 1.04-1.046h6.236c.575 0 1.04.468 1.04 1.046v18.84c0 .577-.465 1.046-1.04 1.046z" fill="#FF6464"/><path d="M94.587 50.423h22.867V42.05c0-2.312-1.861-4.186-4.157-4.186h-10.395c-4.592 0-8.315 3.748-8.315 8.372v4.187z" fill="#D2555A"/><path d="M118.494 50.423h-5.197v-4.187h5.197c.574 0 1.04.469 1.04 1.047v2.093c0 .578-.466 1.047-1.04 1.047z" fill="#736F7B"/><ellipse fill="#504B5A" cx="108.099" cy="49.376" rx="7.276" ry="7.326"/><ellipse fill="#DCDBDE" cx="108.099" cy="49.376" rx="4.158" ry="4.186"/><path d="M3.118.186h76.917c1.148 0 2.08.937 2.08 2.093v2.093a2.087 2.087 0 0 1-2.08 2.093H3.118V.185z" fill="#FF6464"/><path d="M3.118 10.652A2.086 2.086 0 0 1 1.04 8.559v-6.28c0-1.156.93-2.093 2.078-2.093h2.08c1.147 0 2.078.937 2.078 2.093v4.187c0 2.312-1.862 4.186-4.158 4.186z" fill="#736F7B"/><path d="M3.118 34.724c-1.72 0-3.118-1.409-3.118-3.14 0-1.17.64-2.235 1.669-2.78.245-.13.41-.466.41-.835v-2.665c0-.578.465-1.046 1.04-1.046.574 0 1.039.468 1.039 1.046v2.665c0 1.161-.583 2.19-1.523 2.687a1.046 1.046 0 0 0-.556.928c0 .577.467 1.047 1.04 1.047.572 0 1.039-.47 1.039-1.047 0-.578.464-1.046 1.039-1.046.574 0 1.04.468 1.04 1.046 0 1.731-1.4 3.14-3.119 3.14z" fill="#FF6464"/><path d="M3.118 27.398a2.086 2.086 0 0 1-2.078-2.094v-4.186c0-1.156.93-2.093 2.078-2.093 1.148 0 2.08.937 2.08 2.093v4.186a2.088 2.088 0 0 1-2.08 2.094z" fill="#FFC84B"/><path d="M76.947 2.578a2.071 2.071 0 0 0-2.852.717l-5.631 9.45h-2.98a2.086 2.086 0 0 0-2.08 2.093c0 1.156.931 2.094 2.08 2.094h4.16c.246-.001.485-.06.714-.146.054-.02.106-.039.157-.063.212-.1.411-.225.582-.395.019-.018.03-.041.048-.06.1-.108.2-.22.278-.352L77.66 5.45a2.101 2.101 0 0 0-.713-2.872zm-38.489 8.074h4.158a2.086 2.086 0 0 0 2.079-2.093V6.466H36.38v2.093c0 1.156.93 2.093 2.078 2.093z" fill="#D2555A"/></g></svg>