<svg width="480" height="360" viewBox="0 0 480 360" xmlns="http://www.w3.org/2000/svg" xmlns:xlink="http://www.w3.org/1999/xlink"><defs><path id="a" d="M.043.022h5.624V121.93H.043z"/><path id="c" d="M.204.425h21.723v59.779H.204z"/><path id="e" d="M.204.258h1.632v24.351H.204z"/><path id="g" d="M.204.212H13.09v12.08H.204z"/><path id="i" d="M.088.261h37.065v29.305H.088z"/><path id="k" d="M.044.435h15.482v4.8H.044z"/><path id="m" d="M.233.107h2.854v18.194H.233z"/><path id="o" d="M.185.022H5.81V121.93H.185z"/><path id="q" d="M.146.06h19.208v65.618H.146z"/><path id="s" d="M.423.196h10.37v12.08H.424z"/><path id="u" d="M.428.14h39.578v47.229H.428z"/><path id="w" d="M.428.273h17.996v14.031H.428z"/><path id="y" d="M.008.022h5.624V121.93H.008z"/><path id="A" d="M.431.06H19.64v65.618H.43z"/><path id="C" d="M.431.196h10.371v12.08H.432z"/><path id="E" d="M.055.14h39.577v47.229H.055z"/><path id="G" d="M.01.273h17.995v14.031H.01z"/></defs><g fill="none" fill-rule="evenodd"><path fill="#E8F3FC" d="M-.008 300.434h481.13V.329H-.009z"/><g fill="#E6E7E8"><path d="M337.684 234.179l59.363 59.477H126.645V268.54z"/><path d="M318.769 32.791L480 180v106.328H263.103l-116.8-117.024-12.97-12.994 34.61-123.49z"/><path d="M397.304 196.225l10.447 17.513v72.59h-62.887v-86.713z"/></g><path fill="#2F3972" d="M-.008 360.78h481.13v-74.452H-.009z"/><path d="M134.303 158.129c-1.689-6.346-4.645-5.5-4.645-5.5h-16.466s-2.954-.846-4.643 5.5c-1.688 6.345-4.644 15.65-4.644 15.65h35.043s-2.956-9.305-4.645-15.65M76.038 284.396a1.055 1.055 0 1 1-2.11 0V147.764a1.055 1.055 0 1 1 2.11 0v136.632z" fill="#9B3356"/><path d="M67.901 179.303c-.23.23-.75.082-1.16-.33-.413-.414-.562-.936-.333-1.164l53.655-53.757c.23-.23.749-.08 1.161.333.412.412.56.932.33 1.163l-53.653 53.755z" fill="#9B3356"/><path fill="#9B3356" d="M119.525 153.898h.845v-29.187h-.845zM58.73 286.3h35.464v-2.115H58.729zm302.755-106.212l-.487-8.557h-4.63l-.488 8.557s-7.076 3.422-6.832 8.802c.244 5.379 5.856 7.333 5.856 7.333h7.558s5.612-1.954 5.855-7.333c.245-5.38-6.832-8.802-6.832-8.802"/><path d="M126.087 226.786s-9.392 2.353-9.392 7.393v37.295s-2.011 7.397 6.709 7.397h105.984v-52.085H126.087z" fill="#3E478C"/><path d="M328.293 226.786s9.392 2.353 9.392 7.393v37.295s2.011 7.397-6.709 7.397H224.992v-52.085h103.301z" fill="#3E478C"/><path d="M196.241 251.784c0 1.45-1.5 2.625-3.35 2.625h-54.418c-1.851 0-3.351-1.175-3.351-2.625v-28.316c0-1.45 1.5-2.628 3.35-2.628h54.42c1.85 0 3.35 1.177 3.35 2.628v28.316zm61.12 0c0 1.45-1.5 2.625-3.35 2.625h-54.417c-1.853 0-3.352-1.175-3.352-2.625v-28.316c0-1.45 1.499-2.628 3.352-2.628h54.417c1.85 0 3.35 1.177 3.35 2.628v28.316zm61.121 0c0 1.45-1.499 2.625-3.35 2.625h-54.42c-1.85 0-3.35-1.175-3.35-2.625v-28.316c0-1.45 1.5-2.628 3.35-2.628h54.42c1.851 0 3.35 1.177 3.35 2.628v28.316zm-79.692 3.627v15.609H138.48c-10.172 0-9.337-4.428-9.337-4.428v-5.6c0-3.972 6.87-5.58 6.87-5.58H238.79z" fill="#355D91"/><path d="M215.59 255.411v15.609H315.9c10.172 0 9.337-4.428 9.337-4.428v-5.6c0-3.972-6.87-5.58-6.87-5.58H215.59z" fill="#355D91"/><path fill="#3E478C" d="M124.265 285.366h4.758v-9.04h-4.758zm199.612 0h4.759v-9.04h-4.759zm23.806-4.964h44.546V202.44h-44.546v77.963zm-5.074 6.215h54.695v-90.392H342.61v90.392z"/><path fill="#355D91" d="M379.564 185.128v-75.036h-1.452l-.58 75.327z"/><path d="M378.983 144.702c.436-.29 12.773-21.666 12.773-21.666l1.45.434-13.933 23.267-.29-2.035z" fill="#355D91"/><path fill="#355D91" d="M386.24 133.94l.87-13.086.87-.438-.87 11.78zm-3.92 6.69l9.58-3.053.29-1.31-10.015 3.49zm-4.4-5.24c-.1-.414-12.93-15.733-12.93-15.733l.733-.987 13.824 17.06-1.628-.34z"/><path fill="#355D91" d="M371.751 126.879l-9.7-4.285-.093-.784 8.707 3.92zm3.999 4.838l.328-8.15-.914-.584-.118 8.603z"/><path fill="#3E478C" d="M375.47 173.146v-52.584h1.018l.406 52.786z"/><path d="M375.878 144.815c-.306-.202-8.952-15.184-8.952-15.184l-1.016.307 9.764 16.305.204-1.428z" fill="#3E478C"/><path fill="#3E478C" d="M370.792 137.274l-.61-9.17-.61-.305.61 8.253zm2.747 4.689l-6.714-2.14-.204-.917 7.02 2.445zm3.083-3.673c.07-.29 9.06-11.025 9.06-11.025l-.514-.69-9.687 11.953 1.141-.239z"/><path fill="#3E478C" d="M380.944 132.326l6.8-3.002.064-.55-6.103 2.747zm-2.8 3.391l-.231-5.712.64-.41.082 6.03zm2.966 39.613l-.632-11.079h-5.995l-.633 11.08s-9.162 4.431-8.846 11.395c.315 6.965 7.582 9.497 7.582 9.497h9.788s7.267-2.532 7.582-9.497c.316-6.964-8.846-11.395-8.846-11.395m-29.186 104.011h6.269V240.21h-6.27z"/><path fill="#9B3356" d="M359.64 279.342h6.268V240.21h-6.268z"/><path fill="#B63A3A" d="M367.355 279.342h6.267V240.21h-6.267z"/><path fill="#355D91" d="M134.94 154.7h57.223V32.791h-57.224z"/><path fill="#3E478C" d="M198.242 154.7h57.223V32.791h-57.223z"/><path fill="#355D91" d="M261.544 154.7h57.225V32.791h-57.225zm-126.604 0h57.223V32.791h-57.224z"/><path d="M202.22 211.421s14.136 1.789 26.217.716c12.08-1.073 22.36-1.789 22.36-1.789s.515 1.073-.77 8.232c-1.286 7.158-2.057 12.885-.772 20.044 1.285 7.158.771 11.094.771 11.094s-3.855-.715-6.94-1.43c-3.084-.717-17.733 1.073-21.332.716-3.598-.359-16.45-.359-18.762 3.578 0 0-1.542.357-1.285-5.37.257-5.725 1.8-12.883.257-19.327-1.542-6.441-1.8-16.464.257-16.464m58.582 0s14.135 1.789 26.216.716a1326.3 1326.3 0 0 1 22.36-1.789s.515 1.073-.77 8.232c-1.286 7.158-2.057 12.885-.772 20.044 1.286 7.158.771 11.094.771 11.094s-3.855-.715-6.94-1.43c-3.084-.717-17.732 1.073-21.331.716-3.598-.359-16.45-.359-18.762 3.578 0 0-1.543.357-1.285-5.37.256-5.725 1.799-12.883.256-19.327-1.542-6.441-1.8-16.464.257-16.464m-115.28 1.566s14.135 1.789 26.215.715c12.08-1.072 22.361-1.79 22.361-1.79s.515 1.075-.771 8.234c-1.286 7.157-2.056 12.885-.77 20.043 1.284 7.157.77 11.096.77 11.096s-3.856-.718-6.94-1.432c-3.085-.717-17.734 1.073-21.332.715-3.598-.357-16.449-.357-18.762 3.58 0 0-1.543.357-1.285-5.37.257-5.726 1.799-12.883.257-19.327-1.542-6.443-1.8-16.464.257-16.464" fill="#E0BF62"/><g transform="translate(218.313 32.77)"><mask id="b" fill="#fff"><use xlink:href="#a"/></mask><path fill="#E8F3FC" mask="url(#b)" d="M.043-44.13v207.733h4.02L5.667-44.935z"/></g><g transform="translate(198.038 94.497)"><mask id="d" fill="#fff"><use xlink:href="#c"/></mask><path d="M21.927 6.06c-1.206.804-35.36 59.983-35.36 59.983l-4.017-1.205L21.125.425l.802 5.636z" fill="#E8F3FC" mask="url(#d)"/></g><g transform="translate(198.038 130.091)"><mask id="f" fill="#fff"><use xlink:href="#e"/></mask><path fill="#E8F3FC" mask="url(#f)" d="M1.836.258l-2.41 36.23-2.41 1.21L-.573 5.09z"/></g><g transform="translate(198.038 111.618)"><mask id="h" fill="#fff"><use xlink:href="#g"/></mask><path fill="#E8F3FC" mask="url(#h)" d="M12.689.212l-26.525 8.453-.8 3.626L13.088 2.63z"/></g><g transform="translate(218.313 125.135)"><mask id="j" fill="#fff"><use xlink:href="#i"/></mask><path d="M4.596 1.203c.273 1.145 35.792 43.556 35.792 43.556L38.36 47.49.09.261l4.507.942z" fill="#E8F3FC" mask="url(#j)"/></g><g transform="translate(239.94 149.465)"><mask id="l" fill="#fff"><use xlink:href="#k"/></mask><path fill="#E8F3FC" mask="url(#l)" d="M.044.435L26.9 12.295l.257 2.17L3.05 3.613z"/></g><g transform="translate(227.775 136.399)"><mask id="n" fill="#fff"><use xlink:href="#m"/></mask><path fill="#E8F3FC" mask="url(#n)" d="M1.14.107L.233 22.67l2.53 1.614L3.087.468z"/></g><g transform="translate(295.36 32.77)"><mask id="p" fill="#fff"><use xlink:href="#o"/></mask><path fill="#E8F3FC" mask="url(#p)" d="M5.81 198.094V-9.64H1.788L.185 198.898z"/></g><g transform="translate(299.414 58.902)"><mask id="r" fill="#fff"><use xlink:href="#q"/></mask><path d="M.146 60.042C1.35 59.24 35.506.06 35.506.06l4.016 1.206L.947 65.678l-.801-5.636z" fill="#E8F3FC" mask="url(#r)"/></g><path d="M319.65 89.153l2.41-36.23 2.41-1.21-2.41 32.609z" fill="#E8F3FC"/><g transform="translate(307.975 95.398)"><mask id="t" fill="#fff"><use xlink:href="#s"/></mask><path fill="#E8F3FC" mask="url(#t)" d="M.822 12.275l26.526-8.454.8-3.625L.423 9.858z"/></g><g transform="translate(261.116 46.737)"><mask id="v" fill="#fff"><use xlink:href="#u"/></mask><path d="M35.499 46.427C35.226 45.282-.293 2.871-.293 2.871L1.736.14l38.27 47.23-4.507-.942z" fill="#E8F3FC" mask="url(#v)"/></g><g transform="translate(261.116 55.298)"><mask id="x" fill="#fff"><use xlink:href="#w"/></mask><path fill="#E8F3FC" mask="url(#x)" d="M18.424 14.304L-8.432 2.444-8.69.273l24.106 10.854z"/></g><path fill="#E8F3FC" d="M290.61 82.996l.907-22.563-2.53-1.614-.325 23.817z"/><g transform="translate(152.53 32.77)"><mask id="z" fill="#fff"><use xlink:href="#y"/></mask><path fill="#E8F3FC" mask="url(#z)" d="M.008 198.094V-9.64H4.03l1.603 208.537z"/></g><g transform="translate(134.508 58.902)"><mask id="B" fill="#fff"><use xlink:href="#A"/></mask><path d="M19.64 60.042C18.434 59.24-15.72.06-15.72.06l-4.017 1.206 38.575 64.412.802-5.636z" fill="#E8F3FC" mask="url(#B)"/></g><path d="M134.058 89.153l-2.41-36.23-2.41-1.21 2.41 32.609z" fill="#E8F3FC"/><g transform="translate(134.508 95.398)"><mask id="D" fill="#fff"><use xlink:href="#C"/></mask><path fill="#E8F3FC" mask="url(#D)" d="M10.402 12.275l-26.525-8.454-.8-3.625 27.725 9.662z"/></g><g transform="translate(152.53 46.737)"><mask id="F" fill="#fff"><use xlink:href="#E"/></mask><path d="M4.562 46.427c.273-1.145 35.792-43.556 35.792-43.556L38.325.14.055 47.37l4.507-.942z" fill="#E8F3FC" mask="url(#F)"/></g><g transform="translate(174.158 55.298)"><mask id="H" fill="#fff"><use xlink:href="#G"/></mask><path fill="#E8F3FC" mask="url(#H)" d="M.01 14.304l26.856-11.86.256-2.171L3.016 11.127z"/></g><path fill="#E8F3FC" d="M163.098 82.996l-.907-22.563 2.53-1.614.325 23.817z"/></g></svg>