<svg width="120" height="120" viewBox="0 0 120 120" xmlns="http://www.w3.org/2000/svg" xmlns:xlink="http://www.w3.org/1999/xlink"><defs><path id="a" d="M0 .418h119.493v9.86H0z"/><path id="c" d="M0 73.082h119.493V0H0z"/></defs><g transform="translate(0 23)" fill="none" fill-rule="evenodd"><g transform="translate(0 62.805)"><mask id="b" fill="#fff"><use xlink:href="#a"/></mask><path d="M119.493 5.348c0 2.722-26.75 4.93-59.746 4.93C26.75 10.278 0 8.07 0 5.348 0 2.625 26.75.418 59.747.418s59.746 2.207 59.746 4.93" fill="#284969" mask="url(#b)"/></g><path d="M15 33.905c2.229 1.398 13.003 5.358 15.37 6.064 20.129 0 42.158.066 62.286.066 2.413-.671 13.656-4.79 15.655-6.13H15z" fill="#73181A"/><path d="M108.712 34.113h-93.81l21.25-11.971c8.543.929 43.134.93 51.698 0 6.134 3.99 14.728 7.98 20.862 11.971" fill="#B01A2C"/><mask id="d" fill="#fff"><use xlink:href="#c"/></mask><path fill="#D6E6F1" mask="url(#d)" d="M30.37 49.432h62.664v-11.89H30.37zm0-24.072h62.664v-7.643H30.37z"/><path d="M15 11.763c2.229 1.399 13.003 5.359 15.37 6.065 20.129 0 42.158.066 62.286.066 2.413-.671 13.656-4.79 15.655-6.131H15z" fill="#73181A" mask="url(#d)"/><path d="M108.712 11.972h-93.81L33.303 0c8.542.928 18.08 1.544 28.462 1.544A263.667 263.667 0 0 0 90.312 0l18.4 11.972M7.486 67.284h103.657V44.799H7.486z" fill="#CC1F33" mask="url(#d)"/><path fill="#CC1F33" mask="url(#d)" d="M9.479 48.144h6.659v-8.066H9.479z"/><path fill="#CC1F33" mask="url(#d)" d="M7.472 48.544h10.672v-5.8H7.472zm15.278-.4h6.658v-8.066H22.75z"/><path fill="#CC1F33" mask="url(#d)" d="M20.743 48.544h10.672v-5.8H20.743zm15.277-.4h6.66v-8.066h-6.66z"/><path fill="#CC1F33" mask="url(#d)" d="M34.015 48.544h10.672v-5.8H34.015zm41.934-.4h6.659v-8.066h-6.66z"/><path fill="#CC1F33" mask="url(#d)" d="M73.942 48.544h10.671v-5.8H73.942zm15.278-.4h6.659v-8.066H89.22z"/><path fill="#CC1F33" mask="url(#d)" d="M87.213 48.544h10.672v-5.8H87.213zm15.278-.4h6.66v-8.066h-6.66z"/><path fill="#CC1F33" mask="url(#d)" d="M100.484 48.544h10.672v-5.8h-10.672zm-53.469.686h23.936V37.59H47.015z"/><path d="M68.935 67.294H49.499v-9.741c0-5.332 4.351-9.654 9.718-9.654s9.718 4.322 9.718 9.654v9.741z" fill="#73181A" mask="url(#d)"/><path d="M74.32 37.932H43.568l5.529-8.325a51.736 51.736 0 0 0 19.694 0l5.529 8.325" fill="#CC1F33" mask="url(#d)"/><path d="M102.332 52.448c-.596 0-1.08.48-1.08 1.073v8.044c0 .593.484 1.073 1.08 1.073.596 0 1.08-.48 1.08-1.073v-8.044c0-.593-.484-1.073-1.08-1.073m-9.718 0c-.596 0-1.08.48-1.08 1.073v8.044c0 .593.484 1.073 1.08 1.073.596 0 1.08-.48 1.08-1.073v-8.044c0-.593-.484-1.073-1.08-1.073m-9.718 0c-.596 0-1.08.48-1.08 1.073v8.044c0 .593.484 1.073 1.08 1.073.596 0 1.08-.48 1.08-1.073v-8.044c0-.593-.484-1.073-1.08-1.073m-47.164 0c-.596 0-1.08.48-1.08 1.073v8.044c0 .593.484 1.073 1.08 1.073.596 0 1.08-.48 1.08-1.073v-8.044c0-.593-.484-1.073-1.08-1.073m-9.717 0c-.596 0-1.08.48-1.08 1.073v8.044c0 .593.484 1.073 1.08 1.073.596 0 1.08-.48 1.08-1.073v-8.044c0-.593-.484-1.073-1.08-1.073m-9.718 0c-.597 0-1.08.48-1.08 1.073v8.044c0 .593.483 1.073 1.08 1.073.596 0 1.079-.48 1.079-1.073v-8.044c0-.593-.483-1.073-1.079-1.073" fill="#73181A" mask="url(#d)"/></g></svg>