<svg width="131" height="123" viewBox="0 0 131 123" xmlns="http://www.w3.org/2000/svg" xmlns:xlink="http://www.w3.org/1999/xlink"><defs><path id="a" d="M0 .204h51.918v16.29H0z"/><path id="c" d="M.24.35h13.103V30H.241z"/><path id="e" d="M.418.44h.65v2.755h-.65z"/><path id="g" d="M0 99.56h130.707V.5H0z"/></defs><g transform="translate(0 5)" fill="none" fill-rule="evenodd"><path d="M15.203 41.065l38.355 3.715 2.845 13.235s1.395 9.21 1.82 11.615c.215 1.195 2.5 25.73 2.325 25.67-10.685-3.735-15.875-21.865-15.875-21.865L32.278 68.9s-2.105-7.545-6.31-10-9.91-2.12-9.91-2.12S-.062 36.495.008 36.025c3.05 2.445 13.725 4.28 15.195 5.04" fill="#C8C8BE"/><path fill="#F0E6D2" d="M44.668 73.43l10.115-6.595-3.01-5.015zm-28.6-16.65l8.66-13.285-3.08-1.055zM32.273 68.9l14.13-24.22 4.37 2.715s-16.305 20.49-18.5 21.505"/><g transform="translate(0 32.56)"><mask id="b" fill="#fff"><use xlink:href="#a"/></mask><path d="M.008 3.465c.23-.315 3.175 1.62 3.175.95 0-.67-2.195-1.805-2.53-2.46 1 0 4.085 1.395 4.245.705.16-.69-3.61-1.665-3.325-2.42.145-.385 7.88 2.37 27.945 5.875 8.77 1.53 19.79 2.075 22.4 2.14l-2.92 8.235c-4.9 0-19.25.53-44.65-9.615-2.74-1.095-4.48-3.22-4.34-3.41" fill="#828278" mask="url(#b)"/></g><path d="M116.008 41.065l-38.35 3.715-2.845 13.235s2.035 18.38 1.61 20.785c-.215 1.195-4.095 15.185-3.92 15.175 15.46-1 14.315-21.115 14.315-21.115l12.12-3.96s2.1-7.545 6.31-10c4.21-2.455 9.895-2.1 9.895-2.1s15.63-20.285 15.555-20.755c-3.04 2.425-13.22 4.26-14.69 5.02" fill="#C8C8BE"/><path fill="#F0E6D2" d="M115.143 56.78l-8.665-13.285 3.08-1.055zM98.938 68.9L84.803 44.68l-4.365 2.715s16.305 20.49 18.5 21.505"/><path d="M130.698 36.025c-.225-.315-3.17 1.62-3.17.95 0-.67 2.19-1.805 2.53-2.46-1 0-4.085 1.395-4.245.705-.16-.69 3.61-1.665 3.325-2.42-.15-.385-7.386 2.37-27.446 5.875-8.769 1.53-19.789 2.075-22.4 2.14l2.92 8.235c4.901 0 18.75.53 44.151-9.615 2.74-1.095 4.48-3.22 4.335-3.41" fill="#828278"/><path fill="#F0E6D2" d="M86.818 72.86l-8.51-8.665-2.645 5.285z"/><g transform="translate(49.5 69.56)"><mask id="d" fill="#fff"><use xlink:href="#c"/></mask><path d="M10.178 7.72L.243.35c-.13 4 4.905 17 7.645 21.46.86 1.38 3.705 4.67 3.705 4.67s-.305 1.615-.665 3.375l.785.145c.6-3.5 1.63-7.705 1.63-7.705S10.378 9.305 10.178 7.72" fill="#3C3C32" mask="url(#d)"/></g><path d="M79.228 85.99c-.085-1.68-1.765-10.34-2.545-11.855l-9.705 5.875c.23.26 3.565 3.55 3.815 3.795h.045c1.635 1.435 1.895 3.375.895 5.25-1.185 2.24-4.62 3.435-4.62 3.435l-.145 5.87c.184.03.371.03.555 0 .177-.967.286-1.947.325-2.93 0 0 8.16-.55 10.74-5.115.54-.965.7-3.09.64-4.325" fill="#3C3C32"/><path d="M51.198 3.4l-.365-.145c-.025-.18-.035-.34-.06-.5-.085-.46-.165-.925-.26-1.39a.65.65 0 0 1 .075-.655c.27 0 .34.06.38.265.075.37.135.745.19 1.125.045.305.08.61.105.92a2.27 2.27 0 0 1-.065.38m-.64.625l-.39-.055c-.06-.17-.105-.325-.17-.5-.185-.435-.365-.87-.56-1.295-.155-.33-.165-.325-.075-.66.27-.035.345 0 .43.17.155.35.295.705.435 1.06.14.355.215.575.31.87.02.135.027.273.02.41m1.07-.345l.355-.16c0-.18 0-.345.035-.5.06-.465.12-.935.195-1.4.055-.355.07-.35-.105-.65-.275.035-.34.075-.37.28-.055.375-.095.755-.135 1.135a14.2 14.2 0 0 0-.06.92c.012.128.04.254.085.375" fill="#64645A"/><path d="M51.358 51.25s-3.6-12.605-4.38-19c-.645-5.26-.535-10.535-.3-15.815.15-3.4.5-12.645 4.555-14 5.095 1.4 7.5 14.765 8.315 18.935 1.055 5.45 3.25 19.42 3.59 24.93-2.4 1.475-11.78 4.95-11.78 4.95" fill="#64645A"/><path d="M51.863 42.48s-2.22-12.41-2.5-22.33c-.175-6.845.875-11.56 1.895-11.86 2.5-.735 4.735 10 5.26 12.705.685 3.545 2.32 14.965 2.54 18.55-1.54.95-7.195 2.935-7.195 2.935" fill="#3C3C32"/><g transform="translate(76 .06)"><mask id="f" fill="#fff"><use xlink:href="#e"/></mask><path d="M.743 3.195l-.325-.22c0-.18.044-.34.055-.5 0-.47.05-.94.06-1.41 0-.36 0-.36.22-.625.265.085.32.135.314.345 0 .38-.04.76-.07 1.14-.03.38-.06.61-.104.915a1.943 1.943 0 0 1-.15.355" fill="#64645A" mask="url(#f)"/></g><path d="M75.978 3.72l-.365-.14c0-.18-.03-.345-.06-.5a43.9 43.9 0 0 0-.255-1.39.659.659 0 0 1 .075-.66c.275 0 .345.06.38.265.075.375.135.75.19 1.125.055.375.08.615.1.92a1.532 1.532 0 0 1-.065.38m1.12-.1l.385-.075c.055-.175.095-.33.15-.5.165-.44.325-.88.5-1.32a.656.656 0 0 0 .04-.66c-.27 0-.345 0-.42.19-.14.355-.265.715-.385 1.075s-.19.59-.27.885c-.014.134-.014.27 0 .405" fill="#64645A"/><path d="M81.603 57.575c-1.97-3.325-12.72-11.77-13.36-12.595-.735-5.23 1.09-43.185 8-42.615 5.86.5 5.665 11.635 6.16 15.58.705 5.67.035 32.885-.8 39.63" fill="#64645A"/><path d="M78.518 49.08c.785-10.175 1.545-22.79 1.44-26.34-.11-3.775-.93-17.445-3.89-14.86-2.96 2.585-4.135 30.9-4.835 40.275l7.285.925z" fill="#3C3C32"/><path d="M84.648 48.68c-.395-4.39-2.335-9.31-5.58-12.395-4-3.77-9.34-5.788-14.835-5.605-8.24.195-11.045 1.875-15.24 7.94-3.86 5.59-2.61 15-2.215 21.425.42 6.85 3.86 16.03 9.71 20.035 6.11 4.185 15 4.835 20.61-.46 5.055-4.79 8.46-21.015 7.55-30.94" fill="#64645A"/><path d="M58.558 53.605c.05-.205 0-.385.8-.47 2.45-.255 7.45-.115 9.2-.16 1.75-.045 3.695.245 3.675.755-.02.51-.6.845-1.63.86-1.89.03-3.78.025-5.665 0a92.8 92.8 0 0 1-4.575-.13c-.48-.02-2.005-.01-1.805-.855" fill="#000"/><path d="M60.523 52.335s1.315 2.785 1.685 2.8c.37.015 1.72-2.8 1.72-2.8h-3.405zm6.355.5s1.315 2.785 1.69 2.8c.375.015 1.72-2.8 1.72-2.8h-3.41z" fill="#FFF"/><mask id="h" fill="#fff"><use xlink:href="#g"/></mask><path fill="#64645A" mask="url(#h)" d="M56.978 53.04h17.165v-1.545H56.978z"/><path d="M72.118 43.525c-.965-2.54-2.535-2.43-5-2.755-2.415.125-5.655-.18-7.69 1.38-2.035 1.56-2.5 5-.5 6.655 2.35 1.965 9.735 2.68 12.5-.185 1.014-1.055 1.4-3.245.69-5.095" fill="#F01446" mask="url(#h)"/><path d="M69.498 43.21c1.31-.09 1.37 1.66 1.31 2.44-.06.78-.095 2.155-1.25 2.03s-1.35-1.35-1.28-2.06c.07-.71-.095-2.315 1.22-2.41m-8.815 0c1.315-.09 1.375 1.66 1.315 2.44-.06.78-.095 2.155-1.25 2.03s-1.35-1.35-1.285-2.06c.065-.71-.095-2.315 1.22-2.41" fill="#6E1E3C" mask="url(#h)"/><path d="M52.003 46.06a.545.545 0 0 1-.535-.5 5.433 5.433 0 0 1-.095-1.335c.03-.44.415-.61.81-.76.297.47.372 1.045.205 1.575-.05.38-.02.805-.385 1.02m26.625.15c-.68-.275-.59-.87-.57-1.425 0-.64.08-.71.69-.97a1.555 1.555 0 0 1-.12 2.395" fill="#000" mask="url(#h)"/></g></svg>