<svg width="120" height="120" viewBox="0 0 120 120" xmlns="http://www.w3.org/2000/svg" xmlns:xlink="http://www.w3.org/1999/xlink"><defs><path id="a" d="M0 0h120v120H0z"/><path id="c" d="M0 .917h110.212V111H0z"/></defs><g fill="none" fill-rule="evenodd"><mask id="b" fill="#fff"><use xlink:href="#a"/></mask><path d="M81.797 118.125c-10.898 2.5-32.695 2.5-43.594 0C18.648 113.64 6.32 101.361 1.875 81.797c-2.512-11.056-2.488-32.851 0-43.594C6.402 18.657 18.66 6.415 38.203 1.875c10.693-2.484 32.487-2.516 43.594 0 19.567 4.433 31.675 16.812 36.328 36.328 2.452 10.285 2.548 32.058 0 43.594-4.327 19.591-16.773 31.843-36.328 36.328" fill="#FBC02D" mask="url(#b)"/><g transform="translate(0 9)"><mask id="d" fill="#fff"><use xlink:href="#c"/></mask><path d="M91.64 99.281c-10.898 2.5-32.695 2.5-43.594 0-19.555-4.485-31.883-16.764-36.328-36.328-2.512-11.056-2.488-32.85 0-43.594 1.651-7.13 4.343-13.275 8.03-18.442C10.753 7.337 4.75 16.791 1.874 29.203c-2.487 10.743-2.51 32.538 0 43.594 4.445 19.564 16.773 31.842 36.328 36.328 10.9 2.5 32.696 2.5 43.594 0 12.441-2.854 21.99-8.863 28.416-17.892-5.207 3.707-11.407 6.404-18.572 8.048" fill="#E8AD28" mask="url(#d)"/></g><path d="M69.243 99.66c5.023-4.146 13.131-15.014 16.118-21.87 2.774-6.369-1.102-11.926-9.407-13.138-7.963-1.162-24.074-1.245-32.236 0-8.293 1.265-11.34 6.573-9.408 13.137 1.575 5.35 8.476 16.352 16.119 21.871 6.172 4.458 13.027 4.776 18.814 0m0-79.32c5.023 4.146 13.131 15.014 16.118 21.87 2.774 6.369-1.102 11.926-9.407 13.138-7.963 1.162-24.074 1.245-32.236 0-8.293-1.265-11.34-6.573-9.408-13.137 1.575-5.35 8.476-16.352 16.119-21.871 6.172-4.458 13.027-4.776 18.814 0" fill="#FFF"/></g></svg>