<svg width="100" height="100" viewBox="0 0 100 100" xmlns="http://www.w3.org/2000/svg" xmlns:xlink="http://www.w3.org/1999/xlink"><defs><path id="a" d="M.195.19h6.723v6.749H.195V.189z"/></defs><g fill="none" fill-rule="evenodd"><path d="M20.956 55.688a2.723 2.723 0 0 0-1.25 2.265 16.99 16.99 0 0 0 2.433 8.93 16.991 16.991 0 0 0 6.75 6.333l.85.44a2.726 2.726 0 0 0 2.506-4.841l-.849-.44a11.542 11.542 0 0 1-6.238-10.369 2.726 2.726 0 0 0-4.202-2.318m25.007 38.017a3.114 3.114 0 0 1-2.656-3.514l1.5-10.798 6.17.858-1.5 10.798a3.115 3.115 0 0 1-3.514 2.656m16.258.375a3.115 3.115 0 0 1-2.656-3.514l1.5-10.798 6.171.857-1.5 10.799a3.115 3.115 0 0 1-3.515 2.656" fill="#33ADDC"/><path d="M82.824 72.505l.695-30.221c.159-6.88-5.29-12.585-12.17-12.743l-30.22-.695c-6.88-.159-12.585 5.29-12.743 12.17l-.695 30.22c-.159 6.88 5.29 12.585 12.17 12.743l30.22.695c6.88.159 12.585-5.29 12.743-12.17" fill="#33ADDC"/><path d="M82.824 72.505l.695-30.221c.159-6.88-5.29-12.585-12.17-12.743l-30.22-.695c-6.88-.159-12.585 5.29-12.743 12.17l-.695 30.22c-.159 6.88 5.29 12.585 12.17 12.743l30.22.695c6.88.159 12.585-5.29 12.743-12.17" fill="#33ADDC"/><path d="M39.986 78.53a7.016 7.016 0 0 1-6.846-7.168l.695-30.221a7.017 7.017 0 0 1 7.168-6.846l30.221.695a7.017 7.017 0 0 1 6.846 7.168l-.695 30.221a7.016 7.016 0 0 1-7.168 6.846l-30.221-.696z" fill="#FFF"/><path d="M42.914 62.291a9.563 9.563 0 0 0-9.34-9.78l-.44 19.121a9.564 9.564 0 0 0 9.78-9.34" fill="#EF92B7"/><path d="M35.915 49.9c.055-2.407 1.873-4.319 4.06-4.268 2.187.05 3.915 2.043 3.86 4.45" stroke="#514740" stroke-width="2.4" stroke-linecap="round"/><path d="M55.26 65.76c-4.841-.11-8.69-4.14-8.578-8.982.111-4.841 4.14-8.69 8.983-8.578 4.84.11 8.69 4.14 8.578 8.982-.111 4.842-4.14 8.69-8.983 8.579" fill="#6D6D6D"/><path d="M60.015 57.085a4.553 4.553 0 1 1-9.104-.21 4.553 4.553 0 0 1 9.104.21" fill="#27221F"/><path d="M62.598 62.743c.19-8.279 7.056-14.836 15.335-14.646" fill="#FFF"/><path d="M68.027 62.868a9.564 9.564 0 0 1 9.781-9.341l-.44 19.122a9.564 9.564 0 0 1-9.34-9.781" fill="#EF92B7"/><path d="M67.854 50.635c.055-2.408 1.873-4.32 4.06-4.269 2.187.05 3.916 2.043 3.86 4.451" stroke="#514740" stroke-width="2.4" stroke-linecap="round"/><path d="M51.54 61.594l-2.4-.056a.3.3 0 0 1-.294-.307.3.3 0 0 0-.293-.306l-1.2-.028a.3.3 0 0 0-.306.293l-.004.166a.3.3 0 0 1-.157.255.892.892 0 0 0-.467.764l-.02.902a.894.894 0 0 0 .43.784.298.298 0 0 1 .145.262l-.003.166a.3.3 0 0 0 .293.307l1.2.028a.3.3 0 0 0 .306-.293.3.3 0 0 1 .307-.293l2.4.055a1.199 1.199 0 0 0 1.227-1.171l.007-.302a1.199 1.199 0 0 0-1.171-1.226" fill="#DC403E"/><path d="M45.164 74.65l-26.25-.605a2.472 2.472 0 0 1-2.413-2.528l.273-11.853a2.472 2.472 0 0 1 2.528-2.414l26.25.605a2.472 2.472 0 0 1 2.414 2.528l-.273 11.853a2.472 2.472 0 0 1-2.529 2.414" fill="#8CC63F"/><path d="M22.194 72.02l-2.106-.048a.597.597 0 0 1-.583-.61l.256-11.104a.597.597 0 0 1 .61-.583l2.106.049c.33.007.59.28.583.61l-.256 11.103a.597.597 0 0 1-.61.583m3.598.083l-2.105-.048a.597.597 0 0 1-.583-.61l.256-11.104c.008-.33.28-.59.61-.583l2.106.049c.33.007.59.28.583.61l-.256 11.103a.597.597 0 0 1-.61.583m3.599.083l-2.106-.048a.597.597 0 0 1-.583-.611l.256-11.103a.597.597 0 0 1 .61-.583l2.106.049c.33.007.59.28.583.61l-.256 11.103a.598.598 0 0 1-.61.583m3.598.084l-2.105-.05a.597.597 0 0 1-.583-.61l.256-11.103a.597.597 0 0 1 .61-.583l2.106.049c.33.007.59.28.583.61l-.256 11.103a.597.597 0 0 1-.61.583m3.599.083l-2.106-.048a.597.597 0 0 1-.583-.61l.256-11.104a.597.597 0 0 1 .61-.583l2.106.049c.33.007.59.28.583.61L37.2 71.769a.597.597 0 0 1-.61.583m3.599.083l-2.106-.048a.597.597 0 0 1-.583-.611l.256-11.103a.597.597 0 0 1 .61-.583l2.106.048c.33.008.59.281.583.61L40.8 71.853a.597.597 0 0 1-.61.583m3.598.082l-2.106-.049a.598.598 0 0 1-.583-.61l.256-11.103a.597.597 0 0 1 .61-.583l2.106.048c.33.008.591.281.583.61l-.256 11.104a.597.597 0 0 1-.61.583" fill="#FFF"/><path d="M41.933 66.174l-1.704-.04a.541.541 0 0 1-.53-.554l.127-5.514a.542.542 0 0 1 .555-.53l1.704.04c.3.006.536.254.53.554l-.128 5.514a.543.543 0 0 1-.554.53m-17.996-.415l-1.703-.04a.542.542 0 0 1-.53-.554l.127-5.514a.542.542 0 0 1 .555-.53l1.703.04c.3.006.537.255.53.554l-.127 5.514a.543.543 0 0 1-.555.53m3.599.083l-1.703-.04a.542.542 0 0 1-.53-.554l.127-5.514a.542.542 0 0 1 .555-.53l1.704.04a.543.543 0 0 1 .53.554l-.128 5.514a.543.543 0 0 1-.555.53m7.198.166l-1.703-.04a.542.542 0 0 1-.53-.554l.127-5.514a.542.542 0 0 1 .555-.53l1.704.04a.54.54 0 0 1 .529.554l-.127 5.514a.542.542 0 0 1-.555.53m3.6.082l-1.704-.039a.542.542 0 0 1-.53-.554l.127-5.514a.543.543 0 0 1 .555-.53l1.704.04c.3.006.536.254.53.554l-.128 5.514a.542.542 0 0 1-.554.53" fill="#27221F"/><path d="M25.727 57.13c-.023.994-1.25 1.771-2.741 1.737-1.49-.034-2.68-.868-2.658-1.862.023-.994 1.25-1.771 2.741-1.737 1.49.034 2.68.868 2.658 1.862" fill="#33ADDC"/><path d="M49.04 27.316l-.001-.005c-.368-1.134-.501-2.31-.348-3.46.388-2.925 1.769-5.67 3.997-7.886l5.732-5.7 1.084.91c4.538 3.81 7.69 8.636 9.066 13.853.23.876.274 1.775.153 2.654l-19.683-.366z" fill="#DC403E"/><path d="M69.201 29.51l-19.977-.371c-.904-.017-1.655-.659-1.676-1.434-.02-.774.696-1.389 1.601-1.372l19.977.372c.905.017 1.655.659 1.676 1.433.02.775-.696 1.39-1.6 1.372" fill="#B0D649"/><g transform="translate(55.5 5.91)"><mask id="b" fill="#fff"><use xlink:href="#a"/></mask><path d="M6.377 5.83c-1.01 1.381-3.092 1.486-4.65.235C.17 4.813-.272 2.68.737 1.299c1.01-1.382 3.091-1.487 4.649-.235 1.557 1.251 2.001 3.385.992 4.766" fill="#FFF" mask="url(#b)"/></g><path d="M60.938 71.51c.05.884.528 1.727 1.35 2.206a16.992 16.992 0 0 0 8.964 2.307 16.99 16.99 0 0 0 8.843-2.732l.802-.52a2.726 2.726 0 0 0-2.965-4.574l-.803.52a11.54 11.54 0 0 1-12.097.29 2.726 2.726 0 0 0-4.094 2.503" fill="#33ADDC"/></g></svg>