<svg width="120" height="120" viewBox="0 0 120 120" xmlns="http://www.w3.org/2000/svg" xmlns:xlink="http://www.w3.org/1999/xlink"><defs><path id="a" d="M.36 0h70.402v120H.36z"/><path id="c" d="M0 0h104.724v120H0z"/></defs><g fill="none" fill-rule="evenodd"><g transform="translate(51)"><mask id="b" fill="#fff"><use xlink:href="#a"/></mask><path d="M.36 0v120h18.042c28.916 0 52.36-26.862 52.36-60 0-33.136-23.444-60-52.36-60H.36z" fill="#FCAE04" mask="url(#b)"/></g><g transform="translate(-1)"><mask id="d" fill="#fff"><use xlink:href="#c"/></mask><path d="M52.36 0C23.445 0 0 26.863 0 60c0 33.138 23.445 60 52.36 60 28.92 0 52.364-26.862 52.364-60 0-33.136-23.445-60-52.364-60" fill="#FCDA04" mask="url(#d)"/></g><path d="M51.36 12.026C73.602 12.026 91.7 33.548 91.7 60c0 26.454-18.098 47.973-40.34 47.973-22.238 0-40.335-21.52-40.335-47.973 0-26.452 18.097-47.974 40.335-47.974" fill="#FCAE04"/><path fill="#FCDA04" d="M51.36 29.416l8.161 18.945 18.245 3.038-13.203 14.746 3.116 20.82-16.319-9.83-16.315 9.83 3.116-20.82-13.203-14.746 18.245-3.038z"/></g></svg>