<svg width="120" height="120" viewBox="0 0 120 120" xmlns="http://www.w3.org/2000/svg" xmlns:xlink="http://www.w3.org/1999/xlink"><defs><path id="a" d="M.453.042h6.29v41.686H.454z"/><path id="c" d="M0 .333h33.725v24.83H0z"/><path id="e" d="M.134.042h6.291v41.686H.134z"/><path id="g" d="M.082.333h33.725v24.83H.082z"/></defs><g fill="none" fill-rule="evenodd"><path d="M99.77 94.667c-.481 0-.94.098-1.358.272a4.035 4.035 0 0 0-3.969-3.33c-1.201 0-2.278.53-3.016 1.366a3.334 3.334 0 0 0-4.194 3.777 2.245 2.245 0 0 0-2.655 1.957h18.682a3.53 3.53 0 0 0-3.49-4.043m-54.87.001c-.482 0-.94.098-1.36.272a4.035 4.035 0 0 0-3.968-3.33c-1.201 0-2.278.53-3.016 1.366a3.334 3.334 0 0 0-4.195 3.777 2.245 2.245 0 0 0-2.654 1.957H48.39a3.53 3.53 0 0 0-3.49-4.043" fill="#4A9C11"/><path d="M34.269 54.47v-.548a.434.434 0 0 0-.46-.434c-.014 0-.029-.002-.043 0a.433.433 0 0 0-.418.42l-.02.754-5.698 44.676a.439.439 0 0 0 .112.334.43.43 0 0 0 .32.142h11.492a.434.434 0 0 0 .432-.476l-5.717-44.869z" fill="#5F6062"/><path d="M36.471 54.085a2.666 2.666 0 0 1-2.663 2.669 2.666 2.666 0 0 1-2.663-2.67 2.666 2.666 0 0 1 2.663-2.667 2.666 2.666 0 0 1 2.663 2.668" fill="#5F6062"/><g transform="translate(30.236 12.431)"><mask id="b" fill="#fff"><use xlink:href="#a"/></mask><path d="M6.315 13.88C5.541 6.063 3.978.436 3.963.38 3.905.177 3.76.042 3.599.042c-.162 0-.307.135-.365.338C3.22.436 1.655 6.063.882 13.88c-.717 7.228-.888 17.874 2.362 27.541.064.187.202.307.355.307.152 0 .29-.12.354-.307 3.249-9.667 3.079-20.313 2.362-27.541" fill="#515254" mask="url(#b)"/></g><g transform="translate(0 53.62)"><mask id="d" fill="#fff"><use xlink:href="#c"/></mask><path d="M9.613 14.677C3.767 19.91.152 24.492.116 24.537c-.13.167-.154.363-.058.493.096.132.29.17.487.096.053-.02 5.513-2.07 12.27-6.05 6.25-3.68 14.934-9.815 20.812-18.143.115-.16.13-.343.039-.468-.09-.123-.269-.165-.456-.106C23.5 3.425 15.018 9.837 9.613 14.677" fill="#515254" mask="url(#d)"/></g><path d="M58.056 68.296c5.846 5.234 9.46 9.816 9.498 9.86.129.168.152.364.058.494-.096.132-.291.17-.487.096-.055-.02-5.512-2.07-12.27-6.05-6.251-3.68-14.935-9.816-20.813-18.143-.113-.16-.13-.344-.04-.468.092-.123.27-.165.457-.106 9.709 3.066 18.192 9.478 23.597 14.317" fill="#515254"/><path d="M86.39 54.47v-.548a.433.433 0 0 0-.46-.434c-.013 0-.028-.002-.042 0a.434.434 0 0 0-.418.42l-.02.754-5.698 44.676a.439.439 0 0 0 .112.334.43.43 0 0 0 .32.142h11.492a.434.434 0 0 0 .432-.476L86.39 54.469z" fill="#5F6062"/><path d="M88.593 54.085a2.666 2.666 0 0 1-2.662 2.669 2.666 2.666 0 0 1-2.664-2.67 2.665 2.665 0 0 1 2.664-2.667 2.666 2.666 0 0 1 2.662 2.668" fill="#5F6062"/><g transform="translate(82.677 12.431)"><mask id="f" fill="#fff"><use xlink:href="#e"/></mask><path d="M5.996 13.88C5.223 6.063 3.66.436 3.644.38 3.586.177 3.441.042 3.28.042c-.162 0-.307.135-.364.338C2.9.436 1.336 6.063.563 13.88c-.717 7.228-.888 17.874 2.362 27.541.064.187.202.307.355.307.152 0 .29-.12.355-.307 3.248-9.667 3.078-20.313 2.361-27.541" fill="#515254" mask="url(#f)"/></g><path d="M61.735 68.296c-5.846 5.234-9.46 9.816-9.497 9.86-.13.168-.153.364-.058.494.096.132.29.17.487.096.054-.02 5.513-2.07 12.27-6.05 6.25-3.68 14.934-9.816 20.812-18.143.114-.16.13-.344.04-.468-.09-.123-.27-.165-.457-.106-9.709 3.066-18.192 9.478-23.597 14.317" fill="#515254"/><g transform="translate(85.984 53.62)"><mask id="h" fill="#fff"><use xlink:href="#g"/></mask><path d="M24.194 14.677c5.846 5.233 9.46 9.815 9.498 9.86.129.167.152.363.058.493-.096.132-.291.17-.487.096-.055-.02-5.512-2.07-12.27-6.05C14.741 15.396 6.057 9.261.178.933.067.773.05.59.14.465.231.342.41.3.597.36c9.709 3.066 18.191 9.478 23.597 14.318" fill="#515254" mask="url(#h)"/></g><path fill="#88B737" d="M0 104.97h120V98H0z"/><path fill="#E0E0E0" d="M0 109.958h120v-4.987H0z"/><path d="M89.563 94.906c-.732 0-1.43.148-2.067.415-.511-2.878-3.019-5.066-6.038-5.066a6.108 6.108 0 0 0-4.589 2.077 5.035 5.035 0 0 0-1.39-.196 5.072 5.072 0 0 0-4.992 5.943 3.416 3.416 0 0 0-4.038 2.978h28.422a5.37 5.37 0 0 0-5.308-6.15m-59.609.256c-.481 0-.94.098-1.358.273a4.036 4.036 0 0 0-3.97-3.33c-1.2 0-2.277.53-3.015 1.365a3.334 3.334 0 0 0-4.195 3.778 2.245 2.245 0 0 0-2.654 1.957h18.682a3.53 3.53 0 0 0-3.49-4.043" fill="#88B737"/><path d="M69.208 95.163c-.482 0-.94.098-1.36.273a4.035 4.035 0 0 0-3.968-3.33c-1.201 0-2.277.53-3.016 1.365a3.334 3.334 0 0 0-4.195 3.778 2.245 2.245 0 0 0-2.654 1.957h18.682a3.53 3.53 0 0 0-3.49-4.043" fill="#88B737"/></g></svg>