<svg width="120" height="120" viewBox="0 0 120 120" xmlns="http://www.w3.org/2000/svg" xmlns:xlink="http://www.w3.org/1999/xlink"><defs><path id="a" d="M0 .19h44.752v74.967H0z"/><path id="c" d="M.11.096h1.93V81.42H.11z"/><path id="e" d="M.184.186h1.855v21.358H.184z"/><path id="g" d="M.164.223h12.79v5.94H.163z"/></defs><g fill="none" fill-rule="evenodd"><path fill="#FCFCFC" d="M79.42 9.134h1.67V.25h-1.67z"/><path fill="#FFFDFD" d="M79.42.25v8.884h.681L80.095.25z"/><g transform="translate(31 44.744)"><mask id="b" fill="#fff"><use xlink:href="#a"/></mask><path d="M1.728 67.494c.127 1.668-1.184 3.408-.991 4.924.126.992.782 1.873 1.35 2.739h42.665V.19H18.024c-.773 0-1.483.426-1.836 1.111a153.346 153.346 0 0 0-3.773 7.839h-.008c-.105.237-.243.556-.393.905-.196.45-.388.903-.579 1.356-.233.549-.436 1.033-.532 1.266-.264.645-2.443 2.153-2.679 2.806-.237.658-.053 4.325-.254 4.987-.475 1.566-2.345 2.692-2.76 4.2-.436 1.58.598 3.5.225 5.017-.391 1.594-2.197 2.822-2.523 4.346-.344 1.607.803 3.462.527 4.994-.292 1.62-2.013 2.961-2.236 4.5-.235 1.633 1.04 3.404.876 4.948-.173 1.643-1.787 3.11-1.886 4.655-.107 1.653 1.31 3.313 1.278 4.858-.034 1.66-1.511 3.262-1.47 4.802.044 1.664 1.61 3.184 1.727 4.714" fill="#DDDDDF" mask="url(#b)"/></g><path d="M32.728 112.239c.127 1.667-1.184 3.407-.991 4.923.126.992.782 1.873 1.35 2.74h2.932c-.568-.867-1.224-1.748-1.35-2.74-.194-1.516 1.118-3.256.991-4.923-.117-1.53-1.683-3.05-1.728-4.714-.04-1.54 1.437-3.143 1.47-4.802.032-1.545-1.384-3.205-1.278-4.858.1-1.545 1.713-3.012 1.887-4.654.163-1.544-1.112-3.316-.876-4.949.222-1.539 1.943-2.88 2.235-4.5.277-1.532-.87-3.386-.526-4.993.326-1.525 2.131-2.753 2.523-4.347.373-1.516-.661-3.437-.226-5.017.415-1.507 2.286-2.633 2.76-4.2.202-.662.017-4.329.255-4.986.236-.653 2.414-2.161 2.679-2.806.095-.234.299-.718.532-1.266.19-.454.382-.906.579-1.357.15-.349.288-.668.392-.905h.009a152.877 152.877 0 0 1 3.773-7.838 2.061 2.061 0 0 1 1.835-1.112h-2.931a2.06 2.06 0 0 0-1.836 1.112 153.346 153.346 0 0 0-3.773 7.838h-.008c-.105.237-.243.556-.393.905-.196.45-.388.903-.579 1.357-.233.548-.436 1.032-.532 1.266-.264.645-2.443 2.153-2.679 2.806-.237.657-.053 4.324-.254 4.986-.475 1.567-2.345 2.693-2.76 4.2-.436 1.58.598 3.5.225 5.017-.391 1.594-2.197 2.822-2.523 4.347-.344 1.607.803 3.461.527 4.993-.292 1.62-2.013 2.961-2.236 4.5-.235 1.633 1.04 3.405.876 4.949-.173 1.642-1.787 3.11-1.886 4.654-.107 1.653 1.31 3.313 1.278 4.858-.034 1.66-1.511 3.262-1.47 4.802.044 1.664 1.61 3.184 1.727 4.714" fill="#DDDDDF"/><path d="M49.54 119.901c-1.394-12.125-1.96-31.7 3.343-55.893 2.086-9.516 5.073-18.082 8.337-25.554C70.342 17.572 81.648 5.307 81.648 5.307s-25.739 23.164-36.56 58.516c-6.928 22.637-5.444 43.253-3.168 56.078h7.62z" fill="#DDDDDF"/><path d="M51.777 119.901c-1.492-12.365-2.205-32.404 3.147-56.819C62.84 26.972 81.648 5.307 81.648 5.307S70.342 17.572 61.22 38.454c-3.264 7.472-6.25 16.038-8.337 25.554-5.304 24.193-4.737 43.768-3.343 55.893h2.237z" fill="#DDDDDF"/><path d="M78.245 13.393v25.184H66.173s5.824-18.95 12.072-25.184zm3.403 106.508V5.307S62.84 26.973 54.924 63.083c-5.352 24.414-4.639 44.452-3.147 56.818h29.87z" fill="#DDDDDF"/><g transform="translate(81.464 38.481)"><mask id="d" fill="#fff"><use xlink:href="#c"/></mask><path d="M2.04 81.42V1.03a.935.935 0 0 0-.936-.934h-.92V79.47c0 .65-.028 1.3-.074 1.949h1.93z" fill="#8F8F8E" mask="url(#d)"/></g><path d="M77.109 66.54h6.394V45.18H77.11z"/><g transform="translate(81.464 44.995)"><mask id="f" fill="#fff"><use xlink:href="#e"/></mask><path mask="url(#f)" d="M.184.186v21.358h1.855V.186"/></g><g transform="translate(76.945 41.989)"><mask id="h" fill="#fff"><use xlink:href="#g"/></mask><path d="M7.564.223c-4.087 0-7.4 1.33-7.4 2.97 0 1.64 3.313 2.97 7.4 2.97 2.127 0 4.04-.363 5.39-.94V4.168c-1.077.541-2.94 1.03-5.39 1.03-3.991 0-6.435-1.298-6.435-2.006 0-.707 2.444-2.006 6.435-2.006 2.45 0 4.313.49 5.39 1.031V1.162c-1.35-.577-3.263-.94-5.39-.94" fill="#DDDDDF" mask="url(#h)"/></g><path d="M89.335 43.96c-1.112-.434-2.757-.785-4.827-.785-3.99 0-6.434 1.299-6.434 2.006 0 .707 2.443 2.007 6.434 2.007 2.07 0 3.715-.351 4.827-.786V43.96z" fill="#8F8F8E"/><path fill="#DDDDDF" d="M43.047 35.769h13.362v-1.111H43.047zm6.681 0h-6.68l5.706 2.137h1.948l5.707-2.137zm.228 4.861h-.46l-.742-2.724h1.944zm5.947-1.83l-5.455.024.202-.74h5.657zm-6.546 6.135h.742V40.63h-.742z"/><path fill="#DDDDDF" d="M53.873 42.55l-3.726-2.62.22-.812 3.858 2.762z"/><path d="M54.522 57.375h-7.246a118.26 118.26 0 0 0-1.065 2.976h7.53c.25-1.005.512-1.995.78-2.976" fill="#56AEE1"/><path d="M61.22 38.454h-5.122a139.526 139.526 0 0 0-1.821 3.339h5.54a148.73 148.73 0 0 1 1.403-3.34" fill="#8DD0F4"/><path d="M55.592 53.664h-6.879c-.399.979-.785 1.973-1.164 2.975h7.178c.28-1.003.567-1.997.865-2.975" fill="#39BBED"/><path d="M52.883 64.008c.216-.986.448-1.956.682-2.921h-7.592c-.302.906-.602 1.813-.884 2.736-.025.08-.046.16-.07.239h7.853l.01-.054" fill="#8DD0F4"/><path d="M59.524 42.53h-5.63c-.509.975-1.01 1.967-1.505 2.974h5.982c.378-1.008.762-2 1.153-2.975" fill="#39BBED"/><path d="M58.097 46.24H52.03c-.472.978-.935 1.97-1.391 2.976h6.403a138.34 138.34 0 0 1 1.056-2.975" fill="#56AEE1"/><path d="M56.787 49.952h-6.485c-.436.978-.86 1.972-1.277 2.975h6.801a135.3 135.3 0 0 1 .96-2.975m-8.174 55.673h-8.366c.06 1.01.127 2.008.207 2.975h8.244a157.79 157.79 0 0 1-.085-2.975m.604 11.135h-7.81c.155 1.034.318 2.024.486 2.975h7.628c-.107-.947-.209-1.94-.304-2.975" fill="#8DD0F4"/><path d="M48.925 113.048h-8.02c.123 1.025.255 2.015.394 2.975h7.85a146.74 146.74 0 0 1-.224-2.975m-.335-11.134h-8.512c.03 1.012.074 2 .127 2.975h8.398c-.013-.97-.017-1.963-.012-2.975" fill="#39BBED"/><path d="M48.647 98.202h-8.618c0 1.007.01 2 .032 2.975h8.532c.009-.973.027-1.965.054-2.975m4.07-33.404h-7.912c-.295.997-.575 1.988-.838 2.975H52.1a193.2 193.2 0 0 1 .616-2.975" fill="#56AEE1"/><path d="M48.79 94.49h-8.71a124.9 124.9 0 0 0-.051 2.976h8.642c.03-.975.07-1.967.118-2.975" fill="#8DD0F4"/><path d="M48.725 109.337H40.52c.091 1.016.19 2.01.3 2.975h8.055c-.058-.962-.109-1.955-.151-2.975" fill="#56AEE1"/><path d="M49.683 83.356h-8.742c-.124 1-.237 1.993-.333 2.975h8.768c.093-.98.195-1.97.307-2.975m1.592-11.135h-8.404c-.224.998-.433 1.99-.627 2.975h8.539a189.4 189.4 0 0 1 .492-2.975" fill="#8DD0F4"/><path d="M49.004 90.78h-8.747a122.315 122.315 0 0 0-.147 2.974h8.714c.051-.978.11-1.967.18-2.975m1.129-11.135h-8.668c-.157 1-.3 1.992-.428 2.976h8.727c.113-.981.236-1.973.37-2.976m1.825-11.134h-8.185c-.259.997-.503 1.988-.73 2.975h8.36c.175-.983.36-1.975.555-2.975" fill="#39BBED"/><path d="M50.666 75.933h-8.563c-.19.998-.363 1.99-.524 2.975h8.656c.134-.982.278-1.973.431-2.975m-1.359 11.135H40.54c-.093 1.002-.17 1.993-.236 2.975h8.758c.072-.978.155-1.97.246-2.975m2.902 14.109h24.056v-2.975h-24.03c-.018 1.012-.025 2-.025 2.975m3.267-33.404h20.788v-2.975H56.08c-.21 1-.412 1.991-.603 2.975" fill="#56AEE1"/><path d="M56.375 63.4c-.049.222-.091.44-.14.662h20.031v-2.975H56.911c-.181.767-.365 1.531-.536 2.312m-4.12 34.067h24.01V94.49H52.35c-.04 1.007-.073 2-.095 2.975" fill="#8DD0F4"/><path d="M52.25 104.889h24.016v-2.975H52.213c.004 1.011.016 2.005.037 2.975m2.549-33.404h21.467V68.51H55.337c-.19 1-.369 1.991-.538 2.975M53.232 82.62h23.034v-2.976H53.58a178.568 178.568 0 0 0-.349 2.976" fill="#39BBED"/><path d="M53.671 78.908h22.595v-2.975H54.083a179.465 179.465 0 0 0-.412 2.975" fill="#56AEE1"/><path d="M52.38 93.754h23.886V90.78h-23.73a176.187 176.187 0 0 0-.157 2.975" fill="#39BBED"/><path d="M52.583 90.043h23.683v-2.975h-23.46a176.071 176.071 0 0 0-.223 2.975" fill="#56AEE1"/><path d="M52.87 86.331h23.396v-2.975h-23.11c-.105 1.004-.2 1.995-.286 2.975m23.396-47.877H64.215a153.47 153.47 0 0 0-1.329 3.339h13.38v-3.34z" fill="#8DD0F4"/><path d="M57.082 60.35h19.184v-2.975H57.838c-.26.981-.513 1.97-.756 2.976" fill="#56AEE1"/><path d="M54.197 75.196h22.069v-2.975H54.672a169.023 169.023 0 0 0-.475 2.975" fill="#8DD0F4"/><path d="M60.246 49.216h16.02v-2.975H61.252c-.342.976-.677 1.968-1.006 2.975" fill="#56AEE1"/><path d="M59.084 52.927h17.182v-2.975H60.002c-.313.977-.619 1.97-.918 2.975" fill="#8DD0F4"/><path d="M62.607 42.53c-.37.974-.734 1.966-1.093 2.974h14.752V42.53H62.607z" fill="#39BBED"/><path d="M53.278 119.735h22.988v-2.975H52.954c.102 1.035.21 2.03.324 2.975m-.904-11.135h23.892v-2.975h-24c.027 1.018.064 2.006.108 2.975" fill="#8DD0F4"/><path d="M58.027 56.639h18.239v-2.975h-17.4c-.286.98-.568 1.969-.84 2.975" fill="#39BBED"/><path d="M52.582 112.312h23.684v-2.975H52.408c.05 1.02.108 2.012.174 2.975" fill="#56AEE1"/><path d="M52.882 116.023h23.384v-2.975h-23.63c.075 1.025.157 2.02.246 2.975" fill="#39BBED"/></g></svg>