<svg width="165" height="145" viewBox="0 0 165 145" xmlns="http://www.w3.org/2000/svg"><g transform="translate(19 8)" fill="none"><path d="M110.174 75.962c1.518 4.837.26 11.782 3.477 13.364.801-.4 1.158-1.143 1.418-1.83.152-1.78.184-3.247-.32-4.956.076-.12-.053-1.973 1.85-1.945 1.903.028 4.67-.144 6.617-4.062 1.787-3.594 2.003-7.748-.524-11.142-2.224-2.976-5.768-4.865-9.39-3.42-2.78 1.107-4.746 2.773-5.844 5.217-1.518 3.383 1.202 3.942 2.716 8.774z" fill="#DC5050"/><path d="M37.921 89.37a26.43 26.43 0 0 1-1.362 6.453c-1.903 5.468-8.88 12.864-9.693 14.434 3.096 1.358 6.072 3 9.277 4.066 3.837-2.592 7.238-6.019 10.222-9.537 1.602-1.874 3.569-5.5 4.903-7.565.288-.447.753-1.154 1.201-1.949L37.921 89.37z" fill="#DC785A"/><path d="M27.843 108.013s1.494-1.774 2.331-2.872a1665.93 1665.93 0 0 0 2.223-2.927l11.925 5.243a25.059 25.059 0 0 1-2.512 3.116c-1.041.97-2.84 2.444-2.84 2.444l-11.127-5.004z" fill="linen"/><path d="M28.58 106.395l-8.316 8.874 2.255 6.738 8.324 2.883c.569-.778-2.471-1.889-2.471-1.889l12.485-11.31-12.277-5.296z" fill="#00A0DC"/><ellipse fill="#006482" cx="28.712" cy="111.531" rx="2.56" ry="2.552"/><path d="M37.252 112.398c-.228.215-.46.42-.7.619l2.587 1.05.316-.779-2.203-.89z" fill="linen"/><path d="M34.849 114.04a6.316 6.316 0 0 1-.333.31l-.352.312 2.948 1.198.316-.798-2.58-1.023z" fill="#F0E6D2"/><path d="M35.57 117.626l.244-.6-2.948-1.198c-.228.208-.457.4-.681.627l3.225 1.306.16-.135z" fill="linen"/><path d="M33.903 119.063l.169-.14-3.137-1.27-.14.14-.52.496 3.1 1.258c.172-.164.348-.328.528-.484z" fill="#F0E6D2"/><path d="M28.472 120.162l3.004 1.218c.232-.204.453-.4.673-.631l-3.136-1.274c-.173.223-.365.455-.541.687z" fill="linen"/><path d="M23.593 121.931c3.204-3.734-3.313-6.654-3.313-6.654l-4.206 4.84 14.196 5.752.553-.979-7.23-2.959z" fill="#281446"/><path d="M45.203 70.475L29.241 83.07s.368 2.868 3.81 4.393c3.5 1.562 20.364 3.1 36.907 2.397 16.543-.703 23.773-6.09 23.773-6.09L45.203 70.474z" fill="#006482"/><path fill="#281446" d="M77.308 87.065H46.064L42.06 70.69h39.255z"/><path d="M24.598 23.456c-2.167-12.757-.693-17.122-1.366-19.223-.88-2.711-2.367-1.541-3.204.424-.593 1.306-1.823 11.206-5.087 7.245-.977-1.199-1.406-3.128-1.53-4.533-.193-2.177.585-5.236-.934-7.018-3.072-.818-2.591 3.423-3.12 5.84-.284 1.297.048 8.486-3.56 8.15-3.61-.335-1.591-9.824-4.868-9.548-.492.044-1.906 17.532.273 27.956 2.856 13.663 10.014 21.443 14.54 24.93 12.91 9.92 23.425 11.701 25.948 12.344l3.974-21.542c-2.644-.352-8.091-2.672-13.567-7.908-4.907-4.697-6.461-11.087-7.499-17.117zM142.76 82.82c-1.282 1.621-4.771-8.104-9.261-5.1-2.992 1.996 1.157 5.463 2.079 7.791.645 1.63 2.295 4.018.633 5.592-2.917-.34-7.034-10.053-10.415-8.847-3.38 1.207.97 7.297 1.017 9.254.125 5.012-6.525-5.435-6.893-6.126-3.3-6.207-14.232-16.862-21.703-18.268-7.47-1.406-16.266 2.796-16.266 2.796l-6.686-22.11c4.082-.1 17.861-6.514 40.529 3.722 19.167 8.659 28.247 29.67 26.966 31.296zm-68.196 9.153a26.433 26.433 0 0 1 1.174 6.49c.3 5.78-3.373 15.249-3.533 17.01 3.38.096 6.757.5 10.134.284 2.576-3.843 4.43-8.292 5.868-12.669.765-2.336 1.23-6.438 1.687-8.85.096-.523.26-1.35.4-2.265h-15.73z" fill="#DC785A"/><path d="M72.265 113.025s.717-2.205 1.074-3.539c.356-1.334.957-3.546.957-3.546l13.026.4a24.743 24.743 0 0 1-1.15 3.83c-.596 1.29-1.71 3.326-1.71 3.326l-12.197-.471z" fill="linen"/><path d="M72.337 111.252l-4.354 11.358 4.635 5.396 8.78-.444c.232-.934-3.004-.826-3.004-.826l7.33-15.177-13.387-.307z" fill="#00A0DC"/><ellipse fill="#006482" cx="74.4" cy="115.96" rx="2.56" ry="2.552"/><path d="M82.227 113.564c-.128.283-.268.56-.4.835h2.803l.4-.835h-2.803z" fill="linen"/><path d="M81.045 115.972c-.056.14-.12.276-.188.4-.068.123-.14.283-.212.423h3.184v-.839l-2.784.016z" fill="#F0E6D2"/><path d="M83.052 119.015v-.647h-3.18c-.136.28-.265.56-.4.84h3.484a.712.712 0 0 0 .096-.193z" fill="linen"/><path d="M82.055 120.988c.032-.063.064-.127.1-.191H78.77c-.028.06-.052.12-.08.183-.092.22-.192.436-.292.655h3.344c.1-.223.2-.435.313-.647z" fill="#F0E6D2"/><path d="M77.436 124.044h3.245c.132-.276.26-.555.4-.835h-3.384a7.164 7.164 0 0 0-.26.835z" fill="linen"/><path d="M73.583 127.514c1.542-4.652-5.58-4.92-5.58-4.92l-2.07 6.063h15.32l.145-1.11-7.815-.033zm19.631-31.663s-.116-12.24-4.133-18.659l-21.37.028a8313.69 8313.69 0 0 0 5.207 18.99l20.296-.359zm-38.922 1.778s3.605-9.186 2.311-16.627l-19.751-4.58c-1.022 8.387-2.632 19.066-2.632 19.066l20.072 2.14z" fill="#281446"/><path d="M24.138 17.381l.456-.28c-.06-1.457 1.302-6.96 3.662-6.541 2.054.367-.22 6.346-.533 7.588-.693 2.768-1.434 5.192-1.138 8.051.297 2.86-.052 6.139-2.343 8.072-2.291 1.933-11.092 2.74-12.818-5.308-1.698-7.932 4.743-15.232 12.714-11.582z" fill="#DC5050"/><path fill="#DC785A" d="M73.246 47.147l-1.678 10.975-27.386.052 3.084-10.752z"/><path fill="#006482" d="M75.994 47.007l3.97-1.581 10.322 22.796-5.099 4.206zm-30.55 0l-4.699-1.426-8.732 22.797 3.99 4.321z"/><path d="M93.731 83.77L77.124 44.994l-6.277.168s.99 9.266-10.71 9.298c-8.385.024-9.698-9.13-9.698-9.13l-7.038-.6-14.16 38.341 64.49.7z" fill="#00A0DC"/><path d="M68.496 36.02c-.12-.192.569-5.232 1.334-6.721.677-1.318 2.651-2.668 4.05-1.858 1.73 1.01 1.173 3.515.4 4.869-1.13 2-3.625 3.06-5.784 3.71z" fill="#DC5050"/><path d="M50.515 36.02c.124-.192-.57-5.232-1.334-6.721-.677-1.318-2.652-2.668-4.05-1.858-1.73 1.01-1.174 3.515-.4 4.869 1.145 2 3.64 3.06 5.784 3.71z" fill="#DC785A"/><path d="M64.174 16.638c2.555 1.67 7.47-9.585 8.183-11.182-2.259-2.844-5.491-3.475-8.984-2.844a22.783 22.783 0 0 0-.313 7.408c.229 2.137.289 4.63 1.114 6.618z" fill="#FFC800"/><path d="M60.392 18.587l6.638 2.309s1.798-3.499-1.887-4.857-4.75 2.548-4.75 2.548z" fill="#006482"/><path d="M51.2 18.731c-1.603 2.592-10.848-5.531-12.157-6.65.833-3.53 3.488-5.467 6.921-6.39a22.741 22.741 0 0 1 3.437 6.578c.69 2.033 1.702 4.313 1.799 6.462z" fill="#FFC800"/><path d="M55.454 18.899l-5.031 4.896s-3.117-2.396-.353-5.192c2.764-2.796 5.384.296 5.384.296z" fill="#006482"/><path d="M72.293 23.22l-23.505-.056s.184-6.098 12.317-6.023c9.542.076 11.188 6.079 11.188 6.079z" fill="#FFC800"/><path d="M49.63 25.496c-.173.34-.269 3.954-.441 4.298-.048.95-.469 1.821.24 4.145a34.596 34.596 0 0 0 2.44 5.396c1.049 1.474 2.691 3.103 4.406 3.778 3.316 1.318 7.53.959 10.318-1.006 3.325-2.345 4.458-6.39 4.991-10.316.244-1.81 1.202-4.625.917-6.442l-22.872.147z" fill="#DC785A"/><path d="M67.891 30.237c-.076 1.793-4.442 2.564-4.322-.307.12-2.872-.04-4.769 1.979-4.793 2.018-.024 2.415 3.307 2.343 5.1z" fill="#DC5050"/><path fill="#FFC800" d="M52.445 26.794l-3.404 5-.822-4.904z"/><path d="M73.423 28.775c.4-1.685.8-5.092-.285-6.238H48.552c-1.126.899-1.354 4.916-1.254 6.522l26.125-.284z" fill="#00A0DC"/><path d="M67.146 33.808s-.617 1.198-2.94 1.11c-2.323-.088-2.776-1.07-2.776-1.07l5.716-.04zm3.293-3.239c-.685.95-1.422-.623-.657-1.298.5.06.673.395.657 1.298zm-12.502.695c-.5-.212-.46-.655-.545-1.055l.653-.495c.73.24.577 1.39-.108 1.55z" fill="#000"/><path fill="#006482" d="M73.775 27.29l-26.825-.116.472-3.155 26.353-.104z"/></g></svg>