<svg xmlns="http://www.w3.org/2000/svg" width="163.767" height="208.968" viewBox="0.189 0.653 163.767 208.968"><defs><style/></defs><g id="ID0.1154214246198535" transform="translate(.05) scale(1.05)"><g id="Bottom_1_"><path id="ID0.8444251050241292" fill="#20891D" d="M51.912 114.308c-24.229-.002-46.171-15.879-49.17-18.139 29.697-12.055 46.644-62.194 49.047-69.751 10.091 51.385 32.272 71.994 34.715 74.13-9.808 9.13-21.443 13.76-34.588 13.76h-.004z" transform="translate(-1.9 -3.95) scale(1.70606)"/><path id="ID0.994631611276418" d="M51.732 27.416c5.548 27.63 14.548 45.988 21.195 56.6 6.347 10.132 11.667 15.187 13.2 16.539-9.717 8.961-21.226 13.503-34.216 13.503-23.364 0-44.609-14.826-48.668-17.826 16.523-6.927 28.907-25.527 36.431-40.037 6.53-12.592 10.611-24.332 12.058-28.779m.113-2.02S34.742 83.345 2.241 96.1c0 0 23.326 18.458 49.672 18.458 11.65 0 23.889-3.607 34.967-14.019-.001 0-24.397-19.723-35.035-75.143z" transform="translate(-1.9 -3.95) scale(1.70606)"/></g><path id="Snow_10_" fill="#FFF" stroke="#000" stroke-width=".853" d="M151.398 162.247c-2.364-1.493-10.23-3.021-11.783.193-.294.607.027 1.215.458 1.634 1.8 1.756-3.587 2.928-4.481 4.115-.594.789-.879 1.783-1.085 2.732-.81 3.7-2.203 4.79-5.977 5.229-3.455.4-7.537 2.96-8.847 6.444-2.82-.485-5.647-.534-6.734-.362-1.701.27-3.165 1.133-4.572 2.063a55.77 55.77 0 0 0-2.21 1.922c-2.41 2.159-3.624 1.225-5.882 1.307-2.063.075-4.04.553-5.78 1.49a6.067 6.067 0 0 0-.93-.483c-5.01-2.082-10.242 1.752-15.485-.096-2.4-.844-4.739-2.226-7.404-1.854-1.029.147-2.849.672-4.54.808-1.44-1.344-2.129-3.041-3.458-4.804-2.583-3.419-7.894-3.245-11.326-1.534-1.691.842-4.332-1.153-6.246-.888-.121.018-.268-.002-.398.001-.682-.385-1.421-.692-2.091-.965-1.664-.676-3.324-1.643-5.086-1.642-.887-.52-1.7-1.04-2.35-1.484-.704-.481-1.434-1.77-2.274-2.829 2.75.59 5.828.352 7.855-1.706.123-.124.014-.377-.17-.284-3.602 1.813-8.215-.154-11.56-1.846a21.577 21.577 0 0 0-2.487-1.051 20.373 20.373 0 0 0-4.17-1.408c-.83-.39-1.855-.548-2.678-.69-1.115-.19-2.03-.692-2.968-1.171-1.005-1.194-1.763-2.62-3.029-3.66-1.769-1.45-2.966-2.617-2.86-4.714.126-.039.25-.071.373-.093.792-.132 1.505-.485 1.952-1.152 1.034-1.535-5.289-3.327-8.819-2.003-2.685 1.007-3.765 3.699-4.021 6.219-.203 1.99 1.38 4.492 3.122 5.362 2.992 1.493 6.123 2.057 8.044 5.028 1.194 1.844 2.186 2.984 4.301 3.838 1.19.48 2.593.42 3.86.362 8.06-.372 8.468 4.031 11.763 9.063 1.57 2.4 1.871 2.311 4.672 3.557 1.084.48 5.122 4.594 6.88 5.128 4.889 1.48 8.849-1.426 13.586-.507 2.222 1.012 3.54 4.035 5.769 5.13 3.216 1.582 5.932.594 9.231-.223 3.994-.991 8.776 2.605 12.93 2.945 3.315.271 6.622-.575 9.426-2.309a5.86 5.86 0 0 0 1.35-1.134c1.28.44 2.477 1.227 3.972 1.92 3.115 1.44 5.793.32 8.557-1.419 1.583-.994 2.865-2.572 4.262-3.802 2.76-2.44 6.207-1.459 9.477-1.26 2.332.14 4.258-1.091 5.072-3.212.31-.812.256-1.51-.019-2.13.203-.362.407-.714.623-1.03 2.442-3.536 7.09-2.282 10.658-3.536 2.622-.925 3.796-4.272 5.1-6.415 1.813-2.982 6.05-2.24 8.908-3.453 4.221-1.798 2.55-7.427-.48-9.34z"/><path id="Snow_9_" fill="#FFF" stroke="#000" stroke-width=".853" d="M123.567 161.91c.162-.4-.327-.768-.667-.497-2.97 2.334-5.261 5.31-9.434 5.16-3.213-.119-6.072-2.777-9.408-1.756-1.221.373-2.178.894-3.253 1.557-2.35 1.449-3.687.597-5.95-.326-2.126-.866-4.936.722-6.489 1.986-.182.149-.007.454.213.355 1.237-.554 2.421-.621 3.576-.433 2.135 1.141 4.376 3.091 6.767 3.367.663.077 1.407-.163 2.014-.428 2.148-.945 4.088-1.853 6.548-1.61 3.892.382 7.79 1.692 10.557-.957 2.48-1.297 4.448-3.706 5.526-6.419z"/><path id="Snow_8_" fill="#FFF" stroke="#000" stroke-width=".853" d="M76.647 156.957c-6.63 1.144-12.51-4.864-19.236-5.593-4.16-.454-7.796-2.045-11.413-4.031-2.099-1.153-14.901-.027-13.413-5.129.337-1.156-.22-2.444-1.536-2.591-7.23-.795-3.456 9.477.12 11.814 4.478 2.926 13.443 1.155 17.494 5.158 5.775 5.708 8.622.638 15.917 1.215 4.528 1.776 7.232 2.896 12.367.189.526-.275.333-1.14-.3-1.032z"/><path id="Snow_7_" fill="#FFF" stroke="#000" stroke-width=".853" d="M129.165 139.623c-1.252-.793-2.556-.578-3.547.505-.165.18-.33.365-.5.548-.457.503-.426 1.214-.15 1.791-1.01.207-2.005.476-2.82.802-2.863 1.136-4.504 3.741-8.02 3.625-3.274-.105-6.13.212-9.406-.436a6.903 6.903 0 0 0-2.151-.074c-1.35-.501-2.634-.994-3.65-1.334-4.362-1.46-8.103 2.708-12.798 1.225-3.296-1.04-5.593-.53-8.626.841-.282.126-.149.532.146.505 10.607-1.03 3.827 2.829 10.348 2.972 4.58.102 8.784-2.423 13.341.54 1.403.912 2.865 1.483 4.368 1.838 2.803 4.02 10.08 1.502 13.99 1.113 5.534-.556 9.953-2.211 11.271-8.07 1.413-2.122 1.341-4.405-1.796-6.39z"/><g id="Middle_1_"><path id="ID0.028397698886692524" fill="#20891D" d="M61.164 79.793c-21.11-.001-39.055-12.018-41.708-13.88 20.79-10.418 32.567-42.181 34.557-47.938 9.419 47.638 19.737 57.939 22.024 59.697-4.732 1.407-9.733 2.121-14.872 2.121h-.001z" transform="translate(-1.9 -3.95) scale(1.70606)"/><path id="ID0.5585026354528964" d="M53.946 18.919c8.93 44.66 18.664 56.113 21.571 58.645-4.576 1.313-9.399 1.979-14.354 1.979-20.284 0-37.644-11.142-41.221-13.597 19.766-10.201 31.318-39.52 34.004-47.027m.131-1.917S42.164 54.596 18.972 65.874c0 0 19.073 14.169 42.192 14.169 5.01 0 10.207-.665 15.444-2.283 0 0-11.945-6.606-22.531-60.758z" transform="translate(-1.9 -3.95) scale(1.70606)"/></g><path id="Snow_3_" fill="#FFF" stroke="#000" stroke-width=".853" d="M117.187 108.124c-.004-.798-.456-1.747-1.212-2.109-.257-.12-.517-.245-.776-.363-.786-.375-1.745-.247-2.211.572-1.291 2.258-3.805 1.381-6.19 1.828-1.091.207-2.27.657-3.086 1.45-2.202 2.15-4.028.188-6.476.219-4.374.06-6.939 3.182-11.523 1.834-3.207-.947-5.705-.235-8.039 1.974-.256.244-.058.665.277.669 3.3.063 5.452.812 8.533 1.846 1.433.477 3.1 1.105 4.653.685 2.456-.675 4.584-2.29 7.35-1.24 2.158.82 3.639.932 5.83.2 1.536-.512 2.429-2.33 4.165-2.455 1.439-.11 2.832-.205 4.262-.415 2.583-.38 4.46-2.071 4.443-4.695z"/><path id="Snow_2_" fill="#FFF" stroke="#000" stroke-width=".853" d="M95.922 100.128c-3.478 3.695-7.094-1.655-10.463-1.904-2.81-.205-5.004 1.018-7.432.529a2.406 2.406 0 0 0-.346-.234 6.562 6.562 0 0 0-1.738-.642 9.8 9.8 0 0 1-.555-.378c-2.276-1.742-5.905.576-8.228.837-.35.04-.712.023-1.051.023-1.865-.681-3.643-1.887-5.178-2.879-.176-.114-.403.074-.348.265.807 2.917 2.689 5.157 5.251 6.7 1.379.824 2.962 1.049 4.531.895 1.024-.102 2.483-.87 3.718-1.006 1.837 1.126 3.516 3.154 6.118 1.933 2.325-1.1 4.514-3.04 7.19-2.379 1.427.359 2.676.734 4.131.903 2.015.234 3.624-.962 4.64-2.477.096-.142-.12-.31-.24-.186z"/><path id="Snow_1_" fill="#FFF" stroke="#000" stroke-width=".853" d="M129.518 122.87c-1.974-2.21-4.81-1.35-7.319-1.802-.781-.137-4.499 2.77-5.256 4.66-.773 1.91-8.508 1.654-9.157 1.797-4.175.908-5.398 1.367-9.883.074-.193-.057-.375-.084-.566-.128-.205-.261-4.675-.546-6.813-.23-4.458.655-3.456-.58-7.112-.946-5.204-.529-9.593-.175-14.763-2.48-1.759-.782-4.101-1.758-6.06-1.764-.33 0-.64-.02-.952-.036-2.441-.71-5.333-1.706-7.895-2.986-1.96-1.45-3.776-3.241-6.021-4.981 0-.004-.002-.004-.002-.004-1.706-3.392-10.282-6.831-10.567-7.131-.048-.05.176-2.558-1.292-2.546-3.072.022-10.048.01-8.663 5.098.445 1.626 2.63 2.136 3.999 2.523 2.917.823 5.632 4.822 9.025 4.349.875-.128 1.646.055 2.35.45l.98.729c.736.684 7.649 14.69 13.122 13.17 5.427-1.514 9.187-1.432 11.896.813 3.218 2.661 6.68 6.718 10.366 6.954 3.723.244 6.971-1.293 9.127 2.663 1.062 1.943 2.99 2.334 4.922 2.441 1.522.086 2.974-1.496 3.965-2.427 1.384-1.304 8.834-.847 9.089-.997 1.472.06 3.205-.128 4.016-1.506.13-.222.238-.492.348-.758 2.107-1.356 6.926-2.839 7.012-2.86 2.15-.175 4.388-.516 6.186-1.328.907-.114 1.798-.352 2.811-.746 1.967-.76 3.846-1.873 4.69-3.888.901-2.143-.131-4.555-1.583-6.177z"/><g id="Top_1_"><path id="ID0.8162294235080481" fill="#20891D" d="M62.987 51.989c-15.924-.001-29.219-8.794-31.39-10.309 11.738-7.009 20.325-18.331 25.528-33.658.25-.734.604-2.315.866-3.561 3.123 37.52 9.561 45.431 11.585 47.013a41.94 41.94 0 0 1-6.585.515h-.004z" transform="translate(-1.9 -3.95) scale(1.70606)"/><path id="ID0.5223679905757308" d="M57.882 6.123c2.978 33.854 8.741 42.857 11.144 45.183a41.888 41.888 0 0 1-6.038.433c-15.207 0-28.014-8.064-30.929-10.045 11.619-7.055 20.13-18.353 25.304-33.592.15-.442.337-1.185.519-1.979m.216-3.443s-.774 3.983-1.209 5.261c-3.07 9.045-9.722 24.307-25.75 33.72 0 0 14.222 10.578 31.848 10.578 2.376 0 4.811-.191 7.283-.627.001-.001-8.565-2.996-12.172-48.932z" transform="translate(-1.9 -3.95) scale(1.70606)"/></g><path id="Snow_6_" fill="#FFF" stroke="#000" stroke-width=".853" d="M121.215 85.217c-1.002-5.927-8.761-10.648-14.219-12.204-2.64-.754-7.232 1.382-5.46 4.663.79 1.474-.397.302-1.912.198-1.25-.084-2.093.072-3.166.304-1.962-.37-3.915-.814-5.865-1.246-1.935-2.143-4.319-4.113-7.439-3.798-3.037.31-6.529.995-9.443-.303-2.933-1.309-4.98-4.129-7.793-5.368-2.78-1.226-6.096-4.202-9.003-4.674-4.446-.725-13.113-.229-8.57 7.036 1.746 2.792 7.432 1.965 9.788 4.56.554.607 1.515 1.107 2.318 1.281 3.249.705 5.617 1.387 8.251 3.629 2.568 2.18 6.162 1.558 9.406 2.063.994.36 3.289 1.153 3.427 1.248 1.295.888 3.42 1.051 4.884 1.224 2.537.295 4.16 2.207 6.77 2.103 2.587-.102 6.992-.682 8.88-.378 2.807.45 4.325 1.342 7.178.955 4.282-.58 6.583 3.107 10.947.658.611-.34 1.145-1.233 1.02-1.951z"/><path id="Snow_5_" fill="#FFF" stroke="#000" stroke-width=".853" d="M104.691 55.999c-1.975-.174-3.966.53-5.553 1.677-.547.397-2.716-1.172-3.209-1.46-.931-.543-2.177-.47-3.2-.391-2.897.235-4.58 1.42-7.666.534-2.023-.58-3.603-.307-5.05 1.168-.082.084-.024.2.072.232 2.881.96 5.611 3.186 8.578 3.563 1.047.134 2.03-.135 3.021-.437 2.537-.776 3.529 1.216 5.629 1.65 2.57 1.474 6.82 1.366 9.132.515 4.349-1.6 1.972-6.725-1.754-7.051z"/><path id="Snow_4_" fill="#FFF" stroke="#000" stroke-width=".853" d="M90.562 43.328c.141-.164.09-.367-.082-.481-1.075-.719-2.075-.684-3.022-1.718-.81-.89-1.654-1.904-2.88-2.222-1.349-.35-2.471.033-3.691.608a2.95 2.95 0 0 0-.683.496 1.46 1.46 0 0 0-.218.205c-.392-.05-.781-.072-1.18.055-2.82.882-2.097 5.16.685 5.517 1.164.148 2.123-.058 3.163-.59.413-.214.817-.456 1.246-.63.537-.218 1.146-.046 1.713-.285a2.08 2.08 0 0 0 .5-.305c1.479.737 3.306.716 4.449-.65z"/></g></svg>