<svg width="120" height="120" viewBox="0 0 120 120" xmlns="http://www.w3.org/2000/svg"><g fill="none" fill-rule="evenodd"><path fill="#414141" d="M118.506 40.744H32.693v7.27h1.298V42.04h2.99v5.974h1.297V42.04h2.993v5.974h1.297V42.04h2.992v5.974h1.298V42.04h2.99v5.974h1.347V42.04h2.99v5.974h1.299V42.04h2.992v5.974h1.297V42.04h2.993v5.974h1.297V42.04h2.986v5.974h1.301V42.04h2.986v5.974h1.297V42.04h2.992v5.974h1.298V42.04h2.992v5.974h1.297V42.04H84.2v5.974h1.301V42.04h2.986v5.974h1.298V42.04h2.992v5.974h1.298V42.04h2.992v5.974h1.298V42.04h2.986v5.974h1.301V42.04h2.987v5.974h1.297V42.04h2.992v5.974h1.298V42.04h2.992v5.974h1.297V42.04h2.99v5.974h1.298v-7.27z"/><path fill="#A3BCC4" d="M41.92 52.715H83v-4.702H41.92z"/><path fill="#7A8D93" d="M83 52.715h36.803v-4.701H83z"/><path fill="#575757" d="M5.283 10.702v42.013h.68v61.062h70.465V63.05l38.312 38.265v-48.6H40.852V10.702z"/><path fill="#414141" d="M76.427 113.777h38.313v-12.463L76.427 63.05z"/><path fill="#773E28" d="M40.851 69.112L5.283 48.782v64.995h44.839l-7.261-7.252h-.942v.02h-2.27v-.02H22.905v.02h-2.27V81.28h40.12l15.672 15.65V69.118L40.851 48.781z"/><path fill="#592F1E" d="M60.756 84.328v22.217h-2.271v-.02H42.86l7.261 7.252h26.305V96.932L60.757 81.28z"/><path fill="#626262" d="M58.485 101.752V84.328H41.92v21.256l.942.941h15.624v-2.29z"/><path fill="#ADADAD" d="M39.648 103.317l-16.742-16.72v19.927h16.742v-2.29z"/><path fill="#626262" d="M39.648 103.317V84.328H22.906v2.268z"/><path fill="#ADADAD" d="M41.92 106.503v.022h.94l-.94-.94z"/><path fill="#2E2E2E" d="M20.636 84.329h40.12v-3.05h-40.12zm0 22.217h2.27v-.02h-2.27zm0-2.31v2.29h2.27v-.023z"/><path fill="#F78D00" d="M22.906 104.02l-2.27-2.268v2.484l2.27 2.267z"/><path fill="#2E2E2E" d="M22.906 101.534l-2.27-2.266v2.484l2.27 2.267z"/><path fill="#F78D00" d="M22.906 99.05l-2.27-2.268v2.487l2.27 2.265z"/><path fill="#2E2E2E" d="M22.906 96.566l-2.27-2.268v2.484l2.27 2.268z"/><path fill="#F78D00" d="M22.906 94.082l-2.27-2.267v2.484l2.27 2.268z"/><path fill="#2E2E2E" d="M22.906 91.598l-2.27-2.267v2.484l2.27 2.267z"/><path fill="#F78D00" d="M22.906 89.115l-2.27-2.268v2.484l2.27 2.267z"/><path fill="#2E2E2E" d="M22.906 86.63l-2.27-2.267v2.484l2.27 2.268z"/><path fill="#B96A00" d="M22.906 84.329h-2.27l2.27 2.267z"/><path fill="#F78D00" d="M22.906 86.596l-2.27-2.267v.034l2.27 2.267z"/><path fill="#2E2E2E" d="M58.485 106.546h2.271v-.02h-2.27z"/><path fill="#232323" d="M58.485 106.525h2.271v-.021l-2.27-2.268z"/><path fill="#B96A00" d="M58.485 104.236l2.271 2.267v-2.484l-2.27-2.267z"/><path fill="#232323" d="M58.485 101.752l2.271 2.267v-2.485l-2.27-2.266z"/><path fill="#B96A00" d="M58.485 99.268l2.271 2.266V99.05l-2.27-2.268z"/><path fill="#232323" d="M58.485 96.782l2.271 2.268v-2.484l-2.27-2.268z"/><path fill="#B96A00" d="M58.485 94.298l2.271 2.268v-2.484l-2.27-2.267z"/><path fill="#232323" d="M58.485 91.815l2.271 2.267v-2.484l-2.27-2.268z"/><path fill="#B96A00" d="M58.485 89.33l2.271 2.268v-2.484l-2.27-2.267z"/><path fill="#232323" d="M58.485 86.847l2.271 2.267V86.63l-2.27-2.267z"/><path fill="#B96A00" d="M58.485 84.363l2.271 2.267v-2.302h-2.27z"/><path fill="#2E2E2E" d="M39.648 106.546h2.271v-.02h-2.27zm0-2.31v2.29h2.271v-.023z"/><path fill="#B96A00" d="M39.648 103.317l2.271 2.267v-1.565l-2.27-2.267z"/><path fill="#F78D00" d="M39.648 104.236l2.271 2.267v-.919l-2.27-2.267z"/><path fill="#232323" d="M39.648 101.752l2.271 2.267v-2.485l-2.27-2.266z"/><path fill="#B96A00" d="M39.648 99.268l2.271 2.266V99.05l-2.27-2.268z"/><path fill="#232323" d="M39.648 96.782l2.271 2.268v-2.484l-2.27-2.268z"/><path fill="#B96A00" d="M39.648 94.298l2.271 2.268v-2.484l-2.27-2.267z"/><path fill="#232323" d="M39.648 91.815l2.271 2.267v-2.484l-2.27-2.268z"/><path fill="#B96A00" d="M39.648 89.33l2.271 2.268v-2.484l-2.27-2.267z"/><path fill="#232323" d="M39.648 86.847l2.271 2.267V86.63l-2.27-2.267z"/><path fill="#B96A00" d="M41.92 86.63v-2.302h-2.272v.035z"/><path fill="#CECECE" d="M79.513 81.28h3.486V14.747h-3.486z"/><path fill="#ADADAD" d="M83 81.28h3.485V14.747H83z"/><path fill="#2E2E2E" d="M5.283 106.525v7.252h.137l7.261-7.252z"/><path fill="#F78D00" d="M12.681 106.525l-7.26 7.252h7.954l7.261-7.252z"/><path fill="#2E2E2E" d="M20.636 106.525l-7.26 7.252h7.954l7.261-7.252z"/><path fill="#F78D00" d="M28.591 106.525l-7.261 7.252h7.955l7.262-7.252z"/><path fill="#2E2E2E" d="M36.547 106.525l-7.262 7.252h7.955l7.261-7.252z"/><path fill="#F78D00" d="M44.501 106.525l-7.26 7.252h7.953l7.261-7.252z"/><path fill="#2E2E2E" d="M52.455 106.525l-7.261 7.252h7.955l7.261-7.252z"/><path fill="#F78D00" d="M60.41 106.525l-7.261 7.252h7.954l7.261-7.252z"/><path fill="#2E2E2E" d="M68.364 106.525l-7.261 7.252h7.955l7.26-7.252z"/><path fill="#F78D00" d="M76.32 106.525l-7.262 7.252h7.37v-7.252z"/><path fill="#432317" d="M76.32 106.525h13.358V81.28H76.32z"/><path fill="#232323" d="M76.427 106.525v7.252h.137l7.261-7.252z"/><path fill="#B96A00" d="M83.825 106.525l-7.261 7.252h7.954l5.16-5.153v-2.099z"/><path fill="#232323" d="M84.518 113.777h5.16v-5.153z"/><path fill="#828282" d="M77.841 16.77h10.317v-2.023H77.84zm0 8.986h10.317v-2.023H77.84zm0 8.987h10.317V32.72H77.84zm0 8.986h10.317v-2.023H77.84zm0 8.986h10.317v-2.022H77.84zm0 8.987h10.317V59.68H77.84zm0 8.986h10.317v-2.023H77.84zm0 8.987h10.317V77.65H77.84z"/><path fill="#1B233B" d="M33.674 23.604h3.75v-6.558h-3.75zm-5.056 0h3.749v-6.558h-3.75zm-20.158 0h3.681v-6.558h-3.68zm15.102 0h3.75v-6.558h-3.75zm-10.113 0h3.75v-6.558h-3.75zm5.057 0h3.749v-6.558h-3.749z"/><path d="M33.674 23.604h3.749v-6.558h-3.75v6.558zm-5.057 0h3.75v-6.558h-3.75v6.558zm-5.055 0h3.75v-6.558h-3.75v6.558zm-5.056 0h3.749v-6.558h-3.75v6.558zm-5.058 0h3.75v-6.558h-3.75v6.558zm-4.988 0h3.681v-6.558h-3.68v6.558zm30.27-6.558v-1.288H7.172v9.134h31.56v-7.846z" fill="#DDD"/><path fill="#1B233B" d="M33.674 35.999h3.75V29.44h-3.75zm-5.056 0h3.749V29.44h-3.75zm-20.158 0h3.681V29.44h-3.68zm15.102 0h3.75V29.44h-3.75zm-10.113 0h3.75V29.44h-3.75zm5.057 0h3.749V29.44h-3.749z"/><path d="M33.674 35.999h3.749V29.44h-3.75V36zm-5.057 0h3.75V29.44h-3.75V36zm-5.055 0h3.75V29.44h-3.75V36zm-5.056 0h3.749V29.44h-3.75V36zm-5.058 0h3.75V29.44h-3.75V36zm-4.988 0h3.681V29.44h-3.68V36zm30.27-6.558v-1.288H7.172v9.133h31.56v-7.845z" fill="#DDD"/><path fill="#A3BCC4" d="M.706 10.702H22.95V6H.706z"/><path fill="#7A8D93" d="M22.95 10.702h22.244V6H22.95z"/><path fill="#2E2E2E" d="M21.957 76.91h10.31v-3.46h-10.31z"/><path d="M27.772 76.91h4.494v-3.46h-4.494v3.462zm-5.815 0h4.496v-3.46h-4.496v3.462zm-1.32-4.781v6.1h12.95v-6.1h-12.95z" fill="#CECECE"/><path fill="#2E2E2E" d="M49.127 76.91h10.31v-3.46h-10.31z"/><path d="M54.943 76.91h4.494v-3.46h-4.494v3.462zm-5.816 0h4.495v-3.46h-4.495v3.462zm-1.321-4.781v6.1h12.951v-6.1H47.806z" fill="#CECECE"/><path fill="#2E2E2E" d="M0 42.716l40.86 23.17V63.05L0 39.68z"/><path fill="#592F1E" d="M5.283 45.75v3.032L40.86 69.118v-3.23z"/><path fill="#2E2E2E" d="M35.568 39.68v2.914l40.86 23.523v-3.068z"/><path fill="#592F1E" d="M40.851 48.782l35.576 20.336v-3.001L40.851 45.629z"/></g></svg>