<svg xmlns="http://www.w3.org/2000/svg" width="74.056" height="44.661" viewBox="1.611 0.958 74.056 44.661"><defs><style/></defs><g id="ID0.5856816666200757" transform="matrix(.95 0 0 .95 0 .15)" stroke="#000"><path id="ID0.966071086935699" fill="#000" stroke-width="1.715" stroke-linecap="round" d="M8.1 21.277l8.36 10.503-4.072 1.072-5.573-5.788L8.1 21.277z"/><path id="ID0.28506059385836124" fill="#666" stroke-width="1.715" d="M30.786 21.625c-2.659-1.889-5.558-2.807-7.706-4.867-.937-.767.025-3.054-1.087-3.21-2.538-.267-4.276 1.912-6.642 2.33-2.069.238-4.209-1.002-6.432-.397-.711.195-.292 1.42-.453 2.12-.521 2.33-1.346 4.681-1.251 7.08.049.88.838 1.401 1.7 2.383 3.275 3.436 6.283 7.364 10.159 10.265 3.227 2.416 6.992 4.83 10.914 5.22 3.565.16 7.786-1.055 9.842-3.692 1.921-2.468 1.99-6.56.572-9.4-1.839-3.63-6.254-5.435-9.616-7.832z"/><path id="ID0.28506059385836124" fill="#7F7F7F" stroke-width="2" d="M127.45 271.15c3.803.08 7.132 1.505 10.6.8 1.994-.407 2.841-3.392 4.85-3.9.979-.246.862 1.727 1.5 2.2 2.177 1.193 4.928 1.294 6.7 2.65 1.258.999 1.792 2.761 2.55 4.1.529.903 1.425 1.967 1.05 2.95-1.451 3.8-3.518 7.612-6.25 10.5-1.356 1.434-3.743 1.28-5.7 1.65-5.88 1.041-11.971 3.078-18.05 2.75-4.61-.266-9.63-1.566-13.25-4.5-3.354-2.912-6.58-7.373-6.25-11.85.284-3.397 4.562-5.551 7.8-6.7 4.538-1.607 9.635-.742 14.45-.65z" transform="matrix(-.62464 -.46373 -.44827 .60382 231.25 -83.95)"/><path id="ID0.868237994145602" fill="none" stroke-width="1.715" stroke-linecap="round" d="M20.118 16.276h0z"/><path id="ID0.9931649724021554" fill="none" stroke-width=".857" stroke-linecap="round" d="M28.906 19.791l-3 1.072-5.573-4.716.643-5.144"/><path id="ID0.7034772103652358" fill="none" stroke-width=".857" stroke-linecap="round" d="M15.617 30.294l3.858-5.359-6.43-6.43-3.43-5.144"/><g id="ID0.7672867947258055" fill="none" stroke-width="1"><path id="ID0.485372981056571" d="M135.45 336.6c.469 0 .894.185 1.202.484a1.618 1.618 0 0 1 0 2.332 1.72 1.72 0 0 1-1.202.484 1.72 1.72 0 0 1-1.202-.484 1.618 1.618 0 0 1 0-2.332 1.72 1.72 0 0 1 1.202-.484z" transform="matrix(-.75995 0 0 .75995 121.05 -233.45)"/><path id="ID0.485372981056571" d="M135.45 336.6c.469 0 .894.185 1.202.484a1.618 1.618 0 0 1 0 2.332 1.72 1.72 0 0 1-1.202.484 1.72 1.72 0 0 1-1.202-.484 1.618 1.618 0 0 1 0-2.332 1.72 1.72 0 0 1 1.202-.484z" transform="matrix(-.75995 0 0 .75995 118.05 -236.15)"/><path id="ID0.485372981056571" d="M135.45 336.6c.469 0 .894.185 1.202.484a1.618 1.618 0 0 1 0 2.332 1.72 1.72 0 0 1-1.202.484 1.72 1.72 0 0 1-1.202-.484 1.618 1.618 0 0 1 0-2.332 1.72 1.72 0 0 1 1.202-.484z" transform="matrix(-.75995 0 0 .75995 124.85 -240.4)"/><path id="ID0.485372981056571" stroke-linecap="round" d="M135.45 336.6c.469 0 .894.185 1.202.484a1.618 1.618 0 0 1 0 2.332 1.72 1.72 0 0 1-1.202.484 1.72 1.72 0 0 1-1.202-.484 1.618 1.618 0 0 1 0-2.332 1.72 1.72 0 0 1 1.202-.484z" transform="matrix(-.75995 0 0 .75995 128.05 -237.75)"/></g><path id="ID0.5520394304767251" fill="none" stroke-width=".857" stroke-linecap="round" d="M18.06 23.564l7.117-4.373"/><path id="ID0.5189701002091169" fill="none" stroke-width=".857" stroke-linecap="round" d="M15.06 20.863l6.859-4.158"/><path id="ID0.28506059385836124" fill="#666" stroke-width="1.715" d="M62.826 12.775c-2.956-1.377-5.974-1.756-8.458-3.394-1.06-.585-.528-3.008-1.65-2.96-2.544.196-3.847 2.895-6.111 3.492-1.781.467-3.784-1.397-5.566-.825-.893.294-.19 1.828-.211 2.762-.403 3.264-.922 6.554-1.065 9.843-.035.827-.165 1.09.067 1.322 1.459.965 3.04 1.547 4.499 1.925.356.092-.006-1.005.84-.638 3.386 1.463 6.594 3.704 10.08 5.146 2.609 1.085 5.314 2.16 8.146 2.572 2.535.235 5.376.444 7.684-.665 2.092-1.009 4.086-3.175 4.488-5.341.451-2.459-.108-5.4-1.87-7.273-2.834-3.003-7.133-4.215-10.873-5.966z"/><path id="ID0.28506059385836124" fill="#7F7F7F" stroke-width="2" d="M127.45 271.15c3.803.08 7.102 1.315 10.6.8 1.137-.172.775-2.784 1.95-3.1 1.783-.471 3.872.006 5.3 1.1 1.492 1.128 1.25 3.989 2.6 5.5 1.375 1.536 4.573.956 5.45 2.75.717 1.65-1 3.505-1.55 5.25-1.077 2.324-2.188 4.697-3.35 7-.467.905.957 2.435-1 2.55-8.339.66-16.814.188-24.9-.6-3.548-.346-7.17-1.143-10.35-2.75-2.355-1.193-4.538-2.834-5.95-4.9-1.173-2.031-2.399-4.842-1.4-6.75 1.606-3.006 4.919-5.131 8.15-6.2 4.571-1.508 9.635-.742 14.45-.65z" transform="matrix(-.69816 -.3432 -.33176 .67489 240.8 -127.4)"/><path id="ID0.868237994145602" fill="none" stroke-width="1.715" stroke-linecap="round" d="M51.25 9.412h0z"/><path id="ID0.7954719536937773" fill="none" stroke-width=".857" stroke-linecap="round" d="M45.36 8.195l1.501 4.073 9.045 6.001-2.143 7.288"/><g id="ID0.7672867947258055" fill="none" stroke-width="1"><path id="ID0.485372981056571" d="M135.45 336.6c.469 0 .894.185 1.202.484a1.618 1.618 0 0 1 0 2.332 1.72 1.72 0 0 1-1.202.484 1.72 1.72 0 0 1-1.202-.484 1.618 1.618 0 0 1 0-2.332 1.72 1.72 0 0 1 1.202-.484z" transform="matrix(-.74743 .13735 .13735 .74743 109.1 -254.1)"/><path id="ID0.485372981056571" d="M135.45 336.6c.469 0 .894.185 1.202.484a1.618 1.618 0 0 1 0 2.332 1.72 1.72 0 0 1-1.202.484 1.72 1.72 0 0 1-1.202-.484 1.618 1.618 0 0 1 0-2.332 1.72 1.72 0 0 1 1.202-.484z" transform="matrix(-.74743 .13735 .13735 .74743 105.7 -256.2)"/><path id="ID0.485372981056571" d="M135.45 336.6c.469 0 .894.185 1.202.484a1.618 1.618 0 0 1 0 2.332 1.72 1.72 0 0 1-1.202.484 1.72 1.72 0 0 1-1.202-.484 1.618 1.618 0 0 1 0-2.332 1.72 1.72 0 0 1 1.202-.484z" transform="matrix(-.74743 .13735 .13735 .74743 111.6 -261.65)"/><path id="ID0.485372981056571" stroke-linecap="round" d="M135.45 336.6c.469 0 .894.185 1.202.484a1.618 1.618 0 0 1 0 2.332 1.72 1.72 0 0 1-1.202.484 1.72 1.72 0 0 1-1.202-.484 1.618 1.618 0 0 1 0-2.332 1.72 1.72 0 0 1 1.202-.484z" transform="matrix(-.74743 .13735 .13735 .74743 115.25 -259.6)"/></g><path id="ID0.5520394304767251" fill="none" stroke-width=".857" stroke-linecap="round" d="M54.193 17.351l6.21-5.586"/><path id="ID0.5189701002091169" fill="none" stroke-width=".857" stroke-linecap="round" d="M50.754 15.237l5.994-5.33"/></g></svg>