<svg width="120" height="120" viewBox="0 0 120 120" xmlns="http://www.w3.org/2000/svg"><g fill="none" fill-rule="evenodd"><path d="M54.015 29h35.23a7.53 7.53 0 0 1 7.348 5.88l3.738 16.637 6.943 2.216a3.745 3.745 0 0 1 2.609 3.57v19.056a3.769 3.769 0 0 1-3.77 3.77H13.842a3.77 3.77 0 0 1-3.77-3.768V34.92a5.92 5.92 0 0 1 5.92-5.92h38.023z" fill="#9B59B6"/><path d="M94.771 52.551l-2.436-13.033a5.356 5.356 0 0 0-5.265-4.372H69.986v17.405H94.77z" fill="#4E2D5B"/><path d="M73.058 77.899c0 7.488 6.068 13.557 13.554 13.557 7.486 0 13.554-6.07 13.554-13.557 0-7.488-6.068-13.558-13.554-13.558-7.486 0-13.554 6.07-13.554 13.558" fill="#522D2D"/><path d="M79.203 77.382a6.894 6.894 0 1 0 13.788 0 6.894 6.894 0 1 0-13.788 0" fill="#FFF"/><path d="M83.812 77.189a2.09 2.09 0 1 0 4.183 0 2.092 2.092 0 0 0-4.183 0m-61.45.71c0 7.488 6.068 13.557 13.554 13.557 7.487 0 13.555-6.07 13.555-13.557 0-7.488-6.068-13.558-13.555-13.558-7.486 0-13.554 6.07-13.554 13.558" fill="#522D2D"/><path d="M28.507 77.382a6.894 6.894 0 1 0 13.788 0 6.894 6.894 0 1 0-13.788 0" fill="#FFF"/><path d="M33.116 77.189a2.09 2.09 0 1 0 4.183 0 2.092 2.092 0 0 0-4.183 0" fill="#522D2D"/><path d="M106.829 67.322a1.51 1.51 0 0 0 1.509-1.51v-4.571a1.508 1.508 0 1 0-3.02 0v4.571c0 .834.675 1.51 1.511 1.51m3.601 4.702h-7.823c-1.047 0-1.897.85-1.897 1.898v6.47h6.428a5.19 5.19 0 0 0 5.19-5.191v-1.279a1.897 1.897 0 0 0-1.898-1.898m-101.533 0h7.823c1.047 0 1.897.85 1.897 1.898v6.47h-6.428A5.19 5.19 0 0 1 7 75.2v-1.279c0-1.048.848-1.898 1.897-1.898" fill="#FFF"/><path fill="#AE392E" d="M10.072 68.306h5.216v-8.574h-5.216z"/><path fill="#FFD800" d="M10.072 62.262h5.216v-2.53h-5.216z"/><path fill="#744389" d="M69.986 56.477h6.042v-2.892h-6.042z"/></g></svg>