<svg width="120" height="120" viewBox="0 0 120 120" xmlns="http://www.w3.org/2000/svg"><g fill="none" fill-rule="evenodd"><path d="M107.001 96.097s0-50.239-8.41-70.472c-8.62-20.733-27.75-28.59-47.267-24.252-30.752 6.835-40.82 40.225-38.323 94.724h94" fill="#4E8652"/><path d="M76.752 78.584C64.084 88.74 64.571 107.758 64.084 119.43H54.78s2.326-27.292-11.892-40.685l5.43-.162s7.754 4.64 11.5 12.56c0 0 4.2-9.426 10.6-12.56h6.334" fill="#433C20"/><path d="M36.134 119.775c.517-3.877 7.755-5.687 9.824-1.293 1.002-2.835 4.977-3.392 7.755-.776 3.231-5.234 11.178-4.75 13.699.776 3.36-3.36 13.767-3.962 16.093.949l-47.371.344" fill="#4E8652"/><path d="M21.24 102.196l-.38-4.772c-.127-1.519-.19-3.37-.311-5.49-.127-2.122-.166-4.518-.218-7.133.005-2.615-.013-5.45.092-8.448.022-1.5.104-3.038.186-4.612.059-1.574.196-3.18.34-4.81.12-1.635.309-3.29.503-4.965.165-1.68.441-3.366.69-5.07.255-1.703.595-3.408.904-5.124.386-1.7.695-3.426 1.154-5.12.824-3.407 1.91-6.752 3.108-9.994 1.184-3.25 2.691-6.323 4.303-9.2 1.622-2.875 3.468-5.508 5.488-7.77 2.007-2.274 4.156-4.198 6.31-5.734 2.135-1.568 4.341-2.628 6.326-3.417l1.455-.542 1.387-.404c.879-.29 1.728-.397 2.47-.575 1.51-.26 2.705-.386 3.522-.408l1.25-.064-1.243.148c-.812.07-1.987.299-3.466.62-.727.213-1.557.36-2.41.689-.429.15-.876.304-1.34.465-.452.194-.92.395-1.402.604-1.904.876-3.993 2.014-6.035 3.589-2.05 1.559-4.08 3.493-5.963 5.763-1.899 2.26-3.603 4.883-5.157 7.703a66.768 66.768 0 0 0-4.093 9.06c-1.16 3.188-2.208 6.481-3.007 9.844-.46 1.666-.775 3.368-1.164 5.046-.313 1.693-.659 3.375-.92 5.059-.53 3.365-1.008 6.689-1.313 9.924a147.968 147.968 0 0 0-.433 4.769c-.13 1.56-.258 3.086-.325 4.576-.195 2.977-.263 5.799-.347 8.404-.009 2.604-.095 4.995-.078 7.112.015 2.119-.015 3.966.038 5.49l.079 4.787M74.101 10.75s.612.285 1.663.813c.506.302 1.125.676 1.83 1.12.659.494 1.466.99 2.215 1.685.382.338.803.67 1.198 1.053l1.206 1.21c.782.87 1.638 1.773 2.38 2.813.791 1.007 1.522 2.106 2.25 3.233.67 1.16 1.388 2.32 1.987 3.54.633 1.204 1.17 2.451 1.712 3.672.529 1.225.97 2.464 1.407 3.654.399 1.205.805 2.362 1.106 3.485.31 1.118.619 2.17.837 3.16.471 1.969.768 3.628.963 4.79.198 1.162.289 1.83.289 1.83s-.226-.638-.582-1.758l-.64-2.019a98.714 98.714 0 0 1-.885-2.595c-.31-.953-.715-1.963-1.083-3.048-.37-1.085-.858-2.193-1.284-3.365-.467-1.157-.983-2.337-1.502-3.536-.546-1.186-1.088-2.398-1.718-3.564-.568-1.198-1.25-2.332-1.885-3.469-.702-1.093-1.338-2.209-2.072-3.206a23.505 23.505 0 0 0-1.07-1.474c-.367-.468-.702-.95-1.074-1.379-.739-.858-1.435-1.68-2.143-2.376-.673-.735-1.38-1.308-1.961-1.88l-1.633-1.317c-.968-.67-1.51-1.072-1.51-1.072" fill="#1E3520"/><path d="M30.543 86.24s-.269-2.373-.426-5.942a111.19 111.19 0 0 1-.115-6.105c.023-1.118.017-2.274.085-3.447.046-1.174.129-2.367.208-3.559.108-1.19.227-2.382.372-3.55.14-1.172.327-2.318.534-3.424.173-1.11.452-2.168.683-3.171.259-1.001.537-1.94.823-2.794.32-.847.565-1.634.895-2.294.316-.663.56-1.25.835-1.7l.86-1.404-.578 1.53c-.196.477-.334 1.1-.56 1.778-.229.676-.363 1.486-.595 2.332-.186.862-.36 1.803-.548 2.792-.15 1.002-.334 2.049-.466 3.146-.164 1.09-.258 2.227-.395 3.379a116.815 116.815 0 0 0-.314 3.505c-.205 2.351-.335 4.711-.478 6.927l-.359 6.067c-.21 3.557-.46 5.934-.46 5.934m21.05-61.002l-.079.103c-.044.073-.145.157-.21.311-.14.305-.395.7-.61 1.264l-.718 2.064c-.18.832-.383 1.765-.629 2.772-.286.994-.362 2.138-.57 3.31-.162 1.183-.405 2.413-.54 3.71-.125 1.299-.23 2.643-.379 4.004l-.214 2.055-.109 1.034-.048 1.044c-.083 1.391-.164 2.784-.244 4.153-.072 1.37-.188 2.716-.276 4.022-.117 1.302-.108 2.57-.172 3.77-.04 1.198-.096 2.332-.15 3.38-.098 2.095-.248 3.843-.32 5.068a70.43 70.43 0 0 1-.161 1.925s-.065-.698-.142-1.922c-.06-1.225-.192-2.975-.268-5.078-.044-1.051-.09-2.19-.116-3.396-.015-1.206-.116-2.478-.036-3.793.048-1.315.074-2.676.145-4.057l.193-4.188.063-1.051.124-1.047.244-2.08c.156-1.377.35-2.727.516-4.035.175-1.308.518-2.554.758-3.74.277-1.182.458-2.312.844-3.313.331-1.012.658-1.928.945-2.736l.99-2.008c.283-.554.644-.918.818-1.188.088-.139.202-.206.257-.27l.094-.087m23.906-2.38s.99.77 2.312 2.502c.349.42.689.916 1.051 1.462.37.543.78 1.124 1.146 1.789.375.658.808 1.343 1.203 2.096l1.174 2.41c.417.837.74 1.753 1.137 2.68.387.93.788 1.891 1.112 2.91.348 1.011.704 2.051 1.068 3.114.34 1.07.61 2.185.923 3.308.658 2.241 1.125 4.604 1.626 7 .12.6.26 1.199.364 1.805l.286 1.83.576 3.676c.21 1.226.319 2.462.444 3.692l.376 3.67.186 1.815c.053.602.068 1.204.104 1.801.06 1.196.121 2.376.182 3.536l.167 3.419c.042 1.118.013 2.213.023 3.277l.005 5.999c.037 1.856-.12 3.558-.178 5.063l-.197 3.902-.203 3.394-.098-3.401c-.023-1.081-.049-2.393-.079-3.899l-.048-2.397c-.009-.844-.016-1.73-.07-2.656l-.263-5.969c-.055-1.058-.073-2.147-.164-3.256-.085-1.108-.17-2.241-.259-3.393-.188-2.301-.294-4.689-.599-7.092l-.399-3.636c-.133-1.22-.253-2.445-.465-3.655l-.544-3.644-.27-1.813c-.098-.601-.233-1.193-.346-1.787-.49-2.367-.866-4.723-1.477-6.943l-.818-3.29-.921-3.112c-.277-1.021-.63-1.982-.973-2.913-.35-.928-.631-1.85-1.006-2.69l-1.043-2.427c-.335-.769-.713-1.468-1.037-2.144-.315-.682-.68-1.28-1.004-1.84-.32-.564-.621-1.079-.935-1.515a23.854 23.854 0 0 0-1.471-2.022c-.374-.439-.597-.656-.597-.656m-38.429 61.5s.119 1.114.22 2.787a112.8 112.8 0 0 1 .167 6.132c-.003 2.23-.066 4.459-.165 6.132-.102 1.672-.222 2.787-.222 2.787s-.121-1.115-.223-2.787a112.91 112.91 0 0 1-.165-6.132c.003-2.23.068-4.46.166-6.132.102-1.673.222-2.787.222-2.787m41.488-.97s.12 1.115.223 2.787c.098 1.672.163 3.903.165 6.132-.002 2.23-.066 4.46-.164 6.132-.103 1.673-.224 2.787-.224 2.787s-.12-1.114-.223-2.787a112.965 112.965 0 0 1-.164-6.132c.003-2.23.068-4.46.165-6.132.103-1.672.222-2.787.222-2.787m18.422-26.89s.152.701.383 1.935l.406 2.226c.154.86.347 1.826.495 2.89.271 2.134.56 4.634.827 7.319.094 1.34.214 2.724.294 4.134.078 1.41.189 2.84.244 4.272.043 1.433.086 2.866.13 4.276.056 1.41.052 2.799.056 4.142.01 2.687-.018 5.195-.102 7.344-.055 2.15-.193 3.94-.256 5.192-.076 1.253-.151 1.968-.151 1.968l-.15-1.968-.334-5.182c-.115-2.143-.255-4.642-.373-7.32l-.369-8.385c-.037-1.43-.129-2.854-.19-4.258-.073-1.404-.106-2.788-.159-4.126a310.064 310.064 0 0 1-.347-7.301l-.319-5.186a71.266 71.266 0 0 1-.085-1.972M59.044 17.786c0 .001.227.027.64.177.403.16.982.451 1.624.96.3.274.665.554 1.005.909l1.056 1.2 1.031 1.495c.376.522.634 1.142.98 1.753l.502.949.428 1.023c.287.696.595 1.415.873 2.165l.747 2.34.382 1.215.297 1.258c.39 1.694.856 3.437 1.1 5.244.293 1.798.622 3.623.787 5.464l.28 2.756c.099.915.186 1.828.222 2.735.11 1.814.172 3.601.258 5.329.079 1.727.025 3.399.033 4.982a169.206 169.206 0 0 1-.048 4.462c-.123 2.76-.294 5.059-.382 6.666-.103 1.607-.184 2.523-.184 2.523s-.056-.92-.119-2.53c-.044-1.608-.155-3.905-.205-6.656l-.219-4.439c-.086-1.572-.125-3.234-.24-4.947-.125-1.712-.28-3.479-.389-5.276-.09-1.8-.371-3.607-.547-5.426-.145-1.825-.452-3.621-.723-5.397-.234-1.783-.607-3.503-.95-5.176l-.254-1.244-.324-1.197-.617-2.324c-.232-.743-.506-1.449-.737-2.145l-.349-1.025-.422-.947c-.289-.61-.513-1.232-.823-1.764l-.857-1.533-.904-1.25c-.296-.372-.617-.67-.884-.965-.277-.284-.572-.477-.803-.686-.242-.192-.48-.306-.66-.425-.377-.195-.605-.252-.605-.253" fill="#1E3520"/></g></svg>