<svg width="120" height="120" viewBox="0 0 120 120" xmlns="http://www.w3.org/2000/svg" xmlns:xlink="http://www.w3.org/1999/xlink"><defs><path id="a" d="M0 2.057h119.166v114.785H0z"/></defs><g fill="none" fill-rule="evenodd"><g transform="translate(0 1.101)"><mask id="b" fill="#fff"><use xlink:href="#a"/></mask><path d="M111.302 43.305c-.537-1.68 4.515-19.592-12.329-23.053-3.505-.717-8.087.66-12.742 3.385 1.127-5.28 1.017-10.09-.723-13.231-8.346-15.041-23.918-4.857-25.69-4.864-1.762-.01-17.245-10.342-25.73 4.62-1.746 3.08-1.87 7.804-.742 13.014-4.623-2.671-9.183-4.02-12.673-3.35C3.778 23.08 8.62 41.053 8.061 42.726c-.563 1.68-15.193 13.172-3.616 25.899 2.412 2.643 6.922 4.225 12.287 4.765-4.023 3.603-6.767 7.553-7.21 11.119-2.115 17.068 16.472 18.019 17.9 19.06 1.417 1.05 7.837 18.516 23.51 11.43 3.256-1.479 6.161-5.28 8.327-10.22 2.183 4.94 5.1 8.763 8.35 10.286 15.587 7.285 22.216-10.109 23.653-11.135 1.436-1.033 20.033-1.75 18.13-18.847-.402-3.555-3.13-7.487-7.157-11.071 5.372-.553 9.913-2.147 12.36-4.772 11.738-12.58-2.763-24.252-3.293-25.935" fill="#F8C0BF" mask="url(#b)"/></g><path d="M61.8 44.409c1.092-2.725 2.393-5.078 3.867-6.354.537 2.166.092 5.372-.802 8.697 5.167-8.485 12.632-18.073 18.806-20.608-.556 6.944-7.977 17.551-14.716 25.162 3.28-2.135 6.698-3.806 9.196-3.907-1.156 2.527-1.684 4.456-5.33 6.853 8.462-2.722 20.484-5.413 27.87-4.756C94.2 54.28 83.27 57.43 75.287 59.463c2.018.375 6.341.786 7.538 1.594-1.263.704-3.748 1.63-5.798 1.835 8.852 2.283 18.3 5.924 22.188 10.39-6.755 1.698-19.19-1.927-28.55-5.868 3.069 2.425 5.747 5.122 6.647 7.456-2.536-.26-5.915-2.192-9.105-4.582 6.263 8.04 13.077 19.216 13.175 26.23-5.47-2.679-11.63-11.28-16.171-19.453.42 2.352.524 4.51.104 6.088-1.32-1.178-2.492-3.256-3.47-5.684.628 9.47.116 20.362-3.124 25.67-3.606-5.83-3.954-18.47-3.082-28.519-1.32 3.503-2.984 6.676-4.847 8.195-.496-2.277.123-5.662 1.203-9.114-5.517 8.375-13.497 17.909-19.863 20.236.735-6.12 6.947-14.88 13.238-21.903-2.186 1.238-4.292 2.097-5.997 2.217.644-1.513 2.05-3.155 3.83-4.762-8.602 3.663-18.755 6.67-24.726 5.419 4.36-5.432 16.468-10.04 26.311-12.543-3.909-.082-7.67-.622-9.798-1.94 2.238-1.354 6.246-1.837 10.348-1.837-9.881-2.681-22.235-7.61-26.552-13.222 6.518-1.226 17.874 2.684 26.81 6.947-2.503-2.252-4.562-4.633-5.273-6.695 1.728.234 3.83 1.27 5.99 2.707C40.484 40.863 34.816 31.607 34.5 25.41c5.918 2.64 12.83 11.927 17.735 20.359-.698-3.003-.989-5.84-.477-7.8 1.43 1.27 2.69 3.58 3.733 6.259-.616-9.616-.064-20.864 3.287-26.268 3.319 5.46 3.755 16.807 3.022 26.448" fill="#E37953"/><path d="M59.634 50.466c5.57.031 10.067 4.563 10.042 10.13-.031 5.574-4.573 10.068-10.14 10.042-5.57-.028-10.06-4.566-10.036-10.133.026-5.574 4.563-10.068 10.134-10.04" fill="#FFF"/></g></svg>