<svg width="120" height="120" viewBox="0 0 120 120" xmlns="http://www.w3.org/2000/svg" xmlns:xlink="http://www.w3.org/1999/xlink"><defs><path id="a" d="M.4.17h118.468v47.372H.4z"/><path id="c" d="M.155.17H74.31v47.372H.155z"/><path id="e" d="M.062.17h38.21v47.372H.062z"/></defs><g fill="none" fill-rule="evenodd"><path fill="#FA6B97" d="M31.531 17L.001 53.29l59.655 47.87 59.656-47.997L87.78 17z"/><path fill="#FDC4D5" d="M42.051 17L22.315 53.29l37.341 47.87 37.34-47.997L77.26 17z"/><path fill="#FA6B97" d="M50.585 17l-10.17 36.29 19.242 47.87 19.24-47.997L68.727 17z"/><g transform="translate(0 53.795)"><mask id="b" fill="#fff"><use xlink:href="#a"/></mask><path fill="#FEE1EA" opacity=".493" mask="url(#b)" d="M.4.17l59.256 47.373L118.868.169z"/></g><g transform="translate(22.41 53.795)"><mask id="d" fill="#fff"><use xlink:href="#c"/></mask><path fill="#FEE1EA" mask="url(#d)" d="M.155.17l37.092 47.373L74.309.169z"/></g><g transform="translate(40.482 53.795)"><mask id="f" fill="#fff"><use xlink:href="#e"/></mask><path fill="#FEE1EA" mask="url(#f)" d="M.062.17l19.112 47.373L38.272.169z"/></g></g></svg>