<svg width="120" height="120" viewBox="0 0 120 120" xmlns="http://www.w3.org/2000/svg" xmlns:xlink="http://www.w3.org/1999/xlink"><defs><path id="a" d="M.003.513h112.489v112.82H.002z"/></defs><g fill="none" fill-rule="evenodd"><g transform="translate(4 3.153)"><mask id="b" fill="#fff"><use xlink:href="#a"/></mask><path d="M112.492 56.923c0 31.16-25.18 56.414-56.241 56.414-31.069 0-56.248-25.254-56.248-56.414C.003 25.757 25.183.51 56.251.51c31.061 0 56.24 25.247 56.24 56.413" fill="#FFF" mask="url(#b)"/></g><path d="M52.328 18.546c-9.698.693-19.276 3.947-24.966 14.053-5.697 10.114-11.526 18.967-9.705 29.694 1.821 10.726 5.324 26.226 23.285 34.08 17.967 7.86 32.417 4.78 44.25-3.574 11.824-8.34 15.766-19.193 16.643-29.806.878-10.614-3.064-23.787-10.509-30.834-7.451-7.026-26.727-14.486-38.998-13.613" fill="#79BA40"/><path d="M39.19 29.705s-.439 16.62 8.322 19c8.761 2.36 10.443 8.594 10.695 15.14 0 0 5.517-11.513-3.682-18.52-9.206-7-7.006-21.473-8.322-21.706-1.316-.24-7.292 1.153-7.013 6.086M27.408 76.652s12.284 2.913 15.767-5.38c3.47-8.273 8.429-8.987 13.354-8.26 0 0-7.478-7.153-14.49.867-7.02 8.02-17.35 3.7-17.781 4.953-.432 1.267-.572 7.347 3.15 7.82" fill="#93D852"/><path d="M22.832 51.756s7.491 10.193 15.487 6.14c7.984-4.06 12.224-1.387 15.521 2.347 0 0-1.096-10.294-11.612-8.734-10.529 1.56-15.614-8.433-16.764-7.76-1.137.687-5.171 5.234-2.632 8.007m22.161 42.291s11.48-6.78 8.515-15.026c-2.965-8.227.379-12.287 4.673-15.314 0 0-10.655.4-10.596 10.987.04 10.6-10.887 14.993-10.356 16.187.525 1.186 4.573 5.52 7.764 3.166" fill="#93D852"/><path d="M71.062 94.158s3.982-12.027-3.922-16.233c-7.91-4.194-8.182-9.22-7.026-14.08 0 0-7.763 6.84-.432 14.56 7.339 7.72 2.127 17.646 3.344 18.2 1.21.546 7.239 1.226 8.036-2.447m3.56-66.921s-13.14 9.147-9.777 17.58c3.363 8.42-.466 13.334-5.385 17.28 0 0 12.184-2.113 12.151-13.553-.026-11.44 12.477-17.927 11.879-19.12-.599-1.207-5.212-5.233-8.868-2.187" fill="#93D852"/><path d="M94.55 78.065s-6.972-11.407-16.284-8.487c-9.306 2.907-13.647-.42-16.804-4.7 0 0-.087 10.573 11.692 10.553 11.785-.02 16.146 10.834 17.488 10.327 1.35-.52 6.362-4.513 3.909-7.693" fill="#93D852"/><path d="M96.148 52.485S82.72 48.08 77.742 56.072c-4.966 8-10.629 8.147-16.066 6.833 0 0 7.478 8.14 16.378.834 8.934-7.314 19.955-1.714 20.613-2.94.651-1.227 1.595-7.394-2.52-8.314" fill="#93D852"/><path d="M38.236 95.05c.87.46 1.761.913 2.705 1.32 17.967 7.86 32.418 4.78 44.25-3.573 11.825-8.34 15.766-19.194 16.644-29.807.864-10.48-2.978-23.453-10.257-30.54-5.145 35.76-29.858 53.627-53.342 62.6" fill-opacity=".098" fill="#000"/></g></svg>