<svg width="120" height="120" viewBox="0 0 120 120" xmlns="http://www.w3.org/2000/svg" xmlns:xlink="http://www.w3.org/1999/xlink"><defs><path id="a" d="M.648.333h6.118v16.834H.648z"/><path id="c" d="M0 .018h17.236V4.96H0z"/><path id="e" d="M.835.834h16.827v6.114H.835z"/></defs><g fill="none" fill-rule="evenodd"><path d="M64.676 24.945c0 10.741-3.5 27.59-3.5 27.59s-3.5-16.849-3.5-27.59c0-10.743 1.567-11.31 3.5-11.31 1.932 0 3.5.567 3.5 11.31" fill="#00AEEF"/><g transform="translate(67.738 .635)"><mask id="b" fill="#fff"><use xlink:href="#a"/></mask><path d="M6.195 5.946C4.959 10.558.702 17.167.702 17.167S.324 9.313 1.56 4.702C2.796.089 3.9.125 5.178.469c1.282.343 2.253.866 1.017 5.477" fill="#ED1164" mask="url(#b)"/></g><path d="M59.83 7.857a3.366 3.366 0 1 1-6.733 0 3.366 3.366 0 0 1 6.733 0" fill="#00AEEF"/><path fill="#FFC60B" d="M74.145 21.314l1.113 2.258 2.492.363-1.804 1.758.427 2.482-2.228-1.171-2.23 1.17.427-2.48-1.804-1.759 2.492-.363z"/><path d="M76.393 39.733a3.366 3.366 0 1 1-6.73 0 3.365 3.365 0 0 1 6.73 0" fill="#ED1164"/><path d="M54.164 31.622a1.903 1.903 0 1 1-3.807 0 1.903 1.903 0 0 1 3.807 0" fill="#00AEEF"/><path fill="#FFC60B" d="M49.873 14.784l1.435 2.909 3.207.466-2.321 2.264.548 3.197-2.869-1.508-2.87 1.508.547-3.197-2.321-2.264 3.207-.466z"/><path d="M36.473 34.835c8.226 6.906 18.875 20.418 18.875 20.418S40.2 47.106 31.976 40.2c-8.226-6.906-7.653-8.47-6.408-9.952 1.24-1.482 2.682-2.318 10.905 4.586" fill="#00AEEF"/><path d="M28.366 15.936c2.733 3.913 5.06 11.424 5.06 11.424s-6.257-4.76-8.992-8.67c-2.738-3.913-2-4.736-.916-5.496 1.088-.76 2.112-1.17 4.848 2.742" fill="#ED1164"/><path d="M20.278 27.567a3.365 3.365 0 1 1-4.742.415 3.364 3.364 0 0 1 4.742-.415" fill="#00AEEF"/><path fill="#FFC60B" d="M38.397 26.894l2.446.598 1.878-1.675.187 2.511 2.174 1.27-2.33.954-.534 2.46-1.626-1.92-2.505.252L39.41 29.2z"/><path d="M55.329 35.359A3.368 3.368 0 0 1 51 40.518a3.367 3.367 0 1 1 4.328-5.159" fill="#ED1164"/><path d="M34.83 47.184c.804.678.91 1.877.234 2.682a1.898 1.898 0 0 1-2.678.235 1.904 1.904 0 0 1 2.445-2.917" fill="#00AEEF"/><path fill="#FFC60B" d="M19.1 43.1l3.15.77 2.418-2.16.241 3.234 2.8 1.636-3 1.23-.688 3.17-2.097-2.476-3.225.325 1.706-2.76z"/><path d="M25.92 62.81c10.573-1.867 27.764-1.345 27.764-1.345s-15.976 6.375-26.549 8.24c-10.572 1.866-11.402.421-11.738-1.483-.336-1.906-.05-3.548 10.523-5.413" fill="#00AEEF"/><g transform="translate(1 56.764)"><mask id="d" fill="#fff"><use xlink:href="#c"/></mask><path d="M5.238.111c4.752.42 11.998 3.466 11.998 3.466S9.57 5.313 4.817 4.895C.064 4.479-.093 3.385.022 2.063.139.743.482-.307 5.238.111" fill="#ED1164" mask="url(#d)"/></g><path d="M9.943 70.551a3.368 3.368 0 0 1 1.168 6.633 3.364 3.364 0 0 1-3.897-2.733 3.364 3.364 0 0 1 2.729-3.9" fill="#00AEEF"/><path fill="#FFC60B" d="M21.076 56.23l2.03-1.489-.075-2.518 2.043 1.472 2.37-.851-.768 2.399 1.541 1.991-2.518.014-1.418 2.08-.788-2.392z"/><path d="M38.44 48.694a3.367 3.367 0 1 1 1.167 6.633 3.365 3.365 0 0 1-3.896-2.731 3.366 3.366 0 0 1 2.73-3.902" fill="#ED1164"/><path d="M34.319 72.007a1.902 1.902 0 1 1 .662 3.749 1.902 1.902 0 0 1-.662-3.749" fill="#00AEEF"/><path fill="#FFC60B" d="M21.079 81.438l2.613-1.918-.096-3.244 2.63 1.895 3.052-1.096-.988 3.09 1.985 2.566-3.243.017-1.824 2.68-1.018-3.081z"/><path d="M40.553 88.879C45.92 79.577 57.37 66.735 57.37 66.735s-5.39 16.343-10.756 25.646c-5.368 9.303-7.01 9.01-8.683 8.044-1.674-.968-2.747-2.242 2.62-11.546" fill="#00AEEF"/><path d="M23.358 100.151c3.377-3.374 10.366-6.97 10.366-6.97s-3.596 6.992-6.973 10.368c-3.376 3.374-4.312 2.792-5.251 1.854-.936-.938-1.518-1.877 1.858-5.252" fill="#ED1164"/><path d="M36.21 106.102a3.367 3.367 0 0 1 4.597-1.233 3.368 3.368 0 0 1-3.365 5.833 3.367 3.367 0 0 1-1.233-4.6" fill="#00AEEF"/><path fill="#FFC60B" d="M32.402 88.364l.164-2.515-1.976-1.558 2.44-.622.873-2.363 1.343 2.13 2.515.099-1.608 1.939.682 2.423-2.338-.932z"/><path d="M37.794 70.21a3.364 3.364 0 0 1 4.598-1.231 3.368 3.368 0 0 1-3.366 5.832 3.37 3.37 0 0 1-1.232-4.601" fill="#ED1164"/><path d="M52.994 88.355a1.9 1.9 0 1 1 3.292 1.902 1.9 1.9 0 1 1-3.292-1.902" fill="#00AEEF"/><path fill="#FFC60B" d="M51.703 104.565l.212-3.238-2.546-2.01 3.142-.798 1.122-3.043 1.732 2.742 3.239.13-2.072 2.493.88 3.124-3.012-1.201z"/><path d="M69.918 94.42c-3.671-10.093-6.142-27.122-6.142-27.122s9.048 14.635 12.72 24.728c3.672 10.094 2.393 11.163.577 11.825-1.816.66-3.482.665-7.155-9.43" fill="#00AEEF"/><path d="M67.497 114.845c-.415-4.755 1.327-12.425 1.327-12.425s3.04 7.254 3.454 12.009c.413 4.755-.633 5.101-1.954 5.215-1.32.117-2.412-.041-2.827-4.799" fill="#ED1164"/><path d="M80.312 108.82a3.37 3.37 0 0 1 2.012-4.315 3.367 3.367 0 0 1 2.304 6.327 3.366 3.366 0 0 1-4.316-2.012" fill="#00AEEF"/><path fill="#FFC60B" d="M64.286 100.337l-1.82-1.742-2.465.512 1.094-2.267-1.25-2.189 2.494.339 1.694-1.863.45 2.477 2.295 1.036-2.218 1.192z"/><path d="M53.852 84.536a3.369 3.369 0 0 1 2.012-4.316 3.364 3.364 0 0 1 4.313 2.012 3.365 3.365 0 1 1-6.326 2.304" fill="#ED1164"/><path d="M77.513 84.548a1.902 1.902 0 1 1 3.574-1.3c.36.987-.15 2.08-1.135 2.44a1.905 1.905 0 0 1-2.439-1.14" fill="#00AEEF"/><path fill="#FFC60B" d="M89.096 95.956l-2.343-2.242-3.175.659 1.408-2.92-1.609-2.817 3.213.437 2.181-2.403.579 3.193 2.955 1.334-2.855 1.536z"/><path d="M93.038 75.475C82.949 71.8 68.322 62.749 68.322 62.749s17.02 2.473 27.11 6.145c10.088 3.676 10.085 5.343 9.424 7.16-.661 1.817-1.73 3.095-11.818-.58" fill="#00AEEF"/><path d="M107.12 90.46c-3.91-2.739-8.662-9.002-8.662-9.002s7.507 2.33 11.415 5.07c3.906 2.74 3.497 3.765 2.737 4.85-.76 1.087-1.583 1.823-5.49-.917" fill="#ED1164"/><path d="M110.743 76.764a3.368 3.368 0 0 1-2.011-4.313 3.363 3.363 0 0 1 4.313-2.014 3.367 3.367 0 0 1-2.302 6.327" fill="#00AEEF"/><path fill="#FFC60B" d="M93.945 83.596l-2.501.274-1.193 2.219-1.035-2.296-2.476-.45 1.863-1.692-.339-2.496L90.45 80.4l2.266-1.092-.511 2.466z"/><path d="M75.14 81.435a3.366 3.366 0 0 1-2.01-4.315 3.362 3.362 0 0 1 4.315-2.012 3.369 3.369 0 0 1 2.01 4.316 3.365 3.365 0 0 1-4.314 2.011" fill="#ED1164"/><path d="M90.362 63.308a1.903 1.903 0 1 1 1.3-3.576 1.903 1.903 0 0 1-1.3 3.576" fill="#00AEEF"/><path fill="#FFC60B" d="M106.54 61.765l-3.222.353-1.536 2.857-1.332-2.956-3.191-.577 2.4-2.182-.436-3.214 2.815 1.606 2.92-1.407-.659 3.173z"/><path d="M93.393 45.578c-9.298 5.372-25.631 10.764-25.631 10.764s12.835-11.458 22.132-16.829c9.299-5.37 10.572-4.297 11.54-2.622.965 1.676 1.256 3.315-8.04 8.687" fill="#00AEEF"/><g transform="translate(100.623 38.377)"><mask id="f" fill="#fff"><use xlink:href="#e"/></mask><path d="M13.294 6.042c-4.609 1.232-12.46.85-12.46.85s6.61-4.256 11.22-5.489c4.609-1.235 5.13-.261 5.473 1.02.343 1.28.379 2.384-4.233 3.62" fill="#ED1164" mask="url(#f)"/></g><path d="M105.76 32.837a3.366 3.366 0 0 1-3.365-5.833 3.364 3.364 0 0 1 4.596 1.23 3.37 3.37 0 0 1-1.231 4.603" fill="#00AEEF"/><path fill="#FFC60B" d="M100.194 50.103l-1.399 2.093.935 2.34-2.424-.683-1.937 1.61-.1-2.517-2.127-1.345 2.359-.873.62-2.44 1.56 1.977z"/><path d="M86.453 63.126a3.362 3.362 0 0 1-4.596-1.232 3.365 3.365 0 1 1 4.596 1.232" fill="#ED1164"/><path d="M80.204 38.192a1.902 1.902 0 1 1-1.902-3.296 1.902 1.902 0 1 1 1.902 3.296" fill="#00AEEF"/><path fill="#FFC60B" d="M91.575 26.417l-1.802 2.696 1.201 3.014-3.12-.881-2.493 2.076-.127-3.242-2.742-1.732 3.04-1.124.799-3.144 2.008 2.546z"/></g></svg>