<svg width="120" height="120" viewBox="0 0 120 120" xmlns="http://www.w3.org/2000/svg" xmlns:xlink="http://www.w3.org/1999/xlink"><defs><path id="a" d="M0 .35h73.529v116.602H0z"/><path id="c" d="M.042.067h7.114v7.415H.042z"/></defs><g fill="none" fill-rule="evenodd"><g transform="translate(18 2.98)"><mask id="b" fill="#fff"><use xlink:href="#a"/></mask><path d="M.106 87.14c.257 5.425.952 10.828 2.143 16.16.237 1.117.52 2.244.854 3.348 1.006 3.31 2.49 6.423 4.698 8.496 3.677 3.45 7.377 1.297 11.02-.954.679-.42 1.353-.84 2.022-1.258 3.643-2.264 7.186-4.417 11.323-5.877 7.24-2.553 16.184-4.616 22.716.22.424.317.841.66 1.245 1.036 1.747 1.624 3.579 4.28 6.432 2.96 2.74-1.266 4.397-5.606 4.752-8.332 2.087-16.026-4.175-31.759-6.123-47.45-1.271-10.248.795-19.448 5.918-28.02 2.92-4.884 6.802-9.613 6.393-15.606-.252-3.672-3.399-6.865-6.314-8.77-2.81-1.836-6.118-2.66-9.447-2.736-9.288-.21-18.522 4.376-25.973 9.67a68.987 68.987 0 0 0-7.307 5.993C13.718 25.96 7.8 39.885 3.508 53.772c-.75 3.009-1.328 6.085-1.789 9.188C.795 69.166.345 75.484.006 81.68c-.02 1.834.015 3.65.1 5.46" fill="#934813" mask="url(#b)"/></g><path d="M39.009 27.99c-2.362-1.456-5.556-2.504-6.534-5.383-1.06-3.118 1.303-6.448 1.996-9.401.773-3.293.812-7.304-3.482-7.526-4.662-.241-7.004 3.943-8.627 7.698-1.365 3.158-1.661 7.185-.685 10.483.767 2.59 2.081 5.938 4.325 7.54 2.308 1.647 5.34 1.92 8.032 2.435l4.975-5.845zm33.961 8.687c4.943.02 9.646 2.215 13.726 4.823 2.884 1.843 5.69 3.936 8.194 6.312 3.145 2.984 7.06 9.01 6.711 13.563-.34 4.455-4.644 8.302-8.563 4.87-4.51-3.95-3.27-10.806-7.466-14.905-2.826-2.76-8.863-5.837-12.944-5.552l.342-9.111z" fill="#934813"/><g transform="translate(57.15 .314)"><mask id="d" fill="#fff"><use xlink:href="#c"/></mask><path d="M6.216 6.622C8.443 4.528 6.36.57 3.652.128 1.854-.165.656.612.208 2.324c-.703 2.687.918 3.927 3.263 5.158l2.745-.86z" fill="#934813" mask="url(#d)"/></g><path d="M85.71 16.558c4.044.7 5.453-5.012 2.153-6.871-2.495-1.406-6.079-.376-5.802 2.922.178 2.125 1.533 3.582 3.65 3.949M71.123 8.32c-.965-.827-.682-3.048.948-3.016 2.387.048 1.008 4.692-.948 3.016" fill="#3F1708"/><path d="M84.977 15.016c-2.065 2.67-5.1 7.999-9.278 6.772 1.066 1.613 4.74-.076 5.972-.97 2.049-1.489 2.565-3.444 3.155-5.634-.071-.311-.187-.049-.364-.168h.515z" fill="#3F1708"/><path d="M33.386 85.705c.265 7.7 1.181 15.521 3.052 23.008.563 2.253 1.276 4.87 2.405 7.199 3.643-2.264 7.186-4.417 11.323-5.877 7.24-2.553 16.184-4.616 22.716.22 5.912-4.727 5.959-13.817 5.15-20.95-1-8.834-3.277-17.458-4.342-26.29-.777-6.462-.198-12.648.1-19.085.16-3.457-.023-8.334-2.83-10.83-2.28-2.022-5.794-2.238-8.668-1.8-8.392 1.282-17.122 9.858-20.847 17.1-5.712 11.103-8.483 24.9-8.059 37.305M31.93 13.872c-2.274 1.565-6.504.326-5.491-3.853 1.008-4.155 6.768-2.851 6.85 1.07.028 1.289-.538 2.219-1.359 2.783" fill="#AB5C28"/><path d="M92.633 64.403c-.288.798-.824 1.483-1.413 2.083-.746.761-1.912-.408-1.166-1.168.377-.384.831-.918.989-1.355.153-.423.555-.704 1.014-.577.408.112.729.593.576 1.017m1.881 4.009c.42-.51.578-1.317.61-1.95.034-.693-.267-1.257-.337-1.935-.11-1.06 1.54-1.05 1.649 0 .04.392.276.731.318 1.13a6.145 6.145 0 0 1-.055 1.623c-.136.812-.496 1.665-1.02 2.3-.676.824-1.836-.353-1.165-1.168m3.623-.728c-.264.066-.177.206-.094-.148a1.37 1.37 0 0 0-.032-.727c-.094-.314-.364-.545-.45-.86-.067-.241-.071-.386-.307-.537-.894-.57-.068-2.001.832-1.427.443.283.82.692.989 1.2.148.447.421.834.593 1.41.267.892-.082 2.429-1.093 2.682-1.032.259-1.47-1.335-.438-1.593m1.796-2.126c-.001-.358-.017-.72-.17-1.053-.17-.372-.507-.657-.79-.941-.751-.755.415-1.924 1.166-1.169.422.424.855.856 1.108 1.406.254.553.333 1.153.334 1.757.004 1.066-1.646 1.066-1.648 0M37.432 11.234c-.088 1.04-.797 1.723-1.653 2.23-.686.405-1.985.714-2.675.202-.844-.627-.024-2.062.832-1.427.182.135.816-.102 1.01-.202.328-.168.803-.4.837-.803.089-1.054 1.739-1.063 1.649 0m-.653-2.956c-.313.029-.686.367-.982.486-.392.159-.721.696-1.008.991-.743.765-1.908-.405-1.166-1.169.859-.884 1.855-1.842 3.156-1.96.448-.042.824.406.824.826 0 .48-.377.785-.824.826M34.768 5.67c.182-.034.155-.156.035.017-.094.136-.172.283-.256.425a2.426 2.426 0 0 1-.23.326c.302-.364.094-.06.035.148-.18.65-.437 1.45-1.102 1.75-.41.187-.883.123-1.128-.295-.21-.358-.114-.945.295-1.131.171-.078.211-.324.268-.5.12-.373.167-.781.423-1.09-.123.149.076-.146.073-.142.086-.146.173-.29.27-.429.213-.306.497-.603.88-.673 1.038-.191 1.482 1.401.437 1.594m-4.131-2v-.173l1.044.797c.216-.058.352-.494.233-.06-.05.183-.172.332-.23.514-.098.315-.084.658-.084.984-.001 1.066-1.65 1.066-1.649 0 0-.745.064-1.483.456-2.136l-.113.417c.07-.576.343-1.15.948-1.312a.833.833 0 0 1 1.044.796v.173c0 1.065-1.649 1.065-1.649 0" fill="#934813"/></g></svg>