<svg width="120" height="120" viewBox="0 0 120 120" xmlns="http://www.w3.org/2000/svg" xmlns:xlink="http://www.w3.org/1999/xlink"><defs><path id="a" d="M0 .375h120V120H0z"/></defs><g fill="none" fill-rule="evenodd"><g transform="translate(0 .625)"><mask id="b" fill="#fff"><use xlink:href="#a"/></mask><path d="M113.394 38.386H88.475c-3.648 0-6.606-2.948-6.606-6.585V6.961c0-3.638-2.957-6.586-6.606-6.586H44.737c-3.649 0-6.607 2.948-6.607 6.585v24.841c0 3.637-2.957 6.585-6.605 6.585H6.606C2.957 38.386 0 41.334 0 44.972v30.431c0 3.636 2.958 6.585 6.607 6.585h24.92c3.647 0 6.604 2.95 6.604 6.586v24.84c0 3.637 2.958 6.585 6.607 6.585h30.526c3.65 0 6.606-2.948 6.606-6.585v-24.84c0-3.637 2.958-6.586 6.606-6.586h24.92c3.647 0 6.604-2.949 6.604-6.585v-30.43c0-3.639-2.957-6.587-6.605-6.587" fill="#B3B4B5" mask="url(#b)"/></g><path d="M42.325 109.418V84.606c0-3.674-2.988-6.653-6.674-6.653H10.762c-3.686 0-6.674-2.977-6.674-6.652V50.085c0-3.674 2.988-6.652 6.674-6.652h24.889c3.686 0 6.674-2.98 6.674-6.653V11.968c0-3.674 2.987-6.653 6.673-6.653h22.004c3.685 0 6.674 2.979 6.674 6.653V36.78c0 3.674 2.987 6.653 6.672 6.653h24.89c3.686 0 6.674 2.978 6.674 6.652V71.3c0 3.675-2.988 6.652-6.674 6.652h-24.89c-3.685 0-6.672 2.979-6.672 6.653v24.812c0 3.674-2.989 6.652-6.674 6.652H48.998c-3.686 0-6.673-2.978-6.673-6.652" fill="#333433"/></g></svg>