<svg width="120" height="120" viewBox="0 0 120 120" xmlns="http://www.w3.org/2000/svg" xmlns:xlink="http://www.w3.org/1999/xlink"><defs><path id="a" d="M.07.13h19.97v95.508H.07z"/><path id="c" d="M0 .03h78.573v44.834H0z"/></defs><g fill="none" fill-rule="evenodd"><path d="M30.664 116.006c.233-6.297 3.75-11.892 6.045-17.601a113.394 113.394 0 0 0 5.627-18.374c1.25-5.791 1.629-11.972 4.228-17.381 1.315-2.735 3.325-5.019 4.933-7.572 1.616-2.564 2.52-5.375 2.874-8.376.769-6.513-.585-13.076.284-19.592.09-.682 1.14-.466 1.05.214-.781 5.854.231 11.74-.114 17.611-.156 2.661-.607 5.307-1.638 7.779-1.138 2.73-3.04 4.996-4.682 7.424-3.512 5.19-4.174 11.274-5.312 17.278a115.047 115.047 0 0 1-4.966 18.007c-1.226 3.36-2.65 6.63-4.126 9.886-1.532 3.383-2.994 6.863-3.134 10.624-.025.682-1.094.76-1.069.073" fill="#C35975"/><path d="M57.683 29.16c.243 5.521 2.928 10.653 2.73 16.224-.21 5.862-2.903 11.212-5.666 16.256-1.447 2.644-2.937 5.272-4.149 8.035-1.243 2.834-2.103 5.804-2.943 8.776-1.651 5.845-3.79 11.46-5.972 17.122-2.481 6.442-4.779 13.065-5.066 20.023-.028.681-1.097.76-1.069.073.504-12.201 6.816-22.982 10.21-34.47.872-2.952 1.63-5.937 2.647-8.844.95-2.721 2.193-5.306 3.553-7.844 2.876-5.363 6.23-10.694 7.167-16.815.98-6.41-2.234-12.163-2.51-18.463-.03-.687 1.038-.76 1.068-.073" fill="#C35975"/><g transform="matrix(-1 0 0 1 66.85 24.332)"><mask id="b" fill="#fff"><use xlink:href="#a"/></mask><path d="M19.96 94.888c-1.815-2.976-2.168-6.313-2.084-9.732.078-3.145.299-6.26.176-9.408-.253-6.466-1.379-12.83-4.066-18.75-2.604-5.737-6.234-10.933-8.932-16.62-2.827-5.962-4.238-12.456-3.848-19.06.411-6.95 3.091-13.624 2.73-20.638C3.903 0 2.833-.08 2.869.607 3.195 6.966 1 13.03.304 19.287c-.705 6.348.201 12.83 2.563 18.761 2.334 5.86 5.934 11.087 8.818 16.67 3.205 6.205 4.85 12.768 5.24 19.728.206 3.693-.064 7.334-.126 11.022-.058 3.469.368 6.891 2.206 9.905.355.583 1.315.105.955-.485" fill="#C35975" mask="url(#b)"/></g><path d="M55.287 24.176c-1.703 5.864-.796 12.082-2.275 17.978-.674 2.684-1.932 5.04-3.599 7.234-1.692 2.228-3.667 4.286-4.958 6.791-1.49 2.894-1.444 6.053-1.55 9.22-.1 3.022-.609 5.734-2.007 8.437-1.506 2.909-3.143 5.583-4.141 8.731-.97 3.062-1.653 6.205-2.714 9.24-2.39 6.838-6.166 13.064-9.913 19.225-.355.584-1.314.107-.955-.484 3.373-5.547 6.77-11.135 9.158-17.192 1.217-3.088 1.998-6.288 2.914-9.471.825-2.868 1.905-5.554 3.376-8.154.763-1.348 1.556-2.69 2.138-4.128.645-1.593.92-3.263 1.025-4.971.182-2.982-.058-6.047.877-8.931 1.675-5.168 6.536-8.434 8.551-13.428 2.6-6.44 1.104-13.699 3.024-20.31.19-.657 1.241-.449 1.05.213m-4.345-1.743c-.824 3.1-.676 6.296-.874 9.468-.183 2.942-.79 5.673-2.33 8.213-1.56 2.576-3.58 4.834-4.784 7.622-1.158 2.679-1.758 5.557-2.807 8.276-.515 1.332-1.146 2.608-1.963 3.782-.877 1.261-1.942 2.39-2.761 3.691-1.81 2.874-1.637 6.247-1.68 9.506-.079 5.833-1.857 11.262-4.168 16.566-2.754 6.319-6.08 12.464-7.43 19.285-.133.675-1.183.462-1.05-.214C23.432 96.83 31.979 86.84 32.63 74.64c.162-3.029-.204-6.166.692-9.112.872-2.865 3.118-4.758 4.589-7.278 1.577-2.704 2.239-5.798 3.235-8.735.898-2.649 2.212-4.936 3.825-7.208 1.052-1.483 2.135-2.973 2.851-4.655.683-1.602.983-3.326 1.132-5.052.3-3.472.036-6.98.94-10.38.176-.663 1.227-.454 1.05.213m-10.311 95.123c1.85-3.061 1.569-6.479 1.598-9.91.03-3.402.111-6.84.707-10.198 1.145-6.442 4.353-12.234 7.33-17.977 1.51-2.911 2.982-5.851 4.129-8.926 1.272-3.41 2.07-6.97 3.026-10.476.952-3.49 2.326-6.841 3.293-10.323.881-3.166 1.049-6.317.736-9.577-.614-6.402-2.564-12.978-.193-19.25.243-.643 1.197-.155.956.484-2.173 5.747-.446 11.956.215 17.819.336 2.981.403 5.98-.219 8.93-.73 3.463-2.157 6.732-3.166 10.115-1.018 3.414-1.772 6.9-2.847 10.298-.98 3.102-2.29 6.07-3.743 8.979-2.976 5.958-6.52 11.767-8.088 18.304-.935 3.894-1.046 7.933-1.069 11.92-.02 3.56.206 7.102-1.71 10.272-.353.585-1.312.107-.955-.484" fill="#C35975"/><path d="M57.432 116.133c-1.424-2.792-1.797-5.934-2.282-8.991-.539-3.397-1.021-6.807-1.242-10.24-.425-6.612.211-13.355 3.301-19.316 2.771-5.345 6.957-9.807 9.719-15.155 1.447-2.802 2.398-5.824 2.428-8.996.03-3.234-.721-6.405-1.535-9.514-1.718-6.564-3.878-14.14.053-20.364.364-.577 1.324-.1.955.484-3.584 5.675-1.827 12.61-.232 18.631 1.509 5.698 2.714 11.41.651 17.139-1.997 5.544-5.998 10.041-9.142 14.939-1.695 2.64-3.126 5.421-3.986 8.45-.925 3.254-1.273 6.641-1.267 10.018.006 3.77.426 7.528.97 11.256.532 3.654.801 7.734 2.502 11.07.31.607-.58 1.203-.893.59" fill="#C35975"/><g transform="matrix(-1 0 0 1 100 .134)"><mask id="d" fill="#fff"><use xlink:href="#c"/></mask><path d="M55.239 1.875c10.1 2.809 21.264 11.223 23.166 22.044.499 2.84-.089 5.992-2.1 8.06-2.582 2.652-7.317 2.779-10.037.269-.753 3.05-3.742 5.261-6.873 5.577-3.131.315-6.28-1.05-8.58-3.194.05 2.094-1.566 3.907-3.414 4.9-4.054 2.179-9.577 1.11-12.522-2.423.515 1.26-.02 2.764-.988 3.723-.968.958-2.29 1.469-3.599 1.85-2.475.721-5.115 1.07-7.638.541-2.524-.528-4.92-2.023-6.13-4.296.057 1.643-.858 3.226-2.16 4.232-1.303 1.006-2.949 1.489-4.588 1.648-2.257.22-4.624-.167-6.525-1.401-5.7-3.701-2.623-14.066-.402-18.95 1.62-3.56 3.933-6.772 6.534-9.695.294-.33.592-.657.895-.98 3.03-3.244 6.474-6.122 10.368-8.247C31.468-.37 43.413-1.413 55.24 1.875" fill="#F29B9E" mask="url(#d)"/></g><path d="M86.845 24.351c4.152-5.362 10.583 3.728 5.903 6.387-.654.372-1.434.465-2.186.435-.91-.036-1.829-.249-2.604-.726-1.986-1.222-2.54-4.254-1.113-6.096m6.704 8.792c1.68-2.169 4.28 1.508 2.388 2.584-.265.15-.58.188-.885.176-.368-.015-.74-.101-1.053-.294-.804-.494-1.027-1.72-.45-2.466" fill="#F8CDD2"/><path d="M50.335 24.898c-.149-1.871-2.71-2.269-3.288-.414-.203.65-1.255.444-1.05-.213.395-1.27 1.564-2.233 2.947-2.089 1.366.142 2.355 1.316 2.46 2.643.055.687-1.015.758-1.069.073m19.169 3.897c-.149-1.87-2.711-2.269-3.288-.414-.203.651-1.255.445-1.05-.213.395-1.27 1.564-2.232 2.947-2.088 1.366.142 2.354 1.316 2.46 2.642.054.687-1.015.759-1.07.073m-9.121 4.384c-1.99 2.644-6.067 1.868-6.993-1.289-.193-.66.82-1.006 1.014-.344.711 2.425 3.67 2.926 5.18.92.414-.55 1.211.165.799.713" fill="#1D1D1B"/></g></svg>