<svg width="120" height="120" viewBox="0 0 120 120" xmlns="http://www.w3.org/2000/svg" xmlns:xlink="http://www.w3.org/1999/xlink"><defs><path id="a" d="M.2.3h13.173v5.567H.2z"/></defs><g fill="none" fill-rule="evenodd"><path d="M81.13 59.836c3.576 4.579 4.95 18.352 4.95 18.352l-.006-.062c.461.666.784 1.535.887 2.503.244 2.303-.858 4.306-2.457 4.475-1.046.112-2.046-.587-2.683-1.73-.593.493-1.178.69-1.6.466-.787-.418-.692-2.137.207-3.838.343-.645.755-1.2 1.178-1.614.033-.068.07-.138.106-.204 0 0-1.555-9.946-3.212-12.3-.833-1.18-1.37-1.84-1.56-2.363-.153-.42-.32-1.22-.389-1.527-.533-2.359-3.451-7.686-3.451-7.686s6.287 3.298 8.03 5.528M32.788 44.5c1.174-.498 2.581-.04 3.72 1.056.515-.776 1.127-1.21 1.69-1.103 1.059.207 1.555 2.232 1.11 4.523-.169.873-.452 1.663-.795 2.292a4.751 4.751 0 0 1-.205.811l5.37 6.313 11.385-4.085s-1.933 3.077-2.412 4.196c-.345.818-1.021 3.408-1.021 3.408s-8.316 3.387-10.678 2.528c-2.919-1.06-6.265-10.574-6.265-10.574l.003-.002c-1.257-.445-2.472-1.647-3.175-3.307-1.095-2.582-.52-5.296 1.273-6.055" fill="#FDDFBB"/><path d="M73.986 112.383c1.76 1.084 3.036 3.381 1.53 5.191-1.137 1.275-2.813.302-4.084-.233-1.41-.67-3.015-1.122-4.29-1.993-.82-.577-1.788-1.266-2.342-2.125-.174-.262-.254-.583-.194-.84h9.38zm-20.039 0c-1.758 1.084-3.036 3.381-1.529 5.191 1.139 1.275 2.813.302 4.086-.233 1.407-.67 3.013-1.122 4.288-1.993.823-.577 1.79-1.266 2.342-2.125.175-.262.254-.583.192-.84h-9.379z" fill="#616160"/><path fill="#333433" d="M76.101 86.81l-1.917 25.638H64.48l-.372-18.54h-.282l-.372 18.54h-9.703l-1.915-25.639z"/><path d="M45.122 57.547s2.364-1.095 10.385-3.487c2.23-1.067 6.729-1.324 6.729-1.324l1.715.056h.145l1.713-.023s5.103.205 7.13 1.455v.006c7.874 3.04 10.178 7.982 10.178 7.982-.808 3.188-5.336 3.193-5.336 3.193l-.44-.648c1.961 9.693 2.211 22.047 2.211 22.047H48.497s.295-14.888 2.837-24.78L46.47 63.96s-2.157-3.726-1.347-6.413" fill="#F6B90C"/><path d="M86.104 32.697c.165-1.093.25-2.212.25-3.35 0-12.318-9.974-22.301-22.279-22.301-12.3 0-22.274 9.983-22.274 22.301 0 1.084.076 2.154.227 3.199-1.285.705-2.153 2.034-2.153 3.558 0 2.264 1.905 4.097 4.25 4.097.164 0 .319-.008.472-.025 3.807 6.844 11.102 11.47 19.478 11.47 8.37 0 15.66-4.617 19.47-11.45.064.005.13.005.197.005 2.352 0 4.255-1.833 4.255-4.097 0-1.419-.752-2.673-1.893-3.407" fill="#FDDFBB"/><path d="M55.606 34.275c0 1.384-.826 2.503-1.85 2.503-1.018 0-1.845-1.119-1.845-2.503 0-1.382.827-2.504 1.846-2.504 1.023 0 1.85 1.122 1.85 2.504m19.857 0c0 1.384-.827 2.503-1.848 2.503-1.02 0-1.847-1.119-1.847-2.503 0-1.382.826-2.504 1.847-2.504s1.848 1.122 1.848 2.504" fill="#FFF"/><path d="M54.902 34.966c0 .854-.51 1.55-1.145 1.55-.63 0-1.143-.696-1.143-1.55 0-.859.513-1.55 1.143-1.55.634 0 1.145.691 1.145 1.55m19.859 0c0 .854-.512 1.55-1.145 1.55-.63 0-1.144-.696-1.144-1.55 0-.859.514-1.55 1.144-1.55.633 0 1.145.691 1.145 1.55" fill="#343434"/><path d="M50.797 31.21c1.817-1.122 4.49-1.833 4.49-1.833.32-.592.034-1.598-.386-1.658-1.333-.19-4.104 3.49-4.104 3.49m25.787.001c-1.819-1.122-4.493-1.833-4.493-1.833-.316-.592-.033-1.598.388-1.658 1.333-.19 4.105 3.49 4.105 3.49" fill="#AD6920"/><path d="M87.238 26.436a43.737 43.737 0 0 0-.267-4.094c-2.99-9.813-12.108-16.953-22.89-16.953-9.387 0-17.513 5.408-21.431 13.287-1.085 3.097-1.75 6.142-1.804 7.516-.193 4.77 3.281 11.911 3.281 11.911-.417-7.85-.33-7.83 1.563-9.194 2.348-1.69 7.301-4.844 9.213-7.018.364-.416 1.118-1.908 1.118-1.908s-.074 1.171.58 1.689c3.944 3.113 15.573-.35 19.983 2.052 3.61 1.968 7.99 14.38 7.99 14.38 1.784-3.38 2.7-9.046 2.664-11.668" fill="#AD6920"/><path d="M62.34 54.207h3.639c1.043 0 1.884-2.239 1.884-3.263h-7.406c0 1.024.843 3.263 1.882 3.263" fill="#FDDFBB"/><path d="M61.251 53.516l6.587-2.173.012-.014a22.388 22.388 0 0 1-3.77.319c-1.229 0-2.434-.102-3.608-.29.068.637.362 1.523.78 2.158" fill="#EEAC6C"/><path d="M87.858 30.918H40.465l8.705 1.295c-.377 1.343-1.094 4.765.188 6.484 1.988 2.673 11.249-.875 13.315-3.486.738-.933.767-3.008 1.62-3.008.852-.005.89 2.064 1.629 2.998 2.067 2.613 11.327 6.182 13.318 3.51 1.279-1.72.562-5.155.186-6.502l8.432-1.291z" fill="#DBDBDB"/><path d="M52.617 33.295a.572.572 0 0 1-.171.794l-1.992 1.29a.578.578 0 0 1-.792-.172l-.006-.007a.575.575 0 0 1 .171-.794l1.995-1.287a.573.573 0 0 1 .791.172l.004.004zm-.817 2.817c0 .35-.285.64-.64.64a.641.641 0 1 1 0-1.283.64.64 0 0 1 .64.643" fill="#C4C4C4"/><path d="M40.466 30.899l8.704 1.303c-.004.017-.037.074-.016.072 6.326-1.357 14.884 0 14.884 0a.478.478 0 0 1 .508 0s9.16-1.193 14.895 0c.023.002-.01-.055-.015-.074l8.432-1.301H40.466z" fill="#333433"/><path d="M41.41 23.03c0 10.86 5.469 8.474 10.627 6.685 11.885-4.126 11.885-4.126 23.426.163 5.398 2.005 11.414 4.662 11.414-6.848 0 0-11.042-7.198-22.957-7.198-14.475 0-22.51 7.198-22.51 7.198" fill="#CC3A48"/><path d="M44.884 31.139c.806.192 1.71.14 2.676-.048l-2.154-10.727a28.446 28.446 0 0 0-2.63 1.622l2.108 9.153zm35.472.329c.948.19 1.845.253 2.656.093l2.192-9.523a56.93 56.93 0 0 0-2.672-1.394l-2.176 10.824z" fill="#2AA73F"/><path d="M41.317 23.055s21.886-6.134 45.525 0c2.51-2.516-5.516-21.619-22.533-21.619-17.556 0-25.315 19.292-22.992 21.62" fill="#E63744"/><path d="M41.317 28.745l1.526 1.345C38.195-6.163 90.194-5.852 85.13 30.046c0 0 1.138-1.45 1.71-1.301C89.354 26.229 88.494.735 64.31.735c-24.78 0-25.315 25.682-22.992 28.01" fill="#333433"/><path d="M45.87 34.111c1.422 4.256 1.422 8.094-.002 8.572-1.426.478-5.206-1.885-6.627-6.139-1.422-4.258.045-8.801 1.473-9.277 1.424-.478 3.732 2.584 5.156 6.844m36.195 0c-1.421 4.256-1.421 8.094.007 8.572 1.421.478 5.201-1.885 6.623-6.139 1.422-4.258-.045-8.801-1.471-9.277-1.422-.478-3.735 2.584-5.159 6.844M74.887 54.37c-1.354-1.166-6.442-1.537-6.442-1.537l-4.299 5.715-4.31-5.715s-5.097.37-6.451 1.538c-2.397 7.632-6.535 28.077-4.662 32.6 1.926 2.131 14.216.097 15.423-.11 1.205.207 13.485 2.241 15.41.11 1.872-4.523-2.272-24.968-4.67-32.6" fill="#0C5D89"/><path d="M78.38 87.59a.58.58 0 0 0 .064-.016V69.658c-.02-.12-.041-.236-.064-.351V87.59zm.254-.078a.778.778 0 0 0 .064-.025v-16.38c-.02-.12-.041-.246-.064-.37v16.775zm.256-.097c.021-.01.044-.023.065-.03V72.648c-.02-.13-.044-.263-.064-.395v15.161zm.255-.127c.023-.012.043-.027.062-.037V74.31a14.23 14.23 0 0 0-.062-.428v13.405zm.258-.171l.062-.056v-10.91l-.062-.481v11.447zm.253-.427c.022-.068.045-.139.066-.215V78.31c-.02-.193-.044-.385-.066-.584v8.963zm.258-1.246c.025-.207.043-.422.062-.653v-3.323c-.019-.335-.04-.675-.062-1.024v5zm-9.708 2.228c.02.002.042.004.062.008V53.031a.323.323 0 0 1-.062-.01v34.651zm.257.026c.02.002.043.004.062.004V53.07c-.02-.006-.042-.008-.062-.01v34.638zm.254.022l.064.006v-34.62c-.023-.005-.043-.007-.064-.01v34.623zm.256.023l.062.004V53.145c-.018-.006-.041-.008-.062-.01v34.608zm.254.021l.064.004V53.189c-.02-.004-.04-.012-.064-.012v34.587zm.255.021c.023.002.043.002.064.002V53.233c-.02-.006-.041-.008-.064-.014v34.566zm.256.02c.02 0 .041 0 .064.006v-34.53c-.023-.003-.043-.009-.064-.013v34.537zm.254.017c.023.002.044.002.065.005V53.33c-.021-.007-.042-.009-.065-.013v34.504zm.258.018l.063.003V53.384l-.062-.012V87.84zm.255.017l.064.002V53.444c-.02-.009-.043-.01-.064-.017v34.43zm.256.015c.02.002.042.002.062.002v-34.37c-.02-.002-.041-.01-.062-.016v34.384zm.255.011c.022.004.043.004.064.006V53.573c-.02-.008-.042-.01-.064-.018v34.328zm.256.015c.02 0 .041 0 .062.002V53.644c-.02-.006-.041-.01-.062-.018v34.272zm.254.01h.064V53.727a.475.475 0 0 0-.064-.02v34.201zm.257.008h.062V53.814c-.021-.007-.042-.017-.062-.021v34.123zm.252.01h.066V53.92l-.066-.03v34.037zm.258.004c.02 0 .041 0 .064.003v-33.9l-.064-.03v33.928zm.254.005h.065V54.173c-.021-.01-.042-.025-.065-.04v33.802zm.257.001h.064V54.354a.778.778 0 0 0-.064-.052v33.634zm.254-.001h.064V55.144a6.41 6.41 0 0 0-.064-.214v33.005zm.256-.003h.064V56.03c-.02-.077-.043-.153-.064-.225v32.128zm.255-.004h.064V56.953l-.064-.234v31.209zm.258-.011h.062v-30l-.062-.244v30.244zm.253-.007c.022 0 .045 0 .065-.003V58.92a8.54 8.54 0 0 0-.066-.252V87.91zm.258-.017c.02 0 .041 0 .062-.002V59.958l-.062-.265v28.2zm.252-.018c.025 0 .045 0 .066-.002V61.03c-.023-.09-.041-.182-.066-.27v27.115zm.258-.021l.062-.004V62.137l-.062-.28v25.997zm.252-.03l.067-.004V63.282c-.023-.097-.044-.196-.067-.29v24.832zm.259-.029a.646.646 0 0 0 .062-.01V64.46l-.062-.296v23.63zm.252-.039c.025-.002.043-.008.066-.01v-22.06c-.023-.103-.041-.207-.066-.308v22.378zm.259-.046l.063-.012v-20.74l-.064-.322V87.71zm.254-.054c.023-.004.043-.01.062-.015V68.278a9.53 9.53 0 0 0-.062-.335v19.713zm-16.092-.465c.023-.002.044-.008.062-.01V55.83l-.062-.085V87.19zm.255-.036a.276.276 0 0 1 .062-.01V56.167l-.062-.083v31.07zm.256-.039c.023-.002.043-.008.062-.01v-30.6l-.062-.083v30.693zm.254-.038c.02-.002.044-.008.064-.01V56.846l-.064-.082v30.314zm.257-.04c.022-.004.043-.008.062-.008V57.185l-.062-.087v29.94zm.256-.042c.02 0 .043-.004.062-.008V57.522l-.062-.083v29.557zm.254-.039c.023-.002.044-.006.064-.009V57.861l-.064-.085v29.18zm.256-.041c.021-.004.044-.006.063-.012V58.199l-.062-.085v28.802zm.255-.042a1.09 1.09 0 0 0 .062-.013V58.54l-.062-.087v28.422zm.256.019l.062.008V58.217l-.062.083v28.593zm.255.041c.02.005.04.007.064.01V57.879l-.064.083v28.973zm.256.043c.02 0 .043.006.062.01v-29.45l-.062.085v29.355zm.256.037c.02.006.041.009.062.013V57.198l-.062.083v29.733zm.254.043l.065.008V56.858l-.065.085v30.114zm.257.039l.062.008V56.521l-.062.083v30.492zm.254.037l.064.009v-30.96l-.064.08v30.871zm.257.037c.02.004.043.006.061.008V55.84l-.062.086V87.17zm.254.034c.02.006.043.008.064.013V55.5l-.064.085v31.618zm.256.038c.02.004.041.008.062.01v-32.09l-.062.085v31.995zm.256.036c.021.002.044.008.062.01V54.822l-.062.085v32.37zm.254.034a.73.73 0 0 1 .065.01V54.487l-.064.083v32.743zm.257.035l.062.008v-33.21l-.062.084v33.118zm.254.033c.02.003.044.003.064.01V53.805l-.064.085v33.49zm.256.035c.021.002.044.002.062.006V53.468l-.062.08v33.867zm.255.03c.02.002.041.004.064.008V53.129l-.064.083v34.233zm.256-34.572v34.604l.062.008V52.836l-.035-.002-.027.04zm.256 34.632l.062.009V52.86c-.02-.004-.045-.006-.062-.008v34.653zm.255.031c.02.003.043.003.064.007v-34.66a.6.6 0 0 1-.064-.008v34.661zm.256.027a.32.32 0 0 0 .062.01V52.908a.444.444 0 0 1-.062-.005v34.66zm.255.029l.063.006V52.937l-.064-.006v34.661zm.256.028c.02.004.04.004.062.006v-34.66l-.062-.006v34.66zm.254.026c.02.004.043.004.064.004V52.999c-.02-.004-.043-.004-.064-.006v34.653z" fill="#373737"/><path d="M63.984 58.334V86.89c.066-.013.122-.021.161-.027.042.006.095.014.162.027V58.334l-.162.213-.16-.213z" fill="#1D1D1D"/><path d="M74.612 70.452a3.897 3.897 0 1 1-7.793 0V64.83a3.9 3.9 0 0 1 3.897-3.902 3.898 3.898 0 0 1 3.896 3.902v5.623z" fill="#0C5D89"/><path fill="#5A5A5A" d="M32.358 32.118l8.54 55.27 1.37-1.527-8.335-53.985z"/><path fill="#333433" d="M30.59 31.08l7.474 48.381-.928.844.959 6.203 2.604-.401-8.538-55.27z"/><path d="M40.754 81.264L38.49 66.589a1.948 1.948 0 0 0-2.22-1.628 1.95 1.95 0 0 0-1.628 2.224l2.722 14.605c1.238-1.734 3.391-.526 3.391-.526" fill="#C16C17"/><path fill="#5A5A5A" d="M34.344 31.812l7.903 54.097-.012.002-8.347-54.029z"/><path fill="#333433" d="M34.883 35.501l-.426.066-.3-1.947.441-.066zm.549 3.771l-.393.065-.3-1.95.408-.061zm.553 3.774l-.362.056-.301-1.947.378-.056zm.551 3.772l-.333.052-.301-1.947.349-.05zm.551 3.772l-.302.048-.3-1.947.317-.05zm.551 3.772l-.27.04-.3-1.945.287-.041zm.551 3.775l-.238.035-.303-1.947.256-.04zm.551 3.772l-.209.03-.3-1.946.224-.033zm.553 3.769l-.18.027-.297-1.943.19-.033zm-1.788 23.798c.574-.09 1.17.664 1.329 1.688.157 1.02-.182 1.922-.76 2.01-.575.09-1.17-.665-1.33-1.687-.159-1.022.184-1.924.761-2.01m-.02-.115c-.61.096-.97 1.051-.803 2.133.166 1.087.798 1.887 1.408 1.792.612-.095.973-1.05.808-2.135-.17-1.084-.802-1.885-1.414-1.79"/><path d="M38.805 90.85l-.164.024c-.022 1.132-.79 1.43-1.244.277-.056.273.164 1.517 1.395.76l.135-.021-.033-.571-.09-.47z" fill="#333433"/><path d="M36.839 117.31c-3.427-3.191 1.118-13.703-1.356-18.692 3.265-.796 3.342-7.388 3.342-7.388l2.604-.406c-1.372 8.382 1.903 25.482 1.903 25.482s-5.29 2.125-6.493 1.003" fill="#C16C17"/><path d="M41.895 88.633c.138.573.888.862 1.173 1.16.356.37.831 1.627-.18 2.05.151-.738-.152-1.348-.479-1.607-.198-.155-.746-.31-.855-.536-.127-.252.272-1.336.34-1.067" fill="#333433"/><path d="M39.101 82.623l1.034-.162.562 3.646s.851.292 1.57-.246c0 0 .058 4.082-.839 4.963-.47.464-2.604.406-2.604.406l-1.293-8.365a.795.795 0 0 1 1.57-.242" fill="#A5A4A3"/><path d="M42.768 113.054a1.005 1.005 0 0 1-.233.066l-.02.004a.978.978 0 0 1-1.115-.813l-1.874-12.15c-.083-.532 1.455-1.054 1.668-.847.27 5.06 1.037 10.421 1.574 13.74" fill="#333433"/><path d="M39.434 48.663c-.324 2.187-1.41 3.836-2.418 3.685-1.008-.15-1.566-2.045-1.238-4.234.327-2.186 1.408-3.838 2.418-3.686 1.013.15 1.565 2.046 1.238 4.235" fill="#FDDFBB"/><path d="M64.02 39.07c.839-.115 2.96 1.756 2.96 1.756s.103-.414-.34-1.238C66.163 38.703 63.99 38 63.99 38s-1.687.448-2.487 1.604c-.296.29-.503 1.299-.503 1.299s1.895-1.681 3.02-1.834z" fill="#EEAC6C"/><g transform="translate(57 42)"><mask id="b" fill="#fff"><use xlink:href="#a"/></mask><path d="M.2.696S7.097 3.904 13.372.299c0 0-1.39 5.47-5.95 5.561-4.115.122-4.984-1.492-5.477-1.956C1.453 3.441.525 2.132.2.696" fill="#EEAC6C" mask="url(#b)"/></g></g></svg>