<svg width="120" height="120" viewBox="0 0 120 120" xmlns="http://www.w3.org/2000/svg" xmlns:xlink="http://www.w3.org/1999/xlink"><defs><path id="a" d="M0 119.397h66.62V.595H0z"/></defs><g fill="none" fill-rule="evenodd"><path fill="#82E4F4" d="M30.425 119.094h59.77V.758h-59.77z"/><path fill="#C5FCFF" d="M34.47 15.375h52.3V8.688h-52.3zm0 8.708h52.3v-6.686h-52.3zm0 8.708h52.3v-6.686h-52.3zm0 8.708h52.3v-6.686h-52.3zm0 8.708h52.3v-6.686h-52.3zm0 8.708h52.3v-6.687h-52.3zm0 8.708h52.3v-6.686h-52.3zm0 8.708h52.3v-6.686h-52.3zm0 8.709h52.3v-6.687h-52.3zm0 8.707h52.3v-6.686h-52.3z"/><g transform="translate(27 .008)"><path d="M18.834 108.695a2.385 2.385 0 0 1-2.386 2.383h-4.8a2.384 2.384 0 0 1-2.386-2.383v-4.797a2.384 2.384 0 0 1 2.385-2.384h4.801a2.385 2.385 0 0 1 2.386 2.384v4.797zm38.523 0a2.384 2.384 0 0 1-2.385 2.383h-4.801a2.384 2.384 0 0 1-2.385-2.383v-4.797a2.384 2.384 0 0 1 2.385-2.384h4.801a2.385 2.385 0 0 1 2.385 2.384v4.797z" fill="#C5FCFF"/><mask id="b" fill="#fff"><use xlink:href="#a"/></mask><path fill="#3F7380" mask="url(#b)" d="M25.06 119.086h16.499v-14.462h-16.5z"/><path fill="#44C2CF" mask="url(#b)" d="M3.425 98.404h59.77v-1.866H3.425zM0 4.716h66.62V.595H0z"/><path fill="#59B0BE" opacity=".264" mask="url(#b)" d="M33.62.75v118.647h29.575V4.716h3.424V.595z"/></g></g></svg>