<svg width="120" height="120" viewBox="0 0 120 120" xmlns="http://www.w3.org/2000/svg" xmlns:xlink="http://www.w3.org/1999/xlink"><defs><path id="a" d="M.583.61h30.26v20.748H.583z"/><path id="c" d="M.33.326h30.006v17.81H.33z"/></defs><g fill="none" fill-rule="evenodd"><g transform="translate(88.98 54.817)"><mask id="b" fill="#fff"><use xlink:href="#a"/></mask><path d="M.583 10.168C6.832 2.738 25.897-.786 26.784 1.12c.888 1.906-7.795 6.41-7.795 6.41s4.125.016 9.027 1.28c.457.118.966.292 1.16.723.36.797-.625 1.518-1.446 1.816a34.038 34.038 0 0 1-6.564 1.669 32.679 32.679 0 0 1 7.362 3.166c1.302.762 2.728 2.101 2.204 3.516-.421 1.136-1.838 1.48-3.043 1.59-8.613.778-20.768-5.23-27.106-11.122" fill="#380D00" mask="url(#b)"/></g><path d="M40.532 78.968a45.711 45.711 0 0 1-15.454 19.309c-.904.645-1.88 1.276-2.985 1.393-1.103.118-2.359-.444-2.67-1.51-.397-1.36-.287-4.093-.287-4.093s-8.273 3.517-12.725 4.228c-3.97.633-5.654-.888-6.15-1.953-.495-1.065-.577-3.335 2.46-5.973 3.406-2.958 11.414-7.044 11.414-7.044s-2.162-1.672-2.947-2.85c-.616-.925-.24-2.248.56-3.02.8-.77 1.91-1.114 2.985-1.393a45.597 45.597 0 0 1 24.704.556" fill="#380D00"/><path d="M94.19 77.56c2.846-9.452 10.203-32.658 10.203-32.658S92.902 31.876 75.218 25.408c-17.698-6.427-34.862-3.846-34.862-3.846s-8.727 21.24-13.14 31.587c-3.939 9.231-9.845 33.505 21.482 44.923l.202.073c31.325 11.417 42.398-10.973 45.29-20.585" fill="#642710"/><g transform="translate(52.245 11.491)"><mask id="d" fill="#fff"><use xlink:href="#c"/></mask><path d="M16.59 1.264C16.05.749 15.378.22 14.643.344c-.73.122-1.217.879-1.28 1.618-.064.737.195 1.461.452 2.156l.898 2.441a63.861 63.861 0 0 0-5.152-4.764C8.72 1.1 7.22.546 6.757 1.535c-.181.39-.07.847.063 1.255a13.334 13.334 0 0 0 1.804 3.57 11.275 11.275 0 0 0-6.987-3.044c-.302-.02-.622-.022-.882.132-.723.426-.402 1.54.066 2.237 2.348 3.496 6.138 5.74 9.98 7.457a59.729 59.729 0 0 0 19.535 4.994C27.307 15.649 21.57 6.024 16.589 1.264" fill="#380D00" mask="url(#d)"/></g><path d="M110.383 36.591c.59-.037 1.266-.015 1.65.435.382.448.292 1.156-.045 1.638-.337.481-.863.788-1.373 1.08l-1.79 1.024a50.703 50.703 0 0 1 5.56-.263c.864.006 2.059.436 1.835 1.274-.087.329-.388.55-.677.73-.9.56-1.888.983-2.915 1.25a8.949 8.949 0 0 1 5.799 1.718c.191.142.387.304.467.53.223.629-.54 1.142-1.18 1.326-3.206.926-6.654.355-9.864-.564a47.433 47.433 0 0 1-14.417-6.942c3.109.034 11.497-2.886 16.95-3.236" fill="#380D00"/><path d="M32.853 96.726c-4.5.515-7.5 4.842-6.553 9.245.66 3.079 5.484 2.22 4.82-.878-.416-1.932.667-3.319 2.609-3.541 3.132-.36 2.249-5.185-.876-4.826" fill="#CA6E13"/><path d="M31.12 105.093c-.416-1.933.667-3.319 2.609-3.541 0 0-5.355-1.385-6.617 5.793 1.55 1.27 4.54.231 4.007-2.252" fill="#A74E16"/><path d="M54.36 110.949c.46-2.578.085-5.3-1.773-7.262-1.893-1.998-4.563-2.564-7.19-2.853-.035-.101.18-.252.762-.809.815-.78 1.742-1.364 2.741-1.88 2.798-1.445.738-5.896-2.07-4.445-2.763 1.427-6.777 4.074-6.533 7.665.086 1.256.773 2.214 1.663 3 .14.19.294.372.478.534 1.381 1.22 1.318 3.064.562 4.589-.588 1.189.32 2.726 1.465 3.144a2.25 2.25 0 0 0 1.652-.02c.89 1.115 2.855 1.6 4.125.206.036-.04.066-.081.101-.122 1.319.832 3.644.33 4.017-1.747" fill="#CA6E13"/><path d="M45.572 105.645c-2.06-3.294-4.983-3.635-5.208-3.935.18 1.084.792 1.946 1.596 2.655.14.19.295.372.478.534 1.382 1.22 1.318 3.064.563 4.59-.589 1.188.319 2.726 1.464 3.142.128.048 2.956-4.029 1.107-6.986m2.675 8.012c3.33-5.707-.721-8.563-.721-8.563 2.513 3.787-1.408 7.519-1.408 7.519.485.608 1.291 1.014 2.129 1.044m4.591-.799c1.94-6.1-2.046-7.347-2.046-7.347 2.672 3.457.122 6.576-.44 7.19.696.435 1.667.496 2.486.157" fill="#A74E16"/><path d="M42.395 98.313c-4.5.515-7.5 4.843-6.554 9.245.661 3.079 5.485 2.22 4.82-.877-.416-1.933.668-3.319 2.61-3.541 3.132-.36 2.25-5.185-.876-4.827" fill="#CA6E13"/><path d="M40.66 106.68c-.415-1.932.67-3.319 2.61-3.54 0 0-5.354-1.386-6.617 5.792 1.55 1.27 4.54.233 4.008-2.252" fill="#A74E16"/><path d="M54.99 92.08l-3.21-2.737c-1.208.42-6.77 2.3-7.915 2.871-.777.389-1.601.886-1.865 1.712-.112.348-.095.768.157 1.032.146.154.35.237.552.298a4.13 4.13 0 0 0 2.604-.068 6.231 6.231 0 0 0-1.481 2.247c-.182.476-.22 1.162.255 1.35.185.073.394.038.587-.009a6.34 6.34 0 0 0 2.23-1.014c-.498.939.1 2.207 1.076 2.624.977.417 2.154.103 2.978-.567.825-.67 1.349-1.64 1.738-2.63.279-.707 2.135-4.367 2.294-5.109" fill="#642710"/><path d="M44.817 109.361c.462-2.577.087-5.3-1.772-7.261-1.894-1.998-4.563-2.564-7.19-2.854-.034-.1.18-.252.761-.808.817-.78 1.743-1.365 2.742-1.88 2.797-1.446.738-5.896-2.07-4.446-2.763 1.428-6.777 4.074-6.533 7.665.087 1.257.773 2.215 1.663 3 .139.191.295.373.478.534 1.382 1.22 1.319 3.064.563 4.59-.589 1.188.32 2.726 1.464 3.143a2.25 2.25 0 0 0 1.653-.019c.889 1.114 2.854 1.6 4.124.205.036-.039.067-.08.102-.122 1.318.832 3.644.33 4.015-1.747" fill="#CA6E13"/><path d="M36.03 104.058c-2.059-3.295-4.982-3.635-5.208-3.935.18 1.084.792 1.945 1.596 2.655.14.19.295.372.477.534 1.383 1.22 1.32 3.063.564 4.589-.588 1.188.319 2.726 1.464 3.143.128.047 2.956-4.03 1.108-6.986m2.674 8.012c3.33-5.707-.721-8.564-.721-8.564 2.513 3.788-1.408 7.52-1.408 7.52.484.607 1.292 1.014 2.13 1.044m4.589-.8c1.942-6.1-2.044-7.346-2.044-7.346 2.671 3.457.121 6.575-.44 7.19.696.434 1.666.495 2.484.156" fill="#A74E16"/><path d="M45.449 90.492l-3.21-2.736c-1.21.42-6.772 2.298-7.916 2.871-.776.388-1.6.885-1.865 1.712-.111.348-.094.768.156 1.032.146.153.351.236.554.298a4.132 4.132 0 0 0 2.602-.069 6.236 6.236 0 0 0-1.48 2.247c-.182.476-.22 1.162.255 1.35.184.074.394.038.588-.009a6.34 6.34 0 0 0 2.23-1.014c-.499.939.1 2.207 1.076 2.625.976.416 2.153.103 2.978-.567.823-.67 1.348-1.641 1.737-2.63.278-.707 2.135-4.367 2.295-5.11" fill="#642710"/><path d="M45.775 49.79c-.026-14.405-18.328-36.603-21.15-35.285-2.82 1.317 2.752 14.721 2.752 14.721s-4.7-3.92-11.472-7.163c-.63-.303-1.374-.59-2.005-.287-1.168.561-.733 2.321-.084 3.445a50.58 50.58 0 0 0 5.866 8.159 48.49 48.49 0 0 0-11.376-3.43c-2.203-.377-5.1-.218-5.849 1.89-.603 1.693.679 3.436 1.943 4.71 9.043 9.104 28.567 13.881 41.375 13.24" fill="#380D00"/><path d="M93.117 84.46c2.337-8.253 1.701-17.158-1.087-23.661L58.69 48.647c-6.31 3.187-12.514 9.6-16.02 17.426-.907 1.961-1.627 4.7-.8 5.513 1.062 1.04 4.106-1.492 4.117-1.458-.05-.079-3.978 6.302-3.811 10.42.044 2.296 1.477 3.148 2.693 2.94 1.224-.214 2.452-1.346 3.678-2.4-.59 1.328-1.154 2.708-1.453 4.237-.302 1.524-.293 3.253.189 4.435.604 1.497 1.74 1.787 2.734 1.514 1.518-.434 2.922-1.912 4.349-3.272-1.167 3.196-.316 10.097 4.122 11.714 4.438 1.617 10.435-2.786 11.593-5.986.22 1.96.348 3.997 1.231 5.305.586.85 1.643 1.359 3.067.6 1.128-.595 2.244-1.913 2.992-3.275.752-1.364 1.205-2.784 1.606-4.181.262 1.596.477 3.255 1.276 4.206.799.941 2.443 1.212 3.951-.518 2.772-3.048 3.858-10.465 3.77-10.436.029-.019.736 3.88 2.217 3.766 1.156-.09 2.363-2.65 2.926-4.738" fill="#C8B4AB"/><path d="M98.027 71.374c.935-5.14.766-9.896-.248-14.42L58 42.453c-3.682 2.813-6.864 6.35-9.447 10.888-.924 1.62-1.574 3.52-1.405 4.72.268 1.957 4.623-1.717 4.643-1.65-.061-.089-4.562 6.547-4.464 10.497-.004 1.64.951 2.037 1.89 1.46.944-.585 1.917-1.899 2.897-3.131-.884 1.925-1.7 3.932-2.17 6.032-.474 2.101-.549 4.35-.038 5.772.541 1.53 1.618 1.88 2.653 1.4 1.04-.493 2.073-1.717 3.088-3.056-1.237 3.448-2.087 8.426-.67 10.506 1.379 2.06 3.181-.15 4.637-2.399-.365.93-1.603 8.522 2.197 9.907 3.829 1.395 8.095-5.218 8.392-6.07-.33 2.666-.375 5.537 2.01 4.844 2.421-.681 4.965-5.042 6.231-8.48-.082 1.68-.077 3.282.405 4.329.484 1.034 1.534 1.459 2.93.636 1.303-.76 2.69-2.531 3.676-4.447.988-1.91 1.65-3.973 2.21-6.017-.04 1.575-.14 3.208.21 4.264.347 1.045 1.334 1.356 2.383.097 2.612-2.962 3.423-10.943 3.32-10.914.057-.038 1.035 5.579 2.496 4.253.9-.81 1.623-2.684 1.954-4.52" fill="#E2DAD6"/><path d="M93.378 38.54c-5.503.723-10.067 12.235-10.067 12.235s5.172-17.48-5.48-22.27c-10.65-4.79-25.285 5.944-20.003 22.903 6.292 6.124 12.18 14.926 13.396 25.178 7.82-7.76 17.875-12.532 26.468-12.683 5.104-14.04 4.338-26.068-4.314-25.363" fill="#C8B4AB"/><path d="M101.53 55.67c-2.59 7.041-8.187 10.975-11.961 9.06-3.774-1.917-5.356-8.643-3.114-14.811 1.907-5.249 8.702-10.824 12.635-9.297 3.65 1.452 5.03 8.006 2.44 15.048" fill="#3A0D00"/><path d="M87.587 50.35c-2.038 5.6-.93 11.503 2.476 13.186 3.405 1.683 8.032-2.031 10.335-8.298 2.304-6.266 1.195-12.17-2.476-13.185-3.67-1.017-8.299 2.698-10.335 8.298" fill="#FFF"/><path d="M88.218 52.564c-1.649 4.527-.776 9.282 1.949 10.618 2.724 1.336 6.407-1.595 8.226-6.548 1.818-4.954.947-9.707-1.948-10.618-2.895-.911-6.577 2.021-8.227 6.548" fill="#000"/><path d="M79.866 46.568c-2.6 7.038-9.385 10.539-14.434 8.158-5.048-2.38-7.778-9.525-5.537-15.693 1.909-5.25 10.061-10.33 15.275-8.335 4.841 1.886 7.295 8.832 4.696 15.87" fill="#3A0D00"/><path d="M61.395 39.598c-2.038 5.6 0 11.841 4.55 13.942 4.55 2.1 10.111-1.274 12.422-7.538 2.31-6.263.274-12.504-4.55-13.942-4.822-1.436-10.385 1.939-12.422 7.538" fill="#FFF"/><path d="M62.437 41.962c-1.65 4.527-.038 9.55 3.603 11.22 3.64 1.67 8.07-.99 9.893-5.941 1.825-4.95.21-9.975-3.603-11.22-3.814-1.246-8.243 1.414-9.893 5.94" fill="#000"/><path d="M93.816 36.064l-.025.01c-.862.297-1.669.891-2.462 1.477.664-1.115 1.345-2.272 1.62-3.548.277-1.276.038-2.711-.837-3.233l-.014-.005c-1.005-.164-2.109.782-2.716 1.937-.608 1.155-.829 2.48-1.037 3.762-.23-.96-.467-1.934-.936-2.716a.225.225 0 0 0-.014-.024c-.798-1.309-2.69-.478-3.083 1.293-.437 1.973-.279 4.118-.078 6.072l.584 5.682 2.597.947 4.095-3.976c1.408-1.368 2.906-2.91 3.837-4.703.836-1.61-.08-3.464-1.531-2.975" fill="#380D00"/><path d="M82.277 50.332s-.578 3.26 1.552 4.038c2.132.777 3.287-2.4 3.287-2.4l-4.839-1.638z" fill="#A44118"/><path d="M87.646 45.268c-1.42-.53-4.274 1.647-5.6 5.523l7.554 2.593s-.535-7.586-1.954-8.116" fill="#CA6E13"/></g></svg>