<svg width="120" height="120" viewBox="0 0 120 120" xmlns="http://www.w3.org/2000/svg"><g fill="none" fill-rule="evenodd"><path d="M24.372 37h50.654c7.818 0 13.355 16 17.678 16h10.97C109.406 53 114 57.686 114 63.494v6.835c0 2.032-1.573 3.471-3.58 3.471H10.568C8.56 73.8 7 72.361 7 70.329V54.556C7 45.828 18.225 37 24.372 37" fill="#E57234"/><path d="M7 60.636s2.764-.212 2.764 2.294v1.406c0 1.604-1.58 1.9-2.764 1.9v-5.6" fill="#DA3434"/><path d="M110.052 60.129v-4.207c0-.263-.075-.52-.024-.768 2.472 1.922 3.972 4.938 3.972 8.34v.378c0 .016-.172.042-.313.042-2.064 0-3.635-1.695-3.635-3.785" fill="#F3EE84"/><path d="M57.144 41.924c0-1.394-1.115-2.524-2.491-2.524H37.13c-1.376 0-2.492 1.13-2.492 2.524v9.352c0 1.394 1.116 2.524 2.492 2.524h17.523c1.376 0 2.49-1.13 2.49-2.524v-9.352m-46.888 9.303C9.95 52.586 11.37 53.8 12.746 53.8h16.608c1.376 0 2.126-1.11 2.126-2.504v-9.254c0-1.394-.75-2.642-2.126-2.642H22.71c-5.19 0-11.572 7.91-12.456 11.827m50.838.069c0 1.393.932 2.504 2.308 2.504h19.1c1.376 0 2.491-1.048 2.491-2.573 0-4.259-6.366-11.827-10.795-11.827H63.4c-1.376 0-2.308 1.248-2.308 2.642v9.254" fill="#9AC6D2"/><path d="M110.42 73.8H10.568C8.56 73.8 7 72.361 7 70.329V69h107v1.329c0 2.032-1.573 3.471-3.58 3.471" fill="#BD632F"/><path d="M107.124 73.8c0-6.4-4.72-10.68-10.54-10.68-5.824 0-10.543 4.28-10.543 10.68h21.083" fill="#BD632F"/><path d="M88.389 74.543c0 4.621 3.698 8.367 8.26 8.367 4.561 0 8.258-3.746 8.258-8.367 0-4.622-3.697-8.367-8.258-8.367-4.562 0-8.26 3.745-8.26 8.367" fill="#2B2D2C"/><path d="M91.098 74.543c0 3.105 2.485 5.623 5.55 5.623 3.067 0 5.552-2.518 5.552-5.623 0-3.107-2.485-5.624-5.551-5.624-3.066 0-5.55 2.517-5.55 5.624" fill="#A2A5A5"/><path d="M38.202 73.8c0-6.4-4.72-10.68-10.541-10.68-5.823 0-10.542 4.28-10.542 10.68h21.083" fill="#BD632F"/><path d="M19.466 74.543c0 4.621 3.699 8.367 8.26 8.367 4.562 0 8.258-3.746 8.258-8.367 0-4.622-3.696-8.367-8.258-8.367-4.561 0-8.26 3.745-8.26 8.367" fill="#2B2D2C"/><path d="M22.176 74.543c0 3.105 2.485 5.623 5.55 5.623 3.067 0 5.551-2.518 5.551-5.623 0-3.107-2.484-5.624-5.55-5.624s-5.55 2.517-5.55 5.624" fill="#A2A5A5"/><path d="M61.02 58.8c0 .5.372 1 .83 1h5.84c.46 0 .83-.5.83-1s-.37-1-.83-1h-5.84c-.458 0-.83.5-.83 1m-18.09-.159a.836.836 0 0 0-.83-.841h-5.842a.836.836 0 0 0-.83.841v.318c0 .465.372.841.83.841H42.1c.458 0 .83-.376.83-.841v-.318" fill="#2B2D2C"/><path d="M85.967 51.343c0-.967-.966-1.727-1.922-1.727l-6.796-.04c-.955 0-1.548.76-1.548 1.726v2.402c0 .967.52 1.548 1.475 1.548l6.9.04c.955 0 1.89-.58 1.89-1.548v-2.401" fill="#BD632F"/></g></svg>