<svg width="165" height="145" viewBox="0 0 165 145" xmlns="http://www.w3.org/2000/svg"><g transform="translate(6 5)" fill="none"><path d="M154.932 46.89c-.128-1.367-6.296-.401-6.276-2.544.02-2.143 5.569-1.603 4.794-2.38-.435-.448-28.659-.585-52.972-.765v10.476c19.515.336 40.049.588 40.376.592 2.829 0 12.42-.024 12.153-.749-.268-.725-4.535-.729-4.207-2.455.328-1.727 6.26-.806 6.132-2.176z" fill="#E6BE6E"/><path d="M144.482 41.758c.283-.42.667-.4 1.03-.597 1.414-.801 2.964-1.75 2.956-2.404 0-.8-10.218 1.078-8.788 6.93 1.162 4.768 5.668 2.597 5.397-1.854-.04-.569-.863-1.65-.595-2.075z" fill="#BE965A"/><path d="M57.97 40.776c-24.957.193-55.677.32-56.132.802-.767.8 4.793.22 4.793 2.38 0 2.158-6.152 1.177-6.28 2.543-.127 1.366 5.801.433 6.129 2.163.327 1.73-3.943 1.727-4.21 2.456-.269.729 9.323.76 12.151.749.348 0 23.147-.285 43.544-.65l.004-10.443z" fill="#E6BE6E"/><path d="M10.818 41.357c-.284-.42-.671-.4-1.035-.597-1.41-.8-2.964-1.75-2.956-2.403 0-.801 10.219 1.077 8.789 6.93-1.163 4.767-5.665 2.596-5.397-1.855.04-.568.879-1.65.599-2.075z" fill="#BE965A"/><path d="M65.404 72.475l-7.08 4.006c.74 5.208 13.515 8.38 24.325 9.074 10.81.693 21.001-4.996 21.001-4.996l-38.246-8.084z" fill="#006482"/><path fill="#281446" d="M67.589 70.108h25.779V82.13H67.589z"/><path fill="#E6BE6E" d="M91.514 108.116l5.669-6.67-.204-9.542-10.63-.489.767 10.408z"/><path fill="linen" d="M97.37 123.45l-.187-22.004-10.191.28.81 20.884z"/><path fill="#281446" d="M99.871 96.33l.248-21.808-16.59-.032 1.721 22.093z"/><path fill="#00A0DC" d="M105.28 133.774l-6.607-.861-11.366.625.236 1.302 18.049.132z"/><path d="M104.098 132.48a27.185 27.185 0 0 1-3.556-.428l-2.796-12.567H87.299v14.053l17.977.236a7.965 7.965 0 0 1-.4-1.05 3.213 3.213 0 0 0-.778-.244z" fill="#281446"/><ellipse fill="#00A0DC" cx="92.165" cy="125.438" rx="3.072" ry="3.081"/><path fill="#006482" d="M99.108 122.481h-3.056l-.252-.78h3.168z"/><path fill="#00A0DC" d="M99.452 124.308H96.4l-.252-.785h3.164z"/><path fill="#006482" d="M99.8 126.13h-3.057l-.252-.784h3.168z"/><path fill="#00A0DC" d="M100.147 127.954H97.09l-.252-.786h3.168z"/><path fill="#006482" d="M100.49 129.776h-3.052l-.251-.78h3.168z"/><path fill="#E6BE6E" d="M62.731 107.159l-3.87-7.86 2.528-9.202 10.426 2.136-3.283 9.898z"/><path fill="linen" d="M53.311 120.59l5.55-21.29 9.814 2.771-5.88 20.05z"/><path fill="#00A0DC" d="M43.128 128.659l6.616.789 10.87 3.393-.548 1.202-17.533-4.299z"/><path d="M44.59 127.697c1.172.23 2.357.382 3.548.457l5.792-11.501 5.849 1.482 4.278 1.082-3.431 13.62-17.482-4.178c.233-.292.446-.6.636-.922.267-.046.54-.06.81-.04z" fill="#281446"/><ellipse fill="#00A0DC" cx="57.877" cy="123.795" rx="3.072" ry="3.081"/><path fill="#006482" d="M51.865 119.229l2.964.749.436-.701-3.072-.777z"/><path fill="#00A0DC" d="M51.086 120.911l2.96.75.436-.698-3.072-.777z"/><path fill="#006482" d="M50.307 122.594l2.96.749.436-.697-3.072-.777z"/><path fill="#00A0DC" d="M49.524 124.276l2.964.75.436-.698-3.072-.777z"/><path fill="#006482" d="M48.745 125.959l2.96.749.436-.697-3.072-.777z"/><path fill="#281446" d="M57.502 93.683l5.081-21.208 16.091 4.034-7.054 21z"/><path d="M106.994 53.68V40.268s-50.842-.51-54.114-.433v12.306c2.644.177 6.859.193 10.858.152l.52.02-5.933 24.156c2.568.974 6.511.4 9.256.457 3.927.068 7.862 0 11.78.12 7.655.257 16.635 3.918 24.29 3.501-.536-1.262-5.47-17.878-8.222-27.192h.4c3.687.14 7.93.325 11.165.325z" fill="#00A0DC"/><path d="M73.166 32.088a15.184 15.184 0 0 1-5.122-.577 5.758 5.758 0 0 1-3.196-2.804c-.69-1.222-1.038-3.682 1.263-5.044 2.3-1.362 4.794.276 5.592 1.626.728 1.226 1.21 5.324 1.463 6.799z" fill="#BE965A"/><path d="M70.31 29.928s-1.954-1.077-2.949-5.324c-.715-3.064-.887-9.005.324-11.565 2.892-6.113 5.82-9.334 5.82-9.334l4.426 15.924-7.622 10.3zm20.745.004s3.127-11.79.399-17.546c-2.728-5.756-5.789-6.734-5.789-6.734l-3.048 9.35 8.438 14.93z" fill="#642800"/><path d="M89.413 32.592c.437-2.183.704-4.397.799-6.622 2.193-3.429 7.941-4.767 7.386.966-.411 4.114-3.987 7.134-8.185 5.656z" fill="#E6BE6E"/><path d="M86.88 16.7l-14.214-.055c-1.29 1.694-3.595 5.291-3.895 8.412 0 .136-.263 5.464 1.69 9.162 1.09 2.063 3.555 3.204 5.473 3.653 4.55 1.09 10.718.204 13.71-3.91 1.163-1.602 1.287-3.18 1.395-4.506.759-9.426-2.47-11.53-4.16-12.755z" fill="#E6BE6E"/><path d="M89.485 18.828c-1.774.593-17.49 1.258-19.332.985-.399-2.523 9.588-19.6 9.588-19.6s9.744 16.123 9.744 18.615z" fill="#642800"/><path d="M78.419 26.5a10.025 10.025 0 0 1 2.025 4.005c-1.494.509-3.691.73-5.193.225-.016-1.487.719-4.29 3.168-4.23z" fill="#BE965A"/><path d="M76.485 33.65c.058.175.153.335.28.469.715-.011 1.43.024 2.141.104l.072-.048a.542.542 0 0 0 .184-.525c-.863-.052-1.794-.028-2.677 0zm-5.145-6.281c-.987 0-.6-1.395-.356-1.915a.546.546 0 0 1 .771.108 2.108 2.108 0 0 1-.415 1.807zm12.276.191c-.975.133-.799-1.293-.62-1.842a.543.543 0 0 1 .8 0 2.076 2.076 0 0 1-.18 1.843z" fill="#000"/><path fill="#642800" d="M84.647 17.454l6.46 10.03.559-8.288z"/></g></svg>