<svg xmlns="http://www.w3.org/2000/svg" width="84.108" height="126.273" viewBox="0.163 0.338 84.108 126.273"><defs><style/></defs><g id="ID0.8665216066874564" transform="translate(-196 -135)"><g id="R_Arm" transform="translate(196 135)" stroke="#000" stroke-width="2"><path id="Arm_1_" fill="#594A42" d="M291.202 417.848c3.067.506 14.691 2.52 19.373 9.064 5.912 8.268 7.916 14.727 7.918 14.799.174 5.486 9.92 8.32 9.92-1.246h0c-.049-.416-1.34-10.273-10.439-20.281-10.357-11.387-25.764-12.756-30.244-12.424 0 0-3.072.43-2.731 3.932.335 3.499 6.203 6.156 6.203 6.156h0z" transform="translate(-83.1 -129.85) scale(.48646)"/><path id="Hand_1_" fill="#9B8579" d="M316.043 445.732s-3.271 10.951.738 11.918c4.008.969 4.217-5.531 4.217-5.531s7.441 13.109 15.252 6.789c7.811-6.318-4.141-17.695-4.141-17.695s-3.881-2.488-8.471-1.562c-4.583.923-7.595 6.081-7.595 6.081h0z" transform="translate(-83.1 -129.85) scale(.48646)"/></g><g id="L_Arm" transform="translate(196 135)" stroke="#000" stroke-width="2"><path id="Arm" fill="#594A42" d="M262.93 412.344c-.078-3.518-3.18-3.578-3.18-3.578-4.487.203-19.622 3.393-28.551 15.93-7.845 11.02-7.955 20.959-7.954 21.379h0c1.138 9.498 10.477 5.527 9.998.059-.006-.072 1.214-6.725 6.103-15.637 3.869-7.053 15.171-10.436 18.157-11.303-.001-.001 5.509-3.337 5.427-6.85h0z" transform="translate(-83.1 -129.85) scale(.48646)"/><path id="Hand" fill="#9B8579" d="M227.887 444.697c-4.667-.373-8.224 2.559-8.224 2.559s-10.514 12.719-2.007 18.062c8.507 5.348 14.336-8.555 14.336-8.555s.979 6.43 4.845 4.992c3.866-1.438-.684-11.922-.684-11.922s-3.604-4.763-8.266-5.136h0z" transform="translate(-83.1 -129.85) scale(.48646)"/></g><path id="Tail" fill="#594A42" stroke="#000" stroke-width=".973" d="M233.629 246.19c-4.075 1.404-9.09 2.15-15.193 1.578-13.857-1.3-20.367-12.787-21.874-18.68a2.919 2.919 0 1 1 5.655-1.445c.138.523 3.595 13.078 16.764 14.314 18.205 1.709 24.411-10.436 24.667-10.954a2.926 2.926 0 0 1 3.897-1.342 2.91 2.91 0 0 1 1.361 3.877c-.233.486-4.406 8.907-15.277 12.652h0z"/><g id="L_Leg" transform="translate(196 135)" stroke="#000" stroke-width="2"><path id="Leg_1_" fill="#594A42" d="M254.948 518.365c-3.104-1.898-5.3-6.699-6.354-10.668-1.604-6.043-2.656-10.311-1-21.154.957-6.26 5.422-14.908 5.422-14.908s3.244-7.27 8.584-4.438c2.832 1.518 0 9.859 0 9.859s-2.243 6.943-2.861 18.07c-.45 8.133 4.418 19 3.188 23.404-.462 1.656-3.872 1.736-6.979-.165h0z" transform="translate(-83.1 -129.85) scale(.48646)"/><path id="Foot_1_" fill="#C2B59B" stroke-linecap="round" stroke-linejoin="round" d="M263.408 520.881s-3.01-19.578-24.997-18.676c-21.988.904-21.19 13.836-20.935 17.168.604 7.83 11.146 7.682 11.146 7.682l34.938-3.613-.152-2.561h0z" transform="translate(-83.1 -129.85) scale(.48646)"/></g><g id="R_Leg" transform="translate(196 135)" stroke="#000" stroke-width="2"><path id="Leg" fill="#594A42" d="M292.833 518.531c-1.229-4.404 3.639-15.271 3.188-23.404-.618-11.127-2.861-18.07-2.861-18.07s-2.832-8.342 0-9.859c5.34-2.832 8.584 4.438 8.584 4.438s4.465 8.648 5.421 14.908c1.656 10.844.605 15.111-1 21.154-1.054 3.969-3.25 8.77-6.354 10.668-3.105 1.9-6.516 1.82-6.978.165h0z" transform="translate(-83.1 -129.85) scale(.48646)"/><path id="Foot" fill="#C2B59B" stroke-linecap="round" stroke-linejoin="round" d="M291.202 523.441l34.937 3.613s10.541.148 11.146-7.682c.256-3.332 1.053-16.264-20.936-17.168-21.987-.902-24.997 18.676-24.997 18.676l-.15 2.561h0z" transform="translate(-83.1 -129.85) scale(.48646)"/></g><g id="Body_1_" transform="translate(196 135)" stroke="#000" stroke-width="2"><path id="Body" fill="#594A42" d="M303.038 469.514c5.486-7.568 7.136-18.213 4.417-28.473-2.302-8.688-1.364-5.34-6.703-17.404-12.104-27.353-37.194-30.605-46.965-10.557-3.766 7.727-4.596 11.43-4.593 11.473l.013.195-.063.195c-.053.158-5.293 15.902-3.617 29.619 1.561 12.775 13.741 25.709 34.002 25.709.942 0 1.908-.027 2.87-.082 8.807-.505 15.942-4.197 20.639-10.675h0z" transform="translate(-83.1 -129.85) scale(.48646)"/><path id="Belly" fill="#C2B59B" d="M258.551 474.311c-.88-2.039-4.251-10.656-3.029-20.338 1.401-11.098 8.405-19.18 19.716-20.256 11.311-1.076 20.9 7.219 24.024 18.314 2.129 7.561 2.432 17.117 2.473 19.197l-.013.195c-4.483 4.797-10.885 8.029-19.268 8.512-9.625.553-17.637-1.631-23.789-5.416l-.114-.208h0z" transform="translate(-83.1 -129.85) scale(.48646)"/></g><g id="R_Ear" transform="translate(196 135)" stroke="#000"><path id="Ear_1_" fill="#9B8579" stroke-width=".973" d="M72.666 39.878s2.806-.184 4.889-1.573c3.102-2.071 3.736-6.765.805-11.323-2.93-4.557-5.417-4.704-7.65-3.604-1.585.78-1.957 2.835-2.022 3.29l-.013.052c2.62 6.535 2.974 12.352 2.974 12.352s.74.345 1.017.806h0z"/><path id="Inner_Ear_1_" fill="none" stroke-width="1.946" stroke-linecap="round" d="M74.685 30.155s-.768 2.169-3.983 3.245"/></g><g id="L_Ear" transform="translate(196 135)" stroke="#000"><path id="Ear" fill="#9B8579" stroke-width=".973" d="M19.986 32.48s-.384-2.453-1.917-2.837c-1.533-.383-5.213-.613-7.513 4.293-2.3 4.906-1.049 9.474 2.3 11.116 1.834.899 4.044.79 4.795.72 0 0 1.309-1.405 1.647-1.704 0 0-.305-5.013.714-11.262l-.026-.327h0z"/><path id="Inner_Ear" fill="none" stroke-width="1.946" stroke-linecap="round" stroke-linejoin="round" d="M15.087 36.78s1.05 2.049 4.378 2.688"/></g><path id="Head_1_" fill="#726658" stroke="#000" stroke-width=".973" d="M268.636 174.332c-1.69-.975-3.36-1.55-4.501-1.868l-.01-.05s-5.036-20.294-15.92-20.294c-5.3 0-8.27 9-8.27 9s-3.73-8.594-11.716-7.257c-8.983 1.506-9.894 21.201-9.955 22.834l.003.103a21.055 21.055 0 0 0-3.363 2.47l-.003-.112c-.094-1.97-1.081-29.488 17.792-34.482l.014-.057c-.05-.623-.073-1.944.326-3.96.574-2.9 2.33-5.32 2.33-5.32s.461 2.504 1.714 4.316c1.29 1.866 2.42 2.42 2.42 2.42s-.392-1.448-.33-2.6c.13-2.343 1.254-3.505 1.254-3.505s1.363 3.333 3.066 5.254c1.82 2.056 4.026 3.4 4.026 3.4l.032.008c19.58 4.87 21.077 29.44 21.077 29.44l.014.26h0z"/><path id="Face" fill="#C2B59B" stroke="#000" stroke-width=".973" d="M264.125 172.415s-5.036-20.295-15.92-20.295c-5.3 0-8.27 9-8.27 9s-3.73-8.594-11.716-7.257c-9.013 1.51-9.9 21.332-9.955 22.85l-.03.108c-3.182 1.897-7.03 5.647-6.466 12.939.79 10.216 13.929 17.79 34.082 15.688 21.568-2.25 29.685-12.602 27.242-23.44-1.417-6.29-6.045-8.728-8.928-9.535l-.039-.058h0z"/><path id="Mouth" d="M283.162 378.388c-.613-.905-1.852-1.14-2.766-.542-.034.023-3.583 2.267-13.834 3.112-1.604-5.806-.601-9.489-.583-9.549a1 1 0 0 0-1.919-.567c-.054.181-1.156 4.077.469 10.259-9.613.551-13.523-.971-13.63-1.014a2 2 0 1 0-1.601 3.665c.405.18 3.599 1.478 11.123 1.478 1.724 0 3.676-.068 5.873-.234 11.83-.89 15.941-3.555 16.371-3.855a1.99 1.99 0 0 0 .497-2.753z" transform="matrix(.48645 .00218 -.00218 .48645 113.55 7)"/><path id="Nose" fill="#726658" stroke="#000" stroke-width=".8" d="M241.29 182.541c1.647-.059 3.153.227 4.254.735 1.1.51 1.797 1.242 1.827 2.076.03.834-.613 1.614-1.675 2.2-1.061.586-2.543.978-4.19 1.037-1.649.059-3.154-.226-4.255-.735-1.101-.51-1.798-1.241-1.827-2.076-.03-.834.612-1.614 1.674-2.2 1.062-.586 2.543-.978 4.191-1.037h0z"/><g id="L_Eye_1_" transform="translate(196 135)"><path id="White" fill="#F1F2F2" d="M297.542 352.173c.255-6.196.28-28.388-12.548-27.061-14.23 1.472-8.201 25.625-7.631 27.792l.01.16c2.079-.416 5.184-.903 9.034-1.106 5.737-.301 9.661.105 11.091.297l.044-.082z" transform="translate(-81.85 -126.1) scale(.48646)"/><path id="Pupil" fill="#594A42" stroke="#000" stroke-width=".973" d="M55.917 44.892s-1.792-9.365 1.387-9.365c3.178 0 3.41 9.365 3.41 9.365"/><path id="Outline" d="M293.014 326.037c-2.213-2.165-4.964-3.092-8.175-2.763-3.416.354-6.074 1.891-7.902 4.57-4.677 6.853-2.37 19.356-1.362 23.729-.947.223-1.489.385-1.553.404l.877 2.869c.045-.014 4.53-1.365 11.587-1.735 4.309-.228 7.576-.042 9.476.137l-.003.044 1.411.114c.299.041.458.067.466.069l.006-.031 1.107.089c.066-.821 1.539-20.188-5.935-27.496zm3.071 24.206c-2.036-.187-5.37-.361-9.758-.129a66.387 66.387 0 0 0-7.807.864c-.902-3.931-3.107-15.581.894-21.443 1.326-1.943 3.201-3.015 5.733-3.276 2.317-.244 4.199.389 5.768 1.921 4.874 4.763 5.275 16.483 5.17 22.063z" transform="translate(-81.85 -126.1) scale(.48646)"/></g><g id="R_Eye_1_" transform="translate(196 135)"><path id="White_1_" fill="#F1F2F2" d="M250.68 352.173c.255-6.196.28-28.388-12.548-27.061-14.23 1.472-8.201 25.625-7.631 27.792l.01.16c2.079-.416 5.184-.903 9.034-1.106 5.737-.301 9.661.105 11.091.297l.044-.082z" transform="translate(-84.3 -124.4) scale(.48646)"/><path id="Pupil_1_" fill="#594A42" stroke="#000" stroke-width=".973" d="M30.67 46.592s-1.792-9.365 1.388-9.365c3.178 0 3.41 9.365 3.41 9.365"/><path id="Outline_1_" d="M246.153 326.037c-2.213-2.165-4.964-3.092-8.175-2.763-3.416.354-6.074 1.891-7.902 4.57-4.677 6.853-2.37 19.356-1.362 23.729-.947.223-1.489.385-1.553.404l.877 2.869c.045-.014 4.53-1.365 11.587-1.735 4.309-.228 7.576-.042 9.476.137l-.003.044 1.411.114c.299.041.458.067.466.069l.006-.031 1.107.089c.066-.821 1.538-20.188-5.935-27.496zm3.071 24.206c-2.036-.187-5.37-.361-9.758-.129a66.387 66.387 0 0 0-7.807.864c-.902-3.931-3.107-15.581.894-21.443 1.326-1.943 3.201-3.015 5.733-3.276 2.317-.244 4.199.389 5.768 1.921 4.873 4.763 5.275 16.483 5.17 22.063z" transform="translate(-84.3 -124.4) scale(.48646)"/></g></g></svg>