<svg width="143" height="112" viewBox="0 0 143 112" xmlns="http://www.w3.org/2000/svg"><g fill="none"><path d="M98.1 36.818c1.279-1.924 4.793-3.768 7.11-3.929 3.754-.16 2.956 1.203 4.713 4.33 3.115 5.452 9.586 8.258 14.539 11.786 2.955 2.085 9.665 5.453 13.18 6.495 0 1.764-3.754 3.368-3.914 5.132-1.198 10.984-6.151 22.77-14.698 29.345-4.314 3.288-9.986 5.773-15.418 6.094-1.677.08-1.917 1.604-3.754 1.203-1.198-.24-2.476-2.806-3.834-3.207-3.036-.962-7.988-.24-9.906-3.208 0 0-12.7-11.385-16.935-21.969-2.716-6.575-5.591-6.575-5.272-9.461.32-2.887 3.755-4.49 3.755-4.49C71.979 43.393 98.1 36.818 98.1 36.818z" fill="#F6F6F6"/><path d="M113.438 56.623c0-.241 0-.401-.08-.642-9.266-1.684-9.107-2.967-.64-4.89a8.414 8.414 0 0 0-.319-1.364c-7.508-1.042-8.148-2.967-1.837-5.933-.24-.642-.48-1.203-.719-1.764-7.748.08-8.228-.16-1.997-4.01-.16-.32-.32-.64-.559-.881-8.068 1.924-8.787 1.202-1.837-2.807-.08-.08-.16-.24-.24-.32-7.509 3.127-7.828 3.287-.879-1.203-.16-.16-.24-.32-.399-.481-6.47 2.566-6.87 1.604-1.837-2.245-.24-.24-.48-.561-.72-.802-5.83 2.726-6.55 2.566-1.597-1.604-.08-.08-.24-.16-.32-.32-5.99 3.528-6.87 2.004-2.875-2.566-.4-.32-.799-.641-1.278-1.042-4.554 2.165-5.991.801-3.755-2.726l-.719-.482c-4.233 3.368-6.15 3.448-3.594-2.084-.24-.16-.56-.321-.8-.481-5.191 5.933-6.07 4.73-3.514-1.684-.24-.08-.48-.16-.719-.32-4.873 6.494-6.07 5.933-3.595-1.364-.16-.08-.32-.16-.559-.16-5.192 7.136-5.432 6.093-4.872-1.443-.24-.08-.56-.16-.8-.16-2.955 7.456-4.632 7.215-3.514-.722-.08 0-.24-.08-.32-.08-3.275 8.258-4.633 7.616-4.952-.642-.16 0-.4 0-.56-.08-2.156 8.579-3.195 8.9-4.313-.16h-.4c-1.997 7.937-1.757 7.135-4.553.24-.479.08-.958.08-1.517.16-.56 7.617 0 7.537-3.915.642l-1.198.24c.959 6.254.4 6.415-3.035.722l-.959.24c1.598 6.575.799 6.415-3.195 1.043l-.72.24c1.918 5.533-.08 6.816-3.993 1.604-.16.08-.24.16-.4.16 2.956 6.334 2.077 7.297-2.796 1.363-.16.08-.24.16-.399.24 3.195 5.854 2.476 6.255-2.556 1.444-.32.16-.64.401-.959.561 2.796 5.052 1.997 5.693-3.115 2.005-.32.24-.56.4-.879.641 4.314 5.853 3.355 6.655-3.515 2.807-.24.16-.399.4-.639.56 5.193 5.934 4.154 6.896-3.674 3.529-.24.24-.48.561-.72.802 4.954 4.57 3.995 5.692-3.274 4.009-.32.4-.64.882-.879 1.282 6.15 4.57 5.432 6.014-3.115 5.212l-.48.962c7.35 4.17 6.63 5.693-2.316 6.254-.08.401-.24.802-.32 1.203 6.071 1.604 5.991 2.486-.559 3.047.24.561.16 1.122.16 1.604 4.873 1.202 4.793 2.325-.16 3.528 0 .721 0 1.363.08 2.084 4.074.642 4.154 1.524.32 2.967.08.721.24 1.443.399 2.165 4.074.24 4.313 1.122.719 2.886.16.642.4 1.203.639 1.764 4.953-.32 5.352.722 1.358 3.207.32.642.639 1.363.958 2.005 5.912-.642 6.63.561 2.317 3.849.24.4.56.801.799 1.122 6.39-2.085 7.03-1.203 2.316 2.967.24.32.56.641.8.882 6.71-2.887 7.508-2.005 2.955 2.966.32.24.639.562.958.802 6.63-3.528 7.829-2.646 3.994 3.127.32.24.72.481 1.119.722 5.352-3.769 6.23-2.967 3.515 2.165.32.16.719.4 1.038.56 4.873-4.73 5.991-4.088 2.876 1.444.24.08.48.24.719.32 5.512-5.772 5.432-5.772 3.195 1.284.4.16.719.24 1.118.4 4.394-5.692 5.352-5.452 3.595 1.043.24.08.48.08.64.16 4.313-7.456 5.59-7.296 4.792.882.16 0 .32.08.48.08 3.514-7.536 4.872-7.456 4.952.401h.959c2.076-5.773 3.434-5.773 4.713-.08h.24c.399 0 .878-.08 1.277-.08.959-5.212 2.077-5.292 3.515-.32.48-.08.879-.08 1.358-.161.48-5.452 1.518-5.613 3.675-.481.32-.08.719-.08 1.038-.16-.48-6.816.48-6.896 3.275-.562.16 0 .32-.08.48-.08-1.438-7.296-.56-7.537 3.275-.721.24-.08.479-.08.639-.16-1.598-6.415-.72-6.736 3.275-.803.24-.08.48-.16.719-.16-2.317-6.174-1.358-6.495 3.435-1.042.4-.16.799-.24 1.198-.401-1.997-5.934-.48-6.495 5.192-2.005.4-.16.8-.32 1.198-.561-2.715-3.929-2.236-4.17 1.838-.882.4-.24.878-.4 1.278-.641-1.997-3.127-1.198-3.609 2.716-1.604.719-.481 1.518-.962 2.157-1.443-1.838-2.887-.8-3.608 3.115-2.486.799-.721 1.598-1.443 2.317-2.165-3.755-4.17-2.876-5.452 3.594-4.41.32-.48.72-1.042 1.039-1.523-5.113-3.528-4.234-4.57 2.077-4.09l.479-1.202c-6.39-2.165-6.55-2.405.24-.802.08-.16.08-.32.16-.48-7.75-3.288-7.27-6.255 1.277-5.533.08-.401.08-.802.16-1.123-7.668-3.367-7.429-2.165.24-2.726 0-.481 0-.962.08-1.443-5.033-1.203-7.829-2.005-.08-2.806z" fill="#3E5360"/><path d="M98.5 74.904c.48-4.811-3.195-4.49-5.672-7.457-2.636-3.207-24.364-3.207-23.006.641 2.077 5.853 4.793 11.386 26.042 8.018l2.636-1.202z" fill="#DBCCB6"/><path d="M95.065 73.38s1.118 2.566 2.556 2.566 2.557-2.566 2.557-2.566c0-1.443-1.119-2.004-2.557-2.085-1.438.08-2.556.722-2.556 2.085z" fill="#65746F"/><path d="M64.79 54.618c2.876-1.604 1.198-10.343-2.237-10.985-4.393-.721-4.553 6.094-1.438 7.938l3.675 3.047zm31.314 7.697c-1.598-2.806 4.393-9.46 7.588-8.178 4.154 1.684.72 7.617-2.875 7.537l-4.713.641z" fill="#DBCCB6"/><path d="M98.1 61.353c-2.236-2.485-12.7 2.245-18.931.642-6.231-1.604-13.101-10.905-16.216-9.782-4.873 1.683-3.036 8.82-.8 13.47 1.598 3.448 7.75 8.82 15.098 10.343 7.19 2.245 12.542.24 15.098-2.485 2.397-2.566 9.266-8.34 5.752-12.188z" fill="#DBCCB6"/><path d="M68.704 50.85c2.077-.08 3.275 1.683 3.675 3.527.16.722 1.198.401 1.118-.32-.48-2.325-2.237-4.49-4.793-4.33-.799.08-.799 1.203 0 1.123zm18.133 8.338c1.278-2.004 3.595-3.447 5.912-2.245.639.321 1.198-.641.559-.962-2.876-1.523-5.832.08-7.43 2.646-.399.641.56 1.203.96.561z" opacity=".6" fill="#C6A87B"/><path d="M65.908 59.99c1.119 1.844 2.636 3.287 4.873 2.566.64-.16.32-1.123-.24-.962-1.837.561-2.875-.642-3.754-2.165-.32-.481-1.198 0-.879.561zm20.13 5.693c1.838 2.245 4.314 2.085 6.391.24.48-.4-.24-1.122-.719-.721-1.677 1.523-3.515 1.603-5.032-.24-.4-.482-1.119.24-.64.72z" fill="#3E5360"/></g></svg>