<svg width="120" height="120" viewBox="0 0 120 120" xmlns="http://www.w3.org/2000/svg"><g fill="none" fill-rule="evenodd"><path d="M0 0h120v120H0z"/><path d="M60 92.24c-49.36 0-44.33-30.16-44.33-42.49 0-12.33 19.47-22 44.33-22s44.33 9.66 44.33 22S109.36 92.24 60 92.24z" fill="#C8452B" fill-rule="nonzero"/><path d="M94.5 48.8c0 4 4.38 11.2 9.78 11.2 5.4 0 9.78-7.18 9.78-11.2s-4.38-7.29-9.78-7.29c-5.4 0-9.78 3.26-9.78 7.29zm-88.55 0c0 4 4.38 11.2 9.78 11.2 5.4 0 9.78-7.18 9.78-11.2s-4.38-7.29-9.78-7.29c-5.4 0-9.78 3.26-9.78 7.29z" fill="#C8452B" fill-rule="nonzero"/><path d="M60 68.53c-21.85 0-39.63-8.22-39.63-18.31 0-10.09 17.78-18.31 39.63-18.31s39.63 8.22 39.63 18.31c0 10.09-17.78 18.31-39.63 18.31z" fill="#CCC" fill-rule="nonzero"/><path d="M60 32.8c21 0 38.74 8 38.74 17.43S81 67.65 60 67.65c-21 0-38.74-8-38.74-17.43S39 32.8 60 32.8zm0-1.8c-22.34 0-40.52 8.61-40.52 19.2S37.66 69.42 60 69.42c22.34 0 40.52-8.61 40.52-19.2S82.34 31 60 31z" fill="#B3B3B3" fill-rule="nonzero"/><path d="M60 69.06c-17.8 0-32.29-6.69-32.29-14.92S42.2 39.21 60 39.21c17.8 0 32.29 6.69 32.29 14.92S77.8 69.06 60 69.06z" fill="#CCC" fill-rule="nonzero"/><path d="M60 39.93c17.11 0 31.57 6.5 31.57 14.2 0 7.7-14.46 14.2-31.57 14.2s-31.56-6.5-31.56-14.2c0-7.7 14.45-14.2 31.56-14.2zm0-1.45c-18.2 0-33 7-33 15.65s14.8 15.65 33 15.65 33-7 33-15.65-14.8-15.65-33-15.65z" fill="#B3B3B3" fill-rule="nonzero"/><path d="M31.13 62.79c6.33 4.2 17 7 28.87 7 1.72 0 3.42-.06 5.09-.18l3.77-13.06-15.51-9.9-22.22 16.14z" fill="#7FA83F" fill-rule="nonzero"/><path d="M44.3 61.14l4.7-3.81m-9.68 4.52l4.7-3.81m-2.21 8.79l4.7-3.81m.52-.03l2.79-5.37m-1.36 9.99l2.78-5.37m1.48 3.59l2.79-5.37" stroke="#009245" stroke-width="1.778" stroke-linecap="round" stroke-linejoin="round"/><path d="M94.87 54.11c0-8.22-14.94-15.21-33-15.66l-.13.07L67 62.71l24.57-2.05c2.12-2.01 3.3-4.23 3.3-6.55z" fill="#FFF" fill-rule="nonzero"/><path d="M91.11 47.86l-25.62 8.63 8.39-2-7.41 3.81 8.18-1.88-7.91 2.67 4.58-.68-1.26 1.13 24.5-2.67a7 7 0 0 0 .31-2.05c0-.301-.02-.602-.06-.9l-16.39 2.42 16.3-3A8.09 8.09 0 0 0 93.8 51L75 55.36l1.24-.64 17.3-4.16A11.94 11.94 0 0 0 92.31 49l-5.38 1.3 5-1.69c-.25-.23-.53-.5-.82-.75zm2.3 4.26l-.34.56-10.19 1.85 10.53-2.41zM94.57 55l-1 .93-20.3 2.21L94.57 55zm-22.22-2.58l4.31-2.14-4.49 2.92 18.53-5.7c-.3-.253-.633-.5-1-.74l-9.29 2.86 1.58-1 6.7-2.54c-.37-.24-.75-.47-1.14-.7L83.3 47l3.82-1.89a36.21 36.21 0 0 0-1.35-.71l-4.48 2.2 2-2 1.47-.72c-.48-.22-.973-.433-1.48-.64h-.09.08a53.95 53.95 0 0 0-1.65-.64l-.59.33.53-.35c-.6-.22-1.217-.427-1.85-.62l-7.9 5.23-1.37 3.34 9.22-5.23-7.31 7.12z" fill="#E5D3B5" fill-rule="nonzero"/><path d="M67.49 54.11l-7.86 3.14-4.05 12.83c1.333.073 2.667.11 4 .11 13.17 0 25.94-4.8 31.85-9.79l-23.94-6.29z" fill="#F15A24" fill-rule="nonzero"/><path d="M91.11 47.14l-25.62 8.63 8.39-2-7.42 3.81 8.18-1.88-7.91 2.67 4.58-.68-1.26 1.13 24.5-2.67a7 7 0 0 0 .31-2.05c0-.301-.02-.602-.06-.9l-16.38 2.43 16.3-3a8.09 8.09 0 0 0-.92-2.34L75 54.65l1.21-.65 17.3-4.16a11.94 11.94 0 0 0-1.2-1.54l-5.38 1.3 5-1.69c-.25-.25-.53-.51-.82-.77zm2.3 4.26l-.34.56-10.19 1.86 10.53-2.42zm1.16 2.86l-1 .93-20.3 2.21 21.3-3.14zm-22.22-2.55l4.31-2.14-4.49 2.92L90.7 46.8c-.3-.253-.633-.5-1-.74l-9.29 2.86 1.58-1 6.7-2.54c-.37-.24-.75-.47-1.14-.7l-4.25 1.59 3.82-1.89a36.21 36.21 0 0 0-1.35-.71l-4.48 2.22 2-2 1.47-.72c-.48-.22-.973-.433-1.48-.64h-.09.08a53.95 53.95 0 0 0-1.65-.64l-.59.33.53-.35c-.6-.22-1.217-.427-1.85-.62l-7.9 5.23-1.37 3.34 9.22-5.23-7.31 7.12z" fill="#F7E7CB" fill-rule="nonzero"/><path d="M39.32 64.76a19.16 19.16 0 0 1 2.57-2.09m-.44-2.18A19.16 19.16 0 0 1 44 58.4m-.06 5.29a19.16 19.16 0 0 1 2.57-2.09M49.7 63a19.16 19.16 0 0 1 1.71-2.83m.07 6.74a19.16 19.16 0 0 1 1.71-2.83m2.22-.85a19.16 19.16 0 0 1 .25-3.3" stroke="#8CC63F" stroke-width="2.134" stroke-linecap="round"/><path d="M62.35 69.78h-4.13l.38-10.09h1.32L59.75 58l2.32 2.29-1.21-2.77 3.95 1.54-1.45-2.92L73.29 66l.15-.32-6.62-7.93 3.22.65-2.19-.93h8.4l-5.57-1.69 4.32-.95 14 2.7 1.56 3.57-1.32.48-.73-1.67-1.64 3.36-10.29-4.53h-2.33l2.51 1.07 5.9 3.38-3.31 2.92L71.43 60l-1.13-.23 4.76 5.7-1.31 2.89L68.3 63l2.23 4.49-2.31 1.23-4.12-8.47-.65-.25 3.36 7.71-3.81.54-1.46-6.32.81 7.85zm-2.66-1.3h1.1l-.8-8-.3 8zm3.59-5.39l.85 3.68.71-.11-1.56-3.57zm10.12-3.27l5.88 4.55 1.08-.95L76 60.93l-2.6-1.11zm5-1.72l7.79 3.43.45-.93-8.24-2.5zm.8-1.1l9.25 2.81-.45-1.16L79.2 57z" fill="#DD9A43" fill-rule="nonzero"/><path d="M63.06 69.78h-4.13l.38-9.6h1.32l-.17-1.64 2.32 2.18-1.21-2.64 3.95 1.47-1.45-2.78L74 66.16l.15-.31-6.62-7.54 3.22.62-2.2-.93h8.4l-5.57-1.61 4.29-.88 14 2.57 1.56 3.4-1.28.52-.73-1.59-1.64 3.2-10.29-4.33H75l2.51 1 5.9 3.22-3.31 2.77-7.91-5.82-1.19-.2 4.76 5.42-1.31 2.75L69 63.29l2.23 4.27-2.31 1.17-4.12-8.05-.66-.24 3.36 7.34-3.79.56-1.46-6 .81 7.44zm-2.66-1.24h1.1l-.8-7.61-.3 7.61zm3.6-5.13l.85 3.5.71-.1-1.56-3.4zm10.12-3.11L80 64.62l1.08-.9-4.32-2.36-2.64-1.06zm5-1.64l7.79 3.26.45-.88-8.24-2.38zm.82-1.06l9.25 2.67-.49-1.07-8.76-1.6z" fill="#FBB03B" fill-rule="nonzero"/><path d="M60 38.43c-18.9 0-34.87 7.18-34.87 15.69 0 3.76 3.12 7.26 8.24 10l14.48-10 12.21-15.69H60z" fill="#754C24" fill-rule="nonzero"/><path d="M29.5 63.57l3.23-1.68a1.21 1.21 0 0 0 .6-.65l.09-.3a1.26 1.26 0 0 1 1.13-.78l1.58.09c.52 0 1.18-.51 1.15-1L37.21 58c0-.41.55-.92 1.07-1h.08a.51.51 0 0 1 .36.1c.15.12.44.22.72-.38.41-.88 1-1.55 1.09-1.35.09.2 2.35.5 2.62.16.27-.34 2.25-2.53 2.25-2.53" stroke="#A67C52" stroke-width="1.488" stroke-linecap="round" stroke-linejoin="round"/><path d="M27.13 58.53l3.58-.68a1.21 1.21 0 0 0 .76-.45l.17-.26a1.26 1.26 0 0 1 1.3-.42l1.49.54a1.18 1.18 0 0 0 1.38-.58l.3-1.24a1.18 1.18 0 0 1 1.3-.61h.08a.51.51 0 0 1 .32.2c.11.16.35.34.79-.16.64-.72 1.36-1.21 1.43-1 .07.21 2.11 1.15 2.46.91.35-.24 2.91-1.78 2.91-1.78" stroke="#A67C52" stroke-width="1.488" stroke-linecap="round" stroke-linejoin="round"/><path d="M26.47 55.48l3.64-.09c.304 0 .597-.114.82-.32l.21-.22a1.26 1.26 0 0 1 1.36-.2l1.38.77a1.18 1.18 0 0 0 1.46-.35l.5-1.17a1.18 1.18 0 0 1 1.38-.39h.08a.51.51 0 0 1 .28.25c.08.18.29.39.81 0 .75-.61 1.54-1 1.57-.73.03.27 1.89 1.48 2.28 1.3.39-.18 3.16-1.33 3.16-1.33" stroke="#A67C52" stroke-width="1.488" stroke-linecap="round" stroke-linejoin="round"/><path d="M25.26 52.76h3.34a1 1 0 0 0 .75-.31l.19-.22c.32-.338.82-.43 1.24-.23l1.27.79a1 1 0 0 0 1.33-.33l.45-1.17a1 1 0 0 1 1.26-.37h.07a.51.51 0 0 1 .26.25c.08.18.27.4.74 0 .68-.6 1.4-1 1.43-.71.03.29 1.75 1.5 2.11 1.32.36-.18 2.88-1.29 2.88-1.29" stroke="#A67C52" stroke-width="1.422" stroke-linecap="round" stroke-linejoin="round"/><path d="M25.49 49.2l3.06 1.41c.255.127.551.145.82.05l.27-.12a1.09 1.09 0 0 1 1.21.37l.82 1.27a1 1 0 0 0 1.36.28l.91-.86a1 1 0 0 1 1.31.21v.06a.51.51 0 0 1 .13.34c0 .19.08.48.68.31.88-.24 1.69-.25 1.61 0-.08.25.94 2.12 1.35 2.11.41-.01 3.19.09 3.19.09" stroke="#A67C52" stroke-width="1.43" stroke-linecap="round" stroke-linejoin="round"/><path d="M27.44 46.87l3 1.38a1 1 0 0 0 .79 0l.26-.12a1 1 0 0 1 1.17.36l.78 1.26a1 1 0 0 0 1.32.27l.89-.86a1 1 0 0 1 1.27.2v.06a.51.51 0 0 1 .12.34c0 .19.07.47.66.3.86-.25 1.64-.26 1.57 0-.07.26.9 2.1 1.29 2.09.39-.01 3.1.06 3.1.06" stroke="#A67C52" stroke-width="1.408" stroke-linecap="round" stroke-linejoin="round"/><path d="M31.54 43.62l2.32 1.76a.81.81 0 0 0 .69.15l.26-.08a.84.84 0 0 1 1 .52l.42 1.32a.8.8 0 0 0 1.11.44l1-.71a.8.8 0 0 1 1.08.37v.06a.5.5 0 0 1 0 .34c-.05.18 0 .47.52.39.82-.12 1.52 0 1.4.2-.12.2.33 2.16.68 2.21.35.05 2.74.5 2.74.5" stroke="#A67C52" stroke-width="1.327" stroke-linecap="round" stroke-linejoin="round"/><path d="M37.38 41.77l1.4 2.58a.83.83 0 0 0 .57.43h.27a.85.85 0 0 1 .67.88l-.16 1.38A.81.81 0 0 0 41 48l1.19-.23a.81.81 0 0 1 .84.8v.07a.5.5 0 0 1-.11.33c-.12.15-.23.41.32.57.8.23 1.4.62 1.2.77-.2.15-.58 2.11-.28 2.3.3.19 2.3 1.61 2.3 1.61" stroke="#A67C52" stroke-width="1.333" stroke-linecap="round" stroke-linejoin="round"/><path stroke="#C69C6D" stroke-width="1.422" stroke-linecap="round" stroke-linejoin="round" d="M36.2 52.35l1.06 1.43.36-1.43 2.49 1.43 2.84-1.07"/><path d="M40 40.88L41.86 44c.144.267.383.47.67.57l.3.08c.467.168.792.595.83 1.09v1.58c0 .53.57 1.15 1 1.11l1.27-.13c.41 0 .95.5 1 1v.08a.51.51 0 0 1-.08.37c-.12.16-.2.45.41.7.9.36 1.59.88 1.39 1-.2.12-.39 2.37 0 2.63.39.26 2.69 2.13 2.69 2.13" stroke="#A67C52" stroke-width="1.488" stroke-linecap="round" stroke-linejoin="round"/><path d="M41.64 39.61l1.19 3.44c.09.291.286.537.55.69l.28.13c.428.253.668.735.61 1.23l-.32 1.55a1.18 1.18 0 0 0 .78 1.28L46 48c.5.174.824.66.79 1.19v.08a.51.51 0 0 1-.15.34c-.14.13-.29.4.27.76.81.53 1.4 1.17 1.17 1.28-.23.11-.83 2.25-.54 2.57.29.32 2.23 2.61 2.23 2.61" stroke="#A67C52" stroke-width="1.488" stroke-linecap="round" stroke-linejoin="round"/><rect fill="#F9D5CC" fill-rule="nonzero" transform="rotate(-51.14 73.45 42.787)" x="68.636" y="37.777" width="9.63" height="10.02" rx="1.48"/><path d="M44.84 38.19L46 41.63c.09.291.286.537.55.69l.28.13c.428.253.668.735.61 1.23l-.32 1.55a1.18 1.18 0 0 0 .78 1.28l1.27.12c.517.16.859.65.83 1.19v.08a.51.51 0 0 1-.15.34c-.14.13-.29.4.27.76.81.53 1.4 1.17 1.17 1.28-.23.11-.83 2.25-.54 2.57.29.32 2.25 2.61 2.25 2.61" stroke="#A67C52" stroke-width="1.488" stroke-linecap="round" stroke-linejoin="round"/><path d="M51.38 46.65H71l6-6.17a68.76 68.76 0 0 0-17-2.05 72.07 72.07 0 0 0-10.89.82l2.27 7.4z" fill="#F9D5CC" fill-rule="nonzero"/><path d="M69.59 40.85L75.88 42 78 43.12l1.18-1.47c.39-.48.06-1.39-.74-2l-4.78-3.85c-.8-.64-1.76-.77-2.15-.29l-4.2 5.21 2.28.13zm4.96 6.55v-.06L73 46.72l-5.35-3.45 4.76 3.84c.79.64 1.75.77 2.14.29zm-1.29-2.14c.34.14 1.32.43 2.4.76l1.5-1.86-2.65-.44-2.51-.05a2.74 2.74 0 0 0 1.26 1.59z" fill="#DA4241" fill-rule="nonzero"/><rect fill="#F9D5CC" fill-rule="nonzero" transform="rotate(-15.74 52.293 42.294)" x="49.053" y="37.729" width="6.48" height="9.13" rx="1.14"/><path d="M50.8 44.39l2.78-3.78 1.37-.84-.49-1.77a1.15 1.15 0 0 0-1.46-.64l-3.88 1.09a1.15 1.15 0 0 0-.89 1.35l1.72 6.1.85-1.51zm5.56.4v-.07l-.9.77-3.86 1.74 3.87-1.09a1.15 1.15 0 0 0 .89-1.35zm-1.71-.37c.2-.16.7-.68 1.25-1.26L55.29 41l-1.14 1.62-.87 1.77s.85.46 1.37.03z" fill="#DA4241" fill-rule="nonzero"/><rect fill="#F9D5CC" fill-rule="nonzero" transform="rotate(-15.74 52.293 42.294)" x="49.053" y="37.729" width="6.48" height="9.13" rx="1.14"/><path d="M50.8 44.39l2.78-3.78 1.37-.84-.49-1.77a1.15 1.15 0 0 0-1.46-.64l-3.88 1.09a1.15 1.15 0 0 0-.89 1.35l1.72 6.1.85-1.51zm5.56.4v-.07l-.9.77-3.86 1.74 3.87-1.09a1.15 1.15 0 0 0 .89-1.35zm-1.71-.37c.2-.16.7-.68 1.25-1.26L55.29 41l-1.14 1.62-.87 1.77s.85.46 1.37.03zM62.6 43l3.93-2.55 1.57-.3.15-1.78a1.15 1.15 0 0 0-1.12-1.16l-4-.35a1.15 1.15 0 0 0-1.31.95l-.54 6.29L62.6 43zm5.06 2.36v-.07l-1.12.4-4.2.28 4 .35a1.15 1.15 0 0 0 1.32-.96zm-1.47-.95c.24-.08.89-.39 1.61-.73l.2-2.24-1.64 1.11-1.43 1.34s.63.74 1.26.52z" fill="#DA4241" fill-rule="nonzero"/><rect fill="#F9D5CC" fill-rule="nonzero" transform="rotate(-72.86 57.27 41.585)" x="52.704" y="38.345" width="9.13" height="6.48" rx="1.14"/><path d="M59.66 40.64l-4.39 1.67h-1.6L53.14 44a1.15 1.15 0 0 0 .86 1.35l3.86 1.19a1.15 1.15 0 0 0 1.48-.66l1.87-6.06-1.55.82zm-4.45-3.35v.07l1.18-.16 4.17.62-3.84-1.19a1.15 1.15 0 0 0-1.51.66zm1.23 1.23c-.25 0-1 .19-1.73.38L54 41.06l1.84-.74 1.69-1s-.42-.87-1.09-.8z" fill="#DA4241" fill-rule="nonzero"/><rect fill="#F9D5CC" fill-rule="nonzero" transform="rotate(-86.91 61.902 44.071)" x="57.337" y="40.831" width="9.13" height="6.48" rx="1.14"/><path d="M64 42.57l-3.85 2.69-1.56.35-.1 1.79a1.15 1.15 0 0 0 1.16 1.13l4 .22a1.15 1.15 0 0 0 1.28-1l.34-6.33L64 42.57zm-5.15-2.17v.07l1.1-.44 4.19-.41-4-.22a1.15 1.15 0 0 0-1.29 1zm1.49.9c-.24.09-.88.42-1.59.79l-.12 2.26 1.61-1.17 1.39-1.39s-.63-.72-1.29-.49z" fill="#DA4241" fill-rule="nonzero"/><path d="M60.09 61.65c-9.69 0-18.51-4.42-18.51-9.27s5.85-9.68 15.63-9.68c9.78 0 20.39 5 20.39 9.68 0 5.46-9.23 9.27-17.51 9.27z" fill="#FFF" fill-rule="nonzero"/><path d="M57.21 42.91c9.91 0 20.18 5 20.18 9.47 0 4.47-7.39 9.06-17.3 9.06s-18.31-4.6-18.31-9.06c0-4.46 5.52-9.47 15.42-9.47h.01zm-.01-.41c-9.91 0-15.84 5-15.84 9.89 0 4.89 8.92 9.47 18.72 9.47a26.41 26.41 0 0 0 12.57-2.91c3.27-1.81 5.15-4.2 5.15-6.56 0-4.8-10.59-9.89-20.6-9.89z" fill="#FFD69F" fill-rule="nonzero"/><path d="M59.67 70.49c-23.71-.37-42.15-9.87-42-21.64.15-11.77 18.9-20.69 42.62-20.32 23.72.37 42.15 9.87 42 21.64-.15 11.77-18.9 20.69-42.62 20.32zm.6-38.4c-21-.33-38.86 7.37-39 16.82-.14 9.45 17.47 17.7 38.46 18 20.99.3 38.86-7.37 39-16.82.14-9.45-17.46-17.68-38.46-18z" fill="#E6E6E6" fill-rule="nonzero"/><path d="M57.18 58.34c-4.05 0-7.23-2.47-7.23-5.63 0-3.16 3.18-5.63 7.23-5.63 4.05 0 7.23 2.47 7.23 5.63 0 3.16-3.18 5.63-7.23 5.63z" fill="#F7931E" fill-rule="nonzero"/><path d="M57.18 48.57c3.17 0 5.74 1.85 5.74 4.14 0 2.29-2.57 4.14-5.74 4.14-3.17 0-5.75-1.85-5.75-4.14 0-2.29 2.57-4.14 5.74-4.14h.01zm-.01-3c-4.89 0-8.71 3.12-8.71 7.11s3.83 7.11 8.71 7.11c4.88 0 8.71-3.12 8.71-7.11s-3.83-7.11-8.71-7.11z" fill="#FFF" fill-rule="nonzero"/><path d="M57.18 55.75c-2.91 0-5.31-1.56-5.69-3.59a3 3 0 0 0-.06.55c0 2.29 2.57 4.14 5.74 4.14 3.17 0 5.74-1.85 5.74-4.14a3 3 0 0 0-.06-.55c-.36 2.02-2.76 3.59-5.67 3.59z" opacity=".4" fill="#F15A24" fill-rule="nonzero"/><ellipse fill="#ACC953" fill-rule="nonzero" cx="79.58" cy="42.57" rx="1.78" ry="1.24"/><circle fill="#ACC953" fill-rule="nonzero" cx="82.78" cy="42.75" r="1.42"/><ellipse fill="#ACC953" fill-rule="nonzero" cx="83.49" cy="45.78" rx="2.13" ry="1.24"/><circle fill="#ACC953" fill-rule="nonzero" cx="87.58" cy="45.78" r="1.6"/><ellipse fill="#ACC953" fill-rule="nonzero" cx="90.61" cy="48.09" rx="2.13" ry="1.42"/><ellipse fill="#ACC953" fill-rule="nonzero" transform="rotate(-24.97 77.795 46.656)" cx="77.795" cy="46.656" rx="1.42" ry="2.13"/><circle fill="#ACC953" fill-rule="nonzero" cx="86.87" cy="50.04" r="1"/><ellipse fill="#ACC953" fill-rule="nonzero" cx="93.27" cy="51.47" rx="2.67" ry="1.24"/><circle fill="#ACC953" fill-rule="nonzero" cx="89.18" cy="54.49" r="1.42"/><circle fill="#ACC953" fill-rule="nonzero" cx="93.81" cy="55.2" r="1.07"/><ellipse fill="#ACC953" fill-rule="nonzero" cx="92.56" cy="58.4" rx="1" ry="1.07"/><path d="M35.56 42.57l.71 2s3.13-.36 3.13 0v2.84l1.42.71m-11.38 1.03a55.47 55.47 0 0 1 5.69 1.78m-2.85 8.54l3.92-.24-.36-2.61" stroke="#C69C6D" stroke-width="1.422" stroke-linecap="round" stroke-linejoin="round"/></g></svg>