<svg width="120" height="120" viewBox="0 0 120 120" xmlns="http://www.w3.org/2000/svg" xmlns:xlink="http://www.w3.org/1999/xlink"><defs><path id="a" d="M1.39.87h37.165v21.366H1.39z"/><path id="c" d="M0 .005h106.834v9.36H0z"/></defs><g fill="none" fill-rule="evenodd"><g transform="translate(38.277 .774)"><mask id="b" fill="#fff"><use xlink:href="#a"/></mask><path d="M38.05 11.945h-.041a7.871 7.871 0 0 0-1.821-8.513 7.893 7.893 0 0 0-11.154.115l-.004.001a7.262 7.262 0 0 0-7.205-2.505 7.252 7.252 0 0 0-5.682 6.898h-.002a6.365 6.365 0 0 0-8.991.205 6.348 6.348 0 0 0-.91 7.562l-.017.006v6.522l34.42-.625 1.407-9.666z" fill="#E49A61" mask="url(#b)"/></g><path d="M46.408 49.843h-27.58a7.914 7.914 0 0 1-7.916-7.912c0-4.113 3.144-7.494 7.166-7.872v.001a6.558 6.558 0 0 1-.69-6.952 6.586 6.586 0 0 1 8.827-2.962c-1.281-2.227-.828-5.18 1.126-7.012 2.288-2.144 6.011-1.817 8.161.463a5.677 5.677 0 0 1 5.89-3.417 5.673 5.673 0 0 1 4.978 6.292l.038 29.37z" fill="#FFBD66"/><path d="M107.875 48.274a8.023 8.023 0 0 0 1.108-11.306 8.048 8.048 0 0 0-7.697-2.798c2.43-3.71 1.484-8.738-2.234-11.165A8.062 8.062 0 0 0 90 23.17c.803-5.737-3.614-11.428-9.36-12.227a10.511 10.511 0 0 0-10.883 5.768c-1.436-3.842-6.048-5.967-9.899-4.532a7.424 7.424 0 0 0-4.824 7.292h.005a7.496 7.496 0 0 0-8.641.19 7.46 7.46 0 0 0-1.554 10.442v18.171h63.031z" fill="#F1BB6B"/><path d="M77.163 60.593a6.47 6.47 0 0 0 6.476-6.468c0-3.18-2.3-5.823-5.33-6.362l.007.005a5.123 5.123 0 0 0-.131-5.98 5.134 5.134 0 0 0-7.18-1.01l-.017-.01a5.985 5.985 0 0 0-.86-7.135 6.009 6.009 0 0 0-8.484-.194h-.005a6.842 6.842 0 0 0-5.363-6.51 6.853 6.853 0 0 0-6.8 2.366l-.005-.003a7.451 7.451 0 0 0-10.527-.109 7.425 7.425 0 0 0-1.719 8.035h-.043a9.942 9.942 0 0 0-1.259-.08c-5.253 0-9.511 4.252-9.511 9.496 0 5.245 4.258 9.495 9.511 9.495l41.24 4.464z" fill="#FDDC85"/><path fill="#59C5EF" d="M109.923 54.522H10.912l14.764 64.608h69.481z"/><path fill="#E2E2E2" d="M90.406 54.522h-59.98l8.947 64.608H81.46z"/><path fill="#59C5EF" d="M70.726 54.522H50.109l3.075 64.608h14.467z"/><g transform="translate(7 45.158)"><mask id="d" fill="#fff"><use xlink:href="#c"/></mask><path d="M103.086.005H3.746A3.746 3.746 0 0 0 0 3.748v1.874a3.746 3.746 0 0 0 3.747 3.743h99.339a3.747 3.747 0 0 0 3.748-3.743V3.748a3.747 3.747 0 0 0-3.748-3.743" fill="#C6C6C6" mask="url(#d)"/></g></g></svg>