<svg width="120" height="120" viewBox="0 0 120 120" xmlns="http://www.w3.org/2000/svg" xmlns:xlink="http://www.w3.org/1999/xlink"><defs><path id="a" d="M0 .066h35.162v15.472H0z"/><path id="c" d="M.335.215h35.256v35.181H.335z"/><path id="e" d="M0 .642h35.162v15.473H0z"/><path id="g" d="M.684.418H63.97v18.538H.684z"/><path d="M30.909.136C14.134.136.537 13.704.537 30.443c0 16.738 13.597 30.308 30.372 30.308H56.31c16.775 0 30.372-13.57 30.372-30.308C86.682 13.703 73.085.136 56.31.136h-25.4z" id="i"/><path d="M30.909.136C14.134.136.537 13.704.537 30.443c0 16.738 13.597 30.308 30.372 30.308H56.31c16.775 0 30.372-13.57 30.372-30.308C86.682 13.703 73.085.136 56.31.136h-25.4z" id="k"/><path d="M30.909.136C14.134.136.537 13.704.537 30.443c0 16.738 13.597 30.308 30.372 30.308H56.31c16.775 0 30.372-13.57 30.372-30.308C86.682 13.703 73.085.136 56.31.136h-25.4z" id="m"/><path d="M30.909.136C14.134.136.537 13.704.537 30.443c0 16.738 13.597 30.308 30.372 30.308H56.31c16.775 0 30.372-13.57 30.372-30.308C86.682 13.703 73.085.136 56.31.136h-25.4z" id="o"/><path d="M30.909.136C14.134.136.537 13.704.537 30.443c0 16.738 13.597 30.308 30.372 30.308H56.31c16.775 0 30.372-13.57 30.372-30.308C86.682 13.703 73.085.136 56.31.136h-25.4z" id="q"/><path d="M30.909.136C14.134.136.537 13.704.537 30.443c0 16.738 13.597 30.308 30.372 30.308H56.31c16.775 0 30.372-13.57 30.372-30.308C86.682 13.703 73.085.136 56.31.136h-25.4z" id="s"/><path d="M30.909.136C14.134.136.537 13.704.537 30.443c0 16.738 13.597 30.308 30.372 30.308H56.31c16.775 0 30.372-13.57 30.372-30.308C86.682 13.703 73.085.136 56.31.136h-25.4z" id="u"/><path d="M30.909.136C14.134.136.537 13.704.537 30.443c0 16.738 13.597 30.308 30.372 30.308H56.31c16.775 0 30.372-13.57 30.372-30.308C86.682 13.703 73.085.136 56.31.136h-25.4z" id="w"/><path d="M30.909.136C14.134.136.537 13.704.537 30.443c0 16.738 13.597 30.308 30.372 30.308H56.31c16.775 0 30.372-13.57 30.372-30.308C86.682 13.703 73.085.136 56.31.136h-25.4z" id="y"/><path d="M30.909.136C14.134.136.537 13.704.537 30.443c0 16.738 13.597 30.308 30.372 30.308H56.31c16.775 0 30.372-13.57 30.372-30.308C86.682 13.703 73.085.136 56.31.136h-25.4z" id="A"/><path d="M30.909.136C14.134.136.537 13.704.537 30.443c0 16.738 13.597 30.308 30.372 30.308H56.31c16.775 0 30.372-13.57 30.372-30.308C86.682 13.703 73.085.136 56.31.136h-25.4z" id="C"/><path d="M30.909.136C14.134.136.537 13.704.537 30.443c0 16.738 13.597 30.308 30.372 30.308H56.31c16.775 0 30.372-13.57 30.372-30.308C86.682 13.703 73.085.136 56.31.136h-25.4z" id="E"/><path d="M30.909.136C14.134.136.537 13.704.537 30.443c0 16.738 13.597 30.308 30.372 30.308H56.31c16.775 0 30.372-13.57 30.372-30.308C86.682 13.703 73.085.136 56.31.136h-25.4z" id="G"/><path d="M30.909.136C14.134.136.537 13.704.537 30.443c0 16.738 13.597 30.308 30.372 30.308H56.31c16.775 0 30.372-13.57 30.372-30.308C86.682 13.703 73.085.136 56.31.136h-25.4z" id="I"/><path d="M30.909.136C14.134.136.537 13.704.537 30.443c0 16.738 13.597 30.308 30.372 30.308H56.31c16.775 0 30.372-13.57 30.372-30.308C86.682 13.703 73.085.136 56.31.136h-25.4z" id="K"/><path d="M30.909.136C14.134.136.537 13.704.537 30.443c0 16.738 13.597 30.308 30.372 30.308H56.31c16.775 0 30.372-13.57 30.372-30.308C86.682 13.703 73.085.136 56.31.136h-25.4z" id="M"/><path d="M30.909.136C14.134.136.537 13.704.537 30.443c0 16.738 13.597 30.308 30.372 30.308H56.31c16.775 0 30.372-13.57 30.372-30.308C86.682 13.703 73.085.136 56.31.136h-25.4z" id="O"/><path d="M30.909.136C14.134.136.537 13.704.537 30.443c0 16.738 13.597 30.308 30.372 30.308H56.31c16.775 0 30.372-13.57 30.372-30.308C86.682 13.703 73.085.136 56.31.136h-25.4z" id="Q"/><path d="M30.909.136C14.134.136.537 13.704.537 30.443c0 16.738 13.597 30.308 30.372 30.308H56.31c16.775 0 30.372-13.57 30.372-30.308C86.682 13.703 73.085.136 56.31.136h-25.4z" id="S"/><path d="M30.909.136C14.134.136.537 13.704.537 30.443c0 16.738 13.597 30.308 30.372 30.308H56.31c16.775 0 30.372-13.57 30.372-30.308C86.682 13.703 73.085.136 56.31.136h-25.4z" id="U"/><path d="M30.909.136C14.134.136.537 13.704.537 30.443c0 16.738 13.597 30.308 30.372 30.308H56.31c16.775 0 30.372-13.57 30.372-30.308C86.682 13.703 73.085.136 56.31.136h-25.4z" id="W"/><path d="M30.909.136C14.134.136.537 13.704.537 30.443c0 16.738 13.597 30.308 30.372 30.308H56.31c16.775 0 30.372-13.57 30.372-30.308C86.682 13.703 73.085.136 56.31.136h-25.4z" id="Y"/><path d="M30.909.136C14.134.136.537 13.704.537 30.443c0 16.738 13.597 30.308 30.372 30.308H56.31c16.775 0 30.372-13.57 30.372-30.308C86.682 13.703 73.085.136 56.31.136h-25.4z" id="aa"/><path d="M30.909.136C14.134.136.537 13.704.537 30.443c0 16.738 13.597 30.308 30.372 30.308H56.31c16.775 0 30.372-13.57 30.372-30.308C86.682 13.703 73.085.136 56.31.136h-25.4z" id="ac"/><path d="M30.909.136C14.134.136.537 13.704.537 30.443c0 16.738 13.597 30.308 30.372 30.308H56.31c16.775 0 30.372-13.57 30.372-30.308C86.682 13.703 73.085.136 56.31.136h-25.4z" id="ae"/><path d="M30.909.136C14.134.136.537 13.704.537 30.443c0 16.738 13.597 30.308 30.372 30.308H56.31c16.775 0 30.372-13.57 30.372-30.308C86.682 13.703 73.085.136 56.31.136h-25.4z" id="ag"/><path d="M30.909.136C14.134.136.537 13.704.537 30.443c0 16.738 13.597 30.308 30.372 30.308H56.31c16.775 0 30.372-13.57 30.372-30.308C86.682 13.703 73.085.136 56.31.136h-25.4z" id="ai"/><path d="M30.909.136C14.134.136.537 13.704.537 30.443c0 16.738 13.597 30.308 30.372 30.308H56.31c16.775 0 30.372-13.57 30.372-30.308C86.682 13.703 73.085.136 56.31.136h-25.4z" id="ak"/><path d="M30.909.136C14.134.136.537 13.704.537 30.443c0 16.738 13.597 30.308 30.372 30.308H56.31c16.775 0 30.372-13.57 30.372-30.308C86.682 13.703 73.085.136 56.31.136h-25.4z" id="am"/><path d="M30.909.136C14.134.136.537 13.704.537 30.443c0 16.738 13.597 30.308 30.372 30.308H56.31c16.775 0 30.372-13.57 30.372-30.308C86.682 13.703 73.085.136 56.31.136h-25.4z" id="ao"/><path d="M30.909.136C14.134.136.537 13.704.537 30.443c0 16.738 13.597 30.308 30.372 30.308H56.31c16.775 0 30.372-13.57 30.372-30.308C86.682 13.703 73.085.136 56.31.136h-25.4z" id="aq"/><path d="M30.909.136C14.134.136.537 13.704.537 30.443c0 16.738 13.597 30.308 30.372 30.308H56.31c16.775 0 30.372-13.57 30.372-30.308C86.682 13.703 73.085.136 56.31.136h-25.4z" id="as"/><path d="M30.909.136C14.134.136.537 13.704.537 30.443c0 16.738 13.597 30.308 30.372 30.308H56.31c16.775 0 30.372-13.57 30.372-30.308C86.682 13.703 73.085.136 56.31.136h-25.4z" id="au"/><path d="M30.909.136C14.134.136.537 13.704.537 30.443c0 16.738 13.597 30.308 30.372 30.308H56.31c16.775 0 30.372-13.57 30.372-30.308C86.682 13.703 73.085.136 56.31.136h-25.4z" id="aw"/><path d="M30.909.136C14.134.136.537 13.704.537 30.443c0 16.738 13.597 30.308 30.372 30.308H56.31c16.775 0 30.372-13.57 30.372-30.308C86.682 13.703 73.085.136 56.31.136h-25.4z" id="ay"/><path d="M30.909.136C14.134.136.537 13.704.537 30.443c0 16.738 13.597 30.308 30.372 30.308H56.31c16.775 0 30.372-13.57 30.372-30.308C86.682 13.703 73.085.136 56.31.136h-25.4z" id="aA"/><path d="M30.909.136C14.134.136.537 13.704.537 30.443c0 16.738 13.597 30.308 30.372 30.308H56.31c16.775 0 30.372-13.57 30.372-30.308C86.682 13.703 73.085.136 56.31.136h-25.4z" id="aC"/><path d="M30.909.136C14.134.136.537 13.704.537 30.443c0 16.738 13.597 30.308 30.372 30.308H56.31c16.775 0 30.372-13.57 30.372-30.308C86.682 13.703 73.085.136 56.31.136h-25.4z" id="aE"/><path d="M30.909.136C14.134.136.537 13.704.537 30.443c0 16.738 13.597 30.308 30.372 30.308H56.31c16.775 0 30.372-13.57 30.372-30.308C86.682 13.703 73.085.136 56.31.136h-25.4z" id="aG"/><path d="M30.909.136C14.134.136.537 13.704.537 30.443c0 16.738 13.597 30.308 30.372 30.308H56.31c16.775 0 30.372-13.57 30.372-30.308C86.682 13.703 73.085.136 56.31.136h-25.4z" id="aI"/><path d="M30.909.136C14.134.136.537 13.704.537 30.443c0 16.738 13.597 30.308 30.372 30.308H56.31c16.775 0 30.372-13.57 30.372-30.308C86.682 13.703 73.085.136 56.31.136h-25.4z" id="aK"/><path d="M30.909.136C14.134.136.537 13.704.537 30.443c0 16.738 13.597 30.308 30.372 30.308H56.31c16.775 0 30.372-13.57 30.372-30.308C86.682 13.703 73.085.136 56.31.136h-25.4z" id="aM"/><path d="M30.909.136C14.134.136.537 13.704.537 30.443c0 16.738 13.597 30.308 30.372 30.308H56.31c16.775 0 30.372-13.57 30.372-30.308C86.682 13.703 73.085.136 56.31.136h-25.4z" id="aO"/><path d="M30.909.136C14.134.136.537 13.704.537 30.443c0 16.738 13.597 30.308 30.372 30.308H56.31c16.775 0 30.372-13.57 30.372-30.308C86.682 13.703 73.085.136 56.31.136h-25.4z" id="aQ"/><path d="M30.909.136C14.134.136.537 13.704.537 30.443c0 16.738 13.597 30.308 30.372 30.308H56.31c16.775 0 30.372-13.57 30.372-30.308C86.682 13.703 73.085.136 56.31.136h-25.4z" id="aS"/><path d="M30.909.136C14.134.136.537 13.704.537 30.443c0 16.738 13.597 30.308 30.372 30.308H56.31c16.775 0 30.372-13.57 30.372-30.308C86.682 13.703 73.085.136 56.31.136h-25.4z" id="aU"/><path d="M30.909.136C14.134.136.537 13.704.537 30.443c0 16.738 13.597 30.308 30.372 30.308H56.31c16.775 0 30.372-13.57 30.372-30.308C86.682 13.703 73.085.136 56.31.136h-25.4z" id="aW"/><path d="M30.909.136C14.134.136.537 13.704.537 30.443c0 16.738 13.597 30.308 30.372 30.308H56.31c16.775 0 30.372-13.57 30.372-30.308C86.682 13.703 73.085.136 56.31.136h-25.4z" id="aY"/><path d="M30.909.136C14.134.136.537 13.704.537 30.443c0 16.738 13.597 30.308 30.372 30.308H56.31c16.775 0 30.372-13.57 30.372-30.308C86.682 13.703 73.085.136 56.31.136h-25.4z" id="ba"/><path d="M30.909.136C14.134.136.537 13.704.537 30.443c0 16.738 13.597 30.308 30.372 30.308H56.31c16.775 0 30.372-13.57 30.372-30.308C86.682 13.703 73.085.136 56.31.136h-25.4z" id="bc"/><path d="M30.909.136C14.134.136.537 13.704.537 30.443c0 16.738 13.597 30.308 30.372 30.308H56.31c16.775 0 30.372-13.57 30.372-30.308C86.682 13.703 73.085.136 56.31.136h-25.4z" id="be"/><path d="M30.909.136C14.134.136.537 13.704.537 30.443c0 16.738 13.597 30.308 30.372 30.308H56.31c16.775 0 30.372-13.57 30.372-30.308C86.682 13.703 73.085.136 56.31.136h-25.4z" id="bg"/><path d="M30.909.136C14.134.136.537 13.704.537 30.443c0 16.738 13.597 30.308 30.372 30.308H56.31c16.775 0 30.372-13.57 30.372-30.308C86.682 13.703 73.085.136 56.31.136h-25.4z" id="bi"/><path d="M30.909.136C14.134.136.537 13.704.537 30.443c0 16.738 13.597 30.308 30.372 30.308H56.31c16.775 0 30.372-13.57 30.372-30.308C86.682 13.703 73.085.136 56.31.136h-25.4z" id="bk"/><path d="M30.909.136C14.134.136.537 13.704.537 30.443c0 16.738 13.597 30.308 30.372 30.308H56.31c16.775 0 30.372-13.57 30.372-30.308C86.682 13.703 73.085.136 56.31.136h-25.4z" id="bm"/><path d="M30.909.136C14.134.136.537 13.704.537 30.443c0 16.738 13.597 30.308 30.372 30.308H56.31c16.775 0 30.372-13.57 30.372-30.308C86.682 13.703 73.085.136 56.31.136h-25.4z" id="bo"/><path d="M30.909.136C14.134.136.537 13.704.537 30.443c0 16.738 13.597 30.308 30.372 30.308H56.31c16.775 0 30.372-13.57 30.372-30.308C86.682 13.703 73.085.136 56.31.136h-25.4z" id="bq"/><path d="M30.909.136C14.134.136.537 13.704.537 30.443c0 16.738 13.597 30.308 30.372 30.308H56.31c16.775 0 30.372-13.57 30.372-30.308C86.682 13.703 73.085.136 56.31.136h-25.4z" id="bs"/><path d="M30.909.136C14.134.136.537 13.704.537 30.443c0 16.738 13.597 30.308 30.372 30.308H56.31c16.775 0 30.372-13.57 30.372-30.308C86.682 13.703 73.085.136 56.31.136h-25.4z" id="bu"/><path d="M30.909.136C14.134.136.537 13.704.537 30.443c0 16.738 13.597 30.308 30.372 30.308H56.31c16.775 0 30.372-13.57 30.372-30.308C86.682 13.703 73.085.136 56.31.136h-25.4z" id="bw"/><path d="M30.909.136C14.134.136.537 13.704.537 30.443c0 16.738 13.597 30.308 30.372 30.308H56.31c16.775 0 30.372-13.57 30.372-30.308C86.682 13.703 73.085.136 56.31.136h-25.4z" id="by"/><path d="M30.909.136C14.134.136.537 13.704.537 30.443c0 16.738 13.597 30.308 30.372 30.308H56.31c16.775 0 30.372-13.57 30.372-30.308C86.682 13.703 73.085.136 56.31.136h-25.4z" id="bA"/><path d="M30.909.136C14.134.136.537 13.704.537 30.443c0 16.738 13.597 30.308 30.372 30.308H56.31c16.775 0 30.372-13.57 30.372-30.308C86.682 13.703 73.085.136 56.31.136h-25.4z" id="bC"/><path d="M30.909.136C14.134.136.537 13.704.537 30.443c0 16.738 13.597 30.308 30.372 30.308H56.31c16.775 0 30.372-13.57 30.372-30.308C86.682 13.703 73.085.136 56.31.136h-25.4z" id="bE"/></defs><g fill="none" fill-rule="evenodd"><path d="M90.791 72.603c0 19.447-15.769 35.182-35.256 35.182l35.256-35.182z" fill="#B8BD00"/><g transform="translate(0 67.87)"><mask id="b" fill="#fff"><use xlink:href="#a"/></mask><path d="M35.162.066C29.062 13.373 13.335 19.216 0 13.13L35.162.066z" fill="#B8BD00" mask="url(#b)"/></g><g transform="translate(55.2 13.584)"><mask id="d" fill="#fff"><use xlink:href="#c"/></mask><path d="M35.591 35.396C35.591 15.95 19.822.214.335.214l35.256 35.182z" fill="#B8BD00" mask="url(#d)"/></g><g transform="translate(0 37.533)"><mask id="f" fill="#fff"><use xlink:href="#e"/></mask><path d="M35.162 16.115C29.062 2.808 13.335-3.035 0 3.052l35.162 13.063z" fill="#B8BD00" mask="url(#f)"/></g><g transform="translate(56 51.105)"><mask id="h" fill="#fff"><use xlink:href="#g"/></mask><path d="M54.681.418H.684v18.538h53.997c5.13 0 9.289-4.15 9.289-9.269 0-5.12-4.159-9.27-9.289-9.27" fill="#B8BD00" mask="url(#h)"/></g><path d="M114.76 65.258a1.915 1.915 0 0 0-1.917-1.913 1.915 1.915 0 1 0 0 3.827c1.06 0 1.918-.857 1.918-1.914m-.001-7.999a1.915 1.915 0 0 0-1.917-1.914 1.915 1.915 0 0 0 0 3.827c1.06 0 1.918-.856 1.918-1.913" fill="#000"/><g transform="translate(17.6 30.348)"><mask id="j" fill="#fff"><use xlink:href="#i"/></mask><path fill="#9D3501" mask="url(#j)" d="M75.417 4.072h-9.67l-4.834 8.357 4.834 8.356h9.67l4.834-8.356z"/></g><g transform="translate(17.6 30.348)"><mask id="l" fill="#fff"><use xlink:href="#k"/></mask><path fill="#8F2C01" mask="url(#l)" d="M89.92-4.285h-9.669l-4.834 8.357 4.834 8.356h9.67l4.834-8.356z"/></g><g transform="translate(17.6 30.348)"><mask id="n" fill="#fff"><use xlink:href="#m"/></mask><path fill="#9D3501" mask="url(#n)" d="M75.417-12.64h-9.67l-4.834 8.356 4.834 8.356h9.67l4.834-8.356z"/></g><g transform="translate(17.6 30.348)"><mask id="p" fill="#fff"><use xlink:href="#o"/></mask><path fill="#9D3501" mask="url(#p)" d="M75.417 20.785h-9.67l-4.834 8.356 4.834 8.356h9.67l4.834-8.356z"/></g><g transform="translate(17.6 30.348)"><mask id="r" fill="#fff"><use xlink:href="#q"/></mask><path fill="#B24006" mask="url(#r)" d="M89.92 12.428h-9.669l-4.834 8.356 4.834 8.357h9.67l4.834-8.357z"/></g><g transform="translate(17.6 30.348)"><mask id="t" fill="#fff"><use xlink:href="#s"/></mask><path fill="#9D3501" mask="url(#t)" d="M75.417 4.072h-9.67l-4.834 8.357 4.834 8.356h9.67l4.834-8.356z"/></g><g transform="translate(17.6 30.348)"><mask id="v" fill="#fff"><use xlink:href="#u"/></mask><path fill="#9D3501" mask="url(#v)" d="M75.417 37.497h-9.67l-4.834 8.356 4.834 8.357h9.67l4.834-8.357z"/></g><g transform="translate(17.6 30.348)"><mask id="x" fill="#fff"><use xlink:href="#w"/></mask><path fill="#9D3501" mask="url(#x)" d="M89.92 29.14h-9.669l-4.834 8.357 4.834 8.356h9.67l4.834-8.356z"/></g><g transform="translate(17.6 30.348)"><mask id="z" fill="#fff"><use xlink:href="#y"/></mask><path fill="#9D3501" mask="url(#z)" d="M75.417 20.785h-9.67l-4.834 8.356 4.834 8.356h9.67l4.834-8.356z"/></g><g transform="translate(17.6 30.348)"><mask id="B" fill="#fff"><use xlink:href="#A"/></mask><path fill="#9D3501" mask="url(#B)" d="M75.417 54.21h-9.67l-4.834 8.356 4.834 8.356h9.67l4.834-8.356z"/></g><g transform="translate(17.6 30.348)"><mask id="D" fill="#fff"><use xlink:href="#C"/></mask><path fill="#8F2C01" mask="url(#D)" d="M89.92 45.853h-9.669l-4.834 8.357 4.834 8.356h9.67l4.834-8.356z"/></g><g transform="translate(17.6 30.348)"><mask id="F" fill="#fff"><use xlink:href="#E"/></mask><path fill="#9D3501" mask="url(#F)" d="M75.417 37.497h-9.67l-4.834 8.356 4.834 8.357h9.67l4.834-8.357z"/></g><g transform="translate(17.6 30.348)"><mask id="H" fill="#fff"><use xlink:href="#G"/></mask><path fill="#9D3501" mask="url(#H)" d="M75.417 4.072h-9.67l-4.834 8.357 4.834 8.356h9.67l4.834-8.356z"/></g><g transform="translate(17.6 30.348)"><mask id="J" fill="#fff"><use xlink:href="#I"/></mask><path fill="#9D3501" mask="url(#J)" d="M46.41 4.072h-9.671l-4.834 8.357 4.834 8.356h9.67l4.834-8.356z"/></g><g transform="translate(17.6 30.348)"><mask id="L" fill="#fff"><use xlink:href="#K"/></mask><path fill="#B24006" mask="url(#L)" d="M75.417-12.64h-9.67l-4.834 8.356 4.834 8.356h9.67l4.834-8.356z"/></g><g transform="translate(17.6 30.348)"><mask id="N" fill="#fff"><use xlink:href="#M"/></mask><path fill="#8F2C01" mask="url(#N)" d="M60.913-4.285h-9.67l-4.834 8.357 4.834 8.356h9.67l4.834-8.356z"/></g><g transform="translate(17.6 30.348)"><mask id="P" fill="#fff"><use xlink:href="#O"/></mask><path fill="#9D3501" mask="url(#P)" d="M46.41-12.64h-9.671l-4.834 8.356 4.834 8.356h9.67l4.834-8.356z"/></g><g transform="translate(17.6 30.348)"><mask id="R" fill="#fff"><use xlink:href="#Q"/></mask><path fill="#9D3501" mask="url(#R)" d="M75.417 20.785h-9.67l-4.834 8.356 4.834 8.356h9.67l4.834-8.356z"/></g><g transform="translate(17.6 30.348)"><mask id="T" fill="#fff"><use xlink:href="#S"/></mask><path fill="#9D3501" mask="url(#T)" d="M46.41 20.785h-9.671l-4.834 8.356 4.834 8.356h9.67l4.834-8.356z"/></g><g transform="translate(17.6 30.348)"><mask id="V" fill="#fff"><use xlink:href="#U"/></mask><path fill="#9D3501" mask="url(#V)" d="M75.417 4.072h-9.67l-4.834 8.357 4.834 8.356h9.67l4.834-8.356z"/></g><g transform="translate(17.6 30.348)"><mask id="X" fill="#fff"><use xlink:href="#W"/></mask><path fill="#B24006" mask="url(#X)" d="M60.913 12.428h-9.67l-4.834 8.356 4.834 8.357h9.67l4.834-8.357z"/></g><g transform="translate(17.6 30.348)"><mask id="Z" fill="#fff"><use xlink:href="#Y"/></mask><path fill="#9D3501" mask="url(#Z)" d="M46.41 4.072h-9.671l-4.834 8.357 4.834 8.356h9.67l4.834-8.356z"/></g><g transform="translate(17.6 30.348)"><mask id="ab" fill="#fff"><use xlink:href="#aa"/></mask><path fill="#9D3501" mask="url(#ab)" d="M75.417 37.497h-9.67l-4.834 8.356 4.834 8.357h9.67l4.834-8.357z"/></g><g transform="translate(17.6 30.348)"><mask id="ad" fill="#fff"><use xlink:href="#ac"/></mask><path fill="#9D3501" mask="url(#ad)" d="M46.41 37.497h-9.671l-4.834 8.356 4.834 8.357h9.67l4.834-8.357z"/></g><g transform="translate(17.6 30.348)"><mask id="af" fill="#fff"><use xlink:href="#ae"/></mask><path fill="#8F2C01" mask="url(#af)" d="M75.417 20.785h-9.67l-4.834 8.356 4.834 8.356h9.67l4.834-8.356z"/></g><g transform="translate(17.6 30.348)"><mask id="ah" fill="#fff"><use xlink:href="#ag"/></mask><path fill="#9D3501" mask="url(#ah)" d="M60.913 29.14h-9.67l-4.834 8.357 4.834 8.356h9.67l4.834-8.356z"/></g><g transform="translate(17.6 30.348)"><mask id="aj" fill="#fff"><use xlink:href="#ai"/></mask><path fill="#9D3501" mask="url(#aj)" d="M46.41 20.785h-9.671l-4.834 8.356 4.834 8.356h9.67l4.834-8.356z"/></g><g transform="translate(17.6 30.348)"><mask id="al" fill="#fff"><use xlink:href="#ak"/></mask><path fill="#9D3501" mask="url(#al)" d="M75.417 54.21h-9.67l-4.834 8.356 4.834 8.356h9.67l4.834-8.356z"/></g><g transform="translate(17.6 30.348)"><mask id="an" fill="#fff"><use xlink:href="#am"/></mask><path fill="#9D3501" mask="url(#an)" d="M46.41 54.21h-9.671l-4.834 8.356 4.834 8.356h9.67l4.834-8.356z"/></g><g transform="translate(17.6 30.348)"><mask id="ap" fill="#fff"><use xlink:href="#ao"/></mask><path fill="#B24006" mask="url(#ap)" d="M75.417 37.497h-9.67l-4.834 8.356 4.834 8.357h9.67l4.834-8.357z"/></g><g transform="translate(17.6 30.348)"><mask id="ar" fill="#fff"><use xlink:href="#aq"/></mask><path fill="#8F2C01" mask="url(#ar)" d="M60.913 45.853h-9.67l-4.834 8.357 4.834 8.356h9.67l4.834-8.356z"/></g><g transform="translate(17.6 30.348)"><mask id="at" fill="#fff"><use xlink:href="#as"/></mask><path fill="#9D3501" mask="url(#at)" d="M46.41 37.497h-9.671l-4.834 8.356 4.834 8.357h9.67l4.834-8.357z"/></g><g transform="translate(17.6 30.348)"><mask id="av" fill="#fff"><use xlink:href="#au"/></mask><path fill="#9D3501" mask="url(#av)" d="M46.41 4.072h-9.671l-4.834 8.357 4.834 8.356h9.67l4.834-8.356z"/></g><g transform="translate(17.6 30.348)"><mask id="ax" fill="#fff"><use xlink:href="#aw"/></mask><path fill="#9D3501" mask="url(#ax)" d="M17.4 4.072H7.733l-4.835 8.357 4.835 8.356H17.4l4.834-8.356z"/></g><g transform="translate(17.6 30.348)"><mask id="az" fill="#fff"><use xlink:href="#ay"/></mask><path fill="#B24006" mask="url(#az)" d="M46.41-12.64h-9.671l-4.834 8.356 4.834 8.356h9.67l4.834-8.356z"/></g><g transform="translate(17.6 30.348)"><mask id="aB" fill="#fff"><use xlink:href="#aA"/></mask><path fill="#8F2C01" mask="url(#aB)" d="M31.905-4.285h-9.67L17.4 4.072l4.835 8.356h9.67l4.834-8.356z"/></g><g transform="translate(17.6 30.348)"><mask id="aD" fill="#fff"><use xlink:href="#aC"/></mask><path fill="#9D3501" mask="url(#aD)" d="M17.4-12.64H7.733L2.897-4.284l4.835 8.356H17.4l4.834-8.356z"/></g><g transform="translate(17.6 30.348)"><mask id="aF" fill="#fff"><use xlink:href="#aE"/></mask><path fill="#9D3501" mask="url(#aF)" d="M46.41 20.785h-9.671l-4.834 8.356 4.834 8.356h9.67l4.834-8.356z"/></g><g transform="translate(17.6 30.348)"><mask id="aH" fill="#fff"><use xlink:href="#aG"/></mask><path fill="#9D3501" mask="url(#aH)" d="M17.4 20.785H7.733L2.897 29.14l4.835 8.356H17.4l4.834-8.356z"/></g><g transform="translate(17.6 30.348)"><mask id="aJ" fill="#fff"><use xlink:href="#aI"/></mask><path fill="#9D3501" mask="url(#aJ)" d="M46.41 4.072h-9.671l-4.834 8.357 4.834 8.356h9.67l4.834-8.356z"/></g><g transform="translate(17.6 30.348)"><mask id="aL" fill="#fff"><use xlink:href="#aK"/></mask><path fill="#B24006" mask="url(#aL)" d="M31.905 12.428h-9.67L17.4 20.784l4.835 8.357h9.67l4.834-8.357z"/></g><g transform="translate(17.6 30.348)"><mask id="aN" fill="#fff"><use xlink:href="#aM"/></mask><path fill="#9D3501" mask="url(#aN)" d="M17.4 4.072H7.733l-4.835 8.357 4.835 8.356H17.4l4.834-8.356z"/></g><g transform="translate(17.6 30.348)"><mask id="aP" fill="#fff"><use xlink:href="#aO"/></mask><path fill="#9D3501" mask="url(#aP)" d="M46.41 37.497h-9.671l-4.834 8.356 4.834 8.357h9.67l4.834-8.357z"/></g><g transform="translate(17.6 30.348)"><mask id="aR" fill="#fff"><use xlink:href="#aQ"/></mask><path fill="#9D3501" mask="url(#aR)" d="M17.4 37.497H7.733l-4.835 8.356 4.835 8.357H17.4l4.834-8.357z"/></g><g transform="translate(17.6 30.348)"><mask id="aT" fill="#fff"><use xlink:href="#aS"/></mask><path fill="#8F2C01" mask="url(#aT)" d="M46.41 20.785h-9.671l-4.834 8.356 4.834 8.356h9.67l4.834-8.356z"/></g><g transform="translate(17.6 30.348)"><mask id="aV" fill="#fff"><use xlink:href="#aU"/></mask><path fill="#9D3501" mask="url(#aV)" d="M31.905 29.14h-9.67L17.4 37.498l4.835 8.356h9.67l4.834-8.356z"/></g><g transform="translate(17.6 30.348)"><mask id="aX" fill="#fff"><use xlink:href="#aW"/></mask><path fill="#9D3501" mask="url(#aX)" d="M17.4 20.785H7.733L2.897 29.14l4.835 8.356H17.4l4.834-8.356z"/></g><g transform="translate(17.6 30.348)"><mask id="aZ" fill="#fff"><use xlink:href="#aY"/></mask><path fill="#9D3501" mask="url(#aZ)" d="M46.41 54.21h-9.671l-4.834 8.356 4.834 8.356h9.67l4.834-8.356z"/></g><g transform="translate(17.6 30.348)"><mask id="bb" fill="#fff"><use xlink:href="#ba"/></mask><path fill="#9D3501" mask="url(#bb)" d="M17.4 54.21H7.733l-4.835 8.356 4.835 8.356H17.4l4.834-8.356z"/></g><g transform="translate(17.6 30.348)"><mask id="bd" fill="#fff"><use xlink:href="#bc"/></mask><path fill="#B24006" mask="url(#bd)" d="M46.41 37.497h-9.671l-4.834 8.356 4.834 8.357h9.67l4.834-8.357z"/></g><g transform="translate(17.6 30.348)"><mask id="bf" fill="#fff"><use xlink:href="#be"/></mask><path fill="#8F2C01" mask="url(#bf)" d="M31.905 45.853h-9.67L17.4 54.21l4.835 8.356h9.67l4.834-8.356z"/></g><g transform="translate(17.6 30.348)"><mask id="bh" fill="#fff"><use xlink:href="#bg"/></mask><path fill="#9D3501" mask="url(#bh)" d="M17.4 37.497H7.733l-4.835 8.356 4.835 8.357H17.4l4.834-8.357z"/></g><g transform="translate(17.6 30.348)"><mask id="bj" fill="#fff"><use xlink:href="#bi"/></mask><path fill="#9D3501" mask="url(#bj)" d="M17.4 4.072H7.733l-4.835 8.357 4.835 8.356H17.4l4.834-8.356z"/></g><g transform="translate(17.6 30.348)"><mask id="bl" fill="#fff"><use xlink:href="#bk"/></mask><path fill="#B24006" mask="url(#bl)" d="M17.4-12.64H7.733L2.897-4.284l4.835 8.356H17.4l4.834-8.356z"/></g><g transform="translate(17.6 30.348)"><mask id="bn" fill="#fff"><use xlink:href="#bm"/></mask><path fill="#8F2C01" mask="url(#bn)" d="M2.897-4.285h-9.67l-4.834 8.357 4.834 8.356h9.67l4.834-8.356z"/></g><g transform="translate(17.6 30.348)"><mask id="bp" fill="#fff"><use xlink:href="#bo"/></mask><path fill="#9D3501" mask="url(#bp)" d="M17.4 20.785H7.733L2.897 29.14l4.835 8.356H17.4l4.834-8.356z"/></g><g transform="translate(17.6 30.348)"><mask id="br" fill="#fff"><use xlink:href="#bq"/></mask><path fill="#9D3501" mask="url(#br)" d="M17.4 4.072H7.733l-4.835 8.357 4.835 8.356H17.4l4.834-8.356z"/></g><g transform="translate(17.6 30.348)"><mask id="bt" fill="#fff"><use xlink:href="#bs"/></mask><path fill="#B24006" mask="url(#bt)" d="M2.897 12.428h-9.67l-4.834 8.356 4.834 8.357h9.67l4.834-8.357z"/></g><g transform="translate(17.6 30.348)"><mask id="bv" fill="#fff"><use xlink:href="#bu"/></mask><path fill="#9D3501" mask="url(#bv)" d="M17.4 37.497H7.733l-4.835 8.356 4.835 8.357H17.4l4.834-8.357z"/></g><g transform="translate(17.6 30.348)"><mask id="bx" fill="#fff"><use xlink:href="#bw"/></mask><path fill="#8F2C01" mask="url(#bx)" d="M17.4 20.785H7.733L2.897 29.14l4.835 8.356H17.4l4.834-8.356z"/></g><g transform="translate(17.6 30.348)"><mask id="bz" fill="#fff"><use xlink:href="#by"/></mask><path fill="#9D3501" mask="url(#bz)" d="M2.897 29.14h-9.67l-4.834 8.357 4.834 8.356h9.67l4.834-8.356z"/></g><g transform="translate(17.6 30.348)"><mask id="bB" fill="#fff"><use xlink:href="#bA"/></mask><path fill="#9D3501" mask="url(#bB)" d="M17.4 54.21H7.733l-4.835 8.356 4.835 8.356H17.4l4.834-8.356z"/></g><g transform="translate(17.6 30.348)"><mask id="bD" fill="#fff"><use xlink:href="#bC"/></mask><path fill="#B24006" mask="url(#bD)" d="M17.4 37.497H7.733l-4.835 8.356 4.835 8.357H17.4l4.834-8.357z"/></g><g transform="translate(17.6 30.348)"><mask id="bF" fill="#fff"><use xlink:href="#bE"/></mask><path fill="#8F2C01" mask="url(#bF)" d="M2.897 45.853h-9.67l-4.834 8.357 4.834 8.356h9.67l4.834-8.356z"/></g></g></svg>