<svg width="120" height="120" viewBox="0 0 120 120" xmlns="http://www.w3.org/2000/svg" xmlns:xlink="http://www.w3.org/1999/xlink"><defs><path id="a" d="M0 .176h81.46v117.889H0z"/></defs><g fill="none" fill-rule="evenodd"><g transform="translate(19 1.759)"><mask id="b" fill="#fff"><use xlink:href="#a"/></mask><path d="M81.459 77.21c-.116-25.777-9.434-63.66-9.434-63.66s-6.535 3.815-15.434 9.608C48.116 10.07 40.731.176 40.731.176s-7.384 9.894-15.86 22.982C15.974 17.365 9.437 13.55 9.437 13.55S.119 51.433.003 77.21c0 .02-.004.04-.004.058 0 .029.006.058.006.087C-.02 84.451.659 90.627 2.43 94.82c6.377 15.083 21.292 23.878 36.711 23.21-.118-.01-.24-.006-.357-.017-15.96-1.01-28.602-14.276-28.602-30.532 0-3.707 1.467-8.565 3.756-13.89 1.878-16.964 6.229-34.658 6.229-34.658s4.088 2.384 9.879 6.106c5.833-8.88 10.684-15.377 10.684-15.377s4.852 6.497 10.685 15.377c5.79-3.722 9.88-6.106 9.88-6.106s4.348 17.694 6.226 34.659c2.29 5.324 3.756 10.182 3.756 13.889 0 16.256-12.64 29.522-28.6 30.532-.118.011-.24.008-.357.017 15.417.668 30.332-8.127 36.71-23.21 1.771-4.192 2.449-10.368 2.428-17.466l.001-.085-.001-.058" fill="#F77527" mask="url(#b)"/></g><path d="M90.279 89.238c0-3.707-1.467-8.565-3.757-13.89-1.878-16.962-6.227-34.658-6.227-34.658s-4.09 2.385-9.88 6.107C64.58 37.917 59.73 31.419 59.73 31.419s-4.85 6.498-10.684 15.378c-5.79-3.722-9.879-6.107-9.879-6.107s-4.35 17.696-6.229 34.659c-2.29 5.324-3.756 10.182-3.756 13.889 0 16.256 12.641 29.522 28.602 30.532-2.11-.215-4.105-.801-5.953-1.649-.007-.004-.015-.006-.02-.01-.057-.027-.117-.046-.175-.073l.043.011c-.176-.077-.342-.168-.514-.25l-.032-.005c-.05-.025-.097-.054-.145-.08-6.841-3.278-11.58-10.263-11.58-18.373 0-11.253 20.322-38.462 20.322-38.462s20.321 27.21 20.321 38.462c0 8.11-4.736 15.095-11.577 18.374-.05.025-.097.054-.147.079l-.03.006c-.175.081-.34.172-.516.25l.042-.012c-.056.027-.116.046-.172.073a.118.118 0 0 0-.023.01c-1.847.848-3.843 1.434-5.95 1.65 15.959-1.011 28.6-14.277 28.6-30.533" fill="#F7921E"/><path d="M67.782 118.049c.176-.077.342-.168.516-.25.057-.029.117-.056.175-.085 6.841-3.279 11.578-10.264 11.578-18.373 0-11.253-20.32-38.462-20.32-38.462S39.41 88.088 39.41 99.34c0 8.11 4.736 15.094 11.577 18.373.06.03.118.056.18.085.172.082.338.173.513.25.045.02.085.043.131.062.006.004.014.006.022.01a20.211 20.211 0 0 0 7.898 1.596 20.218 20.218 0 0 0 7.922-1.606c.044-.02.085-.043.13-.062" fill="#F7A621"/></g></svg>