<svg xmlns="http://www.w3.org/2000/svg" width="41.795" height="164.697" viewBox="0.4 0.5 41.795 164.697"><defs><style/></defs><g id="ID0.5977698415517807" transform="translate(.4 .5) scale(.66342)"><path id="Fill" fill="#FAEC00" d="M60.156 78.704l-21.484 10.53L54.263 40.71l-21.85 10.917 8.362-47.541-38.132.001 1.901 77.874 15.007-9.553-10.55 51.854 17.231-12.758-7.578 63.497 11.041-11.439-6.425 72.504 31.552-102.42-15.472 10.982 20.806-65.924"/><path id="Outline" fill="#231F20" d="M63 75.334l-18.334 7.583L58.5 36.432l-20.167 8.735 7.334-42.833L0 0l1.666 88.667 12.602-9.287-8.602 50.396 17.418-10.159-8.084 63.3 8.839-7.769-2.64 73.106L63 124.001l-16.25 11.166L63 75.334zm-10 60.833l-27.898 90.557 5.842-65.894L20 172.167l7.5-62.847-17 12.587L21 70.3 5.5 80.167 3.667 5.087l35.917-.001-8.5 48.323 21.5-10.742L37 91.167 58.5 80.63l-21 66.537 15.5-11z"/></g></svg>