<svg width="120" height="120" viewBox="0 0 120 120" xmlns="http://www.w3.org/2000/svg" xmlns:xlink="http://www.w3.org/1999/xlink"><defs><path id="a" d="M0 .142h57.988V119.57H0z"/></defs><g fill="none" fill-rule="evenodd"><g transform="translate(31 .288)"><mask id="b" fill="#fff"><use xlink:href="#a"/></mask><path d="M19.334 118.106c-5.667-1.572-11.043-4.92-14-10.008C-.14 98.68 3.925 86.696 2.182 75.94 1.547 72.02.122 68.216.008 64.248c-.262-9.025 6.151-16.831 8.083-25.65 1.623 4.52 6.028 7.18 8.51 11.256.196-11.297 3.802-22.513 10.226-31.804 1.881-2.721 4.01-5.304 5.412-8.302 1.4-2.997 2.001-6.571.683-9.606 5.127 6.93 8.196 15.367 8.72 23.975.337 5.547-.335 11.282 1.471 16.538 1.272 3.702 3.684 6.882 5.585 10.303a40.586 40.586 0 0 1 4.25 11.421 19.004 19.004 0 0 0 2.308-5.719 118.315 118.315 0 0 1 2.725 26.626c-.085 7.631.19 18.023-3.757 24.822-6.724 11.581-23.189 13.245-34.89 9.998" fill="#AF2312" mask="url(#b)"/></g><path d="M53.081 115.913a24.552 24.552 0 0 1-4.281-2.756c-6.954-5.54-11.6-15.234-9.135-24.17.611-2.213 1.7-4.289 2.112-6.547.583-3.203-.238-6.468-.66-9.696a39.717 39.717 0 0 1 1.376-16.652c3.097 1.852 3.857 5.912 4.483 9.468.626 3.556 1.878 7.636 5.268 8.87.271.099.567.176.847.108.446-.109.724-.543.936-.95 4.713-9.098-.582-17.504-.03-26.932.485-8.296 6.023-15.31 11.312-21.714-.971 8.236-1.819 17.129 2.296 24.327 1.978 3.459 4.987 6.268 6.765 9.833 1.908 3.826 2.255 8.21 3.234 12.373 1.322 5.618 3.82 10.888 5.462 16.421 2.62 8.831 1.731 18.147-5.332 24.66-5.747 5.297-14.963 6.978-22.28 4.372a21.174 21.174 0 0 1-2.373-1.015" fill="#F46E0B"/><path d="M77.101 102.689c.022 1.665-.16 3.235-.612 4.588-1.948 5.83-7.559 9.867-13.697 9.867-6.491 0-11.81-4.7-14.16-10.513-3.023-7.478-.01-15.45.904-23.055 1.058 1.389.887 3.369 1.685 4.922 3.371 6.563 10.338-1.677 10.864-5.797.439-3.433-.448-6.875-.937-10.3-.489-3.426-.512-7.169 1.409-10.046.977 7.483 5.157 13.942 8.803 20.365 3.601 6.344 5.644 12.585 5.741 19.969" fill="#FEE215"/></g></svg>