<svg width="105" height="136" viewBox="-1 -1 105 136" xmlns="http://www.w3.org/2000/svg"><path fill="#FFF" d="M60.41 88.6L50.307 88l-16.089-5.875-8.716-8.925-4.247-15.094 6.127-14.531 9.875-8.775 10.36-3.7 11.274-1.6 11.666.9 12.225 3.2 12.252 5.9 5.778 8 .997 4.6.996 8.378-1.594 8.322-4.184 8.1-5.479 5.2-9.065 5.1-13.249 2.6-8.824-1.2"/><path fill="#EF463C" d="M59.695 1.125l-4.706.9-4.558 3.3-.897 4.05 3.461 5.325 5.896 1.275 6.109-2.7.822-6.15-2.914-4.5-3.213-1.5"/><path fill="#FCB322" d="M92.943 47.55c-.523.075-14.42 3.15-14.42 3.15l-10.609-1.95-14.919 1.275-4.208 1.575H28.989v9.3l.373 5.376 2.839 6.174s2.167 2.025 2.391 2.1c.224.075 3.287-2.475 3.287-2.475l2.466-2.775 1.27 3.225 1.419 4.725 5.305 6.975 5.678 3.375-1.985 2.55-10.492.9h-9.563l-7.994-3.3-6.426 2.05-3.063-2.125-3.586-5.85L6.874 75.6l-2.541-1.575-2.54.9-.672 2.325.747 5.1 3.81 6.75 5.006 5.1 2.914 1.65-.897 18.375 1.27 7.95s2.391 7.425 2.54 7.65c.15.225 2.541 2.55 2.541 2.55l6.724.75 6.052-2.7 3.586-.225 3.81-2.55.374-3.825-.972-8.175-.821-2.025 4.184-.075 9.488-1.65 4.782-1.575 2.632 13.65 3.038 4.725 4.341 1.425L72.994 129l3.063-2.625 2.84.075 3.511-1.275.672-3.6-1.195-4.65-1.644-6.9-1.867-6.225-2.167-5.175.523-5.025 1.195-5.325-3.138.225 1.719-2.25s6.948-4.35 7.097-4.575c.15-.225 4.259-7.95 4.259-7.95l.897-5.625 4.184 2.925 4.856-.9V61.95l-2.54-11.4-2.316-3z"/><path fill="#71CBD2" d="M42.287 77.4h-7.172l-9.787-.6-1.345 3.3s.074 5.7 0 6c-.075.3 1.195 2.925 1.195 2.925l8.667 2.25L33.77 93l-.971 5.625v6.15L34.443 111l1.419 1.8 5.155.975 7.92-1.35-2.765-4.8-1.344-4.2-.075-5.175 2.241-7.125 7.173-2.775-4.707-3.825s-3.661-2.85-3.811-3.075c-.149-.225-1.419-3.3-1.419-3.3l-1.943-.75z"/><path fill="#2A3D98" d="M25.593 75.181c-.849-1.227-1.857-2.262-2.357-3.502-.848-2.105-1.474-4.316-2.02-6.526-1.319-5.332-.393-10.413 1.945-15.291 1.599-3.338 3.302-6.64 5.885-9.324 1.708-1.773 3.632-3.347 5.531-4.921 4.61-3.821 10.101-5.394 15.898-6.185 3.185-.434 6.357-.972 9.806-1.504l-1.362-10.877c-.959-.137-1.78-.324-2.606-.359-3.531-.153-5.411-2.403-6.919-5.263-2.418-4.584 1.295-9.533 5.474-10.687C56.82.203 58.722.143 60.68.566c2.629.566 4.251 2.352 5.199 4.675.59 1.447.764 3.089.969 4.664.317 2.432-1.266 4.788-3.605 5.576l-1.901.637.855 11.981c2.175.198 4.368.308 6.534.616 3.842.546 7.67 1.111 11.391 2.356a72.478 72.478 0 0 1 12.584 5.562c1.409.793 2.566 2.045 3.815 3.113 2.404 2.058 4.648 5.478 5.691 8.483.25.72.425 1.443.666 2.146 1.52 4.432.86 9.387.239 13.993-.443 3.292-1.593 6.272-2.995 9.156-.881 1.813-2.214 3.464-3.593 4.959-3.192 3.46-6.781 6.472-11.089 8.463-2.002.926-4.069 1.753-6.179 2.378-.89.264-.782.81-.888 1.325-.454 2.198-.851 4.408-1.266 6.615-.045.238-.162.516-.087.715.55 1.454 1.202 2.868 1.703 4.337.863 2.536 1.731 5.077 2.431 7.66 1.007 3.716 2.014 7.443 2.71 11.223.267 1.451-.163 3.102-.559 4.586-.412 1.545-2.062 1.557-3.273 1.938-.822.258-1.794.015-2.696.056-.386.018-.945.059-1.121.307-2.113 2.976-5.138 3.686-8.514 3.546-1.031-.042-2.084-.057-3.082-.285-2.429-.554-4.322-1.82-5.558-4.127-1.756-3.274-2.084-6.945-3.116-10.417-.416-1.404-.604-2.876-.945-4.563-.792.188-1.61.342-2.403.579-4.247 1.27-8.55 2.134-13.207 1.806 0 .778-.189 1.564.033 2.208.985 2.854 1.332 5.801 1.409 8.785.018.719-.179 1.509-.494 2.159-1.715 3.537-4.495 4.569-7.709 3.53-.239-.077-.653.09-.864.28-2.478 2.229-5.333 3.187-8.669 2.884-1.506-.136-2.933-.297-4.313-1.026-3.3-1.744-4.574-4.705-5.173-8.151a29.8 29.8 0 0 0-.774-3.223c-1.034-3.545-1.348-7.2-1.636-10.853-.166-2.118-.324-4.264-.169-6.375.184-2.526.641-5.038 1.121-7.53.148-.769.058-1.25-.575-1.57-3.617-1.833-5.773-5.037-7.897-8.307C1.812 84.558.796 81.473.323 78.053c-.239-1.722.168-2.875 1.082-4.094 1.295-1.728 2.767-1.859 4.541-.637 1.895 1.305 2.901 3.209 3.819 5.187 1.133 2.441 2.494 4.794 4.158 6.911.819 1.04 1.71 2.101 2.73 2.95 1.149.96 1.626.355 2.853-.261.666-.335 2.426-.717 3-1.313.659-.684.019-1.603-.093-2.387-.128-.893-.083-1.924.006-2.823a10.989 10.989 0 0 1 2.228-5.605c.219-.287.559-.479.946-.8zm50.751 12.243c.452.256.527.336.589.327.332-.046.667-.09.99-.177 4.975-1.343 9.512-3.542 13.315-7.079 1.749-1.626 3.572-3.24 4.994-5.137 2.378-3.174 3.919-6.734 4.668-10.739.86-4.596.709-9.03-.71-13.421-.642-1.984-1.428-3.962-2.454-5.768-.915-1.61-1.998-3.327-3.448-4.391-5.444-3.99-11.392-6.983-18.012-8.624-5.411-1.34-10.88-2.182-16.404-1.758-5.176.398-10.365.912-15.392 2.555-3.653 1.194-6.926 2.901-9.891 5.303-5.127 4.153-8.802 9.354-10.634 15.683-.694 2.398-.782 5.053-.692 7.575.074 2.087.774 4.16 1.279 6.218.282 1.154.5 2.422 1.142 3.37 2.375 3.511 4.795 7.016 8.665 9.124 1.658.903 3.205 2.034 4.917 2.806 2.282 1.029 4.652 1.883 7.031 2.671 1.471.487 3.028.712 4.791 1.108-.248-.333-.283-.435-.346-.458-3.691-1.33-6.114-3.969-7.746-7.461-.137-.293-.618-.593-.945-.599-1.623-.031-3.319-.191-4.925.059-.927.144-2.201.605-2.835-.435-1.093-1.791 1.378-1.59 2.272-1.6 1.647-.018 3.328-.213 4.974-.318l-1.459-5.127c-.887.961-1.536 1.788-2.312 2.47-.854.75-1.586 1.763-2.969 1.632-1.619-.152-3.006-.673-3.792-2.201-.456-.887-.834-1.816-1.209-2.741-1.073-2.643-2.001-5.335-2.002-8.231 0-2.852.015-5.708.163-8.554.127-2.415.844-3.061 3.318-3.15 2.366-.085 4.741-.12 7.106-.035 3.271.116 6.536.377 9.804.546.503.026 1.116.058 1.502-.189 2.89-1.848 6.08-2.798 9.432-3.178 4.056-.46 8.127-.35 12.08.704 1.727.461 3.758 1.738 5.508 1.441 2.135-.364 4.382-.672 6.474-1.239 1.348-.366 2.742-.535 4.106-.882 1.931-.491 4.589-1.042 6.574-.624 1.471.31 2.358 2.353 2.951 3.697 1.324 2.999 1.795 6.26 1.94 9.512.141 3.159.451 6.111.083 9.259-.184 1.565-1.634 2.754-3.197 2.784-1.957.039-3.83-.405-5.56-1.642-.957 8.56-5.874 13.824-13.734 16.914zm-13.44-37.802c-2.746.126-5.506.763-8.171 1.357-2.437.544-4.301 2.158-6.128 3.723-.807.692-1.475 1.674-1.906 2.657-1.377 3.136-2.709 6.299-3.852 9.527-.426 1.206-.576 2.671-.341 3.922.656 3.487 2.179 6.681 4.099 9.638.779 1.201 1.802 2.416 3.005 3.125 1.848 1.087 3.936 1.772 5.945 2.571 1.049.416 2.124.886 3.226 1.027 3.992.511 8.021.678 11.987-.082 4.349-.833 8.242-2.813 11.692-5.577 2.372-1.9 3.661-4.517 4.43-7.445 1.05-3.992.554-7.269-1.045-10.964-1.101-2.544-3.002-5.43-5.264-7.051-.984-.705-1.851-1.589-2.876-2.225-1.742-1.081-3.46-2.446-5.38-2.937-2.861-.732-5.525-1.288-8.471-1.288-.315 0-.633.008-.95.022zm-8.06 59.978c.005.029-.059-.249-.087-.531-.079-.812-1.29-5.264.533-4.873 1.317.284 1.41 3.731 1.548 4.639.131.87.479 1.725.502 2.593.11 4.077 1.118 7.976 2.316 11.825.811 2.606 1.833 5.178 4.964 5.797 1.924.381 3.825.53 5.808-.055 3.521-1.038 5.041-3.237 4.401-6.889-.449-2.563-.864-5.132-1.403-7.676-.337-1.593-.729-3.173-1.106-4.757-.222-.934-.756-2.512-.591-3.453-.247.521-1.22 1.253-1.783.57-1.299-1.576 1.994-3.568 2.561-4.642.814-1.541 1.6-3.144 2.062-4.815.655-2.363 1.008-4.812 1.485-7.203-1.68.267-3.116.546-4.565.714a54.12 54.12 0 0 1-4.445.328 20.85 20.85 0 0 1-3.089-.138c-1.569-.185-3.138-.702-4.69-.641-2.468.096-4.924.542-7.383.861-.636.083-1.27.216-1.894.37-.91.223-2.03.24-2.651.801-.709.642-1.01 2.236-1.333 3.131-.407 1.126-.423 2.392-.506 3.586-.278 4 .616 6.978 2.849 10.295.413.615.899 1.182 1.287 1.688l5.21-1.525zm-34.51-19.799a10.47 10.47 0 0 0-.859.579c-2.046 1.504-4.332 4.399-5.084 6.878A30.8 30.8 0 0 0 13.14 107.9c.153 2.699.694 5.378.789 8.076.149 4.196 1.613 8.053 2.809 11.97.577 1.893 1.932 3.434 3.934 3.938 3.807.96 7.281.456 9.7-3.059.487-.708.926-1.681.866-2.493-.175-2.364-.62-4.71-.947-7.063-.309-2.227-.591-4.458-.929-6.68-.032-.209-.348-.454-.583-.538-.94-.338-1.928-.552-2.841-.948-.443-.192-.91-.623-1.078-1.059-.112-.291.22-.831.481-1.156.965-1.201 5.388 1.656 6.582 2.033 2.52.797 1.655-.748 1.036-2.398-.796-2.123-1.125-4.786-1.029-7.041.115-2.718-.476-5.535.69-8.177.113-.258.154-.608.078-.871-.072-.249-.316-.596-.53-.633-2.621-.446-5.189-.803-7.499-2.3-1.573-1.02-2.66-.687-4.335.3zm9.3-29.336c.053 4.052 1.44 7.687 3.254 11.187.584 1.129 1.489 1.357 2.509.639 4.449-3.127 5.661-7.88 7.386-12.809.549-1.568 1.006-3.183 1.737-4.679.505-1.033 1.351-2.232-.332-2.478-3.994-.584-7.982-.313-11.969.017-1.214.1-2.072.69-2.173 2.016-.154 2.035-.276 4.071-.412 6.107zm50.93-8.173c.832.753 1.51 1.496 2.31 2.067 3.119 2.229 4.624 5.516 5.627 9.003.679 2.364 1.317 4.527 3.632 5.851 1.886 1.078 4.081.55 4.402-1.459.446-2.782.363-5.62-.288-8.36-.406-1.705-.389-3.514-.939-5.23-.44-1.377-1.047-3.517-2.346-4.369-1.847-1.211-5.332.207-7.278.505-1.801.278-3.508.74-5.12 1.992zM57.71 14.947c1.21-.356 3.209-.926 5.193-1.547.29-.091.539-.398.75-.653 1.382-1.67 1.296-5.837-.139-7.777-1.849-2.499-4.379-2.748-7.178-2.268-2.689.462-4.593 2.042-5.471 4.48-1.249 3.462 2.274 7.852 6.845 7.765zm-7.424 74.362c-2.876-.939-5.706-1.789-8.483-2.789-3.641-1.311-7.153-2.927-10.299-5.219-1.42-1.035-2.737-2.211-4.082-3.346-.307-.259-.534-.614-.797-.926-.32.373-.72.703-.945 1.128-1.037 1.959-1.034 4.071-1.003 6.238.03 2.073 1.132 3.528 2.71 4.193 1.912.807 4.093 1.195 6.181 1.303 3.409.174 6.838.026 10.257-.087 2.161-.07 4.316-.325 6.461-.495zm-34.193 1.338c-.269-.236-.593-.447-.823-.735-1.434-1.794-2.929-3.546-4.239-5.428a24.215 24.215 0 0 1-2.412-4.38c-.736-1.744-1.598-3.371-2.952-4.687-.916-.891-2.14-.681-2.629.494-.329.789-.61 1.718-.522 2.543.457 4.341 2.486 8.059 5.15 11.362 1.466 1.817 3.454 3.212 5.241 4.828l3.186-3.997zm59.76 10.769l-.333-.001c-.434 1.1-1.014 2.17-1.253 3.313-.164.785.122 1.674.248 2.51.346 2.305.679 4.612 1.085 6.906.379 2.145.928 4.262 1.243 6.415.199 1.359.076 2.763.171 4.14.018.253.358.626.615.697 1.685.462 3.511-.483 3.737-2.203.206-1.58.2-3.289-.182-4.824-.929-3.727-2.094-7.397-3.238-11.066-.618-1.987-1.39-3.926-2.093-5.887zm-43.978 11.845c.338 2.817.73 5.418.942 8.035.194 2.393.164 4.805.314 7.204.021.351.51.971.746.954.757-.055 1.638-.159 2.217-.588 1.654-1.229 2.393-3.033 2.262-5.061-.282-4.356-.091-8.755-5.119-10.273-.403-.122-.829-.169-1.362-.271zm13.217-5.137a1.136 1.136 0 0 0-.282-.204c-.836-.4-2.829.469-3.755.652-1.233.245-2.447.57-3.667.873-.878.217-1.806.137-1.464 1.199.385 1.2 2.546 1.857 3.644 1.856 2.014-.002 4.108.235 6.094-.21 1.197-.268 1.319-.486.891-1.598-.332-.861-.781-1.923-1.461-2.568zm-11.26-6.749l9.802-1.444c0-.935-.011-1.923.004-2.913.012-.777-.283-1.017-1.088-.889-1.353.215-2.726.308-4.094.429-1.51.134-3.022.243-4.624.37v4.447zm.593 1.955a.875.875 0 0 0-.348.439c-.227.657.04 3.318.687 3.742.757.493 2.836-.347 3.599-.583 1.728-.535 3.509-.745 5.265-1.188.876-.221.929-.08.838-1.086-.072-.803-.533-1.528-.545-2.341.001.067-6.142.524-6.592.567-.844.082-2.227-.014-2.904.45zm10.882-11.291c-2.589-.358-5.467-.062-8.087-.033-.65.008-1.65.113-2.158.593-.519.492-.587 1.347-.85 1.98 2.182.036 4.22.003 6.427-.184.96-.081 1.993.058 2.926-.236.404-.127.896-.32 1.199-.633.111-.114.835-1.452.587-1.482a.59.59 0 0 1-.044-.005z"/><path fill="#2A3D98" d="M66.994 68.245c-1.46 2.37-3.728 3.68-6.481 3.822-2.448.126-4.34-1.226-5.743-3.204-.535-.756-2.2-2.708-1.673-3.561 1.361-2.202 3.482 2.473 3.982 3.03 1.45 1.615 3.534 1.588 5.265.423 1.442-.969 2.515-2.199 2.856-4.112-.453-.028-.887-.036-1.318-.085-.82-.096-1.408-.614-1.281-1.39.072-.437.712-1.001 1.184-1.108 1.312-.292 2.668-.439 4.013-.499.375-.017 1.024.409 1.1.736.114.488.007 1.255-.323 1.568-.655.621-.536 1.096-.148 1.736 1.938 3.191 6.619 2.991 8.469-.453.551-1.024.764-2.26.977-3.427.15-.816.266-1.347 1.294-1.227 1.079.126 1.576.882 1.498 1.698-.455 4.73-3.905 9.375-9.738 7.762-1.334-.368-2.568-1.104-3.933-1.709zm3.945-11.553c.624-.564 1.854-.161 2.241.67.523 1.124-.192 2.657-1.537 2.39-.979-.195-1.182-1.552-1.049-2.372.049-.309.174-.535.345-.688zm-12.048 1.272c.135-.756.42-1.508 1.421-1.536.759-.021 1.801 1.305 1.59 2.216-.1.432-.777.955-1.251 1.024-.868.125-1.777-.843-1.76-1.704z"/></svg>