<svg xmlns="http://www.w3.org/2000/svg" width="67.344" height="80.338" viewBox="0.111 -0.166 67.344 80.338"><defs><style/></defs><g id="ID0.7389192478731275"><path id="ID0.0158006614074111" d="M309 358c2 0 4.062-.425 6 0 5.441 1.875 13.066 1.783 16.5 6.75 2.35 3.166-1.132 8.273-3.5 11.5-1.614 2.199-6.272 2.98-7.5 3.25-.63.276 3.659-2.551 3.25-2-.682.898-3.256 4.821-5.75 5.5-1.605.439-2.693-3.725-4-3-16.112-.35-23.629 29.44-7 33 7.036-3.964 17.633-4.367 23-10 5.59.744 6.805 6.636 8 11 .464 1.73-3.636 1.967-4.5 3.75-.935 2.534 1.65 6.401-.5 8.25-4.643 3.99-12.315 3.877-17 7-5.636.285-11.333 0-17 0-14.752-2.581-23.022-11.645-24-28v-9c7.123-16.877 15.08-32.92 34-38zm-12 8c-6.941 4.501-9.253 13.862-14 18-2.541 28.674 10.728 45.961 36 38 5.755-1.812 13.664-6.902 15-11-2.935-7.34-7.402-.761-12 1-10.319-.653-11.57 5.989-20 3-12.162-4.313-12.839-32.023-5-40 8.793-8.947 17.739-1.79 30-3-.745-3.078 2.745-1.922 2-5-5.027-8.42-23.789-6.325-32-1z" transform="translate(-291.7 -379.6) scale(1.06113)"/><path id="ID0.7828714372590184" fill="#FF9400" d="M329 367c.745 3.078-2.745 1.922-2 5-12.261 1.21-21.207-5.947-30 3-7.839 7.977-7.162 35.687 5 40 8.43 2.989 9.681-3.653 20-3 4.598-1.761 9.065-8.34 12-1-1.336 4.098-9.245 9.188-15 11-25.272 7.961-38.541-9.326-36-38 4.747-4.138 7.059-13.499 14-18 8.211-5.325 26.973-7.42 32 1z" transform="translate(-291.7 -379.6) scale(1.06113)"/></g></svg>