<svg width="157" height="122" viewBox="0 0 157 122" xmlns="http://www.w3.org/2000/svg"><g fill="none"><path d="M73.005 96.65c-.719 4.423-1.836 10.16-2.279 11.926-.375 1.498-.822 3-1.225 4.49-.431 1.595-1.596 3.189-1.656 4.878.762.223 2.518-.231 2.518-.231s.626.582.16.797c-.551.263-2.255.171-2.905.18-.567 0-2.068-.1-2.068-.1s-2.166-26.335 3.265-27.236c5.43-.9 4.19 5.296 4.19 5.296zm22.497 0c-1.935 5.156-4.046 10.643-4.68 12.185-1.198 2.905-3.193 5.69-4.047 8.695.527.199 2.853-.152 2.885.43.06 1.048-2.33.446-2.837.438-1.077 0-2.753.558-3.112-.267-.272-.63 3.152-14.807 4.549-21.485 0 0-.447-4.65 4.984-5.427 5.43-.777 2.258 5.431 2.258 5.431z" fill="#006482"/><path d="M48.883 106.277s2.115 5.738 1.488 5.89c-.626.15-1.01-1.336-1.413-2.065a3.188 3.188 0 0 0-.706-.956l.63-2.87z" fill="#008264"/><path d="M47.753 114.27c.643.08-.323-3.9.858-2.53.232.267 0 2.654.878 2.49-.479-4.618.196-14.137 1.417-21.716 1.955-12.153 8.156-17.616 6.09-22.713-2.068-5.096-4.055-1.195-4.055-1.195s-4.39 11.858-5.144 14.377a46.988 46.988 0 0 0-1.596 8.057c-.399 3.494-.774 6.905-.882 10.435a63.172 63.172 0 0 0 .036 5.216c.048.913.108 6.607 1.018 7.113.33-1.558-.288-2.706.327-2.666.614.04.41 3.052 1.053 3.132z" fill="#00A08C"/><path d="M107.88 67.562l.886-.558c3.336-2.056 4.769-3.81 6.784-7.097 2.015-3.287 3.017-6.969 4.106-10.583 1.173-3.885 2.195-13.217 3.145-13.15.95.068-.675 3.746.327 3.945 1.001.2 1.28-3.733 2.079-3.801.798-.068-.2 4.252.922 4.192.61-.032 1.041-3.311 1.528-3.116.487.195-1.936 17.425-5.587 23.772-3.65 6.348-6.193 9.34-10.774 12.118-2.945 1.785-6.672 2.128-9.002 2.59 0 0-5.391-.303-4.274-4.18.647-2.243 3.48-2.486 6.066-2.957 1.3-.266 2.571-.66 3.794-1.175z" fill="#006482"/><path d="M120.19 39.195c.635-.223 1.142 2.152 1.142 2.152.706.219 2.49.916 2.394 2.31-.135 1.738-2.294 3.63-3.224 1.567-.012 0-.946-5.806-.311-6.03z" fill="#281446"/><path fill="#828278" d="M96.2 27.958l3.065 12.532 2.359-.12-5.244-15.703z"/><path d="M60.99 69.562l-3.277 31.368s17.39-.212 20.75-.447c-1.508-3.586-3.288-31.08-3.288-31.08l-14.186.16z" fill="#008264"/><path d="M52.227 37.051c1.452 0 13.898-.49 13.898-.49l8.44 17.592c.49 1.49-16.852 46.777-16.852 46.777s-8.571-41.397-9.577-46.538c-.51-2.617-.897-5.26-1.388-7.877-.547-2.909-1.704-6.065-1.704-9.033 2.175-.773 4.904-.439 7.183-.43z" fill="#00A08C"/><path d="M57.857 47.04l8.268-10.479 17.426-.259 3.14 6.348-8.212 57.833s-1.716-2.917-2.206-3.753a48.937 48.937 0 0 1-2.063-3.985c-1.134-2.447-2.395-4.821-3.504-7.288-1.955-4.383-4.058-8.79-5.71-13.293-1.86-5.084-3.887-10.153-5.475-15.329-.726-2.363-1.772-4.726-2.263-7.148-.243-1.216-.151-1.578.599-2.646z" fill="#78C8C8"/><path d="M60.195 50.272c0 1.108.635 1.993 1.417 1.993s1.417-.897 1.417-1.993a2.31 2.31 0 0 0-.63-1.665 1.142 1.142 0 0 0-.799-.335c-.399 0-.95.554-1.197.917-.248.362-.208.53-.208 1.083z" fill="#281446"/><path d="M57.925 15.466c5.917-.35 11.85-.373 17.769-.068 4.39.212 15.962-1.075 18.567 3.375 1.437 2.443 2.135 5.487 2.794 8.213.634 2.618 1.78 5.38 2.102 8.041-1.935-.22-1.995-3.487-2.482-5.14-.702-2.391-1.217-4.822-1.835-7.248-.503-1.993-1.034-4.523-3.049-5.416-1.94-.864-5.048-.478-7.135-.577-8.132-.399-18.547 0-26.671.075-1.425 0-3.264.132-3.711 1.937-.336 1.363 2.63 13.855 3.507 18.162.4 1.869.495 3.782.882 5.634.228 1.096.547 2.176.798 3.264.18.729.275 2.964.774 3.566.112.132.93.343 1.54.598.087.333.063.685-.067 1.004l-.208.06c-1.596.43-2.29-1.024-2.697-2.208-2.303-6.726-5.559-27.494-5.61-28.88-.093-3.14 1.939-4.22 4.732-4.392z" fill="#828278"/><path d="M83.551 36.302l33.783.092s-1.353 5.419-1.664 6.722c-.719 2.98-1.596 5.933-2.155 8.945-1.197 6.276-3.224 12.488-4.789 18.589-1.564 6.1-3.5 12.105-5.027 18.206-.659 2.626-2.965 10.595-2.965 10.595s-4.154.323-5.467.435c-3.045.263-6.046.458-9.098.533-1.62.04-3.24.116-4.857.104-1.616-.012-2.837-.04-2.837-.04l5.076-64.18z" fill="#00A0B4"/></g></svg>