<svg width="120" height="120" viewBox="0 0 120 120" xmlns="http://www.w3.org/2000/svg" xmlns:xlink="http://www.w3.org/1999/xlink"><defs><path id="a" d="M0 .01h119.717v40.219H0z"/><path id="c" d="M.07.253h117.637v55.664H.07z"/></defs><g fill="none" fill-rule="evenodd"><g transform="translate(0 52.519)"><mask id="b" fill="#fff"><use xlink:href="#a"/></mask><path d="M118.613 4.755c.66 8.86-8.311 14.989-16.187 20.028-9.38 6.276-21.654 5.727-32.662 5.616-10.586-.108-22.424-1.927-32.984-4.582-11.406-2.664-24.083-5.342-32.46-14.347C.843 7.265.259 4.056 1.849.009-1.425 6.373-.175 15.92 4.222 21.24c8.378 9.005 21.055 11.683 32.46 14.347 10.561 2.655 22.399 4.474 32.984 4.581 11.008.112 23.284.661 32.662-5.615 9.208-5.893 21.09-17.755 16.286-29.797" fill="#F89E34" mask="url(#b)"/></g><g transform="translate(.94 27.062)"><mask id="d" fill="#fff"><use xlink:href="#c"/></mask><path d="M9.706 18.427l.302.078 5.864 1.49c-.04.05-.083.098-.123.148a182.266 182.266 0 0 0-3.861 4.937 76.078 76.078 0 0 0-2.737-.334c-1.025-.104-2.088-.276-3.17-.46.676-2.184 2.05-4.147 3.725-5.86m5.96-4.678c.516-.325 1.04-.631 1.566-.93 1.423.187 2.848.368 4.274.542a251.712 251.712 0 0 0-4.519 5.301c-1.07-.245-2.14-.49-3.21-.738-.918-.21-1.863-.456-2.82-.682 1.52-1.351 3.172-2.523 4.709-3.493m9.336-4.296c-.832.916-1.666 1.829-2.485 2.755l-3.382-.395a43.02 43.02 0 0 1 5.867-2.36m9.212-2.11c3.461-.524 6.979-.678 10.48-.902a1674.925 1674.925 0 0 0-7.649 7.36 317.137 317.137 0 0 1-8.254-.862c-1.414-.169-2.828-.331-4.242-.495a273.35 273.35 0 0 1 3.397-3.841c2.055-.528 4.15-.94 6.268-1.26m22.22.901c-2.387 2.13-4.779 4.255-7.127 6.428-.064.058-.127.118-.19.177-3.326-.29-6.654-.566-9.98-.861 2.511-2.51 5.033-5.01 7.567-7.496 3.245.569 6.488 1.16 9.73 1.752m2.837-2.557c-.336.307-.672.617-1.011.922a2431.89 2431.89 0 0 1-4.762-.839c1.924-.056 3.848-.086 5.773-.083m5.435 4.05c1.676.296 3.354.573 5.033.841a4697.924 4697.924 0 0 0-5.885 5.842c-.859-.114-1.718-.23-2.58-.336-3.161-.387-6.33-.703-9.502-.994 2.31-2.167 4.657-4.29 6.995-6.422 1.98.36 3.96.72 5.94 1.069M61.96 5.711c3.312.053 6.629.197 9.953.441.71.052 1.425.105 2.146.16-.817.804-1.634 1.609-2.45 2.415a453.19 453.19 0 0 1-7.534-1.137 381.417 381.417 0 0 1-3.501-.582c.466-.428.922-.866 1.386-1.297m17.737 1.092c3.718.376 7.49.888 11.172 1.68-.365.364-.726.733-1.098 1.09-.52.502-1.048.996-1.571 1.495-4.88-.722-9.768-1.376-14.654-2.066.818-.847 1.64-1.69 2.458-2.535 1.222.1 2.454.211 3.693.336m18.353 3.678c.837.411 1.665.835 2.474 1.283-.359.34-.721.677-1.078 1.019-2.333-.32-4.66-.697-6.98-1.064-.714-.113-1.43-.22-2.146-.33a92.81 92.81 0 0 0 2.42-2.476c1.805.442 3.581.956 5.31 1.568m7.591 5.23c1.603 1.558 3.087 3.217 4.304 5.024-.33.41-.66.82-.994 1.23-.999-.227-2-.436-3.006-.594-3.683-.579-7.4-.895-11.12-1.16a362.786 362.786 0 0 1 4.993-5.1c1.935.248 3.878.446 5.823.6m6.165 19.348c-3.488-.499-6.951-1.132-10.423-1.726a206.202 206.202 0 0 0 6.383-7.385c.414-.502.816-1.013 1.222-1.523 1.074.23 2.14.472 3.204.708a16.24 16.24 0 0 1 .92 4.974c.05 1.818-.447 3.465-1.306 4.952m-11.652 8.712c-2.394-.241-4.8-.383-7.174-.549-.399-.027-.798-.067-1.199-.1a167.965 167.965 0 0 0 7.946-7.983c3.585.56 7.178 1.186 10.78 1.752-2.617 3.085-6.76 5.343-10.353 6.88m-12.57 3.585a89.137 89.137 0 0 1 2.452-2.543c.574.08 1.148.172 1.725.244 1.275.158 2.546.287 3.815.413-2.624.821-5.287 1.402-7.992 1.886m-3.282.553c-2.47.397-4.942.776-7.417 1.122a203.166 203.166 0 0 0-6.496-1.823 302.221 302.221 0 0 0 4.845-5.19c4.075.94 8.171 1.784 12.306 2.44a143.095 143.095 0 0 0-3.238 3.451m-16.76 2.225c.36-.365.724-.727 1.082-1.093.88.233 1.758.47 2.636.708-1.238.141-2.477.27-3.718.385m-2.002-1.045c-.433.434-.879.863-1.32 1.294-4.205.18-8.353-.266-12.482-.886.338-.348.674-.697 1.015-1.039.969-.975 1.945-1.944 2.92-2.915 3.496 1.011 7.019 1.936 10.542 2.86-.226.228-.448.459-.675.686m-16.31.013c-1.791-.291-3.582-.596-5.373-.879a297.034 297.034 0 0 0-6.094-2.03c1.478-1.545 2.953-3.093 4.426-4.642 3.79 1.106 7.552 2.236 11.279 3.35-.71.703-1.422 1.404-2.129 2.11-.694.694-1.402 1.392-2.11 2.091m-14.265-3.788a328.438 328.438 0 0 0-8.694-2.567 849.314 849.314 0 0 0 3.958-4.52c3.068.8 6.122 1.644 9.16 2.514a366.417 366.417 0 0 0-4.424 4.573M14.61 39.8l.367-.407c1.188-1.309 2.37-2.623 3.551-3.934a233.28 233.28 0 0 1 9.127 2.11 284.824 284.824 0 0 0-3.716 4.54 237.59 237.59 0 0 0-7.305-1.832c-.676-.158-1.35-.328-2.024-.477m-6.782-6.042l.132-.168c2.738.392 5.472.865 8.2 1.398-1 1.118-1.981 2.25-2.949 3.391-2.06-1.272-3.976-2.783-5.383-4.62m14.148-5.03a236.737 236.737 0 0 0-4.65 4.967A125.13 125.13 0 0 0 8.875 32.4c1.437-1.878 2.85-3.77 4.267-5.665 2.982.493 5.918 1.2 8.835 1.994m13.3-13.226c-1.98 1.926-3.978 3.87-5.973 5.837a390.539 390.539 0 0 1-10.316-2.224 216.691 216.691 0 0 1 4.56-5.508c2.163.26 4.327.516 6.487.779 1.912.234 3.831.435 5.75.626-.168.164-.339.327-.509.49m5.032 7.978a2727.9 2727.9 0 0 1-8.871-1.72 836.917 836.917 0 0 1 4.993-5.077c.486-.49.98-.974 1.468-1.462 3.291.309 6.587.587 9.88.883a229.337 229.337 0 0 0-7.47 7.376m13.9 2.54l-.064.062c-3.749-.686-7.495-1.391-11.239-2.106a185.323 185.323 0 0 1 6.972-7.095c.186-.18.376-.356.564-.534 3.947.372 7.888.796 11.807 1.367.088.012.175.028.263.04-2.768 2.756-5.534 5.513-8.303 8.265m24.108-5.596c-2.844 2.695-5.672 5.41-8.428 8.199l-.151.15c-2.063-.319-4.125-.65-6.186-1.007-2.314-.402-4.625-.818-6.937-1.236 2.728-2.798 5.446-5.608 8.16-8.424 4.54.72 9.032 1.56 13.542 2.318m7.822-7.394c-2.017 1.91-4.04 3.814-6.061 5.72-4.66-.634-9.301-1.37-13.972-2.026 1.872-1.944 3.744-3.888 5.619-5.83 4.8.746 9.61 1.42 14.414 2.136m10.697 19.568a1028.68 1028.68 0 0 0-11.825-1.65 275.278 275.278 0 0 1 7.82-8.647c4.532.419 9.06.89 13.554 1.624.278.045.554.094.83.144-2.58 3.08-5.25 6.031-8.008 8.899a145.73 145.73 0 0 0-2.37-.37m-13.504.28c4.7.618 9.403 1.218 14.099 1.913a232.262 232.262 0 0 1-6.494 6.321c-.61.571-1.21 1.151-1.804 1.737-4.211-.503-8.406-1.322-12.578-2.288a493.327 493.327 0 0 0 6.777-7.684m-11.188-3.733a629.188 629.188 0 0 1 8.458-8.344c3.202.51 6.42.957 9.677 1.26a309.292 309.292 0 0 0-7.111 7.829c-.213.24-.424.48-.635.721-3.465-.471-6.93-.95-10.39-1.466m-8.211 8.206c2.128-2.11 4.25-4.224 6.36-6.352 3.507.576 7.021 1.073 10.539 1.545a606.326 606.326 0 0 1-6.658 7.45c-3.431-.837-6.847-1.748-10.241-2.643m-1.516 1.503c3.471.885 6.941 1.766 10.422 2.598a285.603 285.603 0 0 1-4.839 5.134c-3.538-.913-7.087-1.798-10.61-2.755 1.674-1.661 3.351-3.319 5.027-4.977m-14.35-3.466c3.844.885 7.69 1.778 11.527 2.749l.58.147c-1.669 1.64-3.335 3.283-5 4.927-.547-.155-1.096-.304-1.641-.465A404.333 404.333 0 0 0 43.668 40c1.464-1.539 2.93-3.076 4.398-4.611m-12.732-3.012c3.334.834 6.678 1.614 10.024 2.387a739.84 739.84 0 0 0-4.5 4.49 643.606 643.606 0 0 0-9.445-2.385c1.304-1.5 2.61-2.998 3.92-4.492m-8.445-2.26a220.64 220.64 0 0 0 5.817 1.584 270.426 270.426 0 0 0-3.926 4.531c-1.11-.267-2.219-.54-3.328-.802-1.916-.456-3.83-.881-5.747-1.27.666-.735 1.333-1.466 2.005-2.192.815-.881 1.639-1.754 2.461-2.628.907.257 1.812.516 2.718.778m7.002.254c-2.833-.763-5.654-1.574-8.478-2.356a561.972 561.972 0 0 1 4.504-4.692c1.441.304 2.884.597 4.335.874l4.536.873a253.95 253.95 0 0 0-4.897 5.301M55 28.191c3.872.74 7.745 1.471 11.624 2.176.432.08.866.148 1.3.224a1002.997 1002.997 0 0 1-6.216 6.177 361.817 361.817 0 0 0-3.965-1.011c-2.741-.68-5.494-1.28-8.25-1.86A966.8 966.8 0 0 1 55 28.191m-8.2 5.147c-1.887-.39-3.774-.78-5.66-1.185a126.729 126.729 0 0 1-4.645-1.098 357.167 357.167 0 0 1 4.927-5.477c3.691.713 7.384 1.426 11.076 2.135-1.891 1.872-3.795 3.745-5.699 5.625m45.408-13.309l-.384-.026c-3.162-.215-6.293-.556-9.412-.952 1.961-1.896 3.924-3.794 5.884-5.693 1.573.24 3.146.485 4.717.742 1.454.239 2.917.466 4.383.678a258.262 258.262 0 0 0-5.188 5.251m-74.322.478c3.289.836 6.58 1.62 9.887 2.347a391.51 391.51 0 0 0-4.529 4.57c-3.026-.806-6.05-1.488-9.116-2.002a384.83 384.83 0 0 1 2.407-3.181c.445-.581.898-1.157 1.35-1.734m-12.36 6.651a9.59 9.59 0 0 1 .102-1.307c1.528.194 3.07.3 4.597.47.221.024.44.06.66.087-1.397 1.855-2.79 3.713-4.202 5.556a10.33 10.33 0 0 1-1.158-4.806m-2.144 9.77c8.378 9.005 21.055 11.682 32.462 14.346 10.559 2.656 22.397 4.474 32.983 4.582 11.008.111 23.282.66 32.663-5.616 7.875-5.04 16.846-11.167 16.186-20.028-.162-2.168-.89-4.497-2.365-7.017-3.327-5.98-7.077-11.965-12.976-14.998-6.32-3.038-13.082-4.38-19.844-5.724C71.078.234 58.803-.314 46.934.84a2.2 2.2 0 0 1-.041.004 59.502 59.502 0 0 0-5.468.366 62.673 62.673 0 0 0-6.119 1.021c-6.759 1.126-13.764 3.006-18.515 6.375l1.148-.087a83.47 83.47 0 0 0-5.411 3.017c-3.838 2.51-7.255 5.448-9.414 9.675-.949 1.549-1.688 2.946-2.204 4.257-1.59 4.046-1.007 7.255 2.469 11.461" fill="#FDC46F" mask="url(#d)"/></g><path d="M24.879 69.17a281.713 281.713 0 0 1 3.716-4.538 232.712 232.712 0 0 0-9.127-2.111c-1.182 1.311-2.363 2.625-3.55 3.933l-.368.407c.674.15 1.348.32 2.024.477a241.157 241.157 0 0 1 7.305 1.832M72.55 35.789c.815-.806 1.633-1.611 2.45-2.416-.72-.055-1.437-.107-2.146-.159a174.1 174.1 0 0 0-9.953-.442c-.464.432-.92.87-1.386 1.298 1.166.2 2.334.393 3.5.581 2.509.403 5.022.777 7.535 1.138M24.488 40.67a216.028 216.028 0 0 0-4.56 5.508c3.43.78 6.864 1.537 10.315 2.224 1.995-1.967 3.994-3.91 5.972-5.836l.51-.49c-1.92-.192-3.839-.393-5.751-.626-2.16-.264-4.324-.52-6.486-.78M81.77 59.606c-3.518-.472-7.032-.97-10.54-1.546a952.213 952.213 0 0 1-6.36 6.352c3.395.895 6.81 1.806 10.242 2.644a607.806 607.806 0 0 0 6.658-7.45m-50.914-9.221a561.974 561.974 0 0 0-4.504 4.692c2.824.782 5.645 1.593 8.477 2.356a253.95 253.95 0 0 1 4.898-5.301c-1.512-.29-3.025-.584-4.536-.873-1.45-.277-2.894-.57-4.335-.874m-6.673 4.101c1.5-1.539 3.01-3.062 4.53-4.57a313.58 313.58 0 0 1-9.888-2.347c-.453.576-.906 1.152-1.351 1.733-.81 1.057-1.61 2.119-2.408 3.182 3.066.513 6.09 1.196 9.117 2.002m13.252 3.631c1.543.392 3.09.764 4.645 1.098 1.886.405 3.773.794 5.66 1.184 1.903-1.88 3.807-3.752 5.698-5.625-3.693-.708-7.385-1.421-11.076-2.135a358.655 358.655 0 0 0-4.927 5.478M29.73 40c2.748.327 5.5.605 8.255.86a1714.62 1714.62 0 0 1 7.65-7.358c-3.502.223-7.02.378-10.48.901-2.12.32-4.214.732-6.27 1.26a278.2 278.2 0 0 0-3.396 3.842c1.414.164 2.828.326 4.242.495m22.981 2.15c3.172.291 6.34.607 9.502.994.862.106 1.72.222 2.58.337 1.96-1.95 3.921-3.896 5.886-5.842-1.68-.269-3.358-.545-5.034-.841-1.98-.35-3.96-.709-5.94-1.07-2.337 2.134-4.683 4.256-6.994 6.422m31.395 14.801a311.737 311.737 0 0 1 7.111-7.828c-3.257-.304-6.475-.75-9.677-1.26a634.853 634.853 0 0 0-8.458 8.344c3.46.516 6.923.995 10.388 1.466l.636-.722m-3.091-11.139c2.02-1.905 4.044-3.81 6.061-5.72-4.804-.716-9.614-1.39-14.414-2.136-1.875 1.942-3.747 3.887-5.62 5.83 4.671.657 9.312 1.392 13.973 2.026m-55.074-9.298a42.98 42.98 0 0 0-5.867 2.36c1.127.13 2.254.263 3.382.394.82-.926 1.654-1.839 2.485-2.754m67.466 2.266c2.32.368 4.645.745 6.979 1.064.357-.342.719-.679 1.078-1.018a56.084 56.084 0 0 0-2.474-1.284 55.35 55.35 0 0 0-5.31-1.567 92.8 92.8 0 0 1-2.42 2.475c.716.11 1.432.217 2.147.33m-33.197-6.032c-1.925-.004-3.85.027-5.773.083 1.587.28 3.174.56 4.762.838.339-.304.675-.614 1.011-.921M8.9 60.652l-.132.168c1.406 1.838 3.324 3.35 5.383 4.62.968-1.14 1.948-2.272 2.948-3.39a163.352 163.352 0 0 0-8.2-1.398M53.694 75.52c-.341.342-.677.69-1.015 1.038 4.13.62 8.277 1.067 12.483.887.44-.431.886-.86 1.32-1.295.226-.227.448-.457.674-.685-3.523-.924-7.046-1.85-10.543-2.86-.974.97-1.95 1.94-2.92 2.915m35.542-35.1c-1.96 1.899-3.923 3.796-5.884 5.693 3.119.395 6.25.736 9.412.952l.384.026a258.262 258.262 0 0 1 5.188-5.251 234.16 234.16 0 0 1-4.383-.678 428.791 428.791 0 0 0-4.717-.742m-51.866 3.326a846.33 846.33 0 0 0-4.993 5.078c2.954.578 5.912 1.15 8.87 1.72a229.337 229.337 0 0 1 7.472-7.377c-3.294-.295-6.59-.574-9.881-.883-.488.49-.982.972-1.468 1.462m-19.442 1.977a252.786 252.786 0 0 1 4.519-5.301c-1.426-.175-2.85-.355-4.274-.542a38.48 38.48 0 0 0-1.566.93c-1.537.97-3.19 2.142-4.71 3.493.958.226 1.904.47 2.82.682l3.211.738m39.626 7.869c2.312.419 4.623.834 6.937 1.237 2.06.357 4.122.688 6.186 1.007l.15-.15c2.757-2.79 5.585-5.504 8.429-8.2-4.51-.758-9.003-1.597-13.542-2.318a2030.855 2030.855 0 0 1-8.16 8.424M40.078 41.049c3.325.295 6.653.57 9.98.86l.188-.176c2.35-2.174 4.741-4.298 7.128-6.428-3.242-.592-6.484-1.184-9.73-1.753a1175.514 1175.514 0 0 0-7.566 7.497M51.38 43.41c-.188.179-.378.355-.564.534a185.786 185.786 0 0 0-6.972 7.096c3.744.714 7.49 1.42 11.24 2.106l.062-.063c2.77-2.752 5.535-5.51 8.304-8.265-.088-.013-.175-.028-.262-.04-3.92-.572-7.86-.995-11.808-1.367M62.647 63.83c2.081-2.05 4.153-4.11 6.216-6.177-.433-.076-.867-.145-1.3-.224-3.878-.705-7.751-1.437-11.623-2.176a937.804 937.804 0 0 0-5.508 5.705c2.757.58 5.51 1.18 8.251 1.86 1.317.327 2.64.667 3.964 1.011M43.13 68.613a2283.572 2283.572 0 0 1-4.426 4.642 296.4 296.4 0 0 1 6.094 2.03c1.791.282 3.582.587 5.373.879.707-.7 1.415-1.398 2.109-2.091.706-.706 1.42-1.407 2.129-2.111-3.727-1.114-7.49-2.243-11.28-3.349m65.023-17.481c-.275-.05-.551-.1-.829-.145-4.495-.733-9.022-1.204-13.554-1.624a275.278 275.278 0 0 0-7.82 8.647c3.942.535 7.884 1.07 11.825 1.65.791.117 1.583.241 2.37.37a173.851 173.851 0 0 0 8.008-8.898m-12.386-3.86c3.72.266 7.437.582 11.12 1.16 1.006.158 2.007.367 3.005.594.334-.409.664-.82.995-1.23-1.217-1.807-2.701-3.465-4.304-5.024a118.468 118.468 0 0 1-5.822-.6 361.081 361.081 0 0 0-4.994 5.1M6.92 51.347c1.083.185 2.146.356 3.17.46.919.094 1.83.209 2.738.335a181.508 181.508 0 0 1 3.861-4.937c.04-.05.083-.098.123-.148l-5.864-1.491a43.188 43.188 0 0 1-.302-.078c-1.675 1.713-3.05 3.676-3.725 5.859m61.562 25.848a171.1 171.1 0 0 0 3.717-.384c-.877-.24-1.755-.475-2.635-.709-.358.367-.722.729-1.082 1.093m44.65-25c-1.065-.236-2.13-.478-3.204-.708-.406.51-.809 1.02-1.222 1.523a206.193 206.193 0 0 1-6.383 7.384c3.471.595 6.935 1.228 10.423 1.726.859-1.486 1.356-3.133 1.306-4.951a16.237 16.237 0 0 0-.92-4.974m-22.156 19.68a88.697 88.697 0 0 0-2.452 2.543c2.705-.485 5.368-1.065 7.992-1.887a156.94 156.94 0 0 1-3.815-.413c-.577-.071-1.15-.163-1.725-.243M89.141 38.13c.523-.499 1.05-.993 1.571-1.495.372-.358.733-.727 1.098-1.091-3.681-.792-7.454-1.303-11.172-1.68a199.86 199.86 0 0 0-3.693-.336c-.819.845-1.64 1.689-2.458 2.536 4.886.69 9.774 1.344 14.654 2.065m-66.492 20.9c-.672.726-1.339 1.457-2.005 2.19 1.916.39 3.83.815 5.747 1.271 1.11.263 2.218.536 3.328.803 1.291-1.525 2.6-3.035 3.926-4.531a219.98 219.98 0 0 1-5.817-1.584 566.21 566.21 0 0 0-2.718-.778c-.822.875-1.646 1.747-2.461 2.629m8.521 6.26a849.305 849.305 0 0 1-3.96 4.52c2.917.815 5.819 1.677 8.694 2.567a366.417 366.417 0 0 1 4.426-4.573 399.023 399.023 0 0 0-9.16-2.514M9.814 59.462c2.829.33 5.643.77 8.453 1.295a238.36 238.36 0 0 1 4.65-4.966c-2.918-.793-5.855-1.5-8.836-1.994-1.416 1.895-2.83 3.788-4.267 5.665m36.484 2.362a571.053 571.053 0 0 1-10.024-2.386 1285.127 1285.127 0 0 0-3.921 4.491 647.62 647.62 0 0 1 9.446 2.385c1.494-1.505 2.995-3 4.5-4.49m-35.136-8.442c-1.528-.17-3.069-.276-4.597-.47a9.54 9.54 0 0 0-.103 1.308 10.326 10.326 0 0 0 1.158 4.805c1.412-1.842 2.805-3.7 4.202-5.556-.22-.027-.438-.062-.66-.087m44.949 16.891a2909.51 2909.51 0 0 1 5-4.928l-.58-.147c-3.837-.97-7.683-1.863-11.527-2.749a3222.863 3222.863 0 0 0-4.397 4.612c3.3.881 6.591 1.784 9.863 2.747.545.16 1.094.31 1.641.465M71.33 74.27c2.176.574 4.343 1.178 6.495 1.823a373.86 373.86 0 0 0 7.418-1.122 144.307 144.307 0 0 1 3.238-3.452c-4.135-.655-8.23-1.5-12.306-2.44a300.981 300.981 0 0 1-4.845 5.19m21.392-4.086c.4.034.8.073 1.2.1 2.373.166 4.779.308 7.173.55 3.593-1.537 7.736-3.796 10.352-6.88-3.6-.567-7.194-1.192-10.78-1.753a167.179 167.179 0 0 1-7.945 7.983m-.846-2.009a232.696 232.696 0 0 0 6.494-6.32c-4.696-.695-9.399-1.295-14.099-1.914a494.734 494.734 0 0 1-6.776 7.683c4.171.967 8.365 1.786 12.577 2.289a97.239 97.239 0 0 1 1.804-1.738m-18.099.339a701.564 701.564 0 0 1-10.422-2.598c-1.676 1.66-3.353 3.316-5.027 4.978 3.523.957 7.072 1.842 10.61 2.755a285.603 285.603 0 0 0 4.839-5.135" fill="#FAAF4C"/></g></svg>