<svg width="120" height="120" viewBox="0 0 120 120" xmlns="http://www.w3.org/2000/svg"><g fill="none" fill-rule="evenodd"><path fill="#97B5B7" d="M9.13 59.438h101.45v-27.4H9.13z"/><path fill="#8AABAD" d="M9.13 86.837h3.3V32.04h-3.3zm98.15 0h3.299V32.04h-3.299z"/><path fill="#A6CBCE" d="M0 109.869h119.71v-54.8H0z"/><path fill="#8AABAD" d="M0 109.869h3.3v-54.8H0zm116.411 0h3.3v-54.8h-3.3z"/><path fill="#A18D76" d="M59.855 10L32.337 21.02 4.82 32.038h110.07l-27.517-11.02z"/><path fill="#907D65" d="M59.855 10v22.039h55.036l-27.518-11.02z"/><path d="M18.673 49.958h7.649v-6.453h-7.65v6.453zm8.79 0h7.649v-6.453h-7.649v6.453zm0-7.446h7.649v-6.453h-7.649v6.453zm-8.79 0h7.649v-6.453h-7.65v6.453zm21.975 7.446h7.649v-6.453h-7.65v6.453zm8.79 0h7.649v-6.453h-7.649v6.453zm0-7.446h7.649v-6.453h-7.649v6.453zm-8.79 0h7.649v-6.453h-7.65v6.453zm21.975 7.446h7.65v-6.453h-7.65v6.453zm8.79 0h7.65v-6.453h-7.65v6.453zm0-7.446h7.65V36.06h-7.65v6.453zm-8.79 0h7.65V36.06h-7.65v6.453zm21.976 7.446h7.649v-6.453h-7.65v6.453zm8.79 0h7.648v-6.453H93.39v6.453zm0-7.446h7.649V36.06h-7.649v6.452zm-8.79 0h7.65V36.06h-7.65v6.452zM18.673 73.585h7.649v-6.453h-7.65v6.453zm8.79 0h7.649v-6.453h-7.649v6.453zm0-7.446h7.649v-6.453h-7.649v6.453zm-8.79 0h7.649v-6.453h-7.65v6.453zm21.975 7.446h7.649v-6.453h-7.65v6.453zm8.79 0h7.649v-6.453h-7.649v6.453zm0-7.446h7.649v-6.453h-7.649v6.453zm-8.79 0h7.649v-6.453h-7.65v6.453zm21.975 7.446h7.65v-6.453h-7.65v6.453zm8.79 0h7.65v-6.453h-7.65v6.453zm0-7.445h7.65v-6.453h-7.65v6.453zm-8.79 0h7.65v-6.453h-7.65v6.453zm21.976 7.445h7.649v-6.453h-7.65v6.453zm8.79 0h7.648v-6.453H93.39v6.453zm0-7.445h7.649v-6.453h-7.649v6.453zm-8.79 0h7.65v-6.453h-7.65v6.453zM18.673 90.908h7.649v-6.453h-7.65v6.453zm8.79 0h7.649v-6.453h-7.649v6.453zm0-7.446h7.649v-6.453h-7.649v6.453zm-8.79 0h7.649v-6.453h-7.65v6.453zm21.975 7.446h7.649v-6.453h-7.65v6.453zm8.79 0h7.649v-6.453h-7.649v6.453zm0-7.446h7.649V77.01h-7.649v6.453zm-8.79 0h7.649V77.01h-7.65v6.453zm21.975 7.446h7.65v-6.453h-7.65v6.453zm8.79 0h7.65v-6.453h-7.65v6.453zm0-7.446h7.65V77.01h-7.65v6.453zm-8.79 0h7.65V77.01h-7.65v6.453zm21.976 7.446h7.649v-6.453h-7.65v6.453zm8.79 0h7.648v-6.453H93.39v6.453zm0-7.445h7.649V77.01h-7.649v6.453zm-8.79 0h7.65V77.01h-7.65v6.453zm-65.926 23.725h7.649v-6.452h-7.65v6.452zm8.79 0h7.649v-6.452h-7.649v6.452zm0-7.445h7.649V93.29h-7.649v6.453zm-8.79 0h7.649V93.29h-7.65v6.453zm21.975 7.446h7.649v-6.453h-7.65v6.453zm8.79 0h7.649v-6.453h-7.649v6.453zm0-7.446h7.649V93.29h-7.649v6.453zm-8.79 0h7.649V93.29h-7.65v6.453zm21.975 7.446h7.65v-6.453h-7.65v6.453zm8.79 0h7.65v-6.453h-7.65v6.453zm0-7.446h7.65V93.29h-7.65v6.453zm-8.79 0h7.65V93.29h-7.65v6.453zm21.976 7.447h7.649v-6.454h-7.65v6.453zm8.79 0h7.648v-6.454H93.39v6.453zm0-7.446h7.649V93.29h-7.649v6.453zm-8.79 0h7.65V93.29h-7.65v6.453z" fill="#E6E7E8"/></g></svg>