<svg width="120" height="120" viewBox="0 0 120 120" xmlns="http://www.w3.org/2000/svg" xmlns:xlink="http://www.w3.org/1999/xlink"><defs><path id="a" d="M1.121.873h56.88v58.652H1.12z"/></defs><g fill="none" fill-rule="evenodd"><g transform="translate(60 .771)"><mask id="b" fill="#fff"><use xlink:href="#a"/></mask><path d="M1.121 24.792S8.475 17.697 3.54 9.249C-.428 2.463 11.658-.844 12.793 5.197c.777 4.133 8.398 3.194 8.05-1.677-.481-6.744 16.232.824 11 6.822-3.264 3.743 2.17 13.13 7.879 8.995 5.418-3.925 12.111 2.6 8.606 6.758-3.42 4.057.296 9.617 4.977 8.114 4.12-1.327 7.001 12.109 2.178 10.294-6.223-2.34-13.408-1.777-11.511 3.588 2.14 6.043-.587 12.847-9.47 11.178L6.067 54.04 1.121 24.792z" fill="#79CCB8" mask="url(#b)"/></g><path d="M94.488 28.9c0 5.365-4.337 9.716-9.684 9.716-5.353 0-9.69-4.35-9.69-9.716 0-5.368 4.337-9.717 9.69-9.717 5.347 0 9.684 4.35 9.684 9.717" fill="#FDDC85"/><path d="M88.693 31.951c0 3.786-3.058 6.855-6.836 6.855-3.776 0-6.838-3.069-6.838-6.855 0-3.789 3.062-6.856 6.838-6.856 3.778 0 6.836 3.067 6.836 6.856" fill="#FFBD66"/><path d="M55.003 54.06L53.5 52.473a2.987 2.987 0 0 1-.252-3.79l21.822-30.46a2.967 2.967 0 0 1 4.225-.627l4.351 3.342a2.994 2.994 0 0 1 .443 4.317L59.413 53.959a2.968 2.968 0 0 1-4.41.1" fill="#DB5743"/><path d="M55.281 71.542l-3.022-2.33a3.078 3.078 0 0 1-.179-4.722L88.711 31.6c1.562-1.402 4.032-.853 4.858 1.08l2.952 6.937a3.078 3.078 0 0 1-.946 3.636l-36.56 28.284a3.054 3.054 0 0 1-3.734.005" fill="#525C6B"/><path d="M57.757 65.934l-3.114-2.49a3.125 3.125 0 0 1-.544-4.317l21.997-29.24a3.103 3.103 0 0 1 4.343-.617l5.156 3.871a3.12 3.12 0 0 1 .485 4.536l-24.037 27.86a3.103 3.103 0 0 1-4.286.397" fill="#7A8E9B"/><path d="M25.06 115.542L4.574 94.994c-4.766-4.774-4.766-12.524 0-17.305l18.201-18.256c4.764-4.78 12.49-4.78 17.256 0l20.485 20.545c4.765 4.777 4.765 12.53 0 17.306l-18.202 18.258c-4.766 4.78-12.492 4.78-17.256 0" fill="#E49A61"/><path d="M94.317 51.297c0 5.808-4.694 10.517-10.484 10.517-5.797 0-10.49-4.71-10.49-10.517 0-5.813 4.693-10.52 10.49-10.52 5.79 0 10.484 4.707 10.484 10.52" fill="#F87670"/><path d="M57.437 77.91C70.23 65.08 72.374 45.037 64.73 26.68c-1.305-3.133-5.377-3.935-7.768-1.533L4.83 77.432c-2.396 2.405-1.594 6.485 1.53 7.795 18.304 7.664 38.285 5.514 51.077-7.317" fill="#E49A61"/><path d="M42.053 62.56c-12.788 12.83-14.933 32.865-7.296 51.223 1.306 3.133 5.385 3.942 7.783 1.534l52.122-52.279c2.394-2.4 1.593-6.483-1.531-7.793-18.305-7.667-38.286-5.517-51.078 7.315" fill="#F1BB6B"/><path fill="#7A8E9B" d="M67.017 90.763L50.674 74.372l3.237-3.242 16.343 16.386zM56.66 101.152L40.319 84.765l3.236-3.252 16.343 16.393zm20.714-20.776L61.031 63.99l3.237-3.247 16.34 16.393z"/></g></svg>