<svg xmlns="http://www.w3.org/2000/svg" width="60.5" height="81.234" viewBox="0.531 0.031 60.5 81.234"><defs><style/></defs><g id="ID0.37967492267489433"><path id="ID0.9007096271961927" d="M304 353h2c-.451 1.633 5.45 1.633 5 0h1c.027.973 1.224.776 2 1-.498 8.575 5.792 14.305 4 21 8.863 14.47 9.941 36.726 21 49v2c-5.698-.222-.555 5.196-3 7-2.741 3.259-10.73 1.27-13 5h-3c-4.039-9.751-3.384-19.062-9-28-13.792-2.458-13.76 8.906-16 18-2.364 2.303-4.644 4.689-5 9-5.529-.472-11.397-.603-16-2v-2c6.036-23.631 12.035-47.299 17-72 9.608 2.608 5.054-8.946 13-8zm-4 5c-4.804 23.196-11.592 44.408-16 68 3.868-.535 4.882 1.785 9 1 1.354-8.646 4.006-15.994 5-25 6.73.063 10.83-2.503 17-3 3.042 9.624 7.623 17.71 11 27 3.708.708 4.292-1.708 8-1-3.697-9.502-9.257-20.664-10-30-6.889-9.778-8.721-24.613-12-38-5.781.608-8.744-2.132-12 1z" transform="translate(-254.5 -327.65) scale(.93077)"/><path id="ID0.8698426955379546" fill="none" d="M306 353h5c.45 1.633-5.451 1.633-5 0z" transform="translate(-254.5 -327.65) scale(.93077)"/><path id="ID0.5615635616704822" fill="none" d="M312 353h27v71c-11.059-12.274-12.137-34.53-21-49 1.792-6.695-4.498-12.425-4-21-.776-.224-1.973-.027-2-1z" transform="translate(-254.5 -327.65) scale(.93077)"/><path id="ID0.4079858735203743" fill="#FF9400" d="M312 357c3.279 13.387 5.111 28.222 12 38 .743 9.336 6.303 20.498 10 30-3.708-.708-4.292 1.708-8 1-3.377-9.29-7.958-17.376-11-27-6.17.497-10.27 3.063-17 3-.994 9.006-3.646 16.354-5 25-4.118.785-5.132-1.535-9-1 4.408-23.592 11.196-44.804 16-68 3.256-3.132 6.219-.392 12-1zm-11 39c5.654-1.482 8.818-2.066 14-1-1.212-9.455-5.282-16.051-7-25-.221-.779-.838-1.163-2-1-2.96 7.142-5.291 19.903-5 27z" transform="translate(-254.5 -327.65) scale(.93077)"/><path id="ID0.7377838790416718" d="M306 369c1.162-.163 1.779.221 2 1 1.718 8.949 5.788 15.545 7 25-5.182-1.066-8.346-.482-14 1-.291-7.097 2.04-19.858 5-27zm0 22c.16-3.16.035-6.035-2-7 .729 2.271-1.802 7.802 2 7z" transform="translate(-254.5 -327.65) scale(.93077)"/><path id="ID0.5625731283798814" fill="none" d="M304 384c2.035.965 2.16 3.84 2 7-3.802.802-1.271-4.729-2-7z" transform="translate(-254.5 -327.65) scale(.93077)"/><path id="ID0.8488714252598584" fill="none" d="M320 438c-15.002-.664-32.664 1.33-46-1v-2c4.603 1.397 10.471 1.528 16 2 .356-4.311 2.636-6.697 5-9 2.24-9.094 2.208-20.458 16-18 5.616 8.938 4.961 18.249 9 28z" transform="translate(-254.5 -327.65) scale(.93077)"/><path id="ID0.4829629873856902" fill="none" d="M339 426v12h-16c2.27-3.73 10.259-1.741 13-5 2.445-1.804-2.698-7.222 3-7z" transform="translate(-254.5 -327.65) scale(.93077)"/></g></svg>