<svg width="120" height="120" viewBox="0 0 120 120" xmlns="http://www.w3.org/2000/svg" xmlns:xlink="http://www.w3.org/1999/xlink"><defs><path id="a" d="M0 0h119.009v110.74H0z"/></defs><g transform="translate(0 5)" fill="none" fill-rule="evenodd"><mask id="b" fill="#fff"><use xlink:href="#a"/></mask><path d="M118.982 62.475c.265-2.446-1.468-4.696-3.953-4.996-2.096-.263-4.015.986-4.724 2.837l-9.647-1.136 7.769-2.85 2.384-6.015-6.387.903L99.194 59l-12.22-1.465 12.667-4.653 3.563-8.908-9.505 1.338-8.085 12.059-8.213-.99 6.461-2.363 2.07-5.226-5.549.78-4.466 6.639-8.56-1.039c-.056-1.951-.833-3.92-2.326-5.39l5.178-6.905 7.87 1.347 4.423-3.47-5.212-2.093-6.181 3.015 4.939-6.59 14.326 2.49 7.516-5.94-8.898-3.608L76.865 34l7.385-9.85 9.237 1.586 5.072-4.003-6.004-2.408-7.422 3.644 5.815-7.754c1.885.756 4.06.212 5.323-1.473 1.494-1.994 1.114-4.804-.883-6.299a4.526 4.526 0 0 0-6.317.913c-1.281 1.708-1.177 4.013.132 5.554l-5.869 7.829 1.44-8.239-4.005-5.077-2.417 5.989 4.146 8.442-7.378 9.84 2.311-13.315-5.953-7.505-3.574 8.891 6.4 13.017-5.015 6.692 1.194-6.906-3.474-4.409-2.095 5.215 3.534 7.22-5.16 6.885c-1.83-1.018-3.931-1.202-5.83-.715l-3.43-7.901 5.116-6.158-.8-5.533-4.433 3.462-.453 6.86-3.26-7.582 9.3-11.162-1.373-9.455-7.547 5.893-.9 13.46-4.854-11.327 5.987-7.177-.927-6.387-5.09 3.963-.555 8.248-3.815-8.9a4.52 4.52 0 0 0 1.407-5.357C40.848.43 38.172-.618 35.912.375c-2.291.953-3.342 3.596-2.375 5.913.828 1.929 2.88 2.98 4.902 2.647l3.85 8.978-6.455-5.35-6.396.93 3.982 5.086 9.407.628 4.852 11.309-10.387-8.662-9.491 1.393 5.9 7.54 14.507.977 3.282 7.66-5.385-4.47-5.548.802 3.456 4.433 8.03.54 3.386 7.87c-.836.526-1.62 1.196-2.236 2.019a8.073 8.073 0 0 0-1.309 2.71l-8.543-1.026-2.78-7.472-5.22-2.085.808 5.56 5.7 3.822-8.198-.979-5.009-13.615-8.891-3.549 1.336 9.486 11.227 7.54-12.262-1.479-3.218-8.794-5.993-2.381.874 6.377 6.865 4.612-9.606-1.146c-.277-1.983-1.844-3.655-3.932-3.895a4.514 4.514 0 0 0-5.012 3.93c-.285 2.493 1.475 4.737 3.938 5.037 2.12.228 4.054-1.006 4.754-2.92l9.736 1.15-7.877 2.925-2.379 5.965 6.396-.893 5.223-7.826L32.05 53.13l-12.672 4.673-3.571 8.905 9.494-1.345 8.093-12.037 8.301.964-6.56 2.428-2.082 5.222 5.552-.806 4.488-6.662 8.551 1.045a7.852 7.852 0 0 0 2.314 5.408l-5.155 6.873-7.932-1.354-4.416 3.469 5.198 2.11 6.295-3.085-5 6.671-14.313-2.465-7.535 5.925 8.888 3.592 12.142-5.963-7.378 9.843-9.287-1.588-5.06 3.986 5.976 2.443 7.531-3.72-5.864 7.82a4.506 4.506 0 0 0-5.38 1.444c-1.488 1.986-1.068 4.812.914 6.295a4.481 4.481 0 0 0 6.287-.908 4.451 4.451 0 0 0-.097-5.502l5.826-7.768-1.433 8.164 4.03 5.043 2.405-5.971-4.117-8.419 7.391-9.856-2.325 13.306 5.963 7.522 3.591-8.876-6.412-13.044 4.94-6.589-1.171 6.791 3.49 4.393 2.088-5.213-3.51-7.167 5.173-6.9a7.826 7.826 0 0 0 5.843.697l3.4 7.923-5.143 6.145.808 5.576 4.414-3.46.484-6.98 3.283 7.704-9.312 11.126 1.385 9.492 7.582-5.919.893-13.474 4.814 11.308-6.023 7.215.939 6.381 5.095-3.95.544-8.355 3.864 8.959c-1.64 1.208-2.268 3.445-1.46 5.384a4.515 4.515 0 0 0 5.937 2.376c2.279-1.015 3.357-3.624 2.362-5.911-.828-1.955-2.868-2.974-4.847-2.674l-3.804-8.915 6.356 5.304 6.383-.954-3.973-5.093-9.36-.578-4.827-11.333 10.37 8.637 9.474-1.388-5.891-7.55-14.487-.973-3.269-7.575 5.308 4.414 5.557-.825-3.47-4.414-7.993-.541-3.362-7.904a7.93 7.93 0 0 0 2.257-2.026 7.902 7.902 0 0 0 1.3-2.718l8.499.995 2.794 7.562 5.234 2.07-.791-5.552-5.818-3.907 8.298 1 5.006 13.64 8.897 3.542-1.324-9.484-11.246-7.539 12.207 1.469 3.27 8.83 6.012 2.379-.906-6.38-6.963-4.664 9.707 1.168c.245 2.028 1.853 3.69 3.932 3.938a4.54 4.54 0 0 0 5.042-3.95" fill="#B0E1E7" mask="url(#b)"/></g></svg>