<svg width="85" height="170" viewBox="0 0 85 170" xmlns="http://www.w3.org/2000/svg"><g fill="none"><path d="M9.541 66.344c.353-.05.604-.3.856-.501.453-.351.956-.552 1.51-.702.301-.05.603-.15.955 0 .353.15.604.35.705.752a2.724 2.724 0 0 1-.906 1.655c-.956.853-1.66 1.956-2.365 3.01-.604.852-1.107 1.805-2.365 1.905-.05.853-.05 1.605-.1 2.357-.151 2.408-.05 4.815 0 7.222 0 .652.05 1.304.05 1.906 0 1.154.352 2.107 1.157 2.91 1.007 1.002 2.164 1.905 3.27 2.858.403.351.856.702 1.259 1.103 1.208 1.104 2.566 2.057 3.975 2.91a44.294 44.294 0 0 1 3.22 2.106 3.878 3.878 0 0 1 1.46 2.006c.453 1.304-.705 2.809-2.114 2.809a3.18 3.18 0 0 1-1.51-.352c-.955-.501-1.962-.902-2.867-1.454a19.642 19.642 0 0 1-2.315-1.705 681.148 681.148 0 0 1-6.642-5.768c-1.057-.953-2.013-1.956-2.667-3.21a4.514 4.514 0 0 1-.604-2.307c.1-3.51.151-7.072.252-10.582 0-.702.05-1.455.05-2.157a6.313 6.313 0 0 0-.352-2.558c-.352-.953-.453-2.056-.403-3.06.05-1.554 0-3.109.151-4.663.151-1.355.453-2.709.805-4.013.101-.401.302-.752.554-1.053.201-.25.453-.451.805-.502.201 0 .403.1.855.402.353-.15.504-.502.705-.753.553-.601 1.157-.501 1.56.251.1.15.1.351.15.552.303-.25.554-.502.856-.752.252-.201.554-.1.755.1.302.35.453.752.453 1.204.05 1.053-.151 2.056-.302 3.11-.201 1.203-.453 2.356-.705 3.51-.1.552-.251 1.003-.15 1.454zM5.315 58.42c-.202.05-.302.25-.353.451-.301 1.304-.603 2.558-.704 3.912-.1 1.906-.151 3.862-.1 5.768.05.752.15 1.505.452 2.207.302.602.352 1.204.302 1.856l-.302 6.018c-.05.702-.05 1.354-.1 2.056-.101 1.104-.202 2.207.05 3.36.05.251 0 .552-.05.853-.151 1.405.15 2.658 1.107 3.762.754.903 1.56 1.705 2.415 2.507l4.378 3.762a56.854 56.854 0 0 0 3.32 2.758c.957.753 2.013 1.355 3.17 1.706.554.2 1.108.25 1.661.05.604-.25.856-.803.554-1.354-.252-.452-.504-.753-.956-1.003-1.158-.703-2.265-1.505-3.422-2.207a26.086 26.086 0 0 1-4.428-3.31c-.554-.502-1.107-1.054-1.71-1.505-1.209-.903-2.215-2.006-3.221-3.06-.302-.3-.503-.651-.503-1.053 0-.902-.202-1.805-.202-2.758 0-3.01.05-6.018.252-9.028.05-.802.201-1.655.251-2.507 1.057 0 1.711-.502 2.164-1.355.1-.2.302-.4.403-.601.805-1.204 1.56-2.408 2.818-3.21-.101-.351-.302-.452-.554-.301A7.072 7.072 0 0 0 9.34 68.2c-.503.602-1.157.802-1.862 1.003-.453.1-.905 0-1.258-.25-.15-.101-.302-.302-.2-.502.05-.2.25-.351.452-.301.15 0 .302.1.453.1 1.006.1 1.258-.15 1.409-1.153.201-1.204.453-2.458.654-3.662.251-1.354.503-2.658.755-4.012.05-.3.15-.602-.101-.953-.1.05-.252.1-.302.2a7.943 7.943 0 0 0-.352 1.004c-.302 1.304-.654 2.658-.956 3.962-.05.3-.151.552-.302.802-.151.251-.352.301-.604.1 0-.1-.05-.2-.05-.35-.05-1.054.251-2.057.352-3.11.05-.802.252-1.605.352-2.357.05-.2 0-.401-.05-.602 0-.1-.151-.2-.252-.2-.1 0-.251.05-.302.15-.402 1.053-.805 2.056-.855 3.21-.05.903-.15 1.855-.201 2.758-.05.351-.252.602-.503.552-.252-.05-.453-.25-.453-.602v-.702c0-1.404.251-2.809.402-4.163 0-.401.05-.602-.251-.702z" fill="#010101"/><path d="M5.315 58.42c.302.1.251.3.251.602-.15 1.404-.402 2.758-.402 4.163v.702c.05.35.201.602.453.602.251.05.452-.201.503-.552.1-.903.201-1.856.201-2.759.05-1.153.453-2.206.855-3.21.05-.1.202-.15.302-.15.101 0 .252.1.252.2.05.201.05.402.05.603-.1.802-.251 1.605-.352 2.357-.1 1.053-.403 2.056-.352 3.11 0 .1.05.25.05.35.252.201.453.15.604-.1.15-.25.252-.501.302-.802.302-1.304.604-2.658.956-3.962.1-.352.201-.703.352-1.004.05-.1.201-.15.302-.2.252.3.151.652.1.953-.25 1.354-.503 2.658-.754 4.012-.201 1.204-.453 2.458-.654 3.661C8.183 68 7.93 68.25 6.924 68.15c-.15 0-.301-.1-.452-.1-.252-.05-.403.1-.453.3-.1.201.05.402.201.502.403.25.805.401 1.258.25.705-.15 1.359-.4 1.862-1.002.755-.853 1.66-1.505 2.667-2.006.252-.1.453 0 .554.3-1.208.803-2.013 2.007-2.818 3.21-.151.2-.302.402-.403.602-.453.803-1.107 1.354-2.164 1.354-.1.853-.251 1.655-.251 2.508a180.16 180.16 0 0 0-.252 9.028c0 .953.202 1.805.202 2.758 0 .401.251.752.503 1.053 1.006 1.054 2.012 2.157 3.22 3.06.604.451 1.157 1.003 1.71 1.504a26.086 26.086 0 0 0 4.429 3.31c1.157.703 2.264 1.505 3.422 2.207.452.251.704.602.956 1.003.302.552.05 1.154-.554 1.355-.553.2-1.107.15-1.66-.05-1.158-.402-2.214-1.004-3.17-1.706a60.402 60.402 0 0 1-3.321-2.758C11 93.528 9.49 92.324 8.032 91.07c-.906-.752-1.711-1.555-2.415-2.508-.906-1.103-1.208-2.407-1.107-3.761.05-.301.1-.552.05-.853-.252-1.103-.1-2.257-.05-3.36.05-.702.05-1.354.1-2.056l.302-6.019c.05-.652 0-1.254-.302-1.855-.352-.703-.453-1.455-.453-2.207-.1-1.906 0-3.862.101-5.768.05-1.304.403-2.608.704-3.912.05-.15.101-.3.353-.351z" fill="#DD002B"/><path d="M79.736 75.723c.251-.15.352-.25.503-.3.805-.302 1.308-.051 1.51.802.251 1.053.05 2.056-.303 3.059a165.093 165.093 0 0 1-1.861 5.316c-.353.953-.604 2.006-1.41 2.759-.15.15-.2.35-.25.551-.051.301-.101.552-.152.853-.15 1.856-.553 3.611-.905 5.417-.252 1.153-.353 2.357-.554 3.56-.252 1.555-.503 3.16-.755 4.715-.1.451-.15.953-.251 1.404-.202 1.204-.755 2.157-1.862 2.759a55.802 55.802 0 0 1-2.969 1.605c-2.868 1.404-5.787 2.808-8.655 4.213-.855.4-1.66.802-2.616.902-.755.1-1.66-.35-1.963-1.053-.15-.35-.251-.752-.402-1.153-.403-1.204 0-2.257 1.107-2.86.956-.55 1.912-1.052 2.918-1.454 2.617-1.153 5.183-2.307 7.75-3.56l1.81-.903c.756-1.906 3.17-13.19 3.271-15.347-.1-.1-.352-.2-.553-.402-.705-.702-1.057-1.504-1.057-2.457 0-.953-.201-1.806-.755-2.608-.05-.05-.05-.15-.1-.2-.252-.552-.352-1.104.05-1.555.453-.452 1.107-.452 1.711-.251.604.2 1.006.652 1.359 1.454.2-1.354.352-2.457.503-3.56.1-.653.201-1.355.302-2.007 0-.15.05-.3.1-.451.302-.903.956-1.104 1.761-.452.05.05.151.1.202.15.302-.2.453-.55.805-.701.453-.2.855-.1 1.157.3.201.201.302.452.352.753 0 .1.101.351.202.702zm-3.22-.351c-.303.05-.454.25-.454.502l-.452 3.46-.151 1.204c-.101.752-.202 1.504-.05 2.257.502.2.955.35 1.358.551.201.1.302.301.201.502-.15.15-.352.15-.553.1-.554-.15-1.057-.3-1.61-.451a1.396 1.396 0 0 1-.906-.853c-.1-.2-.151-.451-.202-.702-.15-.552-.402-1.053-.905-1.404-.151-.1-.353-.2-.503 0 0 .05-.05.1-.05.1.05.15.05.301.1.452.604 1.053.855 2.156.855 3.31 0 .702.352 1.304.856 1.655.754.501.956 1.053.654 1.805-.05.1-.05.251-.05.351-.05 1.856-.504 3.611-.906 5.417-.453 2.056-1.057 4.113-1.359 6.22-.1.701-.402 1.403-.553 2.055-.202.652-.554 1.104-1.158 1.455a25.814 25.814 0 0 1-2.868 1.504c-2.314 1.054-4.63 2.007-6.944 3.06-1.157.501-2.264.953-3.12 1.856-.1.852.101 1.554.655 2.156.352.351.704.502 1.207.301.453-.2.906-.351 1.309-.552 1.308-.652 2.616-1.454 3.975-2.006 2.415-1.053 4.629-2.357 6.994-3.46.553-.251 1.006-.652 1.46-1.104.452-.401.704-.903.804-1.454a304.9 304.9 0 0 0 1.007-6.119c.201-1.354.402-2.758.704-4.113.403-1.855.805-3.761 1.007-5.667.05-.451.2-.853.603-1.103.252-.15.403-.402.554-.652.402-.803.755-1.605 1.006-2.458.252-.802.453-1.605.755-2.407a22.232 22.232 0 0 0 1.057-3.561c.05-.301.15-.602-.101-.903-.453.1-.503.502-.604.802a111.675 111.675 0 0 1-1.409 3.712c-.1.3-.251.501-.604.451-.2-.15-.15-.35-.1-.551.1-.903.201-1.806.352-2.709.1-.752.252-1.504.352-2.257.05-.35.151-.702-.1-1.053-.202-.05-.353-.05-.403.1-.1.15-.15.351-.201.552-.252 1.555-.503 3.06-.755 4.614-.05.251-.1.452-.201.702-.05.15-.201.201-.403.201-.15 0-.302-.1-.402-.25-.1-.201-.151-.402-.1-.552.301-.753.2-1.605.351-2.358.1-.852.1-1.805 0-2.708z" fill="#010101"/><path d="M76.515 75.372c.1.903.1 1.856-.05 2.758-.151.803-.05 1.605-.352 2.358-.05.2-.05.4.1.551.101.15.202.251.403.251s.352-.05.402-.2c.101-.201.202-.452.202-.703.251-1.554.503-3.059.755-4.614.05-.2.1-.401.2-.551.101-.15.252-.201.403-.1.252.3.151.701.101 1.052-.1.753-.252 1.505-.352 2.257a49.837 49.837 0 0 0-.352 2.709c0 .2-.05.4.1.551.352.05.503-.2.604-.451.453-1.254.906-2.458 1.409-3.711.1-.301.15-.703.604-.803.251.301.15.602.1.903a41.547 41.547 0 0 1-1.056 3.56 22.111 22.111 0 0 0-.755 2.408c-.252.853-.604 1.655-1.006 2.458-.151.25-.252.501-.554.652-.403.25-.553.652-.604 1.103-.201 1.906-.604 3.762-1.006 5.668-.302 1.354-.503 2.758-.705 4.112a221.794 221.794 0 0 1-1.006 6.119 2.488 2.488 0 0 1-.805 1.454c-.453.402-.906.853-1.46 1.104-2.364 1.103-4.578 2.457-6.994 3.46-1.358.602-2.666 1.355-3.975 2.007-.453.2-.905.4-1.308.551-.453.2-.855.05-1.208-.3-.553-.603-.754-1.305-.654-2.157.856-.903 1.963-1.405 3.12-1.856a418.18 418.18 0 0 0 6.944-3.06 25.814 25.814 0 0 0 2.868-1.504c.604-.351.956-.802 1.157-1.454.202-.703.453-1.355.554-2.057.352-2.106.956-4.112 1.358-6.219.403-1.805.856-3.56.906-5.416 0-.1 0-.251.05-.352.302-.802.101-1.304-.654-1.805a1.947 1.947 0 0 1-.855-1.655c0-1.154-.252-2.307-.855-3.31-.101-.15-.101-.301-.101-.452 0-.05 0-.05.05-.1.151-.2.352-.1.503 0 .453.351.705.853.906 1.404.05.251.1.452.201.702.151.452.453.753.906.853.554.15 1.057.301 1.61.451.202.05.403.05.554-.1.1-.2 0-.401-.201-.501-.453-.201-.856-.351-1.359-.552-.151-.752-.05-1.505.05-2.257l.151-1.204.453-3.46c.1-.351.201-.502.503-.552z" fill="#DD002B"/><path d="M6.975 162.59c-.352 0-.956 0-1.46-.15-.955-.302-1.207-1.104-.653-1.857a3.8 3.8 0 0 1 1.056-.953c.906-.551 1.661-1.253 2.617-1.655.755-.3 1.006-.852 1.006-1.605 0-1.805.05-3.61.101-5.416.1-2.708.201-5.467.252-8.175.05-1.104.1-2.157.1-3.26.05-1.154.352-2.207 1.007-3.16 1.006-1.505 1.811-3.21 2.918-4.664 1.71-2.257 3.02-4.815 4.73-7.122 1.157-1.505 2.113-3.21 3.522-4.564a6.37 6.37 0 0 1 1.66-1.204c1.158-.602 2.617-.451 3.573.401.504.402.655 1.004.755 1.605.151 1.003-.1 1.906-.453 2.809-.805 2.357-2.264 4.313-3.572 6.37-1.61 2.457-3.472 4.714-5.183 7.071-.855 1.154-1.56 2.357-2.264 3.561-.403.652-.504 1.354-.554 2.056a119.53 119.53 0 0 0-.553 9.48c-.05 2.056-.151 4.062-.252 6.118 0 .2-.05.402-.05.602-.151 1.555-1.057 2.558-2.516 2.859-1.812.401-3.673.802-5.787.853zm-1.107-1.355c.554.05.906.15 1.308.15 1.66-.05 3.271-.45 4.881-.751 1.41-.251 2.013-.853 2.114-2.508.1-1.906.201-3.812.251-5.768.05-3.01.151-6.018.554-8.977.201-1.655.654-3.16 1.56-4.615 1.459-2.307 3.12-4.463 4.629-6.72 1.46-2.207 3.17-4.213 4.428-6.52.604-1.104 1.006-2.257 1.359-3.46.15-.452.05-.954.05-1.455 0-.351-.201-.602-.503-.803-.554-.35-1.61-.551-2.617.2-.855.653-1.66 1.355-2.314 2.258-1.057 1.404-2.013 2.909-2.97 4.363-1.257 1.956-2.364 4.013-3.773 5.818-1.157 1.505-1.963 3.21-2.969 4.765-.352.551-.553 1.153-.553 1.805 0 1.254-.101 2.558-.151 3.812-.151 3.01-.202 5.968-.252 8.977-.05 1.304-.1 2.659-.05 3.963.1 1.605-.554 2.658-2.013 3.31-1.107.602-1.962 1.304-2.969 2.156z" fill="#010101"/><path d="M5.868 161.235c1.007-.852 1.862-1.554 2.868-2.056 1.46-.652 2.114-1.705 2.013-3.31-.05-1.304 0-2.658.05-3.962.05-3.01.101-5.969.252-8.978.05-1.254.15-2.558.15-3.811 0-.652.202-1.254.554-1.806 1.057-1.555 1.812-3.31 2.97-4.765 1.458-1.805 2.515-3.912 3.773-5.817.956-1.455 1.912-2.96 2.969-4.364.654-.852 1.46-1.605 2.315-2.257 1.006-.752 2.063-.551 2.616-.2.302.2.503.451.503.802 0 .502.05 1.003-.05 1.455-.352 1.203-.755 2.357-1.359 3.46-1.258 2.357-2.968 4.364-4.428 6.52-1.51 2.257-3.17 4.414-4.629 6.72-.906 1.455-1.359 2.96-1.56 4.615-.352 2.959-.503 5.968-.553 8.977-.05 1.906-.151 3.812-.252 5.768-.05 1.605-.654 2.207-2.113 2.508-1.61.3-3.22.702-4.881.752-.252-.05-.654-.15-1.208-.25z" fill="#DD002B"/><path d="M51.557 125.676c-.05.502.101 1.054-.1 1.555a.43.43 0 0 0 0 .351c.503 3.11.352 6.22.704 9.329.151 1.254.302 2.457.654 3.661a5.31 5.31 0 0 0 1.309 2.157 1463.56 1463.56 0 0 0 8.956 8.877 17.332 17.332 0 0 0 3.22 2.508c.353.2.655.45 1.007.652 1.107.752 1.308 2.507.654 3.51-.956 1.505-1.71 3.06-2.566 4.614-.453.803-.906 1.605-1.71 2.157a.718.718 0 0 1-.202.15c-1.057.653-1.812.201-2.164-.802a2.234 2.234 0 0 1 0-1.404c.453-1.605.302-3.26.604-4.865.05-.401-.05-.702-.302-1.003a6.857 6.857 0 0 0-.855-.853 111.042 111.042 0 0 1-8.555-7.573c-1.207-1.154-2.465-2.157-3.622-3.36a9.203 9.203 0 0 1-1.862-3.16c-.604-1.655-.856-3.41-1.107-5.166-.252-1.856-.403-3.711-.554-5.617-.1-1.053-.15-2.157-.201-3.21-.1-1.555.201-3.06.654-4.514.302-1.003 1.56-2.407 3.02-2.407.704 0 1.307.2 1.71.702.755.903 1.409 1.856 1.308 3.11-.05.2 0 .4 0 .601zm10.97 38.368c.251.1.402.05.553-.1.252-.351.554-.702.805-1.054 1.258-1.956 2.164-4.062 3.271-6.068-.352-.853-.604-1.104-1.359-1.655-1.56-1.104-3.12-2.107-4.377-3.511-.503-.552-1.007-1.053-1.51-1.555-1.006-.953-1.912-2.056-2.969-2.959-1.207-1.103-2.365-2.257-3.572-3.41-1.158-1.104-1.711-2.458-2.063-4.013-.151-.802-.202-1.605-.302-2.357-.201-1.404-.403-2.758-.403-4.163 0-.902.05-1.855-.1-2.758-.202-1.003-.202-2.006-.202-3.01v-2.507c0-.552-.1-1.154-.453-1.555-.402-.501-.805-1.003-1.408-1.003-1.208.452-1.762 1.354-2.063 2.458-.252 1.003-.504 2.056-.302 3.06.2 1.303.2 2.607.352 3.961.201 1.856.251 3.762.553 5.617.151 1.004.252 1.956.504 2.96.2.952.452 1.855 1.006 2.658.805 1.153 1.66 2.257 2.717 3.21.352.35.755.601 1.107.952 1.359 1.254 2.617 2.608 4.076 3.762a244.76 244.76 0 0 1 4.076 3.41c.754.652 1.56 1.254 2.163 2.057.302.401.554.802.504 1.304-.05.652-.05 1.354-.101 2.006-.1 1.053-.05 2.157-.403 3.16-.251.35-.251.752-.1 1.103z" fill="#010101"/><path d="M62.527 164.044c-.202-.351-.151-.802-.05-1.154.352-1.053.352-2.106.402-3.16.05-.651.05-1.353.1-2.005.05-.502-.2-.903-.503-1.304-.603-.803-1.408-1.405-2.163-2.057-1.359-1.153-2.717-2.257-4.076-3.41-1.409-1.204-2.717-2.508-4.076-3.762-.352-.3-.755-.602-1.107-.953-1.006-.953-1.912-2.056-2.717-3.21-.554-.802-.805-1.755-1.006-2.658-.202-.953-.302-1.956-.504-2.959-.302-1.855-.352-3.711-.553-5.617-.151-1.304-.151-2.608-.352-3.962-.151-1.053.05-2.056.302-3.06.301-1.103.855-2.006 2.063-2.457.603 0 1.006.502 1.409 1.003.352.451.452 1.003.452 1.555v2.508c0 1.003 0 2.006.202 3.009.15.903.1 1.855.1 2.758 0 1.405.202 2.809.403 4.163.1.802.15 1.605.302 2.357.302 1.505.855 2.91 2.063 4.013 1.207 1.103 2.365 2.307 3.572 3.41 1.057.953 1.963 2.006 2.97 2.96.502.5 1.056 1.002 1.509 1.554 1.258 1.404 2.868 2.457 4.377 3.51.755.552 1.007.803 1.36 1.656-1.108 2.006-2.014 4.162-3.272 6.068-.251.351-.503.702-.805 1.054.05.25-.15.3-.402.15z" fill="#DD002B"/><path d="M60.866 14.435c.503.602.654 1.254.453 2.006-.201.602-.604 1.003-1.107 1.405-.251.2-.553.15-.805.1-.704-.2-1.157-.652-1.409-1.354-.1-.301 0-.652-.252-.903-.15-.1-.251 0-.301.1-.101.15-.151.351-.202.552-.251.903-.503 1.856-.754 2.809.452 0 .603-.352.855-.502 1.006-.602 2.264-.15 2.566 1.003.201.752-.302 1.956-.956 2.307-.453.25-1.258.15-1.71-.2-.353-.301-.655-.602-.755-1.054-.05-.2 0-.4-.202-.501-.302.05-.302.35-.352.551-.352 1.204-.704 2.458-1.107 3.662-.201.652-.252 1.354-.252 2.006a91.468 91.468 0 0 1-.855 8.325c-.15 1.104-.201 2.257-.302 3.36-.553 4.665-.956 9.33-1.358 13.994l-.604 7.523a175.764 175.764 0 0 1-.554 5.366c-.15 1.555-.302 3.11-.453 4.664-.201 2.257-.302 4.564-.704 6.821-.05.301-.05.552.05.903 1.862-.35 3.12-1.354 3.774-3.11.201-.601.503-1.203.906-1.654 1.056-1.254 2.214-1.555 3.774-1.054.503.15.956.402 1.409.702.402.251.754.452 1.157.652.553.251.956.652 1.157 1.154.654 1.605 1.359 3.16.856 4.965-.202.753-.252 1.555-.403 2.357-.15.853-.553 1.605-.906 2.358-.452.953-.956 1.855-1.358 2.808-.403.903-.906 1.806-1.41 2.658-1.006 1.605-1.307 3.31-.754 5.166.403 1.405 1.006 2.658 1.71 3.912.554 1.003.957 2.107 1.51 3.11 1.057 1.906 1.51 3.962 1.913 6.018.251 1.405.1 2.86.05 4.314-.151 2.708-.805 5.216-2.214 7.523-1.66 2.808-3.875 5.115-6.542 6.971-1.61 1.103-3.37 1.856-5.182 2.458-.403.15-.856.2-1.309.25-1.358.2-2.717.552-4.126.702-2.314.201-4.528.05-6.843-.25-2.214-.301-4.327-.853-6.34-1.756-1.107-.501-2.164-1.103-3.22-1.605-.806-.4-1.56-.802-2.366-1.203-2.515-1.254-4.478-3.11-6.088-5.317-2.063-2.858-3.422-6.068-3.975-9.579-.201-1.304-.151-2.658 0-3.962.201-1.806.704-3.51 1.258-5.216.201-.602.453-1.204.805-1.756.906-1.554 1.761-3.16 3.12-4.413.503-.502.956-1.053 1.459-1.605.755-.802 1.51-1.555 2.264-2.307.554-.552.956-1.204 1.41-1.755 1.156-1.455 1.358-3.11 1.056-4.865-.252-1.756-.654-3.461-.956-5.166-.403-2.157-.302-4.313.805-6.32.704-1.304 1.71-2.357 2.818-3.26 1.71-1.304 3.572-2.307 5.686-2.808.754-.2 1.51-.301 2.264-.401.252-.05.453-.05.704-.1.101-.803.252-1.556.302-2.308.302-2.808.554-5.567.856-8.376.201-2.156.453-4.313.654-6.47.201-1.805.352-3.61.503-5.366.151-1.655.403-3.26.604-4.865.302-2.207.553-4.463.855-6.67.252-1.705.503-3.41.805-5.116.202-1.103.403-2.207.403-3.31 0-1.404-.05-2.809-.05-4.213-.403-.2-.755-.15-1.007.2-.05.1-.1.201-.201.302-.604.752-1.66.802-2.315.05-.754-.903-.654-1.655.101-2.458.252-.25.553-.35.855-.2.554.3 1.258.3 1.61.952.152.251.504.201.806-.05-.05-.953-.05-1.956-.101-2.959-.453-.15-.755-.15-1.057.251-.402.502-.956.802-1.71.552-.705-.251-1.057-.702-1.158-1.405-.1-.652.252-1.153.805-1.504.805-.502 1.359-.401 2.013.3.151.201.252.402.403.603.15.15.352.15.553.1.201-.301.1-.602.1-.903 0-.853-.05-1.655-.05-2.508-.704-.15-.654-.15-.905.201-.705 1.154-2.013 1.254-2.768.25-.503-.651-.402-1.504.252-2.156.503-.501 1.207-.552 1.862-.1.15.1.352.25.452.401.252.451.655.351 1.107.25.05-.802.101-1.604.101-2.407 0-.501.151-.802.654-1.003 1.007-.35 1.812-1.003 2.617-1.655.755-.602 1.56-.953 2.566-.902.604 0 1.107.15 1.56.551.15.15.352.301.503.401.151-.05.201-.05.302-.1 1.308-.953 2.164-1.003 3.522-.1.352.2.705.451.956.752.906 1.053 2.063 1.756 3.271 2.357.05.05.151.05.201.1.604.352.705.653.554 1.405-.1.602-.201 1.154-.352 1.856.301-.2.503-.301.603-.402 1.007-.902 2.365-.05 2.818.803.403.702.151 1.404-.352 2.006-.252.301-.604.502-.906.752-.503-.05-1.006.05-1.51-.2-.452-.251-.704-.702-1.157-1.003-.251.702-.654 1.254-.553 1.906.402.25.604 0 .805-.15.604-.352 1.258-.502 1.912-.051.302 0 .403 0 .503.05zM39.33 95.484c-.403.602-.252 1.254-.1 1.906.352-.05.653.2.855-.201 0-.05.05-.15.05-.2a.457.457 0 0 0 .201-.402v-1.555c-.704-.451-.855-.35-1.006.452zm17.662-84.259c-.05 0-.1.05-.1.05-.353 1.104-.756 2.157-1.108 3.26-.453 1.505-.654 3.11-1.409 4.564-.1.15-.15.351-.201.552-.453 1.956-1.258 3.862-1.409 5.918-.151 1.906-.503 3.762-.654 5.668 0 .15-.05.3-.05.501a62.485 62.485 0 0 0-.403 3.21c-.1 1.103-.252 2.207-.352 3.31-.1 1.304-.352 2.608-.453 3.912-.05.752-.1 1.505-.252 2.257a6.883 6.883 0 0 0-.15 2.006c0 .753-.303 1.405-.252 2.157.05 1.153-.151 2.307-.302 3.46-.201 1.756-.403 3.461-.604 5.216-.151 1.254-.403 2.508-.352 3.812v.351c-.252 1.354-.252 2.759-.453 4.163-.151.953-.1 1.956-.302 2.859-.252 1.203-.151 2.357-.352 3.56-.252 1.355-.202 2.76-.302 4.163 0 .15-.05.301-.1.452-.101.552.05.752.603.752.252 0 .503.05.654-.25.05-.753 0-1.555.1-2.358.202-1.454.403-2.909.403-4.413 0-1.304.353-2.558.252-3.812 0-.15.05-.301.1-.451.353-.803.353-1.656.353-2.458 0-1.103.352-2.207.251-3.36 0-.05.05-.1.05-.1.152-1.204.353-2.358.353-3.562.05-1.705.403-3.36.302-5.015v-.25c.251-.653.201-1.355.201-2.007-.05-.752.302-1.404.252-2.156-.1-1.104.1-2.157.302-3.21.2-1.204.1-2.458.402-3.662.252-1.103.201-2.307.302-3.46 0-.15.05-.301.05-.452.151-.902.252-1.805.403-2.708.15-.903.15-1.856.302-2.708.251-1.304.201-2.608.352-3.912.151-1.404.352-2.759.755-4.113a31.28 31.28 0 0 0 .755-3.11c.05-.3.15-.601.251-.902.453-1.254 1.057-2.407.956-3.812 0-.2 0-.401.151-.551.654-.753.705-1.756 1.057-2.608-.05-.301-.201-.502-.352-.753.352 0 .604-.15.754-.501.302-.753.554-1.455.504-2.307 0-.15-.101-.301-.302-.301-.252.1-.352.35-.403.551-.1.903-.654 1.655-.553 2.558zM37.468 67.498c-.352-.2-.553-.15-.805-.1-2.264.35-4.378 1.103-6.24 2.407-.805.552-1.66 1.153-2.264 1.956-1.157 1.605-1.811 3.36-1.811 5.366 0 .402.05.803.15 1.204.403 1.755.856 3.51 1.158 5.266.453 2.408.1 4.715-1.61 6.62-1.208 1.305-2.566 2.458-3.623 3.862-.906.602-1.46 1.455-2.063 2.307-1.56 2.157-2.919 4.414-3.522 7.022l-.302 1.655c-.403 2.407-.403 4.765.2 7.122.202.802.554 1.605.856 2.357.453 1.154 1.007 2.257 1.812 3.26.352.452.654.903.956 1.354.805 1.104 1.66 2.207 2.717 3.01 1.208.902 2.516 1.655 3.824 2.457 1.208.752 2.567 1.154 3.875 1.655.402.15.805.401 1.258.452 1.56.25 3.17.601 4.73.702 1.912.15 3.824.1 5.736-.15 1.308-.151 2.566-.552 3.875-.904.805-.2 1.66-.4 2.415-.802 1.912-1.003 3.623-2.407 5.334-3.711.15-.1.251-.251.352-.351.755-.703 1.258-1.555 1.912-2.308.956-1.053 1.61-2.256 2.063-3.61 1.157-3.21 1.71-6.52 1.006-9.88-.453-2.308-1.006-4.515-2.214-6.52a4.44 4.44 0 0 1-.402-.854c-.151-.4-.403-.802-.604-1.153-.705-1.404-1.51-2.708-1.912-4.263-.453-1.605-.1-3.11.553-4.514.906-1.806 1.912-3.51 2.768-5.316.604-1.254 1.107-2.558 1.409-3.962.251-1.204.15-2.408.201-3.612.05-.802-.252-1.504-.553-2.206-.353-.803-1.158-1.154-2.013-.903-.352.1-.705.2-.956.3-.554.703-.956 1.405-1.208 2.208a4.351 4.351 0 0 1-1.862 2.257c-1.157.702-2.415 1.253-3.874 1.203-.1 0-.201.05-.352.1-.302 1.104-.302 2.207-.504 3.31-.15.803-.2 1.606-.956 1.957-.251 1.956-.2 3.811-.302 5.667.856.953.856 1.003.705 2.207-.151 1.053-.352 2.106-.503 3.26-.755.2-.906.752-.906 1.504 0 .552-.05 1.104-.1 1.656.15.1.301.2.402.3.805.803.755 1.405 0 2.157-.252.25-.503.502-.755.702 0 1.003-.402 1.906-.251 2.96.603.25.754.802.905 1.404.151.551-.15 1.103-.704 1.203-.352.05-.705.2-1.057.1-1.208-.2-2.415-.25-3.573-.4-2.012-.251-4.025-.552-6.088-.653a4.817 4.817 0 0 1-1.71-.501c-.806-.351-.957-1.304-.403-2.006.352-.402.855-.552 1.258-.702.1-.903.2-1.756.301-2.608-.452-.452-.704-1.054-.956-1.605.151-.452.252-.903.604-1.054.654-.35.755-.902.755-1.504 0-.452.05-.903.05-1.304 0-.351 0-.652-.251-.903-.202-.15-.1-.351-.1-.552.1-1.103.351-2.206.301-3.36-.05-.451.1-.853.453-1.204.15-.15.251-.3.251-.551.05-.703.252-1.355.252-2.007.05-1.003.151-2.006.352-2.959.1-.501.05-.902-.251-1.203-.302-.301-.353-.602-.252-.953.201-.702.201-1.405.201-2.157 0-.552.05-1.103.302-1.705.202-.25.654-.25.805-.602.252-2.909.805-5.868.755-8.877zm6.24-45.038c2.868.1 5.585.2 8.403.3 1.56-5.015 3.12-9.98 4.68-14.895-.806-.702-1.56-1.354-2.315-2.006-.252-.2-.453-.452-.705-.652-.805-.652-1.861-.702-2.616.05-.302.3-.604.552-1.007.602-.302-.1-.503-.251-.603-.502-.151-.3-.403-.501-.705-.652-.654-.35-1.208-.05-1.71.251-1.108.652-2.215 1.454-3.422 2.056-.252 5.116.2 10.232 0 15.448zm15.95 50.956c.252.702.705 1.204.705 1.806.05 1.053.151 2.056-.15 3.11a4.593 4.593 0 0 0-.252 1.403c-.05.953-.453 1.756-.856 2.608-.453 1.054-1.057 2.057-1.51 3.11-.352.802-.754 1.605-1.207 2.307-.201.3-.403.602-.554.953-.603 1.605-.805 3.26-.15 4.915.15.401.352.802.503 1.204.352 1.003.956 1.855 1.409 2.758.553 1.154 1.056 2.307 1.66 3.46.352.703.654 1.455.855 2.208.353 1.655.906 3.21.806 4.915-.05.852-.101 1.755-.202 2.608-.1 1.103-.302 2.206-.553 3.31-.302 1.153-.604 2.357-1.258 3.36-1.208 1.856-2.315 3.711-4.076 5.166-.704.602-1.359 1.254-2.063 1.805-2.063 1.555-4.378 2.659-6.894 3.21-.402.1-.805.05-1.207.15-2.164.603-4.378.753-6.642.653-.202 0-.453-.1-.654.2.654.05 1.257.251 1.811.201.604-.05 1.157.1 1.761.05 1.46-.1 2.969-.15 4.428-.25.1 0 .201-.1.352-.1 1.258-.151 2.365-.653 3.623-.904a7.572 7.572 0 0 0 2.114-.752c1.258-.752 2.516-1.555 3.673-2.458 1.359-1.003 2.616-2.106 3.573-3.51.1-.15.251-.301.402-.452.604-.602 1.057-1.354 1.359-2.106.604-1.455 1.107-2.91 1.459-4.414.201-.802.252-1.655.352-2.457a12.523 12.523 0 0 0 0-3.36c-.1-.703-.251-1.405-.402-2.107-.353-1.655-.856-3.26-1.56-4.765-.554-1.153-1.057-2.307-1.711-3.41-.453-.853-.906-1.705-1.258-2.558-.352-.802-.453-1.655-.705-2.508.353-.953.302-2.006.806-2.959 1.056-1.906 2.012-3.811 3.019-5.717 1.006-1.956 1.51-4.013 1.459-6.22v-.952c-.05-1.555-.604-2.759-2.264-3.511zm-12.68-48.148c-.1.803-.2 1.555-.302 2.307-.2 1.706-.301 3.41-.503 5.116-.201 2.056-.503 4.113-.704 6.169-.151 1.655-.352 3.36-.503 5.015-.202 1.806-.302 3.662-.554 5.467-.1.853-.15 1.756-.251 2.608-.101 1.154-.302 2.307-.403 3.46-.1 1.054-.201 2.057-.302 3.11-.201 1.956-.453 3.862-.654 5.818-.1.652-.201 1.354-.201 2.006-.05 1.204-.202 2.408-.353 3.561-.1 1.053-.15 2.157-.352 3.21-.201.953-.201 2.006-.302 2.96-.05.651.05.751.856.651.402-1.504.302-3.06.553-4.614.151-1.003.151-2.056.302-3.11.151-.752.151-1.504.252-2.256a63.63 63.63 0 0 0 .402-3.06c.1-1.053.151-2.156.302-3.21.1-.752.1-1.504.252-2.257.251-1.203.201-2.457.402-3.711.202-1.053.151-2.157.353-3.21.15-.852.15-1.655.251-2.508.151-1.103.302-2.206.403-3.31.1-1.053.15-2.056.302-3.11.2-1.454.402-2.908.452-4.413 0-.25.05-.451.101-.702.201-1.856.403-3.711.654-5.567.1-1.003.1-2.006.302-2.96.201-1.052.05-2.156.352-3.209 0-.05-.05-.15-.05-.25-.352-.151-.654-.101-1.057 0zm2.114.05c-.1.703-.202 1.405-.302 2.057-.1 1.053-.151 2.056-.302 3.11-.151.852-.151 1.654-.252 2.507-.1 1.103-.302 2.207-.402 3.31-.1 1.053-.151 2.157-.302 3.21-.151.853-.1 1.655-.252 2.508-.352 1.956-.402 3.962-.654 5.968-.1.652-.201 1.354-.251 2.006-.05 1.104-.252 2.157-.302 3.21-.151 1.755-.453 3.46-.604 5.216-.201 1.956-.352 3.912-.554 5.818-.1.852-.15 1.655-.251 2.508l-.453 3.912c-.1 1.053-.252 2.156-.352 3.21-.101.852-.202 1.755-.302 2.607 0 .1.05.201.1.301.353.1.654.15.956-.05.101-1.003.202-2.056.302-3.06.05-.4.05-.802.1-1.203.202-1.204.353-2.457.403-3.661 0-.301 0-.652.05-.953.353-1.705.353-3.51.605-5.216.1-.652.15-1.354.251-2.006.151-1.204.201-2.408.302-3.561.1-1.003.151-2.006.302-2.96.151-1.303.352-2.607.453-3.911.05-1.053.15-2.157.302-3.21.201-1.404.352-2.759.453-4.163.1-.953.1-1.906.251-2.859.302-1.855.352-3.711.604-5.567.151-1.053.201-2.156.302-3.21l.604-5.567c-.252-.2-.453-.4-.805-.3zm-3.17-.2c-.805-.05-.906 0-.956.501-.151 1.505-.353 3.01-.504 4.514-.1 1.053-.1 2.157-.301 3.21-.151.752-.101 1.505-.202 2.257-.201 1.254-.402 2.508-.402 3.812-.05 1.103-.252 2.206-.302 3.36-.1 1.755-.453 3.46-.604 5.216-.151 1.605-.302 3.16-.503 4.765l-.453 4.513c-.151 1.555-.352 3.11-.503 4.615-.151 1.605-.302 3.26-.503 4.865-.202 1.855-.302 3.761-.554 5.617-.1.752-.05 1.504-.252 2.257-.15.652-.15 1.254-.15 1.906 0 .05.1.15.15.2.252.1.554.15.806-.15 0-.402 0-.853.05-1.254.201-1.856.453-3.712.654-5.567.201-1.806.302-3.661.553-5.467.101-.853.101-1.705.252-2.508.252-1.153.151-2.307.403-3.46.2-1.054.15-2.157.352-3.21.15-.853.1-1.655.251-2.508.202-1.454.403-2.909.453-4.413 0-.201 0-.402.05-.602.152-1.053.202-2.157.403-3.21.252-1.354.201-2.708.403-4.063.1-.852.251-1.755.302-2.608.05-1.153.1-2.307.302-3.46.15-.752.1-1.505.2-2.257.202-1.254.403-2.508.454-3.812 0-.25.05-.501.1-.702.101-.802 0-1.555.05-2.357zm-2.013-.1c-.302.25-.403.501-.403.702 0 1.304-.352 2.507-.553 3.761-.1.753-.201 1.505-.252 2.257-.1 1.003-.302 1.956-.402 2.96a59.251 59.251 0 0 0-.353 2.958c-.1.903-.251 1.806-.352 2.709-.1 1.003-.1 2.006-.302 2.959-.302 1.805-.402 3.66-.603 5.466-.202 1.806-.302 3.561-.504 5.367-.2 1.605-.402 3.16-.453 4.765-.1 1.805-.452 3.56-.553 5.366-.05.853-.151 1.655-.252 2.508-.2 1.404-.402 2.758-.452 4.162 0 .251 0 .502-.05.703a63.63 63.63 0 0 0-.403 3.059l-.151 1.655c.302.05.503.1.754.15.202-.902.302-1.805.353-2.758a32.5 32.5 0 0 1 .302-3.11c.2-1.354.302-2.708.452-4.062.101-1.003.252-2.006.302-2.959.101-1.404.353-2.758.403-4.163 0-.15 0-.3.05-.501.252-1.254.403-2.508.453-3.812 0-.25 0-.502.05-.702.302-1.154.151-2.307.403-3.46.15-.653.201-1.355.252-2.007.1-1.103.1-2.257.301-3.36.151-.803.151-1.605.202-2.408.201-1.905.503-3.811.654-5.717.05-.702.252-1.354.252-2.006-.05-1.204.251-2.358.301-3.561.05-.803.151-1.605.202-2.357.15-1.405.302-2.86.453-4.264 0 0-.05-.1-.101-.3zm1.71 52.01c.806.1.957.05.957-.452 0-1.204.15-2.408.251-3.611.101-1.304.151-2.659.302-3.963.1-.852.1-1.755.252-2.608.251-1.354.201-2.708.402-4.062.202-1.204.202-2.407.302-3.56.202-2.057.504-4.114.654-6.17.101-1.103.252-2.207.353-3.31.1-.903.15-1.806.251-2.758.151-1.254.302-2.558.453-3.812.1-1.053.151-2.056.302-3.11.1-.702.151-1.454.201-2.156.252-1.856.453-3.712.705-5.567.1-.803.15-1.605.302-2.358.251-1.304.352-2.608.553-3.861-.805-.301-1.006-.201-1.056.4-.05.703 0 1.355-.151 2.057-.202 1.003-.151 2.006-.353 2.96-.2 1.153-.15 2.306-.302 3.46-.1.953-.15 1.906-.301 2.859-.202 1.404-.302 2.758-.453 4.162-.101 1.003-.101 2.006-.302 2.96-.151.852-.151 1.755-.252 2.607-.15 1.154-.302 2.307-.402 3.461-.05.351 0 .702-.05 1.103a34.36 34.36 0 0 0-.403 3.912c-.05.953-.151 1.906-.302 2.86-.201 1.103-.252 2.206-.352 3.31-.101 1.253-.302 2.557-.353 3.811-.05.853-.1 1.755-.251 2.608-.201 1.354-.403 2.708-.453 4.062 0 .301-.1.552-.1.853-.152 1.304-.252 2.558-.403 3.912zm-.25 28.687c-.101-.552-.454-.752-.856-.802-.856-.1-1.66-.251-2.516-.301-1.41-.15-2.768-.351-4.177-.502-1.358-.1-2.717-.05-4.075-.401-.101-.05-.252 0-.353 0-.352 0-.503.401-.352.702.1.15.201.25.352.301.654.25 1.309.451 1.963.451.906 0 1.862-.05 2.767.1 1.963.352 3.925.352 5.837.703.503.05.906 0 1.41-.25zm-1.058-16.25c.403 0 .705.1 1.057-.1.1-.301.252-.652.252-1.003.05-1.455.352-2.859.302-4.313 0-.1-.05-.201-.101-.301-.302-.05-.553-.15-.855-.2-.05 0-.101 0-.101.05-.302 1.002-.654 4.814-.554 5.867zm-1.107-.3c-.05-1.907.554-3.712.504-5.568-.906-.501-1.107-.401-1.208.452-.05.451-.1.852-.1 1.304-.101 1.103-.252 2.206-.353 3.31 0 .15-.05.3.151.501.252.1.554.1 1.006 0zm-3.12-.251c.806-.05.906-.1.957-.552.05-.602.1-1.204.201-1.756.151-1.003.453-2.006.352-3.059a.38.38 0 0 0-.1-.2c-.252-.151-.504-.201-.856.05-.201 1.755-.604 3.56-.553 5.517zm-2.968-6.32c-.403.401-.352.803-.403 1.204 0 .451-.1.852-.15 1.304-.101.852-.152 1.755-.302 2.608-.05.25-.101.552.1.802.1.15.252.2.403.2.1 0 .201-.1.302-.2.05-.1.1-.2.1-.35.151-1.355.302-2.659.503-4.013.05-.401 0-.853 0-1.354-.2-.05-.352-.1-.553-.2zm1.61.502c-.201 1.855-.453 3.711-.553 5.517.251.2.452.35.754.2.302-.401.151-.903.252-1.354.05-.501.201-1.003.201-1.555 0-.501.302-.902.252-1.404-.05-.502.251-1.003-.1-1.505-.252 0-.454-.05-.806.1zm4.58-5.166c-.252.852-.554 3.61-.454 4.313.151.1.352.2.554.15.15 0 .302-.05.453-.1.352-1.404.302-2.859.503-4.213-.352-.2-.654-.1-1.057-.15zm2.817 4.464c.1-1.405.252-2.759.352-4.113-.402-.2-.755-.2-1.258-.1.05 1.404-.352 2.808-.302 4.213.453.2.805.2 1.208 0zM45.066 94.23c.1-1.304.202-2.458.302-3.611-.453-.2-.855-.251-1.358-.1a9.763 9.763 0 0 0-.151 1.705c0 .602-.353 1.153-.05 1.755.402.1.754.15 1.257.25zm-3.925-16.25c-.1 1.304-.402 2.608-.352 3.912 0 .05.05.15.1.2.252.1.504.201.806.05.453-1.704.654-3.861.402-4.212-.251-.1-.503-.1-.956.05zm-1.811-.2c-.201.5-.201 1.002-.252 1.454-.05.451-.05.852-.1 1.304-.05.451-.252.903 0 1.404.302 0 .553.15.805-.15.251-1.304.251-2.658.453-3.962-.252-.201-.554-.15-.906-.05zm3.724 12.588c-.403-.25-.705-.25-1.057-.1-.352 1.605-.503 3.16-.302 3.41.201.05.453.15.654.2.05 0 .151-.05.302-.1.201-1.103.403-2.256.403-3.41zM37.317 77.83a79.973 79.973 0 0 0-.251 3.46c-.05.401.2.502.905.351.151-1.254.453-2.558.403-3.811-.352-.201-.654-.15-1.057 0zm5.737 23.07c-.101 1.003-.151 1.956-.252 2.91.453.2.855.1 1.308.1.1-1.054.151-2.007.252-2.96-.403-.2-.805-.2-1.308-.05zm1.61-2.858c.15-.953.402-1.856.251-2.709-.402-.3-.754-.35-1.207-.15-.302.852-.151 1.755-.252 2.658.403.05.705.1 1.208.2zm-7.75-8.276c-.704-.25-.804-.2-.905.401-.1.753-.201 1.505-.252 2.257 0 .251-.05.452 0 .702 0 .251.202.352.403.402.251.05.503-.1.553-.351.101-.652.151-1.355.252-2.007 0-.501.15-.952-.05-1.404zm5.183 11.134c-.251-.1-.352-.15-.452-.2-.554-.15-.705-.1-.806.4-.15.753-.301 1.506-.2 2.258 0 .05.05.15.1.25.302.1.654.201 1.006-.05.1-.852.252-1.755.352-2.658zm-2.163-10.833c-.151 1.103-.403 2.257-.302 3.41.352.151.604.201.906-.1 0-1.103.452-2.257.2-3.41-.25-.05-.502-.1-.804.1zm-1.359 3.36c.05-1.053.302-2.106.302-3.26 0-.15-.05-.35-.201-.4-.201-.101-.403-.051-.604.05-.252.35-.151.752-.201 1.153-.05.451-.05.852-.151 1.304-.1.401-.151.802-.05 1.103.352.251.553.251.905.05zm3.673 4.213c.252-.902.353-1.755.252-2.658 0-.05-.1-.1-.151-.2-.302-.05-.604-.15-1.006.1-.05.802-.101 1.655-.202 2.457.353.402.655.351 1.107.301zm-3.27 2.759c-.453.953-.353 1.956-.302 2.909.352.2.604.2.906-.05.15-.652.05-1.355.2-2.057.152-.702.051-.752-.804-.802zm-3.02-.2c-.251-.201-.553-.302-.905.05.05.902-.554 1.855-.151 2.858.704-.05.755-.1.805-.501.1-.753.151-1.555.252-2.408zm.252-3.11c.352-.803.252-1.605.302-2.408 0-.2-.15-.35-.352-.401-.252 0-.403.1-.453.3-.05.252-.15.553-.15.803-.051.452 0 .953-.152 1.405 0 .05.05.15.05.2.202.251.403.2.755.1zm1.711 3.31c-.704-.251-.855-.15-.956.3-.05.402-.151.753-.201 1.154-.05.401-.1.853 0 1.304.15.05.251.1.352.1.15 0 .302-.05.453-.25.201-.803.05-1.705.352-2.608zm22.442-89.425c-.402.05-.805.552-.755 1.054.05.4.503.802.956.752.403 0 .856-.502.856-1.003-.05-.401-.604-.853-1.057-.803zM38.173 97.09c.1-.803.15-1.555.2-2.307a.38.38 0 0 0-.1-.201c-.201-.1-.453-.1-.755.1-.05.753-.15 1.555-.2 2.357.25.201.452.15.855.05zm19.12-76.886c.101.35.252.602.554.802.302.2.654.1.805-.2.1-.15.202-.351.202-.552.05-.401-.302-.853-.705-.953-.252-.05-.503.1-.704.502-.101.15-.101.3-.151.4zm3.07-4.364c-.05-.15-.05-.2-.1-.3-.353-.452-.755-.602-1.108-.352-.402.301-.452.853-.15 1.254.15.2.301.452.654.452.452-.15.553-.602.704-1.054zM40.84 14.435c0-.351-.301-.752-.603-.752-.403-.05-.805.35-.755.702.05.351.453.752.805.702.252 0 .553-.351.553-.652zm-.805-3.56a.64.64 0 0 0 .453-.352c.202-.351.202-.652-.05-.853-.151-.15-.302-.25-.554-.2-.251.05-.503.401-.553.702 0 .351.352.702.704.702zm2.114 87.919c-.302-.15-.604-.25-1.007-.15-.1.35-.2.651 0 1.002 1.057.1 1.057.1 1.007-.852zm-2.114-80.597c-.05.05-.2.1-.251.15-.201.25-.151.502 0 .752.15.251.402.402.704.351.151 0 .252-.15.352-.3.101-.502-.2-.903-.805-.953zm4.479 80.747c-.503-.1-.856-.1-1.208-.05-.1.351-.201.602.05.853.353.1.755.15 1.158 0v-.803zm-5.334-.551c-.1.35-.201.652-.1.953.25.2.503.3.804.1.05-.351.252-.652.151-.953-.302-.2-.553-.25-.855-.1zm-1.308.953c.15-.402.302-.703.15-1.054-.2-.2-.452-.2-.754-.05-.201 1.003-.201 1.003.604 1.104zm10.365-75.683c-.251-.2-.604-.2-.905-.15-.202 0-.252.15-.252.351 0 .15.1.3.302.3.251 0 .503.051.704-.05.202 0 .252-.25.151-.45zM36.16 98.293c-.1-.05-.201-.151-.302-.151a.49.49 0 0 0-.453.05c-.15.702-.201.702 0 .853.151.1.352.15.554.05.2-.251.2-.502.2-.803zm15.297-74.379c-.202.05-.403 0-.403.301 0 .2.151.25.302.25h.453c.15 0 .201-.1.252-.2.05-.15-.05-.25-.151-.25-.151-.05-.302-.05-.453-.1zm-5.837-.401c-.252 0-.453 0-.453.3 0 .252.201.302.402.302.101 0 .252 0 .353-.05.1-.05.2-.1.2-.251 0-.15-.1-.2-.2-.25-.101-.051-.252-.051-.302-.051zm3.975.752c.201 0 .402-.05.402-.3 0-.201-.15-.251-.301-.251-.202-.05-.403 0-.453.25-.05.251.15.301.352.301zm-5.636-.25c.252-.05.302-.201.252-.402 0-.1-.1-.2-.151-.25-.151-.1-.302.1-.302.35-.05.151 0 .301.201.301zm1.61 75.932c.353-.2.504-.4.252-.802-.302.401-.302.401-.252.802z" fill="#010001"/><path d="M60.866 14.435c-.1 0-.15-.05-.251-.05-.654-.451-1.258-.351-1.912.05-.252.15-.453.401-.806.15-.1-.651.302-1.203.554-1.905.453.3.704.752 1.157 1.003.503.3 1.007.15 1.51.2-.1.15-.201.351-.252.552z" fill="#EBEBEA"/><path d="M37.468 67.498c.05 3.01-.453 5.968-.755 8.927-.15.401-.603.401-.805.602-.302.552-.352 1.103-.302 1.705 0 .702.05 1.455-.2 2.157-.102.351-.051.652.25.953.303.3.353.752.252 1.204a20.582 20.582 0 0 0-.352 2.959c-.05.702-.252 1.354-.252 2.006 0 .2-.1.401-.251.551-.352.301-.503.703-.453 1.204.05 1.104-.201 2.207-.302 3.36 0 .201-.1.402.1.552.303.25.303.552.252.903-.05.451-.05.903-.05 1.304 0 .602-.1 1.204-.755 1.505-.352.2-.453.652-.604 1.053.252.551.453 1.103.956 1.605-.1.852-.2 1.705-.301 2.608-.403.15-.906.3-1.258.702-.554.652-.453 1.655.402 2.006.554.25 1.107.451 1.711.502 2.063.1 4.076.4 6.088.652 1.208.15 2.416.2 3.573.4.352.05.705-.05 1.057-.1.553-.1.855-.652.704-1.203-.15-.602-.352-1.154-.905-1.405-.151-1.053.251-1.956.251-2.959.252-.25.503-.501.755-.702.805-.752.805-1.354 0-2.156-.1-.1-.252-.201-.403-.301.05-.552.101-1.104.101-1.655-.05-.703.15-1.254.906-1.505.15-1.103.352-2.157.503-3.26.15-1.204.15-1.254-.705-2.207.05-1.855 0-3.711.302-5.667.755-.401.856-1.154.956-1.956.202-1.104.202-2.207.504-3.31.15-.05.251-.1.352-.1 1.409.05 2.667-.502 3.874-1.204a4.09 4.09 0 0 0 1.862-2.257c.302-.803.654-1.555 1.208-2.207.302-.1.654-.25.956-.3.855-.202 1.61.1 2.013.902.301.702.603 1.404.553 2.207-.05 1.203.05 2.407-.201 3.61-.252 1.405-.755 2.709-1.41 3.963-.905 1.805-1.911 3.51-2.767 5.316-.704 1.404-1.006 2.91-.553 4.514.402 1.555 1.207 2.859 1.912 4.263.201.401.453.752.604 1.154.1.3.251.601.402.852 1.208 2.006 1.761 4.263 2.214 6.52.654 3.41.151 6.67-1.006 9.88a12.254 12.254 0 0 1-2.063 3.612c-.654.752-1.157 1.605-1.912 2.307-.1.1-.201.25-.352.35-1.711 1.305-3.422 2.659-5.334 3.712-.755.401-1.56.602-2.415.803-1.258.3-2.516.702-3.875.902a27.385 27.385 0 0 1-5.736.15c-1.61-.1-3.17-.45-4.73-.701-.403-.05-.805-.301-1.258-.452-1.308-.501-2.667-.902-3.875-1.655-1.308-.802-2.616-1.555-3.824-2.457-1.057-.803-1.912-1.906-2.717-3.01-.352-.45-.654-.902-.956-1.354-.755-1.003-1.308-2.106-1.812-3.26-.302-.752-.654-1.554-.855-2.357-.604-2.357-.604-4.765-.201-7.122.1-.551.2-1.103.302-1.655.603-2.658 1.962-4.865 3.522-7.021.604-.853 1.208-1.706 2.063-2.307 1.057-1.405 2.415-2.558 3.623-3.862 1.761-1.906 2.063-4.163 1.61-6.62-.302-1.756-.755-3.511-1.157-5.267a4.931 4.931 0 0 1-.151-1.203c0-2.007.654-3.762 1.811-5.367.604-.802 1.46-1.404 2.265-1.956 1.861-1.304 3.975-2.056 6.24-2.407.2-.1.452-.15.804.05zm-15.8 48.398c.151-.501.1-.852-.15-1.254-.454-.702-.806-1.454-1.208-2.206-.806-1.605-.956-3.36-1.208-5.066-.1-.602.15-1.204.201-1.755.1-1.053.352-2.057.705-3.01.2-.501.352-.952.503-1.454.05-.25.1-.451-.1-.652-.202-.1-.403-.1-.554.05-.453.351-.856.803-.956 1.354-.101.552-.302 1.054-.504 1.605-.1.301-.251.602-.251.903-.05 1.154-.403 2.307-.302 3.46 0 .201.05.452 0 .603-.352.752 0 1.504.15 2.206.303 1.505 1.058 2.809 1.863 4.113.251.351.453.752.805 1.053.251.15.553.2 1.006.05zm6.19-39.922c.754-.1 1.207-.25 1.408-1.003.151-.552.453-1.104.906-1.505.604-.552 1.157-1.204 1.862-1.655.402-.25.704-.652 1.056-.953.101-.1.151-.25.202-.401.05-.2-.151-.451-.302-.401-.151.05-.302.05-.453.15-.855.401-1.61 1.053-2.365 1.605-1.107.803-1.71 1.856-2.264 3.01-.151.3-.151.651-.05 1.153zm6.44-5.818c.302-.05.554-.1.755-.2.05 0 .15-.05.201-.1.151-.151.252-.302.201-.502-.05-.251-.251-.301-.452-.301-.151 0-.302 0-.453.05-.453.05-.504.401-.252 1.053zM20.964 99.847c.453-.2.754-.552.956-.903.05-.15.05-.3-.05-.451-.152-.15-.302-.1-.453-.05-.252.1-.453.3-.604.551-.1.251-.1.502.15.853zM43.708 22.46c.2-5.216-.252-10.332-.05-15.448 1.207-.602 2.264-1.404 3.421-2.056.503-.3 1.057-.552 1.71-.25.303.15.554.35.705.651.151.251.352.452.604.502.403-.05.705-.351 1.006-.602.806-.752 1.812-.702 2.617-.05.252.2.503.401.704.652.755.652 1.51 1.304 2.315 2.006L52.06 22.76c-2.767-.1-5.484-.201-8.352-.301z" fill="#DD002B"/><path d="M59.659 73.416c1.61.702 2.214 1.956 2.163 3.51v.954c.1 2.206-.453 4.263-1.459 6.219-.956 1.906-1.962 3.862-3.02 5.717-.502.953-.452 2.006-.804 2.96.201.852.302 1.705.704 2.507.403.853.805 1.755 1.258 2.558.654 1.103 1.158 2.257 1.711 3.41.705 1.505 1.258 3.11 1.56 4.765.15.702.302 1.404.403 2.106.15 1.104.2 2.257 0 3.36-.101.803-.202 1.656-.353 2.458a26.692 26.692 0 0 1-1.459 4.414c-.302.752-.755 1.504-1.359 2.106-.15.15-.301.301-.402.452-.956 1.404-2.214 2.507-3.573 3.51-1.157.903-2.415 1.706-3.673 2.458-.654.401-1.409.602-2.113.752-1.208.251-2.365.753-3.623.903-.1 0-.252.1-.352.1-1.46.1-2.97.201-4.429.251-.603.05-1.157-.1-1.76-.05-.554.05-1.158-.15-1.812-.2.251-.302.453-.201.654-.201 2.264.05 4.478-.1 6.642-.652.403-.1.805-.05 1.208-.15a16.733 16.733 0 0 0 6.893-3.21c.755-.552 1.359-1.254 2.063-1.806 1.762-1.404 2.869-3.31 4.076-5.166.654-1.003.956-2.207 1.258-3.36.302-1.053.453-2.157.554-3.31.1-.853.15-1.756.2-2.608.102-1.706-.452-3.31-.804-4.915-.151-.803-.503-1.505-.856-2.207-.603-1.154-1.107-2.307-1.66-3.46-.453-.954-1.057-1.756-1.409-2.76-.151-.4-.302-.802-.503-1.203-.654-1.655-.503-3.26.15-4.915.152-.351.353-.602.554-.953.453-.752.906-1.505 1.208-2.307.453-1.053 1.057-2.056 1.51-3.11.352-.852.805-1.655.855-2.608 0-.451.15-.953.251-1.404.302-1.053.151-2.056.151-3.11.101-.601-.352-1.053-.603-1.805z" fill="#930119"/><path d="M56.992 11.225c.15.251.302.452.503.753-.302.852-.403 1.855-1.057 2.608-.15.15-.15.35-.15.551.1 1.354-.554 2.558-.957 3.812-.1.3-.201.602-.251.903-.202 1.053-.403 2.106-.755 3.11-.403 1.353-.604 2.708-.755 4.112-.15 1.304-.1 2.608-.352 3.912-.151.903-.201 1.805-.302 2.708-.151.903-.252 1.806-.403 2.708 0 .15-.05.301-.05.452-.1 1.153-.05 2.307-.302 3.46-.251 1.204-.15 2.458-.402 3.662-.202 1.053-.403 2.106-.302 3.21.05.752-.252 1.404-.252 2.156 0 .652.1 1.354-.201 2.006-.05.05 0 .15 0 .251.1 1.705-.252 3.36-.302 5.015-.05 1.204-.252 2.358-.352 3.561 0 .05-.05.1-.05.1.05 1.104-.252 2.207-.252 3.361 0 .853 0 1.705-.352 2.458-.05.15-.101.3-.101.45.1 1.305-.252 2.559-.252 3.813-.05 1.454-.251 2.959-.402 4.413-.1.803-.05 1.605-.1 2.357-.202.301-.454.251-.655.251-.554-.05-.704-.2-.604-.752.05-.15.05-.301.1-.452.101-1.404.051-2.808.303-4.162.201-1.204.1-2.408.352-3.561.201-.903.15-1.906.302-2.859.201-1.354.201-2.758.453-4.163v-.35c-.1-1.305.201-2.559.352-3.813.201-1.755.352-3.46.604-5.216.15-1.153.352-2.307.302-3.46-.05-.752.302-1.404.251-2.157 0-.652 0-1.354.151-2.006.151-.702.202-1.505.252-2.257.1-1.304.352-2.608.453-3.912.1-1.103.251-2.207.352-3.31.05-1.053.252-2.106.402-3.21 0-.15.05-.3.05-.501.152-1.906.504-3.812.655-5.668.15-2.056.906-3.962 1.409-5.918.05-.2.1-.401.201-.552.805-1.404.956-3.009 1.409-4.564.352-1.103.704-2.206 1.107-3.26-.1 0-.05 0-.05-.05z" fill="#930019"/><path d="M46.978 25.268c.403-.1.755-.15 1.007.05.05.1.1.15.05.251-.302 1.053-.15 2.157-.352 3.21-.201.953-.201 2.006-.302 2.96a209.584 209.584 0 0 1-.654 5.566c-.05.251-.05.452-.1.702-.051 1.455-.252 2.96-.454 4.414-.15 1.003-.201 2.056-.302 3.11-.1 1.103-.251 2.206-.402 3.31-.1.852-.1 1.655-.252 2.507-.201 1.054-.15 2.157-.352 3.21-.201 1.204-.151 2.458-.403 3.712-.15.752-.1 1.504-.251 2.256-.151 1.054-.201 2.157-.302 3.21-.1 1.054-.252 2.057-.403 3.06-.1.752-.1 1.504-.251 2.257-.201 1.003-.151 2.056-.302 3.11-.252 1.554-.151 3.109-.554 4.613-.805.05-.905 0-.855-.652.05-1.003.1-2.006.302-2.959.201-1.053.251-2.156.352-3.21.151-1.203.352-2.357.352-3.56 0-.653.151-1.355.202-2.007.2-1.956.452-3.862.654-5.818.1-1.053.201-2.056.302-3.11.1-1.153.302-2.306.402-3.46.1-.852.151-1.755.252-2.608.201-1.805.352-3.66.553-5.466.202-1.656.353-3.31.503-5.016.202-2.056.453-4.112.705-6.169.201-1.705.352-3.41.503-5.115.1-.803.201-1.555.352-2.358zm2.114.05c.352-.1.553.1.805.201l-.604 5.567c-.1 1.053-.151 2.157-.302 3.21-.252 1.856-.302 3.711-.604 5.567-.15.953-.201 1.906-.251 2.859-.101 1.404-.302 2.758-.453 4.163-.151 1.053-.201 2.156-.302 3.21a51.73 51.73 0 0 1-.453 3.911c-.15 1.004-.201 2.007-.302 2.96-.1 1.203-.15 2.407-.302 3.56-.1.652-.1 1.355-.251 2.007-.302 1.755-.252 3.51-.604 5.216-.05.3-.05.652-.05.953-.05 1.253-.252 2.457-.403 3.66-.05.402-.05.803-.1 1.204-.101 1.004-.202 2.057-.303 3.06-.352.2-.654.15-.956.05-.05-.1-.1-.2-.1-.3.1-.854.201-1.756.302-2.609.1-1.053.251-2.157.352-3.21l.453-3.912c.1-.852.15-1.655.251-2.507.252-1.956.353-3.912.554-5.818.201-1.756.503-3.46.604-5.216.1-1.054.251-2.157.302-3.21.05-.652.15-1.354.251-2.006.252-1.956.302-3.962.654-5.969.151-.802.1-1.655.252-2.507.201-1.054.201-2.157.302-3.21.1-1.104.302-2.207.402-3.31.1-.853.1-1.655.252-2.508.15-1.003.201-2.056.302-3.11.1-.551.201-1.253.302-1.956z" fill="#816F5B"/><path d="M45.922 25.118c0 .852.05 1.605-.151 2.357-.05.25-.1.451-.1.702a24.61 24.61 0 0 1-.454 3.812c-.1.752-.1 1.505-.201 2.257-.201 1.153-.252 2.307-.302 3.46-.05.903-.201 1.756-.302 2.608-.201 1.355-.201 2.709-.402 4.063-.202 1.053-.302 2.106-.403 3.21 0 .2-.05.401-.05.602-.05 1.454-.252 2.959-.453 4.413-.1.803-.1 1.655-.252 2.508-.201 1.053-.15 2.156-.352 3.21-.201 1.153-.151 2.307-.403 3.46-.15.803-.15 1.655-.251 2.508-.252 1.806-.352 3.661-.554 5.467-.2 1.855-.453 3.711-.654 5.567-.05.451-.05.852-.05 1.254-.252.3-.503.25-.805.15-.05-.05-.151-.15-.151-.2 0-.652 0-1.254.15-1.906.202-.702.152-1.505.252-2.257.252-1.856.353-3.762.554-5.617.201-1.605.352-3.26.503-4.865.151-1.555.352-3.11.503-4.615l.453-4.513c.201-1.605.352-3.16.503-4.765.151-1.755.504-3.46.604-5.216.1-1.103.302-2.207.302-3.36.05-1.254.252-2.558.403-3.812.1-.752.1-1.505.2-2.257.202-1.053.202-2.157.303-3.21.15-1.504.302-3.009.503-4.514.15-.501.252-.551 1.057-.501z" fill="#756354"/><path d="M43.909 25.018c.05.2.05.3.05.45-.15 1.405-.302 2.86-.453 4.264-.1.802-.15 1.605-.2 2.357-.102 1.204-.353 2.357-.303 3.561 0 .702-.201 1.354-.251 2.006-.151 1.906-.453 3.812-.655 5.718-.1.802-.1 1.605-.2 2.407-.202 1.104-.202 2.207-.303 3.36-.05.653-.1 1.355-.251 2.007-.252 1.153-.101 2.307-.403 3.46-.05.251-.05.502-.05.702a23.904 23.904 0 0 1-.453 3.812c-.05.15-.05.301-.05.502-.05 1.404-.302 2.758-.403 4.162-.1 1.004-.252 2.007-.302 2.96-.1 1.354-.201 2.708-.453 4.062a30.998 30.998 0 0 0-.302 3.11c-.05.902-.15 1.805-.352 2.758-.251-.05-.453-.1-.755-.15.05-.552.05-1.104.151-1.656.101-1.003.252-2.056.403-3.059.05-.25.05-.501.05-.702.05-1.404.252-2.759.453-4.163.1-.802.201-1.655.252-2.508.15-1.805.503-3.56.553-5.366.05-1.605.252-3.16.453-4.765.201-1.805.302-3.56.503-5.366.201-1.806.302-3.661.604-5.467.151-1.003.201-2.006.302-2.959.1-.903.252-1.805.352-2.708.1-1.003.201-2.006.352-2.96.151-1.002.302-1.955.403-2.958.1-.753.15-1.505.252-2.257.2-1.254.553-2.508.553-3.762.05-.35.151-.602.453-.852z" fill="#746354"/><path d="M45.62 77.027c.15-1.354.251-2.608.402-3.862.05-.3.1-.551.1-.852.051-1.355.253-2.709.454-4.063.15-.852.201-1.755.251-2.608.101-1.254.252-2.558.353-3.812.1-1.103.15-2.206.352-3.31.201-.953.251-1.906.302-2.858.1-1.304.251-2.608.402-3.912.05-.352.05-.703.05-1.104.152-1.153.252-2.307.403-3.46.1-.853.1-1.756.252-2.608.201-.953.201-2.007.302-2.96.15-1.404.251-2.758.453-4.162.15-.953.15-1.906.301-2.86.151-1.153.101-2.306.302-3.46.202-1.003.151-2.006.353-2.959.15-.652.1-1.354.15-2.056.05-.652.252-.702 1.057-.401-.15 1.304-.302 2.558-.553 3.862-.151.802-.202 1.604-.302 2.357-.252 1.855-.453 3.711-.705 5.567-.1.702-.1 1.454-.2 2.156-.152 1.004-.202 2.057-.303 3.11-.15 1.254-.302 2.558-.453 3.812-.1.902-.15 1.805-.251 2.758-.1 1.104-.252 2.207-.353 3.31-.15 2.057-.452 4.113-.654 6.17-.1 1.203-.15 2.407-.302 3.56-.2 1.354-.15 2.708-.402 4.063-.151.852-.1 1.755-.252 2.608-.201 1.304-.201 2.608-.302 3.962-.1 1.203-.251 2.407-.251 3.61 0 .452-.151.502-.956.402z" fill="#806E5A"/><path d="M45.368 105.715c-.503.25-.906.301-1.358.25-1.913-.35-3.925-.35-5.837-.701-.906-.15-1.862-.1-2.768-.1a4.335 4.335 0 0 1-1.962-.452c-.151-.05-.252-.15-.353-.3-.2-.302 0-.703.353-.703h.352c1.308.351 2.717.25 4.076.401 1.409.1 2.767.351 4.176.502.856.1 1.66.2 2.516.3.352 0 .705.251.805.803z" fill="#CBCACA"/><path d="M44.311 89.465c-.1-1.003.252-4.815.554-5.868.05 0 .1-.05.1-.05.252.05.554.15.856.2.05.101.1.201.1.302.051 1.454-.25 2.858-.301 4.313 0 .35-.151.702-.252 1.003-.352.2-.654.05-1.057.1z" fill="#D2022A"/><path d="M43.204 89.164c-.503.15-.805.1-1.056 0-.202-.15-.151-.35-.151-.501.1-1.104.251-2.207.352-3.31.05-.452.1-.853.1-1.304.101-.853.303-.953 1.208-.452.151 1.806-.453 3.611-.453 5.567z" fill="#D4022B"/><path d="M40.085 88.914c-.05-1.956.352-3.812.503-5.568.352-.25.604-.2.855-.05.05.05.1.15.1.2.102 1.054-.2 2.057-.351 3.06-.05.602-.151 1.204-.202 1.756 0 .551-.05.602-.905.602z" fill="#D3032B"/><path d="M37.116 82.594c.201.1.402.15.604.2 0 .452.05.904 0 1.355a109.18 109.18 0 0 0-.503 4.012c0 .1-.05.251-.101.351-.05.1-.201.15-.302.2-.15.051-.302-.05-.403-.2-.2-.25-.15-.551-.1-.802.15-.853.201-1.756.302-2.608.05-.452.1-.853.15-1.304-.05-.401-.05-.803.353-1.204z" fill="#D2032B"/><path d="M38.726 83.096c.352-.15.554-.1.755-.05.352.45.05 1.003.1 1.504.05.502-.251.903-.251 1.404 0 .502-.1 1.004-.201 1.555-.05.452.1.953-.252 1.354-.302.15-.503 0-.755-.2.151-1.856.403-3.712.604-5.567z" fill="#CB042A"/><path d="M43.305 77.93c.403 0 .705-.05 1.107.15-.201 1.354-.15 2.809-.503 4.213-.151.05-.302.1-.453.1-.201 0-.402-.05-.553-.15-.151-.702.15-3.41.402-4.313z" fill="#C6C4C4"/><path d="M46.123 82.394c-.453.15-.805.15-1.208 0-.05-1.405.302-2.81.302-4.213.503-.1.856-.1 1.258.1-.1 1.404-.201 2.758-.352 4.113zM45.066 94.23c-.503-.1-.855-.15-1.207-.25-.302-.603.05-1.205.05-1.756 0-.602.05-1.154.15-1.706.504-.15.907-.1 1.36.1-.101 1.154-.202 2.308-.353 3.612z" fill="#C7C5C5"/><path d="M41.141 77.98c.403-.15.705-.15.956-.05.252.3.05 2.508-.402 4.213-.252.15-.503.05-.805-.05a.38.38 0 0 1-.1-.201c-.051-1.304.25-2.558.351-3.912z" fill="#C4C1C2"/><path d="M39.33 77.78c.352-.1.604-.151.906.1-.202 1.304-.151 2.658-.453 3.962-.252.3-.503.15-.805.15-.252-.501-.05-.953 0-1.404.05-.451.05-.853.1-1.304.101-.502.05-1.003.252-1.505z" fill="#C0BEBE"/><path d="M43.054 90.368c0 1.154-.151 2.307-.353 3.46-.15.05-.251.1-.302.1-.251-.05-.453-.15-.654-.2-.201-.3-.05-1.805.302-3.41.252-.2.604-.2 1.007.05z" fill="#C6C3C3"/><path d="M37.317 77.83c.453-.15.705-.201 1.007 0 .05 1.253-.252 2.557-.403 3.811-.704.1-.906.05-.906-.35l.302-3.461z" fill="#BDBABA"/><path d="M43.054 100.9c.503-.15.855-.15 1.308.05-.1.953-.151 1.906-.252 2.96-.453 0-.855.1-1.308-.1.1-1.004.201-1.907.252-2.91z" fill="#D7032B"/><path d="M44.664 98.042c-.453-.1-.805-.15-1.258-.201.1-.903-.05-1.806.251-2.658.453-.15.856-.1 1.208.15.201.853-.05 1.756-.201 2.709z" fill="#D0042A"/><path d="M36.915 89.766c.15.452.05.953 0 1.404-.05.652-.151 1.355-.252 2.007a.464.464 0 0 1-.553.35c-.202-.05-.353-.15-.403-.4v-.703c.1-.752.151-1.504.252-2.257.15-.601.302-.652.956-.4z" fill="#B6B2B2"/><path d="M42.097 100.9c-.1.903-.251 1.806-.352 2.658-.352.201-.704.1-1.006.05-.05-.1-.1-.15-.1-.25-.101-.752.05-1.505.2-2.257.101-.451.252-.552.806-.401.1.05.2.1.452.2z" fill="#C40629"/><path d="M39.934 90.067c.302-.2.503-.15.805-.05.251 1.153-.252 2.307-.201 3.41-.302.251-.604.251-.906.1-.1-1.203.201-2.357.302-3.46z" fill="#C4C1C1"/><path d="M38.575 93.427c-.352.15-.553.15-.855-.05-.1-.35-.05-.752.05-1.103.1-.452.1-.853.151-1.304.05-.401-.05-.803.201-1.154.202-.1.403-.15.604-.05.151.1.201.25.201.401-.05 1.154-.302 2.207-.352 3.26z" fill="#BDB8B9"/><path d="M42.248 97.64c-.402 0-.754.1-1.056-.25.05-.803.1-1.656.201-2.458.403-.25.704-.15 1.006-.1.05.05.151.15.151.2.05.853-.05 1.706-.302 2.608z" fill="#D2052B"/><path d="M38.978 100.399c.855.05.956.1.805.752-.201.702-.05 1.404-.201 2.056-.302.251-.554.251-.906.05-.05-.902-.151-1.905.302-2.858z" fill="#C5072A"/><path d="M35.959 100.198c-.05.803-.151 1.605-.202 2.408-.05.4-.15.45-.805.501-.402-1.003.202-1.956.151-2.859.302-.3.604-.25.856-.05z" fill="#CC082B"/><path d="M36.21 97.089c-.352.1-.553.15-.755 0-.05-.05-.1-.15-.05-.201.151-.451.1-.953.151-1.404.05-.251.1-.552.151-.803.05-.2.201-.35.453-.3.251 0 .352.15.352.4-.05.703.05 1.505-.302 2.308z" fill="#C9072A"/><path d="M37.921 100.399c-.252.903-.15 1.805-.302 2.558-.15.25-.302.3-.453.25-.1 0-.201-.05-.352-.1-.15-.451-.05-.853 0-1.304.05-.401.1-.802.201-1.153 0-.452.151-.502.906-.251z" fill="#D1072C"/><path d="M60.363 10.974c.453-.05 1.006.402 1.006.803 0 .501-.402 1.003-.855 1.003-.453 0-.906-.351-.956-.752 0-.502.352-1.054.805-1.054z" fill="#83CFD3"/><path d="M38.173 97.089c-.353.1-.604.15-.856-.05.05-.803.151-1.605.201-2.358.302-.2.554-.2.755-.1.05.05.1.15.1.2-.05.803-.15 1.505-.2 2.308z" fill="#D2062B"/><path d="M56.992 11.225c-.1-.903.453-1.655.553-2.507.05-.201.1-.452.403-.552.201 0 .251.15.302.3.05.803-.151 1.556-.504 2.308-.15.3-.402.451-.754.451z" fill="#850218"/><path d="M57.294 20.203c.05-.1.1-.251.15-.401.202-.402.453-.552.705-.502.403.1.805.602.705.953-.05.2-.101.401-.202.552-.15.3-.503.4-.805.2-.302-.2-.453-.451-.553-.802z" fill="#7CC1C4"/><path d="M60.363 15.84c-.15.45-.252.902-.704 1.103-.353 0-.504-.251-.655-.452-.301-.4-.2-.953.151-1.253.302-.251.705-.15 1.107.35.05 0 .05.1.101.251z" fill="#7DC3C7"/><path d="M40.135 96.988c0 .05 0 .15-.05.2-.252 0-.503.051-.755-.25v-1.454c.1-.803.302-.903.956-.452-.151.1-.201.2-.201.402.05.501.05 1.003.05 1.554z" fill="#DE042C"/><path d="M40.84 14.435c0 .301-.302.652-.554.652-.352 0-.805-.351-.805-.702-.05-.351.402-.752.755-.702.302.05.603.451.603.752z" fill="#7DC4C7"/><path d="M40.034 10.874c-.302.05-.704-.35-.654-.702 0-.3.302-.652.554-.702.201-.05.402.05.553.2.252.201.252.552.05.853-.15.2-.301.301-.503.351z" fill="#83CDD1"/><path d="M42.148 98.794c.05.953.05.953-.956.852-.202-.3-.151-.652 0-1.003.302-.05.654 0 .956.15z" fill="#C9C4C5"/><path d="M40.034 18.197c.655.1.956.501.755 1.003-.05.15-.15.3-.352.3-.302.05-.503-.1-.705-.35-.15-.251-.251-.502 0-.753.101-.15.202-.2.302-.2z" fill="#7BC0C3"/><path d="M44.513 98.944v.803c-.403.15-.805.1-1.158 0-.251-.251-.2-.502-.05-.853.352-.05.755 0 1.208.05z" fill="#BEB6B7"/><path d="M39.179 98.393c.352-.1.553-.05.805.1.151.3-.05.652-.15.953-.303.15-.554.05-.806-.1-.05-.301.05-.602.151-.953z" fill="#CDCCCC"/><path d="M37.87 99.346c-.804-.1-.804-.1-.603-1.154.251-.15.503-.15.755.05.2.401 0 .702-.151 1.104z" fill="#ABA1A2"/><path d="M48.236 23.663c.1.201.05.452-.15.502-.202.05-.454.05-.705.05-.201 0-.302-.15-.302-.3 0-.151.1-.302.252-.352.301-.1.654-.15.905.1z" fill="#A7957A"/><path d="M36.16 98.292c0 .301 0 .602-.201.803-.202.1-.403.1-.554-.05-.201-.15-.15-.201 0-.853a.49.49 0 0 1 .453-.05c.1 0 .201.1.302.15z" fill="#C6BEC0"/><path d="M39.33 95.484v1.454c.252.351.503.25.755.25-.202.452-.503.151-.856.202-.1-.652-.251-1.304.1-1.906z" fill="#751221"/><path d="M51.457 23.914c.15.05.302.05.453.1.1.05.2.15.15.251-.05.1-.1.2-.251.2h-.453c-.15 0-.302-.1-.302-.25 0-.3.201-.25.403-.3z" fill="#C3AE8F"/><path d="M45.62 23.513c.1 0 .201 0 .302.05.1.05.2.1.2.25 0 .151-.1.201-.2.252-.101.05-.252.05-.353.05-.2 0-.402-.05-.402-.301 0-.301.201-.301.453-.301z" fill="#D0BA99"/><path d="M40.135 96.988v-1.605c0-.15.05-.3.201-.4v1.554c0 .2-.05.3-.201.451z" fill="#751221"/><path d="M49.595 24.265c-.201 0-.403-.05-.352-.35.05-.252.251-.252.453-.252.15 0 .301.05.301.251 0 .301-.15.351-.402.351z" fill="#D6BF9D"/><path d="M43.96 24.014c-.202 0-.252-.15-.252-.3 0-.251.2-.452.302-.352.1.05.15.15.15.251.101.2.05.401-.2.401z" fill="#9E8D74"/><path d="M45.57 99.947c-.05-.4-.05-.4.251-.802.252.401.1.652-.252.802z" fill="#795C60"/><path d="M21.668 115.896c-.453.15-.755.1-1.006-.15-.352-.301-.554-.652-.805-1.053-.805-1.254-1.56-2.608-1.862-4.113-.151-.702-.503-1.454-.151-2.207.1-.15.05-.401 0-.602-.151-1.153.201-2.307.302-3.46 0-.301.15-.602.251-.903.202-.502.403-1.053.504-1.605.1-.552.503-1.003.956-1.354.15-.15.352-.15.553-.05.201.2.151.451.1.652-.15.501-.301 1.003-.502 1.454a11.937 11.937 0 0 0-.705 3.01c-.05.601-.302 1.153-.201 1.755.252 1.755.402 3.46 1.208 5.065.352.753.704 1.505 1.207 2.207.252.452.252.853.151 1.354z" fill="#E86A4D"/><path d="M27.857 75.974c-.1-.502-.1-.903.05-1.254.554-1.154 1.158-2.207 2.265-3.01.755-.55 1.51-1.203 2.365-1.604l.453-.15c.201-.05.402.25.302.4-.05.151-.1.302-.202.402-.352.35-.654.702-1.056.953-.705.451-1.258 1.103-1.862 1.655-.453.401-.755.953-.906 1.504-.15.853-.654 1.004-1.409 1.104z" fill="#E7684D"/><path d="M34.298 70.156c-.302-.652-.201-1.003.252-1.103.15-.05.302-.05.453-.05.2 0 .402.05.452.3a.478.478 0 0 1-.2.502.388.388 0 0 1-.202.1c-.201.1-.453.15-.755.251z" fill="#E65A48"/><path d="M20.964 99.847c-.252-.351-.252-.602-.151-.853a.95.95 0 0 1 .604-.551.49.49 0 0 1 .452.05c.151.15.151.3.05.451a2.095 2.095 0 0 1-.955.903z" fill="#E7634B"/><path d="M45.77 15.087c.655 1.204 1.712 1.655 2.97 1.705 1.207.05 2.214-.451 2.918-1.404.302.05.302.25.252.451-.05.452-.353.753-.705 1.003-.654.452-1.359.703-2.164.703-1.358.05-2.465-.452-3.421-1.405-.151-.15-.202-.3-.302-.451 0-.2.05-.351.453-.602z" fill="#0B0B0B"/><path d="M46.274 11.476c-.403 0-.805-.351-.805-.652 0-.451.553-1.003 1.006-.953.352 0 .604.351.604.702-.05.452-.453.903-.805.903z" fill="#101010"/><path d="M52.564 11.175c-.05.451-.554.903-.956.853-.403-.05-.755-.351-.705-.753.05-.551.453-.902.906-.852.402.05.755.401.755.752z" fill="#080808"/></g></svg>