<svg width="120" height="120" viewBox="0 0 120 120" xmlns="http://www.w3.org/2000/svg" xmlns:xlink="http://www.w3.org/1999/xlink"><defs><path id="a" d="M0 2.234h109.76V112H0z"/></defs><g fill="none" fill-rule="evenodd"><g transform="translate(4 5.766)"><mask id="b" fill="#fff"><use xlink:href="#a"/></mask><path d="M109.76 57.114c0 30.32-24.569 54.888-54.88 54.888C24.574 112.002 0 87.434 0 57.114 0 26.81 24.574 2.234 54.88 2.234c30.311 0 54.88 24.576 54.88 54.88" fill="#E2DECC" mask="url(#b)"/></g><path d="M105.142 62.88c0 25.551-20.712 46.271-46.264 46.271-25.552 0-46.256-20.72-46.256-46.272 0-25.544 20.704-46.264 46.256-46.264s46.264 20.72 46.264 46.264" fill="#F7F3ED"/><path d="M48.048 46.469c0 3.6-2.912 6.512-6.504 6.512-3.6 0-6.52-2.912-6.52-6.512 0-3.6 2.92-6.504 6.52-6.504a6.499 6.499 0 0 1 6.504 6.504M36.595 75.114c0 3.6-2.912 6.512-6.504 6.512a6.502 6.502 0 0 1-6.512-6.512 6.5 6.5 0 0 1 6.512-6.504 6.504 6.504 0 0 1 6.504 6.504M67.502 90.96a6.513 6.513 0 1 1-6.512-6.511 6.518 6.518 0 0 1 6.512 6.512m2.382-26.984a6.518 6.518 0 0 1-6.512 6.512 6.513 6.513 0 1 1 6.512-6.512m8.485-26.595c0 3.6-2.912 6.512-6.512 6.512a6.507 6.507 0 0 1-6.512-6.512c0-3.6 2.912-6.512 6.512-6.512 3.6 0 6.512 2.912 6.512 6.512M94.86 70.488A6.518 6.518 0 0 1 88.35 77a6.514 6.514 0 0 1-6.52-6.512 6.51 6.51 0 0 1 6.52-6.512 6.513 6.513 0 0 1 6.512 6.512" fill="#E2DECC"/></g></svg>