<svg width="143" height="112" viewBox="0 0 143 112" xmlns="http://www.w3.org/2000/svg"><g fill="none"><path d="M44.499 73.178c3.354 6.351-1.598 7.397 1.198 9.647 3.114 2.493 8.865 8.12 4.392 7.799-4.472-.402-6.07-2.975-8.386-4.744-1.437-1.045-2.875-4.18-3.753-5.868-.799-1.528-4.073-8.763-5.351-10.13 0-.08 8.625-3.055 11.9 3.296zm50.555-3.858c1.916 7.315 2.396 9.807 5.51 11.656 3.435 2.01 6.869 4.744 2.396 4.985-4.472.321-6.389-1.608-9.024-3.055-1.598-.884-2.317-1.286-3.435-2.814-1.038-1.447-6.389-10.933-7.827-12.14.08 0 10.463-5.948 12.38 1.368z" fill="#C9B59B"/><path d="M48.013 83.71c-3.035-1.045-4.473-1.447-6.39 1.608-2.156 3.376-10.302 10.13-10.302 5.547-.08-4.502 2.396-6.351 3.913-8.843.959-1.528.959-2.332 2.556-3.377 1.438-.965 8.066-11.094 12.459-7.235 4.393 3.859-2.236 12.3-2.236 12.3zm56.864-10.21c-6.788 8.04-6.948 7.396-9.823 10.933-2.476 3.055-8.786 7.477-8.306 4.18.559-3.456 1.996-7.637 3.434-10.21.878-1.527.559-7.315.719-9.244 1.038-13.828 14.935-5.869 14.455-.804l-.479 5.145z" fill="#DBCCB6"/><path d="M111.346 74.786c.32-.402.72-.884 1.039-1.366-.56-.322-3.994-5.467-7.029-8.924a21.435 21.435 0 0 0 1.438-7.798c0-16.641-18.928-30.147-42.329-30.147-23.4 0-42.329 13.506-42.329 30.147 0 15.757 17.092 28.7 38.815 29.986-.24.241-.4.563-.56.804.4.563.8 1.688 1.12 3.216h1.517c1.118-4.582 2.156-4.582 3.514-.16.479 0 .878-.081 1.277-.081.56-4.904 1.678-4.985 3.674-.322.32 0 .64-.08.959-.08-.08-1.769-.56-4.663.958-4.663 1.597 0 1.597 2.653 2.396 4.26.16 0 .48-.08.48-.08s-.48-4.18 1.197-4.18 2.157 3.618 2.157 3.618l.639-.08s-1.039-3.86.399-4.422c1.437-.563 3.035 3.778 3.035 3.778s.479-.08.639-.16c-2.316-5.708.32-7.236 3.594-.885a5.76 5.76 0 0 0 1.118-.322c-1.997-5.466.32-7.798 4.472-2.33.4-.162.799-.242 1.198-.403-2.955-3.135 1.518-5.868 5.032-1.206.4-.16.24-.08.639-.24-2.636-3.377 1.118-5.146 3.114-1.77l.72-.401c-2.716-2.895-.96-5.789 3.034-2.171l.719-.322c-3.913-3.778-3.195-4.421 3.354-3.296z" fill="#DBCCB6"/><g fill="#3E5360"><path d="M116.777 54.527c0-.321.08-.723.08-1.045-7.987-1.93-7.028-2.411.48-3.858 0-.402-.08-.804-.08-1.206-5.192-.483-8.067-.885-.32-2.573 0-.16-.08-.402-.08-.563-9.504-.321-9.504-1.447-1.118-4.26-.16-.402-.24-.724-.4-1.126-7.746.08-8.625-1.527-2.475-4.984-.32-.483-.56-.965-.879-1.447-7.906 1.045-8.386.964-2.476-3.296-.16-.242-.399-.483-.639-.724-7.986 2.733-8.785 2.17-2.156-2.25-.08-.081-.24-.242-.4-.322-6.468 2.813-7.666 1.366-3.433-2.895l-.959-.723c-5.51 3.135-6.31 3.135-1.757-1.206-.08-.08-.24-.16-.32-.241-5.67 3.859-6.708 2.733-3.114-1.93-.4-.24-.799-.482-1.278-.643-6.07 3.779-9.504 3.377-4.952-2.25-.24-.081-.399-.161-.639-.242-4.472 3.698-6.309 4.18-4.472-1.527-.4-.161-.879-.241-1.278-.402-3.833 4.984-4.472 4.34-2.875-.724-.24-.08-.56-.08-.799-.16-3.674 5.868-4.312 5.948-2.635-.483-.16 0-.4-.08-.56-.08-4.472 6.672-5.99 5.708-6.548-.724-.32 0-.64 0-.959-.08-1.837 6.592-2.316 6.753-1.917-.08H67.5c-2.396 7.637-3.754 7.235-5.032.08h-.559c-1.198 7.717-2.156 8.2-4.312.402-.16 0-.24 0-.4.08-1.198 7.235-1.916 6.673-5.67 1.045-.48.08-1.038.241-1.518.402.24 6.19.56 5.95-3.514 1.045a12.68 12.68 0 0 0-1.597.563c1.038 4.422-.32 5.145-3.913 1.527l-1.198.483c2.316 5.627 1.757 6.19-3.195 1.527-.16.08-.24.161-.4.161 4.154 6.351 3.595 6.673-2.076 1.126-.08.08-.16.08-.24.16 4.393 5.869 3.834 6.19-1.996 1.206-.16.08-.24.161-.4.241 3.834 4.744 3.195 5.145-2.395 1.528-.32.16-.56.402-.879.643 3.354 4.02 2.556 4.743-2.875 2.17-.24.242-.56.403-.799.644 4.872 4.582 3.994 5.386-3.194 2.894l-.56.563c5.75 4.502 4.872 5.466-3.274 3.537-.24.241-.4.482-.639.804 5.431 3.376 4.632 4.421-2.795 3.859l-.719 1.205c6.549 3.216 6.07 4.583-2.476 4.985-.16.321-.24.562-.32.884 7.588 2.412 7.268 2.653-1.197 3.778-.08.322-.16.724-.24 1.046 6.07.562 5.99 1.045-.4 2.17-.08.483-.08.965-.159 1.447 5.111.885 5.111 2.975.08 5.306.08.724.24 1.367.4 2.09 3.993.08 4.232.804.718 2.492.24.644.4 1.287.719 1.85 3.833-.242 4.153.482 1.038 2.33.24.564.56 1.046.879 1.528 4.472-.804 5.031 0 1.597 2.492.4.563.799 1.126 1.278 1.689 5.43-1.206 6.23-.241 2.555 2.974l.959.965c5.91-2.492 6.629-1.769 2.476 2.25.32.242.559.483.878.724 6.31-3.376 7.188-2.653 3.115 2.332.32.241.639.402.879.643 6.549-4.1 7.747-3.457 4.232 2.572l.959.483c5.59-4.583 6.549-3.859 3.833 1.768.24.08.56.242.799.322 4.792-5.306 5.99-4.582 3.275 1.206l.718.241c5.351-6.35 5.192-6.672 3.514.965.24.08.4.08.64.16 4.711-7.235 5.75-7.074 4.232.805h.24c3.993-8.28 4.712-7.316 4.712.401h.559c2.875-7.556 4.952-8.601 5.99-.24h.32c1.677-7.316 2.875-7.236 5.03-.885.4-.08.72-.16 1.119-.241 0 0-.879-4.422.719-5.065 1.597-.643 2.635 3.135 3.674 3.698l.718-.241c-.24-.884-1.038-2.894-1.198-3.698.16-1.608 1.837-.965 4.313.884.32-.08 1.118-.24 1.358-.402-3.354-4.26-3.993-6.431 1.677-3.296.4-.241.719-.402 1.118-.643-3.194-4.422-1.917-5.225 4.632-2.974.4-.242.32-.242.72-.483-3.754-2.733-2.956-5.627 2.156-1.366.399-.242.639-.483.958-.724-5.43-3.94-2.236-6.03 3.274-2.09.56-.402 1.039-.804 1.518-1.206-4.473-3.216-.958-6.673 4.712-3.377l.799-.562c-4.073-2.332-3.834-5.628-.08-4.502 3.753 1.125 4.472 1.768 4.792 1.768a25.92 25.92 0 0 0 1.278-1.849c-4.473-2.09-.4-1.849 5.111-2.25l.48-1.207c-6.07-.964-1.279-4.1 5.11-3.617.08-.16.08-.322.16-.483-7.267-1.849-5.91-3.215 2.476-3.698z"/><path d="M95.693 70.606c0 .08.399-.482 0 0z"/></g><g transform="translate(86.268 44.96)"><path d="M32.585 20.259c-2.955-2.894-3.274-5.226-4.552-8.924-.24-.562-.56-1.527-.879-2.17 0 0 .4-.161-1.517.402-3.914 1.206-14.536-3.538-17.57-1.85-.64.403-.8.322-1.119.805 2.077.562 3.914.884 3.914.884 0 .241.16.804.16.804-2.556.884-4.713 1.768-5.032 2.572 0 .242.08.483.08.643.958.885 6.07.322 6.07.322l.24.804s-5.112 2.17-4.074 3.135c1.118 1.045 3.514 1.206 5.59 1.769-.16.16-.319.965-.319.965s-3.274-.322-4.632.723c.4.724.719 1.447.958 2.01 2.636 5.627 13.178 8.441 26.516 5.306l2.476-1.528c-.08-4.743-3.674-4.02-6.31-6.672z" fill="#DBCCB6"/><ellipse fill="#3E5360" transform="rotate(-85.979 20.456 16.504)" cx="20.456" cy="16.504" rx="1.438" ry="1.447"/><path d="M22.362 7.235c-1.357-1.527-3.514-2.492-5.51-1.768-.799.24-.48 1.527.32 1.286 1.596-.563 3.194.241 4.232 1.447.56.563 1.517-.402.958-.965z" opacity=".6" fill="#C6A87B"/><path d="M35.3 25.886s1.358 2.412 2.716 2.332c1.358-.161 2.316-2.734 2.316-2.734-.16-1.366-1.278-1.93-2.715-1.768-1.358 0-2.476.723-2.316 2.17z" fill="#65746F"/><path d="M12.779 8.28C11.9 4.582 9.185-2.975 1.917 1.447c-6.07 3.778 7.827 9.728 10.862 6.833z" fill="#DBCCB6"/></g></g></svg>