<svg width="120" height="120" viewBox="0 0 120 120" xmlns="http://www.w3.org/2000/svg" xmlns:xlink="http://www.w3.org/1999/xlink"><defs><path id="a" d="M.106.438h84.295v65.037H.106z"/><path id="c" d="M0 .598h60.958v47.03H0z"/></defs><g fill="none" fill-rule="evenodd"><g transform="translate(35.258 25.18)"><mask id="b" fill="#fff"><use xlink:href="#a"/></mask><path d="M75.357 61.229a25.45 25.45 0 0 1-1.83.801c-.022.022-.063.022-.082.042-18.673 7.547-48.143.185-48.143.185s-5.882-.144-11.97-2.056v-.02c-8.78-2.736-17.951-9.172-10.466-24.145 4.791-8.225 11.988-7.32 11.988-7.32S9.2 11.874 23.944 3.997C38.67-3.9 57.528 1.94 57.178 15.637c11.907-1.44 16.966 6.52 15.61 14.746 6.498.678 21.078 21.942 2.57 30.847" fill="#74CC66" mask="url(#b)"/></g><path d="M104.177 58.133c-.513-14.047-17.562-9.934-17.562-9.934s6.088 6.17 4.38 11.64c-2.57-10.795-16.205-9.336-21.346-6.93.165-2.406 3.25-5.305 9.214-6.828-2.921-10.118-13.696-13.572-22.499-6.62-7.279 5.756-2.283 16.616-2.283 16.616s-3.763-.35-9.254 6.682c-2.97 4.02-4.78 8.275-4.475 12.221 10.78 9.543 29.56 17.719 41.122 4.232v6.17c11.532 1.646 25.698 4.602 34.053-3.799 5.773-8.675-.176-21.187-11.35-23.45" fill="#56BF49"/><path d="M83.276 83.582s-1.802-2.314-1.802-4.37C69.912 92.7 51.13 84.523 40.352 74.981c.306 3.951.506 7.803 6.216 11.47 5.71 3.668 14.39 1.856 14.39 1.856s29.071 6.493 47.744-1.054c.02-.02.06-.02.082-.042 3.075-1.477 5.278-3.43 6.743-5.627-8.355 8.4-27.54 5.673-32.251 1.998" fill="#42AA33"/><g transform="translate(0 46.83)"><mask id="d" fill="#fff"><use xlink:href="#c"/></mask><path d="M54.417 44.558c-.43.208-.863.4-1.323.58-.016.016-.045.016-.059.03-13.503 5.458-34.815.133-34.815.133s-4.254-.104-8.655-1.486V43.8c-6.35-1.978-12.982-6.633-7.569-17.46 3.465-5.947 8.67-5.293 8.67-5.293s-4.09-12.18 6.572-17.876c10.648-5.71 24.286-1.487 24.033 8.417 8.61-1.04 12.269 4.715 11.288 10.663 4.699.491 15.243 15.868 1.858 22.307" fill="#74CC66" mask="url(#d)"/></g><path d="M49.763 70.94c-.372-10.157-12.7-7.182-12.7-7.182s4.402 4.462 3.167 8.417c-1.859-7.808-11.718-6.751-15.437-5.012.12-1.74 2.35-3.837 6.663-4.938-2.112-7.317-9.903-9.814-16.269-4.788-5.264 4.163-1.651 12.017-1.651 12.017s-2.722-.253-6.693 4.832c-2.147 2.906-3.456 5.984-3.235 8.838 7.794 6.9 21.375 12.812 29.737 3.06v4.46c8.339 1.191 18.583 3.329 24.625-2.746 4.174-6.273-.127-15.321-8.207-16.958" fill="#56BF49"/><path d="M34.648 89.343s-1.303-1.672-1.303-3.16c-8.361 9.753-21.943 3.842-29.738-3.06.221 2.858 1.975 5.492 5.958 7.507.011.007 3.143.663 3.146.665 3.331 1.302 5.509.837 5.509.837s21.312 5.324 34.815-.133c.014-.015.043-.015.059-.031 2.224-1.067 3.817-2.481 4.875-4.07-6.04 6.074-19.914 4.104-23.321 1.445" fill="#42AA33"/></g></svg>