<svg width="191" height="86" viewBox="0 0 191 86" xmlns="http://www.w3.org/2000/svg" xmlns:xlink="http://www.w3.org/1999/xlink"><defs><path id="a" d="M.2.657h8.876v10.966H.201z"/></defs><g fill="none" fill-rule="evenodd"><path d="M91.893 32.845s.352 12.71-16.735 20.029c-17.177 7.356-20.343 9.385-21.34 11.065-1.057 1.782-.445 4.476.72 8.321l1.73 4.866s.524 1.865 2.387 1.399c5.687-1.422 7.185-1.462 7.727-.874 1.537 1.666.55 3.234-1.556 7.429H52.324s-.741.131-2.095-3.671c-1.353-3.802-7.073-19.752-7.073-19.752s-.524-1.005 0-2.316c.524-1.31 4.31-4.3 6.025-6.686 1.79-2.49 6.89-10.838 8.772-24.56" fill="#BB8E5D"/><path d="M91.894 32.845s.352 12.71-16.736 20.029c-17.177 7.356-20.343 9.385-21.34 11.065-1.056 1.782-.444 4.476.72 8.321l1.731 4.866s.523 1.865 2.386 1.399c5.687-1.422 7.185-1.462 7.728-.874 1.536 1.666.792 3.313-1.557 7.429h-12.5s-.743.131-2.096-3.671c-1.354-3.802-7.073-19.752-7.073-19.752s-.524-1.005 0-2.316c.524-1.31 4.31-4.3 6.025-6.686 1.79-2.49 6.89-10.838 8.77-24.56" stroke="#784E3D" stroke-width=".525"/><path d="M61.275 80.186s.124-.095.356-.237c.117-.07.26-.156.43-.24.171-.074.358-.209.593-.233.459-.092 1.007-.2 1.64-.093.306.057.668.197.903.509.115.148.198.332.233.496.043.137.074.303.096.48.073.67-.1 1.32-.347 1.86-.245.545-.559.994-.837 1.365-.073.09-.14.18-.2.266-.078.073-.163.132-.237.192l-.396.293c-.223.156-.357.236-.357.236l.204-.374.232-.424c.043-.082.083-.174.137-.26.066-.076.132-.158.2-.246.264-.352.558-.775.777-1.265.224-.484.363-1.044.304-1.582a2.264 2.264 0 0 0-.081-.406.779.779 0 0 0-.143-.31c-.125-.173-.346-.27-.586-.315-.49-.086-1.007 0-1.427.092-.206.074-.42.05-.6.08-.183.023-.343.042-.475.057l-.42.059" fill="#784E3D"/><path d="M137.72 37.142c2.969 5.419-2.489 13.503-2.489 13.503 3.188 4.37 5.326 11.447 9.518 20.495 4.018 8.675 7.421 13.94 7.421 13.94h11.57c2.27-3.962 3.263-5.914 2.448-6.904-.815-.99-2.171-.816-6.013.116-3.842.933-3.98-.714-4.366-1.282-.665-1.327-2.794-5.418-3.842-16.838-1.048-11.42 4.133-22.258 4.133-22.258s-.973-1.458-1.79-2.52c-7.073-9.191-18.571-1.868-16.59 1.748" fill="#BB8E5D"/><path d="M137.72 37.142c2.75 6.642-2.489 13.503-2.489 13.503 3.188 4.37 5.326 11.447 9.518 20.495 4.018 8.675 7.421 13.94 7.421 13.94h11.57c2.27-3.962 3.263-5.914 2.448-6.904-.815-.99-2.171-.816-6.013.116-3.842.933-3.98-.714-4.366-1.282-.665-1.327-2.794-5.418-3.842-16.838-1.048-11.42 4.133-22.258 4.133-22.258" stroke="#784E3D" stroke-width=".525"/><path d="M159.55 80.535s.132-.105.384-.261l.46-.272.29-.159c.105-.047.226-.061.345-.103.486-.136 1.06-.283 1.715-.321.327-.01.685-.006 1.058.16a.996.996 0 0 1 .471.435c.106.196.143.416.13.608-.005.214-.034.341-.05.515-.026.167-.054.34-.088.506-.073.33-.16.651-.279.953a5.29 5.29 0 0 1-.897 1.521c-.148.216-.353.348-.528.462a8.17 8.17 0 0 1-.455.284 6.106 6.106 0 0 1-.411.217l.285-.364c.09-.113.198-.252.313-.415.117-.163.223-.359.394-.52a4.76 4.76 0 0 0 .81-1.373c.108-.274.189-.569.256-.873.03-.153.054-.303.08-.46.014-.152.049-.35.047-.466.01-.276-.083-.455-.303-.557-.223-.102-.523-.123-.808-.109-.579.033-1.131.17-1.595.301-.118.028-.222.08-.331.103-.113.013-.219.027-.319.04l-.518.077-.457.071" fill="#784E3D"/><path d="M175.55 10.112s5.205 2.66 7.737 5.458l-.378-1.399s2.62.962 3.9 2.01c0 0-.64-4.05-4.017-6.73 0 0 .96-.087 1.95.525 0 0-8.017-7.753-15.367-7.778-5.356-.02-8.441 1.98-9.14 2.3-.698.322-3.172 1.69-5.035 1.603-1.863-.087-6.752-1.777-11.7.233 0 0 1.6.204 2.066.67 0 0-2.008-.262-6.345 2.069 0 0 2.241-.204 2.533.437 0 0-5.123 1.194-9.489 3.758 0 0 1.223-.292 2.212-.233-.143-.005-2.177 1.438-3.783 1.98-4.57 1.545-10.333 3.467-32.162.555-21.829-2.914-24.798-2.39-25.962-2.332-1.164.059-2.558.64-3.958 1.516-2.096 1.457-10.07 5.608-11.7 14.74-3.435 24.414 21.13 8.74 27.3 13.285 14.96 13.052 29.28 12.819 29.28 12.819 12.283-.117 20.316-6.992 27.65-9.789 7.335-2.796 14.088-4.895 23.11-1.631l2.62-1.632s1.804 1.34 1.979 2.098c0 0 1.456-1.282 1.513-2.447 0 0 .932.233 1.222.932 0 0 1.223-.932.524-2.04 0 0 2.33.7 2.678 3.322 0 0 2.62-3.088 2.503-8.215 0 0 .757.348.873 1.34 0 0 .427-2.168 2.755-4.382l-4.13-1.526c4.57.787 6.644 3.926 7.255 2.848 1.17-2.062 3.667-4.894 5.326-6.904 1.66-2.01.67-2.65.67-2.65l-4.541-4.313c0-2.796-1.321-5.916-1.321-5.916" fill="#DCB285"/><path d="M175.55 10.112s5.205 2.66 7.737 5.458l-.378-1.399s2.62.962 3.9 2.01c0 0-.64-4.05-4.017-6.73 0 0 .96-.087 1.95.525 0 0-8.017-7.753-15.367-7.778-5.356-.02-8.441 1.98-9.14 2.3-.698.322-3.172 1.69-5.035 1.603-1.863-.087-6.752-1.777-11.7.233 0 0 1.6.204 2.066.67 0 0-2.008-.262-6.345 2.069 0 0 2.241-.204 2.533.437 0 0-5.123 1.194-9.489 3.758 0 0 1.223-.292 2.212-.233-.143-.005-2.177 1.438-3.783 1.98-4.57 1.545-10.333 3.467-32.162.555-21.829-2.914-24.798-2.39-25.962-2.332-1.164.059-2.558.64-3.958 1.516-2.096 1.457-10.07 5.608-11.7 14.74-3.435 24.414 21.13 8.74 27.3 13.285 14.96 13.052 29.28 12.819 29.28 12.819 12.283-.117 20.316-6.992 27.65-9.789 7.335-2.796 14.088-4.895 23.11-1.631l2.62-1.632s1.804 1.34 1.979 2.098c0 0 1.456-1.282 1.513-2.447 0 0 .932.233 1.222.932 0 0 1.223-.932.524-2.04 0 0 2.33.7 2.678 3.322 0 0 2.62-3.088 2.503-8.215 0 0 .757.348.873 1.34 0 0 .427-2.168 2.755-4.382l-4.13-1.526c4.57.787 6.644 3.926 7.255 2.848 1.17-2.062 3.667-4.894 5.326-6.904 1.66-2.01.67-2.65.67-2.65l-4.541-4.313c0-2.796-1.321-5.916-1.321-5.916" stroke="#784E3D" stroke-width=".525"/><path d="M176.738 31.765c.059-.087 3.591.772 4.045 1.549 0 0-2.148 1.723-2.341 3.161-.413 3.094-.272.163-1.386-.36 0 0 .764 3.802-2.281 8.213 0 0-1.15-3.311-3.1-3.428 0 0 1.414.826-.207 2.36 0 0-.222-1.333-1.212-1.07 0 0-.622 1.61-1.466 2.541 0 0-1.263-2.072-1.979-2.097l-2.62 1.631s-5.854-2.076-10.404-1.619c0 0 7.261-10.336 5.37-17.358l-.885 2.383s.284-4.71-1.288-7.747l-.6 1.858s-.072-3.66-1.965-5.758c0 0 .039 2.005-.174 2.764 0 0-.906-2.95-1.343-3.638-.436-.688-1.222-1.748-1.779-2.174l-.305.612s-1.965-3.124-5.883-2.436c-4.428.778-9.71 3.505-11.908 3.933-2.467.48-3.013.382-3.013.382s3.7-1.791 4.279-2.228c0 0-.666-.307-1.179-.263 0 0 6.09-3.15 8.579-3.38-.064.008-.644-.51-1.997-.662 0 0 3.353-2.067 5.765-1.881 0 0-.592-.424-1.498-.697-.054 0 3.429-1.15 5.96-.877 2.533.273 5.37 1.16 7.061.517 1.692-.645 8.841-4.906 14.942-3.3 6.102 1.606 12.351 6.993 12.351 6.993s-1.218-.281-1.545-.15c0 0 3.688 3.339 3.918 6.55 0 0-3.536-1.834-3.886-1.9l.434 1.364s-3.5-3.036-7.725-5.538c-.049-.029-.022-1.078-.348-1.212-.76-.31-2.147.224-3.597-.25-.553-.18-2.032-2.333-2.57-2.481-.507-.14-.492 1.563-.939 1.53-2.314-.176-2.959.155 1.044 3.463 7.382 5.538 7.267 9.393 7.55 10.376 0 0-1.456-.948-2.177-.216 0 0 3.439 3.834 2.514 8.82 0 0-1.16-.987-1.411-1.108l1.2 2.828" fill="#AC612A"/><path d="M175.49 10.2s5.205 2.66 7.737 5.457l-.38-1.398s2.62.961 3.901 2.01c0 0-.64-4.05-4.017-6.73 0 0 .96-.087 1.95.524 0 0-8.018-7.752-15.367-7.778-5.356-.02-8.44 1.98-9.139 2.301-.698.321-3.173 1.69-5.035 1.603-1.863-.088-6.753-1.778-11.7.232 0 0 1.6.205 2.066.67 0 0-2.008-.262-6.345 2.07 0 0 2.241-.205 2.532.436 0 0-5.123 1.194-9.489 3.758 0 0 1.222-.291 2.213-.233-.145-.004-2.177 1.438-3.785 1.981-4.569 1.544-10.332 3.467-32.16.554-21.83-2.914-24.798-2.39-25.962-2.331-1.165.058-2.56.64-3.959 1.515-2.095 1.457-10.07 5.608-11.7 14.741-1.763 22.2 21.13 8.74 27.3 13.285 14.96 13.051 29.28 12.818 29.28 12.818 12.283-.116 20.316-6.991 27.65-9.788 7.335-2.797 14.088-4.895 23.11-1.632l2.62-1.631s1.804 1.34 1.978 2.097c0 0 1.456-1.281 1.515-2.447 0 0 .931.233 1.222.932 0 0 1.223-.932.524-2.039 0 0 2.328.7 2.677 3.321 0 0 2.62-3.088 2.504-8.215 0 0 .757.349.873 1.34 0 0 .427-2.167 2.755-4.381l-4.13-1.526c4.568.786 6.642 3.926 7.254 2.848 1.17-2.063 3.667-4.895 5.326-6.905 1.66-2.01.67-2.65.67-2.65l-4.54-4.312c0-2.797-1.322-5.917-1.322-5.917" stroke="#784E3D" stroke-width=".525"/><path d="M168.79 10.995c1.035.47 1.995 1.096 2.918 1.776.47.332.859.759 1.267 1.16.401.41.782.84 1.139 1.29.715.899 1.34 1.875 1.826 2.922.496 1.042.832 2.16 1.025 3.298l.081.479-.454-.201c-.631-.28-1.414-.494-2.002-.283l.096-.423c.284.32.519.643.747.983.225.34.43.69.62 1.05.189.36.355.731.51 1.107l.209.574c.074.189.118.389.178.583.059.195.11.392.149.593.039.199.088.397.12.598.05.404.116.808.122 1.216.006.203.03.407.018.61l-.024.611c-.014.408-.093.81-.137 1.214l-.07.626-.396-.512a4.33 4.33 0 0 0-.515-.53c-.096-.073-.183-.163-.28-.23-.094-.078-.195-.124-.294-.184l.264-.316c.339.691.61 1.394.793 2.131.088.367.161.742.169 1.122.011.188-.002.38-.025.566a2.54 2.54 0 0 1-.137.544c.041-.183.075-.364.076-.55a2.962 2.962 0 0 0-.036-.55 5.611 5.611 0 0 0-.27-1.066 10.287 10.287 0 0 0-.95-1.977l-.336-.552.601.236c.14.054.287.105.408.182.134.067.248.153.36.241.22.186.401.389.588.614l-.466.114c.04-.386.118-.768.13-1.155l.023-.582c.012-.194-.012-.387-.017-.581-.004-.388-.07-.771-.117-1.157-.03-.191-.077-.38-.114-.57a5.01 5.01 0 0 0-.142-.564c-.057-.185-.098-.376-.17-.557l-.198-.547c-.15-.36-.308-.714-.488-1.059a11.62 11.62 0 0 0-.592-1.003c-.214-.32-.45-.64-.693-.915l-.26-.294.356-.13c.432-.158.868-.138 1.268-.069.404.076.776.197 1.153.37l-.373.277a12.087 12.087 0 0 0-.983-3.16 14.003 14.003 0 0 0-1.761-2.817 15.86 15.86 0 0 0-1.104-1.252c-.38-.408-.817-.756-1.206-1.16-.798-.783-1.67-1.5-2.604-2.14" fill="#784E3D"/><path d="M86.902 85.08H74.328c-6.527-12.995-6.172-11.417-8.906-16.343-1.092-1.967-4.06-5.944-3.886-8.303.175-2.36 1.961-8.23-3.583-20.947-5.545-12.716 17.336-22.36 22.182-19.65 4.846 2.71 14.45 13.284 9.736 21.98-4.715 8.697-9.998 13.59-12.312 15.733-2.313 2.14-4.637 4.772-5.151 6.336-.485 1.473-.325 1.448 4.758 12.498 1.222 2.621.917 2.272 2.27 2.141 1.354-.131 6.155-.624 6.155-.624s3.843-.774 3.625 1.935c-.191 2.367-1.092 4.24-2.314 5.244" fill="#DCB285"/><path d="M86.902 85.08H74.328c-6.527-12.995-6.172-11.417-8.906-16.343-1.092-1.967-4.06-5.944-3.886-8.303.175-2.36 1.961-8.23-3.583-20.947-2.426-5.563 7.143-14.16 15.063-13.824 10.182.43 22.469 3.235 16.855 16.155-3.943 9.073-9.998 13.59-12.312 15.732-2.313 2.14-4.637 4.772-5.151 6.336-.485 1.473-.325 1.448 4.758 12.498 1.222 2.621.917 2.272 2.27 2.141 1.354-.131 6.155-.624 6.155-.624s3.843-.774 3.625 1.935c-.191 2.367-1.092 4.24-2.314 5.244z" stroke="#784E3D" stroke-width=".525"/><path d="M82.798 80.754s.116-.095.335-.237c.11-.07.244-.155.405-.24l.259-.135c.092-.048.203-.045.309-.078.216-.05.453-.1.712-.128.255-.034.531-.05.823-.028.29.013.602.084.9.225.293.159.567.415.696.735.023.05.034.047.063.143l.025.105.05.209c.045.127.032.317.039.477a1.75 1.75 0 0 1-.043.468c-.027.149-.046.298-.1.431l-.134.4-.17.36c-.103.241-.247.436-.358.63-.096.208-.267.337-.404.458-.133.124-.263.217-.367.296-.21.155-.333.235-.333.235s.064-.137.184-.363c.06-.111.137-.243.204-.407l.111-.254c.037-.09.12-.154.164-.248.103-.18.239-.362.329-.578.05-.107.102-.216.156-.326.037-.116.077-.233.117-.353.049-.118.06-.242.085-.367.025-.126.047-.253.036-.365-.01-.12.025-.222-.026-.37l-.049-.21-.025-.105c.009.027-.022-.036-.03-.049-.088-.22-.26-.37-.458-.485a1.882 1.882 0 0 0-.698-.17 3.47 3.47 0 0 0-.725.027 5.39 5.39 0 0 0-.656.118c-.104.017-.194.062-.29.071l-.277.019-.457.044-.402.045m65.968-69.089c.396.255.775.537 1.14.839.178.157.36.309.523.484.174.163.32.355.476.539l-.183.014.27-.63.074-.171.153.126c.475.394.885.833 1.268 1.307.197.232.365.487.517.75.148.264.302.526.433.8.267.545.499 1.11.668 1.694.094.29.159.587.226.883.068.296.1.6.152.9l-.495-.085c.039-.089.084-.207.116-.317.04-.11.063-.228.093-.343.05-.233.095-.468.11-.708.03-.239.022-.48.022-.72-.004-.24-.042-.48-.06-.72l-.065-.87.526.664c.108.136.182.256.264.387a8.475 8.475 0 0 1 .589 1.2c.22.548.385 1.113.52 1.684s.22 1.15.288 1.731c.064.581.09 1.164.102 1.747l-.514-.069.785-2.797.205-.727.287.692c.29.698.497 1.393.672 2.108.172.714.306 1.436.388 2.164.083.729.13 1.462.12 2.197.006.367-.024.733-.04 1.1-.011.367-.094.729-.152 1.09l-.429-.122c.258-.499.507-1.008.739-1.52.224-.517.474-1.027.602-1.58-.024.283-.08.564-.146.842-.072.276-.148.551-.235.822a32.904 32.904 0 0 1-.548 1.618l-.47 1.28.041-1.402c.02-.715.125-1.419.114-2.132a16.47 16.47 0 0 0-.117-2.131 16.988 16.988 0 0 0-.375-2.101 13.96 13.96 0 0 0-.642-2.02l.491-.035-.785 2.797-.479 1.7-.036-1.77a19.319 19.319 0 0 0-.099-1.694 14.254 14.254 0 0 0-.278-1.67 11.265 11.265 0 0 0-.495-1.608 8.03 8.03 0 0 0-.348-.76 4.665 4.665 0 0 0-.422-.686l.46-.205c.021.26.06.519.065.78.001.262.008.523-.025.784a5.263 5.263 0 0 1-.12.778c-.033.128-.058.258-.104.385-.04.13-.082.248-.146.388l-.346.766-.148-.85c-.05-.285-.08-.573-.146-.854-.063-.282-.123-.565-.213-.84a9.893 9.893 0 0 0-.636-1.612c-.243-.527-.58-.999-.882-1.494a8.703 8.703 0 0 0-1.059-1.375l.227-.046-.341.595-.084.146-.099-.133c-.138-.184-.264-.378-.424-.548-.148-.18-.312-.345-.476-.513-.336-.327-.69-.637-1.064-.923" fill="#784E3D"/><path d="M169.28 4.736c.318-1.578 1.373-3.995 3.12-3.777 1.043.13 2.56 1.239 2.725 5.725.121 3.318-.66 4.518-3.481 4.51-1.121-.004-3.258-2-2.363-6.458" fill="#BB8E5D"/><path d="M183.845 20.973l-2.794-.524-2.358-3.692 4.098 1.179s.995 2.193 1.054 3.037" fill="#FBF3ED"/><path d="M187.97 27.222s-1.047-.83-.829-2.438c.185-1.364.808-1.932 2.91.29.753.794-.2 1.939-.6 2.417-.4.48-.826.212-1.48-.269" fill="#311A14"/><path d="M183.845 20.973l-.633-2.709s.034-.257-1.42-.7c-1.505-.458-3.099-.807-3.099-.807l2.358 3.692 2.794.524z" stroke="#311A14" stroke-width=".5"/><path d="M182.12 20.525s-.72-.48-.567-1.594c.075-.547.669-1.145 1.239-.995.708.186 1.053 3.038 1.053 3.038l-2.214-.416" fill="#311A14"/><path d="M178.861 26.203s.007.167.094.43c.04.132.11.284.192.45.084.168.224.328.306.537.106.197.239.405.407.607.16.206.354.408.568.602.426.4.935.745 1.485 1.083.545.34 1.089.677 1.607.969.517.29 1.014.533 1.435.635.102.022.204.035.293.036a.96.96 0 0 0 .696-.052 1.88 1.88 0 0 0 .277-.161l.098-.067c-.011-.007-.052.16-.254.39a1.275 1.275 0 0 1-.474.331 1.2 1.2 0 0 1-.362.09c-.132.002-.259-.035-.39-.056-.521-.128-1.04-.391-1.575-.689a43.22 43.22 0 0 1-1.628-.982c-.547-.335-1.108-.713-1.564-1.14a5.333 5.333 0 0 1-.621-.662 4.103 4.103 0 0 1-.46-.685c-.153-.212-.173-.469-.212-.672a2.573 2.573 0 0 1-.017-.543c.028-.3.099-.451.099-.451" fill="#23110A"/><g transform="translate(166.551 .042)"><mask id="b" fill="#fff"><use xlink:href="#a"/></mask><path d="M9.064 11.623l-.187-.918-.198-1.055L8.556 9c-.04-.229-.038-.475-.07-.728l-.324-3.468c-.076-.616-.198-1.256-.416-1.854-.218-.592-.554-1.164-1.06-1.482a1.754 1.754 0 0 0-.838-.273c-.067-.003-.17-.018-.207-.013l-.252.022c-.171.018-.27.064-.413.106-.546.222-.97.693-1.274 1.214-.314.52-.53 1.084-.713 1.627-.09.28-.18.55-.264.812-.09.257-.155.496-.223.744-.11.494-.263.944-.453 1.337-.097.196-.187.384-.362.54-.072.086-.257.118-.314.106l-.236.004a3.295 3.295 0 0 1-.703-.145C.28 7.505.201 7.472.201 7.472s.085.016.244.025c.161.017.39.019.665.003.138-.043.347-.033.38-.125.08-.1.141-.28.192-.468.093-.386.159-.846.315-1.336.065-.244.142-.518.233-.78l.263-.807c.19-.56.414-1.156.76-1.73.335-.569.824-1.142 1.53-1.43.173-.062.396-.129.559-.142l.251-.023c.131-.009.197.01.3.014.374.017.75.151 1.072.352.656.417 1.03 1.096 1.273 1.743.24.661.363 1.325.444 1.971l.324 3.468c.017.255.066.495.068.729V9.6l.002 1.08-.012.943" fill="#784E3D" mask="url(#b)"/></g><path d="M169.64 3.193s-2.407 7.802 2.613 8.079c3.017.166 2.946-4.324 2.833-5.5" stroke="#784E3D" stroke-width=".525"/><path d="M57.953 25.847s-14.797 18.68-31.999 18.418C7.706 43.13 5.392 29.888 5.131 28.096c-.262-1.791-.437-3.801-2.009-3.627-1.571.175-3.497 6.258.563 13.119C7.745 44.448 18.403 49.195 26 49.159c8.862-.13 20.468-2.84 31.954-13.11" fill="#DCB285"/><path d="M57.953 25.847s-14.797 18.68-31.999 18.418C7.706 43.13 5.392 29.888 5.131 28.096c-.262-1.791-.437-3.801-2.009-3.627-1.571.175-3.497 6.258.563 13.119C7.745 44.448 18.403 49.195 26 49.159c8.862-.13 20.468-2.84 31.954-13.11" stroke="#784E3D" stroke-width=".525"/><path d="M132.88 37.142c-.777 6.642-9.66 13.503-9.66 13.503.865 4.37-.466 11.43-1.37 20.495-.445 4.452-1.234 8.79-1.375 10.4-.232 2.64 2.532 3.54 2.532 3.54h10.43c3.104 0 5.54-3.027 5.07-5.855-.263-1.574-.694-1.701-4.41-1.093-4.541.743-4.98-.962-5.065-1.53.041-1.327.844-5.01 5.863-16.43 5.018-11.42 15.955-22.258 15.955-22.258" fill="#DCB285"/><path d="M132.88 37.142c-.777 6.642-9.66 13.503-9.66 13.503.865 4.37-.466 11.43-1.37 20.495-.445 4.452-1.234 8.79-1.375 10.4-.232 2.64 2.532 3.54 2.532 3.54h10.43c3.104 0 5.54-3.027 5.07-5.855-.263-1.574-.694-1.701-4.41-1.093-4.541.743-4.98-.962-5.065-1.53.041-1.327.844-5.01 5.863-16.43 5.018-11.42 15.955-22.258 15.955-22.258" stroke="#784E3D" stroke-width=".525"/><path d="M133.834 79.676s.135-.088.388-.216a4.35 4.35 0 0 1 .467-.21 1.58 1.58 0 0 1 .647-.154c.245-.023.518-.03.816.011.29.052.657.148.903.488.255.356.177.75.123 1.086-.08.3-.136.598-.241.909-.093.311-.2.618-.34.91-.11.302-.31.561-.463.83-.205.23-.372.488-.592.667-.213.18-.4.38-.609.504a1.935 1.935 0 0 1-.584.313l-.489.15c-.27.08-.424.116-.424.116s.12-.11.332-.29l.38-.314c.134-.137.277-.293.478-.4.197-.114.358-.294.554-.458.2-.16.34-.39.528-.593.132-.242.314-.465.414-.744a5.68 5.68 0 0 0 .312-.836c.096-.28.158-.6.237-.893.04-.251.076-.523-.046-.658-.102-.15-.323-.23-.55-.269a3.023 3.023 0 0 0-.693-.007c-.11-.001-.214.044-.317.037-.105-.008-.204-.005-.299-.007l-.494.009-.438.02" fill="#784E3D"/><path d="M58.347 39.37s-3.014-3.14-1.255-6.303c1.76-3.163 13.434-8.609 13.434-8.609l19.787-1.401 7.267 5.026s-4.89 6.612-9.43 9.059c-4.54 2.447-29.803 2.229-29.803 2.229" fill="#DCB285"/></g></svg>