<svg width="120" height="120" viewBox="0 0 120 120" xmlns="http://www.w3.org/2000/svg"><g fill="none"><path d="M108.484 110.07H86.092V9.765h22.392a5.47 5.47 0 0 1 5.483 5.483v89.372c0 3.006-2.444 5.45-5.483 5.45z" fill="#D5643D"/><path fill="#D9BE63" d="M93.556 26.477l-1.85-1.85v-3.732l1.85-1.85h3.699l1.85 1.85v3.733l-1.85 1.85zm9.281 9.281l-1.85-1.85v-3.732l1.85-1.85h3.699l1.85 1.85v3.732l-1.85 1.85zm-9.281 9.281l-1.85-1.85v-3.732l1.85-1.85h3.699l1.85 1.85v3.732l-1.85 1.85zm9.281 9.313l-1.85-1.85v-3.731l1.85-1.85h3.699l1.85 1.85v3.732l-1.85 1.85zm-9.281 9.281l-1.85-1.85v-3.732l1.85-1.85h3.699l1.85 1.85v3.732l-1.85 1.85zm9.281 9.281l-1.85-1.85v-3.732l1.85-1.85h3.699l1.85 1.85v3.732l-1.85 1.85zm-9.281 9.28l-1.85-1.849v-3.732l1.85-1.85h3.699l1.85 1.85v3.732l-1.85 1.85zm9.281 9.314l-1.85-1.85v-3.731l1.85-1.85h3.699l1.85 1.85v3.732l-1.85 1.85h-3.7zm-9.281 9.281l-1.85-1.85v-3.732l1.85-1.85h3.699l1.85 1.85v3.732l-1.85 1.85z"/><path fill="#E5E9ED" d="M19.211 78.495h14.862v-7.43H19.211v-3.733H6.198v14.862h13.013z"/><path fill="#D6DADE" d="M19.211 93.358h14.862v-7.431H19.211v-3.7H6.198V97.09h13.013z"/><path d="M34.073 100.789H19.211v-3.732H6.198v7.53c0 3.006 2.444 5.483 5.483 5.483h22.392v-9.281zm0-81.743v-9.28H11.681a5.47 5.47 0 0 0-5.483 5.482v7.53h13.013v-3.7h14.862v-.032z" fill="#E5E9ED"/><path fill="#D6DADE" d="M19.211 63.633h14.862v-7.431H19.211V52.47H6.198v14.862h13.013z"/><path fill="#E5E9ED" d="M19.211 48.77h14.862v-7.43H19.211v-3.7H6.198v14.863h13.013z"/><path fill="#D6DADE" d="M19.211 33.908h14.862v-7.43H19.211v-3.733H6.198v14.862h13.013z"/><path fill="#354050" d="M63.798 110.07l-3.732 3.699-3.699-3.7V9.766l3.7-3.732 3.731 3.732z"/><path fill="#435268" d="M71.23 110.07l-3.733 3.699-3.699-3.7V9.766l3.7-3.732 3.731 3.732z"/><path fill="#354050" d="M78.66 110.07l-3.732 3.699-3.699-3.7V9.766l3.7-3.732 3.732 3.732z"/><path fill="#435268" d="M86.092 110.07l-3.732 3.699-3.7-3.7V9.766l3.7-3.732 3.732 3.732z"/><path d="M21.094 63.633h14.862v7.431H21.094a3.693 3.693 0 0 1-3.7-3.699c-.033-2.08 1.619-3.732 3.7-3.732zm0-14.863h14.862v7.432H21.094a3.693 3.693 0 0 1-3.7-3.7c-.033-2.08 1.619-3.731 3.7-3.731zm0 29.725h14.862v7.432H21.094a3.693 3.693 0 0 1-3.7-3.7c-.033-2.08 1.619-3.732 3.7-3.732zm0 14.863h14.862v7.431H21.094a3.693 3.693 0 0 1-3.7-3.7c-.033-2.08 1.619-3.731 3.7-3.731zm0-74.312h14.862v7.431H21.094a3.693 3.693 0 0 1-3.7-3.699c-.033-2.08 1.619-3.732 3.7-3.732zm0 14.862h14.862v7.431H21.094a3.693 3.693 0 0 1-3.7-3.699c-.033-2.08 1.619-3.732 3.7-3.732z" fill="#3E4A5D"/><path fill="#D5643D" d="M34.073 9.765h22.294v100.338H34.073z"/><path fill="#D9BE63" d="M50.818 37.607l-11.163 9.281v-20.41l11.163-11.164zM39.655 93.358l11.163 11.13V84.044l-11.163-9.28v18.594zm0-33.458l11.163-11.162v24.176z"/></g></svg>