<svg width="120" height="120" viewBox="0 0 120 120" xmlns="http://www.w3.org/2000/svg" xmlns:xlink="http://www.w3.org/1999/xlink"><defs><path id="a" d="M0 .475h109.075v16.24H0z"/></defs><g fill="none" fill-rule="evenodd"><path d="M4.888 46.284c7.195-7.86 19.261-8.523 29.328-1.615a2.341 2.341 0 0 1 .612 3.243 2.326 2.326 0 0 1-3.237.607c-8.122-5.561-17.685-5.182-23.275.919-4.31 4.71-3.21 12.9.472 17.304 2.775 3.315 6.77 4.388 11.401 5.633 7.14 1.91 15.234 4.083 20.364 15.172a2.337 2.337 0 0 1-1.129 3.1 2.36 2.36 0 0 1-.981.214 2.318 2.318 0 0 1-2.112-1.352c-4.213-9.104-10.592-10.814-17.347-12.628-4.938-1.327-10.043-2.7-13.765-7.145-5.025-6.007-6.358-16.868-.331-23.452" fill="#C6C6C6"/><path d="M86.86 18.454c.437-.884 1.167-1.795 1.75-2.437.675-.75.919-1.148 1.235-1.793.272-.612.48-1.225.54-1.83a5.53 5.53 0 0 0-.505-3.113c-.83-1.65-2.026-2.25-1.973-2.28a2.865 2.865 0 0 1-.242-4.038 2.845 2.845 0 0 1 4.029-.24s.098.103.278.305c.173.21.462.473.75.891.62.78 1.388 2.051 1.868 3.72a10.249 10.249 0 0 1-.076 5.762c-.297 1.005-.809 1.958-1.407 2.835-.572.844-1.517 1.758-2.115 2.208-.693.562-1.152.968-1.603 1.568-.415.576-.787 1.197-.997 1.857a6.802 6.802 0 0 0-.173 3.836c.288 1.13.808 2.057 1.211 2.59.174.29.43.522.545.677.134.157.207.24.207.24.173.198.18.5.005.708a.542.542 0 0 1-.768.07s-.085-.07-.242-.204c-.16-.15-.393-.289-.688-.608-.625-.6-1.374-1.524-1.979-2.877-.59-1.337-.918-3.137-.598-5.034.143-.956.495-1.899.948-2.813m-24.443 0c.436-.884 1.168-1.795 1.75-2.437.677-.75.917-1.148 1.235-1.793.272-.612.48-1.225.542-1.83a5.56 5.56 0 0 0-.506-3.113c-.831-1.65-2.03-2.25-1.974-2.28a2.864 2.864 0 0 1-.24-4.038 2.845 2.845 0 0 1 4.028-.24s.097.103.278.305c.172.21.462.473.75.891.62.78 1.389 2.051 1.865 3.72a10.233 10.233 0 0 1-.075 5.762c-.295 1.005-.808 1.958-1.405 2.835-.573.844-1.516 1.758-2.116 2.208-.694.562-1.152.968-1.604 1.568-.415.576-.785 1.197-.996 1.857a6.817 6.817 0 0 0-.174 3.836c.29 1.13.809 2.057 1.214 2.59.171.29.426.522.545.677l.205.24c.173.198.181.5.005.708a.542.542 0 0 1-.769.07s-.085-.07-.24-.204c-.161-.15-.395-.289-.688-.608-.628-.6-1.373-1.524-1.978-2.877-.592-1.337-.92-3.137-.599-5.034.144-.956.495-1.899.947-2.813m-25.389 2.812c.142-.954.493-1.898.947-2.813.436-.884 1.168-1.795 1.75-2.437.673-.75.918-1.146 1.235-1.793.271-.612.48-1.223.541-1.83a5.562 5.562 0 0 0-.505-3.112c-.833-1.648-2.028-2.25-1.978-2.279a2.866 2.866 0 0 1-.237-4.038 2.845 2.845 0 0 1 4.029-.242s.096.105.276.307c.174.21.462.472.75.89.622.782 1.39 2.052 1.867 3.72a10.242 10.242 0 0 1-.075 5.762c-.299 1.006-.807 1.959-1.407 2.834-.57.844-1.518 1.759-2.116 2.21-.692.56-1.15.968-1.602 1.566-.415.578-.787 1.199-.997 1.857a6.802 6.802 0 0 0-.171 3.836c.288 1.13.808 2.06 1.21 2.59.173.29.43.524.544.678l.209.239a.55.55 0 0 1 .003.71.544.544 0 0 1-.767.07s-.088-.07-.243-.204c-.16-.15-.391-.289-.688-.61-.627-.6-1.373-1.524-1.979-2.875-.59-1.338-.92-3.137-.596-5.036" fill="#E49A61"/><path d="M25.631 34.19h79.659c1.551 0 2.403 1.789 1.456 3.022-24.06 31.308 7.607 39.61-23.541 64.63H47.716c-31.146-25.02.52-33.322-23.54-64.63-.945-1.233-.095-3.021 1.455-3.021" fill="#E2E2E2"/><g transform="matrix(-1 0 0 1 120 101.366)"><mask id="b" fill="#fff"><use xlink:href="#a"/></mask><path d="M0 .475C0 7.285 21.823 12.8 28.608 12.8v3.915h51.855V12.8c6.792 0 28.612-5.516 28.612-12.325H0z" fill="#C6C6C6" mask="url(#b)"/></g></g></svg>