<svg width="120" height="120" viewBox="0 0 120 120" xmlns="http://www.w3.org/2000/svg"><g fill="none" fill-rule="evenodd"><path d="M113.644 96.936a5.962 5.962 0 0 1-5.967 5.957h-95.71A5.962 5.962 0 0 1 6 96.936v-73.98A5.962 5.962 0 0 1 11.968 17h95.709a5.962 5.962 0 0 1 5.967 5.957v73.979z" fill="#FF574A"/><path d="M27.737 24.783v68.055c-2.093-.005-4.192-1.395-4.192-4.154V28.938c0-2.775 2.099-4.155 4.192-4.155" fill="#333232"/><path d="M31.642 28.938v59.746c0 2.774-2.099 4.154-4.198 4.154V24.783c2.1 0 4.198 1.39 4.198 4.155" fill="#212121"/><path d="M49.181 24.783v68.055c-2.093-.005-4.192-1.395-4.192-4.154V28.938c0-2.775 2.099-4.155 4.192-4.155" fill="#333232"/><path d="M53.476 28.938v59.746c0 2.774-2.1 4.154-4.198 4.154V24.783c2.099 0 4.198 1.39 4.198 4.155" fill="#212121"/><path d="M71.015 24.783v68.055c-2.093-.005-4.192-1.395-4.192-4.154V28.938c0-2.775 2.099-4.155 4.192-4.155" fill="#333232"/><path d="M75.31 28.938v59.746c0 2.774-2.1 4.154-4.198 4.154V24.783c2.099 0 4.197 1.39 4.197 4.155" fill="#212121"/><path d="M92.85 24.783v68.055c-2.095-.005-4.193-1.395-4.193-4.154V28.938c0-2.775 2.098-4.155 4.192-4.155" fill="#333232"/><path d="M97.143 28.938v59.746c0 2.774-2.098 4.154-4.197 4.154V24.783c2.099 0 4.197 1.39 4.197 4.155" fill="#212121"/><path d="M34.622 60.733a4.538 4.538 0 0 1-4.543 4.534h-5.11a4.538 4.538 0 0 1-4.543-4.534V45.271a4.538 4.538 0 0 1 4.543-4.533h5.11a4.538 4.538 0 0 1 4.543 4.533v15.462z" fill="#C6CACC"/><path fill="#A0A0A0" d="M22.765 47.735h9.716v-1.939h-9.716zm0 4.28h9.716v-1.938h-9.716zm0 4.281h9.716v-1.939h-9.716zm0 4.28h9.716v-1.938h-9.716z"/><path d="M56.455 79.801a4.538 4.538 0 0 1-4.542 4.534h-5.11A4.538 4.538 0 0 1 42.26 79.8V64.34a4.539 4.539 0 0 1 4.543-4.534h5.11a4.538 4.538 0 0 1 4.542 4.534v15.462z" fill="#C6CACC"/><path fill="#A0A0A0" d="M44.6 66.803h9.715v-1.939H44.6zm0 4.28h9.715v-1.938H44.6zm0 4.281h9.715v-1.939H44.6zm0 4.28h9.715v-1.938H44.6z"/><path d="M100.123 74.742a4.538 4.538 0 0 1-4.542 4.534h-5.11a4.538 4.538 0 0 1-4.543-4.534V59.28a4.538 4.538 0 0 1 4.542-4.533h5.11a4.538 4.538 0 0 1 4.543 4.533v15.462z" fill="#C6CACC"/><path fill="#A0A0A0" d="M88.267 61.354h9.716v-1.938h-9.716zm0 4.281h9.716v-1.938h-9.716zm0 4.281h9.716v-1.939h-9.716zm0 4.28h9.716v-1.938h-9.716z"/><path d="M78.29 53.34a4.538 4.538 0 0 1-4.543 4.533h-5.11a4.538 4.538 0 0 1-4.543-4.533V37.878a4.539 4.539 0 0 1 4.542-4.534h5.11a4.538 4.538 0 0 1 4.543 4.534V53.34z" fill="#C6CACC"/><path fill="#A0A0A0" d="M66.433 40.341h9.716v-1.938h-9.716zm0 4.281h9.716v-1.939h-9.716zm0 4.28h9.716v-1.938h-9.716zm0 4.281h9.716v-1.939h-9.716z"/></g></svg>