<svg width="130" height="280" viewBox="0 0 130 280" xmlns="http://www.w3.org/2000/svg"><g fill="none"><path d="M82.7 79.4s.7-2.8-10.6-2.8c-11.3 0-16.8 2.5-18.6 4.6 0 0 1.9-34.2 16.5-28.2 14.6 6 12.7 26.4 12.7 26.4z" fill="#211910"/><path d="M98.3 152.8s2.8.9 4.7 5.1c1.3 2.8 3.1 4.7 2.4 5.2-1.5 1-3.3-3.5-3.3-3.5s.7 4.3.8 5.7c.1 1.3.1 4.1-.5 4.5-.9.6-1-1.1-1.3-4 0 0 0 2.5-.5 3.8-.4 1.1-1.4 1.6-1.7.2 0 0-.6 2.3-1.9-.2 0 0-1.5 1.4-1.5-4.7 0-2.8-5-12.4 2.8-12.1z" fill="#FFE9B8"/><path d="M97.1 169.4v-7s.2.4.3 1.1c.1.7.3 1.5.3 2.4 0 .9-.1 1.8-.2 2.5-.2.6-.4 1-.4 1zm2 .5v-5.2c0-.4 0-.9-.1-1.2v-1.2s.2.4.4 1.1c.1.3.2.8.2 1.2.1.4.1.9.1 1.4 0 .5 0 1-.1 1.4 0 .4-.1.9-.2 1.2-.1.9-.3 1.3-.3 1.3zm2-2.4s-.1-.4-.1-.9c-.1-.5-.1-1.3-.1-2v-2.9s.2.3.3.9c.2.5.3 1.3.3 2v1.1c0 .3-.1.7-.1.9-.2.5-.3.9-.3.9zm-1.9-14.2h.3c.2 0 .4.1.7.3.5.3 1.1.9 1.5 1.5l.6.9c.2.3.3.6.4.9.2.5.3.9.3.9s-.3-.3-.6-.7c-.4-.4-.8-1.1-1.2-1.6l-.6-.9c-.2-.3-.4-.5-.6-.7-.2-.2-.4-.4-.5-.4-.2-.2-.3-.2-.3-.2zm2.9 6.2s-.3.1-.8.1c-.2 0-.5 0-.8-.1-.3-.1-.6-.2-.9-.4-.3-.2-.5-.4-.7-.6-.2-.2-.4-.5-.5-.7-.1-.2-.2-.4-.2-.5 0-.1-.1-.2-.1-.2l.2.2.4.4c.2.2.4.3.6.5.2.2.4.4.7.5.2.2.5.3.8.4.3.1.5.2.7.3.2 0 .6.1.6.1z" fill="#BD875F"/><path d="M89.7 120.1c2.9 3.6 5 13.7 6.3 20.6.8 4.5 2.8 12.4 2.8 12.4-.9 1.9-2.7 1.8-4.5 1.6 0 0-1.6-3.3-4.7-9.9-3.4-7-7.3-19.9-6.2-22.7 1.2-3.1 4.8-3.8 6.3-2z" fill="#714FAB"/><path d="M91.3 122.7s.6 1.2 1.3 3.2c.3 1 .8 2.1 1.1 3.3.4 1.2.7 2.6 1.1 3.9.3 1.3.6 2.7.9 4 .1.6.2 1.3.3 1.8.1.6.2 1.1.2 1.7.1 1 .2 1.9.3 2.5 0 .6.1.9.1.9s-.3-1.3-.7-3.4c-.2-1-.5-2.2-.7-3.4l-.9-3.9c-.3-1.3-.7-2.7-1-3.9-.3-1.2-.6-2.4-.9-3.4-.7-2-1.1-3.3-1.1-3.3zm2.9 31.7s-.3-.4-.7-1.1c-.4-.7-1-1.7-1.6-2.9-.6-1.2-1.4-2.7-2.1-4.3-.7-1.6-1.5-3.3-2.2-5-.7-1.7-1.3-3.5-1.8-5.1-.3-.8-.5-1.6-.7-2.4-.2-.8-.4-1.5-.6-2.2-.4-1.3-.6-2.5-.7-3.3-.2-.8-.2-1.3-.2-1.3l.3 1.2c.1.4.2.9.4 1.4.2.5.3 1.1.6 1.8.4 1.3.9 2.9 1.5 4.5s1.2 3.4 1.9 5.1c.7 1.7 1.4 3.4 2.1 5 .7 1.6 1.3 3.1 1.9 4.3 1.1 2.6 1.9 4.3 1.9 4.3z" fill="#3B2B78"/><path d="M88.1 97.3c-1-4.1-6.8-20.8-12-10.3-4.9 10.1 7 44.6 12.1 40.3 5-4.3 2.2-20.8-.1-30z" fill="#714FAB"/><path d="M86 91.1s.6 1.2 1.2 3.2c.3 1 .7 2.1 1 3.3.3 1.2.7 2.5 1 3.8.3 1.3.6 2.7.8 3.9.2 1.2.4 2.4.5 3.4.1 1 .2 1.9.2 2.4v.9s-.1-.3-.2-.9c-.1-.6-.2-1.4-.4-2.4s-.4-2.2-.6-3.4c-.2-1.2-.5-2.6-.8-3.9-.3-1.3-.6-2.6-.9-3.8-.3-1.2-.6-2.4-.9-3.3-.6-1.9-.9-3.2-.9-3.2zm-6.8-7.5s-.1 0-.4.1c-.2.1-.5.3-.9.6-.3.3-.7.7-1.1 1.2-.2.2-.3.6-.5.9-.2.3-.3.7-.4 1-.3.7-.4 1.6-.6 2.5 0 .5-.1.9-.1 1.4 0 .2 0 .5-.1.7v.7c0 1 0 2 .1 3s.1 2.1.3 3.1c.2 1 .2 2.1.5 3.1l.6 3c.2 1 .5 1.9.7 2.8.2.9.4 1.7.6 2.5.9 3.1 1.4 5.1 1.4 5.1s-.7-2-1.7-5c-.2-.8-.5-1.6-.7-2.5-.2-.9-.5-1.8-.7-2.8l-.6-3c-.2-1-.3-2.1-.5-3.1-.2-1.1-.2-2.1-.3-3.2-.1-1-.1-2.1 0-3.1 0-.5 0-1 .1-1.5s.1-1 .2-1.4c.2-.9.4-1.8.7-2.5.1-.4.3-.7.5-1.1.2-.3.3-.6.6-.9.4-.5.8-.9 1.2-1.2.4-.3.7-.4 1-.5 0 .1.1.1.1.1z" fill="#3B2B78"/><path d="M57.3 207.6l-4.5 50.8s-3.8 2.5-6.7-.8c0 0-6-45.4-.6-54.9 3.5-6 12.1-4.6 11.8 4.9z" fill="#63B7CE"/><path d="M55.2 232.1l-.1 1.7c-1.3.3-3.1.7-5 .7s-4.1-.3-6.1-1.1c0-.6-.1-1.2-.1-1.8 4 2 8.7 1.2 11.3.5zm.5-5.6l-.2 1.7c-1.4.4-3.4.8-5.6.8-2 0-4.2-.3-6.4-1.3 0-.6 0-1.2-.1-1.8 4.7 2.4 9.8 1.4 12.3.6zM53.1 200c-1.3 0-2.7-.1-4.2-.4 1.8-.8 3.8-.7 5.4.4h-1.2zm-8.9 38.3c0-.6-.1-1.2-.1-1.8 3.9 1.8 8.1 1.2 10.7.6l-.1 1.7c-1.3.3-2.9.5-4.6.5-1.9 0-3.9-.3-5.9-1zm.5 5.6c-.1-.6-.1-1.2-.2-1.7 3.5 1.4 7.2 1.1 9.7.5l-.1 1.7c-1.2.2-2.6.4-4.1.4-1.7-.1-3.5-.3-5.3-.9zm-1.3-21.4v-1.7c4.9 2.1 10.2 1 12.8.3l-.1 1.7c-1.5.4-3.7.8-6.1.8-2.1 0-4.4-.3-6.6-1.1zm0-5.9c.1-2.6.2-5 .5-7.2 5.3 1.8 10.9.6 13.3-.1L57 211c-1.6.4-4.1.9-6.9.9-2 0-4.2-.2-6.4-.9-.1 1.2-.2 2.5-.2 3.9 5 1.9 10.5.9 13.2.2l-.1 1.7c-1.6.4-3.8.8-6.4.8-2.2.1-4.5-.2-6.8-1zm1.5-12.2l.6-1.5c4.1 1.3 8.5.9 11.3.3.2.5.3 1 .4 1.5-1.5.3-3.5.6-5.7.6-2.1.1-4.4-.1-6.6-.9z" fill="#3B8293"/><path d="M45.1 203.6s-.1.1-.2.4c-.1.3-.2.7-.3 1.2-.2 1.1-.5 2.6-.6 4.5-.1.9-.1 1.9-.2 3 0 1.1-.1 2.2-.1 3.4v3.6c0 1.2 0 2.5.1 3.7 0 2.5.1 5 .2 7.3s.2 4.5.3 6.4c.2 3.8.3 6.3.3 6.3s-.1-.6-.2-1.7-.3-2.6-.5-4.5c-.1-.9-.2-2-.2-3-.1-1.1-.2-2.2-.2-3.4-.1-2.3-.3-4.9-.3-7.4v-3.7c0-1.2 0-2.5.1-3.6 0-1.2.1-2.3.2-3.4s.2-2.1.3-3c.1-.9.2-1.8.4-2.5.2-.8.3-1.4.5-1.9.1-.5.3-.9.4-1.2-.1-.3 0-.5 0-.5zm11.9 7.7s0 .7-.1 1.9-.2 2.9-.3 5c-.2 2.1-.3 4.5-.5 7-.2 2.6-.4 5.3-.7 8-.3 2.7-.5 5.5-.8 8-.3 2.6-.5 5-.7 7-.2 2-.4 3.8-.6 5-.1 1.2-.2 1.9-.2 1.9s0-.7.1-1.9.2-2.9.3-5c.2-2.1.3-4.5.5-7 .2-2.6.4-5.3.7-8 .3-2.7.5-5.5.8-8 .3-2.6.5-5 .7-7 .2-2 .4-3.8.6-5 .1-1.2.2-1.9.2-1.9z" fill="#466D8C"/><path d="M68 270.8l-.1 1.3s-6.4 1.5-10 .5c-3.6-1-8-2.8-8.9-2.8v1s-2.9 0-4.6-1.2l-.1-4.1c-.1 0 20.4-2 23.7 5.3z" fill="#17110B"/><path d="M54.4 245.5s-3.4 3.7-10.1-.1c0 0 .3 13.9.3 16.5 0 2.5-2 5.8 2.9 6.6 4.9.8 7.4 3 12.6 3.2 5.2.2 7.9-.9 7.9-.9s.2-3-1.9-4.4c-2.2-1.4-8.9-3.4-10.7-6.2-1.8-2.8-1-14.7-1-14.7z" fill="#4F3B26"/><path d="M68 270.8s0-.5-.1-1.4c-.1-.4-.2-1-.5-1.5s-.7-1.1-1.4-1.4c-1.4-.6-3.1-1.1-4.8-2-1.7-.8-3.6-1.7-5.1-3.2-.7-.7-1.4-1.6-1.6-2.7-.2-1-.2-2-.3-2.9-.1-1.9-.1-3.7-.1-5.2.1-3 .2-5.1.2-5.1s0 2 .1 5.1c0 1.5.1 3.3.2 5.2.1.9.2 1.9.3 2.9.2.9.7 1.7 1.4 2.4 1.4 1.4 3.2 2.3 4.9 3.1.9.4 1.7.8 2.5 1.1.8.4 1.6.7 2.2 1 .7.4 1.2 1 1.4 1.6.2.6.3 1.1.4 1.6.4.9.3 1.4.3 1.4zm-14.4-24.7s-.4.4-1.2.8c-.4.2-.9.3-1.4.4-.5.1-1.1.1-1.7.1-.3 0-.6 0-.9-.1-.3-.1-.6-.1-.8-.2-.5-.1-1-.3-1.4-.5-.4-.1-.7-.4-.9-.5-.2-.1-.3-.2-.3-.2s.1 0 .4.1c.2.1.6.2 1 .3.2.1.4.1.6.2.2 0 .5.1.7.1.2.1.5.1.8.1.3.1.5 0 .8.1 1.1.1 2.2 0 2.9-.2.4-.1.7-.2.9-.3.4-.1.5-.2.5-.2zm-9.2 1.2s.1 1.4.2 3.6c0 1.1.1 2.4.2 3.7 0 1.4.1 2.8.1 4.3v2.2c0 .7-.1 1.5-.2 2.1-.2 1.3-.4 2.6 0 3.6.2.5.6.8.9 1.1.2.1.4.2.5.3.2.1.3.1.5.2.3.1.6.1.7.2-.2 0-.4 0-.7-.1-.2 0-.3-.1-.5-.1-.2-.1-.4-.2-.6-.2-.4-.2-.8-.6-1.1-1.1-.5-1.1-.4-2.4-.2-3.8.1-.7.2-1.3.2-2.1v-13.9z" fill="#241B10"/><path d="M63 265.2s-.2.1-.4.3c-.2.2-.5.5-.8.7-.3.3-.6.5-.8.7-.2.2-.4.3-.4.3s.1-.2.2-.5.4-.6.7-.9c.3-.3.7-.5 1-.6.3-.1.5 0 .5 0zm-4.2-2.1s-.2.1-.4.3c-.2.2-.6.4-.9.7-.3.2-.6.5-.9.7-.1.1-.2.2-.3.2l-.1.1s0-.2.2-.5c.1-.3.4-.7.7-1 .3-.3.8-.5 1.1-.5h.6zm-3.4-2.9l-.4.2c-.1 0-.3.1-.4.2-.2.1-.3.1-.5.2-.3.1-.7.3-.9.4-.1.1-.2.1-.3.1h-.1s.1-.2.3-.4l.4-.4c.2-.1.3-.2.5-.3.4-.2.8-.2 1.1-.2.1.1.3.2.3.2zm-.9-4.9s-.1.2-.4.4c-.1.1-.3.2-.5.2-.2.1-.4.1-.7.1-.2 0-.5 0-.7-.1-.2 0-.4-.1-.5-.2-.3-.1-.5-.3-.5-.3h1.6c.4 0 .8 0 1.1-.1h.6zm-.1-5.8s-.1.2-.4.4c-.3.2-.7.4-1.1.5-.2 0-.5.1-.7 0-.2 0-.4-.1-.6-.1-.2-.1-.3-.2-.4-.2l-.1-.1h.5c.3 0 .7-.1 1.1-.1.2 0 .4-.1.6-.1.2 0 .4-.1.5-.1.4-.2.6-.2.6-.2zM49 268.4s-.1-.5-.3-1.3c-.2-.8-.5-1.8-1-2.7-.1-.2-.3-.4-.4-.6-.2-.2-.3-.4-.5-.6l-.5-.5c-.2-.1-.3-.3-.5-.4-.2-.1-.3-.2-.5-.3-.1-.1-.3-.1-.4-.2-.2-.1-.3-.1-.3-.1h.4c.2 0 .6.1 1 .2l.6.3c.2.1.4.3.6.4.4.3.7.8 1 1.3.1.3.3.5.3.8.1.3.2.5.2.8.1.5.2 1 .2 1.4.2 1 .1 1.5.1 1.5z" fill="#241B10"/><path d="M52.9 209.7c8.2 1.2 10.9-39.7 8-50.9-2.9-11.1-15.6-12.3-17.1 5.5-1.5 17.7-1.7 43.8 9.1 45.4z" fill="#63B7CE"/><path d="M53.1 194.3c-2.6 0-5.8-.5-9.4-2-.1-.6-.1-1.2-.2-1.8 5.7 2.7 10.3 2.5 13.3 1.9 1.8-.4 3.2-1 4.1-1.5-.1.6-.2 1.3-.3 1.9-.9.4-2.1.8-3.4 1.1-1.2.2-2.5.4-4.1.4zm0-22.6c-2.7 0-6-.4-9.6-1.8 0-.6.1-1.1.1-1.6 5.8 2.3 10.5 2.1 13.5 1.5 2.3-.5 3.9-1.2 4.9-1.7 0 .6 0 1.1.1 1.7-1.1.5-2.6 1.1-4.6 1.5-1.3.2-2.7.4-4.4.4zm4.3-17c-1.2.3-2.7.4-4.4.4-1.9 0-4-.2-6.3-.8.3-.5.7-1 1.1-1.4 3.8.8 7 .6 9.2.2.3-.1.6-.1.8-.2.4.4.8.8 1.1 1.3-.5.3-1 .4-1.5.5zm-4.4 5.5c-2.4 0-5.1-.3-8.2-1.3.1-.5.3-1 .5-1.5 5 1.6 9 1.4 11.7.8 1.3-.3 2.5-.6 3.4-1 .2.5.3 1 .5 1.5-.9.4-2.1.8-3.5 1-1.2.3-2.7.4-4.4.5zm0 5.6c-2.6 0-5.7-.4-9.2-1.6 0-.6.1-1.1.2-1.6 5.6 2.1 10.1 1.9 13 1.3 2-.4 3.5-1 4.5-1.5.1.5.1 1.1.2 1.7-1.1.5-2.5 1-4.3 1.4-1.2.1-2.7.3-4.4.3zm.1 34.2c-2.4 0-5.2-.4-8.5-1.6-.1-.6-.3-1.2-.4-1.9 5.3 2.3 9.7 2.1 12.5 1.5 1.2-.3 2.2-.6 3.1-1-.1.6-.3 1.3-.4 1.9-.7.2-1.4.5-2.2.7-1.1.2-2.5.4-4.1.4zm-6.1 5l-.9-1.8c4.9 1.3 9.9.3 12.2-.3l-.6 1.8c-1.6.4-3.8.8-6.3.8-1.4-.1-2.9-.2-4.4-.5zm6.3-15.8c-2.8 0-6.2-.5-10.1-2.2 0-.6-.1-1.2-.1-1.8 6 2.8 10.8 2.7 13.9 2 2-.4 3.4-1.1 4.4-1.6-.1.6-.1 1.2-.2 1.9-1 .5-2.2.9-3.8 1.3-1.1.2-2.5.4-4.1.4zm-.2-5.7c-2.8 0-6.2-.5-10-2v-1.7c6 2.5 10.9 2.3 14 1.7 2.1-.4 3.7-1.1 4.7-1.6 0 .6-.1 1.2-.1 1.8-1.1.5-2.5 1-4.2 1.4-1.2.2-2.7.4-4.4.4zm0-6.1c-2.8 0-6.1-.5-9.9-1.9 0-.6 0-1.1.1-1.7 5.9 2.4 10.7 2.2 13.9 1.6 2.3-.5 4-1.2 5-1.8v1.8c-1.1.5-2.6 1.1-4.5 1.5-1.4.3-2.9.5-4.6.5z" fill="#3B8293"/><path d="M46.2 203.4s-.3-.6-.7-1.7c-.2-.5-.4-1.2-.6-2-.2-.8-.5-1.6-.6-2.6-.2-1-.4-2-.6-3.1-.1-1.1-.4-2.3-.5-3.5-.1-1.2-.2-2.5-.3-3.8-.1-1.3-.1-2.6-.2-3.9v-3.9c0-1.3 0-2.6.1-3.8.1-1.2.1-2.4.2-3.5s.2-2.2.3-3.2c.2-2 .4-3.6.5-4.7.1-1.1.2-1.8.2-1.8s0 .7-.1 1.8-.2 2.8-.3 4.7c-.1 1-.1 2-.2 3.2-.1 1.1-.1 2.3-.1 3.5-.1 1.2-.1 2.5-.1 3.8v3.9c0 1.3 0 2.6.1 3.9.1 1.3.2 2.5.3 3.8.1 1.2.3 2.4.4 3.5.2 1.1.3 2.2.5 3.1.3 1.9.7 3.5 1.1 4.6.4 1.1.6 1.7.6 1.7zm14.5-45.7s.1.1.2.5c.1.3.2.8.3 1.3.2 1.1.5 2.8.7 4.8.1 1 .2 2.1.3 3.2.1 1.1.2 2.4.2 3.6v3.9c0 1.3-.1 2.7-.1 4-.1 1.3-.2 2.7-.3 4-.1 1.3-.3 2.6-.4 3.8-.1 1.2-.3 2.4-.5 3.6-.2 1.1-.4 2.2-.6 3.2-.2 1-.3 1.9-.5 2.7-.2.8-.3 1.5-.5 2.1-.3 1.1-.4 1.8-.4 1.8s.1-.7.3-1.8c.1-.6.2-1.3.4-2.1s.3-1.7.4-2.7c.1-1 .3-2.1.5-3.2.1-1.1.3-2.3.4-3.6.1-1.2.2-2.5.4-3.8.1-1.3.2-2.6.2-4 0-1.3.1-2.7.1-4v-3.9c0-2.5-.1-4.8-.3-6.8-.2-2-.3-3.7-.5-4.8-.1-.6-.2-1-.2-1.3 0-.4-.1-.5-.1-.5z" fill="#466D8C"/><path d="M83 202.4l-4.5 50.8s-3.8 2.5-6.7-.8c0 0-6-45.4-.6-54.9 3.5-6.1 12.1-4.6 11.8 4.9z" fill="#63B7CE"/><path d="M80.8 226.9l-.1 1.7c-1.3.3-3.1.7-5 .7s-4.1-.3-6.1-1.1c0-.6-.1-1.2-.1-1.8 4.1 2 8.8 1.2 11.3.5zm.5-5.6l-.2 1.7c-1.4.4-3.4.8-5.6.8-2 0-4.2-.3-6.4-1.3 0-.6 0-1.2-.1-1.8 4.7 2.4 9.9 1.3 12.3.6zm-2.5-26.5c-1.3 0-2.7-.1-4.2-.4 1.8-.8 3.8-.7 5.4.4h-1.2zm-9 38.3c0-.6-.1-1.2-.1-1.8 3.9 1.8 8.1 1.2 10.7.6l-.1 1.7c-1.3.3-2.9.5-4.6.5-1.9 0-3.9-.3-5.9-1zm.5 5.6c-.1-.6-.1-1.2-.2-1.7 3.5 1.4 7.2 1.1 9.7.5l-.1 1.7c-1.2.2-2.6.4-4.1.4-1.6-.1-3.5-.3-5.3-.9zM69 217.2v-1.7c4.9 2.1 10.2 1 12.8.3l-.1 1.7c-1.5.4-3.7.8-6.1.8-2.1.1-4.4-.2-6.6-1.1zm0-5.8c.1-2.6.2-5 .5-7.2 5.3 1.8 10.9.6 13.3-.1l-.1 1.7c-1.6.4-4.1.9-6.9.9-2 0-4.2-.2-6.4-.9-.1 1.2-.2 2.5-.2 3.9 5 1.9 10.5.9 13.2.2l-.1 1.7c-1.6.4-3.8.8-6.4.8-2.2.1-4.6-.2-6.9-1zm1.5-12.2l.6-1.5c4.1 1.3 8.5.9 11.3.3.2.5.3 1 .4 1.5-1.5.3-3.5.6-5.7.6-2.1.1-4.4-.2-6.6-.9z" fill="#3B8293"/><path d="M70.7 198.4s-.1.1-.2.4c-.1.3-.2.7-.3 1.2-.2 1.1-.5 2.6-.6 4.5-.1.9-.1 1.9-.2 3 0 1.1-.1 2.2-.1 3.4v3.6c0 1.2 0 2.5.1 3.7 0 2.5.1 5 .2 7.3s.2 4.5.3 6.4c.2 3.8.3 6.3.3 6.3s-.1-.6-.2-1.7-.3-2.6-.5-4.5c-.1-.9-.2-2-.2-3-.1-1.1-.2-2.2-.2-3.4-.1-2.3-.3-4.9-.3-7.4v-3.7c0-1.2 0-2.5.1-3.6 0-1.2.1-2.3.2-3.4s.2-2.1.3-3c.1-.9.2-1.8.4-2.5.2-.8.3-1.4.5-1.9.1-.5.3-.9.4-1.2-.1-.3 0-.5 0-.5zm12 7.7s0 .7-.1 1.9-.2 2.9-.3 5c-.2 2.1-.3 4.5-.5 7-.2 2.6-.4 5.3-.7 8-.3 2.7-.5 5.5-.8 8-.3 2.6-.5 5-.7 7-.2 2-.4 3.8-.6 5-.1 1.2-.2 1.9-.2 1.9s0-.7.1-1.9.2-2.9.3-5c.2-2.1.3-4.5.5-7 .2-2.6.4-5.3.7-8 .3-2.7.5-5.5.8-8 .3-2.6.5-5 .7-7 .2-2 .4-3.8.6-5 .1-1.2.2-1.9.2-1.9z" fill="#466D8C"/><path d="M93.6 265.6l-.1 1.3s-6.4 1.5-10 .5c-3.6-1-8-2.8-8.9-2.8v1s-2.9 0-4.6-1.2l-.1-4.1c0-.1 20.4-2.1 23.7 5.3z" fill="#17110B"/><path d="M80.1 240.3s-3.4 3.7-10.1-.1c0 0 .3 13.9.3 16.5 0 2.5-2 5.8 2.9 6.6 4.9.7 7.4 3 12.6 3.2 5.2.2 7.9-.9 7.9-.9s.2-3-1.9-4.4c-2.1-1.4-8.9-3.4-10.7-6.2-1.8-2.8-1-14.7-1-14.7z" fill="#4F3B26"/><path d="M93.6 265.6s0-.5-.1-1.4c-.1-.4-.2-1-.5-1.5s-.7-1.1-1.4-1.4c-1.4-.6-3.1-1.1-4.8-2-1.7-.8-3.6-1.7-5.1-3.2-.7-.7-1.4-1.6-1.6-2.7-.2-1-.2-2-.3-2.9-.1-1.9-.1-3.7-.1-5.2.1-3 .2-5.1.2-5.1s0 2 .1 5.1c0 1.5.1 3.3.2 5.2.1.9.2 1.9.3 2.9.2.9.7 1.7 1.4 2.4 1.4 1.4 3.2 2.3 4.9 3.1.9.4 1.7.8 2.5 1.1.8.4 1.6.7 2.2 1 .7.4 1.2 1 1.4 1.6.2.6.3 1.1.4 1.6.4.9.3 1.4.3 1.4zm-14.3-24.7s-.4.4-1.2.8c-.4.2-.9.3-1.4.4-.5.1-1.1.1-1.7.1-.3 0-.6 0-.9-.1-.3-.1-.6-.1-.8-.2-.5-.1-1-.3-1.4-.5-.4-.1-.7-.4-.9-.5-.2-.1-.3-.2-.3-.2s.1 0 .4.1c.2.1.6.2 1 .3.2.1.4.1.6.2.2 0 .5.1.7.1.2.1.5.1.8.1.3.1.5 0 .8.1 1.1.1 2.2 0 2.9-.2.4-.1.7-.2.9-.3.3-.2.5-.2.5-.2zm-9.2 1.2s.1 1.4.2 3.6c0 1.1.1 2.4.2 3.7 0 1.4.1 2.8.1 4.3v2.2c0 .7-.1 1.5-.2 2.1-.2 1.3-.4 2.6 0 3.6.2.5.6.8.9 1.1.2.1.4.2.5.3.2.1.3.1.5.2.3.1.6.1.7.2-.2 0-.4 0-.7-.1-.2 0-.3-.1-.5-.1-.2-.1-.4-.2-.6-.2-.4-.2-.8-.6-1.1-1.1-.5-1.1-.4-2.4-.2-3.8.1-.7.2-1.3.2-2.1v-10.2c-.1-2.2 0-3.7 0-3.7z" fill="#241B10"/><path d="M88.6 259.9s-.2.1-.4.3c-.2.2-.5.5-.8.7-.3.3-.6.5-.8.7-.2.2-.4.3-.4.3s.1-.2.2-.5.4-.6.7-.9c.3-.3.7-.5 1-.6h.5zm-4.1-2s-.2.1-.4.3c-.2.2-.6.4-.9.7-.3.2-.6.5-.9.7-.1.1-.2.2-.3.2l-.1.1s0-.2.2-.5c.1-.3.4-.7.7-1 .3-.3.8-.5 1.1-.5h.6zM81 255l-.4.2c-.1 0-.3.1-.4.2-.2.1-.3.1-.5.2-.3.1-.7.3-.9.4-.1.1-.2.1-.3.1h-.1s.1-.2.3-.4l.4-.4c.2-.1.3-.2.5-.3.4-.2.8-.2 1.1-.2.2.1.3.2.3.2zm-.9-4.9s-.1.2-.4.4c-.1.1-.3.2-.5.2-.2.1-.4.1-.7.1-.2 0-.5 0-.7-.1-.2 0-.4-.1-.5-.2-.3-.1-.5-.3-.5-.3h1.6c.4 0 .8 0 1.1-.1h.6zm-.1-5.8s-.1.2-.4.4c-.3.2-.7.4-1.1.5-.2 0-.5.1-.7 0-.2 0-.4-.1-.6-.1-.2-.1-.3-.2-.4-.2l-.1-.1h.5c.3 0 .7-.1 1.1-.1.2 0 .4-.1.6-.1.2 0 .4-.1.5-.1.4-.2.6-.2.6-.2zm-5.4 18.9s-.1-.5-.3-1.3c-.2-.8-.5-1.8-1-2.7-.1-.2-.3-.4-.4-.6-.2-.2-.3-.4-.5-.6l-.5-.5c-.2-.1-.3-.3-.5-.4-.2-.1-.3-.2-.5-.3-.1-.1-.3-.1-.4-.2-.2-.1-.3-.1-.3-.1h.4c.2 0 .6.1 1 .2l.6.3c.2.1.4.3.6.4.4.3.7.8 1 1.3.1.3.3.5.3.8.1.3.2.5.2.8.1.5.2 1 .2 1.4.2 1 .1 1.5.1 1.5z" fill="#241B10"/><path d="M78.6 204.4c8.2 1.2 10.9-39.7 8-50.9-2.9-11.1-15.6-12.3-17.1 5.5-1.5 17.8-1.8 43.9 9.1 45.4z" fill="#63B7CE"/><path d="M78.7 189.1c-2.6 0-5.8-.5-9.4-2-.1-.6-.1-1.2-.2-1.8 5.7 2.7 10.3 2.5 13.3 1.9 1.8-.4 3.2-1 4.1-1.5-.1.6-.2 1.3-.3 1.9-.9.4-2.1.8-3.4 1.1-1.1.2-2.5.4-4.1.4zm0-22.6c-2.7 0-6-.4-9.6-1.8 0-.6.1-1.1.1-1.6 5.8 2.3 10.5 2.1 13.5 1.5 2.3-.5 3.9-1.2 4.9-1.7 0 .6 0 1.1.1 1.7-1.1.5-2.6 1.1-4.6 1.5-1.2.2-2.7.4-4.4.4zm4.3-17c-1.2.3-2.7.4-4.4.4-1.9 0-4-.2-6.3-.8.3-.5.7-1 1.1-1.4 3.8.8 7 .6 9.2.2.3-.1.6-.1.8-.2.4.4.8.8 1.1 1.3-.4.3-.9.4-1.5.5zm-4.4 5.4c-2.4 0-5.1-.3-8.2-1.3.1-.5.3-1 .5-1.5 5 1.6 9 1.4 11.7.8 1.3-.3 2.5-.6 3.4-1 .2.5.3 1 .5 1.5-.9.4-2.1.8-3.5 1-1.2.3-2.7.5-4.4.5zm.1 5.7c-2.6 0-5.7-.4-9.2-1.6 0-.6.1-1.1.2-1.6 5.6 2.1 10.1 1.9 13 1.3 2-.4 3.5-1 4.5-1.5.1.5.1 1.1.2 1.7-1.1.5-2.5 1-4.3 1.4-1.3.1-2.7.3-4.4.3zm.1 34.2c-2.4 0-5.2-.4-8.5-1.6-.1-.6-.3-1.2-.4-1.9 5.3 2.3 9.7 2.1 12.5 1.5 1.2-.3 2.2-.6 3.1-1-.1.6-.3 1.3-.4 1.9-.7.2-1.4.5-2.2.7-1.2.2-2.6.4-4.1.4zm-6.1 5l-.9-1.8c4.9 1.3 9.9.3 12.2-.3l-.6 1.8c-1.6.4-3.8.8-6.3.8-1.4-.1-2.9-.2-4.4-.5zM79 184c-2.8 0-6.2-.5-10.1-2.2 0-.6-.1-1.2-.1-1.8 6 2.8 10.8 2.7 13.9 2 2-.4 3.4-1.1 4.4-1.6-.1.6-.1 1.2-.2 1.9-1 .5-2.2.9-3.8 1.3-1.2.2-2.5.4-4.1.4zm-.2-5.7c-2.8 0-6.2-.5-10-2v-1.7c6 2.5 10.9 2.3 14 1.7 2.1-.4 3.7-1.1 4.7-1.6 0 .6-.1 1.2-.1 1.8-1.1.5-2.5 1-4.2 1.4-1.3.2-2.7.4-4.4.4zm-.1-6.1c-2.8 0-6.1-.5-9.9-1.9 0-.6 0-1.1.1-1.7 5.9 2.4 10.7 2.2 13.9 1.6 2.3-.5 4-1.2 5-1.8v1.8c-1.1.5-2.6 1.1-4.5 1.5-1.4.3-2.9.5-4.6.5z" fill="#3B8293"/><path d="M71.9 198.2s-.3-.6-.7-1.7c-.2-.5-.4-1.2-.6-2-.2-.8-.5-1.6-.6-2.6-.2-1-.4-2-.6-3.1-.1-1.1-.4-2.3-.5-3.5-.1-1.2-.2-2.5-.3-3.8-.1-1.3-.1-2.6-.2-3.9v-3.9c0-1.3 0-2.6.1-3.8.1-1.2.1-2.4.2-3.5s.2-2.2.3-3.2c.2-2 .4-3.6.5-4.7.1-1.1.2-1.8.2-1.8s0 .7-.1 1.8-.2 2.8-.3 4.7c-.1 1-.1 2-.2 3.2-.1 1.1-.1 2.3-.1 3.5-.1 1.2-.1 2.5-.1 3.8v3.9c0 1.3 0 2.6.1 3.9.1 1.3.2 2.5.3 3.8.1 1.2.3 2.4.4 3.5.2 1.1.3 2.2.5 3.1.3 1.9.7 3.5 1.1 4.6.3 1.1.6 1.7.6 1.7zm14.4-45.8s.1.1.2.5c.1.3.2.8.3 1.3.2 1.1.5 2.8.7 4.8.1 1 .2 2.1.3 3.2.1 1.1.2 2.4.2 3.6v3.9c0 1.3-.1 2.7-.1 4-.1 1.3-.2 2.7-.3 4-.1 1.3-.3 2.6-.4 3.8-.1 1.2-.3 2.4-.5 3.6-.2 1.1-.4 2.2-.6 3.2-.2 1-.3 1.9-.5 2.7-.2.8-.3 1.5-.5 2.1-.3 1.1-.4 1.8-.4 1.8s.1-.7.3-1.8c.1-.6.2-1.3.4-2.1s.3-1.7.4-2.7c.1-1 .3-2.1.5-3.2.1-1.1.3-2.3.4-3.6.1-1.2.2-2.5.4-3.8.1-1.3.2-2.6.2-4 0-1.3.1-2.7.1-4v-3.9c0-2.5-.1-4.8-.3-6.8-.2-2-.3-3.7-.5-4.8-.1-.6-.2-1-.2-1.3 0-.3-.1-.5-.1-.5z" fill="#466D8C"/><path d="M80.3 123.3c16.5 16.4 26 67.2 28 89.5 0 0-39.9 27-86.6 2 0 0 6.9-77.6 35.2-91.9 4.9-2.4 16.6-6.4 23.4.4z" fill="#714FAB"/><path d="M81.8 125s.1.1.3.4c.2.3.6.7 1 1.2s.9 1.2 1.4 1.9c.5.8 1.1 1.6 1.7 2.6.6 1 1.2 2 1.9 3.2.6 1.1 1.3 2.4 1.9 3.6.6 1.3 1.3 2.6 1.8 4l1.8 4.2c.6 1.4 1.1 2.8 1.6 4.2.5 1.4 1 2.8 1.4 4.1.5 1.3.8 2.7 1.2 3.9.4 1.2.7 2.4 1 3.5.3 1.1.6 2.1.8 3 .2.9.4 1.7.5 2.3.3 1.3.5 2 .5 2s-.2-.7-.6-2c-.2-.6-.4-1.4-.7-2.3-.2-.9-.6-1.9-.9-3-.3-1.1-.7-2.3-1.1-3.5-.4-1.2-.8-2.5-1.3-3.9-.5-1.3-.9-2.7-1.4-4.1-.5-1.4-1-2.8-1.6-4.2-.5-1.4-1.1-2.8-1.7-4.2-.6-1.4-1.2-2.7-1.8-4-.6-1.3-1.2-2.5-1.8-3.6-.6-1.2-1.2-2.2-1.8-3.2-.6-1-1.1-1.9-1.6-2.6-.5-.8-.9-1.4-1.3-2-.4-.5-.7-1-.9-1.2l-.3-.3zm-27.3-.7s-.2.1-.6.4c-.4.3-.9.7-1.5 1.2-.3.3-.6.6-1 .9-.4.3-.8.7-1.2 1.2-.8.8-1.7 1.8-2.6 2.9-.4.6-.9 1.2-1.4 1.8-.5.6-.9 1.3-1.4 2-.5.7-.9 1.4-1.4 2.1-.4.7-.9 1.5-1.4 2.3-.4.8-.9 1.6-1.3 2.4-.4.8-.8 1.7-1.3 2.5-.9 1.7-1.6 3.4-2.4 5.2-.8 1.8-1.5 3.5-2.2 5.3-.6 1.8-1.3 3.5-1.9 5.2-.6 1.7-1.1 3.4-1.6 4.9-.5 1.6-.9 3.1-1.3 4.4-.4 1.4-.8 2.6-1.1 3.8-.3 1.1-.6 2.1-.8 2.9-.4 1.6-.7 2.6-.7 2.6s.2-.9.6-2.6c.2-.8.4-1.8.7-3 .2-1.1.6-2.4.9-3.8.4-1.4.7-2.9 1.2-4.5s1-3.2 1.5-5c.6-1.7 1.2-3.5 1.8-5.2.7-1.8 1.4-3.6 2.1-5.3.8-1.7 1.5-3.5 2.4-5.2.4-.8.8-1.7 1.3-2.5s.9-1.6 1.4-2.4c.4-.8.9-1.5 1.4-2.3.5-.7.9-1.4 1.4-2.1.5-.7.9-1.3 1.4-1.9.5-.6 1-1.2 1.4-1.8.9-1.1 1.8-2.1 2.7-2.9.4-.4.8-.8 1.2-1.1.4-.3.7-.7 1.1-.9.7-.5 1.2-.9 1.6-1.2.8-.1 1-.3 1-.3z" fill="#3B2B78"/><path d="M55.9 126l-.5.5c-.3.3-.8.8-1.3 1.4-.5.6-1.1 1.3-1.7 2.1-.6.8-1.2 1.7-1.8 2.5-.6.9-1.1 1.8-1.6 2.7-.5.9-.9 1.7-1.3 2.4s-.6 1.3-.8 1.7c-.2.4-.3.7-.3.7s.1-.3.2-.7c.2-.4.3-1.1.6-1.8s.7-1.6 1.1-2.5l1.5-2.7c.6-.9 1.2-1.8 1.9-2.5.6-.8 1.3-1.4 1.9-2 1.2-1.2 2.1-1.8 2.1-1.8zm17.5 2.4s.6 2 1.4 5c.4 1.5.8 3.3 1.3 5.2.4 1.9.8 3.9 1.2 6 .4 2 .7 4.1 1 6 .1 1 .3 1.9.3 2.8.1.9.2 1.7.2 2.5.1 1.6.2 2.8.2 3.8v1.4s-.1-.5-.2-1.4c-.1-.9-.3-2.2-.4-3.7-.1-.8-.2-1.6-.3-2.5-.1-.9-.3-1.8-.4-2.8-.3-1.9-.7-4-1-6-.4-2-.8-4.1-1.1-6-.4-1.9-.8-3.7-1.1-5.2-.7-3.1-1.1-5.1-1.1-5.1zm-3.3-.4s.2 1.3.4 3.2c.1 1 .2 2.1.3 3.3.1 1.2.2 2.5.3 3.7.1 1.3.2 2.6.2 3.8.1 1.2.1 2.3.1 3.3.1 1.9.1 3.2.1 3.2s-.2-1.3-.4-3.2c-.1-1-.2-2.1-.3-3.3-.1-1.2-.2-2.5-.3-3.7-.1-1.3-.2-2.6-.2-3.8-.1-1.2-.1-2.3-.1-3.3-.1-2-.1-3.2-.1-3.2zm38.2 84.8s-1.2.8-3.3 2.1c-2.1 1.2-5.3 2.9-9.2 4.5-2 .8-4.1 1.6-6.5 2.3-2.3.7-4.8 1.4-7.4 2-2.6.6-5.3 1-8.1 1.4-2.8.3-5.6.6-8.5.6H61c-1.4 0-2.8-.1-4.2-.2-2.8-.2-5.5-.6-8.1-1-1.3-.2-2.6-.5-3.8-.8-1.3-.3-2.5-.6-3.6-.9-2.4-.6-4.5-1.4-6.6-2-2-.8-3.8-1.4-5.4-2.2-1.6-.7-3-1.3-4.1-1.9-2.2-1.1-3.5-1.8-3.5-1.8s1.3.6 3.5 1.7c1.1.6 2.5 1.1 4.1 1.8.4.2.8.3 1.2.5.4.2.9.3 1.3.5.9.3 1.9.7 2.9 1 2 .6 4.2 1.4 6.6 1.9l3.6.9c1.2.2 2.5.6 3.8.7 2.6.5 5.3.8 8.1 1 1.4.1 2.8.2 4.2.2h4.2c2.8 0 5.6-.3 8.4-.6 2.8-.4 5.5-.8 8-1.4 2.6-.6 5.1-1.2 7.4-1.9 2.3-.7 4.5-1.5 6.5-2.2 2-.8 3.8-1.5 5.3-2.3 1.6-.7 2.9-1.4 4-2 2.3-1.1 3.5-1.9 3.5-1.9z" fill="#3B2B78"/><path d="M61.4 69s2 8.7.1 10.9c-2 2.2-9.8 5.9-9.8 5.9s10.1 15.3 20.6 8.3C82.8 87.1 77 83 77 83s-6.1-1-5.2-8.2c-.1 0-4.9-9.8-10.4-5.8z" fill="#FFE9B8"/><g transform="translate(46 78)"><path d="M26.1 1.1c.1 1.5-3.1 2.3-5.9 2.1-2.8-.3-4.6-1.6-4.1-3 0 0-4.9 5.5-11.9 6.9-6.9 1.4-2.5 13.7.8 18.7 3.4 5 1 18.2 4.5 21.9 1.2 1.3 2.3.8 2.3.8s1 1 3.3 1.2c4.4.4 4.8-1 7.4 0 4.4 1.6 6.7.2 6.7.2s2.6.2 3.6-1c.3-.4.9-.7.9-.7s.9 0 1.7-1.4c1.4-2.4-.2-9.5-.5-16.5-.2-4.7-.7-9 .1-11.4 1.6-5.4 1.3-13.1-1.6-13.5-4.3-.7-7.3-4.3-7.3-4.3z" fill="#714FAB"/><path d="M7.8 41s0 .6.1 1.5c0 .4.1.9.2 1.5.1.5.2 1.1.4 1.6.1.3.2.5.3.8.1.3.3.5.4.7.2.2.3.4.5.6.2.1.4.3.5.4.2.1.4.2.5.2.2.1.3.1.4.1.3.1.4.1.4.1h-.9c-.2 0-.4-.1-.6-.2-.2-.1-.4-.2-.7-.4l-.6-.6c-.2-.2-.4-.5-.5-.7-.1-.3-.3-.6-.4-.8-.2-.6-.3-1.2-.4-1.7-.1-.6-.1-1.1 0-1.5.3-1 .4-1.6.4-1.6zm25.8 7.1h.3c.2 0 .5-.1.9-.3.3-.2.7-.6.9-1.1.2-.5.4-1.1.4-1.8.2-1.3 0-2.9-.2-4.6-.1-.8-.2-1.7-.3-2.6l-.3-2.7c-.1-1.8-.3-3.6-.4-5.4-.1-1.7-.1-3.3-.2-4.7v-3.3c0-.8.1-1.3.1-1.3v1.3c0 .8.1 1.9.2 3.3s.2 3 .4 4.7c.1 1.7.3 3.5.5 5.3l.3 2.7c.1.9.2 1.8.3 2.6.2 1.7.2 3.3 0 4.7-.1.7-.3 1.3-.6 1.8s-.6.9-1 1.1c-.4.2-.7.2-.9.2-.3.1-.4.1-.4.1z" fill="#3B2B78"/><path d="M34.4 47s0 .1-.1.3c-.1.2-.1.4-.3.7-.3.5-.8 1.2-1.5 1.5-.4.2-.7.3-1.1.4-.4.1-.7.1-1 0-.3 0-.5-.1-.7-.1-.2 0-.3-.1-.3-.1h.3c.2 0 .4 0 .7-.1.3 0 .6-.1.9-.2.3-.1.7-.2 1-.4l.9-.6c.3-.2.5-.4.7-.6.2-.4.5-.8.5-.8z" fill="#3B2B78"/><path d="M32.3 46.2s-.1.4-.4 1c-.3.6-.8 1.4-1.7 2.2-.9.8-2.2 1.3-3.7 1.3-.7 0-1.5-.1-2.2-.4-.7-.2-1.4-.5-2.1-.6-.7-.1-1.4-.1-2.1 0-.3.1-.7.2-1.1.2-.4.1-.8.1-1.1.1-1.4 0-2.8 0-3.9-.4-.6-.2-1.1-.4-1.4-.7-.4-.3-.6-.7-.7-1-.2-.6-.1-1-.1-1v.3c0 .2.1.4.2.7.1.3.4.6.8.8.4.2.8.4 1.4.6 1.1.2 2.4.2 3.8.2.4 0 .7 0 1-.1.3-.1.7-.2 1.1-.3.8-.2 1.6-.1 2.4 0 .8.1 1.5.4 2.2.6.7.2 1.4.4 2.1.4 1.4.1 2.6-.4 3.5-1.1.9-.7 1.5-1.4 1.8-2 0-.5.2-.8.2-.8zM16.1.2s0 .2.1.4c0 .3.2.6.5 1 .1.2.3.3.5.5s.4.2.7.4c.3.1.5.2.8.3.3 0 .6.1.9.1.6.1 1.2.1 1.8.1H23c.9-.1 1.6-.1 1.6-.1s-.6.2-1.5.4c-.2 0-.5.1-.8.1-.3 0-.6.1-.9.1h-1.9c-.3 0-.6-.1-1-.2l-.9-.3c-.3-.1-.5-.3-.7-.5-.2-.2-.4-.4-.5-.6-.3-.4-.3-.9-.3-1.1-.1-.5 0-.6 0-.6z" fill="#3B2B78"/><path d="M22.5 2.9s.2.9.5 2.1c.3 1.3.6 3 .8 4.8.2 1.7.4 3.5.5 4.8v2.2s0-.2-.1-.6c-.1-.4-.2-.9-.3-1.6-.2-1.3-.5-3-.7-4.8-.2-1.7-.4-3.5-.5-4.8-.1-1.2-.2-2.1-.2-2.1zm-15 3.2s.1-.1.3-.2c.2-.1.5-.2.8-.4.3-.2.7-.4 1.1-.7.4-.3.8-.5 1.3-.8.9-.6 1.7-1.2 2.3-1.6.6-.4 1.1-.7 1.1-.7s-.3.4-.9 1c-.3.3-.6.6-1 .9l-1.2.9c-.4.3-.9.6-1.3.8-.4.2-.9.4-1.3.5-.7.3-1.2.3-1.2.3zm18.6-5s.3.2.8.5 1.1.8 1.7 1.2l.9.6c.3.2.5.4.8.5.2.1.4.3.6.4.1.1.2.1.2.1s-.4 0-1-.2c-.3-.1-.6-.2-.9-.4-.3-.2-.6-.4-1-.6-.3-.2-.6-.5-.9-.7-.3-.2-.5-.5-.7-.7-.3-.3-.5-.7-.5-.7z" fill="#3B2B78"/><circle fill="#9EA69A" transform="rotate(-.273 24.2 5.4)" cx="24.201" cy="5.401" r="1"/><circle fill="#9EA69A" transform="rotate(-.273 24.9 9.9)" cx="24.901" cy="9.901" r="1"/><circle fill="#9EA69A" transform="rotate(-.273 25.4 13.701)" cx="25.401" cy="13.701" r="1"/></g><path d="M42.3 156.1s2.2 1.9 2.1 6.3c0 3 .9 5.4 0 5.5-1.7.3-1.5-4.4-1.5-4.4s-1.2 4.2-.6 5.9c.5 1.2.2 3.4-.4 3.5-.6.2-1.3-2.8-1.7-4.7 0 0 .2 2.3.1 3.6-.1 1.4-.6 1.9-1.4.4 0 0-1.1 2.2-2-2.4 0 0-1 .4-1.2-2.1-.1-2.4-.2-15 6.6-11.6z" fill="#FFE9B8"/><path d="M41.4 172.5s-.3-.4-.6-1.1c-.1-.4-.3-.8-.4-1.2-.1-.5-.2-1-.2-1.5s-.1-1 0-1.5c0-.5.1-.9.1-1.3s.1-.7.2-.9c.1-.2.1-.3.1-.3v2.5c0 .5 0 1 .1 1.4 0 .5.1 1 .2 1.4.1.5.1.9.2 1.2.2.8.3 1.3.3 1.3zm-2.5-.3s-.3-.4-.5-1.1c-.1-.3-.2-.7-.3-1.2-.1-.4-.1-.9-.2-1.4-.1-1 0-1.9.2-2.6.1-.4.2-.6.2-.8.1-.2.1-.3.1-.3v2.3c0 .4 0 .9.1 1.3 0 .9.1 1.8.2 2.5.1.9.2 1.3.2 1.3zm-1.9-2.3l-.3-.9c0-.3-.1-.6-.2-.9 0-.3-.1-.7-.1-1 0-.7 0-1.4.2-1.9.1-.5.3-.9.3-.9s0 .4.1.9c0 .3 0 .6.1.9v2.9c-.1.5-.1.9-.1.9zm5.9-12.9s.1 0 .2.1l.5.5c.3.5.6 1.2.7 1.9.1.4.1.7.2 1.1v.9c0 .6-.1.9-.1.9s-.1-.4-.2-.9-.3-1.2-.4-1.9c-.1-.4-.1-.7-.2-1-.1-.3-.1-.6-.2-.9-.1-.2-.2-.5-.3-.6-.1-.1-.2-.1-.2-.1z" fill="#BD875F"/><path d="M47.1 122.9c1.3 4.5-.6 14.6-2.1 21.5-1 4.4-2.1 12.5-2.1 12.5-1.5 1.4-3.2.7-4.8-.2 0 0-.2-3.7-.6-10.9-.4-7.8.9-21.2 2.9-23.3 2.4-2.5 6-1.8 6.7.4z" fill="#714FAB"/><path d="M47.5 125.9s.1 1.4 0 3.4c-.1 1-.1 2.2-.2 3.5-.1 1.3-.3 2.7-.5 4-.2 1.4-.5 2.7-.7 4-.1.6-.3 1.2-.4 1.8-.1.6-.3 1.1-.4 1.6-.3 1-.5 1.8-.7 2.4l-.3.9s.3-1.3.7-3.4c.2-1 .4-2.2.6-3.5.2-1.3.5-2.6.6-4 .2-1.4.4-2.7.6-4 .2-1.3.3-2.5.4-3.5.2-1.9.3-3.2.3-3.2zm-9.3 30.4s-.1-.5-.2-1.3-.3-2-.4-3.3c-.1-1.4-.3-3-.3-4.7-.1-1.7-.1-3.6-.1-5.5s.1-3.7.3-5.4c.1-.9.1-1.7.2-2.5s.2-1.5.3-2.2c.2-1.4.4-2.5.6-3.3l.3-1.2s-.1.5-.1 1.3c-.1.4-.1.9-.2 1.4-.1.6-.1 1.2-.2 1.9-.1 1.4-.3 3-.4 4.7-.1 1.7-.2 3.6-.2 5.4-.1 1.8 0 3.7 0 5.4 0 1.7.1 3.4.2 4.7 0 2.8.2 4.6.2 4.6z" fill="#3B2B78"/><path d="M54.3 101.2c.6-4.2 1.6-21.8-7.1-14.1-8.4 7.4-10.6 43.9-4.3 41.9 6.3-2.1 10-18.4 11.4-27.8z" fill="#714FAB"/><path d="M54.7 94.6s0 1.4-.1 3.4c-.1 1-.1 2.2-.3 3.5-.2 1.3-.3 2.6-.5 3.9-.2 1.3-.5 2.7-.8 3.9-.3 1.2-.6 2.4-.9 3.4-.3 1-.6 1.8-.8 2.3l-.3.9s.1-.3.2-.9c.1-.6.3-1.4.5-2.4s.4-2.1.7-3.4c.3-1.2.5-2.6.7-3.9.2-1.3.4-2.7.6-3.9.2-1.3.3-2.4.5-3.4.4-2 .5-3.4.5-3.4zm-3.3-9.4H51c-.3 0-.6 0-1.1.2-.4.1-1 .4-1.5.8-.3.2-.5.4-.8.7-.3.2-.5.5-.8.8-.6.6-1 1.4-1.5 2.1-.2.4-.4.8-.6 1.3-.1.2-.2.4-.3.7-.1.2-.2.5-.3.7-.4.9-.8 1.9-1.1 2.9-.3 1-.7 2-.9 3.1-.2 1.1-.6 2.1-.7 3.1-.2 1-.4 2.1-.6 3.1-.2 1-.3 2-.4 2.9-.1.9-.3 1.8-.4 2.6-.4 3.2-.6 5.4-.6 5.4s.1-2.2.3-5.4c.1-.8.2-1.7.3-2.6.1-.9.2-1.9.4-2.9s.4-2.1.5-3.1c.2-1.1.5-2.1.7-3.2.2-1.1.6-2.1.9-3.1.3-1 .7-2 1.1-3 .1-.2.2-.5.3-.7.1-.2.2-.4.4-.7.2-.4.5-.9.7-1.3.6-.8 1-1.5 1.6-2.1.3-.3.5-.6.9-.8.3-.2.6-.5.9-.6.6-.4 1.1-.6 1.6-.7.5-.1.9-.1 1.1-.1.1-.2.3-.1.3-.1z" fill="#3B2B78"/><path d="M56.9 75.5s3.7.4 10.2 4l2.9 9.4s-3.4 25.5-3.9 46c0 0-31.7 2.9-35-7.3 0 0-1.8-41.5 26-45.6l-.2-6.5z" fill="#122F42"/><path d="M78.3 75.8s-2 .2-7.1 3.9l-1.3 9.6s6.5 25.8 8.3 45.9c0 0 16.8-.5 21.2-7.2 0 0-2.3-41.4-21.7-45.8l.6-6.4z" fill="#122F42"/><path d="M72.4 90.5c-.1.1-.3.2-.5.2-.2.1-.3.1-.5.1-.3.1-.7.1-1 .2-.7.1-1.4.1-2.1 0-.3-.1-.7-.2-1-.4-.2-.1-.3-.2-.4-.4-.1-.1-.2-.3-.3-.5 0-.2 0-.5.1-.7.1-.2.3-.3.4-.4.3-.2.7-.3 1-.4h.3v.1l.1.1.1.1c.1.1.2.1.3.2.2.1.5.1.8.1.3 0 .5-.1.8-.2.2-.1.5-.2.7-.4l.1-.1.2.1.9.9.3.6c.1.3-.1.7-.3.8zm-.3-.3c.1-.1.1-.2.1-.3 0-.1-.1-.3-.2-.4-.2-.3-.5-.5-.8-.8h.3c-.6.2-1.1.4-1.7.4h-.9c-.2 0-.3-.1-.5-.1-.1 0-.1-.1-.2-.1s-.1-.1-.2-.2l.3.1c-.3.1-.6.1-.9.3-.3.1-.4.3-.4.6 0 .1.1.2.2.4l.3.3c.3.2.6.3.9.4.6.1 1.3.1 2 .1.3 0 .7-.1 1-.2.2 0 .3-.1.5-.2 0-.2.1-.3.2-.3z" fill="#141B30"/><g transform="translate(70 88)"><circle fill="#B5AEC4" transform="rotate(-.273 1.8 1.3)" cx="1.801" cy="1.301" r="1.2"/><path d="M2.5 1.8v-.4c0-.2 0-.5-.2-.7C2.2.6 2.1.5 2 .5c-.1 0-.2-.1-.3-.1h-.4s.1 0 .4-.1c.2 0 .6 0 .8.3.2.3.2.6.1.8 0 .3-.1.4-.1.4zM1 .8v.4c0 .2 0 .5.2.7.1.1.2.2.3.2.1 0 .2.1.3.1h.4s-.1 0-.4.1c-.2 0-.6 0-.8-.3-.2-.3-.2-.6-.1-.8 0-.3.1-.4.1-.4z" fill="#FFF"/></g><g transform="translate(66 88)"><circle fill="#B5AEC4" transform="rotate(-.273 1.5 1.3)" cx="1.501" cy="1.301" r="1.2"/><path d="M2.2 1.8v-.4c0-.2 0-.5-.2-.7-.1-.1-.2-.2-.3-.2-.1 0-.2-.1-.3-.1H1s.1 0 .4-.1c.2 0 .6 0 .8.3.2.3.2.6.1.8 0 .3-.1.4-.1.4zM.7.8v.4c0 .2 0 .5.2.7.1.1.2.2.3.2.1 0 .2.1.3.1h.4s-.1 0-.4.1c-.2 0-.6 0-.8-.3-.2-.3-.2-.6-.1-.8C.6.9.7.8.7.8z" fill="#FFF"/></g><path d="M56.8 82.1s-.9.1-2.4.5-3.6 1.2-5.9 2.5c-1.1.7-2.3 1.5-3.5 2.5-1.2 1-2.3 2.1-3.4 3.4-1 1.3-2.1 2.6-3 4.2-.9 1.5-1.7 3.1-2.4 4.7-.3.8-.7 1.6-1 2.5-.3.8-.6 1.7-.9 2.5-.2.8-.5 1.7-.7 2.5-.2.8-.4 1.7-.6 2.5-.3 1.6-.7 3.2-.9 4.7-.2 1.5-.4 2.9-.5 4.3-.2 1.3-.2 2.6-.3 3.6-.1 1.1-.1 2-.1 2.8-.1 1.6-.1 2.5-.1 2.5v-5.3c0-1.1 0-2.3.2-3.7.1-1.3.2-2.8.4-4.3s.5-3.1.8-4.8c.2-.8.4-1.7.6-2.5.2-.8.5-1.7.7-2.5.3-.8.6-1.7.8-2.5.3-.8.7-1.7 1-2.5.8-1.6 1.6-3.2 2.5-4.7.9-1.5 2-2.9 3.1-4.2 1.1-1.3 2.3-2.4 3.5-3.4 1.2-1 2.4-1.8 3.6-2.4 2.4-1.3 4.5-2 6-2.3 1.6-.6 2.5-.6 2.5-.6zm13 9.6l-2 21.6c-.3 2.7-.5 5.4-.7 7.9-.2 2.5-.4 4.9-.5 6.9-.1 2-.3 3.7-.3 4.9 0 1.2-.1 1.9-.1 1.9V133c0-1.2 0-2.9.1-4.9.1-2 .2-4.4.4-6.9s.4-5.2.6-7.9c.3-2.7.6-5.4.8-7.9.3-2.5.6-4.9.8-6.9.3-2 .5-3.7.7-4.9.1-1.2.2-1.9.2-1.9zm8.3 43.5s-.1-.7-.2-1.8c-.2-1.2-.4-2.8-.7-4.8-.3-2-.7-4.3-1.1-6.8-.4-2.5-.8-5.1-1.3-7.7-.4-2.6-.9-5.3-1.4-7.7-.5-2.5-.9-4.8-1.3-6.7-.4-2-.7-3.6-1-4.7-.3-1.1-.4-1.8-.4-1.8s.2.6.5 1.8c.3 1.1.8 2.7 1.2 4.7.5 2 1 4.2 1.5 6.7s1 5.1 1.4 7.7c.4 2.6.9 5.3 1.2 7.8.4 2.5.7 4.8.9 6.8.2 2 .4 3.7.5 4.8.2 1 .2 1.7.2 1.7zm21.2-7.1s-.1-.8-.2-2.3c-.1-1.5-.4-3.5-.8-6s-.9-5.3-1.6-8.4c-.4-1.5-.7-3.1-1.2-4.7-.4-1.6-1-3.2-1.5-4.7-.6-1.6-1.2-3.1-1.8-4.6-.7-1.5-1.4-2.9-2.2-4.2-.4-.7-.8-1.3-1.2-1.9-.4-.6-.8-1.2-1.3-1.8-.9-1.1-1.8-2.1-2.7-3-.4-.4-.9-.8-1.4-1.2-.2-.2-.4-.4-.6-.5-.2-.1-.4-.3-.6-.4-.8-.6-1.6-1-2.3-1.3-.6-.3-1.2-.5-1.6-.7-.4-.1-.6-.2-.6-.2s.2.1.6.2c.4.1.9.3 1.6.6.7.3 1.5.7 2.3 1.2.2.1.4.3.7.4.2.2.4.3.7.5.5.3 1 .7 1.4 1.1.9.8 1.9 1.8 2.8 2.9.5.6.9 1.1 1.3 1.8.5.6.9 1.3 1.3 1.9.8 1.3 1.6 2.8 2.3 4.3.7 1.5 1.3 3.1 1.9 4.6.6 1.6 1.1 3.2 1.5 4.8.4 1.6.8 3.2 1.2 4.7.7 3.1 1.1 6 1.4 8.4.3 2.5.5 4.6.6 6v2.5zm-21.8-45l-.5 1c-.4.6-.9 1.3-1.6 1.9-.3.3-.7.6-1 .8-.4.2-.7.4-1 .5-.3.1-.6.1-.8.2h-.3s.1 0 .3-.1c.2-.1.4-.2.7-.3l.9-.6c.3-.2.6-.5.9-.8.6-.6 1.2-1.2 1.7-1.6.4-.7.7-1 .7-1zm-20.1 0l.8.8c.5.5 1.1 1 1.7 1.6.3.3.6.5 1 .8.3.2.6.5.9.6.3.1.5.3.7.3.2.1.3.1.3.1h-.3c-.2 0-.5 0-.8-.1-.3-.1-.7-.3-1-.5-.4-.2-.7-.5-1.1-.8-.7-.6-1.2-1.3-1.6-1.8-.4-.6-.6-1-.6-1z" fill="#141B30"/><path d="M100.7 48.9c1.6 2.5-23.4 7.8-29.4 7.8s-35.3 2.9-36.4 0c-.6-1.3 18.4-12.7 34.2-13.9 15.7-1.2 29.4 2.7 31.6 6.1z" fill="#0C252B"/><path d="M82.6 49.4c-.2 5.6-.9 12.4 2 16.5s3 12.3-1 13c0 0 4-3.4.9-8.8 0 0 2.1 10.8-4.1 11.5 0 0 3.6-2 1.5-7.3-6-16.1.7-24.9.7-24.9z" fill="#382A1B"/><path d="M80.5 81.5s.3 0 .7-.2c.5-.1 1.1-.5 1.6-1.1.5-.6.9-1.5 1.2-2.4.1-.5.2-1 .3-1.6.1-.5.1-1.1.1-1.6.1-1.1 0-2.2-.1-3.2s-.3-2-.5-2.8c-.1-.4-.2-.8-.3-1.1-.1-.3-.2-.6-.3-.8-.1-.4-.2-.7-.2-.7s0 .1.1.2.2.3.3.5c.2.4.6 1.1.8 1.9.3.8.5 1.8.7 2.8.1 1.1.2 2.2.2 3.3 0 .6-.1 1.1-.2 1.7-.1.6-.2 1.1-.3 1.6-.3 1-.8 1.9-1.5 2.6-.6.6-1.4.9-1.8.9-.5.1-.8 0-.8 0z" fill="#241B10"/><path d="M84.2 78.6s.3-.1.8-.5 1-1.1 1.3-2.1c.2-.5.3-1 .3-1.6 0-.6 0-1.2-.1-1.8-.1-1.3-.3-2.7-.8-3.9-.4-1.3-1.3-2.4-1.8-3.6-.6-1.2-.8-2.4-1.1-3.5-.2-1-.3-1.9-.3-2.5v-1s0 .4.1 1 .3 1.5.5 2.5c.3 1 .7 2.1 1.2 3.3.5 1.2 1.4 2.3 1.9 3.6.5 1.4.7 2.8.7 4.1v1.9c-.1.6-.2 1.2-.4 1.7-.4 1-1 1.7-1.5 2.1-.5.3-.8.3-.8.3z" fill="#241B10"/><path d="M80.7 45.5c3.1 4.7.6 14 .6 14s4.1 9.2-8.1 18.7c0 0-7.3-1.2-12.2-6.1-2.9-2.9-4-6-5.8-11.8-5.5-18.5 16-29.3 25.5-14.8z" fill="#FFE9B8"/><path d="M75.1 67.8s.2-.5.3-1.3v-1.3c-.1-.5-.2-1-.4-1.5-.5-2.1-1.1-4.2-1.1-4.2s.7 2 1.5 4.1c.1.3.2.5.3.8.1.2.2.5.2.8.1.5.1 1.1 0 1.5-.1.4-.3.7-.5.9-.2.1-.3.2-.3.2zm-1.5-.8s0 .1-.1.2-.1.2-.2.3c-.1.1-.2.1-.3.2-.1 0-.2.1-.2.1s-.1-.1-.1-.3c0-.2.1-.4.2-.5h.7zm2.5 5.1s-.5-.2-1.1-.3c-.7-.1-1.6-.2-2.5-.1-.5 0-.9.1-1.4.1-.4.1-.8.1-1.2.2-.4.1-.6.1-.9.2-.2 0-.3.1-.3.1s.1-.1.3-.2c.2-.1.4-.3.8-.4.7-.3 1.6-.5 2.6-.6.5 0 1 0 1.5.1s.9.2 1.2.3c.6.3 1 .6 1 .6z" fill="#A16A51"/><g transform="translate(75 55)"><path d="M4.2.8c.7.7.7 1.6.7 1.6S3.3 1 .4 3.1c0 0 .1-.7.4-1.4C2.2 1.3 3.3 1 4.2.8z" fill="#FFC8A6"/><ellipse fill="#382A1B" transform="rotate(-.273 2.5 4)" cx="2.501" cy="4.001" rx="1" ry="2.1"/><path d="M0 3.6s.2-.3.6-.7c.2-.2.5-.4.8-.6.3-.2.7-.3 1.1-.4.4-.1.8-.1 1.2-.1.2 0 .4.1.5.1.2 0 .3.1.4.2.5.3.7.6.8.6 0 0-.1 0-.2-.1s-.4-.1-.6-.2c-.3-.1-.6-.1-.9-.1h-.5c-.2 0-.3.1-.5.1-.7.1-1.3.5-1.8.7-.6.3-.9.5-.9.5z" fill="#382A1B"/></g><g transform="translate(64 56)"><path d="M1.5 0C2.9.3 4 .5 4.9.6c.4.8.5 1.6.5 1.6C2.4.1.9 1.5.9 1.5s0-.8.6-1.5z" fill="#FFC8A6"/><ellipse fill="#382A1B" transform="rotate(-.273 3.5 3)" cx="3.501" cy="3.001" rx="1" ry="2.1"/><path d="M5.9 2.6s-.3-.2-.8-.5c-.5-.2-1.1-.6-1.8-.7-.2 0-.3-.1-.5-.1h-.5c-.3 0-.6 0-.9.1-.3 0-.5.1-.6.2l-.2.1s.2-.3.7-.6c.1-.1.3-.1.4-.2.2-.1.3-.1.5-.1.4-.1.8 0 1.2 0 .4.1.7.2 1.1.4.3.2.6.4.8.6.4.5.6.8.6.8z" fill="#382A1B"/></g><path d="M71.9 57.1h-1.4c-.8 0-1.8-.1-2.9-.3-1-.2-2-.5-2.8-.7-.7-.3-1.2-.5-1.2-.5s.5 0 1.3.1 1.8.3 2.8.4c1 .2 2 .4 2.8.6.9.2 1.4.4 1.4.4zm9.1-1.6l-1 .5c-.6.2-1.4.5-2.3.7-.8.2-1.7.3-2.4.3s-1.1-.1-1.1-.1.1 0 .3-.1c.2 0 .4-.1.8-.2.6-.2 1.5-.4 2.3-.6.8-.2 1.7-.4 2.3-.4.7-.1 1.1-.1 1.1-.1z" fill="#382A1B"/><path d="M73.2 78.1s-1-.1-2.4-.4c-.7-.2-1.5-.4-2.4-.7-.8-.3-1.7-.7-2.6-1.1-.4-.2-.9-.5-1.3-.7-.4-.3-.8-.5-1.2-.8-.4-.3-.7-.5-1-.8-.3-.3-.6-.5-.9-.8-.5-.5-.9-1-1.1-1.3-.1-.3-.3-.5-.3-.5l.5.5c.2.1.3.3.5.5s.5.4.7.6c.3.2.6.5.9.7.3.2.7.5 1.1.7.4.3.8.5 1.2.7.4.2.8.4 1.2.7.8.4 1.7.8 2.5 1.2.8.3 1.6.6 2.3.9 1.4.4 2.3.6 2.3.6z" fill="#BD875F"/><path d="M74.9 43.1s1.9 3.7.7 7.6c0 0-5.7 0-10.5 1.3 0 0-.6-2.7-.1-4.7 0 0-1.2 2.9-.7 5 0 0-1.7-1.6-1.5-4.4 0 0-.5 3.5.4 4.9 0 0-2.8.8-4.4 2.2 0 0-4.5 26.6 1.3 28 0 0-5.1-.3-4.3-10.3 0 0-1.8 8.3 1.6 10.3 0 0-5.2.7-7.3-1.9-2-2.6-.1-9.8-.1-9.8s-4.1 4.5-1.9 7.2c0 0-3.6-1.9-1.1-6 2.2-3.7 2.6-4.7 3.1-8.5 1-8.8 2-17.2 6.1-21.9 3.8-4.4 10.1-5.1 12.7-4.3 0 0 6.1-1.8 11 3.4 2.2 2.3 4 6.6 3.5 11.8 0 0-2.2-1.6-4.2-1.7 0 0 .4-4.5-1.8-7 0 0 2 3.3.5 6.5 0 0-.2-2.5-.7-4 0 0 .3 3.1-.4 4-.2 0-.3-5.6-1.9-7.7z" fill="#382A1B"/><path d="M60.1 83h-.2c-.1 0-.3 0-.5-.1s-.5-.2-.8-.3c-.3-.2-.6-.4-.9-.7-.3-.3-.6-.6-.8-1.1-.3-.4-.4-.9-.6-1.3-.1-.5-.3-1-.4-1.5-.1-.5-.2-1-.3-1.6 0-.5-.1-1.1-.1-1.6v-1.5c0-.5.1-1 .1-1.4 0-.5.1-.9.1-1.3.2-1.6.4-2.6.4-2.6s0 1.1-.1 2.7v2.7c0 .5 0 1 .1 1.5 0 .5.1 1 .2 1.6 0 .5.2 1 .2 1.5.1.5.3 1 .4 1.5.2.4.3.9.5 1.3s.4.7.7 1c.3.3.5.5.8.7.2.2.5.3.7.4.2.1.5.1.5.1zm-2.7 0s-.2.1-.5.1h-.6c-.2 0-.5 0-.8-.1-.1 0-.3-.1-.4-.2-.1-.1-.3-.2-.4-.2-.2-.1-.3-.2-.4-.3-.2-.1-.3-.2-.4-.4-.3-.3-.5-.6-.7-1-.2-.3-.3-.7-.5-1.1-.1-.4-.2-.8-.3-1.1-.1-.4-.1-.8-.1-1.1-.1-.7 0-1.4 0-2 .1-1.2.3-1.9.3-1.9s.1.8.1 1.9c.1.6.1 1.2.2 1.9.1.3.1.7.2 1.1.1.4.2.7.3 1.1.1.3.2.7.4 1l.3.5c.1.2.2.3.3.4.1.1.2.3.3.4.1.1.2.2.4.3.1.1.3.2.4.3.1.1.3.1.4.2.3.1.5.2.7.2.2.1.4.1.6.1 0-.1.2-.1.2-.1z" fill="#241B10"/><path d="M55.9 83s-.3.1-.9.1c-.6 0-1.4 0-2.4-.2-.5-.1-1-.3-1.5-.6s-1-.7-1.3-1.2c-.4-.5-.6-1.2-.8-1.8-.1-.7-.2-1.3-.2-2 .1-2.6.8-5.2 1.3-7.1.5-2 .9-3.2.9-3.2s-.2 1.3-.6 3.2c-.2 1-.4 2.1-.6 3.3-.2 1.2-.4 2.5-.4 3.7 0 .6 0 1.3.1 1.9.1.6.3 1.2.7 1.6.3.5.7.9 1.2 1.2.4.3.9.5 1.4.7.9.3 1.7.4 2.3.4h.8z" fill="#241B10"/><path d="M68.8 37.8s-.2 0-.6-.1c-.4-.1-1-.1-1.7-.1-1.4 0-3.6.1-5.8 1.2-1.1.5-2.2 1.3-3.3 2.3-1 1-2 2.2-2.7 3.5-1.6 2.7-2.5 5.9-3.1 9.2-.6 3.3-.8 6.6-1.2 9.7-.2 1.6-.4 3.1-.8 4.5s-.9 2.7-1.6 3.7c-.7 1-1.2 2-1.5 2.9-.3.9-.1 1.8.2 2.4.3.6.7 1.1 1 1.3.3.3.5.4.5.4s-.2-.1-.5-.3c-.3-.2-.8-.6-1.2-1.3-.4-.6-.7-1.6-.4-2.6.2-1 .8-2.1 1.4-3.2.7-1 1.3-2.2 1.7-3.6.4-1.3.6-2.8.8-4.4.4-3.1.7-6.4 1.3-9.7.6-3.3 1.5-6.5 3.2-9.2.8-1.3 1.8-2.5 2.8-3.5 1-1 2.2-1.7 3.4-2.2 2.3-1 4.5-1.1 5.9-1.1.7 0 1.3.1 1.7.2.3-.1.5 0 .5 0z" fill="#241B10"/><path d="M57.1 70.3v-1c0-.6 0-1.5.1-2.6s.1-2.3.3-3.6c.1-.7.1-1.3.2-2s.1-1.4.3-2.1c.4-2.8.8-5.6 1.4-7.6.3-1 .5-1.9.7-2.5l.3-.9s-.1.3-.2.9c-.1.6-.3 1.5-.5 2.5s-.3 2.3-.5 3.6c-.2 1.3-.4 2.7-.5 4.1-.4 2.8-.7 5.6-1 7.7-.4 2.1-.6 3.5-.6 3.5zm7.1-18s-.5-.3-1-1.1c-.2-.4-.5-.9-.6-1.4-.2-.5-.2-1.2-.2-1.8 0-.3 0-.6.1-.9 0-.3.1-.6.2-.9.1-.6.3-1 .5-1.5.2-.4.4-.7.5-1 .1-.2.2-.3.2-.3s0 .1-.1.4c-.1.3-.2.6-.3 1 0 .2-.1.4-.2.7 0 .2-.1.5-.1.8-.1.3-.1.5-.1.8v.8c0 .6 0 1.1.1 1.6s.3 1 .4 1.4c.3.9.6 1.4.6 1.4zm.9-.3s-.2-.4-.3-1.1c-.1-.7-.2-1.6-.2-2.6.1-.9.3-1.9.6-2.5.1-.3.3-.6.4-.8.1-.2.2-.3.2-.3s0 .1-.1.3c-.1.2-.1.5-.2.8-.1.7-.2 1.6-.3 2.5-.1.9-.1 1.8-.1 2.5V52zm3.6-13.4s-.3.1-.7.3c-.4.2-1 .4-1.5.8-.5.3-1 .7-1.3 1-.3.3-.5.6-.6.6 0 0 0-.1.1-.2 0-.1.1-.3.2-.6.1-.2.3-.5.5-.7.2-.2.5-.4.8-.6.6-.4 1.2-.5 1.7-.6.5-.1.8 0 .8 0zm4.6 12.2s-.1-.6-.2-1.5-.2-2.1-.3-3.3c-.1-1.2-.3-2.3-.5-3.2-.1-.4-.2-.8-.3-1l-.2-.4.3.3c.2.2.4.5.6 1 .2.4.4.9.5 1.5.2.6.2 1.2.3 1.8.1 1.2.1 2.4.1 3.3-.2.9-.3 1.5-.3 1.5zm3.3 0s-.1-.6-.3-1.5c-.2-.9-.4-2-.6-3.2-.3-1.1-.6-2.3-.9-3-.1-.2-.2-.4-.3-.5-.1-.2-.2-.3-.2-.4-.3-.2-.3-.3-.3-.3l.3.3.3.3c.1.1.3.3.4.5.3.4.5.9.7 1.4.2.5.4 1.1.5 1.7.3 1.2.4 2.4.4 3.3v1.4zm1.1 0s.2-.5.3-1.3c0-.4.1-.9 0-1.4 0-.5-.1-1-.3-1.6-.1-.3-.1-.5-.2-.8-.1-.2-.2-.5-.3-.7-.1-.2-.2-.5-.3-.7l-.3-.6c-.2-.4-.4-.7-.5-.9-.1-.2-.2-.3-.2-.3l.3.3c.2.2.5.4.7.8.3.3.6.7.8 1.2.1.2.2.5.4.8.1.3.2.5.3.8.1.6.2 1.1.2 1.7 0 .5-.1 1.1-.2 1.5-.3.8-.7 1.2-.7 1.2zm3.4.9s.1-.4.1-1 0-1.4-.1-2.2c-.1-.8-.3-1.6-.4-2.2-.1-.3-.2-.6-.2-.7-.1-.2-.1-.3-.1-.3l.2.2c.1.2.3.4.4.6.2.3.3.6.5 1l.3 1.2c.1.9 0 1.7-.2 2.4-.3.7-.5 1-.5 1z" fill="#241B10"/><path d="M83.2 53s.2-1.5-.1-3.7c-.2-1.1-.5-2.4-1-3.7-.5-1.3-1.3-2.6-2.3-3.7-.9-1.1-2.1-2.2-3.2-2.9-1.2-.7-2.4-1.1-3.5-1.3-1.1-.2-2.1-.2-2.7-.2h-1s.4-.1 1-.2c.7-.1 1.6-.2 2.8-.1 1.1.1 2.5.4 3.8 1.1.6.4 1.2.8 1.8 1.3.6.5 1.1 1 1.6 1.6 1 1.2 1.8 2.5 2.3 3.9.5 1.3.8 2.7.9 3.8.1 1.1 0 2.1 0 2.8-.3.9-.4 1.3-.4 1.3z" fill="#241B10"/><path d="M69.9 38.6s.4-.2 1.2-.3c.4 0 .8 0 1.3.1s1 .2 1.4.4c.9.4 1.8.9 2.3 1.5.3.2.5.5.6.6.1.2.2.3.2.3s-.1-.1-.3-.2c-.2-.1-.4-.3-.8-.4-.3-.2-.7-.4-1.1-.6l-.6-.3-.6-.3c-.9-.4-1.8-.6-2.5-.7-.6-.1-1.1-.1-1.1-.1z" fill="#241B10"/><path d="M80.2 42S76.7 28 59.8 8c0 0-6.5 29.1-6.6 38.4 0 0 2.6-3.1 12.7-4.3 3.9-.5 10-1.8 14.3-.1z" fill="#122F42"/><path d="M53.3 45s0-.6.1-1.6.2-2.5.4-4.2c.2-1.7.5-3.8.8-6 .3-2.2.7-4.5 1.1-6.8.4-2.3.9-4.6 1.3-6.8s.9-4.2 1.3-5.9c.8-3.4 1.5-5.7 1.5-5.7s-.5 2.3-1.1 5.8c-.3 1.7-.7 3.7-1.1 5.9-.4 2.2-.8 4.5-1.2 6.8-.4 2.3-.8 4.6-1.2 6.8-.4 2.2-.7 4.2-1 5.9-.3 1.7-.5 3.2-.6 4.2-.3 1-.3 1.6-.3 1.6z" fill="#141B30"/><path d="M80 41.2s-.2-.6-.6-1.6c-.4-1-1-2.4-1.8-4s-1.7-3.5-2.8-5.5c-.5-1-1.1-2-1.7-3.1-.6-1-1.2-2.1-1.9-3.1-1.3-2.1-2.6-4.1-3.9-5.9-.7-1-1.3-1.8-1.9-2.7-.6-.9-1.2-1.6-1.8-2.3-.6-.7-1.1-1.4-1.6-2-.5-.6-.9-1.1-1.2-1.5-.7-.8-1.1-1.3-1.1-1.3s.4.4 1.1 1.2c.4.4.8.9 1.3 1.4.5.5 1 1.2 1.6 1.9.6.7 1.2 1.4 1.9 2.3.6.8 1.3 1.7 2 2.6 1.3 1.9 2.7 3.9 4 5.9.6 1 1.3 2.1 1.8 3.1.6 1 1.2 2.1 1.7 3.1 1.1 2 1.9 4 2.7 5.6.7 1.7 1.2 3.1 1.6 4.1l.6 1.8z" fill="#141B30"/><path d="M79.9 41.1s-8.2-.2-13.4.6c-5.2.8-13.2 3.3-13.2 3.3s-.3-1.1.3-2.3c0 0 12.7-4.7 25.9-3.2-.1 0 .7.7.4 1.6z" fill="#63B7CE"/><path d="M79.9 41.1s-1.7 0-4.2.1c-1.3.1-2.7.2-4.3.3-1.6.1-3.2.4-4.9.6-1.7.2-3.3.5-4.9.8-.8.2-1.5.3-2.2.5-.7.1-1.4.3-2 .5-.6.2-1.2.3-1.7.4-.5.1-.9.2-1.3.3-.7.2-1.1.3-1.1.3s.4-.1 1.1-.4c.7-.2 1.7-.6 2.9-1 .6-.2 1.3-.4 2-.6.7-.2 1.4-.4 2.2-.5.8-.2 1.6-.3 2.4-.5.8-.1 1.7-.3 2.5-.4 1.7-.2 3.4-.4 5-.5 1.6-.1 3.1-.1 4.3-.2 2.5.1 4.2.3 4.2.3zm-.5-1.6s-1.6-.1-4.1-.1c-1.2 0-2.7.1-4.2.1-1.5.1-3.2.2-4.8.4-1.6.2-3.2.4-4.8.7-.8.1-1.5.3-2.2.4-.7.1-1.3.3-1.9.5-.6.2-1.1.3-1.6.4-.5.1-.9.3-1.2.4-.7.2-1.1.3-1.1.3s.4-.2 1-.4c.7-.3 1.6-.7 2.8-1 .6-.2 1.2-.4 1.9-.6.7-.2 1.4-.4 2.2-.5 1.5-.3 3.1-.6 4.8-.8 1.6-.2 3.3-.3 4.8-.4 1.5 0 3 0 4.2.1 1.2.1 2.3.2 3 .3.8.1 1.2.2 1.2.2z" fill="#466D8C"/><path d="M100.7 48.9s-2.8-5.9-31.5-4.3c-2.6.1-28.2 5.4-34.3 11.9 0 0 8.8-9.5 26-13.9s35.7.4 39.8 6.3z" fill="#122F42"/><path d="M100.7 49.1s-.3-.4-.9-.9c-.3-.3-.7-.6-1.1-.9-.5-.3-1-.7-1.6-1-.6-.4-1.2-.7-1.9-1.1-.7-.3-1.5-.7-2.3-1-.8-.3-1.6-.6-2.5-.9-.4-.1-.9-.3-1.3-.4l-1.3-.3-1.3-.3c-.4-.1-.9-.2-1.3-.2-.4-.1-.9-.2-1.3-.2-.4-.1-.9-.1-1.3-.2-.9-.1-1.7-.2-2.5-.3-.8-.1-1.5-.1-2.2-.2-1.4-.1-2.5-.1-3.3-.2-.8 0-1.3-.1-1.3-.1s.5 0 1.3-.1c.8 0 2-.1 3.3-.1.7 0 1.4.1 2.2.1.8 0 1.6.1 2.5.2.4 0 .9.1 1.3.1.4.1.9.1 1.3.2s.9.2 1.4.2l1.4.3 1.3.3c.4.1.9.3 1.3.4.9.3 1.7.6 2.5.9.8.3 1.6.7 2.3 1.1.7.4 1.3.8 1.9 1.2.6.4 1.1.8 1.5 1.1.4.4.8.7 1.1 1 .6.9.8 1.3.8 1.3zm-40.3-6.3s-.5.1-1.2.3c-.8.2-1.9.5-3.2 1-.6.2-1.3.5-2.1.8-.7.3-1.5.6-2.3 1-.8.3-1.6.7-2.4 1.1-.8.4-1.6.8-2.4 1.3-.8.5-1.6.9-2.4 1.4-.8.5-1.5 1-2.2 1.4-.7.5-1.4 1-2 1.4-.7.4-1.2.9-1.8 1.3-.5.4-1.1.8-1.5 1.1-.4.3-.8.7-1.1.9-.6.5-1 .8-1 .8l.9-.9c.6-.5 1.4-1.4 2.5-2.2.5-.4 1.1-.9 1.7-1.4.6-.5 1.3-1 2-1.5s1.5-1 2.2-1.5c.8-.5 1.6-.9 2.4-1.4.8-.4 1.6-.9 2.5-1.2.8-.4 1.6-.8 2.4-1.1.8-.3 1.6-.6 2.3-.9.7-.3 1.5-.5 2.1-.7 1.3-.4 2.5-.6 3.2-.8 1-.2 1.4-.2 1.4-.2z" fill="#141B30"/><path d="M95.5 46.3c0-.1-.8-.3-2.3-.6-1.5-.3-3.7-.6-6.3-.8-2.6-.2-5.6-.4-8.9-.3-3.3 0-6.7.3-10.2.7-3.4.4-6.9 1.1-10 1.9-3.2.8-6.1 1.6-8.6 2.4-2.5.8-4.5 1.5-6 2.1-1.4.6-2.2.9-2.2.9s.8-.4 2.2-1c1.4-.6 3.4-1.5 5.9-2.3 2.5-.8 5.4-1.7 8.6-2.6 3.2-.8 6.6-1.5 10.1-2 3.5-.4 7-.6 10.3-.6 3.3 0 6.3.2 8.9.5 2.6.3 4.8.7 6.2 1.1 1.5.2 2.4.5 2.3.6z" fill="#141B30"/></g></svg>