<svg width="120" height="120" viewBox="0 0 120 120" xmlns="http://www.w3.org/2000/svg" xmlns:xlink="http://www.w3.org/1999/xlink"><defs><path id="a" d="M.1.097h.824v19.258H.1z"/><path id="c" d="M0 119.355h82.78V.064H0z"/></defs><g fill="none" fill-rule="evenodd"><path fill="#E2CB85" d="M49.34 98.81h23.497V59.78H49.339z"/><path d="M46.828 119.763H73.9V56.13H46.83v63.633zm20.125-56.032h3.26v-3.245h-3.26v3.245zm-5.57 0h3.26v-3.245h-3.26v3.245zm5.57 5.406h3.26v-3.243h-3.26v3.243zm-5.57 0h3.26v-3.243h-3.26v3.243zm5.57 5.408h3.26v-3.244h-3.26v3.244zm-5.57 0h3.26v-3.244h-3.26v3.244zm5.57 5.407h3.26v-3.244h-3.26v3.244zm-5.57 0h3.26v-3.244h-3.26v3.244zm5.57 5.407h3.26v-3.244h-3.26v3.244zm-5.57 0h3.26v-3.244h-3.26v3.244zm-5.3 0h3.261v-3.244h-3.26v3.244zm10.87 5.408h3.26v-3.244h-3.26v3.244zm-5.57 0h3.26v-3.244h-3.26v3.244zm-5.3 0h3.261v-3.244h-3.26v3.244zm-5.57 0h3.26v-3.244h-3.26v3.244zm16.44 5.407h3.26V92.93h-3.26v3.244zm-5.57 0h3.26V92.93h-3.26v3.244zm-5.3 0h3.261V92.93h-3.26v3.244zm-5.57 0h3.26V92.93h-3.26v3.244z" fill="#B76959"/><g transform="translate(19 .581)"><path d="M47.526 106.229c0-3.386-2.759-6.132-6.163-6.132-3.403 0-6.162 2.746-6.162 6.132v13.126h12.325v-13.126z" fill="#5B3939"/><path d="M39.919 108.624v2.204m2.889-2.204v2.204" stroke="#D4E5E6" stroke-width=".968" stroke-linecap="round"/><g transform="translate(40.852 100)"><mask id="b" fill="#fff"><use xlink:href="#a"/></mask><path d="M.512.097C.373.097.237.109.1.117v19.238h.824V.117C.787.11.65.097.512.097" fill="#422A2A" mask="url(#b)"/></g><mask id="d" fill="#fff"><use xlink:href="#c"/></mask><path fill="#8F5145" mask="url(#d)" d="M4.645 76.204h21.911v-52.76H4.646z"/><path fill="#B76959" mask="url(#d)" d="M8.57 18.866h1.921V.064H8.57zm11.91 0h1.922V7.076H20.48z"/><path fill="#5B3939" mask="url(#d)" d="M4.646 23.444h9.769v-6.33H4.646zm13.773-.316h6.045v-6.014H18.42z"/><path d="M22.811 34.452h1.922v-8.604h-1.922v8.604zm-3.57 0h1.923v-8.604h-1.922v8.604zm-3.568 0h1.922v-8.604h-1.922v8.604zm-3.57 0h1.923v-8.604h-1.922v8.604zm-6.617-5.707H8.37v-2.868H5.486v2.868zm0 4.78H8.37v-2.867H5.486v2.868zm0 4.781H8.37v-2.868H5.486v2.868zm0 4.78H8.37v-2.868H5.486v2.868zM2.003 22.474l-.268 96.398H27.92l.268-96.398H2.003z" fill="#8F5145" mask="url(#d)"/><path d="M12.011 62.57H7.284a.716.716 0 0 1-.718-.715V51.482c0-.395.322-.715.718-.715h4.727c.397 0 .719.32.719.715v10.373a.716.716 0 0 1-.719.714" fill="#E2CB85" mask="url(#d)"/><path fill="#5B3939" mask="url(#d)" d="M6.566 57.697h6.162v-7.015H6.566z"/><path d="M12.13 50.767H7.166a.59.59 0 0 0-.465.234h4.05a.6.6 0 0 1 .601.598v10.606c0 .14-.056.262-.136.364h.912a.6.6 0 0 0 .601-.598V51.365a.6.6 0 0 0-.6-.598" fill="#000" opacity=".296" mask="url(#d)"/><path d="M12.73 62.57H6.566V51.481c0-.395.322-.715.719-.715h4.727c.396 0 .718.32.718.715v11.087z" stroke="#FCEFD0" stroke-width=".645" mask="url(#d)"/><path d="M11.025 50.596a1.377 1.377 0 0 0-1.377-1.321c-.745 0-1.348.587-1.377 1.321h2.754zm-4.459 6.307h6.164v-1.215H6.566zm-1.1 5.981h8.446V61.67H5.466z" fill="#FCEFD0" mask="url(#d)"/><path fill="#000" mask="url(#d)" d="M14.997 64.233H6.551l-1.085-1.35h8.446z"/><path fill="#8F5145" mask="url(#d)" d="M11.975 60.186h-4.7l.541 1.484h3.617z"/><path d="M8.472 60.22a.71.71 0 0 1-.712.707.71.71 0 0 1-.712-.708.71.71 0 0 1 .712-.708.71.71 0 0 1 .712.708" fill="#286024" mask="url(#d)"/><path d="M8.978 59.601a.586.586 0 0 1-.588.585.585.585 0 0 1 0-1.169c.324 0 .588.26.588.584" fill="#286024" mask="url(#d)"/><path d="M9.625 60.215a.616.616 0 0 1-1.235 0 .617.617 0 1 1 1.235 0" fill="#286024" mask="url(#d)"/><path d="M9.625 59.151c0 .294-.24.532-.535.532a.533.533 0 1 1 0-1.064c.295 0 .535.238.535.532m1.04 1.009a.56.56 0 0 1-.562.557.56.56 0 1 1 0-1.116.56.56 0 0 1 .562.558" fill="#286024" mask="url(#d)"/><path d="M11.025 59.683a.36.36 0 1 1-.361-.36c.2 0 .361.161.361.36" fill="#286024" mask="url(#d)"/><path d="M11.39 60.186a.414.414 0 1 1-.828-.002.414.414 0 0 1 .828.002" fill="#286024" mask="url(#d)"/><path d="M12.303 59.772a.699.699 0 0 1-.7.698.7.7 0 0 1-.702-.698c0-.385.314-.696.701-.696.388 0 .7.311.7.696" fill="#286024" mask="url(#d)"/><path d="M10.975 59.505a.715.715 0 0 1-.716.712.715.715 0 0 1-.717-.712c0-.394.32-.713.717-.713.395 0 .716.319.716.713" fill="#286024" mask="url(#d)"/><path d="M9.84 59.767c0 .342-.307.621-.685.621-.377 0-.683-.279-.683-.621 0-.343.306-.622.683-.622.378 0 .684.28.684.622" fill="#286024" mask="url(#d)"/><path d="M22.751 62.483h-4.728a.716.716 0 0 1-.717-.714V51.396c0-.395.321-.714.717-.714h4.728c.396 0 .718.32.718.714V61.77a.716.716 0 0 1-.718.714" fill="#E2CB85" mask="url(#d)"/><path fill="#5B3939" mask="url(#d)" d="M17.305 52.977h6.162v-2.38h-6.162z"/><path d="M22.868 50.682h-4.962a.59.59 0 0 0-.464.234h4.049a.6.6 0 0 1 .601.598V62.12a.584.584 0 0 1-.136.363h.912a.6.6 0 0 0 .601-.598V51.28a.6.6 0 0 0-.6-.598" fill="#000" opacity=".296" mask="url(#d)"/><path d="M23.47 62.483h-6.165V51.396c0-.395.322-.714.719-.714h4.727c.397 0 .718.32.718.714v11.087z" stroke="#FCEFD0" stroke-width=".645" mask="url(#d)"/><path d="M21.765 50.51a1.377 1.377 0 0 0-1.378-1.321c-.745 0-1.348.588-1.377 1.322h2.755zm-4.46 6.307h6.165v-1.214h-6.165zm-1.099 5.982h8.445v-1.215h-8.445z" fill="#FCEFD0" mask="url(#d)"/><path fill="#000" mask="url(#d)" d="M25.736 64.147H17.29l-1.084-1.349h8.445z"/><path fill="#8F5145" mask="url(#d)" d="M22.714 60.1h-4.7l.541 1.484h3.617z"/><path d="M19.211 60.133a.711.711 0 0 1-1.424 0 .71.71 0 0 1 .712-.708.71.71 0 0 1 .712.708" fill="#286024" mask="url(#d)"/><path d="M19.717 59.515a.586.586 0 0 1-.588.585.585.585 0 0 1 0-1.169c.324 0 .588.261.588.584" fill="#286024" mask="url(#d)"/><path d="M20.364 60.13a.616.616 0 0 1-1.235 0c0-.34.276-.615.618-.615.34 0 .617.275.617.615" fill="#286024" mask="url(#d)"/><path d="M20.364 59.065c0 .294-.24.532-.535.532a.533.533 0 0 1-.534-.532c0-.293.239-.531.534-.531.296 0 .535.238.535.531m1.04 1.009a.56.56 0 0 1-.562.558.56.56 0 1 1 0-1.117c.31 0 .562.25.562.559" fill="#286024" mask="url(#d)"/><path d="M21.765 59.597c0 .2-.162.36-.362.36a.36.36 0 1 1 0-.72c.2 0 .362.162.362.36" fill="#286024" mask="url(#d)"/><path d="M22.13 60.1a.414.414 0 0 1-.416.413.413.413 0 1 1 0-.827c.23 0 .416.186.416.414" fill="#286024" mask="url(#d)"/><path d="M23.042 59.687a.698.698 0 0 1-.7.697.699.699 0 0 1-.701-.697c0-.385.313-.697.7-.697.388 0 .7.312.7.697" fill="#286024" mask="url(#d)"/><path d="M21.715 59.419a.715.715 0 0 1-.717.713.715.715 0 0 1-.717-.713c0-.394.32-.713.717-.713.396 0 .717.32.717.713" fill="#286024" mask="url(#d)"/><path d="M20.578 59.681c0 .343-.306.621-.684.621-.377 0-.682-.278-.682-.621 0-.343.305-.62.682-.62.378 0 .684.277.684.62" fill="#286024" mask="url(#d)"/><path d="M12.011 84.052H7.284a.716.716 0 0 1-.718-.714V72.965c0-.394.322-.714.718-.714h4.727c.397 0 .719.32.719.714v10.373a.716.716 0 0 1-.719.714" fill="#E2CB85" mask="url(#d)"/><path fill="#5B3939" mask="url(#d)" d="M6.566 75.901h6.162v-3.736H6.566z"/><path d="M12.13 72.251H7.166a.59.59 0 0 0-.465.234h4.05c.332 0 .601.267.601.598v10.606a.584.584 0 0 1-.136.363h.912a.6.6 0 0 0 .601-.598V72.85a.6.6 0 0 0-.6-.598" fill="#000" opacity=".296" mask="url(#d)"/><path d="M12.73 84.052H6.566V72.965c0-.394.322-.714.719-.714h4.727c.396 0 .718.32.718.714v11.087z" stroke="#FCEFD0" stroke-width=".645" mask="url(#d)"/><path d="M11.025 72.08a1.377 1.377 0 0 0-1.377-1.322c-.745 0-1.348.587-1.377 1.322h2.754zm-4.459 6.306h6.164v-1.214H6.566zm-1.1 5.981h8.446v-1.214H5.466z" fill="#FCEFD0" mask="url(#d)"/><path fill="#000" mask="url(#d)" d="M14.997 85.717H6.551l-1.085-1.35h8.446z"/><path fill="#8F5145" mask="url(#d)" d="M11.975 81.669h-4.7l.541 1.484h3.617z"/><path d="M8.472 81.703a.71.71 0 0 1-.712.708.71.71 0 0 1-.712-.708.71.71 0 0 1 1.424 0" fill="#286024" mask="url(#d)"/><path d="M8.978 81.084a.586.586 0 0 1-.588.585.585.585 0 1 1 0-1.17c.324 0 .588.263.588.585" fill="#286024" mask="url(#d)"/><path d="M9.625 81.698c0 .34-.277.615-.618.615a.615.615 0 1 1 0-1.229c.34 0 .618.276.618.614" fill="#286024" mask="url(#d)"/><path d="M9.625 80.634c0 .294-.24.533-.535.533a.533.533 0 1 1 0-1.064c.295 0 .535.238.535.531m1.04 1.008a.56.56 0 0 1-.562.558.559.559 0 1 1 0-1.116c.31 0 .562.25.562.558" fill="#286024" mask="url(#d)"/><path d="M11.025 81.167a.361.361 0 1 1-.723 0 .36.36 0 0 1 .723 0" fill="#286024" mask="url(#d)"/><path d="M11.39 81.669a.414.414 0 0 1-.415.413.413.413 0 1 1 0-.826c.23 0 .415.184.415.413" fill="#286024" mask="url(#d)"/><path d="M12.303 81.256a.698.698 0 0 1-.7.697.699.699 0 0 1-.702-.697.7.7 0 0 1 .701-.697c.388 0 .7.312.7.697" fill="#286024" mask="url(#d)"/><path d="M10.975 80.988a.715.715 0 0 1-.716.713.715.715 0 0 1-.717-.713c0-.394.32-.713.717-.713.395 0 .716.32.716.713" fill="#286024" mask="url(#d)"/><path d="M9.84 81.25c0 .343-.307.621-.685.621-.377 0-.683-.278-.683-.62 0-.344.306-.622.683-.622.378 0 .684.278.684.621" fill="#286024" mask="url(#d)"/><path d="M22.751 83.967h-4.728a.716.716 0 0 1-.717-.715V72.88c0-.394.321-.714.717-.714h4.728c.396 0 .718.32.718.714v10.373a.716.716 0 0 1-.718.715" fill="#E2CB85" mask="url(#d)"/><path fill="#5B3939" mask="url(#d)" d="M17.305 79.095h6.162v-7.016h-6.162z"/><path d="M22.868 72.165h-4.962a.59.59 0 0 0-.464.234h4.049a.6.6 0 0 1 .601.598v10.606c0 .14-.056.262-.136.364h.912a.6.6 0 0 0 .601-.598V72.763a.6.6 0 0 0-.6-.598" fill="#000" opacity=".296" mask="url(#d)"/><path d="M23.47 83.967h-6.165V72.88c0-.394.322-.714.719-.714h4.727c.397 0 .718.32.718.714v11.088z" stroke="#FCEFD0" stroke-width=".645" mask="url(#d)"/><path d="M21.765 71.995a1.377 1.377 0 0 0-1.378-1.322c-.745 0-1.348.587-1.377 1.322h2.755zm-4.46 6.305h6.165v-1.214h-6.165zm-1.099 5.982h8.445v-1.214h-8.445z" fill="#FCEFD0" mask="url(#d)"/><path fill="#000" mask="url(#d)" d="M25.736 85.631H17.29l-1.084-1.35h8.445z"/><path fill="#8F5145" mask="url(#d)" d="M22.714 81.583h-4.7l.541 1.485h3.617z"/><path d="M19.211 81.617a.71.71 0 0 1-.712.709.71.71 0 0 1-.712-.709.71.71 0 0 1 .712-.708.71.71 0 0 1 .712.708" fill="#286024" mask="url(#d)"/><path d="M19.717 80.998a.586.586 0 0 1-.588.585.585.585 0 1 1 0-1.17c.324 0 .588.263.588.585" fill="#286024" mask="url(#d)"/><path d="M20.364 81.613c0 .34-.277.614-.617.614a.615.615 0 1 1 0-1.228c.34 0 .617.275.617.614" fill="#286024" mask="url(#d)"/><path d="M20.364 80.549c0 .294-.24.532-.535.532a.533.533 0 1 1 0-1.064c.296 0 .535.238.535.532m1.04 1.008a.56.56 0 0 1-.562.558.56.56 0 1 1 0-1.116c.31 0 .562.25.562.558" fill="#286024" mask="url(#d)"/><path d="M21.765 81.081a.361.361 0 0 1-.723 0 .36.36 0 1 1 .723 0" fill="#286024" mask="url(#d)"/><path d="M22.13 81.583a.415.415 0 0 1-.83 0 .414.414 0 1 1 .83 0" fill="#286024" mask="url(#d)"/><path d="M23.042 81.17a.698.698 0 0 1-.7.697.699.699 0 0 1-.701-.697c0-.385.313-.696.7-.696.388 0 .7.311.7.696" fill="#286024" mask="url(#d)"/><path d="M21.715 80.902a.715.715 0 0 1-.717.714.715.715 0 0 1-.717-.714c0-.393.32-.713.717-.713.396 0 .717.32.717.713" fill="#286024" mask="url(#d)"/><path d="M20.578 81.165c0 .342-.306.621-.684.621-.377 0-.682-.279-.682-.621 0-.343.305-.622.682-.622.378 0 .684.279.684.622" fill="#286024" mask="url(#d)"/><path d="M12.029 101.725H7.3a.716.716 0 0 1-.718-.714V90.638c0-.394.322-.714.718-.714h4.728c.396 0 .717.32.717.714v10.373a.716.716 0 0 1-.717.714" fill="#E2CB85" mask="url(#d)"/><path d="M12.146 89.924H7.184a.59.59 0 0 0-.465.234h4.05a.6.6 0 0 1 .6.598v10.606a.583.583 0 0 1-.136.364h.913a.6.6 0 0 0 .6-.599V90.522a.6.6 0 0 0-.6-.598" fill="#000" opacity=".296" mask="url(#d)"/><path d="M12.747 101.725H6.583V90.638c0-.394.321-.714.719-.714h4.727c.396 0 .718.32.718.714v11.087z" stroke="#FCEFD0" stroke-width=".645" mask="url(#d)"/><path d="M11.042 89.753a1.377 1.377 0 0 0-1.377-1.322c-.745 0-1.348.588-1.378 1.322h2.755zm-4.46 6.306h6.164v-1.215H6.582zm-1.099 5.981h8.446v-1.214H5.483z" fill="#FCEFD0" mask="url(#d)"/><path fill="#000" mask="url(#d)" d="M15.014 103.39H6.568l-1.085-1.35h8.446z"/><path fill="#8F5145" mask="url(#d)" d="M11.992 99.342H7.29l.542 1.484h3.616z"/><path d="M8.489 99.375a.71.71 0 0 1-.713.709.71.71 0 0 1-.711-.709.71.71 0 0 1 .711-.708.71.71 0 0 1 .713.708" fill="#286024" mask="url(#d)"/><path d="M8.994 98.757a.586.586 0 0 1-.587.585.585.585 0 0 1 0-1.169c.324 0 .587.261.587.584" fill="#286024" mask="url(#d)"/><path d="M9.641 99.372a.616.616 0 0 1-1.234 0 .616.616 0 1 1 1.234 0" fill="#286024" mask="url(#d)"/><path d="M9.641 98.308c0 .293-.24.531-.535.531a.533.533 0 1 1 0-1.064c.296 0 .535.238.535.533m1.04 1.008a.56.56 0 0 1-.562.558.56.56 0 1 1 0-1.116.56.56 0 0 1 .562.558" fill="#286024" mask="url(#d)"/><path d="M11.043 98.84c0 .199-.163.36-.362.36a.36.36 0 1 1 0-.72c.2 0 .362.16.362.36" fill="#286024" mask="url(#d)"/><path d="M11.407 99.342a.414.414 0 0 1-.415.413.413.413 0 1 1 0-.826c.23 0 .415.185.415.413" fill="#286024" mask="url(#d)"/><path d="M12.32 98.929a.699.699 0 0 1-.701.697.7.7 0 0 1-.701-.697c0-.385.314-.697.7-.697.388 0 .701.312.701.697" fill="#286024" mask="url(#d)"/><path d="M10.992 98.661c0 .394-.32.713-.717.713a.715.715 0 0 1-.717-.713c0-.394.321-.713.717-.713.397 0 .717.32.717.713" fill="#286024" mask="url(#d)"/><path d="M9.856 98.923c0 .343-.306.621-.684.621-.378 0-.683-.278-.683-.62 0-.343.305-.622.683-.622.378 0 .684.279.684.621" fill="#286024" mask="url(#d)"/><path d="M22.768 101.64H18.04a.716.716 0 0 1-.719-.714V90.553c0-.395.322-.714.719-.714h4.727c.396 0 .717.319.717.714v10.373a.716.716 0 0 1-.717.714" fill="#E2CB85" mask="url(#d)"/><path d="M22.885 89.839h-4.962a.59.59 0 0 0-.465.233h4.05a.6.6 0 0 1 .6.598v10.607a.584.584 0 0 1-.136.363h.913a.6.6 0 0 0 .6-.598V90.437a.6.6 0 0 0-.6-.598" fill="#000" opacity=".296" mask="url(#d)"/><path d="M23.486 101.64h-6.164V90.553c0-.395.321-.714.719-.714h4.727c.396 0 .718.319.718.714v11.087z" stroke="#FCEFD0" stroke-width=".645" mask="url(#d)"/><path d="M21.781 89.667a1.377 1.377 0 0 0-1.377-1.322c-.745 0-1.348.588-1.378 1.322h2.755zm-4.459 6.307h6.164v-1.215h-6.164zm-1.1 5.981h8.446v-1.215h-8.446z" fill="#FCEFD0" mask="url(#d)"/><path fill="#000" mask="url(#d)" d="M25.753 103.304h-8.446l-1.085-1.35h8.446z"/><path fill="#8F5145" mask="url(#d)" d="M22.73 99.256h-4.7l.542 1.484h3.616z"/><path d="M19.228 99.29a.711.711 0 0 1-1.424 0 .71.71 0 0 1 .711-.709.71.71 0 0 1 .713.709" fill="#286024" mask="url(#d)"/><path d="M19.733 98.672a.586.586 0 0 1-.587.584.586.586 0 0 1-.588-.584c0-.324.263-.585.588-.585.325 0 .587.261.587.585" fill="#286024" mask="url(#d)"/><path d="M20.38 99.286a.616.616 0 0 1-1.234 0 .616.616 0 1 1 1.234 0" fill="#286024" mask="url(#d)"/><path d="M20.38 98.222a.533.533 0 0 1-.534.531.533.533 0 0 1-.535-.531.534.534 0 0 1 1.069 0m1.04 1.008a.56.56 0 0 1-.56.558.56.56 0 0 1-.562-.558.56.56 0 0 1 .561-.558c.31 0 .561.25.561.558" fill="#286024" mask="url(#d)"/><path d="M21.782 98.754a.361.361 0 1 1-.723-.001.361.361 0 0 1 .723 0" fill="#286024" mask="url(#d)"/><path d="M22.146 99.256a.414.414 0 0 1-.83 0 .415.415 0 0 1 .83 0" fill="#286024" mask="url(#d)"/><path d="M23.058 98.844a.698.698 0 0 1-.7.696.699.699 0 0 1-.701-.696.7.7 0 0 1 .701-.698c.387 0 .7.312.7.698" fill="#286024" mask="url(#d)"/><path d="M21.731 98.575c0 .394-.32.713-.717.713a.715.715 0 0 1-.717-.713c0-.393.321-.713.717-.713.397 0 .717.32.717.713" fill="#286024" mask="url(#d)"/><path d="M20.595 98.837c0 .344-.306.622-.684.622-.378 0-.683-.278-.683-.622 0-.342.305-.62.683-.62.378 0 .684.278.684.62" fill="#286024" mask="url(#d)"/><path fill="#B76959" mask="url(#d)" d="M0 66.746h29.71v-2.279H0z"/><path d="M12.19 41.321H7.463a.717.717 0 0 1-.719-.715V30.233c0-.394.322-.714.719-.714h4.727c.396 0 .718.32.718.714v10.373a.716.716 0 0 1-.718.715" fill="#E2CB85" mask="url(#d)"/><path fill="#5B3939" mask="url(#d)" d="M6.744 36.45h6.162v-7.016H6.744z"/><path d="M12.307 29.52H7.345a.59.59 0 0 0-.465.233h4.05a.6.6 0 0 1 .601.598v10.606c0 .14-.056.262-.136.364h.912a.6.6 0 0 0 .601-.598V30.117a.6.6 0 0 0-.6-.598" fill="#000" opacity=".296" mask="url(#d)"/><path d="M12.908 41.321H6.744V30.233c0-.394.322-.714.72-.714h4.726c.396 0 .718.32.718.714v11.088z" stroke="#FCEFD0" stroke-width=".645" mask="url(#d)"/><path d="M11.203 29.348a1.377 1.377 0 0 0-1.377-1.322c-.745 0-1.348.588-1.377 1.322h2.754zm-4.459 6.306h6.164V34.44H6.744zm-1.099 5.981h8.446v-1.214H5.645z" fill="#FCEFD0" mask="url(#d)"/><path fill="#000" mask="url(#d)" d="M15.175 42.985H6.73l-1.085-1.35h8.446z"/><path fill="#8F5145" mask="url(#d)" d="M12.153 38.937h-4.7l.542 1.484h3.616z"/><path d="M8.65 38.971a.71.71 0 0 1-.712.708.71.71 0 0 1-.712-.708.71.71 0 0 1 .712-.708.71.71 0 0 1 .712.708" fill="#286024" mask="url(#d)"/><path d="M9.155 38.352a.586.586 0 0 1-.587.585.585.585 0 1 1 0-1.17c.324 0 .587.263.587.585" fill="#286024" mask="url(#d)"/><path d="M9.803 38.967a.616.616 0 0 1-.618.614.615.615 0 1 1 0-1.229c.34 0 .618.276.618.615" fill="#286024" mask="url(#d)"/><path d="M9.803 37.903c0 .294-.24.532-.535.532a.533.533 0 1 1 0-1.064c.295 0 .535.238.535.532m1.039 1.008a.56.56 0 0 1-.561.558.56.56 0 1 1 0-1.117c.31 0 .561.25.561.56" fill="#286024" mask="url(#d)"/><path d="M11.204 38.435a.361.361 0 0 1-.723 0 .361.361 0 1 1 .723 0" fill="#286024" mask="url(#d)"/><path d="M11.569 38.937a.415.415 0 0 1-.83 0 .414.414 0 1 1 .83 0" fill="#286024" mask="url(#d)"/><path d="M12.48 38.524a.699.699 0 0 1-.7.698.7.7 0 0 1-.7-.698c0-.385.313-.697.7-.697.387 0 .7.312.7.697" fill="#286024" mask="url(#d)"/><path d="M11.153 38.257c0 .393-.32.712-.716.712a.715.715 0 0 1-.717-.712c0-.395.32-.713.717-.713.396 0 .716.318.716.713" fill="#286024" mask="url(#d)"/><path d="M10.017 38.519c0 .342-.306.62-.684.62-.377 0-.683-.278-.683-.62 0-.343.306-.622.683-.622.378 0 .684.279.684.622" fill="#286024" mask="url(#d)"/><path d="M22.93 41.235h-4.728a.716.716 0 0 1-.719-.714V30.148c0-.395.322-.715.719-.715h4.727c.396 0 .718.32.718.715v10.373a.716.716 0 0 1-.718.714" fill="#E2CB85" mask="url(#d)"/><path fill="#5B3939" mask="url(#d)" d="M17.483 40.291h6.162V29.348h-6.162z"/><path d="M23.046 29.433h-4.962a.59.59 0 0 0-.465.235h4.05a.6.6 0 0 1 .601.598V40.87c0 .14-.056.262-.136.364h.912a.6.6 0 0 0 .601-.598V30.031a.6.6 0 0 0-.6-.598" fill="#000" opacity=".296" mask="url(#d)"/><path d="M23.647 41.235h-6.164V30.148c0-.395.322-.715.72-.715h4.726c.397 0 .718.32.718.715v11.087z" stroke="#FCEFD0" stroke-width=".645" mask="url(#d)"/><path d="M21.943 29.263a1.377 1.377 0 0 0-1.378-1.322c-.745 0-1.348.587-1.377 1.322h2.755zm-4.46 6.306h6.164v-1.215h-6.164zm-1.1 5.981h8.446v-1.215h-8.446z" fill="#FCEFD0" mask="url(#d)"/><path fill="#000" mask="url(#d)" d="M25.914 42.9h-8.446l-1.085-1.35h8.446z"/><path fill="#8F5145" mask="url(#d)" d="M22.892 38.852h-4.7l.542 1.484h3.616z"/><path d="M19.39 38.885a.71.71 0 0 1-.713.709.71.71 0 0 1-.712-.709.71.71 0 0 1 .712-.708.71.71 0 0 1 .712.708" fill="#286024" mask="url(#d)"/><path d="M19.895 38.267a.586.586 0 0 1-.588.585.585.585 0 0 1 0-1.169c.325 0 .588.261.588.584" fill="#286024" mask="url(#d)"/><path d="M20.542 38.881a.616.616 0 0 1-1.235 0 .617.617 0 1 1 1.235 0" fill="#286024" mask="url(#d)"/><path d="M20.542 37.817c0 .294-.24.532-.535.532a.533.533 0 1 1 0-1.064c.296 0 .535.238.535.532m1.04 1.008a.56.56 0 0 1-.561.558.559.559 0 0 1 0-1.116c.309 0 .56.25.56.558" fill="#286024" mask="url(#d)"/><path d="M21.943 38.35c0 .198-.162.36-.362.36a.36.36 0 1 1 0-.72c.2 0 .362.16.362.36" fill="#286024" mask="url(#d)"/><path d="M22.308 38.852a.414.414 0 0 1-.83 0 .414.414 0 0 1 .83 0" fill="#286024" mask="url(#d)"/><path d="M23.22 38.439a.699.699 0 0 1-.7.697.7.7 0 0 1-.702-.697c0-.386.314-.697.701-.697.388 0 .7.311.7.697" fill="#286024" mask="url(#d)"/><path d="M21.893 38.17a.715.715 0 0 1-.717.714.715.715 0 0 1-.717-.713c0-.394.32-.713.717-.713.396 0 .717.32.717.713" fill="#286024" mask="url(#d)"/><path d="M20.756 38.433c0 .342-.306.621-.684.621-.377 0-.682-.279-.682-.621 0-.343.305-.621.682-.621.378 0 .684.278.684.62" fill="#286024" mask="url(#d)"/><path fill="#B76959" mask="url(#d)" d="M.107 45.408h29.709v-2.28H.107zm0 42.566h29.709v-2.28H.107z"/><path fill="#5B3939" mask="url(#d)" d="M1.735 118.872H27.92v-7.787H1.735z"/><path fill="#8F5145" mask="url(#d)" d="M56.223 76.423h21.912v-52.76H56.223z"/><path d="M58.047 34.672h1.922v-8.605h-1.922v8.605zm3.57 0h1.921v-8.605h-1.922v8.605zm3.57 0h1.921v-8.605h-1.922v8.605zm3.567 0h1.922v-8.605h-1.922v8.605zm5.657-5.707h2.883v-2.869H74.41v2.869zm0 4.78h2.883v-2.868H74.41v2.868zm0 4.78h2.883v-2.868H74.41v2.868zm0 4.78h2.883v-2.868H74.41v2.868zM54.593 22.692l.268 96.399h26.185l-.269-96.399H54.593z" fill="#8F5145" mask="url(#d)"/><path d="M70.768 62.788h4.728c.396 0 .718-.32.718-.714V51.7a.716.716 0 0 0-.718-.715h-4.728a.716.716 0 0 0-.717.715v10.373c0 .394.321.714.717.714" fill="#E2CB85" mask="url(#d)"/><path fill="#5B3939" mask="url(#d)" d="M70.053 57.916h6.161v-7.015h-6.161z"/><path d="M70.651 50.986h4.962a.59.59 0 0 1 .465.235h-4.05a.6.6 0 0 0-.6.598v10.606a.58.58 0 0 0 .136.363h-.913a.6.6 0 0 1-.6-.598V51.585a.6.6 0 0 1 .6-.599" fill="#000" opacity=".303" mask="url(#d)"/><path d="M70.05 62.788h6.164V51.7a.717.717 0 0 0-.719-.715h-4.727a.717.717 0 0 0-.718.715v11.087z" stroke="#FCEFD0" stroke-width=".645" opacity=".296" mask="url(#d)"/><path d="M71.755 50.816a1.377 1.377 0 0 1 1.377-1.322c.745 0 1.348.587 1.378 1.322h-2.755zm-1.705 6.305h6.164v-1.214H70.05zm-1.182 5.982h8.446v-1.215h-8.446z" fill="#FCEFD0" mask="url(#d)"/><path fill="#000" mask="url(#d)" d="M67.783 64.452h8.446l1.085-1.35h-8.446z"/><path fill="#8F5145" mask="url(#d)" d="M70.805 60.404h4.701l-.542 1.485h-3.616z"/><path d="M74.308 60.438a.71.71 0 0 0 .713.709.71.71 0 0 0 .711-.709.71.71 0 0 0-.711-.708.71.71 0 0 0-.713.708" fill="#286024" mask="url(#d)"/><path d="M73.803 59.82c0 .323.263.584.587.584a.585.585 0 1 0 0-1.169.586.586 0 0 0-.587.585" fill="#286024" mask="url(#d)"/><path d="M73.156 60.434c0 .34.277.614.617.614a.615.615 0 1 0 0-1.228.616.616 0 0 0-.617.614" fill="#286024" mask="url(#d)"/><path d="M73.156 59.37c0 .294.24.532.535.532a.533.533 0 1 0 0-1.064.533.533 0 0 0-.535.532m-1.04 1.008a.56.56 0 0 0 .562.559.56.56 0 1 0 0-1.117.56.56 0 0 0-.562.558" fill="#286024" mask="url(#d)"/><path d="M71.754 59.902a.361.361 0 0 0 .723 0 .361.361 0 1 0-.723 0" fill="#286024" mask="url(#d)"/><path d="M71.39 60.404a.415.415 0 0 0 .83 0 .413.413 0 0 0-.415-.413.414.414 0 0 0-.415.413" fill="#286024" mask="url(#d)"/><path d="M70.478 59.992c0 .385.313.696.7.696a.699.699 0 0 0 .701-.696.699.699 0 0 0-.7-.697.698.698 0 0 0-.701.697" fill="#286024" mask="url(#d)"/><path d="M71.805 59.723c0 .394.321.714.717.714.396 0 .717-.32.717-.714a.715.715 0 0 0-.717-.713.715.715 0 0 0-.717.713" fill="#286024" mask="url(#d)"/><path d="M72.941 59.986c0 .343.307.621.684.621.378 0 .683-.278.683-.621 0-.343-.305-.621-.683-.621-.377 0-.684.278-.684.62" fill="#286024" mask="url(#d)"/><path d="M60.03 62.703h4.726c.397 0 .719-.32.719-.715V51.616a.717.717 0 0 0-.719-.715H60.03a.716.716 0 0 0-.717.715v10.372c0 .395.321.715.717.715" fill="#E2CB85" mask="url(#d)"/><path fill="#5B3939" mask="url(#d)" d="M59.314 53.197h6.161v-2.38h-6.161z"/><path d="M59.912 50.9h4.962a.59.59 0 0 1 .465.235h-4.05a.6.6 0 0 0-.6.598v10.606c0 .14.055.262.136.364h-.913a.6.6 0 0 1-.6-.598V51.499a.6.6 0 0 1 .6-.598" fill="#000" opacity=".297" mask="url(#d)"/><path d="M61.016 50.73a1.377 1.377 0 0 1 1.377-1.322c.745 0 1.348.588 1.378 1.322h-2.755zm-1.705 6.306h6.164v-1.215h-6.164zm-1.181 5.981h8.445v-1.214H58.13z" fill="#FCEFD0" mask="url(#d)"/><path fill="#000" mask="url(#d)" d="M57.044 64.367h8.446l1.085-1.35h-8.446z"/><path fill="#8F5145" mask="url(#d)" d="M60.066 60.319h4.701l-.543 1.484H60.61z"/><path d="M63.57 60.353a.71.71 0 0 0 .712.708.71.71 0 0 0 .711-.708.71.71 0 0 0-.711-.709.71.71 0 0 0-.713.709" fill="#286024" mask="url(#d)"/><path d="M63.064 59.734c0 .323.263.584.587.584a.586.586 0 0 0 .588-.584.586.586 0 0 0-.588-.584.586.586 0 0 0-.587.584" fill="#286024" mask="url(#d)"/><path d="M62.417 60.348c0 .34.277.614.617.614a.615.615 0 1 0 0-1.228.616.616 0 0 0-.617.614" fill="#286024" mask="url(#d)"/><path d="M62.417 59.285c0 .293.239.531.534.531a.533.533 0 1 0 0-1.064.533.533 0 0 0-.534.533m-1.04 1.008a.56.56 0 0 0 .561.558.56.56 0 1 0 0-1.117.56.56 0 0 0-.561.559" fill="#286024" mask="url(#d)"/><path d="M61.015 59.816a.361.361 0 0 0 .723 0 .361.361 0 1 0-.723 0" fill="#286024" mask="url(#d)"/><path d="M60.65 60.319a.415.415 0 0 0 .83 0 .414.414 0 0 0-.83 0" fill="#286024" mask="url(#d)"/><path d="M59.739 59.906c0 .385.313.697.7.697a.7.7 0 0 0 .701-.697.699.699 0 0 0-.701-.697c-.387 0-.7.312-.7.697" fill="#286024" mask="url(#d)"/><path d="M61.066 59.638c0 .394.32.713.716.713.397 0 .718-.32.718-.713a.715.715 0 0 0-.718-.713.714.714 0 0 0-.716.713" fill="#286024" mask="url(#d)"/><path d="M62.202 59.9c0 .343.306.622.684.622.378 0 .683-.28.683-.622 0-.342-.305-.621-.683-.621-.378 0-.684.279-.684.621" fill="#286024" mask="url(#d)"/><path d="M70.768 84.271h4.728c.396 0 .718-.32.718-.714V73.184a.716.716 0 0 0-.718-.714h-4.728a.716.716 0 0 0-.717.714v10.373c0 .394.321.714.717.714" fill="#E2CB85" mask="url(#d)"/><path fill="#5B3939" mask="url(#d)" d="M70.053 76.12h6.161v-3.735h-6.161z"/><path d="M70.651 72.47h4.962a.59.59 0 0 1 .465.234h-4.05a.6.6 0 0 0-.6.598v10.606c0 .139.055.262.136.363h-.913a.6.6 0 0 1-.6-.598V73.068a.6.6 0 0 1 .6-.598" fill="#000" opacity=".296" mask="url(#d)"/><path d="M70.05 84.271h6.164V73.184a.716.716 0 0 0-.719-.714h-4.727a.716.716 0 0 0-.718.714v11.087z" stroke="#FCEFD0" stroke-width=".645" mask="url(#d)"/><path d="M71.755 72.299a1.377 1.377 0 0 1 1.377-1.322c.745 0 1.348.588 1.378 1.322h-2.755zm-1.705 6.306h6.164v-1.214H70.05zm-1.182 5.981h8.446v-1.214h-8.446z" fill="#FCEFD0" mask="url(#d)"/><path fill="#000" mask="url(#d)" d="M67.783 85.935h8.446l1.085-1.349h-8.446z"/><path fill="#8F5145" mask="url(#d)" d="M70.805 81.888h4.701l-.542 1.484h-3.616z"/><path d="M74.308 81.921a.711.711 0 0 0 1.424 0 .711.711 0 1 0-1.424 0" fill="#286024" mask="url(#d)"/><path d="M73.803 81.303c0 .323.263.585.587.585a.585.585 0 0 0 0-1.169.586.586 0 0 0-.587.584" fill="#286024" mask="url(#d)"/><path d="M73.156 81.918a.616.616 0 0 0 1.234 0 .615.615 0 0 0-.617-.615.616.616 0 0 0-.617.615" fill="#286024" mask="url(#d)"/><path d="M73.156 80.854c0 .293.24.531.535.531a.533.533 0 0 0 .534-.531.533.533 0 0 0-.534-.532.533.533 0 0 0-.535.532m-1.04 1.008a.56.56 0 0 0 .562.558.559.559 0 1 0 0-1.116.56.56 0 0 0-.562.558" fill="#286024" mask="url(#d)"/><path d="M71.754 81.385a.361.361 0 1 0 .723 0 .361.361 0 0 0-.723 0" fill="#286024" mask="url(#d)"/><path d="M71.39 81.888c0 .228.186.413.415.413a.413.413 0 1 0 0-.826.414.414 0 0 0-.415.413" fill="#286024" mask="url(#d)"/><path d="M70.478 81.475c0 .386.313.697.7.697a.699.699 0 0 0 .701-.697.7.7 0 0 0-.7-.697.698.698 0 0 0-.701.697" fill="#286024" mask="url(#d)"/><path d="M71.805 81.207c0 .394.321.713.717.713.396 0 .717-.32.717-.713a.715.715 0 0 0-.717-.713.715.715 0 0 0-.717.713" fill="#286024" mask="url(#d)"/><path d="M72.941 81.47c0 .342.307.62.684.62.378 0 .683-.278.683-.62 0-.343-.305-.622-.683-.622-.377 0-.684.279-.684.621" fill="#286024" mask="url(#d)"/><path d="M60.03 84.186h4.726c.397 0 .719-.32.719-.714V73.099a.716.716 0 0 0-.719-.714H60.03a.716.716 0 0 0-.717.714v10.373c0 .394.321.714.717.714" fill="#E2CB85" mask="url(#d)"/><path fill="#5B3939" mask="url(#d)" d="M59.314 79.314h6.161V72.3h-6.161z"/><path d="M59.912 72.385h4.962a.59.59 0 0 1 .465.233h-4.05a.6.6 0 0 0-.6.598v10.607a.58.58 0 0 0 .136.363h-.913a.6.6 0 0 1-.6-.598V72.983a.6.6 0 0 1 .6-.598" fill="#000" opacity=".296" mask="url(#d)"/><path d="M59.311 84.186h6.164V73.099a.717.717 0 0 0-.719-.714H60.03a.716.716 0 0 0-.718.714v11.087z" stroke="#FCEFD0" stroke-width=".645" mask="url(#d)"/><path d="M61.016 72.214a1.377 1.377 0 0 1 1.377-1.323c.745 0 1.348.588 1.378 1.323h-2.755zm-1.705 6.306h6.164v-1.215h-6.164zM58.13 84.5h8.445v-1.214H58.13z" fill="#FCEFD0" mask="url(#d)"/><path fill="#000" mask="url(#d)" d="M57.044 85.85h8.446l1.085-1.35h-8.446z"/><path fill="#8F5145" mask="url(#d)" d="M60.066 81.802h4.701l-.543 1.485H60.61z"/><path d="M63.57 81.836a.711.711 0 0 0 1.423 0 .711.711 0 1 0-1.424 0" fill="#286024" mask="url(#d)"/><path d="M63.064 81.218c0 .323.263.584.587.584a.586.586 0 0 0 .588-.584.586.586 0 0 0-.588-.585.586.586 0 0 0-.587.585" fill="#286024" mask="url(#d)"/><path d="M62.417 81.832a.616.616 0 0 0 1.234 0 .616.616 0 1 0-1.235 0" fill="#286024" mask="url(#d)"/><path d="M62.417 80.768c0 .294.239.532.534.532a.533.533 0 0 0 0-1.064.533.533 0 0 0-.534.532m-1.04 1.008a.56.56 0 0 0 .561.558.559.559 0 1 0 0-1.116.56.56 0 0 0-.561.558" fill="#286024" mask="url(#d)"/><path d="M61.015 81.3a.361.361 0 0 0 .723 0 .36.36 0 0 0-.36-.36.36.36 0 0 0-.363.36" fill="#286024" mask="url(#d)"/><path d="M60.65 81.802a.414.414 0 0 0 .83 0 .414.414 0 1 0-.83 0" fill="#286024" mask="url(#d)"/><path d="M59.739 81.39c0 .385.313.696.7.696a.699.699 0 0 0 .701-.696.7.7 0 0 0-.701-.698.7.7 0 0 0-.7.698" fill="#286024" mask="url(#d)"/><path d="M61.066 81.121c0 .394.32.713.716.713.397 0 .718-.32.718-.713a.715.715 0 0 0-.718-.713.715.715 0 0 0-.716.713" fill="#286024" mask="url(#d)"/><path d="M62.202 81.384c0 .343.306.62.684.62.378 0 .683-.277.683-.62 0-.343-.305-.621-.683-.621-.378 0-.684.278-.684.621" fill="#286024" mask="url(#d)"/><path d="M70.752 101.945h4.727c.397 0 .719-.32.719-.715V90.857a.716.716 0 0 0-.719-.714h-4.727a.716.716 0 0 0-.718.714v10.373c0 .395.322.715.718.715" fill="#E2CB85" mask="url(#d)"/><path d="M70.635 90.143h4.962c.191 0 .354.095.465.234h-4.05a.6.6 0 0 0-.6.598v10.606c0 .14.055.262.135.364h-.912a.6.6 0 0 1-.601-.598V90.74a.6.6 0 0 1 .6-.598" fill="#000" opacity=".296" mask="url(#d)"/><path d="M70.034 101.945h6.164V90.857a.717.717 0 0 0-.72-.714h-4.726a.716.716 0 0 0-.718.714v11.088z" stroke="#FCEFD0" stroke-width=".645" mask="url(#d)"/><path d="M71.739 89.972a1.377 1.377 0 0 1 1.377-1.322c.745 0 1.348.587 1.377 1.322H71.74zm-1.705 6.306h6.164v-1.215h-6.164zm-1.182 5.982h8.446v-1.215h-8.446z" fill="#FCEFD0" mask="url(#d)"/><path fill="#000" mask="url(#d)" d="M67.767 103.609h8.446l1.085-1.35h-8.446z"/><path fill="#8F5145" mask="url(#d)" d="M70.789 99.56h4.7l-.542 1.485h-3.616z"/><path d="M74.292 99.595a.71.71 0 0 0 .712.708.71.71 0 0 0 .712-.708.71.71 0 0 0-.712-.709.71.71 0 0 0-.712.709" fill="#286024" mask="url(#d)"/><path d="M73.786 98.976c0 .323.263.585.588.585a.586.586 0 0 0 .587-.585.586.586 0 0 0-.587-.585.586.586 0 0 0-.588.585" fill="#286024" mask="url(#d)"/><path d="M73.14 99.59c0 .34.276.615.617.615a.616.616 0 0 0 .617-.615.616.616 0 1 0-1.235 0" fill="#286024" mask="url(#d)"/><path d="M73.14 98.527c0 .293.239.531.534.531a.533.533 0 1 0 0-1.063.533.533 0 0 0-.535.532M72.1 99.535a.56.56 0 0 0 .56.558.56.56 0 1 0 0-1.117.56.56 0 0 0-.56.559" fill="#286024" mask="url(#d)"/><path d="M71.738 99.059a.361.361 0 0 0 .723 0 .361.361 0 1 0-.723 0" fill="#286024" mask="url(#d)"/><path d="M71.373 99.56a.415.415 0 0 0 .83 0 .414.414 0 1 0-.83 0" fill="#286024" mask="url(#d)"/><path d="M70.461 99.148c0 .385.314.697.7.697a.698.698 0 0 0 .701-.697.698.698 0 0 0-.7-.697c-.387 0-.7.312-.7.697" fill="#286024" mask="url(#d)"/><path d="M71.789 98.88c0 .394.32.713.716.713.396 0 .717-.32.717-.713a.715.715 0 0 0-.717-.713.714.714 0 0 0-.716.713" fill="#286024" mask="url(#d)"/><path d="M72.925 99.142c0 .343.306.622.684.622.377 0 .683-.28.683-.622 0-.342-.306-.621-.683-.621-.378 0-.684.279-.684.621" fill="#286024" mask="url(#d)"/><path d="M60.013 101.86h4.727c.397 0 .718-.32.718-.715V90.772a.717.717 0 0 0-.718-.715h-4.727a.716.716 0 0 0-.718.715v10.373c0 .394.322.714.718.714" fill="#E2CB85" mask="url(#d)"/><path d="M59.896 90.057h4.962c.19 0 .354.095.464.234h-4.049a.6.6 0 0 0-.601.598v10.606c0 .14.056.262.136.364h-.912a.6.6 0 0 1-.601-.598V90.655a.6.6 0 0 1 .6-.598" fill="#000" opacity=".296" mask="url(#d)"/><path d="M59.294 101.858h6.164V90.771a.716.716 0 0 0-.719-.714h-4.727a.716.716 0 0 0-.718.714v11.087z" stroke="#FCEFD0" stroke-width=".645" mask="url(#d)"/><path d="M61 89.886a1.377 1.377 0 1 1 2.755 0h-2.756zm-1.705 6.306h6.164v-1.215h-6.164zm-1.183 5.982h8.446v-1.215h-8.446z" fill="#FCEFD0" mask="url(#d)"/><path fill="#000" mask="url(#d)" d="M57.028 103.523h8.446l1.085-1.35h-8.446z"/><path fill="#8F5145" mask="url(#d)" d="M60.05 99.476h4.7l-.542 1.483h-3.616z"/><path d="M63.553 99.509a.71.71 0 0 0 .712.708.71.71 0 0 0 .712-.708.71.71 0 0 0-.712-.708.71.71 0 0 0-.712.708" fill="#286024" mask="url(#d)"/><path d="M63.047 98.891c0 .323.263.584.588.584a.586.586 0 0 0 .587-.584.586.586 0 0 0-.587-.585.585.585 0 0 0-.588.585" fill="#286024" mask="url(#d)"/><path d="M62.4 99.505a.616.616 0 0 0 1.235 0 .616.616 0 0 0-.618-.614.616.616 0 0 0-.617.614" fill="#286024" mask="url(#d)"/><path d="M62.4 98.441c0 .294.24.532.534.532a.533.533 0 1 0 0-1.064.533.533 0 0 0-.534.532m-1.04 1.009a.56.56 0 0 0 .561.557.559.559 0 0 0 0-1.116.56.56 0 0 0-.56.558" fill="#286024" mask="url(#d)"/><path d="M60.999 98.973c0 .2.162.36.362.36a.36.36 0 1 0 0-.72.36.36 0 0 0-.362.36" fill="#286024" mask="url(#d)"/><path d="M60.634 99.476a.414.414 0 1 0 .83 0 .414.414 0 0 0-.83 0" fill="#286024" mask="url(#d)"/><path d="M59.722 99.062a.7.7 0 0 0 .7.698.698.698 0 0 0 0-1.394c-.387 0-.7.311-.7.696" fill="#286024" mask="url(#d)"/><path d="M61.049 98.795c0 .393.32.712.716.712a.715.715 0 0 0 .718-.712.715.715 0 0 0-.718-.713.715.715 0 0 0-.716.713" fill="#286024" mask="url(#d)"/><path d="M62.186 99.057c0 .342.306.62.684.62.377 0 .682-.278.682-.62 0-.343-.305-.622-.682-.622-.378 0-.684.28-.684.622" fill="#286024" mask="url(#d)"/><path fill="#B76959" mask="url(#d)" d="M53.071 66.966h29.71v-2.28H53.07z"/><path d="M70.59 41.54h4.728c.396 0 .718-.32.718-.715V30.453a.716.716 0 0 0-.718-.715H70.59a.716.716 0 0 0-.718.715v10.372c0 .395.321.715.718.715" fill="#E2CB85" mask="url(#d)"/><path fill="#5B3939" mask="url(#d)" d="M69.875 36.668h6.161v-7.015h-6.161z"/><path d="M70.473 29.738h4.962a.59.59 0 0 1 .465.235h-4.05a.599.599 0 0 0-.6.597v10.606c0 .14.055.262.136.364h-.913a.599.599 0 0 1-.6-.598V30.336a.6.6 0 0 1 .6-.598" fill="#000" opacity=".296" mask="url(#d)"/><path d="M69.872 41.54h6.164V30.453a.717.717 0 0 0-.719-.715H70.59a.716.716 0 0 0-.718.715V41.54z" stroke="#FCEFD0" stroke-width=".645" mask="url(#d)"/><path d="M71.577 29.568a1.377 1.377 0 0 1 1.377-1.323c.745 0 1.349.588 1.378 1.323h-2.755zm-1.705 6.305h6.164v-1.214h-6.164zm-1.182 5.982h8.446V40.64H68.69z" fill="#FCEFD0" mask="url(#d)"/><path fill="#000" mask="url(#d)" d="M67.605 43.204h8.446l1.085-1.35H68.69z"/><path fill="#8F5145" mask="url(#d)" d="M70.627 39.156h4.701l-.542 1.485H71.17z"/><path d="M74.13 39.19a.71.71 0 0 0 .713.709.71.71 0 0 0 .711-.709.71.71 0 0 0-1.424 0" fill="#286024" mask="url(#d)"/><path d="M73.625 38.572c0 .323.263.584.588.584a.586.586 0 0 0 .587-.584.586.586 0 0 0-.587-.585.586.586 0 0 0-.588.585" fill="#286024" mask="url(#d)"/><path d="M72.978 39.186c0 .34.277.614.617.614a.616.616 0 0 0 .617-.614.616.616 0 1 0-1.235 0" fill="#286024" mask="url(#d)"/><path d="M72.978 38.122a.533.533 0 1 0 1.07 0 .533.533 0 0 0-.536-.532.533.533 0 0 0-.534.532m-1.04 1.008a.56.56 0 0 0 .56.558.559.559 0 1 0 0-1.116.56.56 0 0 0-.56.558" fill="#286024" mask="url(#d)"/><path d="M71.576 38.654a.361.361 0 0 0 .723 0 .36.36 0 0 0-.36-.36.36.36 0 0 0-.363.36" fill="#286024" mask="url(#d)"/><path d="M71.212 39.156c0 .229.186.413.415.413a.414.414 0 1 0 0-.826.414.414 0 0 0-.415.413" fill="#286024" mask="url(#d)"/><path d="M70.3 38.744c0 .385.313.696.7.696a.699.699 0 0 0 .701-.696.7.7 0 0 0-.7-.698.699.699 0 0 0-.701.698" fill="#286024" mask="url(#d)"/><path d="M71.627 38.475c0 .394.32.713.717.713a.715.715 0 0 0 .717-.713.715.715 0 0 0-.717-.713.715.715 0 0 0-.717.713" fill="#286024" mask="url(#d)"/><path d="M72.763 38.738c0 .342.306.62.684.62.378 0 .683-.278.683-.62 0-.343-.305-.621-.683-.621-.378 0-.684.278-.684.62" fill="#286024" mask="url(#d)"/><path d="M59.851 41.455h4.728c.396 0 .718-.32.718-.715V30.367a.716.716 0 0 0-.718-.714H59.85a.716.716 0 0 0-.717.714V40.74c0 .395.321.715.717.715" fill="#E2CB85" mask="url(#d)"/><path fill="#5B3939" mask="url(#d)" d="M59.135 40.51h6.162V29.567h-6.162z"/><path d="M59.734 29.653h4.962a.59.59 0 0 1 .465.234h-4.05a.6.6 0 0 0-.6.598V41.09c0 .14.055.262.136.364h-.913a.6.6 0 0 1-.6-.598V30.25a.6.6 0 0 1 .6-.598" fill="#000" opacity=".296" mask="url(#d)"/><path d="M59.133 41.455h6.164V30.367a.717.717 0 0 0-.719-.714h-4.727a.716.716 0 0 0-.718.714v11.088z" stroke="#FCEFD0" stroke-width=".645" mask="url(#d)"/><path d="M60.838 29.482a1.377 1.377 0 0 1 1.377-1.322c.745 0 1.348.587 1.378 1.322h-2.755zm-1.704 6.305h6.164v-1.214h-6.164zm-1.184 5.982h8.447v-1.214H57.95z" fill="#FCEFD0" mask="url(#d)"/><path fill="#000" mask="url(#d)" d="M56.866 43.119h8.446l1.085-1.35h-8.446z"/><path fill="#8F5145" mask="url(#d)" d="M59.888 39.07h4.701l-.542 1.485H60.43z"/><path d="M63.391 39.105a.71.71 0 0 0 .712.708.71.71 0 0 0 .712-.708.71.71 0 0 0-.712-.709.71.71 0 0 0-.712.709" fill="#286024" mask="url(#d)"/><path d="M62.886 38.486c0 .323.263.584.587.584a.586.586 0 0 0 .588-.584.586.586 0 0 0-.588-.585.586.586 0 0 0-.587.585" fill="#286024" mask="url(#d)"/><path d="M62.239 39.1c0 .34.277.614.617.614a.616.616 0 0 0 .617-.614.616.616 0 1 0-1.235 0" fill="#286024" mask="url(#d)"/><path d="M62.239 38.037c0 .293.239.531.534.531a.533.533 0 1 0 0-1.064.533.533 0 0 0-.534.533m-1.04 1.008a.56.56 0 0 0 .56.558.56.56 0 1 0 0-1.117.56.56 0 0 0-.56.559" fill="#286024" mask="url(#d)"/><path d="M60.837 38.568a.361.361 0 0 0 .723 0 .361.361 0 1 0-.723 0" fill="#286024" mask="url(#d)"/><path d="M60.473 39.07a.414.414 0 1 0 .828 0 .414.414 0 0 0-.828 0" fill="#286024" mask="url(#d)"/><path d="M59.56 38.658a.7.7 0 0 0 .701.697.698.698 0 0 0 0-1.394c-.387 0-.7.312-.7.697" fill="#286024" mask="url(#d)"/><path d="M60.887 38.39c0 .394.321.713.718.713.396 0 .717-.32.717-.714a.715.715 0 0 0-.717-.712.715.715 0 0 0-.718.712" fill="#286024" mask="url(#d)"/><path d="M62.024 38.652c0 .343.306.621.684.621.378 0 .683-.278.683-.62 0-.344-.305-.622-.683-.622-.378 0-.684.278-.684.621" fill="#286024" mask="url(#d)"/><path fill="#B76959" mask="url(#d)" d="M52.965 45.626h29.709v-2.279H52.965zm0 42.567h29.709v-2.28H52.965z"/><path fill="#5B3939" mask="url(#d)" d="M54.861 119.091h26.185v-7.786H54.861zm-1.695-75.18H29.56L27.828 55.55H54.9z"/><path fill="#000" mask="url(#d)" d="M53.621 46.967l-.455-3.056H29.56l-.455 3.056z"/><path fill="#FCEFD0" mask="url(#d)" d="M26.386 57.894h29.756v-2.346H26.386zm3.175-13.983h23.404v-1.658H29.561z"/><path fill="#000" opacity=".256" mask="url(#d)" d="M27.828 63.228h27.071v-5.334H27.828z"/></g></g></svg>