<svg width="95" height="113" viewBox="-1 -1 95 113" xmlns="http://www.w3.org/2000/svg"><path fill="#BE0A3C" d="M73.54 95.378c1.932 2.989 6.952 9.232 7.74 10.205 2.236 2.761 6.672 5.346 9.6 5.719 2.928.372 3.26.148 3.26.148a.363.363 0 0 0 .4-.4c0-.441-4.444-.997-7.156-4.471-4.86-6.231-10.58-17.364-12.956-20.473 0 0-3.112-2.001-3.756 1.796-.644 3.798 2.868 7.476 2.868 7.476z"/><path fill="#BE0A3C" d="M89 110.493s-1.02-1.236-1.24-1.2c0 0-2.624 1.548-2.696 1.913-.048.244 1.356.044 2.552-.337h.056l1.328-.376zM17.8 85.681c-1.132 2.366-2.928 3.602-4.556 3.654-1.628.052-2.496-1.036-3.156-2.401-1.34-2.801-1.2-10.609-1.6-10.533-.4.076-.48 1.601-.652 2.149-1.164-.276-.536-2.581-1.284-2.505-.352.036.08 2.449-.828 2.529-.908.08-.724-1.369-1.088-2.097-1.412 5.026-.56 13.17 4.4 16.048 4.712 2.737 10.576.188 12.652-6.88 0 0 .892-2.753-1.68-2.513-2.572.24-2.208 2.549-2.208 2.549z"/><path fill="#82001E" d="M8.6 82.812s1.472-.356 1.948-2.249c.108-.424.276-2.301-.276-2.325-.552-.024-.248 1.048-.624 1.625-.376.576-1.048-.277-2.376.148-1.328.424-1.504 4.202 1.328 2.801zm9.02 27.681s13.96-.484 13.32-4.182c-.64-3.697-5.68-3.201-7.392-2.801-7.488 1.737-20.608 4.65-21.896 4.37-.144-.56.16-1.133-.096-1.649-.272-.14-.52-.268-.8.064 0 .196 0 3.762-.06 3.966.268.348 16.924.232 16.924.232zm26.924-97.498s14.144 14.342 14.288 15.607c-1.484.044-24.456 4.122-24.456 4.122L14.48 27.481l30.064-14.486z"/><path fill="#BE0A3C" d="M59.228.557L33.072.156c0 .333-.252 5.603.152 6.091.692.801 12.028 1.297 15.036 1.505 1.4.1 11.2-1.425 11.2-1.425s-.092-5.114-.232-5.77z"/><path fill="#FFC800" d="M14.48 27.485l18.744-21.21s12.692 3.602 15 6.123C44.016 15.196 14.48 27.485 14.48 27.485z"/><path fill="#F01446" d="M77.368 28.426c-1.348.184-15.456 2.257-15.456 2.257l-8.424-2.429S39 12.618 33.156 6.243c2-.704 26.304.084 26.304.084s15.612 18.325 17.908 22.099z"/><path fill="#BE0A3C" d="M77.024 110.994l-22.672.5-11.376-37.766 10.512-45.474 23.88.172s.312 52.653.12 62.106l-.464 20.462z"/><path fill="#F01446" d="M53.488 28.254s-34-.865-39.008-.769c-.256 4.675 2.088 59.385 2.6 69.05.128 2.401.136 4.778.204 7.167.036 1.273.336 6.803.336 6.803s2.736.06 3.924.108c2.264.088 4.524.292 6.8.353 4.58.116 9.148.18 13.728.36 2.12.084 12.288.176 12.288.176l-.872-83.248z"/><path fill="#FFF" d="M46.328 36.538s-21.5-.62-24.672-.552c-.164 3.349 1.504 61.585 2 62.429.496.845 1.728.541 2.48.573 1.432.064 2.86.212 4.296.252 2.896.084 5.788.128 8.684.26 1.34.06 7.772.128 7.772.128l-.56-63.09z"/><path fill="#82001E" d="M54.352 111.494l-.064-5.067-19.248 2.534-.06-1.869s-.276-.673-.648.036c-.116.22.4 4.594.4 4.594l19.62-.228z"/></svg>