<svg xmlns="http://www.w3.org/2000/svg" width="125.965" height="196.591" viewBox="-2.329 0.791 125.965 196.591"><defs><style/></defs><g id="ID0.3423005910590291" transform="matrix(1.05 0 0 1.05 0 .25)"><g id="ID0.18509940709918737"><g id="ID0.34680211497470737"><g id="R_Foot_4_"><g id="R_Foot_5_"><path id="Foot_Fill_6_" fill="#FF9248" d="M24.613 90.495c-.576-.52-2.141-1.64-4.493-1.167-1.062.214-2.158.734-3.258 1.549-.041-.486-.209-1.259-.823-1.81-.598-.535-1.468-.73-2.592-.584l8.859-7.218c.003 0 1.007-.658 2.092-.877.919-.185 1.616-.002 2.067.542 1.056 1.268-.879 7.064-1.852 9.565z" transform="translate(-1.3 -1.7) scale(1.88565)"/><path id="Shadow_12_" fill="#E87528" d="M18.082 90.063s9.318-15.72 6.439.069c0 0-2.79-2.025-6.439-.069z" transform="translate(-1.3 -1.7) scale(1.88565)"/><path id="Shadow_11_" fill="#E87528" d="M14.078 88.229s2.044.229 2.751 2.085c0 0 12.735-14.694-2.751-2.085z" transform="translate(-1.3 -1.7) scale(1.88565)"/><path id="Outline_26_" d="M24.441 80.602c.845-.17 1.453-.017 1.857.468.864 1.034-.557 5.874-1.777 9.062-.743-.582-2.273-1.454-4.445-1.018-.997.2-2.021.661-3.048 1.376-.094-.497-.317-1.114-.842-1.586-.517-.461-1.209-.69-2.069-.687l8.291-6.759c.011-.005.986-.646 2.033-.856m-.086-.428c-1.148.231-2.188.923-2.188.923l-9.53 7.765a8.78 8.78 0 0 1 .389-.088c3.921-.788 3.624 2.539 3.624 2.539 1.312-1.043 2.487-1.565 3.512-1.771 2.868-.576 4.531 1.34 4.531 1.34s3.365-8.378 1.939-10.091c-.592-.712-1.462-.78-2.277-.617z" transform="translate(-1.3 -1.7) scale(1.88565)"/></g><g id="R_Skate_3_"><g id="Blade_10_"><path id="Blade_11_" fill="#B7B7B7" d="M23.746 92.889s-.375 1.52-3.41 2.464l.312 2.658s5.508-2.811 6.585-9.321l-.365-1.814.524-2.308.598 2.082s.259-1.826.554-2.4c.246-.479.907-.321.555 2.178-.118.83-.8 13.915-13.192 13.814l2.977-1.616-1.329-3.164s-3.208-.07-3.104-2.869c-.002-.001 3.216 3.185 9.295.296z" transform="translate(-1.3 -1.7) scale(1.88565)"/><path id="Blade_Outline_5_" d="M19.042 100.175a15.33 15.33 0 0 1-3.137.284l2.702-1.93-1.203-2.859c-.421-.034-1.669-.205-2.474-1.06-.494-.523-.729-1.206-.698-2.026l.019-.493.353.348c.02.02 2.147 2.055 6.119 1.256.944-.189 1.93-.526 2.931-1.001l.415-.198-.11.446c-.017.065-.425 1.591-3.385 2.563l.253 2.154c1.119-.672 5.283-3.508 6.192-8.928l-.365-1.813.526-2.399.422-.011.333 1.158c.106-.553.252-1.2.416-1.516.172-.337.526-.431.757-.212.411.389.34 1.583.207 2.518l-.021.2c-.359 3.518-2.071 11.875-10.252 13.519zm9.777-15.925c-.01.004-.044.028-.082.1-.228.443-.629 2.403-.699 2.901l-.352-.869-.27-.939-.326 1.437.356 1.846c-1.083 6.544-6.644 9.452-6.7 9.48l-.278.143-.37-3.15.173-.053c1.764-.549 2.592-1.296 2.969-1.79a12.57 12.57 0 0 1-2.431.767c-3.256.654-5.314-.47-6.126-1.056.06.493.247.909.561 1.244.837.887 2.3.932 2.313.934l.142.003 1.463 3.476-1.94 1.261c.753-.034 1.049-.096 1.734-.234 7.896-1.587 9.556-9.715 9.904-13.136l.023-.218c.26-1.847-.071-2.138-.064-2.147z" transform="translate(-1.3 -1.7) scale(1.88565)"/></g><g id="Boot_10_"><g id="Boot_11_"><path id="Fill_11_" fill="#FFF" d="M27.508 83.841s-1.032 7.078-2.846 9.108c-1.814 2.03-7.453 2.138-9.547 1.115-2.093-1.023-2.736-4.774-2.053-5.8.682-1.026 7.943-6.473 7.943-6.473s3.771-3.844 6.202-1.111c.001.001.671 1.695.301 3.161z" transform="translate(-1.3 -1.7) scale(1.88565)"/><path id="Outline_25_" d="M21.538 94.66c-2.303.463-5.104.291-6.519-.398-.994-.487-1.796-1.62-2.201-3.107-.334-1.239-.311-2.448.062-3.009.696-1.046 7.698-6.304 7.97-6.505.068-.069 1.697-1.712 3.548-2.083 1.184-.238 2.182.091 3.014 1.044.028.071.689 1.777.312 3.272-.042.291-1.065 7.165-2.899 9.222-.813.908-2.236 1.353-3.287 1.564zm5.505-13.834c-.679-.764-1.54-1.047-2.56-.842-1.718.345-3.307 1.945-3.347 1.982-2.012 1.509-7.35 5.603-7.894 6.419-.298.449-.299 1.565-.003 2.655.369 1.366 1.087 2.397 1.971 2.829 1.316.642 4.057.803 6.24.363 1.415-.285 2.468-.777 3.048-1.428 1.751-1.959 2.784-8.925 2.798-9.016.344-1.357-.265-2.96-.253-2.962z" transform="translate(-1.3 -1.7) scale(1.88565)"/></g><g id="Laces_5_" fill="#5BDDDD" stroke="#000" stroke-width=".25"><path id="Lace_11_" d="M19.08 83.285s3.218-1.101 4.769.532c0 0 .779.842-.298 1.004-1.08.162-.956-1.74-5.433-.79l.962-.746z" transform="translate(-1.3 -1.7) scale(1.88565)"/><path id="Lace_10_" d="M16.501 85.12s3.77-1.381 5.666.901c0 0 .956 1.178-.314 1.357-1.272.178-1.197-2.406-6.463-1.28l1.111-.978z" transform="translate(-1.3 -1.7) scale(1.88565)"/></g></g></g></g><g id="L_Foot_4_"><g id="L_Foot_5_"><path id="Foot_Fill_5_" fill="#FF9248" d="M50.591 89.198c.236-.738 1.022-2.494 3.293-3.271 1.027-.352 2.233-.453 3.595-.304-.21-.44-.454-1.191-.2-1.978.246-.764.9-1.371 1.944-1.81l-11.288-1.773c-.003.001-1.201-.062-2.249.296-.887.304-1.396.812-1.514 1.51-.273 1.628 4.318 5.66 6.419 7.33z" transform="translate(-1.3 -1.7) scale(1.88565)"/><path id="Shadow_10_" fill="#E87528" d="M56.015 85.535s-15.967-8.886-5.526 3.304c0-.001 1.389-3.155 5.526-3.304z" transform="translate(-1.3 -1.7) scale(1.88565)"/><path id="Shadow_9_" fill="#E87528" d="M58.552 81.935s-1.652 1.226-1.328 3.187c0 0-18.402-6.281 1.328-3.187z" transform="translate(-1.3 -1.7) scale(1.88565)"/><path id="Outline_24_" d="M45.756 80.565c1.011-.345 2.176-.283 2.188-.282l10.568 1.661c-.745.431-1.229.978-1.441 1.636-.217.672-.1 1.317.07 1.795-1.247-.1-2.363.017-3.327.347-2.096.716-2.978 2.241-3.325 3.117-2.662-2.14-6.325-5.604-6.101-6.934.105-.621.553-1.061 1.368-1.34m-.14-.412c-.787.27-1.504.767-1.657 1.68-.37 2.197 6.758 7.74 6.758 7.74s.472-2.493 3.239-3.439c.988-.338 2.269-.479 3.927-.238 0 0-1.934-2.726 1.853-4.021.121-.041.247-.081.38-.119L47.97 79.849c-.001-.001-1.246-.075-2.354.304z" transform="translate(-1.3 -1.7) scale(1.88565)"/></g><g id="L_Skate_2_"><g id="Blade_8_"><path id="Blade_9_" fill="#B7B7B7" d="M52.546 90.831s1.089 1.123 4.187.41l1.069 2.454s-6.173.346-10.384-4.736l-.599-1.751-1.615-1.73.532 2.101s-1.144-1.447-1.688-1.795c-.454-.29-.945.18.617 2.161.52.658 7.7 11.618 18.355 5.289l-3.386.104-.444-3.404s2.735-1.676 1.236-4.041c.002-.002-1.173 4.37-7.88 4.938z" transform="translate(-1.3 -1.7) scale(1.88565)"/><path id="Blade_Outline_4_" d="M60.28 94.755c-7.896 2.7-13.585-3.656-15.665-6.516l-.119-.161c-.585-.741-1.248-1.737-1.088-2.279.088-.306.442-.403.759-.199.301.19.754.676 1.124 1.1l-.296-1.169.37-.202 1.661 1.808.6 1.752c3.515 4.224 8.541 4.575 9.846 4.592l-.866-1.988c-3.047.65-4.169-.461-4.216-.509l-.319-.331.458-.038a12.739 12.739 0 0 0 3.036-.61c3.833-1.311 4.646-4.141 4.654-4.168l.129-.477.265.416c.439.693.58 1.401.418 2.102-.267 1.145-1.257 1.92-1.604 2.162l.401 3.075 3.306.308a15.584 15.584 0 0 1-2.854 1.332zm-16.467-8.833c.01.004-.131.423 1.023 1.886l.131.176c2.023 2.78 7.551 8.966 15.172 6.359.662-.226.949-.322 1.615-.672l-2.31-.111-.487-3.739.12-.074c.013-.009 1.254-.784 1.528-1.971a2.133 2.133 0 0 0-.142-1.357c-.405.914-1.617 2.923-4.759 3.997-.763.261-1.598.449-2.487.562.573.236 1.666.464 3.465.05l.178-.04 1.267 2.907-.313.018c-.062.003-6.332.292-10.563-4.815l-.621-1.775-1.005-1.075.24.946.135.927c-.312-.394-1.646-1.886-2.066-2.153-.068-.044-.112-.047-.121-.046z" transform="translate(-1.3 -1.7) scale(1.88565)"/></g><g id="Boot_8_"><g id="Boot_9_"><path id="Fill_10_" fill="#FFF" d="M44.738 84.91s4.458 5.594 7.047 6.435c2.59.841 7.515-1.907 8.81-3.845 1.293-1.938-.043-5.503-1.148-6.046-1.106-.542-10.123-1.59-10.123-1.59s-5.192-1.422-5.918 2.164c-.001 0 .274 1.802 1.332 2.882z" transform="translate(-1.3 -1.7) scale(1.88565)"/><path id="Outline_23_" d="M55.345 91.248c-.001 0-.001 0 0 0-1.016.347-2.468.681-3.628.304-2.62-.852-6.966-6.275-7.149-6.506-1.079-1.101-1.366-2.909-1.377-2.984.236-1.242.935-2.03 2.076-2.421 1.786-.61 4.021-.012 4.113.014.338.037 9.034 1.052 10.161 1.604.605.296 1.236 1.329 1.57 2.569.4 1.488.278 2.87-.336 3.792-.873 1.308-3.207 2.868-5.43 3.628zM43.62 82.07c.013-.005.295 1.687 1.274 2.688.059.071 4.46 5.568 6.959 6.38.827.269 1.986.165 3.351-.302h.001c2.107-.721 4.395-2.239 5.208-3.457.546-.818.646-2.07.278-3.438-.294-1.09-.858-2.054-1.341-2.292-.88-.432-7.555-1.278-10.052-1.569-.055-.011-2.232-.594-3.891-.027-.983.336-1.585 1.015-1.787 2.017z" transform="translate(-1.3 -1.7) scale(1.88565)"/></g><g id="Laces_4_" fill="#5BDDDD" stroke="#000" stroke-width=".25"><path id="Lace_9_" d="M51.739 80.183s-3.333.67-3.851 2.861c0 0-.25 1.12.764.717 1.013-.404-.052-1.984 4.295-3.419l-1.208-.159z" transform="translate(-1.3 -1.7) scale(1.88565)"/><path id="Lace_8_" d="M54.891 80.469s-3.952.706-4.44 3.633c0 0-.233 1.498.955 1.013 1.188-.485-.178-2.68 4.938-4.36l-1.453-.286z" transform="translate(-1.3 -1.7) scale(1.88565)"/></g></g></g></g><path id="Left_Flipper_2_" fill="#303A82" stroke="#000" stroke-width=".943" d="M82.896 72.497s21.24-9.546 24.463-14.43c3.224-4.881 8.142-8.936 8.949-2.719.805 6.22-.29 26.39-16.94 39.265-.003.002-20.577-5.906-16.472-22.116z"/><path id="Right_Flipper_2_" fill="#303A82" stroke="#000" stroke-width=".943" d="M32.781 75.412S15.122 90.589 9.33 91.432c-5.789.841-11.547 3.575-6.262 6.945 5.29 3.37 24.014 10.946 42.744 1.337 0 0 3.39-21.134-13.03-24.302z"/><g id="Body_4_"><g id="Body_5_"><g id="Body_Base_2_"><path id="ID0.3758266866207123" fill="#303A82" d="M54.625 54.947c-1.27-13.86-8.246-13.171-9.02-18.875-.775-5.704-.662-18.666-11.596-18.552-10.933.114-11 13.167-11.655 18.885-.655 5.718-7.624 5.242-8.604 19.125-.98 13.883 4.984 21.844 6.797 24.812 1.813 2.97 5.809 1.497 6.332.448a1344.1 1344.1 0 0 0 1.718-3.472c1.354 1.177 5.413 1.328 5.907 1.335 0 0 4.6-.147 5.93-1.353 0 0 1.244 2.398 1.789 3.436.547 1.039 4.57 2.428 6.322-.578 1.749-3.006 7.351-11.354 6.08-25.211z" transform="translate(-1.3 -1.7) scale(1.88565)"/><path id="Outline_22_" d="M54.875 54.924c-.791-8.617-3.746-11.652-6.121-14.09-1.461-1.499-2.615-2.683-2.9-4.795-.09-.661-.168-1.42-.252-2.245-.635-6.18-1.695-16.524-11.449-16.524l-.145.001c-10.118.105-11.122 10.866-11.721 17.295-.062.659-.119 1.268-.182 1.812-.242 2.118-1.367 3.335-2.793 4.877-2.317 2.507-5.201 5.628-5.812 14.259-.905 12.813 4.147 20.738 6.306 24.122.199.313.378.593.527.838.945 1.55 2.369 1.875 3.396 1.875 1.562 0 3.031-.762 3.373-1.445.416-.835 1.258-2.54 1.584-3.202 1.711 1.134 5.771 1.203 5.824 1.204.182-.006 4.195-.147 5.818-1.211v.007c.008-.004.016-.012.021-.016.34.654 1.215 2.343 1.65 3.169.35.665 1.76 1.376 3.301 1.376 1.5 0 2.727-.69 3.459-1.944l.365-.618c2.081-3.492 6.95-11.665 5.751-24.745zm-6.178 24.488l-.367.622c-.818 1.402-2.098 1.696-3.027 1.696-1.389 0-2.621-.656-2.857-1.108-.467-.888-1.439-2.76-1.713-3.285.467-.544.941-1.431.941-1.431l-1.162 1.004-.006-.011-.24.218c-1.246 1.13-5.725 1.287-5.758 1.288-.043-.001-4.389-.093-5.747-1.273l-.245-.213-1.172-1.013s.486.906.957 1.448c-.258.523-1.195 2.426-1.645 3.326-.238.476-1.496 1.168-2.926 1.168-.899 0-2.145-.284-2.97-1.635-.151-.248-.331-.53-.533-.847-2.131-3.343-7.122-11.17-6.228-23.818.598-8.456 3.416-11.504 5.68-13.955 1.429-1.545 2.662-2.879 2.924-5.16.062-.546.119-1.16.182-1.822.584-6.261 1.562-16.741 11.228-16.842l.14-.001c9.303 0 10.295 9.674 10.951 16.076.084.831.164 1.595.254 2.261.309 2.276 1.574 3.574 3.037 5.077 2.32 2.382 5.209 5.346 5.982 13.786 1.183 12.92-3.626 20.995-5.68 24.444z" transform="translate(-1.3 -1.7) scale(1.88565)"/></g><path id="Tummy_Fill_2_" fill="#FFF" d="M44.937 38.322c-1.416-2.25-1.746-2.559-1.707-3.542.875-22.333-8.918-10.413-8.918-10.413S23.3 13.239 24.958 34.697c.075.973-.037 1.375-1.453 3.625-1.418 2.25-8.252 11.917-5.668 21.417 2.584 9.5 12.294 12.641 16.293 12.66 3.641.017 13.891-3.16 16.475-12.66 2.584-9.5-4.25-19.167-5.668-21.417z" transform="translate(-1.3 -1.7) scale(1.88565)"/></g><g id="L_Eye_2_"><path id="White_5_" fill="#FFF" stroke="#000" stroke-width=".471" d="M52.72 43.148c1.089.193 1.94 1.139 2.432 2.513.494 1.373.63 3.172.294 5.072-.337 1.9-1.083 3.542-2.02 4.661-.933 1.122-2.058 1.717-3.146 1.524-1.088-.192-1.94-1.138-2.431-2.512-.494-1.373-.63-3.172-.294-5.072s1.083-3.542 2.019-4.661c.934-1.122 2.058-1.717 3.146-1.525z"/><path id="Iris_5_" fill="#5BDDDD" stroke="#000" stroke-width=".471" d="M51.527 47.597c.878.103 1.611.72 2.089 1.634.478.914.697 2.126.546 3.417-.15 1.29-.643 2.419-1.32 3.198-.675.779-1.53 1.21-2.409 1.108-.878-.103-1.61-.72-2.089-1.634-.478-.914-.697-2.126-.546-3.416.151-1.29.644-2.42 1.32-3.199.675-.779 1.53-1.21 2.409-1.108z"/><path id="Pupil_5_" d="M27.839 27.093c.297 0 .565.187.76.489.195.302.315.72.315 1.18 0 .46-.12.878-.315 1.18-.195.302-.463.489-.76.489s-.565-.187-.76-.489c-.195-.302-.315-.72-.315-1.18 0-.46.12-.878.315-1.18.195-.302.463-.489.76-.489z" transform="rotate(6.574 66.021 39.44) scale(1.8856)"/><path id="Highlight_5_" fill="#FFF" d="M27.344 26.807c.163 0 .31.066.416.173a.583.583 0 0 1 0 .832.583.583 0 0 1-.832 0 .583.583 0 0 1 0-.832.583.583 0 0 1 .416-.173z" transform="translate(-1.3 -1.7) scale(1.88565)"/></g><g id="R_Eye_3_"><path id="White_4_" fill="#FFF" stroke="#000" stroke-width=".471" d="M73.496 41.91c1.098-.142 2.19.506 3.072 1.67.882 1.163 1.55 2.839 1.796 4.752.246 1.913.024 3.704-.535 5.052-.558 1.35-1.451 2.253-2.549 2.394-1.098.142-2.19-.507-3.072-1.67-.882-1.163-1.55-2.84-1.796-4.753-.246-1.913-.024-3.704.534-5.051.559-1.35 1.452-2.254 2.55-2.395z"/><path id="Iris_4_" fill="#5BDDDD" stroke="#000" stroke-width=".471" d="M73.757 46.491c.87-.164 1.755.205 2.484.935.729.73 1.3 1.82 1.542 3.097.242 1.276.109 2.5-.303 3.446-.412.946-1.102 1.614-1.97 1.778-.87.165-1.755-.205-2.484-.935-.73-.729-1.3-1.82-1.542-3.097-.242-1.276-.109-2.5.303-3.446.412-.945 1.101-1.613 1.97-1.778z"/><path id="Pupil_4_" d="M40.239 26.685c.297 0 .565.187.76.489.195.302.315.72.315 1.18 0 .46-.12.878-.315 1.18-.195.302-.463.489-.76.489s-.565-.187-.76-.489c-.195-.302-.315-.72-.315-1.18 0-.46.12-.878.315-1.18.195-.302.463-.489.76-.489z" transform="rotate(-10.801 64.625 58.672) scale(1.88568)"/><path id="Highlight_4_" fill="#FFF" d="M39.357 26.61c.163 0 .31.066.416.173a.583.583 0 0 1 0 .832.583.583 0 0 1-.832 0 .583.583 0 0 1 0-.832.583.583 0 0 1 .416-.173z" transform="translate(-1.3 -1.7) scale(1.88565)"/></g><g id="Beak_2_"><path id="Bottom_Beak_2_" fill="#DD5900" stroke="#000" stroke-width=".471" d="M69.208 57.304c-2.272 2.053-5.853 4.829-11.604.313h-.036s-.049 4.475 5.787 4.516c5.61.041 6.015-4.277 5.853-4.83h0z"/><g id="Top_Beak_3_"><path id="Fill_9_" fill="#FF822E" d="M34.312 32.977c1.729-.022 2.982-1.541 3.607-1.853.254-.125.393-.214.393-.214-1.125-.608-.916-.767-2.125-1.628-1.209-.861-2.681-.528-3.5 0-.844.544-2.375 1.842-2.375 1.842.153.073.322.094.453.192.881.661 2.511 1.675 3.547 1.661z" transform="translate(-1.3 -1.7) scale(1.88565)"/><path id="Outline_21_" d="M38.359 30.387a.828.828 0 0 1 .088.454l-.074-.04c-.617-.333-.816-.521-1.093-.783a8.395 8.395 0 0 0-1.02-.837c-1.035-.737-2.567-.695-3.641-.003-.755.487-2.021 1.543-2.318 1.792a.819.819 0 0 1 .089-.424s-.938.356-.781 1.405l.766-.669c.027.01.055.022.082.031.088.029.17.056.233.104 1.038.777 2.603 1.685 3.602 1.685h.022c1.301-.017 2.346-.856 3.036-1.412.251-.201.468-.375.626-.454a5.7 5.7 0 0 0 .328-.176l.836.731c.156-1.048-.781-1.404-.781-1.404zm-.494.626c-.184.091-.398.264-.672.483-.703.566-1.668 1.341-2.882 1.356l-.02.125v-.125c-.937 0-2.444-.881-3.451-1.635a.887.887 0 0 0-.255-.121l.008-.007h-.021c-.006-.001-.01-.005-.016-.007.418-.347 1.533-1.265 2.199-1.695.988-.637 2.406-.683 3.359-.003.525.374.773.608.993.815.249.235.452.426.95.712a6.76 6.76 0 0 1-.192.102z" transform="translate(-1.3 -1.7) scale(1.88565)"/></g></g></g><g id="Hat_2_"><g id="Hat_Base_2_"><path id="Fill_8_" fill="#AF2020" d="M25.739 18.601s-.446-4.515 4.862-7.342c5.309-2.828 8.26-5.67 8.666-6.203.309-.405.959-1.886 1.701-1.091.746.794.746 3.82 0 6.946-.742 3.125 1.004 5.061.801 7.393 0 0-7.496-3.424-16.03.297z" transform="translate(-1.3 -1.7) scale(1.88565)"/><g id="Stripes_11_" fill="#871212"><path id="ID0.4723743163049221" d="M26.1 16.219s7.276-3.978 15.433 0l-.428-1.438s-6.283-3.289-14.351.001l-.654 1.437z" transform="translate(-1.3 -1.7) scale(1.88565)"/><path id="ID0.6873810109682381" d="M29.271 11.989s6.893-1.91 11.279.92l.262-1.17s-4.77-2.703-9.593-1.102l-1.948 1.352z" transform="translate(-1.3 -1.7) scale(1.88565)"/><path id="ID0.1024240106344223" d="M36.117 8.105s3.594.028 4.748 2.123l.445-1.062s-.707-2.052-4.248-2.011l-1.066 1.039" transform="translate(-1.3 -1.7) scale(1.88565)"/><path id="ID0.6725794565863907" d="M39.267 5.056s1.754.308 2.213 1.391l-.17-1.391-1.705-.955-.338.955z" transform="translate(-1.3 -1.7) scale(1.88565)"/></g><path id="Outline_20_" d="M25.524 18.967l-.034-.342c-.004-.046-.4-4.714 4.994-7.587 5.367-2.859 8.273-5.725 8.584-6.133.053-.067.113-.167.184-.28.297-.481.707-1.141 1.273-1.141.223 0 .434.104.627.31.928.988.732 4.357.061 7.175-.414 1.744-.027 3.098.348 4.408.281.987.549 1.918.459 2.948l-.031.353-.322-.146c-.031-.014-3.156-1.415-7.58-1.415-2.864 0-5.639.577-8.246 1.713l-.317.137zM40.525 3.984c-.289 0-.652.588-.85.904-.08.129-.15.242-.209.319-.34.447-3.23 3.333-8.747 6.272-4.305 2.292-4.725 5.658-4.741 6.748a21.008 21.008 0 0 1 8.107-1.611c3.74 0 6.518.951 7.451 1.319.002-.812-.223-1.596-.457-2.421-.375-1.308-.799-2.79-.354-4.661.797-3.341.652-6.088.061-6.717-.093-.101-.181-.152-.261-.152z" transform="translate(-1.3 -1.7) scale(1.88565)"/></g><path id="Puff_2_" fill="#FFF" stroke="#000" stroke-width=".943" d="M75.757.516a3.48 3.48 0 0 1 2.399.944c.612.583.993 1.39.993 2.278 0 .888-.38 1.695-.993 2.278a3.48 3.48 0 0 1-2.399.945 3.48 3.48 0 0 1-2.399-.945 3.138 3.138 0 0 1-.993-2.278c0-.888.38-1.695.993-2.278a3.48 3.48 0 0 1 2.399-.944z"/><g id="Brim_2_"><path id="Brim_Fill_2_" fill="#FFF" d="M25.013 19.991s-.701-.748 0-1.39c.701-.641 4.528-2.43 8.714-2.381 4.185.049 5.562.546 6.636 1.042 1.072.496 3.168 1.786 2.268 2.927 0 0 1.271 2.098.137 2.098-.256 0-1.029-.312-1.029-.312s-6.355-3.572-15.832 0c-.001.001-2.933 1.207-.894-1.984z" transform="translate(-1.3 -1.7) scale(1.88565)"/><path id="Brim_Outline_2_" d="M42.906 20.191c.168-.266.215-.554.143-.857-.273-1.138-2.191-2.076-2.572-2.252-1.102-.509-2.527-1.01-6.715-1.06l-.174-.001c-4.166 0-7.945 1.764-8.678 2.434-.238.219-.364.473-.375.754-.013.334.146.622.258.782-.565.745-.744 1.401-.535 1.952.355.931 1.894.166 1.894.166 2.725-1.01 5.45-1.522 8.103-1.522 4.094 0 6.777 1.237 7.318 1.51 0 0 .865.386 1.191.376.371-.012.525-.258.6-.588.149-.655-.275-1.406-.458-1.694zm.07 1.605c-.17.512-1.109.006-1.109.006-.117-.066-2.924-1.613-7.613-1.613-2.746 0-5.569.538-8.387 1.601l-.143.054s-.903.461-1.096-.044c-.167-.439.025-1.006.57-1.684l.108-.135s.295-.375.915-.672c0 0-.521.004-1.119.428-.078-.115-.18-.302-.172-.513.008-.174.088-.33.248-.476.613-.562 4.311-2.331 8.408-2.331l.169.001c4.108.049 5.489.533 6.554 1.024 1.051.485 2.186 1.287 2.352 1.983.045.182.002.35-.088.514-.562-.366-1.043-.371-1.043-.371.621.297.916.673.916.673l.01-.001.047.066c.172.236.645.976.473 1.49z" transform="translate(-1.3 -1.7) scale(1.88565)"/></g></g><g id="Scarf_2_"><g id="Bottom_2_"><g id="Fringe_2_"><path id="ID0.021968073677271605" fill="#871212" d="M10.296 70.262c-.118-.027-.508-.139-.551-.444-.044-.305.28-.484.387-.544.103-.03 1.809-.269 3.535-1.445a15.9 15.9 0 0 1-.473-.409c-.722.68-2.691 1.393-4.23 1.531-.207-.042-.59-.174-.617-.481-.027-.307.307-.47.416-.523.104-.025 1.852-.173 3.656-1.282a11.264 11.264 0 0 1-.492-.558c-.655.608-2.756 1.255-4.355 1.311-.205-.054-.58-.206-.59-.515-.01-.308.332-.451.444-.498.108-.02 1.952-.068 3.871-1.157a8.496 8.496 0 0 1-.31-.521c-.696.498-2.566.945-4.095.945-.099 0-.196-.002-.292-.006-.201-.068-.562-.249-.55-.558.013-.308.364-.425.48-.464l.258-.009c.46 0 2.063-.065 3.766-.889a5.118 5.118 0 0 1-.163-.581c-.814.476-2.523.859-3.939.859a6.99 6.99 0 0 1-.291-.006c-.201-.068-.563-.249-.551-.558.015-.304.366-.421.482-.46l.255-.009c.473 0 2.147-.069 3.899-.954l.046-.023c.105-.273.488-.471.656-.547l.315-.142.035.345c.341 3.344 4.129 6.127 4.167 6.155l.342.248-1.18.557-.113-.096c-.68.697-2.604 1.512-4.127 1.731l-.047.007-.044-.01z" transform="translate(-1.3 -1.7) scale(1.88565)"/><path id="ID0.9627575338818133" d="M11.05 61.695c.357 3.498 4.27 6.332 4.27 6.332l-.652.308-.186-.158c-.008.014-.008.022-.017.037-.318.579-2.431 1.562-4.113 1.805 0 0-.741-.168-.099-.525 0 0 1.936-.253 3.827-1.65a14.744 14.744 0 0 1-.905-.78c-.011.021-.015.036-.029.06-.348.561-2.511 1.428-4.204 1.58 0 0-.731-.208-.069-.53 0 0 1.965-.148 3.939-1.461-.346-.351-.645-.69-.893-1.015-.02.038-.037.077-.071.126-.379.54-2.586 1.287-4.286 1.346 0 0-.717-.248-.039-.532 0 0 2.027-.036 4.104-1.29l.035-.002a7.527 7.527 0 0 1-.611-1.045c-.02.031-.034.062-.065.099-.396.481-2.435 1.025-4.093 1.025-.095 0-.189-.002-.281-.006 0 0-.697-.301 0-.534 0 0 .062.004.179.004.54 0 2.228-.08 4.01-.98h.007c.012 0 .04.001.075.005a4.763 4.763 0 0 1-.312-1.196c-.011.013-.014.021-.025.036-.395.481-2.434 1.025-4.092 1.025-.095 0-.189-.002-.281-.006 0 0-.698-.301 0-.533 0 0 .062.004.176.004.538 0 2.228-.079 4.012-.981h.002c.01 0 .107.001.193.031l.002-.031c-.219-.249.492-.568.492-.568m.428-.74l-.632.284c-.222.1-.577.296-.741.59a8.822 8.822 0 0 1-3.758.912c-.09 0-.141-.003-.148-.003l-.094-.005-.092.029c-.521.174-.643.471-.651.689-.021.469.464.714.612.777l.084.037.094.004c.098.004.199.006.301.006 1.237 0 2.824-.292 3.777-.73l.02.069a8.81 8.81 0 0 1-3.46.771c-.091 0-.144-.003-.151-.003l-.095-.005-.091.029c-.521.175-.643.472-.651.69-.02.469.464.714.612.777l.084.037.094.004c.098.004.199.006.302.006 1.342 0 3.097-.344 4.005-.846l.047.079c-1.773.933-3.414.979-3.432.979l-.096.002-.088.04c-.507.212-.605.518-.598.736.015.468.515.677.668.729l.087.03.093-.003c1.405-.049 3.409-.583 4.312-1.216.043.051.089.103.135.154-1.651.935-3.176 1.065-3.193 1.067l-.094.009-.086.042c-.494.24-.575.551-.557.769.042.467.553.647.708.691l.089.025.093-.007c.333-.03.698-.089 1.073-.172l-.049.027c-.48.268-.545.582-.514.798.066.464.586.617.744.652l.09.021.092-.013c1.366-.197 3.256-.924 4.107-1.639l.059.05.291-.138.652-.308.765-.36-.685-.496c-.037-.027-3.735-2.748-4.064-5.979l-.07-.688zm-1.261 8.038c1.146-.269 2.352-.738 2.987-1.229l.047.039c-1.46.915-2.824 1.156-3.034 1.19z" transform="translate(-1.3 -1.7) scale(1.88565)"/></g><path id="ID0.33523725625127554" fill="#AF2020" d="M34.375 43.364s-6.104-.458-10.729 4.083c-4.625 4.541-2.875 9.083-13.084 14.292 0 0-.791 3.084 4.292 6.959 0 0 8.682-4.834 10.841-11.542 2.159-6.708 8.037-10.483 11.159-10.504l3.403-.496-5.882-2.792z" transform="translate(-1.3 -1.7) scale(1.88565)"/><g id="Stripes_10_" fill="#871212"><path id="ID0.019771534949541092" d="M13.226 60.292s-.238 4.113 4.561 6.512l1.15-.939s-4.458-4.417-4.291-6.542l-1.42.969z" transform="translate(-1.3 -1.7) scale(1.88565)"/><path id="ID0.4061923725530505" d="M16.854 57.448s.292 3.166 4.917 5.791l1.375-1.458s-4.51-2.483-5.117-5.732l-1.175 1.399z" transform="translate(-1.3 -1.7) scale(1.88565)"/><path id="ID0.4048374858684838" d="M19.332 54.118s1.064 3.205 5.897 4.33l.667-1.792s-5.062-1.589-5.928-3.69l-.636 1.152z" transform="translate(-1.3 -1.7) scale(1.88565)"/><path id="ID0.8163762511685491" d="M21.723 49.809s.86 2.734 5.62 3.749l1.053-1.485s-5.232-2.355-5.783-3.49l-.89 1.226z" transform="translate(-1.3 -1.7) scale(1.88565)"/><path id="ID0.010687896516174078" d="M24.783 46.449l6.029 2.957 1.677-1.479s-5.688-2.72-6.036-2.6c-.348.12-1.67 1.122-1.67 1.122z" transform="translate(-1.3 -1.7) scale(1.88565)"/><path id="ID0.03235075296834111" d="M30.101 44.082l4.968 2.848 2.345-.363-4.952-3.187-2.361.702" transform="translate(-1.3 -1.7) scale(1.88565)"/></g><path id="ID0.6604129113256931" d="M14.833 68.996l-.13-.099c-5.156-3.931-4.416-7.088-4.383-7.221l.029-.109.1-.051c6.52-3.326 8.107-6.376 9.645-9.325.84-1.615 1.71-3.285 3.377-4.922 3.939-3.867 8.975-4.168 10.424-4.168.32 0 .499.014.499.014l6.718 3.169-4.221.615c-3.214.024-8.908 3.965-10.957 10.333-2.165 6.725-10.6 11.485-10.957 11.685l-.144.079zm-4.044-7.092c-.067.552-.135 3.222 4.086 6.494 1.127-.661 8.629-5.249 10.582-11.318 2.202-6.841 8.136-10.656 11.396-10.678l2.554-.374-5.118-2.428c-.01.01-.162.002-.395.001-1.402 0-6.27.291-10.072 4.024-1.611 1.582-2.425 3.144-3.285 4.796-1.565 3.002-3.181 6.106-9.748 9.483z" transform="translate(-1.3 -1.7) scale(1.88565)"/></g><g id="Middle_2_"><path id="Base_Fill_5_" fill="#AF2020" d="M30.812 44.905s5.793 2.626 11.428 1.438c5.635-1.188 7.447-2.627 9.51-1.438 0 0 1.125-2.124-2.562-3.624 0 0 1.25-2.562-.75-3.625-.001 0-7.688-3.065-17.626 7.249z" transform="translate(-1.3 -1.7) scale(1.88565)"/><g id="Stripes_9_" fill="#871212"><path id="Stripe_32_" d="M38.451 39.058s2.939 2.089 1.807 7.594h-.9s.826-4.671-1.732-7.121l.825-.473z" transform="translate(-1.3 -1.7) scale(1.88565)"/><path id="Stripe_31_" d="M41.625 37.781s2.551 2.042 2.072 7.974l1.129-.29s.549-4.872-1.889-8.028l-1.312.344z" transform="translate(-1.3 -1.7) scale(1.88565)"/><path id="Stripe_30_" d="M35.062 41.093s1.875 2.375 1.375 5.359l-.645-.101s-.512-4.073-1.418-4.681l.688-.577z" transform="translate(-1.3 -1.7) scale(1.88565)"/><path id="Stripe_29_" d="M48.437 40.968c-.068-.17-.15-2.875-.793-3.531l-1.426-.207s1.445 1.317 1.113 3.606c0 0 1.723 1.526 1.523 3.532h1.051c.001 0 .063-2.337-1.468-3.4z" transform="translate(-1.3 -1.7) scale(1.88565)"/></g><path id="Outline_19_" d="M52.023 43.362c-.32-.882-1.162-1.626-2.504-2.213.414-1.032.65-2.857-.988-3.726-.047-.018-1.135-.443-3.016-.443-3.383 0-8.709 1.345-14.883 7.751l-.246.255.323.146c.039.018 3.954 1.769 8.435 1.769 1.102 0 2.16-.105 3.148-.313 1.904-.402 3.379-.833 4.564-1.18 2.299-.673 3.543-.992 4.768-.287l.225.129.121-.229c.016-.029.385-.743.053-1.659zm-.41 1.188c-1.283-.616-2.617-.289-4.896.378-1.176.344-2.641.773-4.527 1.17a14.81 14.81 0 0 1-3.045.303c-3.625 0-6.874-1.176-7.896-1.585 5.941-6.054 11.029-7.336 14.268-7.336 1.76 0 2.801.396 2.805.396 1.451.771.98 2.438.742 3.058-.606-.194-2.055-.423-4.064.816 0 0 2.098-1.05 4.281-.147 1.203.524 1.994 1.182 2.268 1.92.159.43.12.8.064 1.027z" transform="translate(-1.3 -1.7) scale(1.88565)"/></g><g id="Top_2_"><path id="Base_Fill_4_" fill="#AF2020" d="M21.25 36.531s-1.25-.938-.625-2.062c.625-1.124 1.75-1.607 1.75-1.491 0 .116 10.812 9.011 23-.405v-1.281s4.562 2.115 3.062 6.365c0 0-2.736-.875-5.273 1.875-2.539 2.75-4.789 8.625-24.227 3.062 0 0-1.562-.5-.75-2s3.25-2.938 3.063-4.063z" transform="translate(-1.3 -1.7) scale(1.88565)"/><g id="Stripes_8_" fill="#871212"><path id="Stripe_28_" d="M23.548 33.852s-1.705.608-.83 3.378c0 0-.062 1.582-1.312 2.895s-1.219 2.25-1.438 2.75l2 .477s.094-1.727.906-2.695c.812-.968.961-2.371 1.043-2.998.082-.627-.793-2.127.551-3.158l-.92-.649z" transform="translate(-1.3 -1.7) scale(1.88565)"/><path id="Stripe_27_" d="M26.904 35.662c.018-.26-.604 1.086-.396 2.853.209 1.767-.854 2.67-1.26 3.843s-.465 1.678-.465 1.678l1.457.279s.693-2.534 1.293-3.576c.6-1.042.267-2.06.267-3.092s.323-1.488.323-1.488l-1.219-.497z" transform="translate(-1.3 -1.7) scale(1.88565)"/><path id="Stripe_26_" d="M30.812 36.661c0 .079-.707 1.912-.291 3.745.416 1.833-.698 4.134-.698 4.134l1.396.092s.843-2.12.635-3.985c-.208-1.865-.267-2.446.033-3.843l-1.075-.143z" transform="translate(-1.3 -1.7) scale(1.88565)"/><path id="Stripe_25_" d="M34.656 36.812s.938 2.625.156 4.969c0 0 .688 1.389-.438 2.851h.749s1.095-.937.782-2.69c0 0 1.273-1.131.057-5.129h-1.306z" transform="translate(-1.3 -1.7) scale(1.88565)"/><path id="Stripe_24_" d="M38.767 36.103s1.898 2.386 1.004 5.615c0 0 .229.479-.209 1.333l1.084-.729s.254-.568.188-.771c-.066-.203 1.16-1.824-.648-5.922l-1.419.474z" transform="translate(-1.3 -1.7) scale(1.88565)"/><path id="Stripe_23_" d="M43.146 34.135s1.771 1.271 1.334 4.292l1.104-.625s0-3.146-1.521-4.208l-.917.541z" transform="translate(-1.3 -1.7) scale(1.88565)"/><path id="Stripe_22_" d="M45.625 32.694s2.932.922 2.686 4.536l.014.386s2.072-3.377-2.949-6.231l.249 1.309z" transform="translate(-1.3 -1.7) scale(1.88565)"/></g><path id="Outline_18_" d="M45.48 31.064l-.355-.165v1.549c-3.637 2.782-7.504 4.193-11.495 4.193-6.255 0-10.554-3.394-11.018-3.783l-.017-.149h-.25c-.299 0-1.348.574-1.939 1.637-.535.964.094 1.869.581 2.291l-.008.022c.009.007.019.011.028.018-.018.514-.727 1.212-1.415 1.889-.621.611-1.263 1.242-1.624 1.909-.283.521-.34.999-.17 1.421.271.676 1.031.926 1.07.938 5.382 1.54 9.896 2.321 13.418 2.321 6.549 0 8.73-2.653 10.322-4.59.254-.308.494-.601.738-.864 1.469-1.592 2.998-1.927 4.021-1.927.602 0 .99.12.994.121l.23.073.08-.228c1.559-4.414-3.144-6.654-3.191-6.676zm2.793 6.295c-.764-.154-3.143-.328-5.293 2.002-.25.27-.496.57-.756.886-.24.291-.49.592-.76.895-4.564 1.506-9.059-.049-9.059-.049 3.174 1.806 7.168 1.009 8.467.676-1.541 1.514-3.855 2.886-8.586 2.886-3.475 0-7.943-.774-13.271-2.299-.006-.002-.572-.192-.754-.65-.11-.276-.061-.61.146-.993.325-.601.94-1.206 1.535-1.79.693-.682 1.348-1.333 1.518-1.965 1.415.778 3.102.729 3.102.729-1.766-.441-2.658-.949-3.076-1.257l-.006-.039-.08-.06c-.043-.033-1.066-.823-.557-1.741.482-.869 1.272-1.305 1.472-1.372.962.918 5.474 3.923 11.314 3.923 4.14 0 8.144-1.471 11.899-4.372l.096-.075v-.988c.997.574 3.639 2.442 2.649 5.653z" transform="translate(-1.3 -1.7) scale(1.88565)"/></g></g></g></g></g></svg>