<svg width="120" height="120" viewBox="0 0 120 120" xmlns="http://www.w3.org/2000/svg" xmlns:xlink="http://www.w3.org/1999/xlink"><defs><path id="a" d="M.152.888h114.405v23.705H.152z"/></defs><g fill="none" fill-rule="evenodd"><path d="M19.004 71.313c-6.095 0-11.053-4.96-11.053-11.055 0-6.094 4.958-11.053 11.053-11.053h90.7c6.095 0 11.053 4.96 11.053 11.054s-4.958 11.053-11.053 11.053h-90.7z" fill="#966964"/><g transform="translate(7 47.518)"><mask id="b" fill="#fff"><use xlink:href="#a"/></mask><path d="M102.705.888h-90.7C5.47.888.152 6.205.152 12.741c0 6.535 5.318 11.852 11.853 11.852h90.7c6.535 0 11.853-5.317 11.853-11.852 0-6.536-5.318-11.853-11.853-11.853m0 1.598c5.663 0 10.254 4.591 10.254 10.255 0 5.663-4.591 10.254-10.254 10.254h-90.7c-5.663 0-10.254-4.59-10.254-10.254S6.34 2.486 12.005 2.486h90.7" fill="#772F09" mask="url(#b)"/></g><path d="M8.75 60.259c0-5.663 4.591-10.255 10.255-10.255h90.7c5.663 0 10.254 4.592 10.254 10.255" fill="#772F09"/><path d="M101.79 60.259c0 5.663-4.592 10.255-10.255 10.255h-72.53c-5.663 0-10.254-4.592-10.254-10.255 0-5.663 4.59-10.255 10.254-10.255h72.53c5.663 0 10.255 4.592 10.255 10.255" fill="#FEDD02"/><path d="M99.054 53.288a10.221 10.221 0 0 0-7.519-3.284h-72.53c-2.27 0-4.367 1.975-6.064 3.223l86.113.061z" fill="#FFF" opacity=".4"/><path d="M101.79 60.259c0 5.663-4.592 10.255-10.255 10.255h-72.53c-5.663 0-10.254-4.592-10.254-10.255" fill="#F29101" opacity=".5"/><path d="M12.363 50.828h76.805" stroke="#FFF" stroke-width="1.598" stroke-linecap="round" stroke-linejoin="round"/><path d="M25.323 76.559a.785.785 0 0 1-.374-.093l-9.01-4.77-9.01 4.77a.797.797 0 0 1-.84-.058c-.247-.178-.691-.482-.64-.782l2.042-10.111-7.292-7.16c-.217-.212-.295-2.128-.201-2.415.095-.29.345-.18.644-.224l10.075-.196 4.505-9.195a.799.799 0 0 1 1.436 0l4.505 9.195 10.074.196c.3.044.55-.065.646.224.092.287.015 2.203-.202 2.415l-7.294 7.16 2.026 10.013a.8.8 0 0 1 .035.233c0 .44-.68.798-1.12.798h-.005z" fill="#C94B06"/><path d="M25.323 76.559a.785.785 0 0 1-.374-.093l-9.01-4.77-9.01 4.77a.797.797 0 0 1-.84-.058c-.247-.178-.691-.482-.64-.782l2.042-10.111-7.292-7.16c-.217-.212-.295-2.128-.201-2.415.095-.29.345-.18.644-.224l10.075-.196 4.505-9.195a.799.799 0 0 1 1.436 0l4.505 9.195 10.074.196c.3.044.55-.065.646.224.092.287.015 2.203-.202 2.415l-7.294 7.16 2.026 10.013a.8.8 0 0 1 .035.233c0 .44-.68.798-1.12.798h-.005z" stroke="#772F09" stroke-width="1.918" stroke-linecap="round" stroke-linejoin="round"/><path d="M25.323 74.642a.797.797 0 0 1-.374-.093l-9.01-4.77-9.01 4.77a.799.799 0 0 1-1.161-.841l1.723-10.11-7.292-7.16a.798.798 0 0 1 .443-1.361l10.075-1.474 4.505-9.196a.798.798 0 0 1 1.436 0l4.505 9.196 10.074 1.474c.3.044.55.254.646.544a.802.802 0 0 1-.202.817l-7.294 7.16 1.707 10.012a.8.8 0 0 1-.765 1.032h-.006z" fill="#C94B06"/><path d="M25.323 74.642a.797.797 0 0 1-.374-.093l-9.01-4.77-9.01 4.77a.799.799 0 0 1-1.161-.841l1.723-10.11-7.292-7.16a.798.798 0 0 1 .443-1.361l10.075-1.474 4.505-9.196a.798.798 0 0 1 1.436 0l4.505 9.196 10.074 1.474c.3.044.55.254.646.544a.802.802 0 0 1-.202.817l-7.294 7.16 1.707 10.012a.8.8 0 0 1-.765 1.032h-.006z" stroke="#772F09" stroke-width="1.918" stroke-linecap="round" stroke-linejoin="round"/><path d="M25.323 76.559a.785.785 0 0 1-.374-.093l-9.01-4.77-9.01 4.77a.797.797 0 0 1-.84-.058c-.247-.178-.691-.482-.64-.782l2.042-10.111-7.292-7.16c-.217-.212-.295-2.128-.201-2.415.095-.29.345-.18.644-.224l10.075-.196 4.505-9.195a.799.799 0 0 1 1.436 0l4.505 9.195 10.074.196c.3.044.55-.065.646.224.092.287.015 2.203-.202 2.415l-7.294 7.16 2.026 10.013a.8.8 0 0 1 .035.233c0 .44-.68.798-1.12.798h-.005z" fill="#C94B06"/><path d="M25.323 74.642a.797.797 0 0 1-.374-.093l-9.01-4.77-9.01 4.77a.799.799 0 0 1-1.161-.841l1.723-10.11-7.292-7.16a.798.798 0 0 1 .443-1.361l10.075-1.474 4.505-9.196a.798.798 0 0 1 1.436 0l4.505 9.196 10.074 1.474c.3.044.55.254.646.544a.802.802 0 0 1-.202.817l-7.294 7.16 1.707 10.012a.8.8 0 0 1-.765 1.032h-.006z" fill="#FEDD02"/><path d="M15.25 45.874c-.69 1.096-3.085 5.758.31 4.464 3.082-1.175 1.204-6.87-.31-4.464-.386.612.323-.513 0 0" fill="#FFF"/><path d="M12.877 50.942c-.432.268-.882.896-.78 1.387.075.371.27.75.62.947.41.233 1.026.187 1.412-.083.543-.38.668-1.368.214-1.857-.422-.453-.872-.559-1.466-.394M6.94 55.29c-1.321-.369-6.857-.186-5.113 1.739C4.239 59.69 8.81 55.811 6.94 55.29c-.255-.071.363.101 0 0" fill="#FFF"/><path d="M31.882 55.62a.804.804 0 0 0-.646-.544L23.2 53.9c-.235 7.647-6.676 13.95-14.372 13.95-.689 0-1.369-.052-2.036-.15L5.77 73.707a.798.798 0 1 0 1.161.841l9.01-4.77 9.008 4.77a.814.814 0 0 0 .374.092h.006a.8.8 0 0 0 .766-1.032L24.387 63.6l7.294-7.162a.8.8 0 0 0 .201-.817" fill="#F29101"/><path d="M31.882 55.62a.804.804 0 0 0-.646-.544l-6.04-.884c.004.158.012.316.012.474 0 8.275-6.906 15.183-15.18 15.183-1.212 0-2.393-.153-3.529-.43l-.73 4.29a.798.798 0 1 0 1.161.841l9.01-4.772 9.008 4.771a.814.814 0 0 0 .374.092h.006a.8.8 0 0 0 .766-1.032L24.387 63.6l7.294-7.162a.8.8 0 0 0 .201-.817" fill="#F29101"/><path d="M92.283 53.707c2.057 0 2.06-3.196 0-3.196-2.057 0-2.061 3.196 0 3.196" fill="#FFF"/></g></svg>