<svg width="120" height="120" viewBox="0 0 120 120" xmlns="http://www.w3.org/2000/svg" xmlns:xlink="http://www.w3.org/1999/xlink"><defs><path id="a" d="M.195.118h27.064v37.173H.195z"/><path id="c" d="M0 .028h98.892v65.096H0z"/></defs><g fill="none" fill-rule="evenodd"><path d="M95.43 58.31c-.324 14.754-11.364 27.808-24.67 34.351-13.308 6.543-28.543 7.66-43.302 7.564-1.978-8.415-1.4-17.441 1.639-25.595L95.43 58.31z" fill="#E8DC00"/><path d="M86.307 87.827c-1.527 1.168-3.301 2.146-4.28 3.803-1.326 2.242-.657 5.45 1.453 6.973 2.111 1.523 5.358 1.141 7.06-.83 1.278-1.483 1.634-3.542 1.76-5.497.097-1.502.518-9.364-1.142-10.03-1.002-.401-3.62 4.638-4.851 5.58" fill="#1CA538"/><path d="M94.506 32.84c-9.398-11.5-26.139-14.896-40.622-11.697C39.4 24.342 26.77 33.061 15.264 42.44c3.665 7.923 9.713 14.719 17.147 19.271l62.095-28.87z" fill="#E8DC00"/><g transform="matrix(-1 0 0 1 27.339 55.169)"><mask id="b" fill="#fff"><use xlink:href="#a"/></mask><path d="M24.808.384c.705.124 1.408.293 2.105.51 1.748.54-3.654 8.671-4.419 9.498-2.899 3.133-6.317 5.702-10.645 6.34 6.594 4.224 9.99 12.903 8.018 20.494-5.872.699-16.252-4.303-18.515-10.125C-4.118 13.03 10.82-2.081 24.808.384" fill="#1CA538" mask="url(#b)"/></g><g transform="matrix(-1 0 0 1 120 23.642)"><mask id="d" fill="#fff"><use xlink:href="#c"/></mask><path d="M32.2 1.823C44.013-1.625 56.938.064 67.912 5.44c14.081 6.898 34.13 25.437 30.561 42.879-4.175 20.404-28.542 16.217-44.082 16.708a192.64 192.64 0 0 1-32.305-1.694c-3.407-.468-6.851-1.043-9.966-2.502C6.069 57.996 1.84 51.91.524 45.347-3.341 26.074 14.877 6.878 32.2 1.823" fill="#A9C255" mask="url(#d)"/></g><path d="M94.935 64.639c-2.254 1.16-4.92 1.747-7.345 1.01-2.694-.82-4.73-3.2-5.646-5.869-2.779-8.107 3.231-20.046 12.97-14.401 8.184 4.744 8.547 14.87.021 19.26" fill="#D0DD7B"/><path d="M96.693 57.251c-.952-1.631-2.31-3.218-4.36-3.22-1.782-.002-3.42 1.18-4.06 2.842-.654 1.699-3.328 1.05-2.783-.769.864-2.885 3.814-4.972 6.85-4.542 2.568.364 5.323 2.696 5.065 5.496-.033.36-.507.543-.712.193" fill="#1D1D1B"/><path d="M55.913 50.313c-1.393.266-2.835 1.51-2.454 2.88.13.465.448.85.773 1.208a18.674 18.674 0 0 0 3.972 3.306c-1.718.414-3.845 1.35-3.724 3.116.123 1.802 2.432 2.41 4.229 2.54-1.142 1.47-2.35 3.303-1.725 5.058.515 1.445 2.181 2.23 3.71 2.14 1.527-.088 2.926-.87 4.18-1.75 3.359-2.36 6.676-6.894 4.522-11.076-1.85-3.593-9.487-8.184-13.483-7.422" fill="#E8DC00"/><path d="M74.519 40.456c-7.735 12.718-3.694 28.072 3.768 39.853.338.532-.51 1.027-.842.493-3.881-6.235-6.895-13.163-7.67-20.53-.728-6.927.58-14.132 4.524-19.945.09-.134.306-.013.22.129m-.014 48.955c-1.85.514-3.86.758-5.386 1.93-2.064 1.585-2.636 4.812-1.244 7.014 1.392 2.202 4.548 3.06 6.86 1.867 1.737-.898 2.833-2.676 3.677-4.443.648-1.357 3.963-8.496 2.67-9.733-.78-.747-5.083 2.95-6.577 3.365" fill="#1CA538"/><path d="M37.105 91.627c.18.247.318.533.397.86.583 2.432-2.267 4.355-4.33 3.019-1.733-1.122-2.01-3.682-.449-5.084 1.407-1.264 3.988-.749 4.382 1.205m8.702-.41c.534-.112 1.01.078 1.352.5.559.69.545 1.683-.083 2.328-.098.1-.21.15-.321.162-.662.453-1.56.58-2.075-.149-.473-.668-.33-1.584.154-2.201.245-.312.58-.558.973-.64m11.18 1.993h-.002a.088.088 0 0 0 .016.01.064.064 0 0 0-.014-.01m.084.017c-.01-.01-.033-.014-.056-.016l.033.014.023.002m.522-.79l-.02.008c.009-.004.017-.005.025-.008h-.005m.277-1.275c.42.152.806.427 1.045.812.292.474.375 1.145.027 1.617-.189.255-.41.493-.736.567a1.27 1.27 0 0 1-.801-.062c-.045-.02-.086-.045-.128-.068a1.601 1.601 0 0 1-.406-.036c-.847-.193-1.366-1.034-1.111-1.877.268-.888 1.281-1.254 2.11-.953M23.998 40.994c.902-.467 2.073-.465 2.933.11a2.692 2.692 0 0 1 1.205 2.07c.202.438.268.943.197 1.439-.145 1.004-.814 1.784-1.762 2.126-2.004.723-4.093-1.061-4.086-3.087.003-1.057.55-2.162 1.513-2.658m10.227-4.131h-.004l-.002.001c.04 0 .03 0 .006-.001m1.082 1.107c-.376.22-.857.248-1.272.143-.783-.198-1.429-.876-1.46-1.704-.033-.843.79-1.315 1.581-1.364a.715.715 0 0 1 .395-.047c.84.115 1.44.925 1.432 1.75-.006.52-.224.957-.676 1.222m7.786-7.804a.78.78 0 0 0-.156-.13l.013.02.073.06.07.05m-.642-1.593a.913.913 0 0 1 .086-.176c.297-.461.848-.717 1.39-.567.678.186 1.078.775 1.11 1.456.003.071-.002.14-.011.208.012-.064-.02.217-.05.343a1.93 1.93 0 0 1-.2.516c-.444.783-1.418 1.203-2.238.715a1.478 1.478 0 0 1-.712-1.212c-.022-.409.165-.792.427-1.094.06-.069.126-.132.198-.189m69.622 41.637c-.475 1.815-2.199 3.078-3.982 3.424-2.19.425-4.307-.146-6.365-.873-1.582-.558-.912-3.091.699-2.54 2.705.925 6.176 2.164 8.226-.613.5-.677 1.66-.31 1.422.601" fill="#1D1D1B"/></g></svg>