<svg width="120" height="120" viewBox="0 0 120 120" xmlns="http://www.w3.org/2000/svg" xmlns:xlink="http://www.w3.org/1999/xlink"><defs><path id="a" d="M0 86.084h119.588V.678H0z"/></defs><g fill="none" fill-rule="evenodd"><path fill="#8E4E3B" d="M13.065 52.515L.159 65.31h75.133L62.156 52.515z"/><path fill="#AF6654" d="M75.293 65.309L62.156 52.515H13.065z"/><path fill="#7F3F32" d="M.235 64.155H9.17l3.895-12.826z"/><path fill="#68352C" d="M.235 66.613h75.058V65.34H.235z"/><path fill="#8E4E3B" d="M65.38 53.696H10.07l9.502-14.347h36.137z"/><path fill="#AF6654" d="M65.38 53.696l-9.67-14.347H19.571z"/><path fill="#7F3F32" d="M16.704 54.448h-6.578l9.446-14.383z"/><path fill="#68352C" d="M10.127 55.158H65.38v-1.426H10.127z"/><path fill="#84716E" d="M.235 81.91h73.546V66.612H.235z"/><path fill="#6B5E5C" d="M.235 81.91h73.546v-7.65H.235z"/><path fill="#564B4A" d="M.235 81.91h73.546v-4.877H.235z"/><path fill="#564B4A" d="M29.877 81.91h2.069V66.612h-2.069zm29.641 0h2.07V66.612h-2.07z"/><g transform="translate(0 17.238)"><path d="M56.285 7.815a1.171 1.171 0 0 1-1.172-1.172V1.85a1.17 1.17 0 1 1 2.343 0v4.794c0 .647-.524 1.172-1.171 1.172" fill="#686665"/><mask id="b" fill="#fff"><use xlink:href="#a"/></mask><path fill="#545352" mask="url(#b)" d="M54.276 33.253h4.442V5.013h-4.442z"/><path fill="#444341" mask="url(#b)" d="M57.456 33.253h1.262V5.013h-1.262z"/><path fill="#6B6866" mask="url(#b)" d="M54.276 33.253h.837V5.013h-.837z"/><path fill="#686665" mask="url(#b)" d="M52.629 36.774h7.782v-3.52H52.63z"/><path d="M58.956 38.23h-4.871a1.456 1.456 0 0 1-1.456-1.456h7.783c0 .805-.653 1.457-1.456 1.457" fill="#545352" mask="url(#b)"/><path fill="#686665" mask="url(#b)" d="M50.847 39.812h11.236v-1.581H50.847z"/><path fill="#514E4D" mask="url(#b)" d="M50.847 40.26h11.236v-.448H50.847z"/><path fill="#686665" mask="url(#b)" d="M50.24 41.842h12.45V40.26H50.24z"/><path fill="#514E4D" mask="url(#b)" d="M50.24 42.292h12.45v-.449H50.24z"/><path fill="#686665" mask="url(#b)" d="M49.624 43.874h13.682V42.29H49.624z"/><path fill="#514E4D" mask="url(#b)" d="M49.624 44.322h13.682v-.448H49.624z"/><path fill="#6B6866" mask="url(#b)" d="M78.121 49.852H46.83l2.796-5.53h22.901z"/><path fill="#595958" mask="url(#b)" d="M49.576 44.353h-6.243l-3.031 5.495H46.9z"/><path fill="#5D5D5D" mask="url(#b)" d="M26.916 64.728h62.341V49.834H26.916z"/><path fill="#70706F" mask="url(#b)" d="M26.916 57.28h62.341v-7.446H26.916z"/><path fill="#518496" mask="url(#b)" d="M0 86.084h119.588V64.728H0z"/><path fill="#44737F" mask="url(#b)" d="M0 72.224h119.588v-7.497H0z"/><path d="M5.679 76.437c0-2.327 2.662-4.214 5.946-4.214s5.946 1.887 5.946 4.214c0 2.327-2.662 4.214-5.946 4.214s-5.946-1.887-5.946-4.214m21.381-6.37c0-1.646 1.883-2.98 4.205-2.98s4.205 1.334 4.205 2.98c0 1.645-1.883 2.98-4.205 2.98s-4.205-1.335-4.205-2.98" fill="#79BF82" mask="url(#b)"/><path d="M11.625 76.16h2.573c0 1-1.162 1.823-2.573 1.823-1.412 0-2.572-.823-2.572-1.823s1.16-1.823 2.572-1.823c.321 0 .64.043.939.126l-.94 1.697zm19.64-6.093h1.83c0 .711-.826 1.297-1.83 1.297-1.005 0-1.83-.586-1.83-1.297 0-.71.825-1.297 1.83-1.297.228 0 .455.03.668.09l-.668 1.207z" fill="#67996B" mask="url(#b)"/><path d="M52.803 73.406c1.635-2.017 5.27-2.714 8.117-1.555 2.848 1.159 3.831 3.735 2.195 5.752-1.635 2.019-5.27 2.715-8.118 1.555-2.848-1.158-3.83-3.734-2.194-5.752M75.82 75.43c1.157-1.428 3.728-1.92 5.741-1.1 2.014.82 2.709 2.641 1.552 4.067-1.157 1.428-3.727 1.92-5.74 1.1-2.014-.82-2.71-2.64-1.553-4.068" fill="#79BF82" mask="url(#b)"/><path d="M58.154 75.265l2.231.907c-.703.867-2.29 1.171-3.513.674-1.224-.499-1.651-1.623-.95-2.489.704-.867 2.29-1.171 3.512-.673.28.113.527.264.727.441l-2.007 1.14zm21.313 1.649l1.586.645c-.5.618-1.627.833-2.497.48-.871-.355-1.175-1.155-.675-1.771.5-.617 1.627-.833 2.497-.479.198.08.373.188.517.313l-1.428.812z" fill="#67996B" mask="url(#b)"/><path d="M100.745 65.269c2.72.242 4.647 2.002 4.304 3.928-.343 1.927-2.825 3.293-5.544 3.05-2.72-.243-4.647-2.001-4.304-3.928.341-1.927 2.824-3.293 5.544-3.05m5.215 13.211c1.924.17 3.287 1.415 3.044 2.777-.241 1.363-1.996 2.328-3.92 2.157-1.923-.172-3.286-1.415-3.043-2.778.241-1.362 1.996-2.328 3.92-2.156" fill="#79BF82" mask="url(#b)"/><path d="M100.449 68.787l-.269 1.51c-1.168-.105-2.009-.873-1.861-1.7.146-.828 1.23-1.425 2.398-1.32 1.168.105 2.009.872 1.862 1.7a1.26 1.26 0 0 1-.244.538l-1.886-.728zm5.073 12.16l-.19 1.073c-.832-.074-1.43-.62-1.325-1.208.105-.59.875-1.013 1.706-.94.832.075 1.43.62 1.325 1.209a.868.868 0 0 1-.175.383l-1.34-.517z" fill="#67996B" mask="url(#b)"/><path d="M100.847 55.609a3.614 3.614 0 0 1-4.813 4.812 3.616 3.616 0 1 0 4.813-4.812" fill="#498451" mask="url(#b)"/><path d="M101.192 57.153a3.62 3.62 0 0 0-.345-1.544 3.615 3.615 0 0 0-4.813 4.812 3.614 3.614 0 0 0 5.158-3.268" fill="#58A565" mask="url(#b)"/><path d="M99.269 59.868l-1.487-1.115a.203.203 0 1 1 .244-.323l1.486 1.114c.09.066.108.193.041.283a.204.204 0 0 1-.284.04" fill="#664634" mask="url(#b)"/><path d="M99.574 57.174h-.536c-.057 0-.283.102-.328.133.072.05-.052.216-.052.31v8.349h1.099v-8.35c0-.152-.031-.442-.183-.442" fill="#724F3D" mask="url(#b)"/><path d="M98.658 57.39c-.073.05 0 .133 0 .227v8.17-8.17c0-.094.071-.177 0-.227" fill="#895F4C" mask="url(#b)"/><path d="M101.353 60.108l-1.461 1.148a.203.203 0 1 1-.251-.319l1.462-1.148a.203.203 0 0 1 .284.034.204.204 0 0 1-.034.285" fill="#664634" mask="url(#b)"/><path d="M100.847 55.609a3.614 3.614 0 0 1-4.813 4.812 3.616 3.616 0 1 0 4.813-4.812" fill="#231F20" mask="url(#b)"/><path d="M101.192 57.153a3.62 3.62 0 0 0-.345-1.544 3.615 3.615 0 0 0-4.813 4.812 3.614 3.614 0 0 0 5.158-3.268" fill="#231F20" mask="url(#b)"/><path d="M99.269 59.868l-1.487-1.115a.203.203 0 1 1 .244-.323l1.486 1.114c.09.066.108.193.041.283a.204.204 0 0 1-.284.04" fill="#231F20" mask="url(#b)"/><path d="M99.574 57.174h-.536c-.057 0-.283.102-.328.133.072.05-.052.216-.052.31v8.349h1.099v-8.35c0-.152-.031-.442-.183-.442" fill="#231F20" mask="url(#b)"/><path d="M98.658 57.39c-.073.05 0 .133 0 .227v8.17-8.17c0-.094.071-.177 0-.227m2.695 2.718l-1.461 1.148a.203.203 0 1 1-.251-.319l1.462-1.148a.203.203 0 0 1 .284.034.204.204 0 0 1-.034.285" fill="#231F20" mask="url(#b)"/><path d="M106.309 46.387a7.039 7.039 0 0 1-9.374 9.37 7.041 7.041 0 0 0 13.407-3.005 7.036 7.036 0 0 0-4.033-6.365" fill="#498451" mask="url(#b)"/><path d="M106.98 49.392c0-1.075-.24-2.095-.67-3.005a7.04 7.04 0 0 0-9.375 9.37 7.04 7.04 0 0 0 10.046-6.366" fill="#58A565" mask="url(#b)"/><path d="M103.236 54.679l-2.897-2.169a.394.394 0 1 1 .473-.632l2.897 2.17a.395.395 0 0 1-.473.631" fill="#664634" mask="url(#b)"/><path d="M103.829 50.397h-1.043c-.113 0-.231-.284-.317-.224.14.097.219-.06.219.123v15.67h1.65v-15.67c0-.297-.213.1-.509.1" fill="#724F3D" mask="url(#b)"/><path d="M102.322 49.854c-.14.096-.367.258-.367.442v15.67h.732v-15.67c0-.184-.225-.346-.365-.442" fill="#895F4C" mask="url(#b)"/><path d="M107.294 55.148l-2.846 2.236a.394.394 0 0 1-.488-.62l2.845-2.236a.394.394 0 1 1 .489.62" fill="#664634" mask="url(#b)"/><path d="M33.071 45.452h-.002c-.668 0-1.11.419-1.672.693 1.42.69 2.588 2.413 2.588 4.099v6.713c0 1.686-1.169 3.045-2.59 3.736.562.273 1.006.328 1.672.328h.003c2.354 0 4.58-1.71 4.58-4.064v-6.713c0-2.354-2.226-4.792-4.579-4.792" fill="#33635B" mask="url(#b)"/><path d="M33.985 56.958v-6.714c0-1.687-.96-3.144-2.381-3.835a4.245 4.245 0 0 0-2.381 3.835v6.714c0 1.686.96 3.144 2.38 3.834a4.243 4.243 0 0 0 2.382-3.834" fill="#457F77" mask="url(#b)"/><path d="M32.946 58.475l-1.927-1.443a.264.264 0 0 1-.052-.368.262.262 0 0 1 .368-.052l1.926 1.442a.263.263 0 0 1-.315.42" fill="#664634" mask="url(#b)"/><path d="M33.34 54.793h-.693c-.075 0-.367.228-.426.268.094.064-.068.376-.068.498v10.406h1.832V55.56c0-.197-.448-.766-.645-.766" fill="#724F3D" mask="url(#b)"/><path d="M32.153 55.266c-.093.064 0 .17 0 .293v10.263-10.263c0-.122.095-.23 0-.293" fill="#895F4C" mask="url(#b)"/><path d="M35.644 58.786l-1.892 1.487a.262.262 0 0 1-.324-.412l1.892-1.487a.262.262 0 0 1 .324.412" fill="#664634" mask="url(#b)"/></g></g></svg>