<svg width="480" height="360" viewBox="0 0 480 360" xmlns="http://www.w3.org/2000/svg" xmlns:xlink="http://www.w3.org/1999/xlink" style="background:#fff"><defs><path id="a" d="M0 .435h479.4V10.66H0z"/><path id="c" d="M0 .364h479.4v29.403H0z"/><path id="e" d="M0 480h479.4V0H0z"/></defs><g fill="none" fill-rule="evenodd"><path fill="#FFF" d="M.001 382.7H479.4V-96.7H.001z"/><path fill="#82C3FF" d="M0 382.401h479.4V-97H0z"/><path d="M50.74 54.336c-1.02 0-1.99.205-2.875.572a9.892 9.892 0 0 0-18.63 3.636 5.749 5.749 0 1 0-2.717 10.815h24.221a7.512 7.512 0 0 0 0-15.023m264.026 56.011a7.47 7.47 0 0 0-2.874.572 9.892 9.892 0 0 0-18.63 3.636 5.749 5.749 0 1 0-2.717 10.813h24.221a7.51 7.51 0 0 0 0-15.021m111.668-70.044c-1.02 0-1.989.206-2.874.574a9.89 9.89 0 0 0-8.78-5.336c-5.154 0-9.384 3.94-9.85 8.97a5.749 5.749 0 1 0-2.717 10.815h24.221a7.511 7.511 0 0 0 7.511-7.512 7.51 7.51 0 0 0-7.51-7.51" fill="#FDFFFF"/><path d="M415.943 59.437v.29h-1.63v2.92h1.63v12.976h-1.63v2.92h1.63v12.98h-1.63v2.92h1.63v12.975h-1.63v2.92h1.63v12.979h-1.63v2.92h1.63v12.977h-1.63v2.92h1.63v4.868h-16.267V94.765h-12.903v-6.087h3.58v-2.916h-4.044V71.741h1.524v-3.286H373.44v3.286h1.707v14.021h-23.75v2.916h1.06v83.792H342.37v-14.437h-2.6v-15.716h1.624v-3.286h-3.598v-8.272h1.525v-3.285h-14.395v3.285h1.708v8.272h-23.298v3.286h2.721v15.716h-23.664v31.794h-7.684V135.99h2.93v-3.284h-75.514v3.284h1.873v24.815H190.9V76.25l-7.273-5.308v-8.296h-6.323v3.683l-23.872-17.422-.247 93.703h-11.81v-32.332h1.546v-3.285h-40.986v3.285h1.545v50.527H92.056v-2.774h1.465v-2.92h-1.465v-12.977h1.465v-2.92h-1.465v-12.977h1.465v-2.92h-1.465v-12.979h1.465v-2.92h-1.465V94.442h1.465v-2.92h-1.465V78.543h1.465v-2.92h-1.465V62.646h1.465v-2.92h-1.465v-.29l-4.655-5.309v-11.76h-6.324v4.547l-7.968-9.088-18.948 21.61v.29h-1.629v2.92h1.63v12.977h-1.63v2.92h1.63v12.98h-1.63v2.92h1.63v12.975h-1.63v2.92h1.63v12.979h-1.63v2.92h1.63v12.977h-1.63v2.92h1.63v4.868H37.894V94.765H0v118.181h174.846v-1.09h.774v1.09h303.781V106.993h-15.686v3.285h1.546v50.527h-11.425v-2.774h1.464v-2.92h-1.464v-12.977h1.464v-2.92h-1.464v-12.977h1.464v-2.92h-1.464v-12.979h1.464v-2.92h-1.464V94.442h1.464v-2.92h-1.464V78.543h1.464v-2.92h-1.464V62.646h1.464v-2.92h-1.464v-.29l-4.656-5.309v-11.76h-6.323v4.547l-7.968-9.088-18.946 21.61zM365.79 94.765h7.65v-6.087h-7.65v6.087zm-10.49-6.087h7.647v6.087H355.3v-6.087z" fill="#67ADE4"/><path fill="#8C8C8C" d="M0 383h479.4v-79.843H0z"/><path fill="#C1A9A9" d="M0 303.157h479.4v-12.362H0z"/><path fill="#8C6D6D" d="M19.092 303.157h1.677v-12.362h-1.677zm56.888 0h1.679v-12.362H75.98zm56.89 0h1.677v-12.362h-1.678zm56.887 0h1.679v-12.362h-1.679zm56.89 0h1.678v-12.362h-1.678zm56.889 0h1.677v-12.362h-1.677zm56.888 0h1.679v-12.362h-1.679zm56.889 0h1.679v-12.362h-1.679zm56.89 0h1.677v-12.362h-1.677z"/><path fill="#C6C6C6" d="M0 290.795h479.4v-46.539H0z"/><path fill="#50B771" d="M0 244.256h479.4V210.1H0z"/><g transform="translate(0 -97)"><g transform="translate(0 306.667)"><mask id="b" fill="#fff"><use xlink:href="#a"/></mask><path d="M0 10.661a5451.655 5451.655 0 0 1 479.401 0V.435H0V10.66z" fill="#71CC79" mask="url(#b)"/></g><g transform="translate(0 277.333)"><mask id="d" fill="#fff"><use xlink:href="#c"/></mask><path d="M0 .364a1961.54 1961.54 0 0 0 479.401 0v29.403H0V.364z" fill="#26A7B8" mask="url(#d)"/></g><mask id="f" fill="#fff"><use xlink:href="#e"/></mask><path fill="#579B6B" mask="url(#f)" d="M0 341.256h479.401v-4.11H0z"/><path fill="#D8D8D8" mask="url(#f)" d="M0 387.793h479.401v-4.788H0z"/><path fill="#FFF" mask="url(#f)" d="M0 419.781h479.401v-7.133H0z"/><path d="M84.357 232.136c-1.562 0-3.05.315-4.408.878-2.527-4.859-7.604-8.18-13.46-8.18-7.9 0-14.386 6.04-15.1 13.753a8.812 8.812 0 0 0-12.979 7.767 8.812 8.812 0 0 0 8.813 8.812h37.134c6.36 0 11.514-5.155 11.514-11.515 0-6.359-5.154-11.515-11.514-11.515m227.205 2.219a8.22 8.22 0 0 0-3.164.63 10.885 10.885 0 0 0-9.664-5.873c-5.67 0-10.326 4.337-10.838 9.875a6.326 6.326 0 0 0-9.317 5.575 6.327 6.327 0 0 0 6.326 6.326h26.657a8.267 8.267 0 0 0 0-16.533m121.893-2.219c-1.562 0-3.049.315-4.408.878-2.526-4.859-7.605-8.18-13.46-8.18-7.9 0-14.385 6.04-15.098 13.753a8.814 8.814 0 1 0-4.167 16.579h37.133c6.36 0 11.515-5.155 11.515-11.515 0-6.359-5.155-11.515-11.515-11.515m-240.967 2.734a7.501 7.501 0 0 0-2.875.573 9.89 9.89 0 0 0-8.78-5.336c-5.152 0-9.382 3.94-9.848 8.972a5.749 5.749 0 1 0-2.719 10.815h24.222a7.512 7.512 0 0 0 0-15.023" fill="#FDFFFF" mask="url(#f)"/><path d="M79.077 365.763l49.14-19.102h296.237l-24.779 19.102s-41.132-6.712-145.78-6.712c-104.646 0-164.75 6.712-164.75 6.712H79.077z" fill="#572E0C" mask="url(#f)"/><path fill="#7283A0" mask="url(#f)" d="M79.076 365.763h10.068V148.33H79.076z"/><path d="M79.077 169.08c4.888 4.044 7.86 6.495 10.068 10.05v-30.8H79.077v20.75z" fill="#586A80" mask="url(#f)"/><path d="M79.077 304.258v61.504h10.068v-43.85c-3.336-5.102-6.76-10.98-10.068-17.654" fill="#9FB3CF" mask="url(#f)"/><path fill="#7283A0" mask="url(#f)" d="M389.608 365.763h10.068V148.33h-10.068z"/><path d="M389.608 169.08c4.888 4.044 7.861 6.495 10.068 10.05v-30.8h-10.068v20.75z" fill="#586A80" mask="url(#f)"/><path d="M389.608 304.258v61.504h10.068v-43.85c-3.335-5.102-6.759-10.98-10.068-17.654" fill="#9FB3CF" mask="url(#f)"/><path fill="#7283A0" mask="url(#f)" d="M128.217 346.661h8.642V152.948h-8.642z"/><path d="M128.217 171.435c4.195 3.602 6.747 5.785 8.642 8.952v-27.439h-8.642v18.487z" fill="#586A80" mask="url(#f)"/><path d="M128.217 291.866v54.796h8.642v-39.068c-2.863-4.545-5.8-9.782-8.642-15.728" fill="#9FB3CF" mask="url(#f)"/><path fill="#7283A0" mask="url(#f)" d="M341.619 346.661h8.641V152.948h-8.641z"/><path d="M341.618 171.435c4.195 3.602 6.747 5.785 8.642 8.952v-27.439h-8.642v18.487z" fill="#586A80" mask="url(#f)"/><path d="M341.618 291.866v54.796h8.642v-39.068c-2.863-4.545-5.8-9.782-8.642-15.728" fill="#9FB3CF" mask="url(#f)"/><path d="M107.464 331.912h264.472v-160.6H107.464v160.6zm-7.67 7.67h279.811v-175.94H99.793v175.94z" fill="#7283A0" mask="url(#f)"/><path fill-opacity=".5" fill="#FDFFFF" mask="url(#f)" d="M107.464 331.912h264.472v-160.6H107.464z"/><path fill="#FDFFFF" mask="url(#f)" d="M107.464 173.523h264.472v-2.211H107.464z"/><g mask="url(#f)" fill="#FDFFFF"><path fill-opacity=".4" d="M301.38 171.312h-91.775L107.464 273.454v58.458h33.317z"/><path fill-opacity=".5" d="M327.164 171.312h-15.25l-160.6 160.6h15.251z"/><path fill-opacity=".4" d="M371.936 216.168L256.19 331.912h29.648l86.097-86.098z"/></g><path fill="#7283A0" mask="url(#f)" d="M72.87 155.785h333.662v-22.692H72.869z"/><path fill="#9FB3CF" mask="url(#f)" d="M72.87 137.888h333.662v-4.795H72.869z"/><path d="M406.532 140.875a1870.492 1870.492 0 0 1-333.663 0v14.911h333.663v-14.91z" fill="#586A80" mask="url(#f)"/><path fill="#9FB3CF" mask="url(#f)" d="M72.87 155.785h333.662v-2.397H72.869zm26.925 10.787h279.812v-2.93H99.795z"/><path d="M387.675 114.237H91.725c-10.414 0-18.855 8.443-18.855 18.856h333.663c0-10.413-8.443-18.856-18.858-18.856" fill="#FF8923" mask="url(#f)"/><path d="M405.185 126.123c-147.479 10.3-270.431 5.468-322.262-9.7-5.977 3.163-10.053 9.438-10.053 16.671h333.663c0-2.465-.487-4.812-1.348-6.97" fill="#DA6419" mask="url(#f)"/><path d="M119.526 117.433H389.23c3.353 0 6.07 2.791 6.07 6.232l-275.774-6.232z" fill="#FFCDAA" mask="url(#f)"/><path d="M169.116 346.662h-6.598v-35.64h17.038a49.779 49.779 0 0 0-6.303 10.47c-4.57 10.274-4.581 19.773-4.137 25.17" fill="#586A80" mask="url(#f)"/><path d="M153.04 362.91h-9.604v-51.89h24.803a72.5 72.5 0 0 0-9.176 15.245c-6.652 14.957-6.67 28.788-6.023 36.645" fill="#9FB3CF" mask="url(#f)"/><path d="M309.643 346.662h6.597v-35.64h-17.037a49.835 49.835 0 0 1 6.304 10.47c4.568 10.274 4.581 19.773 4.136 25.17" fill="#586A80" mask="url(#f)"/><path d="M325.718 362.91h9.606v-51.89H310.52a72.557 72.557 0 0 1 9.177 15.245c6.65 14.957 6.668 28.788 6.021 36.645" fill="#9FB3CF" mask="url(#f)"/><path d="M335.965 311.021H143.437a4.03 4.03 0 0 1-4.02-4.018 4.03 4.03 0 0 1 4.02-4.018h192.528a4.03 4.03 0 0 1 4.018 4.018 4.03 4.03 0 0 1-4.018 4.018" fill="#FF8923" mask="url(#f)"/><path d="M335.965 307.198H143.437c-1.516 0-2.827-.86-3.511-2.106a3.95 3.95 0 0 0-.508 1.912 4.03 4.03 0 0 0 4.019 4.017h192.528a4.03 4.03 0 0 0 4.018-4.017c0-.695-.194-1.34-.508-1.912-.685 1.246-1.994 2.106-3.51 2.106" fill="#DA6419" mask="url(#f)"/><path fill="#9FB3CF" mask="url(#f)" d="M143.436 326.265h191.888v-15.244H143.436z"/><path d="M335.324 318.643a1210.044 1210.044 0 0 0-191.888 0v-7.621h191.888v7.62z" fill="#7283A0" mask="url(#f)"/><path d="M429.458 192.54h-33.717a2.003 2.003 0 0 1-1.998-1.998c0-1.099.899-1.997 1.998-1.997h33.717c1.099 0 1.997.898 1.997 1.997a2.003 2.003 0 0 1-1.997 1.997m0 18.697h-33.717a2.003 2.003 0 0 1-1.998-1.997c0-1.099.899-1.998 1.998-1.998h33.717c1.099 0 1.997.899 1.997 1.998a2.003 2.003 0 0 1-1.997 1.997" fill="#9FB3CF" mask="url(#f)"/><path d="M453.509 199.93c0 14.121-11.448 25.568-25.57 25.568-14.12 0-25.568-11.447-25.568-25.568 0-14.121 11.448-25.568 25.568-25.568 14.122 0 25.57 11.447 25.57 25.568" fill="#FF8923" mask="url(#f)"/><path d="M450.392 199.93c0 12.4-10.052 22.452-22.452 22.452-12.4 0-22.452-10.052-22.452-22.452 0-12.4 10.052-22.452 22.452-22.452 12.4 0 22.452 10.052 22.452 22.452" fill="#FDFFFF" mask="url(#f)"/><path d="M447.883 199.93c0 11.013-8.928 19.943-19.943 19.943-11.013 0-19.941-8.93-19.941-19.943 0-11.013 8.928-19.943 19.94-19.943 11.016 0 19.944 8.93 19.944 19.943" fill="#FF8923" mask="url(#f)"/><path d="M419.243 204.341h17.394V192.01h-17.394v12.332zm15.077 4.514a1.666 1.666 0 1 1 .002-3.333 1.666 1.666 0 0 1-.002 3.333zm-12.759 0a1.666 1.666 0 1 1 0-3.333 1.666 1.666 0 0 1 0 3.333zm2.894-18.531h6.972v-1.833h-6.972v1.833zm7.637-4.11h-8.303a6.318 6.318 0 0 0-6.317 6.318v14.888c0 1.267.917 2.32 2.124 2.535v2.9c0 .434.356.79.79.79h2.35a.791.791 0 0 0 .788-.79v-2.86h8.83v2.86c0 .434.357.79.791.79h2.351c.433 0 .79-.356.79-.79v-2.9a2.575 2.575 0 0 0 2.12-2.535v-14.888a6.316 6.316 0 0 0-6.314-6.317zm-17.924 7.867v2.299c0 1.144.926 2.072 2.072 2.072v-6.443a2.072 2.072 0 0 0-2.072 2.072m25.474-2.071v6.442a2.074 2.074 0 0 0 2.072-2.073v-2.298c0-1.144-.93-2.072-2.072-2.072" fill="#FDFFFF" mask="url(#f)"/></g></g></svg>