<svg width="176" height="172" viewBox="0 0 176 172" xmlns="http://www.w3.org/2000/svg"><g fill="none"><path d="M93.573 68.174c1.237-3.678 3.384-6.905 5.011-10.454 1.887-4.13 2.799-8.39 4.035-12.713 1.562-5.227 5.011-8.776 6.964-13.874 3.84-10.067 11.974-13.681 21.866-13.552 5.141.064 11.78 2.323 14.838 6.518 6.769 9.357 5.662 20.908-.976 29.103-3.45 4.195-11.128 8.648-14.252 13.165-1.562 2.259-3.254 8.647-5.922 9.809 0 0-6.964 4.388-18.613.71-11.65-3.679-12.951-8.712-12.951-8.712z" fill="#DC6629"/><path d="M116.806 57.978c.977-.13 3.06-.516 3.515-1.613.455-1.098-.326-1.291-1.758-.775-1.366.58-2.798.775-3.188.775-.521.064-3.775-.517-4.686-.388-1.887.452 2.733 2.388 6.117 2z" fill="#C34A17"/><path d="M105.092 45.588c-3.84.516-5.402-7.55-.13-7.744 3.58-.13 4.035 2.968 3.58 4.775-.652 2.323-3.45 2.969-3.45 2.969z" fill="#D25D24"/><path d="M105.092 45.588c-3.319.451-5.011-6.13-.455-6.454 2.993-.193 3.514 2.71 3.123 4.324-.325 1.613-2.668 2.13-2.668 2.13z" fill="#F2B9A0"/><path d="M105.027 43.523c-.65.064-1.106-.84-.846-1.356-1.237.388-.586 2.517.52 2.324 0 0 .847-.194.977-.775.065-.193.065-.451.065-.71-.065.388-.716.517-.716.517z" fill="#C95320"/><path fill="#D25D24" d="M108.281 41.587l-6.443-.904.911-1.807 4.816.517zm19.654-.065c4.946 0 6.052 6.324.911 7.809-5.076 1.548-5.792-7.744-.911-7.809z"/><path d="M128.065 42.684c2.929-.194 5.922 5.162.781 6.711-5.076 1.484-5.206-6.453-.78-6.711z" fill="#F2B9A0"/><path d="M128 47.266c-.65.064-1.106-.84-.846-1.356-1.237.388-.586 2.517.52 2.323 0 0 .847-.193.977-.774.065-.193.065-.452.065-.71-.13.387-.716.517-.716.517z" fill="#C95320"/><path fill="#D25D24" d="M131.58 45.071l-6.378-.903.91-1.807 4.751.516z"/><path d="M113.227 74.175c-1.367.646-2.603 1.485-3.84 2.388-1.171-1.549-1.952-.194-2.928.452-1.107.645-3.124.968-1.692 2.904-.196.129-.456.258-.651.387-1.497.839-2.994 1.742-4.49 2.646-.651-2.194-2.018-.71-2.994-.258-.976.451-3.059.516-1.692 3.162-1.497.968-3.059 1.936-4.556 2.904-.846-1.55-2.603-.194-3.644.387-1.172.71-1.953.774-2.213 1.161-.325.388-.065 1.485.26 2.259-1.562 1.097-3.124 2.259-4.62 3.356-1.497-1.872-2.799-.258-3.71.451-.911.71-2.994 1.678-1.432 3.614-2.342 2.065-3.774 3.614-5.01 5.163-1.953-1.42-2.018-.258-2.93 1.161-.78 1.226-2.082 1.743-.39 3.227-1.106 1.42-2.473 3.033-4.36 5.098-.195.194-.39.387-.586.645a1.704 1.704 0 0 0-.716-.193c-1.301.064-.91.645-1.692 1.548-1.171 1.227-1.106 1.678-.585 2.453-1.432 1.871-2.994 3.743-4.296 4.71-.13-.516-.455-1.161-.846-1.097-.585.13-1.887.84-2.668 1.291-.78.516-.52.774-.26 1.549-3.059 1.29-6.899 2.84-6.443 3.743.65 1.226 10.087.322 11.78-.13 2.277-.645 4.36-1.484 6.247-2.903 5.532-4.26 10.413-13.681 16.01-17.876 9.37-7.034 17.506-10.002 26.226-17.81 3.84-3.42 12.04-8.583 16.075-11.745-.195-1.355-6.508-3.55-7.354-4.647z" fill="#C44D16"/><path d="M64.808 119.929c-.39-3.42-7.354-5.421-15.489-4.453-8.135.968-14.382 4.582-13.927 8.002.325 2.71 4.686 4.517 10.478 4.646 1.171.452 3.059.58 5.076.323 2.017-.258 3.84-.84 4.881-1.549 5.532-1.484 9.306-4.324 8.98-6.97z" fill="#F3F3F3"/><path d="M48.473 124.704c-.976 0-1.887-.065-2.603-.258-1.887-.452-2.343-1.226-2.408-1.872-.195-1.871 2.994-3.226 6.313-3.613 3.319-.388 6.833.129 7.028 2 .195 1.872-2.993 3.227-6.313 3.614-.715.129-1.366.129-2.017.129zm3.254-4.71c-.586 0-1.171.064-1.822.128-3.32.387-5.402 1.678-5.337 2.388 0 .258.456.645 1.562.903 1.172.258 2.668.323 4.23.13 3.32-.388 5.467-1.678 5.337-2.388-.065-.581-1.627-1.162-3.97-1.162z" fill="#F2D39A"/><path d="M108.086 60.366c-1.692-5.937-9.111-3.292-9.111-3.292s-1.692 2.969-2.473 4.905c-.326.774-.651 1.613-1.042 2.452-2.147-1.097-2.017.58-2.668 1.678-.65 1.097-2.343 2.388 0 3.42-.976 1.549-2.017 3.033-3.254 4.26-.846.838-1.692 1.677-2.603 2.451l.065-.129c-1.497-2.775-2.408-.71-3.254.065-.78.71-2.538 1.29-1.041 3.097-2.018 1.162-4.23 2.065-6.573 2.388-.52.065-.976.13-1.497.194.26-1.678-2.018-1.678-3.189-1.807-1.367-.13-2.017-.516-2.473-.452-.586.13-1.041 1.29-1.236 2.194-2.408-.193-4.816-.516-7.16-.839.261-2.258-1.756-2.065-2.863-2.194-1.171-.129-3.319-1.032-3.644 1.484a62.318 62.318 0 0 0-7.745.065c-.325-2.646-1.236-1.807-2.928-1.42-1.432.323-2.799-.193-2.538 2.259-2.538.58-4.946 1.355-7.159 2.517-.195-.259-.39-.517-.65-.646-1.172-.58-1.107.194-2.279.581-2.212.774-1.692 1.226-1.431 3.291-1.757 2.775.26 6.195 1.822 4.453 3.84-4.26 5.987-3.678 11.78-4.388 11.453-1.355 25.12 4.969 36.639 2.84 10.217-1.872 16.986-8.455 22.387-16.457 1.692-2.387 7.029-9.873 6.118-12.97z" fill="#DA6629"/><path d="M111.34 76.434a30.215 30.215 0 0 1-3.905 4.517c-1.302-1.355-1.887.065-2.798.775-.912.71-2.734 1.226-1.693 2.71-2.342 1.484-4.88 2.71-7.679 3.743-.39-2.323-1.887-.968-2.928-.646-.977.323-2.734.194-2.213 2.324-2.473.645-4.946.839-7.42 1.097-.194-2-2.407-1.226-3.644-.968-1.301.322-2.082.193-2.473.387-.39.194-.455.903-.455 1.613l-.586.194a26.432 26.432 0 0 0-6.898 3.42c-1.172-1.097-2.408.13-3.254.71-.977.645-3.19 1.42-1.692 3.614-1.042 1.226-2.018 2.516-2.734 3.872-.52.968-.976 1.936-1.366 2.904-1.692-.581-1.562.58-2.083 2-.52 1.355-1.627 2.194.52 3.291-.585 2.84-.78 5.808-.91 8.776-.39 0-.781.065-1.042.259-1.106.71-.39 1.032-.65 2.194-.391 2.065.065 2.13 1.561 2.71 0 .58-.065 1.097-.065 1.678-.13 2.968.065 4.969 0 7.098-.455-.193-1.431-.516-1.627 0-.195.517-.39 2-.39 2.904 0 1.097.455.84 1.497 1.162-.065.258-.13.516-.196.839-1.236 4.84-6.573 8.066-3.319 7.744 3.254-.323 5.012-1.872 6.573-4.582 1.692-2.904 2.799-6.066 3.254-8.776 1.042-5.357.781-9.81 2.083-15.1 2.082-8.52 6.443-15.553 14.578-19.038 8.33-3.55 19.458-3.614 27.528-7.873 2.538-1.29 5.597-3.872 6.053-6.582.52-2.71-1.237-6.324-1.627-8.97z" fill="#DA6629"/><path d="M135.68 96.052c-.261-1.614-.782-3.614-1.432-5.68 2.212-.967.846-1.935.39-2.71-.39-.71-.455-2.129-2.017-1.42-.911-1.935-2.083-3.807-3.384-5.355 1.887-.968.195-1.807-.456-2.582-.716-.774-.716-2.13-2.798-.968-2.083-2.323-2.669-3.42-3.645-3.936 0 0-6.833-2.259-6.963 2.194 0 0 2.668 2.904 4.75 6.647 2.278 4.13 5.532 9.55 6.378 11.81 1.367 3.484 2.668 7.743.716 11.55-1.497 2.969-5.532 4.905-8.525 6.712-2.929 1.807-6.118 4.453-8.721 6.647-2.343 2.065-3.45 4.904-4.165 7.356-.781 2.646-.325 5.42-1.237 8.002-1.171 3.356 1.107 4.324 1.107 4.324 1.887.645 3.189-3.162 3.124-4.13.715 0 1.04 0 1.171-.71.195-.71.39-1.936.26-2.388-.065-.322-.716-.322-1.236-.258a17.514 17.514 0 0 1 1.822-5.162c1.367.064 1.822.064 2.343-1.485.325-.968 1.106-.968.455-1.807l-.26-.258c1.432-1.613 3.189-2.84 5.076-3.872 1.432.968 1.953 0 3.06-.71 1.105-.71 2.082-.903 1.626-1.742 2.278-1.161 4.556-2.452 6.378-4.194 1.822.58 2.408-1.033 2.993-1.807.521-.71 1.693-1.678.716-2.517 1.302-2 2.213-4.066 2.604-6.324.65-.065 1.301-.258 1.496-.516.196-.323 0-.904.196-2 .13-1.098.846-3.163-1.823-2.711z" fill="#D15A22"/><path d="M113.487 62.495s-4.62 4.517-7.484 6.13c-1.236-2.387-2.082-.838-3.254-.258-1.106.581-3.124.71-2.017 2.646a42.32 42.32 0 0 1-8.656 2.065c.13-2.581-1.692-1.484-2.733-1.355-.976.13-2.668-.258-2.603 1.743a55.565 55.565 0 0 1-9.242-.581c.13-1.29-1.757-1.743-2.733-2.13-1.302-.452-1.887-.968-2.278-.968-.585 0-1.171.904-1.627 1.678-3.189-.903-6.247-2.13-8.916-3.678 1.042-1.743-.715-2.453-1.627-3.098-.91-.645-2.342-2.258-3.71-.58-2.797-2.195-5.596-3.873-8.33-5.034.912-2.065-.325-1.872-1.821-2.452-1.432-.517-2.278-1.743-3.45.71-3.254-.71-6.247-.71-8.85-.13a2.32 2.32 0 0 0-.521-.774c-1.041-.774-1.106 0-2.343.194-2.148.387-1.952.839-2.017 2.645-1.888 1.291-3.385 3.098-4.23 5.292l-.586 1.355c-.326-.387-.846-.968-1.237-.71-.455.323-1.432 1.485-1.952 2.259-.651.968.065.968.911 2.13l.325-.13c-2.863 4.002-5.401 3.679-6.703 5.034-1.822 1.871 6.183 2.84 9.892-.516 3.645-3.227 5.597-8.97 10.803-10.003 11.845-2.452 15.294 11.358 36.25 16.327 9.827 2.323 20.63 2.517 29.871-.13 2.408-.709 9.502-3.548 11.129-5.484 1.627-2.065 3.904-10.842-.26-12.197z" fill="#C44D16"/><path d="M106.329 82.565c.195-2.84 1.887-11.616 1.887-11.616-1.237-2-5.402-4.324-7.42-5.55-1.04-.645-3.969-1.936-5.01-.645-.26.322-.13 2.516-.196 3.033-.715 3.936-.52 8.26-.65 12.26-.065 3.808 0 13.423-4.816 14.65-2.864.71-4.295-2.71-4.816-4.905-1.497-6.518-1.041-13.939-.65-20.586.13-2.194.325-9.163-1.172-13.68-1.107-3.227-5.923-5.55-6.638-3.356-.716 2.194 2.277 5.098 2.277 7.486-.065 4.775-1.887 10.841-2.863 15.487-1.237 5.937-1.692 11.616-.716 17.618 1.432 8.324 8.72 20.456 18.743 14.197 2.408-1.485 4.425-3.743 6.052-6.325 1.497.388 2.343-1.42 3.059-3.29.325-.904.13-1.42-.52-1.614 1.17-2.646 1.952-5.356 2.537-7.873 1.432-.193 1.823-2.646 1.627-3.872-.065-.839-.26-1.29-.715-1.42z" fill="#DC6629"/><path d="M78.67 62.753c-.26-1.097.13-3.226 1.171-4 0 0 .26-.065.586-.065 1.692-.065 1.432 4.646.065 5.356-.455.258-.911.193-1.236.129-.456-.065-.39-.58-.586-1.42z" fill="#E58961"/><path d="M78.15 62.818c-.326-1.355.26-4.066 1.887-4.066 1.692-.064 1.236 4.453.065 5.098-1.172.646-1.627.323-1.953-1.032z" fill="#ED996D"/><path d="M78.8 62.172c-.195-.71.13-2.194 1.041-2.258.911-.065.651 2.452.065 2.775-.585.322-.91.258-1.106-.517z" fill="#DC6629"/><path d="M76.197 75.66c-.456-1.162-.326-3.614.976-4.195 0 0 .39-.065.52-.065 1.693-.258 1.693 4.389.586 5.163-.39.323-1.366.387-1.366.387-.456-.064-.39-.516-.716-1.29z" fill="#E58961"/><path d="M75.676 75.724c-.455-1.29-.13-4.065 1.497-4.259 1.692-.258 1.692 4.26.586 5.034-1.107.774-1.562.516-2.083-.775z" fill="#ED996D"/><path d="M76.327 75.014c-.26-.71-.065-2.194.846-2.323s.911 2.323.325 2.775c-.65.387-.91.258-1.171-.452z" fill="#DC6629"/><path d="M75.286 89.663c-.716-1.032-1.107-3.614 0-4.453.13-.064.325-.064.52-.064 1.692-.258 2.538 3.807 1.627 4.84-.455.516-.976.774-1.301.71-.326-.065-.456-.452-.846-1.033z" fill="#E58961"/><path d="M74.96 89.728c-.78-1.162-1.171-3.872.39-4.518 1.563-.645 2.669 3.743 1.823 4.776-.911 1.032-1.432.839-2.213-.258z" fill="#ED996D"/><path d="M75.35 88.889c-.455-.646-.65-2.13.196-2.453.846-.322 1.497 2.065.976 2.646-.455.517-.716.452-1.171-.193z" fill="#DC6629"/><path d="M80.037 103.408c-.977-.774-2.148-3.162-1.302-4.323.065-.13.195-.194.325-.258 1.367-.71 3.645 2.904 3.124 4.13-.195.516-.716.968-1.041 1.097-.326.193-.52-.13-1.106-.646z" fill="#E58961"/><path d="M79.711 103.537c-1.106-.838-2.278-3.355-.976-4.388 1.302-1.097 3.71 2.775 3.189 4.001-.586 1.226-1.107 1.226-2.213.387z" fill="#ED996D"/><path d="M79.841 102.634c-.585-.452-1.236-1.807-.585-2.388.715-.58 2.017 1.485 1.757 2.194-.26.646-.586.646-1.172.194z" fill="#DC6629"/><path d="M92.597 108.442c-1.237.645-3.97.839-4.49-.775-.521-1.613 3.97-2.323 4.945-1.42.586.582.846 1.162.586 1.55-.13.322-.52.387-1.041.645z" fill="#E58961"/><path d="M92.662 108.765c-1.237.645-3.97.838-4.49-.775-.521-1.613 3.97-2.323 4.945-1.42.977.904.716 1.55-.455 2.195z" fill="#ED996D"/><path d="M91.881 108.313c-.65.387-2.213.452-2.473-.387-.26-.904 2.213-1.291 2.733-.775.52.516.39.775-.26 1.162zm72.563-5.873c-.325-1.42.066-2.516-2.212-1.936-.26-.774-.651-1.548-1.107-2.323-.78-1.355-1.562-2.71-2.408-4.065 1.953-1.29.26-2.582-.39-3.42-.65-.84-1.367-2.388-3.124-1.42-.39-.452-.78-.904-1.236-1.29-1.302-1.291-2.734-2.453-4.165-3.55.455-.645.846-1.549.585-1.936-.195-.323-.976-.516-2.017-1.29-.976-.71-2.799-2.388-3.84-.388-1.887-1.161-3.774-2.323-5.662-3.42.716-1.484-.91-1.742-1.692-2.259-.846-.516-1.822-1.871-2.798-.387-1.822-1.032-3.58-2.13-5.272-3.356 1.627-1.355-.26-2-1.106-2.774-.846-.775-1.237-2.324-3.124-.646-1.432-1.484-3.58-4.259-3.84-6.26 0 0-8.785.259-6.703 6.647 2.083 6.39 9.307 13.23 17.246 16.198 5.142 1.871 10.869 3.227 15.49 6.066 6.442 3.936 9.24 9.035 10.933 15.681 1.04 3.937 4.035 2.775 4.685-.774 3.254-.774 2.083-1.678 1.757-3.098z" fill="#DC6629"/><path d="M80.622 51.783c-.325-1.678-1.757-2.71-3.514-2.646-1.041.064-1.952.516-2.668 1.162l-.13-4.26-18.678.323.13 4.969c.195 5.227 2.928 9.744 8.46 10.777 5.272 1.032 8.2-2 9.502-6.002 2.993 1.807 7.68-.322 6.898-4.323zm-6.573 2.775c.13-.581.195-1.162.26-1.807.066-.065.13-.13.13-.258.782-1.872 4.23-3.162 4.751-.388.521 2.969-3.123 4.13-5.14 2.453z" fill="#F3F3F3"/><path fill="#F2D39A" d="M55.62 47.967l18.74-.37.027 1.354-18.74.37z"/><path d="M50.165 87.404c-.065-1.613-.13-3.742-.976-5.227-.846-1.484-2.668-1.29-4.23-.968l-.13-3.742-15.685.387.521 18.65h.065c.846 1.096 3.905 1.42 7.159 1.29 3.384-.064 7.354-.387 8.46-1.742l-.065-3.356c1.497.194 3.32.194 4.165-.774 1.041-.968.781-3.227.716-4.518zm-1.562 3.292c-.455.903-2.082.838-3.319.645l-.26-8.712c1.301-.323 2.798-.516 3.189.904.39 1.226.455 2.516.52 3.807.065.903.326 2.517-.13 3.356z" fill="#F3F3F3"/><path d="M30.186 87.082c4.36.71 6.377-.258 6.768 2.258.52 3.098-6.573 3.033-8.33 2.84.065 0-2.864-5.808 1.562-5.098z" fill="#DA6629"/><path d="M77.433 51.46c1.757-.193 2.213.387 2.669 1.872.195.645 0 1.226-.651 1.548-.781.323-1.302-.064-1.953-.516 0 0-1.887-2.71-.065-2.904z" fill="#DC6629"/><path d="M119.995 58.3c-.455-.064-1.041 0-1.562.13.065-.194.196-.452.26-.646.066-.258.066-.258.066-.58 0 0 .78-2.13-7.875-4.453-8.72-2.323-11.063-.968-11.584-.517-.586.388-.65 1.743-.716 2.324-.13 2 .39 4.065 1.106 5.872.781 1.807 2.799 3.872 1.823 6.002-.065.193-.26.322-.326.516-.065.258.065.645.326.839.13.193.39.193.585.258.26.129.456.258.651.387.846.516 2.148.774 3.059.903 1.236.13 2.278.323 3.58.13.26-.065 1.106-.065 1.3-.388.131-.193.066-.258 0-.451-.064-.259-.194-.517-.13-.84.066-.451.586-.774.977-1.096.26.258.65.322.976 0 .13-.13 2.278.193 2.799.258 1.106.064 2.277.064 3.384-.065 1.562-.258 3.058-.903 3.904-2.323 1.302-2.323.39-5.937-2.603-6.26zm.065 6.712c-1.692.839-3.84.645-5.662.452-.39-.065-.78-.13-1.236-.13.325-.258.586-.58.911-.838.65-.581 1.302-1.097 1.887-1.743.521.71 1.562 1.097 2.343.646.911-.517.586-1.098.26-1.743.391-.645-.52-1.42-1.106-.839l-.195.194a1.94 1.94 0 0 0 .26-.516c.52-.581 1.627-.904 2.343-.775 2.864.258 2.148 4.26.195 5.292z" fill="#EAD9BE"/><path d="M128.456 74.046c-.716 10.97 8.655 30.782-6.118 37.106-6.963 2.969-14.643-.774-16.01-8.324-1.952-10.648 6.964-20.199 5.402-31.234-1.367-9.486-4.75-5.808-8.07-7.421-5.662-2.84 10.934-9.035 14.903 6.066 1.758 6.647-6.507 28.007-.39 29.556 3.58.903.39-28.975.39-28.975l9.893 3.226z" fill="#DC6629"/><path d="M110.884 70.433c-.52-.775-.846-2.582-.26-3.485l.39-.258c1.302-.517 2.473 3.162 1.627 4.13-.26.322-.65.387-.91.451-.326.13-.391-.258-.847-.838z" fill="#E58961"/><path d="M110.559 70.626c-.651-.968-.976-3.226.26-3.743 1.302-.516 2.278 3.098 1.562 3.937s-1.171.71-1.822-.194z" fill="#ED996D"/><path d="M110.884 69.916c-.39-.516-.52-1.742.13-2.065.716-.322 1.237 1.678.846 2.194-.39.452-.65.388-.976-.129z" fill="#DC6629"/><path d="M109.322 81.661c-.13-1.29.651-3.614 2.018-3.807 0 0 .39.064.52.064 1.692.194.521 4.711-.78 5.163-.456.193-1.432 0-1.432 0-.39-.13-.26-.581-.326-1.42z" fill="#E58961"/><path d="M108.802 81.597c-.13-1.356.91-3.937 2.538-3.743 1.692.193.52 4.581-.716 5.033-1.237.452-1.692.065-1.822-1.29z" fill="#ED996D"/><path d="M109.583 81.08c-.066-.774.455-2.194 1.366-2.065.911.13.26 2.517-.39 2.775-.651.258-.911 0-.976-.71z" fill="#DC6629"/><path d="M105.873 94.051c-.13-1.226.716-3.678 2.083-3.936.13 0 .325.129.52.193 1.627.517.456 4.518-.78 5.034-.652.258-1.237.258-1.498 0-.325-.194-.26-.58-.325-1.29z" fill="#E58961"/><path d="M105.483 93.922c-.13-1.355.78-3.936 2.407-3.807 1.693.129.651 4.582-.585 5.033-1.237.452-1.627.13-1.822-1.226z" fill="#ED996D"/><path d="M106.263 93.406c-.065-.774.456-2.194 1.367-2.065.911.064.326 2.517-.325 2.775-.716.258-.976 0-1.042-.71z" fill="#DC6629"/><path d="M107.63 107.474c-.911-.839-1.822-3.291-.911-4.388.065-.13.26-.13.39-.194 1.432-.58 3.385 3.227 2.734 4.388-.26.517-.846.904-1.106.968-.326.065-.521-.258-1.107-.774z" fill="#E58961"/><path d="M107.37 107.538c-1.041-.968-1.953-3.549-.586-4.452 1.367-.968 3.45 3.097 2.799 4.259-.651 1.161-1.237 1.161-2.213.193z" fill="#ED996D"/><path d="M107.565 106.635c-.586-.516-1.106-1.936-.325-2.452.78-.516 1.887 1.678 1.562 2.323-.326.71-.651.645-1.237.129z" fill="#DC6629"/><path d="M120.841 112.766c-1.236.58-4.035.451-4.425-1.162-.326-1.613 4.165-2 5.076-.968.52.645.716 1.226.456 1.613-.13.194-.586.258-1.107.517z" fill="#E58961"/><path d="M120.841 113.088c-1.236.581-4.035.452-4.425-1.161-.326-1.614 4.165-2 5.076-.968.911 1.032.65 1.548-.65 2.13z" fill="#ED996D"/><path d="M120.125 112.507c-.715.323-2.212.259-2.408-.645-.195-.903 2.278-1.097 2.799-.516.455.58.325.903-.39 1.161z" fill="#DC6629"/><path d="M34.806 67.27c-.13-3.033-6.833-5.162-15.033-4.84-8.2.323-14.708 3.034-14.578 6.067.065 2.258 3.775 4 9.046 4.646.716.968 3.124 1.613 6.053 1.484 2.928-.129 5.271-.968 5.922-2 5.076-1.033 8.655-3.098 8.59-5.357z" fill="#F3F3F3"/><path d="M19.383 70.497c-2.929 0-5.858-.774-5.923-2.388 0-.774.651-1.484 1.953-2 1.171-.516 2.733-.775 4.425-.904 1.692-.064 3.254.13 4.49.517 1.302.451 2.083 1.097 2.083 1.871s-.65 1.484-1.952 2c-1.172.517-2.734.775-4.426.904h-.65zm1.171-4.582h-.716c-1.627.065-3.124.387-4.23.84-.976.386-1.562.903-1.562 1.354.065.904 2.473 1.872 5.922 1.678 1.627-.064 3.124-.387 4.23-.839.977-.387 1.562-.903 1.562-1.355 0-.452-.65-.903-1.627-1.226a14.206 14.206 0 0 0-3.579-.452z" fill="#F2D39A"/><g transform="translate(92.857 124.123)"><path d="M29.937 6.001c0-3.033-6.704-5.42-14.839-5.356C6.898.71.325 3.227.325 6.195c0 2.259 3.645 4.13 8.851 4.969.651.968 3.124 1.742 5.987 1.678 2.93 0 5.337-.775 5.988-1.807 5.141-.839 8.786-2.775 8.786-5.034z" fill="#F3F3F3"/><ellipse fill="#CAE7EA" transform="rotate(-.42 15.102 6.134)" cx="15.102" cy="6.134" rx="7.289" ry="2.71"/></g><path d="M104.767 136.836s4.555.194 6.638-1.549c1.301-1.097 3.124-3.162 5.336-3.29 5.337-.324-1.887 9.42-9.371 7.55.065 0-4.36-1.872-2.603-2.711z" fill="#D15A22"/><path d="M150.583 96.439c-1.562-.323-4.166-1.097-5.402.452-.911 1.161-.586 3.29-.39 4.581.195 1.227.39 3.227 1.431 4.13 1.367 1.098 4.1.646 5.597.13.846-.259.52-1.614-.39-1.356-1.042.323-3.254.84-4.23.194-.716-.516-.847-2.13-.977-2.904-.13-.968-.39-2.452-.065-3.42.52-1.484 2.929-.646 4.035-.387.846.129 1.237-1.226.39-1.42z" fill="#FFF"/><path d="M166.462 91.793l-.26 18.714h-.065c-.781 1.161-3.775 2-7.094 2.065-3.384.064-7.354-.387-8.526-1.613l-1.301-18.65 17.246-.516z" fill="#CAE7EA"/><path d="M168.089 105.215c-.39-.645-7.354-.774-7.484 2.388-.13 2.904 5.532 3.872 7.484 2.646 0 .064 1.692-2.194 0-5.034zm-.781-2.581c1.236-.839.78-.323 1.171-1.936.196-.839.586-2.388 0-3.033-.846-.968-5.271-.968-6.312-1.032a11.936 11.936 0 0 0-2.148 0c.13-.388.26-.84.13-.968-.13-.194-.586-.065-.78-.065-.847.065-1.693.194-2.539.323-.586.064-2.343.129-2.213.903 0 .13.13.258.196.387-2.538.387-4.816.904-6.053 1.162-2.538.516.326 4.453.326 4.453 2.668 1.355 7.289 1.097 10.087.645 2.408-.452 5.987.58 8.135-.839z" fill="#DC6629"/><path d="M67.671 135.223c-1.106-3.291-8.33-3.808-16.074-1.226-7.745 2.58-13.146 7.356-11.975 10.647.911 2.582 5.532 3.485 11.194 2.453 1.236.193 3.124-.065 5.076-.71 1.952-.646 3.58-1.614 4.425-2.517 5.077-2.581 8.2-6.066 7.354-8.647z" fill="#EAD9BE"/><path d="M50.295 143.547h-.26c-1.887-.064-2.538-.774-2.733-1.355-.586-1.742 2.277-3.743 5.466-4.84 1.627-.516 3.254-.839 4.556-.774 1.887.064 2.538.774 2.733 1.355.195.58.13 1.549-1.367 2.71-1.04.84-2.473 1.55-4.1 2.13-1.561.452-3.058.774-4.295.774zm6.768-5.872c-1.17 0-2.538.258-3.97.71-3.188 1.097-4.945 2.775-4.75 3.42.065.258.586.516 1.692.58 1.171.065 2.668-.193 4.165-.71 1.497-.515 2.798-1.16 3.71-1.935.846-.71 1.106-1.226 1.04-1.484-.064-.258-.585-.517-1.691-.581h-.196z" opacity=".5" fill="#FFF"/></g></svg>