<svg width="120" height="120" viewBox="0 0 120 120" xmlns="http://www.w3.org/2000/svg"><g fill="none" fill-rule="evenodd"><path fill="#41FCFC" d="M7 59.166l11.828-24.053 55.639-.689L92.38 56.996z"/><path fill="#B1FFFE" d="M75.643 57.421l-9.457.24-25.708-22.816 9.594-.12zm10.919-.277l-4.865.124L56.214 34.65l4.936-.062zm-27.441.697l-4.865.124-25.88-22.97 4.935-.062zM85.6 48.454L69.858 34.481l4.61-.058zm-32.894 9.55l-9.183.234-25.108-22.284.413-.841 7.975-.099zm-19.02.484l-4.315.11-15.379-13.65 1.35-2.743zm-9.761.248l-4.865.123-8.29-7.358 1.52-3.092z"/><path fill="#1A393A" d="M104.762 82.406l-94.759 2.938-.42-13.189 94.758-2.937z"/><path d="M24.01 30.934c.01.337.293.604.636.594l43.027-1.177a.613.613 0 0 0 .602-.627.617.617 0 0 0-.636-.595l-43.027 1.177a.615.615 0 0 0-.602.628" fill="#A9B1B0"/><path d="M24.805 33.657l-.117-4.264a56.09 56.09 0 0 0-1.382.326c-.643.964-1.03 3-1.284 3.87.096.046.194.09.339.087l2.444-.02zm42.778-1.17c-.04-1.39-.08-2.946-.117-4.264.53.084 1.398.25 1.398.25.697.929 1.192 2.94 1.493 3.795a.698.698 0 0 1-.333.105l-2.441.114z" fill="#5E7576"/><path d="M20.918 56.957c.272-.228.39-.592.483-.92l.41-1.451.817-2.903 2.34-8.295c.387-1.377.896-2.758 1.285-4.137.204-.723 1.059-3.025.56-3.155-.375-.098-2.12-.052-2.836-.052-1.32.012-2.64.048-3.96.071-.15.003-.301.008-.453.009-.598.004-.754.42-.971.859l-.534 1.085a6326.18 6326.18 0 0 0-1.545 3.138l-1.942 3.944-2.054 4.173c-.627 1.273-1.255 2.547-1.881 3.821-.518 1.049-1.014 2.111-1.56 3.146-.188.36-.167.714.247.912.329.157.73.224 1.216.213l2.295-.054 4.827-.113 1.971-.046c.462-.011.861.078 1.25-.218l.035-.027zm24.05-.79c.277-.327.264-.76.25-1.17l-.038-1.215-.13-4.059-.153-4.804-.148-4.604-.11-3.456c-.013-.404.137-1.005-.31-1.243-.292-.155-.684-.094-1.004-.085l-1.898.054-4.968.14-4.526.129c-.522.015-1.048-.046-1.551.113-.228.071-.266.307-.325.512l-.266.924c-.335 1.168-.67 2.335-1.007 3.503l-1.323 4.592-1.372 4.769-1.16 4.031c-.14.485-.284.968-.419 1.453-.1.362-.228.84.162 1.077.255.154.552.113.836.105.351-.01.703-.02 1.056-.028l4.07-.108 4.902-.129c1.58-.04 3.16-.083 4.738-.125l3.657-.096c.324-.009.726.033.975-.212a.872.872 0 0 0 .061-.067zm4.138-.065c.307.235.828.192 1.172.184l1.866-.041c1.207-.026 2.416-.052 3.625-.08l4.4-.096c1.584-.033 3.167-.069 4.751-.103l4.682-.102a7967.459 7967.459 0 0 1 7.46-.163l1.162-.026c.146-.004.293 0 .439-.01.65-.041.331-.64.142-.984l-1.404-2.536a15751.176 15751.176 0 0 1-4.183-7.56l-2.168-3.917a4775.001 4775.001 0 0 0-2.437-4.405c-.194-.349-.36-.76-.61-1.072-.392-.485-1.138-.29-1.689-.276l-3.802.098-4.89.126-4.791.125-2.123.054c-.628.016-1.374-.077-1.96.183-.634.282-.482.998-.464 1.567l.12 3.729.153 4.785c.05 1.614.102 3.227.154 4.84l.124 3.89c.011.328 0 .657.013.984.01.22 0 .5.14.686a.602.602 0 0 0 .118.12zM5.03 66.646c-.127-2.442-.248-4.957-.154-6.231l-.035-.02.045-.102a3.66 3.66 0 0 1 .064-.465c.246-1.032 1.731-4.135 3.626-7.848l.013-.028c2.116-4.145 4.736-9.034 6.723-12.655.734-1.34 2.517-4.426 2.517-4.426 1.56-2.517 3.63-2.411 3.63-2.411l46.767-1.037s5.05-.005 6.474 3.264l-1.61.014-1.275.01c-.182 0-.362.002-.543.004-.711.005-.077.876.097 1.168l.723 1.212 1.973 3.31 2.379 3.99 2.421 4.06 2.104 3.528 1.424 2.389c.134.227.27.455.407.682 1.496 0 8.265.33 8.265.33 3.523.716 23.692 9.135 23.692 9.135a5.572 5.572 0 0 1 1.411 2.917c.33 1.945.104 14.38.166 16.31l-7.86.416-6.403.199c.034-.411.048-.828.034-1.25-.193-6.07-5.347-10.836-11.51-10.645-6.162.19-11.002 5.266-10.808 11.337.013.422.055.837.115 1.245L36.944 86.38c.036-.411.047-.828.033-1.25-.193-6.07-5.346-10.836-11.508-10.645-6.163.19-11.002 5.266-10.809 11.336.015.423.054.838.113 1.247l-8.832.128-.144-5.163-.003-.087-.763-15.3z" fill="#FF4343"/><path d="M16.68 65.778c-.801-.178-1.354-.454-1.563-.782a.614.614 0 0 1-.07-.513c.124-.516.92-.654 1.567-.743l.065 2.038zm.187-2.187l-.012-.138-.14.019c-.737.096-1.743.23-1.916.95a.856.856 0 0 0 .1.706c.332.525 1.211.797 1.887.932l.16.031-.08-2.5z" fill="#BE2323"/><path d="M15.624 62.002a.928.928 0 0 1 .963.89l.02.594c-.724.097-1.643.25-1.808.936a.854.854 0 0 0 .101.706c.315.5 1.127.77 1.787.911l.007.195a.926.926 0 0 1-.904.947l-3.393.106a.928.928 0 0 1-.963-.89l-.106-3.342a.926.926 0 0 1 .903-.949l3.393-.104zm1.326 4.224l-.013-.395-.1-.02c-.886-.175-1.497-.466-1.72-.815a.617.617 0 0 1-.07-.513c.135-.554 1.04-.673 1.708-.762l.115-.014-.027-.823a1.185 1.185 0 0 0-1.227-1.135l-3.393.104a1.182 1.182 0 0 0-1.151 1.21l.106 3.342a1.185 1.185 0 0 0 1.227 1.135l3.393-.105a1.181 1.181 0 0 0 1.152-1.209z" fill="#BE2323"/><path d="M35.195 83.853c-.16-5.061-4.389-9.036-9.443-8.877-5.057.16-9.027 4.392-8.867 9.453.158 5.062 4.388 9.038 9.445 8.879 5.053-.16 9.025-4.393 8.865-9.455" fill="#182929"/><path d="M30.32 84.007a4.284 4.284 0 0 0-4.414-4.15 4.284 4.284 0 0 0-4.146 4.42 4.284 4.284 0 0 0 4.416 4.149 4.284 4.284 0 0 0 4.144-4.42" fill="#5E7576"/><path d="M26.279 80.969a.338.338 0 1 0-.676.02.338.338 0 1 0 .676-.02m.207 6.581a.34.34 0 0 0-.348-.33.34.34 0 0 0-.329.35.338.338 0 0 0 .35.327.338.338 0 0 0 .327-.348m-2.609-5.78a.337.337 0 1 0-.462.493.337.337 0 0 0 .462-.493m4.793 4.507a.339.339 0 1 0 .015.479.335.335 0 0 0-.014-.48m-5.924-2.242a.339.339 0 1 0 .021.676.339.339 0 0 0-.021-.676m6.573-.207a.338.338 0 1 0 .348.328.34.34 0 0 0-.349-.328m-5.772 2.609a.339.339 0 1 0 .494.465.339.339 0 0 0-.494-.465m4.501-4.798a.335.335 0 0 0 .014.476c.14.13.353.123.477-.013a.338.338 0 1 0-.491-.463" fill="#1A393A"/><path d="M26.279 80.969a.338.338 0 1 0-.676.02.338.338 0 1 0 .676-.02m.207 6.581a.34.34 0 0 0-.348-.33.34.34 0 0 0-.329.35.338.338 0 0 0 .35.327.338.338 0 0 0 .327-.348m-2.609-5.78a.337.337 0 1 0-.462.493.337.337 0 0 0 .462-.493m4.793 4.507a.339.339 0 1 0 .015.479.335.335 0 0 0-.014-.48m-5.924-2.242a.339.339 0 1 0 .021.676.339.339 0 0 0-.021-.676m6.573-.207a.338.338 0 1 0 .348.328.34.34 0 0 0-.349-.328m-5.772 2.609a.339.339 0 1 0 .494.465.339.339 0 0 0-.494-.465m4.501-4.798a.335.335 0 0 0 .014.476c.14.13.353.123.477-.013a.338.338 0 1 0-.491-.463" fill="#041D1D"/><path d="M100.453 82.56c-.16-5.062-4.39-9.037-9.444-8.878-5.057.16-9.027 4.392-8.868 9.454.16 5.061 4.389 9.037 9.445 8.877 5.054-.159 9.027-4.392 8.867-9.453" fill="#182929"/><path d="M95.578 82.713a4.286 4.286 0 0 0-4.415-4.15 4.285 4.285 0 0 0-4.146 4.42 4.285 4.285 0 0 0 4.415 4.15 4.285 4.285 0 0 0 4.146-4.42" fill="#5E7576"/><path d="M91.536 79.675a.338.338 0 1 0-.326.348.337.337 0 0 0 .326-.348m.207 6.58a.34.34 0 0 0-.349-.329.34.34 0 0 0 .023.678.338.338 0 0 0 .326-.349m-2.609-5.781a.338.338 0 1 0-.46.495.338.338 0 0 0 .46-.495m4.794 4.508a.334.334 0 0 0-.477.015.34.34 0 0 0 .015.48.34.34 0 0 0 .477-.017.336.336 0 0 0-.015-.478m-5.925-2.243a.338.338 0 1 0 .349.328.34.34 0 0 0-.349-.328m6.573-.207a.338.338 0 0 0-.325.349c.006.189.16.334.347.328a.338.338 0 1 0-.022-.677m-5.772 2.608a.34.34 0 0 0 .493.466.339.339 0 0 0-.493-.465m4.501-4.797a.335.335 0 0 0 .015.475c.137.13.352.123.476-.012a.337.337 0 1 0-.491-.463" fill="#1A393A"/><path d="M91.536 79.675a.338.338 0 1 0-.326.348.337.337 0 0 0 .326-.348m.207 6.58a.34.34 0 0 0-.349-.329.34.34 0 0 0 .023.678.338.338 0 0 0 .326-.349m-2.609-5.781a.338.338 0 1 0-.46.495.338.338 0 0 0 .46-.495m4.794 4.508a.334.334 0 0 0-.477.015.34.34 0 0 0 .015.48.34.34 0 0 0 .477-.017.336.336 0 0 0-.015-.478m-5.925-2.243a.338.338 0 1 0 .349.328.34.34 0 0 0-.349-.328m6.573-.207a.338.338 0 0 0-.325.349c.006.189.16.334.347.328a.338.338 0 1 0-.022-.677m-5.772 2.608a.34.34 0 0 0 .493.466.339.339 0 0 0-.493-.465m4.501-4.797a.335.335 0 0 0 .015.475c.137.13.352.123.476-.012a.337.337 0 1 0-.491-.463" fill="#041D1D"/><path d="M51 62.589c.017.627.54 1.12 1.168 1.102l5.29-.156a1.135 1.135 0 0 0-.067-2.271l-5.291.156a1.135 1.135 0 0 0-1.1 1.169" fill="#1A393A"/><path d="M48.867 57.497l.494 12.918.551 12.915.007.136.136-.004 13.465-.485 13.462-.563.133-.005.001-.138.014-1.34c.04-.445.067-.891.12-1.334.084-.437.12-.886.244-1.315l.163-.647.215-.632c.065-.214.157-.416.249-.619.092-.202.173-.41.289-.6.111-.191.204-.395.331-.577.128-.181.24-.375.38-.547.143-.17.268-.354.427-.51a5.44 5.44 0 0 1 .47-.466c.16-.153.34-.285.517-.416a3.98 3.98 0 0 1 .558-.335l.068-.033-.003-.07-.322-7.83-.355-7.83.216 7.835.248 7.834.065-.102c-.22.102-.41.222-.6.354-.186.134-.372.27-.539.428a5.724 5.724 0 0 0-.49.48c-.164.16-.295.348-.443.522-.145.177-.26.375-.394.56-.132.187-.228.395-.345.591-.119.196-.204.408-.3.615-.095.207-.19.414-.259.631l-.223.645-.171.661c-.13.437-.169.893-.257 1.339-.056.45-.088.903-.13 1.354l-.022 1.361.134-.142-13.465.486-13.462.566.144.13-.632-12.912-.689-12.908z" fill="#BE2323"/><path d="M5.757 80.396c1.542-.098 1.542-.098 4.689-.258 1.49-.076 4.16-.43 4.619 1.175.315 1.1.284 2.424.269 3.541-.017 1.116-.054 1.899-.436 2.4-.734.958-1.76 1.292-3.156 1.292-1.39 0-3.002.209-4.45 0-3.105-.512-2.422-2.84-2.658-5.367-.158-1.77-.489-5.59 1.037-5.885l.086 3.102z" fill="#A9B1B0"/><path d="M5.145 77.533c-.988.214-1.308-.51-1.467-1.155-.185-.827-.196-1.73-.188-2.563.008-.34-.04-.76.053-1.102.127-.386.527-.442.961-.469.367-.024.83-.002 1.04.293.238.332.168.912.163 1.28-.009.776.067 1.565.04 2.341-.007.297-.001 1.234-.001 1.234l-.601.141z" fill="#FF7200"/><path d="M5.145 72.796c-.988.214-1.308-.51-1.467-1.155-.185-.828-.196-1.73-.188-2.563.008-.34-.04-.761.053-1.103.127-.384.527-.439.961-.468.367-.025.83-.002 1.04.293.238.331.168.912.163 1.28-.009.776.067 1.565.04 2.342-.007.296-.001 1.234-.001 1.234l-.601.14z" fill="#FED927"/><path d="M116.46 78.008c-1.284.888-2.505-.555-2.327-2.079.104-1.027.682-1.655 1.727-1.658.804-.004.64 1.075.667 1.878.014.445.056 1.454-.066 1.86" fill="#FF7200"/><path d="M102.335 74.96s-.154-.253-.476-.658c-.322-.403-.793-.98-1.457-1.573a14.314 14.314 0 0 0-2.443-1.812c-.492-.261-.992-.555-1.542-.762-.274-.108-.54-.241-.823-.332l-.855-.26-.43-.125-.44-.077c-.294-.05-.586-.101-.874-.152-.581-.083-1.162-.08-1.718-.122-.558-.008-1.096.063-1.605.092-.512.018-.978.168-1.418.235-.435.087-.84.148-1.177.282a711.722 711.722 0 0 0-1.654.55s.286-.071.786-.198l.9-.226c.343-.106.748-.136 1.181-.209.437-.048.9-.176 1.405-.172.502-.008 1.031-.051 1.576-.042.544.05 1.112.053 1.677.143l.85.16.428.08.417.127.838.242c.276.084.538.21.805.313.542.194 1.033.475 1.52.723.471.274.925.548 1.339.833.408.292.794.57 1.123.86.676.561 1.2 1.079 1.545 1.46.35.38.522.62.522.62m8.554-8.869l-3.407-1.403-7.525-3.01-4.02-1.596c-1.276-.525-2.48-.992-3.472-1.464-.237-.116-.504-.245-.648-.37l-.177-.312c-.047-.105-.083-.211-.123-.312a7.794 7.794 0 0 1-.294-1.114 11.9 11.9 0 0 1-.157-1s.013.369.097 1.01c.044.32.104.707.231 1.147.063.232.152.444.28.679.223.224.453.31.7.453 1.981 1.008 4.718 2.108 7.45 3.213l4.042 1.557c1.29.493 2.506.925 3.543 1.307 2.083.744 3.48 1.215 3.48 1.215" fill="#BE2323"/><path d="M116.275 73.412c-.136.138-.285.092-.666.133-1.238.075-1.985-.702-2.44-1.81-.684-1.779-.914-4.982.35-6.588.715-.91 1.684-.745 2.192.125.506.916.47 1.924.643 2.929.215 1.294.245 4.404-.002 5.233l-.077-.022z" fill="#92DDE9"/><path d="M105.422 78.236l.043 7.62 9.458-.297c2.795.043 2.66-2.023 2.652-3.386-.02-3.642-.022-4.247-1.698-4.236-.586.005-10.455.3-10.455.3" fill="#A9B1B0"/><path d="M23.455 53.934l-1.77 5.491-.003.01v.012l-.054 6.501-.03 6.5-.001.201.2-.045a17.621 17.621 0 0 1 2.822-.374 18.073 18.073 0 0 1 2.85.066c.946.098 1.88.283 2.787.557.454.136.896.306 1.332.489.431.196.853.409 1.257.655.4.251.797.51 1.157.817.376.286.706.627 1.035.965l.468.533.42.571c.277.383.515.795.742 1.21.213.424.429.847.59 1.295.189.436.319.894.463 1.348.147.452.228.923.347 1.385.089.468.158.94.238 1.411l.02.112.106-.002c3.874-.084 7.746-.2 11.619-.318-3.875.011-7.75.023-11.623.067l.126.11c-.074-.477-.136-.956-.22-1.432-.112-.47-.188-.95-.332-1.414-.138-.465-.266-.933-.458-1.38-.163-.458-.382-.892-.597-1.329a11.9 11.9 0 0 0-.757-1.247l-.431-.59-.48-.553c-.338-.35-.678-.704-1.064-1.002-.37-.319-.78-.588-1.19-.85a12.282 12.282 0 0 0-1.295-.681 13.87 13.87 0 0 0-1.368-.51 14.573 14.573 0 0 0-2.855-.563 18.413 18.413 0 0 0-2.906-.053 17.9 17.9 0 0 0-2.881.396l.198.156-.03-6.5-.055-6.502-.002.022 1.625-5.535z" fill="#BE2323"/><path d="M23.302 63.526c.018.627.54 1.12 1.168 1.102l5.29-.156a1.135 1.135 0 0 0-.066-2.27l-5.291.154a1.136 1.136 0 0 0-1.1 1.17" fill="#1A393A"/><path d="M16.587 62.892a.418.418 0 0 0-.038-.238c-.038-.071-.072-.156-.136-.209-.057-.059-.116-.123-.18-.18a3.603 3.603 0 0 0-.213-.124 1.516 1.516 0 0 0-.455-.185c-.155-.037-.313-.11-.47-.115-.315-.028-.638-.093-.95-.07-.314.004-.627.03-.94.047h.04a3.144 3.144 0 0 0-1.26.217c-.198.088-.4.209-.532.4a.711.711 0 0 0-.132.306c-.032.106-.004.215.007.314.047-.203.136-.371.28-.474.144-.1.31-.167.491-.198.354-.074.75-.08 1.11-.048h.008l.032-.001c.3-.01.601-.011.901-.034.302-.024.592.012.891.003.153-.007.289.027.436.04.146.016.294.026.425.076.07.02.138.04.212.055l.188.096c.072.028.112.082.166.133a.429.429 0 0 1 .12.189m30.314-27.263l.344 11.726.41 11.725c.313 7.815.596 15.63.96 23.442l.243-.261-9.682.335.233.2c-.152-.95-.408-1.85-.736-2.734a15.43 15.43 0 0 0-1.22-2.541 16.166 16.166 0 0 0-.788-1.17c-.288-.373-.59-.733-.913-1.077a12.795 12.795 0 0 0-1.03-.963 10.455 10.455 0 0 0-1.139-.83c-.39-.264-.81-.48-1.228-.69-.429-.193-.86-.38-1.306-.522-.439-.166-.9-.263-1.35-.38-.46-.085-.916-.189-1.382-.228a13.309 13.309 0 0 0-1.395-.105c-.465-.035-.931.008-1.395.007-.465.02-.928.074-1.391.108l-1.38.199 1.383-.161c.465-.023.927-.063 1.39-.071.463.012.928-.018 1.388.03.463.028.923.063 1.38.14.46.052.908.167 1.359.262.442.127.893.235 1.319.41.435.15.85.345 1.265.545.402.219.81.43 1.186.695.389.243.747.532 1.097.826.351.296.676.62.99.952.309.338.597.694.872 1.06.266.374.519.756.752 1.15.46.794.84 1.632 1.149 2.495.306.859.545 1.76.672 2.647l.03.205.202-.006 9.684-.286.253-.008-.01-.254c-.29-7.815-.664-15.627-1.004-23.44l-.574-11.718-.638-11.714zm65.711 30.017s-1.363-.622-3.43-1.494c-1.038-.427-2.24-.947-3.543-1.465l-4.081-1.623-4.108-1.557a28.625 28.625 0 0 0-1.922-.65c-.614-.197-1.188-.37-1.694-.596-.248-.113-.51-.207-.715-.323a2.54 2.54 0 0 1-.567-.401c-.315-.304-.448-.684-.545-.99a19.706 19.706 0 0 1-.265-.992l.038.267c.029.173.05.43.125.752.074.317.178.731.499 1.099.322.386.787.618 1.305.865.508.257 1.091.466 1.69.69a87.06 87.06 0 0 1 1.882.715l4.082 1.623 4.107 1.557c1.311.498 2.548.925 3.602 1.31a149.75 149.75 0 0 0 3.54 1.213m-10.278 8.145s-.153-.233-.474-.6a12.89 12.89 0 0 0-1.435-1.425 14.553 14.553 0 0 0-1.068-.836c-.384-.29-.823-.552-1.272-.826-.473-.23-.936-.53-1.46-.717l-.775-.317c-.266-.091-.538-.167-.807-.252-.536-.182-1.096-.267-1.641-.372l-.407-.076-.41-.03-.803-.055c-.526-.06-1.037.027-1.518.038-.484.004-.932.108-1.346.174-.412.08-.796.114-1.118.234l-.84.263-.725.239.751-.138.856-.168c.325-.08.71-.072 1.116-.13.41-.037.851-.11 1.324-.082.47.023.965-.025 1.473.043.506.07 1.038.07 1.56.2.525.109 1.062.196 1.577.377.26.079.523.149.78.233l.752.298c.507.179.968.442 1.433.653.442.258.89.476 1.283.736.398.25.77.497 1.097.748a17.41 17.41 0 0 1 2.097 1.788" fill="#FFA5A5"/><path d="M78.78 55.37c-.003 0-.037.02-.135.027-.089.005-.179.005-.269.006l-4.592.1-23.623.517a8.15 8.15 0 0 1-.236.004c-.205 0-.495-.014-.656-.137a.3.3 0 0 1-.065-.066c-.073-.097-.079-.286-.084-.453l-.003-.083c-.006-.17-.006-.34-.007-.51 0-.158 0-.314-.005-.47l-.552-17.247a8.475 8.475 0 0 0-.013-.255c-.034-.554-.03-.901.318-1.056.323-.143.719-.163 1.098-.163l.572.005 2.31-.056 13.483-.348c.115-.004.24-.015.368-.026.146-.012.299-.025.448-.025.327 0 .53.07.656.227.156.194.284.447.407.693.058.116.116.23.176.339l10.193 18.42c.218.393.226.517.21.556m-28.854 1.194c.087 0 .173-.002.252-.005l28.204-.616c.1 0 .2-.001.299-.007.348-.023.503-.18.572-.308.19-.348-.06-.803-.212-1.076l-10.19-18.42a8.886 8.886 0 0 1-.167-.32c-.136-.27-.278-.55-.469-.789-.31-.383-.763-.427-1.076-.427-.165 0-.333.014-.495.028-.116.01-.23.02-.336.023l-15.778.403-.572-.005c-.439 0-.902.026-1.317.21-.715.32-.67 1.049-.637 1.582.006.082.01.162.012.24l.552 17.245c.005.151.005.302.005.454 0 .177 0 .355.007.532l.003.077c.007.235.017.526.19.76a.821.821 0 0 0 .173.173c.286.218.674.246.98.246m-6.128-20.782c.183 0 .312.023.405.073.189.1.192.35.175.719-.006.104-.01.204-.008.294l.58 18.14c.013.379.024.737-.187.987-.178.18-.435.181-.682.182l-3.812.097-14.896.396c-.23.01-.437.003-.559-.072-.186-.113-.161-.35-.044-.774.092-.33.188-.66.285-.99l5.283-18.354c.048-.174.074-.239.125-.254.265-.084.546-.101.885-.101l.37.001.223-.002 11.586-.332a4.8 4.8 0 0 1 .271-.01M25.18 57.213c.071 0 .145-.003.217-.006l5.243-.14 13.442-.352c.322 0 .723-.003 1.013-.288.03-.03.056-.057.08-.087.344-.407.326-.93.314-1.35l-.58-18.14c-.003-.078.002-.163.006-.252.017-.38.045-.952-.46-1.22-.229-.122-.485-.136-.658-.136-.101 0-.202.006-.3.01l-2.078.063-9.702.271-.37-.001c-.314 0-.68.01-1.046.125-.343.108-.428.42-.484.627l-.285.992-4.996 17.355c-.097.33-.193.662-.286.995-.1.362-.285 1.034.283 1.379.226.138.465.155.647.155m-5.451-.281l-3.646.083-5.644.132c-.408 0-.735-.061-.999-.188-.106-.05-.172-.112-.195-.183-.03-.089-.004-.217.071-.361.38-.72.735-1.453 1.09-2.186.157-.322.314-.645.472-.966L18.88 37.01c.206-.426.314-.613.685-.616l1.763-.034c.884-.019 1.768-.037 2.65-.045l.58-.005c.283-.003.604-.006.914-.006.759 0 1.084.022 1.22.043.09.348-.358 1.75-.53 2.29-.07.22-.13.407-.168.543a53.807 53.807 0 0 1-.639 2.052c-.225.695-.452 1.39-.647 2.085L21.14 55.964c-.084.301-.185.61-.396.787-.209.158-.395.186-.654.186l-.362-.005zm-9.29.754l2.402-.056 6.888-.16.362.006c.307 0 .635-.034.955-.277.373-.31.51-.723.615-1.088l3.566-12.65c.194-.687.417-1.375.642-2.064.224-.691.449-1.382.644-2.073.036-.13.094-.312.162-.524.484-1.519.691-2.361.477-2.749a.427.427 0 0 0-.27-.216c-.192-.05-.613-.071-1.41-.071-.312 0-.636.003-.92.006l-.575.005c-.888.007-1.775.026-2.66.045l-1.754.034c-.724.005-.97.512-1.167.92l-8.001 16.251c-.16.322-.316.645-.473.97-.353.726-.706 1.454-1.083 2.17-.146.279-.182.549-.105.781.05.148.17.355.472.5.34.16.743.24 1.233.24zm80.614-2.032l.027-.539c-.269-.013-6.392-.311-8.126-.329L71.53 35.631c-.206-.327-.313-.544-.318-.645.01.003.032 0 .062-.002l3.429-.027-.004-.539-3.428.027c-.324.003-.47.147-.536.268-.181.331.058.759.34 1.205l.786 1.315 10.787 18.091h.153c1.472 0 8.184.327 8.252.33" fill="#BE2323"/><path d="M79.055 56.717c-.145 1.59.718 2.97 1.929 3.082 1.21.111 2.31-1.089 2.456-2.68l.547-5.955c.146-1.59-.717-2.97-1.928-3.082-1.211-.11-2.31 1.088-2.457 2.68l-.547 5.955z" fill="#1A393A"/></g></svg>