<svg width="120" height="120" viewBox="0 0 120 120" xmlns="http://www.w3.org/2000/svg" xmlns:xlink="http://www.w3.org/1999/xlink"><defs><path id="a" d="M0 .133h69.398v119.715H0z"/><path id="c" d="M0 .038h30.925V39.81H.001z"/></defs><g fill="none" fill-rule="evenodd"><g transform="matrix(-1 0 0 1 112 .02)"><mask id="b" fill="#fff"><use xlink:href="#a"/></mask><path d="M30.75 15.581c3.397-7.43-.493-13.205-4.425-14.8-3.933-1.596-9.539-.437-12.334 5.668-2.49 5.437-.494 9.411 2.723 11.622.213.147.435.288.663.42-.233 2.92-.168 11.44-.098 16.878-3.626-.667-7.475-.23-10.464 1.635C2.105 39.94-.36 47.216.042 53.42c.41 6.316 8.906 8.47 13.636 9.27 3.685.624 3.584 1.958 2.753 5.055-1.154 4.307-1.95 14.472-4.564 19.6-3.819 7.5-9.444 9.67-8.524 11.858 2.375 5.654 14.544 3.014 21.343 4.93 4.651 1.31 6.48 4.797 15.57 5.126 6.01.217 12.25 3.812 16.907 4.822 6.807 1.476 9.764 6.104 11.648 5.746 2.293-.433-2.608-9.393-6.45-11.85-7.386-4.722-17.295-14.605-23.902-14.18-9.612.616-8.561-2.461-10.463-6.841-1.605-3.694 7.803-31.996-.075-44.057l-.002-.003c3.173-4.69 8.53-12.581 10.639-15.472 4.169 1.543 9.433.867 11.55-3.767 3.398-7.43-.491-13.205-4.424-14.8-3.933-1.596-9.539-.437-12.335 5.667-2.122 4.635-.984 8.208 1.39 10.53-1.48 2.034-5.652 10.296-8.215 15.467-1.589-2.01-3.974-3.55-6.653-4.472.54-5.226 1.458-13.537 1.765-16.079 3.599.526 7.394-.627 9.115-4.39" fill="#A68E5D" mask="url(#b)"/></g><path d="M65.145 21.922c-2.398-5.247.349-9.323 3.125-10.45 2.775-1.126 6.734-.307 8.707 4.002 1.758 3.839.35 6.645-1.922 8.206-3.007 2.068-8.094 2.212-9.91-1.758m19.358-8.077c-2.398-5.247.349-9.323 3.124-10.45 2.777-1.126 6.736-.308 8.709 4.002 1.758 3.839.348 6.645-1.922 8.206-3.007 2.068-8.095 2.213-9.911-1.758m21.217 33.39s-8.028 4.173-14.533 6.04c2.137 3.018 6.023 6.606 11.526 4.295 4.95-2.081 4.42-6.698 3.008-10.335" fill="#FFF"/><path d="M95.09 57.086c2.032 1.236 4.58 1.762 7.623.484 2.453-1.032 3.56-2.686 3.881-4.534-5.064-2.113-9.175 1.283-11.504 4.05" fill="#F96"/><g transform="matrix(-1 0 0 1 39.033 47.32)"><mask id="d" fill="#fff"><use xlink:href="#c"/></mask><path d="M9.28 38.884C14.564 21.311 10.223 9.801 0 2.006c0 0 6.505-6.06 16.664 3.088 4.445 4.001 5.513 4.696 8.113 5.454 6.518 1.903 7.978-.663 3.783 6.636-2.16 3.759-3.237 7.42-5.232 12.195-2.461 5.895-5.84 13-14.047 9.505" fill="#80A13D" mask="url(#d)"/></g><path d="M80.433 64.228c4.84 8.765 12.079 23.268-5.565 37.693-16.685 13.64-34.594 7.816-43.466-7.86-8.874-15.675-8.403-33.283 2.468-43.267 15.3-14.05 38.065-1.962 46.563 13.434" fill="#80A13D"/><path d="M53.804 80.685a2.354 2.354 0 0 1-.224-3.313 2.333 2.333 0 0 1 3.3-.224c.816.713 1.471 1.413 1.982 2.09 1.41 1.871 1.89 3.703 1.802 5.344-.09 1.701-.798 3.148-1.728 4.22a7.21 7.21 0 0 1-1.083 1.027c-1.624 1.235-3.572 1.42-5.513.735-1.656-.58-3.297-1.834-4.628-3.597-2.37-3.145-3.627-6.717-3.74-9.944-.124-3.52 1.086-6.677 3.658-8.63 2.57-1.955 5.925-2.267 9.265-1.193 3.064.986 6.145 3.17 8.517 6.314 3.36 4.457 4.868 9.092 4.794 13.272-.082 4.62-2.073 8.665-5.63 11.368-3.555 2.704-7.975 3.529-12.424 2.354-4.026-1.063-8.059-3.779-11.42-8.236-4.547-6.031-6.926-12.73-6.844-18.901h-.008c.082-6.134 2.568-11.716 7.73-15.639 2.325-1.768 5.278-2.613 8.489-2.615 3.569-.004 7.498 1.045 11.216 3.026a30.44 30.44 0 0 1 9.918 8.488c3.569 4.733 5.942 10.8 5.95 17.936a2.347 2.347 0 0 1-2.339 2.355 2.346 2.346 0 0 1-2.344-2.347c-.006-6.012-2.003-11.117-5.006-15.101a25.72 25.72 0 0 0-8.384-7.185c-3.036-1.619-6.189-2.474-9.004-2.472-2.205.003-4.182.542-5.666 1.67-3.921 2.98-5.81 7.246-5.873 11.944h-.008v.006c-.07 5.117 1.986 10.786 5.913 15.993 2.694 3.575 5.82 5.724 8.868 6.53 3.031.8 6.022.252 8.406-1.56 2.386-1.813 3.723-4.554 3.778-7.7.055-3.166-1.156-6.769-3.852-10.344-1.78-2.363-4.022-3.979-6.203-4.68-1.905-.613-3.726-.504-5.01.47-1.28.975-1.88 2.706-1.81 4.713.08 2.298 1.022 4.903 2.803 7.266.774 1.027 1.639 1.727 2.442 2.008.448.158.853.152 1.129-.057a2.65 2.65 0 0 0 .39-.362c.312-.359.55-.84.578-1.386.033-.609-.201-1.362-.867-2.248a9.367 9.367 0 0 0-1.32-1.395" fill="#56422C"/><path d="M91.944 8.46a2.346 2.346 0 0 1 2.662 1.983 2.352 2.352 0 0 1-1.974 2.673 2.346 2.346 0 0 1-2.663-1.982 2.353 2.353 0 0 1 1.975-2.674m-19.188 7.615a2.346 2.346 0 0 1 2.662 1.984 2.352 2.352 0 0 1-1.974 2.673 2.346 2.346 0 0 1-2.663-1.983 2.354 2.354 0 0 1 1.975-2.674" fill="#000"/></g></svg>