<svg width="480" height="360" viewBox="0 0 480 360" xmlns="http://www.w3.org/2000/svg" xmlns:xlink="http://www.w3.org/1999/xlink"><defs><path id="a" d="M.058 0H480v480H.058z"/><path d="M.058 103.017V.085A24.709 24.709 0 0 0 5.812 1.39v.134h465.03v-.012A24.803 24.803 0 0 0 480 .065v102.952H.058z" id="c"/><path id="e" d="M.058 0H480v194.484H.058z"/><path id="g" d="M.058.52h104.35v124.542H.059z"/><path id="i" d="M.427.236H45.12v124.02H.427z"/><path id="k" d="M.058.723h52.378v35.03H.058z"/><path id="m" d="M.058.385h40.796v23.287H.058z"/><path id="o" d="M.738.592H40.32v32.27H.738z"/><path id="q" d="M.849.334H29.76v21.453H.849z"/></defs><g fill="none" fill-rule="evenodd"><mask id="b" fill="#fff"><use xlink:href="#a"/></mask><path fill="#BEE3EB" mask="url(#b)" d="M.058 480H480V0H.058z"/><path d="M487.338 167.517v-.004a5.891 5.891 0 0 0 1.18-.128c11.719-1.244 20.848-11.16 20.848-23.208 0-9.717-5.938-18.046-14.384-21.56-.08-10.7-7.362-19.686-17.24-22.354.439-1.787.673-3.656.673-5.58 0-12.891-10.45-23.34-23.34-23.34-3.226 0-6.298.653-9.092 1.836-3.762-8.188-11.899-14.122-21.332-14.573-13.01-.622-23.558 9.422-23.558 22.431 0 .92.055 1.83.157 2.726-3.745-2.688-8.248-4.367-13.094-4.599-11.895-.568-21.728 7.776-23.328 19.152-5.03-3.548-11.05-5.761-17.521-6.072-8.363-.399-15.973 2.453-21.665 7.441-5.43-10.144-15.935-17.348-28.01-17.925-9.356-.447-17.774 3.175-23.613 9.308-3.996-7.513-11.764-12.853-20.694-13.28-12.42-.593-22.593 8.53-23.493 20.676a24.108 24.108 0 0 0-4.892-.744c-6.65-.317-12.653 2.15-16.937 6.377-5.071-11.173-16.14-19.282-28.981-19.895a31.204 31.204 0 0 0-10.674 1.319c-4.248-4.364-10.063-7.206-16.479-7.513a24.41 24.41 0 0 0-.973-.027 24.168 24.168 0 0 0-.975-.066c-6.415-.307-12.231 1.981-16.48 5.937a32.735 32.735 0 0 0-10.672-2.34c-12.842-.613-23.91 6.438-28.98 17.125-4.284-4.635-10.29-7.677-16.937-7.995a23.403 23.403 0 0 0-4.893.276c-.9-12.232-11.074-22.328-23.493-22.921-8.422-.403-15.81 3.663-19.975 10.109-4.213-6.084-11.24-10.069-19.2-10.069-12.891 0-23.34 10.45-23.34 23.34 0 3.042.582 5.947 1.641 8.612-7.885 3.747-13.337 10.052-13.337 21.093 0 2.279.271 5.589.813 9.407a23.228 23.228 0 0 0-4.435 13.688c0 12.6 9.986 22.868 22.475 23.323l.223.013-.002.004h494.01" fill="#FFFFFE" mask="url(#b)"/><path d="M465.237 145.61c-4.488-9.533-14.18-16.132-25.415-16.132-7.973 0-15.168 3.323-20.279 8.658a37.935 37.935 0 0 0-14.405-2.824c-15.306 0-28.498 9.036-34.542 22.062-5.105-5.28-12.262-8.564-20.186-8.564-2 0-3.95.21-5.832.608-1.072-14.527-13.198-25.981-28-25.981-10.643 0-19.902 5.921-24.664 14.648-6.961-7.642-16.993-12.438-28.145-12.438-14.39 0-26.913 7.986-33.383 19.768-6.785-6.27-15.856-10.103-25.822-10.103a37.884 37.884 0 0 0-20.882 6.239c-1.909-13.65-13.629-24.156-27.805-24.156a27.951 27.951 0 0 0-15.608 4.734c.123-1.062.188-2.142.188-3.238 0-15.508-12.57-28.078-28.078-28.078-11.465 0-21.323 6.872-25.684 16.72a37.905 37.905 0 0 0-16.25-3.636c-15.919 0-29.552 9.776-35.233 23.649a24.74 24.74 0 0 0-11.119-2.622c-12.596 0-23.002 9.373-24.626 21.525-9.304 3.591-15.905 12.617-15.905 23.188 0 12.845 9.748 23.413 22.25 24.713v.134h465.03v-.012c.248.008.498.012.748.012 13.723 0 24.848-11.124 24.848-24.847s-11.125-24.848-24.848-24.848c-2.196 0-4.324.286-6.353.82" fill="#FFFFFE" mask="url(#b)"/><path d="M170.611 156.085a2.415 2.415 0 1 0 2.161 4.321c2.396-1.198 6.297-3.792 10.358-9.022 2.696-3.472 5.502-8.15 8.033-14.423a2.419 2.419 0 1 0-4.492-1.8c-2.332 5.78-4.904 10.072-7.37 13.248-3.52 4.533-6.74 6.701-8.69 7.676" fill="#5E453B"/><path d="M172.63 183.192a2.415 2.415 0 1 0 4.073-2.597c-2.225-3.478-3.3-10.147-3.353-17.998-.058-8.493 1.11-18.225 3.339-26.818a2.419 2.419 0 0 0-4.681-1.214c-2.33 8.984-3.551 19.164-3.49 28.05.058 8.709 1.374 16.301 4.111 20.577" fill="#5E453B"/><path d="M180.053 143.355h.007l.047.01c.11.02.222.038.335.055l.01.002.016.002c.105.016.21.032.315.046l.038.006.015.002c.106.014.211.028.318.04l.04.005h.013l.003.002c.115.012.23.025.346.036l.013.002h.011c.118.012.235.022.353.03l.015.003h.01c.123.01.246.018.37.025h.009c.124.008.25.014.376.019h.005c.125.005.25.009.374.01l.008.002h.005l.384.002c8.325 0 15.074-5.135 15.074-11.469l-.004-.256-.003-.068-.013-.256-.003-.031-.02-.25-.003-.03c-.008-.086-.019-.172-.03-.259l-.007-.052-.037-.246-.001-.012-.002-.01-.044-.241-.013-.06-.055-.253-.004-.018-.064-.254-.006-.021-.072-.25-.015-.052-.076-.236-.003-.011v-.001l-.003-.005-.085-.24-.018-.049-.093-.238-.016-.038-.086-.203-.025-.057-.105-.225-.024-.05-.116-.233-.002-.002-.008-.017-.11-.205-.034-.062-.127-.22-.016-.026-.125-.205-.03-.045-.135-.208-.04-.062-.137-.196-.01-.013-.002-.003-.157-.214-.036-.046-.162-.21-.022-.027-.149-.18-.042-.051-.164-.19-.052-.06-.15-.163-.026-.03-.003-.002-.016-.017-.163-.17-.058-.059-.188-.186-.02-.021-.181-.171-.048-.044-.202-.18-.04-.035-.186-.161-.052-.044-.188-.153-.067-.053-.21-.164-.041-.03-.184-.138-.072-.052-.208-.148-.076-.052-.198-.133-.026-.018-.007-.004-.225-.145-.085-.054-.22-.134-.076-.045-.192-.113-.061-.034-.24-.134-.076-.041-.229-.12-.027-.014-.007-.004.068-.16.016-.042.091-.231.014-.037.083-.235.015-.041.078-.244.006-.023a6.62 6.62 0 0 0 .075-.26l.004-.017c.024-.089.047-.18.068-.27l.002-.007c.021-.09.041-.18.06-.272l.002-.008.002-.016a8.53 8.53 0 0 0 .048-.265l.002-.008c.016-.093.03-.188.043-.284v-.001l.002-.011c.012-.092.023-.185.032-.278v-.001l.001-.008c.009-.095.017-.19.023-.285l.001-.005a9.17 9.17 0 0 0 .014-.283v-.012a9.68 9.68 0 0 0 .005-.29c0-6.334-6.748-11.469-15.074-11.469-.112 0-.225.001-.337.003l-.114.003a14.71 14.71 0 0 0-.29.009h-.049c-.118.005-.237.011-.355.018l-.055.004c-.1.006-.198.012-.297.02l-.084.007a8.322 8.322 0 0 0-.276.023l-.082.007c-.105.01-.211.022-.316.034l-.105.012-.243.031-.105.015c-.103.014-.207.028-.31.045l-.019.003-.047.007-.276.046-.096.017-.242.045-.094.017c-.101.021-.203.041-.304.063l-.1.022-.222.05-.108.026-.29.071-.018.005h-.001l-.013.003-.298.08-.092.027-.23.066-.082.025c-.097.029-.194.058-.29.09l-.115.037-.178.059-.13.044-.192.07-.11.039-.252.095-.122.048-.175.07-.112.046-.224.096-.142.062-.162.073-.138.064-.133.063-.127.061-.245.122-.113.06-.135.07-.138.075-.142.079-.197.112-.123.073-.15.088-.088.055-.15.094h-.002l-.2.13-.132.088-.093.063-.15.104-.047.033c-.107.074-.211.151-.315.229l-.035.026-.14.106-.078.06-.132.107-.065.052-.238.199-.083.071-.125.11-.058.052-.132.12-.164.155-.004.005-.112.11-.071.07-.125.126-.026.027c-.145.15-.287.305-.423.462l-.015.018c-.133.153-.26.309-.385.468l-.033.043-.114.15-.026.037a9.492 9.492 0 0 0-.334.479l-.034.052-.097.151-.002.003h-.14c-8.324 0-15.073 5.134-15.073 11.468 0 .088.002.176.005.263l.003.085.01.193.004.073c.006.088.013.175.022.263l.002.026.029.242.008.064.031.206.01.065.047.248.014.071.042.193.018.073.052.208.013.051.071.248.02.063.06.187.026.078.077.22.008.02.004.012.09.23.035.083.069.161.036.083.108.231v.004l.01.017.105.21.044.085.078.146.052.095.122.21.036.06.104.17.048.075.102.156.049.075.145.207.049.068.105.145.065.087.122.156.04.052.169.205.057.067.121.139.065.073.126.14.107.113.13.138.087.086.105.105.094.09.13.122.127.119.13.117.092.08.125.107.09.077.202.164.087.068.126.1.112.084.14.104.084.062.21.149.122.084.12.08.116.077.125.08.117.075.208.128.007.004.139.082.122.071.124.071.16.09.176.094.148.078.15.076.113.058.152.074.128.06c.09.043.183.086.276.128l.084.037.17.075.127.054.139.057.202.082.193.075.142.054.152.055.134.047.159.056c1.55 5.08 7.536 8.865 14.683 8.865 2.816 0 5.45-.589 7.705-1.611" fill="#365532"/><path d="M183.218 108.436a19.232 19.232 0 0 0-5.965-.824l-.114.003a14.71 14.71 0 0 0-.29.009h-.049c-.118.005-.237.011-.355.018l-.055.004c-.1.006-.198.012-.297.02l-.084.007a8.322 8.322 0 0 0-.276.023l-.082.007c-.105.01-.211.022-.316.034l-.105.012-.243.031-.105.015c-.103.014-.207.028-.31.045l-.019.003-.047.007-.276.046-.096.017-.242.045-.094.017c-.101.021-.203.041-.304.063l-.1.022-.222.05-.108.026-.29.071-.018.005h-.001l-.013.003-.298.08-.092.027-.23.066-.082.025c-.097.029-.194.058-.29.09l-.115.037-.178.059-.13.044-.192.07-.11.039-.252.095-.122.048-.175.07-.112.046-.224.096-.142.062-.162.073-.138.064-.133.063-.127.061-.245.122-.113.06-.135.07-.138.075-.142.079-.197.112-.123.073-.15.088-.088.055-.15.094h-.002l-.2.13-.132.088-.093.063-.15.104-.047.033c-.107.074-.211.151-.315.229l-.035.026-.14.106-.078.06-.132.107-.065.052-.238.199-.083.071-.125.11-.058.052-.132.12-.164.155-.004.005-.112.11-.071.07-.125.126-.026.027c-.145.15-.287.305-.423.462l-.015.018c-.133.153-.26.309-.385.468l-.033.043-.114.15-.026.037a9.492 9.492 0 0 0-.334.479l-.034.052-.097.151-.002.003h-.14c-8.324 0-15.073 5.134-15.073 11.468 0 .088.002.176.005.263l.003.085.01.193.004.073c.006.088.013.175.022.263l.002.026.029.242.008.064.031.206.01.065.047.248.014.071.042.193.018.073.052.208.013.051.071.248.02.063.06.187.026.078.077.22.008.02.004.012.09.23.035.083.069.161.036.083.108.231v.004l.01.017.105.21.044.085.078.146.052.095.122.21.036.06.104.17.048.075.102.156.049.075.145.207.049.068.105.145.065.087.122.156.04.052.169.205.057.067.121.139.065.073.126.14.107.113.13.138.087.086.105.105.094.09.13.122.127.119.13.117.092.08.125.107.09.077.202.164.087.068.126.1.112.084.14.104.084.062.21.149.122.084.12.08.116.077.125.08.117.075.208.128.007.004.139.082.122.071.124.071.16.09.176.094.148.078.15.076.113.058.152.074.128.06c.09.043.183.086.276.128l.084.037.17.075.127.054.139.057.202.082.193.075.142.054.152.055.134.047.159.056c.388 1.275 1.058 2.468 1.953 3.54 1.739.533 3.638.826 5.628.826 2.815 0 5.45-.587 7.705-1.61l.006.001.047.009c.112.02.223.037.336.056h.01l.016.003c.105.017.21.032.315.046l.038.006.015.001c.106.015.211.028.318.04l.04.005.013.002h.003c.115.014.23.026.346.037l.013.002h.011c.117.012.235.023.353.031l.015.001.01.001c.123.01.246.018.37.025l.008.001c.125.007.251.013.377.017l.005.001.374.011h.013c.127.003.256.004.384.004 8.325 0 15.073-5.135 15.073-11.47l-.003-.256-.003-.068-.013-.256-.002-.03-.02-.252-.004-.028a7.696 7.696 0 0 0-.03-.26l-.007-.051-.037-.248-.001-.011-.002-.01-.045-.241-.012-.06-.055-.253-.005-.017-.063-.255-.006-.02-.072-.252-.015-.05-.075-.236-.004-.012v-.002l-.003-.004-.085-.24-.018-.049-.092-.239-.017-.036-.086-.205-.025-.055-.105-.227-.024-.049-.104-.21-.012-.023-.002-.002-.008-.016-.11-.206-.035-.061-.126-.221-.017-.027-.124-.203-.03-.046-.135-.209-.042-.06-.135-.196-.01-.015-.002-.002-.157-.214-.036-.047-.162-.21-.022-.026-.149-.181-.042-.051-.163-.19-.053-.058-.15-.165-.026-.028-.003-.004-.016-.016-.163-.17-.058-.058-.188-.188-.02-.02-.181-.17-.048-.045-.202-.18-.04-.036-.187-.16-.051-.043-.188-.154-.067-.054-.21-.163-.041-.031-.184-.137-.072-.053-.208-.146-.076-.052-.198-.135-.026-.017-.007-.005-.226-.145-.083-.053-.22-.134-.077-.046-.192-.111-.061-.036-.24-.132-.076-.042-.229-.12-.027-.014-.007-.004.068-.16.016-.042.091-.232.014-.035.084-.237.014-.04.078-.245.006-.022a8.11 8.11 0 0 0 .075-.26l.004-.016c.025-.09.047-.18.07-.27v-.008c.021-.09.041-.18.06-.271l.001-.009.003-.016c.018-.088.034-.176.05-.265v-.008a9.14 9.14 0 0 0 .043-.283v-.002l.001-.01c.013-.094.023-.186.033-.279v-.001l.001-.009c.009-.094.016-.189.023-.284l.001-.005c.006-.094.01-.188.014-.283v-.011c.003-.097.005-.194.005-.291 0-2.26-.86-4.367-2.344-6.144" fill="#416A3D"/><path d="M131.056 152.318a2.991 2.991 0 0 0 1.1-5.879c-2.496-.475-6.34-2.29-9.144-5.499-1.91-2.188-3.291-5.051-3.291-8.6a2.998 2.998 0 0 0-5.997 0c0 5.18 2.009 9.35 4.792 12.536 3.772 4.318 9.066 6.781 12.54 7.442" fill="#5E453B"/><path d="M121.822 186.255a2.988 2.988 0 0 0 5.973-.187c-.102-2.882-.24-5.28-.367-7.49-.557-9.676-.901-15.66 3.789-22.627 2.426-3.605 4.87-5.348 7.687-7.356 4.295-3.062 9.35-6.667 16.388-17.03a2.986 2.986 0 0 0-4.943-3.35c-6.417 9.453-11.01 12.727-14.911 15.509-3.288 2.344-6.144 4.38-9.187 8.9-5.811 8.635-5.423 15.378-4.796 26.282.134 2.316.279 4.828.367 7.35" fill="#5E453B"/><path d="M115.763 138.133c3.148 2.422 7.264 3.887 11.768 3.887 5.443 0 10.32-2.14 13.608-5.52 3.043 2.102 6.877 3.356 11.042 3.356 9.9 0 17.926-7.081 17.926-15.817 0-8.657-7.88-15.688-17.657-15.814.023-.332.036-.665.036-1.002 0-8.735-8.025-15.817-17.926-15.817-6.233 0-11.722 2.808-14.934 7.068a20.965 20.965 0 0 0-1.234-.038c-7.883 0-14.576 4.49-16.978 10.728-5.97 2.567-10.086 7.973-10.086 14.228 0 8.736 8.025 15.817 17.926 15.817 2.296 0 4.49-.381 6.509-1.076" fill="#578D44"/><path d="M113.014 131.99c2.574 1.978 5.939 3.177 9.62 3.177 4.45 0 8.438-1.751 11.125-4.514 2.488 1.72 5.621 2.744 9.027 2.744 8.092 0 14.654-5.789 14.654-12.93 0-7.077-6.443-12.824-14.435-12.928.02-.27.03-.543.03-.818 0-7.141-6.56-12.93-14.654-12.93-1.462 0-2.875.19-4.209.542a17.05 17.05 0 0 0-4.546 4.14 20.064 20.064 0 0 0-2.533.005c-.328.35-.635.713-.92 1.09a17.75 17.75 0 0 0-1.009-.03c-2.073 0-4.045.38-5.832 1.065-3.681 1.906-6.523 4.938-7.918 8.561-2.877 1.237-5.323 3.133-7.085 5.466a11.605 11.605 0 0 0-1.29 5.309c0 7.14 6.561 12.929 14.655 12.929 1.877 0 3.67-.312 5.32-.879" fill="#70B053"/><path d="M341.163 149.865a2.57 2.57 0 1 0 .946-5.055 9.827 9.827 0 0 1-4.983-2.547c-1.898-1.786-3.7-4.762-4.729-9.724a2.57 2.57 0 1 0-5.034 1.047c1.279 6.163 3.676 10.01 6.239 12.422a14.91 14.91 0 0 0 7.56 3.857" fill="#5E453B"/><path d="M346.405 124.895a2.57 2.57 0 1 0-5.113-.524c-.5 4.74-1.248 12.858-1.5 21.904-.252 9.079.004 19.06 1.53 27.449a2.568 2.568 0 1 0 5.054-.907c-1.453-7.988-1.693-17.61-1.449-26.4.245-8.82.985-16.832 1.478-21.522" fill="#5E453B"/><path d="M332.169 111.228c-8.088 0-14.645 4.99-14.645 11.144 0 4.531 3.554 8.43 8.657 10.172 1.506 4.935 7.321 8.612 14.266 8.612 5.894 0 10.974-2.65 13.298-6.469.649.066 1.311.102 1.984.102 8.088 0 14.645-4.99 14.645-11.144 0-5.132-4.56-9.452-10.765-10.746-1.768-4.644-7.397-8.037-14.069-8.037-5.842 0-10.885 2.602-13.235 6.367h-.136" fill="#578D44"/><path d="M332.169 111.228c-8.088 0-14.645 4.99-14.645 11.144 0 1.07.198 2.104.567 3.082.783.425 1.623.794 2.51 1.096.619 2.029 1.967 3.844 3.82 5.28.563.266 1.15.506 1.76.714.057.186.121.37.19.552 2.395 1.301 5.327 2.066 8.495 2.066 5.895 0 10.975-2.65 13.298-6.47.65.068 1.312.103 1.984.103 8.088 0 14.646-4.989 14.646-11.143 0-1.07-.198-2.104-.568-3.082a16.902 16.902 0 0 0-4.617-1.671c-1.768-4.644-7.397-8.037-14.069-8.037-5.842 0-10.885 2.602-13.235 6.367h-.136" fill="#70B053"/><path d="M394.188 156.333a3.335 3.335 0 0 0 0-6.67c-2.331 0-6.605-1.922-10.185-6.47-2.641-3.354-4.788-8.088-5.387-14.48a3.323 3.323 0 1 0-6.619.6c.737 7.867 3.438 13.768 6.767 17.998 4.995 6.344 11.614 9.022 15.424 9.022" fill="#5E453B"/><path d="M388.372 181.936a3.325 3.325 0 1 0 5.785 3.284c2.762-4.857 3.818-13.987 3.594-24.116-.239-10.856-1.907-23.066-4.47-32.294a3.326 3.326 0 0 0-6.41 1.771c2.427 8.743 4.007 20.332 4.235 30.654.2 9.046-.598 16.945-2.734 20.701" fill="#5E453B"/><path d="M400.867 99.193l.133.168-.133-.168m-18.49 36.476l-.004.001-.083.014a15.46 15.46 0 0 1-.358.06l-.069.01c-.122.02-.245.037-.368.054l-.044.007-.019.002c-.128.017-.254.034-.383.049l-.048.006-.016.002-.425.045h-.011l-.015.002c-.143.014-.287.026-.43.037l-.012.001-.01.001-.426.029-.024.002h-.024c-.146.01-.292.016-.439.022h-.005c-.152.006-.304.01-.456.013h-.011c-.155.003-.31.005-.464.005-10.038 0-18.176-6.192-18.176-13.83 0-.105 0-.209.004-.313l.003-.084c.004-.099.008-.199.015-.298l.005-.06c.005-.09.013-.18.022-.269l.005-.058c.01-.1.022-.2.035-.3l.01-.076c.014-.097.027-.193.044-.29l.002-.014v-.001l.002-.012c.017-.1.036-.198.055-.297l.012-.058c.02-.102.042-.203.066-.305l.01-.045c.024-.094.047-.188.072-.28l.01-.042c.027-.1.056-.199.086-.298l.018-.058c.03-.1.061-.199.095-.298l.002-.004c.031-.096.066-.19.1-.286l.027-.073c.036-.092.071-.184.109-.276l.025-.06.103-.24.026-.062c.04-.087.08-.175.122-.262l.042-.087.117-.233.016-.033.002-.003.01-.02.135-.25.038-.07.146-.254.045-.075.131-.213.036-.058.163-.249.053-.078.163-.235.011-.016.003-.004.183-.25.054-.07.186-.24.043-.052.165-.202.054-.065.197-.229.06-.068.17-.185.091-.097.169-.177.08-.082.215-.211.049-.048.19-.181.073-.067.22-.198.09-.079.189-.162.081-.068.218-.179.087-.069.195-.151.163-.123.141-.106.108-.079.245-.173.103-.071.195-.132.132-.087.222-.142.092-.059a23.9 23.9 0 0 1 .262-.161l.11-.065.2-.117.118-.067.251-.139.127-.068.233-.124.066-.034-.08-.188-.025-.062a8.767 8.767 0 0 1-.103-.263l-.025-.066a12.362 12.362 0 0 1-.1-.284l-.01-.028a8.029 8.029 0 0 1-.097-.304l-.01-.033a12.51 12.51 0 0 1-.09-.31l-.001-.007-.007-.025c-.027-.1-.05-.199-.075-.298l-.008-.037-.069-.315-.002-.012a17.807 17.807 0 0 1-.06-.326l-.003-.013-.003-.017a10.86 10.86 0 0 1-.088-.665l-.002-.015v-.015a12.05 12.05 0 0 1-.029-.325v-.025c-.008-.112-.013-.223-.018-.334v-.017a10.561 10.561 0 0 1-.006-.35c0-7.638 8.138-13.83 18.178-13.83.143 0 .286.002.429.004l.097.003c.116.002.232.005.348.01l.087.002c.137.006.273.012.41.02l.1.006.325.022.122.01c.113.009.227.018.34.029l.056.006.026.001c.13.014.259.027.386.043l.11.012.323.041.09.012c.131.018.262.036.393.058l.095.014.323.054.092.016c.115.02.23.042.344.064l.062.012.4.082.067.015.293.066.154.037.33.081.027.007h.001l.015.005c.122.03.244.063.366.098l.095.026.275.08.127.037c.11.033.221.068.332.103l.15.05.198.066.175.06.224.08.11.04c.11.038.218.08.325.122l.146.058.198.078.153.063c.101.042.203.085.303.13l.13.057.193.086.171.08.16.076.161.077c.097.048.194.096.29.146l.12.062.202.106.124.068.209.115.195.111.185.108.15.091.148.09.143.09.176.112.242.16.115.078.163.112.116.082.145.103.225.168.01.007.152.117.117.09.15.119.088.073c.099.08.195.162.292.244l.072.063.165.144.073.065.154.14.198.187.144.142.083.082.142.145.059.06c.162.17.32.341.473.517l.059.068.137.161.167.205.133.168.044.057.128.169.061.082c.083.114.165.23.245.346l.014.02.12.18.044.068.117.184h.171c10.038 0 18.176 6.192 18.176 13.83 0 .104-.002.208-.005.312l-.004.115-.01.213-.007.108c-.008.101-.015.202-.025.302l-.036.316-.015.106-.033.223-.016.092a9.81 9.81 0 0 1-.055.307l-.012.052-.055.253-.024.101-.064.256-.01.04c-.028.103-.058.207-.089.31l-.019.062-.079.243-.027.08-.087.248-.022.06a7.689 7.689 0 0 1-.11.28l-.036.088-.094.22-.037.082-.13.283-.002.003-.02.039-.12.243-.043.083-.113.209-.047.084c-.049.088-.099.176-.15.262l-.05.082-.118.194-.062.098-.124.188-.053.08-.178.258-.05.069-.142.192-.071.095-.157.201-.038.048-.199.244-.08.094-.136.157-.094.105-.143.158-.095.103-.19.197-.095.096-.156.155-.08.078-.19.18-.136.125-.15.134-.117.103-.147.127-.113.095-.195.158-.168.134-.137.107-.13.1-.153.112-.13.096-.004.003-.236.167-.005.004-.15.1-.129.09-.16.105-.135.086-.233.147-.184.112-.15.09-.153.088-.15.086-.166.093-.267.144-.16.084-.165.085-.148.074-.175.086-.147.07c-.11.05-.219.102-.33.152l-.127.057-.18.079-.168.071-.175.073-.01.005c-.096.04-.192.078-.288.115h-.002l-.177.068-.148.057-.205.075-.142.05-.203.072c-1.87 6.124-9.088 10.688-17.707 10.688-3.395 0-6.573-.71-9.291-1.942" fill="#416A3D"/><path d="M400.867 99.193l.133.168-.133-.168m-39.71 27.757a10.902 10.902 0 0 1-1.096-5.062l.003-.084c.004-.099.008-.199.015-.298l.005-.06c.005-.09.013-.18.022-.269l.005-.058c.01-.1.022-.2.035-.3l.01-.076c.014-.097.027-.193.044-.29l.002-.014v-.001l.002-.012c.017-.1.036-.198.055-.297l.012-.058c.02-.102.042-.203.066-.305l.01-.045c.024-.094.047-.188.072-.28l.01-.042c.027-.1.056-.199.086-.298l.018-.058c.03-.1.061-.199.095-.298l.002-.004c.031-.096.066-.19.1-.286l.027-.073c.036-.092.071-.184.109-.276l.025-.06.103-.24.026-.062c.04-.087.08-.175.122-.262l.042-.087.117-.233.016-.033.002-.003.01-.02.135-.25.038-.07.146-.254.045-.075.131-.213.036-.058.163-.249.053-.078.163-.235.011-.016.003-.004.183-.25.054-.07.186-.24.043-.052.165-.202.054-.065.197-.229.06-.068.17-.185.091-.097.169-.177.08-.082.215-.211.049-.048.19-.181.073-.067.22-.198.09-.079.189-.162.081-.068.218-.179.087-.069.195-.151.163-.123.141-.106.108-.079.245-.173.103-.071.195-.132.132-.087.222-.142.092-.059a23.9 23.9 0 0 1 .262-.161l.11-.065.2-.117.118-.067.251-.139.127-.068.233-.124.066-.034-.08-.188-.025-.062a8.767 8.767 0 0 1-.103-.263l-.025-.066a12.362 12.362 0 0 1-.1-.284l-.01-.028a8.029 8.029 0 0 1-.097-.304l-.01-.033a12.51 12.51 0 0 1-.09-.31l-.001-.007-.007-.025c-.027-.1-.05-.199-.075-.298l-.008-.037-.069-.315-.002-.012a17.807 17.807 0 0 1-.06-.326l-.003-.013-.003-.017a10.86 10.86 0 0 1-.088-.665l-.002-.015v-.015a12.05 12.05 0 0 1-.029-.325v-.025c-.008-.112-.013-.223-.018-.334v-.017a10.561 10.561 0 0 1-.006-.35c0-7.638 8.138-13.83 18.178-13.83.143 0 .286.002.429.004l.097.003c.116.002.232.005.348.01l.087.002c.137.006.273.012.41.02l.1.006.325.022.122.01c.113.009.227.018.34.029l.056.006.026.001c.13.014.259.027.386.043l.11.012.323.041.09.012c.131.018.262.036.393.058l.095.014.323.054.092.016c.115.02.23.042.344.064l.062.012.4.082.067.015.293.066.154.037.33.081.027.007h.001l.015.005c.122.03.244.063.366.098l.095.026.275.08.127.037c.11.033.221.068.332.103l.15.05.198.066.175.06.224.08.11.04c.11.038.218.08.325.122l.146.058.198.078.153.063c.101.042.203.085.303.13l.13.057.193.086.171.08.16.076.161.077c.097.048.194.096.29.146l.12.062.202.106.124.068.209.115.195.111.185.108.15.091.148.09.143.09.176.112.242.16.115.078.163.112.116.082.145.103.225.168.01.007.152.117.117.09.15.119.088.073c.099.08.195.162.292.244l.072.063.165.144.073.065.154.14.198.187.144.142.083.082.142.145.059.06c.162.17.32.341.473.517l.059.068.137.161.167.205.133.168.044.057.128.169.061.082c.083.114.165.23.245.346l.014.02.12.18.044.068.117.184h.171c3.947 0 7.6.957 10.58 2.583a10.907 10.907 0 0 1 1.096 5.063l-.005.115-.01.213-.007.108a10.07 10.07 0 0 1-.025.302l-.009.075-.028.24-.014.108-.034.222-.014.092a10.82 10.82 0 0 1-.057.307l-.01.052-.056.252-.023.102-.065.255-.01.04c-.029.104-.058.207-.09.31l-.018.062-.078.244-.028.08-.108.307a9.981 9.981 0 0 1-.11.28l-.037.089-.093.22-.037.082-.12.257-.01.025-.002.004-.02.04-.122.241-.043.084-.158.294c-.05.087-.099.174-.15.26l-.05.082-.119.194-.062.098-.123.188-.053.081-.18.257-.05.07-.14.191-.072.096-.157.201-.037.05-.2.242-.08.094-.135.157-.094.105-.144.158-.094.102-.191.198-.094.096-.157.155-.08.077-.19.182-.136.124-.149.134-.118.103-.147.126-.113.096-.195.158-.167.133-.138.108-.13.1-.153.112-.13.096-.005.003-.235.167-.006.004-.148.102-.13.087-.16.106-.134.086-.234.147-.183.113-.152.09-.152.088-.15.086-.166.091c-.089.05-.177.097-.268.145l-.159.084-.165.084-.148.075-.176.086-.146.07-.33.151-.126.058-.18.079-.169.07-.176.074-.01.004c-.095.04-.19.078-.286.116h-.002l-.179.069-.148.055-.204.075-.141.05-.205.072c-1.869 6.125-9.086 10.689-17.705 10.689-3.395 0-6.573-.709-9.292-1.941h-.005l-.082.014c-.12.021-.238.041-.358.06l-.07.011c-.121.018-.243.037-.366.053l-.045.007-.02.003-.381.048-.048.005-.017.002c-.14.017-.283.031-.425.045l-.012.001-.013.002c-.143.014-.287.026-.432.037l-.01.002h-.012c-.141.011-.283.02-.425.028l-.024.002h-.008l-.015.001c-.146.009-.293.016-.44.021h-.006c-.15.007-.303.011-.455.014h-.011a24.7 24.7 0 0 1-.463.005c-3.948 0-7.6-.958-10.581-2.585" fill="#497944"/><g transform="translate(0 192.96)"><mask id="d" fill="#fff"><use xlink:href="#c"/></mask><path fill="#CBE9F2" mask="url(#d)" d="M.058 103.017H480V.064H.058z"/></g><mask id="f" fill="#fff"><use xlink:href="#e"/></mask><path d="M208.003 104.097c-5.071-11.173-16.14-19.282-28.981-19.895a32.184 32.184 0 0 0-1.547-.038c-3.187 0-6.251.474-9.127 1.357-4.248-4.364-10.063-7.206-16.479-7.513a24.41 24.41 0 0 0-.973-.027 24.022 24.022 0 0 0-2.117-.093c-5.963 0-11.343 2.243-15.337 5.964a32.735 32.735 0 0 0-12.223-2.377c-11.62 0-21.608 6.287-26.727 15.772a28.5 28.5 0 0 0-1.106.965c-4.253-4.395-10.09-7.262-16.534-7.57a23.323 23.323 0 0 0-4.893.276c-.9-12.232-11.074-22.328-23.493-22.921a22.83 22.83 0 0 0-1.144-.028c-7.944 0-14.855 3.984-18.831 10.137-4.213-6.084-11.24-10.069-19.2-10.069-3.303 0-6.444.686-9.291 1.922V0h480v101a23.314 23.314 0 0 0-2.258-.737c.439-1.787.673-3.656.673-5.58 0-12.891-10.45-23.34-23.34-23.34-3.226 0-6.298.653-9.092 1.836-3.762-8.188-11.899-14.122-21.332-14.573a24.062 24.062 0 0 0-1.143-.027c-12.481 0-22.415 9.83-22.415 22.458 0 .92.055 1.83.157 2.726-3.745-2.688-8.248-4.367-13.094-4.599a24.069 24.069 0 0 0-1.144-.027c-11.376 0-20.636 8.17-22.184 19.18-5.03-3.549-11.05-5.762-17.521-6.073a32.257 32.257 0 0 0-1.549-.036c-7.752 0-14.777 2.798-20.116 7.477-5.43-10.144-15.935-17.348-28.01-17.925a32.314 32.314 0 0 0-1.55-.037c-8.734 0-16.547 3.553-22.063 9.345-3.996-7.513-11.764-12.853-20.694-13.28a24.062 24.062 0 0 0-1.144-.027c-11.896 0-21.477 8.932-22.35 20.703a24.108 24.108 0 0 0-6.035-.77c-6.193 0-11.756 2.42-15.793 6.403" fill="#CBE9F2" mask="url(#f)"/><path d="M370.596 157.374c-5.105-5.28-12.262-8.564-20.186-8.564-1.898 0-3.753.19-5.545.549.014-.99.035-1.971.062-2.943.056-2.001.136-3.962.234-5.85 3.808-.985 6.91-3.129 8.584-5.879.649.066 1.311.102 1.984.102 3.712 0 7.102-1.051 9.683-2.784 2.104 1.591 4.716 2.794 7.635 3.455 1.143 4.478 2.975 8.138 5.118 11.062a38.148 38.148 0 0 0-7.569 10.852M480 146.248a24.803 24.803 0 0 0-8.41-1.459c-2.196 0-4.324.286-6.353.82-4.488-9.532-14.18-16.13-25.415-16.13-7.973 0-15.168 3.322-20.279 8.657a37.935 37.935 0 0 0-14.405-2.824c-1.287 0-2.56.064-3.815.19 4-1.912 6.952-4.976 8.052-8.58l.203-.071.142-.05.205-.075.148-.057.177-.068h.002a14.3 14.3 0 0 0 .287-.115l.01-.005.176-.073.168-.071.18-.079.128-.057.329-.152.147-.07.175-.086.148-.074.165-.085.16-.084c.09-.047.178-.095.267-.144l.166-.093.15-.086.152-.088.15-.09.185-.112.233-.147.136-.086.16-.106.129-.088.149-.1.005-.005.236-.167.003-.003.131-.096.153-.113.13-.099.137-.107.168-.134.195-.158.113-.095.147-.127.118-.103.15-.134.135-.125.19-.18.08-.078.156-.155.095-.096.19-.197.095-.103.143-.158.094-.105.136-.157.08-.094.199-.244.038-.048.157-.201.07-.095.143-.192.05-.07.178-.257.053-.08.124-.188.062-.098.119-.194.05-.082.15-.262.046-.084.113-.209.043-.083.12-.243.02-.039.002-.003.13-.283.037-.082.094-.22.036-.088c.039-.093.075-.187.11-.28l.022-.06.087-.248.027-.08.079-.243.02-.063c.03-.102.06-.206.087-.31l.011-.04.064-.255.024-.101.055-.253.012-.052a9.81 9.81 0 0 0 .055-.307l.016-.092.033-.223.015-.106.036-.316c.01-.1.017-.2.025-.302l.007-.108.01-.213.004-.115c.003-.104.005-.208.005-.312 0-7.485-7.815-13.582-17.577-13.823h-.002l-.089-.002h-.003l-.043-.001h-.004l-.043-.001h-.044l-.005-.001-.086-.001h-.054l-.038-.001h-.358l-.118-.184-.044-.069-.12-.178-.014-.021a16.21 16.21 0 0 0-.245-.346l-.06-.082-.13-.17-.043-.056-.133-.168-.167-.205-.137-.16-.059-.069a14.942 14.942 0 0 0-.473-.517l-.059-.06-.142-.145-.083-.082-.144-.142-.198-.187-.154-.14-.073-.065-.165-.144-.072-.063a17.953 17.953 0 0 0-.292-.244l-.089-.073-.15-.118-.116-.09-.152-.118-.01-.007-.225-.168-.145-.103-.116-.082-.163-.112-.115-.078-.242-.16-.176-.113-.143-.089-.147-.09-.151-.091-.185-.108-.195-.111-.209-.115-.124-.068-.202-.106-.12-.062c-.096-.05-.193-.098-.29-.146l-.161-.077-.16-.076-.171-.08-.192-.086-.131-.058c-.1-.044-.202-.087-.303-.13l-.153-.062-.198-.078-.146-.058a13.23 13.23 0 0 0-.324-.123l-.11-.04-.225-.08-.175-.06-.199-.066-.15-.049c-.11-.035-.22-.07-.33-.103l-.128-.038-.275-.08-.095-.025a12.884 12.884 0 0 0-.366-.098l-.015-.005h-.001l-.028-.007a17.65 17.65 0 0 0-.33-.081l-.153-.037-.293-.066-.067-.015a24.553 24.553 0 0 0-.4-.082l-.062-.012a18.19 18.19 0 0 0-.344-.064l-.092-.016-.323-.054-.095-.014a18.51 18.51 0 0 0-.393-.058l-.09-.012-.322-.04-.11-.013a23.726 23.726 0 0 0-.387-.043l-.026-.001-.056-.006-.34-.029-.122-.01-.324-.022-.101-.005a19.205 19.205 0 0 0-.41-.02l-.087-.003a14.072 14.072 0 0 0-.348-.01l-.097-.003a31.974 31.974 0 0 0-.43-.004c-10.039 0-18.177 6.192-18.177 13.83 0 .118.002.234.006.35v.017c.005.111.01.222.017.334v.011l.001.014c.008.11.018.217.028.325v.004l.001.01.002.016c.023.224.052.445.088.665l.003.017.002.013.06.326.003.012.069.315.008.037c.024.1.048.199.075.298l.007.025.002.006c.028.104.057.207.088.31l.01.034a7.2 7.2 0 0 0 .099.304l.008.028c.033.096.066.19.101.284l.025.066c.033.088.067.175.103.263l.025.062.08.188-.066.034-.233.124-.127.068-.251.14-.118.066-.2.117-.11.065a23.9 23.9 0 0 0-.262.161l-.092.059-.222.142-.132.087-.195.132-.103.07-.245.174-.108.08-.141.105-.163.123-.195.151-.087.07-.218.178-.081.068-.19.162-.089.08-.22.197-.072.067-.191.18-.05.049-.213.21-.081.083-.169.177-.021.023c-.848-.4-1.752-.735-2.703-.998l-.002-.001-.034-.009-.005-.002-.03-.008-.01-.003-.024-.006a.07.07 0 0 1-.014-.004.187.187 0 0 1-.019-.005l-.018-.005h-.002a20.24 20.24 0 0 0-.783-.19h-.002c-.012-.004-.023-.006-.034-.008l-.004-.001-.032-.007-.006-.001a.352.352 0 0 0-.03-.007c-.004 0-.005 0-.007-.002l-.03-.005a.624.624 0 0 0-.037-.008c-1.768-4.644-7.397-8.037-14.069-8.037-5.842 0-10.885 2.602-13.235 6.367h-.136c-8.088 0-14.645 4.989-14.645 11.143v.178c.002.006.002.012.002.018v.056c.002.007.002.015.002.022v.002c.008.271.03.54.064.806a29.668 29.668 0 0 0-1.014-.017c-10.643 0-19.902 5.921-24.664 14.648-6.961-7.642-16.993-12.438-28.145-12.438-14.39 0-26.913 7.986-33.383 19.768-6.785-6.27-15.856-10.103-25.822-10.103-2.328 0-4.608.21-6.82.61a9.021 9.021 0 0 0 .819-3.737l-.004-.256-.003-.068-.013-.256-.003-.031-.02-.25-.003-.03c-.008-.086-.019-.172-.03-.259l-.007-.052-.037-.246-.001-.012-.002-.01-.044-.241-.013-.06-.055-.253-.004-.018-.064-.254-.006-.021-.072-.25-.015-.052-.076-.236-.003-.011v-.001l-.003-.005-.085-.24-.018-.049-.093-.238-.016-.038-.086-.203-.025-.057-.105-.225-.024-.05-.116-.233-.002-.002-.008-.017-.11-.205-.034-.062-.127-.22-.016-.026-.125-.205-.03-.045-.135-.208-.04-.062-.137-.196-.01-.013-.002-.003-.157-.214-.036-.046-.162-.21-.022-.027-.149-.18-.042-.051-.164-.19-.052-.06-.15-.163-.026-.03-.003-.002-.016-.017-.163-.17-.058-.059-.188-.186-.02-.021-.181-.171-.048-.044-.202-.18-.04-.035-.186-.161-.052-.044-.188-.153-.067-.053-.21-.164-.041-.03-.184-.138-.072-.052-.208-.148-.076-.052-.198-.133-.026-.018-.007-.004-.225-.145-.085-.054-.22-.134-.076-.045-.192-.113-.061-.034-.24-.134-.076-.041-.229-.12-.027-.014-.007-.004.068-.16.016-.042.091-.231.014-.037.083-.235.015-.041.078-.244.006-.023a6.62 6.62 0 0 0 .075-.26l.004-.017c.024-.089.047-.18.068-.27l.002-.007c.021-.09.041-.18.06-.272l.002-.008.002-.016a8.53 8.53 0 0 0 .048-.265l.002-.008c.016-.093.03-.188.043-.284v-.001l.002-.011c.012-.092.023-.185.032-.278v-.001l.001-.008c.009-.095.017-.19.023-.285l.001-.005a9.17 9.17 0 0 0 .014-.283v-.012a9.68 9.68 0 0 0 .005-.29c0-6.287-6.649-11.392-14.886-11.468h-.188c-.112 0-.225 0-.337.002l-.114.003a14.71 14.71 0 0 0-.29.009h-.049c-.118.005-.237.011-.355.018l-.055.004c-.1.006-.198.012-.297.02l-.084.007a8.322 8.322 0 0 0-.276.023l-.082.007c-.105.01-.211.022-.316.034l-.105.012-.243.031-.105.015c-.103.014-.207.028-.31.045l-.019.003-.047.007-.276.046-.096.017-.242.045-.094.017c-.101.021-.203.041-.304.063l-.1.022-.222.05-.108.026-.29.071-.018.005h-.001l-.013.003-.298.08-.092.027-.23.066-.082.025c-.097.029-.194.058-.29.09l-.115.037-.178.059-.13.044-.192.07-.11.039-.252.095-.122.048-.175.07-.112.046-.224.096-.142.062-.162.073-.138.064-.133.063-.127.061-.245.122-.113.06-.135.07-.138.075-.142.079-.197.112-.123.073-.15.088-.088.055-.15.094h-.002l-.2.13-.132.088-.093.063-.15.104-.047.033c-.107.074-.211.151-.315.229l-.035.026-.14.106-.078.06-.132.107-.065.052-.238.199-.083.071-.125.11-.058.052-.132.12-.164.155-.004.005-.112.11-.071.07-.125.126-.026.027c-.145.15-.287.305-.423.462l-.015.018-.095.11c-3.188-2.83-7.583-4.603-12.447-4.666.023-.332.036-.665.036-1.002 0-8.735-8.025-15.817-17.926-15.817-3.499 0-6.764.886-9.523 2.416a27.967 27.967 0 0 0-12.658-3.009 27.964 27.964 0 0 0-17.887 6.434c5.119-9.485 15.107-15.772 26.727-15.772a32.735 32.735 0 0 1 12.223 2.377c3.994-3.72 9.374-5.964 15.337-5.964a24.022 24.022 0 0 1 2.117.093c.322.003.648.011.973.027 6.416.307 12.231 3.15 16.48 7.513a31.062 31.062 0 0 1 9.126-1.357c.512 0 1.028.013 1.547.038 12.84.613 23.91 8.722 28.981 19.895 4.037-3.982 9.6-6.404 15.793-6.404a24.108 24.108 0 0 1 6.036.77c.872-11.77 10.453-20.702 22.35-20.702.378 0 .76.009 1.143.027 8.93.427 16.698 5.767 20.694 13.28 5.516-5.792 13.33-9.345 22.062-9.345.514 0 1.031.012 1.55.037 12.076.577 22.582 7.781 28.01 17.925 5.34-4.679 12.365-7.477 20.117-7.477.513 0 1.03.012 1.549.036 6.47.31 12.49 2.524 17.52 6.072 1.55-11.009 10.81-19.18 22.185-19.18.379 0 .76.01 1.144.028 4.846.232 9.35 1.91 13.094 4.599a23.934 23.934 0 0 1-.157-2.726c0-12.627 9.934-22.458 22.415-22.458.378 0 .76.009 1.143.027 9.433.451 17.57 6.385 21.332 14.573a23.263 23.263 0 0 1 9.092-1.837c12.89 0 23.34 10.45 23.34 23.34 0 1.925-.234 3.794-.673 5.581.769.209 1.523.454 2.258.737v45.248m-79.133-47.055l.133.168-.133-.168M0 143.676V69.96a23.266 23.266 0 0 1 9.29-1.922c7.96 0 14.988 3.985 19.2 10.069 3.977-6.153 10.888-10.137 18.832-10.137.38 0 .76.009 1.144.028 12.42.593 22.592 10.69 23.493 22.92a23.323 23.323 0 0 1 4.893-.275c6.443.308 12.281 3.175 16.534 7.57a28.157 28.157 0 0 0-6.691 9.321 37.905 37.905 0 0 0-16.25-3.636c-15.919 0-29.552 9.776-35.233 23.649a24.74 24.74 0 0 0-11.119-2.622c-11.62 0-21.375 7.976-24.093 18.752m383.275-1.46c-1.228-1.748-2.316-3.824-3.148-6.26.137-.01.273-.022.407-.035l.015-.001.011-.001.425-.045.016-.002.048-.006c.129-.015.255-.032.383-.049l.02-.002.043-.007c.123-.017.246-.034.368-.053l.07-.011c.118-.018.238-.038.357-.06l.083-.014h.004a21.876 21.876 0 0 0 6.105 1.729c.106.526.21 1.058.31 1.594a37.941 37.941 0 0 0-5.517 3.222" fill="#EAF4F7" mask="url(#f)"/><path d="M471.59 194.484c-.25 0-.5-.004-.748-.012v.012H5.812v-.134A24.707 24.707 0 0 1 0 193.024v-49.348c2.718-10.776 12.473-18.752 24.093-18.752 3.998 0 7.773.944 11.119 2.622 5.681-13.873 19.314-23.649 35.233-23.649a37.905 37.905 0 0 1 16.25 3.636 28.157 28.157 0 0 1 7.797-10.286 27.964 27.964 0 0 1 17.887-6.434c4.554 0 8.855 1.085 12.658 3.009-2.14 1.186-3.976 2.76-5.38 4.612l-.005.005-.026.035a20.965 20.965 0 0 0-1.234-.038h-.084c-5.513.023-10.44 2.242-13.71 5.716l-.007.007-.023.025-.008.008-.015.016-.014.015a.167.167 0 0 1-.013.015l-.013.013-.013.015-.015.016-.008.009-.021.023a2996043314.19 2996043314.19 0 0 1-.029.031l-.005.005-.05.056a15.333 15.333 0 0 0-2.92 4.685l-.002.001a.838.838 0 0 1-.013.035l-.001.002-.014.035-.033.015-.032.013-.002.001c-.033.015-.066.03-.1.043v.001c-5.882 2.595-9.92 7.959-9.92 14.155 0 8.736 8.026 15.817 17.927 15.817 1.912 0 3.754-.265 5.483-.754.855 2.464 2.19 4.602 3.779 6.42 2.575 2.949 5.86 5.032 8.79 6.268-.35.463-.701.956-1.055 1.482-5.811 8.634-5.423 15.377-4.796 26.28.134 2.317.279 4.83.367 7.35a2.988 2.988 0 0 0 2.985 2.894l.096-.001a2.99 2.99 0 0 0 2.892-3.08c-.102-2.882-.24-5.28-.367-7.49-.557-9.676-.901-15.66 3.789-22.627 2.426-3.605 4.87-5.348 7.687-7.356 2.924-2.085 6.201-4.42 10.215-8.969.995.151 2.019.23 3.062.23 2.38 0 4.653-.41 6.733-1.153 2.138 3.188 6.18 5.515 10.986 6.112-.946 6.03-1.421 12.175-1.383 17.8.059 8.709 1.375 16.301 4.112 20.577a2.413 2.413 0 0 0 3.335.74 2.415 2.415 0 0 0 .74-3.337c-2.226-3.478-3.3-10.147-3.354-17.998-.006-.823.001-1.658.017-2.502 2.419-1.313 6.022-3.893 9.763-8.71 1.743-2.245 3.531-4.994 5.262-8.35 4.379-1.146 7.844-3.782 9.353-7.112a38.28 38.28 0 0 1 6.819-.611c9.966 0 19.037 3.833 25.822 10.103 6.47-11.782 18.993-19.768 33.383-19.768 11.152 0 21.184 4.796 28.145 12.438 4.762-8.727 14.02-14.648 24.664-14.648.34 0 .677.006 1.014.017.515 4.064 3.898 7.488 8.59 9.09a9.764 9.764 0 0 0 1.696 3.191c1.35 4.93 3.473 8.155 5.724 10.273a14.907 14.907 0 0 0 6.123 3.515c-.107 8.164.251 16.802 1.596 24.2a2.568 2.568 0 0 0 5.055-.906c-1.292-7.105-1.626-15.504-1.511-23.458a28.213 28.213 0 0 1 5.545-.55c7.924 0 15.081 3.285 20.186 8.565a38.148 38.148 0 0 1 7.57-10.852c.197.27.397.532.598.789 3.745 4.756 8.404 7.453 12.107 8.504.117 1.83.196 3.644.235 5.42.2 9.046-.598 16.945-2.734 20.701a3.325 3.325 0 1 0 5.785 3.284c2.762-4.857 3.818-13.987 3.594-24.116-.052-2.352-.17-4.768-.351-7.204a3.338 3.338 0 0 0-.19-2.317 148.2 148.2 0 0 0-1.965-14.24 21.64 21.64 0 0 0 6.078-1.842 38.54 38.54 0 0 1 3.815-.189c5.098 0 9.961 1.005 14.405 2.824 5.111-5.335 12.306-8.658 20.28-8.658 11.234 0 20.926 6.6 25.414 16.132a24.889 24.889 0 0 1 6.353-.82c2.951 0 5.783.514 8.41 1.458v46.777a24.803 24.803 0 0 1-8.41 1.46M173.666 154.14c.242-3.084.621-6.223 1.129-9.325a18.19 18.19 0 0 0 5.258-1.46h.007l.047.01c.11.02.222.038.335.055l.01.002.016.002c.105.016.21.032.315.046l.038.006.015.002c.106.014.211.028.318.04l.04.005h.013l.003.002c.115.012.23.025.346.036l.013.002h.011c.118.012.235.022.353.03l.015.003h.01c.123.01.246.018.37.025h.009c.064.005.13.007.195.011a46.022 46.022 0 0 1-3.23 4.777c-2.044 2.63-3.985 4.465-5.636 5.731m216.548-5.65c-1.978-1.022-4.204-2.747-6.211-5.296-.248-.314-.49-.64-.728-.979a37.941 37.941 0 0 1 5.516-3.222c.572 3.053 1.05 6.258 1.423 9.497m-258.331-2.107c-2.3-.507-5.591-2.071-8.208-4.73 1.241.24 2.532.367 3.856.367 5.443 0 10.32-2.14 13.608-5.52.552.38 1.131.735 1.733 1.058-2.831 2.884-5.242 4.603-7.434 6.166-1.235.88-2.41 1.717-3.555 2.659m207.98-2.277a9.968 9.968 0 0 1-2.737-1.843 11.99 11.99 0 0 1-1.505-1.726c1.374.365 2.84.578 4.367.614-.047.967-.09 1.954-.126 2.955" fill="#EAF4F7" mask="url(#f)"/><path d="M173.367 160.095c.04-1.943.14-3.937.299-5.955 1.651-1.266 3.592-3.1 5.635-5.73a46.022 46.022 0 0 0 3.23-4.778l.182.008h.005c.125.005.25.009.374.01l.008.002h.005l.384.002c1.716 0 3.366-.218 4.903-.62-1.73 3.357-3.519 6.106-5.262 8.35-3.74 4.818-7.344 7.398-9.763 8.711" fill="#999792"/><path d="M174.668 184.31a2.412 2.412 0 0 1-2.039-1.118c-2.737-4.276-4.053-11.868-4.112-20.577-.038-5.625.437-11.77 1.383-17.8a19.871 19.871 0 0 0 4.895 0 112.346 112.346 0 0 0-1.13 9.325 103.791 103.791 0 0 0-.298 5.955 95.122 95.122 0 0 0-.017 2.502c.054 7.851 1.128 14.52 3.353 17.998a2.415 2.415 0 0 1-2.035 3.715" fill="#999792"/><path d="M172.348 144.966c-.834 0-1.651-.052-2.448-.151-4.806-.597-8.848-2.924-10.986-6.112.216.321.45.635.704.939a19.26 19.26 0 0 0 5.628.825c2.815 0 5.45-.587 7.705-1.61l.006.001.047.009c.112.02.223.037.336.056h.01l.016.003c.105.017.21.032.315.046l.038.006.015.001c.106.015.211.028.318.04l.04.005.013.002h.003c.115.014.23.026.346.037l.013.002h.011c.117.012.235.023.353.031l.015.001.01.001c.123.01.246.018.37.025l.008.001c.125.007.251.013.377.017l.005.001.374.011h.013c.127.003.256.004.384.004 8.325 0 15.073-5.135 15.073-11.47l-.003-.256-.003-.068-.013-.256-.002-.03-.02-.252-.004-.028a7.696 7.696 0 0 0-.03-.26l-.007-.051-.037-.248-.001-.011-.002-.01-.045-.241-.012-.06-.055-.253-.005-.017-.063-.255-.006-.02-.072-.252-.015-.05-.075-.236-.004-.012v-.002l-.003-.004-.085-.24-.018-.049-.092-.239-.017-.036-.086-.205-.025-.055-.105-.227-.024-.049-.104-.21-.012-.023-.002-.002-.008-.016-.11-.206-.035-.061-.126-.221-.017-.027-.124-.203-.03-.046-.135-.209-.042-.06-.135-.196-.01-.015-.002-.002-.157-.214-.036-.047-.162-.21-.022-.026-.149-.181-.042-.051-.163-.19-.053-.058-.15-.165-.026-.028-.003-.004-.016-.016-.163-.17-.058-.058-.188-.188-.02-.02-.181-.17-.048-.045-.202-.18-.04-.036-.187-.16-.051-.043-.188-.154-.067-.054-.21-.163-.041-.031-.184-.137-.072-.053-.208-.146-.076-.052-.198-.135-.026-.017-.007-.005-.226-.145-.083-.053-.22-.134-.077-.046-.192-.111-.061-.036-.24-.132-.076-.042-.229-.12-.027-.014-.007-.004.068-.16.016-.042.091-.232.014-.035.084-.237.014-.04.078-.245.006-.022a8.11 8.11 0 0 0 .075-.26l.004-.016c.025-.09.047-.18.07-.27v-.008c.021-.09.041-.18.06-.271l.001-.009.003-.016c.018-.088.034-.176.05-.265v-.008a9.14 9.14 0 0 0 .043-.283v-.002l.001-.01c.013-.094.023-.186.033-.279v-.001l.001-.009c.009-.094.016-.189.023-.284l.001-.005c.006-.094.01-.188.014-.283v-.011c.003-.097.005-.194.005-.291 0-2.26-.86-4.367-2.344-6.144a19.199 19.199 0 0 0-5.44-.826c8.237.076 14.886 5.181 14.886 11.468 0 .097-.002.194-.004.29v.006l-.001.006a9.17 9.17 0 0 1-.014.283v.005c-.007.096-.015.19-.024.285v.008c-.01.094-.021.187-.033.279l-.001.01-.001.002c-.013.096-.027.19-.043.284l-.002.008a8.53 8.53 0 0 1-.048.265l-.002.016-.002.008a8.542 8.542 0 0 1-.06.272l-.002.008c-.02.09-.044.18-.068.27l-.004.016a6.62 6.62 0 0 1-.075.26l-.006.023-.078.244-.015.041-.083.235-.014.037-.09.231-.017.041-.068.16.007.005.027.014.229.12.077.041.239.134.061.034.192.113.077.045.219.134.085.054.225.145.007.004.026.018.198.133.076.052.208.148.072.052.184.137.041.03.21.165.067.053.188.153.052.044.187.16.04.035.2.18.049.045.18.17.021.022.188.186.058.059.163.17.016.017.003.003.026.029.15.164.052.058.164.19.042.051.15.18.021.028.162.21.036.046.157.214.002.003.01.013.136.196.04.062.137.208.029.045.125.205.016.026.127.22.034.062.11.205.008.017.002.002.116.233.024.05.105.225.025.057.086.203.016.038.093.238.018.049.085.24.002.005h.001l.003.012.076.236.015.051.072.25.006.022.064.254.004.018.055.253.013.06.044.242.002.008v.013l.038.246.008.052.03.26.002.028.02.25.003.032.013.256.003.068.004.256a9.021 9.021 0 0 1-.818 3.738c-1.509 3.33-4.974 5.966-9.353 7.111a19.388 19.388 0 0 1-5.287.618h-.005l-.008-.001c-.125-.002-.25-.006-.374-.011h-.005l-.181-.008-.195-.01-.008-.001h-.001a16.002 16.002 0 0 1-.37-.025h-.01l-.015-.002a14.61 14.61 0 0 1-.353-.03h-.011l-.013-.003a38.36 38.36 0 0 1-.346-.036l-.003-.001-.014-.001-.04-.005a16.884 16.884 0 0 1-.317-.04l-.015-.002-.038-.006a17.77 17.77 0 0 1-.315-.046l-.017-.002-.01-.002a12.824 12.824 0 0 1-.334-.056l-.047-.008-.007-.001a18.193 18.193 0 0 1-5.258 1.46c-.796.099-1.614.15-2.447.15m-7.45-32.074l.094-.11.015-.018c.136-.157.278-.311.423-.462l.026-.027.125-.127.07-.07.113-.11.004-.004.164-.155.132-.12.058-.052.125-.11.083-.071.238-.199.065-.052.132-.106.078-.06.14-.107.035-.026c.104-.078.208-.155.315-.23l.047-.032.15-.104.093-.063.132-.088.2-.13h.002l.15-.094.089-.055.149-.088.123-.073.197-.112.142-.08.138-.073.135-.071.113-.06.245-.122.127-.061.133-.063.138-.064.162-.073.142-.062.224-.096.112-.045.175-.071.122-.048.252-.095.11-.04.192-.069.13-.044.178-.06.116-.037.289-.09.082-.024.23-.066.092-.026c.099-.028.199-.055.298-.081l.013-.003.02-.005c.095-.024.192-.048.289-.07l.108-.027.221-.05.101-.022c.1-.022.203-.042.304-.063l.094-.017.242-.045.096-.017.276-.046.047-.007.02-.003c.102-.017.206-.031.31-.045l.104-.015.243-.03.105-.013.316-.034.082-.007c.092-.009.183-.017.276-.023l.084-.007c.099-.008.198-.014.297-.02l.055-.004c.118-.007.237-.013.355-.017l.048-.001.291-.009.114-.003c.112-.002.225-.003.337-.003h.046-.046c-.112 0-.225.001-.337.003l-.114.003a14.71 14.71 0 0 0-.29.009h-.049c-.118.005-.237.011-.355.018l-.055.004c-.1.006-.198.012-.297.02l-.084.007a8.322 8.322 0 0 0-.276.023l-.082.007c-.105.01-.211.022-.316.034l-.105.012-.243.031-.105.015c-.103.014-.207.028-.31.045l-.019.003-.047.007-.276.046-.096.017-.242.045-.094.017c-.101.021-.203.041-.304.063l-.1.022-.222.05-.108.026-.29.071-.018.005h-.001l-.013.003-.298.08-.092.027-.23.066-.082.025c-.097.029-.194.058-.29.09l-.115.037-.178.059-.13.044-.192.07-.11.039-.252.095-.122.048-.175.07-.112.046-.224.096-.142.062-.162.073-.138.064-.133.063-.127.061-.245.122-.113.06-.135.07-.138.075-.142.079-.197.112-.123.073-.15.088-.088.055-.15.094h-.002l-.2.13-.132.088-.093.063-.15.104-.047.033c-.107.074-.211.151-.315.229l-.035.026-.14.106-.078.06-.132.107-.065.052-.238.199-.083.071-.125.11-.058.052-.132.12-.164.155-.004.005-.112.11-.071.07-.125.126-.026.027c-.145.15-.287.305-.423.462l-.015.018-.095.11m12.879-5.28h-.044.044m-.048-.002h-.044.044m-.046 0h-.045.045" fill="#7E9E87"/><path d="M165.246 140.467c-1.99 0-3.89-.293-5.628-.825a11.24 11.24 0 0 1-.704-.94c6.564-2.347 11.193-8.029 11.193-14.663 0-4.35-1.99-8.289-5.21-11.148l.095-.11.015-.018c.136-.157.278-.311.423-.462l.026-.027.125-.127.07-.07.113-.11.004-.004.164-.155.132-.12.058-.052.125-.11.083-.071.238-.199.065-.052.132-.106.078-.06.14-.107.035-.026c.104-.078.208-.155.315-.23l.047-.032.15-.104.093-.063.132-.088.2-.13h.002l.15-.094.089-.055.149-.088.123-.073.197-.112.142-.08.138-.073.135-.071.113-.06.245-.122.127-.061.133-.063.138-.064.162-.073.142-.062.224-.096.112-.045.175-.071.122-.048.252-.095.11-.04.192-.069.13-.044.178-.06.116-.037.289-.09.082-.024.23-.066.092-.026c.099-.028.199-.055.298-.081l.013-.003.02-.005c.095-.024.192-.048.289-.07l.108-.027.221-.05.101-.022c.1-.022.203-.042.304-.063l.094-.017.242-.045.096-.017.276-.046.047-.007.02-.003c.102-.017.206-.031.31-.045l.104-.015.243-.03.105-.013.316-.034.082-.007c.092-.009.183-.017.276-.023l.084-.007c.099-.008.198-.014.297-.02l.055-.004c.118-.007.237-.013.355-.017l.048-.001.291-.009.114-.003c.112-.002.225-.003.337-.003h.138l.004.001h.046c1.92.018 3.756.31 5.44.826 1.484 1.777 2.344 3.884 2.344 6.144 0 .097-.002.194-.005.29v.012c-.003.095-.008.19-.014.283v.005c-.008.095-.015.19-.024.284v.01c-.01.093-.021.185-.034.278v.011l-.001.002a9.14 9.14 0 0 1-.043.283v.008c-.016.089-.032.177-.05.265l-.003.016-.001.009a8.542 8.542 0 0 1-.06.271v.007c-.023.091-.045.18-.07.27l-.004.016a8.11 8.11 0 0 1-.075.261l-.006.022-.078.245-.014.04-.084.237-.014.035-.09.232-.017.042-.068.16.007.004.027.013.229.121.077.042.239.132.061.036.192.111.077.046.22.134.083.053.226.145.007.005.026.017.198.135.076.052.208.146.072.053.184.137.042.031.21.163.066.054.188.154.051.043.188.16.039.036.202.18.048.044.18.171.021.02.188.188.058.058.163.17.016.016.003.004.026.028.15.165.053.059.163.189.042.05.15.182.021.026.162.21.036.047.157.214.002.002.01.015.135.196.042.06.136.209.029.046.124.203.017.027.126.22.035.062.11.206.008.016.002.002.012.024.104.21.024.048.105.227.025.055.086.205.017.036.092.24.018.047.085.241.002.004.001.002.004.012.075.236.015.05.072.251.006.021.063.255.005.017.055.253.012.06.045.241.002.01.001.011.037.248.007.05c.011.087.022.173.03.26l.003.029.021.251.002.03.013.257.003.068.003.257c0 6.334-6.748 11.469-15.073 11.469-.128 0-.257-.001-.384-.004h-.013a48.73 48.73 0 0 1-.374-.01l-.005-.002a24.79 24.79 0 0 1-.377-.017h-.008a23.099 23.099 0 0 1-.37-.026h-.01l-.015-.002a13.61 13.61 0 0 1-.353-.03l-.011-.001-.013-.002a9.884 9.884 0 0 1-.346-.037h-.003l-.014-.002-.04-.004a16.884 16.884 0 0 1-.317-.04l-.015-.002-.038-.006a17.77 17.77 0 0 1-.315-.046l-.017-.002-.01-.001a34.816 34.816 0 0 1-.335-.056l-.047-.009h-.006c-2.255 1.022-4.89 1.61-7.705 1.61" fill="#85A68C"/><path d="M127.307 151.143c-2.931-1.236-6.216-3.32-8.791-6.267-1.589-1.819-2.924-3.957-3.779-6.421.347-.099.689-.205 1.026-.322 2.223 1.71 4.928 2.943 7.912 3.52 2.617 2.659 5.909 4.223 8.208 4.73a27.215 27.215 0 0 0-4.576 4.76" fill="#999792"/><path d="M124.807 189.149a2.988 2.988 0 0 1-2.985-2.894c-.088-2.52-.233-5.033-.367-7.35-.627-10.903-1.015-17.646 4.796-26.28a32.77 32.77 0 0 1 1.056-1.482 27.215 27.215 0 0 1 4.576-4.76c1.145-.942 2.32-1.78 3.555-2.66 2.192-1.562 4.603-3.28 7.434-6.165a19.344 19.344 0 0 0 6.247 2.068c-4.014 4.549-7.29 6.884-10.215 8.969-2.816 2.008-5.261 3.751-7.687 7.356-4.69 6.968-4.346 12.951-3.789 22.626.127 2.211.265 4.61.367 7.491a2.99 2.99 0 0 1-2.892 3.08h-.096" fill="#999792"/><path d="M127.531 142.02a20.31 20.31 0 0 1-3.856-.366c-2.984-.578-5.69-1.81-7.912-3.52a20.152 20.152 0 0 1-6.509 1.075c-9.9 0-17.926-7.081-17.926-15.817 0-6.196 4.037-11.56 9.918-14.155-2.805 1.238-5.19 3.106-6.917 5.393a11.605 11.605 0 0 0-1.29 5.309c0 7.14 6.561 12.929 14.655 12.929 1.877 0 3.67-.312 5.32-.879 2.574 1.979 5.939 3.178 9.62 3.178 4.45 0 8.438-1.751 11.125-4.514 2.488 1.72 5.621 2.744 9.027 2.744 8.092 0 14.654-5.789 14.654-12.93 0-7.077-6.443-12.824-14.435-12.928.02-.27.03-.543.03-.818 0-7.141-6.56-12.93-14.654-12.93-1.462 0-2.875.19-4.209.542a17.063 17.063 0 0 0-4.516 4.1c1.405-1.85 3.241-3.425 5.381-4.611 2.76-1.53 6.024-2.416 9.523-2.416 9.9 0 17.926 7.082 17.926 15.817 0 .337-.013.67-.036 1.002 4.864.063 9.26 1.835 12.447 4.666 3.22 2.86 5.21 6.798 5.21 11.148 0 6.634-4.629 12.316-11.193 14.664a19.971 19.971 0 0 1-6.733 1.153c-1.043 0-2.067-.079-3.062-.23a19.344 19.344 0 0 1-6.247-2.068 18.298 18.298 0 0 1-1.733-1.058c-3.288 3.38-8.165 5.52-13.608 5.52m-26.284-32.784l.1-.043c-.033.015-.066.03-.1.043m.102-.044l.032-.013-.032.013m.079-.063v-.002.002m.014-.037l.001-.001v.001m2.92-4.685l.001-.001m.05-.056l.005-.005-.005.005m.027-.03l.007-.006-.007.006m.028-.03l.008-.008-.008.009m.023-.025l.013-.015-.013.015m.026-.028l.013-.015c-.004.005-.01.01-.013.015m.027-.03l.015-.016a.124.124 0 0 1-.015.016m.023-.024l.023-.025-.023.025m.03-.032c3.27-3.474 8.197-5.693 13.71-5.716a20.39 20.39 0 0 0-1.216.043 13.39 13.39 0 0 0-.92 1.09c-.333-.02-.669-.031-1.008-.031-2.073 0-4.045.38-5.832 1.065a17.626 17.626 0 0 0-4.734 3.55m15.028-5.68c.01-.01.018-.022.026-.034l-.026.035m-1.306-.038h.03-.03" fill="#94B88E"/><path d="M122.634 135.167c-3.681 0-7.046-1.199-9.62-3.178-1.65.567-3.443.879-5.32.879-8.094 0-14.655-5.789-14.655-12.93 0-1.892.461-3.689 1.29-5.308 1.728-2.287 4.112-4.155 6.917-5.393h.001l.1-.044h.002l.032-.014.033-.015.014-.035v-.002a.838.838 0 0 0 .014-.035l.001-.001a15.333 15.333 0 0 1 2.92-4.684l.001-.001.05-.056.005-.005.022-.025.007-.006.021-.023.008-.01.015-.015.013-.015.013-.013.013-.015.014-.015.015-.016.008-.008.023-.025.007-.007a17.626 17.626 0 0 1 4.734-3.549 16.27 16.27 0 0 1 5.832-1.065c.34 0 .675.011 1.008.03.286-.377.593-.74.92-1.09.402-.025.808-.04 1.216-.042h.084c.415 0 .827.014 1.234.038l.026-.035.004-.005a17.03 17.03 0 0 1 4.516-4.1 16.47 16.47 0 0 1 4.209-.543c8.094 0 14.654 5.789 14.654 12.93 0 .275-.01.547-.03.818 7.992.104 14.435 5.851 14.435 12.928 0 7.141-6.562 12.93-14.654 12.93-3.406 0-6.539-1.025-9.027-2.744-2.687 2.763-6.674 4.514-11.125 4.514" fill="#A1CC99"/><path d="M339.725 149.523a14.907 14.907 0 0 1-6.123-3.515c-2.251-2.118-4.374-5.343-5.725-10.273 1.749 2.219 4.484 3.936 7.744 4.802a11.99 11.99 0 0 0 1.505 1.726 9.968 9.968 0 0 0 2.736 1.843 222.983 222.983 0 0 0-.137 5.417" fill="#999792"/><path d="M343.845 175.838a2.568 2.568 0 0 1-2.524-2.114c-1.345-7.4-1.703-16.037-1.596-24.201a222.983 222.983 0 0 1 .137-5.417c.037-1 .079-1.988.126-2.955a18.87 18.87 0 0 0 5.173-.585 244.442 244.442 0 0 0-.296 8.793c-.115 7.954.219 16.353 1.51 23.458a2.569 2.569 0 0 1-2.53 3.021" fill="#999792"/><path d="M340.447 141.156a18.724 18.724 0 0 1-4.826-.62c-3.26-.865-5.995-2.582-7.744-4.8a9.764 9.764 0 0 1-1.507-2.64c2.396 1.301 5.328 2.066 8.496 2.066 5.895 0 10.975-2.65 13.298-6.47.65.068 1.312.103 1.984.103 4.079 0 7.767-1.269 10.422-3.314.16.5.356.991.587 1.47.922 1.92 2.388 3.64 4.255 5.054-2.581 1.733-5.97 2.784-9.683 2.784-.673 0-1.335-.036-1.984-.102-1.674 2.75-4.776 4.894-8.584 5.88a18.87 18.87 0 0 1-4.714.59m-14.266-8.613c-4.691-1.602-8.074-5.026-8.589-9.09a8.687 8.687 0 0 0 .5 2c.782.425 1.622.794 2.509 1.096.619 2.029 1.967 3.844 3.82 5.28.563.266 1.15.506 1.76.714m-8.653-9.898l-.001-.022v.022m0-.026v-.02.02m0-.026l-.001-.02v.02m0-.026l-.001-.018v.018m0-.026v-.017.017m0-.026v-.016.016m-.001-.027v-.015.015m0-.027v-.013.013m0-.027v-.012.012m0-.03v-.007.008m0-.034c0-6.154 6.557-11.144 14.645-11.144l.136.001c2.35-3.765 7.393-6.367 13.235-6.367 6.672 0 12.301 3.393 14.07 8.037-1.769-4.644-7.398-8.037-14.07-8.037-5.842 0-10.885 2.602-13.235 6.367h-.136c-8.088 0-14.645 4.989-14.645 11.143m43.206-9.202l-.034-.008.034.009m-.039-.011l-.03-.008.03.008m-.04-.01l-.024-.007.025.006m-.076-.02h-.002.002m-.785-.19h-.002.002m-.036-.008l-.004-.001h.004m-.036-.007l-.006-.001h.006m-.037-.007c-.002 0-.005 0-.006-.002l.006.002" fill="#94B88E"/><path d="M334.866 135.162c-3.168 0-6.1-.765-8.496-2.066a8.68 8.68 0 0 1-.182-.532l-.007-.02a16.725 16.725 0 0 1-1.76-.715c-1.853-1.435-3.201-3.25-3.82-5.279a16.206 16.206 0 0 1-2.51-1.096 8.687 8.687 0 0 1-.563-2.806v-.002l-.001-.022v-.03l-.001-.02v-.006l-.001-.018v-.05l-.001-.01v-.118c0-6.154 6.557-11.144 14.645-11.144l.136.001c2.35-3.765 7.393-6.367 13.235-6.367 6.672 0 12.301 3.393 14.07 8.037a.624.624 0 0 1 .036.008l.03.005.006.002.031.007h.006l.032.008h.004l.034.008h.002a20.24 20.24 0 0 1 .785.191l.018.005a.187.187 0 0 0 .02.005.07.07 0 0 0 .013.004l.025.006.008.003.031.008.005.002.034.009h.002c.95.264 1.855.6 2.702.999l-.07.074-.168.185-.06.068-.198.229-.054.065-.165.202-.043.052-.186.24-.054.07-.183.25-.003.004-.011.016-.163.235-.053.078-.163.249-.036.058-.13.213-.046.075-.146.255-.038.069-.134.25-.011.02-.002.003-.016.033-.117.233-.042.087c-.042.087-.082.175-.122.262l-.026.061-.103.241-.025.06c-.038.092-.073.184-.109.276l-.026.073c-.035.095-.07.19-.101.286l-.001.003-.001.001c-.034.1-.064.198-.095.298l-.018.058c-.03.1-.059.198-.086.298l-.01.042c-.025.092-.048.186-.071.28l-.011.045c-.024.102-.045.203-.066.305l-.012.058c-.019.099-.038.197-.055.297l-.001.012h-.001l-.002.015c-.017.097-.03.193-.044.29l-.01.076c-.013.1-.025.2-.035.3l-.005.058c-.009.09-.017.179-.022.269l-.005.06c-.007.1-.01.199-.015.298l-.003.084a8.421 8.421 0 0 0-.004.312v.199l.002.006v.043a.104.104 0 0 1 0 .017v.004l.001.02v.001l.001.044v.002l.001.02v.022l.001.002v.023a10.791 10.791 0 0 0 .507 2.878c-2.655 2.045-6.343 3.314-10.422 3.314-.672 0-1.335-.035-1.984-.102-2.323 3.819-7.403 6.47-13.298 6.47" fill="#A1CC99"/><path d="M390.87 155.815c-3.702-1.051-8.36-3.748-12.106-8.504a31.98 31.98 0 0 1-.599-.79c-2.143-2.923-3.975-6.583-5.118-11.061a23.534 23.534 0 0 0 5.65.566h.011c.152-.004.304-.007.456-.013h.005c.147-.006.293-.013.439-.021l.015-.001h.009l.024-.002c.142-.009.283-.018.425-.029l.01-.001h.012a.202.202 0 0 0 .024-.003c.832 2.436 1.92 4.512 3.148 6.26.237.337.48.664.728.978 2.007 2.55 4.233 4.274 6.211 5.296.281 2.438.502 4.896.657 7.325m6.529-1.915c-.057-.77-.12-1.543-.19-2.317a3.336 3.336 0 0 1 .19 2.317" fill="#999792"/><path d="M391.261 186.904a3.325 3.325 0 0 1-2.89-4.968c2.137-3.756 2.935-11.655 2.735-20.701-.04-1.776-.118-3.59-.235-5.42a143.836 143.836 0 0 0-.657-7.325 137.273 137.273 0 0 0-1.423-9.497c-.1-.536-.203-1.068-.309-1.594 1.035.14 2.1.212 3.186.212 1.224 0 2.42-.092 3.577-.268A148.2 148.2 0 0 1 397.4 153.9c.18 2.436.3 4.852.351 7.204.224 10.13-.832 19.259-3.594 24.116a3.325 3.325 0 0 1-2.896 1.684" fill="#999792"/><path d="M391.668 137.611c-1.086 0-2.15-.072-3.186-.212a21.876 21.876 0 0 1-6.105-1.73l-.004.001-.083.014a15.46 15.46 0 0 1-.358.06l-.069.01c-.122.02-.245.037-.368.054l-.044.007-.019.002c-.128.017-.254.034-.383.049l-.048.006-.016.002-.425.045h-.011l-.015.002a18.33 18.33 0 0 1-.43.037l-.012.001-.01.001-.426.029-.024.002h-.024c-.146.01-.292.016-.439.022h-.005c-.152.006-.304.01-.456.013h-.011a23.534 23.534 0 0 1-5.65-.566c-2.919-.66-5.531-1.864-7.635-3.455-1.867-1.414-3.333-3.135-4.255-5.055 2.98 1.627 6.633 2.585 10.58 2.585.155 0 .31-.002.464-.005h.011c.152-.003.304-.007.455-.014h.006c.147-.005.294-.012.44-.02l.015-.002h.008l.024-.002c.142-.007.284-.017.425-.028h.011l.011-.002c.145-.01.289-.023.432-.037l.013-.002h.012l.425-.046.017-.002.048-.005.382-.048.019-.003.045-.007c.123-.016.245-.035.367-.053l.069-.011c.12-.019.239-.039.358-.06l.082-.014h.005c2.719 1.232 5.897 1.94 9.292 1.94 8.619 0 15.836-4.563 17.705-10.688l.205-.072.141-.05.204-.075.148-.055.179-.068.002-.001.286-.116.01-.004.176-.073.17-.071.179-.08.126-.057c.11-.05.221-.1.33-.151l.146-.07.176-.086.148-.075.165-.084.16-.084.267-.145.166-.09.15-.087.152-.089.152-.089.183-.113.234-.147.135-.086.159-.106.13-.087.148-.102.006-.004.235-.167.005-.003.13-.096.152-.112.13-.1.14-.108.166-.133.195-.158.113-.096.147-.126.118-.103.149-.134.135-.124.191-.182.08-.077.157-.155.094-.096.19-.198.095-.102.144-.158.094-.105.135-.157.08-.094.2-.243.037-.049.157-.201.072-.096.14-.192.05-.069.18-.257.053-.08.123-.189.062-.098.12-.194.048-.081a8.71 8.71 0 0 0 .15-.261l.16-.294.042-.084.122-.241.02-.04.002-.004.01-.025.12-.257.037-.082.093-.22.036-.089c.039-.093.075-.186.11-.28l.109-.306.028-.08.078-.245.019-.062.09-.31.009-.04.065-.255.023-.102.056-.252.01-.052c.02-.102.04-.204.057-.307l.014-.092.034-.222.014-.108.028-.24.009-.075c.01-.1.018-.2.025-.302l.006-.108.011-.213.005-.115a10.907 10.907 0 0 0-1.096-5.063c-2.829-1.542-6.264-2.484-9.98-2.576 9.76.24 17.576 6.338 17.576 13.823 0 .104-.002.208-.005.312l-.004.115-.01.213-.007.108c-.008.101-.015.202-.025.302l-.036.316-.015.106-.033.223-.016.092a9.81 9.81 0 0 1-.055.307l-.012.052-.055.253-.024.101-.064.256-.01.04c-.028.103-.058.207-.089.31l-.019.062-.079.243-.027.08-.087.248-.022.06a7.689 7.689 0 0 1-.11.28l-.036.088-.094.22-.037.082-.13.283-.002.003-.02.039-.12.243-.043.083-.113.209-.047.084c-.049.088-.099.176-.15.262l-.05.082-.118.194-.062.098-.124.188-.053.08-.178.258-.05.069-.142.192-.071.095-.157.201-.038.048-.199.244-.08.094-.136.157-.094.105-.143.158-.095.103-.19.197-.095.096-.156.155-.08.078-.19.18-.136.125-.15.134-.117.103-.147.127-.113.095-.195.158-.168.134-.137.107-.13.1-.153.112-.13.096-.004.003-.236.167-.005.004-.15.1-.129.09-.16.105-.135.086-.233.147-.184.112-.15.09-.153.088-.15.086-.166.093-.267.144-.16.084-.165.085-.148.074-.175.086-.147.07c-.11.05-.219.102-.33.152l-.127.057-.18.079-.168.071-.175.073-.01.005c-.096.04-.192.078-.288.115h-.002l-.177.068-.148.057-.205.075-.142.05-.203.072c-1.1 3.603-4.052 6.667-8.052 8.578a21.64 21.64 0 0 1-6.078 1.842 23.83 23.83 0 0 1-3.577.268m-31.605-15.008v-.002.002m0-.023v-.001.001m0-.022v-.002.002m-.002-.022v-.002.002m-.001-.066v-.005.004m-.001-.021v-.005.005m0-.021v-.006.006m0-.022l-.001-.006v.006m0-.023v-.004.004m0-.023v-.002.002m-.001-.023v-.007.007m0-.021v-.008.008m0-.023v-.006.006m0-.02v-.008.007m0-.02v-.008.007m0-.022v-.007.007m7.112-15.834c0-7.639 8.138-13.83 18.178-13.83l.429.003.097.003c.116.002.232.005.348.01l.087.002c.137.006.273.012.41.02l.1.006.325.022.122.01c.113.009.227.018.34.029l.056.006.026.001c.13.014.259.027.386.043l.11.012.323.041.09.012c.131.018.262.036.393.058l.095.014.323.054.092.016c.115.02.23.042.344.064l.062.012.4.082.067.015.293.066.154.037.33.081.027.007h.001l.015.005c.122.03.244.063.366.098l.095.026.275.08.127.037c.11.033.221.068.332.103l.15.05.198.066.175.06.224.08.11.04c.11.038.218.08.325.122l.146.058.198.078.153.063c.101.042.203.085.303.13l.13.057.193.086.171.08.16.076.161.077c.097.048.194.096.29.146l.12.062.202.106.124.068.209.115.195.111.185.108.15.091.148.09.143.09.176.112.242.16.115.078.163.112.116.082.145.103.225.168.01.007.152.117.117.09.15.119.088.073c.099.08.195.162.292.244l.072.063.165.144.073.065.154.14.198.187.144.142.083.082.142.145.059.06c.162.17.32.341.473.517l.059.068.137.161.167.205.133.168.044.057.128.169.061.082c.083.114.165.23.245.346l.014.02.12.18.044.068.117.184h.211-.209l-.118-.184-.044-.069-.12-.178-.014-.021a16.21 16.21 0 0 0-.245-.346l-.06-.082-.13-.17-.043-.056-.133-.168-.167-.205-.137-.16-.059-.069a14.942 14.942 0 0 0-.473-.517l-.059-.06-.142-.145-.083-.082-.144-.142-.198-.187-.154-.14-.073-.065-.165-.144-.072-.063a17.953 17.953 0 0 0-.292-.244l-.089-.073-.15-.118-.116-.09-.152-.118-.01-.007-.225-.168-.145-.103-.116-.082-.163-.112-.115-.078-.242-.16-.176-.113-.143-.089-.147-.09-.151-.091-.185-.108-.195-.111-.209-.115-.124-.068-.202-.106-.12-.062c-.096-.05-.193-.098-.29-.146l-.161-.077-.16-.076-.171-.08-.192-.086-.131-.058c-.1-.044-.202-.087-.303-.13l-.153-.062-.198-.078-.146-.058a13.23 13.23 0 0 0-.324-.123l-.11-.04-.225-.08-.175-.06-.199-.066-.15-.049c-.11-.035-.22-.07-.33-.103l-.128-.038-.275-.08-.095-.025a12.884 12.884 0 0 0-.366-.098l-.015-.005h-.001l-.028-.007a17.65 17.65 0 0 0-.33-.081l-.153-.037-.293-.066-.067-.015a24.553 24.553 0 0 0-.4-.082l-.062-.012a18.19 18.19 0 0 0-.344-.064l-.092-.016-.323-.054-.095-.014a18.51 18.51 0 0 0-.393-.058l-.09-.012-.322-.04-.11-.013a23.726 23.726 0 0 0-.387-.043l-.026-.001-.056-.006-.34-.029-.122-.01-.324-.022-.101-.005a19.205 19.205 0 0 0-.41-.02l-.087-.003a14.072 14.072 0 0 0-.348-.01l-.097-.003a31.974 31.974 0 0 0-.43-.004c-10.039 0-18.177 6.192-18.177 13.83m33.698-7.2l.133.168-.133-.168m1.674 1.28l-.089-.001c.03 0 .06 0 .09.002m-.093-.002l-.043-.001h.043m-.047 0l-.043-.001a.649.649 0 0 0 .043 0m-.044 0h-.043.043m-.048-.001l-.086-.001h.086m-.093 0h-.041.041m-.047 0l-.038-.001h.038m-.045 0h-.04.04m-.05 0h-.036.037m-.041 0h-.042.042M401 99.36l-.133-.168.133.168" fill="#85A68C"/><path d="M385.173 131.115c-3.395 0-6.573-.709-9.292-1.941h-.005l-.082.014c-.12.021-.238.041-.358.06l-.07.011c-.121.018-.243.037-.366.053l-.045.007-.02.003-.381.048-.048.005-.017.002c-.14.017-.283.031-.425.045l-.012.001-.013.002c-.143.014-.287.026-.432.037l-.01.002h-.012c-.141.011-.283.02-.425.028l-.024.002h-.008l-.015.001c-.146.009-.293.016-.44.021h-.006c-.15.007-.303.011-.455.014h-.011a24.7 24.7 0 0 1-.463.005c-3.948 0-7.6-.958-10.581-2.585-.23-.478-.426-.968-.587-1.47a10.791 10.791 0 0 1-.506-2.856v-.043l-.002-.002v-.045c-.002-.014-.002-.028-.002-.044v-.025l-.001-.017v-.043l-.001-.006v-.042l-.001-.021v-.135c0-.105 0-.209.004-.313l.003-.084c.004-.099.008-.199.015-.298l.005-.06c.005-.09.013-.18.022-.269l.005-.058c.01-.1.022-.2.035-.3l.01-.076c.014-.097.027-.193.044-.29l.002-.014v-.001l.002-.012c.017-.1.036-.198.055-.297l.012-.058c.02-.102.042-.203.066-.305l.01-.045c.024-.094.047-.188.072-.28l.01-.042c.027-.1.056-.199.086-.298l.018-.058c.03-.1.061-.199.095-.298l.002-.004c.031-.096.066-.19.1-.286l.027-.073c.036-.092.071-.184.109-.276l.025-.06.103-.24.026-.062c.04-.087.08-.175.122-.262l.042-.087.117-.233.016-.033.002-.003.01-.02.135-.25.038-.07.146-.254.045-.075.131-.213.036-.058.163-.249.053-.078.163-.235.011-.016.003-.004.183-.25.054-.07.186-.24.043-.052.165-.202.054-.065.197-.229.06-.068.17-.185.091-.097.169-.177.08-.082.215-.211.049-.048.19-.181.073-.067.22-.198.09-.079.189-.162.081-.068.218-.179.087-.069.195-.151.163-.123.141-.106.108-.079.245-.173.103-.071.195-.132.132-.087.222-.142.092-.059a23.9 23.9 0 0 1 .262-.161l.11-.065.2-.117.118-.067.251-.139.127-.068.233-.124.066-.034-.08-.188-.025-.062a8.767 8.767 0 0 1-.103-.263l-.025-.066a12.362 12.362 0 0 1-.1-.284l-.01-.028a8.029 8.029 0 0 1-.097-.304l-.01-.033a12.51 12.51 0 0 1-.09-.31l-.001-.007-.007-.025c-.027-.1-.05-.199-.075-.298l-.008-.037-.069-.315-.002-.012a17.807 17.807 0 0 1-.06-.326l-.003-.013-.003-.017a10.86 10.86 0 0 1-.088-.665l-.002-.015v-.015a12.05 12.05 0 0 1-.029-.325v-.025c-.008-.112-.013-.223-.018-.334v-.017a10.561 10.561 0 0 1-.006-.35c0-7.638 8.138-13.83 18.178-13.83.143 0 .286.002.429.004l.097.003c.116.002.232.005.348.01l.087.002c.137.006.273.012.41.02l.1.006.325.022.122.01c.113.009.227.018.34.029l.056.006.026.001c.13.014.259.027.386.043l.11.012.323.041.09.012c.131.018.262.036.393.058l.095.014.323.054.092.016c.115.02.23.042.344.064l.062.012.4.082.067.015.293.066.154.037.33.081.027.007h.001l.015.005c.122.03.244.063.366.098l.095.026.275.08.127.037c.11.033.221.068.332.103l.15.05.198.066.175.06.224.08.11.04c.11.038.218.08.325.122l.146.058.198.078.153.063c.101.042.203.085.303.13l.13.057.193.086.171.08.16.076.161.077c.097.048.194.096.29.146l.12.062.202.106.124.068.209.115.195.111.185.108.15.091.148.09.143.09.176.112.242.16.115.078.163.112.116.082.145.103.225.168.01.007.152.117.117.09.15.119.088.073c.099.08.195.162.292.244l.072.063.165.144.073.065.154.14.198.187.144.142.083.082.142.145.059.06c.162.17.32.341.473.517l.059.068.137.161.167.205.133.168.044.057.128.169.061.082c.083.114.165.23.245.346l.014.02.12.18.044.068.117.184h.451c.028.002.057.002.086.002h.05a.649.649 0 0 0 .043.002h.05l.09.003h.001c3.717.092 7.152 1.034 9.98 2.576a10.907 10.907 0 0 1 1.097 5.063l-.005.115-.01.213-.007.108a10.07 10.07 0 0 1-.025.302l-.009.075-.028.24-.014.108-.034.222-.014.092a10.82 10.82 0 0 1-.057.307l-.01.052-.056.252-.023.102-.065.255-.01.04c-.029.104-.058.207-.09.31l-.018.062-.078.244-.028.08-.108.307a9.981 9.981 0 0 1-.11.28l-.037.089-.093.22-.037.082-.12.257-.01.025-.002.004-.02.04-.122.241-.043.084-.158.294c-.05.087-.099.174-.15.26l-.05.082-.119.194-.062.098-.123.188-.053.081-.18.257-.05.07-.14.191-.072.096-.157.201-.037.05-.2.242-.08.094-.135.157-.094.105-.144.158-.094.102-.191.198-.094.096-.157.155-.08.077-.19.182-.136.124-.149.134-.118.103-.147.126-.113.096-.195.158-.167.133-.138.108-.13.1-.153.112-.13.096-.005.003-.235.167-.006.004-.148.102-.13.087-.16.106-.134.086-.234.147-.183.113-.152.09-.152.088-.15.086-.166.091c-.089.05-.177.097-.268.145l-.159.084-.165.084-.148.075-.176.086-.146.07-.33.151-.126.058-.18.079-.169.07-.176.074-.01.004c-.095.04-.19.078-.286.116h-.002l-.179.069-.148.055-.204.075-.141.05-.205.072c-1.869 6.125-9.086 10.689-17.705 10.689M401 99.36l-.133-.168.133.168" fill="#8BAE90"/><path d="M44.992 166.05a3.275 3.275 0 1 0 1.101-6.457c-4.649-.803-9.642-3.699-13.237-8.77-3.04-4.29-5.07-10.156-5.07-17.679a3.28 3.28 0 0 0-6.56 0c0 8.993 2.522 16.14 6.301 21.47 4.668 6.585 11.267 10.364 17.465 11.436m4.419-14.826a3.279 3.279 0 1 0 1.282 6.431c5.327-1.068 14.877-3.963 22.273-10.456 5.003-4.393 9.007-10.383 10.126-18.485a3.27 3.27 0 0 0-6.483-.87c-.869 6.297-4.014 10.982-7.949 14.436-6.276 5.511-14.59 8.01-19.249 8.944" fill="#5E453B"/><g transform="translate(0 76.8)"><mask id="h" fill="#fff"><use xlink:href="#g"/></mask><path d="M40.446 114.41a3.268 3.268 0 1 0 6.482-.846c-.874-6.718-.43-12.932 1.483-20.936 1.964-8.226 5.496-18.417 10.725-32.886a3.27 3.27 0 1 0-6.149-2.23c-5.29 14.639-8.874 24.993-10.93 33.604-2.11 8.832-2.593 15.745-1.611 23.294" fill="#5E453B" mask="url(#h)"/><path d="M82.054 58.867c2.126.753 4.551 1.18 7.126 1.18 8.41 0 15.229-4.547 15.229-10.155 0-4.408-4.214-8.16-10.1-9.563 3.698-1.853 6.093-4.802 6.093-8.125 0-5.608-6.818-10.155-15.229-10.155-.338 0-.674.008-1.006.023a6.92 6.92 0 0 0 .205-1.66c0-5.608-6.818-10.154-15.229-10.154-1.714 0-3.36.189-4.898.536-.823-5.09-7.286-9.053-15.14-9.053-8.41 0-15.228 4.546-15.228 10.154 0 .153.005.305.016.456a22.715 22.715 0 0 0-2.42-.128c-8.41 0-15.229 4.546-15.229 10.154 0 2.037.9 3.933 2.448 5.523-2.006 1.702-3.214 3.841-3.248 6.168a22.662 22.662 0 0 0-3.207-.226c-8.41 0-15.228 4.546-15.228 10.154S3.827 54.15 12.237 54.15c.398 0 .791-.01 1.18-.031 1.544 4.519 7.605 7.892 14.85 7.892.836 0 1.657-.046 2.458-.133.647 5.21 7.193 9.304 15.175 9.304 6.492 0 12.034-2.71 14.225-6.524 2.194.817 4.723 1.283 7.415 1.283 6.8 0 12.559-2.972 14.514-7.075" fill="#497944" mask="url(#h)"/><path d="M58.804 50.421c2.126.752 4.551 1.179 7.126 1.179 8.41 0 15.227-4.547 15.227-10.154 0-4.408-4.212-8.16-10.099-9.563 3.7-1.853 6.092-4.802 6.092-8.125 0-5.608-6.817-10.155-15.227-10.155-.338 0-.674.008-1.005.022.132-.54.203-1.094.203-1.66 0-5.36-6.228-9.748-14.122-10.127-7.413.684-13.122 4.926-13.122 10.057 0 .153.005.305.016.456a22.715 22.715 0 0 0-2.42-.128c-8.41 0-15.229 4.546-15.229 10.154 0 2.037.9 3.933 2.448 5.523-2.006 1.702-3.214 3.841-3.248 6.168a22.662 22.662 0 0 0-3.207-.226c-8.41 0-15.228 4.546-15.228 10.154 0 4.34 4.083 8.044 9.83 9.497.212-.017.424-.037.636-.06l.03.217c1.49.324 3.08.5 4.732.5.398 0 .791-.01 1.182-.03 1.542 4.519 7.603 7.892 14.848 7.892h.043c3.929-1.05 7.05-3.16 8.565-5.8 2.194.818 4.723 1.284 7.415 1.284 6.8 0 12.558-2.972 14.514-7.075" fill="#5B9053" mask="url(#h)"/><path d="M1.04 122.028a3.77 3.77 0 1 0 7.396-1.473c-1.217-6.083-2.434-20.301-2.593-34.85-.12-10.906.353-21.961 1.866-29.827a3.765 3.765 0 0 0-7.395-1.414C-1.29 62.81-1.794 74.39-1.67 85.765c.166 15.096 1.438 29.9 2.71 36.263" fill="#5E453B" mask="url(#h)"/><path d="M-14.195 24.02c-5.539 3.582-9.134 9.35-9.134 15.856 0 1.31.147 2.59.425 3.829-6.929 3.347-11.624 9.818-11.624 17.254 0 10.77 9.848 19.517 22.065 19.674 3.595 6.65 11.308 11.249 20.245 11.249 5.726 0 10.949-1.889 14.909-4.993a25.31 25.31 0 0 0 6.247.775c12.37 0 22.4-8.81 22.4-19.677 0-7.167-4.362-13.438-10.88-16.879.6-1.777.925-3.66.925-5.61 0-7.877-5.27-14.67-12.88-17.815a17.565 17.565 0 0 0 1.68-7.485C30.182 9.331 20.152.52 7.781.52c-12.37 0-22.4 8.811-22.4 19.678 0 1.308.147 2.586.423 3.822" fill="#578D44" mask="url(#h)"/><path d="M-14.195 24.02c-5.539 3.582-9.134 9.35-9.134 15.856 0 1.31.147 2.59.425 3.829-6.929 3.347-11.624 9.818-11.624 17.254 0 1.99.336 3.91.96 5.719a25.17 25.17 0 0 0 6.101.822c3.595 6.65 11.31 11.249 20.246 11.249 5.725 0 10.949-1.889 14.909-4.993 1.983.505 4.079.776 6.246.776 12.372 0 22.4-8.81 22.4-19.678 0-7.166-4.361-13.438-10.88-16.878.6-1.778.925-3.66.925-5.61 0-7.877-5.269-14.671-12.88-17.815a17.558 17.558 0 0 0 1.68-7.485c0-1.99-.337-3.91-.962-5.72A25.299 25.299 0 0 0 7.782.52c-12.37 0-22.4 8.811-22.4 19.678 0 1.308.147 2.586.423 3.822" fill="#70B053" mask="url(#h)"/></g><path d="M425.496 145.057a3.277 3.277 0 1 0 1.206-6.444c-1.698-.318-4.089-1.116-6.353-3.247-2.42-2.277-4.716-6.072-6.03-12.399a3.279 3.279 0 0 0-6.418 1.335c1.631 7.858 4.688 12.764 7.956 15.839 3.423 3.222 7.055 4.431 9.639 4.916" fill="#5E453B"/><path d="M432.18 113.222a3.277 3.277 0 0 0-6.52-.668c-.637 6.043-1.592 16.394-1.912 27.928-.322 11.572.005 24.298 1.95 34.994a3.273 3.273 0 1 0 6.443-1.156c-1.852-10.184-2.158-22.454-1.847-33.659.313-11.245 1.257-21.46 1.886-27.439" fill="#5E453B"/><path d="M414.029 95.8c-10.313 0-18.671 6.36-18.671 14.206 0 5.777 4.531 10.748 11.037 12.968 1.92 6.292 9.334 10.98 18.188 10.98 7.515 0 13.992-3.379 16.954-8.248.826.086 1.671.13 2.53.13 10.31 0 18.67-6.36 18.67-14.206 0-6.544-5.813-12.052-13.724-13.702-2.254-5.92-9.43-10.246-17.937-10.246-7.448 0-13.877 3.318-16.873 8.118h-.174" fill="#578D44"/><path d="M414.029 95.8c-10.313 0-18.671 6.36-18.671 14.206 0 1.364.252 2.682.724 3.93.997.541 2.068 1.01 3.198 1.396.79 2.587 2.508 4.901 4.871 6.731.717.34 1.466.646 2.244.911.073.237.153.471.242.705 3.055 1.658 6.793 2.634 10.831 2.634 7.515 0 13.992-3.38 16.954-8.248.828.085 1.671.13 2.53.13 10.311 0 18.672-6.36 18.672-14.207 0-1.363-.254-2.681-.725-3.93a21.592 21.592 0 0 0-5.886-2.13c-2.254-5.92-9.43-10.246-17.937-10.246-7.448 0-13.877 3.318-16.873 8.118h-.174" fill="#70B053"/><g transform="translate(434.88 78.72)"><mask id="j" fill="#fff"><use xlink:href="#i"/></mask><path d="M38.491 87.425a3.754 3.754 0 1 0 2.358-7.129c-1.306-.435-3.883-3.254-6.283-8.38-1.843-3.938-3.354-9.073-3.793-15.336a3.765 3.765 0 0 0-7.512.5c.51 7.276 2.305 13.327 4.5 18.017 3.34 7.136 7.986 11.413 10.73 12.328" fill="#3F2F29" mask="url(#j)"/><path d="M33.222 120.112a3.762 3.762 0 0 0 7.483.765c.16-1.54.431-3.932.731-6.599 2.184-19.344 6.114-54.153 1.705-85.016a3.764 3.764 0 1 0-7.453 1.06c4.274 29.915.412 64.123-1.735 83.13-.258 2.294-.49 4.35-.731 6.66" fill="#3F2F29" mask="url(#j)"/><path d="M53.86 7.33l.223.217-.222-.216zM30.588 58.48l-.123.021c-.151.026-.3.051-.452.075l-.14.022c-.165.025-.33.05-.496.072l-.092.013c-.17.023-.338.044-.508.064l-.094.012a45.28 45.28 0 0 1-.517.054l-.116.011a30.07 30.07 0 0 1-.521.045l-.029.003-.015.001h-.013c-.187.015-.374.028-.563.04l-.067.003c-.196.01-.393.02-.59.028h-.007a33.15 33.15 0 0 1-.623.018h-.003c-.21.005-.42.006-.631.006-13.564 0-24.56-8.366-24.56-18.686 0-.143.002-.286.007-.429l.003-.094c.005-.14.011-.28.02-.42l.005-.062.031-.382.008-.076c.015-.138.03-.274.048-.41l.013-.092c.019-.136.038-.27.06-.406l.002-.01V37.9l.001-.005c.023-.137.049-.274.076-.41l.017-.086c.028-.138.058-.274.09-.41l.013-.055c.029-.125.06-.249.093-.372l.017-.067c.037-.136.076-.271.116-.406l.02-.066c.04-.129.081-.256.123-.383l.01-.029.001-.003.007-.019c.042-.125.087-.249.132-.373l.035-.092c.048-.128.098-.256.15-.384l.023-.055c.048-.118.098-.236.151-.354l.027-.063c.058-.128.117-.257.179-.385l.03-.063c.062-.126.123-.252.188-.376l.007-.015.002-.004.001-.002c.063-.12.127-.24.193-.359l.057-.102c.065-.118.133-.236.202-.352l.039-.064c.061-.102.123-.204.186-.303l.058-.095c.072-.112.145-.224.22-.335l.06-.089c.079-.116.16-.232.24-.347l.004-.003.003-.005c.083-.117.169-.233.255-.348l.06-.08c.086-.113.174-.225.262-.338l.033-.04c.085-.105.171-.21.258-.313l.052-.064c.094-.11.19-.22.287-.33l.05-.056c.088-.1.179-.198.27-.297l.067-.072c.09-.095.18-.19.272-.283l.081-.085c.1-.1.2-.2.302-.298l.073-.07.27-.256.07-.065c.108-.1.218-.197.328-.295l.076-.066c.103-.09.205-.178.31-.266l.036-.03.008-.008.01-.008c.111-.092.222-.184.336-.274l.088-.07c.115-.092.23-.182.347-.272l.083-.061c.105-.08.211-.158.318-.236l.066-.05.368-.26.1-.07c.126-.086.253-.171.38-.255l.004-.003.01-.005c.128-.085.257-.168.388-.25l.1-.063c.125-.078.25-.156.376-.232l.116-.068.303-.176.131-.076c.125-.07.25-.14.377-.209l.127-.069c.12-.064.242-.128.364-.19l.049-.027.012-.005-.114-.27-.025-.063c-.049-.12-.097-.242-.143-.363l-.03-.08c-.046-.124-.09-.248-.132-.373l-.024-.07a15.18 15.18 0 0 1-.129-.404l-.007-.024a16.813 16.813 0 0 1-.12-.415l-.015-.056c-.036-.14-.072-.279-.104-.418l-.003-.011-.007-.031a11.891 11.891 0 0 1-.091-.417l-.003-.015-.006-.026a14.637 14.637 0 0 1-.076-.419l-.007-.042a13.887 13.887 0 0 1-.067-.446v-.003c-.02-.154-.039-.307-.054-.462l-.001-.01-.002-.014a14.424 14.424 0 0 1-.038-.46v-.011a11.856 11.856 0 0 1-.024-.461v-.02a15.512 15.512 0 0 1-.008-.472C10.038 8.603 21.034.236 34.598.236c.191 0 .382.003.572.006l.148.003.455.013.13.005c.184.008.37.016.554.027l.122.008c.152.008.301.019.451.03l.154.012c.148.011.295.025.443.038l.125.01.539.058.127.016.444.055.138.02c.173.024.345.048.516.075l.032.004.074.013c.146.023.292.047.437.072l.172.03c.145.025.29.052.434.081l.096.018c.172.034.343.07.514.106l.146.032.4.09.14.034c.172.04.344.083.515.126l.001.001c.164.042.328.087.492.132l.173.049c.117.032.232.066.347.1l.173.05c.153.047.306.094.459.143l.162.053.325.109.18.062.33.117.196.071c.134.05.269.1.402.152l.18.071.304.122.158.065c.15.062.297.124.443.188l.134.06.305.136.201.094.263.125.172.083c.133.064.264.13.395.197l.207.108.21.111.22.118.185.103c.151.084.3.17.45.256l.112.066.24.143.182.113.208.129.014.008.325.21.004.002.197.132.17.115.225.155.153.11.196.14c.103.074.205.15.306.225l.013.01.222.17.123.096.23.182.046.04c.15.12.298.243.443.367l.13.111.193.171.12.109.199.18c.09.084.18.168.267.253l.222.216.067.067.226.23.014.014c.154.16.306.321.454.485l.036.04.19.215.098.114.174.204.002.002c.077.092.153.184.227.277l.153.194.096.124.171.227.047.064c.112.152.222.306.328.46l.052.074.155.233.062.096.16.25.228-.002c13.565 0 24.56 8.367 24.56 18.688a16 16 0 0 1-.006.43l-.005.124c-.004.116-.01.23-.017.346l-.006.094c-.01.146-.022.291-.036.436l-.004.044c-.014.127-.029.254-.045.38l-.018.128c-.014.106-.03.211-.047.317l-.018.112a11.89 11.89 0 0 1-.076.411l-.018.09c-.024.113-.048.226-.074.338l-.028.118c-.027.113-.054.224-.084.335l-.021.08c-.038.14-.077.276-.118.413l-.025.082a20.19 20.19 0 0 1-.102.317l-.047.14c-.036.102-.072.205-.11.306l-.031.09-.152.388-.045.108c-.04.097-.082.194-.124.291l-.056.125c-.056.126-.114.252-.174.377l-.002.005c-.062.127-.125.253-.19.379l-.063.121-.137.256-.078.14a15.17 15.17 0 0 1-.207.361l-.032.053c-.06.1-.12.197-.181.295l-.092.146-.163.248-.077.118c-.077.113-.155.224-.235.337l-.078.108-.183.249-.098.13-.196.252-.072.09c-.088.111-.178.222-.27.33l-.094.112-.199.23-.103.115-.209.23-.176.189-.208.217-.135.137-.184.181-.142.139-.226.214-.184.169-.235.211-.128.112-.223.192-.138.115c-.1.085-.203.168-.306.251l-.192.152-.18.14-.178.136-.23.17-.143.105-.343.244-.186.126-.206.139-.183.12-.229.148-.171.109-.338.208-.012.007-.237.14-.164.096-.248.142-.153.085c-.136.074-.272.148-.41.221l-.21.112-.218.111-.218.109-.232.114-.208.099-.39.18-.222.1-.24.105-.21.089-.253.106-.01.004-.387.155-.243.093-.207.079-.276.1-.189.068-.27.094h-.001c-2.526 8.276-12.278 14.443-23.924 14.443-4.587 0-8.88-.958-12.554-2.624z" fill="#416A3D" mask="url(#j)"/><path d="M53.86 7.33l.223.217-.222-.216zM3.358 49.14c-1.869-2.638-2.93-5.653-2.93-8.858 0-.143.002-.286.007-.429l.003-.094c.005-.14.011-.28.02-.42l.005-.062.031-.382.008-.076c.015-.138.03-.274.048-.41l.013-.092c.019-.136.038-.27.06-.406l.002-.01V37.9l.001-.005c.023-.137.049-.274.076-.41l.017-.086c.028-.138.058-.274.09-.41l.013-.055c.029-.125.06-.249.093-.372l.017-.067c.037-.136.076-.271.116-.406l.02-.066c.04-.129.081-.256.123-.383l.01-.029.001-.003.007-.019c.042-.125.087-.249.132-.373l.035-.092c.048-.128.098-.256.15-.384l.023-.055c.048-.118.098-.236.151-.354l.027-.063c.058-.128.117-.257.179-.385l.03-.063c.062-.126.123-.252.188-.376l.007-.015.002-.004.001-.002c.063-.12.127-.24.193-.359l.057-.102c.065-.118.133-.236.202-.352l.039-.064c.061-.102.123-.204.186-.303l.058-.095c.072-.112.145-.224.22-.335l.06-.089c.079-.116.16-.232.24-.347l.004-.003.003-.005c.083-.117.169-.233.255-.348l.06-.08c.086-.113.174-.225.262-.338l.033-.04c.085-.105.171-.21.258-.313l.052-.064c.094-.11.19-.22.287-.33l.05-.056c.088-.1.179-.198.27-.297l.067-.072c.09-.095.18-.19.272-.283l.081-.085c.1-.1.2-.2.302-.298l.073-.07.27-.256.07-.065c.108-.1.218-.197.328-.295l.076-.066c.103-.09.205-.178.31-.266l.036-.03.008-.008.01-.008c.111-.092.222-.184.336-.274l.088-.07c.115-.092.23-.182.347-.272l.083-.061c.105-.08.211-.158.318-.236l.066-.05.368-.26.1-.07c.126-.086.253-.171.38-.255l.004-.003.01-.005c.128-.085.257-.168.388-.25l.1-.063c.125-.078.25-.156.376-.232l.116-.068.303-.176.131-.076c.125-.07.25-.14.377-.209l.127-.069c.12-.064.242-.128.364-.19l.049-.027.012-.005-.114-.27-.025-.063c-.049-.12-.097-.242-.143-.363l-.03-.08c-.046-.124-.09-.248-.132-.373l-.024-.07a15.18 15.18 0 0 1-.129-.404l-.007-.024a16.813 16.813 0 0 1-.12-.415l-.015-.056c-.036-.14-.072-.279-.104-.418l-.003-.011-.007-.031a11.891 11.891 0 0 1-.091-.417l-.003-.015-.006-.026a14.637 14.637 0 0 1-.076-.419l-.007-.042a13.887 13.887 0 0 1-.067-.446v-.003c-.02-.154-.039-.307-.054-.462l-.001-.01-.002-.014a14.424 14.424 0 0 1-.038-.46v-.011a11.856 11.856 0 0 1-.024-.461v-.02a15.512 15.512 0 0 1-.008-.472C10.038 8.603 21.034.236 34.598.236c.191 0 .382.003.572.006l.148.003.455.013.13.005c.184.008.37.016.554.027l.122.008c.152.008.301.019.451.03l.154.012c.148.011.295.025.443.038l.125.01.539.058.127.016.444.055.138.02c.173.024.345.048.516.075l.032.004.074.013c.146.023.292.047.437.072l.172.03c.145.025.29.052.434.081l.096.018c.172.034.343.07.514.106l.146.032.4.09.14.034c.172.04.344.083.515.126l.001.001c.164.042.328.087.492.132l.173.049c.117.032.232.066.347.1l.173.05c.153.047.306.094.459.143l.162.053.325.109.18.062.33.117.196.071c.134.05.269.1.402.152l.18.071.28.112.14.199.051.074.155.233.062.095.16.25.228-.001c.377 0 .752.008 1.127.021l.172.087.207.108.21.111.22.118.185.103c.151.084.3.17.45.256l.112.066.24.143.182.113.208.129.014.008.325.21.004.002.197.132.17.115.225.155.153.11.196.14c.103.074.205.15.306.225l.013.01.222.17.123.096.23.182.046.04c.15.12.298.243.443.367l.13.111.193.171.12.109.199.18c.09.084.18.168.267.253l.222.216.067.067.226.23.014.014c.154.16.306.321.454.485l.036.04.19.215.098.114.174.204.002.002c.077.092.153.184.227.277l.153.194.096.124.171.227.047.064c.112.152.222.306.328.46l.052.074.155.233.062.096.16.25.228-.002c4.188 0 8.13.798 11.58 2.204 1.868 2.637 2.93 5.653 2.93 8.858 0 .144-.003.288-.008.431l-.004.124c-.005.115-.01.23-.018.346l-.005.095c-.01.145-.022.29-.037.435l-.004.044c-.014.127-.028.253-.045.38l-.017.129c-.015.105-.03.21-.048.315l-.017.113c-.023.137-.049.274-.076.41l-.02.09a9.728 9.728 0 0 1-.073.339l-.028.118-.084.336-.02.08c-.038.138-.077.275-.119.412l-.025.082a12.18 12.18 0 0 1-.102.317l-.046.139a18.93 18.93 0 0 1-.11.308l-.032.088c-.05.13-.1.26-.152.388l-.045.109c-.04.097-.08.194-.124.29l-.055.125a12.94 12.94 0 0 1-.175.378l-.002.005a14.89 14.89 0 0 1-.19.379l-.062.122-.138.255-.077.14a15.17 15.17 0 0 1-.207.361l-.033.053c-.059.099-.119.197-.18.295l-.093.146-.162.247-.079.118c-.075.114-.153.225-.233.337l-.08.11-.181.247-.098.13-.197.253-.07.09c-.09.111-.18.222-.271.331l-.095.11-.2.23-.102.116-.208.23-.176.189-.21.216-.135.138-.183.181-.142.138-.227.215-.182.168-.236.212-.128.112-.223.192-.137.115c-.102.085-.203.168-.306.25l-.192.152-.18.14-.18.137-.229.17-.143.104a19.53 19.53 0 0 1-.343.244l-.186.127-.206.14-.182.12-.229.147-.172.11c-.111.07-.224.139-.338.207l-.011.007-.237.14-.165.097-.248.14-.154.086c-.135.074-.271.148-.408.221l-.212.111-.216.112-.219.11-.231.113-.208.098c-.13.062-.26.121-.391.18l-.222.1-.24.106-.21.089-.253.106-.01.004-.387.155-.243.093-.207.078-.276.101-.188.067-.272.095c-2.526 8.276-12.278 14.443-23.924 14.443-4.588 0-8.88-.958-12.555-2.624l-.122.021c-.15.026-.301.051-.452.075l-.14.022c-.165.025-.33.05-.495.072l-.092.013c-.17.023-.338.044-.508.064l-.095.011c-.172.02-.344.038-.517.055l-.115.01c-.174.017-.347.032-.521.046l-.03.003h-.015l-.012.002c-.187.014-.375.027-.564.038l-.067.004c-.195.01-.392.02-.589.028h-.008c-.207.008-.414.014-.623.018h-.003c-.21.005-.42.007-.63.007-4.188 0-8.13-.799-11.579-2.204z" fill="#497944" mask="url(#j)"/></g><path d="M107.292 182.965c10.363 0 18.816-5.894 18.816-13.12 0-7.229-8.453-13.123-18.816-13.123-10.364 0-18.816 5.894-18.816 13.122 0 7.227 8.452 13.121 18.816 13.121" fill="#497944"/><path d="M86.54 164.697c10.362 0 18.815-5.895 18.815-13.122s-8.453-13.12-18.816-13.12-18.816 5.893-18.816 13.12c0 7.227 8.453 13.122 18.816 13.122" fill="#497944"/><path d="M84.677 182.365c10.363 0 18.815-5.895 18.815-13.122s-8.452-13.122-18.815-13.122c-10.364 0-18.816 5.895-18.816 13.122s8.452 13.122 18.816 13.122" fill="#497944"/><path d="M61.644 175.917c10.364 0 18.816-5.894 18.816-13.122 0-7.227-8.452-13.121-18.816-13.121-10.364 0-18.816 5.894-18.816 13.12 0 7.229 8.452 13.123 18.816 13.123" fill="#497944"/><path d="M46.542 186.064c10.364 0 18.816-5.894 18.816-13.121s-8.452-13.122-18.816-13.122c-10.363 0-18.815 5.895-18.815 13.122s8.452 13.121 18.815 13.121" fill="#497944"/><g transform="translate(0 146.88)"><mask id="l" fill="#fff"><use xlink:href="#k"/></mask><path d="M33.62 26.966c10.363 0 18.816-5.894 18.816-13.12C52.436 6.617 43.983.722 33.62.722S14.804 6.618 14.804 13.845s8.453 13.121 18.816 13.121" fill="#497944" mask="url(#l)"/><path d="M15.043 35.752c10.363 0 18.815-5.894 18.815-13.122 0-7.227-8.452-13.121-18.815-13.121-10.364 0-18.817 5.894-18.817 13.121 0 7.228 8.453 13.122 18.817 13.122" fill="#497944" mask="url(#l)"/></g><path d="M44.837 176.427c5.567 0 10.107-3.166 10.107-7.048 0-3.883-4.54-7.049-10.107-7.049-5.566 0-10.107 3.166-10.107 7.049 0 3.882 4.54 7.048 10.107 7.048m51.873-2.349c6.897 0 12.523-3.924 12.523-8.734 0-4.81-5.626-8.733-12.524-8.733-6.898 0-12.524 3.923-12.524 8.733 0 4.81 5.626 8.734 12.524 8.734" fill="#5B9053"/><path d="M85.271 159.477c7.876 0 14.3-4.48 14.3-9.972 0-5.493-6.424-9.973-14.3-9.973-7.877 0-14.3 4.48-14.3 9.973 0 5.492 6.423 9.972 14.3 9.972m-25.284 9.515c7.296 0 13.246-4.15 13.246-9.237 0-5.088-5.95-9.239-13.246-9.239s-13.247 4.15-13.247 9.239c0 5.088 5.95 9.237 13.247 9.237" fill="#5B9053"/><path d="M80.758 169.817c5.566 0 10.107-3.166 10.107-7.048s-4.54-7.048-10.107-7.048c-5.567 0-10.107 3.166-10.107 7.048s4.54 7.048 10.107 7.048" fill="#5B9053"/><path d="M79.651 181.101c7.296 0 13.247-4.15 13.247-9.238 0-5.088-5.95-9.237-13.247-9.237-7.296 0-13.246 4.149-13.246 9.237s5.95 9.238 13.246 9.238" fill="#5B9053"/><path d="M57.31 179.901c7.296 0 13.246-4.15 13.246-9.238 0-5.088-5.95-9.238-13.246-9.238s-13.246 4.15-13.246 9.238c0 5.088 5.95 9.238 13.246 9.238" fill="#5B9053"/><path d="M33.917 170.631c8.095 0 14.698-4.604 14.698-10.25s-6.603-10.251-14.698-10.251c-8.097 0-14.7 4.605-14.7 10.25 0 5.647 6.603 10.251 14.7 10.251" fill="#5B9053"/><g transform="translate(0 158.4)"><mask id="n" fill="#fff"><use xlink:href="#m"/></mask><path d="M27.608 23.672c7.295 0 13.246-4.15 13.246-9.237 0-5.088-5.951-9.239-13.246-9.239-7.296 0-13.247 4.15-13.247 9.239 0 5.088 5.95 9.237 13.247 9.237" fill="#5B9053" mask="url(#n)"/><path d="M11.332 16.159c6.228 0 11.309-3.544 11.309-7.887 0-4.344-5.08-7.887-11.31-7.887C5.103.385.023 3.928.023 8.272c0 4.343 5.08 7.887 11.31 7.887" fill="#5B9053" mask="url(#n)"/></g><g transform="translate(439.68 151.68)"><mask id="p" fill="#fff"><use xlink:href="#o"/></mask><path d="M18.072 24.769c9.547 0 17.334-5.43 17.334-12.088 0-6.658-7.787-12.089-17.334-12.089S.738 6.023.738 12.681s7.787 12.088 17.334 12.088" fill="#497944" mask="url(#p)"/><path d="M35.187 32.863c9.547 0 17.334-5.43 17.334-12.089 0-6.658-7.787-12.088-17.334-12.088s-17.335 5.43-17.335 12.088c0 6.659 7.788 12.089 17.335 12.089" fill="#497944" mask="url(#p)"/></g><path d="M447.419 178.826c5.128 0 9.31-2.917 9.31-6.493 0-3.576-4.182-6.493-9.31-6.493-5.129 0-9.311 2.917-9.311 6.493 0 3.576 4.182 6.493 9.31 6.493m-47.786-2.164c6.354 0 11.537-3.614 11.537-8.046 0-4.432-5.183-8.045-11.537-8.045-6.355 0-11.538 3.613-11.538 8.045s5.183 8.046 11.538 8.046" fill="#5B9053"/><path d="M403.936 170.067c7.257 0 13.174-4.127 13.174-9.187s-5.917-9.188-13.174-9.188c-7.255 0-13.173 4.128-13.173 9.188 0 5.06 5.918 9.187 13.173 9.187m29.527 1.909c6.721 0 12.203-3.822 12.203-8.51 0-4.687-5.482-8.51-12.203-8.51-6.722 0-12.203 3.823-12.203 8.51 0 4.688 5.481 8.51 12.203 8.51" fill="#5B9053"/><path d="M414.326 172.738c5.129 0 9.311-2.918 9.311-6.494 0-3.576-4.182-6.493-9.31-6.493-5.129 0-9.31 2.917-9.31 6.493 0 3.576 4.181 6.494 9.31 6.494" fill="#5B9053"/><path d="M415.346 183.132c6.722 0 12.203-3.823 12.203-8.51 0-4.688-5.481-8.51-12.203-8.51-6.721 0-12.203 3.822-12.203 8.51 0 4.687 5.482 8.51 12.203 8.51" fill="#5B9053"/><path d="M435.928 182.027c6.721 0 12.203-3.823 12.203-8.51 0-4.688-5.482-8.51-12.203-8.51-6.722 0-12.203 3.822-12.203 8.51 0 4.687 5.481 8.51 12.203 8.51" fill="#5B9053"/><path d="M457.48 173.487c7.459 0 13.541-4.242 13.541-9.443s-6.082-9.444-13.542-9.444c-7.458 0-13.541 4.243-13.541 9.444 0 5.201 6.083 9.443 13.541 9.443" fill="#5B9053"/><g transform="translate(450.24 162.24)"><mask id="r" fill="#fff"><use xlink:href="#q"/></mask><path d="M13.052 21.787c6.721 0 12.203-3.823 12.203-8.51 0-4.688-5.482-8.51-12.203-8.51C6.33 4.766.85 8.588.85 13.276c0 4.687 5.481 8.51 12.203 8.51" fill="#5B9053" mask="url(#r)"/><path d="M28.045 14.866c5.74 0 10.42-3.264 10.42-7.267 0-4-4.68-7.265-10.42-7.265-5.737 0-10.417 3.264-10.417 7.265 0 4.003 4.68 7.267 10.417 7.267" fill="#5B9053" mask="url(#r)"/></g><path d="M236.505 190.907c8.997 0 16.336-5.118 16.336-11.394 0-6.274-7.34-11.392-16.336-11.392-8.998 0-16.338 5.118-16.338 11.392 0 6.276 7.34 11.394 16.338 11.394" fill="#497944"/><path d="M263.208 184.59c8.998 0 16.337-5.119 16.337-11.394 0-6.274-7.339-11.393-16.337-11.393s-16.337 5.119-16.337 11.393c0 6.275 7.339 11.394 16.337 11.394" fill="#497944"/><path d="M237.94 176.263c8.998 0 16.337-5.119 16.337-11.394 0-6.274-7.34-11.393-16.337-11.393-8.998 0-16.336 5.119-16.336 11.393 0 6.275 7.338 11.394 16.336 11.394m126.1 6.394c8.998 0 16.337-5.117 16.337-11.393 0-6.275-7.34-11.392-16.337-11.392-8.998 0-16.338 5.117-16.338 11.392 0 6.276 7.34 11.393 16.338 11.393" fill="#497944"/><path d="M346.021 166.795c8.999 0 16.338-5.118 16.338-11.392 0-6.276-7.34-11.393-16.338-11.393-8.998 0-16.336 5.117-16.336 11.393 0 6.274 7.338 11.392 16.336 11.392" fill="#497944"/><path d="M344.404 182.136c8.998 0 16.337-5.118 16.337-11.392 0-6.276-7.34-11.394-16.337-11.394-8.998 0-16.337 5.118-16.337 11.394 0 6.274 7.339 11.392 16.337 11.392" fill="#497944"/><path d="M324.406 176.537c8.998 0 16.337-5.117 16.337-11.392 0-6.275-7.339-11.393-16.337-11.393s-16.337 5.118-16.337 11.393 7.339 11.392 16.337 11.392" fill="#497944"/><path d="M311.293 185.348c8.999 0 16.338-5.118 16.338-11.392 0-6.276-7.34-11.393-16.338-11.393-8.998 0-16.337 5.117-16.337 11.393 0 6.274 7.34 11.392 16.337 11.392" fill="#497944"/><path d="M300.074 174.74c8.998 0 16.337-5.118 16.337-11.393s-7.339-11.393-16.337-11.393-16.337 5.118-16.337 11.393 7.339 11.393 16.337 11.393" fill="#497944"/><path d="M283.944 182.368c8.998 0 16.337-5.118 16.337-11.393s-7.339-11.393-16.337-11.393-16.337 5.118-16.337 11.393 7.339 11.393 16.337 11.393" fill="#497944"/><path d="M309.813 176.98c4.834 0 8.775-2.749 8.775-6.12 0-3.37-3.941-6.118-8.775-6.118-4.833 0-8.775 2.748-8.775 6.119 0 3.37 3.942 6.12 8.775 6.12m45.039-2.041c5.988 0 10.873-3.405 10.873-7.582s-4.885-7.583-10.873-7.583c-5.99 0-10.874 3.406-10.874 7.583s4.884 7.583 10.874 7.583" fill="#5B9053"/><path d="M344.92 162.264c6.838 0 12.417-3.89 12.417-8.66 0-4.768-5.579-8.657-12.417-8.657-6.839 0-12.416 3.89-12.416 8.658 0 4.77 5.577 8.659 12.416 8.659m-21.954 8.261c6.335 0 11.502-3.603 11.502-8.021 0-4.417-5.167-8.02-11.502-8.02-6.334 0-11.5 3.603-11.5 8.02 0 4.418 5.166 8.02 11.5 8.02" fill="#5B9053"/><path d="M341.002 171.242c4.833 0 8.775-2.75 8.775-6.12s-3.942-6.12-8.775-6.12c-4.834 0-8.776 2.75-8.776 6.12s3.942 6.12 8.776 6.12" fill="#5B9053"/><path d="M340.042 181.039c6.334 0 11.5-3.603 11.5-8.021 0-4.418-5.166-8.02-11.5-8.02-6.335 0-11.502 3.602-11.502 8.02 0 4.418 5.167 8.02 11.502 8.02" fill="#5B9053"/><path d="M320.643 179.997c6.335 0 11.502-3.603 11.502-8.02 0-4.419-5.167-8.021-11.502-8.021-6.334 0-11.5 3.602-11.5 8.02 0 4.418 5.166 8.021 11.5 8.021" fill="#5B9053"/><path d="M300.331 171.948c7.03 0 12.763-3.997 12.763-8.9 0-4.902-5.734-8.9-12.763-8.9-7.03 0-12.763 3.998-12.763 8.9 0 4.903 5.733 8.9 12.763 8.9" fill="#5B9053"/><path d="M294.853 181.882c6.335 0 11.501-3.603 11.501-8.021 0-4.417-5.166-8.02-11.5-8.02-6.336 0-11.502 3.603-11.502 8.02 0 4.418 5.166 8.02 11.501 8.02" fill="#5B9053"/><path d="M280.721 175.358c5.409 0 9.82-3.075 9.82-6.847 0-3.772-4.411-6.848-9.82-6.848-5.407 0-9.819 3.076-9.819 6.848s4.412 6.847 9.82 6.847" fill="#5B9053"/><path d="M284.979 167.62c.195-.575-.231-.916-.7-.998-.686-.12-1.29.342-.934 1.204.26.63 1.282.84 1.634-.205" fill="#F7D5AB"/><path d="M131.21 182.657c8.999 0 16.337-5.117 16.337-11.393 0-6.275-7.338-11.392-16.336-11.392-9 0-16.337 5.117-16.337 11.392 0 6.276 7.338 11.393 16.337 11.393" fill="#497944"/><path d="M149.228 166.795c8.998 0 16.337-5.118 16.337-11.392 0-6.276-7.339-11.393-16.337-11.393s-16.337 5.117-16.337 11.393c0 6.274 7.34 11.392 16.337 11.392" fill="#497944"/><path d="M150.846 182.136c8.998 0 16.337-5.118 16.337-11.392 0-6.276-7.34-11.394-16.337-11.394-8.998 0-16.338 5.118-16.338 11.394 0 6.274 7.34 11.392 16.338 11.392" fill="#497944"/><path d="M170.844 176.537c8.998 0 16.337-5.117 16.337-11.392 0-6.275-7.34-11.393-16.337-11.393-8.999 0-16.337 5.118-16.337 11.393s7.338 11.392 16.337 11.392" fill="#497944"/><path d="M183.956 185.348c8.998 0 16.337-5.118 16.337-11.392 0-6.276-7.339-11.393-16.337-11.393s-16.337 5.117-16.337 11.393c0 6.274 7.34 11.392 16.337 11.392" fill="#497944"/><path d="M195.176 174.74c8.998 0 16.337-5.118 16.337-11.393s-7.34-11.393-16.337-11.393c-8.998 0-16.338 5.118-16.338 11.393s7.34 11.393 16.338 11.393" fill="#497944"/><path d="M211.306 182.368c8.999 0 16.337-5.118 16.337-11.393s-7.338-11.393-16.337-11.393c-8.998 0-16.337 5.118-16.337 11.393s7.339 11.393 16.337 11.393" fill="#497944"/><path d="M185.436 176.98c4.834 0 8.776-2.749 8.776-6.12 0-3.37-3.942-6.118-8.776-6.118-4.832 0-8.775 2.748-8.775 6.119 0 3.37 3.943 6.12 8.775 6.12m-45.038-2.041c5.99 0 10.874-3.405 10.874-7.582s-4.884-7.583-10.874-7.583c-5.988 0-10.874 3.406-10.874 7.583s4.886 7.583 10.874 7.583" fill="#5B9053"/><path d="M150.33 162.264c6.838 0 12.416-3.89 12.416-8.66 0-4.768-5.578-8.657-12.417-8.657-6.838 0-12.415 3.89-12.415 8.658 0 4.77 5.577 8.659 12.415 8.659m21.955 8.261c6.335 0 11.5-3.603 11.5-8.021 0-4.417-5.165-8.02-11.5-8.02-6.336 0-11.502 3.603-11.502 8.02 0 4.418 5.166 8.02 11.502 8.02" fill="#5B9053"/><path d="M154.248 171.242c4.834 0 8.775-2.75 8.775-6.12s-3.941-6.12-8.775-6.12c-4.833 0-8.774 2.75-8.774 6.12s3.941 6.12 8.774 6.12" fill="#5B9053"/><path d="M155.209 181.039c6.334 0 11.5-3.603 11.5-8.021 0-4.418-5.166-8.02-11.5-8.02-6.335 0-11.502 3.602-11.502 8.02 0 4.418 5.167 8.02 11.502 8.02" fill="#5B9053"/><path d="M174.607 179.997c6.335 0 11.501-3.603 11.501-8.02 0-4.419-5.166-8.021-11.501-8.021-6.334 0-11.501 3.602-11.501 8.02 0 4.418 5.167 8.021 11.5 8.021" fill="#5B9053"/><path d="M194.92 171.948c7.028 0 12.762-3.997 12.762-8.9 0-4.902-5.734-8.9-12.763-8.9-7.03 0-12.763 3.998-12.763 8.9 0 4.903 5.733 8.9 12.763 8.9" fill="#5B9053"/><path d="M200.397 181.882c6.334 0 11.5-3.603 11.5-8.021 0-4.417-5.166-8.02-11.5-8.02-6.335 0-11.502 3.603-11.502 8.02 0 4.418 5.167 8.02 11.502 8.02" fill="#5B9053"/><path d="M214.528 175.358c5.409 0 9.82-3.075 9.82-6.847 0-3.772-4.411-6.848-9.82-6.848-5.408 0-9.819 3.076-9.819 6.848s4.41 6.847 9.82 6.847" fill="#5B9053"/><path d="M124.53 171.05c1.223-.188.243-2.726-.46-2.628-.704.1-.766 2.817.46 2.629m84.268-2.261c-.593-1.113 1.982-1.985 2.32-1.32.337.666-1.727 2.433-2.32 1.32" fill="#FFFFFE"/><path d="M214.196 167.807c.228-1.444-2.92-1.271-3.057-.442-.138.83 2.83 1.885 3.057.442" fill="#FFFFFE"/><path d="M211.58 170.101c1.223-.188.243-2.726-.462-2.628-.703.099-.764 2.818.461 2.628" fill="#FFFFFE"/><path d="M210.27 167.62c-.193-.575.232-.916.702-.998.686-.12 1.288.342.933 1.204-.26.63-1.282.84-1.634-.205" fill="#F7D5AB"/><path d="M235.794 172.89c7.516 0 13.647-3.603 13.647-8.02 0-4.418-6.13-8.021-13.647-8.021-7.516 0-13.646 3.603-13.646 8.02 0 4.418 6.13 8.021 13.646 8.021" fill="#5B9053"/><path d="M234.781 187.821c7.908 0 14.357-4.982 14.357-11.092 0-6.108-6.449-11.092-14.357-11.092-7.907 0-14.356 4.984-14.356 11.092 0 6.11 6.449 11.092 14.356 11.092" fill="#5B9053"/><path d="M260.48 182.652c9.252 0 16.798-3.915 16.798-8.715 0-4.801-7.546-8.717-16.798-8.717-9.252 0-16.797 3.916-16.797 8.717 0 4.8 7.545 8.715 16.797 8.715" fill="#5B9053"/><path d="M226.785 168.782c-.594-1.112 1.981-1.985 2.319-1.32.337.666-1.726 2.433-2.32 1.32" fill="#FFFFFE"/><path d="M232.182 167.8c.227-1.444-2.92-1.272-3.057-.442-.137.83 2.83 1.885 3.057.441" fill="#FFFFFE"/><path d="M229.565 170.094c1.224-.188.244-2.728-.46-2.629-.704.1-.765 2.818.46 2.629" fill="#FFFFFE"/><path d="M228.256 167.612c-.194-.575.232-.916.701-.997.687-.12 1.29.341.933 1.203-.259.63-1.28.84-1.634-.206" fill="#F7D5AB"/><path d="M265.066 175.382c.985-1.04 2.812 1.477 2.223 2.099-.59.622-3.207-1.058-2.223-2.099" fill="#FFFFFE"/><path d="M264.974 178.832c-.593-1.113 1.982-1.986 2.319-1.32.338.666-1.726 2.432-2.319 1.32" fill="#FFFFFE"/><path d="M270.372 177.849c.227-1.443-2.92-1.27-3.058-.441-.137.828 2.83 1.884 3.058.44" fill="#FFFFFE"/><path d="M268.355 175.072c1.147.5-.376 2.748-1.062 2.45-.686-.3-.085-2.948 1.062-2.45" fill="#FFFFFE"/><path d="M267.754 180.144c1.225-.19.243-2.727-.46-2.628-.704.098-.764 2.816.46 2.628" fill="#FFFFFE"/><path d="M266.445 177.662c-.194-.575.232-.915.702-.998.685-.12 1.288.343.933 1.204-.26.63-1.282.84-1.635-.206" fill="#F7D5AB"/><path d="M238.362 172.511c.985-1.04 2.813 1.477 2.223 2.099-.59.622-3.208-1.058-2.223-2.099" fill="#FFFFFE"/><path d="M238.27 175.96c-.593-1.112 1.982-1.985 2.32-1.319.337.666-1.727 2.432-2.32 1.32" fill="#FFFFFE"/><path d="M243.667 174.977c.229-1.443-2.92-1.27-3.056-.44-.138.828 2.829 1.884 3.056.44" fill="#FFFFFE"/><path d="M241.651 172.201c1.146.5-.375 2.747-1.062 2.448-.685-.299-.084-2.946 1.062-2.448" fill="#FFFFFE"/><path d="M241.05 177.273c1.225-.19.244-2.728-.46-2.629-.703.099-.765 2.817.46 2.629" fill="#FFFFFE"/><path d="M239.742 174.791c-.194-.575.232-.916.7-.998.687-.12 1.29.342.935 1.203-.26.63-1.282.84-1.635-.205" fill="#F7D5AB"/><path d="M256.34 172.175c.58-.613 1.656.87 1.309 1.236-.348.366-1.89-.623-1.31-1.236" fill="#FFFFFE"/><path d="M256.285 174.206c-.349-.655 1.168-1.169 1.367-.777.198.392-1.017 1.433-1.367.777" fill="#FFFFFE"/><path d="M259.465 173.628c.134-.85-1.72-.75-1.801-.26-.08.488 1.667 1.11 1.801.26" fill="#FFFFFE"/><path d="M258.276 171.992c.676.294-.22 1.618-.624 1.443-.405-.177-.05-1.737.624-1.443" fill="#FFFFFE"/><path d="M257.923 174.98c.721-.111.143-1.607-.27-1.55-.415.06-.452 1.66.27 1.55" fill="#FFFFFE"/><path d="M257.152 173.517c-.114-.338.137-.54.413-.587.404-.071.76.201.55.709-.153.37-.755.495-.963-.122" fill="#F7D5AB"/><path d="M227.913 180.79c.58-.614 1.657.869 1.31 1.235-.348.366-1.89-.623-1.31-1.236" fill="#FFFFFE"/><path d="M227.859 182.82c-.35-.655 1.167-1.169 1.366-.777.199.393-1.017 1.433-1.366.777" fill="#FFFFFE"/><path d="M231.038 182.242c.135-.85-1.72-.748-1.8-.26-.081.488 1.666 1.11 1.8.26" fill="#FFFFFE"/><path d="M229.85 180.607c.676.293-.22 1.617-.625 1.442-.404-.177-.05-1.737.625-1.442" fill="#FFFFFE"/><path d="M229.497 183.593c.72-.11.143-1.606-.271-1.548-.415.058-.451 1.66.27 1.548" fill="#FFFFFE"/><path d="M228.726 182.132c-.114-.339.136-.54.413-.588.404-.07.759.201.55.71-.154.37-.756.494-.963-.122" fill="#F7D5AB"/><path d="M268.28 168.303c.985-1.04 2.813 1.477 2.223 2.099-.59.622-3.207-1.058-2.222-2.099" fill="#FFFFFE"/><path d="M268.188 171.753c-.593-1.113 1.982-1.986 2.32-1.32.337.666-1.727 2.432-2.32 1.32" fill="#FFFFFE"/><path d="M273.586 170.77c.227-1.443-2.92-1.27-3.057-.441-.137.828 2.83 1.884 3.057.44" fill="#FFFFFE"/><path d="M271.57 167.993c1.146.5-.377 2.748-1.062 2.45-.687-.3-.086-2.948 1.062-2.45" fill="#FFFFFE"/><path d="M270.969 173.065c1.224-.19.243-2.727-.46-2.629-.704.1-.765 2.817.46 2.629" fill="#FFFFFE"/><path d="M269.66 170.583c-.194-.575.232-.915.701-.998.686-.12 1.29.343.933 1.204-.26.63-1.282.84-1.634-.206" fill="#F7D5AB"/><path d="M200.884 172.573c.984-1.04 2.812 1.477 2.222 2.099-.59.622-3.207-1.058-2.222-2.099" fill="#FFFFFE"/><path d="M200.792 176.023c-.594-1.113 1.981-1.986 2.318-1.32.338.666-1.726 2.432-2.318 1.32" fill="#FFFFFE"/><path d="M206.189 175.04c.227-1.443-2.92-1.27-3.058-.441-.137.829 2.83 1.885 3.058.44" fill="#FFFFFE"/><path d="M204.172 172.264c1.147.499-.376 2.747-1.061 2.448-.686-.3-.085-2.947 1.06-2.448" fill="#FFFFFE"/><path d="M203.572 177.335c1.224-.19.244-2.727-.46-2.628-.705.098-.765 2.816.46 2.628" fill="#FFFFFE"/><path d="M202.263 174.853c-.194-.575.232-.915.701-.998.686-.12 1.288.343.933 1.204-.26.63-1.281.84-1.634-.206" fill="#F7D5AB"/><path d="M172.291 169.232c.984-1.04 2.812 1.476 2.223 2.098-.59.622-3.208-1.058-2.223-2.098" fill="#FFFFFE"/><path d="M172.199 172.681c-.593-1.113 1.981-1.985 2.318-1.32.338.666-1.725 2.433-2.318 1.32" fill="#FFFFFE"/><path d="M177.596 171.698c.228-1.443-2.92-1.27-3.056-.44-.138.828 2.829 1.884 3.056.44" fill="#FFFFFE"/><path d="M175.58 168.922c1.146.499-.376 2.747-1.062 2.448-.685-.299-.085-2.947 1.062-2.448" fill="#FFFFFE"/><path d="M174.98 173.993c1.223-.189.243-2.727-.46-2.628-.704.099-.766 2.816.46 2.628" fill="#FFFFFE"/><path d="M173.67 171.512c-.193-.575.232-.916.702-.999.686-.12 1.288.343.933 1.204-.26.63-1.282.84-1.634-.205" fill="#F7D5AB"/><path d="M338.833 174.245c.985-1.04 2.813 1.476 2.222 2.098-.59.622-3.207-1.058-2.222-2.098" fill="#FFFFFE"/><path d="M338.74 177.694c-.592-1.113 1.982-1.985 2.32-1.319.338.665-1.726 2.432-2.32 1.32" fill="#FFFFFE"/><path d="M344.138 176.711c.228-1.443-2.92-1.27-3.057-.44-.137.828 2.83 1.884 3.057.44" fill="#FFFFFE"/><path d="M342.122 173.935c1.147.499-.375 2.747-1.062 2.448-.685-.299-.084-2.947 1.062-2.448" fill="#FFFFFE"/><path d="M341.521 179.006c1.225-.189.244-2.727-.46-2.628-.704.099-.764 2.817.46 2.628" fill="#FFFFFE"/><path d="M340.212 176.525c-.193-.575.233-.916.701-.999.687-.12 1.29.343.934 1.204-.26.63-1.281.84-1.635-.205" fill="#F7D5AB"/><path d="M240 165.834c-83.137 0-163.609 3.756-240 10.753V360h480V176.587c-76.391-6.997-156.864-10.753-240-10.753z" fill="#7FB058"/></g></svg>