<svg width="120" height="120" viewBox="0 0 120 120" xmlns="http://www.w3.org/2000/svg" xmlns:xlink="http://www.w3.org/1999/xlink"><defs><path id="a" d="M0 1.107h116.889V117.55H0z"/></defs><g fill="none" fill-rule="evenodd"><g transform="translate(1 2.343)"><mask id="b" fill="#fff"><use xlink:href="#a"/></mask><path d="M92.41 92.616c24.925-24.83 34.325-55.724 11.44-78.522C80.969-8.7 49.955.664 25.032 25.494.106 50.322-10.565 79.95 13.591 104.014c24.153 24.06 53.893 13.432 78.818-11.398" fill="#A4561F" mask="url(#b)"/></g><path d="M34.602 105.4l-.689-1.306c-.506-.862-1-2.066-1.48-3.631-.452-1.563-.75-3.444-.555-5.481.216-2.028.922-4.195 2.092-6.404 2.34-4.426 6.564-9.042 11.793-13.279 5.201-4.26 11.387-8.25 17.793-11.27 1.603-.72 3.22-1.41 4.813-1.993 1.635-.617 3.76-1.281 5.59-2.038 3.762-1.47 7.4-3.09 10.891-4.932 3.402-1.864 6.992-3.894 9.966-7.068 2.736-2.885 4.804-6.066 5.957-9.485 1.099-3.406 1.155-7.019-.052-9.85-1.2-2.86-3.508-4.515-5.362-5.142-1.9-.64-3.4-.525-4.35-.434-.964.118-1.454.267-1.454.267s.51.09 1.397.372c.87.26 2.153.767 3.316 1.776 1.207.952 2.121 2.534 2.208 4.361.172 1.81-.487 3.914-1.857 5.876-1.3 1.988-3.34 3.925-5.683 5.546-2.092 1.43-5.182 2.388-8.536 3.517-3.335 1.085-6.905 2.128-10.531 3.157-1.863.531-3.734 1.058-5.617 1.592-2.178.602-4.216 1.454-6.244 2.317C50 55.453 42.95 60.525 37.348 66.432c-5.576 5.867-9.743 12.776-11.09 19.672-.686 3.417-.546 6.789.293 9.53.735 2.774 2.175 4.829 3.461 6.232.617.717 1.239 1.305 1.844 1.746a8.883 8.883 0 0 0 1.47 1.031c.83.49 1.276.757 1.276.757" fill="#694A17"/><path d="M51.81 103.87c-5.126 1.735-8.575-6.55-3.63-8.822 8.763-4.026 19.89-5.36 25.895-13.692.809-1.124 2.695-.517 2.326.955-2.822 11.145-14.293 18.066-24.59 21.558m23.84-80.835c-6.58 3.08-13.872 3.774-20.517 6.825-8.15 3.732-15.308 8.931-22.346 14.422-1.217.95-2.702-.465-1.716-1.69 10.138-12.656 25.39-29.816 43.69-26.277 3.055.587 3.751 5.375.89 6.72" fill="#FF750F"/></g></svg>