<svg width="120" height="120" viewBox="0 0 120 120" xmlns="http://www.w3.org/2000/svg" xmlns:xlink="http://www.w3.org/1999/xlink"><defs><path id="a" d="M.467.34h9.945v38.825H.467z"/><path id="c" d="M.467.34h21.221v38.825H.467z"/><path id="e" d="M.335.34h24.252v38.825H.335z"/><path id="g" d="M.597.34H24.85v38.825H.597z"/><path id="i" d="M.2.34h24.253v38.825H.201z"/><path id="k" d="M.463.34h24.253v38.825H.463z"/><path id="m" d="M.066.34H24.32v38.825H.066z"/><path id="o" d="M.329.34H24.58v38.825H.33z"/><path id="q" d="M.591.34h24.253v38.825H.591z"/><path id="s" d="M.195.34H17.88v38.825H.195z"/><path id="u" d="M.458.34h5.559v38.825H.457z"/></defs><g fill="none" fill-rule="evenodd"><path fill="#FFF" d="M11.566 118.284h95.483V34.228H11.566z"/><path fill="#F85A7E" d="M18.343 118.284h8.73V34.228h-8.73zm14.622 0h8.73V34.228h-8.73zm14.621 0h8.73V34.228h-8.73zm14.622 0h8.73V34.228h-8.73zm14.621 0h8.73V34.228h-8.73zm14.621 0h8.73V34.228h-8.73z"/><path fill="#4D4D4D" d="M13.748 94.268h91.118V42.415H13.748z"/><path fill="#000" opacity=".232" d="M104.866 74.619L9.93 53.604v-3.002h94.937z"/><path d="M12.111 35.912c0 .425-.245.772-.545.772-.3 0-.546-.347-.546-.772V7.436c0-.425.246-.772.546-.772.3 0 .545.347.545.772v28.476z" fill="#FFF"/><path d="M23.842 13.214c-5.592 1.364-12.004 0-12.004 0V7.756s6.888 1.637 12.004 0l-4.092 2.728s1.773 2.047 4.092 2.73" fill="#F43D5E"/><path d="M12.725 6.663a1.16 1.16 0 1 1-2.32.001 1.16 1.16 0 0 1 2.32 0m92.141 29.248c0 .425-.245.772-.545.772-.3 0-.546-.347-.546-.772V7.436c0-.425.245-.772.546-.772.3 0 .545.347.545.772v28.476z" fill="#FFF"/><path d="M117.143 13.214c-5.592 1.364-12.004 0-12.004 0V7.756s6.888 1.637 12.004 0l-4.092 2.728s1.773 2.047 4.092 2.73" fill="#F43D5E"/><path d="M105.48 6.663a1.16 1.16 0 1 1-2.32.002 1.16 1.16 0 0 1 2.32-.002" fill="#FFF"/><path d="M95.815 23.311c0 12.51-15.677 22.652-35.015 22.652-19.34 0-35.017-10.141-35.017-22.652C25.783 10.801 41.461.66 60.8.66c19.338 0 35.015 10.14 35.015 22.65" fill="#F85A7E"/><path fill="#8BADA3" d="M3.016 58.98H114.68V20.156H3.016z"/><g transform="translate(2.55 19.816)"><mask id="b" fill="#fff"><use xlink:href="#a"/></mask><path fill="#E9B777" mask="url(#b)" d="M-8.15 39.52h-5.691L4.719-1.17h5.693z"/></g><g transform="translate(2.55 19.816)"><mask id="d" fill="#fff"><use xlink:href="#c"/></mask><path fill="#E9B777" mask="url(#d)" d="M3.128 39.52h-5.692l18.56-40.69h5.692z"/></g><g transform="translate(11.777 19.816)"><mask id="f" fill="#fff"><use xlink:href="#e"/></mask><path fill="#E9B777" mask="url(#f)" d="M6.026 39.52H.335l18.56-40.69h5.692z"/></g><g transform="translate(23.64 19.816)"><mask id="h" fill="#fff"><use xlink:href="#g"/></mask><path fill="#E9B777" mask="url(#h)" d="M6.29 39.52H.596l18.56-40.69h5.693z"/></g><g transform="translate(36.163 19.816)"><mask id="j" fill="#fff"><use xlink:href="#i"/></mask><path fill="#E9B777" mask="url(#j)" d="M5.893 39.52H.2L18.76-1.17h5.692z"/></g><g transform="translate(48.027 19.816)"><mask id="l" fill="#fff"><use xlink:href="#k"/></mask><path fill="#E9B777" mask="url(#l)" d="M6.155 39.52H.463l18.56-40.69h5.693z"/></g><g transform="translate(60.55 19.816)"><mask id="n" fill="#fff"><use xlink:href="#m"/></mask><path fill="#E9B777" mask="url(#n)" d="M5.759 39.52H.066l18.56-40.69h5.693z"/></g><g transform="translate(72.413 19.816)"><mask id="p" fill="#fff"><use xlink:href="#o"/></mask><path fill="#E9B777" mask="url(#p)" d="M6.021 39.52H.33L18.89-1.17h5.692z"/></g><g transform="translate(84.277 19.816)"><mask id="r" fill="#fff"><use xlink:href="#q"/></mask><path fill="#E9B777" mask="url(#r)" d="M6.283 39.52H.591L19.152-1.17h5.692z"/></g><g transform="translate(96.8 19.816)"><mask id="t" fill="#fff"><use xlink:href="#s"/></mask><path fill="#E9B777" mask="url(#t)" d="M5.887 39.52H.195l18.56-40.69h5.692z"/></g><g transform="translate(108.663 19.816)"><mask id="v" fill="#fff"><use xlink:href="#u"/></mask><path fill="#E9B777" mask="url(#v)" d="M6.15 39.52H.457l18.56-40.69h5.692z"/></g><path fill="#F43D5E" d="M8.472 53.522h100.751V25.615H8.473z"/><path d="M108.403 118.48a.897.897 0 0 1-.895.896h-96.64a.898.898 0 0 1-.896-.896v-.391c0-.493.403-.896.895-.896h96.64c.493 0 .896.403.896.896v.391z" fill="#8BADA3"/><path d="M110.322 94.06c0 .795-.76 1.446-1.69 1.446H9.597c-.93 0-1.692-.651-1.692-1.446 0-.796.762-1.446 1.692-1.446h99.035c.93 0 1.69.65 1.69 1.446" fill="#F43D5E"/><path d="M72.042 35.527l-.193-.694a2.705 2.705 0 0 0-1.37-4.921l-.405-1.45-30.801 8.588.363 1.302a2.709 2.709 0 0 0 1.454 5.219l.11.396a2.709 2.709 0 0 0 1.455 5.218l.367 1.319 30.8-8.59-.408-1.466a2.706 2.706 0 1 0-1.372-4.92z" stroke="#FFF" stroke-width="1.095" stroke-linejoin="round"/><path d="M62.037 38.639a1.294 1.294 0 0 0 .033-.57.099.099 0 0 0-.004-.027.327.327 0 0 1-.012-.056.387.387 0 0 0-.013-.056.186.186 0 0 0-.006-.05 1.424 1.424 0 0 0-.226-.502c-.087-.118-.173-.17-.26-.155l-.01.002-.011.004a.266.266 0 0 1-.022.006c-.01.004-.017.007-.02.014a.21.21 0 0 0-.095.083.342.342 0 0 0-.05.158c-.014.152-.004.31.026.473.032.164.072.336.12.518.005.02.017.056.036.11.017.053.036.105.058.157l.01.04a.197.197 0 0 1 .01.033c.017.043.034.082.046.117l.03.084a.573.573 0 0 0 .36-.383" fill="#FFF"/><path d="M66.366 39.247c-.45.13-.865.136-1.247.016-.382-.118-.637-.4-.766-.846l-.531-1.825-.271.08-.13-.448.018-.005.026-.008.022-.006.015-.004a.937.937 0 0 0 .58-.492c.133-.252.175-.526.127-.82l.645-.187.296 1.02.798-.234.13.448-.798.232.64 2.2c.052.18.155.288.308.322.153.035.32.027.502-.027l.226-.065.128.44-.718.209zm-3.17.933a3.55 3.55 0 0 1-.367.128c-.665.193-1.247.205-1.746.036-.5-.17-.841-.568-1.023-1.194-.162-.556-.127-1.046.105-1.47.232-.422.67-.727 1.315-.915a2.998 2.998 0 0 1 .467-.088c.253-.025.504-.006.753.059.249.066.45.204.601.413a.88.88 0 0 1 .102.161 1.1 1.1 0 0 1 .068.18c.072.265.038.546-.101.84-.14.296-.398.55-.775.766-.06.033-.116.066-.173.099a3.515 3.515 0 0 1-.17.089l-.061.033a.212.212 0 0 1-.056.025 1.688 1.688 0 0 1-.114.06l-.121.063c.1.2.25.318.445.356.196.039.393.031.59-.021l.026-.007.025-.008a1.624 1.624 0 0 0 .423-.187l.122.418a2.248 2.248 0 0 1-.335.164zm-4.456 1.287a2.338 2.338 0 0 0-.525-.71c-.217-.2-.459-.35-.728-.453l.41 1.409-1.707.496-.136-.469.248-.072-1.267-4.354-.248.073-.136-.47 1.706-.496.932 3.202.742-1.79.844-.245.136.469-.249.073-.492 1.152a3.056 3.056 0 0 1 1.783 1.293l.25-.073.136.47-1.7.495zm-3.241.96a8.214 8.214 0 0 1-.473.153c-.62.18-1.189.17-1.706-.032-.517-.202-.857-.581-1.018-1.139-.164-.56-.08-1.062.25-1.5.332-.437.807-.747 1.428-.927.136-.04.267-.074.392-.1.125-.024.244-.041.36-.048l.2.689-.667.194-.177-.25c-.17.086-.272.251-.305.493-.032.243-.002.523.09.84.006.02.012.038.02.054a.41.41 0 0 1 .019.055 3.412 3.412 0 0 0 .083.23c.164.419.381.682.652.792.27.11.54.125.808.047.004 0 .01-.003.018-.005a.276.276 0 0 1 .019-.006c.005 0 .01-.003.017-.005.008-.002.014-.005.02-.005a.874.874 0 0 0 .128-.05l.112-.053.121.418c-.118.05-.248.101-.391.155zm-4.65 1.338l-.893-3.072-.257.075-.137-.469 1.714-.5.905 3.108.264-.076.125.432-1.721.502zm-1.136.33c-.45.13-.865.137-1.247.017-.381-.12-.637-.402-.766-.846l-.531-1.826-.271.08-.13-.447.018-.005.025-.008a.228.228 0 0 1 .037-.01.937.937 0 0 0 .58-.493c.133-.252.176-.526.127-.82l.645-.186.297 1.018.798-.233.13.448-.799.232.641 2.199c.052.181.155.288.308.324.153.034.32.026.5-.027l.228-.066.128.44-.718.21zm-.177-5.525c.12-.17.29-.288.51-.353a.919.919 0 0 1 .62.024.582.582 0 0 1 .364.382.586.586 0 0 1-.103.52.91.91 0 0 1-.51.351.91.91 0 0 1-.619-.023.583.583 0 0 1-.365-.382.58.58 0 0 1 .103-.52zm18.234-7.501l-25.068 6.99 2.63 9.439 25.068-6.99-2.63-9.44z" fill="#FFF"/></g></svg>