<svg width="120" height="120" viewBox="0 0 120 120" xmlns="http://www.w3.org/2000/svg"><g fill="none" fill-rule="evenodd"><path d="M50.305 90.006H10.342c9.448-15.296 9.448-32.655 0-47.951h39.963c-9.452 15.296-9.452 32.655 0 47.95" fill="#DEAF30"/><path d="M60.294 42.055a6.398 6.398 0 0 1-6.396 6.395H6.748a6.395 6.395 0 0 1-6.395-6.395 6.393 6.393 0 0 1 6.395-6.396h47.15a6.396 6.396 0 0 1 6.396 6.396m0 47.951a6.399 6.399 0 0 0-6.396-6.396H6.748a6.396 6.396 0 0 0 0 12.792h47.15a6.396 6.396 0 0 0 6.396-6.396" fill="#DD9932"/><path d="M49.54 50.333c-.403 1.045-1.304 1.909-2.072 1.907H13.179c-.77.002-1.669-.862-2.072-1.907-.4-1.048-.096-1.883.744-1.883h36.946c.84.002 1.145.837.744 1.883" fill="#3196A0"/><path d="M48.282 54.174c-.302 1.07-1.087 1.941-1.812 1.941H14.178c-.726 0-1.51-.87-1.813-1.94-.299-1.074.036-1.935.814-1.935h34.289c.777.002 1.114.861.814 1.934" fill="#66BFB2"/><path d="M47.384 58.081c-.202 1.084-.885 1.977-1.579 1.977H14.843c-.698 0-1.377-.893-1.578-1.977-.201-1.09.18-1.966.913-1.966H46.47c.732 0 1.115.877.914 1.966" fill="#3196A0"/><path d="M46.843 62.056c-.098 1.09-.688 1.978-1.372 1.98H15.176c-.683 0-1.272-.89-1.372-1.98-.099-1.11.337-1.998 1.04-1.998h30.961c.701.001 1.139.89 1.038 1.998" fill="#66BFB2"/><path d="M46.664 66.03c0 1.1-.508 1.994-1.193 1.994H15.176c-.685 0-1.191-.894-1.191-1.993 0-1.1.506-1.997 1.191-1.995h30.295c.685 0 1.193.895 1.193 1.995" fill="#3196A0"/><path d="M46.843 70.02c.1 1.098-.337 1.978-1.039 1.98h-30.96c-.703 0-1.141-.883-1.04-1.98.102-1.1.689-1.994 1.372-1.996h30.295c.685 0 1.272.896 1.372 1.996" fill="#66BFB2"/><path d="M47.383 73.976c.201 1.092-.181 1.971-.913 1.971H14.178c-.734 0-1.114-.879-.912-1.97.2-1.09.882-1.98 1.577-1.977h30.961c.695-.002 1.377.888 1.579 1.976" fill="#3196A0"/><path d="M48.283 77.89c.301 1.074-.037 1.93-.815 1.93H13.179c-.778 0-1.116-.856-.814-1.93.302-1.07 1.087-1.943 1.813-1.943H46.47c.725-.003 1.51.873 1.813 1.944" fill="#66BFB2"/><path d="M49.54 81.728c.402 1.047.096 1.882-.743 1.882H11.85c-.84 0-1.145-.836-.744-1.882.403-1.046 1.302-1.909 2.072-1.909h34.289c.768 0 1.67.863 2.073 1.91" fill="#3196A0"/><path d="M113.323 54.45c-.085 4.428-3.03 7.6-6.653 9.744l-.07-.078c-3.86-4.437-4.408-9.614-2.722-15.128.848-2.775 4.267-7.97 7.098-4.23 1.907 2.522 2.405 6.63 2.347 9.692zm2.905 5.668c1.677-3.351 1.397-7.438.719-11.004-.623-3.269-1.927-7.232-4.965-9.03-3.624-2.145-7.742.215-9.963 3.25-2.804 3.82-3.434 9.257-3.144 13.848.215 3.432 1.878 6.287 3.969 8.877-2.672 1.074-5.494 1.817-8.298 2.392-5.419 1.118-10.696 1.424-15.704-1.266-2.361-1.266-3.84 2.615-1.514 3.866 8.468 4.548 19.91 2.107 28.417-1.736.682.716 1.362 1.429 2.013 2.13 5.613 6.068 9.805 15.446 6.497 23.678-1.702 4.23-6.83 6.474-10.926 7.613-5.212 1.447-9.993 1.007-15.209-.116-2.622-.563-3.057 3.568-.466 4.124 3.107.667 6.267 1.386 9.473 1.188 3.281-.203 6.471-.886 9.584-1.93 5.46-1.827 10.358-5.516 12.04-11.181 1.593-5.367.484-11.403-1.482-16.513-1.667-4.344-4.685-7.672-7.758-10.99 2.81-1.797 5.191-4.156 6.717-7.2z" fill="#DD4047"/><path d="M40.641 20.241h55.983c-13.234 21.428-13.234 45.747 0 67.176H40.641c13.241-21.429 13.241-45.748 0-67.176" fill="#DEAF30"/><path d="M26.645 87.417c0-4.945 4.015-8.957 8.96-8.957h66.056c4.95 0 8.96 4.012 8.96 8.957a8.956 8.956 0 0 1-8.96 8.959H35.605a8.96 8.96 0 0 1-8.96-8.959m0-67.176c0-4.95 4.015-8.96 8.96-8.96h66.056c4.95 0 8.96 4.01 8.96 8.96 0 4.945-4.01 8.96-8.96 8.96H35.605c-4.945 0-8.96-4.015-8.96-8.96" fill="#DEAF30"/><path d="M41.71 75.82c.565-1.464 1.83-2.675 2.907-2.672H92.65c1.08-.003 2.342 1.208 2.906 2.671.562 1.47.135 2.641-1.043 2.641H42.754c-1.177-.003-1.606-1.175-1.043-2.64" fill="#C12E37"/><path d="M43.476 70.439c.421-1.497 1.522-2.72 2.537-2.72h45.24c1.016 0 2.115 1.22 2.536 2.72.424 1.505-.048 2.71-1.14 2.71H44.617c-1.09-.004-1.566-1.205-1.141-2.71" fill="#DD4047"/><path d="M44.733 64.965c.282-1.519 1.237-2.768 2.212-2.768 14.46-.003 28.918-.003 43.375 0 .977 0 1.93 1.25 2.212 2.768.281 1.524-.252 2.755-1.28 2.755H46.013c-1.026 0-1.562-1.228-1.28-2.755" fill="#C12E37"/><path d="M45.491 59.397c.139-1.526.963-2.773 1.92-2.773h42.445c.955 0 1.78 1.247 1.918 2.773.141 1.553-.471 2.8-1.454 2.8-14.457-.003-28.916-.003-43.375 0-.981-.003-1.596-1.247-1.454-2.8" fill="#DD4047"/><path d="M45.741 53.828c0-1.538.71-2.792 1.67-2.792h42.445c.959 0 1.667 1.254 1.667 2.792 0 1.54-.708 2.796-1.667 2.796H47.412c-.96 0-1.67-1.252-1.67-2.796" fill="#C12E37"/><path d="M45.489 48.24c-.14-1.537.473-2.77 1.457-2.773H90.32c.983 0 1.598 1.236 1.457 2.774-.144 1.54-.965 2.793-1.921 2.795H47.412c-.96 0-1.78-1.255-1.923-2.795" fill="#DD4047"/><path d="M44.734 42.699c-.282-1.531.253-2.761 1.279-2.761h45.24c1.027 0 1.56 1.23 1.278 2.76-.28 1.523-1.235 2.772-2.21 2.769H46.945c-.976.003-1.93-1.246-2.212-2.768" fill="#C12E37"/><path d="M43.475 37.214c-.424-1.504.05-2.702 1.142-2.702H92.65c1.091 0 1.564 1.198 1.142 2.702-.422 1.5-1.522 2.724-2.539 2.724h-45.24c-1.017.002-2.116-1.224-2.538-2.724" fill="#DD4047"/><path d="M41.71 31.838c-.563-1.464-.133-2.638 1.044-2.638h51.758c1.178 0 1.606 1.174 1.043 2.638-.564 1.466-1.826 2.674-2.906 2.674H44.617c-1.078 0-2.341-1.208-2.906-2.674" fill="#C12E37"/></g></svg>