<svg width="120" height="120" viewBox="0 0 120 120" xmlns="http://www.w3.org/2000/svg"><g fill="none" fill-rule="evenodd"><path d="M100.903 2.725a.622.622 0 0 1-.04-.877.617.617 0 0 1 .875-.042l2.931 2.68a.624.624 0 0 1 .04.879.618.618 0 0 1-.874.041l-2.932-2.68z" fill="#B3CAC0"/><path d="M100.987 3.558a.679.679 0 0 1-.963.045.686.686 0 0 1-.045-.967L101.563.89a.68.68 0 0 1 .964-.044.686.686 0 0 1 .045.966l-1.585 1.746z" fill="#FF4C51"/><path d="M97.693 6.264a.622.622 0 0 1-.04-.878.616.616 0 0 1 .874-.041l2.93 2.68a.622.622 0 0 1 .042.879.618.618 0 0 1-.875.04l-2.93-2.68z" fill="#B3CAC0"/><path d="M97.776 7.097a.681.681 0 0 1-.963.046.689.689 0 0 1-.046-.968l1.585-1.746c.253-.28.685-.3.965-.045a.687.687 0 0 1 .044.966l-1.585 1.747z" fill="#FF4C51"/><path d="M94.482 9.803a.622.622 0 0 1-.04-.878.618.618 0 0 1 .874-.041l2.932 2.68c.252.23.27.624.04.878a.617.617 0 0 1-.875.041l-2.93-2.68z" fill="#B3CAC0"/><path d="M94.566 10.635a.68.68 0 0 1-.963.046.686.686 0 0 1-.045-.968l1.584-1.747a.681.681 0 0 1 .963-.043.687.687 0 0 1 .045.966l-1.584 1.746z" fill="#FF4C51"/><path d="M109.142 21.524c.252.231.27.625.04.879a.617.617 0 0 1-.875.04l-2.93-2.68a.622.622 0 0 1-.042-.878.62.62 0 0 1 .875-.041l2.932 2.68z" fill="#B3CAC0"/><path d="M109.058 20.692a.68.68 0 0 1 .964-.045.687.687 0 0 1 .044.967l-1.583 1.746a.682.682 0 0 1-.965.045.687.687 0 0 1-.044-.967l1.584-1.746z" fill="#FF4C51"/><path d="M112.352 17.986a.622.622 0 0 1 .04.878.617.617 0 0 1-.873.041l-2.932-2.68a.623.623 0 0 1-.04-.879.616.616 0 0 1 .873-.04l2.932 2.68z" fill="#B3CAC0"/><path d="M112.27 17.153a.68.68 0 0 1 .962-.045c.278.254.3.688.045.967l-1.584 1.746a.68.68 0 0 1-.963.046.686.686 0 0 1-.045-.968l1.585-1.746z" fill="#FF4C51"/><path d="M115.562 14.447a.623.623 0 0 1 .041.878.618.618 0 0 1-.874.041l-3.912-3.577a.622.622 0 0 1-.042-.877.618.618 0 0 1 .876-.042l3.911 3.577z" fill="#B3CAC0"/><path d="M115.48 13.615a.68.68 0 0 1 .964-.045.685.685 0 0 1 .044.966l-1.584 1.746a.68.68 0 0 1-.964.047.687.687 0 0 1-.046-.968l1.586-1.746z" fill="#FF4C51"/><path d="M116.675 9.904a9.445 9.445 0 0 0-7.443-2.419A9.523 9.523 0 0 0 106.14.271L93.344 14.374c.005.003.009.005.011.009-2.46 2.92-2.2 7.29.644 9.881a7.082 7.082 0 0 0 9.845-.293c.013.01.024.024.036.035l12.795-14.102z" fill="#181F2A"/><path d="M55.473 60.242c-2.57-1.58-5.558 1.845-7.599.696-1.369-.77-2.442-3.119-1.78-5.478 1.654-5.882 5.427-5.268 6.005-8.988.985-6.326-13.131-5.261-17.247 4.238-4.116 9.5-1.002 12.07-7.333 17.959-4.583 4.265-16.185 2.103-22.219 17.88-3.959 10.352 4.528 20.684 9.277 25.256 1.822 1.756 2.602 2.242 2.602 2.242s13.718 11.096 27.59 2.738c15.234-9.178 6.009-22.968 16.003-25.416 8.682-2.127 15.578-10.404 14.07-15.17-1.506-4.766-7.1 2.893-12.102-1.206-5.239-4.295 2.72-5.734-2.265-10.828-1.21-1.236-2.974-2.677-5.002-3.923" fill="#E0292E"/><path d="M57.002 58.556c-2.568-1.58-5.557 1.846-7.6.696-1.368-.77-2.442-3.117-1.778-5.478 1.654-5.882 5.426-5.267 6.005-8.989.985-6.324-13.132-5.26-17.247 4.24-4.116 9.5-1.004 12.07-7.332 17.958-4.584 4.265-16.187 2.103-22.22 17.881-3.96 10.352 4.528 20.684 9.276 25.256 1.822 1.756 2.602 2.241 2.602 2.241s13.72 11.097 27.59 2.74c15.234-9.18 6.01-22.969 16.004-25.418 8.681-2.127 15.576-10.403 14.07-15.17-1.507-4.765-7.1 2.893-12.102-1.206-5.24-4.294 2.72-5.735-2.266-10.827-1.21-1.236-2.974-2.678-5.002-3.924" fill="#FF4C51"/><path fill="#FFAE22" d="M56.04 73.893l-7.72-7.059L94.059 17.78l6.377 5.83z"/><path d="M57.543 75.32c-.666.733-1.8.787-2.53.118l-7.796-7.126a1.804 1.804 0 0 1-.117-2.54 1.785 1.785 0 0 1 2.529-.119l7.795 7.127c.731.669.785 1.806.12 2.54" fill="#181F2A"/><path d="M49.223 86.519a1.784 1.784 0 0 1-2.529.117L36.55 77.362a1.803 1.803 0 0 1-.119-2.539 1.787 1.787 0 0 1 2.53-.119l10.144 9.275c.731.67.784 1.806.118 2.54" fill="#FFAE22"/><path d="M101.032 24.154a.588.588 0 0 1-.833.04l-6.697-6.123a.592.592 0 0 1 .794-.876l6.697 6.124c.24.22.258.594.04.835" fill="#B3CAC0"/><path d="M43.104 93.262a1.786 1.786 0 0 1-2.53.118L30.43 84.105a1.802 1.802 0 0 1-.117-2.538 1.786 1.786 0 0 1 2.53-.12l10.144 9.276c.731.668.784 1.806.117 2.54" fill="#FFAE22"/><path d="M30.954 106.655a1.636 1.636 0 0 1-2.318.107l-10.365-9.477a1.65 1.65 0 0 1-.11-2.326l2.43-2.68a1.636 1.636 0 0 1 2.318-.107l10.366 9.478c.67.613.718 1.654.11 2.326l-2.431 2.679zm17.044 1.272a2.111 2.111 0 0 1-2.99.14 2.13 2.13 0 0 1-.142-3.003 2.114 2.114 0 0 1 2.994-.14 2.13 2.13 0 0 1 .138 3.003m-6.505 4.013a2.113 2.113 0 0 1-2.992.14 2.133 2.133 0 0 1-.138-3.004 2.113 2.113 0 0 1 2.992-.14c.864.79.926 2.137.138 3.003" fill="#B3CAC0"/></g></svg>