<svg width="230" height="145" viewBox="0 0 230 145" xmlns="http://www.w3.org/2000/svg"><g fill="none"><path d="M158.222 104.45c-.525-3.076-2.52-6.727-5.51-8.217-4.037-2.023-17.57-4.16-24.61-4.152l.308 13.742c7.074-.825 18.22-2.41 19.02 2.74-.019 4.61-4.024 7.192-4.024 7.192s3.943 5.447 6.039 7.595c5.23-3.604 9.917-12.353 8.777-18.9zm-39.628 34.196l-.175.661c-3.535-.2-9.372-.297-12.323-.242-2.167.039-3.17-3.694-3.17-3.694l-9.166-25.333 14.296.509s7.264 20.328 10.538 28.1zm-63.711-1.35c-1.081-1.385-.724-5.18-.778-6.867-.06-2.334.053-4.669.338-6.985.553-4.66 1.431-9.313 2.334-13.919.898-4.668 2.333-9.262 3.842-13.762.72-2.129 1.415-4.273 2.17-6.394.389-1.139 4.667-11.086 5.833-11.54-.606 4.998 5.65 18 5.694 20.372.035 1.925-8.673 19.135-9.594 20.739-1.24 2.191-2.205 4.512-3.388 6.73-2.026 3.835-3.581 8.34-6.451 11.626z" fill="#BE0A3C"/><path d="M144.16 90.895c.898-2.438 2.131-6.625 2.131-6.625s3.819-10.514-4.791-17.835c-3.741-3.182-10.854-10.252-19.056-10.957 0 0-15.753 0-20.61-.391-8.945-.697-13.087 2.12-13.087 2.12-2.333.392-7.389 4.086-9.115 5.6a55.788 55.788 0 0 0-5.184 5.248c-3.59 4.14-7 8.636-8.272 14.087-1.205 5.122-1.229 10.675-.778 15.883.26 2.962.448 5.967.945 8.898.238 1.405 5.36 15.8 7.183 20.14.836 1.984 1.878 3.765 2.843 5.674.68 1.346 4.103 6.523 4.962 6.746 1.427.368 10.383.728 12.445-.172-1.031-8.076-5.371-15.687-6.079-23.83 9.78.152 25.834-.391 34.289-.391 8.454 0 15.166-9.184 17.41-14.044-.148-.22 3.512-6.739 4.764-10.15z" fill="#F01446"/><path d="M129.736 107.13c-1.676.216-11.822 1.887-13.537 2.164 2.115 3.323 9.115 18.814 12.615 25.729.93 1.835 3.073 4.304 3.073 4.304s9.037.106 12.623-.215c-.163-.321-13.214-30.499-14.774-31.982z" fill="#F01446"/><path d="M116.77 15.526c-2.64-2.246-4.631-10.749.592-9.931 2.667 1.663 6.856 4.77 8.326 7.638-2.466.665-6.386 1.824-8.917 2.293z" fill="#BE0A3C"/><path d="M96.984 27.03c-1.322 1.667-2.267 3.522-3.605 5.205-1.73-1.722-7.898-6.586-5.11-9.305 2.419-2.36 7.28 2.124 8.715 4.1z" fill="#A0640A"/><path d="M110.175 18.304c-1.688 1.174-3.683 3.287-5.444 4.344-2.12-1.48-6.398-9.43-2.509-10.503 2.334-.642 7.61 3.894 7.953 6.16zm29.653-4.547c-2.645-.39-6.187-.113-8.824-.39-2.252-1.922-3.111-9.275 1.128-7.827 2.574.888 6.584 5.87 7.696 8.217z" fill="#BE0A3C"/><path d="M86.83 58.585c-2.139-.884-11.667-7.07-6.825-9.634 1.361-.72 6.673 1.495 7.206 2.998.296.841-.381 5.439-.381 6.636z" fill="#A0640A"/><path d="M87.639 44.74c-1.894-1.435-7.42-5.5-6.448-8.412 1.14-3.432 7.389.188 8.82 1.538a24.68 24.68 0 0 0-2.372 6.875z" fill="#BE0A3C"/><path d="M165.81 42.487c-1.556-2.594-3.528-6.234-5.056-8.761 1.485-2.184 8.05-14.706 9.158-17.147 2.64-.846 1.124 9.391.957 10.471-.564 3.717-2.808 12.303-5.06 15.437z" fill="#E6781E"/><path d="M177.562 69.675c-1.039-4.52-4.228-13.305-4.228-13.305l-3.772-2.527-25.173-.321 1.902 30.76s11.095-.031 16.244 0c3.041.024 6.078.208 9.108.391 2.31.145 5.573.45 7.8-.39.74-4.685-.84-10.053-1.881-14.608z" fill="#C8C8BE"/><path d="M161.442 29.79a57.245 57.245 0 0 0-7.284-8.457 38.69 38.69 0 0 0-9.578-6.676 16.123 16.123 0 0 0-4.107-1.44c-1.248-.219-4.013-1.056-5.27-.626-4.079-.872-8.636-.211-12.731.313a34.85 34.85 0 0 0-8.225 2.027c-1.501.58-5.923 2.837-6.331 3.064-4.881 2.712-13.125 10.378-13.635 10.957-3.725 4.222-7.074 10.091-7.513 15.378a35.797 35.797 0 0 0-.49 14.185c0 3.615 2.302 7.204 4.64 9.782 2.484 2.716 5.72 5.933 9.721 5.772 4.36-.176 3.5-4.343 5.367-6.957 1.727-2.415 5.184-4.457 7.875-2.297 5.41 4.343 2.722 15.578 10.018 18.336 3.407 1.288 7.828.838 11.41.959s10.982.176 10.982.176 3.811-11.708 6.397-17.217c1.816-3.859 4.095-6.793 7.304-8.73a17.994 17.994 0 0 1 6.327-2.078 31.39 31.39 0 0 1 7 .094s-2.928-9.392-6.432-17.218c-1.828-4.14-5.06-8.808-5.445-9.348z" fill="#F04650"/><path d="M142.943 25.966s3.858 6.16 7.326 10.855c.922 1.248 3.154 3.913 5.371 4.844 2.92 1.245 5.783.392 5.23-1.956-.66-2.786-6.148-9.666-9.57-13.762-.455-.54-1.556-2.024-2.835-2.712-3.208-1.73-7.533-2.152-5.522 2.731z" fill="#F01446"/><path d="M170.581 53.479a5.918 5.918 0 0 1-2.57.908c-1.638.16-3.291.04-4.889-.357-1.85-.65-1.691-4.304-.851-5.76 1.19-2.046 3.523-3.78 5.086-5.564 1.431-1.636 3.084-4.277 4.966-5.412.992 2.814.778 5.952.335 8.848-.358 2.324-.856 6.386-2.077 7.337zm-38.543-5.949s-11.406.357-11.137-2.077c.369-3.373 2.251-7.188 3.5-10.3 1.407-3.52 7.272-18.543 9.263-18.782 1.174.76-1.626 31.16-1.626 31.16z" fill="#FFC800"/><path d="M172.91 80.001c-.1.47-.859 1.472-5.592 1.472-4.732 0-6.222-1.135-6.354-1.914-.132-.779 2.586-1.146 6.611-1.146S173 79.528 172.911 80zm-42.486-18.9l.778-.391c.634.7 1.221 3.248-.249 3.4-1.47.153-.847-2.304-.529-3.009zm46.741-1.71l.778-.391c.634.7 1.22 3.248-.25 3.4-1.47.153-.85-2.289-.528-3.009z" fill="#000"/><path d="M170.706 72.406l.777-.391c.63.7 1.218 3.248-.252 3.4-1.47.153-.844-2.305-.525-3.009zm-6.759-.184l.777-.391c.63.7 1.218 3.248-.252 3.4-1.47.153-.844-2.304-.525-3.009z" fill="#828278"/></g></svg>