<svg xmlns="http://www.w3.org/2000/svg" width="54.523" height="80.352" viewBox="-0.455 -0.115 54.523 80.352"><defs><style/></defs><g id="ID0.19021361554041505"><path id="ID0.8817562349140644" d="M293 349c4.652-.288 9.333 0 14 0 23.633.214 31.283 28.189 15 41 5.344 8.989 7.869 20.797 15 28v4c-1.615-.281-1.722.945-3 1 .111 2.555 1.833 3.5 3 5v3c-6.573 2.093-10.972 6.361-17 9-6.299-9.368-8.229-23.104-15-32-4.903 5.752 1.208 16.764 0 25-.303 2.059-3.121.27-3.85 1.5-1.173 1.813.797 5.288-1.15 6.5-3.721 2.309-9.61.39-13 2h-5c-3.722-28.777-3.604-51.526-7-78 0-1.667-1.079-3.734 0-5 1.656-1.928 5.377-1.285 6.9-3.4 1.209-1.553-1.596-4.791.1-6 3.016-2.144 7.546-1.056 11-1.6zm24 6c-9.359-.901-21.497-5.547-32 0 4.196 30.318 1.008 51.84 6 76 4.294-.039 7.363-1.304 10-3-1.496-13.613-9.548-32.38 9-33 2.623 12.043 10.665 18.669 14 30 3.489-1.511 7.171-2.829 9-6-6.622-8.711-10.729-19.938-16-30 10.989-6.866 13.697-27.939 0-34z" transform="translate(-232.5 -295.3) scale(.84712)"/><path id="ID0.7739334432408214" fill="#FF9400" d="M317 389c5.271 10.062 9.378 21.289 16 30-1.829 3.171-5.511 4.489-9 6-3.335-11.331-11.377-17.957-14-30-18.548.62-10.496 19.387-9 33-2.637 1.696-5.706 2.961-10 3-4.992-24.16-1.804-45.682-6-76 10.503-5.547 22.641-.901 32 0 13.697 6.061 10.989 27.134 0 34zm-22-28c1.71 11.964.776 18.391 3 28 11.231-3.102 20.894-7.773 22-21-4.192-6.305-14.996-9.645-25-7z" transform="translate(-232.5 -295.3) scale(.84712)"/><path id="ID0.5371424774639308" d="M320 368c-1.106 13.227-10.769 17.898-22 21-2.224-9.609-1.29-16.036-3-28 10.004-2.645 20.808.695 25 7zm-20 16c4.734-2.6 12.46-2.207 11-11-2.455-2.212-6.69-2.643-11-3v14z" transform="translate(-232.5 -295.3) scale(.84712)"/></g></svg>