<svg width="120" height="120" viewBox="0 0 120 120" xmlns="http://www.w3.org/2000/svg" xmlns:xlink="http://www.w3.org/1999/xlink"><defs><path id="a" d="M.303.671H118.59v119.268H.303z"/></defs><g transform="translate(1)" fill="none" fill-rule="evenodd"><mask id="b" fill="#fff"><use xlink:href="#a"/></mask><path d="M113.562 71.996l-17.704 4.753-6.181-3.575 9.99-2.682a4.002 4.002 0 0 0 2.823-4.901 3.993 3.993 0 0 0-4.891-2.83l-16.363 4.394c.457-2.078-.781-4.168-2.853-4.724l-7.92-2.126 7.92-2.125c2.072-.557 3.31-2.646 2.853-4.724l16.363 4.394a3.993 3.993 0 0 0 4.891-2.83 4.002 4.002 0 0 0-2.824-4.9l-9.989-2.683 6.181-3.575 17.704 4.753a3.993 3.993 0 0 0 4.89-2.83 4.002 4.002 0 0 0-2.823-4.9l-15.444-4.147 4.138-15.475a4.002 4.002 0 0 0-2.824-4.9 3.992 3.992 0 0 0-4.891 2.83L91.865 36.93l-6.181 3.576 2.676-10.009a4.002 4.002 0 0 0-2.824-4.9 3.992 3.992 0 0 0-4.89 2.829l-4.385 16.395a3.978 3.978 0 0 0-5.509.115l-5.797 5.807 2.123-7.934a3.995 3.995 0 0 0-2.657-4.837L76.399 25.97a4.007 4.007 0 0 0 0-5.66 3.987 3.987 0 0 0-5.647 0l-7.312 7.33v-7.151L76.4 7.502a4.007 4.007 0 0 0 0-5.659 3.987 3.987 0 0 0-5.648 0L59.446 13.171 48.14 1.843a3.987 3.987 0 0 0-5.647 0 4.007 4.007 0 0 0 0 5.66l12.96 12.985v7.15l-7.313-7.326a3.987 3.987 0 0 0-5.647 0 4.007 4.007 0 0 0 0 5.659L54.47 37.973a3.993 3.993 0 0 0-2.655 4.837l2.121 7.934-5.797-5.807a3.976 3.976 0 0 0-5.508-.115l-4.384-16.395a3.994 3.994 0 0 0-4.892-2.83 4.003 4.003 0 0 0-2.824 4.901l2.676 10.009-6.18-3.576-4.743-17.738a3.993 3.993 0 0 0-4.891-2.83 4.001 4.001 0 0 0-2.824 4.9l4.137 15.475-15.444 4.147a4 4 0 0 0-2.823 4.9 3.992 3.992 0 0 0 4.89 2.83l17.705-4.753 6.18 3.575-9.989 2.682a4.001 4.001 0 0 0-2.823 4.901 3.991 3.991 0 0 0 4.89 2.829l16.363-4.393c-.456 2.078.782 4.167 2.853 4.724l7.92 2.125-7.92 2.126c-2.07.556-3.309 2.646-2.852 4.724L21.293 62.76a3.992 3.992 0 0 0-4.89 2.83 4.001 4.001 0 0 0 2.823 4.9l9.99 2.683-6.181 3.575L5.33 71.996a3.992 3.992 0 0 0-4.89 2.83 4 4 0 0 0 2.823 4.9l15.444 4.146-4.137 15.475a4.002 4.002 0 0 0 2.824 4.9 3.993 3.993 0 0 0 4.89-2.829l4.745-17.739 6.18-3.575-2.677 10.009a4.003 4.003 0 0 0 2.824 4.9 3.994 3.994 0 0 0 4.892-2.829l4.384-16.396a3.977 3.977 0 0 0 5.508-.114l5.797-5.808-2.121 7.935a3.993 3.993 0 0 0 2.655 4.837L42.493 94.64a4.007 4.007 0 0 0 0 5.66 3.988 3.988 0 0 0 5.647 0l7.312-7.328v7.151l-12.96 12.985a4.007 4.007 0 0 0 0 5.66 3.988 3.988 0 0 0 5.648 0l11.306-11.329 11.306 11.329a3.988 3.988 0 0 0 5.647 0 4.007 4.007 0 0 0 0-5.66l-12.96-12.985v-7.15l7.313 7.326a3.988 3.988 0 0 0 5.647 0 4.007 4.007 0 0 0 0-5.66l-11.978-12a3.995 3.995 0 0 0 2.657-4.837l-2.123-7.935 5.797 5.808a3.979 3.979 0 0 0 5.51.114l4.384 16.396a3.992 3.992 0 0 0 4.89 2.83 4.002 4.002 0 0 0 2.824-4.901l-2.676-10.01 6.18 3.576 4.744 17.739a3.992 3.992 0 0 0 4.891 2.83 4.003 4.003 0 0 0 2.824-4.901l-4.138-15.474 15.444-4.147a4.002 4.002 0 0 0 2.824-4.9 3.993 3.993 0 0 0-4.891-2.83" fill="#70A8E2" mask="url(#b)"/></g></svg>