<svg width="120" height="120" viewBox="0 0 120 120" xmlns="http://www.w3.org/2000/svg" xmlns:xlink="http://www.w3.org/1999/xlink"><defs><path id="a" d="M.012.157H3.07v3.029H.012z"/><path id="c" d="M0 119.843h51.734V.401H0z"/></defs><g transform="translate(35 1)" fill="none" fill-rule="evenodd"><path d="M18.901 67.865s.925.676 2.026.506c1.1-.168 3.471-.914 3.598-7.328l-2.12.205-3.504 6.617z" fill="#6EBCBC"/><path d="M21.713 68.159s2.77-5.633 2.812-7.116l1.101-.507s1.143 3.105-1.1 7.452c0 0-2.45.716-2.813.17" fill="#9DD6E6"/><path d="M28.419 60.278s.086 4.426-1.184 5.269l-1.609-.827v-4.184s3.017-3.333 2.793-.258" fill="#9DD6E6"/><path d="M30.877 57.202s-2.033 9.357-.34 10.663h-6.012l.848-4.215s5.842-13.11 5.504-6.448" fill="#23888A"/><path d="M32.856 56.303s-1.133 11.098 1.111 11.858l-3.43-.296-.888-.673s.241-10.24 1.242-10.727l1.965-.162z" fill="#6EBCBC"/><path d="M23.548 61.45s.85 1.285.977-.406c0 0 .678-.393.848 2.606 0 0 1.47-1.98 2.428-4.72 0 0 .63.379.387 1.606 0 0 1.219-1.753.667-2.274 0 0 .635-1.768 1.174-2.325 0 0 1.06-.675.848 1.265 0 0 1.016-1.054 2.138-.885l.275-2.994-1.185-.686s-8.265 5.6-8.557 8.813" fill="#004348"/><path d="M32.766 53.02l1.201.772s-.327-9.18-1.2-11.304l-1.277-4.173-1.652.949 2.928 13.756z" fill="#6EBCBC"/><path d="M16.952 67.865s4.593 1.428 5.454-5.477c0 0-5.363 1.768-5.454 5.477" fill="#A2D6D6"/><path d="M27.58 40.364s3.66-.338 1.566-5c0 0 1.36.769 1.877 5.498l.87-.498.338-2.806-1.095-.928 1.879-2.192s-2.79-1.686-2.718-4.216c0 0-.058-2.027-2.083-3.102 0 0-1.286 10.865-.804 12.883" fill="#C4E6F5"/><path d="M15.93 68.16l4.03-4.172s2.22-.823 2.906-2.277c0 0 5.13-1.834 6.084-3.605 0 0-2.714-1.133-1.149-1.833 1.424-.637 5.214-3.415 5.214-3.415l-2.54-15.302-1.334-2.807s.048 4.793-1.21 5.21c0 0-7.226 19.392-10.979 22.722 0 0 .375 1.812-1.022 4.405 0 0-.889 1.011 0 1.075" fill="#9DD6E6"/><path d="M25.626 48.402s-2.36 6.27-4.398 8.293l-3.852 2.613s.041-2.254.927-4.162c0 0 5.885-7.953 7.323-6.744" fill="#005A67"/><path fill="#23888A" d="M26.335 18.055l3.15-2.301-2.23 2.827zm-1.595-.383l.68-3.242v3.415zm-1.86.909l-1.905-2.444 2.667 1.708zm4.467.145l3.588-.87-3.376 1.37-.402.201zm.233 1.774l3.355.221-3.376-.97zm-4.911-1.919H18.39l3.917.846zm5.395 9.665s-.105 13.775-.263 16.936c0 0-4.6 7.525-7.84 8.916 0 0 3.19-1.562 8.103-25.852"/><path d="M27.801 29.185S25.296 49.04 19.96 54.098c0 0-2.84 2.404-1.801 0 0 0 .352-1.518 1.17-1.896 0 0-1.276-2.215-.895-3.763 0 0 8.635-19.065 9.367-19.254" fill="#9DD6E6"/><path d="M18.159 46.34v2.656s7.11-14.378 8.008-16.91c.021-.063.04-.118.054-.165.596-1.978-8.062 12.186-8.062 14.42" fill="#6EBCBC"/><path d="M21.708 22.877l5.702.406s.127 3.078.804 3.837h-1.27l-8.256 8.726-.254-1.807" fill="#C4E6F5"/><path fill="#8FCFC7" d="M17.503 29.185l.162.948h-.4v.569l.4.317-.713.759 1.948 2.971 2.329-8.346.478-3.526-.733-.173z"/><path d="M22.06 23.146s1.706 2.624 3.02 3.256c0 0 2.432.098 2.5-4.15 0 0-4.56-1.772-5.52.894" fill="#23888A"/><path d="M22.938 22.346s.83 2.76 2.292 2.633c0 0 1.83-.24 2.18-2.633 0 0-.244-3.09-2.578-2.614 0 0-2.153 1.466-1.894 2.614" fill="#8FCFC7"/><path d="M27.74 20.882s.433-3.374-2.658-3.206c0 0-3.921-.32-3.295 3.508l2.448-1.757s3.156.152 3.504 1.455" fill="#C4E6F5"/><path d="M26.63 21.501c0 .175-.3.317-.669.317h-1.596c-.369 0-.668-.142-.668-.317 0-.175.3-.317.668-.317h1.596c.369 0 .668.142.668.317m-.799 1.961c0 .175-.129.316-.29.316h-.754c-.161 0-.29-.14-.29-.316 0-.174.129-.316.29-.316h.754c.161 0 .29.142.29.316" fill="#23888A"/><path d="M25.527 22.308c0 .219-.164.396-.364.396-.2 0-.363-.177-.363-.396v-.729c0-.218.163-.395.363-.395.2 0 .364.177.364.395v.73z" fill="#23888A"/><path d="M22.06 23.146s2.217-1.929 3.191-3.236c0 0 1.439-.252 1.779 1.855 0 0 .465 1.424.761-.173 0 0 .255-1.886-1.904-2.479 0 0-5.605-.89-3.826 4.033" fill="#004769"/><path fill="#23888A" d="M16.648 26.64l-.31 1.344 1.165 1.201 3.027-4.873z"/><path d="M17.384 20.535s-3.353 2.826-.982 5.945c0 0 2.752 1.307 4.826-3.54 0 0-.025-6.663-3.844-2.405m1.299-16.939a.675.675 0 0 1-.677.674h-.683a.674.674 0 1 1 0-1.347h.683c.374 0 .677.302.677.673" fill="#137878"/><path d="M18.9 6.442c0 .687-.322 1.243-.72 1.243h-1.324c-.398 0-.72-.556-.72-1.243s.322-1.244.72-1.244h1.324c.398 0 .72.557.72 1.244" fill="#8FCFC7"/><path d="M18.392 7.307s1.566 1.342.508 3.768c0 0-.155 3.143.367 4.365 0 0 .691.885.437 4.679 0 0 .536.338.056 1.518 0 0-.86 2.024-1.707 2.572 0 0-.831-4.583-1.272-6.956-.05-.271-.136-.51-.133-.716.012-1.368.94-4.515.304-5.462 0 0 .89-3.976 1.44-3.768" fill="#6EA9AD"/><path d="M18.053 12.405a.55.55 0 0 1-.55.548.549.549 0 0 1-.55-.548V9.746a.55.55 0 1 1 1.1 0v2.659z" fill="#8FCFC7"/><path d="M18.392 7.685c0 .209-.17.378-.38.378h-1.497a.379.379 0 1 1 0-.756h1.497c.21 0 .38.17.38.378" fill="#137878"/><path d="M18.392 8.442a.38.38 0 0 1-.38.378h-1.496a.379.379 0 0 1 0-.757h1.496c.21 0 .38.17.38.379m0 .756a.38.38 0 0 1-.379.378h-1.497a.38.38 0 0 1-.38-.378.38.38 0 0 1 .38-.378h1.497c.21 0 .38.17.38.378" fill="#137878"/><g transform="translate(16.124 .244)"><mask id="b" fill="#fff"><use xlink:href="#a"/></mask><path d="M.48.737s-1.397 1.814.635 2.446c0 0 2.668.169 1.398-1.981 0 0-.571-.649.14-.846.059-.016.126-.03.202-.04C3.868.19.941-.29 1.434 1.412c0 0-.064.169-.953-.675" fill="#C4E6F5" mask="url(#b)"/></g><path d="M18.434 40.862l.508 1.263-1.566 3.035s.084 1.35.782 1.18c0 0 6.02-12.083 7.056-13.27l-1.233-.218s-5.59 6.493-5.547 8.01" fill="#8FCFC7"/><path d="M18.688 35.847s-2.583 2.823-1.736 5.015h1.482s2.499-4.806 5.631-6.745c0 0 4.377-3.343 4.15-6.997l-1.058-.48-8.469 9.207z" fill="#81C5C9"/><path d="M21.708 21.586s.51-2.433 3.597-2.435c.383 0 1.731-.066 2.434 1.731 0 0 .653-2.784-2.751-2.964 0 0-3.915.127-3.28 3.668" fill="#23888A"/><path d="M24.525 51.055s-1.173 8.76-7.573 11.626l.424-3.373 7.15-8.253z" fill="#004348"/><path d="M16.952 67.865s2.294-1.087 2.902-3.768c0 0-3.396 2.63-3.638 3.768h.736z" fill="#23888A"/><path d="M31.136 36.63l3.435-4.449 4.127 2.225-4.985 8.461h-.817s-2.24-5.297-1.76-6.237m-3.979-9.99s.56-.723 1.057.48l-1.057-.48z" fill="#81C5C9"/><mask id="d" fill="#fff"><use xlink:href="#c"/></mask><path fill="#9DD6E6" mask="url(#d)" d="M14.2 70.235h21.916v-2.37H14.2z"/><path fill="#373031" mask="url(#d)" d="M16.014 73.725h18.983V71.07H16.014z"/><path fill="#6C5F5C" mask="url(#d)" d="M14.2 71.533h21.916v-1.298H14.2zm1.059 3.963h20.493v-1.771H15.26z"/><path fill="#373031" mask="url(#d)" d="M13.524 79.205h23.964v-1.77H13.524z"/><path fill="#6C5F5C" mask="url(#d)" d="M14.2 96.742h22.61V79.204H14.2z"/><path fill="#373031" mask="url(#d)" d="M13.308 98.004h24.394v-1.262H13.308z"/><path fill="#6C5F5C" mask="url(#d)" d="M39.647 100.701H11.364l.508-2.697h26.25z"/><path fill="#9B998A" mask="url(#d)" d="M12.63 104.749h25.75v-4.047H12.63z"/><path fill="#6C5F5C" mask="url(#d)" d="M10.517 109.133h29.976v-4.384H10.517z"/><path fill="#7A7A6D" mask="url(#d)" d="M5.055 114.022h40.9v-4.889h-40.9z"/><path fill="#9B998A" mask="url(#d)" d="M0 119.843h51.734v-5.82H0zm31.317-32.376h-2.731v-6.062h.38v-.418h1.97v.418h.381v6.062zm-4.382 0h-2.731v-6.062h.381v-.418h1.969v.418h.381v6.062zm-4.383 0h-2.731v-6.062h.38v-.418h1.971v.418h.38v6.062zm-4.286 8.695h14.48V79.785h-14.48v16.377zM37.75 74.057a.5.5 0 0 0-.5.497v.941H13.76v-.94a.5.5 0 0 0-.999 0v3.385h25.49v-3.385a.5.5 0 0 0-.501-.498"/><path d="M20.395 5.198a1.14 1.14 0 0 1-1.142 1.137h-3.176a1.14 1.14 0 0 1-1.143-1.137c0-.63.512-1.138 1.143-1.138h3.176a1.14 1.14 0 0 1 1.142 1.138" fill="#6EA9AD" mask="url(#d)"/></g></svg>