<svg xmlns="http://www.w3.org/2000/svg" width="194.282" height="140.007" viewBox="-2.145 -0.001 194.282 140.007"><defs><style/></defs><g id="ID0.29444922087714076" transform="translate(.2) scale(1.4)"><path id="ID0.5249641677364707" fill="#975B3D" d="M108.014 16.081c4.091.269 10.334-4.306 8.181-7.75-1.35.193-2.529-.054-3.767-.215-.815-1.72-.082-5.746-1.831-6.782-2.313 2.315-3.12 5.167-4.144 8.235-2.691-1.345-4.898-.376-7.912-.376-3.122 0-6.243-1.777-9.204-.754-1.346.431 2.635 3.647 1.238 3.337-.969-.216-2.1-.216-3.444-.216-3.176 0-4.413.108-7.158 1.668l3.067 2.207-9.042 3.014c.484.915 1.668 1.399 1.292 2.369-.646 1.614-4.091-.269-4.306 1.507-.107 1.13 1.346 1.238 2.152 1.938l-5.597 3.014c1.096.179 2.367.539 3.014 1.077 7.948.244 12.96-4.711 21.528-7.535 3.607-1.185 5.544-2.314 9.258-2.583 4.684-.325 5.545 2.419 6.675-2.155z"/><path id="ID0.03286631219089031" fill="#D1B23E" d="M130.727 28.567c-1.184-1.561-1.184-1.938-2.314-3.391.97-4.306-1.304-5.169-4.049-4.899-1.507.162-1.93 2.006-3.444 1.938-1.184-.054-6.876-3.712-7.737-7.21-3.016.754-6.19 2.745-7.967.215-2.583-3.606-.861-6.674-1.185-11.087-2.959.484-5.489 2.369-5.704 5.328-.216 2.638 3.175 4.36 1.076 5.975-5.544 4.306-9.312 5.597-15.501 8.827-11.68 6.136-19.646 7.75-32.724 7.75-5.329 0-8.234-1.345-13.562-1.722-7.212-.538-13.94 3.66-15.071 10.764-.915 5.76 1.938 11.949.215 14.748-1.178 1.915-2.574 5.908-1.453 8.074 1.123 2.17 3.873 2.934 6.082 2.476-2.745 2.745-2.853 7.535-1.454 9.742 2.079 3.277 5.183 3.617 6.513 7.373 2.337 6.601.698 12.792.159 14.49.049.162.09.331.124.507l.38.045 6.496.781 5.956-1.374c.069-.092.14-.182.213-.268.048-.079.091-.161.144-.236.007-.337.007-.85-.027-1.473a3.684 3.684 0 0 1-.125-1.267c-.028-.095-.052-.189-.083-.284a.829.829 0 0 0-.048-.068c-.132-.034-.244-.127-.277-.314-.007-.041-.021-.079-.028-.119a5.311 5.311 0 0 1-.812-2.375c-.426-.928-.914-1.83-1.303-2.777-3.769-4.557-9.774-8.337-9.529-14.202.141-1.071 1.624-1.678 2.637-2.69 1.73 1.003 1.236 3.83.662 5.722a18.328 18.328 0 0 1-.37 1.092 13.6 13.6 0 0 1-.292.721c.188.012.372.02.555.022 2.95.092 5.95.092 8.258-2.946l.493-.31c.333-.209.675-.423 1.028-.642 2.153-1.346 4.844-2.691 4.09-5.168-.861-2.906-3.605-3.174-6.243-4.735-2.637-1.562-.592-4.79-1.291-7.75 3.444.322 4.843 2.367 8.181 3.229 6.244 1.615 10.387 1.615 16.578-.431 3.39 3.984 1.775 9.635-1.938 13.349-3.068 3.067-8.773.915-10.118-3.229-2.781 2.062-6.394 5.277-6.088 8.504l.163.347c.419.504.72 1.092.912 1.722.081.13.186.244.274.369 1.158.62 2.348 1.265 3.562 1.888.522.114 1.056.215 1.609.304 5.329.808 7.212 2.1 12.002-.27 6.082-3.014 7.104-10.333 6.297-17.169-.269-2.476-1.13-3.929-1.13-6.404 0-2.207 2.368-1.239 4.575-1.562 1.83 2.477 3.66 3.391 5.382 6.028 4.199 6.298 4.199 11.41 3.66 18.945-.323 4.629-2.153 10.011-1.399 10.926.477.578.984 1.04 1.517 1.418.524.271 1.043.55 1.556.833 2.305.885 5.012.604 8.016.279l.009-.001a19.755 19.755 0 0 0 1.726-.619c1.401-.814 2.562-2.276 2.141-3.579-1.023-3.067-4.844-3.229-5.382-6.458-.755-4.575.037-6.052-.432-10.712-1.022-10.171-6.243-16.469-14.208-22.442 7.318-6.621 6.942-16.631 15.607-21.314 3.015-1.615 5.221.269 8.073-.215 2.476 1.077 1.723 4.575 4.307 5.382 2.529.753 5.22-.108 7.104-1.992-2.744-2.745-5.812-4.252-5.812-8.127 5.327 2.1 8.826 5.975 14.263 7.105 4.138.857 9.035-2.05 6.505-5.387z"/><path id="ID0.5103596481494606" fill="#B4762E" d="M102.847 91.896c-1.068-1.461-2.283-2.79-3.835-3.808-.77-.423-1.532-.86-2.163-1.495-.008-.008-.009-.017-.016-.024-2.188.813-3.886 1.74-7.334 3.464a32.364 32.364 0 0 1-4.891 1.979c-.085.467-.219.923-.363 1.382.595 1.017 1.501 1.638 2.909 2.367a52.1 52.1 0 0 1 3.078 1.734c.032-.001.062-.005.095-.005.624 0 1.185.097 1.687.266l1.159-.008a7.16 7.16 0 0 1 1.154-.258c2.827-.362 5.557-1.627 8.072-3.162a.436.436 0 0 1 .021-.433c.349-.619.419-1.301.427-1.999z"/><path id="ID0.48582707485184073" fill="#B4762E" d="M45.767 94.673c-.027-.092-.051-.186-.081-.277l-.063-.079c-.126-.037-.232-.13-.264-.312-.004-.023-.012-.046-.016-.069a5.292 5.292 0 0 1-.821-2.421c-.311-.676-.653-1.339-.969-2.015-.661.82-1.492 1.453-2.6 2.039-2.889 1.552-5.583 1.604-8.078.039-.005.024-.019.046-.024.07a2.559 2.559 0 0 1-.627 1.468c-.078.252-.161.502-.227.757-.083.32-.246.595-.438.844v1.478c.416.438.751.969.969 1.595.054.156.102.318.563 1.034.166.024.334.054.502.084 1.176.213 2.338.491 3.496.793.761.037 1.519.095 2.252.303a74.956 74.956 0 0 0 1.572-.039c2.216-.571 4.135-1.344 4.567-1.944.124-.172.254-.332.389-.481.123-.186.236-.377.385-.544-.089-.245-.167-.493-.262-.736a3.602 3.602 0 0 1-.225-1.587z"/><path id="ID0.5547199798747897" fill="#B4762E" d="M51.554 70.375a1.14 1.14 0 0 1-.055-.254.842.842 0 0 1-.116-.352c-.276-.512-.565-1.045-.966-1.452-.306-.311-.606-.615-.877-.952a14.687 14.687 0 0 0-2.821-1.705c-.251.421-.487.851-.708 1.229-2.287 3.93-5.274 4.816-9.042 7.319-.083.055-.155.116-.229.176.002 1.281-.406 2.5-.494 3.773a.473.473 0 0 1-.121.28c.149.447.343.891.549 1.327.016.004.029-.001.045.005.078.014.153.019.229.026.031-.012.068-.016.104-.021a.43.43 0 0 1 .233-.078c1.438-.031 2.926-.229 4.301-.669.941-.3 1.849-.633 2.821-.786.04-.032.077-.066.13-.086.976-.356 1.956-.695 2.923-1.07.698-.495 1.322-1.099 2.026-1.591.125-.23.238-.468.371-.693.579-.986 1.285-2.008 1.636-3.102a.465.465 0 0 1 .104-.173v-.863a.603.603 0 0 1-.043-.288z"/><path id="ID0.6060596397146583" fill="#B4762E" d="M59.895 73.023c-1.537-1.071-2.74-2.297-3.542-3.929-.31.121-.62.239-.899.427a.423.423 0 0 1-.185.071c-.029.021-.056.044-.091.058-.008.013-.012.026-.025.039-.82.77-1.597 1.567-2.573 2.132l-.002.002a.477.477 0 0 1-.267.325c-.403 1.094-1.082 2.072-1.638 3.092a67.38 67.38 0 0 0-1.12 2.171c-.031.246-.066.492-.101.737a.427.427 0 0 1 .105.29v.28c.079.072.122.17.131.278.012.017.025.029.035.05.1.22.203.435.305.651.347.446.601.955.776 1.498.103.171.226.329.34.493 2.448 1.309 5.028 2.744 7.713 3.795-.008-.205-.02-.411-.037-.619-.323-3.956 0-6.217.646-10.118.102-.614.269-1.181.429-1.723z"/><path id="ID0.5582508374936879" fill="#272525" d="M112.865 7.874c2.576-1.536 4.401-1.181 4.598-.734.91 2.066-1.475 6.273-3.081 7.532-2.527 1.979-4.968 2.324-7.874 1.839-.726-.122-1.63-1.053-.861-.861 4.028 1 9.75-2.378 10.3-6.603-2.318-.245-4.002.628-5.869 2.69 1.328-3.3 2.626-5.991.099-9.145-2.322 2.67-2.915 4.607-3.276 8.558 0 0-1.521-1.426-2.005-2.103-.516 1.308-.051 2.761-.343 4.108l-.733-.146c-.452-2.662-.582-5.374-.44-8.069-7.797 4.897-1.772 6.245-1.761 8.802-1.325.254-3.065-.928-3.766-2.005-2.181-3.353 2.884-7.903 5.869-8.558.323-.071 1.462-.148 1.418.44l-.244 3.276 1.662 1.663c.579-3.146 1.182-6.801 4.206-8.559 2.871 1.062 2.731 5.535 2.101 7.875z"/><path id="ID0.520366549026221" fill="#272525" d="M5.714 8.313c15.453-.53 2.704 17.71 11.982 19.611 3.284.673 7.004-2.979 9.634 1.858.453.832.199 1.884.783 2.592 8.146-5.102 17.52-.118 26.311-1.174 5.797-.697 10.835-1.175 15.747-2.935-1.275-.181-2.598-.402-3.667-1.173.22-1.59 3.251-2.112 4.353-3.032-.55-.558-.948-.824-1.761-1.517 1.333-1.418 3.342-1.515 5.037-2.25-.613-.654-1.049-.985-2.005-1.76 2.688-2.207 6.115-3.18 9.535-3.423-.899-.672-2.036-.939-2.835-1.761 2.329-2.276 6.996-2.695 9.731-2.689-.466-.688-.782-1.255-1.271-2.103 1.726-1.231 7.62-1.373 9.146-.586.778.401.771 1.974.171 2.08-1.83.323-4.766-1.443-6.836-.592.773.681 2.199 1.894 2.557 2.865-2.448-.119-6.921-1.012-9.634 1.516 1.589.625 2.514 1.106 3.668 1.858-1.973.436-7.506 1.361-10.564 2.935.507.253 2.563.785 3.375 2.005.631.95-5.416 1.547-6.462 2.009.914.538 1.722.969 2.745 2.001-2.108.624-4.147 1.463-6.113 2.446.519.326 1.164.204 1.517.733 4.583-.801 8.691-3.683 13.009-5.282 3.603-1.334 13.262-7.397 15.503-8.02.277-.077 1.023.111 1.173.391.161.3-.215 1.098-.439 1.272-2.078 1.608-4.799 2.957-7.094 4.263-13.065 7.437-25.552 12.085-40.687 12.853-7.883.401-14.896-3.188-22.203 1.32-4.604 2.84-6.826 7.226-6.701 12.667.07 3.024 1.961 4.478 2.005 6.554l-.832.733c-3.659-3.416-4.608-8.856-2.908-13.525.914-2.508 2-4.408 3.396-6.331-.416-.537-1.413-.29-2.005-.244-4.851.373-10.303 10.117-18.615 3.992-6.135-4.521-4.739-11.139-2.854-15.143 1.529-3.248 5.035-5.947 4.01-9.977C5 10.929 4.353 7.899 2.095 6.211c1.394.304 2.547 1.21 3.619 2.102z"/><path id="ID0.24653478991240263" fill="#975B3D" d="M27.086 32.962l-1.761 1.418c.11-.481-.455-.763-.832-.832-4.429-.803-9.11 5.392-15.013 4.939-3.409-.26-5.783-2.236-7.19-5.281-3.589-7.772 9.282-12.873 3.913-23.817 2.378.542 5.272 2.767 6.065 5.136 1.329 3.972-1.607 8.306 1.173 12.324 4.419 6.386 9.131.154 12.813 4.254.506.564.782 1.086.832 1.859z"/><path id="ID0.7069452675059438" fill="#272525" d="M25.912 32.962c-7.189-3.911-9.479 4.179-16.09 2.25-1.95-.57-3.276-1.302-4.108-3.277-1.986-4.717 1.361-7.876 2.69-11.982.807-2.494 1.546-6.133-.685-9.389 1.157.627 2 2.899 2.446 4.108 2.133 5.78-5.473 13.115-2.103 17.263 3.759 4.628 9.576-2.78 15.356-.733.829.293 1.602.809 2.494 1.76z"/><path id="ID0.6897000474855304" fill="#272525" d="M121.46 21.634c1.955-5.457 10.958-1.395 7.385 3.521 2.1 1.302 4.128 3.897 3.289 6.633-1.797 5.855-13.528 3.655-15.993-1.028-2.214-.442-4.362-1.34-5.868-3.081.251 3.269 4.117 5.486 6.603 7.042-1.728 4.482-8.423 3.994-10.71.343-.378-.603-.706-2.361-1.517-2.347-2.785.045-5.637 1.43-7.874-1.37-1.125-1.41-1.459-3.417-.782-5.086 2.549 5.803 7.099 4.018 10.563 2.738.221 2.526.58 9.985 8.069 5.478-2.288-1.144-7.257-3.759-4.939-10.075.231-.63 2.635 5.079 7.532 5.038 5.736 6.839 19.88 3.606 10.209-3.699 2.911-4.066-2.848-7.565-4.45-2.935-1.964 1.992-9.07-4.447-9.965-6.278.205-.753 1.076-.987 1.76-1.027 2.055 1.948 3.827 4.667 6.542 6.034l.146.099z"/><path id="ID0.08290862245485187" fill="#272525" d="M110.517 18.438c3.21 4.516-5.688 4.061-6.21 2.348-.807-2.652 4.455-4.82 6.21-2.348z"/><path id="ID0.1608870690688491" fill="#FFF" d="M109.686 20.295s-1.134.369-1.995.359c-.861-.008-2.21-.261-2.21-.261.61-1.055 1.511-1.506 2.322-1.555 1.08-.066 2.003.579 1.883 1.457z"/><path id="ID0.3996476330794394" fill="#272525" d="M109.09 18.825c.371 0 .708.124.952.324.243.199.394.475.394.78 0 .305-.151.581-.394.78-.244.2-.581.324-.952.324s-.708-.124-.952-.324c-.243-.199-.394-.475-.394-.78 0-.305.151-.581.394-.78.244-.2.581-.324.952-.324z"/><path id="ID0.31966521218419075" fill="#272525" d="M121.179 24.403s-2.547-.189-3.374.832c-.761.938-.694 2.094-.93 3.179-4.529-4.775 1.856-6.661 4.304-4.011z"/><path id="ID0.6549390256404877" fill="#272525" d="M119.418 28.414c-.989-3.695 5.409-.521 3.766 1.272-.494.538-3.435-.043-3.766-1.272z"/><path id="ID0.30931072449311614" fill="#272525" d="M101.623 90.379a86.996 86.996 0 0 0-2.889-2.445c-.673-.378-1.33-.783-1.885-1.341-.229-.229-.124-.536.084-.707.032-1.669.146-3.055.087-4.557-.449-11.125-5.605-21.251-14.771-27.68 4.989-4.414 4.817-12.065 11.249-18.78.869-.908 2.772-1.888 2.935-3.18l-.343-.341c-1.285.459-2.405 1.569-3.521 2.347-5.163 3.603-7.005 9.934-10.022 15.14-.923 1.595-2.15 2.835-3.134 4.324-.527.8 5.105 4.319 6.114 5.282 7.649 7.304 9.748 18.59 8.803 28.658 1.219 1.611 5.065 4.374 5.623 5.868.177.472-.17 1.115-.767 1.477-3.407 2.065-8.711 1.387-12.145-.449 4.113-8.078 2.298-17.741-.684-25.822-1.455-3.944-7.516-10.812-9.146-12.422-1.22 1.536-3.121 2.112-4.693 3.179.104 1.471.756 2.595 1.026 3.961.587 2.965.928 5.739.489 8.706-.446 3.017-.968 5.307-2.836 7.873-2.148 2.949-7.193 5.259-10.809 4.206-2.886-.839-6.95-2.195-8.656-4.793.604-2.415 2.055-4.533 3.961-6.113 9.805 10.571 19.219-6.905 12.323-12.91-9.043 2.081-17.92-.886-26.097-4.597.861-4.414-5.362-11.667-6.766-7.874 3.268 2.491 3.989 5.242 3.766 7.775-.27 3.066-3.002 4.551-5.281 5.967-.403.25-.377.483-.098.831 4.666.082 11.086 3.768 14.35 7.388.205.229 1.423 1.583 1.496 1.757.714 1.728-1.86 3.807-4.819 5.214-.11.053-.22.104-.33.154-2.41 1.014-3.41 1.014-5.41 1.014 0 0 0-1-.367-.988.023-.168.049-.34.078-.515.282-1.741.709-3.713.285-4.976-1.107-3.288-5.208-6.356-8.559-6.798-2.04-.269-6.605.631-7.874-1.321-1.458-2.242.807-5.321 1.761-7.287-.177-.463-.761-.486-1.174-.586-1.969-.475-1.725.782-2.347 2.249-1.176 2.409-1.445 5.973.244 8.217 4.104 5.451 11.818-2.539 15.112 5.037-.917 1.194-2.25 1.937-3.521 2.689-.406 7.428 10.564 13.856 12.08 21.029.208.988.174 2.627-.343 3.521-2.927.883-7.284.95-10.563-.686.335-1.144.852-2.359 1.076-3.521 1.011-5.262-1-11.783-4.609-15.673-.966-1.041-2.379-1.784-3.265-2.765-1.327-1.468.471-4.717.488-6.455-.427-.755-1.419-.043-2.005.098-.501 1.958-1.562 4.053-.929 6.113 1.016 3.303 11.253 7.544 8.314 17.605-.251.861-.717 1.639-1.152 2.427v1.27c.421.441.764.974.984 1.604.055.157.103.321.547 1.042.167.025.334.055.502.085 1.176.213 2.338.491 3.496.793.761.037 1.519.095 2.252.303a75.05 75.05 0 0 0 1.573-.039c2.216-.572 4.134-1.345 4.566-1.944.095-.132.195-.253.296-.372a4.68 4.68 0 0 1 .478-.654c-.088-.244-.167-.492-.263-.735a3.582 3.582 0 0 1-.219-1.567c-.029-.099-.054-.197-.085-.295l-.063-.079c-.126-.037-.232-.13-.264-.312-.004-.023-.012-.046-.017-.07a5.296 5.296 0 0 1-.821-2.42c-.356-.776-.759-1.534-1.11-2.316-.07-.156-.138-.313-.203-.473.62-1.236-1.38-2.236-1.821-2.754l-.366-.349c-1.473-1.394-3.039-2.784-4.448-4.538-1.205-1.499-2.1-4.224-2.347-6.112.767-.562 1.619-.999 2.347-1.614.2.338.215.812.148 1.359-.059 1.159-.396 2.277-.476 3.439a.479.479 0 0 1-.124.284c-.001.436.056.852.208 1.225.106.032.214.062.324.087.087.021.177.037.267.055.039-.019.086-.025.132-.033a.432.432 0 0 1 .233-.078 17.542 17.542 0 0 0 1.835-.143 29.176 29.176 0 0 0 1.905-.374c.187-.05.376-.094.56-.152.914-.291 1.796-.612 2.737-.771l.098-.03c.037-.025.07-.054.116-.07.975-.356 1.956-.696 2.924-1.07.671-.477 1.276-1.05 1.946-1.531.028-.028.062-.055.091-.083.122-.223.231-.452.359-.67.579-.986 1.285-2.008 1.636-3.102a.52.52 0 0 1 .091-.164c.012-.158.017-.316.014-.476v-.027a3.746 3.746 0 0 0-.044-.493l-.002-.012c-.019-.116-.033-.232-.062-.349-.012-.047-.034-.096-.049-.143a.566.566 0 0 1-.028-.082c-.373-1.074-1.489-2.23-2.815-3.287-.942-.585-1.954-1.071-3.004-1.503-.531-.218-.879-.67-1.07-1.196a27.205 27.205 0 0 0-.907-.489c.531-1.472.026-3.041 0-4.548.973.604 2.06 1.141 3.212 1.619.409.012.829.099 1.234.265.554.228 1.104.48 1.647.751 6.033 1.774 13.247 1.896 18.309-.434 4.021 5.604-1.357 14.354-6.998 12.364a2.022 2.022 0 0 1-.928-.332c-1.635-1.106-2.924-2.354-3.763-4.061-.302.118-.604.235-.876.418-.049.033-.096.046-.142.061-.046.028-.093.053-.14.082-.008.008-.01.018-.019.025-.75.703-1.465 1.428-2.326 1.98-.209.229-.411.47-.608.715-.411.999-1.03 1.91-1.546 2.855a65.796 65.796 0 0 0-1.004 1.916c-.074.254-.131.506-.185.758-.012.078-.021.156-.032.234a.427.427 0 0 1 .105.29v.28c.079.072.122.17.131.278.012.017.025.029.035.05.089.196.181.387.271.58.391.482.67 1.042.857 1.639.09.147.199.284.297.426 2.829 1.514 5.835 3.191 8.975 4.248.01.001.02.004.029.006l.006.001c.009 0 .014.005.023.005 1.75.297 3.478.372 5.048.171 3.631-.467 7.473-3.953 9.047-7.141 2.591-5.241 1.169-12.684-.244-18.095.812-.335 2.923-2.079 3.374-1.858 1.505.736 4.435 5.19 5.429 6.701 4.809 7.305 4.51 14.399 3.277 21.469-.354 2.027-1.02 3.536-1.596 5.246-.081.32-.176.639-.276.958.596 1.015 1.505 1.629 2.912 2.357a53.93 53.93 0 0 1 3.09 1.733c.028 0 .055-.004.083-.004a5.21 5.21 0 0 1 1.679.266l1.213-.008a6.314 6.314 0 0 1 1.108-.258c2.635-.338 5.183-1.463 7.555-2.856.317-.459.638-1.012.838-1.549.089-.385.122-.784.126-1.189a19.23 19.23 0 0 0-1.218-1.513z"/><path id="ID0.26010353956371546" fill="#D1B23E" d="M41.757 62.452c-1.547-.916-3.362-1.09-5.037-1.663 1.631-.868 2.94-1.759 4.45-3.277.678.938.608 3.916.587 4.94z"/><path id="ID0.9278712212108076" fill="#272525" d="M45.375 67.831c0 2.688-2.593 5.032-5.281 5.625-.309.067-.739-.618-.44-.832 2.966-2.129 4.528-5.358 5.721-4.793z"/><path id="ID0.5757170431315899" fill="#272525" d="M59.803 76.39l-.098 5.43c-2.825 1.598-1.786-7.282.098-5.43z"/><path id="ID0.3393205441534519" fill="#272525" d="M94.397 88.687c-1.022 1.453-3.626 2.19-4.682 2.314-.915.107-1.263-.531-.861-.861 1.412-1.165 3.059-1.628 4.736-2.368.336-.149 1.017.617.807.915z"/><path id="ID0.5668331836350262" fill="#272525" d="M42.136 92.185c-1.722 1.077-5.06 1.271-6.674.538-.623-.282-.054-1.075.427-1.074 2.005.098 4.254.049 5.868-1.271.538-.246 1.114 1.348.379 1.807z"/><path id="ID0.8338625109754503" fill="#272525" d="M119.694 18.233c-2.961 2.691-5.383 1.668-5.421.736-.182-1.45 1.196-3.127 3.214-2.566.969.27 1.776.807 2.207 1.83z"/><path id="ID0.15264540491625667" fill="#FFF" d="M118.428 18.227c-.979.266-2.078.958-3.256.814.196-.589.553-1.444 1.185-1.614.84-.229 1.937.147 2.071.8z"/><path id="ID0.120642751455307" fill="#272525" d="M118.025 17.211c.312 0 .594.093.799.244.204.151.331.36.331.59 0 .23-.127.439-.331.59a1.354 1.354 0 0 1-.799.244c-.312 0-.594-.093-.799-.244-.204-.151-.331-.36-.331-.59 0-.23.127-.439.331-.59.205-.151.487-.244.799-.244z"/><path id="ID0.6889466000720859" fill="#272525" d="M124.852 24.208c1.76-2.421 2.98 3.033 1.081 2.917-.57-.036-1.667-2.111-1.081-2.917z"/></g></svg>