<svg xmlns="http://www.w3.org/2000/svg" width="50.996" height="192.588" viewBox="-0.097 0.014 50.996 192.588"><defs><style/></defs><g id="ID0.9868399249389768" transform="translate(-.25)"><g id="Shoes"><path id="Shoe_Left" fill="#0B1938" d="M39.379 173.803c.66-1.416 2.066-.07 2.625.176.947.422 2.086.914 3.051 1.219.9.283 1.625.693 2.57.93.406.102 1.443.334 1.844.424.979.215.754.488.877.973.639 2.555-1.865 4.051-3.988 4.113-.582.016-1.91-.156-2.461-.271-.436-.092-.787.109-1.074-.227-.529-.623-.812-1.842-1.867-2.135-2.617-.729-5.527-1.377-8.145-1.6.74-.422 2.752-1.5 3.668-2.023 1.144-.655 1.789-1.02 2.9-1.579m.729 7.867c-.141-.285-.264-.619-.432-.891-.166-.271.08-.168-.182-.316-.215-.123-.932-.182-1.17-.266-1.004-.348-2.025-.602-3.047-.924a51.267 51.267 0 0 0-2.4-.688c-.666-.176-1.338-.32-2.004-.178-.58.125-1.703.678-2.305.688-.342 1.617 3.838.969 4.662 1.119 1.512.277 3.432 1.115 5.211 1.342.553.07.951.059 1.484.131" transform="matrix(.95 0 0 .95 .55 1.75)"/><path id="Shoe_Trim_Left" fill="#A2C6DD" d="M50.219 176.86c-.061.174.166.537.129.805-.043.34-.166.58-.096.936.127.654-.059 1.107-.355 1.676-.25.473-1.088.949-1.584 1.117-.963.326-2.041.254-3.041.201-.465-.025-.92-.182-1.375-.225-.232-.025-.713.037-.926-.059-.172-.076-.059.016-.148-.17-.326-.686-.65-1.168-1.199-1.707-.285-.281-.479-.316-.885-.426-.475-.131-.795-.127-1.271-.248-.42-.105-1.229-.434-1.666-.494-.516-.07-.752-.082-1.262-.207-.619-.152-1.266-.297-1.9-.363-.502-.055-1.053-.217-1.547-.217-.305-.002-.734.066-.973.229-.451.311-.883.371-1.121.598.619.26 1.25.16 1.902.389.68.24 1.377.352 2.102.518.762.174 1.348.465 2.125.582.324.049.758.211 1.084.287.352.084.951.221 1.256.408.248.156.652.975.639 1.26a8.14 8.14 0 0 1-3.377-.523c-.789-.295-1.797-.57-2.605-.768-1.697-.412-2.68.182-3.896-.211-.557-.18-1.027-.133-1.447-.555-.225-.227-.174-.527-.51-.52-.24.006-.824.166-1.043.26-.542.227-.045.686.111 1.098.186.482.537 1.213 1.023 1.377.523.18 1.217.234 1.787.129a10.573 10.573 0 0 1 1.814-.184c1.266-.041 2.459.57 3.66 1.02.824.311 1.658.574 2.463.91.674.285 1.238.33 1.953.438.896.133 2.131.143 3.039.23.957.098 1.594.078 2.562 0 .893-.068 1.662.168 2.5-.193.295-.127 1.062.021 1.352-.113.557-.256 1.4-.711 1.875-1.098.617-.506.939-.721 1.191-1.623.209-.746.361-1.525.301-2.221-.051-.566-.428-1.121-.689-1.672-.125-.27-.328-.406-.582-.545-.209-.113-1.305-.355-1.402-.127" transform="matrix(.95 0 0 .95 .55 1.75)"/><path id="Shoe_Right" fill="#0B1938" d="M16.823 185.918c.637.072 1.307.48 1.867.787.631.346.938.68 1.52 1.062.357.23.785.707 1.139.951.393.268.766.545 1.197.756.777.379 1.051.465 1.865.6.303.051 1.031-.086 1.287.094.312.217.268.443.297.811.031.371.122.711-.07 1.043-.227.395-.742 1.037-1.07 1.348-.379.355-.686.373-1.061.723-.35.324-.996.666-1.451.777-1.156.287-1.371.596-2.52.924-.85.242-2.533.582-3.43.58-.611-.002-1.17-.117-1.758-.246a5.727 5.727 0 0 1-1.918-.82c-.588-.393-.68-.578-.775-1.26-.037-.268-.227-.494-.369-.725-.141-.227-.035-.719-.266-.824-.555-.252-1.074-.541-1.617-.814-.625-.318-1.213-.691-1.857-.967-.613-.262-1.15-.639-1.762-.869-.371-.141-.951-.285-1.031-.729-.059-.32.662-2.074.631-2.414.873.262.441.758 1.312 1.057.371.127.908.709 1.311.746.449.041.543.137.943-.049.406-.189.992.008 1.424-.162.508-.199 1.225-.607 1.691-.865.982-.539 2.285-.68 3.287-1.166.195-.096 1.266-.184 1.246-.379m-8.297 7.087c-.088-.299-.314-.197-.584-.314-.305-.123-.236-.357-.51-.527-.539-.334-1.246-.584-1.818-.855-.535-.254-.686-.371-1.242-.666-.223-.117-.693-.229-.766-.484-.07-.242.012-.963-.059-1.219-.162-.551.756-2.545 1.023-3.023-.428-.295-1.174-1.027-1.684-1.158-.381-.094-1.148 2.016-1.184 2.379-.029.287-.02.43-.178.684-.168.266.014.463-.008.797-.021.348-.223.922-.191 1.262.055.619.203 1.021.742 1.43.521.391.943.875 1.447 1.281.652.527 1.422.758 2.188 1.088.396.17.693.029 1.115.148.467.137 1.258.281 1.76.172.25-.057-.078.027-.02-.244.037-.165.116-.71-.031-.751" transform="matrix(.95 0 0 .95 .55 1.75)"/><path id="Shoe_Trim_Right" fill="#A2C6DD" d="M25.838 190.133c-.035.422.158 1.23-.08 1.674-.246.469-.32.807-.76 1.146-.26.201-.35.545-.586.775-.27.266-1.496.748-1.869.941-1.078.553-1.729.709-2.887 1.066-.744.232-2.123.422-2.895.545-1.549.242-2.494-.213-3.932-.914-1.051-.512-.752-.941-1.195-1.879-.232-.488-.627-.971-1.098-1.211-.684-.348-1.34-.727-2.035-1.064-.727-.352-1.701-1.023-2.438-1.361-.592-.268-1.047-.146-.99-.904.018-.25.348-.639.268-.789-.08-.15.469-1.385.322-1.445-.164-.068-.869-.818-1.041-.82-.467-.004-1.092 2.639-1.068 3.021.037.486.154 1.098.377 1.525.152.295.502.098.781.244.377.197 1.031.699 1.42.867.623.271.939.582 1.543.895.455.232.863.611 1.023 1.107.072.209.242.305.012.438-.154.09-.895-.043-1.104-.029-.699.043-.869.014-1.498-.244-.809-.332-1.812-.594-2.523-1.104-.564-.406-1.422-1.434-2.137-1.574-.029.26.145.908.229 1.152.098.273.365.457.385.748.037.609-.004.783.561 1.045 1.277.588 2.15 1.049 3.219 1.158 1.092.117 2.379.666 3.453.973.711.201 1.287.51 1.953.814.711.324 1.205.752 1.838 1.162.314.205.391.307.691.535.234.18.65.506.936.605.373.131.596.23.965.326.27.07.916.055 1.184.08.717.068 1.312-.018 2.016-.084 1.02-.1 2.084-.5 3.016-.918.891-.4 1.637-.744 2.473-1.256.385-.24.891-.336 1.225-.639.34-.305.59-.568.978-.801 1.454-.889 2.772-2.227 2.237-3.998-.188-.623-.686-1.318-1.314-1.488-.602-.162-1.165-.354-1.793-.283" transform="matrix(.95 0 0 .95 .55 1.75)"/><g id="Right_Shoe_Lines"><g id="ID0.419582181610167" fill="#010101"><path id="ID0.4403289402835071" d="M3.196 184.825c.105-.117-.395-.307-.494-.189-2.518 2.766-2.506 8.969 1.457 10.281 3.707 1.225 6.984 2.553 10.471 4.402 1.217.646 2.621.438 3.912.27 1.916-.252 13.264-4.436 10.357-8.002-.961-1.18-1.674-1.383-3.145-1.58-3.918-.533-5.137-2.699-8.189-3.971-.215-.092-.539.016-.193.162 2.723 1.129 4.166 3.594 7.211 3.98 7.719.98 1.94 5.59.268 6.545-2.498 1.43-7.939 4.174-10.729 1.977-2.254-1.775-4.707-2.865-7.516-3.488-3.084-.684-5.262-2.289-4.98-5.662.14-1.743.327-3.358 1.57-4.725z" transform="matrix(.95 0 0 .95 .55 1.75)"/><path id="ID0.35521741211414337" d="M8.614 194.063c.277-.029-.203-.262-.336-.248-2.471.244-4.916-1.486-6.562-3.125-.1-.102-.621-.152-.484-.018 1.86 1.856 4.618 3.662 7.382 3.391z" transform="matrix(.95 0 0 .95 .55 1.75)"/><path id="ID0.8785057663917542" d="M25.067 190.01c-.369-.076-.139.191.084.242.958.199-.035 1.926-.248 2.244-.754 1.135-2.031 1.895-3.279 2.373-1.336.51-2.764 1.053-4.193 1.197-4.674.486-5.182-.674-5.762-3.445-.031-.148-.559-.238-.527-.082.414 1.973.953 2.984 2.977 3.541 2.383.654 4.832.203 7.115-.67 1.834-.701 4.477-1.842 4.809-4.104.13-.893-.185-1.128-.976-1.296z" transform="matrix(.95 0 0 .95 .55 1.75)"/><path id="ID0.8026964832097292" d="M5.317 189.366c-.146-.066-.639-.041-.316.107 1.051.488 2.061 1.035 3.082 1.584.959.516 2.137.945 2.996 1.613.105.084.641.127.414-.049-.91-.705-2.082-1.127-3.094-1.674-1.022-.55-2.032-1.093-3.082-1.581z" transform="matrix(.95 0 0 .95 .55 1.75)"/><path id="ID0.638680403586477" d="M4.176 190.354c-.145-.074-.629-.053-.312.107 1.553.797 3.061 1.674 4.566 2.566.143.084.621.074.314-.107-1.505-.888-3.009-1.767-4.568-2.566z" transform="matrix(.95 0 0 .95 .55 1.75)"/><path id="ID0.4716231836937368" d="M3.725 190.428c.076.148.584.193.525.08-.67-1.277-.447-3.533.625-4.525.109-.102-.381-.301-.496-.191-1.098 1.021-1.344 3.314-.654 4.636z" transform="matrix(.95 0 0 .95 .55 1.75)"/><path id="ID0.41779879201203585" d="M4.906 189.385c.053.152.574.221.525.082-.141-.418.031-.984.131-1.398.104-.434.219-.869.369-1.291.051-.135-.473-.295-.529-.143a11.04 11.04 0 0 0-.396 1.418c-.088.406-.238.92-.1 1.332z" transform="matrix(.95 0 0 .95 .55 1.75)"/><path id="ID0.9989668913185596" d="M8.375 193.895c.01.18.533.256.527.143-.018-.316-.062-.639-.002-.951.033-.162-.502-.289-.529-.146-.06.315-.015.636.004.954z" transform="matrix(.95 0 0 .95 .55 1.75)"/></g></g><g id="Left_Shoe_Lines"><g id="ID0.027031132485717535" fill="#010101"><path id="ID0.9186049276031554" d="M27.49 179.502c-.008-.156-.535-.217-.531-.143.103 1.75.765 3.008 2.705 2.854 4.699-.385 9.301 2.086 14.131 2.273 3.955.158 9.467.152 9.268-5.178-.021-.553-.502-2.119-1.131-2.344-3.855-1.389-7.732-1.809-11.428-3.916-.094-.055-.629-.115-.404.014 2.285 1.303 4.697 2.4 7.254 3.07 1.164.307 4.465.629 4.85 1.932.814 2.748-.244 5.535-3.463 6.023-5.635.854-9.969-.803-15.453-2.271-1.774-.474-5.592 1.134-5.798-2.314z" transform="matrix(.95 0 0 .95 .55 1.75)"/><path id="ID0.36077943071722984" d="M50.614 176.852c-.016-.158-.537-.211-.531-.139.148 1.648.244 3.43-1.584 4.254-1.812.816-3.742.322-5.643.236-.352-.016.092.203.23.211 1.736.078 3.85.662 5.521-.094 2.014-.909 2.186-2.458 2.007-4.468z" transform="matrix(.95 0 0 .95 .55 1.75)"/><path id="ID0.3709067488089204" d="M41.631 179.17c-.098-.123-.555-.137-.521-.096.562.709 1.15 1.398 1.6 2.188.076.133.561.162.523.094-.45-.789-1.039-1.477-1.602-2.186z" transform="matrix(.95 0 0 .95 .55 1.75)"/><path id="ID0.4922998952679336" d="M32.696 177.301c-.348-.041.098.193.23.209 2.857.348 5.793.928 8.539 1.771.309.096.348-.066.043-.16-2.842-.872-5.859-1.462-8.812-1.82z" transform="matrix(.95 0 0 .95 .55 1.75)"/><path id="ID0.045774195343256" d="M30.948 178.208c-.371-.072-.107.152.1.193 2.807.559 5.535 1.365 8.311 2.051.309.076.355-.084.043-.16-2.824-.696-5.601-1.518-8.454-2.084z" transform="matrix(.95 0 0 .95 .55 1.75)"/><path id="ID0.4005035641603172" d="M40.254 181.729c.264-.02-.232-.223-.344-.211-2.264.182-4.518-.918-6.695-1.348-1.123-.225-3.957.545-4.385-.922-.039-.133-.553-.197-.523-.094.355 1.213 2.154 1.205 3.168 1.191 3-.04 5.801 1.626 8.779 1.384z" transform="matrix(.95 0 0 .95 .55 1.75)"/><path id="ID0.8827786124311388" d="M39.797 180.418c-.084-.129-.559-.15-.521-.094.266.406.439.857.664 1.289.068.133.561.168.521.094-.224-.429-.398-.882-.664-1.289z" transform="matrix(.95 0 0 .95 .55 1.75)"/></g></g></g><g id="Pants"><path id="Pants_2_" fill="#244764" d="M17.906 175.573c.076.025.373.535.773 1.207-.078.76.25 1.293.41 1.973.178.773.049 1.445.064 2.264.012.762.15 1.473.176 2.238.023.703.459 1.301.562 1.961.195 1.24-3.74.947-4.756 1.262-1.625.508-3.398 1.455-5.021 1.904-1.361.377-2.096.035-3.266-.725-1.525-.992-.959-.605-2.547-2.068-1.742-1.248-1.379-.828-2.502-2.297-.611-.799-.418-1.037-.213-1.982.295-1.346.248-1.996.688-3.268.404-1.164.766-1.973 1.338-3.113.57-1.129 1.758-3.455 1.801-4.848.041-1.312-.217-3.727-.098-5.094.23-2.641.9-3.922 1.377-6.443.51-2.713.92-4.111 1.656-6.727.373-1.328.824-2.969 1.18-4.326.354-1.348.57-1.801.912-3.338.133-.605.51-1.309.73-1.951.238-.695.037-2.098.531-2.562 1.074-1.016 1.951-2.496 2.131-3.9.195-1.561.41-3.576.479-5.166.078-1.783.018-3.256-.025-5.186-.064-2.711-.41-3.223-.312-6.209-.014-.436.209-1.885-.062-2.914-.133-.502 0-1.334.021-1.857.031-.758-.529.602.068-1.432.141-.479-.217-3.4.334-3.299-.156.328.234-2.922.098-3.252-.102-.25.152-.373.461-.152.045.066 5.248 2.42 5.863 2.365 1.098.049 1.734.217 2.838.242 1.656.035 2.676-.336 4.246-.756 2.6-.686 12.371-7.107 15.252-8.477.383-.182 1.213 13.543.066 18.151-.191.762-.572 2.529-.781 3.164-.277.848-.348 2.568-.498 3.432-.27 1.549-.127 3.117-.156 4.656-.049 2.604-.951 13.074-.988 14.717-.031 1.424-.393 14.16-.186 17.072.1 1.387-2.168 4.332-1.797 5.686 1.172 4.287 2.607 4.926 1.455 6.459-.465.615-9.385 6.562-13.811 6.412-1.343-.045-2.943-3.949-2.164-4.721 1.635-1.617-.877-3.031.307-3.666 3.584-1.922-1.031-12.254-.615-12.855.391-.562-1.127 2.48-1.732 3.281-2.488 3.271-2.078 3.281-1.191 8.236.258 1.453-2.514 4.801-3.436 5.471" transform="matrix(.95 0 0 .95 .55 1.75)"/><g id="Pants_Lines_2_"><g id="ID0.6234929403290153" fill="#010101"><path id="ID0.8592615588568151" d="M36.569 111.715c.195-.068-.285-.287-.43-.24-.928.32-2.008.549-2.693 1.311-1.07 1.18-1.512 2.873-1.961 4.357-.049.158.48.307.529.145.434-1.434.871-3.359 2.035-4.416.707-.641 1.637-.856 2.52-1.157z" transform="matrix(.95 0 0 .95 .55 1.75)"/><path id="ID0.5684274360537529" d="M33.873 113.047c.029-.172-.504-.295-.531-.148-.852 4.984-1.357 10.031-3.418 14.711-1.477 3.357-4.088 7.146-4.568 10.812-.023.174.51.291.529.145.563-4.281 3.77-8.277 5.176-12.328 1.498-4.305 2.049-8.719 2.812-13.192z" transform="matrix(.95 0 0 .95 .55 1.75)"/><path id="ID0.07213236205279827" d="M14.459 111.145c.018-.176-.514-.289-.531-.143-.744 6.584.566 13.131.105 19.705-.238 3.447-.381 5.99-2.543 8.76-.979 1.254-1.506 5.041-1.818 6.633-.033.168.5.299.529.143 1.115-5.646 4.1-9.482 4.363-15.393.294-6.576-.847-13.137-.105-19.705z" transform="matrix(.95 0 0 .95 .55 1.75)"/><path id="ID0.7564879674464464" d="M27.887 133.356c.016-.18-.518-.287-.529-.143-.207 2.486.539 5.121-.012 7.553-.527 2.328-1.543 4.498-1.891 6.867-.027.174.508.293.529.143.389-2.646 1.928-5.135 2.006-7.824.065-2.205-.287-4.391-.103-6.596z" transform="matrix(.95 0 0 .95 .55 1.75)"/><path id="ID0.1437738207168877" d="M43.358 99.684c-.016-.154-.545-.262-.527-.078.459 4.629 1.191 9.411.688 14.065-.447 4.146-1.783 8.062-1.969 12.25-.008.184.525.283.531.143.232-5.297 2.195-10.246 2.08-15.592-.079-3.618-.448-7.188-.803-10.788z" transform="matrix(.95 0 0 .95 .55 1.75)"/><path id="ID0.7655309536494315" d="M41.03 160.909c.061-.135-.457-.307-.531-.145-1.109 2.43-1.541 5.537-3.307 7.582-1.869 2.162-3.295 3.023-6.303 3.162-.355.018.039.275.217.268 2.854-.129 4.463-.781 6.311-2.92 1.937-2.242 2.39-5.277 3.613-7.947z" transform="matrix(.95 0 0 .95 .55 1.75)"/><path id="ID0.28207068191841245" d="M40.5 160.799c.039.16.568.244.527.078-1.574-6.535-.123-14.654.414-21.316.406-5.039.496-10.051.703-15.098.008-.184-.523-.283-.529-.143-.254 6.221-.537 12.385-.982 18.6-.41 5.7-1.484 12.27-.133 17.879z" transform="matrix(.95 0 0 .95 .55 1.75)"/><path id="ID0.2182865059003234" d="M38.949 166.45c-.037-.16-.566-.246-.527-.084.232 1.02.348 2.393.971 3.258 2.059 2.867.027 3.82-2.361 5.123-3.512 1.914-6.902 4.328-11.031 4.549-.357.021.038.277.215.268 4.46-.236 8.339-2.893 12.125-5.039.799-.455 2.934-1.426 2.654-2.697-.238-1.084-.998-1.623-1.336-2.67-.288-.896-.501-1.796-.71-2.708z" transform="matrix(.95 0 0 .95 .55 1.75)"/><path id="ID0.3547217482700944" d="M5.764 176.862c0 .186.533.275.531.145 0-5.865-1.205-11.053.439-16.85 1.309-4.623 1.688-9.66 3.479-14.148.055-.145-.465-.309-.531-.145-1.936 4.859-2.953 10.721-4.02 15.824-1.093 5.254.102 9.941.102 15.174z" transform="matrix(.95 0 0 .95 .55 1.75)"/><path id="ID0.6217189715243876" d="M20.19 185.036c.002-.184-.531-.275-.529-.148-.012 1.016-5.109 1.656-5.893 1.932-1.193.42-2.383 1.012-3.602 1.352-2.258.629-3.533-.875-4.98-2.062-3.398-2.785-3.795-5.564-2.088-9.43.969-2.188 2.236-4.129 2.578-6.531.027-.174-.506-.293-.527-.143-.592 4.131-4.736 8.045-3.768 12.438.428 1.938 1.852 2.467 3.391 3.727.885.729 1.898 1.834 2.982 2.264 2.211.877 4.381-.752 6.441-1.373.723-.218 5.975-.579 5.995-2.026z" transform="matrix(.95 0 0 .95 .55 1.75)"/><path id="ID0.4656782392412424" d="M25.893 147.563c.02-.176-.514-.289-.529-.139-.316 2.715-.361 5.578-1.037 8.234-.684 2.693-2.08 4.637-3.287 7.088-1.205 2.449-.66 3.33-.439 5.936.293 3.424-1.619 4.006-3.281 6.363-.111.148.402.32.492.193.832-1.182 2.881-2.279 3.213-3.758.525-2.336-1.166-5.117-.102-7.285 1.426-2.895 3.346-5.125 3.934-8.395.489-2.731.716-5.483 1.036-8.237z" transform="matrix(.95 0 0 .95 .55 1.75)"/><path id="ID0.10645968606695533" d="M17.24 172.586c.041-.164-.49-.301-.529-.143-.521 2.207 1.709 3.049 1.973 5.047.354 2.678.123 5.084.941 7.686.049.16.574.232.525.078-.734-2.336-.531-4.578-.844-6.953-.275-2.082-2.571-3.586-2.066-5.715z" transform="matrix(.95 0 0 .95 .55 1.75)"/><path id="ID0.4505338678136468" d="M24.19 158.192c-.025-.158-.557-.256-.527-.078.67 4.191 2.766 8.125 1.23 12.41-.053.15.473.305.531.146 1.537-4.293-.562-8.269-1.234-12.478z" transform="matrix(.95 0 0 .95 .55 1.75)"/><path id="ID0.6645388244651258" d="M24.664 173.965c.053.16.578.229.527.074-.205-.605-.451-1.209-.578-1.838-.078-.383-.197-.84.186-1.105.211-.148.416-.291.607-.461.121-.107-.371-.307-.496-.195-.24.217-.512.383-.771.574-.236.182-.18.365-.137.645.123.797.404 1.545.662 2.306z" transform="matrix(.95 0 0 .95 .55 1.75)"/><path id="ID0.6285690264776349" d="M27.049 179.438c.197-.09-.291-.299-.427-.238-1.127.506-2.043-2.617-2.178-3.357-.328-1.814 1.473-2.312 2.779-2.934.197-.094-.292-.301-.428-.236-.878.418-2.539.846-2.832 1.949-.232.869.051 1.74.387 2.553.41.995 1.306 2.886 2.699 2.263z" transform="matrix(.95 0 0 .95 .55 1.75)"/><path id="ID0.6392893409356475" d="M14.071 109.604c-.02.18.516.289.527.143.109-1.184.145-2.377.328-3.551.029-.174-.506-.295-.527-.143-.184 1.176-.223 2.369-.328 3.551z" transform="matrix(.95 0 0 .95 .55 1.75)"/></g></g></g><g id="Face_1_"><path id="Face" fill="#D8AD8C" d="M33.385 42.849c-.195-.031-.379-.084-.598-.078-.037-.552.227-1.197.258-1.811.033-.65.092-1.331.254-1.957.287-1.126.635-2.383.965-3.505.268-.906 1-1.342 1.547-2.133.555-.804 1.143-2.189 1.598-3.044.555-1.049.836-1.714.832-2.924-.002-.846.104-.804.877-.948.57-.105.904-.278 1.264-.736 1-1.267 2.186-5.192.045-6.052-1.438-.576-1.264 1.52-1.438 2.406-.205 1.034-.594 1.69-.877 2.742-.223-.783-.598-1.618-.611-2.472-.006-.439.02-.909.082-1.314.066-.437.209-.831.176-1.308-.389.635-.932 2.029-.932 2.938-.367-1.373-.633-2.88-.414-4.347.129-.861.023-1.686.023-2.571 0-.651-.174-1.808-.625-2.246-.279.195-.303.767-.537 1.089-.299.408-.639.616-1.064.894-.693.452-1.492 1.519-2.299 1.363-.525.466-1.896.748-2.688.834 1.234-.693 2.447-2.801 2.189-4.368-3.281 4.372-9.312 3.129-14.027 4.519.07-.349-.332.216-.395.537-.074.38-.021.893 0 1.281.041.825-.023 1.582-.08 2.423-.213-.237-.457-.46-.73-.156-.559.203-.615.648-1.066.917-.27.823-.031 2.331.311 3.105.186.42.391.882.625 1.269.443.729.664.259 1.215.606.357.226.301 1.085.402 1.482.133.536.324 1.045.607 1.554.275.495.373 1.091.654 1.555.295.486.822 1.095 1.209 1.526.713.796 1.049 1.248 1.873 1.979 1.078.958.748 1.781.516 3.036-.43 2.308 1.553 4.31 2.854 6.07.744 1.006 1.184 2.181 2.002 3.171.674.816 1.482 2.044 2.365 2.588 1.789 1.099 4.795.632 5.518-1.725.309-1.008-.119-2.401-.324-3.357-.131-.605-.26-1.16-.588-1.687-.215-.341-1.031-1.188-1.098-1.147" transform="matrix(.95 0 0 .95 .55 1.75)"/><g id="Face_Lines"><g id="ID0.5532046933658421" fill="#010101"><path id="ID0.619843615218997" d="M34.434 35.596c.035-.189-.496-.318-.529-.142-.303 1.63-.824 3.214-1.08 4.856-.186 1.196-.521 2.868.32 3.898.105.13.639.173.492-.006-.945-1.159-.404-3.253-.129-4.576.281-1.349.676-2.676.926-4.03z" transform="matrix(.95 0 0 .95 .55 1.75)"/><path id="ID0.5102072060108185" d="M23.809 21.884c-.16-.114-.621-.056-.326.149 1.229.851 2.178 4.047 1.291 5.354-.119.175.395.348.492.205 1.013-1.492-.061-4.741-1.457-5.708z" transform="matrix(.95 0 0 .95 .55 1.75)"/><path id="ID0.332657678052783" d="M25.864 30.62c.234.104.546-.059.206-.208a2.187 2.187 0 0 0-.692-.187c-.539-.052-.996-.394-.906-1.008.123-.836.723-1.456 1.125-2.168.078-.139-.432-.318-.529-.143-.529.933-1.471 1.822-.963 2.968.317.717 1.182.49 1.759.746z" transform="matrix(.95 0 0 .95 .55 1.75)"/><path id="ID0.5862181512638927" d="M28.496 28.702c-.121-.118-.645-.135-.424.079.461.452.357 1.277-.369 1.374-.504.069-.991-.308-1.484-.402-.364-.069-.171.238.075.285.793.151 1.37.708 2.19.228.631-.369.45-1.134.012-1.564z" transform="matrix(.95 0 0 .95 .55 1.75)"/><path id="ID0.31095556542277336" d="M31.073 38.051c.215-.123-.277-.335-.422-.252-1.787 1.022-3.555 1.443-5.48.418-.168-.09-.641-.019-.326.148 2.139 1.141 4.161.869 6.228-.314z" transform="matrix(.95 0 0 .95 .55 1.75)"/><path id="ID0.3282556086778641" d="M24.889 38.365c.166.103.633.041.326-.149-2.781-1.739-5.652-4.406-6.715-7.621-.879-2.662-1.098-5.625-1.234-8.417-.008-.171-.539-.281-.527-.068.335 6.934 2.058 12.446 8.15 16.255z" transform="matrix(.95 0 0 .95 .55 1.75)"/><path id="ID0.8891440383158624" d="M38.92 23.684c.02-.197-.514-.31-.531-.143-.539 6.025-2.51 10.815-7.738 14.257-.209.138.281.344.422.252 5.3-3.487 7.298-8.22 7.847-14.366z" transform="matrix(.95 0 0 .95 .55 1.75)"/><path id="ID0.5408914615400136" d="M39.258 19.965c-.049.179.482.322.531.142.26-.954 1.252.42 1.34.668.098.284.178.575.191.878a5.478 5.478 0 0 1-.279 1.976c-.252.737-1.297 3.241-2.479 2.587-.17-.094-.641-.025-.328.148 2.025 1.122 3.393-2.097 3.572-3.614.133-1.095-.012-2.156-.895-2.907-.6-.512-1.385-.856-1.653.122z" transform="matrix(.95 0 0 .95 .55 1.75)"/><path id="ID0.06448117131367326" d="M17.453 27.801c.219-.11-.273-.329-.422-.252-.82.417-1.611-2.221-1.693-2.71-.094-.546-.162-1.153.021-1.689.09-.263.949-1.668 1.137-.976.051.174.58.255.529.068-.176-.647-.787-.884-1.334-.418-.838.714-1.104 1.634-.924 2.717.163.956 1.118 4.058 2.686 3.26z" transform="matrix(.95 0 0 .95 .55 1.75)"/><path id="ID0.21311503509059548" d="M22.989 36.762c0-.202-.529-.3-.529-.143-.002 1.143-.127 2.162-.506 3.245-.062.17.467.324.529.143.379-1.083.504-2.102.506-3.245z" transform="matrix(.95 0 0 .95 .55 1.75)"/><path id="ID0.5705566462129354" d="M16.746 22.266c-.014.199.516.31.529.143.115-1.457-.352-2.955-.002-4.402.045-.184-.486-.322-.529-.143-.349 1.446.118 2.948.002 4.402z" transform="matrix(.95 0 0 .95 .55 1.75)"/></g></g></g><g id="Eyes"><path id="Eye_Whites_2_" fill="#FFF" d="M23.653 23.726c.186.077.287.333.279.528-.02.499-.764.945-1.186 1.076-.498.152-1.123.12-1.645.071-.771-.075-1.412-.211-2.127-.566-.592-.297-.857-.63-1.146-1.325-.115-.272.195-.511.314-.768.158-.332.131-.552.459-.781.449-.312.969-.394 1.52-.342.645.061 1.496.254 2.039.629.566.395 1.324.919 1.646 1.509m5.018-.495c-.105.493.436.779.842.984 1.164.591 2.615.403 3.803.047a2.904 2.904 0 0 0 1.334-.907c.219-.275.189-.37.129-.727-.045-.283.043-.694-.092-.946-.129-.238-.502-.427-.715-.588a1.68 1.68 0 0 0-.959-.343 4.574 4.574 0 0 0-1.857.287c-.945.376-2.361 1.214-2.424 2.348" transform="matrix(.95 0 0 .95 .55 1.75)"/><path id="Right_Iris_2_" fill="#33512E" d="M22.512 22.576c.268.076-.342 1.071-.453 1.237-.236.355-.809.411-1.178.289-.412-.136-.717-.379-.836-.847-.102-.409.078-.945.439-1.142.287-.158.676-.175.982-.145.441.045.695.177 1.045.427" transform="matrix(.95 0 0 .95 .55 1.75)"/><path id="Left_Iris_2_" fill="#33512E" d="M33.049 22.025c.275.077-.354 1.086-.465 1.255-.246.36-.836.416-1.215.293-.424-.137-.738-.383-.861-.858-.105-.414-.15-.979.223-1.179.297-.161.799-.465 1.111-.434.455.044.988.572 1.238.906" transform="matrix(.95 0 0 .95 .55 1.75)"/><g id="Irises_Lines_2_"><g id="ID0.11867089569568634" fill="#010101"><path id="ID0.1478263670578599" d="M20.35 22.557c.035-.183-.363-.284-.396-.107-.158.915.242 1.891 1.305 1.854 1.02-.037 1.561-.948 1.379-1.893-.029-.171-.436-.225-.398-.033.125.673-.133 1.516-.916 1.628-.884.127-1.093-.747-.974-1.449z" transform="matrix(.95 0 0 .95 .55 1.75)"/><path id="ID0.34266500314697623" d="M33.178 21.932c-.031-.171-.438-.225-.402-.033.137.727-.268 1.481-1.072 1.505-.955.028-1.09-.992-.936-1.72.041-.181-.357-.284-.396-.107-.217 1.019.178 2.087 1.354 2.108.981.018 1.632-.811 1.452-1.753z" transform="matrix(.95 0 0 .95 .55 1.75)"/><path id="ID0.9813915276899934" d="M30.576 21.424c-.191.095.162.296.309.222.324-.162.715-.373 1.09-.38.443-.007.652.368.818.722.07.153.473.162.379-.039-.205-.435-.502-.855-1.008-.941-.56-.096-1.099.171-1.588.416z" transform="matrix(.95 0 0 .95 .55 1.75)"/><path id="ID0.980126641690731" d="M19.948 22.499c-.051.177.348.284.395.107.264-.93 1.244-.588 1.836-.19.158.104.488-.021.264-.172-.761-.509-2.156-.951-2.495.255z" transform="matrix(.95 0 0 .95 .55 1.75)"/></g></g><g id="Eyes_Lines_2_"><g id="ID0.3358455407433212" fill="#010101"><path id="ID0.38443158753216267" d="M29.307 23.763c-.082-.141-.58-.179-.523-.084.65 1.12 2.316 1.249 3.467 1.078.973-.146 3.234-.714 2.988-2.132-.633-3.649-6.037-1.81-6.654.891-.033.149.498.284.531.143.209-.92 1.059-1.7 1.836-2.176.596-.365 1.363-.755 2.09-.688.766.071 1.773 1.019 1.674 1.877-.226 1.929-4.497 2.659-5.409 1.091z" transform="matrix(.95 0 0 .95 .55 1.75)"/><path id="ID0.74415472894907" d="M24.36 24.396c.057-.089-.436-.289-.531-.144-1.051 1.597-6.312 1.15-5.514-1.194.896-2.636 5.018-.903 5.516 1.224.035.147.561.231.525.084-.328-1.402-2.184-2.457-3.475-2.775-1.211-.299-3.25-.07-3.148 1.675.142 2.528 5.431 2.944 6.627 1.13z" transform="matrix(.95 0 0 .95 .55 1.75)"/></g></g></g><g id="Eyebrows"><g id="Eyebrows_Lines"><g id="ID0.17155854078009725" fill="#010101"><path id="ID0.6449868394993246" d="M35.049 20.139c.199.26 1.262.36.982-.006-.92-1.204-2.018-2.612-3.559-3.027-1.668-.45-3.043.157-4.359 1.185-.271.212.703.629.986.406 1.283-1.002 2.803-1.735 4.215-.499.659.578 1.204 1.247 1.735 1.941z" transform="matrix(.95 0 0 .95 .55 1.75)"/><path id="ID0.29044049559161067" d="M17.465 20.209c-.156.259.857.624 1.061.283.426-.715.984-1.638 1.807-1.96.82-.322 1.662-.062 2.463.212.465.16 1.113-.162.408-.404-1.047-.36-2.26-.758-3.367-.427-1.138.341-1.792 1.326-2.372 2.296z" transform="matrix(.95 0 0 .95 .55 1.75)"/></g></g></g><g id="Hair_1_"><path id="Hair_3_" fill="#A15927" d="M22.893 36.828c-.217.496-1.51 0-1.787.394-.463-.353-1.99-3.787-2.146-4.332-.141-.49-.455 1.791-.5 1.299-.059.421-.826-2.911-.975-2.556-.324-.731-.971 2.004-1.092 1.257-.131-.82-.34-4.506-.396-5.331.354.132 1.037.43 1.416.135.254-.197.371 1.028.465 1.324.289.927 1.371 4.673 4.674 7.532m-7.058-10.086c-.24-1.2-1.432-3.819.674-4.688.416-.172.645.054.719.249.084.218-.008-1.035-.02-1.255-.049-.923.242-1.902-.01-2.803-.797.087-1.652.559-2.463.863-.779.292-1.852.354-1.83 1.31.018.897-.035 1.983-.021 2.894.008.972.119 1.994-.514 2.745.736-.205 1.473-1.254 2.012-1.761.135.83-.031 1.448-.262 2.17-.227.719-.432 1.757-.445 2.557.443-.697 1.434-2.331 2.363-2.349m-3.193-6.822c.068-.233.674-.264.895-.341.262-.095.488-.259.754-.371.609-.258 1.268-.363 1.854-.626 2.363-1.056 5.617-1.108 8.562-1.324.887-.064.494-.247 1.396-.29.812-.038 1.24-.263 1.928-.684.549-.335 1.748-.842 2.15-1.337.422-.522.836-1.062 1.357-1.438.021.442-.082.849-.105 1.3-.023.495-.158.754-.379 1.192-.406.806-1.256 1.512-2.02 1.997.309.16 1.047-.13 1.377-.248.664-.237 1.576-.533 2.207-.856.521-.269.949-.379 1.43-.704.252-.17.457-.452.686-.664.266-.243.445-.241.66-.527.166-.222.326-.515.463-.746.137-.229.195-.578.188-.849.219.267.252.96.301 1.301.068.458.139.898.139 1.364 0 1.167-.025 2.385.033 3.543.016.296-.008.573.076.856.076.253.01.685.029.955.033.462-.145 1.176.375 1.483.367-.261.236-1.214.344-1.615.131-.494.469-.932.521-1.473.26.8-.215 1.783-.256 2.604-.049.97.082 1.831.482 2.675.025-.26.293-.701.451-.924.266-.375.406-.459.455-.927.033-.326.174-.587.197-.927.025-.324.252-.539.242-.859-.051-1.416.342-1.514.91-1.613.506-.086 1.092.892 1.27 1.174.246.386.154 1.329.115 1.782-.1 1.095-.379 2.307-1.129 3.179-.365.426-.756.849-1.299.929-.277.041-.881-.285-.889.107-.006.266-.125.726-.188.997-.084.365-.207.73-.264 1.095-.061.379-.902 2.804-1.08 3.143-.307.591-2.27 2.878-2.479 3.594-.242.836.205 2.149.564 2.428.273.212 1.506-3.241 1.801-3.727-.006-.318 1.406 1.813 1.66 1.813.516 0 .914-2.489.84-2.978-.059-.4.117-1.67-.012-2.062-.205-.617-.379-.885-.318-1.599.213.239.275-.156.289.158.025.482.012-.204.297.176.262.345.438.015.744.319.207.205.225.051.438.134.172.013.4.372.4.101.016-.186.148.066.271-.043.031-.754-.033-.72 0-1.472.094-.067.059-1.445.131-1.536-.004-.287.08-2.615.594-2.583.025-.306.342-.801.389-1.104.207-.188.232-.689.385-.989.215-.42.535-.899.611-1.358.074-.453.041-.482.311-.825.213-.272.254-.57.383-.888.135-.33.232-.442.336-.788.096-.312.174-.426.305-.739.258-.617.818-1.329.893-2.003.043-.392.068-.769.143-1.157.053-.267.262-.537.234-.764-.016-.126.133-.177.109-.305-.025-.149-.26-.282-.246-.414.037-.356 0-.733 0-1.09.002-.744-.174-1.433-.418-2.102-.139-.37.078-.607-.172-.92-.184-.228-.445-.348-.602-.59-.139-.213-.332-.382-.514-.557-.15-.145-.461-.355-.551-.549-.109-.237.041-.563.053-.814a2.01 2.01 0 0 0-.197-.851c-.205-.374-.488-.481-.551-.937-.053-.398-.164-.461-.377-.786-.168-.259-.295-.467-.451-.707-.17-.265-.492-.538-.742-.727-.785-.589-1.645-.991-2.426-1.481-.748-.471-1.48-.694-2.271-1.077-1.047-.508-2.613-.59-3.742-.803-.92-.173-1.801-.162-2.748-.111-.676.037-1.535-.019-2.203.067-1.756.224-3.453.43-5.164.912-.85.238-1.67.579-2.463.975-.705.35-1.354.886-1.871 1.484-.402.467-.682.728-1.168 1.141-.541.455-1.035.863-1.414 1.485C15.1 6.444 13.494 7.5 13.289 8.96c-.078.56-.508.984-.748 1.482-.334.691-.316 1.432-.48 2.171-.336 1.506-1.143 3.176-.818 4.757.367-.049.645-.71.951-.883.045.815-.105 1.184-.646 1.779a2.422 2.422 0 0 0-.508.831c-.115.314-.453.619-.482.949.361-.121.754-.14 1.098-.269.258-.098.707-.386.957-.242" transform="matrix(.95 0 0 .95 .55 1.75)"/><g id="Hair_Lines_2_"><g id="ID0.2748528756201267" fill="#010101"><path id="ID0.9326276076026261" d="M23.334.797c.223-.057-.123-.243-.242-.212-7.865 1.998-11.34 9.565-12.094 17.016-.012.132.309.23.383.131.83-1.101 4.902-5.406 2.234-2.33-1.289 1.486-2.461 2.871-3.258 4.681-.062.138.291.168.355.148 3.295-1.009 6.732-2.84 10.211-2.981 2.123-.086 4.029-.201 6.073-.806 1.083-.32 2.57-1.012 3.38-1.869 2.336-2.463-.803 2.485-1.658 3.151-.129.101.273.194.344.172 2.98-.955 6.961-1.787 6.951-5.521 0-.151-.396-.225-.396-.107.008 3.286-3.143 4.246-5.811 5.1 1.447-.463 1.904-3.669 2.059-4.759.018-.128-.322-.235-.385-.131-3.291 5.536-9.871 3.586-15.053 5.463-1.256.454-2.504.933-3.77 1.364-2.666.91-.674-1.494.129-2.393 1.018-1.14 2.055-2.283 2.996-3.485.105-.136-.266-.203-.344-.172-1.389.551-2.314 1.521-3.219 2.716-1.771 2.338-.279-1.766-.072-2.549C13.682 7.596 17.114 2.377 23.334.797z" transform="matrix(.95 0 0 .95 .55 1.75)"/><path id="ID0.7514838585630059" d="M38.055 18.919c.043-.129-.352-.243-.396-.107-.357 1.055-.771 2.153-.871 3.272.045-.5-.197-2.472-.178-3.367.043-2.121.143-4.174-.596-6.202-.047-.129-.443-.18-.396-.051 1.219 3.349.076 6.939 1.109 10.332.029.1.385.219.396.08.123-1.381.489-2.647.932-3.957z" transform="matrix(.95 0 0 .95 .55 1.75)"/><path id="ID0.24817309016361833" d="M15.653 26.559c.156-.093-.209-.253-.314-.19-1.139.671-2.141 1.767-2.408 3.09.129.036.264.071.396.107.328-1.957.791-3.881 1.242-5.811.033-.146-.303-.2-.385-.131-.854.723-1.678 1.445-2.41 2.294l.385.131c.451-1.127.701-1.963.66-3.148-.037-1.106-.203-2.296.025-3.386.031-.139-.369-.24-.396-.107-.174.823-.084 1.724-.057 2.559.053 1.529-.055 2.533-.633 3.976-.049.126.314.214.385.131.732-.849 1.557-1.571 2.41-2.294l-.383-.131c-.453 1.931-.914 3.856-1.244 5.811-.023.141.371.239.398.107.25-1.255 1.243-2.37 2.329-3.008z" transform="matrix(.95 0 0 .95 .55 1.75)"/><path id="ID0.820079789031297" d="M18.176 2.795c-.102.109.277.254.367.154C22.662-1.562 31.215-1.296 36.502.25c.238.07.287-.123.051-.191-5.465-1.6-14.154-1.886-18.377 2.736z" transform="matrix(.95 0 0 .95 .55 1.75)"/><path id="ID0.49994486616924405" d="M36.696.076c-.176-.08-.408.041-.154.156 1.531.698 3.236 1.303 4.531 2.408 1.459 1.245 2.094 2.833 2.262 4.714.012.13.412.209.398.053-.387-4.286-3.522-5.727-7.037-7.331z" transform="matrix(.95 0 0 .95 .55 1.75)"/><path id="ID0.7576102619059384" d="M43.692 7.35c-.096-.081-.49-.089-.318.06 6.805 5.912-2.959 15.675-2.33 22.883.012.13.412.209.398.053-.645-7.362 9.267-16.899 2.25-22.996z" transform="matrix(.95 0 0 .95 .55 1.75)"/><path id="ID0.9402813506312668" d="M39.34 16.477c-.016-.131-.416-.207-.396-.052.256 2.224.449 4.686-.367 6.831-.172.454-.805 1.27-.65 1.78l.398.053c-.527-1.249-.832-2.612-.551-3.966.15-.72.277-1.378.223-2.11-.01-.13-.41-.21-.398-.053.082 1.079-.43 2.08-.346 3.137.082 1.039.27 1.976.674 2.939.049.115.441.197.398.053-.168-.55.65-1.651.799-2.179.585-2.098.462-4.294.216-6.433z" transform="matrix(.95 0 0 .95 .55 1.75)"/><path id="ID0.6853775070048869" d="M19.315 32.348c.055-.107-.326-.239-.398-.109-.475.884-.715 2.008-.365 2.973l.396.053c-.539-1.36-.984-2.749-1.436-4.139-.035-.105-.35-.219-.396-.08-.266.782-.508 1.553-.646 2.367l.396.08c-.213-2.05-.615-4.075-.555-6.146.006-.15-.393-.228-.396-.107-.059 2.095.34 4.13.555 6.201.012.114.375.209.396.08.139-.815.383-1.586.646-2.367l-.396-.08c.455 1.391.896 2.781 1.436 4.139.047.125.443.184.396.053-.34-.943-.1-2.056.367-2.918z" transform="matrix(.95 0 0 .95 .55 1.75)"/><path id="ID0.33514932822436094" d="M36.832 33.987c.02-.145-.381-.236-.398-.106-.109.829-.314 1.589-.779 2.292-.383.58-.754 1.146-1.057 1.773l.398.079a8.679 8.679 0 0 0-.785-1.876c-.062-.109-.463-.154-.369.004.32.549.578 1.211.756 1.821.035.116.336.207.398.079.342-.713.799-1.339 1.205-2.013.379-.63.536-1.332.631-2.053z" transform="matrix(.95 0 0 .95 .55 1.75)"/><path id="ID0.2123167417012155" d="M41.272 30.426c.273.053.127-.177-.059-.213-.871-.167-1.525-.442-2.289-.896-.125-.075-.475-.026-.244.111.418.25.848.533 1.311.694.417.144.847.221 1.281.304z" transform="matrix(.95 0 0 .95 .55 1.75)"/><path id="ID0.634241396561265" d="M39.002 29.399c-.02-.132-.42-.205-.398-.053.324 2.312.689 4.561-.582 6.732l.383.052c-.537-.797-.947-1.519-1.613-2.228-.086-.092-.475-.108-.316.061.656.699 1.041 1.399 1.561 2.171.062.095.314.17.383.052 1.293-2.209.91-4.449.582-6.787z" transform="matrix(.95 0 0 .95 .55 1.75)"/><path id="ID0.9508941625244915" d="M12.143 16.905c.029.132.43.199.398.053a4.309 4.309 0 0 1-.092-.688c-.002-.127-.404-.211-.396-.051.012.234.045.457.09.686z" transform="matrix(.95 0 0 .95 .55 1.75)"/><path id="ID0.710912061855197" d="M20.922 37.223c.084.092.482.12.369-.004-1.219-1.324-1.752-2.967-2.131-4.693-.029-.132-.428-.198-.396-.053.387 1.75.926 3.409 2.158 4.75z" transform="matrix(.95 0 0 .95 .55 1.75)"/></g></g></g><g id="Mouth_1_"><path id="Teeth" fill="#FFF" d="M23.125 31.872c.26.562.6.473 1.176.557.787.115 1.586.219 2.394.217 1.385-.003 2.721.241 4.112.154.203-.012 1.668-.231 1.117-.496-.197-.095-.566.061-.775.064-.287.004-.496-.085-.775-.127-1.217-.182-2.428-.378-3.657-.562-.616-.091-1.283-.078-1.91-.056-.461.019-1.16.033-1.682.249" transform="matrix(.95 0 0 .95 .55 1.75)"/><path id="Mouth" fill="#6B1818" d="M31.705 32.771c.053.392-.4.632-.652.844-.334.283-.666.497-.99.797a8.676 8.676 0 0 1-1.807 1.264c-.586.309-1.166.412-1.809.278-.617-.128-1.705-.519-1.705-1.226 0-.405-1.574-2.409-1.084-2.36.752.074 3.498.25 4.484.31.609.036 1.229.124 1.852.124.637 0 1.223-.093 1.865-.093" transform="matrix(.95 0 0 .95 .55 1.75)"/><g id="Mouth_Lines"><g id="ID0.6258435747586191" fill="#010101"><path id="ID0.40344471810385585" d="M31.875 32.836c-.07.143.32.264.398.107.131-.27.094-.471.008-.752-.047-.155-.453-.206-.4-.039.076.247.113.442-.006.684z" transform="matrix(.95 0 0 .95 .55 1.75)"/><path id="ID0.006437159143388271" d="M22.694 31.794c-.268.045-.035.292.143.261a15.565 15.565 0 0 1 6.246.18c1.033.235 2.008.357 3.066.227.268-.033.031-.283-.146-.262-1.492.183-2.799-.265-4.244-.506-1.711-.286-3.358-.186-5.065.1z" transform="matrix(.95 0 0 .95 .55 1.75)"/><path id="ID0.2035354427061975" d="M32.336 32.495c.125-.129-.254-.283-.367-.166a43.321 43.321 0 0 1-2.104 2.03c-1.062.963-3.451 3.162-4.869.594-.564-1.022-.832-2.185-1.73-2.982-.115-.102-.508-.064-.326.096 1.4 1.241 1.322 3.89 3.604 4.113 2.491.242 4.22-2.052 5.792-3.685z" transform="matrix(.95 0 0 .95 .55 1.75)"/></g></g><g id="Teeth_Lines"><g id="ID0.8499576221220195"><path id="ID0.8418437051586807" fill="#010101" d="M32.031 32.713c.229-.084-.092-.292-.238-.241-1.066.388-2.557.11-3.699.098-1.597-.017-3.156-.112-4.734-.379-.271-.046-.154.218.047.252 1.605.272 3.208.371 4.834.381 1.199.008 2.63.309 3.79-.111z" transform="matrix(.95 0 0 .95 .55 1.75)"/></g></g><g id="Tongue_Lines"><g id="ID0.5117707918398082"><path id="ID0.2045809612609446" fill="#010101" d="M27.489 32.733c.121-.076-.117-.201-.207-.144-.964.61-1.994 1.11-2.66 2.073-.074.106.182.203.244.113.656-.951 1.672-1.441 2.623-2.042z" transform="matrix(.95 0 0 .95 .55 1.75)"/></g></g></g><g id="Left_Arm"><path id="Skin_Arm_Left_2_" fill="#D8AD8C" d="M42.701 65.729c.107 1.995.283 4.094.588 6.045.189 1.221.283 2.16.518 3.381.094.486.273 1.576.439 2.047.145.416-.088.649.18 1.018.775 1.072 1.41 1.241 1.85 2.562.264.803.775 2.642 1.059 3.436.283.787.152 2.003.279 2.833.1.646.105 1.118.082 1.788-.031.857.061 1.027.068 1.904.012 1.109.16 2.074.199 3.115.041 1.078.012 1.764.662 2.648.646.881 1.221 1.98 1.572 3.037.35 1.049.383 2.399.291 3.606-.084 1.078-.84 1.408-1.105 2.439-.25.967.258 2.76-.174 3.613-.207.414-.568-.166-.859.068-.264.211-.742 1.176-1.098 1.225-.93.553-.549.648-1.525.781-.789.111-1.789-.184-1.834-.992-.082-1.523.172-2.414-.469-7.291-.129-.988.127-2.775.371-3.766.078-.314.355-1.035.385-1.383.023-.275.156-.701.117-.949-.086-.549-.09-.99-.256-1.527-.281-.912-1.172-2.213-1.146-3.142.014-.485-.105-.858.012-1.338.145-.595.258-.802.062-1.392-.307-.93-.227-1.045-.691-1.926-.314-.595-.297-.338-.648-1.015-.26-.5-.389-.935-.652-1.44-.559-1.078-1.037-2.533-1.383-3.709-.355-1.217-.721-2.588-1.094-3.824-.166-.547-.189-1.893-.307-2.436-.127-.582-.326-1.695-.385-2.277-.109-1.098.133-2.014-.119-3.031-.125-.504.152-2.086.203-2.57.074-.715.561-.334 1.24-.523.594-.164.746 0 1.275-.356.428-.287 1.748-.991 2.23-.976" transform="matrix(.95 0 0 .95 .55 1.75)"/><g id="Left_Arm_Lines_2_"><g id="ID0.5197582384571433" fill="#010101"><path id="ID0.14484025724232197" d="M42.887 65.215c-.012-.165-.535-.227-.529-.143.344 4.469.912 8.842 1.758 13.244.025.135.549.225.523.09a117.066 117.066 0 0 1-1.752-13.191z" transform="matrix(.95 0 0 .95 .55 1.75)"/><path id="ID0.6261288621462882" d="M44.453 77.44c-.09-.131-.568-.154-.523-.09 2.143 3.055 3.209 5.822 3.396 9.607.145 2.955.168 5.9.645 8.824.021.135.547.229.523.09-1.093-6.714.057-12.581-4.041-18.431z" transform="matrix(.95 0 0 .95 .55 1.75)"/><path id="ID0.02083563432097435" d="M49.412 103.04c.037-.119-.488-.273-.531-.141-.461 1.463.043 2.982.225 4.451.045.367.189 1.055.031 1.432-.254.598-.941-.547-.979-.641-.291-.721-.531-1.422-.645-2.195-.02-.133-.545-.23-.523-.09.123.844.797 3.834 2.297 3.439.754-.201.385-1.619.295-2.176-.215-1.337-.59-2.747-.17-4.079z" transform="matrix(.95 0 0 .95 .55 1.75)"/><path id="ID0.8306916817091405" d="M46.989 105.829c.014.164.537.225.529.141-.066-.771-.512-1.488-.779-2.205-.445-1.189-.719-2.383-.254-3.609.043-.113-.479-.278-.529-.143-.387 1.02-.297 2.066.053 3.088.3.874.899 1.798.98 2.728z" transform="matrix(.95 0 0 .95 .55 1.75)"/><path id="ID0.4397914852015674" d="M48.797 108.995c.049-.076-.443-.277-.531-.145-.488.781-1.113 1.621-1.965 2.045-.832.412-1.639.211-2.518.107-.35-.041.084.207.227.227.834.096 1.77.359 2.564-.037.975-.484 1.653-1.289 2.223-2.197z" transform="matrix(.95 0 0 .95 .55 1.75)"/><path id="ID0.7837719591334462" d="M46.948 105.901c.047-.08-.447-.281-.531-.143-.426.699-.748 1.459-1.178 2.156-.248.404-.457.871-.998.854-.227-.008-.393.059-.592.164-.076.039.357.256.498.184.242-.127.764-.01.955-.182a3.26 3.26 0 0 0 .58-.738c.459-.746.81-1.549 1.266-2.295z" transform="matrix(.95 0 0 .95 .55 1.75)"/><path id="ID0.528677782509476" d="M45.26 104.942c.039-.121-.486-.273-.529-.143-.139.428-.303.873-.637 1.188-.195.188-.41.35-.596.543-.09.098.4.291.498.188.227-.24.514-.422.721-.68.266-.325.416-.7.543-1.096z" transform="matrix(.95 0 0 .95 .55 1.75)"/><path id="ID0.6360611985437572" d="M43.047 91.888c-.037-.138-.557-.212-.521-.09.576 2.146 1.725 3.903 1.326 6.208-.266 1.543-.594 3.071-.77 4.627-.016.148.518.256.531.143.211-1.887 1.133-4.135.928-6.01-.189-1.721-1.047-3.223-1.494-4.878z" transform="matrix(.95 0 0 .95 .55 1.75)"/><path id="ID0.9711203705519438" d="M50.965 101.846c.016-.148-.518-.254-.531-.145-.18 1.629-.945 2.832-1.543 4.312-.043.107.477.277.531.143.596-1.482 1.361-2.683 1.543-4.31z" transform="matrix(.95 0 0 .95 .55 1.75)"/><path id="ID0.4278274942189455" d="M48.494 95.872c-.078-.135-.568-.168-.523-.09 1.129 1.935 2.16 3.689 2.467 5.947.018.133.543.232.523.09-.305-2.258-1.338-4.012-2.467-5.947z" transform="matrix(.95 0 0 .95 .55 1.75)"/></g></g></g><g id="Right_Arm"><path id="Skin_Arm_Right" fill="#D8AD8C" d="M13.571 66.831c-.666-.195-.59.58-.865 1.154-.555 1.155-.807 2.117-1.305 3.268-.555 1.275-.539 1.389-.998 2.656-.102.274.504 1.98.416 2.244-.096.289.314.701.186.982-.285.626-.141.637.088 1.459.152.548-.297 1.169-.164 1.76.148.655-.367 1.146-.246 1.777.27 1.395-.201 2.475-.463 3.766-.504 2.487-.881 4.717-1.023 7.312-.066 1.281-.49 3.152-.625 4.451-.137 1.326-.242 4.868-.613 3.627-.148-.49 4.85 4.145 4.533 3.773-.713-.84 1.514 4.252 1.85 5.303.379 1.184-.875.656-1.836.416-.531-.135-2.562-6.811-1.666-.031.074.568.904 3.562 1.023 4.072.221.938 1.742 4.535.395 4.172-.318.355-1.977-.275-3.055-.697-.766-.301-1.311-.996-2.082-1.201-.566-.152-.623-.113-1.107-.42-.527-.336-1.459-.033-1.871-.496-.586-.658-2.219-4.281-2.363-5.246-.189-1.262-.564-2.172-.363-3.508.199-1.316.531-1.129.709-2.48.334-2.545.834-2.904.482-5.37-.17-1.197-.072-2.861-.186-4.087-.127-1.336-.133-2.779-.465-4.103-.154-.61-.041-1.204-.227-1.815-.178-.593-.158-1.062-.285-1.687-.254-1.242-.25-2.978-.457-4.24-.383-2.336-1.406-6.313-.613-8.792.443-1.379.232-.596.771-1.9.564-1.363.719-2.965 1.303-4.241.557-1.218.594-2.294.869-3.534.156-.715.184-1.121.537-1.734.334-.578.221-.295.369-.363.814.914.238.617.969 1.033.766.438 2.16 1.428 2.979 1.709.797.276 1.377.592 2.234.637.436.023 1.072.154 1.479.115.266-.024.379.194.65.16.172-.023.969.151.691.073" transform="matrix(.95 0 0 .95 .55 1.75)"/><g id="Right_Arm_Lines"><g id="ID0.6422691652551293" fill="#010101"><path id="ID0.590569575317204" d="M13.586 66.704c.098-.205-.426-.362-.529-.143-1.236 2.565-1.996 5.077-2.918 7.76-.074.224.451.371.531.143.922-2.684 1.68-5.196 2.916-7.76z" transform="matrix(.95 0 0 .95 .55 1.75)"/><path id="ID0.8460732926614583" d="M1.717 70.848c-.051.237.48.375.531.143.611-2.687 1.102-5.17 2.033-7.773.078-.223-.447-.372-.529-.143-.929 2.604-1.424 5.086-2.035 7.773z" transform="matrix(.95 0 0 .95 .55 1.75)"/><path id="ID0.47427193028852344" d="M10.166 72.217c-.051-.223-.592-.295-.531-.047 1.279 5.779.895 10.167.039 15.949-.648 4.373-1.459 8.769-1.77 13.184-.018.246.514.369.529.143.34-4.819 1.248-9.61 1.943-14.385.81-5.556 1.015-9.314-.21-14.844z" transform="matrix(.95 0 0 .95 .55 1.75)"/><path id="ID0.47093902016058564" d="M2.594 102.657c.006.227.543.312.535.049-.184-5.52-.824-10.791-1.504-16.268-.332-2.673-1.064-5.429-1.08-8.127-.02-3.039 1.008-4.729 1.705-7.494.059-.234-.469-.375-.531-.143C1.201 72.729-.013 74.518 0 76.706c.016 2.648.527 5.146.85 7.759.762 6.114 1.537 12.029 1.744 18.192z" transform="matrix(.95 0 0 .95 .55 1.75)"/><path id="ID0.467072781175375" d="M1.592 111.004c.006.223.543.311.533.047-.033-1.49-.408-3.096-.111-4.574.264-1.307.779-2.535 1.045-3.842.051-.238-.482-.375-.529-.143-.305 1.502-.934 2.896-1.111 4.428-.157 1.342.146 2.739.173 4.084z" transform="matrix(.95 0 0 .95 .55 1.75)"/><path id="ID0.5970852319151163" d="M8.262 101.256c-.189-.166-.615-.014-.344.225 1.455 1.262 2.92 2.518 4.33 3.832.16.15.676.082.438-.141-1.442-1.343-2.938-2.625-4.424-3.916z" transform="matrix(.95 0 0 .95 .55 1.75)"/><path id="ID0.7528074788860977" d="M14.573 110.92c.086.201.623.221.5-.051-.838-1.9-1.791-3.764-2.32-5.781-.055-.223-.596-.289-.535-.049.54 2.055 1.501 3.948 2.355 5.881z" transform="matrix(.95 0 0 .95 .55 1.75)"/><path id="ID0.40099156368523836" d="M14.793 111.047c.316-.102-.096-.41-.311-.342-.646.205-1.389.342-1.846-.279-.266-.363-.424-.791-.58-1.209-.291-.777-.588-1.549-1.355-1.961-.256-.141-.547.119-.229.291.979.525 1.061 2.014 1.625 2.877.622.948 1.718.934 2.696.623z" transform="matrix(.95 0 0 .95 .55 1.75)"/><path id="ID0.8206738266162574" d="M10.842 107.516c-.004-.225-.541-.312-.535-.047.086 2.438 1.051 4.752 1.074 7.203.002.223.539.312.535.047-.025-2.453-.988-4.765-1.074-7.203z" transform="matrix(.95 0 0 .95 .55 1.75)"/><path id="ID0.08801772724837065" d="M7.346 109.651c-.09-.199-.629-.217-.504.049.773 1.662 1.521 3.328 2.006 5.1.059.221.6.287.535.047-.494-1.802-1.25-3.503-2.037-5.196z" transform="matrix(.95 0 0 .95 .55 1.75)"/><path id="ID0.12323915911838412" d="M11.922 114.485c-.115-.186-.656-.195-.504.049.783 1.289 1.211 2.617 1.096 4.139-.021.246.51.371.529.143.121-1.599-.297-2.974-1.121-4.331z" transform="matrix(.95 0 0 .95 .55 1.75)"/><path id="ID0.06952123623341322" d="M12.323 119.055c.139.178.645.121.438-.143-1.096-1.406-2.688-2.496-3.482-4.125-.1-.197-.637-.215-.504.051.811 1.666 2.424 2.778 3.548 4.217z" transform="matrix(.95 0 0 .95 .55 1.75)"/><path id="ID0.7933958163484931" d="M7.336 117.127c.076.205.609.229.504-.053-.811-2.156-1.432-4.375-2.164-6.561-.068-.209-.602-.232-.504.051.733 2.183 1.352 4.405 2.164 6.563z" transform="matrix(.95 0 0 .95 .55 1.75)"/><path id="ID0.4918669266626239" d="M12.823 118.872c.049-.238-.48-.375-.531-.143-.207 1.025-4.293-1.309-4.756-1.816-.15-.166-.662-.104-.439.141.599.655 5.38 3.517 5.726 1.818z" transform="matrix(.95 0 0 .95 .55 1.75)"/><path id="ID0.35866865795105696" d="M5.698 116.686c.107.189.646.199.504-.049-1.133-1.934-2.066-3.951-2.461-6.17-.041-.225-.58-.301-.535-.047.404 2.252 1.341 4.305 2.492 6.266z" transform="matrix(.95 0 0 .95 .55 1.75)"/><path id="ID0.03446547267958522" d="M7.092 117.303c.264.129.559-.131.23-.293-.395-.189-.918-.297-1.23-.613-.152-.158-.668-.094-.438.141.387.398.954.529 1.438.765z" transform="matrix(.95 0 0 .95 .55 1.75)"/><path id="ID0.9072102401405573" d="M4 116.288c.084.205.615.225.504-.047-.727-1.764-1.82-3.365-2.41-5.188-.068-.215-.609-.279-.535-.047.599 1.856 1.701 3.487 2.441 5.282z" transform="matrix(.95 0 0 .95 .55 1.75)"/><path id="ID0.5425228774547577" d="M5.516 116.708c.363.045.234-.33-.051-.369-.35-.043-.686-.113-.977-.322-.203-.143-.643.016-.35.225.409.292.89.405 1.378.466z" transform="matrix(.95 0 0 .95 .55 1.75)"/></g></g></g><g id="Shirt"><path id="Shirt_2_" fill="#555D7B" d="M22.725 36.83c0 1.17-.674 2.612-.506 3.108.375 1.123.803.982 1.264 2.092.508 1.228 1.721 2.571 2.189 3.814.443 1.179 1.641 2.406 2.416 3.42 1.078 1.404 1.678 1.856 3.191 2.054 1.668.219 2.746-.478 3.617-1.8.861-1.31.656-2.222.129-3.54-.229-.569-1.27-2.293-1.627-2.841-.41-.625-.443-.7-.449-1.761.947.417 1.805.956 2.902 1.606 2.07 1.224 4.414 2.421 4.682 5.239.129 1.389.418 3.06.588 4.462.164 1.362.652 1.983.998 3.302.352 1.333 1.275 2.429 1.957 3.572.609 1.025 1.795 1.039 1.639 1.868-.221 1.177-1.545 2.7-2.561 3.256-.59.325-1.867 1.532-2.521 1.625-.895.127-1.34.315-2.043.379-1.59.144-.684 4.613-.787 5.856-.156 1.851-.059 1.41.152 2.886.104.716.688 2.502.879 3.207.223.834.562 1.884.76 2.646.176.672.793 1.674 1.018 2.312.234.665.338 1.048.625 1.703.574 1.323 1.229 2.198 1.615 3.612.191.694.32.701.195 1.477-.102.643-.486 1.568-.545 2.221-.127 1.424.701 2.678 1.031 3.841.221.777.715 1.324.57 2.016-.201.965-.469.656-1.387 1.215-1.316.799-2.77 1.526-4.037 2.385a55.759 55.759 0 0 1-4.145 2.574c-1.346.754-2.443 1.514-3.818 2.225-1.105.568-2.965 1.445-4.172 1.58-2.906.32-6.171.559-8.65-.688-1.42-.717-4.123-1.412-4.514-3.102-.32-1.379.83-2.092.857-3.559.066-3.545-.604-7.286-.322-10.835.221-2.767.363-5.048-.258-8.265-.27-1.399-.529-1.573-.58-3.096-.049-1.449-.678-3.021-.854-4.436-.209-1.719-1.213-2.268-.236-4.487.238-.733.715-1.983 1.238-3.169.172-.393-1.521-.203-1.932-.242-.891-.087-4.225-1.092-5.332-1.891-.729-.523-5.031-4.65-4.85-5.523.133-.642 1.584-1.021 1.838-1.714.234-.64.941-.86 1.172-1.512.457-1.287.99-1.231 1.137-2.652.295-2.814 1.629-2.464 2.291-5.353.328-1.428 2.818-4.605 3.652-5.867.959-1.45 2.695-1.755 3.953-2.557 2.43-1.546 2.141-1.208 4.678-1.86" transform="matrix(.95 0 0 .95 .55 1.75)"/><g id="Shirt_Lines_2_"><g id="ID0.4893760085105896" fill="#010101"><path id="ID0.8126672264188528" d="M22.766 36.942c.186-.051-.291-.266-.43-.227-6.041 1.652-10.693 3.533-13.916 8.982-1.34 2.262-2.223 4.785-3.252 7.197-1.141 2.675-2.279 4.151-4.271 6.148-.111.11.385.305.494.192 1.426-1.429 2.633-2.303 3.438-4.171 1.17-2.714 2.135-5.63 3.551-8.222 3.276-6.001 7.876-8.118 14.386-9.899z" transform="matrix(.95 0 0 .95 .55 1.75)"/><path id="ID0.6057872413657606" d="M33.106 41.32c-.146-.076-.633-.053-.316.109 2.441 1.259 6.596 3.171 7.271 5.812.582 2.268.451 4.691 1.117 6.926.777 2.604 2.178 5.591 4.445 7.19.113.077.646.113.416-.05-4.412-3.106-4.023-8.413-5.197-12.996-1.008-3.926-4.324-5.231-7.736-6.991z" transform="matrix(.95 0 0 .95 .55 1.75)"/><path id="ID0.5471409005112946" d="M46.096 61.405c.059-.121-.455-.299-.529-.143-1.48 3.057-4.354 5.262-7.791 5.451-.281.016.199.257.334.25 3.517-.195 6.468-2.421 7.986-5.558z" transform="matrix(.95 0 0 .95 .55 1.75)"/><path id="ID0.37690982408821583" d="M37.51 72.792c.016.146.543.255.527.08-.605-6.26 1.273-12.539.91-18.828-.01-.181-.537-.257-.529-.143.365 6.312-1.513 12.608-.908 18.891z" transform="matrix(.95 0 0 .95 .55 1.75)"/><path id="ID0.4051677384413779" d="M37.99 62.769c.006-.176-.525-.269-.529-.142-.17 5.628-.162 11.205 1.256 16.703.811 3.14 2.656 5.814 3.537 8.83 1.021 3.502-.773 5.424-2.463 8.21-.064.105.436.295.529.145 1.057-1.746 3.559-4.508 2.9-6.763-.895-3.061-2.773-5.674-3.58-8.799-1.552-6.018-1.837-11.999-1.65-18.184z" transform="matrix(.95 0 0 .95 .55 1.75)"/><path id="ID0.8118530767969787" d="M14.028 66.675c.279-.024-.201-.261-.338-.25-5.434.456-9.836-2.574-12.283-7.246-.078-.147-.586-.192-.525-.08 2.63 5.019 7.435 8.056 13.146 7.576z" transform="matrix(.95 0 0 .95 .55 1.75)"/><path id="ID0.09669136442244053" d="M13.94 66.51c-.006.178.527.268.529.143.021-2.76.738-7.988 3.943-8.812.18-.047-.291-.266-.43-.229-3.29.844-4.023 6.084-4.042 8.898z" transform="matrix(.95 0 0 .95 .55 1.75)"/><path id="ID0.03882122179493308" d="M33.143 42.601c-.105-.096-.623-.141-.488-.015 1.463 1.344 2.852 3.595 2.383 5.7-.918 4.111-5.236 3.079-7.359.3-2.443-3.2-4.207-7.017-6.33-10.444-.076-.122-.598-.199-.486-.016 2.078 3.349 3.742 7.458 6.332 10.443 1.098 1.266 2.305 2.588 4.035 2.855 5.665.874 4.807-6.164 1.913-8.823z" transform="matrix(.95 0 0 .95 .55 1.75)"/><path id="ID0.796741412486881" d="M42.596 92.758c.002-.178-.527-.268-.529-.143-.02 2.244 2.736 5.181.637 7.056-.113.1.375.299.496.191 2.177-1.942-.624-4.812-.604-7.104z" transform="matrix(.95 0 0 .95 .55 1.75)"/><path id="ID0.6079542157240212" d="M26.108 105.93c.355-.004-.052-.254-.221-.254-5.348.072-9.02-4.896-11.572-9-.076-.123-.598-.199-.486-.018 2.718 4.374 6.62 9.35 12.279 9.272z" transform="matrix(.95 0 0 .95 .55 1.75)"/><path id="ID0.09658871218562126" d="M43.326 99.588c.107-.068-.354-.281-.496-.189-3.561 2.229-7.174 4.499-10.84 6.543-5.353 2.98-14.35 4.521-18.455-1.26-.084-.121-.607-.189-.486-.02 2.084 2.934 7.203 4.494 10.658 4.271 7.207-.462 13.688-5.634 19.619-9.345z" transform="matrix(.95 0 0 .95 .55 1.75)"/><path id="ID0.9580045794136822" d="M11.619 71.847c-.041-.153-.566-.233-.525-.081 1.445 5.497 2.682 10.702 2.551 16.393-.125 5.48.689 11.078-.615 16.439-.037.156.494.291.529.143 1.498-6.167.908-13.594.678-19.912-.159-4.368-1.514-8.789-2.618-12.982z" transform="matrix(.95 0 0 .95 .55 1.75)"/></g></g></g></g></svg>