<svg width="120" height="120" viewBox="0 0 120 120" xmlns="http://www.w3.org/2000/svg" xmlns:xlink="http://www.w3.org/1999/xlink"><defs><path id="a" d="M0 119.56h36.771V.353H0z"/></defs><g fill="none" fill-rule="evenodd"><path d="M59.432 85.963v24.385" stroke="gray" stroke-width="2.736"/><path fill="gray" d="M57.933 52.87h2.997v-33.2h-2.997zm-2.315 28.17h7.583V57.801h-7.583z"/><path d="M64.424 86.86l9.713 23.488M55.272 86.86l-9.713 23.488" stroke="gray" stroke-width="2.736"/><path fill="gray" d="M58.104 14.229h2.281V.439h-2.281z"/><g transform="translate(42 .087)"><path d="M27.245 84.52c0 4.995-4.394 9.045-9.813 9.045-5.42 0-9.813-4.05-9.813-9.046 0-4.996 4.393-9.046 9.813-9.046 5.42 0 9.813 4.05 9.813 9.046m-2.224-28.242c0 3.864-3.398 6.997-7.59 6.997-4.19 0-7.589-3.133-7.589-6.997 0-3.865 3.398-6.997 7.59-6.997 4.191 0 7.59 3.132 7.59 6.997M22.798 17.94c0 2.732-2.402 4.947-5.366 4.947-2.964 0-5.367-2.215-5.367-4.947 0-2.733 2.403-4.948 5.367-4.948s5.366 2.215 5.366 4.948" fill="#C40715"/><mask id="b" fill="#fff"><use xlink:href="#a"/></mask><path fill="gray" mask="url(#b)" d="M0 119.56h36.771v-10.704H0z"/></g></g></svg>