<svg width="161" height="127" viewBox="0 0 161 127" xmlns="http://www.w3.org/2000/svg"><g fill="none" fill-rule="evenodd"><path d="M99.322 43.834l8.713 29.73s2.003 7.03 1.43 8.648c-.924 2.596-2.802 15.592-41.009 31.062 0 0 11.237-9.46 12.628-11.421 0 0-3.098 2.373-8.297 4.256 0 0 4.151-3.602 7.812-12.252.414.162-2.621 1.225-4.729 3.683 0 0 2.534-8.316 2.103-13.138l-2.854 2.903s1.314-7.253 2.056-13.858l-2.104 2.333.413-13.466s-.068-7.958 2.414-10.054" fill="#2E4166"/><path d="M99.322 43.834l8.713 29.73s2.003 7.03 1.43 8.648c-.924 2.596-2.802 15.592-41.009 31.062 0 0 11.237-9.46 12.628-11.421 0 0-3.098 2.373-8.297 4.256 0 0 4.151-3.602 7.812-12.252.414.162-2.621 1.225-4.729 3.683 0 0 2.534-8.316 2.103-13.138l-2.854 2.903s1.314-7.253 2.056-13.858l-2.104 2.333.413-13.466s-.068-7.958 2.414-10.054" stroke="#5F6484" stroke-width=".5"/><path d="M96.808 90.964s.156-.069.437-.218c.28-.15.695-.37 1.191-.701.498-.33 1.086-.757 1.721-1.305.63-.552 1.314-1.222 1.921-2.08.612-.848 1.172-1.88 1.453-3.089a7.567 7.567 0 0 0-.084-3.862c-.051-.169-.083-.31-.151-.504l-.172-.451-.347-.912a58.57 58.57 0 0 0-.855-1.849l-.94-1.804-.997-1.787a143.346 143.346 0 0 0-2.112-3.473c-.701-1.142-1.442-2.23-2.144-3.295a126.351 126.351 0 0 0-2.081-3.026c-.668-.957-1.316-1.85-1.92-2.67-1.199-1.648-2.259-2.975-2.98-3.919a61.925 61.925 0 0 0-1.17-1.455l.984 1.587 2.613 4.166 3.693 5.879 2.049 3.33a149.21 149.21 0 0 1 2.06 3.464l1.001 1.753.941 1.762c.287.583.57 1.163.85 1.736.127.301.251.602.375.9l.186.446c.041.107.089.276.134.41a6.985 6.985 0 0 1 .219 3.392c-.202 1.08-.64 2.061-1.158 2.898-.52.837-1.11 1.544-1.666 2.139a16.698 16.698 0 0 1-1.556 1.435c-.916.744-1.495 1.103-1.495 1.103" fill="#1E223D"/><path d="M154.466 58.714s1.795-8.155-2.985-12.954c-4.138-4.154-22.224-17.276-48.906-14.251-8.73 1.098-10.067 6.6-12.37 8.377-1.919 1.48-2.748 3.213-23.251 3.87 0 0-14.065 2.489-34.03 2.538 0 0-17.105-1.439-20.704-1.74-4.53-.378-8.158.544-8.158 1.837 0 1.391 9.473 3.441 9.473 3.441s-1.356.697-.571 3.178c.5 1.584 5.491.55 10.769-.909 3.312-.915 6.163-1.868 6.163-1.868 7.689 8.784 24.985 23.653 46.654 18.823 12.534-2.587 23.51-15.32 25.36-17.566 5.345-6.49 11.94-3.876 11.94-3.876s19.437.006 35.347 5.117c0 0 3.698 1.056 5.269 5.983" fill="#353C62"/><path d="M100.953 38.245s-2.637.705-3.512 9.57c-.551 5.588-5.85 10.14-11.098 13.6-12.43 8.193-23.299 7.729-26.054 7.616 0 0 7.662 2.726 20.127-1.108 11.389-3.503 17.943-13.782 20.362-15.385 7.543-5 12.807-4.937 12.807-4.937-2.837-2.914-5.754-5.286-7.904-6.44-5.602-3.002-4.728-2.916-4.728-2.916" fill="#FAF1E8"/><path d="M108.321 43s2.05-.268 2.341-2.471c.234-1.777-.276-6.054.08-7.328.355-1.274.827-1.996.827-1.996s21.918-1.023 39.912 14.555c4.621 4.001 2.984 12.954 2.984 12.954s-.886-4.01-5.383-6.02c-4.693-2.095-29.688-5.822-35.232-5.08L108.32 43z" fill="#FFA364"/><path d="M113.85 47.614l-5.325-4.515s30.331 2.694 41.191 9.628c0 0-17.056-5.124-35.866-5.113" fill="#FF7664"/><path d="M154.45 59.03s3.296-10.926-7.793-17.009c-4.928-2.703-10.34-3.02-11.09.163-.497 2.116 1.262 5.49 10.124 8.498 4.56 1.549 8.134 4.687 8.759 8.349" fill="#353C62"/><path d="M154.466 58.714s1.795-8.155-2.985-12.954c-4.138-4.154-22.224-17.276-48.906-14.251-9.73 1.027-10.747 8.726-14.609 9.978-3.4 1.757-16.553 1.927-21.012 2.27-4.214.206-16.153 3.683-38.65 2.317 0 0-7.554-.561-11.708-1.121-4.504-.607-12.568-.977-12.534 1.438.02 1.391 9.473 3.441 9.473 3.441s-1.452 2.19-.44 3.367c1.386 1.61 12.975-1.538 16.91-3.002 0 0 14.965 20.176 40.376 19.773 13.99-.67 23.773-10.179 25.636-12.415 8.99-10.786 17.833-9.94 17.833-9.94s19.437.005 35.347 5.116c0 0 3.698 1.056 5.269 5.983z" stroke="#1E223D" stroke-width=".5"/><path d="M110.634 34.142s-9.8-2.861-10.574 1.238c-.772 4.1 5.295 6.553 8.17 7.579 0 0 2.089-.287 2.458-2.575.369-2.289-.22-4.405-.054-6.242" fill="#FFD5A3"/><path d="M111.692 31.072s-1.304 1.147-1.033 4.397c.27 3.25.637 7.061-2.338 7.53 0 0 5.124 4.195 5.698 4.816M108.321 43s41.97 4.005 45.268 13.665" stroke="#1E223D" stroke-width=".5"/><path d="M146.678 41.912s-9.337-4.514-11.005-.066c-1.552 4.142 6.03 7.152 7.686 7.95" stroke="#1E223D" stroke-width=".5"/><path d="M103.785 36.733a2.114 2.114 0 0 1 2.46-1.705 2.122 2.122 0 0 1 1.697 2.47 2.114 2.114 0 0 1-2.46 1.706 2.122 2.122 0 0 1-1.697-2.471" fill="#1E223D"/><path d="M104.752 36.911c.133-.73.83-1.212 1.555-1.078a1.342 1.342 0 0 1-.482 2.64 1.341 1.341 0 0 1-1.073-1.562" fill="#495AA9"/><path d="M105.224 36.998a.856.856 0 1 1 1.685.31.858.858 0 0 1-.997.69.86.86 0 0 1-.688-1m-75.11 13.009s-.418-.53-.799-1.086a8.27 8.27 0 0 1-.503-.778l-.216-.366.158.394c.088.241.231.55.385.854.298.616.635 1.208.636 1.208l.339-.226z" fill="#1E223D"/><path d="M83.424 49.832L74.68 88.915s-2.12 9.216-3.57 10.905c-2.33 2.711-11.443 17.42-55.751 19.908 0 0 15.814-6.587 18.219-8.344 0 0-4.227 1.537-10.13 1.61 0 0 5.903-2.561 14.21-11.344.292.366-3.133.366-6.485 2.415 0 0 7.069-8.856 9.4-14.784l-4.299 2.269s5.332-8.098 9.766-15.663l-3.28 1.903 8.017-15.883s4.445-9.514 7.943-10.978" fill="#353C62"/><path d="M83.424 49.832L74.68 88.915s-2.12 9.216-3.57 10.905c-2.33 2.711-11.443 17.42-55.751 19.908 0 0 15.814-6.587 18.219-8.344 0 0-4.227 1.537-10.13 1.61 0 0 5.903-2.561 14.21-11.344.292.366-3.133.366-6.485 2.415 0 0 7.069-8.856 9.4-14.784l-4.299 2.269s5.332-8.098 9.766-15.663l-3.28 1.903 8.017-15.883s4.445-9.514 7.943-10.978" stroke="#5F6484" stroke-width=".5"/></g></svg>