<svg width="480" height="360" viewBox="0 0 480 360" xmlns="http://www.w3.org/2000/svg" xmlns:xlink="http://www.w3.org/1999/xlink"><defs><path d="M.346 408.492V0H408.84v408.492H.346zm.51-.51H408.33V.51H.856v407.472z" id="a"/><linearGradient x1="0%" y1="50%" x2="100%" y2="50%" id="b"><stop stop-color="#B1D6C1" offset="0%"/><stop stop-color="#DDE4CA" offset="100%"/></linearGradient><path id="d" d="M0 .252h221.096v202.131H0z"/><path id="f" d="M.352.381H161.79V152H.352z"/></defs><g fill="none" fill-rule="evenodd"><path fill="#BAE5FF" d="M-1.042 360.237h480V-47.745h-480z"/><g transform="translate(31.42 -48)"><mask id="c" fill="#fff"><use xlink:href="#a"/></mask><path d="M.856 407.982H408.33V.51H.856v407.472zm-.51.51H408.84V0H.346v408.492z" fill="url(#b)" mask="url(#c)"/></g><path fill="#9FBA33" d="M-4.383 360.237H486.1v-40.566H-4.383z"/><path fill="#AFCD3A" d="M-4.383 319.671H486.1v-15.298H-4.383z"/><g transform="translate(10 101.933)"><mask id="e" fill="#fff"><use xlink:href="#d"/></mask><path d="M221.096 187.517c0-8.424-8.714-15.252-19.465-15.252-2.419 0-4.73.346-6.866.978 2.32-2.511 3.691-5.595 3.691-8.932 0-8.423-8.715-15.251-19.466-15.251-4.85 0-9.28 1.39-12.689 3.688-.803-5.582-5.45-10.252-11.822-12.344a12.345 12.345 0 0 0 1.254-5.39c0-2.532-.792-4.919-2.187-7.02 7.51-2.116 12.883-7.744 12.883-14.357 0-3.631-1.622-6.963-4.326-9.583 4.877-2.771 8.051-7.27 8.051-12.35 0-8.424-8.715-15.253-19.466-15.253v-.001c0-8.423-8.715-15.253-19.466-15.253a24.61 24.61 0 0 0-5.216.558c-2.112-3.973-6.308-7.095-11.52-8.532 1.475-2.147 2.314-4.603 2.314-7.214 0-8.423-8.716-15.252-19.467-15.252-.475 0-.944.018-1.41.044.906-1.762 1.41-3.684 1.41-5.7 0-8.423-8.715-15.253-19.466-15.253-3.3 0-6.405.645-9.128 1.78C66.55 5.083 58.95.252 49.91.252c-10.752 0-19.467 6.83-19.467 15.252 0 6.824 5.718 12.599 13.605 14.548-3.176 2.714-5.114 6.33-5.114 10.3 0 5.158 3.269 9.713 8.268 12.473-5 2.76-8.268 7.316-8.268 12.473 0 .789.077 1.562.224 2.32-.075 0-.149-.004-.224-.004-10.75 0-19.466 6.83-19.466 15.251 0 2.568.813 4.986 2.244 7.11-9.926.698-17.706 7.229-17.706 15.186 0 8.423 8.716 15.253 19.467 15.253 1.197 0 2.367-.09 3.506-.25-2.208 2.472-3.506 5.478-3.506 8.725 0 2.381.697 4.635 1.939 6.643-8.312 1.738-14.436 7.676-14.436 14.734 0 2.76.94 5.345 2.575 7.579C5.693 159.806 0 165.57 0 172.377c0 6.483 5.166 12.019 12.446 14.226-.946 1.794-1.47 3.76-1.47 5.821 0 3.807 1.784 7.286 4.729 9.96h190.268c8.66-1.548 15.123-7.614 15.123-14.867" fill="#FFF" mask="url(#e)"/></g><g transform="translate(307.827 155.481)"><mask id="g" fill="#fff"><use xlink:href="#f"/></mask><path d="M150.97 129.396c4.75-2.56 7.868-6.846 7.868-11.704 0-2.275-.687-4.423-1.902-6.329h.134c2.74-2.488 4.401-5.725 4.401-9.268 0-5.918-4.625-10.989-11.195-13.119.921-1.703 1.431-3.574 1.431-5.538 0-7.839-8.111-14.194-18.116-14.194-.232 0-.462.006-.692.012 2.237-2.36 3.562-5.284 3.562-8.451 0-7.536-7.497-13.699-16.967-14.164 3.894-2.604 6.367-6.474 6.367-10.8 0-5.47-3.953-10.215-9.742-12.585 2.372-2.4 3.787-5.41 3.787-8.68 0-7.84-8.11-14.195-18.117-14.195-10.005 0-18.117 6.356-18.117 14.195 0 2.648.93 5.125 2.541 7.247-8.373 1.252-14.703 7.015-14.703 13.94 0 .903.113 1.785.319 2.642-.283-.01-.567-.017-.853-.017-9.812 0-17.797 6.113-18.103 13.742-3.311-2.82-8.059-4.59-13.335-4.59-10.005 0-18.116 6.357-18.116 14.195 0 .38.024.755.061 1.127l-.061-.002c-10.006 0-18.117 6.356-18.117 14.195 0 4.86 3.118 9.145 7.868 11.704C4.802 90.96.352 95.947.352 101.752c0 3.708 1.816 7.083 4.787 9.611H20.49c-5.958 2.324-10.054 7.142-10.054 12.71 0 1.966.51 3.837 1.43 5.54-6.57 2.13-11.195 7.201-11.195 13.118 0 3.543 1.662 6.781 4.402 9.268h151.93c2.971-2.528 4.788-5.903 4.788-9.61 0-5.805-4.45-10.794-10.821-12.993" fill="#FFF" mask="url(#g)"/></g><path d="M386.073 37.021c0-3.418-3.538-6.19-7.903-6.19a9.86 9.86 0 0 0-2.677.364c-.415-3.113-3.775-5.54-7.858-5.54-4.142 0-7.538 2.497-7.873 5.675a9.76 9.76 0 0 0-3.11-.5c-4.366 0-7.904 2.773-7.904 6.191-4.364 0-7.902 2.773-7.902 6.193 0 3.42 3.538 6.191 7.902 6.191 1.724 0 3.318-.434 4.616-1.168.531 3.016 3.832 5.34 7.827 5.34 3.685 0 6.782-1.978 7.655-4.652 1.399 1.74 3.872 2.899 6.691 2.899 2.94 0 5.505-1.26 6.866-3.127a9.664 9.664 0 0 0 3.67.708c4.364 0 7.902-2.772 7.902-6.191 0-3.42-3.538-6.193-7.902-6.193m-211.965 8.091c0-5.853-6.056-10.598-13.526-10.598-1.609 0-3.152.22-4.583.624-.71-5.329-6.462-9.483-13.452-9.483-7.09 0-12.901 4.274-13.476 9.713a16.717 16.717 0 0 0-5.325-.854c-7.47 0-13.527 4.745-13.527 10.598-7.47 0-13.527 4.746-13.527 10.6 0 5.852 6.056 10.597 13.527 10.597 2.95 0 5.68-.743 7.902-2 .908 5.164 6.557 9.14 13.396 9.14 6.309 0 11.61-3.384 13.104-7.96 2.395 2.978 6.627 4.96 11.454 4.96 5.033 0 9.421-2.156 11.751-5.352 1.878.772 4.014 1.212 6.282 1.212 7.472 0 13.527-4.745 13.527-10.598 0-5.853-6.055-10.6-13.527-10.6" fill="#FFF"/><path fill="#F68E21" d="M286.487 123.778h-85.775V72.916l41.647-30.642 44.128 30.642z"/><path d="M243.6 68.85c-9.825 0-17.818 7.992-17.818 17.816 0 9.824 7.993 17.817 17.817 17.817 9.825 0 17.818-7.993 17.818-17.817s-7.993-17.817-17.818-17.817" fill="#FFF"/><path fill="#414042" d="M192.258 86.666l-7.33-12.983 57.304-40.701 57.025 38.203-6.986 13.22-49.785-32.838z"/><path d="M252.307 81.349l-7.556 4.193a2.479 2.479 0 0 0-2.302 0l-7.558-4.193a1.48 1.48 0 1 0-1.436 2.588l7.71 4.278a2.48 2.48 0 0 0 4.867 0l7.711-4.278a1.48 1.48 0 1 0-1.436-2.588" fill="#414042"/><path fill="#D57C1C" d="M81.447 307.611h320.14V228.42H81.447z"/><path fill="#414042" d="M407.696 230.516h-333.2l-15.164-39.572h364.371z"/><path fill="#F68E21" d="M172.996 307.611h137.043V144.997H172.996z"/><path fill="#895E3C" d="M201.288 307.611h80.46v-88.265h-80.46z"/><path fill="#99D7DE" d="M205.606 307.611h71.823v-83.53h-71.823z"/><path fill="#FFF" d="M234.091 224.082h-28.485v17.13l55.549 66.399h16.274V275.25z"/><path fill="#895E3C" d="M239.905 307.611h3.37v-85.775h-3.37z"/><path fill="#C2986C" d="M187.81 313.525h107.415v-10.953H187.81z"/><path fill="#414042" d="M328.081 153.85h-173.97l-15.165-39.571h205.143z"/><path fill="#895E3C" d="M96.647 288.601h64.45v-41.446h-64.45z"/><path fill="#99D7DE" d="M99.125 286.377h59.866V249.38H99.125z"/><path fill="#FFF" d="M139.835 249.38h-20.16l31.287 36.997h8.028v-14.382zm-26.304 0h-11.678l31.288 36.997h12.37z"/><path fill="#895E3C" d="M117.428 287.108h1.685v-38.46h-1.685zm22.747 0h1.685v-38.46h-1.685z"/><path fill="#895E3C" d="M97.917 268.72h61.776v-1.684H97.917zm225.468 19.881h64.45v-41.446h-64.45z"/><path fill="#99D7DE" d="M325.863 286.377h59.866V249.38h-59.866z"/><path fill="#FFF" d="M366.574 249.38h-20.161l31.287 36.997h8.03v-14.382zm-26.304 0h-11.678l31.286 36.997h12.37z"/><path fill="#895E3C" d="M344.166 287.108h1.685v-38.46h-1.685zm22.747 0h1.685v-38.46h-1.685z"/><path fill="#895E3C" d="M324.654 268.72h61.777v-1.684h-61.777zm-138.671-89.637h57.116v-18.94h-57.116z"/><path fill="#99D7DE" d="M187.563 178.066h54.056v-16.907h-54.056z"/><path fill="#FFF" d="M222.716 161.16H205.01l14.31 16.92h17.727zm-23.101 0h-10.257l14.31 16.92h10.572z"/><path fill="#895E3C" d="M203.639 178.398h1.479v-17.684h-1.48zm19.976 0h1.48v-17.684h-1.48zm18.005 0h1.479v-17.684h-1.48z"/><path fill="#895E3C" d="M241.62 179.089h57.115v-18.94h-57.116z"/><path fill="#99D7DE" d="M243.199 178.072h54.056v-16.907h-54.056z"/><path fill="#FFF" d="M278.352 161.166h-17.707l14.31 16.92h17.728zm-23.102 0h-10.256l14.31 16.92h10.573z"/><path fill="#895E3C" d="M259.275 178.404h1.48V160.72h-1.48zm19.976 0h1.48V160.72h-1.48zm18.004 0h1.48V160.72h-1.48z"/><path fill="#FFF" d="M191.899 213.972h99.439v-28.15h-99.44z"/><text font-family="LucidaGrande, Lucida Grande" font-size="16.762" fill="#414042" transform="translate(-5 -48)"><tspan x="205.623" y="250.23">SCHOOL</tspan></text><path d="M45.108 298.892a6.365 6.365 0 0 0-2.126-4.754 6.477 6.477 0 0 0-3.244-10.098 6.475 6.475 0 0 0-7.04-8.357 6.474 6.474 0 0 0-12.04-1.044 6.47 6.47 0 0 0-8.794 2.503 6.474 6.474 0 0 0-10.628 5.265 6.644 6.644 0 0 0-3.088 12.28l-.014.115A6.474 6.474 0 0 0 .61 306.63a6.475 6.475 0 0 0 6.117 5.204v.006H33.56a5.166 5.166 0 0 0 4.97-6.572c.066.002.13.005.196.005a6.38 6.38 0 0 0 6.38-6.38m446.374 2.795a6.364 6.364 0 0 0-2.126-4.754 6.477 6.477 0 0 0-3.243-10.098 6.475 6.475 0 0 0-7.04-8.357 6.474 6.474 0 0 0-12.041-1.044 6.471 6.471 0 0 0-8.794 2.503 6.474 6.474 0 0 0-10.628 5.265 6.644 6.644 0 0 0-3.087 12.28l-.015.115a6.474 6.474 0 0 0 2.476 11.828 6.475 6.475 0 0 0 6.118 5.204v.006h26.833a5.166 5.166 0 0 0 4.972-6.572c.064.002.13.005.195.005a6.38 6.38 0 0 0 6.38-6.38" fill="#9FBA33"/></g></svg>