<svg width="120" height="120" viewBox="0 0 120 120" xmlns="http://www.w3.org/2000/svg" xmlns:xlink="http://www.w3.org/1999/xlink"><defs><path id="a" d="M.109.172h51.598v51.725H.109z"/><path id="c" d="M0 .172h85.182V93.62H0z"/></defs><g fill="none" fill-rule="evenodd"><g transform="translate(64.886 .345)"><mask id="b" fill="#fff"><use xlink:href="#a"/></mask><path d="M13.473 9.523a20.502 20.502 0 0 1 11.13-4.133L24.4 20.865 13.473 9.523zM5.349 24.258A20.613 20.613 0 0 1 9.62 13.333l11.796 10.704-16.068.221zM38.289 9.48c-2.54 2.65-6.092 6.46-10.003 10.697L27.604 5.42c3.99.326 7.66 1.785 10.685 4.061zm8.123 14.211l-15.925.22L41.26 12.21a20.636 20.636 0 0 1 5.15 11.481zm-4.476 15.374L30.184 26.87l16.345-.119a20.621 20.621 0 0 1-4.593 12.315zm-12.437 7.34l-.726-15.693 11.359 10.306a20.554 20.554 0 0 1-10.633 5.388zm-5.311-15.654l.082-.09-.082 6.226v11.911c.078.757.118 1.525.106 2.305l-.011.737a26.02 26.02 0 0 0 1.625.057c14.248 0 25.8-11.58 25.8-25.863 0-14.282-11.552-25.862-25.8-25.862-14.249 0-25.8 11.58-25.8 25.862h24.08v4.717z" fill="#F68E1E" mask="url(#b)"/></g><path d="M70.235 24.604l16.068-.223-11.796-10.703a20.611 20.611 0 0 0-4.272 10.926M89.49 5.735a20.5 20.5 0 0 0-11.131 4.133L89.285 21.21l.205-15.475zm13.685 4.09a20.51 20.51 0 0 0-10.685-4.06l.682 14.757c3.91-4.237 7.463-8.047 10.003-10.697m8.123 14.211a20.63 20.63 0 0 0-5.151-11.48l-10.775 11.7 15.926-.22zm-4.477 15.374a20.622 20.622 0 0 0 4.594-12.315l-16.345.12 11.751 12.196zm-12.436 7.34a20.552 20.552 0 0 0 10.632-5.387L93.66 31.056l.726 15.695zm-5.311-15.654v6.136l.082-6.226z" fill="#FFCA05"/><g transform="translate(4 26.207)"><mask id="d" fill="#fff"><use xlink:href="#c"/></mask><path d="M22.298 53.99c-9.081-.14-16.33-7.633-16.192-16.737l.168-11.019h-.077V12.321c4.385-1.018 10.218-1.206 15.692 2.334 10.664 6.897 16.512 9.656 24.08 3.793 7.567-5.862 16.855-9.655 23.046-4.828 3.345 2.609 6.29 6.318 9.97 7.443v2.812c.067.648.101 1.307.092 1.974l-.192 12.52c-.139 9.104-7.613 16.37-16.694 16.232l-39.893-.612zm24.576 4.527l18.595.285c10.6.162 19.326-8.32 19.489-18.947l.21-13.877.012-.737a19.45 19.45 0 0 0-.106-2.305V.172H.109V25.69h.09L.001 38.553c-.162 10.627 8.3 19.373 18.902 19.535l19.404.298v27.682l-10.699-.033c-6.941-.021-12.655 1.076-12.76 2.451l-.147 1.891c-.008.101.019.2.07.299v2.945H70.41v-3.302h-.059l.129-1.664c.106-1.375-5.436-2.507-12.378-2.528l-11.228-.034V58.517z" fill="#8AD3DC" mask="url(#d)"/></g><path d="M58.912 45.345c1.9 0 3.44 1.544 3.44 3.448a3.444 3.444 0 0 1-3.44 3.449c-1.9 0-3.44-1.544-3.44-3.449a3.444 3.444 0 0 1 3.44-3.448zm7.912-4.138c1.14 0 2.064.926 2.064 2.07a2.067 2.067 0 0 1-2.064 2.068 2.067 2.067 0 0 1-2.064-2.069c0-1.143.924-2.069 2.064-2.069zm-45.75 6.552A2.755 2.755 0 0 1 18.32 45a2.755 2.755 0 0 1 2.752-2.758A2.755 2.755 0 0 1 23.825 45a2.755 2.755 0 0 1-2.752 2.759zM15.57 70.517c-4.817-7.93-1.376-25.862-1.376-25.862 1.72 7.242 1.376 25.862 1.376 25.862zm50.62 10.29c9.082.14 16.556-7.127 16.695-16.23l.192-12.52a16.77 16.77 0 0 0-.092-1.975V47.27c-3.68-1.125-6.625-4.834-9.97-7.443C66.824 35 57.536 38.793 49.97 44.655c-7.568 5.863-13.416 3.104-24.08-3.793-5.474-3.54-11.307-3.352-15.692-2.333V52.44h.077l-.168 11.02c-.138 9.103 7.11 16.596 16.192 16.735l39.892.612z" fill="#FBB216"/><path d="M58.912 52.242c1.9 0 3.44-1.544 3.44-3.449a3.444 3.444 0 0 0-3.44-3.448c-1.9 0-3.44 1.544-3.44 3.448a3.444 3.444 0 0 0 3.44 3.449m7.912-6.897c1.14 0 2.064-.926 2.064-2.069a2.066 2.066 0 0 0-2.064-2.069c-1.14 0-2.064.926-2.064 2.07 0 1.142.924 2.068 2.064 2.068m-45.751-3.103A2.755 2.755 0 0 0 18.322 45a2.755 2.755 0 0 0 2.751 2.759A2.755 2.755 0 0 0 23.825 45a2.755 2.755 0 0 0-2.752-2.758" fill="#F68E1E"/><path d="M15.57 70.517s.344-18.62-1.376-25.862c0 0-3.44 17.931 1.376 25.862" fill="#FEFEFE"/></g></svg>