<svg width="120" height="120" viewBox="0 0 120 120" xmlns="http://www.w3.org/2000/svg"><g fill="none" fill-rule="evenodd"><path d="M48.506 79.933s2.718 2.581 2.047 3.5c-.67.92-3.113 9.103-4.426 13.11-1.32 4.006-4.807 13.41-5.95 14.954-1.137 1.546-3.156 1.67-2.528 2.958.622 1.289 1.885 4.042 4.709 4.378 2.83.335 9.635 1.453 10.778.085 1.151-1.367 1.363-2.942.156-4.451-1.2-1.512-2.068-1.76-.946-4.476 1.122-2.718 6.494-18.535 8.103-21.526 1.61-2.987 4.617-4.118 4.617-4.118l-16.56-4.414" fill="#1F2020"/><path d="M58.296 80.115c5.768 1.778 10.695 2.135 9.593 4.698-.727 1.677-5.647 1.725-11.414-.048-5.76-1.77-9.868-4.593-9.459-6.377.46-2.02 5.52-.046 11.28 1.727" fill="#2C2F2E"/><path d="M58.381 78.827c5.76 1.773 10.123 4.22 9.741 5.467-.38 1.244-5.364.816-11.131-.956-5.76-1.772-10.123-4.223-9.742-5.466.382-1.246 5.365-.82 11.132.955" fill="#161616"/><path d="M50.179 78.275S78.66 3.323 79.339.626c0 0 .882-.627 1.517 1.745.643 2.373 6.057 17.227-.776 39.726-6.833 22.5-14.061 40.856-14.061 40.856s-10.49-.703-15.84-4.678" fill="#C3CCD9"/><path d="M77.821 4.75c.19-.69 2.188-4.173 3.332.596.805 3.353 1.779 12.462-.657 23.466-3.868 17.53-12.134 43.991-18.938 53.486 0 0-10.603-2.137-11.38-4.023 0 0 26.768-70.447 27.643-73.526" fill="#A3ADB6"/><path d="M64.664 82.824a.245.245 0 0 0 .14.294.26.26 0 0 0 .212-.014.299.299 0 0 0 .106-.123c0-.01.014-.043.036-.103l-.494-.054" fill="#555A59"/><path d="M80.292 1.619l-.148.36c2.788 5.918 3.896 20.193 1.22 32.409-2.76 12.596-16.552 48.06-16.693 48.416 0 .007-.007.013-.007.02l.494.054c.84-2.156 13.99-36.093 16.68-48.384 1.666-7.6 1.87-16.001 1.115-22.734-.664-4.902-1.722-8.09-2.054-9.24a10.35 10.35 0 0 0-.36-.823l-.247-.078" fill="#CED7E0"/><path d="M48.266 115.088a1.569 1.569 0 0 1-1.793 1.307l-1.927-.303a1.573 1.573 0 0 1 .494-3.108l1.92.304c.854.137 1.44.941 1.306 1.8" fill="#2E3231"/><path d="M48.153 114.618a1.203 1.203 0 0 1-1.377.997l-1.468-.231a1.2 1.2 0 0 1 .374-2.37l1.469.23a1.206 1.206 0 0 1 1.002 1.374" fill="#FFFFFE"/></g></svg>