<svg width="120" height="120" viewBox="0 0 120 120" xmlns="http://www.w3.org/2000/svg"><g fill="none" fill-rule="evenodd"><path d="M54.015 29h40.421a11.763 11.763 0 0 1 11.431 8.992l4.016 16.574v21.793a3.769 3.769 0 0 1-3.768 3.77H13.844a3.77 3.77 0 0 1-3.772-3.768V55.288l4.219-21.26A6.243 6.243 0 0 1 20.414 29h33.6z" fill="#A4C639"/><path d="M103.988 52.551l-2.912-12.239a6.724 6.724 0 0 0-6.54-5.166H79.203v17.405h24.785z" fill="#52631D"/><path d="M73.058 77.899c0 7.488 6.068 13.557 13.554 13.557 7.486 0 13.554-6.07 13.554-13.557 0-7.488-6.068-13.558-13.554-13.558-7.486 0-13.554 6.07-13.554 13.558" fill="#522D2D"/><path d="M80.74 77.382a6.895 6.895 0 1 0 13.79 0 6.895 6.895 0 0 0-13.79 0" fill="#FFF"/><path d="M85.348 77.189a2.09 2.09 0 1 0 4.183 0 2.092 2.092 0 0 0-4.183 0m-62.986.71c0 7.488 6.068 13.557 13.554 13.557 7.487 0 13.555-6.07 13.555-13.557 0-7.488-6.068-13.558-13.555-13.558-7.486 0-13.554 6.07-13.554 13.558" fill="#522D2D"/><path d="M30.043 77.382a6.895 6.895 0 1 0 13.79 0 6.895 6.895 0 0 0-13.79 0" fill="#FFF"/><path d="M34.652 77.189a2.09 2.09 0 1 0 4.183 0 2.092 2.092 0 0 0-4.183 0m75.778-5.165h-7.823c-1.047 0-1.897.85-1.897 1.898v6.47h6.428a5.19 5.19 0 0 0 5.19-5.191v-1.279a1.897 1.897 0 0 0-1.898-1.898m-101.533 0h7.823c1.047 0 1.897.85 1.897 1.898v6.47h-6.428A5.19 5.19 0 0 1 7 75.2v-1.279c0-1.048.848-1.898 1.897-1.898" fill="#522D2D"/><path fill="#AE392E" d="M10.072 68.306h5.216v-8.574h-5.216z"/><path fill="#FFD800" d="M10.072 62.262h5.216v-2.53h-5.216z"/><path fill="#7B952B" d="M79.203 56.477h6.042v-2.892h-6.042zm-24.58 0h6.042v-2.892h-6.042z"/><path fill="#52631D" d="M30.043 52.551h21.998V35.146H30.043zm24.58 0H76.62V35.146H54.623zm-25.91 0V35.146h-7.03a2.61 2.61 0 0 0-2.564 2.122l-2.902 15.283h12.496z"/></g></svg>