<svg width="120" height="120" viewBox="0 0 120 120" xmlns="http://www.w3.org/2000/svg" xmlns:xlink="http://www.w3.org/1999/xlink"><defs><path id="a" d="M0 .037h119.115v23.669H0z"/><path id="c" d="M0 104.328h119.115V.035H0z"/></defs><g fill="none" fill-rule="evenodd"><path fill="#E49A61" d="M120 112.965H.885V46.127H120z"/><g transform="matrix(-1 0 0 1 120 8.637)"><g transform="translate(0 37.453)"><mask id="b" fill="#fff"><use xlink:href="#a"/></mask><path d="M119.115.037s-8.392 17.362-21.094 17.362c-12.408 0-7.755-5.46-20.783-5.46-12.608 0-5.273 11.767-18.767 11.767-11.295 0-7.29-16.336-21.405-16.336-13.233 0-6.978 11.492-18.145 11.492C3.408 18.862 0 .037 0 .037h119.115z" fill="#E2E2E2" mask="url(#b)"/></g><mask id="d" fill="#fff"><use xlink:href="#c"/></mask><path fill="#DB5743" mask="url(#d)" d="M0 75.385h119.115v-5.601H0zm0 16.802h119.115v-5.602H0z"/><path fill="#C6C6C6" mask="url(#d)" d="M77.468.473L0 37.49h119.113z"/><path d="M78.169 19.172c0 8.508-6.873 11.668-15.355 11.668-8.477 0-15.355-3.16-15.355-11.668 0-8.506 6.878-15.403 15.355-15.403 8.482 0 15.355 6.897 15.355 15.403" fill="#DB5743" mask="url(#d)"/><path d="M78.169 15.437c0 8.507-6.873 11.668-15.355 11.668-8.477 0-15.355-3.161-15.355-11.668 0-8.505 6.878-15.401 15.355-15.401 8.482 0 15.355 6.896 15.355 15.401" fill="#F87670" mask="url(#d)"/></g></g></svg>