<svg width="480" height="360" viewBox="0 0 480 360" xmlns="http://www.w3.org/2000/svg" xmlns:xlink="http://www.w3.org/1999/xlink"><defs><path id="a" d="M0 .465h741.926v229.319H0z"/></defs><g fill="none" fill-rule="evenodd"><path fill="#B2DFF6" d="M-98 359h675v-675H-98z"/><path fill="#40AC7D" d="M-98 359h675V-20H-98z"/><path d="M239 89c149.632 0 283.203 45.277 371 116.175V359h-742V205.175C-44.203 134.277 89.367 89 239 89" fill="#31986A"/><path d="M239 106c157.842 0 295.852 47.539 371 118.453V359h-742V224.453C-56.852 153.539 81.157 106 239 106" fill="#51A7D8"/><g transform="translate(-132 129)"><mask id="b" fill="#fff"><use xlink:href="#a"/></mask><path d="M741.926 128.555v101.229H0V128.555C63.939 53.014 205.988.465 370.963.465c164.974 0 307.024 52.549 370.963 128.09" fill="#368CBC" mask="url(#b)"/></g></g></svg>