<svg width="120" height="120" viewBox="0 0 120 120" xmlns="http://www.w3.org/2000/svg" xmlns:xlink="http://www.w3.org/1999/xlink"><defs><path id="a" d="M.02.812h21.686v18.182H.019z"/><path id="c" d="M0 117.08h52.282V.033H0z"/><path id="e" d="M.162.24h10.735v4.453H.162z"/></defs><g fill="none" fill-rule="evenodd"><g transform="translate(34 2)"><path d="M13.578 111.916c-1.586.98-2.736 2.985-1.38 4.606 1.023 1.143 2.531.25 3.675-.234 1.268-.6 2.713-1.016 3.857-1.797.742-.517 1.614-1.093 2.112-1.862.154-.24.228-.46.173-.713h-8.437zm18.023 0c1.582.98 2.734 2.985 1.378 4.606-1.021 1.143-2.53.25-3.677-.234-1.266-.6-2.711-1.016-3.855-1.797-.74-.517-1.612-1.093-2.11-1.862-.157-.24-.228-.46-.173-.713h8.437z" fill="#EEEEED"/><path fill="#343434" d="M11.672 88.937l1.725 22.979h8.73l.335-16.617h.25l.335 16.617h8.73l1.727-22.979z"/><path fill="#E63744" d="M12.863 104.785l.534 7.16h8.73l.145-7.16zm10.041 0l.143 7.16h8.732l.537-7.16z"/><path fill="#EEEEED" d="M12.976 106.33h9.265l.002-.17h-9.279zm19.234-.17h-9.279l.004.17h9.261zm-.063.858h-9.2l.004.172h9.184zm-19.107.172h9.183l.002-.172h-9.197zm19.043.688h-9.118l.004.17h9.102zm-18.979.171h9.102l.004-.171h-9.116zm18.913.687h-9.036l.006.17h9.018zm-18.845.17h9.016l.004-.17h-9.035zm18.781.688H23l.004.175h8.938zm-18.718.175h8.937l.004-.175H13.22zm18.655.687h-8.871v.17h8.857zm-18.593.171h8.857l.004-.171h-8.873z"/><path d="M16.436 110.652c0 .214-.257.385-.318.576-.067.201.039.488-.083.653-.12.169-.429.158-.598.278-.167.122-.246.42-.448.485-.192.063-.434-.129-.646-.129-.216 0-.457.192-.649.129-.2-.066-.28-.363-.446-.485-.17-.12-.48-.11-.6-.278-.122-.165-.014-.452-.08-.653-.064-.191-.323-.362-.323-.576 0-.211.259-.38.322-.571.067-.202-.04-.488.082-.655.12-.167.43-.157.599-.279.165-.12.247-.415.446-.482.192-.063.433.128.649.128.212 0 .454-.19.646-.128.202.067.281.362.448.482.17.122.477.112.598.279.122.167.016.453.083.655.061.191.318.36.318.571" fill="#E63744"/><path d="M13.8 112.436a1.252 1.252 0 0 0-.307-.35c-.147-.108-.304-.15-.43-.187l-.019-.004c0-.004.004-.008.004-.014a1.25 1.25 0 0 0-.046-.466 1.248 1.248 0 0 0-.237-.397c-.004-.006-.01-.012-.012-.018.002-.01.008-.016.012-.022.082-.102.181-.228.237-.397.057-.173.053-.333.046-.466 0-.006-.004-.01-.004-.014l.015-.004c.13-.037.287-.08.434-.187.147-.106.236-.24.308-.348 0-.006.006-.01.008-.016l.01.002c.126.049.281.106.465.106.185 0 .342-.057.464-.104l.013-.004c0 .006.006.01.01.016.071.108.16.242.304.348.148.108.307.15.434.187l.014.004v.014c-.004.133-.012.293.045.466.055.169.15.295.234.397a.06.06 0 0 1 .015.022l-.015.018a1.21 1.21 0 0 0-.234.397c-.057.173-.049.336-.045.466v.014l-.01.004c-.13.037-.29.08-.438.187a1.3 1.3 0 0 0-.304.35c-.004.004-.01.01-.01.014-.004-.002-.008-.004-.013-.004a1.275 1.275 0 0 0-.464-.103c-.184 0-.339.056-.463.103l-.012.004c-.002-.004-.008-.01-.008-.014" fill="#EEEEED"/><path d="M13.832 112.486a1.27 1.27 0 0 0-.21-.185 1.711 1.711 0 0 0-.24-.145 1.454 1.454 0 0 0-.173-.529 1.448 1.448 0 0 0 .173-.53 1.36 1.36 0 0 0 .24-.14c.084-.058.153-.123.21-.186.086.016.182.029.282.029.1 0 .193-.013.277-.029.061.063.128.128.208.185a1.4 1.4 0 0 0 .247.14c.008.088.028.18.059.273.028.098.069.183.114.258a1.096 1.096 0 0 0-.114.259 1.322 1.322 0 0 0-.06.27 1.789 1.789 0 0 0-.246.145c-.08.059-.147.122-.208.185a1.451 1.451 0 0 0-.277-.029c-.1 0-.196.012-.282.029" fill="#2356A3"/><path d="M32.911 110.652c0 .214-.257.385-.32.576-.063.201.039.488-.077.653-.125.169-.432.158-.6.278-.167.122-.248.42-.448.485-.194.063-.436-.129-.648-.129-.214 0-.455.192-.649.129-.197-.066-.28-.363-.448-.485-.167-.12-.477-.11-.597-.278-.123-.165-.017-.452-.08-.653-.065-.191-.322-.362-.322-.576 0-.211.257-.38.322-.571.063-.202-.043-.488.08-.655.12-.167.43-.157.597-.279.167-.12.25-.415.448-.482.194-.063.435.128.649.128.212 0 .454-.19.648-.128.2.067.281.362.448.482.168.122.475.112.6.279.116.167.014.453.077.655.063.191.32.36.32.571" fill="#E63744"/><path d="M30.277 112.436c-.075-.11-.163-.242-.31-.35-.148-.108-.303-.15-.427-.187 0 0-.015-.002-.019-.004v-.014c.004-.13.014-.293-.045-.466-.055-.169-.155-.295-.234-.397a.078.078 0 0 0-.018-.018l.018-.022c.08-.102.18-.228.234-.397.06-.173.05-.333.045-.466v-.014l.012-.004c.13-.037.286-.08.435-.187.146-.106.234-.24.31-.348 0-.006.004-.01.008-.016l.006.002c.128.049.283.106.467.106.185 0 .338-.057.466-.104l.009-.004.012.016c.071.108.163.242.308.348.144.108.3.15.428.187l.018.004v.014c-.006.133-.014.293.043.466.055.169.153.295.234.397l.017.022a1.246 1.246 0 0 0-.25.415c-.058.173-.05.336-.044.466v.014l-.014.004c-.133.037-.288.08-.434.187a1.31 1.31 0 0 0-.306.35l-.012.014c-.005-.002-.005-.004-.005-.004-.132-.047-.285-.103-.47-.103-.184 0-.339.056-.463.103l-.01.004c-.004-.004-.009-.01-.009-.014" fill="#EEEEED"/><path d="M30.307 112.486a1.34 1.34 0 0 0-.208-.185 1.758 1.758 0 0 0-.246-.145.997.997 0 0 0-.06-.27 1.15 1.15 0 0 0-.112-.259 1.11 1.11 0 0 0 .113-.258.979.979 0 0 0 .059-.272 1.4 1.4 0 0 0 .454-.326c.086.016.178.029.282.029.097 0 .19-.013.279-.029.057.063.126.128.21.185.08.06.163.106.24.14.013.088.03.18.061.273.033.098.072.183.113.258a1.65 1.65 0 0 0-.113.259c-.03.093-.048.187-.06.27a1.602 1.602 0 0 0-.451.33 1.547 1.547 0 0 0-.28-.029c-.103 0-.195.012-.28.029" fill="#2356A3"/><path fill="#26476D" d="M15.005 55.928h15.042l-1.678 3.4-12.212-.29z"/><path d="M7.13 64.705C3.909 68.81 2.657 81.157 2.657 81.157v.002s.02-.018.025-.055c-.414.596-.697 1.373-.79 2.242-.221 2.066.778 3.86 2.217 4.015.941.1 1.842-.53 2.417-1.55.53.439 1.062.614 1.44.415.705-.375.623-1.912-.188-3.438A5.923 5.923 0 0 0 6.72 81.34a2.254 2.254 0 0 0-.096-.185s1.397-8.919 2.893-11.03c.748-1.053 1.229-1.65 1.4-2.117.139-.376.29-1.096.353-1.367.477-2.117 3.094-6.893 3.094-6.893S8.7 62.706 7.13 64.705" fill="#FDDFBB"/><g transform="translate(30.577 49.961)"><mask id="b" fill="#fff"><use xlink:href="#a"/></mask><path d="M20.061.991c-1.058-.445-2.321-.036-3.347.948-.46-.695-1.013-1.086-1.52-.988-.95.187-1.399 2.001-.997 4.057.15.783.405 1.487.717 2.05.039.257.098.503.18.73l-4.83 5.66L.02 9.789s1.743 2.756 2.171 3.763c.314.732.922 3.053.922 3.053s7.48 3.034 9.603 2.265c2.627-.948 5.638-9.48 5.638-9.48h-.002c1.131-.402 2.224-1.478 2.856-2.965.982-2.319.47-4.75-1.146-5.433" fill="#FDDFBB" mask="url(#b)"/></g><path d="M38.712 99s-17.292 1.624-32.489 0c2.293-2.85 2.293-9.109 2.293-9.109h27.96s-.06 6.338 2.236 9.108" fill="#2356A3"/><path d="M6.537 98.566a207.54 207.54 0 0 0 31.853 0c-.742-1.114-1.2-2.623-1.478-4.072-9.612.67-19.264.67-28.88 0-.289 1.438-.751 2.943-1.495 4.072" fill="#E63744"/><path d="M7.813 95.454c9.76.69 19.555.69 29.309-.002-.017-.075-.037-.15-.051-.224-9.722.685-19.478.685-29.2 0a2.648 2.648 0 0 1-.058.226" fill="#EEEEED"/><path d="M7.675 95.956c9.85.706 19.739.706 29.582 0-.02-.073-.042-.148-.06-.221-9.806.695-19.65.695-29.457 0-.022.073-.04.148-.065.221" fill="#343434"/><path d="M7.52 96.463c9.95.718 19.94.718 29.894 0a3.156 3.156 0 0 1-.071-.224c-9.905.71-19.847.71-29.752 0-.026.075-.045.149-.071.224" fill="#EEEEED"/><path d="M7.337 96.965c10.072.734 20.18.734 30.253 0a5.258 5.258 0 0 1-.084-.224c-10.013.729-20.07.729-30.084 0a2.67 2.67 0 0 1-.085.224" fill="#EEEEED"/><path d="M7.13 97.464c10.21.759 20.458.759 30.664 0-.034-.071-.063-.147-.093-.22a207.62 207.62 0 0 1-30.473 0c-.031.073-.062.147-.098.22" fill="#EEEEED"/><path d="M6.89 97.962c10.368.781 20.777.781 31.144 0-.036-.07-.075-.144-.11-.217a207.81 207.81 0 0 1-30.919-.002c-.039.075-.077.146-.114.22" fill="#EEEEED"/><path d="M6.97 80.89H2.607s1.25-12.526 4.627-16.55c1.482-1.765 5.547-4.13 6.287-4.539 1.84-1.184 7.37-1.365 7.37-1.365l1.54.047h.127l1.545-.047s5.55.196 7.381 1.39l9.344 3.54 4.75-5.613 4.24 2.111s-4.585 8.362-6.493 9.053c-2.03.734-8.129-1.672-8.645-1.906 2.055 8.854 1.774 21.964 1.774 21.964H8.54s-.18-10.499 1.276-19.128c-.07.1-.14.205-.22.315C8.5 71.712 6.971 80.89 6.971 80.89" fill="#2356A3"/><mask id="d" fill="#fff"><use xlink:href="#c"/></mask><path fill="#E63744" mask="url(#d)" d="M14.143 78.267h16.703V61.71H14.143z"/><path fill="#EEEEED" mask="url(#d)" d="M15.233 78.037H29.7v-.173H15.233zm.29-.289H29.41v-.17H15.523zm.112-.455h.345v-.344h-.345zm.515-.517h.347v-.344h-.346zm.519.517h.344v-.344h-.345zm.517-.517h.343v-.344h-.343zm.516.517h.342v-.344h-.342zm.516-.517h.346v-.344h-.346zm.515.517h.349v-.344h-.349zm.52-.517h.343v-.344h-.343zm.518.517h.345v-.344h-.345zm.516-.517h.344v-.344h-.344zm.515.517h.347v-.344h-.347zm.514-.517h.347v-.344h-.347zm.518.517h.344v-.344h-.344zm.518-.517h.34v-.344h-.34zm.515.517h.347v-.344h-.347zm.518-.517h.345v-.344h-.345zm.514.517h.346v-.344H23.9zm.521-.517h.343v-.344h-.342zm.514.517h.347v-.344h-.347zm.518-.517h.347v-.344h-.347zm.518.517h.345v-.344h-.345zm.518-.517h.342v-.344h-.342zm.515.517h.345v-.344h-.345zm.514-.517h.347v-.344h-.347zm.518.517h.344v-.344h-.344zm.515-.517h.345v-.344h-.344zm.518.517h.343v-.344h-.343zm-5.933-2.895c-.043-.061-.09-.124-.13-.185.036-.055.075-.11.11-.165.044.063.087.128.134.193-.039.05-.075.106-.114.157zm-.214.286c-.045-.059-.086-.117-.129-.172.035-.051.07-.098.106-.149.04.061.084.122.127.181a3.877 3.877 0 0 1-.104.14zm-.22.275c-.041-.055-.082-.106-.123-.16l.104-.141.127.167c-.037.045-.072.091-.108.134zm-.237.28c-.038-.046-.077-.097-.12-.142.043-.055.084-.103.12-.156.041.053.084.101.125.156-.04.045-.08.096-.125.143zm-.228-.28c-.04-.043-.073-.091-.112-.134.045-.055.085-.112.126-.167.035.045.074.094.106.14-.039.055-.08.106-.12.161zm-.222-.275c-.035-.048-.072-.093-.106-.14l.13-.18.106.148c-.04.055-.083.113-.13.172zm-.214-.286c-.039-.051-.076-.106-.114-.157l.134-.193c.033.055.073.11.108.165a3.367 3.367 0 0 1-.128.185zm.24-.676c.033.055.072.114.11.173-.036.053-.075.108-.11.163-.04-.055-.077-.112-.116-.165a6.22 6.22 0 0 1 .116-.17zm.21-.333c.039.059.076.118.112.179-.034.055-.069.11-.108.167-.036-.06-.075-.118-.108-.175.035-.057.072-.114.104-.171zm.214-.35c.037.057.074.12.114.183-.036.06-.073.116-.114.18a6.93 6.93 0 0 0-.108-.18c.039-.063.074-.126.108-.183zm.218.35c.035.057.072.114.108.17a4.013 4.013 0 0 1-.114.176c-.034-.057-.071-.112-.102-.167a5.21 5.21 0 0 1 .108-.18zm-.108.818c.035-.053.072-.104.102-.157.041.055.078.108.114.163-.036.048-.07.1-.108.148a7.096 7.096 0 0 1-.108-.154zm-.11.15c.037.053.074.102.114.155-.036.046-.073.097-.114.144-.034-.05-.07-.1-.106-.144.037-.053.072-.102.106-.155zm-.104-.462c.037-.055.07-.112.104-.164l.11.164c-.036.05-.069.104-.11.157a5.351 5.351 0 0 0-.104-.157zm0 .312c-.034.05-.071.103-.11.152a1.931 1.931 0 0 1-.104-.148c.037-.053.072-.106.108-.161l.106.157zm.536-.485c.035.055.074.114.113.171l-.11.165c-.04-.053-.078-.11-.115-.163.037-.059.076-.118.112-.173zm2.098-3.075v-7.102h-.173v7.043c-.002.039-.072 1.463-1.468 3.5-.045-.067-.092-.13-.135-.195 1.211-1.84 1.352-2.981 1.37-3.246h.004v-7.045h-.17v6.988c0 .014-.023 1.158-1.31 3.145-.038-.06-.079-.116-.114-.173 1.04-1.678 1.172-2.67 1.189-2.915h.002v-7.045h-.17v6.988c0 .012-.026.993-1.127 2.805a3.372 3.372 0 0 1-.108-.173c.893-1.513.991-2.347 1.003-2.575v-6.874h-.171v6.838c-.006.11-.051.907-.94 2.44-.034-.065-.077-.128-.11-.189.891-1.558.836-2.182.82-2.28v-6.12h-.172v6.185h.004c.009.149-.024.745-.754 2.04-.725-1.297-.756-1.891-.75-2.04h.008v-6.185h-.171v6.12c-.018.098-.077.722.815 2.28l-.112.19c-.878-1.526-.933-2.323-.937-2.441v-6.838h-.17v6.874c.009.228.11 1.062 1.003 2.575l-.106.173c-1.102-1.812-1.127-2.793-1.127-2.805v-6.988h-.171v7.045c.016.244.15 1.237 1.192 2.915-.036.057-.077.114-.118.173-1.28-1.985-1.307-3.13-1.307-3.145v-6.988h-.17v7.045h.001c.019.265.161 1.406 1.37 3.246-.043.065-.088.128-.134.196-1.393-2.038-1.464-3.464-1.464-3.5v-7.044h-.171v7.102c.02.293.191 1.678 1.529 3.596a33.13 33.13 0 0 1-1.515 1.963l.135.11a33.007 33.007 0 0 0 1.484-1.924c.04.05.077.103.116.154-.371.503-.81 1.058-1.33 1.658l.13.112c.509-.59.94-1.127 1.308-1.623.032.044.07.09.102.136-.326.429-.7.885-1.136 1.375l.125.114c.428-.478.8-.93 1.123-1.35l.106.131c-.282.35-.597.718-.954 1.103l.128.118c.349-.379.659-.74.94-1.086.037.046.075.093.116.138-.236.268-.495.545-.78.828l.124.122c.281-.277.536-.551.768-.818.239.267.494.541.773.818l.118-.122c-.28-.283-.538-.56-.773-.828.04-.045.078-.092.117-.138.279.345.59.707.937 1.086l.129-.118a20.481 20.481 0 0 1-.952-1.103c.032-.044.071-.087.102-.132.326.421.695.873 1.123 1.35l.128-.113c-.436-.49-.813-.946-1.137-1.375.035-.047.071-.092.106-.136.363.496.795 1.033 1.307 1.623l.128-.112a24.35 24.35 0 0 1-1.327-1.658c.037-.05.075-.104.11-.154.404.565.89 1.202 1.488 1.924l.133-.11a35.104 35.104 0 0 1-1.517-1.963c1.337-1.918 1.513-3.303 1.533-3.596h.004zm-9.818 6.989h.172V61.713h-.172zm-.289.401h.173V61.713h-.173zm-.283 0h.17V61.713h-.17zm-.29 0h.171V61.713h-.17zm15.27-.401h.173V61.713h-.173zm.864.401h.17V61.713h-.17zm-.289 0h.173V61.713h-.173zm-.287 0h.175V61.713h-.175zM16.84 76.202h.173V61.711h-.173zm-.286 0h.174V61.711h-.174zm-.287 0h.171V61.711h-.171zm-.287 0h.17V61.711h-.17zm3.502 0h.173V61.711h-.173zm-.286 0h.173V61.711h-.173zm-.291 0h.177V61.711h-.177zm-.285 0h.173V61.711h-.174zm7.521 0h.174V61.711h-.174zm-.289 0h.173V61.711h-.173zm-.284 0h.172V61.711h-.172zm-.287 0h.171V61.711h-.171zm3.502 0h.173V61.711h-.173zm-.289 0h.175V61.711h-.175zm-.29 0h.175V61.711h-.175zm-.284 0h.174V61.711h-.173zm-10.505 0h.803V61.768h-.803z"/><path fill="#E63744" mask="url(#d)" d="M17.645 76.03h.346v-.344h-.346zm0-.513h.346v-.344h-.346zm0-.517h.346v-.343h-.346zm0-.514h.346v-.344h-.346zm0-.515h.346v-.344h-.346zm0-.516h.346v-.344h-.346zm0-.517h.346v-.342h-.346zm0-.515h.346v-.343h-.346zm0-.514h.346v-.346h-.346zm0-.519h.346v-.344h-.346zm0-.514h.346v-.344h-.346zm0-.517h.346v-.344h-.346zm0-.515h.346v-.343h-.346zm0-.514h.346v-.342h-.346zm0-.515h.346v-.343h-.346zm0-.515h.346v-.343h-.346zm0-.516h.346v-.344h-.346zm0-.514h.346v-.344h-.346zm0-.517h.346v-.344h-.346zm0-.515h.346v-.343h-.346zm0-.518h.346v-.344h-.346zm0-.515h.346v-.344h-.346zm0-.515h.346v-.343h-.346zm0-.516h.346v-.344h-.346zm0-.514h.346v-.344h-.346zm0-.515h.346V62.8h-.346zm0-.515h.346v-.344h-.346zm0-.516h.346v-.344h-.346z"/><path fill="#EEEEED" mask="url(#d)" d="M26.714 76.202h.805V61.768h-.805z"/><path fill="#E63744" mask="url(#d)" d="M26.942 76.03h.347v-.344h-.347zm0-.513h.347v-.344h-.347zm0-.517h.347v-.343h-.347zm0-.514h.347v-.344h-.347zm0-.515h.347v-.344h-.347zm0-.516h.347v-.344h-.347zm0-.517h.347v-.342h-.347zm0-.515h.347v-.343h-.347zm0-.514h.347v-.346h-.347zm0-.519h.347v-.344h-.347zm0-.514h.347v-.344h-.347zm0-.517h.347v-.344h-.347zm0-.515h.347v-.343h-.347zm0-.514h.347v-.342h-.347zm0-.515h.347v-.343h-.347zm0-.515h.347v-.343h-.347zm0-.516h.347v-.344h-.347zm0-.514h.347v-.344h-.347zm0-.517h.347v-.344h-.347zm0-.515h.347v-.343h-.347zm0-.518h.347v-.344h-.347zm0-.515h.347v-.344h-.347zm0-.515h.347v-.343h-.347zm0-.516h.347v-.344h-.347zm0-.514h.347v-.344h-.347zm0-.515h.347V62.8h-.347zm0-.515h.347v-.344h-.347zm0-.516h.347v-.344h-.347zM5.673 68.47c1.91-6.184 9.495-7.026 9.495-7.026l6.323 1.873.194 1.717s-11.147-1.202-12.48 4.812c-.94.116-3.814-.472-3.532-1.375"/><path d="M5.887 68.673l-.163-.06c1.258-3.401 3.955-5.156 5.996-6.029 2.207-.946 4.146-1.09 4.164-1.09l.012.17c-.018.003-1.934.145-4.113 1.079-2.008.86-4.662 2.587-5.896 5.93" fill="#EEEEED" mask="url(#d)"/><path d="M6.19 68.844l-.163-.059a9.442 9.442 0 0 1 2.675-3.89c.978-.86 2.169-1.579 3.532-2.13 2.322-.942 4.377-1.082 4.4-1.082l.011.17c-.02.003-2.054.141-4.352 1.073-2.11.856-4.884 2.575-6.103 5.918m2.743 1.055l-.163-.05c.74-2.383 2.626-3.973 5.606-4.718 2.675-.665 5.773-.539 7.434-.47l-.01.171c-3.616-.146-11.152-.46-12.867 5.067" fill="#EEEEED" mask="url(#d)"/><path d="M8.603 69.73l-.163-.057c.842-2.408 2.483-3.958 5.01-4.73 2.375-.73 5.382-.733 8.274-.625l-.006.17c-2.88-.105-5.866-.105-8.219.617-2.472.76-4.073 2.272-4.896 4.625" fill="#EEEEED" mask="url(#d)"/><path d="M8.25 69.615l-.16-.053c1.808-5.146 6.735-5.953 13.576-5.587l-.007.17c-6.765-.361-11.635.43-13.409 5.47" fill="#EEEEED" mask="url(#d)"/><path d="M7.803 69.537l-.806-.298c1.077-2.885 2.769-4.668 5.317-5.618 2.124-.791 4.88-1.027 9.224-.791l-.047.858c-4.218-.23-6.87-.01-8.878.734-2.299.859-3.826 2.482-4.81 5.115m-.848-1.003l-.108.324-.327-.108.11-.325zm.355-.661l-.144.311-.316-.148.151-.31zm.409-.731l-.165.301-.302-.165.163-.3zm.519-.794l-.177.296-.295-.174.175-.295z" fill="#EEEEED" mask="url(#d)"/><path fill="#EEEEED" mask="url(#d)" d="M8.874 65.694l-.212.27-.271-.217.216-.267zm.692-.654l-.25.235-.239-.248.253-.236zm.799-.6l-.276.206-.206-.276.278-.206zm.858-.486l-.3.17-.171-.3.297-.169zm.965-.434l-.314.135-.14-.313.317-.136zm.908-.32l-.328.103-.106-.327.332-.104zm.911-.273l-.336.08-.081-.334.336-.08zm.623-.161l-.05-.34.34-.048.049.338zm.962-.125l-.028-.343.346-.025.027.342z"/><path fill="#E63744" mask="url(#d)" d="M7.43 68.912l.127-.321.322.126-.127.321zm.858-1.039l-.146.311-.314-.148.146-.31zm.048-.725l.186-.289.291.183-.185.293zm.629-.822l.21-.273.271.21-.206.272zm.687-.783l.249-.236.236.25-.249.236zm.808-.667l.284-.195.193.282-.28.196zm.926-.544l.306-.16.157.304-.304.16zm1.043-.485l.324-.124.118.323-.32.12zm1.103-.31l.332-.087.088.333-.335.086zm1.16-.252l.343-.049.05.34-.342.05zm1.043-.123l.343-.035.033.344-.343.032zm1.444-.084l.014.344-.345.016-.016-.341zm1.093-.053l.01.345-.345.008-.01-.343zm18.503-.739C32.288 61.322 30 61.4 30 61.4l-6.268 1.4-.516 2.233s8.792-.55 11.956 1.547c.622-.309 1.36-2.406 1.36-2.406s.71-1.79.244-1.89"/><path d="M36.906 62.673c-2.344-.785-7.74-1.007-7.795-1.009l.01-.173c.053.004 5.468.228 7.84 1.021l-.055.161z" fill="#EEEEED" mask="url(#d)"/><path d="M36.697 62.975c-3.398-.93-8.282-1.119-8.335-1.12l.008-.172c.047 0 4.958.192 8.37 1.127l-.043.165zm-1.19 3.508c-2.723-1.67-8.195-1.819-12.304-1.652l-.004-.17c4.132-.17 9.64-.017 12.396 1.675l-.088.147z" fill="#EEEEED" mask="url(#d)"/><path d="M35.507 66.14c-2.438-1.423-5.863-1.884-12.217-1.652l-.008-.171c6.393-.236 9.842.234 12.313 1.674l-.088.148z" fill="#EEEEED" mask="url(#d)"/><path d="M35.698 65.8c-2.984-1.518-6.22-1.95-12.35-1.654l-.007-.171c3.247-.159 5.653-.104 7.575.169 1.822.258 3.32.72 4.858 1.5l-.076.155z" fill="#EEEEED" mask="url(#d)"/><path d="M35.85 65.333c-2.545-1.385-5.313-1.756-12.354-1.646l-.012-.856c7.214-.116 10.078.277 12.78 1.75l-.415.752zm-6.435-2.747l.027-.344-.345-.029-.026.344zm.835-.318l-.033.342.344.034.031-.341zm1.094.113l-.04.342.34.038.043-.34zm1.099.167l-.053.338.34.053.052-.342zm1.366.572l.073-.334-.336-.077-.073.336zm.776-.127l-.083.331.334.088.084-.334zm1.103.336l-.104.327.328.106.104-.33z" fill="#EEEEED" mask="url(#d)"/><path fill="#E63744" mask="url(#d)" d="M35.507 64.475l-.322-.123-.122.326.322.118zm-1.419-.197l.324.118.118-.325-.324-.114zm-.968-.27l.332.091.094-.331-.334-.09zm-5.29-.93l-.017.344.346.016.012-.341zm1.42.417l.015-.343-.343-.015-.02.342zm1.023.065l.031-.343-.34-.032-.035.341zm1.083.122l.045-.342-.342-.044-.043.34zm1.084.177l.054-.34-.334-.057-.06.338zm-5.704-.834l-.008.345.342.008.01-.343zM4.823 69.43l4.33 1.684c.152-.42.301-.752.444-.954.032-.042.06-.085.091-.126l-4.484-1.747c-.135.37-.257.757-.381 1.143"/><path d="M5.091 68.606l4.411 1.704c.035-.055.064-.103.094-.148l-4.448-1.719c-.02.053-.036.108-.057.163m-.111.338l4.366 1.686c.025-.053.045-.108.071-.155l-4.386-1.694c-.017.055-.035.108-.051.163m-.108.336l4.34 1.675c.023-.055.043-.108.061-.16l-4.35-1.68c-.014.052-.034.11-.05.164" fill="#EEEEED" mask="url(#d)"/><path d="M36.928 61.887l-1.963 5.245c.255.102.647.252 1.126.427l1.963-5.245-1.126-.427z" fill="#E63744" mask="url(#d)"/><path d="M37.088 61.948l-2.016 5.225c.05.02.103.04.16.065l2.017-5.229-.161-.061zm.348.133l-2.018 5.227c.049.019.108.041.16.063l2.017-5.23-.16-.06zm.317.117l-2.017 5.227c.05.023.106.043.16.064l2.018-5.23-.161-.06z" fill="#EEEEED" mask="url(#d)"/><path d="M3.634 74.235c-.717 3.59-1.027 6.665-1.027 6.665H6.97s.528-3.167 1.187-6.096l-4.524-.569z" fill="#E63744" mask="url(#d)"/><path d="M2.667 80.366l4.399-.016c.01-.055.016-.112.032-.173l-4.409.016c-.01.062-.014.123-.022.173m.047-.391l4.4.104c.008-.057.022-.114.028-.173l-4.407-.102a2.301 2.301 0 0 1-.02.171m.043-.353l4.411.138c.01-.053.02-.112.033-.171l-4.42-.138a3.13 3.13 0 0 0-.024.17m.052-.397l4.423.2.029-.171-4.43-.2a4.33 4.33 0 0 1-.022.171m.042-.314l4.44.184.028-.171-4.446-.183c-.006.057-.012.116-.022.17m.052-.363l4.448.218c.012-.055.018-.112.032-.171l-4.456-.218c-.01.055-.018.114-.024.171m.049-.347l4.458.252c.01-.057.019-.114.033-.171l-4.466-.252-.025.17m.058-.399l4.46.315c.014-.054.023-.11.037-.17l-4.47-.314a4.18 4.18 0 0 1-.027.17m.049-.311l4.475.297c.014-.057.023-.114.035-.17l-4.485-.298-.024.171m.046-.305l4.488.296c.013-.056.025-.111.035-.17l-4.497-.297-.026.17m.055-.349l4.497.331c.01-.052.02-.111.035-.166l-4.501-.336-.03.17m.063-.396l4.501.394c.01-.055.02-.112.035-.169l-4.501-.396c-.015.057-.023.114-.035.17m.054-.311l4.513.38c.01-.059.02-.114.034-.169l-4.517-.38a2.244 2.244 0 0 1-.03.169m.056-.308l4.52.38c.011-.059.023-.114.035-.17l-4.529-.38a4.947 4.947 0 0 1-.026.17m.064-.35l4.522.415c.013-.057.023-.112.035-.169l-4.53-.414c-.007.054-.02.111-.028.168m.071-.397l4.524.476.035-.169-4.523-.478c-.017.057-.025.114-.035.171" fill="#EEEEED" mask="url(#d)"/><path d="M45.888 66.217c1.91-2.677 3.929-6.352 3.929-6.352l-4.238-2.112-4.316 5.095 4.625 3.369z" fill="#E63744" mask="url(#d)"/><path d="M45.15 58.26l4.256 2.33c.03-.05.06-.101.086-.148l-4.228-2.317-.114.135zm-.173.206l4.23 2.477c.03-.054.059-.101.085-.15l-4.205-2.459-.11.132zm-.211.244l4.264 2.539c.027-.051.06-.1.088-.149l-4.238-2.522-.114.132zm-.217.26l4.28 2.625c.027-.05.057-.1.088-.149l-4.258-2.607-.11.132zm-.217.255l4.344 2.634c.028-.049.059-.102.083-.149l-4.315-2.613-.112.128zm-.219.258l4.364 2.711.088-.148-4.34-2.695-.112.132zm-.203.243l4.39 2.76c.027-.05.062-.098.086-.149l-4.364-2.744-.112.133zm-.221.26l4.4 2.85.09-.147-4.378-2.836-.112.133zm-.217.256l4.456 2.86c.028-.05.059-.098.085-.145l-4.43-2.847-.111.132zm-.202.238l4.487 2.895c.035-.051.063-.098.094-.147l-4.468-2.88-.112.132zm-.204.243l4.51 2.945c.033-.047.06-.096.092-.145l-4.492-2.933-.11.133zm-.223.26l4.517 3.034c.028-.049.059-.097.09-.146l-4.493-3.018-.114.13zm-.219.258l4.57 3.033c.03-.047.059-.098.092-.145l-4.55-3.016-.112.128zm-.199.236l4.594 3.07.094-.147-4.578-3.055-.11.132zm-.205.243l4.609 3.122c.026-.05.063-.098.091-.147l-4.59-3.108-.11.133zm-.22.26l4.597 3.207c.033-.046.063-.095.096-.14l-4.582-3.2-.11.133zm-.236.28l4.627 3.232c.033-.049.065-.094.098-.14l-4.615-3.222-.11.13z" fill="#EEEEED" mask="url(#d)"/><path d="M25.472 58.488c.263-.577.418-1.232.418-1.645h-6.662c0 .413.157 1.068.42 1.645l-.477.047 3.347 4.735 3.472-4.725c-.182-.018-.355-.04-.518-.057" fill="#FDDFBB" mask="url(#d)"/><path d="M19.944 59.038l5.923-1.948.01-.014a20.01 20.01 0 0 1-3.39.288c-1.104 0-2.189-.091-3.247-.262.066.572.327 1.367.704 1.936" fill="#EEAC6C" mask="url(#d)"/><path d="M18.85 57.36c1.897.889 5.472.854 7.347 0 .498.228.681 2.524.681 2.524l-1 1.729-2.553 2.253-.864 4.477-.872-4.645-3.46-3.842s.275-2.323.722-2.496" fill="#EEEEED" mask="url(#d)"/><path d="M14.06 59.523c.405-.879.048-3.374.955-3.596 3.286.728 5.981 4.967 6.717 7.342.442 1.43.791 2.278.791 2.278s.369-.84.803-2.278c.72-2.383 3.296-6.951 6.737-7.342.891.238.58 2.75.816 3.588 0 3.423-7.263 4.316-7.263 4.316s-.824 2.312-.863 6.13c-.002.183-.29.673-.29.673s-.28-.49-.276-.673c.012-3.633-.812-6.13-.812-6.13s-7.316-1.296-7.316-4.308" fill="#274E84" mask="url(#d)"/><path d="M29.999 61.402c.096-.989.838-2.075.838-2.075-.135-.838.008-2.595-.483-3.203 0 0-4.722 1.239-6.738 7.706 0 0 4.452-.547 6.383-2.428" fill="#E63744" mask="url(#d)"/><path d="M30.49 56.365a11 11 0 0 0-2.79 1.633c-1.325 1.056-3.011 2.902-3.657 5.77l.187-.032c.647-2.775 2.281-4.569 3.572-5.598 1.282-1.023 2.468-1.507 2.75-1.613-.019-.054-.035-.111-.062-.16m-.768 5.283a4.058 4.058 0 0 1 1.111-2.36 2.227 2.227 0 0 1-.027-.215c-.316.285-1.141 1.174-1.272 2.724.062-.05.127-.098.188-.149" fill="#EEEEED" mask="url(#d)"/><path d="M30.574 56.605a13.29 13.29 0 0 0-2.674 1.7c-1.303 1.07-2.93 2.856-3.464 5.392.057-.01.118-.018.182-.032.542-2.449 2.118-4.182 3.386-5.225a12.92 12.92 0 0 1 2.613-1.664 1.395 1.395 0 0 0-.043-.17" fill="#EEEEED" mask="url(#d)"/><path d="M30.652 56.959c-.357.168-1.413.705-2.528 1.619-1.23 1.008-2.776 2.693-3.27 5.038.064-.013.125-.025.188-.04.497-2.255 1.996-3.882 3.186-4.864a12.703 12.703 0 0 1 2.452-1.576 2.292 2.292 0 0 0-.028-.177" fill="#EEEEED" mask="url(#d)"/><path d="M30.733 57.73a9.235 9.235 0 0 0-1.92 1.338c-.93.83-2.112 2.223-2.61 4.22.064-.016.127-.037.19-.055.504-1.902 1.637-3.234 2.528-4.031a9.246 9.246 0 0 1 1.822-1.286l-.01-.187" fill="#EEEEED" mask="url(#d)"/><path d="M30.75 58.025a8.454 8.454 0 0 0-1.71 1.255c-.816.765-1.864 2.044-2.384 3.873.065-.019.13-.041.198-.063.899-3.006 3.271-4.516 3.905-4.87a3.214 3.214 0 0 1-.01-.195" fill="#EEEEED" mask="url(#d)"/><path d="M29.09 62.097c.06-.04.123-.08.187-.12.263-2.11 1.176-2.914 1.51-3.144a6.205 6.205 0 0 1-.01-.2c-.288.165-1.415.964-1.688 3.464" fill="#EEEEED" mask="url(#d)"/><path d="M14.137 59.3l.016.029s.681.992.82 1.946c1.957 1.762 6.352 2.549 6.403 2.557-1.878-6.022-6.1-7.513-6.672-7.69-.465.614-.329 2.292-.567 3.158" fill="#E63744" mask="url(#d)"/><path d="M17.298 57.998a11.16 11.16 0 0 0-2.73-1.61c-.022.052-.04.107-.056.163.367.145 1.484.631 2.682 1.587 1.286 1.025 2.915 2.809 3.568 5.567.067.014.132.028.187.042-.65-2.855-2.334-4.696-3.65-5.75m-2.043 3.513c.063.048.126.097.195.141-.17-1.466-.96-2.306-1.261-2.58a1.75 1.75 0 0 1-.047.197 4.03 4.03 0 0 1 1.113 2.241" fill="#EEEEED" mask="url(#d)"/><path d="M17.099 58.305a13.16 13.16 0 0 0-2.613-1.67c-.015.055-.027.112-.041.173.485.23 1.494.767 2.546 1.632 1.26 1.037 2.825 2.751 3.378 5.174l.183.045c-.542-2.516-2.157-4.29-3.453-5.354" fill="#EEEEED" mask="url(#d)"/><path d="M16.874 58.577a12.813 12.813 0 0 0-2.464-1.586c-.008.057-.019.114-.027.177.428.21 1.384.722 2.385 1.544 1.182.972 2.66 2.577 3.176 4.798.061.016.122.03.186.044-.508-2.312-2.039-3.976-3.256-4.977" fill="#EEEEED" mask="url(#d)"/><path d="M16.187 59.068a9.418 9.418 0 0 0-1.863-1.31c-.006.063-.014.126-.016.187.78.421 3.374 2.028 4.26 5.162l.196.065c-.516-1.938-1.67-3.29-2.577-4.104" fill="#EEEEED" mask="url(#d)"/><path d="M15.956 59.28a8.726 8.726 0 0 0-1.655-1.226 2.899 2.899 0 0 1-.016.191c.685.393 2.905 1.857 3.814 4.703.067.024.134.048.204.07-.532-1.756-1.55-2.991-2.347-3.737M15.7 61.82c.06.044.126.082.191.12-.293-2.308-1.327-3.099-1.643-3.29l-.024.191c.338.236 1.19 1.017 1.476 2.98" fill="#EEEEED" mask="url(#d)"/><path d="M26.666 64.98c-.413-.733-2.864-.528-3.79-.418a.432.432 0 0 0-.684 0c-.913-.108-3.388-.32-3.802.417-.426.757.053 2.461 2.216 2.687.73.077.944-1.894 1.633-2.52a.431.431 0 0 0 .587.008c.685.639.905 2.63 1.625 2.512 2.493-.397 2.641-1.93 2.215-2.687" fill="#F6B90C" mask="url(#d)"/><path d="M18.708 65.895s-.005-.016-.005-.043a.528.528 0 0 1 .188-.468 1.42 1.42 0 0 1 .493-.29 3.9 3.9 0 0 1 .64-.17 6.924 6.924 0 0 1 1.221-.103c.17-.002.308.002.404.004.098.004.153.008.153.008l-.153.004c-.096.002-.234.006-.402.014-.167.009-.362.025-.568.043-.208.02-.426.047-.648.088a3.59 3.59 0 0 0-.628.158 1.972 1.972 0 0 0-.271.118 1.065 1.065 0 0 0-.22.149.684.684 0 0 0-.143.173.613.613 0 0 0-.055.162c-.01.045-.01.088-.01.11 0 .027.004.043.004.043m7.739 0s0-.016.004-.043c.003-.022-.004-.065-.008-.11a.624.624 0 0 0-.057-.162.771.771 0 0 0-.14-.173 1.123 1.123 0 0 0-.22-.149 2.15 2.15 0 0 0-.276-.118 3.521 3.521 0 0 0-.626-.158 7.483 7.483 0 0 0-.648-.088 14.34 14.34 0 0 0-1.125-.06s.057-.005.157-.01c.096-.001.236-.005.404-.003a6.84 6.84 0 0 1 1.221.104c.222.04.44.095.638.168.195.074.375.171.495.291a.708.708 0 0 1 .139.185.5.5 0 0 1 .049.283c-.003.027-.007.043-.007.043" fill="#A37A18" mask="url(#d)"/><path fill="#E63744" mask="url(#d)" d="M8.517 90.637h27.96v-3.84H8.516z"/><path fill="#2356A3" mask="url(#d)" d="M8.517 89.779h27.96v-2.122H8.516z"/><path fill="#F6B90C" mask="url(#d)" d="M9.149 89.779h2.525v-2.122H9.15zm4.019 0h2.526v-2.122h-2.526zm4.018 0h2.524v-2.122h-2.524zm4.018 0h2.526v-2.122h-2.526zm4.02 0h2.526v-2.122h-2.526zm4.018 0h2.523v-2.122h-2.523zm4.018 0h2.525v-2.122H33.26z"/><path fill="#EEEEED" mask="url(#d)" d="M25.084 87.62l-.52-.687-.518.687-.52-.687-.515.687-.518-.687-.516.687-.518-.687-.517.687-.518-.687-.518.687-.518-.687-.52.687-.517-.687-.518.687-.516-.687-.518.687-.515-.687-.522.687-.514-.687-.518.687-.52-.687-.517.687-.518-.687-.518.687-.518-.687-.517.687-.518-.687-.514.687-.522-.687-.515.687-.518-.687-.493.655-.05-.033.543-.718.518.687.515-.687.522.687.514-.687.518.687.517-.687.518.687.518-.687.518.687.518-.687.52.687.517-.687.514.687.522-.687.515.687.518-.687.516.687.518-.687.517.687.52-.687.518.687.518-.687.518.687.517-.687.518.687.516-.687.518.687.515-.687.52.687.518-.687.52.687.515-.687.518.687.518-.687.518.687.517-.687.516.687.518-.687.52.687.518-.687.517.687.518-.687.516.687.52-.687.515.687.522-.687.512.687.522-.687.515.687.52-.687.518.687.518-.687.542.718-.047.033-.495-.655-.518.687-.518-.687-.52.687-.515-.687-.522.687-.512-.687-.522.687-.515-.687-.52.687-.516-.687-.518.687-.517-.687-.518.687-.52-.687-.518.687-.516-.687-.517.687-.518-.687-.518.687-.518-.687zM13.175 90.6l-.517-.69-.518.69-.518-.69-.52.69-.513-.69-.52.69-.516-.69-.518.69-.542-.718.049-.035.493.657.518-.688.516.688.52-.688.513.688.52-.688.518.688.518-.688.517.688.518-.688.518.688.52-.688.518.688.513-.688.52.688.516-.688.52.688.515-.688.518.688.518-.688.52.688.517-.688.518.688.518-.688.516.688.517-.688.516.688.52-.688.516.688.52-.688.517.688.52-.688.516.688.518-.688.517.688.516-.688.518.688.518-.688.517.688.52-.688.518.688.518-.688.518.688.515-.688.52.688.516-.688.52.688.511-.688.524.688.516-.688.52.688.517-.688.518.688.496-.657.044.035-.54.718-.518-.69-.517.69-.52-.69-.516.69-.524-.69-.511.69-.52-.69-.516.69-.52-.69-.515.69-.518-.69-.518.69-.518-.69-.52.69-.517-.69-.518.69-.518-.69-.516.69-.517-.69-.518.69-.516-.69-.52.69-.517-.69-.52.69-.516-.69-.52.69-.516-.69-.517.69-.516-.69-.518.69-.518-.69-.517.69-.52-.69-.518.69-.518-.69-.515.69-.52-.69-.516.69-.52-.69-.513.69-.518-.69-.52.69-.518-.69z"/><path d="M22.484 17.37c-11.071 0-19.205 19.362-17.523 29.708 3.423 6.135 9.987 10.286 17.523 10.286a20.04 20.04 0 0 0 17.512-10.267c2.224-9.625-6.443-29.728-17.512-29.728" fill="#FDDFBB" mask="url(#d)"/><path d="M3.152 12.405s1.146 9.165 0 11.915c-.24.574-1.529 1.517-2.112 1.306-.737-.27-.905-3.574-.978-4.353-.624-6.79 3.692-14.66 3.692-14.66l-.602 5.792zm39.01 4.043s-1.855 14.829 0 19.281c.383.927 2.475 2.457 3.418 2.115-1.34-3.976 2.701-19.918-4.392-30.773-2.337.334.974 9.377.974 9.377" fill="#2356A3" mask="url(#d)"/><path d="M5.426 47.88c-2.2-10.408 6.537-14.343 17.131-14.343 9.758 0 19.663 4.78 16.982 14.345.867-1.214 1.641-2.917 2.298-4.959-1.918-3.695 3.21-26.363-.657-36.311 0 0-18.64-14.8-37.426 0-3.824 8.886 1.28 27.722-.528 36.311.64 2.056 1.382 3.76 2.2 4.957" fill="#E63744" mask="url(#d)"/><path d="M37.926 50.116c2.344-4.77.546-8.485-1.126-10.613-2.576-3.286-7.905-5.251-14.242-5.251-6.774 0-11.874 1.702-14.355 4.796-1.694 2.109-3.46 6.299-1.384 10.792 0 0-4.477-4.233-3.484-7.882.34-1.792 1.37-3.41 2.493-4.81 1.61-2.007 3.973-3.537 7.02-4.546 2.775-.919 6.042-1.385 9.71-1.385 3.408 0 6.688.537 9.493 1.556 3.05 1.109 5.52 2.789 7.147 4.86 1.019 1.299 2.17 2.753 2.535 4.32 1.056 2.702-3.807 8.163-3.807 8.163" fill="#C62C3B" mask="url(#d)"/><path d="M33.47 31.682c-3.52-1.55-7.617-2.325-11.855-2.235-4.038.081-7.877.948-11.093 2.5-3.024 1.458-5.384 3.485-6.895 5.912.002.146.002.299 0 .443 3.021-5.178 9.818-8.459 17.992-8.625 8.727-.18 16.42 3.319 19.791 8.949 0-.135.002-.277.01-.417-1.732-2.746-4.462-4.991-7.95-6.527" fill="#EEEEED" mask="url(#d)"/><path d="M33.47 29.563c-3.52-1.55-7.617-2.323-11.855-2.236-4.038.082-7.877.948-11.093 2.5-3.058 1.473-5.433 3.53-6.941 5.992.002.142.01.285.016.423 3-5.21 9.815-8.518 18.022-8.683 8.804-.183 16.556 3.379 19.877 9.096.006-.132.012-.27.024-.407-1.728-2.819-4.494-5.12-8.05-6.685" fill="#EEEEED" mask="url(#d)"/><path d="M33.47 28.933c-3.52-1.552-7.617-2.323-11.855-2.237-4.038.083-7.877.947-11.093 2.5-3.074 1.482-5.462 3.559-6.968 6.038.004.138.012.279.016.419 2.995-5.235 9.82-8.557 18.049-8.725 8.835-.181 16.61 3.406 19.912 9.16l.026-.409c-1.72-2.843-4.507-5.17-8.086-6.746" fill="#EEEEED" mask="url(#d)"/><path d="M33.47 28.246c-3.52-1.552-7.617-2.323-11.855-2.238-4.038.084-7.877.948-11.093 2.502-3.095 1.493-5.496 3.586-7 6.092.008.138.012.278.02.417 2.976-5.266 9.823-8.61 18.077-8.779 8.871-.18 16.677 3.438 19.954 9.234.009-.136.017-.272.027-.407-1.716-2.88-4.52-5.233-8.13-6.821" fill="#EEEEED" mask="url(#d)"/><path d="M33.47 27.614c-3.52-1.548-7.617-2.323-11.855-2.235-4.038.083-7.877.95-11.093 2.502-3.117 1.503-5.533 3.616-7.035 6.146l.026.415c2.956-5.296 9.824-8.664 18.106-8.831 8.91-.183 16.74 3.466 19.993 9.305l.029-.409c-1.715-2.91-4.53-5.288-8.17-6.893" fill="#EEEEED" mask="url(#d)"/><path d="M33.146 26.851c-3.578-1.5-7.687-2.237-11.878-2.12-3.904.105-7.628.951-10.765 2.442-3.054 1.456-5.486 3.506-7.076 5.963l.027.387c3.137-5.083 9.896-8.347 17.822-8.563 8.898-.244 16.71 3.207 20.407 9.012l.027-.376c-1.902-2.86-4.856-5.189-8.564-6.745" fill="#EEEEED" mask="url(#d)"/><path d="M33.224 26.117c-3.498-1.422-7.518-2.13-11.626-2.038-3.926.083-7.699.895-10.92 2.337-3.13 1.407-5.646 3.392-7.32 5.774.01.124.019.242.027.366 3.318-4.928 10.239-8.079 18.22-8.252 8.66-.185 16.385 3.135 20.158 8.673.006-.12.02-.24.03-.36-1.96-2.766-4.916-5.012-8.57-6.5" fill="#EEEEED" mask="url(#d)"/><path d="M32.865 25.312c-3.598-1.41-7.652-2.093-11.715-1.977-3.76.11-7.4.911-10.526 2.313-3.052 1.37-5.516 3.244-7.343 5.569l.029.341c3.657-4.798 10.27-7.773 17.846-7.99 8.415-.247 16.326 2.963 20.69 8.387l.027-.33c-2.228-2.694-5.332-4.873-9.008-6.313" fill="#EEEEED" mask="url(#d)"/><path d="M32.845 24.514c-3.632-1.377-7.732-2.03-11.853-1.892-7.62.258-14.184 3.134-17.78 7.747.008.112.014.224.029.34C6.759 26.035 13.339 23.11 21 22.854c8.58-.29 16.579 2.872 20.916 8.258l.029-.33c-2.226-2.687-5.365-4.85-9.1-6.268" fill="#EEEEED" mask="url(#d)"/><path d="M33.582 23.401c-3.398-1.344-7.243-2.048-11.432-2.086-4.193.04-7.984.734-11.264 2.062-3.133 1.27-5.755 3.106-7.808 5.461.025.242.047.482.064.722 4.099-4.975 10.655-7.647 19.008-7.729 8.454.08 15.5 2.951 19.867 8.093.016-.238.037-.476.06-.718-2.241-2.51-5.095-4.46-8.495-5.805" fill="#EEEEED" mask="url(#d)"/><path d="M33.614 19.925c-3.31-1.185-7.167-1.808-11.46-1.848-8.851.09-15.366 2.546-19.376 7.301.006.106.016.216.027.324 3.954-4.819 10.46-7.308 19.349-7.396 8.991.086 15.96 2.754 20.166 7.717l.023-.327c-2.216-2.55-5.152-4.49-8.73-5.77" fill="#EEEEED" mask="url(#d)"/><path d="M33.614 19.296c-3.31-1.186-7.167-1.808-11.46-1.847-8.888.087-15.417 2.563-19.423 7.355.008.11.014.217.025.329 3.948-4.861 10.473-7.367 19.398-7.458 9.022.087 16.006 2.77 20.207 7.765l.024-.33c-2.224-2.57-5.171-4.527-8.771-5.814" fill="#EEEEED" mask="url(#d)"/><path d="M33.674 17.405c-3.315-1.184-7.17-1.806-11.465-1.849-9.026.092-15.62 2.644-19.612 7.587l.027.337c3.928-5.015 10.518-7.602 19.585-7.694 9.06.087 16.067 2.793 20.256 7.824l.013-.004c.006-.107.012-.213.016-.319-2.228-2.607-5.194-4.584-8.82-5.882" fill="#EEEEED" mask="url(#d)"/><path d="M32.957 16.46c-3.72-1.245-7.838-1.833-11.91-1.707-3.735.118-7.403.84-10.611 2.095-3.172 1.245-5.834 2.95-7.926 5.079l.019.309c4.211-4.38 10.93-7.017 18.525-7.253 8.29-.26 16.281 2.45 21.496 7.265.004-.1.008-.201.01-.301-2.623-2.392-5.852-4.237-9.603-5.488" fill="#EEEEED" mask="url(#d)"/><path d="M32.957 15.772c-3.72-1.245-7.838-1.832-11.91-1.706-3.735.118-7.403.84-10.611 2.095-3.192 1.253-5.87 2.971-7.968 5.121l.022.31c4.203-4.404 10.942-7.058 18.564-7.298 8.303-.259 16.314 2.46 21.526 7.293l.013-.3c-2.634-2.403-5.873-4.26-9.636-5.515" fill="#EEEEED" mask="url(#d)"/><path d="M32.957 15.027c-3.72-1.244-7.838-1.832-11.91-1.706-3.735.118-7.403.842-10.611 2.095-3.215 1.26-5.906 2.996-8.011 5.162l.02.313c4.203-4.43 10.963-7.1 18.61-7.34 8.318-.26 16.342 2.469 21.552 7.318 0-.102.006-.204.01-.301-2.636-2.419-5.883-4.28-9.66-5.54" fill="#EEEEED" mask="url(#d)"/><path d="M32.957 14.34c-3.72-1.245-7.838-1.832-11.91-1.706-3.735.118-7.403.84-10.611 2.095-3.233 1.265-5.936 3.014-8.044 5.198.004.106.01.212.018.318 4.196-4.457 10.974-7.14 18.644-7.381 8.331-.26 16.363 2.477 21.573 7.338 0-.102.006-.206.008-.307-2.64-2.423-5.895-4.29-9.678-5.555" fill="#EEEEED" mask="url(#d)"/><path d="M32.957 13.593c-3.72-1.24-7.838-1.83-11.91-1.704-3.735.116-7.403.842-10.611 2.095-3.25 1.273-5.965 3.032-8.079 5.233.007.108.01.214.019.32 4.195-4.475 10.99-7.176 18.678-7.418 8.342-.263 16.381 2.483 21.594 7.356.004-.103.004-.205.006-.309-2.642-2.428-5.904-4.304-9.697-5.573" fill="#EEEEED" mask="url(#d)"/><path d="M32.957 12.908c-3.72-1.245-7.838-1.832-11.91-1.706-3.735.118-7.403.84-10.611 2.095-3.26 1.279-5.985 3.044-8.1 5.26 0 .107.005.215.01.325 4.192-4.497 11.003-7.209 18.708-7.45 8.348-.26 16.396 2.487 21.606 7.366l.002-.309c-2.642-2.434-5.905-4.312-9.705-5.58" fill="#EEEEED" mask="url(#d)"/><path d="M32.957 12.163c-3.72-1.242-7.838-1.832-11.91-1.706-3.735.12-7.403.842-10.611 2.095-3.27 1.281-6.001 3.059-8.121 5.282.002.11.006.217.006.327 4.19-4.511 11.012-7.232 18.733-7.474 8.352-.26 16.402 2.491 21.612 7.373.002-.102.002-.206.002-.314-2.648-2.434-5.91-4.314-9.711-5.583" fill="#EEEEED" mask="url(#d)"/><path d="M42.662 17.057c-2.642-2.434-5.904-4.311-9.706-5.58-3.72-1.245-7.835-1.835-11.91-1.707-3.735.118-7.4.842-10.61 2.095C7.155 13.15 4.421 14.93 2.3 17.16c0 .108.004.22.006.33 4.191-4.521 11.016-7.25 18.748-7.49 8.351-.263 16.401 2.491 21.612 7.37 0-.101-.004-.207-.004-.313" fill="#EEEEED" mask="url(#d)"/><path d="M42.626 15.363c-2.64-2.418-5.887-4.285-9.669-5.55-3.72-1.241-7.838-1.831-11.91-1.703-3.735.116-7.402.842-10.61 2.097-3.28 1.281-6.014 3.063-8.136 5.294a9.438 9.438 0 0 0-.006.34c4.19-4.528 11.02-7.261 18.76-7.503 8.335-.26 16.37 2.483 21.585 7.346-.006-.107-.012-.213-.014-.321" fill="#EEEEED" mask="url(#d)"/><path d="M42.594 14.648c-2.632-2.408-5.869-4.263-9.638-5.522-3.72-1.24-7.836-1.83-11.909-1.704-3.734.118-7.401.842-10.61 2.099-3.272 1.277-6.003 3.052-8.125 5.278-.004.113-.004.23-.008.343 4.193-4.519 11.018-7.249 18.751-7.49 8.321-.26 16.345 2.469 21.557 7.32-.004-.108-.012-.216-.018-.324m-9.042 7.937c-3.704-1.367-7.889-2.04-12.108-1.942-3.949.091-7.773.858-11.067 2.219-3.023 1.248-5.498 2.926-7.384 5.003.01.104.02.21.027.315 3.932-4.424 10.71-7.13 18.426-7.308 8.345-.193 16.152 2.642 20.7 7.449.006-.102.017-.204.027-.308-2.214-2.29-5.166-4.155-8.62-5.428" fill="#EEEEED" mask="url(#d)"/><path d="M33.313 21.793c-3.879-1.361-8.272-1.988-12.697-1.809-3.94.16-7.7.96-10.865 2.317-2.836 1.216-5.168 2.874-6.821 4.843.008.11.018.215.028.325 3.452-4.257 9.938-6.944 17.668-7.255 8.942-.362 17.084 2.471 21.57 7.44.011-.106.02-.21.027-.31-2.189-2.36-5.243-4.266-8.91-5.551m9.008-10.333c-.016-.126-.035-.254-.049-.38-2.252-2.266-5.286-4.11-8.794-5.35-3.412-1.207-7.257-1.842-11.134-1.842h-.169c-3.859.018-7.67.67-11.026 1.883-3.463 1.257-6.338 3.041-8.551 5.309-.015.13-.035.256-.05.386 4.298-4.564 11.628-7.31 19.627-7.346h.17c8.104 0 15.557 2.735 19.976 7.34" fill="#EEEEED" mask="url(#d)"/><path d="M42.218 10.725c-.02-.13-.041-.262-.062-.386-2.24-2.215-5.228-4.021-8.677-5.242-3.413-1.202-7.26-1.84-11.134-1.84h-.17c-3.86.02-7.672.671-11.026 1.883-3.406 1.235-6.241 2.982-8.435 5.199-.024.128-.043.26-.063.392C6.958 6.228 14.24 3.525 22.175 3.487h.17c8.043 0 15.44 2.697 19.873 7.238" fill="#EEEEED" mask="url(#d)"/><path d="M42 9.498c-2.22-2.146-5.149-3.895-8.522-5.087-3.41-1.204-7.257-1.84-11.134-1.84h-.17c-3.858.02-7.67.67-11.026 1.883C7.824 5.658 5.043 7.35 2.872 9.492c-.028.134-.059.27-.081.407C7.116 5.485 14.324 2.837 22.174 2.8h.17c7.96 0 15.284 2.64 19.732 7.094-.027-.132-.051-.266-.076-.396" fill="#EEEEED" mask="url(#d)"/><path d="M41.823 8.7c-2.197-2.07-5.061-3.76-8.345-4.917-3.413-1.208-7.257-1.84-11.134-1.84h-.17c-3.858.016-7.67.667-11.025 1.883-3.227 1.168-5.947 2.797-8.09 4.85-.032.141-.068.282-.099.422C7.3 4.786 14.424 2.209 22.175 2.171h.169c7.866 0 15.11 2.578 19.573 6.937-.03-.138-.061-.274-.094-.409" fill="#EEEEED" mask="url(#d)"/><path d="M42.383 11.967c-4.546-4.377-11.954-6.96-20.038-6.96h-.178c-3.95.018-7.85.67-11.264 1.891-3.394 1.208-6.22 2.909-8.409 5.058a21.32 21.32 0 0 0-.073.816c4.274-4.505 11.645-7.212 19.75-7.25 8.289-.04 15.864 2.674 20.293 7.258a26.626 26.626 0 0 0-.081-.813M33.47 32.37c-3.52-1.55-7.617-2.323-11.855-2.236-4.038.081-7.877.948-11.093 2.5-3.024 1.458-5.384 3.488-6.897 5.914 0 .155-.004.305-.006.46 3.017-5.187 9.818-8.475 18-8.644 8.714-.18 16.401 3.313 19.775 8.929l.006-.43c-1.73-2.727-4.456-4.964-7.93-6.494M2.334 14.185c-.006.124-.01.244-.014.368l.181-.234-.167-.134z" fill="#EEEEED" mask="url(#d)"/><path d="M21.411 6.836l-.014-.514c.228-.006.46-.01.689-.013l.01.515a38.12 38.12 0 0 0-.685.012zm2.038.017c-.222-.01-.452-.017-.678-.023l.01-.514c.23.004.463.012.689.02l-.02.517zm-3.398.04l-.028-.514c.226-.013.456-.023.687-.033l.024.515c-.228.01-.458.018-.683.032zm4.762.029c-.224-.017-.452-.029-.68-.043l.028-.513c.228.013.459.027.689.043l-.037.513zm-6.117.073l-.045-.515c.228-.022.459-.038.687-.057l.035.515c-.223.018-.453.035-.677.057zm7.477.043c-.222-.025-.45-.043-.679-.065l.04-.513c.235.02.464.04.69.065l-.051.513zm-8.825.097l-.063-.51c.224-.027.453-.055.683-.08l.055.515c-.226.022-.45.049-.675.075zm10.178.063a47.93 47.93 0 0 0-.676-.087l.06-.513c.231.027.461.057.684.09l-.068.51zm-11.525.133l-.084-.509c.225-.037.453-.071.683-.106l.072.51c-.227.031-.45.07-.671.105zm12.875.075c-.224-.037-.453-.075-.675-.108l.078-.51c.228.034.458.073.682.113l-.085.505zm-14.214.169l-.102-.505c.222-.045.448-.091.676-.132l.094.508a25.78 25.78 0 0 0-.668.129zm15.547.091c-.22-.045-.44-.091-.667-.136l.1-.505c.225.043.455.09.68.139l-.113.502zm-16.868.214l-.127-.5c.218-.06.445-.113.673-.163l.112.504c-.218.047-.444.102-.658.159zm18.195.103a34.993 34.993 0 0 0-.662-.164l.12-.503c.226.057.45.11.672.17l-.13.497zM12.03 8.24l-.149-.493c.218-.067.44-.13.665-.193l.138.499c-.22.059-.438.122-.654.187zm20.809.12c-.21-.067-.428-.133-.649-.196l.141-.496c.224.063.446.13.667.197l-.16.495zm-22.095.309l-.176-.484c.212-.08.43-.155.655-.228l.163.488a26.33 26.33 0 0 0-.642.224zm23.38.126a25.991 25.991 0 0 0-.637-.226l.163-.488c.22.073.442.153.654.23l-.18.484zm-24.64.372l-.202-.474c.208-.09.424-.179.636-.262l.194.48c-.21.081-.424.169-.628.256zm25.903.13a30.741 30.741 0 0 0-.628-.262l.191-.478c.214.087.433.179.643.266l-.206.474zM8.26 9.741l-.235-.46c.202-.104.414-.205.622-.303l.218.464a21.26 21.26 0 0 0-.605.299zm28.359.128a18.96 18.96 0 0 0-.614-.295l.218-.468c.21.098.42.2.626.303l-.23.46zm-29.541.52l-.265-.445c.195-.114.395-.232.6-.342l.25.452c-.2.108-.394.222-.585.335zm30.731.125a13.895 13.895 0 0 0-.593-.332l.247-.454c.206.112.408.224.607.34l-.26.446zm-31.865.604l-.297-.423c.19-.13.38-.259.576-.383l.282.431c-.19.122-.38.249-.56.375zm33.011.114a19.42 19.42 0 0 0-.567-.37l.276-.436c.197.124.393.25.58.378l-.289.428zm-34.087.7l-.324-.395c.175-.149.359-.293.542-.432l.314.411c-.18.135-.357.277-.532.415zm35.182.095a17.823 17.823 0 0 0-.54-.407l.303-.417c.186.136.375.277.555.419l-.318.405zm-36.187.8l-.359-.367c.165-.16.336-.321.512-.476l.342.387c-.167.148-.334.303-.495.455zm37.214.068c-.167-.148-.334-.297-.508-.443l.335-.393c.177.149.352.303.522.458l-.349.378zm-38.142.91l-.393-.338c.153-.175.312-.348.47-.515l.374.354a17.14 17.14 0 0 0-.45.498zm39.102.036c-.15-.163-.31-.323-.469-.48l.361-.368c.163.16.328.327.485.496l-.377.352zm.539.418l-.09.08c.035.038.067.076.1.117a6.077 6.077 0 0 0-.01-.197M2.71 24.575c.045-.057.09-.116.133-.175l-.161-.128c.008.1.018.201.028.303m20.074-7.663c-.193-.004-.38-.008-.574-.008h-.115l-.008-.514.123-.002c.197.002.389.004.587.01l-.013.514zm-2.077.03l-.02-.514c.232-.012.467-.02.701-.026l.012.517c-.232.006-.464.014-.693.024zm3.464.023a38.872 38.872 0 0 0-.693-.03l.02-.519c.232.01.469.023.701.03l-.028.52zm-4.844.057l-.04-.512c.23-.019.466-.035.7-.047l.031.514c-.232.013-.464.031-.69.045zm6.228.039a36.63 36.63 0 0 0-.691-.053l.038-.515c.23.017.467.037.7.053l-.047.515zm-7.61.09l-.053-.513c.23-.025.46-.047.695-.071l.05.514c-.231.023-.464.043-.692.07zm8.99.056a33.73 33.73 0 0 0-.69-.081l.056-.51c.232.024.469.05.697.08l-.063.511zm-10.36.122l-.077-.51c.228-.033.463-.067.697-.098l.065.51c-.228.031-.462.064-.685.098zm11.73.072c-.227-.035-.457-.072-.683-.104l.073-.51c.23.032.465.068.693.105l-.083.509zm-13.095.16l-.094-.506c.228-.043.458-.086.689-.122l.087.504c-.226.04-.454.084-.682.124zm14.454.092a24.846 24.846 0 0 0-.676-.132l.095-.507c.227.04.459.086.69.132l-.109.507zm-15.8.203l-.124-.5c.226-.057.458-.108.687-.159l.11.505c-.226.048-.453.1-.673.154zm17.15.106a24.91 24.91 0 0 0-.673-.163l.116-.504c.227.055.457.108.685.167l-.128.5zm-18.487.252l-.145-.496c.222-.065.45-.128.679-.19l.133.499c-.22.057-.447.12-.667.187zm19.814.118c-.216-.067-.44-.132-.663-.193l.141-.498c.226.063.455.13.675.197l-.153.494zm-21.123.31l-.173-.489c.216-.077.444-.152.667-.226l.159.49c-.219.072-.437.147-.653.224zm22.431.123c-.21-.075-.432-.15-.648-.223l.163-.49c.22.073.447.152.665.231l-.18.482zm-23.713.377l-.204-.476c.212-.09.434-.18.655-.265l.187.482c-.214.082-.43.171-.638.259zm25 .132c-.208-.092-.422-.177-.638-.265l.191-.478c.218.088.435.18.65.269l-.203.474zM8.69 19.72l-.233-.46c.206-.103.42-.207.632-.307l.218.466c-.208.098-.414.2-.617.301zm27.496.132a24.966 24.966 0 0 0-.62-.299l.215-.467c.216.101.432.203.636.309l-.23.457zm-28.697.531l-.267-.443c.2-.12.406-.236.611-.352l.25.454c-.205.11-.398.223-.594.341zm29.91.128a19.11 19.11 0 0 0-.601-.34l.247-.45c.205.111.413.227.613.345l-.259.445zm-31.062.617l-.297-.421c.19-.135.389-.269.583-.393l.283.431c-.194.124-.385.255-.569.383zm32.224.118c-.19-.13-.381-.257-.573-.379l.274-.437c.2.128.397.258.59.389l-.29.427zM5.25 21.96l-.335-.397c.182-.149.367-.297.555-.44l.316.41c-.182.138-.363.28-.536.427zm34.421.097a24.81 24.81 0 0 0-.55-.417l.31-.415c.187.137.377.285.558.427l-.318.405zm-35.445.822l-.358-.37c.167-.165.342-.328.513-.482l.349.382c-.167.15-.339.31-.504.47zm36.487.069c-.167-.155-.34-.31-.514-.458l.336-.39c.178.15.355.309.526.468l-.348.38zm-37.426.927l-.392-.337c.153-.18.312-.354.477-.525l.371.354c-.153.165-.306.336-.456.508zm38.396.035a12.066 12.066 0 0 0-.477-.492l.367-.364c.163.165.33.335.49.506l-.38.35zm.457.508c.075.084.147.171.218.257l.057-.045c.01-.159.023-.315.029-.474l-.304.262zM8.432 32.18c.187-.124.38-.244.575-.362l-.117-.193c-.197.116-.395.24-.583.362l.125.193zm1.162-.7c.198-.11.4-.216.602-.318l-.104-.205c-.206.103-.408.213-.608.321l.11.201zm1.215-.618c.203-.098.41-.19.617-.281l-.09-.21a25.39 25.39 0 0 0-.627.281l.1.21zm-4.525 2.973c.167-.148.34-.301.513-.447l-.148-.175c-.178.148-.351.3-.518.453l.153.17zM3.614 36.9l.096.057c.116-.192.24-.385.365-.572l-.19-.126c-.093.14-.187.285-.277.43.004.07.006.14.006.21m4.125-4.524c-.19.13-.377.269-.555.407l.141.183c.18-.136.36-.273.544-.403l-.13-.187zm-3.273 3.46c.13-.179.275-.36.42-.533l-.177-.144c-.147.177-.292.358-.43.54l.187.137zm16.877-7.583l.008.228c.225-.009.457-.013.681-.015v-.227c-.23 0-.462.006-.689.014M5.33 34.792c.147-.164.304-.327.467-.488l-.163-.162c-.165.162-.324.33-.475.498l.171.152zm6.725-4.472c.208-.082.424-.163.634-.243l-.076-.215c-.218.08-.434.163-.642.246l.084.211zm6.581-1.64l.677-.072-.02-.226c-.23.02-.457.047-.686.073l.029.226zm1.356-.128c.226-.019.454-.033.678-.045l-.012-.228c-.226.01-.456.024-.685.043l.019.23zm-2.702.323c.222-.036.449-.07.673-.103l-.033-.228a31.82 31.82 0 0 0-.678.108l.038.223zm-3.955.98c.212-.07.43-.139.646-.206l-.065-.22c-.22.066-.44.135-.655.208l.074.218zm1.302-.394c.216-.06.436-.118.658-.173l-.055-.22c-.222.054-.446.11-.667.174l.064.22zm1.319-.325c.22-.05.445-.094.667-.137l-.045-.228c-.224.045-.45.092-.67.14l.048.225zm11.504-.216l.041-.225a64.198 64.198 0 0 0-.679-.111l-.036.225c.224.035.454.071.675.11m13.863 7.937a12.285 12.285 0 0 0-.386-.567l-.187.132c.132.183.26.372.381.56l.192-.125zm-15.211-8.141l.028-.226c-.226-.03-.458-.06-.68-.082l-.027.228c.222.025.453.051.679.08m4.009.812l.061-.22a16.81 16.81 0 0 0-.666-.177l-.053.22c.218.057.44.116.658.177m-5.367-.957l.02-.226a20.13 20.13 0 0 0-.684-.051l-.012.23c.222.012.454.03.676.046m12.816 4.297a22.98 22.98 0 0 0-.554-.405l-.135.19c.188.125.37.26.549.396l.14-.181zM23.406 28.26a39.468 39.468 0 0 0-.69-.019l-.003.23c.226 0 .456.008.68.017l.013-.228zm8.018 1.67l.071-.215a22.09 22.09 0 0 0-.65-.214l-.07.22c.217.069.437.138.65.21m-2.627-.74l.051-.221c-.222-.053-.446-.1-.672-.147l-.045.226c.222.043.448.093.666.142m3.902 1.212l.084-.212c-.21-.085-.426-.168-.638-.25l-.082.218c.214.077.426.16.636.244m5.783 3.507l.15-.17c-.166-.15-.346-.301-.525-.45l-.14.18c.173.144.346.292.515.44m1.859 1.969l.184-.14c-.14-.177-.29-.356-.44-.531l-.174.15c.147.171.294.346.43.52m-1.362-1.505c.162.157.323.318.478.482l.167-.156c-.157-.165-.32-.33-.485-.49l-.16.164zm-5.036-3.424l.1-.208a30.138 30.138 0 0 0-.626-.284l-.091.211c.208.09.415.185.617.28m1.213.622l.11-.2c-.2-.11-.404-.218-.606-.324l-.104.205c.2.104.4.21.6.32m1.16.697l.127-.191a16.495 16.495 0 0 0-.581-.364l-.119.195c.194.118.39.238.573.36" fill="#EEEEED" mask="url(#d)"/><path d="M33.664 20.766c-3.327-1.192-7.198-1.817-11.514-1.86-8.771.09-15.264 2.494-19.314 7.156.022.242.04.484.063.726 3.924-4.798 10.398-7.275 19.251-7.365 8.972.086 15.915 2.746 20.091 7.699.017-.24.037-.482.051-.725-2.213-2.48-5.112-4.374-8.628-5.631m8.983-4.678c-4.876-4.85-11.763-7.348-20.498-7.434-4.308.045-7.985.643-11.244 1.835-3.34 1.222-6.163 3.03-8.61 5.52-.003.246 0 .492 0 .74 4.785-5.08 11.107-7.49 19.854-7.578 8.818.085 15.718 2.662 20.513 7.668a30.336 30.336 0 0 0-.015-.75" fill="#333433" mask="url(#d)"/></g><path d="M52.772 40.32s-.41 1.443-1.697 1.157c-.628-.14-.74-.961-2.758-.592-.635.144-1.97.925-2.227 1.446-.257.522-.07-1.913 2.002-2.818 1.496-.54 2.003-.513 3.24-.513 1.239 0 1.62.726 1.44 1.32m7.937 0s.41 1.443 1.697 1.157c.628-.14.74-.961 2.758-.592.635.144 1.97.925 2.227 1.446.257.522.07-1.913-2.002-2.818-1.496-.54-2.003-.513-3.24-.513-1.239 0-1.62.726-1.44 1.32" fill="#AD6921"/><path d="M50.889 46.2c0 1.326-.73 2.4-1.63 2.4-.9 0-1.63-1.074-1.63-2.4 0-1.326.73-2.4 1.63-2.4.9 0 1.63 1.074 1.63 2.4m14.667 0c0 1.326-.73 2.4-1.63 2.4-.9 0-1.63-1.074-1.63-2.4 0-1.326.73-2.4 1.63-2.4.9 0 1.63 1.074 1.63 2.4" fill="#6172BB"/><path d="M56.609 47.055c.683-.09 2.412 1.406 2.412 1.406s.083-.332-.278-.99c-.388-.709-2.158-1.271-2.158-1.271s-1.375.358-2.027 1.283c-.241.232-.41 1.039-.41 1.039s1.544-1.345 2.46-1.467z" fill="#EEAC6C"/><g transform="translate(50.889 50.2)"><mask id="f" fill="#fff"><use xlink:href="#e"/></mask><path d="M.162.557S5.783 3.123 10.897.239c0 0-1.134 4.376-4.849 4.45-3.353.097-4.06-1.195-4.462-1.566C1.184 2.753.428 1.706.162.557" fill="#EEAC6C" mask="url(#f)"/></g></g></svg>