<svg width="120" height="120" viewBox="0 0 120 120" xmlns="http://www.w3.org/2000/svg"><g fill="none" fill-rule="evenodd"><path d="M42.264 66.436S40.573 81.013 33.43 87.69c-7.143 6.678-17.988 4.648-16.335-6.806 1.65-11.453 15.545-19.524 25.17-14.45zm17.934-10.28C51.34 61.061 32.539 53 19.072 64.72 5.602 76.438 6.33 96.288 21.488 98.464c11.358 1.63 22.006-8.404 23.668-19.156 1.558-10.083 12.976-12.586 17.586-14.858 3.428-1.69 17.795-4.963 31.272-23.272C107.489 22.864 110.39 3.412 110.39 3.412s1.452-4.638-2.688-1.284c-5.185 4.204-8.435 11.551-20.783 28.5-12.347 16.943-18.357 20.89-26.721 25.527z" fill="#3196A0"/><path d="M57.122 110.91c-10.65 4.526-15.384-5.434-10.758-14.05 4.63-8.613 18.291-13.979 18.291-13.979 7.37 8.01 3.118 23.505-7.533 28.029zM87.85 30.553c13.227-16.27 19.497-21.294 22.234-27.38C112.27-1.687 108.158.9 108.158.9S90.092 8.68 75.837 26.395C61.582 44.106 62.092 58.831 61.336 62.576c-1.017 5.043-.519 16.722-9.863 20.803-9.974 4.357-16.95 17.219-12.469 27.78 5.98 14.1 25.355 9.725 33.243-6.295 7.882-16.016-4.502-29.005-2.138-40.975 1.961-9.934 4.517-17.065 17.741-33.336z" fill="#66BFB2"/><path d="M66.236 54.765a3.29 3.29 0 0 0-.48 6.414l.48-6.414m1.397.103l-.48 6.414a3.295 3.295 0 0 0 2.826-3.012 3.296 3.296 0 0 0-2.346-3.402" fill="#3196A0"/></g></svg>