<svg width="120" height="120" viewBox="0 0 120 120" xmlns="http://www.w3.org/2000/svg"><g fill="none" fill-rule="evenodd"><path fill="#59748F" d="M119.084 63.36l-42.72 15.069-5.553 1.55-1.375-9.754 4.591-.793 44.631-7.71.836-.145.39 1.5z"/><path d="M93.635 72.66c-4.11 0-7.443 3.338-7.443 7.457 0 4.117 3.333 7.456 7.443 7.456 4.114 0 7.446-3.339 7.446-7.456 0-4.12-3.332-7.458-7.446-7.458" fill="#465F78"/><path fill="#415569" d="M86.058 46.509L56.05 57.093l-3.084 1.09-1.78-6.851 3.223-.557 31.35-5.417.588-.101.273 1.053z"/><path fill="#59748F" d="M73.67 92.112L58.6 83.503l1.151-2.019 15.068 8.607zm19.965-17.13a5.14 5.14 0 0 1 5.128 5.135c0 2.83-2.302 5.13-5.128 5.13a5.131 5.131 0 0 1-5.122-5.13c0-2.83 2.297-5.135 5.122-5.135"/><path d="M89.817 80.117a3.822 3.822 0 0 0 3.818 3.824 3.822 3.822 0 0 0 3.821-3.824 3.824 3.824 0 0 0-3.821-3.826 3.823 3.823 0 0 0-3.818 3.826" fill="#516982"/><path d="M70.168 95.536a1.16 1.16 0 0 0 1.16 1.162h3.814c.64 0 1.16-.52 1.16-1.162V86.75c0-.641-.52-1.162-1.16-1.162h-3.814c-.641 0-1.16.52-1.16 1.162v8.787zM60.57 24l2.419 24.015h-5.803L59.603 24z" fill="#415569"/><path fill="#516982" d="M1.61 61.722l44.634 7.71 4.59.793-1.375 9.754-5.553-1.55-42.72-15.07-.8-.282.39-1.5z"/><path fill="#415569" d="M34.512 45.358l31.35 5.417 3.225.557-1.782 6.85-3.087-1.09L34.214 46.51l-.563-.199.275-1.053z"/><path fill="#59748F" d="M46.602 92.112l-1.15-2.021 15.069-8.607 1.148 2.02z"/><path d="M79.181 68.541l-5.154.891-4.59.794 1.375 9.753 4.8-1.34a18.733 18.733 0 0 0 3.57-10.098m-38.191-.017a18.742 18.742 0 0 0 3.546 10.081l4.922 1.374 1.375-9.754-4.59-.792-5.253-.91z" fill="#465F78"/><path d="M76.91 67.576c0 9.197-7.531 16.656-16.822 16.656-9.292 0-16.824-7.459-16.824-16.656 0-9.2 7.532-21.305 16.824-21.305 9.291 0 16.823 12.105 16.823 21.305" fill="#59748F"/><path d="M26.634 72.66c-4.11 0-7.444 3.338-7.444 7.457 0 4.117 3.333 7.456 7.444 7.456 4.113 0 7.446-3.339 7.446-7.456 0-4.12-3.333-7.458-7.446-7.458" fill="#465F78"/><path d="M76.91 67.576c0-9.2-7.531-21.305-16.822-21.305v37.96c9.291 0 16.823-7.458 16.823-16.655" fill="#516982"/><path d="M60.089 56.73c4.528 0 8.582 1.796 11.312 4.62-1.876-5.88-6.548-10.429-11.312-10.429-4.766 0-9.439 4.548-11.314 10.43 2.732-2.825 6.781-4.621 11.314-4.621" fill="#C5EFF7"/><path d="M26.634 74.982c2.826 0 5.126 2.305 5.126 5.135 0 2.83-2.3 5.13-5.126 5.13a5.133 5.133 0 0 1 0-10.265" fill="#59748F"/><path d="M30.454 80.117a3.823 3.823 0 0 1-3.82 3.824 3.82 3.82 0 0 1-3.818-3.824 3.822 3.822 0 0 1 3.818-3.826 3.823 3.823 0 0 1 3.82 3.826" fill="#516982"/><path d="M50.102 95.536a1.16 1.16 0 0 1-1.16 1.162h-3.814c-.64 0-1.16-.52-1.16-1.162V86.75c0-.641.52-1.162 1.16-1.162h3.814c.64 0 1.16.52 1.16 1.162v8.787z" fill="#415569"/></g></svg>