<svg xmlns="http://www.w3.org/2000/svg" width="84.578" height="84.461" viewBox="-0.565 1.436 84.578 84.461"><defs><style/></defs><g id="ID0.4697581664659083" transform="matrix(.95 0 0 .95 -.75 .3)"><path id="Bottom_Leg3" fill="#6290CB" stroke="#000" stroke-width="2.085" d="M18.469 69.24c-.503 2.852-1.115 5.532-2.866 7.892-1.85 2.492-4.545 4.953-7.838 4.92-1.802-.017-7.57-2.49-5.013-4.965 1.015-.98 3.055-.652 4.28-.273 2.855.884 4.206-.134 5.383-1.375 2.44-2.565 2.801-4.298 3.928-6.59.12-.246 1.694.448 1.955.363l.17.028h0z"/><path id="Bottom_Leg2" fill="#B36FAD" stroke="#000" stroke-width="2.085" d="M31.29 73.53c.41 3.524.966 6.854 2.94 9.876 2.087 3.185 5.207 6.39 9.244 6.589 2.209.108 9.453-2.504 6.499-5.718-1.172-1.273-3.69-1.022-5.223-.644-3.56.88-5.141-.47-6.494-2.07-2.802-3.319-3.12-5.464-4.333-8.356-.13-.309-2.108.425-2.424.305l-.208.018h0z"/><path id="Bottom_Leg1" fill="#12C549" stroke="#000" stroke-width="2.085" d="M51.1 65.064c2.075 2.88 4.183 5.516 7.377 7.192 3.373 1.766 7.663 3.049 11.284 1.257 1.982-.981 7.037-6.79 2.889-8.158-1.641-.54-3.95.793-5.428 1.344-1.914.71-3.863 1.179-5.952 1.035-4.241-.292-5.563-2.296-8.032-4.23-.266-.209-1.635 1.4-1.97 1.448l-.168.112h0z"/><path id="Top_Leg3" fill="#FAF132" stroke="#000" stroke-width="2.085" d="M18.469 20.957c-.503-2.852-1.115-5.532-2.866-7.892-1.85-2.493-4.545-4.953-7.838-4.92-1.802.017-7.57 2.49-5.013 4.964 1.015.98 3.055.652 4.28.274 2.855-.884 4.206.135 5.383 1.375 2.44 2.566 2.801 4.299 3.928 6.591.12.246 1.694-.448 1.955-.365l.17-.027h0z"/><path id="Top_Leg2" fill="#12C549" stroke="#000" stroke-width="2.085" d="M31.29 17.767c.41-3.523.966-6.853 2.94-9.875 2.087-3.186 5.206-6.39 9.244-6.589 2.209-.107 9.453 2.504 6.499 5.718-1.172 1.273-3.69 1.021-5.223.643-3.56-.88-5.141.472-6.494 2.07-2.802 3.32-3.12 5.465-4.333 8.357-.13.309-2.108-.425-2.424-.305l-.208-.019h0z"/><path id="Top_Leg1" fill="#B36FAD" stroke="#000" stroke-width="2.085" d="M53.88 27.6c1.827-2.189 4.016-5.38 7.194-5.357 3.658.027 6.906 3.806 10.627 3.132 4.627-.839.17-6.456-1.808-7.738-3.527-2.29-7.367-1.57-10.933.16-2.542 1.23-6.033 3.167-7.083 6.01-.12.323-.37.638-.535.941 1.013.71 1.713 1.858 2.478 2.676l.06.176h0z"/><g id="Bottom_Wing_1_"><g id="Bottom_Wing"><path id="ID0.9817337654531002" fill="#F8B018" d="M47.073 102.671c-6.731 0-13.432-1.45-19.378-4.193l-.339-.156-.006-.009-.227-.107c-11.065-5.308-17.67-14.119-17.67-23.571 0-8.615 8.557-10.3 16.011-10.805l.091-.006.09.005c2.107.112 4.501.165 7.536.165 2.11 0 4.298-.024 6.548-.05 2.391-.027 4.85-.054 7.356-.054 7.985 0 16.387-.061 24.97-.181l14.953-.03-.032 1.535c-.175 8.152-2.821 15.697-7.865 22.426l-.046.06-.052.057c-7.979 8.642-21.406 14.914-31.928 14.914h-.012z" transform="translate(-.75 1.3) scale(.69485)"/><path id="ID0.8338045510463417" d="M85.476 65.181c-.146 6.791-2.098 14.265-7.565 21.559-7.477 8.099-20.562 14.432-30.825 14.432h-.013c-6.74 0-13.202-1.496-18.75-4.056a.69.69 0 0 0-.548-.263h-.003c-9.945-4.771-16.818-13.005-16.818-22.218 0-6.633 5.87-8.716 14.612-9.309 2.388.127 4.938.167 7.616.167 4.352 0 9.039-.104 13.905-.104 9.375 0 18.062-.084 24.99-.181l13.399-.027m3.066-3.006l-3.071.006-13.4.027c-8.612.12-17.006.181-24.984.181-2.518 0-4.986.028-7.373.054-2.28.026-4.433.05-6.532.05-3.008 0-5.377-.051-7.456-.162l-.182-.01-.181.012c-4.761.323-17.409 1.181-17.409 12.302 0 10.015 6.885 19.308 18.423 24.876l.012.016.55.254.15.072h.006c6.134 2.825 13.042 4.318 19.978 4.318 10.916 0 24.806-6.476 33.042-15.396l.104-.113.092-.122c5.236-6.985 7.982-14.822 8.164-23.294l.067-3.071-3.066 3.006z" transform="translate(-.75 1.3) scale(.69485)"/></g><path id="Spot_9_" fill="#1EA9FF" d="M57.119 70.208c2.943 0 5.61 1.084 7.541 2.836 1.931 1.752 3.126 4.172 3.126 6.842s-1.195 5.09-3.126 6.842c-1.931 1.752-4.598 2.836-7.541 2.836-2.943 0-5.61-1.084-7.541-2.836-1.931-1.752-3.126-4.172-3.126-6.842s1.195-5.09 3.126-6.842c1.931-1.752 4.598-2.836 7.541-2.836z" transform="translate(-.75 1.3) scale(.69485)"/><path id="Spot_8_" fill="#B36FAD" d="M25.286 67.433c3.311 0 6.311 1.167 8.483 3.053 2.172 1.885 3.517 4.489 3.517 7.363 0 2.874-1.345 5.478-3.517 7.363-2.172 1.886-5.172 3.053-8.483 3.053-3.311 0-6.311-1.167-8.483-3.053-2.172-1.885-3.517-4.489-3.517-7.363 0-2.874 1.345-5.478 3.517-7.363 2.172-1.886 5.172-3.053 8.483-3.053z" transform="translate(-.75 1.3) scale(.69485)"/><path id="Spot_7_" fill="#D12027" d="M43.12 88.947c1.425 0 2.717.527 3.652 1.378.935.851 1.514 2.026 1.514 3.323 0 1.297-.579 2.472-1.514 3.323s-2.227 1.378-3.652 1.378c-1.425 0-2.717-.527-3.652-1.378-.935-.851-1.514-2.026-1.514-3.323 0-1.297.579-2.472 1.514-3.323s2.227-1.378 3.652-1.378z" transform="translate(-.75 1.3) scale(.69485)"/><path id="Spot_6_" fill="#129E49" d="M68.257 88.871c-3.822.584-6.533 3.608-6.055 6.764.093.607.312 1.168.61 1.684 4.074-1.85 7.975-4.262 11.295-7.014-1.472-1.183-3.595-1.779-5.85-1.434z" transform="translate(-.75 1.3) scale(.69485)"/><path id="Spot_5_" fill="#FAF123" d="M67.848 69.742c-.231 3.863 3.062 7.204 7.358 7.461 4.295.258 7.964-2.666 8.195-6.529.128-2.132-.821-4.101-2.416-5.484l-8.91.018-1.998.026c-1.284 1.162-2.122 2.733-2.229 4.508z" transform="translate(-.75 1.3) scale(.69485)"/></g><g id="Top_Wing_1_"><g id="Top_Wing"><path id="ID0.5299901133403182" fill="#F8B018" d="M47.087 62.842c-2.696 0-5.338-.036-7.899-.07a528.014 528.014 0 0 0-6.953-.063c-2.248 0-4.158.033-5.837.101l-.081.003-.081-.005c-7.813-.53-16.781-2.227-16.781-10.708 0-15.198 17.234-28.037 37.633-28.037 10.579 0 24.03 6.076 31.983 14.447l.079.084.066.096c.254.366 6.224 9.111 7.53 21.146l.17 1.57-14.755.842c-8.64.394-17.071.594-25.074.594z" transform="translate(-.75 1.3) scale(.69485)"/><path id="ID0.40440370980650187" d="M47.087 25.562c10.304 0 23.409 6.1 30.896 13.98 0 0 5.992 8.66 7.272 20.455l-13.179.752c-6.929.317-15.615.594-24.989.594-5.219 0-10.233-.133-14.852-.133-2.049 0-4.021.026-5.898.102-9.164-.622-15.383-2.693-15.383-9.212 0-14.469 16.938-26.538 36.133-26.538m0-3c-21.212 0-39.133 13.526-39.133 29.537 0 10.971 13.208 11.868 18.18 12.205l.162.011.162-.006c1.66-.067 3.549-.1 5.777-.1 2.219 0 4.509.031 6.933.063 2.561.035 5.209.07 7.919.07 8.026 0 16.48-.201 25.127-.597l13.212-.754 3.152-.18-.341-3.139c-1.347-12.409-7.525-21.458-7.788-21.838l-.132-.191-.16-.168c-8.21-8.641-22.118-14.913-33.07-14.913v3z" transform="translate(-.75 1.3) scale(.69485)"/></g><path id="Spot_4_" fill="#129E49" d="M32.834 47.195c-5.612-.001-10.165 3.949-10.165 8.822 0 1.929.722 3.704 1.934 5.154.565.053 1.143.1 1.734.14 4.42-.179 9.373-.083 14.627-.016 1.273-1.472 2.034-3.296 2.034-5.278 0-4.873-4.551-8.822-10.164-8.822z" transform="translate(-.75 1.3) scale(.69485)"/><path id="Spot_3_" fill="#6290CB" d="M21.995 42.684c0-2.624-1.33-4.966-3.424-6.579-4.565 4.314-7.4 9.639-7.594 15.367.282.022.566.034.854.034 5.613-.001 10.164-3.949 10.164-8.822z" transform="translate(-.75 1.3) scale(.69485)"/><path id="Spot_2_" fill="#B36FAD" d="M65.227 53.965c-2.857 0-5.169 2.104-5.169 4.7 0 .917.299 1.767.806 2.488a563.3 563.3 0 0 0 8.919-.306c.385-.65.611-1.389.611-2.183 0-2.598-2.314-4.699-5.167-4.699z" transform="translate(-.75 1.3) scale(.69485)"/><path id="Spot_1_" fill="#FAF123" d="M38.676 28.046c1.933 0 3.685.873 4.954 2.283 1.269 1.41 2.054 3.358 2.054 5.507 0 2.149-.785 4.097-2.054 5.507-1.269 1.41-3.021 2.283-4.954 2.283-1.933 0-3.685-.873-4.954-2.283-1.269-1.41-2.054-3.358-2.054-5.507 0-2.149.785-4.097 2.054-5.507 1.269-1.41 3.021-2.283 4.954-2.283z" transform="matrix(-.04155 .6936 -.6936 -.04155 52.35 .8)"/><path id="Spot" fill="#D12027" d="M51.978 37.302c-.328 5.438 3.522 10.094 8.604 10.399 5.079.304 9.459-3.86 9.787-9.301a10.281 10.281 0 0 0-1.483-6.001 52.536 52.536 0 0 0-8.983-4.307c-4.248.667-7.638 4.449-7.925 9.21z" transform="translate(-.75 1.3) scale(.69485)"/></g><g id="Head"><path id="Bottom_Antenna" fill="#F05623" stroke="#000" stroke-width="2.085" d="M71.828 38.798s7.003-7.512 9.314-6.368c2.31 1.142 4.488 4.67 6.089 2.756 1.603-1.912-1.62-6.247-6.137-6.222-4.517.025-11.118 5.417-11.118 5.417l1.852 4.417h0z"/><path id="Top_Antenna" fill="#F05623" stroke="#000" stroke-width="2.085" d="M72.22 52.39s7.002 7.512 9.311 6.368c2.31-1.142 4.488-4.67 6.091-2.756 1.602 1.913-1.62 6.247-6.137 6.222-4.516-.025-11.117-5.417-11.117-5.417l1.852-4.417h0z"/><g id="Head_1_"><path id="ID0.25746554555371404" fill="#F8B018" d="M83.659 87.063c-6.909 0-9.371-12.241-9.371-23.696 0-14.836 3.503-23.694 9.371-23.694 12.848 0 23.697 10.851 23.697 23.694 0 12.844-10.851 23.696-23.697 23.696z" transform="translate(-.75 1.3) scale(.69485)"/><path id="ID0.32972077559679747" d="M83.664 41.172c12.098 0 22.192 10.097 22.192 22.194 0 12.104-10.099 22.196-22.197 22.196-5.205 0-7.871-10.098-7.871-22.196 0-12.1 2.5-22.194 7.871-22.194h.005m0-3h-.005c-6.909 0-10.871 9.183-10.871 25.194 0 15.777 4.063 25.196 10.871 25.196 6.653 0 12.959-2.642 17.757-7.438 4.798-4.797 7.44-11.104 7.44-17.759 0-6.652-2.642-12.958-7.438-17.755-4.796-4.796-11.102-7.438-17.754-7.438v3z" transform="translate(-.75 1.3) scale(.69485)"/></g><path id="Mouth" fill="#231F20" d="M98.747 68.653c4.371-1.154 4.479-9.063-.336-9.579-1.082-.112-1.463 1.323-.828 2 .729.774 1.936 1.394 1.736 2.661-.146.958-.641 2.156-1.547 2.604-1.316.651-.379 2.672.975 2.314z" transform="translate(-.75 1.3) scale(.69485)"/><g id="Bottom_Eye"><path id="White_1_" fill="#FFF" d="M92.032 71.286c-.396-2.613-3.285-4.354-5.908-3.963-2.625.396-4.869 2.897-4.478 5.518.392 2.613 3.271 4.354 5.896 3.963 2.621-.394 4.879-2.9 4.49-5.518z" transform="translate(-.75 1.3) scale(.69485)"/><path id="Pupil_1_" fill="#231F20" d="M89.909 69.586c.69 0 1.315.264 1.767.69.453.426.733 1.014.733 1.663s-.28 1.237-.733 1.663a2.57 2.57 0 0 1-1.767.69 2.57 2.57 0 0 1-1.767-.69 2.277 2.277 0 0 1-.733-1.663c0-.649.28-1.237.733-1.663a2.57 2.57 0 0 1 1.767-.69z" transform="translate(-.75 1.3) scale(.69485)"/><path id="Outline_1_" fill="#231F20" d="M94.266 70.824c-.598-3.998-4.422-6.738-8.536-6.126-4.116.616-6.974 4.356-6.373 8.354.599 4 4.421 6.742 8.536 6.126 4.117-.615 6.975-4.355 6.373-8.354zm-6.724 5.98c-2.625.391-5.504-1.35-5.896-3.963-.392-2.62 1.853-5.121 4.478-5.518 2.623-.392 5.512 1.35 5.908 3.963.389 2.618-1.869 5.124-4.49 5.518z" transform="translate(-.75 1.3) scale(.69485)"/></g><g id="Top_Eye"><path id="White" fill="#FFF" d="M91.434 54.282c-.396-2.613-3.285-4.354-5.908-3.963-2.625.396-4.869 2.897-4.478 5.518.392 2.613 3.271 4.354 5.896 3.963 2.621-.394 4.879-2.9 4.49-5.518z" transform="translate(-.75 1.3) scale(.69485)"/><path id="Pupil" fill="#231F20" d="M89.311 52.582c.69 0 1.315.264 1.767.69.453.426.733 1.014.733 1.663s-.28 1.237-.733 1.663a2.57 2.57 0 0 1-1.767.69 2.57 2.57 0 0 1-1.767-.69 2.277 2.277 0 0 1-.733-1.663c0-.649.28-1.237.733-1.663a2.57 2.57 0 0 1 1.767-.69z" transform="translate(-.75 1.3) scale(.69485)"/><path id="Outline" fill="#231F20" d="M93.669 53.821c-.598-3.998-4.422-6.738-8.536-6.126-4.116.616-6.974 4.356-6.373 8.354.599 4 4.421 6.742 8.536 6.126 4.117-.616 6.974-4.356 6.373-8.354zM86.944 59.8c-2.625.391-5.504-1.35-5.896-3.963-.392-2.62 1.853-5.121 4.478-5.518 2.623-.392 5.512 1.35 5.908 3.963.389 2.618-1.869 5.124-4.49 5.518z" transform="translate(-.75 1.3) scale(.69485)"/></g></g></g></svg>