<svg width="120" height="120" viewBox="0 0 120 120" xmlns="http://www.w3.org/2000/svg" xmlns:xlink="http://www.w3.org/1999/xlink"><defs><path id="a" d="M.03.038h108.63v89.54H.03z"/></defs><g fill="none" fill-rule="evenodd"><path fill="#F3B021" d="M24.408 58.671l30.291 6.34 21.764 1.798 22.64-5.882v49.018l-20.5 3.243-28.33 2.64-23.683-3.268z"/><path d="M110.752 47.773c0 9.521-23.21 17.237-51.843 17.237-28.63 0-51.84-7.716-51.84-17.237 0-9.52 23.21-17.237 51.84-17.237 28.632 0 51.843 7.717 51.843 17.237" fill="#FCF5DD"/><path d="M39.786 32.105c6.173-.864 12.708-1.301 19.406-1.301 7.04 0 13.83.472 20.18 1.398l.31.041 3.22-3.213-1.185-.19c-7.11-1.147-14.69-1.731-22.525-1.731-7.533 0-14.857.548-21.753 1.614l-1.2.188 3.247 3.23.3-.036z" fill="#4F99B7"/><g transform="translate(4.848 30.34)"><mask id="b" fill="#fff"><use xlink:href="#a"/></mask><path d="M91.884 31.325v47.216c-5.044 1.865-11.287 3.35-18.129 4.308V35.4c6.886-.93 12.974-2.3 18.13-4.076M44.911 36.37v47.467c-7.969-.492-15.24-1.599-21.639-3.277V33.202c6.461 1.618 13.738 2.684 21.639 3.168M85.628.29l-.342-.087-3.074 3.05 1.084.254c13.154 3.103 21.658 8.288 21.658 13.218 0 3.05-3.4 6.348-9.363 9.125v-.664h-3.71v2.194c-5.044 1.866-11.286 3.347-18.128 4.305v-.617h-3.71v1.094a147.17 147.17 0 0 1-15.7.819c-1.785 0-3.664-.038-5.727-.115v-1.8h-3.707v1.601c-7.971-.49-15.24-1.594-21.64-3.278v-2.144h-3.71v1.086c-9.786-3.117-15.826-7.53-15.826-11.606 0-5.035 8.78-10.281 22.373-13.37l1.093-.246L24.117.038l-.34.082C10.674 3.321 2.215 8.476.42 14.316H.03v53.569c0 6.122 7.11 11.756 19.534 15.48v1.904h3.71v-.907c6.462 1.618 13.739 2.686 21.638 3.168v2.048h3.711v-1.856a149.816 149.816 0 0 0 21.424-.695v.894h3.71v-1.36c7.408-.997 13.914-2.524 19.355-4.529h2.483v-.992c6.756-2.865 11.055-6.393 12.502-10.239h.563v-53.57l-.027-.224c.02-.096.027-.189.027-.282-.001-6.742-8.397-12.734-23.032-16.435" fill="#4F99B7" mask="url(#b)"/></g><path d="M68.864 41.326a4.255 4.255 0 0 0-1.269 3.05c0 1.148.449 2.229 1.269 3.047a4.316 4.316 0 0 0 3.06 1.26c1.156 0 2.24-.449 3.056-1.26a4.303 4.303 0 0 0 1.007-4.488L115.624 3.46 113.006.845 73.367 40.327c-1.571-.549-3.352-.15-4.503 1M44.645 47.58c.816.812 1.9 1.26 3.06 1.26 1.159 0 2.24-.448 3.055-1.26a4.278 4.278 0 0 0 1.271-3.05c0-1.15-.45-2.23-1.27-3.046-1.156-1.154-2.942-1.548-4.5-1.004L6.62 1 4 3.612l39.637 39.477a4.315 4.315 0 0 0 1.008 4.49" fill="#3C323F"/></g></svg>