<svg width="95" height="167" viewBox="0 0 95 167" xmlns="http://www.w3.org/2000/svg"><g fill="none"><path d="M56 157.35c-.503-1.25-1.006-2.4-1.509-3.6-1.056-2.35-1.76-4.8-2.464-7.25a12.86 12.86 0 0 1-.453-2c-.252-1.25-.05-2.55.1-3.8.353-3.45 1.157-6.85 1.912-10.25.352-1.45.654-2.95 1.207-4.35.352-.8.754-1.6 1.308-2.25.503-.55 1.056-.95 1.86-.9.151 0 .353 0 .453.1 1.258.6 2.364 1.7 2.314 3.45-.05 1.5-.302 3-.604 4.5-.402 1.85-.905 3.65-1.257 5.5-.453 2.1-.855 4.25-1.258 6.35-.15.75-.05 1.5.202 2.25 1.408 4.15 2.917 8.3 4.577 12.35l.905 2.1c.352.8.1 1.5-.654 1.9-.654.35-1.358.65-2.062.95-.855.35-1.71.7-2.515 1.1-1.408.75-2.967 1-4.526 1.25-.252.05-.503 0-.705 0-1.056 0-1.509-.95-.905-1.7.453-.55.855-1.15 1.408-1.65 1.207-1.15 1.861-2.65 2.666-4.05zm-2.867 6.05c1.056-.05 2.113-.2 3.068-.6.704-.3 1.408-.55 2.113-.8.905-.4 1.86-.75 2.766-1.2.805-.4 1.006-.9.654-1.75-.755-2-1.56-4-2.314-6.05-.905-2.55-1.71-5.15-2.816-7.65-.353-.75-.453-1.55-.202-2.35.101-.25.101-.55.151-.8.252-1.65.453-3.3.855-4.95.604-2.5 1.157-5.05 1.66-7.6.201-1.05.402-2.1.352-3.2-.05-.8-.402-1.45-1.056-1.95-.604-.5-1.107-.4-1.509.25-.553.9-1.056 1.9-1.408 2.9-.755 2.1-1.107 4.35-1.51 6.55-.1.45-.1.9-.3 1.3-.353.7-.403 1.45-.554 2.2-.201 1.2-.352 2.45-.553 3.65-.252 1.35-.302 2.7.1 4.05.352 1.2.604 2.4 1.157 3.5.201.4.402.75.553 1.2.503 1.45 1.006 2.95 1.66 4.35.453.95.805 2 1.157 2.9-.503 1.2-1.157 2.2-1.76 3.2-.554 1.05-1.56 1.8-2.264 2.85z" fill="#010101"/><path d="M53.133 163.4c.704-1.05 1.76-1.8 2.414-2.85.604-1.05 1.258-2.05 1.76-3.2-.351-.95-.703-1.95-1.156-2.9-.654-1.4-1.157-2.9-1.66-4.35-.15-.4-.352-.8-.553-1.2-.604-1.1-.855-2.3-1.157-3.5-.352-1.35-.352-2.65-.1-4.05.251-1.2.352-2.45.553-3.65.15-.75.2-1.5.553-2.2.201-.4.201-.85.302-1.3.402-2.2.754-4.4 1.509-6.55.352-1 .855-1.95 1.408-2.9.402-.7.855-.75 1.509-.25.603.5 1.006 1.15 1.056 1.95.05 1.1-.15 2.15-.352 3.2-.503 2.55-1.056 5.1-1.66 7.6-.402 1.65-.603 3.3-.855 4.95-.05.3-.05.55-.15.8-.252.8-.152 1.6.2 2.35 1.107 2.5 1.912 5.1 2.817 7.65.704 2.05 1.509 4.05 2.314 6.05.301.85.15 1.35-.654 1.75-.906.45-1.81.8-2.767 1.2-.704.3-1.408.55-2.112.8-1.157.4-2.163.5-3.219.6z" fill="#EBDCC5"/><path d="M22.855 160.7c-1.157 0-2.314.05-3.47-.05-.503-.05-.956-.15-1.358-.4-.906-.5-1.006-1.35-.302-2.05.453-.4.905-.8 1.408-1.1.905-.5 1.76-1 2.616-1.45.804-.4 1.257-.95 1.307-1.85.1-1.05.201-2.05.302-3.1.201-1.85.15-3.65.402-5.5.1-.8 0-1.6.151-2.4.151-.7.403-1.35.855-1.95 1.861-2.7 3.672-5.45 5.533-8.15.15-.25.302-.45.452-.7.705-1.2 1.409-2.3 2.364-3.3.805-.85 1.409-1.8 2.163-2.7.352-.45.755-.85 1.157-1.2.805-.6 1.71-.85 2.716-.8.654.05 1.056.45 1.358 1.05.603 1.2.503 2.4-.05 3.6-.151.3-.252.6-.453.85-.855 1.35-1.66 2.7-2.565 4-2.314 3.2-4.678 6.35-7.192 9.45-.654.8-.705 1.7-.805 2.6-.05.65-.05 1.35-.1 2.05-.101 1.1-.202 2.2-.403 3.3-.201.95-.1 1.9-.252 2.85-.15.85-.2 1.75-.352 2.6-.15.85-.2 1.65-.251 2.5 0 .3-.05.55-.1.85-.051.3-.252.5-.504.6-.603.25-1.207.4-1.86.4h-2.767zm3.823-1.6c.352-1.4.352-2.8.553-4.2.352-2.5.553-5 .805-7.5.1-.9.15-1.85.2-2.75.051-.9.353-1.7.956-2.4 1.006-1.25 1.962-2.5 2.917-3.8.604-.75 1.107-1.55 1.76-2.3.806-1 1.66-1.95 2.365-3 1.056-1.5 2.162-2.95 2.967-4.6.403-.8.553-1.65.453-2.55-.05-.4-.302-.65-.654-.8a1.54 1.54 0 0 0-1.056.05c-.403.2-.755.45-1.056.75-1.258 1.1-2.113 2.5-3.119 3.8-1.157 1.5-2.263 3.1-3.37 4.65-.15.2-.301.35-.452.55-.805 1.25-1.66 2.45-2.465 3.7-.603.95-1.257 1.85-1.81 2.8-.302.45-.604.95-.654 1.55-.1 1.25-.201 2.45-.201 3.7 0 2.3-.202 4.55-.403 6.8-.1 1.3-.603 2.45-1.911 3.15-.956.5-1.861 1.15-2.867 1.5-.503.15-.905.45-1.056 1 .553.3 1.157.25 1.71.25 1.71 0 3.47-.15 5.18-.05.403.05.805.05 1.208-.3z" fill="#010101"/><path d="M26.678 159.1c-.353.35-.805.35-1.208.35-1.71-.1-3.47.1-5.18.05-.553 0-1.107.05-1.71-.25.15-.55.603-.85 1.056-1 1.056-.35 1.911-.95 2.867-1.5 1.257-.7 1.76-1.8 1.911-3.15.201-2.25.403-4.55.403-6.8 0-1.25.1-2.45.2-3.7.051-.55.353-1.05.655-1.55.603-.95 1.207-1.9 1.81-2.8.805-1.25 1.61-2.45 2.465-3.7.15-.2.302-.4.452-.55 1.107-1.55 2.213-3.1 3.37-4.65 1.006-1.3 1.861-2.7 3.119-3.8.352-.3.653-.55 1.056-.75.352-.15.704-.2 1.056-.05.352.1.604.35.654.8.1.9-.1 1.75-.453 2.55-.805 1.65-1.961 3.1-2.967 4.6-.704 1.05-1.56 2.05-2.364 3-.604.75-1.157 1.55-1.76 2.3-.956 1.25-1.912 2.55-2.918 3.8-.603.7-.905 1.5-.955 2.4-.05.9-.1 1.85-.201 2.75-.252 2.5-.453 5-.805 7.5-.201 1.35-.201 2.75-.553 4.15z" fill="#EBDCC5"/><path d="M16.719 106.3l1.207.6c1.71.75 3.37 1.45 5.08 2.15 2.012.85 4.074 1.7 6.086 2.5.955.4 1.76.9 2.515 1.6 1.005.9 1.207 2.05.955 3.3a.96.96 0 0 1-.553.75c-.503.3-1.006.45-1.61.45-1.207 0-2.313-.25-3.42-.65-3.068-1.15-6.086-2.5-9.103-3.75-1.207-.5-2.414-1.1-3.521-1.85-1.056-.7-1.76-1.6-2.364-2.65-.302-.55-.352-1.15-.453-1.75-.352-2.65-.502-5.35-.704-8-.15-1.95-.452-3.9-.754-5.85-1.459-.9-2.263-2.35-2.817-3.9-.1-.3-.2-.6-.352-.9-.603-1.1-1.006-2.35-1.509-3.55-.251-.55-.301-1.15-.352-1.75-.1-1 .1-1.25 1.157-1.65.151-.35.05-.75.201-1.15.302-.7.755-.95 1.51-.65.15.05.25.15.402.25.1-.2.2-.35.301-.5.453-.55 1.258-.55 1.66 0 .252.35.402.75.604 1.15.754 1.55 1.307 3.2 1.86 4.8.151.35.252.75.403 1.05.402.05.302-.25.402-.4.302-.7.755-1.2 1.51-1.4.904-.25 1.508.25 1.407 1.15-.05.25-.15.45-.2.7-.353.75-.554 1.5-.604 2.3-.05 1.15-.352 2.3-1.006 3.3-.252.35-.252.7-.151 1.05.603 3.25.905 6.55 1.61 9.8.25 1.1.2 2.25.603 3.45zm-1.257-20.55c-.403-.1-.604 0-.654.2-.151.3-.302.65-.453 1-.1.3-.201.6-.453.85-.402.35-.855.7-1.307 1.1-.453.35-1.006.5-1.56.6-.251.05-.452-.05-.603-.3.251-.5.251-.5.503-.6.553-.2 1.157-.35 1.56-.85-2.113-6.55-2.214-6.85-2.918-7.7-.302.15-.352.4-.252.7.302 1.45.705 2.85 1.208 4.25.1.3.2.6.251.9.05.25-.1.45-.402.55a.48.48 0 0 1-.503-.2c-.1-.15-.201-.35-.252-.55-.15-.45-.251-.9-.452-1.35-.403-1.15-.705-2.3-1.308-3.35-.1-.15-.201-.35-.403-.35-.2.05-.301.2-.301.35 0 .2 0 .4.1.6.252.85.554 1.65.855 2.5.252.8.554 1.6.855 2.35.101.25.05.5-.2.6-.252.15-.453 0-.655-.15-.251-.2-.301-.5-.402-.75-.402-.95-.754-1.95-1.157-2.9-.1-.2-.15-.45-.503-.5-.251.25-.1.55 0 .85.906 2.15 1.81 4.35 2.766 6.5.353.8.906 1.5 1.71 1.95.202.1.453.15.604.45.05.2.05.5.1.75.655 2.8.805 5.7 1.107 8.55.151 1.65.252 3.35.503 5 .201 1.6.956 2.85 2.414 3.65.956.55 1.962 1.1 2.968 1.55 1.71.75 3.47 1.45 5.18 2.25 1.861.85 3.873 1.35 5.784 2 .554.2 1.207.25 1.76.05.403-.15.655-.55.504-.95-.151-.45-.302-.9-.705-1.2-.955-.7-1.86-1.5-3.017-1.95-1.861-.7-3.722-1.4-5.533-2.25-1.81-.85-3.671-1.6-5.532-2.35-.604-.25-.956-.6-1.006-1.2-.05-.55-.151-1.1-.252-1.65-.603-2.9-1.006-5.8-1.408-8.75-.15-1.35-.302-2.7-.654-4.05.905-.85 1.207-2 1.459-3.15.2-1 0-2.05.654-3.05z" fill="#010101"/><path d="M15.462 85.75c-.654 1-.453 2.05-.654 3.05-.252 1.2-.554 2.3-1.459 3.15.302 1.35.453 2.7.654 4.05.402 2.95.805 5.85 1.408 8.75.1.55.201 1.1.252 1.65.1.6.452.95 1.006 1.2 1.86.75 3.722 1.5 5.532 2.35 1.81.85 3.672 1.55 5.533 2.25 1.157.45 2.062 1.2 3.017 1.95.403.3.604.75.705 1.2.1.4-.101.8-.503.95-.604.2-1.207.15-1.76-.05-1.962-.65-3.924-1.1-5.785-2-1.71-.8-3.47-1.5-5.18-2.25-1.006-.45-2.012-1-2.968-1.55-1.408-.8-2.213-2.05-2.414-3.65-.201-1.65-.302-3.35-.503-5-.302-2.85-.452-5.75-1.106-8.55-.05-.25-.05-.55-.1-.75-.152-.3-.403-.35-.604-.45-.805-.45-1.358-1.1-1.71-1.95-.956-2.15-1.811-4.35-2.767-6.5-.1-.3-.251-.6 0-.85.352.05.453.25.503.5.403.95.755 1.95 1.157 2.9.1.25.15.55.402.75.202.15.403.3.654.15.252-.15.302-.35.201-.6-.251-.8-.553-1.6-.855-2.35-.301-.85-.553-1.65-.855-2.5-.05-.2-.1-.4-.1-.6 0-.15.1-.3.301-.35.252 0 .302.2.403.35.654 1.05.905 2.2 1.308 3.35l.452 1.35c.05.2.151.35.252.55.1.2.301.25.503.2.301-.05.402-.3.402-.55-.05-.3-.15-.6-.251-.9-.503-1.4-.906-2.8-1.208-4.25-.05-.3-.05-.55.252-.7.704.85.805 1.1 2.917 7.7-.402.5-.956.65-1.56.85-.25.1-.25.1-.502.6.15.25.352.35.604.3.553-.1 1.106-.25 1.559-.6.452-.35.855-.7 1.307-1.1.252-.2.352-.55.453-.85.1-.35.252-.65.453-1 .05-.2.2-.3.654-.2z" fill="#EBDCC5"/><path d="M53.284 11.35c.654.5 1.006 1.1.905 1.95-.1.65-.402 1.1-.804 1.55-.252.3-.654.35-1.006.25-.654-.1-1.107-.45-1.459-1-.201-.3-.302-.65-.453-.95-.05 0-.1.05-.15.05-.05.05-.151.1-.151.15-.151 1.1-.151 2.2-.403 3.35.453-.1.503-.4.704-.6.503-.5 1.107-.7 1.76-.4.705.3 1.158.8 1.208 1.65 0 .4-.1.8-.252 1.15-.402.85-1.257 1.15-2.112.75a2.75 2.75 0 0 1-.905-.8l-.302-.6c-.1 0-.151-.05-.151 0-.05 0-.05.05-.05.1-.05.45-.151.95-.201 1.4-.05.65-.101 1.25-.252 1.9-.251 1.25-.15 2.5 0 3.7.1.55.15 1.1.15 1.65.102 2.05.252 4.05.303 6.1 0 1.25.251 2.45.251 3.7 0 1.1.151 2.15.201 3.25.252 3.45.453 6.95.755 10.4.251 3.35.603 6.7.754 10.05.05 1.4.201 2.8.302 4.15.352.2.704.25 1.056.3 2.163.2 4.275.8 6.338 1.45 1.207.4 2.213 1.05 3.168 1.95 1.911 1.75 3.169 3.9 3.873 6.4.704 2.55.905 5.1.553 7.7-.251 1.8-.402 3.55-.805 5.3-.15.8-.402 1.55-.553 2.35-.452 2.1-.251 4.1.855 6.05.704 1.2 1.459 2.4 2.213 3.55 1.308 1.95 2.465 4 3.622 6.05.452.75.754 1.6 1.005 2.45.353 1.25.805 2.5.956 3.85.151 1.8.252 3.6-.251 5.35-.202.6-.302 1.25-.503 1.85-.604 1.75-1.61 3.3-2.867 4.65-2.766 3-6.237 4.75-10.11 5.7-3.42.85-6.84 1.35-10.36 1.25-1.56-.05-3.119 0-4.678-.1-1.258-.05-2.515-.1-3.722-.3-1.358-.25-2.766-.35-4.124-.7-1.76-.5-3.571-.9-5.281-1.65-4.426-2-7.193-5.35-8.199-10.15-.2-.95-.301-1.9-.352-2.85-.05-2.95.302-5.8 1.459-8.55.855-1.95 1.76-3.85 2.716-5.75 1.157-2.35 2.062-4.75 2.364-7.35.1-.65.05-1.25-.05-1.9-.202-1.9-.805-3.65-1.409-5.45-.955-2.8-1.257-5.7-1.056-8.6.1-1.9.905-3.65 2.062-5.15 2.062-2.65 4.627-4.65 7.897-5.7.402-.1.754-.25 1.156-.35.05 0 .05-.05.101-.1 0-.55.05-1.15 0-1.75l-.453-8c-.15-2.6-.301-5.2-.503-7.75-.402-5-.603-9.95-.704-14.95l-.15-8.75c0-.85-.05-1.75-.353-2.6-.251-.7-.251-1.5-.402-2.25-.05-.2 0-.4-.201-.55-.302-.05-.604 0-.755.35-.05.1-.05.25-.15.35-.504.9-1.61 1.05-2.365.4-.804-.7-.905-1.7-.251-2.45.251-.3.553-.45.956-.3.553.15 1.207.1 1.66.65.15.2.452.1.704-.1a16.2 16.2 0 0 0-.604-2.95c-.453-.1-.754.05-.905.4-.151.35-.453.6-.755.75-.553.25-1.106.15-1.61-.2-.452-.35-.754-.8-.703-1.45.1-.8.603-1.3 1.307-1.55.403-.15.805 0 1.157.25.201.15.402.4.604.6.2.2.402.15.754.1-.201-1.15-.453-2.25-.603-3.25-.252-.15-.453-.15-.705 0-.05.1-.05.25-.15.4-.302.75-.856 1.2-1.51 1.15-.703-.05-1.408-.5-1.609-1.1-.251-.65 0-1.5.553-1.95.503-.4 1.057-.35 1.61-.1.201.1.402.25.603.4.302.25.604.15.956 0-.1-.75-.15-1.55-.251-2.3-.101-.55.05-.9.553-1.2.855-.5 1.509-1.2 2.163-1.9.452-.5.905-.9 1.508-1.15.956-.4 1.912-.5 2.867.15l.302.15c.302 0 .402-.3.553-.45.805-.7 1.71-.9 2.666-.55.604.2 1.207.5 1.71.9.956.75 2.012 1.25 3.219 1.6l.453.15c.754.3.905.55.905 1.35 0 .55-.05 1.1-.1 1.65.301 0 .402-.2.553-.35.402-.4.855-.55 1.408-.5.654.05 1.157.35 1.56.85.351.45.401 1 .2 1.6-.2.6-.603 1.05-1.056 1.4-1.106.25-2.012-.15-2.816-.9-.05.4-.101.7-.202 1.05-.1.35-.2.7 0 1 .202.15.403.05.554-.05.301-.25.653-.45.955-.7.252-.15.503-.2.755 0 .05-.05.251-.05.402-.05zM40.509 91.2c-4.577-3.45-4.577-9.45-.805-13.55-.402-8.4-.402-9-.805-10.35-1.559.45-3.017 1-4.375 1.9-1.56 1.05-2.867 2.35-3.974 3.8-.955 1.25-1.458 2.65-1.559 4.2-.201 3.15.402 6.2 1.358 9.2.352 1.1.654 2.2.956 3.35.603 2.2.251 4.35-.302 6.5-.453 1.85-1.308 3.5-2.112 5.2-.755 1.6-1.61 3.2-2.364 4.85-1.006 2.25-1.61 4.6-1.56 7.1.05 1.4.101 2.8.353 4.15.452 2.3 1.408 4.35 3.068 6 1.508 1.5 3.32 2.6 5.381 3.35 1.962.65 3.923 1.15 5.935 1.45 1.962.25 3.923.4 5.885.4 1.509 0 3.068-.05 4.577 0 .855 0 1.66 0 2.514-.2 1.51-.3 3.018-.6 4.477-1 1.307-.35 2.615-.75 3.873-1.25 1.559-.6 2.917-1.55 4.023-2.8 2.364-2.65 3.32-5.85 3.32-9.35 0-1.25-.151-2.55-.403-3.8-.653-3.25-1.91-6.25-3.42-9.15-.654-1.25-1.509-2.45-1.961-3.85-.704-2-1.258-4.05-1.157-6.2.1-1.8.302-3.6.654-5.35.503-2.35.905-4.7.905-7.1 0-1.8-.302-3.55-.955-5.25-1.107-2.85-2.767-5.25-5.684-6.45l-.302-.15c-.955-.5-2.012-.8-3.118-.9-1.006-.1-1.962-.1-2.917-.15-.201.35-.1.6-.1.9.05 1.1.15 2.15.25 3.2.051.45.051.9.051 1.3.15 1.45.352 2.95.402 4.4.05.9.252 1.6.906 2.25.905.85 1.509 1.9 1.91 3 .906 2.45.806 4.95-.351 7.35-.302.6-.654 1.2-1.006 1.75-.252.35-.352.7-.302 1.1.1 1.05.151 2.05.252 3.1.1 1.45.251 2.85.352 4.3.05.9.15 1.8.251 2.8.503.05.906.25 1.157.7.201.35.604.55 1.006.6.453.1.905.2 1.408.15.755-.1.956.1 1.107.75.1.35.2.7.251 1.05.1.7.201 1.45-.402 2.1-.453.05-.956.15-1.51.2-2.514.15-5.029.35-7.594.5-2.867.15-5.683.25-8.55.35h-.956c-.654-.05-.804-.2-.905-.85-.1-.5-.15-1.05-.251-1.55-.05-.35.05-.65.05-.95.05-.45.302-.6.704-.7.15 0 .302-.05.503-.05.503 0 1.006-.25 1.207-.65.302-.5.754-.65 1.157-.9-.05-3.65-.302-7.25-.503-10.8zm7.745-85.65c-.603-.3-1.005-.5-1.408-.75l-.905-.6c-.453-.25-.905-.55-1.358-.75-.905-.4-1.509-.25-2.163.5-.15.2-.302.4-.453.55-.402.4-.754.4-1.156.05-.1-.1-.151-.2-.202-.3-.452-.45-.955-.55-1.559-.25-.301.15-.654.3-.905.55-.905.85-1.81 1.7-2.817 2.45 0 .3.05.5.05.75.252 2.25.755 4.5 1.158 6.7.352 2.3.955 4.5 1.257 6.8.05.25-.05.55.201.85 2.666-.25 5.331-.85 8.098-.9.704-5.25 1.61-10.4 2.162-15.65zM42.521 24.2c-.352-.05-.704-.15-1.006.15v.75c.05 1.25.251 2.55.251 3.8.05 1.65.1 3.35.302 5 .15 1.2.15 2.4.201 3.6 0 .2 0 .4.05.6.202.95.151 1.9.202 2.85.05.95.15 1.9.2 2.85.051 1.1 0 2.15.101 3.25.202 1.75.202 3.5.353 5.25.1.85-.05 1.75.1 2.65.252 1.5.151 3 .352 4.5.201 1.4.1 2.85.252 4.3.15 1.65.15 3.35.251 5 .201 2.25.252 4.55.352 6.8 0 .05.05.15.1.25.303.2.604.15.856-.05.201-.2.201-.45.15-.65-.351-1.65-.1-3.35-.351-5-.201-1.35-.1-2.7-.252-4.05-.15-1.5-.1-3-.251-4.55-.151-1.45-.05-2.95-.252-4.4-.15-1.35-.1-2.7-.251-4.05-.151-1.6-.1-3.25-.252-4.9-.15-1.3-.1-2.6-.2-3.95-.152-1.5-.101-3-.252-4.55-.151-1.2-.101-2.4-.202-3.6-.15-1.65-.15-3.35-.251-5-.15-2.2-.252-4.4-.352-6.55-.1-.1-.151-.15-.201-.3zm1.157 0c0 1-.101 1.95 0 2.9.2 2.2.301 4.45.402 6.65.1 2.1.352 4.2.302 6.35v.1c.352 1.95.2 4 .402 5.95.252 2.1.201 4.2.302 6.35v.25c.302 1.85.201 3.75.402 5.6.201 2.15.201 4.3.352 6.45v.1c.352 1.95.201 4 .403 5.95.15 1.45.2 2.95.301 4.4 0 .1.101.2.151.3.302.05.604.1.805-.2 0-1.1-.05-2.25-.201-3.4-.151-1.4-.1-2.85-.252-4.3-.15-1.45-.15-2.95-.251-4.4-.151-2.45-.302-4.95-.453-7.4-.15-2.65-.251-5.35-.503-8-.1-1.45-.15-2.85-.251-4.3-.1-2.05-.403-4.15-.352-6.2v-.5c-.352-1.65-.252-3.35-.352-5-.151-2.15-.403-4.3-.352-6.45 0-.5-.101-.95-.302-1.3-.201 0-.352-.05-.553.1zm-4.125.2v.8c-.05.9.201 1.75.201 2.6 0 2.15.353 4.3.302 6.45v.35c.352 1.55.151 3.2.352 4.75.201 1.5.05 3 .252 4.55.15 1.2.15 2.4.2 3.6.102 1.8.252 3.6.303 5.35.05 1.85.352 3.65.301 5.5v.1c.202 2.45.453 4.9.453 7.4 0 .35 0 .7.05 1.1.252 1.85.302 3.75.403 5.6.05 1 .05 2 .1 3 0 .45.252.65.604.6.402-.05.352-.35.352-.65-.05-1.3-.05-2.65-.201-3.95-.201-1.6-.05-3.25-.302-4.9-.15-1.05-.15-2.15-.201-3.2-.05-2-.352-4-.302-5.95 0-1.9-.352-3.8-.251-5.75v-.1c-.403-1.85-.101-3.75-.403-5.6-.2-1.2-.1-2.45-.2-3.7-.152-1.45-.102-2.95-.252-4.4-.151-1.4-.151-2.85-.202-4.3-.1-2.05-.352-4.05-.301-6.1 0-1-.1-2-.252-2.95 0-.05-.1-.1-.201-.2h-.805zM50.87 64.3c.05-.9-.151-1.7-.151-2.55-.05-1.7-.252-3.35-.302-5-.05-1.15-.15-2.3-.302-3.45-.2-1.4-.15-2.85-.402-4.3-.201-1.5-.201-3-.302-4.55 0-.15 0-.3-.05-.5-.302-1.4-.252-2.85-.352-4.25a47.97 47.97 0 0 1-.252-4.65c-.05-2.7-.251-5.4-.301-8.15 0-.15 0-.35-.05-.5-.302-.9-.101-1.9-.353-2.85-.1-.3 0-.65.05-.95.151-1.65.453-3.3.403-5 0-.25 0-.45.05-.7.453-1.65.553-2.5.403-4.3 0-.1 0-.25.05-.35.503-.65.352-1.45.603-2.15.151-.5 0-.85-.553-1.05-.201 1.8-.503 3.55-.603 5.3 0 .25-.05.5-.101.7-.553 2.2-.704 4.45-1.056 6.7-.05.45-.1.95.05 1.45.1.4.1.8.1 1.2.051 1.6.051 3.2.202 4.8.15 2 .201 3.95.302 5.95.05.95-.1 1.95.1 2.85.252 1.55 0 3.1.403 4.65 0 2.55.251 5.1.452 7.6.1 1.35.1 2.7.252 4.05.15 1.3.15 2.6.2 3.95.102 1.8.303 3.6.353 5.35 0 .25-.05.5.15.7.303.2.604.2 1.007 0zM38.497 24.65c-.251-.05-.352.1-.352.2.201.85.1 1.75.15 2.6v1.8c0 2.65.101 5.25.202 7.9.1 2.45.402 4.95.302 7.4v.35c.352 1.65.201 3.35.352 5 .201 2 .402 3.95.352 5.95v.25c.251 1.9.352 3.8.402 5.7.05 1.25.1 2.55.202 3.8.1 1.9.251 3.8.301 5.75.05 1.6.151 3.2.252 4.75 0 .05.1.1.15.2.202 0 .453.1.705-.15 0-.1.05-.25.05-.4-.05-.8-.15-1.65-.201-2.45-.05-.85-.1-1.65-.201-2.5-.1-1.3-.1-2.6-.252-3.95-.15-1.3-.2-2.6-.2-3.95-.051-2.2-.252-4.4-.353-6.55-.1-1.85-.15-3.75-.352-5.6-.151-1.6-.1-3.2-.252-4.75-.15-1.2-.1-2.4-.2-3.6-.152-1.45-.051-2.95-.252-4.4-.151-1.2.05-2.45-.252-3.7.05-2.1-.352-4.2-.301-6.35.1-1.05-.101-2.15-.252-3.3zm7.746-.7c-.805 0-.855.05-.805.65.05.4.1.8.1 1.2.05.9-.05 1.85.101 2.75.252 1.65.201 3.35.352 5 .201 2.1.252 4.2.352 6.35v.25c.302 1.75.201 3.5.403 5.25.2 1.95.2 3.9.301 5.85v.25c.352 1.65.151 3.35.352 5 .202 1.55.05 3.1.252 4.65.15 1.15.1 2.3.251 3.45.151 1.25.101 2.55.252 3.8.201 2.1.251 4.2.352 6.35 0 .25-.05.5.15.7.252.15.453.35.755.15 0-.1.05-.25.05-.35 0-1.55-.2-3.1-.352-4.65-.1-1.2-.2-2.45-.301-3.7-.201-2.4-.352-4.75-.503-7.15-.1-1.75-.252-3.5-.302-5.25 0-.4.05-.8-.05-1.2-.252-.95-.202-1.9-.202-2.85 0-.95-.2-1.9-.251-2.85-.05-1.75-.15-3.5-.302-5.25-.05-.45 0-.9-.05-1.3-.252-1.4 0-2.8-.352-4.15.05-2.8-.302-5.6-.302-8.4.05-1.5.05-3-.251-4.55zm1.408 67.1c.754-.1.855-.15.855-.7 0-.7.05-1.35-.05-2.05-.302-1.65-.151-3.35-.352-5-.202-1.95-.202-3.9-.302-5.85v-.1c-.05-.55-.252-.7-.805-.5-.1.05-.201.1-.302.2-.2.65.05 1.3.1 1.9.051 1.35.152 2.7.202 4.05.1 2.2.302 4.4.352 6.55 0 .25 0 .5.05.7-.05.3 0 .6.252.8zm-7.243-1.5c.201-.6-.1-1.15-.1-1.7l-.302-6.3V80.5c0-.15-.05-.3-.1-.45-.051-.1 0-.35-.252-.3-.553.9-1.006 1.85-1.258 2.85-.452 1.75-.2 3.45.453 5.1.302.7.805 1.4 1.56 1.85zm10.21.2c.202-1.6-.15-3.1-.251-4.6-.1-1.6-.302-3.25-.403-4.85-.05-.75-.2-1.5-.251-2.25-.05-.5-.352-.65-.956-.6 0 .5-.05 1 .05 1.5.051.3.101.65.101.95.05 1.4.1 2.8.201 4.15.202 1.9.202 3.8.302 5.7 0 .2-.05.4.201.5.403 0 .654-.3 1.006-.5zM45.438 77c-.755.05-.855.1-.855.7 0 .5 0 .95.05 1.45.252 1.95.201 3.85.403 5.8.15 2 .2 4.05.352 6.1 0 .05.1.15.1.2.252.1.553.15.755-.1 0-1.05.05-2.1 0-3.1-.101-2.05-.352-4.1-.403-6.2-.05-1.55-.302-3.1-.302-4.65 0-.05 0-.05-.1-.2zm5.382 14.3c-.302.15-.503.2-.654.3-.202.1-.352.15-.503.55.2 2.95.402 6.05.603 9.1.704.15.704.15 1.358-.05-.302-3.25-.553-6.45-.804-9.9zm-7.293-14c-.302-.2-.554-.05-.755.15-.15.4-.1.8-.05 1.2.302 1.45.201 2.95.352 4.4.15 2.05.201 4.15.352 6.2.05.6-.05 1.2.15 1.75.252.1.454.25.705.2.151-.15.1-.35.1-.55 0-.85-.15-1.65-.2-2.5-.05-1.6-.202-3.2-.252-4.8-.1-1.9-.201-3.85-.302-5.75 0-.1-.05-.2-.1-.3zm-2.767 1c.352 1.85.252 3.7.403 5.55.15 1.95.352 3.9.352 5.85 0 .7.05.7.905.95 0-.6.05-1.2 0-1.8-.201-2.4-.352-4.8-.453-7.25a96.34 96.34 0 0 0-.251-3.8c0-.1-.05-.15-.201-.15-.05.05-.151.05-.252.15l-.503.5zm10.915 9.65c1.91-3.05 1.156-7-.805-9.05.201 2.7.352 5.3.553 7.9 0 .3.151.65.252 1.15zm-4.125 4.6c.1 2.55.352 8.55.604 8.85.352.05.704.15.955-.15-.05-1.5-.1-3-.251-4.45-.15-1.5 0-3-.402-4.45-.352-.1-.554.1-.906.2zm-4.476 9.2c0-.15.05-.3.05-.4-.15-2.4-.302-4.75-.452-7.15l-.151-1.8c-.05-.45-.302-.6-.755-.55-.1.75.352 9 .554 10.1.251.1.452 0 .754-.2zm3.873-.35c-.151-1-.1-2-.151-2.95-.05-.95-.1-1.9-.201-2.85-.1-.95.1-2-.302-2.9-.302-.1-.503-.15-.704.1-.1 1.5.302 7.8.553 8.75.251.1.453.1.805-.15zm-2.113.2c.1-1.75-.301-8.05-.603-9-.201-.05-.352-.15-.604.1.252 2.95.252 6 .604 9.05.302.05.452 0 .603-.15zM52.68 9.95c.453 0 .805-.4.856-.95.05-.45-.503-.95-1.057-.9-.352 0-.704.5-.704.95-.05.5.352.85.905.9zm.453 3c0-.2-.15-.45-.402-.6-.302-.15-.553-.05-.805.1-.251.2-.352.7-.201 1 .201.4.704.7.955.6.353-.2.403-.55.453-.9v-.2zm-.754 4.75c0-.5-.201-.8-.704-1a.491.491 0 0 0-.453.05c-.302.25-.402.6-.352.95.1.4.553.7 1.006.65.302.05.503-.25.503-.65zm-3.119-9c.403 0 .403-.3.453-.5.251-.75.201-1.5.1-2.25 0-.1-.2-.15-.351-.25-.101.65-.252 1.3-.302 1.9 0 .35-.05.7.1 1.1zm-15.54 6.15c.05-.35-.402-.8-.755-.8-.301 0-.653.3-.704.55-.05.45.302.85.805.85.302.05.654-.25.654-.6zm-1.509-3.5c.302 0 .604-.35.604-.75s-.252-.65-.654-.7c-.302 0-.604.3-.604.75-.05.35.302.7.654.7zm1.157 7.2c-.151.75-.05.95.453 1.15.251.1.452 0 .553-.25.15-.35.05-.65-.252-.8-.2-.1-.452-.15-.754-.1zm12.976 4.05a.38.38 0 0 0-.1-.2c-.202-.2-.654-.2-.855 0a.381.381 0 0 0-.101.2c0 .1.05.25.15.3.252.15.504.15.755-.05.1-.1.1-.2.151-.25zm-4.526.55c.251-.05.553 0 .653-.35a.38.38 0 0 0-.1-.2c-.201-.2-.453-.1-.654-.05-.05 0-.15.05-.201.1-.05.1-.151.2-.1.3.05.05.1.15.15.15.1.05.201.05.252.05zM39.453 23c0 .2.1.4.301.4.202 0 .453.05.654-.15.05-.05.05-.15.05-.2 0-.05-.05-.15-.15-.2-.302 0-.604-.05-.855.15zm4.375-.05h.101c.201-.05.402-.05.352-.35-.05-.25-.251-.25-.453-.25-.1 0-.2.05-.301.1-.05.05-.101.1-.101.2-.05.15.05.2.15.25.102.05.202.05.252.05zm-5.28.35c-.051-.15-.051-.35-.252-.35-.252 0-.201.2-.252.35 0 .15 0 .35.252.35.201-.05.251-.2.251-.35z" fill="#000"/><path d="M53.284 11.35c-.15 0-.352 0-.453-.1-.301-.2-.503-.15-.754 0-.352.2-.654.45-.956.7-.15.15-.352.2-.553.05-.201-.35-.1-.65 0-1 .1-.3.1-.65.201-1.05.805.75 1.71 1.2 2.817.9-.1.2-.201.35-.302.5z" fill="#E7E7E6"/><path d="M40.509 91.2c.201 3.55.453 7.1.654 10.75-.403.25-.906.45-1.157.9-.252.4-.704.65-1.207.65-.151 0-.302 0-.503.05-.403.05-.654.25-.704.7-.05.3-.151.6-.05.95.1.5.15 1.05.25 1.55.101.65.252.8.906.85.302.05.654.05.956 0 2.867-.1 5.683-.2 8.55-.35 2.515-.15 5.03-.3 7.595-.5.503-.05 1.006-.15 1.509-.2.603-.65.503-1.4.402-2.1-.05-.35-.15-.7-.251-1.05-.151-.65-.352-.85-1.107-.75-.503.05-.956-.05-1.408-.15-.403-.05-.805-.25-1.006-.6-.252-.5-.654-.65-1.157-.7-.1-1-.15-1.9-.251-2.8-.101-1.45-.252-2.85-.352-4.3-.101-1.05-.151-2.05-.252-3.1-.05-.4.05-.75.302-1.1.352-.55.704-1.15 1.006-1.75 1.157-2.4 1.257-4.85.352-7.35a8.269 8.269 0 0 0-1.911-3c-.654-.6-.906-1.35-.906-2.25-.05-1.45-.251-2.95-.402-4.4-.05-.45-.05-.9-.05-1.3-.101-1.05-.151-2.15-.252-3.2 0-.25-.1-.55.1-.9.956.05 1.962.05 2.918.15 1.106.1 2.112.4 3.118.9.1.05.201.15.302.15 2.967 1.25 4.577 3.6 5.683 6.45.654 1.7.906 3.45.956 5.25 0 2.4-.402 4.75-.905 7.1-.352 1.75-.554 3.55-.654 5.35-.1 2.15.453 4.2 1.157 6.2.503 1.35 1.307 2.55 1.961 3.85 1.51 2.9 2.766 5.95 3.42 9.15.252 1.25.453 2.55.403 3.8 0 3.5-.956 6.7-3.32 9.35a10.261 10.261 0 0 1-4.024 2.8c-1.257.5-2.565.9-3.872 1.25-1.459.4-2.968.65-4.477 1-.804.2-1.66.2-2.514.2H45.74c-1.962 0-3.923-.15-5.885-.4-2.062-.3-4.024-.75-5.935-1.45-2.062-.7-3.873-1.8-5.382-3.35-1.66-1.65-2.665-3.7-3.068-6-.251-1.35-.352-2.75-.352-4.15-.05-2.5.554-4.85 1.56-7.1.704-1.65 1.559-3.25 2.363-4.85.805-1.7 1.66-3.35 2.113-5.2.503-2.15.905-4.3.302-6.5-.302-1.1-.604-2.25-.956-3.35-.956-3-1.56-6.05-1.358-9.2.1-1.55.604-2.95 1.56-4.2a15.91 15.91 0 0 1 3.973-3.8c1.358-.9 2.816-1.45 4.375-1.9.403 1.35.453 1.95.805 10.35-3.923 4.15-3.923 10.15.654 13.6zm-8.802 32.45c.201-.35.201-.65-.05-.95-.403-.45-.755-.9-1.157-1.4-.905-1.1-1.56-2.4-2.062-3.75-.302-.9-.604-1.8-.704-2.75-.151-1.55-.05-3.1.352-4.6.15-.5.1-1 .05-1.45-.302-.25-.553-.2-.704 0-.201.2-.352.45-.402.7-.252 1.1-.503 2.15-.554 3.25 0 1.2.05 2.35.202 3.55.15 1.1.502 2.15.804 3.2.956 1.4 1.911 2.85 3.22 4 .301.25.603.3 1.005.2zM35.63 70.8c-.503-.45-.603-.5-1.006-.2-.2.15-.352.35-.553.45-1.408.95-2.414 2.3-3.068 3.85-.201.55-.453 1.1-.402 1.7 0 .65.452.9 1.056.6.402-.2.603-.55.603-.95 0-.75.403-1.35.805-1.95.553-.8 1.107-1.65 1.861-2.3.352-.3.654-.65.704-1.2zm-3.671 8.3c-.855.15-1.157.55-1.107 1.35.05.75.1 1.4.453 2.05.352.75.704.8 1.358.2.05-.05.1-.15.15-.25-.502-1-.402-2.2-.854-3.35zM46.846 4.8l-.905-.6c-.453-.25-.905-.55-1.358-.75-.905-.4-1.509-.25-2.163.5-.15.2-.302.4-.453.55-.402.4-.754.4-1.156.05-.1-.1-.151-.2-.202-.3-.452-.45-.955-.55-1.559-.25-.301.15-.654.3-.905.55-.905.85-1.81 1.7-2.817 2.45 0 .3.05.5.05.75.252 2.25.755 4.5 1.158 6.7.352 2.3.955 4.5 1.257 6.8.05.25-.05.55.201.85 2.666-.25 5.331-.85 8.098-.9.704-5.2 1.61-10.4 2.162-15.6-.553-.35-1.005-.55-1.408-.8zM38.95 21.2a1.253 1.253 0 0 1-.604-1.1c-.05-.65-.251-1.25-.402-1.85-.1-.35-.1-.7-.05-1.05 0-.25.2-.4.402-.5.704.35.553 1.05.704 1.6.201.7.251 1.45.503 2.15.1.35 0 .45-.553.75z" fill="#DEC6A3"/><path d="M42.52 24.2c.051.15.101.2.101.3.1 2.2.151 4.4.352 6.55.151 1.65.101 3.35.252 5 .1 1.2.05 2.4.201 3.6.15 1.5.1 3.05.252 4.55.15 1.3.1 2.65.2 3.95.202 1.65.101 3.25.252 4.9.151 1.35.05 2.7.252 4.05.2 1.45.1 2.95.251 4.4.151 1.5.1 3.05.252 4.55.15 1.35.05 2.7.251 4.05.252 1.65 0 3.35.352 5 .05.25.05.5-.15.65-.252.25-.554.25-.856.05-.05-.1-.1-.15-.1-.25-.1-2.25-.151-4.55-.352-6.8-.151-1.65-.101-3.35-.252-5-.15-1.45-.05-2.9-.251-4.3-.202-1.5-.101-3-.352-4.5-.151-.85 0-1.75-.101-2.65-.15-1.75-.15-3.5-.352-5.25-.1-1.05-.05-2.15-.1-3.25-.051-.95-.152-1.9-.202-2.85-.05-.95 0-1.9-.201-2.85-.05-.2-.05-.4-.05-.6-.05-1.2-.05-2.4-.202-3.6-.2-1.65-.251-3.35-.301-5 0-1.3-.202-2.55-.252-3.8v-.75c.403-.3.755-.2 1.107-.15z" fill="#806F5B"/><path d="M43.678 24.2c.2-.15.352-.15.553-.1.201.4.302.85.302 1.3-.05 2.15.2 4.3.352 6.45.1 1.65 0 3.35.352 5 .05.15.05.3 0 .5-.05 2.1.2 4.15.352 6.2.1 1.45.1 2.85.251 4.3.201 2.65.352 5.35.503 8 .151 2.45.302 4.95.453 7.4.1 1.45.1 2.95.251 4.4.151 1.45.1 2.85.252 4.3.15 1.15.15 2.3.201 3.4-.251.3-.503.25-.805.2-.05-.1-.15-.2-.15-.3-.101-1.45-.152-2.95-.302-4.4-.202-2-.05-4-.403-5.95v-.1c-.1-2.15-.15-4.3-.352-6.45-.15-1.85-.1-3.75-.402-5.6v-.25c-.1-2.1-.1-4.25-.302-6.35-.201-2-.05-4-.402-5.95v-.1c.05-2.1-.202-4.2-.302-6.35-.1-2.25-.201-4.45-.402-6.65-.101-.9 0-1.85 0-2.9z" fill="#806E5B"/><path d="M39.553 24.4c.352-.05.554-.05.755-.05l.2.2c.152 1 .252 1.95.252 2.95 0 2.05.202 4.05.302 6.1.1 1.45.05 2.85.201 4.3.151 1.45.1 2.95.252 4.4.15 1.25.05 2.5.201 3.7.302 1.85 0 3.75.402 5.6v.1c-.05 1.9.302 3.8.252 5.75 0 2 .251 4 .302 5.95.05 1.05.05 2.15.2 3.2.202 1.65.101 3.25.303 4.9.15 1.3.15 2.65.2 3.95 0 .3.051.6-.351.65-.352.05-.554-.15-.604-.6-.05-1-.05-2-.1-3-.101-1.85-.151-3.75-.403-5.6-.05-.35-.05-.7-.05-1.1-.05-2.45-.252-4.95-.453-7.4v-.1c.05-1.85-.251-3.65-.302-5.5-.05-1.8-.2-3.6-.301-5.35-.05-1.2-.05-2.4-.202-3.6-.2-1.5-.05-3.05-.251-4.55-.201-1.6 0-3.2-.352-4.75-.05-.1 0-.25 0-.35.05-2.15-.302-4.3-.302-6.45 0-.85-.251-1.75-.201-2.6.05-.15.05-.4.05-.75z" fill="#746254"/><path d="M50.87 64.3c-.403.2-.704.15-1.006.05-.201-.2-.151-.45-.151-.7-.05-1.8-.251-3.6-.352-5.35-.05-1.3-.1-2.65-.201-3.95-.151-1.35-.1-2.7-.252-4.05-.251-2.55-.452-5.05-.452-7.6-.352-1.5-.101-3.1-.403-4.65-.15-.95-.05-1.9-.1-2.85-.1-2-.151-4-.302-5.95-.1-1.6-.1-3.2-.201-4.8 0-.4 0-.8-.1-1.2-.152-.45-.101-.95-.051-1.45.302-2.25.503-4.5 1.056-6.7.05-.25.05-.45.1-.7.101-1.75.353-3.55.604-5.3.503.2.704.55.553 1.05-.2.7-.1 1.5-.603 2.15-.05.1-.05.25-.05.35.1 1.8.05 2.65-.403 4.3-.05.25-.05.45-.05.7.05 1.7-.252 3.35-.402 5-.05.3-.151.65-.05.95.25.95.05 1.9.351 2.85.05.15.05.3.05.5.05 2.7.252 5.4.302 8.15 0 1.55.151 3.1.252 4.65.1 1.4.05 2.85.352 4.25.05.15 0 .3.05.5.1 1.5.1 3.05.302 4.55.201 1.4.201 2.85.402 4.3.151 1.15.252 2.3.302 3.45.05 1.65.252 3.35.302 5 0 .8.201 1.65.15 2.5z" fill="#806E5B"/><path d="M38.497 24.65c.15 1.15.302 2.25.302 3.35-.05 2.1.352 4.2.302 6.35.301 1.2.1 2.45.251 3.7.201 1.45.1 2.95.252 4.4.15 1.2.1 2.4.2 3.6.202 1.6.101 3.2.252 4.75.201 1.85.302 3.75.352 5.6.1 2.2.302 4.4.352 6.55.05 1.3.05 2.65.202 3.95.15 1.3.1 2.65.251 3.95.05.85.15 1.65.201 2.5.05.8.151 1.65.201 2.45 0 .15 0 .3-.05.4-.251.25-.503.15-.704.15-.05-.1-.15-.15-.15-.2-.102-1.6-.202-3.2-.252-4.75-.05-1.9-.202-3.8-.302-5.75-.05-1.25-.151-2.55-.201-3.8-.101-1.9-.202-3.8-.403-5.7v-.25c.05-2-.15-4-.352-5.95-.15-1.65 0-3.35-.352-5-.05-.1 0-.25 0-.35.05-2.5-.201-4.95-.302-7.4-.1-2.65-.2-5.25-.2-7.9v-1.8c0-.9.05-1.75-.152-2.6-.05-.15.05-.25.302-.25z" fill="#746253"/><path d="M46.243 23.95c.301 1.55.301 3 .301 4.5 0 2.8.352 5.6.302 8.4.352 1.35.05 2.8.352 4.15.1.4.05.85.05 1.3.151 1.75.252 3.5.302 5.25.05.95.252 1.9.252 2.85 0 .95-.05 1.9.201 2.85.1.4.05.8.05 1.2.05 1.75.201 3.5.302 5.25.15 2.4.302 4.75.503 7.15.1 1.25.201 2.45.302 3.7.15 1.55.352 3.1.352 4.65 0 .1-.05.25-.05.35-.302.2-.554 0-.755-.15-.201-.2-.1-.45-.15-.7-.101-2.1-.152-4.25-.353-6.35-.1-1.25-.1-2.55-.251-3.8-.151-1.15-.1-2.3-.252-3.45-.201-1.55-.1-3.1-.251-4.65-.201-1.65-.05-3.35-.352-5v-.25c-.101-1.95-.101-3.9-.302-5.85-.151-1.75-.1-3.5-.403-5.25v-.25c-.1-2.1-.1-4.25-.352-6.35-.15-1.65-.1-3.35-.352-5-.15-.9-.05-1.85-.1-2.75 0-.4-.05-.8-.1-1.2-.101-.55-.051-.6.754-.6z" fill="#7D6C58"/><path d="M47.65 91.05c-.25-.2-.25-.5-.3-.75-.051-.25-.051-.5-.051-.7 0-2.2-.252-4.4-.352-6.55-.05-1.35-.151-2.7-.201-4.05-.05-.65-.302-1.25-.101-1.9.1-.05.201-.15.302-.2.553-.2.754-.1.804.5v.1c.101 1.95.101 3.9.302 5.85.201 1.65.1 3.35.352 5 .1.65.1 1.35.05 2.05 0 .5-.05.5-.804.65z" fill="#7F6D5A"/><path d="M40.408 89.55c-.754-.45-1.257-1.1-1.559-1.9-.654-1.65-.905-3.35-.453-5.1.252-1 .705-1.95 1.258-2.85.251-.05.201.2.251.3.05.15.1.3.1.45v1.05l.303 6.3c0 .6.301 1.1.1 1.75z" fill="#806E5A"/><path d="M50.618 89.75c-.352.2-.553.5-.955.55-.252-.1-.201-.35-.201-.5-.101-1.9-.101-3.8-.302-5.7-.151-1.4-.151-2.8-.201-4.15 0-.3-.05-.65-.101-.95-.1-.5-.05-1-.05-1.5.603-.1.905.1.955.6.05.75.201 1.5.252 2.25.1 1.6.302 3.25.402 4.85 0 1.45.352 2.95.201 4.55z" fill="#7D6C59"/><path d="M45.438 77c.05.15.1.15.1.2 0 1.55.252 3.1.302 4.65.05 2.05.302 4.1.403 6.2.05 1.05 0 2.05 0 3.1-.202.25-.503.2-.755.1a.378.378 0 0 1-.1-.2c-.101-2.05-.151-4.05-.352-6.1-.151-1.95-.101-3.9-.403-5.8-.05-.45-.05-.95-.05-1.45.05-.6.1-.65.855-.7z" fill="#7E6D59"/><path d="M50.82 91.3c.251 3.4.502 6.65.804 9.9-.654.2-.654.2-1.358.05-.2-3.1-.402-6.15-.603-9.1.15-.35.301-.45.503-.55.15-.1.301-.15.654-.3z" fill="#D8C19F"/><path d="M43.527 77.3c.05.1.1.2.1.3.1 1.9.201 3.85.302 5.75.1 1.6.201 3.2.251 4.8.05.85.202 1.65.202 2.5 0 .2.05.4-.1.55-.252.05-.454-.1-.705-.2-.201-.55-.1-1.2-.151-1.75-.1-2.05-.201-4.15-.352-6.2-.1-1.45-.05-2.95-.352-4.4-.05-.4-.1-.8.05-1.2.201-.2.453-.35.755-.15z" fill="#7C6B58"/><path d="M40.76 78.3l.453-.45c.1-.05.201-.1.251-.15.151 0 .202.05.202.15.1 1.25.2 2.55.251 3.8.1 2.4.252 4.85.453 7.25.05.6 0 1.2 0 1.8-.855-.25-.956-.25-.906-.95 0-1.95-.2-3.9-.352-5.85-.1-1.9 0-3.75-.352-5.6z" fill="#7E6D59"/><path d="M51.675 87.95c-.101-.45-.252-.8-.252-1.15-.201-2.6-.352-5.2-.553-7.9 1.961 2 2.716 6 .805 9.05z" fill="#7C6B58"/><path d="M47.55 92.55c.302-.15.554-.3.906-.2.402 1.45.251 2.95.402 4.45.15 1.45.15 2.95.251 4.45-.251.25-.603.2-.955.15-.252-.25-.503-6.3-.604-8.85z" fill="#D5BD9C"/><path d="M43.074 101.75c-.252.2-.503.25-.704.2-.201-1.1-.654-9.4-.553-10.1.402-.05.704.1.754.55l.15 1.8c.152 2.4.303 4.75.454 7.15-.101.15-.101.25-.101.4z" fill="#D4BD9C"/><path d="M46.947 101.4c-.352.25-.554.25-.755.15-.251-1-.654-7.3-.553-8.75.201-.25.402-.2.704-.1.352.9.201 1.9.302 2.9.1.95.15 1.9.201 2.85-.05.95-.05 1.95.1 2.95z" fill="#D0BA99"/><path d="M44.834 101.6c-.15.15-.352.2-.654.15-.301-3-.352-6.05-.603-9.05.251-.25.453-.2.603-.1.353.95.805 7.25.654 9z" fill="#D5BE9C"/><path d="M52.68 9.95c-.553-.05-.955-.4-.905-.9.05-.5.403-.95.704-.95.503-.05 1.107.45 1.057.9-.05.5-.453.95-.856.95z" fill="#7FC7CB"/><path d="M53.133 12.95v.2c-.05.35-.1.7-.453.9-.251.1-.754-.2-.955-.6-.151-.25-.05-.8.201-1 .201-.2.503-.25.805-.1.251.15.402.4.402.6z" fill="#80CACE"/><path d="M52.379 17.7c0 .4-.201.7-.503.7-.453.05-.906-.25-1.006-.65-.05-.35.05-.7.352-.95.15-.1.302-.1.453-.05.503.15.704.45.704.95z" fill="#7EC5C9"/><path d="M49.26 8.7c-.2-.4-.1-.75-.1-1.1.05-.6.2-1.25.302-1.9.15.1.301.15.352.25.1.75.15 1.5-.101 2.25-.05.2 0 .45-.453.5z" fill="#6B5C4B"/><path d="M33.719 14.85c0 .3-.352.6-.604.6-.503 0-.855-.4-.804-.85.05-.25.352-.55.704-.55.302 0 .754.45.704.8z" fill="#78B9BC"/><path d="M32.21 11.35c-.352 0-.654-.35-.654-.7 0-.4.252-.75.604-.75.402 0 .654.3.654.7-.05.4-.302.75-.604.75z" fill="#7DC1C5"/><path d="M33.367 18.55c.302-.05.553 0 .754.1.302.15.403.45.252.8-.1.25-.352.35-.553.25-.503-.2-.604-.4-.453-1.15z" fill="#7CC0C4"/><path d="M46.343 22.6c-.05.05-.05.15-.1.2-.252.2-.503.2-.755.05-.1-.05-.15-.2-.15-.3 0-.05.05-.15.1-.2.251-.2.654-.15.855 0 .05.1.05.2.05.25z" fill="#9F8E75"/><path d="M41.817 23.15c-.101 0-.151 0-.252-.05l-.15-.15c-.051-.15 0-.25.1-.3.05-.05.15-.1.201-.1.201-.05.453-.15.654.05.05.05.1.15.1.2-.05.4-.402.3-.653.35z" fill="#CDB796"/><path d="M39.453 23c.251-.2.553-.2.905-.15.05 0 .1.1.15.2 0 .05 0 .15-.05.2-.15.2-.402.2-.653.15-.252 0-.352-.15-.352-.4z" fill="#C8B293"/><path d="M43.828 22.95c-.05 0-.15 0-.2-.05-.101-.05-.202-.15-.152-.25 0-.05.05-.15.1-.2.102-.05.202-.1.303-.1.2 0 .402 0 .452.25.05.25-.15.3-.352.35h-.15z" fill="#BFAA8C"/><path d="M38.547 23.3c0 .15-.05.3-.251.3s-.252-.2-.252-.35c0-.15 0-.35.252-.35.201.1.251.25.251.4z" fill="#9D8C73"/><path d="M31.707 123.65c-.402.1-.704.05-.956-.2-1.307-1.15-2.263-2.55-3.218-4-.302-1.05-.654-2.1-.805-3.2-.151-1.2-.201-2.35-.201-3.55 0-1.1.301-2.2.553-3.25.05-.25.251-.5.402-.7.151-.2.403-.2.704 0 0 .45.05.95-.05 1.45-.402 1.5-.503 3.05-.352 4.6.1.95.402 1.85.704 2.75.503 1.35 1.157 2.6 2.062 3.75.352.45.755.9 1.157 1.4.151.3.151.6 0 .95z" fill="#F0DFC7"/><path d="M35.63 70.8c-.05.5-.352.85-.704 1.2-.754.7-1.308 1.5-1.86 2.3-.403.6-.806 1.2-.806 1.95 0 .4-.2.75-.603.95-.604.3-1.056.1-1.056-.6 0-.6.2-1.2.402-1.7.654-1.55 1.66-2.85 3.068-3.85.201-.15.352-.3.553-.45.403-.25.503-.25 1.006.2zm-3.671 8.3c.503 1.15.352 2.3.804 3.35-.05.1-.1.2-.15.25-.654.65-.956.6-1.359-.2-.301-.65-.402-1.35-.452-2.05 0-.8.302-1.2 1.157-1.35z" fill="#EFDFC7"/><path d="M38.95 21.2a1.253 1.253 0 0 1-.604-1.1c-.05-.65-.251-1.25-.402-1.85-.1-.35-.1-.7-.05-1.05 0-.25.2-.4.402-.5.704.35.553 1.05.704 1.6.201.7.251 1.45.503 2.15.1.35 0 .45-.553.75z" fill="#EFDFC6"/><path d="M44.432 13.85c.352.3.553.6.402 1.05-.452 1.4-2.313 2.75-4.023 2.3-.755-.2-1.358-.7-1.76-1.35a.802.802 0 0 1-.152-.45c-.05-.25-.05-.5.202-.65.251-.15.452.05.603.25.151.25.302.45.503.65.704.65 1.61.7 2.414.15.503-.35.956-.7 1.157-1.3.1-.3.252-.55.654-.65z" fill="#060606"/><path d="M43.124 8.25c-.15-.15-.2-.25-.15-.45.452-.85 1.257-1.05 2.112-1.05.905 0 1.61.45 1.961 1.3.05.1 0 .25-.05.35-.1.15-.302.15-.402.05-.151-.05-.252-.2-.403-.3-.754-.6-1.509-.65-2.364-.2-.2.15-.402.35-.704.3z" fill="#0D0D0D"/><path d="M36.586 10.5c-.252-.55-.1-.95.251-1.35.755-.75 1.71-1 2.767-.85.301.05.503.25.452.6-.603.3-1.307.1-1.961.4-.554.3-.855.9-1.51 1.2z" fill="#0F0F0F"/><path d="M39.201 12.15c-.503 0-1.006-.3-1.006-.65 0-.4.453-.8.906-.8.503-.05.804.25.855.8.05.4-.202.65-.755.65z" fill="#121212"/><path d="M45.74 10.5c0 .45-.554.9-1.006.85-.403-.05-.654-.4-.604-.9 0-.45.352-.75.906-.75.402.05.754.35.704.8z" fill="#101010"/><path d="M84.618 78.45c.252-.35.403-.65.654-.95.403-.5 1.107-.4 1.408.15.151.3.202.6.353.9.301.05.352-.25.553-.3.754-.35 1.509-.1 1.76 1 .151.6.252 1.25.201 1.9-.1 2.2-.1 4.4-.301 6.6-.101 1.35-.503 2.6-.855 3.85-.151.45-.202.9-.252 1.4-.05 2.8-.05 5.6-.1 8.4 0 1.7-.05 3.45-.05 5.15 0 1.1-.403 1.8-1.359 2.35-.654.4-1.308.75-2.012 1.1-2.011 1-4.074 1.85-6.186 2.7-.201.1-.453.15-.654.3-1.207.75-2.615 1.05-3.973 1.3-.855.15-1.76.1-2.565-.35-.453-.25-.704-.6-.755-1.15-.15-1.5.1-2.1 1.308-2.95a9.688 9.688 0 0 1 1.56-.9c2.313-.8 4.526-1.9 6.739-2.85.754-.35 1.559-.6 2.263-1.05.252-.9 1.358-11.95 1.408-13.4-.955-.4-1.509-1.2-1.81-2.2-.202-.55-.554-.85-1.057-1.1-.503-.25-1.005-.55-1.307-1-.201-.25-.352-.55-.302-.9.1-.8.503-1.2 1.358-1.25.453-.05.855.1 1.257.3.302.15.554.3.805.5.302-.15.252-.4.201-.6-.05-.7-.15-1.45-.251-2.15-.151-1.05-.1-2.05-.05-3.1 0-.25.1-.45.15-.7.302-1.1.705-1.3 1.861-1zm-4.225 7.95c-.05.2-.05.35.101.45.302.25.654.5 1.006.65.754.4 1.257.95 1.509 1.75.201.65.553 1.15 1.207 1.4.201.1.453.2.553.6-.15 1.9-.251 4-.452 6.05-.101 1.55-.302 3.1-.403 4.65-.1 1.1-.201 2.2-.402 3.3-.05.35-.201.6-.503.75-.252.15-.453.3-.755.4l-7.997 3.3c-.653.25-1.257.55-1.86.9-.705.4-.956.95-.705 1.7.352.45.855.55 1.358.6.855.05 1.66-.15 2.465-.45 3.269-1.3 6.538-2.7 9.707-4.25.251-.1.503-.25.754-.4.503-.35.704-.75.755-1.4 0-2.05.1-4.05.15-6.1.051-2.35.202-4.7.252-7.05 0-1.05-.05-2.05.453-3.05.201-.35.201-.75.302-1.15.301-1.5.452-3 .503-4.5 0-1.15.05-2.3.15-3.45.05-.5.05-1.05-.1-1.55-.05-.2-.151-.35-.403-.3-.2.2-.251.4-.251.65-.05 1-.302 1.95-.302 3 0 .5-.05.95-.1 1.45-.05.2-.151.4-.252.55-.1.1-.251.2-.453.15-.15-.05-.301-.15-.352-.3-.05-.35-.05-.7-.05-1.05 0-1.35-.05-2.7-.05-4.05 0-.3-.05-.55-.1-.85 0-.1-.152-.2-.252-.25-.201-.05-.302.1-.352.25-.05.7-.05 1.45-.1 2.15 0 1.2 0 2.4-.051 3.6 0 .2-.1.4-.302.45-.251.05-.453-.1-.553-.4-.05-.25-.1-.55-.1-.85l-.152-3.1c0-.4.05-.8-.352-1.1a.439.439 0 0 0-.352.45c-.05.4-.05.8-.05 1.2l.302 5.25c0 .1.1.2.1.2.855.6 1.81-.1 2.616.25.1.4-.101.6-.352.75-.353.2-.755.3-1.157.25-.755-.05-1.51-.25-2.163-.7-.302-.25-.654-.45-1.006-.65-.453-.25-.956-.35-1.459-.15z" fill="#010101"/><path d="M80.393 86.4c.503-.2 1.006-.1 1.46.15.351.2.703.4 1.005.65.654.45 1.358.65 2.163.7.402.05.804-.1 1.157-.25.251-.15.452-.35.352-.75-.805-.35-1.71.35-2.616-.25 0 0-.1-.1-.1-.2l-.302-5.25c0-.4 0-.8.05-1.2 0-.2.1-.35.352-.45.403.25.352.7.352 1.1.05 1.05.1 2.05.151 3.1 0 .3.05.55.1.85.051.25.252.4.554.4.251-.05.302-.25.302-.45 0-1.2 0-2.4.05-3.6 0-.7.05-1.45.1-2.15 0-.15.152-.3.353-.25.1 0 .251.15.251.25.05.25.1.55.1.85.051 1.35.051 2.7.051 4.05 0 .35 0 .7.05 1.05 0 .15.202.25.352.3.151.05.353-.05.453-.15.1-.15.252-.35.252-.55.05-.45.1-.95.1-1.45 0-1 .201-2 .302-3 0-.25.1-.45.251-.65.252-.05.353.1.403.3.15.5.15 1.05.1 1.55-.1 1.15-.15 2.3-.15 3.45-.05 1.5-.151 3.05-.503 4.5-.101.4-.101.8-.302 1.15-.503.95-.453 2-.453 3.05-.05 2.35-.15 4.7-.251 7.05-.05 2.05-.151 4.05-.151 6.1 0 .65-.252 1.05-.755 1.4-.251.15-.503.3-.754.4a129.333 129.333 0 0 1-9.707 4.25c-.805.3-1.61.5-2.465.45-.553 0-1.006-.15-1.358-.6-.251-.75.05-1.3.704-1.7.604-.35 1.208-.65 1.861-.9l7.997-3.3c.252-.1.503-.25.755-.4.302-.15.453-.45.503-.75.201-1.1.302-2.2.402-3.3.151-1.55.302-3.1.403-4.65.15-2.05.301-4.15.452-6.05-.15-.4-.352-.55-.553-.6-.654-.25-1.006-.75-1.207-1.4-.252-.8-.755-1.4-1.509-1.75-.352-.2-.654-.45-1.006-.65-.15-.1-.15-.25-.1-.45z" fill="#EBDCC5"/></g></svg>