<svg width="120" height="120" viewBox="0 0 120 120" xmlns="http://www.w3.org/2000/svg" xmlns:xlink="http://www.w3.org/1999/xlink"><defs><path id="a" d="M.735.42h29.62v46.305H.735z"/><path id="c" d="M1.32.085h48.731V2.69H1.321z"/></defs><g fill="none" fill-rule="evenodd"><path d="M43.322 103.546v4.994c0 5.146 4.168 9.317 9.31 9.317h15.222c5.142 0 9.31-4.171 9.31-9.317v-4.994c0-5.146-4.168-9.318-9.31-9.318H52.632c-5.142 0-9.31 4.172-9.31 9.318" fill="#C9802E"/><path d="M67.854 94.228h-7.61v23.63h7.61c5.14 0 9.31-4.172 9.31-9.318v-4.994c0-5.146-4.17-9.318-9.31-9.318" fill="#C9802E"/><g transform="translate(38.7 .944)"><mask id="b" fill="#fff"><use xlink:href="#a"/></mask><path d="M23.533 46.725l5.87-19.248c2.93-9.606-1.071-19.972-9.692-25.113l-.015-.01C13.346-1.431 5.138.504 1.146 6.73a2.595 2.595 0 0 0 .654 3.497 3.418 3.418 0 0 0 4.82-.81 7.793 7.793 0 0 1 10.918-1.895 17.13 17.13 0 0 1 6.477 18.83l-6.053 20.374h5.571z" fill="#926029" mask="url(#b)"/></g><path d="M107.176 56.462a3.69 3.69 0 0 0-.028-.839c-1.137-8.445 7.298-26.767 4.548-30.902-2.211-3.326-15.378 7.418-20.455 11.755-6.603-4.294-14.835-7.219-23.905-8.258l-2.03-3.52a.404.404 0 0 0-.7 0l-1.827 3.168h-.32l-1.848-3.201a.38.38 0 0 0-.66 0l-1.832 3.177h-.349l-1.814-3.143c-.155-.27-2.718 3.499-2.718 3.499-9.126.982-17.42 3.863-24.075 8.143-5.186-4.42-18.11-14.912-20.297-11.62-2.75 4.135 5.687 22.457 4.548 30.902-.029.217-.027.382-.029.553l-.308 1.988a19.556 19.556 0 0 0-.227 2.972s.03 1.49.053 2.748c.02 1.122.124 2.24.31 3.348l.208 1.249c.072.427.155.852.265 1.27 4.27 16.159 23.416 28.352 46.411 28.352 23.405 0 42.823-12.632 46.625-29.221l.542-3.263.01-.089c.092-.942.105-1.89.077-2.838l-.175-6.23z" fill="#C9802E"/><path d="M111.696 24.72c-2.211-3.325-15.378 7.418-20.455 11.757-6.601-4.294-14.834-7.22-23.905-8.258l-2.03-3.521a.405.405 0 0 0-.7 0l-1.828 3.169h-.32l-1.847-3.203a.368.368 0 0 0-.292-.18v73.615c23.306-.08 42.614-12.681 46.403-29.217l.543-3.263.009-.089c.092-.942.106-1.89.079-2.837l-.178-6.23c.02-.233.02-.497-.027-.84-1.138-8.444 7.3-26.766 4.548-30.902" fill="#C9802E"/><path d="M108.924 85.633c0-16.95-21.796-10.17-48.68-10.17-26.886 0-48.682-6.78-48.682 10.17 0 7.71 17.657 14.103 40.788 15.305a8.52 8.52 0 0 0 7.893 5.316 8.52 8.52 0 0 0 7.893-5.316c23.131-1.202 40.788-7.595 40.788-15.305" fill="#F1F1F2"/><path d="M72.721 115.97v-2.267c0-2.337-3.064-4.233-6.844-4.233H54.69c-3.78 0-6.843 1.896-6.843 4.233v2.268c0 .2.023.398.068.591a9.258 9.258 0 0 0 4.717 1.294h15.223a9.242 9.242 0 0 0 4.807-1.348 2.54 2.54 0 0 0 .06-.537" fill="#FFE1B2"/><path d="M94.145 38.458s11.16-10.52 12.718-8.053c1.557 2.467-3.22 13.4-2.576 18.438.645 5.039-10.142-10.385-10.142-10.385m-68.123 0s-11.16-10.52-12.718-8.053c-1.557 2.467 3.221 13.4 2.577 18.438-.646 5.039 10.14-10.385 10.14-10.385" fill="#926029"/><path d="M18.887 61.352l-5.985-1.605a19.7 19.7 0 0 0-.053 1.39s.03 1.49.053 2.746a23.17 23.17 0 0 0 .31 3.35l.08.477c.015-.011.033-.013.046-.026l5.713-5.718a.367.367 0 0 0-.164-.614m2.387 8.72l-7.804-2.094c-.046-.012-.089-.004-.132.002l.083.502c.072.427.155.85.266 1.27a28.526 28.526 0 0 0 2.475 6.215l5.277-5.282a.367.367 0 0 0-.165-.613" fill="#404041"/><path d="M107.352 62.693l-.082-2.891-6.146 1.649a.368.368 0 0 0-.164.615l5.712 5.716a.353.353 0 0 0 .217.097l.376-2.26a22.414 22.414 0 0 0 .087-2.926m-8.615 7.477a.368.368 0 0 0-.165.615l5.364 5.367c1.261-2.313 2.207-4.744 2.785-7.27l.124-.74a.35.35 0 0 0-.304-.064l-7.804 2.092zm-24.883 33.096l3.31 1.948v-1.667c0-.816-.115-1.601-.312-2.355l-2.996 1.699a.217.217 0 0 0-.002.375" fill="#333"/><path d="M66.194 22.631l2.733 1.61c.122-1.197.143-2.39.068-3.57l-2.798 1.585a.217.217 0 0 0-.003.375m-4.363-7.406a17.112 17.112 0 0 1 1.148 3.359l2.144-2.11a.218.218 0 0 0-.095-.364l-3.197-.885zm-5.593-6.759c.094.067.18.142.273.21l.022-2.802a.217.217 0 0 0-.323-.19l-2.721 1.543a7.742 7.742 0 0 1 2.75 1.24M62.837 6.8l-1.022 2.625a.218.218 0 0 0 .236.293l2.865-.44A21.616 21.616 0 0 0 62.837 6.8M47.644 1.9l1.346 2.38c.082.146.29.147.375.004l1.707-2.905a13.726 13.726 0 0 0-3.428.523" fill="#404041"/><path d="M73.783 109.386a.217.217 0 0 0-.003.375l2.905 1.712a9.287 9.287 0 0 0 .478-2.934v-1.07l-3.38 1.917z" fill="#333"/><path d="M43.322 107.632v.907c0 1.053.183 2.062.505 3.005l2.802-1.588a.216.216 0 0 0 .004-.375l-3.31-1.949zm.324-6.488a9.301 9.301 0 0 0-.324 2.402v1.72l3.405-1.932a.216.216 0 0 0 .003-.375l-3.084-1.815zm3.2-92.889l-5.828 3.217a3.41 3.41 0 0 0 4.302-1.111 7.847 7.847 0 0 1 1.516-1.619l.01-.487z" fill="#404041"/><path d="M40.5 11.17a3.411 3.411 0 0 0 4.73-.703l.062-3.184-5.523 3.048c.177.32.417.611.73.839" fill="#404041"/><path d="M40.5 11.17c.95.694 2.137.82 3.166.452l.1-5.117-4.314 2.382A2.585 2.585 0 0 0 40.5 11.17" fill="#404041"/><path d="M39.846 7.674a2.594 2.594 0 0 0 .654 3.495c.402.295.847.483 1.304.58l.115-5.924-1.231.679a14.1 14.1 0 0 0-.842 1.17m12.102 56.45a3.851 3.851 0 0 1-3.85 3.853 3.851 3.851 0 0 1-3.85-3.853 3.851 3.851 0 0 1 3.85-3.853 3.852 3.852 0 0 1 3.85 3.853m24.289 0a3.851 3.851 0 0 1-3.849 3.853 3.851 3.851 0 0 1-3.85-3.853 3.852 3.852 0 0 1 3.85-3.853 3.851 3.851 0 0 1 3.85 3.853M54.647 77.115c-.348-.044-34.914-4.331-48.442-.014L6 76.461c13.67-4.362 48.383-.057 48.731-.013l-.084.667zm-48.121 9.33l-.297-.603c12.86-6.363 47.825-7.317 48.176-7.326l.018.671c-.352.01-35.169.959-47.897 7.258m1.844 8.451l-.38-.555c11.823-8.133 46.296-14.062 46.642-14.12l.113.662c-.346.059-34.673 5.964-46.375 14.013" fill="#404041"/><path d="M56.919 115.75c-.695 0-1.26.472-1.447 1.106a1.855 1.855 0 0 0-1.846-1.771c-.998 0-1.795.786-1.848 1.771-.188-.634-.752-1.106-1.447-1.106-.847 0-1.533.687-1.533 1.534 0 .044.02.08.025.123v1.546c0 .347.28.628.627.628h8.379a.61.61 0 0 0 .61-.611v-1.616c0-.025.014-.044.014-.07 0-.847-.687-1.534-1.534-1.534" fill="#C9802E"/><path fill="#404041" d="M60.243 38.68l23.652 3.42H36.592zm0-5.476l19.602 2.835H40.641zm0 10.816l14.305 2.07h-28.61z"/><path d="M72.721 115.97v-2.267c0-2.337-3.064-4.233-6.842-4.233h-5.636v8.386h7.611c1.76 0 3.401-.497 4.805-1.347.038-.177.062-.356.062-.538" fill="#EDC186"/><path d="M72.721 115.97v-2.267c0-2.337-3.064-4.233-6.842-4.233h-5.636v8.386h7.611c1.76 0 3.401-.497 4.805-1.347.038-.177.062-.356.062-.538" fill="#FFE1B2"/><path d="M70.155 115.75c-.695 0-1.259.472-1.447 1.106a1.857 1.857 0 0 0-1.847-1.771c-.996 0-1.793.786-1.846 1.771-.19-.634-.753-1.106-1.447-1.106-.848 0-1.535.687-1.535 1.534 0 .044.022.08.025.123v1.546c0 .347.28.628.628.628h8.378a.61.61 0 0 0 .61-.611v-1.616c.002-.025.014-.044.014-.07 0-.847-.685-1.534-1.533-1.534" fill="#C9802E"/><path d="M60.32 75.462v30.786a8.52 8.52 0 0 0 7.816-5.31c23.13-1.202 40.788-7.595 40.788-15.305 0-16.932-21.753-10.185-48.604-10.171" fill="#E6E7E8"/><path d="M60.277 75.968v8.888s-3.388 6.278-8.338 0" stroke="#404041" stroke-width="2.045"/><g transform="translate(64.588 74.58)"><mask id="d" fill="#fff"><use xlink:href="#c"/></mask><path d="M1.405 2.69l-.084-.667c.35-.043 35.06-4.348 48.73.014l-.204.64C36.32-1.64 1.753 2.646 1.405 2.69" fill="#404041" mask="url(#d)"/></g><path d="M112.27 95.052c-11.703-8.05-46.03-13.954-46.376-14.013l.113-.663c.346.059 34.819 5.99 46.643 14.12l-.38.556zm1.844-8.607c-12.729-6.299-47.546-7.248-47.897-7.258l.017-.67c.352.008 35.316.962 48.177 7.325l-.297.603zm-50.25-11.609l-2.414 4.185a1.304 1.304 0 0 1-2.26 0l-2.415-4.185a1.306 1.306 0 0 1 1.131-1.96h4.828a1.306 1.306 0 0 1 1.13 1.96" fill="#404041"/><path d="M68.508 84.833s-4.098 6.268-8.197 0" stroke="#404041" stroke-width="2.045"/></g></svg>