<svg width="120" height="120" viewBox="0 0 120 120" xmlns="http://www.w3.org/2000/svg" xmlns:xlink="http://www.w3.org/1999/xlink"><defs><path id="a" d="M.425.327h93.022V115.85H.425z"/></defs><g fill="none" fill-rule="evenodd"><path d="M37.368 112.106c1.78-.12 3.454.437 4.818 1.457 4.668-6.287 6.196-13.717 3.123-21.165-1.204-2.915 3.437-4.419 4.635-1.515 3.843 9.311 1.46 18.947-4.643 26.643-.065.083-.136.142-.205.212.093.299.175.603.236.916l-14.977 1.019c.226-4.016 3.178-7.306 7.013-7.567" fill="#FFC931"/><path d="M15.082 118.53c.226-4.015 3.179-7.303 7.013-7.564 1.878-.128 3.641.496 5.043 1.626 4.99-5.563 6.587-12.855 5.37-20.215-.514-3.11 4.357-3.355 4.867-.268 1.454 8.787-.907 17.902-7.153 24.35a2.67 2.67 0 0 1-.346.294c.071.248.133.5.183.76l-14.977 1.018z" fill="#FFC931"/><g transform="matrix(-1 0 0 1 106.104 .4)"><mask id="b" fill="#fff"><use xlink:href="#a"/></mask><path d="M92.214 69.042c.495-6.29-.76-12.71-1.507-19.152-1.2-10.359 1.926-19.491 2.687-29.696C94.27 8.455 84.32-1.786 68.658.704 51.87 3.371 63.142 23.391 53.272 31.39c-11.476 9.302-12.104 16.544-13.5 37.287-.735 10.894-6.017 16.278-16.308 22.356-4.592 2.713-37.02 18.165-16.04 24.296 10.27 2.997 28.555-7.811 38.133-11.057 8.154-2.765 16.932-2.118 24.733-6.11 7.936-4.061 15.159-10.953 19.185-18.957 1.68-3.337 2.47-6.731 2.74-10.164" fill="#2D2D2F" mask="url(#b)"/></g><path d="M109 36.128s-40.79-1.316-67.38-9.322l-.384-5.7C64.297 12.997 109 36.129 109 36.129" fill="#F80"/><path d="M109 36.128S64.297 12.996 41.236 21.107L39.92 1.568S89.777-7.548 109 36.128" fill="#FFC931"/><path d="M28.932 5.55c-1.843.113-3.907 1.296-6.116 3.925-7.965 9.48-7.164 31.225 4.731 28.903C42.41 35.476 38.88 4.938 28.932 5.55" fill="#F4E3C9"/><path d="M26.316 10.294c-6.525.647-8.924 7.458-5.906 12.87 3.901 7 14.814 5.929 16.52-2.625 1.212-6.086-4.019-10.359-9.736-10.291a9.832 9.832 0 0 0-.878.046" fill="#FFC931"/><path d="M21.317 18.867c.223 3.299 3.064 5.79 6.347 5.568 3.28-.224 5.762-3.078 5.54-6.376-.222-3.297-3.064-5.789-6.345-5.566-3.282.223-5.764 3.077-5.542 6.374" fill="#FFF"/><path d="M23.048 18.477c.162 2.403 2.23 4.22 4.623 4.057 2.391-.163 4.2-2.243 4.038-4.646-.162-2.402-2.233-4.218-4.624-4.056-2.393.163-4.2 2.243-4.037 4.645" fill="#2D2D2F"/><path d="M95.521 25.134c.052-.127.453-1.259.5-1.38a58.02 58.02 0 0 1 1.952-4.55C102.198 23.7 105.978 29.26 109 36.127c0 0-6.013-3.111-14.762-6.65.387-1.46.811-2.91 1.283-4.344" fill="#563926"/><path d="M45.56 66.7c-5.454-9.028-10.912-21.166-4.846-30.153 2.809-4.161 9.469-5.256 13.783-3.43 5.496 2.326 9.015 7.047 11.345 12.598 2.648 6.314 4.114 13.12 4.887 19.91.612 5.394 2.257 14.514-.474 19.506a.153.153 0 0 1-.011.022c-6.547 11.882-18.107-8.346-21.264-13.096a145.167 145.167 0 0 1-3.42-5.356" fill="#43434C"/></g></svg>