<svg width="120" height="120" viewBox="0 0 120 120" xmlns="http://www.w3.org/2000/svg" xmlns:xlink="http://www.w3.org/1999/xlink"><defs><path d="M4.644.589L.073 81.903s5.792 4.103 13.019-.41L8.317.45" id="a"/></defs><g fill="none" fill-rule="evenodd"><path d="M93.428 37.531s.046.01.128.02c.077.014.222.026.365.062.151.02.319.079.506.13.183.06.383.127.58.218.19.1.382.214.526.361.143.149.263.305.316.466.127.316.023.571.023.571a.233.233 0 0 1-.304.129l-.009-.004-.024-.011s-.059-.027-.13-.078a1.5 1.5 0 0 1-.24-.21c-.168-.174-.317-.447-.538-.715a1.711 1.711 0 0 0-.375-.347 1.672 1.672 0 0 0-.41-.186 1.252 1.252 0 0 0-.31-.05c-.084-.004-.132 0-.132 0a.18.18 0 1 1 .028-.356m.714 3.799s.046.034.13.086c.078.054.225.142.36.255.152.101.3.252.47.408.161.163.333.345.487.55.142.208.276.434.35.666.068.233.11.461.085.659-.027.399-.245.617-.245.617a.219.219 0 0 1-.34-.036l-.012-.02s-.038-.06-.075-.154a2.513 2.513 0 0 1-.119-.365c-.071-.288-.098-.674-.212-1.08a2.189 2.189 0 0 0-.243-.572 2.115 2.115 0 0 0-.357-.416 1.61 1.61 0 0 0-.315-.22 2.041 2.041 0 0 0-.141-.069.179.179 0 1 1 .177-.309m4.638 1.756s.02.037.062.097c.035.058.113.163.175.278.078.112.14.257.22.41.071.157.152.328.214.513.05.185.094.382.085.567-.011.184-.042.359-.12.49-.137.275-.384.35-.384.35a.244.244 0 0 1-.3-.144l-.012-.027s-.022-.058-.035-.134a1.126 1.126 0 0 1-.023-.284c.005-.21.102-.459.155-.758.027-.148.04-.304.02-.448a1.434 1.434 0 0 0-.113-.377 1.075 1.075 0 0 0-.227-.316.18.18 0 1 1 .282-.217m-.697 10.122s.004.053.019.143c.01.086.038.241.042.404.023.166.011.36.01.572a5.83 5.83 0 0 1-.068.674 2.39 2.39 0 0 1-.233.656c-.115.193-.244.365-.396.47-.29.229-.581.208-.581.208a.225.225 0 0 1-.21-.241l.004-.03.006-.024s.014-.066.051-.153c.036-.088.09-.199.164-.313.144-.229.389-.479.601-.8a2.02 2.02 0 0 0 .249-.512c.051-.176.067-.348.071-.495a1.677 1.677 0 0 0-.079-.488.18.18 0 1 1 .34-.116.153.153 0 0 1 .01.045m-2.094 6.318s-.028.032-.07.091c-.042.054-.11.16-.194.259-.074.112-.185.222-.293.354-.115.125-.239.264-.38.394-.146.12-.303.24-.47.31-.169.066-.334.113-.484.101-.298-.001-.478-.183-.478-.183a.247.247 0 0 1-.004-.343l.011-.013s.155-.165.35-.243c.195-.089.466-.11.763-.183.147-.037.298-.087.422-.16a1.52 1.52 0 0 0 .309-.249 1.128 1.128 0 0 0 .217-.325.18.18 0 1 1 .301.19m-2.517-3.381s-.02.046-.048.128c-.03.074-.077.219-.148.355-.055.15-.156.305-.254.481a5.04 5.04 0 0 1-.372.528c-.15.163-.319.325-.507.43-.188.102-.38.18-.555.188a.84.84 0 0 1-.578-.134.23.23 0 0 1-.041-.323l.011-.013.018-.02s.045-.049.116-.102c.07-.055.167-.119.279-.175.222-.116.534-.191.859-.347.159-.077.318-.173.442-.292a1.71 1.71 0 0 0 .286-.37 1.305 1.305 0 0 0 .152-.436.18.18 0 1 1 .34.102" fill="#507533"/><g transform="translate(55.766 33.864)"><mask id="b" fill="#fff"><use xlink:href="#a"/></mask><use fill="#845F3B" xlink:href="#a"/><g mask="url(#b)" stroke="#CAA364" stroke-width="1.145"><path d="M13.579 78.527c-2.377.602-4.881-1.159-5.806-3.446-.927-2.288-.586-4.905.157-7.259s1.868-4.577 2.524-6.957c1.327-4.823.586-10.188-1.998-14.46-2.585-4.273-6.974-7.393-11.834-8.41"/><path d="M-.605 44.25c3.535 1.28 5.647 5.101 6.1 8.86.453 3.76-.432 7.533-1.187 11.243-.754 3.71-1.38 7.585-.43 11.248.953 3.663 3.896 7.06 7.641 7.34M-.979 75.189c3.446 1.958 5.55 6.083 5.13 10.048m7.602-42.13c-4.33-5.504-7.005-12.315-7.589-19.317-.583-7.003.929-14.168 4.288-20.324m2.878 33.99C5.78 29.29 5.232 17.95 9.963 9.278m.457 21.095c-1.651-3.812-1.748-8.283-.263-12.163"/></g></g><path d="M72.412 44.013c-2.338 3.847-6.63 6.434-11.124 6.703-4.494.27-9.064-1.785-11.845-5.326-4.366.87-9.173-1.46-11.195-5.428-2.022-3.966-1.083-9.225 2.186-12.247-3.906-2.82-5.248-8.658-2.964-12.9 2.283-4.241 7.895-6.337 12.399-4.63.396-5.593 6.043-10.242 11.608-9.557 5.565.685 9.917 6.564 8.945 12.086 5.212-2.427 12.201.429 14.22 5.812 2.02 5.383-1.365 12.132-6.887 13.732 3.523 1.202 5.417 5.78 3.774 9.12-1.644 3.339-6.428 4.63-9.528 2.572" fill="#507533"/><path d="M78.957 27.606c1.935-2.405 5.321-3.536 8.314-2.779 2.992.758 5.433 3.364 5.992 6.4 4.269-1.93 9.723-.795 12.868 2.677 3.145 3.472 3.737 9.012 1.396 13.07 2.192 4.924.224 11.322-4.355 14.163-4.58 2.842-11.186 1.765-14.625-2.384-.564 4.944-5.931 8.764-10.788 7.677-4.856-1.087-8.082-6.831-6.483-11.544-4.443-1.464-7.57-6.193-7.18-10.854.392-4.662 4.264-8.803 8.89-9.505-1.597-1.762-1.619-4.731-.05-6.517 1.57-1.785 4.516-2.145 6.469-.789" fill="#B7E268"/><path d="M89.432 54.32l-.099.821c-.05.56-.188 1.126-.29 1.71l-.176.882-.244.889-.25.904c-.087.303-.208.6-.312.903l-.331.91c-.122.302-.27.597-.405.897-.142.298-.272.602-.425.897l-.495.873c-.312.594-.724 1.136-1.106 1.693-.827 1.07-1.734 2.093-2.771 2.94-.494.454-1.058.808-1.586 1.193-.561.334-1.1.694-1.673.963-1.118.595-2.273.998-3.372 1.32-1.1.333-2.168.503-3.15.636-.982.13-1.89.154-2.689.164a26.11 26.11 0 0 1-2.068-.092 15.42 15.42 0 0 1-1.327-.172c-.306-.051-.488-.092-.478-.09a.71.71 0 1 1 .222-1.404c.01.001.14.015.422.028.28.017.7.02 1.232.021 1.066.004 2.596-.099 4.377-.437.887-.182 1.84-.405 2.809-.744a17.36 17.36 0 0 0 2.927-1.294c.496-.248.95-.58 1.428-.88.446-.348.92-.67 1.34-1.065.886-.736 1.652-1.632 2.359-2.564.318-.495.693-.95.965-1.475l.44-.763c.137-.26.253-.53.38-.793.122-.267.256-.525.367-.794.104-.273.209-.543.311-.813.101-.27.218-.533.304-.806l.137-.453a854.98 854.98 0 0 0-.029-.3c-.027-.365-.089-.86-.17-1.47a20.858 20.858 0 0 0-.146-.976c-.05-.346-.137-.706-.2-1.083-.147-.748-.34-1.54-.564-2.32-.12-.389-.222-.783-.353-1.161-.117-.383-.257-.751-.385-1.11-.145-.353-.266-.702-.4-1.025-.131-.325-.258-.63-.387-.908a31.82 31.82 0 0 0-.625-1.342l-.247-.506-.005-.01a.291.291 0 0 1 .506-.287l.316.483c.194.311.479.755.765 1.317.294.558.618 1.222.91 1.955.289.735.567 1.531.8 2.341.215.816.394 1.64.528 2.418.114.726.185 1.411.225 2.01v-.003c.118-.535.271-1.05.34-1.572l.25-1.51c.073-.49.114-.97.169-1.427.12-.915.157-1.766.21-2.518.023-.377.054-.73.066-1.057l.012-.901c.017-1.089.042-1.714.042-1.714l.002-.04a.776.776 0 0 1 1.547-.047s.066.637.153 1.759c.02.28.044.592.07.93.016.34.017.707.028 1.1.019.787.053 1.677-.02 2.65-.021.37-.034.753-.058 1.146.204-.235.408-.498.62-.777.236-.295.447-.634.692-.964.463-.68.91-1.436 1.309-2.217.186-.396.396-.782.56-1.181.18-.392.324-.792.473-1.176.125-.39.27-.762.376-1.124.111-.36.212-.703.286-1.025.16-.639.278-1.178.339-1.56l.107-.598.003-.015a.29.29 0 0 1 .576.069l-.037.627c-.011.201-.039.442-.074.72a8.98 8.98 0 0 1-.144.926c-.058.34-.144.702-.24 1.085-.086.386-.216.782-.348 1.192a20.711 20.711 0 0 1-1.05 2.486c-.436.81-.922 1.592-1.422 2.293-.258.344-.51.676-.772.971-.256.3-.502.58-.745.824a9.114 9.114 0 0 1-.632.617z" fill="#845F3B"/><path d="M52.17 74.256c-1.4 3.376-5.332 5.49-8.92 4.798-3.59-.693-6.452-4.12-6.494-7.775-3.329 2.927-9.128 2.31-11.767-1.251-2.638-3.563-1.539-9.289 2.231-11.621-5.136-1.152-7.943-8.06-5.066-12.468 2.876-4.41 10.328-4.624 13.453-.387 2.446-4.042 7.82-6.038 12.31-4.573 4.492 1.464 7.655 6.244 7.249 10.95 5.256 1.175 9.108 6.776 8.325 12.104-.783 5.329-6.084 9.584-11.456 9.197" fill="#B7E268"/><path d="M40.606 70.087a34.664 34.664 0 0 1-.173-2.458c-.044-.864-.025-1.657-.01-2.357a42.49 42.49 0 0 1 .092-1.815c.034-.502.087-.897.12-1.168l.056-.419a.71.71 0 0 1 1.416.095v.415l.026 1.117c.019.964.117 2.344.3 3.983.089.82.226 1.7.376 2.629.056.308.115.622.179.94a16.26 16.26 0 0 1 .343-1.912 10.6 10.6 0 0 1 .29-.948c.105-.297.206-.577.318-.828a6.6 6.6 0 0 1 .319-.683c.1-.203.19-.374.27-.506l.253-.421a.268.268 0 0 1 .476.239l-.186.454c-.128.293-.268.682-.431 1.18-.088.246-.165.517-.242.804-.085.285-.135.596-.218.908a15.523 15.523 0 0 0-.29 2.005c-.015.344-.053.687-.05 1.027-.016.339.003.673.01.997.03.321.036.635.07.93.022.223.044.438.074.64.113.343.233.686.357 1.03.37.986.789 1.971 1.301 2.896.24.472.532.908.794 1.363.31.417.576.87.912 1.255l.486.59c.163.194.347.365.515.55.333.375.71.693 1.075 1.01l.272.24.29.208.574.414c.378.273.787.48 1.165.718.39.215.795.379 1.173.566.38.184.777.295 1.144.44.365.153.739.23 1.088.327.352.088.677.21 1 .256.644.104 1.201.242 1.673.276.942.089 1.486.157 1.486.157l.066.008a.776.776 0 0 1-.065 1.543s-.581.023-1.608.033c-.513.01-1.137-.074-1.857-.121-.36-.018-.737-.114-1.14-.173-.401-.075-.826-.14-1.255-.28-.43-.134-.892-.234-1.346-.413-.45-.19-.928-.362-1.396-.59-.457-.251-.947-.476-1.409-.773l-.692-.466-.35-.237-.329-.271c-.443-.36-.895-.726-1.299-1.152-.204-.21-.427-.407-.617-.633l-.571-.683c-.394-.45-.706-.96-1.064-1.443-.301-.515-.647-1.011-.907-1.548-.564-1.055-1.013-2.154-1.406-3.246a28.263 28.263 0 0 1-.9-3.265 23.86 23.86 0 0 1-.372-2.064 6.968 6.968 0 0 1-.333-.355 12.866 12.866 0 0 1-.735-.862 13.854 13.854 0 0 1-.747-1.025c-.228-.375-.477-.757-.687-1.169-.23-.402-.417-.832-.619-1.257-.172-.437-.348-.873-.48-1.316-.152-.437-.255-.88-.367-1.306-.09-.431-.183-.847-.224-1.249a13.14 13.14 0 0 1-.112-1.129 7.984 7.984 0 0 1-.023-.958 8.17 8.17 0 0 1 .028-.737l.055-.64a.29.29 0 0 1 .58.016v.019l.018.617c-.001.195.016.432.04.704.018.27.044.576.088.908.031.333.093.69.163 1.065.063.377.172.766.257 1.173.112.401.216.82.366 1.23.128.419.312.824.468 1.24.182.404.35.816.56 1.201.19.394.418.76.626 1.121.233.344.431.699.661 1.004l.24.336z" fill="#845F3B"/><path d="M49.032 74.84s-.023.04-.057.114c-.034.066-.093.207-.174.33-.067.139-.18.276-.294.435a4.28 4.28 0 0 1-.42.468c-.322.299-.78.477-1.127.42a.78.78 0 0 1-.396-.156.576.576 0 0 1-.126-.123.27.27 0 0 1 .049-.362l.03-.025s.052-.043.126-.085c.075-.043.17-.093.277-.127.21-.07.49-.081.815-.154.157-.04.318-.1.448-.19.131-.089.23-.2.307-.3a.99.99 0 0 0 .137-.267c.027-.077.037-.123.037-.123a.2.2 0 1 1 .368.144zm-.706-3.422s-.014.035-.03.1c-.019.055-.045.183-.09.293-.03.125-.1.253-.16.404-.07.145-.146.307-.247.463-.2.31-.54.549-.838.556-.298.027-.48-.167-.48-.167a.292.292 0 0 1-.038-.354l.025-.042s.032-.052.08-.108a.923.923 0 0 1 .18-.175c.14-.103.349-.143.6-.235.12-.048.242-.114.334-.2.092-.086.153-.189.2-.277a.759.759 0 0 0 .067-.228c.009-.065.008-.104.008-.104 0-.11.09-.202.2-.203a.202.202 0 0 1 .189.277zm9.63-15.18s.054.04.154.104c.09.06.267.175.418.32.086.067.169.15.255.24s.165.195.256.298c.165.218.332.465.47.738.126.275.22.575.244.868.013.292 0 .574-.099.795a1.182 1.182 0 0 1-.492.623.234.234 0 0 1-.338-.158l-.007-.035s-.017-.08-.02-.195a4.701 4.701 0 0 1 .002-.435c.02-.335.079-.77.033-1.258a2.188 2.188 0 0 0-.187-.694 2.006 2.006 0 0 0-.368-.517 1.479 1.479 0 0 0-.356-.268c-.103-.056-.164-.084-.164-.084a.198.198 0 0 1-.102-.262.198.198 0 0 1 .301-.08zm1.293 8.471s.007.085.028.232c.014.139.046.392.027.653.004.135-.011.28-.031.434-.016.155-.057.312-.086.48-.082.33-.195.68-.354 1.02-.09.16-.174.333-.289.48-.102.157-.233.289-.356.42-.265.239-.541.445-.822.534-.27.108-.52.13-.691.117-.172-.01-.268-.038-.268-.038a.222.222 0 0 1-.096-.368l.022-.022s.069-.068.184-.15c.058-.041.127-.09.201-.15.08-.048.162-.11.253-.174l.292-.202c.11-.06.208-.154.323-.231.215-.175.444-.374.656-.603.202-.235.385-.5.502-.775.05-.139.107-.274.13-.41a2.378 2.378 0 0 0 .063-.702.964.964 0 0 0-.029-.25c-.028-.146-.05-.228-.05-.228a.199.199 0 1 1 .39-.067zm-3.246-3.074s.012.054.043.146c.023.083.082.262.096.437.04.18.029.394.024.626-.02.23-.054.483-.127.734-.08.246-.2.49-.368.681-.17.185-.358.347-.562.409a.904.904 0 0 1-.5.057.7.7 0 0 1-.193-.055.247.247 0 0 1-.107-.333c.002-.006.006-.012.01-.019l.024-.037s.038-.062.102-.133c.062-.072.143-.162.238-.25.188-.17.466-.355.73-.645.124-.146.236-.316.295-.493.06-.177.074-.355.067-.503a1.025 1.025 0 0 0-.078-.345c-.038-.089-.064-.138-.064-.138a.2.2 0 0 1 .352-.19.233.233 0 0 1 .018.05zm-10.501-18.24s.045-.003.123-.018c.071-.01.214-.043.356-.05.146-.027.318-.019.507-.026.187.005.394.01.605.04.42.065.83.296 1.002.587.189.283.116.56.116.56a.274.274 0 0 1-.305.203l-.038-.006s-.065-.01-.145-.038a1.236 1.236 0 0 1-.274-.123c-.187-.114-.369-.32-.619-.527a1.422 1.422 0 0 0-.413-.236 1.383 1.383 0 0 0-.413-.065.987.987 0 0 0-.29.043c-.075.022-.117.04-.117.04a.201.201 0 1 1-.095-.384zm2.934 3.853s.045.003.12-.002c.067 0 .222-.012.36.01.149 0 .313.048.496.089.179.053.375.117.566.214.185.1.364.236.49.402.118.168.217.346.225.522a.695.695 0 0 1-.159.558.272.272 0 0 1-.355.024l-.04-.03s-.053-.04-.107-.094a1.476 1.476 0 0 1-.18-.203c-.11-.153-.179-.38-.33-.641a1.095 1.095 0 0 0-.297-.326 1.018 1.018 0 0 0-.357-.15.752.752 0 0 0-.269-.004c-.075.012-.117.025-.117.025a.2.2 0 1 1-.046-.394zm-5.702-1.83c.002.005-.059-.047-.146-.094a1.218 1.218 0 0 0-.4-.137 1.426 1.426 0 0 0-.599.048c-.21.063-.404.199-.541.359-.085.095-.12.165-.175.254-.046.09-.09.176-.126.263-.074.173-.107.342-.162.486-.042.145-.089.277-.125.38-.034.102-.065.174-.065.174l-.007.016a.242.242 0 0 1-.372.096s-.071-.056-.146-.182a1.106 1.106 0 0 1-.159-.576c-.011-.252.074-.54.226-.81.078-.134.177-.263.293-.377a1.85 1.85 0 0 1 .396-.29c.29-.156.6-.225.878-.251a2.462 2.462 0 0 1 1.26.217c.121.058.168.085.172.085l.017.009a.2.2 0 1 1-.22.33zm-16.52.094s.045-.03.118-.089c.072-.05.2-.158.346-.242.14-.106.324-.19.52-.292.2-.092.42-.19.657-.263.472-.143 1.012-.114 1.347.084a.935.935 0 0 1 .44.483.255.255 0 0 1-.168.32l-.016.005-.031.006s-.07.018-.166.022a1.943 1.943 0 0 1-.359-.01c-.268-.033-.594-.145-.98-.207a1.837 1.837 0 0 0-.576 0 1.712 1.712 0 0 0-.48.17 1.327 1.327 0 0 0-.289.206c-.068.064-.104.105-.104.105a.2.2 0 1 1-.26-.298zm-1.657 3.302s-.034.038-.085.11c-.06.077-.097.159-.148.294-.04.132-.073.293-.068.465.006.174.058.354.125.518.147.332.327.584.42.807a1.784 1.784 0 0 1 .124.471l.002.038c.01.143-.1.266-.242.275h-.002s-.072.004-.185-.024a.855.855 0 0 1-.398-.23c-.285-.255-.45-.763-.418-1.238.017-.24.064-.467.113-.673.061-.203.106-.392.184-.542.055-.15.142-.292.18-.364.045-.077.067-.123.067-.123a.2.2 0 0 1 .363.167.244.244 0 0 1-.032.05zm3.973.589s-.034.04-.086.116c-.059.08-.099.166-.15.306-.04.137-.075.304-.07.482a1.6 1.6 0 0 0 .12.54c.143.348.323.619.416.855a1.9 1.9 0 0 1 .117.49l.002.036a.257.257 0 0 1-.248.266h-.01s-.074-.001-.186-.036a.888.888 0 0 1-.394-.25c-.279-.269-.435-.787-.398-1.272a4.57 4.57 0 0 1 .119-.686c.062-.208.108-.401.187-.555.055-.154.141-.3.179-.375.045-.08.067-.128.067-.128a.2.2 0 1 1 .335.21zm19.094 6.457l.132-.055.169-.05a1.753 1.753 0 0 1 .952.06c.398.14.77.418.959.831l.059.144.05.174c.024.11.037.22.04.333.004.223-.037.446-.117.655-.154.416-.465.812-.932 1.009l-.2-.706c.463-.129.956-.019 1.337.235.19.131.36.298.49.5.063.103.116.212.158.328.04.131.066.212.083.395l.003.132a3.5 3.5 0 0 1-.02.214 1.858 1.858 0 0 1-.103.35c-.1.217-.236.411-.41.559a1.523 1.523 0 0 1-.589.325c-.11.025-.22.043-.332.045-.112 0-.221-.018-.325-.05a.204.204 0 0 1-.01-.385l.027-.01a1.33 1.33 0 0 0 .636-.49 1.112 1.112 0 0 0 .196-.532l-.005-.132c-.002.008-.014-.083-.028-.12a.933.933 0 0 0-.29-.417c-.184-.161-.43-.258-.658-.23l-.083.01a.364.364 0 0 1-.405-.317.365.365 0 0 1 .287-.4c.259-.054.52-.254.67-.534.073-.14.123-.293.14-.452a1.457 1.457 0 0 0 0-.237l-.015-.104-.039-.125a1.174 1.174 0 0 0-.696-.653 1.295 1.295 0 0 0-.494-.078 1.455 1.455 0 0 0-.243.042l-.103.036-.13.061a.198.198 0 1 1-.17-.356l.01-.005zm-11.803-1.27l-.058-.138-.05-.181a1.65 1.65 0 0 1-.026-.344 1.65 1.65 0 0 1 .16-.65c.097-.202.232-.386.401-.54.17-.15.383-.266.616-.316l.162-.024.191-.003a1.579 1.579 0 0 1 .963.385c.35.3.628.76.601 1.297a.34.34 0 0 1-.675.04l-.007-.042c-.08-.476.067-.96.338-1.342a1.83 1.83 0 0 1 .845-.663 1.71 1.71 0 0 1 .392-.098l.14-.011.214.003c.126.011.249.031.367.067a1.9 1.9 0 0 1 .64.337c.37.299.627.756.637 1.237l.002.105a.294.294 0 0 1-.484.228 5.123 5.123 0 0 1-.415-.384.206.206 0 0 1 .01-.292.211.211 0 0 1 .187-.051c.187.042.364.103.54.163l-.481.334a1.26 1.26 0 0 0-.221-.354 1.465 1.465 0 0 0-.312-.266 1.254 1.254 0 0 0-.361-.162c-.063-.015-.124-.03-.186-.036a.381.381 0 0 1-.066-.006l-.14.01c-.01.003-.104.02-.153.035a1.2 1.2 0 0 0-.178.074 1.367 1.367 0 0 0-.32.248c-.193.204-.311.48-.312.754L38.099 54a.815.815 0 0 0-.025-.43 1.045 1.045 0 0 0-.249-.408 1.186 1.186 0 0 0-.405-.28 1.25 1.25 0 0 0-.236-.064l-.107-.007-.135.012c-.318.05-.618.29-.765.609-.075.158-.122.33-.123.502.002.086.012.17.031.251l.033.107.064.134a.198.198 0 0 1-.357.17l-.004-.008zm-9.04 8.19s-.035.042-.088.121c-.06.084-.1.174-.151.322-.04.143-.071.317-.062.503.01.187.068.38.143.558.163.356.364.628.48.864.058.12.1.236.128.328.03.09.04.163.04.163l.005.037a.252.252 0 0 1-.215.284l-.02.001s-.075.005-.195-.024a.928.928 0 0 1-.425-.234c-.16-.126-.273-.334-.369-.558a2.064 2.064 0 0 1-.125-.74c.007-.255.047-.5.09-.72.057-.22.099-.424.177-.586.055-.162.142-.315.18-.394.048-.083.07-.133.07-.133a.2.2 0 1 1 .337.207zm6.559 7.026s-.059.034-.156.102c-.092.058-.272.178-.469.256a2.155 2.155 0 0 1-.328.133c-.12.043-.25.07-.384.107-.27.057-.569.1-.879.103-.152-.01-.31-.01-.46-.046-.154-.022-.297-.076-.437-.126-.27-.122-.52-.267-.672-.46a1.17 1.17 0 0 1-.285-.513c-.036-.141-.035-.227-.035-.227a.232.232 0 0 1 .3-.218l.037.01s.08.026.18.078a6.549 6.549 0 0 1 .61.347c.074.06.169.1.256.16.186.101.392.21.619.298.227.08.474.135.709.133.233-.005.45-.054.626-.12.18-.073.29-.134.389-.216.094-.073.143-.119.143-.119a.199.199 0 1 1 .236.318zm-3.76-5.129s.01.05.033.133c.023.09.062.173.133.295.075.113.173.24.306.346.132.108.299.188.463.246.34.113.644.157.868.249a1.534 1.534 0 0 1 .414.251l.026.024c.104.1.11.264.012.37 0 0-.047.053-.145.11a.841.841 0 0 1-.428.115c-.366.022-.827-.2-1.145-.535a4.811 4.811 0 0 1-.41-.518c-.11-.175-.22-.327-.283-.478-.078-.134-.132-.284-.165-.356-.031-.081-.054-.125-.054-.125a.2.2 0 0 1 .086-.27.2.2 0 0 1 .29.143z" fill="#507533"/><path d="M75.077 14.312s.05 0 .138-.007c.081-.002.241-.02.398-.007.165-.01.353.024.56.046.204.034.43.075.653.145.446.14.853.46.996.802a.867.867 0 0 1 .055.62.262.262 0 0 1-.338.152l-.032-.012s-.066-.025-.143-.072a1.678 1.678 0 0 1-.269-.195c-.185-.165-.363-.423-.618-.681a1.619 1.619 0 0 0-.432-.312 1.568 1.568 0 0 0-.454-.125 1.17 1.17 0 0 0-.329.009c-.086.015-.135.029-.135.029a.2.2 0 1 1-.05-.392zm5.224 3.446s.047.027.132.065c.077.04.231.107.37.198.157.078.313.206.491.335.17.137.353.293.522.474.332.363.537.865.496 1.253a.92.92 0 0 1-.258.597.256.256 0 0 1-.361-.022l-.01-.011-.02-.027s-.044-.056-.089-.14a1.975 1.975 0 0 1-.139-.326c-.08-.251-.116-.587-.224-.959a1.777 1.777 0 0 0-.247-.513 1.71 1.71 0 0 0-.36-.35 1.29 1.29 0 0 0-.31-.163c-.088-.031-.141-.045-.141-.045a.199.199 0 0 1-.145-.241.198.198 0 0 1 .293-.125zm-5.248.864s.04.019.116.043c.067.027.207.067.334.13.141.046.286.136.455.22.161.094.34.197.51.326.338.255.587.652.6.988a.755.755 0 0 1-.164.548.275.275 0 0 1-.365.033l-.03-.023s-.054-.04-.111-.102a1.274 1.274 0 0 1-.183-.238c-.11-.19-.17-.457-.292-.757a1.434 1.434 0 0 0-.248-.406 1.402 1.402 0 0 0-.33-.256 1.029 1.029 0 0 0-.274-.102.944.944 0 0 0-.123-.022.201.201 0 0 1 .041-.399.212.212 0 0 1 .064.017zM59.338 3.628s.043-.036.112-.107c.064-.06.199-.195.349-.29.145-.12.343-.21.555-.313.217-.09.46-.174.72-.225.26-.04.536-.045.785.016.246.069.48.162.63.317a.933.933 0 0 1 .325.622.245.245 0 0 1-.242.248l-.026-.001-.044-.004s-.074-.007-.166-.033a3.172 3.172 0 0 1-.335-.101c-.244-.093-.542-.257-.929-.358a1.594 1.594 0 0 0-.583-.035c-.188.03-.356.1-.486.175a1.033 1.033 0 0 0-.276.232c-.063.076-.095.123-.095.123a.2.2 0 1 1-.294-.266zm-2.06 3.268s-.049-.012-.134-.023a.78.78 0 0 0-.303.02 1.107 1.107 0 0 0-.393.193c-.13.1-.233.243-.311.389-.153.305-.208.576-.295.767a2.266 2.266 0 0 1-.144.26c-.043.072-.088.126-.088.126l-.032.04a.256.256 0 0 1-.355.04s-.057-.044-.122-.143a.782.782 0 0 1-.129-.447c-.017-.197.065-.41.171-.615.115-.202.292-.377.482-.516.197-.133.405-.231.6-.31.199-.067.378-.135.546-.146.153-.034.33-.029.403-.03.087.004.136 0 .136 0a.2.2 0 1 1-.033.394zm4.637.094s.047-.003.125-.016c.07-.008.225-.037.37-.033.153-.018.328.008.521.024.19.028.4.064.61.133.417.136.792.465.891.808a.744.744 0 0 1-.034.592.27.27 0 0 1-.346.102l-.042-.02s-.06-.03-.127-.077a1.445 1.445 0 0 1-.226-.182c-.146-.146-.271-.376-.48-.618a1.225 1.225 0 0 0-.37-.29 1.176 1.176 0 0 0-.4-.103.836.836 0 0 0-.286.028c-.077.021-.12.038-.12.038a.2.2 0 1 1-.086-.386zM45.53 13.623s-.056-.011-.154-.023a1.751 1.751 0 0 0-.381-.004 2.28 2.28 0 0 0-.528.126c-.187.07-.368.184-.535.308-.332.256-.6.524-.849.687-.124.082-.246.14-.344.178-.094.04-.167.053-.167.053l-.023.004a.254.254 0 0 1-.301-.23s-.024-.315.214-.628c.223-.321.69-.594 1.181-.709.246-.056.493-.087.717-.116.226-.017.433-.049.613-.041.173-.012.34 0 .434 0 .098.004.155.001.155.001a.199.199 0 1 1 .02.398.2.2 0 0 1-.052-.004zm-5.312 5.166s-.043.04-.112.117c-.077.08-.134.171-.209.321a1.64 1.64 0 0 0-.136.532c-.015.202.022.417.079.616.13.403.319.72.432.98.055.132.097.256.125.355.03.096.04.172.04.172l.005.038a.243.243 0 0 1-.212.271c-.012.002-.025.002-.037.002 0 0-.079-.003-.203-.043a1 1 0 0 1-.436-.287c-.16-.15-.265-.382-.35-.63a2.223 2.223 0 0 1-.068-.806c.031-.272.097-.53.169-.762.085-.229.156-.442.263-.605.08-.166.198-.318.252-.394.064-.082.096-.132.096-.132a.2.2 0 1 1 .302.255zm4.972-1.713s-.044.023-.117.072c-.08.049-.15.112-.247.216a1.643 1.643 0 0 0-.255.394c-.07.157-.108.34-.126.519-.03.36-.007.676-.052.923a1.48 1.48 0 0 1-.097.32.837.837 0 0 1-.072.144l-.016.026a.264.264 0 0 1-.364.08s-.253-.16-.328-.515c-.094-.349.02-.838.267-1.225.125-.194.267-.367.397-.524.14-.15.255-.298.381-.4.107-.112.232-.206.292-.26.068-.054.104-.09.104-.09a.2.2 0 1 1 .233.32zm-1.78 13.388s-.033.036-.08.104c-.054.07-.094.15-.146.275a1.55 1.55 0 0 0-.092.435c-.01.163.022.339.065.502.097.33.221.602.256.836a1.348 1.348 0 0 1-.016.473l-.008.031a.271.271 0 0 1-.316.195s-.284-.059-.468-.352c-.198-.283-.252-.759-.153-1.185.05-.215.121-.416.186-.6.075-.18.13-.35.207-.483.057-.135.136-.26.17-.33.042-.071.062-.115.062-.115a.2.2 0 1 1 .332.214zm-2.328 4.281s-.012.052-.025.144a1.673 1.673 0 0 0-.01.357c.016.148.04.323.103.498.06.177.162.351.273.512.23.322.465.587.597.834.066.123.108.245.134.341.026.094.03.166.03.166l.003.024a.26.26 0 0 1-.243.278h-.014s-.302.005-.58-.238c-.285-.228-.508-.683-.585-1.15-.039-.235-.054-.466-.071-.678-.006-.213-.029-.406-.016-.574-.007-.163.007-.319.007-.407.006-.092.003-.145.003-.145a.2.2 0 1 1 .394.038zm19.197 7.52s-.052.012-.14.038c-.084.021-.235.072-.396.101-.162.05-.358.068-.57.105a6.537 6.537 0 0 1-.684.055c-.477.005-.97-.151-1.238-.41a.924.924 0 0 1-.31-.552.26.26 0 0 1 .235-.282l.012-.001.027-.001s.072-.003.168.011c.097.014.22.04.348.088.255.095.545.286.895.455.174.079.362.147.545.172.183.026.356.014.503-.002.15-.027.252-.051.341-.091.086-.034.134-.059.134-.059a.2.2 0 1 1 .13.373zm-.039 3.244s-.067.005-.185.023c-.113.012-.307.044-.515.051-.214.028-.462.017-.733.018a8.285 8.285 0 0 1-.857-.068c-.589-.09-1.164-.354-1.476-.691-.326-.326-.37-.676-.37-.676a.24.24 0 0 1 .275-.267l.02.003s.082.014.194.056c.116.04.266.105.427.194.32.178.7.461 1.147.71.224.117.463.221.699.278.236.056.464.073.658.075.198-.007.344-.02.464-.05.116-.025.182-.045.182-.045a.199.199 0 1 1 .07.39zM62.077 17.5l.142-.119.178-.122a2.314 2.314 0 0 1 1.16-.316c.532 0 1.087.167 1.497.55l.138.141.138.171c.08.114.15.234.21.36.116.252.184.525.205.803a2.53 2.53 0 0 1-.079.841 2.13 2.13 0 0 1-.4.78l-.338-.602a2.34 2.34 0 0 1 1.635.235c.245.138.47.316.66.532.092.11.175.23.25.355a2.4 2.4 0 0 1 .186.425l.045.169.038.24c.013.145.013.29.003.433a2.28 2.28 0 0 1-.243.808 2.14 2.14 0 0 1-.512.645 2.29 2.29 0 0 1-.34.227 1.727 1.727 0 0 1-.379.139.203.203 0 0 1-.179-.35l.01-.009c.322-.28.529-.62.645-.98a1.897 1.897 0 0 0 .077-.807.947.947 0 0 1-.02-.104l-.045-.168c-.014-.036-.057-.147-.094-.214a1.635 1.635 0 0 0-.55-.585 1.56 1.56 0 0 0-1.05-.275l-.056.007a.353.353 0 0 1-.282-.61c.284-.265.464-.68.472-1.114a1.815 1.815 0 0 0-.101-.639 2.042 2.042 0 0 0-.137-.295l-.083-.126-.115-.132a1.709 1.709 0 0 0-1.206-.484c-.226 0-.452.038-.662.119a2.105 2.105 0 0 0-.296.153l-.125.092-.137.124a.198.198 0 1 1-.26-.298zm4.345 13.884a2.128 2.128 0 0 1-.108.493 2.398 2.398 0 0 1-.934 1.155c-.14.09-.288.17-.445.233a2.696 2.696 0 0 1-.484.134 3.18 3.18 0 0 1-.993-.002 3.516 3.516 0 0 1-1.378-.538 4.91 4.91 0 0 1-.409-.295c-.517-.419-.931-.943-1.265-1.5l.768-.197a1.82 1.82 0 0 1-.167.827 2.077 2.077 0 0 1-1.624 1.176c-.158.01-.264.013-.466-.017l-.16-.035a3.797 3.797 0 0 1-.233-.078 2.018 2.018 0 0 1-.366-.216 1.881 1.881 0 0 1-.533-.613 1.835 1.835 0 0 1-.226-.758 1.762 1.762 0 0 1 .022-.392c.025-.13.069-.253.124-.367a.2.2 0 0 1 .381.086v.022c0 .097.01.189.024.277.02.09.04.175.071.258.036.081.07.16.114.236a3.1 3.1 0 0 0 .148.21c.109.13.238.237.371.318a1.449 1.449 0 0 0 .285.119l.16.03c-.02-.01.056-.001.08 0l.106-.008c.073-.009.146-.024.219-.046.146-.047.285-.129.41-.23.249-.204.42-.5.442-.797l.004-.051a.403.403 0 0 1 .765-.145c.252.526.563 1.022.961 1.434.1.102.208.2.31.286a2.988 2.988 0 0 0 1.148.564c.277.07.566.081.847.046.129-.018.284-.053.41-.096a2.05 2.05 0 0 0 .38-.184c.238-.153.445-.355.598-.59a1.83 1.83 0 0 0 .177-.378c.04-.14.061-.245.072-.412a.197.197 0 1 1 .395.025v.004l-.001.012zM53.185 20.931l-.167-.023-.138-.006c-.1.003-.199.014-.298.033a1.701 1.701 0 0 0-.556.24 1.566 1.566 0 0 0-.673.956l-.022.155-.002.134a1.9 1.9 0 0 0 .036.29c.042.19.12.371.223.534.106.161.243.3.393.407.15.109.315.181.483.22a.357.357 0 0 1 .149.623l-.043.036c-.25.21-.43.496-.54.799a2.016 2.016 0 0 0-.127.699c0 .07.01.171.016.214l.022.147.022.097a2.622 2.622 0 0 0 .285.662c.176.28.406.535.7.766l.01.007a.205.205 0 0 1-.148.364c-.45-.048-.879-.288-1.199-.629a2.356 2.356 0 0 1-.404-.58 2.668 2.668 0 0 1-.13-.336l-.05-.192-.028-.146a2.682 2.682 0 0 1 .006-.74 2.579 2.579 0 0 1 1.124-1.737l.106.659c-.525-.2-.91-.61-1.133-1.069a2.18 2.18 0 0 1-.219-.728 2.223 2.223 0 0 1-.007-.382l.026-.2.041-.175c.066-.246.184-.474.337-.669.153-.197.341-.359.545-.494a2.153 2.153 0 0 1 1.042-.345c.138-.005.26.003.365.017h.007a.197.197 0 0 1 .17.222.197.197 0 0 1-.222.17h-.002z" fill="#B7E268"/><path d="M85.683 37.439c.069-.081.154-.167.259-.256.097-.077.2-.145.307-.207.212-.123.444-.209.684-.255a2.31 2.31 0 0 1 .733-.032c.247.03.487.109.715.223l.155.09.165.118c.098.08.19.168.276.264.166.193.3.414.403.65.2.473.255 1.036.072 1.568l-.54-.521a1.649 1.649 0 0 1 1.267-.08 1.748 1.748 0 0 1 .802.548c.075.098.12.164.192.31l.047.113.059.184c.025.109.034.219.038.328.005.217-.038.43-.116.622-.154.384-.467.712-.855.817a.204.204 0 0 1-.213-.324l.015-.019c.178-.22.268-.46.297-.697.013-.118.01-.234-.008-.34-.009-.054-.026-.103-.04-.152a.24.24 0 0 1-.016-.048l-.052-.11c-.003.003-.048-.067-.073-.097a1.024 1.024 0 0 0-.106-.11 1.06 1.06 0 0 0-.276-.166.972.972 0 0 0-.634-.039l-.079.024a.388.388 0 0 1-.461-.546c.153-.303.193-.693.102-1.066a1.534 1.534 0 0 0-.235-.527 1.913 1.913 0 0 0-.185-.224l-.098-.092-.127-.093c-.326-.216-.754-.282-1.155-.215a1.826 1.826 0 0 0-.572.21 1.916 1.916 0 0 0-.243.18 1.92 1.92 0 0 0-.206.227.198.198 0 1 1-.307-.25l.009-.01zm10.044 20.964s-.055.004-.15.02c-.086.01-.255.042-.425.043-.176.023-.38.003-.604-.005a5.068 5.068 0 0 1-.708-.11c-.486-.12-.942-.429-1.126-.779a.95.95 0 0 1-.123-.65.254.254 0 0 1 .31-.183l.018.006.031.01s.07.024.153.072c.087.047.194.114.3.199.21.17.433.435.737.687.152.12.323.23.5.292.177.063.354.085.504.092.156-.002.259-.01.357-.04.092-.022.144-.04.144-.04a.2.2 0 1 1 .082.386zM78.742 63.88s-.035 0-.098.01c-.056.004-.174.029-.287.032-.12.023-.257.016-.41.026-.152 0-.323.005-.498-.013-.349-.034-.696-.212-.834-.456-.153-.235-.072-.48-.072-.48a.304.304 0 0 1 .289-.21l.047.001s.06 0 .132.012a.84.84 0 0 1 .237.067c.153.07.279.231.462.41.092.085.198.166.31.21.111.046.224.057.32.065a.7.7 0 0 0 .225-.03c.06-.016.094-.03.094-.03a.201.201 0 1 1 .083.386zm-4.303-4.304s-.032-.022-.091-.05c-.052-.032-.165-.08-.265-.144-.115-.05-.228-.139-.365-.22-.13-.09-.278-.186-.418-.303-.278-.232-.474-.582-.46-.869-.003-.288.196-.459.196-.459a.3.3 0 0 1 .361-.021l.035.024s.051.035.105.087c.057.051.12.12.166.198.093.156.116.376.178.64.034.127.082.26.156.363.071.107.163.184.242.248a.859.859 0 0 0 .313.141.201.201 0 1 1-.153.365zm4.738.566s-.037-.005-.102-.006c-.058-.005-.18.001-.296-.013-.124.004-.262-.026-.418-.039-.154-.024-.327-.046-.5-.09-.347-.086-.671-.314-.779-.576-.125-.256-.016-.494-.016-.494a.3.3 0 0 1 .315-.172l.044.006s.06.009.13.032a.852.852 0 0 1 .232.104c.15.096.26.28.425.488.083.1.18.197.29.258.107.064.22.094.318.117a.818.818 0 0 0 .336-.01.202.202 0 1 1 .02.395zm-8.808-21.01s-.058.004-.156.02c-.11.015-.201.048-.346.12a1.443 1.443 0 0 0-.405.333c-.124.149-.212.34-.273.527-.113.39-.125.736-.169.997a3.503 3.503 0 0 1-.083.347.976.976 0 0 1-.056.16l-.018.04a.244.244 0 0 1-.324.12l-.026-.014s-.066-.042-.15-.138a.941.941 0 0 1-.22-.467c-.057-.21-.019-.461.048-.71.075-.25.22-.488.39-.693.178-.2.376-.37.567-.512.199-.132.378-.258.558-.322.16-.082.347-.129.433-.154.097-.023.152-.042.152-.042a.2.2 0 1 1 .078.388zm-3.232 5.783s-.023.046-.057.13a1.21 1.21 0 0 0-.08.328c-.01.142-.01.31.03.482.039.173.123.346.22.501.203.312.425.547.554.766a1.719 1.719 0 0 1 .188.464l.006.034a.259.259 0 0 1-.217.3s-.071.012-.187-.005a.897.897 0 0 1-.42-.18c-.31-.215-.547-.687-.597-1.162a4.862 4.862 0 0 1-.011-.684c.02-.212.026-.407.07-.57.022-.16.072-.316.092-.397.026-.087.036-.138.036-.138a.2.2 0 1 1 .373.131zm3.47 1.332s-.008.055-.012.152c-.008.101.001.212.025.37.032.151.079.328.165.5.086.175.214.34.35.487.282.295.57.522.753.742.092.11.162.221.21.311a.955.955 0 0 1 .071.159l.008.024a.256.256 0 0 1-.166.321l-.023.006s-.306.067-.643-.13c-.343-.178-.663-.61-.822-1.08a6.66 6.66 0 0 1-.18-.692c-.035-.221-.083-.42-.089-.597-.025-.169-.025-.335-.032-.426a1.817 1.817 0 0 0-.01-.152.199.199 0 0 1 .174-.222.198.198 0 0 1 .222.227zm13.644-18.644s.047-.018.127-.059c.074-.033.218-.11.37-.16.151-.07.34-.11.543-.166a4.72 4.72 0 0 1 .669-.102c.472-.029.972.129 1.23.403a.871.871 0 0 1 .238.385c.033.11.033.183.033.183a.261.261 0 0 1-.264.258h-.002l-.036-.001s-.07-.001-.16-.02a1.672 1.672 0 0 1-.32-.09c-.23-.09-.49-.27-.823-.419a1.59 1.59 0 0 0-.52-.133 1.53 1.53 0 0 0-.47.052 1.29 1.29 0 0 0-.419.213.2.2 0 1 1-.196-.344zm1.814 3.162l.135-.078c.098-.053.223-.126.393-.186.165-.071.369-.117.595-.154.114-.013.234-.028.36-.028.13-.001.244.002.398.032a1.598 1.598 0 0 1 .708.306c.199.157.357.342.43.535.08.188.09.365.072.488a.61.61 0 0 1-.052.191.26.26 0 0 1-.365.101l-.02-.012s-.06-.036-.133-.093a2.225 2.225 0 0 1-.253-.219c-.096-.082-.173-.196-.278-.305-.05-.056-.108-.11-.165-.17-.07-.057-.097-.1-.207-.166a1.144 1.144 0 0 0-.223-.127 1.117 1.117 0 0 0-.261-.068 1.295 1.295 0 0 0-.486.038 1.13 1.13 0 0 0-.31.15c-.066.045-.111.091-.11.088a.2.2 0 0 1-.283-.002.202.202 0 0 1 .042-.313l.013-.008zm-6.075-.037c.003.002-.058-.008-.134-.004a1.025 1.025 0 0 0-.319.064 1.21 1.21 0 0 0-.386.253.988.988 0 0 0-.155.201c-.038.073-.08.166-.092.224-.043.115-.036.162-.054.245l-.024.22c-.016.141-.007.269-.033.385a1.983 1.983 0 0 1-.07.31c-.026.086-.052.148-.052.148l-.009.022a.264.264 0 0 1-.346.145l-.004-.002s-.07-.03-.156-.113a.86.86 0 0 1-.236-.413c-.06-.19-.047-.425.013-.66a1.517 1.517 0 0 1 .365-.648 1.79 1.79 0 0 1 .288-.256c.096-.072.197-.13.292-.185.195-.103.377-.186.544-.227.165-.052.301-.069.408-.086.094-.01.148-.018.148-.018l.014-.002a.2.2 0 0 1 .224.174.2.2 0 0 1-.226.223zm-3.583-1.157c.004.001-.075 0-.174.02a1.324 1.324 0 0 0-.406.145 1.556 1.556 0 0 0-.459.405 1.376 1.376 0 0 0-.164.295c-.037.102-.07.23-.077.313-.028.153-.015.219-.016.332.009.105.017.205.033.3.026.193.084.36.11.518.038.153.063.295.081.404.02.109.027.187.027.187l.001.016a.242.242 0 0 1-.286.26s-.088-.018-.213-.092a1.146 1.146 0 0 1-.415-.423c-.133-.21-.204-.497-.214-.804a1.869 1.869 0 0 1 .218-.91c.086-.167.17-.28.27-.402a3.14 3.14 0 0 1 .307-.314 2.69 2.69 0 0 1 .628-.414c.198-.1.37-.146.502-.182l.186-.045.013-.003a.2.2 0 1 1 .048.394zm2.482 13.062a2.028 2.028 0 0 0-.242.054 2.094 2.094 0 0 0-.227.087 1.686 1.686 0 0 0-.403.274 1.663 1.663 0 0 0-.543 1.05 1.698 1.698 0 0 0 .093.703c.1.298.29.56.525.736a.3.3 0 0 1 .06.417l-.009.01-.046.057a1.55 1.55 0 0 0-.344.874c-.008.158 0 .314.028.462.016.075.04.146.061.216a2 2 0 0 0 .078.18l.078.129c.019.023.038.045.053.07.045.06.093.115.146.17.11.101.226.206.363.284.27.172.58.283.946.337l.015.001a.205.205 0 0 1 .066.385c-.415.219-.933.208-1.385.044a2.064 2.064 0 0 1-.886-.645l-.12-.172-.074-.13a2.29 2.29 0 0 1-.156-.367 2.347 2.347 0 0 1-.076-.365 2.098 2.098 0 0 1 .031-.728c.1-.47.342-.914.71-1.224l.007.484a2.368 2.368 0 0 1-.566-1.09 2.269 2.269 0 0 1-.017-.896 2.62 2.62 0 0 1 .07-.291c.122-.383.36-.712.647-.974a2.42 2.42 0 0 1 .754-.45c.102-.036.196-.06.28-.079l.008-.002a.197.197 0 1 1 .085.386l-.01.003zm19.598 1.064c.095.035.202.083.318.149a2.2 2.2 0 0 1 .746.745c.24.402.37.888.288 1.374l-.033.169-.055.186a2.312 2.312 0 0 1-.153.332c-.121.212-.28.402-.467.562a2.124 2.124 0 0 1-1.392.548l.072-.737c.288.028.555.166.75.355.195.19.337.425.408.689a1.474 1.474 0 0 1-.02.82 1.807 1.807 0 0 1-.396.671 2.041 2.041 0 0 1-.608.434 2.089 2.089 0 0 1-.701.163c-.466.024-.9-.097-1.265-.313a.205.205 0 0 1 .097-.381h.008c.385-.012.74-.033 1.046-.116.075-.023.155-.049.21-.07.102-.038.133-.059.204-.099a1.26 1.26 0 0 0 .328-.256.903.903 0 0 0 .202-.32c.01-.025.04-.13.04-.164a.651.651 0 0 0-.006-.167c-.033-.236-.201-.466-.4-.512l-.066-.015a.369.369 0 0 1 .14-.723c.325.051.7-.035 1.008-.242a1.645 1.645 0 0 0 .543-.628l.051-.119.042-.145c.078-.364.01-.773-.19-1.108a1.68 1.68 0 0 0-.376-.444 1.82 1.82 0 0 0-.24-.158 1.933 1.933 0 0 0-.273-.11.197.197 0 1 1 .12-.377c.003 0 .005.002.008.003l.012.004zM83.112 56.44a4.699 4.699 0 0 1-.233.056 2.1 2.1 0 0 1-.243.028 1.916 1.916 0 0 1-.484-.022 1.957 1.957 0 0 1-.897-.38 1.959 1.959 0 0 1-.358-.35 2.05 2.05 0 0 1-.27-.431 1.99 1.99 0 0 1-.194-1.031l.694.29c-.18.3-.476.512-.801.605a1.404 1.404 0 0 1-.773.014c-.096-.03-.152-.043-.275-.105l-.08-.045a1.331 1.331 0 0 1-.315-.278 1.296 1.296 0 0 1-.236-.448c-.096-.315-.064-.675.129-.932a.208.208 0 0 1 .37.077l.008.038a1.3 1.3 0 0 0 .232.495c.053.062.102.12.159.163l.083.059a.043.043 0 0 1 .02.012l.082.043c-.012-.01.044.019.066.024a.989.989 0 0 0 .097.02.75.75 0 0 0 .606-.19l.092-.089a.368.368 0 0 1 .603.379 1.356 1.356 0 0 0 .105 1.052 1.433 1.433 0 0 0 .231.3 1.425 1.425 0 0 0 1.078.367 1.28 1.28 0 0 0 .383-.098.199.199 0 1 1 .132.373l-.01.004zm20.71-6.102c.096.035.203.083.319.148a2.205 2.205 0 0 1 .746.746c.24.401.37.888.288 1.373l-.034.169-.055.186a2.312 2.312 0 0 1-.153.333c-.121.211-.28.401-.466.562a2.124 2.124 0 0 1-1.393.547l.073-.737c.288.028.554.167.75.356.194.19.337.425.407.688.035.132.051.271.05.413-.01.16-.021.247-.069.407a1.815 1.815 0 0 1-.397.672 2.016 2.016 0 0 1-.608.433 2.084 2.084 0 0 1-.7.164 2.25 2.25 0 0 1-1.265-.313.207.207 0 0 1-.072-.281.209.209 0 0 1 .17-.1h.006c.386-.012.74-.034 1.047-.117.074-.023.155-.048.21-.07.101-.037.132-.058.204-.098a1.25 1.25 0 0 0 .327-.256.897.897 0 0 0 .203-.32.622.622 0 0 0 .034-.33c-.033-.238-.202-.468-.4-.513l-.066-.016a.368.368 0 0 1 .139-.722c.326.05.7-.036 1.009-.243a1.647 1.647 0 0 0 .542-.627l.052-.119.042-.145a1.576 1.576 0 0 0-.19-1.109c-.1-.167-.227-.32-.376-.443a1.878 1.878 0 0 0-.241-.158 1.872 1.872 0 0 0-.273-.11.197.197 0 0 1-.128-.249.197.197 0 0 1 .249-.129l.008.003.012.005zm-3.836-16.175s.047-.018.126-.059c.074-.033.219-.111.37-.16.152-.07.34-.11.544-.165.205-.044.432-.088.669-.103.471-.028.972.129 1.23.403a.873.873 0 0 1 .238.386c.033.11.032.182.032.182a.26.26 0 0 1-.263.258h-.038s-.07-.002-.16-.02a1.672 1.672 0 0 1-.32-.091c-.23-.091-.49-.27-.823-.42a1.602 1.602 0 0 0-.52-.132 1.553 1.553 0 0 0-.47.052 1.14 1.14 0 0 0-.303.135 1.677 1.677 0 0 0-.116.078.2.2 0 1 1-.196-.344zm1.814 3.162l.134-.078c.1-.053.224-.125.394-.186a2.65 2.65 0 0 1 .595-.154c.113-.013.234-.027.359-.028.13-.001.244.002.399.032a1.622 1.622 0 0 1 .708.306c.198.157.357.343.43.535.08.188.09.365.072.488-.016.122-.052.191-.052.191a.26.26 0 0 1-.352.11l-.013-.009-.02-.012s-.06-.036-.133-.092a2.245 2.245 0 0 1-.254-.22c-.095-.082-.172-.196-.277-.305-.051-.056-.108-.11-.166-.169-.069-.058-.096-.101-.206-.167a1.116 1.116 0 0 0-.223-.127 1.087 1.087 0 0 0-.262-.068 1.306 1.306 0 0 0-.485.038c-.136.046-.25.102-.31.15-.066.045-.112.091-.11.088a.2.2 0 1 1-.242-.315l.014-.008z" fill="#507533"/></g></svg>