<svg width="120" height="120" viewBox="0 0 120 120" xmlns="http://www.w3.org/2000/svg" xmlns:xlink="http://www.w3.org/1999/xlink"><defs><path id="a" d="M.45.4h39.323v103.02H.45z"/></defs><g fill="none" fill-rule="evenodd"><g transform="translate(42.552 16.422)"><mask id="b" fill="#fff"><use xlink:href="#a"/></mask><path d="M39.596 99.007a3.34 3.34 0 0 1-2.111 4.238 3.363 3.363 0 0 1-4.258-2.102L.626 4.815A3.343 3.343 0 0 1 2.739.577a3.364 3.364 0 0 1 4.257 2.101l32.6 96.329z" fill="#8AB82E" mask="url(#b)"/></g><path d="M60.161 62.07c.21-3.591 2.236-6.323 2.844-8.07.608-1.749 1.75 3.105.502 6.203-1.247 3.096-3.346 1.866-3.346 1.866" fill="#758540"/><path d="M60.161 62.07c.21-3.591 2.236-6.323 2.844-8.07.608-1.749 1.75 3.105.502 6.203-1.247 3.096-3.346 1.866-3.346 1.866z" stroke="#7B9E23" stroke-width=".789"/><path d="M59.012 45.889c.033-3.215-.504-9.414-2.046-6.396-1.542 3.019-1.189 7.421.518 7.81 1.708.388 1.528-1.414 1.528-1.414" fill="#758540"/><path d="M59.012 45.889c.033-3.215-.504-9.414-2.046-6.396-1.542 3.019-1.189 7.421.518 7.81 1.708.388 1.528-1.414 1.528-1.414z" stroke="#7B9E23" stroke-width=".789"/><path d="M53.011 38.546c-2.545-2.55-5.881-3.26-7.501-4.166-1.618-.908.758 3.48 3.755 4.976s3.746-.81 3.746-.81" fill="#758540"/><path d="M53.011 38.546c-2.545-2.55-5.881-3.26-7.501-4.166-1.618-.908.758 3.48 3.755 4.976s3.746-.81 3.746-.81z" stroke="#7B9E23" stroke-width=".789"/><path d="M54.567 52.754c-2.192-2.36-5.97-7.316-2.792-6.107 3.176 1.206 5.882 4.71 4.877 6.137-1.005 1.428-2.085-.03-2.085-.03" fill="#758540"/><path d="M54.567 52.754c-2.192-2.36-5.97-7.316-2.792-6.107 3.176 1.206 5.882 4.71 4.877 6.137-1.005 1.428-2.085-.03-2.085-.03z" stroke="#7B9E23" stroke-width=".789"/><path d="M40.069 2.108c-1.26 3.117-2.88 8.77 1.75 9.855 4.628 1.086-1.75-9.855-1.75-9.855" fill="#758540"/><path d="M40.069 2.108c-1.26 3.117-2.88 8.77 1.75 9.855 4.628 1.086-1.75-9.855-1.75-9.855z" stroke="#7B9E23" stroke-width=".789"/><path d="M44.453 5.957c2.03 2.01 8.375 7.805 4.954 9.281-3.42 1.477-4.954-9.281-4.954-9.281" fill="#758540"/><path d="M44.453 5.957c2.03 2.01 8.375 7.805 4.954 9.281-3.42 1.477-4.954-9.281-4.954-9.281z" stroke="#7B9E23" stroke-width=".789"/><path d="M42.184 4.853c-2.288 4.861.192 9.506 3.3 8.472 3.105-1.032-3.3-8.472-3.3-8.472" fill="#758540"/><path d="M42.184 4.853c-2.288 4.861.192 9.506 3.3 8.472 3.105-1.032-3.3-8.472-3.3-8.472z" stroke="#7B9E23" stroke-width=".789"/><path d="M38.857 7.91c-1.593 3.325-.226 10.379 2.961 8.587 3.19-1.79-2.961-8.587-2.961-8.587" fill="#758540"/><path d="M38.857 7.91c-1.593 3.325-.226 10.379 2.961 8.587 3.19-1.79-2.961-8.587-2.961-8.587z" stroke="#7B9E23" stroke-width=".789"/><path d="M41.273 9.947c-.908 2.688.096 10.871 4.221 9.586 4.126-1.284-4.22-9.586-4.22-9.586" fill="#758540"/><path d="M41.273 9.947c-.908 2.688.096 10.871 4.221 9.586 4.126-1.284-4.22-9.586-4.22-9.586z" stroke="#7B9E23" stroke-width=".789"/><path d="M45.789 10.377c-1.32.185-2.005 10.06 2.105 10.049 4.113-.014-2.105-10.049-2.105-10.049" fill="#758540"/><path d="M45.789 10.377c-1.32.185-2.005 10.06 2.105 10.049 4.113-.014-2.105-10.049-2.105-10.049z" stroke="#7B9E23" stroke-width=".789"/><path d="M40.06 16.782c-.912 1.692 2.091 7.98 5.688 7.223 3.597-.757-5.687-7.223-5.687-7.223" fill="#758540"/><path d="M40.06 16.782c-.912 1.692 2.091 7.98 5.688 7.223 3.597-.757-5.687-7.223-5.687-7.223z" stroke="#7B9E23" stroke-width=".789"/><path d="M49.735 15.157c-2.178.698-3.982 9.44.346 9.1 4.328-.336-.346-9.1-.346-9.1" fill="#758540"/><path d="M49.735 15.157c-2.178.698-3.982 9.44.346 9.1 4.328-.336-.346-9.1-.346-9.1z" stroke="#7B9E23" stroke-width=".789"/><path d="M52.862 25.2c-.365.017-3.763 8.672-.066 9.15 3.697.478.066-9.15.066-9.15" fill="#758540"/><path d="M52.862 25.2c-.365.017-3.763 8.672-.066 9.15 3.697.478.066-9.15.066-9.15z" stroke="#7B9E23" stroke-width=".789"/></g></svg>