<svg width="115" height="180" viewBox="-1 -1 115 180" xmlns="http://www.w3.org/2000/svg"><path fill="#F7EC1E" d="M17.1 126.393l4.5 2.012 7.94 2.255 6.131 1.363 8.779 1.341 11.3 1.06 8.612-.602 11.138-2.115 8.1-2.701 9.1-4.605 2.7-2.002-6.3-9.157-6.4-9.665-6.874-8.854-1.926-2.959-1.4-4.405-2.197-7.208-1.283-.685h-1.927l-9.044 2.387-8.249.4-2.6.601-4.6 2.864-.427 2.943-.94 3.767.036 2.901-1.81 2.942-4.559 5.507-5.36 6.707-6.24 7.809-3.5 4.905-2.7 3.194"/><path fill="#30419A" d="M95.12 120.317c-.694-1.093-1.548-2.092-2.277-3.179-.736-1.094-1.427-2.219-2.165-3.313-.904-1.338-1.865-2.637-2.75-3.988-1.131-1.727-2.117-3.554-3.333-5.216-1.418-1.939-3.044-3.722-4.527-5.614-1.165-1.485-2.241-3.04-3.378-4.548-.25-.332-.563-.628-.893-.968-.017-.015-.036-.028-.052-.047l-.066-.073c-.008-.009-.015-.015-.022-.025-.31-.344-.535-.627-.738-1.033-.189-.375-.444-.776-.856-.929-.447-.166-.973-.108-1.05.394-.096.628.208 1.141.569 1.623.326.434.638 1.192 1.075 1.502.146.103.288.21.398.343 1.056 1.287 2.129 2.561 3.126 3.892a167.615 167.615 0 0 1 3.718 5.188c.133.01.267.074.381.221a35.388 35.388 0 0 1 2.878 4.36c.595.661 1.187 1.324 1.676 2.055 1.575 2.349 3.038 4.775 4.529 7.18.517.833.949 1.719 1.481 2.542.335.519.781.965 1.292 1.584-.016-.018-6.195 3.595-6.782 3.894a58.192 58.192 0 0 1-3.667 1.717c-1.339.57-2.766.868-4.102 1.437-.874.372-1.574.805-2.524.989-1.332.257-2.639.681-3.961 1.002-1.207.293-2.475.328-3.639.654-1.373.384-2.883.606-4.297.884-.417.083-.758.226-.855.533-.065-.005-.129-.012-.196-.014-.678-.019-1.423.105-1.944.113-1.19.018-2.38.037-3.57.045-1.163.008-2.324.007-3.487.005-.463-.001-2.067-.233-2.583.23-.602-.311-1.348-.314-2.032-.349-.892-.045-1.827.114-2.711-.017-1.091-.162-2.183-.261-3.282-.394-1.631-.197-3.238-.523-4.853-.785-1.284-.209-2.6-.628-3.878-.839-.612-.101-1.28-.132-1.877-.287-.96-.25-1.78-.721-2.775-.933a67.983 67.983 0 0 1-3.699-.872c-1.609-.439-3.156-1.112-4.73-1.679-.929-.335-1.868-.641-2.785-1.005-1.222-.484-1.227-.681-.525-1.744.873-1.322 1.739-2.661 2.456-4.07 1.176-2.309 2.9-4.181 4.562-6.113 1.88-2.184 3.804-4.332 5.623-6.566 1.737-2.133 3.336-4.378 5.048-6.532.826-1.038 1.765-1.991 2.723-3.052.174-.193.225-.347.45-.488.215-.137.489-.152.667-.355.374-.426.415-1.066.158-1.575-.517-1.027-1.348.168-1.722.671-.17.229-.348.463-.536.694-.541.666-1.16 1.304-1.888 1.71l-.021.009c-.487.665-.915 1.251-1.347 1.827-.393.525-.799 1.04-1.198 1.562-.588.767-1.131 1.575-1.77 2.297-.95 1.069-2.015 2.039-2.942 3.126-.797.934-1.472 1.972-2.199 2.966-.876 1.195-1.734 2.403-2.628 3.584-.685.904-1.408 1.779-2.124 2.658-.319.391-.664.761-.994 1.142-.628.723-1.398 1.369-1.853 2.19-1.021 1.844-2.066 3.649-3.586 5.138-.225.22-.389.501-.641.831.48.413.864.853 1.344 1.123.427.242.975.258 1.442.442 1.164.459 2.3.987 3.469 1.431a120.3 120.3 0 0 0 4.761 1.701c1.049.349 2.135.582 3.192.906.581.177 1.175.105 1.76.212.484.09.994.26 1.472.4.537.157 1.021.366 1.579.487 1.418.31 2.847.552 4.278.813 2.838.517 5.623 1.191 8.518 1.191.966 0 1.928.05 2.898.05.796 0 1.856.225 2.517-.287.093-.072.159-.141.212-.21.346.205.727.36.899.39.794.138 1.611.188 2.42.204 1.514.032 3.05-.141 4.538.061 1.296.176 2.489-.049 3.725-.241.425-.065.922.223 1.072-.323.017-.064.015-.141.015-.216l.319.022c1.302.093 2.581-.124 3.851-.354.811-.146 1.621-.187 2.419-.36 1.08-.233 2.1-.626 3.167-.928 1.685-.476 3.419-1.05 5.056-1.612 1.397-.478 2.815-1.13 4.171-1.71 1.778-.763 3.499-1.665 5.212-2.569 1.189-.628 2.343-1.331 3.478-2.055 1.134-.724 2.604-1.49 3.52-2.46-.515-.822-1.28-1.473-1.804-2.298z"/><path fill="#F7EC1E" d="M40.273 94.717l-2.398-2.933-1.275-4.28 2.325-1.791 2.775-.311-.75 7.528-.677 1.787"/><path fill="#FABFBD" d="M35.2 87.429l-6.302 2.158-1.373.845-.782 2.096v5.413l1.743 2.157 1.289.478 5.425-2.26 3.95-2.253v-1.651l-2.55-3.379-.525-2.967-.875-.637"/><path fill="#30419A" d="M41.995 84.859c-.351-.429-.87-.104-1.313-.007-1.232.271-2.503.389-3.652.95-2.621 1.277-5.452 2.123-8.204 3.124-.351.128-.724.22-1.054.383a2.382 2.382 0 0 0-.494.433 1.162 1.162 0 0 0-.218.431c-.034.433.238.795.908.779.342-.008.713-.023 1.074-.06a45.659 45.659 0 0 0 1.866-.611c1.179-.42 2.369-.828 3.5-1.355 1.375-.641 1.522-.468 1.731.679.341 1.874.933 3.673 2.005 5.287.35.528.151.93-.425 1.213-2.06 1.014-4.084 2.105-6.172 3.058a1.169 1.169 0 0 1-.13.05c-.299.148-.73.257-.943.532-.235.303-.397.989.044 1.205.239.117.497.134.756.101.314-.148.586-.286.77-.36 1.352-.544 2.705-1.086 4.057-1.631l.139-.056a.594.594 0 0 1 .223-.155 26.024 26.024 0 0 0 1.656-.781c.335-.17.628-.564.936-.791.286-.21.595-.382.885-.587.509-.361 1.021-.813 1.329-1.367.235-.424.25-1.12-.074-1.507-.212-.252-.407-.156-.651-.277-.31-.152-.572-.628-.765-.913-.917-1.355-1.362-2.931-1.918-4.452-.069-.188.058-.629.198-.683.781-.3 1.625-.654 2.445-.827.596-.127 1.189-.086 1.534-.701.177-.316.195-.811-.043-1.104z"/><path fill="#FABFBD" d="M76.509 81.503v3.145L75.3 87.435l-.7 3.003s.684 1.202.954 1.352c.271.15 4.396 1.146 4.396 1.146s2.175.148 2.55.214.719.157.862-.002c.143-.159 1.818-1.059 1.818-1.059l1.295-3.378v-3.304l-1.234-1.877-3.723-1.276-3.596-.751h-1.413z"/><path fill="#F7EC1E" d="M74.925 80.602L72 79.851h-1.525l.7 2.328 1.552 5.893.848 2.742 1.025-.376.7-4.129.526-2.536v-2.946l-.901-.225"/><path fill="#30419A" d="M76.52 91.339c-.874-.176-.83-.661-.714-1.216.19-.907.503-1.788.708-2.692.375-1.652.708-3.315 1.103-5.178-.005.023 4.333 1.071 4.727 1.168.854.212 2.059.682 2.897.109.285-.195.388-.625.221-.899-.326-.534-1.605-.756-2.151-.872-1.001-.213-2.021-.319-3.015-.561-1.97-.478-3.921-1.032-5.877-1.565-.92-.25-1.866-.474-2.768-.785-.631-.218-1.191-.381-1.33.486-.165 1.02.867 1.358 1.659 1.495 1.158.201 2.307.469 3.459.702.041 2.607-.302 5.016-1.31 7.293-.613.069-.943.789-.966 1.375-.022.597.02 1.392.368 1.883.764 1.077 1.899.903 3.037 1.104 1.588.281 3.111.621 4.641 1.147.476.163 2.264.771 2.531.031.541-1.504-1.859-1.768-2.741-1.986-1.488-.367-2.976-.737-4.479-1.039z"/><path fill="#FABFBD" d="M50.4 82.755l-4.418.29-2.882 2.013-.927 2.302-.94 7.364v9.756l.94 3.804 6.127-1.338h4.6l1.7-1.555 2.644-.911 3.356.5 1.9 1.202 6.9-.791 3.594.49H74.6L72.994 95.7l-.695-9-1.996-5.346-1.424-3.004-3.979 1.903-4.8 1.501-7.724 1.001H50.4m-7.387 30.622l4.73-.588 5.533-.401 2.974.855 1.799.431 2.251-.643 2-1.143h3.8l6.2-.847 2.3.447.7 3.303-3.7 3.504-4.507 2.102s-5.093.932-5.393 1.467c-.3.535-2.75 1.055-2.75 1.055l-2.7-1.055L50.5 121l-3.877-1.504-2.954-3.003-.656-3.116z"/><path fill="#FFF" d="M59.7 86.7h-3.95l-3.374.761-2.476 2.302-1.3 2.666.6 3.271 2.6 2.373 3.86 1.101h2.389l3.351-1.502 2.792-1.972.408-2.764-1.3-3.574-1.5-1.901-2.1-.761"/><path fill="#EF453E" d="M73.6 105.391h-6.507l-4.193.49-3.744-1.116-2.556-.063-2 .689-2.224.891-8.707 1.675-1.496.327v5.391l4.45-.432 4.766-.717 2.711-.438 2.5 1.587s.699-.016 1.449 0c.751.015 2.451-.886 2.451-.886l2.5-1.748 1.6.847 5.703-.574 4.297-.727-.077-5.196H73.6z"/><path fill="#30419A" d="M75.773 111.716c-.029-.197-.065-.389-.095-.566a12.44 12.44 0 0 1-.157-2.183c.009-1.929.044-3.882-.553-5.74-.502-1.563-.423-3.314-.585-4.982-.109-1.128-.186-2.259-.278-3.388l.018-.009-.141-2.733s-.171-3.255-.187-3.253l-2.109-7.595a.55.55 0 0 1-.157-.306c-.138-.832-.013-1.887-.635-2.534a1.275 1.275 0 0 0-.365-.078 2.315 2.315 0 0 0-1.051.261c-1.106.599.067 2.051.322 2.791.262.761.711 1.475.869 2.252.462 2.275.849 4.566 1.208 6.86.26 1.661.442 3.334.635 5.005.25 2.176.466 4.356.717 6.533.1.862.324 1.725-.33 2.562-1.51-.855-3.061-.349-4.585-.238-1.25.09-2.493.259-3.739.401-.284.033-.565.095-.845.155-.626.134-1.17.166-1.782-.255-1.715-1.183-5.949-1.828-8.037.131-.313.294-.927.298-1.412.372-.763.116-1.546.122-2.301.273-2.397.481-4.783 1.01-7.177 1.506-.189.039-.401-.039-.691-.072 0-2.103.01-4.164-.007-6.224-.004-.475-.147-.949-.139-1.423.039-2.7.013-5.406.198-8.097.095-1.378.729-2.719.836-4.099.067-.854.626-1.168 1.034-1.673.149-.185.44-.26.675-.367.453-.206 1.078-.279 1.331-.626.199-.275.627-.437.49-.813-.094-.26-.529-.443-.768-.518-.426-.134-1.021-.18-1.435.055-.447.255-.546.66-1.052.846-.604.224-1.212.442-1.821.65-.043.015-.086.026-.132.05-.315.689-.446 1.439-.61 2.173-.014.066-.046.113-.074.164l-.294 6.644c-.018-.019-.031-.039-.049-.058.117.732.072 1.465-.081 2.197.042 1.467-.048 2.927-.162 4.388.286 2.518.564 5.038.85 7.556.141 1.251.299 2.501.453 3.751.014.117.116.294.072.339-.769.788-.634 2.725.315 3.343.785.513 1.224-.055 1.771-.526.677-.585 1.772-.402 2.594-.551 1.872-.341 3.789-.421 5.675-.702 1.508-.225 2.843.358 4.123.899.951.403 1.863.532 2.786.381 1.429-.235 2.737-.817 3.835-1.842.288-.27.821-.357 1.25-.384 1.149-.071 2.302-.062 3.453-.087 1.435-.032 2.87-.083 4.305-.088.472-.002.943.031 1.413.063.559.04.642-.012.848.47.274.642 1.071 1.277 1.588.469.277-.434.25-1.003.172-1.53zm-24.436-.048c-1.306.2-2.477.43-3.659.548-1.252.124-2.518.108-3.773.218-.586.052-.747-.223-.804-.701-.106-.889-.215-1.778-.334-2.755 2.997-.822 5.913-1.606 9.061-1.501-.802 1.386-.741 2.764-.491 4.191zm10.109-.737c-.804.663-1.667 1.28-2.581 1.777-.879.478-1.598.164-2.334-.714-.252-.3-.613-.508-.924-.758l-.178.204c-.148-.018-.3-.069-.442-.049-.536.076-1.254.435-1.403-.378-.136-.733-.221-1.701.144-2.252.726-1.094 1.665-2.131 2.735-2.878.607-.423 1.645-.266 2.492-.298 1.998-.074 2.737 1.337 3.261 2.915.32.96-.03 1.822-.77 2.431zm10.892-.701c-1.879.242-3.786.265-5.68.403-.594.042-1.187.199-1.778.194-.202-.002-.531-.309-.58-.526-.192-.844-.225-1.728-.45-2.561-.204-.759-.115-.956.66-1.03.948-.091 1.888-.361 2.833-.368 1.947-.015 3.896.073 5.842.173.197.01.472.361.542.602.14.482.162.997.233 1.499.041 1.257-.023 1.409-1.622 1.614zm-14.89 9.708c-.966.358-2.442 2.41-1.259 3.215.484.329 1.092.225 1.617.466.81.37 1.143.196 1.143-.7 0-.569-.145-1.146-.351-1.672-.105-.268-.776-1.446-1.15-1.309z"/><path fill="#30419A" d="M61.302 86.622c-1.284-.382-2.61-.624-3.801-.903-1.64.25-3.122.348-4.533.72-1.809.477-2.885 1.985-4.054 3.325-1.157 1.325-1.611 4.852-.649 6.328 1.453 2.23 3.489 3.796 6.118 4.311 3.739.734 6.711-.871 9.378-3.347 3.123-2.898 1.658-9.208-2.459-10.434zm1.255 8.814c-1.736 2.196-3.993 3.129-6.807 3.001-2.319-.106-3.946-1.299-5.384-2.907-.739-.828-.697-3.329-.021-4.487 1.418-2.427 3.541-3.404 6.307-3.084l.039-.245c1.309.283 2.632.513 3.922.861 2.442.658 3.754 4.57 1.944 6.861z"/><path fill="#FABFBD" d="M45.537 147.218l-4.304-1.701-7.433-3.108-2.397-.997.632-1.877 2.052-5.444 2.738-2.392 5.348 1.078 4.064 2.215 2.963 3.592-2.299 6.632-1.364 2.002"/><path fill="#EF453E" d="M46 147.819l-4.381-2.15-7.819-3.26-2.397-.597-1.863 4.605-1.113 5.006-.827 1.301-4.1-1.601h-3.9l-4.829 1.601L12 155.928l-.9 3.804v4.005l2 3.804 2.522 3.304 5.178 2.402 6.8 2.403 5.1 1.101 1.732-.3 1.468-1.627 1.636-5.481 1.616-4.906 3.021-7.408 3.827-9.21"/><path fill="#30419A" d="M46.091 145.251c-.397.919-.696.965-1.625.628-2.332-.847-4.679-1.648-7.016-2.481-1.442-.514-2.868-1.069-4.313-1.574-.519-.181-.789-.507-.683-1.063.091-.479.218-1.083.403-1.534.372-.908 3.812-7.368 2.02-7.728-1.031-.208-1.746 2.096-1.991 2.747a50.61 50.61 0 0 0-.665 1.841c-.321.969-.764 1.841-1.003 2.842-.208.871-.329 1.792-1.178 2.285-.113.065-.211.374-.152.48.4.727-.037 1.225-.383 1.791-.275.45-.5.954-.631 1.463-.46 1.793-.829 3.61-1.312 5.396-.32 1.184-.531 1.289-1.65.718-2.447-1.248-5.007-1.378-7.597-.773-1.921.449-3.58 1.492-4.966 2.916-1.203 1.235-2.387 2.592-2.688 4.289-.5 2.828-1.078 5.682.352 8.515.9 1.783 1.858 3.611 3.337 4.988 1.587 1.477 3.239 2.181 5.231 2.93 1.255.472 2.536.885 3.802 1.316 1.97.67 3.944 1.216 5.925 1.98 1.578.609 3.07 1.212 4.836 1.13 1.432-.066 1.795-1.706 2.36-2.713.745-1.327 1.34-2.68 1.877-4.113.45-1.203.711-2.474 1.098-3.702.177-.563.494-1.083.675-1.646.215-.674.29-1.396.536-2.056.701-1.882 1.476-3.738 2.19-5.616.768-2.018 1.449-4.071 2.26-6.072.94-2.321 1.997-4.594 2.969-6.903.311-.737.612-1.488.905-2.234.242-.615.416-1.227.667-1.83.405-.975 1.272-2.062 1.096-3.173-.194-1.224-1.543-.229-1.941.312-.354.479-.553 1.05-.76 1.592-.353.923-.852 1.815-1.163 2.75-.258.776-.491 1.538-.822 2.302zm-1.466 4.111c-.924 2.24-1.84 4.484-2.731 6.737-1.091 2.757-2.145 5.528-3.23 8.288-.16.407-.349.811-.541 1.214-.31 1.589-1.026 3.06-1.451 4.618-.031.14-.064.279-.101.415-.035.152-.074.303-.101.457a.611.611 0 0 1-.111.261c-.223.68-.481 1.339-.673 2.032-.198.707-.525 1.191-.957 1.483-.224.477-.717.83-1.376.675-2.832-.667-5.887-1.379-8.653-2.278-2.333-.759-4.924-1.454-7.103-2.613-1.158-.227-1.991-1.158-2.748-2.013-1.08-1.22-1.942-2.681-2.659-4.154-.368-.755-.216-1.765-.293-2.661-.261-3.046.832-5.549 3.146-7.488 2.26-1.894 3.844-2.377 6.912-2.197 1.521.487 3.578.321 4.921 2.113.562.749 1.681.141 1.954-.965.594-2.408 1.186-4.818 1.837-7.209.202-.745.656-1.419.879-2.161.202-.67.522-.66 1.061-.442 1.986.803 3.971 1.61 5.98 2.351 1.6.59 3.235 1.089 4.855 1.63.17.057.344.108.508.18 1.137.499 1.15.576.675 1.727z"/><path fill="#FABFBD" d="M42.173 114.355l-1.473 3.651-3.165 7.008-2.335 5.658.162 4.825.375.829.75.788s1.206.914 1.906 1.014c.701.1 2.707 1.014 2.707 1.014l3.3.15 2.25.263 1.498-.708 1.764-.943 2.463-6.184 3.285-6.206 1.252-3.38-.662-2.195-2.25-1.533s-4.1-2.302-4.4-2.302c-.3 0-3.6-.748-3.6-.748l-3.827-1.001z"/><path fill="#30419A" d="M43.013 113.388c-.478-.289-1.23-.081-1.551.359-.362.496-.012 1.191-.404 1.756-.748 1.076-1.311 2.289-1.885 3.475a126.819 126.819 0 0 0-2.188 4.807c-.971 2.239-1.907 4.495-2.885 6.814-.169.791-.535 1.583-.927 2.375.013.012.027.02.039.034-.033.097-.063.195-.094.291-.002.164.013.327.025.49a.63.63 0 0 1 .05.247c.001.74.997.405 1.675.164a419.486 419.486 0 0 1 2.244-5.968 146.125 146.125 0 0 1 3.399-8.04c.623-1.361 1.488-2.609 2.247-3.907.237-.406.473-.813.726-1.208.376-.582.156-1.31-.471-1.689zm14.588 8.485c-.046-.397-.201-.657-.611-.714-1.014-.14-1.414 1.414-1.762 2.08-.556 1.064-1.14 2.114-1.628 3.212-.442.992-.492 2.157-.91 3.165-1.206 2.907-2.459 5.795-3.704 8.686-.126.813.554 2.055 1.479 1.075.099-.105.187-.216.276-.327.537-1.233 1.077-2.464 1.618-3.694.136-.309.331-.591.461-.821l.016.011c.113-.252.227-.51.258-.771a.791.791 0 0 1 .203-.459c.49-1.258.923-2.356 1.343-3.452.745-1.945 1.484-3.893 2.22-5.843.125-.331.41-.561.547-.902.158-.389.242-.829.194-1.246z"/><path fill="#FABFBD" d="M72.1 144.016l4.6-2.703 4.818-2.202 3.662-1.703-2.329-5.306-2.376-1.449s-3.635.101-4.275.248c-.64.147-4.487 1.661-4.837 1.576-.579-.138-3.337 2.553-3.337 2.553l-.188 2.253 4.262 6.733z"/><path fill="#EF453E" d="M100.6 144.016l-5.2.758-5.306 2.045-4.553-8.71-5.94 2.403-7.501 3.504 2.5 5.105 5.001 8.01 3.801 6.207 2.948 5.406 3.744 4.204s1.806-.1 2.206 0c.4.101 3.6-.8 3.6-.8l6.1-3.805 5.7-5.906 2.2-4.405v-3.712l-.7-4.798-1.7-2.303-3-2.445-3.9-.758z"/><path fill="#30419A" d="M111.066 152.249a20.963 20.963 0 0 0-2.224-5.622c-.783-.746-1.666-1.335-2.633-1.931-4.619-2.849-10.904-2.116-15.343.797-.369.242-.67.219-.838-.263-.677-1.949-1.776-3.677-2.813-5.443-.239-.408-.252-.974-.285-1.473-.045-.695.186-1.619-.604-1.876-.431-.14-.87-.421-1.123-.808-.259-.395-.268-.881-.46-1.307-.235-.519-.534-1.031-.801-1.538-.349-.661-.513-1.534-1.032-2.084-.508-.539-1.333-.396-1.386.423-.039.604.21 1.028.364 1.585.219.79.567 1.479.929 2.228.266.547.828 1.614.394 2.196-.233.313-.726.459-1.173.591-.211.063-.411.122-.569.194-1.909.862-3.762 1.848-5.662 2.73-1.024.475-2.117.8-3.145 1.267-.775.352-1.272-.116-1.642-.764-.43-.751-.956-1.521-1.316-2.3-.213-.461-.393-.933-.627-1.372-.364-.682-.802-1.318-1.691-1.173-1.099.178-.2 1.698.132 2.224.437.693.904 1.35 1.247 2.1.255.558.711.997.968 1.551.275.593.555 1.161.895 1.733.827 1.391 1.782 2.706 2.631 4.084.692 1.122 1.269 2.314 1.972 3.426.971 1.539 2.07 3 3.009 4.557.942 1.564 1.735 3.217 2.628 4.812 1.235 2.205 2.477 4.404 3.725 6.6.554.975 1.047 2.044 1.757 2.91.596.728.823 1.549 1.349 2.329.308.458.538.869.881 1.291.701.858 1.009.901 2.168.901 4.178 0 7.068-2.545 10.521-4.51 3.085-1.755 5.524-4.244 7.474-7.128 1.896-2.805 2.556-6.02 2.408-9.367a56.103 56.103 0 0 0-.085-1.57zm-2.37 5.622c-1.174 3.836-3.773 6.661-6.777 9.205-1.296 1.098-2.642 2.057-4.193 2.678-2.173 1.516-4.962 3.07-6.518 2.4-.41.075-.778-.038-1.107-.267-1.269-.681-2.512-3.164-3.285-4.417a61.777 61.777 0 0 1-1.354-1.749c-.557-.757-.878-1.686-1.326-2.525a93.076 93.076 0 0 0-1.432-2.585c-.88-1.529-1.753-3.062-2.669-4.568-.65-1.067-1.415-2.065-2.039-3.146-1.282-2.217-2.485-4.48-3.761-6.7-.337-.588-.823-1.09-1.3-1.71 3.347-1.505 6.342-3.627 9.926-4.442.204-.047.395-.144.591-.221 1.814-.701 1.93-.743 2.589 1.067.689 1.893 1.683 3.635 2.436 5.489.211.518.383 1.081.422 1.633.048.663.51.823.959.865a1.76 1.76 0 0 0 1.124-.325c2.129-1.603 4.234-3.159 7.042-3.452 2.066-.216 4.148-.29 5.97.634 1.859.943 3.467 2.344 3.971 4.602.292 1.314.836 2.59.982 3.914.132 1.188.096 2.487-.251 3.62z"/><path fill="#FABFBD" d="M85.541 94.007l.934-3.194.3-4.115.375-2.417-1.609-.509-1.691.876s-1.751 1.69-1.85 2.05c-.1.361-.714 3.07-.482 3.367.231.297.757 1.874.982 2.024.225.151 1.25 1.477 1.25 1.477l1.791.441z"/><path fill="#EF453E" d="M102.75 80.451h-2.925L96.6 82.404l-1.65 2.928s-1.125.246-1.35.386c-.225.14-5.593-1.945-5.593-1.945l-1.332 4.298-.425 5.244 1.757 1.408 3.193.52 1.05 2.628 1.35 2.71 3.326 1.945 3.724 1.201h3.6l4.125-2.59 2.325-3.116 1.575-3.298v-4.21l-.675-3.144-1.725-3.597-3.75-2.269-3.375-1.052z"/><path fill="#30419A" d="M113.617 89.82c-.093-2.108-1.014-4.038-2.443-5.582-2.261-2.444-5.126-3.934-8.384-4.572-3.438-.675-6.314.363-8.519 3.123-.41.513-.713 1.111-1.119 1.629-.126.159-.458.293-.644.243-1.672-.44-3.344-.883-4.99-1.411-.573-.184-4.538-2.175-4.342-.463.065.57.64.9 1.116 1.076.169.062 1.85.492 1.849.497-.181 1.382-.297 2.524-.487 3.653-.28 1.662-.614 3.314-.928 4.988-.458 0-.857.072-1.221-.012-.53-.124-2.107-.355-1.979.594.162 1.21 2.247 1.388 3.156 1.437 1.905.103 3.759.305 5.484 1.183.095.048.226.119.328.187.018.009.031.025.047.036.03.022.053.043.07.063.075.075.137.17.16.31.03.187.075.379.125.573.088.239.179.477.268.715.187.247.379.49.51.761 1.246 2.573 3.453 4.135 5.861 5.452 1.805.989 3.761 1.269 5.787.985a9.99 9.99 0 0 0 4.902-2.116c1.886-1.517 3.228-3.51 4.216-5.728.267-.601.722-1.175.793-1.795.219-1.935.469-3.892.384-5.826zm-1.971 1.701c-.148 1.083-.153 2.199-.424 3.248-.556 2.15-1.821 3.927-3.263 5.577-.911 1.043-1.872 2.051-3.284 2.379-1.082.252-2.221.672-3.277.542-2.901-.36-5.482-1.462-7.105-4.119-.607-.993-1.181-1.969-1.514-3.13-.269-.933-.778-1.911-2.15-1.944-1.159-.028-2.309-.362-3.6-.584.13-1.536.221-2.954.382-4.365.074-.652.28-1.289.436-1.931.057-.234.181-.457.205-.692.116-1.141.128-1.203 1.235-.842.9.292 1.854.612 2.583 1.179.659.513 1.356.61 2.076.768.517.113 1.167-.513 1.272-1.17.448-2.798 2.388-4.167 4.404-4.744 2.314-.663 4.371-.025 6.346 1.071 2.054 1.139 3.938 2.504 4.895 4.767.533 1.263.976 2.568.783 3.99z"/><path fill="#FABFBD" d="M75.063 113.688h-2.069l-4.115 1.017-7.279 3.504-2.444 2.303-.206 2.421 2.85 4.787 3.942 6.719 3.221 2.19 2.737.188 2.9-.713 3.141-1.24 2.059-1.614.937-.976L82 130.675l-5.5-12.366-.674-2.302-.763-2.319"/><path fill="#30419A" d="M67.68 137.784a.783.783 0 0 0 .208-.096c.314-.222.452-.496.49-.793 0-.078-.009-.158-.014-.238-.322-.538-.644-1.075-.973-1.609-.476-.776-1.105-1.455-1.596-2.222-.709-1.108-1.332-2.271-2.034-3.384-.99-1.569-2.029-3.108-3.03-4.67-.466-.729-.962-1.442-1.388-2.197-.372-.66-.548-1.775-1.555-1.525-.332.082-.411.331-.487.703-.283 1.365.562 1.987 1.275 2.981a129.892 129.892 0 0 1 2.545 3.662c.86 1.294 1.645 2.636 2.454 3.962.597.978.995 2.117 1.747 2.994a20.75 20.75 0 0 1 1.484 1.97 6 6 0 0 0 .874.462zm13.771-6.297l.046.027c.574.245.913-.151 1.353-.449.008-.25-.04-.516-.07-.722a.68.68 0 0 1 .012-.236c-.194-.47-.417-.923-.746-1.32a.688.688 0 0 1-.108-.182l-.019.008c-.672-1.409-1.386-2.78-1.989-4.199-.827-1.947-1.574-3.928-2.346-5.897-.437-1.112-.96-2.203-1.248-3.352-.224-.893-.176-1.939-.498-2.789-.169-.445-.269-1.25-.846-1.313-1.977-.216-.348 3.676-.153 4.367.265.54.483 1.111.72 1.665 1.143 2.658 2.443 5.255 3.109 8.099.012.051.032.1.047.15.659 1.352 1.173 2.759 1.737 4.161.276.689.633 1.338.999 1.982z"/><path fill="#FABFBD" d="M30.737 92.981c-.288-.572-.694-1.029-1.206-1.434-.655-.52-1.687-.523-2.484-.618l-.585.637v2.784l1.169 5.401.781.749c1.493-.419 2.359-1.337 2.59-2.891l.34-2.269c-.129-.669-.207-1.397-.459-2.032a4.085 4.085 0 0 0-.146-.327z"/><path fill="#EF453E" d="M24.338 91.29l-5.25 1.652-3.2-2.502-2.85-1.102s-2.7.05-2.95 0-3.051 1.002-3.25 1.102c-.2.099-3.401 3.194-3.401 3.194s-2.1 2.011-2.1 4.715c0 2.703-.45 4.606 1.8 8.459 2.25 3.854 3.705 6.021 8.051 6.213 4.345.189 7.549-2.308 9.649-5.912 2.1-3.604.65-3.555.65-3.805s2.85-.05 2.85-.05l1.8-1.151.6-2.653c.001 0 .051-9.412-2.399-8.16z"/><path fill="#30419A" d="M32.314 100.066c-.192-.595-.705-.548-1.217-.693a.275.275 0 0 1-.049-.023 2.21 2.21 0 0 1-.377.143c-.177.065-.354.126-.52.202-.369.168-.769.364-1.169.436a.299.299 0 0 1-.25-.067c-.091-.037-.182-.154-.289-.402-.227-.53-.57-1.038-.668-1.589-.329-1.836-.546-3.692-.86-5.531-.093-.55-.028-.892.539-1.072.559-.179 1.116-.369 1.672-.558.067-.042.134-.084.198-.133a.448.448 0 0 1 .16-.074c.238-.451.43-1.067.064-1.378-.045-.038-.069-.088-.097-.136-.288-.121-.64-.127-.942-.154a243.077 243.077 0 0 1-4.448 1.532c-.91.307-1.847.536-2.744.874-1.215.457-2.248.459-3.069-.748-.321-.471-.779-.873-1.24-1.218-2.631-1.966-5.532-1.73-8.449-.901-1.962.558-3.565 1.742-4.954 3.23-2.495 2.672-3.714 5.806-3.469 9.481.157 2.35 1.083 4.429 2.098 6.52 1.076 2.216 2.52 4.037 4.719 5.109 2.028.99 4.158 1.725 6.5 1.07 1.596-.445 3.019-1.139 4.324-2.2 1.584-1.288 2.83-2.82 3.832-4.563.604-1.051.947-2.318 2.184-2.827a868.719 868.719 0 0 1 4.125-1.682c1.156-.62 2.367-1.125 3.566-1.646.285-.142.57-.281.827-.472a.856.856 0 0 0 .003-.53zm-7.11 1.696c-.668.371-1.392.761-2.129.845-.505.059-1.067-.384-1.795-.68-.762.148-.677.906-.732 1.698-.214 3.102-1.902 5.392-4.384 7.021-1.687 1.11-3.628 2.046-5.739 1.355-2.556-.835-4.862-2.075-5.967-4.809-.479-1.186-1.231-2.264-1.691-3.456-.853-2.21-1.169-4.568-.24-6.767.641-1.516 1.765-2.86 2.821-4.16 1.828-2.249 4.438-2.806 7.139-2.761 1.935.033 4.162 1.484 4.978 3.34.443 1.009 1.332 1.204 2.363.74 1.387-.624 2.865-1.047 4.311-1.537.159-.055.36.02.712.049.306 2.737.632 5.475.89 8.221.027.291-.266.751-.537.901z"/><path fill="#FFF" d="M53.062 82.442h-7.336l-7.333-.901-7.05-3.754-9.043-7.508-6.07-11.313.87-8.902 3.2-6.816 5.2-6.107 7.447-4.004 8.753-2.402 12.4-1.302 11.341 1.602 10.385 4.104L82 39.945l3.541 7.308 1.609 7.436-1.609 6.68-2.69 6.407-5.651 5.406-6.1 4.305-6.5 3.003-6.551 1.051-4.987.901"/><path fill="#EF453E" d="M53.276 18.245l-3.251.676-4.488-1.051-5.264-5.857v-4.58s1.623-3.454 1.9-3.529c.276-.075 5.002-2.102 5.002-2.102h3.9l3.45 1.502L56.6 6.607l1.316 3.229v3.454L56.6 15.918l-3.324 2.327z"/><path fill="#FCF6B6" d="M49.8 82.292l-3.9-.751-6.441-4.805-4.059-4.28-2.453-6.007-1.967-.751-4.655-.75-2.475-3.079s.075-3.529 0-3.754c-.075-.225 1.725-4.205 1.725-4.205l2.852-1.126 3.523 1.051 2.482-1.051 2.693-4.956s4.921-3.378 5.048-3.453c.127-.076 6.427-1.652 6.427-1.652l7.65-.727 6.075 1.252 5.25 3.379 2.25 2.778 2.325.301 3.676-1.652 3.299.976 2.393 2.631.757 3.154v2.849l-1.738 2.703-2.101 1.777H74.6s-.882 2.578-.579 2.804c.303.225.579 5.331.579 5.331l-1.606 5.255-1.67 1.802-3.825 2.169-7.65 2.261-5.55.676-4.499-.15z"/><path fill="#30419A" d="M87.84 52.416c-.305-1.493-.584-3.001-.724-4.515-.221-2.376-1.157-4.498-2.494-6.357-1.239-1.724-2.815-3.223-4.353-4.705-.873-.841-1.935-1.505-2.973-2.15-1.094-.68-2.244-1.274-3.399-1.848-1.202-.597-2.387-1.371-3.668-1.637-3.79-.787-7.384-2.369-11.266-2.749a11.651 11.651 0 0 0-1.671-.026c-.695.032-1.386.164-2.079.163-.686-.002-1.374-.189-2.057-.163-.761.03-1.086-.293-1.227-.994-.477-2.371-.982-4.737-1.492-7.177.276-.093.52-.229.774-.253 2.682-.244 4.796-1.563 6.359-3.655.688-.922 1.057-2.125 1.407-3.251.425-1.367-.019-2.708-.319-4.07-.512-2.317-1.431-4.376-3.113-6.066C53.122.526 50.249-.493 46.939.646c-1.629.561-3.155 1.495-4.625 2.422-.892.562-2.023 1.306-2.284 2.193-.581 1.978-1.875 3.774-1.173 6.17.525 1.792 1.305 3.233 2.6 4.443a43.432 43.432 0 0 0 3.659 3.09c.759.566 1.452 1.354 2.586 1.256.591-.051.87.406.984.943.462 2.198.914 4.397 1.385 6.593.139.65-.225.761-.741.828-2.28.293-4.562.584-6.835.926-1.776.266-3.551.558-5.308.931-.985.21-1.941.579-2.89.931-.639.237-1.241.573-1.863.855-1.826.827-3.77 1.466-5.446 2.528-1.601 1.014-3.022 2.374-4.345 3.752-1.556 1.618-3.028 3.337-3.997 5.415-.934 2.005-2.03 3.942-2.828 5.997-.507 1.306-1.2 2.627-1.016 4.136.157 1.286.281 2.576.407 3.866.071.717-.01 1.476.202 2.146.412 1.305 1.013 2.549 1.478 3.84.962 2.667 2.423 4.994 4.499 6.939.584.547 1.017 1.257 1.602 1.802 1.141 1.063 2.304 2.109 3.527 3.074 1.197.945 2.431 1.863 3.74 2.639 1.326.786 2.781 1.349 4.147 2.07a22.662 22.662 0 0 0 6.676 2.299c.869.154 1.711.462 2.561.725 1.154.121 2.297.32 3.46.335.04.001.069.017.105.023.223-.044.459-.054.709-.067 1.919-.101 3.842-.179 5.75-.385 2.418-.262 4.816-.714 7.237-.951 2.317-.226 4.425-1.011 6.485-2.021.444-.218.786-.353 1.063-.398.878-.507 1.891-.71 2.759-1.231a2.275 2.275 0 0 1-.078-.022c.502-.24.87-.352 1.164-.565a132.35 132.35 0 0 0 3.663-2.732c1.06-.823 2.117-1.654 3.115-2.55.958-.86 1.911-1.746 2.735-2.731a43.703 43.703 0 0 0 3.044-4.096c.6-.918 1.131-1.938 1.424-2.988.587-2.105 1.032-4.253 1.452-6.4.273-1.402.407-2.82.112-4.26zM50.041 17.557a1.08 1.08 0 0 0-1.548-.372c-.673.451-1.283.355-1.859.088-2.842-1.319-5.002-3.267-5.689-6.49-.038-.175-.027-.36-.044-.608.419-2.558 1.13-5.008 3.879-6.155 1.337-.558 2.679-1.277 4.081-1.47 2.637-.364 4.728.74 6.273 2.978 1.349 1.955 1.955 4.142 1.9 6.417-.041 1.71-.738 3.385-2.337 4.353-1.087.657-2.273 1.154-3.432 1.681-.492.224-.925.09-1.224-.422zm22.94 54.239c-.461 1.622-1.3 3.301-2.438 4.516-1.04 1.11-2.706 1.632-4.095 2.414-2.093 1.178-4.433 1.647-6.719 2.192-1.515.362-3.135.287-4.707.411-1.16.091-2.319.263-3.48.265-1.19.002-2.414-.021-3.561-.295-.873-.208-1.662-.802-2.465-1.265-1.849-1.066-3.745-2.073-5.184-3.711-.334-.38-.605-.814-.907-1.222-.336-.453-.642-.8-1.306-.955-.548-.128-1.112-.811-1.383-1.384-1.06-2.237-2.325-4.399-2.665-6.925-.203-1.509-.64-2.995-.736-4.507-.09-1.421.053-2.871.231-4.29.446-3.532 2.446-6.234 4.749-8.791 1.307-1.45 2.864-2.4 4.622-3.202 1.914-.873 3.932-1.121 5.929-1.593 2.942-.695 5.884-.447 8.821-.436 2.021.006 3.854.89 5.627 1.886 2.179 1.224 3.827 3.012 5.4 4.864 1.992 2.347 3.359 5.026 3.787 8.136.182 1.326.518 2.632.732 3.955.204 1.264.341 2.54.539 4.053-.225 1.838-.238 3.938-.791 5.884zm-.182-19.815c-.306-.733-.278-1.274.366-1.609 1.072-.556 2.202-1.003 3.324-1.456.192-.077.505-.017.699.093 1.255.715 2.726 1.208 3.379 2.639.426.934.655 1.957.93 2.812-.441 1.983-.64 3.898-1.864 5.409-.896 1.107-2.117 1.763-3.583 1.753-.221-.002-.574-.369-.638-.625-.362-1.418-.583-2.875-.985-4.28-.46-1.604-.988-3.197-1.628-4.736zm11.505 10.001c-1.631 4.866-4.96 8.536-8.975 11.618a1.226 1.226 0 0 1-.318.163c-.047.018-.112-.01-.278-.029.194-.755.391-1.496.574-2.24.601-2.452.687-4.938.394-7.431-.084-.707.167-.947.791-.996.598-.046 1.255.043 1.78-.179a9.816 9.816 0 0 0 2.264-1.377c2.247-1.799 2.868-4.31 2.784-7.025-.092-2.975-1.653-5.071-4.086-6.706-1.716-1.154-3.358-1.191-5.13-.328-.804.391-1.641.726-2.398 1.193-.528.327-.802.24-1.219-.174-1.506-1.496-3.004-3.009-4.617-4.382-1.492-1.271-3.202-2.288-5.132-2.723-1.994-.45-4.004-.986-6.1-.563-.423.085-.888-.064-1.335-.073-2.652-.053-5.197.58-7.776 1.102-2.697.545-5.036 1.844-7.206 3.325-1.687 1.152-3.001 2.887-4.039 4.735-.498.888-1.008 1.771-1.581 2.61-.099.143-.575.138-.822.05-.646-.233-1.244-.599-1.892-.824-2.859-.995-5.737.806-6.541 3.796a33.475 33.475 0 0 1-.663 2.14c-.503 1.468-.168 2.893.237 4.301.185.643.435 1.292.784 1.859 1.543 2.505 3.821 3.389 6.682 2.939.558-.088 1.129-.086 1.742-.129 1.115 3.067 1.978 6.154 3.926 8.859 1.953 2.716 4.884 3.963 7.519 5.685l-.087.221c-.852-.17-1.738-.243-2.55-.527-2.119-.744-4.239-1.502-6.294-2.403-1.687-.739-3.382-1.547-4.888-2.592-1.76-1.22-3.339-2.704-4.953-4.125-.797-.701-1.482-1.526-2.24-2.274-1.623-1.603-2.725-3.542-3.643-5.601-1.147-2.574-1.713-5.309-1.977-8.084-.11-1.142.193-2.353.467-3.495.769-3.202 2.282-6.107 4.079-8.812 1.266-1.904 2.852-3.619 4.445-5.275 2.146-2.23 5.011-3.346 7.774-4.575 3.488-1.551 7.277-1.79 10.977-2.36 2.484-.382 5.003-.537 7.51-.752.557-.048 1.13.124 1.696.121 1.371-.007 2.758-.198 4.111-.052 1.691.182 3.374.543 5.022.976 2.554.672 5.1 1.396 7.603 2.236 2.335.783 4.561 1.815 6.482 3.436 2.624 2.213 4.55 4.978 6.205 7.92 1.346 2.394 2.139 4.951 2.322 7.793.203 3.173-.463 6.139-1.43 9.028zM31.763 64.42c.019.179-.25.549-.411.562-3.202.265-5.773-.525-6.94-4.048-.631-1.903.795-5.926 2.537-6.858.569-.305 1.241-.418 1.635-.545 1.129.016 2.978 1.172 3.16 1.989.113.508-.174 1.091-.195 1.643-.069 1.902-.13 3.805-.126 5.706 0 .516.284 1.027.34 1.551z"/><path fill="#30419A" d="M70.199 59.955c-.593-.609-1.977-.976-2.514-1.038-2.562-.29-5.162-.26-7.733-.433-1.721-.116-3.406.03-5.127.136a153.29 153.29 0 0 0-10.057.958c-.21.027-.418.064-.627.102-.506.146-1.018.263-1.536.362-1.462.417-2.847 1.065-4.301 1.496-.733.217-1.683 1.164-.916 1.967.882.922 1.872-.307 2.801-.511 1.2-.266 2.362-.666 3.561-.963 2.774-.685 5.625-.985 8.473-1.146 4.056-.23 8.129-.271 12.193-.253 1.279.005 2.606.16 3.856.444.528.12 1.566.535 1.983.011.346-.435.252-.816-.056-1.132zm-9.596-7c-.808-.05-1.615-.107-2.423-.149-1.658-.086-2.843-.997-3.704-2.301-.343-.518-.513-1.251-.486-1.874.015-.379.499-.927.879-1.039.278-.081.969.355 1.061.678.532 1.885 1.875 2.407 3.621 2.407.44 0 .885.059 1.321.128.686.108 1.247.44 1.178 1.21-.074.83-.699 1.055-1.447.94zm-10.84-3.974c-.23-.259-.464-.53-.75-.607-.798-.215-1.272.38-1.41 1.07-.417 2.074-1.948 3.023-3.685 3.729-.745.302-1.337.638-1.023 1.497.297.81 1.014.849 1.766.614 1.993-.623 3.467-1.934 4.578-3.632.331-.504.462-1.151.659-1.872a9.516 9.516 0 0 0-.135-.799z"/></svg>