<svg xmlns="http://www.w3.org/2000/svg" version="1.1" id="Scratch_Cat_A" x="0" y="0" width="93.578" height="100.869" viewBox="0.649 -0.061 93.578 100.869" xml:space="preserve"><defs><style/></defs><path id="Back_Leg" fill="#FAA51D" stroke="#000" d="M38.988 80.967s-8.832 6.201-17.07 8.412l.086.215c1.247 1.824 5.869 7.498-.334 9.496-5.333 1.718-15.12-13.104-10.821-15.901 2.626-1.713 4.892-.252 4.892-.252s3.475-1.069 6.001-2.345c4.304-2.162 5.784-3.453 5.784-3.453s4.185-4.307 6.856-4.137c2.669.17 8.058 4.713 4.606 7.965zM19.646 90.09l2.271-.711"/><g id="Tail"><path id="Tail_1_" fill="#FAA51D" stroke="#000" d="M23.295 73.217c-2.415-.451-5.305-1.311-7.742-3.504-5.451-4.906-7.194-13-11.048-10.914C.649 60.887.723 73.965 12.858 77.994c4.182 1.391 7.998 1.395 11.091 1.312.812-.026 7.718-.655 10.079-4.075 2.361-3.419.719-4.271-.09-4.744-.81-.471-7.227 3.368-10.643 2.73z"/><path id="Tail_Tip" fill="#FFF" d="M4.641 59.107c-1.437.778-2.256 3.397-1.994 6.374.141 1.594 1.104 5.652 4.968 9.072.275-.545-.975-2.936.742-4.379 1.837-1.543 4.86-1.225 5.853-1.061-1.663-1.812-3.004-3.812-4.176-5.64-2.283-3.551-3.559-5.357-5.393-4.366z"/></g><path id="R_Arm" fill="#FAA51D" stroke="#000" d="M52.94 69.096s1.234.166 4.744 3.677c3.509 3.509 6.025 2.16 8.911.724 2.877-1.442 10.536-6.127 6.489-9.817-4.05-3.688-6.207 1.146-9.716 2.405-3.511 1.26-5.06-2.487-6.856-4.287a16.192 16.192 0 0 0-1.729-1.506s-.972-.758-1.905 2.791c-.935 3.541-1.945 4.544.062 6.013z"/><g id="Front_Leg_x2F_Body_1_"><path id="Front_Leg_x2F_Body" fill="#FAA51D" stroke="#000" d="M47.524 76.224c1.188-.912 2.396-2.401 3.951-4.714 1.296-1.926 2.699-5.577 2.699-5.577.875-2.521 1.935-6.576-1.901-7.296-1.553-.291-4.079-.098-7.67-.776-3.593-.681-6.798-2.522-9.517 2.233-2.719 4.757-9.591 8.271-1.057 16.562 0 0 4.901 3.842 10.765 9.639 4.832 4.774 12.044 10.603 12.044 10.603s18.973 2.188 19.534-.694c1.923-9.789-14.775-6.91-14.775-6.91s-4.604-3.933-6.727-5.795c-3.477-3.058-11.125-10.771-11.125-10.771"/><path id="Belly" fill="#FFF" d="M49.74 64.551c-4.94-2.656-7.214-.015-8.74 1.522-2.645 2.654 3.442 6.61 3.442 6.61l3.062 3.089c2.999-3.496 4.579-5.874 5.292-7.934-.142-.941-.878-2.113-3.056-3.287z"/></g><path id="L_Arm" fill="#FAA51D" stroke="#000" d="M30.697 67.43c.749-.571 2.89-2.202 4.854-3.657 2.428-1.799 6.117-5.849 1.077-7.646-5.04-1.801-7.508 1.604-11.52 4.945-2.159 1.801-5.308 2.698-4.319 6.209.993 3.512 4.862 13.407 11.789 10.17 6.93-3.238-1.799-9.181-3.06-11.156"/><g id="Head"><g id="Head_1_"><path id="Head_Fill" fill="#FAA51D" stroke="#000" d="M86.452 37.457c-1.472-6.447-8.891-7.579-8.891-7.579s.176-5.351-2.628-10.347c-1.856-3.307-8.351-8.042-8.351-8.042L63.728-.061l-7.43 7.32-2.854 1.105c-1.539-.143-4.718-.312-6.485-.227-4.729.225-9.227 2.036-9.227 2.036L24.854 1.649l2.233 18.91c.646-.786-10.553 12.802-3.477 24.22 3.319 5.36 10.159 10.124 15.599 11.947 4.062 1.36 10.833 1.737 14 1.737 2.646 0 7.768-.541 10.32-.979 3.021-.519 6.479-1.629 10.055-3.108 9.497-3.934 14.338-10.472 12.868-16.919zM39.771 12.212l-2.035-2.039m15.952-1.961c2 .333 4.333 1.366 4.333 1.366"/><path id="Muzzle" fill="#FFF" d="M77.146 30.129l-2.881-3.107-9.113 2.661c0 .01-.005 1.619-1.42 2.933-.646.6-1.583 1.138-2.948 1.435-4.371.951-11.212-2.277-11.212-2.277l-7.784 3.417s-4.744.522-7.244 2.956c-.833.812-1.417 1.835-1.492 3.123-.493 8.398 8.68 13.252 15.083 15.602 1.778.652 2.388.851 3.472 1.139 0 0 7.424-.195 10.181-.588 3.032-.432 7.578-1.758 11.154-3.236 9.498-3.933 14.601-10.024 13.129-16.471-1.474-6.451-8.925-7.587-8.925-7.587z"/></g><g id="L_Eye"><path id="Eyeball_1_" fill="#FFF" stroke="#000" d="M48.638 22.831c2.926 4.48 2.618 9.862-.682 12.015-3.303 2.159-8.352.272-11.275-4.208-2.928-4.48-2.624-9.86.678-12.017 3.302-2.156 8.35-.272 11.279 4.21"/><path id="Pupil_1_" d="M46.85 28.719c0 1.081-.803 1.957-1.801 1.957-.992 0-1.804-.878-1.804-1.957 0-1.08.812-1.957 1.804-1.957.996 0 1.801.877 1.801 1.957"/></g><g id="R_Eye"><path id="Eyeball" fill="#FFF" stroke="#000" d="M72.361 19.75c2.925 4.479 3.283 9.419.492 11.243-2.793 1.825-7.181-.552-10.104-5.034-2.933-4.48-3.079-9.134-.286-10.959 2.787-1.823 6.971.268 9.898 4.75"/><path id="Pupil" d="M71.86 26.734c0 1.08-.802 1.956-1.8 1.956-.993 0-1.804-.877-1.804-1.956 0-1.08.811-1.958 1.804-1.958.998 0 1.8.878 1.8 1.958"/></g><path id="Nose" fill="#5E4A42" stroke="#000" d="M60.536 32.138c1.854 0 4.556-.284 4.696.569.145.855-1.709 4.203-2.987 4.345-1.282.142-6.125-2.353-6.194-3.919-.074-1.566 2.774-.995 4.485-.995"/><path id="Whisker_3_" d="M22.75 36.602c-.023-.017-2.382-1.76-6.002-3.362-4.012-1.777-6.263-2.26-6.284-2.265l.245-1.175c.095.02 2.381.506 6.525 2.342 3.751 1.661 6.133 3.424 6.232 3.498l-.716.962z"/><path id="Whisker_2_" d="M16.628 41.254c-2.035 0-5.092-.276-5.238-.289l.107-1.195c.041.004 4.088.367 5.887.266 1.82-.104 5.412-.578 5.447-.583l.157 1.189c-.148.02-3.67.484-5.537.591-.242.015-.522.021-.823.021z"/><path id="Whisker_1_" d="M82.524 35.475l-.194-1.185c.046-.007 4.524-.744 6.761-1.523 2.573-.894 4.326-2.415 4.345-2.43l.791.902c-.078.068-1.948 1.691-4.742 2.661-2.334.814-6.774 1.544-6.961 1.575z"/><path id="Whisker" d="M91.551 42.979a32.37 32.37 0 0 1-3.189-.163c-2.858-.286-5.584-1.379-5.699-1.426l.45-1.112c.027.011 2.686 1.075 5.368 1.344 2.672.267 4.518.111 4.535.11l.104 1.195c-.043.004-.612.052-1.569.052z"/><path id="Mouth" fill="none" stroke="#231F20" stroke-width="1.2" d="M47.545 39.447s10.347 3.054 14.217 3.896c3.867.842 10.851 1.684 10.851 1.684s-7.989 10.245-17.327 7.645c-9.339-2.597-9.171-8.485-7.741-13.225z"/></g></svg>