<svg width="120" height="120" viewBox="0 0 120 120" xmlns="http://www.w3.org/2000/svg"><g fill="none" fill-rule="evenodd"><path d="M59.016 57.114s-24.49-2.583-31.954-3.535c-7.464-.952-26.49-2.44-26.788-8.02-.3-5.578 8.48-5.654 31.199-.753 22.718 4.901 29.085 6.076 29.085 6.076l-1.542 6.232" fill="#E8B067"/><path d="M14.348 41.767c-1.257 3.699-1.685 7.242-1.79 9.902 1.544.285 3.123.533 4.67.751.075-2.624.458-6.213 1.696-9.987a120.304 120.304 0 0 0-4.576-.666" fill="#E7AC3B"/><path d="M60.558 50.882c.781.194 1.07 1.745.644 3.466-.427 1.72-1.404 2.959-2.186 2.766-.782-.193-1.07-1.745-.642-3.465.426-1.721 1.403-2.961 2.184-2.767" fill="#CF9E5F"/><path d="M76.634 60.311c.533.49 3.276.939 5.682 5.91 1.349 2.784 1.981 6.14 5.265 8.058 3.282 1.917 19.737 6.14 25.35 4.277 5.21-1.73 9.12-24.198 4.906-26.394-4.38-2.284-41.203 8.15-41.203 8.15" fill="#9A9F9E"/><path d="M59.356 56.3s-1.15-2.054 1.017-4.745c0 0 18.853 6.754 21.633 4.266 2.779-2.488 6.259-7.567 8.928-8.335 2.67-.768 20.073-2.326 22.894-.805 2.823 1.519 6.519 5.671 5.403 14.534-1.115 8.863-4.309 15.763-6.758 16.813-2.45 1.05-20.867-1-25.982-5.184-4.147-3.39-2.39-10.62-10.268-12.506C68.347 58.45 59.356 56.3 59.356 56.3" fill="#A9ADAB"/><path d="M87.12 69.037a.32.32 0 0 1-.605-.19c.178-1.06 2.232-14.89 2.184-16.205a.32.32 0 0 1 .64-.024c.052 1.444-2.097 15.767-2.192 16.336a.325.325 0 0 1-.026.083" fill="#959A99"/><path d="M113.017 50.737c.802.006 1.445.694 1.438 1.534-.006.841-.663 1.517-1.466 1.51l-16.33-.142c-.802-.006-1.445-.694-1.438-1.536.008-.839.663-1.515 1.465-1.509l16.33.143" fill="#FFFFFE"/><path d="M113.076 50.7l-16.389-.126c-.805-.007-1.463.673-1.472 1.517 0 .128.018.25.044.37.708-.34 2.007-.676 4.375-.652 3.621.034 11.209.102 14.88.374-.022-.818-.652-1.478-1.438-1.484" fill="#808584"/><path d="M112.77 70.371c.797.108 1.347.872 1.235 1.704-.114.834-.85 1.42-1.645 1.312l-19.303-2.303c-.795-.109-1.346-.87-1.233-1.704.114-.832.85-1.42 1.645-1.313l19.302 2.304" fill="#FFFFFE"/><path d="M112.834 70.34l-19.362-2.294c-.797-.108-1.536.485-1.651 1.32a1.649 1.649 0 0 0-.004.371c.746-.247 2.076-.415 4.421-.094 3.59.493 14.23 1.618 17.835 2.352.082-.815-.46-1.55-1.239-1.654" fill="#808584"/><path d="M113.893 64.287c.796.108 1.346.872 1.234 1.704-.114.834-.85 1.421-1.645 1.313l-18.717-2.285c-.794-.109-1.346-.871-1.233-1.704.113-.832.85-1.42 1.645-1.313l18.716 2.285" fill="#FFFFFE"/><path d="M113.957 64.257l-18.778-2.276c-.797-.108-1.535.484-1.65 1.32-.016.127-.015.25-.004.371.745-.248 2.076-.415 4.422-.093 3.589.491 13.642 1.6 17.248 2.332.082-.813-.458-1.548-1.238-1.654" fill="#808584"/><path d="M113.608 57.705c.8.065 1.39.798 1.322 1.636-.07.838-.775 1.463-1.575 1.397l-18.054-1.49c-.798-.066-1.388-.8-1.32-1.637.07-.837.774-1.462 1.574-1.398l18.053 1.492" fill="#FFFFFE"/><path d="M113.67 57.67l-18.112-1.477c-.803-.066-1.509.563-1.58 1.405-.011.127-.002.25.015.37.73-.286 2.051-.524 4.41-.326 3.61.304 12.95 1.073 16.59 1.615.04-.817-.539-1.523-1.323-1.587" fill="#808584"/><path d="M59.617 55.007c1.442.508 16.585 4.258 18.719 5.361 0 0-14.527-3.367-15.605-3.525-1.076-.158-2.942-.336-3.207-1.084-.265-.746.093-.752.093-.752" fill="#9A9F9E"/><path d="M57.377 56.422s-45.844-3.733-54.424-8.05c0 0-3.815-3.42 1.418-.745 6.653 3.402 53.006 8.795 53.006 8.795" fill="#D6A361"/></g></svg>