<svg width="120" height="120" viewBox="0 0 120 120" xmlns="http://www.w3.org/2000/svg"><g fill="none" fill-rule="evenodd"><path fill="#02A099" d="M.929 63.96l9.905 12.15L.929 88.26h28.864v-24.3z"/><path stroke="#027975" stroke-width="1.857" stroke-linecap="round" stroke-linejoin="round" d="M10.834 76.11L.929 88.26h28.864v-24.3H.929l9.905 12.15"/><path fill="#027975" d="M10.834 76.11L.929 88.26h28.864V76.11"/><path fill="#02A099" d="M92.065 63.96v24.3h28.864l-9.905-12.15 9.905-12.15z"/><path stroke="#027975" stroke-width="1.857" stroke-linecap="round" stroke-linejoin="round" d="M111.024 76.11l9.904 12.15H92.064v-24.3h28.864l-9.904 12.15"/><path fill="#027975" d="M111.024 76.11l9.904 12.15H92.064V76.11"/><path d="M20.092 83.23a.93.93 0 0 1-.93-.929V57.458a.93.93 0 0 1 .93-.929h81.675a.93.93 0 0 1 .929.93V82.3a.93.93 0 0 1-.93.93H20.093z" fill="#00D6C8"/><path d="M101.766 55.6H20.091a1.857 1.857 0 0 0-1.857 1.857v24.844c0 1.026.831 1.858 1.857 1.858h81.675a1.858 1.858 0 0 0 1.858-1.858V57.457a1.858 1.858 0 0 0-1.858-1.857zM20.091 82.301h81.675V57.457H20.091v24.844z" fill="#027975"/><path fill="#02A099" d="M20.092 82.301h81.675V69.878H20.092z"/><path d="M74.378 78.587c-.183 0-.368-.044-.537-.133l-12.912-6.838-12.914 6.838a1.143 1.143 0 0 1-1.206-.085c-.355-.256-.99-.69-.916-1.12l2.925-14.492-10.453-10.264c-.31-.304-.421-3.05-.286-3.463.135-.414.49-.256.922-.32l14.44-.281L59.9 35.248a1.145 1.145 0 0 1 2.057 0l6.459 13.18 14.44.282c.43.064.788-.094.922.32.136.413.025 3.159-.286 3.463L73.039 62.757l2.902 14.35c.034.106.048.218.048.334 0 .633-.97 1.146-1.602 1.146h-.01z" fill="#C94B06"/><path d="M74.378 78.587c-.183 0-.368-.044-.537-.133l-12.912-6.838-12.914 6.838a1.143 1.143 0 0 1-1.206-.085c-.355-.256-.99-.69-.916-1.12l2.925-14.492-10.453-10.264c-.31-.304-.421-3.05-.286-3.463.135-.414.49-.256.922-.32l14.44-.281L59.9 35.248a1.145 1.145 0 0 1 2.057 0l6.459 13.18 14.44.282c.43.064.788-.094.922.32.136.413.025 3.159-.286 3.463L73.039 62.757l2.902 14.35c.034.106.048.218.048.334 0 .633-.97 1.146-1.602 1.146h-.01z" stroke="#772F09" stroke-width="3.715" stroke-linecap="round" stroke-linejoin="round"/><path d="M74.378 75.838c-.183 0-.368-.044-.537-.134l-12.912-6.837-12.914 6.837a1.138 1.138 0 0 1-1.206-.084 1.14 1.14 0 0 1-.458-1.12l2.467-14.493-10.453-10.263A1.148 1.148 0 0 1 39 47.793l14.44-2.112 6.46-13.183a1.147 1.147 0 0 1 2.057 0l6.459 13.183 14.44 2.112a1.145 1.145 0 0 1 .636 1.95L73.039 60.008l2.443 14.352a1.145 1.145 0 0 1-1.095 1.479h-.01z" fill="#C94B06"/><path d="M74.378 75.838c-.183 0-.368-.044-.537-.134l-12.912-6.837-12.914 6.837a1.138 1.138 0 0 1-1.206-.084 1.14 1.14 0 0 1-.458-1.12l2.467-14.493-10.453-10.263A1.148 1.148 0 0 1 39 47.793l14.44-2.112 6.46-13.183a1.147 1.147 0 0 1 2.057 0l6.459 13.183 14.44 2.112a1.145 1.145 0 0 1 .636 1.95L73.039 60.008l2.443 14.352a1.145 1.145 0 0 1-1.095 1.479h-.01z" stroke="#772F09" stroke-width="3.715" stroke-linecap="round" stroke-linejoin="round"/><path d="M74.378 78.587c-.183 0-.368-.044-.537-.133l-12.912-6.838-12.914 6.838a1.143 1.143 0 0 1-1.206-.085c-.355-.256-.99-.69-.916-1.12l2.925-14.492-10.453-10.264c-.31-.304-.421-3.05-.286-3.463.135-.414.49-.256.922-.32l14.44-.281L59.9 35.248a1.145 1.145 0 0 1 2.057 0l6.459 13.18 14.44.282c.43.064.788-.094.922.32.136.413.025 3.159-.286 3.463L73.039 62.757l2.902 14.35c.034.106.048.218.048.334 0 .633-.97 1.146-1.602 1.146h-.01z" fill="#C94B06"/><path d="M74.378 75.838c-.183 0-.368-.044-.537-.134l-12.912-6.837-12.914 6.837a1.138 1.138 0 0 1-1.206-.084 1.14 1.14 0 0 1-.458-1.12l2.467-14.493-10.453-10.263A1.148 1.148 0 0 1 39 47.793l14.44-2.112 6.46-13.183a1.147 1.147 0 0 1 2.057 0l6.459 13.183 14.44 2.112a1.145 1.145 0 0 1 .636 1.95L73.039 60.008l2.443 14.352a1.145 1.145 0 0 1-1.095 1.479h-.01z" fill="#FEDD02"/><path d="M59.94 34.601c-.99 1.571-4.423 8.254.442 6.4 4.42-1.684 1.728-9.848-.443-6.4-.554.88.463-.734 0 0" fill="#FFF"/><path d="M56.539 41.869c-.62.383-1.263 1.283-1.119 1.987.109.53.389 1.072.89 1.357.587.334 1.471.268 2.023-.12.778-.545.959-1.96.307-2.661-.604-.648-1.25-.8-2.101-.563M48.03 48.1c-1.895-.529-9.83-.268-7.33 2.492 3.455 3.815 10.011-1.746 7.33-2.493-.365-.103.52.146 0 0" fill="#FFF"/><path d="M83.778 48.571a1.144 1.144 0 0 0-.922-.778l-11.522-1.686c-.337 10.961-9.569 19.996-20.599 19.996a19.99 19.99 0 0 1-2.919-.216l-1.466 8.614a1.144 1.144 0 0 0 1.664 1.203l12.914-6.837 12.912 6.837c.17.09.355.134.538.134h.005a1.147 1.147 0 0 0 1.098-1.48L73.04 60.007l10.453-10.263c.31-.305.422-.759.286-1.173" fill="#F29101"/><path d="M83.778 48.571a1.144 1.144 0 0 0-.922-.778l-8.66-1.267c.008.227.02.452.02.68 0 11.862-9.9 21.761-21.763 21.761-1.736 0-3.428-.218-5.057-.617l-1.046 6.151a1.144 1.144 0 0 0 1.664 1.203l12.914-6.837 12.912 6.837c.17.09.355.134.538.134h.005a1.147 1.147 0 0 0 1.098-1.48L73.04 60.007l10.453-10.263c.31-.305.422-.759.286-1.173" fill="#F29101"/></g></svg>