<svg width="120" height="120" viewBox="0 0 120 120" xmlns="http://www.w3.org/2000/svg"><g fill="none" fill-rule="evenodd"><path d="M119.007 74H115v2h4.007a.997.997 0 0 0 .993-1c0-.553-.445-1-.993-1M19.079 59.878l-1.331-6.66A4 4 0 0 0 13.826 50H8.29v2.24A4.654 4.654 0 0 0 4.312 50H0l3.377 18L20 67.166l-.921-7.288z" fill="#242424"/><path d="M104.942 72.154s-4.476-3.676-10.4-3.676H72.847c-2.049 0-3.71 1.645-3.71 3.676h4.093a1.43 1.43 0 0 1 1.436 1.423A1.43 1.43 0 0 1 73.23 75H6.08l1.185-3.26H2v-5.001h11.19l10.136-7.783s5.2-3.717 5.66-7.109c.461-3.39-5.594-2.087-5.594-2.087L18.587 45H54.59a2.293 2.293 0 0 1 2.304 2.283v2.477a2.293 2.293 0 0 1-2.304 2.284v1.695h1.843a1.31 1.31 0 0 1 1.316 1.304h1.972c1.351 0 2.646.532 3.6 1.478h4.499l1.173-1.163s19.823 1.185 22.917 1.837c3.093.653 24.09 13.24 24.09 13.24l-11.058 1.719z" fill="#242424"/><path d="M104 70.11s-5.788-5.93-16.047-8.064c-10.26-2.134-23.809-1.988-29.99.272C51.78 64.578 30.865 73 30.865 73H26s11.706-9.075 19.336-10.682c7.628-1.606 18.32-4.78 31.497-4.261C90.011 58.577 104 65.444 104 70.11" fill="#FFF"/><path d="M29.473 45s9.903 4.164 11.603 8.772C43.906 61.446 29 66.986 29 66.986s13.282.748 16.616-8.662C48.95 48.914 29.473 45 29.473 45" fill="#FFF"/><path d="M49 44h5.722c.706 0 1.278-.448 1.278-1s-.572-1-1.278-1h-3.167c-1.41 0-2.555.895-2.555 2" fill="#242424"/><path fill="#191919" d="M54 45h-3v-1h3z"/><path d="M30.123 45h24.495a2.313 2.313 0 0 1 2.303 2.323v2.52a2.312 2.312 0 0 1-2.303 2.323v1.725h1.842c.727 0 1.316.594 1.316 1.327h1.971c1.35 0 2.645.54 3.599 1.503h4.496l1.173-1.183s19.814 1.206 22.906 1.87C95.013 58.07 116 70.876 116 70.876l-8.857 1.401c-.82-.56-1.318-.959-1.318-.959s-5.405-5.313-10.494-8.852C90.244 58.928 76.851 59 76.851 59H63.719s-7.894.376-17.062 5.154C36.956 69.209 26 73 26 73l.829-5.153s2.24-.067 9.39-3.34c7.15-3.273 8.991-8.404 6.097-12.562C39.42 47.787 30.123 45 30.123 45" fill="#F62"/><path d="M65.58 59.032s-17.591-.433-27.794 1.905c-10.203 2.337-11.435 3.41-11.435 3.41L26 72h42s-.661-12.449-2.42-12.968" fill="#000"/><path d="M76 68c0 5.523 4.477 10 10 10s10-4.477 10-10-4.477-10-10-10-10 4.477-10 10" fill="#191919"/><path d="M81 68a6 6 0 1 0 12 0 6 6 0 0 0-12 0" fill="#F62"/><path d="M81 68a5 5 0 1 0 10 0 5 5 0 0 0-10 0" fill="#191919"/><path d="M85 68a2 2 0 1 0 4.001-.001A2 2 0 0 0 85 68" fill="#D2D2D2"/><path d="M7 67c0 6.075 4.925 11 11 11s11-4.925 11-11-4.925-11-11-11S7 60.925 7 67" fill="#191919"/><path d="M12 66.5a6.5 6.5 0 1 0 13 0 6.5 6.5 0 0 0-13 0" fill="#F62"/><path d="M13 67a5 5 0 1 0 10 0 5 5 0 0 0-10 0" fill="#191919"/><path d="M16 67.5a2.5 2.5 0 1 0 5 0 2.5 2.5 0 0 0-5 0" fill="#D2D2D2"/><path d="M72 72v-6.536c0-.743-.317-1.455-.882-1.98l-1.403-1.306a2.619 2.619 0 0 1-.854-1.918c0-1.248-1.088-2.26-2.43-2.26C65.087 58 64 59.012 64 60.26v1.102c0 .788.336 1.542.935 2.1l.636.59c.565.526.882 1.239.882 1.982V72H72z" fill="#FF7833"/><path d="M103 74.855v-4.711c0-.632.52-1.144 1.161-1.144h11.678c.64 0 1.161.512 1.161 1.144v4.711c0 .632-.52 1.145-1.161 1.145H104.16a1.153 1.153 0 0 1-1.16-1.145" fill="#191919"/><path d="M109.985 74L105 69h10.869c.625 0 1.131.508 1.131 1.134V74h-7.015z" fill="#FF7833"/><path fill="#FFF" d="M107.214 69L112 74h-1.214L106 69z"/><path d="M47.483 47h7.034a.491.491 0 0 0 .483-.5c0-.276-.216-.5-.483-.5h-7.034a.492.492 0 0 0-.483.5c0 .276.216.5.483.5m2 8h7.034a.492.492 0 0 0 .483-.5c0-.276-.216-.5-.483-.5h-7.034a.491.491 0 0 0-.483.5c0 .276.216.5.483.5m19.952 2.032l14.073.967c.255.018.475-.199.491-.483.016-.285-.178-.53-.433-.547L69.492 56c-.255-.018-.475.199-.491.483-.016.285.179.53.434.548M57.463 57h3.074c.256 0 .463-.224.463-.5s-.207-.5-.463-.5h-3.074c-.256 0-.463.224-.463.5s.207.5.463.5m10 9h3.074c.256 0 .463-.224.463-.5s-.207-.5-.463-.5h-3.074c-.256 0-.463.224-.463.5s.207.5.463.5m38.982 5h9.11c.246 0 .445-.224.445-.5s-.2-.5-.445-.5h-9.11c-.246 0-.445.224-.445.5s.2.5.445.5M9.494 52h6.012a.497.497 0 0 0 .494-.5c0-.276-.221-.5-.494-.5H9.494a.497.497 0 0 0-.494.5c0 .276.222.5.494.5" fill="#FFB189"/></g></svg>