<svg xmlns="http://www.w3.org/2000/svg" width="49.31" height="79.5" viewBox="0.685 0.503 49.31 79.5"><defs><style/></defs><g id="ID0.37803533719852567"><path id="ID0.15437999367713928" fill="#FF9400" d="M327 368c-2.396.605-4.562 1.438-8 1 1.489 19.796 7.491 45.979-5 58-14.065 1.731-20.397-4.27-25-12 1.686-1.647 4.494-2.173 6-4 22.069 21.979 24.559-22.542 17-41h-15c.531-2.182 2.419-6.468-1-7 6.914-4.086 20.123-1.877 29-4 4.055-.388 1.102 6.232 2 9z" transform="translate(-283.1 -357.75) scale(1.00633)"/><path id="ID0.16048103151842952" d="M324 356h7v15c-1.891 3.443-4.557 6.11-8 8 3.841 21.579 2.533 48.01-13 56h-6c-11.942-.725-17.215-8.118-22-16v-4c6.523-1.477 7.941-8.059 15-9 1.938 2.729 2.171 7.162 7 7 7.671-6.93 4.712-24.783 2-36-5.272-.568-12.626.861-15 0 .803-6.461-2.322-13.149 3-18 10.281-.719 21.384-.616 30-3zm1 3c-8.877 2.123-22.086-.086-29 4 3.419.532 1.531 4.818 1 7h15c7.559 18.458 5.069 62.979-17 41-1.506 1.827-4.314 2.353-6 4 4.603 7.73 10.935 13.731 25 12 12.491-12.021 6.489-38.204 5-58 3.438.438 5.604-.395 8-1-.898-2.768 2.055-9.388-2-9z" transform="translate(-283.1 -357.75) scale(1.00633)"/></g></svg>