<svg width="120" height="120" viewBox="0 0 120 120" xmlns="http://www.w3.org/2000/svg"><g fill="none" fill-rule="evenodd"><path d="M116.118 45.597l-7.954-.183a.994.994 0 0 1-.972-1.017.994.994 0 0 0-.97-1.017l-3.976-.091a.994.994 0 0 0-1.017.97l-.013.551a.99.99 0 0 1-.52.845 2.96 2.96 0 0 0-1.546 2.531l-.07 2.989a2.96 2.96 0 0 0 1.429 2.6.988.988 0 0 1 .48.868l-.012.55a.994.994 0 0 0 .971 1.017l3.976.091a.994.994 0 0 0 1.017-.97.994.994 0 0 1 1.016-.972l7.955.184a3.973 3.973 0 0 0 4.064-3.88l.023-1.002a3.973 3.973 0 0 0-3.88-4.064" fill="#F22027"/><path d="M94.991 88.866L8.003 86.86a8.191 8.191 0 0 1-8-8.378l.904-39.28a8.191 8.191 0 0 1 8.378-8l86.989 2.004a8.191 8.191 0 0 1 8 8.378l-.905 39.28a8.191 8.191 0 0 1-8.378 8" fill="#8CC63F"/><path d="M18.868 80.15l-6.977-.16a1.979 1.979 0 0 1-1.932-2.024l.847-36.794a1.979 1.979 0 0 1 2.024-1.932l6.977.16a1.979 1.979 0 0 1 1.932 2.024l-.847 36.794a1.979 1.979 0 0 1-2.024 1.933m11.927.274l-6.977-.16a1.979 1.979 0 0 1-1.933-2.024l.848-36.794a1.979 1.979 0 0 1 2.024-1.933l6.977.161a1.979 1.979 0 0 1 1.932 2.024l-.848 36.794a1.979 1.979 0 0 1-2.023 1.932m11.927.275l-6.977-.16a1.979 1.979 0 0 1-1.933-2.024l.848-36.794a1.979 1.979 0 0 1 2.024-1.933l6.977.16a1.979 1.979 0 0 1 1.932 2.025l-.848 36.794a1.979 1.979 0 0 1-2.023 1.932m11.927.275l-6.977-.16a1.979 1.979 0 0 1-1.933-2.024l.848-36.794a1.979 1.979 0 0 1 2.024-1.933l6.977.16a1.979 1.979 0 0 1 1.932 2.024l-.848 36.795a1.979 1.979 0 0 1-2.023 1.932m11.926.275l-6.976-.16a1.979 1.979 0 0 1-1.933-2.025l.848-36.794a1.979 1.979 0 0 1 2.024-1.932l6.977.16a1.978 1.978 0 0 1 1.932 2.024L68.6 79.317a1.979 1.979 0 0 1-2.024 1.933m11.926.275l-6.976-.161a1.979 1.979 0 0 1-1.933-2.024l.848-36.794a1.979 1.979 0 0 1 2.024-1.932l6.977.16a1.979 1.979 0 0 1 1.932 2.024l-.848 36.794a1.979 1.979 0 0 1-2.024 1.933m11.928.275l-6.977-.161a1.979 1.979 0 0 1-1.933-2.024l.848-36.794a1.979 1.979 0 0 1 2.024-1.932l6.976.16a1.979 1.979 0 0 1 1.933 2.024l-.848 36.794a1.979 1.979 0 0 1-2.024 1.933" fill="#FFF"/><path d="M84.281 60.775l-5.645-.13a1.797 1.797 0 0 1-1.756-1.838l.421-18.273a1.797 1.797 0 0 1 1.839-1.755l5.645.13a1.797 1.797 0 0 1 1.756 1.838l-.422 18.272a1.797 1.797 0 0 1-1.838 1.756M24.647 59.4L19 59.27a1.797 1.797 0 0 1-1.755-1.838l.42-18.272a1.797 1.797 0 0 1 1.839-1.756l5.646.13a1.797 1.797 0 0 1 1.755 1.839l-.421 18.272a1.797 1.797 0 0 1-1.838 1.756m11.928.274l-5.646-.13a1.797 1.797 0 0 1-1.755-1.838l.42-18.272a1.797 1.797 0 0 1 1.839-1.756l5.646.13a1.797 1.797 0 0 1 1.755 1.839l-.421 18.272a1.797 1.797 0 0 1-1.838 1.755m23.854.55l-5.646-.13a1.797 1.797 0 0 1-1.755-1.838l.42-18.273a1.797 1.797 0 0 1 1.839-1.755l5.645.13a1.797 1.797 0 0 1 1.756 1.838l-.421 18.273a1.797 1.797 0 0 1-1.838 1.755m11.926.275l-5.645-.13a1.797 1.797 0 0 1-1.756-1.838l.421-18.273a1.797 1.797 0 0 1 1.839-1.755l5.645.13a1.797 1.797 0 0 1 1.756 1.838l-.421 18.273a1.797 1.797 0 0 1-1.839 1.755" fill="#27221F"/></g></svg>