<svg width="120" height="120" viewBox="0 0 120 120" xmlns="http://www.w3.org/2000/svg" xmlns:xlink="http://www.w3.org/1999/xlink"><defs><path id="a" d="M0 .49h91.021v47.015H0z"/></defs><g fill="none" fill-rule="evenodd"><path d="M118.017 72.882c0 5.867-4.766 10.623-10.645 10.623H10.645C4.765 83.505 0 78.75 0 72.882V49.097c0-5.867 4.765-10.623 10.645-10.623h96.727c5.88 0 10.645 4.756 10.645 10.623v23.785z" fill="#0A3633"/><path d="M120 70.904c0 5.866-4.765 10.622-10.645 10.622H12.628c-5.88 0-10.645-4.756-10.645-10.622V47.117c0-5.867 4.766-10.622 10.645-10.622h96.727c5.88 0 10.645 4.755 10.645 10.622v23.787z" fill="#06BCCB"/><path d="M115.041 70.507c0 3.352-2.723 6.07-6.082 6.07h-96.43c-3.36 0-6.083-2.718-6.083-6.07V47.018c0-3.352 2.724-6.07 6.083-6.07h96.43c3.359 0 6.082 2.718 6.082 6.07v23.49z" fill="#7EE7E0"/><path d="M39.678 55.355c.486-2.09.969-4.017 1.447-5.778.132-.477.334-.773.607-.889.271-.115.671-.107 1.2.025.247.066.47.123.667.173.198.049.392.115.582.197.19.083.392.181.606.297.214.115.462.263.742.444.478.296.747.596.805.901.057.305.02.67-.112 1.099-.38 1.218-.775 2.6-1.187 4.148-.413 1.547-.822 3.12-1.225 4.715a563.837 563.837 0 0 0-1.163 4.68 299.25 299.25 0 0 0-.953 4.011c-.098.626-.593.84-1.484.643a16.43 16.43 0 0 1-2.325-.643 2.614 2.614 0 0 1-1.535-1.48 22.578 22.578 0 0 1-.705-1.779 69.116 69.116 0 0 1-.73-2.184c-.247-.782-.495-1.597-.742-2.445a68.635 68.635 0 0 1-.693-2.556 408.974 408.974 0 0 1-.556 3.062l-.545 2.926c-.173.93-.33 1.794-.47 2.592-.14.8-.252 1.494-.334 2.087-.066.28-.172.456-.321.53-.149.075-.438.054-.866-.061a84.642 84.642 0 0 1-1.2-.309 4.44 4.44 0 0 1-1.175-.506c-.363-.18-.607-.39-.73-.63-.124-.238-.17-.571-.136-1a116.719 116.719 0 0 1 .457-4.703c.124-1.045.265-2.164.421-3.358a171.986 171.986 0 0 1 1.064-7 76.26 76.26 0 0 1 .557-2.938c.115-.493.321-.802.618-.925.297-.124.7-.12 1.212.012.61.18 1.204.362 1.782.543.577.181 1.179.42 1.806.716.51.214.874.482 1.089.802.214.321.37.795.47 1.42a194.979 194.979 0 0 0 .767 4.234c.164.865.337 1.754.519 2.667.181.914.363 1.79.544 2.63a84.42 84.42 0 0 1 1.225-6.37m9.822-5.827a53.219 53.219 0 0 1 2.722-.544 60.524 60.524 0 0 1 2.92-.432 33.272 33.272 0 0 1 2.98-.234c.94-.017 1.543.346 1.806 1.086.215.395.364.753.446 1.074.082.32.165.67.247 1.05.066.428.033.715-.098.864-.133.148-.438.255-.916.32-.99.116-2.013.231-3.068.346-1.056.116-2.169.256-3.34.42a39.68 39.68 0 0 0-.693 2.308c-.214.8-.454 1.634-.717 2.507.494-.066.99-.116 1.484-.149a44.333 44.333 0 0 1 1.583-.073c.462-.017.826.024 1.089.123.264.099.487.313.668.642.198.33.35.654.459.975.106.321.2.646.284.975.131.38.143.634.037.766-.108.131-.392.247-.854.345-.99.182-2 .354-3.03.519a67.895 67.895 0 0 0-2.982.543c-.132.527-.256 1.025-.371 1.494-.116.469-.24.934-.372 1.395A44.779 44.779 0 0 1 52 65.527a40.16 40.16 0 0 1 2.289-.198c.46-.033.82 0 1.076.1.256.098.474.295.655.592.198.33.35.638.458.926.107.288.227.58.359.876.082.33.082.556 0 .68-.083.123-.347.226-.792.308a345.35 345.35 0 0 0-3.216.617 263.11 263.11 0 0 1-3.117.593c-.66.164-1.16.201-1.498.11a2.985 2.985 0 0 1-.878-.382c-.28-.181-.548-.366-.804-.556a16.93 16.93 0 0 1-.903-.728 2.51 2.51 0 0 1-.656-.815c-.156-.312-.218-.691-.185-1.135l2.35-16.42c.71-.18 1.497-.37 2.363-.567" fill="#FAFCFB"/><path d="M70.704 51.528a57.03 57.03 0 0 1 2.338-2.815c.329-.379.668-.568 1.014-.568.181 0 .363.033.544.098.182.067.363.157.544.272.38.296.751.654 1.114 1.074.362.42.66.811.89 1.173.281.445.38.856.298 1.234-.083.38-.273.741-.57 1.087-.89 1.037-1.909 2.218-3.055 3.543a876.768 876.768 0 0 0-3.575 4.16c.693 1.647 1.34 3.182 1.942 4.605a441.873 441.873 0 0 0 1.62 3.79c.38.576.207.914-.52 1.012a13.31 13.31 0 0 1-2.572 0c-.445-.05-.792-.16-1.04-.333-.247-.173-.51-.457-.791-.852-.197-.28-.491-.802-.878-1.568-.388-.765-.846-1.707-1.373-2.827a85.06 85.06 0 0 0-2.412 3.025 67.938 67.938 0 0 1-1.943 2.457c-.396.494-.915.535-1.559.124a7.25 7.25 0 0 1-.742-.495 9.32 9.32 0 0 1-.755-.63 5.463 5.463 0 0 1-.606-.653c-.164-.214-.255-.396-.272-.544 0-.115.021-.247.062-.395.041-.148.128-.32.26-.519a66.922 66.922 0 0 1 2.313-3.394 117.355 117.355 0 0 1 3.204-4.235c-.396-.84-.791-1.682-1.188-2.53-.396-.848-.77-1.667-1.125-2.457-.355-.79-.684-1.53-.99-2.222-.305-.692-.564-1.3-.78-1.827-.197-.527-.246-.884-.148-1.074.1-.19.388-.317.866-.383a3.03 3.03 0 0 1 .371-.024h1.089a24.045 24.045 0 0 1 1.583.049c.577.082 1.023.267 1.337.555.313.288.585.671.816 1.148.264.675.557 1.395.879 2.161.321.765.655 1.568 1.001 2.407a358.409 358.409 0 0 1 2.809-3.63" fill="#FAFCFB"/><path d="M91.696 52.675c-.758.075-1.542.153-2.35.235l-1.077 4.296c-.37 1.481-.729 2.95-1.076 4.407a270.66 270.66 0 0 0-.977 4.26 144.705 144.705 0 0 0-.804 3.876c-.033.23-.11.383-.235.457-.124.074-.293.107-.508.098a3.113 3.113 0 0 1-.741-.135 183.25 183.25 0 0 0-.94-.272 8.68 8.68 0 0 1-.94-.321 2.534 2.534 0 0 1-.706-.42 1.406 1.406 0 0 1-.408-.58c-.083-.222-.091-.49-.025-.802.05-.79.148-1.762.297-2.914.148-1.152.326-2.37.532-3.654a141.307 141.307 0 0 1 1.422-7.53c-.478.082-.94.152-1.385.21a8.372 8.372 0 0 0-1.113.21c-.413.098-.751.11-1.015.036-.264-.074-.561-.284-.89-.63a5.684 5.684 0 0 1-.953-1.308 44.05 44.05 0 0 1-.705-1.333c-.198-.379-.247-.63-.148-.753.098-.124.305-.226.618-.309a50.11 50.11 0 0 1 3.303-.543 126.37 126.37 0 0 1 7.521-.777c1.229-.09 2.33-.153 3.303-.186.511 0 .878.046 1.101.136a1.4 1.4 0 0 1 .582.457c.33.378.601.79.816 1.234.215.444.38.88.495 1.308.099.38.103.64.012.779-.09.14-.392.226-.903.259-.643.066-1.344.136-2.103.21" fill="#FAFCFB"/><g transform="translate(0 36.006)"><mask id="b" fill="#fff"><use xlink:href="#a"/></mask><path d="M55.623 8.919c1.05-.325 2.103-.645 3.159-.956.507-.149 1.014-.298 1.522-.445 1.13-.324 2.265-.64 3.402-.95.383-.105.764-.213 1.147-.316a288.75 288.75 0 0 1 4.326-1.12l.16-.039c1.166-.291 2.334-.577 3.504-.855l.008-.001c1.164-.277 2.33-.543 3.497-.804l.801-.18c1.164-.257 2.328-.5 3.492-.746C84.1 1.778 87.565.984 91.02.49H12.545c-3.457 0-6.456 1.641-8.4 4.189C1.591 6.618 0 9.663 0 13.114v23.774c0 5.835 4.652 10.567 10.487 10.617.392-.93.777-1.85 1.208-2.761.263-.553.517-1.102.793-1.648.1-.196.189-.394.29-.589.146-.28.293-.555.442-.832.13-.242.259-.665.391-.906.004-.005.005-.197.008-.197.308-.495.625-.916.95-1.458.033-.058.068-.023.103-.08.281-.468.57-.887.865-1.347.068-.106.136-.188.204-.295.27-.413.546-.812.825-1.22l.246-.353c.352-.504.711-1 1.082-1.493 8.192-10.902 18.95-19.108 31.913-23.527 1.465-.499 2.942-.979 4.424-1.449.464-.146.928-.287 1.392-.431" fill="#FAFCFB" opacity=".4" mask="url(#b)"/></g></g></svg>