<svg width="120" height="120" viewBox="0 0 120 120" xmlns="http://www.w3.org/2000/svg" xmlns:xlink="http://www.w3.org/1999/xlink"><defs><path id="a" d="M.584.307h69.018v28.012H.584z"/><path id="c" d="M0 118.938h106.205V.307H0z"/></defs><g fill="none" fill-rule="evenodd"><path fill="#FAD35D" d="M36.119 40.254h47.969v-11.18h-47.97z"/><g transform="translate(7 .755)"><path d="M38.063 29.185c-1.888 0-2.728 1.084-2.728 3.451v6.705h5.455v-6.705c0-2.367-.844-3.451-2.726-3.451m7.519 0c-1.885 0-2.727 1.084-2.727 3.451v6.705h5.454v-6.705c0-2.367-.839-3.451-2.727-3.451m7.519 0c-1.888 0-2.726 1.084-2.726 3.451v6.705h5.453v-6.705c0-2.367-.838-3.451-2.727-3.451m7.52 0c-1.888 0-2.728 1.084-2.728 3.451v6.705h5.456v-6.705c0-2.367-.842-3.451-2.728-3.451m7.518 0c-1.883 0-2.724 1.084-2.724 3.451v6.705h5.454v-6.705c0-2.367-.84-3.451-2.73-3.451" fill="#613630"/><g transform="translate(18.01)"><mask id="b" fill="#fff"><use xlink:href="#a"/></mask><path d="M62.098 23.863c-4.999-.057-7.664-7.353-7.612-8.245C49.896.586 35.092.307 35.092.307S20.29.586 15.7 15.617c.052.893-2.616 8.19-7.612 8.246-5.59.064-7.504-4.68-7.504-4.68.389 8.858 10.168 9.136 10.168 9.136h48.68s9.782-.278 10.17-9.135c0 0-1.917 4.743-7.504 4.679" fill="#7DBAFF" mask="url(#b)"/></g><mask id="d" fill="#fff"><use xlink:href="#c"/></mask><path fill="#FAD35D" mask="url(#d)" d="M15.652 118.938h72.51V96.31h-72.51z"/><path fill="#D93D30" mask="url(#d)" d="M15.652 118.938h72.51v-3.772h-72.51z"/><path fill="#FAD35D" mask="url(#d)" d="M23.089 77.452h60.028V58.72H23.089z"/><path fill="#D93D30" mask="url(#d)" d="M23.089 77.452h60.028V74.33H23.089z"/><path fill="#FAD35D" mask="url(#d)" d="M29.119 43.286h47.969v-3.787h-47.97z"/><path fill="#D93D30" mask="url(#d)" d="M29.119 43.287h47.969v-2.494h-47.97z"/><path d="M23.847 99.738c-2.361 0-3.412 1.446-3.412 4.601v8.942h6.824v-8.942c0-3.155-1.05-4.601-3.412-4.601m9.408 0c-2.36 0-3.413 1.446-3.413 4.601v8.942h6.823v-8.942c0-3.155-1.049-4.601-3.41-4.601m9.405 0c-2.358 0-3.408 1.446-3.408 4.601v8.942h6.823v-8.942c0-3.155-1.052-4.601-3.414-4.601m9.409 0c-2.361 0-3.41 1.446-3.41 4.601v8.942h6.822v-8.942c0-3.155-1.05-4.601-3.412-4.601m9.407 0c-2.36 0-3.412 1.446-3.412 4.601v8.942h6.824v-8.942c0-3.155-1.05-4.601-3.412-4.601m9.409 0c-2.361 0-3.411 1.446-3.411 4.601v8.942h6.821v-8.942c0-3.155-1.05-4.601-3.41-4.601M33.255 59.452c-2.36 0-3.413 1.445-3.413 4.6v8.941h6.823v-8.941c0-3.155-1.049-4.6-3.41-4.6m9.405 0c-2.358 0-3.408 1.445-3.408 4.6v8.941h6.823v-8.941c0-3.155-1.052-4.6-3.414-4.6m9.409 0c-2.361 0-3.41 1.445-3.41 4.6v8.941h6.822v-8.941c0-3.155-1.05-4.6-3.412-4.6m9.407 0c-2.36 0-3.412 1.445-3.412 4.6v8.941h6.824v-8.941c0-3.155-1.05-4.6-3.412-4.6m9.409 0c-2.361 0-3.411 1.445-3.411 4.6v8.941h6.821v-8.941c0-3.155-1.05-4.6-3.41-4.6m9.407 40.286c-2.362 0-3.41 1.446-3.41 4.601v8.942h6.822v-8.942c0-3.155-1.051-4.601-3.412-4.601" fill="#613630" mask="url(#d)"/><path d="M94.658 90.137c-7.692-.086-11.796-11.312-11.711-12.685H23.258c.085 1.373-4.018 12.599-11.713 12.685C2.948 90.235 0 82.937 0 82.937c.597 13.629 15.65 14.057 15.65 14.057h74.903s15.052-.428 15.651-14.057c0 0-2.948 7.298-11.547 7.2M86.669 53.36c-6.212-.068-9.528-9.14-9.46-10.247H28.995c.068 1.107-3.247 10.179-9.46 10.247-6.946.076-9.33-5.817-9.33-5.817.486 11.009 12.64 11.356 12.64 11.356h60.512s12.155-.347 12.64-11.356c0 0-2.382 5.893-9.33 5.817" fill="#7DBAFF" mask="url(#d)"/></g></g></svg>