<svg width="120" height="120" viewBox="0 0 120 120" xmlns="http://www.w3.org/2000/svg"><g fill="none" fill-rule="evenodd"><path fill="#26484C" d="M52.771 98.97h20.777V0H52.771z"/><path fill="#1F3B3F" d="M55.675 5.572h4.036V3.89h-4.036zm0 4.063h4.036V7.953h-4.036zm0 4.063h4.036v-1.683h-4.036zm0 4.062h4.036v-1.682h-4.036zm0 4.064h4.036V20.14h-4.036z"/><path fill="#CFD1D2" d="M55.675 25.887h4.036v-1.683h-4.036zm0 4.063h4.036v-1.684h-4.036zm0 4.062h4.036V32.33h-4.036zm0 4.063h4.036v-1.683h-4.036z"/><path fill="#1F3B3F" d="M61.439 5.572h4.036V3.89h-4.036zm0 4.063h4.036V7.953h-4.036zm0 4.063h4.036v-1.683h-4.036zm0 4.062h4.036v-1.682h-4.036zm0 4.064h4.036V20.14h-4.036z"/><path fill="#CFD1D2" d="M61.439 25.887h4.036v-1.683h-4.036zm0 4.063h4.036v-1.684h-4.036zm0 4.062h4.036V32.33h-4.036zm0 4.063h4.036v-1.683h-4.036z"/><path fill="#1F3B3F" d="M67.202 5.572h4.036V3.89h-4.036zm0 4.063h4.036V7.953h-4.036zm0 4.063h4.036v-1.683h-4.036zm0 4.062h4.036v-1.682h-4.036zm0 4.064h4.036V20.14h-4.036zm0 4.063h4.036v-1.683h-4.036zm0 4.063h4.036v-1.684h-4.036zm0 4.062h4.036V32.33h-4.036zm0 4.063h4.036v-1.683h-4.036z"/><path fill="#162B2E" d="M55.675 5.572h.989V3.89h-.99zm0 4.063h.989V7.953h-.99zm0 4.063h.989v-1.683h-.99zm0 4.062h.989v-1.682h-.99zm0 4.064h.989V20.14h-.99z"/><path fill="#BABCBE" d="M55.675 25.887h.989v-1.683h-.99zm0 4.063h.989v-1.684h-.99zm0 4.062h.989V32.33h-.99zm0 4.063h.989v-1.683h-.99z"/><path fill="#162B2E" d="M61.439 5.572h.98V3.89h-.98zm0 4.063h.98V7.953h-.98zm0 4.063h.98v-1.683h-.98zm0 4.062h.98v-1.682h-.98zm0 4.064h.98V20.14h-.98z"/><path fill="#BABCBE" d="M61.439 25.887h.98v-1.683h-.98zm0 4.063h.98v-1.684h-.98zm0 4.062h.98V32.33h-.98zm0 4.063h.98v-1.683h-.98z"/><path fill="#162B2E" d="M67.202 5.572h.918V3.89h-.918zm0 4.063h.918V7.953h-.918zm0 4.063h.918v-1.683h-.918zm0 4.062h.918v-1.682h-.918zm0 4.064h.918V20.14h-.918z"/><path fill="#BABCBE" d="M67.202 25.887h.918v-1.683h-.918zm0 4.063h.918v-1.684h-.918zm0 4.062h.918V32.33h-.918zm0 4.063h.918v-1.683h-.918z"/><path fill="#477479" d="M38 119.742h39.403V43.106H38z"/><path fill="#477479" d="M46.884 95.898h21.634v-71.76H46.884z"/><path d="M42.64 52.758h30.123v-4.02H42.64zm0 5.959h30.123v-4.02H42.64zm0 5.96h30.123v-4.021H42.64zm0 5.958h30.123v-4.02H42.64zm0 11.918h30.123v-4.02H42.64zm0-5.958h30.123v-4.021H42.64zm0 11.918h30.123v-4.021H42.64zm0 5.959h30.123V90.45H42.64zm8.16-63.283h13.802v-4.022H50.8zm0 5.958h13.802v-4.02H50.8zm0 5.959h13.802v-4.02H50.8z" fill="#3A5F63"/><path fill="#2C4344" d="M41.852 53.665H73.53v-1.063H41.852zm0 5.837H73.53V58.44H41.852zm0 5.838H73.53v-1.063H41.852zm0 5.837H73.53v-1.063H41.852zm0 5.838H73.53v-1.063H41.852zm0 5.837H73.53V81.79H41.852zm0 5.838H73.53v-1.063H41.852zm0 6.344H73.53V93.97H41.852zm7.879-51.5h16.007v-.855H49.73zm0-5.959h16.007v-.856H49.73zm0-5.959h16.007v-.855H49.73z"/><path fill="#26484C" d="M64.362 119.742h18.524v-72.13H64.362z"/><path d="M67.715 56.28h5.91v-5.738h-5.91zm0 8.504h5.91v-5.738h-5.91zm0 8.504h5.91V67.55h-5.91zm0 8.504h5.91v-5.738h-5.91zm0 17.008h5.91v-5.74h-5.91zm0-8.504h5.91v-5.738h-5.91zm0 17.008h5.91v-5.739h-5.91zm0 8.503h5.91v-5.738h-5.91z" fill="#1F3B3F"/></g></svg>