<svg width="120" height="120" viewBox="0 0 120 120" xmlns="http://www.w3.org/2000/svg"><g fill="none" fill-rule="evenodd"><path d="M73.987 107.135c0 7.493-6.006 13.565-13.415 13.565h-2.157C51.006 120.7 45 114.628 45 107.135V21.47c0-7.492 6.006-13.565 13.415-13.565h2.157c7.41 0 13.415 6.073 13.415 13.565v85.666z" fill="#006973"/><path d="M73.987 100.232c0 7.491-6.006 13.564-13.415 13.564h-2.157c-7.409 0-13.415-6.073-13.415-13.564V14.565C45 7.073 51.006 1 58.415 1h2.157c7.41 0 13.415 6.073 13.415 13.565v85.667z" fill="#4AAEB8"/><path d="M67.894 79.43c0 4.69-3.761 8.494-8.401 8.494-4.639 0-8.4-3.804-8.4-8.495 0-4.692 3.761-8.494 8.4-8.494 4.64 0 8.4 3.802 8.4 8.494" fill="#006973"/><path d="M59.493 72.114c4.444 0 8.079 3.489 8.378 7.905.013-.195.023-.39.023-.59 0-4.692-3.761-8.494-8.4-8.494-4.64 0-8.4 3.802-8.4 8.494 0 .2.009.395.022.59.3-4.416 3.934-7.905 8.377-7.905" fill="#00464D"/><path d="M65.185 76.69h-2.983v-3.017c0-1.512-1.213-2.738-2.709-2.738-1.495 0-2.708 1.226-2.708 2.738v3.018h-2.984c-1.495 0-2.708 1.226-2.708 2.738 0 1.513 1.213 2.738 2.708 2.738h2.984v3.018c0 1.513 1.213 2.738 2.708 2.738 1.496 0 2.709-1.225 2.709-2.738v-3.018h2.983c1.496 0 2.709-1.225 2.709-2.738 0-1.512-1.213-2.738-2.709-2.738" fill="#FF4343"/><path d="M56.786 81.41h-2.984c-1.368 0-2.497-1.028-2.68-2.36-.017.124-.028.25-.028.379 0 1.513 1.212 2.738 2.708 2.738h2.984v-.758zm8.399 0h-2.983v.757h2.983c1.496 0 2.709-1.225 2.709-2.738 0-.129-.013-.255-.03-.38-.183 1.333-1.31 2.36-2.679 2.36m-5.692 5.756c-1.495 0-2.708-1.226-2.708-2.739v.76c0 1.511 1.213 2.738 2.708 2.738 1.496 0 2.709-1.227 2.709-2.739v-.759c0 1.513-1.213 2.739-2.709 2.739" fill="#D43838"/><path d="M59.493 30.03c-1.527 0-2.766 1.252-2.766 2.797 0 1.545 1.239 2.797 2.766 2.797 1.528 0 2.766-1.252 2.766-2.797 0-1.545-1.238-2.796-2.766-2.796" fill="#C4C4C4"/><path d="M59.493 29.088c-1.527 0-2.766 1.252-2.766 2.796 0 1.545 1.239 2.797 2.766 2.797 1.528 0 2.766-1.252 2.766-2.797 0-1.544-1.238-2.796-2.766-2.796" fill="#FFF"/><path d="M59.493 40.18c-1.527 0-2.766 1.252-2.766 2.797 0 1.545 1.239 2.796 2.766 2.796 1.528 0 2.766-1.251 2.766-2.796s-1.238-2.797-2.766-2.797" fill="#C4C4C4"/><path d="M59.493 39.238c-1.527 0-2.766 1.25-2.766 2.796 0 1.544 1.239 2.797 2.766 2.797 1.528 0 2.766-1.253 2.766-2.797 0-1.545-1.238-2.796-2.766-2.796" fill="#FFF"/><path d="M59.493 9.731c-1.527 0-2.766 1.252-2.766 2.797 0 1.544 1.239 2.796 2.766 2.796 1.528 0 2.766-1.252 2.766-2.796 0-1.545-1.238-2.797-2.766-2.797" fill="#E07D2A"/><path d="M59.493 8.788c-1.527 0-2.766 1.252-2.766 2.797 0 1.544 1.239 2.796 2.766 2.796 1.528 0 2.766-1.252 2.766-2.796 0-1.545-1.238-2.797-2.766-2.797" fill="#FFB76B"/><path d="M59.493 19.88c-1.527 0-2.766 1.253-2.766 2.797 0 1.545 1.239 2.797 2.766 2.797 1.528 0 2.766-1.252 2.766-2.797 0-1.544-1.238-2.797-2.766-2.797" fill="#E07D2A"/><path d="M59.493 18.938c-1.527 0-2.766 1.252-2.766 2.796 0 1.545 1.239 2.797 2.766 2.797 1.528 0 2.766-1.252 2.766-2.797 0-1.544-1.238-2.796-2.766-2.796" fill="#FFB76B"/><path d="M64.119 64.752a.824.824 0 0 1-.82.828h-7.612a.823.823 0 0 1-.819-.828c0-.458.367-.829.819-.829H63.3c.452 0 .819.37.819.829" fill="#FFF"/><path d="M66.048 97.472l-6.727-6.802a.567.567 0 0 0-.808 0 .583.583 0 0 0 0 .817l6.727 6.802a.566.566 0 0 0 .808 0 .583.583 0 0 0 0-.817m-9.514-4.366a.567.567 0 0 0-.808 0 .582.582 0 0 0 0 .817l6.727 6.802a.567.567 0 0 0 .808 0 .583.583 0 0 0 0-.817l-6.727-6.802zm-2.787 3.201a.566.566 0 0 0-.808 0 .583.583 0 0 0 0 .817l6.727 6.802a.567.567 0 0 0 .808 0 .583.583 0 0 0 0-.817l-6.727-6.802z" fill="#006973"/><path d="M64.119 60.747a.824.824 0 0 1-.82.828h-7.612a.823.823 0 0 1-.819-.828c0-.458.367-.828.819-.828H63.3c.452 0 .819.37.819.828" fill="#FFF"/></g></svg>