<svg width="120" height="120" viewBox="0 0 120 120" xmlns="http://www.w3.org/2000/svg"><g fill="none" fill-rule="evenodd"><path d="M52.41 65.296a90.412 90.412 0 0 0 17.42-8.55 90.512 90.512 0 0 0 2.837-25.861l1.995-.071a92.475 92.475 0 0 1-2.373 24.318 90.135 90.135 0 0 0 22.5-21.877l1.619 1.172a92.464 92.464 0 0 1-15.764 16.91 89.927 89.927 0 0 0 23.824-2.131l.44 1.95a92.079 92.079 0 0 1-20.322 2.274 92.17 92.17 0 0 1-6.26-.224 91.69 91.69 0 0 1-6.756 4.815l-.023.097-.093-.026a92.328 92.328 0 0 1-18.364 9.085l-.68-1.88z" fill="#A4A799"/><path d="M103.265 32.108a4.283 4.283 0 0 1-1.208-5.928 4.265 4.265 0 0 1 5.917-1.21 4.28 4.28 0 0 1 1.21 5.927 4.267 4.267 0 0 1-5.92 1.21m-8.97 5.843a4.28 4.28 0 0 1-1.208-5.929 4.26 4.26 0 0 1 5.916-1.21 4.283 4.283 0 0 1 1.21 5.926 4.27 4.27 0 0 1-5.918 1.212M93.248 27.23a4.28 4.28 0 0 1-1.21-5.927 4.267 4.267 0 0 1 5.917-1.21 4.277 4.277 0 0 1 1.21 5.926 4.266 4.266 0 0 1-5.917 1.212m-23.487 5.773a4.267 4.267 0 0 1 4.672-3.83 4.274 4.274 0 0 1 3.827 4.68 4.274 4.274 0 0 1-4.674 3.832 4.276 4.276 0 0 1-3.825-4.682m-9.341-5.232a4.28 4.28 0 0 1 4.677-3.834 4.275 4.275 0 0 1 3.823 4.682 4.271 4.271 0 0 1-4.676 3.833 4.279 4.279 0 0 1-3.825-4.68m8.984-5.92a4.275 4.275 0 0 1 4.675-3.832 4.276 4.276 0 0 1 3.826 4.682 4.27 4.27 0 1 1-8.5-.85m40.92 33.41a4.264 4.264 0 0 1 5.178-3.11 4.274 4.274 0 0 1 3.104 5.187 4.27 4.27 0 1 1-8.282-2.077m-8.483-6.537a4.273 4.273 0 0 1 5.181-3.11 4.278 4.278 0 0 1 3.105 5.188 4.272 4.272 0 0 1-5.18 3.112 4.279 4.279 0 0 1-3.106-5.19m9.748-4.551a4.267 4.267 0 0 1 5.178-3.108 4.273 4.273 0 0 1 3.103 5.187 4.272 4.272 0 0 1-5.18 3.115 4.28 4.28 0 0 1-3.101-5.194M44.315 99.977h5.349a1.483 1.483 0 0 0 0-2.965H45.82L37.53 85.63a1.478 1.478 0 0 0-2.067-.323 1.482 1.482 0 0 0-.324 2.07l9.176 12.6zm-6.612 1.406a1.48 1.48 0 0 0 1.436-1.133 1.48 1.48 0 0 0-1.09-1.79l-3.736-.907-5.367-13.024a1.478 1.478 0 0 0-1.932-.805 1.484 1.484 0 0 0-.804 1.936l5.943 14.42 5.2 1.26c.116.03.233.043.35.043m16.763-51.809c-.424.827-.842 1.652-1.261 2.476-4.519-.207-8.715-1.918-11.89-4.78.76-1.5 1.516-2.995 2.28-4.494 2.833 3.537 6.689 5.917 10.87 6.798" fill="#BA9746"/><path d="M88.742 71.848c.119-.054-18.466 16.8-31.605 16.403-13.369-.068-19.904-10.005-18.46-16.421 1.41-6.641 7.946-5.817 19.695-3.267 11.432 3.771 30.417 4.143 30.37 3.285" fill="#D77822"/><path d="M53.7 74.368c2.395-.97 4.014-3.3 4.003-3.29-.018.022-2.46-.566-4.66.211-2.212.802-3.666 2.99-3.678 3-.027.017 1.909 1.071 4.336.079m6.834 3.742c2.829-1.453 4.541-3.858 4.532-3.844-.01.026-3.01.202-5.717 1.422-2.708 1.242-4.293 3.452-4.302 3.467-.02.02 2.63.43 5.487-1.045m6.028 4.136c3.55-1.01 6.39-3.38 6.383-3.352.004.016-3.113.413-6.609 1.17-3.506.782-6.074 2.107-6.083 2.135-.01.008 2.726 1.09 6.309.047" fill="#FEFEFE"/><path d="M47.434 62.272a10.006 10.006 0 0 1-1.222-4.807c0-5.553 4.49-10.05 10.031-10.05 5.546 0 10.038 4.497 10.038 10.05 0 5.547-4.492 10.05-10.038 10.05a10.04 10.04 0 0 1-1.805-.172c.004.189.025.373.025.563 0 12.85-9.824 23.268-21.945 23.268-8.898 0-16.54-5.621-19.986-13.697l34.902-15.205z" fill="#E7D6B7"/><path d="M14.385 76.719c-.422.827-.84 1.652-1.26 2.479-4.52-.211-8.714-1.92-11.889-4.782.76-1.496 1.517-2.997 2.277-4.49 2.834 3.532 6.69 5.913 10.872 6.793m48.052-17.472c0 .982 1.45 1.78 3.238 1.78 1.787 0 5.823-1.575 5.823-1.575s-4.036-1.987-5.823-1.987c-1.787 0-3.238.798-3.238 1.782" fill="#BA9746"/><path d="M56.927 54.266a1.715 1.715 0 1 0 3.43 0c0-.95-.77-1.717-1.716-1.717-.949 0-1.714.767-1.714 1.717" fill="#685D4F"/><path d="M14.559 31.701c-.025-.128-3.04 24.8 4.866 35.32 7.771 10.892 19.645 10.502 24.043 5.616 4.603-4.985.157-9.854-8.703-17.992C25.09 47.47 13.834 32.16 14.56 31.701" fill="#D77822"/><path d="M35.446 63.225c-.592-2.521.377-5.187.371-5.17-.006.025 1.884 1.683 2.517 3.93.624 2.274-.322 4.723-.322 4.74 0 .03-1.973-.943-2.566-3.5m-6.997-3.431c-.447-3.15.524-5.94.517-5.924-.014.022 1.576 2.58 2.145 5.498.547 2.93-.338 5.502-.345 5.518-.005.026-1.868-1.905-2.317-5.092m-6.851-2.542c-1.224-3.488-.932-7.176-.949-7.155-.02.006 1.458 2.785 2.862 6.08 1.383 3.319 1.785 6.184 1.767 6.207.002.013-2.462-1.601-3.68-5.132" fill="#FEFEFE"/></g></svg>