<svg width="120" height="120" viewBox="0 0 120 120" xmlns="http://www.w3.org/2000/svg" xmlns:xlink="http://www.w3.org/1999/xlink"><defs><path id="a" d="M.36.22h15.808v19.627H.361z"/><path id="c" d="M.157.103h105.86v70.013H.158z"/></defs><g fill="none" fill-rule="evenodd"><g transform="matrix(-1 0 0 1 76.117 80.05)"><mask id="b" fill="#fff"><use xlink:href="#a"/></mask><path d="M16.006 16.733c-.063-.08-.13-.187-.225-.296a2.984 2.984 0 0 0-.346-.346 3.401 3.401 0 0 0-.479-.341 4.123 4.123 0 0 0-.6-.287 5.535 5.535 0 0 0-1.414-.307c-.914-.083-1.822.017-2.525.146.076-.243.157-.484.23-.728A102.281 102.281 0 0 0 12.29 8.51a91.1 91.1 0 0 0 .458-2.046c.145-.685.282-1.371.402-2.062l.185-1.036.16-1.043c.057-.346.095-.698.14-1.048.047-.35.08-.702.112-1.056-.158.318-.312.638-.453.96-.142.323-.292.644-.422.97l-.404.974-.378.982a57.12 57.12 0 0 0-.724 1.971c-.233.66-.452 1.324-.668 1.988A101.611 101.611 0 0 0 8.96 14.1c-.11.427-.21.857-.311 1.285-.14-.025-.278-.053-.417-.07a9.53 9.53 0 0 0-1.27-.065 9.283 9.283 0 0 0-2.463.391 9.23 9.23 0 0 0-1.157.422A10.124 10.124 0 0 0 .36 18.079a25.18 25.18 0 0 1 1.072-.49c.358-.151.721-.286 1.085-.406a12.27 12.27 0 0 1 2.202-.51 10.27 10.27 0 0 1 2.05-.044c-.27.164-.54.337-.803.524-.19.145-.387.276-.565.43-.18.15-.36.29-.52.447-.162.153-.32.294-.455.447-.135.152-.274.28-.379.424l-.295.375c-.083.116-.147.222-.204.306l-.172.265.232-.215c.075-.067.16-.152.266-.242l.368-.282c.128-.109.292-.198.45-.306.158-.11.34-.204.523-.306.179-.106.379-.193.575-.288.194-.098.407-.172.609-.26a13.978 13.978 0 0 1 2.763-.742l.559.265.065-.2.008.018.055-.036a9.52 9.52 0 0 1 .868-.463c.583-.276 1.398-.594 2.247-.728a4.817 4.817 0 0 1 1.254-.042 3.18 3.18 0 0 1 1.061.306c.148.074.278.155.389.235.113.077.2.16.279.223l.221.224-.162-.275" fill="#7E6033" mask="url(#b)"/></g><path d="M73.452 93.052a3.16 3.16 0 0 0-1.06.307 2.86 2.86 0 0 0-.39.234c-.113.078-.2.161-.279.223-.14.143-.222.224-.222.224l.163-.275c.062-.08.13-.186.225-.295.093-.11.207-.229.345-.347.138-.117.298-.234.48-.341a4.02 4.02 0 0 1 .6-.287 5.534 5.534 0 0 1 1.414-.307c.913-.083 1.82.017 2.523.146-.076-.243-.157-.485-.23-.728a100.75 100.75 0 0 1-1.642-6.064 88.546 88.546 0 0 1-.458-2.047 56.163 56.163 0 0 1-.402-2.061l-.185-1.036-.16-1.043c-.057-.346-.094-.698-.14-1.048-.047-.35-.08-.702-.111-1.056.157.318.31.638.452.96.142.323.292.644.422.97l.404.974.378.981c.255.654.494 1.312.724 1.972.232.66.452 1.323.668 1.988a101.611 101.611 0 0 1 1.737 6.037c.11.427.209.856.311 1.285.139-.025.278-.053.416-.07a9.48 9.48 0 0 1 1.27-.065 9.288 9.288 0 0 1 2.465.392c.394.122.785.248 1.156.421a10.06 10.06 0 0 1 2.983 2.015 24.704 24.704 0 0 0-1.072-.489 13.558 13.558 0 0 0-1.085-.406 12.287 12.287 0 0 0-2.202-.51 10.28 10.28 0 0 0-2.05-.045c.27.164.54.338.803.524.19.146.388.276.566.43.18.15.36.29.519.447.162.153.32.294.455.447.135.153.274.28.378.424l.296.376c.083.115.147.221.203.305l.173.265-.232-.215c-.075-.067-.16-.152-.266-.241l-.368-.283c-.128-.109-.293-.198-.451-.306-.157-.11-.34-.203-.522-.306-.179-.106-.379-.192-.575-.287-.194-.099-.407-.173-.609-.26a13.844 13.844 0 0 0-2.764-.742l-.558.263-.064-.197-.007.015-.056-.036-.179-.106a9.76 9.76 0 0 0-.688-.357c-.583-.276-1.399-.593-2.248-.727a4.82 4.82 0 0 0-1.254-.042" fill="#7E6033"/><path fill="#FF8633" d="M102.135 33.586L120 40.729l-18.546 5.18z"/><g transform="matrix(-1 0 0 1 106.02 21.287)"><mask id="d" fill="#fff"><use xlink:href="#c"/></mask><path d="M2.527 11.201C7.96 2.737 20.104-1.62 29.608.74c11.569 2.87 18.44 14.733 24.47 24.059 5.412 8.373 10.963 17.644 19.18 23.57a34.44 34.44 0 0 0 5.592 3.286c8.43 3.936 27.168 4.217 27.168 4.217l-6.43 14.245s-19.332-10.102-30.119-11.18c-13.532-1.354-24.97 2.852-38.72.128-16.813-3.33-24.615-17.546-29.064-31.038-2.25-6.821-2.052-12.317.842-16.825" fill="#FFCE33" mask="url(#d)"/></g><path d="M84.361 35.793a4.779 4.779 0 0 0 3.867 5.537 4.771 4.771 0 0 0 5.527-3.875 4.779 4.779 0 0 0-3.868-5.538 4.77 4.77 0 0 0-5.526 3.876" fill="#FFF"/><path d="M85.324 35.964a3.798 3.798 0 0 0 3.074 4.4 3.792 3.792 0 0 0 4.393-3.08 3.798 3.798 0 0 0-3.074-4.401 3.792 3.792 0 0 0-4.393 3.08" fill="#522918"/><path d="M80.24 59.66c-3.99 17.362-32.352 19.007-51.938 12.722a34.37 34.37 0 0 0 4.459-2.727c8.217-5.926 13.768-15.197 19.181-23.57 1.948-3.015 3.986-6.294 6.241-9.449 7 1.779 25.52 7.965 22.057 23.025" fill="#FFA133"/><path d="M78.61 57.863c1.174-5.105-.18-9.189-2.754-12.428 3.582 3.485 5.786 8.127 4.384 14.226-3.99 17.361-32.351 19.007-51.938 12.722.077-.04.155-.084.232-.124 19.476 4.924 46.323 1.929 50.076-14.396" fill="#EA942F"/><path d="M57.277 42.323l-.063.03c-.04.022-.107.049-.174.092a4.23 4.23 0 0 0-.533.375 5.222 5.222 0 0 0-1.155 1.404c-.323.565-.54 1.192-.617 1.71a4.135 4.135 0 0 0-.05.651c.003.166.017.267.017.267s.094-.04.237-.122c.144-.082.332-.209.535-.375a5.169 5.169 0 0 0 1.153-1.404 5.23 5.23 0 0 0 .615-1.71c.04-.26.053-.487.05-.652.004-.08-.008-.151-.01-.196l-.005-.07m8.363 4.217l-.063.03c-.04.022-.106.048-.173.092-.143.082-.331.21-.533.375a5.236 5.236 0 0 0-1.155 1.403c-.323.566-.54 1.192-.617 1.71a4.142 4.142 0 0 0-.05.652c.003.165.017.267.017.267s.094-.04.237-.122a4.16 4.16 0 0 0 .534-.375c.405-.332.832-.838 1.154-1.404.32-.567.536-1.194.615-1.711a4.15 4.15 0 0 0 .05-.651c.004-.08-.008-.152-.01-.196l-.005-.07m1.761 5.04l-.063.031c-.04.022-.107.048-.174.092-.143.082-.33.21-.533.375a5.236 5.236 0 0 0-1.155 1.403c-.323.566-.54 1.192-.618 1.71a4.142 4.142 0 0 0-.049.652c.003.165.016.267.016.267s.094-.04.238-.122a4.23 4.23 0 0 0 .534-.375c.405-.331.832-.837 1.153-1.404a5.24 5.24 0 0 0 .616-1.711 4.15 4.15 0 0 0 .05-.651c.004-.08-.008-.152-.01-.196l-.005-.07m-6.278 8.57l-.065.027c-.04.019-.11.04-.179.08a4.168 4.168 0 0 0-.557.34 5.236 5.236 0 0 0-1.244 1.324c-.358.543-.616 1.154-.727 1.666a4.12 4.12 0 0 0-.092.647c-.008.165 0 .267 0 .267s.095-.034.244-.106c.148-.073.345-.187.557-.339.426-.304.885-.781 1.243-1.325a5.237 5.237 0 0 0 .726-1.668 4.15 4.15 0 0 0 .092-.646c.01-.08.002-.151.003-.196v-.071m-12.448 3.693l-.07.014c-.043.01-.114.018-.19.043-.16.042-.375.116-.613.223a5.225 5.225 0 0 0-1.48 1.054 5.182 5.182 0 0 0-1.04 1.49c-.104.24-.175.456-.216.617-.04.16-.054.262-.054.262s.102-.014.261-.056c.16-.042.375-.115.614-.223.477-.214 1.02-.592 1.478-1.055a5.231 5.231 0 0 0 1.039-1.491c.104-.24.176-.456.217-.616.024-.076.03-.148.041-.192a5.84 5.84 0 0 1 .013-.07m6.013-1.405l-.066.027c-.04.019-.109.04-.179.08a4.144 4.144 0 0 0-.557.34 5.237 5.237 0 0 0-1.244 1.324c-.358.543-.616 1.154-.728 1.666a4.113 4.113 0 0 0-.09.647c-.009.165-.002.268-.002.268s.096-.034.245-.107c.148-.073.344-.187.558-.339.425-.304.884-.781 1.242-1.326a5.249 5.249 0 0 0 .726-1.666c.056-.256.084-.482.093-.647.008-.08.001-.152.002-.196v-.071m-5.803-3.059l-.07.008c-.044.007-.116.01-.194.029-.162.03-.38.088-.627.177a5.24 5.24 0 0 0-1.554.94c-.491.427-.903.946-1.148 1.409a4.11 4.11 0 0 0-.262.598c-.052.157-.073.258-.073.258s.102-.007.264-.037c.163-.03.383-.087.63-.176.49-.178 1.06-.514 1.551-.942.49-.428.902-.948 1.147-1.41a4.1 4.1 0 0 0 .263-.597c.03-.075.042-.146.055-.189l.018-.068m17.986-.425l-.065.027c-.04.02-.11.04-.18.08a4.176 4.176 0 0 0-.556.34 5.233 5.233 0 0 0-1.245 1.324c-.358.543-.616 1.154-.728 1.666a4.15 4.15 0 0 0-.09.647c-.01.165-.002.268-.002.268s.096-.034.245-.107a4.02 4.02 0 0 0 .558-.339 5.178 5.178 0 0 0 1.242-1.325 5.23 5.23 0 0 0 .726-1.667c.056-.256.084-.482.093-.646.009-.08.002-.152.003-.197l-.001-.07m-6.426-4.27l-.066.027c-.04.019-.109.04-.179.08a4.119 4.119 0 0 0-.557.339c-.424.305-.885.78-1.243 1.324-.359.543-.617 1.154-.728 1.665a4.167 4.167 0 0 0-.092.648c-.008.165-.001.267-.001.267s.096-.034.245-.106a4.12 4.12 0 0 0 .558-.339c.425-.304.884-.781 1.242-1.325a5.236 5.236 0 0 0 .726-1.667 4.18 4.18 0 0 0 .093-.646c.008-.08.001-.152.002-.196v-.071m-6.531-3.837l-.065.027c-.04.019-.11.04-.18.08a4.201 4.201 0 0 0-.556.339 5.238 5.238 0 0 0-1.244 1.324 5.196 5.196 0 0 0-.728 1.666 4.11 4.11 0 0 0-.091.647c-.008.166-.001.268-.001.268s.096-.034.245-.107c.148-.072.345-.186.557-.338.426-.305.885-.782 1.243-1.326a5.237 5.237 0 0 0 .726-1.667c.055-.256.083-.481.092-.646.009-.08.002-.152.003-.196l-.001-.071m18.614 1.223l-.063.031c-.04.022-.107.048-.174.092-.143.082-.33.21-.533.375a5.236 5.236 0 0 0-1.155 1.403c-.322.566-.54 1.192-.617 1.71a4.088 4.088 0 0 0-.05.652c.003.166.017.267.017.267s.094-.04.237-.122c.144-.083.332-.209.535-.375.405-.331.832-.837 1.153-1.404a5.239 5.239 0 0 0 .615-1.711c.04-.259.052-.486.05-.651.004-.08-.008-.152-.01-.196l-.005-.07m-11.99-6.187l-.063.031c-.04.022-.106.048-.173.092-.144.082-.332.21-.533.375a5.235 5.235 0 0 0-1.155 1.403c-.323.566-.54 1.193-.618 1.71-.038.26-.051.487-.048.652.002.165.016.267.016.267s.094-.04.237-.122c.144-.082.332-.21.535-.375.404-.331.831-.837 1.153-1.404.32-.567.536-1.194.615-1.711.039-.259.052-.486.05-.651.003-.08-.008-.152-.01-.196l-.006-.07m-5.837 10.117l-.065.027c-.04.019-.11.04-.179.08a4.095 4.095 0 0 0-.557.339 5.237 5.237 0 0 0-1.244 1.324 5.177 5.177 0 0 0-.728 1.666 4.16 4.16 0 0 0-.092.647c-.008.165-.001.267-.001.267s.096-.034.245-.106c.148-.073.345-.187.558-.339a5.178 5.178 0 0 0 1.242-1.325 5.228 5.228 0 0 0 .727-1.667c.055-.256.084-.481.092-.646.009-.08.002-.152.003-.196v-.071" fill="#FFE5A5"/><path d="M86.47 62.243c5.147-5.54 10.738-5.383 14.497-4.297C96.139 68.38 88.492 77.73 75.27 80.35c-3.784.75-7.39.972-10.917.933 10.275-4.164 14.955-11.333 22.117-19.04" fill="#FFE3A4"/><path d="M22.226 76.373l-.863.147c-.544.1-1.323.24-2.257.41-.929.184-2.02.359-3.176.598-.58.109-1.184.2-1.791.32-.61.113-1.224.249-1.847.335l-1.849.323a30.33 30.33 0 0 0-.905.167l-.887.134c-.583.082-1.145.18-1.68.27-.534.084-1.038.19-1.507.24-1.873.239-3.13.487-3.13.487s1.266.082 3.179.073c.479.011.993-.03 1.538-.073.544-.041 1.12-.082 1.713-.141l.905-.087c.304-.04.611-.084.92-.135l1.874-.293c.628-.1 1.247-.247 1.86-.372.613-.126 1.211-.272 1.79-.406.578-.146 1.132-.305 1.657-.452.528-.14 1.021-.292 1.473-.445.908-.288 1.656-.56 2.174-.767.26-.096.46-.185.598-.244.138-.058.21-.09.21-.09m1.224 1.962l-.835.259-2.182.693c-.897.298-1.957.606-3.073.985-.563.173-1.15.338-1.737.53-.59.187-1.184.389-1.792.546-.601.18-1.203.358-1.796.534l-.879.267-.865.23c-.57.147-1.116.307-1.636.455-.52.147-1.01.3-1.47.4-1.834.438-3.056.82-3.056.82s1.266-.055 3.164-.268c.236-.03.486-.045.739-.092l.781-.146c.536-.101 1.103-.206 1.686-.33.291-.062.588-.124.889-.186.299-.068.597-.153.898-.237l1.827-.508c.612-.171 1.21-.386 1.802-.586.593-.198 1.168-.417 1.729-.616.555-.215 1.085-.442 1.588-.652.504-.206.976-.414 1.405-.624.863-.401 1.57-.765 2.056-1.038.245-.13.432-.244.56-.32l.197-.116m1.876 2.042l-.857.292c-.543.191-1.316.465-2.237.807-.919.347-1.996.736-3.136 1.185-.566.234-1.168.432-1.763.675l-1.815.708-1.818.698c-.603.219-1.179.488-1.757.686-.574.207-1.125.423-1.648.626-.526.196-1.014.41-1.475.577-1.843.656-3.06 1.18-3.06 1.18s1.298-.204 3.228-.643c.482-.108.993-.263 1.536-.419.543-.157 1.117-.32 1.705-.507.592-.177 1.19-.392 1.799-.613l1.843-.671 1.814-.746a47.513 47.513 0 0 0 1.742-.756c.562-.251 1.098-.512 1.608-.754.512-.237.985-.486 1.423-.713a42.232 42.232 0 0 0 2.092-1.144c.25-.141.442-.264.574-.344l.202-.124" fill="#FFA400"/></g></svg>