<svg width="120" height="120" viewBox="0 0 120 120" xmlns="http://www.w3.org/2000/svg" xmlns:xlink="http://www.w3.org/1999/xlink"><defs><path id="a" d="M2.268 2.204h22.884v19.552H2.268z"/><path id="c" d="M.19.291h12.5v5.417H.19z"/></defs><g fill="none" fill-rule="evenodd"><path d="M67.206 113.87c1.672 1.05 2.884 3.265 1.455 5.01-1.081 1.23-2.672.289-3.881-.226-1.335-.646-2.86-1.081-4.07-1.923-.78-.558-1.697-1.219-2.228-2.045-.159-.257-.237-.565-.18-.815h8.904zm-19.023 0c-1.671 1.05-2.883 3.265-1.452 5.01 1.079 1.23 2.672.289 3.881-.226 1.332-.646 2.86-1.081 4.07-1.923.78-.558 1.697-1.219 2.225-2.045.162-.257.24-.565.18-.815h-8.904z" fill="#2C2C2D"/><path fill="#EEEEED" d="M67.482 107.076h-9.186l.005 6.796h8.906z"/><path fill="#DFAA22" d="M67.4 109.128l.065-1.604h-9.167l.002 1.604z"/><path fill="#2356A3" d="M67.349 110.36l.052-1.233H58.3v1.232z"/><path fill="#EEEEED" d="M57.088 107.076H47.91l.274 6.796h8.904z"/><path fill="#2356A3" d="M57.09 110.36v-1.233h-9.097l.047 1.232z"/><path fill="#DFAA22" d="M57.09 109.128v-1.604h-9.162l.065 1.604z"/><path d="M54.54 89.163h14.49s2.27 15.284-1.018 18.439c-1.857 1.79-10.231-.003-10.231-.003l-.139-11.595h-.263l-.136 11.598s-8.366 1.782-10.226-.003c-3.288-3.158-1.023-18.436-1.023-18.436h8.546z" fill="#2C2C2D"/><path d="M44.557 89.91s-1.575 11.21-.91 15.222c.06.367 1.317.635 1.317.635s-.136.805 0 1.017c.22.332 1.416 1.017 1.455.619.739-7.468-.525-17.51-.525-17.51l-1.337.017z" fill="#DFAA22"/><path fill="#8E6713" d="M44.906 105.766l-.089-9.297.21 9.295z"/><g transform="translate(63.881 46.02)"><mask id="b" fill="#fff"><use xlink:href="#a"/></mask><path d="M23.416 2.398c-1.115-.48-2.447-.04-3.531 1.017-.489-.746-1.068-1.169-1.606-1.062-1.006.202-1.476 2.15-1.053 4.36.162.845.43 1.604.757 2.21.045.276.105.536.191.783l-5.096 6.085-10.81-3.934s1.839 2.964 2.29 4.045c.332.789.97 3.283.97 3.283s7.898 3.263 10.139 2.437c2.768-1.022 5.95-10.197 5.95-10.197h-.003c1.194-.43 2.345-1.589 3.011-3.187 1.037-2.491.497-5.107-1.209-5.84" fill="#9E561A" mask="url(#b)"/></g><path d="M41.409 63.203c-3.4 4.416-4.701 17.694-4.701 17.694l.005-.058c-.436.643-.745 1.477-.844 2.414-.23 2.22.815 4.148 2.335 4.316.993.106 1.943-.569 2.547-1.668.561.475 1.12.661 1.52.446.744-.404.655-2.058-.199-3.7a6.421 6.421 0 0 0-1.117-1.556c-.034-.066-.066-.132-.102-.196 0 0 1.478-9.59 3.053-11.86.789-1.135 1.298-1.775 1.478-2.276.147-.404.306-1.18.369-1.472.506-2.276 3.277-7.412 3.277-7.412s-5.968 3.18-7.621 5.328" fill="#9E561A"/><path d="M41.205 80.587h-4.607s1.316-13.48 4.881-17.81c1.567-1.901 5.859-4.445 6.64-4.886 1.948-1.275 7.786-1.469 7.786-1.469l1.627.05h.136l1.627-.05s5.86.21 7.794 1.495l9.867 3.87 5.018-6.098 4.474 2.268s-4.84 9.003-6.854 9.744c-2.144.791-8.582-1.798-9.128-2.05 2.167 9.531 1.875 23.577 1.875 23.577l-29.483-.003s-.185-11.238 1.35-20.523c-.07.11-.146.22-.23.338-1.159 1.667-2.773 11.547-2.773 11.547" fill="#EEEEED"/><path d="M67.089 57.917c-1.933-1.283-7.794-1.487-7.794-1.487l-1.627.056h-.136l-1.627-.056s-5.84.189-7.786 1.463c-.334.189-1.303.755-2.427 1.495-.086 1.514-.462 7.227-1.483 9.317-1.538 9.284-1.366 20.52-1.366 20.52v.9l13.279.925 1.815-1.788 1.82 1.788 12.61-.924v-.898s.267-14.046-1.901-23.577c-1.175-1.437-1.601-6.12-1.674-7.067l-1.703-.667z" fill="#2356A3"/><path fill="#F6B90C" d="M59.758 90.079l-1.457-1.482V60.06h-.786v28.605l-1.395 1.413-13.279-.895v.943l13.279.922 1.818-1.787 1.82 1.787 12.608-.922v-.929zM45.691 59.388c-.083 1.513-.462 7.228-1.48 9.316-.06.35-.142.895-.196 1.25 1.206-.684 2.298-3.598 2.416-11.042l-.74.476m24.775 6.262c-1.175-1.436-1.601-6.118-1.674-7.066l-.959-.377c0 .003-.002.005-.005.008.415 6.039 1.183 7.662 2.873 8.535l-.031-.159a59.52 59.52 0 0 0-.204-.94"/><path d="M57.983 80.802l-3.254-3.317 3.254-3.262 3.257 3.262-3.257 3.317zm3.247 3.768l-3.247 3.394-3.246-3.394 3.246-3.452 3.247 3.452zm-6.627-14.08l3.38-3.203 3.38 3.203-3.38 3.311-3.38-3.311zm.152-6.772l3.228-2.922 3.228 2.922-3.228 3.152-3.228-3.152zm3.625 10.296l3.602-3.53-3.6-3.407 3.459-3.37-3.704-3.352-.154.17-.151-.17-3.704 3.352 3.458 3.37-3.596 3.407 3.601 3.53-3.466 3.468 3.417 3.482-3.396 3.609 3.646 3.808.191-.191.193.191 3.644-3.808-3.393-3.61 3.416-3.481-3.463-3.468z" fill="#F6B90C"/><path d="M57.973 60.516c-4.55 0-4.55-3.925-4.55-3.925 1.403-.17 2.46-.154 2.46-.154l2.025.111h.167l2.019-.074s.966.034 2.27.172c0 0 .041 3.87-4.391 3.87" fill="#F6B90C"/><path d="M38.302 70.584l4.728 1.064c.175-.655.352-1.24.525-1.71l-4.796-1.08a39.662 39.662 0 0 0-.457 1.726M76.5 61.608l-1.658-.648-1.293 5.831c.54.178 1.115.351 1.693.508l1.259-5.691z" fill="#2DA9E0"/><path d="M78.773 37.115c.157-1.052.238-2.133.238-3.232 0-11.874-9.468-21.503-21.148-21.503s-21.15 9.63-21.15 21.503a22.6 22.6 0 0 0 .216 3.083c-1.217.683-2.043 1.965-2.043 3.434 0 2.186 1.81 3.952 4.041 3.952.151 0 .298-.008.447-.024 3.612 6.596 10.536 11.058 18.489 11.058 7.943 0 14.867-4.454 18.479-11.037.062 0 .128.003.193.003 2.228 0 4.035-1.766 4.035-3.952 0-1.368-.713-2.573-1.797-3.285" fill="#9E561A"/><path d="M53.563 31.78s-.457 1.65-1.89 1.323c-.701-.16-.824-1.1-3.074-.678-.707.165-2.194 1.058-2.48 1.654-.287.597-.08-2.187 2.23-3.222 1.666-.617 2.23-.586 3.61-.586s1.805.83 1.604 1.509m9.583 0s.457 1.65 1.89 1.323c.701-.16.825-1.1 3.074-.678.707.165 2.194 1.058 2.48 1.654.287.597.08-2.187-2.23-3.222-1.666-.617-2.23-.586-3.61-.586s-1.804.83-1.604 1.509m-11.434 7.247c0 1.612-.85 2.919-1.898 2.919s-1.898-1.307-1.898-2.919.85-2.919 1.898-2.919 1.898 1.307 1.898 2.919m17.081 0c0 1.612-.85 2.919-1.898 2.919s-1.898-1.307-1.898-2.919.85-2.919 1.898-2.919c1.049 0 1.898 1.307 1.898 2.919" fill="#2C2C2D"/><path d="M58.378 40.102c.797-.114 2.814 1.767 2.814 1.767s.097-.417-.324-1.245c-.453-.89-2.518-1.597-2.518-1.597s-1.604.45-2.364 1.613c-.282.292-.478 1.306-.478 1.306s1.8-1.69 2.87-1.844z" fill="#683918"/><g transform="translate(51.712 43.892)"><mask id="d" fill="#fff"><use xlink:href="#c"/></mask><path d="M.19.677S6.734 3.8 12.69.291c0 0-1.32 5.321-5.646 5.41-3.905.12-4.73-1.451-5.197-1.902C1.379 3.349.498 2.075.189.677" fill="#683918" mask="url(#d)"/></g><path d="M79.85 31.08a41.757 41.757 0 0 0-.254-3.949c-2.841-9.465-11.492-16.348-21.73-16.348-8.91 0-16.622 5.218-20.344 12.813-1.029 2.988-1.661 5.922-1.713 7.248-.183 4.6 3.118 11.483 3.118 11.483-.397-7.569-.313-7.55 1.479-8.867 2.233-1.628 6.937-4.667 8.747-6.765.347-.4 1.063-1.84 1.063-1.84s-.07 1.129.55 1.628c3.744 3 14.781-.335 18.97 1.981 3.427 1.896 7.586 13.863 7.586 13.863 1.695-3.256 2.562-8.721 2.528-11.247" fill="#2C2C2D"/><path d="M57.957 59.686c-3.661 0-3.661-3.155-3.661-3.155 1.128-.14 1.977-.128 1.977-.128l1.63.09h.135l1.628-.06s.773.029 1.825.138c0 0 .032 3.115-3.534 3.115" fill="#9E561A"/><path d="M56.215 57.852h3.456c.987 0 1.786-2.156 1.786-3.144h-7.03c0 .988.801 3.144 1.788 3.144" fill="#9E561A"/><path d="M55.249 57.167l6.182-2.074.016-.013a21.086 21.086 0 0 1-7.005.027c.065.613.41 1.447.807 2.06" fill="#683918"/><path d="M31.438 15.703c0 2.414 12.125 9.614 25.947 9.614 13.71 0 28.098-7.781 28.098-8.902 0-1.123-20.79-3.729-27.795-3.654-6.603.069-26.25 1.492-26.25 2.942" fill="#F9D6B3"/><path d="M66.635 2.026c0 1.142-4.213 4.1-9.413 4.1s-9.416-2.958-9.416-4.1c0-1.14 4.215-1.756 9.416-1.756 5.2 0 9.413.616 9.413 1.756" fill="#E1B38D"/><path d="M69.326 17.685c-2.962 3.726-20.853 3.402-24.189.016l2.67-15.704c1.436.678 2.917.927 4.134 1.6 5.206 2.878 5.206 2.878 9.933.19 1.384-.788 3.119-.998 4.785-1.79l2.667 15.688z" fill="#F9D6B3"/><path d="M69.326 17.685l-.716-4.223c-11.39 2.619-11.39 2.619-22.752 0l-.72 4.239c3.335 3.386 21.226 3.71 24.188-.016" fill="#2356A3"/></g></svg>