<svg width="120" height="120" viewBox="0 0 120 120" xmlns="http://www.w3.org/2000/svg" xmlns:xlink="http://www.w3.org/1999/xlink"><defs><path id="a" d="M.34.077h31.93v102.78H.34z"/></defs><g fill="none" fill-rule="evenodd"><path d="M53.888 10.243l-1.402 7.44m5.07-7.44l1.618 7.44" stroke="#AB5306" stroke-width="1.941"/><path fill="#FFBA7B" d="M51.758 11.214h7.955V0h-7.955z"/><path fill="#E28A32" d="M45.134 17.117v23.909H28.755v78.87h61.916v-78.87H74.293v-23.91z"/><path fill="#A4F4FF" d="M47.308 26.093h5.825v-6.038h-5.825zm9.492 0h5.826v-6.038H56.8zm9.493 0h5.825v-6.038h-5.825zm-18.985 8.841h5.825v-6.037h-5.825zm9.492 0h5.826v-6.037H56.8zm9.493 0h5.825v-6.037h-5.825zm-18.985 8.841h5.825v-6.037h-5.825zm9.492 0h5.826v-6.037H56.8zm9.493 0h5.825v-6.037h-5.825zm-3.82 13.909h5.824v-6.038h-5.824zm9.492 0h5.825v-6.038h-5.825zm9.492 0h5.825v-6.038h-5.825zm-49.313 0h5.825v-6.038h-5.825zm9.492 0h5.825v-6.038h-5.825zm9.493 0h5.825v-6.038h-5.825zm11.344 8.518h5.824v-6.038h-5.824zm9.492 0h5.825v-6.038h-5.825zm9.492 0h5.825v-6.038h-5.825zm-49.313 0h5.825v-6.038h-5.825zm9.492 0h5.825v-6.038h-5.825zm9.493 0h5.825v-6.038h-5.825zm11.344 8.518h5.824v-6.038h-5.824zm9.492 0h5.825v-6.038h-5.825zm9.492 0h5.825v-6.038h-5.825zm-49.313 0h5.825v-6.038h-5.825zm9.492 0h5.825v-6.038h-5.825zm9.493 0h5.825v-6.038h-5.825zm11.344 8.518h5.824V77.2h-5.824zm9.492 0h5.825V77.2h-5.825zm9.492 0h5.825V77.2h-5.825zm-49.313 0h5.825V77.2h-5.825zm9.492 0h5.825V77.2h-5.825zm9.493 0h5.825V77.2h-5.825zm11.344 8.518h5.824v-6.038h-5.824zm9.492 0h5.825v-6.038h-5.825zm9.492 0h5.825v-6.038h-5.825zm-49.313 0h5.825v-6.038h-5.825zm9.492 0h5.825v-6.038h-5.825zm9.493 0h5.825v-6.038h-5.825zm11.344 8.517h5.824v-6.037h-5.824zm9.492 0h5.825v-6.037h-5.825zm9.492 0h5.825v-6.037h-5.825zm-49.313 0h5.825v-6.037h-5.825zm9.492 0h5.825v-6.037h-5.825zm9.493 0h5.825v-6.037h-5.825z"/><path fill="#FB2" d="M28 48.33h63.642v-2.937H28zm0 56.256h63.642v-1.94H28z"/><path fill="#C26109" d="M52.924 119.897h13.578v-9.489H52.924z"/><g transform="translate(59.373 17.04)"><mask id="b" fill="#fff"><use xlink:href="#a"/></mask><path fill="#A06225" opacity=".301" mask="url(#b)" d="M32.27 31.291v-2.938h-.971v-4.367H14.92V.077H.449L.34 102.857h30.958V87.56h.97v-1.954h-.97V31.29z"/></g></g></svg>