<svg xmlns="http://www.w3.org/2000/svg" width="155.615" height="28.676" viewBox="-1.385 0.429 155.615 28.676"><defs><style/></defs><g id="ID0.3278132351115346" transform="translate(.3 .3) scale(.85737)"><path id="ID0.7241233633831143" fill="#FFF" stroke="#E3DEEE" d="M528.7 271.8c-3.2-22.5 17.9-55.5 53.5-55.5 51.5 0 94.6 61.3 206.7 49.1l22.5 29.6-39.5 8.4-58.6 3.3h-56.4s-48.8-3.8-74.3-3.3c-41.7.8-50.3-13.5-53.9-31.6z" transform="translate(-177.05 -76.35) scale(.35849)"/><path id="ID0.7151904893107712" fill="#E3DEEE" d="M981.8 235.1c-11.6-15.1-29-21.7-52.8-21.3-36.7.6-55.7 18-67.9 17.4-13.7-.7-21.3-7.7-39.3-1.3-16.1 5.8-36.1 29-48.9 38.6-10.2 7.6-34 29.3-59.4 38.1 80.7 0 160.7-.1 177.3-.1 34.1 0 71.5-8.4 86.3-21.3 14.7-12.8 17.6-33.3 4.7-50.1z" transform="translate(-177.05 -76.35) scale(.35849)"/><path id="ID0.9633253426291049" fill="#E3DEEE" d="M498.4 278.9c-10 14.8 12.9 27.5 30.9 27.7 9 .1 63.5.1 127.6.1-23.8-5.7-38.9-17.4-63.8-31-35.4-19.4-81.1-16.8-94.7 3.2z" transform="translate(-177.05 -76.35) scale(.35849)"/></g></svg>