<svg width="480" height="360" viewBox="0 0 480 360" xmlns="http://www.w3.org/2000/svg" xmlns:xlink="http://www.w3.org/1999/xlink"><defs><path id="a" d="M.065.525h479.282v143.41H.065z"/></defs><g fill="none" fill-rule="evenodd"><path d="M45.088 167.19l-.723-.816C82.89 132.212 88.18 57.45 88.228 56.7l1.09.07c-.05.756-5.373 75.966-44.23 110.421" fill="#759F9B"/><path d="M37.167 183.174l-.867-.66c.122-.161 3.245-4.177 25.27-25.234 21.847-20.886 26.615-69.86 26.66-70.351l1.086.1c-.046.496-4.853 49.874-26.991 71.04-21.866 20.905-25.127 25.066-25.158 25.105" fill="#759F9B"/><path fill="#A3C4C0" d="M99.895 47.54L88.773 344.643l-2.252.113V47.54h13.374"/><path d="M202.123 175.55c-11.443 0-23.59-2.335-29.97-10.812l.872-.657c13.463 17.888 55.346 7.031 55.767 6.92l.28 1.055c-.948.25-13.46 3.494-26.95 3.494" fill="#BDE1E2"/><path d="M218.026 185.054c-13.735 0-37.104-2.231-44.735-16.649l.964-.509c10.475 19.79 53.544 15.674 53.976 15.63l.11 1.086c-.53.053-4.585.442-10.315.442" fill="#BDE1E2"/><path fill="#BDE1E2" d="M7.025 344.757V157.674h79.496V47.538h93.734v245.697h37.012V138.582l51.701-51.701 52.683 52.684v153.576h47.257V91.451h42.715l60.697 60.698V345.56l-465.295-.803"/><path fill="#D0EAEB" d="M429.166 109.31l-24.468 183.831h-35.79V91.451h42.715l17.543 17.86M49.904 157.674L24.979 344.788l-17.638-.03-.316-187.084h42.879m167.363-19.092v154.654l28.588.106 39.98-189.593-16.867-16.868-51.701 51.701"/><path fill="#8EB4B5" d="M86.521 344.759h93.734V47.539H86.521zm93.734-.002H430.25v-56.754H180.255z"/><path fill="#7CA6A5" d="M175.145 344.759h5.11V47.539h-5.11z"/><path fill="#699592" d="M213.028 288.003l-9.294 5.339v51.415h-23.479v-56.754h32.773"/><path fill="#A3C4C0" d="M156.661 47.54h-70.14v297.217h9.183L156.661 47.54"/><path fill="#BAD5CF" d="M99.895 47.54L88.773 344.643l-2.252.113V47.54h13.374"/><path fill="#D6EDED" d="M239.756 336.155h73.886v-36.276h-73.886z"/><path d="M239.756 299.879v36.276h24.43c17.962-14.284 25.744-30.268 28.193-36.276h-52.623" fill="#E5F4F3"/><path d="M305.761 315.895c-2.159 0-4.318-.73-6.27-2.192-1.952 1.461-4.111 2.192-6.27 2.192s-4.318-.73-6.27-2.192a11.248 11.248 0 0 1-3.18 1.686 89.357 89.357 0 0 0 5.415-8.788h24.456v8.115a11.857 11.857 0 0 1-1.611-1.013c-1.952 1.461-4.111 2.192-6.27 2.192" fill="#BEDBD7"/><path d="M280.681 315.895c-2.159 0-4.318-.73-6.27-2.192-1.952 1.461-4.111 2.192-6.27 2.192-2.158 0-4.317-.73-6.27-2.192-1.952 1.461-4.11 2.192-6.269 2.192s-4.318-.73-6.27-2.192c-1.95 1.46-4.108 2.189-6.265 2.189a9.821 9.821 0 0 1-3.311-.581v-8.71h49.43a89.357 89.357 0 0 1-5.414 8.788 9.787 9.787 0 0 1-3.09.506" fill="#C7DFDB"/><path fill="#D6EDED" d="M234.539 337.922h84.32v-1.767h-84.32z"/><path fill="#7CA6A5" d="M320.588 302.596H232.81l5.705-5.187h76.367l5.706 5.187"/><path d="M245.349 309.699c-3.905 2.922-8.635 2.922-12.54 0v-7.103h12.54v7.103" fill="#759F9B"/><path d="M257.889 309.699c-3.905 2.922-8.635 2.922-12.54 0v-7.103h12.54v7.103" fill="#6A9592"/><path d="M270.429 309.699c-3.905 2.922-8.636 2.922-12.54 0v-7.103h12.54v7.103" fill="#759F9B"/><path d="M282.969 309.699c-3.905 2.922-8.636 2.922-12.54 0v-7.103h12.54v7.103" fill="#6A9592"/><path d="M295.509 309.699c-3.905 2.922-8.636 2.922-12.54 0v-7.103h12.54v7.103" fill="#759F9B"/><path d="M308.049 309.699c-3.905 2.922-8.636 2.922-12.54 0v-7.103h12.54v7.103" fill="#6A9592"/><path d="M320.588 309.699c-3.905 2.922-8.635 2.922-12.54 0v-7.103h12.54v7.103" fill="#759F9B"/><path fill="#BDE1E2" d="M353.135 344.757h19.057v-41.429h-19.057z"/><path d="M368.511 303.328h-15.376v39.06c8.336-10.45 13.573-31.03 15.376-39.06" fill="#E5F4F3"/><path fill="#759F9B" d="M362.107 344.757h1.112v-41.429h-1.112z"/><path fill="#759F9B" d="M353.135 309.867h19.057v-1.113h-19.057zm0 34.89h19.057v-8.275h-19.057z"/><path d="M353.135 336.482v-26.615 26.615m0-27.728v-5.426 5.426m19.057-3.646h-4.09c.152-.645.288-1.241.41-1.78h3.68v1.78" fill="#8CB4B2"/><path d="M353.135 336.482h1.882v-26.615h-1.882v26.615zm1.882-27.728h-1.882v-5.426h8.972v1.78h-7.09v3.646zm13.084-3.646h-4.882v-1.78h5.292c-.12.539-.257 1.135-.41 1.78z" fill="#98B9B6"/><path fill="#759F9B" d="M362.107 305.108h1.112v-1.78h-1.112zm-8.972 4.759h1.882v-1.113h-1.882zm0 34.89h1.882v-8.275h-1.882z"/><g transform="translate(0 216.182)"><mask id="b" fill="#fff"><use xlink:href="#a"/></mask><path d="M479.347 144H0v-8.676a6.749 6.749 0 0 1 6.75-6.748h465.847c3.728 0 6.75 3.02 6.75 6.748V144" fill="#C07530" mask="url(#b)"/><path d="M350.29 144H0v-4.523a6.75 6.75 0 0 1 6.75-6.75h336.793a6.749 6.749 0 0 1 6.748 6.75V144" fill="#EEA04B" mask="url(#b)"/></g><path d="M66.274 207.283s-.018-.15-.054-.398c-.156.09.054.398.054.398" fill="#C07530"/><path d="M35.744 300.205c.592-7.727 1.484-23.36 1.373-36.057.111 12.697-.781 28.33-1.373 36.057m3.603-21.501c-.7 0-1.17-1.38-1.268-4.572.098 3.19.568 4.567 1.267 4.567.487 0 1.085-.667 1.747-1.852v.006c-.66 1.184-1.26 1.851-1.746 1.851m-1.27-4.646v-.013.013m-.001-.046v-.015.015m-.014-1.558v-.013.013m0-.059v-.015.015" fill="#D8EEEE"/><path fill="#D6EDED" d="M100.34 92.774h25.953v-31.74H100.34z"/><path d="M123.816 61.035H100.34v31.739h9.962c8.568-11.242 11.834-25.109 13.514-31.74" fill="#E5F4F3"/><path fill="#8EB4B5" d="M124.885 92.774h1.928v-31.74h-1.928z"/><path fill="#8EB4B5" d="M101.043 68.043h24.547v-1.41h-24.547z"/><path fill="#8EB4B5" d="M112.612 92.774h1.409v-31.74h-1.409zm-12.717 0h1.853v-31.74h-1.853z"/><path fill="#D6EDED" d="M98.596 94.85h29.44v-2.076h-29.44zm41.887-2.076h25.954v-31.74h-25.954z"/><path d="M163.96 61.035h-23.477v31.739h9.962c8.568-11.242 11.834-25.109 13.514-31.74" fill="#E5F4F3"/><path fill="#8EB4B5" d="M165.028 92.774h1.928v-31.74h-1.928z"/><path fill="#8EB4B5" d="M141.187 68.043h24.546v-1.41h-24.546z"/><path fill="#8EB4B5" d="M152.756 92.774h1.408v-31.74h-1.408zm-12.718 0h1.853v-31.74h-1.853z"/><path fill="#D6EDED" d="M138.74 94.85h29.44v-2.076h-29.44zm-38.4 54.09h25.953v-31.739H100.34z"/><path d="M123.816 117.201H100.34v31.74h9.962c8.568-11.242 11.834-25.109 13.514-31.74" fill="#E5F4F3"/><path fill="#8EB4B5" d="M124.885 148.94h1.928v-31.739h-1.928z"/><path fill="#8EB4B5" d="M101.043 124.21h24.547v-1.41h-24.547z"/><path fill="#8EB4B5" d="M112.612 148.94h1.409v-31.739h-1.409zm-12.717 0h1.853v-31.739h-1.853z"/><path fill="#D6EDED" d="M98.596 151.016h29.44v-2.076h-29.44zm41.887-2.076h25.954v-31.739h-25.954z"/><path d="M163.96 117.201h-23.477v31.74h9.962c8.568-11.242 11.834-25.109 13.514-31.74" fill="#E5F4F3"/><path fill="#8EB4B5" d="M165.028 148.94h1.928v-31.739h-1.928z"/><path fill="#8EB4B5" d="M141.187 124.21h24.546v-1.41h-24.546z"/><path fill="#8EB4B5" d="M152.756 148.94h1.408v-31.739h-1.408zm-12.718 0h1.853v-31.739h-1.853z"/><path fill="#D6EDED" d="M138.74 151.016h29.44v-2.076h-29.44zm-38.4 54.091h25.953v-31.739H100.34z"/><path d="M123.816 173.368H100.34v31.739h9.962c8.568-11.242 11.834-25.108 13.514-31.739" fill="#E5F4F3"/><path fill="#8EB4B5" d="M124.885 205.107h1.928v-31.739h-1.928z"/><path fill="#8EB4B5" d="M101.043 180.376h24.547v-1.41h-24.547z"/><path fill="#8EB4B5" d="M112.612 205.107h1.409v-31.739h-1.409zm-12.717 0h1.853v-31.739h-1.853z"/><path fill="#D6EDED" d="M98.596 207.183h29.44v-2.076h-29.44zm41.887-2.076h25.954v-31.739h-25.954z"/><path d="M163.96 173.368h-23.477v31.739h9.962c8.568-11.242 11.834-25.108 13.514-31.739" fill="#E5F4F3"/><path fill="#8EB4B5" d="M165.028 205.107h1.928v-31.739h-1.928z"/><path fill="#8EB4B5" d="M141.187 180.376h24.546v-1.41h-24.546z"/><path fill="#8EB4B5" d="M152.756 205.107h1.408v-31.739h-1.408zm-12.718 0h1.853v-31.739h-1.853z"/><path fill="#D6EDED" d="M138.74 207.183h29.44v-2.076h-29.44z"/><path fill="#8EB4B5" d="M93.315 105.603h11.717v-3.708H93.315z"/><path fill="#BAD5CF" d="M128.037 105.603h11.716v-3.708h-11.716z"/><path fill="#8EB4B5" d="M105.033 109.31h11.716v-3.707h-11.716zm0 113.688h11.716v-3.708h-11.716zm-11.718-59.405h11.717v-3.708H93.315z"/><path fill="#BAD5CF" d="M106.754 154.724h11.717v-3.708h-11.717z"/><path fill="#8EB4B5" d="M93.315 226.706h11.717v-3.708H93.315zm23.005-56.701h11.717v-3.708H116.32zM93.315 234.12h11.717v-3.707H93.315z"/><path fill="#BAD5CF" d="M100.34 252.124h11.716v-3.708H100.34z"/><path d="M59.364 61.035c0 14.753-11.96 26.713-26.713 26.713-14.754 0-26.713-11.96-26.713-26.713 0-14.754 11.96-26.713 26.713-26.713s26.713 11.96 26.713 26.713" fill="#FDF6B5"/><path d="M339.4 59.173s-8.604 2.57-10.284 7.416c0 0-6.822-.693-7.812 2.273 0 0 6.428-.988 9.492 0 0 0-.939-2.818 8.603-9.69" fill="#8DB2AF"/><path d="M316.356 57.61s-11.375 3.4-13.598 9.807c0 0-9.022-.916-10.329 3.007 0 0 8.498-1.308 12.552 0 0 0-1.242-3.726 11.375-12.813" fill="#7CA6A5"/><path d="M333.928 81.205s-6.529 1.38-8.07 4.867c0 0-5.01-.928-5.924 1.21 0 0 4.822-.341 7.032.577 0 0-.525-2.144 6.962-6.654" fill="#9BB7B4"/><path d="M344.088 84.786s-3.117 1.937-3.26 4.028c0 0-2.764.46-2.836 1.735 0 0 2.428-1.08 3.744-1.018 0 0-.673-1.01 2.352-4.745" fill="#A7BEBB"/></g></svg>