<svg width="120" height="120" viewBox="0 0 120 120" xmlns="http://www.w3.org/2000/svg" xmlns:xlink="http://www.w3.org/1999/xlink"><defs><path id="a" d="M.537.647h64.41v52.891H.537z"/><path id="c" d="M0 .697h8.802v8.37H0z"/></defs><g fill="none" fill-rule="evenodd"><path fill="#944720" d="M76.852 76.85l-.572 14.961 23.266 1.868 4.902 3.149-2.088 3.25-3.132-2.011v.001l-29.31-1.439-3.15-16.156z"/><path d="M104.448 96.828l4.732 4.264c1.545 1.392 1.652 3.79.239 5.361l-7.06-6.375 2.09-3.25z" fill="#52240C"/><g transform="matrix(-1 0 0 1 65.455 63.602)"><mask id="b" fill="#fff"><use xlink:href="#a"/></mask><path d="M60.546 39.937c-2.976 2.973-7.86 6.357-12.146 6.212-9.894-.336-8.91-10.96-15.08-27.016C24.858-2.88 4.293-5.987.536 13.886l6.488 4.389c24.927-2.298 14.408 35.264 40.178 35.264 6.082 0 13.309-3.7 16.616-9.316 3.18-5.392-1.155-6.407-3.273-4.286" fill="#F99C2B" mask="url(#b)"/></g><path d="M51.718 73.199c-2.247 8.963 1.366 17.592 8.067 19.27 6.702 1.68 13.951-4.233 16.199-13.2 2.247-8.966-1.366-17.593-8.066-19.27-6.702-1.678-13.956 4.231-16.2 13.2" fill="#B65C26"/><path d="M56.73 73.636l26.218-5.662c.107-.392-5.082-43.19-5.082-43.19l-9.19 2.54L56.73 73.637z" fill="#B65C26"/><path d="M75.099 61.009h13.24c0 12.085-5.67 22.188-13.24 24.678V61.01z" fill="#F4C72C"/><path d="M75.099 29.386V61.01h9.282c.81-14.995-1.55-25.416-4.209-31.623H75.1z" fill="#FCCB6C"/><path d="M66.766 45.22a4.516 4.516 0 0 0 1.692 6.158 4.517 4.517 0 1 0-1.692-6.159" fill="#F99C2B"/><path fill="#F99C2B" d="M71.572 45.374l12.307 7.61 17.088-.471.107 3.809-18.545.512-13.686-6.301z"/><path d="M108.868 56.322h-7.794l-.108-3.81 3.048-.084c2.682 0 4.854 1.738 4.854 3.894" fill="#230B0E"/><path d="M68.17 66.3v29.91c7.716 0 13.976-6.699 13.976-14.95 0-8.262-6.26-14.96-13.976-14.96" fill="#F99C2B"/><path d="M54.181 81.26c0 8.251 6.258 14.95 13.989 14.95V66.3c-7.731 0-13.989 6.697-13.989 14.96" fill="#E37B25"/><g transform="matrix(-1 0 0 1 120 92.354)"><mask id="d" fill="#fff"><use xlink:href="#c"/></mask><path d="M7.394.697L1.875 3.874C.07 4.913-.537 7.237.517 9.067l8.285-4.772L7.394.697z" fill="#52240C" mask="url(#d)"/></g><path fill="#F99C2B" d="M81.62 78.89L84 93.67l23.18-2.742 5.426 2.123-1.408 3.598-3.466-1.358v.003l-29.02 4.351-6.266-15.22zM83.3 5.772c2.706 5.91-6.346 15.593-9.898 12.858-3.553-2.732 3.49-13.96 9.897-12.858"/><path d="M81.073 8.665c1.49 3.25-3.49 8.577-5.448 7.074-1.954-1.503 1.922-7.68 5.448-7.074" fill="#FCCB6C"/><path d="M70.581 2.992c-4.678 4.308.046 15.333 4.32 14.017 4.276-1.318 1.973-13.087-4.32-14.017" fill="#B65C26"/><path d="M71.552 6.143c-2.575 2.372.023 8.437 2.377 7.712 2.352-.724 1.084-7.198-2.377-7.712m4.916 19.021c.405 2.152 1.866 3.683 3.26 3.418 1.394-.262 2.194-2.222 1.784-4.374-.407-2.153-1.864-3.683-3.26-3.419-1.394.264-2.193 2.221-1.784 4.375" fill="#FCCB6C"/><path d="M65.146 25.061c1.227-4.653 8.86-10.227 8.86-10.227l5.611 1.48s5.385 3.697 4.767 8.474l6.236 6.078-1.336 5.07C67.833 30.271 63.623 30.84 65.146 25.06" fill="#F99C2B"/><path d="M85.365 33.177l8.144 2.867c.521-.495.939-1.231 1.218-2.283-2.183.291-3.78-2.346-2.626-4.376-2.017-.532-2.714-.837-3.564-.748-2.611.25-3.305 3.272-3.172 4.54" fill="#FCCB6C"/><path d="M94.724 33.76c.536-2.004-.16-3.728-2.618-4.378-1.15 2.028.43 4.676 2.618 4.379" fill="#230B0E"/><path d="M76.888 24.075a1.823 1.823 0 1 0 3.647.002 1.823 1.823 0 0 0-3.647-.002" fill="#3E262B"/><path d="M85.365 33.177a3.176 3.176 0 0 0 2.372 2.79l2.892.762c1.015.278 2.068.126 2.88-.685l-8.144-2.867z" fill="#D9A84F"/></g></svg>