<svg width="480" height="360" viewBox="0 0 480 360" xmlns="http://www.w3.org/2000/svg"><g fill="none" fill-rule="evenodd"><path fill="#0063B0" d="M0-15h480v362.657H0z"/><path fill="#00407D" d="M0 303.474h480v67.474H0z"/><path fill="#004581" d="M322.525 126.568h18.686V253.81h-18.686zM88.697 143.283h30.926V254.94H88.697z"/><path fill="#004581" d="M107.04 169.313h30.926v85.661H107.04zm226.697 0h52.286v85.661h-52.286zm-117.566-42.745h54.617v144.47h-54.617z"/><path fill="#005194" d="M37.817 195.241h39.086v54.15H37.817z"/><path fill="#005194" d="M61.817 222.333h39.086v27.058H61.817z"/><g transform="translate(132 33.235)"><path d="M45.394 62.816l-8.4-28.736H28.87L26.366.103 23.863 34.08h-8.126l-8.4 28.736H.103v167.212h52.526V62.816h-7.235z" fill="#004581"/><path d="M5.966 67.92h17.45v2.329H5.967zm0 6.61h17.45v2.329H5.967zm0 6.645h17.45v2.329H5.967zm0 6.644h17.45v2.329H5.967zm0 6.645h17.45v2.329H5.967zm0 6.61h17.45v2.329H5.967zm0 6.645h17.45v2.329H5.967zm0 6.645h17.45v2.329H5.967zm0 6.644h17.45v2.329H5.967zm0 6.645h17.45v2.329H5.967zm0 6.61h17.45v2.329H5.967zm0 6.645h17.45v2.329H5.967zm0 6.645h17.45v2.329H5.967zm0 6.644h17.45v2.329H5.967zm0 6.645h17.45v2.329H5.967zm0 6.61h17.45v2.329H5.967zm0 6.645h17.45v2.329H5.967zm0 6.645h17.45v2.329H5.967zm0 6.644h17.45v2.329H5.967zm0 6.644h17.45v2.33H5.967zm0 6.61h17.45v2.33H5.967zm0 6.646h17.45v2.329H5.967zm0 6.644h17.45v2.33H5.967zm0 6.645h17.45v2.329H5.967zm0 6.611h17.45v2.329H5.967zm0 6.644h17.45v2.329H5.967zm0 6.645h17.45v2.329H5.967zM29.109 67.92H46.56v2.329H29.109zm0 6.61H46.56v2.329H29.109zm0 6.645H46.56v2.329H29.109zm0 6.644H46.56v2.329H29.109zm0 6.645H46.56v2.329H29.109zm0 6.61H46.56v2.329H29.109zm0 6.645H46.56v2.329H29.109zm0 6.645H46.56v2.329H29.109zm0 6.644H46.56v2.329H29.109zm0 6.645H46.56v2.329H29.109zm0 6.61H46.56v2.329H29.109zm0 6.645H46.56v2.329H29.109zm0 6.645H46.56v2.329H29.109zm0 6.644H46.56v2.329H29.109zm0 6.645H46.56v2.329H29.109zm0 6.61H46.56v2.329H29.109zm0 6.645H46.56v2.329H29.109zm0 6.645H46.56v2.329H29.109zm0 6.644H46.56v2.329H29.109zm0 6.644H46.56v2.33H29.109zm0 6.61H46.56v2.33H29.109zm0 6.646H46.56v2.329H29.109zm0 6.644H46.56v2.33H29.109zm0 6.645H46.56v2.329H29.109zm0 6.611H46.56v2.329H29.109zm0 6.644H46.56v2.329H29.109zm0 6.645H46.56v2.329H29.109z" fill="#005194"/><ellipse fill="#005194" cx="26.366" cy="50.828" rx="8.503" ry="8.494"/></g><path fill="#005194" d="M192.034 114.41v8.425h-17.348v141.799h48.274V114.41z"/><path d="M179.588 129.754h39.566v3.528h-39.566zm0 8.494h39.566v3.528h-39.566zm0 8.494h39.566v3.528h-39.566zm0 8.495h39.566v3.528h-39.566zm0 8.46h39.566v3.528h-39.566zm0 8.494h39.566v3.528h-39.566zm0 8.494h39.566v3.528h-39.566zm0 8.495h39.566v3.527h-39.566zm0 8.493h39.566v3.528h-39.566zm0 8.494h39.566v3.528h-39.566zm0 8.46h39.566v3.528h-39.566zm0 8.495h39.566v3.528h-39.566zm0 8.494h39.566v3.528h-39.566zm0 8.494h39.566v3.528h-39.566zm0 8.494h39.566v3.528h-39.566zm0 8.494h39.566v3.528h-39.566z" fill="#004581"/><path fill="#005194" d="M402.754 114.41v8.425H379.44v141.799h64.834V114.41z"/><path d="M386.023 129.754H439.2v3.528h-53.177zm0 8.494H439.2v3.528h-53.177zm0 8.494H439.2v3.528h-53.177zm0 8.495H439.2v3.528h-53.177zm0 8.46H439.2v3.528h-53.177zm0 8.494H439.2v3.528h-53.177zm0 8.494H439.2v3.528h-53.177zm0 8.495H439.2v3.527h-53.177zm0 8.493H439.2v3.528h-53.177zm0 8.494H439.2v3.528h-53.177zm0 8.46H439.2v3.528h-53.177zm0 8.495H439.2v3.528h-53.177zm0 8.494H439.2v3.528h-53.177zm0 8.494H439.2v3.528h-53.177zm0 8.494H439.2v3.528h-53.177zm0 8.494H439.2v3.528h-53.177z" fill="#004581"/><path fill="#005194" d="M256.217 75.672h75.566V260.01h-75.566z"/><path d="M263.794 94.442h6.96v6.953h-6.96zm13.783 0h6.96v6.953h-6.96zm13.817 0h6.96v6.953h-6.96zm13.783 0h6.96v6.953h-6.96zm13.783 0h6.96v6.953h-6.96zm-55.166 13.563h6.96v6.953h-6.96zm13.783 0h6.96v6.953h-6.96zm13.817 0h6.96v6.953h-6.96zm13.783 0h6.96v6.953h-6.96zm13.783 0h6.96v6.953h-6.96zm-55.166 13.597h6.96v6.953h-6.96zm13.783 0h6.96v6.953h-6.96zm13.817 0h6.96v6.953h-6.96zm13.783 0h6.96v6.953h-6.96zm13.783 0h6.96v6.953h-6.96zm-55.166 13.564h6.96v6.953h-6.96zm13.783 0h6.96v6.953h-6.96zm13.817 0h6.96v6.953h-6.96zm13.783 0h6.96v6.953h-6.96zm13.783 0h6.96v6.953h-6.96zm-55.166 13.598h6.96v6.953h-6.96zm13.783 0h6.96v6.953h-6.96zm13.817 0h6.96v6.953h-6.96zm13.783 0h6.96v6.953h-6.96zm13.783 0h6.96v6.953h-6.96zm-55.166 13.596h6.96v6.954h-6.96zm13.783 0h6.96v6.954h-6.96zm13.817 0h6.96v6.954h-6.96zm13.783 0h6.96v6.954h-6.96zm13.783 0h6.96v6.954h-6.96zm-55.166 13.565h6.96v6.953h-6.96zm13.783 0h6.96v6.953h-6.96zm13.817 0h6.96v6.953h-6.96zm13.783 0h6.96v6.953h-6.96zm13.783 0h6.96v6.953h-6.96zm-55.166 13.597h6.96v6.953h-6.96zm13.783 0h6.96v6.953h-6.96zm13.817 0h6.96v6.953h-6.96zm13.783 0h6.96v6.953h-6.96zm13.783 0h6.96v6.953h-6.96zm-55.166 13.598h6.96v6.952h-6.96zm13.783 0h6.96v6.952h-6.96zm13.817 0h6.96v6.952h-6.96zm13.783 0h6.96v6.952h-6.96zm13.783 0h6.96v6.952h-6.96zm-55.166 13.563h6.96v6.953h-6.96zm13.783 0h6.96v6.953h-6.96zm13.817 0h6.96v6.953h-6.96zm13.783 0h6.96v6.953h-6.96zm13.783 0h6.96v6.953h-6.96zm-55.166 13.597h6.96v6.953h-6.96zm13.783 0h6.96v6.953h-6.96zm13.817 0h6.96v6.953h-6.96zm13.783 0h6.96v6.953h-6.96zm13.783 0h6.96v6.953h-6.96zm-55.166 13.598h6.96v6.953h-6.96zm13.783 0h6.96v6.953h-6.96zm13.817 0h6.96v6.953h-6.96zm13.783 0h6.96v6.953h-6.96zm13.783 0h6.96v6.953h-6.96z" fill="#004581"/><path d="M378.583 168.492c.72 15.173-10.972 28.051-26.16 28.77-15.189.72-28.08-10.96-28.834-26.133-.72-15.173 10.971-28.051 26.16-28.77 15.188-.72 28.114 10.96 28.834 26.133z" fill="#E4781D"/><path d="M461.109 182.09c.72 15.172-10.972 28.05-26.16 28.804-15.189.72-28.08-10.96-28.835-26.133-.72-15.173 10.972-28.052 26.16-28.77 15.189-.754 28.08 10.96 28.835 26.098z" fill="#D8641D"/><path d="M445.406 110.916c1.474 30.45-22.046 56.308-52.492 57.781-30.48 1.473-56.365-22.023-57.84-52.438-1.474-30.449 22.046-56.308 52.492-57.78 30.48-1.473 56.365 22.023 57.84 52.437z" fill="#F99D1C"/><path d="M383.314 287.308s-.034-.206-.068-.548c-.069-.343-.137-.89-.206-1.576-.206-1.404-.411-3.425-.549-5.994-.137-2.569-.24-5.617-.24-9.145 0-3.493.138-7.432.275-11.61 0-.48.034-.994.034-1.474 0-.445-.034-1.061-.034-1.575a103.09 103.09 0 0 1-.069-3.322c-.068-2.26-.103-4.59-.171-6.988-.137-4.829-.24-9.898-.377-15.173-.069-2.637-.069-5.343-.069-8.049 0-1.37 0-2.74-.034-4.11 0-1.37-.035-2.74 0-4.178l.205-8.46.103-4.282c.069-1.438.24-2.842.377-4.28.549-5.687 1.166-11.235 1.783-16.75.652-5.48 1.269-10.891 1.852-16.097 1.131-10.413 2.057-20.14 2.434-28.497.377-8.357.309-15.31.137-20.174-.137-2.432-.24-4.35-.308-5.651-.035-.65-.103-1.13-.138-1.473-.034-.342-.034-.514-.034-.514-.24-2.808.24-4.966 1.097-4.795.755.137 1.543 2.055 1.92 4.453 0 0 .035.171.069.514.034.342.137.856.206 1.507.137 1.335.377 3.253.651 5.72.411 4.932.96 12.022.926 20.516 0 8.494-.412 18.392-1.166 28.907-.377 5.275-.823 10.687-1.234 16.201a880.125 880.125 0 0 0-1.2 16.612c-.069 1.37-.206 2.74-.206 4.144 0 1.37 0 2.774.034 4.144 0 2.74.035 5.48.035 8.22-.035 1.336.068 2.74.102 4.076.035 1.37.103 2.706.138 4.042.102 2.706.171 5.343.274 7.98.24 5.24.514 10.31.72 15.14.103 2.431.206 4.794.343 7.055.068 1.13.103 2.26.137 3.356 0 .274.034.548.034.822 0 .274.034.514.034.857v1.712c-.068 4.282-.137 8.015-.102 11.372.034 3.356.137 6.233.342 8.562a83.49 83.49 0 0 0 .549 5.378c.069.616.137 1.061.206 1.37.068.308.068.48.068.48.343 1.917.617 3.698.926 5.24.274 1.54.583 2.842.823 3.87l.068.377.103.342c.069.24.103.48.172.65.068.206.137.412.171.617.069.172.137.343.172.548l.068.274.103.24c.069.171.103.343.137.514.069.342.103.685.034.959-.137.582-.685 1.062-1.817 1.164-1.097.035-2.708-.513-4.148-1.712-1.44-1.199-2.675-2.911-3.6-4.83a24.231 24.231 0 0 1-1.989-6.37l-.103-.308z" fill="#00356D"/><path d="M385.886 161.744s-.137-.753-.343-2.055c-.103-.65-.309-1.438-.48-2.363a50.165 50.165 0 0 1-.309-1.439 54.206 54.206 0 0 1-.411-1.61c-.137-.547-.274-1.13-.48-1.746-.172-.582-.377-1.199-.583-1.85-.343-1.267-.857-2.603-1.303-3.973-.96-2.774-2.091-5.685-3.223-8.63-1.131-2.947-2.331-5.892-3.36-8.666-1.028-2.809-1.954-5.446-2.64-7.741-.72-2.295-1.165-4.247-1.508-5.583-.275-1.37-.412-2.158-.412-2.158-.171-.787.069-1.473.48-1.473.377 0 .789.48.995 1.097 0 0 .24.753.651 2.055.48 1.267 1.097 3.116 1.989 5.308.857 2.192 1.988 4.693 3.188 7.364 1.234 2.672 2.572 5.549 3.909 8.426 1.337 2.877 2.64 5.788 3.737 8.597.548 1.404 1.097 2.74 1.543 4.076.24.65.445 1.301.651 1.918.206.616.377 1.233.549 1.815.171.582.343 1.13.514 1.678.137.548.274 1.062.377 1.542.206.993.446 1.815.583 2.534.24 1.405.377 2.227.377 2.227.069.308.069.616.103.89 0 .308 0 .582-.034.856a7.917 7.917 0 0 1-.309 1.473c-.308.856-.823 1.404-1.44 1.439-.617.068-1.234-.377-1.714-1.096-.24-.343-.446-.788-.617-1.268-.069-.24-.137-.513-.206-.753l-.206-.822-.068-.069zm3.531-19.386s0-.137.069-.41c.034-.275.068-.686.205-1.13.103-.48.275-1.063.412-1.748.206-.65.446-1.37.72-2.157.274-.754.617-1.576.994-2.432.412-.822.789-1.747 1.234-2.638a79.11 79.11 0 0 1 3.018-5.445 203.458 203.458 0 0 1 3.257-5.207c1.063-1.644 2.057-3.15 2.914-4.452.823-1.302 1.509-2.398 1.989-3.151.48-.788.72-1.199.72-1.199.274-.445.788-.65 1.131-.411.309.205.411.65.24 1.062 0 0-.206.48-.549 1.336-.377.856-.891 2.055-1.577 3.459-.685 1.404-1.474 3.048-2.365 4.795-.858 1.747-1.818 3.596-2.709 5.446a146.948 146.948 0 0 0-2.503 5.446c-.377.856-.686 1.712-.994 2.5a58.13 58.13 0 0 0-.754 2.26c-.206.686-.378 1.336-.549 1.919a21.35 21.35 0 0 1-.309 1.472c-.102.411-.102.72-.137.925-.034.206-.034.308-.034.308a2.837 2.837 0 0 1-.274.96 2.703 2.703 0 0 1-.48.787c-.412.445-.96.822-1.577.856-.618.069-1.2-.24-1.578-.787a2.856 2.856 0 0 1-.48-1.028c-.102-.41-.102-.822-.068-1.267l.034-.069zm-2.983 77.578s.652-.993 1.92-2.466c1.269-1.472 3.155-3.493 5.52-5.72 1.166-1.13 2.469-2.294 3.875-3.527 1.371-1.233 2.845-2.5 4.388-3.802 3.086-2.603 6.412-5.275 9.772-7.946a619.013 619.013 0 0 1 9.942-7.673c3.189-2.397 6.172-4.658 8.743-6.576 2.537-1.918 4.663-3.528 6.137-4.692 1.475-1.13 2.263-1.815 2.263-1.815.823-.685 1.577-.994 1.817-.617.206.308-.137 1.096-.822 1.747 0 0-.755.788-2.16 2.055a232 232 0 0 1-5.829 5.103c-2.434 2.055-5.28 4.487-8.331 7.09-3.052 2.603-6.275 5.343-9.532 8.118a497.376 497.376 0 0 0-9.36 8.254c-1.474 1.336-2.88 2.637-4.217 3.87a93.145 93.145 0 0 0-3.669 3.563c-2.228 2.226-3.977 4.144-5.108 5.514-1.132 1.37-1.68 2.158-1.68 2.158-.857 1.198-1.577 2.157-2.057 2.637-.206.24-.446.411-.652.617-.171.274-.274.582-.514.787-.24.206-.583.274-1.029.069-.445-.274-.891-.96-.994-1.781-.103-.788.034-1.644.274-2.466.275-.822.686-1.576 1.166-2.33l.137-.17zm-5.794-15.618s-.514-.514-1.44-1.404c-.446-.48-1.063-.96-1.714-1.576-.343-.308-.686-.616-1.063-.959-.377-.308-.789-.65-1.234-1.027-.412-.343-.858-.72-1.338-1.13-.48-.377-.96-.788-1.474-1.165-1.028-.822-2.091-1.644-3.188-2.535-2.229-1.78-4.629-3.63-6.96-5.685-1.2-.994-2.298-2.055-3.429-3.117-.549-.514-1.063-1.096-1.577-1.644-.514-.548-1.063-1.062-1.509-1.644a58.033 58.033 0 0 1-1.371-1.644c-.48-.514-.823-1.13-1.234-1.644-.378-.548-.789-1.062-1.132-1.61a26.637 26.637 0 0 1-.926-1.576c-.274-.513-.582-.993-.857-1.438-.205-.48-.445-.925-.651-1.37-.377-.856-.789-1.576-.994-2.226-.446-1.268-.72-2.021-.72-2.021-.275-.754-.138-1.405.274-1.473.377-.069.823.342 1.097.89 0 0 .343.686.891 1.85.275.582.72 1.233 1.166 2.02.24.378.48.789.72 1.234.309.41.617.856.926 1.301.308.446.651.925.994 1.405.377.445.789.924 1.2 1.404.412.48.789.993 1.269 1.473.445.48.925.959 1.44 1.438.445.514.994.96 1.543 1.439.514.48 1.028.993 1.611 1.438 1.131.925 2.263 1.884 3.463 2.775 2.366 1.815 4.834 3.527 7.131 5.206 1.166.822 2.297 1.644 3.36 2.432.515.376 1.063.787 1.543 1.13.48.377.96.753 1.44 1.096.446.342.892.685 1.303 1.027.411.343.789.651 1.166.96.72.616 1.371 1.13 1.851 1.61a432.13 432.13 0 0 1 1.577 1.472l.617.616c.172.24.343.446.48.685.275.446.48.925.583 1.336.24.857.137 1.576-.308 1.987-.446.41-1.2.48-1.989.205a6.694 6.694 0 0 1-1.234-.582 10.457 10.457 0 0 1-1.234-.993l-.069.034z" fill="#00356D"/><path d="M406.011 203.702s.583-.377 1.578-1.062c1.028-.617 2.502-1.576 4.354-2.535.891-.514 1.92-.993 2.983-1.507 1.063-.548 2.194-1.027 3.36-1.541 2.365-1.028 4.903-2.02 7.44-2.98a563.814 563.814 0 0 1 7.508-2.74c2.4-.89 4.629-1.713 6.515-2.432a157.405 157.405 0 0 0 4.525-1.884c1.063-.48 1.68-.787 1.68-.787.617-.274 1.166-.343 1.2-.137.035.205-.343.513-.857.787 0 0-.583.309-1.646.89-1.062.515-2.605 1.302-4.491 2.124-1.851.857-4.046 1.782-6.411 2.775a498.406 498.406 0 0 0-7.372 3.048 164.35 164.35 0 0 0-7.268 3.185c-1.132.548-2.263 1.062-3.258 1.576a54.933 54.933 0 0 0-2.88 1.541c-1.782.96-3.154 1.884-4.148 2.5a43.841 43.841 0 0 0-1.509 1.062c-.857.548-1.611 1.062-2.263 1.302-.651.274-1.165.308-1.371.068-.206-.24-.069-.685.343-1.267.206-.274.48-.616.788-.925l.515-.513c.205-.137.411-.309.617-.446l.068-.102zm10.149-10.515s.24-.377.617-1.028c.377-.65.857-1.644 1.474-2.809.138-.308.309-.582.48-.924.138-.343.275-.651.446-1.028.309-.685.617-1.438.96-2.192.309-.753.583-1.575.892-2.397.308-.822.617-1.644.857-2.5.274-.857.514-1.713.788-2.535.24-.822.446-1.679.652-2.5.445-1.61.754-3.152 1.028-4.453.309-1.302.48-2.432.617-3.186.138-.787.206-1.198.206-1.198.069-.446.309-.754.514-.685.172.068.275.41.24.787 0 0-.034.446-.102 1.233-.069.788-.138 1.919-.343 3.254-.206 1.336-.377 2.912-.755 4.59-.171.822-.308 1.712-.514 2.569-.206.856-.446 1.746-.651 2.637-.206.89-.515 1.747-.755 2.603-.274.856-.514 1.713-.822 2.5a79.619 79.619 0 0 1-.926 2.295c-.137.377-.274.72-.412 1.062-.137.342-.308.65-.445.959-.617 1.233-1.097 2.295-1.475 2.98-.411.685-.651 1.096-.651 1.096-.72 1.199-1.714 1.918-2.263 1.575-.514-.342-.377-1.54.274-2.671l.069-.034zm-51.291-2.158s-.378-.377-.892-1.096a19.565 19.565 0 0 1-1.783-3.117c-.308-.65-.617-1.37-.891-2.158-.274-.788-.549-1.575-.789-2.432a51.997 51.997 0 0 1-1.303-5.411c-.342-1.85-.651-3.7-.891-5.446-.24-1.747-.377-3.357-.514-4.761s-.172-2.569-.24-3.39c-.035-.823-.069-1.268-.069-1.268-.034-.48.137-.822.343-.788.171.034.343.343.411.754 0 0 .069.445.172 1.267.103.788.274 1.952.48 3.322.206 1.37.514 2.98.823 4.658.343 1.713.72 3.494 1.165 5.31.446 1.78.96 3.561 1.509 5.171.274.822.549 1.576.857 2.295.274.72.583 1.37.892 1.986.582 1.2 1.165 2.124 1.611 2.706.446.582.72.89.72.89.206.24.411.446.583.686.171.205.308.41.411.616.24.377.343.754.206 1.028-.137.274-.514.41-1.063.308a3.439 3.439 0 0 1-.857-.342c-.274-.206-.617-.411-.857-.72l-.034-.068z" fill="#00356D"/><path d="M388.731 285.081c-9.702 0-17.554 7.844-17.554 17.537h35.109c0-9.693-7.852-17.537-17.555-17.537z" fill="#D8641D"/><path d="M406.286 290.356c-6.789 0-12.275 5.48-12.275 12.262h24.583c-.034-6.782-5.52-12.262-12.308-12.262z" fill="#F99D1C"/><path d="M358.937 296.316a6.289 6.289 0 0 0-6.308 6.302h12.617a6.31 6.31 0 0 0-6.309-6.302z" fill="#E4781D"/><path d="M21.017 209.319c-.583 11.748 8.503 21.715 20.263 22.297 11.76.548 21.737-8.494 22.32-20.242.549-11.748-8.503-21.715-20.263-22.298-11.76-.548-21.771 8.529-22.32 20.243z" fill="#D8641D"/><path d="M33.154 154.243c-1.131 23.565 17.04 43.567 40.629 44.732 23.588 1.13 43.611-17.057 44.777-40.587 1.131-23.565-17.04-43.567-40.629-44.732-23.588-1.164-43.645 17.023-44.777 40.587z" fill="#F99D1C"/><path d="M81.223 290.767s.034-.137.068-.411c.035-.274.103-.685.172-1.233.137-1.096.308-2.637.446-4.624.102-1.986.205-4.35.171-7.056 0-2.705-.103-5.754-.24-8.973 0-.377-.034-.754-.034-1.13 0-.343.034-.823.034-1.234.034-.856.034-1.712.069-2.568.034-1.747.102-3.528.137-5.412.103-3.733.205-7.672.274-11.748.034-2.055.034-4.144.069-6.234 0-1.061 0-2.123.034-3.185 0-1.062.034-2.124 0-3.22-.069-2.157-.103-4.35-.172-6.541l-.102-3.289c-.069-1.096-.206-2.192-.275-3.288-.411-4.418-.891-8.7-1.371-12.98-.48-4.248-.994-8.426-1.44-12.468-.892-8.083-1.612-15.584-1.886-22.057a187.245 187.245 0 0 1-.103-15.619c.103-1.884.172-3.356.24-4.35.035-.513.069-.89.103-1.164.034-.274.034-.377.034-.377.206-2.192-.171-3.836-.857-3.699-.583.103-1.2 1.576-1.474 3.46 0 0-.034.136-.069.41-.034.274-.102.651-.171 1.165a173.41 173.41 0 0 1-.514 4.418c-.343 3.836-.755 9.316-.72 15.858 0 6.576.308 14.249.891 22.4.309 4.076.617 8.289.96 12.536.343 4.247.686 8.597.926 12.878a99.08 99.08 0 0 1 .171 3.186c0 1.062 0 2.123-.034 3.22 0 2.123-.034 4.246-.034 6.37.034 1.062-.069 2.123-.069 3.151l-.103 3.151a5530.5 5530.5 0 0 1-.205 6.165c-.206 4.076-.378 7.98-.549 11.714-.103 1.884-.171 3.7-.24 5.48-.034.89-.069 1.747-.103 2.603 0 .206-.034.411-.034.65 0 .206-.034.412-.034.652v1.335c.068 3.289.102 6.2.068 8.803-.034 2.603-.103 4.83-.24 6.645-.137 1.815-.274 3.22-.411 4.144-.069.48-.103.822-.172 1.062-.034.24-.068.376-.068.376-.24 1.473-.48 2.878-.72 4.076-.24 1.2-.446 2.192-.617 2.98l-.069.308-.069.274c-.034.172-.068.377-.137.514-.034.171-.103.343-.137.48-.034.137-.103.274-.137.41l-.069.24-.068.206-.103.41a1.89 1.89 0 0 0-.034.754c.103.446.548.822 1.405.891.858.034 2.092-.377 3.189-1.302 1.097-.924 2.057-2.26 2.777-3.733.72-1.507 1.234-3.185 1.543-4.932l.103-.548z" fill="#00356D"/><path d="M79.234 193.563s.103-.582.24-1.575c.069-.514.24-1.13.377-1.816.069-.342.138-.719.24-1.13.103-.377.206-.788.343-1.233.103-.41.24-.89.377-1.336.138-.445.275-.924.446-1.438.274-.993.652-2.02 1.029-3.083a210.996 210.996 0 0 1 2.503-6.679c.891-2.26 1.782-4.555 2.605-6.713.789-2.158 1.509-4.213 2.023-5.994.583-1.746.892-3.288 1.166-4.315.206-1.062.343-1.679.343-1.679.137-.616-.035-1.13-.377-1.13-.275 0-.583.377-.755.856 0 0-.171.583-.48 1.576-.377.993-.857 2.432-1.543 4.11-.651 1.678-1.542 3.63-2.468 5.72-.96 2.09-1.989 4.281-3.017 6.508a178.908 178.908 0 0 0-2.915 6.644c-.411 1.096-.857 2.124-1.2 3.151-.171.514-.342.994-.514 1.473-.171.48-.308.96-.446 1.404-.137.446-.274.89-.377 1.302a59.8 59.8 0 0 1-.308 1.199c-.172.753-.343 1.404-.446 1.952a95.127 95.127 0 0 0-.309 1.713 4.586 4.586 0 0 0-.034 1.37c.034.445.137.822.24 1.164.24.65.652 1.096 1.132 1.13.48.035.96-.274 1.337-.856a6.26 6.26 0 0 0 .48-.959c.068-.205.103-.377.171-.582.069-.206.103-.411.137-.617v-.137zm-2.743-15.002s0-.102-.034-.308c-.034-.205-.068-.514-.171-.89-.103-.377-.206-.822-.343-1.336-.172-.514-.343-1.062-.549-1.678-.24-.583-.48-1.233-.754-1.884-.309-.65-.583-1.336-.96-2.021-.686-1.37-1.509-2.809-2.331-4.213a173.217 173.217 0 0 0-2.538-4.041 394.45 394.45 0 0 1-2.228-3.46c-.652-1.027-1.166-1.85-1.543-2.432-.377-.582-.583-.924-.583-.924-.206-.343-.583-.48-.857-.309-.24.137-.309.514-.171.822 0 0 .137.377.411 1.028.274.65.686 1.576 1.2 2.672a117.255 117.255 0 0 0 1.817 3.699 161.367 161.367 0 0 1 2.092 4.212c.685 1.439 1.371 2.878 1.92 4.213.274.685.514 1.336.788 1.953.206.616.412 1.198.583 1.746a28.1 28.1 0 0 0 .411 1.473c.103.445.172.822.24 1.13.069.309.103.548.103.72.035.171.035.24.035.24.034.273.102.513.205.753.103.205.206.411.377.617.309.342.755.616 1.235.65.48.035.925-.171 1.234-.616.171-.206.274-.48.377-.788.103-.308.069-.617.034-.959v-.069zm2.298 60.076s-.515-.753-1.509-1.918a53.173 53.173 0 0 0-4.286-4.418c-.925-.856-1.92-1.781-2.983-2.74a105.132 105.132 0 0 0-3.394-2.946c-2.366-2.02-4.971-4.076-7.577-6.13a614.84 614.84 0 0 0-7.68-5.96c-2.469-1.85-4.766-3.597-6.754-5.104-1.989-1.507-3.635-2.74-4.766-3.63-1.131-.89-1.749-1.404-1.749-1.404-.617-.514-1.234-.754-1.405-.48-.172.24.103.856.617 1.336 0 0 .583.582 1.68 1.575 1.063.96 2.64 2.364 4.526 3.973 1.885 1.61 4.08 3.494 6.445 5.48a2828.12 2828.12 0 0 0 7.372 6.268 533.793 533.793 0 0 1 7.268 6.371c1.132 1.028 2.229 2.02 3.257 2.98 1.029.959 1.989 1.884 2.846 2.74 1.714 1.713 3.086 3.185 3.977 4.247.892 1.062 1.303 1.678 1.303 1.678.652.925 1.234 1.679 1.612 2.055.171.172.342.309.514.48.137.205.206.445.411.582.172.137.446.206.789.034.343-.205.686-.753.754-1.37.069-.616-.034-1.267-.206-1.918a8.098 8.098 0 0 0-.891-1.815l-.171.034z" fill="#00356D"/><path d="M63.634 226.033s-.445-.308-1.234-.822c-.789-.48-1.92-1.233-3.36-1.952-.686-.377-1.474-.754-2.297-1.165-.823-.41-1.714-.788-2.606-1.199-1.817-.787-3.806-1.575-5.76-2.329-1.988-.753-3.943-1.438-5.794-2.123-1.852-.685-3.566-1.302-5.04-1.884-1.474-.582-2.674-1.096-3.497-1.439a68.519 68.519 0 0 0-1.303-.582c-.48-.24-.892-.274-.926-.103-.034.137.274.411.652.617l1.268.685c.823.411 2.023.993 3.463 1.644 1.44.65 3.154 1.37 4.971 2.124 1.818.753 3.772 1.54 5.726 2.363 1.954.788 3.874 1.644 5.623 2.466.891.445 1.749.822 2.537 1.233.789.411 1.543.788 2.229 1.199 1.371.753 2.434 1.438 3.223 1.918.754.514 1.165.822 1.165.822.652.41 1.235.822 1.749 1.027.514.206.891.24 1.063.069.171-.171.068-.548-.24-.993a5.756 5.756 0 0 0-.617-.72 4.108 4.108 0 0 0-.412-.376c-.137-.103-.308-.24-.48-.343l-.103-.137zm-7.851-8.117s-.172-.274-.48-.788c-.309-.514-.686-1.267-1.166-2.192-.103-.24-.24-.445-.377-.72-.103-.24-.24-.513-.343-.787-.24-.548-.48-1.096-.754-1.679-.24-.582-.446-1.233-.686-1.85-.24-.616-.48-1.266-.686-1.917l-.617-1.952c-.205-.651-.343-1.302-.514-1.918-.343-1.233-.583-2.432-.789-3.46-.24-1.027-.377-1.884-.48-2.466a41.743 41.743 0 0 0-.171-.925c-.069-.342-.24-.582-.411-.548-.138.035-.206.309-.172.617 0 0 .034.342.069.959.068.616.103 1.473.274 2.534.137 1.028.309 2.261.583 3.528.137.651.24 1.302.411 1.987.172.685.343 1.37.515 2.02.137.686.377 1.37.582 2.021.206.651.412 1.336.618 1.953.24.616.48 1.198.72 1.78.102.275.24.549.342.823.103.274.24.514.343.753.48.96.857 1.747 1.132 2.295.308.548.514.856.514.856.549.925 1.337 1.473 1.749 1.233.411-.274.308-1.198-.206-2.055v-.102z" fill="#00356D"/><path d="M77.04 289.054c7.509 0 13.611 6.063 13.611 13.564H63.43c0-7.501 6.102-13.564 13.611-13.564z" fill="#D8641D"/><path d="M63.429 293.13c5.245 0 9.497 4.247 9.497 9.488H53.897c.034-5.24 4.286-9.488 9.532-9.488z" fill="#F99D1C"/><path d="M100.08 297.754a4.863 4.863 0 0 1 4.869 4.864h-9.772c.034-2.706 2.194-4.864 4.903-4.864z" fill="#E4781D"/><path fill="#3977BC" d="M0 236.685h480v67.234H0z"/><path d="M0 242.577h17.897v5.343H0zm20.023 0H40.56v5.343H20.023zm22.628 0h20.537v5.343H42.651zm22.663 0h20.537v5.343H65.314zm22.629 0h20.537v5.343H87.943zM0 249.495h6.617v5.343H0zm8.709 0h20.537v5.343H8.709zm22.662 0h20.537v5.343H31.371zm22.629 0h20.537v5.343H54zm22.663 0H97.2v5.343H76.663zM0 256.243h17.897v5.343H0zm20.023 0H40.56v5.343H20.023zm22.628 0h20.537v5.343H42.651zm22.663 0h20.537v5.343H65.314zm22.629 0h20.537v5.343H87.943zM0 263.127h6.617v5.343H0zm8.709 0h20.537v5.343H8.709zm22.662 0h20.537v5.343H31.371zm22.629 0h20.537v5.343H54zm22.663 0H97.2v5.343H76.663zm33.977-20.55h20.537v5.343H110.64zm22.663 0h20.537v5.343h-20.537zm22.628 0h20.537v5.343h-20.537zm22.663 0h20.537v5.343h-20.537zm22.629 0h20.537v5.343h-20.537zm-101.897 6.918h20.537v5.343H99.326zm22.663 0h20.537v5.343h-20.537zm22.628 0h20.537v5.343h-20.537zm22.663 0h20.537v5.343H167.28zm22.663 0h20.537v5.343h-20.537zm-79.303 6.748h20.537v5.343H110.64zm22.663 0h20.537v5.343h-20.537zm22.628 0h20.537v5.343h-20.537zm22.663 0h20.537v5.343h-20.537zm22.629 0h20.537v5.343h-20.537zm-101.897 6.884h20.537v5.343H99.326zm22.663 0h20.537v5.343h-20.537zm22.628 0h20.537v5.343h-20.537zm22.663 0h20.537v5.343H167.28zm22.663 0h20.537v5.343h-20.537zm33.977-20.55h20.537v5.343H223.92zm22.629 0h20.537v5.343h-20.537zm22.662 0h20.537v5.343h-20.537zm22.629 0h20.537v5.343H291.84zm22.663 0h20.537v5.343h-20.537zm-101.897 6.918h20.537v5.343h-20.537zm22.663 0h20.537v5.343h-20.537zm22.628 0h20.537v5.343h-20.537zm22.663 0h20.537v5.343H280.56zm22.629 0h20.537v5.343h-20.537zm-79.269 6.748h20.537v5.343H223.92zm22.629 0h20.537v5.343h-20.537zm22.662 0h20.537v5.343h-20.537zm22.629 0h20.537v5.343H291.84zm22.663 0h20.537v5.343h-20.537zm-101.897 6.884h20.537v5.343h-20.537zm22.663 0h20.537v5.343h-20.537zm22.628 0h20.537v5.343h-20.537zm22.663 0h20.537v5.343H280.56zm22.629 0h20.537v5.343h-20.537zm34.011-20.55h20.537v5.343H337.2zm22.629 0h20.537v5.343h-20.537zm22.662 0h20.537v5.343h-20.537zm22.629 0h20.537v5.343H405.12zm22.663 0h20.537v5.343h-20.537zm-101.897 6.918h20.537v5.343h-20.537zm22.628 0h20.537v5.343h-20.537zm22.663 0h20.537v5.343h-20.537zm22.663 0h20.537v5.343H393.84zm22.629 0h20.537v5.343h-20.537zm-79.269 6.748h20.537v5.343H337.2zm22.629 0h20.537v5.343h-20.537zm22.662 0h20.537v5.343h-20.537zm22.629 0h20.537v5.343H405.12zm22.663 0h20.537v5.343h-20.537zm-101.897 6.884h20.537v5.343h-20.537zm22.628 0h20.537v5.343h-20.537zm22.663 0h20.537v5.343h-20.537zm22.663 0h20.537v5.343H393.84zm22.629 0h20.537v5.343h-20.537zm33.977-20.55h20.537v5.343h-20.537zm22.663 0H480v5.343h-6.891zm-33.943 6.918h20.537v5.343h-20.537zm22.628 0H480v5.343h-18.206zm-11.348 6.748h20.537v5.343h-20.537zm22.663 0H480v5.343h-6.891zm-33.943 6.884h20.537v5.343h-20.537zm22.628 0H480v5.343h-18.206zM0 270.114h17.897v5.343H0zm20.023 0H40.56v5.343H20.023zm22.628 0h20.537v5.343H42.651zm22.663 0h20.537v5.343H65.314zm22.629 0h20.537v5.343H87.943zM0 277.033h6.617v5.343H0zm8.709 0h20.537v5.343H8.709zm22.662 0h20.537v5.343H31.371zm22.629 0h20.537v5.343H54zm22.663 0H97.2v5.343H76.663zM0 283.78h17.897v5.343H0zm20.023 0H40.56v5.343H20.023zm22.628 0h20.537v5.343H42.651zm22.663 0h20.537v5.343H65.314zm22.629 0h20.537v5.343H87.943zM0 290.665h6.617v5.343H0zm8.709 0h20.537v5.343H8.709zm22.662 0h20.537v5.343H31.371zm22.629 0h20.537v5.343H54zm22.663 0H97.2v5.343H76.663zm33.977-20.551h20.537v5.343H110.64zm22.663 0h20.537v5.343h-20.537zm22.628 0h20.537v5.343h-20.537zm22.663 0h20.537v5.343h-20.537zm22.629 0h20.537v5.343h-20.537zm-101.897 6.919h20.537v5.343H99.326zm22.663 0h20.537v5.343h-20.537zm22.628 0h20.537v5.343h-20.537zm22.663 0h20.537v5.343H167.28zm22.663 0h20.537v5.343h-20.537zm-79.303 6.747h20.537v5.343H110.64zm22.663 0h20.537v5.343h-20.537zm22.628 0h20.537v5.343h-20.537zm22.663 0h20.537v5.343h-20.537zm22.629 0h20.537v5.343h-20.537zm-101.897 6.885h20.537v5.343H99.326zm22.663 0h20.537v5.343h-20.537zm22.628 0h20.537v5.343h-20.537zm22.663 0h20.537v5.343H167.28zm22.663 0h20.537v5.343h-20.537zm33.977-20.551h20.537v5.343H223.92zm22.629 0h20.537v5.343h-20.537zm22.662 0h20.537v5.343h-20.537zm22.629 0h20.537v5.343H291.84zm22.663 0h20.537v5.343h-20.537zm-101.897 6.919h20.537v5.343h-20.537zm22.663 0h20.537v5.343h-20.537zm22.628 0h20.537v5.343h-20.537zm22.663 0h20.537v5.343H280.56zm22.629 0h20.537v5.343h-20.537zm-79.269 6.747h20.537v5.343H223.92zm22.629 0h20.537v5.343h-20.537zm22.662 0h20.537v5.343h-20.537zm22.629 0h20.537v5.343H291.84zm22.663 0h20.537v5.343h-20.537zm-101.897 6.885h20.537v5.343h-20.537zm22.663 0h20.537v5.343h-20.537zm22.628 0h20.537v5.343h-20.537zm22.663 0h20.537v5.343H280.56zm22.629 0h20.537v5.343h-20.537zm34.011-20.551h20.537v5.343H337.2zm22.629 0h20.537v5.343h-20.537zm22.662 0h20.537v5.343h-20.537zm22.629 0h20.537v5.343H405.12zm22.663 0h20.537v5.343h-20.537zm-101.897 6.919h20.537v5.343h-20.537zm22.628 0h20.537v5.343h-20.537zm22.663 0h20.537v5.343h-20.537zm22.663 0h20.537v5.343H393.84zm22.629 0h20.537v5.343h-20.537zM337.2 283.78h20.537v5.343H337.2zm22.629 0h20.537v5.343h-20.537zm22.662 0h20.537v5.343h-20.537zm22.629 0h20.537v5.343H405.12zm22.663 0h20.537v5.343h-20.537zm-101.897 6.885h20.537v5.343h-20.537zm22.628 0h20.537v5.343h-20.537zm22.663 0h20.537v5.343h-20.537zm22.663 0h20.537v5.343H393.84zm22.629 0h20.537v5.343h-20.537zm33.977-20.551h20.537v5.343h-20.537zm22.663 0H480v5.343h-6.891zm-33.943 6.919h20.537v5.343h-20.537zm22.628 0H480v5.343h-18.206zm-11.348 6.747h20.537v5.343h-20.537zm22.663 0H480v5.343h-6.891zm-33.943 6.885h20.537v5.343h-20.537zm22.628 0H480v5.343h-18.206zM0 297.515h17.897v5.343H0zm20.023 0H40.56v5.343H20.023zm22.628 0h20.537v5.343H42.651zm22.663 0h20.537v5.343H65.314zm22.629 0h20.537v5.343H87.943zm22.697 0h20.537v5.343H110.64zm22.663 0h20.537v5.343h-20.537zm22.628 0h20.537v5.343h-20.537zm22.663 0h20.537v5.343h-20.537zm22.629 0h20.537v5.343h-20.537zm22.697 0h20.537v5.343H223.92zm22.629 0h20.537v5.343h-20.537zm22.662 0h20.537v5.343h-20.537zm22.629 0h20.537v5.343H291.84zm22.663 0h20.537v5.343h-20.537zm22.697 0h20.537v5.343H337.2zm22.629 0h20.537v5.343h-20.537zm22.662 0h20.537v5.343h-20.537zm22.629 0h20.537v5.343H405.12zm22.663 0h20.537v5.343h-20.537zm22.663 0h20.537v5.343h-20.537zm22.663 0H480v5.343h-6.891z" fill="#004F96"/><path d="M9.874 116.088h108.651v83.503H9.874z"/></g></svg>