<svg width="120" height="120" viewBox="0 0 120 120" xmlns="http://www.w3.org/2000/svg" xmlns:xlink="http://www.w3.org/1999/xlink"><defs><path id="a" d="M.231.983H57.29V55.46H.23z"/><path id="c" d="M.367.145h24.582v28.424H.367z"/></defs><g fill="none" fill-rule="evenodd"><path d="M83.845 34.477C99.722 37.421 113.182 47.251 121 60.78c-7.83 13.554-21.33 23.394-37.248 26.317-13.121-15.082-13.087-37.57.094-52.619" fill="#FEBB7A"/><g transform="matrix(-1 0 0 1 84.077 32.557)"><mask id="b" fill="#fff"><use xlink:href="#a"/></mask><path d="M10.184.983C6.78.983 3.46 1.321.23 1.92c13.183 15.048 13.216 37.537.094 52.619 3.2.588 6.49.92 9.859.92 20.133 0 37.698-10.958 47.106-27.237C47.882 11.942 30.317.983 10.184.983" fill="#F6A342" mask="url(#b)"/></g><g transform="matrix(-1 0 0 1 27.154 46.422)"><mask id="d" fill="#fff"><use xlink:href="#c"/></mask><path fill="#F6A342" mask="url(#d)" d="M.367 14.356L24.95 28.57V.145z"/></g><path d="M67.49 36.471c-4.474 4.48-4.474 11.73 0 16.21V36.47zm0 32.421c-4.474 4.48-4.474 11.73 0 16.21v-16.21zm0-16.21c-4.474 4.48-4.474 11.73 0 16.21v-16.21zm-11.038 8.105c-4.474 4.48-4.474 11.73 0 16.21v-16.21zm0-16.211c-4.474 4.48-4.474 11.73 0 16.21v-16.21zm-10.903 8.106c-4.472 4.48-4.472 11.73 0 16.21v-16.21z" fill="#FEBB7A"/><path d="M87.374 54.32c0-4.478 3.624-8.106 8.094-8.106 4.471 0 8.094 3.628 8.094 8.105s-3.623 8.105-8.094 8.105c-4.47 0-8.094-3.628-8.094-8.105" fill="#000"/></g></svg>