<svg width="120" height="120" viewBox="0 0 120 120" xmlns="http://www.w3.org/2000/svg"><g fill="none" fill-rule="evenodd"><path d="M68.4 117.594c.034 0 .07 0 .104-.002a2.722 2.722 0 0 0 2.622-2.82l-1.291-34.286c-.056-1.5-1.303-2.69-2.826-2.614a2.722 2.722 0 0 0-2.623 2.818l1.291 34.287a2.723 2.723 0 0 0 2.723 2.617" fill="#FFC391"/><path d="M67.009 77.871c1.523-.074 2.77 1.115 2.826 2.615l.46 12.224c-.696.24-1.402.406-2.132.57-.52.118-1.132.182-1.569.514-.686.52-.7 1.403-.636 2.186.28 3.404.431 6.827.348 10.246-.033 1.351-1.162 4.364 1.117 4.347 1.12-.008 2.412-.542 3.5-1.205l.203 5.404a2.722 2.722 0 0 1-2.726 2.822 2.723 2.723 0 0 1-2.723-2.617l-1.29-34.287a2.722 2.722 0 0 1 2.622-2.819m-17.872 41.072a2.723 2.723 0 0 0 2.72-2.575c.328-6.14.656-12.13.984-18.12.327-5.992.655-11.984.982-18.127a2.72 2.72 0 0 0-2.577-2.859 2.72 2.72 0 0 0-2.867 2.57c-.328 6.141-.656 12.13-.983 18.12-.327 5.993-.656 11.984-.983 18.128a2.72 2.72 0 0 0 2.724 2.863" fill="#FFC391"/><path d="M47.396 97.953c.328-5.99.655-11.98.983-18.121a2.72 2.72 0 0 1 2.867-2.57 2.721 2.721 0 0 1 2.577 2.86c-.241 4.528-.483 8.976-.725 13.4-.727.294-1.484.463-2.295.567-.49.063-1.013.064-1.473.27-.626.281-.898.787-1.033 1.44a17.315 17.315 0 0 0-.275 4.934c.148 1.798.065 4.788-.022 6.583-.08 1.64.29 2.676 2.534 2.423.574-.064 1.164-.274 1.712-.583-.13 2.388-.259 4.786-.389 7.213a2.722 2.722 0 0 1-2.867 2.57 2.721 2.721 0 0 1-2.577-2.86c.328-6.142.655-12.135.983-18.126" fill="#FFC391"/><path d="M81.966 69.337c1.5 0 2.695-.1 3.216-.152l-.792-7.814c-3.355.337-6.302-.144-7.119-.525-1.313-1.456-2.046-3.64-2.733-6.452-.904-3.705-3.04-7.285-4.799-9.99l-6.609 4.271c1.31 2.014 3.124 4.992 3.755 7.576.876 3.587 2.07 7.305 4.849 10.188 2.343 2.43 6.996 2.898 10.232 2.898" fill="#FFD"/><path d="M29.13 38.132a.554.554 0 0 1-.72-.717 16.64 16.64 0 0 1 6.041-7.539c3.052-2.08 7.48-2.846 11.167-2.58.93 5.634-1.02 11.665-5.075 15.697-.385.383-1.018.757-1.417.389-.253-.235-.231-.633-.19-.975l.464-3.83a13.116 13.116 0 0 1-6.443 4.702c-.438.145-.847-.284-.695-.718a23.482 23.482 0 0 1 3.49-6.503 44.884 44.884 0 0 0-6.622 2.074" fill="#28355D"/><path d="M38.96 42.217c.03-.064.059-.129.09-.193.506-1.042 1.224-1.952 1.825-2.931-.03 1.304-.123 2.66-.395 3.956-.388.362-.975.682-1.354.333-.253-.235-.231-.633-.19-.975l.023-.19m-6.718.616c1.027-.812 2.058-2.167 3.022-3.053 1.146-1.051 2.006-1.883 3.245-2.829-.407 1.69-3.25 5.042-3.478 5.425a13 13 0 0 1-2.073.902.552.552 0 0 1-.716-.445m-3.831-5.418l.02-.043c1.678-1.661 3.816-2.746 6.18-2.425-.223.734-.699 1.3-1.32 1.76a45.22 45.22 0 0 0-4.16 1.425.554.554 0 0 1-.72-.717m14.33-2.711c-.573-1.01-1.431-1.389-2.485-1.82-1.82-.748-3.406-1.66-4.102-3.613-.036-.101-.065-.206-.097-.31 2.882-1.384 6.479-1.888 9.562-1.666.565 3.426.059 6.996-1.332 10.176-.704-.742-1.101-1.986-1.546-2.767" fill="#28355D"/><path d="M71.218 71.676s1.363 7.835 1.515 10.94c.15 3.106.454 8.241-.758 8.544-1.212.301-4.392.755-6.513.755-2.12 0-3.938.754-4.847 0-.908-.755-1.06-5.571-1.06-5.571h-1.817v.889c-.303 2.718.128 3.927-.77 4.38-.896.453-5.75.822-7.716.637-1.966-.184-5.544-1.09-6.103-2.148-.558-1.057-.137-6.796.106-9.817.245-3.02 2.971-11.27 2.971-11.27l24.992 2.661z" fill="#880E3D"/><g fill="#880E3D"><path d="M43.255 80.285c.245-3.02 2.972-11.27 2.972-11.27l24.99 2.662s1.045 6 1.407 9.58c-1.8 1.777-5.623 1.622-7.825 1.534-2.024-.082-4.048-.32-6.074-.308-.931.005-1.823.025-2.688.398-1.02.439-1.887 1.127-2.958 1.473-1.739.561-3.59.413-5.36.14-.764-.117-2.443-.645-3.156-.152-1.242.86 2.983 2.347 2.885 2.792-.098.444-1.636.038-2.456.137-.206.025-.342.212-.237.41.962 1.808 5.604 2.567 5.57 2.828-.035.262-.5.728-.757.772-.186.031-.234.258-.163.4.116.235.27.434.453.604-.22-.008-.428-.018-.606-.034-1.966-.185-5.544-1.091-6.102-2.149-.559-1.057-.139-6.796.105-9.817"/><path d="M61.406 85.479c.725 0-.001 1.753-.422 2.654-.07.15-.023.36.163.401.932.2.848.336.868 1.1.013.486.187.949.423 1.369a5.9 5.9 0 0 0 .831 1.106c-1.145.157-2.08.282-2.653-.194-.759-.63-1.005-4.443-1.061-5.571.579-.459 1.126-.865 1.851-.865"/></g><path d="M56.473 42.336h7.772c4.614 0 8.467 3.507 8.886 8.088l2.046 27.709a3.055 3.055 0 0 1-3.052 3.275H48.594a3.055 3.055 0 0 1-3.053-3.275l2.046-27.71c.42-4.58 4.273-8.087 8.886-8.087" fill="#D11335"/><path d="M45.541 78.133l2.046-27.71c.42-4.58 4.273-8.087 8.886-8.087h7.772c1.053 0 2.063.19 3.005.527.153.816.237 1.645.197 2.467-.04.853-.197 1.813-.82 2.454-.914.94-2.543.892-3.753.852-1.28-.043-2.56-.248-3.842-.183-.43.021-1.025.015-1.39.291-.354.268-.432.717-.621 1.093-.348.694-.867 1.175-1.413 1.718-.474.47-1.05.886-.529 1.521.46.56 1.464.769 2.113.967 1.37.418 6.127 1.18 4.703 3.454-.085.134-.02.289.098.373 3.106 2.224 4.576 6.258 4.715 9.961.086 2.273-.597 4.149-1.514 6.197-.589 1.314-1.696 2.783-1.927 4.215-.463 2.871 4.619 2.216 6.233 2.385 1.395.145 2.834.292 4.263.303-.473.3-1.032.477-1.638.477H48.594a3.056 3.056 0 0 1-3.053-3.275" fill-opacity=".1" fill="#28355D"/><path d="M72.586 28.084c6.175 2.649 10.8 8.565 11.981 15.15.096.532-.541.879-.93.502l-3.36-3.257.472 7.874c.029.482-.54.774-.907.459a14.49 14.49 0 0 1-3.866-5.263 21.434 21.434 0 0 1-.527 4.416c-.086.38-.24.82-.617.926-.39.109-.759-.213-1.022-.52-2.301-2.69-3.287-6.308-3.369-9.843-.08-3.534 1.32-7.006 2.145-10.444" fill="#28355D"/><path d="M77.96 34.623c-.76.7-1.096 1.808-1.768 2.597-1.425 1.67-3.453 2.802-5.608 3.192a20.197 20.197 0 0 1-.143-1.884c-.081-3.534 1.32-7.006 2.145-10.444 2.834 1.216 5.336 3.126 7.334 5.468-.711.287-1.423.579-1.96 1.071m2.706 3.354c.21-.143.828.198.986.289 1.209.685 1.996 2.19 2.57 3.447.134.503.254 1.008.345 1.521a.552.552 0 0 1-.5.652c-.324-.523-.65-1.045-.968-1.573-.524-.87-1.11-1.7-1.624-2.574-.137-.23-.9-1.701-.81-1.762m-6.036 3.71c.717.823 1.1 1.837 1.304 2.925a21.47 21.47 0 0 1-.484 3.353c-.086.38-.24.821-.617.926a.591.591 0 0 1-.156.02c-.72-2.42-.898-4.97-.047-7.224m3.741-.418a10.02 10.02 0 0 1 2.13 2.937l.249 4.147a.556.556 0 0 1-.723.559c-1.208-2.426-1.998-5.176-1.657-7.643" fill="#28355D"/><path d="M52.235 2.658s7.441-4.308 16.96-.96c6.87 2.417 11.11 8.558 12.726 14.7 1.616 6.142-2.34 16.234-7.252 17.863-4.913 1.63-31.752-2.145-31.752-2.145s-7.545-3.333-6.535-15.919C37.39 3.611 46.58.497 52.235 2.658" fill="#28355D"/><path d="M40.889 21.544c.172.003.318-.178.264-.346-.978-3.017-.72-5.563.582-8.635.96-2.268 2.706-5.105 4.76-6.688 2.16-1.665 4.114-2.07 6.685-2.829 1.691-.498 3.137-.464 4.733.337.849.425 2.508 1.163 2.577 2.251.022.35.57.351.547 0-.001-.018-.008-.036-.01-.054a.273.273 0 0 0 .064-.08c1.61-3.228 5.937-2.318 8.67-1.27 3.362 1.289 6.67 3.688 8.84 6.552 1.15 1.517 1.968 3.254 2.119 5.164.086 1.095-.007 2.208.16 3.299.166 1.084.645 1.71 1.31 2.022-.585 5.583-3.773 11.75-7.521 12.994-4.913 1.63-31.752-2.145-31.752-2.145s-4.406-1.953-6.032-8.494c.908-1.26 2.307-2.109 4.004-2.078" fill="#28355D"/><path d="M74.225 28.956c-.016 2.385 1.058 3.625 4.026 3.245 2.967-.38 5.763-3.955 5.472-6.33-.461-3.774-5.056-4.51-7.208-2.198-1.87 2.01-2.273 2.66-2.29 5.283" fill="#FFC391"/><path d="M76.515 23.673c1.16-1.247 3.03-1.598 4.58-1.074.29 1.113.27 2.33-.308 3.33-.363.627-1.199.962-1.265 1.725-.033.387.198.764.248 1.14.109.837-.202 1.765-.584 2.492a6.133 6.133 0 0 1-.53.836c-.135.03-.27.061-.405.079-2.968.38-4.042-.86-4.026-3.245.018-2.623.42-3.273 2.29-5.283m-30.021 5.283c.016 2.385-1.059 3.625-4.026 3.245-2.968-.38-5.763-3.955-5.472-6.33.461-3.774 5.055-4.51 7.207-2.198 1.871 2.01 2.273 2.66 2.29 5.283" fill="#FFC391"/><path d="M42.468 32.2c-.007 0-.013-.002-.019-.003-1.122-1-2.45-2.627-2.397-4.183.04-1.2 1.241-1.41 1.126-2.707-.085-.945-.616-1.967-.647-2.919 1.325-.153 2.732.275 3.673 1.285 1.87 2.01 2.272 2.66 2.29 5.283.016 2.385-1.058 3.625-4.026 3.245" fill="#FFC391"/><path d="M42.285 27.767c0 9.954 8.092 12.687 18.075 12.687 9.981 0 18.074-2.733 18.074-12.687 0-9.954-1.653-21.346-18.074-21.346-16.423 0-18.075 11.392-18.075 21.346" fill="#FFC391"/><path d="M76.57 28.256c-.377-.598-.651-1.274-.918-1.926-.575-1.402-1.228-2.767-1.786-4.176-1.145-2.89-1.91-5.927-3.051-8.814a14.221 14.221 0 0 0-.88-2.025c-.169-.311-.625-.037-.473.276.313.64.592 1.292.848 1.952.52 1.477.82 3.022 1.078 4.578-2.181.24-4.352-.028-6.09-1.492-1.671-1.408-2.686-3.45-3.569-5.404-.107-.237-.425-.128-.5.064-.761 1.958-1.553 4.492-3.704 5.329-1.61.627-1.462-.77-1.694-1.874-.255-1.212-.531-2.413-.73-3.636-.044-.277-.46-.242-.527 0-1.414 5.104-5.772 16.576-12.289 16.587.008-9.937 1.692-21.274 18.074-21.274 16.422 0 18.075 11.392 18.075 21.347 0 .058-.004.113-.005.171-.43.912-1.17 1.41-1.859.317" fill="#FFC391"/><path d="M60.428 32.72c2.727 0 5.322-1.788 6.256-4.354a.605.605 0 1 0-1.139-.412c-.78 2.145-3.1 3.68-5.38 3.55-2.287-.12-4.425-1.884-4.972-4.1a.604.604 0 0 0-.733-.443.604.604 0 0 0-.444.731c.68 2.758 3.24 4.869 6.084 5.02.11.005.22.009.328.009" fill="#FF7BA1"/><path d="M61.081 24.371c.661.034 1.128.668 1.186 1.295.053.583-.272 1.473-.926 1.588-.38.066-.722-.3-.514-.666.183-.321.512-.452.489-.875-.02-.365-.303-.595-.504-.873-.138-.19.046-.48.27-.469" fill="#FF8C2D"/><path d="M67.822 8.515c1.373 2.296.965 5.709 3.09 9.032-6.6-.98-7.32-2.507-9.885-8.648-.187 2.408-1.219 4.58-3.946 7.123-.404-3.047-1.24-5.047-2.126-8.345-1.794 6.268-6.35 17.966-12.668 19.636-.89-4.56.105-15.989 3.354-19.318 3.25-3.328 7.901-5.138 12.556-5.321 4.656-.183 9.298 1.182 13.351 3.47 2.692 1.52 5.178 3.472 7.007 5.96 1.827 2.487 2.637 13.089-.875 17.283-3.685-4.974-4.699-17.44-9.858-20.872" fill="#28355D"/><path d="M75.734 19.072c1.353 3.098 2.03 6.707 1.801 10.106-.796-1.14-1.468-2.63-2.087-4.298-.036-1.944-.032-3.885.286-5.808m-6.339-1.782c-.536-1.348-.898-2.765-1.292-4.17-.462-1.646-1.091-3.68-.249-5.29.17.344.322.696.459 1.052a6.142 6.142 0 0 0-.491-.367c1.373 2.296.965 5.709 3.09 9.032a35.867 35.867 0 0 1-1.517-.257m-2.6-.708c-.698-.267-1.286-.583-1.793-.968-.584-2.333-1.136-4.673-1.082-7.072 1.687 2.238 2.397 5.238 2.875 8.04m-8.45-3.795c.81-1.892 1.133-4.146 2.136-5.949.396.79.646 1.677.778 2.613-.077-.184-.15-.36-.232-.552-.187 2.408-1.22 4.58-3.946 7.124-.02-.159-.048-.305-.07-.457a40.05 40.05 0 0 0 1.334-2.779m-9.404 5.083c1.09-2.504 1.453-5.7 3.127-7.92.446 1.713.458 3.5.189 5.277-1.489 3.443-3.408 6.929-5.683 9.304.692-2.254 1.424-4.495 2.367-6.66M43.7 22.822c.691-2.78 1.176-5.742 2.352-8.38.063 2.53-.368 5.007-.746 7.52-.213 1.41-.382 2.844-.681 4.243a7.93 7.93 0 0 1-1.906.976 82.57 82.57 0 0 1 .98-4.359M55.54 4.77c1.374 2.195 1.402 5.2.86 7.923-.41-1.541-.916-3.05-1.445-5.016-.047.165-.098.336-.149.509.13-1.166.32-2.318.735-3.416m15.525 3.793c2.046 2.969 2.28 6.32 2.22 9.756-.534-1.634-1.097-3.235-1.74-4.682-.204-1.688-.458-3.373-.48-5.074" fill="#28355D"/><path d="M51.524 21.625c.073 0 .143.013.213.022.501-.397.47-1.329 1.034-1.706.104-.069.288-.05.37.048.475.565.227 1.515-.081 2.117-.043.083-.09.163-.14.24.2.28.32.621.32.991 0 .945-.768 1.711-1.716 1.711a1.714 1.714 0 0 1-1.717-1.71c0-.946.77-1.713 1.717-1.713m17.671 0c.073 0 .142.013.213.022.5-.397.47-1.329 1.034-1.706.104-.069.288-.05.37.048.474.565.226 1.515-.081 2.117a2.83 2.83 0 0 1-.14.24c.2.28.32.621.32.991 0 .945-.769 1.711-1.716 1.711a1.714 1.714 0 0 1-1.717-1.71c0-.946.77-1.713 1.717-1.713" fill="#955323"/><path d="M35.321 68.158c0 8.084 6.573 14.639 14.68 14.639 8.108 0 14.68-6.555 14.68-14.64 0-8.084-6.572-14.638-14.68-14.638-8.107 0-14.68 6.554-14.68 14.639" fill="#FF8639"/><path d="M35.441 70.002a14.683 14.683 0 0 1-.119-1.812 24.185 24.185 0 0 1 9.596-4.21c-1.073-2.545-3.233-4.662-5.823-5.62.366-.404.754-.786 1.162-1.147 2.788 1.25 5.065 3.667 6.173 6.513.773-.1 1.553-.165 2.335-.188a23.46 23.46 0 0 1 2.731.086c-.573-3.504-1.73-6.9-3.455-9.971a14.808 14.808 0 0 1 1.656-.126 32.053 32.053 0 0 1 3.42 10.293c.87.135 1.732.314 2.58.543.355-1.177.918-2.257 1.677-3.162 1.016-1.21 2.396-2.05 3.863-2.461.352.416.68.852.985 1.307-1.384.255-2.73.985-3.687 2.124-.63.75-1.097 1.65-1.393 2.636a24.06 24.06 0 0 1 7.517 4.159 14.667 14.667 0 0 1-.215 1.808 22.416 22.416 0 0 0-7.61-4.475 10.032 10.032 0 0 0 .33 3.942c.747 2.605 2.516 4.896 4.783 6.421a14.67 14.67 0 0 1-.94 1.177c-2.51-1.724-4.467-4.28-5.299-7.184a11.484 11.484 0 0 1-.335-4.815 22.747 22.747 0 0 0-2.056-.46c.615 5.92-.374 12-3.006 17.408-.103.002-.206.008-.31.008-.457 0-.91-.024-1.357-.064 2.748-5.333 3.755-11.556 3.067-17.571a22.164 22.164 0 0 0-2.9-.114c-.643.02-1.283.073-1.92.148.156.67.25 1.355.268 2.046.121 4.8-3.294 9.439-7.831 10.961a14.646 14.646 0 0 1-1.067-1.256c4.225-1.089 7.494-5.3 7.384-9.666a8.796 8.796 0 0 0-.255-1.857 22.634 22.634 0 0 0-9.949 4.58" fill="#28355D"/><path d="M50.002 53.519c.807 0 1.598.067 2.37.193-.918.938-1.903 1.814-2.863 2.704-1.136 1.053-2.464 2.039-3.51 3.168-.605.653-1.308 3.477-1.126 4.852.33 2.486 6.618 1.81 4.669 4.834-.098.15 0 .353.163.4 1.757.508 4.111.577 5.515 1.875.753.697.737 1.687.314 2.545-.152.306-.302.576-.366.913-.047.248.013.506-.028.749-.107.643-.569.894-1.124 1.192-.165.089-.166.302-.056.429.823.948-.877 1.103-1.525 1.193-.845.118-1.699.162-2.546.265-1.062.13-2.89.69-2.227 2.185.392.889 1.66 1.41 2.505 1.776-.055 0-.11.005-.165.005-8.108 0-14.68-6.555-14.68-14.64 0-8.084 6.572-14.638 14.68-14.638" fill-opacity=".05" fill="#FF8639"/><path d="M34.137 57.654c2.228-4.467 5.568-7.212 9.023-9.6l.011-.007.069-.046c.712-.492 1.43-.97 2.143-1.443 1.244-.826 2.53-1.68 3.76-2.594a3.943 3.943 0 0 1 5.51.801 3.918 3.918 0 0 1-.804 5.495c-1.396 1.038-2.77 1.951-4.1 2.835l-.024.015c-.699.464-1.39.923-2.065 1.39-2.808 1.935-5.041 3.785-6.471 6.652-.588 1.177-1.48 3.404-.862 5.096.424 1.158 1.675 2.235 3.347 2.881.931.36 2.005.619 3.379.815l-1.118 7.774c-1.98-.283-3.603-.685-5.106-1.266-3.813-1.472-6.693-4.211-7.901-7.513-1.223-3.345-.805-7.249 1.209-11.285m37.485 52.787c-.202-.604-5.049 1.61-6.463 1.359-.688-.122.152 1.36.152 2.027 0 1.217.555 2.397.555 2.397s1.897 2.574 4.381 2.171c1.463-.237 1.275-1.481 1.223-3.625-.037-1.499.234-4.08.152-4.329" fill="#FFD"/><path d="M69.315 114.398c.124-.05.25-.189.191-.336-.397-.975-.838-1.758.532-2.297a4.5 4.5 0 0 1 1.565-.28c-.055.95-.156 2.335-.133 3.286.052 2.143.24 3.388-1.223 3.624-2.484.403-4.381-2.17-4.381-2.17s-.555-1.18-.555-2.398c0-.022-.003-.047-.005-.07 1.171.817 2.597 1.2 4.009.64" fill="#28355D"/><path d="M52.602 110.441c-.202-.604-5.049 1.61-6.463 1.359-.868-.155.137 1.108.239 2.027.098.888-.353 2.397-.353 2.397s2.717 2.574 5.202 2.171c1.463-.237 1.276-1.481 1.223-3.625-.037-1.499.234-4.08.152-4.329" fill="#FFD"/><path d="M46.378 113.827c-.004-.037-.012-.076-.018-.113.24.169.497.317.775.439.601.263 1.88.663 2.507.221.642-.452.162-.922.078-1.51-.172-1.213 1.632-1.573 2.878-1.66-.049.938-.174 2.517-.148 3.566.053 2.144.24 3.388-1.222 3.625-2.486.403-5.204-2.17-5.204-2.17s.452-1.51.354-2.398" fill="#28355D"/><path d="M64.932 114.693c.959.116 1.749.63 2.748.663.976.031 1.965-.161 2.897-.431 1.227-.357 1.622-.365 2.67.375 1.268.894 1.8.902 3.222 1.529.585.258 1.35 1.483.76 2.338-.53.771-5.554.681-7.326.507-.813-.08-1.676-.16-2.48-.291-.606-.1-1.459-.143-2.025-.413-1.305-.623-.824-2.523-.825-3.646a.386.386 0 0 1 .36-.63" fill="#D11335"/><path d="M67.696 118.372c.552.15 1.658.54 2.234.212.457-.261.197-.671.419-.904.523-.55 3.003.552 3.664.688.522.107 1.214.303 1.735.09.78-.322.732-1.112.407-1.762.102.042.2.083.314.133.585.258 1.35 1.483.76 2.339-.53.77-5.554.68-7.326.506-.813-.08-1.675-.16-2.48-.291-.606-.1-1.459-.143-2.025-.413-.865-.413-.945-1.386-.901-2.323.872.818 1.905 1.373 3.199 1.725" fill="#28355D"/><path d="M73.2 111.856c.875-.168 1.528 0 1.306 1.01-.116.524-.333.964-.601 1.434a5.586 5.586 0 0 1-.568.814c-.181.218-1.652.866-1.725.72-.167-.338-.335-.909-.545-1.216-.201-.29-.302-.632-.49-.93-.107-.17-.279-.337-.317-.544-.21-1.137 2.313-1.168 2.94-1.288" fill="#880E3D"/><path d="M45.545 114.693c.959.116 1.749.63 2.748.663.975.031 1.965-.161 2.897-.431 1.226-.357 1.622-.365 2.67.375 1.267.894 1.8.902 3.221 1.529.586.258 1.352 1.483.762 2.338-.532.771-5.555.681-7.327.507-.813-.08-1.676-.16-2.48-.291-.607-.1-1.459-.143-2.026-.413-1.304-.623-.823-2.523-.824-3.646a.386.386 0 0 1 .359-.63" fill="#D11335"/><path d="M48.41 118.218c.647.213 1.742.65 2.443.361.556-.229.35-.618.802-.801.712-.288 1.817.531 2.54.685.604.13 1.367.201 1.95-.041.816-.34.857-1.031.635-1.72.099.04.193.079.301.127.586.258 1.352 1.483.762 2.339-.532.77-5.554.68-7.327.506-.814-.08-1.676-.16-2.48-.291-.606-.1-1.46-.143-2.026-.413-.985-.47-.952-1.669-.877-2.711.885.91 2.007 1.54 3.277 1.959" fill="#28355D"/><path d="M53.813 111.856c.874-.168 1.528 0 1.305 1.01-.116.524-.332.964-.6 1.434a5.586 5.586 0 0 1-.569.814c-.18.218-1.651.866-1.724.72-.168-.338-.335-.909-.546-1.216-.2-.29-.301-.632-.489-.93-.108-.17-.28-.337-.317-.544-.21-1.137 2.313-1.168 2.94-1.288" fill="#880E3D"/><path d="M72.634 27.463c.383.237.695.602 1.001.927.317.337.605.646.754 1.086.1.289-.242.485-.48.368-.403-.2-.667-.534-.946-.883-.268-.332-.59-.673-.766-1.062-.122-.269.142-.62.437-.436m-1.322.493c.381.514.777 1.164.875 1.803.06.39-.436.832-.76.44-.446-.54-.689-1.262-.829-1.943-.092-.448.452-.652.714-.3m-19.619-1.094c.334.761.83 1.583.943 2.412.058.43-.447.68-.714.3-.484-.687-.68-1.62-.955-2.407-.146-.418.545-.72.726-.305m-1.685.108c.084.768.21 1.544.228 2.316.015.675-1.067.676-1.051 0 .018-.772.143-1.548.227-2.316a.298.298 0 0 1 .596 0" fill="#FF7BA1"/><path d="M49.99 76.917c-.358-.003-.675-.025-.863-.069a55.848 55.848 0 0 1-3.02-.331l.774-5.38c.7.1 1.408.174 2.117.24.38-.035.825-.025 1.364.05.684.096 1.573.312 2.28.62.545.236.51.876-.068.947-.407.05-.907-.02-1.095-.003 1.32.356 2.152.405 2.034 1.017-.094.495-.716.582-2.122.572.672.063 1.557.231 1.509.758-.048.523-1.596.544-2.033.491 1.202.237 1.404.508 1.185.798-.143.188-1.2.294-2.042.29h-.021" fill="#FFC391"/><path d="M46.881 71.137c.264.037.53.069.796.1-.398 1.568-.442 3.346 1.118 4.239.855.49 1.868.622 2.9.58.449.178.51.37.356.57-.143.19-1.198.295-2.04.291h-.021c-.358-.003-.675-.024-.863-.069a55.299 55.299 0 0 1-3.019-.331l.773-5.38zm37.634-8.535c.881-.079 1.632-.23 2.237-.406.241-.114.518-.218.853-.304l.08-.032-.002.016c.163-.04.33-.079.517-.111.68-.119 1.593-.187 2.362-.112.59.058.755.677.226.923-.371.173-.869.26-1.042.333 1.365-.066 2.172-.275 2.25.343.062.5-.503.774-1.843 1.196.659-.146 1.552-.258 1.67.258.116.512-1.35 1.007-1.783 1.09 1.216-.142 1.493.052 1.373.397-.111.32-2.08 1.06-2.722 1.11l-.164.01c-1.01.292-2.195.515-3.469.652l-.543-5.363z" fill="#FFC391"/><path d="M85.528 62.47c.002 1.016.036 2.038.202 3.018.112.663.355 1.054 1.05 1.148.892.12 2.024-.141 2.898-.328.516-.11 1.048-.255 1.51-.505.236.07.289.208.226.39-.112.32-2.082 1.06-2.723 1.109l-.164.01c-1.01.293-2.195.516-3.468.653l-.544-5.363c.362-.032.697-.079 1.013-.132M57.34 42.336V40.36c.983.063 1.99.094 3.02.094 1.028 0 2.036-.031 3.018-.094v1.976h.867c.81 0 1.594.11 2.342.312.138 1.588-.243 3.181-1.83 3.992-1.959 1.002-4.536.4-6.405-.502-1.691-.817-3.226-1.999-4.542-3.396a8.93 8.93 0 0 1 2.663-.406h.867z" fill="#FFC391"/><path d="M56.473 42.336h.867V40.36c.983.063 1.99.094 3.02.094 1.028 0 2.036-.031 3.018-.094v1.604c-.958.31-2.41.304-2.954.412-.8.159-1.584.378-1.786 1.24-.418 1.785 1.25 2.724 2.748 2.954 1.168.18 2.392.127 3.598-.072-.076.047-.143.099-.226.142-1.96 1.002-4.537.4-6.406-.502-1.691-.817-3.226-1.999-4.541-3.396a8.93 8.93 0 0 1 2.662-.406" fill="#FFC391"/></g></svg>