<svg width="120" height="120" viewBox="0 0 120 120" xmlns="http://www.w3.org/2000/svg" xmlns:xlink="http://www.w3.org/1999/xlink"><defs><path id="a" d="M.17.748h26.64v27.965H.17z"/><path id="c" d="M0 .281h33.54v35.207H0z"/></defs><g fill="none" fill-rule="evenodd"><g transform="translate(44.96 .036)"><mask id="b" fill="#fff"><use xlink:href="#a"/></mask><path d="M19.53 1.673C14.056-.337 7.673.992 3.242 5.064c-.757.696-1.47 1.48-1.949 2.432-.601 1.196-.798 2.582-.931 3.941-.256 2.589-.317 5.232.198 7.774s1.647 4.99 3.464 6.655c2.142 1.963 5.02 2.67 7.804 2.816 2.785.144 5.602-.219 8.252-1.179 1.527-.553 3.035-1.332 4.138-2.621.952-1.112 1.548-2.543 1.95-4.008 1.177-4.308.72-9.13-1.242-13.077-.74-1.488-3.975-5.466-5.396-6.124" fill="#D8C95B" mask="url(#b)"/></g><path d="M50.891 6.94c-2.1 2.086-3.364 5.158-3.404 8.273l3.404-8.274zm-2.769 10.152c-.273 2.229.51 4.58 2.025 6.089l-2.025-6.089zm4.162 7.461l6.125 2.658a13.058 13.058 0 0 1-2.248-.215c-.76-.14-1.518-.35-2.204-.738-.687-.386-1.302-.96-1.673-1.705zm-1.005-12.897c-.988 1.478-1.332 3.452-.913 5.227l.913-5.227zm.955 7.772c.393 1.677 1.374 3.177 2.694 4.118l-2.694-4.118zm2.75-6.243l.627 4.955c-.181.013-.292-.21-.35-.4a9.931 9.931 0 0 1-.277-4.555zm1.662 7.051l3.9 1.512c-.03-.135-.19-.168-.316-.172-.664-.02-1.338.015-1.987-.143-.65-.157-1.292-.545-1.597-1.197zm3.246 3.739l7.584-1.4a29.805 29.805 0 0 1-4.248 1.226c-1.1.23-2.235.396-3.336.174zm3.377 2.425l5.028-1.527c-.16.228-.434.31-.688.376l-4.34 1.15zM53.217 9.877c1.447-1.789 3.407-3.067 5.527-3.607l-5.527 3.607zm.722-5.131c.692-.685 1.566-1.115 2.465-1.379.898-.264 1.828-.372 2.753-.478l-5.218 1.857zm-4.261.183a9.628 9.628 0 0 1 3.13-1.971l-3.13 1.971zm11.523-.831a5.709 5.709 0 0 1 3.54.918l-3.54-.918zm-.237 4.984l-1.678 5.009c-.25-.517-.113-1.15.033-1.713.322-1.228.713-2.536 1.645-3.296zm.02 7.34l5.43 1.045c-.857.5-1.885.573-2.832.339-.946-.234-1.816-.755-2.599-1.385zm1.804-6.09l1.816 3.17c-.494-.384-.997-.776-1.366-1.303-.37-.527-.594-1.22-.45-1.867zm4.88-.89c.88 1.411 1.3 3.164 1.166 4.87l-1.167-4.87zm1.397 7.633c-.261 1.245-.734 2.535-1.707 3.23-.76.544-1.705.638-2.607.718l4.314-3.948zM62.497 7.032c1.243-.006 2.482.513 3.408 1.426l-3.408-1.426z" stroke="#E7D884" stroke-linecap="round" stroke-linejoin="round"/><path d="M87.339 25.647c-6.893-2.53-14.928-.858-20.506 4.269-.955.877-1.853 1.865-2.454 3.063-.757 1.505-1.006 3.25-1.174 4.961-.321 3.26-.397 6.588.25 9.787.65 3.2 2.074 6.283 4.362 8.38 2.697 2.47 6.32 3.362 9.824 3.544 3.507.182 7.054-.276 10.39-1.483 1.924-.697 3.82-1.678 5.209-3.3 1.2-1.4 1.951-3.202 2.455-5.046 1.482-5.425.907-11.494-1.563-16.464-.93-1.874-5.006-6.881-6.793-7.711" fill="#DABE0A"/><path d="M70.217 32.232c-2.645 2.627-4.236 6.496-4.287 10.417l4.287-10.417zm-3.486 12.783c-.343 2.805.641 5.767 2.549 7.665l-2.55-7.665zm5.239 9.393l7.712 3.346a16.326 16.326 0 0 1-2.83-.27c-.958-.177-1.912-.443-2.776-.93-.865-.486-1.64-1.209-2.106-2.146zm-1.266-16.237c-1.242 1.86-1.676 4.346-1.149 6.58l1.15-6.58zm1.203 9.784c.495 2.11 1.73 4 3.392 5.186l-3.392-5.186zm3.462-7.86l.79 6.238c-.228.018-.368-.264-.441-.503a12.506 12.506 0 0 1-.35-5.735zm2.094 8.878l4.91 1.903c-.04-.17-.24-.211-.399-.216-.837-.026-1.684.019-2.502-.18-.818-.198-1.626-.688-2.01-1.507zm4.085 4.706l9.55-1.761a37.496 37.496 0 0 1-5.35 1.542c-1.385.29-2.812.5-4.2.22zm4.253 3.053l6.33-1.921c-.202.287-.547.389-.866.474l-5.464 1.447zM73.144 35.93c1.823-2.252 4.29-3.861 6.96-4.54l-6.96 4.54zm.91-6.46c.871-.861 1.972-1.403 3.103-1.736 1.131-.332 2.302-.467 3.467-.6l-6.57 2.337zm-5.364.232a12.138 12.138 0 0 1 3.94-2.483l-3.94 2.483zm14.507-1.047a7.18 7.18 0 0 1 4.455 1.156l-4.455-1.156zm-.298 6.274l-2.112 6.307c-.317-.651-.144-1.447.041-2.156.404-1.547.897-3.194 2.07-4.151zm.023 9.241l6.839 1.317c-1.08.628-2.375.72-3.565.426-1.192-.294-2.288-.95-3.274-1.743zm2.274-7.667l2.286 3.99c-.623-.482-1.256-.975-1.72-1.639-.467-.664-.748-1.536-.566-2.35zm6.142-1.12c1.109 1.777 1.637 3.984 1.469 6.131l-1.47-6.131zm1.76 9.61c-.33 1.568-.924 3.192-2.15 4.067-.957.684-2.146.803-3.282.904l5.432-4.971zm-8.27-12.644c1.565-.007 3.125.646 4.292 1.795l-4.292-1.795z" stroke="#E7CF60" stroke-width="1.5" stroke-linecap="round" stroke-linejoin="round"/><g transform="translate(23 37.683)"><mask id="d" fill="#fff"><use xlink:href="#c"/></mask><path d="M24.375 1.445C17.482-1.085 9.447.588 3.869 5.715c-.955.877-1.852 1.864-2.454 3.062C.657 10.283.41 12.027.24 13.738c-.321 3.26-.397 6.588.25 9.787.65 3.2 2.074 6.283 4.362 8.38 2.697 2.471 6.32 3.363 9.824 3.544 3.508.182 7.054-.275 10.39-1.483 1.924-.697 3.82-1.678 5.209-3.3 1.2-1.4 1.951-3.202 2.455-5.046 1.483-5.424.907-11.494-1.562-16.464-.931-1.874-5.006-6.881-6.794-7.71" fill="#CBAA00" mask="url(#d)"/></g><path d="M30.253 45.713c-2.645 2.628-4.236 6.496-4.286 10.418l4.286-10.418zm-3.486 12.783c-.343 2.806.642 5.767 2.55 7.665l-2.55-7.665zm5.239 9.394l7.712 3.346a16.412 16.412 0 0 1-2.83-.271c-.958-.176-1.912-.442-2.776-.93-.865-.486-1.639-1.208-2.106-2.145zM30.74 51.652c-1.242 1.86-1.676 4.346-1.149 6.58l1.15-6.58zm1.203 9.784c.495 2.111 1.73 4 3.392 5.186l-3.392-5.186zm3.462-7.86l.79 6.239c-.228.018-.368-.264-.44-.504a12.496 12.496 0 0 1-.35-5.735zm2.094 8.878l4.91 1.904c-.04-.17-.239-.212-.399-.217-.836-.025-1.684.02-2.502-.18-.818-.198-1.626-.687-2.01-1.507zm4.085 4.707l9.55-1.762a37.496 37.496 0 0 1-5.35 1.542c-1.384.29-2.812.5-4.2.22zm4.254 3.053l6.328-1.922c-.2.287-.546.39-.865.474l-5.463 1.448zM33.18 49.412c1.823-2.252 4.29-3.861 6.96-4.54l-6.96 4.54zm.91-6.46c.871-.862 1.972-1.404 3.103-1.736 1.131-.333 2.302-.468 3.467-.601l-6.57 2.337zm-5.364.231a12.138 12.138 0 0 1 3.94-2.482l-3.94 2.482zm14.507-1.047a7.18 7.18 0 0 1 4.455 1.157l-4.455-1.157zm-.298 6.274l-2.112 6.308c-.317-.651-.144-1.447.041-2.157.404-1.546.897-3.193 2.07-4.15zm.023 9.242l6.839 1.316c-1.08.629-2.374.72-3.565.426-1.191-.294-2.288-.95-3.274-1.742zm2.274-7.667l2.286 3.99c-.623-.482-1.256-.976-1.72-1.64-.467-.663-.747-1.536-.566-2.35zm6.142-1.121c1.109 1.777 1.637 3.984 1.469 6.132l-1.47-6.132zm1.76 9.61c-.33 1.568-.924 3.193-2.15 4.068-.956.683-2.146.802-3.282.903l5.432-4.97zm-8.27-12.643c1.565-.007 3.125.645 4.292 1.794l-4.292-1.794z" stroke="#E2C034" stroke-width="1.5" stroke-linecap="round" stroke-linejoin="round"/><path d="M59.22 110.968c-.056 1.755-.133 3.541-.592 5.18-.195.695-.457 1.457-.248 2.142.298.975 1.274 1.03 2.04.923l5.292-.73c.467-6.75-1.494-13.323-2.215-20.03-.327-3.041-.399-6.121-.474-9.193-.569-23.21-1.366-46.41-2.39-69.592-.14-3.167-.362-7.549-2.472-9.487-1.116 4.626-.099 11.133-.307 16.041-.289 6.838-.303 13.693-.174 20.538.261 13.832 1.113 27.628 1.498 41.453.21 7.58.284 15.174.042 22.755" fill="#766835"/><path d="M79.087 56.046c-.072 1.823-.197 3.688-.95 5.359-1.233 2.736-4.025 4.574-6.972 5.405-2.946.83-6.068.787-9.134.686-.427-.014-.9-.014-1.22.262-.27.232-.357.6-.431.942-.273 1.272-.36 2.944.844 3.504.4.187.863.19 1.308.192l10.108.01c1.143.002 2.313-.001 3.39-.377 2.825-.988 4.11-4.135 4.814-6.98a52.168 52.168 0 0 0 1.333-17.038c-.076-.884-.19-1.805-.69-2.547-2.322-3.435-2.396 1.58-2.359 2.89.074 2.563.058 5.13-.041 7.692M43.056 71.382c.071 1.822.196 3.688.949 5.359 1.233 2.736 4.026 4.574 6.972 5.405 2.946.83 6.068.787 9.134.686.427-.014.9-.014 1.22.262.27.232.358.599.431.942.273 1.272.36 2.944-.844 3.504-.401.187-.862.19-1.308.191l-10.108.011c-1.143.002-2.312-.001-3.39-.378-2.825-.987-4.109-4.135-4.813-6.98a52.146 52.146 0 0 1-1.334-17.037c.077-.885.19-1.805.69-2.547 2.322-3.436 2.397 1.58 2.36 2.89-.075 2.563-.06 5.13.04 7.692" fill="#766835"/></g></svg>