<svg width="480" height="360" viewBox="0 0 480 360" xmlns="http://www.w3.org/2000/svg" xmlns:xlink="http://www.w3.org/1999/xlink"><defs><path id="a" d="M.518 0H481.85v481.331H.519z"/><linearGradient x1="0%" y1="50%" x2="100%" y2="50%" id="c"><stop stop-color="#FFF" offset="0%"/><stop stop-color="#FFF" offset="100%"/></linearGradient><path d="M0 64.457L846.853.066c0 64.425-59.451 116.65-132.786 116.65-46.47 0-87.356-20.975-111.082-52.73-8.828 4.662-18.928 7.313-29.662 7.313-18.849 0-35.737-8.172-47.214-21.082-11.59 6.702-28.183 10.902-46.62 10.902-21.905 0-41.205-5.928-52.597-14.937-9.859 55.871-64.848 98.637-131.21 98.637-46.468 0-87.355-20.975-111.081-52.73-8.828 4.662-18.929 7.313-29.662 7.313-18.85 0-35.738-8.172-47.214-21.083-11.59 6.702-28.183 10.903-46.62 10.903" id="d"/><linearGradient x1="0%" y1="50%" x2="100%" y2="50%" id="e"><stop stop-color="#FFF" offset="0%"/><stop stop-color="#FFF" offset="100%"/></linearGradient><path d="M.513 79.313c0 43.44 39.934 78.655 89.195 78.655 31.213 0 58.678-14.142 74.616-35.554 5.93 3.143 12.714 4.93 19.923 4.93 12.662 0 24.007-5.51 31.715-14.216 7.785 4.519 18.932 7.352 31.317 7.352 19.57 0 36.046-7.07 41.043-16.698 3.654 2.572 10.161 4.286 17.584 4.286 11.432 0 20.7-4.062 20.7-9.072 0-5.01-9.268-9.07-20.7-9.07-6.853 0-12.587 5.243-16.693 3.708-10.507-3.928-9.06-18.596-41.934-18.797-3.182-.02-6.379 1.035-9.438 2.089-4.594 1.583-8.878 3.165-12.334 1.116-16.624-9.86-5.82-27.95-41.26-33.381-2.395-.366-5.926.001-9.792.369-3.558.338-7.398.677-10.896.442-23.742-1.59-4.74-18.313-29.568-26.763C119.014 13.613 121.427 3.018 89.708.658a86.113 86.113 0 0 0-6.405-.24C37.146.419.513 37.777.513 79.314" id="g"/><linearGradient x1="0%" y1="50%" x2="100%" y2="50%" id="h"><stop stop-color="#FFF" offset="0%"/><stop stop-color="#FFF" offset="100%"/></linearGradient><path id="j" d="M.516.072H481.85v135.342H.516z"/><path d="M46.379 1.204c0 .664-10.328 1.203-23.068 1.203C10.57 2.407.244 1.868.244 1.204.244.539 10.57 0 23.31 0" id="l"/><linearGradient x1="0%" y1="50%" x2="100%" y2="50%" id="m"><stop stop-color="#FFF" offset="0%"/><stop stop-color="#FFF" offset="100%"/></linearGradient><path d="M46.457 2.41c0 1.163-10.327 2.106-23.067 2.106S.323 3.573.323 2.41C.323 1.246 10.65.303 23.39.303" id="o"/><linearGradient x1="0%" y1="49.999%" x2="100%" y2="49.999%" id="p"><stop stop-color="#FFF" offset="0%"/><stop stop-color="#FFF" offset="100%"/></linearGradient><path d="M46.398 1.206c0 .665-10.328 1.204-23.067 1.204C10.59 2.41.264 1.87.264 1.206.264.541 10.59.002 23.33.002" id="r"/><linearGradient x1="-.001%" y1="49.998%" x2="100.001%" y2="49.998%" id="s"><stop stop-color="#FFF" offset="0%"/><stop stop-color="#FFF" offset="100%"/></linearGradient></defs><g fill="none" fill-rule="evenodd"><g transform="translate(-1 -122)"><mask id="b" fill="#fff"><use xlink:href="#a"/></mask><path fill="#9EE2DD" mask="url(#b)" d="M.518 481.331H481.85V121H.519z"/></g><path d="M177.603 134.148c0 16.632-13.47 30.115-30.086 30.115-16.617 0-30.088-13.483-30.088-30.115 0-16.632 13.471-30.115 30.088-30.115 16.616 0 30.086 13.483 30.086 30.115" fill="#FFFBB5"/><path d="M147.516 155.23c-11.613 0-21.061-9.457-21.061-21.082s9.448-21.082 21.061-21.082c11.614 0 21.062 9.457 21.062 21.082s-9.448 21.082-21.062 21.082" fill="#FFEE8F"/><path d="M831.236 213.122c0-64.424-44.035-196.617-117.169-191.197-47.22 3.5-43.63 19.212-65.927 26.771-36.961 12.53-19.658 39.282-55.005 41.64-10.87.726-3.966.01-19.812-3.152-52.339-10.445-71.17 20.46-83.807 46.295-9.672 19.772-30.616-10.628-58.15 2.219-65.701 30.654-5.621-60.17-105.696-55.804-27.61 1.204-.15-61.828-80.154-78.69-38.187-8.048-28.027 36.183-63.374 38.542-10.868.726-20.356 74.495-27.203 75.54-52.76 8.056-30.688 22.35-55.438 36.973-8.57 5.064-17.847 3.983-29.36 1.204C26.901 143.025 16.07 171.325.43 177.151h592.705c45.431 4.716 79.183 8.741 101.256 12.076 30.839 4.659 76.454 12.624 136.845 23.895z" fill="url(#c)" transform="translate(-229 47)"/><g transform="translate(-229 185.509)"><mask id="f" fill="#fff"><use xlink:href="#d"/></mask><path d="M0 64.457c7.44 14.28 31.97 24.765 61.105 24.765 18.437 0 35.03-4.2 46.62-10.903 11.476 12.91 28.365 21.083 47.214 21.083 10.733 0 20.834-2.65 29.662-7.313 23.726 31.755 64.613 52.73 111.082 52.73 66.361 0 121.35-42.766 131.209-98.637 11.392 9.01 30.692 14.937 52.597 14.937 18.437 0 35.03-4.2 46.62-10.902 11.477 12.91 28.365 21.082 47.214 21.082 10.734 0 20.834-2.65 29.662-7.312 23.726 31.754 64.613 52.729 111.082 52.729 73.335 0 132.786-52.225 132.786-116.65" fill="url(#e)" mask="url(#f)"/></g><g transform="translate(-67 124)"><mask id="i" fill="#fff"><use xlink:href="#g"/></mask><path d="M.513 79.313c0 43.44 39.934 78.655 89.195 78.655 31.213 0 58.678-14.142 74.616-35.554 5.93 3.143 12.714 4.93 19.923 4.93 12.662 0 24.007-5.51 31.715-14.216 7.785 4.519 18.932 7.352 31.317 7.352 19.57 0 36.046-7.07 41.043-16.698 3.654 2.572 10.161 4.286 17.584 4.286 11.432 0 20.7-4.062 20.7-9.072 0-5.01-9.268-9.07-20.7-9.07-6.853 0-12.587 5.243-16.693 3.708-10.507-3.928-9.06-18.596-41.934-18.797-3.182-.02-6.379 1.035-9.438 2.089-4.594 1.583-8.878 3.165-12.334 1.116-16.624-9.86-5.82-27.95-41.26-33.381-2.395-.366-5.926.001-9.792.369-3.558.338-7.398.677-10.896.442-23.742-1.59-4.74-18.313-29.568-26.763C119.014 13.613 121.427 3.018 89.708.658a86.113 86.113 0 0 0-6.405-.24C37.146.419.513 37.777.513 79.314" fill="url(#h)" mask="url(#i)"/></g><g transform="translate(-1 224.045)"><mask id="k" fill="#fff"><use xlink:href="#j"/></mask><path d="M481.85 20.68v114.734H.515V12.591c30.233-3.36 63.13-5.935 96.998-7.848C156.22 1.42 217.859.073 273.61.073c26.628 0 52.516.878 77.314 2.533 48.736 3.262 93.266 9.533 130.924 18.073" fill="#BCCF5F" mask="url(#k)"/></g><path d="M480.85 247.648v111.81H65.498c-7.203-7.558-11.042-15.497-11.042-23.694 0-50.856 147.863-92.082 330.262-92.082 33.44 0 65.711 1.385 96.13 3.966" fill="#327D55"/><path d="M480.85 250.357v109.101H78.87c-4.952-6.343-7.564-12.927-7.564-19.686 0-15.93 14.508-30.917 40.04-43.982 30.24-15.48 75.948-28.274 131.334-36.76 47.142-7.229 101.294-11.34 158.888-11.34 27.332 0 53.887.927 79.281 2.667" fill="#3A918A"/><path d="M480.85 255.43v48.208c-47.034-3.647-194.723-16.575-200.789-35.46-.872-2.715 1.818-4.941 7.221-6.753 29.444-9.919 139.542-7.728 193.567-5.994" fill="#42A69E"/><path d="M349.925 226.65c-33.842 7.313-80.509 11.839-132.043 11.839-46.312 0-88.693-3.653-121.369-9.702 58.708-3.322 120.346-4.67 176.099-4.67 26.628 0 52.515.879 77.313 2.534" fill="#C7DB65"/><path d="M256.771 250.908l-6.695-7.227s-.908-7.437 8.324 2.23c0 0 1.177-11.865 6.218-10.432 5.042 1.433-2.422 12.214-2.422 12.214s8.84-4.742 11.248-4.265c2.407.477-.801 5.75-.801 5.75l-15.872 1.73zm-42.177 5.913s-4.385-4.027-1.978-5.913c2.407-1.887 4.513 3.025 4.513 3.025s2.859-6.567 5.115-6.868c2.257-.301 0 8.51 0 8.51l-7.65 1.246zm124.399-12.265s-4.37-3.96-1.964-5.165c2.407-1.203 3.31 2.583 3.31 2.583s2.257-4.84 3.76-4.84c1.505 0-.745 7.262-.745 7.262l-4.361.16zm54.301-.876s-4.213-6.696-1.204-6.545c3.009.15 2.608 5.567 2.809 5.867l.2.301s.802-5.215 3.911-4.112c3.11 1.103-.401 2.708-.401 2.708s3.11-.902 4.614-.1 1.003 1.404 1.003 1.404 2.105-3.286 4.613-2.796c2.507.489 2.606 3.571 2.606 3.571l-18.151-.297z" fill="#88C13F"/><g transform="translate(346.815 261.359)"><mask id="n" fill="#fff"><use xlink:href="#l"/></mask><path d="M46.379 1.204c0 .664-10.328 1.203-23.068 1.203C10.57 2.407.244 1.868.244 1.204.244.539 10.57 0 23.31 0s23.068.54 23.068 1.204" fill="url(#m)" mask="url(#n)"/></g><g transform="translate(335.983 267.377)"><mask id="q" fill="#fff"><use xlink:href="#o"/></mask><path d="M46.457 2.41c0 1.163-10.327 2.106-23.067 2.106S.323 3.573.323 2.41C.323 1.246 10.65.303 23.39.303s23.067.943 23.067 2.107" fill="url(#p)" mask="url(#q)"/></g><g transform="translate(390.743 266.173)"><mask id="t" fill="#fff"><use xlink:href="#r"/></mask><path d="M46.398 1.206c0 .665-10.328 1.204-23.067 1.204C10.59 2.41.264 1.87.264 1.206.264.541 10.59.002 23.33.002s23.067.54 23.067 1.204" fill="url(#s)" mask="url(#t)"/></g><path d="M480.85 300.905v58.553H-.485v-81.693c55.982-12.17 126.381-19.416 202.858-19.416 13.642 0 27.098.23 40.306.68 15.213.513 30.1 1.318 44.602 2.396 80.906 5.982 149.615 20.306 193.567 39.48" fill="#88C13F"/><path d="M426.294 359.458H-.484v-62.362c21.423-1 61.169-2.27 111.83-1.306 55.681 1.065 124.558 4.833 196.799 14.649l-139.56 4.874s116.693 6.831 238.248 38.729a697.258 697.258 0 0 1 19.46 5.416" fill="#BCCF5F"/><path d="M35.04 323.152L-.482 359.385H223.87s-88.476-41.081-94.517-43.844c-15.583-7.125-68.35-5.101-68.35-5.101L35.04 323.152z" fill="#BCCF5F"/><path d="M89.837 296.998l-4.012 18.544s9.1 5.68 13.64.748c.69-.748-3.41-22.501-3.41-22.501l-6.218 3.21z" fill="#754C29"/><path d="M85.424 144.933c-17.15 8.426-35.51 138.62-30.99 149.775 2.106 5.199 57.768 15.046 77.626 0 1.439-1.09-23.79-160.999-46.636-149.775" fill="#618A2E"/><path d="M80.81 157.17l-13.638 94.29 10.68-20.864 2.431 59.381s23.797-174.132.529-132.805" fill="#6F9E34"/><path d="M39.052 304.608l-4.012 18.544s9.1 5.68 13.64.748c.69-.748-3.41-22.502-3.41-22.502l-6.218 3.21z" fill="#754C29"/><path d="M37.617 226.018c-9.786 4.808-20.263 79.1-17.684 85.465 1.202 2.966 32.964 8.585 44.295 0 .822-.622-13.574-91.87-26.611-85.465" fill="#6F9E34"/><path d="M26.252 296.998c0-1.604 4.814-58.98 11.633-66.001 0 0 3.61 42.73 3.21 41.928-.401-.803-3.811-4.012-3.811-4.012l-6.218 41.527-3.01-11.435-3.208 7.041 1.404-9.048z" fill="#78AB38"/><path d="M178.608 260.643l-2.362 10.92s5.358 3.346 8.032.44c.406-.44-2.008-13.25-2.008-13.25l-3.662 1.89z" fill="#754C29"/><path d="M177.763 214.362c-5.763 2.831-11.933 46.58-10.414 50.33.709 1.746 19.412 5.055 26.085 0 .484-.366-7.994-54.101-15.67-50.33" fill="#6F9E34"/><path d="M171.07 256.162c0-.945 2.835-34.733 6.851-38.868 0 0 2.126 25.163 1.89 24.69-.236-.472-2.244-2.361-2.244-2.361l-3.662 24.454-1.771-6.734-1.89 4.147.826-5.328z" fill="#78AB38"/><path d="M165.935 270.716s25.83-1.806 28.537 0c2.708 1.805 28.263 17.616 20.45 17.986-7.813.37-46.232-12.269-48.987-17.986" fill="#BCCF5F"/></g></svg>