<svg xmlns="http://www.w3.org/2000/svg" width="108.421" height="124.441" viewBox="0.107 0.413 108.421 124.441"><defs><style/></defs><g id="ID0.5260870358906686" transform="translate(-.15 -.2) scale(.9025)"><g id="R_Foot"><path id="ID0.4096909505315125" fill="#F7941E" d="M90.736 149.969c-.487 0-.992-.135-1.542-.413-2.479-1.25-4.472-3.514-5.92-6.729l-.627-1.391 1.4-.604a34.517 34.517 0 0 0 1.677-.772c4.502-2.24 8.483-5.709 11.831-10.309l.673-.924 1.069.403c3.481 1.312 6.629 2.758 9.355 4.296 1.703.961 2.671 2.307 2.722 3.789.05 1.445-.771 2.801-2.311 3.815-.94.618-2.054.932-3.309.932-1.379 0-2.784-.377-4.114-.888.547.619 1.002 1.263 1.429 1.891.733 1.076.843 2.283.3 3.311-.599 1.13-1.92 1.86-3.366 1.86a4.061 4.061 0 0 1-2.056-.549c-1.967-1.153-3.65-2.748-5.085-4.293.51 2.602.612 4.57-.317 5.718a2.28 2.28 0 0 1-1.809.857z" transform="translate(.3 .5) scale(.9025)"/><path id="ID0.8810942587442696" d="M98.769 130.635c3.131 1.181 6.246 2.562 9.147 4.199 2.536 1.43 2.579 3.559.323 5.045-.747.492-1.599.685-2.483.685-2.002 0-4.177-.986-5.715-1.731a1.25 1.25 0 0 0-.549-.134c-.993 0-1.579 1.357-.571 2.048 1.249.855 2.062 1.917 2.909 3.163 1.075 1.579-.315 2.828-1.826 2.828-.441 0-.894-.106-1.297-.343-2.158-1.266-3.974-3.127-5.617-4.985-.234-.265-.5-.376-.758-.376-.673 0-1.294.755-1.174 1.501.127.792 1.496 5.935-.422 5.935-.236 0-.522-.078-.866-.252-2.46-1.24-4.127-3.562-5.229-6.006a36.53 36.53 0 0 0 1.748-.806c4.984-2.48 9.128-6.302 12.38-10.771m-1.081-3.613l-1.346 1.848c-3.204 4.403-7.002 7.717-11.289 9.851a33.72 33.72 0 0 1-1.6.736l-2.801 1.207 1.253 2.78c1.594 3.536 3.818 6.043 6.613 7.452.753.38 1.499.573 2.217.573a3.816 3.816 0 0 0 2.976-1.411c.637-.787.932-1.749 1.016-2.809.766.63 1.585 1.219 2.462 1.733a5.57 5.57 0 0 0 2.814.755c1.995 0 3.837-1.044 4.692-2.659.58-1.098.663-2.356.267-3.548.264.021.527.033.793.033 1.554 0 2.943-.396 4.132-1.179 1.967-1.295 3.055-3.161 2.986-5.12-.04-1.173-.547-3.388-3.484-5.044-2.792-1.575-6.01-3.053-9.562-4.393l-2.139-.805z" transform="translate(.3 .5) scale(.9025)"/></g><g id="L_Foot"><path id="ID0.7786169820465147" fill="#F7941E" d="M37.957 151.483a2.112 2.112 0 0 1-1.625-.754c-.892-1.048-.801-2.991-.567-4.438.062-.389.142-.769.232-1.141-1.912 1.874-4.062 3.597-6.687 4.548-.626.228-1.17.338-1.661.338-.956 0-1.743-.441-2.16-1.21-1.193-2.202 1.484-6.422 1.511-6.464.291-.444.597-.864.918-1.26-1.556.591-3.565 1.212-5.082 1.212-1.134 0-1.989-.334-2.544-.992-.353-.419-.731-1.159-.533-2.308.333-1.931 2.24-3.482 4.165-4.905l.328-.243c1.739-1.307 3.626-2.374 5.451-3.407.713-.403 1.427-.808 2.131-1.225l1.18-.7.802 1.113c2.954 4.099 6.752 7.435 11.29 9.915l1.102.603-.399 1.19c-1.073 3.198-2.472 5.707-4.401 7.896-1.362 1.543-2.426 2.232-3.451 2.232z" transform="translate(.3 .5) scale(.9025)"/><path id="ID0.8209071131423116" d="M32.599 130.525c3.137 4.353 7.179 7.835 11.787 10.354-.918 2.738-2.177 5.195-4.104 7.38-1.112 1.261-1.847 1.724-2.326 1.724-1.203 0-.798-2.916-.711-3.452.146-.922.421-1.829.657-2.729.183-.697-.409-1.298-1.024-1.298a.928.928 0 0 0-.685.304c-2.106 2.219-4.476 4.424-7.395 5.481-.473.172-.851.248-1.149.248-2.386 0 .305-4.889.608-5.354.687-1.051 1.521-2.024 2.495-2.813.755-.611.062-1.721-.747-1.721a.895.895 0 0 0-.474.138c-.241.146-4.339 2.029-6.694 2.029-1.083 0-1.797-.398-1.599-1.545.285-1.649 2.797-3.363 3.916-4.205 2.321-1.745 4.944-3.058 7.445-4.541m.83-3.981l-2.36 1.4c-.695.412-1.4.811-2.104 1.209-1.867 1.057-3.797 2.148-5.613 3.513l-.319.237c-1.603 1.186-4.287 3.171-4.75 5.855-.312 1.808.407 2.987.864 3.529.586.696 1.703 1.526 3.691 1.526.56 0 1.167-.069 1.79-.185-.755 1.705-1.438 4.1-.457 5.91.677 1.25 1.978 1.996 3.479 1.996.668 0 1.379-.14 2.173-.428 1.58-.573 3.008-1.408 4.306-2.369.088 1.242.443 2.234 1.062 2.962a3.634 3.634 0 0 0 2.767 1.281c1.903 0 3.381-1.385 4.576-2.739 2.039-2.312 3.575-5.062 4.698-8.41l.799-2.382-2.204-1.204c-4.339-2.373-7.971-5.562-10.792-9.477l-1.606-2.224z" transform="translate(.3 .5) scale(.9025)"/></g><g id="Body_1_"><g id="Body"><path id="ID0.08855116786435246" fill="#898DC5" d="M68.058 144.131a42.1 42.1 0 0 1-2.244-.06l-.41-.022c-6.116-.327-11.892-.637-17.932-3.336-.586-.262-1.148-.559-1.709-.855-5.556-2.942-10.314-7.628-13.846-13.593-8.382-14.161-6.231-31.116 5.9-46.519l.181-.229.345-.196c.067-.059.038-.173-.052-.274-.057-.065-.126-.109-.171-.109a.32.32 0 0 0-.132.044c-6.138 3.251-11.182 7.971-15.872 14.854l-.149.219c-2.193 3.217-4.462 6.544-7.229 9.509-1.967 2.108-5.656 4.35-8.618 4.35-1.285 0-2.386-.425-3.184-1.229-.968-.976-1.451-2.454-1.436-4.394.06-7.208 5.54-14.747 10.893-21.172 4.314-5.176 9.459-9.42 14.434-13.524 2.493-2.057 5.069-4.182 7.501-6.394l-.005-.061a189.76 189.76 0 0 0-2.913-3.703c-3.422-4.278-6.96-8.702-9.108-14.052-2.95-7.347-1.827-15.894 3.164-24.066C32.205 8.285 46.4 1.699 63.441 1.699c.346 0 .691.003 1.036.008 13.407.219 28.563 2.114 39.317 14.515 5.931 6.839 8.34 15.895 6.445 24.226-1.804 7.93-7.688 14.459-13.777 20.333-.109.106-.104.154-.103.179l.023.221-.026.141c2.11 1.502 4.486 3.051 6.999 4.689 11.926 7.774 26.767 17.45 27.998 32.128.162 1.928-.265 3.458-1.268 4.549-.981 1.067-2.479 1.632-4.33 1.632h-.001c-2.542 0-5.275-1.033-6.845-1.918-3.713-2.094-6.677-5.232-9.544-8.268l-.106-.112c-.897-.95-1.787-1.925-2.682-2.904-3.879-4.248-7.885-8.636-12.898-11.275 12.005 15.253 14.395 30.424 7.121 45.131-3.168 6.407-8.276 11.564-14.774 14.915-5.382 2.775-11.595 4.242-17.968 4.242z" transform="translate(.3 .5) scale(.9025)"/><path id="ID0.3412396004423499" d="M63.441 3.199c.338 0 .675.003 1.011.008 14.438.236 28.223 2.483 38.209 13.998 5.432 6.264 7.958 14.808 6.115 22.91-1.775 7.807-7.781 14.209-13.355 19.586-.452.438-.604.938-.553 1.417a1.333 1.333 0 0 0 .549 1.376c12.134 8.654 33.02 18.818 34.441 35.771.29 3.445-1.688 4.556-4.103 4.556-2.109 0-4.552-.847-6.108-1.725-3.561-2.008-6.516-5.159-9.297-8.104-5.057-5.352-9.863-11.486-16.594-14.793a1.539 1.539 0 0 0-.679-.168c-1.067.001-1.737 1.292-.948 2.276 10.498 13.104 15.146 28.188 7.326 44.001-3.17 6.412-8.174 11.183-14.117 14.247-5.233 2.698-11.195 4.075-17.281 4.075-.72 0-1.441-.019-2.164-.058-6.323-.34-11.896-.587-17.81-3.229-.584-.262-1.144-.561-1.704-.857-5.562-2.946-9.973-7.583-13.172-12.986-8.99-15.188-4.448-31.83 5.788-44.826.014-.008.028-.018.042-.023 1.693-.888.655-3.214-.917-3.214-.266 0-.547.066-.833.218-6.951 3.682-12.02 8.893-16.41 15.335-2.261 3.315-4.486 6.604-7.235 9.549-1.653 1.772-5.016 3.873-7.521 3.873-1.791 0-3.144-1.074-3.119-4.11.06-7.184 6.29-15.116 10.545-20.224 6.425-7.708 14.641-13.231 21.979-19.938a.943.943 0 0 0 .32-.802c.111-.237.124-.511-.056-.748-4.328-5.75-9.374-10.989-12.094-17.765-3.101-7.721-1.136-15.867 3.052-22.726 7.529-12.329 23.01-16.9 36.693-16.9m0-3c-17.568 0-32.242 6.854-39.254 18.336-5.244 8.587-6.407 17.61-3.275 25.407 2.23 5.555 5.839 10.067 9.329 14.43.687.859 1.389 1.737 2.076 2.618-2.106 1.868-4.305 3.682-6.443 5.445-5.028 4.148-10.228 8.438-14.631 13.721C5.72 86.785.066 94.597.002 102.276c-.019 2.355.611 4.193 1.871 5.464 1.085 1.094 2.555 1.672 4.249 1.672 3.824 0 7.905-2.887 9.715-4.827 2.845-3.047 5.146-6.423 7.371-9.687l.148-.218c2.973-4.363 6.085-7.826 9.536-10.576-9.138 14.447-10.025 29.815-2.265 42.925 3.673 6.204 8.635 11.082 14.349 14.109l.085.045c.566.3 1.151.61 1.797.899 6.296 2.813 12.208 3.13 18.466 3.465l.409.022c.772.041 1.554.062 2.325.062 6.61 0 13.062-1.524 18.656-4.409 6.784-3.498 12.121-8.887 15.432-15.584 6.262-12.662 5.478-26.089-2.189-39.264 1.918 1.816 3.729 3.801 5.515 5.756.88.964 1.79 1.96 2.699 2.923l.105.111c2.807 2.972 5.987 6.34 9.898 8.545 1.81 1.021 4.752 2.111 7.582 2.111 2.883 0 4.547-1.151 5.435-2.117.893-.971 1.905-2.746 1.657-5.69-1.292-15.407-16.474-25.305-28.673-33.258-2.027-1.321-3.964-2.584-5.734-3.805 5.913-5.8 11.465-12.271 13.262-20.169 2-8.794-.532-18.343-6.774-25.541C93.786 2.393 78.24.432 64.501.208a62.166 62.166 0 0 0-1.06-.009z" transform="translate(.3 .5) scale(.9025)"/></g><path id="Belly" fill="#FFF" d="M95.577 16.506c-13.121-13.434-29.68.975-29.68.975s-16.558-14.41-29.68-.975C16.666 36.522 46.666 61.51 46.666 68.516s-12.25 19.919-12.25 42.256c0 14.598 7.067 23.38 11.964 27.715.561.297 1.12.596 1.704.857 5.914 2.643 11.487 2.89 17.81 3.229 6.829.365 13.592-1 19.445-4.018 4.899-4.311 12.04-13.11 12.04-27.784 0-22.337-12.25-35.25-12.25-42.256s30-31.993 10.448-52.009z" transform="translate(.3 .5) scale(.9025)"/></g><g id="Beak_1_"><g id="Beak"><path id="ID0.08505663182586432" fill="#F7941E" d="M64.875 69.028c-9.692 0-20.48-12.89-20.48-21.625 0-7.359 10.32-17.598 20.48-17.598 10.569 0 20.52 9.914 20.52 17.598.001 7.562-10.547 21.625-20.52 21.625z" transform="translate(.3 .5) scale(.9025)"/><path id="ID0.6856351788155735" d="M64.875 31.305c9.519 0 19.02 9.025 19.02 16.098 0 7.073-10.164 20.125-19.02 20.125s-18.98-12.431-18.98-20.125c.001-6.25 9.461-16.098 18.98-16.098m0-3c-10.904 0-21.98 11.111-21.98 19.098 0 9.341 11.578 23.125 21.98 23.125 10.921 0 22.02-14.836 22.02-23.125.001-9.282-11.318-19.098-22.02-19.098z" transform="translate(.3 .5) scale(.9025)"/></g><path id="Mouth" fill="#231F20" d="M53.836 57.723c3.332 2.771 7.08 4.912 11.466 5.197 3.842.25 7.877-2.739 10.622-5.1 1.313-1.129-.461-3.252-1.789-2.317-2.36 1.661-4.392 3.854-7.083 4.773-4.328 1.479-8.098-2.851-11.453-4.857-1.183-.707-3.037 1.244-1.763 2.304z" transform="translate(.3 .5) scale(.9025)"/></g><path id="L_Eye" fill="#231F20" d="M44.229 24.862c1.046 0 1.993.542 2.679 1.416.686.875 1.111 2.084 1.111 3.417 0 1.333-.425 2.542-1.111 3.417-.686.874-1.633 1.416-2.679 1.416-1.046 0-1.993-.542-2.679-1.416-.686-.875-1.111-2.084-1.111-3.417 0-1.333.425-2.542 1.111-3.417.686-.874 1.633-1.416 2.679-1.416z" transform="translate(.3 .5) scale(.9025)"/><path id="R_Eye" fill="#231F20" d="M84.791 24.862c1.046 0 1.994.542 2.681 1.416.686.875 1.111 2.084 1.111 3.417 0 1.333-.425 2.542-1.111 3.417-.687.874-1.635 1.416-2.681 1.416s-1.994-.542-2.681-1.416c-.686-.875-1.111-2.084-1.111-3.417 0-1.333.425-2.542 1.111-3.417.687-.874 1.635-1.416 2.681-1.416z" transform="translate(.3 .5) scale(.9025)"/></g></svg>