<svg xmlns="http://www.w3.org/2000/svg" width="79.327" height="208.499" viewBox="0.327 3.308 79.327 208.499"><defs><style/></defs><g id="ID0.7634579516015947" transform="translate(-.65 .05) scale(1.6289)"><g id="ID0.18224140675738454"><g id="ID0.07530780974775553"><path id="ID0.5715098325163126" fill="#FFF" d="M216 232.5h47.3v127.1H216V232.5z" transform="translate(-215 -230)"/></g><g id="ID0.6419649901799858"><path id="ID0.22598200850188732" fill="#C3E8F3" d="M220.5 254.6h5.4v96.5h-5.4v-96.5z" transform="translate(-215 -230)"/></g><g id="ID0.444835988804698"><path id="ID0.512604983523488" fill="#C3E8F3" d="M231.5 254.6h5.4v96.5h-5.4v-96.5z" transform="translate(-215 -230)"/></g><g id="ID0.6040827860124409"><path id="ID0.32492705062031746" fill="#C3E8F3" d="M242.4 254.6h5.4v96.5h-5.4v-96.5z" transform="translate(-215 -230)"/></g><g id="ID0.8097445969469845"><path id="ID0.7237178734503686" fill="#C3E8F3" d="M253.3 254.6h5.4v96.5h-5.4v-96.5z" transform="translate(-215 -230)"/></g><g id="ID0.46690878132358193"><path id="ID0.7223627232015133" fill="#D1E6BB" d="M259.9 249.3H220v-11.9h39.9v11.9zm-37.8-2.1h35.7v-7.7h-35.7v7.7z" transform="translate(-215 -230)"/></g><g id="ID0.5169353974051774"><path id="ID0.8186326143331826" fill="#D1E6BB" d="M217.2 253.1H264v2.1h-46.8v-2.1z" transform="translate(-215 -230)"/></g><g id="ID0.810804265551269"><path id="ID0.5596781019121408" fill="#D1E6BB" d="M219.6 253.9h2.1v105.7h-2.1V253.9z" transform="translate(-215 -230)"/></g><g id="ID0.9613605025224388"><path id="ID0.7781043443828821" fill="#D1E6BB" d="M225.1 253.9h2.1v105.7h-2.1V253.9z" transform="translate(-215 -230)"/></g><g id="ID0.15633063623681664"><path id="ID0.7627233378589153" fill="#D1E6BB" d="M230.5 253.9h2.1v105.7h-2.1V253.9z" transform="translate(-215 -230)"/></g><g id="ID0.49152950197458267"><path id="ID0.38208107789978385" fill="#D1E6BB" d="M236 253.9h2.1v105.7H236V253.9z" transform="translate(-215 -230)"/></g><g id="ID0.5892330384813249"><path id="ID0.2751736999489367" fill="#D1E6BB" d="M241.4 253.9h2.1v105.7h-2.1V253.9z" transform="translate(-215 -230)"/></g><g id="ID0.8417911268770695"><path id="ID0.924276034347713" fill="#D1E6BB" d="M246.9 253.9h2.1v105.7h-2.1V253.9z" transform="translate(-215 -230)"/></g><g id="ID0.7201975523494184"><path id="ID0.5528415888547897" fill="#D1E6BB" d="M252.3 253.9h2.1v105.7h-2.1V253.9z" transform="translate(-215 -230)"/></g><g id="ID0.7567268083803356"><path id="ID0.515790902543813" fill="#D1E6BB" d="M257.8 253.9h2.1v105.7h-2.1V253.9z" transform="translate(-215 -230)"/></g><g id="ID0.9168362296186388"><path id="ID0.07600371493026614" fill="#D1E6BB" d="M262.2 232.5h2.1V360h-2.1V232.5z" transform="translate(-215 -230)"/></g><g id="ID0.5485369618982077"><path id="ID0.4239500411786139" fill="#D1E6BB" d="M215.6 232.5h2.1V360h-2.1V232.5z" transform="translate(-215 -230)"/></g></g><path id="ID0.34229851560667157" fill="none" stroke="#D1E6BB" stroke-width="3.099" d="M.9 2h48.4"/></g></svg>