<svg width="120" height="120" viewBox="0 0 120 120" xmlns="http://www.w3.org/2000/svg"><g fill="none"><path d="M31.974 60C27.64 47.541.271 60 .271 60s27.368 12.459 31.703 0z" fill="#ED1C24"/><path d="M31.974 60C28.413 49.779 6.04 60 6.04 60s22.374 10.221 25.935 0z" fill="#F7941E"/><path d="M31.974 60c-2.71-7.791-19.82 0-19.82 0s17.11 7.791 19.82 0z" fill="#FBB040"/><path d="M31.974 60c-2.013-5.824-14.787 0-14.787 0s12.774 5.824 14.787 0z" fill="#F9ED32"/><path d="M61.471 67.521l-10.22 15.93c-1.819 2.816-6.232 4.05-9.986 2.739l-25.123-8.679 14.942 1.042c3.987.27 7.587-1.852 8.206-4.86l1.704-8.139 20.477 1.967zm0-15.042l-10.22-15.93c-1.819-2.816-6.232-4.05-9.986-2.739l-25.123 8.679 14.942-1.042c3.987-.27 7.587 1.852 8.206 4.86l1.704 8.139 20.477-1.967z" fill="#C92127"/><path d="M49.548 76.123c2.555.848 5.42 1.543 5.42 1.543L61.47 67.52l-20.516-2.005-1.703 8.138c-.62 3.009-4.22 5.169-8.207 4.86l-14.942-1.041 24.194 8.331c7.045-.193 9.251-9.681 9.251-9.681zM34.761 38.824l-9.987.695-8.67 2.97 14.941-1.042c3.987-.27 7.587 1.852 8.207 4.86l1.703 8.139 6.735-.656-5.187-10.569c-1.47-2.892-4.529-4.628-7.742-4.397z" fill="#9A1C1F"/><path d="M114.116 52.247c-14.206-6.056-39.677-11.571-75.948 1.08v13.346c36.464 12.69 61.82 7.251 75.948 1.196 7.394-3.163 7.394-12.459 0-15.622z" fill="#F3F3F3"/><path fill="#9A1C1F" d="M35.42 60v-8.061L30 54.369V65.63l5.42 2.43z"/><path fill="#C92127" d="M38.168 66.711V53.327l-2.749-1.388V68.06z"/><path d="M114.116 67.907c2.052-.887 3.523-2.237 4.452-3.818-.078.038-35.884 16.238-80.4-.618v3.24c36.464 12.69 61.78 7.252 75.948 1.196z" fill="#DCDBDB"/><g transform="rotate(90 22.049 73.177)"><ellipse fill="#25296B" cx="8.871" cy="8.865" rx="8.679" ry="8.71"/><ellipse fill="#403B89" cx="8.871" cy="8.865" rx="7.869" ry="7.897"/><path d="M2.469 7.432c-.078 0-.193 0-.27-.038-.425-.155-.656-.62-.502-1.084C2.777 3.252 5.631 1.2 8.871 1.2a7.5 7.5 0 0 1 5.092 1.974c.347.31.386.852.077 1.2a.85.85 0 0 1-1.196.078 5.825 5.825 0 0 0-3.973-1.549C6.364 2.903 4.09 4.49 3.28 6.89a.872.872 0 0 1-.81.542z" fill="#4C4B99"/><ellipse fill="#25296B" cx="8.871" cy="8.865" rx="5.631" ry="5.652"/><ellipse fill="#64C0ED" cx="8.871" cy="8.865" rx="4.976" ry="4.994"/><ellipse fill="#92D9F7" cx="7.83" cy="6.774" rx="2.623" ry="2.632"/></g><path d="M114.116 52.247c-3.948-1.697-8.71-3.317-14.361-4.513-1.007 3.819-1.549 7.985-1.549 12.343 0 4.359.542 8.563 1.549 12.382a76 76 0 0 0 14.361-4.552c7.394-3.201 7.394-12.497 0-15.66z" fill="#C92127"/><path fill="#7E1113" d="M30 63.703v1.928l5.42 2.43v-3.355z"/><path fill="#9A1C1F" d="M35.42 68.061l2.748-1.35v-3.24l-2.749 1.235zm78.696-.154c2.052-.887 3.523-2.237 4.452-3.818-.039 0-7.355 3.317-19.471 5.4.193 1.002.426 1.967.658 2.931a79.078 79.078 0 0 0 14.361-4.513z"/><path d="M59.845 60H14.748s31.317 7.83 45.097 0z" fill="#9A1C1F"/><path d="M59.845 60H14.748s31.317-7.869 45.097 0z" fill="#C92127"/></g></svg>