<svg width="120" height="120" viewBox="0 0 120 120" xmlns="http://www.w3.org/2000/svg" xmlns:xlink="http://www.w3.org/1999/xlink"><defs><path id="a" d="M.383.823h11.402v5.722H.383z"/><path id="c" d="M.838.823h11.396v5.722H.838z"/><path id="e" d="M0 1.496h23.701v19.946H0z"/><path id="g" d="M0 119.256h59.874V.999H0z"/><path id="i" d="M.2.3h13.173v5.567H.2z"/></defs><g transform="translate(30 -1)" fill="none" fill-rule="evenodd"><g transform="translate(32.679 112.71)"><mask id="b" fill="#fff"><use xlink:href="#a"/></mask><path d="M9.627.823c1.732 1.066 2.98 3.32 1.501 5.107-1.117 1.25-2.766.297-4.017-.235-1.385-.662-2.97-1.1-4.22-1.96C2.09 3.17 1.135 2.496.591 1.65.423 1.388.342 1.07.403.823h9.224z" fill="#333433" mask="url(#b)"/></g><g transform="translate(19.607 112.71)"><mask id="d" fill="#fff"><use xlink:href="#c"/></mask><path d="M2.998.823C1.266 1.889.015 4.143 1.493 5.93c1.12 1.25 2.769.297 4.019-.235 1.379-.662 2.956-1.1 4.205-1.96.812-.565 1.766-1.239 2.313-2.086.166-.261.244-.58.183-.826H2.998z" fill="#333433" mask="url(#d)"/></g><path fill="#DDA20C" d="M44.38 88.384l-1.884 25.206h-9.534l-.374-18.227h-.273l-.368 18.227h-9.542l-1.876-25.206z"/><g transform="translate(0 45.074)"><mask id="f" fill="#fff"><use xlink:href="#e"/></mask><path d="M1.8 1.695c1.155-.493 2.543-.04 3.662 1.043.504-.766 1.105-1.193 1.658-1.089 1.042.208 1.53 2.195 1.094 4.447-.174.862-.451 1.638-.782 2.254a5.47 5.47 0 0 1-.2.8l5.267 6.205 11.202-4.014s-1.904 3.028-2.374 4.126c-.338.81-.998 3.353-.998 3.353s-8.18 3.327-10.5 2.485C6.965 20.27 3.66 10.91 3.66 10.91l.008-.007C2.441 10.468 1.236 9.283.55 7.656-.532 5.107.037 2.443 1.8 1.696" fill="#FDDFBB" mask="url(#f)"/></g><path d="M8.296 50.869c-.32 2.153-1.386 3.78-2.384 3.628-.991-.148-1.54-2.016-1.211-4.16.318-2.154 1.381-3.78 2.377-3.633.991.155 1.536 2.016 1.218 4.165m41.022 10.985c3.527 4.5 4.874 18.044 4.874 18.044s0-.02-.007-.059c.453.659.771 1.508.871 2.459.24 2.267-.84 4.24-2.418 4.407-1.028.105-2.006-.582-2.634-1.702-.584.48-1.165.675-1.575.454-.775-.406-.682-2.1.21-3.772a6.3 6.3 0 0 1 1.156-1.586c.028-.07.072-.136.103-.201 0 0-1.53-9.785-3.164-12.096-.817-1.163-1.342-1.81-1.527-2.328-.148-.412-.318-1.2-.386-1.499-.52-2.321-3.396-7.56-3.396-7.56s6.185 3.244 7.893 5.44" fill="#FDDFBB"/><path d="M49.493 79.458h4.766s-1.533-13.545-5.056-18.043c-1.554-1.995-6.061-4.54-6.871-4.986-2.018-1.3-8.063-1.499-8.063-1.499l-1.689.053h-.137l-1.693-.053s-6.071.214-8.065 1.527l-10.143 3.971-5.327-6.187-4.575 2.256s4.231 8.897 7.094 9.936c2.222.805 8.893-1.833 9.446-2.093-2.24 9.727-1.932 24.048-1.932 24.048h30.528s.2-11.46-1.399-20.928c.074.107.155.22.24.34 1.63 2.313 2.876 11.658 2.876 11.658" fill="#F7B90B"/><mask id="h" fill="#fff"><use xlink:href="#g"/></mask><path fill="#333433" mask="url(#h)" d="M38.83 67.586h.44v-.436h-.44z"/><path fill="#EEEEED" mask="url(#h)" d="M38.83 68.025h.44v-.439h-.44zm.44-.439h.441v-.436h-.44z"/><path fill="#333433" mask="url(#h)" d="M39.27 68.025h.441v-.439h-.44zm.441-.439h.438v-.436h-.438z"/><path fill="#EEEEED" mask="url(#h)" d="M39.711 68.025h.438v-.439h-.438zm.438-.439h.438v-.436h-.438z"/><path fill="#333433" mask="url(#h)" d="M40.149 68.025h.438v-.439h-.438zm.438-.439h.44v-.436h-.44z"/><path fill="#EEEEED" mask="url(#h)" d="M40.587 68.025h.44v-.439h-.44zm.44-.439h.438v-.436h-.438z"/><path fill="#333433" mask="url(#h)" d="M41.027 68.025h.438v-.439h-.438zm.44-.439h.438v-.436h-.438z"/><path fill="#EEEEED" mask="url(#h)" d="M41.467 68.025h.438v-.439h-.438zm.438-.439h.44v-.436h-.44z"/><path fill="#333433" mask="url(#h)" d="M41.905 68.025h.44v-.439h-.44zm.44-.439h.442v-.436h-.442z"/><path fill="#EEEEED" mask="url(#h)" d="M42.345 68.025h.442v-.439h-.442z"/><path fill="#333433" mask="url(#h)" d="M38.817 64.441h1v.3h-.336v1.77h-.333v-1.77h-.331zm1.346 1.419h.319l-.162-1.052-.157 1.052zm.743.652h-.333l-.054-.37h-.4l-.051.37h-.299l.333-2.07h.471l.333 2.07zm1.238-2.071L41.8 65.45l.37 1.063h-.344l-.268-.818-.266.818h-.305l.362-1.063-.342-1.008h.342l.238.766.25-.766zm.188 2.072h.32v-2.071h-.32zm5.444 21.875H17.247s-.02-1.113-.006-2.93h30.535c.02 1.817 0 2.93 0 2.93"/><path d="M29.739 88.782c.947.947 4.3.842 5.344 0 .699-.565.634-2.959 0-3.596-.942-.949-4.508-1.043-5.344 0-.565.699-.637 2.963 0 3.596" fill="#F7B90B" mask="url(#h)"/><path d="M30.685 88.139c.608.62 2.796.543 3.469 0 .45-.371.407-1.923 0-2.333-.612-.615-2.926-.676-3.469 0-.37.45-.411 1.918 0 2.333" fill="#333433" mask="url(#h)"/><path d="M33.553 86.996c0 .088.072.162.153.162h1.072a.158.158 0 0 0 .154-.162.15.15 0 0 0-.154-.152h-1.072a.153.153 0 0 0-.153.152" fill="#D69D0B" mask="url(#h)"/><path d="M32.521 58.957l-3.792-3.923c1.17-.138 2.05-.177 2.05-.177l1.688.083h.137l1.686-.057s.8.033 1.894.146l-3.663 3.928zm21.537-23.791c.157-1.08.249-2.18.249-3.3 0-12.11-9.806-21.933-21.906-21.933-12.093 0-21.895 9.822-21.895 21.934 0 1.067.079 2.118.223 3.148-1.264.692-2.114 1.999-2.114 3.504 0 2.219 1.87 4.025 4.181 4.025.157 0 .303-.006.464-.026C17 49.251 24.168 53.805 32.401 53.805c8.228 0 15.398-4.547 19.143-11.267.065.006.13.006.2.006 2.301 0 4.175-1.806 4.175-4.025 0-1.399-.737-2.633-1.86-3.353" fill="#FDDFBB" mask="url(#h)"/><g mask="url(#h)"><path d="M26.229 32.096c-.772-.174-.908-1.201-3.386-.74-.779.18-2.417 1.156-2.732 1.808-.316.652-.088-2.392 2.457-3.522 1.835-.675 2.457-.642 3.977-.642s1.987.907 1.766 1.65c0 0-.503 1.803-2.082 1.446zm13.905 0c.772-.174.908-1.201 3.386-.74.779.18 2.417 1.156 2.732 1.808.316.652.087-2.392-2.457-3.522-1.835-.675-2.457-.642-3.977-.642s-1.987.907-1.766 1.65c0 0 .503 1.803 2.082 1.446z" fill="#AD6921"/><path d="M26 38c0 1.657-.895 3-2 3s-2-1.343-2-3 .895-3 2-3 2 1.343 2 3m18 0c0 1.657-.895 3-2 3s-2-1.343-2-3 .895-3 2-3 2 1.343 2 3" fill="#343434"/><path d="M33.02 41.07c.839-.115 2.96 1.756 2.96 1.756s.103-.414-.34-1.238C35.163 40.703 32.99 40 32.99 40s-1.687.448-2.487 1.604c-.296.29-.503 1.299-.503 1.299s1.895-1.681 3.02-1.834z" fill="#EEAC6C"/><g transform="translate(26 44)"><mask id="j" fill="#fff"><use xlink:href="#i"/></mask><path d="M.2.696S7.097 3.904 13.372.299c0 0-1.39 5.47-5.95 5.561-4.115.122-4.984-1.492-5.477-1.956C1.453 3.441.525 2.132.2.696" fill="#EEAC6C" mask="url(#j)"/></g></g><path d="M19.35 33.702c1.789-1.109 4.41-1.8 4.41-1.8.322-.59.043-1.576-.37-1.634-1.317-.188-4.04 3.434-4.04 3.434m25.351 0c-1.782-1.109-4.42-1.8-4.42-1.8-.305-.59-.026-1.576.386-1.634 1.303-.188 4.034 3.434 4.034 3.434" fill="#AD6921" mask="url(#h)"/><path d="M55.177 29.008c-.013-1.146-.1-2.54-.265-4.032C51.968 15.33 43.008 8.305 32.407 8.305c-9.23 0-17.217 5.325-21.06 13.07-1.07 3.047-1.728 6.04-1.78 7.393-.194 4.684 3.228 11.71 3.228 11.71-.416-7.717-.326-7.704 1.53-9.037 2.316-1.665 7.183-4.768 9.063-6.908.361-.404 1.091-1.87 1.091-1.87s-.065 1.146.575 1.66c3.872 3.06 15.309-.349 19.647 2.016 3.544 1.934 7.856 14.139 7.856 14.139 1.758-3.321 2.655-8.891 2.62-11.47" fill="#AD6921" mask="url(#h)"/><path d="M30.696 56.315h3.584c1.022 0 1.847-2.2 1.847-3.206h-7.28c0 1.006.825 3.206 1.85 3.206" fill="#FDDFBB" mask="url(#h)"/><path d="M29.698 55.616l6.405-2.112.011-.016a22.478 22.478 0 0 1-3.708.317c-1.202 0-2.387-.1-3.546-.295.067.633.427 1.48.838 2.106" fill="#EEAC6C" mask="url(#h)"/><path d="M29.873 77.939c.022-1.444 1.531-15.932 1.531-15.932-.455-.37-.945-2.131-.945-2.131l1.157-.96 1.85.059 1.075.861s-.41 1.846-.901 2.171c0 0 1.398 14.499 1.398 15.939.011 1.505-2.581 2.572-2.581 2.572s-2.613-1.039-2.584-2.579" fill="#333433" mask="url(#h)"/><path d="M32.466 58.95s2.033.838 1.826 1.707c-.212.86 3.9-5.04 3.775-5.361-.126-.327-1.361-1.431-1.361-1.431l-4.24 5.085z" fill="#F7B90B" mask="url(#h)"/><path d="M32.521 58.935c.292.127 1.998.908 1.798 1.726-.009.029-.009.042-.009.046.179-.068 1.342-1.584 2.451-3.247.926-1.372 1.311-2.07 1.277-2.16-.114-.283-1.148-1.234-1.323-1.392l-4.194 5.027zm1.748 1.82c-.026-.022-.026-.052-.011-.11.209-.824-1.778-1.664-1.798-1.67l-.039-.013 4.281-5.147.026.028c.053.041 1.242 1.115 1.37 1.44.081.205-1.191 2.084-1.583 2.653-.079.118-1.946 2.832-2.214 2.832 0 0-.028-.006-.032-.013z" fill="#DDA20C" mask="url(#h)"/><path d="M32.55 58.95s-2.031.838-1.818 1.707c.207.86-3.908-5.04-3.782-5.361.127-.327 1.366-1.431 1.366-1.431l4.233 5.085z" fill="#F7B90B" mask="url(#h)"/><path d="M28.311 53.91c-.176.154-1.222 1.107-1.327 1.391-.034.09.349.788 1.28 2.167 1.115 1.662 2.26 3.172 2.446 3.24 0-.007 0-.02-.013-.046-.199-.818 1.503-1.602 1.797-1.726l-4.183-5.027zm.198 4.04c-.394-.574-1.675-2.461-1.592-2.666.135-.328 1.318-1.401 1.368-1.44l.03-.029 4.286 5.145-.04.013c-.03.009-2.004.849-1.799 1.674.018.054.009.082-.004.109a.063.063 0 0 1-.042.013c-.265 0-2.128-2.706-2.207-2.82zM10.131 27.427c3.994 10.45 40.372 10.58 44.703 0 0 0-10.852-7.076-22.566-7.076-14.228 0-22.137 7.076-22.137 7.076" fill="#DDA20C" mask="url(#h)"/><path d="M10.076 20.43l44.757.57s5.322-2.323 5.03-4.324C58.704 8.84 37.48 1.001 32.269 1.001 26.908 1 6.033 8.897 5.113 16.677c-.226 1.887 4.963 3.753 4.963 3.753" fill="#F7B90B" mask="url(#h)"/><path d="M10.076 27.448s19.581-11.273 44.757 0v-6.447s-15.496-11.038-44.757-.572v7.02z" fill="#343434" mask="url(#h)"/><path d="M16.895 24.689c-.018.006-.029.006-.035.013.006-.007.017-.007.035-.013m2.183-.62v.007-.007zm.344-.087c0 .008-.004.008-.004.008s.004 0 .004-.008m.345-.079h-.013.013zm-5.961 1.86h-.009.009zm2.729-.963h-.013.013zm26.103-1.291c-.029-.007-.046-.014-.068-.014.022 0 .04.007.068.014m5.735 1.478s-.013 0-.017-.004c.004.004.017.004.017.004m6.472 2.461a69.47 69.47 0 0 0-1.165-.504c.388.166.778.332 1.165.504m-29.632-4.566c-.015.007-.021.007-.021.007s.006 0 .021-.007m20.301 1.287c-.028-.007-.041-.013-.07-.013.029 0 .042.006.07.013M13.648 25.82c-.017.01-.03.01-.043.016.013-.007.026-.007.043-.016m14.48-3.236c-.026.004-.052.004-.076.004.024 0 .05 0 .076-.004M10.36 27.303s-.023.005-.031.011a.047.047 0 0 1 .03-.01m3.106-1.418c-.013.01-.017.016-.035.022.018-.006.022-.013.035-.022m-3.389 1.562s.011 0 .015-.006c-.004.006-.015.006-.015.006m.364-.194c0 .007-.017.007-.022.016.005-.01.022-.01.022-.016m-.332.181l-.017.007.017-.007zm.438-.232c-.017.007-.021.011-.021.011s.004-.004.021-.01m-.415.216l-.013.007.013-.006zm.109-.06l-.022.016s.007-.007.022-.015m.923-.467c-.021.007-.032.016-.045.022.013-.006.024-.015.045-.022m-.138.066l-.043.022.043-.022m.279-.132a.132.132 0 0 0-.029.015s.016-.01.029-.015m-.66.32c-.013.006-.017.013-.035.022.018-.01.022-.016.035-.022m.106-.053c-.012.004-.021.015-.034.021.013-.006.022-.017.035-.021m-.46.24c-.015.007-.022.007-.028.013.006-.006.013-.006.028-.013m34.504-4.985c-.488-.11-.987-.22-1.505-.319v1.623c.492.107 1 .242 1.505.369V22.35zm-14.503-1.328c-.501.022-.998.048-1.503.08v1.439c.492-.033.995-.033 1.51-.092h-.007v-1.427zm11.612.752c-.49-.087-.992-.166-1.503-.238v1.567c.5.08 1 .168 1.511.257h-.008v-1.586zm5.778 1.33c-.48-.142-.985-.282-1.503-.415v1.652h-.007c.5.142 1.007.281 1.51.436v-1.673zm4.274 1.47v1.673c.49.192.998.393 1.506.607v-1.632a42.731 42.731 0 0 0-1.506-.648m-27.434-3.039a49.33 49.33 0 0 0-1.51.227v1.458c-.115.022-.237.041-.353.067a48.915 48.915 0 0 1 1.863-.305v-1.447zm26.048 2.506c-.465-.166-.97-.338-1.5-.51v1.678c.488.165.998.338 1.5.519V24.04zm-13.06-2.838v1.519c.5.054 1 .111 1.506.179v-1.547c-.488-.05-.991-.105-1.506-.15m-23.16 2.63v1.72h-.015c.47-.173.972-.352 1.52-.533v-1.64c-.498.14-1 .294-1.505.453m5.774-1.527v1.505c.484-.109.992-.225 1.51-.331v-1.473c-.508.094-1.006.194-1.51.299m-10.048 3.03v2.112-1.663zm26.051-4.242a59.122 59.122 0 0 0-1.57-.079v1.486c.52.02 1.045.072 1.57.072v-1.48zm-24.664 3.72v1.941c.414-.194.918-.423 1.504-.66V24.28c-.497.175-1 .347-1.504.535m20.205-3.827v1.453c.5-.007.998 0 1.51.009v-1.47c-.497 0-.995 0-1.51.007m-5.77.373v1.463c.495-.062.992-.136 1.51-.182v-1.43c-.505.036-1.004.093-1.51.15m-7.152 1.261c-.506.122-1 .238-1.503.373v1.593a36.51 36.51 0 0 1 1.503-.425v-1.54zm24.543-3.294v1.615c.494.107 1 .218 1.505.34v-1.636a59.92 59.92 0 0 0-1.505-.319m-8.732-1.01v1.48a56.23 56.23 0 0 1 1.571.1v-1.503c-.516-.031-1.04-.06-1.57-.077m-21.59 3.264c-.5.166-1 .34-1.504.526v1.94a46.67 46.67 0 0 1 1.504-.661v-1.805zm24.542-3.081v1.521c.5.048 1 .107 1.506.173v-1.539a38.094 38.094 0 0 0-1.506-.155m2.89.333v1.568c.494.072 1 .16 1.503.26V19.07c-.488-.08-.991-.159-1.503-.235m5.778 1.147v1.66c.494.132 1 .282 1.503.433V20.4c-.477-.144-.985-.28-1.503-.419m2.892.841v1.684c.49.162.997.338 1.498.522V21.34c-.462-.17-.97-.347-1.499-.52m2.887 2.723c.49.194.998.399 1.506.604v-1.632a47.28 47.28 0 0 0-1.506-.648v1.676zm-26.058-4.886v1.438a34.97 34.97 0 0 1 1.51-.153v-1.44c-.505.048-1.004.094-1.51.155m-15.822 3.972v1.618-1.618zm12.935-3.567v1.462c.49-.09.992-.173 1.51-.25V18.83a57.18 57.18 0 0 0-1.51.232m-2.887.541v1.506c.484-.114.992-.22 1.51-.326v-1.481c-.508.094-1.006.194-1.51.301m-2.882.693v1.586c.479-.146.976-.284 1.503-.428v-1.54c-.506.122-1 .248-1.503.382m14.426-2.012v1.453c.5 0 .998 0 1.51.011v-1.464a43.529 43.529 0 0 0-1.51 0m-2.88.111v1.44c.494-.03.99-.052 1.503-.072v-1.44c-.501.02-.998.04-1.503.072M14.35 21.129v1.721c.469-.172.966-.356 1.506-.532v-1.641c-.499.144-1 .29-1.506.452m-.472-1.967c.116-.035.233-.068.355-.107-.122.04-.24.072-.355.107m20.679-3.232v1.032c.519.026 1.044.06 1.571.1v-1.097c.235.01.466.015.693.032a51.903 51.903 0 0 0-3.636-.067c.466-.007.926-.007 1.372 0M16.64 18.37c.082-.03.16-.047.237-.068-.076.021-.155.039-.238.067m8.121-1.726c.129-.021.25-.032.388-.052-.137.02-.26.03-.388.052m.585-.087c.166-.022.334-.046.495-.065-.161.02-.33.043-.495.065M10.076 20.43v.126-.126zm20.239-4.387c.456-.035.902-.05 1.34-.072-.438.021-.884.037-1.34.072m7.195 1.146c.5.054 1 .116 1.506.181v-1.207c.473.04.932.094 1.383.147v1.26c.495.08 1 .167 1.506.26v-1.307c.477.079.932.162 1.383.24v1.347c.495.109 1 .218 1.508.347v-1.382c.479.107.939.223 1.383.34v1.395c.492.14.998.28 1.503.432v-1.399c.488.147.948.293 1.388.448v1.385c.488.166.998.338 1.499.52v-1.347c.507.201.965.4 1.388.587v1.274c.488.19.997.4 1.505.613v-1.138c.917.484 1.383.816 1.383.816s-6.152-4.373-17.999-5.003c.227.01.447.026.664.039v1.152zm-9.326-.972c.172-.022.344-.032.518-.052-.174.02-.346.03-.518.052m-.694.073c.174-.022.362-.04.53-.06-.168.02-.356.038-.53.06m-8.744 2.34v-.8c-.501.119-1 .245-1.503.378v.847a41.9 41.9 0 0 1 1.503-.426m2.889-.682v-.752c-.501.102-1 .21-1.51.314v.774c.482-.113.991-.226 1.51-.336m11.544-1.031v-.986c-.493.007-.991.02-1.51.04v.94c.497-.005.998 0 1.51.006M15.95 18.557c.12-.035.227-.061.336-.094-.11.033-.216.059-.336.094m5.98-1.419c.11-.022.216-.044.32-.061-.104.017-.21.039-.32.06m-6.073 2.351v-.903c-.5.137-1 .283-1.506.436v1.001c.467-.174.965-.353 1.506-.534m11.552-2.378v-.814c-.501.055-.996.122-1.51.188v.785c.493-.059.992-.113 1.51-.159m2.883-.172v-.895c-.493.03-.992.065-1.503.116v.85c.492-.03.99-.058 1.503-.071m-5.77.511v-.766c-.499.08-1 .162-1.51.255v.749a44.08 44.08 0 0 1 1.51-.238m-4.955.187c.148-.035.299-.065.442-.1-.143.035-.294.065-.442.1m-.651.156c.14-.035.281-.07.412-.105-.13.035-.272.07-.412.105m-5.948 2.77v-1.113c-.5.16-1 .327-1.504.5v1.274c.414-.194.915-.423 1.504-.661m9.531-3.532c.144-.027.294-.051.44-.08-.146.029-.296.053-.44.08" fill="#EEEEED" mask="url(#h)"/><path d="M36.127 19.897v1.198c.467.032.933.065 1.384.109v-1.18a30.16 30.16 0 0 0-1.384-.127m1.383-1.396v-1.313c-.464-.044-.923-.094-1.383-.127v1.334c.466.028.932.06 1.383.106m-.689-2.503h.026-.026z" fill="#EEEEED" mask="url(#h)"/><path d="M36.127 21.095v1.479c.46.06.92.105 1.384.148v-1.518c-.451-.044-.917-.075-1.384-.11m0-2.699v1.501c.46.033.92.074 1.384.127v-1.521a34.545 34.545 0 0 0-1.384-.107m0-1.334c.46.035.92.083 1.384.129v-1.154a55.41 55.41 0 0 0-.665-.038h-.026c-.226-.017-.457-.021-.693-.034v1.097z" fill="#343434" mask="url(#h)"/><path d="M39.017 20.195v1.159c.472.063.932.122 1.383.181v-1.132a40.033 40.033 0 0 0-1.383-.208m1.383-1.361V17.57c-.467-.072-.924-.14-1.384-.2v1.287c.473.052.933.111 1.384.177" fill="#EEEEED" mask="url(#h)"/><path d="M39.017 21.354v1.547c.46.06.917.127 1.383.203v-1.569c-.45-.058-.91-.12-1.383-.18m0-2.698v1.538c.46.061.917.129 1.383.207v-1.568c-.45-.066-.91-.125-1.383-.177m1.383-2.348c-.451-.05-.911-.107-1.384-.144v1.204c.46.064.917.129 1.384.201v-1.261z" fill="#343434" mask="url(#h)"/><path d="M41.904 20.662v1.113c.475.083.934.168 1.385.255v-1.087c-.468-.1-.928-.194-1.385-.281m1.385 2.981c-.22-.046-.438-.094-.652-.136.214.042.432.09.652.136m-.719-.147c-.227-.046-.436-.094-.658-.135.222.041.431.089.658.135m.719-4.168v-1.22a77.96 77.96 0 0 0-1.386-.279v1.242c.475.078.935.166 1.386.257" fill="#EEEEED" mask="url(#h)"/><path d="M43.289 22.03a76.63 76.63 0 0 0-1.386-.255v1.584h.009c.222.043.431.09.658.137.022 0 .04.007.067.013.214.04.432.087.652.133V22.03zm-1.385-2.96v1.59c.457.09.917.182 1.385.282v-1.614a38.38 38.38 0 0 0-1.385-.258m1.385-2.307c-.451-.079-.906-.16-1.386-.238v1.305c.458.085.917.179 1.386.279v-1.346z" fill="#343434" mask="url(#h)"/><path d="M46.178 19.982v-1.171a42.924 42.924 0 0 0-1.384-.354v1.191c.482.107.942.22 1.384.334m-1.383 1.3v1.067c.482.113.941.225 1.384.34v-1.047a49.78 49.78 0 0 0-1.384-.36m1.377 3.06" fill="#EEEEED" mask="url(#h)"/><path d="M46.178 22.688a49.873 49.873 0 0 0-1.384-.338v1.671c.223 0 .438.085.65.149.03.004.043 0 .07.004.213.061.437.113.657.177l.007-.009v-1.654zm-1.383-3.04v1.634c.46.113.92.231 1.384.36v-1.66a50.21 50.21 0 0 0-1.384-.334m1.383-2.233a33.949 33.949 0 0 0-1.384-.338v1.38c.46.11.92.225 1.384.354v-1.396z" fill="#343434" mask="url(#h)"/><path d="M48.356 24.983c-.222-.068-.446-.14-.675-.207.229.067.453.14.675.207m.714-4.161v-1.146a62.24 62.24 0 0 0-1.388-.434v1.16c.481.138.947.282 1.387.42m-1.387 1.253v1.03c.482.137.948.283 1.388.425v-1.023c-.47-.15-.928-.297-1.388-.432" fill="#EEEEED" mask="url(#h)"/><path d="M47.682 23.104v1.673c.227.066.453.138.676.205.004.005.015.005.015.005.226.072.46.15.697.222v-1.68c-.44-.142-.906-.288-1.388-.425m0-2.702v1.673c.46.134.917.282 1.388.432v-1.686c-.44-.138-.906-.282-1.388-.419m1.388-2.112c-.44-.154-.9-.3-1.388-.447v1.4c.46.138.917.278 1.387.433V18.29z" fill="#343434" mask="url(#h)"/><path d="M51.956 21.868v-1.156a59.6 59.6 0 0 0-1.387-.517v1.147c.507.18.958.36 1.387.526m-1.386 1.159v1.015c.505.187.956.36 1.387.532v-1.032a35.707 35.707 0 0 0-1.388-.515" fill="#EEEEED" mask="url(#h)"/><path d="M50.57 24.041v1.687c.463.168.923.34 1.387.52v-1.674a59.934 59.934 0 0 0-1.388-.533m.001-1.014c.463.161.923.332 1.387.515v-1.674c-.431-.165-.882-.346-1.388-.525v1.684zm1.386-3.59c-.42-.188-.88-.389-1.387-.59v1.35c.464.165.923.333 1.387.514v-1.274z" fill="#343434" mask="url(#h)"/><path d="M53.463 22.516c.902.41 1.383.687 1.383.687v1.545c-.442-.208-.932-.406-1.383-.6v1.073c.902.415 1.383.687 1.383.687v1.54-5.532a62.762 62.762 0 0 0-1.383-.594v1.194zm0 4.338c.063.028.143.06.209.09-.066-.03-.146-.062-.21-.09" fill="#EEEEED" mask="url(#h)"/><path d="M53.463 25.222v1.632c.063.028.143.06.209.09.394.165.786.33 1.174.505v-1.542s-.481-.273-1.383-.685m1.382-.473v-1.545s-.481-.277-1.383-.687v1.632c.45.192.941.39 1.383.6m-1.382-4.564v1.136c.45.188.917.387 1.383.594V21s-.466-.332-1.383-.816" fill="#343434" mask="url(#h)"/><path d="M10.119 27.427l-.007.009s.007 0 .007-.01m.091-.05c-.013.006-.013.01-.026.01.013 0 .013-.004.026-.01m-.068.038s-.004 0-.01.007c.006-.007.01-.007.01-.007m.841-.432c-.042.02-.079.041-.122.058.043-.017.08-.039.122-.058m.134-.067l-.092.046.092-.046m.346-.159c-.05.026-.106.046-.159.072.053-.026.11-.046.16-.072m-.001-6.808c-.46.153-.917.317-1.387.482.47-.165.928-.33 1.387-.482m-1.044 7.322c-.022.012-.042.017-.059.034.017-.017.037-.022.059-.035m1.044-3.221c-.904.419-1.387.7-1.387.7v-.5 1.09c.47-.184.919-.354 1.387-.522v-.768zm0-2.826c-.904.42-1.387.692-1.387.692v-1.36 2.076c.47-.181.919-.356 1.387-.522v-.886zm-.946 5.992c-.027.013-.053.028-.077.041.024-.013.05-.028.077-.041m-.254.134l-.02.013.02-.013m.454-.232c-.024.01-.055.026-.072.032.017-.006.048-.021.072-.032m-.387.198l-.04.022.04-.022" fill="#EEEEED" mask="url(#h)"/><path d="M10.076 25.337v2.112s.011 0 .015-.007l.018-.006s.004 0 .01-.01l.012-.006c.006-.006.01-.006.01-.006a.095.095 0 0 0 .044-.029c.013 0 .013-.004.026-.008l.029-.016s.013-.006.023-.013c.007-.006.014-.006.029-.013.013-.009.026-.015.037-.022l.017-.01c.033-.016.05-.02.072-.033.005-.009.022-.009.022-.016l.076-.041.03-.01.064-.034c.017-.008.022-.015.035-.021l.072-.033c.013-.007.021-.015.034-.02a.846.846 0 0 0 .11-.054c.043-.02.08-.04.121-.06.013-.006.029-.015.044-.021a.891.891 0 0 1 .091-.044c.014-.006.024-.015.046-.022a.62.62 0 0 0 .1-.052l.04-.013c.054-.028.109-.048.16-.074v-1.94c-.468.168-.916.338-1.387.522m1.387-1.289v-1.94c-.468.168-.917.343-1.387.521v2.119s.483-.281 1.387-.7m0-2.826v-1.274c-.46.153-.917.317-1.387.482v1.484s.483-.273 1.387-.692" fill="#343434" mask="url(#h)"/><path d="M12.968 26.095c.148-.059.307-.128.464-.187-.157.059-.316.128-.464.187m1.367-.541c-.185.065-.355.142-.529.21.174-.068.344-.145.53-.21m-.539.209c-.046.017-.098.039-.148.056.05-.017.102-.039.148-.056m-.191.072c-.042.018-.092.04-.14.05.048-.01.098-.032.14-.05m.744-4.706v-1.107c-.503.186-.969.367-1.383.54v1.02c.464-.161.92-.307 1.383-.453m-1.382 2.258v.893c.464-.151.919-.304 1.383-.446v-.984a31.56 31.56 0 0 0-1.383.537m.576-4.117c.115-.034.222-.065.333-.109-.11.044-.218.075-.333.11m-.576.179c.08-.029.172-.053.25-.079-.085.026-.17.05-.25.079" fill="#EEEEED" mask="url(#h)"/><path d="M14.35 23.834c-.464.14-.919.295-1.383.446v1.815c.15-.06.307-.127.464-.188.018-.006.022-.013.035-.022.048-.01.1-.032.14-.05.012-.006.026-.006.043-.015l.148-.057h.009c.174-.065.344-.144.53-.21h.014v-1.719zm-1.382-2.252v1.805c.411-.173.877-.354 1.383-.537v-1.721c-.464.146-.92.292-1.383.453m1.382-1.559V19.02a.512.512 0 0 1-.117.035c-.12.037-.24.072-.355.105a3.714 3.714 0 0 1-.334.11c-.113.032-.217.067-.326.1-.079.026-.17.052-.25.078v1.113c.413-.173.88-.354 1.382-.54" fill="#343434" mask="url(#h)"/><path d="M15.857 22.317v1.063c.468-.13.917-.26 1.385-.384v-1.115c-.496.148-.947.295-1.385.436m0 2.704c.213-.072.438-.144.666-.222-.228.078-.453.15-.666.222m1.385-4.725v-1.24c-.497.138-.948.286-1.386.432v1.19c.468-.138.917-.26 1.386-.382m-.956-1.833c.116-.035.236-.061.353-.094-.117.033-.237.06-.353.094m-.429.122c.032-.007.063-.022.093-.029-.03.007-.06.022-.093.029m1.385-.378c-.122.035-.24.061-.364.094.124-.033.242-.059.364-.094m0 6.382c-.122.035-.24.065-.347.1.107-.035.225-.065.347-.1" fill="#EEEEED" mask="url(#h)"/><path d="M15.857 23.38v1.641c.213-.072.438-.144.666-.222h.013c.103-.03.21-.066.325-.098.007-.005.017-.005.035-.011.104-.035.224-.068.346-.1v-1.596c-.468.127-.917.254-1.385.387m0-2.704v1.64c.438-.141.889-.287 1.385-.436v-1.586c-.468.122-.917.247-1.385.382m1.385-1.622v-.848c-.122.035-.24.063-.364.094-.076.021-.155.041-.238.07-.117.03-.24.058-.353.093l-.337.092c-.029.006-.061.022-.094.028v.903c.438-.144.889-.294 1.386-.432" fill="#343434" mask="url(#h)"/><path d="M20.124 19.603v-1.318c-.475.11-.945.223-1.379.345v1.285c.46-.105.92-.212 1.38-.312m-.001 4.21c-.115.029-.235.055-.357.09.122-.035.242-.061.357-.09m-.795-6.126c.08-.017.16-.032.237-.05-.076.018-.157.033-.237.05m-.583 3.768v1.167c.46-.116.92-.214 1.379-.314V21.11c-.475.113-.946.227-1.38.345m1.009 2.448c-.115.026-.222.052-.33.078.108-.026.215-.052.33-.078m.37-6.394" fill="#EEEEED" mask="url(#h)"/><path d="M18.746 22.622v1.54c.102-.034.218-.06.33-.087v-.006c.114-.029.227-.055.334-.079 0 0 .013 0 .013-.008.11-.027.216-.053.331-.079h.013c.12-.035.242-.061.358-.09v-1.507c-.46.1-.92.2-1.38.316m.001-2.708v1.54c.433-.117.904-.23 1.379-.344v-1.508c-.46.1-.92.207-1.38.312m1.379-1.63v-.774c-.039.01-.076.02-.115.026-.144.035-.292.067-.442.1-.077.02-.157.035-.238.053-.133.032-.272.07-.414.102a1.63 1.63 0 0 0-.17.04v.798c.434-.12.904-.234 1.38-.345" fill="#343434" mask="url(#h)"/><path d="M21.635 20.783v1.227c.464-.094.92-.175 1.377-.247v-1.24c-.475.08-.935.167-1.377.26m1.376-1.721v-1.375c-.475.087-.934.177-1.376.26v1.355a55.3 55.3 0 0 1 1.376-.24m-1.376-1.867c.096-.02.2-.041.296-.056-.096.015-.2.037-.296.056m.617-.119c.08-.02.168-.033.246-.046-.078.013-.165.026-.246.046m-.617 6.404" fill="#EEEEED" mask="url(#h)"/><path d="M23.011 21.763a31.87 31.87 0 0 0-1.376.245v1.473a82.18 82.18 0 0 1 1.023-.195c.118-.024.238-.043.353-.065v-1.458zm-1.376-2.46v1.481c.442-.094.902-.181 1.377-.26v-1.461c-.458.074-.913.152-1.377.24m1.376-1.616v-.75a18.868 18.868 0 0 1-.512.092c-.078.015-.167.028-.248.048l-.32.06c-.096.018-.2.04-.296.057v.753c.442-.083.901-.172 1.376-.26" fill="#343434" mask="url(#h)"/><path d="M25.18 22.888c-.22.035-.447.06-.658.094.21-.035.437-.059.657-.094m-.657-2.614v1.261c.46-.065.917-.12 1.377-.174v-1.266c-.47.053-.924.122-1.377.18m1.376 2.526c-.233.029-.46.053-.684.08.225-.027.451-.051.684-.08m-.751-6.211c.066-.013.136-.022.199-.035-.063.013-.133.022-.199.035m.751 2.067v-1.388c-.47.053-.923.114-1.376.18v1.38c.46-.06.917-.12 1.376-.172m0-2.173c-.021 0-.045.006-.045.006s.024-.006.045-.006" fill="#EEEEED" mask="url(#h)"/><path d="M25.898 21.36c-.46.055-.917.11-1.376.175v1.447c.21-.033.437-.06.657-.094 0 0 .02.013.035.007.225-.029.451-.072.684-.072V21.36zm-1.376-2.53v1.444c.453-.057.906-.127 1.377-.179v-1.438c-.46.053-.917.112-1.377.173m1.376-1.56v-.786a.203.203 0 0 0-.045.007c-.175.02-.342.044-.508.065-.063.013-.13.022-.198.033-.135.022-.26.033-.386.055l-.24.039v.766a36.95 36.95 0 0 1 1.377-.18" fill="#343434" mask="url(#h)"/><path d="M28.788 16.158a.425.425 0 0 1-.085.006c.026 0 .056 0 .085-.006m-1.379 6.483c.207-.02.416-.034.643-.052-.227.018-.436.033-.643.052m.611-6.411c.054-.006.109-.006.163-.013-.054.007-.109.007-.163.013m-.611.066c.026 0 .055-.006.08-.006-.025 0-.054.006-.08.006m1.379 6.245c-.218.016-.443.026-.66.044.217-.018.442-.028.66-.044m0-4.146V17.01a63.92 63.92 0 0 0-1.38.1v1.392c.46-.04.92-.072 1.38-.107m-1.379 1.547v1.267c.46-.039.92-.08 1.38-.107v-1.267a47.54 47.54 0 0 0-1.38.107" fill="#EEEEED" mask="url(#h)"/><path d="M27.409 21.21v1.43c.207-.019.416-.032.643-.052.024 0 .05 0 .076-.004.218-.017.442-.028.66-.044v-1.437c-.46.026-.92.067-1.379.107m0-2.709v1.44c.455-.037.906-.078 1.38-.106v-1.44c-.46.034-.92.067-1.38.106m1.379-1.491v-.853a.425.425 0 0 1-.085.006c-.175.022-.347.033-.519.055-.056.007-.109.007-.165.013-.168.02-.355.037-.53.059-.024 0-.054.007-.08.007v.813c.455-.039.906-.072 1.379-.1" fill="#343434" mask="url(#h)"/><path d="M31.668 22.441c-.46 0-.917.015-1.37.029.453-.014.91-.029 1.37-.029m-1.376-2.678v1.259c.466-.013.926-.029 1.377-.033v-1.252c-.46.004-.918.01-1.377.026m1.376-3.793h-.013.013zm-1.376.073h.02zm1.376 2.241V16.91c-.46 0-.917.013-1.376.028v1.385a42.64 42.64 0 0 1 1.376-.039" fill="#EEEEED" mask="url(#h)"/><path d="M30.292 21.022v1.427h.006c.453 0 .91-.009 1.37-.009v-1.453c-.45.007-.91.022-1.376.035m0-2.699v1.44c.46-.016.917-.022 1.377-.027v-1.453c-.451.007-.911.018-1.377.04m1.376-1.413v-.94h-.013c-.438.021-.884.039-1.34.074h-.023v.894c.46-.015.917-.028 1.376-.028" fill="#343434" mask="url(#h)"/><path d="M33.179 19.748v1.233c.466.006.926.02 1.379.035v-1.22c-.466-.02-.92-.042-1.38-.048m.001 2.702c.46.013.913.024 1.379.05-.466-.026-.92-.037-1.38-.05m.001-6.52h.006zm1.378 2.388v-1.357c-.466-.017-.919-.033-1.379-.046v1.368c.467.007.926.013 1.38.035" fill="#EEEEED" mask="url(#h)"/><path d="M33.179 20.982v1.468c.46.013.913.024 1.379.05v-1.484a70.047 70.047 0 0 0-1.38-.034m.001-2.698v1.464c.46.007.913.029 1.379.048V18.32a40.666 40.666 0 0 0-1.38-.035m1.379-1.325v-1.03c-.446-.007-.906-.02-1.372-.02h-.007v1.006c.46.013.913.028 1.38.046" fill="#343434" mask="url(#h)"/><path d="M34.251 19.315c0 1.5-.804 2.721-1.795 2.721-.998 0-1.804-1.222-1.804-2.72 0-1.5.806-2.72 1.804-2.72.991 0 1.795 1.22 1.795 2.72" fill="#F7B90B" mask="url(#h)"/></g></svg>