<svg width="120" height="120" viewBox="0 0 120 120" xmlns="http://www.w3.org/2000/svg"><g fill="none" fill-rule="evenodd"><path d="M51.255 94.476l6.791.89c.715.095 1.02.6 1.015 1.143.15.257.216.574.136.945a258.669 258.669 0 0 1-4.988 19.346c-.266.888-1.564 1.508-2.27.658-5.307-6.376-4.005-14.49-2.33-21.982.173-.774.926-1.095 1.646-1" fill="#FFE2DC"/><path d="M21.86 77.905c10.616.58 8.835-15.158 9.125-20.989l1.295-25.985c.047-.933.995-1.344 1.8-1.226.039-.016.072-.036.114-.05 17.837-5.817 38.118-4.087 54.405 4.568.257.137.428.31.54.5.451.18.799.55.803 1.12.06 8.173.137 16.347.234 24.521.067 5.592-2.18 20.722 8.082 20.382 1.68-.055 1.777 1.739.389 2.54-14.947 8.62-55.642 13.606-77.82-3.174-.948-.716-.197-2.274 1.033-2.207" fill="#CE7F00"/><path d="M53.038 66.861l.001-.01a.87.87 0 0 1-.015-.174c.026-.579.52-1.24 1.172-1.17.038.004.072.012.108.017a1.15 1.15 0 0 1 .52-.1l14.066.496c.694.024 1.065.535 1.12 1.073.169.185.28.435.276.76-.052 4.898-3.827 9.056-8.875 8.961-5.032-.093-8.692-4.384-8.534-9.282.008-.224.067-.414.16-.571M29.88 53.568c.594-.11 1.226.07 1.54.625 3.139 5.553 6.921 10.165 12.96 12.393 6.19 2.284 4.263 5.919 3.641 6.828a1.902 1.902 0 0 1-1.075 1.27c-.205.33-.571.542-1.105.476-6.27-.781-12.126-3.693-16.232-8.554-1.742-2.063-3.632-4.661-3.795-7.453-.155-2.63 1.402-5.095 4.067-5.585m69.014 5.041c-.164 2.791-2.053 5.39-3.796 7.452-4.105 4.862-9.962 7.773-16.232 8.554-.533.067-.9-.144-1.104-.475a1.904 1.904 0 0 1-1.076-1.27c-.621-.91-3.068-2.18-2.608-3.148.029-.128 4.625-2.963 6.249-3.68 5.887-2.602 9.822-6.84 12.96-12.394.314-.555.946-.734 1.54-.625 2.665.491 4.222 2.956 4.067 5.586m-36.63 37.664a33.335 33.335 0 0 1 8.941.938c1.09.263 1.185 1.428.669 2.128.002.03.01.057.012.088.312 7.35-2.255 14.343-7.162 19.817-.846.943-2.248.132-2.328-.962l-1.495-20.648c-.054-.75.67-1.34 1.363-1.361" fill="#FFE2DC"/><path d="M33.194 98.275c2.926-4.446 6.418-8.765 10.453-11.954.655-.517 1.293-.149 1.581.46.121-.05.253-.086.403-.092a192.856 192.856 0 0 1 34.195 1.539c.586.079.947.514 1.085 1.008.047.043.094.084.138.139 2.6 3.188 4.856 6.663 6.619 10.464 1.414 3.048 3.53 7.177 2.581 10.652-.748 2.738-3.27 4.377-5.79 4.683-3.148.382-5.998-1.297-8.571-3.092-4.49 5.244-11.946 5.16-16.238-.245-4.372 4.453-11.194 3.516-14.358-1.955-3.81 3.512-9.693 2.405-12.236-2.58-.133-.26-2.652-4.786.138-9.027" fill="#F5BCD3"/><path d="M35.39 91.012c2.77-3.897 6.075-7.682 9.894-10.476.62-.454 1.224-.131 1.497.403.115-.043.239-.075.381-.081a197 197 0 0 1 32.366 1.349c.555.07.897.45 1.027.883.044.038.09.074.131.122 2.46 2.794 4.596 5.84 6.265 9.17 1.339 2.672 3.342 6.29 2.443 9.336-.708 2.4-3.095 3.836-5.48 4.104-2.98.335-5.677-1.136-8.113-2.71-4.25 4.596-11.307 4.523-15.37-.214-4.138 3.902-10.595 3.08-13.59-1.714-3.606 3.078-9.175 2.108-11.58-2.26-.127-.229-2.511-4.195.13-7.912" fill="#E194B2"/><path d="M40.146 85.002c1.056-3.288 1.641-6.633 1.709-10.087.01-.502.288-.846.645-1.025.08-.083.176-.16.302-.225 3.466-1.76 5.949-4.644 7.01-8.399.164-.58.731-1.039 1.365-.88l3.44.868c.202.05.362.142.49.255.376.13.674.448.689.971.094 3.456 2.535 6.356 6.12 6.44 3.709.089 6.447-2.904 6.44-6.527-.002-.465.276-1.036.778-1.151.904-.21 1.808-.417 2.712-.626.592-.388 1.445-.316 1.617.552.745 3.756 2.97 6.86 6.37 8.663.468.08.89.41.943 1.017a66.289 66.289 0 0 0 2.246 12.323c.201.714-.25 1.462-1.024 1.51a194.429 194.429 0 0 1-40.91-1.719c-.672-.1-.93-.627-.872-1.147-.13-.214-.174-.487-.07-.813" fill="#F5BCD3"/><path d="M35.556 32.922c.042-.697.507-1.112 1.04-1.252.092-.601.52-1.176 1.283-1.257 16.187-1.71 32.404-.138 48.527 1.498.243.025.448.103.624.213.701.145 1.302.757 1.04 1.641-2.137 7.204.364 14.864-1.779 22.06-1.914 6.43-7.63 10.537-13.975 12.046-6.742 1.603-14.443 1.148-21.161-.448-5.835-1.387-11.552-4.384-14.428-9.87-3.979-7.59-1.665-16.544-1.171-24.63" fill="#FFE2DC"/><path d="M59.445 56.755c1.972 3.714 6.873 4.22 9.308.618.976-1.445 3.339-.085 2.354 1.373-3.506 5.186-11.023 5.018-14.016-.618-.821-1.546 1.531-2.923 2.354-1.373" fill="#050000"/><path d="M28.504 36.328C32.5 22.234 34.2 11.348 60.65 10.768c23.633-.518 31.234 13.35 31.194 27.274-.005 1.641-3.315 1.772-3.845 1.675-9.267-1.686-17.492-2.689-23.603-9.722-10.022 9.342-23.822 12.127-34.603 8.58-.345-.115-.52-.406-.627-.664-.52-.284-.871-.843-.662-1.583" fill="#DD8D00"/><path d="M62.835 50.382c.705.185 2.88.886 3.22-.247.163-.546-.57-1.072-.903-1.406-1.09-1.086-1.94-2.142-1.627-3.77.33-1.718 2.959-.99 2.63.723-.093.482 1.343 1.528 1.63 1.868.714.846 1.2 1.87.978 3.001-.622 3.157-4.238 3.088-6.653 2.455-1.696-.445-.977-3.07.725-2.624" fill="#F4D7D0"/><path d="M47.492 45.442c1.337 2.327 4.427 2.527 5.92.216.948-1.467 3.31-.105 2.354 1.373-2.57 3.979-8.24 3.943-10.628-.215-.874-1.523 1.481-2.895 2.354-1.374m26.845.276c1.079 2.548 4.171 2.625 5.31.077.714-1.596 3.065-.214 2.355 1.373-1.924 4.3-8.174 4.281-10.02-.076-.674-1.595 1.673-2.983 2.355-1.374" fill="#060000"/><path d="M47.768 1.28C47.743-.11 49.7-.457 50.33.68c1.14 2.054 2.188 6.829 3.329 8.884.65-1.751 1.395-6.222 2.047-7.973.487-1.309 2.2-1.18 2.627.089.943 2.801 2.167 4.916 3.618 7.464.933-2.556 1.641-4.621 2.169-7.311.253-1.29 1.913-1.074 2.5-.24 1.705 2.416 3.41 4.832 5.113 7.248a37.298 37.298 0 0 0 2.776-7.34c.351-1.33 2.315-1.171 2.628.089a46.875 46.875 0 0 1 1.245 15.177 1.346 1.346 0 0 1-.314.784c.042.594-.254 1.208-.994 1.405-9.607 2.545-20.767 4.787-28.813-2.693-.536-.498-.414-10.651-.493-14.984" fill="#F5DA6A"/></g></svg>