<svg width="199" height="172" viewBox="0 0 199 172" xmlns="http://www.w3.org/2000/svg"><g fill="none"><path d="M14.3 118.2c-4.4-4-5.1-11-5.1-16.5 0-6.2 1-13.1 4.3-18.5 4.3-7 12.6-10 20.2-11.6 4.4-.9 8.5-1.1 12.9-.5 4 .6 8 1.5 12.1 1.9 11.6 1 23.7-6.4 29.9-16.1 5-7.8 9.1-16.5 12.4-25.1 1.8-4.5 8-18.5.7-21.2-1.7-.7-2.4 2.1-.8 2.7 2.3.9.9 6.3.5 7.9-1.1 4.8-2.9 9.5-4.9 14-3.2 7.5-6.8 15.8-11.8 22.4-4 5.1-10.7 9.9-16.9 11.9-7.9 2.5-16.2-.8-24.1-1.4-12.7-1-29.1 4.6-34.4 17-2.6 6.1-3.4 13-3 19.6.4 5.5 1.6 11.8 5.9 15.6 1.4 1.1 3.4-.9 2.1-2.1z" fill="#F2E5D1"/><path d="M58.5 122.3c-2.4-12.6 9.7-21.6 19.2-27.2 10.6-6.2 22.7-9.8 32-18.1 3.3-2.9 6.4-6.5 7.2-11 .6-3.3.5-6.8.3-10.2-.4-9.3-1.7-18.7-4.3-27.7-1.8-6.2-4.9-17-12.8-17.6-1.9-.2-1.9 2.8 0 3 2.9.2 4.8 3.3 6.1 5.6 2 3.6 3.2 7.5 4.2 11.4 2.3 8.8 3.6 18 3.8 27 .1 2.8.2 5.9-.5 8.7-1.5 5.7-7.5 10-12.2 13C91.8 85.5 80.6 89 71 95.6c-9.2 6.3-17.8 15.4-15.6 27.4.5 2 3.4 1.2 3.1-.7z" fill="#F2E5D1"/><path d="M46.6 153.1c-4.7-6.2-7.2-13-8.9-20.5-1.4-6.4-3.8-13.1-.7-19.3 2.7-5.7 8.1-9.9 12.8-13.9 4.7-4.1 9.9-7.4 14.8-11.2 4.4-3.4 8.9-6.9 12-11.6 2.7-4.1 2.7-7.6 2.3-12.3-.7-9.7 1.6-19.8 4.8-28.9 2.6-7.3 8-21.2 17.7-20.9 3.3.1 3.3-5 0-5.1-9.3-.3-15.5 8.9-19.1 16.3-4.8 9.8-7.6 20.8-8.3 31.6-.2 2.3-.2 4.6 0 6.9.2 2.2.7 4.2.1 6.4-1.7 5.7-7.8 10-12.2 13.4-5.1 3.9-10.6 7.5-15.4 11.7-4.9 4.2-10.3 8.7-13.4 14.6-3.7 7.2-2 14.1-.4 21.6 1.8 8.7 4.5 16.5 9.8 23.7 1.7 2.6 6.1.1 4.1-2.5z" opacity=".7" fill="#FEFEFE"/><path d="M54.6 132.2c-.1-6.3-3.7-12.5-5.8-18.3-2.4-6.5-1.9-12.9 1.2-19.1 3.3-6.4 8.9-12 15.9-14.2 6.5-2 13.6-2 20.4-2.3 6.8-.3 13.6-.5 20.3-2 5-1.1 10.5-3.2 13.4-7.7 5.5-8.6 2.5-21.6-.3-30.7-1.9-6.1-4.4-12.2-7.7-17.7-2.3-3.9-5.3-8.4-9.5-10.5-2.8-1.3-5.2 2.8-2.4 4.2 3.5 1.7 5.9 5.5 7.8 8.8 2.9 5 5.2 10.3 7 15.8 1.7 5.5 3.1 11.2 3.2 17 .1 3.9-.2 8.7-3 11.7-3.8 4.2-11 5-16.4 5.6-7 .7-14.1.7-21.1 1.2-6.2.4-12.5 1.2-18 4.2-5.7 3.1-10.4 8.1-13.4 13.8-3.3 6.2-4.9 13.7-2.8 20.6 1 3.3 2.4 6.6 3.6 9.8 1.1 3.1 2.8 6.5 2.8 9.8.1 3.1 4.9 3.1 4.8 0z" fill="#FEFEFE"/><path d="M115.8 138.4c-1.7-2.8-3.6-5.9-3.6-9.3 0-4.1 2.8-6.7 5.1-9.7 1.7-2.2 3.2-4.7 3.8-7.4.7-3.2 0-6.3-.4-9.5-.5-3.5-1.2-6.7-2.2-10.1-.8-2.7 0-4.6 1.9-6.5 3.5-3.5 8.3-5.8 11.1-10 4.1-6.1 2.4-14.7.6-21.3-2.7-9.5-7.1-18.6-12.5-26.8-4.4-6.7-10-15-17.8-18.1-2.9-1.1-4.1 3.5-1.3 4.6 6.4 2.5 11.4 10.4 14.9 15.9 5.2 8 9.5 16.8 12.1 26 1 3.7 1.8 7.6 1.6 11.5-.2 3.8-1.8 6.1-4.6 8.6-3.5 3-8.1 5.4-10.2 9.8-.9 1.9-1.2 4-.8 6 .2 1.4.8 2.6 1.2 3.9.6 2.1.9 4.3 1.2 6.5.5 3.8 1.4 7.3-.4 10.9-1.7 3.4-4.8 5.8-6.5 9.2-3.2 6.3-.9 12.6 2.6 18.3 1.7 2.6 5.9.2 4.2-2.5z" fill="#FEFEFE"/><path d="M91.9 160.1c-7.1-1.5-10.6-6.6-11.4-13.6-.4-3.8-.3-7.9.5-11.7.6-3 2.1-5.6 3.4-8.4 2.8-6.5.5-13.1-1.8-19.4-1-2.8-2.2-5.7-2.2-8.7 0-3.8 2.2-7.2 4.5-10.1 5.5-7.1 10.2-14.7 14.3-22.7 5.2-9.9 10.1-20.6 12.2-31.7 1.8-9.5 1-20.6-9.5-24.4-3.1-1.1-4.4 3.8-1.3 4.9 8.6 3.1 6.9 14.5 5.2 21.5-2.7 11.1-7.8 21.6-13.3 31.5-2.3 4.1-4.7 8.2-7.4 12.1-2.8 4.1-6.4 7.8-8.4 12.5-2.6 6.1-.7 11.6 1.4 17.5 1.3 3.5 2.8 7.5 2.5 11.3-.2 2.7-1.7 4.9-2.7 7.3-5.8 12.9-3.6 33.5 12.6 36.8 3.3.9 4.6-4 1.4-4.7z" fill="#FEFEFE"/><path d="M89.7 142.7c-5.9-4.1-10.8-9.6-15-15.4-3.1-4.3-6-8.6-6.9-14-1.4-8 1.5-17.4 5.7-24.3 3.3-5.5 8.8-9.2 13.2-13.7 5.8-5.9 8.5-14 11.5-21.6 3.3-8.7 6.6-17.6 8.1-26.8.9-5.7 1.9-15.7-6-16.4-1.9-.2-1.9 2.8 0 3 11.1 1.1-4.6 38.8-6.7 43.9-1.1 2.7-2.2 5.4-3.4 8-2.7 5.8-7.4 9.6-12 13.8-9.7 8.8-16.3 24-12.7 37.2 1.4 5 4.4 9.3 7.5 13.5 4.4 5.8 9.3 11.2 15.3 15.4 1.5 1 3-1.6 1.4-2.6z" fill="#F2B197"/><path d="M100.4 120.5c1.2-3.7 1-7.9.5-11.7-.3-2.1-.7-4.2-1.5-6.2-.8-2.1-2.1-3.9-2.7-6-3.1-11.5 6-20.8 14.3-27.2 3.2-2.5 6.4-5.1 7.9-8.9 1.3-3.1 1.1-6.3.8-9.6-.8-7.6-2.6-15.1-5.2-22.3-2.3-6.4-5.7-15.1-12.4-17.9-1.7-.7-3.1 1.7-1.4 2.4 6.1 2.6 9.1 10.5 11.1 16.2 2.5 6.9 4.3 14.3 5.1 21.6.4 3.5.5 7-1.4 10.2-2.2 3.5-6 5.9-9.2 8.4-7 5.6-13 13.6-12.9 22.9 0 5 2.8 8.5 4 13.1 1.2 4.4 1.8 9.8.3 14.2-.6 1.8 2.2 2.5 2.7.8z" fill="#F2B197"/><path d="M130.8 16.5c-7-3.9-14.2-5.8-21.9-7.4-16.8-3.6-32.5 2-46.7 11.8-7.3 5-13.3 19.6-7.6 28 0 0 5.2 12.3 34.9 17.5 13 2.3 26.6-1.5 39.4-4.8 7.5-1.9 18.2-7.4 20.5-15 2-6.7-4.5-22.3-18.6-30.1z" fill="#FAFAFA" opacity=".8"/><path d="M130.8 16.5c-7-3.9-14.2-5.8-21.9-7.4-16.8-3.6-32.5 2-46.7 11.8-2.5 1.7-4.8 4.5-6.6 7.8-.2 6.7 2.1 14.6 6 18.5 4.2 4.2 21.8 11.4 47.3 9.3 21.6-1.8 34.7-13.6 37.2-19.5.5-1.1.6-2.4.5-3.8-2.9-6.2-8.3-12.6-15.8-16.7z" fill="#F8F8F8" opacity=".8"/><path d="M147.8 45.3c-1.5-3.8-4.4-6.8-6.7-10.1-3.9-5.6-6.9-11.4-12.4-15.7-4-3.2-8.2-6.2-12.7-8.7-.1-.1-.2-.1-.4-.2-2.2-.6-4.4-1.1-6.7-1.6-5-1.1-9.9-1.3-14.8-.9-1.5.3-3 .7-4.5 1.1-4 1.4-7.3 4.4-10.9 6.5C74.9 18 71 20 67 22c-3.9 1.9-7.7 3.5-10.9 5.9-1.6 2.7-2.8 5.8-3.3 8.9.8-1.6 1.8-3 2.3-3.7 3.8-5.1 11.1-7 16.5-9.8 3-1.6 6-3 8.9-4.7 3-1.7 5.8-4.2 8.9-5.6.9-.4 1.9-.7 2.8-1-4.2 3.3-9.3 5.8-13.2 9.4-6 5.5-11.3 11.2-16.5 17.5-3.2 4-5.3 7.9-5.9 12.7.7.9 1.7 1.9 3.1 3 0-1 .1-2 .2-3 .7-6.4 5.6-11.4 9.6-16.1 4.3-5 9.2-9.7 14.2-13.9 2.7-2.2 5.8-3.9 8.7-5.8-3 4.8-5 11-6.3 14.9-1.8 5.5-3.2 11-5.8 16.2-2.6 5.3-7.2 9.2-10.5 13.9 1 .4 2 .8 3.1 1.2 3.1-4.2 7.3-7.8 9.8-12.5C85 45 86.5 40.2 88 35.4c1.7-5.4 3.5-10.9 6.2-15.8.9-1.7 2.1-3.7 3.7-5.3-3.2 6.2-2.4 15.4-2.1 21.5.6 10.1 2.3 23.5-5.9 30.8 1.3.2 2.7.4 4 .5 5.6-6.7 6.1-16.8 5.5-25.5-.4-5.6-.9-11.3-.5-17 .2-3.6.8-7.8 3.1-10.6 4.8 7.3 2.5 16.9 2.1 25.2-.3 5.2-.5 10.7.9 15.8 1.1 3.9 3.5 7.3 4.9 11.1 1.1-.2 2.2-.4 3.2-.6-1.6-4.3-4.3-8.1-5.3-12.6-1.3-5.6-.7-11.8-.3-17.5.7-8.1 1.5-16.3-2.9-23.2h.3c3.2 1.7 5.8 5.3 7.5 8.1 3.3 5.4 3.7 11 3.8 17.3.2 9.4 1.8 18.3 7.4 25.5 1.2-.3 2.3-.6 3.5-.9-3.3-3.8-5.5-8.3-6.6-13.4-1.4-6.7-.6-13.6-1.6-20.4-.6-3.9-2.6-8.8-5.6-12.9 2.7 2.2 5 4.9 7.1 7.7 4.6 6 4.7 13.5 7.6 20.3 1.1 2.5 2.6 4.5 4.9 6 2.3 1.6 5.3 2.5 7.2 4.6.5.6 1 1.3 1.4 2 .9-.6 1.8-1.3 2.6-2-.1-.2-.3-.5-.4-.7-1.5-2.4-4-3.8-6.4-5.2-4-2.2-5.9-4.7-7.3-9.1-1.2-3.8-1.8-7.7-3.3-11.4-1.3-3.4-3.4-6.2-5.7-9-.3-.3-.5-.6-.8-1 2.4 1.7 4.8 3.4 7.1 5.3 5.2 4.2 8 10.3 11.8 15.6 2.1 2.9 4.5 5.6 5.7 8.9.5 1.5.9 3 1.3 4.5 1-1.1 1.8-2.3 2.4-3.5 0-1.3-.4-2.2-.7-3.2z" fill="#FCFCFC"/><path d="M79.4 38.8c2.4-.2 4.5 0 6 .4-.4-3.2-2.1-12.4-6.8-11.7-4.5.7-4 8.1-3.2 12 1.2-.3 2.5-.5 4-.7z" fill="#E2D4BF"/><path d="M81.4 34.5c-.2-1.4-1.2-2.5-2.3-2.3-.6.1-1 .6-1.3 1.2h.1c.7 0 1.3.6 1.3 1.3 0 .7-.6 1.3-1.3 1.3.4.9 1.2 1.5 2 1.4 1-.1 1.7-1.4 1.5-2.9z" fill="#323A3D"/><path d="M120.9 37.1c2.4-.2 4.7 0 6.1.5.1-4.2-1.3-11.5-5-12-4.6-.5-5.3 7.1-4.9 12.2 1.1-.3 2.4-.6 3.8-.7z" fill="#E2D4BF"/><path d="M121.6 29.9c-.7 0-1.3.6-1.6 1.5.6.1 1.1.6 1.1 1.3 0 .6-.4 1.1-1 1.3.4.8 1 1.3 1.7 1.3 1-.1 1.8-1.3 1.7-2.7 0-1.6-.8-2.7-1.9-2.7zM93.3 48.7c3.3 3.9 12.6 4.5 15.1-.6.5-.9-.9-1.8-1.4-.8-2.1 4.1-9.9 3.3-12.6.3-.7-.8-1.8.4-1.1 1.1z" fill="#323A3D"/><path d="M73 25.5c2.1-2.4 4.5-3.6 7.5-1.8.9.5 1.7-.9.8-1.4-3.5-2.1-6.9-.9-9.4 2.1-.7.8.4 1.9 1.1 1.1zm43.5-1.9c2.1-2.2 4.9-4.2 7.3-1.3.7.8 1.8-.4 1.1-1.1-3-3.6-6.9-1.6-9.6 1.3-.6.7.5 1.8 1.2 1.1z" fill="#F2E5D1"/></g></svg>