<svg xmlns="http://www.w3.org/2000/svg" width="58.298" height="83.38" viewBox="0.524 -3.564 58.298 83.38"><defs><style/></defs><g id="ID0.7413995480164886"><path id="ID0.614277433604002" d="M325.25 347.25c.489-.52.659.02 1.75.75 4.349 2.965 7.402 7.264 13 9-.345 17.988-18.505 18.161-21 34 6.597 8.07 10.662 18.672 19 25 .651 4.318-1.728 5.605-3 8-.155 2.822 2.827 2.507 4 4-2.516 8.15-13.284 8.049-16 16h-1c-6.244-10.422-13.83-19.503-19-31-5.169 5.021-9.975 13.961-9 22-5.064.115-7.079 1.049-9 6-6.876-1.457-9.592-7.075-16-9v-3c7.682-10.651 14.318-22.349 21-34-3.555-8.445-8.05-15.95-16-20 2.705-7.289 5.709-5.959 2-14 4.159-4.174 8.719-7.947 14-11 6.996 5.338 9.625 15.042 17 20 2.119-7.214 5.954-12.358 9-19 2.048-.882 4.205 1.339 6 .5 1.731-.798 1.712-3.349 3.25-4.25zM308 377c-10.532-3.468-10.136-17.864-20-22-.992 4.342-6.466 4.2-8 8 8.332 7.334 15.567 15.767 20 27-5.87 12.464-14.958 21.709-19 36 2.46 1.873 5.54 3.127 8 5 6.076-10.257 8.171-24.496 18-31 6.804 8.529 10.299 20.368 18 28 1.584-3.75 3.032-7.635 8-8-4.981-10.019-12.562-17.438-19-26-.532-16.396 13.495-20.539 21-33-11.529-18.547-16.369 12.43-27 16z" transform="translate(-220.35 -284.75) scale(.8211)"/><path id="ID0.7932597128674388" fill="#FF9400" d="M335 361c-7.505 12.461-21.532 16.604-21 33 6.438 8.562 14.019 15.981 19 26-4.968.365-6.416 4.25-8 8-7.701-7.632-11.196-19.471-18-28-9.829 6.504-11.924 20.743-18 31-2.46-1.873-5.54-3.127-8-5 4.042-14.291 13.13-23.536 19-36-4.433-11.233-11.668-19.666-20-27 1.534-3.8 7.008-3.658 8-8 9.864 4.136 9.468 18.532 20 22 10.631-3.57 15.471-34.547 27-16z" transform="translate(-220.35 -284.75) scale(.8211)"/></g></svg>