<svg width="120" height="120" viewBox="0 0 120 120" xmlns="http://www.w3.org/2000/svg"><g fill="none" fill-rule="evenodd"><path d="M109.502 80.823l.568-17.323h1.86l.568 17.323a3.542 3.542 0 0 1-.323 1.603l-.868 1.87a.332.332 0 0 1-.614 0l-.868-1.87a3.536 3.536 0 0 1-.323-1.603" fill="#74B59D"/><path d="M110.987 63.47l-.567 16.88c-.019.473.081.947.283 1.37l.797 1.673.797-1.673c.201-.423.3-.894.284-1.37l-.568-16.88h-1.026zM109.5 80.45l.002-.135.6-17.815h2.797l.599 17.815a3.986 3.986 0 0 1-.381 1.841l-.892 1.873a.805.805 0 0 1-.725.471.804.804 0 0 1-.725-.472l-.891-1.872a3.976 3.976 0 0 1-.384-1.707z" fill="#833500"/><path d="M109.502 41.177l.567 17.323h1.861l.568-17.323a3.543 3.543 0 0 0-.323-1.603l-.869-1.87a.332.332 0 0 0-.612 0l-.869 1.87a3.543 3.543 0 0 0-.323 1.603" fill="#74B59D"/><path d="M111.5 37.607l-.796 1.673a2.942 2.942 0 0 0-.284 1.37l.567 16.88h1.026l.567-16.88a2.951 2.951 0 0 0-.283-1.37l-.797-1.673zm-2 2.944c0-.591.132-1.179.384-1.707l.891-1.872a.804.804 0 0 1 .725-.472c.308 0 .586.18.725.472l.892 1.872c.27.569.4 1.203.381 1.841l-.6 17.815h-2.797l-.599-17.815a4.153 4.153 0 0 1-.002-.134z" fill="#833500"/><path d="M109.697 66.489l5.462-5.196a1.091 1.091 0 0 0 0-1.586l-5.462-5.196a3.682 3.682 0 0 0-2.537-1.011H92.613c-.614 0-1.113.493-1.113 1.1v11.8c0 .608.499 1.1 1.113 1.1h14.547c.946 0 1.855-.363 2.537-1.011" fill="#F16921"/><path fill="#F0F0F1" d="M97.5 60.5v1h9v-1z"/><path d="M109.238 67.489l5.894-5.197c.49-.432.49-1.152 0-1.585l-5.894-5.196A4.146 4.146 0 0 0 106.5 54.5v14a4.146 4.146 0 0 0 2.738-1.011" fill="#FEFEFE"/><path d="M108.109 55.223v11.555c.451-.12.866-.344 1.21-.654l5.495-4.968a.208.208 0 0 0 .077-.156.21.21 0 0 0-.077-.156l-5.495-4.967a2.93 2.93 0 0 0-1.21-.654zM106.5 68.5v-15h.804c1.156 0 2.254.417 3.092 1.174l5.494 4.967c.387.35.61.846.61 1.36a1.84 1.84 0 0 1-.61 1.358l-5.494 4.967a4.593 4.593 0 0 1-3.092 1.174h-.804z" fill="#833500"/><path d="M114.876 61a.306.306 0 0 0-.097-.224l-5.548-5.214a2.929 2.929 0 0 0-2.014-.793H92.442a.315.315 0 0 0-.318.31V66.92c0 .171.143.311.318.311h14.775c.755 0 1.47-.281 2.014-.793l5.548-5.214a.307.307 0 0 0 .097-.224M90.5 66.92V55.08c0-1.046.871-1.58 1.942-1.58h14.775c1.177 0 2.292.439 3.14 1.236l5.548 4.897c.384.361.595.846.595 1.367 0 .52-.211 1.005-.595 1.367l-5.547 4.897a4.565 4.565 0 0 1-3.141 1.236H92.442c-1.07 0-1.942-.534-1.942-1.58" fill="#833500"/><path fill="#F16921" d="M16.5 65.166v-8.333l55-2.333v13z"/><path d="M18.128 57.301V63.7l52.744 2.15v-10.7L18.128 57.3zM16.5 65.217v-9.434l56-2.283v14l-56-2.283z" fill="#833500"/><path d="M61.5 112.502V8.498c0-2.095 1.558-3.87 3.654-4.162l19.6-2.734C90.959.737 96.5 5.503 96.5 11.703v97.594c0 6.2-5.542 10.967-11.745 10.101l-19.601-2.734c-2.096-.293-3.654-2.067-3.654-4.162" fill="#74B59D"/><path d="M84.5 119.398c6.338.866 12-3.901 12-10.101V11.703c0-6.2-5.662-10.967-12-10.101v117.796z" fill="#6DAA93"/><path d="M93.756 11.701v97.598c0 5.25-4.106 9.471-9.256 10.117 6.355.78 12-3.96 12-10.117V11.701c0-6.156-5.645-10.896-12-10.117 5.15.646 9.256 4.867 9.256 10.117" fill="#97C5B3"/><path fill="#588C79" d="M72.5 3.5l-7.559 1.014-1.496 1.05-.945 1.371V39.5h10zm0 114l-7.559-1.014-1.496-1.05-.945-1.372V81.5h10z"/><path fill="#F0F0F1" d="M67.5 4.5v113h1V4.5z"/><path fill="#F0F0F1" d="M62.5 60.5v1h34v-1z"/><path d="M95.885 11.55a9.456 9.456 0 0 0-3.206-7.108 9.25 9.25 0 0 0-7.413-2.217L66.01 4.968c-1.65.235-2.895 1.682-2.895 3.367v104.33c0 1.685 1.245 3.132 2.895 3.367l19.256 2.743a9.25 9.25 0 0 0 7.413-2.217 9.456 9.456 0 0 0 3.206-7.108v-97.9zM61.5 112.665V8.335c0-2.494 1.842-4.636 4.285-4.984L85.041.608a10.851 10.851 0 0 1 8.697 2.601 11.095 11.095 0 0 1 3.762 8.34v97.901c0 3.201-1.37 6.241-3.762 8.34a10.851 10.851 0 0 1-8.697 2.602l-19.256-2.743c-2.443-.348-4.285-2.49-4.285-4.984z" fill="#833500"/><path d="M4.5 74.855v-7.868c0-.44.152-.866.43-1.203l4.096-4.967a.5.5 0 0 0 0-.634L4.93 55.216a1.892 1.892 0 0 1-.431-1.203v-7.868c0-3.118 2.5-5.645 5.585-5.645h7.607c.998 0 1.808.818 1.808 1.828v36.344c0 1.01-.81 1.828-1.808 1.828h-7.607c-3.084 0-5.585-2.527-5.585-5.645" fill="#74B59D"/><path d="M19.5 78.672V42.328c0-1.01-.842-1.828-1.881-1.828H15.5c1.039 0 1.881.818 1.881 1.828v36.344c0 1.01-.842 1.828-1.881 1.828h2.119c1.039 0 1.881-.818 1.881-1.828" fill="#AAD2C0"/><path d="M9.887 60.5c0 .299-.101.597-.306.841l-4.194 5.013c-.163.194-.252.44-.252.693v7.941c0 2.693 2.2 4.884 4.904 4.884h7.791c.57 0 1.035-.463 1.035-1.031V42.158c0-.568-.464-1.03-1.035-1.03h-7.791c-2.704 0-4.904 2.19-4.904 4.884v7.941c0 .253.09.498.252.693l4.194 5.012c.205.244.306.543.306.842M3.5 74.988v-7.941c0-.633.224-1.25.631-1.735L8.157 60.5l-4.026-4.812a2.706 2.706 0 0 1-.631-1.735v-7.941c0-3.59 2.933-6.512 6.539-6.512h7.791a2.668 2.668 0 0 1 2.67 2.658v36.683a2.668 2.668 0 0 1-2.67 2.659h-7.791c-3.606 0-6.539-2.921-6.539-6.512" fill="#833500"/><path fill="#F0F0F1" d="M66.5 23.5v1h5v-1zm0 74v1h5v-1zm-4-52v1h6v-1zm0 30v1h6v-1zm-42-15v1h41v-1zm-10-19v39h1v-39zm1 12v1h7v-1zm0 14v1h7v-1z"/></g></svg>