<svg width="120" height="120" viewBox="0 0 120 120" xmlns="http://www.w3.org/2000/svg" xmlns:xlink="http://www.w3.org/1999/xlink"><defs><path id="a" d="M.258.873H5.65V4H.258z"/><path id="c" d="M0 0h74.687v59.755H0z"/></defs><g fill="none" fill-rule="evenodd"><path d="M59.903 118.335a.48.48 0 0 1-.454-.327c-.788-2.36-1.125-9.365-1.14-9.662a.476.476 0 0 1 .455-.499c.255-.03.489.191.5.454.004.071.345 7.17 1.092 9.404a.48.48 0 0 1-.453.63" fill="#434040"/><g transform="translate(55 116)"><mask id="b" fill="#fff"><use xlink:href="#a"/></mask><path d="M3.727.873C2.713.873 1.388 1.19.71 1.9c-.314.33-.47.724-.45 1.14.01.29.184.96 1.504.96 1.118 0 2.796-.48 3.51-1.199.25-.254.377-.527.375-.813C5.646 1.29 4.927.873 3.727.873" fill="#434040" mask="url(#b)"/></g><path d="M45.334 117.763a.479.479 0 0 1-.478-.463c-.079-2.486 1.606-9.294 1.678-9.583a.48.48 0 0 1 .58-.35.48.48 0 0 1 .348.582c-.018.069-1.726 6.965-1.649 9.322a.48.48 0 0 1-.463.492h-.016z" fill="#434040"/><path d="M42.898 115.773c-1.286 0-2.143.479-2.352 1.313a.882.882 0 0 0 .17.769c.604.775 2.4.815 2.754.815.673 0 2.266-.102 2.541-1.043.083-.278.023-.572-.168-.826-.5-.668-1.89-1.028-2.945-1.028m11.591-62.997c-3.796 0-9.133-1.627-13.52-9.154a.48.48 0 0 1 .826-.483c7.235 12.412 16.763 8.025 17.166 7.831a.479.479 0 0 1 .415.863c-.045.02-2.03.944-4.887.944" fill="#434040"/><path d="M42.877 40.97c.646.244.022 2.389-1.054 2.997-1.075.61-3.85-.833-3.57-1.436.28-.604 1.891.549 1.891.549s-1.217-2.022-.852-2.318c.366-.296 1.657 1.393 1.657 1.393s-.439-1.907.07-2.108c.508-.2.8 2.348.8 2.348s.493-1.636 1.058-1.424" fill="#434040"/><path d="M92.261 15.878c.038 1.434 0 2.964-.115 4.57-1.014.305-7.027 1.758-11.47-4.722-4.686-6.807.42-14.043.42-14.043l.01-.057c1.72.401 3.24.86 4.52 1.376-.219.497-2.428 5.937.01 9.32 2.867 3.987 6.224 3.614 6.625 3.556" fill="#F48EB8"/><path d="M92.261 15.878c-.4.058-3.758.431-6.626-3.556-2.437-3.383-.228-8.823-.009-9.32 1.118.46 2.056.966 2.773 1.52 2.571 1.98 3.727 6.013 3.862 11.356" fill="#277EA5"/><path d="M92.146 20.447a74.961 74.961 0 0 1-.459 4.761c-5.152 4.206-16.91-.813-19.529-10.477C70.045 6.922 74.471 1.33 75.083.622c2.188.258 4.215.593 6.022 1.004l-.01.056s-5.104 7.237-.42 14.043c4.445 6.481 10.457 5.028 11.471 4.722" fill="#FFE444"/><g transform="translate(17)"><mask id="d" fill="#fff"><use xlink:href="#c"/></mask><path d="M74.687 25.208a89.01 89.01 0 0 1-.517 3.585l-.142-.02s-16.672-2.198-22.627 10c-3.872 7.924-2.563 14.768.315 20.083l-2.543.9c-2.657-6.07-8.469-9.016-9.358-9.445 2.17-6.578 3.393-11.51 2.437-13.03-2.179-3.46-25.532 1.491-34.68-1.912S-1.997 17.073 3.96 11.33C14.263 1.395 41.05-1.415 58.082.621c-.61.707-5.037 6.3-2.924 14.11 2.62 9.664 14.377 14.682 19.53 10.476" fill="#75D2DB" mask="url(#d)"/></g><path d="M91.028 28.774l.143.02a129.926 129.926 0 0 1-.87 4.875c-.46-.086-15.496-2.64-18.287 11.059-2.332 11.48 9.788 19.358 9.788 19.358l.269.085a603.224 603.224 0 0 1-2.18 6.596c-1.224-.803-7.494-5.095-11.175-11.91-2.877-5.315-4.187-12.16-.315-20.084 5.955-12.197 22.627-10 22.627-10" fill="#A8C742"/><path d="M90.301 33.668a243.407 243.407 0 0 1-1.253 5.803l-.229-.058s-9.005-2.772-10.706 7.227c-1.042 6.136 5.601 11.06 5.601 11.06l.345.105a485.532 485.532 0 0 1-1.988 6.366l-.269-.086s-12.12-7.877-9.788-19.357c2.791-13.699 17.828-11.146 18.287-11.06" fill="#FFE444"/><path d="M88.819 39.413l.229.058c-1.395 5.963-3.125 12.207-4.99 18.334l-.343-.106s-6.644-4.923-5.601-11.059c1.7-9.999 10.705-7.227 10.705-7.227" fill="#F48EB8"/><path d="M79.891 70.767a618.425 618.425 0 0 1-6.022 16.985l-.154-.057c-5.104-2.973-12.656-2.524-16.374-1.061-10.763 4.225-13.364 16.422-13.765 18.755-.172-.153-.335-.307-.498-.46-2.59-2.522-1.166-10.42 1.711-19.997 0 0 16.585.42 21.06-10.848 2.37-5.974 1.901-10.706.324-14.33l2.543-.897c3.681 6.815 9.95 11.107 11.175 11.91" fill="#75D2DB"/><path d="M73.715 87.695l.153.058c-.525 1.422-1.032 2.761-1.49 3.996l-.574-.221c-18.689-5.373-23.258 14.166-23.783 16.737a17.028 17.028 0 0 1-4.446-2.877c.402-2.333 3.002-14.53 13.766-18.755 3.718-1.462 11.27-1.911 16.374 1.062" fill="#277EA5"/><path d="M71.804 91.528l.573.22c-.955 2.523-1.768 4.635-2.36 6.215l-.125-.05c-13.89-2.743-15.19 9.799-15.314 11.844a16.825 16.825 0 0 1-6.557-1.492c.525-2.57 5.095-22.11 23.783-16.737" fill="#FFE444"/><path d="M69.892 97.913l.124.05c-.21.543-.4 1.02-.555 1.432-2.76 7.303-8.813 10.505-14.882 10.362.124-2.046 1.423-14.588 15.313-11.844" fill="#A8C742"/><path d="M66.173 59.755c1.577 3.623 2.046 8.354-.324 14.329-4.475 11.269-21.06 10.848-21.06 10.848.593-1.95 1.243-3.966 1.922-6.021l.2.068s12.485.707 14.894-9.369c2.41-10.065-6.243-15.6-6.243-15.6.44-1.28.861-2.524 1.253-3.699.888.429 6.701 3.374 9.358 9.444" fill="#F48EB8"/><path d="M55.562 54.01s8.652 5.535 6.243 15.6c-2.409 10.076-14.893 9.369-14.893 9.369l-.201-.068c.717-2.131 1.472-4.31 2.247-6.49l.085.028s7.371.575 8.652-4.674c1.425-5.85-3.833-8.794-3.833-8.794l-.058-.02c.612-1.71 1.204-3.364 1.758-4.951" fill="#277EA5"/><path d="M53.862 58.98s5.258 2.945 3.833 8.795c-1.281 5.249-8.651 4.675-8.651 4.675l-.086-.03c1.606-4.568 3.298-9.166 4.846-13.458l.058.019z" fill="#FFE444"/><path d="M35.503 16.503a2.56 2.56 0 1 0-5.12 0 2.56 2.56 0 0 0 5.12 0m26.767-3.106a2.56 2.56 0 1 0-5.12 0 2.56 2.56 0 0 0 5.12 0" fill="#434040"/><path d="M37.127 16.646c-1.556 2.98 2.554 5.886 10.353 5.177 7.802-.71 8.51-4.971 7.518-6.524-1.383-2.164-3.723.284-9.042.816-4.599.459-7.553-1.915-8.83.53" fill="#FFF"/><path d="M35.53 25.687a4.997 4.997 0 0 0-4.997-5 5 5 0 0 0-5 5 5 5 0 1 0 9.998 0m32.481-2.304a5 5 0 1 0-10 .001 5 5 0 0 0 10-.001" fill="#F48EB8"/><path d="M37.2 17.322s1.079.402 2.78.716c.848.167 1.849.291 2.923.376a22.95 22.95 0 0 0 1.66.07c.562.01 1.15-.019 1.705-.042a22.252 22.252 0 0 0 1.713-.166 16.523 16.523 0 0 0 1.623-.3 17.62 17.62 0 0 0 1.493-.405 13.77 13.77 0 0 0 1.3-.476 14.484 14.484 0 0 0 1.86-.917c.429-.256.646-.429.646-.429a.19.19 0 0 1 .266.027.192.192 0 0 1-.02.26s-.902.817-2.522 1.577c-.404.19-.85.376-1.33.546-.48.175-.993.342-1.536.468-.54.138-1.102.245-1.685.335-.59.094-1.17.144-1.748.192-1.201.063-2.372.03-3.481-.068a21.45 21.45 0 0 1-2.986-.49c-1.726-.412-2.807-.925-2.807-.925a.19.19 0 0 1 .147-.349m45.261 33.374c-.924 0-1.489-.089-1.517-.094a.477.477 0 0 1-.39-.55.476.476 0 0 1 .551-.392c.53.092 13.037 1.997 17.259-14.785a.479.479 0 0 1 .928.233C95.732 49.26 86.186 50.696 82.462 50.696" fill="#434040"/><path d="M96.306 32.715c-.663.494.77 2.754 2.207 3.1 1.441.344 4.155-2.241 3.633-2.841-.522-.601-1.99 1.26-1.99 1.26s.725-2.731.206-2.95c-.519-.218-1.445 2.154-1.445 2.154s-.129-2.34-.78-2.402c-.652-.061-.14 2.966-.14 2.966s-1.11-1.719-1.69-1.287m-59.18-16.069s.04.72.318 1l-.597.916s-.24-1.243.279-1.916m17.674-1.642s.063.719-.174 1.034l.722.822s.06-1.263-.548-1.856" fill="#434040"/></g></svg>