<svg width="120" height="120" viewBox="0 0 120 120" xmlns="http://www.w3.org/2000/svg"><g fill="none" fill-rule="evenodd"><path fill="#B1B2B2" d="M75.07 67.22H11.863V34.132H75.07z"/><path fill="#E4E4E4" d="M73.49 65.63H13.475V35.723H73.49z"/><path d="M75.07 67.22v11.957H36.145c.033-.298.033-.563.033-.861 0-4.935-3.85-8.91-8.588-8.91-4.738 0-8.587 4.008-8.587 8.91 0 .298 0 .596.032.861h-6.712v-11.36c0-.332.263-.597.592-.597H75.07z" fill="#4660AD"/><path d="M27.59 69.406c-4.738 0-8.587 4.008-8.587 8.91 0 .298 0 .596.032.861h17.11c.033-.298.033-.563.033-.861 0-4.902-3.85-8.91-8.588-8.91z" fill="#343536"/><path d="M12.323 74.739v4.471h6.712c-.032-.298-.032-.563-.032-.861 0-1.292.263-2.484.723-3.577h-7.403v-.033zm62.747 0H35.454a9.256 9.256 0 0 1 .724 3.577c0 .298 0 .596-.033.861H75.07V74.74z" fill="#4159A1"/><path d="M81.617 79.177l-6.547.033V41.121c1.974-.033 6.876-.033 8.785.331 2.237.43 13.424 16.163 14.082 16.428.691.265 7.206 3.312 10.2 5.565V79.11h-8.883c.032-.265.032-.53.032-.795 0-4.935-3.98-8.91-8.85-8.91-4.87 0-8.851 4.008-8.851 8.91 0 .298 0 .596.032.861z" fill="#4660AD"/><path d="M99.254 79.078c.032-.265.032-.53.032-.795 0-4.935-3.98-8.91-8.85-8.91-4.87 0-8.851 4.008-8.851 8.91 0 .298 0 .563.032.86l18.262.034v-.066l-.625-.033z" fill="#343536"/><path d="M77.34 58.609l-.033 14.275c0 .762.592 1.358 1.35 1.358h1.02c.526 0 .986-.298 1.217-.762 2.763-5.63 7.14-6.425 11.943-5.597.823.132 1.613-.497 1.58-1.358l-.033-7.883h-17.67.626v-.033z" fill="#3C5292"/><path d="M86.553 43.804c3.52 3.875 9.048 11.393 10.825 13.513.099.133.033.331-.164.331-.23 0-.461 0-.56.034a.25.25 0 0 1-.164-.067l-10.53-13.48c-.098-.132 0-.331.165-.331h.428zm8.16 13.248l-10.43-12.884a.981.981 0 0 0-.757-.364h-5.857a.958.958 0 0 0-.954.96v12.884c0 .53.428.96.954.96h16.287a.958.958 0 0 0 .757-1.556zm12.24 13.978c.329 0 .329-6.128-.066-6.128h-.526c-1.843.1-1.613 6.127.592 6.127z" fill="#E4E4E4"/><path d="M102.248 72.155h6.91c.987 0 1.81.828 1.81 1.822v3.312c0 .994-.823 1.822-1.81 1.822h-6.91c-.987 0-1.81-.828-1.81-1.822v-3.312c-.033-.994.79-1.822 1.81-1.822z" fill="#CED0D1"/><path d="M34.335 81.462a7.266 7.266 0 0 1-9.706 3.511c-3.652-1.722-5.199-6.094-3.488-9.77a7.266 7.266 0 0 1 9.707-3.511 7.327 7.327 0 0 1 3.487 9.77zm-8.456.862a4.4 4.4 0 0 0 5.857-2.12c1.02-2.22.099-4.836-2.106-5.896a4.4 4.4 0 0 0-5.856 2.12c-1.02 2.22-.066 4.869 2.105 5.896z" fill="#434344"/><path d="M32.394 80.535c-1.217 2.583-4.277 3.676-6.81 2.451-2.567-1.225-3.653-4.306-2.436-6.856a5.117 5.117 0 0 1 6.844-2.451c2.534 1.192 3.62 4.273 2.402 6.856z" fill="#E5E5E6"/><path d="M29.96 79.376a2.384 2.384 0 0 1-3.225 1.159 2.413 2.413 0 0 1-1.152-3.246 2.384 2.384 0 0 1 3.225-1.16c1.184.564 1.71 2.021 1.151 3.247z" fill="#4660AD"/><path d="M96.687 81.462a7.266 7.266 0 0 1-9.706 3.511c-3.653-1.722-5.2-6.094-3.488-9.77a7.266 7.266 0 0 1 9.706-3.511c3.653 1.722 5.2 6.094 3.488 9.77zm-8.456.862a4.4 4.4 0 0 0 5.857-2.12c1.02-2.22.098-4.836-2.106-5.896a4.4 4.4 0 0 0-5.857 2.12c-1.02 2.22-.099 4.869 2.106 5.896z" fill="#434344"/><path d="M94.746 80.535c-1.218 2.583-4.278 3.676-6.811 2.451-2.567-1.225-3.652-4.306-2.435-6.856a5.117 5.117 0 0 1 6.844-2.451c2.5 1.192 3.586 4.273 2.402 6.856z" fill="#E5E5E6"/><path d="M92.278 79.376a2.384 2.384 0 0 1-3.224 1.159 2.413 2.413 0 0 1-1.152-3.246 2.384 2.384 0 0 1 3.224-1.16 2.413 2.413 0 0 1 1.152 3.247z" fill="#4660AD"/><path d="M11.303 72.155h3.751c.691 0 1.25.563 1.25 1.259v4.273c0 .86-.69 1.523-1.513 1.523h-3.488a1.987 1.987 0 0 1-1.974-1.987v-3.047c-.033-1.126.888-2.02 1.974-2.02z" fill="#CED0D1"/><path d="M101.59 65.63h1.118a.33.33 0 0 1 .33.332v2.086a.33.33 0 0 1-.33.332h-1.118a.33.33 0 0 1-.33-.332v-2.086c-.032-.166.132-.331.33-.331z" fill="#E4E4E4"/></g></svg>