<svg width="120" height="120" viewBox="0 0 120 120" xmlns="http://www.w3.org/2000/svg"><g fill="none" fill-rule="evenodd"><path d="M77.24 35.623c.008-.054.033-.107.039-.16l.001-.009c.004-.066.008-.13.008-.196 0-3.573-9.32-8.553-24.501-8.553-15.178 0-24.499 4.98-24.499 8.553 0 .06.001.118.008.19l.001.011c.006.055.032.11.04.164h-2.09l6.42 75.69c.366 4.31 9.235 7.764 20.12 7.764 10.888 0 19.754-3.454 20.121-7.764l6.42-75.69H77.24z" fill="#F1F1F1"/><path d="M77.28 35.454v.009c-.352 3.948-10.488 8.346-24.493 8.346-14.001 0-24.137-4.398-24.49-8.349v-.01a2.072 2.072 0 0 1-.01-.193c0-3.572 9.322-8.553 24.5-8.553 15.18 0 24.501 4.98 24.501 8.553 0 .066-.004.132-.008.197M52.787 24.65c-14.666 0-26.554 4.749-26.554 10.606 0 .122.006.244.014.365.484 5.688 12.18 10.241 26.54 10.241s26.059-4.553 26.542-10.24c.01-.122.015-.244.015-.366 0-5.857-11.889-10.606-26.557-10.606" fill="#FFF"/><path d="M30.676 62.98l3.657 40.343c0 .001 0 .006.002.01.25 2.982 7.891 6.3 18.452 6.3 10.551 0 18.19-3.314 18.455-6.288l.001-.008-.001.008 3.604-40.376-44.17.01z" fill="#FF6057"/><path d="M30.676 62.98c-.035 4.073 9.7 7.332 21.94 7.344 12.244.012 22.195-3.28 22.23-7.355.037-4.075-9.86-7.386-22.1-7.4-12.243-.011-22.035 3.337-22.07 7.41" fill="#F87774"/><path d="M35.998 47.716l5.14 65.004" stroke="#FFF" stroke-width="4.38" stroke-linecap="round"/><path d="M92.463.791L72.198 13.255c-1.445.896-2.312 2.31-2.46 4.13l-7.212 88.793 2.416.197 7.21-88.794c.08-.968.543-1.799 1.317-2.266L93.735 2.851 92.463.791z" fill="#1C1C1B"/></g></svg>