<svg width="120" height="120" viewBox="0 0 120 120" xmlns="http://www.w3.org/2000/svg"><g fill="none" fill-rule="evenodd"><path d="M68.881 48.293l.375-3.383h-.132l-.375 3.383h.132zm-1.511 0h.132V44.91h-.132v3.383zm-1.38 0l-.375-3.383h.132l.375 3.383h-.132z" fill="#998675"/><path d="M77.526 21.11c1.537 2.804 1.69 6.486.52 10.001-2.397 7.206-8.515 12.391-10.61 12.391-2.095 0-8.214-5.185-10.612-12.391-1.144-3.441-1.024-7.052.424-9.837 1.268-2.44 4.76-5.4 7.74-5.08.707.076 1.667.1 2.421.356.618-.273 1.5-.284 2.098-.394 2.87-.525 6.745 2.63 8.019 4.954" fill="#D64752"/><path d="M69.013 48.293c.011.113.017.229.017.347 0 .902-.331 1.688-.82 2.098h-1.548c-.49-.41-.82-1.196-.82-2.098 0-.118.006-.234.017-.347h3.154z" fill="#998675"/><path d="M73.95 18.473c2.944 2.804 3.721 7.818 2.377 12.638-2.009 7.206-7.135 12.39-8.891 12.39-1.755 0-6.883-5.184-8.892-12.39-1.326-4.757-.596-9.736 2.256-12.547 1.358-1.338 3.15-2.671 5.169-2.325.438.076 1.04.084 1.48.246.396-.225.925-.235 1.38-.311 1.87-.317 3.967 1.2 5.12 2.299" fill="#D64752"/><path d="M72.506 19.095c1.705 2.873 2.088 7.568 1.213 12.016-1.42 7.206-5.043 12.391-6.283 12.391-1.24 0-4.863-5.185-6.283-12.391-.886-4.499-.482-9.24 1.273-12.104.995-1.624 2.87-3.138 4.568-2.757.14.031.28.089.425.163.12-.084.25-.145.386-.188 1.74-.553 3.787 1.33 4.701 2.87" fill="#FAF5DC"/><path d="M68.642 16.84c1.527 1.985 2.025 8.263 1.513 14.27-.614 7.207-2.182 12.392-2.72 12.392-.536 0-2.104-5.185-2.718-12.391-.513-6.012-.023-12.404 1.517-14.276.72-.875 1.752-.847 2.408.005" fill="#FAF5DC"/><path fill="#FECD8A" d="M73.58 38.965l-3.968 5.071H65.26l-3.969-5.071z"/><path fill="#998675" d="M65.38 45.093h4.112v-1.057H65.38z"/><path d="M31.906 34.808v-13.71" stroke="#4D4D4D" stroke-width=".5"/><path fill="#D64752" d="M44.03 26.651H32.072v-5.57h11.96l-3.428 2.786z"/><path d="M63.29 103.651H0S2.015 93.227 2.015 84.56C2.015 76.487 0 65.468 0 65.468h63.29s-1.877 11.718-1.877 19.092c0 7.098 1.876 19.091 1.876 19.091" fill="#E5B120"/><path d="M62.686 103.913H.366S2.35 94.307 2.35 86.32c0-7.439-1.983-17.592-1.983-17.592h62.319s-1.848 10.797-1.848 17.592c0 6.54 1.848 17.592 1.848 17.592" fill="#000" opacity=".118"/><path d="M37.566 103.651c.384-14.646-5.47-29.813-5.47-29.813h-.087s-5.854 15.167-5.47 29.813" fill="#C69B32"/><path d="M32.096 73.838s-8.926 14.907-21.06 13.46c0 0 2.48 10.04 15.502 16.353 0 0-.507-14.51 5.558-29.813" fill="#EFC12E"/><path d="M32.03 73.838s8.928 14.907 21.061 13.46c0 0-2.481 10.04-15.502 16.353 0 0 .544-13.772-5.558-29.813M31.906 34.6v-.145l-.048.072-.046-.072v.14C30.586 36.412 17.425 55.512 0 65.469c0 3.01 2.47 5.45 5.518 5.45a5.511 5.511 0 0 0 5.254-3.788 5.512 5.512 0 0 0 5.254 3.789 5.51 5.51 0 0 0 5.254-3.79 5.512 5.512 0 0 0 5.255 3.79 5.511 5.511 0 0 0 5.254-3.79 5.511 5.511 0 0 0 5.254 3.79 5.512 5.512 0 0 0 5.256-3.79 5.511 5.511 0 0 0 5.254 3.79c3.047 0 5.517-2.44 5.517-5.451 0 2.774 2.277 5.023 5.084 5.023 2.808 0 5.084-2.249 5.084-5.023h.051C45.876 55.518 33.111 36.439 31.906 34.6" fill="#EFC12E"/><path d="M70.223 80.93c-.092-.025-.356.042-.325-.036l.101-.26.16.011s.156.309.064.284" fill="#CED8D8"/><path d="M69.816 80.882c-.511 3.91.632 7.471 1.737 11.166.528 1.764.949 3.554 1.077 5.395.167 2.39-.263 4.763-1.028 7.021-.014.042.113.049.125.015.726-2.143 1.127-4.352 1.054-6.619-.062-1.917-.508-3.795-1.044-5.628-1.102-3.768-2.313-7.363-1.791-11.35.004-.035-.124-.041-.13 0" fill="#102F41"/><path d="M70.002 81.006c-.091-.024-.352.042-.322-.034l.1-.257.158.01s.155.306.064.281" fill="#838BC5"/><path d="M70.66 72.829a3.22 3.22 0 0 0-2.38.698 3.226 3.226 0 0 0-1.187 2.177c-.287 2.685 1.965 4.943 2.72 5.024.778.083 3.428-1.597 3.722-4.334a3.218 3.218 0 0 0-.7-2.378 3.22 3.22 0 0 0-2.176-1.187" fill="#838BC5"/><path d="M73.1 76.107c-.003-.385-.02-.605-.124-.957-.08.12-.197.112-.288.223.06.22.032.483.054.72a3.995 3.995 0 0 1-1.19 3.224c.918-.741 1.559-1.938 1.548-3.21" fill="#FFF"/><path d="M73.77 87.542c-.09-.03-.356.018-.32-.056l.118-.251.157.02s.135.318.045.287" fill="#CED8D8"/><path d="M73.315 87.457c0 .999.038 1.997.09 2.993.107 2.018.524 3.995.652 6.003.175 2.771-.671 6-2.494 8.166-.042.05.082.074.112.038 1.66-1.972 2.435-4.75 2.524-7.277.075-2.137-.494-4.3-.635-6.436a52.562 52.562 0 0 1-.12-3.657c0-.052-.13.114-.13.17" fill="#102F41"/><path d="M73.55 87.577c-.09-.03-.354.019-.32-.055l.118-.25.156.021s.135.315.046.284" fill="#53BABC"/><path d="M74.756 79.463a3.22 3.22 0 0 0-2.42.537 3.223 3.223 0 0 0-1.331 2.092c-.467 2.659 1.628 5.063 2.375 5.195.771.135 3.528-1.362 4.004-4.074a3.218 3.218 0 0 0-.537-2.42 3.218 3.218 0 0 0-2.091-1.33" fill="#53BABC"/><path d="M77.042 83.17c.06-.382.08-.602.036-.966-.1.106-.213.078-.322.172.023.228-.048.482-.064.719a3.999 3.999 0 0 1-1.708 2.983c1.028-.58 1.858-1.654 2.058-2.909" fill="#FFF"/><path d="M84.228 57.12c-.091-.025-.352.042-.322-.035l.1-.256.158.01s.155.305.064.28" fill="#CED8D8"/><path d="M84.885 48.942a3.218 3.218 0 0 0-2.378.699 3.224 3.224 0 0 0-1.187 2.176c-.288 2.685 1.964 4.943 2.719 5.024.778.084 3.428-1.596 3.722-4.334a3.216 3.216 0 0 0-.7-2.377 3.218 3.218 0 0 0-2.176-1.188" fill="#CED8D8"/><path d="M83.928 55.22c-.216 2.391-.122 4.732.007 7.123.158 2.892-.113 5.706-.64 8.555-.018.097.13.138.148.041.506-2.735.798-5.461.664-8.245-.12-2.51-.252-4.963-.026-7.474.01-.099-.144-.098-.153 0" fill="#102F41"/><path d="M84.011 57.12c-.09-.025-.351.042-.321-.035l.1-.256.158.01s.154.305.063.28" fill="#65C8D0"/><path d="M84.67 48.942a3.218 3.218 0 0 0-2.38.699 3.224 3.224 0 0 0-1.186 2.176c-.288 2.685 1.965 4.943 2.718 5.024.78.084 3.429-1.596 3.723-4.334a3.216 3.216 0 0 0-.7-2.377 3.218 3.218 0 0 0-2.176-1.188" fill="#65C8D0"/><path d="M86.864 52.882c.06-.38.08-.601.036-.965-.1.105-.213.078-.321.172.021.228-.049.482-.066.719a3.998 3.998 0 0 1-1.707 2.983c1.028-.58 1.858-1.654 2.058-2.91" fill="#FFF"/><path d="M75.762 94.155c-.074-.06-.342-.102-.283-.16l.195-.198.142.073s.02.344-.054.285" fill="#CED8D8"/><path d="M75.34 93.781c-.788 3.803-2.723 7.134-3.783 10.846-.017.059.11.072.125.022 1.079-3.778 3.06-7.164 3.824-11.049.01-.051-.153.121-.166.181" fill="#102F41"/><path d="M75.524 93.956c-.074-.06-.339-.106-.28-.163.06-.057.197-.193.197-.193l.139.074s.017.342-.056.282" fill="#838BC5"/><path d="M79.472 86.765a3.218 3.218 0 0 0-2.456-.336 3.222 3.222 0 0 0-1.975 1.5c-1.361 2.33-.23 5.313.424 5.696.677.395 3.782-.053 5.17-2.43.436-.747.556-1.62.335-2.456a3.214 3.214 0 0 0-1.498-1.974" fill="#838BC5"/><path d="M80.182 91.089c.188-.336.283-.536.367-.893-.13.064-.227 0-.36.05-.059.222-.213.436-.31.652a3.996 3.996 0 0 1-2.634 2.209c1.164-.189 2.315-.91 2.937-2.018" fill="#FFF"/><path d="M70.413 93.66c-.094-.001-.33.127-.32.046l.034-.274.155-.028s.225.257.131.256" fill="#CED8D8"/><path d="M70.032 93.394c-.67 2.035-.834 3.967.26 5.867.393.684.844 1.327 1.14 2.065.402 1.008.367 2.097.168 3.145-.011.058.117.061.13 0 .349-1.843-.09-3.245-1.051-4.8-.434-.7-.808-1.408-.99-2.219-.284-1.267.011-2.603.398-3.821.023-.072-.037-.292-.055-.237" fill="#102F41"/><path d="M70.226 93.662c-.094-.001-.33.128-.32.047l.033-.274.155-.03s.226.258.132.257" fill="#65C8D0"/><path d="M68.822 85.579a3.216 3.216 0 0 0-2.129 1.27 3.222 3.222 0 0 0-.606 2.404c.392 2.67 3.136 4.296 3.887 4.186.774-.114 2.921-2.402 2.522-5.126a3.216 3.216 0 0 0-1.27-2.128 3.219 3.219 0 0 0-2.404-.606" fill="#65C8D0"/><path d="M72.17 88.897c-.01-.385-.03-.605-.14-.955-.078.122-.195.115-.284.227.062.22.04.483.066.719a3.994 3.994 0 0 1-1.138 3.243c.906-.756 1.527-1.963 1.496-3.234" fill="#FFF"/><path fill="#666" d="M70.494 104.732h3.022v-1.198h-3.022z"/><path fill="#D64752" d="M90.65 93.856h22.138V61.095H90.65z"/><path fill="#FFF" d="M91.84 87.956h19.856V64.768H91.841z"/><path d="M101.255 78.145a.67.67 0 1 1-1.34 0 .67.67 0 0 1 1.34 0" fill="#F9F9F9"/><path fill="#333" d="M89.31 61.095h24.819l-1.986-3.972H91.096z"/><path fill="#D64752" d="M111.696 103.793h1.092v-9.937h-1.092zm-3.053 0h1.117v-9.937h-1.117zM90.65 95.875h1.19v-2.019h-1.19z"/><path fill="#FFCE85" d="M90.65 87.956h1.19V61.095h-1.19zm20.997 0h1.19V61.095h-1.19z"/><path fill="#D64752" d="M112.676 83.051h7.19l-1.442 3.13-5.748 2.08"/><path d="M110.487 77.181a.922.922 0 0 0-.727-.361.903.903 0 0 0-.321.062.928.928 0 0 0-.795-.46.935.935 0 0 0-.864.593.67.67 0 0 0-.626-.445.67.67 0 0 0-.638.488.916.916 0 0 0-.611-.238.91.91 0 0 0-.46.128.934.934 0 0 0-.88-.649.933.933 0 0 0-.85.562.655.655 0 0 0-.434-.168.653.653 0 0 0-.41.147 1.178 1.178 0 0 0-1.102-.79c-.652 0-1.18.54-1.18 1.206 0 .086.01.168.026.25h-.03a.946.946 0 0 0-.935-.957.91.91 0 0 0-.458.128.94.94 0 0 0-.921-.813.941.941 0 0 0-.93.912.648.648 0 0 0-.77.103.928.928 0 0 0-.793-.457.919.919 0 0 0-.35.07.666.666 0 0 0-.585-.358.635.635 0 0 0-.15.02c-.2-.374-.583-.63-1.03-.63-.65 0-1.179.54-1.179 1.206 0 .05.01.098.015.146a.87.87 0 0 0-.658-.306v10.97h19.806V76.172c-.585 0-1.068.437-1.16 1.009" fill="#EFE8CE"/><path d="M110.487 77.829a.929.929 0 0 0-.727-.354.925.925 0 0 0-.321.06.933.933 0 0 0-1.66.13.67.67 0 0 0-.625-.434.668.668 0 0 0-.638.477.928.928 0 0 0-.611-.233.925.925 0 0 0-.46.125.932.932 0 0 0-1.73-.085.663.663 0 0 0-.844-.02 1.176 1.176 0 0 0-2.256.65h-.03a.935.935 0 0 0-.935-.934.925.925 0 0 0-.458.124.932.932 0 0 0-1.851.097.658.658 0 0 0-.77.101.932.932 0 0 0-1.142-.378.668.668 0 0 0-.735-.331 1.175 1.175 0 0 0-2.21.564c0 .049.01.095.015.143a.878.878 0 0 0-.658-.3v10.725h19.806V76.842c-.585 0-1.068.427-1.16.987" fill="#FAF5DC"/><path fill="#F2F4F4" d="M91.791 87.956h19.856V64.768H91.79z"/><path d="M83.37 95.874a7.918 7.918 0 1 1 15.836 0 7.919 7.919 0 1 1-15.837 0z" stroke="#333" stroke-width=".682"/><path d="M90.215 95.874a1.072 1.072 0 1 1 2.145 0 1.072 1.072 0 0 1-2.145 0" fill="#333"/><path d="M91.287 87.956v15.837m-7.917-7.919h15.836m-13.267-5.838l10.746 11.63m0-11.63l-10.746 11.63" stroke="#333" stroke-width=".5"/></g></svg>