<svg width="480" height="360" viewBox="0 0 480 360" xmlns="http://www.w3.org/2000/svg" xmlns:xlink="http://www.w3.org/1999/xlink" style="background:#fff"><defs><path id="a" d="M.335 477.926h478.67V.213H.335z"/><path d="M23.963 7.494a9.1 9.1 0 0 0-1.313-.107 9 9 0 0 0-9.001 9.002c0 1.094.205 2.138.562 3.109C6.761 20.374.98 26.706.98 34.392c0 7.783 5.927 14.181 13.514 14.927.139 4.022 3.432 7.243 7.489 7.243a7.451 7.451 0 0 0 3.047-.652 9 9 0 0 0 8.288 5.485c4.086 0 7.533-2.726 8.63-6.457a8.96 8.96 0 0 0 5.371 1.79 9 9 0 0 0 9.002-9.002 8.973 8.973 0 0 0-2.97-6.668c4.188-2.66 6.97-7.337 6.97-12.668 0-8.05-6.343-14.619-14.305-14.985a11.5 11.5 0 0 0 .136-1.683c0-6.352-5.149-11.501-11.5-11.501-4.857 0-9.005 3.015-10.69 7.273" id="c"/><path d="M23.963 7.494a9.1 9.1 0 0 0-1.313-.107 9 9 0 0 0-9.001 9.002c0 1.094.205 2.138.562 3.109C6.761 20.374.98 26.706.98 34.392c0 7.783 5.927 14.181 13.514 14.927.139 4.022 3.432 7.243 7.489 7.243a7.451 7.451 0 0 0 3.047-.652 9 9 0 0 0 8.288 5.485c4.086 0 7.533-2.726 8.63-6.457a8.96 8.96 0 0 0 5.371 1.79 9 9 0 0 0 9.002-9.002 8.973 8.973 0 0 0-2.97-6.668c4.188-2.66 6.97-7.337 6.97-12.668 0-8.05-6.343-14.619-14.305-14.985a11.5 11.5 0 0 0 .136-1.683c0-6.352-5.149-11.501-11.5-11.501-4.857 0-9.005 3.015-10.69 7.273" id="e"/><path d="M23.963 7.494a9.1 9.1 0 0 0-1.313-.107 9 9 0 0 0-9.001 9.002c0 1.094.205 2.138.562 3.109C6.761 20.374.98 26.706.98 34.392c0 7.783 5.927 14.181 13.514 14.927.139 4.022 3.432 7.243 7.489 7.243a7.451 7.451 0 0 0 3.047-.652 9 9 0 0 0 8.288 5.485c4.086 0 7.533-2.726 8.63-6.457a8.96 8.96 0 0 0 5.371 1.79 9 9 0 0 0 9.002-9.002 8.973 8.973 0 0 0-2.97-6.668c4.188-2.66 6.97-7.337 6.97-12.668 0-8.05-6.343-14.619-14.305-14.985a11.5 11.5 0 0 0 .136-1.683c0-6.352-5.149-11.501-11.5-11.501-4.857 0-9.005 3.015-10.69 7.273" id="g"/><path d="M13.787 5.432a5.25 5.25 0 0 0-.772-.063 5.302 5.302 0 0 0-5.3 5.301c0 .644.12 1.258.33 1.83-4.385.516-7.791 4.244-7.791 8.772 0 4.582 3.492 8.35 7.96 8.788a4.414 4.414 0 0 0 6.203 3.882 5.298 5.298 0 0 0 9.962-.572 5.273 5.273 0 0 0 3.163 1.054c2.927 0 5.3-2.374 5.3-5.302a5.28 5.28 0 0 0-1.748-3.925 8.83 8.83 0 0 0 4.104-7.46 8.834 8.834 0 0 0-8.424-8.824 6.76 6.76 0 0 0 .08-.992 6.772 6.772 0 0 0-6.771-6.772 6.773 6.773 0 0 0-6.296 4.283" id="i"/><path d="M13.787 5.432a5.25 5.25 0 0 0-.772-.063 5.302 5.302 0 0 0-5.3 5.301c0 .644.12 1.258.33 1.83-4.385.516-7.791 4.244-7.791 8.772 0 4.582 3.492 8.35 7.96 8.788a4.414 4.414 0 0 0 6.203 3.882 5.298 5.298 0 0 0 9.962-.572 5.273 5.273 0 0 0 3.163 1.054c2.927 0 5.3-2.374 5.3-5.302a5.28 5.28 0 0 0-1.748-3.925 8.83 8.83 0 0 0 4.104-7.46 8.834 8.834 0 0 0-8.424-8.824 6.76 6.76 0 0 0 .08-.992 6.772 6.772 0 0 0-6.771-6.772 6.773 6.773 0 0 0-6.296 4.283" id="k"/><path d="M18.805 4.243a5.435 5.435 0 0 0-1.35-1.358 5.459 5.459 0 0 0-7.598 1.36 5.474 5.474 0 0 0-.402.69 6.969 6.969 0 0 0-7.322 2.798 6.974 6.974 0 0 0 1.738 9.708c.285.2.582.366.885.516-2.578 4.087-1.508 9.52 2.499 12.308a9.08 9.08 0 0 0 8.717.922 5.433 5.433 0 0 0 2.29 3.79 5.457 5.457 0 0 0 7.596-1.361 5.417 5.417 0 0 0 .97-3.292 5.458 5.458 0 0 0 6.347-8.082 4.545 4.545 0 0 0 1.38-1.29 4.545 4.545 0 0 0-1.01-6.234 9.097 9.097 0 0 0-7.932-13.53 9.094 9.094 0 0 0-6.808 3.055" id="m"/><path d="M18.805 4.243a5.435 5.435 0 0 0-1.35-1.358 5.459 5.459 0 0 0-7.598 1.36 5.474 5.474 0 0 0-.402.69 6.969 6.969 0 0 0-7.322 2.798 6.974 6.974 0 0 0 1.738 9.708c.285.2.582.366.885.516-2.578 4.087-1.508 9.52 2.499 12.308a9.08 9.08 0 0 0 8.717.922 5.433 5.433 0 0 0 2.29 3.79 5.457 5.457 0 0 0 7.596-1.361 5.417 5.417 0 0 0 .97-3.292 5.458 5.458 0 0 0 6.347-8.082 4.545 4.545 0 0 0 1.38-1.29 4.545 4.545 0 0 0-1.01-6.234 9.097 9.097 0 0 0-7.932-13.53 9.094 9.094 0 0 0-6.808 3.055" id="o"/><path id="q" d="M.335.879h10.466v29.446H.335z"/><path d="M.335.12v29.528a4.351 4.351 0 0 0 4.151-3.122 4.327 4.327 0 0 0 2.596.866 4.349 4.349 0 0 0 4.35-4.35 4.336 4.336 0 0 0-1.434-3.221A7.249 7.249 0 0 0 6.453 6.458c.038-.266.065-.538.065-.814A5.558 5.558 0 0 0 .335.12" id="s"/><path d="M.335.12v29.528a4.351 4.351 0 0 0 4.151-3.122 4.327 4.327 0 0 0 2.596.866 4.349 4.349 0 0 0 4.35-4.35 4.336 4.336 0 0 0-1.434-3.221A7.249 7.249 0 0 0 6.453 6.458c.038-.266.065-.538.065-.814A5.558 5.558 0 0 0 .335.12" id="u"/><path d="M.335.12v29.528a4.351 4.351 0 0 0 4.151-3.122 4.327 4.327 0 0 0 2.596.866 4.349 4.349 0 0 0 4.35-4.35 4.336 4.336 0 0 0-1.434-3.221A7.249 7.249 0 0 0 6.453 6.458c.038-.266.065-.538.065-.814A5.558 5.558 0 0 0 .335.12" id="w"/><path d="M9.875 2.779a2.637 2.637 0 0 0-4.52.335 3.369 3.369 0 0 0-2.698 6.043c.14.097.282.177.43.25a4.395 4.395 0 0 0 5.42 6.393c.09.714.468 1.387 1.105 1.831a2.638 2.638 0 0 0 3.672-.657 2.613 2.613 0 0 0 .468-1.591 2.635 2.635 0 1 0 3.066-3.904 2.193 2.193 0 0 0 .18-3.637A4.395 4.395 0 0 0 9.875 2.78" id="y"/><path d="M9.875 2.779a2.637 2.637 0 0 0-4.52.335 3.369 3.369 0 0 0-2.698 6.043c.14.097.282.177.43.25a4.395 4.395 0 0 0 5.42 6.393c.09.714.468 1.387 1.105 1.831a2.638 2.638 0 0 0 3.672-.657 2.613 2.613 0 0 0 .468-1.591 2.635 2.635 0 1 0 3.066-3.904 2.193 2.193 0 0 0 .18-3.637A4.395 4.395 0 0 0 9.875 2.78" id="A"/><path d="M23.75 7.866a9.116 9.116 0 0 0-1.312-.106 9.002 9.002 0 0 0-9.002 9.001c0 1.093.205 2.139.562 3.108-7.45.877-13.23 7.21-13.23 14.896 0 7.782 5.927 14.18 13.514 14.928.138 4.02 3.433 7.24 7.488 7.24a7.44 7.44 0 0 0 3.046-.65 9.004 9.004 0 0 0 8.288 5.484c4.087 0 7.534-2.726 8.632-6.457a8.957 8.957 0 0 0 5.37 1.79 9 9 0 0 0 9-9.002 8.969 8.969 0 0 0-2.968-6.668c4.188-2.659 6.971-7.337 6.971-12.667 0-8.051-6.344-14.62-14.307-14.984.083-.552.138-1.112.138-1.685 0-6.351-5.15-11.501-11.5-11.501-4.857 0-9.004 3.016-10.689 7.273" id="C"/><path d="M23.75 7.866a9.116 9.116 0 0 0-1.312-.106 9.002 9.002 0 0 0-9.002 9.001c0 1.093.205 2.139.562 3.108-7.45.877-13.23 7.21-13.23 14.896 0 7.782 5.927 14.18 13.514 14.928.138 4.02 3.433 7.24 7.488 7.24a7.44 7.44 0 0 0 3.046-.65 9.004 9.004 0 0 0 8.288 5.484c4.087 0 7.534-2.726 8.632-6.457a8.957 8.957 0 0 0 5.37 1.79 9 9 0 0 0 9-9.002 8.969 8.969 0 0 0-2.968-6.668c4.188-2.659 6.971-7.337 6.971-12.667 0-8.051-6.344-14.62-14.307-14.984.083-.552.138-1.112.138-1.685 0-6.351-5.15-11.501-11.5-11.501-4.857 0-9.004 3.016-10.689 7.273" id="E"/><path d="M23.75 7.866a9.116 9.116 0 0 0-1.312-.106 9.002 9.002 0 0 0-9.002 9.001c0 1.093.205 2.139.562 3.108-7.45.877-13.23 7.21-13.23 14.896 0 7.782 5.927 14.18 13.514 14.928.138 4.02 3.433 7.24 7.488 7.24a7.44 7.44 0 0 0 3.046-.65 9.004 9.004 0 0 0 8.288 5.484c4.087 0 7.534-2.726 8.632-6.457a8.957 8.957 0 0 0 5.37 1.79 9 9 0 0 0 9-9.002 8.969 8.969 0 0 0-2.968-6.668c4.188-2.659 6.971-7.337 6.971-12.667 0-8.051-6.344-14.62-14.307-14.984.083-.552.138-1.112.138-1.685 0-6.351-5.15-11.501-11.5-11.501-4.857 0-9.004 3.016-10.689 7.273" id="G"/><path d="M18.594 3.286a5.463 5.463 0 0 0-1.353-1.358 5.459 5.459 0 0 0-7.597 1.36 5.474 5.474 0 0 0-.402.69A6.969 6.969 0 0 0 1.92 6.776a6.974 6.974 0 0 0 1.738 9.708c.284.199.582.365.885.515a9.097 9.097 0 0 0 2.497 12.31 9.089 9.089 0 0 0 8.72.922 5.427 5.427 0 0 0 2.289 3.788 5.456 5.456 0 0 0 7.596-1.36 5.42 5.42 0 0 0 .97-3.293 5.46 5.46 0 0 0 6.205-2.058 5.46 5.46 0 0 0 .143-6.022 4.545 4.545 0 0 0 .37-7.527A9.097 9.097 0 0 0 25.4.231a9.09 9.09 0 0 0-6.807 3.055" id="I"/><path d="M18.594 3.286a5.463 5.463 0 0 0-1.353-1.358 5.459 5.459 0 0 0-7.597 1.36 5.474 5.474 0 0 0-.402.69A6.969 6.969 0 0 0 1.92 6.776a6.974 6.974 0 0 0 1.738 9.708c.284.199.582.365.885.515a9.097 9.097 0 0 0 2.497 12.31 9.089 9.089 0 0 0 8.72.922 5.427 5.427 0 0 0 2.289 3.788 5.456 5.456 0 0 0 7.596-1.36 5.42 5.42 0 0 0 .97-3.293 5.46 5.46 0 0 0 6.205-2.058 5.46 5.46 0 0 0 .143-6.022 4.545 4.545 0 0 0 .37-7.527A9.097 9.097 0 0 0 25.4.231a9.09 9.09 0 0 0-6.807 3.055" id="K"/><path d="M25.682 8.653a9.765 9.765 0 0 0-1.43-.115c-5.412 0-9.8 4.387-9.8 9.8a9.78 9.78 0 0 0 .613 3.383C6.954 22.676.662 29.569.662 37.936c0 8.474 6.453 15.44 14.713 16.252.15 4.379 3.737 7.884 8.152 7.884 1.18 0 2.303-.257 3.317-.71a9.8 9.8 0 0 0 9.022 5.972c4.45 0 8.2-2.967 9.398-7.03a9.742 9.742 0 0 0 5.846 1.95c5.412 0 9.8-4.39 9.8-9.8a9.756 9.756 0 0 0-3.234-7.26c4.56-2.897 7.588-7.988 7.588-13.79 0-8.767-6.906-15.918-15.574-16.314.09-.6.15-1.209.15-1.833C49.84 6.34 44.233.734 37.318.734c-5.288 0-9.802 3.284-11.636 7.92" id="M"/><path d="M25.682 8.653a9.765 9.765 0 0 0-1.43-.115c-5.412 0-9.8 4.387-9.8 9.8a9.78 9.78 0 0 0 .613 3.383C6.954 22.676.662 29.569.662 37.936c0 8.474 6.453 15.44 14.713 16.252.15 4.379 3.737 7.884 8.152 7.884 1.18 0 2.303-.257 3.317-.71a9.8 9.8 0 0 0 9.022 5.972c4.45 0 8.2-2.967 9.398-7.03a9.742 9.742 0 0 0 5.846 1.95c5.412 0 9.8-4.39 9.8-9.8a9.756 9.756 0 0 0-3.234-7.26c4.56-2.897 7.588-7.988 7.588-13.79 0-8.767-6.906-15.918-15.574-16.314.09-.6.15-1.209.15-1.833C49.84 6.34 44.233.734 37.318.734c-5.288 0-9.802 3.284-11.636 7.92" id="O"/><path d="M25.682 8.653a9.765 9.765 0 0 0-1.43-.115c-5.412 0-9.8 4.387-9.8 9.8a9.78 9.78 0 0 0 .613 3.383C6.954 22.676.662 29.569.662 37.936c0 8.474 6.453 15.44 14.713 16.252.15 4.379 3.737 7.884 8.152 7.884 1.18 0 2.303-.257 3.317-.71a9.8 9.8 0 0 0 9.022 5.972c4.45 0 8.2-2.967 9.398-7.03a9.742 9.742 0 0 0 5.846 1.95c5.412 0 9.8-4.39 9.8-9.8a9.756 9.756 0 0 0-3.234-7.26c4.56-2.897 7.588-7.988 7.588-13.79 0-8.767-6.906-15.918-15.574-16.314.09-.6.15-1.209.15-1.833C49.84 6.34 44.233.734 37.318.734c-5.288 0-9.802 3.284-11.636 7.92" id="Q"/><path id="S" d="M.337.866h21.272v37.85H.337z"/><path d="M10.11 2.864a5.88 5.88 0 0 0-.438.75 7.592 7.592 0 0 0-7.973 3.047A7.59 7.59 0 0 0 3.591 17.23c.311.219.635.398.964.563-2.805 4.449-1.642 10.363 2.72 13.401a9.893 9.893 0 0 0 9.492 1.002 5.916 5.916 0 0 0 2.492 4.124c.728.508 1.53.83 2.35.976V1.3a9.822 9.822 0 0 0-1.757 1.56A5.917 5.917 0 0 0 14.99.316c-1.878 0-3.727.89-4.88 2.548" id="U"/><path d="M10.11 2.864a5.88 5.88 0 0 0-.438.75 7.592 7.592 0 0 0-7.973 3.047A7.59 7.59 0 0 0 3.591 17.23c.311.219.635.398.964.563-2.805 4.449-1.642 10.363 2.72 13.401a9.893 9.893 0 0 0 9.492 1.002 5.916 5.916 0 0 0 2.492 4.124c.728.508 1.53.83 2.35.976V1.3a9.822 9.822 0 0 0-1.757 1.56A5.917 5.917 0 0 0 14.99.316c-1.878 0-3.727.89-4.88 2.548" id="W"/><path d="M18.796 5.739a6.922 6.922 0 0 0-1.017-.083 6.97 6.97 0 0 0-6.969 6.97c0 .847.158 1.656.435 2.407C5.475 15.71 1 20.613 1 26.565c0 6.026 4.59 10.98 10.465 11.558a5.805 5.805 0 0 0 5.799 5.609c.84 0 1.637-.184 2.359-.504a6.97 6.97 0 0 0 6.418 4.245 6.965 6.965 0 0 0 6.68-4.999 6.937 6.937 0 0 0 4.16 1.387 6.97 6.97 0 0 0 6.97-6.97 6.94 6.94 0 0 0-2.3-5.163 11.606 11.606 0 0 0 5.397-9.809c0-6.235-4.91-11.32-11.076-11.602.063-.427.105-.86.105-1.305A8.905 8.905 0 0 0 27.071.106c-3.76 0-6.97 2.337-8.275 5.633" id="Y"/><path d="M18.796 5.739a6.922 6.922 0 0 0-1.017-.083 6.97 6.97 0 0 0-6.969 6.97c0 .847.158 1.656.435 2.407C5.475 15.71 1 20.613 1 26.565c0 6.026 4.59 10.98 10.465 11.558a5.805 5.805 0 0 0 5.799 5.609c.84 0 1.637-.184 2.359-.504a6.97 6.97 0 0 0 6.418 4.245 6.965 6.965 0 0 0 6.68-4.999 6.937 6.937 0 0 0 4.16 1.387 6.97 6.97 0 0 0 6.97-6.97 6.94 6.94 0 0 0-2.3-5.163 11.606 11.606 0 0 0 5.397-9.809c0-6.235-4.91-11.32-11.076-11.602.063-.427.105-.86.105-1.305A8.905 8.905 0 0 0 27.071.106c-3.76 0-6.97 2.337-8.275 5.633" id="aa"/><path d="M18.796 5.739a6.922 6.922 0 0 0-1.017-.083 6.97 6.97 0 0 0-6.969 6.97c0 .847.158 1.656.435 2.407C5.475 15.71 1 20.613 1 26.565c0 6.026 4.59 10.98 10.465 11.558a5.805 5.805 0 0 0 5.799 5.609c.84 0 1.637-.184 2.359-.504a6.97 6.97 0 0 0 6.418 4.245 6.965 6.965 0 0 0 6.68-4.999 6.937 6.937 0 0 0 4.16 1.387 6.97 6.97 0 0 0 6.97-6.97 6.94 6.94 0 0 0-2.3-5.163 11.606 11.606 0 0 0 5.397-9.809c0-6.235-4.91-11.32-11.076-11.602.063-.427.105-.86.105-1.305A8.905 8.905 0 0 0 27.071.106c-3.76 0-6.97 2.337-8.275 5.633" id="ac"/><path d="M12.44 3.964a4.36 4.36 0 0 0-.635-.052 4.357 4.357 0 0 0-4.358 4.357c0 .53.099 1.037.272 1.505a7.264 7.264 0 0 0 .138 14.439 3.629 3.629 0 0 0 5.1 3.19 4.357 4.357 0 0 0 8.19-.471 4.341 4.341 0 0 0 2.6.867 4.358 4.358 0 0 0 4.358-4.359c0-1.282-.556-2.43-1.438-3.227a7.262 7.262 0 0 0-3.551-13.387c.04-.267.066-.538.066-.816A5.57 5.57 0 0 0 17.614.441a5.567 5.567 0 0 0-5.174 3.523" id="ae"/><path d="M12.44 3.964a4.36 4.36 0 0 0-.635-.052 4.357 4.357 0 0 0-4.358 4.357c0 .53.099 1.037.272 1.505a7.264 7.264 0 0 0 .138 14.439 3.629 3.629 0 0 0 5.1 3.19 4.357 4.357 0 0 0 8.19-.471 4.341 4.341 0 0 0 2.6.867 4.358 4.358 0 0 0 4.358-4.359c0-1.282-.556-2.43-1.438-3.227a7.262 7.262 0 0 0-3.551-13.387c.04-.267.066-.538.066-.816A5.57 5.57 0 0 0 17.614.441a5.567 5.567 0 0 0-5.174 3.523" id="ag"/><path d="M12.44 3.964a4.36 4.36 0 0 0-.635-.052 4.357 4.357 0 0 0-4.358 4.357c0 .53.099 1.037.272 1.505a7.264 7.264 0 0 0 .138 14.439 3.629 3.629 0 0 0 5.1 3.19 4.357 4.357 0 0 0 8.19-.471 4.341 4.341 0 0 0 2.6.867 4.358 4.358 0 0 0 4.358-4.359c0-1.282-.556-2.43-1.438-3.227a7.262 7.262 0 0 0-3.551-13.387c.04-.267.066-.538.066-.816A5.57 5.57 0 0 0 17.614.441a5.567 5.567 0 0 0-5.174 3.523" id="ai"/><path d="M12.121 4.496a4.375 4.375 0 0 0-.636-.052 4.357 4.357 0 0 0-4.357 4.358c0 .53.099 1.035.273 1.504a7.264 7.264 0 0 0 .135 14.439 3.63 3.63 0 0 0 5.102 3.19 4.355 4.355 0 0 0 8.19-.471 4.342 4.342 0 0 0 2.602.867 4.359 4.359 0 0 0 4.357-4.359c0-1.282-.557-2.43-1.439-3.227a7.261 7.261 0 0 0-3.55-13.387c.039-.267.066-.538.066-.816a5.565 5.565 0 1 0-10.743-2.046" id="ak"/><path d="M12.121 4.496a4.375 4.375 0 0 0-.636-.052 4.357 4.357 0 0 0-4.357 4.358c0 .53.099 1.035.273 1.504a7.264 7.264 0 0 0 .135 14.439 3.63 3.63 0 0 0 5.102 3.19 4.355 4.355 0 0 0 8.19-.471 4.342 4.342 0 0 0 2.602.867 4.359 4.359 0 0 0 4.357-4.359c0-1.282-.557-2.43-1.439-3.227a7.261 7.261 0 0 0-3.55-13.387c.039-.267.066-.538.066-.816a5.565 5.565 0 1 0-10.743-2.046" id="am"/><path d="M12.121 4.496a4.375 4.375 0 0 0-.636-.052 4.357 4.357 0 0 0-4.357 4.358c0 .53.099 1.035.273 1.504a7.264 7.264 0 0 0 .135 14.439 3.63 3.63 0 0 0 5.102 3.19 4.355 4.355 0 0 0 8.19-.471 4.342 4.342 0 0 0 2.602.867 4.359 4.359 0 0 0 4.357-4.359c0-1.282-.557-2.43-1.439-3.227a7.261 7.261 0 0 0-3.55-13.387c.039-.267.066-.538.066-.816a5.565 5.565 0 1 0-10.743-2.046" id="ao"/><path d="M17.293 5.74a6.47 6.47 0 0 0-.926-.074 6.363 6.363 0 0 0-6.364 6.363c0 .773.145 1.51.399 2.195-5.267.621-9.354 5.097-9.354 10.53 0 5.503 4.19 10.025 9.553 10.553a5.299 5.299 0 0 0 5.295 5.12 5.26 5.26 0 0 0 2.154-.462 6.36 6.36 0 0 0 11.957-.686 6.335 6.335 0 0 0 3.798 1.264 6.362 6.362 0 0 0 6.363-6.362c0-1.872-.812-3.55-2.1-4.714a10.598 10.598 0 0 0 4.929-8.955c0-5.692-4.485-10.335-10.112-10.593.055-.388.095-.784.095-1.19A8.128 8.128 0 1 0 17.293 5.74" id="aq"/><path d="M17.293 5.74a6.47 6.47 0 0 0-.926-.074 6.363 6.363 0 0 0-6.364 6.363c0 .773.145 1.51.399 2.195-5.267.621-9.354 5.097-9.354 10.53 0 5.503 4.19 10.025 9.553 10.553a5.299 5.299 0 0 0 5.295 5.12 5.26 5.26 0 0 0 2.154-.462 6.36 6.36 0 0 0 11.957-.686 6.335 6.335 0 0 0 3.798 1.264 6.362 6.362 0 0 0 6.363-6.362c0-1.872-.812-3.55-2.1-4.714a10.598 10.598 0 0 0 4.929-8.955c0-5.692-4.485-10.335-10.112-10.593.055-.388.095-.784.095-1.19A8.128 8.128 0 1 0 17.293 5.74" id="as"/><path d="M17.293 5.74a6.47 6.47 0 0 0-.926-.074 6.363 6.363 0 0 0-6.364 6.363c0 .773.145 1.51.399 2.195-5.267.621-9.354 5.097-9.354 10.53 0 5.503 4.19 10.025 9.553 10.553a5.299 5.299 0 0 0 5.295 5.12 5.26 5.26 0 0 0 2.154-.462 6.36 6.36 0 0 0 11.957-.686 6.335 6.335 0 0 0 3.798 1.264 6.362 6.362 0 0 0 6.363-6.362c0-1.872-.812-3.55-2.1-4.714a10.598 10.598 0 0 0 4.929-8.955c0-5.692-4.485-10.335-10.112-10.593.055-.388.095-.784.095-1.19A8.128 8.128 0 1 0 17.293 5.74" id="au"/><path id="aw" d="M.335.415h53.012V22.56H.335z"/><path id="ay" d="M.335 477.926h478.67V.213H.335z"/><path id="aA" d="M1.202 1.163l2.586 42.35h25.798l2.587-42.35z"/><path id="aC" d="M1.133 1.163l2.586 42.35h25.798l2.587-42.35z"/><path d="M13.07.546c-.41 0-.779.26-.92.647L.892 32.308a.98.98 0 0 0 .92 1.313h320.21a.98.98 0 0 0 .922-1.313L311.688 1.193a.984.984 0 0 0-.923-.647H13.07z" id="aE"/></defs><g fill="none" fill-rule="evenodd"><g transform="translate(0 -98.883)"><path d="M445.244 114.084c-1.053-1.915-3.144-3.241-5.582-3.241-.89 0-1.734.273-2.5.604.018-.222.034-.4.034-.626 0-4.765-3.864-8.608-8.63-8.608a8.61 8.61 0 0 0-6.12 2.558c-1.47-5.718-6.659-9.939-12.836-9.939-6.321 0-11.604 4.43-12.93 10.352a8.613 8.613 0 0 0-10.717 3.677c-.821-.39-1.736-.792-2.705-.792-3.447 0-6.239 3.143-6.305 6.015h68.291z" fill="#FFF"/><mask id="b" fill="#fff"><use xlink:href="#a"/></mask><path fill="#90C9C3" mask="url(#b)" d="M337.001 322.51h79.083V158.567h-79.083z"/><path fill="#8FC7C0" mask="url(#b)" d="M169.997 322.51h147.488V183.747H169.997z"/><path fill="#90C9C3" mask="url(#b)" d="M215.582 321.951h63.414V121.263h-63.414z"/><path fill="#7AABA5" mask="url(#b)" d="M226.588 175.632h14.548v-38.888h-14.548zm23.5-22.102h14.548v-16.787h-14.548zm94.002 30.868h14.548v-16.786h-14.547zm22.195 0h14.548v-16.786h-14.548zm21.636 0h14.548v-16.786H387.92zm-21.636 28.909h14.548v-16.786h-14.548zm0 28.91h14.548V225.43h-14.548zm21.636 0h14.548V225.43H387.92zm0 28.909h14.548v-16.787H387.92zm-43.831-57.819h14.548v-16.786h-14.547zm0 57.82h14.548V254.34h-14.547zm-94.002-70.596h14.548v-40.287h-14.548zm-23.5 0h14.548v-16.787h-14.548zm0 23.5h14.548v-16.787h-14.548zm23.5 0h14.548v-16.787h-14.548zm-23.5 23.501h14.548v-16.786h-14.548zm23.5 0h14.548v-16.786h-14.548zm-23.5 23.5h14.548v-16.786h-14.548zm23.5 0h14.548v-16.786h-14.548zm-23.5 23.502h14.548v-16.787h-14.548zm23.5 0h14.548v-16.787h-14.548z"/><path fill="#9FDED7" mask="url(#b)" d="M-6.927 321.951H65.44V94.966H-6.927zm132.051 0h72.367v-209.08h-72.367zm211.878.559h-41.779V121.264l41.779-29.281zm79.082 0h70.148V54.306h-70.148z"/><path fill="#90C9C3" mask="url(#b)" d="M47.535 321.951h96.24V42.741h-96.24z"/><path d="M128.322 114.176H62.988a4.57 4.57 0 0 1-4.569-4.57v-.374a4.569 4.569 0 0 1 4.569-4.568h65.334a4.57 4.57 0 0 1 4.57 4.568v.374a4.571 4.571 0 0 1-4.57 4.57m0 22.194H62.988a4.569 4.569 0 0 1-4.569-4.568v-.375a4.569 4.569 0 0 1 4.569-4.569h65.334a4.57 4.57 0 0 1 4.57 4.57v.374a4.57 4.57 0 0 1-4.57 4.569m0 22.195H62.988a4.568 4.568 0 0 1-4.569-4.57v-.373a4.57 4.57 0 0 1 4.569-4.57h65.334a4.571 4.571 0 0 1 4.57 4.57v.374a4.57 4.57 0 0 1-4.57 4.569m0 22.195H62.988a4.57 4.57 0 0 1-4.569-4.57v-.374a4.568 4.568 0 0 1 4.569-4.568h65.334a4.57 4.57 0 0 1 4.57 4.568v.374a4.571 4.571 0 0 1-4.57 4.57m0 22.195H62.988a4.57 4.57 0 0 1-4.569-4.57v-.374a4.568 4.568 0 0 1 4.569-4.568h65.334a4.57 4.57 0 0 1 4.57 4.568v.374a4.571 4.571 0 0 1-4.57 4.57m0 22.194H62.988a4.569 4.569 0 0 1-4.569-4.568v-.375a4.569 4.569 0 0 1 4.569-4.569h65.334a4.57 4.57 0 0 1 4.57 4.57v.374a4.57 4.57 0 0 1-4.57 4.569m0 22.195H62.988a4.568 4.568 0 0 1-4.569-4.569v-.374a4.57 4.57 0 0 1 4.569-4.57h65.334a4.571 4.571 0 0 1 4.57 4.57v.374a4.57 4.57 0 0 1-4.57 4.569m0 22.194H62.988a4.568 4.568 0 0 1-4.569-4.568v-.374a4.57 4.57 0 0 1 4.569-4.57h65.334a4.571 4.571 0 0 1 4.57 4.57v.374a4.57 4.57 0 0 1-4.57 4.568m0 22.196H62.988a4.57 4.57 0 0 1-4.569-4.57v-.374a4.568 4.568 0 0 1 4.569-4.568h65.334a4.57 4.57 0 0 1 4.57 4.568v.374a4.571 4.571 0 0 1-4.57 4.57" fill="#7AABA5" mask="url(#b)"/><path fill="#AAEDE6" mask="url(#b)" d="M425.549 123.53h17.999V97.952h-18zm-100.924 1.725h7.726v-10.98h-7.726zm-173.065 6.817h7.727v-10.979h-7.727zm13.244 23.613h7.726v-10.979h-7.726zM6.683 112.925h7.726v-10.979H6.683zm18.512 0h7.728v-10.979h-7.728zM6.683 132.55h7.726v-10.978H6.683zm18.512 0h7.728v-10.978h-7.728zM6.683 152.176h7.726v-10.979H6.683zm144.558 3.351h7.727v-10.98h-7.727zm173.384-12.169h7.726v-10.98h-7.726zm-14.867 0h7.727v-10.98h-7.727zm0 20.697h7.727v-10.979h-7.727zm0 20.697h7.727v-10.979h-7.727zm0 20.698h7.727v-10.98h-7.727zm14.867-43.988h7.726v-10.979h-7.726zm0 18.103h7.726v-10.979h-7.726zm134.142-56.035h18V97.952h-18zm0 34.547h18V132.5h-18zm0 34.547h18v-25.577h-18z"/><path fill="#5E5E5E" mask="url(#b)" d="M-128.975 499.945h738.248v-90.45h-738.248z"/><path fill="#DEDEDE" mask="url(#b)" d="M-128.975 393.6h738.248v-24.609h-738.248z"/><path fill="#000" mask="url(#b)" d="M-30.543 409.496h49.216V393.6h-49.216z"/><path fill="#FFF" mask="url(#b)" d="M18.673 409.496h49.218V393.6H18.673z"/><path fill="#000" mask="url(#b)" d="M67.891 409.496h49.217V393.6H67.891z"/><path fill="#FFF" mask="url(#b)" d="M117.107 409.496h49.216V393.6h-49.216z"/><path fill="#000" mask="url(#b)" d="M166.323 409.496h49.218V393.6h-49.218z"/><path fill="#FFF" mask="url(#b)" d="M215.54 409.496h49.217V393.6H215.54z"/><path fill="#000" mask="url(#b)" d="M264.757 409.496h49.216V393.6h-49.216z"/><path fill="#FFF" mask="url(#b)" d="M313.973 409.496h49.217V393.6h-49.217z"/><path fill="#000" mask="url(#b)" d="M363.188 409.496h49.218V393.6h-49.218z"/><path fill="#FFF" mask="url(#b)" d="M412.406 409.496h49.217V393.6h-49.217z"/><path fill="#000" mask="url(#b)" d="M461.623 409.496h49.217V393.6h-49.217z"/><path fill="#FFF" mask="url(#b)" d="M-128.975 396.472h738.248V393.6h-738.248z"/><path fill="#4D4D4D" mask="url(#b)" d="M-128.975 417.894h738.248v-8.398h-738.248z"/><path fill="#9EDE00" mask="url(#b)" d="M-128.975 368.991h738.248v-58.76h-738.248z"/><path fill="#A5E800" mask="url(#b)" d="M-128.975 321.4h738.248v-11.168h-738.248z"/><path fill="#8CC400" mask="url(#b)" d="M-128.975 368.991h738.248v-23.657h-738.248z"/><path fill="#A66100" mask="url(#b)" d="M50.595 328.962h3.351V268.03h-3.35z"/><path fill="#915500" mask="url(#b)" d="M50.595 328.962h1.676V268.03h-1.676z"/><path fill="#915500" mask="url(#b)" d="M52.27 292.13l-1.293 1.27-21.875-22.615 1.293-1.269z"/><path fill="#A66100" mask="url(#b)" d="M52.27 299.748l1.294 1.27 21.396-21.855-1.293-1.27z"/></g><g transform="translate(19.945 120.507)"><mask id="d" fill="#fff"><use xlink:href="#c"/></mask><path d="M53.351 41.059c4.188-2.661 6.97-7.339 6.97-12.668 0-8.052-6.342-14.62-14.306-14.985.081-.55.137-1.11.137-1.683C46.152 5.37 41.004.22 34.652.22c-4.858 0-9.004 3.017-10.69 7.275a8.9 8.9 0 0 0-1.312-.107 9 9 0 0 0-9 9.002c0 1.094.204 2.138.56 3.107C6.76 20.373.98 26.707.98 34.392c0 7.784 5.928 14.18 13.515 14.928.138 4.02 3.432 7.24 7.487 7.24a7.467 7.467 0 0 0 3.048-.65 9.005 9.005 0 0 0 8.289 5.485c4.086 0 7.532-2.725 8.629-6.458a8.95 8.95 0 0 0 5.372 1.791 9 9 0 0 0 9-9.001 8.97 8.97 0 0 0-2.969-6.668" fill="#5E9100" mask="url(#d)"/></g><g transform="translate(19.945 120.507)"><mask id="f" fill="#fff"><use xlink:href="#e"/></mask><path d="M48.84 11.302l-2.824 2.105s9.552 4.237 9 13.452c-.552 9.214-6.894 13.163-6.894 13.163s5.17 4.41 2.405 10.103c-2.764 5.693-8.269 1.984-9.226 1.266 0 0-2.881 7.677-8.975 7.112-6.094-.566-7.296-2.593-7.296-2.593s-.549 7.53 8.493 8.046c7.539.43 9.932-5.984 9.932-5.984S52.63 60.592 55.9 55.1c4.422-7.419 0-13.402 0-13.402s7.42-4.667 7.42-14.84c0-12.684-14.48-15.556-14.48-15.556" fill="#5A8A00" mask="url(#f)"/></g><g transform="translate(19.945 120.507)"><mask id="h" fill="#fff"><use xlink:href="#g"/></mask><path d="M3.984 25.392s3.63-4.816 12.547-4.637c0 0-2.454-4.667.118-9.154 2.573-4.488 7.838-3.41 7.838-3.41S25.464.85 37.312.53c0 0-7.498-2.991-13.603 4.847 0 0-4.965-.12-8.376 3.35-3.41 3.471-2.454 9.215-2.454 9.215s-6.424 1.495-8.895 7.449" fill="#6DA800" mask="url(#h)"/></g><path d="M39.072 173.626a8.827 8.827 0 0 0 4.104-7.459 8.834 8.834 0 0 0-8.424-8.823c.047-.325.08-.655.08-.992a6.773 6.773 0 0 0-6.771-6.774 6.772 6.772 0 0 0-6.296 4.285 5.265 5.265 0 0 0-.773-.064 5.3 5.3 0 0 0-5.3 5.301c0 .644.122 1.258.332 1.83a8.833 8.833 0 0 0 .168 17.56 4.414 4.414 0 0 0 6.203 3.881 5.3 5.3 0 0 0 9.962-.573 5.267 5.267 0 0 0 3.163 1.055 5.3 5.3 0 0 0 5.3-5.3c0-1.56-.677-2.957-1.748-3.927" fill="#548200"/><g transform="translate(7.978 148.43)"><mask id="j" fill="#fff"><use xlink:href="#i"/></mask><path d="M28.657 7.871l-1.883 1.043s4.514 1.231 5.433 6.736c.916 5.505-3.95 8.565-3.95 8.565s4.516 3.3 1.496 6.883c-1.765 2.092-4.726.192-5.624-.518 0 0-.658 3.778-3.949 4.525-3.292.749-5.354-2.482-5.354-2.482s-4.22 1.816-6.613-2.563c0 0-.958 4.941 5.743 5.158 0 0 .899 2.251 5.327 2.91 4.426.658 5.564-3.53 5.564-3.53s3.97 2.019 7.04-1.126c3.07-3.143 1.42-7.45 1.42-7.45s5.24-5.605 3.027-11.649c-2.214-6.043-7.677-6.502-7.677-6.502" fill="#4C7500" mask="url(#j)"/></g><g transform="translate(7.978 148.43)"><mask id="l" fill="#fff"><use xlink:href="#k"/></mask><path d="M8.213 30.06s-4.487-1.725-6.083-5.395c-1.595-3.67-.558-10.012 7.659-11.249 0 0-1.396-2.314-.24-4.667 1.157-2.353 3.47-2.593 4.548-2.393 0 0 1.436-5.197 6.422-5.191 0 0-4.228-1.311-7.181 3.356 0 0-4.307-.12-5.425 2.832-1.116 2.952-.597 4.627-.597 4.627s-4.707-.598-6.303 3.35C-.582 19.28-1.34 23.828.575 27.179c1.913 3.35 7.638 2.882 7.638 2.882" fill="#629600" mask="url(#l)"/></g><path d="M78.465 186.266a9.087 9.087 0 0 1-8.719-.922c-4.004-2.79-5.075-8.221-2.498-12.31-.302-.15-.6-.316-.886-.514a6.974 6.974 0 0 1-1.736-9.708 6.969 6.969 0 0 1 7.322-2.799 5.57 5.57 0 0 1 .402-.69 5.457 5.457 0 0 1 7.597-1.359c.544.38.992.843 1.351 1.356 3.019-3.402 8.17-4.084 11.995-1.42a9.095 9.095 0 0 1 2.746 11.895 4.545 4.545 0 0 1 1.009 6.235c-.378.54-.851.97-1.38 1.29a5.456 5.456 0 0 1-6.346 8.082 5.425 5.425 0 0 1-.97 3.292 5.456 5.456 0 0 1-7.598 1.36 5.438 5.438 0 0 1-2.29-3.788" fill="#548200"/><g transform="translate(62.493 155.078)"><mask id="n" fill="#fff"><use xlink:href="#m"/></mask><path d="M2.768 18.934l1.987-.977s-1.617 4.539 2.496 8.553c4.111 4.014 9.561 1.705 9.561 1.705s.13 5.756 4.933 5.313c2.81-.26 2.946-3.881 2.875-5.058 0 0 3.578 1.667 6.147-.673 2.568-2.341 1.053-5.986 1.053-5.986s4.017-2.494 1.725-7.093c0 0 4.739 2.098.978 7.887 0 0 1.375 2.083-.675 6.212S27.59 31.44 27.59 31.44s-.63 4.542-5.093 5.288c-4.464.746-7.13-3.184-7.13-3.184s-7.82 1.13-11.626-4.296c-3.803-5.426-.974-10.314-.974-10.314" fill="#4C7500" mask="url(#n)"/></g><g transform="translate(62.493 155.078)"><mask id="p" fill="#fff"><use xlink:href="#o"/></mask><path d="M33.545 14.717s1.184-4.808-.978-8.316c-2.162-3.507-8.134-6.363-14.012-.147 0 0-1.134-2.541-3.804-2.95-2.669-.406-4.231 1.409-4.698 2.437 0 0-5.235-1.846-8.165 2.37 0 0 1.38-4.344 7.062-4.091 0 0 2.433-3.711 5.584-2.917 3.151.792 4.262 2.216 4.262 2.216s2.264-4.329 6.54-3.353c4.276.975 8.564 3.01 10.269 6.6 1.705 3.589-2.06 8.151-2.06 8.151" fill="#629600" mask="url(#p)"/></g><g transform="translate(0 194.967)"><mask id="r" fill="#fff"><use xlink:href="#q"/></mask><path fill="#A66100" mask="url(#r)" d="M-.973 30.325h1.62V.88h-1.62z"/><path fill="#A66100" mask="url(#r)" d="M-.163 16.208l.625.613 10.34-10.562-.626-.613z"/></g><g transform="translate(0 172.363)"><mask id="t" fill="#fff"><use xlink:href="#s"/></mask><path d="M9.997 19.82A7.248 7.248 0 0 0 6.452 6.458a5.44 5.44 0 0 0 .067-.814A5.556 5.556 0 1 0-4.206 3.6a4.324 4.324 0 0 0-.633-.052 4.35 4.35 0 0 0-4.35 4.35c0 .528.1 1.033.271 1.501a7.249 7.249 0 0 0 .138 14.412 3.621 3.621 0 0 0 3.618 3.5c.525 0 1.023-.114 1.472-.315a4.349 4.349 0 0 0 8.176-.47 4.324 4.324 0 0 0 2.597.865 4.35 4.35 0 0 0 4.35-4.35 4.332 4.332 0 0 0-1.436-3.221" fill="#5E9100" mask="url(#t)"/></g><g transform="translate(0 172.363)"><mask id="v" fill="#fff"><use xlink:href="#u"/></mask><path d="M7.817 5.44L6.453 6.457s4.614 2.048 4.348 6.5c-.266 4.454-3.33 6.362-3.33 6.362s2.495 2.131 1.16 4.881c-1.336 2.751-3.996.959-4.458.612 0 0-1.393 3.71-4.337 3.437-2.945-.274-3.526-1.252-3.526-1.252s-.266 3.637 4.104 3.887c3.643.208 4.8-2.892 4.8-2.892s4.433 1.266 6.013-1.388c2.138-3.584 0-6.476 0-6.476s3.587-2.255 3.587-7.171c0-6.13-6.998-7.518-6.998-7.518" fill="#5A8A00" mask="url(#v)"/></g><g transform="translate(0 172.363)"><mask id="x" fill="#fff"><use xlink:href="#w"/></mask><path d="M-13.86 12.25s1.754-2.328 6.064-2.241c0 0-1.186-2.255.058-4.424C-6.496 3.417-3.95 3.938-3.95 3.938S-3.479.39 2.245.236c0 0-3.623-1.447-6.572 2.342 0 0-2.4-.058-4.048 1.619C-10.023 5.874-9.56 8.65-9.56 8.65s-3.104.722-4.299 3.6" fill="#6DA800" mask="url(#x)"/></g><path d="M12.496 204.12a4.397 4.397 0 0 1-4.214-.444 4.397 4.397 0 0 1-1.207-5.95 3.312 3.312 0 0 1-.428-.25 3.369 3.369 0 0 1 2.699-6.042c.057-.115.12-.226.194-.334a2.637 2.637 0 0 1 3.671-.657c.263.184.479.407.653.656a4.396 4.396 0 0 1 7.124 5.062 2.195 2.195 0 0 1-.18 3.636 2.638 2.638 0 0 1-3.067 3.905 2.618 2.618 0 0 1-.468 1.592 2.638 2.638 0 0 1-3.672.657 2.628 2.628 0 0 1-1.105-1.831" fill="#548200"/><g transform="translate(3.989 188.32)"><mask id="z" fill="#fff"><use xlink:href="#y"/></mask><path d="M2.125 9.879l.961-.472s-.78 2.194 1.206 4.134c1.987 1.94 4.62.823 4.62.823s.063 2.781 2.385 2.567c1.357-.126 1.422-1.874 1.388-2.444 0 0 1.73.806 2.972-.325 1.24-1.13.509-2.892.509-2.892s1.941-1.206.833-3.43c0 0 2.289 1.015.472 3.813 0 0 .664 1.006-.327 3.002-.989 1.994-3.025 1.267-3.025 1.267s-.301 2.195-2.46 2.556c-2.156.36-3.446-1.539-3.446-1.539s-3.779.547-5.618-2.075c-1.836-2.624-.47-4.985-.47-4.985" fill="#4C7500" mask="url(#z)"/></g><g transform="translate(3.989 188.32)"><mask id="B" fill="#fff"><use xlink:href="#A"/></mask><path d="M16.999 7.84s.572-2.322-.474-4.017c-1.046-1.696-3.93-3.074-6.77-.072 0 0-.548-1.227-1.839-1.424a2.124 2.124 0 0 0-2.27 1.175S3.116 2.612 1.7 4.65c0 0 .667-2.1 3.413-1.979 0 0 1.176-1.792 2.698-1.41 1.522.384 2.06 1.073 2.06 1.073S10.966.24 13.032.713s4.14 1.454 4.962 3.19C18.816 5.635 17 7.84 17 7.84" fill="#629600" mask="url(#B)"/></g><path fill="#A66100" d="M167.39 229.122h3.35v-60.934h-3.35z"/><path fill="#915500" d="M167.391 229.122h1.675v-60.934h-1.675z"/><path fill="#A66100" d="M169.066 199.908l1.294 1.269 21.395-21.856-1.292-1.268z"/><g transform="translate(136.953 119.178)"><mask id="D" fill="#fff"><use xlink:href="#C"/></mask><path d="M53.138 41.431c4.188-2.66 6.97-7.338 6.97-12.667 0-8.053-6.342-14.621-14.306-14.985.083-.55.139-1.11.139-1.685C45.94 5.742 40.79.593 34.439.593c-4.858 0-9.004 3.015-10.69 7.274a8.9 8.9 0 0 0-1.312-.106 9 9 0 0 0-9 9c0 1.094.204 2.138.56 3.109C6.55 20.746.767 27.078.767 34.763c0 7.784 5.928 14.182 13.515 14.93.138 4.02 3.433 7.24 7.487 7.24a7.442 7.442 0 0 0 3.048-.651 9.003 9.003 0 0 0 8.289 5.485c4.086 0 7.532-2.726 8.63-6.457a8.945 8.945 0 0 0 5.37 1.79 9 9 0 0 0 9.001-9 8.965 8.965 0 0 0-2.969-6.669" fill="#5E9100" mask="url(#D)"/></g><g transform="translate(136.953 119.178)"><mask id="F" fill="#fff"><use xlink:href="#E"/></mask><path d="M48.627 11.674l-2.824 2.105s9.552 4.237 9 13.452c-.552 9.214-6.894 13.163-6.894 13.163s5.17 4.41 2.407 10.103c-2.766 5.693-8.27 1.984-9.228 1.266 0 0-2.881 7.677-8.975 7.112-6.092-.565-7.296-2.593-7.296-2.593s-.549 7.53 8.493 8.046c7.539.43 9.932-5.984 9.932-5.984s9.175 2.62 12.447-2.872c4.42-7.419 0-13.402 0-13.402s7.42-4.667 7.42-14.84c0-12.684-14.482-15.556-14.482-15.556" fill="#5A8A00" mask="url(#F)"/></g><g transform="translate(136.953 119.178)"><mask id="H" fill="#fff"><use xlink:href="#G"/></mask><path d="M3.771 25.764s3.63-4.816 12.547-4.636c0 0-2.453-4.667.118-9.155 2.574-4.487 7.84-3.41 7.84-3.41s.976-7.34 12.823-7.659c0 0-7.498-2.992-13.601 4.847 0 0-4.966-.12-8.378 3.35-3.41 3.47-2.453 9.215-2.453 9.215S6.242 19.81 3.77 25.764" fill="#6DA800" mask="url(#H)"/></g><path d="M195.261 185.309a9.09 9.09 0 0 1-8.72-.922c-4.004-2.79-5.075-8.22-2.498-12.31-.302-.15-.6-.316-.885-.514a6.976 6.976 0 0 1-1.737-9.71 6.968 6.968 0 0 1 7.323-2.797 5.64 5.64 0 0 1 .401-.69 5.459 5.459 0 0 1 7.598-1.36c.544.38.992.843 1.352 1.358a9.094 9.094 0 0 1 14.739 10.473 4.546 4.546 0 0 1 1.01 6.236c-.378.54-.852.97-1.38 1.29a5.464 5.464 0 0 1-.143 6.024 5.46 5.46 0 0 1-6.204 2.057 5.425 5.425 0 0 1-.97 3.293 5.457 5.457 0 0 1-7.597 1.36 5.431 5.431 0 0 1-2.289-3.788" fill="#548200"/><g transform="translate(179.501 155.078)"><mask id="J" fill="#fff"><use xlink:href="#I"/></mask><path d="M2.555 17.977L4.542 17s-1.615 4.539 2.496 8.553c4.111 4.014 9.561 1.703 9.561 1.703s.13 5.758 4.935 5.314c2.808-.26 2.944-3.88 2.873-5.057 0 0 3.58 1.667 6.148-.673 2.568-2.341 1.053-5.986 1.053-5.986s4.016-2.496 1.724-7.095c0 0 4.739 2.098.98 7.889 0 0 1.373 2.082-.676 6.21-2.05 4.13-6.258 2.625-6.258 2.625s-.63 4.543-5.093 5.288c-4.464.745-7.13-3.185-7.13-3.185s-7.82 1.131-11.626-4.295c-3.803-5.426-.974-10.314-.974-10.314" fill="#4C7500" mask="url(#J)"/></g><g transform="translate(179.501 155.078)"><mask id="L" fill="#fff"><use xlink:href="#K"/></mask><path d="M33.332 13.76s1.184-4.809-.978-8.315c-2.162-3.509-8.132-6.365-14.012-.149 0 0-1.134-2.54-3.803-2.948-2.67-.408-4.232 1.407-4.699 2.435 0 0-5.235-1.844-8.165 2.372 0 0 1.38-4.345 7.062-4.093 0 0 2.433-3.71 5.584-2.917 3.151.793 4.262 2.217 4.262 2.217s2.264-4.33 6.54-3.354 8.564 3.01 10.269 6.6-2.06 8.151-2.06 8.151" fill="#629600" mask="url(#L)"/></g><path fill="#A66100" d="M443.822 224.335h3.648v-66.337h-3.648z"/><path fill="#915500" d="M443.82 224.335h1.825v-66.337h-1.825z"/><path fill="#A66100" d="M445.645 192.53l1.408 1.382 23.294-23.794-1.406-1.381z"/><g transform="translate(410.859 104.552)"><mask id="N" fill="#fff"><use xlink:href="#M"/></mask><path d="M57.676 45.195c4.56-2.897 7.588-7.99 7.588-13.792 0-8.765-6.906-15.916-15.574-16.314.09-.6.15-1.208.15-1.833C49.84 6.34 44.233.734 37.317.734c-5.288 0-9.802 3.283-11.636 7.92a9.765 9.765 0 0 0-1.43-.116c-5.412 0-9.8 4.386-9.8 9.8 0 1.19.224 2.326.613 3.383C6.955 22.675.661 29.57.661 37.936c0 8.474 6.454 15.439 14.714 16.253.15 4.377 3.736 7.883 8.15 7.883a8.134 8.134 0 0 0 3.32-.709 9.802 9.802 0 0 0 9.021 5.972c4.45 0 8.201-2.97 9.397-7.031a9.74 9.74 0 0 0 5.847 1.949c5.412 0 9.8-4.388 9.8-9.8a9.762 9.762 0 0 0-3.234-7.258" fill="#5E9100" mask="url(#N)"/></g><g transform="translate(410.859 104.552)"><mask id="P" fill="#fff"><use xlink:href="#O"/></mask><path d="M52.765 12.799l-3.075 2.29s10.399 4.614 9.8 14.647c-.602 10.03-7.507 14.33-7.507 14.33s5.629 4.8 2.62 11c-3.01 6.197-9.003 2.159-10.046 1.377 0 0-3.136 8.358-9.77 7.742-6.635-.615-7.943-2.823-7.943-2.823s-.598 8.198 9.246 8.76c8.207.468 10.813-6.514 10.813-6.514s9.988 2.85 13.549-3.127c4.812-8.076 0-14.592 0-14.592s8.076-5.08 8.076-16.153c0-13.81-15.763-16.937-15.763-16.937" fill="#5A8A00" mask="url(#P)"/></g><g transform="translate(410.859 104.552)"><mask id="R" fill="#fff"><use xlink:href="#Q"/></mask><path d="M3.93 28.138s3.954-5.243 13.659-5.047c0 0-2.67-5.08.13-9.967 2.803-4.885 8.534-3.713 8.534-3.713s1.065-7.99 13.962-8.338c0 0-8.165-3.256-14.809 5.276 0 0-5.406-.129-9.119 3.649-3.713 3.777-2.671 10.03-2.671 10.03s-6.995 1.628-9.685 8.11" fill="#6DA800" mask="url(#R)"/></g><g transform="translate(457.396 143.111)"><mask id="T" fill="#fff"><use xlink:href="#S"/></mask><path d="M16.766 33.525a9.89 9.89 0 0 1-9.49-1.003c-4.362-3.038-5.527-8.95-2.721-13.401a7.664 7.664 0 0 1-.964-.561A7.593 7.593 0 0 1 1.699 7.99 7.59 7.59 0 0 1 9.67 4.944c.13-.255.269-.508.438-.751a5.942 5.942 0 0 1 8.272-1.48c.591.412 1.08.918 1.47 1.477C23.136.486 28.747-.257 32.91 2.641c4.216 2.936 5.445 8.56 2.989 12.952a4.95 4.95 0 0 1 1.097 6.788 4.915 4.915 0 0 1-1.503 1.406 5.942 5.942 0 0 1-.154 6.557 5.941 5.941 0 0 1-6.753 2.24 5.91 5.91 0 0 1-1.057 3.584 5.942 5.942 0 0 1-8.272 1.481 5.923 5.923 0 0 1-2.492-4.124" fill="#548200" mask="url(#T)"/></g><g transform="translate(457.396 144.441)"><mask id="V" fill="#fff"><use xlink:href="#U"/></mask><path d="M2.391 18.855l2.165-1.064s-1.76 4.942 2.716 9.313c4.476 4.37 10.41 1.855 10.41 1.855s.14 6.266 5.372 5.784c3.056-.282 3.205-4.226 3.128-5.505 0 0 3.896 1.813 6.692-.734 2.795-2.549 1.146-6.517 1.146-6.517s4.374-2.716 1.88-7.724c0 0 5.157 2.285 1.064 8.589 0 0 1.496 2.267-.736 6.762-2.23 4.494-6.812 2.856-6.812 2.856s-.684 4.945-5.545 5.758c-4.858.81-7.763-3.468-7.763-3.468s-8.514 1.23-12.655-4.676c-4.14-5.908-1.062-11.23-1.062-11.23" fill="#4C7500" mask="url(#V)"/></g><g transform="translate(457.396 144.441)"><mask id="X" fill="#fff"><use xlink:href="#W"/></mask><path d="M35.9 14.264s1.287-5.235-1.068-9.052c-2.354-3.82-8.852-6.93-15.254-.161 0 0-1.234-2.767-4.14-3.21-2.906-.444-4.608 1.532-5.114 2.65 0 0-5.7-2.008-8.89 2.582 0 0 1.504-4.73 7.687-4.455 0 0 2.65-4.04 6.081-3.176 3.43.863 4.64 2.414 4.64 2.414s2.465-4.714 7.118-3.652c4.655 1.063 9.325 3.278 11.181 7.186 1.855 3.908-2.242 8.874-2.242 8.874" fill="#629600" mask="url(#X)"/></g><path fill="#A66100" d="M377.659 235.866h2.594v-47.181h-2.594z"/><path fill="#915500" d="M377.658 235.866h1.297v-47.181h-1.297z"/><g transform="translate(353.684 151.09)"><mask id="Z" fill="#fff"><use xlink:href="#Y"/></mask><path d="M41.552 31.728c3.243-2.061 5.397-5.682 5.397-9.809 0-6.235-4.912-11.32-11.076-11.602.06-.427.105-.86.105-1.305A8.905 8.905 0 0 0 27.072.106c-3.762 0-6.971 2.336-8.276 5.633a6.922 6.922 0 0 0-1.017-.083 6.97 6.97 0 0 0-6.969 6.97c0 .847.159 1.656.435 2.407C5.475 15.71 1 20.615 1 26.565c0 6.027 4.59 10.98 10.465 11.56a5.805 5.805 0 0 0 5.798 5.605 5.78 5.78 0 0 0 2.36-.504 6.967 6.967 0 0 0 13.099-.752 6.93 6.93 0 0 0 4.159 1.387 6.97 6.97 0 0 0 6.97-6.97 6.94 6.94 0 0 0-2.3-5.163" fill="#5E9100" mask="url(#Z)"/></g><g transform="translate(353.684 151.09)"><mask id="ab" fill="#fff"><use xlink:href="#aa"/></mask><path d="M38.059 8.687l-2.187 1.63s7.395 3.28 6.97 10.415c-.429 7.135-5.339 10.193-5.339 10.193s4.002 3.415 1.862 7.822c-2.14 4.408-6.403 1.536-7.145.98 0 0-2.23 5.945-6.948 5.508-4.718-.439-5.649-2.008-5.649-2.008s-.426 5.83 6.575 6.23c5.839.333 7.691-4.633 7.691-4.633s7.103 2.028 9.636-2.225c3.424-5.744 0-10.377 0-10.377s5.747-3.614 5.747-11.49c0-9.822-11.213-12.045-11.213-12.045" fill="#5A8A00" mask="url(#ab)"/></g><g transform="translate(353.684 151.09)"><mask id="ad" fill="#fff"><use xlink:href="#ac"/></mask><path d="M3.326 19.597s2.812-3.729 9.716-3.59c0 0-1.9-3.613.091-7.089 1.993-3.474 6.069-2.64 6.069-2.64s.758-5.683 9.93-5.93c0 0-5.806-2.317-10.531 3.752 0 0-3.846-.092-6.488 2.594-2.639 2.687-1.897 7.136-1.897 7.136s-4.977 1.157-6.89 5.767" fill="#6DA800" mask="url(#ad)"/></g><path fill="#A66100" d="M337.45 225.744h1.623v-29.499h-1.622z"/><path fill="#915500" d="M337.452 225.744h.81v-29.499h-.81z"/><g transform="translate(321.773 172.363)"><mask id="af" fill="#fff"><use xlink:href="#ae"/></mask><path d="M26.667 20.213a7.261 7.261 0 0 0-3.551-13.387 5.5 5.5 0 0 0 .066-.816A5.566 5.566 0 1 0 12.44 3.964a4.36 4.36 0 0 0-.635-.053A4.358 4.358 0 0 0 7.447 8.27c0 .53.099 1.034.272 1.504a7.264 7.264 0 0 0 .138 14.438 3.628 3.628 0 0 0 5.099 3.19 4.359 4.359 0 0 0 8.192-.47 4.334 4.334 0 0 0 2.6.866 4.357 4.357 0 0 0 4.357-4.357 4.34 4.34 0 0 0-1.438-3.228" fill="#5E9100" mask="url(#af)"/></g><g transform="translate(321.773 172.363)"><mask id="ah" fill="#fff"><use xlink:href="#ag"/></mask><path d="M24.483 5.807l-1.367 1.018s4.623 2.052 4.358 6.513c-.268 4.461-3.338 6.373-3.338 6.373s2.503 2.135 1.164 4.89c-1.338 2.757-4.003.96-4.467.613 0 0-1.394 3.718-4.345 3.444-2.948-.275-3.531-1.255-3.531-1.255s-.266 3.644 4.112 3.894c3.649.21 4.808-2.895 4.808-2.895s4.441 1.267 6.025-1.391c2.14-3.592 0-6.489 0-6.489s3.591-2.259 3.591-7.184c0-6.14-7.01-7.531-7.01-7.531" fill="#5A8A00" mask="url(#ah)"/></g><g transform="translate(321.773 172.363)"><mask id="aj" fill="#fff"><use xlink:href="#ai"/></mask><path d="M2.768 12.628s1.757-2.331 6.073-2.245c0 0-1.187-2.259.059-4.431C10.146 3.779 12.695 4.3 12.695 4.3S13.167.747 18.903.593c0 0-3.632-1.45-6.585 2.346 0 0-2.405-.058-4.055 1.623-1.651 1.68-1.189 4.46-1.189 4.46s-3.11.724-4.306 3.606" fill="#6DA800" mask="url(#aj)"/></g><path fill="#A66100" d="M129.708 220.958h1.622v-29.5h-1.622z"/><path fill="#915500" d="M129.708 220.958h.81v-29.5h-.81z"/><g transform="translate(114.349 167.045)"><mask id="al" fill="#fff"><use xlink:href="#ak"/></mask><path d="M26.348 20.745a7.261 7.261 0 0 0-3.55-13.387c.038-.268.066-.539.066-.817a5.566 5.566 0 1 0-10.743-2.046 4.36 4.36 0 0 0-.636-.05 4.357 4.357 0 0 0-4.357 4.357c0 .529.098 1.034.273 1.504a7.263 7.263 0 0 0 .136 14.438 3.63 3.63 0 0 0 3.625 3.506 3.59 3.59 0 0 0 1.475-.316 4.358 4.358 0 0 0 8.192-.47 4.33 4.33 0 0 0 2.6.866 4.358 4.358 0 0 0 4.358-4.357 4.34 4.34 0 0 0-1.44-3.228" fill="#5E9100" mask="url(#al)"/></g><g transform="translate(114.349 167.045)"><mask id="an" fill="#fff"><use xlink:href="#am"/></mask><path d="M24.165 6.339l-1.367 1.018s4.623 2.052 4.356 6.513c-.266 4.46-3.337 6.373-3.337 6.373s2.502 2.135 1.165 4.891c-1.34 2.755-4.003.96-4.467.612 0 0-1.396 3.718-4.346 3.444-2.948-.274-3.532-1.255-3.532-1.255s-.266 3.644 4.113 3.894c3.648.209 4.808-2.896 4.808-2.896s4.44 1.267 6.024-1.39c2.141-3.592 0-6.49 0-6.49s3.592-2.258 3.592-7.183c0-6.14-7.009-7.531-7.009-7.531" fill="#5A8A00" mask="url(#an)"/></g><g transform="translate(114.349 167.045)"><mask id="ap" fill="#fff"><use xlink:href="#ao"/></mask><path d="M2.448 13.16s1.758-2.33 6.074-2.244c0 0-1.187-2.26.058-4.432 1.246-2.173 3.795-1.651 3.795-1.651s.472-3.555 6.21-3.709c0 0-3.632-1.448-6.586 2.347 0 0-2.404-.058-4.055 1.622-1.652 1.68-1.19 4.461-1.19 4.461s-3.11.723-4.306 3.606" fill="#6DA800" mask="url(#ap)"/></g><path fill="#A66100" d="M286.621 227.66h2.368v-43.076h-2.368z"/><path fill="#915500" d="M286.62 227.66h1.185v-43.076h-1.185z"/><g transform="translate(264.598 149.76)"><mask id="ar" fill="#fff"><use xlink:href="#aq"/></mask><path d="M38.07 29.467a10.594 10.594 0 0 0 4.927-8.955c0-5.692-4.485-10.335-10.112-10.592.057-.39.096-.786.096-1.191A8.13 8.13 0 0 0 24.85.598a8.13 8.13 0 0 0-7.557 5.142 6.47 6.47 0 0 0-.927-.075 6.363 6.363 0 0 0-6.364 6.364c0 .772.145 1.51.398 2.196-5.267.62-9.353 5.096-9.353 10.53 0 5.502 4.191 10.024 9.553 10.552a5.298 5.298 0 0 0 5.294 5.119c.767 0 1.494-.166 2.154-.46a6.362 6.362 0 0 0 11.96-.687 6.326 6.326 0 0 0 3.796 1.265 6.363 6.363 0 0 0 6.364-6.363 6.34 6.34 0 0 0-2.1-4.714" fill="#5E9100" mask="url(#ar)"/></g><g transform="translate(264.598 149.76)"><mask id="at" fill="#fff"><use xlink:href="#as"/></mask><path d="M34.88 8.432L32.884 9.92s6.752 2.995 6.361 9.51c-.39 6.513-4.873 9.305-4.873 9.305s3.655 3.117 1.7 7.142c-1.952 4.023-5.844 1.401-6.521.893 0 0-2.037 5.43-6.344 5.03-4.308-.401-5.157-1.834-5.157-1.834s-.39 5.322 6.002 5.688c5.33.303 7.023-4.231 7.023-4.231s6.484 1.852 8.797-2.03c3.124-5.245 0-9.474 0-9.474s5.244-3.3 5.244-10.49c0-8.967-10.236-10.997-10.236-10.997" fill="#5A8A00" mask="url(#at)"/></g><g transform="translate(264.598 149.76)"><mask id="av" fill="#fff"><use xlink:href="#au"/></mask><path d="M3.171 18.392s2.568-3.405 8.869-3.277c0 0-1.734-3.299.084-6.472 1.82-3.172 5.542-2.41 5.542-2.41s.691-5.188 9.065-5.414c0 0-5.301-2.116-9.616 3.426 0 0-3.51-.085-5.92 2.368-2.411 2.453-1.736 6.514-1.736 6.514s-4.542 1.056-6.288 5.265" fill="#6DA800" mask="url(#av)"/></g><g transform="translate(0 -98.883)"><g transform="translate(0 328.421)"><mask id="ax" fill="#fff"><use xlink:href="#aw"/></mask><path d="M48.492 12.85c-.683 0-1.33.142-1.92.396.012-.17.025-.34.025-.515a6.631 6.631 0 0 0-11.332-4.675C34.135 3.662 30.145.415 25.4.415c-4.857 0-8.916 3.403-9.935 7.951a6.624 6.624 0 0 0-8.234 2.824 4.845 4.845 0 0 0-2.081-.472 4.855 4.855 0 0 0 0 9.71 4.834 4.834 0 0 0 3.176-1.187 6.625 6.625 0 0 0 10.201-1.128 10.145 10.145 0 0 0 6.873 2.67c3.7 0 6.937-1.971 8.72-4.92a6.628 6.628 0 0 0 5.846 3.5c1.37 0 2.644-.417 3.7-1.128a4.854 4.854 0 0 0 9.68-.53 4.854 4.854 0 0 0-4.854-4.855" fill="#8CC400" mask="url(#ax)"/></g><path d="M103.83 340.152c-.761 0-1.485.158-2.142.442.014-.191.028-.381.028-.575a7.396 7.396 0 0 0-12.64-5.214c-1.26-4.9-5.707-8.522-11-8.522-5.416 0-9.945 3.794-11.08 8.87a7.387 7.387 0 0 0-9.184 3.149 5.398 5.398 0 0 0-2.32-.528 5.415 5.415 0 1 0 0 10.83 5.388 5.388 0 0 0 3.542-1.324 7.383 7.383 0 0 0 11.376-1.258A11.317 11.317 0 0 0 78.077 349c4.124 0 7.734-2.199 9.725-5.488a7.394 7.394 0 0 0 10.646 2.644 5.415 5.415 0 1 0 5.383-6.004m288.077.927a7.547 7.547 0 0 0-3 .62 9.77 9.77 0 0 0 .04-.805c0-5.72-4.636-10.358-10.356-10.358a10.326 10.326 0 0 0-7.344 3.055c-1.764-6.862-7.994-11.933-15.407-11.933-7.585 0-13.928 5.313-15.518 12.419a10.314 10.314 0 0 0-3.901-.766c-3.832 0-7.17 2.085-8.96 5.178a7.526 7.526 0 0 0-3.247-.74 7.584 7.584 0 1 0 0 15.167 7.546 7.546 0 0 0 4.958-1.854 10.326 10.326 0 0 0 7.249 2.963c3.64 0 6.837-1.882 8.685-4.724a15.848 15.848 0 0 0 10.734 4.17c5.778 0 10.834-3.08 13.62-7.687a10.357 10.357 0 0 0 9.13 5.468c2.141 0 4.13-.65 5.782-1.763a7.583 7.583 0 0 0 15.12-.827 7.584 7.584 0 0 0-7.585-7.583m82.262 2.025c-.64 0-1.25.135-1.805.373.012-.16.024-.32.024-.484a6.234 6.234 0 0 0-10.656-4.396 9.577 9.577 0 0 0-18.615.292 6.23 6.23 0 0 0-7.744 2.655 4.532 4.532 0 0 0-1.953-.444 4.565 4.565 0 1 0 0 9.13 4.55 4.55 0 0 0 2.985-1.116 6.229 6.229 0 0 0 9.592-1.061 9.531 9.531 0 0 0 6.462 2.51 9.57 9.57 0 0 0 8.199-4.627 6.232 6.232 0 0 0 5.495 3.291 6.21 6.21 0 0 0 3.48-1.06 4.566 4.566 0 1 0 4.537-5.063" fill="#8CC400"/><mask id="az" fill="#fff"><use xlink:href="#ay"/></mask><path fill="#232C38" mask="url(#az)" d="M22.08 368.604h11.895v-93.479H22.08z"/><path fill="#151A21" mask="url(#az)" d="M29.06 368.604h4.915v-93.479h-4.914z"/><path fill="#232C38" mask="url(#az)" d="M24.371 276.8h7.313v-77.196h-7.313z"/><path fill="#151A21" mask="url(#az)" d="M29.06 276.8h2.624v-77.196h-2.625z"/><path fill="#3D4C61" mask="url(#az)" d="M18.212 368.64h19.63v-4.651h-19.63z"/><path fill="#384659" mask="url(#az)" d="M29.06 368.64h8.783v-4.651H29.06z"/><path fill="#3D4C61" mask="url(#az)" d="M20.951 276.8h14.154v-3.352H20.951z"/><path fill="#384659" mask="url(#az)" d="M29.011 276.8h6.094v-3.352h-6.094z"/><path fill="#3D4C61" mask="url(#az)" d="M34.601 201.994H21.455l-.504-2.388h14.154z"/><path fill="#FFF" mask="url(#az)" d="M35.048 199.605h-14.04l-2.536-25.74h19.11z"/><path fill="#E8E8E8" mask="url(#az)" d="M35.048 199.605h-7.02v-25.74h9.554z"/><path fill="#3D4C61" mask="url(#az)" d="M36.29 168.99H19.764l-1.29 4.875h19.109z"/><path d="M29.302 164.749h-2.549a3.698 3.698 0 0 0-3.698 3.698v1.323H33v-1.323a3.698 3.698 0 0 0-3.698-3.698" fill="#3D4C61" mask="url(#az)"/><path fill="#C9C9C9" mask="url(#az)" d="M423.14 371.661H401.6L397.87 369h21.54zm39.012 0h-21.54l-3.73-2.662h21.54z"/></g><g transform="translate(392.244 201.616)"><mask id="aB" fill="#fff"><use xlink:href="#aA"/></mask><path mask="url(#aB)" d="M1.202 1.163l2.586 42.35h25.798l2.587-42.35z"/></g><path fill="#000" d="M421.83 245.128h-12.899V202.78h15.485z"/><g transform="translate(432.133 201.616)"><mask id="aD" fill="#fff"><use xlink:href="#aC"/></mask><path mask="url(#aD)" d="M1.133 1.163l2.586 42.35h25.798l2.587-42.35z"/></g><path fill="#F0F0F0" d="M426.313 270.108h4.74v-81.693h-4.74z"/><path fill="#E3E3E3" d="M431.053 270.108h-2.388l.019-81.693h2.369z"/><path d="M434.47 265.598h-11.608c-.628 0-1.137.51-1.137 1.137v3.373h13.88v-3.373c0-.628-.508-1.137-1.136-1.137" fill="#D4D4D4"/><path fill="#F09B09" d="M425.354 203.975h-32.789v-3.403l16.395-3.503 16.394 3.503z"/><path fill="#FFBF00" d="M392.566 203.974h32.788v-3.402h-32.788z"/><path fill="#000" d="M425.354 203.975H408.93l.03-6.906 16.394 3.503z"/><path d="M410.396 196.11a1.435 1.435 0 1 1-2.87.002 1.435 1.435 0 0 1 2.87-.001" fill="#F09B09"/><path fill="#000" d="M448.751 245.128h-12.899l-2.586-42.349h15.485z"/><path fill="#1554B3" d="M465.146 203.975h-32.789v-3.403l16.394-3.503 16.395 3.503z"/><path fill="#1963D4" d="M432.356 203.974h32.79v-3.402h-32.79z"/><path fill="#000" d="M448.751 203.975h-16.394v-3.403l16.394-3.503z"/><path d="M450.187 196.11a1.435 1.435 0 1 1-2.87.002 1.435 1.435 0 0 1 2.87-.001" fill="#1554B3"/><path d="M434.066 188.415a5.382 5.382 0 1 1-10.765 0 5.382 5.382 0 0 1 5.382-5.381 5.382 5.382 0 0 1 5.383 5.38" fill="#F0F0F0"/><path d="M428.683 183.99a5.38 5.38 0 0 1 5.357 4.904 5.05 5.05 0 0 0 .026-.479 5.383 5.383 0 0 0-10.765 0c0 .162.01.32.024.479a5.38 5.38 0 0 1 5.358-4.904" fill="#F7F7F7"/><path fill-opacity=".5" fill="#FFF" d="M83.654 208.55h78.093v-85.377H83.654z"/><path fill="#325B6E" d="M175.217 207.354h78.093v-84.18h-78.093z"/><path fill-opacity=".49" fill="#FFF" d="M265.266 207.354h78.092v-84.18h-78.092z"/><path d="M375.208 110.25H55a.98.98 0 0 1-.921-1.313l11.258-31.115a.98.98 0 0 1 .921-.646H363.95a.98.98 0 0 1 .923.646l11.257 31.115a.979.979 0 0 1-.922 1.313" fill="#325B6E"/><path fill="#151A21" d="M72.858 260.826h281.914v-3.71H72.858zM360.91 114.08H64.611a1.914 1.914 0 1 1 0-3.83H360.91a1.914 1.914 0 0 1 0 3.83M71.662 124.47h283.11v-2.394H71.662zm0 93.38h283.11v-3.144H71.662zm0-9.3h283.11v-2.394H71.662z"/><path fill="#C9C9C9" d="M370.58 278.842H58.413l10.712-9.086 288.963.36z"/><path fill="#232C38" d="M69.198 270.065h7.316V114.08h-7.316z"/><path fill="#151A21" d="M73.73 270.065h2.784V114.08H73.73z"/><path fill="#232C38" d="M351.453 270.116h6.636V114.08h-6.636z"/><path fill="#151A21" d="M351.453 270.116h2.54V113.939h-2.54z"/><path fill="#945600" d="M83.672 245.428h259.09v-9.663H83.671z"/><path fill="#A66100" d="M83.672 238.314h259.09v-2.55H83.671z"/><path fill="#824C00" d="M83.672 273.271h12.39v-27.843h-12.39z"/><path fill="#754400" d="M90.83 273.271h5.231v-27.843h-5.23zm116.192 0h12.39v-27.843h-12.39z"/><path fill="#824C00" d="M209.063 273.271h8.017v-27.843h-8.017zm121.309 0h12.39v-27.843h-12.39z"/><path fill="#754400" d="M330.372 273.271h4.58v-27.843h-4.58z"/><g transform="translate(53.186 76.63)"><mask id="aF" fill="#fff"><use xlink:href="#aE"/></mask><path fill="#40738C" mask="url(#aF)" d="M.834 13.935H321.15V-13.19H.834z"/></g><text font-family="FiraSans-Medium, Fira Sans" font-size="6.518" font-weight="400" letter-spacing=".025" fill="#FFF" transform="translate(0 -99)"><tspan x="194.299" y="237.662">B</tspan> <tspan x="198.319" y="237.662" letter-spacing="-.014">U</tspan> <tspan x="202.542" y="237.662">S </tspan> <tspan x="207.871" y="237.662" letter-spacing="-.112">S</tspan> <tspan x="211.272" y="237.662" letter-spacing="-.203">T</tspan> <tspan x="214.296" y="237.662">OP</tspan></text><path fill="#325B6E" d="M361.867 179.038h36.667v-43.08h-36.667z"/><path fill="#232C38" d="M355.588 134.761h47.628v-3.27h-47.628z"/><path fill="#151A21" d="M358.081 134.761h45.135v-1.635h-45.135z"/><path fill="#EDEDED" d="M190.888 203.211h46.75v-58.398h-46.75z"/><path fill="#C94245" d="M190.888 149.88h46.75v-5.067h-46.75z"/><path fill="#D9D9D9" d="M194.614 154.996h9.335v-1.137h-9.335zm0 3.41h9.335v-1.137h-9.335zm0 3.409h9.335v-1.136h-9.335zm0 3.411h9.335v-1.137h-9.335zm13.403-10.23h9.335v-1.137h-9.335zm0 3.41h9.335v-1.137h-9.335zm0 3.409h9.335v-1.136h-9.335zm0 3.411h9.335v-1.137h-9.335zm13.403-10.23h9.335v-1.137h-9.335zm0 3.41h9.335v-1.137h-9.335zm0 3.409h9.335v-1.136h-9.335zm0 3.411h9.335v-1.137h-9.335zm-26.806 5.356h9.335v-1.137h-9.335zm0 3.41h9.335v-1.137h-9.335zm0 3.411h9.335v-1.137h-9.335zm0 3.41h9.335v-1.137h-9.335zm13.403-10.231h9.335v-1.137h-9.335zm0 3.41h9.335v-1.137h-9.335zm0 3.411h9.335v-1.137h-9.335zm0 3.41h9.335v-1.137h-9.335zm13.403-10.231h9.335v-1.137h-9.335zm0 3.41h9.335v-1.137h-9.335zm0 3.411h9.335v-1.137h-9.335zm0 3.41h9.335v-1.137h-9.335zm-26.806 5.355h9.335v-1.137h-9.335zm0 3.41h9.335v-1.137h-9.335zm0 3.412h9.335v-1.137h-9.335zm0 3.41h9.335v-1.136h-9.335zm13.403-10.232h9.335v-1.137h-9.335zm0 3.41h9.335v-1.137h-9.335zm0 3.412h9.335v-1.137h-9.335zm0 3.41h9.335v-1.136h-9.335zm13.403-10.232h9.335v-1.137h-9.335zm0 3.41h9.335v-1.137h-9.335zm0 3.412h9.335v-1.137h-9.335zm0 3.41h9.335v-1.136h-9.335z"/><path fill="#FFF" d="M83.653 169.557l77.93-25.018v-8.661l-77.93 25.018zm0 16.841l77.93-25.019v-8.661l-77.93 25.018zm181.694-16.841l77.93-25.018v-8.661l-77.93 25.018z"/><path fill-opacity=".5" fill="#FFF" d="M265.347 186.398l77.93-25.019v-8.661l-77.93 25.018z"/><path d="M389.595 168.667h-18.789c-1.2 0-2.174-.972-2.174-2.173v-21.7c0-1.179.956-2.135 2.134-2.135h18.868c1.18 0 2.134.956 2.134 2.134v21.701c0 1.2-.973 2.173-2.173 2.173m-15.778 5.293a2.075 2.075 0 0 1-2.074-2.075v-3.218h4.15v3.218c0 1.145-.93 2.074-2.076 2.074m13.364.001a2.075 2.075 0 0 1-2.075-2.075v-3.218h4.15v3.218c0 1.145-.93 2.074-2.075 2.074" fill="#FFF"/><path d="M387.052 145.153H372.59a.569.569 0 1 1 0-1.137h14.462a.569.569 0 1 1 0 1.137m2.642 11.947h-19.107v-8.646c0-.766.621-1.387 1.386-1.387h16.336c.764 0 1.385.621 1.385 1.387v8.645zm-18.827 9.293h3.19v-3.19h-3.19zm3.549-2.593h11.328v-.598h-11.328zm0 .998h11.328v-.599h-11.328zm0 .997h11.328v-.598h-11.328zm12.086.598h3.192v-3.19h-3.192z" fill="#325B6E"/><path fill="#000" d="M380.2 179.038h-18.334v-43.08h18.214z"/></g></svg>