<svg width="143" height="180" viewBox="-1 -1 143 180" xmlns="http://www.w3.org/2000/svg"><path fill="#F7EC1E" d="M44.804 126.393l4.513 2.012 7.963 2.255 6.147 1.363 8.804 1.341 11.332 1.06 8.637-.602 11.17-2.115 8.122-2.701 9.126-4.605 2.707-2.002-6.317-9.157-6.418-9.665-6.894-8.854-1.931-2.959-1.404-4.405-2.204-7.208-1.286-.685h-1.932l-9.07 2.387-8.272.4-2.608.601-4.613 2.864-.428 2.943-.942 3.767.035 2.901-1.815 2.942-4.571 5.507-5.375 6.707-6.258 7.809-3.51 4.905-2.708 3.194"/><path fill="#30419A" d="M123.045 120.317c-.696-1.093-1.552-2.092-2.284-3.179-.738-1.094-1.431-2.219-2.171-3.313-.907-1.338-1.871-2.637-2.758-3.988-1.134-1.727-2.122-3.554-3.342-5.216-1.422-1.939-3.052-3.722-4.54-5.614-1.168-1.485-2.248-3.04-3.387-4.548-.251-.332-.565-.628-.896-.968-.017-.015-.036-.028-.052-.047l-.067-.073c-.008-.009-.014-.015-.021-.025-.311-.344-.536-.627-.74-1.033-.19-.375-.446-.776-.859-.929-.448-.166-.976-.108-1.053.394-.096.628.209 1.141.571 1.623.327.434.64 1.192 1.078 1.502.146.103.288.21.399.343 1.059 1.287 2.135 2.561 3.134 3.892a164.653 164.653 0 0 1 3.729 5.188c.134.01.268.074.382.221a35.336 35.336 0 0 1 2.886 4.36c.597.661 1.191 1.324 1.682 2.055 1.579 2.349 3.046 4.775 4.541 7.18.518.833.952 1.719 1.485 2.542.336.519.783.965 1.296 1.584-.016-.018-6.212 3.595-6.801 3.894a58.479 58.479 0 0 1-3.678 1.717c-1.343.57-2.774.868-4.114 1.437-.876.372-1.577.805-2.53.989-1.336.257-2.647.681-3.973 1.002-1.21.293-2.481.328-3.648.654-1.378.384-2.892.606-4.31.884-.419.083-.76.226-.857.533-.065-.005-.13-.012-.197-.014-.68-.019-1.427.105-1.949.113-1.194.018-2.387.037-3.581.045-1.166.008-2.331.007-3.497.005-.464-.001-2.072-.233-2.589.23-.604-.311-1.352-.314-2.038-.349-.895-.045-1.833.114-2.719-.017-1.094-.162-2.189-.261-3.292-.394-1.635-.197-3.246-.523-4.866-.785-1.288-.209-2.608-.628-3.889-.839-.614-.101-1.283-.132-1.882-.287-.963-.25-1.786-.721-2.783-.933a68.332 68.332 0 0 1-3.709-.872c-1.615-.439-3.165-1.112-4.744-1.679-.931-.335-1.873-.641-2.793-1.005-1.225-.484-1.231-.681-.527-1.744.876-1.322 1.744-2.661 2.464-4.07 1.179-2.309 2.908-4.181 4.575-6.113 1.885-2.184 3.814-4.332 5.639-6.566 1.742-2.133 3.345-4.378 5.062-6.532.828-1.038 1.769-1.991 2.73-3.052.175-.193.226-.347.451-.488.216-.137.491-.152.67-.355.375-.426.415-1.066.158-1.575-.518-1.027-1.352.168-1.727.671-.17.229-.349.463-.537.694-.543.666-1.164 1.304-1.893 1.71l-.021.009c-.49.665-.918 1.251-1.351 1.827-.395.525-.802 1.04-1.202 1.562-.589.767-1.134 1.575-1.775 2.297-.953 1.069-2.02 2.039-2.951 3.126-.799.934-1.475 1.972-2.205 2.966-.878 1.195-1.739 2.403-2.635 3.584-.687.904-1.412 1.779-2.13 2.658-.32.391-.666.761-.997 1.142-.63.723-1.402 1.369-1.858 2.19-1.024 1.844-2.072 3.649-3.596 5.138-.226.22-.39.501-.643.831.482.413.867.853 1.348 1.123.428.242.977.258 1.446.442 1.167.459 2.306.987 3.479 1.431 1.58.598 3.171 1.17 4.775 1.701 1.051.349 2.14.582 3.201.906.582.177 1.178.105 1.764.212.485.09.997.26 1.476.4.539.157 1.024.366 1.584.487 1.422.31 2.855.552 4.289.813 2.847.517 5.64 1.191 8.543 1.191.969 0 1.933.05 2.906.05.798 0 1.861.225 2.525-.287a1.17 1.17 0 0 0 .212-.21c.347.205.729.36.901.39.797.138 1.616.188 2.427.204 1.518.032 3.059-.141 4.551.061 1.299.176 2.496-.049 3.736-.241.426-.065.924.223 1.074-.323.018-.064.015-.141.015-.216l.321.022c1.305.093 2.588-.124 3.861-.354.814-.146 1.626-.187 2.427-.36 1.082-.233 2.105-.626 3.175-.928 1.69-.476 3.429-1.05 5.07-1.612 1.401-.478 2.823-1.13 4.183-1.71 1.784-.763 3.509-1.665 5.227-2.569 1.193-.628 2.35-1.331 3.488-2.055 1.137-.724 2.611-1.49 3.53-2.46-.517-.822-1.284-1.473-1.809-2.298z"/><path fill="#F7EC1E" d="M68.062 94.717l-2.405-2.933-1.278-4.28 2.331-1.791 2.783-.311-.752 7.528-.679 1.787"/><path fill="#FABFBD" d="M62.975 87.429l-6.32 2.158-1.377.845-.784 2.096v5.413l1.747 2.157 1.294.478 5.44-2.26 3.961-2.253v-1.651l-2.557-3.379-.527-2.967-.877-.637"/><path fill="#30419A" d="M65.843 87.492c.783-.3 1.629-.654 2.451-.828.598-.126 1.193-.086 1.539-.701.177-.316.195-.811-.044-1.104-.352-.43-.872-.104-1.317-.007-1.235.271-2.51.389-3.662.949-2.628 1.277-5.467 2.123-8.227 3.125-.532.192-1.126.287-1.523.705-.341.358-.758.914-.572 1.439.217.612 1.133.184 1.525.064.889-.27 1.78-.542 2.658-.854 1.182-.419 2.375-.828 3.509-1.355 1.379-.641 1.527-.468 1.736.679.342 1.874.936 3.674 2.011 5.287.351.528.152.93-.426 1.214-2.066 1.013-4.096 2.105-6.189 3.058-.505.229-3.977.963-2.886 2.204.71.806 2.681-.394 3.385-.677l4.068-1.63.139-.056a.6.6 0 0 1 .224-.156 25.859 25.859 0 0 0 1.66-.78c.337-.171.631-.565.939-.791.287-.21.597-.383.887-.588.511-.361 1.025-.813 1.333-1.367.237-.424.252-1.119-.074-1.506-.212-.253-.408-.157-.653-.277-.31-.152-.573-.628-.766-.913-.92-1.356-1.367-2.932-1.924-4.453-.07-.186.058-.628.199-.681z"/><path fill="#FABFBD" d="M104.377 81.503v3.145l-1.213 2.787-.701 3.003s.685 1.202.957 1.352c.271.15 4.408 1.146 4.408 1.146s2.181.148 2.557.214c.376.066.721.157.864-.002.144-.159 1.824-1.059 1.824-1.059l1.298-3.378v-3.304l-1.238-1.877-3.733-1.276-3.606-.751h-1.417z"/><path fill="#F7EC1E" d="M102.788 80.602l-2.933-.751h-1.529l.702 2.328 1.556 5.893.851 2.742 1.028-.376.701-4.129.528-2.536v-2.946l-.904-.225"/><path fill="#30419A" d="M104.388 91.339c-.876-.176-.832-.661-.716-1.216.19-.907.504-1.788.71-2.692.376-1.652.71-3.315 1.106-5.178-.005.023 4.345 1.071 4.74 1.168.857.212 2.065.682 2.906.109.285-.195.389-.625.221-.899-.327-.534-1.609-.756-2.157-.872-1.003-.213-2.027-.319-3.024-.561-1.975-.478-3.931-1.032-5.893-1.565-.922-.25-1.872-.474-2.775-.785-.633-.218-1.195-.381-1.335.486-.165 1.02.869 1.358 1.664 1.495 1.161.201 2.314.469 3.468.702.042 2.607-.302 5.016-1.313 7.293-.615.069-.946.789-.968 1.375-.022.597.019 1.392.369 1.883.766 1.077 1.904.903 3.045 1.104 1.592.281 3.12.621 4.654 1.147.477.163 2.271.771 2.538.031.543-1.504-1.864-1.768-2.749-1.986-1.492-.367-2.984-.737-4.491-1.039z"/><path fill="#FABFBD" d="M78.179 82.755l-4.43.29-2.891 2.013-.93 2.302-.942 7.364v9.756l.942 3.804 6.145-1.338h4.613l1.705-1.555 2.651-.911 3.366.5 1.905 1.202 6.92-.791 3.604.49h1.611L100.837 95.7l-.698-9-2.001-5.346-1.428-3.004-3.99 1.903-4.814 1.501-7.746 1.001h-1.981m-7.408 30.622l4.743-.588 5.549-.401 2.982.855 1.805.431 2.257-.643 2.006-1.143h3.81l6.218-.847 2.307.447.701 3.303-3.71 3.504-4.52 2.102s-5.107.932-5.408 1.467c-.301.535-2.758 1.055-2.758 1.055l-2.708-1.055-5.766-.864-3.888-1.504-2.963-3.003-.657-3.116z"/><path fill="#FFF" d="M87.505 86.7h-3.961l-3.384.761-2.482 2.302-1.304 2.666.601 3.271 2.608 2.373 3.87 1.101h2.397l3.36-1.502 2.799-1.972.41-2.764-1.304-3.574-1.504-1.901-2.106-.761"/><path fill="#EF453E" d="M101.445 105.391h-6.526l-4.204.49-3.755-1.116-2.563-.063-2.006.689-2.231.891-8.732 1.675-1.5.327v5.391l4.463-.432 4.779-.717 2.719-.438 2.508 1.587s.7-.016 1.453 0c.753.015 2.458-.886 2.458-.886l2.506-1.748 1.605.847 5.719-.574 4.31-.727-.078-5.196h-.925z"/><path fill="#30419A" d="M103.624 111.716c-.03-.197-.066-.389-.096-.566-.124-.73-.162-1.44-.157-2.183.009-1.929.044-3.882-.555-5.74-.503-1.563-.424-3.314-.586-4.982-.11-1.128-.187-2.259-.279-3.388l.018-.009-.142-2.733s-.171-3.255-.187-3.253l-2.115-7.595a.543.543 0 0 1-.157-.306c-.139-.832-.014-1.887-.637-2.534a1.286 1.286 0 0 0-.367-.078 2.323 2.323 0 0 0-1.053.261c-1.109.599.067 2.051.322 2.791.263.761.714 1.475.872 2.252.463 2.275.852 4.566 1.211 6.86.262 1.661.444 3.334.637 5.005.251 2.176.468 4.356.72 6.533.1.862.324 1.725-.331 2.562-1.515-.855-3.071-.349-4.598-.238-1.254.09-2.501.259-3.75.401-.285.033-.567.095-.848.155-.627.134-1.173.166-1.786-.255-1.721-1.183-5.966-1.828-8.06.131-.314.294-.93.298-1.416.372-.765.116-1.55.122-2.307.273-2.404.481-4.798 1.01-7.198 1.506-.189.039-.402-.039-.693-.072 0-2.103.01-4.164-.007-6.224-.004-.475-.147-.949-.14-1.423.039-2.7.014-5.406.199-8.097.095-1.378.731-2.719.839-4.099.066-.854.628-1.168 1.036-1.673.149-.185.442-.26.677-.367.454-.206 1.081-.279 1.335-.626.2-.275.629-.437.492-.813-.095-.26-.531-.443-.77-.518-.428-.134-1.025-.18-1.44.055-.448.255-.548.66-1.054.846-.607.224-1.216.442-1.827.65-.043.015-.086.026-.132.05-.316.689-.447 1.439-.612 2.173-.014.066-.046.113-.074.164l-.295 6.644c-.018-.019-.031-.039-.049-.058.117.732.072 1.465-.082 2.197.042 1.467-.047 2.927-.162 4.388.287 2.518.566 5.038.852 7.556.142 1.251.301 2.501.455 3.751.014.117.116.294.072.339-.771.788-.636 2.725.316 3.343.787.513 1.228-.055 1.776-.526.679-.585 1.777-.402 2.601-.551 1.877-.341 3.8-.421 5.691-.702 1.513-.225 2.851.358 4.135.899.954.403 1.869.532 2.793.381 1.434-.235 2.745-.817 3.846-1.842.29-.27.824-.357 1.254-.384 1.152-.071 2.309-.062 3.463-.087 1.439-.032 2.878-.083 4.317-.088.473-.002.946.031 1.417.063.561.04.644-.012.851.47.274.642 1.074 1.277 1.592.469.278-.434.251-1.003.173-1.53zm-24.505-.048c-1.31.2-2.484.43-3.669.548-1.257.124-2.526.108-3.785.218-.587.052-.749-.223-.806-.701-.106-.889-.215-1.778-.334-2.755 3.005-.822 5.929-1.606 9.086-1.501-.804 1.386-.743 2.764-.492 4.191zm10.137-.737c-.806.663-1.672 1.28-2.588 1.777-.881.478-1.603.164-2.341-.714-.253-.3-.614-.508-.927-.758l-.178.204c-.148-.018-.301-.069-.443-.049-.538.076-1.258.435-1.408-.378-.136-.733-.22-1.701.145-2.252.728-1.094 1.67-2.131 2.743-2.878.609-.423 1.65-.266 2.499-.298 2.004-.074 2.745 1.337 3.271 2.915.32.96-.03 1.822-.773 2.431zm10.923-.701c-1.884.242-3.797.265-5.696.403-.596.042-1.19.199-1.783.194-.203-.002-.533-.309-.582-.526-.192-.844-.225-1.728-.451-2.561-.205-.759-.116-.956.662-1.03.951-.091 1.893-.361 2.84-.368 1.953-.015 3.908.073 5.859.173.198.01.474.361.544.602.14.482.162.997.233 1.499.041 1.257-.023 1.409-1.626 1.614zm-14.932 9.708c-.969.358-2.45 2.41-1.262 3.215.485.329 1.095.225 1.621.466.812.37 1.146.196 1.146-.7 0-.569-.145-1.146-.352-1.672-.105-.268-.778-1.446-1.153-1.309z"/><path fill="#30419A" d="M89.112 86.622c-1.288-.382-2.618-.624-3.812-.903-1.645.25-3.131.348-4.546.72-1.814.477-2.893 1.985-4.066 3.325-1.16 1.325-1.615 4.852-.651 6.328 1.458 2.23 3.5 3.796 6.136 4.311 3.75.734 6.73-.871 9.404-3.347 3.132-2.898 1.663-9.208-2.465-10.434zm1.258 8.814c-1.74 2.196-4.005 3.129-6.826 3.001-2.325-.106-3.957-1.299-5.399-2.907-.742-.828-.7-3.329-.022-4.487 1.422-2.427 3.552-3.404 6.325-3.084l.04-.245c1.312.283 2.639.513 3.933.861 2.449.658 3.764 4.57 1.949 6.861z"/><path fill="#FABFBD" d="M73.339 147.218l-4.316-1.701-7.455-3.108-2.404-.997.634-1.877 2.058-5.444 2.746-2.392 5.363 1.078 4.076 2.215 2.971 3.592-2.306 6.632-1.367 2.002"/><path fill="#EF453E" d="M73.803 147.819l-4.394-2.15-7.841-3.26-2.404-.597-1.867 4.605-1.116 5.006-.83 1.301-4.112-1.601h-3.911l-4.842 1.601-2.779 3.204-.903 3.804v4.005l2.006 3.804 2.529 3.304 5.193 2.402 6.819 2.403 5.114 1.101 1.737-.3 1.472-1.627 1.641-5.481 1.62-4.906 3.03-7.408 3.838-9.21"/><path fill="#30419A" d="M73.894 145.251c-.398.919-.698.965-1.63.628-2.338-.847-4.692-1.648-7.035-2.481-1.446-.514-2.877-1.069-4.326-1.574-.52-.181-.79-.507-.684-1.063.09-.479.218-1.083.403-1.534.374-.908 3.823-7.368 2.026-7.728-1.034-.208-1.75 2.096-1.996 2.747a50.676 50.676 0 0 0-.667 1.841c-.322.969-.766 1.841-1.006 2.842-.209.871-.33 1.792-1.182 2.285-.113.065-.211.374-.152.48.401.727-.037 1.225-.384 1.791-.275.45-.502.954-.633 1.463-.461 1.793-.831 3.61-1.315 5.396-.321 1.184-.533 1.289-1.655.718-2.453-1.248-5.021-1.378-7.618-.773-1.926.449-3.591 1.492-4.981 2.916-1.206 1.235-2.393 2.592-2.695 4.289-.501 2.828-1.081 5.682.353 8.515.903 1.783 1.863 3.611 3.347 4.988 1.59 1.477 3.248 2.181 5.245 2.93 1.258.472 2.543.885 3.813 1.316 1.975.67 3.955 1.216 5.942 1.98 1.582.609 3.078 1.212 4.849 1.13 1.436-.066 1.8-1.706 2.367-2.713.747-1.327 1.344-2.68 1.883-4.113.451-1.203.713-2.474 1.101-3.702.177-.563.495-1.083.676-1.646.216-.674.291-1.396.537-2.056.704-1.882 1.481-3.738 2.197-5.616.77-2.018 1.453-4.071 2.266-6.072.943-2.321 2.003-4.594 2.978-6.903.312-.737.614-1.488.907-2.234.243-.615.417-1.227.669-1.83.407-.975 1.276-2.062 1.099-3.173-.194-1.224-1.547-.229-1.946.312-.355.479-.555 1.05-.763 1.592-.353.923-.854 1.815-1.165 2.75-.26.776-.493 1.538-.825 2.302zm-1.47 4.111a497.093 497.093 0 0 0-2.739 6.737c-1.094 2.757-2.151 5.528-3.239 8.288-.161.407-.35.811-.543 1.214-.311 1.589-1.029 3.06-1.455 4.618a7.85 7.85 0 0 1-.101.415c-.035.152-.074.303-.101.457a.612.612 0 0 1-.112.261c-.223.68-.482 1.339-.675 2.032-.198.707-.526 1.191-.959 1.483-.225.477-.719.83-1.38.675-2.84-.667-5.903-1.379-8.678-2.278-2.339-.759-4.937-1.454-7.123-2.613-1.16-.227-1.996-1.158-2.755-2.013-1.083-1.22-1.947-2.681-2.667-4.154-.369-.755-.216-1.765-.293-2.661-.262-3.046.834-5.549 3.154-7.488 2.267-1.894 3.856-2.377 6.932-2.197 1.525.487 3.588.321 4.935 2.113.563.749 1.686.141 1.959-.965.596-2.408 1.189-4.818 1.843-7.209.202-.745.657-1.419.881-2.161.202-.67.523-.66 1.064-.442 1.992.803 3.983 1.61 5.996 2.351 1.606.59 3.245 1.089 4.869 1.63.171.057.346.108.51.18 1.14.499 1.153.576.677 1.727z"/><path fill="#FABFBD" d="M69.949 114.355l-1.477 3.651-3.174 7.008-2.342 5.658.163 4.825.376.829.752.788s1.209.914 1.912 1.014c.702.1 2.714 1.014 2.714 1.014l3.309.15 2.257.263 1.501-.708 1.77-.943 2.47-6.184 3.294-6.206 1.256-3.38-.664-2.195-2.257-1.533s-4.111-2.302-4.412-2.302c-.301 0-3.61-.748-3.61-.748l-3.838-1.001z"/><path fill="#30419A" d="M70.791 113.388c-.479-.289-1.233-.081-1.555.359-.363.496-.012 1.191-.405 1.756-.751 1.076-1.315 2.289-1.89 3.475a126.954 126.954 0 0 0-2.195 4.807c-.973 2.239-1.912 4.495-2.892 6.814-.17.791-.537 1.583-.93 2.375.013.012.026.02.038.034l-.093.291c-.003.164.012.327.024.49a.63.63 0 0 1 .05.247c.001.74 1 .405 1.681.164.738-1.994 1.48-3.986 2.25-5.968a144.724 144.724 0 0 1 3.409-8.04c.624-1.361 1.492-2.609 2.252-3.907.238-.406.474-.813.729-1.208.377-.582.156-1.31-.473-1.689zm14.629 8.485c-.046-.397-.201-.657-.612-.714-1.017-.14-1.418 1.414-1.768 2.08-.557 1.064-1.142 2.114-1.632 3.212-.443.992-.493 2.157-.912 3.165-1.21 2.907-2.466 5.795-3.714 8.686-.127.813.554 2.055 1.482 1.075.099-.105.188-.216.277-.327.538-1.233 1.081-2.464 1.623-3.694.136-.309.331-.591.462-.821l.016.011c.113-.252.228-.51.259-.771a.791.791 0 0 1 .203-.459c.492-1.258.926-2.356 1.347-3.452.747-1.945 1.488-3.893 2.227-5.843.125-.331.411-.561.548-.902.158-.389.243-.829.194-1.246z"/><path fill="#FABFBD" d="M99.965 144.016l4.613-2.703 4.832-2.202 3.673-1.703-2.336-5.306-2.383-1.449s-3.645.101-4.287.248c-.641.147-4.499 1.661-4.851 1.576-.58-.138-3.346 2.553-3.346 2.553l-.188 2.253 4.273 6.733z"/><path fill="#EF453E" d="M128.546 144.016l-5.215.758-5.32 2.045-4.566-8.71-5.957 2.403-7.523 3.504 2.508 5.105 5.015 8.01 3.812 6.207 2.955 5.406 3.756 4.204s1.81-.1 2.211 0c.402.101 3.611-.8 3.611-.8l6.117-3.805 5.716-5.906 2.206-4.405v-3.712l-.702-4.798-1.705-2.303-3.008-2.445-3.911-.758z"/><path fill="#30419A" d="M139.042 152.249a20.948 20.948 0 0 0-2.231-5.622c-.784-.746-1.671-1.335-2.64-1.931-4.632-2.849-10.935-2.116-15.387.797-.37.242-.671.219-.84-.263-.679-1.949-1.781-3.677-2.82-5.443-.24-.408-.254-.974-.286-1.473-.045-.695.186-1.619-.606-1.876-.433-.14-.873-.421-1.126-.808-.26-.395-.269-.881-.462-1.307-.235-.519-.535-1.031-.803-1.538-.35-.661-.514-1.534-1.035-2.084-.51-.539-1.337-.396-1.39.423-.039.604.211 1.028.365 1.585.22.79.569 1.479.932 2.228.266.547.83 1.614.395 2.196-.234.313-.728.459-1.176.591-.212.063-.413.122-.571.194-1.914.862-3.772 1.848-5.678 2.73-1.027.475-2.123.8-3.154 1.267-.777.352-1.275-.116-1.647-.764-.431-.751-.958-1.521-1.319-2.3-.213-.461-.394-.933-.629-1.372-.365-.682-.804-1.318-1.696-1.173-1.101.178-.2 1.698.133 2.224.438.693.906 1.35 1.25 2.1.256.558.713.997.97 1.551.277.593.557 1.161.898 1.733.83 1.391 1.787 2.706 2.639 4.084.693 1.122 1.273 2.314 1.977 3.426.975 1.539 2.076 3 3.018 4.557.945 1.564 1.74 3.217 2.635 4.812 1.239 2.205 2.485 4.404 3.736 6.6.556.975 1.05 2.044 1.761 2.91.598.728.827 1.549 1.354 2.329.309.458.539.869.883 1.291.703.858 1.012.901 2.174.901 4.19 0 7.088-2.545 10.551-4.51 3.094-1.755 5.539-4.244 7.495-7.128 1.902-2.805 2.563-6.02 2.415-9.367a56.103 56.103 0 0 0-.085-1.57zm-2.377 5.622c-1.178 3.836-3.784 6.661-6.796 9.205-1.3 1.098-2.65 2.057-4.205 2.678-2.179 1.516-4.976 3.07-6.536 2.4-.412.075-.78-.038-1.11-.267-1.273-.681-2.52-3.164-3.295-4.417a61.914 61.914 0 0 1-1.358-1.749c-.558-.757-.88-1.686-1.329-2.525a93.235 93.235 0 0 0-1.437-2.585c-.882-1.529-1.758-3.062-2.676-4.568-.651-1.067-1.419-2.065-2.045-3.146-1.285-2.217-2.492-4.48-3.771-6.7-.339-.588-.825-1.09-1.304-1.71 3.356-1.505 6.36-3.627 9.954-4.442.204-.047.396-.144.593-.221 1.819-.701 1.935-.743 2.596 1.067.691 1.893 1.687 3.635 2.443 5.489.211.518.384 1.081.423 1.633.048.663.511.823.961.865.367.034.831-.101 1.128-.325 2.135-1.603 4.246-3.159 7.062-3.452 2.072-.216 4.159-.29 5.987.634 1.864.943 3.477 2.344 3.981 4.602.294 1.314.839 2.59.986 3.914.132 1.188.096 2.487-.252 3.62z"/><path fill="#FABFBD" d="M113.454 94.007l.936-3.194.301-4.115.376-2.417-1.613-.509-1.696.876s-1.756 1.69-1.856 2.05c-.099.361-.715 3.07-.483 3.367.233.297.76 1.874.985 2.024.226.151 1.814 1.226 1.814 1.226l1.236.692z"/><path fill="#EF453E" d="M130.711 80.451h-2.933l-3.234 1.953-1.655 2.928s-1.128.246-1.353.386c-.226.14-5.609-1.945-5.609-1.945l-1.336 4.298-.426 5.244 1.762 1.408 3.202.52 1.053 2.628 1.354 2.71 3.335 1.945 3.735 1.201h3.61l4.136-2.59 2.332-3.116 1.579-3.298v-4.21l-.677-3.144-1.729-3.597-3.761-2.269-3.385-1.052z"/><path fill="#30419A" d="M141.609 89.82c-.093-2.108-1.017-4.038-2.45-5.582-2.268-2.444-5.14-3.934-8.408-4.572-3.447-.675-6.331.363-8.542 3.123-.412.513-.716 1.111-1.123 1.629-.126.159-.459.293-.645.243-1.677-.44-3.354-.883-5.004-1.411-.575-.184-4.551-2.175-4.355-.463.065.57.642.9 1.119 1.076.17.062 1.856.492 1.855.497-.182 1.382-.298 2.524-.489 3.653-.281 1.662-.615 3.314-.93 4.988-.46 0-.86.072-1.225-.012-.532-.124-2.112-.355-1.985.594.163 1.21 2.254 1.388 3.165 1.437 1.91.103 3.77.305 5.499 1.183.096.048.228.119.33.187.018.009.031.025.047.036.03.022.053.043.07.063a.54.54 0 0 1 .161.31c.03.187.075.379.125.573.088.239.179.477.269.715.187.247.379.49.511.761 1.25 2.573 3.463 4.135 5.878 5.452 1.809.989 3.771 1.269 5.803.985a10.03 10.03 0 0 0 4.916-2.116c1.891-1.517 3.237-3.51 4.228-5.728.268-.601.724-1.175.795-1.795.22-1.935.471-3.892.385-5.826zm-1.977 1.701c-.148 1.083-.153 2.199-.425 3.248-.557 2.15-1.826 3.927-3.272 5.577-.914 1.043-1.877 2.051-3.293 2.379-1.085.252-2.228.672-3.287.542-2.909-.36-5.497-1.462-7.124-4.119-.609-.993-1.185-1.969-1.519-3.13-.269-.933-.78-1.911-2.156-1.944-1.162-.028-2.315-.362-3.61-.584.13-1.536.221-2.954.383-4.365.075-.652.281-1.289.438-1.931.057-.234.181-.457.205-.692.116-1.141.128-1.203 1.239-.842.902.292 1.859.612 2.589 1.179.662.513 1.361.61 2.083.768.518.113 1.169-.513 1.275-1.17.449-2.798 2.395-4.167 4.416-4.744 2.322-.663 4.384-.025 6.365 1.071 2.06 1.139 3.948 2.504 4.908 4.767.535 1.263.98 2.568.785 3.99z"/><path fill="#FABFBD" d="M102.914 113.688h-2.075l-4.127 1.017-7.299 3.504-2.451 2.303-.206 2.421 2.858 4.787 3.953 6.719 3.23 2.19 2.745.188 2.908-.713 3.149-1.24 2.065-1.614.94-.976 1.266-1.599-5.515-12.366-.676-2.302-.765-2.319"/><path fill="#30419A" d="M95.51 137.784a.805.805 0 0 0 .209-.096c.315-.222.453-.496.492-.793 0-.078-.009-.158-.015-.238-.323-.538-.646-1.075-.975-1.609-.478-.776-1.109-1.455-1.601-2.222-.711-1.108-1.336-2.271-2.04-3.384-.992-1.569-2.034-3.108-3.038-4.67-.468-.729-.965-1.442-1.392-2.197-.373-.66-.55-1.775-1.56-1.525-.333.082-.412.331-.489.703-.283 1.365.565 1.987 1.279 2.981a128.101 128.101 0 0 1 2.553 3.662c.862 1.294 1.649 2.636 2.461 3.962.598.978.997 2.117 1.752 2.994a20.959 20.959 0 0 1 1.488 1.97c.28.17.578.344.876.462zm13.81-6.297l.047.027c.575.245.915-.151 1.356-.449.008-.25-.04-.516-.07-.722a.682.682 0 0 1 .011-.236c-.194-.47-.417-.923-.747-1.32a.688.688 0 0 1-.108-.182.108.108 0 0 0-.019.008c-.674-1.409-1.391-2.78-1.995-4.199-.83-1.947-1.579-3.928-2.353-5.897-.438-1.112-.963-2.203-1.252-3.352-.224-.893-.175-1.939-.499-2.789-.169-.445-.27-1.25-.849-1.313-1.982-.216-.348 3.676-.153 4.367.267.54.484 1.111.723 1.665 1.145 2.658 2.45 5.255 3.118 8.099.012.051.032.1.047.15.66 1.352 1.175 2.759 1.741 4.161.277.689.635 1.338 1.002 1.982z"/><path fill="#FFF" d="M80.871 82.442h-7.357l-7.353-.901-7.07-3.754-9.068-7.508-6.088-11.313.873-8.902 3.208-6.816 5.215-6.107 7.468-4.004 8.778-2.402 12.435-1.302 11.373 1.602 10.415 4.104 6.191 4.806 3.551 7.308 1.614 7.436-1.614 6.68-2.698 6.407-5.666 5.406-6.118 4.305-6.518 3.003-6.569 1.051-5.002.901"/><path fill="#FCF6B6" d="M77.6 82.292l-3.911-.751-6.459-4.805-4.071-4.28-2.46-6.007-1.972-.751-4.668-.75-2.482-3.079s.075-3.529 0-3.754c-.076-.225 1.73-4.205 1.73-4.205l2.86-1.126 3.533 1.051 2.488-1.051 2.701-4.956s4.935-3.378 5.062-3.453c.128-.076 6.446-1.652 6.446-1.652l7.671-.727 6.092 1.252 5.265 3.379 2.257 2.778 2.331.301 3.687-1.652 3.308.976 2.399 2.631.76 3.154v2.849l-1.743 2.703-2.107 1.777h-3.847s-.884 2.578-.58 2.804c.304.225.58 5.331.58 5.331l-1.611 5.255-1.674 1.802-3.836 2.169-7.671 2.261-5.566.676-4.512-.15z"/><path fill="#EF453E" d="M81.086 18.245l-3.26.676-4.501-1.051-5.279-5.857v-4.58s1.628-3.454 1.905-3.529c.278-.075 5.017-2.102 5.017-2.102h3.911l3.459 1.502 2.082 3.303 1.319 3.229v3.454l-1.319 2.628-3.334 2.327z"/><path fill="#30419A" d="M115.747 52.416c-.306-1.493-.585-3.001-.726-4.515-.221-2.376-1.16-4.498-2.5-6.357-1.243-1.724-2.824-3.223-4.366-4.705-.876-.841-1.941-1.505-2.981-2.15-1.097-.68-2.25-1.274-3.409-1.848-1.205-.597-2.394-1.371-3.678-1.637-3.801-.787-7.406-2.369-11.299-2.749a11.703 11.703 0 0 0-1.675-.026c-.696.032-1.39.164-2.085.163-.688-.002-1.378-.189-2.062-.163-.764.03-1.089-.293-1.231-.994-.479-2.371-.985-4.737-1.496-7.177.276-.093.521-.229.776-.253 2.689-.244 4.81-1.563 6.377-3.655.69-.922 1.06-2.125 1.411-3.251.427-1.367-.019-2.708-.32-4.07-.513-2.317-1.435-4.376-3.122-6.066C80.932.526 78.05-.493 74.731.646c-1.634.561-3.164 1.495-4.638 2.422-.894.562-2.029 1.306-2.29 2.193-.583 1.978-1.881 3.774-1.177 6.17.527 1.792 1.308 3.233 2.607 4.443a43.583 43.583 0 0 0 3.67 3.09c.761.566 1.456 1.354 2.593 1.256.593-.051.873.406.987.943.463 2.198.917 4.397 1.389 6.593.14.65-.226.761-.744.828-2.286.293-4.574.584-6.854.926-1.781.266-3.561.558-5.323.931-.988.21-1.946.579-2.898.931-.641.237-1.244.573-1.868.855-1.831.827-3.78 1.466-5.461 2.528-1.606 1.014-3.031 2.374-4.358 3.752-1.56 1.618-3.036 3.337-4.008 5.415-.937 2.005-2.036 3.942-2.836 5.997-.509 1.306-1.204 2.627-1.019 4.136.157 1.286.282 2.576.409 3.866.071.717-.011 1.476.202 2.146.413 1.305 1.016 2.549 1.482 3.84.965 2.667 2.43 4.994 4.512 6.939.585.547 1.019 1.257 1.606 1.802 1.145 1.063 2.31 2.109 3.537 3.074 1.201.945 2.438 1.863 3.751 2.639 1.329.786 2.788 1.349 4.159 2.07a22.76 22.76 0 0 0 6.694 2.299c.872.154 1.717.462 2.569.725 1.157.121 2.303.32 3.469.335.04.001.07.017.106.023.223-.044.46-.054.711-.067 1.924-.101 3.852-.179 5.766-.385 2.424-.262 4.83-.714 7.257-.951 2.324-.226 4.438-1.011 6.503-2.021.446-.218.789-.353 1.066-.398.881-.507 1.897-.71 2.767-1.231a3.168 3.168 0 0 1-.078-.022c.504-.24.872-.352 1.168-.565a134.346 134.346 0 0 0 3.673-2.732c1.063-.823 2.123-1.654 3.123-2.55.961-.86 1.917-1.746 2.743-2.731a43.796 43.796 0 0 0 3.053-4.096c.602-.918 1.134-1.938 1.428-2.988.588-2.105 1.035-4.253 1.457-6.4.273-1.402.407-2.82.111-4.26zM77.842 17.557c-.377-.645-1.112-.667-1.553-.372-.675.451-1.287.355-1.864.088-2.85-1.319-5.016-3.267-5.705-6.49-.038-.175-.027-.36-.044-.608.42-2.558 1.133-5.008 3.89-6.155 1.34-.558 2.686-1.277 4.092-1.47 2.645-.364 4.742.74 6.291 2.978 1.353 1.955 1.96 4.142 1.905 6.417-.041 1.71-.739 3.385-2.344 4.353-1.089.657-2.278 1.154-3.441 1.681-.494.224-.927.09-1.227-.422zm23.004 54.239c-.462 1.622-1.303 3.301-2.445 4.516-1.042 1.11-2.713 1.632-4.106 2.414-2.098 1.178-4.446 1.647-6.738 2.192-1.519.362-3.143.287-4.72.411-1.164.091-2.326.263-3.49.265-1.193.002-2.421-.021-3.571-.295-.876-.208-1.667-.802-2.472-1.265-1.854-1.066-3.756-2.073-5.199-3.711-.334-.38-.607-.814-.91-1.222-.336-.453-.643-.8-1.309-.955-.549-.128-1.115-.811-1.387-1.384-1.063-2.237-2.332-4.399-2.672-6.925-.204-1.509-.642-2.995-.739-4.507-.089-1.421.053-2.871.233-4.29.447-3.532 2.452-6.234 4.762-8.791 1.31-1.45 2.872-2.4 4.635-3.202 1.919-.873 3.943-1.121 5.946-1.593 2.949-.695 5.9-.447 8.845-.436 2.027.006 3.865.89 5.643 1.886 2.185 1.224 3.838 3.012 5.415 4.864 1.998 2.347 3.369 5.026 3.798 8.136.183 1.326.519 2.632.734 3.955.205 1.264.342 2.54.541 4.053-.226 1.838-.239 3.938-.794 5.884zm-.182-19.815c-.307-.733-.279-1.274.367-1.609 1.075-.556 2.208-1.003 3.333-1.456.193-.077.507-.017.701.093 1.259.715 2.734 1.208 3.389 2.639.427.934.657 1.957.933 2.812-.443 1.983-.643 3.898-1.87 5.409-.898 1.107-2.123 1.763-3.593 1.753-.222-.002-.575-.369-.64-.625-.362-1.418-.584-2.875-.987-4.28-.461-1.604-.991-3.197-1.633-4.736zm11.537 10.001c-1.635 4.866-4.974 8.536-8.999 11.618a1.265 1.265 0 0 1-.319.163c-.048.018-.113-.01-.28-.029.195-.755.393-1.496.576-2.24.603-2.452.689-4.938.395-7.431-.084-.707.168-.947.793-.996.6-.046 1.259.043 1.785-.179a9.832 9.832 0 0 0 2.27-1.377c2.254-1.799 2.877-4.31 2.793-7.025-.092-2.975-1.658-5.071-4.098-6.706-1.721-1.154-3.367-1.191-5.145-.328-.805.391-1.645.726-2.404 1.193-.53.327-.804.24-1.223-.174-1.51-1.496-3.012-3.009-4.63-4.382-1.496-1.271-3.21-2.288-5.146-2.723-2-.45-4.016-.986-6.118-.563-.423.085-.889-.064-1.338-.073-2.66-.053-5.212.58-7.798 1.102-2.704.545-5.05 1.844-7.227 3.325-1.692 1.152-3.009 2.887-4.05 4.735-.5.888-1.011 1.771-1.586 2.61-.099.143-.576.138-.824.05-.647-.233-1.247-.599-1.897-.824-2.867-.995-5.754.806-6.559 3.796a34.145 34.145 0 0 1-.665 2.14c-.505 1.468-.169 2.893.238 4.301.185.643.436 1.292.786 1.859 1.547 2.505 3.832 3.389 6.7 2.939.56-.088 1.133-.086 1.748-.129 1.118 3.067 1.983 6.154 3.936 8.859 1.959 2.716 4.898 3.963 7.54 5.685-.028.074-.058.147-.087.221-.854-.17-1.742-.243-2.556-.527-2.126-.744-4.252-1.502-6.313-2.403-1.692-.739-3.391-1.547-4.902-2.592-1.764-1.22-3.348-2.704-4.967-4.125-.799-.701-1.486-1.526-2.245-2.274-1.628-1.603-2.734-3.542-3.654-5.601-1.15-2.574-1.718-5.309-1.983-8.084-.109-1.142.194-2.353.469-3.495.771-3.202 2.288-6.107 4.091-8.812 1.269-1.904 2.859-3.619 4.456-5.275 2.153-2.23 5.026-3.346 7.797-4.575 3.498-1.551 7.297-1.79 11.008-2.36 2.491-.382 5.017-.537 7.531-.752.559-.048 1.134.124 1.7.121 1.376-.007 2.767-.198 4.124-.052 1.695.182 3.383.543 5.035.976 2.562.672 5.115 1.396 7.625 2.236 2.341.783 4.574 1.815 6.5 3.436 2.631 2.213 4.563 4.978 6.223 7.92 1.35 2.394 2.145 4.951 2.329 7.793.203 3.173-.465 6.139-1.435 9.028zM59.512 64.42c.019.179-.251.549-.412.562-3.212.265-5.79-.525-6.96-4.048-.632-1.903.797-5.926 2.544-6.858.571-.305 1.245-.418 1.64-.545 1.132.016 2.986 1.172 3.169 1.989.113.508-.175 1.091-.195 1.643-.07 1.902-.131 3.805-.127 5.706 0 .516.285 1.027.341 1.551z"/><path fill="#30419A" d="M94.876 56.356c-.27-.37-.969-.458-1.499-.595-.194-.05-.456.094-.667.191-1.385.635-2.746 1.323-4.151 1.91-1.216.509-2.453 1.015-3.728 1.328-1.858.454-3.758.738-5.642 1.085-1.027.189-2.057.36-3.086.539l-.005-.031c-.654.124-1.316.127-1.979.097-.627.061-1.253.111-1.883.139-1.316.125-2.633.247-3.951.351-.67.053-1.103.417-1.051.944.056.562.552 1.001 1.239.954 2.09-.142 4.178-.285 6.266-.447 1.737-.135 3.484-.219 5.205-.468a58.69 58.69 0 0 0 5.462-1.076c1.379-.334 2.737-.788 4.067-1.289 1.451-.546 2.852-1.22 4.289-1.809.565-.232 1.426-1.392 1.114-1.823zm-10.631-3.343c.215.088.482.103.806.018 1.094-.286 1.572-1.424.814-2.372-.47-.588-1.675-.938-2.101-.09-.397.791-.322 2.117.481 2.444zm-11.313 1.468c.052.033.106.061.163.085.437.179 1.253.208 1.549-.215.244-.348.174-1.025.056-1.406-.211-.683-1.223-1.532-1.951-1.057-.824.539-.62 2.09.183 2.593z"/><path fill="#EF453E" d="M54.497 101.026l-.545-5.79-.627-3.921-4.086 1.125s-1.605.477-2.006.508c-.401.03-1.504-.821-1.805-.846-.301-.025-2.937-2.344-2.937-2.344s-1.676.283-2.478 0c-.803-.284-4.212.516-4.212.516l-3.911 2.402-2.411 3.051-.757 3.959 1.097 4.054 2.556 4.956 3.627 2.356 4.513 1.348 4.312-1.118 2.708-2.986 1.403-2.303v-2.803l3.209-.701 2.35-1.463z"/><path fill="#9E7EB9" d="M37.017 89.374l.801-2.664-.4-1.485-1.517-2.522-2.005-3.5-.749-1.214.749-2.862.2-1.581-1.721-3.475-3.678-1.12s-1.586.938-1.804 1.12c-.217.181-2.825 2.885-2.825 2.885s-1.859.38-1.983.59c-.123.21-3.882-.59-3.882-.59l-3.044.59-1.687 1.581-1.265 1.332-1.176 3.019-2.006 1.866s-1.704-.079-2.406.171c-.703.251-2.655.326-2.655.326H2.867l-1.097.952-.666 2.433v2.156l2.206 1.992 2.808 1.452 1.805 1.276 1.304 1.918.602 2.838s.877 1.76 1.636 1.446c.758-.314 2.008 1.883 2.008 1.883l1.687 2.402v2.124l.385 1.848 2.659 1.735h1.956l1.926-1.735 1.103-2.821 1.881-.751 1.824-.4 1.804-.929.025-1.974.314-1.641.372-1.945 2.267-3.152 2.431-1.633 2.91-1.941z"/><path fill="#FABFBD" d="M54.497 100.136l-1.172-5.401v-2.783l.586-.637s2.202.262 2.275.412c.072.15 1.351 1.175 1.502 1.601.15.426.531 2.397.531 2.397l-.381 2.534-1.517 2.335-1.04.291-.784-.749z"/><path fill="none" d="M2.644 83.054c-.313.537-.707 1.129-.727 1.708-.034 1.001-.585 2.195.688 2.985 1.316-1.017 1.76-3.286.959-4.711-.287-.51-.69-.376-.92.018zm14.743 3.494c-.905-.176-1.867-.448-2.626.281-1.246 1.201-1.067 4.74.245 5.85.12.102.279.199.429.216.748.083 1.729.469 2.201.139 1.175-.82 2.448-1.737 2.523-3.426.012-1.8-.774-2.673-2.772-3.06zm14.325-13.002l1.435-.665c-.083-.149-.263-.456-.426-.77-.65-1.252-1.802-1.762-3.088-2.024-.281-.057-.723.041-.884.237-.126.154-.001.605.132.862.656 1.261 1.778 1.957 2.831 2.36zm-9.36 23.984c-.561.223-1.057.606-1.578.928l.077.415c.29.074.578.203.868.209.683.014 1.393-.067 1.351-.977-.009-.215-.567-.635-.718-.575zm-6.023 7.712c.117.567.056 1.274.343 1.471.763.518 1.659.866 2.543 1.161.205.069.642-.297.836-.564.095-.129-.078-.514-.208-.738-.727-1.243-1.935-1.352-3.514-1.33z"/><path fill="none" d="M31.763 91.874c.869-.762 2.049-1.162 3.052-1.785.633-.392 1.453-.772 1.739-1.372.586-1.234.752-2.593-.315-3.779-.192-.212-.282-.517-.421-.779-.467-.886-.739-1.995-1.443-2.612-1.788-1.568-2.322-3.331-1.552-5.539.015-.045-.044-.115-.075-.188-2.865-.315-4.075-2.705-5.781-4.693-.32.48-.65.882-.884 1.334-1.164 2.245-3.011 2.852-4.736 2.504-.902-.181-1.793-.418-2.699-.569-1.662-.279-4.769 1.143-5.589 2.605-.56 1.001-1.148 2.028-1.455 3.12-.574 2.041-3.132 3.253-4.752 3.078l-1.372-.146c0 1.234.137 2.256-.039 3.221-.174.95-.665 1.842-1.053 2.853.495.056 1.129.126 1.764.2.425.049.902-.005 1.264.172 1.443.705 1.603 2.221 2.077 3.519.434 1.19.553 2.576 1.248 3.57.718 1.025 1.966 1.678 2.976 2.499.201.163.411.329.567.532.882 1.151 1.682 2.339 1.429 3.957.882-.546 3.876-.119 5.58 1.528.727-.809 1.379-1.592 2.093-2.313.799-.807 1.868-.847 2.929-.984 1.04-.134 1.847-1.069 1.736-1.942-.156-1.232.046-2.358.424-3.541.602-1.886 1.894-3.227 3.288-4.45zM26.547 78.44c.444-.382 1.026-.112 1.314.62-.739.014-.578 1.661-1.651.863-.674-.5.017-1.207.337-1.483zm-8.967-1.805c.233.011.539.156.655.339.08.129-.101.427-.177.645-.127.362-.263.721-.396 1.08.401.095.805.28 1.203.269 1.177-.028 1.933-.69 2.28-2.078-.475.096-.949.205-1.427.282-.271.044-.55.034-.825.048.001-.266-.057-.552.018-.797.332-1.093 1.377-1.516 2.845-1.186.777.175 1.588 1.377 1.406 2.217-.656 3.009-3.259 4.077-5.885 2.973-.496-.209-.835-.798-1.236-1.222-.062-.065-.076-.181-.1-.276-.112-.448 1.187-2.316 1.639-2.294zm-6.117 5.725c.757-.002 1.229-1.032 1.788-.186.274.416.416 1.228-.329 1.493-1.004.357-1.022-.586-1.459-1.307zm5.345 16.588c-.525.491-1.004.253-1.385-.14-.53-.55-.256-1.21.78-1.943 1.021.992 1.17 1.554.605 2.083zm.287-3.712c-1.366-.382-2.959-.085-3.698-1.616-.365-.757-.569-1.594-.837-2.397-.134-.404-.406-.841-.343-1.218.33-1.954.713-4.005 2.55-5.098.756-.449 1.974-.369 2.922-.199 2.063.369 3.66 1.482 4.034 3.69.14.826-.146 1.722-.232 2.587-.188 1.893-1.768 2.747-2.965 3.857-.334.308-.981.281-1.431.394zm6.698 4.578c-.474.482-1.164.752-1.907 1.212-.771-.444-1.683-.668-2.019-1.234-.526-.885-.358-2.002.181-2.923.169-.288.634-.435.991-.572.608-.233 1.266-.632 1.856-.564 2.12.245 2.125 2.835.898 4.081zm3.152-6.259c-.467.424-1.028.338-1.321-.197-.554-1.014.447-1.24 1.023-1.831.242.738 1.157 1.248.298 2.028zm1.633-3.496c-.955-.288-1.759-.745-2.281-1.688-.64-1.16-1.271-2.289-1.226-3.672.062-1.936 2.185-3.564 4.108-3.333 1.852.223 2.58 1.47 3.195 2.932-.806.989-.787.964-1.486-.083-1.193-1.788-3.196-1.831-4.237-.111a1.576 1.576 0 0 0-.192.549c-.197 1.217 1.589 3.701 2.807 3.79.33.025.705-.337 1.034-.56.378-.257.728-.555 1.09-.836l.329.229c-.115.689.005 1.619-.399 2.012-.682.662-1.675 1.094-2.742.771z"/><path fill="none" d="M51.782 92.595c-1.413.477-2.858.889-4.213 1.498-.364.163-.708.239-1.021.227-.258.249-.653.275-1.219-.155-.575-.437-.92-1.28-1.28-1.901-.493-.848-1.064-1.485-2.03-1.778-1.687-.512-3.366.001-4.974.499-1.79.555-3.232 1.709-4.683 2.857-2.265 1.791-3.012 5.17-2.26 7.737.35 1.197.746 2.388 1.225 3.537 1.006 2.415 3.065 3.782 5.183 5.11 2.159 1.353 4.266 1.343 6.579.327.942-.413 1.956-.852 2.637-1.647.553-.646.938-1.414 1.419-2.111.406-.589.666-1.417.774-2.122.099-.643-.004-1.28.332-1.881.475-.849 1.485-1.08 2.106-.48a.99.99 0 0 0 .388.042c.719-.082 1.427-.462 2.08-.823.265-.147.551-.595.524-.878-.253-2.675-.571-5.343-.87-8.01-.345-.028-.542-.101-.697-.048z"/><path fill="#30419A" d="M58.001 99.944c-.197-.004-1.813.034-1.758.172-.078-.197-.161-.417-.253-.633-.223-.516-.558-1.01-.654-1.548-.321-1.789-.534-3.597-.839-5.389-.092-.536-.028-.87.526-1.046.621-.197 1.56-.488 1.79-1.18.29-.873-.784-1.065-1.434-.952-1.219.214-2.495.86-3.672 1.255-.889.299-1.805.523-2.682.852-1.187.446-2.197.447-3-.729-.007-.011-.016-.021-.024-.031.012.046.015.092.023.138-.081-.097-.161-.194-.246-.29-.804-.901-2.106-1.741-3.285-2.052-.371-.098-4.128-.436-4.173-.29.44-1.438.191-3.033-.654-4.503-.871-1.514-1.783-3.017-2.822-4.419-.897-1.21-.676-2.335-.097-3.501.461-.924.643-1.798.225-2.816-.918-2.234-2.414-3.788-4.76-4.518-1.214-.377-3.266-.157-3.773.757-.695 1.252-1.613 2.184-2.783 2.95-.96.63-1.966.973-3.052.471-2.09-.969-4.112-.936-5.987.418-1.685 1.216-2.824 2.285-3.827 4.148-.724 1.347-1.406 3.602-3.213 3.696-1.83.096-4.495-.801-5.915.732-1.12 1.21-1.319 2.735-1.429 4.283-.179 2.541 1.041 4.324 3.437 5.103 1.002.326 2.29.188 3.16.881.744.593.89 1.686 1.07 2.559.007.032.026.062.029.094.107 1.673 1.241 2.806 2.185 4.015.554.707 1.189 1.436 1.949 1.879 1.424.833 2.111 2.146 1.715 3.785-.286 1.191-.241 3.033.698 3.956.843.828 2.219 1.381 3.362 1.481 1.258.111 3.22.292 4.127-.811.494-.601.512-1.53.817-2.236.419-.97 1.184-1.628 1.862-2.413.095-.109.288-.145.444-.188a909.81 909.81 0 0 1 3.456-.946c-.007-.024.052.232.15.473.493 1.208.81 2.54 1.533 3.595 1.715 2.501 4.073 4.39 6.88 5.489 1.442.567 3.269.953 4.703.581 3.212-.832 5.959-2.667 7.874-5.491.503-.739 1.02-2.061 1.157-3.26.176-.145.37-.272.603-.367a796.41 796.41 0 0 1 4.275-1.741 101.54 101.54 0 0 1 1.762-.688c.427-.163 1.004-.483 1.185-.93.248-.609-.115-.784-.665-.795zm-29.252-29.62c.161-.196.603-.294.884-.237 1.286.263 2.438.772 3.088 2.024.163.314.343.621.426.77l-1.435.665c-1.053-.404-2.175-1.1-2.831-2.36-.133-.257-.258-.708-.132-.862zM2.605 87.748c-1.273-.791-.722-1.985-.688-2.985.02-.58.414-1.172.727-1.708.23-.395.633-.529.92-.018.801 1.425.357 3.694-.959 4.711zM20.05 107.31c-.193.267-.63.633-.836.564-.883-.294-1.779-.643-2.542-1.161-.288-.197-.227-.904-.344-1.471 1.579-.022 2.787.088 3.514 1.331.131.223.303.608.208.737zm8.425-10.985c-.377 1.183-.58 2.308-.424 3.541.111.873-.696 1.808-1.736 1.941-1.062.138-2.13.177-2.929.985-.715.72-1.366 1.504-2.093 2.312-1.704-1.647-4.698-2.074-5.58-1.527.253-1.618-.547-2.806-1.429-3.958-.156-.203-.366-.368-.567-.532-1.01-.821-2.258-1.474-2.976-2.498-.695-.995-.814-2.38-1.248-3.571-.474-1.297-.634-2.813-2.077-3.519-.362-.177-.839-.123-1.264-.171-.635-.074-1.269-.144-1.764-.2.388-1.011.879-1.903 1.053-2.853.176-.965.039-1.988.039-3.221.426.045.899.094 1.372.146 1.62.175 4.178-1.038 4.752-3.079.307-1.091.895-2.118 1.455-3.119.819-1.462 3.927-2.885 5.589-2.606.906.152 1.797.388 2.699.57 1.725.347 3.572-.259 4.736-2.504.234-.452.564-.855.884-1.335 1.705 1.989 2.916 4.379 5.781 4.694.031.073.091.143.075.187-.77 2.209-.237 3.972 1.552 5.54.704.617.976 1.726 1.443 2.611.139.262.229.567.421.78 1.067 1.186.901 2.545.315 3.779-.286.599-1.106.98-1.739 1.372-1.003.623-2.183 1.023-3.052 1.785-1.394 1.222-2.686 2.563-3.288 4.45zm24.348 5.206c-.652.362-1.36.741-2.079.823a1.01 1.01 0 0 1-.388-.042c-.621-.6-1.63-.369-2.106.48-.336.601-.234 1.238-.332 1.881-.108.705-.368 1.533-.775 2.122-.48.696-.865 1.465-1.418 2.111-.681.795-1.695 1.234-2.637 1.647-2.313 1.016-4.42 1.026-6.579-.327-2.118-1.328-4.177-2.695-5.183-5.11a33.966 33.966 0 0 1-1.225-3.537c-.752-2.566-.005-5.946 2.26-7.737 1.451-1.148 2.893-2.302 4.683-2.857 1.608-.498 3.286-1.011 4.974-.499.966.293 1.537.931 2.03 1.778.359.62.705 1.464 1.28 1.901.566.43.961.404 1.219.155.314.012.658-.064 1.021-.227 1.355-.609 2.8-1.021 4.213-1.498.155-.053.352.019.696.048.299 2.667.617 5.335.869 8.01.029.283-.257.731-.523.878z"/><path fill="#30419A" d="M21.49 90.984c.086-.865.372-1.761.232-2.586-.374-2.208-1.971-3.321-4.034-3.691-.948-.17-2.166-.25-2.921.2-1.838 1.092-2.22 3.144-2.55 5.098-.063.376.209.813.343 1.217.267.804.471 1.64.837 2.397.738 1.532 2.331 1.234 3.698 1.617.45-.114 1.097-.087 1.43-.395 1.198-1.109 2.777-1.964 2.965-3.857zm-3.854 2.05c-.472.33-1.453-.056-2.201-.138-.15-.017-.309-.115-.429-.216-1.312-1.11-1.491-4.65-.245-5.85.759-.73 1.721-.457 2.626-.282 1.998.387 2.784 1.261 2.771 3.061-.074 1.688-1.348 2.606-2.522 3.425zm14.083-5.758l-.329-.229c-.362.28-.712.579-1.09.836-.329.223-.704.585-1.034.56-1.218-.089-3.004-2.572-2.807-3.79.031-.189.094-.386.192-.549 1.04-1.721 3.044-1.677 4.237.111.699 1.048.68 1.072 1.486.083-.615-1.462-1.343-2.709-3.195-2.932-1.923-.23-4.046 1.397-4.108 3.333-.045 1.383.585 2.512 1.226 3.672.522.943 1.325 1.4 2.281 1.688 1.066.323 2.06-.109 2.742-.771.404-.392.283-1.323.399-2.012zm-15.678-8.072c.401.424.739 1.014 1.236 1.223 2.626 1.104 5.229.036 5.885-2.974.182-.839-.629-2.042-1.406-2.217-1.467-.329-2.513.094-2.845 1.186-.075.245-.016.531-.018.798.275-.015.554-.005.825-.048.478-.077.952-.187 1.427-.282-.347 1.388-1.103 2.049-2.28 2.078-.398.01-.802-.174-1.203-.27.133-.36.269-.718.396-1.08.076-.218.257-.516.177-.644-.116-.184-.422-.329-.655-.34-.452-.021-1.751 1.847-1.639 2.294.024.096.038.211.1.276zm6.855 16.53c-.591-.068-1.248.331-1.856.563-.358.138-.823.285-.991.573-.54.921-.707 2.038-.181 2.923.335.565 1.247.789 2.019 1.234.743-.46 1.432-.731 1.907-1.212 1.226-1.247 1.221-3.837-.898-4.081zm-1.176 3.348c-.291-.006-.579-.135-.868-.209l-.078-.415c.521-.322 1.018-.705 1.579-.928.151-.06.708.36.718.575.043.91-.668.992-1.351.977zm-6.297-.274c.381.393.86.631 1.385.14.565-.53.417-1.091-.605-2.084-1.036.734-1.31 1.394-.78 1.944zm10.201-5.45c.293.536.854.621 1.321.198.859-.781-.056-1.291-.298-2.028-.576.591-1.577.816-1.023 1.83zm-12.701-9.691c.745-.264.602-1.077.328-1.493-.559-.846-1.031.185-1.787.186.436.721.454 1.664 1.459 1.307zm14.938-4.607c-.288-.732-.87-1.002-1.314-.62-.32.276-1.011.983-.337 1.483 1.073.797.912-.849 1.651-.863z"/></svg>