<svg width="120" height="120" viewBox="0 0 120 120" xmlns="http://www.w3.org/2000/svg"><g fill="none" fill-rule="evenodd"><path fill="#FFD01F" d="M80.77 59.43l-5.878-8.365-.104 9.546-9.485-3.578 3.65 10.282-10.222 2.937 6.937 3.673-5.841 6.61 11.35-3.1-2.166 10.655 8.54-7.9 5.651 7.237 1.063-9.932 7.956 1.84-4.691-7.623 10.212-1.582-9.581-7.338 2.74-9.206z"/><path d="M87.352 70.551l-1.736.257.92 1.522c.772 1.277 1.564 2.541 2.345 3.812l.893 1.447-5.262-1.173-1.222-.272-.12 1.232-.724 7.511-1.333-1.66-1.44-1.788-1.45-1.78-.594-.731-.657.629c-1.4 1.342-2.784 2.7-4.175 4.053l-2.916 2.838c.214-1.2.43-2.398.651-3.595l.495-2.673.508-2.67.113-.592-.566.163c-1.885.543-3.778 1.053-5.667 1.581l-2.838.773-1.676.445c.226-.245.452-.491.677-.738l1.49-1.625 3.01-3.227.458-.491-.613-.362-3.384-1.997-1.508-.885.51-.14 2.566-.7L66.668 69l2.557-.73 1.017-.291-.36-.997L66.86 58.6l7.64 2.788 1.125.411-.012-1.178-.052-4.774c-.008-.99-.024-1.981-.042-2.972.164.214.327.43.492.641l1.605 2.06 3.13 3.963 5.151-2.628c.876-.45 1.762-.898 2.649-1.365l1.267-.667-1.01 3.092c-.499 1.521-.99 3.046-1.475 4.571l-.178.562.485.386 4.72 3.761 2.745 2.167-2.636.378-5.111.756zm10.554.647l2.518-.42-2.031-1.508-4.844-3.598-4.39-3.23c.37-1.343.74-2.687 1.1-4.034l1.25-4.64.427-1.59-1.35.855-2.395 1.516-2.417 1.557-4.98 3.217-2.748-4.402-1.334-2.124c-.44-.702-.89-1.388-1.336-2.077l-1-1.546-.078 1.884c-.066 1.59-.131 3.181-.179 4.772l-.117 3.587-8.371-3.262-1.879-.731.673 1.924 3.252 9.304-1.549.447-2.55.753-2.546.768c-.848.26-1.699.508-2.544.775l-2.164.684 1.994.963 1.768.853 1.774.842 2.93 1.381-2.364 2.824-1.43 1.68c-.479.558-.95 1.122-1.434 1.676l-.785.9 1.142-.32 2.833-.794 2.837-.777c1.702-.453 3.4-.918 5.105-1.363l-.45 2.075-.587 2.654a697.537 697.537 0 0 1-1.203 5.302l-.393 1.709 1.335-1.174 4.37-3.84c1.22-1.074 2.442-2.145 3.657-3.223l.832 1.111 1.385 1.832 2.778 3.656L83.903 90l.29-2.466 1.02-8.674 6.747 1.616 2.732.654-1.48-2.412-2.342-3.814c-.475-.77-.947-1.542-1.421-2.313l3.36-.544 5.097-.85z" fill="#000"/><path fill="#FFD01F" d="M23.074 41.128l-7.12-6.996-.098 8.953L6.96 39.73l2.605 10.946-7.302 1.836 5.842 3.672-6.572 5.508 8.032-.367.873 7.533 8.009-7.41 4.626 3.916 1.67-6.443 7.463 1.725-4.4-7.149 9.578-1.484-8.987-6.881 2.343-10.98z"/><path d="M27.629 52.335l-1.735.256.92 1.524c.723 1.198 1.466 2.383 2.198 3.575l.747 1.21-1.029-.23-3.738-.829-1.061-.235-.251 1.035-1.201 4.95-1.115-.907c-.393-.317-.782-.639-1.18-.951l-1.186-.944-.604-.48-.525.505c-1.312 1.26-2.608 2.538-3.91 3.808l-3.125 3.052c-.132-.878-.263-1.757-.388-2.636-.09-.626-.184-1.25-.265-1.877l-.252-1.88-.047-.346-.333.022c-1.337.088-2.676.143-4.014.217-.67.037-1.339.06-2.008.09l-.947.033c.282-.227.565-.454.846-.682l1.669-1.346 1.68-1.333 1.68-1.33.568-.448-.627-.442-2.825-1.99c-.379-.265-.756-.533-1.136-.797l1.714-.396 1.83-.44 1.826-.457.952-.237-.232-.955-2.246-9.237 7.288 2.654 1.127.41-.014-1.177-.055-4.478c-.01-1.037-.03-2.074-.05-3.111.293.267.585.532.88.793l1.908 1.693 3.71 3.247 3.977-3.218c.677-.552 1.366-1.104 2.051-1.675l.584-.487-.859 3.622a722.49 722.49 0 0 0-1.278 5.467l-.12.525.444.355 4.422 3.534 2.45 1.937-2.32.33-4.795.707zm9.92.745l2.518-.421-2.032-1.506-4.546-3.37-4.131-3.031c.324-1.65.644-3.3.956-4.95l1.047-5.517.387-2.038-1.432 1.431-1.768 1.767c-.593.592-1.182 1.203-1.782 1.813l-3.69 3.76-3.411-3.75-1.652-1.805c-.546-.597-1.098-1.177-1.645-1.759l-.946-1.006-.062 1.427a376.414 376.414 0 0 0-.176 4.475l-.112 3.29-7.784-3.039-1.639-.64.405 1.737 2.331 10.004-.883.223-1.82.478-1.818.493c-.605.167-1.212.324-1.815.5L0 52.243l1.794 1.024 1.5.856c.497.287 1.003.563 1.505.845l2.364 1.318-1.012.898-1.606 1.42-1.618 1.409c-.54.467-1.075.942-1.62 1.404l-.81.688 1.053-.059 2.007-.111c.67-.032 1.338-.07 2.008-.094 1.224-.045 2.447-.103 3.671-.138l.152 1.55c.064.63.115 1.26.17 1.89.114 1.258.217 2.519.316 3.78l.088 1.109.861-.755 4.105-3.595c1.172-1.029 2.347-2.054 3.514-3.087l.582.524c.374.34.756.671 1.134 1.007l2.275 2.004 1.178 1.038.428-1.552 1.482-5.37 2.7.65 3.725.89 2.731.654-1.48-2.412-2.196-3.577c-.426-.691-.85-1.384-1.275-2.077l3.042-.494 4.78-.8z" fill="#000"/><path fill="#FFD01F" d="M34.778 53.359l-9.518 2.93 7.765 4.38-7.193 6.242 10.8 2.948-1.9 7.325 6.005-3.395 1.655 8.441 3.531-7.265 6.991 2.841-2.625-10.621 5.635-2.207-4.82-4.563 5.082-5.76-8.347.457 3.297-9.165-10.312 4.632-8.457-7.332z"/><path d="M52.767 65.203c-.466.195-.933.385-1.396.585l-1.392.595-.708.303.188.706c.471 1.762.964 3.518 1.448 5.277l1.164 4.217a263.07 263.07 0 0 1-2.485-.917c-.589-.221-1.18-.437-1.765-.666l-1.761-.679-.325-.125-.14.304c-.564 1.223-1.158 2.432-1.736 3.648-.288.608-.589 1.21-.884 1.815l-.424.852-.19-1.074-.374-2.118-.358-2.121-.354-2.123-.12-.714-.686.341-3.091 1.54c-.413.206-.827.41-1.239.62l.476-1.703.492-1.826.479-1.83.249-.955-.945-.253-9.136-2.447 5.81-5.16.899-.798-1.035-.552-3.933-2.098c-.91-.489-1.824-.969-2.739-1.447.373-.131.745-.262 1.114-.396l2.392-.874 4.611-1.717-.9-5.053c-.157-.863-.309-1.736-.479-2.614l-.144-.75 2.749 2.496a709.701 709.701 0 0 0 4.157 3.75l.4.358.523-.222 5.203-2.21 2.864-1.233-.823 2.207-1.682 4.57-.609 1.654 1.77-.081c1.392-.064 2.783-.152 4.174-.226l1.413-.08-.693.799-2.516 2.902-.713.823.782.718 3.742 3.433-1.324.55zm-.135-4.838l1.862-2.072 2.563-2.86 1.88-2.097-2.814.15-4.174.223c-.808.045-1.616.087-2.424.13l1.028-2.922 1.594-4.603.84-2.425-2.289 1.071-5.12 2.397-4.625 2.193a735.617 735.617 0 0 0-3.861-3.217l-4.312-3.57-1.592-1.317.562 1.949.695 2.408c.232.807.482 1.62.727 2.442l1.51 5.059-4.907 1.214-2.367.592c-.782.196-1.552.405-2.322.609l-1.332.353 1.215.738c1.271.772 2.542 1.544 3.821 2.301l2.817 1.676-6.384 5.414-1.344 1.14 1.71.475 9.846 2.739-.229.886-.456 1.836-.44 1.84c-.145.614-.3 1.226-.435 1.842l-.462 2.095 1.754-1.092 1.466-.913c.49-.302.972-.616 1.46-.924l2.282-1.455.299 1.324.47 2.1.452 2.102c.15.701.306 1.4.449 2.103l.212 1.044.453-.957.865-1.825c.293-.606.58-1.214.881-1.817.548-1.101 1.084-2.209 1.64-3.306l1.425.61c.58.244 1.154.502 1.73.754 1.153.504 2.303 1.017 3.45 1.534l1.01.455-.246-1.123-1.169-5.346c-.335-1.528-.666-3.056-1.008-4.582l.737-.262c.476-.168.948-.346 1.421-.519l2.84-1.047 1.47-.542-1.149-1.122-3.975-3.883z" fill="#000"/><path fill="#FFD01F" d="M95.953 41.958l-5.574.758 6.755 3.809-6.257 5.43 9.395 2.565-3.102 3.596 4.138-.49 5.355 7.344 1.947-7.344 7.059 4.162-2.92-8.814 5.84-1.713-5.727-4.957 4.422-5.01-7.262.397 2.868-7.973-8.971 4.03-4.072-5.828z"/><path d="M112.589 52.424l-.576.182.195.55 2.762 7.799-2.678-1.51c-1.193-.665-2.374-1.35-3.559-2.03l-.28-.162-.078.31c-.307 1.229-.636 2.451-.952 3.678-.157.613-.327 1.223-.492 1.835l-.366 1.348-2.349-3.296-2.608-3.723-.116-.165-.227.015-2.677.174.618-.688c.265-.294.52-.595.782-.893l.78-.895.69-.796-1.014-.273-8.284-2.23 5.333-4.71.598-.529-.688-.372-3.411-1.844a327.95 327.95 0 0 0-2.418-1.297c.569-.107 1.135-.215 1.693-.324.93-.185 1.842-.374 2.731-.563l2.116-4.917L99.18 34.6l.75-1.788 1.537 2.315 1.976 2.956.262.39.45-.193 4.517-1.944 2.963-1.288-.885 2.4-1.46 3.977-.403 1.1 1.176-.053c1.211-.055 2.42-.132 3.631-.196l1.79-.1-3.167 3.643-.491.564.56.476 4.845 4.121-1.738.535c-.97.296-1.937.604-2.905.91zm6.187-.522l1.176-.329-.93-.818-5.126-4.512 3.968-4.43 1.253-1.4-1.875.102-3.632.194c-.821.046-1.643.09-2.465.135l1.016-2.883 1.403-3.998.566-1.613-1.532.71-4.461 2.069-4.032 1.888-1.807-2.476-2.105-2.865-.477-.648-.262.738-.887 2.494-.88 2.52-1.78 5.12-2.842.196c-.928.07-1.84.139-2.74.225l-1.19.114 1.05.628c1.11.663 2.22 1.326 3.337 1.979l2.666 1.566-5.717 4.874-.893.762 1.136.315 8.386 2.32-.095.111c-.256.302-.517.6-.77.904l-.757.915c-.25.306-.508.606-.754.918l-.972 1.234 1.487-.256 3.91-.673 2.605 3.437 2.718 3.642.296.398.124-.477.476-1.84c.16-.612.315-1.226.482-1.837.304-1.117.6-2.237.91-3.353 1.078.652 2.157 1.3 3.227 1.966l3.49 2.15.856.528-.303-.98-2.562-8.293c.793-.215 1.585-.43 2.376-.653l2.932-.818z" fill="#000"/><path fill="#1DBBB8" d="M73.439 34.7l1.95 2.64 3.183-.749-1.894 2.68 1.693 2.815-3.12-.983-2.139 2.489-.034-3.29-3.014-1.276 3.1-1.049z"/><path d="M73.547 42.488l-.006-2.19-.001-.302-.283-.122-1.94-.839 1.932-.803.179-.074.002-.158c.007-.508 0-1.019-.007-1.56-.006-.541 0-1.114.029-1.693.327.473.633.952.914 1.412.282.46.55.899.827 1.327l.079.122.171-.03 2.221-.383-1.224 1.907-.11.173.099.149 1.574 2.372-2.665-.974-.168-.061-.14.15-1.483 1.577zm6.212-6.711l-1.287.385-3.001.899a60.74 60.74 0 0 0-1.01-1.18c-.37-.42-.713-.822-1.036-1.228a28.52 28.52 0 0 1-.246 1.584 58.19 58.19 0 0 0-.252 1.525l-3.018.8-1.367.363 1.333.553 2.746 1.138.053 2.98.022 1.237.748-.953 1.917-2.444 2.966.79.335.09-.166-.306-1.47-2.71 1.903-2.454.83-1.07z" fill="#000"/><path fill="#FF7CA3" d="M61.168 36.18l.211 2.047 1.952.62-1.87.834.018 2.059-1.368-1.531-1.94.653 1.024-1.782-1.217-1.654 2.002.43z"/><path d="M60.224 39.877l-.206.053-.929.24.507-.857.152-.257-.18-.252-.561-.78.917.095.204.022.07-.129c.145-.266.279-.542.43-.844.15-.302.327-.624.528-.94.02.37.02.735.007 1.071-.013.337-.026.647-.026.954v.136l.169.072 1.011.43-.974.522-.188.1.014.17.126 1.58-.966-1.25-.105-.136zm4.691-1.139l-1.452-.312-1.878-.404a26.541 26.541 0 0 0-.2-.914 13.217 13.217 0 0 1-.205-.975 11.64 11.64 0 0 1-.66.735 24.22 24.22 0 0 0-.623.679l-1.817-.6-1.43-.472.937 1.242 1.057 1.401-.853 1.523-.625 1.117 1.143-.478 1.737-.727 1.324 1.285.235.227.02-.327.115-1.846 1.769-.643 1.406-.51z" fill="#000"/><path fill="#1DBBB8" d="M109.51 71.37l-1.658 2.835 1.927 2.657-3.192-.71-1.918 2.665-.316-3.274-3.111-1.01 2.998-1.314-.007-3.289 2.17 2.462z"/><path d="M106.35 75.98l-1.558 2.383-.148-2.848-.009-.18-.192-.071-2.022-.758 2.003-.86.277-.119.001-.309.012-2.124 1.488 1.477.138.137.146-.06c.467-.191.932-.397 1.426-.614a26.442 26.442 0 0 1 1.56-.633 29.73 29.73 0 0 1-.936 1.397c-.312.44-.61.859-.893 1.283l-.081.12.094.148 1.217 1.907-2.224-.39-.201-.036-.098.15zm4.637 1.664l-.854-1.041-1.992-2.43c.24-.47.47-.943.686-1.396.241-.505.474-.98.722-1.438-.494.143-1.004.266-1.548.39-.482.11-.988.23-1.494.36l-1.909-2.484-.865-1.125.014 1.451.028 2.987-2.708 1.21-1.124.503 1.164.321 2.985.823.432 3.056.048.345.216-.273 1.908-2.417 2.989.807 1.302.351z" fill="#000"/><path fill="#1DBBB8" d="M17.62 77.407l2.829-1.65-.382-3.267 2.435 2.194 2.971-1.374-1.323 3.008 2.218 2.417-3.253-.336-1.6 2.868-.688-3.216z"/><path d="M23.162 77.936l-.298-.033-.153.268-1.047 1.845-.575-2.021-.053-.188-.156-.02c-.501-.064-1.007-.114-1.543-.169a26.07 26.07 0 0 1-1.669-.219 29.602 29.602 0 0 1 1.498-.755c.488-.23.95-.447 1.405-.676l.13-.065-.01-.175-.13-2.263 1.746 1.438.158.13.16-.082 2.52-1.306-1.262 2.554-.08.16.132.158 1.392 1.659-2.165-.24zm3.528.5l-2.199-2.191 1.116-2.876.125-.324-.32.131-2.843 1.164-2.21-2.178-.963-.95.236 1.329.55 3.101c-.438.291-.87.589-1.28.877-.456.32-.891.62-1.33.896.5.12 1.004.264 1.538.425.474.142.974.287 1.478.424l.45 3.106.205 1.407.696-1.27 1.434-2.616 2.95.282 1.224.117-.857-.854z" fill="#000"/><path d="M47.83 53.007a13.79 13.79 0 0 0-2.413-4.759 15.204 15.204 0 0 0-1.785-1.944 17.37 17.37 0 0 0-2.062-1.599 18.53 18.53 0 0 0-4.633-2.188 22.028 22.028 0 0 0-2.464-.613 22.682 22.682 0 0 0-2.514-.299c-2.37-.13-4.76.035-7.1.558-2.336.53-4.629 1.428-6.686 2.795a16.036 16.036 0 0 0-2.841 2.406c-.846.924-1.61 1.948-2.208 3.076a13.74 13.74 0 0 0-1.302 3.612 15 15 0 0 0-.27 1.916c-.047.656-.031 1.318.035 1.972a12.222 12.222 0 0 0 1.022 3.777 14.712 14.712 0 0 0 2.03 3.269c1.62 1.97 3.626 3.536 5.8 4.73a22.528 22.528 0 0 0 6.967 2.45c1.217.215 2.45.308 3.69.284a17.588 17.588 0 0 0 3.294-.402c.16.17.325.336.497.496.28.256.555.491.843.725.574.462 1.176.892 1.81 1.272 1.26.759 2.677 1.362 4.204 1.438.095.006.19.005.285.005h.072l.091-.005a1.478 1.478 0 0 0 .807-.336c.349-.29.6-.744.547-1.255a1.243 1.243 0 0 0-.3-.668c-.086-.095-.148-.148-.216-.214l-.206-.185a17.357 17.357 0 0 0-.848-.683 16.286 16.286 0 0 1-1.601-1.363 14.78 14.78 0 0 1-1.092-1.178 17.658 17.658 0 0 0 3.94-2.562c1.319-1.142 2.476-2.51 3.348-4.067a13.73 13.73 0 0 0 1.672-5.09c.208-1.792.083-3.635-.414-5.37" fill="#000" opacity=".29"/><path d="M30.736 40.001c8.946.493 15.835 7.58 15.386 15.828-.298 5.47-3.75 10.074-8.65 12.414a16.72 16.72 0 0 0 1.997 2.065c.727.645 1.546 1.175 2.239 1.856.687.677.009 1.729-.825 1.73-2.463.003-4.948-1.758-6.644-3.407-.296-.288-.57-.593-.828-.91a17.53 17.53 0 0 1-4.302.294c-8.946-.493-18.089-7.294-17.64-15.542.45-8.248 8.646-14.913 19.267-14.328" fill="#FFF"/><path d="M43.902 61.008a14.33 14.33 0 0 1-2.678 3.98 15.153 15.153 0 0 1-1.828 1.617c-.655.488-1.354.921-2.085 1.294l-.436.223.303.359c.473.561.981 1.086 1.514 1.577.268.245.53.488.816.722.28.234.569.449.846.67.277.22.55.439.806.669l.189.174c.059.058.13.125.162.163a.55.55 0 0 1 .13.296c.024.208-.1.464-.305.612a.754.754 0 0 1-.327.144c-.028.006-.057.007-.084.01h-.042l-.062-.003c-.083-.004-.165-.007-.247-.015a5.963 5.963 0 0 1-1.93-.513 9.916 9.916 0 0 1-1.766-1.017c-.556-.4-1.082-.845-1.58-1.32a16.51 16.51 0 0 1-.719-.733 10.169 10.169 0 0 1-.635-.777l-.227-.307-.436.065c-2.253.336-4.527.185-6.735-.298a21.385 21.385 0 0 1-6.272-2.468c-1.93-1.147-3.686-2.595-5.037-4.33a13.335 13.335 0 0 1-1.7-2.77c-.22-.49-.402-.994-.547-1.506a9.55 9.55 0 0 1-.319-1.558 10.335 10.335 0 0 1-.065-1.586c.031-.54.078-1.082.178-1.616.192-1.069.519-2.115.967-3.119.46-.996 1.022-1.96 1.708-2.843a15.62 15.62 0 0 1 2.32-2.458 17.47 17.47 0 0 1 6.01-3.35c2.22-.725 4.593-1.004 6.941-.885.832.056 1.66.159 2.475.334.814.177 1.611.427 2.384.73.774.3 1.51.69 2.217 1.114.71.422 1.377.908 1.996 1.445a15.418 15.418 0 0 1 4.953 8.053c.737 3.05.455 6.322-.853 9.221m2.71-9.714a13.793 13.793 0 0 0-2.412-4.76 15.237 15.237 0 0 0-1.785-1.944 17.367 17.367 0 0 0-2.062-1.599 18.517 18.517 0 0 0-4.633-2.188 22.03 22.03 0 0 0-2.464-.613 22.688 22.688 0 0 0-2.514-.299c-2.37-.13-4.76.035-7.1.558-2.336.53-4.629 1.428-6.686 2.795a16.046 16.046 0 0 0-2.841 2.406c-.846.925-1.61 1.948-2.208 3.077a13.738 13.738 0 0 0-1.302 3.61 14.73 14.73 0 0 0-.27 1.918c-.048.655-.031 1.317.035 1.972a12.218 12.218 0 0 0 1.022 3.776 14.705 14.705 0 0 0 2.03 3.27c1.62 1.968 3.626 3.535 5.8 4.729a22.523 22.523 0 0 0 6.967 2.45c1.217.215 2.45.308 3.69.284a17.59 17.59 0 0 0 3.294-.402c.161.17.325.336.497.496.28.257.555.491.843.725a15.95 15.95 0 0 0 1.81 1.272c1.26.76 2.677 1.362 4.204 1.438.095.006.19.005.285.005h.072l.091-.005a1.48 1.48 0 0 0 .807-.336c.349-.29.6-.744.547-1.255a1.244 1.244 0 0 0-.3-.668c-.086-.095-.148-.147-.216-.213l-.207-.185a17.387 17.387 0 0 0-.847-.684 16.222 16.222 0 0 1-1.601-1.363 14.83 14.83 0 0 1-1.092-1.178 17.654 17.654 0 0 0 3.94-2.562c1.319-1.141 2.476-2.509 3.348-4.067a13.73 13.73 0 0 0 1.672-5.09c.208-1.791.083-3.635-.414-5.37" fill="#000"/><path d="M114.87 47.455c-.205-1.156-.623-2.258-1.156-3.283a12.724 12.724 0 0 0-2.025-2.78 15.142 15.142 0 0 0-2.625-2.17 16.391 16.391 0 0 0-3.02-1.53 17.79 17.79 0 0 0-3.247-.904 18.331 18.331 0 0 0-3.352-.3 18.37 18.37 0 0 0-7.227 1.472c-2.276.984-4.355 2.497-5.91 4.493a13.1 13.1 0 0 0-1.04 1.588c-.298.56-.57 1.139-.78 1.744a11.133 11.133 0 0 0-.638 3.791c.01 1.296.252 2.595.707 3.818.346.938.814 1.83 1.378 2.655l-1.677.821a20.636 20.636 0 0 0-2.533-3.222c-.55-.593-1.157-1.128-1.77-1.653l-.957-.74c-.32-.246-.664-.457-.995-.686-2.695-1.773-5.754-2.929-8.888-3.54-.39-.09-.785-.148-1.181-.199-.396-.05-.79-.12-1.187-.15-.795-.06-1.589-.139-2.385-.134a21.487 21.487 0 0 0-4.78.383c-.789.145-1.565.35-2.333.573a22.32 22.32 0 0 0-2.249.84c-1.463.645-2.864 1.432-4.142 2.389-2.56 1.899-4.69 4.386-6.069 7.252-1.406 2.85-2.013 6.073-1.796 9.229a18.266 18.266 0 0 0 3.077 8.854c1.638 2.465 3.853 4.52 6.378 6.06a21.255 21.255 0 0 1-2.522 2.145c-.348.249-.712.488-1.082.735-.37.246-.747.5-1.116.78l-.275.216c-.092.079-.171.133-.296.264a1.697 1.697 0 0 0-.474.893c-.062.347-.01.694.11.993.12.3.304.562.535.776.23.214.516.38.837.466.078.027.162.037.245.05l.125.016.09.003.365.012c.97.017 1.921-.161 2.818-.445a14.144 14.144 0 0 0 2.562-1.118c.81-.449 1.581-.955 2.314-1.51.366-.282.717-.562 1.075-.87.222-.195.434-.397.642-.604 1.606.395 3.26.61 4.917.634a26.679 26.679 0 0 0 5.413-.49c3.557-.701 6.985-2.07 10.04-4.083a23.549 23.549 0 0 0 4.207-3.555 20.427 20.427 0 0 0 1.747-2.178c.52-.779 1.014-1.582 1.405-2.446l.153-.32.134-.33c.087-.22.179-.44.26-.663.145-.453.308-.9.412-1.367.13-.46.207-.933.29-1.403.043-.236.058-.475.087-.712.026-.238.054-.476.057-.716a16.744 16.744 0 0 0-.436-4.739 26.537 26.537 0 0 0 2.919-2.232 17.807 17.807 0 0 0 5.83 2.17c2.334.426 4.73.399 7.046-.057a17.207 17.207 0 0 0 6.482-2.738c1.93-1.363 3.563-3.188 4.587-5.335 1.016-2.147 1.369-4.61.92-6.913" fill="#000" opacity=".297"/><path d="M98.228 34.885c-8.342 0-15.105 5.626-15.105 12.567 0 2.658.995 5.123 2.689 7.153a62.941 62.941 0 0 1-3.08 1.613c-3.68-6.137-11.23-10.481-20.5-10.481-11.132 0-20.156 8.32-20.156 18.582 0 6.806 3.97 12.755 9.89 15.992-.797.895-1.675 1.679-2.615 2.425-.946.75-1.998 1.352-2.903 2.15-.898.792-.128 2.144.906 2.202 3.055.172 6.257-1.843 8.472-3.773.387-.337.748-.696 1.089-1.071 1.694.426 3.476.658 5.316.658 11.132 0 22.933-7.812 22.933-18.075 0-1.547-.222-3.06-.642-4.517a26.244 26.244 0 0 0 4.142-3.133c2.604 1.775 5.934 2.841 9.564 2.841 8.342 0 15.105-5.626 15.105-12.566s-6.763-12.567-15.105-12.567" fill="#FFF"/><path d="M111.55 52.045c-1.027 1.85-2.573 3.38-4.365 4.485-.892.56-1.841 1.03-2.831 1.391a17.47 17.47 0 0 1-3.052.796c-2.076.356-4.22.293-6.27-.11-2.053-.408-4.024-1.21-5.726-2.383l-.744-.513-.676.621a23.876 23.876 0 0 1-1.912 1.58 29.14 29.14 0 0 1-2.064 1.392l-.762.474.247.861c.45 1.564.666 3.216.578 4.823 0 .2-.025.4-.047.599-.025.199-.034.4-.07.596-.072.395-.133.792-.243 1.179-.085.393-.225.772-.345 1.156-.069.19-.148.376-.221.564l-.11.282-.128.276c-.322.744-.744 1.446-1.188 2.132-.457.68-.967 1.328-1.517 1.945a21.494 21.494 0 0 1-3.762 3.267c-2.765 1.893-5.932 3.227-9.224 3.935-1.648.342-3.327.549-5.006.56a21.64 21.64 0 0 1-4.986-.558l-.52-.12-.334.38c-.274.312-.56.611-.862.892-.303.28-.634.562-.96.83a18.906 18.906 0 0 1-2.069 1.472c-.72.436-1.47.814-2.245 1.094-.773.282-1.575.463-2.372.482l-.298.003-.075.001-.039-.006c-.026-.003-.053 0-.08-.01a.697.697 0 0 1-.316-.158c-.2-.164-.312-.425-.287-.606a.473.473 0 0 1 .131-.267c.023-.035.119-.117.192-.184l.24-.203c.324-.268.672-.524 1.028-.782.355-.258.72-.519 1.081-.799a23.14 23.14 0 0 0 1.043-.872 19.948 19.948 0 0 0 1.925-1.923l.386-.447-.509-.268c-2.674-1.404-5.027-3.45-6.756-5.948-1.717-2.502-2.793-5.463-2.97-8.504l-.036-1.14c.018-.38.013-.76.048-1.138.034-.378.06-.758.123-1.132.03-.188.053-.376.089-.563l.116-.557c.314-1.485.858-2.912 1.552-4.253.702-1.34 1.602-2.565 2.61-3.68 1.012-1.113 2.177-2.077 3.416-2.914a19.698 19.698 0 0 1 3.972-2.044 20.46 20.46 0 0 1 4.302-1.13l.55-.079c.183-.025.369-.037.553-.057.184-.016.368-.038.553-.051l.554-.027a20.794 20.794 0 0 1 2.227.005c.748.012 1.489.105 2.23.177.372.037.737.114 1.105.168l.551.087c.185.026.364.074.547.11 2.915.584 5.723 1.679 8.223 3.258.308.204.63.39.927.61l.892.658c.565.474 1.147.932 1.667 1.459a19.23 19.23 0 0 1 2.804 3.422l.426.662.623-.347 3.075-1.716.787-.438-.582-.663a11.49 11.49 0 0 1-1.888-2.923 10.095 10.095 0 0 1-.845-3.39c-.08-1.176.049-2.37.377-3.514.328-1.147.871-2.232 1.554-3.224 1.372-1.992 3.367-3.523 5.564-4.56a16.38 16.38 0 0 1 3.465-1.153 18.24 18.24 0 0 1 3.637-.38 18.07 18.07 0 0 1 3.307.321 17.11 17.11 0 0 1 3.178.95c2.034.865 3.913 2.126 5.353 3.788a12.08 12.08 0 0 1 1.787 2.731c.457.985.77 2.032.895 3.1.28 2.135-.182 4.312-1.197 6.16m2.103-6.304c-.206-1.155-.624-2.257-1.157-3.282a12.72 12.72 0 0 0-2.025-2.78 15.123 15.123 0 0 0-2.626-2.17 16.403 16.403 0 0 0-3.018-1.531 17.767 17.767 0 0 0-3.248-.904 18.329 18.329 0 0 0-3.352-.3 18.38 18.38 0 0 0-7.227 1.472c-2.276.985-4.355 2.498-5.91 4.493-.379.504-.735 1.03-1.04 1.588-.298.56-.57 1.14-.78 1.744a11.14 11.14 0 0 0-.638 3.791c.01 1.296.252 2.596.707 3.819.346.937.814 1.829 1.378 2.654l-1.677.822a20.662 20.662 0 0 0-2.533-3.223c-.551-.593-1.157-1.127-1.77-1.653l-.957-.74c-.32-.246-.664-.456-.995-.686-2.695-1.773-5.754-2.928-8.888-3.54-.39-.09-.785-.148-1.181-.199-.396-.049-.79-.12-1.187-.15-.795-.06-1.589-.139-2.385-.133a21.502 21.502 0 0 0-4.78.382c-.789.145-1.565.35-2.334.574a22.24 22.24 0 0 0-2.248.84c-1.463.644-2.864 1.431-4.142 2.388-2.56 1.899-4.69 4.386-6.069 7.252-1.407 2.851-2.014 6.074-1.796 9.229a18.265 18.265 0 0 0 3.076 8.854c1.64 2.465 3.854 4.52 6.379 6.06a18.91 18.91 0 0 1-1.497 1.356c-.335.271-.682.544-1.025.79-.348.248-.712.487-1.082.734-.37.247-.746.5-1.116.781l-.275.215c-.093.08-.171.133-.296.264a1.697 1.697 0 0 0-.474.893 1.83 1.83 0 0 0 .11.993c.12.3.304.562.535.776.23.215.516.38.837.467.078.026.163.036.246.049l.124.016.09.004.365.011c.97.017 1.921-.16 2.818-.445a14.144 14.144 0 0 0 2.562-1.118c.81-.449 1.581-.955 2.314-1.51.366-.282.718-.562 1.075-.87.222-.194.434-.397.642-.604 1.606.396 3.26.61 4.917.635a26.661 26.661 0 0 0 5.413-.49c3.557-.702 6.985-2.07 10.04-4.084a23.529 23.529 0 0 0 4.207-3.555 20.43 20.43 0 0 0 1.747-2.178c.52-.778 1.015-1.582 1.405-2.446l.153-.32.134-.33c.087-.22.179-.439.26-.663.145-.453.307-.9.412-1.367.129-.46.207-.932.29-1.403.043-.235.058-.475.087-.712.026-.238.054-.476.057-.715a16.752 16.752 0 0 0-.436-4.74 26.558 26.558 0 0 0 2.918-2.232 17.796 17.796 0 0 0 5.83 2.17c2.335.427 4.731.4 7.047-.057a17.209 17.209 0 0 0 6.482-2.738c1.93-1.363 3.563-3.187 4.587-5.335 1.016-2.146 1.368-4.609.92-6.913" fill="#000"/><path d="M110.395 49.798c-2.035 2.73-4.89 4.639-7.745 6.4-.219.135-.073.537.18.431 3.268-1.353 6.249-3.5 8.376-6.354.364-.488-.452-.958-.81-.477M67.811 78.422c-1.12.682-2.39 1.003-3.695.813-.23-.034-.337.31-.099.36 1.42.286 2.823.023 4.094-.658.337-.18.03-.715-.3-.515M57.39 49.163c-1.953.312-3.666 1.134-5.156 2.438-.178.156.063.475.255.332 1.488-1.115 3.165-1.76 5.006-1.988.57-.07.463-.872-.106-.782m-30.077-6.819c-2.658-.13-5.003.658-7.19 2.152-.885.605.053 1.842.899 1.172 1.836-1.453 3.95-2.423 6.291-2.628.441-.038.45-.674 0-.696" fill="#000"/></g></svg>