<svg width="120" height="120" viewBox="0 0 120 120" xmlns="http://www.w3.org/2000/svg" xmlns:xlink="http://www.w3.org/1999/xlink"><defs><path id="a" d="M.237.203H11.62v13.584H.237z"/></defs><g fill="none" fill-rule="evenodd"><path d="M77.071 95.013c1.52 8.057 2.621 16.765-3.258 23.383-.783.883-2.145.175-2.397-.781a276.843 276.843 0 0 1-4.632-20.827c-.072-.399.01-.735.178-1.005.015-.581.356-1.109 1.122-1.184l7.268-.712c.77-.075 1.562.293 1.72 1.126" fill="#FFE2DC"/><g transform="matrix(-1 0 0 1 79.652 105.769)"><mask id="b" fill="#fff"><use xlink:href="#a"/></mask><path d="M.378 1.891c-.005.024-.014.044-.017.07-.545 3.9.686 8.803 4.173 11.098 4.95 3.26 6.581-5.301 7.067-8.445a1.47 1.47 0 0 0-.051-.689c.03-.195.025-.395-.016-.586.001-.599-.303-1.177-1.013-1.325L1.984.234C.932.014.306 1.011.378 1.891" fill="#F28E77" mask="url(#b)"/></g><path d="M51.981 60.558l.002-.011a.924.924 0 0 1-.017-.186c.028-.617.554-1.324 1.25-1.25.04.005.076.013.115.018a1.21 1.21 0 0 1 .554-.105l14.997.528c.74.026 1.136.572 1.194 1.147.18.198.298.465.294.813-.056 5.23-4.08 9.67-9.462 9.57-5.365-.1-9.267-4.683-9.098-9.914.008-.24.07-.442.171-.61" fill="#FFE2DC"/><path d="M2.722 67.253C5.655 61.63 12 59.017 18.052 57.99c-3.53-4.322-8.411-8.08-7.858-14.24.584-6.523 7.06-7.566 12.244-5.589C34.722 42.85 45.41 52.122 53 62.786c.654.07 1.217.523 1.13 1.375-.007.07-.018.138-.026.207l.034.048c.47.699.22 1.375-.29 1.77-2.327 13.72-13.706 24.34-27.901 24.957-7.085.308-14.484-1.878-19.569-6.973-4.436-4.447-6.712-11.06-3.656-16.917M114.944 84.17c-5.085 5.096-12.484 7.281-19.568 6.973C81.18 90.526 69.8 79.906 67.474 66.186c-.51-.395-.76-1.072-.29-1.77l.033-.048c-.007-.069-.018-.137-.026-.207-.086-.852.477-1.306 1.13-1.375C75.912 52.122 86.6 42.85 98.885 38.161c5.183-1.977 11.66-.935 12.244 5.589.553 6.16-4.329 9.917-7.857 14.24 6.052 1.027 12.395 3.64 15.329 9.262 3.056 5.858.78 12.471-3.656 16.918" fill="#7B97C2"/><path d="M21.726 43.452c6.823-2.38 6.442-10.878 5.796-17.282 10-.479 20-1.122 30.002-1.382 7.52-.196 15.103-.067 22.606-.63 3.585-.27 7.808-.953 11.71-.604l.024.748c.215 6.65-.601 15.991 5.937 19.7.48.273.68.697.684 1.13.336.508.378 1.197-.192 1.74-8.786 8.37-22.443 9.579-33.773 9.722-12.175.155-24.308-2.078-35.726-6.484-2.872-.671-5.418-2.054-7.678-4.23-.806-.776-.329-2.1.61-2.428" fill="#33170C"/><path d="M20.7 63.216c1.926-2.284 5.201-3.301 8.008-3.955 6.615-1.54 13.479-.294 19.333 3.038.499.284.676.699.64 1.111a2.03 2.03 0 0 1 .105 1.774c-.05 1.175 2.014 6.605-7.475 3.52-6.527-2.124-12.762-.415-18.994 2.334-.623.274-1.277.025-1.714-.448-1.962-2.12-1.716-5.222.097-7.374m80.172-11.472c-.175 2.981-2.19 5.757-4.048 7.96-4.376 5.193-10.62 8.302-17.305 9.136-.569.072-.96-.155-1.177-.507a2.031 2.031 0 0 1-1.147-1.358c-.663-.97-3.271-2.327-2.78-3.362.03-.137 4.93-3.163 6.661-3.93 6.276-2.78 10.472-7.306 13.818-13.237.334-.593 1.01-.785 1.641-.668 2.842.524 4.501 3.157 4.337 5.966m-54.32 34.545a35.482 35.482 0 0 1 7.647 5.778c.85.84.294 1.958-.564 2.314-.013.03-.02.059-.037.088-3.768 6.894-9.97 11.88-17.468 14.186-1.293.398-2.125-1.117-1.594-2.16l10.021-19.712c.364-.716 1.35-.857 1.995-.494" fill="#FFE2DC"/><path d="M38.237 79.934c1.125-3.512 1.749-7.084 1.821-10.773.01-.538.308-.904.689-1.096.085-.089.187-.172.321-.24 3.695-1.88 6.343-4.96 7.474-8.97.174-.62.78-1.11 1.455-.94l3.668.926c.215.054.386.152.522.273.4.14.72.478.734 1.037.1 3.69 2.703 6.789 6.525 6.88 3.954.093 6.874-3.103 6.866-6.974-.001-.495.295-1.105.83-1.23l2.891-.667c.632-.414 1.54-.338 1.725.59.794 4.011 3.167 7.326 6.79 9.253.5.085.95.438 1.006 1.086a70.933 70.933 0 0 0 2.394 13.161c.215.764-.265 1.562-1.09 1.614a206.92 206.92 0 0 1-43.618-1.837c-.716-.106-.99-.67-.93-1.225-.137-.228-.185-.52-.073-.868" fill="#F5A992"/><path d="M33.343 24.308c.045-.744.54-1.187 1.11-1.337.096-.642.553-1.256 1.367-1.343 17.257-1.827 34.609-2.537 51.799-.79.258.026.416 2.5.602 2.619.748.154 1.39.807 1.11 1.752-2.28 7.694.387 15.876-1.897 23.562-2.04 6.868-8.134 11.254-14.9 12.865-7.187 1.712-15.398 1.227-22.56-.478-6.222-1.482-12.317-4.682-15.383-10.542-4.242-8.106-1.775-17.67-1.248-26.308" fill="#FFE2DC"/><path d="M58.812 49.763c2.103 3.968 7.328 4.508 9.924.66 1.04-1.542 3.56-.09 2.51 1.467-3.738 5.54-11.753 5.36-14.944-.66-.875-1.651 1.633-3.122 2.51-1.467" fill="#050000"/><path d="M24.869 82.365a152.256 152.256 0 0 1 14.715-7.446c.222-.097.434-.14.633-.139.156-.025.322-.032.507-.002l42.94 6.924c.638.103 1.02.493 1.184.956a81.698 81.698 0 0 1 8.668 13.614c.628 1.243-1.175 2.77-2.285 1.73-3.297-3.088-6.595-1.968-9.936.185-1.94 1.25-3.943 2.28-6.362 1.876-2.41-.402-4.22-2.078-6.06-3.5-1.363-1.054-2.675-2.019-4.488-2.03-1.792-.01-3.486.908-5.181 1.364-2.569.692-4.906.353-7.166-1.055-3.217-2.004-6.027-6.806-10.43-5.104-2.236.864-4.39 1.905-6.6.29-1.067-.78-1.653-2.035-2.68-2.863-1.712-1.378-3.852-1.876-6.028-1.638-.944.104-1.535-.536-1.668-1.238-.524-.574-.627-1.428.237-1.924M37.47 97.42c.385-.642 1.348-.941 1.994-.494a54.767 54.767 0 0 1 7.189 5.922c.176.172.283.356.348.542.341.424.356.963.158 1.422a1.36 1.36 0 0 1-.453.824c-1.95 1.784-4.29 3.073-6.692 4.155-1.81.814-3.96 1.31-5.704.044-1.658-1.2-1.765-3.313-1.093-5.087.972-2.563 2.847-4.983 4.253-7.327" fill="#F28E77"/><path d="M25.565 27.916C29.86 12.746 31.685 1.03 60.102.406 85.49-.152 93.657 14.774 93.614 29.761c-.005 1.766-3.558 1.881-4.131 1.803-4.71-.65-11.33-3.241-17.895-10.811-10.767 10.055-33.055 13.399-44.638 9.58-.371-.122-.56-.436-.673-.713-.558-.306-.937-.908-.712-1.704" fill="#401F0F"/><path d="M62.426 42.957c.751.197 3.07.947 3.433-.264.174-.583-.607-1.146-.963-1.5-1.162-1.162-2.067-2.29-1.734-4.028.352-1.836 3.155-1.058 2.803.772-.099.515 1.434 1.632 1.74 1.995.76.904 1.278 1.997 1.04 3.206-.662 3.37-4.517 3.298-7.092 2.621-1.807-.475-1.041-3.28.773-2.802" fill="#F4D7D0"/><path d="M38.25 16.086c1.259-.69 2.774.01 3.899.648.03.017.058.04.09.058-.175-2.273.343-4.635 2.68-4.864 2.464-.241 2.699 2.104 2.452 4.405 1.459-.604 3.007-.687 4.233.328 1.361 1.127.848 3.043-.545 3.87-.811.482-1.793.747-2.802.879a8.107 8.107 0 0 1 1.595 5.09c-.038 1.15-1.192 1.744-2.186 1.255a7.717 7.717 0 0 1-3.242-3.018c-1.547 1.65-3.64 2.854-5.242 1.03-1.08-1.23-.595-3.006.478-4.048.275-.268.571-.499.881-.706-.886-.329-1.726-.789-2.41-1.399-1.099-.977-1.33-2.734.12-3.528" fill="#FAFCF8"/><path d="M44.942 17.385c.141.006.28.04.415.083.175.029.348.086.531.164.987.425 1.423 1.713 1.16 2.697-.316 1.187-1.535 1.8-2.693 1.558-1.04-.218-1.86-1.203-1.78-2.28.09-1.204 1.113-2.28 2.367-2.222" fill="#FCBF2C"/><path d="M43.956 34.423c1.136-2.241 3.568-3.366 5.937-3.18.283-.157.636-.206 1.048-.067 3.154 1.06 5.242 4.493 4.19 7.784-1.034 3.238-5.039 5.03-8.147 3.7-3.035-1.3-4.531-5.273-3.028-8.237" fill="#FAFCF8"/><path d="M48.323 33.298c.168-.144.38-.258.65-.32 2.789-.655 5.708 1.981 4.645 4.859-1.008 2.729-4.672 3.517-6.505 1.15-1.413-1.826-.865-4.877 1.21-5.69" fill="#401F0F"/><path d="M51.153 35.346c2.043 0 2.043 2.906 0 2.906s-2.043-2.906 0-2.906m22.545-2.3c2.349-3.138 6.777-3.11 9.593-.67.383.33.505.721.462 1.091 1.228 1.693 1.637 3.923.692 6.023-1.55 3.445-5.751 4.853-9.008 2.877-3.26-1.977-4.01-6.288-1.739-9.321" fill="#FAFCF8"/><path d="M77.648 33.151c.458-.26.946-.405 1.433-.451.261-.111.57-.142.92-.048.306.083.6.195.88.33.34.144.651.341.929.579 1.48 1.162 2.228 3.1 1.372 5.007-1.087 2.425-4.177 2.714-6.073 1.066-1.97-1.713-1.784-5.162.539-6.483" fill="#401F0F"/><path d="M80.776 35.152c2.042 0 2.042 2.906 0 2.906-2.043 0-2.043-2.906 0-2.906" fill="#FAFCF8"/><path d="M106.26 28.985a369.004 369.004 0 0 0-8.194 24.346c-.536 1.797-3.282.844-2.748-.946a369.517 369.517 0 0 1 8.194-24.347c.658-1.75 3.407-.808 2.748.947" fill="#F5DA6A"/><path d="M102.825 19.816c1.034.39 2.062.79 3.087 1.2.985-.863 3.584-3.118 3.975-3.173.455-.144.887.007 1.206.313.38.287.62.749.516 1.355l-.629 3.644c1.53.673 1.856.853 3.397 1.502.998.42 1.476 2.164-.528 2.76-1.314.391-3.802 1.144-3.802 1.144l-.622 3.6c-.203 1.173-2.024 1.676-2.64.533l-1.912-3.548-4.136.467c-1.243.14-2.039-1.496-1.197-2.403a85.717 85.717 0 0 1 2.761-2.838l-1.317-2.443c-.694-1.287.463-2.632 1.841-2.113" fill="#DD8D00"/></g></svg>