<svg width="480" height="360" viewBox="0 0 480 360" xmlns="http://www.w3.org/2000/svg" xmlns:xlink="http://www.w3.org/1999/xlink"><defs><path id="a" d="M.036 0H480v343.174H.036z"/><path id="c" d="M.036.143H480v290.904H.036z"/><path id="e" d="M.036.526H480v151.709H.036z"/><path id="g" d="M.036 0h402.032v343.174H.036z"/><path id="i" d="M.036.227H480V311.4H.036z"/><path id="k" d="M.036.487H480V112.7H.036z"/><path id="m" d="M.036.456H480V134.9H.036z"/></defs><g fill="none" fill-rule="evenodd"><g transform="translate(0 -60)"><mask id="b" fill="#fff"><use xlink:href="#a"/></mask><path fill="#BCE0DA" mask="url(#b)" d="M.036 343.174H480V0H.036z"/></g><path d="M244.504 107.03a114.318 114.318 0 0 0-8.223-.072L230.241-60h20.306l-6.043 167.03m20.971 2.91a112.34 112.34 0 0 0-8.163-1.612L280.612-60h21.24l-36.377 169.94m21.041 7.239a111.946 111.946 0 0 0-8.418-3.462L334.71-60h25.787l-73.98 177.179m19.529 11.475a113.238 113.238 0 0 0-8.232-5.486L397.031-60h33.815l-124.8 188.654m17.457 15.796a114.164 114.164 0 0 0-6.163-6.35L480-53.894v40.856L323.503 144.449" fill="#C3E3DD"/><g transform="translate(0 45.6)"><mask id="d" fill="#fff"><use xlink:href="#c"/></mask><path d="M339.222 121.32a112.853 112.853 0 0 0-5.56-9.34L480 .143v34.115L339.222 121.32" fill="#C3E3DD" mask="url(#d)"/><path fill="#FFFFFE" mask="url(#d)" d="M0 291.047v-27.38l77.989-26.093h40.452L0 291.047"/></g><path d="M118.44 283.174H77.99l57.34-19.186a112.633 112.633 0 0 0 4.566 9.5l-21.454 9.686" fill="#C3E3DD"/><g transform="translate(0 119.4)"><mask id="f" fill="#fff"><use xlink:href="#e"/></mask><path d="M348.875 72.428a112.25 112.25 0 0 0-3.24-10.499L480 1.265v27.293l-131.125 43.87M0 152.03v-25.014l127.703-9.344a112.87 112.87 0 0 0 2.232 10.957L0 152.03m352.391-51.489v-.033c0-3.763-.184-7.487-.543-11.155L480 66.27v24.933l-127.609 9.338m-225.982-.307L0 90.804V65.785l127.003 23.057a114.327 114.327 0 0 0-.594 11.392M480 152.235l-131.086-23.798a112.572 112.572 0 0 0 2.18-10.754L480 127.3v24.936M130.123 71.665l-41.657-14c.284-.119.477-.358.477-.634v-5.597c0-.393-.394-.712-.882-.712h-.202l-3.45-3.86-.222.27c-.258.313-2.314 2.812-2.889 3.59h-.172c-.488 0-.883.319-.883.712v3.467L0 27.931V.527l133.502 60.49a112.123 112.123 0 0 0-3.379 10.65m-43.07-20.944h-5.001c.549-.702 1.585-1.976 2.376-2.94l2.625 2.94" fill="#C3E3DD" mask="url(#f)"/></g><path fill="#FFFFFE" d="M480 336.68l-118.09-53.506h40.158L480 309.365v27.315"/><g transform="translate(0 -60)"><mask id="h" fill="#fff"><use xlink:href="#g"/></mask><path d="M402.068 343.174H361.91l-22.687-10.28a112.423 112.423 0 0 0 4.435-9.352l58.41 19.632M140.008 226.12L0 139.787v-40.51l146.807 115.856a113.09 113.09 0 0 0-6.799 10.987m16.479-22.975L0 44.695V0h3.032l160.827 195.879a113.508 113.508 0 0 0-7.372 7.266" fill="#C3E3DD" mask="url(#h)"/></g><path d="M174.452 127.436L51.474-60H82.31l99.792 182.5a113.133 113.133 0 0 0-7.65 4.936m19.54-11.026L120.392-60h26.006l56.199 173.045a112.136 112.136 0 0 0-8.605 3.366m21.345-6.927L179.233-60h21.23l23.089 168.02c-2.772.388-5.51.878-8.215 1.464" fill="#C3E3DD"/><path d="M239.4 332.9c-38.964 0-73.32-19.72-93.633-49.726h187.266c-20.313 30.006-54.669 49.725-93.633 49.725" fill="#F1F2EF"/><path d="M333.033 283.174H145.767a112.93 112.93 0 0 1-5.872-9.687l94.326-42.586-98.892 33.087a112.189 112.189 0 0 1-5.394-15.959l104.006-18.73-106.238 7.773a113.916 113.916 0 0 1-1.294-17.164v-.274l107.532 8.022-106.938-19.414a112.63 112.63 0 0 1 3.12-17.177l104.1 34.988-100.721-45.637a112.231 112.231 0 0 1 6.506-14.296l94.768 58.435-87.97-69.422a113.602 113.602 0 0 1 9.68-11.988l79.09 80.082-71.717-87.348a113.623 113.623 0 0 1 10.593-8.443l62.129 94.695-54.479-99.63a112.608 112.608 0 0 1 11.89-6.09l43.765 104.898-35.16-108.264a112.149 112.149 0 0 1 12.74-3.561l23.713 111.318-15.498-112.783c4.173-.585 8.423-.944 12.73-1.06l4.112 113.675 4.11-113.604c4.336.192 8.612.63 12.808 1.298l-15.57 112.482 23.733-110.87a112.03 112.03 0 0 1 12.623 3.777l-35.064 107.6 43.482-104.138a112.495 112.495 0 0 1 11.298 5.989l-53.608 98.968 61.84-93.482a113.685 113.685 0 0 1 11.294 9.446l-72.126 85.134 78.29-78.785a113.433 113.433 0 0 1 10.157 13.131l-87.646 66.982 93.207-57.642a112.416 112.416 0 0 1 6.412 14.409l-99.07 44.729 102.31-34.23a112.574 112.574 0 0 1 2.974 16.925l-105 18.912 105.543-7.724a113.948 113.948 0 0 1-1.296 17.142l-104.247-7.776 102.066 18.53a112.226 112.226 0 0 1-5.256 15.705L246.56 230.91l92.663 41.985a113.14 113.14 0 0 1-6.19 10.28" fill="#AFD4CD"/><path d="M240.394 220.634l-4.113-113.676a114.65 114.65 0 0 1 8.223.072l-4.11 113.604m1.348.176l15.57-112.482c2.756.439 5.477.978 8.163 1.612l-23.733 110.87m1.292.507l35.064-107.6a111.946 111.946 0 0 1 8.418 3.462l-43.482 104.138m1.172.819l53.608-98.968a113.238 113.238 0 0 1 8.232 5.486l-61.84 93.482m1.008 1.098L317.34 138.1a114.164 114.164 0 0 1 6.163 6.35l-78.289 78.784m.801 1.328l87.646-66.982a112.853 112.853 0 0 1 5.561 9.34l-93.207 57.642m-106.12 48.925a112.633 112.633 0 0 1-4.566-9.499l98.892-33.087-94.326 42.586m106.668-47.429l99.071-44.729a112.25 112.25 0 0 1 3.24 10.499l-102.31 34.23M129.935 248.03a112.493 112.493 0 0 1-2.232-10.958l106.238-7.774-104.006 18.731m116.913-20.364l105-18.912c.36 3.668.543 7.392.543 11.155v.033l-105.543 7.724m-12.907-.009l-107.532-8.022c.009-3.845.21-7.646.594-11.392l106.938 19.414m114.973 20.181l-102.066-18.53 104.247 7.776a112.572 112.572 0 0 1-2.181 10.754m-114.691-21.784l-104.1-34.988a112.123 112.123 0 0 1 3.379-10.65l100.721 45.638m105 46.841L246.56 230.91l97.098 32.633a112.423 112.423 0 0 1-4.435 9.352m-104.447-48.34l-94.768-58.435a113.09 113.09 0 0 1 6.799-10.987l87.969 69.422m.8-1.328l-79.09-80.082a113.508 113.508 0 0 1 7.373-7.266l71.717 87.348m1.004-1.097l-62.128-94.694a113.133 113.133 0 0 1 7.65-4.935l54.479 99.63m1.176-.821l-43.765-104.9a112.136 112.136 0 0 1 8.605-3.365l35.16 108.264m1.293-.507l-23.713-111.318a112.57 112.57 0 0 1 8.215-1.465l15.498 112.783" fill="#B6D6CF"/><g transform="translate(0 108.6)"><mask id="j" fill="#fff"><use xlink:href="#i"/></mask><path d="M353.45 113.677c0 62.657-50.793 113.45-113.45 113.45-62.657 0-113.45-50.793-113.45-113.45C126.55 51.02 177.343.227 240 .227c62.657 0 113.45 50.793 113.45 113.45" fill="#EDCA71" mask="url(#j)"/><path fill="#659C9E" mask="url(#j)" d="M.036 311.4H480V174.574H.036z"/><path fill="#598D8E" mask="url(#j)" d="M.036 179.973H480V146.9H.036z"/><path fill="#4E7C7D" mask="url(#j)" d="M.036 154.5H480v-7.6H.036z"/></g><g transform="translate(0 142.8)"><mask id="l" fill="#fff"><use xlink:href="#k"/></mask><path d="M295.045 112.671s23.514-29.668 25.593-42.287c2.08-12.619 15.248-20.807 15.815-32.661.567-11.855 10.21-18.737 13.99-26.194 3.78-7.457 16.447-6.691 19.85-4.589 3.404 2.104 17.772 13.957 22.31 27.915 4.536 13.957 17.582 29.061 30.626 30.783 13.044 1.72 10.776 8.985 16.07 21.03 5.293 12.046 41.692 13.843 53.746 26.032-12.286 0-198-.029-198-.029" fill="#528A5A" mask="url(#l)"/><path d="M-30.042 107.39C-26.576 94.191-2.996 86.583 5.42 68.255 13.837 49.927 19.658 36.01 27.824 19.47 35.99 2.928 43.11-2.096 55.044 1.673 66.977 5.44 74.933 23.029 79.54 41.245c4.607 18.216 52.823 40.183 61.618 66.145h-171.2" fill="#4D8153" mask="url(#l)"/></g><path d="M17.413 249.836s9.826-22.09 25.991-23.357c16.165-1.266 27.576-22.37 31.697-29.546 4.12-7.176 17.433-18.15 35.817-17.307 18.384.844 19.664 12.33 26.003 23.305 6.34 10.974 29.886 11.082 33.374 23.453 4.259 15.108 33.239 22.831 33.239 22.831l-186.121.621" fill="#528A5A"/><path d="M433.404 144.445a.596.596 0 0 1-.424-.176c-3.61-3.607-7.52-.132-7.686.018a.6.6 0 0 1-.809-.885c.047-.042 4.635-4.158 8.953-.348 5.599-4.203 10.049.33 10.095.376a.6.6 0 1 1-.868.83c-.158-.164-3.96-3.99-8.88.048a.6.6 0 0 1-.381.137m14.159 52.933a.6.6 0 0 1-.424-.175c-1.466-1.467-3.031-.137-3.206.02a.6.6 0 0 1-.808-.887c.813-.745 2.721-1.684 4.469-.33 2.216-1.51 4.214-.462 4.998.357a.6.6 0 0 1-.867.83c-.167-.171-1.718-1.642-3.78.049a.596.596 0 0 1-.382.136m-30.286-23.824a.599.599 0 0 1-.424-.176c-1.465-1.467-3.032-.137-3.206.02a.599.599 0 0 1-.81-.887c.814-.745 2.723-1.684 4.47-.33 2.217-1.51 4.214-.462 4.999.357a.6.6 0 0 1-.868.83c-.168-.17-1.718-1.642-3.78.049a.597.597 0 0 1-.38.137M109.27 150.271a.597.597 0 0 1-.425-.176c-3.609-3.607-7.52-.131-7.684.019a.6.6 0 0 1-.81-.885c.046-.043 4.635-4.158 8.953-.348 5.598-4.204 10.049.329 10.094.376a.6.6 0 1 1-.867.83c-.158-.164-3.96-3.991-8.88.048a.6.6 0 0 1-.381.136m-95.624 8.468a.596.596 0 0 1-.424-.176c-1.467-1.467-3.032-.136-3.207.02a.6.6 0 0 1-.809-.886c.815-.745 2.722-1.684 4.47-.33 2.216-1.51 4.214-.462 4.998.357a.6.6 0 0 1-.867.83c-.168-.17-1.719-1.642-3.78.049a.598.598 0 0 1-.381.136m43.749-23.594a.599.599 0 0 1-.424-.176c-1.466-1.467-3.032-.136-3.207.02a.6.6 0 1 1-.809-.887c.814-.745 2.722-1.684 4.47-.33 2.216-1.51 4.214-.461 4.998.358a.6.6 0 0 1-.867.83c-.168-.171-1.719-1.642-3.78.048a.598.598 0 0 1-.381.137" fill="#1B1A19"/><path fill="#E9E7CD" d="M275.421 245.607h15.503v-58.042h-15.503z"/><path fill="#1B1A19" d="M278.174 240.697h9.998v-1.543h-9.998zm0-3.085h9.998v-1.541h-9.998zm0-3.085h9.998v-1.543h-9.998zm0-3.085h9.998V229.9h-9.998zm0-3.084h9.998v-1.542h-9.998zm0-3.085h9.998v-1.543h-9.998zm0-3.085h9.998v-1.542h-9.998zm0-3.085h9.998v-1.541h-9.998zm0-3.085h9.998v-1.54h-9.998zm0-3.084h9.998v-1.543h-9.998zm0-3.086h9.998v-1.54h-9.998zm0-3.084h9.998v-1.542h-9.998zm0-3.084h9.998v-1.543h-9.998zm0-3.085h9.998v-1.543h-9.998zm0-3.085h9.998v-1.543h-9.998zm0-3.085h9.998v-1.543h-9.998zm0-3.084h9.998v-1.544h-9.998z"/><path fill="#DA7643" d="M234.539 248.309h17.288v-64.724h-17.288z"/><path fill="#0B0D0A" d="M236.843 240.533h12.68v-1.65h-12.68zm0-3.301h12.68v-1.65h-12.68zm0-3.3h12.68v-1.651h-12.68zm0-3.3h12.68v-1.65h-12.68zm0-3.301h12.68v-1.65h-12.68zm0-3.301h12.68v-1.65h-12.68zm0-3.3h12.68v-1.65h-12.68zm0-3.3h12.68v-1.65h-12.68zm0-3.3h12.68v-1.651h-12.68zm0-3.301h12.68v-1.65h-12.68zm0-3.301h12.68v-1.65h-12.68zm0-3.3h12.68v-1.65h-12.68zm0-3.3h12.68v-1.65h-12.68zm0-3.301h12.68v-1.65h-12.68zm0-3.301h12.68v-1.65h-12.68zm0-3.3h12.68v-1.65h-12.68zm0-3.3h12.68v-1.651h-12.68z"/><path fill="#DE5A62" d="M299.599 192.824V179.21h-13.937v61.127h23.262v-47.513h-9.325"/><path fill="#D95F59" d="M264.763 192.824V179.21H278.7v61.127h-23.263v-47.513h9.325"/><path fill="#DE5A62" d="M252.493 240.03l.207 8.643h58.95l-.208-8.642h-58.95"/><path fill="#1B1A19" d="M285.672 183.092h13.937v-1.235h-13.937zm0 3.319h13.937v-1.235h-13.937zm0 3.319h13.937v-1.236h-13.937zm0 3.316h13.937v-1.234h-13.937zm0 3.318h23.264v-1.234h-23.264zm0 3.32h23.264v-1.235h-23.264zm0 3.318h23.264v-1.235h-23.264zm0 3.318h23.264v-1.234h-23.264zm0 3.319h23.264v-1.234h-23.264zm0 3.319h23.264v-1.235h-23.264zm0 3.319h23.264v-1.236h-23.264zm0 3.317h23.264v-1.235h-23.264zm0 3.319h23.264v-1.236h-23.264zm0 3.318h23.264v-1.235h-23.264zm0 3.319h23.264v-1.236h-23.264zm0 3.317h23.264v-1.235h-23.264zm0 3.319h23.264v-1.235h-23.264zm-20.897-53.094h13.937v-1.235h-13.937zm0 3.319h13.937v-1.235h-13.937zm0 3.319h13.937v-1.236h-13.937zm0 3.316h13.937v-1.234h-13.937zm-9.326 3.318h23.263v-1.234h-23.263zm0 3.32h23.263v-1.235h-23.263zm0 3.318h23.263v-1.235h-23.263zm0 3.318h23.263v-1.234h-23.263zm0 3.319h23.263v-1.234h-23.263zm0 3.319h23.263v-1.235h-23.263zm0 3.319h23.263v-1.236h-23.263zm0 3.317h23.263v-1.235h-23.263zm0 3.319h23.263v-1.236h-23.263zm0 3.318h23.263v-1.235h-23.263zm0 3.319h23.263v-1.236h-23.263zm0 3.317h23.263v-1.235h-23.263zm0 3.319h23.263v-1.235h-23.263z"/><path fill="#776959" d="M203.28 239.833h15.505V185.92H203.28z"/><path fill="#1B1A19" d="M203.296 189.257h15.474v-1.247h-15.474zm0 3.283h15.474v-1.247h-15.474zm0 3.283h15.474v-1.247h-15.474zm0 3.281h15.474v-1.247h-15.474zm0 3.284h11.748v-1.248h-11.748zm-.016 3.282h11.764v-1.248h-11.763zm3.212 3.282h8.552v-1.246h-8.552zm0 3.282h8.552v-1.247h-8.552zm0 3.281h8.552v-1.247h-8.552zm0 3.283h8.552v-1.246h-8.552z"/><path fill="#E9E7CD" d="M244.556 248.615h15.503v-58.04h-15.503z"/><path fill="#1B1A19" d="M247.308 243.706h9.998v-1.543h-9.998zm0-3.085h9.998v-1.541h-9.998zm0-3.084h9.998v-1.544h-9.998zm0-3.085h9.998v-1.543h-9.998zm0-3.085h9.998v-1.542h-9.998zm0-3.085h9.998v-1.543h-9.998zm0-3.085h9.998v-1.541h-9.998zm0-3.085h9.998v-1.542h-9.998zm0-3.084h9.998v-1.541h-9.998zm0-3.085h9.998V214.4h-9.998zm0-3.086h9.998v-1.54h-9.998zm0-3.084h9.998v-1.541h-9.998zm0-3.084h9.998v-1.543h-9.998zm0-3.084h9.998v-1.544h-9.998zm0-3.085h9.998v-1.543h-9.998zm0-3.085h9.998v-1.544h-9.998zm0-3.085h9.998v-1.543h-9.998z"/><path fill="#E9E7CD" d="M226.433 248.615h15.504v-58.04h-15.504z"/><path fill="#1B1A19" d="M229.185 243.706h9.999v-1.543h-9.999zm0-3.085h9.999v-1.541h-9.999zm0-3.084h9.999v-1.544h-9.999zm0-3.085h9.999v-1.543h-9.999zm0-3.085h9.999v-1.542h-9.999zm0-3.085h9.999v-1.543h-9.999zm0-3.085h9.999v-1.541h-9.999zm0-3.085h9.999v-1.542h-9.999zm0-3.084h9.999v-1.541h-9.999zm0-3.085h9.999V214.4h-9.999zm0-3.086h9.999v-1.54h-9.999zm0-3.084h9.999v-1.541h-9.999zm0-3.084h9.999v-1.543h-9.999zm0-3.084h9.999v-1.544h-9.999zm0-3.085h9.999v-1.543h-9.999zm0-3.085h9.999v-1.544h-9.999zm0-3.085h9.999v-1.543h-9.999z"/><path fill="#DE5A62" d="M191.559 247.864h17.252v-41.486h-17.252z"/><path fill="#1B1A19" d="M195.137 226.189h4.236v-4.238h-4.236zm0-6.081h4.236v-4.237h-4.236zm0-6.19h4.236v-4.237h-4.236zm6.278 12.271h4.237v-4.238h-4.237zm0-6.081h4.237v-4.237h-4.237zm0-6.19h4.237v-4.237h-4.237z"/><path fill="#DE5A62" d="M212.549 248.615H229.8v-48.463h-17.252z"/><path fill="#1B1A19" d="M215.917 221.033h4.237v-4.238h-4.237zm0-6.082h4.237v-4.237h-4.237zm0-6.189h4.237v-4.238h-4.237zm6.279 12.271h4.237v-4.238h-4.237zm0-6.082h4.237v-4.237h-4.237zm0-6.189h4.237v-4.238h-4.237zm-6.279 30.616h4.236v-4.238h-4.236zm0-6.081h4.236v-4.237h-4.236zm0-6.19h4.236v-4.238h-4.236zm6.279 12.271h4.236v-4.238h-4.236zm0-6.081h4.236v-4.237h-4.236zm0-6.19h4.236v-4.238h-4.236z"/><path fill="#D97944" d="M170.888 248.615h17.251v-53.91h-17.251z"/><path fill="#1B1A19" d="M174.256 214.749h4.236v-4.237h-4.236zm0-6.082h4.236v-4.236h-4.236zm0-6.188h4.236v-4.238h-4.236zm6.278 12.27h4.237v-4.237h-4.237zm0-6.082h4.237v-4.236h-4.237zm0-6.188h4.237v-4.238h-4.237zm-6.278 24.869h4.236v-4.237h-4.236zm0-6.188h4.236v-4.239h-4.236zm6.278 6.188h4.237v-4.237h-4.237zm0-6.188h4.237v-4.239h-4.237z"/><path fill="#73695E" d="M198.732 219.876v9.66h-13.357v19.08h35.062v-28.74h-21.705"/><path fill="#1B1A19" d="M188.218 235.14h3.669v-3.669h-3.669zm0 10.649h3.669v-3.67h-3.67zm0-5.457h3.67v-3.67h-3.67zm12.8-.69h4.237v-4.237h-4.237zm0-6.08h4.237v-4.237h-4.237zm0-6.19h4.237v-4.237h-4.237zm6.279 12.27h4.237v-4.237h-4.237zm0-6.08h4.237v-4.237h-4.237zm0-6.19h4.237v-4.237h-4.237zm6.28 12.27h4.236v-4.237h-4.236zm0-6.08h4.236v-4.237h-4.236zm0-6.19h4.236v-4.237h-4.236z"/><path fill="#FFFFFE" d="M162.558 248.615h18.826v-18.573h-18.826z"/><path fill="#1B1A19" d="M165.67 246.485h4.201v-2.556h-4.2zm0-5.319h4.201v-2.556h-4.2zm0-5.232h4.201v-2.556h-4.2zm7.025 10.551h5.575v-5.648h-5.575zm0-7.459h5.575v-5.648h-5.575z"/><path fill="#FFFFFE" d="M303.27 248.89h18.827v-18.575H303.27z"/><path fill="#1B1A19" d="M306.384 246.758h4.987v-2.554h-4.987zm0-4.389h4.987v-4.105h-4.987zm0-6.161h4.987v-2.556h-4.987zm7.65 10.55h4.987v-2.554h-4.987zm0-4.389h4.987v-4.105h-4.987zm0-6.161h4.987v-2.556h-4.987z"/><g transform="translate(0 120.6)"><mask id="n" fill="#fff"><use xlink:href="#m"/></mask><path d="M376.733 4.945c-.056-.093-.23-.13-.23-.13l-1.031-.184s.192-.322.01-.33c-.185-.01-2.072.579-2.347.616-.277.037-3.949-.064-4.124-.13-.173-.064-1.356-.528-1.83-.487-.475.042-2.835-.212-2.835-.212s-.018-1.251-.148-2.548c-.111-1.134-1.082-1.084-1.324-1.084-.243 0-1.213-.05-1.326 1.084-.128 1.297-.146 2.548-.146 2.548s-2.361.254-2.835.212c-.474-.041-1.658.423-1.832.487-.172.066-3.847.167-4.122.13-.276-.037-2.163-.626-2.347-.617-.183.01.01.331.01.331l-1.031.185s-.175.036-.23.129c-.055.091.082.174.082.174s.175.138.405.202c-.091.157.165.13.305.148.136.018 1.904.267 2.107.128.202-.138.79 0 .79 0l.83 1.657c.447.895 2.496.386 2.76.331.264-.055 2.136.796 2.208.829.072.032.15.777.056 1.877-.18 2.098-.235 2.54.386 2.982.042.538-.287 2.516-.317 2.705-.032.188.593-.11.593-.11l-.69 9.993-1.297.442v1.215h-.94v2.153h13.161v-2.153h-.94v-1.215l-1.297-.442-.69-9.993s.624.298.593.11c-.03-.189-.357-2.167-.316-2.705.62-.442.565-.884.386-2.982-.094-1.1-.017-1.845.055-1.877.071-.033 1.943-.884 2.21-.829.263.055 2.312.564 2.76-.331l.827-1.657s.59-.138.792 0c.202.139 1.969-.11 2.107-.128.138-.019.396.009.303-.148.23-.064.405-.202.405-.202s.138-.083.084-.174" fill="#1B1A19" mask="url(#n)"/><path fill="#DCD0B9" mask="url(#n)" d="M.036 134.9H480V127H.036z"/></g><path d="M198.028 249.836c-6.08-1.603-12.169-4.04-17.642-5.863-7.441-2.03-15.56-1.353-23.001-3.383-2.03-.677-4.06-2.706-6.765-3.382-6.765-2.03-13.53 5.412-20.295 1.353-9.472-5.412-20.296-9.472-31.12-8.119-10.148 1.354-42.714 9.37-47.054 15.133-4.34 5.763-20.129 1.963-42.3 2.554a37.548 37.548 0 0 0-.838 1.707l97.521 3.777 91.494-3.777M444.6 249.6c-9-2.4-17.4-4.2-26.4-4.8-24 0-47.4-.6-71.4-.6-9 0-41.674 5.924-48.317 6.796a252.396 252.396 0 0 1-3.438 4.475l181.568.028c-8.67-2.014-17.342-4.083-26.013-7.099-1.8-1.2-4.8 1.2-6 1.2" fill="#DCD0B9"/><path fill="#B79167" d="M454.23 251.376h-1.142l-.398-1.796h1.937l-.398 1.796m.001-1.796h-1.142l-.398-1.796h1.937l-.398 1.796m.001-1.796h-1.142l-.398-1.795h1.937l-.398 1.795m.001-1.795h-1.142l-.398-1.797h1.937l-.398 1.797m.001-1.797h-1.142l-.398-1.795h1.937l-.398 1.795m.001-1.795h-1.142l-.398-1.796h1.937l-.398 1.796m.001-1.796h-1.142l-.398-1.796h1.937l-.398 1.796"/><path d="M453.544 238.748s-4.651-1.554-6.56 4.005c-.18-.955-1.38-3.14 2.034-5.261 3.096-1.922 4.526 1.256 4.526 1.256" fill="#67A16C"/><path d="M453.582 238.748s-2.255-4.354-7.498-1.696c.537-.811 1.198-3.215 5.126-2.358 3.559.777 2.372 4.054 2.372 4.054m.19 0s4.65-1.554 6.561 4.005c.18-.955 1.38-3.14-2.036-5.261-3.095-1.922-4.525 1.256-4.525 1.256" fill="#67A16C"/><path d="M453.735 238.748s2.255-4.354 7.497-1.696c-.536-.811-1.197-3.215-5.125-2.358-3.56.777-2.372 4.054-2.372 4.054" fill="#67A16C"/><path fill="#B79167" d="M434.563 251.376h-1.14l-.4-1.796h1.94l-.4 1.796m0-1.796h-1.14l-.4-1.796h1.94l-.4 1.796m0-1.796h-1.14l-.4-1.795h1.94l-.4 1.795m0-1.795h-1.14l-.4-1.797h1.94l-.4 1.797m0-1.797h-1.14l-.4-1.795h1.94l-.4 1.795m0-1.795h-1.14l-.4-1.796h1.94l-.4 1.796m0-1.796h-1.14l-.4-1.796h1.94l-.4 1.796"/><path d="M433.88 238.748s-4.652-1.554-6.562 4.005c-.18-.955-1.38-3.14 2.035-5.261 3.096-1.922 4.526 1.256 4.526 1.256" fill="#67A16C"/><path d="M433.916 238.748s-2.255-4.354-7.497-1.696c.536-.811 1.197-3.215 5.124-2.358 3.56.777 2.373 4.054 2.373 4.054m.191 0s4.65-1.554 6.56 4.005c.18-.955 1.38-3.14-2.035-5.261-3.096-1.922-4.525 1.256-4.525 1.256" fill="#67A16C"/><path d="M434.069 238.748s2.255-4.354 7.497-1.696c-.536-.811-1.197-3.215-5.125-2.358-3.56.777-2.372 4.054-2.372 4.054" fill="#67A16C"/><path fill="#B79167" d="M414.898 251.376h-1.141l-.398-1.796h1.936l-.397 1.796m0-1.796h-1.141l-.398-1.796h1.936l-.397 1.796m0-1.796h-1.141l-.398-1.795h1.936l-.397 1.795m0-1.795h-1.141l-.398-1.797h1.936l-.397 1.797m0-1.797h-1.141l-.398-1.795h1.936l-.397 1.795m0-1.795h-1.141l-.398-1.796h1.936l-.397 1.796m0-1.796h-1.141l-.398-1.796h1.936l-.397 1.796"/><path d="M414.212 238.748s-4.65-1.554-6.56 4.005c-.18-.955-1.38-3.14 2.036-5.261 3.095-1.922 4.524 1.256 4.524 1.256" fill="#67A16C"/><path d="M414.25 238.748s-2.255-4.354-7.497-1.696c.536-.811 1.197-3.215 5.125-2.358 3.56.777 2.372 4.054 2.372 4.054m.19 0s4.651-1.554 6.561 4.005c.18-.955 1.38-3.14-2.035-5.261-3.096-1.922-4.526 1.256-4.526 1.256" fill="#67A16C"/><path d="M414.403 238.748s2.256-4.354 7.497-1.696c-.536-.811-1.197-3.215-5.124-2.358-3.56.777-2.373 4.054-2.373 4.054" fill="#67A16C"/><path fill="#B79167" d="M395.232 251.376h-1.141l-.399-1.796h1.938l-.398 1.796m0-1.796h-1.141l-.399-1.796h1.938l-.398 1.796m0-1.796h-1.141l-.399-1.795h1.938l-.398 1.795m0-1.795h-1.141l-.399-1.797h1.938l-.398 1.797m0-1.797h-1.141l-.399-1.795h1.938l-.398 1.795m0-1.795h-1.141l-.399-1.796h1.938l-.398 1.796m0-1.796h-1.141l-.399-1.796h1.938l-.398 1.796"/><path d="M394.547 238.748s-4.65-1.554-6.56 4.005c-.18-.955-1.38-3.14 2.035-5.261 3.095-1.922 4.525 1.256 4.525 1.256" fill="#67A16C"/><path d="M394.585 238.748s-2.256-4.354-7.497-1.696c.535-.811 1.197-3.215 5.124-2.358 3.56.777 2.373 4.054 2.373 4.054m.19 0s4.651-1.554 6.56 4.005c.18-.955 1.38-3.14-2.034-5.261-3.096-1.922-4.526 1.256-4.526 1.256" fill="#67A16C"/><path d="M394.738 238.748s2.254-4.354 7.497-1.696c-.537-.811-1.197-3.215-5.125-2.358-3.56.777-2.372 4.054-2.372 4.054" fill="#67A16C"/><path fill="#B79167" d="M375.566 251.376h-1.14l-.4-1.796h1.938l-.398 1.796m0-1.796h-1.14l-.4-1.796h1.938l-.398 1.796m0-1.796h-1.14l-.4-1.795h1.938l-.398 1.795m0-1.795h-1.14l-.4-1.797h1.938l-.398 1.797m0-1.797h-1.14l-.4-1.795h1.938l-.398 1.795m0-1.795h-1.14l-.4-1.796h1.938l-.398 1.796m0-1.796h-1.14l-.4-1.796h1.938l-.398 1.796"/><path d="M374.882 238.748s-4.651-1.554-6.562 4.005c-.18-.955-1.38-3.14 2.036-5.261 3.095-1.922 4.526 1.256 4.526 1.256" fill="#67A16C"/><path d="M374.918 238.748s-2.255-4.354-7.497-1.696c.537-.811 1.197-3.215 5.125-2.358 3.56.777 2.372 4.054 2.372 4.054m.192 0s4.65-1.554 6.56 4.005c.18-.955 1.38-3.14-2.036-5.261-3.096-1.922-4.525 1.256-4.525 1.256" fill="#67A16C"/><path d="M375.071 238.748s2.256-4.354 7.498-1.696c-.536-.811-1.198-3.215-5.125-2.358-3.56.777-2.373 4.054-2.373 4.054" fill="#67A16C"/><path fill="#B79167" d="M355.9 251.376h-1.14l-.399-1.796h1.938l-.399 1.796m0-1.796h-1.14l-.399-1.796h1.938l-.399 1.796m0-1.796h-1.14l-.399-1.795h1.938l-.399 1.795m0-1.795h-1.14l-.399-1.797h1.938l-.399 1.797m0-1.797h-1.14l-.399-1.795h1.938l-.399 1.795m0-1.795h-1.14l-.399-1.796h1.938l-.399 1.796m0-1.796h-1.14l-.399-1.796h1.938l-.399 1.796"/><path d="M355.216 238.748s-4.652-1.554-6.561 4.005c-.18-.955-1.38-3.14 2.035-5.261 3.096-1.922 4.526 1.256 4.526 1.256" fill="#67A16C"/><path d="M355.253 238.748s-2.256-4.354-7.497-1.696c.536-.811 1.197-3.215 5.124-2.358 3.56.777 2.373 4.054 2.373 4.054m.19 0s4.651-1.554 6.561 4.005c.18-.955 1.38-3.14-2.035-5.261-3.096-1.922-4.526 1.256-4.526 1.256" fill="#67A16C"/><path d="M355.406 238.748s2.255-4.354 7.497-1.696c-.537-.811-1.197-3.215-5.125-2.358-3.56.777-2.372 4.054-2.372 4.054" fill="#67A16C"/><path fill="#B79167" d="M336.235 251.376h-1.142l-.398-1.796h1.938l-.398 1.796m0-1.796h-1.142l-.398-1.796h1.938l-.398 1.796m0-1.796h-1.142l-.398-1.795h1.938l-.398 1.795m0-1.795h-1.142l-.398-1.797h1.938l-.398 1.797m0-1.797h-1.142l-.398-1.795h1.938l-.398 1.795m0-1.795h-1.142l-.398-1.796h1.938l-.398 1.796m0-1.796h-1.142l-.398-1.796h1.938l-.398 1.796"/><path d="M335.55 238.748s-4.651-1.554-6.562 4.005c-.179-.955-1.379-3.14 2.036-5.261 3.096-1.922 4.526 1.256 4.526 1.256" fill="#67A16C"/><path d="M335.587 238.748s-2.255-4.354-7.497-1.696c.536-.811 1.197-3.215 5.124-2.358 3.56.777 2.373 4.054 2.373 4.054m.19 0s4.652-1.554 6.56 4.005c.18-.955 1.38-3.14-2.034-5.261-3.096-1.922-4.526 1.256-4.526 1.256" fill="#67A16C"/><path d="M335.74 238.748s2.255-4.354 7.498-1.696c-.537-.811-1.198-3.215-5.125-2.358-3.56.777-2.373 4.054-2.373 4.054" fill="#67A16C"/><path fill="#B79167" d="M176.025 250.64h-1.14l-.399-1.796h1.938l-.399 1.796m0-1.796h-1.14l-.399-1.796h1.938l-.399 1.796m0-1.796h-1.14l-.399-1.795h1.938l-.399 1.795m0-1.795h-1.14l-.399-1.796h1.938l-.399 1.796m0-1.796h-1.14l-.399-1.796h1.938l-.399 1.796m0-1.796h-1.14l-.399-1.796h1.938l-.399 1.796m0-1.796h-1.14l-.399-1.796h1.938l-.399 1.796"/><path d="M175.341 238.012s-4.651-1.553-6.561 4.005c-.18-.954-1.38-3.14 2.035-5.26 3.096-1.923 4.526 1.255 4.526 1.255" fill="#67A16C"/><path d="M175.378 238.012s-2.255-4.354-7.497-1.696c.536-.81 1.197-3.214 5.124-2.357 3.56.777 2.373 4.053 2.373 4.053m.19 0s4.651-1.553 6.56 4.005c.18-.954 1.38-3.14-2.034-5.26-3.096-1.923-4.526 1.255-4.526 1.255" fill="#67A16C"/><path d="M175.53 238.012s2.257-4.354 7.498-1.696c-.536-.81-1.197-3.214-5.124-2.357-3.56.777-2.373 4.053-2.373 4.053" fill="#67A16C"/><path fill="#B79167" d="M156.36 250.64h-1.14l-.4-1.796h1.938l-.399 1.796m.001-1.796h-1.14l-.4-1.796h1.938l-.399 1.796m.001-1.796h-1.14l-.4-1.795h1.938l-.399 1.795m.001-1.795h-1.14l-.4-1.796h1.938l-.399 1.796m.001-1.796h-1.14l-.4-1.796h1.938l-.399 1.796m.001-1.796h-1.14l-.4-1.796h1.938l-.399 1.796m.001-1.796h-1.14l-.4-1.796h1.938l-.399 1.796"/><path d="M155.675 238.012s-4.65-1.553-6.561 4.005c-.18-.954-1.38-3.14 2.036-5.26 3.095-1.923 4.525 1.255 4.525 1.255" fill="#67A16C"/><path d="M155.713 238.012s-2.256-4.354-7.498-1.696c.536-.81 1.198-3.214 5.125-2.357 3.56.777 2.373 4.053 2.373 4.053m.189 0s4.651-1.553 6.561 4.005c.18-.954 1.38-3.14-2.035-5.26-3.096-1.923-4.526 1.255-4.526 1.255" fill="#67A16C"/><path d="M155.865 238.012s2.255-4.354 7.498-1.696c-.537-.81-1.198-3.214-5.126-2.357-3.56.777-2.372 4.053-2.372 4.053" fill="#67A16C"/><path fill="#B79167" d="M136.694 250.64h-1.14l-.4-1.796h1.938l-.398 1.796m0-1.796h-1.14l-.4-1.796h1.938l-.398 1.796m0-1.796h-1.14l-.4-1.795h1.938l-.398 1.795m0-1.795h-1.14l-.4-1.796h1.938l-.398 1.796m0-1.796h-1.14l-.4-1.796h1.938l-.398 1.796m0-1.796h-1.14l-.4-1.796h1.938l-.398 1.796m0-1.796h-1.14l-.4-1.796h1.938l-.398 1.796"/><path d="M136.01 238.012s-4.652-1.553-6.562 4.005c-.18-.954-1.38-3.14 2.035-5.26 3.096-1.923 4.526 1.255 4.526 1.255" fill="#67A16C"/><path d="M136.046 238.012s-2.255-4.354-7.497-1.696c.537-.81 1.197-3.214 5.125-2.357 3.56.777 2.372 4.053 2.372 4.053m.191 0s4.65-1.553 6.56 4.005c.18-.954 1.38-3.14-2.035-5.26-3.096-1.923-4.525 1.255-4.525 1.255" fill="#67A16C"/><path d="M136.2 238.012s2.255-4.354 7.497-1.696c-.536-.81-1.198-3.214-5.125-2.357-3.56.777-2.373 4.053-2.373 4.053" fill="#67A16C"/><path fill="#B79167" d="M117.028 250.64h-1.14l-.4-1.796h1.938l-.398 1.796m0-1.796h-1.14l-.4-1.796h1.938l-.398 1.796m0-1.796h-1.14l-.4-1.795h1.938l-.398 1.795m0-1.795h-1.14l-.4-1.796h1.938l-.398 1.796m0-1.796h-1.14l-.4-1.796h1.938l-.398 1.796m0-1.796h-1.14l-.4-1.796h1.938l-.398 1.796m0-1.796h-1.14l-.4-1.796h1.938l-.398 1.796"/><path d="M116.344 238.012s-4.652-1.553-6.561 4.005c-.18-.954-1.38-3.14 2.035-5.26 3.095-1.923 4.526 1.255 4.526 1.255" fill="#67A16C"/><path d="M116.38 238.012s-2.255-4.354-7.497-1.696c.537-.81 1.198-3.214 5.125-2.357 3.56.777 2.373 4.053 2.373 4.053m.19 0s4.651-1.553 6.561 4.005c.18-.954 1.38-3.14-2.035-5.26-3.097-1.923-4.526 1.255-4.526 1.255" fill="#67A16C"/><path d="M116.533 238.012s2.256-4.354 7.498-1.696c-.537-.81-1.197-3.214-5.125-2.357-3.56.777-2.373 4.053-2.373 4.053" fill="#67A16C"/><path fill="#B79167" d="M97.363 250.64h-1.141l-.399-1.796h1.937l-.397 1.796m0-1.796h-1.141l-.399-1.796h1.937l-.397 1.796m0-1.796h-1.141l-.399-1.795h1.937l-.397 1.795m0-1.795h-1.141l-.399-1.796h1.937l-.397 1.796m0-1.796h-1.141l-.399-1.796h1.937l-.397 1.796m0-1.796h-1.141l-.399-1.796h1.937l-.397 1.796m0-1.796h-1.141l-.399-1.796h1.937l-.397 1.796"/><path d="M96.677 238.012s-4.65-1.553-6.56 4.005c-.18-.954-1.38-3.14 2.035-5.26 3.096-1.923 4.525 1.255 4.525 1.255" fill="#67A16C"/><path d="M96.715 238.012s-2.255-4.354-7.497-1.696c.536-.81 1.197-3.214 5.124-2.357 3.56.777 2.373 4.053 2.373 4.053m.19 0s4.651-1.553 6.56 4.005c.18-.954 1.38-3.14-2.034-5.26-3.096-1.923-4.526 1.255-4.526 1.255" fill="#67A16C"/><path d="M96.868 238.012s2.256-4.354 7.497-1.696c-.536-.81-1.197-3.214-5.125-2.357-3.56.777-2.372 4.053-2.372 4.053" fill="#67A16C"/><path fill="#B79167" d="M77.696 250.64h-1.14l-.4-1.796h1.939l-.399 1.796m0-1.796h-1.14l-.4-1.796h1.939l-.399 1.796m0-1.796h-1.14l-.4-1.795h1.939l-.399 1.795m0-1.795h-1.14l-.4-1.796h1.939l-.399 1.796m0-1.796h-1.14l-.4-1.796h1.939l-.399 1.796m0-1.796h-1.14l-.4-1.796h1.939l-.399 1.796m0-1.796h-1.14l-.4-1.796h1.939l-.399 1.796"/><path d="M77.012 238.012s-4.651-1.553-6.561 4.005c-.18-.954-1.38-3.14 2.035-5.26 3.096-1.923 4.526 1.255 4.526 1.255" fill="#67A16C"/><path d="M77.05 238.012s-2.256-4.354-7.499-1.696c.537-.81 1.198-3.214 5.126-2.357 3.56.777 2.373 4.053 2.373 4.053m.19 0s4.65-1.553 6.56 4.005c.18-.954 1.38-3.14-2.035-5.26-3.096-1.923-4.526 1.255-4.526 1.255" fill="#67A16C"/><path d="M77.202 238.012s2.255-4.354 7.498-1.696c-.537-.81-1.198-3.214-5.126-2.357-3.56.777-2.372 4.053-2.372 4.053" fill="#67A16C"/><path fill="#B79167" d="M58.03 250.64h-1.14l-.399-1.796h1.938l-.398 1.796m-.001-1.796h-1.14l-.399-1.796h1.938l-.398 1.796m-.001-1.796h-1.14l-.399-1.795h1.938l-.398 1.795m-.001-1.795h-1.14l-.399-1.796h1.938l-.398 1.796m-.001-1.796h-1.14l-.399-1.796h1.938l-.398 1.796m-.001-1.796h-1.14l-.399-1.796h1.938l-.398 1.796m-.001-1.796h-1.14l-.399-1.796h1.938l-.398 1.796"/><path d="M57.346 238.012s-4.651-1.553-6.56 4.005c-.18-.954-1.38-3.14 2.034-5.26 3.096-1.923 4.526 1.255 4.526 1.255" fill="#67A16C"/><path d="M57.383 238.012s-2.255-4.354-7.497-1.696c.536-.81 1.197-3.214 5.125-2.357 3.56.777 2.372 4.053 2.372 4.053m.191 0s4.65-1.553 6.56 4.005c.18-.954 1.38-3.14-2.035-5.26-3.096-1.923-4.525 1.255-4.525 1.255" fill="#67A16C"/><path d="M57.536 238.012s2.256-4.354 7.497-1.696c-.536-.81-1.197-3.214-5.124-2.357-3.56.777-2.373 4.053-2.373 4.053" fill="#67A16C"/><path d="M114.572 179.954c-27.257-8.424-43.262-21.372-52.89-29.16-5.038-4.077-8.68-7.022-11.295-7.331 0 0-.095-.05-1.758-.17.674-.558 1.8-.428 1.8-.428 2.804.322 6.315 3.162 11.63 7.462 9.76 7.894 26.092 21.107 54.095 29.481 0 0 .593.23 1.585.78-1.349-.373-2.7-.49-3.167-.634" fill="#1B1A19"/><path d="M84.428 167.183l2.625 2.94h-5.001c.549-.703 1.585-1.977 2.376-2.94m3.633 2.94h-.202l-3.45-3.861-.222.27c-.258.313-2.314 2.812-2.889 3.59h-.172c-.488 0-.883.319-.883.712v5.597c0 .394.395.712.883.712h6.935c.488 0 .882-.318.882-.712v-5.597c0-.393-.394-.712-.882-.712" fill="#1B1A19"/><path fill="#99B6B2" d="M81.743 173.922h5.7v-2.35h-5.7z"/><path fill="#DE5A62" d="M61.417 254.033l-.227-6.696 3.728-.126.226 6.696-3.727.126"/><path fill="#D97944" d="M80.921 254.033l-.226-6.696 3.727-.126.227 6.696-3.728.126"/><path fill="#DE5A62" d="M100.426 254.033l-.226-6.696 3.727-.126.227 6.696-3.728.126"/><path fill="#D97944" d="M119.932 254.033l-.227-6.696 3.728-.126.226 6.696-3.727.126"/><path fill="#DE5A62" d="M139.436 254.033l-.226-6.696 3.727-.126.227 6.696-3.728.126m200.185-.773l-.227-6.696 3.727-.126.227 6.697-3.727.126"/><path fill="#D97944" d="M359.126 253.26l-.227-6.696 3.728-.126.227 6.697-3.728.126"/><path fill="#DE5A62" d="M378.63 253.26l-.226-6.696 3.728-.126.226 6.697-3.727.126"/><path fill="#D97944" d="M398.136 253.26l-.227-6.696 3.728-.126.226 6.697-3.727.126"/><path fill="#DE5A62" d="M417.64 253.26l-.227-6.696 3.728-.126.227 6.697-3.727.126"/><path fill="#1B1A19" d="M383.71 262.913h1.437v-31.907h-1.437z"/><path fill="#E9E7CD" d="M382.912 231.092v30.468h-16.715l16.715-30.468"/><path fill="#DE5A62" d="M385.946 231.092l-.043 30.468h18.207l-18.164-30.468"/><path d="M409.264 261.94c-6.548 0-41.845-.056-48.233-.056.182.61.416 1.187.687 1.735h47.274a6.582 6.582 0 0 0 .272-1.678" fill="#FFFFFE"/><path d="M361.718 263.619c.288.584.618 1.135.978 1.65h45.601c.29-.522.527-1.073.695-1.65h-47.274" fill="#1B1A19"/><path d="M362.696 265.269c2.86 4.087 7.598 6.046 7.598 6.046s6.349 1.472 9.724 0c3.375-1.471 7.551-1.753 10.376 0 2.824 1.754 11.044 0 11.044 0s4.765-2.285 6.859-6.046h-45.6" fill="#FFFFFE"/></g></svg>