<svg width="120" height="120" viewBox="0 0 120 120" xmlns="http://www.w3.org/2000/svg" xmlns:xlink="http://www.w3.org/1999/xlink"><defs><path id="a" d="M.469.09h83.273v20.254H.469z"/><path id="c" d="M.613.09h19.763v9.884H.613z"/><path id="e" d="M.613.09h19.763v13.18H.613z"/><path id="g" d="M.613.09h19.763v6.59H.613z"/></defs><g fill="none" fill-rule="evenodd"><path d="M95.412 50.656H120a70.604 70.604 0 0 1-16.558 12.06c-4.73-2.043-8.03-6.67-8.03-12.06" fill="#867589"/><g transform="matrix(-1 0 0 1 103.91 50.566)"><mask id="b" fill="#fff"><use xlink:href="#a"/></mask><path d="M83.742.09H8.498c0 5.391-3.3 10.018-8.03 12.06C27.193 26.2 61.175 22.183 83.743.09" fill="#958198" mask="url(#b)"/></g><path d="M90.615 52.76a4 4 0 0 0 0 5.745v-5.744zm0 7.71a4 4 0 0 0 0 5.745v-5.744zm-8.092-7.71a4 4 0 0 0 0 5.745v-5.744zm0 7.71a4 4 0 0 0 0 5.745v-5.744zm4.047-3.854a4 4 0 0 0 0 5.744v-5.744zM74.432 52.76a4 4 0 0 0 0 5.745v-5.744zm0 7.71a4 4 0 0 0 0 5.745v-5.744zm4.046-3.854a4 4 0 0 0 0 5.744v-5.744zM66.341 52.76a4 4 0 0 0 0 5.745v-5.744zm0 7.71a4 4 0 0 0 0 5.745v-5.744zm4.046-3.854a4 4 0 0 0 0 5.744v-5.744zM58.25 52.76a4 4 0 0 0 0 5.745v-5.744zm0 7.71a4 4 0 0 0 0 5.745v-5.744zm4.045-3.854a4 4 0 0 0 0 5.744v-5.744zM50.158 52.76a4 4 0 0 0 0 5.745v-5.744zm0 7.71a4 4 0 0 0 0 5.745v-5.744zm4.046-3.854a4 4 0 0 0 0 5.744v-5.744zM42.067 52.76a4 4 0 0 0 0 5.745v-5.744zm4.045 3.856a4 4 0 0 0 0 5.744v-5.744zm-8.091 0a4 4 0 0 0 0 5.744v-5.744z" fill="#FFF"/><g transform="matrix(-1 0 0 1 20.782 50.566)"><mask id="d" fill="#fff"><use xlink:href="#c"/></mask><path fill="#958198" mask="url(#d)" d="M20.376 9.974V6.68L.613.09z"/></g><g transform="matrix(-1 0 0 1 20.782 50.566)"><mask id="f" fill="#fff"><use xlink:href="#e"/></mask><path fill="#867589" mask="url(#f)" d="M20.376 13.269V9.974L.613.09z"/></g><path fill="#958198" d="M20.169 50.656L.406 53.951v-3.295z"/><g transform="matrix(-1 0 0 1 20.782 50.566)"><mask id="h" fill="#fff"><use xlink:href="#g"/></mask><path fill="#867589" mask="url(#h)" d="M20.376 6.68V3.385L.613.09z"/></g><path d="M101.081 55.598c0-.91.754-1.647 1.683-1.647s1.683.737 1.683 1.647-.754 1.647-1.683 1.647c-.93 0-1.683-.737-1.683-1.647" fill="#000"/></g></svg>