<svg width="165" height="137" viewBox="0 0 165 137" xmlns="http://www.w3.org/2000/svg"><g fill="none"><path d="M71.164 15.12c-6.386 8.546-12.808 24.232 6.903 32.298 22.768 9.31 22.985-26.715 14.473-34.267-4.144-3.676-7.084-4.107-11.569-3.872-4.215.216-8.664 4.31-9.807 5.842z" fill="#BE0A3C"/><path d="M82.576 12.078c-8.556 0-9.398 9.905-9.098 11.141.85 3.473 2.126 7.628 5.765 9.131 3.028 1.252 7.084.355 9.278-2.053 1.953-2.146 4.244-8.374 3.494-11.225.156-.546-.887-6.994-9.439-6.994z" fill="#A0640A"/><path d="M89.917 27.346c3.734-.235 5.17-2.026 4.97-5.156-.285-4.45-4.57-.646-4.57-.646s-.801 4.94-.4 5.802zm-14.947 0C71.24 27.11 69.8 25.32 70 22.19c.285-4.45 4.57-.662 4.57-.662s.802 4.957.4 5.818z" fill="#A0640A"/><path d="M82.965 24.682c.09-.038.175-.087.253-.147.026-.145.043-.292.052-.439.08-1.539.088-2.759-.766-3.86-.999-.171-1.232 3.154-.983 4.454.466.172.98.169 1.444-.008z" fill="#824600"/><path d="M80.61 27.59l3.82-.109s-.683 1.245-1.786 1.173c-1.789-.116-2.034-1.065-2.034-1.065zm7.044-6.345c.98-.51.594 1.436.401 1.75-.89-.06-.738-1.176-.4-1.75zm-11.275-.183c.974-.507.59 1.44.4 1.754-.902-.075-.75-1.18-.4-1.754z" fill="#000"/><path d="M82.632 14.224l9.904 7.68s1.067-5.982-3.169-8.705c-4.236-2.724-6.735 1.025-6.735 1.025z" fill="#A0001E"/><path d="M72.624 23.103l16.88-10.654s-8.657-5.929-14.975.056c-4.97 4.729-1.905 10.598-1.905 10.598z" fill="#BE0A3C"/><path d="M79.588 57.502L60 70.262s-.802 2.938.293 5.35c.979 2.138 3.71 3.84 6.17 3.099 8.311-2.5 10.61 6.523 24.276.327 4.814-2.19 6.891-6.846 13.125-5.327 2.692.658 4.974-.335 6.057-1.595a5.56 5.56 0 0 0 1.203-3.84L79.588 57.502z" fill="#005A5A"/><path fill="#000" d="M70.839 61.422h25.885v11.966H70.839z"/><path fill="#A0640A" d="M91.654 103.24l6.895-6.638-.036-25.499-11.02.455.948 25.419z"/><path fill="#000" d="M100.03 76.386l.172-10.969-14.22.367.256 10.602z"/><path fill="linen" d="M88.537 101.096l.593 16.571 9.608.837-.097-17.325-5.198-1.957z"/><path fill="#F0E6D2" d="M98.641 101.18l-.092-4.578-10.233.28.209 4.297z"/><path fill="#00A08C" d="M104.847 128.78l-6.635-.857-9.005.622.068 1.192 16.033.235z"/><path d="M103.655 127.492a27.526 27.526 0 0 1-3.57-.427l-1.203-12.508H88.814l.4 13.988 15.645.235a7.886 7.886 0 0 1-.401-1.045 3.247 3.247 0 0 0-.803-.243z" fill="#000"/><path fill="#00A08C" d="M91.325 121.435l4.44.012-.385-4.74-4.236-.085z"/><path fill="#005A5A" d="M100.254 117.54h-2.118v-.778h1.977z"/><path fill="#00A08C" d="M100.599 119.358h-2.463v-.782h2.322z"/><path fill="#005A5A" d="M100.948 121.172h-2.812v-.781h2.671z"/><path fill="#00A08C" d="M101.297 122.986h-3.161v-.781h3.02z"/><path fill="#005A5A" d="M101.646 124.8h-3.51v-.777h3.37z"/><path fill="#A0640A" d="M76.768 103.24l-6.896-6.638.036-25.499 11.02.455-.947 25.419z"/><path fill="#000" d="M68.392 76.386l-.172-10.969 14.224.367-.261 10.602z"/><path fill="linen" d="M79.884 101.096l-.593 16.571-9.607.837.092-17.325 5.203-1.957z"/><path fill="#F0E6D2" d="M69.776 101.18l.096-4.578 10.233.28-.209 4.297z"/><path fill="#00A08C" d="M63.574 128.78l6.635-.857 9.006.622-.069 1.192-16.029.235z"/><path d="M64.746 127.492a27.526 27.526 0 0 0 3.57-.427l1.203-12.508h10.085l-.402 13.988-15.644.235c.159-.339.293-.688.402-1.045.25-.114.514-.196.786-.243z" fill="#000"/><path fill="#00A08C" d="M77.097 121.435l-4.441.012.385-4.74 4.24-.085z"/><path fill="#005A5A" d="M68.167 117.54h2.118v-.778h-1.977z"/><path fill="#00A08C" d="M67.822 119.358h2.463v-.782H67.96z"/><path fill="#005A5A" d="M67.473 121.172h2.812v-.781h-2.671z"/><path fill="#00A08C" d="M67.124 122.986h3.161v-.781h-3.02z"/><path fill="#005A5A" d="M66.78 124.8h3.505v-.777h-3.37z"/><path d="M149.224 13.147c-.602-1.332 5.09-3.262 5.214-4.33.125-1.069-5.74 1.654-6.418 1.351-.83-.37 4.056-2.46 3.923-3.792 0-.215-8.504 3.302-19.519 8.61-16.402 7.898-40.357 19.736-40.357 19.736l5.973 9.65s56.21-29.825 56.559-31.225c.349-1.4-4.774 1.332-5.375 0z" fill="#A0640A"/><path d="M143.243 4.339c.898 1.296-1.68 3.493-.85 4.853.83 1.36 3.273.199 3.273 3.261 0 3.062-1.71 3.637-4.204 4.167-4.011.853-3.522-4.63-2.808-6.164.525-1.177 3.149-5.81 4.589-6.117z" fill="#824600"/><path d="M134.49 26.054c-1.203-1.025-5.768-9.466-5.46-11.001.31-1.535 3.747-2.867 5.901-3.102.682.94 5.215 9.04 5.432 10.79.216 1.75-4.677 4.338-5.873 3.313z" fill="#005A5A"/><path fill="#00A08C" d="M130.114 13.23l6.82 13 2.322-1.308-6.515-12.895z"/><path d="M18.407 14.343c.606-1.332-5.09-3.261-5.214-4.33-.125-1.069 5.744 1.655 6.418 1.352.83-.371-4.056-2.46-3.923-3.792.024-.216 8.504 3.301 19.523 8.608 16.398 7.9 40.353 19.738 40.353 19.738L69.6 45.568S13.401 15.743 13.05 14.343c-.354-1.4 4.765 1.332 5.358 0z" fill="#A0640A"/><path d="M24.388 5.535c-.898 1.296 1.68 3.493.85 4.845-.83 1.351-3.269.2-3.269 3.261 0 3.063 1.705 3.637 4.204 4.167 4.011.853 3.522-4.63 2.808-6.164-.53-1.169-3.145-5.802-4.593-6.109z" fill="#824600"/><path d="M33.14 27.25c1.204-1.025 5.769-9.466 5.46-11-.309-1.536-3.742-2.868-5.9-3.103-.682.941-5.215 9.04-5.432 10.79-.216 1.75 4.677 4.338 5.873 3.313z" fill="#005A5A"/><path fill="#00A08C" d="M37.517 14.427l-6.815 12.999-2.323-1.308 6.51-12.895z"/><path d="M89.483 35.285c-8.17 2.942-13.927.634-13.927.634l-.758 5.37 2.367 5.06 15.158-1.993-2.84-9.071z" fill="#A0640A"/><path d="M93.001 32.494l-4.64 2.041s2.542 7.46-4.682 8.166c-7.224.706-5.92-7.065-5.92-7.065L72.9 33.642 60.012 70.25s51.016-2.03 51.124-1.994L93.001 32.494z" fill="#00A08C"/></g></svg>