<svg width="120" height="120" viewBox="0 0 120 120" xmlns="http://www.w3.org/2000/svg"><g fill="none" fill-rule="evenodd"><path d="M17.58 105.216c4.768-.288 10.304-17.746 14.068-20.674C49.42 70.716 72.1 65.117 92.28 55.092c3.288-1.633 6.69-3.553 8.463-6.756 2.72-4.913.68-11.166-2.584-15.738-4.755-6.663-11.918-11.42-19.685-14.061-7.768-2.642-16.123-3.263-24.309-2.684-17.115 1.21-34.423 8.15-45.085 21.54-10.285 12.915-10.85 43.985-2.61 60.24 2.275 4.487 6.303 7.874 11.108 7.583" fill="#FFB839"/><path d="M12.443 98.52c-1.843-.362-2.348-3.338-.725-4.284-.838-.594-1.706-1.227-2.15-2.148-.445-.923-.286-2.219.614-2.713-2.025-.646-2.784-3.627-1.316-5.155a10.648 10.648 0 0 1-1.456-3.36l.91-.796-1.807-8.622c-.18-.854-.359-1.737-.197-2.594.247-1.301 1.346-2.4 2.651-2.651-1.437-.542-2.44-2.055-2.38-3.583.06-1.528 1.183-2.957 2.658-3.385-.466-1.365-.864-2.824-.57-4.235.296-1.412 1.496-2.737 2.945-2.699-1.773-2.65.696-6.876 3.889-6.652.575-.888.602-2.012.664-3.07.064-1.058.217-2.2.96-2.958.744-.758 2.266-.789 2.704.177-.119-1.581-.102-3.286.79-4.598.897-1.312 2.976-1.913 4.11-.8-.598-1.435-.187-3.225.978-4.26 1.165-1.031 3-1.231 4.363-.472-.588-1.414-.133-3.189 1.063-4.15 1.198-.962 3.036-1.027 4.299-.157-.326-1.623 1.505-3.02 3.163-2.928 1.66.092 3.082 1.156 4.391 2.175.64-1.441 1.349-2.965 2.688-3.803 1.339-.836 3.49-.552 4.028.929 1.454-3.096 6.416-3.681 8.555-1.007 1.143-1.14 2.343-2.313 3.872-2.834 1.53-.52 3.488-.173 4.31 1.214 1.19-1.088 2.463-2.22 4.046-2.548 1.58-.327 3.528.51 3.792 2.097.993-.9 2.072-1.842 3.403-2.028 1.33-.187 2.899.79 2.784 2.122 1.372-.325 2.531-1.278 3.906-1.594 1.376-.313 3.218.526 3.046 1.92 1.7-2.144 5.84-1.173 6.397 1.5 1.879-1.157 4.665 1.192 3.83 3.228 1.954-.977 4.604 1.181 4.029 3.282 1.718-.777 3.675 1.141 3.66 3.02-.014 1.88-1.274 3.496-2.518 4.908a86.235 86.235 0 0 1-7.96 7.936C80.606 55.411 62.54 62.934 48.255 75.371c-3.827 3.33-7.353 6.992-11.219 10.278-2.652 2.255-5.455 4.326-8.168 6.504-3.401 2.73-6.509 5.763-9.813 8.588-1.164.996-2.269 1.497-3.875 1.068-.776-.208-1.56-.657-2.06-1.301-.136-.175-.89-2.03-.676-1.987" fill="#884B2B"/><path d="M40.449 26.849c-3.39 1.778-7.733 4.629-11.635 7.77-4.232 3.408-7.33 8.012-10.845 12.15-2.423 2.856-4.911 5.827-5.957 9.42-.536 1.837-.668 3.766-.798 5.676-.31 4.601-.623 9.204-.934 13.806-.22 3.247-.424 6.609.705 9.664 1.129 3.054 1.414-5.558 2.472-8.637 2.117-6.156 4.142-17.661 5.914-19.68 9.1-10.358 12.994-8.52 20.736-19.92 2.521-3.716 9.384 6.192 12.934 3.432 4.132-3.212 39.139-9.707 40.831-14.648 4.3-12.561-38.611-6.8-53.423.967" fill="#FFF"/><path d="M11.663 53.455c-.468.672-.926.806-1.393 1.477-.139.203-.294.963-.274 1.208.017.197.14.366.257.523.73.978 1.459 1.954 2.187 2.932.068.092.145.189.255.225.14.048.29-.016.421-.08l2.945-1.399.274-1.206c-.204.133-4.147-4.233-4.35-4.099" fill="#EA2915"/><path d="M11.937 52.248a1795.9 1795.9 0 0 0-1.402 2.016c-.139.201-.285.424-.264.669.016.197.139.366.256.524l2.187 2.931c.07.092.145.19.254.227.14.046.29-.018.423-.08l2.944-1.4a80.584 80.584 0 0 0-3.468-5.706l-.608.4" fill="#FF4122"/><path d="M11.233 68.79c.536.62.551 1.095 1.087 1.713.161.187.86.529 1.102.57.196.034.391-.043.574-.116 1.133-.458 2.268-.913 3.4-1.369.107-.043.22-.092.285-.189.08-.122.056-.282.027-.426l-.62-3.19-1.101-.568c.08.23-5.157 2.93-5.08 3.16" fill="#EA2915"/><path d="M10.131 68.221l1.605 1.86c.16.184.341.381.584.423.195.034.391-.042.574-.115 1.133-.458 2.265-.914 3.398-1.37.108-.043.221-.092.284-.188.082-.122.057-.283.029-.427l-.618-3.19a81.607 81.607 0 0 0-6.417 1.904c.077.23.158.46.236.689" fill="#FF4122"/><path d="M71.783 22.297c.536.619.551 1.094 1.086 1.714.16.186.862.527 1.103.569.196.034.391-.042.574-.116 1.133-.457 2.266-.912 3.398-1.37.108-.044.221-.091.285-.188.082-.123.056-.283.029-.426l-.62-3.19-1.102-.57c.08.23-5.156 2.931-5.079 3.161" fill="#EA2915"/><path d="M70.68 21.728c.537.619 1.071 1.24 1.606 1.859.16.185.34.382.583.424.195.034.392-.042.574-.116l3.399-1.369c.107-.043.22-.09.285-.189.08-.122.056-.283.027-.426l-.618-3.19a81.607 81.607 0 0 0-6.417 1.904l.236.687" fill="#FF4122"/><path d="M27.455 37.73c1.114.478 1.446 1.101 2.558 1.58.334.143 1.487.146 1.836.044.28-.081.49-.307.687-.523 1.21-1.338 2.42-2.674 3.627-4.01.115-.127.236-.266.257-.434.027-.216-.11-.413-.24-.585-.964-1.281-1.93-2.562-2.893-3.843l-1.836-.045c.255.254-4.952 7.22-4.697 7.473" fill="#EA2915"/><path d="M25.62 37.685c1.114.478 2.228.956 3.342 1.436.333.142.701.29 1.052.189.28-.082.49-.309.687-.525 1.21-1.336 2.418-2.673 3.627-4.01.115-.127.236-.264.257-.432.027-.215-.11-.413-.24-.586l-2.894-3.842a120.737 120.737 0 0 0-7.294 6.667l.762.76" fill="#FF4122"/><path d="M47.252 30.41c.751-.499 1.275-.453 2.025-.951.226-.151.694-.867.773-1.125.063-.208.006-.43-.052-.641l-1.046-3.88c-.032-.123-.07-.253-.167-.336-.124-.103-.304-.098-.464-.087l-3.582.246-.772 1.123c.262-.054 2.525 6.004 2.787 5.95" fill="#EA2915"/><path d="M46.48 31.533l2.255-1.498c.225-.149.465-.319.543-.577.062-.208.007-.43-.05-.64-.348-1.294-.698-2.587-1.047-3.881-.032-.123-.07-.253-.167-.336-.124-.103-.304-.098-.465-.085-1.194.08-2.387.161-3.581.244.31 2.427.72 4.842 1.228 7.238l.786-.166" fill="#FF4122"/><path d="M15.365 48.915c-.586.615-1.776-.881-1.661-.04.029.207 1.083 2.494 1.252 2.618.192.14.451.138.688.117 1.953-.169 3.36-.933 5.062-1.9 2.6-1.477 5.138-3.06 7.607-4.746.822-.56 4.005-2.202 1.802-5.62-.572-.89-3.414 2.243-4.453 2.574-3.857 1.22-7.55 4.116-10.297 6.997" fill="#6A8915"/><path d="M14.726 46.46c-.587.615-1.185 1.371-1.072 2.21.03.21.109.421.28.546.192.139.45.138.687.117 1.954-.17 3.744-1.11 5.446-2.078a110.09 110.09 0 0 0 7.608-4.747c.822-.562 3.826-2.891 1.927-3.49-1.012-.318-3.54.114-4.58.444-3.856 1.22-7.547 4.118-10.296 6.997" fill="#90C10A"/><path d="M15.477 46.861c-.206.198-.4.42-.503.687-.1.267-.094.59.082.815.17.219.47.307.747.287.278-.022.539-.137.784-.262a7.98 7.98 0 0 0 2.976-2.657c.162-.244.436-.58.502-.87.095-.423-.209-.279-.495-.181-.693.235-1.382.486-2.04.804-.746.358-1.457.801-2.053 1.377m4.303-.296c.302-.003.593-.105.872-.214a16.233 16.233 0 0 0 6.228-4.289c-.461-.147-.95.068-1.39.268a34.332 34.332 0 0 1-3.274 1.291c-.71.238-.968.602-1.418 1.143-.45.542-.93 1.067-1.017 1.8m5.807-6.489c.566-.244 1.193-.301 1.81-.335.454-.025.915-.035 1.36.064.152.034.309.084.42.193.111.108.164.29.087.425-.066.11-.193.16-.313.203a213.624 213.624 0 0 1-4.947 1.73c-.299.099-1.193.571-1.455.35.423-.48.983-.911 1.439-1.384.469-.49.968-.973 1.6-1.246m-5.909 4.111c.678-.207 1.331-.542 1.814-1.059.19-.204.35-.432.512-.659l.497-.705c.13-.186.264-.436.134-.623-.385.023-.741.205-1.078.392a18.22 18.22 0 0 0-2.818 1.945c-.17.14-1.018.692-.72.99.208.211 1.396-.2 1.66-.28M12.44 84.361c-.584.615-1.774-.881-1.66-.042.028.208 1.082 2.495 1.252 2.619.193.14.45.138.688.116 1.953-.168 3.36-.931 5.062-1.9 2.6-1.476 5.138-3.06 7.608-4.745.822-.561 4.003-2.202 1.801-5.62-.573-.889-3.413 2.244-4.454 2.575-3.856 1.218-7.549 4.116-10.296 6.997" fill="#6A8915"/><path d="M11.801 81.905c-.586.615-1.183 1.371-1.07 2.21.027.209.109.422.278.545.192.142.451.138.687.117 1.954-.168 3.745-1.11 5.447-2.078a110.043 110.043 0 0 0 7.607-4.745c.821-.563 3.828-2.893 1.927-3.49-1.012-.319-3.54.113-4.579.443-3.855 1.22-7.549 4.118-10.297 6.998" fill="#90C10A"/><path d="M12.553 82.306c-.206.2-.4.42-.503.686-.101.268-.093.59.082.815.172.219.47.309.747.287.277-.02.539-.136.785-.262a7.928 7.928 0 0 0 2.973-2.657c.165-.244.44-.58.503-.868.096-.424-.207-.28-.495-.18-.692.233-1.381.483-2.041.8-.745.36-1.455.804-2.05 1.38m4.303-.297c.3-.003.592-.105.873-.212a16.257 16.257 0 0 0 6.226-4.291c-.462-.145-.95.068-1.39.268a34.172 34.172 0 0 1-3.274 1.291c-.711.24-.97.602-1.418 1.142-.45.544-.931 1.068-1.017 1.801m5.807-6.489c.566-.244 1.194-.301 1.809-.335.455-.024.916-.036 1.36.063.153.034.309.085.42.193.112.11.166.29.086.425-.062.11-.19.16-.31.205a218.83 218.83 0 0 1-4.95 1.728c-.298.1-1.19.572-1.454.35.425-.479.984-.91 1.439-1.383.469-.488.97-.973 1.6-1.246m-5.908 4.111c.678-.208 1.33-.542 1.813-1.06.19-.203.352-.431.513-.66l.497-.703c.13-.185.263-.436.135-.623-.386.024-.742.206-1.08.394a18.385 18.385 0 0 0-2.82 1.943c-.167.141-1.015.692-.72.992.21.209 1.4-.203 1.662-.283M83.97 30.634c-.587.615-1.776-.882-1.661-.041.027.208 1.082 2.495 1.252 2.618.192.14.45.139.688.117 1.952-.168 3.359-.933 5.062-1.9a109.274 109.274 0 0 0 7.606-4.746c.823-.562 4.005-2.201 1.804-5.62-.574-.89-3.416 2.244-4.456 2.574-3.856 1.22-7.548 4.117-10.295 6.998" fill="#6A8915"/><path d="M83.33 28.178c-.587.615-1.185 1.372-1.07 2.21.028.209.108.422.277.546.193.14.452.137.689.118 1.953-.17 3.743-1.111 5.445-2.08 2.6-1.477 5.138-3.061 7.608-4.747.822-.56 3.826-2.891 1.928-3.489-1.013-.318-3.54.114-4.58.444-3.857 1.22-7.55 4.117-10.297 6.998" fill="#90C10A"/><path d="M84.082 28.58c-.206.198-.402.42-.503.686-.101.267-.094.59.08.816.172.218.47.307.749.285.277-.02.539-.136.784-.26a7.98 7.98 0 0 0 2.976-2.657c.162-.245.436-.58.501-.87.096-.425-.208-.28-.495-.182-.692.235-1.381.487-2.042.804-.745.358-1.454.8-2.05 1.378m4.303-.298c.302-.002.591-.104.872-.213a16.236 16.236 0 0 0 6.228-4.29c-.46-.144-.95.069-1.39.269a34.087 34.087 0 0 1-3.275 1.291c-.71.24-.968.603-1.418 1.142-.45.544-.931 1.07-1.017 1.801m5.808-6.489c.566-.244 1.193-.301 1.808-.334.455-.024.916-.037 1.36.061.154.034.31.086.42.196.113.107.166.29.087.425-.064.109-.192.16-.311.202a213.623 213.623 0 0 1-4.949 1.73c-.297.1-1.192.571-1.453.35.424-.48.983-.91 1.437-1.384.469-.488.97-.973 1.6-1.246m-5.907 4.112c.678-.208 1.33-.543 1.813-1.06.191-.203.35-.433.513-.66l.495-.703c.132-.186.265-.436.135-.624-.384.024-.74.206-1.078.393a18.452 18.452 0 0 0-2.82 1.944c-.167.14-1.015.692-.72.991.21.21 1.399-.2 1.662-.281M69.56 23.634c.81.254 1.12-1.63 1.43-.84.078.195.271 2.705.183 2.895-.099.216-.326.338-.544.435-1.79.797-3.393.812-5.351.79a110.391 110.391 0 0 1-8.965-.47c-.993-.092-4.575.014-4.316-4.039.067-1.055 4.079.31 5.148.094 3.967-.799 8.607-.053 12.414 1.135" fill="#6A8915"/><path d="M68.92 21.178c.812.254 1.703.626 2.014 1.415.077.194.11.421.02.611-.097.215-.325.338-.542.435-1.789.797-3.814.84-5.774.819a110.39 110.39 0 0 1-8.964-.469c-.993-.093-4.757-.676-3.386-2.117.728-.768 3.149-1.614 4.218-1.83 3.966-.798 8.607-.053 12.414 1.136" fill="#90C10A"/><path d="M68.46 21.893c.276.074.553.172.773.357.22.183.37.47.327.75-.044.275-.262.498-.514.613-.254.117-.537.142-.816.15a7.978 7.978 0 0 1-3.894-.882c-.26-.134-.666-.296-.862-.516-.29-.326.045-.345.344-.399.72-.13 1.444-.243 2.175-.285.826-.048 1.663-.004 2.466.212m-3.907 1.822c-.264.143-.568.196-.866.236-2.523.35-5.129.095-7.536-.738.333-.35.864-.398 1.346-.436a34.654 34.654 0 0 0 3.491-.455c.74-.136 1.142.055 1.796.312.66.255 1.336.483 1.769 1.081m-8.241-2.862c-.613.06-1.192.314-1.744.584-.41.197-.82.41-1.158.712-.117.103-.23.222-.274.373-.043.148-.002.333.133.413.109.064.245.046.37.027a210.41 210.41 0 0 0 5.17-.883c.31-.057 1.32-.077 1.44-.398-.603-.214-1.304-.32-1.93-.514-.65-.2-1.322-.38-2.007-.314m7.17.735c-.694.146-1.43.169-2.103-.049a5.983 5.983 0 0 1-.767-.328c-.261-.125-.52-.25-.78-.377-.205-.097-.442-.25-.422-.478.35-.165.749-.18 1.135-.179 1.145.006 2.288.118 3.413.336.217.042 1.224.112 1.111.517-.08.285-1.32.501-1.587.558" fill="#6A8915"/><path d="M114.79 38.256c-4.756-6.664-11.919-11.42-19.688-14.062-7.766-2.642-16.12-3.264-24.308-2.684-17.113 1.21-34.423 8.15-45.084 21.54-10.284 12.915-13.316 30.781-9.592 46.842.262 1.13 2.806 10.572-.542 12.049-2.636 1.164-4.491.623-5.986.015 0 0 1.085 1.093 2.316 1.809 4.525 2.641 9.095 1.794 13.716.664 1.389-.34 2.775-.74 4.033-1.418.14-.075.275-.162.411-.247 2.666-1.01 5.248-2.596 6.967-3.731 3.978-2.633 7.483-5.906 11.246-8.834C66.051 76.372 88.731 70.772 108.91 60.75c3.288-1.634 6.688-3.553 8.463-6.758 2.72-4.913.68-11.163-2.584-15.736" fill="#FFB839"/><path d="M95.103 24.194c-.239-.082-.48-.155-.719-.232.133.18.249.347.325.48a37.25 37.25 0 0 1 3.584 8.507c.82 2.916 1.28 6.003.694 8.975-.551 2.784-1.994 5.322-3.696 7.6-7.243 9.7-18.847 14.98-29.934 19.896-4.51 2-9.06 4.028-13.016 6.966-3.103 2.303-5.778 5.12-8.437 7.921l-19.33 20.37c.35-.08.699-.163 1.048-.248 1.39-.34 2.776-.74 4.032-1.418.14-.075.277-.162.413-.247 2.666-1.01 5.247-2.596 6.966-3.731 3.979-2.633 7.482-5.906 11.247-8.834 17.77-13.827 40.45-19.427 60.63-29.449 3.288-1.634 6.687-3.553 8.464-6.758 2.719-4.913.679-11.163-2.584-15.736-4.757-6.664-11.92-11.42-19.687-14.062" fill="#FFA639"/></g></svg>