<svg width="120" height="120" viewBox="0 0 120 120" xmlns="http://www.w3.org/2000/svg"><g fill="none" fill-rule="evenodd"><path d="M0 101.597h119.917v2.285H0z"/><path d="M118.78 103.882H1.138A1.14 1.14 0 0 1 0 102.739a1.14 1.14 0 0 1 1.137-1.142H118.78a1.14 1.14 0 0 1 1.136 1.142 1.14 1.14 0 0 1-1.136 1.143" fill="#9FCC00"/><path d="M106.952 101.701c0-1.092.5-3.134 1.283-3.773a3.993 3.993 0 0 1 3.147-5.342 2.289 2.289 0 0 1 2.28-2.186 2.292 2.292 0 0 1 2.07 3.267 1.4 1.4 0 0 1 .931 1.107l.022-.001a2.292 2.292 0 0 1 2.286 2.297c0 .429-.119.829-.322 1.172.38.371.617.89.617 1.465 0 .979-.687 1.796-1.602 1.994h-10.712zm-91.967 0c0-1.092-.5-3.134-1.283-3.773a3.993 3.993 0 0 0-3.147-5.342 2.289 2.289 0 0 0-2.28-2.186 2.292 2.292 0 0 0-2.07 3.267 1.4 1.4 0 0 0-.931 1.107l-.022-.001a2.292 2.292 0 0 0-2.286 2.297c0 .429.119.829.322 1.172-.38.371-.617.89-.617 1.465 0 .979.687 1.796 1.602 1.994h10.712z" fill="#98C21D"/><path d="M15.66 66.555h49.848V39.04H15.661z"/><path fill="#FFF" d="M27.21 55.084h14.989V42.551h-14.99z"/><path d="M42.199 42.551v12.606h.477V42.07z"/><path d="M42.199 42.551v12.606h.477V42.07zM26.73 55.157h.476V42.55l-.477-.48z"/><path fill="#B7B9BD" d="M42.676 42.071H26.729l.477.478H42.2zm-14.643 12.1h6.118V43.328h-6.118z"/><path fill="#7BDAFF" d="M28.232 53.994h5.72V43.505h-5.72z"/><path fill="#79BEDF" d="M30.556 53.992h1.071v-10.49h-1.07z"/><path fill="#79BEDF" d="M28.225 51.255h5.716v-.87h-5.716z"/><path fill="#B7B9BD" d="M28.225 51.087h5.716v-.535h-5.716z"/><path fill="#79BEDF" d="M28.225 47.11h5.716v-.87h-5.716z"/><path fill="#B7B9BD" d="M28.225 46.943h5.716v-.535h-5.716z"/><path fill="#B7B9BD" d="M30.716 54.173h.752V43.322h-.752z"/><path fill="#FFF" d="M27.603 46.839h6.688v-.329h-6.688z"/><path fill="#FFF" d="M30.88 54.337h.424V43.222h-.424z"/><path fill="#FFF" d="M27.603 50.983h6.688v-.328h-6.688z"/><path fill="#B7B9BD" d="M35.134 54.171h6.118V43.328h-6.118z"/><path fill="#7BDAFF" d="M35.333 53.994h5.72V43.505h-5.72z"/><path fill="#79BEDF" d="M37.657 53.992h1.071v-10.49h-1.07z"/><path fill="#79BEDF" d="M35.326 51.255h5.716v-.87h-5.716z"/><path fill="#B7B9BD" d="M35.326 51.087h5.716v-.535h-5.716z"/><path fill="#79BEDF" d="M35.326 47.11h5.716v-.87h-5.716z"/><path fill="#B7B9BD" d="M35.326 46.943h5.716v-.535h-5.716z"/><path fill="#B7B9BD" d="M37.817 54.173h.752V43.322h-.752z"/><path fill="#FFF" d="M34.704 46.839h6.687v-.329h-6.687z"/><path fill="#FFF" d="M37.981 54.337h.424V43.222h-.424z"/><path fill="#FFF" d="M34.704 50.983h6.687v-.328h-6.687z"/><path fill="#706F6F" d="M25.315 57.014h18.153V54.94H25.315z"/><path fill="#1A7496" d="M25.315 57.014h18.153V54.94H25.315z"/><path fill="#FFF" d="M50.774 55.084h7.728V42.551h-7.728z"/><path fill="#B7B9BD" d="M51.69 54.171h6.117V43.328h-6.118z"/><path fill="#7BDAFF" d="M51.888 53.994h5.72V43.505h-5.72z"/><path fill="#79BEDF" d="M54.213 53.992h1.07v-10.49h-1.07z"/><path fill="#79BEDF" d="M51.881 51.255h5.716v-.87h-5.716z"/><path fill="#B7B9BD" d="M51.881 51.087h5.716v-.535h-5.716z"/><path fill="#79BEDF" d="M51.881 47.11h5.716v-.87h-5.716z"/><path fill="#B7B9BD" d="M51.881 46.943h5.716v-.535h-5.716z"/><path fill="#B7B9BD" d="M54.373 54.173h.751V43.322h-.751z"/><path fill="#FFF" d="M51.26 46.839h6.687v-.329h-6.688z"/><path fill="#FFF" d="M54.537 54.337h.423V43.222h-.423z"/><path fill="#FFF" d="M51.26 50.983h6.687v-.328h-6.688z"/><path d="M58.502 42.551v12.606h.477V42.07zm-8.205 12.606h.477V42.55l-.477-.48z"/><path fill="#B7B9BD" d="M58.98 42.071h-8.683l.477.478h7.728z"/><path fill="#706F6F" d="M49.306 57.014h10.747V54.94H49.306z"/><path fill="#1A7496" d="M49.306 57.014h10.747V54.94H49.306z"/><path d="M51.596 56.834h8.073v-1.713h-8.073z"/><path fill="#AFB1B5" opacity=".438" d="M63.014 39.04H15.66v5.042h47.354v22.473h2.494V39.04z"/><path fill="#2E567A" d="M115.194 39.021H14.04l13.904-15.534h75.785z"/><path fill="#2E365E" d="M14.039 39.654h101.155v-.633H14.04z"/><path fill="#FFF" d="M65.506 40.836v21.859h47.642v-21.86L89.327 21.58z"/><path fill="#AFB1B5" opacity=".601" d="M113.148 48.59v-7.754L89.327 21.579 65.506 40.836v5.213L87.853 27z"/><path fill="#FFF" d="M64.602 39.829v3.699l24.702-21.057v-3.7zm24.702-17.358l24.702 21.057v-3.7L89.304 18.773z"/><path fill="#AFB1B5" d="M89.304 19.66L64.598 40.715v-.783l24.706-21.055zm0 0l24.705 21.062v-.783L89.304 18.877z"/><path fill="#1A7496" d="M89.304 19.126l-25.986 22.15v-.782l25.986-22.152zm0 0l25.987 22.15v-.782L89.304 18.342z"/><path fill="#F7F7F7" d="M52.83 102.393H9.788v-29.66l21.52-12.779L52.83 72.733z"/><path fill="#102E3B" d="M16.419 102.393h29.78V74.775H16.42z"/><path fill="#706F6F" d="M13.36 76.634h32.724V74.06H13.36z"/><path fill="#706F6F" d="M13.422 76.571h32.725V74H13.422z"/><path fill="#706F6F" d="M13.485 76.508h32.724v-2.572H13.485z"/><path fill="#706F6F" d="M13.547 76.445h32.725v-2.572H13.547z"/><path fill="#706F6F" d="M13.61 76.382h32.724V73.81H13.61z"/><path fill="#706F6F" d="M13.672 76.32h32.725v-2.573H13.672z"/><path fill="#706F6F" d="M13.735 76.257h32.724v-2.573H13.735z"/><path fill="#706F6F" d="M13.797 76.194h32.725v-2.572H13.797z"/><path fill="#706F6F" d="M13.86 76.131h32.725V73.56H13.86z"/><path fill="#706F6F" d="M13.923 76.068h32.724v-2.572H13.923z"/><path fill="#706F6F" d="M13.985 76.005h32.724v-2.572H13.985z"/><path fill="#706F6F" d="M14.047 75.943h32.725V73.37H14.048z"/><path fill="#706F6F" d="M14.11 75.88h32.724v-2.573H14.11z"/><path fill="#706F6F" d="M14.173 75.817h32.724v-2.572H14.173z"/><path fill="#706F6F" d="M14.235 75.754H46.96v-2.572H14.235z"/><path fill="#706F6F" d="M14.297 75.691h32.725V73.12H14.297z"/><path fill="#706F6F" d="M14.36 75.629h32.725v-2.573H14.36z"/><path fill="#706F6F" d="M14.423 75.566h32.724v-2.573H14.423z"/><path fill="#706F6F" d="M14.485 75.503H47.21V72.93H14.485z"/><path fill="#706F6F" d="M14.548 75.44h32.724v-2.573H14.548z"/><path fill="#706F6F" d="M14.61 75.377h32.725v-2.572H14.61z"/><path fill="#706F6F" d="M14.673 75.314h32.724v-2.572H14.673z"/><path fill="#706F6F" d="M14.735 75.251H47.46V72.68H14.735z"/><path fill="#706F6F" d="M14.798 75.189h32.724v-2.572H14.798z"/><path fill="#706F6F" d="M14.86 75.126h32.725v-2.573H14.86z"/><path fill="#706F6F" d="M14.923 75.063h32.724V72.49H14.923z"/><path fill="#706F6F" d="M14.985 75H47.71v-2.572H14.985z"/><path fill="#173D4E" d="M17.797 102.393H44.82V76.764H17.797z"/><path fill="#1A7496" d="M14.908 74.992H47.71v-3.037H14.908z"/><path fill="#3D85A5" d="M15.24 74.785h32.138v-2.622H15.24z"/><path fill="#AFB1B5" opacity=".406" d="M52.84 79.656v-6.015l-21.526-14.45L9.788 72.733v4.779L29.98 65.228z"/><path d="M52.833 101.701h61.393V70.576H52.833z"/><path d="M68.586 75.785V101.7h.587V75.194zm-11.814 25.916h.586V75.785l-.586-.59z"/><path fill="#B7B9BD" d="M69.173 75.194h-12.4l.586.59h11.227z"/><path fill="#163A4B" d="M57.361 101.701h11.225V75.79H57.361z"/><path fill="#09242F" d="M59.03 89.663h2.73V77.191h-2.73zm-.543 10.601h9v-8.788h-9z"/><path fill="#163A4B" d="M59.002 99.76h7.97v-7.78h-7.97z"/><path fill="#09242F" d="M63.908 89.663h2.73V77.191h-2.73z"/><path fill="#7BDAFF" d="M59.398 89.144h1.994V77.71h-1.994zm4.878 0h1.994V77.71h-1.994z"/><path fill="#706F6F" d="M76.004 94.42h26.367v-2.074H76.004z"/><path d="M100.805 77.133v15.495h.586V76.542zm-23.82 15.495h.586V77.133l-.586-.591z"/><path fill="#FFF" d="M77.571 92.628h23.234V77.133H77.57z"/><path fill="#1A7496" d="M76.004 94.42h26.367v-2.074H76.004z"/><path fill="#B7B9BD" d="M101.391 76.542H76.985l.586.59h23.234zM78.782 91.761H84.9V78h-6.118z"/><path fill="#7BDAFF" d="M78.981 91.536h5.72V78.224h-5.72z"/><path fill="#79BEDF" d="M81.306 91.534h1.07V78.221h-1.07z"/><path fill="#79BEDF" d="M78.974 88.06h5.716v-1.104h-5.716z"/><path fill="#B7B9BD" d="M78.974 87.848h5.716v-.68h-5.716z"/><path fill="#79BEDF" d="M78.974 82.8h5.716v-1.104h-5.716z"/><path fill="#B7B9BD" d="M78.974 82.588h5.716v-.68h-5.716z"/><path fill="#B7B9BD" d="M81.465 91.765h.752V77.992h-.752z"/><path fill="#FFF" d="M78.352 82.456h6.688v-.418h-6.688z"/><path fill="#FFF" d="M81.63 91.972h.423V77.865h-.423z"/><path fill="#FFF" d="M78.352 87.715h6.688v-.417h-6.688z"/><path fill="#B7B9BD" d="M86.274 91.761h6.117V78h-6.117z"/><path fill="#7BDAFF" d="M86.473 91.536h5.72V78.224h-5.72z"/><path fill="#79BEDF" d="M88.797 91.534h1.071V78.221h-1.07z"/><path fill="#79BEDF" d="M86.465 88.06h5.716v-1.104h-5.716z"/><path fill="#B7B9BD" d="M86.465 87.848h5.716v-.68h-5.716z"/><path fill="#79BEDF" d="M86.465 82.8h5.716v-1.104h-5.716z"/><path fill="#B7B9BD" d="M86.465 82.588h5.716v-.68h-5.716z"/><path fill="#B7B9BD" d="M88.957 91.765h.752V77.992h-.752z"/><path fill="#FFF" d="M85.844 82.456h6.687v-.418h-6.687z"/><path fill="#FFF" d="M89.12 91.972h.424V77.865h-.423z"/><path fill="#FFF" d="M85.844 87.715h6.687v-.417h-6.687z"/><path fill="#B7B9BD" d="M93.776 91.761h6.118V78h-6.118z"/><path fill="#7BDAFF" d="M93.975 91.536h5.72V78.224h-5.72z"/><path fill="#79BEDF" d="M96.3 91.534h1.07V78.221H96.3z"/><path fill="#79BEDF" d="M93.968 88.06h5.716v-1.104h-5.716z"/><path fill="#B7B9BD" d="M93.968 87.848h5.716v-.68h-5.716z"/><path fill="#79BEDF" d="M93.968 82.8h5.716v-1.104h-5.716z"/><path fill="#B7B9BD" d="M93.968 82.588h5.716v-.68h-5.716z"/><path fill="#B7B9BD" d="M96.459 91.765h.752V77.992h-.752z"/><path fill="#FFF" d="M93.346 82.456h6.688v-.418h-6.688z"/><path fill="#FFF" d="M96.623 91.972h.424V77.865h-.424z"/><path fill="#FFF" d="M93.346 87.715h6.688v-.417h-6.688z"/><path fill="#AFB1B5" opacity=".601" d="M114.226 74.924v-4.348H52.833v31.125H58.1V74.924z"/><path fill="#2E365E" d="M52.965 72.003h63.346v-.633H52.965z"/><path fill="#2E567A" d="M39.719 62.689h73.494l3.098 8.681H54.368z"/><path fill="#706F6F" d="M76.004 58.91h26.367v-2.072H76.004z"/><path d="M100.805 41.624V57.12h.586V41.034zM76.985 57.12h.586V41.624l-.586-.59z"/><path fill="#FFF" d="M77.571 57.12h23.234V41.624H77.57z"/><path fill="#1A7496" d="M76.004 58.91h26.367v-2.072H76.004z"/><path d="M78.294 58.73h23.693v-1.712H78.294z"/><path fill="#B7B9BD" d="M101.391 41.034H76.985l.586.59h23.234zM78.782 56.253H84.9V42.49h-6.118z"/><path fill="#7BDAFF" d="M78.981 56.028h5.72V42.716h-5.72z"/><path fill="#79BEDF" d="M81.306 56.026h1.07V42.712h-1.07z"/><path fill="#79BEDF" d="M78.974 52.552h5.716v-1.104h-5.716z"/><path fill="#B7B9BD" d="M78.974 52.34h5.716v-.68h-5.716z"/><path fill="#79BEDF" d="M78.974 47.292h5.716v-1.104h-5.716z"/><path fill="#B7B9BD" d="M78.974 47.08h5.716v-.68h-5.716z"/><path fill="#B7B9BD" d="M81.465 56.256h.752V42.484h-.752z"/><path fill="#FFF" d="M78.352 46.948h6.688v-.418h-6.688z"/><path fill="#FFF" d="M81.63 56.463h.423V42.357h-.423z"/><path fill="#FFF" d="M78.352 52.207h6.688v-.417h-6.688z"/><path fill="#B7B9BD" d="M86.274 56.253h6.117V42.49h-6.117z"/><path fill="#7BDAFF" d="M86.473 56.028h5.72V42.716h-5.72z"/><path fill="#79BEDF" d="M88.797 56.026h1.071V42.712h-1.07z"/><path fill="#79BEDF" d="M86.465 52.552h5.716v-1.104h-5.716z"/><path fill="#B7B9BD" d="M86.465 52.34h5.716v-.68h-5.716z"/><path fill="#79BEDF" d="M86.465 47.292h5.716v-1.104h-5.716z"/><path fill="#B7B9BD" d="M86.465 47.08h5.716v-.68h-5.716z"/><path fill="#B7B9BD" d="M88.957 56.256h.752V42.484h-.752z"/><path fill="#FFF" d="M85.844 46.948h6.687v-.418h-6.687z"/><path fill="#FFF" d="M89.12 56.463h.424V42.357h-.423z"/><path fill="#FFF" d="M85.844 52.207h6.687v-.417h-6.687z"/><path fill="#B7B9BD" d="M93.776 56.253h6.118V42.49h-6.118z"/><path fill="#7BDAFF" d="M93.975 56.028h5.72V42.716h-5.72z"/><path fill="#79BEDF" d="M96.3 56.026h1.07V42.712H96.3z"/><path fill="#79BEDF" d="M93.968 52.552h5.716v-1.104h-5.716z"/><path fill="#B7B9BD" d="M93.968 52.34h5.716v-.68h-5.716z"/><path fill="#79BEDF" d="M93.968 47.292h5.716v-1.104h-5.716z"/><path fill="#B7B9BD" d="M93.968 47.08h5.716v-.68h-5.716z"/><path fill="#B7B9BD" d="M96.459 56.256h.752V42.484h-.752z"/><path fill="#FFF" d="M93.346 46.948h6.688v-.418h-6.688z"/><path fill="#FFF" d="M96.623 56.463h.424V42.357h-.424z"/><path fill="#FFF" d="M93.346 52.207h6.688v-.417h-6.688z"/><path d="M7.214 71.536v3.43l23.733-14.191v-3.43z"/><path d="M30.947 60.775L54.68 74.966v-3.43L30.947 57.345z"/><path fill="#AFB1B5" d="M30.947 58.424L7.214 72.614v-1.078l23.733-14.19z"/><path fill="#AFB1B5" d="M30.947 58.424l23.733 14.19v-1.078l-23.733-14.19z"/><path fill="#1A7496" d="M30.947 57.583L5.98 72.513v-.529l24.967-14.928zm0 0l24.966 14.93v-.529L30.947 57.056z"/><path d="M20.73 76.764h-2.933v25.629H44.82v-3.17c-15.554 3.143-24.558-9.597-24.092-22.459" fill="#061D26"/><path d="M68.195 90.239a.488.488 0 1 1-.974 0 .488.488 0 0 1 .973 0" fill="#FEC800"/></g></svg>