<svg width="120" height="120" viewBox="0 0 120 120" xmlns="http://www.w3.org/2000/svg"><g fill="none"><path d="M51.594 52.925h6.802c1.04 0 1.871.835 1.871 1.879v2.147H49.723v-2.147c0-1.044.861-1.88 1.871-1.88zm-10.693 0h6.802c1.04 0 1.871.835 1.871 1.879v2.147H39.03v-2.147c0-1.044.831-1.88 1.871-1.88zm-10.693 0h6.802c1.04 0 1.871.835 1.871 1.879v2.147H28.337v-2.147c0-1.044.831-1.88 1.87-1.88zm-10.693 0h6.802c1.04 0 1.871.835 1.871 1.879v2.147H17.644v-2.147c0-1.044.831-1.88 1.87-1.88zm-10.693 0h6.802c1.04 0 1.871.835 1.871 1.879v2.147H6.95v-2.147c0-1.044.832-1.88 1.872-1.88zm-6.921-2.416h3c1.04 0 1.901.835 1.901 1.909v4.503H.03v-4.503c0-1.044.831-1.91 1.871-1.91zm91.842 28.989c.683-.268.98-1.044.712-1.73l-2.287-5.577c-.267-.686-1.04-.984-1.722-.716-.684.269-.98 1.044-.713 1.73l2.287 5.577c.267.657 1.07.985 1.723.716z" fill="#1E1E1E"/><path d="M90.653 76.307l2.97-2.177a.581.581 0 0 0 .12-.835.576.576 0 0 0-.832-.12l-2.97 2.178a.581.581 0 0 0-.12.835c.209.268.565.328.832.119zm.624 1.491l2.97-2.177a.581.581 0 0 0 .12-.835.576.576 0 0 0-.832-.12l-2.97 2.178a.581.581 0 0 0-.12.835c.179.239.565.298.832.12zm-4.01 1.7c.683-.268.98-1.044.713-1.73l-2.287-5.577c-.267-.686-1.04-.984-1.723-.716-.683.269-.98 1.044-.713 1.73l2.288 5.577c.267.657 1.04.985 1.722.716z" fill="#1E1E1E"/><path d="M84.178 76.307l2.97-2.177a.581.581 0 0 0 .12-.835.576.576 0 0 0-.832-.12l-2.97 2.178a.581.581 0 0 0-.12.835c.208.268.565.328.832.119zm.594 1.491l2.97-2.177a.581.581 0 0 0 .12-.835.576.576 0 0 0-.832-.12l-2.97 2.178a.581.581 0 0 0-.12.835c.209.239.595.298.832.12zm-11.94 7.665c.416 0 .831-.268 1.01-.686l.564-1.402a4.098 4.098 0 0 1 3.832-2.594h25.128c.594 0 1.07-.477 1.07-1.074 0-.596-.476-1.074-1.07-1.074H78.238a6.22 6.22 0 0 0-5.822 3.967l-.565 1.402c-.207.566.06 1.193.595 1.402.118.03.267.06.386.06z" fill="#1E1E1E"/><path d="M64.96 39.354l-8.643-4.235a.945.945 0 0 0-.416-.09h-2.703a.94.94 0 0 0-.95.955v3.28a.94.94 0 0 0 .95.955h2.05c.207 0 .415.06.594.21l6 4.89 3.118-5.965z" fill="#161E26"/><path d="M3.772 54.535h55.129v7.397H.03v-4.653c0-1.521 1.663-2.744 3.742-2.744z" fill="#1E1E1E"/><path d="M61.812 45.29l3.119-5.906h10.218a6.67 6.67 0 0 1 3.98 1.342l6 4.593H61.812v-.03z" fill="#161E26"/><g transform="matrix(-1 0 0 1 16.93 69.596)"><ellipse fill="#B6D1FF" cx="4.96" cy="5.16" rx="4.901" ry="4.921"/><ellipse fill="#1E1E1E" cx="4.96" cy="5.16" rx="1.931" ry="1.939"/></g><g transform="matrix(-1 0 0 1 31.188 69.596)"><ellipse fill="#B6D1FF" cx="5.139" cy="5.16" rx="4.901" ry="4.921"/><ellipse fill="#1E1E1E" cx="5.139" cy="5.16" rx="1.931" ry="1.939"/></g><g transform="matrix(-1 0 0 1 45.149 69.596)"><ellipse fill="#B6D1FF" cx="5.05" cy="5.16" rx="4.901" ry="4.921"/><ellipse fill="#1E1E1E" cx="5.05" cy="5.16" rx="1.931" ry="1.939"/></g><g transform="matrix(-1 0 0 1 59.109 69.596)"><ellipse fill="#B6D1FF" cx="4.96" cy="5.16" rx="4.901" ry="4.921"/><ellipse fill="#1E1E1E" cx="4.96" cy="5.16" rx="1.931" ry="1.939"/></g><path d="M13.96 85.433h41.288c6.386 0 11.584-5.219 11.584-11.631 0-.597-.476-1.044-1.04-1.044-.564 0-1.04.477-1.04 1.044 0 5.249-4.247 9.514-9.475 9.514H13.99c-5.228 0-9.475-4.265-9.475-9.514 0-.597-.475-1.044-1.04-1.044-.564 0-1.04.477-1.04 1.044-.059 6.412 5.14 11.631 11.525 11.631z" fill="#1E1E1E"/><path d="M99 85.791h12.564c4.515 0 8.198-3.698 8.198-8.231 0-2.864-2.316-5.16-5.138-5.16a15.952 15.952 0 0 0-12.386 5.846l-3.921 4.712H70.752c-.772 0-1.425.626-1.425 1.431 0 .776.623 1.432 1.425 1.432H99v-.03zm15.624-10.558a2.325 2.325 0 0 1 2.317 2.327c0 2.982-2.406 5.398-5.377 5.398H102l2.406-2.923a13.225 13.225 0 0 1 10.218-4.802zm-58.07-13.331l5.258-16.642h23.287l26.792 13.39c2.614 1.313 2.525 5.071-.119 6.264-7.841 3.52-18.653 8.858-33.06 8.858H3.12A3.125 3.125 0 0 1 0 70.64v-8.768h56.554v.03z" fill="#00B5B8"/><path d="M54.267 81.646c.416 0 .743.268.832.686l.446 2.028H52.99l.446-2.028c.089-.388.415-.686.831-.686zm-3.742 0c.416 0 .742.268.831.686l.446 2.028h-2.554l.445-2.028c.06-.388.416-.686.832-.686zm-3.743 0c.416 0 .743.268.832.686l.445 2.028h-2.554l.445-2.028c.06-.388.416-.686.832-.686zm-3.772 0c.416 0 .742.268.832.686l.445 2.028h-2.554l.445-2.028c.09-.388.446-.686.832-.686zm-3.743 0c.416 0 .743.268.832.686l.446 2.028H37.99l.446-2.028c.089-.388.445-.686.831-.686zm-3.742 0c.416 0 .742.268.831.686l.446 2.028h-2.554l.445-2.028c.09-.388.446-.686.832-.686zm-3.743 0c.416 0 .743.268.832.686l.445 2.028h-2.554l.445-2.028c.09-.388.416-.686.832-.686zm-3.742 0c.415 0 .742.268.831.686l.446 2.028h-2.555l.446-2.028c.06-.388.416-.686.832-.686zm-3.743 0c.416 0 .743.268.832.686l.445 2.028H23.02l.445-2.028c.06-.388.416-.686.832-.686zm-3.772 0c.416 0 .742.268.831.686l.446 2.028h-2.554l.445-2.028c.09-.388.446-.686.832-.686zm-3.743 0c.416 0 .743.268.832.686l.445 2.028h-2.554l.445-2.028c.09-.388.446-.686.832-.686zm-3.742 0c.415 0 .742.268.831.686l.446 2.028h-2.555l.446-2.028c.089-.388.416-.686.832-.686z" fill="#1E1E1E"/><path d="M44.406 38.34h8.584c.594 0 1.07-.477 1.07-1.073 0-.597-.476-1.074-1.07-1.074h-8.584c-.594 0-1.07.477-1.07 1.074 0 .596.476 1.073 1.07 1.073zm1.099 1.253h9.95a.394.394 0 0 0 .387-.388.394.394 0 0 0-.387-.387h-9.95a.394.394 0 0 0-.386.387c0 .209.178.388.386.388z" fill="#161E26"/><path fill="#036B6B" d="M56.554 61.902l-2.405 7.903-54.12-3.937v-3.966z"/><path d="M89.94 45.886c-2.673 0-4.841-2.177-4.841-4.861 0-2.685 2.168-4.862 4.842-4.862v9.723z" fill="#00B5B8"/></g></svg>