<svg xmlns="http://www.w3.org/2000/svg" width="19.603" height="11.008" viewBox="1.306 0.825 19.603 11.008"><defs><style/></defs><g id="ID0.6919244332239032" fill="red" stroke="#000" stroke-width="1"><path id="ID0.40924413595348597" stroke-linecap="round" d="M82.5 97.75l8-1.75-2 10.25L82 101l.5-3.25z" transform="matrix(-1.02149 0 0 1.02149 93.75 -96.7)"/><path id="ID0.40924413595348597" stroke-linecap="round" d="M82.5 97.75l5.8.15-3.45 7.9L82 101l.5-3.25z" transform="rotate(-25.278 -167.008 212.665) scale(1.02149)"/><path id="ID0.26820674212649465" d="M81.15 97.15a2.246 2.246 0 0 1 2.25 2.25 2.246 2.246 0 0 1-2.25 2.25 2.246 2.246 0 0 1-2.25-2.25 2.246 2.246 0 0 1 2.25-2.25z" transform="matrix(-1.02149 0 0 1.02149 93.75 -96.7)"/></g></svg>