<svg width="120" height="120" viewBox="0 0 120 120" xmlns="http://www.w3.org/2000/svg" xmlns:xlink="http://www.w3.org/1999/xlink"><defs><path id="a" d="M.2.3h13.173v5.567H.2z"/></defs><g fill="none" fill-rule="evenodd"><path d="M35.07 20.116s-9.09 33.4-3.142 39.978c8.578 9.48 45.59 10.165 53.362 0 5.533-7.244-2.224-41.049-2.224-41.049l-47.996 1.07z" fill="#2C2C2D"/><path d="M50.525 53.146c-2.127-1.447-5.37-2.916-9.058-1.205 1.316-4.123 9.457-11.633 17.482-11.664 8.03-.028 15.942 7.423 16.796 11.664-4.714-1.416-6.646-.681-8.384 1.102-4.208-.09-12.628.035-16.836.103" fill="#F08314"/><path d="M81.363 31.345c.166-1.119.253-2.268.253-3.435 0-12.611-10.11-22.831-22.58-22.831-12.47 0-22.58 10.22-22.58 22.83 0 1.113.075 2.203.229 3.274-1.304.721-2.185 2.083-2.185 3.65 0 2.311 1.928 4.19 4.314 4.19.162 0 .322-.008.48-.026 3.855 7.004 11.251 11.743 19.743 11.743 8.483 0 15.872-4.73 19.732-11.72.065.001.132.004.2.004 2.377 0 4.309-1.88 4.309-4.192 0-1.455-.76-2.733-1.915-3.487" fill="#FDDFBB"/><path d="M54.311 27.65s-.503 1.803-2.082 1.446c-.772-.174-.908-1.201-3.386-.74-.779.18-2.417 1.156-2.732 1.808-.316.652-.088-2.392 2.457-3.522 1.835-.675 2.457-.642 3.977-.642s1.987.907 1.766 1.65m9.741 0s.503 1.803 2.082 1.446c.772-.174.908-1.201 3.386-.74.779.18 2.417 1.156 2.732 1.808.316.652.087-2.392-2.457-3.522-1.835-.675-2.457-.642-3.977-.642s-1.987.907-1.766 1.65M52 35c0 1.657-.895 3-2 3s-2-1.343-2-3 .895-3 2-3 2 1.343 2 3m18 0c0 1.657-.895 3-2 3s-2-1.343-2-3 .895-3 2-3 2 1.343 2 3" fill="#2C2C2D"/><path d="M59.02 38.07c.839-.115 2.96 1.756 2.96 1.756s.103-.414-.34-1.238C61.163 37.703 58.99 37 58.99 37s-1.687.448-2.487 1.604c-.296.29-.503 1.299-.503 1.299s1.895-1.681 3.02-1.834z" fill="#EEAC6C"/><g transform="translate(52 41)"><mask id="b" fill="#fff"><use xlink:href="#a"/></mask><path d="M.2.696S7.097 3.904 13.372.299c0 0-1.39 5.47-5.95 5.561-4.115.122-4.984-1.492-5.477-1.956C1.453 3.441.525 2.132.2.696" fill="#EEAC6C" mask="url(#b)"/></g><path d="M89.884 60.373c0-.048-.005-.1-.009-.15v-.077l-.002-.011c0-.007.002.007 0-.02l-.002-.017-.005-.042c-.008-.052-.013-.107-.021-.164-.007-.052-.011-.111-.026-.166l-.04-.17c-.006-.03-.01-.055-.02-.085l-.027-.083c-.021-.06-.043-.114-.058-.173l-.08-.166a1.61 1.61 0 0 0-.039-.085l-.052-.083c-.028-.05-.056-.107-.095-.158-.136-.214-.305-.397-.454-.58a3.403 3.403 0 0 1-.39-.562c-.1-.197-.165-.42-.206-.628-.007-.06-.018-.129-.026-.194l-.013-.1-.002-.027c-.005-.022.002.013.002.005v-.055c-.002-.061-.007-.12-.007-.181l-.002-.046.007-.042.004-.09a2 2 0 0 1 .169-.677c.097-.22.237-.437.395-.706.158-.264.318-.59.396-.948.02-.09.03-.18.047-.269l.009-.068.006-.074.009-.144.006-.144-.004-.116-.002-.116-.002-.055v-.03s-.007-.06-.007-.042v-.017a3.563 3.563 0 0 0-.274-1.08c-.041-.087-.08-.179-.132-.26-.052-.085-.1-.168-.156-.244l-.082-.114c-.028-.037-.054-.07-.08-.107l-.084-.103-.078-.094c-.44-.507-.607-.804-.659-1.366l-.007-.063-.002-.03-.004-.016c0-.013.01.057.006.02l-.002-.094v-.098l-.004-.048c0-.014.004-.029.006-.046.005-.055.007-.12.013-.18.016-.054.024-.111.037-.166.054-.216.154-.41.318-.681l.132-.217.032-.059.037-.063.07-.127c.049-.092.092-.19.137-.286.035-.107.083-.21.113-.32l.047-.165c.018-.057.03-.114.04-.168l.023-.17a.92.92 0 0 0 .024-.176c.01-.124.015-.253.017-.369l-.006-.256v-.046c-.005-.026.002.035-.011-.059l-.009-.08-.021-.16-.024-.162-.035-.166c-.028-.111-.052-.22-.095-.33-.037-.111-.073-.225-.127-.33l-.078-.161c-.026-.055-.06-.103-.089-.156-.028-.052-.06-.098-.09-.148l-.098-.133c-.065-.097-.125-.17-.19-.254-.033-.041-.06-.072-.089-.11l-.09-.102-.074-.092a5.206 5.206 0 0 1-.182-.243l-.047-.071-.037-.066c-.008-.024-.026-.046-.034-.065a.276.276 0 0 0-.026-.066c-.022-.041-.03-.09-.048-.135l-.009-.035-.004-.018v-.01c-.004-.023-.006-.04-.013-.058a.318.318 0 0 0-.01-.052l-.018-.127-.015-.124-.009-.064c-.002-.022.018.088.009.037v-.032c0-.055 0-.114-.002-.17.006-.051.013-.1.015-.152 0-.026.006-.048.013-.07.006-.02.01-.043.015-.065 0-.022.01-.042.015-.066.007-.02.013-.039.024-.06.01-.042.035-.082.052-.125l.075-.142.046-.086.024-.041.028-.05.13-.21c.023-.042.045-.077.07-.12l.074-.136.035-.07a.801.801 0 0 0 .039-.074l.071-.155c.026-.055.05-.112.07-.168l.064-.175c.035-.118.07-.243.1-.365.023-.12.04-.247.058-.372.017-.129.021-.268.024-.406l.004-.103-.004-.059-.003-.124-.004-.123a1.24 1.24 0 0 1-.009-.08l-.002-.02-.006-.042-.009-.085-.024-.166c-.01-.055-.013-.112-.028-.173a10.188 10.188 0 0 0-.086-.347c-.037-.12-.082-.24-.123-.352a4.572 4.572 0 0 0-.162-.345 9.365 9.365 0 0 0-.189-.317c-.067-.092-.134-.19-.198-.275-.13-.167-.251-.31-.344-.422l-.067-.083c-.022-.024-.037-.046-.056-.07-.015-.024-.035-.046-.048-.066l-.039-.054c-.008-.022-.026-.042-.03-.057a.199.199 0 0 0-.024-.048c-.017-.029-.026-.061-.039-.088-.013-.03-.019-.063-.026-.094l-.012-.045a.062.062 0 0 0 0-.029c0-.009-.005-.015-.01-.028v-.005l-.001-.017-.007-.055c-.013-.078-.02-.155-.03-.227l-.004-.018c-.009-.065.013.075.013.057v-.175l.006-.056.007-.05v-.027c.004-.009.008-.015.008-.024.009-.026.013-.057.022-.083.032-.105.078-.188.197-.387.036-.06.069-.115.101-.172l.06-.1.03-.058c.012-.013.022-.032.035-.05l.065-.129.037-.059.03-.068c.048-.098.093-.19.139-.29.039-.112.082-.219.116-.326a6.06 6.06 0 0 0 .089-.34c.028-.116.043-.228.065-.342l.008-.085.007-.043.004-.046a4.5 4.5 0 0 0 .009-.193c.002-.065.004-.129.004-.192v-.149l-.006-.203V31.1c.004.07-.011-.098-.011-.09l-.004-.034c-.007-.055-.011-.1-.018-.149a4.234 4.234 0 0 0-.482-1.514 5.336 5.336 0 0 0-.635-.894c-.173-.214-.283-.347-.322-.42l-.009-.017-.004-.013-.013-.026a.093.093 0 0 0-.009-.022c-.004-.007-.002-.01-.006-.02a.294.294 0 0 1-.015-.039.231.231 0 0 0-.005-.046.058.058 0 0 0-.006-.022c0-.004.004-.004.006-.006v-.007a.804.804 0 0 1-.017-.107c-.006-.055-.01-.103-.022-.157l-.002-.04-.002-.017c.024.168.004.044.015.083v-.007l.002-.035V27.4l.005-.024c.002-.02.006-.033.006-.05 0-.01 0-.016.002-.025.005-.004.007-.01.011-.017l.007-.03c0-.014.006-.018.015-.029a.079.079 0 0 0 .008-.024.321.321 0 0 1 .02-.033l.006-.013c0-.004.005-.009.011-.017l.026-.044.01-.024.02-.033c.03-.048.06-.096.089-.146a.838.838 0 0 1 .052-.083c.021-.04.04-.077.065-.11.021-.039.039-.072.062-.109.022-.044.048-.087.07-.131.023-.044.047-.09.07-.129.022-.05.046-.1.07-.144.022-.05.041-.1.065-.147.021-.043.043-.102.058-.155.04-.1.08-.196.106-.3.028-.102.054-.2.076-.294.004-.024.015-.05.02-.072l.01-.068c.009-.046.017-.092.022-.138.017-.085.026-.17.036-.25.009-.086.011-.174.018-.252.002-.083.004-.16.004-.232v-.157a2.122 2.122 0 0 0-.009-.151c0-.083-.002-.127-.002-.127l-.199.016.227-.088c-.475-1.258-1.054-1.612-1.619-1.956-.484-.292-.976-.6-1.575-1.671-.236-.42-.33-1.043-.432-1.705-.147-.95-.312-2.025-.936-2.91-.504-.713-1.319-1.152-2.105-1.578-.657-.35-1.332-.717-1.781-1.217-.378-.418-.633-1.045-.906-1.709-.365-.898-.748-1.825-1.504-2.465-.709-.605-1.656-.815-2.572-1.016-.72-.16-1.398-.306-1.928-.632-.48-.295-.905-.801-1.36-1.335-.63-.754-1.285-1.527-2.223-1.89-.88-.343-1.848-.21-2.786-.079-.724.099-1.405.193-2.012.081-.538-.098-1.105-.413-1.706-.743-.862-.478-1.757-.976-2.783-.976-1.033 0-1.922.498-2.784.979-.594.332-1.154.642-1.682.74-.609.107-1.292.018-2.01-.08-.933-.127-1.901-.256-2.775.09-.938.368-1.582 1.162-2.206 1.922-.437.535-.852 1.045-1.32 1.34-.522.327-1.187.493-1.898.664-.908.225-1.853.452-2.546 1.082-.742.664-1.085 1.603-1.423 2.512-.246.671-.477 1.298-.836 1.729-.424.51-1.079.896-1.714 1.272-.774.456-1.569.93-2.042 1.665-.582.911-.696 1.99-.794 2.943-.069.662-.134 1.29-.343 1.716-.543 1.09-1.02 1.418-1.483 1.735-.547.371-1.11.758-1.515 2.038l.028.005-.01.076a1.587 1.587 0 0 1-.018.149l-.002.04c0-.005.004-.005.006-.005a.132.132 0 0 0-.004.026c-.002.007-.002.011-.002.018v.008l-.002.005c-.002.008-.005.015-.005.028-.015.044-.034.103-.196.304-.02.026-.041.048-.065.074-.028.035-.056.066-.084.1l-.041.05-.048.058-.104.13-.054.07c-.02.025-.039.053-.058.082l-.121.164c-.02.026-.037.059-.056.09a3.499 3.499 0 0 0-.18.297l-.106.216c-.036.074-.075.15-.101.227-.03.076-.056.153-.084.234-.013.039-.03.078-.042.118-.008.039-.019.078-.03.118l-.06.238a1.64 1.64 0 0 1-.026.12c-.005.037-.009.077-.015.114a6.01 6.01 0 0 0-.035.231c-.006.037-.009.077-.015.12l-.002.011-.009.099v.022l-.002.039c-.004.05-.004.103-.007.155 0 .057-.002.088-.002.212.002.103.005.208.011.315.007.052.007.109.01.153.007.052.014.094.018.146l.05.282c.022.094.047.19.073.288.013.044.026.099.041.14.016.048.033.092.048.14.02.044.037.09.052.136l.026.067.03.062c.037.085.076.166.112.246.04.068.08.14.115.21l.056.099.052.085c.028.048.056.1.087.148.112.184.164.278.198.346a.893.893 0 0 1 .063.251v.103l.002.05v.013c-.002.018.02-.14.011-.068l-.002.013-.007.053-.023.199-.01.05-.001.004c-.002.007-.002.011-.002.016v.015l.002.004-.002.009-.003.018c-.006.021-.008.048-.019.067-.009.022-.013.044-.022.068a.524.524 0 0 0-.034.07c-.013.026-.037.059-.054.09-.007.006-.011.017-.02.028l-.021.026-.044.061c-.006.01-.019.02-.028.033l-.03.04-.063.072a9.8 9.8 0 0 0-.149.183c-.06.074-.123.149-.18.223-.064.09-.129.18-.19.269-.062.098-.125.199-.183.297-.054.111-.11.223-.16.334-.05.112-.089.225-.127.341-.01.03-.022.055-.026.085l-.022.086-.045.168-.037.168-.026.168-.022.16-.008.083-.005.037c0-.004-.015.147-.013.088v.015l-.004.23v.15c0 .066.002.138.004.206.003.067.01.137.013.205.007.061.018.12.026.181.02.123.04.247.072.368.032.12.064.242.106.354l.064.172c.024.06.05.105.074.16l.071.153c.024.048.046.09.072.137.025.04.051.09.073.127l.065.114c.09.153.158.258.212.356l.067.124c.01.035.032.073.045.107.01.031.026.066.037.103a.568.568 0 0 0 .026.11c.002.039.004.085.01.128.005.02.003.048.003.072l-.002.075.002.04v.028c-.002.017.017-.105.008-.046l-.015.122-.015.122-.009.062c-.002.008-.002.017-.004.021-.01.027-.01.053-.015.088a1.143 1.143 0 0 0-.032.116c-.018.035-.029.074-.046.111-.01.018-.02.037-.032.055-.009.017-.015.039-.035.06l-.04.064c-.007.011-.012.024-.02.035l-.03.037-.057.075c-.02.024-.047.059-.069.09l-.164.192-.043.052-.05.061-.095.12c-.035.042-.067.094-.098.136-.036.052-.069.094-.101.144-.063.105-.13.205-.186.317a3.708 3.708 0 0 0-.395 1.366l-.007.046-.002.02c.002-.042-.009.076-.009.071l-.002.062-.002.13-.004.123.004.201.013.201.002.048.009.046.013.09c.017.122.036.238.069.358l.05.177c.017.061.04.114.06.173.022.054.041.111.065.161l.071.158c.048.105.095.19.147.28.026.045.048.085.071.122l.067.12c.176.286.281.47.338.662.02.046.023.098.036.149.013.048.016.107.022.161l.013.086-.017.091-.007.092v.048c0-.07.011-.035.011-.026v.048l-.032.251c-.01.046-.02.086-.024.131a.282.282 0 0 1-.022.075l-.024.078a.216.216 0 0 1-.03.075l-.028.072c-.022.05-.056.096-.076.148l-.105.156-.065.08-.03.042-.037.046-.16.19-.085.103-.09.113-.046.06a.74.74 0 0 1-.045.06l-.089.13c-.058.085-.114.183-.168.275-.052.096-.098.199-.145.295-.035.105-.074.205-.106.31-.03.103-.052.205-.078.306a.434.434 0 0 0-.013.076l-.015.075-.017.148-.02.149c.003-.022-.006.055-.002.05l-.004.018v.03l-.002.061-.005.127c-.002.042-.004.072-.002.133l.02.335c.015.107.032.21.05.312.023.103.056.206.082.304.03.098.067.192.105.288.041.088.083.177.126.26.086.164.177.313.255.442.158.264.27.474.335.7.062.226.082.469.067.733v.01c-.002.03.006-.023.006-.01l-.008.029-.005.054-.013.114-.015.114-.021.078-.013.081-.009.04-.015.045c-.02.055-.033.112-.056.166a2.219 2.219 0 0 1-.385.63c-.173.214-.385.443-.562.72l-.127.215c-.033.074-.065.149-.104.223-.03.074-.054.153-.082.227a1.624 1.624 0 0 0-.06.23l-.027.113-.015.061-.004.053c-.009.076-.022.15-.028.223l-.009.059v.013s-.004.041-.004.03v.025l-.007.098-.002.205c.009.317.054.608.145.883.09.273.225.511.35.726.125.218.246.406.335.6.18.38.231.79.207 1.18v.057l-.002.01-.008.076c-.007.05-.015.102-.02.15l-.008.075-.016.065c-.01.046-.019.09-.03.13l-.01.069-.024.059-.044.129c-.01.041-.032.08-.05.118-.017.04-.036.076-.051.116-.156.301-.372.546-.56.776a3.65 3.65 0 0 0-.456.66 1.66 1.66 0 0 0-.071.157c-.028.046-.037.096-.057.144a1.923 1.923 0 0 1-.043.133c-.013.044-.021.09-.028.127-.01.04-.02.072-.026.111a.758.758 0 0 0-.02.097c-.004.059-.01.111-.019.15a7.52 7.52 0 0 1-.01.125s.006-.044.025-.12c.01-.042.018-.092.03-.149a.485.485 0 0 1 .027-.096c.01-.035.026-.07.034-.105.011-.04.024-.08.041-.122l.054-.125c.022-.043.035-.09.065-.137.026-.042.052-.094.082-.14.121-.193.29-.39.495-.595.208-.207.456-.439.662-.756.023-.041.045-.085.07-.124.02-.046.05-.083.066-.131a2.58 2.58 0 0 0 .062-.136l.03-.07c.01-.022.016-.05.027-.076l.047-.151a.962.962 0 0 0 .022-.074l.017-.072c.009-.05.024-.101.032-.151l.018-.077.002-.008c0-.01 0 .004.002-.018l.002-.02.005-.041c.008-.053.013-.11.019-.164.004-.055.017-.111.017-.166l.002-.175c0-.03.003-.057 0-.09l-.008-.09a5.005 5.005 0 0 1-.015-.178 4.377 4.377 0 0 0-.035-.18c-.006-.03-.01-.065-.017-.093l-.026-.09c-.022-.059-.033-.122-.058-.18-.083-.24-.2-.46-.3-.674a3.133 3.133 0 0 1-.243-.645 2.415 2.415 0 0 1-.05-.658c.009-.059.018-.129.022-.194l.017-.099.002-.026c0-.022-.002.013 0 .005l.003-.01.008-.045c.015-.057.026-.116.04-.177l.008-.042.017-.043.028-.083c.071-.225.175-.429.324-.617.15-.188.34-.365.554-.585.218-.219.451-.494.611-.824.043-.08.076-.166.11-.247l.029-.063.023-.07.041-.14.044-.138.021-.113.026-.112.015-.054.005-.031.004-.042.002-.017 1.26 3.426-.48-.028c.037.035.07.068.102.096.1.085.186.155.26.21.153.12.248.2.276.231.017.011.026.011.032.02.007.004.009.013.013.022 0 .009.002.017.005.022-.003.013 0 .004 0-.005h.002v.005l-.002.037c-.04.07-.085.138-.13.21a2.743 2.743 0 0 1-.253.179c-.164.118-.374.251-.575.478a1.39 1.39 0 0 0-.248.396c-.063.15-.098.306-.108.45l-.005.05.005.018v.14l.006.07c0 .02.004.037.007.056.008.04.013.075.023.114.035.147.098.286.171.404.151.24.324.38.473.503.15.12.277.214.374.304a.685.685 0 0 1 .184.251.39.39 0 0 1 .03.138v.026c0 .002.007-.029.002-.011l-.002.015-.004.064c-.007.021 0 .03-.009.059a.541.541 0 0 1-.14.262c-.082.087-.19.17-.314.251-.118.081-.246.166-.37.267-.12.1-.246.218-.328.365a.968.968 0 0 0-.144.456c-.013.145.002.302.047.435.048.134.123.247.199.337.158.188.324.306.465.42.142.109.261.211.348.316a.88.88 0 0 1 .168.297.794.794 0 0 1 .035.219v.076s.002-.026.013-.076c.002-.026.004-.06.004-.096a.854.854 0 0 0-.143-.476 2.405 2.405 0 0 0-.31-.39c-.126-.133-.271-.277-.373-.443a.691.691 0 0 1-.101-.269.685.685 0 0 1 .008-.295c.046-.205.176-.35.392-.474.106-.064.229-.118.367-.188.138-.066.285-.144.439-.258.078-.059.155-.129.222-.218.07-.086.13-.184.169-.293.026-.05.041-.123.056-.177l.015-.06.005-.012c-.005.008.002-.029.002-.029l.002-.01.004-.04a1.14 1.14 0 0 0-.006-.363 1.528 1.528 0 0 0-.117-.347 1.665 1.665 0 0 0-.186-.29c-.134-.171-.272-.305-.378-.425-.112-.122-.199-.234-.227-.317a.259.259 0 0 1-.022-.111c0-.007.003-.015.003-.029v-.008l.004-.005c.002 0 .002 0 .002-.004l.002-.028.005-.035.004-.018c0-.009-.004.044 0 .018v-.003a.275.275 0 0 1 .047-.091.327.327 0 0 1 .074-.068c.067-.053.19-.118.36-.197a4 4 0 0 0 .41-.218l.635.598c-.015.05-.026.103-.037.153l-.026.116-.013.057-.009.057c-.008.074-.019.15-.028.223l-.006.057v.01a.466.466 0 0 1-.002.035v.027l-.007.098c-.002.022-.002.042-.002.063l.527.315c-.002.024-.008.053-.008.079l-.005.05v.017l.003.035v.038l.002.067.006.07c0 .016.005.037.007.055.008.04.01.076.02.111.036.149.099.291.174.409.147.238.324.38.471.5.152.123.28.217.374.306a.687.687 0 0 1 .186.252.39.39 0 0 1 .028.137l.002.018v.008c0 .003.003-.03 0-.008v.013l-.004.061c-.006.024 0 .033-.008.059a.518.518 0 0 1-.143.264 2.151 2.151 0 0 1-.311.252c-.12.08-.247.166-.37.266s-.246.219-.328.365a1.053 1.053 0 0 0-.152.457 1.15 1.15 0 0 0 .054.435c.048.133.12.245.2.336.157.186.323.304.462.418.14.113.261.214.345.317.091.104.145.21.173.299.013.046.015.087.026.124.002.033.007.068.007.094a1.8 1.8 0 0 1 .002.077s.002-.026.013-.077l.004-.096c-.002-.037-.002-.083-.015-.13a.871.871 0 0 0-.127-.348 2.494 2.494 0 0 0-.312-.387c-.125-.136-.27-.278-.371-.444a.904.904 0 0 1-.11-.268.916.916 0 0 1 .015-.295c.047-.206.175-.35.393-.475.106-.063.227-.12.367-.185.136-.07.286-.147.439-.263a1.38 1.38 0 0 0 .223-.216.974.974 0 0 0 .168-.293c.022-.048.041-.122.056-.177l.013-.059.005-.015a.597.597 0 0 1 .004-.026l.002-.011.005-.042a1.118 1.118 0 0 0-.011-.358 1.216 1.216 0 0 0-.113-.352 2.056 2.056 0 0 0-.186-.288c-.134-.17-.272-.304-.382-.429a1.1 1.1 0 0 1-.225-.314.272.272 0 0 1-.02-.11l.003-.026v-.01c0-.003.002-.003.002-.005v-.004l.006-.029.005-.037.004-.015c0-.009-.004.041-.004.017l.004-.004a.116.116 0 0 1 .01-.033l.295.275c.013.134.028.263.054.39l.707.281a1.958 1.958 0 0 1-.085-.49l1.14.298c-.014.026-.024.052-.037.076a1.482 1.482 0 0 0-.106.45l-.002.05v.093l.002.065.006.068.007.059c.008.035.013.074.026.114.032.148.09.286.168.404.151.24.329.382.471.505.152.118.281.212.376.301a.635.635 0 0 1 .182.254c.02.037.03.085.032.135v.026c0 .007.003-.026.003-.008l-.003.015-.002.061c-.006.022-.004.03-.008.06a.567.567 0 0 1-.145.263c-.082.086-.19.169-.31.25-.12.08-.25.166-.371.266-.123.1-.244.219-.33.365a1.055 1.055 0 0 0-.146.457 1.053 1.053 0 0 0 .247.776c.158.183.324.301.467.415.14.109.26.212.348.317a.878.878 0 0 1 .166.299.402.402 0 0 1 .026.122c.004.037.013.068.013.094v.077s.002-.026.009-.077l.004-.094c-.002-.039-.002-.085-.009-.133a.95.95 0 0 0-.132-.345 2.115 2.115 0 0 0-.313-.39c-.12-.132-.266-.277-.372-.443a.846.846 0 0 1-.103-.269.69.69 0 0 1 .013-.295c.045-.205.172-.35.389-.474.11-.063.23-.118.37-.188.133-.065.287-.142.44-.258a1.205 1.205 0 0 0 .393-.51c.018-.051.037-.121.052-.178l.015-.061.003-.011.002-.026.002-.013.006-.042a1.246 1.246 0 0 0-.125-.708 1.528 1.528 0 0 0-.186-.293c-.127-.166-.268-.299-.378-.421a2.384 2.384 0 0 1-.145-.175l.162.063c0-.002 0-.004-.002-.006a3.358 3.358 0 0 1-.05-.63c.05-.03.117-.063.195-.102 0 0 4.396 2.006 4.39 2.148l-.007.05v.052l.002.042.004.065.003.068c.002.022.008.037.008.057.007.04.011.074.022.114.034.148.097.29.173.404.149.236.326.382.471.505.15.12.279.216.374.306.1.091.155.166.186.249a.444.444 0 0 1 .028.137v.018l.002.006c-.002.005.004-.026 0-.008v.015l-.004.059c-.007.026 0 .033-.009.059a.522.522 0 0 1-.145.264c-.08.09-.19.17-.309.252-.12.083-.246.166-.372.264a1.531 1.531 0 0 0-.33.367 1.075 1.075 0 0 0-.093.892c.045.137.119.249.199.343.153.183.32.297.466.413.137.111.258.212.344.317a.85.85 0 0 1 .167.297c.017.048.023.09.03.124.002.038.008.068.008.092l.003.079.008-.077c.005-.026.005-.056.007-.094-.002-.039-.002-.08-.013-.135a.873.873 0 0 0-.132-.343 2.171 2.171 0 0 0-.311-.39c-.123-.13-.266-.272-.37-.443a.776.776 0 0 1-.106-.269.76.76 0 0 1 .009-.295c.047-.203.177-.35.393-.472.108-.065.234-.122.368-.187.136-.068.29-.142.443-.26.075-.062.151-.134.22-.217.07-.083.128-.188.17-.293.023-.048.04-.12.057-.179l.01-.059.005-.017.005-.022v-.011l.006-.044a1.151 1.151 0 0 0-.01-.354 1.114 1.114 0 0 0-.115-.354 1.617 1.617 0 0 0-.184-.286c-.132-.175-.27-.308-.38-.428a1.08 1.08 0 0 1-.227-.32.251.251 0 0 1-.02-.106c-.002-.01 0-.018 0-.027.005-.004 0-.01.005-.01l.002-.005.004-.033.006-.037.003-.013c0-.01-.005.037-.003.015l.003-.004a.202.202 0 0 1 .047-.092.327.327 0 0 1 .074-.068c.065-.05.19-.115.356-.196.169-.081.38-.175.62-.367.117-.094-3.406-7-3.406-7l-.819-4.966.327-1.432.028-.063.034-.083.063-.177.028-.085c.013-.031.02-.064.028-.094l.052-.193.022-.094.008-.045.007-.027.006-.017.052-.29.004-.036.005-.02c.002-.021-.002.027.006-.052l.011-.09.017-.174.013-.123.459-2-.753-3.091a.43.43 0 0 1 .057-.083l.073-.092.035-.048.045-.05.175-.223c.037-.04.065-.077.1-.125l.108-.135.05-.07.051-.079.106-.16c.067-.104.134-.224.197-.336.06-.124.119-.245.168-.367.046-.122.091-.247.136-.371.037-.132.072-.274.104-.407l.011-.055c.002-.017.009-.037.01-.045l.014-.07.026-.145.026-.135a.791.791 0 0 1 .006-.074l.004-.02.007-.046.006-.09c.01-.122.026-.238.03-.364.003-.127.003-.252.003-.38a6.17 6.17 0 0 0-.028-.392c-.011-.13-.037-.262-.06-.395-.029-.13-.066-.254-.1-.383a4.85 4.85 0 0 0-.119-.354l-.06-.16-.061-.152c-.037-.088-.074-.175-.108-.262-.136-.322-.188-.51-.212-.708-.013-.048-.006-.103-.009-.153a.297.297 0 0 1-.004-.075c0-.022.004-.043.007-.063v-.084l.004-.016.006-.067c.007-.088.02-.175.026-.265l.002-.017c.005-.057-.004.061-.002.044l.005-.022.01-.044.018-.09.015-.09c.006-.028.02-.054.026-.08l.024-.077a.257.257 0 0 1 .023-.072c.018-.048.037-.09.052-.133.082-.168.167-.293.344-.511.047-.06.097-.12.147-.18l.086-.107.044-.052.019-.026.026-.033.09-.122c.033-.046.066-.081.098-.134l.093-.144c.034-.048.067-.09.097-.148.06-.103.123-.206.177-.317.052-.112.106-.223.156-.335.082-.227.166-.441.223-.699.017-.063.032-.124.047-.188l.02-.09.008-.058a3.98 3.98 0 0 0 .043-.232l.013-.06.003-.012a.506.506 0 0 1 .008-.081l.009-.042c0-.052.004-.102.009-.155.008-.105.021-.207.028-.312a5.26 5.26 0 0 0-.104-1.34 6.414 6.414 0 0 0-.376-1.132c-.121-.292-.201-.48-.231-.607-.007-.022-.007-.035-.011-.05l-.009-.044-.01-.048-.003-.042c-.004-.028-.009-.054-.01-.08v-.134l.001-.033c0-.02.003-.037.003-.059l-.003-.015s.003-.01.003-.017l.002-.02.01-.094c.007-.059.016-.12.02-.18l.004-.043.003-.024-.005.066v-.007l.013-.055c.009-.035.015-.07.022-.104l.013-.05a.222.222 0 0 1 .008-.044c.013-.029.02-.057.029-.086a1.25 1.25 0 0 1 .116-.255c.009-.022.026-.037.035-.055.01-.022.021-.037.034-.057a.587.587 0 0 0 .048-.06l.022-.034a.145.145 0 0 0 .028-.032c.106-.132.205-.252.298-.37.028-.04.063-.074.093-.113a2.46 2.46 0 0 1 .095-.13c.032-.045.065-.085.097-.128.03-.053.067-.099.095-.144.033-.05.063-.094.093-.143l.087-.15c.058-.1.114-.193.157-.293.046-.1.091-.197.13-.289.043-.091.07-.179.1-.264a3.74 3.74 0 0 0 .15-.494 4.11 4.11 0 0 1 .053-.223.724.724 0 0 1 .023-.098l.01-.05.027-.177c.011-.055.02-.566.024-.997.177-.133.352-.262.532-.389 3.782-2.687 7.151 2.502 11.643-1.942.4-.398 1.901-1.93 1.901-1.93s1.237 1.4 1.9 1.93c3.996 3.188 6.223-.433 10.696 2.023.768.426 1.643 1.08 2.542 1.847-.02.07-.052.161-.106.29l-.103.24-.03.068c-.01.027-.025.05-.031.077a5.308 5.308 0 0 0-.071.168c-.009.03-.022.055-.033.088-.013.034-.024.07-.036.1-.024.066-.046.136-.072.203l-.065.223c-.02.079-.04.157-.058.234-.015.083-.028.162-.045.247-.016.08-.03.166-.037.249a5.021 5.021 0 0 1-.024.253l-.006.127v.125l.002.249c0 .04 0 .083.002.127 0 .035.006.074.009.118l.023.238c.007.04.009.08.013.124l.002.013.011.09.005.02.008.046c.011.056.018.111.033.172.004.026.008.055.015.088l.006.024.002.006.003.018.017.076c.028.103.045.201.078.306.013.055.028.105.04.15l.046.143c.037.09.067.184.106.273.037.092.084.184.125.278.024.041.044.09.067.135a6.694 6.694 0 0 0 .153.26c.029.046.053.09.08.13.22.333.446.587.597.773.158.183.247.292.312.395.062.103.114.232.164.393.008.044.017.092.03.136l.013.07.002.015c.002.018-.006-.12-.002-.054v.013l.009.059c.008.072.013.15.021.227l.009.057v.061c.009.044.002.131.002.205a.963.963 0 0 0-.013.107c-.006.042-.017.08-.026.118 0 .02-.008.044-.015.062l-.022.067c-.004.022-.019.053-.028.081l-.03.083-.009.02-.012.026-.02.05-.043.099a8.588 8.588 0 0 0-.106.249l-.119.288-.114.33a8.052 8.052 0 0 0-.164.734c-.012.127-.018.254-.031.376-.006.064-.004.123-.004.184v.183l.004.18.015.168.013.172.013.086.004.043a.888.888 0 0 0 .011.077l.002.017c.015.086.035.17.048.256l.013.063.002.016.007.024.012.05.048.201.054.201c.02.063.041.118.063.181.045.12.086.239.145.357.058.113.108.238.177.347.062.11.13.223.196.321l.106.151c.037.046.07.085.104.131l.1.13.095.11c.056.068.112.132.166.2.03.03.05.056.071.085l.067.08.104.138c.026.048.058.088.082.131.022.046.05.088.072.136.017.05.038.098.06.148.015.06.032.114.052.17.017.055.024.125.041.189l.009.048.004.024.002.013c.002.015-.006-.09-.002-.037l.017.137.013.138.009.068c.002.017 0 .017 0 .024v.015c0 .046.004.09.006.14a2.189 2.189 0 0 0-.006.168c-.017.221-.078.418-.216.741l-.113.264-.03.075-.03.076-.067.158a5.76 5.76 0 0 0-.119.35l-.052.19a4.582 4.582 0 0 0-.089 1.69l.007.044.002.022a.581.581 0 0 1 .009.068l.015.068.026.14.026.14c.013.063.03.135.05.198.036.134.066.269.114.385.045.12.082.238.143.356.054.118.112.234.18.339l.096.166c.035.052.07.1.104.153.07.1.138.188.21.275.032.046.067.085.097.12l.097.118.043.048-1.13 1.95 1.098 2.604-5.537 4.72c.021.06.05.114.078.173.116.236.28.444.44.599.16.155.316.262.452.347.132.085.24.14.335.186-.02.02-.039.044-.06.065a4.434 4.434 0 0 0-.318.4 2.207 2.207 0 0 0-.274.62 1.89 1.89 0 0 0-.052.705l.002.041.013.085.008.04.033.135c.006.033.02.07.028.105l.006.026.011.02.013.041c.022.057.041.112.07.166.105.217.25.413.401.551.152.147.294.245.422.321.125.075.238.13.333.173l.222.11c.054.025.085.04.095.043.013.002.009-.018.009-.03.002-.014.004-.023.006-.023h.009c-.009-.076-.002-.013-.004-.03l.002.013.002.017v.014c.004-.005.007-.01.007-.005l.023-.013c.009-.006.018 0 .007.03-.022.06-.125.184-.275.337-.073.077-.16.168-.25.278-.024.03-.048.059-.072.094a1.298 1.298 0 0 0-.08.111c-.01.02-.028.042-.039.066-.008.013-.017.02-.021.032a1.579 1.579 0 0 0-.216.651 1.568 1.568 0 0 0-.011.283c.009.048.013.09.017.13-.004-.019.002.05.002.047l.003.006.006.022.009.037.013.061.021.079c.007.015.009.028.015.041 0 .005.007.007.007.011.004.007.015.018.015.027h-.002a.194.194 0 0 0 .017.06c.035.088.078.171.128.248.1.155.22.282.339.38.24.19.454.28.62.365.167.079.292.142.359.194a.27.27 0 0 1 .071.068c.02.022.04.046.048.09l.002.004c0 .022-.002-.026-.002-.017l.002.017.004.035.007.03v.003l.004.004c.002.002 0 .007.002.013 0 .007.003.016 0 .027a.21.21 0 0 1-.02.104c-.03.086-.114.201-.226.322-.11.122-.249.255-.38.421a2.16 2.16 0 0 0-.186.291 1.24 1.24 0 0 0-.123.708l.006.044v.013s.006.035.002.022l.007.015.013.061c.015.055.032.13.056.177.039.107.101.206.168.295.072.083.147.155.22.214.154.12.306.193.442.263.136.063.261.124.37.185.213.123.343.269.39.474.022.11.029.201.011.298a.765.765 0 0 1-.106.266c-.101.17-.246.31-.371.444-.124.133-.238.26-.314.389a.934.934 0 0 0-.127.345c-.011.05-.011.094-.013.131l.004.094a.796.796 0 0 0 .015.074v-.074c0-.024.005-.059.005-.094a.756.756 0 0 1 .032-.118.847.847 0 0 1 .164-.304c.089-.104.208-.205.35-.319.139-.111.307-.227.463-.413.078-.091.151-.205.199-.338.047-.134.06-.293.05-.433a1.035 1.035 0 0 0-.145-.459 1.406 1.406 0 0 0-.329-.367c-.125-.098-.25-.184-.37-.267a1.745 1.745 0 0 1-.31-.25.497.497 0 0 1-.148-.263c-.006-.026-.002-.037-.006-.06l-.004-.062v-.016c-.003-.013 0 .016 0 .011v-.002l.002-.02a.438.438 0 0 1 .028-.144.644.644 0 0 1 .186-.242c.095-.092.227-.188.374-.309.147-.118.32-.266.47-.502a1.23 1.23 0 0 0 .171-.407.502.502 0 0 0 .022-.113c.002-.018.009-.035.01-.06l.005-.063.005-.065v-.097l-.005-.05a1.48 1.48 0 0 0-.106-.448 1.497 1.497 0 0 0-.253-.397c-.196-.228-.406-.36-.57-.477a.286.286 0 0 1-.054-.035c-.052-.037-.102-.07-.143-.102a2.807 2.807 0 0 0-.05-.037c0-.003-.002-.003-.002-.003-.015-.013-.03-.024-.036-.032-.003 0-.005-.005-.005-.007a.204.204 0 0 1-.03-.026c0-.002-.006-.005-.009-.005a.203.203 0 0 0-.028-.032.165.165 0 0 1-.034-.077c0-.006 0-.013.002-.024.002-.002-.002-.01.004-.002 0 .002.002.002.002.007v.004-.018l-.002-.039-.002-.015v-.011c-.002-.011.006.057.002.024.002-.002.004-.009.004-.015a.072.072 0 0 1 .013-.022c.01-.007.018-.007.033-.024.028-.027.123-.112.274-.225.076-.062.165-.13.262-.215.097-.085.205-.192.315-.33l.063-.083c.002-.006.004-.008.007-.013.021-.03.038-.065.06-.094l.002-.008a1.778 1.778 0 0 0 .225-.64c.015-.097.013-.291.013-.302v-.031c0-.022.004.035-.002-.052l-.007-.072a3.85 3.85 0 0 0-.112-.466c-.084-.21.622-.199.715-.153l.22.105c.057.026.085.048.1.048.011.002.005-.017.007-.035 0-.01.002-.015.004-.015.002-.007.004-.004.009 0h.004c-.009-.083-.004-.017-.004-.033v.011l.004.018v.01c.004-.004.004-.006.004-.004l.026-.01c.007-.007.013 0 .005.025-.02.064-.124.186-.27.341a3.78 3.78 0 0 0-.253.28c-.091.11-.188.245-.273.407-.05.102-.058.218-.125.334 0 .033-.013.063-.017.092-.005.008-.005.017-.007.026-.004.033-.009.063-.01.096-.014.096-.014.19-.007.28.002.046.008.087.013.133l.006.044v.01l.007.018.01.037.011.061.024.081a.657.657 0 0 0 .048.136 1.427 1.427 0 0 0 .214.367.41.41 0 0 0 .069.08.51.51 0 0 0 .032.036c.011.017.03.035.05.05l.028.026a.46.46 0 0 0 .076.066c.237.194.451.286.618.369.17.077.294.144.36.192a.77.77 0 0 1 .074.068.24.24 0 0 1 .046.092l.002.006c.002.02-.002-.028 0-.017l.002.015.006.037.003.031v.002s0 .002.004.002v.011c0 .009.002.018 0 .026a.308.308 0 0 1-.017.11 1.154 1.154 0 0 1-.227.319c-.11.12-.249.255-.383.426-.065.085-.13.18-.184.286-.051.11-.095.23-.114.354a1.04 1.04 0 0 0-.007.356l.005.04.002.013s.002.04.002.024l.004.015.013.063c.015.057.033.13.054.175.041.107.104.21.171.29.07.088.145.158.223.22.151.117.302.194.44.26.132.067.26.126.368.187.212.123.344.27.391.477a.684.684 0 0 1 .009.295.697.697 0 0 1-.104.264c-.106.17-.248.313-.372.444a2.7 2.7 0 0 0-.309.389.99.99 0 0 0-.134.345c-.01.052-.01.094-.01.133a.643.643 0 0 0 .017.171v-.077c0-.026.004-.054.006-.094.007-.035.018-.076.03-.122a.841.841 0 0 1 .17-.297c.086-.105.204-.208.347-.32.14-.11.307-.229.465-.412a1.031 1.031 0 0 0 .246-.774 1.018 1.018 0 0 0-.145-.457 1.498 1.498 0 0 0-.33-.369c-.121-.1-.253-.181-.37-.264a2.035 2.035 0 0 1-.311-.25.578.578 0 0 1-.145-.264c-.006-.028-.002-.035-.006-.061l-.003-.059-.002-.017c-.004-.018.002.013.002.008v-.004l.003-.018c0-.054.01-.1.023-.142a.698.698 0 0 1 .186-.244c.097-.09.227-.186.376-.308.147-.12.32-.265.474-.503a1.46 1.46 0 0 0 .17-.406c.009-.035.015-.075.024-.114l.007-.057.004-.063.002-.07v-.094l-.002-.046a1.395 1.395 0 0 0-.106-.448 1.43 1.43 0 0 0-.249-.402 1.116 1.116 0 0 0-.07-.072.13.13 0 0 0-.025-.026c-.01-.014-.028-.024-.039-.042-.012-.007-.021-.017-.034-.028-.009-.011-.024-.02-.033-.029-.043-.033-.082-.068-.12-.098-.007-.004-.011-.004-.014-.007-.023-.02-.05-.039-.073-.056-.004-.003-.006-.01-.01-.011-.027-.018-.053-.031-.074-.048-.005 0-.007-.005-.009-.01a.532.532 0 0 1-.073-.047c-.165-.112-.299-.208-.353-.28-.03-.037-.04-.061-.04-.079v-.024c.001 0 0-.008.006 0 .002 0 .002 0 .002.005a.007.007 0 0 1 .002.004l-.002-.017-.002-.04-.005-.017v-.009c0-.009.009.057.007.026.002-.004.002-.013.006-.017.005-.013.007-.018.013-.02.007-.009.015-.009.03-.024a3.59 3.59 0 0 1 .275-.23c.076-.058.162-.126.262-.211l.051-.048c.085-.077.173-.169.262-.282.106-.138.214-.32.283-.523a1.84 1.84 0 0 0 .074-.314 1.46 1.46 0 0 0 .013-.203v.017c0 .175.021.337.038.5l.007.062.002.017s.007.035.004.026l.005.03.02.11.045.223c.08.334 1.467.863 1.467.863.028.015.063.029.089.042.168.08.291.146.356.196a.593.593 0 0 1 .074.068c.021.022.032.05.047.094l.003.002c0 .024-.003-.026-.003-.02l.003.02.004.033.004.028v.01h.004c.003 0 0 .008.003.012 0 .005.004.018 0 .027a.242.242 0 0 1-.018.109c-.028.083-.114.192-.229.317-.11.122-.244.255-.378.421a1.641 1.641 0 0 0-.186.293 1.4 1.4 0 0 0-.117.352c-.019.12-.019.245-.008.356l.006.042v.013s.007.037.002.026l.01.011.01.061c.017.057.032.127.058.18.04.106.1.205.171.29.067.09.143.162.218.218.154.116.303.193.441.258.139.07.26.125.368.188.218.125.345.269.39.474a.749.749 0 0 1 .016.295.855.855 0 0 1-.108.27c-.102.165-.247.31-.372.443s-.235.26-.311.389a1.001 1.001 0 0 0-.134.345c-.007.048-.007.094-.009.133.002.037.002.068.005.094.008.05.01.077.01.077s.003-.03.003-.077c0-.026.004-.057.008-.094a1.2 1.2 0 0 1 .028-.122.897.897 0 0 1 .171-.3 2 2 0 0 1 .344-.316c.138-.114.309-.232.467-.415.077-.092.146-.208.194-.341a1.09 1.09 0 0 0-.093-.892 1.403 1.403 0 0 0-.33-.365 4.391 4.391 0 0 0-.374-.266 2.068 2.068 0 0 1-.307-.25.531.531 0 0 1-.145-.264c-.007-.028-.002-.037-.007-.059l-.006-.061v-.015c-.002-.018 0 .015 0 .008v-.004l.002-.022a.416.416 0 0 1 .03-.135.675.675 0 0 1 .186-.254c.093-.09.223-.183.374-.301.145-.123.32-.265.473-.505a1.41 1.41 0 0 0 .171-.404.784.784 0 0 0 .02-.114c.002-.02.006-.037.008-.06l.002-.067.003-.065.004-.04v-.052l-.007-.05a1.395 1.395 0 0 0-.354-.846 1.296 1.296 0 0 0-.173-.173l1.798-1.355c.156.07.268.132.333.18a.442.442 0 0 1 .071.065.22.22 0 0 1 .046.092l.004.004c0 .027-.004-.028-.004-.017l.004.017.007.033.004.03v.005c0 .004.002.004.002.004.002 0 .002.01.002.014s.002.017 0 .026a.218.218 0 0 1-.02.105c-.027.087-.112.196-.222.319-.112.124-.25.258-.382.424a2.016 2.016 0 0 0-.186.29 1.47 1.47 0 0 0-.115.35 1.359 1.359 0 0 0-.01.358l.008.044v.013s.004.033.002.024l.004.013.016.061a1.102 1.102 0 0 0 .225.468c.069.09.142.162.222.219.15.115.3.194.437.26.138.067.261.124.37.188.215.124.345.268.393.474a.687.687 0 0 1 .01.295.78.78 0 0 1-.108.269c-.103.166-.244.308-.37.443a2.117 2.117 0 0 0-.308.39.835.835 0 0 0-.132.344c-.011.046-.011.094-.013.131l.004.094c.009.048.01.075.01.075s0-.027.003-.075a.806.806 0 0 1 .035-.214.898.898 0 0 1 .173-.301 2.09 2.09 0 0 1 .345-.317c.14-.112.307-.23.463-.418.08-.09.151-.205.199-.336.05-.133.06-.29.052-.435a1.05 1.05 0 0 0-.147-.457 1.4 1.4 0 0 0-.329-.365 5.205 5.205 0 0 0-.374-.266 2.105 2.105 0 0 1-.309-.254.554.554 0 0 1-.145-.26c-.008-.03-.002-.037-.008-.059l-.005-.063v-.015c-.002-.018 0 .015 0 .01v-.004l.003-.022a.34.34 0 0 1 .03-.137.654.654 0 0 1 .184-.252c.095-.09.224-.183.373-.303.147-.123.322-.265.474-.503.073-.118.136-.258.175-.406a.689.689 0 0 0 .015-.112.178.178 0 0 0 .01-.059l.005-.068.002-.065v-.042l.002-.032v-.018l-.004-.052a1.412 1.412 0 0 0-.104-.448 1.418 1.418 0 0 0-.253-.396 1.372 1.372 0 0 0-.134-.14l2.752-8.192c.006.013.01.022.017.03.054.086.112.167.17.25.063.076.126.155.187.225.125.135.246.258.354.367.218.212.378.387.495.592.115.203.19.435.242.69l.002.014c.002.03-.002-.02 0-.013l.002.03.007.057.015.114.013.116v.078l.004.083v.042l-.002.046c-.002.059-.002.118-.01.177a2.224 2.224 0 0 1-.228.703c-.114.25-.261.527-.367.837-.024.079-.045.16-.07.24-.014.081-.032.162-.047.241-.01.079-.017.162-.023.24-.01.083-.007.162-.005.24l.002.117v.059l.005.054c.013.077.02.15.026.227l.01.055v.013l.005.03.004.025.024.098c.013.07.026.129.04.197.09.31.2.577.355.824.158.242.342.441.517.616.173.177.337.336.471.498.266.326.413.708.482 1.095l.01.037.005.015v.005l.002.008.007.075c.01.052.015.1.021.153l.01.072.001.065c0 .048.005.092.005.138l.002.066-.007.067a1.286 1.286 0 0 0-.01.131c-.003.046-.018.088-.022.13a1.152 1.152 0 0 1-.024.124c-.078.332-.227.618-.357.89a4.08 4.08 0 0 0-.283.753c-.008.057-.02.116-.028.168-.013.053-.013.105-.02.153-.001.055-.006.096-.008.145-.002.043 0 .09 0 .126.002.04.002.079.002.112 0 .037.002.07.007.102.01.06.015.11.02.151.008.083.014.123.014.123l-.002-.127c-.004-.037-.004-.088-.006-.15-.002-.032 0-.062.002-.1.004-.03.006-.071.009-.11.002-.038.004-.082.008-.123l.024-.138c.009-.046.013-.098.03-.148.017-.048.028-.103.043-.158a3.47 3.47 0 0 1 .342-.697c.147-.255.333-.537.454-.896l.039-.14c.013-.048.03-.093.036-.142.007-.05.016-.1.024-.148.005-.026.011-.048.013-.074.002-.027.004-.053.004-.077.005-.055.007-.105.011-.162a.49.49 0 0 0 .007-.08l-.002-.075zM58.281 113.75c-.015-.223-.326-.43-.38-.649l-6.1-.183c-1.787 1.119-4.556 3.575-3.025 5.43 1.158 1.309 2.859.273 4.154-.28 1.318-.633 2.81-1.086 4.048-1.86l.145.912h.635l.532-3.37h-.009z" fill="#2C2C2D"/><path d="M49.437 116.036c4.286 1.35 8.507-2.891 8.507-2.891l-6.004-.09c-2.049.994-2.503 2.98-2.503 2.98" fill="#FDDFBB"/><path d="M66.194 112.918l-6.097.184c-.054.218-.365.426-.38.649h-.013l.533 3.37h.638l.14-.912c1.243.771 2.732 1.228 4.053 1.864 1.295.55 2.995 1.588 4.152.277 1.532-1.855-1.237-4.313-3.026-5.432" fill="#2C2C2D"/><path d="M68.56 116.036c-4.286 1.35-8.51-2.891-8.51-2.891l6.007-.09c2.049 1.084 2.503 2.98 2.503 2.98" fill="#FDDFBB"/><path fill="#FDDFBB" d="M62.18 86.862H46.66l5.164 26.281h6.118l.912-19.054h.286l.912 19.054h6.12l5.162-26.28zm-26.307-6.393c.248-2.365 1.767-4.139 3.397-3.964.875.094 1.602.73 2.049 1.665.428.426.843.992 1.195 1.659.917 1.746 1.012 3.509.214 3.935-.43.23-1.024.029-1.627-.472-.647 1.171-1.665 1.886-2.728 1.774-1.625-.177-2.747-2.233-2.5-4.597m49.454-37.15c.572-.112 1.197.334 1.72 1.13 1.156-1.124 2.587-1.596 3.778-1.085 1.829.785 2.408 3.569 1.297 6.222-1.111 2.65-3.495 4.167-5.32 3.384-.98-.417-1.603-1.416-1.795-2.659-.35-.645-.636-1.45-.808-2.351-.452-2.35.054-4.427 1.128-4.641"/><path d="M85.13 51.172l-5.372 6.522-11.555-4.245s.007.006.013.02c-1.997-1.34-7.344-1.535-7.344-1.535l-1.74.057h-.147l-1.742-.074s-5.236.23-7.279 1.538v-.006s-6.389 3.384-8.16 5.672c-2.826 3.65-4.453 15.61-7.287 17.84 2.147 1.984 6.992.999 6.992.999s1.282-10.214 2.97-12.63c.616-.877.987-1.471 1.219-1.934-1.239 5.77-.113 11.561-.225 16.961l-.015 1.025c-4.662 6.947-8.367 29.887-8.367 29.887 22.281 8.708 44.562 0 44.562 0s-5.107-24.155-8.972-29.911a31.078 31.078 0 0 1-.043-1.005c-.155-5.97.87-12.83-.674-18.909 1.51.599 8.431 3.25 10.566 2.47 2.964-1.089 4.375-7.4 8.894-9.347-1.926-3.022-6.294-3.395-6.294-3.395" fill="#B71723"/><path d="M74.121 84.169c-.313-1.309-1.026-3.592-1.497-4.49a50.242 50.242 0 0 1-27.142-.086c-.588 1.182-1.104 2.946-1.474 4.495a54.877 54.877 0 0 0 30.113.081m7.234 25.736a68.155 68.155 0 0 1-44.028-.026c-.15.885-.234 1.39-.234 1.39 22.279 8.707 44.56 0 44.56 0s-.106-.499-.298-1.364" fill="#F08314"/><path d="M81.13 108.898l-.083-.39a71.39 71.39 0 0 1-43.466-.034l-.074.389a71.765 71.765 0 0 0 43.624.035M41.51 77.96s.039-.33.119-.892c-1.524.2-4.455.371-6.458-.815a3.45 3.45 0 0 1-.653.708c2.146 1.984 6.992.998 6.992.998m43.62-26.787l-.72.87c1.544.27 4.643 1.061 5.897 3.13a7.44 7.44 0 0 1 1.117-.605c-1.926-3.022-6.294-3.395-6.294-3.395m-17.769 2.71v-.84c-2.34-.954-6.503-1.103-6.503-1.103l-1.727.072h-.145l-1.757-.087s-4.364.192-6.704 1.221v.737c0 3.258 2.658 5.948 5.885 5.948h5.133c3.227 0 5.818-2.69 5.818-5.948" fill="#F08314"/><path d="M66.743 53.882v-1.069c-2.393-.752-5.87-.874-5.87-.874l-1.74.072h-.147l-1.744-.087s-3.638.16-6.033.972v.986c0 2.902 2.328 5.255 5.2 5.255h5.134c2.87 0 5.2-2.353 5.2-5.255" fill="#FDDFBB"/><path d="M57.27 53.474h3.694c1.055 0 1.908-2.24 1.908-3.308h-7.51c0 1.068.853 3.308 1.908 3.308" fill="#FDDFBB"/><path d="M56.168 52.655l6.679-2.23.01-.01a22.72 22.72 0 0 1-3.82.325c-1.246 0-2.467-.104-3.658-.299.07.653.364 1.56.79 2.214" fill="#EEAC6C"/></g></svg>