<svg width="120" height="120" viewBox="0 0 120 120" xmlns="http://www.w3.org/2000/svg" xmlns:xlink="http://www.w3.org/1999/xlink"><defs><path id="a" d="M2.395 3.293h108.079V62.08H2.394z"/><path id="c" d="M0 .705h114.584V81.53H0z"/></defs><g fill="none" fill-rule="evenodd"><g transform="matrix(-1 0 0 1 113.258 46.216)"><mask id="b" fill="#fff"><use xlink:href="#a"/></mask><path d="M103.216 36.016L19.476 61.63c-5.408 1.657-11.137-1.404-12.79-6.824l-3.844-12.63c-1.649-5.424 1.401-11.163 6.813-12.823L93.388 3.742c5.415-1.653 11.14 1.4 12.793 6.829l3.844 12.625c1.653 5.428-1.397 11.163-6.809 12.82" fill="#FFF" mask="url(#b)"/></g><path d="M84.849 96.555c1.111-.129 1.804-2.037 1.545-4.272-.256-2.227-1.363-3.927-2.474-3.795-1.111.124-1.804 2.037-1.548 4.264.259 2.227 1.366 3.93 2.477 3.803M28.86 80.296c-.844.737-.33 2.708 1.146 4.392 1.474 1.684 3.352 2.452 4.192 1.711.844-.733.329-2.697-1.146-4.388-1.475-1.688-3.352-2.452-4.192-1.715m12.354-17.828c.166-1.102-1.495-2.277-3.705-2.615-2.21-.337-4.142.283-4.308 1.397-.17 1.11 1.486 2.278 3.7 2.619 2.214.338 4.142-.291 4.313-1.4m43.091 13.428c-1.069-.326-2.466 1.144-3.12 3.29-.654 2.142-.318 4.148.758 4.477 1.069.326 2.462-1.148 3.117-3.294.654-2.142.317-4.14-.755-4.473m-7.629 16.998c1.065-.342 1.378-2.348.7-4.482-.677-2.138-2.093-3.597-3.158-3.255-1.064.337-1.382 2.347-.7 4.477.677 2.146 2.094 3.605 3.158 3.26M38.61 74.165c-1.12.035-1.979 1.87-1.913 4.117.062 2.246 1.018 4.031 2.137 4.004 1.118-.035 1.97-1.874 1.912-4.12-.062-2.243-1.018-4.028-2.137-4.001m34.411-1.762c-.27-1.086-2.252-1.533-4.424-.982-2.168.544-3.708 1.87-3.437 2.96.274 1.083 2.256 1.522 4.42.983 2.176-.548 3.712-1.87 3.442-2.96M96.87 89c.515-.994-.677-2.639-2.659-3.675-1.99-1.028-4.018-1.06-4.533-.066-.515.997.674 2.638 2.663 3.674 1.986 1.036 4.014 1.064 4.53.066M50.49 83.706c.987-.528.933-2.557-.12-4.536-1.056-1.983-2.705-3.158-3.696-2.627-.984.528-.933 2.561.12 4.536 1.052 1.979 2.71 3.158 3.696 2.627M20.963 62.411c1.053.365 2.504-1.051 3.236-3.17.736-2.122.468-4.14-.584-4.508-1.061-.365-2.513 1.055-3.24 3.174-.736 2.118-.469 4.132.588 4.504m-9.353 2.982c1.057.37 2.51-1.051 3.24-3.17.732-2.122.47-4.136-.588-4.504-1.056-.369-2.508 1.051-3.24 3.174-.735 2.122-.468 4.132.589 4.5M43.444 88.04c.14 1.118 2.052 1.785 4.274 1.502 2.218-.28 3.901-1.408 3.766-2.522-.143-1.113-2.055-1.785-4.274-1.505-2.221.287-3.905 1.416-3.766 2.526m31.032 9.192c.495-1.01-.735-2.627-2.745-3.616-2.005-.994-4.033-.974-4.529.034-.495 1.002.736 2.62 2.741 3.613 2.013.99 4.038.978 4.533-.031M63.82 90.78c.263-1.086-1.282-2.402-3.457-2.937-2.168-.54-4.15-.086-4.413.997-.271 1.09 1.277 2.41 3.445 2.949 2.176.527 4.158.081 4.425-1.01m-3.327-14.333c-.612-.935-2.628-.698-4.494.54-1.874 1.233-2.888 2.99-2.273 3.926.612.939 2.633.698 4.499-.54 1.865-1.23 2.883-2.995 2.268-3.926M46.49 74.002c.918-.636.636-2.654-.638-4.493-1.273-1.847-3.054-2.82-3.971-2.188-.926.64-.635 2.654.638 4.5 1.274 1.84 3.054 2.821 3.972 2.181m-22.999 8.503c.917-.637.63-2.654-.643-4.497-1.273-1.843-3.05-2.821-3.967-2.18-.926.635-.635 2.65.638 4.496 1.274 1.84 3.05 2.82 3.972 2.18M8.768 69.955c-.639.924.344 2.705 2.18 3.977 1.846 1.277 3.85 1.56 4.49.636.634-.923-.345-2.708-2.188-3.98-1.838-1.27-3.851-1.552-4.482-.633m23.876 6.26c.02-1.122-1.773-2.064-4.01-2.119-2.234-.05-4.069.819-4.096 1.94-.023 1.125 1.773 2.072 4.007 2.123 2.24.046 4.072-.823 4.099-1.944m37.364 5.327c-.407-1.051-2.427-1.233-4.514-.426-2.086.814-3.449 2.312-3.042 3.36.402 1.043 2.423 1.237 4.51.423 2.086-.811 3.448-2.309 3.046-3.357M64.825 67.8c-.402-1.044-2.423-1.234-4.51-.416-2.086.803-3.448 2.313-3.042 3.356.403 1.048 2.423 1.23 4.51.423 2.086-.81 3.449-2.316 3.042-3.364m-9.689 6.12c.863-.718.407-2.697-1.018-4.427-1.424-1.727-3.279-2.55-4.142-1.832-.863.706-.402 2.693 1.022 4.42 1.425 1.73 3.279 2.553 4.138 1.839m20.07 8.286c1.084.288 2.423-1.237 3-3.406.573-2.165.158-4.156-.922-4.439-1.08-.29-2.423 1.234-2.996 3.399-.573 2.173-.158 4.163.918 4.446m20.53 11.709c-.58-.959-2.605-.792-4.517.368-1.913 1.164-2.989 2.887-2.412 3.845.58.955 2.601.792 4.514-.372 1.916-1.164 2.992-2.887 2.415-3.841m.522-10.64c1.11-.128 1.808-2.037 1.548-4.272-.255-2.223-1.366-3.919-2.473-3.794-1.115.128-1.808 2.033-1.552 4.268.259 2.227 1.366 3.926 2.477 3.798m10.887-2.641c-.58-.955-2.605-.792-4.514.376-1.912 1.16-2.992 2.883-2.415 3.841.577.955 2.601.792 4.514-.376 1.912-1.16 2.996-2.879 2.415-3.841M26.762 70.85c1.053.376 2.512-1.04 3.255-3.151.743-2.119.492-4.136-.565-4.509-1.053-.368-2.512 1.044-3.255 3.155-.744 2.118-.488 4.132.565 4.505m67.541 31.017c.353 1.07 2.358 1.366 4.483.667 2.125-.706 3.565-2.141 3.217-3.2-.352-1.068-2.354-1.366-4.483-.66-2.125.694-3.565 2.134-3.217 3.193m4.317-9.135c.353 1.059 2.358 1.358 4.483.655 2.129-.702 3.565-2.134 3.213-3.193-.349-1.07-2.354-1.362-4.479-.66-2.125.699-3.565 2.13-3.217 3.198M22.358 71.308c.762-.826.058-2.728-1.58-4.26-1.633-1.533-3.58-2.107-4.343-1.288-.766.818-.058 2.723 1.58 4.256 1.633 1.533 3.58 2.103 4.343 1.292" fill="#F1F1F1"/><g transform="matrix(-1 0 0 1 121 15.176)"><mask id="d" fill="#fff"><use xlink:href="#c"/></mask><path d="M90.288 1.18L7.674 26.45c-5.721 1.75-8.946 7.814-7.2 13.56l10.3 33.826c1.746 5.735 7.8 8.97 13.522 7.217l82.614-25.267c5.721-1.75 8.946-7.822 7.2-13.556l-10.3-33.838c-1.747-5.73-7.8-8.959-13.522-7.213" fill="#FFCF72" mask="url(#d)"/></g><path d="M114.63 49.506c-8.807-2.693-10.355 2.378-19.161-.315-8.815-2.696-7.266-7.767-16.08-10.464-8.815-2.697-10.36 2.375-19.177-.318-8.826-2.705-7.281-7.772-16.107-10.476-8.822-2.697-10.367 2.378-19.192-.322m87.233 30.06c-8.81-2.697-10.355 2.375-19.161-.318-8.814-2.693-7.27-7.768-16.08-10.46-8.818-2.697-10.359 2.374-19.18-.323-8.823-2.7-7.278-7.771-16.108-10.472-8.822-2.696-10.362 2.375-19.188-.326m87.23 30.061c-8.807-2.693-10.355 2.378-19.161-.318-8.815-2.693-7.266-7.768-16.077-10.461-8.818-2.704-10.362 2.37-19.184-.322-8.822-2.704-7.278-7.776-16.103-10.476-8.822-2.697-10.367 2.375-19.193-.326" stroke="#FFF" stroke-width="2.33" stroke-linecap="round"/><path d="M62.66 26.127l18.723 5.727a4.71 4.71 0 0 1 3.12 5.874l-17.37 57.048a4.693 4.693 0 0 1-5.864 3.127l-18.716-5.727a4.71 4.71 0 0 1-3.124-5.874l17.366-57.044a4.697 4.697 0 0 1 5.864-3.13" fill="#1C1C1B"/></g></svg>