<svg width="40" height="50" viewBox="0 0 40 50" xmlns="http://www.w3.org/2000/svg"><g fill="none"><path d="M14 7.4c-5.5.8-10.2 3.5-10.2 11s-1.9 25 4.4 27.5c6.3 2.5 20.9 4 25.1-1.5 4.2-5.5 4-30 .2-33.8C30.4 7.6 23 6.2 14 7.4z" fill="#CFEBE2"/><g transform="translate(5 9)"><path d="M7.5 1.6C3.7 2.3 0 4.8.1 15.5.2 26 .9 32.9 5 35.2c5.3 3 19.9 2.6 22.6-1.9 2.7-4.5 1.7-24.9-.4-27.8-2-3-4.9-6.9-19.7-3.9z" fill="#AD2744"/><path d="M27.3 33.8c-8.7-4.4-19.6-2-23.8.1.5.5 1 1 1.6 1.3 5 2.9 18.8 2.7 22.2-1.4z" fill="#991F3F"/><circle fill="#CF2F51" cx="4.7" cy="30.9" r="1"/><circle fill="#CF2F51" cx="24.6" cy="13" r="1"/><circle fill="#CF2F51" cx="25.8" cy="28" r="1"/><circle fill="#CF2F51" cx="18" cy="31.9" r="1"/><circle fill="#CF2F51" cx="5.7" cy="31.9" r="1"/><circle fill="#CF2F51" cx="22.6" cy="29" r="1"/><circle fill="#CF2F51" cx="4.6" cy="11.6" r="1"/><circle fill="#CF2F51" cx="17.1" cy="9.9" r="1"/><circle fill="#CF2F51" cx="8" cy="26.4" r="1"/><circle fill="#CF2F51" cx="14.8" cy="34.4" r="1"/><circle fill="#CF2F51" cx="22.9" cy="10.7" r="1"/><circle fill="#CF2F51" cx="7.4" cy="14.2" r="1"/><circle fill="#CF2F51" cx="11.9" cy="10" r="1"/></g><path d="M36.1 33.1c.3-3.2.3-6.7.2-9.9-2.5 1-6.5 1.7-14 2.3-10 .8-16.2-1.2-18.7-2.7-.1 2.8-.2 5.9-.1 9.1 3.2 1.2 8.9 2.8 16.1 2.7 8.4-.1 13.6-.9 16.5-1.5z" fill="#F0E0DA"/><path d="M25.4 29.4c0-1.3-1.4-2.5-3.3-3.4 1.6-.7 3.7-1.9 2.8-2.4-1.1-.8-2.6 1.1-3.1 1.6.5-.6 1.9-2.7.4-2.7-1.7 0-1.6 2.8-1.6 2.8s-.7-2.7-1.9-2.7c-.9 0-.5 1.3.5 2.7-1.1-.1-2.3 0-3.3.4-3.5 1.6-.5 10.6 2 11.1.9.2 1.8-.1 2.7-.6l.1-.1c2.6-1.5 4.7-4.9 4.7-6.7z" fill="#E5E4E1"/><path d="M18.7 37.9c-.3 0-.6 0-.9-.1-2.2-.5-4-4.9-4.3-7.8-.2-2.6.5-4.5 2.1-5.2.6-.3 1.2-.4 1.9-.5-.3-.7-.4-1.4-.1-1.9.2-.5.7-.8 1.3-.8.7 0 1.2.4 1.7.9.1-.1.2-.2.2-.3.4-.5 1-.7 1.7-.7.9 0 1.3.5 1.5.8 0 0 0 .1.1.1.6-.1 1.2 0 1.7.3.4.3.6.8.6 1.3-.1.6-.4 1.2-1.9 2 1.4 1 2.2 2.1 2.2 3.3 0 2.3-2.4 6-5 7.6l-.2.1c-.9.6-1.8.9-2.6.9zm-.3-11.7c-.7 0-1.4.1-1.9.4-1.1.5-1 2.4-1 3.2.3 3 2 5.9 2.7 6.1.6.1 1.2 0 2-.5l.1-.1c2.2-1.4 4-4.6 4-5.9 0-.6-.9-1.7-2.7-2.4-.3-.1-.5-.4-.6-.7-.1.1-.2.1-.3.1-.3 0-.6-.1-.9-.3-.2.2-.5.3-.8.2-.1-.1-.3-.1-.6-.1z" fill="#F0E0DA"/><path d="M20.6 26.7c-1.8-1.6-3-4.1-1.8-4.1s1.9 2.7 1.9 2.7-.1-2.8 1.6-2.8c1.7 0-.5 2.9-.5 2.9s1.9-2.7 3.2-1.8c1.3.9-4.4 3.1-4.4 3.1z" fill="#88B540"/><path d="M18 36.8c-2.4-.6-5.5-9.6-2-11.1s9.4 1.2 9.4 3.7-4.1 8.2-7.4 7.4z" fill="#DD223D"/><path d="M19.4 30.3c-.7-.3-.1-1.5.6-1.4.6.2-.2 1.6-.6 1.4zm1.9 2.5c-.7-.3-.1-1.5.6-1.4.6.2-.2 1.6-.6 1.4zm.6-4.1c-.7-.3-.1-1.5.6-1.4.6.2-.3 1.6-.6 1.4zm-3.3 5.9c-.7-.3-.1-1.5.6-1.4.6.2-.2 1.6-.6 1.4zm2.5.7c-.5-.1-1 .7-.8 1.2.3-.2.6-.3 1-.6.1-.3 0-.6-.2-.6zm2.3-4.4c-.7-.3-.1-1.5.6-1.4.5.2-.3 1.6-.6 1.4zM16.9 32c-.7-.3-.1-1.5.6-1.4.7.1-.3 1.6-.6 1.4zm.6-4c-.7-.3-.1-1.5.6-1.4.6.2-.3 1.6-.6 1.4zm-.9 6.5c-.2 0-.4 0-.6.2.2.3.3.6.5.8.3-.4.5-.9.1-1zm-1.3-4.4c-.7-.3-.1-1.5.6-1.4.6.1-.2 1.5-.6 1.4z" fill="#DDBF6B"/><path d="M6.1 10.7S2.8 12.4 2 12.9c0 0 .8 3.6 3.2 3 2.4-.5 3.4-.3 4.9 1.6 1.5 1.9 5.7-1.3 8-.8s2.8 1.2 4.1.6c1.3-.5 3.4-1 5.1-.7 1.6.3 3.8.9 5.9-.1 2.2-1 4.6-2.9 4.6-2.9S34.1 11 33 11.3c0 0-9.8 1.8-26.9-.6z" fill="#E5E4E1"/><path d="M5.8 10.8c-.7.4-3.1 1.7-3.8 2.1 0 0 .2.8.6 1.6l4.1-3.4-.9-.3zm2.8 1.1l-4.7 4c.4.2.8.2 1.3.1.2-.1.5-.1.7-.1l3.8-3.7-1.1-.3zm2.8.4l-2.6 3.9c.4.3.8.6 1.2 1.2l2.9-5-1.5-.1zm1.6 5.6c.6-.1 1.1-.3 1.7-.5l1.2-3.7-1.5-.4-1.4 4.6zm4.3-1.2c.3 0 .5 0 .8.1.3.1.5.1.7.2l.8-3.2-1.5-.3-.8 3.2zm4.6.7c.1 0 .2-.1.3-.1.4-.2.8-.3 1.3-.4l-.2-3.5H22l-.1 4zm6.2-.6l-.7-4.2-.9.3.2 3.7c.2 0 .3 0 .5.1.4 0 .6.1.9.1zm4.3.1L30 12.1l-1 .3 1.9 4.7c.4 0 .9-.1 1.5-.2zm4.5-2.6l-4.5-2.6h-1.1l4.4 3.4c.5-.3.9-.5 1.2-.8z" fill="#E6818B"/><path d="M5.9 11.6S4 8.7 5.5 6.5C7 4.3 13.6 2.9 21.8 3c8.2.1 14.5 1.9 12.2 8.7 0 0-13.9 5.9-28.1-.1z" fill="#D3D2CF"/><path d="M21.4 8.6c6.6-.5 10.2-1.3 12.2-2.1-1.7-2.6-6.3-3.4-11.8-3.5-8.2-.1-14.7 1.3-16.3 3.5 0 .1-.1.1-.1.2 1.9 1.1 6.2 2.7 16 1.9z" fill="#E5E4E1"/><path d="M12.7 3.6c-2.2.9-5.2 2.3-6 3.1-.9.8-.8 3.4-.7 4.9.5.2 1.1.4 1.6.6-.1-1.2-.2-3.5.2-4.7.2-.7 5.8-3.2 8.6-4.4-1.3.2-2.6.3-3.7.5z" fill="#E6818B"/><path d="M22.3 3h-2.6c-2.4.9-7.5 3-8.5 4s-.6 4.4-.3 6.2c.5.1 1.1.3 1.6.4-.2-1.5-.5-4.6-.2-5.7.2-.8 7.2-3.7 10-4.9z" fill="#E6818B"/><path d="M25.8 3.2c-2.3.9-9 3.7-10.1 4.8-1.1 1.1-.7 4.8-.5 6 .5.1 1 .1 1.5.1-.1-.9-.3-3.9.1-5.2.2-.8 7.8-4 11-5.4-.7-.1-1.3-.2-2-.3z" fill="#E6818B"/><path d="M31.3 4.6c-.4-.2-.8-.4-1.3-.5-1.5.6-8.2 3.2-9.4 4.4-.9.9-.6 4-.4 5.8h1.6c-.2-1.6-.3-4-.1-4.9.1-.8 6.5-3.6 9.6-4.8z" fill="#E6818B"/><path d="M26.5 9.2c.1-.5 3.9-2 6.7-3.3-.3-.3-.6-.5-.9-.8-2.5 1.1-6 2.8-6.6 3.4-1 1-1.2 4.1-1.1 5.5l1.5-.3c-.1-1.2.1-3.4.4-4.5zM21.7 3L30 4.1c-2.2-.7-5.1-1-8.3-1.1.1 0 0 0 0 0z" fill="#E6818B"/><path d="M25.2 3.5l2 .3c.2-.1.3-.1.5-.2h-.1c-.6-.1-1.2-.2-1.9-.3-.1 0-.3.1-.5.2z" fill="#D1303E"/><path d="M5 8.9c0 .4.1.7.2 1.1 15.3 4.9 26.4.5 29.2-.8 0-.4 0-.8-.1-1.2-2.1.8-8.3 3-16.2 3C11 11.1 6.8 9.7 5 8.9z" fill="#E6818B"/><path d="M24.8 10.5c-.1.5-.2.9-.2 1.4.5-.1 1.1-.2 1.6-.2 0-.5.1-1 .2-1.4-.6 0-1.1.1-1.6.2zm-3.3.4c-.5 0-1.1.1-1.6.1v1.3c.5 0 1.1 0 1.6-.1v-1.3zm-5 .1h-1.6v1.1c.5.1 1.1.1 1.6.1V11zm-5.9.4c.6.1 1.1.2 1.6.3 0-.3 0-.6-.1-1-.5-.1-1-.1-1.5-.2v.9zM7.5 9.8c-.6-.2-1.1-.4-1.5-.5v.9c.5.2 1 .3 1.6.5-.1-.3-.1-.6-.1-.9z" fill="#D1303E"/><path d="M29.5 13.1c.1-1.2.1-5-1.3-5-.8 0-18.6-1-23-1.2-.1.3-.1.5-.2.8 3.9.2 21 1.2 22.3 1.2 1.1 0 1.2 3.2 1.2 4.5.4-.1.7-.2 1-.3z" fill="#E6818B"/><path d="M28.4 11.2c.4-.1.8-.2 1.1-.3 0-.5-.1-.9-.2-1.4l-1.2.3c.2.4.2.9.3 1.4zM27 8.9c.3-.2.8-.4 1.4-.7h-.1c-.1 0-.8 0-1.9-.1-.3.2-.6.4-.7.5-.1.1-.1.2-.2.2.6 0 1.1 0 1.5.1zm-3.2-1c-.7 0-1.5-.1-2.3-.1-.4.2-.8.5-1 .7 0 0 0 .1-.1.1.7 0 1.3.1 2 .1.4-.3.8-.5 1.4-.8zm-6.4.5c.3-.2.8-.5 1.3-.7-.7 0-1.5-.1-2.3-.1-.3.2-.6.4-.8.5l-.2.2c.7 0 1.4 0 2 .1zm-6.3-1.2c-.2.2-.3.5-.4.8.5 0 1 .1 1.5.1v-.2c0-.1.3-.3.7-.6-.6 0-1.2 0-1.8-.1zM6.4 7c-.1.2-.2.5-.3.8.5 0 1 .1 1.6.1 0-.1 0-.2.1-.3 0-.1.2-.3.4-.4C7.6 7 7 7 6.4 7z" fill="#D1303E"/><path d="M30.8 6.7c-1.4-.3-16.1-1.6-22.2-2.1-1 .4-1.8.8-2.4 1.2 2.2.1 20.2.7 23.7 1.7.8.2 1 4.2 1 5.3.4-.1.8-.2 1.1-.3.1-1.5.2-5.5-1.2-5.8z" fill="#E6818B"/><path d="M29.8 7.5c.4-.2.9-.4 1.3-.6-.1-.1-.2-.2-.4-.2s-.7-.1-1.5-.2c-.4.2-.9.4-1.3.6.9.1 1.5.2 1.9.4zm-3.9-.6c.4-.2.9-.4 1.3-.6-.7-.1-1.4-.1-2.2-.2-.5.2-.9.4-1.4.6.8.1 1.6.1 2.3.2zM21 6.5c.5-.2 1-.4 1.5-.7-.7-.1-1.5-.1-2.2-.2-.5.2-1.1.5-1.6.7.7.1 1.5.2 2.3.2zm-6.3-1.4c-.7.3-1.4.6-1.9.9.8 0 1.6.1 2.4.1.6-.3 1.2-.6 1.8-.8-.8 0-1.6-.1-2.3-.2zm-4.5.8c.7-.3 1.4-.7 2.2-1-.8-.1-1.6-.1-2.3-.2-.8.4-1.6.8-2.2 1.2h2.3zm20.5 4.7c.5-.1.9-.3 1.3-.4 0-.4 0-.9-.1-1.3-.4.1-.9.3-1.3.4 0 .4.1.8.1 1.3z" fill="#D1303E"/><path d="M33.9 11.7c0-1.1.1-3.4-.1-5-.5-.8-1.3-1.5-2.4-2-3.4-.5-10.8-1.1-15.6-1.5-1.7.1-3.3.4-4.6.7 5 .3 19.5 1.1 20.3 1.5.9.5 2 1.7 1.8 6.6.3-.1.6-.2.6-.3z" fill="#E6818B"/><path d="M32.9 5.7l-.2-.2c-.1-.1-.3-.2-.5-.3-.2.1-.5.2-.7.3.3.2.6.4.8.8.3-.1.5-.2.8-.4l-.2-.2zm-5.2-.8c.9.1 1.6.1 2.2.2.4-.2.9-.4 1.2-.5-.6-.1-1.3-.2-2-.2-.4.1-.9.3-1.4.5zm-5.1-.3c.8.1 1.6.1 2.3.2.5-.2 1-.4 1.4-.6-.7-.2-1.4-.2-2.1-.3-.5.2-1.1.4-1.6.7zm-9.8-1c-.1 0-.1 0 0 0-.3.1-.6.2-.8.3.7 0 1.5.1 2.4.1.7-.3 1.3-.6 1.9-.8h-.4c-1.1.1-2.2.2-3.1.4zm5.9-.2c-.6.2-1.2.5-1.9.8.8 0 1.6.1 2.4.1.6-.3 1.2-.5 1.7-.7-.8 0-1.5-.1-2.2-.2zm14.5 6.3c.3-.1.5-.2.8-.3V8.2c-.2.1-.5.2-.8.3-.1.3 0 .7 0 1.2z" fill="#D1303E"/><path d="M36.4 12.7c-.4-.2-.8-.5-1.3-.8-.6.8-2 2.1-3.5 2-2.2-.1-6.5-.4-8.1.4-1.7.8-2.8.9-5.2.4-2.4-.5-5.5 1.6-6.4.9-.9-.7-3.4-2.5-4.9-2.5-1.1.1-2-.3-2.8-1.4l-1.2.6c.6 1.1 1.7 2.4 3.2 2.2 2-.3 2.8 2.1 5.4 2.2 2.6.1 3.3-1.2 5.9-1.2 2.6.1 2.2 1 4.1.5 2-.5 3.6-1.5 5.6-1 1.9.5 6.7.2 9.2-2.3z" fill="#E6818B"/><path d="M19.3 14.9c-.3 0-.6-.1-1-.2-.2 0-.3-.1-.5-.1l-.3 1c.7 0 1.2.1 1.5.2l.3-.9zm-6 1.7c.6-.2 1.2-.4 1.7-.6l.4-1.1c-.6.2-1.2.4-1.7.5l-.4 1.2zm-2.8 0l.8-1.4c-.4-.3-.8-.5-1.2-.8l-1 1.5c.4.2.9.5 1.4.7zm-3.4-3.4l-1.6 1.4c.2 0 .5.1.7 0 .3 0 .6 0 .9.1l1.2-1.2c-.4-.2-.9-.4-1.2-.3zm-3.3.3l1.2-1c-.3-.2-.6-.4-.8-.8h-.1c-.1.1-.3.2-.4.3-.1 0-.1 0-.2.1-.1 0-.2.1-.4.2 0 0-.1 0-.1.1.2.3.5.8.8 1.1zm30.6-.7c-.2.2-.5.4-.8.6l.9.7c.4-.2.7-.4 1.1-.6l-1.2-.7zm-4.3 2.4c.4 0 .9-.1 1.3-.2l-.6-1.1c-.4 0-.9-.1-1.3-.1l.6 1.4zm-3.5-1.4l.1 1.2c.2 0 .3 0 .5.1.2 0 .4.1.6.1l-.2-1.4h-1zm-4.7 2.3c.5-.1 1-.3 1.5-.5l-.1-1.2c-.5.2-.9.4-1.3.5l-.1 1.2z" fill="#D1303E"/><path d="M5.5 10.7s5.2 3.5 14.3 3.2c9.1-.3 14.4-3.1 14.4-3.1s.2.1.2.7c0 0-8.9 3.7-16.1 3.1-10.5-.9-13.1-3.4-13.1-3.4l.3-.5z" fill="#C6AA8B"/></g></svg>