<svg width="120" height="120" viewBox="0 0 120 120" xmlns="http://www.w3.org/2000/svg" xmlns:xlink="http://www.w3.org/1999/xlink"><defs><path id="a" d="M0 79.933h119.616V0H0z"/></defs><g transform="translate(0 21)" fill="none" fill-rule="evenodd"><path d="M115.9 42.47H2.796c-.66 0-.781-.943-.139-1.118 16.205-4.54 21.624-9.501 22.562-10.462a.562.562 0 0 1 .417-.174H93.06c.156 0 .295.052.4.174.937.96 6.374 5.921 22.578 10.462.643.175.522 1.118-.138 1.118" fill="#FFBC00"/><mask id="b" fill="#fff"><use xlink:href="#a"/></mask><path fill="#136C00" mask="url(#b)" d="M9.483 45.404h100.008V42.47H9.483z"/><path fill="#700208" mask="url(#b)" d="M9.483 74.38h100.008V45.403H9.483z"/><path fill="#DE0A19" mask="url(#b)" d="M15.831 74.372h2.894V42.475h-2.894zm16.825 0h2.895V42.475h-2.895zm16.826 0h2.894V42.475h-2.894zm16.826 0h2.894V42.475h-2.894zm16.825 0h2.895V42.475h-2.895zm16.827 0h2.893V42.475H99.96z"/><path d="M98.323 18.472h-77.95c-.4 0-.504-.54-.121-.68 12.94-4.839 16.24-10.358 16.24-10.358h.051c.07-1.432.122-4.96-1.007-6.881a.363.363 0 0 1 .486-.507c1.563.891 3.7 2.865 4.967 7.126a.371.371 0 0 0 .348.262h36.109c.156 0 .278-.105.33-.262C79.044 2.911 81.197.937 82.76.046c.313-.174.66.175.47.507-1.112 1.904-1.078 5.432-.99 6.864 0 .07.017.122.052.174.642.926 4.48 5.834 16.152 10.2.365.14.278.681-.121.681" fill="#FFBC00" mask="url(#b)"/><path fill="#C40715" mask="url(#b)" d="M25.358 30.716H93.32V18.472H25.358z"/><path fill="#700208" mask="url(#b)" d="M31.587 27.075h2.894v-5.967h-2.894zm5.846 0h2.894v-5.967h-2.894zm5.846 0h2.894v-5.967H43.28zm5.847 0h2.894v-5.967h-2.894zm5.846 0h2.894v-5.967h-2.894zm5.846 0h2.895v-5.967h-2.895zm5.846 0h2.895v-5.967h-2.895zm5.847 0h2.894v-5.967h-2.894zm5.846 0h2.895v-5.967h-2.895zm5.847 0h2.894v-5.967h-2.894z"/><path fill="#FFD900" mask="url(#b)" d="M16.672 46.236h1.255v-2.292h-1.255zm16.805 0h1.254v-2.292h-1.254zm16.803 0h1.255v-2.292h-1.254zm16.805 0h1.254v-2.292h-1.254zm16.804 0h1.254v-2.292H83.89zm16.804 0h1.255v-2.292h-1.255z"/><path fill="#C63604" mask="url(#b)" d="M0 79.933h119.616V55.324H0z"/><path fill="#EDB0A0" mask="url(#b)" d="M119.616 51.866v3.493H0v-3.493h4.134v1.747H8.25v-1.747h4.134v1.747H16.5v-1.747h4.134v1.747h4.116v-1.747h4.134v1.747H33v-1.747h4.134v1.747h4.116v-1.747h4.134v1.747H49.5v-1.747h4.116v1.747h4.134v-1.747h4.117v1.747H66v-1.747h4.116v1.747h4.134v-1.747h4.117v1.747H82.5v-1.747h4.116v1.747h4.134v-1.747h4.117v1.747H99v-1.747h4.116v1.747h4.134v-1.747h4.117v1.747h4.133v-1.747z"/><path d="M66.938 69.402v10.531H51.74V69.402c0-1.1.225-2.131.642-3.074a7.562 7.562 0 0 1 4.777-4.244 6.994 6.994 0 0 1 2.188-.332c2.101 0 3.995.856 5.367 2.235a7.93 7.93 0 0 1 1.598 2.375c.4.926.625 1.957.625 3.04m19.019 9.082v1.45H70.76v-1.45c0-1.52.434-2.917 1.216-4.105a7.468 7.468 0 0 1 6.374-3.527 7.52 7.52 0 0 1 4.776 1.693c.209.175.417.35.608.542.382.384.73.821 1.025 1.292a7.53 7.53 0 0 1 1.198 4.105m-38.034 1.443H32.73v-1.445c0-4.22 3.4-7.639 7.596-7.639 4.195 0 7.596 3.42 7.596 7.639v1.445z" fill="#700208" mask="url(#b)"/><path d="M119.616 51.866v28.068H57.16v-72.5h20.286c.156 0 .278-.105.33-.262C79.044 2.911 81.197.937 82.76.046c.313-.174.66.175.47.507-1.112 1.904-1.077 5.432-.99 6.864 0 .07.017.122.052.175.642.925 4.48 5.833 16.152 10.2.365.139.278.68-.121.68H93.32v12.244h-.26c.156 0 .296.052.4.174.937.961 6.374 5.921 22.579 10.462.642.175.52 1.118-.14 1.118h-6.408v9.396h1.876v1.747h4.133v-1.747h4.116z" fill="#000" opacity=".159" mask="url(#b)"/></g></svg>