<svg width="120" height="120" viewBox="0 0 120 120" xmlns="http://www.w3.org/2000/svg" xmlns:xlink="http://www.w3.org/1999/xlink"><defs><path id="a" d="M0 .292h79.38v95.785H0z"/><path id="c" d="M.436.61h62.327v116.329H.436z"/></defs><g fill="none" fill-rule="evenodd"><g transform="translate(20 .32)"><mask id="b" fill="#fff"><use xlink:href="#a"/></mask><path d="M68.9.608c-.52-.281-1.122-.393-1.835-.26-3.856.72-6.624 2.255-10.138 2.322-3.514.066-3.834-2.405-7.723-.036-3.89 2.368-2.372 2.185-6.098 3.12-3.725.936-3.434-1.018-5.28 2.03-1.846 3.05-.872 5.864-4.471 6.278-3.599.414-4.266-2.141-5.854.603-1.587 2.743-4.47 13.088-8.75 15.547-4.278 2.458-2.095-1.982-7.087 4.168-4.994 6.15-3.81 8.095-5.782 11.666-1.972 3.57-2.64 1.016-4.429 6.103-1.789 5.089-3.055 17.116 3.303 27.313 5.386 8.639 9.974 9.687 12.506 12.012 3.293.985 6.542 4.39 16.72 4.597 12.015.243 21.699-6.999 25.155-11.14 3.456-4.141.919-3.407 2.977-6.928 2.058-3.523 4.335-3.5 7.064-10.938 2.729-7.436.032-3.288-.047-8.223-.077-4.934 7.335-12.705 8.88-15.473 1.545-2.768-.993-2.034-2.478-5.337-1.486-3.304 1.43-3.908 3.104-7.054 1.675-3.146.146-1.896-.957-5.575-1.103-3.68-.484-2.282-.44-6.836.045-4.553-2.242-3.564-3.983-6.617s-1.838-6.216-3.194-9.898c-.25-.68-.654-1.141-1.162-1.444" fill="#EC7D23" mask="url(#b)"/></g><g transform="translate(27.347 2.77)"><mask id="d" fill="#fff"><use xlink:href="#c"/></mask><path d="M13.229 77.242c-.886 1.632-2.28 4.426-3.835 7.968-.366.778-.729 1.554-1.088 2.327a.583.583 0 0 0-.046.326C5.004 95.688 1.437 106.15.444 115.794c-.151 1.434 1.998 1.53 2.052.239.586-11.683 4.283-21.949 7.015-28.342a502.123 502.123 0 0 1 4.824-10.228C21.336 74.4 42.36 72.857 50.24 73.06c-7.374-.607-28.324 1.032-35.655 3.887a554.019 554.019 0 0 1 6.948-13.785c4.122-2.361 28.961-7.585 34.224-7.754-4.86-.159-28.453 4.666-33.93 7.192a576.06 576.06 0 0 1 9.222-16.94c4.725-.942 11.682-4.13 16.566-5.645 3.684-1.143 8.872-2.448 12.696-1.533l1.654.554c.527.274.261.141.798.4-4.343-2.659-10.668-1.044-15.225.327-4.75 1.43-11.58 4.482-16.24 5.458a553.638 553.638 0 0 1 8.417-14.333c4.72-1.381 17.289-5.54 21.068-5.165.51.188.253.1.772.269l-.371-.176c-2.605-1.175-16.558 3.24-21.174 4.587A483.172 483.172 0 0 1 50.916 13.3C53.831 8.94 56.848 4.88 59.82.61c-3.486 4.012-7.082 9.213-10.096 13.624a437.127 437.127 0 0 0-7.912 12.013c-2.11-5.174-2.788-8.806-4.271-14.154-.213-.768-.404-1.317-.653-2.073.33 1.41.156.709.521 2.107 1.127 5.16 2.191 9.61 4.152 14.516a503.496 503.496 0 0 0-7.255 11.798c-.748-2.852-1.9-6.316-2.76-9.11-1.119-3.636-2.227-6.027-4.164-9.281 1.742 3.587 2.749 5.42 3.902 9.358.724 2.473 1.828 7.007 2.776 9.446a550.444 550.444 0 0 0-9.049 15.798c-1.618-7.63-8.296-20.924-12.09-27.08 3.713 6.94 10.39 19.715 11.808 27.592a556.873 556.873 0 0 0-7.318 13.764c-.532-4.939-3.874-11.815-5.739-15.82-2.25-4.828-4.799-9.983-7.423-14.62.878 1.788 1.79 3.558 2.679 5.34 2.746 5.509 9.73 19.165 10.155 25.739a532.282 532.282 0 0 0-3.854 7.675" fill="#A15641" mask="url(#d)"/></g></g></svg>