<svg xmlns="http://www.w3.org/2000/svg" width="128.1" height="132.1" viewBox="0 0.9 128.1 132.1"><defs><style/></defs><g id="ID0.6454701842740178"><path id="ID0.9805615041404963" fill="#E7F5F5" d="M176 227.9h128.1V360H176V227.9z" transform="translate(-176 -227)"/><g id="ID0.4563788389787078"><g id="ID0.02407592535018921"><path id="ID0.6895429524593055" fill="#A3DEF8" d="M182.6 233.5h115.6v3.1H182.6v-3.1z" transform="translate(-176 -227)"/></g><g id="ID0.3153572380542755"><path id="ID0.8587536937557161" fill="#A3DEF8" d="M182.3 235.5h3.1V250h-3.1v-14.5z" transform="translate(-176 -227)"/></g><g id="ID0.500053140334785"><path id="ID0.686961165163666" fill="#A3DEF8" d="M189.8 235.5h3.1V250h-3.1v-14.5z" transform="translate(-176 -227)"/></g><g id="ID0.9283221065998077"><path id="ID0.8555283998139203" fill="#A3DEF8" d="M197.3 235.5h3.1V250h-3.1v-14.5z" transform="translate(-176 -227)"/></g><g id="ID0.5164866736158729"><path id="ID0.8347138082608581" fill="#A3DEF8" d="M204.8 235.5h3.1V250h-3.1v-14.5z" transform="translate(-176 -227)"/></g><g id="ID0.9962534601800144"><path id="ID0.42499831691384315" fill="#A3DEF8" d="M212.2 235.5h3.1V250h-3.1v-14.5z" transform="translate(-176 -227)"/></g><g id="ID0.5417190161533654"><path id="ID0.3017918039113283" fill="#A3DEF8" d="M219.7 235.5h3.1V250h-3.1v-14.5z" transform="translate(-176 -227)"/></g><g id="ID0.05482932925224304"><path id="ID0.8740990841761231" fill="#A3DEF8" d="M227.2 235.5h3.1V250h-3.1v-14.5z" transform="translate(-176 -227)"/></g><g id="ID0.850925331003964"><path id="ID0.8697319626808167" fill="#A3DEF8" d="M234.7 235.5h3.1V250h-3.1v-14.5z" transform="translate(-176 -227)"/></g><g id="ID0.12834183080121875"><path id="ID0.40989367570728064" fill="#A3DEF8" d="M182.6 255.5h3.1V270h-3.1v-14.5z" transform="translate(-176 -227)"/></g><g id="ID0.341739556286484"><path id="ID0.5264815748669207" fill="#A3DEF8" d="M190 255.5h3.1V270H190v-14.5z" transform="translate(-176 -227)"/></g><g id="ID0.3462742739357054"><path id="ID0.9848535992205143" fill="#A3DEF8" d="M197.5 255.5h3.1V270h-3.1v-14.5z" transform="translate(-176 -227)"/></g><g id="ID0.4284281232394278"><path id="ID0.3441256727091968" fill="#A3DEF8" d="M205 255.5h3.1V270H205v-14.5z" transform="translate(-176 -227)"/></g><g id="ID0.8229453256353736"><path id="ID0.8603811683133245" fill="#A3DEF8" d="M212.5 255.5h3.1V270h-3.1v-14.5z" transform="translate(-176 -227)"/></g><g id="ID0.7070941436104476"><path id="ID0.6780886412598193" fill="#A3DEF8" d="M219.9 255.5h3.1V270h-3.1v-14.5z" transform="translate(-176 -227)"/></g><g id="ID0.6863960791379213"><path id="ID0.07609295705333352" fill="#A3DEF8" d="M227.4 255.5h3.1V270h-3.1v-14.5z" transform="translate(-176 -227)"/></g><g id="ID0.9716828572563827"><path id="ID0.652976063080132" fill="#A3DEF8" d="M234.9 255.5h3.1V270h-3.1v-14.5z" transform="translate(-176 -227)"/></g><g id="ID0.5568879819475114"><path id="ID0.5839940067380667" fill="#A3DEF8" d="M182.6 274.2h3.1v14.5h-3.1v-14.5z" transform="translate(-176 -227)"/></g><g id="ID0.30162305664271116"><path id="ID0.3738655801862478" fill="#A3DEF8" d="M190 274.2h3.1v14.5H190v-14.5z" transform="translate(-176 -227)"/></g><g id="ID0.696455430239439"><path id="ID0.994355539791286" fill="#A3DEF8" d="M197.5 274.2h3.1v14.5h-3.1v-14.5z" transform="translate(-176 -227)"/></g><g id="ID0.09361659595742822"><path id="ID0.09292380278930068" fill="#A3DEF8" d="M205 274.2h3.1v14.5H205v-14.5z" transform="translate(-176 -227)"/></g><g id="ID0.6879514870233834"><path id="ID0.45272211404517293" fill="#A3DEF8" d="M212.5 274.2h3.1v14.5h-3.1v-14.5z" transform="translate(-176 -227)"/></g><g id="ID0.691447417717427"><path id="ID0.706564246211201" fill="#A3DEF8" d="M219.9 274.2h3.1v14.5h-3.1v-14.5z" transform="translate(-176 -227)"/></g><g id="ID0.46185499196872115"><path id="ID0.24752401188015938" fill="#A3DEF8" d="M227.4 274.2h3.1v14.5h-3.1v-14.5z" transform="translate(-176 -227)"/></g><g id="ID0.7345666200853884"><path id="ID0.6498445393517613" fill="#A3DEF8" d="M234.9 274.2h3.1v14.5h-3.1v-14.5z" transform="translate(-176 -227)"/></g><g id="ID0.5274201203137636"><path id="ID0.9282959052361548" fill="#A3DEF8" d="M242.1 235.5h3.1V250h-3.1v-14.5z" transform="translate(-176 -227)"/></g><g id="ID0.5446365005336702"><path id="ID0.9434898602776229" fill="#A3DEF8" d="M249.6 235.5h3.1V250h-3.1v-14.5z" transform="translate(-176 -227)"/></g><g id="ID0.8158117095008492"><path id="ID0.30646442947909236" fill="#A3DEF8" d="M257.1 235.5h3.1V250h-3.1v-14.5z" transform="translate(-176 -227)"/></g><g id="ID0.8035901235416532"><path id="ID0.4760300503112376" fill="#A3DEF8" d="M264.6 235.5h3.1V250h-3.1v-14.5z" transform="translate(-176 -227)"/></g><g id="ID0.41162257036194205"><path id="ID0.7661742852069438" fill="#A3DEF8" d="M272 235.5h3.1V250H272v-14.5z" transform="translate(-176 -227)"/></g><g id="ID0.8375893589109182"><path id="ID0.6655784989707172" fill="#A3DEF8" d="M279.5 235.5h3.1V250h-3.1v-14.5z" transform="translate(-176 -227)"/></g><g id="ID0.03236937243491411"><path id="ID0.3406133404932916" fill="#A3DEF8" d="M287 235.5h3.1V250H287v-14.5z" transform="translate(-176 -227)"/></g><g id="ID0.409982587210834"><path id="ID0.017991815228015184" fill="#A3DEF8" d="M294.5 235.5h3.1V250h-3.1v-14.5z" transform="translate(-176 -227)"/></g><g id="ID0.6475474857725203"><path id="ID0.8017428545281291" fill="#A3DEF8" d="M242.4 255.5h3.1V270h-3.1v-14.5z" transform="translate(-176 -227)"/></g><g id="ID0.8911274950951338"><path id="ID0.4399424712173641" fill="#A3DEF8" d="M249.8 255.5h3.1V270h-3.1v-14.5z" transform="translate(-176 -227)"/></g><g id="ID0.7958338726311922"><path id="ID0.6164455264806747" fill="#A3DEF8" d="M257.3 255.5h3.1V270h-3.1v-14.5z" transform="translate(-176 -227)"/></g><g id="ID0.19140496477484703"><path id="ID0.041107872035354376" fill="#A3DEF8" d="M264.8 255.5h3.1V270h-3.1v-14.5z" transform="translate(-176 -227)"/></g><g id="ID0.5967671163380146"><path id="ID0.31503996066749096" fill="#A3DEF8" d="M272.3 255.5h3.1V270h-3.1v-14.5z" transform="translate(-176 -227)"/></g><g id="ID0.7560883848927915"><path id="ID0.5502900462597609" fill="#A3DEF8" d="M279.7 255.5h3.1V270h-3.1v-14.5z" transform="translate(-176 -227)"/></g><g id="ID0.9970372342504561"><path id="ID0.6967723611742258" fill="#A3DEF8" d="M287.2 255.5h3.1V270h-3.1v-14.5z" transform="translate(-176 -227)"/></g><g id="ID0.060953733045607805"><path id="ID0.005726697389036417" fill="#A3DEF8" d="M294.7 255.5h3.1V270h-3.1v-14.5z" transform="translate(-176 -227)"/></g><g id="ID0.7793514938093722"><path id="ID0.31892565730959177" fill="#A3DEF8" d="M242.4 274.2h3.1v14.5h-3.1v-14.5z" transform="translate(-176 -227)"/></g><g id="ID0.940010251943022"><path id="ID0.3610841208137572" fill="#A3DEF8" d="M249.8 274.2h3.1v14.5h-3.1v-14.5z" transform="translate(-176 -227)"/></g><g id="ID0.2187366085126996"><path id="ID0.4396536983549595" fill="#A3DEF8" d="M257.3 274.2h3.1v14.5h-3.1v-14.5z" transform="translate(-176 -227)"/></g><g id="ID0.26299855951219797"><path id="ID0.782250551506877" fill="#A3DEF8" d="M264.8 274.2h3.1v14.5h-3.1v-14.5z" transform="translate(-176 -227)"/></g><g id="ID0.40356132481247187"><path id="ID0.5609647827222943" fill="#A3DEF8" d="M272.3 274.2h3.1v14.5h-3.1v-14.5z" transform="translate(-176 -227)"/></g><g id="ID0.9676372953690588"><path id="ID0.29182357201352715" fill="#A3DEF8" d="M279.7 274.2h3.1v14.5h-3.1v-14.5z" transform="translate(-176 -227)"/></g><g id="ID0.6443381528370082"><path id="ID0.3712189318612218" fill="#A3DEF8" d="M287.2 274.2h3.1v14.5h-3.1v-14.5z" transform="translate(-176 -227)"/></g><g id="ID0.9970563501119614"><path id="ID0.7424281351268291" fill="#A3DEF8" d="M294.7 274.2h3.1v14.5h-3.1v-14.5z" transform="translate(-176 -227)"/></g><g id="ID0.4026490789838135"><path id="ID0.6054635173641145" fill="#A3DEF8" d="M182.3 292.9h3.1v14.5h-3.1v-14.5z" transform="translate(-176 -227)"/></g><g id="ID0.8339485926553607"><path id="ID0.06156357517465949" fill="#A3DEF8" d="M189.8 292.9h3.1v14.5h-3.1v-14.5z" transform="translate(-176 -227)"/></g><g id="ID0.48999479319900274"><path id="ID0.3451434215530753" fill="#A3DEF8" d="M197.3 292.9h3.1v14.5h-3.1v-14.5z" transform="translate(-176 -227)"/></g><g id="ID0.5492134965024889"><path id="ID0.8605943364091218" fill="#A3DEF8" d="M204.8 292.9h3.1v14.5h-3.1v-14.5z" transform="translate(-176 -227)"/></g><g id="ID0.22597739519551396"><path id="ID0.13568456145003438" fill="#A3DEF8" d="M212.2 292.9h3.1v14.5h-3.1v-14.5z" transform="translate(-176 -227)"/></g><g id="ID0.14625848131254315"><path id="ID0.23892581602558494" fill="#A3DEF8" d="M219.7 292.9h3.1v14.5h-3.1v-14.5z" transform="translate(-176 -227)"/></g><g id="ID0.02579132653772831"><path id="ID0.768258667550981" fill="#A3DEF8" d="M227.2 292.9h3.1v14.5h-3.1v-14.5z" transform="translate(-176 -227)"/></g><g id="ID0.45822541136294603"><path id="ID0.2573526734486222" fill="#A3DEF8" d="M234.7 292.9h3.1v14.5h-3.1v-14.5z" transform="translate(-176 -227)"/></g><g id="ID0.395256862975657"><path id="ID0.7385775661095977" fill="#A3DEF8" d="M182.6 312.9h3.1v14.5h-3.1v-14.5z" transform="translate(-176 -227)"/></g><g id="ID0.6680252845399082"><path id="ID0.9020196138881147" fill="#A3DEF8" d="M190 312.9h3.1v14.5H190v-14.5z" transform="translate(-176 -227)"/></g><g id="ID0.11485876981168985"><path id="ID0.09523493750020862" fill="#A3DEF8" d="M197.5 312.9h3.1v14.5h-3.1v-14.5z" transform="translate(-176 -227)"/></g><g id="ID0.6408908325247467"><path id="ID0.5644723912701011" fill="#A3DEF8" d="M205 312.9h3.1v14.5H205v-14.5z" transform="translate(-176 -227)"/></g><g id="ID0.20947095938026905"><path id="ID0.9553400846198201" fill="#A3DEF8" d="M212.5 312.9h3.1v14.5h-3.1v-14.5z" transform="translate(-176 -227)"/></g><g id="ID0.9487326676025987"><path id="ID0.2166052171960473" fill="#A3DEF8" d="M219.9 312.9h3.1v14.5h-3.1v-14.5z" transform="translate(-176 -227)"/></g><g id="ID0.6141257584095001"><path id="ID0.895855731330812" fill="#A3DEF8" d="M227.4 312.9h3.1v14.5h-3.1v-14.5z" transform="translate(-176 -227)"/></g><g id="ID0.8318884950131178"><path id="ID0.32101255375891924" fill="#A3DEF8" d="M234.9 312.9h3.1v14.5h-3.1v-14.5z" transform="translate(-176 -227)"/></g><g id="ID0.4934910857118666"><path id="ID0.11817458411678672" fill="#A3DEF8" d="M182.6 331.5h3.1V346h-3.1v-14.5z" transform="translate(-176 -227)"/></g><g id="ID0.4105628910474479"><path id="ID0.7135915355756879" fill="#A3DEF8" d="M190 331.5h3.1V346H190v-14.5z" transform="translate(-176 -227)"/></g><g id="ID0.3490315657109022"><path id="ID0.21839853283017874" fill="#A3DEF8" d="M197.5 331.5h3.1V346h-3.1v-14.5z" transform="translate(-176 -227)"/></g><g id="ID0.9245366961695254"><path id="ID0.6149426377378404" fill="#A3DEF8" d="M205 331.5h3.1V346H205v-14.5z" transform="translate(-176 -227)"/></g><g id="ID0.7431980106048286"><path id="ID0.8084700237959623" fill="#A3DEF8" d="M212.5 331.5h3.1V346h-3.1v-14.5z" transform="translate(-176 -227)"/></g><g id="ID0.8288371837697923"><path id="ID0.3497806554660201" fill="#A3DEF8" d="M219.9 331.5h3.1V346h-3.1v-14.5z" transform="translate(-176 -227)"/></g><g id="ID0.867410781327635"><path id="ID0.4351030536927283" fill="#A3DEF8" d="M227.4 331.5h3.1V346h-3.1v-14.5z" transform="translate(-176 -227)"/></g><g id="ID0.9672944312915206"><path id="ID0.807707950938493" fill="#A3DEF8" d="M234.9 331.5h3.1V346h-3.1v-14.5z" transform="translate(-176 -227)"/></g><g id="ID0.3584961071610451"><path id="ID0.14754828345030546" fill="#A3DEF8" d="M242.1 292.9h3.1v14.5h-3.1v-14.5z" transform="translate(-176 -227)"/></g><g id="ID0.5603743800893426"><path id="ID0.8993290569633245" fill="#A3DEF8" d="M249.6 292.9h3.1v14.5h-3.1v-14.5z" transform="translate(-176 -227)"/></g><g id="ID0.1594226500019431"><path id="ID0.127543271984905" fill="#A3DEF8" d="M257.1 292.9h3.1v14.5h-3.1v-14.5z" transform="translate(-176 -227)"/></g><g id="ID0.6489308588206768"><path id="ID0.4876568499021232" fill="#A3DEF8" d="M264.6 292.9h3.1v14.5h-3.1v-14.5z" transform="translate(-176 -227)"/></g><g id="ID0.03821671428158879"><path id="ID0.28490134747698903" fill="#A3DEF8" d="M272 292.9h3.1v14.5H272v-14.5z" transform="translate(-176 -227)"/></g><g id="ID0.6279748426750302"><path id="ID0.256508516613394" fill="#A3DEF8" d="M279.5 292.9h3.1v14.5h-3.1v-14.5z" transform="translate(-176 -227)"/></g><g id="ID0.023459989111870527"><path id="ID0.9313449072651565" fill="#A3DEF8" d="M287 292.9h3.1v14.5H287v-14.5z" transform="translate(-176 -227)"/></g><g id="ID0.34160871198400855"><path id="ID0.910138560924679" fill="#A3DEF8" d="M294.5 292.9h3.1v14.5h-3.1v-14.5z" transform="translate(-176 -227)"/></g><g id="ID0.3057138775475323"><path id="ID0.1616731989197433" fill="#A3DEF8" d="M242.4 312.9h3.1v14.5h-3.1v-14.5z" transform="translate(-176 -227)"/></g><g id="ID0.9135612803511322"><path id="ID0.2776537472382188" fill="#A3DEF8" d="M249.8 312.9h3.1v14.5h-3.1v-14.5z" transform="translate(-176 -227)"/></g><g id="ID0.14537231950089335"><path id="ID0.6391830425709486" fill="#A3DEF8" d="M257.3 312.9h3.1v14.5h-3.1v-14.5z" transform="translate(-176 -227)"/></g><g id="ID0.4035021145828068"><path id="ID0.22086297580972314" fill="#A3DEF8" d="M264.8 312.9h3.1v14.5h-3.1v-14.5z" transform="translate(-176 -227)"/></g><g id="ID0.7849920000880957"><path id="ID0.1583904977887869" fill="#A3DEF8" d="M272.3 312.9h3.1v14.5h-3.1v-14.5z" transform="translate(-176 -227)"/></g><g id="ID0.4523827931843698"><path id="ID0.25656480016186833" fill="#A3DEF8" d="M279.7 312.9h3.1v14.5h-3.1v-14.5z" transform="translate(-176 -227)"/></g><g id="ID0.9109527389518917"><path id="ID0.2886277879588306" fill="#A3DEF8" d="M287.2 312.9h3.1v14.5h-3.1v-14.5z" transform="translate(-176 -227)"/></g><g id="ID0.04222543723881245"><path id="ID0.5405232235789299" fill="#A3DEF8" d="M294.7 312.9h3.1v14.5h-3.1v-14.5z" transform="translate(-176 -227)"/></g><g id="ID0.7828981168568134"><path id="ID0.16488431254401803" fill="#A3DEF8" d="M242.4 331.5h3.1V346h-3.1v-14.5z" transform="translate(-176 -227)"/></g><g id="ID0.6549611478112638"><path id="ID0.8942671371623874" fill="#A3DEF8" d="M249.8 331.5h3.1V346h-3.1v-14.5z" transform="translate(-176 -227)"/></g><g id="ID0.38102139439433813"><path id="ID0.6324284155853093" fill="#A3DEF8" d="M257.3 331.5h3.1V346h-3.1v-14.5z" transform="translate(-176 -227)"/></g><g id="ID0.540021853055805"><path id="ID0.14504433888942003" fill="#A3DEF8" d="M264.8 331.5h3.1V346h-3.1v-14.5z" transform="translate(-176 -227)"/></g><g id="ID0.6320506692864001"><path id="ID0.3001907281577587" fill="#A3DEF8" d="M272.3 331.5h3.1V346h-3.1v-14.5z" transform="translate(-176 -227)"/></g><g id="ID0.6137331817299128"><path id="ID0.6642812010832131" fill="#A3DEF8" d="M279.7 331.5h3.1V346h-3.1v-14.5z" transform="translate(-176 -227)"/></g><g id="ID0.9975902214646339"><path id="ID0.40785130858421326" fill="#A3DEF8" d="M287.2 331.5h3.1V346h-3.1v-14.5z" transform="translate(-176 -227)"/></g><g id="ID0.5951062198728323"><path id="ID0.5979973124340177" fill="#A3DEF8" d="M294.7 331.5h3.1V346h-3.1v-14.5z" transform="translate(-176 -227)"/></g></g></g></svg>