<svg width="120" height="120" viewBox="0 0 120 120" xmlns="http://www.w3.org/2000/svg" xmlns:xlink="http://www.w3.org/1999/xlink"><defs><path id="a" d="M0 .82h91.447v118.257H0z"/></defs><g fill="none" fill-rule="evenodd"><g transform="translate(14 .103)"><mask id="b" fill="#fff"><use xlink:href="#a"/></mask><path d="M89.87 4.922a7.167 7.167 0 0 0-5.633-2.716c-.858 0-1.708.157-2.506.455a7.18 7.18 0 0 0-3.936-1.168c-1.89 0-3.68.733-5.041 2.064a6.771 6.771 0 0 0-.945 1.163c-2.505-2.43-5.881-3.9-9.563-3.9-.789 0-1.586.07-2.37.208-5.768 1.014-10.13 5.523-11.16 11.175a38.042 38.042 0 0 0-.562-.003c-4.707 0-8.118.685-8.882.854-1.147.148-7.992 1.175-15.335 5.254-2.603-2.842-6.311-4.533-10.163-4.533-.79 0-1.586.07-2.369.208C3.906 15.303-1.115 22.577.213 30.2c.683 3.925 2.934 7.301 6.179 9.406-1.274 4.163-1.896 8.708-1.85 13.547-.02 1.091.107 11.67 11.467 17.559.022.518.196 1.03.528 1.47l3.315 4.39c-.26.36-.519.729-.778 1.103-2.264 3.268-3.032 7.395-2.107 11.323.902 3.835 3.338 7.09 6.685 8.93 2.168 1.192 4.277 2.056 6.271 2.57l-.918 12.383a5.887 5.887 0 0 0 1.536 4.437c1.052 1.134 2.469 1.76 3.988 1.76h10.023c2.241 0 4.197-1.402 5.066-3.424.867 2.022 2.823 3.423 5.065 3.423h10.022c1.52 0 2.937-.625 3.99-1.76a5.895 5.895 0 0 0 1.536-4.436l-1.45-19.533c.4-.197.796-.405 1.188-.62a13.457 13.457 0 0 0 5.014-4.839c3.579-4.799 3.702-11.557.285-16.489a82.738 82.738 0 0 0-2.773-3.761l1.381-2.413c.105-.185.186-.377.243-.572 8.498-5.331 11.257-11.68 12.045-16.203.878-5.03-.456-8.909-.681-9.512a48.473 48.473 0 0 0-1.964-4.808l1.34-1.348c2.442-2.455 2.442-6.45 0-8.904a6.23 6.23 0 0 0-4.447-1.85 6.26 6.26 0 0 0-2.591.556 6.238 6.238 0 0 0-2.91-.532 31.68 31.68 0 0 0-.488-.45 14.122 14.122 0 0 0 1.371-3.803l.932 1.168a4.48 4.48 0 0 0 3.521 1.697 4.519 4.519 0 0 0 2.825-.997l5.683-4.583c3.095-2.493 3.596-7.053 1.115-10.163" fill="#000" mask="url(#b)"/></g><path d="M44.036 94.291l6.831-20.23-5.414-7.904s-4.234 4.248-8.317 10.14c-3.81 5.498-2.092 13.237 3.611 16.414a28.592 28.592 0 0 0 3.29 1.58" fill="#222"/><path d="M45.973 77.718a11.23 11.23 0 0 0-2.083-1.57c-1.67-.985-3.333-1.352-4.806-1.062a5.18 5.18 0 0 0-1.474.536c-.157.223-.315.447-.473.675-.4.575-.734 1.177-1.014 1.794.91-1.196 1.955-1.916 3.124-2.147 3.076-.61 6.082 2.361 6.113 2.39l.613-.616z" fill="#6D6D6D"/><path d="M80.217 90.988l-6.83-20.23 5.414-7.904s4.234 4.248 8.316 10.14c3.81 5.498 2.093 13.238-3.61 16.414a28.592 28.592 0 0 1-3.29 1.58" fill="#222"/><path d="M78.281 74.415c.033-.034.842-.84 2.083-1.57 1.67-.985 3.333-1.351 4.806-1.061a5.181 5.181 0 0 1 1.474.536c.157.222.315.446.473.674.4.576.734 1.177 1.013 1.794-.91-1.196-1.955-1.916-3.123-2.147-3.076-.61-6.082 2.361-6.113 2.392l-.613-.618z" fill="#6D6D6D"/><path d="M68.683 116.564h10.022c1.707 0 3.052-1.561 2.916-3.387l-3.488-47.02H49.101l-3.487 47.02c-.137 1.826 1.208 3.387 2.915 3.387h10.023c1.539 0 2.814-1.278 2.92-2.925l.158-7.568c.072-1.121.94-1.991 1.988-1.991 1.046 0 1.915.87 1.986 1.991l.16 7.568c.104 1.647 1.38 2.925 2.919 2.925" fill="#222"/><path d="M78.946 79.109c-6.286-5.01-15.404-4.389-15.404-4.389s-8.974-.613-15.254 4.268l-1.27 16.293c.619-.453 1.28-.732 1.967-.732 3.716 0 3.79 3.81 6.91 6.085 3.121 2.274 6.294 2.002 7.647 2.002 1.352 0 4.525.272 7.646-2.002 3.12-2.275 3.195-6.085 6.91-6.085.745 0 1.457.329 2.12.85l-1.272-16.29z" fill="#FFF"/><path d="M52.554 91.437a7.38 7.38 0 0 1-5.074-2.027l-.15 1.918a8.872 8.872 0 0 0 5.224 1.702h22.142a8.876 8.876 0 0 0 5.209-1.689l-.149-1.916a7.382 7.382 0 0 1-5.06 2.012H52.554z" fill="#BBB"/><path d="M65.369 71.867l-1.109-.653a1.284 1.284 0 0 0-1.309 0l-1.107.653-1.11.654a1.347 1.347 0 0 0-.654 1.156v2.612a1.347 1.347 0 0 0 .654 1.155l1.11.654 1.107.652a1.286 1.286 0 0 0 1.31 0l1.108-.652 1.108-.654a1.33 1.33 0 0 0 .654-1.155v-2.613a1.324 1.324 0 0 0-.654-1.156l-1.108-.653z" fill="#0BF"/><path d="M65.132 73.043a.381.381 0 0 0-.275.114l-1.117 1.14a.187.187 0 0 1-.269 0l-1.117-1.14a.376.376 0 0 0-.275-.114.39.39 0 0 0-.374.397v3.084c0 .21.161.389.367.397a.384.384 0 0 0 .393-.387v-1.932c0-.087.103-.13.163-.069l.71.723a.37.37 0 0 0 .537 0l.709-.723c.06-.062.162-.018.162.069v1.922c0 .21.16.389.366.397a.384.384 0 0 0 .394-.387V73.44a.39.39 0 0 0-.374-.397" fill="#FFF"/><path d="M87.317 13.018c1.082 6.213-2.979 12.12-9.068 13.191-6.09 1.072-11.905-3.097-12.987-9.31C64.18 10.685 68.24 4.78 74.33 3.708c6.09-1.072 11.904 3.096 12.987 9.31M38.845 25.973c1.083 6.213-2.978 12.12-9.067 13.192-6.092 1.072-11.905-3.097-12.988-9.31-1.081-6.214 2.979-12.12 9.069-13.192 6.09-1.072 11.904 3.097 12.986 9.31" fill="#222"/><path d="M97.023 39.934C85.928 8 53.722 15.737 53.722 15.737s-32.909 3.71-32.565 37.534c0 0-.852 24.844 42.102 17.292 42.953-7.551 33.764-30.63 33.764-30.63" fill="#FFF"/><path d="M63.838 51.74c-.65.247-1.563.424-2.402-.012a.162.162 0 0 0-.212.056c-.5.75-1.324 1.047-1.995 1.16.04.3.115.606.23.908.619 1.62 2.135 2.542 3.39 2.059 1.252-.484 1.768-2.19 1.15-3.81a4.27 4.27 0 0 0-.16-.36" fill="#FABCAE"/><path d="M63.838 51.74c-.65.247-1.563.424-2.402-.012a.162.162 0 0 0-.212.056c-.5.75-1.324 1.047-1.995 1.16.04.3.115.606.23.908.619 1.62 2.135 2.542 3.39 2.059 1.252-.484 1.768-2.19 1.15-3.81a4.27 4.27 0 0 0-.16-.36z" stroke="#222" stroke-width=".943" stroke-linecap="round" stroke-linejoin="round"/><path d="M64.82 51.455s.065-.08.017-.147c-.048-.066-.114-.013-.114-.013s-1.767 1.223-3.287.434a.164.164 0 0 0-.212.054C60.272 53.213 58.138 53 58.138 53s-.083-.014-.094.068c-.01.08.085.12.085.12" fill="#222"/><path d="M64.82 51.455s.065-.08.017-.147c-.048-.066-.114-.013-.114-.013s-1.767 1.223-3.287.434a.164.164 0 0 0-.212.054C60.272 53.213 58.138 53 58.138 53s-.083-.014-.094.068c-.01.08.085.12.085.12" stroke="#1A1A1A" stroke-width=".943" stroke-linecap="round" stroke-linejoin="round"/><path d="M70.374 15.622a42.944 42.944 0 0 0-.847-.148c1.437 7.316 3.567 21.82-.124 25.186-4.936 4.5-16.427 7.83-23.2 6.72-2.62-.43-5.852-4.933-9.344-13.023-1.503-3.483-2.752-6.947-3.563-9.326-.225.193-.448.39-.672.591 2.352 6.88 8.018 21.692 13.457 22.583 3.481.57 8.177 0 12.638-1.293 4.463-1.293 8.692-3.31 11.234-5.628 4.089-3.728 1.88-18.242.42-25.662" fill="#E1E1E1"/><path d="M39.617 37.496a8.9 8.9 0 0 0-1.46.522l-.01.004a8.79 8.79 0 0 0-1.286.731c-8.76 5.432-8.62 16.48-8.62 16.48a9.21 9.21 0 0 0 .284 2.551c1.238 4.832 6.081 7.756 10.817 6.53l6.7-1.734c4.737-1.226 7.573-6.138 6.335-10.97l-1.942-7.584c-1.238-4.833-6.081-7.756-10.818-6.53" fill="#222"/><path d="M40.088 51.667c-.327-1.182-.183-2.411.232-3.529.426-1.101 1.17-2.205 2.425-2.754a3.229 3.229 0 0 1 2.03-.176c.685.166 1.275.546 1.743.987.93.903 1.496 2.015 1.846 3.19a.871.871 0 1 1-1.686.431c-.205-.941-.62-1.878-1.232-2.553-.613-.678-1.41-.974-2.234-.685-.815.272-1.508 1.066-1.92 1.965-.413.903-.605 1.956-.405 2.92l.002.01a.411.411 0 0 1-.32.488.414.414 0 0 1-.481-.294" fill="#FFF"/><path d="M63.091 43.985c-.414-1.442-1.908-2.287-3.322-1.878l-3.088.896c-1.414.409-2.232 1.924-1.818 3.366l.028.1a2.737 2.737 0 0 0 1.287 1.635l.994.57.978.552a2.662 2.662 0 0 0 2.058.244 2.675 2.675 0 0 0 1.613-1.307l.535-.99.54-1.017c.33-.61.431-1.35.224-2.07l-.029-.101z" fill="#222"/><path fill="#F9E9C7" d="M73.472 109.489l-22.706 2.862 3.182-13.418-21.324-28.226 24.54-25.465 28.44 18.787-18.603 32.513z"/><path d="M37.69 73.153c2.853 9.379 8.26 16.031 12.077 14.857 3.817-1.173 4.597-9.727 1.744-19.107-2.853-9.378-8.261-16.03-12.076-14.856-3.817 1.173-4.598 9.728-1.745 19.106" fill="#009936"/><path d="M47.369 65.135c.233 10.75 3.655 19.396 7.646 19.308 3.99-.088 7.035-8.873 6.803-19.624-.233-10.75-3.656-19.395-7.645-19.308-3.99.087-7.037 8.874-6.804 19.624" fill="#009936"/><path d="M58.753 65.723c-1.333 9.715.791 18.036 4.745 18.584 3.953.548 8.24-6.883 9.572-16.6 1.333-9.715-.792-18.036-4.745-18.583-3.954-.55-8.24 6.883-9.572 16.599" fill="#009936"/><path d="M63.345 67.963c-5.986 7.744-8.285 16.018-5.134 18.48 3.151 2.462 10.56-1.82 16.545-9.564 5.987-7.744 8.286-16.017 5.134-18.48-3.151-2.462-10.559 1.82-16.545 9.564" fill="#009936"/><path stroke="#1E1C20" stroke-width=".645" d="M57.268 54.149l-1.702 2.2-2.19-1.71"/><path d="M54.806 54.258a1.492 1.492 0 0 1-1.289 1.668 1.488 1.488 0 0 1-1.659-1.297 1.49 1.49 0 0 1 1.289-1.667 1.487 1.487 0 0 1 1.659 1.296m4.164-1.027a1.493 1.493 0 0 1-1.29 1.668 1.487 1.487 0 0 1-1.658-1.296 1.492 1.492 0 0 1 1.289-1.668 1.487 1.487 0 0 1 1.659 1.296" fill="#E73F10"/><path stroke="#1E1C20" stroke-width=".645" d="M57.49 57.532l-1.702 2.201-2.19-1.711"/><path d="M55.028 57.641a1.493 1.493 0 0 1-1.288 1.668 1.487 1.487 0 0 1-1.659-1.296 1.492 1.492 0 0 1 1.289-1.668 1.487 1.487 0 0 1 1.658 1.296m4.164-1.026a1.493 1.493 0 0 1-1.288 1.668 1.488 1.488 0 0 1-1.66-1.297 1.49 1.49 0 0 1 1.29-1.667 1.487 1.487 0 0 1 1.658 1.296" fill="#E73F10"/><path stroke="#1E1C20" stroke-width=".645" d="M58.08 60.668l-1.701 2.201-2.189-1.71"/><path d="M55.619 60.778a1.491 1.491 0 0 1-1.289 1.667 1.487 1.487 0 0 1-1.658-1.296 1.49 1.49 0 0 1 1.288-1.667 1.487 1.487 0 0 1 1.659 1.296m4.164-1.027a1.493 1.493 0 0 1-1.289 1.668 1.488 1.488 0 0 1-1.659-1.296 1.492 1.492 0 0 1 1.289-1.668 1.487 1.487 0 0 1 1.659 1.296" fill="#E73F10"/><path stroke="#1E1C20" stroke-width=".645" d="M56.776 66.05l-.395-3.16-.59-3.137-.223-3.383m14.391 3.561l-2.471 1.265-1.257-2.485"/><path d="M67.686 58.978a1.484 1.484 0 0 1-1.872.957 1.494 1.494 0 0 1-.954-1.882 1.484 1.484 0 0 1 1.873-.957 1.495 1.495 0 0 1 .953 1.882m4.201.852a1.483 1.483 0 0 1-1.87.958 1.495 1.495 0 0 1-.954-1.882 1.484 1.484 0 0 1 1.873-.959 1.495 1.495 0 0 1 .951 1.883" fill="#E73F10"/><path stroke="#1E1C20" stroke-width=".645" d="M68.729 63.088l-2.471 1.265L65 61.868"/><path d="M66.455 62.135a1.484 1.484 0 0 1-1.872.958 1.495 1.495 0 0 1-.953-1.882 1.484 1.484 0 0 1 1.873-.958 1.495 1.495 0 0 1 .952 1.882m4.202.851a1.483 1.483 0 0 1-1.872.959 1.495 1.495 0 0 1-.953-1.883 1.484 1.484 0 0 1 1.873-.958 1.496 1.496 0 0 1 .952 1.882" fill="#E73F10"/><path stroke="#1E1C20" stroke-width=".645" d="M67.936 66.18l-2.472 1.264-1.257-2.485"/><path d="M65.662 65.226a1.483 1.483 0 0 1-1.872.957 1.495 1.495 0 0 1-.953-1.882 1.484 1.484 0 0 1 1.873-.957 1.495 1.495 0 0 1 .952 1.882m4.202.851a1.483 1.483 0 0 1-1.872.959 1.497 1.497 0 0 1-.953-1.883 1.485 1.485 0 1 1 2.825.924" fill="#E73F10"/><path stroke="#1E1C20" stroke-width=".645" d="M64.478 70.492l.98-3.03.794-3.09 1.23-3.157"/><path d="M54.941 90.673L48.66 72.402" stroke="#81421B" stroke-width=".872"/><path fill="#AD6D3F" d="M73.472 109.489l-22.706 2.862 3.182-13.418-21.324-28.226 24.554 10.329 28.427-17.007L67 96.542z"/><path fill="#AD6D3F" d="M57.154 81.086l28.374-17.095-18.503 32.572 6.51 12.926-11.694 3.824z"/><path fill="#985C31" d="M68.09 98.778l-15.536 1.958-.35-2.803 16.183-3.26z"/><path d="M53.275 59.922c-.25-.617-.848-1.008-1.58-1.136.076-.743-.136-1.428-.66-1.836-.523-.409-1.235-.446-1.932-.19-.305-.68-.828-1.167-1.484-1.258-.658-.092-1.292.235-1.77.807-.6-.436-1.297-.595-1.91-.344-.614.251-1.002.854-1.13 1.589-.74-.075-1.42.136-1.826.663-.408.526-.444 1.242-.19 1.943-.676.306-1.16.833-1.251 1.492-.09.66.234 1.3.803 1.778-.434.606-.591 1.305-.342 1.922.25.617.848 1.007 1.58 1.136-.074.742.136 1.427.66 1.836.523.408 1.236.445 1.932.19.305.68.83 1.167 1.486 1.258.656.091 1.291-.235 1.767-.807.602.436 1.298.594 1.912.342.614-.25 1.002-.852 1.13-1.586.738.074 1.42-.139 1.826-.665.407-.525.444-1.242.19-1.942.676-.307 1.16-.833 1.25-1.493.091-.66-.234-1.299-.801-1.778.432-.605.59-1.305.34-1.921" fill="#FBB03B"/><path d="M64.581 66.225c-.25-.617-.848-1.007-1.58-1.136.075-.743-.136-1.428-.66-1.836-.522-.41-1.235-.445-1.932-.19-.305-.68-.828-1.166-1.485-1.258-.656-.091-1.291.236-1.768.807-.602-.436-1.298-.595-1.911-.343-.614.25-1.002.852-1.13 1.587-.74-.074-1.42.138-1.827.664-.407.526-.443 1.242-.188 1.943-.677.306-1.161.834-1.253 1.493-.09.66.235 1.298.804 1.777-.434.606-.591 1.306-.342 1.922.25.617.85 1.007 1.58 1.137-.074.74.136 1.427.66 1.836.523.408 1.235.445 1.933.189.305.68.828 1.167 1.485 1.258.656.091 1.29-.234 1.767-.807.602.436 1.298.594 1.912.343.614-.251 1.001-.852 1.13-1.587.74.075 1.42-.139 1.826-.665.407-.525.444-1.241.19-1.942.675-.306 1.16-.833 1.25-1.492.092-.66-.233-1.3-.802-1.778.434-.606.591-1.306.341-1.922" fill="#FFF3F5"/><path d="M55.535 70.4a3.46 3.46 0 0 0-2.147-2.79 3.444 3.444 0 0 0-3.662-2.242 3.413 3.413 0 0 0-1.476.554 3.405 3.405 0 0 0-1.708-.223 3.456 3.456 0 0 0-2.996 3.063 3.47 3.47 0 0 0 .566 6.205 3.445 3.445 0 0 0 3.736 2.473 3.408 3.408 0 0 0 1.758-.765 3.41 3.41 0 0 0 1.644.197 3.456 3.456 0 0 0 3.013-3.336 3.465 3.465 0 0 0 1.272-3.137" fill="#E73F10"/><path d="M49.231 68.872a.807.807 0 0 1-.697.902.807.807 0 1 1-.2-1.602.805.805 0 0 1 .897.7m-2.489 2.755a.807.807 0 0 1-.697.902.807.807 0 1 1-.2-1.602.804.804 0 0 1 .897.7m5.578-.703a.807.807 0 0 1-.697.901.807.807 0 1 1-.2-1.602.805.805 0 0 1 .897.7m-1.294 2.604a.807.807 0 0 1-.697.902.807.807 0 1 1-.2-1.602c.44-.056.84.258.897.7m-1.992.251a.807.807 0 0 1-.697.902.807.807 0 1 1-.2-1.602.804.804 0 0 1 .897.7" fill="#FFF"/><path stroke="#FFF" stroke-width=".436" d="M48.434 68.973l.35 2.803 2.74-.752m-1.294 2.604l-1.445-1.852-.548 2.103m-2.117-2.025l2.838.049"/><path d="M74.217 71.672a4.427 4.427 0 0 0-2.747-3.568c-.691-1.894-2.607-3.132-4.684-2.87-.7.088-1.339.34-1.889.708a4.373 4.373 0 0 0-2.188-.283c-2.066.261-3.615 1.922-3.83 3.917a4.44 4.44 0 0 0 .723 7.939c.593 2.06 2.597 3.44 4.78 3.165a4.374 4.374 0 0 0 2.25-.978 4.38 4.38 0 0 0 2.103.252c2.188-.276 3.794-2.12 3.854-4.269a4.436 4.436 0 0 0 1.628-4.013" fill="#E73F10"/><path d="M66.152 69.718a1.033 1.033 0 0 1-.891 1.154 1.03 1.03 0 0 1-1.148-.897 1.032 1.032 0 0 1 .892-1.153 1.029 1.029 0 0 1 1.147.896m-3.185 3.524a1.032 1.032 0 0 1-.891 1.154 1.029 1.029 0 0 1-1.147-.897 1.032 1.032 0 0 1 .892-1.153 1.028 1.028 0 0 1 1.146.896m7.136-.899a1.032 1.032 0 0 1-.891 1.153 1.028 1.028 0 0 1-1.148-.896 1.032 1.032 0 0 1 .892-1.153 1.029 1.029 0 0 1 1.147.896m-1.656 3.331a1.032 1.032 0 0 1-.891 1.154 1.029 1.029 0 0 1-1.147-.898 1.032 1.032 0 0 1 .892-1.153 1.028 1.028 0 0 1 1.146.897m-2.547.321a1.033 1.033 0 0 1-.892 1.154 1.03 1.03 0 0 1-1.147-.897 1.032 1.032 0 0 1 .892-1.153 1.029 1.029 0 0 1 1.147.896" fill="#FFF"/><path stroke="#FFF" stroke-width=".558" d="M65.133 69.847l.447 3.586 3.504-.962m-1.655 3.331l-1.85-2.368-.699 2.69m-2.71-2.591l3.633.063"/><path d="M35.378 27.56c-.02.01-.037.022-.055.032l-.001-.001-3.386 1.955a1.309 1.309 0 0 0-.562 1.769 1.32 1.32 0 0 0 1.766.592l3.588-1.55v-.001c.02-.01.041-.017.061-.027a1.535 1.535 0 0 0 .661-2.074c-.39-.765-1.318-1.076-2.072-.694m39.499-7.037a1.3 1.3 0 0 0-1.51-1.07l-3.873.493v.002l-.063.008c-.83.154-1.384.965-1.236 1.81.148.847.94 1.408 1.77 1.254.023-.004.045-.011.066-.016l.001.002 3.791-.94a1.33 1.33 0 0 0 1.054-1.543m-2.887 8.593a8.752 8.752 0 0 1 1.529-.252h.006a8.53 8.53 0 0 1 1.483.014c10.278.503 15.464 10.245 15.464 10.245h-.001a9.12 9.12 0 0 1 .977 2.372c1.238 4.832-1.598 9.744-6.335 10.97l-6.7 1.734c-4.736 1.226-9.579-1.697-10.817-6.53l-1.942-7.584c-1.238-4.832 1.598-9.744 6.335-10.97" fill="#222"/><path d="M77.427 40.889c-.478-.86-1.312-1.53-2.214-1.939-.9-.408-1.943-.547-2.731-.212-.808.33-1.215 1.08-1.234 1.995-.02.911.276 1.892.736 2.738a.872.872 0 1 1-1.56.775c-.5-1.119-.796-2.33-.686-3.618.065-.64.26-1.31.665-1.885.401-.579 1.001-1 1.637-1.21 1.306-.42 2.596-.079 3.64.472 1.047.572 1.962 1.408 2.485 2.517a.411.411 0 0 1-.733.377l-.005-.01z" fill="#FFF"/><path d="M52.218 85.36l-16.165-7.263c-.276.383-.552.773-.828 1.172-3.819 5.51-2.046 13.317 3.688 16.47 1.88 1.034 3.807 1.858 5.719 2.344 6.039 1.536 9.046-1.54 10.54-4.789 1.382-3.003-.011-6.612-2.954-7.934m17.185-5.2l16.165-7.263c.276.382.552.773.828 1.171 3.818 5.512 2.045 13.318-3.688 16.47-1.882 1.034-3.808 1.859-5.72 2.345-6.038 1.535-9.045-1.54-10.54-4.789-1.382-3.003.012-6.612 2.955-7.934" fill="#222"/><path d="M45.215 82.214l-1.498-.673c-1.952.479-4.586 1.862-6.183 4.112-1.395 1.964-2.34 5.043.028 9.2.423.324.872.622 1.35.885.135.075.272.146.408.218-2.673-3.65-3.051-7.02-1.08-9.795 1.952-2.75 5.612-4.07 6.975-3.947m30.453-4.984l1.498-.672c1.951.48 4.586 1.861 6.184 4.113 1.395 1.963 2.339 5.043-.03 9.198-.422.324-.87.623-1.35.886-.134.074-.27.145-.406.217 2.672-3.65 3.05-7.019 1.08-9.794-1.953-2.75-5.613-4.07-6.976-3.947" fill="#6D6D6D"/><path d="M97.003 25.828a3.652 3.652 0 0 0-5.177-.007 3.654 3.654 0 0 0-5.422.277c-1.219 1.484-.998 3.694.354 5.055l4.002 4.023c.59.592 1.544.592 2.134-.001l4.11-4.134a3.7 3.7 0 0 0 0-5.213m4.821-18.929a4.58 4.58 0 0 0-6.45-.723 4.58 4.58 0 0 0-6.792-.403c-1.72 1.682-1.747 4.464-.247 6.347l4.436 5.562c.652.819 1.842.95 2.657.294l5.684-4.583a4.637 4.637 0 0 0 .712-6.494" fill="#E73F10"/></g></svg>