<svg width="76" height="71" viewBox="-1 -1 76 71" xmlns="http://www.w3.org/2000/svg"><path fill="none" stroke="#FFDB5D" stroke-width="1.05" d="M35.344 49.082L54.66 69.676m8.75 0c-2.158 0-2.158-2.112-4.316-2.112s-2.158 2.112-4.315 2.112c-2.16 0-2.16-2.112-4.318-2.112-2.16 0-2.16 2.112-4.319 2.112"/><path fill="#FFF4E3" d="M45.184 50.314v7.934c0 1.1-1.316 1.65-2.087.873l-8.203-8.279 10.29-.528z"/><path fill="none" stroke="#FFDB5D" stroke-width="1.05" d="M30.713 56.821V69.67m8.751 0c-2.159 0-2.159-2.112-4.317-2.112-2.158 0-2.158 2.112-4.315 2.112-2.159 0-2.159-2.112-4.318-2.112s-2.159 2.112-4.318 2.112"/><path fill="#FFF4E3" d="M29.537 50.308v7.934c0 1.1 1.317 1.65 2.087.873l8.204-8.279-10.291-.528z"/><path fill="#FFF4E3" d="M69.332 21.171c0 18.017-14.473 32.622-32.326 32.622S4.68 39.188 4.68 21.171h64.652z"/><path fill="#FFF4E3" d="M13.27 29.84l12.531-.994c.161-1.088.245-2.2.245-3.333 0-12.379-9.943-22.414-22.209-22.414-1.243 0-2.462.109-3.65.307l7.197 7.262H.116l5.727 5.78H0L13.27 29.84zm57.195-14.317l-1.7 11.75-19.012-5.941s6.105-14.434 18.14-14.434l2.572 8.625z"/><path fill="#F3E4CE" d="M57.703 21.171c0 11.536-9.266 20.888-20.697 20.888-8.265 0-15.399-4.89-18.716-11.958h12.495l-13.692-8.93h40.61z"/><path fill="#E8441D" d="M74.17 11.7c0 3.334-2.678 6.036-5.981 6.036-3.304 0-5.982-2.702-5.982-6.036 0-3.334 2.678-6.036 5.982-6.036 3.303 0 5.981 2.702 5.981 6.036"/><path fill="#CE2235" d="M72.535 17.967c0 2.448-1.967 4.434-4.394 4.434-2.426 0-4.392-1.986-4.392-4.434 0-2.448 1.966-4.434 4.392-4.434 2.427 0 4.394 1.986 4.394 4.434"/><path fill="#FFF4E3" d="M67.025 11.7c0 1.515-1.216 2.742-2.717 2.742-1.501 0-2.718-1.227-2.718-2.742s1.217-2.743 2.718-2.743 2.717 1.228 2.717 2.743"/><path fill="#17242D" d="M66.081 11.7a1.78 1.78 0 0 1-1.773 1.789c-.98 0-1.774-.8-1.774-1.789 0-.989.794-1.79 1.774-1.79.979 0 1.773.801 1.773 1.79"/><path fill="#FFF4E3" d="M74.751 11.7c0 1.515-1.217 2.742-2.718 2.742s-2.718-1.227-2.718-2.742 1.217-2.743 2.718-2.743 2.718 1.228 2.718 2.743"/><path fill="#17242D" d="M73.806 11.7a1.78 1.78 0 0 1-1.773 1.789c-.98 0-1.774-.8-1.774-1.789 0-.989.794-1.79 1.774-1.79.979 0 1.773.801 1.773 1.79"/><path fill="none" stroke="#CE2235" stroke-width=".7" stroke-linecap="round" d="M68.181 11.135V.75"/><path fill="#FFDB5D" d="M70.303 14.304l-1.051-2.487c-.402-.949-1.735-.947-2.135.003l-1.043 2.484h4.229z"/></svg>