<svg width="114" height="98" viewBox="0 0 114 98" xmlns="http://www.w3.org/2000/svg"><g fill="none" fill-rule="evenodd"><path d="M43.223 96.898c3.527.81 28.814 0 28.814 0s2.279-1.677 1.465-3.894c-.814-2.217-4.895-1.257-6.686-.932-1.79.324-10.516 1.743-10.516 1.743s12.535-5.679 10.69-15.576c-1.845-9.898-9.767-8.87-16.388-3.57" fill="#D9E2F3"/><path d="M43.223 96.898c3.527.81 28.814 0 28.814 0s2.279-1.677 1.465-3.894c-.814-2.217-4.895-1.257-6.686-.932-1.79.324-10.516 1.743-10.516 1.743s12.535-5.679 10.69-15.576c-1.845-9.898-9.767-8.87-16.388-3.57" stroke="#738CB5" stroke-width=".5"/><path d="M70.032 93.038c-.007-.001.08.02.2.071.123.05.291.129.476.253.187.12.386.294.557.512.088.109.163.23.225.363.071.125.103.273.149.408.017.144.058.285.052.425-.007.14.01.278-.02.407a3.351 3.351 0 0 1-.161.691c-.057.199-.144.35-.186.461l-.075.172.056-.18c.029-.115.097-.272.131-.473.042-.2.082-.431.082-.68.015-.125-.018-.252-.025-.38-.009-.128-.062-.25-.09-.374-.055-.116-.093-.238-.167-.339a1.427 1.427 0 0 0-.224-.284 1.922 1.922 0 0 0-.515-.376 1.885 1.885 0 0 0-.579-.204l.114-.473z" fill="#738CB5"/><path d="M68.713 34.703s-4.898-6.098-7.9-16.44C57.808 7.921 61.145 1.883 62.1.393c0 0 12.753 13.272 8.666 33.16" fill="#FFFEF9"/><path d="M68.713 34.703s-4.898-6.098-7.9-16.44C57.808 7.921 61.145 1.883 62.1.393c0 0 12.753 13.272 8.666 33.16" stroke="#738CB5" stroke-width=".5"/><path d="M78.666 61.635c-.081 3.164-3.555 10.798-3.555 10.798l5.997 21.41s2.035-.974 3.69-.163c1.655.811.352 3.299.352 3.299h-7.38l-9.713-22.904s1.465-2.38 1.004-5.111" fill="#D9E2F3"/><path d="M78.666 61.635c-.081 3.164-3.555 10.798-3.555 10.798l5.997 21.41s2.035-.974 3.69-.163c1.655.811.352 3.299.352 3.299h-7.38l-9.713-22.904s1.465-2.38 1.004-5.111" stroke="#738CB5" stroke-width=".5"/><path d="M82.7 94.458c-.008-.006.115.144.234.374.068.111.12.255.188.4.049.154.112.313.145.48.025.17.076.331.066.493-.005.159.021.303-.01.427l-.074.405s0-.163-.003-.407c.01-.12-.044-.258-.066-.403-.017-.148-.096-.293-.146-.44-.057-.145-.143-.28-.211-.407-.087-.119-.154-.236-.233-.321-.144-.184-.252-.27-.256-.279l.366-.322zm1.997-.253c-.006-.01.054.175.08.432.024.128.02.282.03.441-.009.162-.007.332-.038.5-.039.167-.05.337-.117.483-.062.146-.09.291-.165.395-.13.21-.215.351-.215.351l.145-.38c.052-.11.053-.257.085-.4.038-.144.016-.308.023-.462 0-.156-.032-.314-.05-.456-.037-.142-.057-.276-.1-.385-.067-.223-.136-.342-.137-.351l.459-.168z" fill="#738CB5"/><path d="M54.762 84.783c6.62-5.3 7.38-6.544 7.38-6.544 1.844 9.897-10.69 15.576-10.69 15.576s8.725-1.419 10.516-1.743c1.79-.325 5.871-1.285 6.685.932.814 2.217-1.465 3.894-1.465 3.894s-25.286.81-28.814 0c-3.527-.812-6.186-6.598-5.697-14.603.488-8.005 3.201-14.17 10.636-18.605 7.433-4.435 6.24-4.11 8.573-7.842 2.333-3.732 3.69-5.084 6.457-7.41 2.768-2.326 4.396-3.84 4.396-3.84s.588-.56-.977-5.516c-1.248-3.948 2.757-6.32 6.281-7.301 3.134-.872 5.233-.559 7.403.215 1.185.423 3.66 1.32 3.993 2.868.36 1.68-.082 1.987 1.967 3.136 2.586 1.45 2.875 1.589 2.875 1.589s-.325 1.46-.922 2.954c-.165.413-.934 2.128-4.08 2.714-2.509.467-2.974.91-4.724 1.6-1.437.566 3.486 10.613 3.215 9.424 0 0 1.085 7.68-3.907 12.98-4.993 5.3-19.1 15.522-19.1 15.522" fill="#FFFEF9"/><path d="M74.555 46.856h-1.308c5.644 12.723 2.818 23.108-11.294 30.498.19-.116.37 3.143.37 3.143s14.022-7.261 16.14-16.9c2.051-9.339-3.908-16.74-3.908-16.74" fill="#D9E2F3"/><path d="M32.873 87.896s-3.56 1.133-2.394 5.216c1.144 4.006 7.65 3.894 7.65 3.894l2.114.102" fill="#FFFEF9"/><path d="M32.873 87.896s-3.56 1.133-2.394 5.216c1.144 4.006 7.65 3.894 7.65 3.894l2.114.102" stroke="#738CB5" stroke-width=".5"/><path d="M67.677 42.976c.271 1.19 1.736 4.056 5.107 3.91 3.015-.132 3.986-1.162 6.496-1.629 3.145-.586 3.914-2.3 4.079-2.714.597-1.494.922-2.954.922-2.954s-.289-.138-2.876-1.589c-2.048-1.15-1.606-1.455-1.967-3.136-.332-1.548-2.807-2.445-3.992-2.868-2.17-.774-4.27-1.087-7.403-.215-3.524.98-7.53 3.353-6.28 7.301 1.564 4.955.976 5.517.976 5.517s-1.628 1.513-4.396 3.84c-2.767 2.325-4.124 3.677-6.457 7.409-2.333 3.732-1.14 3.407-8.574 7.842s-10.147 10.6-10.635 18.605c-.489 8.005 2.17 13.791 5.697 14.603 3.528.81 28.814 0 28.814 0s2.28-1.677 1.465-3.894c-.814-2.217-4.894-1.257-6.685-.932-1.79.324-10.516 1.743-10.516 1.743s12.534-5.679 10.69-15.576c-1.845-9.898-9.768-8.87-16.388-3.57" stroke="#738CB5" stroke-width=".5"/><path d="M74.45 46.696c0 .061 5.64 7.698 4.419 14.96-1.139 6.767-4.377 11.175-16.546 18.84" stroke="#738CB5" stroke-width=".5"/><path d="M64.284 93.033c-.008 0 .083.014.21.056.127.045.308.11.501.247.095.067.198.15.282.259.093.102.157.237.213.374.038.146.069.295.054.444.01.153-.048.29-.073.434-.044.137-.106.266-.156.395l-.202.35c-.06.117-.146.21-.213.308l-.199.267-.452.514.39-.558.166-.285c.055-.101.127-.201.172-.32l.154-.353c.034-.125.077-.25.103-.375.006-.127.046-.254.02-.372 0-.122-.04-.228-.076-.329a.905.905 0 0 0-.179-.243.893.893 0 0 0-.224-.162 1.425 1.425 0 0 0-.404-.145c-.104-.023-.15-.021-.158-.024l.071-.482zm2.15-.647c-.008 0 .098.014.25.065.154.052.374.128.605.29.115.08.238.177.34.307.111.122.189.282.256.445.047.174.086.351.07.531.014.184-.055.351-.083.526-.053.167-.127.324-.188.482-.077.15-.163.291-.24.43-.074.143-.176.26-.257.379l-.24.33-.549.636.487-.68.207-.347c.069-.125.159-.247.216-.392l.194-.433c.043-.154.098-.308.132-.463.01-.157.06-.314.03-.462a1.188 1.188 0 0 0-.09-.416 1.134 1.134 0 0 0-.224-.315 1.133 1.133 0 0 0-.28-.21 1.814 1.814 0 0 0-.508-.189c-.13-.03-.191-.03-.199-.033l.071-.481z" fill="#738CB5"/><path d="M71.394 36s2.387-1.541 3.88-.46c1.492 1.081 1.573 2.65 1.573 2.65s-1.33 1.244-2.957.433c-1.628-.812-2.496-2.624-2.496-2.624" fill="#D9E2F3"/><path d="M83.528 41.739s-.224-.77-.793-1.358c-.57-.588-.794-.913-.346-1.278.36-.294 1.342.324 1.342.324l.513.32-.716 1.992zm-8.536-6.368s-1.231-.081-1.496 1.655c-.256 1.68.984 1.81.984 1.81s1.142.32 1.5-1.234c.325-1.42-.333-2.017-.988-2.23" fill="#0F233A"/><path d="M71.394 36s2.387-1.541 3.88-.46c1.492 1.081 1.573 2.65 1.573 2.65s-1.33 1.244-2.957.433c-1.628-.812-2.496-2.624-2.496-2.624z" stroke="#0F233A" stroke-width=".5"/><path d="M65.506 34.377s-5.806-5.245-10.418-14.98C50.475 9.66 52.808 3.17 53.514 1.548c0 0 14.705 11.087 13.837 31.368" fill="#FFFEF9"/><path d="M65.235 32.052S51.777 17.07 54.328 4.685c0 0 13.565 14.981 10.907 27.367" fill="#D9E2F3"/><path d="M65.506 34.377s-5.806-5.245-10.418-14.98C50.475 9.66 52.808 3.17 53.514 1.548c0 0 14.705 11.087 13.837 31.368" stroke="#738CB5" stroke-width=".5"/><path d="M75.437 61.635c-.082 3.164-3.555 10.798-3.555 10.798l5.996 21.41s2.035-.974 3.69-.163c1.655.811.353 3.299.353 3.299h-7.38l-9.713-22.904s1.465-2.38 1.004-5.111" fill="#FFFEF9"/><path d="M75.437 61.635c-.082 3.164-3.555 10.798-3.555 10.798l5.996 21.41s2.035-.974 3.69-.163c1.655.811.353 3.299.353 3.299h-7.38l-9.713-22.904s1.465-2.38 1.004-5.111" stroke="#738CB5" stroke-width=".5"/><path d="M79.471 94.458c-.008-.006.115.144.233.374.068.111.12.255.188.4.05.154.113.313.145.48.025.17.077.331.067.493-.005.159.02.303-.011.427l-.073.405-.003-.407c.009-.12-.044-.258-.066-.403-.018-.148-.096-.293-.146-.44-.057-.145-.144-.28-.212-.407-.086-.119-.154-.236-.233-.321-.144-.184-.251-.27-.255-.279l.366-.322zm1.996-.253c-.006-.01.055.175.081.432.024.128.02.282.03.441-.01.162-.007.332-.038.5-.04.167-.05.337-.117.483-.062.146-.09.291-.166.395l-.214.351.144-.38c.052-.11.053-.257.085-.4.038-.144.017-.308.024-.462 0-.156-.033-.314-.05-.456-.037-.142-.058-.276-.1-.385-.068-.223-.137-.342-.137-.351l.458-.168z" fill="#738CB5"/></g></svg>