<svg width="120" height="120" viewBox="0 0 120 120" xmlns="http://www.w3.org/2000/svg" xmlns:xlink="http://www.w3.org/1999/xlink"><defs><path id="a" d="M.258.156h33.179v92.01H.257z"/><path id="c" d="M.208 0h23.696v20.384H.208z"/><path id="e" d="M0 .074h94.409v57.147H0z"/></defs><g fill="none" fill-rule="evenodd"><path d="M86.234 44.85a53.69 53.69 0 0 1-6.817-9.926c-2.167-4.07-3.808-8.413-6.122-12.401-2.315-3.988-5.445-7.703-9.65-9.575-1.338-.595-2.946-.976-4.224-.259-1.025.576-1.586 1.726-1.94 2.85-1.102 3.493-.991 7.692-3.692 10.158-1.457 1.33-3.45 1.848-5.325 2.45-2.976.955-5.868 2.238-8.423 4.042-1.106.781-2.174 1.693-2.782 2.905-.63 1.253-.708 2.702-.774 4.103-.08 1.705-.15 3.476.506 5.051.918 2.205 3.092 3.621 5.29 4.54 2.2.92 4.558 1.49 6.61 2.702l37.343-6.64z" fill="#E9571C"/><path d="M63.372 19.428c1.69 1.821 3.062 4.03 4.31 6.169a75.953 75.953 0 0 1 3.484 6.775c2.14 4.69 3.865 9.548 5.832 14.31.658 1.592-2.17 2.475-2.634.728a134.879 134.879 0 0 0-4.64-14.253 85.587 85.587 0 0 0-3.05-6.969c-1.108-2.235-2.41-4.347-3.586-6.54-.093-.176.14-.376.284-.22m-6.846 8.293c1.49 1.068 2.743 2.607 3.899 4.019 1.243 1.519 2.346 3.153 3.39 4.814 1.046 1.663 2.012 3.374 2.998 5.073.776 1.335 2.687 3.555 1.258 5.014-1.166 1.19-2.829-.563-1.798-1.803-.097.5-.189.572-.276.213l-.26-.583-.523-1.166c-.351-.778-.701-1.556-1.077-2.321a85.59 85.59 0 0 0-2.37-4.516 61.427 61.427 0 0 0-2.677-4.287c-.944-1.385-2.084-2.606-3.058-3.962-.207-.29.206-.701.494-.495m-10.753 5.213c1.317.108 2.563 1.28 3.575 2.054a37.377 37.377 0 0 1 3.3 2.86c2.155 2.089 4.14 4.438 5.7 7.009.775 1.277-1.185 2.406-1.988 1.165-1.546-2.389-3.163-4.695-5.07-6.812a50.302 50.302 0 0 0-2.917-2.956c-.914-.86-2.331-1.692-2.867-2.854-.089-.193.012-.487.267-.466" fill="#DC3A14"/><g transform="matrix(-1 0 0 1 33.616 11.236)"><mask id="b" fill="#fff"><use xlink:href="#a"/></mask><path d="M6.872 25.552c3.194-3.862 6.994-7.217 9.907-11.297 2.912-4.08 4.91-9.206 3.8-14.1 8.362 3.665 13.442 13.201 12.804 22.33-.639 9.129-6.467 17.485-14.315 22.155 2.884 2.324 5.617 5.007 7.125 8.394 2.374 5.335 1.371 11.472 1.044 17.304-.327 5.833.458 12.478 5.088 16.024-2.242 3.8-6.817 5.798-11.22 5.805-2.392.003-4.813-.523-6.88-1.732-2.231-1.307-3.956-3.347-5.336-5.54-4.119-6.543-5.409-14.45-6.178-22.148-.449-4.495-.754-9.009-1.446-13.476-.308-1.987-.995-3.366-1.007-5.44-.04-6.719 2.363-13.14 6.614-18.279" fill="#E9571C" mask="url(#b)"/></g><path d="M8.633 31.853a60.528 60.528 0 0 0 9.995 12.696c4.05 3.916 8.88 6.839 13.04 10.613 2.106 1.912 4.047 4.328 4.114 7.302.036 1.568-2.354 1.557-2.422 0-.144-3.293-3.006-5.71-5.301-7.716-2.675-2.338-5.52-4.467-8.087-6.929A56.027 56.027 0 0 1 8.411 31.983c-.073-.147.137-.275.222-.13" fill="#DC3A14"/><path d="M7.746 96.614c1.295-.672 2.495-1.283 3.554-2.32 1.036-1.016 1.869-2.216 2.531-3.505 1.534-2.982 2-6.366 2.267-9.67.511-6.301.548-13.2 4.953-18.23 2.151-2.457 5.46-4.459 8.754-4.726 1.663-.134 2.004 2.536.392 2.911-1.411.329-2.783.586-4.09 1.25a12.142 12.142 0 0 0-3.343 2.484c-2.122 2.24-3.198 5.228-3.846 8.196-1.355 6.197-.862 12.987-4.236 18.601-1.435 2.388-3.835 5.03-6.704 5.56-.315.058-.555-.383-.232-.551" fill="#DC3A14"/><path d="M19.332 92.635c2.637-4.671 2.643-9.93 3.574-15.075.948-5.245 3.582-9.854 8.358-12.458 1.53-.834 2.895 1.584 1.353 2.32-2.29 1.094-4.266 2.747-5.63 4.905-1.339 2.122-2.007 4.555-2.499 6.996-.945 4.688-1.136 10.094-4.468 13.844-.338.38-.929-.107-.688-.532M16.695 34.63c4.382 2.97 8.419 6.56 12.216 10.242 3.258 3.16 8.071 7.149 7.296 12.227-.205 1.341-2.203.76-2.021-.559.317-2.293-1.027-4.433-2.387-6.15-1.475-1.86-3.11-3.61-4.745-5.328-3.377-3.55-7.035-6.748-10.703-9.985-.24-.211.076-.628.344-.447m-4.841 11.508c1.595 2.191 3.54 4.308 5.728 5.92 1.923 1.417 4.09 2.338 6.334 3.11 2.178.748 4.404 1.35 6.56 2.162 2.068.779 4.375 1.725 5.912 3.372.681.729-.206 2.024-1.103 1.434-2.021-1.33-3.924-2.563-6.193-3.455-2.21-.868-4.485-1.564-6.672-2.491-2.17-.92-4.228-2.069-5.978-3.668-1.976-1.808-3.39-4.008-4.87-6.219-.118-.177.16-.332.282-.165" fill="#DC3A14"/><path d="M12.985 63.49c.285-1.405 1.719-2.751 2.767-3.63a15.993 15.993 0 0 1 4.085-2.503c3.416-1.434 7.317-1.517 10.818-.34 1.115.374.641 2.148-.489 1.777-3.199-1.05-6.586-1.067-9.773.046-1.377.48-2.67 1.19-3.84 2.06-.612.454-1.175.95-1.73 1.468-.487.453-.964 1.017-1.535 1.356-.163.096-.337-.063-.303-.234" fill="#DC3A14"/><path d="M56.538 88.383c-1.02 2.564-3.278 4.389-5.444 6.094-1.956 1.539-4.06 3.14-6.535 3.379-.873.083-1.82-.035-2.487-.605-.57-.488-.852-1.232-1.032-1.961-.499-2.023-.401-4.21-1.297-6.09-.751-1.576-2.156-2.824-2.627-4.506-.82-2.926 1.455-6.067.617-8.987l18.805 12.676z" fill="#E9571C"/><g transform="matrix(-1 0 0 1 84.04 88.46)"><mask id="d" fill="#fff"><use xlink:href="#c"/></mask><path d="M4.987 12.823c1.208 1.512 2.429 3.038 4.15 4.37a15.424 15.424 0 0 0 6.737 2.96c2.734.485 5.948.22 8.03-.923-3.186-1.927-4.911-4.65-4.642-7.324.11-1.085.53-2.157.528-3.245-.001-1.021-.378-2.034-.948-3-1.02-1.727-2.777-3.388-5.488-4.299C11.767.829 9.972.595 8.177.446 5.86.253 2.975-.657 1.55.865.624 1.853.31 2.998.222 4.123c-.24 3.11 2.573 5.954 4.765 8.7" fill="#E9571C" mask="url(#d)"/></g><g transform="matrix(-1 0 0 1 120 38.284)"><mask id="f" fill="#fff"><use xlink:href="#e"/></mask><path d="M25.467 4.289C33.438 2.247 41.649 1.303 49.852.672c8.06-.62 16.182-.944 24.214-.027 6.604.754 13.737 2.762 17.437 8.299 1.386 2.073 2.176 4.504 2.58 6.967 1.77 10.774-3.87 21.833-12.327 28.71C73.3 51.5 62.44 54.737 51.661 56.279c-7.204 1.03-14.562 1.372-21.749.227-7.187-1.145-14.22-3.834-19.894-8.404C3.949 43.213-.524 35.719.049 27.935.99 15.178 14.255 7.16 25.467 4.289" fill="#EF8222" mask="url(#f)"/></g><path d="M119.205 51.52c-.088 3.69-1.467 7.22-4.431 9.711A17.755 17.755 0 0 1 104.4 65.34a17.75 17.75 0 0 1-10.757-2.952c-2.061-1.38-3.813-3.184-5.328-5.15-1.41-1.83-2.638-3.833-3.33-6.04-1.475-4.707-.23-10.17 3.137-13.768 3.262-3.486 8.66-5.42 13.356-4.994 3.838.349 7.554 1.756 10.727 3.938 3.142 2.161 5.128 6.095 6.23 9.709.544 1.782.812 3.629.769 5.438" fill="#F5A867"/><path d="M108.318 42.488c-2.786-2.14-6.522-2.997-10.012-1.924-2.022.622-4.017 1.53-5.494 3.049-1.476 1.519-2.359 3.738-1.87 5.802.559-.16.854-.752 1.133-1.263 1.365-2.505 3.89-4.353 6.692-4.849 2.803-.496 5.825.387 7.894 2.347 2.577 2.441 3.485 6.143 3.996 9.66.169 1.164.816.555 1.276-.004.77-.935.882-2.049.833-3.221-.045-1.096-.124-2.195-.362-3.266-.58-2.609-2.09-4.799-4.086-6.331" fill="#1D1D1B"/><path d="M71.149 75.594c2.417-2.624 3.921-5.835 5.163-9.172.862-2.317 1.636-5.587-.73-7.457-1.308-1.034-3.729-1.682-5.3-2.205-4.34-1.446-9.054-1.785-13.546-.902-1.662.327-3.62 1.191-3.726 2.887-.057.892.455 1.72 1.03 2.403 1.816 2.156 4.38 3.511 6.875 4.814-2.228.512-4.74 1.241-5.74 3.302-.688 1.42-.443 3.133.168 4.587C56.92 77.607 59.64 80.297 64 79.69c2.418-.337 4.632-1.634 6.395-3.327.26-.25.511-.506.753-.768" fill="#E9571C"/><path d="M104.92 77.293c-3.136.376-6.323-.146-9.358-1.026.96 2.008 1.962 4.073 3.628 5.545.52.46 1.126.865 1.813.968.482.071.973-.01 1.448-.116 2.249-.499 4.358-1.57 6.125-3.046 1.104-.921 4.185-3.648 3.62-5.265-2.452 1.238-4.393 2.594-7.275 2.94" fill="#1D1D1B"/><path d="M81.186 86.945c-.826-.543-1.437-1.412-2.023-2.195a24.585 24.585 0 0 1-1.753-2.658 33.394 33.394 0 0 1-2.595-5.89c-1.36-4.111-1.914-8.532-1.377-12.838.158-1.263 2.124-1.33 2.027 0-.298 4.105.004 8.223 1.129 12.19a30.933 30.933 0 0 0 2.24 5.703c.462.897.941 1.789 1.464 2.653.506.838 1.148 1.643 1.506 2.558.135.344-.326.669-.618.477" fill="#E9571C"/><path d="M77.666 47.606c-.197 1.729-1.051 3.46-1.487 5.15a43.551 43.551 0 0 0-1.051 5.563c-.454 3.698-.385 7.475.095 11.167.172 1.325-2.165 1.655-2.346.318a38.523 38.523 0 0 1 .215-11.761 35.75 35.75 0 0 1 1.437-5.572c.576-1.683 1.193-3.83 2.403-5.17.235-.258.776-.07.734.305" fill="#E9571C"/></g></svg>