<svg width="120" height="120" viewBox="0 0 120 120" xmlns="http://www.w3.org/2000/svg"><g fill="none" fill-rule="evenodd"><path fill="#26A69A" d="M43.082 18.875H77.78V1H43.082z"/><path fill="#90A4AE" d="M75.186 16.799H36v104.01h48.862V16.798z"/><path fill="#FFF" d="M74.608 59.814h1.872V43.001h-1.872zm-4.103 0h1.872V43.001h-1.872zm-4.103 0h1.871V43.001h-1.871zm-4.104 0h1.872V43.001h-1.872zm-4.103 0h1.872V43.001h-1.872zm-4.103 0h1.872V43.001h-1.872zm-4.103 0h1.871V43.001h-1.87zm-4.103 0h1.871V43.001h-1.871zm-4.103 0h1.871V43.001h-1.871zm2.235 21.651h32.825v-4.13H44.018zm0 7.706h32.825v-4.13H44.018zm0 7.705h32.825v-4.13H44.018zM71.897 68.75h4.583v-5.004h-4.583zm-6.023 0h4.583v-5.004h-4.583z"/><path fill="#F9A825" d="M59.851 68.75h4.583v-5.004H59.85z"/><path fill="#FFF" d="M53.828 68.75h4.583v-5.004h-4.583z"/><path fill="#F9A825" d="M47.805 68.75h4.583v-5.004h-4.583z"/><path fill="#FFF" d="M41.783 68.75h4.582v-5.004h-4.582zm30.114-30.524h4.583v-5.004h-4.583z"/><path fill="#F9A825" d="M65.874 38.226h4.583v-5.004h-4.583z"/><path fill="#FFF" d="M59.851 38.226h4.583v-5.004H59.85zm-6.023 0h4.583v-5.004h-4.583z"/><path fill="#F9A825" d="M47.805 38.226h4.583v-5.004h-4.583z"/><path fill="#FFF" d="M41.783 38.226h4.582v-5.004h-4.582zm30.114-7.762h4.583V25.46h-4.583zm-6.023 0h4.583V25.46h-4.583zm-6.023 0h4.583V25.46H59.85z"/><path fill="#F9A825" d="M53.828 30.464h4.583V25.46h-4.583z"/><path fill="#FFF" d="M47.805 30.464h4.583V25.46h-4.583z"/><path fill="#F9A825" d="M41.783 30.464h4.582V25.46h-4.582z"/><path d="M60.43 103.73c-4.531 0-8.206 3.649-8.206 8.15v8.928h16.413v-8.929c0-4.5-3.674-8.149-8.206-8.149M48 6.917v2.842h3.309V6.917h.893v6.791h-.893v-3.184H48v3.184h-.883V6.917zm6.27 3.436c0 1.451.79 2.75 2.18 2.75 1.4 0 2.193-1.279 2.193-2.82 0-1.35-.711-2.761-2.182-2.761-1.461 0-2.192 1.34-2.192 2.83m5.307-.11c0 2.338-1.43 3.577-3.176 3.577-1.806 0-3.074-1.39-3.074-3.446 0-2.156 1.35-3.567 3.175-3.567 1.868 0 3.075 1.42 3.075 3.436m2.19-2.58h-2.08v-.745h5.063v.745h-2.09v6.046h-.893zm7.284 2.862h-2.66v2.449h2.963v.735h-3.845V6.917h3.693v.735h-2.81V9.8h2.658zm1.45-3.607h.882v6.056h2.922v.735H70.5z" fill="#FFF"/></g></svg>