<svg width="114" height="117" viewBox="0 0 114 117" xmlns="http://www.w3.org/2000/svg"><g transform="translate(13 3)" fill="none"><path d="M64.96 96.419s-.986-3.304-1.11-3.076l-1.207 5.22s-.366 1.633-.045 1.93c.218.201 1.122-1.204 1.677-2.553l.025-.06.66-1.461z" fill="#82001E"/><path d="M62.627 62.981c.301 6.749.888 31.41 1.363 37.826.108 1.457 0 2.589.306 2.585.305-.004.546-.947.683-1.827.085-.542.173-.955.33-.987.402-.08.237 3.187.86 3.103.624-.084.254-3.063 1.079-3.36.824-.297.152 2.81 1.206 2.585.294-.068.434-3.356.64-7.078.253-4.504.361-25.127.402-32.843 0 0 .22-4.817-3.399-4.922-3.62-.104-3.47 4.918-3.47 4.918z" fill="#BE0A3C"/><path d="M62.47 74.306c-.161-.08 1.81-8.992-5.092-8.992-6.901 0-6.837 38.785-5.546 43.285.503 1.766 1.207 1.204 2.478 1.297 1.27.092 2.067.136 1.608-.695-.092-.169-1.705.072-1.705.072s2.876-7.824 3.986-11.81c.55-1.98 1.081-3.983 1.528-5.99.241-1.056 3.012-16.107 2.743-17.167zm-37.793.41c.105.076 3.487 19.804 3.789 21 .402 1.566.752 3.111 1.118 4.681.595 2.55 2.316 5.845 2.18 8.455-.37.024-1.975-.145-2.18.028-1.259 1.064.479.803.877.867 1.048.09 2.103.074 3.149-.048 1.431-.169 1.15-.149 1.516-1.63.611-2.477 2.682-40.27-4.782-40.146-7.464.124-5.57 6.696-5.667 6.793z" fill="#82001E"/><path d="M20.438 68.517l-.9-.55c-3.39-2.027-4.859-3.774-6.93-7.058-2.071-3.283-3.133-6.98-4.283-10.606C7.09 46.405 5.936 37.015 4.979 37.09c-.957.076.732 3.766-.278 3.978-1.009.213-1.347-3.737-2.135-3.797-.788-.06.25 4.283-.877 4.239-.615-.024-1.094-3.32-1.584-3.12-.491.201 1.319 17.195 5.091 23.538 3.772 6.343 7.24 9.66 11.884 12.397 2.993 1.759 6.753 2.056 9.11 2.49 0 0 3.704-.322 3.024-4.276-.68-3.955-8.776-4.023-8.776-4.023z" fill="#BE0A3C"/><path d="M7.641 40.106c-.643-.217-1.118 2.184-1.118 2.184-.712.233-2.497.955-2.369 2.36.161 1.75 2.361 3.614 3.27 1.534 0-.016.865-5.861.217-6.078z" fill="#82001E"/><path d="M36.654 17.468C35.07 13.28 33.565 6.086 35.781 1.91c2.035-3.83 5.595-1.361 7.292 4.713 1.432 5.11 1.174 13.533 1.239 15.312.072 1.963-.165 3.886-.25 5.837-.068 1.646.523 4.388-.068 5.873-2.972-5.142-5.24-10.634-7.34-16.178z" fill="#82783C"/><path d="M44.03 33.57c-2.349.12-5.268-2.256-7.078-3.553-.965-.71-12.974-10.345-16.24-15.163-1.476-2.168-2.864-4.328-2.506-7.05.479-3.649 2.972-4.48 6.202-2.89 5.007 2.465 9.194 7.985 11.82 12.778 1.307 2.381 2.55 4.818 3.873 7.17 1.275 2.277 3.99 6.018 3.929 8.708z" fill="#A0AA1E"/><path d="M43.588 33.438c-.153-1.69.977-3.95 1.363-5.597.402-1.762.804-3.496 1.375-5.219a94.786 94.786 0 0 1 3.85-10.406c1.338-2.934 2.762-6.194 4.922-8.627 1.838-2.088 5.333-4.292 7.862-1.77 2.184 2.18.805 6.684.032 9.233-1.057 3.4-2.943 6.21-5.079 9.021-2.01 2.65-11.619 12.47-14.325 13.365z" fill="#A0AA1E"/><path d="M43.938 33.558c1.11-1.45 2.931-2.654 4.279-3.93 1.745-1.654 3.527-3.264 5.3-4.882 2.578-2.349 5.333-4.757 8.945-5.219 1.307-.165 3.684-.245 4.134 1.369.402 1.485-1.556 3.184-2.522 3.982a30.144 30.144 0 0 1-4.58 3.007c-.897.51-11.611 4.54-15.556 5.673zm-.258.076c-.273-4.974.306-9.856.467-14.798.016-2.577.301-5.145.852-7.663.282-1.149 1.713-5.22 3.177-2.907.845 1.329.306 4.248.254 5.729-.077 2.144-.1 4.492-.833 6.544-.482 1.333-3.651 13.111-3.917 13.095z" fill="#A0AA1E"/><path d="M43.286 94.708A19.506 19.506 0 0 1 32.174 91.3c-2.172-1.505-3.885-3.774-5.353-5.942-2.192-3.24-4.344-6.547-6.366-9.9a66.551 66.551 0 0 1-7.94-19.478c-1.254-5.565-1.648-15.83 4.139-19.27 2.964-1.77 7.356-2.783 10.714-3.473 2.908-.598 5.775-1.349 8.763-1.606 1.706-.136 3.427-.293 5.116-.028 1.299.205 1.93.92 2.867.927.181 0 1.36-.654 1.686-.734.662-.13 1.335-.203 2.01-.217 2.148-.125 4.167.217 6.274.534 5.442.803 11.18 2.874 15.44 6.451 5.313 4.46 4.448 11.285 2.976 17.424-1.609 6.76-7.356 22.128-12.87 29.58-5.513 7.45-13.078 9.156-16.344 9.14z" fill="#F01446"/><path d="M16.726 41.399s.576-1.514 3.117-2.847A18.126 18.126 0 0 1 30.2 36.874c8.233 1.265 7.207 28.347-2.606 28.347-5.317 0-8.912-2.284-10.597-7.467-1.424-4.384-2.445-11.145-.27-16.355z" fill="#F00A78"/><ellipse fill="#F04650" cx="38.022" cy="75.037" rx="1" ry="1.028"/><ellipse fill="#F04650" cx="57.193" cy="46.622" rx="1" ry="1.028"/><ellipse fill="#F04650" cx="54.036" cy="41.84" rx="1" ry="1.028"/><ellipse fill="#F04650" cx="61.106" cy="42.318" rx="1" ry="1.028"/><ellipse fill="#F04650" cx="49.636" cy="37.039" rx="1" ry="1.028"/><ellipse fill="#F04650" cx="41.404" cy="39.612" rx="1" ry="1.028"/><ellipse fill="#F04650" cx="34.651" cy="38.905" rx="1" ry="1.028"/><ellipse fill="#F04650" cx="26.097" cy="38.713" rx="1" ry="1.028"/><ellipse fill="#F04650" cx="32.158" cy="47.131" rx="1" ry="1.028"/><ellipse fill="#F04650" cx="23.503" cy="46.634" rx="1" ry="1.028"/><ellipse fill="#F04650" cx="48.357" cy="77.357" rx="1" ry="1.028"/><ellipse fill="#F04650" cx="45.184" cy="45.562" rx="1" ry="1.028"/><ellipse fill="#F04650" cx="47.477" cy="52.15" rx="1" ry="1.028"/><ellipse fill="#F04650" cx="39.687" cy="47.216" rx="1" ry="1.028"/><ellipse fill="#F04650" cx="31.052" cy="81.027" rx="1" ry="1.028"/><ellipse fill="#F04650" cx="38.022" cy="53.591" rx="1" ry="1.028"/><ellipse fill="#F04650" cx="26.133" cy="70.593" rx="1" ry="1.028"/><ellipse fill="#F04650" cx="33.014" cy="60.347" rx="1" ry="1.028"/><ellipse fill="#F04650" cx="25.683" cy="60.082" rx="1" ry="1.028"/><ellipse fill="#F04650" cx="58.363" cy="58.589" rx="1" ry="1.028"/><ellipse fill="#F04650" cx="64.722" cy="47.131" rx="1" ry="1.028"/><ellipse fill="#F04650" cx="65.349" cy="57.248" rx="1" ry="1.028"/><ellipse fill="#F04650" cx="68.752" cy="51.869" rx="1" ry="1.028"/><ellipse fill="#F04650" cx="68.949" cy="42.242" rx="1" ry="1.028"/><ellipse fill="#F04650" cx="57.068" cy="35.878" rx="1" ry="1.028"/><ellipse fill="#F04650" cx="17.503" cy="42.964" rx="1" ry="1.028"/><ellipse fill="#F04650" cx="15.761" cy="56.73" rx="1" ry="1.028"/><ellipse fill="#F04650" cx="14.016" cy="50.399" rx="1" ry="1.028"/><ellipse fill="#F04650" cx="44.247" cy="56.971" rx="1" ry="1.028"/><ellipse fill="#F04650" cx="61.75" cy="66.149" rx="1" ry="1.028"/><ellipse fill="#F04650" transform="rotate(-68.5 50.184 61.627)" cx="50.184" cy="61.627" rx="1.03" ry="1"/><ellipse fill="#F04650" cx="53.397" cy="50.399" rx="1" ry="1.028"/><ellipse fill="#F04650" cx="40.845" cy="65.763" rx="1" ry="1.028"/><ellipse fill="#F04650" cx="60.764" cy="52.447" rx="1" ry="1.028"/><ellipse fill="#F04650" cx="62.023" cy="74.844" rx="1" ry="1.028"/><ellipse fill="#F04650" cx="53.622" cy="69.24" rx="1" ry="1.028"/><ellipse fill="#F04650" cx="28.474" cy="53.655" rx="1" ry="1.028"/><ellipse fill="#F04650" cx="21.452" cy="52.238" rx="1" ry="1.028"/></g></svg>