<svg width="120" height="120" viewBox="0 0 120 120" xmlns="http://www.w3.org/2000/svg" xmlns:xlink="http://www.w3.org/1999/xlink"><defs><path id="a" d="M.436.37H95.12v115.908H.436z"/><path id="c" d="M.014.463h63.298v64.97H.014z"/></defs><g fill="none" fill-rule="evenodd"><g transform="translate(24.578 2.353)"><mask id="b" fill="#fff"><use xlink:href="#a"/></mask><path d="M79.986 25.476c2.521 1.121 15.14 2.442 15.134 5.32-.01 4.49-5.392 5.172-15.134 7-7.183 1.347-33.629 7.28-38.953 21.838-5.324 14.56 2.801 31.64 19.335 36.118 0 0 1.267-8.65 6.9-11.48 6.132-3.079 16.08-2.36 16.08-2.36s-24.8 19.159 4.226 28.912c0 0-7.308 6.766-16.135 5.226-8.828-1.54-9.107-8.96-11.91-10.08 0 0-29.986-.7-44.56-16.937C.399 72.793-3.524 44.795 4.603 25.198 13.09 4.732 45.517-3.36 62.612 1.958c17.094 5.32 17.374 23.518 17.374 23.518" fill="#6ED4E5" mask="url(#b)"/></g><g transform="translate(56.386 32.686)"><mask id="d" fill="#fff"><use xlink:href="#c"/></mask><path d="M.165 39.941C.913 55.247 18.1 65.884 28.561 65.42 12.027 60.939 3.9 43.86 9.226 29.3 14.55 14.74 40.996 8.81 48.179 7.461 57.92 5.635 63.302 4.952 63.313.463c0 0-66.885 1.028-63.148 39.478" fill="#D2FBFF" mask="url(#d)"/></g><path d="M38.164 23.103s-8.278-5.105-21.152-2.775C5.898 22.338-1.297 36.268.196 38.19c1.448 1.867 15.806-6.552 29.984 8.548m34.531-1.903s7.3 2.83 12.053 12.223c4.107 8.105-1.35 19.484-3.31 19.46-1.905-.021-3.464-13.321-20.055-15.082" fill="#6ED4E5"/><path d="M89.407 29.4c.164.244.316.457.457.64.108.201.208.368.297.5.178.264.311.392.39.368.08-.022.106-.195.07-.53a7.124 7.124 0 0 0-.105-.624 14.446 14.446 0 0 0-.33-.835s.027-.014-.347-.482c-.169-.243-.476-.586-1.04-.984-.559-.385-1.536-.763-2.77-.488-1.202.348-1.896 1.03-2.286 1.562-.23.25-.34.51-.463.707a2.3 2.3 0 0 0-.245.507l-.21.55c-.062.34-.079.641-.1.893-.016.253.03.467.05.633.056.334.128.493.21.493.084 0 .178-.158.277-.458.057-.15.083-.34.166-.554l.272-.735.179-.466c.036-.12.1-.261.205-.424.103-.161.191-.383.381-.583.315-.442.885-.971 1.786-1.237.918-.195 1.615.07 2.047.366.432.308.682.577.82.784.308.38.288.397.289.397" fill="#317272"/></g></svg>