<svg width="220" height="280" viewBox="0 0 220 280" xmlns="http://www.w3.org/2000/svg"><g fill="none"><path d="M172.3 151.7c1-1.9 2.6-4.8 5.1-6.1l6 2.5s.6 3.4-.1 5.3c-.5 1.1-1.1 1.7-1.5 3.8-.3 1.9-4.1 4.7-5.3 3.5 0 0-1.7 1.3-2.6-.8 0 0-2 .2-2.8-1.5 0 0-1.2-.1-1.1-2.9 0-1.5.6-3.9 2.3-3.8z" fill="#FFD0AE"/><path d="M172.3 154.5c.8-1.4 1.8-1.9 2.2-1.6.9.6-.4 2.8-.9 4.1-.5 1.3.1 1.4.1 1.4.5-2.7 2.4-4.1 2.7-4 .8.2.8.8.7 1.2.7-1.1 1.7-.6 2-.3.7.8-1.3 4.8-1.3 4.8-.1.3-.4.5-.8.8-.3.1-.4-.1-.6-.3 0 0-1.7 1.3-2.6-.8 0 0-2 .2-2.8-1.5 0 0-1.2-.1-1.1-2.9 0-1.5.6-3.7 2.2-3.8.2.1.3.1.4.3.7.7.1 2-.2 2.6z" fill="#FFD0AE"/><path d="M176.8 161s-.2 0-.5-.2-.5-.7-.5-1.3c0-.6.1-1.2.3-1.9.1-.3.2-.7.3-1 .2-.3.2-.7.5-1.1.3-.3.7-.5 1.1-.6.4-.1.9-.1 1.3.4.2.2.2.5.1.7 0 .2-.1.3-.1.5l-.3.9c-.4 1-.7 1.7-.7 1.7s.1-.7.3-1.8c0-.3.1-.6.2-.9 0-.2 0-.3.1-.5 0-.1 0-.2-.1-.3-.1-.1-.4-.2-.7-.1-.3.1-.6.2-.8.4-.2.2-.3.6-.4.9-.1.3-.3.7-.4 1-.2.6-.4 1.2-.4 1.7s0 1 .2 1.2c.3.3.5.3.5.3z" fill="#BF8865"/><path d="M177.2 155.6s0-.2-.1-.4-.3-.5-.6-.5-.7.3-1 .6c-.2.2-.3.4-.5.6-.2.2-.3.5-.4.7-.1.2-.3.5-.4.7-.1.2-.2.5-.3.7-.1.5-.2 1-.1 1.4 0 .4.2.7.3 1 .1.2.2.3.2.3l-.3-.3c-.2-.2-.4-.5-.5-1-.1-.4-.2-1-.1-1.5.1-.3.1-.6.2-.8.1-.3.2-.6.3-.8.3-.5.6-1 1-1.5.2-.2.4-.4.7-.5.3-.1.6-.2.9-.1.3.1.5.3.5.5.1.2.1.4.1.5.2.2.1.4.1.4z" fill="#BF8865"/><path d="M172.1 159.6s-.2-.1-.5-.3c-.3-.3-.7-.7-.8-1.5 0-.4 0-.7.1-1.1.1-.4.3-.8.5-1.1.4-.7.9-1.5 1.4-2.2.3-.3.6-.8 1.3-.8.4 0 .6.2.8.4 0 .1.1.1.1.2s0 .1.1.2v.4c0 .5-.2.9-.4 1.2-.2.4-.3.7-.5 1-.7 1.2-1.2 1.9-1.2 1.9s.3-.8.8-2c.1-.3.2-.6.4-1 .1-.3.2-.7.2-1.1.1-.2-.3-.6-.4-.6-.2 0-.6.3-.8.6-.5.6-1 1.4-1.5 2.1-.2.4-.4.7-.5 1-.1.3-.2.7-.2 1 0 .6.2 1.1.5 1.4l.6.3z" fill="#BF8865"/><path d="M172.4 153.9v-.5c0-.3 0-.7-.1-1.1 0-.1 0-.2-.1-.2 0-.1-.1-.1-.1-.1-.1-.1-.3-.1-.4-.1-.2 0-.3.1-.4.1h-.2l.1-.1.3-.3c.1 0 .2-.1.3-.1.1 0 .2-.1.4 0 .1 0 .3.1.4.2.1.1.2.2.2.4.2.5.2 1 .1 1.3 0 .3-.1.6-.1.6l-.4-.1z" fill="#BF8865"/><path d="M178.3 155.1s2.4-6.5 4.8-2.9c.4.6 0 3.7-1.6 5.1-1.4 1.2-5.8 1.3-5.7-1.1 0-1 2.5-1.1 2.5-1.1z" fill="#FFD0AE"/><path d="M176.4 157.6s-.1 0-.3-.1c-.2-.1-.4-.3-.6-.5-.1-.1-.2-.3-.2-.5s0-.5.2-.7c.1-.1.1-.2.2-.3.1-.1.2-.1.3-.2l.6-.3c.9-.2 1.7-.2 2.4 0 .3.1.6.2.7.3.2.1.2.2.2.2s-.4-.1-1-.1-1.4.1-2.1.3c-.2 0-.4.1-.5.2-.1 0-.1.1-.2.1l-.1.1c-.2.2-.2.5-.1.8.1.3.3.5.4.6l.1.1z" fill="#BF8865"/><path d="M183.4 150.8s.1.2.2.5.1.8.1 1.4c0 .6-.1 1.2-.4 1.9-.1.4-.2.7-.4 1-.2.3-.4.7-.6 1-.1.2-.3.3-.4.5l-.5.4c-.1.1-.3.2-.5.3-.2.1-.3.2-.5.3-.4.1-.7.2-1.1.2-.3 0-.7.1-.9 0-.3-.1-.6-.1-.8-.2-.2-.1-.4-.2-.6-.2-.3-.1-.5-.2-.5-.2s.2 0 .5.1c.2 0 .4.1.6.1h.7c.3 0 .6 0 .9-.1.3 0 .6-.2.9-.3.3-.1.6-.3.8-.5l.4-.3.3-.4.6-.9c.1-.3.3-.6.4-1 .3-.6.4-1.3.5-1.8.1-.5.2-1 .2-1.3.2-.3.1-.5.1-.5zm-4.9 4.5s-.1 0-.2-.1-.2-.1-.4-.3c-.3-.3-.5-.7-.5-1.2-.1-.5 0-.9 0-1.3l.2-.6s.1.2.2.6c.1.3.1.8.2 1.2.1.4.1.8.2 1.1l.3.6z" fill="#BF8865"/><path d="M185.2 151.1s-6.7 1.9-9.9-5.3l1.3-2.7s-1.8-2.3-.6-4.9c1.1-2.7 3.2-3.9 3.6-5.7.4-1.8 5.4-10.7 6.9-13.5 4.6-8.7 14.1.2 14.2 4.1.1 3.9-3.2 7.6-3.9 9.9-.7 2.3-2.6 5.8-3.7 7.2-1.1 1.4-2.2 5.2-3.7 6.4-1.5 1.2-2.9 1.9-2.9 1.9l-1.3 2.6z" fill="#CCAD87"/><path d="M181.6 146.4s-.5-.1-1.2-.5c-.7-.3-1.8-.8-3-1.7-.6-.4-1.1-1-1.6-1.7s-.8-1.6-.7-2.6c0-.5.1-.9.3-1.4.2-.4.4-.9.6-1.3.4-.8.9-1.6 1.4-2.4.5-.8 1.1-1.5 1.5-2.3.4-.8.8-1.6 1.1-2.4.7-1.6 1.5-3.1 2.2-4.3.7-1.2 1.4-2.2 1.8-2.9.5-.7.8-1.1.8-1.1s-.2.4-.6 1.1c-.4.7-1 1.7-1.6 3-.6 1.3-1.3 2.8-2 4.4-.3.8-.7 1.7-1.1 2.5-.4.9-1 1.6-1.5 2.4-.5.8-1 1.6-1.4 2.4-.2.4-.5.8-.6 1.2-.2.4-.3.8-.3 1.2-.1.8.2 1.6.6 2.3.4.7.9 1.2 1.4 1.7 1 .9 2.1 1.5 2.8 1.9.7.4 1.1.5 1.1.5zm2.7 1.4s.4.3 1.1.4c.4.1.8.1 1.3 0s1-.3 1.5-.7c.5-.4.9-.9 1.3-1.5s.8-1.3 1.2-1.9c.4-.7.7-1.4 1-2.2.3-.8.8-1.6 1.3-2.3.9-1.4 1.8-2.9 2.5-4.3.3-.7.7-1.4.9-2.1.2-.7.6-1.4.9-1.9.6-1.2 1.2-2 1.6-2.7.4-.6.7-1 .7-1s-.2.4-.6 1c-.4.7-.9 1.6-1.4 2.8-.3.6-.5 1.2-.7 1.9-.2.7-.5 1.5-.9 2.2-.7 1.5-1.5 3-2.5 4.5-.5.7-.9 1.4-1.3 2.2-.3.8-.7 1.5-1.1 2.3-.4.7-.9 1.4-1.3 2-.4.6-.9 1.1-1.5 1.5-.5.4-1.1.6-1.7.7-.5.1-1 0-1.4-.1-.4-.1-.6-.3-.8-.4 0-.3-.1-.4-.1-.4zm1 3.3s-.2.1-.5.2-.8.2-1.4.2h-1c-.3 0-.7-.1-1.1-.1-.4-.1-.8-.2-1.1-.3-.4-.1-.7-.3-1.1-.5-.4-.2-.7-.5-1-.7-.3-.3-.6-.5-.9-.8-.2-.3-.5-.6-.7-.9-.2-.3-.4-.6-.5-.8-.3-.5-.5-1-.6-1.3-.1-.3-.2-.5-.2-.5s.1.2.3.5c.2.3.4.7.8 1.2.2.2.4.5.6.7.2.2.5.5.7.8.3.2.5.5.8.7l.9.6c.3.2.7.4 1 .5.3.1.7.3 1 .4.7.2 1.4.3 1.9.3h1.4c.5-.1.7-.2.7-.2zm3.6-20.8s.3 0 .7-.1c.2 0 .5-.1.7-.1.3 0 .5-.1.8-.1.6-.1 1.1-.2 1.5-.3.2 0 .4-.1.5-.1h.2s-.2.2-.6.4c-.2.1-.4.2-.7.3-.3.1-.6.1-.8.2-.6.1-1.2.1-1.6 0-.4-.1-.7-.2-.7-.2z" fill="#8C6C54"/><path d="M197.8 124.1c2-2.4.2-8-1.9-10s-6.9-12.7-9.3-15.8c-2.4-3.1-8.9-10.6-17.3-6.5-9.7 4.8 2.2 24.8 7.6 29.7 5.5 4.9 7.1 7.1 9.1 7.8 2 .7 9.1-1.9 11.8-5.2z" fill="#CCAD87"/><path d="M189.6 129.2s-.1 0-.4.1c-.2.1-.6.1-1 .2-.5.1-1 .1-1.7 0-.6-.1-1.4-.4-2-.8-1.4-.8-2.8-2.1-4.1-3.5-1.4-1.4-3-2.7-4.5-4.2-.7-.8-1.5-1.5-2.1-2.4-.7-.8-1.3-1.6-1.8-2.4-.6-.8-1.1-1.6-1.5-2.4-.4-.8-.8-1.5-1.2-2.3-.4-.7-.6-1.4-.9-2-.3-.6-.5-1.1-.6-1.5-.3-.9-.5-1.3-.5-1.3s.2.5.6 1.3c.2.4.4.9.8 1.5.3.6.6 1.2 1 1.9s.8 1.4 1.3 2.2c.5.8 1 1.5 1.6 2.3l1.8 2.4c.7.8 1.4 1.5 2.1 2.3 1.4 1.5 3 2.9 4.4 4.3.7.7 1.3 1.4 1.9 2 .6.6 1.3 1.2 1.9 1.6.6.4 1.3.7 1.9.9.6.2 1.2.2 1.6.1.9-.3 1.4-.3 1.4-.3zm8.2-5.1s0-.5.1-1.3.3-1.9.4-3.3c0-.7 0-1.4-.3-2.1-.3-.7-.7-1.3-1.2-2-1.1-1.4-2.1-2.9-3.1-4.4-1-1.6-1.9-3.2-2.6-4.7-.4-.8-.7-1.5-1.1-2.2-.4-.7-.7-1.3-1.1-1.9-1.4-2.4-2.3-4-2.3-4s.3.4.8 1c.5.7 1.1 1.6 1.9 2.7.4.6.8 1.2 1.2 1.9.4.7.8 1.4 1.2 2.2.8 1.5 1.7 3.1 2.7 4.6 1 1.5 1.9 3.1 3 4.4.5.7 1 1.4 1.2 2.2.2.8.3 1.6.2 2.3-.1.7-.2 1.3-.3 1.9-.1.5-.2 1-.3 1.4-.4.9-.4 1.3-.4 1.3z" fill="#8C6C54"/><path d="M167.5 195.7c.1-.4 7.6-20.6 3-26.6-6.8-8.8-20.4-7.4-25-3.6-4.6 3.8-3.1 13.7-.9 19.8 1.1 2.9 1.2 4.8 2.2 8.5 1 3.7 1.3 10.6 1.9 15.2.9 6.3-.1 10.7-1.2 12.5-1.1 1.8-2.2 5.9-.9 9.6.9 2.3 4.4 9.6 2.7 21.4-.4 2.9 2.1 5.4 3.3 6.5 1.7 1.7 2.1 6.7 2.1 6.7 1.7 1.7 9.8.7 9.8.7.2-4.7 0-8-2.5-9.7-3.5-2.4-4.1-6.1-4.1-7.5.1-3.6.2-9.9 2.2-15.4 1.8-5 2.3-11.9 2.3-14.3.2-3.9 2.1-10.3 5.1-23.8z" fill="#73432D"/><path d="M149.1 215.3v-1.5c0-1-.1-2.3-.2-4-.1-1.6-.3-3.5-.6-5.6-.1-1-.3-2.1-.4-3.1-.1-1.1-.4-2.1-.5-3.2-.2-1.1-.4-2.1-.6-3.2-.2-1.1-.5-2.1-.7-3.1-.2-1-.5-2-.7-2.9-.2-.9-.5-1.8-.7-2.6-.2-.8-.4-1.5-.6-2.2-.2-.6-.3-1.2-.5-1.7-.3-.9-.4-1.5-.4-1.5s.2.5.5 1.4c.3.9.8 2.2 1.3 3.8.2.8.5 1.6.8 2.5.3.9.5 1.9.8 2.9.2 1 .5 2 .7 3.1.2 1.1.4 2.1.6 3.2.2 1.1.4 2.2.5 3.2.1 1.1.3 2.1.4 3.2.2 2 .3 4 .4 5.6v4c0 1.2-.1 1.7-.1 1.7zm18.9-21.1s.1-.6.3-1.4c.2-.9.5-2 .8-3.1.6-2.2 1.3-4.5 1.3-4.5v1.5c-.1.9-.3 2-.6 3.2-.3 1.1-.7 2.2-1.1 3-.4.8-.7 1.3-.7 1.3zm-16.2 31.4s0 .3.1.8.2 1.1.4 1.7l.3.9c.1.3.3.5.4.7.1.2.3.4.4.5l.2.2s-.1 0-.2-.1-.4-.1-.6-.3c-.2-.2-.5-.4-.6-.7-.2-.3-.3-.6-.5-1-.2-.7-.2-1.4-.1-1.9 0-.5.2-.8.2-.8z" fill="#543825"/><path d="M155.8 269.9c3 .9 9.7.2 12.8-.8 0 0 .6-3.8-.4-6.9-3.5.9-10.6 1.7-13 1.7.8 2.3.6 6 .6 6z" fill="#B3927E"/><path d="M147.2 231.7c.5 4.3 1.4 15.4-1.9 17.5 0 0 1.8-.2 3.2-2.1 0 0-1.8 1.4-1.8 5.7 0 4.3-2.3 8-2.3 8s2.5-.9 3.4-2.5c0 0-1.6 4.6.9 7.7 0 0-.7-1.2 1.2-3.4 0 0-.3 5.4 4.9 6.1 0 0-1.2-1.5-.9-3.9 0 0 1 4 6.3 4-1.2-1.2-2.5-3.9-2.8-4.9.8 1.7 3.2 3.7 4 3.7-.5 0-1.4-3.1-.9-4.2 0 0 1.7 3.1 1.7 4.9 0 0 3.6-2 2.5-5.5 0 0 1.5 1.7 1.5 4.2.9-1 1.6-2.1 1.4-3.5.8.7 1.2.8 2.3 2.8 0 0 1.5-7.2-3.1-8.5 0 0 1.9.6 2.7-.7 0 0-4.7-1.8-6.5-4.8-1.8-3-2.4-5-2.4-5s.1.7 1.9 2.9c0 0-.3-3-1.6-4.8-2.1-2.9-1.4-11.3-1.4-11.3s-3.1-2.1-4.7-1.4c-1.6.7-2.5 2.3-4.1 1.1-1.6-1.2-3.5-2.1-3.5-2.1z" fill="#D9C4B6"/><path d="M105.1 168.4s-.9 27.6-14.7 37.4c-13.8 9.8-15 20.8-14.6 29.6.2 5.5.8 22.1 5.8 23.7 5.4 1.7 3.9 10.6 3.9 10.6-3 .9-9.2 1.4-12.2.5 0 0 .1-7.4-2.1-8-2.2-.6-5.1-2.4-3.9-5.7 1.2-3.3-.4-18.1-1.9-22.6-1.4-4.6-6.1-12.9-2.6-17.7 3.5-4.8 11.6-17.9 9-26.2-2.6-8.3-16.7-40.2 2.8-44.9 19.5-4.7 32.6 2.9 30.5 23.3z" fill="#73432D"/><path d="M72.8 270.6c3 .9 9.7.2 12.8-.8 0 0 .6-3.8-.4-6.9-3.5.9-10.6 1.7-13 1.7.8 2.2.6 6 .6 6z" fill="#B3927E"/><path d="M66.3 225.4s-.3-.4-.6-1.2c-.1-.4-.3-.8-.3-1.3-.1-.5-.1-1-.1-1.5.1-.3.1-.5.2-.8.1-.3.1-.5.3-.7.1-.2.2-.4.4-.6.1-.2.3-.4.4-.5.3-.3.6-.5.8-.6.2-.1.3-.2.3-.2s-.1.1-.2.3l-.3.3c-.1.1-.2.3-.3.4-.1.1-.2.3-.3.5l-.3.6c-.1.2-.1.4-.2.7-.1.2-.1.5-.1.7-.1 1 0 1.9.1 2.7 0 .7.2 1.2.2 1.2zm1.5-17.3s.3-.6.9-1.7c.5-1.1 1.2-2.6 1.9-4.5s1.4-4.2 1.6-6.7c.1-1.2 0-2.5-.4-3.8-.4-1.3-.8-2.6-1.3-3.8-.9-2.6-1.8-5.1-2.6-7.6-.8-2.4-1.3-4.8-1.8-6.7-.4-2-.7-3.7-.9-4.8l-.3-1.8s.1.7.4 1.8c.1.6.3 1.3.5 2.1s.4 1.7.7 2.7c.3 1 .5 2 .9 3.2.3 1.1.7 2.3 1.1 3.5.8 2.4 1.7 4.9 2.7 7.5.4 1.3.9 2.6 1.2 3.9.4 1.3.5 2.7.4 4-.1 1.3-.4 2.5-.7 3.6-.3 1.1-.7 2.2-1.1 3.1-.8 1.9-1.6 3.4-2.2 4.4-.6 1-1 1.6-1 1.6zm24.4-3.6s.5-.4 1.2-1.2c.4-.4.8-.9 1.2-1.5.4-.6 1-1.3 1.5-2 .2-.4.5-.8.8-1.2.2-.4.5-.9.8-1.3.5-.9 1-1.9 1.5-2.9.4-1.1 1-2.1 1.4-3.3.4-1.1.8-2.3 1.2-3.5l.5-1.7c.2-.6.3-1.2.5-1.8.3-1.2.6-2.3.8-3.4.2-1.1.5-2.2.6-3.3.2-1 .3-2 .4-2.9.3-1.8.4-3.4.5-4.4.1-1.1.2-1.7.2-1.7s0 .6-.1 1.7c0 .5-.1 1.2-.1 1.9 0 .8-.1 1.6-.2 2.5-.1.9-.2 1.9-.3 3-.1 1.1-.3 2.2-.5 3.3-.2 1.1-.5 2.3-.7 3.5-.1.6-.3 1.2-.4 1.8l-.5 1.8c-.3 1.2-.8 2.3-1.2 3.5-.4 1.2-1 2.2-1.4 3.3-.5 1-1 2-1.6 2.9-.3.5-.5.9-.8 1.3-.3.4-.6.8-.8 1.2-.5.8-1.1 1.4-1.6 2-.5.6-.9 1-1.3 1.4-1.1.7-1.6 1-1.6 1z" fill="#543825"/><path d="M65 232.3c.5 4.3.5 15.3-2.7 17.5 0 0 1.8-.2 3.2-2.1 0 0-1.8 1.4-1.8 5.7 0 4.3-2.3 8-2.3 8s2.5-.9 3.4-2.5c0 0-1.6 4.6.9 7.7 0 0-.7-1.2 1.2-3.4 0 0-.3 5.4 4.9 6.1 0 0-1.2-1.5-.9-3.9 0 0 1 4 6.3 4-1.2-1.2-2.5-3.9-2.8-4.9.8 1.7 3.2 3.7 4 3.7-.5 0-1.4-3.1-.9-4.2 0 0 1.7 3.1 1.7 4.9 0 0 3.6-2 2.5-5.5 0 0 1.5 1.7 1.5 4.2.9-1 1.6-2.1 1.4-3.5.8.7 1.2.8 2.3 2.8 0 0 1.5-7.2-3.1-8.5 0 0 1.9.6 2.7-.7 0 0-4.7-1.8-6.5-4.8-1.8-3-2.4-5-2.4-5s.1.7 1.9 2.9c0 0-.3-3-1.6-4.8-2.1-2.9-2.3-10.6-2.3-10.6s-2.1-2.8-3.7-2.1c-1.6.7-2.5 2.3-4.1 1.1-1.4-1.2-2.8-2.1-2.8-2.1z" fill="#D9C4B6"/><path d="M56.7 145c-9.9-3.4-11.5 15.3-8.7 27.3 2.8 12-3 16.1-4.9 21.6-1.9 5.5 1.6 7.6 1.6 7.6-2.7 1.1-4.4-1.4-4.4-1.4s2.7 8.2.3 12c-2.4 3.8.8 7.4.8 7.4-3.5 0-3.8-4.4-3.8-4.4 0 7.9-7.1 10.6-7.1 10.6.5 10.1-9 11.5-9 11.5 3.8-2.7 2.2-7.4 2.2-7.4-2.2 7.4-9.8 4.6-9.8 4.6 5.7 1.1 8.5-7.9 3.5-10.9s.3-11.2.3-11.2c-2.5.8-4.4-1.1-4.4-1.1 7.4-1.1 3.3-10.1 3-17.5-.3-7.4 6-9.6 6-9.6-6 0-4.6-5.2-4.6-5.2s.3 4.4 6.6 1.6c6.3-2.8.3-19.7.3-28.1 0-8.5 6.3-17.5 17.2-20.7 10.9-3.3 17.5 8.7 17.5 8.7 2.9 5.6.5 5.7-2.6 4.6z" fill="#453027"/><path d="M44.7 201.5s-.1.1-.4.2c-.2.1-.6.3-1.1.3h-.8c-.3 0-.6-.2-.9-.3-.3-.2-.6-.3-.8-.6-.3-.2-.4-.5-.6-.8-.2-.3-.3-.6-.5-.8l-.3-.9c-.2-.6-.2-1.1-.3-1.6-.1-.9-.1-1.6-.1-1.6s.2.6.4 1.5c.2.4.3.9.5 1.5.1.3.2.5.3.8.1.2.3.5.4.8.2.2.3.5.5.7.2.2.4.4.6.5.2.1.4.3.7.3.2.1.5.1.7.1.4 0 .8 0 1.1-.1h.6zm-3.3 18s-.2.1-.5.1h-.6c-.1 0-.2 0-.3-.1-.1 0-.2-.1-.4-.2s-.5-.3-.7-.5c-.2-.2-.4-.5-.6-.8-.2-.3-.4-.6-.5-.9-.1-.3-.3-.7-.3-1-.1-.3-.2-.7-.2-1 0-.3-.1-.7-.1-1v-1.7c.1-1 .1-1.7.1-1.7s.1.7.2 1.7c.1.5.2 1.1.3 1.7.1.3.1.6.2 1 .1.3.2.6.2 1l.3.9c.1.3.3.6.4.9.2.2.3.5.5.7.2.2.4.4.6.5l.6.3c.2.1.4.1.5.1h.3zm-6.8 3.1c-.4.8-1 1.4-1.6 2-.3.3-.7.5-1.1.7-.4.2-.8.4-1.2.5-.2.1-.4.1-.6.2-.2.1-.4.1-.6.1l-.7.1h-.7c-.4 0-.9-.1-1.3-.2-.2 0-.4-.1-.6-.2-.2-.1-.4-.2-.6-.2.7-.1 1.5-.4 2.1-.7l.9-.6c.3-.2.6-.5.8-.8.1-.1.2-.3.3-.4.1-.1.2-.3.3-.5l.3-.5.2-.5c.2-.3.2-.7.3-1.1.1-.4.1-.7.2-1.1v1.2c-.1.4-.1.8-.2 1.1l-.2.6-.3.5c-.2.3-.4.7-.7 1-.3.3-.6.5-.9.8l-.5.3-.5.3c-.7.3-1.5.5-2.2.5.4 0 .8.1 1.3.1H28c.4 0 .8 0 1.2-.1.2 0 .4-.1.6-.1.2 0 .4-.1.6-.1.4-.1.8-.3 1.1-.4.4-.2.7-.4 1.1-.6.3-.2.7-.5 1-.7.4-.5.7-.8 1-1.2zm-20.7 11.9s.2 0 .7.1c.4.1 1 .1 1.7.1.4 0 .7 0 1.1-.1.4 0 .8-.1 1.2-.2.4-.1.8-.2 1.3-.4.4-.2.8-.4 1.2-.7.4-.2.7-.6 1-.9.3-.3.5-.7.8-1.1.2-.4.3-.8.5-1.1.1-.4.2-.8.3-1.1.1-.3.2-.7.2-.9 0-.3.1-.5.1-.7.1-.4.1-.7.1-.7v2c0 .2-.1.3-.1.5-.1.4-.1.8-.2 1.2-.1.4-.3.8-.5 1.3-.3.4-.5.8-.8 1.2-.3.4-.7.8-1.1 1-.4.3-.9.5-1.3.7-.5.2-.9.3-1.4.4-.5.1-.9.1-1.3.1h-1.2c-1.4-.3-2.3-.7-2.3-.7zm-.6-23.2s.6.3 1.4.6c.2.1.5.1.7.2.3.1.5.1.8.1h.8c.3 0 .6-.1.8-.2.3-.1.5-.2.8-.4.2-.2.5-.3.7-.5l.6-.6c.2-.2.3-.4.5-.6.3-.4.5-.7.6-.9.2-.2.2-.4.2-.4s0 .2-.1.4c-.1.3-.2.7-.4 1.1-.1.2-.2.4-.4.7-.2.2-.4.5-.6.7-.2.2-.5.4-.7.6-.3.2-.6.3-.9.5-.3.1-.7.2-1 .2-.3.1-.7 0-1 0-.6-.1-1.2-.3-1.6-.5-.8-.5-1.2-1-1.2-1zm4.4-32.2v.6c0 .4 0 .9.1 1.5 0 .3.2.6.3.9.1.1.2.3.2.4.1.2.2.3.3.4.1.2.3.2.4.4.1.1.3.2.5.3.2.1.3.2.5.2l.6.1c.4.1.8 0 1.2.1.4 0 .8-.1 1.2-.1.8-.1 1.4-.3 2.1-.4l2-.5s-.7.4-1.9.9c-.3.1-.6.2-1 .3-.3.1-.7.2-1.1.3-.4 0-.8.2-1.2.2-.4 0-.9 0-1.3-.1l-.6-.1-.6-.3c-.2-.1-.4-.2-.5-.4-.2-.1-.3-.3-.5-.5-.1-.2-.3-.3-.3-.5-.1-.2-.2-.4-.2-.5-.1-.4-.2-.7-.2-1-.1-.6 0-1.2.1-1.5-.2-.5-.1-.7-.1-.7zm40.1-37.6s-.5-.9-1.6-2c-.3-.3-.5-.6-.9-.9-.3-.3-.7-.6-1-.9-.4-.3-.8-.6-1.2-.8-.4-.2-.9-.5-1.3-.6-.4-.2-.9-.3-1.4-.4-.5-.1-1-.1-1.4-.2h-1.3c-.4 0-.8.1-1.2.1-.4.1-.7.1-1 .2-.3.1-.6.1-.8.2-.4.1-.7.2-.7.2l.6-.3c.2-.1.5-.2.8-.3.3-.1.6-.2 1-.3.4-.1.8-.2 1.2-.2.4 0 .9-.1 1.4-.1.5.1 1 0 1.5.2.5.1 1 .2 1.5.4s1 .4 1.4.7c.5.3.9.6 1.2.9.8.6 1.4 1.3 1.8 1.9 1.1 1.2 1.4 2.2 1.4 2.2zm-1.2 1.5s-.3-.2-.7-.6c-.5-.3-1.2-.8-2.1-1.2-.9-.4-2-.8-3.2-.9-1.2-.1-2.5.2-3.6.9-.6.3-1 .8-1.5 1.2-.2.2-.4.5-.6.7-.2.3-.4.5-.6.8-.3.5-.7 1-.9 1.6-.3.5-.5 1-.7 1.5-.2.5-.4.9-.5 1.3-.2.4-.3.7-.4 1l-.3.9s.1-.3.2-.9c.1-.3.1-.6.3-1 .1-.4.2-.9.4-1.3.4-1 .8-2.1 1.5-3.2.2-.3.4-.5.6-.8.2-.3.4-.5.6-.8.5-.5 1-1 1.6-1.4 1.2-.8 2.7-1.1 4-.9 1.3.1 2.5.6 3.4 1.2.9.5 1.6 1.1 2 1.5.3.2.5.4.5.4z" fill="#261A11"/><path d="M55.7 144.9s-.3-.1-.9-.2h-1c-.4.1-.8.1-1.2.3l-.6.3c-.2.1-.4.3-.6.4-.2.2-.4.3-.6.6-.2.2-.4.4-.5.7l-.9 1.5c-.2.6-.5 1.1-.7 1.7-.2.6-.4 1.2-.5 1.8-.1.6-.3 1.2-.4 1.8-.1.6-.2 1.1-.3 1.7-.1.5-.2 1-.2 1.5-.2 1.9-.4 3.2-.4 3.2V157c0-.5.1-1 .1-1.5.1-.5.1-1.1.2-1.7.1-.6.2-1.2.4-1.8.1-.6.3-1.2.5-1.9.2-.6.5-1.2.7-1.8.3-.6.6-1.1 1-1.6.2-.2.4-.5.6-.7.2-.2.5-.4.7-.6.2-.2.5-.3.7-.4.2-.1.5-.3.7-.3.5-.2.9-.2 1.3-.2s.7 0 1 .1l.9.3zm-34.2 92.3s.2-.1.7-.2c.4-.1 1-.3 1.7-.7.7-.3 1.4-.8 2.1-1.3.4-.3.7-.6 1.1-.9.4-.3.6-.7.9-1.1.3-.4.5-.8.8-1.2.2-.4.4-.9.6-1.3.1-.4.3-.9.4-1.2l.3-1.2c.1-.4.2-.7.2-1 0-.3.1-.6.1-.8.1-.4.1-.7.1-.7v1.5c0 .3 0 .7-.1 1-.1.4-.1.8-.2 1.2-.1.4-.2.9-.4 1.3s-.4.9-.6 1.4c-.3.4-.5.9-.8 1.3-.3.4-.6.8-1 1.1-.4.4-.8.7-1.1.9-.4.3-.8.5-1.2.7-.4.2-.8.4-1.1.5-.7.3-1.3.4-1.8.4-.4.3-.7.3-.7.3zm2.7-56.5s.2 0 .4-.2c.3-.2.6-.4.9-.9.3-.5.7-1 .9-1.8.2-.7.4-1.6.5-2.6 0-.5.1-1 .1-1.5s0-1-.1-1.6c-.1-.5-.1-1.1-.2-1.7-.1-.6-.2-1.2-.3-1.7-.2-1.2-.4-2.4-.7-3.6-.3-1.2-.5-2.5-.8-3.8-.2-1.3-.4-2.5-.6-3.8-.2-1.3-.3-2.5-.3-3.7 0-1.2 0-2.4.2-3.5.1-.6.2-1.1.3-1.6.2-.5.3-1 .4-1.5.7-1.8 1.5-3.2 2.1-4.2.3-.5.6-.8.7-1.1.2-.3.3-.4.3-.4s-.3.6-.9 1.5c-.5 1-1.3 2.4-1.9 4.2-.2.5-.2.9-.4 1.4-.1.5-.2 1-.2 1.6-.1 1.1-.1 2.2-.1 3.4.1 1.2.2 2.4.4 3.7.2 1.2.4 2.5.6 3.8.2 1.3.5 2.5.7 3.8.3 1.2.5 2.5.7 3.7.1.6.2 1.2.2 1.8 0 .6.1 1.2.1 1.7v1.6c0 .5-.1 1-.1 1.5-.1.5-.1.9-.2 1.4-.1.4-.2.8-.4 1.2-.3.8-.7 1.3-1 1.8-.4.4-.7.7-1 .8-.1.3-.3.3-.3.3z" fill="#261A11"/><path d="M174.1 148.6c5.4 10.7 6.4 23.6 2.4 33.9-8.4 21.3-43.3 21.5-67.9 12.1-10.3-3.9-20.6-.7-44.1-3.9-13.8-1.9-23.1-19.5-15.7-36.7 7.4-17.2 26.4-23.8 41.6-16 18.2 9.3 46.8-.3 53.5-4.2 6.1-3.6 24.8 4.1 30.2 14.8z" fill="#874E35"/><path d="M91.4 138.4s.6.3 1.8.7c.6.2 1.3.4 2.1.6.8.2 1.8.4 2.8.7 1 .2 2.1.4 3.3.5.6.1 1.2.2 1.8.2.6.1 1.3.1 1.9.2 1.3.1 2.7.1 4 .2 1.4 0 2.8 0 4.2-.1l4.2-.3c1.4-.2 2.7-.3 4-.5 1.3-.2 2.5-.5 3.7-.7 1.2-.2 2.3-.5 3.3-.8 1-.2 2-.4 2.8-.7.8-.2 1.5-.4 2.1-.6 1.2-.3 1.9-.5 1.9-.5s-.7.2-1.8.6c-.6.2-1.3.4-2.1.7-.8.3-1.7.6-2.8.8-1 .3-2.1.6-3.3.9-1.2.2-2.4.5-3.7.8-1.3.2-2.7.4-4 .6-1.4.2-2.8.2-4.2.4-1.4 0-2.8.1-4.2 0-1.4-.1-2.8-.1-4.1-.2-.7-.1-1.3-.1-1.9-.2l-1.8-.3c-1.2-.2-2.3-.5-3.4-.7-1-.3-2-.5-2.8-.8-.8-.2-1.5-.5-2.1-.7-1.1-.4-1.7-.8-1.7-.8zm23 58.1s.9.3 2.4.7c1.5.4 3.8.9 6.5 1.4 5.4 1 12.6 2 19.9 1.7 1.8 0 3.6-.2 5.4-.4 1.8-.2 3.5-.5 5.2-.9l2.4-.6c.8-.2 1.6-.4 2.3-.7 1.5-.5 2.9-1 4.1-1.6l1.8-.9c.5-.3 1.1-.6 1.5-.9 1-.5 1.7-1.1 2.4-1.5 1.3-1 2-1.5 2-1.5s-.7.6-1.9 1.6c-.7.5-1.4 1.1-2.4 1.7l-1.5.9c-.5.3-1.1.6-1.8.9-1.2.6-2.6 1.2-4.1 1.7-1.5.5-3.1 1-4.8 1.4-1.7.4-3.4.7-5.2.9-1.8.2-3.6.4-5.5.4-1.8.1-3.7 0-5.5-.1-1.8-.1-3.6-.2-5.3-.4-3.4-.4-6.6-1-9.3-1.5-2.7-.6-4.9-1.2-6.4-1.7-1.3-.3-2.2-.6-2.2-.6z" fill="#633C22"/><path d="M175.1 151.3s3.2 9 6 9.7c0 0-2.7-.1-3.5-2.1 0 0 3.7 3.4 3.7 6.3 0 0-.7-1.7-1.8-1.7 0 0 2.9 4.4-.7 7.6" fill="#874E35"/><path d="M178.3 167.2s.2.6.4 1.5.3 2.2.3 3.4c0 1.2-.2 2.5-.4 3.4-.1.5-.3.8-.4 1.1-.1.3-.2.4-.2.4v-.4c0-.3.1-.7.1-1.1.1-.9.1-2.1.2-3.3v-5zm2.7-6.3h-.3c-.2-.1-.5-.2-.8-.4-.6-.4-1.3-1.1-1.8-1.9-.5-.8-.9-1.7-1.1-2.4-.1-.3-.2-.6-.2-.8 0-.2-.1-.3-.1-.3s.3.4.6 1c.4.6.8 1.4 1.3 2.2.5.8 1 1.5 1.5 2 .5.4.9.6.9.6zm.2 4.3s-.1-.3-.3-.8c-.2-.5-.4-1.1-.7-1.6-.3-.6-.6-1.1-.9-1.5-.1-.2-.2-.4-.3-.5-.1-.1-.1-.2-.1-.2s.1 0 .2.1.3.2.5.3l.6.6c.2.3.4.6.5.9.3.6.4 1.3.5 1.8.1.5 0 .9 0 .9zm-1.8-1.7s.3.3.6.8c.2.2.3.6.4.9.1.3.2.7.3 1.1.1.4.1.8 0 1.2 0 .4-.1.7-.2 1-.1.3-.2.5-.3.6-.1.1-.1.2-.1.2v-.3c0-.2 0-.4.1-.7v-.9c0-.3 0-.7-.1-1.1-.1-.7-.3-1.4-.4-2-.2-.4-.3-.8-.3-.8z" fill="#633C22"/><path d="M87.9 172.1s-.9 27.6-14.7 37.4c-13.8 9.8-15 20.8-14.6 29.6.2 5.5.8 22.1 5.8 23.7 5.4 1.7 3.9 10.6 3.9 10.6-3 .9-9.2 1.4-12.2.5 0 0 .1-7.4-2.1-8-2.2-.6-5.1-2.4-3.9-5.7 1.2-3.3-.4-18.1-1.9-22.6s-6.1-12.9-2.6-17.7c3.5-4.8 11.6-17.9 9-26.2-2.6-8.3-16.7-40.2 2.8-44.9 19.5-4.7 32.5 2.9 30.5 23.3z" fill="#874E35"/><path d="M55.5 274.3c3 .9 9.7.2 12.8-.8 0 0 .6-3.8-.4-6.9-3.5.9-10.6 1.7-13 1.7.8 2.2.6 6 .6 6z" fill="#B3927E"/><path d="M49 229.1s-.3-.4-.6-1.2c-.1-.4-.3-.8-.3-1.3-.1-.5-.1-1-.1-1.5.1-.3.1-.5.2-.8.1-.3.1-.5.3-.7.1-.2.2-.4.4-.6.1-.2.3-.4.4-.5.3-.3.6-.5.8-.6.2-.1.3-.2.3-.2s-.1.1-.2.3l-.3.3c-.1.1-.2.3-.3.4-.1.1-.2.3-.3.5l-.3.6c-.1.2-.1.4-.2.7-.1.2-.1.5-.1.7-.1 1 0 1.9.1 2.7.1.7.2 1.2.2 1.2zm1.5-17.3s.3-.6.9-1.7c.5-1.1 1.2-2.6 1.9-4.5s1.4-4.2 1.6-6.7c.1-1.2 0-2.5-.4-3.8-.4-1.3-.8-2.6-1.3-3.8-.9-2.6-1.8-5.1-2.6-7.6-.8-2.4-1.3-4.8-1.8-6.7-.4-2-.7-3.7-.9-4.8l-.3-1.8s.1.7.4 1.8c.1.6.3 1.3.5 2.1s.4 1.7.7 2.7c.3 1 .5 2 .9 3.2.3 1.1.7 2.3 1.1 3.5.8 2.4 1.7 4.9 2.7 7.5.4 1.3.9 2.6 1.2 3.9.4 1.3.5 2.7.4 4-.1 1.3-.4 2.5-.7 3.6-.3 1.1-.7 2.2-1.1 3.1-.8 1.9-1.6 3.4-2.2 4.4-.6 1-1 1.6-1 1.6zm24.4-3.6s.5-.4 1.2-1.2c.4-.4.8-.9 1.2-1.5.4-.6 1-1.3 1.5-2 .2-.4.5-.8.8-1.2.2-.4.5-.9.8-1.3.5-.9 1-1.9 1.5-2.9.4-1.1 1-2.1 1.4-3.3.4-1.1.8-2.3 1.2-3.5l.5-1.7c.2-.6.3-1.2.5-1.8.3-1.2.6-2.3.8-3.4.2-1.1.5-2.2.6-3.3.2-1 .3-2 .4-2.9.3-1.8.4-3.4.5-4.4.1-1.1.2-1.7.2-1.7s0 .6-.1 1.7c0 .5-.1 1.2-.1 1.9 0 .8-.1 1.6-.2 2.5-.1.9-.2 1.9-.3 3-.1 1.1-.3 2.2-.5 3.3-.2 1.1-.5 2.3-.7 3.5-.1.6-.3 1.2-.4 1.8l-.5 1.8c-.3 1.2-.8 2.3-1.2 3.5-.4 1.2-1 2.2-1.4 3.3-.5 1-1 2-1.6 2.9-.3.5-.5.9-.8 1.3-.3.4-.6.8-.8 1.2-.5.8-1.1 1.4-1.6 2-.5.6-.9 1-1.3 1.4-1.1.7-1.6 1-1.6 1z" fill="#633C22"/><path d="M47.7 236c.5 4.3.5 15.3-2.7 17.5 0 0 1.8-.2 3.2-2.1 0 0-1.8 1.4-1.8 5.7 0 4.3-2.3 8-2.3 8s2.5-.9 3.4-2.5c0 0-1.6 4.6.9 7.7 0 0-.7-1.2 1.2-3.4 0 0-.3 5.4 4.9 6.1 0 0-1.2-1.5-.9-3.9 0 0 1 4 6.3 4-1.2-1.2-2.5-3.9-2.8-4.9.8 1.7 3.2 3.7 4 3.7-.5 0-1.4-3.1-.9-4.2 0 0 1.7 3.1 1.7 4.9 0 0 3.6-2 2.5-5.5 0 0 1.5 1.7 1.5 4.2.9-1 1.6-2.1 1.4-3.5.8.7 1.2.8 2.3 2.8 0 0 1.5-7.2-3.1-8.5 0 0 1.9.6 2.7-.7 0 0-4.7-1.8-6.5-4.8-1.8-3-2.4-5-2.4-5s.1.7 1.9 2.9c0 0-.3-3-1.6-4.8-2.1-2.9-2.3-10.6-2.3-10.6s-2.1-2.8-3.7-2.1c-1.6.7-2.5 2.3-4.1 1.1-1.4-1.2-2.8-2.1-2.8-2.1z" fill="#EBD4C5"/><path d="M153.7 200.1c.1-.4 7.6-20.6 3-26.6-6.8-8.8-20.4-7.4-25-3.6-4.6 3.8-3.1 13.7-.9 19.8 1.1 2.9 1.2 4.8 2.2 8.5 1 3.7 1.3 10.6 1.9 15.2.9 6.3-.1 10.7-1.2 12.5-1.1 1.8-2.2 5.9-.9 9.6.9 2.3 4.4 9.6 2.7 21.4-.4 2.9 2.1 5.4 3.3 6.5 1.7 1.7 2.1 6.7 2.1 6.7 1.7 1.7 9.8.7 9.8.7.2-4.7 0-8-2.5-9.7-3.5-2.4-4.1-6.1-4.1-7.5.1-3.6.2-9.9 2.2-15.4 1.8-5 2.3-11.9 2.3-14.3.2-3.9 2-10.3 5.1-23.8z" fill="#874E35"/><path d="M135.3 219.7v-1.5c0-1-.1-2.3-.2-4-.1-1.6-.3-3.5-.6-5.6-.1-1-.3-2.1-.4-3.1-.1-1.1-.4-2.1-.5-3.2-.2-1.1-.4-2.1-.6-3.2-.2-1.1-.5-2.1-.7-3.1-.2-1-.5-2-.7-2.9-.2-.9-.5-1.8-.7-2.6-.2-.8-.4-1.5-.6-2.2-.2-.6-.3-1.2-.5-1.7-.3-.9-.4-1.5-.4-1.5s.2.5.5 1.4c.3.9.8 2.2 1.3 3.8.2.8.5 1.6.8 2.5.3.9.5 1.9.8 2.9.2 1 .5 2 .7 3.1.2 1.1.4 2.1.6 3.2.2 1.1.4 2.2.5 3.2.1 1.1.3 2.1.4 3.2.2 2 .3 4 .4 5.6v4c-.1 1.2-.1 1.7-.1 1.7zm18.9-21.1s.1-.6.3-1.4c.2-.9.5-2 .8-3.1.6-2.2 1.3-4.5 1.3-4.5v1.5c-.1.9-.3 2-.6 3.2-.3 1.1-.7 2.2-1.1 3-.4.8-.7 1.3-.7 1.3zM138 230s0 .3.1.8.2 1.1.4 1.7l.3.9c.1.3.3.5.4.7.1.2.3.4.4.5l.2.2s-.1 0-.2-.1-.4-.1-.6-.3c-.2-.2-.5-.4-.6-.7-.2-.3-.3-.6-.5-1-.2-.7-.2-1.4-.1-1.9 0-.5.2-.8.2-.8z" fill="#633C22"/><path d="M142 274.3c3 .9 9.7.2 12.8-.8 0 0 .6-3.8-.4-6.9-3.5.9-10.6 1.7-13 1.7.8 2.2.6 6 .6 6z" fill="#B3927E"/><path d="M133.4 236.1c.5 4.3 1.4 15.4-1.9 17.5 0 0 1.8-.2 3.2-2.1 0 0-1.8 1.4-1.8 5.7 0 4.3-2.3 8-2.3 8s2.5-.9 3.4-2.5c0 0-1.6 4.6.9 7.7 0 0-.7-1.2 1.2-3.4 0 0-.3 5.4 4.9 6.1 0 0-1.2-1.5-.9-3.9 0 0 1 4 6.3 4-1.2-1.2-2.5-3.9-2.8-4.9.8 1.7 3.2 3.7 4 3.7-.5 0-1.4-3.1-.9-4.2 0 0 1.7 3.1 1.7 4.9 0 0 3.6-2 2.5-5.5 0 0 1.5 1.7 1.5 4.2.9-1 1.6-2.1 1.4-3.5.8.7 1.2.8 2.3 2.8 0 0 1.5-7.2-3.1-8.5 0 0 1.9.6 2.7-.7 0 0-4.7-1.8-6.5-4.8-1.8-3-2.4-5-2.4-5s.1.7 1.9 2.9c0 0-.3-3-1.6-4.8-2.1-2.9-1.4-11.3-1.4-11.3s-3.1-2.1-4.7-1.4c-1.6.7-2.5 2.3-4.1 1.1-1.3-1.2-3.5-2.1-3.5-2.1z" fill="#EBD4C5"/><path d="M171.8 146s6 6.1 6.6 8.1c0 0-9.7 8.6-21.8 7-12.1-1.6-29.4-9.1-34.6-21l7.2-1.2s32.9 13 42.6 7.1z" fill="#CCAD87"/><path d="M178.4 154.1l-.5-.5c-.3-.3-.7-.8-1-1.3-.3-.5-.6-1-.9-1.4-.2-.4-.4-.7-.4-.7s.3.1.7.4c.4.3.8.7 1.1 1.2.3.5.6 1 .8 1.4.1.6.2.9.2.9z" fill="#8C6C54"/><path d="M125.6 139.2s3.9 13.8 23.2 15.2c15 1.1 23 0 26.8-4.1l-1.2-2.5s-4.9 4.8-27.9 1.6c-9-1.3-18.2-10.5-18.2-10.5l-2.7.3z" fill="#633C22"/><g transform="translate(125 145)"><path d="M6 .4C3.1 1.8.4 10.5.8 14.3c.4 3.8 9 8.5 13.8 5.8 4.8-2.7 5-12.4 3.1-14.5C15.8 3.5 7.5-.3 6 .4z" fill="#633C22"/><path d="M5.2 1.5s.1.3.2.7c.1.4.3 1.1.5 1.8s.5 1.6 1 2.4c.2.4.5.8.8 1.1.4.3.7.5 1.2.4.5 0 1-.1 1.5-.1.5-.1 1-.1 1.5-.2 1-.1 1.9-.2 2.7-.3 1.6-.2 2.6-.3 2.6-.3s-1 .3-2.5.7c-.8.2-1.7.4-2.6.5-.5.1-1 .1-1.5.2s-1.1.1-1.6.2h-.4c-.2 0-.3-.1-.5-.1-.1-.1-.3-.1-.4-.2L7.4 8c-.4-.4-.7-.9-.9-1.3-.4-.9-.7-1.8-.8-2.6-.4-1.5-.5-2.6-.5-2.6z" fill="#45281C"/><circle fill="#8C7539" cx="8.9" cy="6.7" r="1"/><path d="M5.1 19.2l1 .5c.6.3 1.6.6 2.7.9 1.1.3 2.6.4 3.9 0 .7-.2 1.3-.6 1.9-1.1.6-.5 1-1.1 1.4-1.8.8-1.3 1.5-2.8 1.8-4.2.2-.7.3-1.4.4-2.1.1-.7.1-1.3.1-1.9 0-.3 0-.6-.1-.9 0-.3-.1-.5-.1-.8-.1-.5-.2-.9-.3-1.2-.2-.7-.3-1.1-.3-1.1s0 .1.1.3c.1.2.2.4.3.8.1.3.3.7.4 1.2.1.5.2 1 .3 1.6.1.6.1 1.3 0 2 0 .7-.1 1.4-.3 2.2-.4 1.5-1 3-1.8 4.4-.4.7-.9 1.4-1.6 1.9-.6.5-1.4 1-2.1 1.2-.8.2-1.5.2-2.2.2-.7-.1-1.4-.2-1.9-.4-1.2-.3-2.1-.8-2.7-1.2-.3-.2-.5-.3-.7-.4-.1-.1-.2-.1-.2-.1z" fill="#45281C"/></g><path d="M145.6 79.8s-.3 8.4-5.4 10.2c-5.2 1.8-4.2 3.1-4.2 3.1s11.5 17.2 24.2 12.6c8.7-3.1 9.9-10.8 9.9-10.8s-3.1-2.4-4.8-4.6c-1.7-2.2-3.2-10.4-3.2-10.4s-6.5-11.7-16.5-.1z" fill="#FFD0AE"/><path d="M144.5 85.6c2 2.4 14.3 20.4 14.3 20.4s5.1-16.8 5.8-17.5c0 0 2.8-1 8.6 1.1 3.9 1.4 5.1 5.3 5.1 5.3s-1.3 17-1.1 20.7c.2 3.7-1.1 21.3-1.1 25.2 0 1.5.4 4.7-2.3 8.5-2.7 3.8-9.5 2.4-18.3 2.4s-25.4-5.8-27.6-10.5c-2-4.4 1.9-6.6 2.9-13.1s-5.3-35-5.3-35 .6-2.2 11.1-5.1c5.6-1.4 7.9-2.4 7.9-2.4z" fill="#CCAD87"/><path d="M156.5 105.6l.7-.7c.4-.4 1-.9 1.7-1.4.6-.5 1.3-.9 1.8-1.1.5-.3.9-.4.9-.4l-.7.7c-.4.4-1.1.9-1.7 1.4-.6.5-1.3.9-1.9 1.1-.4.3-.8.4-.8.4z" fill="#8C5634"/><path d="M155.6 102.9s.4.1 1.1.2c.6.1 1.5.4 2.3.7.8.3 1.6.6 2.2.9l1 .5s-.4 0-1.1-.2c-.6-.1-1.5-.4-2.3-.7-.8-.3-1.6-.6-2.2-.9-.7-.2-1-.5-1-.5zm-2.7-1.5s.6-.4 1.6-1 2.4-1.3 3.7-2c1.4-.7 2.8-1.3 3.9-1.8 1.1-.4 1.8-.7 1.8-.7s-.6.4-1.6 1-2.4 1.3-3.7 2c-1.4.7-2.8 1.3-3.9 1.8s-1.8.7-1.8.7z" fill="#8C5634"/><path d="M151 96.6l2 .5c1.2.3 2.7.8 4.2 1.3s3 1.1 4.2 1.6c1.1.5 1.8.8 1.8.8l-2-.5c-1.2-.3-2.7-.8-4.2-1.3s-3-1.1-4.2-1.6c-1.1-.4-1.8-.8-1.8-.8z" fill="#8C5634"/><path d="M169.4 151.5h.5c.3 0 .8-.1 1.4-.4.6-.2 1.2-.7 1.8-1.3.6-.6 1.1-1.5 1.5-2.5.8-2 1.2-4.5 1.3-7.2.1-1.3 0-2.7 0-4.1v-4.3c0-2.9.2-5.8.3-8.5.1-2.7.3-5.2.4-7.4.1-2.2.2-4 .3-5.2v-2 .5c0 .3.1.8.1 1.5 0 1.3.1 3.1 0 5.2 0 2.2-.1 4.7-.2 7.4s-.2 5.6-.3 8.5c0 1.4-.1 2.9 0 4.3 0 1.4 0 2.8-.1 4.2-.2 2.7-.6 5.3-1.6 7.3-.5 1-1 1.9-1.7 2.5-.6.6-1.3 1-1.9 1.3-.6.2-1.1.3-1.4.3-.2 0-.4-.1-.4-.1zm-39.2-7.7s-.1-.1-.3-.2c-.2-.1-.5-.4-.9-.7-.4-.3-.8-.7-1.2-1.3-.4-.6-.8-1.3-.9-2.1-.2-.8-.1-1.8.3-2.7.4-.9.9-1.8 1.3-2.7.9-1.8 1.6-3.9 1.8-6 .2-1.1.2-2.1.2-3.2s-.1-2.1-.2-3.1c-.2-2-.4-3.9-.7-5.6-.2-1.6-.4-3-.6-3.9-.2-.9-.3-1.5-.3-1.5s.2.5.4 1.5c.2.9.5 2.3.8 3.9.3 1.6.6 3.5.9 5.5.1 1 .2 2.1.3 3.2 0 1.1 0 2.2-.1 3.3-.3 2.2-1 4.4-2 6.2-.5.9-1 1.8-1.4 2.6-.4.8-.5 1.7-.4 2.4.3 1.6 1.2 2.7 1.8 3.4l.8.8c.3.1.4.2.4.2z" fill="#8C6C54"/><path d="M123.6 144.5s3.9 2.7 5.8 8.4c.6 1.9 1.1 2.9-.6 3.3 0 0 .2 2.2-2.1 1.8 0 0-.9 1.8-2.8 1.5 0 0-1.3 1.7-3.6 0-1.3-.9-2.4-3.5-1.3-4.9-1-2.5-1.1-6-.7-7.5" fill="#FFD0AE"/><path d="M124.3 145.2s2.9 2.6 5 4.6c1.6 1.6 1.6 3.6-.8 2.7" fill="#FFD0AE"/><path d="M117.8 149.8s.1.5.3 1.4c.2.8.5 1.9.8 2.9l.6 1.5c.1.2.2.4.3.7l.3.6c.2.3.4.6.6.8.2.2.2.3.2.3s-.1-.1-.3-.2c-.2-.1-.5-.4-.8-.7-.3-.3-.6-.7-.9-1.2-.3-.5-.5-1-.7-1.5-.4-1.1-.5-2.2-.6-3.1.2-1 .2-1.5.2-1.5zm5.9 7.2s.1.2.3.5c.1.3.2.7.2 1.2 0 .2-.1.5-.2.7-.1.2-.2.4-.4.5-.3.2-.6.2-.6.2s0-.1.1-.1c.1-.1.1-.2.2-.3.1-.3.2-.6.2-1s.1-.8.1-1.1c0-.4.1-.6.1-.6zm2.7-1.2s.2.2.3.5c.1.3.2.8.2 1.2 0 .5-.2.9-.5 1.2-.3.2-.5.3-.5.3s0-.1.1-.1c.1-.1.1-.2.2-.3 0-.1.1-.3.1-.5s.1-.4.1-.6c0-.4 0-.8.1-1.1-.1-.4-.1-.6-.1-.6zm2-1.6s.2.2.3.5c.1.3.3.7.3 1.2 0 .4 0 .9-.2 1.2-.1.2-.2.3-.3.3-.1.1-.2.1-.2.1s0-.1.1-.1v-.4c0-.3 0-.7-.1-1.1 0-.4-.1-.8 0-1.2.1-.3.1-.5.1-.5z" fill="#BF8865"/><path d="M120 156.2s.1.1.1.3v.5c0 .2-.1.4-.2.5l-.2.2s-.1-.1-.2-.3c-.1-.2-.1-.4-.1-.6 0-.2.2-.4.3-.5.1 0 .3-.1.3-.1zm9.9-1.6s-.1-.4-.4-.9c-.3-.5-.6-1.2-.9-1.9-.3-.7-.7-1.4-.9-1.9-.2-.5-.3-.9-.3-.9s.3.3.7.8c.4.5.8 1.1 1.1 1.8.3.7.6 1.5.7 2.1.1.3.1.6.1.7-.1.1-.1.2-.1.2z" fill="#BF8865"/><path d="M115.3 150.3s6.7 2.6 10.3-4.4l-1.1-2.9s1.9-2.1.9-5c-1-2.8-3-4.3-3.3-6.2-.2-1.9-4.8-11.4-6.1-14.5-4.1-9.3-14.3-1.2-14.6 2.8-.4 4 2.7 8.1 3.3 10.5.6 2.5 2.2 6.1 3.3 7.7 1.1 1.6 1.9 5.5 3.3 7s2.8 2.2 2.8 2.2l1.2 2.8z" fill="#CCAD87"/><path d="M119.2 145.8s.5-.1 1.2-.5c.8-.3 1.9-.9 3-1.7.6-.4 1.1-1 1.6-1.6.4-.7.7-1.5.6-2.3 0-.9-.5-1.7-.9-2.5-.4-.9-.8-1.7-1.3-2.6-.4-.8-1-1.7-1.4-2.6-.4-.9-.7-1.8-.9-2.7-.6-1.7-1.1-3.3-1.7-4.6-.6-1.3-1-2.4-1.4-3.2l-.6-1.2s.3.4.7 1.1c.4.7 1 1.8 1.6 3.1.6 1.3 1.3 2.9 1.9 4.6.3.9.6 1.7 1 2.6.4.8.9 1.6 1.4 2.5.5.9.9 1.7 1.3 2.6.4.8.8 1.8.9 2.7.1 1-.3 1.9-.8 2.6-.5.7-1.1 1.2-1.7 1.7-1.2.8-2.4 1.3-3.2 1.6-.9.3-1.3.4-1.3.4zm-2.9 1.2s-.1.1-.3.2c-.2.1-.5.2-.9.3-.4.1-.9.1-1.4 0-.5-.1-1.1-.4-1.6-.9s-1-1.1-1.4-1.7l-1.2-2.1c-.4-.8-.7-1.6-1-2.4-.3-.8-.7-1.6-1.2-2.3-.8-1.6-1.6-3.2-2.2-4.8-.3-.8-.5-1.6-.7-2.3-.2-.7-.4-1.4-.6-2-.5-1.2-.9-2.3-1.2-3-.3-.7-.5-1.1-.5-1.1s.2.4.6 1.1c.4.7.9 1.7 1.5 2.9.3.6.5 1.3.7 2 .2.7.5 1.5.8 2.2.6 1.5 1.4 3.1 2.2 4.7.4.8.9 1.6 1.2 2.4l.9 2.4c.3.7.7 1.5 1.1 2.1.4.7.8 1.2 1.2 1.7.4.5 1 .8 1.5.9.5.2 1 .2 1.3.1.8-.2 1.2-.4 1.2-.4zm-1.2 3.3s.2.1.5.1c.3.1.8.1 1.4.1.6 0 1.3 0 2-.1s1.4-.3 2.1-.7c.4-.1.7-.4 1-.5l.9-.6c.3-.2.5-.5.8-.7.2-.2.4-.5.6-.7.4-.4.7-.8.9-1.1.2-.3.3-.4.3-.4s-.1.2-.2.5c-.2.3-.3.8-.7 1.3-.2.2-.3.5-.6.8-.2.3-.5.5-.7.8-.3.2-.6.5-.9.7-.4.2-.7.4-1.1.6-.4.2-.8.3-1.2.4-.4.1-.8.2-1.2.2h-1.1c-.3 0-.7 0-1-.1-.6-.1-1.1-.3-1.4-.4l-.4-.2zm-4.9-20.6s-.3.1-.7.1c-.4 0-1-.1-1.6-.2-.3-.1-.6-.2-.8-.3-.3-.1-.5-.2-.7-.3-.4-.2-.6-.4-.6-.4s.3.1.7.2c.4.1.9.3 1.5.4.3.1.5.1.8.2.3.1.5.1.7.2.4 0 .7.1.7.1z" fill="#8C6C54"/><path d="M102.2 122.3c-1.7-2.7 1-8.2 3.4-10 2.4-1.8 8.8-12.2 11.7-15.1 2.9-2.9 10.5-9.9 18.3-4.6 9 6-5.9 25.1-12.1 29.5-6.2 4.3-8.1 6.4-10.3 6.9-2.2.5-8.7-3-11-6.7z" fill="#CCAD87"/><path d="M109.7 128.4s.5.1 1.3.3c.4.1.9.2 1.5.1.6 0 1.2-.2 1.8-.5 1.3-.5 2.6-1.5 3.9-2.7.7-.6 1.4-1.2 2.1-1.7.7-.6 1.5-1.1 2.3-1.7.7-.6 1.5-1.1 2.2-1.7l2.1-1.8 1.8-1.8c.6-.6 1.1-1.2 1.5-1.7.9-1.1 1.6-2 2.1-2.7.5-.7.8-1 .8-1s-.2.4-.6 1.1c-.4.7-1 1.7-1.9 2.9-.4.6-.9 1.2-1.4 1.8-.5.6-1.1 1.3-1.8 1.9-.6.6-1.3 1.2-2.1 1.8-.7.6-1.5 1.2-2.2 1.7-.8.6-1.5 1.1-2.3 1.7-.7.5-1.5 1.1-2.1 1.7-1.4 1.1-2.8 2-4.2 2.6-.7.3-1.4.4-1.9.4-.6 0-1.1-.1-1.5-.2-.4-.1-.7-.2-.9-.3-.4-.1-.5-.2-.5-.2zm-7.5-6.1V121c0-.4-.1-.9-.1-1.5s-.1-1.2-.1-2c0-.7.2-1.5.6-2.3.4-.8.9-1.5 1.6-2.1 1.2-1.3 2.4-2.7 3.6-4.2 1.2-1.5 2.4-2.9 3.4-4.4l1.5-2.1 1.5-1.8c.9-1.1 1.7-1.9 2.3-2.6l.9-.9s-1.1 1.5-2.9 3.8c-.4.6-.9 1.2-1.3 1.8-.5.6-.9 1.4-1.4 2.1-1 1.5-2.1 3-3.3 4.5-1.2 1.5-2.5 2.9-3.7 4.2-.6.6-1.2 1.2-1.5 1.9-.4.7-.6 1.4-.6 2.1-.1 1.4-.1 2.6-.1 3.4-.3.9-.4 1.4-.4 1.4z" fill="#8C6C54"/><path d="M171.3 100.6c1.5-.2 3.1.8 2.7 3.4-.4 2.6 2 2.7 2.8 2.5 0 0-3.1 1.9-5.1-.8 0 0 .7 1.4 1.6 1.8 0 0-3.7-1.1-3.8-4.4-.1-1 .4-2.3 1.8-2.5z" fill="#BF7547"/><path d="M176.8 106.5s-.1.1-.3.1c-.2.1-.6.1-1 0s-.9-.4-1.2-.8c-.2-.2-.3-.4-.4-.7-.1-.2-.2-.6-.2-.9 0-.6.1-1.1.1-1.6 0-.2 0-.4-.1-.6-.1-.2-.2-.4-.3-.5-.2-.3-.5-.5-.7-.6-.2-.1-.3-.2-.3-.2s.1 0 .4.1c.2.1.5.2.9.5.2.2.3.3.4.6.1.2.2.5.2.8.1.5 0 1.1 0 1.6 0 .3 0 .4.1.7l.3.6c.3.4.6.7.9.8.3.2.7.2.9.2.1 0 .3-.1.3-.1z" fill="#8C5634"/><path d="M171.5 71.7s4.7 6.3-.2 11.2c0 0 3.5 2.2.5 7.6 0 0 3.1 2.3.1 6.2 0 0 2 1.9-.1 4.6 0 0-4.1-.1-3-4.9 0 0-2.1-2.9-.7-6 0 0-4.6-2.7-1.7-8.2 0 0-4.8-5.1-1.6-9.3 3.2-4.2 5.2-2.9 6.7-1.2z" fill="#BF7547"/><path d="M169.3 74.8s-.2.3-.5.8c-.1.2-.3.5-.4.9-.1.3-.3.7-.4 1-.3.7-.4 1.4-.5 2-.1.3-.1.5-.1.7 0 .2-.1.3-.1.3s0-.1-.1-.3c0-.2-.1-.4-.1-.7v-1c0-.4.1-.8.3-1.1.3-.8.7-1.4 1.2-1.9.3-.5.7-.7.7-.7z" fill="#8C5634"/><path d="M167.4 77.7l-.4-.4c-.2-.2-.5-.6-.8-.9-.3-.3-.6-.6-.8-.9l-.3-.3-.1-.1s.2 0 .6.2c.3.1.7.4 1 .8.3.4.5.8.7 1.1.1.3.1.5.1.5zm1.8 6.3s-.2.3-.3.7c-.2.4-.4.9-.6 1.5-.2.5-.3 1.1-.3 1.5-.1.4-.1.8-.1.8s0-.1-.1-.2-.1-.3-.2-.5-.1-.5-.1-.8c0-.3.1-.6.2-.9.2-.6.6-1.2.9-1.5.3-.5.6-.6.6-.6z" fill="#8C5634"/><path d="M167.1 85l.2.2c.1.1.2.3.3.4.1.2.1.4.1.5v.3l-.2-.2c-.1-.1-.2-.3-.3-.4-.1-.2-.1-.4-.1-.5V85zm3.8 6.1s-.1.3-.3.7c-.2.4-.4.9-.7 1.3-.2.5-.4 1-.6 1.4-.1.2-.1.4-.2.5 0 .1-.1.2-.1.2s-.1-.3-.1-.7c0-.4.1-1 .3-1.6.3-.5.6-1 .9-1.3.6-.4.8-.5.8-.5zm-.3 5.8v3.6s-.2-.1-.4-.5c-.1-.2-.2-.3-.2-.6-.1-.2-.1-.5-.1-.7 0-.5.1-1 .3-1.3.2-.4.4-.5.4-.5z" fill="#8C5634"/><path d="M168.9 92.4s.1 0 .2.1l.3.3c.1.1.1.3.1.4 0 .1-.1.2-.1.2s-.1-.1-.1-.2c-.1-.1-.2-.2-.2-.3 0-.1-.1-.1-.1-.2s0-.1-.1-.2v-.1zm.5 5.3s.1 0 .2.1c.1 0 .2.1.4.2.1.1.2.2.2.4 0 .1.1.2.1.2s-.1 0-.2-.1c-.1 0-.2-.1-.4-.2-.1-.1-.2-.2-.2-.4-.1-.1-.1-.2-.1-.2z" fill="#8C5634"/><path d="M171.9 72.3s.5.5 1 1.5 1 2.4.9 3.9c0 .4-.1.7-.1 1.1-.1.4-.2.7-.3 1-.1.3-.3.6-.4.9-.1.3-.3.5-.5.7-.2.2-.3.4-.5.6l-.4.4c-.2.2-.4.3-.4.3s.1-.2.3-.4c.1-.1.2-.3.3-.5l.3-.6c.1-.2.3-.5.4-.8l.3-.9c.1-.3.2-.6.2-1 0-.3.1-.7.1-1v-1c0-.3-.1-.7-.1-1-.1-.3-.1-.6-.2-.9-.1-.3-.2-.6-.3-.8-.2-.5-.3-.9-.5-1.2 0-.1-.1-.3-.1-.3zm-5.4 9.9s-.1.1-.2.4c-.1.2-.2.6-.3 1-.1.2-.1.4-.2.7-.1.2-.1.5-.1.8v.8c0 .3 0 .5.1.8 0 .3.2.5.2.8.1.3.2.5.3.7.1.2.3.4.4.6.1.2.3.4.4.5.3.4.5.6.7.8l.3.3s-.1-.1-.4-.2c-.2-.1-.6-.3-.9-.6-.2-.2-.4-.3-.5-.5-.2-.2-.3-.4-.5-.7-.1-.3-.3-.5-.4-.8l-.3-.9c-.1-.3-.1-.6-.1-.9 0-.3 0-.6.1-.9.1-.3.1-.6.2-.8.1-.3.2-.5.3-.7.5-.8.9-1.2.9-1.2zm5.3 8.2s.4.2.9.7c.2.3.4.6.6 1 .2.4.2.9.2 1.3 0 .2 0 .5-.1.7-.1.2-.1.4-.2.6-.2.4-.4.7-.5 1-.2.3-.4.5-.5.6l-.2.2s0-.1.1-.3c.1-.2.2-.4.3-.7.1-.3.2-.6.3-1 .1-.2.1-.4.1-.6.1-.2 0-.4.1-.6v-.6c0-.2 0-.4-.1-.6-.1-.4-.2-.7-.4-1-.3-.3-.6-.7-.6-.7zm-2.9 6v1c0 .3 0 .6.1 1 0 .2.1.3.1.5.1.2.1.4.2.5.1.2.2.3.3.5.1.2.2.3.4.4.1.1.3.2.4.3.1.1.3.2.4.2.3.2.5.2.7.3.2.1.3.1.3.1h-.3c-.2 0-.5 0-.8-.1-.2 0-.3-.1-.5-.2s-.4-.1-.5-.3c-.2-.1-.4-.2-.5-.4-.2-.2-.3-.3-.4-.6-.2-.4-.3-.8-.4-1.3 0-.4 0-.8.1-1.1l.4-.8z" fill="#8C5634"/><path d="M134.9 103.1c-1.5-.1-3 .9-2.5 3.5s-1.9 2.8-2.7 2.7c0 0 3.1 1.8 5.1-1.1 0 0-.6 1.5-1.5 1.9 0 0 3.6-1.2 3.6-4.5-.1-1.1-.6-2.4-2-2.5z" fill="#BF7547"/><path d="M129.6 109.3h.4c.2 0 .5-.1.9-.2.3-.2.6-.5.9-.9l.3-.6c.1-.2.1-.4.1-.7 0-.5-.1-1-.1-1.6 0-.3.1-.5.2-.8.1-.2.3-.4.4-.6.3-.3.6-.4.9-.5.2-.1.3-.1.3-.1s-.1.1-.3.2c-.2.1-.4.4-.6.7-.1.2-.2.3-.2.5s-.1.4-.1.6c0 .5.2 1 .2 1.6 0 .3-.1.6-.2.9-.1.3-.2.5-.4.7-.3.4-.8.8-1.2.9-.4.1-.8.1-1 0-.3 0-.5-.1-.5-.1z" fill="#8C5634"/><path d="M133.3 74.2s-4.4 6.5.7 11.2c0 0-3.4 2.3-.2 7.6 0 0-3 2.4.2 6.2 0 0-1.9 2 .3 4.6 0 0 4.1-.3 2.7-5 0 0 2-3 .4-6 0 0 4.4-2.9 1.3-8.3 0 0 4.6-5.4 1.2-9.4-3.2-4-5.1-2.6-6.6-.9z" fill="#BF7547"/><path d="M135.7 77.2s.4.2.8.6c.4.4.9 1.1 1.2 1.8.1.4.3.8.3 1.1.1.4.1.7.1 1 0 .3-.1.5-.1.7 0 .2-.1.3-.1.3s0-.1-.1-.3c0-.2-.1-.4-.2-.7-.1-.6-.3-1.3-.6-1.9-.1-.3-.3-.7-.5-1-.2-.3-.3-.6-.5-.8-.1-.5-.3-.8-.3-.8z" fill="#8C5634"/><path d="M137.6 80.1s0-.2.1-.6c.1-.3.3-.8.6-1.1.3-.4.7-.7 1-.8.3-.2.6-.2.6-.2s0 .1-.1.1c-.1.1-.1.2-.2.3-.2.3-.5.6-.7.9-.3.3-.5.7-.8.9l-.5.5zm-1.4 6.3s.3.1.7.4c.4.3.8.8 1 1.4.1.3.2.6.2.9v.8c0 .2-.1.4-.2.6-.1.1-.1.2-.1.2s0-.3-.1-.8c-.1-.4-.2-1-.4-1.5s-.5-1-.7-1.4l-.4-.6zm-1.4 7.2s.3.1.6.4c.3.3.7.7 1 1.2.3.5.4 1.1.4 1.6s-.1.7-.1.7 0-.1-.1-.2c0-.1-.1-.3-.2-.5-.2-.4-.4-.9-.6-1.3-.3-.5-.5-1-.7-1.3-.2-.3-.3-.6-.3-.6zm.6 5.7s.2.2.4.5.4.8.4 1.2c0 .2 0 .5-.1.7 0 .2-.1.4-.2.6-.2.3-.4.5-.4.5V101c0-.4-.1-.8-.1-1.2v-.5z" fill="#8C5634"/><path d="M138.3 87.3v.3c0 .2 0 .3-.1.5s-.1.3-.2.5l-.2.2v-.3c0-.2 0-.3.1-.5s.1-.3.2-.5l.2-.2zm-1.4 7.5v.4c0 .1-.1.1-.1.2-.1.1-.2.2-.2.3-.1.1-.1.2-.1.2s-.1-.1-.1-.2 0-.3.1-.5c.1-.1.2-.3.3-.3 0-.1.1-.1.1-.1zm-.3 5.3v.2c0 .1-.1.2-.2.4-.1.1-.2.2-.4.2-.1.1-.2.1-.2.1v-.2c0-.1.1-.2.2-.4.1-.1.2-.2.4-.2.1-.1.2-.1.2-.1z" fill="#8C5634"/><path d="M132.9 74.9s-.1.2-.2.5-.3.7-.4 1.2c-.1.3-.1.5-.2.8-.1.3-.1.6-.2.9 0 .3-.1.7-.1 1v1c0 .3.1.7.2 1 .1.3.2.6.3 1 .1.3.2.6.4.9.1.3.3.5.4.7.1.2.2.5.4.6.1.2.2.3.3.5.2.3.3.4.3.4s-.1-.1-.4-.3c-.1-.1-.3-.2-.4-.4-.2-.1-.3-.4-.5-.6-.2-.2-.4-.4-.5-.7-.1-.3-.3-.6-.5-.9-.1-.3-.3-.7-.3-1-.1-.4-.2-.7-.2-1.1-.2-1.5.2-3 .7-4 .4-1 .9-1.5.9-1.5zm5.9 9.6s.5.4.9 1.2c.1.2.2.4.3.7.1.2.2.5.2.8 0 .3.1.6.1.9 0 .3 0 .6-.1.9 0 .3-.2.6-.2.9-.1.3-.3.5-.4.8-.2.2-.3.5-.5.7l-.5.5c-.3.3-.7.5-.9.7-.2.1-.3.2-.3.2l.3-.3c.2-.2.4-.5.7-.8.1-.2.3-.4.4-.6.1-.2.2-.4.4-.7.1-.2.2-.5.3-.7.1-.3.2-.5.2-.8.1-.3.1-.5.1-.8v-.8c-.1-.3-.1-.5-.1-.7-.1-.2-.1-.5-.2-.7-.1-.4-.3-.8-.4-1-.2-.3-.3-.4-.3-.4zm-5 8.5s-.3.3-.5.9c-.1.3-.2.6-.3 1 0 .2 0 .4-.1.6v.6c0 .2 0 .4.1.6.1.2.1.4.2.6.1.4.3.7.4 1 .1.3.2.5.3.7.1.2.1.3.1.3l-.2-.2c-.1-.1-.4-.3-.5-.6-.2-.3-.4-.6-.6-1-.1-.2-.2-.4-.2-.6-.1-.2-.1-.4-.1-.7 0-.5 0-.9.1-1.4.1-.4.3-.8.5-1 .4-.6.8-.8.8-.8zm3.2 5.8s.2.4.4 1c.1.3.1.7.1 1.1 0 .4-.1.9-.3 1.3-.1.2-.2.4-.4.6-.1.2-.3.3-.5.5-.2.1-.4.2-.5.3-.2.1-.3.1-.5.2-.3.1-.6.1-.8.1h-.3s.1-.1.3-.1c.2-.1.4-.2.7-.3.1-.1.3-.1.4-.2.1-.1.3-.2.4-.3.1-.1.3-.2.4-.4.1-.1.2-.3.3-.5.1-.2.1-.3.2-.5 0-.2.1-.4.1-.5.1-.4.1-.7.1-1 0-.9-.1-1.3-.1-1.3z" fill="#8C5634"/><path d="M138.7 69.7c-1.6-7.6-1-23.7 13.1-25.4 9-1.1 20.1 4 17.5 21.5 0 0 1.7 6.6.1 11.5-1.6 4.9-3.8 9.5-9.6 10-8.4.7-18.8-6.8-21.1-17.6z" fill="#FFD0AE"/><path d="M170.3 73.1s0 .5-.1 1.4c-.1.9-.2 2.2-.6 3.7-.4 1.5-1 3.2-2.1 4.9-1.1 1.6-2.7 3.2-4.7 3.9-1 .4-2.1.5-3.1.5s-2-.1-3-.3c-1.9-.3-3.7-.8-5.2-1.4-1.4-.6-2.5-1.4-3.2-1.9-.4-.3-.6-.5-.8-.7l-.3-.3s.4.3 1.2.8c.8.5 1.9 1.1 3.3 1.7 1.4.5 3.2 1 5.1 1.2 1 .1 1.9.2 3 .3 1 .1 2-.1 2.9-.4 1.9-.7 3.4-2.1 4.5-3.7s1.8-3.3 2.2-4.7c.4-1.5.7-2.8.8-3.6 0-.9.1-1.4.1-1.4z" fill="#BF8865"/><path d="M173.7 77.3c-2.6-1.2-1.7-3.1-1.1-7.1.5-3.4-1.6-5.3-2.3-5.8 1 .7 2.6-.2 2.6-.2-2.9 0-2.7-6.2-3.2-9.6-.4-3.4-4.5-9.2-9.6-10.5-5.1-1.3-7.4-.1-7.4-.1-5-1.3-12.3 1.2-14.1 6.7-1.8 5.5-5.7 7.8-5.7 7.8s1.5.5 2.7 0c0 0-2.2 1.8-3 4.9-.5 2 .5 5.2-1.6 5.9 0 0 1.8 1 3.1-.1 0 0-2.7 2.8-1.5 5.2 3.9 7.8 10.2 4.6 10.2 4.6-2.8-6.7 1.3-12.3 1.3-12.3.3.3.6 1.2.8 2 0 1.6-.1 3.9-.4 5.3-.6 2.4-5.5 11.5-.9 13.2 0 0-.2-1 .2-2.4 0 0 .2 7.7 8.1 9 0 0-1.2-1-1.2-1.8 0 0 1.8 2.2 5.1 2.5 3.4.3 3.5 2 3.5 2s2.3-1 2-3.4c0 0 3.8-.1 4.4-3.2 0 0 0 1.6-.6 2.3 0 0 2.7-1.3 2.3-4.8 0 0 .4 1.4 1.8 1.4 0 0-1.4-1.5-.6-2.9.8-1.4 1.6-4.5 1.3-6.3 0 0 .5 2 .5 3 0 0 1-2.1 1.2-5.1 1.1.2 2.1-.2 2.1-.2zm-5.8-2.4c-2 1-13.8 1.9-18.4-2.1 0 0-.1.8 0 1.4-1.6-2-2.6-4.9-3.2-8.2-.1-1.2-.2-2.5-.4-3.9-.4-3.4 1.6-8.2 5.5-10.8 3.9-2.5 7.8.1 7.8.1s1.6-2.3 5.9-.6c4.3 1.7 4.1 11.1 4.2 14.9.4 1.7.7 3.6.8 5.8-.1 1.2-.7 2.6-2.2 3.4z" fill="#BF7547"/><path d="M173.7 77.3s-.2 0-.6-.2c-.4-.2-1-.5-1.3-1.2-.2-.4-.2-.8-.2-1.2 0-.4.2-.8.3-1.3.2-.8.4-1.7.5-2.6.1-.9.1-1.8 0-2.6l-.3-1.2c-.1-.4-.3-.7-.5-1-.3-.6-.7-1-1-1.3-.3-.3-.5-.4-.5-.4s.2.1.5.4c.2.1.4.3.6.5l.7.7c.2.3.4.6.6 1 .1.2.2.4.2.6.1.2.1.4.2.6.1.4.2.9.2 1.4 0 .5 0 1-.1 1.4-.1.9-.3 1.9-.6 2.7-.1.4-.3.8-.3 1.2-.1.4-.1.7 0 1 .2.6.6 1 1 1.2l.6.3zm-.8-13s-.1 0-.4-.1c-.2-.1-.6-.1-1-.4-.4-.3-.6-.8-.8-1.4-.2-.6-.3-1.3-.4-2.1-.2-1.5-.4-3.3-.9-5.2-.4-1.9-1.1-3.8-2.3-5.5-1.1-1.7-2.6-3.1-4.4-3.9-.9-.4-1.7-.7-2.6-1-.8-.3-1.7-.5-2.4-.6-1.5-.3-2.8-.4-3.7-.3-.9.1-1.4.3-1.4.3s.4-.3 1.3-.5 2.2-.2 3.8 0c.8.1 1.6.3 2.5.5.9.2 1.8.5 2.7.9 1.8.8 3.5 2.3 4.6 4.1 1.2 1.8 1.9 3.8 2.3 5.7.4 1.9.5 3.8.7 5.3.1.8.2 1.5.3 2.1.1.6.4 1.1.7 1.4.3.3.7.4.9.5.4.2.5.2.5.2z" fill="#8C5634"/><path d="M159.2 51.5s-.2-.5-.5-1.1c-.3-.7-.8-1.5-1.5-2.2-.3-.4-.6-.7-1-1.1-.3-.3-.6-.6-.9-.8-.3-.2-.5-.4-.7-.6-.2-.1-.3-.2-.3-.2s.1 0 .3.1c.2.1.5.2.8.4.3.2.7.4 1.1.7.4.3.7.7 1.1 1.1.3.4.6.8.8 1.3.2.4.4.9.5 1.2.3.7.3 1.2.3 1.2zm-26.4 12s0-.6.2-1.4c.1-.4.3-.8.6-1.3s.6-.9 1-1.3c.7-.8 1.6-1.5 2.4-1.8.3-.2.7-.3.9-.4.2-.1.3-.1.3-.1s-.1.1-.3.2c-.2.1-.5.3-.8.6-.3.2-.7.5-1 .9l-.5.5c-.2.2-.4.4-.5.6-.4.4-.7.8-1 1.2-.3.4-.5.8-.7 1.1-.5.6-.6 1.2-.6 1.2zm-1.6 5.9s.3 0 .8.1h.8c.3 0 .6-.1.9-.2.3-.1.6-.2.8-.4.1-.1.2-.2.3-.2.1-.1.2-.2.3-.2l.4-.4.2-.2s0 .1-.1.2-.1.4-.3.6c-.1.1-.1.2-.3.4-.1.1-.2.3-.4.3-.1.1-.3.2-.4.3-.2.1-.3.2-.5.2-.4.1-.7.1-1.1.1-.3 0-.6-.1-.9-.2-.2-.2-.5-.4-.5-.4zm6.4-16s.1-.2.2-.6l.5-1.5c.2-.6.5-1.4.8-2.1.2-.4.4-.8.7-1.1.2-.4.6-.7.8-1 .3-.3.6-.6 1-.9.3-.3.7-.5 1.1-.7.4-.2.7-.4 1.1-.5.3-.2.7-.3 1-.4.3-.1.6-.2.9-.2.3 0 .5-.1.7-.1.4-.1.6-.1.6-.1s-.2.1-.6.2c-.2.1-.4.1-.6.2-.3.1-.5.2-.8.4-.3.1-.6.3-.9.5-.3.2-.7.3-1 .6-.3.2-.7.5-1 .7-.3.2-.6.6-.9.9-.3.3-.6.6-.8 1-.3.3-.5.7-.7 1-.4.7-.7 1.4-1 2-.3.6-.5 1.1-.7 1.4-.1.2-.2.3-.2.4-.2-.2-.2-.1-.2-.1z" fill="#8C5634"/><g fill="#8C5634"><path d="M159.5 96.5l.7-.7c.2-.2.4-.5.6-.8.2-.3.4-.6.4-1 .1-.3.1-.7.1-1-.1-.3-.1-.7-.3-.9-.1-.3-.2-.5-.3-.7-.1-.2-.1-.3-.1-.3l.2.2c.1.1.3.3.5.6s.4.6.5 1c0 .2.1.4.1.6 0 .2 0 .5-.1.7-.1.4-.3.8-.6 1.2-.3.3-.6.5-.8.7-.5.3-.9.4-.9.4z"/><path d="M161.5 93.1s.4-.1 1-.4c.6-.3 1.3-.6 1.9-1.1.1-.1.3-.2.4-.4l.4-.4c.1-.1.2-.3.3-.5.1-.1.2-.3.2-.4.1-.3.2-.5.2-.7.1-.2.1-.3.1-.3V90c0 .2-.1.3-.1.5-.1.2-.1.4-.2.6-.2.4-.5.7-.8 1-.4.3-.7.5-1.1.7-.4.2-.8.2-1.1.3h-1.2zm7.8-4.3s-.2-.1-.4-.3c-.2-.2-.5-.6-.6-1.1-.1-.5 0-1.2.3-1.8.2-.6.4-1.2.6-1.9.4-1.3.6-2.6.6-3.6 0-.2 0-.5-.1-.7 0-.2-.1-.4-.1-.5-.1-.3-.2-.4-.2-.4s.1.1.3.4c.1.1.2.3.2.5.1.2.1.4.2.7.2 1.1 0 2.5-.4 3.8-.2.7-.4 1.3-.7 1.9-.3.6-.5 1.1-.4 1.6 0 .5.2.9.3 1.1.3.1.4.3.4.3zm1.2-6.3s.1-.4.2-1 .3-1.4.4-2.1c.1-.8.2-1.5.2-2.1 0-.3 0-.5-.1-.7 0-.2-.1-.3-.1-.3l.2.2c.1.1.1.2.2.3.1.1.1.2.2.4.2.6.2 1.5.1 2.3-.1.8-.4 1.6-.7 2.1-.3.6-.6.9-.6.9zm-5.3 9.7s.3-.2.6-.6c.4-.4.7-.9 1-1.5l.3-.9c.1-.3.1-.6.2-.9.1-.3.1-.5.1-.6v-.2s0 .1.1.2c0 .2.1.4.1.7v1c0 .4-.1.7-.3 1.1-.2.3-.4.7-.6.9-.2.3-.5.5-.7.6-.4.2-.8.2-.8.2zm-13.1 1.7h-.7c-.4 0-1-.1-1.7-.3-.4-.1-.7-.3-1.1-.4-.4-.2-.8-.4-1.1-.7-.4-.3-.7-.6-1.1-.9-.4-.3-.6-.7-.9-1.1-.2-.4-.5-.8-.7-1.3-.2-.5-.4-.9-.5-1.3-.1-.4-.2-.9-.3-1.3 0-.4-.1-.8-.1-1.2-.1-.4 0-.7 0-1v-1.5s0 .2.1.7c.1.4.1 1 .2 1.7.1.3.1.7.2 1.1.1.4.3.8.4 1.2.1.4.3.8.5 1.2.2.4.5.8.7 1.2.3.4.5.8.8 1.1.3.3.6.6 1 .9.3.3.7.5 1 .7.4.2.7.4 1 .5.6.3 1.2.5 1.6.6.4 0 .7.1.7.1zm-8.3-6.7s-.1 0-.4-.1c-.2-.1-.5-.2-.9-.4-.2-.1-.3-.3-.5-.5-.1-.2-.3-.4-.4-.6-.1-.2-.2-.5-.2-.7-.1-.3-.1-.5-.1-.8v-.8c0-.3.1-.5.1-.7.1-.5.3-.9.4-1.3.1-.4.3-.6.4-.8.1-.2.2-.3.2-.3s-.1.5-.2 1.2c0 .4-.2.8-.2 1.3 0 .2-.1.5-.1.7v.7c0 .2 0 .5.1.7 0 .2.1.4.1.7.1.4.3.8.6 1 .2.3.5.5.6.6.4.1.5.1.5.1z"/></g><path d="M145.3 68.7s-1.4-5-4.8-3.6c-3.5 1.5-.5 6.7-.5 6.7s-.4 5.8 4 2.6c1-.7 1.8-3.6 1.3-5.7z" fill="#FFD0AE"/><path d="M140.4 68.4V68c0-.3 0-.6.1-1.1.1-.2.1-.5.3-.7.2-.2.4-.4.8-.5.3-.1.7 0 1 .1.3.1.6.4.8.6.4.5.7 1 .8 1.6.2.5.3 1 .3 1.5.1.9-.1 1.5-.1 1.5s0-.6-.2-1.4c-.2-.8-.6-1.9-1.3-2.7-.2-.2-.3-.3-.5-.4-.2-.1-.4-.1-.6-.1-.4.1-.7.4-.9.8-.2.4-.3.7-.3 1-.1 0-.2.2-.2.2z" fill="#BF8865"/><path d="M143.6 68.1l-.3.3c-.2.2-.4.4-.6.7-.4.5-.8 1.2-.8 1.2v-.5c0-.3.1-.7.4-1 .1-.2.3-.3.4-.4.1-.1.3-.2.4-.2.3-.2.5-.1.5-.1z" fill="#BF8865"/><g transform="translate(150 63)" fill="#4A311F"><ellipse cx="3.6" cy="3.3" rx="1.1" ry="2.1"/><path d="M.3 2.3s.2-.3.7-.7c.2-.2.5-.4.9-.6.3-.2.8-.3 1.2-.3h.6c.2 0 .4.1.6.2.2.1.4.2.5.3.2.1.3.2.4.3.2.2.3.4.4.6l.1.2-.2-.2-.2-.2c-.1-.1-.2-.1-.3-.2-.1-.1-.2-.1-.4-.2-.1-.1-.3-.1-.4-.2-.2-.1-.3-.1-.5-.1h-.5c-.7.1-1.4.3-1.9.6l-1 .5z"/></g><g transform="translate(161 63)" fill="#4A311F"><ellipse cx="4" cy="3" rx="1.1" ry="2.1"/><path d="M.8 1.9s.2-.3.7-.7c.2-.2.5-.4.9-.6.3-.2.8-.3 1.2-.3h.6c.2 0 .4.1.6.2.2.1.4.2.5.3.2.1.3.2.4.3.2.2.3.4.4.6l.1.2-.2-.2-.2-.2c-.1-.1-.2-.1-.3-.2-.1-.1-.2-.1-.4-.2C5 1 4.8 1 4.7.9 4.5.8 4.4.8 4.2.8h-.5c-.7.1-1.4.3-1.9.6-.7.3-1 .5-1 .5z"/></g><path d="M151.2 61.2c-1.4-.4-2.4.4-.4 1.7 2.5 1.6 6.9 1.9 7 .5.2-1.4-1.9-.7-3.1-1-1.2-.3-2.4-.9-3.5-1.2zm15.3-.3c1.2-.4 2.1.4.5 1.7-2 1.6-5.7 1.8-6 .4-.2-1.4 1.6-.7 2.6-.9 1-.3 2-.9 2.9-1.2z" fill="#BF7547"/><path d="M161.3 68.4s.5.2 1.1.8c.6.6 1.3 1.4 1.7 2.6.1.3.1.6.1.9v.4c0 .2-.1.3-.1.4-.2.5-.6.9-1 1.1-.7.5-1.2.6-1.2.6s.1-.1.3-.2c.2-.1.5-.3.7-.6.3-.3.6-.6.7-1 0-.1.1-.2.1-.3v-.3c0-.2-.1-.5-.1-.7-.3-1-.9-1.8-1.3-2.5-.6-.7-1-1.2-1-1.2zm-1.7 6.3s.3-.4.7-.5c.4-.2.8-.1.9-.1l-.2.2c-.1.1-.3.2-.5.3-.5.2-.9.1-.9.1z" fill="#BF8865"/><path d="M156.7 80.3s.5-.2 1.2-.5c.7-.2 1.7-.5 2.7-.6.5 0 1-.1 1.5-.1s.9.1 1.3.2.7.2.9.3c.2.1.3.2.3.2h-.3c-.2 0-.5 0-.9-.1-.7 0-1.7.1-2.7.2-1 .1-2 .2-2.7.3-.8 0-1.3.1-1.3.1z" fill="#8C5634"/><path d="M158.5 74.4c-2.2.3-3.6 1-3.8 2.6 0 0 .6-.6 1.2-.8 0 0-1.6 1-.7 3 0 0 2.2-.6 2.9-1.8 0 0-.3 1 .2 1.7 0 0 2.5-.2 3-2.1 0 0 .4 1.3 2 1.3 0 0 .2-1.2-.4-2 0 0 1 1.1 1.4 1.8 0 0 .7-.7.3-1.3 0 0 .8.4 1 1.4 0 0 2.1-2.6-1.6-4.5-2.4 2.5-3.6 1.5-5.5.7z" fill="#BF7547"/><path d="M155.2 79.3s.2-.1.5-.3c.3-.2.6-.4 1-.6.4-.2.7-.4 1-.5.1-.1.3-.1.3-.2l.1-.1s0 .2-.2.5-.5.6-.9.8c-.4.2-.8.3-1.2.4h-.6zm-.5-2.3s0-.2.2-.4c.1-.2.4-.4.6-.6.3-.2.6-.3.8-.3h.4l-.1.1c-.1 0-.1.1-.2.2-.2.2-.4.3-.7.5-.3.2-.5.3-.7.4-.1.1-.3.1-.3.1zm3.5 2.2s.2-.1.6-.2c.3-.1.7-.3 1.1-.6.4-.2.7-.5.9-.8l.3-.3.1-.1v.2c0 .1 0 .3-.1.5l-.3.6c-.1.2-.3.4-.5.5-.4.3-1 .5-1.4.4-.5-.1-.7-.2-.7-.2zm7.2-.9s0-.1.1-.2.1-.4.2-.6c.1-.5.2-1.1-.1-1.7-.1-.1-.1-.3-.2-.4-.1-.1-.2-.3-.3-.4l-.3-.3-.3-.3c-.2-.2-.4-.3-.5-.4l-.2-.2s.1 0 .2.1.4.1.6.2c.2.1.5.3.8.5.3.2.5.5.7.9.2.4.3.8.2 1.2 0 .4-.2.7-.3.9-.1.2-.3.4-.4.5-.1.2-.2.2-.2.2zm-2.2.1s-.1-.1-.1-.3c0-.1-.1-.2-.1-.3 0-.1 0-.2-.1-.4-.1-.5-.1-1-.1-1s.1.1.3.2c.1.1.1.2.2.3 0 .1.1.3.1.4v.7c-.2.3-.2.4-.2.4zm.9-.2V78c0-.1.1-.3.1-.4 0-.1 0-.1.1-.2 0-.1 0-.1.1-.2 0-.1.1-.2.1-.2s.1.1.1.2c.1.1.1.3.1.5 0 .1-.1.2-.1.3 0 .1-.1.1-.2.2h-.3z" fill="#8C5634"/><path d="M157.9 64.1l.3-.3c.1-.2.2-.4.3-.7.1-.3.1-.6.2-.8 0-.2.1-.4.1-.4s.1.1.2.4c.1.2.1.6 0 .9-.1.3-.3.7-.6.8-.3.2-.5.1-.5.1z" fill="#BF8865"/></g></svg>