<svg width="110" height="90" viewBox="-1 -1 110 90" xmlns="http://www.w3.org/2000/svg"><path fill="#3E5360" d="M109.688 45.623c0-.241 0-.401-.08-.642-9.266-1.684-9.107-2.967-.639-4.891a8.403 8.403 0 0 0-.32-1.363c-7.508-1.042-8.148-2.967-1.837-5.933a39.534 39.534 0 0 0-.719-1.764c-7.748.08-8.228-.161-1.997-4.009-.16-.321-.319-.642-.559-.882-8.068 1.924-8.787 1.202-1.837-2.807-.08-.08-.16-.24-.24-.32-7.509 3.127-7.828 3.287-.879-1.203-.159-.16-.239-.321-.399-.481-6.47 2.566-6.87 1.604-1.837-2.245-.24-.241-.48-.561-.719-.802-5.832 2.726-6.551 2.566-1.598-1.604-.08-.08-.24-.16-.319-.32-5.992 3.528-6.87 2.004-2.876-2.566-.4-.321-.799-.641-1.278-1.042-4.554 2.165-5.991.801-3.755-2.726l-.719-.482c-4.233 3.368-6.151 3.448-3.594-2.084-.24-.161-.559-.321-.799-.481-5.192 5.933-6.071 4.73-3.515-1.684-.24-.08-.479-.16-.719-.321-4.873 6.495-6.071 5.934-3.595-1.363-.159-.08-.319-.16-.559-.16-5.192 7.136-5.432 6.093-4.872-1.443-.24-.081-.56-.161-.799-.161-2.956 7.457-4.633 7.216-3.515-.721-.08 0-.24-.081-.32-.081-3.275 8.259-4.633 7.617-4.952-.641-.16 0-.4 0-.559-.08-2.157 8.579-3.196 8.9-4.314-.161h-.399c-1.998 7.938-1.758 7.136-4.554.241-.479.08-.958.08-1.517.16-.56 7.617 0 7.537-3.915.642l-1.198.24c.959 6.254.4 6.415-3.035.722l-.959.24c1.598 6.575.799 6.415-3.195 1.043l-.719.24c1.917 5.533-.08 6.816-3.994 1.604-.16.08-.24.16-.4.16 2.956 6.334 2.077 7.297-2.796 1.363-.159.08-.239.161-.399.241 3.195 5.853 2.476 6.254-2.556 1.443-.32.16-.639.401-.959.561 2.796 5.052 1.997 5.693-3.115 2.005-.32.24-.559.401-.879.641 4.314 5.853 3.355 6.655-3.515 2.807-.239.16-.399.401-.639.561 5.193 5.933 4.154 6.895-3.674 3.528-.24.24-.48.561-.719.802 4.953 4.57 3.994 5.692-3.275 4.009-.32.401-.639.882-.879 1.282 6.151 4.571 5.432 6.014-3.115 5.212l-.48.962c7.349 4.17 6.63 5.693-2.316 6.254-.08.401-.24.802-.32 1.203 6.071 1.604 5.991 2.486-.559 3.047.24.561.16 1.122.16 1.604 4.873 1.202 4.793 2.325-.16 3.528 0 .721 0 1.363.08 2.084 4.074.642 4.154 1.524.319 2.967.08.721.24 1.443.4 2.165 4.074.24 4.313 1.122.719 2.886.16.642.399 1.203.639 1.764 4.953-.321 5.352.722 1.358 3.207.319.642.639 1.363.958 2.005 5.912-.642 6.631.561 2.317 3.849.24.4.559.801.799 1.122 6.39-2.085 7.029-1.203 2.316 2.967.24.32.56.641.799.882 6.71-2.887 7.509-2.005 2.956 2.966.319.241.639.562.958.802 6.631-3.528 7.829-2.646 3.994 3.127.32.241.719.481 1.119.722 5.352-3.769 6.231-2.967 3.515 2.165.319.16.719.401 1.038.561 4.873-4.731 5.991-4.089 2.876 1.443.239.08.479.241.719.321 5.512-5.773 5.432-5.773 3.195 1.283.399.16.719.24 1.118.401 4.394-5.693 5.352-5.453 3.595 1.042.24.08.479.08.639.16 4.314-7.456 5.592-7.296 4.793.882.16 0 .32.081.479.081 3.515-7.537 4.873-7.457 4.953.4h.959c2.076-5.773 3.434-5.773 4.713-.08h.239c.4 0 .879-.08 1.278-.08.959-5.212 2.077-5.292 3.515-.321.479-.08.879-.08 1.358-.16.479-5.452 1.518-5.613 3.675-.481.319-.08.719-.08 1.038-.16-.479-6.816.479-6.896 3.275-.562.16 0 .32-.08.48-.08-1.438-7.296-.56-7.537 3.275-.721.239-.081.479-.081.639-.161-1.598-6.414-.719-6.735 3.275-.802.24-.08.479-.16.719-.16-2.317-6.174-1.358-6.495 3.435-1.042.399-.161.799-.241 1.198-.401-1.997-5.934-.479-6.495 5.192-2.005.4-.16.799-.32 1.198-.561-2.715-3.929-2.236-4.169 1.838-.882.399-.241.878-.401 1.278-.641-1.997-3.127-1.198-3.609 2.716-1.604.719-.481 1.518-.962 2.157-1.443-1.838-2.887-.799-3.608 3.115-2.486.799-.721 1.598-1.443 2.317-2.165-3.755-4.169-2.876-5.452 3.594-4.41.32-.481.719-1.042 1.039-1.523-5.113-3.528-4.234-4.57 2.077-4.089l.479-1.203c-6.391-2.165-6.55-2.405.24-.802.079-.16.079-.32.159-.481-7.748-3.287-7.269-6.254 1.278-5.532.08-.401.08-.802.16-1.123-7.668-3.367-7.429-2.165.24-2.726 0-.481 0-.962.08-1.443-5.033-1.203-7.829-2.005-.08-2.806z"/><path fill="#DBCCB6" d="M94.747 63.883c.479-4.811-3.195-4.49-5.672-7.457-2.636-3.207-24.363-3.207-23.005.642 2.076 5.853 4.792 11.385 26.041 8.018l2.636-1.203z"/><path fill="#65746F" d="M91.312 62.359s1.118 2.566 2.556 2.566 2.557-2.566 2.557-2.566c0-1.443-1.119-2.004-2.557-2.084-1.438.08-2.556.721-2.556 2.084z"/><path fill="#DBCCB6" d="M61.02 43.596c2.876-1.604 1.199-10.343-2.236-10.985-4.394-.721-4.554 6.094-1.438 7.938l3.674 3.047zm31.314 7.697c-1.598-2.806 4.394-9.461 7.589-8.178 4.154 1.684.719 7.617-2.876 7.537l-4.713.641z"/><path fill="#DBCCB6" d="M94.332 50.317c-2.236-2.486-12.701 2.245-18.932.641-6.23-1.603-13.1-10.904-16.216-9.782-4.872 1.684-3.035 8.82-.798 13.47 1.597 3.448 7.748 8.82 15.097 10.344 7.189 2.245 12.542.24 15.098-2.486 2.396-2.566 9.266-8.339 5.751-12.187z"/><path fill="#C6A87B" opacity=".6" d="M64.949 39.813c2.077-.08 3.275 1.684 3.674 3.528.16.722 1.199.401 1.119-.321-.48-2.325-2.237-4.49-4.793-4.329-.799.08-.799 1.202 0 1.122zm18.109 8.326c1.278-2.004 3.595-3.448 5.911-2.245.639.321 1.198-.641.559-.962-2.875-1.523-5.831.08-7.429 2.646-.399.641.56 1.203.959.561z"/><path fill="#3E5360" d="M62.139 48.968c1.118 1.844 2.636 3.287 4.873 2.566.639-.161.319-1.123-.24-.962-1.837.561-2.876-.642-3.755-2.165-.319-.481-1.198 0-.878.561zm20.13 5.693c1.837 2.245 4.314 2.084 6.39.24.48-.401-.239-1.122-.718-.721-1.678 1.523-3.515 1.603-5.033-.241-.399-.481-1.118.241-.639.722z"/></svg>