<svg width="120" height="120" viewBox="0 0 120 120" xmlns="http://www.w3.org/2000/svg" xmlns:xlink="http://www.w3.org/1999/xlink"><defs><path id="a" d="M.469.264h105.675v82.609H.47z"/><path id="c" d="M0 .177h25.373v25.408H0z"/><path id="e" d="M.519 1.039h22.144v11.836H.52z"/><path id="g" d="M.716 1.039H22.86v11.836H.716z"/></defs><g fill="none" fill-rule="evenodd"><path d="M11.99 64.85c0 24.012 19.438 43.487 43.429 43.487 23.98 0 43.426-19.475 43.426-43.488 0-23.264-18.814-43.487-43.426-43.487-23.991 0-43.428 19.462-43.428 43.487" fill="#AA7A3F"/><g transform="matrix(-1 0 0 1 107.143 9.809)"><mask id="b" fill="#fff"><use xlink:href="#a"/></mask><path d="M106.145 53.94l-11.466-4.715 9.975-8.959-12.403-.868c-.002-.003-.004-.006-.004-.01l7.488-9.582-11.783 1.257L93.28 18.9l-11.953 4.46-.01-.01 2.563-11.48-9.787 6.01-.046-.028-.274-12.07-8.034 8.164c-.035-.013-.069-.027-.105-.038L63.93 2.428l-7.21 9.442-.193-.021L51.756.264l-5.01 11.556c-.083.008-.162.021-.241.03L37.61 1.716l-.98 12.287-9.75-7.7 1.236 12.064c-.055.035-.112.067-.165.103l-11.678-5.984 3.818 12.488c-.078.081-.151.166-.228.249L6.979 23.42l7.054 9.662c-.036.06-.069.123-.104.183l-13.46.591 9.517 9.003C2.765 69.963 28.591 82.423 51.439 82.863c19.085.366 36.52-9.461 41.688-23.24l13.018-5.683z" fill="#573512" mask="url(#b)"/></g><path d="M67.437 81.914c0 12.21 9.884 22.107 22.076 22.107 12.19 0 22.075-9.898 22.075-22.107 0-12.208-9.884-22.105-22.075-22.105-12.192 0-22.076 9.897-22.076 22.105" fill="#BC8C4B"/><path d="M75.743 78.863c.35.056.7.1 1.052.146-1.972 5.842.237 12.474 5.705 15.839 5.226 3.216 11.758 2.427 16.094-1.483.237.253.475.503.718.75-4.67 4.23-11.72 5.09-17.356 1.622-5.833-3.591-8.226-10.628-6.213-16.874" fill="#573512"/><g transform="matrix(-1 0 0 1 120 52.726)"><mask id="d" fill="#fff"><use xlink:href="#c"/></mask><path d="M25.373 12.881c0 7.016-5.68 12.704-12.686 12.704C5.68 25.585 0 19.897 0 12.88 0 5.866 5.68.177 12.687.177S25.373 5.866 25.373 12.88" fill="#BC8C4B" mask="url(#d)"/></g><path d="M96.46 65.607c0 6.002 4.859 10.867 10.852 10.867 5.994 0 10.853-4.865 10.853-10.867 0-6.002-4.859-10.868-10.853-10.868-5.993 0-10.852 4.866-10.852 10.868" fill="#FFF"/><path d="M103.11 65.607a4.206 4.206 0 0 0 4.203 4.209 4.207 4.207 0 0 0 4.204-4.21 4.207 4.207 0 0 0-4.204-4.21 4.206 4.206 0 0 0-4.203 4.21" fill="#171B1F"/><path d="M70.65 65.434c0 7.016 5.68 12.704 12.687 12.704 7.006 0 12.686-5.688 12.686-12.704 0-7.016-5.68-12.704-12.686-12.704-7.008 0-12.688 5.688-12.688 12.704" fill="#BC8C4B"/><path d="M72.485 65.434c0 6.002 4.857 10.868 10.852 10.868 5.994 0 10.85-4.866 10.85-10.868 0-6.002-4.856-10.868-10.85-10.868-5.995 0-10.852 4.866-10.852 10.868" fill="#FFF"/><path d="M79.133 65.434a4.206 4.206 0 0 0 4.204 4.21 4.205 4.205 0 0 0 4.202-4.21 4.205 4.205 0 0 0-4.202-4.209 4.206 4.206 0 0 0-4.204 4.209" fill="#171B1F"/><path d="M102.537 84.31c0 4.43 3.587 8.023 8.011 8.023 4.425 0 8.014-3.593 8.014-8.023 0-4.433-3.589-8.025-8.014-8.025-4.424 0-8.011 3.592-8.011 8.025" fill="#191C1F"/><g transform="matrix(-1 0 0 1 82.5 98.861)"><mask id="f" fill="#fff"><use xlink:href="#e"/></mask><path d="M22.663 12.875H.52V9.332C.519 4.753 4.227 1.04 8.8 1.04h13.862v11.836z" fill="#BC8C4B" mask="url(#f)"/></g><g transform="matrix(-1 0 0 1 52.5 98.861)"><mask id="h" fill="#fff"><use xlink:href="#g"/></mask><path d="M22.86 12.875H.716V9.332c0-4.579 3.708-8.293 8.282-8.293H22.86v11.836z" fill="#BC8C4B" mask="url(#h)"/></g></g></svg>