<svg width="90" height="87" viewBox="0 0 90 87" xmlns="http://www.w3.org/2000/svg"><g fill="none" fill-rule="evenodd"><path d="M45.295 64.4l19.27 20.49m8.73 0c-2.154 0-2.154-2.101-4.307-2.101-2.152 0-2.152 2.101-4.304 2.101-2.155 0-2.155-2.101-4.309-2.101-2.153 0-2.153 2.101-4.307 2.101" stroke="#FFDB5D" stroke-width="1.05"/><path d="M55.112 65.626v7.894c0 1.094-1.314 1.642-2.082.869l-8.185-8.237 10.267-.526z" fill="#FFF4E3"/><path d="M40.668 72.106V84.89m8.729 0c-2.153 0-2.153-2.101-4.306-2.101-2.152 0-2.152 2.101-4.305 2.101-2.154 0-2.154-2.101-4.308-2.101s-2.154 2.101-4.308 2.101" stroke="#FFDB5D" stroke-width="1.05"/><path d="M39.494 65.626v7.894c0 1.094 1.314 1.642 2.083.869l8.184-8.237-10.267-.526z" fill="#FFF4E3"/><path d="M79.169 36.614c0 17.925-14.44 32.456-32.25 32.456-17.811 0-32.25-14.53-32.25-32.456h64.5z" fill="#FFF4E3"/><path d="M23.24 45.239l12.5-.989c.16-1.082.245-2.189.245-3.316 0-12.316-9.92-22.3-22.157-22.3-1.24 0-2.456.108-3.64.305l7.178 7.225h-7.25l5.713 5.75H10L23.24 45.24zM80.3 30.995l-1.697 11.69-18.967-5.91s6.09-14.361 18.097-14.361l2.567 8.581z" fill="#FFF4E3"/><path d="M67.568 36.614c0 11.477-9.245 20.781-20.65 20.781-8.245 0-15.362-4.864-18.671-11.897h12.465l-13.66-8.884h40.516z" fill="#F3E4CE"/><path d="M86.977 33.414c0 2.436-1.962 4.411-4.383 4.411-2.42 0-4.382-1.975-4.382-4.411 0-2.436 1.962-4.411 4.382-4.411 2.421 0 4.383 1.975 4.383 4.411m-1.044-12.803c.065-.29.083-.6.047-.918-.14-1.208-1.1-2.205-2.298-2.374a2.702 2.702 0 0 0-2.797 1.45l.002-.044A2.717 2.717 0 0 0 78.179 16a2.7 2.7 0 0 0-2.382 1.433.61.61 0 0 1-.799.271 2.677 2.677 0 0 0-1.113-.238c-1.43.005-2.648 1.19-2.697 2.63a2.717 2.717 0 0 0 2.508 2.812l.073-.002h2.566c.233 0 4.507 2.31 6.534 2.5a2.704 2.704 0 0 0 2.857 1.577c1.186-.167 2.142-1.142 2.294-2.338a2.727 2.727 0 0 0-1.505-2.81 1.1 1.1 0 0 1-.582-1.224" fill="#CE2235"/><path d="M80.226 17.239s-.27-.7.172-.074.956.833 1.583.467c.626-.367-.187 1.72-.187 1.72l-1.126.087-.7-.461.258-1.74z" fill="#CE2235"/><path d="M88.984 29.791c-1.09-1.883-3.111-3.152-5.433-3.152-2.321 0-4.342 1.27-5.432 3.152h10.865z" fill="#FFDB5D"/><path d="M84.04 27.179c0 3.316-2.671 6.005-5.966 6.005-3.296 0-5.967-2.689-5.967-6.005 0-3.317 2.67-6.006 5.967-6.006 3.295 0 5.967 2.689 5.967 6.006" fill="#E8441D"/><path d="M80.785 27.179a2.72 2.72 0 0 1-2.711 2.728 2.72 2.72 0 0 1-2.712-2.728 2.72 2.72 0 0 1 2.712-2.729 2.72 2.72 0 0 1 2.71 2.729" fill="#FFF4E3"/><path d="M79.843 27.179c0 .983-.792 1.78-1.77 1.78a1.775 1.775 0 0 1-1.769-1.78c0-.984.792-1.781 1.77-1.781.977 0 1.769.797 1.769 1.78" fill="#17242D"/></g></svg>