<svg width="120" height="120" viewBox="0 0 120 120" xmlns="http://www.w3.org/2000/svg"><g fill="none" fill-rule="evenodd"><path fill="#EFC12E" d="M51.34 116.326h15.47V55.142H51.34z"/><path fill="#998675" d="M24.604 116.326h.943v-57.41h-.943zm68.352 0h.943v-57.41h-.943zm-34.164 0h.943v-57.41h-.943z"/><path d="M17.612 111.69c.532-1.386 2.026-2.385 3.787-2.385 1.76 0 3.255.999 3.786 2.385h-7.573zm15.146 0c-.53-1.386-2.025-2.385-3.786-2.385-1.76 0-3.255.999-3.787 2.385h7.573zm0 0c.532-1.386 2.026-2.385 3.787-2.385 1.76 0 3.255.999 3.786 2.385h-7.573zm15.146 0c-.531-1.386-2.026-2.385-3.786-2.385-1.76 0-3.255.999-3.787 2.385h7.573zm0 0c.532-1.386 2.026-2.385 3.786-2.385 1.762 0 3.256.999 3.787 2.385h-7.573zm15.146 0c-.531-1.386-2.026-2.385-3.786-2.385-1.76 0-3.255.999-3.787 2.385h7.573zm0 0c.531-1.386 2.026-2.385 3.787-2.385 1.76 0 3.254.999 3.786 2.385H63.05z" fill="#D64752"/><path d="M78.196 111.69c-.531-1.386-2.026-2.385-3.787-2.385-1.76 0-3.254.999-3.786 2.385h7.573zm0 0c.531-1.386 2.026-2.385 3.786-2.385 1.76 0 3.255.999 3.787 2.385h-7.573z" fill="#D64752"/><path d="M93.341 111.69c-.53-1.386-2.026-2.385-3.785-2.385-1.762 0-3.256.999-3.787 2.385h7.572zm0 0c.532-1.386 2.026-2.385 3.787-2.385 1.76 0 3.255.999 3.786 2.385h-7.573z" fill="#D64752"/><path d="M25.098 119.318h68.33c3.956 0 3.432-4.676 7.486-7.628H17.612c4.055 2.952 3.53 7.628 7.486 7.628" fill="#D36C76"/><path d="M105.01 87.748s-1.728-3.095-4.461-1.964l.569.604c.155-.06.6.052 1.724 1.858 0 0 2.158 3.148 4.771 1.777 0 0-1.74-.488-2.603-2.275" fill="#65C8D0"/><path d="M83.041 75.72s2.118-1.037 4.2.352c1.062.709 3.106 2 4.133 7.588l-2.21.029-2.455-5-3.33-2.374-.338-.594z" fill="#000"/><path d="M83.041 75.168s2.118-1.038 4.2.351c1.062.709 3.106 2 4.133 7.588l-2.21.029-2.455-5-3.33-2.374-.338-.594z" fill="#65C8D0"/><path d="M95.566 84.104s.093-.24.335-.224c.274.019.089.325.089.325l-.424-.1z" fill="#403833"/><path d="M107.202 97.468c.02.002.039.003.057.006a.264.264 0 0 1 .21.273l-.087 1.765a.18.18 0 0 1-.213.168.177.177 0 0 1-.06-.026c-.143-.09-.288-.175-.435-.259l.12-1.96c.131.022.267.036.408.033M81.63 93.254c.012-.001.027.003.04.005.148.03.25.178.22.33l-.235 1.232a.284.284 0 0 1-.436.184 12.147 12.147 0 0 1-.252-.175l.336-1.606c.112.014.224.022.327.03" fill="#102F41"/><path d="M81.72 78.06c-.037-.573-.055-1.274.413-1.694.162-.261.211-.626.264-.916.037-.197.031-.915.215-.877.041.008.094.056.158.153.178.279.599 1.038.794 1.077a.056.056 0 0 0 .025.002 2.8 2.8 0 0 1 1.071.021c.089.018.177.039.268.064 1.188.336 2.475 1.04 3.211 2.037.834 1.129 1.064 2.508 1.63 3.766.527 1.165 1.768 1.753 3.053 2.078.159.039.321.078.48.111a16.362 16.362 0 0 0 1.575.235c.823.09 1.654.09 2.478.175.287.03.573.07.855.128.216.044.43.098.642.169 1.763.571 3.266 2.137 3.406 4.033.065.53.225 2.849.217 2.95-.069.764.72 1.127 1.165 1.593.352.367.625.807.804 1.282.172.462.242.938.45 1.39.357.793.987 1.418 1.813 1.586.028.006.057.008.086.013l-.119 1.96c-.686-.395-1.379-.741-1.94-1.333a5.639 5.639 0 0 1-.968-1.406c-.334-.685-.556-1.388-1.033-1.996a5.336 5.336 0 0 0-1.795-1.49c-.465-.253-.977-.42-1.414-.72-.65-.443-.89-1.221-1.49-1.707a2.402 2.402 0 0 0-1.06-.486c-.546-.112-1.131-.073-1.672.033-.698.133-1.366.365-2.058.528a8.937 8.937 0 0 1-.589.116 8.075 8.075 0 0 1-1.306.088 9.334 9.334 0 0 1-1.724-.187 9.701 9.701 0 0 1-2.637-.952.53.53 0 0 0-.42-.033c-.104.038-.21.074-.24.085-.55.178-1.061.217-1.571.113a3.5 3.5 0 0 1-.834-.296c-.518-.26-1.048-.545-1.624-.663l-.088-.019c-.92-.157-1.461.483-1.698 1.3-.194.665-.544 2.1.09 2.605.142.115.321.18.508.219.064.013.128.021.192.03l-.336 1.605c-.617-.44-1.207-.949-1.514-1.66-.388-.89-.174-1.941.096-2.834.257-.852.524-1.909 1.23-2.506.58-.493 1.32-.323 2.017-.407.476-.06 1.068-.28 1.579-.198a.182.182 0 0 0 .199-.247c-.165-.408-.31-1.112-.175-2.399.06-.564.695-4.32-.192-4.502a.382.382 0 0 0-.076-.006c-.366.01-.41.456-.466.73-.095.449-.312.96-.688 1.24a.804.804 0 0 1-.653.141.92.92 0 0 1-.651-.517c-.373-.814.181-1.82.165-2.673-.006-.321-.1-.617-.119-.932" fill="#C7B299"/><path d="M96.026 84.1s-1.137 4.63-4.107 3.582-1.876-5.606-1.876-5.606.931 1.13 2.748 1.59c1.69.427 3.235.434 3.235.434" fill="#3F4C8E"/><path d="M86.379 83.653c.162.034.311.052.445.062 1.29.095 2.676-.53 3.285-1.463.036.017.068.04.079.064.013.025-.003.065-.019.095l.259.14c.087-.164.061-.289.025-.364-.095-.198-.35-.25-.383-.255l-.101-.018-.052.088c-.441.765-1.668 1.523-3.072 1.42-1.367-.102-2.456-1.01-3.07-2.562l-.034-.086-.09-.008c-.966-.077-1.477-.26-1.782-.372-.101-.036-.176-.063-.24-.076l-.06.288c.045.01.114.035.2.065.29.105.821.296 1.767.382.755 1.83 1.972 2.423 2.843 2.6" fill="#3F4C8E"/><path d="M82.488 77.894a.225.225 0 1 0 .44.09.225.225 0 0 0-.44-.09" fill="#102F41"/><path fill="#3F4C8E" d="M83.921 80.822l-.54-.111 1.009-4.94.54.11z"/><path d="M36.768 87.748s-1.727-3.095-4.461-1.964l.57.604c.155-.06.6.052 1.723 1.858 0 0 2.158 3.148 4.772 1.777 0 0-1.74-.488-2.604-2.275" fill="#FF9FB0"/><path d="M14.8 75.72s2.118-1.037 4.2.352c1.062.709 3.106 2 4.132 7.588l-2.21.029-2.455-5-3.33-2.374-.337-.594z" fill="#000"/><path d="M14.8 75.168s2.118-1.038 4.2.351c1.062.709 3.106 2 4.132 7.588l-2.21.029-2.455-5-3.33-2.374-.337-.594z" fill="#FF9FB0"/><path d="M27.325 84.104s.093-.24.335-.224c.273.019.088.325.088.325l-.423-.1z" fill="#403833"/><path d="M38.96 97.468c.02.002.04.003.057.006a.264.264 0 0 1 .21.273l-.086 1.765a.18.18 0 0 1-.213.168.177.177 0 0 1-.06-.026c-.144-.09-.29-.175-.435-.259l.119-1.96c.132.022.268.036.408.033m-25.572-4.214c.013-.001.027.003.04.005.148.03.25.178.22.33l-.235 1.232a.284.284 0 0 1-.435.184 12.147 12.147 0 0 1-.252-.175l.336-1.606c.111.014.223.022.326.03" fill="#102F41"/><path d="M13.477 78.06c-.036-.573-.053-1.274.415-1.694.16-.261.211-.626.263-.916.038-.197.032-.915.216-.877.04.008.094.056.157.153.179.279.6 1.038.795 1.077a.055.055 0 0 0 .025.002 2.8 2.8 0 0 1 1.07.021c.09.018.178.039.269.064 1.187.336 2.474 1.04 3.21 2.037.835 1.129 1.065 2.508 1.631 3.766.527 1.165 1.767 1.753 3.052 2.078.16.039.321.078.482.111a16.323 16.323 0 0 0 1.574.235c.822.09 1.654.09 2.478.175.287.03.573.07.854.128.217.044.431.098.643.169 1.763.571 3.265 2.137 3.405 4.033.065.53.225 2.849.216 2.95-.067.764.721 1.127 1.167 1.593.352.367.624.807.803 1.282.172.462.242.938.45 1.39.358.793.988 1.418 1.813 1.586.028.006.058.008.087.013l-.12 1.96c-.686-.395-1.378-.741-1.938-1.333a5.626 5.626 0 0 1-.97-1.406c-.334-.685-.556-1.388-1.032-1.996a5.336 5.336 0 0 0-1.796-1.49c-.464-.253-.977-.42-1.414-.72-.648-.443-.889-1.221-1.489-1.707a2.402 2.402 0 0 0-1.06-.486c-.546-.112-1.132-.073-1.672.033-.698.133-1.367.365-2.058.528a9.025 9.025 0 0 1-.589.116 8.075 8.075 0 0 1-1.307.088 9.334 9.334 0 0 1-1.723-.187 9.712 9.712 0 0 1-2.638-.952.524.524 0 0 0-.42-.033c-.103.038-.21.074-.239.085-.55.178-1.062.217-1.571.113a3.512 3.512 0 0 1-.835-.296c-.517-.26-1.047-.545-1.623-.663l-.089-.019c-.92-.157-1.46.483-1.698 1.3-.193.665-.544 2.1.09 2.605.142.115.322.18.508.219.064.013.129.021.193.03l-.336 1.605c-.618-.44-1.207-.949-1.514-1.66-.388-.89-.175-1.941.097-2.834.255-.852.523-1.909 1.228-2.506.58-.493 1.32-.323 2.017-.407.476-.06 1.068-.28 1.58-.198a.182.182 0 0 0 .199-.247c-.165-.408-.31-1.112-.175-2.399.06-.564.696-4.32-.192-4.502a.382.382 0 0 0-.076-.006c-.366.01-.411.456-.466.73-.095.449-.313.96-.688 1.24a.804.804 0 0 1-.653.141.925.925 0 0 1-.653-.517c-.372-.814.182-1.82.167-2.673-.006-.321-.101-.617-.12-.932" fill="#C7B299"/><path d="M27.784 84.1s-1.136 4.63-4.107 3.582c-2.969-1.048-1.874-5.606-1.874-5.606s.93 1.13 2.747 1.59c1.69.427 3.234.434 3.234.434" fill="#3F4C8E"/><path d="M18.138 83.653c.161.034.312.052.444.062 1.29.095 2.676-.53 3.286-1.463.035.017.069.04.08.064.011.025-.005.065-.02.095l.258.14c.087-.164.062-.289.025-.364-.095-.198-.35-.25-.382-.255l-.102-.018-.052.088c-.44.765-1.667 1.523-3.072 1.42-1.365-.102-2.455-1.01-3.07-2.562l-.033-.086-.09-.008c-.966-.077-1.478-.26-1.782-.372-.102-.036-.176-.063-.24-.076l-.06.288c.045.01.113.035.2.065.289.105.82.296 1.767.382.754 1.83 1.97 2.423 2.843 2.6" fill="#3F4C8E"/><path d="M14.246 77.894a.225.225 0 1 0 .441.09.225.225 0 0 0-.441-.09" fill="#102F41"/><path fill="#3F4C8E" d="M15.68 80.822l-.54-.111 1.009-4.94.54.11z"/><path d="M73.724 93.452s-2.086-3.739-5.387-2.374l.688.73c.187-.073.725.063 2.081 2.244 0 0 2.607 3.803 5.763 2.148 0 0-2.1-.59-3.145-2.748" fill="#838BC5"/><path d="M47.19 78.81s2.559-1.254 5.073.423c1.283.857 3.753 2.416 4.992 9.165l-2.669.036-2.966-6.04-4.022-2.867-.408-.718z" fill="#000"/><path d="M47.19 78.256s2.559-1.253 5.073.424c1.283.857 3.753 2.416 4.992 9.165l-2.669.036-2.966-6.04-4.022-2.867-.408-.718z" fill="#838BC5"/><path d="M62.318 89.05s.113-.29.406-.27c.33.022.106.392.106.392l-.512-.122z" fill="#403833"/><path d="M76.372 105.192c.026.002.048.002.07.007.15.03.261.165.253.329l-.104 2.133a.215.215 0 0 1-.33.171 15.11 15.11 0 0 0-.525-.313l.143-2.366c.16.026.324.041.493.039m-30.886-5.09a.343.343 0 0 1 .314.404l-.285 1.49a.343.343 0 0 1-.525.221 18.81 18.81 0 0 1-.305-.212l.406-1.94c.135.017.269.027.395.037" fill="#102F41"/><path d="M45.593 81.748c-.043-.69-.065-1.538.5-2.044.195-.316.255-.757.32-1.107.043-.238.037-1.105.259-1.06.05.01.113.07.19.185.216.336.724 1.253.96 1.301.01.003.022.005.03.003a3.385 3.385 0 0 1 1.293.025c.108.022.215.048.325.077 1.434.406 2.989 1.255 3.878 2.46 1.008 1.363 1.285 3.03 1.97 4.55.636 1.406 2.134 2.117 3.686 2.51.192.046.388.093.581.134a19.675 19.675 0 0 0 1.903.282c.992.111 1.996.11 2.992.212.345.038.69.086 1.031.155.262.054.521.118.777.204 2.128.69 3.943 2.582 4.113 4.87.078.642.272 3.443.261 3.564-.082.924.87 1.362 1.409 1.925.425.443.754.974.97 1.547.208.56.292 1.135.543 1.68.433.958 1.194 1.713 2.19 1.917.034.007.07.009.105.015l-.143 2.366c-.83-.476-1.666-.894-2.343-1.61a6.82 6.82 0 0 1-1.171-1.697c-.403-.827-.671-1.676-1.246-2.411a6.46 6.46 0 0 0-2.169-1.8c-.56-.305-1.18-.507-1.708-.87-.784-.535-1.074-1.474-1.8-2.06a2.9 2.9 0 0 0-1.279-.588c-.66-.136-1.367-.09-2.02.04-.843.16-1.651.441-2.486.638a9.766 9.766 0 0 1-.712.139 9.708 9.708 0 0 1-1.578.108 11.306 11.306 0 0 1-2.082-.227 11.744 11.744 0 0 1-3.185-1.15.617.617 0 0 0-.506-.04l-.29.102c-.664.217-1.283.262-1.899.136a4.183 4.183 0 0 1-1.006-.356c-.627-.315-1.266-.658-1.962-.801l-.107-.023c-1.111-.189-1.765.583-2.05 1.57-.234.803-.658 2.537.108 3.145.172.141.388.22.613.266.078.016.156.026.233.035l-.405 1.94c-.747-.532-1.459-1.145-1.83-2.003-.468-1.077-.21-2.346.118-3.426.308-1.027.632-2.305 1.483-3.026.7-.595 1.595-.39 2.437-.492.575-.073 1.29-.339 1.907-.238a.22.22 0 0 0 .24-.3c-.198-.493-.372-1.341-.21-2.896.071-.683.84-5.218-.232-5.438a.42.42 0 0 0-.092-.008c-.442.012-.496.551-.563.881-.114.543-.377 1.16-.83 1.498a.978.978 0 0 1-.79.172 1.119 1.119 0 0 1-.787-.625c-.45-.983.219-2.2.2-3.23-.008-.386-.121-.744-.144-1.126" fill="#C7B299"/><path d="M62.873 89.046s-1.372 5.59-4.96 4.325c-3.587-1.266-2.264-6.77-2.264-6.77s1.124 1.363 3.317 1.919a18.39 18.39 0 0 0 3.907.526" fill="#3F4C8E"/><path d="M51.222 88.505c.195.04.377.063.537.076 1.56.113 3.232-.64 3.967-1.769.045.021.084.049.097.077.015.031-.005.08-.023.117l.312.167c.105-.198.074-.348.03-.439-.115-.239-.422-.3-.461-.308l-.124-.023-.062.108c-.533.924-2.014 1.84-3.71 1.714-1.651-.122-2.966-1.22-3.708-3.094l-.04-.103-.11-.01c-1.167-.094-1.784-.315-2.152-.449a2.401 2.401 0 0 0-.291-.093l-.071.35c.054.01.136.04.24.078.35.125.992.357 2.136.46.911 2.21 2.38 2.926 3.433 3.141" fill="#3F4C8E"/><path d="M46.522 81.549a.271.271 0 1 0 .531.11.271.271 0 0 0-.531-.11" fill="#102F41"/><path fill="#3F4C8E" d="M48.197 85.074l-.54-.111 1.218-5.968.54.111z"/><path d="M60.498 49.56l39.241-1.538S67.044 32.412 63.033 9.358H54.32c-4.97 23.383-36.706 38.664-36.706 38.664l41.562 1.541.001.05.644-.026.68.025-.002-.052z" fill="#D36C76"/><path d="M62.743 3.54c0 .272-.172.494-.384.494h-7.012c-.212 0-.384-.222-.384-.495 0-.272.172-.494.384-.494h7.012c.212 0 .384.222.384.494" fill="#DB9523"/><path d="M55.648 3.046A3.041 3.041 0 0 1 58.685 0a3.042 3.042 0 0 1 3.036 3.046" fill="#DB9523"/><path d="M54.319 9.358s.82-2.14 1.039-5.324h6.783s.185 2.662.893 5.324" fill="#F3B236"/><path d="M63.77 8.864c0 .273-.22.494-.492.494h-8.972a.493.493 0 0 1-.492-.494c0-.273.22-.494.492-.494h8.972c.273 0 .493.221.493.494" fill="#DB9523"/><path d="M17.612 48.022v10.893c.526 1.387 2 2.385 3.739 2.385 1.739 0 3.213-.998 3.737-2.385.526 1.387 2.001 2.385 3.74 2.385 1.738 0 3.213-.998 3.737-2.385.524 1.387 2 2.385 3.739 2.385 1.737 0 3.213-.998 3.737-2.385.526 1.387 2 2.385 3.74 2.385 1.737 0 3.212-.998 3.738-2.385.524 1.387 1.999 2.385 3.737 2.385 1.74 0 3.214-.998 3.738-2.385.525 1.387 2 2.385 3.739 2.385 1.738 0 3.213-.998 3.738-2.385.524 1.387 2 2.385 3.738 2.385 1.739 0 3.214-.998 3.738-2.385.525 1.387 2 2.385 3.739 2.385 1.738 0 3.213-.998 3.738-2.385.525 1.387 2 2.385 3.738 2.385s3.213-.998 3.738-2.385c.525 1.387 2 2.385 3.739 2.385 1.737 0 3.213-.998 3.737-2.385.524 1.387 2 2.385 3.739 2.385 1.738 0 3.213-.998 3.737-2.385V48.022h-82.24z" fill="#D64752"/><path d="M72.492 49.612c0 4.775-5.933 8.645-13.252 8.645-7.319 0-13.252-3.87-13.252-8.645 0-4.774 5.933-8.645 13.252-8.645 7.32 0 13.252 3.87 13.252 8.645" fill="#D64752"/><path d="M24.269 53.408c0-.944.762-1.71 1.703-1.71.941 0 1.704.766 1.704 1.71s-.763 1.71-1.704 1.71c-.94 0-1.703-.766-1.703-1.71m6.334 0c0-.944.763-1.71 1.704-1.71s1.704.766 1.704 1.71-.763 1.71-1.704 1.71c-.94 0-1.704-.766-1.704-1.71m6.75 0c0-.944.762-1.71 1.703-1.71.942 0 1.704.766 1.704 1.71s-.762 1.71-1.704 1.71c-.94 0-1.703-.766-1.703-1.71m40.43 0c0-.944.762-1.71 1.703-1.71.941 0 1.704.766 1.704 1.71s-.763 1.71-1.704 1.71c-.94 0-1.703-.766-1.703-1.71m6.334 0c0-.944.763-1.71 1.704-1.71s1.704.766 1.704 1.71-.763 1.71-1.704 1.71c-.94 0-1.704-.766-1.704-1.71m6.75 0c0-.944.762-1.71 1.703-1.71.942 0 1.704.766 1.704 1.71s-.762 1.71-1.704 1.71c-.94 0-1.703-.766-1.703-1.71m-21.422-2.925c0 2.978-4.569 5.392-10.205 5.392s-10.205-2.414-10.205-5.392 4.57-5.391 10.205-5.391c5.636 0 10.205 2.413 10.205 5.391" fill="#F3B236"/></g></svg>