<svg width="120" height="120" viewBox="0 0 120 120" xmlns="http://www.w3.org/2000/svg"><g fill="none" fill-rule="evenodd"><path d="M33.503 114.857a2.002 2.002 0 0 1-4.003 0v-2.407a2.001 2.001 0 1 1 4.003 0v2.407" fill="#209691"/><path d="M29.686 113.436s3.485 1.493 3.609 2.116v-1.12L29.5 112.45l.186.986" fill="#217C7F"/><path d="M71.804 115.167a2.002 2.002 0 1 0 4.003 0v-2.405a2.001 2.001 0 1 0-4.003 0v2.405" fill="#209691"/><path d="M75.62 113.748s-3.484 1.492-3.609 2.115v-1.12l3.796-1.981-.186.986" fill="#217C7F"/><path d="M77.352 12.376l-24.37 3.244-24.447-3.835s-3.92.56-4.294.467c0 0 5.227 2.335 9.427 3.267 4.129.918 37.532 1.438 43.697-2.16.015-.507.012-.855-.013-.983" fill="#A2CA51"/><path d="M33.668 15.52c-4.2-.933-9.427-3.268-9.427-3.268s.186.934 1.4 2.335c1.214 1.4 3.733 7.84 3.92 13.16.187 5.32 2.894 23.336 7.001 31.924 1.615 3.376 2.643 6.868 2.648 10.395 2.13.731 7.849 2.486 13.688 2.486 5.88 0 11.884-1.875 13.873-2.556.019-3.504 1.043-6.971 2.648-10.325 4.106-8.588 6.814-26.603 7-31.924 0 0 .853-10.933.946-14.389-6.165 3.599-39.568 3.079-43.697 2.161" fill="#D5DE57"/><path d="M69.124 79.005a39.33 39.33 0 0 1-.995-2.157 17.213 17.213 0 0 1-1.358-6.852c-1.989.68-7.993 2.556-13.873 2.556-5.84 0-11.557-1.755-13.688-2.486a17.213 17.213 0 0 1-1.358 6.782c-.315.75-.664 1.486-1.025 2.216 1.812.653 8.86 3.01 16.07 3.01 7.262 0 14.69-2.518 16.227-3.069" fill="#209691"/><path d="M77.75 101.624c-.71-4.595-1.994-9.108-3.857-13.37-1.391-3.182-3.238-6.143-4.77-9.249-1.537.551-8.964 3.07-16.225 3.07-7.21 0-14.26-2.358-16.071-3.011-1.525 3.084-3.357 6.028-4.739 9.19-1.863 4.262-3.146 8.775-3.857 13.37a43.48 43.48 0 0 0-.443 9.105c1.773 1.4 8.65 8.65 24.798 9.116 16.149-.467 23.834-7.716 25.607-9.116.172-3.043.02-6.096-.443-9.105" fill="#E36537"/><path d="M44.403 60.323l.404 2.21s8.09 2.613 15.494 0c.468-.746.343-2.023.343-2.023s-.31 1.432-1.897 1.712-9.024 1.182-13.037-.405c-.56-.653-1.307-1.494-1.307-1.494" fill="#989D9C"/><path d="M43.501 59.266l-.084-.05c-6.654-12.57-6.115-37.383-6.108-37.632 0-.051.039-.085.095-.091a.094.094 0 0 1 .091.096c-.005.248-.544 25.011 6.088 37.539a.094.094 0 0 1-.038.127l-.044.01" fill="#161616"/><path d="M61.67 21.089l8.713-.498s.125 14.188-3.36 26.385c-.623.746-6.596.995-6.596.995s4.106-15.433 1.244-26.882m-1.244 30.118h4.604s-1.741 7.468-3.36 9.21c-1.742.498-3.485-.499-3.485-.499s2.115-5.351 2.24-8.71" fill="#FFFFFE"/><path d="M39.394 24.045h-3.485a.093.093 0 0 1-.094-.094c0-.051.042-.093.094-.093h3.485c.051 0 .093.042.093.093a.093.093 0 0 1-.093.094m-.124 3.858h-3.485a.093.093 0 1 1 0-.187h3.484c.052 0 .094.042.094.093a.094.094 0 0 1-.094.094m-.124 4.107H35.66a.094.094 0 0 1-.094-.094c0-.05.042-.093.094-.093h3.485a.093.093 0 1 1 0 .187m.497 3.858h-3.485a.093.093 0 0 1-.093-.094c0-.05.042-.093.093-.093h3.485c.052 0 .094.043.094.093a.093.093 0 0 1-.094.094m.373 3.983h-3.484a.094.094 0 0 1 0-.187h3.484c.053 0 .094.042.094.094a.093.093 0 0 1-.094.093m.623 4.357h-3.484a.094.094 0 0 1 0-.188h3.484c.052 0 .094.042.094.094a.093.093 0 0 1-.094.094m.623 3.608h-3.485a.094.094 0 0 1-.094-.093c0-.052.042-.093.094-.093h3.485a.093.093 0 1 1 0 .186m.746 3.609h-3.484a.093.093 0 0 1-.094-.094c0-.05.041-.092.094-.092h3.484a.093.093 0 1 1 0 .186m1.369 3.858h-3.484a.093.093 0 1 1 0-.187l3.484.001a.093.093 0 1 1 0 .187" fill="#161616"/><path d="M65.707 9.869c-3.702-.349-8.036-.548-12.67-.548-4.632 0-8.964.2-12.665.546H30.215l-1.804.002v3.298c0 2.125 11.025 3.846 24.626 3.846s24.627-1.721 24.627-3.846V9.87H65.707" fill="#DF523E"/><path d="M77.664 9.869c0 2.123-11.026 3.845-24.627 3.845-13.601 0-24.626-1.722-24.626-3.845 0-2.125 11.025-3.847 24.626-3.847S77.664 7.744 77.664 9.87" fill="#E36537"/><path d="M76.14 9.869c0 1.474-7.656 2.67-17.099 2.67-9.44 0-17.096-1.196-17.096-2.67 0-1.475 7.655-2.672 17.096-2.672 9.443 0 17.098 1.197 17.098 2.672" fill="#E67438"/><path d="M76.14 9.869c0 1.114-5.789 2.018-12.928 2.018-7.14 0-12.929-.904-12.929-2.018 0-1.116 5.788-2.02 12.929-2.02 7.14 0 12.927.904 12.927 2.02" fill="#E9853B"/><path d="M48.868 2.156h-3.423V8.38c0 .833 3.4 1.51 7.592 1.51 4.193 0 7.592-.677 7.592-1.51V2.156H48.868" fill="#DF523E"/><path d="M60.629 2.156c0 .833-3.4 1.509-7.592 1.509s-7.592-.676-7.592-1.509c0-.833 3.4-1.509 7.592-1.509 4.193 0 7.592.676 7.592 1.51" fill="#E36537"/><path d="M74.689 40.9c-.777 4.232-1.79 8.769-2.997 12.71a2.431 2.431 0 0 1 .558-.038c.088.04.18.076.271.106.888-3.907 1.6-8.336 2.168-12.778" fill="#D9E169"/><path d="M25.747 13.67c-.012 0 .013.024.081.076.198.149.58.625 1.039 1.421 1.004 1.05 2.176 2.907 3.161 4.273 1.214 1.68 2.24 3.64 1.68 5.04-.56 1.4-1.213 9.055-1.213 9.055l-.393-5.337c.009.222.015.444.02.67-.187 10.454 6.347 29.869 7.84 32.109 1.494 2.24 2.053 6.347 2.053 8.961 0 0 .125-3.421 0-3.796.005.015 1.278 3.8 7.803 5.227a197.57 197.57 0 0 1-1.281-6.246C31.588 57.65 33.04 23.965 34.042 21.96c1.12-2.24-4.48-5.974-4.48-5.974s-3.703-2.315-3.815-2.315zm51.045.635l-2.986 1.12s-.187 0-1.494 16.616c-1.06 13.475-5.119 30.34-15.62 33.87-.387 2.642-.756 4.635-1.047 5.706 4.628-.455 8.61-1.55 10.056-4.253-.182-.292-.42-.825-.42-1.596 0-1.245 1.275-5.414 1.897-7.031.623-1.618 2.707-4.667 2.707-4.667.713-.245 1.24-.488 1.448-.488.07 0 .104.027.098.092a2.23 2.23 0 0 1 .26-.065c1.208-3.94 2.22-8.477 2.998-12.71.496-3.889.883-7.787 1.182-11.355a1.139 1.139 0 0 1-.215-.203c.003.105.01.195.016.274-1.307-.655-1.213-4.855-1.213-8.496 0-3.64 2.147-4.853 2.147-4.853l-.038.392a1.54 1.54 0 0 1 .135-.067c.064-1.454.09-2.286.09-2.286z" fill="#C2CB3F"/><path d="M44.42 71.53c-1.939 1.755-5.68 5.91-2.03 9.176 2.51.604 5.58 1.165 8.762 1.323-6.091-4.024-1.703-7.535 1.784-9.389-.19.004-.387.006-.586.006-1.373 0-2.935-.085-4.306-.281-.013-.058-.028-.12-.04-.18a45.401 45.401 0 0 1-3.584-.655" fill="#1F7975"/><path d="M62.943 118.473h-.002.002zm-.023.005l-.01.003.01-.003zm-.02.005l-.016.005.016-.005zm-.017.005c-2.554.632-5.45 1.1-8.716 1.289 3.266-.19 6.164-.658 8.716-1.29zm-8.717 1.289c-.022.001-.043.003-.066.003.023 0 .044-.002.066-.003zm-.07.003c-.005.002-.013.002-.02.002.007 0 .013 0 .02-.002zm-.024.002c-.02 0-.04.003-.062.003l.062-.003zm-.067.003l-.019.001h.02zm-.027.002l-.057.004.057-.004zm-.067.004l-.015.001h.015zm-.028.001l-.014.001.014-.001zm-.039.003h-.011.011zm-.027 0l-.013.002.013-.002zm-.032.003h-.007.007zm-.034.001h-.009.009zm-.03.002h-.007.007zm-.032.001l-.003.001h.003zm-.032.003h-.005.005zm-.03 0h-.007.008zm-.064.003h-.004.004zm-.03 0h-.005.006zm-.064.004h-.001.001zm-.03.002h-.003.004zm-.063.003h-.004.004zm-.032.001h-.001zm-.063.003h-.002.002zm-.094.003l-.002.001.002-.001zm-.032.002zm-.156.006h-.003H53zm-.095.003H52.9h.003zm-.093.003h-.005.005zm-.064.002h-.006.006zm-.03 0h-.007.007zm-.034.002h-.002.002zm-.032.001h-.005.005zm-.028.001h-.009.01z" fill="#F0A98B"/><path d="M42.39 80.707l.002.001c2.508.604 5.58 1.165 8.762 1.322h-.002c-3.183-.16-6.252-.72-8.762-1.323" fill="#126857"/><path d="M42.392 80.708c.235.211.5.416.798.618 6.189 4.187 29.409 23.814 1.138 37.597-10.3-2.094-15.081-7.036-16.53-8.186 1.791 1.42 8.672 8.642 24.788 9.108h.038c.006-.002.014-.002.022-.002h.037l.027-.002h.037l.059-.003h.005l.029-.001c.02 0 .04 0 .061-.002h.033a.643.643 0 0 1 .062-.003H53l.155-.006h.031l.002-.002c.031 0 .062-.001.092-.003h.002l.062-.003.029-.001h.004c.019-.002.04-.002.06-.003h.004l.028-.002h.001l.06-.003h.034l.057-.003h.008l.024-.001h.005c.01-.002.018-.002.029-.002h.003c.009 0 .017 0 .025-.002h.007l.021-.001h.009c.009 0 .018 0 .027-.002h.007l.019-.001.013-.002h.027l.025-.002.014-.001h.026l.01-.001.057-.004h.008c.006 0 .013 0 .02-.002h.004c.021 0 .042-.002.062-.003h.004c.007 0 .015 0 .02-.002h.004c.023 0 .044-.002.066-.003h.001c3.266-.19 6.162-.657 8.716-1.29.007 0 .012-.003.017-.004l.01-.002.01-.003.021-.004h.002c5.207-1.298 8.978-3.27 11.511-4.931 2.525-21.39-24.493-27.882-23.237-31.47l-.063-.043c-3.183-.157-6.254-.718-8.762-1.322m-14.599 30.023v.002-.002zm.001.002c.002 0 .004.003.005.004l-.005-.004z" fill="#DE4E2E"/><path d="M39.21 70.066a50.27 50.27 0 0 0 5.21 1.464c0-.002 0-.002.002-.003a50.476 50.476 0 0 1-5.212-1.461" fill="#65B447"/><path d="M39.21 70.066v.026a17.216 17.216 0 0 1-1.358 6.756c-.315.75-.664 1.486-1.025 2.216.858.309 2.894 1 5.562 1.642-3.65-3.267.092-7.421 2.031-9.176a50.021 50.021 0 0 1-5.21-1.464" fill="#115C5A"/><path d="M36.827 79.064c-1.525 3.084-3.357 6.028-4.739 9.19-1.863 4.262-3.146 8.775-3.857 13.37.711-4.595 1.994-9.108 3.857-13.37 1.382-3.162 3.214-6.106 4.739-9.19zm-9.04 31.665c.003 0 .003.002.005.002l-.004-.002zm.005.004h.001zm.006.004z" fill="#EFA383"/><path d="M36.827 79.064c.859.309 2.894 1 5.563 1.643v-.001a54.88 54.88 0 0 1-5.563-1.642" fill="#0E4D40"/><path d="M36.827 79.064a54.8 54.8 0 0 0 5.563 1.643 54.858 54.858 0 0 1-5.563-1.643" fill="#0D4230"/><path d="M36.827 79.064c-1.525 3.084-3.357 6.028-4.739 9.19-1.863 4.262-3.146 8.775-3.857 13.37a43.492 43.492 0 0 0-.443 9.105l.004.002v.002h.001c.002 0 .004.003.005.004 1.449 1.15 6.23 6.092 16.53 8.186 28.27-13.783 5.05-33.41-1.138-37.597a7.466 7.466 0 0 1-.798-.618 54.8 54.8 0 0 1-5.565-1.644" fill="#DA3D2B"/><path d="M45.19 85.96l-.002-.002a3.647 3.647 0 0 0-.335-.119c-.053-.017-.108-.028-.162-.041l-1.893-.613-.85.507c-3.48.381-6.101 5.964-6.101 5.964l-1.744 7.769 2.331 5.065 2.611.873c3.145.935 6.993-2.678 8.598-8.07 1.543-5.192.44-10.141-2.453-11.333" fill="#217C7F"/><path d="M45.59 96.64c-1.605 5.392-5.455 9.005-8.598 8.07-3.144-.935-4.394-6.065-2.79-11.456 1.604-5.392 5.453-9.004 8.596-8.069 3.145.935 4.394 6.064 2.792 11.455" fill="#209691"/><path d="M43.084 96.068c-1.232 4.14-4.23 6.902-6.695 6.168-2.466-.732-3.466-4.684-2.235-8.823 1.232-4.14 4.23-6.9 6.694-6.168 2.466.734 3.467 4.684 2.236 8.823" fill="#C1C3BE"/><path d="M42.502 95.895c-1.185 3.987-4.07 6.644-6.443 5.94-2.375-.706-3.338-4.51-2.153-8.495 1.186-3.986 4.071-6.644 6.445-5.938 2.373.706 3.337 4.51 2.151 8.493" fill="#FFFFFE"/><path d="M37.777 86.567l1.166-.294 1.166 1.213s-4.529 6.023-4.9 13.862c-1.634-.444-1.587-.513-1.587-.513l-.56-.965s.095-9.742 4.715-13.303" fill="#CBCCC7"/><path d="M38.943 86.273c-.05.048-5.32 5.221-5.32 14.562l-1.868-1.261c0-10.174 5.287-14.136 5.513-14.352l1.675 1.05" fill="#FFFFFE"/><path d="M66.422 67.137a6.649 6.649 0 0 1-.17.177l-.287 2.438c.164-.329.38-1.627.457-2.615zm-.457 2.615s-3.957 1.841-10.425 2.226a3.064 3.064 0 0 1-.125.33c5.295-.527 10.293-2.045 10.55-2.556zm-25.95.186s3.442 1.568 7.987 2.245l-.107-.476a44.32 44.32 0 0 1-7.88-1.769z" fill="#A7C23D"/><path d="M40.015 66.142c.125.375 0 3.796 0 3.796a44.32 44.32 0 0 0 7.88 1.769c-.026-.113-.05-.226-.077-.338-6.525-1.427-7.798-5.212-7.803-5.227zm26.237 1.172c-.196.196-.35.321-.35.321s-.09-.09-.201-.27c-1.446 2.703-5.428 3.797-10.056 4.252a6.778 6.778 0 0 1-.105.361c6.468-.385 10.425-2.226 10.425-2.226l.287-2.438z" fill="#9AAE3B"/><path d="M66.44 66.818c-.004.102-.01.208-.018.319.05-.058.104-.117.155-.18a1.017 1.017 0 0 1-.136-.139" fill="#A7C23D"/><path d="M71.333 53.582c-.208 0-.735.243-1.448.488 0 0-2.084 3.049-2.707 4.667-.622 1.617-1.897 5.786-1.897 7.031 0 .771.238 1.304.42 1.596.201-.375.352-.782.45-1.222l.002-.002c-.278-1.432.583-4.011 1.368-5.972.401-1.003.802-2.289 1.318-3.459.185-.496.399-.908.633-1.246.52-.864 1.149-1.54 1.96-1.79.005-.064-.028-.091-.1-.091" fill="#9AAE3B"/><path d="M66.33 66.652l-.078.662c.054-.054.111-.114.17-.177.008-.111.014-.217.019-.319a1.43 1.43 0 0 1-.112-.166" fill="#87A73E"/><path d="M66.153 66.14l-.002.002c-.098.44-.249.847-.45 1.222.112.182.202.271.202.271s.153-.125.349-.32l.077-.663a1.73 1.73 0 0 1-.176-.512" fill="#7C973C"/><path d="M76.606 16.266s-2.147 1.214-2.147 4.853c0 3.641-.094 7.841 1.213 8.496a5.113 5.113 0 0 1-.016-.274c-.8-.974-.969-3.804-.917-6.323.034-1.6.161-4.126 1.074-5.602.07-.113.143-.219.22-.318.146-.183.329-.329.535-.44l.038-.392" fill="#9AAE3B"/><path d="M75.813 17.416c-.913 1.476-1.04 4.002-1.074 5.602-.062 2.986.187 6.41 1.431 6.659.374-1.12 1.432-7.965 7.903-7.592 4.73.373 7.965 4.73 2.116 16.802-5.848 11.45-10.952 16.055-13.94 14.685-2.737-.124-3.733 4.108-4.728 6.596-.996 2.49-2.116 5.974-.872 6.845 1.246.872 11.45-2.24 19.291-16.179 7.841-13.94 8.588-27.504 8.588-27.504s.249-5.104-5.103-5.975a86.304 86.304 0 0 0-10.33-.997c-.972-.125-2.401-.093-3.061.74-.078.1-.152.205-.22.318" fill="#D5DE57"/><path d="M69.263 61.164s.435 2.303 2.303 2.8c1.866.497 12.883-8.027 17.641-22.216 5.321-15.868 6.067-23.522-1.276-23.895.996-.124 7.965-.124 5.726 10.33-2.241 10.081-8.37 33.914-25.888 38.333-.373-.125-.746-.747-.746-.747s.435-2.552 2.24-4.605" fill="#FFFFFE"/><path d="M83.695 20.861c-.89 0-1.785.106-2.609.258-4.013.748-4.916 8.558-4.916 8.558.985-4.893 3.504-7.766 7.535-7.766.3 0 .61.016.928.049 4.574.467 4.668 4.107 4.948 7.094.964-6.603-2.435-8.193-5.886-8.193" fill="#C2CB3F"/><path d="M69.472 55.463c-.234.338-.448.75-.633 1.246.193-.438.402-.86.633-1.246" fill="#8B9D3B"/><path d="M81.18 47.815c-2.106 3.159-5.531 6.482-7.486 6.482-.124 0-.244-.013-.356-.04a5.296 5.296 0 0 0-1.278-.175c-.957 0-1.872.348-2.588 1.381-.231.386-.44.808-.633 1.246-.094.25-.18.52-.26.814a.09.09 0 0 0 .043.012c.151 0 .237-.463 1.263-1.318 0 0 1.68-1.4 3.547-1.4 1.867 0 5.134-1.774 7.748-7.002" fill="#C2CB3F"/><path d="M26.201 14.587s3.36 6.253 3.827 12.6l.074 1.011c-.239-6.49-2.01-10.901-3.235-13.031a4.14 4.14 0 0 0-.666-.58" fill="#BFD147"/><path d="M26.867 15.167c1.225 2.13 2.996 6.54 3.235 13.031l.393 5.337s.653-7.655 1.212-9.054c.561-1.401-.465-3.362-1.679-5.041-.985-1.366-2.157-3.223-3.161-4.273" fill="#ACBB39"/><path d="M45.614 16.835c-.121.43-4.517 16.406.349 45.078 1.738.62 4.044.819 6.234.819 1.885 0 3.685-.146 4.967-.292 1.586-12.594 3.073-33.92.428-45.492a161.362 161.362 0 0 1-9.432-.01c-1.277-.026-2.223-.062-2.484-.1a.643.643 0 0 1-.062-.003zm.517 46.052c.128.737.264 1.483.406 2.236 1.758.879 3.746 1.395 5.986 1.454a12.96 12.96 0 0 0 4.169-.666c.116-.791.234-1.643.352-2.544a24.25 24.25 0 0 1-4.05.328 30.56 30.56 0 0 1-6.863-.808zm1.871 9.296l.001.003a25.548 25.548 0 0 0-.001-.003zm7.413.125a35.254 35.254 0 0 1-3.451.182 26.12 26.12 0 0 1-2.932-.172c1.256.146 2.558.234 3.866.234.07 0 .14 0 .211-.003-.002 0-.002.002-.002.003a31.506 31.506 0 0 0 2.222-.1.673.673 0 0 0 .086-.144z" fill="#C6CF43"/><path d="M55.33 72.453c-.738.058-1.48.093-2.223.099a5.364 5.364 0 0 0-.171.088c.992-.018 1.843-.082 2.387-.182.003-.001.004-.004.006-.005" fill="#168E53"/><path d="M45.963 61.913c.054.323.11.647.168.974a30.56 30.56 0 0 0 6.863.808c1.291 0 2.66-.092 4.05-.328l.12-.927a45.193 45.193 0 0 1-4.967.292c-2.19 0-4.496-.198-6.234-.82" fill="#8C9559"/><path d="M57.564 16.827c-1.42.104-3.71.143-5.905.143-1.256 0-2.482-.013-3.499-.032a157.526 157.526 0 0 0 9.432.01l-.028-.121zm-11.947 0l-.003.008c.02.002.041.002.062.003a.597.597 0 0 1-.059-.011z" fill="#D34D2E"/><path d="M46.537 65.123c.38 2.024.806 4.105 1.281 6.246 1.135.248 2.425.424 3.897.499a64.734 64.734 0 0 0 3.93-.251c.291-1.07.66-3.064 1.047-5.706a12.96 12.96 0 0 1-4.169.666c-2.24-.059-4.228-.575-5.986-1.454" fill="#B3BB38"/><path d="M49.032 72.318c1.256.146 2.558.234 3.866.234h.21l.001-.003a7.64 7.64 0 0 1-.211.003c-1.308 0-2.61-.088-3.866-.234" fill="#67AA44"/><path d="M48.003 72.186c.013.06.028.12.04.179 1.372.196 2.934.28 4.307.28.199 0 .395-.001.586-.005.057-.03.114-.06.171-.088h-.21c-1.307 0-2.609-.088-3.865-.234a25.548 25.548 0 0 1-1.03-.132" fill="#167145"/><path d="M47.895 71.707l.107.476a33.802 33.802 0 0 0 1.03.135c.945.107 1.93.172 2.932.172 1.133 0 2.3-.068 3.451-.182.04-.084.08-.194.125-.33-.755.045-1.545.07-2.367.07-1.638 0-3.403-.1-5.278-.341" fill="#9CB33B"/><path d="M47.818 71.369c.026.112.05.225.077.338a41.223 41.223 0 0 0 7.645.271 6.58 6.58 0 0 0 .105-.361 64.734 64.734 0 0 1-3.93.25 23.905 23.905 0 0 1-3.897-.498" fill="#8EA03B"/></g></svg>