<svg width="120" height="120" viewBox="0 0 120 120" xmlns="http://www.w3.org/2000/svg" xmlns:xlink="http://www.w3.org/1999/xlink"><defs><path id="a" d="M0 .229h93.298v118.932H0z"/></defs><g fill="none" fill-rule="evenodd"><g transform="translate(13 .61)"><mask id="b" fill="#fff"><use xlink:href="#a"/></mask><path d="M81.664 57.397a138.788 138.788 0 0 0-3.927-11.344c-2.88-7.282-4.748-21.75-4.748-21.75l-.042.06C71.787 10.844 60.465.23 46.642.23 32.835.229 21.519 10.821 20.34 24.32l-.013-.017s.002.078.002.2a27.4 27.4 0 0 0-.109 2.142c0 .222-1.684 11.338-4.64 19.408a186.93 186.93 0 0 0-3.657 10.973C6.175 64.388-1.842 77.186.38 89.084c2.357 12.628 7.363 7.913 7.41 5.051a10.65 10.65 0 0 1 .622-3.46c3.746 18.543 19.062 28.486 38.23 28.486 19.143 0 34.493-10.562 38.224-28.553a10.66 10.66 0 0 1 .645 3.527c.047 2.862 5.053 7.577 7.41-5.05 2.183-11.7-5.533-24.272-11.256-31.688" fill="#465971" mask="url(#b)"/></g><path d="M84.91 45.16c-2.053-6.166-1.882-18.053-1.882-18.053H36.272s-.62 11.887-2.676 18.052c-2.054 6.165-7.249 20.775-7.249 37.482 0 18.41 14.908 32.417 33.302 32.417 18.393 0 33.302-14.007 33.302-32.417 0-16.313-5.986-31.317-8.042-37.482" fill="#F5F0F2"/><path d="M83.433 34.205c0 11.568-10.649 20.946-23.783 20.946-13.136 0-23.785-9.378-23.785-20.946 0-11.568 10.649-20.946 23.785-20.946 13.134 0 23.783 9.378 23.783 20.946" fill="#F39E2B"/><path d="M83.433 29.435c0 11.569-10.649 20.947-23.783 20.947-13.136 0-23.785-9.378-23.785-20.947 0-11.568 10.649-20.946 23.785-20.946 13.134 0 23.783 9.378 23.783 20.946" fill="#465971"/><path d="M57.566 29.248l-2.847 1.88c-1.145.756-1.507 2.34-.806 3.518l4.458 7.487c.35.588.816.883 1.278.883V28.681c-.758 0-1.51.189-2.083.567" fill="#868686"/><path d="M60.926 42.132l4.458-7.486c.703-1.178.34-2.763-.806-3.518l-2.846-1.88c-.575-.379-1.33-.567-2.083-.567v14.336c.463 0 .926-.297 1.277-.885" fill="#CCCECF"/><path d="M78.805 22.089a6.168 6.168 0 1 1-12.336.001 6.168 6.168 0 0 1 12.336-.001m-25.973 0a6.17 6.17 0 0 1-12.338 0 6.169 6.169 0 1 1 12.338 0" fill="#FBDD58"/><path d="M50.418 22.089a3.755 3.755 0 0 1-3.754 3.755 3.758 3.758 0 0 1-3.758-3.755 3.756 3.756 0 0 1 7.512 0m25.973 0a3.756 3.756 0 0 1-7.51 0 3.754 3.754 0 0 1 7.51 0m-33.123 86.822c-5.997 0-10.862 4.862-10.862 10.86h21.723c0-5.998-4.863-10.86-10.86-10.86m32.761 0c-5.999 0-10.863 4.862-10.863 10.86h21.725c0-5.998-4.862-10.86-10.862-10.86" fill="#3C3C3B"/></g></svg>