<svg width="120" height="120" viewBox="0 0 120 120" xmlns="http://www.w3.org/2000/svg" xmlns:xlink="http://www.w3.org/1999/xlink"><defs><path id="a" d="M1.9 1.73h24.107v24.126H1.9z"/><path id="c" d="M.2.3h13.173v5.567H.2z"/></defs><g fill="none" fill-rule="evenodd"><g transform="translate(51.655 .238)"><mask id="b" fill="#fff"><use xlink:href="#a"/></mask><path d="M26.007 13.791c0 6.663-5.4 12.065-12.055 12.065-6.659 0-12.052-5.402-12.052-12.065 0-6.66 5.393-12.063 12.052-12.063 6.656 0 12.055 5.402 12.055 12.063" fill="#ECAC0A" mask="url(#b)"/></g><path d="M78.41 21.436c-2.666-4.535-7.798-7.09-12.926-7.063-5.132-.027-10.264 2.528-12.928 7.063a77.23 77.23 0 0 0-2.02-1.161c2.983-5.233 8.967-8.245 14.948-8.21 5.979-.035 11.962 2.977 14.943 8.21-.682.378-1.356.767-2.016 1.16" fill="#30A7DF"/><path d="M64.89 114.002c-.014-.2-.295-.387-.344-.584l-5.548-.163c-1.624 1.007-4.144 3.218-2.752 4.886 1.051 1.179 2.602.246 3.78-.25 1.198-.572 2.555-.98 3.68-1.674l.129.819h.578l.487-3.03-.01-.004z" fill="#B3DFF5"/><path d="M59.022 113.345c-1.293.803-2.863 2.18-3.068 3.449-.08.476.041.91.36 1.292.322.362.715.537 1.199.537.656 0 1.38-.324 2.014-.612.164-.074.315-.14.462-.2.45-.217.934-.411 1.4-.604.776-.311 1.574-.634 2.272-1.065l.114-.066.136.873h.428l.462-2.915v-.028c-.004-.077-.08-.17-.155-.264a1.076 1.076 0 0 1-.165-.238l-5.459-.159zm-1.51 5.455c-.536 0-.972-.195-1.332-.598a1.736 1.736 0 0 1-.403-1.438c.28-1.72 2.693-3.287 3.173-3.584l.023-.012 5.645.163.014.067c.016.07.084.152.151.234.08.097.161.197.187.31l.026.011-.508 3.173h-.729l-.118-.765c-.682.403-1.444.712-2.185 1.013a23.07 23.07 0 0 0-1.396.598c-.15.061-.299.13-.458.203-.654.293-1.395.625-2.09.625z" fill="#F2F1F1"/><path d="M56.85 116.06c3.895 1.215 7.793-2.682 7.793-2.682h-5.521c-1.86.895-2.272 2.682-2.272 2.682" fill="#FDDFBB"/><path d="M72.088 113.255l-5.547.163c-.049.197-.332.384-.347.584l-.008.004.485 3.03h.58l.126-.819c1.128.693 2.484 1.104 3.683 1.677 1.177.497 2.726 1.43 3.776.25 1.393-1.67-1.122-3.882-2.748-4.89" fill="#B3DFF5"/><path d="M67.31 116.075l.116.067c.696.43 1.502.757 2.277 1.072.465.19.945.384 1.397.602.144.059.293.128.454.197.637.289 1.36.615 2.017.615a1.54 1.54 0 0 0 1.203-.542 1.55 1.55 0 0 0 .357-1.293c-.206-1.267-1.777-2.644-3.068-3.448l-5.46.159a.901.901 0 0 1-.163.238c-.075.094-.152.187-.157.264l-.002.027.465 2.915h.429l.136-.873zm6.26 2.729c-.693 0-1.436-.333-2.089-.628-.159-.07-.306-.14-.454-.197-.45-.216-.93-.41-1.39-.6-.742-.3-1.505-.613-2.19-1.017l-.12.764h-.73l-.509-3.174.027-.011c.026-.113.107-.21.187-.307.067-.083.136-.166.15-.234l.017-.07 5.641-.163.022.012c1.33.823 2.958 2.255 3.174 3.587a1.72 1.72 0 0 1-.399 1.436c-.361.405-.8.602-1.336.602z" fill="#F2F1F1"/><path d="M74.236 116.06c-3.898 1.215-7.791-2.682-7.791-2.682h5.517c1.861.976 2.274 2.682 2.274 2.682" fill="#FDDFBB"/><path fill="#FDDFBB" d="M68.435 89.798h-14.11l4.696 23.66h5.562l.831-17.152h.258l.833 17.152h5.56l4.694-23.66zM35.668 50.617c1.09-.46 2.39-.04 3.444.974.474-.716 1.042-1.12 1.567-1.015.978.19 1.438 2.062 1.024 4.182a7.396 7.396 0 0 1-.736 2.12 4.222 4.222 0 0 1-.186.75l4.97 5.843 10.54-3.777s-1.081 3.413-1.522 4.45c-.497 2.384-1.741 2.661-1.741 2.661s-7.618 3.055-9.8 2.263c-2.703-.978-5.8-9.787-5.8-9.787-1.164-.415-2.288-1.525-2.939-3.057-1.01-2.39-.481-4.905 1.18-5.607m46.519 14.132c3.316 4.237 4.582 16.983 4.582 16.983l-.004-.057c.427.617.723 1.42.82 2.315.228 2.13-.792 3.986-2.274 4.143-.97.102-1.895-.547-2.485-1.6-.546.453-1.09.634-1.48.428-.727-.384-.64-1.975.195-3.55.316-.6.697-1.11 1.089-1.49.031-.07.064-.132.096-.193 0 0-1.437-9.207-2.972-11.38-.772-1.092-1.309-1.887-1.486-2.371-.857.397-7.245.645-7.245.645l3.591-9.057s.716.37 1.553.846c1.83 1.045 4.916 2.923 6.02 4.338"/><path d="M35.668 50.498c1.09-.46 2.33-.096 3.383.919.48-.72 1.223-1.063 1.745-.96.977.19 1.44 2.181 1.025 4.302a7.345 7.345 0 0 1-.736 2.119 4.411 4.411 0 0 1-.188.751l4.91 5.664 1.906-.705s2.027 5.711-.847 6.392c-1.502.356-2.95.48-3.701.206-2.699-.981-5.855-9.904-5.855-9.904-1.164-.416-2.288-1.527-2.937-3.06-1.012-2.39-.365-5.022 1.295-5.724m48.599 18.124c1.91 5.421 2.62 13.11 2.62 13.11s0-.02-.004-.058c.427.618.725 1.42.822 2.316.226 2.132-.912 4.103-2.394 4.263-.97.098-1.895-.545-2.483-1.6-.548.453-1.15.634-1.539.427-.729-.384-.7-2.152.132-3.728.318-.6.7-1.052 1.089-1.432a5.78 5.78 0 0 1 .1-.193s-1.437-9.086-2.976-11.262c1.89-.502 3.283-1.09 4.633-1.843" fill="#C0E4F4"/><path d="M74.783 59.658l.004.012c-1.867-1.242-7.607-1.44-7.607-1.44l-1.574.037h-.136l-1.588-.037s-5.812.21-7.651 1.47l-2.066.735 8.007 15.899h7.194l5.417-16.676z" fill="#FDDFBB"/><path d="M48.573 94.122c-3.418-4.37 2.59-8.136 2.59-8.136l3.924 4.027-4.291 4.07s-1.891.466-2.223.04m33.934-.001c3.42-4.37-2.593-8.136-2.593-8.136l-3.923 4.027 4.293 4.07s1.889.466 2.223.04" fill="#C0E4F4"/><path d="M79.862 86.02c-.051-3.066-.214-7.635-.71-12.162-.039-.334-.497-5.012-.884-5.882.371-1.556-1.008-4.95-1.201-7.111-.293-.276-.7-.543-1.158-.79-1.572 5.841-2.952 8.574-10.397 8.574-7.617 0-8.973-2.681-9.981-8.886-.5.207-.97.433-1.366.67-.06 1.956-1.76 4.89-1.136 6.37-.366.892-1.103 6.72-1.138 7.055-.5 4.499-.67 9.045-.728 12.112-.58 1.779-6.798 19.808-5.825 25.716 4.695 4.182 36.725 4.276 40.816-.004.112-7.554-5.632-23.695-6.292-25.663" fill="#7DCDF4"/><path d="M52.381 114.356s-1.217-10.39 3.047-19.004c-3.703 8.957-2.188 18.52-2.188 18.52s3.278.844 10.645.964c-8.043.802-11.504-.48-11.504-.48m26.122 0s1.217-10.39-3.047-19.004c3.703 8.957 2.188 18.52 2.188 18.52s-3.001.895-10.645.981c8.094.705 11.504-.497 11.504-.497" fill="#30A7DF"/><path d="M65.694 85.988c-6.108 13.832-14.562 6.51-16.852 7.238 1.065-3.427 1.03-5.081 2.321-7.24 2.402-1.624 11.666-2.15 14.531.002" fill="#C0E4F4"/><path d="M65.382 85.988c6.108 13.832 14.566 6.51 16.858 7.238-1.067-3.427-1.034-5.081-2.325-7.24-2.402-1.624-11.664-2.15-14.533.002m10.24-25.881s2.797-6.244 5.277-5.7c3.163.69.06 15.666-2.227 15.477 0 0-.918-5.05-2.506-9.474a30.906 30.906 0 0 1-.544-.303m-19.672-.309s-3.265-5.935-5.744-5.392c-3.162.69-.057 15.669 2.225 15.478 0 0 1.083-5.35 2.67-9.773.243-.104.848-.313.848-.313" fill="#C0E4F4"/><path d="M63.9 59.627h3.369c.963 0 1.745-2.07 1.745-3.018h-6.86c0 .949.783 3.018 1.746 3.018" fill="#FDDFBB"/><path d="M62.892 58.843l6.095-2.01.012-.014a20.805 20.805 0 0 1-6.826.024c.06.592.332 1.41.719 2" fill="#EEAC6C"/><path d="M68.006 59.227c.345-.375.628-.967.805-1.528v-.004c-2.124.476-4.33.476-6.454 0 .175.565.46 1.157.805 1.532a16.25 16.25 0 0 0 4.844 0" fill="#30A7DF"/><path d="M62.36 57.698c.126.4.31.807.533 1.145l2.41-.794a15.16 15.16 0 0 1-2.943-.35" fill="#3699C0"/><path d="M85.899 39.578c.151-1.01.234-2.048.234-3.104 0-11.396-9.234-20.638-20.623-20.638-11.39 0-20.618 9.242-20.618 20.638 0 1.007.07 1.995.208 2.959-1.19.653-1.995 1.882-1.995 3.3 0 2.092 1.761 3.788 3.935 3.788.152 0 .297-.008.439-.022 3.524 6.33 10.277 10.615 18.031 10.615 7.748 0 14.494-4.277 18.02-10.597.06.002.12.004.181.004 2.176 0 3.939-1.696 3.939-3.787 0-1.314-.698-2.475-1.751-3.156" fill="#FDDFBB"/><path d="M61.311 33.65s-.503 1.803-2.082 1.446c-.772-.174-.908-1.201-3.386-.74-.779.18-2.417 1.156-2.732 1.808-.316.652-.088-2.392 2.457-3.522 1.835-.675 2.457-.642 3.977-.642s1.987.907 1.766 1.65m9.741 0s.503 1.803 2.082 1.446c.772-.174.908-1.201 3.386-.74.779.18 2.417 1.156 2.732 1.808.316.652.087-2.392-2.457-3.522-1.835-.675-2.457-.642-3.977-.642s-1.987.907-1.766 1.65" fill="#F6B90C"/><path d="M59 41c0 1.657-.895 3-2 3s-2-1.343-2-3 .895-3 2-3 2 1.343 2 3m18 0c0 1.657-.895 3-2 3s-2-1.343-2-3 .895-3 2-3 2 1.343 2 3" fill="#359CC5"/><path d="M66.02 44.07c.839-.115 2.96 1.756 2.96 1.756s.103-.414-.34-1.238C68.163 43.703 65.99 43 65.99 43s-1.687.448-2.487 1.604c-.296.29-.503 1.299-.503 1.299s1.895-1.681 3.02-1.834z" fill="#EEAC6C"/><g transform="translate(59 47)"><mask id="d" fill="#fff"><use xlink:href="#c"/></mask><path d="M.2.696S7.097 3.904 13.372.299c0 0-1.39 5.47-5.95 5.561-4.115.122-4.984-1.492-5.477-1.956C1.453 3.441.525 2.132.2.696" fill="#EEAC6C" mask="url(#d)"/></g><path d="M47.321 47.167c0 1-.467 1.812-1.043 1.812-.574 0-1.042-.813-1.042-1.812 0-1 .468-1.81 1.042-1.81.576 0 1.043.81 1.043 1.81m38.479 0c0 1-.463 1.812-1.039 1.812-.578 0-1.046-.813-1.046-1.812 0-1 .468-1.81 1.046-1.81.576 0 1.04.81 1.04 1.81" fill="#EEEEED"/><path d="M86.947 33.784a39.797 39.797 0 0 0-.248-3.79c-2.767-9.081-11.205-15.689-21.188-15.689-8.688 0-16.21 5.007-19.838 12.295-1.003 2.866-1.62 5.685-1.671 6.958-.175 4.41 1.103 5.874 1.103 5.874s3.715-5.144 8.111-8.233c3.454-2.433 6.528 2.263 10.632-1.758.365-.356 1.737-1.745 1.737-1.745s1.127 1.267 1.734 1.745c3.646 2.884 5.682-.39 9.765 1.831 3.343 1.82 8.815 8.306 8.815 8.306s1.081-3.37 1.048-5.794" fill="#F6B90C"/></g></svg>