<svg xmlns="http://www.w3.org/2000/svg" width="88.508" height="190.654" viewBox="-0.193 -0.248 88.508 190.654"><defs><style/></defs><g id="ID0.029780182987451553" transform="translate(-.65) scale(.95)"><g id="R_Shoe"><path id="Fill_8_" fill="#EAA06D" d="M61.802 180.514c-.539.618-1.104.784-1.858 1.181a26.78 26.78 0 0 1-2.455 1.14c-1.879.773-3.941 1.578-5.939 1.474-1.351-.071-5.101-.032-6.412.272-1.5.348 3.233 2.171 4.078 2.272 2.706 1.359 5.13 1.436 8.057 1.992 1.377.266 4.66.167 6.115.098 1.71-.082 1.608-.375 3.272-.717a16.89 16.89 0 0 0 4.502-1.612c1.008-.531 1.903-1.312 2.95-1.72.036-.146.056-.436.02-.584-.163-.668-1.308-1.948-1.936-2.22-.978-.425-2.22-.602-3.332-.593-1.252.006-3.178.463-4.473.316-.489-.058-2.466-.471-2.177-1.096" transform="translate(.75 1)"/><path id="Trim_1_" fill="#BC7240" d="M74.324 184.842c.257.961.309 1.957.341 3.004.014.513-.113.896-.175 1.333-.064.479.112.937.046 1.415-1.065.42-1.993 1.062-3.104 1.427-1.199.395-2.445.699-3.654 1.078-2.84.894-6.057.723-8.924.058-1.141-.264-2.221-.673-3.303-1.111-1.044-.424-1.819-.99-2.979-1.087-1.182-.102-2.323.247-3.518.163-1.114-.076-2.382-.153-3.419-.55-2.209-.848-.681-4.184-.743-5.803.445.265 1.319.743 1.757 1.049.945.65 1.723.793 2.819 1.104 1.169.334 2.114.745 3.279 1.063 2.519.689 5.146.933 7.771 1.078 2.526.14 4.957-.004 7.297-.903 1.304-.5 2.556-1.138 3.795-1.785.758-.396 1.807-1.647 2.646-1.659" transform="translate(.75 1)"/><path id="Outline_13_" d="M73.896 184.545c.054.162.556.231.502.065-.713-2.202-2.394-3.37-4.694-3.409-1.162-.021-2.308.145-3.455.293-.602.077-1.213.171-1.818.164-1.07-.008-1.684-.397-2.396-1.147-.104-.109-.606-.145-.466.003.693.729 1.187 1.21 2.209 1.356.927.132 1.861.01 2.78-.113 3.014-.401 6.206-.713 7.338 2.788zm.657.065c-.026-.165-.532-.254-.502-.066.337 2.038.232 4.093.273 6.146.004.155.508.267.502.066-.043-2.056.065-4.111-.273-6.146zm-10.644 9.153c.342-.008-.02-.275-.2-.271-2.19.049-4.37-.072-6.45-.819-1.617-.581-3.191-1.618-4.918-1.838-.785-.1-1.537.001-2.318.122-1.557.241-3.063-.031-4.557-.485-1.676-.511-.27-4.268-.324-5.671-.008-.155-.51-.262-.502-.063.074 1.88-.73 3.658-.367 5.537.021.088.153.129.222.149 1.739.554 3.475 1.015 5.314.871 1.15-.089 2.169-.386 3.321-.032.876.273 1.67.696 2.514 1.049 2.699 1.124 5.349 1.516 8.265 1.451zm10.87-2.924c.201-.091-.262-.299-.4-.234-3.449 1.558-6.882 2.736-10.666 2.89-.339.013.017.278.198.271 3.862-.156 7.346-1.339 10.868-2.927zm-.398-6.164c.128-.109-.338-.303-.471-.195-3.766 3.248-9.236 4.745-14.119 4.47-2.814-.161-5.611-.68-8.322-1.45-1.379-.39-3.064-.74-4.279-1.535-.718-.472-1.369-1-2.149-1.368-.216-.104-.508.041-.193.189 1.346.637 2.346 1.549 3.774 2.059a39.06 39.06 0 0 0 3.707 1.14c2.666.666 5.392 1.196 8.146 1.261 4.863.108 10.154-1.331 13.906-4.571z" transform="translate(.75 1)"/></g><g id="L_Shoe"><path id="Fill_6_" fill="#EAA06D" d="M37.953 191.319c.008.726-.488 2.131-1.051 2.497-.762.491-2.146 1.019-3.026 1.198-3.854.789-9.394.82-13.232-.146-.879-.221-1.74-.694-1.963-1.396-.116-.371-.389-1.888-.334-2.226.098-.625 1.438-1.422 1.834-1.979.425-.597 1.313-1.078 1.904-1.553 1.191-.963 3.022-1.255 4.521-1.479 1.713-.258 3.229-.024 4.998.48 1.372.396 2.487 1.016 3.712 1.716.59.34 1.127.605 1.482 1.235.294.518.606 1.341 1.155 1.653" transform="translate(.75 1)"/><path id="Trim" fill="#BC7240" d="M37.597 192.751c-.048-.048-.186.566-.273.544-.246.346-.496.533-.865.867-.369.332-1.146.453-1.582.635-1.474.616-3.148.667-4.75.883-2.836.384-5.287.263-8.207-.499-1.115-.29-2.983-.578-3.24-1.716-.158-.704-.021-2.503-.916-2.139-.911.373-.672 1.814-.547 2.662.167 1.14.593 2.206 1.396 3.145.668.782 1.725.938 2.702 1.144 1.179.246 2.432.52 3.64.57 1.463.062 2.533.195 3.992.195 1.604 0 3.223-.232 4.766-.605.783-.189 1.602-.215 2.289-.646.474-.3 1.435-.459 1.577-.995.292-1.106.883-3.021.485-4.062" transform="translate(.75 1)"/><path id="Outline_12_" d="M37.673 191.295c.026.163.532.254.501.065-.209-1.286-2.781-2.417-3.76-2.938a10.872 10.872 0 0 0-4.988-1.248c-2.011-.011-4.341.036-6.271.639-2.049.642-3.675 1.863-5.125 3.42-.125.131.354.313.471.19 1.221-1.309 2.633-2.525 4.344-3.136 1.808-.646 3.824-.764 5.733-.825 1.81-.06 3.583.138 5.229.949.942.466 3.672 1.696 3.866 2.884zm-19.078.153c-.009-.162-.513-.264-.493-.062.062.871-.037 2.08.688 2.726.555.492 1.232.798 1.95.984 1.953.521 4.084.782 6.104.815 2.541.045 5.201-.145 7.66-.832.902-.254 1.899-.55 2.625-1.185.844-.735.777-1.477 1.049-2.494-.168-.038-.334-.069-.502-.104a11.093 11.093 0 0 1-.146 4.325c-.174.733-.043 1.116-.809 1.562-.367.213-.745.441-1.146.586-2.715.963-5.741 1.241-8.602 1.188-1.484-.027-2.979-.119-4.436-.402-1.498-.291-3.334-.607-4.188-2.028-.658-1.092-1.856-5.034.28-5.37.28-.044-.161-.285-.312-.265-2.185.344-1.341 4.135-.597 5.372 1.481 2.468 5.007 2.688 7.58 2.893 3.414.27 7.218.079 10.469-1.074.572-.204 1.169-.488 1.654-.856.516-.396.384-.547.525-1.141.366-1.546.482-3.149.225-4.72-.023-.144-.459-.267-.502-.104-.243.899-.174 1.823-1.016 2.438-.839.61-1.809.97-2.816 1.198-2.04.461-4.139.738-6.229.739a30.549 30.549 0 0 1-5.603-.517c-.875-.16-2.479-.38-2.961-1.244-.418-.755-.391-1.591-.451-2.428z" transform="translate(.75 1)"/></g><g id="Pants"><path id="Fill_7_" fill="#3D6767" d="M64.009 181.448c.86-1.266 1.401-2.83 1.634-4.337.31-1.992-1.168-2.584-2.574-3.472-1.241-.78-1.186-1.892-.677-3.176.27-.676.591-1.293.71-2.019.136-.828-.27-1.484-.879-1.955-.071-.051-.145-.102-.214-.15-.641-.418-1.443-.655-2.115-.669-.106.001-.574-.209-.326-.204.356.007.709.055 1.057.129-1.161-1.134-1.195-3.023-1.247-4.544-.096-2.669-.454-5.27-.853-7.91-.395-2.616-.834-5.251-1.066-7.89-.249-2.796-.105-5.482-.697-8.26-.001-.004.008-.004.009-.007-.002-.006-.014-.011-.014-.017.211-8.227-.341-16.436-.349-24.66 0-.005.016-.005.02-.009l-1.213-16.354s-13.875-.125-30.688 2.688l-1.174 13.531s.139.282-.022.231c-1.016 10.772-2.036 21.552-3.052 32.327 0 .001.003.002.003.004-.423 6.883-1.812 13.74-3.499 20.416-.765 3.021-2.013 6.306-1.397 9.453.127.651.375.78-.268 1.288-1.027.815-.234 1.237.596 1.888.017.015.022.029.021.052-.644 1.038-1.516 1.889-2.245 2.859a5.686 5.686 0 0 0-.772 1.459c-.354.941.112 1.604.604 2.371a17.706 17.706 0 0 0 3.06 3.588c1.027.926-.11 2.074 2.223 2.105.069.004.32.108.375.168 1.46-1.058 2.593-3.476 4.824-3.68 2.485-.672 4.092-.606 6.298-.286 2.105.308 2.543.312 4.303 1.437.854.322 2.86 2.354 3.33 2.301.776-.089 1.571-1.121.737-3.733-.436-1.364.237-.802 1.258-2.101.543 1.324 3.027 3.006 5.127 1.694-.088-.408-.853-1.694 2.05-1.694 2.722.024 4.353.015 7.199-.235 1.539-.136 3.408-1.196 4.856-1.783 1.263-.515 1.07-1.104 2.341-1.478.732-.286 2.262 1.324 2.895.764-.114-.041-.208-.1-.189-.13z" transform="translate(.75 1)"/><path id="Outline_11_" d="M66.089 175.942c-.598-1.836-3.899-2.021-3.54-4.151.255-1.503 1.929-3.489.528-4.896-.508-.512-1.13-.864-1.797-1.1-.024-.009-.049-.02-.073-.028-.056-.048-.092-.107-.143-.158-1.391-1.386-1.142-3.856-1.222-5.658-.121-2.737-.65-5.436-1.021-8.143-.375-2.747-.939-5.501-.952-8.282-.011-2.182-.155-4.286-.61-6.427.211-8.223-.341-16.429-.35-24.651l-1.195-17.001c-12.812-.438-31.625 2.688-31.625 2.688l-1.239 13.896-1.438 15.22-.246 2.605-1.392 14.738.002.003c-.38 6.213-1.556 12.425-3.018 18.466-.683 2.814-1.703 5.662-1.972 8.56-.099 1.023-.188 2.139.229 3.086.305.693-.352.902-.754 1.306-.303.307-.338.648 0 .962.435.403 1.1.611.604 1.277-.327.439-.683.849-1.038 1.263-.563.658-1.188 1.357-1.495 2.18-.103.267-.49 1.132-.33 1.401.265.449.53.9.821 1.335.684 1.029 1.432 2.026 2.313 2.897.669.659.897 1.039 1.271 1.846.164.351.39.6.654.783l.019.014c.476.323 1.081.423 1.72.441l.122.005.007-.001c.063-.001.071-.017.049-.041a.393.393 0 0 0-.101-.064l.172-.059c.024.083.423.232.494.117 3.353-6.109 13.787-4.976 17.729-.099.074.09.36.168.465.104.539-.342 1.599-.792 1.562-1.59-.055-1.182-.71-2.021-.527-3.241.355-.278.68-.604.985-.954 1.39 1.739 3.09 2.307 5.309 1.491.151-.055-.299-.238-.411-.196-.979.364-2.167.701-3.126.062-.636-.424-1.103-.982-1.542-1.6-.002-.004-.011-.005-.014-.008 1.339-1.674 2.07-3.957 1.609-6.037-.23-1.053-.75-1.6-1.604-2.213-.38-.274-1.365-.836-1.089-1.463.144-.318.33-.56.512-.854.434-.7.266-1.387.149-2.129 1.761 2.08 4.061 4.109 6.931 3.814.252-.026-.218-.221-.327-.207-2.834.292-5.038-2.154-6.656-4.188-.173-8.58-.901-17.213.446-25.736.016-.007.042-.007.046-.021 1.373-4.896 2.137-9.922 2.729-14.964.277-2.356.648-4.739.74-7.114.083-2.106.155-4.079 1.04-6.034.041-.087-.448-.257-.499-.139-.956 2.105-.916 4.203-1.062 6.459-.15 2.399-.487 4.793-.777 7.179-.583 4.777-1.321 9.535-2.601 14.181-.042.004-.077.014-.082.037-1.405 8.597-.662 17.304-.486 25.957-.038.009-.056.027-.028.062l.031.038c0 .039.002.077.003.116-.001.003-.011.002-.011.005.003.036.01.072.014.108v.025c0 .001.003.002.003.004.104.824.41 1.684-.11 2.415-.393.561-.732.997-.313 1.62.622.928 1.938 1.172 2.328 2.316.915 2.691-.357 5.917-2.485 7.677-1.083-1.292-3.471-1.694-4.961-2.054-2.618-.632-5.261-1.19-7.939-1.493-.329-.037.087.19.215.204 2.13.241 4.236.653 6.325 1.132.909.207 1.824.409 2.719.68.58.178 1.133.387 1.702.585.374.117.729.28 1.062.49-.05.243-.103.485-.154.726-3.396-.011-6.628-1.328-10.024-1.241-.25.008.22.211.324.209 2.203-.061 4.271.555 6.425.9 1.305.211 2.81.516 4.136.241-.079.929.277 1.481.469 2.458.21 1.072-.454 1.482-1.232 1.964-4.179-4.763-14.672-6.025-18.276-.09l-.611.242c-2.333-.031-1.195-1.18-2.223-2.105a17.738 17.738 0 0 1-3.06-3.588c-.491-.767-.958-1.43-.604-2.371a5.717 5.717 0 0 1 .772-1.459c.729-.971 1.602-1.821 2.245-2.859a.06.06 0 0 0-.021-.052c-.83-.65-1.623-1.072-.596-1.888.643-.508.395-.637.268-1.288l-.004-.031c2.655.819 5.005 2.499 7.839 2.695 2.893.201 5.702-1.303 8.456-2.059.147-.041-.296-.229-.417-.196-2.562.704-5.199 2.073-7.907 2.052-2.87-.021-5.313-1.855-7.993-2.671-.522-3.084.676-6.29 1.424-9.243 1.687-6.676 3.076-13.533 3.499-20.416 0-.002-.003-.003-.003-.004 1.016-10.775 2.036-21.555 3.052-32.327.161.051.022-.231.022-.231l1.174-13.531c16.812-2.812 30.688-2.688 30.688-2.688l1.213 16.354c-.004.004-.02.004-.02.009.008 8.225.56 16.434.349 24.66 0 .006.012.011.014.017-.001.003-.01.003-.009.007.592 2.777.448 5.464.697 8.26.232 2.639.672 5.273 1.066 7.89.398 2.641.757 5.241.853 7.91.052 1.521.086 3.41 1.247 4.544a5.604 5.604 0 0 0-1.057-.129c-.248-.005.22.205.326.204.672.014 1.475.251 2.115.669.074.048.146.098.214.15.609.471 1.015 1.127.879 1.955-.119.726-.44 1.343-.71 2.019-.509 1.284-.564 2.396.677 3.176 1.406.888 2.884 1.479 2.574 3.472-.232 1.507-.773 3.071-1.634 4.337l-.296.206.003.009a.43.43 0 0 0-.136-.028c-.309.025-1.014-.984-1.371-1.156a.842.842 0 0 0-.614-.062c-.823.232-1.728 1.122-2.498 1.534-1.104.589-2.242 1.133-3.436 1.521-2.423.787-4.74.801-7.259.788-1.848-.009-3.695.052-5.404.835-.062.027.338.235.473.169 2.162-.991 4.582-.793 6.897-.778 2.12.013 4.118-.213 6.12-.967a25.03 25.03 0 0 0 5.275-2.735c.515-.351 1.269.934 1.999 1.04l.015.048s.575-.102.633-.255c.041-.002.083-.005.101-.031.929-1.37 2.127-3.955 1.578-5.647z" transform="translate(.75 1)"/></g><g id="Neck"><path id="Fill_1_" fill="#A86C35" d="M41.286 40.41c4.354-.218 5.278-2.659 5.476-3.752-.46.104-2.445.417-2.467-1.88-.618.376-1.27.682-1.952.843h-.002a.369.369 0 0 1-.094.008c-2.746-.054-5.838-1.368-8.272-2.554-.064-.031-.126-.066-.189-.1l-.073.971-.22 2.88c.83 1.088 3.358 3.806 7.793 3.584z" transform="translate(.75 1)"/><path id="L_Side" d="M33.714 33.946l.073-.972.021-.278-.25-.063-.156.938-.25 2.897.128.184.205.295.229-3.001" transform="translate(.75 1)"/><path id="R_Side" d="M46.86 36.634l-.003-.037-.018-.192c-2.563.479-2.292-1.938-2.292-1.938h-.25c-.007.112-.002.208-.001.31.025 2.6 2.564 1.857 2.564 1.857z" transform="translate(.75 1)"/></g><g id="Undershirt"><path id="Fill_5_" fill="#C0E1E1" d="M22.916 111.234c.354 1.05 1.202 1.683 2.239 2.09.798.276 1.688.466 2.546.613.914.132 1.804.208 2.521.318 3.974.615 7.958 1.108 11.988.942-.001-.009-.013-.016-.011-.025.098-.818.378-1.601.483-2.427.116-.912.271-1.818.403-2.729.24-1.66.721-3.265.971-4.912.025-.161.356-.061.379.066.344 2.021.717 4.06.652 6.12-.025.821-.386 3.006.333 3.659 3.309-.348 6.593-.868 9.714-2.062.333-.125 4.705-2.264 5.016-3.515.003-.029.01-.059.012-.087a.432.432 0 0 0-.039-.234c-.06-.024-.112-.058-.124-.107-.006-.025-.011-.051-.018-.076l-.001-.002c-.079-.062-.068-.11-.032-.146-.584-2.404-.948-4.844-1.282-7.298-.154-1.129-.353-2.26-.445-3.396-.072-.875-.054-1.862-.361-2.696-2.67.908-5.356 2.894-8.021 3.808-3.359 1.15-5.783 2.141-9.326 2.569-3.045.368-5.857.402-8.922.402-1.321 0-3.114-.399-4.386-.707a37.307 37.307 0 0 1-2.167-.604c-.39-.122-.523-.702-.75-.438-.285.332-.349-.133-.318.201a12.15 12.15 0 0 1-.193 1.717c-.228 2.989-.826 5.947-.862 8.953l.001.003z" transform="translate(.75 1)"/><path id="Outline_10_" d="M60.35 108.851c-.675-2.748-1.052-5.547-1.435-8.348-.226-1.637-.112-3.712-.717-5.26-.055-.141-.432-.163-.355.029.007.019.01.039.017.058.308.834.289 1.821.361 2.696.093 1.137.291 2.268.445 3.396.334 2.454.698 4.894 1.282 7.298-.036.035-.047.083.032.146l.001.002c.007.025.012.051.018.076.012.05.064.083.124.107a.432.432 0 0 1 .039.234c-.003.028-.005.057-.012.087-.311 1.251-4.683 3.39-5.016 3.515-3.121 1.193-6.405 1.714-9.714 2.062-.719-.653-.358-2.838-.333-3.659.064-2.061-.309-4.099-.652-6.12-.022-.127-.354-.228-.379-.066-.25 1.647-.73 3.252-.971 4.912-.132.911-.287 1.817-.403 2.729-.105.826-.386 1.608-.483 2.427-.001.01.01.017.011.025-4.029.166-8.014-.327-11.988-.942-.717-.11-1.607-.187-2.521-.318-.872-.125-1.762-.306-2.546-.613-1.037-.407-1.886-1.04-2.239-2.09l-.002-.002c.036-3.006.634-5.964.862-8.953.059-.77.099-1.542.091-2.317-.002-.152-.385-.219-.383-.036.019 1.769-.179 3.52-.399 5.269-.201 1.597-.414 3.193-.505 4.799-.023.402-.042.804-.047 1.207 0 .002.003.003.003.006.828 2.441 4.087 2.793 6.268 3.09 4.583.623 9.099 1.367 13.743 1.147.167-.008.124-.112.031-.184.097-.814.375-1.592.479-2.412.117-.912.266-1.818.402-2.729.193-1.271.512-2.513.764-3.763l.011-.058.01.062c.287 1.914.472 3.802.432 5.763-.016.78-.202 2.24.419 2.901-.044.079.113.217.243.202 4.028-.414 8.465-.963 12.028-3.045.703-.406 3.903-2.244 2.984-3.33z" transform="translate(.75 1)"/></g><g id="Sweater"><path id="Fill_3_" fill="#302D63" d="M81.985 58.549c-1.066-1.46-.012 5.27-6.955 3.461-1.216-.314-3.206-2.068-3.838-3.461-.855-1.887.375-3.564 2.011-5.23a.992.992 0 0 0 .185-.285c2.794-.648 5.178 1.137 6.157 2.03a19.68 19.68 0 0 0-1.205-1.494c-2.375-2.656-4.938-2.281-5.281-2.125 0 0-.213.056-.118-.134-.034.005-.065.004-.101.009l.05.234c-3.25 1.054-2.968 5.89-6.401 6.55-.137.026-.586-.194-.312-.249 1.177-.227 1.886-1.065 2.45-2.031-2.621-.349-5 2.942-5.318 5.224-.019.145-.524.033-.503-.135.374-2.671 3.035-5.789 5.941-5.3l.034-.063a.431.431 0 0 1-.161-.026c-2.896-1.152-5.523.448-6.771 3.091-.073.155-.563-.009-.503-.136 1.382-2.928 4.275-4.314 7.324-3.176-.791-1.467-1.777-2.81-2.681-4.211-.987-1.535-1.668-3.233-2.609-4.795-1.472-2.429-3.458-4.521-5.754-6.178-1.624-1.174-3.441-2.086-5.333-2.734a16.197 16.197 0 0 0-1.571-.44l-3.568-.478s-.126 4-5.917 4.292c-5.792.292-8.167-3.875-8.333-4.042l-3.79 1.083s-.153.085-.274.08c-4.968 1.502-10.724.896-13.371 6.333l.001.002c-1.404 2.603-3.029 5.072-4.58 7.586-1.621 2.633-3.127 5.34-4.704 7.997-1.221 2.056-2.139 4.297-3.405 6.314-.872 1.393-2.579 3.477-2.227 5.242v.001c.574 2.257 1.708 4.241 3.076 6.104 1.583 2.159 2.91 4.499 4.229 6.82 1.916 3.364 4.475 9.205 9.003 9.369.022 0 .027-.009.056-.005 2.84.393 4.828-2.714 5.842-4.913.25-.545.456-1.109.627-1.685l.268.714-.229 6.061c-.245.113-.452.209-.574.272.443.379-.744 1.651-.463 2.117.05 1.148.18 2.376 0 2.797-.291.674 1.304.854 1.903 1.356 1.318 1.113 2.885 1 3.979 1.347 2.974.938 5.653.141 8.845.141 1.982 0 4.23-.009 6.103-.65 1.79-.612 3.328-.882 5.144-1.434 1.729-.521 3.773-1.489 5.41-2.23 1.644-.744 3.108-1.593 4.642-2.536.401-.249 1.315-.389 1.566-.709.287-.369.074-1.522-.004-1.955-.107-.605-.79-.955-.479-1.536.302-.565.924-1.006 1.271-1.625.779-1.386 1.248-1.962 1.081-3.634-.074-.743-.545-2.068-.896-2.757-.429-.841-.893-2.021-1.229-2.906-.349-.909-2.291-5.636-2.64-6.859-.185-.647-1.193-5.535-1.364-6.143-.121-.432.229-5.325.192-5.737.633-.009 2.118 5.737 3.354 6.38.531.277.912 2.235 2.637 3.403.979.661 2.096 1.686 3.264 2.009 1.219.338 1.245.491 2.521.611.975.093 0 0 1.372-.378.717.021.717.021 1.85-.656.695-.416 2.071-1.144 2.594-1.614 1.253-1.143 12.432-6.93 8.48-12.345zM23.83 83.028l-.003-.045c-.067-.511-.111-1.326-.3-1.768-.06-.132.438-.076.499.074a2.9 2.9 0 0 1 .171.657l-.367 1.082zM16.14 70.88c.36-.132.11-.04-.027.087-.026-.037-.026-.067.027-.087zm5.887 6.701c-.058.005-.942-.078-.997-.109-.209-.131-.247-.398-.479-.452-.283.002-.15-.229-.429-.25-.488.038.02-.227-.43-.449-.649-.325.166.137-.327-.392-.125-.132-.145-.174-.25-.319-.134.021-.377-.403-.413-.573-.106-.502-.067-.129-.417-.638-.07-.014-.283-.541-.337-.612-.205-.279-.337-.67-.433-1.021-.113-.067-.301-.479-.408-.559-.223-.161-.092-.078-.061-.351-.089-.061-.101-.191-.19-.257-.041.026-.052-.133-.113-.133-.368.001-.491-.104-.157-.151-.09-.077-.244-.165-.356-.244.207.084.547.274.812.406.117.044.213.08.222.073-.002-.016.022.012.023.035.055.019.098.027.109.011.059-.08.056-.203.116-.28.07-.199-.141-.815 0-.975.001-.003-.566.267.688-.351.36-.266.435-.126.8-.669.01-.04.623-.731.633-.771.139-.505.202-.014.349-.521.005-.02.201-.335.201-.335.032-.09.323-.287.362-.371.088-.226.159-.205.264-.424.005-.036-.049-.316-.028-.355l.052-.09c.069-.157.106-.297.195-.45.091-.334.071-.664.091-.334.111.034.145-.403.164-.258.047.739.342-.837 1.149 1.78.241.775.677 1.211.72 2.018.022.459.288.698.28 1.172.113.022.209.452.205.616-.006.505.185.477.132.977.006.198.155.817.13 1.009.121.564.073.274.102.848 0 .004.146.762.146 1.203 0 .578-.139.199-.112 1.041.094.241-.1.9.006 1.138.209.294-.128.793 0 1.104.146.356-.328.077-.664-.271-.032-.027-.707-.346-1.35-.466z" transform="translate(.75 1)"/><path id="Cuff" fill="#C0E1E1" d="M76.674 59.434c-1.89-.728-4.204-2.69-3.17-4.944.069-.158.56.005.502.133-.789 1.721.508 3.311 1.912 4.197 1.832 1.159 3.923.687 5.403-.711-.129-.321-.428-.995-.99-1.899l.008.017c-3.188-3.406-6.753-2.93-6.753-2.93-1.407 1.021-2.584 2.43-2.412 4.267.104 1.104.734 2.068 1.528 2.832l.068.065c.26.243.533.466.812.665a6.434 6.434 0 0 0 2.334 1.038c.461.101.931.144 1.398.125a4.762 4.762 0 0 0 1.21-.2c1.562-.479 2.403-1.894 2.793-3.385-1.325 1.003-3.017 1.355-4.643.73z" transform="translate(.75 1)"/><path id="Outline_9_" d="M81.878 58.289a.54.54 0 0 1-.031-.04c.023-.021.047-.04.069-.062.074-.076-.104-.175-.267-.206-.652-1.028-.129-2.025-3.029-4.755-3.188-3-5.581-2.065-5.581-2.065a4.375 4.375 0 0 0-1.163.392 4.25 4.25 0 0 0-.703.451c-.63.492-1.133 1.147-1.551 1.918-.204.377-.399.783-.605 1.186-.761-1.352-1.677-2.6-2.503-3.914l-.062-.097a21.976 21.976 0 0 1-.785-1.385c-.661-1.251-1.251-2.54-2.027-3.729-.136-.208-.293-.403-.435-.607-.173-.247-.345-.494-.526-.734-1.374-1.822-2.999-3.451-4.889-4.743-1.698-1.161-3.707-2.279-5.772-2.88a12.003 12.003 0 0 0-1.198-.292l.042-.094c-.792-.208-4.042-.5-4.042-.5 0 .026-.003.229-.057.525-.198 1.093-1.122 3.534-5.476 3.752-4.435.222-6.963-2.496-7.792-3.584-.206-.27-.311-.443-.311-.443l-.219-.062-4.255 1.252c-.11.035-.222.062-.333.095-2.466.727-5.071.825-7.533 1.57-2.649.802-4.655 2.326-5.879 4.842l.001.002c-1.479 2.73-3.208 5.308-4.812 7.963a415.459 415.459 0 0 0-4.935 8.4c-1.172 2.047-2.121 4.203-3.368 6.201-.796 1.271-2.12 3.043-1.804 4.637 0 .002.005.003.006.006.67 2.628 2.107 4.677 3.608 6.869.326.476.635.962.945 1.448a99.841 99.841 0 0 1 2.304 3.837c.49.853.978 1.707 1.472 2.558l.379.655c1.149 1.981 2.502 4.229 4.32 5.692 1.071.862 2.308 1.442 3.757 1.54l.024.001c.116.008.228.024.347.025.025 0 .04-.003.058-.006 2.567.178 4.496-2.101 5.581-4.21.255-.495.48-1.01.687-1.534l-.46 5.766c-.857.681-.966 1.72-.938 2.75.026.802.392 1.872.101 2.646-.038.099.196.198.359.195 1.569 1.265 3.75 1.956 5.685 2.304 3.708.668 7.48.343 11.21.045 3.894-.312 7.326-1.357 10.941-2.822 1.652-.669 3.394-1.231 4.92-2.167 1.436-.879 2.736-1.698 4.368-2.087.105.039.226.062.289.025 1.124-.665-.081-3.154-.491-3.996 1.688-1.748 3.244-3.514 2.344-6.26-1.331-4.062-3.434-7.837-4.678-11.941-1.096-3.623-1.464-7.119-1.088-10.841 1.278 2.572 2.381 5.332 4.15 7.593 1.732 2.213 4.03 3.521 6.714 4.274.047.013.076.008.11.008a.27.27 0 0 0 .071.006c2.303-.292 4.461-1.04 6.312-2.473a26.695 26.695 0 0 0 1.577-1.333c.004-.001.01 0 .014-.002 2.787-1.382 5.285-3.519 6.959-6.15 1.083-1.705 1.746-4.03-.126-5.415zm-.556-.18c-1.48 1.397-3.571 1.87-5.403.711-1.404-.887-2.701-2.477-1.912-4.197.058-.128-.433-.291-.502-.133-1.034 2.254 1.28 4.217 3.17 4.944 1.626.625 3.318.273 4.645-.729-.39 1.491-1.23 2.906-2.793 3.385a4.762 4.762 0 0 1-1.21.2 5.53 5.53 0 0 1-1.398-.125 6.434 6.434 0 0 1-2.334-1.038 7.869 7.869 0 0 1-.812-.665l-.068-.065c-.794-.764-1.425-1.728-1.528-2.832-.172-1.837 1.005-3.246 2.412-4.267 0 0 3.565-.477 6.753 2.93l-.008-.017c.56.903.859 1.576.988 1.898zm-.343 6.229a18.127 18.127 0 0 1-4.701 4.356c.93-.891 1.847-1.796 2.814-2.642.119-.101-.347-.293-.47-.184-1.75 1.526-3.315 3.274-5.125 4.731-1.956 1.573-4.09 2.467-6.572 2.798-2.893-.832-5.247-2.408-6.88-4.97-1.499-2.348-2.572-4.946-3.87-7.409.431-3.512.856-6.974.595-10.519-.011-.146-.514-.252-.5-.072.26 3.539-.213 6.96-.603 10.449-.004.009-.022.012-.017.023l.012.022-.092.829a25.588 25.588 0 0 0 .979 10.333c1.207 3.981 3.07 7.673 4.52 11.559.737 1.976.791 3.848-.616 5.527-.438.522-.919 1.006-1.399 1.488-.012.002-.008.011-.016.015-.553.553-1.106 1.104-1.604 1.708-.108.134.371.309.468.188.405-.49.856-.959 1.308-1.425.443.953 1.111 2.645.484 3.325-2.803.557-5.051 2.498-7.676 3.551-3.328 1.336-6.753 2.967-10.351 3.39-3.572.42-7.326.763-10.921.491-2.663-.201-5.769-.748-7.887-2.54a.283.283 0 0 0-.092-.042c.17-.635-.048-1.431-.095-2.055-.084-1.128-.096-2.38.875-3.146l.144-3.067 4.27 2.382c3.504 2.103 7.377 4.196 11.527 4.539 4.047.336 7.765-.948 11.274-2.885.188-.104-.277-.296-.404-.228-3.334 1.843-7.066 3.283-10.946 2.869-4.052-.434-7.7-2.35-11.146-4.414l-4.56-2.571.155-3.299c2.215-3.167 1.896-7.086 1.896-7.086a5.431 5.431 0 0 0-1.496-1.878c.013-2.446.25-5.057-.405-7.443-.519-1.902-1.119-4.042-2.107-5.763a.23.23 0 0 0 .08-.002c2.166-.667 3.312-3.097 4.213-4.989.059-.129-.43-.291-.502-.135-.828 1.737-1.874 3.943-3.757 4.743.147-.375.292-.743.434-1.088.511-1.23.998-2.479 1.578-3.68.564-1.163 1.271-2.871 2.587-3.352.188-.069-.271-.275-.401-.229-.983.357-1.604 1.394-2.084 2.271-.702 1.283-1.251 2.631-1.811 3.979-1.044 2.501-2.002 6.27-4.743 7.414-.115-.164-.235-.314-.331-.438a20.187 20.187 0 0 0-1.205-1.377c-.097-.105-.595-.15-.463-.008.629.676 1.842 1.699 1.916 2.676.058.77-.801-.084-1.002-.291a6.64 6.64 0 0 0-1.041-.887c-.684-.469-1.485-.734-2.281-.952-.299-.082-.356.136-.059.216.84.23 1.7.528 2.373 1.104.397.337.742.789 1.158 1.122.977 1.051 1.297 2.585 2.137 3.76.583.819 1.22 1.592 2.036 2.18-.63-.005-1.254.099-1.468.502-.062.118.421.291.504.137.284-.537 1.762-.37 2.201-.293 1.573.275 2.743 1.206 3.438 2.629.024.05.102.084.186.108-.025.06-.04.113-.04.113-.042 2.868-.768 4.747-1.254 5.698a9.66 9.66 0 0 0 .182-1.069c.063-.608.108-1.235.026-1.847-.044-.339-.068-.724-.116-1.098-.042-.323-.1-.637-.213-.903-.062-.15-.559-.206-.499-.074.188.441.232 1.257.3 1.768.09.67.092 1.351-.001 2.021a13.226 13.226 0 0 1-1.069 3.726c-1.014 2.199-3.002 5.306-5.842 4.913-.029-.004-.034.005-.056.005-4.528-.165-7.087-6.005-9.003-9.369-1.318-2.321-2.646-4.661-4.229-6.82-1.367-1.862-2.501-3.846-3.076-6.104v-.001c-.353-1.766 1.354-3.85 2.227-5.242 1.267-2.018 2.185-4.259 3.405-6.314 1.577-2.657 3.083-5.364 4.704-7.997 1.551-2.514 3.176-4.983 4.58-7.586l-.001-.002c2.646-5.437 8.403-4.831 13.371-6.333a.646.646 0 0 0 .274-.08l3.79-1.083c.167.167 2.542 4.333 8.333 4.042 5.791-.292 5.917-4.292 5.917-4.292l3.568.478c.53.121 1.056.267 1.571.44a20.42 20.42 0 0 1 5.333 2.734c2.296 1.657 4.282 3.749 5.754 6.178.941 1.562 1.622 3.26 2.609 4.795.903 1.401 1.89 2.744 2.681 4.211-3.049-1.139-5.942.248-7.324 3.176-.061.127.43.291.503.136 1.248-2.643 3.876-4.243 6.771-3.091a.395.395 0 0 0 .161.026l-.034.063c-2.906-.489-5.567 2.629-5.941 5.3-.021.168.484.279.503.135.318-2.282 2.697-5.572 5.318-5.224-.564.966-1.273 1.805-2.45 2.031-.274.055.175.275.312.249 3.533-.68 3.12-5.792 6.682-6.644.062-.015.117-.039.182-.051.055-.011.074-.028.081-.049.863-.11 2.947.017 4.907 2.209.472.527.859 1.022 1.205 1.494-1-.912-3.461-2.759-6.33-1.994v.023c-.037.001-.077 0-.101.016-1.547 1.125-2.922 2.879-2.342 4.905.453 1.582 1.705 2.859 3.143 3.615 1.392.731 3.097 1.19 4.661.783 1.85-.482 2.858-1.97 3.282-3.736 1.534 1.597.277 4.129-.878 5.665zm-63.444 6.167c.026.001.049 0 .067-.007 2.019-.755 3.062-2.843 3.876-4.845.326.684.509 1.364.784 2.09.405 1.054.826 2.116 1.093 3.218.563 2.345.425 4.774.406 7.168a5.092 5.092 0 0 0-1.793-.677 10.446 10.446 0 0 0-.895-.117c-1.172-.77-2.273-2.192-2.844-3.451-.347-.764-.614-1.521-1.103-2.18.269.037.538-.013.616-.284.08-.291-.035-.614-.207-.915z" transform="translate(.75 1)"/></g><g id="Collar"><path id="R_Fill" fill="#C0E1E1" d="M45.366 35.559c-.586.738-1.057 1.56-1.547 2.367-.076.126-.155.25-.233.375-.424.68-.875 1.339-1.438 1.916-.729.75-.446 1.04.192 1.698.442.454.873.918 1.305 1.382.841.907 1.676 1.821 2.522 2.722 1.019-3.173 2.659-6.203 4.036-9.228-1.487-1.201-3.567-1.85-5.376-2.319-.052-.013-.077-.04-.107-.064l-.018.011c-.533.214.092 1.693.088.979 0-.034 0 .067-.002.101.039-.052.074-.107.114-.158.138-.17.615.022.464.218z" transform="translate(.75 1)"/><path id="L_Fill" fill="#C0E1E1" d="M34.654 44.414c.971.823 1.982 1.61 2.914 2.437.693-1.085 1.086-2.333 1.715-3.457.392-.699.806-1.386 1.22-2.07.576-.958-.264-1.232-.986-1.735-1.358-.94-2.719-1.956-3.944-3.103-.096-.09-.195-.176-.29-.268-.41-.398-.796-.818-1.165-1.251a15.11 15.11 0 0 1-.759-.964c-1.469.868-3.131 1.773-4.11 3.191-.01.015-.025.023-.04.033-.604.471 2.64 4.354 3.025 4.824.608.738 1.322 1.402 2.062 2.046.009.004.016.01.025.015a.821.821 0 0 1 .333.302z" transform="translate(.75 1)"/><path id="Outline_6_" d="M50.74 36.826a.116.116 0 0 0-.015-.078.158.158 0 0 0-.056-.063c-.005-.005-.006-.009-.012-.014-1.241-1.049-2.908-1.703-4.516-2.183a33.746 33.746 0 0 0-1.223-.342c-.26-.066-.349.142-.197.261.03.024.056.051.107.064 1.809.47 3.889 1.118 5.376 2.319-1.377 3.025-3.018 6.054-4.036 9.228-.847-.9-1.681-1.815-2.522-2.722-.432-.464-.862-.928-1.305-1.382-.639-.658-.921-.948-.192-1.698.563-.577 1.014-1.236 1.438-1.916.078-.125.157-.25.233-.375.49-.807.961-1.628 1.547-2.367.15-.196-.326-.388-.463-.218-.041.051-.076.106-.114.158-.104.14-.208.28-.307.424-.543.788-1.005 1.629-1.526 2.431-.321.488-.643 1.006-1.052 1.427-.161.162-.443.383-.618.629-2.719-2.037-5.672-3.848-7.634-6.707l-.006-.009c-.089-.131-.289-.201-.435-.114-1.557.928-3.371 1.869-4.426 3.396-.007.011-.006.021-.011.031-.681.778 1.967 3.815 2.389 4.351 1.777 2.271 4.179 3.957 6.298 5.896.095.089.337.185.438.041.646-.922.96-1.965 1.461-2.96.546-1.089 1.193-2.129 1.831-3.169.235.75 1.239 1.402 1.72 1.92 1.058 1.143 2.099 2.298 3.174 3.423.087.108.296.145.403.062.034-.015.057-.036.065-.063 1.014-3.331 2.754-6.497 4.191-9.66.002-.007-.007-.013-.005-.021zm-18.506 5.223c-.385-.469-3.63-4.353-3.025-4.824.015-.01.03-.018.04-.033.979-1.417 2.641-2.323 4.11-3.191l.021.027c.233.322.479.634.738.937.369.433.755.853 1.165 1.251.095.092.194.178.29.268 1.226 1.146 2.586 2.162 3.944 3.103.723.503 1.562.777.986 1.735a73.847 73.847 0 0 0-1.22 2.07c-.629 1.124-1.022 2.372-1.715 3.457-.932-.827-1.943-1.614-2.914-2.437-.122-.104-.237-.213-.358-.318-.741-.643-1.454-1.307-2.062-2.045z" transform="translate(.75 1)"/></g><g id="Head"><g id="Head_1_"><path id="R_Ear" fill="#A86C35" d="M51.537 18.219c-.003.006-.017.004-.021.009-.03.443-.033.878.026 1.271.002.012-.017.013-.021.022.21.967.331 1.947.357 2.924.235-.547.477-1.093.679-1.655.173-.483.239-.979.265-1.487a4.328 4.328 0 0 0-.062-.771c-.055-.542-.462-.647-1.223-.313z" transform="translate(.75 1)"/><path id="Head_Fill" fill="#A86C35" d="M47.445 31.59c.256-.287.515-.568.779-.844a21.555 21.555 0 0 0 1.525-1.958c1.896-2.783 1.965-6.488 1.21-9.67-.008-.034.019-.053.063-.062-.098-1.173.139-2.568.669-3.568.002-.004.011-.002.013-.005.25-.921 3.397-13.508-10.972-14.477-14.844-1-16.626 7.658-15.71 17.662.089.052.176.091.269.155.214.148-.291.1-.394.03-.442-.309-.824-.409-1.153-.364a.994.994 0 0 0-.058.011c-1.418.273-1.802 3.338-1.536 4.4.208.831.769 1.54 1.341 2.146.343.363.75.661 1.146.964 1.104.854 1.896.399 2.509-.507.09-.135.553.06.5.135a4.787 4.787 0 0 1-.232.309c.006.026.017.057.024.084.101.023.198.061.218.118 1.069 3.101 3.5 5.216 6.343 6.698 2.27 1.188 5.379 2.485 7.984 2.552 1.486-.365 2.759-1.407 3.917-2.361a19.831 19.831 0 0 0 1.545-1.448z" transform="translate(.75 1)"/><g id="Outline_5_"><path id="Outline_4_" d="M53.081 18.113c-.244-.561-.904-.691-1.431-.51-.024.008-.053.008-.076.018.109-.72.318-1.429.619-1.997.004-.007-.013-.017-.015-.025l.028-.024c1.243-3.935.257-12.409-6.837-14.128-.2-.048-.393-.089-.589-.135C41.824.631 39.251.315 36.872.46c-3.074.188-5.831 1.142-8.69 3.08-4.956 3.361-3.611 13.905-3.463 14.959-.092-.041-.178-.059-.267-.087-2.468-.769-3.658 3.35-2.363 5.396.764 1.211 1.966 2.359 3.318 2.89.751.296 1.336-.006 1.805-.506 1.054 2.917 3.351 5.038 6.026 6.493-.008.001-.013.004-.021.006.165.062.317.138.453.233l-.003-.012c.104.053.203.112.308.163 2.435 1.186 5.526 2.5 8.272 2.554a.332.332 0 0 0 .094-.008h.002c.698-.165 1.366-.481 1.997-.869.143-.116.304-.212.484-.288-.008-.003-.014-.008-.023-.011a17.397 17.397 0 0 0 1.57-1.237c1.338-1.171 2.643-2.479 3.647-3.956 1.146-1.68 1.7-3.577 1.833-5.528.037-.007.074-.015.083-.042.6-1.749 1.977-3.68 1.147-5.577zm-3.332 10.674a21.457 21.457 0 0 1-2.304 2.802 19.32 19.32 0 0 1-1.546 1.448c-1.158.955-2.431 1.996-3.917 2.361-2.604-.067-5.714-1.363-7.984-2.552-2.843-1.482-5.273-3.598-6.343-6.698-.02-.057-.117-.095-.218-.118-.025-.006-.048-.016-.073-.019l.049-.065c.08-.1.159-.201.232-.309.248-.659-.139-1.158-.744-1.201-1.211-.088-2.586.562-3.23-.939-.062-.139-.543-.187-.498-.082.36.844 1.138 1.256 2.021 1.361.567.07 2.35-.336 1.949.727l.001.002c-.612.905-1.404 1.358-2.507.505-.396-.303-.803-.601-1.146-.964-.572-.606-1.133-1.315-1.341-2.146-.266-1.062.118-4.127 1.536-4.4l.058-.011c.329-.045.711.056 1.153.364.103.069.607.118.394-.03-.092-.064-.179-.103-.269-.155-.916-10.004.866-18.662 15.71-17.662 14.37.968 11.222 13.556 10.972 14.477-.002.003-.011.001-.013.005-.53 1-.767 2.395-.669 3.568-.045.009-.071.028-.063.062.755 3.181.686 6.886-1.21 9.669zm2.808-7.997c-.202.562-.443 1.108-.679 1.655a15.766 15.766 0 0 0-.357-2.924c.005-.009.023-.01.021-.022a5.868 5.868 0 0 1-.026-1.271c.005-.005.019-.003.021-.009.761-.334 1.168-.229 1.222.312.044.256.065.513.062.771-.025.51-.091 1.005-.264 1.488z" transform="translate(.75 1)"/><path id="L_Ear" d="M22.513 20.972c-.007.154.496.244.502.136.051-1.041 1.402-1.207 2.063-.545.608.611 1.057 1.359 1.688 1.952.095.088.578.139.458.025-.924-.868-1.458-2.191-2.773-2.525-.793-.198-1.887-.025-1.938.957z" transform="translate(.75 1)"/></g></g><g id="Nose"><path id="Outline_3_" d="M38.79 26.418c.356-.228.765-.274 1.163-.381.049.05.136.104.228.118.928.147 1.697.519 2.669.405.854-.099 1.648-.791 1.8-1.636.025-.141-.479-.258-.502-.133-.155.86-1 1.562-1.885 1.578-.765.013-1.393-.286-2.11-.412.003-.076-.337-.21-.441-.175-.477.157-.964.182-1.397.454-.089.06.344.263.475.182z" transform="translate(.75 1)"/><path id="Outline_2_" d="M40.015 24.266c1.221-.479 2.547-.77 3.83-.349.202.066.521-.027.181-.139-1.49-.488-2.976-.285-4.419.28-.168.065.289.255.408.208z" transform="translate(.75 1)"/></g><g id="L_Eye"><path id="L_White" fill="#FFF" d="M37.439 19.921c-.153-.718-.742-1.155-1.084-1.762-.312-.562-.859-.895-1.464-1.177-1.521-.718-2.884.191-3.778 1.423-.275.38-.544.821-.472 1.316.115.802.742 1.091 1.445 1.246.946.213 2.109.336 3.037.083.479-.13 1.996-.597 2.114-1.193a.414.414 0 0 1 .163-.039" transform="translate(.75 1)"/><path id="L_Outline" d="M37.116 20.181c.056.15.554.216.5.074-.571-1.612-1.444-3.344-3.302-3.621-1.24-.184-2.508.644-3.313 1.513-.403.437-.842.881-.595 1.521.241.631.729 1.04 1.378 1.234 1.79.537 4.14.33 5.784-.57.188-.104-.278-.292-.403-.225-1.342.735-3.541 1.116-5.027.67-1.803-.542-1.387-1.806-.422-2.688.605-.558 1.377-1.127 2.229-1.205 1.82-.168 2.675 1.892 3.171 3.297z" transform="translate(.75 1)"/><path id="L_Pupil" fill="#42210B" stroke="#010101" stroke-width=".249" d="M34.379 18.847c.303 0 .577.123.776.322a1.094 1.094 0 0 1 0 1.552 1.094 1.094 0 0 1-1.552 0 1.094 1.094 0 0 1 0-1.552c.199-.199.473-.322.776-.322z"/></g><path id="L_Eyebrow" d="M30.202 15.875c.878-2.215 3.476-2.522 5.548-2.063.295.065.35-.113.049-.181-2.222-.494-5.138-.321-6.1 2.11-.045.113.448.271.503.134z" transform="translate(.75 1)"/><g id="R_Eye"><path id="R_White" fill="#FFF" d="M49.789 17.92v.034c0 .652-.429 1.094-1.052 1.395-.804.393-1.255.55-2.149.593-.894.045-1.722.067-2.562-.184-.392-.115-.412-.154-.374-.548.033-.335.153-.511.3-.813.14-.287.161-.632.341-.884.158-.228.104-.568.295-.771.479-.514 1.132-.669 1.854-.688.638-.016 1.396.068 1.918.406.371.238 1.526.916 1.5 1.492" transform="translate(.75 1)"/><path id="R_Outline" d="M43.388 19.636c-.027.161.479.28.503.133.204-1.206.569-2.967 1.84-3.521.916-.396 1.875-.119 2.688.392.885.556 1.78 1.638.469 2.462-1.376.867-3.624 1.038-5.152.519-.211-.074-.522.054-.188.169 1.694.58 3.938.47 5.542-.333.503-.251 1.389-1.271.878-1.9a4.247 4.247 0 0 0-.938-.83c-.845-.562-1.956-1.092-3.008-.905-1.812.318-2.366 2.231-2.634 3.814z" transform="translate(.75 1)"/><path id="R_Pupil" fill="#42210B" stroke="#010101" stroke-width=".249" d="M46.761 17.827a1.095 1.095 0 0 0-1.138 1.056 1.098 1.098 0 1 0 2.195.083 1.099 1.099 0 0 0-1.057-1.139h0z"/></g><path id="R_Eyebrow" d="M44.42 13.526c1.91-.721 4.435-.943 5.604 1.093.076.132.547.167.498.082-1.321-2.3-4.32-2.209-6.513-1.384-.168.063.289.253.411.209z" transform="translate(.75 1)"/><g id="Mouth_1_"><path id="Mouth" fill="#700F10" d="M36.985 28.508c-.175.705.118 1.194.655 1.528.096.181.187.367.314.542.421.563 1.057.801 1.656 1.109.705.36 1.505.56 2.317.448.504-.066 1.327-.285 1.643-.684.361-.458.396-.906.396-1.461l.002-.076c.033-.039.071-.077.079-.116.167-.917 1.292-1.646 1.292-1.646-6.625 1.544-8.354.356-8.354.356z" transform="translate(.75 1)"/><path id="Teeth" fill="#FFF" d="M37.052 28.68c.005.047.008.094.017.141 2.153.983 5.515 1.177 7.457-.312.004-.003.012-.002.018-.003.02-.02.037-.043.058-.062-2.431.549-5.193 1.049-7.55.236z" transform="translate(.75 1)"/><path id="Outline_1_" d="M45.161 27.722c-.062.009-.135.048-.122.118.001.012.013.017.017.027-.025.021-.049.043-.044.082.005.04.034.065.064.087-2.458.567-5.467 1.272-7.916.412.016-.002.03-.007.046-.008.062-.007.135-.047.125-.118-.014-.079-.095-.119-.158-.143a.719.719 0 0 0-.358-.021c-.313-.013-.628.188-.54.518-.016.035-.038.067-.048.104l.005.001-.001.002c-.028.173.328.271.379.102.003-.011.014-.017.018-.028.02-.014.04-.027.042-.058l.003-.012c.006-.013.015-.023.022-.035.242 1.738 2.435 3.417 4.088 3.495 1.041.049 2.128-.062 2.991-.692.381-.278.253-.832.334-1.25.177-.89.496-1.536 1.275-2.023.007.022.021.045.024.065.018.136.309.217.366.08.045-.01.081-.034.089-.081.081-.44-.297-.669-.701-.624zm-1.88 3.768a3.826 3.826 0 0 1-1.616.479c-1.224.079-2.246-.177-3.142-1.045-.566-.552-1.25-1.218-1.438-2.019.218.098.439.192.677.273.122.042.251.073.377.109 1.273.37 2.732.483 4.062.247.261.161.559.31.775.533.242.248.451.534.675.801-.064.271-.169.51-.37.622zm.985-2.682a2.651 2.651 0 0 0-.467 1.072c-.04.201-.057.497-.104.785a6.179 6.179 0 0 0-.493-.574c-.24-.231-.555-.393-.835-.569-.006-.004-.023-.008-.038-.012.652-.128 1.273-.333 1.817-.648a5.16 5.16 0 0 0 .159-.096c-.012.015-.027.027-.039.042zm.279-.302c-.006.001-.014 0-.018.003-1.942 1.489-5.304 1.295-7.457.312-.009-.046-.012-.094-.017-.141 2.356.812 5.119.312 7.55-.237-.022.02-.038.043-.058.063z" transform="translate(.75 1)"/></g><g id="Hair"><path id="Fill" fill="#301113" d="M52.744 13.908c-.036-.053-.053-.114-.018-.182.334-.648.27-1.496-.013-2.149-.038-.088-.008-.146.049-.182-.001-.019-.019-.032-.013-.052a4.743 4.743 0 0 0-.251-3.192c-.039-.084-.013-.141.041-.177.464-1.098-.395-2.21-1.133-2.974-.066-.035-.121-.083-.135-.152-.147-.746-.696-1.296-1.172-1.854a.175.175 0 0 1-.048-.107c-.009-.01-.02-.018-.026-.028-.41-.689-.936-1.42-1.757-1.604-.127.052-.349.007-.41-.129-.396-.873-1.825-.924-2.646-1.011-.013-.001-.019-.011-.03-.014-.015-.001-.022.007-.038.004-.683-.151-1.644-.815-2.315-.381-.084.055-.208.037-.307-.013a.207.207 0 0 1-.146.033 38.466 38.466 0 0 0-1.399-.132.26.26 0 0 1-.207-.02l-.011-.001c-.013-.001-.019-.011-.031-.013-.579-.282-1.288-.155-1.896-.065a7.315 7.315 0 0 1-1.558.057c-.037-.002-.061-.024-.09-.037-.02.005-.021.02-.047.021a27.74 27.74 0 0 0-2.25.231c-.03.017-.071.015-.113.015l-.042.005c-.008.001-.014-.005-.022-.004-.01-.002-.015.004-.025 0-.831-.259-1.529-.115-2.119.543-.078.088-.229.084-.344.035-.628.194-1.241.426-1.845.69.014.058-.011.112-.11.141-.811.232-2.414.211-2.408 1.375.001.167-.18.198-.328.151-.556.429-1.076.897-1.548 1.417l-.019.019-.001.001a.226.226 0 0 1-.062.048c-.351.179-.938.439-1.021.863-.029.142.002.297-.02.441-.014.113-.085.198-.168.272-.004.018-.006.036-.018.054-.32.497-.6 1.013-.853 1.546.011.029.034.055.026.09-.086.41-.454.66-.521 1.076-.059.371.045.752-.236 1.054a.195.195 0 0 1-.084.05c-.133.53-.231 1.065-.292 1.608.04.043.062.098.049.16-.088.453-.447.886-.251 1.31.079.035.146.086.152.168.001.025.006.05.007.076.019.038.024.072.01.101.035.46.098.917.198 1.369.199.284.223.604.313.944.052.19.103.451.258.587a.396.396 0 0 1 .146.337c-.001.018-.018.022-.023.037a7.626 7.626 0 0 0 1.612 2.123.28.28 0 0 1 .058.073c.083.004.167.03.218.089.807.917 1.344 1.888 1.858 2.968.432-.275.935-.639.74-1.154-.169-.439-.493-.839-.69-1.271-.562-1.202-1.16-2.444-1.646-3.677-.803-2.032-.258-4.745.632-6.65.899-1.933 3.19-3.334 5.075-4.15 2.881-1.246 6.246-1.254 9.33-1.103 1.672.082 3.351.319 5.014.537 1.07.141 2.108.439 3.04.996 3.479 2.068 3.64 6.87 3.393 10.429-.02.207-.312.218-.449.109-.142 1.084-.299 1.934-.35 2.091l.097-.101c.219-.304.471-.584.704-.89.595-.788.537-1.931.535-2.875z" transform="translate(.75 1)"/><path id="Outline" d="M53.203 11.528c.016-.018.042-.023.05-.05a5.043 5.043 0 0 0-.244-3.318c.006-.009.02-.009.024-.02.547-1.227-.433-2.52-1.253-3.358-.012-.012-.027-.019-.041-.028-.195-.76-.714-1.335-1.217-1.924l-.003-.002c-.005-.012-.004-.023-.012-.037-.511-.862-1.178-1.748-2.229-1.928-.023-.004-.036.008-.058.008-.584-.912-2.012-1.038-2.995-1.141-.893-.201-1.873-.867-2.759-.319-.038-.026-.076-.054-.128-.06a34.392 34.392 0 0 0-1.497-.138c-1.101-.474-2.46.036-3.607-.037-.057-.003-.085.018-.12.033a.303.303 0 0 0-.148-.041 25.62 25.62 0 0 0-1.589.146c-.236.028-.472.056-.707.091a3.045 3.045 0 0 0-.254-.064c-.748-.146-1.429.002-2.009.488-.032.027-.063.059-.095.088a.269.269 0 0 0-.075.006c-.191.055-.375.126-.563.188-.703.229-1.394.488-2.062.809-.022.011-.034.024-.049.036-.657.141-1.422.27-1.86.701a1.158 1.158 0 0 0-.138.166c-.08.116-.135.253-.17.409l-.005.002a12.345 12.345 0 0 0-1.851 1.672c-.361.18-.86.412-1.055.763-.102.183-.092.406-.127.601a.586.586 0 0 1-.077.203c-.032.052-.063.104-.126.14-.094.055-.093.128-.043.191a14.87 14.87 0 0 0-.875 1.632c-.024.053-.011.101.02.141-.137.249-.366.453-.413.746-.04.254 0 .562-.074.815-.004.015-.011.028-.017.042-.005.015-.018.027-.024.042-.082.007-.156.035-.177.118a12.12 12.12 0 0 0-.365 2.008c-.003.037.022.063.038.094-.084.273-.237.53-.279.812-.04.301.044.536.221.763.035.453.098.899.193 1.344-.03.043-.03.1.032.168.24.269.254.688.344 1.026.035.139.08.275.148.401.041.073.143.173.184.265-.034.036-.043.086-.008.154a8.155 8.155 0 0 0 1.794 2.361.27.27 0 0 0 .179.07l.006.009c.21.24.403.484.581.733.037.052.068.106.104.158.49.713.882 1.466 1.259 2.28.072.153.297.209.438.117.287-.193.666-.418.924-.706.023-.026.048-.051.069-.078.162-.207.256-.446.206-.729-.131-.724-.813-1.578-1.102-2.26-.456-1.09-1.221-2.216-1.453-3.377a8.942 8.942 0 0 1 .006-3.492c.529-2.652 1.997-4.437 4.357-5.767 2.867-1.614 6.254-1.848 9.482-1.731 1.858.066 3.695.324 5.543.532.979.11 1.973.317 2.843.802 3.521 1.965 3.643 6.712 3.395 10.242-.004.059.025.107.069.143.137.108.43.097.449-.109.247-3.559.087-8.36-3.393-10.429-.932-.557-1.97-.855-3.04-.996-1.663-.218-3.342-.455-5.014-.537-3.084-.151-6.449-.144-9.33 1.103-1.885.816-4.176 2.218-5.075 4.15-.89 1.905-1.435 4.618-.632 6.65.486 1.232 1.084 2.475 1.646 3.677.197.432.521.831.69 1.271.195.516-.308.879-.74 1.154-.514-1.08-1.051-2.05-1.858-2.968-.052-.059-.135-.084-.218-.089a.28.28 0 0 0-.058-.073 7.626 7.626 0 0 1-1.612-2.123c.005-.015.022-.02.023-.037a.39.39 0 0 0-.146-.337c-.155-.136-.206-.396-.258-.587-.09-.34-.114-.661-.313-.944a9.608 9.608 0 0 1-.198-1.369c.014-.028.009-.062-.01-.101-.001-.025-.006-.05-.007-.076-.006-.082-.074-.133-.152-.168-.196-.423.163-.856.251-1.31a.177.177 0 0 0-.049-.16c.061-.543.159-1.078.292-1.608a.205.205 0 0 0 .084-.05c.281-.302.178-.683.236-1.054.066-.416.435-.666.521-1.076.008-.035-.015-.061-.026-.09.252-.533.533-1.049.853-1.546.012-.019.014-.036.018-.054.083-.074.154-.159.168-.272.021-.145-.01-.3.02-.441.083-.424.67-.685 1.021-.863.028-.014.045-.031.062-.048l.001-.001c.006-.006.014-.012.019-.019.472-.52.992-.988 1.548-1.417.148.046.329.016.328-.151-.006-1.164 1.598-1.143 2.408-1.375.099-.028.124-.083.11-.141a17.067 17.067 0 0 1 1.845-.69c.115.049.266.053.344-.035.59-.658 1.288-.802 2.119-.543.01.003.015-.002.025 0 .008 0 .014.005.022.004l.042-.005c.042 0 .083.003.112-.014a26.872 26.872 0 0 1 2.25-.231c.026-.001.028-.016.047-.021.03.013.053.035.09.037a7.393 7.393 0 0 0 1.559-.056c.608-.09 1.316-.217 1.896.065.012.002.019.012.031.013l.011.001c.074.04.145.038.207.02.467.037.934.078 1.399.132a.205.205 0 0 0 .146-.033c.099.049.223.068.307.013.671-.434 1.632.23 2.314.382.016.003.023-.005.038-.004.012.002.018.012.03.014.82.087 2.25.138 2.646 1.011.062.136.283.181.41.129.821.184 1.347.914 1.757 1.604.007.011.018.019.026.028a.173.173 0 0 0 .048.107c.476.558 1.024 1.107 1.172 1.854.013.066.068.115.135.15.738.764 1.598 1.876 1.135 2.973-.054.036-.08.092-.041.177.447.972.544 2.164.251 3.192-.006.02.012.034.013.052-.057.036-.087.094-.049.182.282.653.347 1.501.013 2.149-.035.068-.019.129.018.182.002.944.06 2.087-.535 2.875-.233.306-.485.586-.704.89a3.28 3.28 0 0 0-.317.523c-.104.227.396.369.502.137.303-.659.953-1.085 1.23-1.756.352-.853.334-1.816.335-2.721 0-.016-.017-.024-.021-.039.312-.718.269-1.573-.033-2.288z" transform="translate(.75 1)"/></g></g><g id="L_Hand"><path id="Fill_4_" fill="#A86C35" d="M24.75 81.625c-.133.167-.248.327-.412.477-.137.122-.162.076-.222.252-.037.11 0 .291 0 .409 0 .57.054 1.104.054 1.668 0 .688.006 1.393-.123 2.062-.112.572-.359 1.027-.595 1.554-.288.652-.426 1.111-.723 1.771-.283.635-.69 1.45-1.235 1.896-.273.228-.494.492-.79.689-.27.181-.362.256-.149.565.378.554 1.203.738 1.797.979.649.264.951.403 1.594-.018.606-.394 1.368-1.024 1.936-1.466-.553.821.095 1.303.861 1.49.229.053.471.188.721.111.275-.084.631-.773.842-.974.475-.442.826-.714 1.086-1.297.231-.521.752-.944.83-1.547.093-.693-.656-.777-1.039-1.047.06-.163.394-.251.539-.366.166-.131.312-.287.428-.457.232-.343.394-.784.538-1.163.105-.269.03-.308.009-.528-.02-.169-.386-.164-.296-.356.151-.33.604-.751.583-1.129.501-.041 1.162-.138 1.48-.582.463-.648-.076-1.086-.539-1.501-.992-.887-1.891-1.846-3.062-2.503a2.33 2.33 0 0 0-.761-.285c-.32-.07-.307-.15-.45-.441-.231-.484-.824-.709-1.35-.782-.595-.084-.609.757-.783 1.162-.194.457-.51.944-.797 1.356" transform="translate(.75 1)"/><path id="Outline_8_" d="M28.381 80.468c.22-.077-.079-.288-.224-.234-1.377.486-2.641 1.201-3.979 1.78-.215.094.08.299.223.236 1.334-.58 2.603-1.294 3.98-1.782zm-2.262 2.573c-.254.037-.033.277.137.253.332-.047.871.192 1.194.271.479.116.954.236 1.433.357.27.068 1.876.305 1.896.641.042.672-.108 1.271-.61 1.736-.123.115.234.265.348.159.586-.547.742-1.314.604-2.088-.013-.074-.097-.115-.157-.136a66.654 66.654 0 0 0-3.449-.902c-.403-.096-.979-.352-1.396-.291zm-.563 2.011c-.183-.071-.4.102-.162.198 1.409.556 2.863.964 4.348 1.256.308.061.871-.036.788.46-.039.242-.079.49-.176.72-.303.735-.769 1.3-1.615 1.356-.257.019-.029.264.139.252 1.416-.094 2.041-1.445 2.059-2.729.002-.091-.145-.136-.21-.145a22.765 22.765 0 0 1-5.171-1.368zm.153 3.186c-.26-.03-.161.228.039.252 1.05.131 2.041.471 3.025.839.718.264 1.452.29 1.004 1.199-.368.748-.897 1.348-1.354 2.035-.207.316-.398.684-.662.957-.916.957-2.16-.304-1.577-1.212l-.36-.132c-.016.023-.025.048-.041.07-.158.129.178.299.295.204.076-.063.092-.077.123-.173.053-.146-.287-.244-.359-.131-.336.524-.697 1.18-.006 1.616.433.276 1.141.546 1.655.343.771-.304 1.113-1.168 1.587-1.797.576-.771 1.194-1.562 1.297-2.551.01-.095-.08-.141-.158-.167-1.487-.509-2.934-1.158-4.508-1.352zm.616 3.973c.175-.106-.167-.283-.296-.205-.71.438-1.175 1.313-1.929 1.646-1.466.646-2.393-.136-3.534-.905-.14-.097-.456.005-.242.149.825.561 1.869 1.5 2.973 1.309 1.412-.249 1.888-1.29 3.028-1.994zm2.022-11.96c-.181-.086-.394.087-.161.198 1.041.489 1.772 1.312 2.643 2.032.452.373.951.723 1.338 1.17.655.771-.834 1.371-1.252 1.432-.255.035-.033.273.137.251.517-.07 1.142-.287 1.433-.758.343-.553.259-.793-.22-1.233-1.18-1.093-2.447-2.402-3.918-3.092zm-1.259 2.401c-.077-.046-.188-.076-.269-.027-.078.047-.037.137.024.177.381.243.811.471 1.113.812.102.115.464.082.312-.094-.323-.366-.776-.609-1.18-.868zm-2.946-.769c-.166.124.174.295.294.203.599-.448 1.043-1.148 1.352-1.821a4.12 4.12 0 0 0 .257-.655c.072-.291.102-.391.449-.347.738.097 1.145.495 1.094 1.257-.014.17.364.256.377.103.084-1.292-.987-1.648-2.101-1.618-.038.001-.112.026-.12.076-.101.997-.796 2.195-1.602 2.802z" transform="translate(.75 1)"/></g><g id="R_Hand"><path id="Fill_2_" fill="#A86C35" d="M81.647 58.05c-.24.486-1.474 1.205-2.017 1.362-.84.243-2.214.224-2.987-.12-.645-.288-1.189-.753-1.539-1.052-.651-.561-.832-.688-1.221-1.4-.204-.376-.505-.988-.404-1.463.074-.343.524-.586.396-1.007-.078-.256-.303-.202-.405-.392-.077-.141-.052-.398-.088-.566-.081-.383-.144-.677-.146-1.108-.008-.847-.104-1.742.238-2.521.354-.807.415-1.557.604-2.37.095-.404.289-.787.364-1.209.079-.425.022-.874.062-1.312.035-.414.118-.821.09-1.259-.025-.385-.328-.877-.203-1.26.22-.681 1.845-.373 2.109.202.12.262.17.958.211 1.26.058.429.008.868-.152 1.25-.336.799-.641 1.54-.504 2.479.062.422.171.836.667.72.143-.034.296-.247.439-.314.181-.087.232-.571.43-.705.312-.211.602-.061.729-.399.175-.468.268-.825.494-1.277.197-.394.188-.843.373-1.245.19-.412.277-.66.342-1.108.146-.97.857-1.736 1.373-2.506.582-.865.938-1.723 1.752-2.396.646-.534.986-1.642 2.018-1.097 1.089.574.925 1.38.403 2.155-.806 1.207-.821 1.448-1.311 2.304-.23.408-.666.666-.959 1.043-.425.546-.987 1.687-.957 2.515.254-.508.916-1.421 1.312-1.83 1.202-1.238 2.031-3.076 3.264-4.069.301-.242.595-.444.868-.701.386-.362.239-.479.844-.343 1.072.24 1.116.789 1.027 1.798.441-.093.684-.289 1.148-.095.64.27.905 1.112.595 1.752-.225.457-.735.679-1.097 1.018-.412.388-.664.908-1.048 1.312-.263.279-.616.562-.855.87-.367.476-.712 1.05-.867 1.603-.151.524-.381.663-.729 1.06-.268.305-.056.693.183 1.1.067.011.123.005.192 0 .188-.012.454-.39.604-.493.223-.155.483-.277.717-.402.467-.25.924-.493 1.36-.794.757-.522 1.43-1.429 2.407-1.425.509.002.637.19.615.707-.018.464-.255.662-.615.996-.401.367-.899.638-1.351.965-.426.312-.771.763-1.167 1.111-.821.726-1.657 1.351-2.312 2.223-.688.919-1.038 2.371-1.592 3.373-.229.422-.688 1.126-.896 1.562-.242.511-.312.099-.75.493-.619.551-1.523.894-2.269 1.069" transform="translate(.75 1)"/><path id="Outline_7_" d="M78.638 46.224c.064-.118-.418-.288-.503-.133-.501.921-.891 2.036-1.989 2.36l.451.148c-.754-1.505.42-3.404.396-4.98-.024-1.5-1.525-1.834-2.747-1.88-.043 0-.136.005-.148.062-.272 1.127.109 2.285.012 3.449-.136 1.619-.672 3.036-.991 4.603-.441 2.154-.02 4.597 1.614 6.161.104.101.603.135.396-.061-1.688-1.618-2.069-4.429-1.329-6.577.688-1.998 1.096-4.271.715-6.37-.289-1.585 1.856-.886 1.961.319.055.633-.07 1.256-.212 1.872-.241 1.045-.681 2.303-.164 3.329.072.144.31.189.452.147 1.145-.335 1.563-1.483 2.086-2.449zm-.503-.133c-.046.146.454.291.502.134 1.056-3.282 2.569-6.491 5.175-8.829.118-.105-.348-.296-.469-.188-2.622 2.348-4.146 5.581-5.208 8.883zm5.188-8.782c-.115.105.35.295.471.188.24-.222.656-.4.967-.205.352.223.352.646.229 1.001-.05.146.448.292.504.135.441-1.285-1.321-1.894-2.171-1.119zm-2.501 8.842c-.06.128.432.291.505.137.555-1.178 1.104-2.354 1.733-3.493.424-.769.831-1.558 1.295-2.302.433-.695.906-1.271 1.14-2.064.043-.151-.457-.29-.504-.134-.27.918-.909 1.663-1.38 2.491-.396.699-.799 1.397-1.181 2.104-.575 1.069-1.089 2.163-1.608 3.261zm.224.018c-.107.145.377.312.469.187 2.062-2.764 3.355-6.222 6.354-8.155.114-.075-.329-.277-.47-.188-2.995 1.932-4.293 5.396-6.353 8.156zm6.85-8.127c-.05-.008-.244-.017-.212.088.033.103.199.146.289.159.664.099 1.146.69.763 1.317-.063.11.41.289.505.136.559-.919-.559-1.581-1.345-1.7zm-4.414 9.163c-.063.111.414.289.503.134.781-1.347 1.696-2.608 2.468-3.961.786-1.379 1.973-2.401 2.809-3.736.066-.106-.407-.286-.503-.135-.552.883-1.32 1.569-1.947 2.392-.494.648-.844 1.368-1.298 2.045a55.88 55.88 0 0 0-2.032 3.261zm-.455.647c-.104.144.379.31.472.188 2.062-2.765 3.354-6.224 6.354-8.158.115-.075-.33-.277-.469-.188-2.999 1.934-4.296 5.397-6.357 8.158zm6.852-8.128c-.052-.009-.246-.017-.212.087.031.104.196.146.289.158.662.101 1.146.691.764 1.32-.065.11.41.288.503.135.559-.921-.558-1.581-1.344-1.7zm-4.013 9.099c-.007.176.497.27.502.134.046-1.466 1.286-2.709 2.039-3.881.854-1.33 1.997-2.419 2.831-3.751.068-.108-.403-.286-.502-.136-.552.884-1.317 1.569-1.944 2.392-.431.561-.758 1.178-1.158 1.756-.702 1.004-1.728 2.205-1.768 3.486zm.207.061c-.109.135.368.309.47.19.699-.835 1.67-1.205 2.544-1.812.938-.649 1.845-1.514 3.02-1.67.276-.037-.173-.27-.312-.25-1.04.14-1.859.784-2.685 1.383-1.01.732-2.22 1.187-3.037 2.159zm5.716-3.506c-.07-.002-.203.035-.129.125.073.096.221.125.332.132.289.017.332.396.28.618a1.21 1.21 0 0 1-.395.661c-.118.102.347.294.469.188.299-.262.551-.729.419-1.137-.135-.42-.57-.565-.976-.587zm-4.43 5.166c-.118.097.343.292.47.188a310.564 310.564 0 0 1 4.52-3.631c.118-.093-.34-.29-.469-.188a305.35 305.35 0 0 0-4.521 3.631zm.485.163c.062-.126-.425-.293-.504-.137-1.045 2.144-2.089 5.21-4.066 6.711-1.698 1.291-3.893.187-5.612-.521-.212-.088-.518.04-.189.176 1.719.706 3.989 1.812 5.817.842.875-.465 1.497-1.383 2.002-2.201.957-1.564 1.748-3.225 2.552-4.87zm-9.024-3.903c-.348-.069-.145.201.078.246 1.906.391 5.97 1.139 6.782 3.274.058.15.554.213.5.07-.401-1.057-1.495-1.638-2.479-2.069-1.581-.693-3.189-1.174-4.881-1.521zm-1.982 2.36c-.104-.1-.602-.139-.397.058 1.082 1.045 1.912 1.916 1.763 3.513-.088.934-.3 1.896-1.088 2.489-.117.089.338.287.47.188.933-.703 1.193-2.03 1.133-3.142-.083-1.44-.902-2.161-1.881-3.106z" transform="translate(.75 1)"/></g></g></svg>