<svg width="77" height="188" viewBox="0 0 77 188" xmlns="http://www.w3.org/2000/svg"><g fill="none"><path d="M47.9 53.836c-.45-.25-.5-.702-.5-1.054v-2.157l.15-5.72c0-.502.1-1.054.15-1.556.05-.351.25-.552.55-.502.25 0 .45.201.5.602.05.452.05.954.05 1.405-.15 2.359-.1 4.717-.1 7.075 0 .502 0 1.054-.25 1.506-.2.15-.3.3-.55.401z" fill="#060606"/><path d="M51.2 52.38c-.45-.551-.5-1.053-.5-1.605 0-.853-.1-1.756 0-2.609.05-.452.05-.953.05-1.455 0-.552.2-1.004.7-1.254.35.3.5.652.45 1.103-.25 1.305-.1 2.61-.15 3.914 0 .653-.1 1.255-.55 1.907z" fill="#050505"/><path d="M28.55 43.45c.35-.05.55.1.6.4.05.452.1.954.1 1.456.1 1.957.2 3.914.2 5.82 0 1.506.15 3.011-.05 4.516 0 .15 0 .301-.05.502-.05.15-.05.351-.25.351-.25.05-.35-.15-.35-.35-.2-.954-.35-1.857-.35-2.86 0-2.309-.05-4.617-.2-6.925-.05-.703 0-1.455 0-2.158.05-.3.1-.552.35-.753z" fill="#060606"/><path d="M25.4 52.682c-.3-.1-.35-.301-.4-.502-.3-1.104-.3-2.208-.3-3.311 0-.402.05-.803.05-1.205 0-.35.1-.602.5-.752.3.1.5.3.5.602 0 1.656.25 3.362-.2 5.017-.05.05-.1.05-.15.151z" fill="#0D0D0D"/><path d="M33.85 78.623V22.074c-.1-.3-.5-.451-.75-.752-.8-.753-1.75-1.405-2.15-2.56-.1-.25-.3-.35-.5-.451-1.2-.753-1.55-1.907-.85-3.211.15-.352.45-.552.75-.753.25-.15.5-.25.7-.351.15-.351-.25-.351-.3-.602-.05-.201-.2-.352-.3-.502-.5-.903-.3-1.806.15-2.61.2-.35.5-.601.95-.702.25-.05.45-.1.8-.2-1-.853-1.25-1.807-.95-2.91.3-1.205 1.2-1.707 2.35-1.857.4-.402.4-.903.5-1.355.2-1.004.8-1.505 1.8-1.656 1.3-.15 2.6-.3 3.95 0 .25.05.5.05.7.05.95 0 1.65.552 2.35 1.104.45.351.7.853.85 1.405.1.452.1.953.5 1.405 1.15.15 2.1.652 2.35 1.907.25 1.104.1 2.057-.95 2.76.15.05.25.15.35.15.7.1 1.2.401 1.5 1.004.4.802.45 1.605.05 2.408-.2.351-.3.753-.7.903.2.301.5.351.75.502 1.05.452 1.6 2.358.7 3.462-.1.1-.15.251-.25.251-.8.351-1.1 1.054-1.55 1.706-.3.502-.85.853-1.3 1.254-.2.151-.35.302-.55.452-.3.251-.4.552-.4.953 0 2.158.05 4.316.05 6.423 0 2.007-.1 4.064-.05 6.071 0 1.054.05 2.158.05 3.212v2.66c0 1.354-.05 2.709-.05 4.063 0 1.104-.05 2.258 0 3.362.1 1.807-.1 3.563 0 5.37.05.802 0 1.605 0 2.408-.05 1.053 0 2.157.05 3.211.05.853 0 1.656 0 2.509v6.222c0 1.806-.05 3.663-.05 5.469 0 .1.05.25.05.351.35.15.45-.15.55-.3 1.05-1.506 2.3-2.86 3.5-4.266 2.15-2.509 4.2-5.118 6.5-7.526.35-.352.75-.703 1.15-1.054.9-.703 2.15-.753 2.95.05.9.853 1.8 1.706 2.75 2.509.5.401.65.953.5 1.606-.25 1.254-.7 2.458-1.15 3.662l-2.55 7.376c-.65 1.907-1.35 3.864-2 5.77-.45 1.506-.95 2.961-1.45 4.466-.2.552-.4 1.104-.6 1.706-.6 1.706-.6 3.362.05 5.068.55 1.455 1.25 2.86 1.95 4.265a326.22 326.22 0 0 1 5.65 11.942c.4.853.8 1.757 1.25 2.56.35.602.35 1.254.3 1.856-.05.702-.3 1.305-.9 1.756-.5.351-1.05.753-1.6 1.054-5.05 2.81-10.15 5.62-15.2 8.43-8.3 4.616-16.55 9.232-24.85 13.798-1.8 1.004-3.55 1.957-5.35 2.96-.2.1-.35.201-.55.251-1.05.452-2.05.603-3-.25-.45-.402-1-.653-1.5-1.004-.3-.2-.55-.452-.85-.652-.95-.653-1.1-2.058-.65-3.01.85-1.757 1.65-3.563 2.5-5.32.9-1.906 1.8-3.813 2.75-5.72.85-1.706 1.65-3.462 2.5-5.168 1.15-2.358 2.35-4.717 3.45-7.125 1.15-2.56 2.45-5.018 3.6-7.577 1.1-2.358 2.2-4.666 3.3-7.024.65-1.456.8-2.91.4-4.466-.2-.803-.3-1.656-.45-2.459-.05-.451-.15-.853-.2-1.304-.25-1.305-.4-2.61-.6-3.914-.05-.301-.1-.653-.2-.954-.45-1.405-.05-2.71.5-3.964.65-1.505 1.9-2.458 3.4-3.01.8-.301 1.7-.502 2.5-.753.45-.05.75-.15 1.05-.25zm2.5 10.688v1.455c-.05.251-.1.452 0 .703.05.15.2.25.4.2.1-.05.2-.1.25-.2.05-.05.05-.151.05-.251v-5.871c0-.15-.05-.301-.25-.301a.152.152 0 0 0-.2 0c-.2 0-.25.1-.25.301v3.964zm2.35-1.706c.1-.25-.15-.452-.15-.652 0-.201.2-.402.2-.653 0-.401 0-.802-.1-1.204-.05-.2-.25-.15-.4-.15-.35.1-.25.35-.25.552 0 1.706.05 3.462.05 5.168 0 .1 0 .25-.05.351-.05.401.15.452.45.401.2 0 .25-.15.25-.3 0-.402-.05-.753-.05-1.155.05-.05.05-.15 0-.25.15-.653.15-1.406.05-2.108zm17.7-22.53c.2.302.15.603.05.904-.7 2.308-1.5 4.516-2.4 6.774-.5 1.254-1.15 2.458-1.6 3.763-.9 2.559-2 5.018-2.7 7.627-.15.602-.45 1.204-.7 1.806-.55 1.556-1.1 3.161-1.65 4.717-.4 1.154-.85 2.207-1.4 3.311-.25.452-.4.954-.65 1.405-.15.301-.35.402-.65.402h-.95c-.8-.05-1.55.25-2.3.451-.2.954-.05 1.907-.1 2.81 0 .602.1 1.104.75 1.355.35.1.45.401.45.753v.602c.05.702-.3 1.154-.95 1.304-.05 0-.1.1-.2.15-.05.302-.1.603 0 .904.05.05.1.15.2.15.95.452.95.452 1 1.456v.351c-.05.903-.3 1.154-1.25 1.204-.9.05-1.8-.05-2.75 0-.9.05-1.85 0-2.75 0-.55 0-1.1-.05-1.6-.3-.25-.503-.25-1.004-.25-1.506 0-.452.15-.652.45-.903.1-.1.3-.15.45-.201.4-.1.5-.401.5-.753 0-.2 0-.401-.1-.552a.379.379 0 0 0-.2-.1c-1.2-.25-1.6-2.007-.45-2.71.2-.1.45-.2.55-.551v-3.011c0-.552-.15-.652-.75-.602-.45.05-.65-.1-.7-.452v-.25c.05-1.255-.15-2.56.2-3.814.05-.251.05-.502 0-.703-.15-.752.15-1.505-.15-2.258-.05-.1 0-.25 0-.35.3-1.105-.2-2.209.1-3.262a15.886 15.886 0 0 1 0-4.867c.05-.201-.1-.402-.4-.552-.75.501-1.75.652-2.7.903-1.9.552-3.1 2.007-3.3 3.914-.15 1.354.1 2.71.35 4.014.35 1.756.7 3.512.95 5.268.1.653.1 1.255.25 1.907.45 1.706.1 3.362-.6 4.917-.7 1.656-1.6 3.212-2.35 4.817-1.15 2.359-2.25 4.767-3.35 7.176-1 2.057-2.1 4.064-3 6.121-.95 2.158-2.1 4.215-3 6.373-.6 1.405-1.35 2.76-2.05 4.164-.7 1.405-1.35 2.81-2 4.215-.5 1.104-1.1 2.158-1.6 3.211-.3.703-.7 1.355-.65 2.158.05 1.004.75 1.405 1.65 1.054.2-.1.45-.201.65-.301 2.8-1.556 5.6-3.061 8.4-4.617.9-.501 1.8-1.003 2.75-1.505 1.7-.953 3.4-1.957 5.1-2.91 2-1.104 4.05-2.208 6.1-3.312 3.25-1.806 6.45-3.613 9.7-5.47 1.65-.902 3.3-1.805 4.9-2.709 2.45-1.405 4.95-2.76 7.4-4.214.95-.552 2-.954 2.85-1.757 0-.802.2-1.605-.2-2.358l-2.7-5.72c-.7-1.455-1.5-2.91-2.1-4.416-.4-1.003-.9-1.957-1.35-2.96-.9-1.907-2-3.713-2.7-5.72-.45-1.204-.65-2.459-.35-3.763.05-.201.05-.402.05-.603 0-.602.2-1.204.4-1.756l.3-.752c.75-2.158 1.5-4.366 2.25-6.523.9-2.51 1.8-5.018 2.65-7.527.75-2.157 1.4-4.315 2.15-6.473.15-.501.1-1.003.3-1.505.15-.401-.2-.953-.55-1.104-.4-.15-.8-.15-1.15.15-.2.201-.45.352-.6.553-1 1.103-1.95 2.207-2.9 3.311-.9 1.054-1.75 2.158-2.7 3.212-1.35 1.505-2.65 3.11-3.95 4.666-.75.903-1.5 1.857-2.5 2.559-.5.351-.95.702-1.4 1.054 0 .351-.1.702.15 1.003.3.1.65.1.95-.05.65-.351 1.35-.652 1.85-1.254.75-.904 1.6-1.706 2.3-2.61 1-1.304 2.15-2.458 3-3.863.4-.652.9-1.204 1.45-1.756.9-.903 1.65-1.857 2.4-2.86.25-.352.6-.653.95-.954.05-.05.25-.05.45.1zm3.4-1.856c-.2.401-.35.703-.45 1.004-.5 1.655-1.05 3.311-1.6 4.967-.95 2.96-2.1 5.82-3.05 8.781-.45 1.455-1.15 2.81-1.4 4.315-.6 1.104-.8 2.409-1.25 3.613-.4 1.003-.75 2.007-.65 3.11v.352c-.2.903.05 1.706.35 2.509.3.753.65 1.455 1 2.158.5 1.003 1.05 2.007 1.5 3.01.35.753.65 1.505 1.1 2.258.25.402.5.853.6 1.305.1.35.25.652.4.953.75 1.455 1.55 2.86 2.15 4.416.7 1.655 1.5 3.261 2.3 4.817.1.2.2.35.2.552.05.702.05 1.354-.35 1.956-.5.904-1.25 1.506-2.2 1.907-.6.251-1.15.502-1.7.803-1.4.753-2.75 1.555-4.15 2.308-1.3.703-2.6 1.355-3.85 2.107-2 1.255-4.05 2.309-6.15 3.362-1.7.853-3.35 1.807-5 2.81-.5.301-1.1.452-1.6.803-2.2 1.606-4.65 2.71-7 4.064-1.8 1.054-3.65 1.957-5.45 3.011-2.45 1.405-4.9 2.81-7.45 4.064-1.1.552-2.15 1.154-3.25 1.756-.2.1-.3.251-.3.552.5.452 1.15.753 1.75 1.104.4-.15.75-.2 1.05-.401 1.05-.602 2.05-1.204 3.15-1.706 1.2-.602 2.35-1.305 3.55-2.007.95-.552 1.95-1.054 2.95-1.606 1.65-.953 3.3-1.907 5-2.81 1.15-.652 2.35-1.204 3.45-1.906.9-.552 1.9-1.004 2.85-1.556 1.65-.953 3.3-1.907 5-2.81 1.15-.652 2.35-1.204 3.45-1.907.9-.551 1.95-.953 2.85-1.555 1.9-1.254 3.95-2.208 5.9-3.362 1.8-1.054 3.65-1.957 5.45-3.01 1.05-.603 2.1-1.104 3.05-1.857.85-.652 1.1-1.254.85-2.358-.1-.452-.25-.903-.45-1.355-.65-1.405-1.3-2.81-2-4.215-.75-1.606-1.5-3.261-2.3-4.817-.6-1.254-1.15-2.509-1.8-3.763-.8-1.455-1.45-3.01-2.15-4.516-.3-.702-.65-1.405-.7-2.158-.1-1.304-.15-2.659.25-3.913.15-.502.3-1.004.5-1.456.5-1.455.95-2.96 1.45-4.415.35-1.104.8-2.158 1.2-3.262.75-2.057 1.5-4.114 2.3-6.171.45-1.205.95-2.359 1.25-3.613.25-.953.5-1.907.95-2.81.15-.301.25-.602.3-.903.05-.401.15-.803-.15-1.154-.6-.351-1.05-.903-1.7-1.355zM35.65 2.756l-.2.402c-.6 1.956-1.15 3.913-1.6 5.92-.65 2.91-1.3 5.77-2 8.681-.15.702 0 1.254.55 1.706.55.502 1.1 1.054 1.7 1.505.3.251.6.502 1 .602 1.9.352 3.8.352 5.7.05.3-.05.6-.15.85-.35 1.1-.954 2.15-1.857 3.25-2.81a34.02 34.02 0 0 0-.5-2.409c-.6-2.61-1.2-5.218-1.85-7.828A41.7 41.7 0 0 0 41.3 3.96c-.55-1.455-.45-1.103-1.85-1.505-.2-.05-.4 0-.6-.05-1.05-.15-2.1.05-3.2.351zm9.2 91.974c.1-.25.2-.452.25-.602.7-1.455 1.3-3.01 1.8-4.566.45-1.505 1-2.91 1.5-4.416.3-1.053.7-2.057 1.1-3.06.55-1.506 1.05-3.011 1.6-4.516.65-1.656 1.35-3.262 2-4.868.6-1.505 1.15-2.96 1.7-4.465.1-.251.25-.502.1-.803-.3.05-.45.351-.6.552-1.55 2.107-3.2 4.165-4.85 6.222-.4.552-.95.953-1.35 1.505-.65.853-1.45 1.606-2.2 2.358-.4.402-.85.703-1.4.853-.5.15-1.1.251-1.55.603-.1.752-.05 1.505-.05 2.257 0 .703.15 1.355.05 2.058-.1.953-.1 1.906-.1 2.86 0 2.408-.05 4.817.15 7.175 0 .25-.15.552.15.803.5.15 1.05.2 1.7.05zm-1.1-19.117s-.15-.1-.1-.201c.1-1.154.3-2.258.05-3.412.2-.401.1-.853.1-1.305v-6.523c0-.702.1-1.455-.15-2.157a.86.86 0 0 1 0-.703c.2-.552.15-1.104.15-1.655 0-5.821.05-11.641 0-17.462 0-1.606.2-3.211-.15-4.767-.05-.1 0-.25.05-.351.15-.351.1-.702.1-1.054 0-1.053.1-2.057-.2-3.11.1-2.259-.15-4.567.15-6.825 0-.1 0-.25-.05-.35-.2-.452-.1-.954-.1-1.406 0-.3 0-.652-.05-.953-.05-.301-.25-.502-.6-.402-.05.1-.1.201-.1.352-.1.752.1 1.505-.2 2.258-.05.1 0 .25.05.35.2.402.1.804.15 1.205 0 .853.1 1.706 0 2.509-.1.853.05 1.656 0 2.459 0 .752.05 1.505 0 2.308-.05.752 0 1.505 0 2.258v3.713c0 1.254-.05 2.509 0 3.713.05 1.204-.3 2.458 0 3.663.05.2-.05.401-.05.602 0 .15-.1.351-.05.451.25.703.1 1.455.15 2.158 0 .401-.1.803-.1 1.204 0 .452.15.853-.05 1.305-.1.2 0 .401.05.602.15.351.15.702.05 1.054-.05.2-.05.35-.05.552.05.903-.15 1.806.1 2.71.05.15-.05.3-.1.45-.05.151-.1.302 0 .452.2.402.1.803.1 1.205v5.77c0 .903-.05 1.856 0 2.76 0 .451-.25.853-.15 1.304.35 1.405-.05 2.86.1 4.265-.3.552 0 1.104.05 1.606 0 .05.1.1.15.15.3-.15.45-.35.7-.752zm-3.35 4.465c.05-.25.15-.451.15-.702 0-.25-.1-.552-.05-.803.1-.853.05-1.706 0-2.559-.05-.652-.05-1.355-.05-2.007 0-1.003.15-1.957.05-2.96-.05-.653.15-1.305 0-2.007-.2-1.054 0-2.208-.05-3.312-.05-1.204 0-2.459 0-3.663 0-2.258.1-4.466.05-6.724 0-1.003.05-1.957 0-2.96-.05-1.455.05-2.91.05-4.416 0-.702 0-1.354-.1-2.057-.1-.502.2-.953.1-1.405-.25-1.054 0-2.057-.1-3.11-.05-.653-.1-1.356 0-2.008.15-1.054-.05-2.057.1-3.06.05-.201-.05-.402-.05-.603-.05-.552-.1-1.104-.1-1.656l.15-5.67c0-.702-.05-1.455-.05-2.157 0-.402.1-.803.1-1.204 0-.402.05-.803-.05-1.154-.15-.402.15-.803-.05-1.104-.3-.15-.5 0-.8.15v56.8c0 .1.05.2.1.301.2.1.35.15.6.05zm-3.35 0c0-.551.05-1.003.05-1.455V45.657c0-2.96.05-5.92 0-8.881 0-.452.2-.853.1-1.305-.2-.702-.1-1.455-.1-2.157V23.58c0-.251.1-.552-.1-.803-.3-.05-.5.15-.75.401.25 1.405-.05 2.86.05 4.315.1 1.405 0 2.86 0 4.265 0 1.455.25 2.96-.1 4.416.35 1.405.1 2.86.15 4.315.05 1.505 0 2.96 0 4.466.05 1.455-.1 2.96 0 4.415s0 2.91 0 4.316v13.246c-.05 1.455.05 2.96 0 4.416-.05 1.455.05 2.91 0 4.315 0 1.455-.05 2.96.05 4.365.2.15.35.1.65.05zm1.6-57.251c-.35-.05-.6-.05-.65.25-.05.252 0 .553 0 .854 0 3.211.05 6.422.05 9.634 0 7.877 0 15.805-.05 23.683v21.526c0 .451-.1.903.1 1.304.2.05.35.251.6.05.05-3.813.1-7.626.05-11.49-.15-15.153 0-30.307-.05-45.46.05-.05 0-.2-.05-.351zm-3.8-.2c-.2.15-.15.35-.15.551v55.947c0 .351-.25 1.004.3 1.004.65 0 .35-.703.35-1.054.05-3.111 0-6.172 0-9.283V23.63c0-.251 0-.502-.05-.703-.05-.25-.25-.351-.45-.3zm6.95 57.602c.05-.1.05-.2.1-.301.25-1.355.1-2.71.15-4.064.1-2.058 0-4.165 0-6.222.05-1.957 0-3.914 0-5.921V57.75c0-3.262-.05-6.573-.05-9.835 0-2.007.05-4.014.05-5.97 0-2.158-.1-4.266 0-6.423.05-.954-.1-1.907-.05-2.86.05-1.104 0-2.208.05-3.362.05-1.255-.05-2.51.05-3.764.05-.853 0-1.655-.05-2.508 0-.251-.2-.452-.5-.352-.15.15-.15.301-.15.452v38.485c0 5.77-.05 11.541-.05 17.311 0 .301 0 .653.05.954.05.2.15.401.4.351zm-6.95 26.192c2.3.05 4.6 0 6.85 0 .1-.752.1-.853-.05-.953-.2-.2-.45-.15-.65-.15h-5.95c-.05 0-.15.05-.25.1-.15.2-.1.501.05 1.003zm5.55-21.475c-.35-.05-.55 0-.6.2-.05.301-.05.653-.05.954v4.917c0 .301.2.502.4.452.25-.05.3-.201.3-.452v-4.566c0-.402 0-.953-.05-1.505zm-5.15.25c-.4-.15-.55 0-.55.302v5.82c0 .05 0 .15.05.2l.15.151c.15.05.25-.05.3-.15.05-.1.05-.251.05-.352v-5.97zm10.65-71.1c.5-.1.8-.25.95-.602.2-.452.15-.953.05-1.405-.15-.652-.75-.853-1.75-.602-.05.903.25 1.756.75 2.61zm-3.2 7.777c.8.452 1.35.201 1.8-.2.55-.452 1-1.004 1.5-1.506.15-.15.15-.35.1-.551-.2-.201-.4-.352-.8-.352-.65.903-1.5 1.807-2.6 2.61zM44.1 6.57c-.1.903 0 1.455.35 2.358.2.502.6.602 1 .25.4-.35.4-.852.3-1.304-.15-.953-.6-1.304-1.65-1.304zm-4.4 89.766c.05 1.304-.1 2.509.1 3.713.7.05.65.05.75-.502.05-.502.2-1.004.15-1.505a4.458 4.458 0 0 1 0-1.154c0-.502-.15-.602-1-.552zm7.1-77.875c.7-.15.95-.451 1.05-.953.1-.552-.15-1.104-.55-1.355-.2-.15-.45-.15-.7-.05-.25.05-.45.251-.4.502.1.652.2 1.305.6 1.856zM36.3 96.386c.1 1.254-.2 2.459.1 3.613.35.15.6.1.6-.201.05-1.104.05-2.158 0-3.262.05-.3-.25-.3-.7-.15zm2.45 3.663v-3.412c0-.351-.15-.402-.7-.15 0 1.153-.05 2.358 0 3.512.2.15.4.1.7.05zm1.85-18.816c-.7-.1-.9-.05-.9.2-.05.803-.15 1.656.05 2.459.6 0 .7-.05.75-.402.05-.702.1-1.455.1-2.257zm1.3 3.763c-.35.05-.45.25-.4.351.1.702 0 1.355 0 2.007 0 1.204 0 2.459.05 3.663 0 .2-.05.452.4.502 0-2.108 0-4.315-.05-6.523zm-9.45-74.513c-.85 0-1.05.15-1.15.753-.1.452-.1.953.15 1.405.1.15.25.301.5.25.2-.752.4-1.555.5-2.408zm9.7-6.974c.15.602.4 1.104.45 1.706 0 .2.15.351.2.552.1.2.3.25.5.2.15-.05.25-.2.2-.4-.15-.754-.4-1.506-.9-2.159-.05-.15-.2-.1-.45.1zM36.3 83.69c.2.251.4.301.75.05 0-.853.1-1.706-.1-2.609-.25-.05-.45-.1-.65.15-.1.804.05 1.657 0 2.41zm2.45-1.054v-1.154c0-.15-.1-.3-.3-.3-.25-.05-.4.1-.4.3 0 .703-.05 1.405 0 2.158 0 .2.25.301.45.301.25 0 .35-.2.35-.401 0-.352-.05-.653-.1-.904zm1 10.136c-.05.803-.1 1.656.1 2.509.2.05.35.1.6-.1.15-.803.2-1.656 0-2.459-.3-.15-.45-.1-.7.05zm-3.35 2.56c.2 0 .35 0 .5-.051.05 0 .15-.1.15-.15.05-.151.15-.302.15-.452-.15-.502-.05-1.004-.1-1.505 0-.1 0-.251-.05-.352-.05-.15-.2-.25-.4-.2-.1.05-.25.1-.25.2-.05.803-.2 1.656 0 2.51zm-1.7.4c.6-.3.55-.852.5-1.254-.05-.652.25-1.355-.3-1.957-.3.251-.45.602-.4.853.15.753-.25 1.556.2 2.359zm7.4-1.555s-.05 0 0 0c-.05-.401-.05-.803-.05-1.204 0-.15-.15-.301-.3-.301s-.3.1-.3.3c-.05.503-.05 1.004-.05 1.556 0 .251.1.452.15.653.05.05.2.1.3.15.15 0 .25-.1.25-.2v-.954zm-3.35-1.405c-.4-.15-.6-.15-.7.2v.101c0 .552-.05 1.104-.05 1.656 0 .401.2.652.4.602.3-.05.35-.3.35-.552v-2.007zm-5.9-84.598c.4-.752.6-1.455.65-2.609-.75.2-.95.803-1.05 1.405-.1.452-.2.953.4 1.204zm-1.4 6.925c-.75-.05-1 .35-1.1.802-.2.603 0 .954.65 1.355.15-.652.3-1.355.45-2.157zm3.65 66.032c-.15.05-.25.05-.25.1-.25.703-.1 1.405-.1 2.108 0 .2-.05.502.25.602.2 0 .25-.2.25-.351-.1-.803.05-1.656-.15-2.459zm4.45 23.031c.9.1.9.1 1.1-.1v-.753c0-.05-.1-.15-.15-.2-.95-.1-.95-.05-.95 1.053zm2.3-22.93c-.35.05-.45.2-.45.35 0 .703.05 1.406.1 2.108 0 .1.15.251.45.1-.1-.852.05-1.705-.1-2.558zm-5.7 21.927c-.05.351-.1.652.05.953.1.251.4.351.6.2.35-.25.4-.953.15-1.254-.3-.05-.5-.1-.8.1zm1.75 1.003c.35.1.65.15.95-.05-.05-.351-.1-.702-.2-1.003-.3-.201-.55-.201-.8.05-.1.351-.1.652.05 1.003zm-1.35-3.06c-.3 0-.45.2-.4.551 0 .301.15.452.4.452.3 0 .5-.15.5-.502 0-.351-.15-.552-.5-.502zm1.8 0c-.35 0-.55.15-.55.451 0 .351.15.502.5.502s.45-.15.45-.552c0-.301-.15-.402-.4-.402zm1.45.903c.85-.1.9-.15.7-.853-.25-.05-.55-.1-.8.1-.05.25-.1.452.1.753zm-4.85-.904c-.25 0-.4.201-.35.502 0 .2.05.402.3.452.25.05.5-.2.45-.552 0-.251-.15-.402-.4-.402zm7 .502c0-.05-.05-.2-.1-.3-.05-.051-.1-.101-.2-.101-.15-.05-.2.1-.25.2 0 .151 0 .302.05.452.05.1.2.15.25.15.05 0 .15-.15.2-.25.05-.05 0-.1.05-.15z" fill="#000001"/><path d="M56.4 65.076c-.2-.15-.4-.1-.55.05-.3.3-.65.602-.95.953-.75 1.004-1.5 1.957-2.4 2.86-.55.552-1.05 1.104-1.45 1.756-.9 1.405-2 2.56-3 3.864-.7.903-1.55 1.706-2.3 2.61-.5.601-1.2.902-1.85 1.254-.3.15-.6.15-.95.05-.25-.301-.15-.602-.15-1.004.45-.351.95-.702 1.4-1.053.95-.703 1.7-1.656 2.5-2.56 1.3-1.555 2.6-3.16 3.95-4.666.95-1.054 1.75-2.157 2.7-3.211.95-1.104 1.95-2.208 2.9-3.312.2-.2.4-.401.6-.552.35-.3.75-.3 1.15-.15.35.15.7.752.55 1.104-.2.501-.15 1.003-.3 1.505-.75 2.157-1.4 4.315-2.15 6.473-.85 2.508-1.8 5.017-2.65 7.526-.75 2.158-1.5 4.366-2.25 6.523l-.3.753c-.25.552-.45 1.104-.4 1.756 0 .2 0 .401-.05.602-.35 1.305-.1 2.56.35 3.763.7 2.007 1.8 3.814 2.7 5.72.45.954.95 1.957 1.35 2.96.6 1.506 1.4 2.961 2.1 4.416l2.7 5.72c.35.753.2 1.556.2 2.359-.85.803-1.9 1.204-2.85 1.756-2.45 1.405-4.9 2.81-7.4 4.215-1.65.903-3.3 1.806-4.9 2.71-3.25 1.806-6.45 3.662-9.7 5.469-2 1.104-4.05 2.207-6.1 3.311-1.7.954-3.4 1.907-5.1 2.91-.9.502-1.8 1.004-2.75 1.506-2.8 1.555-5.6 3.06-8.4 4.616-.2.1-.45.2-.65.301-.9.402-1.55-.05-1.65-1.053-.05-.803.3-1.456.65-2.158.5-1.104 1.1-2.158 1.6-3.211.7-1.405 1.35-2.81 2-4.215.65-1.405 1.45-2.76 2.05-4.165.9-2.157 2.1-4.215 3-6.372.9-2.108 2-4.065 3-6.122 1.15-2.358 2.25-4.767 3.35-7.175.75-1.606 1.65-3.211 2.35-4.817.65-1.556 1.05-3.161.6-4.917-.15-.603-.15-1.255-.25-1.907-.3-1.756-.65-3.513-.95-5.269-.25-1.304-.45-2.66-.35-4.014.2-1.907 1.45-3.362 3.3-3.914.95-.25 1.95-.401 2.7-.903.3.15.45.301.4.552a15.886 15.886 0 0 0 0 4.867c-.3 1.054.2 2.208-.1 3.262a.43.43 0 0 0 0 .351c.3.753 0 1.505.15 2.258.05.25.05.502 0 .702-.3 1.255-.1 2.56-.2 3.814v.25c.05.352.25.452.7.452.6-.05.75.05.75.602v3.011c-.1.351-.4.452-.55.552-1.15.702-.75 2.459.45 2.71.05 0 .15.05.2.1.15.15.1.351.1.552 0 .351-.1.602-.5.752-.15.05-.3.1-.45.201-.25.251-.45.452-.45.903 0 .552 0 1.004.25 1.506.5.25 1.05.35 1.6.3.9 0 1.85.05 2.75 0 .9-.05 1.8.05 2.75 0s1.2-.3 1.25-1.204v-.35c0-1.054 0-1.054-1-1.456a.69.69 0 0 0-.2-.15c-.1-.301-.05-.603 0-.904.05-.05.1-.15.2-.15.7-.15 1-.602.95-1.305v-.602c0-.351-.15-.652-.45-.752-.65-.251-.75-.753-.75-1.355.05-.903-.1-1.857.1-2.81.75-.2 1.5-.502 2.3-.452h.95c.3 0 .55-.15.65-.401.2-.452.4-.953.65-1.405.55-1.054 1-2.158 1.4-3.312a75.03 75.03 0 0 1 1.65-4.716c.2-.602.5-1.154.7-1.807.7-2.609 1.85-5.068 2.7-7.627.45-1.304 1.1-2.508 1.6-3.763.85-2.208 1.7-4.466 2.4-6.774.2-.451.25-.802.05-1.053zm-8.9 35.826c.25-.05.6 0 .95-.2.7-.302.95-.904 1.25-1.556.25-.502.05-.954-.2-1.355-.05-.1-.1-.2-.15-.351-.45-1.054-1.2-1.506-2.35-1.405-.85.05-1.8.953-2 1.856-.35 1.656.7 2.96 2.5 3.01zm2.75 6.473c.85.05 1.5-.302 1.9-1.004.4-.652.75-1.355.15-2.107-.05-.1-.1-.201-.15-.352-.45-1.053-1.25-1.505-2.35-1.405-.85.1-1.8 1.004-1.95 1.857-.3 1.706.75 3.01 2.4 3.01zm2.8 1.706c-1.45 0-2.6.903-2.65 2.007-.05 1.405 1.2 2.71 2.6 2.76 1.05.05 2.3-1.305 2.35-2.51-.05-1.304-1-2.257-2.3-2.257z" fill="#661379"/><path d="M59.8 63.22c.7.45 1.1 1.003 1.6 1.454.3.351.2.753.15 1.154-.05.301-.15.653-.3.903-.45.904-.7 1.857-.95 2.81-.35 1.205-.85 2.409-1.25 3.613-.75 2.057-1.5 4.115-2.3 6.172-.4 1.104-.85 2.157-1.2 3.261-.5 1.455-.95 2.96-1.45 4.416-.15.502-.35 1.003-.5 1.455-.4 1.305-.3 2.61-.25 3.914.05.752.35 1.455.7 2.157.7 1.506 1.35 3.061 2.15 4.516.7 1.204 1.2 2.51 1.8 3.763.8 1.606 1.55 3.212 2.3 4.817.65 1.405 1.3 2.81 2 4.215.2.452.35.853.45 1.355.25 1.154.05 1.706-.85 2.358-.95.753-2.05 1.255-3.05 1.857-1.8 1.054-3.65 1.957-5.45 3.01-1.95 1.155-4 2.158-5.9 3.362-.9.602-1.9.954-2.85 1.556-1.1.702-2.3 1.254-3.45 1.907-1.65.953-3.3 1.906-5 2.81-.95.551-1.9 1.003-2.85 1.555-1.1.702-2.3 1.254-3.45 1.907-1.65.953-3.3 1.906-5 2.81-.95.551-1.95 1.053-2.95 1.605-1.2.652-2.3 1.405-3.55 2.007-1.1.502-2.1 1.104-3.15 1.706-.3.15-.65.251-1.05.402-.6-.352-1.25-.602-1.75-1.104 0-.301.1-.452.3-.552 1.1-.602 2.15-1.204 3.25-1.756 2.55-1.255 5-2.66 7.45-4.065 1.8-1.003 3.65-1.957 5.45-3.01 2.35-1.355 4.8-2.51 7-4.065.5-.35 1.1-.451 1.6-.802 1.65-1.004 3.3-1.907 5-2.81 2.05-1.054 4.15-2.108 6.15-3.362 1.25-.753 2.55-1.405 3.85-2.108 1.4-.752 2.75-1.555 4.15-2.308.55-.3 1.15-.552 1.7-.803.95-.4 1.7-1.003 2.2-1.906.35-.653.35-1.305.35-1.957 0-.2-.15-.351-.2-.552-.8-1.606-1.6-3.161-2.3-4.817-.6-1.505-1.4-2.96-2.15-4.416-.15-.3-.3-.602-.4-.953a6.168 6.168 0 0 0-.6-1.305c-.45-.702-.75-1.455-1.1-2.257-.45-1.004-1-2.008-1.5-3.011-.35-.703-.7-1.405-1-2.158-.3-.803-.55-1.656-.35-2.509.05-.1 0-.25 0-.35-.1-1.105.25-2.158.65-3.112.5-1.154.65-2.458 1.25-3.612.25-1.506.95-2.86 1.4-4.316.95-2.96 2.05-5.87 3.05-8.78.55-1.656 1.05-3.312 1.6-4.968.2-.401.35-.652.55-1.104z" fill="#4C0C5B"/><path d="M35.65 2.756c1.1-.3 2.15-.502 3.25-.351.2 0 .4 0 .6.05 1.4.402 1.3.05 1.85 1.505.5 1.405.9 2.81 1.25 4.265.65 2.61 1.25 5.219 1.85 7.828.2.753.35 1.555.5 2.408-1.1.954-2.15 1.857-3.25 2.81-.25.201-.55.301-.85.352-1.9.3-3.8.3-5.7-.05-.4-.1-.7-.352-1-.603-.55-.501-1.1-1.003-1.7-1.505-.55-.452-.7-1.054-.55-1.706.65-2.86 1.35-5.77 2-8.68.45-2.008 1-3.965 1.6-5.921 0-.15.05-.251.15-.402zM42 16.505c-.6 0-.9.401-.85 1.053 0 .502.35.803.85.753.55 0 1.05-.502 1.05-.953 0-.502-.45-.853-1.05-.853zm-7.35-.201c-.5 0-.95.451-.9.903 0 .452.55.953 1.05.953.45 0 .85-.501.8-1.003-.05-.502-.4-.853-.95-.853zm7.95-3.161c.05-.452-.4-.903-.9-.903-.4 0-.7.35-.75.802-.05.452.35.853.8.904.4 0 .8-.352.85-.803zm-7.8.451c.4.05.95-.451.95-.903.05-.401-.3-.752-.75-.803-.5-.05-.85.251-.9.753-.05.502.3.953.7.953zm6.5-4.265c.35 0 .65-.35.65-.752s-.45-.904-.8-.853c-.35 0-.75.552-.7.953 0 .351.45.652.85.652zm-5.05-1.053c0-.352-.3-.653-.7-.653-.55-.05-.9.251-.9.703 0 .401.3.752.75.752.4.05.8-.35.85-.802z" fill="#FFC941"/><path d="M44.85 94.73c-.6.1-1.15.1-1.7.05-.3-.25-.15-.552-.15-.803-.2-2.408-.15-4.817-.15-7.175 0-.953-.05-1.907.1-2.86.1-.652-.05-1.355-.05-2.057 0-.753-.1-1.505.05-2.258.5-.351 1.05-.452 1.55-.602.55-.201 1-.452 1.4-.853.75-.803 1.5-1.556 2.2-2.359.4-.552.95-.953 1.35-1.505 1.6-2.057 3.25-4.114 4.85-6.222.15-.2.3-.502.6-.552.15.301 0 .552-.1.803-.55 1.505-1.1 3.01-1.7 4.466-.65 1.656-1.35 3.211-2 4.867-.55 1.505-1.05 3.01-1.6 4.516-.35 1.003-.75 2.007-1.1 3.06-.45 1.506-1 2.961-1.5 4.416a39.31 39.31 0 0 1-1.8 4.566c-.1.05-.15.251-.25.502zm5.05-17.662c.7 0 1.35-.703 1.3-1.405-.05-.703-.8-1.104-1.4-.703-.25.201-.5.402-.65.703-.2.301-.3.652-.05 1.003.2.251.45.402.8.402z" fill="#FFF"/><path d="M43.75 75.613c-.2.351-.4.552-.7.602-.05-.05-.15-.1-.15-.15-.05-.553-.35-1.054-.05-1.606-.15-1.405.2-2.86-.1-4.265-.1-.402.15-.853.15-1.305-.05-.903 0-1.856 0-2.76v-5.77c0-.401.1-.803-.1-1.204-.1-.15-.05-.301 0-.452.05-.15.15-.3.1-.451-.25-.904-.05-1.807-.1-2.71 0-.2 0-.401.05-.552.1-.351.1-.702-.05-1.054-.1-.2-.15-.401-.05-.602.2-.451.05-.853.05-1.304 0-.402.1-.803.1-1.205-.05-.702.15-1.455-.15-2.157-.05-.1.05-.301.05-.452.05-.2.1-.401.05-.602-.25-1.204.1-2.459 0-3.663-.05-1.254 0-2.509 0-3.713v-3.713c0-.753-.1-1.505 0-2.258.05-.753 0-1.505 0-2.308 0-.803-.15-1.656 0-2.459.1-.802.05-1.706 0-2.508 0-.402.1-.803-.15-1.205-.05-.1-.1-.25-.05-.351.3-.753.1-1.505.2-2.258 0-.1.05-.2.1-.351.35-.1.55.15.6.401.05.301 0 .653.05.954 0 .451-.1.953.1 1.405.05.1.05.25.05.35-.3 2.259-.05 4.567-.15 6.825.3 1.003.2 2.057.2 3.11 0 .352.05.703-.1 1.055-.05.1-.1.25-.05.35.35 1.606.15 3.212.15 4.768.05 5.82 0 11.64 0 17.461 0 .552.05 1.104-.15 1.656-.1.2-.1.502 0 .702.25.703.15 1.405.15 2.158v6.523c0 .451.1.903-.1 1.304.25 1.155.05 2.258-.05 3.412-.05.251.1.352.1.352z" fill="#480B56"/><path d="M40.4 80.078c-.25.1-.4.1-.6 0-.05-.1-.1-.2-.1-.3V22.977c.25-.15.45-.3.8-.15.2.3-.1.702.05 1.104.15.351.05.803.05 1.154 0 .401-.1.803-.1 1.204 0 .703.1 1.405.05 2.158l-.15 5.67c0 .552.05 1.103.1 1.655 0 .201.1.402.05.603-.15 1.003.05 2.057-.1 3.06a6.75 6.75 0 0 0 0 2.007c.1 1.054-.15 2.058.1 3.111.1.452-.2.954-.1 1.405.15.653.15 1.355.1 2.058 0 1.455-.15 2.91-.05 4.415.05 1.004 0 1.957 0 2.96.05 2.258-.05 4.466-.05 6.724 0 1.204-.05 2.459 0 3.663.05 1.104-.15 2.208.05 3.312.15.702-.05 1.355 0 2.007.1.953-.05 1.957-.05 2.96 0 .653 0 1.355.05 2.007.05.853.1 1.706 0 2.56-.05.25.1.551.05.802 0 .15-.1.402-.15.652z" fill="#92816E"/><path d="M37.05 80.078c-.3.05-.45.1-.65-.05-.1-1.405-.05-2.86-.05-4.365 0-1.455-.05-2.91 0-4.315.05-1.455-.05-2.96 0-4.416.05-1.455 0-2.91 0-4.315v-8.931c0-1.456.1-2.91 0-4.316-.1-1.455.05-2.96 0-4.415-.05-1.506.05-2.96 0-4.466-.05-1.455.2-2.86-.15-4.315.35-1.455.1-2.96.1-4.416 0-1.405.1-2.86 0-4.265-.1-1.455.15-2.91-.05-4.315.25-.25.45-.451.75-.401.2.25.1.552.1.803v9.734c0 .702-.1 1.455.1 2.157.1.402-.1.853-.1 1.305.05 2.96 0 5.92 0 8.881v32.966c-.05.452-.05.904-.05 1.455z" fill="#9A8874"/><path d="M38.65 22.827c.05.15.1.3.1.401.1 15.154-.05 30.307.05 45.46.05 3.864-.05 7.677-.05 11.49-.3.151-.45 0-.6-.05-.2-.4-.1-.852-.1-1.304V57.298c0-7.878 0-15.805.05-23.683 0-3.211 0-6.423-.05-9.634v-.853c0-.351.25-.351.6-.301zm-3.8-.201c.2-.05.4.05.45.251.05.2.05.452.05.703v55.445c0 .351.25 1.053-.35 1.053-.5 0-.3-.652-.3-1.003V23.128c0-.1-.05-.351.15-.502z" fill="#988672"/><path d="M41.8 80.229c-.25 0-.4-.15-.4-.351-.05-.301-.05-.653-.05-.954 0-5.77.05-11.54.05-17.31V23.128c0-.15-.05-.301.15-.452.25-.1.45.05.5.352.05.853.1 1.655.05 2.508-.05 1.255.05 2.51-.05 3.764-.05 1.104 0 2.207-.05 3.361-.05.954.1 1.907.05 2.86-.05 2.158 0 4.266 0 6.423 0 2.007-.05 4.014-.05 5.971 0 3.262.05 6.573.05 9.835v5.97c0 1.958.05 3.915 0 5.922-.05 2.057.05 4.164 0 6.222-.05 1.354.1 2.71-.15 4.064 0 .1-.05.2-.1.301z" fill="#91806D"/><path d="M34.85 106.421c-.1-.502-.15-.803 0-1.054.1-.05.15-.1.25-.1h5.95c.25 0 .5-.05.65.15.15.151.15.252.05.954-2.3 0-4.6.1-6.9.05z" fill="#EFBE40"/><path d="M40.4 84.946c.05.552.05 1.053.05 1.555v4.566c0 .2-.05.402-.3.452-.2.05-.4-.15-.4-.452V86.15c0-.301 0-.652.05-.954.05-.25.25-.25.6-.25z" fill="#F6F6F6"/><path d="M35.25 85.196v5.971c0 .1 0 .251-.05.352-.05.1-.15.2-.3.15-.05-.05-.15-.05-.15-.15-.05-.05-.05-.15-.05-.201v-5.82c0-.302.15-.452.55-.302z" fill="#EBEBEB"/><path d="M45.9 14.096c-.5-.853-.8-1.706-.75-2.61 1-.25 1.6-.05 1.75.603.1.452.15.953-.05 1.405-.15.351-.45.502-.95.602z" fill="#E5E5E5"/><path d="M42.7 21.873c1.1-.802 1.95-1.655 2.65-2.609.4 0 .6.201.8.352.1.2.05.401-.1.551-.5.502-1 1.054-1.5 1.506-.5.401-1 .652-1.85.2z" fill="#490D55"/><path d="M44.1 6.57c1.05 0 1.5.401 1.65 1.304.05.452.1.954-.3 1.305s-.8.25-1-.251c-.35-.953-.45-1.455-.35-2.358z" fill="#E6E6E6"/><path d="M39.7 96.336c.85 0 1 .05.95.501-.05.402-.05.753 0 1.155.05.501-.05 1.003-.15 1.505-.05.552-.05.552-.75.502-.15-1.154 0-2.359-.05-3.663z" fill="#5A166A"/><path d="M46.8 18.461c-.4-.551-.55-1.204-.6-1.906-.05-.251.15-.452.4-.502.25-.05.45-.05.7.05.4.251.65.803.55 1.355-.05.552-.35.853-1.05 1.003z" fill="#E9E9E9"/><path d="M36.3 96.386c.4-.15.7-.15.7.15.05 1.104 0 2.158 0 3.262 0 .3-.25.351-.6.2-.25-1.153 0-2.358-.1-3.612z" fill="#611772"/><path d="M38.75 100.049c-.3.05-.45.1-.7-.1-.1-1.104-.05-2.309 0-3.513.55-.25.7-.2.7.15v3.463z" fill="#5F186F"/><path d="M40.6 81.233c-.05.802-.05 1.555-.1 2.308 0 .35-.15.401-.75.401-.2-.803-.1-1.656-.05-2.459.05-.3.25-.35.9-.25z" fill="#CCA33B"/><path d="M41.9 84.996c.05 2.208.05 4.415 0 6.573-.45-.05-.4-.301-.4-.502 0-1.204-.05-2.459-.05-3.663 0-.652.1-1.355 0-2.007.05-.15.1-.351.45-.401zm-3.4 6.473c-.3.05-.55 0-.45-.402 0-.1 0-.25.05-.351.3-.251.2-.552.2-.903v-4.867c.15 0 .35-.05.4.15.05.402.1.803.1 1.204 0 .201-.2.452-.2.653 0 .2.25.401.15.652-.35.602-.1 1.254-.15 1.907 0 .1.1.2.2.3.05.101.05.151 0 .252-.2.1-.2.3-.2.501-.1.301-.1.602-.1.904z" fill="#F7F7F7"/><path d="M32.45 10.483c-.1.853-.25 1.606-.5 2.409-.3.05-.4-.1-.5-.251-.25-.452-.2-.903-.15-1.405.1-.602.3-.702 1.15-.753z" fill="#E3E3E3"/><path d="M42.15 3.509c.25-.2.45-.2.5-.1.5.602.75 1.354.9 2.157.05.15-.05.301-.2.401-.2.05-.4.05-.5-.2-.1-.2-.2-.351-.2-.552-.1-.602-.35-1.154-.5-1.706z" fill="#430A50"/><path d="M36.3 83.691c0-.803-.1-1.605.05-2.358.2-.251.4-.2.65-.15.2.852.1 1.756.1 2.609-.35.2-.55.15-.8-.1z" fill="#ECBB40"/><path d="M38.75 82.637c.05.251.1.552.1.853 0 .201-.1.402-.35.402-.2 0-.45-.1-.45-.301v-2.158c0-.25.2-.351.4-.3.2 0 .3.15.3.3v1.204z" fill="#E2B43E"/><path d="M39.75 92.773c.25-.15.4-.15.65 0 .2.803.15 1.656 0 2.459-.2.15-.35.1-.6.1-.15-.903-.1-1.756-.05-2.559z" fill="#EDBC41"/><path d="M36.4 95.332c-.15-.853-.05-1.656 0-2.459 0-.05.15-.15.25-.2.15-.05.3.05.4.2.05.1.05.201.05.352.05.502-.05 1.003.1 1.505.05.1-.05.301-.15.452-.05.05-.1.15-.15.15-.15-.05-.3-.05-.5 0z" fill="#EEBD41"/><path d="M34.7 95.734c-.4-.753-.05-1.606-.2-2.359-.05-.25.1-.602.4-.853.55.602.25 1.305.3 1.957.05.402.1.903-.5 1.255z" fill="#F0BF41"/><path d="M42.1 94.178v.953c0 .1-.1.251-.25.201-.1 0-.25-.05-.3-.15-.1-.201-.15-.452-.15-.653 0-.501 0-1.003.05-1.555 0-.15.15-.301.3-.301s.3.1.3.3c0 .402 0 .804.05 1.205-.05 0 0 0 0 0z" fill="#CCA33A"/><path d="M38.75 92.773v2.057c0 .251-.05.502-.35.552-.25.05-.4-.2-.4-.602 0-.552 0-1.104.05-1.656v-.1c.1-.401.3-.452.7-.25z" fill="#E8B940"/><path d="M36.8 84.996c.2 0 .25.15.25.3v5.871c0 .1 0 .201-.05.251-.05.1-.15.201-.25.201-.15.05-.3 0-.4-.2-.1-.252-.05-.452 0-.703.3.05.05.502.45.552v-6.272z" fill="#BCBCBC"/><path d="M36.8 84.996v6.272c-.35-.05-.15-.502-.45-.552V89.26c.25-.15.2-.402.2-.653 0-1.204 0-2.458.05-3.662.05 0 .15 0 .2.05z" fill="#F5F5F5"/><path d="M32.85 8.175c-.6-.25-.5-.752-.4-1.204.1-.602.3-1.204 1.05-1.405-.1 1.154-.25 1.857-.65 2.61z" fill="#F1F1F1"/><path d="M31.45 15.1c-.2.802-.35 1.455-.5 2.157-.65-.401-.8-.752-.65-1.355.2-.451.4-.853 1.15-.802z" fill="#E4E4E4"/><path d="M38.3 84.996v4.867c0 .301.1.652-.2.903 0-1.706-.05-3.462-.05-5.168-.05-.251-.1-.502.25-.602z" fill="#AFAFAF"/><path d="M35.1 81.132c.25.803.1 1.656.1 2.459 0 .15-.05.3-.25.351-.3-.1-.25-.351-.25-.602 0-.703-.15-1.405.1-2.107.05-.05.15-.05.3-.1z" fill="#C49E3D"/><path d="M39.55 104.163c0-1.154 0-1.154 1-1.053.05.05.1.1.15.2v.753c-.25.2-.25.2-1.15.1z" fill="#5E186F"/><path d="M41.85 81.233c.2.903 0 1.756.05 2.559-.25.2-.4.05-.45-.1-.05-.703-.05-1.406-.1-2.108.05-.201.15-.301.5-.351z" fill="#C19B3C"/><path d="M36.15 103.16c.3-.201.5-.201.75-.1.3.3.2 1.053-.15 1.254-.2.15-.5 0-.6-.2-.1-.252-.05-.603 0-.954z" fill="#521860"/><path d="M37.9 104.163c-.15-.401-.15-.702-.05-1.003.25-.251.5-.201.8-.05.05.3.1.652.2 1.003-.3.2-.6.15-.95.05z" fill="#601871"/><path d="M36.6 84.996c0 1.204 0 2.458-.05 3.663 0 .25.05.501-.2.652 0-1.355 0-2.66-.05-4.014.05-.2.1-.301.3-.301z" fill="#BCBCBC"/><path d="M36.55 101.102c.3 0 .5.151.5.502s-.2.502-.5.502c-.25 0-.4-.15-.4-.452 0-.401.1-.552.4-.552z" fill="#C09A39"/><path d="M38.35 101.102c.3 0 .4.151.45.452 0 .351-.15.552-.45.552-.35 0-.5-.15-.5-.502-.05-.351.1-.502.5-.502z" fill="#C9A13D"/><path d="M39.8 102.006c-.2-.301-.2-.552-.1-.753.25-.2.5-.15.8-.1.2.752.2.802-.7.853z" fill="#C7A03E"/><path d="M34.95 101.102c.25 0 .4.151.4.402 0 .351-.2.602-.45.552-.25-.05-.3-.251-.3-.452 0-.351.15-.502.35-.502z" fill="#BE983A"/><path d="M38.75 89.763c-.05-.1-.2-.201-.2-.302.05-.652-.2-1.304.15-1.906.1.752.1 1.505.05 2.208z" fill="#AFAFAF"/><path d="M41.95 101.604v.15c-.05.101-.1.252-.2.252s-.25-.1-.25-.15c-.05-.151-.05-.302-.05-.452 0-.1.1-.201.25-.201.05 0 .15.05.2.1 0 .1 0 .2.05.301z" fill="#7E704E"/><path d="M38.5 91.469v-.954c0-.2 0-.401.2-.502 0 .402.05.753.05 1.154 0 .151-.05.302-.25.302z" fill="#AFAFAF"/><path d="M47.5 100.902c-1.75 0-2.8-1.355-2.5-3.01.15-.854 1.15-1.757 2-1.857 1.15-.1 1.9.401 2.35 1.405.05.1.1.2.15.35.25.452.45.854.2 1.356-.3.602-.55 1.204-1.25 1.555-.4.15-.7.15-.95.2zm1.35-2.359c0-.903-.75-1.756-1.6-1.756-.75-.05-1.6.903-1.6 1.756 0 .904.8 1.606 1.85 1.606.9-.05 1.35-.552 1.35-1.606zm1.4 8.832c-1.65 0-2.7-1.305-2.4-3.011.15-.853 1.15-1.756 1.95-1.857 1.1-.1 1.95.402 2.35 1.405.05.1.05.251.15.352.55.752.2 1.455-.15 2.107-.4.702-1.05 1.054-1.9 1.004zm1.5-2.309c0-.903-.75-1.756-1.6-1.756-.75-.05-1.6.853-1.65 1.756 0 .904.8 1.606 1.85 1.606.9-.05 1.4-.602 1.4-1.606z" fill="#080505"/><path d="M53.05 109.08c1.3 0 2.25 1.004 2.25 2.259 0 1.154-1.25 2.508-2.35 2.508-1.4-.05-2.65-1.354-2.6-2.76.05-1.103 1.25-2.006 2.7-2.006zm-1.85 2.158c0 .954.75 1.907 1.45 1.907 1.05-.05 1.85-.753 1.9-1.756.05-.753-.8-1.556-1.65-1.556-.95-.05-1.7.552-1.7 1.405z" fill="#070505"/><path d="M42 16.505c.6 0 1.05.35 1.05.853 0 .451-.55.903-1.05.953-.5 0-.85-.301-.85-.753-.05-.652.25-1.003.85-1.053z" fill="#0C0A03"/><path d="M34.65 16.304c.55 0 .9.3.95.853.05.502-.35 1.003-.8 1.003-.5 0-1.05-.501-1.05-.953-.05-.452.4-.903.9-.903z" fill="#151006"/><path d="M42.6 13.143a.917.917 0 0 1-.9.803c-.45-.05-.8-.502-.8-.904.05-.451.35-.802.75-.802.5 0 .95.401.95.903z" fill="#0D0A04"/><path d="M34.8 13.594c-.4-.05-.75-.501-.7-.953.05-.452.45-.753.9-.753.45.05.8.402.75.803 0 .452-.5.954-.95.903z" fill="#100D04"/><path d="M41.3 9.33c-.4.05-.85-.302-.9-.653-.05-.401.35-.953.7-.953s.8.451.8.853c0 .35-.3.702-.6.752z" fill="#1A1407"/><path d="M36.25 8.276c0 .451-.45.853-.85.802-.4-.05-.75-.401-.75-.752 0-.452.35-.703.9-.703.4 0 .7.301.7.653z" fill="#141006"/><path d="M49.9 77.068c-.35 0-.6-.15-.8-.452-.25-.351-.1-.702.05-1.003.15-.251.4-.502.65-.703.55-.401 1.35 0 1.4.703.05.752-.6 1.455-1.3 1.455zm.15-1.556c-.05.251-.35.352-.15.653.05.1.2.1.3 0 .2-.15.25-.352-.15-.653z" fill="#100F0E"/><path d="M48.85 98.543c0 1.054-.45 1.556-1.35 1.606-1.05 0-1.9-.702-1.85-1.606 0-.903.85-1.806 1.6-1.756.85.05 1.6.853 1.6 1.756zm2.9 6.523c0 1.004-.45 1.556-1.35 1.556-1.05 0-1.9-.703-1.85-1.606 0-.903.85-1.806 1.65-1.756.8.05 1.55.903 1.55 1.806z" fill="#FBC640"/><path d="M51.2 111.238c0-.803.75-1.455 1.7-1.455.85 0 1.7.803 1.65 1.556-.05 1.003-.85 1.706-1.9 1.756-.7.05-1.45-.954-1.45-1.857z" fill="#F9C540"/><path d="M50.05 75.512c.4.301.35.502.1.653-.1.05-.2.1-.3 0-.15-.301.15-.402.2-.653z" fill="#A98938"/></g></svg>