<svg width="120" height="120" viewBox="0 0 120 120" xmlns="http://www.w3.org/2000/svg"><g fill="none" fill-rule="evenodd"><path d="M67.961 63.461H50.937l-7.595 49.295c-.584 3.79 2.37 7.207 6.23 7.207h19.753c3.862 0 6.815-3.416 6.231-7.207l-7.595-49.295z" fill="#F95428"/><path d="M37.95 61.338l.003-.002c.07-.043 1.265 10.854 21.496 10.854 18.963 0 21.426-10.896 21.497-10.852C82.32 57.496 91.628 7.302 91.628 7.302H27.27s9.305 50.194 10.68 54.036" fill="#F7B239"/><path d="M91.681 2.815A4.245 4.245 0 0 0 87.676 0H31.222a4.245 4.245 0 0 0-4.005 2.815L26.2 5.675a1.24 1.24 0 0 0 1.176 1.65H91.52a1.24 1.24 0 0 0 1.176-1.65l-1.016-2.86z" fill="#EBEBEB"/><path d="M28.902 16.042h61.093l.619-3.303h-62.33l.618 3.303m9.97 47.748h40.904c.525-.839.828-1.54.994-1.975H38.074c.118.435.349 1.137.798 1.976" fill="#F95428"/><path d="M85.379 13.81a.595.595 0 0 0-.682.456l-8.717 39.8 3.238-39.627a.59.59 0 0 0-.508-.632.592.592 0 0 0-.665.466l-8.391 40.744 2.123-40.595a.591.591 0 0 0-.536-.618.591.591 0 0 0-.645.504l-5.667 39.395.514-39.305a.592.592 0 0 0-.557-.596.593.593 0 0 0-.627.523L59.437 57.39l-4.822-43.065a.593.593 0 0 0-1.184.073l.514 39.305-5.666-39.395a.592.592 0 0 0-.646-.504.59.59 0 0 0-.535.618l2.123 40.595-8.391-40.744a.592.592 0 0 0-.666-.466.59.59 0 0 0-.508.632l3.239 39.627-8.718-39.8a.595.595 0 0 0-1.17.2l6.177 47.733a.594.594 0 0 0 1.178-.15l-4.426-34.2 7.69 35.108a.593.593 0 0 0 .668.458.59.59 0 0 0 .504-.63l-3.164-38.719 8.009 38.884a.596.596 0 0 0 .657.467.591.591 0 0 0 .517-.616l-1.85-35.36 5.103 35.474a.593.593 0 0 0 .635.505.591.591 0 0 0 .547-.596l-.475-36.386 4.062 36.289-.004.04a.591.591 0 0 0 .525.651h.028c.016.002.033 0 .05 0 .015 0 .032.002.048 0h.029a.592.592 0 0 0 .524-.651l-.004-.04 4.063-36.289-.476 36.386a.591.591 0 0 0 .548.596.592.592 0 0 0 .634-.505l5.103-35.474-1.85 35.36a.591.591 0 0 0 .518.616.596.596 0 0 0 .657-.467l8.008-38.884-3.164 38.718a.59.59 0 0 0 .592.638c.275 0 .52-.19.58-.465l7.69-35.108-4.425 34.2a.594.594 0 0 0 1.178.15l6.176-47.733a.59.59 0 0 0-.488-.656" fill="#4A72B1"/><path fill="#F7B239" d="M45.522 98.61l-1.363 8.846h30.58l-1.362-8.847z"/></g></svg>