<svg width="480" height="360" viewBox="0 0 480 360" xmlns="http://www.w3.org/2000/svg"><g fill="none" fill-rule="evenodd"><path fill="#CAE9F1" d="M0 360h484V0H0z"/><path d="M57.266.888c22.561 20.088 107.238 29.668 140.615-7.417 4.328 13.288 4.042 17.666-11.258 11.479.338 15.188-2.122 18.719-14.175 6.975-.337 21.375-9.225 12.037-16.2 5.287-5.116 18.988-11.198 16.325-15.525 1.8-7.108 18.543-9.938 13.575-15.75 1.125-6.412 14.063-10.8 12.563-16.087-.337-11.25 13.95-14.137 12.45-16.688-2.55-14.216 17.307-18.486 7.712-17.25-4.65C61.042 31.452 55.104 16.031 57.267.888" fill="#207AA0"/><path d="M-.32 96.998a177.85 177.85 0 0 1-20.423-1.16.676.676 0 0 1 .155-1.342C13.43 98.43 50.801 92.14 84.647 76.784c29.678-13.462 51.931-32.04 58.075-48.483a.675.675 0 0 1 1.265.472C132.938 58.341 68.751 96.998-.32 96.998" fill="#5BC1E3"/><path d="M135.708 42.864c-.036-.237.246-.701.593-1.117.332-.423.734-.797.967-.842.65-.117 2.177.67 3.355 1.726l-1.33 1.48-1.146 1.633c-1.295-.905-2.334-2.221-2.439-2.88" fill="#ACADA9"/><path d="M138.785 50.068a4.519 4.519 0 0 0 3.542 1.17 4.971 4.971 0 0 0 1.873-.584 5.638 5.638 0 0 0 1.605-1.356 5.727 5.727 0 0 0 .97-1.878c.185-.663.232-1.34.156-1.98a4.45 4.45 0 0 0-1.959-3.187c-1.117-.746-2.406-.952-3.621-.771a4.926 4.926 0 0 0-1.71.593 4.48 4.48 0 0 0-1.405 1.197 4.545 4.545 0 0 0-.857 1.642 5.03 5.03 0 0 0-.195 1.812c.099 1.23.612 2.441 1.6 3.342" fill="#FFFEFE"/><path d="M122.476 55.616c.041-.48 1.53-1.661 2.02-1.652.671.006 1.987 1.112 2.896 2.408 0 0-.403.305-.82.593l-.826.582-.731.7c-.373.34-.746.683-.746.683-1.094-1.143-1.843-2.64-1.793-3.314" fill="#ACADA9"/><path d="M124.071 63.305a4.659 4.659 0 0 0 3.247 1.827 5.04 5.04 0 0 0 3.704-1.145 5.057 5.057 0 0 0 1.855-3.415 4.612 4.612 0 0 0-1.159-3.543 4.989 4.989 0 0 0-6.829-.525c-1.005.842-1.617 1.982-1.761 3.22a4.894 4.894 0 0 0 .943 3.581" fill="#FFFEFE"/><path d="M107.011 66.336c.107-.47 1.773-1.451 2.253-1.388.673.096 1.828 1.377 2.545 2.786l-1.797.948-1.657 1.179c-.937-1.275-1.485-2.858-1.344-3.525" fill="#ACADA9"/><path d="M107.602 74.177c1.327 2.32 4.376 3.066 6.776 1.594 2.396-1.481 3.103-4.55 1.624-6.77a4.937 4.937 0 0 0-8.4 5.177" fill="#FFFEFE"/><path d="M90.274 75.286c.153-.465 1.922-1.272 2.399-1.152.665.17 1.672 1.56 2.236 3.04l-1.895.749-.882.508-.89.497c-.8-1.364-1.18-2.994-.968-3.642" fill="#ACADA9"/><path d="M90.053 83.147c1.087 2.443 4.036 3.494 6.56 2.284a4.964 4.964 0 0 0 2.57-2.838 4.666 4.666 0 0 0-.242-3.705 4.89 4.89 0 0 0-2.823-2.412 4.958 4.958 0 0 0-3.689.23c-2.384 1.145-3.461 4.003-2.376 6.441m-62.737 7.549c1.048 2.615 4.509 3.971 7.707 2.978 3.198-.997 4.781-3.94 3.57-6.494-1.211-2.56-4.623-3.81-7.657-2.866-3.035.943-4.664 3.779-3.62 6.382m-23.15 5.567c.765 2.687 4.063 4.3 7.352 3.555 3.287-.748 5.175-3.562 4.245-6.201-.932-2.645-4.195-4.151-7.314-3.442-3.121.707-5.043 3.413-4.283 6.088" fill="#FFFEFE"/><path d="M1.033 45.933C21.545 52.622 76.12 63.083 150.834-2c2.082 5.26 3.895 12.426 2.872 14.105-.984 1.615-10.678 0-13.863-2.613 2.342 7.918 1.64 14.722-.046 15.876-1.526 1.043-18.218-2.038-18.218-2.038 2.08 6.26 2.06 13.8.603 14.183-1.271.335-7.736-.65-17.277-5.612 1.032 5.267.76 14.868-2.85 16.833-3.611 1.966-14.289-7.26-14.289-7.26-1.124 12.455-3.54 15.708-6.416 16.299-3.934.807-14.003-9.38-14.003-9.38C65.1 55.62 58.83 65.163 56.07 65.387c-4.224.343-13.45-10.536-13.637-12.38-.703 7.88-12.876 14.11-15.315 13.991-4.777-.23-8.008-14.415-8.008-14.415-4.356 7.38-17.328 9.495-18.827 8.573-.936-5.997.75-15.223.75-15.223" fill="#5BC1E3"/><path d="M483.88 40.101c-22.244 7.27-81.427 18.64-162.447-52.101-2.257 5.717-4.224 13.506-3.114 15.332 1.066 1.755 11.58 0 15.032-2.841-2.539 8.607-1.777 16.003.05 17.256 1.656 1.135 19.757-2.214 19.757-2.214-2.256 6.805-2.236 15-.655 15.416 1.38.364 8.389-.707 18.737-6.1-1.12 5.726-.825 16.162 3.09 18.297 3.916 2.136 15.495-7.892 15.495-7.892 1.22 13.538 3.84 17.075 6.958 17.716 4.265.878 15.184-10.194 15.184-10.194 2.438 7.855 9.236 18.227 12.23 18.47 4.58.374 14.585-11.45 14.788-13.457.762 8.566 13.962 15.337 16.607 15.21 5.18-.251 8.684-15.67 8.684-15.67 4.723 8.023 18.791 10.321 20.417 9.318 1.015-6.518-.813-16.546-.813-16.546" fill="#207AA0"/><path d="M410.139 39c-68.452 0-130.416-21.744-147.02-43.98-.238-.318-.11-.732.288-.924.397-.191.912-.088 1.15.231 11.215 15.019 42.581 29.21 81.86 37.036 44.796 8.925 91.852 8.318 132.499-1.711.442-.11.911.09 1.047.446.136.356-.112.733-.555.842-22.845 5.636-46.422 8.06-69.27 8.06" fill="#5BC1E3"/><path d="M275.572 7.448c-.007-.24-.368-.645-.785-.99-.404-.356-.867-.652-1.104-.653-.662.003-2.02 1.055-2.985 2.307l1.576 1.214 1.425 1.398c1.108-1.126 1.89-2.61 1.873-3.276" fill="#ACADA9"/><path d="M273.857 15.091a4.517 4.517 0 0 1-3.27 1.793 4.96 4.96 0 0 1-1.949-.232 5.639 5.639 0 0 1-1.824-1.042 5.739 5.739 0 0 1-1.296-1.67 5.131 5.131 0 0 1-.513-1.92 4.452 4.452 0 0 1 1.347-3.488c.963-.937 2.193-1.375 3.42-1.418a4.931 4.931 0 0 1 1.79.272 4.484 4.484 0 0 1 1.599.922c.49.415.87.91 1.142 1.46.275.546.457 1.132.52 1.746.127 1.227-.157 2.51-.966 3.577" fill="#FFFEFE"/><path d="M290.903 17.581c-.128-.463-1.808-1.354-2.287-1.257-.66.128-1.752 1.455-2.41 2.895 0 0 .452.227.913.434l.92.422.846.554.857.538c.868-1.324 1.333-2.931 1.161-3.586" fill="#ACADA9"/><path d="M290.732 25.432a4.656 4.656 0 0 1-2.86 2.387 5.043 5.043 0 0 1-3.85-.452 5.056 5.056 0 0 1-2.446-3.021 4.61 4.61 0 0 1 .495-3.694 4.988 4.988 0 0 1 6.62-1.758c1.141.645 1.951 1.655 2.318 2.846a4.897 4.897 0 0 1-.277 3.692" fill="#FFFEFE"/><path d="M308.059 25.311c-.191-.443-2.007-1.105-2.467-.956-.646.218-1.548 1.687-1.997 3.203l1.94.606 1.843.857c.69-1.422.941-3.079.68-3.71" fill="#ACADA9"/><path d="M308.903 33.129c-.883 2.523-3.746 3.81-6.373 2.799-2.626-1.02-3.879-3.91-2.828-6.363a4.936 4.936 0 0 1 9.2 3.564" fill="#FFFEFE"/><path d="M326.144 31.07c-.235-.43-2.121-.902-2.568-.697-.623.289-1.361 1.838-1.646 3.396l2 .391.96.34.964.327c.54-1.487.617-3.159.29-3.757" fill="#ACADA9"/><path d="M327.79 38.759c-.625 2.6-3.333 4.17-6.034 3.438a4.962 4.962 0 0 1-3.044-2.323 4.67 4.67 0 0 1-.436-3.687 4.891 4.891 0 0 1 2.338-2.885 4.957 4.957 0 0 1 3.669-.444c2.553.692 4.132 3.306 3.507 5.901" fill="#FFFEFE"/><path d="M344.769 35.044c-.276-.397-2.201-.697-2.628-.455-.593.341-1.184 1.961-1.32 3.537l2.028.207.99.245.99.236c.4-1.53.322-3.203-.06-3.77" fill="#ACADA9"/><path d="M347.122 42.55c-.384 2.65-2.934 4.458-5.686 3.987-2.752-.474-4.547-3.044-4.022-5.66.525-2.623 3.055-4.324 5.666-3.874 2.611.446 4.424 2.908 4.042 5.547" fill="#FFFEFE"/><path d="M363.695 37.311c-.31-.368-2.255-.498-2.658-.216-.56.394-1.003 2.06-.996 3.641l2.039.023 1.006.156 1.01.146c.26-1.561.031-3.22-.4-3.75" fill="#ACADA9"/><path d="M366.715 44.575c-.143 2.673-2.52 4.702-5.303 4.483-2.784-.223-4.802-2.622-4.516-5.275.285-2.659 2.652-4.58 5.293-4.37 2.641.21 4.669 2.5 4.526 5.162" fill="#FFFEFE"/><path d="M382.737 37.855c-.343-.353-2.289-.29-2.663.028-.522.446-.81 2.142-.658 3.717l2.03-.17 1.017.066c.51.036 1.018.055 1.018.055.115-1.58-.265-3.207-.744-3.696" fill="#ACADA9"/><path d="M386.414 44.81a4.671 4.671 0 0 1-1.347 3.459 4.96 4.96 0 0 1-3.524 1.487 4.946 4.946 0 0 1-3.556-1.406 4.685 4.685 0 0 1-1.426-3.43 4.877 4.877 0 0 1 1.46-3.411 4.973 4.973 0 0 1 3.411-1.428 4.961 4.961 0 0 1 3.443 1.349 4.89 4.89 0 0 1 1.539 3.38" fill="#FFFEFE"/><path d="M401.713 38.59c-.375-.32-2.298-.045-2.642.292-.476.487-.599 2.204-.297 3.758l1.004-.172 1-.186 2.036-.08c-.04-1.58-.578-3.168-1.1-3.611" fill="#ACADA9"/><path d="M406.05 46.152c.369 2.643-1.583 5.107-4.369 5.406-2.785.298-5.218-1.666-5.429-4.335a4.936 4.936 0 0 1 4.382-5.283c2.628-.281 5.047 1.563 5.417 4.212" fill="#FFFEFE"/><path d="M420.42 37.43c-.402-.26-2.29.175-2.593.559-.42.537-.364 2.26.098 3.773l1.954-.563s.505-.063 1.007-.143l1.005-.155c-.207-1.569-.907-3.089-1.472-3.471" fill="#ACADA9"/><path d="M425.424 43.496c.652 2.6-1.037 5.235-3.782 5.839-1.37.283-2.718.026-3.779-.666a4.7 4.7 0 0 1-2.078-3.088 4.858 4.858 0 0 1 .759-3.624c.693-1.02 1.753-1.81 3.051-2.078 2.576-.566 5.18 1.033 5.829 3.617M201.346 304.78c.837-.16 2.82 3.687 2.82 3.687s4.387-.938 4.636-.232c.25.706-2.636 3.821-2.636 3.821s2.096 3.678 1.655 4.338c-.442.659-4.45-1.326-4.45-1.326s-2.988 3.26-3.614 2.913c-.626-.345-.113-4.64-.113-4.64s-3.652-1.63-3.778-2.44c-.126-.814 4.268-1.64 4.268-1.64s.375-4.323 1.212-4.481m76.886 1.18c-.854-.162-2.876 3.762-2.876 3.762s-4.475-.957-4.729-.237c-.255.72 2.688 3.898 2.688 3.898s-2.137 3.75-1.687 4.424c.45.672 4.538-1.352 4.538-1.352s3.048 3.324 3.686 2.97c.639-.352.116-4.733.116-4.733s3.725-1.66 3.853-2.489c.13-.828-4.353-1.671-4.353-1.671s-.382-4.41-1.236-4.572m-38.297-5.305c1.373.012 3.305 6.714 3.305 6.714s7.23-.11 7.403 1.083c.175 1.194-5.363 5.218-5.363 5.218s2.162 6.471 1.257 7.377c-.903.904-6.62-3.489-6.62-3.489s-5.745 4.217-6.626 3.475c-.883-.742 1.272-7.374 1.272-7.374s-5.264-3.717-5.21-5.04c.055-1.325 7.263-1.257 7.263-1.257s1.946-6.718 3.319-6.707M208.46 28.188c.733.144 1.087 3.919 1.087 3.919s3.872.671 3.844 1.326c-.027.655-3.391 2.244-3.391 2.244s.5 3.674-.073 4.066c-.574.392-3.182-2.532-3.182-2.532s-3.495 1.672-3.89 1.186c-.396-.485 1.424-3.809 1.424-3.809s-2.435-2.516-2.273-3.218c.164-.7 4.006.063 4.006.063s1.717-3.39 2.449-3.245M148.5 80.163c1.065-.202 3.592 4.698 3.592 4.698s5.589-1.195 5.906-.296c.318.899-3.357 4.868-3.357 4.868s2.67 4.686 2.107 5.527c-.562.84-5.668-1.688-5.668-1.688s-3.808 4.15-4.604 3.71c-.799-.44-.145-5.912-.145-5.912s-4.652-2.075-4.813-3.109c-.161-1.035 5.437-2.088 5.437-2.088s.478-5.508 1.544-5.71m46.419-5.529c.6-.114 2.023 2.646 2.023 2.646s3.15-.673 3.328-.167c.18.507-1.891 2.743-1.891 2.743s1.504 2.639 1.187 3.113c-.317.474-3.193-.951-3.193-.951s-2.146 2.339-2.594 2.09c-.45-.248-.081-3.33-.081-3.33s-2.621-1.17-2.712-1.752c-.09-.583 3.063-1.176 3.063-1.176s.269-3.103.87-3.216M79.085 299.799c.682-.13 2.297 3.003 2.297 3.003s3.572-.763 3.775-.189c.204.575-2.146 3.113-2.146 3.113s1.707 2.995 1.347 3.532c-.36.537-3.623-1.08-3.623-1.08s-2.434 2.655-2.944 2.373c-.51-.281-.093-3.78-.093-3.78s-2.973-1.326-3.076-1.987c-.103-.661 3.476-1.335 3.476-1.335s.306-3.52.987-3.65m3.9-94.199c.682-.13 2.297 3.003 2.297 3.003s3.572-.764 3.775-.19c.204.575-2.146 3.112-2.146 3.112s1.707 2.995 1.347 3.534c-.36.536-3.623-1.08-3.623-1.08s-2.434 2.654-2.944 2.372c-.51-.28-.092-3.78-.092-3.78s-2.974-1.325-3.077-1.987c-.103-.66 3.476-1.334 3.476-1.334s.306-3.521.987-3.65m313.567-13.874c.604.341-.18 3.777-.18 3.777s3.223 1.719 3.008 2.29c-.215.57-3.647.994-3.647.994s-.626 3.39-1.248 3.57c-.62.179-2.074-3.16-2.074-3.16s-3.571.459-3.78-.085c-.208-.545 2.367-2.95 2.367-2.95s-1.42-2.93-1.072-3.502c.348-.572 3.518 1.22 3.518 1.22s2.503-2.494 3.108-2.154M107.602 324.77c.948-.18 3.196 4.18 3.196 4.18s4.972-1.064 5.255-.264c.283.8-2.987 4.332-2.987 4.332s2.374 4.168 1.874 4.916c-.5.747-5.042-1.502-5.042-1.502s-3.388 3.693-4.097 3.3c-.71-.391-.129-5.26-.129-5.26s-4.138-1.845-4.281-2.765c-.144-.92 4.837-1.857 4.837-1.857s.425-4.9 1.374-5.08m254.622 5.454c-.681-.13-2.296 3.002-2.296 3.002s-3.573-.763-3.776-.189c-.204.575 2.146 3.113 2.146 3.113s-1.706 2.995-1.347 3.532c.36.537 3.623-1.079 3.623-1.079s2.435 2.654 2.944 2.372c.51-.281.093-3.78.093-3.78s2.974-1.326 3.076-1.986c.103-.662-3.476-1.336-3.476-1.336s-.305-3.52-.987-3.65m29.115-33.353c-.949-.18-3.197 4.18-3.197 4.18s-4.972-1.064-5.254-.264c-.284.8 2.987 4.332 2.987 4.332s-2.375 4.168-1.875 4.916c.5.747 5.043-1.502 5.043-1.502s3.387 3.693 4.096 3.3c.71-.391.13-5.26.13-5.26s4.138-1.845 4.28-2.765c.144-.92-4.837-1.857-4.837-1.857s-.425-4.9-1.373-5.08M316.828 74.768c1.059.38.744 6.087.744 6.087s5.624 1.866 5.436 2.837c-.188.97-5.558 2.588-5.558 2.588s-.075 5.59-1.018 6.047c-.944.457-4.18-4.486-4.18-4.486s-5.584 1.712-6.066.9c-.48-.813 2.975-5.362 2.975-5.362s-3.068-4.297-2.668-5.306c.399-1.01 5.957.989 5.957.989s3.318-4.672 4.378-4.294m83.713 8.676c.56.243.185 3.325.185 3.325s2.983 1.214 2.846 1.733c-.136.52-3.106 1.206-3.106 1.206s-.24 3.027-.768 3.241c-.528.213-2.106-2.582-2.106-2.582s-3.089.73-3.32.272c-.233-.459 1.805-2.8 1.805-2.8s-1.511-2.441-1.258-2.974c.253-.533 3.194.75 3.194.75s1.966-2.415 2.528-2.171" fill="#FFFEFE"/><path d="M133.599 140.85c5.457 18.6 23.65 107.4 21.83 132.3 43.661-1.5 140.065-7.65 168.444-.45C335.516 228 343.9 129.75 343.9 129.75c-8.733-1.2-171.733-9-210.3 11.1" fill="#FFFFFE"/><path d="M340.448 270.45c-2.7-16.2.9-86.1 20.7-135.6-12.993-4.664-55.8-12-55.8-12 .3 26.1 8.1 83.7 26.1 98.4-17.4 17.4-21 41.4-21 41.4l30 7.8" fill="#E46E60"/><path d="M343.448 146.55c-5.55 17.1-11.25 61.8-6.3 74.7-4.5 18.15-7.8 36.15-6.75 42.9-3.45-.15-5.25-1.2-5.25-1.2.9-10.95 6.9-32.1 10.05-40.8-11.55 22.5-14.85 37.8-14.85 37.8-3.45-.9-5.25-1.5-5.25-1.5 1.5-9.9 13.35-29.25 18.3-36.45-15-21.45-19.95-56.4-18.45-87.9 8.1 1.5 9.15 2.7 9.15 2.7-1.65 12.15-5.1 61.8 10.8 83.25-7.8-38.1 4.05-79.65 4.05-79.65l4.5 6.15" fill="#ED9E94"/><path d="M335.402 222.737c-1.694 0-3.452-.316-5.007-1.115a.675.675 0 0 1 .617-1.2c3.917 2.011 9.364.47 10.461-.812a.674.674 0 1 1 1.025.88c-.976 1.137-3.924 2.247-7.096 2.247" fill="#FFFFFE"/><path d="M141.248 270.45c2.7-16.2-.9-86.1-20.7-135.6 15.658-5.845 55.8-12 55.8-12-.3 26.1-8.1 83.7-26.1 98.4 17.4 17.4 21 41.4 21 41.4l-30 7.8" fill="#E46E60"/><path d="M138.249 146.55c5.55 17.1 11.25 61.8 6.3 74.7 4.5 18.15 7.8 36.15 6.75 42.9 3.45-.15 5.25-1.2 5.25-1.2-.9-10.95-6.9-32.1-10.05-40.8 11.55 22.5 14.85 37.8 14.85 37.8 3.45-.9 5.25-1.5 5.25-1.5-1.5-9.9-13.35-29.25-18.3-36.45 15-21.45 19.95-56.4 18.45-87.9-8.1 1.5-9.15 2.7-9.15 2.7 1.65 12.15 5.1 61.8-10.8 83.25 7.8-38.1-4.05-79.65-4.05-79.65l-4.5 6.15" fill="#ED9E94"/><path d="M146.007 222.558c-3.297 0-6.398-1.046-7.371-2.181a.675.675 0 0 1 1.024-.88c1.047 1.221 7.154 2.742 11.16.684a.674.674 0 1 1 .618 1.2c-1.64.843-3.566 1.177-5.43 1.177M239.325 74.4h1.35V53.522h-1.35z" fill="#FFFFFE"/><path d="M238.673 42.687c8.185-8.133 20.463-4.82 20.656.264.18 4.745.818 8.322 10.737 4.857.193 1.205-4.43 4.896-6.548 5.573 3.081 1.883 4.815 1.507 8.955 1.205 1.426-.104-8.088 8.736-15.407 4.143-7.319-4.594-10.977-7.682-17.622-3.239-1.06-5.799-.77-12.803-.77-12.803m121.361 90.965c-25.301-7.903-94.536-37.494-114.355-58.184-3.447-3.447-5.111-6.944-5.657-7.014h-.046c-.546.07-2.21 3.567-5.657 7.014-19.82 20.69-89.054 50.281-114.355 58.184-3.917 1.223-2.516 3.354 1.341 1.844 36.046-4.505 110.323-6.253 118.694-6.438 8.372.185 82.648 1.933 118.694 6.438 2.598.52 5.258-.62 1.341-1.844" fill="#E46E60"/><path d="M231.429 89.419c-3.69 13.288-10.43 30.6-16.503 40.343 4.365-.144 8.343-.265 11.8-.363 5.296-9.748 9.94-28.367 13.133-40.28-2.84.035-5.668.135-8.43.3m-13.228 1.369c-5.204 5.16-11.488 10.643-18.74 16.304-13.249 10.341-27.614 19.586-37.654 25.03 7.095-.42 14.322-.792 21.383-1.118 7.232-4.692 14.987-10.147 22.461-15.982 7.667-5.983 17.357-17.364 24.656-25.533-4.283.283-8.387.721-12.106 1.3m22.065-1.674c3.189 11.913 7.712 30.535 13.007 40.284 3.458.098 7.436.219 11.801.363-6.219-9.975-12.77-27.154-16.384-40.53a175.276 175.276 0 0 0-8.424-.117m40.274 17.977c-7.501-5.854-13.973-11.52-19.277-16.833-3.798-.5-7.885-.832-12.08-1.006 7.365 8.17 17.185 19.54 25.166 25.77 7.474 5.834 15.229 11.289 22.46 15.981 7.062.326 14.289.698 21.384 1.118-10.04-5.444-24.405-14.689-37.653-25.03" fill="#ED9E94"/><path d="M268.518 92.276c-1.252-.75-2.478-1.5-3.673-2.247-15.53-2.614-37.168-1.986-50.947.778a242.714 242.714 0 0 1-4.232 2.547c13.895-3.917 41.736-4.927 58.852-1.078" fill="#FFFFFE"/><path d="M356.366 134.854c-2.865-.465-6.674-.903-10.487-1.394-1.905-.224-3.807-.411-5.592-.606-1.785-.187-3.451-.375-4.877-.49l-4.753-.42c-.298 4.307 1.04 8.844 3.41 12.39 1.19 1.762 2.633 3.315 4.274 4.474 1.642 1.16 3.49 1.905 5.485 2.138 3.975.507 7.867-1.291 11.001-4.147 3.135-2.89 5.549-6.98 6.31-11.23l-4.771-.715m-30.461-3.293c-2.85-.206-6.65-.502-10.445-.704l-5.575-.32-4.86-.225-3.438-.159-1.304-.048c-.102 4.311 1.436 8.776 3.981 12.226 1.274 1.722 2.802 3.186 4.516 4.242 1.714 1.054 3.607 1.745 5.632 1.859 4.048.216 7.845-1.727 10.793-4.849 2.94-3.13 5.018-7.337 5.452-11.64l-1.308-.116c-.832-.08-2.02-.16-3.444-.266m-40.78-1.912c-3.788-.102-7.571-.126-10.41-.179l-4.731-.041c.033 4.322 1.709 8.72 4.37 12.078 2.665 3.373 6.317 5.638 10.382 5.744 4.067.097 7.81-2.058 10.622-5.269 2.81-3.226 4.69-7.565 4.925-11.877 0 0-1.895-.065-4.737-.165-2.845-.115-6.632-.198-10.42-.291m-30.272-.24l-10.395.1-4.722.08c.14 4.315 1.921 8.687 4.67 11.964 2.752 3.287 6.467 5.497 10.545 5.462 4.074-.002 7.764-2.272 10.48-5.573 2.713-3.305 4.453-7.696 4.551-12.013l-4.729-.03-10.4.01m-30.224.52c-7.551.206-15.097.5-15.097.5.478 8.63 7.449 17.323 15.59 17.098 4.08-.119 7.72-2.431 10.358-5.822 2.635-3.372 4.265-7.797 4.256-12.116l-4.722.083-10.385.256m-30.187 1.158c-3.772.17-7.543.39-10.371.536l-4.714.273c.32 4.307 2.281 8.595 5.165 11.761 2.887 3.18 6.694 5.2 10.772 5.015 4.078-.202 7.67-2.6 10.238-6.03 2.564-3.435 4.1-7.899 4-12.213l-4.717.192c-2.83.113-6.601.279-10.373.466m-30.169 1.78c-3.77.255-7.544.555-10.373.769l-4.72.389c.429 4.297 2.5 8.541 5.456 11.632 2.96 3.108 6.802 5.048 10.871 4.772 4.066-.296 7.608-2.753 10.101-6.248 2.493-3.48 3.938-7.97 3.75-12.285l-4.714.281c-2.829.187-6.6.415-10.37.69m-30.234 2.58c7.597-.802 15.14-1.422 15.14-1.422.298 4.306-1.039 8.83-3.43 12.384-2.395 3.547-5.845 6.118-9.85 6.546-4.02.416-7.83-1.367-10.927-4.283-1.548-1.444-2.924-3.199-4.093-5.06-1.167-1.874-2.116-3.913-2.6-6.018l1.49-.278c.994-.199 2.194-.362 3.701-.594 2.942-.41 6.774-.885 10.569-1.275" fill="#ED9E94"/><path d="M118.522 137.711a1.125 1.125 0 0 1-.23-2.226c9.148-1.925 49.762-5.505 99.264-6.94 42.144-1.22 101.3-1.228 143.796 5.673a1.125 1.125 0 1 1-.36 2.221c-42.323-6.873-101.325-6.863-143.371-5.645-49.373 1.43-89.797 4.984-98.866 6.893a1.11 1.11 0 0 1-.233.024m26.778 84.814a.67.67 0 0 1-.13-.013c-26.52-5.174-39.622-27.38-47.45-40.649-2.896-4.91-5.185-8.788-6.728-9.156a.675.675 0 1 1 .312-1.313c2.103.5 4.281 4.193 7.58 9.783 7.712 13.072 20.62 34.952 46.544 40.01a.675.675 0 0 1-.129 1.338" fill="#FFFFFE"/><path d="M65.53 158.053c-4.84-10.58-.691-20.389 8.297-24.027 8.989-3.638 19.414.273 24.252 10.853 4.634 10.128.345 23.26-5.987 26.777.924.705 2.45 1.489 2.385 1.927-.076.499-3.61 2.398-4.357 1.763.133-.728.266-2.074.347-3.005-7.378 2.214-20.262-4.07-24.937-14.288" fill="#E26185"/><path d="M142.017 221.906a.672.672 0 0 1-.264-.054c-25.405-10.778-29.557-33.31-33.573-55.1-1.905-10.34-3.874-21.03-8.113-30.25a.675.675 0 1 1 1.227-.564c4.309 9.373 6.294 20.149 8.214 30.569 3.95 21.44 8.036 43.608 32.773 54.103a.675.675 0 0 1-.264 1.296" fill="#FFFFFE"/><path d="M82.95 119.73c-1.053-10.805 5.937-18.556 15.4-19.479 9.463-.92 17.816 5.337 18.869 16.142 1.007 10.342-7.183 21.054-14.158 22.562.625.877 1.78 1.983 1.578 2.36-.229.431-4.103 1.217-4.586.448.358-.62.912-1.799 1.29-2.616-7.52.06-17.377-8.983-18.393-19.418" fill="#E46E60"/><path d="M95.367 115.987a2.074 2.074 0 1 0 1.463 3.882 2.074 2.074 0 0 0-1.463-3.882m8.113 16.369a2.074 2.074 0 1 0-3.882 1.46 2.074 2.074 0 0 0 3.882-1.46m-.595-10.594a2.074 2.074 0 1 0 1.459 3.882 2.074 2.074 0 0 0-1.46-3.882m-8.131 7.49a2.074 2.074 0 1 0-1.46-3.882 2.074 2.074 0 0 0 1.46 3.882m-8.112-16.37a2.074 2.074 0 1 0 3.883-1.46 2.074 2.074 0 0 0-3.883 1.46m12.262-2.396a2.074 2.074 0 1 0-1.46-3.883 2.074 2.074 0 0 0 1.46 3.883m-7.516-5.776a2.073 2.073 0 0 0 1.211-2.67c-.035-.093-.082-.176-.129-.26a16.235 16.235 0 0 0-3.46 2.234 2.067 2.067 0 0 0 2.378.696m21.952 6.733a2.074 2.074 0 0 0 3.064 1.012 17.837 17.837 0 0 0-1.505-3.775 2.044 2.044 0 0 0-.348.092 2.074 2.074 0 0 0-1.21 2.67m-26.104 12.035a2.074 2.074 0 1 0-1.46-3.883 2.074 2.074 0 0 0 1.46 3.883m18.587-17.81a2.074 2.074 0 1 0 3.883-1.46 2.074 2.074 0 0 0-3.883 1.46m6.652 12.488a2.073 2.073 0 1 0 1.46 3.881 2.073 2.073 0 0 0-1.46-3.881m-7.516-5.776a2.074 2.074 0 1 0 1.46 3.882 2.074 2.074 0 0 0-1.46-3.882m5.44 15.158a2.075 2.075 0 1 0 1.463 3.884 2.075 2.075 0 0 0-1.462-3.884M99.307 100.09a18.44 18.44 0 0 1 2.743.081c-.23.413-.594.754-1.072.933a2.068 2.068 0 0 1-2.543-.953c.287-.027.578-.047.872-.061" fill="#ED9E94"/><path d="M144.848 222.075a.673.673 0 0 1-.447-.17c-11.78-10.425-20.136-23.816-24.838-39.802-3.495-11.884-4.775-25.225-3.51-36.602a.675.675 0 1 1 1.341.15c-2.359 21.23 3.533 53.676 27.902 75.243a.675.675 0 0 1-.448 1.18" fill="#FFFFFE"/><path d="M104.802 122.417c2.198-10.916 10.924-16.184 19.932-13.949 9.008 2.235 14.886 11.123 12.687 22.04-2.104 10.45-12.807 18.212-19.688 17.378.319 1.064 1.06 2.53.763 2.833-.34.343-4.145-.172-4.366-1.085.513-.487 1.372-1.456 1.959-2.132-6.961-2.432-13.41-14.542-11.287-25.085" fill="#5BC1E3"/><path d="M336.99 222.532a.675.675 0 0 1-.123-1.339c25.317-4.773 35.2-24.475 46.642-47.287 4.834-9.636 9.832-19.6 16.334-28.939a.674.674 0 1 1 1.108.771c-6.447 9.26-11.423 19.18-16.235 28.773-11.12 22.171-21.625 43.112-47.6 48.01a.667.667 0 0 1-.125.01" fill="#FFFFFE"/><path d="M413.722 144.47c2.816-10.006-2.463-18.494-11.227-20.961-8.764-2.467-17.696 2.02-20.513 12.027-2.697 9.579 3.215 21.06 9.534 23.66-.737.721-2.013 1.568-1.887 1.958.144.445 3.663 1.84 4.248 1.197-.233-.646-.556-1.85-.774-2.684 7.079 1.326 17.898-5.532 20.619-15.196" fill="#5BC1E3"/><path d="M336.966 222.48a.675.675 0 0 1-.448-1.18c14.578-12.903 23.04-32.074 27.572-45.883 5.145-15.676 7.73-32.454 6.586-42.742a.676.676 0 0 1 1.343-.15c1.163 10.466-1.446 27.467-6.646 43.313-4.584 13.968-13.156 33.37-27.96 46.472a.673.673 0 0 1-.447.17" fill="#FFFFFE"/><path d="M384.539 105.064c-2.512-12.47-12.48-18.486-22.77-15.933-10.29 2.552-17.005 12.706-14.492 25.175 2.403 11.938 14.63 20.805 22.49 19.851-.364 1.217-1.211 2.89-.872 3.236.388.393 4.734-.195 4.988-1.237-.586-.558-1.567-1.664-2.238-2.436 7.952-2.779 15.318-16.612 12.894-28.656" fill="#E26185"/><path fill="#FFFFFE" d="M130.949 269.236l-13.704-31.24 2.862-1.255 13.7 31.24-2.858 1.255"/><path d="M126.168 223.039c2.836 6.47-.107 14.015-6.579 16.854-6.47 2.837-14.014-.107-16.852-6.578-2.839-6.47.105-14.016 6.576-16.853 6.471-2.839 14.015.105 16.855 6.577" fill="#E26185"/><path fill="#FFFFFE" d="M136.41 278.066l-2.246-31.353 2.871-.207 2.243 31.355-2.868.205"/><path d="M146.53 236.483c.463 6.494-4.422 12.134-10.917 12.6-6.493.465-12.134-4.422-12.6-10.916-.465-6.494 4.422-12.136 10.916-12.6 6.495-.465 12.135 4.421 12.601 10.916" fill="#5BC1E3"/><path fill="#FFFFFE" d="M118.226 297.324l-25.878-28.041 2.285-2.131 25.875 28.043-2.282 2.129"/><path d="M112.493 256.43c-1.375-5.605 3.749-8.705 5.966-8.457 1.488 7.715-5.823 9.228-5.966 8.457m-17.17 9.012c.369-2.2 4.754-6.28 9.767-3.422.702.348-2.755 6.966-9.768 3.422m14.114-17.35c-2.75 5.024-5.945 7.436-11.529 8.704-6.654 1.51-11.305 8.368-8.93 10.856 2.067 2.448 6.877 4.965 12.972 3.876 6.09-1.088 6.078-9.024 8.136-10.59 2.07-1.55 9.7.635 12.414-4.926 2.715-5.564 1.612-10.879-.175-13.537-1.745-2.965-9.612-.37-12.888 5.616" fill="#5BC1E3"/><path fill="#FFFFFE" d="M342.702 264.994l14.215-29.096 2.664 1.302-14.216 29.094-2.663-1.3"/><path d="M373.224 233.181c-2.945 6.026-10.215 8.523-16.242 5.58-6.026-2.944-8.523-10.215-5.58-16.241 2.944-6.026 10.216-8.525 16.241-5.582 6.029 2.946 8.525 10.217 5.581 16.243" fill="#E26185"/><path fill="#FFFFFE" d="M345.345 270.155l1.506-26.192 2.4.138-1.51 26.192-2.396-.138"/><path d="M358.185 236.825c-.314 5.424-4.964 9.568-10.39 9.255-5.424-.312-9.567-4.962-9.255-10.387.312-5.424 4.962-9.569 10.387-9.255a9.837 9.837 0 0 1 9.258 10.387" fill="#5BC1E3"/><path fill="#FFFFFE" d="M347.569 278.985l15.861-28.232 2.585 1.452-15.863 28.23-2.583-1.45"/><path d="M383.25 261.184c4.298-3.851 9.445-.788 10.27 1.284-6.107 4.945-10.882-.796-10.27-1.284zm-16.031-10.911c2.115-.71 7.78 1.24 7.616 7.01.023.781-7.443.846-7.616-7.01zm21.952 4.289c-5.728-.062-9.36-1.746-13.107-6.077-4.464-5.16-12.702-6.037-13.781-2.77-1.187 2.975-1.145 8.403 2.684 13.269 3.826 4.863 10.822 1.116 13.173 2.196 2.341 1.097 4.004 8.857 10.188 8.635 6.187-.221 10.358-3.696 11.862-6.524 1.795-2.935-4.196-8.655-11.02-8.73z" fill="#E46E60"/><path d="M362.883 247.32c2.475-.9 8.1-.225 11.587 2.025-.675-3.937-7.987-5.287-10.237-4.162-2.138.787-1.35 2.137-1.35 2.137" fill="#ED9E94"/><path d="M104.522 290.937s19.78-8.67 33.056-12.734l17.884 33.782s-18.967 6.065-33.056 15.27l-.814-22.498-17.07-13.82m270.956 0s-19.78-8.67-33.056-12.734l-17.885 33.782s18.968 6.065 33.057 15.27l.813-22.498 17.071-13.82" fill="#5BC1E3"/><path d="M240.174 249.753c-36.773-.007-79.574 5.39-125.55 21.466l22.019 38.317s44.259-17.48 103.53-18.796c59.272 1.317 103.534 18.796 103.534 18.796l22.017-38.317c-45.976-16.076-88.777-21.474-125.55-21.466" fill="#207AA0"/></g></svg>