<svg width="480" height="360" viewBox="0 0 480 360" xmlns="http://www.w3.org/2000/svg"><g fill="none"><path fill="#008CB4" d="M-16.08-10.586h537.235v183.601H-16.08z"/><g opacity=".4"><path d="M426.414 8.407c.06.355.296.592.65.71.414.06 9.752-.118 10.225-.177.296-.473.473-1.006.414-1.539v-8.875a1.176 1.176 0 0 0-.414-1.065c-1.3-.355-10.224.118-10.815.473-.178.415-.296 9.822-.06 10.473z" fill="#00A0B4"/><path d="M392.667 6.75c-.118 7.22-.177 22.248.06 22.721.118.355.472.592.827.651.532.06 12.53-.118 13.12-.177.355-.355.591-.888.532-1.42V6.75h-14.539z" fill="#78C8C8"/><path d="M348.755 26.631c-.532-1.301-1.892-2.13-3.31-2.07h-.355c-1.004-.06-2.009.236-2.896.828-.118.118-.295.177-.472.296a2.387 2.387 0 0 0-.769.769c-.709 1.065-1.004 2.307-.945 3.55 0 .947.413 1.893 1.182 2.485 1.773 1.538 4.432 1.716 6.383.355a2.506 2.506 0 0 0 1.004-1.065c.946-1.538 1.005-3.491.178-5.148z" fill="#00A0B4"/><path d="M458.684 16.868c-.591 2.781 0 5.858-3.9 6.272-3.901.415-4.374-3.254-4.433-6.272-.06-2.603.177-7.277 3.664-7.691 4.255-.592 4.373 4.97 4.669 7.691z" fill="#AADCDC"/><path d="M329.96 6.04c-.59 2.782 0 5.858-3.9 6.272-3.901.415-4.374-3.195-4.433-6.271-.06-2.604.177-7.278 3.723-7.692 4.138-.592 4.315 4.97 4.61 7.692z" fill="#78C8C8"/><path d="M376.946 27.341c.178 1.243-.177 2.485-.945 3.491a2.98 2.98 0 0 1-2.483 1.361c-.295 0-.59-.059-.886 0-3.073.119-4.906-3.313-4.137-5.858.473-1.893 1.773-3.431 3.605-4.141 1.123-.474 2.423-.237 3.191.71 1.123 1.301 2.069 2.662 1.655 4.437z" fill="#00A0B4"/><path d="M408.388 37.4c.178-3.964 2.542-5.443 4.729-5.562 2.482-.118 5.082 2.485 4.846 5.858-.177 2.958-2.364 5.03-4.492 5.266-2.541.296-5.2-1.598-5.083-5.562z" fill="#78C8C8"/><path d="M287.23 24.324c.177-3.965 2.541-5.444 4.728-5.562 2.482-.118 5.083 2.485 4.846 5.858-.177 2.958-2.364 5.029-4.491 5.266-2.542.236-5.201-1.598-5.083-5.562zm16.371-14.378c.118-2.9 1.891-4.024 3.487-4.083 1.832-.118 3.723 1.834 3.605 4.32-.118 2.189-1.714 3.727-3.31 3.905-1.89.177-3.9-1.184-3.782-4.142z" fill="#006482"/><path d="M282.56 29.708c-.117 2.9-1.89 4.024-3.486 4.083-1.832.118-3.724-1.834-3.546-4.32.118-2.189 1.714-3.727 3.31-3.905 1.89-.177 3.841 1.184 3.723 4.142z" fill="#78C8C8"/><path d="M311.166 22.963c.236-5.325 3.369-7.278 6.324-7.455 3.31-.178 6.797 3.313 6.501 7.869-.236 3.964-3.132 6.804-6.028 7.1-3.487.296-7.033-2.189-6.797-7.514zm106.856 25.324c.236-5.325 3.428-7.278 6.324-7.455 3.369-.178 6.797 3.313 6.501 7.87-.236 3.964-3.132 6.804-6.028 7.1-3.428.355-7.033-2.19-6.797-7.515z" fill="#006482"/><path d="M351.71 20.537c.177-3.964 2.541-5.444 4.728-5.562 2.482-.118 5.083 2.485 4.846 5.858-.177 2.958-2.364 5.088-4.55 5.325-2.542.177-5.201-1.657-5.024-5.621zm71.513.177l-9.22-19.584-.591 19.821z" fill="#AADCDC"/><path d="M455.67 64.854c-.591 2.722-.118 6.213-4.315 6.036-3.841-.119-3.841-4.201-3.723-7.16.118-2.367.414-5.62 3.31-6.213 4.314-.769 4.432 4.616 4.728 7.337zM262.762 56.57c-.828 3.728 0 7.988-5.32 8.521-5.319.533-5.91-4.378-6.028-8.52-.059-3.61.237-9.881 5.024-10.532 5.674-.71 5.91 6.863 6.324 10.532z" fill="#006482"/><path d="M332.384 74.025c-.769 3.669 0 7.81-5.201 8.343-5.201.533-5.792-4.32-5.91-8.343-.06-3.55.236-9.703 4.905-10.295 5.555-.71 5.792 6.686 6.206 10.295z" fill="#AADCDC"/><path d="M240.894 42.725c-.06-.355-.295-.591-.65-.71-.414-.059-9.752.119-10.284.178-.295.473-.473 1.006-.413 1.538v8.875c-.06.415.118.829.413 1.065 1.3.355 10.225-.118 10.816-.473.177-.414.295-9.822.118-10.473zm-96.749-41.24a.753.753 0 0 0-.65-.651c-.414-.06-9.752.118-10.284.177-.296.474-.473 1.006-.414 1.539v8.875c-.06.414.118.828.414 1.065 1.3.355 10.224-.118 10.815-.473.178-.415.296-9.882.119-10.532z" fill="#78C8C8"/><path d="M383.743 84.676a.75.75 0 0 0 .65.65c.414.06 9.752-.118 10.225-.177.295-.473.472-1.006.413-1.538V56.63a1.09 1.09 0 0 0-.472-1.065c-1.3-.355-10.225.118-10.816.473-.118.414-.177 27.987 0 28.638zM208.329.183c-.06 9.644-.06 29.82 0 30.472.06.414.118.769.296.828 1.418 0 2.836-.059 4.255-.237.118-.65.177-1.242.177-1.893V.183h-4.728z" fill="#00A0B4"/><path d="M445.682 27.933c-.06 7.219-.06 22.247 0 22.72.059.297.118.593.295.652.177.059 4.019-.119 4.255-.178.119-.473.178-.947.178-1.42V27.933h-4.728z" fill="#78C8C8"/><path d="M482.147 53.73c-.413 2.012-.059 4.616-3.191 4.497-2.896-.118-2.837-3.136-2.778-5.325.06-1.775.296-4.2 2.482-4.615 3.192-.65 3.25 3.373 3.487 5.444z" fill="#006482"/><path d="M460.989 45.092c.295 1.006.295 2.13.059 3.136a2.752 2.752 0 0 1-2.955 2.426c-.827-.119-1.596-.592-2.01-1.302-.827-1.124-.886-2.603-.177-3.846.118-.177.177-.355.296-.532a3.283 3.283 0 0 1 2.482-1.598c.71-.06 1.477.237 1.891.888.06.236.237.532.414.828zm-106.974-5.976c.295 1.006.295 2.13.059 3.136a2.954 2.954 0 0 1-2.66 2.426c-.945-.06-1.832-.533-2.305-1.302-.827-1.124-.886-2.603-.177-3.846.118-.177.177-.355.296-.532a3.283 3.283 0 0 1 2.482-1.598c.709-.06 1.477.237 1.891.888.06.236.236.532.414.828zm103.901 49.879c.295 1.006.295 2.13.059 3.136-.178 1.48-1.478 2.544-2.955 2.367-.828-.118-1.596-.592-2.01-1.302-.827-1.124-.886-2.603-.177-3.846.118-.177.177-.355.295-.532a3.283 3.283 0 0 1 2.483-1.598c.709-.06 1.477.237 1.89.888.06.355.237.65.415.887z" fill="#78C8C8"/><path d="M442.726 79.469c.296 1.006.296 2.13.06 3.136-.237 1.36-1.3 2.308-2.66 2.426-.946-.06-1.832-.533-2.305-1.302-.827-1.124-.886-2.603-.177-3.846.118-.177.177-.355.295-.532a3.283 3.283 0 0 1 2.483-1.598c.709-.06 1.477.237 1.89.888.119.295.237.591.414.828z" fill="#AADCDC"/><path d="M481.143 92.072c.295 1.006.295 2.13.059 3.136-.237 1.36-1.3 2.307-2.66 2.426-.945-.06-1.832-.533-2.305-1.302-.827-1.124-.886-2.603-.177-3.846.118-.177.177-.355.295-.532a3.283 3.283 0 0 1 2.483-1.598c.709-.06 1.477.237 1.89.888.12.295.237.591.415.828zm-13.239 6.745c.295 1.006.295 2.13.059 3.136-.177 1.48-1.478 2.544-2.955 2.367-.828-.118-1.596-.592-2.01-1.302-.827-1.124-.886-2.603-.177-3.846.118-.177.177-.355.296-.532a3.283 3.283 0 0 1 2.482-1.598c.71-.06 1.477.237 1.891.888.06.355.237.591.414.887z" fill="#00A0B4"/><path d="M471.273 55.86c.295 1.007.295 2.13.059 3.137a2.752 2.752 0 0 1-2.955 2.426c-.828-.119-1.596-.592-2.01-1.302-.827-1.124-.886-2.604-.177-3.846.118-.178.177-.355.295-.533a3.283 3.283 0 0 1 2.483-1.597 2.17 2.17 0 0 1 1.89.887c.06.296.237.533.415.829zm-57.979 29.408c.295 1.005.295 2.13.059 3.135a2.954 2.954 0 0 1-2.66 2.426c-.945-.059-1.832-.532-2.305-1.301-.827-1.125-.886-2.604-.177-3.846.118-.178.177-.355.296-.533a3.283 3.283 0 0 1 2.482-1.597c.71-.06 1.477.236 1.891.887.06.296.237.533.414.829zM314.18 51.837c.296 1.006.296 2.13.06 3.136a2.752 2.752 0 0 1-2.956 2.426c-.827-.118-1.596-.592-2.01-1.302-.827-1.124-.886-2.603-.177-3.846.119-.177.178-.355.296-.532a3.283 3.283 0 0 1 2.482-1.598 2.17 2.17 0 0 1 1.891.888c.06.296.237.592.414.828z" fill="#78C8C8"/><path d="M242.135 5.39c.296 1.006.296 2.13.06 3.136-.237 1.36-1.3 2.307-2.66 2.426-.946-.06-1.832-.533-2.305-1.302-.828-1.124-.887-2.604-.178-3.846.119-.178.178-.355.296-.533.532-.887 1.418-1.479 2.423-1.597.71-.06 1.478.237 1.832.887.237.296.355.533.532.829z" fill="#006482"/><path d="M409.098 71.836c.177 1.243-.178 2.485-.946 3.491-.591.829-1.537 1.361-2.541 1.361h-.887c-3.132.118-5.024-3.313-4.255-5.858.473-1.893 1.832-3.49 3.664-4.141 1.123-.474 2.423-.237 3.25.71 1.183 1.242 2.128 2.603 1.715 4.437z" fill="#78C8C8"/><path d="M474.819 79.173c-.178-1.242.177-2.485.945-3.49.591-.83 1.537-1.362 2.542-1.362.295 0 .59.06.886 0 3.133-.118 5.024 3.314 4.256 5.858-.473 1.893-1.833 3.491-3.665 4.142-1.123.473-2.423.237-3.25-.71-1.182-1.243-2.128-2.604-1.714-4.438z" fill="#AADCDC"/><path d="M393.79 45.033c.178-3.965 2.542-5.444 4.728-5.562 2.483-.118 5.083 2.485 4.847 5.858-.178 2.958-2.364 5.088-4.492 5.266-2.6.236-5.26-1.657-5.083-5.562z" fill="#78C8C8"/><path d="M244.263 42.015c.177-3.964 2.541-5.443 4.728-5.562 2.482-.118 5.083 2.485 4.846 5.858-.177 2.958-2.364 5.03-4.491 5.266-2.6.237-5.26-1.598-5.083-5.562zm38.534 18.815c.118-2.898 1.891-4.023 3.487-4.082 1.832-.118 3.724 1.834 3.605 4.32-.118 2.189-1.714 3.727-3.31 3.905-1.89.118-3.9-1.243-3.782-4.142z" fill="#00A0B4"/><path d="M335.457 53.73c.236-5.325 3.428-7.277 6.324-7.455 3.369-.177 6.796 3.314 6.5 7.87-.236 3.964-3.131 6.804-6.087 7.1-3.368.296-6.914-2.19-6.737-7.514z" fill="#AADCDC"/><path fill="#006482" d="M469.972 71.008l-19.562 9.23 19.799.533zM262.289 22.785l-12.352 9.23 12.588.533z"/><path d="M425.469 26.572c0 3.491.059 6.095.118 6.272.118.355.473.592.827.65.532.06 12.53-.117 13.121-.177.355-.355.591-.887.532-1.42v-5.325h-14.598z" fill="#AADCDC"/><path d="M414.476 64.085c.118-2.307 1.477-3.136 2.719-3.195 1.418-.06 2.896 1.42 2.777 3.373-.059 1.479-1.123 2.78-2.6 3.076-1.478.119-3.014-1.005-2.896-3.254zm19.444-7.455c.119-2.308 1.478-3.136 2.719-3.195 1.418-.06 2.896 1.42 2.778 3.372-.06 1.48-1.123 2.781-2.6 3.077-1.42.118-2.956-.947-2.897-3.254z" fill="#00A0B4"/><path d="M374.405 59.647c.118-2.307 1.477-3.135 2.719-3.195 1.418-.059 2.955 1.42 2.777 3.373-.059 1.48-1.123 2.78-2.6 3.077-1.419.118-2.955-.947-2.896-3.255z" fill="#78C8C8"/><path d="M327.95 33.672c.12-2.307 1.478-3.136 2.72-3.195 1.418-.059 2.896 1.42 2.777 3.373-.059 1.48-1.123 2.78-2.6 3.077-1.419.118-2.955-1.006-2.896-3.255zm-79.195-22.247c.118-2.308 1.477-3.136 2.718-3.195 1.419-.06 2.896 1.42 2.778 3.372-.06 1.48-1.123 2.781-2.6 3.018-1.478.178-3.015-.887-2.896-3.195zm-50.178 23.253c.118-2.307 1.478-3.136 2.719-3.195 1.418-.118 2.955 1.42 2.778 3.373-.06 1.479-1.123 2.78-2.6 3.077-1.478.118-3.015-.947-2.897-3.255zM187.643 7.756c.119-2.307 1.478-3.135 2.72-3.195 1.418-.118 2.895 1.42 2.777 3.373-.06 1.48-1.123 2.78-2.6 3.077-1.478.118-3.015-.947-2.897-3.255zM185.28 37.34c.118-2.307 1.477-3.135 2.718-3.194 1.418-.119 2.896 1.42 2.778 3.372-.06 1.48-1.123 2.781-2.6 3.077-1.478.118-3.015-.947-2.897-3.254zm-23.05-22.483c.118-2.308 1.477-3.136 2.718-3.195 1.419-.119 2.896 1.42 2.778 3.372-.059 1.48-1.123 2.781-2.6 3.018-1.478.177-3.015-.888-2.896-3.195zm220.035.177c.119-2.307 1.478-3.136 2.72-3.195 1.418-.059 2.895 1.42 2.777 3.373-.06 1.538-1.123 2.78-2.6 3.077-1.478.118-3.015-.947-2.897-3.255zM264.417 40.95c.118-2.307 1.477-3.136 2.718-3.195 1.419-.06 2.896 1.42 2.778 3.373-.06 1.479-1.123 2.78-2.6 3.076-1.419.119-2.956-1.005-2.896-3.254zM220.74 28.466c.119-2.308 1.478-3.136 2.719-3.196 1.418-.059 2.896 1.42 2.778 3.373-.06 1.48-1.123 2.781-2.6 3.077-1.478.118-3.015-.947-2.897-3.254zm-8.865 13.608c.118-2.307 1.478-3.136 2.719-3.195 1.418-.118 2.896 1.42 2.778 3.373-.06 1.48-1.123 2.78-2.6 3.077-1.478.118-3.015-.947-2.897-3.255zm78.605 12.13c.178-3.964 2.542-5.444 4.729-5.562 2.482-.118 5.082 2.485 4.846 5.858-.177 2.958-2.364 5.088-4.492 5.266-2.6.296-5.26-1.598-5.083-5.562zm67.2-5.384c.176-3.965 2.54-5.444 4.727-5.562 2.482-.119 5.083 2.485 4.847 5.857-.178 2.959-2.365 5.089-4.492 5.266-2.6.237-5.26-1.597-5.083-5.561zm-14.304 25.62c.178-3.965 2.542-5.444 4.729-5.562 2.482-.119 5.082 2.485 4.846 5.857-.177 2.959-2.364 5.089-4.492 5.267-2.541.295-5.2-1.598-5.083-5.562zm87.884-4.616c.178-3.964 2.542-5.443 4.729-5.561 2.482-.119 5.083 2.485 4.846 5.857-.177 2.959-2.364 5.089-4.492 5.266-2.54.296-5.2-1.597-5.082-5.562z" fill="#00A0B4"/><path d="M361.225 74.617c.177-5.325 2.542-7.337 4.787-7.514 2.542-.178 5.142 3.372 4.906 7.87-.177 3.963-2.364 6.863-4.551 7.159-2.6.355-5.32-2.19-5.142-7.515zm69.74 18.579c.118-2.9 1.36-3.964 2.6-4.082 1.36-.119 2.778 1.834 2.66 4.26-.118 2.13-1.3 3.668-2.482 3.846-1.418.177-2.896-1.184-2.778-4.024zM198.4 15.98c.059-2.898 1.36-3.963 2.6-4.023 1.36-.118 2.778 1.776 2.66 4.26-.118 2.13-1.3 3.67-2.482 3.847-1.419.177-2.837-1.184-2.778-4.083z" fill="#AADCDC"/><path d="M366.13 6.396c.178-3.965 2.542-5.444 4.729-5.562 2.482-.119 5.083 2.485 4.846 5.857-.177 2.959-2.364 5.089-4.492 5.266-2.541.237-5.2-1.656-5.082-5.561z" fill="#006482"/><path d="M126.887 23.614c.177-3.965 2.541-5.444 4.728-5.562 2.482-.118 5.083 2.485 4.846 5.858-.177 2.958-2.364 5.029-4.491 5.266-2.542.295-5.26-1.598-5.083-5.562z" fill="#00A0B4"/><path d="M177.537 22.134c.177-3.964 2.541-5.443 4.728-5.561 2.482-.119 5.083 2.485 4.846 5.857-.177 2.959-2.364 5.03-4.491 5.266-2.6.237-5.26-1.656-5.083-5.562z" fill="#006482"/><path d="M100.587 13.437c.177-3.965 2.54-5.444 4.728-5.562 2.482-.119 5.082 2.485 4.846 5.858-.177 2.958-2.364 5.088-4.492 5.266-2.6.236-5.26-1.598-5.082-5.562zm200.532 29.407c.177-3.965 2.541-5.444 4.728-5.562 2.482-.119 5.083 2.485 4.846 5.857-.177 2.959-2.364 5.089-4.492 5.266-2.54.237-5.2-1.597-5.082-5.561z" fill="#00A0B4"/><path d="M171.272 6.04C171.45 2.077 173.814.598 176 .48c2.483-.119 5.083 2.485 4.847 5.857-.178 2.959-2.364 5.089-4.492 5.266-2.541.296-5.201-1.597-5.083-5.561z" fill="#AADCDC"/><path d="M419.5 78.936c.177-3.964 2.54-5.443 4.728-5.561 2.482-.119 5.082 2.485 4.846 5.857-.177 2.959-2.364 5.089-4.492 5.266-2.6.237-5.26-1.597-5.083-5.562z" fill="#00A0B4"/><path d="M263.353 12.194c.177-3.195 2.541-4.378 4.728-4.497 2.482-.118 5.083 2.012 4.846 4.734-.177 2.367-2.364 4.082-4.492 4.26-2.6.177-5.26-1.302-5.082-4.497z" fill="#AADCDC"/><path d="M431.674 16.513c.178-3.195 2.542-4.378 4.729-4.496 2.482-.119 5.082 2.011 4.846 4.733-.177 2.367-2.364 4.083-4.492 4.26-2.6.178-5.26-1.301-5.083-4.497zM321.332 47.518c.177-3.195 2.54-4.379 4.728-4.497 2.482-.118 5.082 2.012 4.846 4.734-.177 2.366-2.364 4.082-4.492 4.26-2.6.177-5.26-1.302-5.082-4.497z" fill="#78C8C8"/><path d="M332.975 15.034c.236-3.964 3.605-5.443 6.678-5.562 3.546-.118 7.21 2.485 6.856 5.858-.237 2.959-3.369 5.089-6.383 5.266-3.605.296-7.388-1.597-7.151-5.562zm-115.367-1.361c.236-3.964 3.605-5.443 6.678-5.561 3.547-.119 7.152 2.485 6.856 5.857-.236 2.959-3.31 5.089-6.383 5.266-3.605.237-7.387-1.597-7.151-5.562z" fill="#AADCDC"/><path d="M471.39 34.915c.237-3.964 3.606-5.444 6.68-5.562 3.545-.118 7.15 2.485 6.855 5.858-.236 2.958-3.369 5.03-6.383 5.266-3.605.236-7.388-1.598-7.151-5.562z" fill="#00A0B4"/><path d="M283.034 47.991c-.591 2.781 0 5.858-3.901 6.213-3.9.355-4.374-3.195-4.433-6.272-.059-2.663.178-7.278 3.665-7.692 4.255-.532 4.373 5.03 4.669 7.751z" fill="#006482"/><path d="M244.204 23.673c-.591 2.78 0 5.858-3.901 6.213-3.9.355-4.373-3.255-4.433-6.272-.059-2.604.178-7.278 3.665-7.692 4.196-.474 4.373 5.088 4.669 7.75z" fill="#AADCDC"/><path d="M385.87 43.08c-.59 2.781 0 5.858-3.9 6.272-3.9.414-4.374-3.254-4.433-6.272-.059-2.662.178-7.278 3.665-7.692 4.196-.532 4.373 5.03 4.669 7.692zM287.88 8.703c-.591 2.781 0 5.858-3.9 6.272-3.901.414-4.374-3.254-4.433-6.272-.06-2.603.177-7.278 3.664-7.692 4.196-.532 4.373 5.03 4.669 7.692zM93.258 4.976c-.591 2.78 0 5.857-3.9 6.271-3.902.415-4.374-3.254-4.433-6.271-.06-2.604.177-7.278 3.664-7.692 4.196-.592 4.373 4.97 4.669 7.692z" fill="#006482"/><path d="M156.674 26.454c-.59 2.78 0 5.858-3.9 6.213-3.901.355-4.374-3.255-4.374-6.272-.06-2.663.177-7.278 3.664-7.692 4.137-.533 4.315 5.029 4.61 7.75zM466.485 4.029c-.059 7.218-.059 22.247 0 22.72.06.296.119.592.296.652.177.059 4.019-.119 4.255-.178.118-.473.178-.947.178-1.42V4.029h-4.729z" fill="#AADCDC"/></g><path fill="#78C8C8" d="M132.62 24.146L-10.347-6.267v41.714L133.92 68.582l15.603-21.537z"/><path fill="#AADCDC" d="M388.767 130.413l19.74-25.856-21.04-22.189L132.62 24.146l1.3 44.436z"/><path fill="#78C8C8" d="M485.102 103.847l-97.636-21.479-.236 49.347 97.872 21.774z"/><path fill="#78C8C8" d="M411.225 115.089L313.59 93.61l-.236 42.661 97.872 23.253z"/><path fill="#00A0B4" d="M538.885 129.88l-97.636-21.477-.236 42.66 97.872 23.253zM224.464 74.854l-97.636-21.478-.237 42.66 97.873 23.254zm137.706 39.051l-97.635-23.253-.237 42.66 97.873 23.254z"/><path fill="#78C8C8" d="M165.953 51.186L68.317 29.708l-.236 42.66 97.872 23.254z"/><path fill="#00A0B4" d="M74.345 28.702L-23.29 7.224l-.236 42.66 97.872 23.254z"/><path fill="#008CB4" d="M24.109 30.477L-73.527 9l-.237 42.66L24.11 74.914z"/><path fill="#A0AA1E" d="M-5.125 35L.137 378.712l493.187 2.72-2.424-229.95z"/><path fill="#828C00" d="M-3.352 43.278l501.347 117.665-.592-7.687L-5.125 35zm-16.849 47.775l131.603 35.063L-26.94 251.172z"/><path d="M222.077 148.171c-3.784-1.892-101.925-29.268-103.817-28.5-4.138 1.656-8.217 3.548-12.356 5.322l-.355-.06-1.419.651-1.005-.532c-13.48 6.445-77.507 29.86-105.885 79.054-6.8 11.708-16.673 30.392-14.19 43.755 2.484 13.481-6.503 45.529 86.258 81.36 12.83 4.967 26.073 8.515 39.375 11.885 16.022 4.02 31.984 8.514 48.124 12.121 8.395 1.892 16.968 2.898 25.363 4.73 3.784.828 7.568 1.538 11.41 2.188 3.666.592 11.647 1.538 11.647 1.538s82.652-58.655 86.435-62.972l-69.585-150.54z" fill="#BE965A"/><path d="M395.479 211.734l-.946-18.862c-6.09-1.892-166.071-44.346-172.456-44.7l-141.122 83.37 12.002 15.314 198.705 51.855c6.385-3.902 32.99-26.37 38.843-31.042 6.858-5.499 14.189-10.702 21.402-15.728 14.484-10.111 28.614-20.754 42.744-31.338.828-2.956.828-5.795.828-8.87z" fill="#BE965A"/><path d="M218.352 170.995c-14.248 8.81-105.176 67.82-105.176 67.82l156.612 38.61 93.41-66.223-144.846-40.207z" fill="#D2E614"/><path d="M379.87 233.197c-6.325-2.247-13.893-5.558-19.332-10.998-10.582-10.702-5.025-20.103-3.488-24.656 1.3-3.902 5.321-22.705 41.917-21.109 37.483 1.656 55.574 12.772 55.574 30.865 0 18.093-16.672 23.71-20.338 25.307-8.454 3.666-46.35 3.37-54.332.591zm-89.331 29.623c-8.277-1.773-16.731-2.542-25.126-2.365-8.04.119-16.14.828-23.59 4.73-3.902 2.07-7.626 4.553-11.351 7.037a30.98 30.98 0 0 0-3.606 2.601c3.251 1.065 29.324 6.268 45.109 9.224 10.346-7.686 24.121-16.674 26.309-18.92a55.793 55.793 0 0 0-7.745-2.307zm-78.69-104.893S180.75 177.5 176.022 180.87c1.95.769 3.902 1.419 5.734 2.01 7.923 2.484 22.23 6.977 42.922 3.075 20.693-3.902 23.057-10.11 27.255-16.083-10.405-3.075-40.084-11.944-40.084-11.944zm-91.579 59.779c-3.31 1.537-41.68 25.78-41.68 25.78l50.608 11.648s5.557-6.031 7.745-10.111c2.246-4.198 2.424-7.45.118-12.18-3.488-7.391-10.346-12.122-16.79-15.137z" fill="#BE965A"/><path fill="#FFF" d="M390.099 213.153l.177-15.255 20.574-.178 12.002 7.45-12.238 7.746z"/><path d="M490.309 368.482V265.718C472.927 283.22 386.61 367.24 385.133 368.482h105.176z" fill="#828C00"/><path fill="#FFF" d="M397.548 199.672L-10.151 92.768l-4.966 2.188 412.96 107.495zm6.681.709l-345.8 247.51-1.418 5.204 349.05-249.757z"/><path fill="#A0783C" d="M412.27 220.84l-20.693-.119v3.489l20.692.059z"/><path d="M291.012 223.264c-1.951-3.252-5.557-6.918-7.035-8.692-3.252-3.725-7.213-6.74-11.588-8.988-8.81-4.493-19.037-5.971-28.792-6.385-10.465-.473-21.757.295-31.157 5.38-4.73 2.602-8.986 5.085-12.179 9.52-1.36 1.774-2.542 3.607-3.665 5.558-.65 1.183-1.005 2.424-1.537 3.607h95.953z" fill="#BE965A"/><path fill="#FFF" d="M274.754 209.605l-12.357-.118v3.489l12.357.059z"/><path fill="#A0783C" d="M412.27 187.491l-20.693-.118v3.43l20.692.118z"/><path d="M235.616 158.105l-24.477-6.09c-.827.532-19.214 11.293-20.042 11.825 8.455 2.306 23.235 5.854 25.363 6.15.296-.178 19.156-11.885 19.156-11.885zm-123.563 76.866l-24.476-6.09c-.828.532-19.156 11.293-20.042 11.826 8.454 2.306 23.234 5.853 25.362 6.149.296-.177 19.156-11.885 19.156-11.885zm180.91 47.894l-25.067-6.09c-.828.532-18.623 11.293-19.451 11.825 8.454 2.306 23.234 5.854 25.363 6.15.295-.178 19.155-11.885 19.155-11.885z" fill="#FFF"/><path d="M272.034 115.414c-.059-1.3-.236-2.365.118-3.548l.769.06V115l-.887.414zm-1.951-.828h-.71c-.295-.887.119-1.714-.058-2.601l.827-.296c.237 1.064-.118 1.951-.059 2.897zm-99.028-5.262l.769.237c.06 1.419.118 2.66.177 3.961-.118.06-.177.177-.236.177h-.591c-.119-.295-.178-.65-.237-1.005.06-1.005.118-2.07.118-3.37zm-2.069 4.257c-.177-.236-.414-.355-.414-.532-.059-.71-.118-1.419-.118-2.07.06-.413.118-.768.237-1.123l.65.355c.236 2.602.236 2.602-.355 3.37zm5.617.059l-.887.178c-.591-1.124-.06-2.188-.178-3.252l.592-.178c.532 1.065.354 2.129.473 3.252zM41.521 43.514l.769.237c.059 1.36.118 2.66.177 3.962-.118.118-.177.177-.236.177h-.591c-.119-.296-.178-.65-.237-1.005.06-1.005.06-2.07.118-3.37zm-2.069 4.258c-.177-.237-.414-.355-.414-.473-.059-.71-.118-1.42-.118-2.07.06-.414.118-.769.236-1.123l.65.354c.178 2.543.178 2.543-.354 3.312zm5.617.058l-.887.178c-.592-1.123-.06-2.188-.178-3.252l.592-.177c.473 1.064.295 2.128.473 3.252zm381.034 203.52l.77.236c.058 1.42.117 2.66.176 3.962-.118.059-.177.177-.236.177h-.591c-.119-.296-.178-.65-.237-1.005 0-1.005.06-2.07.118-3.37zm-2.128 4.257c-.177-.237-.414-.355-.414-.532-.059-.71-.118-1.42-.118-2.07.06-.414.118-.768.237-1.123l.65.355c.236 2.601.236 2.601-.355 3.37zm5.617.059l-.887.177c-.532-1.123-.06-2.187-.178-3.252l.592-.177c.532 1.064.354 2.129.473 3.252zm-5.617 95.964l.769.237c.059 1.36.118 2.661.177 3.962-.118.118-.177.177-.236.177h-.592c-.118-.295-.177-.65-.236-1.005.059-1.005.118-2.07.118-3.37zm-2.069 4.317c-.177-.236-.414-.355-.414-.532-.06-.71-.118-1.419-.118-2.07.059-.413.118-.768.236-1.123l.65.355c.237 2.542.237 2.542-.354 3.37zm5.616 0l-.886.178c-.592-1.124-.06-2.188-.178-3.252l.591-.178c.533 1.064.355 2.129.473 3.252zM28.81 347.314l.769.237c.059 1.36.118 2.66.177 3.962-.118.059-.177.177-.236.177h-.592c-.118-.296-.177-.65-.236-1.005.06-1.005.06-2.07.118-3.37zm-2.069 4.258c-.177-.237-.414-.355-.414-.473-.059-.71-.118-1.42-.118-2.07.059-.414.118-.768.236-1.123l.65.355c.178 2.542.178 2.542-.354 3.31zm5.617.058l-.887.178c-.592-1.123-.06-2.188-.178-3.252l.592-.177c.473 1.064.295 2.128.473 3.252zm261.137-30.923l.769.236c.059 1.36.118 2.661.177 3.962-.118.118-.177.177-.237.177h-.59c-.119-.295-.178-.65-.237-1.005.059-1.005.118-2.07.118-3.37zm-2.069 4.257c-.178-.236-.414-.355-.414-.473-.06-.71-.118-1.419-.118-2.07.059-.413.118-.768.236-1.123l.65.355c.237 2.542.237 2.542-.354 3.311zm5.616.059l-.887.178c-.59-1.124-.059-2.188-.177-3.252l.591-.178c.532 1.064.355 2.129.473 3.252zm52.795-162.957l-.65-.295c.118-1.774.414-3.489.177-5.381l.828-.177c0 1.95-.118 3.902-.355 5.853zm-2.247-3.311c.119 1.064.237 2.01.356 3.075h-.887c-.06-1.124-.119-2.129-.178-3.252l.71.177zm-314.405-4.021l-.65-.295c.118-1.774.414-3.489.177-5.38l.828-.178c.059 2.01-.06 3.961-.355 5.853zm-2.246-3.311c.118 1.064.236 2.01.354 3.075h-.886c-.06-1.124-.119-2.129-.178-3.252l.71.177z" fill="#82783C"/></g></svg>