<svg width="127" height="166" xmlns="http://www.w3.org/2000/svg"><path fill="#1B75BB" stroke="#000" d="M69.072 82.13c-.587 1.27.628 3.176.924 3.62.668 1.005 2.917 1.845 2.917 1.845s8.125 2.321 7.932 4.643l-.106.216c-1.706.474-4.713 1.313-8.07 2.255-5.122 1.435-8.673 10.982.48 11.955 9.092.967 15.258-13.073 15.258-17.135 0-4.063-16.213-8.554-16.213-8.554-.095-.005-.132.332-.132.332s-2.2.677-2.99.823m-7.534 38.224c-.06 2.752.611 6.728 3.306 6.606 1.772-.08 1.464-3.913 1.589-7.83.08-2.539.62-4.661.994-5.845 0 0 .086-.207.086-.281.001-1.744-.965-2.33-2.191-2.514-1.538-.23-1.725 1.1-1.733 1.134-.315 1.353-.854 3.053-.854 3.053-.726 2.38-1.16 4.07-1.197 5.677h0zm-7.235 0c-.06 2.752.612 6.728 3.306 6.606 1.773-.08 1.465-3.913 1.59-7.83.08-2.539.62-4.661.993-5.845 0 0 .086-.207.086-.281.001-1.744-.965-2.33-2.191-2.514-1.537-.23-1.724 1.1-1.732 1.134-.316 1.353-.854 3.053-.854 3.053-.727 2.38-1.16 4.07-1.198 5.677h0z" stroke-width=".774"/><g stroke="#000" stroke-width=".774"><path fill="#1B75BB" d="M65.842 113.005a17.85 17.85 0 0 0 3.393-.702c8.408-2.585 5.175-13.42 4.043-17.625-.456-1.699-.887-4.191-1.24-6.558l-.063-.15-.677-5.714c-.38-.483-.177-1.605-1.48-2.285-1.543-.804-4.823-1.271-6.47-1.273-6.058-.006-8.782 2.16-8.782 2.16-1.013 2.222.007 3.261-1.687 6.98-3.084 6.775-2.515 7.807-3.243 7.962-.107.023-.085 1.485-.248 1.515-.003.516.029 2.015.442 3.992 0 0 1.13 4.691 3.074 6.954.34.396.809.86 1.39 1.337 0 0 1.647 1.327 3.177 2.061 1.531.734 4.162 1.102 5.387 1.285 1.226.184 2.984.06 2.984.061h0z"/><path fill="#D0D2D3" d="M74.815 104.737c.246-3.722-.934-7.78-1.53-9.993-.608-2.249-1.165-5.884-1.557-8.783l-.176-.144c-.88-.776-1.617-2.26-3.68-1.89-4.52.813-6.552 5.16-6.552 11.522 0 6.364 3.507 12.042 7.123 12.042 1.81 0 5.136-.528 6.321-2.614l.05-.14h0z"/></g><path fill="#1B75BB" stroke="#000" d="M58.627 82.18c.587 1.268-.629 3.176-.925 3.618-.67 1.003-2.917 1.844-2.917 1.844s-8.124 2.32-7.93 4.642l.105.218c1.706.476 4.712 1.314 8.068 2.254 5.123 1.436 8.673 10.984-.48 11.958-9.091.967-15.256-13.076-15.256-17.138 0-4.062 16.213-8.553 16.213-8.553.095-.003.131.332.131.332s2.2.676 2.991.824" stroke-width=".774"/><path fill="#1B75BB" stroke="#000" stroke-linecap="round" stroke-linejoin="round" d="M96.231 53.687c.092.325 2.268 8.285-3.232 15.657-3.725 4.99-10.214 11.365-26.798 12.796-8.12.699-15.348-1.396-20.544-4.597.077.047.149.097.226.143l-.074-.045c-4.828-2.18-10.95-5.552-15.014-11.196 0 0-2.187 4.563-11.995 4.754C6.406 71.443 1.403 64.573.762 59.394c-.65-5.253.954-11.275 11.428-13.051 8.769-1.484 13.535 1.165 14.854 2.065l.102.117c.966-2.99 2.577-4.366 2.577-4.366l-.132-.047c-3.69-1.385-8.547-3.598-14.49-7.132-12.44-7.401-12.317-20.457-8.876-25.152C9.787 6.975 20.338.878 35.243 9.178c8.388 4.667 12.633 11.857 14.743 17.244l.446-.176a23.143 23.143 0 0 1 1.873-.967l.087-.153c-3.27-7.68-8.204-23.473 5.847-24.692 13.363-1.159 12.213 14.943 11.135 21.79l.105.016a33.02 33.02 0 0 1 5.233.786c-.039-.08-2.032-4.263.527-10.357C77.245 7.9 86.23-3.535 93.526 2.54c7.699 6.412 3.52 13.664-.487 18.111-3.471 3.852-7.464 5.425-9.276 6.12l.051.033c.446.28.892.572 1.332.883C97.4 36.31 96.348 54.162 96.348 54.162l-.027-.127c-.046-.2-.08-.315-.09-.348h0zM81.923 25.712c.74.39 1.465.813 2.17 1.264M69.34 22.655a56.384 56.384 0 0 1-.535 2.563m-14.46 4.046a54.779 54.779 0 0 1-2.011-4.278M26.457 54.078c-.078-1.717.082-3.45.553-5.106M15.302 70.973" stroke-width=".774"/><path fill="#F1F1F2" stroke="#000" d="M15.366 71.072C5.468 70.112 1.34 64.066.762 59.394c-.65-5.253.954-11.275 11.428-13.051a30.842 30.842 0 0 1 4.209-.431l.099.006c-4.175 8.075-4.57 17.572-1.196 25.054l.064.1h0zm-2.199-35.358C2.684 28.17 2.973 16.264 6.224 11.827 9.617 7.203 19.362 1.45 33.17 8.1l-.139.046c-7.924 2.48-14.78 8.72-17.998 17.43a29.4 29.4 0 0 0-1.83 10.1l-.035.038h0zm35.751-22.917c-.583-6.072 1.19-11.66 9.322-12.364 8.205-.71 10.94 5.085 11.578 11.25l-.063-.063c-6.857-2.66-14.348-2.09-20.803 1.08l-.034.097h0zM85.755 1.498C88.308.433 91.018.45 93.525 2.54c4.931 4.11 4.99 8.561 3.34 12.401l-.084.006C94.773 9.405 90.994 4.61 85.744 1.526l.011-.028h0z" stroke-width=".774"/><path fill="#E6E7E8" stroke="#000" d="M85.484 42.832c-4.69-3.423-12.03-13.084-12.03-13.084s-.192 10.19-14.112 18.77C45.421 57.1 38.15 55.79 37.346 65.823 36.74 73.36 49.62 83.568 66.202 82.141 82.785 80.709 89.274 74.334 93 69.345c5.615-7.528 3.227-15.673 3.227-15.673-1.614-5.627-3.995-5.926-10.743-10.84h0z" stroke-width=".774"/><path fill="#FFF" d="M62.425 57.489a.985.985 0 0 0-1.788-.324.984.984 0 0 0 1.035 1.488.983.983 0 0 0 .753-1.164z"/><path fill="#231F20" d="M63.932 57.165c-.29-1.334-1.678-2.223-3.003-1.933a2.514 2.514 0 0 0-1.928 2.998 2.528 2.528 0 0 0 2.995 1.93 2.529 2.529 0 0 0 1.936-2.995zm-3.425.739a.962.962 0 0 1 .13-.738.978.978 0 0 1 .835-.452c.455 0 .855.326.953.776a.983.983 0 0 1-.755 1.164.984.984 0 0 1-1.163-.75z"/><path fill="#FFF" d="M86.36 56.014a.984.984 0 0 0-1.788-.323.986.986 0 0 0 1.035 1.489.986.986 0 0 0 .753-1.166z"/><path fill="#231F20" d="M87.868 55.69c-.29-1.335-1.678-2.225-3.003-1.935a2.51 2.51 0 0 0-1.59 1.101 2.528 2.528 0 0 0 2.656 3.829 2.528 2.528 0 0 0 1.937-2.996zm-3.426.737a.966.966 0 0 1 .13-.737.985.985 0 0 1 .835-.452c.455 0 .855.326.952.775a.984.984 0 0 1-.754 1.165.984.984 0 0 1-1.163-.75z"/><path fill="none" stroke="#231F20" stroke-linecap="round" d="M62.388 65.214s4.26-2.741 12.227-3.905c7.97-1.164 11.67 1.67 11.67 1.67" stroke-width=".774"/><path fill="#231F20" d="M83.45 56.571a1.394 1.394 0 0 1-.576-2.662l4.449-2.013a1.394 1.394 0 0 1 1.149 2.537l-4.45 2.014a1.37 1.37 0 0 1-.572.124zm-20.234 1.396a1.37 1.37 0 0 1-.514-.099l-4.534-1.801a1.393 1.393 0 0 1 1.028-2.59l4.533 1.801a1.393 1.393 0 0 1-.513 2.69z"/></svg>