<svg width="120" height="120" viewBox="0 0 120 120" xmlns="http://www.w3.org/2000/svg" xmlns:xlink="http://www.w3.org/1999/xlink"><defs><path id="a" d="M0 .087h66.085v25.296H0z"/><path id="c" d="M.144.11h48.262v42.611H.144z"/><path id="e" d="M.307.155h30.787V19.67H.307z"/><path id="g" d="M.126.325h31.932v10.303H.126z"/></defs><g fill="none" fill-rule="evenodd"><path d="M80.588 69.612c-1.565-.507-6.18-.493-5.834 2.031.309 2.253 3.892 1.815 5.255 2.675 1.608 1.014 2.427 2.61 3.668 3.834.916.904 3.678 1.686 4.797.263 1.326-1.687-1.909-2.664-2.977-1.192-.17-2.823-1.918-6.64-4.91-7.61M60.198 56.59c-3.98-4.152-7.394-8.794-11.5-12.858-5.187-5.135-11.372-10.425-18.082-13.537l-.025-.175a.996.996 0 0 0-.224.057c-.062-.028-.124-.06-.187-.088-.032.074-.057.153-.085.229-1.476 1.002-2.429 5.407-2.77 6.664-1.684 6.186-1.557 13.952-.176 20.174.221.996 1.751 9.73 3.991 13.306-1.62.46-3.001 1.295-3.49 3.162-.08.308.193.611.48.662 2.368.415 5.35-.47 6.489-2.733a.506.506 0 0 0-.163-.672c.335-1.112.064-3.284.153-4.132.196-1.878.422-3.738.504-5.627.17-3.958-.01-7.935-.518-11.864a45.12 45.12 0 0 0-.354-2.269c1.447 1.694 3.162 3.214 4.964 4.688 2.972 2.431 5.996 4.818 9.142 7.027 2.552 1.793 5.458 3.587 8.567 4.171 5.231.983 6.54-2.788 3.284-6.185" fill="#80B54D"/><path d="M60.884 51.396c.15-2.217-8.956-2.79-10.298-2.928-10.147-1.048-20.33-.564-30.477.185-5.012.37-9.94 1.008-14.841 1.807-1.5.244-3.144.035-4.69.411.09.946.99 1.707 1.608 2.443 1.044 1.242 1.622 2.671 2.533 3.964 3.133 4.444 7.132 6.6 12.414 8.071C21.893 66.677 27 66.741 31.9 66.45c5.871-.347 12.73-.643 18.078-3.364 3.045-1.55 5.058-4.162 7.291-6.644.64-.712 3.094-4.345 3.493-4.285l.121-.76z" fill="#4E823C"/><path d="M10.457 76.115c.223 8.786 6.23 12.95 13.33 14.269 1.06.197 2.145.33 3.238.405 4.213.295 8.555-.269 12.13-1.343a19.202 19.202 0 0 0 3.024-1.211c3.761-1.865 7-4.805 10.264-7.454a62.905 62.905 0 0 1 1.784-1.404c.351-.268.705-.53 1.061-.784 3.147-2.246 5.968-5.064 8.14-8.268 1.225-1.803 4.874-6.866 4.903-9.002.054-3.973-6.879-5.02-9.888-4.632-5.07.648-9.539 2.768-14.294 4.385-4.977 1.692-18.662 2.86-26.982 6.857a20.66 20.66 0 0 0-2.184 1.2c-2.812 1.78-4.6 4.04-4.526 6.982" fill="#32763A"/><path d="M46.126 73.916a61.815 61.815 0 0 0 5.097 5.675c.403.397.807.797 1.22 1.19a62.893 62.893 0 0 1 1.783-1.404c-1.99-1.77-3.793-3.84-5.43-5.829-1.293-1.572-2.628-3.232-3.515-5.076-.283-.588-.589-1.225-.653-1.884-.042-.456.031-.604.165-.709 1.174-.914-.18-2.79-1.357-1.872-3.222 2.513 1.013 7.78 2.69 9.91M27.698 65.84c-.282 5.783 2.178 11.21 5.515 15.813 1.974 2.722 4.224 5.234 6.652 7.562a19.172 19.172 0 0 0 2.314-.98c-2.528-2.34-4.874-4.88-6.892-7.664-3.01-4.152-5.562-9.095-5.305-14.366.07-1.474-2.213-1.855-2.284-.364m-12.885 1.771c.044.508.1 1.013.17 1.521.747 5.515 3.001 11 5.589 15.834.953 1.78 2.01 3.641 3.216 5.417 1.06.197 2.144.33 3.237.405-1.765-2.25-3.292-4.693-4.598-7.234-2.476-4.819-4.687-10.177-5.26-15.622a28.22 28.22 0 0 1-.055-.578c-.124-1.486-2.422-1.232-2.299.257" fill="#5EA063"/><g transform="translate(0 50.343)"><mask id="b" fill="#fff"><use xlink:href="#a"/></mask><path d="M57.188.429c-7.83.888-15.733 2.288-23.407 4.074C25.924 6.333 18.22 8.29 10.61 10.94 7.107 12.159 2.515 13.521 0 16.263c3.48 2.756 5.902 6.61 10.255 8.046 6.793 2.239 15.964.57 22.606-1.296 7.527-2.114 17.193-5.562 22.851-11.15 2.695-2.66 7.01-3.86 9.244-7.03C69.055-.988 60.96 0 57.188.428" fill="#6C9F41" mask="url(#b)"/></g><path d="M71.172 76.3c-7.985 1.828-13.923-1.114-17.032-8.978-1.583-4.002-2.003-7.866.074-11.612 4.388-7.914 16.17-14.182 21.98-4.11 5.255 9.108 8.093 21.695-5.022 24.7" fill="#4E823C"/><path d="M79.176 73.484c-8.527-6.219-19.737-20.605-9.14-30.069 4.42-3.946 9.508-5.6 15.294-4.207 9.187 2.213 13.751 12.17 13.655 21.007-.047 4.18 0 10.066-2.586 13.603-3.58 4.9-12.93 2.796-17.223-.334" fill="#6C9F41"/><g transform="translate(11.864 57.124)"><mask id="d" fill="#fff"><use xlink:href="#c"/></mask><path d="M28.21 37.677l.06-.03a4.242 4.242 0 0 1-.17.553c.046-.172.085-.347.11-.523M44.064 6.914C37.86 5.515 31.878 3.319 25.611 2.078 17.715.515 8.81-.585.74.626L.609.444.646.64C.48.665.31.685.144.713c.133.753.441 1.53.86 2.305.193 1.491.39 2.948 1 4.55 1.065 2.795 2.413 5.473 3.575 8.227 1.886 4.473 4.812 8.372 8.291 11.73.816.788 7.619 7.972 11.863 9.861-1.2 1.387-1.965 2.967-1.305 4.965.096.29.47.45.749.329 2.408-1.057 4.631-3.635 4.313-6.402a.532.532 0 0 0-.483-.488c-.33-1.23-1.957-3.121-2.401-3.973-.966-1.852-1.893-3.706-2.97-5.497a76.685 76.685 0 0 0-7.72-10.626 50.071 50.071 0 0 0-1.711-1.875c2.368.678 4.878 1.032 7.44 1.29 4.224.428 8.47.783 12.72.9 3.448.094 7.223-.026 10.446-1.386 5.425-2.288 4.33-6.565-.747-7.71" fill="#80B54D" mask="url(#d)"/></g><path d="M89.981 52.909c-.17 5.848-7.039 8.793-12.067 6.79-5.789-2.303-5.4-11.403-.47-14.354 3.724-2.23 8.349-1.38 10.809 2.263 1.267 1.875 1.776 3.674 1.728 5.3" fill="#FFF"/><path d="M77.484 53.986c-3.659-2.383-2.173-7.878 2.205-8.07 3.895-.17 6.257 4.822 3.138 7.438-1.566 1.313-3.516 1.822-5.343.632" fill="#000"/><path d="M94.197 69.624s-4.148 8.833-9.743-1.553c0 0 3.954 3.596 9.743 1.553" fill="#4E823C"/><g transform="translate(82.373 21.184)"><mask id="f" fill="#fff"><use xlink:href="#e"/></mask><path d="M.361 18.862c1.127-2.533 3.616-4.647 5.643-6.471 2.322-2.09 4.888-3.899 7.57-5.493C18.763 3.813 24.464 1.65 30.303.175c.715-.18 1.14.896.42 1.078-5.633 1.423-11.103 3.49-16.145 6.391a48.825 48.825 0 0 0-7.045 4.945 41.872 41.872 0 0 0-3.176 2.986c-1.085 1.124-2.3 2.325-2.942 3.766-.303.68-1.356.203-1.053-.48" fill="#32763A" mask="url(#f)"/></g><g transform="translate(87.797 31.695)"><mask id="h" fill="#fff"><use xlink:href="#g"/></mask><path d="M.486 9.51c1.208-.448 2.186-1.34 3.305-1.96a39.823 39.823 0 0 1 3.538-1.72c2.588-1.117 5.295-1.946 8.023-2.64C20.635 1.842 26.048 1.105 31.436.331c.74-.107.864 1.043.128 1.15-5.419.778-10.856 1.528-16.169 2.88A54.1 54.1 0 0 0 7.75 6.91a37.316 37.316 0 0 0-3.61 1.76c-1.104.613-2.036 1.475-3.234 1.919-.7.26-1.118-.819-.42-1.078" fill="#32763A" mask="url(#h)"/></g><path d="M60.53 73c.817-2.007 4.755-6.595 7.014-4.025 2.016 2.293-1.474 5.48-1.764 7.597-.341 2.497.576 4.72.76 7.037.135 1.71-1.424 5.154-3.813 5.015-2.834-.165-1.071-4.252 1.325-4.019-2.71-2.66-5.085-7.767-3.522-11.605m9.247 4.348c-.516-1.574-.49-6.194 2.096-5.814 2.308.339 1.85 3.921 2.728 5.298 1.036 1.624 2.67 2.465 3.922 3.724.924.93 1.718 3.706.258 4.807-1.732 1.305-2.726-1.947-1.215-2.996-2.893-.21-6.802-2.01-7.789-5.019" fill="#80B54D"/></g></svg>