<svg width="120" height="120" viewBox="0 0 120 120" xmlns="http://www.w3.org/2000/svg" xmlns:xlink="http://www.w3.org/1999/xlink"><defs><path id="a" d="M.36.541h24.828v9.9H.36z"/><path id="c" d="M.446.583h15.37v17.322H.446z"/></defs><g fill="none" fill-rule="evenodd"><path d="M74.082 13.424c-.566-.299-1.244-.58-1.828-.324-.58.254-.814.965-.7 1.572.114.606.494 1.132.864 1.636.434.59.868 1.179 1.3 1.769a56.255 56.255 0 0 0-5.366-2.727c-.858-.38-2.232-.504-2.392.39-.064.35.132.694.336.992a11.312 11.312 0 0 0 2.308 2.485 10.078 10.078 0 0 0-6.505-.955c-.254.048-.52.115-.703.293-.505.497.014 1.323.561 1.783 2.744 2.307 6.408 3.3 9.994 3.86a53.415 53.415 0 0 0 17.388-.156c-3.084-1.352-10.036-7.858-15.257-10.618" fill="#380D00"/><g transform="translate(94.658 20.64)"><mask id="b" fill="#fff"><use xlink:href="#a"/></mask><path d="M14.412.814c.513-.217 1.124-.41 1.611-.143.486.264.635.9.49 1.418-.144.517-.514.946-.874 1.355l-1.262 1.439a49.122 49.122 0 0 1 4.866-1.965c.775-.265 1.977-.269 2.05.52.028.31-.168.593-.367.837a9.889 9.889 0 0 1-2.193 1.983 8.785 8.785 0 0 1 5.722-.338c.217.062.444.14.59.308.401.469-.113 1.147-.622 1.506-2.558 1.796-5.815 2.384-8.97 2.6A46.604 46.604 0 0 1 .36 8.885C3.14 7.944 9.67 2.818 14.412.814" fill="#380D00" mask="url(#b)"/></g><path d="M37.35 69.201a41.645 41.645 0 0 1-22.426 2.473c-1-.167-2.037-.39-2.826-1.028-.79-.638-1.237-1.811-.75-2.701.62-1.134 2.454-2.826 2.454-2.826s-7.61-3.077-10.942-5.495C-.11 57.467-.217 55.397.15 54.39c.365-1.007 1.776-2.524 5.437-2.265 4.107.292 11.911 2.83 11.911 2.83s-.318-2.476-.065-3.743c.198-.995 1.296-1.605 2.31-1.586 1.012.019 1.95.515 2.825 1.03a41.7 41.7 0 0 1 15.59 16.323" fill="#380D00"/><g transform="translate(18.634 88.529)"><mask id="d" fill="#fff"><use xlink:href="#c"/></mask><path d="M8.11 17.472c1.961-1.366 3.473-3.365 3.537-5.832.066-2.513-1.292-4.603-2.801-6.488.042-.088.278-.046 1.013-.03 1.03.024 2.004.245 2.982.559 2.738.875 4.277-3.328 1.528-4.207C11.667.61 7.368-.276 5.211 2.2c-.755.867-.93 1.928-.861 3.01-.033.214-.05.432-.036.654.106 1.68-1.124 2.83-2.595 3.325C.573 9.576.168 11.154.638 12.163c.245.527.63.865 1.08 1.056-.145 1.294.81 2.878 2.529 2.798.05-.002.096-.01.145-.014.315 1.39 2.14 2.568 3.719 1.469" fill="#CA6E13" mask="url(#d)"/></g><path d="M24.49 96.9c.795-3.457-.873-5.567-.825-5.906-.584.815-.743 1.768-.681 2.745-.033.213-.05.43-.036.653.105 1.68-1.124 2.83-2.596 3.326-1.146.386-1.551 1.965-1.08 2.974.051.113 4.506-.69 5.218-3.792m-3.438 6.899c5.829-1.532 5.055-5.992 5.055-5.992-.818 4.067-5.756 3.941-5.756 3.941-.08.706.18 1.49.7 2.05m3.479 2.451c5.187-2.683 3.417-6.063 3.417-6.063-.505 3.958-4.161 4.323-4.92 4.355.17.73.757 1.398 1.504 1.708" fill="#A74E16"/><path d="M27.166 90.115c-3.237-2.575-7.964-1.722-10.192 1.73-1.558 2.415 2.11 4.977 3.678 2.548.977-1.515 2.571-1.71 3.968-.597 2.253 1.792 4.795-1.893 2.546-3.681" fill="#CA6E13"/><path d="M20.652 94.393c.978-1.515 2.57-1.709 3.968-.598 0 0-2.564-4.354-8.007-.537.181 1.82 2.782 3.083 4.04 1.135" fill="#A74E16"/><path d="M50.758 43.764C47.714 35.44 32.455 26.458 31.1 27.815c-1.356 1.356 4.688 7.934 4.688 7.934s-3.544-1.276-8.144-1.725c-.429-.041-.92-.051-1.22.258-.558.571.063 1.497.675 2.01a31.073 31.073 0 0 0 5.11 3.482 29.849 29.849 0 0 0-7.304.415c-1.354.246-2.996.949-2.986 2.326.007 1.106 1.114 1.844 2.114 2.314 7.147 3.36 19.45 2.006 26.725-1.065" fill="#380D00"/><path d="M17.846 79.372c-3.237-2.575-7.964-1.722-10.192 1.73-1.557 2.415 2.11 4.978 3.679 2.549.977-1.515 2.57-1.71 3.967-.598 2.253 1.792 4.795-1.893 2.546-3.681" fill="#CA6E13"/><path d="M11.332 83.651c.978-1.515 2.571-1.71 3.968-.598 0 0-2.564-4.356-8.007-.538.182 1.82 2.782 3.083 4.04 1.136" fill="#A74E16"/><path d="M18.163 89.618c1.96-1.365 3.472-3.365 3.537-5.831.065-2.514-1.292-4.604-2.802-6.488.042-.088.278-.047 1.013-.03 1.031.024 2.004.245 2.982.558 2.738.876 4.278-3.328 1.53-4.206-2.704-.866-7.003-1.75-9.16.725-.755.866-.93 1.928-.861 3.01a3.08 3.08 0 0 0-.036.653c.107 1.68-1.124 2.83-2.595 3.326-1.146.387-1.551 1.965-1.081 2.975.245.526.63.864 1.08 1.055-.145 1.294.81 2.878 2.53 2.798.049-.002.095-.01.144-.013.315 1.39 2.14 2.567 3.719 1.468" fill="#CA6E13"/><path d="M15.91 80.517c.793-3.457-.875-5.566-.827-5.906-.582.816-.743 1.768-.68 2.746-.033.212-.05.43-.037.652.106 1.681-1.124 2.83-2.595 3.326-1.146.387-1.552 1.965-1.081 2.975.052.112 4.506-.691 5.22-3.793m-3.44 6.899c5.83-1.531 5.056-5.992 5.056-5.992-.819 4.067-5.757 3.941-5.757 3.941-.079.706.18 1.49.701 2.051m3.48 2.45c5.185-2.683 3.416-6.063 3.416-6.063-.505 3.958-4.161 4.323-4.92 4.356.17.73.756 1.397 1.503 1.707" fill="#A74E16"/><path d="M111.036 61.271c-.506-8.994-1.43-31.195-1.43-31.195s-13.923-7.58-31.111-7.598c-17.19.018-31.112 7.598-31.112 7.598s-.149 3.618-.363 8.578c-9.567 2.711-20.018 10.497-20.018 31.196v.197c0 .797.024 1.562.054 2.32-1.5-.72-3.025-1.431-3.59-1.62-.751-.252-1.605-.464-2.308-.102-.296.154-.556.435-.564.769-.006.193.074.378.164.549.38.712.995 1.296 1.725 1.637a5.675 5.675 0 0 0-2.404.494c-.424.19-.89.608-.705 1.035.071.168.23.279.384.375a5.809 5.809 0 0 0 2.095.786c-.928.284-1.36 1.489-.998 2.39.361.9 1.323 1.457 2.287 1.558.964.1 1.93-.187 2.818-.575.257-.11.992-.368 1.814-.658.547 2.985 1.366 5.598 2.401 7.876a1.73 1.73 0 0 0-.435.147c-.297.152-.556.434-.564.768-.006.193.074.379.164.549a3.772 3.772 0 0 0 1.724 1.637 5.688 5.688 0 0 0-2.404.494c-.424.19-.89.61-.705 1.036.072.167.23.279.385.374a5.784 5.784 0 0 0 2.093.787c-.927.284-1.358 1.488-.997 2.388.362.9 1.323 1.459 2.288 1.56.964.1 1.929-.188 2.818-.575.259-.112 1.004-.373 1.834-.666 7.323 6.454 17.115 7.137 22.407 7.137 52.922 0 52.253-41.246 52.253-41.246" fill="#642710"/><path d="M109.92 70.587c-.494-5.673-2.567-11.103-5.765-15.096H70.094c-3.198 3.993-5.272 9.423-5.765 15.096-.126 1.44.06 3.325 1.157 3.698 1.437.488 3.69-1.76 3.69-1.76s-1.899 4.894-.977 7.548c.52 1.495 2.153 1.852 3.408 1.52 1.254-.334 2.343-1.296 3.391-2.236-.325 1.012-.655 2.044-.732 3.134-.077 1.09.134 2.268.753 3.025.777.95 1.997 1.025 3.042.704 1.59-.486 2.967-1.718 4.301-2.923-.624 2.421 1.392 8.312 4.668 8.312 3.276 0 5.48-5.89 4.856-8.312 1.334 1.205 2.711 2.437 4.302 2.923 1.046.321 2.265.245 3.041-.704.62-.757.831-1.934.754-3.025-.078-1.09-.407-2.122-.733-3.134 1.049.94 2.137 1.902 3.392 2.235 1.255.333 2.887-.024 3.407-1.519.922-2.654-.977-7.549-.977-7.549s2.255 2.249 3.69 1.76c1.098-.372 1.284-2.257 1.159-3.697" fill="#C8B4AB"/><path d="M87.129 81.255h-.008.008zm23.884-24.311c-.275-3.238-1.107-6.042-2.457-8.694H65.693c-1.35 2.652-2.182 5.456-2.458 8.694-.098 1.159.107 2.414.778 3.102 1.12 1.143 3.797-1.975 3.797-1.975s-1.53 4.914-.314 7.295c.51 1 1.602 1.09 2.394.56.791-.532 1.361-1.535 1.903-2.504-.197 1.382-.396 2.786-.311 4.19.084 1.405.492 2.835 1.297 3.675.856.894 2.043.982 3.055.513 1.013-.47 1.873-1.432 2.623-2.497-.437 2.51-.747 5.885.855 7.155 1.602 1.269 3.488-.447 4.791-2.27 0 0-.474 7.061 3.021 7.067 3.497-.006 3.022-7.068 3.022-7.068 1.303 1.824 3.188 3.54 4.79 2.27 1.603-1.27 1.293-4.644.856-7.154.75 1.065 1.61 2.028 2.623 2.497 1.012.47 2.2.38 3.055-.513.805-.84 1.212-2.27 1.297-3.674.085-1.405-.114-2.81-.311-4.19.541.968 1.112 1.97 1.903 2.502.792.53 1.883.442 2.394-.56 1.215-2.38-.315-7.294-.315-7.294s2.677 3.118 3.797 1.975c.672-.688.877-1.943.778-3.102" fill="#E2DAD6"/><path d="M99.08 29.447c-5.145 2.712-5.567 13.076-5.567 13.076S92.01 27.268 82.721 26.44c-9.29-.827-20.95 7.271-17.212 22.742 8.366 2.608 16.498 8.833 21.363 16.318 4.865-7.485 12.997-13.71 21.362-16.318 3.739-15.47-.902-24.085-9.154-19.736" fill="#C8B4AB"/><path d="M108.438 41.716c-.022 5.473-2.99 9.567-6.172 9.197-3.183-.37-6.05-4.585-6.05-9.373 0-4.074 3.395-9.592 6.59-9.528 2.975.083 5.654 4.23 5.632 9.704" fill="#3A0D00"/><path d="M97.134 41.553c-.001 4.348 2.315 8.116 5.175 8.42 2.86.302 5.193-3.4 5.212-8.27.018-4.87-2.3-8.639-5.176-8.419-2.877.22-5.21 3.923-5.211 8.27" fill="#FFF"/><path d="M98.157 42.913c-.003 3.514 1.847 6.555 4.134 6.79 2.285.235 4.149-2.694 4.163-6.543.013-3.849-1.838-6.89-4.135-6.79-2.296.099-4.16 3.028-4.162 6.543" fill="#000"/><path d="M87.726 40.743c-.036 6.848-4.949 11.97-10.217 11.508-5.268-.463-10.014-5.738-10.014-11.728 0-5.097 5.62-12.003 10.908-11.922 4.924.104 9.36 5.294 9.323 12.142" fill="#3A0D00"/><path d="M69.014 40.54c-.002 5.439 3.833 10.154 8.567 10.533 4.734.38 8.596-4.254 8.626-10.347.03-6.093-3.805-10.81-8.567-10.533-4.761.275-8.624 4.907-8.626 10.346" fill="#FFF"/><path d="M70.707 42.24c-.004 4.398 3.06 8.202 6.844 8.497 3.783.294 6.867-3.371 6.89-8.187.021-4.816-3.042-8.62-6.844-8.497-3.8.124-6.885 3.79-6.89 8.187" fill="#000"/><path d="M96.753 27.374l-.02.016c-.671.525-1.198 1.287-1.714 2.037.23-1.164.461-2.369.294-3.55-.166-1.18-.843-2.336-1.792-2.51h-.014c-.95.174-1.627 1.33-1.794 2.51-.166 1.181.065 2.386.296 3.55-.517-.75-1.044-1.512-1.714-2.037a.237.237 0 0 1-.02-.016c-1.135-.872-2.55.432-2.327 2.073.248 1.83 1.084 3.619 1.895 5.233l2.36 4.69h2.62l2.361-4.69c.812-1.614 1.647-3.404 1.896-5.233.223-1.641-1.194-2.945-2.327-2.073" fill="#380D00"/><path d="M91.093 43.217s.54 2.977 2.69 2.977 2.15-3.084 2.15-3.084l-4.84.107z" fill="#A44118"/><path d="M94.236 37.196c-1.437-.01-3.275 2.749-3.2 6.487l7.569-.137s-2.932-6.34-4.37-6.35" fill="#CA6E13"/></g></svg>