<svg width="127" height="186" viewBox="-1 -1 127 186" xmlns="http://www.w3.org/2000/svg"><path fill="#C1B4D8" d="M41.75 11.921l-3.6 5.488-5.4 15.016-2.5 13.722-.5 16.864v19.258l4.059 3.792 11.141 4.39 11.781 1.995 18.459-.897 11.76-1.197 9.2-3.992 4.8-3.093-3.1-33.228-2.998-16.964-4.488-10.676-3.914-6.287-7.576-7.883-8.224-5.987-8.4-.998-7.927 1.597-7.173 4.091-5.4 4.989"/><path fill="#897AB8" d="M30.35 84.364l1.6 14.369 6.4 1.596 9.1 2.495 11.5 2.195 6.825-.399 7.475.698 9.9-.798 10.547-3.193 7.253-5.289.6-4.689-.6-8.082-3.6 1.995-4.807 3.293-5.293 2.195-5.9.699-6.16.997h-3.14l-9.7.399-4-.399-4.027-.408-4.773-.689-5.8-1.098-3.9-1.097-5.1-2.096-4.4-2.694"/><path fill="#F7EC1E" d="M61.425 112.329L57 114.95l-3.3 3.964-2.175 7.035-.525 9.804 2.85 13.62 4.575 13.247 3.425 8.606 3.5 7.484.6 2.544.725.524.875-2.02 6.025-14.145 5.1-13.246 2.25-11.001 2.025-9.404-.9-8.782-4.425-6.886-4.375-3.442-1.625-.523h-10.2"/><path fill="#FBF5A8" d="M63.75 123.928l-1.9 1.048-1.1 3.069v5.612l2.1 9.505 3.1 9.879h1.025l3.975-12.498 1.8-10.678-.975-4.14-1.725-1.797-5.175-.598-1.125.598"/><path fill="#EF463C" d="M69.35 65.304h-2.4l-2.8 1.497-1.7 3.493-.6 9.779.7 16.165.6 14.269 1.3 10.178 2.3 10.477 3.6-16.864 1.6-16.763 1.3-14.668v-9.081l-1.2-5.189-1.4-2.494-1.3-.799m-40.2-4.29l-3.799-1.636H18.35l-6 2.734s-3.9 4.989-4.099 5.288c-.2.299-2.501 10.976-2.501 10.976l.6 8.581 2.501 10.877 7.3 16.066 7.6 12.588 2.9 3.377.4-1.697-1.7-8.082-.4-9.779 1.1-7.484 3.1-3.193 2.8-1.397-1.5-14.668-.9-8.681-.5-9.58.099-4.29zm70.1 1.297l1.3 14.269.8 10.976.7 8.482 2.792 1.197 3.808 2.894 2.7 4.79 1.7 5.787v5.588l5.1-9.48 5.1-15.267 2.2-11.973-2.2-11.276-4.9-5.987-6.9-2.933-6.608.538-5.592 2.395M75.95 5.733l-5.8-3.293-9.4-.898-8.55 2.096-4.75 3.393 3.481 1.995 7.819 1.497 7.8-.599s5.5-1.596 5.8-1.696c.3-.1 3.6-2.495 3.6-2.495zM65.567 19.005l-8.317.998-3.989 3.791-1.061 4.391v5.787l2.123 5.089 5.527 4.69 5 1.896 8.4-1.497 4.9-4.191 1.2-7.633-1.2-5.239-3.6-4.088-5-2.797-3.983-1.197"/><path fill="#FFF" d="M65.961 24.394l-5.311.698-2.7 3.493v5.089l2.7 4.191 5.311 1.696 5.989-1.397 2-2.395v-3.738l-1.9-4.145-3.1-2.794-2.989-.698M3.95 174.968h-1.4l-1.1 1.098v2.095l1.539.399 1.774-.998v-1.696l-.813-.898m37.3-44.703l-3.1 5.089-1.7 3.891-1.875 3.618-3.713 5.5-6.037 5.314s-2.663 4.341-2.663 4.453v3.929l2.513 2.507 3.375.935 3.45-.785 3 2.132 3.037.936h4.013l2.625-2.881.75-3.555-.337-2.844-1.087-1.647-.788-.486 1.913-.748.675-1.011.563-3.517-.637-2.732-.863-2.132-1.087-1.46-.975-1.609-.563-2.957.337-10.34-.826.4zm51.487-13.072l4.276 3.966 5.024 4.94 4.35 2.058 4.688.299 3.488.674 2.062 1.384 1.462 1.871.3 1.909-.862 3.33-2.925.524.675 2.582-.15 3.255-3.45 1.609-4.575-.673-1.8-1.684-1.2 2.881-2.55 1.347-4.387.824-2.926-1.871-1.312-4.229v-6.137l1.838-4.266.374-2.469-.074-2.582-.6-3.405-2.176-5.575.45-.562"/><g fill="#30419A"><path d="M125.906 78.105c-.059-2.251-.481-4.464-.89-6.682-.467-2.535-1.522-4.738-3.017-6.798-1.206-1.659-2.921-2.689-4.553-3.816-.675-.466-1.476-.78-2.258-1.059-.784-.279-1.622-.403-2.423-.639-1.682-.496-3.428-.497-5.148-.657-.88-.082-1.803.023-2.675.202-1.081.224-2.229.177-3.216.876-.529.375-1.234.503-1.94.773-.091-.776-.194-1.496-.256-2.219-.148-1.73-.245-3.464-.421-5.19a93.263 93.263 0 0 0-.624-4.828c-.3-1.935-.64-3.864-1.005-5.787-.22-1.165-.525-2.315-.78-3.474-.336-1.527-.494-3.089-1.055-4.575-.406-1.074-.622-2.22-.937-3.33-.674-2.383-1.646-4.654-2.573-6.946-.745-1.844-2.127-3.271-3.054-4.99-.346-.645-.782-1.246-1.209-1.844-.877-1.231-1.326-2.793-2.776-3.59-.152-.083-.221-.31-.337-.463a31.065 31.065 0 0 0-.59-.764c-.481-.596-.962-1.191-1.449-1.782-.387-.468-.737-.98-1.187-1.378-.619-.549-1.362-.961-1.972-1.517-1.117-1.016-2.233-2.018-3.566-2.757a9.504 9.504 0 0 1-1.497-1.047c-1.79-1.512-3.924-2.338-6.144-2.863-1.775-.419-3.621-.534-5.437-.78a.899.899 0 0 0-.287.021c-1.196.24-2.398.455-3.583.741-.388.094-.717.127-1.119.044-.421-.087-.958-.114-1.316.075-1.275.673-2.796.82-3.912 1.827-.108.097-.303.092-.448.157-.639.287-1.285.562-1.91.878-1.453.732-2.658 1.901-4.239 2.413-.082.026-.141.124-.211.188-.693.624-1.413 1.219-2.071 1.877-1.06 1.059-2.048 2.183-3.137 3.22-1.339 1.275-2.541 2.707-3.4 4.39-.324.636-.582 1.207-.173 1.761-.574 1.239-1.142 2.386-1.638 3.562-.498 1.179-.93 2.386-1.375 3.587-.084.225-.034.513-.149.713-.764 1.318-1.101 2.763-1.359 4.242-.153.884-.368 1.759-.569 2.635-.436 1.902-1.012 3.783-1.284 5.708-.294 2.087-.883 4.121-.954 6.255-.061 1.855-.459 3.695-.619 5.55-.159 1.851-.202 3.712-.308 5.567-.03.541-.132 1.078-.147 1.619-.025.947-.007 1.894-.007 2.9-.943-.346-1.76-.683-2.6-.945-.763-.237-1.543-.486-2.332-.562-1.565-.151-3.141-.191-4.713-.263-.249-.012-.518.002-.749.084a48.05 48.05 0 0 0-2.136.827c-.459.187-.918.381-1.357.61-.734.382-1.453.793-2.177 1.194-.251.138-.538.24-.744.428-1.349 1.229-2.863 2.32-3.564 4.109-.117.296-.171.658-.376.871-1.136 1.181-1.539 2.61-1.706 4.2-.087.836-.573 1.624-.789 2.456-.125.479-.078 1.006-.098 1.511-.015.384.079.799-.035 1.148-.482 1.477-.027 3.059-.542 4.53-.067.191.04.442.063.665.097.912.197 1.824.286 2.736.098 1.018.169 2.039.282 3.056.155 1.395.807 2.684.874 4.11.028.588.299 1.165.465 1.746.129.454.309.898.393 1.36.18.994.285 2.001.477 2.991.089.457.357.877.468 1.332.302 1.238.6 2.471 1.313 3.561.208.316.346.678.508 1.024.797 1.698 1.313 3.525 2.373 5.102.174.259.225.596.375.874.378.701.808 1.374 1.167 2.084.561 1.109 1.079 2.24 1.618 3.36.11.228.239.447.353.673.258.507.499 1.023.771 1.523.292.538.707 1.029.897 1.598.402 1.207 1.14 2.22 1.773 3.29.687 1.159 1.543 2.218 2.204 3.389 1.064 1.886 2.357 3.576 3.93 5.06.093.087.163.199.245.298l1.086 1.313 1.175-.233c.028-.217.108-.415.07-.588-.367-1.632.102-3.327-.417-4.956-.271-.849-.477-1.747-.523-2.632-.106-2.086-1.004-4.061-.819-6.186.032-.371-.131-.757-.174-1.139-.087-.765-.202-1.532-.215-2.299-.012-.736.092-1.474.14-2.21.063-.961.064-1.93.196-2.881.144-1.044.421-2.069.612-3.107.181-.985.358-2.006.978-2.789.9-1.137 1.964-2.114 3.543-2.268.433-.041.976-.116 1.25-.392.618-.622 1.187-.443 1.846-.176 2.257.915 4.523 1.807 6.909 2.351.713.162 1.419.357 2.119.567.633.19 1.243.462 1.882.627.897.231 1.817.368 2.712.604.492.129 1.158.245 1.384.597.386.603.944.532 1.446.758.455-.761 1.091-.375 1.644-.267.939.183 1.857.469 2.795.661.811.165 1.641.237 2.455.388 1.524.283 3.04.45 4.668-.118l.216 4.04c-.043-.006-.076-.008-.116-.013.111.31.155.626.116.963-.024.207-.142.32-.347.346-.307.04-.616.046-.926.048-.654.266-1.365.542-2.066.85-.55.241-1.146.445-1.611.807a18.01 18.01 0 0 0-2.25 2.06c-.838.923-1.575 1.937-2.347 2.919-.077.097-.111.231-.15.354-.446 1.393-.902 2.784-1.327 4.183-.354 1.164-.674 2.338-1.002 3.509-.076.273-.163.551-.178.829-.052 1.024-.078 2.051-.112 3.075-.016.511-.04 1.022-.037 1.532.003.435.074.871.055 1.304-.033.732-.289 1.5-.134 2.182.228 1.001.143 1.984.197 2.976.059 1.086.045 2.182.454 3.223.151.386.272.789.357 1.194.264 1.254.477 2.519.768 3.767.159.683.453 1.333.648 2.009.188.648.293 1.32.494 1.963.369 1.185.504 2.424.981 3.592.455 1.113.646 2.332 1.044 3.472.367 1.054.857 2.066 1.289 3.099.385.917.755 1.84 1.148 2.754.883 2.058 2.031 3.996 2.751 6.129.276.818.675 1.594.957 2.41.522 1.509.954 3.05 1.833 4.413.424.656.688 1.364.744 2.165.034.469.164.974.398 1.377.444.762.736 1.541.803 2.427.052.69.191 1.374.313 2.056.097.552.663.953 1.29.933.563-.017.646-.413.68-.861.014-.188.07-.379.135-.559.366-1.022.748-2.039 1.111-3.063.654-1.848 1.246-3.72 1.962-5.544.937-2.389 1.986-4.735 2.957-7.112 1.274-3.12 2.574-6.232 3.763-9.386 1.152-3.057 2.385-6.092 3.018-9.327.301-1.541.837-3.035 1.225-4.562.237-.932.387-1.885.591-2.825.231-1.067.507-2.123.714-3.194.233-1.199.419-2.408.611-3.615.13-.822.298-1.646.332-2.474.038-.963-.037-1.932-.089-2.896-.06-1.117-.089-2.241-.245-3.347-.134-.945-.385-1.882-.663-2.799-.288-.948-.582-1.914-1.036-2.788-.529-1.019-1.273-1.926-1.854-2.923-.782-1.342-1.998-2.245-3.152-3.203-.999-.829-2.146-1.489-3.096-2.365-.525-.485-.992-.604-1.623-.501-.137.023-.289-.052-.448-.085 0-.589-.006-1.134.002-1.677.008-.547.022-1.094.049-1.64.032-.655.533-1.235 1.089-1.27.37-.024.742-.036 1.113-.045 1.974-.045 3.945-.106 5.871-.626.231-.062.532-.034.751.063.524.23.972.281 1.392-.2.11-.126.324-.18.5-.226 1.714-.445 3.434-.869 5.145-1.324.805-.215 1.596-.488 2.394-.731.948-.288 1.936-.486 2.839-.88 1.559-.676 3.108-1.398 4.577-2.247.901-.519 1.868-.97 2.58-1.829.495-.598 1.23-.998 1.78-1.426.66.225 1.194.452 1.751.591 2.188.544 3.75 1.982 5.001 3.711 1.552 2.147 2.575 4.563 3.251 7.148.417 1.597.733 3.141.713 4.819-.016 1.438-.22 2.829-.51 4.194-.338 1.601-1.084 3.082-1.933 4.499-.203.34-.299.772-.343 1.173-.047.426.382 1.034.802 1.059.599.035 1.296.52 1.798-.165.279-.378.596-.837.616-1.273.047-1.045.355-2.016.575-3.018.231-1.049.518-2.045 1.152-2.931.24-.336.413-.731.563-1.119.729-1.886 1.396-3.798 2.172-5.665.578-1.392 1.33-2.712 1.93-4.096.909-2.094 1.76-4.212 2.621-6.326.279-.684.621-1.365.747-2.081.364-2.06 1.188-3.994 1.517-6.074.37-2.34 1.117-4.611 1.473-6.97a37.7 37.7 0 0 0 .401-6.597zM52.472 4.77c1.414-.498 2.715-1.25 4.223-1.559 1.849-.379 3.694-.737 5.571-.925.412-.041.844-.089 1.243-.012 1.575.306 3.163.472 4.761.594.399.031.782.264 1.173.402 1.751.615 3.445 1.334 4.912 2.673-.482.529-1.082.876-1.702 1.155-1.524.683-3.048 1.326-4.758 1.496-1.138.112-2.24.549-3.368.795a18.65 18.65 0 0 1-6.405.266 26.299 26.299 0 0 0-1.957-.166c-1.846-.097-3.509-.791-5.205-1.384-.6-.21-1.165-.52-1.738-.801-.131-.064-.228-.199-.345-.305 1.113-.941 2.254-1.758 3.595-2.229zM31.624 42.742c.454-2.814.974-5.616 1.486-8.42.086-.471.284-.921.394-1.388.329-1.404.554-2.838.977-4.211.784-2.542 1.585-5.086 2.874-7.435.6-1.097 1.224-2.181 1.814-3.283.188-.352.45-.692.261-1.168-.064-.162.041-.487.181-.617.752-.7 1.053-1.716 1.808-2.426.721-.678 1.321-1.484 1.977-2.232.424-.484.825-.992 1.284-1.439.708-.69 1.458-1.337 2.27-2.075.398.202.731.388 1.076.545 1.368.622 2.7 1.363 4.123 1.815 1.486.472 3.05.832 4.601.936 2.712.182 5.442.465 8.154-.146 1.12-.252 2.277-.336 3.395-.593.612-.14 1.2-.392 1.815-.563 1.796-.499 3.504-1.245 5.134-2.158.359-.201.734-.373 1.147-.582 2.3 1.497 4.286 3.395 6.143 5.433.861.944 1.664 1.941 2.495 2.914.228.268.487.514.684.803.423.622.73 1.281 1.332 1.829.585.533.981 1.363 1.236 2.184.064.207.156.414.274.596.606.926 1.303 1.804 1.815 2.778.558 1.059.969 2.199 1.406 3.318.279.714.498 1.452.729 2.183.27.856.522 1.717.787 2.574.396 1.285.809 2.566 1.189 3.856.171.579.291 1.173.415 1.765.375 1.774.745 3.55 1.101 5.329.055.276-.036.586.042.851.148.499.598.972.045 1.481-.384.354-.453.988-1.11 1.119-.288.058-.553.324-.788.538a18.038 18.038 0 0 1-5.43 3.459c-.947.387-1.831.928-2.76 1.365-.433.204-.905.326-1.36.486-1.061.375-2.106.803-3.185 1.114a45.425 45.425 0 0 1-7.553 1.502c-1.112.123-2.224.253-3.338.347-.447.038-.902-.021-1.353-.016-.573.006-1.163-.049-1.714.068-1.128.239-2.236.178-3.365.056a10.612 10.612 0 0 0-2.39-.008c-.975.117-1.924.037-2.885-.066-1.283-.138-2.578-.193-3.851-.389-2.538-.388-5.057-.891-7.596-1.261-1.795-.262-3.483-.875-5.21-1.365-.925-.262-1.863-.482-2.793-.731-2.558-.684-4.872-1.784-6.686-3.792-.373-.413-.907-.682-1.49-1.107.118-1.171.184-2.484.393-3.773zM29.041 98.65c-.807.39-1.457.942-2.074 1.643-1.054 1.195-1.563 2.52-1.773 4.048-.206 1.495-.536 2.972-.731 4.468-.125.952-.33 1.983-.093 2.871.351 1.314-.156 2.556.04 3.85.312 2.055.474 4.129.851 6.182.34 1.857.483 3.751.705 5.629.018.153-.021.312-.051.686-.633-.688-1.209-1.212-1.661-1.826a106.18 106.18 0 0 1-3.087-4.42c-.529-.802-.948-1.678-1.402-2.527-1.107-2.066-2.206-4.137-3.308-6.206-.045-.087-.103-.168-.131-.26-.748-2.457-2.323-4.511-3.353-6.833-.779-1.757-1.751-3.432-2.463-5.213-.629-1.572-1.062-3.227-1.498-4.868-.52-1.956-.95-3.935-1.417-5.905-.666-2.806-1.191-5.625-1.181-8.532.008-2.323-.029-4.655.368-6.939.308-1.762.807-3.512 1.424-5.194.459-1.251 1.179-2.424 1.899-3.558.816-1.285 1.882-2.383 3.241-3.107a67.33 67.33 0 0 1 4.587-2.229c.537-.236 1.188-.287 1.787-.287.883 0 1.766.124 2.65.191.159.012.32.016.478.004 1.051-.085 2.029.165 2.985.588.925.409 1.87.773 2.806 1.156-.041 1.411-.286 2.664.004 3.921a.498.498 0 0 1-.006.284c-.406.983-.027 1.975-.003 2.955.039 1.593.236 3.182.347 4.774.029.409.01.824-.021 1.234-.129 1.696.296 3.36.29 5.049-.002.441.059.85-.379 1.212-.325.269-.358.732.036 1.097.376.348.505.786.507 1.304.003 1.259.238 2.486.524 3.713.194.835.137 1.724.301 2.569a20.79 20.79 0 0 1 .37 3.916c.005 1.002.346 2.002.528 3.004.04.217.038.441.056.661-.744.305-1.467.563-2.152.895zm3.763-1.023c-.168-.069-.314-.344-.356-.547-.129-.626-.25-1.26-.287-1.895-.053-.927-.013-1.859-.043-2.786a12.39 12.39 0 0 0-.148-1.527c-.253-1.603-.526-3.201-.812-4.922.3.048.487.021.575.101 1.145 1.033 2.531 1.656 3.895 2.32.422.205.762.484.788.995.086 1.685.195 3.368.237 5.053.026 1.015-.079 2.033-.075 3.049.003.52.118 1.041.197 1.684-1.427-.542-2.708-1.012-3.971-1.525zm16.625 4.968c-2.907-.444-5.55-1.208-8.146-2.171-.803-.298-1.688-.37-2.535-.553-.246-.054-.485-.137-.851-.242.094-.433.192-.823.262-1.217.089-.5.193-1.001.224-1.506a15.9 15.9 0 0 0 .006-1.928c-.087-1.408-.215-2.814-.317-4.221-.021-.282-.003-.565-.003-.972 1.019.235 1.94.455 2.865.658 2.322.508 4.646 1.012 6.971 1.509.987.212 1.086.286 1.15 1.317.086 1.376.119 2.755.207 4.13.087 1.371.229 2.738.314 4.11.021.334-.088.677-.147 1.086zm2.019.518c-.726-3.513-.458-7.035-.777-10.663 1.964.219 3.82.423 5.676.633 1.832.208 3.702.122 5.608.624-.004 3.515.213 6.972.292 10.495-3.692.537-7.198-.241-10.799-1.089zm21.461 10.358c.097-.028.26.139.379.233.652.509 1.3 1.022 1.951 1.534.025.019.057.031.082.051 2.606 2.085 4.655 4.556 5.713 7.793a29.112 29.112 0 0 1 1.116 4.849c.044.305-.05.627-.042.939.024.948.184 1.909.078 2.84-.209 1.83-.536 3.649-.862 5.464-.295 1.639-.669 3.264-.979 4.901-.117.62-.102 1.268-.243 1.881-.097.422-.366.803-.547 1.207-.182.402-.441.796-.506 1.218-.226 1.459-.665 2.869-.951 4.304-.291 1.463-.838 2.815-1.319 4.197-.525 1.508-1.182 2.971-1.783 4.453a3000.05 3000.05 0 0 1-1.286 3.173c-.085.209-.198.409-.252.624-.341 1.376-.941 2.635-1.631 3.87-.357.637-.525 1.376-.804 2.059-.338.831-.711 1.648-1.055 2.478-.453 1.092-.886 2.193-1.341 3.285-.358.855-.756 1.694-1.096 2.556-.188.472-.261.988-.443 1.463-.117.304-.338.567-.513.849l-.278-.067c-.373-.99-.747-1.979-1.118-2.97-.146-.39-.217-.828-.44-1.167-.829-1.255-1.063-2.747-1.688-4.071-.719-1.522-1.141-3.135-1.726-4.697-.279-.743-.754-1.411-1.094-2.135-.575-1.219-1.112-2.457-1.667-3.686-.461-1.016-.966-2.013-1.377-3.049-.438-1.102-.8-2.235-1.17-3.363-.471-1.435-.968-2.864-1.361-4.321-.453-1.673-.811-3.371-1.198-5.061-.416-1.813-.858-3.621-1.214-5.447-.225-1.158-.357-2.338-.45-3.515-.076-.957-.067-1.925-.031-2.884.05-1.316.144-2.63.25-3.943.083-1.022.151-2.053.337-3.059.524-2.844 1.15-5.669 2.629-8.205.368-.63.86-1.207 1.377-1.726 1.021-1.025 2.131-2.002 3.492-2.503.897-.33 1.804-.841 2.871-.712.493 3.15.844 6.3 1.162 9.366l-.898.707c-.101.079-.189.2-.303.231-1.307.357-1.816 1.404-2.228 2.535-.087.242-.084.536-.223.735-.759 1.083-.557 2.287-.518 3.483.033 1.017.006 2.036.011 3.054.001.225-.022.464.043.672.458 1.474.561 3.008.807 4.518.066.41.18.822.338 1.206.475 1.151.816 2.334 1.099 3.549.557 2.39 1.401 4.703 2.045 7.071.3 1.104.724 2.139 1.162 3.187.216.52.095 1.178.139 1.773.022.286.045.579.119.854.172.64.659.892 1.302.958.397-.368.513-.836.494-1.378-.013-.349.02-.712.105-1.05.519-2.073.835-4.193 1.818-6.146.453-.901.555-1.974.848-2.959.438-1.474.997-2.9 1.609-4.315.452-1.047.595-2.226.875-3.347.062-.249.072-.523.185-.746.547-1.07.538-2.229.617-3.383.061-.884.313-1.76.316-2.641.008-1.889-.048-3.785-1.147-5.454-.345-.524-.347-1.228-.859-1.666-.408-.35-.779-.781-1.249-1.01-.537-.261-.54-.617-.514-1.096.079-1.419.356-2.799.673-4.18.214-.935.275-1.904.402-2.858.085-.632.165-1.265.261-2.003.538.428.99.895 1.699.693zm-8.642 11.622c.151.751.288 1.503.457 2.248.221.982.477 1.956.702 2.937.185.81.396 1.62.496 2.442.053.434.221.726.536.971.677.529 1.23.354 1.409-.476.169-.781.261-1.579.418-2.362.401-1.982.818-3.959 1.232-5.937.019-.088.078-.167.142-.3.668.912 1.462 1.654 1.854 2.733.534 1.465.828 2.91.485 4.461-.116.526-.009 1.099-.117 1.628-.244 1.192-.556 2.37-.846 3.553-.34 1.39-.684 2.779-1.034 4.166-.038.152-.123.293-.187.439-.387.876-.824 1.735-1.148 2.634-.213.594-.255 1.249-.391 1.872-.141.653-.123 1.446-.5 1.918-.55.688-.696 1.496-1.055 2.231-.187.383-.262.82-.55 1.216-.472-1.513-.942-3.026-1.417-4.538-.114-.364-.204-.742-.369-1.084-.524-1.08-.675-2.26-.984-3.4-.334-1.231-.811-2.426-1.103-3.666-.343-1.463-.588-2.954-.815-4.442a27.465 27.465 0 0 1-.287-3.056c-.033-.83.026-1.667.096-2.496.084-.987.27-1.952.797-2.825.483-.801 1.041-1.071 2.179-.867zm7.577-34.313c-.096 1.146-.296 2.283-.415 3.429-.093.88-.126 1.766-.193 2.649-.123 1.589-.125 3.201-.416 4.76-.247 1.328-.238 2.656-.379 3.979-.117 1.1-.358 2.186-.521 3.282-.056.375-.027.762-.067 1.14-.122 1.168-.171 2.354-.412 3.498-.355 1.685-.319 3.422-.821 5.091-.281.937-.299 1.956-.421 2.939-.111.888-.166 1.785-.312 2.668-.093.564-.331 1.104-.457 1.665-.084.37-.09.758-.124 1.138-.044.494-.037 1.005-.505 1.546-.422-1.96-.873-3.747-1.178-5.558-.334-1.986-.535-3.995-.79-5.995-.178-1.398-.403-2.793-.513-4.197-.162-2.05-.25-4.106-.351-6.161-.13-2.632-.249-5.265-.358-7.898-.108-2.623-.165-5.249-.308-7.87-.069-1.276-.336-2.541-.423-3.816a145.432 145.432 0 0 1-.344-9.706c-.003-2.132.41-4.204.596-6.304.081-.91.424-1.817.766-2.678.567-1.43 1.785-2.136 3.184-2.579.274-.087.558-.138.803-.198 1.188.507 2.199 1.167 2.958 2.238.729 1.028 1.156 2.12 1.273 3.354.025.255 0 .546.114.756.867 1.583.586 3.311.669 4.992.031.605.014 1.212.009 1.818a251.63 251.63 0 0 1-.039 3.011 5.867 5.867 0 0 1-.071.859c-.264 1.6-.591 3.193-.792 4.801-.139 1.105-.068 2.235-.162 3.347zm8.023 13.607c-.363.114-.758.136-1.14.185-1.017.131-2.033.282-3.054.371-.407.036-.825-.077-1.239-.11a14.808 14.808 0 0 0-1.789-.054c-.469-.128-.563-.49-.512-.953.213-2.007.423-4.014.613-6.023.096-1.01.126-2.026.224-3.036.051-.539.183-1.07.289-1.668l5.917-.777c.316.605.413 1.164.404 1.802-.012.983.148 1.969.239 2.954.103 1.111.241 2.221.307 3.336a60.36 60.36 0 0 1 .086 3.509c0 .162-.191.416-.345.464zm-.67-13.718c-1.812.227-3.628.423-5.443.622-.117.012-.244-.064-.438-.121 0-.343-.025-.694.004-1.041.182-2.172.261-4.36.593-6.51.456-2.949.417-5.893.283-8.849-.04-.866-.094-1.731-.148-2.595-.029-.471-.082-.895-.387-1.334-.268-.387-.224-.985-.344-1.482-.598-2.475-1.969-4.279-4.46-5.12-.281-.094-.527-.289-.914-.51-.138.031-.44.119-.748.168-2.343.371-3.943 1.609-4.662 3.913-.322 1.034-.807 2.016-.942 3.11-.062.503-.193.998-.267 1.499-.113.76-.266 1.521-.291 2.284a78.59 78.59 0 0 0-.03 4.707c.076 2.865.184 5.73.328 8.593.043.855.263 1.7.378 2.554.056.411.056.829.083 1.298-.288.06-.584.224-.763.14-.839-.388-1.706-.193-2.564-.231-.861-.038-1.716-.179-2.575-.274-1.011-.113-2.024-.209-3.032-.344-.668-.089-1.325-.245-1.991-.351-1.2-.192-2.404-.368-3.606-.552-.19-.029-.379-.061-.568-.095-1.262-.233-2.523-.468-3.785-.702-.157-.029-.324-.037-.47-.096-1.664-.664-3.318-1.356-4.991-1.998-1.332-.512-2.519-1.253-3.62-2.137-.723-.581-1.462-1.163-2.08-1.848a3.023 3.023 0 0 1-.713-1.523 59.328 59.328 0 0 1-.439-4.708c-.141-2.427-.21-4.857-.328-7.286-.05-1.049-.227-2.097-.204-3.143.06-2.595.208-5.188.306-7.782.02-.513-.058-1.031-.032-1.544.12-2.343.252-4.685.4-7.025.032-.507.147-1.008.238-1.6.826.714 1.418 1.485 2.363 1.84.38.142.687.465 1.055.656a20.33 20.33 0 0 0 6.144 2.026 8.01 8.01 0 0 1 2.187.698c1.158.562 2.403.706 3.634.928 2.178.391 4.36.765 6.545 1.12 1.642.266 3.284.598 4.939.71 3.306.224 6.618.192 9.93-.016 1.11-.07 2.226-.009 3.339-.046.544-.018 1.086-.123 1.628-.191.541-.067 1.081-.142 1.622-.206.472-.055.953-.063 1.417-.155 1.533-.303 3.054-.672 4.591-.946 1.928-.343 3.735-1.073 5.573-1.685 1.387-.462 2.729-1.103 3.94-1.961.102-.073.234-.109.356-.146 1.639-.501 3.037-1.418 4.365-2.474.461-.367 1.024-.604 1.534-.912.135-.08.247-.199.447-.365.368 1.11.718 2.169.636 3.342-.036.497.107 1.005.154 1.51.139 1.497.258 2.997.41 4.492.095.927.243 1.848.354 2.774.053.437.148.887.099 1.317-.166 1.459.066 2.882.279 4.314.089.599.089 1.21.153 1.814.2 1.875.432 3.747.608 5.624.084.896.063 1.802.099 2.703.043 1.092.074 2.186.154 3.276.055.736.197 1.465.276 2.199.069.634.104 1.27.159 1.985-.703-.03-1.167.236-1.587.676-1.054 1.103-2.325 1.916-3.681 2.604-.601.305-1.168.683-1.784.951a143.371 143.371 0 0 1-4.181 1.722c-.741.295-1.482.657-2.256.784a38.13 38.13 0 0 1-3.368.412c-1.311.094-2.605.376-3.911.539zm12.098 10.972c-2.992.963-6.05 1.686-9.176 2.377-.029-4.053-.962-7.89-.917-11.887 1.641-.26 3.246-.551 4.863-.757 1.612-.204 3.046-.957 4.664-1.511.349 3.992.792 7.847.566 11.778zm9.521-6.36c-1.089 1.037-1.913 2.388-3.345 3.162-1.343.726-2.567 1.671-4.13 2.161-.054-.334-.132-.664-.158-.999-.238-3.071-.491-6.14-.688-9.214-.073-1.161.007-1.131 1.086-1.606 1.323-.583 2.547-1.344 3.71-2.206.916-.679 1.855-1.33 3.019-2.162.036.954.068 1.676.088 2.397.016.572.004 1.145.028 1.717.051 1.217.119 2.434.18 3.651.007.161-.045.348.019.479.417.844.363 1.723.191 2.62zm23.221-12.922c-.231 1.717-.636 3.404-.861 5.107-.25 1.899-.948 3.679-1.174 5.573-.11.91-.536 1.777-.732 2.681-.294 1.351-.838 2.601-1.312 3.888-.742 2.017-1.711 3.921-2.574 5.877-.565 1.28-1.067 2.587-1.61 3.879-.477 1.134-.97 2.262-1.456 3.393l-.197-.033c-.035-.231-.092-.461-.101-.692-.054-1.398-.474-2.707-.947-4.005-.538-1.475-1.099-2.942-1.618-4.425-.856-2.443-2.371-4.405-4.434-5.924-1.054-.777-2.289-1.273-3.554-1.635-.413-.118-.741-.287-.82-.702a74.117 74.117 0 0 1-.583-3.508c-.047-.337.095-.696.084-1.044-.082-2.375-.118-4.754-.294-7.123-.134-1.791-.507-3.563-.677-5.354-.169-1.788-.186-3.592-.332-5.384-.104-1.274-.342-2.537-.467-3.81-.129-1.309-.187-2.623-.288-3.935-.066-.859-.157-1.717-.245-2.669 1.183-.558 2.214-1.175 3.33-1.533.992-.318 2.074-.452 3.122-.482 1.184-.035 2.373.193 3.562.203 1.509.012 2.9.544 4.335.863 1.032.23 1.952.782 2.901 1.266 1.205.611 2.064 1.612 3.164 2.319.154.1.296.254.385.416.671 1.221 1.358 2.434 1.973 3.682.294.595.492 1.25.642 1.899.253 1.092.483 2.193.635 3.303.36 2.627.5 5.256.143 7.909z"/><path d="M31.056 165.661c-1.04.93-2.3.809-3.487.513-1.308-.325-2.594-.799-3.825-1.352-2.086-.935-3.234-3.542-2.689-5.764a12.264 12.264 0 0 1 3.475-6.04c.86-.826 1.767-1.605 2.676-2.379 2.239-1.906 4.353-3.884 5.882-6.472a52.61 52.61 0 0 0 3.507-7.092c.553-1.373 1.129-2.752 1.86-4.034.823-1.443 1.477-2.966 2.292-4.409.219-.386.351-.823.529-1.234.076-.176.143-.364.258-.513.228-.296.515-.498.919-.345.375.142.592.432.553.82-.138 1.402-.305 2.8-.465 4.2-.095.829-.254 1.655-.282 2.486-.047 1.418.049 2.842-.028 4.258-.106 1.943.744 3.641 1.264 5.424.084.286.369.52.579.762.981 1.128 1.888 2.308 2.275 3.781.187.709.321 1.45.34 2.181.029 1.092-.034 2.19-.111 3.281-.1 1.416-.739 2.456-2.188 2.806-.012.108-.049.193-.023.222.98 1.06 1.337 2.321 1.271 3.739-.033.708-.004 1.419-.009 2.129-.021 2.673-1.377 4.567-3.543 5.96-.756.487-1.642.607-2.519.554-2.088-.126-4.091-.63-5.913-1.671-.888-.507-1.687-1.169-2.598-1.811zm9.635-32.407c-.477.827-.834 1.457-1.201 2.081-1.342 2.277-2.727 4.53-4.019 6.835-1.273 2.274-2.287 4.707-4.051 6.675a37.044 37.044 0 0 1-2.668 2.649c-1.024.932-2.155 1.748-3.155 2.703-1.325 1.265-2.252 2.782-2.82 4.556-.457 1.423-.382 2.672.637 3.781.361.392.795.78 1.275.989.972.426 1.992.747 3.004 1.073.362.116.759.156 1.142.165 1.124.028 1.868-.666 1.967-1.798.022-.256-.003-.52.049-.769.087-.406.486-.714.839-.654.384.064.659.289.7.694.035.352.074.717.016 1.061-.182 1.078.322 1.783 1.178 2.323.191.12.378.247.576.356 1.343.731 2.755 1.301 4.278 1.461.851.088 1.836.201 2.566-.127 1.667-.75 2.787-2.117 2.983-3.999.126-1.212.066-2.449.031-3.673-.024-.814-.393-1.49-1.093-1.948-.459-.299-.914-.61-1.399-.859-.407-.209-.739-.436-.647-.943.094-.52.492-.6.949-.626.644-.036 1.29-.086 1.925-.194.83-.142 1.153-.429 1.215-1.269.099-1.346.201-2.71.086-4.048-.072-.833-.457-1.677-.86-2.431-.375-.7-.97-1.28-1.448-1.928-.285-.387-.631-.768-.778-1.209-.708-2.136-1.497-4.25-1.297-6.586.116-1.361.02-2.744.02-4.341zm75.375 5.864c.104.993.221 2.041.319 3.091.098 1.053-.466 1.921-.85 2.833-.067.162-.33.272-.526.346-.359.138-.774.163-1.095.353a5.544 5.544 0 0 1-3.36.732c-1.646-.168-3.488.024-4.781-1.599-.225.391-.409.679-.562.982-.474.939-1.19 1.578-2.207 1.903-1.565.5-3.103 1.056-4.771 1.192-1.972.163-3.351-.583-4.535-2.168-1.368-1.833-1.667-3.868-1.717-6.017-.03-1.257-.072-2.52.012-3.772.051-.788.25-1.588.516-2.336.367-1.03.84-2.024 1.305-3.016.724-1.549.764-3.187.608-4.828-.107-1.119-.367-2.224-.589-3.329a4.798 4.798 0 0 0-.378-1.093c-.975-2.062-1.966-4.119-2.955-6.175-.166-.346-.214-.689.053-.994.3-.344.697-.321 1.069-.156.586.262 1.155.562 1.729.849a.44.44 0 0 1 .152.117c1.648 2.099 3.694 3.841 5.346 5.935 1.011 1.28 2.264 2.284 3.58 3.226.313.223.635.461.874.756.922 1.135 2.122 1.603 3.556 1.634 1.743.038 3.49.061 5.226.203 2.504.203 4.668 1.132 6.291 3.154.621.775.893 1.63.929 2.583.026.709-.011 1.42.012 2.129.022.688-.222 1.263-.681 1.754-.309.329-.604.695-.976.936-.468.303-1.007.497-1.594.775zm-1.056-2.308c.272.613.81.565 1.32.473.566-.102 1.416-1.174 1.438-1.785.021-.611.019-1.226-.013-1.838a3.093 3.093 0 0 0-.834-2.007c-1.442-1.567-3.277-2.234-5.34-2.352-1.675-.095-3.354-.114-5.031-.169-1.734-.056-3.193-.694-4.331-2.024-.166-.194-.347-.39-.559-.53a19.321 19.321 0 0 1-4.397-4.049c-.745-.93-1.589-1.783-2.424-2.636-.415-.426-.912-.772-1.301-1.096.004.013.04.159.097.297.233.566.54 1.11.695 1.696.475 1.8.921 3.605 1.432 5.397.566 1.984.46 4.084-.482 6.042a43.974 43.974 0 0 0-1.352 3.104 4.93 4.93 0 0 0-.344 1.59c-.045 1.353-.011 2.709-.009 4.066.002 1.88.36 3.625 1.615 5.14.667.805 1.362 1.282 2.45 1.275 1.523-.009 2.898-.566 4.332-.933 1.257-.321 1.914-1.139 2.245-2.287.158-.55.197-1.136.275-1.709.031-.223.006-.452.035-.675.058-.445.319-.71.774-.708.45.002.711.274.788.707.035.188.008.387.035.578.158 1.085 1.361 2.248 2.441 2.282 1.324.042 2.661.118 3.975-.006 1.468-.139 1.902-.539 1.909-2.001.003-.581-.031-1.164.009-1.742.056-.796-.113-1.398-.868-1.866-.798-.495-.675-1.171.187-1.605.374-.187.744-.379 1.233-.629zM2.775 174.508c2.06 0 3.298 1.929 2.53 3.706a10.03 10.03 0 0 1-.362.78c-.34.637-.822 1.057-1.601 1.036-.641-.017-1.277.037-1.835-.415-.972-.787-1.339-2.22-.844-3.487.023-.059.059-.115.079-.176.357-1.041 1.011-1.632 2.033-1.444zm-.299 1.674c-.406.744-.544 1.502-.311 1.834.305.436.738.429 1.179.305.441-.69.753-1.364.08-2.139h-.948zM36.733 54.84c-.062.732-.708.901-1.208 1.009-.289.062-.724-.309-1.016-.572-.291-.263-.291-.949-.095-1.237.19-.281.712-.283 1.203-.139.534.156.867.481 1.116.939zm17.478 3.674c.226 1.057.117 1.501-.401 1.733-.517.23-1.174.155-1.417-.163-.278-.364-.251-1.093.057-1.514.34-.464.784-.484 1.761-.056zm22.326 1.224l.69-1.551c.695.28 1.471.23 1.636 1.094.081.426-.301 1.027-.793 1.217-.702.27-1.035-.29-1.533-.76zm18.315-5.881c-.084.258-.162.465-.218.678-.111.426-.238.772-.816.714-.748-.076-1.001-.208-1.182-.745-.123-.364-.181-.764.197-.934a2.825 2.825 0 0 1 1.251-.217c.236.012.459.29.768.504zM63.99 17.908c1.604.25 3.164.345 4.634.76 1.838.518 3.623 1.21 5.18 2.428 1.087.851 2.163 1.705 3.169 2.648.616.578 1.013 1.286 1.419 2.031.793 1.459 1.273 2.993 1.637 4.593.183.798.208 1.568.139 2.38-.084.99.005 1.992-.006 2.989a10.373 10.373 0 0 1-1.288 4.899c-.822 1.497-2.053 2.696-3.582 3.535-.88.483-1.736 1.024-2.654 1.416-.99.421-1.991.823-3.116.873-1.084.047-2.16.277-3.239.425-.159.022-.33.08-.476.045-1.723-.424-3.584-.557-5.048-1.618-1.05-.761-2.301-1.148-3.281-1.972-1.224-1.029-2.449-2.064-3.303-3.458-.482-.788-.995-1.567-1.576-2.283-.898-1.106-1.2-2.45-1.652-3.739a.347.347 0 0 1-.005-.189c.311-1.238-.096-2.492.069-3.723.149-1.104.402-2.197.665-3.282.249-1.025.616-2.023.841-3.052.121-.551.346-.983.705-1.404.372-.436.602-.998.994-1.411.82-.86 1.768-1.672 2.95-1.834.862-.118 1.668-.41 2.518-.521 1.457-.191 2.915-.363 4.306-.536zm14.52 15.956c.182-1.948-.247-3.826-.818-5.624-.393-1.243-.969-2.513-2.096-3.364-.204-.154-.474-.234-.648-.412-.987-1.007-2.062-1.886-3.368-2.46-.872-.383-1.68-.886-2.668-1.02-1.07-.144-2.117-.453-3.18-.662-.469-.093-.957-.189-1.429-.162-1.847.108-3.663.577-5.531.465-.112-.007-.232.085-.346.136-.32.141-.633.299-.958.426-1.659.646-2.961 1.629-3.373 3.48-.062.279-.178.545-.248.823-.255 1.017-.479 2.042-.757 3.053-.271.991-.296 2.008-.43 3.014-.144 1.084-.103 2.121.323 3.097.511 1.172 1.074 2.333 1.747 3.417.481.774 1.119 1.482 1.801 2.093.803.72 1.715 1.322 2.602 1.944 1.392.975 2.797 1.933 4.56 2.13.216.024.414.179.631.236.3.08.61.178.915.172.602-.013 1.211-.177 1.804-.126 1.689.145 3.224-.387 4.701-1.06 1.094-.498 2.138-1.13 3.137-1.801.928-.624 2.046-1.116 2.313-2.396.005-.027.043-.046.064-.071.553-.622.803-1.359.881-2.18.1-1.052.245-2.099.371-3.148z"/><path d="M67.03 41.065c-1.54-.096-2.756-.184-3.869-.778-.141-.075-.294-.154-.45-.174-1.136-.148-2.124-.77-2.813-1.524-1.003-1.098-2.292-1.976-2.71-3.627-.441-1.741-.605-3.404-.303-5.178.245-1.442.674-2.779 1.372-4.051.367-.669.834-1.19 1.595-1.422.303-.092.569-.298.859-.436.23-.111.474-.29.706-.281.766.032 1.446-.262 2.153-.464.212-.061.436-.106.656-.118 1.892-.106 3.608.448 5.196 1.434.653.405 1.271.864 1.907 1.298 1.263.861 2.056 2.098 2.717 3.43.693 1.397 1.141 2.872 1.145 4.44.004 1.656-.482 3.155-1.615 4.407-.276.305-.535.625-.819.922-.776.812-1.682 1.374-2.838 1.48-.349.033-.689.16-1.035.237-.713.157-1.427.311-1.854.405zm6.457-7.387c-.076-.822-.016-1.596-.244-2.273-.261-.772-.737-1.484-1.195-2.171-.386-.581-.815-1.168-1.345-1.609-.633-.525-1.37-.94-2.101-1.33-1.254-.668-2.563-1.181-4.035-.984-.603.081-1.238.077-1.797.278-.365.13-.689.26-1.088.276-.667.025-1.211.345-1.666.846-.933 1.025-1.376 2.256-1.613 3.591a7.369 7.369 0 0 0 .37 3.941c.676 1.798 2.054 2.948 3.743 3.706.92.413 1.936.615 2.912.899.114.033.256-.042.379-.026.846.115 1.626-.163 2.438-.328 1.396-.285 2.665-.681 3.754-1.709.962-.909 1.362-1.961 1.488-3.107z"/></g></svg>