<svg width="120" height="120" viewBox="0 0 120 120" xmlns="http://www.w3.org/2000/svg"><g fill="none" fill-rule="evenodd"><path d="M54.442 2.304a7.21 7.21 0 0 0-.243.042c-.902.172-1.706.501-2.279 1.008a2.457 2.457 0 0 0-.854 1.795c-.018.443.057.954.24 1.535.146.459.314.79.5 1.012.315.38.727.435 1.183.278.454-.158.95-.51 1.453-.976v1.866a4.412 4.412 0 0 1-1.123.615v-.001l-.002.001c-.874.303-1.691.16-2.366-.65-.311-.374-.58-.888-.795-1.564-.253-.8-.355-1.53-.328-2.189.051-1.295.57-2.283 1.38-3 .74-.657 1.726-1.073 2.806-1.278.141-.027.284-.05.428-.07v1.576zm3.38.128a9.302 9.302 0 0 0-3.38-.128V.728a10.423 10.423 0 0 1 4.53.421c.06.019.12.048.176.09.293.222.39.702.214 1.072-.727 1.527-2.19 3.896-3.73 5.496a9.173 9.173 0 0 1-1.19 1.057V6.998c.134-.125.269-.257.403-.397 1.141-1.186 2.239-2.832 2.977-4.17z" fill="#E12444"/><path d="M58.408 1.15a10.423 10.423 0 0 1 4.529-.422v1.576a9.303 9.303 0 0 0-3.38.128c.739 1.337 1.836 2.983 2.978 4.169.134.14.268.271.402.396v1.866a9.209 9.209 0 0 1-1.189-1.056c-1.54-1.6-3.004-3.968-3.73-5.496-.176-.37-.08-.85.213-1.072a.568.568 0 0 1 .177-.09zm4.529-.422c.144.02.287.043.428.07 1.08.205 2.067.621 2.807 1.278.81.717 1.328 1.705 1.38 3 .025.66-.075 1.39-.33 2.19-.214.675-.483 1.189-.794 1.563-.676.81-1.493.953-2.368.65a4.395 4.395 0 0 1-1.123-.616V6.997c.503.467.999.818 1.454.976.456.158.868.102 1.182-.277.186-.221.354-.553.5-1.012.184-.582.258-1.092.24-1.535a2.458 2.458 0 0 0-.855-1.795c-.572-.507-1.376-.836-2.277-1.008a7.442 7.442 0 0 0-.244-.042V.728z" fill="#E12444"/><path d="M35.065 48.53c-.096.405-.435.634-.757.514s-.506-.545-.41-.948c.306-1.278.676-2.982 1.104-4.953.858-3.953 1.95-8.984 3.323-14.202C42.361 13.605 48.801-3.173 58.86.985c.32.131.494.563.388.963-.105.4-.45.618-.769.486C49.4-1.318 43.34 14.76 39.483 29.418c-1.36 5.17-2.45 10.185-3.305 14.124a265.43 265.43 0 0 1-1.113 4.989" fill="#E12444"/><path d="M58.315 1.092c.272-.245.651-.168.848.173.196.341.134.817-.138 1.062-1.84 1.663-3.582 6.949-4.596 13.007-.965 5.772-1.245 12.191-.297 16.831.083.409-.114.824-.44.928-.326.104-.658-.143-.74-.552-.996-4.87-.712-11.544.287-17.517 1.07-6.394 2.99-12.046 5.076-13.932" fill="#E12444"/><path d="M83.441 48.096c.096.403-.087.828-.41.948-.321.12-.66-.11-.756-.513a264.97 264.97 0 0 1-1.114-4.99c-.855-3.938-1.944-8.953-3.304-14.124C73.999 14.758 67.94-1.318 58.86 2.434c-.32.132-.664-.085-.768-.486-.106-.4.068-.832.387-.963C68.538-3.173 74.978 13.604 79.014 28.94c1.373 5.217 2.465 10.25 3.324 14.202.428 1.972.797 3.676 1.103 4.954" fill="#E12444"/><path d="M58.315 2.327c-.272-.245-.333-.72-.138-1.062.196-.341.576-.418.848-.173C61.11 2.978 63.03 8.63 64.1 15.024c1 5.973 1.282 12.648.288 17.517-.083.409-.415.656-.74.552-.326-.104-.524-.519-.44-.928.947-4.64.668-11.059-.298-16.831-1.013-6.058-2.756-11.344-4.595-13.007" fill="#E12444"/><path d="M33.786 90.109c0 2.42-.58 3.51.676 4.358 1.255.847 15.745 11.984 19.513 15.496 2.622 2.443 3.653 3.127 4.917 3.318a.52.52 0 0 0 .254.071c.308 0 .586.002.844 0 .257.002.535 0 .843 0a.519.519 0 0 0 .254-.071c1.264-.19 2.296-.875 4.917-3.318 3.768-3.512 18.258-14.65 19.514-15.496 1.255-.848.676-1.937.676-4.358 0-.593-3.435.532-9.57.727-12.236.388-21.033.388-33.27 0-6.134-.195-9.568-1.32-9.568-.727m4.54-23.847c-3.675-2.072-5.375-12.221-4.678-17.101.762-5.34 4.955-7.037 11.754-6.34 7.499.768 7.77 6.22 13.267 6.22s5.77-5.452 13.267-6.22c6.8-.697 10.993 1 11.755 6.34.697 4.88-1.003 15.029-4.678 17.101-6.206 3.499-13.392-2.864-20.344-2.864-6.95 0-14.137 6.363-20.343 2.864" fill="#E3566E"/><path d="M33.606 49.493c.013-.113.027-.225.042-.332.762-5.34 4.955-7.037 11.754-6.34 7.499.768 7.77 6.22 13.267 6.22s5.77-5.452 13.267-6.22c6.8-.697 10.993 1 11.755 6.34.015.107.03.219.042.332-.423 4.915-.69 9.05-4.72 12.19-4.93 3.843-13.392-2.863-20.344-2.863-6.95 0-14.565 7.368-20.343 2.864-4.03-3.14-4.298-7.276-4.72-12.191" fill="#F16D82"/><path d="M47.85 65.168c8.012-.925 14.596-15.609 18.385-17.035-4.91.64-11.675 15.035-18.384 17.035" fill="#E12444"/><path d="M50.185 64.82c8.01-.924 10.917-10.653 14.706-12.08-4.91.64-7.997 10.08-14.706 12.08" fill="#E12444"/><path d="M72.215 61.063c-2.588 4.457-28.352-13.555-24.828-15.258 6.156.802 16.858 13.294 24.828 15.258" fill="#F16D82"/><path d="M71.083 63.671c-9.425-.941-20.076-13.468-24.827-15.258 6.156.802 16.858 13.294 24.827 15.258" fill="#E12444"/><path d="M33.786 90.087c0 2.118-.208 2.186 1.048 2.928 1.256.74 15.373 11.371 19.14 14.442 4.954 4.04 7.077 4.04 12.03 0 3.768-3.071 17.843-13.701 19.1-14.442 1.255-.742 1.09-.81 1.09-2.928 0-.518-3.435.465-9.57.636-12.236.34-21.033.34-33.269 0-6.135-.17-9.57-1.154-9.57-.636" fill="#F16D82"/><path d="M82.093 90.425a4.42 4.42 0 0 0-.206.035c-.827.157-1.562.456-2.086.917a2.2 2.2 0 0 0-.773 1.61c-.015.399.053.86.22 1.387.133.415.285.714.452.912.28.334.648.384 1.056.243.417-.144.874-.466 1.337-.895v1.817c-.341.243-.681.43-1.013.545-.819.283-1.585.15-2.218-.606-.291-.347-.542-.823-.741-1.449-.237-.74-.33-1.415-.306-2.025.048-1.203.531-2.12 1.287-2.786.688-.606 1.603-.99 2.604-1.18a7.5 7.5 0 0 1 .387-.062v1.537zm3.067.101a8.59 8.59 0 0 0-3.067-.101v-1.537a9.69 9.69 0 0 1 4.197.386c.06.017.118.047.173.088.288.215.382.683.21 1.044-.671 1.403-2.024 3.58-3.448 5.05a8.416 8.416 0 0 1-1.132.995v-1.817c.12-.111.24-.23.361-.354 1.033-1.067 2.028-2.542 2.706-3.754z" fill="#E12444"/><path d="M85.797 89.397c.272-.245.651-.167.847.174.196.34.135.816-.137 1.061-1.722 1.557-3.355 6.517-4.307 12.203-.907 5.42-1.169 11.448-.28 15.805.083.408-.114.824-.44.928-.326.104-.657-.143-.74-.552-.937-4.586-.67-10.87.27-16.492 1.007-6.021 2.818-11.346 4.787-13.127" fill="#E12444"/><path d="M86.014 89.274a9.701 9.701 0 0 1 4.196-.386v1.537a8.587 8.587 0 0 0-3.066.101c.678 1.212 1.673 2.687 2.706 3.755.12.123.24.242.36.353v1.816a8.32 8.32 0 0 1-1.131-.994c-1.424-1.47-2.777-3.647-3.449-5.05-.172-.36-.078-.829.21-1.044a.552.552 0 0 1 .174-.088zm4.196-.386c.131.018.26.038.388.062 1.001.19 1.915.574 2.604 1.18.756.666 1.24 1.583 1.287 2.786.024.61-.07 1.285-.306 2.025-.199.626-.45 1.102-.741 1.45-.633.754-1.398.888-2.216.606l-.002-.001a4.053 4.053 0 0 1-1.014-.546v-1.816c.464.429.92.75 1.338.895.409.14.776.091 1.056-.243.167-.198.32-.497.451-.912.168-.526.236-.988.22-1.387a2.2 2.2 0 0 0-.773-1.61c-.524-.46-1.259-.76-2.085-.917a5.482 5.482 0 0 0-.207-.035v-1.537z" fill="#E12444"/><path d="M85.797 90.632c-.272-.245-.334-.72-.138-1.061.196-.341.575-.419.848-.174 1.969 1.78 3.779 7.106 4.786 13.127.941 5.623 1.207 11.906.27 16.492-.082.408-.414.655-.74.552-.325-.104-.523-.52-.44-.928.89-4.357.627-10.385-.28-15.805-.951-5.686-2.584-10.646-4.306-12.203m-56.07-.207c-.07.01-.139.022-.206.035-.827.157-1.562.456-2.086.917a2.197 2.197 0 0 0-.772 1.61c-.017.4.05.86.22 1.387.131.415.284.714.45.912.281.335.65.384 1.06.243.414-.144.87-.466 1.334-.895v1.816a4.076 4.076 0 0 1-1.016.547c-.818.282-1.582.148-2.215-.607-.292-.347-.543-.823-.742-1.449-.236-.74-.33-1.415-.306-2.025.048-1.203.532-2.12 1.288-2.786.688-.606 1.603-.99 2.604-1.18.127-.024.257-.044.387-.062v1.537zm3.066.101a8.586 8.586 0 0 0-3.066-.101v-1.537a9.71 9.71 0 0 1 4.197.386.56.56 0 0 1 .173.088c.288.215.382.683.21 1.044-.672 1.403-2.024 3.58-3.448 5.05a8.348 8.348 0 0 1-1.132.994v-1.816c.12-.11.24-.23.36-.354 1.033-1.067 2.027-2.542 2.706-3.754z" fill="#E12444"/><path d="M33.43 89.397c.273-.245.652-.167.848.174.196.34.134.816-.138 1.061-1.722 1.557-3.355 6.517-4.306 12.204-.907 5.42-1.17 11.447-.28 15.804.084.408-.114.824-.44.928-.326.104-.657-.143-.74-.552-.937-4.586-.671-10.869.27-16.49 1.007-6.023 2.817-11.348 4.787-13.129" fill="#E12444"/><path d="M33.647 89.274a9.7 9.7 0 0 1 4.197-.386v1.537a8.575 8.575 0 0 0-3.066.101c.678 1.212 1.672 2.687 2.705 3.754.12.124.242.243.361.354v1.816c-.38-.27-.76-.61-1.132-.994-1.423-1.47-2.776-3.647-3.448-5.05-.172-.36-.078-.829.21-1.044a.546.546 0 0 1 .173-.088zm4.197-.386c.13.018.26.038.388.062 1 .19 1.916.574 2.603 1.18.757.666 1.24 1.583 1.288 2.786.024.61-.07 1.285-.306 2.025-.2.626-.45 1.102-.742 1.449-.633.756-1.399.89-2.218.606a4.03 4.03 0 0 1-1.013-.546v-1.816c.464.429.92.75 1.338.895.407.14.775.091 1.055-.243.168-.199.32-.497.452-.912.168-.526.235-.988.22-1.387a2.2 2.2 0 0 0-.773-1.61c-.524-.46-1.259-.76-2.085-.917a5.483 5.483 0 0 0-.207-.035v-1.537z" fill="#E12444"/><path d="M33.43 90.632c-.271-.245-.333-.72-.137-1.061.195-.341.575-.419.847-.174 1.97 1.78 3.78 7.106 4.787 13.127.941 5.623 1.208 11.906.27 16.492-.082.409-.414.656-.74.552-.326-.104-.523-.52-.44-.928.89-4.357.627-10.384-.28-15.805-.952-5.686-2.584-10.646-4.306-12.203" fill="#E12444"/></g></svg>