<svg width="120" height="120" viewBox="0 0 120 120" xmlns="http://www.w3.org/2000/svg" xmlns:xlink="http://www.w3.org/1999/xlink"><defs><path d="M.118.906c0 .483.394.874.878.874a.876.876 0 0 0 .878-.874A.876.876 0 0 0 .996.03a.876.876 0 0 0-.878.875" id="a"/><path id="c" d="M.15.12h2.678v2.463H.149z"/></defs><g fill="none" fill-rule="evenodd"><path fill="#D1BC7C" d="M0 66.67h119.853v-2.64H0z"/><path fill="#2D9EE7" d="M0 77.897h119.853V66.653H0z"/><path d="M34.513 65.374c0 .739-.673 1.337-1.503 1.337H0v-2.674h33.01c.83 0 1.503.599 1.503 1.337m18.686-1.337c-.93 0-1.683.599-1.683 1.337 0 .739.753 1.337 1.683 1.337h66.655v-2.674H53.199z" fill="#BEAB71"/><path d="M55.283 65.374c0 .735-.597 1.33-1.334 1.33H41.834a1.332 1.332 0 0 1-1.335-1.33c0-.734.598-1.33 1.335-1.33h12.115c.737 0 1.334.596 1.334 1.33" fill="#BEAB71"/><path fill="#3D8EC3" d="M72.835 78.027h1.793V66.752h-1.793z"/><path d="M76.894 71.08H70.12a.634.634 0 1 0 0 1.265h1.404v.256c0 .265.215.48.48.48h3.842a.48.48 0 0 0 .48-.48v-.256h.568a.634.634 0 1 0 0-1.266m26.489.001H96.61a.634.634 0 1 0 0 1.265h.882v.287a.48.48 0 0 0 .48.479h3.842a.48.48 0 0 0 .48-.479v-.287h1.09a.634.634 0 1 0 0-1.266m-52.504.001h-6.773a.634.634 0 1 0 0 1.265h.956v.256c0 .265.215.48.48.48h3.843a.48.48 0 0 0 .48-.48v-.256h1.014a.634.634 0 0 0 0-1.266m-26.98.001h-6.774a.634.634 0 1 0 0 1.265h.985v.287a.48.48 0 0 0 .48.479h3.843a.48.48 0 0 0 .48-.479v-.287h.985a.634.634 0 1 0 0-1.266" fill="#3881B1"/><path fill="#3D8EC3" d="M0 78.847h119.853v-1.544H0z"/><path d="M67.133 55.218a.14.14 0 0 1 .14.14v.15a.14.14 0 1 1-.28 0v-.15a.14.14 0 0 1 .14-.14m0 6.055a.14.14 0 0 1 .14.14v.406a.14.14 0 0 1-.28 0v-.406a.14.14 0 0 1 .14-.14m0 1.084a.14.14 0 0 1 .14.14v.406a.14.14 0 0 1-.28 0v-.406a.14.14 0 0 1 .14-.14m0-2.167a.14.14 0 0 1 .14.139v.406a.14.14 0 0 1-.28 0v-.406a.14.14 0 0 1 .14-.14m0-4.336a.14.14 0 0 1 .14.14v.406a.14.14 0 0 1-.28 0v-.407a.14.14 0 0 1 .14-.139m0 1.084a.14.14 0 0 1 .14.14v.406a.14.14 0 0 1-.28 0v-.407a.14.14 0 0 1 .14-.139m0 2.168a.14.14 0 0 1 .14.14v.406a.14.14 0 0 1-.28 0v-.406a.14.14 0 0 1 .14-.14m0-1.084a.14.14 0 0 1 .14.14v.406a.14.14 0 0 1-.28 0v-.407a.14.14 0 0 1 .14-.139m0 5.602a.14.14 0 0 1 .14.14v.15a.14.14 0 1 1-.28 0v-.15a.14.14 0 0 1 .14-.14m1.259-9.016a.14.14 0 0 1 .14.14v.136a.14.14 0 1 1-.28 0v-.136a.14.14 0 0 1 .14-.14m0 5.997a.14.14 0 0 1 .14.139v.407a.14.14 0 0 1-.28 0v-.407a.14.14 0 0 1 .14-.14m0-2.167a.14.14 0 0 1 .14.139v.407a.14.14 0 0 1-.28 0v-.407a.14.14 0 0 1 .14-.14m0 3.253a.14.14 0 0 1 .14.139v.323a.14.14 0 0 1-.28 0v-.323a.14.14 0 0 1 .14-.14m0-2.167a.14.14 0 0 1 .14.139v.407a.14.14 0 0 1-.28 0v-.407a.14.14 0 0 1 .14-.14m0-4.335a.14.14 0 0 1 .14.139v.406a.14.14 0 0 1-.28 0v-.406a.14.14 0 0 1 .14-.14m0 1.085a.14.14 0 0 1 .14.139v.407a.14.14 0 0 1-.28 0v-.407a.14.14 0 0 1 .14-.14m0 1.085a.14.14 0 0 1 .14.139v.407a.14.14 0 0 1-.28 0v-.407a.14.14 0 0 1 .14-.14m8.636-2.133a.14.14 0 0 1 .14.14v.15a.14.14 0 1 1-.28 0v-.15a.14.14 0 0 1 .14-.14m0 2.802a.14.14 0 0 1 .14.14v.407a.14.14 0 0 1-.28 0v-.407a.14.14 0 0 1 .14-.14m0-1.083a.14.14 0 0 1 .14.14v.406a.14.14 0 0 1-.28 0v-.407a.14.14 0 0 1 .14-.14m0-1.083a.14.14 0 0 1 .14.14v.406a.14.14 0 0 1-.28 0v-.407a.14.14 0 0 1 .14-.14m0 5.421a.14.14 0 0 1 .14.14v.406a.14.14 0 0 1-.28 0v-.407a.14.14 0 0 1 .14-.139m0 1.084a.14.14 0 0 1 .14.14v.406a.14.14 0 0 1-.28 0v-.407a.14.14 0 0 1 .14-.139m0-3.252a.14.14 0 0 1 .14.14v.406a.14.14 0 0 1-.28 0v-.407a.14.14 0 0 1 .14-.14m0 1.085a.14.14 0 0 1 .14.14v.406a.14.14 0 0 1-.28 0v-.407a.14.14 0 0 1 .14-.139m0 3.431a.14.14 0 0 1 .14.14v.15a.14.14 0 1 1-.28 0v-.15a.14.14 0 0 1 .14-.14m-1.184-8.402a.14.14 0 0 1 .14.14v.15a.14.14 0 1 1-.28 0v-.15a.14.14 0 0 1 .14-.14m0 4.971a.14.14 0 0 1 .14.14v.406a.14.14 0 0 1-.28 0v-.407a.14.14 0 0 1 .14-.139m0 2.168a.14.14 0 0 1 .14.14v.406a.14.14 0 0 1-.28 0v-.407a.14.14 0 0 1 .14-.139m0-3.252a.14.14 0 0 1 .14.14v.406a.14.14 0 0 1-.28 0v-.407a.14.14 0 0 1 .14-.14m0 2.169a.14.14 0 0 1 .14.14v.406a.14.14 0 0 1-.28 0v-.407a.14.14 0 0 1 .14-.139m0-5.42a.14.14 0 0 1 .14.14v.406a.14.14 0 0 1-.28 0v-.407a.14.14 0 0 1 .14-.14m0 2.168a.14.14 0 0 1 .14.14v.407a.14.14 0 0 1-.28 0v-.407a.14.14 0 0 1 .14-.14m0-1.083a.14.14 0 0 1 .14.14v.406a.14.14 0 0 1-.28 0v-.407a.14.14 0 0 1 .14-.14m0 6.684a.14.14 0 0 1 .14.14v.15a.14.14 0 1 1-.28 0v-.15a.14.14 0 0 1 .14-.14m-6.194-8.402a.14.14 0 0 1 .14.14v.15a.14.14 0 1 1-.28 0v-.15a.14.14 0 0 1 .14-.14m0 1.719a.14.14 0 0 1 .14.14v.406a.14.14 0 0 1-.28 0v-.407a.14.14 0 0 1 .14-.139m0 1.084a.14.14 0 0 1 .14.14v.406a.14.14 0 0 1-.28 0v-.407a.14.14 0 0 1 .14-.139m0-2.168a.14.14 0 0 1 .14.14v.406a.14.14 0 0 1-.28 0v-.407a.14.14 0 0 1 .14-.139m0 4.337a.14.14 0 0 1 .14.139v.406a.14.14 0 0 1-.28 0v-.406a.14.14 0 0 1 .14-.14m0-1.084a.14.14 0 0 1 .14.14v.406a.14.14 0 0 1-.28 0v-.406a.14.14 0 0 1 .14-.14m0 2.168a.14.14 0 0 1 .14.14v.406a.14.14 0 0 1-.28 0v-.406a.14.14 0 0 1 .14-.14m0 1.084a.14.14 0 0 1 .14.14v.406a.14.14 0 0 1-.28 0v-.406a.14.14 0 0 1 .14-.14m0 1.266a.14.14 0 0 1 .14.14v.15a.14.14 0 1 1-.28 0v-.15a.14.14 0 0 1 .14-.14m6.786-22.691a4.09 4.09 0 0 0-.368.242.157.157 0 0 1-.187-.253c.13-.095.264-.183.397-.26a.158.158 0 0 1 .215.057.157.157 0 0 1-.057.214m5.652.958a.157.157 0 0 1-.084-.024 11.83 11.83 0 0 0-.387-.235.157.157 0 0 1 .159-.271c.134.077.266.158.397.242a.156.156 0 0 1-.085.289m-1.065-.599a.158.158 0 0 1-.07-.016 9.728 9.728 0 0 0-.41-.189.156.156 0 0 1-.082-.206.158.158 0 0 1 .207-.082c.143.062.284.127.424.195a.157.157 0 0 1-.069.298m2.063 1.306a.157.157 0 0 1-.097-.033c-.12-.094-.24-.185-.362-.273a.156.156 0 0 1-.034-.22.158.158 0 0 1 .22-.034c.125.09.248.184.37.28a.157.157 0 0 1-.097.28m-4.404-2.075a3.652 3.652 0 0 0-.437-.045.157.157 0 0 1-.15-.164c.003-.087.075-.16.163-.15.156.006.316.022.476.048a.157.157 0 1 1-.052.311m-3.478 1.461a.157.157 0 0 1-.223.016.157.157 0 0 1-.016-.221c.105-.121.212-.237.32-.344a.158.158 0 0 1 .223 0 .157.157 0 0 1 0 .222 6.045 6.045 0 0 0-.304.327m4.638-1.164a8.638 8.638 0 0 0-.43-.132.158.158 0 0 1 .084-.303c.147.04.298.087.446.137a.158.158 0 0 1-.1.298m7.333 6.298c-.05 0-.1-.024-.13-.069-.086-.125-.173-.25-.262-.374a.157.157 0 0 1 .038-.219.158.158 0 0 1 .22.038l.264.378a.157.157 0 0 1-.13.246m1.382 2.049a.158.158 0 0 1-.215-.058l-.232-.393a.157.157 0 0 1 .055-.215.158.158 0 0 1 .216.054c.08.134.157.266.234.398a.157.157 0 0 1-.058.214m-.627-1.05a.157.157 0 0 1-.217-.05 29.11 29.11 0 0 0-.246-.385.158.158 0 0 1 .264-.17c.084.13.167.259.248.388a.157.157 0 0 1-.05.217M74.493 42.95a.157.157 0 0 1-.266-.168 9.63 9.63 0 0 1 .259-.388.158.158 0 0 1 .258.18 9.16 9.16 0 0 0-.25.375m14.654 7.29a.158.158 0 0 1-.213-.065l-.218-.402a.157.157 0 0 1 .276-.151l.22.405a.157.157 0 0 1-.065.213M85.7 45.168a.157.157 0 0 1-.12-.057 23.81 23.81 0 0 0-.297-.346.157.157 0 0 1 .015-.221.158.158 0 0 1 .222.015c.102.116.202.233.301.351a.157.157 0 0 1-.12.258m-.814-.916a.157.157 0 0 1-.115-.05c-.104-.11-.21-.219-.317-.326a.157.157 0 0 1 .002-.222.158.158 0 0 1 .223 0c.108.11.215.221.321.333a.157.157 0 0 1-.114.265m1.573 1.872a.157.157 0 0 1-.125-.062 24.583 24.583 0 0 0-.278-.36.156.156 0 0 1 .027-.22.158.158 0 0 1 .221.026c.095.121.189.243.281.365a.157.157 0 0 1-.125.251m-2.444-2.733a.157.157 0 0 1-.107-.042 15.524 15.524 0 0 0-.338-.303.157.157 0 0 1 .207-.236c.117.101.232.204.345.309a.157.157 0 0 1-.107.272m-11.249 3.584a24.85 24.85 0 0 0-.126.438.158.158 0 0 1-.303-.084c.04-.146.083-.294.127-.444a.157.157 0 0 1 .302.09m16.937 4.354a.158.158 0 0 1-.211-.071l-.206-.409a.158.158 0 0 1 .28-.143c.072.14.141.277.208.412a.157.157 0 0 1-.071.21m-15.799-7.325a.158.158 0 0 1-.283-.139c.07-.139.14-.277.213-.412a.158.158 0 0 1 .278.148c-.072.133-.14.267-.208.403m-.492 1.107a.158.158 0 0 1-.293-.118c.058-.143.117-.285.178-.427a.158.158 0 0 1 .29.125c-.06.139-.119.279-.175.42m-.269.709c-.051.144-.101.288-.148.43a.158.158 0 0 1-.3-.098c.049-.145.099-.291.151-.437a.157.157 0 0 1 .297.105m-1.315 4.539a.158.158 0 0 1 .132.18l-.019.127a.157.157 0 0 1-.312-.042l.02-.133a.157.157 0 0 1 .18-.132m.204-1.836c.033-.145.07-.295.108-.449a.158.158 0 0 1 .305.076c-.037.152-.073.3-.106.444a.158.158 0 0 1-.307-.071m5.065-7.887a.158.158 0 0 1-.098-.3c.152-.05.308-.09.463-.118a.157.157 0 0 1 .057.31 3.253 3.253 0 0 0-.422.108m-5.192 9.275a.157.157 0 0 1-.127-.183c.027-.138.056-.29.09-.453a.157.157 0 1 1 .309.063 21.9 21.9 0 0 0-.089.448.158.158 0 0 1-.183.126m1.008-1.732c.038-.145.079-.294.123-.446a.157.157 0 0 1 .195-.108.157.157 0 0 1 .108.195c-.043.15-.084.296-.121.438a.157.157 0 0 1-.305-.079m12.539-2.186c.102.114.203.23.304.347a.156.156 0 0 1-.12.26.158.158 0 0 1-.12-.055c-.099-.116-.2-.23-.3-.344a.156.156 0 0 1 .013-.222.158.158 0 0 1 .223.014m1.341 1.871a.158.158 0 0 1 .22.03c.094.123.187.245.278.368a.157.157 0 0 1-.126.25.157.157 0 0 1-.126-.063 44.673 44.673 0 0 0-.276-.364.157.157 0 0 1 .03-.22m-2.182-2.773c.107.11.214.22.32.333a.156.156 0 0 1-.114.265.157.157 0 0 1-.115-.05c-.105-.11-.21-.22-.316-.328a.157.157 0 0 1 .002-.222.158.158 0 0 1 .223.002m3.619 4.754a.158.158 0 0 1 .219.042l.257.382a.157.157 0 0 1-.131.244.155.155 0 0 1-.131-.07 53.83 53.83 0 0 0-.256-.38.157.157 0 0 1 .042-.218m-15.765.599c.006-.047.02-.151.042-.3a.157.157 0 0 1 .179-.133.157.157 0 0 1 .132.179 8.544 8.544 0 0 0-.04.293c-.02.144-.109.166-.16.166a.158.158 0 0 1-.155-.187l.002-.018zm15.06-1.6a.158.158 0 0 1 .22.037c.09.125.18.25.267.375a.156.156 0 0 1-.129.247.159.159 0 0 1-.13-.067 41.145 41.145 0 0 0-.264-.373.157.157 0 0 1 .036-.219m-1.274-1.915c.098.119.194.239.29.359a.156.156 0 0 1-.123.254.158.158 0 0 1-.124-.06c-.095-.118-.19-.237-.287-.354a.158.158 0 0 1 .244-.199m-13.488 2.636a.157.157 0 0 1-.124-.183c.027-.142.059-.293.094-.454a.157.157 0 0 1 .187-.12.157.157 0 0 1 .12.187 19.31 19.31 0 0 0-.092.446.157.157 0 0 1-.184.124m7.038-7.303a4.65 4.65 0 0 0-.436-.085.157.157 0 0 1 .046-.311 5.051 5.051 0 0 1 .465.09.157.157 0 1 1-.075.306m-5.256 2.63a.157.157 0 0 1-.273-.158 9.11 9.11 0 0 1 .245-.396.157.157 0 0 1 .264.17c-.08.124-.16.253-.236.384m9.174-.655c.114.102.228.207.34.314a.157.157 0 1 1-.216.228 17.265 17.265 0 0 0-.335-.309.157.157 0 1 1 .211-.233m-6.788-2.078c.145-.064.295-.119.446-.165a.158.158 0 0 1 .092.301 4 4 0 0 0-.413.152.157.157 0 1 1-.125-.289m-2.74 3.399c-.066.136-.13.273-.19.41a.157.157 0 0 1-.289-.126c.062-.14.128-.281.196-.421a.158.158 0 0 1 .21-.073c.078.038.11.132.073.21m4.435-3.434a4.273 4.273 0 0 0-.457.027.158.158 0 0 1-.018-.314c.154-.017.314-.027.473-.028h.001a.158.158 0 0 1 .001.315m2.36.559a.153.153 0 0 1-.068-.015 6.536 6.536 0 0 0-.41-.179.157.157 0 0 1 .115-.293c.14.055.285.118.43.187a.158.158 0 0 1-.067.3m-4.75-.147a.158.158 0 0 1 .219.044.157.157 0 0 1-.044.217c-.12.08-.24.169-.357.263a.158.158 0 0 1-.222-.023.157.157 0 0 1 .023-.22c.124-.101.253-.196.382-.281m6.531.912c.122.093.243.188.364.287a.157.157 0 1 1-.199.243c-.118-.096-.237-.19-.357-.28a.157.157 0 0 1-.03-.22.158.158 0 0 1 .222-.03m-7.793.259c.1-.124.204-.243.307-.354a.158.158 0 0 1 .23.214 6.612 6.612 0 0 0-.292.337.158.158 0 0 1-.222.024.156.156 0 0 1-.023-.22m-1.553 2.852a.158.158 0 0 1 .295.109c-.054.143-.104.286-.152.428a.157.157 0 0 1-.299-.1c.05-.146.101-.291.156-.438m8.319-3.809c.13.078.263.162.394.249a.157.157 0 0 1-.087.288.159.159 0 0 1-.087-.026 9.518 9.518 0 0 0-.382-.24.156.156 0 0 1-.054-.216.158.158 0 0 1 .216-.054m-7.029 3.612a.157.157 0 1 1 .273.156 10.04 10.04 0 0 0-.217.397.158.158 0 0 1-.28-.144c.071-.137.145-.274.224-.41m2.224-2.377c.14-.078.284-.149.429-.209a.157.157 0 0 1 .121.29c-.134.056-.267.12-.396.193a.157.157 0 0 1-.154-.274m-1.004.762c.115-.112.234-.218.352-.315a.158.158 0 0 1 .2.243 4.5 4.5 0 0 0-.331.297.158.158 0 0 1-.223-.003.157.157 0 0 1 .002-.222m2.194-1.197c.156-.029.315-.048.474-.058a.155.155 0 0 1 .167.148.157.157 0 0 1-.148.166 3.564 3.564 0 0 0-.434.054.157.157 0 0 1-.058-.31m1.266-.028c.134.017.27.041.407.071l.054.013-.03.154-.04.153-.052-.012a4.462 4.462 0 0 0-.38-.067.158.158 0 0 1 .041-.312m1.218.306c.143.051.29.109.436.172a.158.158 0 1 1-.124.29 7.629 7.629 0 0 0-.418-.165.157.157 0 1 1 .106-.297m-7.243 5.988a.158.158 0 0 1 .306.073 7.593 7.593 0 0 0-.066.295.157.157 0 1 1-.309-.063c.004-.02.026-.13.069-.305m17.404 4.218c.006-.004.013-.005.019-.008.006-.004.01-.01.017-.014.013-.007.028-.01.042-.013.01-.007.02-.016.032-.02a.157.157 0 0 1 .205.088c.11.281.165.438.165.438l.003.015c.001.006.004.013.004.02v.016a.176.176 0 0 1-.001.024l-.003.02-.006.014a.158.158 0 0 1-.011.022l-.01.017-.01.011a.144.144 0 0 1-.021.017c-.004.003-.007.008-.011.01l-.006.003-.003.002-.015.006c-.002 0-.003.002-.005.003l-.005.001-.009.003a.155.155 0 0 1-.08 0l-.004-.001-.012-.006-.021-.009-.008-.005-.01-.008-.015-.012-.008-.01a.162.162 0 0 1-.01-.011l-.006-.008c0-.001-.086-.14-.245-.388a.157.157 0 0 1 .048-.217m-17.201-4.965c.042-.139.089-.287.14-.443a.157.157 0 0 1 .3.1c-.052.152-.097.297-.138.433a.157.157 0 0 1-.196.105.157.157 0 0 1-.106-.195m1.837-3.739a.158.158 0 0 1 .222-.025c.068.053.08.152.025.22a6.982 6.982 0 0 0-.268.36.157.157 0 0 1-.259-.18c.09-.13.185-.256.28-.375M73.98 47.9c.057-.14.116-.284.18-.429a.158.158 0 0 1 .288.126c-.062.141-.12.281-.174.418a.157.157 0 0 1-.293-.115m7.772-3.565c.136.072.271.148.406.228a.157.157 0 1 1-.16.27 9.58 9.58 0 0 0-.394-.22.157.157 0 1 1 .148-.278m7.101 6.719a.155.155 0 0 1 .058-.189.158.158 0 0 1 .218.047c.085.131.168.26.248.388a.157.157 0 0 1-.202.224.154.154 0 0 1-.155.16.157.157 0 0 1-.126-.062l-.276-.365a.157.157 0 0 1 .03-.22.156.156 0 0 1 .205.017m-6.039-6.078c.127.085.254.174.38.265a.157.157 0 0 1-.092.284.158.158 0 0 1-.092-.03 16.691 16.691 0 0 0-.372-.259.157.157 0 0 1-.043-.218.158.158 0 0 1 .219-.042m5.295 5.125c.097.12.193.24.287.36a.156.156 0 0 1-.123.254.157.157 0 0 1-.124-.06 42.1 42.1 0 0 0-.286-.356.157.157 0 0 1 .024-.221.158.158 0 0 1 .221.023M89.5 51.99a.154.154 0 0 1 .069-.09.158.158 0 0 1 .216.051l.188.309a28.687 28.687 0 0 0-.147-.316.158.158 0 0 1 .285-.134c.068.143.133.283.195.418a.157.157 0 0 1-.263.167.156.156 0 0 1-.153.187h-.006a.153.153 0 0 1-.05.064.158.158 0 0 1-.22-.038l-.267-.372a.157.157 0 0 1 .154-.246m.653 1.002a.156.156 0 0 1 .173-.057.157.157 0 0 1 .292-.006c.066.151.126.293.181.425a.156.156 0 0 1-.145.217l-.014-.002a.153.153 0 0 1-.091.065c-.008.007-.013.016-.023.022a.157.157 0 0 1-.218-.043c-.08-.118-.165-.245-.258-.379a.157.157 0 0 1 .042-.218.159.159 0 0 1 .061-.024m-2.833-3.834l.299.35a.157.157 0 0 1-.12.258.157.157 0 0 1-.121-.056 47.83 47.83 0 0 0-.297-.348.158.158 0 0 1 .239-.204m-.819-.918l.31.34a.157.157 0 0 1-.116.263.157.157 0 0 1-.118-.052 34.764 34.764 0 0 0-.308-.338.158.158 0 0 1 .232-.213m-2.69-2.532c.12.095.24.193.358.293a.157.157 0 0 1-.1.277.158.158 0 0 1-.102-.037 18.053 18.053 0 0 0-.353-.287.157.157 0 0 1-.025-.221.158.158 0 0 1 .222-.025m.941.798c.114.103.227.207.34.313a.157.157 0 0 1-.108.271.157.157 0 0 1-.108-.042 22.826 22.826 0 0 0-.335-.309.157.157 0 0 1-.012-.222.158.158 0 0 1 .223-.01m.895.848c.11.108.218.218.325.328a.157.157 0 0 1-.113.266.157.157 0 0 1-.113-.047 27.468 27.468 0 0 0-.321-.325.157.157 0 0 1 0-.222.158.158 0 0 1 .222 0" fill="#75BEEE"/><path fill="#3D342F" d="M70.924 77.297h2.842v-22.39h-2.842z"/><path d="M64.67 54.962v-1.366c0-1.598 1.3-2.894 2.903-2.894h9.544a2.899 2.899 0 0 1 2.903 2.894v1.372H64.67v-.006" fill="#D8D423"/><path d="M91.456 55.007a2.42 2.42 0 0 1 .216-.066c.498-.126-.054.164-.022-1.107.025-.998.79-1.09 1.31-.803.22.12.585.452.75 1.392.166.941.353 3.829 1.566 4.025 1.213.196 1.793-.51 2.401-1.05 1.357-1.206 2.291-3.208 2.814-4.587a9.481 9.481 0 0 1 3.772-5.648c.262.544.818.92 1.463.92a1.62 1.62 0 0 0 1.623-1.617c0-.251-.06-.488-.162-.7a9.53 9.53 0 0 1 6.026.29 1.616 1.616 0 0 0 .72 3.065 1.62 1.62 0 0 0 1.617-1.75 9.515 9.515 0 0 1 2.88 3.62 1.618 1.618 0 0 0-1.216 1.564 1.62 1.62 0 0 0 2.082 1.55c.363 2.269.596 5.32.597 8.028a1.62 1.62 0 0 0-2.679 1.226c0 .31.09.6.242.846h-17.009c-.344-.54-.72-.99-1.163-1.27-2.036-1.292-4.88-.712-6.325-2.072-1.446-1.361-1.425-4.238-1.994-4.737-.762-.668-.18-.876.49-1.119" fill="#CD1B23"/><path d="M105.552 56.85a2.027 2.027 0 0 0-2.03-2.025 2.027 2.027 0 0 0-2.031 2.024c0 1.118.908 2.024 2.03 2.024a2.027 2.027 0 0 0 2.031-2.024" fill="#FFF"/><path d="M104.857 56.85c0-.736-.598-1.332-1.336-1.332-.737 0-1.335.596-1.335 1.331s.598 1.332 1.335 1.332c.738 0 1.336-.597 1.336-1.332" fill="#FFF"/><g transform="translate(101.576 56.422)"><mask id="b" fill="#fff"><use xlink:href="#a"/></mask><path d="M.118.906c0 .483.394.874.878.874a.876.876 0 0 0 .878-.874A.876.876 0 0 0 .996.03a.876.876 0 0 0-.878.875" mask="url(#b)"/></g><g transform="translate(117.065 61.622)"><mask id="d" fill="#fff"><use xlink:href="#c"/></mask><path d="M1.772.12c.404 0 .772.148 1.056.39 0 .723-.016 1.421-.05 2.073H.39a1.605 1.605 0 0 1-.242-.846A1.62 1.62 0 0 1 1.772.12" fill="#3D342F" mask="url(#d)"/></g><path d="M117.214 52.555c0-.753.517-1.383 1.215-1.564.256.564.46 1.157.601 1.773.024.07.045.14.06.21.072.348.141.727.206 1.132a1.62 1.62 0 0 1-2.082-1.55m-11.488-4.473a1.622 1.622 0 0 1-1.463-.92 9.476 9.476 0 0 1 2.924-1.397 1.6 1.6 0 0 1 .162.7 1.62 1.62 0 0 1-1.623 1.617m8.208 1.038a1.616 1.616 0 1 1-.72-3.065 9.508 9.508 0 0 1 2.336 1.315 1.62 1.62 0 0 1-1.616 1.75m-11.943 3.016a1.62 1.62 0 0 0 1.623 1.617 1.62 1.62 0 0 0 1.623-1.617 1.62 1.62 0 0 0-1.623-1.618 1.62 1.62 0 0 0-1.623 1.618m5.797 10.068a1.62 1.62 0 0 0 1.623 1.618 1.62 1.62 0 0 0 1.623-1.618 1.62 1.62 0 0 0-1.623-1.617 1.62 1.62 0 0 0-1.623 1.617m-6.838-.705a1.62 1.62 0 0 0 1.622 1.617 1.62 1.62 0 0 0 1.623-1.617 1.62 1.62 0 0 0-1.623-1.617 1.62 1.62 0 0 0-1.623 1.617" fill="#3D342F"/><path d="M104.5 49.654s2.804.486 2.926 5.831c.122 5.345 2.803 5.223 8.227 4.859 5.424-.364 1.158-15.792-11.152-10.69" fill="#3D342F"/><path d="M90.298 73.763a2.009 2.009 0 0 1-1.342.674h-.008a2.01 2.01 0 0 1-1.215-.292 2.009 2.009 0 0 1-.947-1.493l-.005-.05a1.996 1.996 0 0 1 .445-1.432c.211-.26.487-.465.804-.595.107.155.239.26.401.292a.505.505 0 0 0 .445-.125.881.881 0 0 0 .199-.293c.485.069.92.31 1.232.666.274.312.453.71.49 1.154l.003.051a1.998 1.998 0 0 1-.502 1.443m-2.168-6.862a.736.736 0 0 0 .792.081c.019.479.025.965.016 1.417a4.056 4.056 0 0 0-.484.011h-.008a4.05 4.05 0 0 0-.372.05c-.005-.479.015-1.012.056-1.559m4.701 5.251l-.003-.051a4.015 4.015 0 0 0-1.198-2.543 4.063 4.063 0 0 0-2.251-1.119 24.44 24.44 0 0 0-.054-2.135c0-.013.002-.026.001-.04l-.023-.271a39.23 39.23 0 0 0-.015-.196h-1.487c-.077.618-.191 1.736-.172 2.768a4.053 4.053 0 0 0-2.873 4.255 4.028 4.028 0 0 0 1.654 2.882 4.046 4.046 0 0 0 2.714.758 4.044 4.044 0 0 0 2.729-1.385 4.019 4.019 0 0 0 .978-2.923" fill="#3D8EC3"/><path d="M86.032 72.493h-2.038a4.027 4.027 0 0 0 1.41 3.009l1.448-1.444a2.006 2.006 0 0 1-.82-1.565" fill="#FFF"/><path d="M85.403 75.502c.709.608 1.63.977 2.635.978v-2.03a2.007 2.007 0 0 1-1.186-.392l-1.449 1.444z" fill="#CD1B23"/><path d="M89.44 73.89c-.363.347-.854.56-1.394.56h-.008v2.03h.008c1.102 0 2.103-.44 2.834-1.155l-1.44-1.435z" fill="#FFF"/><path d="M92.098 72.493h-2.039a1.999 1.999 0 0 1-.62 1.397l1.44 1.435a4.022 4.022 0 0 0 1.219-2.832" fill="#CD1B23"/><path d="M88.038 70.433v-2.03a4.047 4.047 0 0 0-2.886 1.214l1.44 1.435a2.017 2.017 0 0 1 1.446-.619" fill="#FFF"/><path d="M86.593 71.052l-1.44-1.435a4.018 4.018 0 0 0-1.16 2.825l.001.051h2.038l-.002-.051c0-.54.215-1.029.563-1.39m3.075.2l1.448-1.444a4.05 4.05 0 0 0-3.07-1.405h-.008v2.03h.008c.664 0 1.254.323 1.622.819" fill="#CD1B23"/><path d="M90.06 72.493h2.038v-.051c0-1.005-.37-1.926-.982-2.634l-1.448 1.444c.247.333.393.744.393 1.19l-.002.051m-.966-6.157a.739.739 0 0 1-.74.737.739.739 0 0 1-.74-.737v-1.082c0-.407.331-.737.74-.737s.74.33.74.737v1.082z" fill="#FFF"/><path d="M87.964 70.87a.523.523 0 0 1-.145-.02c-1.145-.33-.425-4.102-.177-5.25l.427.091c-.47 2.172-.633 4.595-.129 4.74.02.006.037.009.069-.016.471-.356.662-3.002.647-4.768l.437-.004c.006.747-.004 4.502-.82 5.12a.507.507 0 0 1-.31.108" fill="#FFF"/><path d="M112.589 73.973a2.009 2.009 0 0 1-1.343.673h-.007a2.01 2.01 0 0 1-1.215-.292 2.009 2.009 0 0 1-.947-1.492l-.006-.051a1.996 1.996 0 0 1 .445-1.431c.212-.26.487-.466.805-.595.107.155.238.26.4.292a.505.505 0 0 0 .445-.125.881.881 0 0 0 .2-.294c.484.07.92.311 1.231.667.274.312.454.71.491 1.153l.003.052a1.998 1.998 0 0 1-.502 1.443m-2.169-6.862a.736.736 0 0 0 .792.081c.02.479.026.965.016 1.417a4.056 4.056 0 0 0-.484.01l-.007.001a4.05 4.05 0 0 0-.372.05c-.005-.48.014-1.012.055-1.56m4.702 5.252l-.004-.051a4.015 4.015 0 0 0-1.197-2.544 4.063 4.063 0 0 0-2.252-1.118 24.44 24.44 0 0 0-.053-2.136v-.04l-.022-.27-.015-.197h-1.488c-.077.619-.191 1.737-.171 2.768a4.053 4.053 0 0 0-2.874 4.256 4.028 4.028 0 0 0 1.654 2.882 4.046 4.046 0 0 0 2.715.758 4.044 4.044 0 0 0 2.728-1.385 4.019 4.019 0 0 0 .979-2.923" fill="#3D8EC3"/><path d="M108.322 72.703h-2.038a4.027 4.027 0 0 0 1.41 3.008l1.448-1.443a2.006 2.006 0 0 1-.82-1.565" fill="#FFF"/><path d="M107.694 75.711c.708.609 1.63.977 2.635.98V74.66a2.007 2.007 0 0 1-1.187-.392l-1.448 1.443z" fill="#CD1B23"/><path d="M111.73 74.1c-.362.346-.853.56-1.394.56h-.007v2.03h.007c1.102 0 2.103-.44 2.834-1.155l-1.44-1.436z" fill="#FFF"/><path d="M114.388 72.703h-2.038a1.999 1.999 0 0 1-.62 1.396l1.44 1.436a4.022 4.022 0 0 0 1.218-2.832" fill="#CD1B23"/><path d="M110.329 70.643v-2.03a4.047 4.047 0 0 0-2.886 1.214l1.44 1.435a2.01 2.01 0 0 1 1.446-.619" fill="#FFF"/><path d="M108.883 71.262l-1.44-1.436a4.018 4.018 0 0 0-1.16 2.825l.001.052h2.038l-.001-.052c0-.539.214-1.028.562-1.389m3.075.199l1.448-1.443a4.05 4.05 0 0 0-3.07-1.406h-.007v2.031h.007c.665 0 1.255.322 1.622.818" fill="#CD1B23"/><path d="M112.35 72.703h2.038v-.052c0-1.005-.37-1.925-.982-2.633l-1.448 1.443c.247.334.393.745.393 1.19l-.001.052m-.967-6.158a.739.739 0 0 1-.74.738.739.739 0 0 1-.74-.738v-1.081a.74.74 0 0 1 1.48 0v1.081z" fill="#FFF"/><path d="M110.254 71.08a.523.523 0 0 1-.144-.02c-1.146-.33-.426-4.103-.177-5.25l.427.09c-.47 2.173-.633 4.596-.13 4.741.02.006.037.008.07-.016.47-.356.662-3.003.647-4.768l.436-.004c.007.746-.004 4.502-.82 5.119a.507.507 0 0 1-.309.108" fill="#FFF"/><path d="M63.24 60.875a2.665 2.665 0 0 1-2.67 2.66 2.665 2.665 0 0 1-2.67-2.66c0-1.47 1.196-2.66 2.67-2.66a2.665 2.665 0 0 1 2.67 2.66" fill="#F3D2A5"/><path d="M60.663 59.367s-2.499 1.016-2.668 2.209c0 0 .345 1.6 2.145 1.925 0 0 .819-1.29.95-3.8 0 0-.106-.363-.427-.334m.919.243s1.56 1.032 1.358 2.488c0 0 .474-.675.23-1.9 0 0-.209-1.175-1.366-1.034 0 0-.35.087-.222.445m-.403-.814s-.01-.71-1.07-.552c0 0-.625.109-1.218.552 0 0 1.504-.317 1.853.216 0 0 .424.185.435-.216" fill="#CD1B23"/><path d="M61.717 59.532c-.141.229-.478.277-.751.11-.274-.169-.382-.49-.24-.719.14-.228.477-.277.75-.109.275.168.382.49.241.718" fill="#D8D423"/><path fill="#3B3E43" d="M19.577 58.365h1.352v-13.24h-1.352zm15.477.295h1.352V45.421h-1.352z"/><path d="M27.933 52.646a.185.185 0 0 0-.185.184v.538a.185.185 0 0 0 .37 0v-.538a.185.185 0 0 0-.185-.184m0-2.867a.185.185 0 0 0-.185.184v.538a.185.185 0 0 0 .37 0v-.538a.185.185 0 0 0-.185-.184m0 1.433a.185.185 0 0 0-.185.185v.537a.185.185 0 0 0 .37 0v-.537a.185.185 0 0 0-.185-.185m0-2.867a.185.185 0 0 0-.185.185v.537a.185.185 0 0 0 .37 0v-.537a.185.185 0 0 0-.185-.185m0-1.433a.185.185 0 0 0-.185.184v.538a.185.185 0 0 0 .37 0v-.538a.185.185 0 0 0-.185-.184m0 7.11a.185.185 0 0 0-.185.184v.137a.185.185 0 0 0 .37 0v-.137a.185.185 0 0 0-.185-.184m-5.048-7.11a.185.185 0 0 0-.185.184v.538a.185.185 0 0 0 .37 0v-.538a.184.184 0 0 0-.185-.184m0 1.433a.185.185 0 0 0-.185.185v.537a.185.185 0 0 0 .37 0v-.537a.185.185 0 0 0-.185-.185m0 4.301a.185.185 0 0 0-.185.184v.538a.185.185 0 0 0 .37 0v-.538a.185.185 0 0 0-.185-.184m0-2.867a.185.185 0 0 0-.185.184v.538a.185.185 0 0 0 .37 0v-.538a.185.185 0 0 0-.185-.184m0 1.433a.185.185 0 0 0-.185.185v.537a.185.185 0 0 0 .37 0v-.537a.184.184 0 0 0-.185-.185m0 2.81a.185.185 0 0 0-.185.184v.137a.185.185 0 0 0 .37 0v-.137a.185.185 0 0 0-.185-.184m2.547-5.737a.184.184 0 0 0-.185.184v.537a.185.185 0 0 0 .37 0v-.537a.185.185 0 0 0-.185-.184m0-1.434a.185.185 0 0 0-.185.185v.537a.185.185 0 0 0 .37 0v-.537a.185.185 0 0 0-.185-.185m0 4.3a.185.185 0 0 0-.185.185v.537a.185.185 0 0 0 .37 0v-.537a.185.185 0 0 0-.185-.185m0 1.434a.184.184 0 0 0-.185.184v.538a.185.185 0 0 0 .37 0v-.538a.185.185 0 0 0-.185-.184m0-2.867a.185.185 0 0 0-.185.184v.538a.185.185 0 0 0 .37 0v-.538a.185.185 0 0 0-.185-.184m0 4.242a.185.185 0 0 0-.185.185v.137a.185.185 0 0 0 .37 0v-.137a.185.185 0 0 0-.185-.184m7.367-1.405a.184.184 0 0 0-.185.184v.537a.184.184 0 0 0 .37 0v-.537a.185.185 0 0 0-.185-.184m0-2.867a.185.185 0 0 0-.185.184v.537a.185.185 0 0 0 .37 0v-.537a.185.185 0 0 0-.185-.184m0 1.433a.184.184 0 0 0-.185.184v.538a.185.185 0 0 0 .37 0v-.538a.185.185 0 0 0-.185-.184m0-2.867a.185.185 0 0 0-.185.184v.538a.184.184 0 0 0 .37 0v-.538a.185.185 0 0 0-.185-.184m0-1.433a.184.184 0 0 0-.185.184v.538a.185.185 0 0 0 .37 0v-.538a.185.185 0 0 0-.185-.184m0 7.109a.185.185 0 0 0-.185.185v.137a.185.185 0 0 0 .37 0v-.137a.185.185 0 0 0-.185-.185m-2.501-5.565a.185.185 0 0 0-.185.185v.537a.185.185 0 0 0 .37 0v-.537a.185.185 0 0 0-.185-.185m0-1.433a.185.185 0 0 0-.185.184v.538a.185.185 0 0 0 .37 0v-.538a.185.185 0 0 0-.185-.184m0 4.3a.185.185 0 0 0-.185.184v.538a.185.185 0 0 0 .37 0v-.538a.185.185 0 0 0-.185-.184m0 1.434a.185.185 0 0 0-.185.184v.537a.185.185 0 0 0 .37 0v-.537a.185.185 0 0 0-.185-.184m0-2.867a.185.185 0 0 0-.185.184v.538a.185.185 0 0 0 .37 0v-.538a.185.185 0 0 0-.185-.184m0 4.243a.185.185 0 0 0-.185.184v.137c0 .102.083.184.185.184a.185.185 0 0 0 .185-.184v-.137a.185.185 0 0 0-.185-.184" fill="#75BEEE"/><path d="M46.803 63.753c-1.233 0-5.244-8.943-10.566-8.943H20.151c-5.322 0-9.332 8.943-10.565 8.943H2.2v7.225h7.681c3.04 0 5.12-2.455 7.132-4.83.805-.949 2.464-3.85 3.217-4.113h15.928c.754.263 2.413 3.164 3.217 4.114 2.012 2.374 4.093 4.83 7.132 4.83h7.681v-7.226h-7.385z" fill="#CD1B23"/><path d="M37.315 46.222v-1.126a2.39 2.39 0 0 0-2.394-2.386H21.27a2.39 2.39 0 0 0-2.393 2.386v1.131h18.437v-.005" fill="#D8D423"/><path d="M19.577 62.316a.675.675 0 0 0 1.352 0v-7.312a.675.675 0 0 0-1.352 0v7.312zm15.477 0a.675.675 0 0 0 1.352 0v-7.312a.675.675 0 0 0-1.352 0v7.312zm18.516 8.598c0 .372.302.674.676.674a.675.675 0 0 0 .676-.674v-7.31a.675.675 0 0 0-1.352 0v7.31zm-52.046.315a.675.675 0 1 0 1.352 0v-7.311a.675.675 0 0 0-1.352 0v7.31zM13.2 69.833a.677.677 0 0 0 .93.22.672.672 0 0 0 .22-.928l-3.855-6.22a.677.677 0 0 0-.931-.219.672.672 0 0 0-.22.927l3.856 6.22zm30.194.172a.677.677 0 0 1-.93.22.672.672 0 0 1-.22-.928l3.855-6.22a.677.677 0 0 1 .93-.219.67.67 0 0 1 .22.927l-3.855 6.22z" fill="#F3D2A5"/><path fill="#3D8EC3" d="M32.37 77.525h.87V66.653h-.87zm-6.032-.108h.871V66.874h-.87z"/><path fill="#3D8EC3" d="M26.774 73.99h5.947v-.696h-5.947zm0-3.376h5.947v-.697h-5.947z"/><path d="M32.462 77.31h-.871V61.625c0-.717.87-.672.87 0V77.31zm-6.032-.009h-.87V61.517c0-.507.87-.556.87 0V77.3z" fill="#DBDCDD"/><path fill="#DBDCDD" d="M25.995 73.713h5.947v-.535h-5.947zm0-3.377h5.947v-.534h-5.947zm0-3.462h5.947v-.534h-5.947z"/></g></svg>