<svg width="120" height="120" viewBox="0 0 120 120" xmlns="http://www.w3.org/2000/svg" xmlns:xlink="http://www.w3.org/1999/xlink"><defs><path id="a" d="M0 41.397h119.687V0H0z"/></defs><g transform="translate(0 39)" fill="none" fill-rule="evenodd"><path d="M60.126 16.895c31.42 0 47.254-9.244 53.865-14.705 1.568-1.293 3.923-.174 3.923 1.862v19.646-7.16 19.645c0 2.037-2.355 3.156-3.923 1.862-6.611-5.46-22.445-14.705-53.865-14.705" fill="#EE5642"/><mask id="b" fill="#fff"><use xlink:href="#a"/></mask><path fill="#EE5642" mask="url(#b)" d="M6.516 23.424h66.4v-6.549h-66.4z"/><path d="M6.584 17.381v5.537c0 .71-.573 1.285-1.28 1.285h-.592c-.707 0-1.28-.575-1.28-1.285v-1.764c-.571-1.166-1.578-2.65-3.073-2.858a.416.416 0 0 1-.36-.414v-1.366a.42.42 0 0 1 .42-.421h4.884c.707 0 1.28.576 1.28 1.286m45.73-5.561v12.432c0 1.207.975 2.187 2.179 2.187 1.203 0 2.179-.98 2.179-2.187V11.82a2.183 2.183 0 0 0-2.18-2.187 2.182 2.182 0 0 0-2.178 2.187" fill="#F7B018" mask="url(#b)"/><path d="M54.987 3.867c-2.68 0-4.853 2.18-4.853 4.871 0 2.69 2.173 4.87 4.853 4.87 2.68 0 4.854-2.18 4.854-4.87s-2.174-4.871-4.854-4.871M40.755 11.82v12.432c0 1.207.976 2.187 2.18 2.187 1.202 0 2.178-.98 2.178-2.187V11.82a2.183 2.183 0 0 0-2.179-2.187 2.183 2.183 0 0 0-2.179 2.187" fill="#F7B018" mask="url(#b)"/><path d="M43.43 3.867c-2.681 0-4.854 2.18-4.854 4.871 0 2.69 2.173 4.87 4.853 4.87 2.68 0 4.854-2.18 4.854-4.87s-2.174-4.871-4.854-4.871M29.197 11.82v12.432c0 1.207.976 2.187 2.179 2.187 1.204 0 2.179-.98 2.179-2.187V11.82a2.183 2.183 0 0 0-2.18-2.187 2.183 2.183 0 0 0-2.178 2.187" fill="#F7B018" mask="url(#b)"/><path d="M31.872 3.867c-2.68 0-4.854 2.18-4.854 4.871 0 2.69 2.173 4.87 4.854 4.87 2.68 0 4.853-2.18 4.853-4.87s-2.173-4.871-4.853-4.871m81.697-.797v35.256a3.065 3.065 0 0 0 3.059 3.071 3.064 3.064 0 0 0 3.059-3.07V3.07a3.066 3.066 0 0 0-3.06-3.071 3.065 3.065 0 0 0-3.058 3.07" fill="#F7B018" mask="url(#b)"/></g></svg>