<svg xmlns="http://www.w3.org/2000/svg" width="121.683" height="117.01" viewBox="-7.837 -2.769 121.683 117.01"><defs><style/></defs><g id="ID0.3723761816509068"><g id="Back_Wing"><path id="Outer_1_" fill="#279AFA" d="M123.271 110.894c.396 12.5 15.305 34.272 25.38 43.338 2.336 2.103 4.285 6.949 3.972 16.063-.144 4.061-.802 8.322-2.535 12.896 0 0-.689 4.151-5.004 11.729-7.49 13.15-32.371 23.73-29.308-3.83.916-8.252 4.92-16.797 7.354-20.354-1.617.864-9.622 5.766-13.014 1.821-4.341-5.048 11.015-17.396 11.015-17.396-4.07 1.771-9.608 3.076-11.393-.156-2.5-4.539 5.312-11.735 5.312-11.735-2.411-.122-6.667.161-7.533-2.147-.866-2.311 2.429-7.326 3.941-8.729-4.5-.347-6.821-2.252-6.915-4.207-.291-2.071 2.652-6.327 7.312-9.558-2.895-5.062-.165-10.823 2.16-12.11 2.229-1.234 4.438-1.092 6.657.125 1.051.563 2.52 1.742 2.599 4.25z" transform="translate(-23.95 -52.9) scale(.7351)"/><path id="Inner_2_" fill="#0043A5" d="M123.271 110.894c.396 12.5 15.305 34.272 25.38 43.338 2.336 2.103 4.285 6.949 3.972 16.063-.144 4.061-.802 8.322-2.535 12.896-2.529 6.797-13.592 20.033-21.236 18.461-13.607-2.801 3.729-37.096 3.729-37.096-26.615 8.772-3.36-13.524-3.36-13.524-24.232 5.395-6.782-10.81-6.782-10.81-16.812 1.043-3.695-11.043-3.695-11.043-14.289-.108-6.882-10.556-6.882-10.556-2.896-5.062-.166-10.824 2.159-12.11 2.229-1.233 4.438-1.092 6.657.127 1.045.567 2.514 1.746 2.593 4.254z" transform="translate(-23.95 -52.9) scale(.7351)"/></g><path id="Back_Foot" fill="#FFA600" d="M129.685 121.754c2.035-3.521 4.691-5.062 8.737-5.56 1.737-.198 2.979-.149 4.368.894 1.266.943-.491 3.498-6.174 4.492 6.106.567 9.351 1.267 9.847 3.649.373 1.86-2.283 2.854-4.169 2.579-4.293-.618-8.985-2.281-11.021 1.591-.521.991-.746 1.96-1.787 2.282-1.144.35-2.532-.373-2.683-1.588-.248-2.16.949-3.489.396-5.561-.197-.744-8.339-3.873-11.664-5.213 1.638-.396 3.797-1.812 5.409-2.283 1.097-.321 6.011 2.338 8.741 4.718z" transform="translate(-24 -52.85) scale(.7351)"/><path id="Body_1_" fill="#279AFA" d="M137.13 96.778c.157-.935.418-1.913.784-2.952 2.132-6.038 6.535-9.625 12.645-11.649a45.599 45.599 0 0 1 2.951-.863c4.486-1.146 9.451-1.582 13.56.184a18.466 18.466 0 0 0-2.444-2.445c-13.088-10.924-29.194-5.396-43.756 3.694-11.152 6.961-39.498 26.141-47.168 24.721-25.164-18.561-34.097-15.629-36.083-11.65-1.849 3.765 2.415 7.956 5.824 10.514-6.129 1.047-9.681.62-10.088 4.83-.374 3.857 5.114 4.404 8.95 5.396-3.41 1.421-6.307 3.668-4.991 6.444 1.279 2.701 7.814 3.271 11.792 2.131-2.131 3.979-5.112 13.214 4.141 9.896 8.592-3.083 13.496-7.812 20.741-13.639 11.224 11.647 27.845 16.905 35.942 13.778 14.174-5.469 22.61-18.465 27.514-33.243-.508-1.618-.625-3.292-.314-5.147z" transform="translate(-24 -52.85) scale(.7351)"/><path id="Eye_Spot" fill="#0043A5" d="M150.558 82.176a44.975 44.975 0 0 1 2.951-.863c-5.875-4.839-13.856-4.01-21.212-.706-4.64 2.088-7.823 7.101-4.931 10.966 3.484 4.658 7.888 5.578 9.764 5.206.156-.935.418-1.913.785-2.952 2.131-6.04 6.535-9.627 12.643-11.651z" transform="translate(-24 -52.85) scale(.7351)"/><path id="Beak" fill="#FFA600" d="M168.886 82.46a12.172 12.172 0 0 0-1.816-.965c-4.106-1.766-9.071-1.33-13.56-.185-1.012.26-2.003.551-2.951.864-6.107 2.024-10.513 5.611-12.645 11.649a17.87 17.87 0 0 0-.784 2.952c-.312 1.854-.193 3.528.312 5.146.597 1.913 1.736 3.743 3.456 5.683 3.872 4.368 10.778 6.766 15.469 3.034-3.906-1.277-5.878-5.2-5.38-9.285 11.914-4.068 20.58 14.543 23.155 26.424 13.38-29.331-5.256-45.317-5.256-45.317z" transform="translate(-24 -52.85) scale(.7351)"/><path id="Front_Foot" fill="#FFA600" d="M124.139 136.463c3.666-4.523 7.766-6.104 13.594-5.9 2.5.105 5.365 1.079 5.847 3.521.866 4.404-9.66 1.988-11.791 4.119 7.812-.994 15.121 3.45 15.289 6.93.106 2.713-3.866 3.521-6.474 2.715-5.93-1.838-12.188-5.237-15.931-.223-.959 1.287-1.492 2.604-3.037 2.826-1.69.235-3.495-1.093-3.434-2.845.134-3.106 2.825-4.879 1.807-7.771-1.578-4.477-9.959-7.176-15.321-9.979 2.404-.193 6.071-1.459 7.922-3.164 1.986.713 8.204 5.794 11.529 9.771z" transform="translate(-24 -52.85) scale(.7351)"/><g id="Front_Wing"><path id="Outer" fill="#279AFA" d="M119.803 109.106c-9.573 14.059-10.623 49.921-6.807 67.948.885 4.182-.854 11.071-8.5 20.838-3.402 4.349-7.541 8.505-13.109 12.14 0 0-4.083 4.016-14.891 8.887-18.762 8.455-54.576.16-29.144-27.678 7.616-8.334 18.856-14.521 24.381-16.48-2.47-.344-15.189-1.368-15.762-8.418-.729-9.02 26.034-10.301 26.034-10.301-5.891-1.312-13.021-4.312-12.393-9.293.886-6.988 15.23-8.646 15.23-8.646-2.551-2.065-7.457-5.159-6.56-8.394.896-3.234 8.534-6.106 11.321-6.439-4.671-3.982-5.694-7.938-4.23-10.16 1.341-2.514 7.984-4.829 15.688-4.648.873-7.88 8.485-12.027 12.073-11.58 3.438.425 5.748 2.351 7.218 5.469.703 1.465 1.37 3.934-.549 6.755z" transform="translate(-23.95 -52.9) scale(.7351)"/><path id="Inner_1_" fill="#0043A5" d="M119.803 109.106c-9.573 14.059-10.623 49.921-6.807 67.948.885 4.182-.854 11.071-8.5 20.838-3.402 4.349-7.541 8.505-13.109 12.14-8.221 5.444-30.978 11.137-38.12 3.287-12.716-13.975 33.801-37.779 33.801-37.779-36.276-11.67 7.138-17.56 7.138-17.56-30.956-13.478 1.198-17.312 1.198-17.312-19.312-12.312 4.775-15.098 4.775-15.098-15.614-11.561.889-17.107.889-17.107.875-7.881 8.485-12.026 12.073-11.581 3.438.425 5.748 2.351 7.218 5.47.696 1.464 1.363 3.933-.556 6.754z" transform="translate(-23.95 -52.9) scale(.7351)"/></g><g id="L_Eye"><path id="Eyeball_1_" fill="#FFF" stroke="#000" d="M48.638 22.831c2.926 4.48 2.618 9.862-.682 12.015-3.303 2.159-8.352.272-11.275-4.208-2.928-4.48-2.624-9.86.678-12.017 3.302-2.156 8.35-.272 11.279 4.21" transform="rotate(31.046 77.838 100.828) scale(.8145)"/><path id="Pupil_1_" d="M46.85 28.719c0 1.081-.803 1.957-1.801 1.957-.992 0-1.804-.878-1.804-1.957 0-1.08.812-1.957 1.804-1.957.996 0 1.801.877 1.801 1.957" transform="rotate(31.046 77.838 100.828) scale(.8145)"/></g></g></svg>