<svg width="120" height="120" viewBox="0 0 120 120" xmlns="http://www.w3.org/2000/svg"><g fill="none" fill-rule="evenodd"><path d="M61.881 65.523C33.54 71.935.474 81.787.342 60.32c-.111-17.794 36.83-13.026 52.76-18.792 15.93-5.766 37.088-24.274 46.615-11.075C110.42 45.28 82.372 60.885 61.881 65.522" fill="#F7A305"/><path d="M99.717 30.454c-3.632-5.033-8.956-5.455-15.036-3.731-5.442 6.741-9.528 10.944-17.985 15.939-5.19 3.065-11.175 5.18-17.05 6.557-8.554 2.007-17.688 2.51-26.486 2.27a41.86 41.86 0 0 1-13.156-2.508C4.197 51.133.305 54.531.342 60.321c.132 21.466 33.197 11.614 61.54 5.202 20.49-4.637 48.538-20.242 37.835-35.069" fill="#F7A305"/><path d="M69.164 76.91C37.351 84.107.234 95.168.085 71.072-.037 51.1 41.428 56.45 59.31 49.978c17.881-6.473 41.632-27.248 52.323-12.433 12.016 16.646-19.467 34.16-42.469 39.365" fill="#AC571E"/><path d="M111.634 37.546c-1.546-2.142-3.367-3.537-5.403-4.342C102.9 46.101 79.596 57.792 61.523 61.88 38.573 67.075 12.869 74.273.266 68.84a13.143 13.143 0 0 0-.18 2.233c.149 24.096 37.265 13.035 69.08 5.838 22.999-5.207 54.482-22.72 42.468-39.365" fill="#814117"/><path d="M74.412 85.949c-31.814 7.198-68.93 18.26-69.079-5.838-.122-19.975 41.343-14.622 59.225-21.095 17.882-6.472 41.63-27.247 52.323-12.432 12.016 16.644-19.467 34.16-42.469 39.365" fill="#FAAC2F"/><path d="M5.511 82.68c8.347-7.952 19.79-12.949 30.81-15.555 9.204-2.176 18.865-2.941 28.293-3.221 4.306-.127 8.572.192 12.855.214.7-.156 1.398-.324 2.092-.506a58.336 58.336 0 0 0 2.335-1.296c2.796-2.44 5.41-5.077 7.896-7.846 2.849-3.746 5.573-7.591 8.255-11.464-10.66 3.614-23.069 12.239-33.49 16.009-17.881 6.474-59.346 1.122-59.223 21.096.007.907.07 1.761.177 2.569" fill="#FAAC2F"/><path d="M116.882 46.584c-9.433-13.07-29.027 1.558-45.791 9.63a33.918 33.918 0 0 1-2.7 6.125c-1.97 5.492-5.19 10.195-9.659 14.115-4.174 4.24-9.048 7.173-14.632 8.807-5.398 2.636-11.161 3.743-17.291 3.323l-.368-.013c-7.51-.254-14.49-2.25-20.943-5.983 2.672 20.82 38.254 10.298 68.915 3.36 23-5.204 54.484-22.719 42.469-39.364" fill="#F7A305"/><path d="M116.882 46.584c-2.601-3.606-5.98-5.096-9.858-5.205-.016 4.576-.657 9.073-1.881 13.05-3.43 11.146-11.43 20.252-21.308 26.108-3.125 1.854-6.15 3.69-9.235 5.367 22.983-5.256 54.264-22.72 42.282-39.32" fill="#F7A305"/><path d="M10.922 62.267c8.939-2.553 10.148 1.714 19.085-.837 8.937-2.553 7.729-6.82 16.667-9.372 8.937-2.552 10.147 1.716 19.083-.837 8.94-2.554 7.73-6.82 16.67-9.372 8.94-2.552 10.15 1.715 19.087-.838" stroke="#F0EA78" stroke-width="3.707" stroke-linecap="round" stroke-linejoin="round"/><path d="M100.647 38.944c-8.935 2.55-10.456-2.818-19.392-.27-8.938 2.553-7.415 7.924-16.355 10.476-8.935 2.55-10.456-2.819-19.392-.268-8.941 2.552-7.42 7.923-16.362 10.475-8.94 2.553-10.462-2.816-19.404-.263" stroke="#FF4F19" stroke-width="3.707" stroke-linecap="round" stroke-linejoin="round"/></g></svg>