<svg xmlns="http://www.w3.org/2000/svg" width="108.134" height="102.273" viewBox="1.55 1.5 108.134 102.273"><defs><style/></defs><g id="XMLID_2_" transform="translate(1)"><g id="ID0.6858252985402942"><path id="ID0.5460412274114788" fill="#F15C55" d="M11.077 58.58c4.569 10.539 9.138 21.068 13.697 31.598l17.091-14.605-5.033-12.098c-.059 0-.128.01-.188.02-4.697.395-9.443.365-14.111-.404-3.651-.612-7.253-1.678-10.332-3.71a33.306 33.306 0 0 1-1.124-.801z" transform="translate(9.25 17.55) scale(.7351)"/><path id="ID0.9559019207954407" fill="#FFDE0F" d="M24.773 90.177c.188.424.375.849.553 1.272l17.101-14.535-.563-1.343-17.091 14.606z" transform="translate(9.25 17.55) scale(.7351)"/><path id="ID0.5515039362944663" fill="#F05465" d="M25.326 91.45a3363.37 3363.37 0 0 1 2.881 6.642L45.348 83.94l-2.921-7.025L25.326 91.45z" transform="translate(9.25 17.55) scale(.7351)"/><path id="ID0.6888519120402634" fill="#FFD67B" d="M26.264 40.126a4.719 4.719 0 0 0-.168 1.815c.049.415.158.819.365 1.174.286.523.74.947 1.243 1.293a7.847 7.847 0 0 0 1.559.809c.632.237 1.293.415 1.954.553 1.056.217 2.112.335 3.178.385 1.362.069 2.723.029 4.085-.069 4.835-.345 9.592-1.421 14.23-2.852a89.164 89.164 0 0 0 11.407-4.392 77.6 77.6 0 0 0 8.812-4.796c2.665-1.677 5.221-3.542 7.5-5.713.928-.888 1.815-1.826 2.596-2.842.641-.829 1.224-1.717 1.638-2.684.286-.641.493-1.322.553-2.033.039-.523-.01-1.065-.207-1.559-.197-.483-.533-.908-.928-1.263-.523-.474-1.145-.819-1.796-1.095a8.726 8.726 0 0 0-1.145-.395 12.142 12.142 0 0 0-1.461-.336c-1.085-.197-2.19-.286-3.286-.325-2.95-.079-5.901.227-8.812.73-2.822.503-5.605 1.194-8.349 2.013-5.348 1.599-10.559 3.69-15.512 6.286-3.188 1.668-6.266 3.543-9.148 5.694-1.52 1.145-2.98 2.369-4.322 3.721-1.213 1.213-2.329 2.536-3.167 4.026-.336.592-.632 1.204-.819 1.855z" transform="translate(9.25 17.55) scale(.7351)"/><path id="ID0.48989149648696184" fill="#A41C3C" d="M28.208 98.091c.375.858.75 1.717 1.115 2.575l17.17-13.963-1.145-2.764-17.14 14.152z" transform="translate(9.25 17.55) scale(.7351)"/><path id="ID0.4599971412681043" fill="#E74273" d="M27.665 110.939c.207.099.444.158.661.218.128.029.247.068.375.078.079.021.167.021.247.03.227.02.434.039.661.039.335-.01.691-.089.977-.267.276-.178.483-.434.671-.72.128-.188.237-.385.306-.603.079-.267.079-.563.02-.839-.059-.325-.217-.641-.365-.938 0-.01-.01-.02-.01-.029-.01-.01-.01-.02-.02-.029-7.51-17.327-15.029-34.655-22.539-51.983a1.17 1.17 0 0 0-.326-.435c-.256-.207-.533-.395-.849-.503a2.306 2.306 0 0 0-.73-.119 2.96 2.96 0 0 0-1.224.316c-.375.178-.72.424-.997.74a2.232 2.232 0 0 0-.365.552c-.119.276-.168.583-.188.898-.01.188.01.355.089.533 7.5 17.318 15.009 34.626 22.509 51.945.258.455.613.889 1.097 1.116z" transform="translate(9.25 17.55) scale(.7351)"/><path id="ID0.041358950547873974" fill="#9B1B3C" d="M8.323 55.461c.148.128.247.257.326.435 7.51 17.329 15.029 34.657 22.539 51.985.01.01.01.02.02.029 0 .01.01.02.01.029.148.297.306.612.365.938.059.276.059.572-.02.839a2.285 2.285 0 0 1-.306.603c-.188.286-.395.542-.671.72-.286.178-.642.257-.977.267-.227 0-.434-.02-.661-.039-.079-.01-.168-.01-.247-.03-.128-.01-.247-.049-.375-.078-.217-.06-.454-.119-.661-.218-.484-.227-.839-.661-1.096-1.115C19.07 92.505 11.56 75.197 4.061 57.879a1.105 1.105 0 0 1-.089-.533c.02-.316.069-.622.188-.898.089-.197.217-.385.365-.552.276-.316.622-.563.997-.74a2.955 2.955 0 0 1 1.224-.316c.247 0 .493.04.73.119.315.107.591.295.847.502zm22.302 56.831c.701-.237 1.165-.701 1.628-1.392.385-.582.77-1.322.355-2.635a6.426 6.426 0 0 0-.355-.849l-2.931-6.75c-.365-.858-.74-1.717-1.115-2.575-.957-2.211-1.915-4.421-2.881-6.642a67.013 67.013 0 0 0-.553-1.272c-4.559-10.529-9.128-21.059-13.697-31.598v-.01h-.01c-.267-.632-.543-1.253-.809-1.885-.217-.493-.435-.997-.651-1.49a.974.974 0 0 0-.276-.385c-.898-.829-1.688-1.096-2.369-1.115-.315-.02-.602.01-.858.059-.858.158-1.411.474-2.023.977-.592.474-1.224 1.115-1.283 2.891-.01.178.02.336.089.503a82075.584 82075.584 0 0 1 22.637 52.212c.701 1.253 1.628 1.717 2.556 1.954.928.228 1.856.228 2.546.002z" transform="translate(9.25 17.55) scale(.7351)"/><path id="ID0.24118993617594242" fill="#E7638C" d="M35.994 61.214a62.053 62.053 0 0 1-7.796.147c-2.724-.138-5.447-.483-8.092-1.154-2.013-.503-3.977-1.194-5.763-2.23a16.911 16.911 0 0 1-1.845-1.243 13.232 13.232 0 0 1-2.339-2.31l-.829.386a.957.957 0 0 1 .276.385c.217.493.434.997.651 1.49.276.632.542 1.253.819 1.885v.01c.375.276.74.542 1.125.799 3.079 2.033 6.681 3.098 10.332 3.71 4.668.77 9.415.799 14.111.404a1.2 1.2 0 0 1 .188-.02l-.108-.267c-.217-.513-.424-1.026-.642-1.539a1.19 1.19 0 0 1-.088-.453z" transform="translate(9.25 17.55) scale(.7351)"/><path id="ID0.36314728343859315" fill="#E74273" d="M60.792 115.686c.306.138.631.246.967.296.523.079 1.066.01 1.52-.247.178-.099.346-.217.494-.354l.247-.247c.109-.108.217-.207.316-.315.138-.139.276-.297.355-.464.099-.208.128-.435.119-.661 0-.228-.04-.454-.099-.672C57.269 95.13 49.838 77.25 42.398 59.369a1.09 1.09 0 0 0-.355-.464 2.897 2.897 0 0 0-.671-.464 1.704 1.704 0 0 0-.572-.188 1.94 1.94 0 0 0-.474.04c-.385.089-.75.247-1.085.444-.385.208-.74.474-1.086.75a3.142 3.142 0 0 0-.483.474 2.122 2.122 0 0 0-.404.789c-.089.276-.079.513.029.779 7.372 17.703 14.723 35.407 22.085 53.11.099.217.237.385.444.513.305.198.63.386.966.534z" transform="translate(9.25 17.55) scale(.7351)"/><path id="ID0.026571299880743027" fill="#F15C55" d="M54.407 113.199c.917.069 1.756.04 3.089-.039L46.493 86.704l-17.17 13.963 2.931 6.75c.158.306.267.592.355.849 1.5 1.371 2.891 1.835 3.977 2.221 1.085.395 1.855.7 3.02.986 1.155.296 2.704.563 4.638.76 1.934.188 4.253.306 6.029.483 1.776.167 3.019.405 4.134.483z" transform="translate(9.25 17.55) scale(.7351)"/><path id="ID0.7023442313075066" fill="#9B1B3C" d="M59.381 114.64c-7.362-17.703-14.713-35.407-22.085-53.11a1.064 1.064 0 0 1-.029-.779c.079-.286.217-.563.404-.789.138-.178.306-.326.483-.474.346-.276.701-.542 1.086-.75.335-.197.7-.355 1.085-.444a1.99 1.99 0 0 1 .474-.04c.197.02.395.099.572.188.247.128.474.276.671.464.168.128.276.276.355.464 7.44 17.88 14.871 35.761 22.312 53.652.059.218.099.444.099.672.01.227-.02.453-.119.661a1.793 1.793 0 0 1-.355.464c-.099.108-.207.207-.316.315l-.247.247a2.472 2.472 0 0 1-.494.354c-.454.257-.997.326-1.52.247a3.697 3.697 0 0 1-.967-.296 7.091 7.091 0 0 1-.967-.533 1.124 1.124 0 0 1-.442-.513zM46.493 86.704l11.003 26.456c.315.74.622 1.48.927 2.221.089.207.217.364.405.503 2.003 1.411 3.315 1.401 4.204 1.184.928-.236 1.392-.7 1.974-1.282.583-.572 1.273-1.273.809-3.128-.01-.03-.029-.069-.039-.099-3.346-8.043-6.681-16.085-10.036-24.118l-1.214-2.931-4.45-10.707-3-7.203-2.092-5.033a1.318 1.318 0 0 1-.079-.188c-.306-.73-.612-1.47-.918-2.2-.217-.533-.444-1.056-.661-1.589a1.093 1.093 0 0 0-.326-.444c-1.411-1.174-2.279-1.155-3.088-.938-.849.227-1.628.69-2.358 1.273-.681.542-1.333 1.174-1.549 2.575-.01.06-.01.099-.01.158 0 .158.029.306.088.454.217.513.424 1.026.642 1.539l.108.267 5.033 12.098.563 1.343 2.921 7.025 1.143 2.764z" transform="translate(9.25 17.55) scale(.7351)"/><path id="ID0.7846485273912549" fill="#FFDE0F" d="M73.551 90.147l17.595-29.604c-.257-.603-.503-1.204-.75-1.806L73.551 88.292 47.075 67.599l3 7.203 23.476 15.345z" transform="translate(9.25 17.55) scale(.7351)"/><path id="ID0.05230782367289066" fill="#F05465" d="M74.015 98.042c.928.464 1.855.228 2.556-.118.69-.346 1.154-.81 2.082-2.2l15.71-27.443a2815.64 2815.64 0 0 1-3.217-7.736L73.551 90.147 50.075 74.802l4.45 10.707 19.49 12.533z" transform="translate(9.25 17.55) scale(.7351)"/><path id="ID0.32235867576673627" fill="#E7638C" d="M84.228 43.935a110.825 110.825 0 0 1-40.242 16.243c.306.73.612 1.47.918 2.2 4.135-.77 8.23-1.815 12.236-3.079a117.107 117.107 0 0 0 14.98-5.881 108.5 108.5 0 0 0 13.016-7.302c-.296-.73-.601-1.45-.908-2.181z" transform="translate(9.25 17.55) scale(.7351)"/><path id="ID0.6150966309942305" fill="#F37355" d="M85.136 46.116a108.422 108.422 0 0 1-13.016 7.302 117.107 117.107 0 0 1-14.98 5.881 104.284 104.284 0 0 1-12.236 3.079c.02.06.049.129.079.188l2.092 5.033 26.476 20.693 16.845-29.555c-1.688-4.036-3.365-8.072-5.043-12.108-.068-.168-.138-.345-.217-.513z" transform="translate(9.25 17.55) scale(.7351)"/><path id="ID0.19296439876779914" fill="#94193B" d="M78.594 32.942a40.817 40.817 0 0 0 4.075-3.553c1.303-1.313 2.517-2.724 3.443-4.322.632-1.085 1.135-2.25 1.333-3.483.177-1.075.128-2.21-.276-3.227-.415-1.017-1.155-1.875-2.033-2.536-.997-.75-2.161-1.243-3.355-1.589-1.421-.415-2.891-.612-4.371-.701a36.268 36.268 0 0 0-5.171.069 55.225 55.225 0 0 0-6.385.898c-4.45.878-8.812 2.171-13.055 3.76s-8.378 3.474-12.335 5.704a70.268 70.268 0 0 0-5.023 3.089 80.183 80.183 0 0 0-2.369 1.707c-2.723 2.053-5.299 4.352-7.243 7.145-.74 1.065-1.392 2.201-1.747 3.444a8.348 8.348 0 0 0-.315 1.648c-.04.553-.03 1.115.069 1.658.237 1.244.967 2.358 1.924 3.188.76.661 1.658 1.145 2.605 1.51a14.81 14.81 0 0 0 2.911.79c1.599.286 3.227.375 4.855.365a44.09 44.09 0 0 0 2.813-.119 54.415 54.415 0 0 0 2.803-.306 64.082 64.082 0 0 0 4.934-.859 84.082 84.082 0 0 0 4.865-1.213 91.145 91.145 0 0 0 16.519-6.513 75.45 75.45 0 0 0 8.161-4.835 57.085 57.085 0 0 0 2.368-1.719zm6.069-10.134c-.414.967-.997 1.855-1.638 2.684-.78 1.017-1.668 1.954-2.596 2.842-2.279 2.171-4.835 4.036-7.5 5.713a77.6 77.6 0 0 1-8.812 4.796 89.164 89.164 0 0 1-11.407 4.392c-4.638 1.431-9.395 2.506-14.23 2.852a33.155 33.155 0 0 1-4.085.069 20.367 20.367 0 0 1-3.178-.385 13.345 13.345 0 0 1-1.954-.553 7.847 7.847 0 0 1-1.559-.809c-.503-.346-.957-.77-1.243-1.293-.207-.355-.316-.76-.365-1.174-.069-.602 0-1.224.168-1.815.188-.651.483-1.263.819-1.855.839-1.49 1.954-2.813 3.167-4.026 1.342-1.352 2.803-2.576 4.322-3.721 2.882-2.151 5.96-4.026 9.148-5.694a87.384 87.384 0 0 1 15.512-6.286c2.744-.819 5.526-1.51 8.349-2.013 2.911-.503 5.862-.809 8.812-.73 1.096.039 2.201.128 3.286.325.493.079.987.198 1.461.336.395.108.779.237 1.145.395.651.276 1.272.622 1.796 1.095.395.355.73.78.928 1.263.197.494.246 1.036.207 1.559-.06.71-.267 1.392-.553 2.033z" transform="translate(9.25 17.55) scale(.7351)"/><path id="ID0.030562695115804672" fill="#E74273" d="M108.888 97.825c.316.128.642.247.978.296a2.45 2.45 0 0 0 1.52-.247c.178-.099.336-.227.483-.364.089-.079.168-.158.247-.237.108-.108.217-.207.325-.315.139-.148.267-.296.355-.474a1.59 1.59 0 0 0 .118-.651 3.98 3.98 0 0 0-.099-.681c-7.45-17.892-14.891-35.792-22.331-53.683a1.086 1.086 0 0 0-.365-.474 3.938 3.938 0 0 0-.642-.415 1.585 1.585 0 0 0-.572-.188c-.158-.02-.315.01-.474.04-.385.089-.75.247-1.096.434a7.43 7.43 0 0 0-1.085.76 3.477 3.477 0 0 0-.483.464 2.565 2.565 0 0 0-.415.819c-.079.276-.068.513.05.779 7.352 17.684 14.703 35.377 22.064 53.061.089.227.228.395.435.522.316.208.652.396.987.554z" transform="translate(9.25 17.55) scale(.7351)"/><path id="ID0.4182160599157214" fill="#FDF9D0" d="M88.018 39.347c.611-.168 1.263-.217 2.161.296l.059-.099c3.05-2.438 5.911-5.111 8.447-8.082 1.322-1.559 2.556-3.207 3.622-4.963 1.608-2.645 2.832-5.536 3.147-8.664-.158-.375-.326-.74-.483-1.115a1.194 1.194 0 0 1-.099-.493c.029-.829.188-1.411.395-1.835a10.287 10.287 0 0 0-1.875-4.085c-.721-.947-1.599-1.767-2.565-2.477a15.695 15.695 0 0 0-1.629-1.046c-1.312-.75-2.723-1.332-4.164-1.786-1.608-.513-3.256-.869-4.924-1.135a47.427 47.427 0 0 0-5.803-.523c-2.792-.079-5.595.059-8.378.335a84.849 84.849 0 0 0-9.315 1.451c-3.434.72-6.819 1.648-10.154 2.723-5.921 1.905-11.694 4.273-17.23 7.135a104.665 104.665 0 0 0-11.841 7.154 83.707 83.707 0 0 0-5.783 4.441c-2.477 2.111-4.806 4.391-6.898 6.888-1.835 2.171-3.483 4.51-4.737 7.065-.7 1.441-1.283 2.97-1.608 4.549a14.788 14.788 0 0 0-.296 3.552c.049.908.178 1.806.444 2.674.138.464.326.918.533 1.352.315.631.69 1.224 1.115 1.766.711.908 1.53 1.688 2.339 2.31.583.454 1.204.868 1.845 1.243 1.786 1.036 3.75 1.727 5.763 2.23 2.645.671 5.368 1.017 8.092 1.154 2.595.119 5.2.06 7.796-.147 0-.06 0-.099.01-.158.217-1.401.868-2.033 1.549-2.575.73-.583 1.51-1.046 2.358-1.273.809-.217 1.677-.237 3.088.938.148.128.257.266.326.444.217.533.444 1.056.661 1.589a110.833 110.833 0 0 0 40.242-16.243.52.52 0 0 0-.039-.108 1.065 1.065 0 0 1-.079-.631c.207-1.401.858-2.033 1.539-2.576.74-.584 1.511-1.048 2.369-1.275zm-64.182 3.305a6.661 6.661 0 0 1-.069-1.658 8.42 8.42 0 0 1 .315-1.648c.355-1.243 1.007-2.378 1.747-3.444 1.944-2.793 4.52-5.092 7.243-7.145a78.882 78.882 0 0 1 2.369-1.707 70.268 70.268 0 0 1 5.023-3.089c3.957-2.23 8.092-4.115 12.335-5.704 4.243-1.589 8.605-2.881 13.055-3.76a55.443 55.443 0 0 1 6.385-.898 36.122 36.122 0 0 1 5.171-.069c1.48.089 2.95.286 4.371.701 1.194.346 2.358.839 3.355 1.589.878.661 1.618 1.52 2.033 2.536.404 1.016.453 2.151.276 3.227-.198 1.234-.701 2.398-1.333 3.483-.927 1.599-2.141 3.01-3.443 4.322a40.93 40.93 0 0 1-4.075 3.553 54.65 54.65 0 0 1-2.369 1.717 75.45 75.45 0 0 1-8.161 4.835 91.145 91.145 0 0 1-16.519 6.513 83.072 83.072 0 0 1-4.865 1.213 64.082 64.082 0 0 1-4.934.859c-.938.128-1.865.227-2.803.306a45.61 45.61 0 0 1-2.813.119c-1.628.01-3.256-.079-4.855-.365a14.703 14.703 0 0 1-2.911-.79c-.947-.365-1.845-.849-2.605-1.51-.956-.827-1.686-1.942-1.923-3.186z" transform="translate(9.25 17.55) scale(.7351)"/><path id="ID0.6898425784893334" fill="#F15C55" d="M91.699 41.36c.118.276.227.563.345.839l3.75 9.019 26.16 4.688a46260.823 46260.823 0 0 0-14.881-34.341c-.897 3.079-2.486 5.921-4.371 8.526-1.421 1.974-3.01 3.819-4.707 5.566a69.301 69.301 0 0 1-6.296 5.703z" transform="translate(9.25 17.55) scale(.7351)"/><path id="ID0.0985081223770976" fill="#A41C3C" d="M94.363 68.28l-15.71 27.443c-.928 1.391-1.392 1.854-2.082 2.2-.7.346-1.628.582-2.556.118l-19.49-12.532 1.214 2.931h.01l20.122 13.313c1.282.424 2.556.464 3.838-.257v.01c.218-.118.365-.276.474-.493L95.36 70.667c-.336-.798-.671-1.588-.997-2.387z" transform="translate(9.25 17.55) scale(.7351)"/><path id="ID0.0777340680360794" fill="#F05465" d="M97.985 56.487l3.138 7.54 24.562.474c-1.007-2.319-2.013-4.628-3.01-6.947l-24.69-1.067z" transform="translate(9.25 17.55) scale(.7351)"/><path id="ID0.9899623389355838" fill="#E7638C" d="M102.702 30.09c1.885-2.605 3.474-5.447 4.371-8.526 0-.01-.01-.01-.01-.02-.533-1.234-1.075-2.477-1.608-3.71-.315 3.128-1.539 6.02-3.147 8.664-1.066 1.756-2.3 3.404-3.622 4.963-2.536 2.971-5.397 5.645-8.447 8.082l-.059.099c.286.158.592.375.938.671.147.118.256.266.325.434.089.207.168.404.257.612a69.018 69.018 0 0 0 6.296-5.704c1.696-1.746 3.285-3.591 4.706-5.565z" transform="translate(9.25 17.55) scale(.7351)"/><path id="ID0.7032539392821491" fill="#E7638C" d="M103.392 10.305c.908 1.204 1.569 2.605 1.875 4.085.247-.503.572-.799.888-1.056.355-.286.682-.513 1.057-.681-.099-.306-.218-.602-.336-.908-.543-1.313-1.332-2.536-2.27-3.611-.947-1.066-2.063-1.984-3.257-2.763-1.549-1.007-3.236-1.776-4.983-2.378-1.746-.602-3.542-1.026-5.368-1.332-4.647-.79-9.414-.799-14.111-.405-6.947.582-13.717 2.053-20.368 4.135-10.194 3.197-20.082 7.826-29.002 13.845-4.312 2.911-8.397 6.147-11.989 9.858-1.688 1.737-3.267 3.582-4.688 5.565-2.171 3-3.987 6.296-4.737 9.908-.592 2.802-.533 5.792.553 8.437.099.227.197.454.306.681v.01c.681.02 1.471.286 2.369 1.115l.829-.385a10.498 10.498 0 0 1-1.115-1.766 9.262 9.262 0 0 1-.533-1.352c-.266-.868-.395-1.766-.444-2.674a14.783 14.783 0 0 1 .296-3.552c.326-1.579.908-3.108 1.608-4.549 1.253-2.556 2.901-4.895 4.737-7.065 2.092-2.497 4.421-4.776 6.898-6.888a83.707 83.707 0 0 1 5.783-4.441 104.373 104.373 0 0 1 11.841-7.154c5.536-2.862 11.309-5.23 17.23-7.135 3.335-1.075 6.72-2.003 10.154-2.723a85.127 85.127 0 0 1 9.315-1.451c2.783-.276 5.586-.415 8.378-.335 1.944.059 3.889.227 5.803.523 1.668.266 3.315.622 4.924 1.135 1.441.454 2.853 1.036 4.164 1.786.563.316 1.105.661 1.629 1.046.965.709 1.843 1.528 2.564 2.475z" transform="translate(9.25 17.55) scale(.7351)"/><path id="ID0.5146154942922294" fill="#F37355" d="M106.53 97.519c-3.729-8.95-7.45-17.901-11.17-26.852l-15.178 30.345a1.082 1.082 0 0 1-.474.493v-.01c-1.282.721-2.556.681-3.838.257L55.749 88.44l10.026 24.118c.01.029.029.068.039.099 4.302-.593 6.198-.73 7.895-.997a27.26 27.26 0 0 0 4.756-1.224c1.539-.543 3.108-1.214 4.5-1.815 1.401-.593 2.605-1.105 3.967-1.678 1.362-.563 2.862-1.185 4.145-1.707a167.754 167.754 0 0 0 8.832-3.839c1.767-.849 3.474-1.737 6.779-3.592 0 0 .01-.01 0-.01-.029-.04-.06-.079-.089-.129-.019-.048-.049-.098-.069-.147z" transform="translate(9.25 17.55) scale(.7351)"/><path id="ID0.6892175725661218" fill="#9B1B3C" d="M107.467 96.75c-7.361-17.684-14.713-35.377-22.064-53.061a1.067 1.067 0 0 1-.05-.779c.089-.296.228-.572.415-.819.138-.167.315-.326.483-.464.346-.286.7-.542 1.085-.76a4.373 4.373 0 0 1 1.096-.434c.158-.03.315-.059.474-.04.197.02.385.089.572.188.228.119.444.257.642.415.168.128.286.276.365.474 7.44 17.891 14.881 35.791 22.331 53.683.05.227.089.453.099.681 0 .227-.029.454-.118.651a2.076 2.076 0 0 1-.355.474c-.108.108-.217.207-.325.315-.079.079-.158.158-.247.237a2.448 2.448 0 0 1-.483.364 2.448 2.448 0 0 1-1.52.247c-.336-.049-.661-.168-.978-.296a8.12 8.12 0 0 1-.986-.553 1.035 1.035 0 0 1-.436-.523zM95.36 70.667c3.72 8.95 7.44 17.901 11.17 26.852.021.049.05.099.069.147.029.05.06.089.099.129h-.01c.01 0 0 .01 0 .01.069.079.148.147.237.217 2.013 1.411 3.325 1.401 4.213 1.175.928-.228 1.392-.691 1.974-1.273.572-.582 1.273-1.273.81-3.128-.139-.346-.286-.681-.425-1.026l-11.575-27.828-.799-1.914-3.138-7.54-2.191-5.27-3.75-9.019c-.118-.276-.227-.563-.345-.839-.089-.208-.168-.405-.257-.612a1.078 1.078 0 0 0-.325-.434 5.666 5.666 0 0 0-.938-.671c-.898-.513-1.55-.464-2.161-.296-.858.227-1.629.691-2.369 1.273-.681.543-1.332 1.174-1.539 2.576-.039.227-.01.424.079.631.02.04.029.069.039.108.307.73.612 1.451.908 2.181.079.167.148.345.217.513 1.678 4.026 3.355 8.062 5.043 12.098 0 0-.01 0 0 .01.247.602.493 1.204.75 1.806 1.065 2.575 2.142 5.161 3.217 7.736.326.8.661 1.59.997 2.388z" transform="translate(9.25 17.55) scale(.7351)"/><path id="ID0.9768770323134959" fill="#FFDE0F" d="M121.954 55.905l-26.16-4.688 2.191 5.27 24.689 1.066c-.237-.553-.473-1.095-.72-1.648z" transform="translate(9.25 17.55) scale(.7351)"/><path id="ID0.35497543355450034" fill="#A41C3C" d="M125.684 64.5l-24.562-.474.799 1.914 24.354-.069-.591-1.371z" transform="translate(9.25 17.55) scale(.7351)"/><path id="ID0.26121807005256414" fill="#F15C55" d="M128.477 70.046a2.6 2.6 0 0 1-.336-.336 3.05 3.05 0 0 1-.257-.335 3.49 3.49 0 0 1-.276-.435c-.443-1.026-.888-2.043-1.332-3.069l-24.354.069 11.575 27.828c1.076-.73 1.776-1.353 2.911-2.447 1.382-1.322 3.395-3.336 5.092-5.27 1.698-1.935 3.089-3.789 4.372-6.108 1.272-2.319 2.438-5.102 3.395-9.365-.079-.039-.148-.078-.227-.118a3.132 3.132 0 0 1-.563-.414z" transform="translate(9.25 17.55) scale(.7351)"/><path id="ID0.9164422564208508" fill="#E74273" d="M129.74 69.542c.217.099.444.158.671.218.129.029.247.068.375.089.079.01.158.01.247.02.217.02.434.039.651.039.345-.01.7-.089.986-.267.276-.177.483-.434.671-.72.129-.188.237-.385.307-.603a1.75 1.75 0 0 0 .02-.839c-.069-.325-.218-.631-.365-.937-.01-.011-.01-.021-.02-.03 0-.01-.01-.02-.01-.029-7.51-17.329-15.029-34.657-22.539-51.985a1.264 1.264 0 0 0-.325-.434 2.867 2.867 0 0 0-.859-.503 1.941 1.941 0 0 0-.72-.108c-.425 0-.839.118-1.224.306a3.207 3.207 0 0 0-1.007.74 2.07 2.07 0 0 0-.355.563c-.138.296-.178.641-.197.977-.01.188.02.355.089.523 7.51 17.289 15.01 34.578 22.52 51.867.255.452.61.887 1.084 1.113z" transform="translate(9.25 17.55) scale(.7351)"/><path id="ID0.9716323465108871" fill="#9B1B3C" d="M128.141 69.71a2.6 2.6 0 0 0 .336.336c.188.168.375.296.563.414.078.04.147.079.227.118.296.139.592.247.898.316.927.236 1.854.236 2.546 0 .7-.228 1.164-.701 1.628-1.392.464-.7.928-1.628 0-3.483-7.549-17.407-15.099-34.814-22.647-52.222a1.048 1.048 0 0 0-.276-.385c-1.313-1.214-2.407-1.204-3.227-1.056-.375.069-.69.168-.977.296-.375.167-.701.395-1.057.681-.315.257-.641.553-.888 1.056-.207.424-.365 1.006-.395 1.835 0 .177.029.335.099.493.157.375.325.74.483 1.115.533 1.233 1.075 2.477 1.608 3.71 0 .01.01.01.01.02 4.964 11.447 9.928 22.894 14.881 34.341.247.553.483 1.095.721 1.648.997 2.319 2.003 4.628 3.01 6.947.197.454.395.918.592 1.371.444 1.026.889 2.043 1.332 3.069.089.158.178.306.276.435.079.121.168.239.257.337zm.514-1.282c-7.51-17.289-15.01-34.578-22.52-51.867a1.17 1.17 0 0 1-.089-.523c.02-.336.06-.681.197-.977a2.11 2.11 0 0 1 .355-.563 3.191 3.191 0 0 1 1.007-.74 2.798 2.798 0 0 1 1.224-.306c.246-.01.493.029.72.108.316.108.603.296.859.503.147.128.246.266.325.434 7.51 17.328 15.029 34.656 22.539 51.985 0 .01.01.02.01.029.01.01.01.02.02.03.147.306.296.611.365.937.059.276.059.573-.02.839a2.288 2.288 0 0 1-.307.603c-.188.286-.395.543-.671.72-.286.178-.642.257-.986.267-.218 0-.435-.02-.651-.039-.089-.01-.168-.01-.247-.02-.128-.021-.246-.06-.375-.089-.227-.06-.454-.119-.671-.218-.473-.225-.828-.66-1.084-1.113z" transform="translate(9.25 17.55) scale(.7351)"/></g><g id="ID0.9870595317333937" fill="none" stroke="#000" stroke-width=".562" stroke-linecap="round" stroke-linejoin="round"><path id="ID0.40189001336693764" d="M107.211 12.654c-.099-.306-.218-.602-.336-.908-.543-1.313-1.332-2.536-2.27-3.611-.947-1.066-2.063-1.984-3.257-2.763-1.549-1.007-3.236-1.776-4.983-2.378-1.746-.602-3.542-1.026-5.368-1.332-4.647-.79-9.414-.799-14.111-.405-6.946.581-13.716 2.052-20.367 4.134-10.194 3.197-20.082 7.826-29.002 13.845-4.312 2.911-8.397 6.147-11.989 9.858-1.688 1.737-3.267 3.582-4.688 5.565-2.171 3-3.987 6.296-4.737 9.908-.592 2.802-.533 5.792.553 8.437.099.227.197.454.306.681" transform="translate(9.25 17.55) scale(.7351)"/><path id="ID0.10038703819736838" d="M90.238 39.544c3.05-2.438 5.911-5.111 8.447-8.082 1.322-1.559 2.556-3.207 3.622-4.963 1.608-2.645 2.832-5.536 3.147-8.664" transform="translate(9.25 17.55) scale(.7351)"/><path id="ID0.4056662395596504" d="M43.986 60.178a110.833 110.833 0 0 0 40.242-16.243" transform="translate(9.25 17.55) scale(.7351)"/><path id="ID0.3717494779266417" d="M105.267 14.391a10.287 10.287 0 0 0-1.875-4.085c-.721-.947-1.599-1.767-2.565-2.477a15.695 15.695 0 0 0-1.629-1.046c-1.312-.75-2.723-1.332-4.164-1.786-1.608-.513-3.256-.869-4.924-1.135a47.427 47.427 0 0 0-5.803-.523c-2.792-.079-5.595.059-8.378.335a84.849 84.849 0 0 0-9.315 1.451c-3.434.72-6.819 1.648-10.154 2.723-5.921 1.905-11.694 4.273-17.23 7.135a104.665 104.665 0 0 0-11.841 7.154 83.707 83.707 0 0 0-5.783 4.441c-2.477 2.111-4.806 4.391-6.898 6.888-1.835 2.171-3.483 4.51-4.737 7.065-.7 1.441-1.283 2.97-1.608 4.549a14.788 14.788 0 0 0-.296 3.552c.049.908.178 1.806.444 2.674.138.464.326.918.533 1.352.315.631.69 1.224 1.115 1.766.711.908 1.53 1.688 2.339 2.31.583.454 1.204.868 1.845 1.243 1.786 1.036 3.75 1.727 5.763 2.23 2.645.671 5.368 1.017 8.092 1.154 2.595.119 5.2.06 7.796-.147" transform="translate(9.25 17.55) scale(.7351)"/><path id="ID0.5678496728651226" d="M85.008 19.216c-.197-.483-.533-.908-.928-1.263-.523-.474-1.145-.819-1.796-1.095a8.726 8.726 0 0 0-1.145-.395 12.142 12.142 0 0 0-1.461-.336c-1.085-.197-2.19-.286-3.286-.325-2.95-.079-5.901.227-8.812.73-2.822.503-5.605 1.194-8.349 2.013-5.348 1.599-10.559 3.69-15.512 6.286-3.188 1.668-6.266 3.543-9.148 5.694-1.52 1.145-2.98 2.369-4.322 3.721-1.213 1.213-2.329 2.536-3.167 4.026-.335.592-.631 1.204-.819 1.855a4.719 4.719 0 0 0-.168 1.815c.049.415.158.819.365 1.174.286.523.74.947 1.243 1.293a7.847 7.847 0 0 0 1.559.809c.632.237 1.293.415 1.954.553 1.056.217 2.112.335 3.178.385 1.362.069 2.723.029 4.085-.069 4.835-.345 9.592-1.421 14.23-2.852a89.164 89.164 0 0 0 11.407-4.392 77.6 77.6 0 0 0 8.812-4.796c2.665-1.677 5.221-3.542 7.5-5.713.928-.888 1.815-1.826 2.596-2.842.641-.829 1.224-1.717 1.638-2.684.286-.641.493-1.322.553-2.033.039-.523-.009-1.066-.207-1.559z" transform="translate(9.25 17.55) scale(.7351)"/><path id="ID0.48115502623841166" d="M106.688 97.805c-3.306 1.854-5.013 2.743-6.779 3.592a167.754 167.754 0 0 1-8.832 3.839c-1.282.522-2.782 1.145-4.145 1.707-1.361.572-2.565 1.085-3.967 1.678-1.392.602-2.961 1.272-4.5 1.815a27.35 27.35 0 0 1-4.756 1.224c-1.697.267-3.593.404-7.895.997" transform="translate(9.25 17.55) scale(.7351)"/><path id="ID0.9062241036444902" d="M106.698 97.795h-.01" transform="translate(9.25 17.55) scale(.7351)"/><path id="ID0.46816692408174276" d="M11.077 58.58c.375.276.74.542 1.125.799 3.079 2.033 6.681 3.098 10.332 3.71 4.668.77 9.415.799 14.111.404a1.2 1.2 0 0 1 .188-.02" transform="translate(9.25 17.55) scale(.7351)"/><path id="ID0.9290199065580964" d="M44.904 62.378c4.135-.77 8.23-1.815 12.236-3.079a117.107 117.107 0 0 0 14.98-5.881 108.5 108.5 0 0 0 13.016-7.302" transform="translate(9.25 17.55) scale(.7351)"/><path id="ID0.8903099875897169" d="M91.699 41.36a69.018 69.018 0 0 0 6.296-5.704c1.697-1.747 3.286-3.592 4.707-5.566 1.885-2.605 3.474-5.447 4.371-8.526" transform="translate(9.25 17.55) scale(.7351)"/><path id="ID0.9202375882305205" d="M87.169 18.357c-.415-1.017-1.155-1.875-2.033-2.536-.997-.75-2.161-1.243-3.355-1.589-1.421-.415-2.891-.612-4.371-.701a36.268 36.268 0 0 0-5.171.069 55.225 55.225 0 0 0-6.385.898c-4.45.878-8.812 2.171-13.055 3.76s-8.378 3.474-12.335 5.704a70.268 70.268 0 0 0-5.023 3.089 80.183 80.183 0 0 0-2.369 1.707c-2.723 2.053-5.299 4.352-7.243 7.145-.74 1.065-1.392 2.201-1.747 3.444a8.348 8.348 0 0 0-.315 1.648c-.04.553-.03 1.115.069 1.658.237 1.244.967 2.358 1.924 3.188.76.661 1.658 1.145 2.605 1.51a14.81 14.81 0 0 0 2.911.79c1.599.286 3.227.375 4.855.365a44.09 44.09 0 0 0 2.813-.119 54.415 54.415 0 0 0 2.803-.306 64.082 64.082 0 0 0 4.934-.859 84.082 84.082 0 0 0 4.865-1.213 91.145 91.145 0 0 0 16.519-6.513 75.45 75.45 0 0 0 8.161-4.835 54.65 54.65 0 0 0 2.369-1.717 40.817 40.817 0 0 0 4.075-3.553c1.303-1.313 2.517-2.724 3.443-4.322.632-1.085 1.135-2.25 1.333-3.483.177-1.077.128-2.212-.277-3.229z" transform="translate(9.25 17.55) scale(.7351)"/><path id="ID0.8631549454294145" d="M121.954 55.905l-26.161-4.687" transform="translate(9.25 17.55) scale(.7351)"/><path id="ID0.851192245259881" d="M122.674 57.553l-24.689-1.066" transform="translate(9.25 17.55) scale(.7351)"/><path id="ID0.8641650043427944" d="M91.146 60.543L73.551 90.147" transform="translate(9.25 17.55) scale(.7351)"/><path id="ID0.32097975350916386" d="M90.396 58.737L73.551 88.292" transform="translate(9.25 17.55) scale(.7351)"/><path id="ID0.1363551802933216" d="M73.551 88.292L47.075 67.599" transform="translate(9.25 17.55) scale(.7351)"/><path id="ID0.6297589200548828" d="M73.551 90.147L50.075 74.802" transform="translate(9.25 17.55) scale(.7351)"/><path id="ID0.7224027165211737" d="M42.427 76.915L25.326 91.45" transform="translate(9.25 17.55) scale(.7351)"/><path id="ID0.43786729173734784" d="M41.865 75.572L24.773 90.177" transform="translate(9.25 17.55) scale(.7351)"/><path id="ID0.537540964782238" d="M125.684 64.5l-24.561-.473" transform="translate(9.25 17.55) scale(.7351)"/><path id="ID0.03919347748160362" d="M126.276 65.872l-24.355.069" transform="translate(9.25 17.55) scale(.7351)"/><path id="ID0.7411693832837045" d="M94.363 68.28l-15.71 27.443" transform="translate(9.25 17.55) scale(.7351)"/><path id="ID0.8786588669754565" d="M74.015 98.042l-19.49-12.533" transform="translate(9.25 17.55) scale(.7351)"/><path id="ID0.24823905806988478" d="M75.871 101.752L55.749 88.44" transform="translate(9.25 17.55) scale(.7351)"/><path id="ID0.26552240923047066" d="M78.653 95.723c-.928 1.391-1.392 1.854-2.082 2.2-.7.346-1.628.582-2.556.118" transform="translate(9.25 17.55) scale(.7351)"/><path id="ID0.0934383631683886" d="M45.348 83.94l-17.14 14.151" transform="translate(9.25 17.55) scale(.7351)"/><path id="ID0.7511484706774354" d="M46.493 86.704l-17.17 13.963" transform="translate(9.25 17.55) scale(.7351)"/><path id="ID0.043514106422662735" d="M95.36 70.667l-15.178 30.345" transform="translate(9.25 17.55) scale(.7351)"/><path id="ID0.8638146598823369" d="M79.708 101.496c-1.282.721-2.556.681-3.838.257" transform="translate(9.25 17.55) scale(.7351)"/><path id="ID0.5145775540731847" d="M80.182 101.012a1.082 1.082 0 0 1-.474.493" transform="translate(9.25 17.55) scale(.7351)"/><path id="ID0.62240478862077" d="M31.188 107.88c-7.51-17.328-15.029-34.656-22.539-51.984a1.17 1.17 0 0 0-.326-.435c-.256-.207-.533-.395-.849-.503a2.306 2.306 0 0 0-.73-.119 2.96 2.96 0 0 0-1.224.316c-.375.178-.72.424-.997.74a2.232 2.232 0 0 0-.365.552c-.119.276-.168.583-.188.898-.01.188.01.355.089.533 7.5 17.318 15.009 34.626 22.509 51.945.257.454.612.889 1.096 1.115.207.099.444.158.661.218.128.029.247.068.375.078.079.021.167.021.247.03.227.02.434.039.661.039.335-.01.691-.089.977-.267.276-.178.483-.434.671-.72.128-.188.237-.385.306-.603.079-.267.079-.563.02-.839-.059-.325-.217-.641-.365-.938 0-.01-.01-.02-.01-.029-.009-.007-.009-.017-.019-.027z" transform="translate(9.25 17.55) scale(.7351)"/><path id="ID0.9022579239681363" d="M37.267 60.75c-.089.276-.079.513.029.779 7.372 17.703 14.723 35.407 22.085 53.11.099.217.237.385.444.513.306.197.631.385.967.533.306.138.631.246.967.296.523.079 1.066.01 1.52-.247.178-.099.346-.217.494-.354l.247-.247c.109-.108.217-.207.316-.315.138-.139.276-.297.355-.464.099-.208.128-.435.119-.661 0-.228-.04-.454-.099-.672C57.269 95.13 49.838 77.25 42.398 59.369a1.09 1.09 0 0 0-.355-.464 2.897 2.897 0 0 0-.671-.464 1.704 1.704 0 0 0-.572-.188 1.94 1.94 0 0 0-.474.04c-.385.089-.75.247-1.085.444-.385.208-.74.474-1.086.75a3.142 3.142 0 0 0-.483.474 2.11 2.11 0 0 0-.405.789z" transform="translate(9.25 17.55) scale(.7351)"/><path id="ID0.3033942896872759" d="M107.467 96.75c.089.227.228.395.435.522.315.207.651.395.986.553.316.128.642.247.978.296a2.45 2.45 0 0 0 1.52-.247c.178-.099.336-.227.483-.364.089-.079.168-.158.247-.237.108-.108.217-.207.325-.315.139-.148.267-.296.355-.474a1.59 1.59 0 0 0 .118-.651 3.98 3.98 0 0 0-.099-.681c-7.45-17.892-14.891-35.792-22.331-53.683a1.086 1.086 0 0 0-.365-.474 3.938 3.938 0 0 0-.642-.415 1.585 1.585 0 0 0-.572-.188c-.158-.02-.315.01-.474.04-.385.089-.75.247-1.096.434a7.43 7.43 0 0 0-1.085.76 3.477 3.477 0 0 0-.483.464 2.565 2.565 0 0 0-.415.819c-.079.276-.068.513.05.779 7.352 17.685 14.704 35.378 22.065 53.062z" transform="translate(9.25 17.55) scale(.7351)"/><path id="ID0.4471578821539879" d="M106.046 16.039c-.01.188.02.355.089.523 7.51 17.289 15.01 34.578 22.52 51.867.256.453.611.888 1.085 1.114.217.099.444.158.671.218.129.029.247.068.375.089.079.01.158.01.247.02.217.02.434.039.651.039.345-.01.7-.089.986-.267.276-.177.483-.434.671-.72.129-.188.237-.385.307-.603a1.75 1.75 0 0 0 .02-.839c-.069-.325-.218-.631-.365-.937-.01-.011-.01-.021-.02-.03 0-.01-.01-.02-.01-.029-7.51-17.329-15.029-34.657-22.539-51.985a1.264 1.264 0 0 0-.325-.434 2.867 2.867 0 0 0-.859-.503 1.941 1.941 0 0 0-.72-.108c-.425 0-.839.118-1.224.306a3.207 3.207 0 0 0-1.007.74 2.07 2.07 0 0 0-.355.563c-.138.294-.178.64-.198.976z" transform="translate(9.25 17.55) scale(.7351)"/><path id="ID0.47233714489266276" d="M128.477 70.046c.188.168.375.296.563.414" transform="translate(9.25 17.55) scale(.7351)"/><path id="ID0.8758213664405048" d="M127.608 68.941c.089.158.178.306.276.435.079.118.168.236.257.335" transform="translate(9.25 17.55) scale(.7351)"/><path id="ID0.23658108478412032" d="M129.266 70.579c.296.139.592.247.898.316.927.236 1.854.236 2.546 0 .7-.228 1.164-.701 1.628-1.392.464-.7.928-1.628 0-3.483-7.549-17.407-15.099-34.814-22.647-52.222a1.048 1.048 0 0 0-.276-.385c-1.313-1.214-2.407-1.204-3.227-1.056-.375.069-.69.168-.977.296-.375.167-.701.395-1.057.681-.315.257-.641.553-.888 1.056-.207.424-.365 1.006-.395 1.835 0 .177.029.335.099.493.157.375.325.74.483 1.115.533 1.233 1.075 2.477 1.608 3.71" transform="translate(9.25 17.55) scale(.7351)"/><path id="ID0.8480471288785338" d="M11.077 58.57h-.01c-.267-.632-.543-1.253-.809-1.885-.217-.493-.435-.997-.651-1.49a.974.974 0 0 0-.276-.385c-.898-.829-1.688-1.096-2.369-1.115-.315-.02-.602.01-.858.059-.858.158-1.411.474-2.023.977-.592.474-1.224 1.115-1.283 2.891-.01.178.02.336.089.503a82075.584 82075.584 0 0 1 22.637 52.212c.701 1.253 1.628 1.717 2.556 1.954.928.227 1.855.227 2.546 0 .701-.237 1.165-.701 1.628-1.392.385-.582.77-1.322.355-2.635" transform="translate(9.25 17.55) scale(.7351)"/><path id="ID0.9705631295219064" d="M92.043 42.199c-.118-.276-.227-.563-.345-.839-.089-.208-.168-.405-.257-.612a1.078 1.078 0 0 0-.325-.434 5.666 5.666 0 0 0-.938-.671c-.898-.513-1.55-.464-2.161-.296-.858.227-1.629.691-2.369 1.273-.681.543-1.332 1.174-1.539 2.576-.039.227-.01.424.079.631.02.04.029.069.039.108.307.73.612 1.451.908 2.181.079.167.148.345.217.513 1.678 4.026 3.355 8.062 5.043 12.098 0 0-.01 0 0 .01" transform="translate(9.25 17.55) scale(.7351)"/><path id="ID0.005516208708286285" d="M106.599 97.667c.029.05.06.089.089.129.01 0 0 .01 0 .01.069.079.148.147.237.217 2.013 1.411 3.325 1.401 4.213 1.175.928-.228 1.392-.691 1.974-1.273.572-.582 1.273-1.273.81-3.128-.139-.346-.286-.681-.425-1.026" transform="translate(9.25 17.55) scale(.7351)"/><path id="ID0.7812613933347166" d="M44.983 62.566a1.318 1.318 0 0 1-.079-.188c-.306-.73-.612-1.47-.918-2.2-.217-.533-.444-1.056-.661-1.589a1.093 1.093 0 0 0-.326-.444c-1.411-1.174-2.279-1.155-3.088-.938-.849.227-1.628.69-2.358 1.273-.681.542-1.333 1.174-1.549 2.575-.01.06-.01.099-.01.158 0 .158.029.306.088.454.217.513.424 1.026.642 1.539" transform="translate(9.25 17.55) scale(.7351)"/><path id="ID0.536539273802191" d="M57.496 113.16c.315.74.622 1.48.927 2.221.089.207.217.364.405.503 2.003 1.411 3.315 1.401 4.204 1.184.928-.236 1.392-.7 1.974-1.282.583-.572 1.273-1.273.809-3.128-.01-.03-.029-.069-.039-.099-3.346-8.043-6.681-16.085-10.036-24.118" transform="translate(9.25 17.55) scale(.7351)"/><path id="ID0.3398466664366424" d="M107.063 21.545c0 .01.01.01.01.02 4.964 11.447 9.928 22.894 14.881 34.341.247.553.483 1.095.721 1.648.997 2.319 2.003 4.628 3.01 6.947.197.454.395.918.592 1.371.444 1.026.889 2.043 1.332 3.069.089.158.178.306.276.435.079.118.168.236.257.335a2.6 2.6 0 0 0 .336.336c.178.168.365.296.563.414.078.04.147.079.227.118" transform="translate(9.25 17.55) scale(.7351)"/><path id="ID0.1114627500064671" d="M85.353 46.629c1.678 4.036 3.355 8.072 5.043 12.108.247.602.493 1.204.75 1.806 1.065 2.575 2.142 5.161 3.217 7.736.326.799.661 1.589.997 2.388 3.72 8.95 7.44 17.901 11.17 26.852.021.049.05.099.069.147.029.05.06.089.099.129" transform="translate(9.25 17.55) scale(.7351)"/><path id="ID0.017363400664180517" d="M113.497 93.769l-11.576-27.828-.798-1.914-3.138-7.54-2.192-5.269-3.75-9.019" transform="translate(9.25 17.55) scale(.7351)"/><path id="ID0.972247201949358" d="M36.724 63.208l.108.266 5.033 12.098.562 1.343 2.921 7.025 1.145 2.764 11.003 26.456" transform="translate(9.25 17.55) scale(.7351)"/><path id="ID0.8364012776874006" d="M65.775 112.558L55.749 88.44h-.01l-1.214-2.931-4.45-10.707-3-7.203-2.092-5.033" transform="translate(9.25 17.55) scale(.7351)"/><path id="ID0.29238397534936666" d="M32.609 108.265a6.426 6.426 0 0 0-.355-.849l-2.931-6.75c-.365-.858-.74-1.717-1.115-2.575-.957-2.211-1.915-4.421-2.881-6.642a67.013 67.013 0 0 0-.553-1.272c-4.559-10.529-9.128-21.059-13.697-31.598v-.01c-.276-.632-.543-1.253-.819-1.885" transform="translate(9.25 17.55) scale(.7351)"/><path id="ID0.5507978308014572" d="M57.496 113.16c-1.333.079-2.171.108-3.089.039-1.115-.078-2.358-.315-4.135-.483-1.776-.178-4.095-.296-6.029-.483-1.934-.197-3.483-.464-4.638-.76-1.164-.286-1.934-.592-3.02-.986-1.085-.386-2.477-.85-3.977-2.221" transform="translate(9.25 17.55) scale(.7351)"/><path id="ID0.9057267513126135" d="M129.266 70.579c-.957 4.264-2.122 7.046-3.395 9.365-1.283 2.319-2.674 4.174-4.372 6.108-1.697 1.934-3.71 3.947-5.092 5.27-1.135 1.095-1.835 1.717-2.911 2.447" transform="translate(9.25 17.55) scale(.7351)"/></g></g><path id="ID0.04639945551753044" fill="none" stroke="#000" stroke-width="1.571" stroke-linecap="round" d="M1.55 27.757l9.821 3.929"/><path id="ID0.6606475464068353" fill="none" stroke="#000" stroke-width="2" stroke-linecap="round" d="M29.5 7.5l5 8"/><path id="ID0.13412379333749413" fill="none" stroke="#000" stroke-width="2" stroke-linecap="round" d="M64.5 1.5V11"/></svg>