<svg xmlns="http://www.w3.org/2000/svg" width="114.105" height="197.146" viewBox="0.254 0.622 114.105 197.146"><defs><style/></defs><g id="ID0.2747547458857298" transform="matrix(1.05 0 0 1.05 .3 -.65)"><g id="ID0.23320355266332626"><g id="ID0.30283835530281067"><g id="R_Foot"><g id="R_Foot_1_"><path id="Foot_Fill_2_" fill="#FF9248" d="M46.836 90.079c.463-.623 1.775-2.029 4.176-2.029 1.084 0 2.26.293 3.498.875-.055-.484-.043-1.273.451-1.936.48-.643 1.295-1.006 2.426-1.084l-10.107-5.33c-.004 0-1.117-.447-2.225-.447-.938 0-1.584.316-1.92.939-.785 1.451 2.254 6.752 3.701 9.012z" transform="translate(-9.4 -1) scale(1.88565)"/><path id="Shadow_5_" fill="#E87528" d="M53.155 88.368s-12.234-13.574-6.299 1.338c0 0 2.336-2.536 6.299-1.338z" transform="translate(-9.4 -1) scale(1.88565)"/><path id="Shadow_4_" fill="#E87528" d="M56.719 85.782s-1.959.625-2.287 2.586c0 0-15.381-11.897 2.287-2.586z" transform="translate(-9.4 -1) scale(1.88565)"/><path id="Outline_7_" d="M45.055 80.346c1.068 0 2.15.436 2.162.439l9.461 4.992c-.844.166-1.479.527-1.893 1.08-.422.566-.52 1.215-.514 1.721-1.148-.496-2.242-.748-3.26-.748-2.215 0-3.543 1.158-4.156 1.875-1.826-2.887-4.172-7.35-3.529-8.535.301-.554.868-.824 1.729-.824m0-.435c-.832 0-1.67.238-2.111 1.053-1.061 1.959 3.891 9.51 3.891 9.51s1.252-2.207 4.178-2.207c1.045 0 2.301.281 3.793 1.045 0 0-.947-3.203 3.053-3.203.129 0 .26.002.398.01l-10.875-5.734c-.001-.002-1.155-.474-2.327-.474z" transform="translate(-9.4 -1) scale(1.88565)"/></g><g id="R_Skate_1_"><g id="Blade_1_"><path id="Blade" fill="#B7B7B7" d="M48.159 92.256s.668 1.414 3.83 1.742l.217 2.668s-5.953-1.67-8.293-7.842v-1.85l-.969-2.16-.176 2.16s-.613-1.74-1.016-2.244c-.336-.422-.953-.137-.115 2.244.279.791 3.527 13.484 15.656 10.943l-3.236-.998.68-3.365s3.131-.701 2.479-3.424c-.001.001-2.528 3.759-9.057 2.126z" transform="translate(-9.4 -1) scale(1.88565)"/><path id="Blade_Outline" d="M54.208 98.471c-8.346 0-11.672-7.855-12.715-11.232l-.061-.191c-.314-.891-.619-2.049-.293-2.51.182-.26.549-.238.783.059.223.277.494.883.707 1.404l.098-1.203.416-.07.988 2.248v1.85c1.959 5.135 6.602 7.094 7.83 7.531l-.176-2.162c-3.094-.369-3.795-1.785-3.824-1.846l-.195-.416.445.113c1.074.268 2.107.404 3.07.404 4.051 0 5.736-2.416 5.752-2.439l.277-.408.115.479c.191.799.096 1.514-.285 2.125-.621.996-1.811 1.41-2.217 1.525l-.615 3.041 3.029 1.359a15.432 15.432 0 0 1-3.129.339zM41.483 84.786c.008.008-.26.357.359 2.115l.066.209c1.016 3.285 4.244 10.926 12.299 10.926.699 0 1.002.002 1.746-.113l-2.15-.852.748-3.697.139-.031c.014-.004 1.439-.336 2.084-1.369.242-.391.344-.836.305-1.33-.68.732-2.477 2.242-5.797 2.242-.805 0-1.656-.092-2.535-.273.467.41 1.426.979 3.264 1.17l.18.018.258 3.162-.301-.086c-.061-.016-6.086-1.771-8.438-7.973l-.014-1.881-.604-1.344-.078.975-.174.92c-.168-.473-.947-2.316-1.258-2.705-.05-.064-.089-.081-.099-.083z" transform="translate(-9.4 -1) scale(1.88565)"/></g><g id="Boot_1_"><g id="Boot"><path id="Fill_2_" fill="#FFF" d="M42.686 84.127s2.408 6.734 4.586 8.367c2.178 1.635 7.729.627 9.58-.787 1.85-1.416 1.74-5.221.869-6.092-.871-.871-9.064-4.779-9.064-4.779s-4.453-3.025-6.299.133c0 0-.322 1.793.328 3.158z" transform="translate(-9.4 -1) scale(1.88565)"/><path id="Outline_1_" d="M50.672 93.555c-1.072 0-2.555-.154-3.531-.885-2.203-1.654-4.561-8.193-4.66-8.471-.664-1.391-.352-3.193-.338-3.27.627-1.098 1.541-1.617 2.748-1.617 1.889 0 3.809 1.289 3.889 1.344.307.143 8.207 3.918 9.096 4.805.477.477.738 1.658.654 2.939-.104 1.537-.666 2.805-1.545 3.479-1.25.955-3.963 1.676-6.313 1.676zm-8.125-12.476c.014 0-.268 1.691.336 2.955.031.086 2.418 6.711 4.52 8.287.697.523 1.826.799 3.27.799 2.229 0 4.883-.697 6.047-1.586.781-.598 1.281-1.75 1.375-3.162.074-1.127-.146-2.221-.527-2.602-.693-.693-6.734-3.654-9.004-4.738-.047-.027-1.92-1.283-3.672-1.283-1.04 0-1.829.447-2.345 1.33z" transform="translate(-9.4 -1) scale(1.88565)"/></g><g id="Laces" fill="#5BDDDD" stroke="#000" stroke-width=".25"><path id="Lace_1_" d="M50.84 81.92s-3.371-.445-4.57 1.461c0 0-.598.979.49.926 1.09-.055.594-1.895 5.17-1.846l-1.09-.541z" transform="translate(-9.4 -1) scale(1.88565)"/><path id="Lace" d="M53.729 83.209s-3.967-.609-5.377 2.002c0 0-.705 1.342.576 1.268 1.283-.076.699-2.594 6.084-2.529l-1.283-.741z" transform="translate(-9.4 -1) scale(1.88565)"/></g></g></g></g><g id="L_Foot_1_"><g id="L_Foot"><path id="Foot_Fill_1_" fill="#FF9248" d="M22.907 90.366c-.463-.621-1.775-2.029-4.175-2.029-1.085 0-2.26.295-3.499.877.056-.484.044-1.275-.451-1.938-.479-.643-1.295-1.006-2.425-1.082l10.107-5.33c.003 0 1.116-.447 2.224-.447.938 0 1.584.316 1.921.938.786 1.45-2.254 6.751-3.702 9.011z" transform="translate(-9.4 -1) scale(1.88565)"/><path id="Shadow_2_" fill="#E87528" d="M16.59 88.655s12.233-13.574 6.298 1.338c0 0-2.336-2.535-6.298-1.338z" transform="translate(-9.4 -1) scale(1.88565)"/><path id="Shadow_1_" fill="#E87528" d="M13.024 86.069s1.96.627 2.287 2.586c.001 0 15.381-11.897-2.287-2.586z" transform="translate(-9.4 -1) scale(1.88565)"/><path id="Outline_8_" d="M24.688 80.633c.862 0 1.429.271 1.729.826.643 1.184-1.702 5.648-3.529 8.533-.612-.717-1.94-1.873-4.155-1.873-1.019 0-2.112.25-3.26.748.006-.506-.092-1.156-.515-1.721-.414-.555-1.049-.916-1.893-1.082l9.462-4.99c.011-.005 1.094-.441 2.161-.441m0-.435c-1.171 0-2.325.473-2.325.473l-10.876 5.734a9.27 9.27 0 0 1 .398-.01c4.001 0 3.054 3.205 3.054 3.205 1.491-.764 2.748-1.045 3.793-1.045 2.925 0 4.178 2.207 4.178 2.207s4.951-7.551 3.89-9.512c-.441-.814-1.279-1.052-2.112-1.052z" transform="translate(-9.4 -1) scale(1.88565)"/></g><g id="L_Skate"><g id="Blade_2_"><path id="Blade_3_" fill="#B7B7B7" d="M21.585 92.543s-.667 1.416-3.829 1.742l-.218 2.668s5.953-1.67 8.293-7.84v-1.852l.969-2.158.176 2.158s.614-1.738 1.017-2.244c.336-.422.953-.135.115 2.244-.279.791-3.527 13.484-15.657 10.943l3.237-.996-.681-3.365s-3.131-.701-2.478-3.424c0 .001 2.527 3.757 9.056 2.124z" transform="translate(-9.4 -1) scale(1.88565)"/><path id="Blade_Outline_1_" d="M15.537 98.76c-1 0-2.053-.115-3.131-.34l3.028-1.361-.614-3.039c-.407-.117-1.596-.529-2.218-1.527-.38-.609-.477-1.324-.285-2.123l.116-.48.276.41c.017.023 1.701 2.438 5.752 2.438.964 0 1.996-.135 3.07-.404l.446-.111-.195.416c-.029.061-.731 1.475-3.824 1.846l-.177 2.162c1.229-.439 5.871-2.398 7.831-7.531v-1.852l.987-2.248.416.072.098 1.201c.213-.521.485-1.127.708-1.404.233-.295.601-.318.782-.057.327.461.021 1.617-.292 2.508l-.061.191c-1.041 3.378-4.367 11.233-12.713 11.233zm12.724-13.685c-.009.002-.049.018-.099.08-.312.391-1.091 2.232-1.259 2.707l-.173-.922-.079-.973-.603 1.342-.014 1.881c-2.352 6.203-8.378 7.957-8.438 7.975l-.302.084.258-3.16.181-.02c1.837-.189 2.797-.76 3.263-1.168-.879.18-1.729.271-2.535.271-3.32 0-5.117-1.508-5.796-2.242-.04.494.062.939.305 1.33.644 1.035 2.069 1.367 2.084 1.371l.138.031.748 3.695-2.149.854c.743.115 1.047.113 1.746.113 8.055 0 11.283-7.641 12.299-10.926l.066-.209c.619-1.757.351-2.108.359-2.114z" transform="translate(-9.4 -1) scale(1.88565)"/></g><g id="Boot_2_"><g id="Boot_3_"><path id="Fill_3_" fill="#FFF" d="M27.059 84.415s-2.409 6.736-4.587 8.369-7.728.627-9.579-.789c-1.851-1.416-1.74-5.221-.869-6.092.871-.871 9.063-4.779 9.063-4.779s4.454-3.025 6.3.133c0-.001.322 1.794-.328 3.158z" transform="translate(-9.4 -1) scale(1.88565)"/><path id="Outline_2_" d="M19.071 93.844c-2.349 0-5.062-.721-6.312-1.676-.88-.674-1.442-1.941-1.545-3.48-.085-1.281.178-2.463.654-2.938.888-.889 8.788-4.662 9.096-4.807.08-.055 2-1.344 3.888-1.344 1.207 0 2.122.52 2.748 1.619.014.074.327 1.879-.338 3.27-.099.277-2.456 6.814-4.66 8.469-.975.733-2.457.887-3.531.887.001 0 .001 0 0 0zm8.126-12.478c-.516-.883-1.305-1.33-2.345-1.33-1.752 0-3.624 1.256-3.672 1.285-2.27 1.082-8.311 4.043-9.004 4.736-.38.381-.602 1.477-.527 2.604.094 1.412.595 2.564 1.376 3.162 1.163.889 3.818 1.586 6.046 1.586h.001c1.442 0 2.572-.277 3.269-.799 2.102-1.576 4.488-8.201 4.521-8.289.602-1.264.322-2.955.335-2.955z" transform="translate(-9.4 -1) scale(1.88565)"/></g><g id="Laces_1_" fill="#5BDDDD" stroke="#000" stroke-width=".25"><path id="Lace_3_" d="M18.904 82.208s3.371-.445 4.569 1.461c0 0 .599.98-.49.926-1.089-.054-.594-1.895-5.17-1.846l1.091-.541z" transform="translate(-9.4 -1) scale(1.88565)"/><path id="Lace_2_" d="M16.015 83.499s3.968-.611 5.377 2c0 0 .705 1.342-.576 1.268-1.282-.074-.699-2.594-6.083-2.527l1.282-.741z" transform="translate(-9.4 -1) scale(1.88565)"/></g></g></g></g><path id="Left_Flipper" fill="#303A82" stroke="#000" stroke-width=".943" d="M27.887 75.384s-14.933-5.131-18.233-9.962c-3.3-4.831-8.283-8.806-8.99-2.576-.707 6.23.707 26.382 17.559 38.994 0 0 14.023-10.311 9.664-26.456z"/><path id="Right_Flipper" fill="#303A82" stroke="#000" stroke-width=".943" d="M80.696 74.59s14.935-5.13 18.235-9.962c3.3-4.83 8.283-8.806 8.99-2.576.707 6.23-.707 26.382-17.559 38.996-.002 0-14.027-10.315-9.666-26.458z"/><g id="Body_1_"><g id="Body"><g id="Body_Base"><path id="ID0.5071904426440597" fill="#303A82" d="M54.627 54.946c-1.27-13.861-8.246-13.172-9.02-18.875-.775-5.704-.662-18.666-11.595-18.552-10.932.114-11 13.167-11.655 18.885-.655 5.718-7.624 5.242-8.604 19.125-.981 13.883 4.984 21.844 6.797 24.812 1.813 2.971 5.809 1.498 6.332.449a1205.95 1205.95 0 0 0 1.717-3.473c1.354 1.178 5.414 1.328 5.908 1.336 0 0 4.599-.148 5.929-1.354 0 0 1.244 2.398 1.789 3.436.547 1.039 4.57 2.428 6.322-.578 1.75-3.006 7.352-11.354 6.08-25.211z" transform="translate(-9.4 -1) scale(1.88565)"/><path id="Outline_3_" d="M54.877 54.924c-.791-8.618-3.746-11.653-6.121-14.092-1.461-1.499-2.615-2.683-2.9-4.795-.09-.661-.168-1.42-.252-2.245-.635-6.18-1.695-16.524-11.448-16.524l-.145.001c-10.117.106-11.121 10.866-11.721 17.295-.062.659-.118 1.268-.181 1.812-.242 2.118-1.368 3.335-2.793 4.877-2.318 2.507-5.202 5.628-5.812 14.259-.906 12.814 4.147 20.738 6.305 24.123.2.312.378.592.528.838.946 1.549 2.369 1.875 3.397 1.875 1.562 0 3.031-.762 3.372-1.445.417-.836 1.258-2.541 1.584-3.203 1.711 1.135 5.771 1.203 5.825 1.205.181-.006 4.194-.148 5.817-1.211v.006c.008-.004.016-.012.021-.016.34.654 1.215 2.344 1.65 3.17.35.664 1.76 1.375 3.301 1.375 1.5 0 2.727-.689 3.459-1.943l.365-.619c2.08-3.491 6.949-11.663 5.749-24.743zM48.7 79.411l-.367.623c-.818 1.402-2.098 1.695-3.027 1.695-1.389 0-2.621-.656-2.857-1.107-.467-.889-1.439-2.76-1.713-3.285.467-.545.941-1.432.941-1.432l-1.162 1.004-.006-.01-.24.217c-1.246 1.131-5.724 1.287-5.757 1.289-.043-.002-4.388-.094-5.747-1.273l-.245-.213-1.171-1.014s.485.906.957 1.449c-.258.523-1.196 2.426-1.646 3.326-.238.475-1.495 1.168-2.925 1.168-.9 0-2.146-.285-2.97-1.635a51.548 51.548 0 0 0-.533-.848c-2.131-3.342-7.122-11.17-6.228-23.818.597-8.456 3.416-11.505 5.68-13.955 1.428-1.545 2.662-2.879 2.923-5.16.062-.546.12-1.16.182-1.822.584-6.261 1.562-16.741 11.228-16.842l.14-.001c9.302 0 10.294 9.674 10.95 16.076.084.831.164 1.595.254 2.261.309 2.276 1.574 3.574 3.037 5.077 2.32 2.382 5.209 5.346 5.982 13.788 1.183 12.918-3.626 20.994-5.68 24.442z" transform="translate(-9.4 -1) scale(1.88565)"/></g><path id="Tummy_Fill" fill="#FFF" d="M44.94 38.321c-1.416-2.25-1.746-2.559-1.707-3.542.875-22.333-8.917-10.413-8.917-10.413s-11.012-11.128-9.354 10.33c.075.973-.037 1.375-1.453 3.625-1.418 2.25-8.252 11.918-5.668 21.418 2.584 9.5 12.294 12.641 16.293 12.66 3.64.016 13.89-3.16 16.474-12.66 2.584-9.5-4.25-19.168-5.668-21.418z" transform="translate(-9.4 -1) scale(1.88565)"/></g><g id="L_Eye"><path id="White" fill="#FFF" stroke="#000" stroke-width=".471" d="M44.726 43.898c1.088.192 1.94 1.138 2.432 2.512.494 1.373.63 3.172.294 5.072-.337 1.9-1.084 3.542-2.02 4.661-.933 1.122-2.058 1.717-3.146 1.525-1.088-.193-1.94-1.139-2.431-2.513-.494-1.373-.631-3.172-.294-5.072.336-1.9 1.083-3.542 2.019-4.661.934-1.122 2.058-1.717 3.146-1.524z"/><path id="Iris" fill="#5BDDDD" stroke="#000" stroke-width=".471" d="M43.685 48.296c.878.103 1.613.72 2.09 1.634.478.914.697 2.126.547 3.417-.151 1.29-.644 2.42-1.32 3.198-.675.78-1.533 1.21-2.411 1.108-.878-.103-1.613-.72-2.09-1.634-.479-.914-.698-2.126-.547-3.417.15-1.29.644-2.419 1.32-3.198.675-.779 1.532-1.21 2.41-1.108z"/><path id="Pupil" d="M27.843 27.091c.297 0 .565.187.76.489.195.302.315.72.315 1.18 0 .46-.12.878-.315 1.18-.195.302-.463.489-.76.489s-.565-.187-.76-.489c-.195-.302-.315-.72-.315-1.18 0-.46.12-.878.315-1.18.195-.302.463-.489.76-.489z" transform="rotate(6.574 56.003 -28.544) scale(1.8856)"/><path id="Highlight" fill="#FFF" d="M27.347 26.806c.163 0 .31.066.416.173a.583.583 0 0 1 0 .832.583.583 0 0 1-.832 0 .583.583 0 0 1 0-.832.583.583 0 0 1 .416-.173z" transform="translate(-9.4 -1) scale(1.88565)"/></g><g id="R_Eye_1_"><path id="White_1_" fill="#FFF" stroke="#000" stroke-width=".471" d="M65.4 42.755c1.099-.142 2.192.507 3.073 1.67.882 1.163 1.55 2.84 1.796 4.753.246 1.913.024 3.704-.534 5.051-.559 1.35-1.452 2.254-2.55 2.395-1.098.141-2.19-.507-3.072-1.671-.882-1.163-1.55-2.839-1.796-4.752-.246-1.913-.024-3.704.535-5.052.558-1.35 1.451-2.253 2.549-2.394z"/><path id="Iris_1_" fill="#5BDDDD" stroke="#000" stroke-width=".471" d="M65.612 47.338c.87-.164 1.755.205 2.484.935.73.73 1.3 1.82 1.542 3.097.242 1.276.109 2.501-.303 3.446-.412.946-1.101 1.614-1.97 1.778-.87.165-1.755-.205-2.484-.934-.729-.73-1.3-1.821-1.542-3.098-.242-1.276-.109-2.5.303-3.446.412-.945 1.102-1.613 1.97-1.778z"/><path id="Pupil_1_" d="M40.242 26.683c.297 0 .565.187.76.489.195.302.315.72.315 1.18 0 .46-.12.878-.315 1.18-.195.302-.463.489-.76.489s-.565-.187-.76-.489c-.195-.302-.315-.72-.315-1.18 0-.46.12-.878.315-1.18.195-.302.463-.489.76-.489z" transform="rotate(-10.801 65.02 102.467) scale(1.88568)"/><path id="Highlight_1_" fill="#FFF" d="M39.36 26.609c.163 0 .31.066.416.173a.583.583 0 0 1 0 .832.583.583 0 0 1-.832 0 .583.583 0 0 1 0-.832.583.583 0 0 1 .416-.173z" transform="translate(-9.4 -1) scale(1.88565)"/></g><g id="Beak"><path id="Bottom_Beak" fill="#DD5900" stroke="#000" stroke-width=".471" d="M61.114 58.002c-2.27 2.053-5.853 4.83-11.604.313h-.034s-.05 4.475 5.787 4.516c5.61.04 6.015-4.277 5.85-4.829h0z"/><g id="Top_Beak_1_"><path id="Fill" fill="#FF822E" d="M34.316 32.976c1.729-.022 2.981-1.541 3.606-1.853.254-.125.393-.214.393-.214-1.124-.608-.915-.767-2.124-1.628-1.209-.861-2.681-.528-3.5 0-.844.544-2.375 1.842-2.375 1.842.153.073.322.094.453.192.88.661 2.51 1.674 3.547 1.661z" transform="translate(-9.4 -1) scale(1.88565)"/><path id="Outline" d="M38.362 30.385a.828.828 0 0 1 .088.454l-.074-.04c-.617-.333-.815-.521-1.092-.783a8.395 8.395 0 0 0-1.02-.837c-1.035-.737-2.567-.695-3.641-.003-.755.487-2.021 1.543-2.318 1.792a.829.829 0 0 1 .089-.424s-.938.356-.781 1.405l.765-.669c.028.01.055.022.083.031.087.029.17.056.233.104 1.038.777 2.603 1.685 3.602 1.685h.022c1.301-.017 2.345-.856 3.036-1.412.25-.201.467-.375.625-.454a5.7 5.7 0 0 0 .328-.176l.836.731c.156-1.047-.781-1.404-.781-1.404zm-.494.626c-.183.091-.398.264-.671.483-.704.566-1.668 1.341-2.882 1.356l-.02.125v-.125c-.937 0-2.445-.881-3.451-1.635a.895.895 0 0 0-.254-.121l.008-.007h-.022c-.005-.001-.01-.005-.015-.007.417-.347 1.532-1.265 2.199-1.695.988-.637 2.406-.683 3.359-.003.525.374.774.608.993.815.25.235.452.426.95.712-.056.031-.12.065-.194.102z" transform="translate(-9.4 -1) scale(1.88565)"/></g></g></g><g id="Hat"><g id="Hat_Base"><path id="Fill_1_" fill="#AF2020" d="M25.742 18.6s-.447-4.515 4.863-7.342c5.309-2.828 8.259-5.67 8.665-6.203.309-.405.959-1.886 1.701-1.091.746.794.746 3.82 0 6.946-.742 3.125 1.004 5.061.801 7.393 0-.001-7.496-3.424-16.03.297z" transform="translate(-9.4 -1) scale(1.88565)"/><g id="Stripes_3_" fill="#871212"><path id="ID0.4795656418427825" d="M26.104 16.218s7.277-3.978 15.432 0l-.428-1.438s-6.283-3.289-14.35.001l-.654 1.437z" transform="translate(-9.4 -1) scale(1.88565)"/><path id="ID0.2848444706760347" d="M29.274 11.988s6.893-1.91 11.279.92l.262-1.17s-4.769-2.703-9.592-1.102l-1.949 1.352z" transform="translate(-9.4 -1) scale(1.88565)"/><path id="ID0.9288907898589969" d="M36.121 8.104s3.593.028 4.747 2.123l.445-1.062s-.707-2.052-4.247-2.011L36 8.193" transform="translate(-9.4 -1) scale(1.88565)"/><path id="ID0.18686081282794476" d="M39.27 5.055s1.754.308 2.213 1.391l-.17-1.391-1.705-.955-.338.955z" transform="translate(-9.4 -1) scale(1.88565)"/></g><path id="Outline_6_" d="M25.527 18.966l-.034-.342c-.005-.046-.401-4.714 4.994-7.587 5.368-2.859 8.273-5.725 8.583-6.133.053-.067.113-.167.184-.28.297-.481.707-1.141 1.273-1.141.223 0 .434.104.627.31.928.988.732 4.357.061 7.175-.414 1.744-.027 3.098.348 4.408.281.987.549 1.918.459 2.948l-.031.353-.322-.146c-.031-.014-3.156-1.415-7.58-1.415a20.53 20.53 0 0 0-8.247 1.713l-.315.137zM40.528 3.983c-.289 0-.652.588-.85.904-.08.129-.15.242-.209.319-.34.447-3.23 3.333-8.747 6.272-4.305 2.292-4.725 5.658-4.742 6.748a21.013 21.013 0 0 1 8.108-1.611c3.74 0 6.517.951 7.451 1.319.002-.812-.223-1.596-.457-2.421-.375-1.308-.799-2.79-.354-4.661.797-3.341.652-6.088.061-6.717-.093-.101-.181-.152-.261-.152z" transform="translate(-9.4 -1) scale(1.88565)"/></g><path id="Puff" fill="#FFF" stroke="#000" stroke-width=".943" d="M67.663 1.212a3.48 3.48 0 0 1 2.398.945c.613.582.994 1.39.994 2.277 0 .889-.38 1.696-.994 2.278a3.48 3.48 0 0 1-2.398.945 3.48 3.48 0 0 1-2.399-.945 3.138 3.138 0 0 1-.994-2.278c0-.888.381-1.695.994-2.277a3.48 3.48 0 0 1 2.399-.945z"/><g id="Brim"><path id="Brim_Fill" fill="#FFF" d="M25.016 19.989s-.701-.748 0-1.39c.702-.641 4.529-2.43 8.714-2.381 4.184.049 5.561.546 6.635 1.042 1.072.496 3.168 1.786 2.268 2.927 0 0 1.271 2.098.137 2.098-.256 0-1.029-.312-1.029-.312s-6.354-3.572-15.832 0c0 .001-2.931 1.208-.893-1.984z" transform="translate(-9.4 -1) scale(1.88565)"/><path id="Brim_Outline" d="M42.909 20.19c.168-.266.215-.554.143-.857-.273-1.138-2.191-2.076-2.572-2.252-1.102-.509-2.527-1.01-6.715-1.06l-.173-.001c-4.166 0-7.945 1.764-8.677 2.434-.239.219-.365.473-.375.754-.013.334.145.622.257.782-.565.745-.745 1.401-.535 1.952.355.931 1.893.166 1.893.166 2.725-1.01 5.45-1.522 8.103-1.522 4.093 0 6.777 1.237 7.318 1.51 0 0 .865.386 1.191.376.371-.012.525-.258.6-.588.149-.655-.275-1.406-.458-1.694zm.07 1.605c-.17.512-1.109.006-1.109.006-.117-.066-2.924-1.613-7.613-1.613-2.747 0-5.569.538-8.386 1.601l-.143.054s-.903.461-1.096-.044c-.167-.439.025-1.006.57-1.684l.108-.135s.295-.375.916-.672c0 0-.522.004-1.12.428-.079-.115-.18-.302-.171-.513.007-.174.087-.33.247-.476.613-.562 4.311-2.331 8.409-2.331l.169.001c4.108.049 5.489.533 6.553 1.024 1.051.485 2.186 1.287 2.352 1.983.045.182.002.35-.088.514-.562-.366-1.043-.371-1.043-.371.621.297.916.673.916.673l.01-.001.047.066c.171.236.644.976.472 1.49z" transform="translate(-9.4 -1) scale(1.88565)"/></g></g><g id="Scarf"><g id="Bottom"><g id="Fringe"><path id="ID0.7067680577747524" fill="#871212" d="M10.3 70.262c-.119-.027-.508-.139-.552-.445-.043-.305.281-.484.387-.543.103-.031 1.808-.27 3.535-1.445a17.51 17.51 0 0 1-.473-.41c-.722.68-2.692 1.393-4.23 1.531-.208-.041-.59-.174-.618-.48-.026-.307.308-.47.418-.524.104-.025 1.851-.172 3.657-1.281a11.309 11.309 0 0 1-.493-.559c-.655.609-2.755 1.256-4.356 1.311-.205-.053-.58-.205-.59-.514-.01-.309.333-.451.445-.498.108-.02 1.952-.068 3.871-1.158a8.256 8.256 0 0 1-.309-.52c-.697.498-2.567.945-4.095.945-.099 0-.197-.002-.292-.006-.2-.068-.562-.25-.549-.559.013-.307.365-.424.48-.463l.258-.01a9.05 9.05 0 0 0 3.766-.889 5.414 5.414 0 0 1-.164-.58c-.814.475-2.523.859-3.938.859-.099 0-.196-.002-.292-.006-.2-.068-.563-.25-.55-.559.013-.307.365-.424.481-.463l.255-.008c.472 0 2.147-.07 3.899-.955l.046-.023c.104-.273.487-.471.655-.547l.316-.141.035.344c.341 3.344 4.129 6.127 4.167 6.156l.342.248-1.18.557-.113-.096c-.681.697-2.604 1.512-4.128 1.73l-.046.008-.045-.007z" transform="translate(-9.4 -1) scale(1.88565)"/><path id="ID0.8515774309635162" d="M11.054 61.694c.356 3.498 4.269 6.332 4.269 6.332l-.652.309-.186-.158-.016.037c-.318.578-2.431 1.561-4.113 1.805 0 0-.742-.168-.098-.525 0 0 1.935-.254 3.827-1.65a14.745 14.745 0 0 1-.905-.781c-.011.021-.015.037-.03.061-.348.561-2.511 1.428-4.204 1.58 0 0-.731-.209-.069-.531 0 0 1.964-.148 3.939-1.461-.345-.35-.644-.689-.892-1.014-.019.037-.037.076-.071.125-.379.541-2.586 1.287-4.286 1.346 0 0-.718-.248-.04-.531 0 0 2.027-.037 4.103-1.291l.036-.002a7.317 7.317 0 0 1-.611-1.045c-.02.031-.035.062-.066.1-.396.48-2.435 1.025-4.092 1.025-.095 0-.189-.002-.282-.006 0 0-.698-.301 0-.535 0 0 .063.004.179.004.54 0 2.227-.08 4.01-.98h.006c.012 0 .041.002.076.006a4.725 4.725 0 0 1-.312-1.197l-.024.037c-.396.48-2.435 1.025-4.092 1.025-.095 0-.189-.002-.282-.006 0 0-.698-.301 0-.533 0 0 .062.004.176.004.538 0 2.227-.08 4.012-.982h.001c.011 0 .107.002.194.031a.85.85 0 0 1 .002-.031c-.218-.248.493-.568.493-.568m.427-.74l-.632.285c-.222.1-.578.295-.742.59a8.815 8.815 0 0 1-3.757.912c-.09 0-.142-.004-.148-.004l-.095-.004-.091.029c-.522.174-.643.471-.652.689-.02.469.463.713.612.777l.085.037.093.004c.099.004.2.006.302.006 1.237 0 2.823-.293 3.776-.73l.02.068a8.81 8.81 0 0 1-3.46.771c-.091 0-.144-.002-.151-.002l-.095-.006-.091.029c-.521.176-.642.473-.651.691-.02.469.463.713.612.777l.085.037.093.004c.099.004.2.006.302.006 1.342 0 3.096-.344 4.005-.846l.047.078c-1.773.934-3.415.98-3.432.98l-.095.002-.088.037c-.507.211-.605.518-.598.736.015.467.515.676.667.729l.088.034.093-.004c1.405-.049 3.409-.582 4.312-1.215l.135.154c-1.651.934-3.176 1.064-3.193 1.066l-.094.009-.086.041c-.495.24-.575.551-.556.77.042.467.552.646.708.691l.089.025.092-.007a9.05 9.05 0 0 0 1.074-.172l-.049.027c-.481.268-.545.582-.514.797.066.465.586.617.744.652l.09.021.091-.014c1.366-.197 3.255-.924 4.107-1.639l.059.051.292-.139.652-.307.764-.361-.684-.496c-.037-.027-3.736-2.748-4.065-5.979l-.07-.687zm-1.26 8.039c1.145-.27 2.352-.738 2.988-1.23.015.014.03.027.046.039-1.462.915-2.824 1.157-3.034 1.191z" transform="translate(-9.4 -1) scale(1.88565)"/></g><path id="ID0.4368065632879734" fill="#AF2020" d="M34.378 43.363s-6.104-.458-10.729 4.083c-4.625 4.543-2.875 9.084-13.083 14.293 0 0-.792 3.084 4.292 6.959 0 0 8.682-4.834 10.841-11.543 2.159-6.707 8.037-10.483 11.159-10.505l3.403-.496-5.883-2.791z" transform="translate(-9.4 -1) scale(1.88565)"/><g id="Stripes_2_" fill="#871212"><path id="ID0.9594653621315956" d="M13.23 60.292s-.239 4.113 4.56 6.512l1.151-.939s-4.458-4.416-4.292-6.541l-1.419.968z" transform="translate(-9.4 -1) scale(1.88565)"/><path id="ID0.4252018965780735" d="M16.857 57.448s.292 3.166 4.917 5.791l1.375-1.459s-4.51-2.482-5.117-5.732l-1.175 1.4z" transform="translate(-9.4 -1) scale(1.88565)"/><path id="ID0.09512140555307269" d="M19.334 54.118s1.064 3.205 5.898 4.33l.667-1.793s-5.062-1.588-5.927-3.689l-.638 1.152z" transform="translate(-9.4 -1) scale(1.88565)"/><path id="ID0.781469791661948" d="M21.727 49.808s.86 2.736 5.621 3.75l1.052-1.484s-5.232-2.356-5.783-3.492l-.89 1.226z" transform="translate(-9.4 -1) scale(1.88565)"/><path id="ID0.6844138544984162" d="M24.787 46.448l6.029 2.957 1.676-1.479s-5.688-2.72-6.036-2.6c-.348.12-1.669 1.122-1.669 1.122z" transform="translate(-9.4 -1) scale(1.88565)"/><path id="ID0.42429394368082285" d="M30.105 44.08l4.967 2.849 2.345-.364-4.951-3.187-2.361.702" transform="translate(-9.4 -1) scale(1.88565)"/></g><path id="ID0.09295754041522741" d="M14.836 68.995l-.13-.098c-5.156-3.932-4.417-7.088-4.382-7.221l.028-.109.1-.051c6.519-3.326 8.108-6.377 9.644-9.326.841-1.615 1.71-3.286 3.378-4.922C27.413 43.4 32.448 43.1 33.897 43.1c.321 0 .5.014.5.014l6.717 3.169-4.22.615c-3.214.024-8.908 3.966-10.958 10.333-2.165 6.725-10.599 11.486-10.957 11.686l-.143.078zm-4.044-7.092c-.067.553-.134 3.223 4.086 6.494 1.127-.66 8.629-5.248 10.583-11.318 2.202-6.84 8.135-10.656 11.395-10.679l2.553-.374-5.117-2.428c-.009.01-.162.002-.395.001-1.401 0-6.27.291-10.072 4.024-1.611 1.582-2.424 3.144-3.285 4.796-1.564 3.003-3.181 6.107-9.748 9.484z" transform="translate(-9.4 -1) scale(1.88565)"/></g><g id="Middle"><path id="Base_Fill_1_" fill="#AF2020" d="M30.816 44.903s5.793 2.626 11.427 1.438c5.635-1.188 7.447-2.627 9.51-1.438 0 0 1.125-2.124-2.562-3.624 0 0 1.25-2.562-.75-3.625-.001 0-7.689-3.064-17.625 7.249z" transform="translate(-9.4 -1) scale(1.88565)"/><g id="Stripes_1_" fill="#871212"><path id="Stripe_10_" d="M38.454 39.056s2.939 2.089 1.807 7.594h-.9s.826-4.671-1.731-7.121l.824-.473z" transform="translate(-9.4 -1) scale(1.88565)"/><path id="Stripe_9_" d="M41.627 37.779s2.551 2.042 2.072 7.974l1.129-.29s.549-4.872-1.889-8.028l-1.312.344z" transform="translate(-9.4 -1) scale(1.88565)"/><path id="Stripe_8_" d="M35.066 41.092s1.875 2.375 1.375 5.359l-.645-.101s-.512-4.073-1.418-4.681l.688-.577z" transform="translate(-9.4 -1) scale(1.88565)"/><path id="Stripe_7_" d="M48.44 40.967c-.068-.17-.15-2.875-.793-3.531l-1.426-.207s1.445 1.317 1.113 3.606c0 0 1.723 1.526 1.523 3.532h1.051c.001 0 .063-2.338-1.468-3.4z" transform="translate(-9.4 -1) scale(1.88565)"/></g><path id="Outline_5_" d="M52.026 43.361c-.32-.882-1.162-1.626-2.504-2.213.414-1.032.65-2.857-.988-3.726-.047-.018-1.135-.443-3.016-.443-3.383 0-8.709 1.345-14.882 7.751l-.246.255.323.146c.039.018 3.955 1.769 8.434 1.769 1.102 0 2.16-.105 3.148-.313 1.904-.402 3.379-.833 4.564-1.18 2.299-.673 3.543-.992 4.768-.287l.225.129.121-.229c.016-.03.385-.744.053-1.659zm-.41 1.187c-1.283-.616-2.617-.289-4.896.378-1.176.344-2.641.773-4.527 1.17a14.81 14.81 0 0 1-3.045.303c-3.625 0-6.874-1.176-7.896-1.585 5.941-6.054 11.029-7.336 14.267-7.336 1.76 0 2.801.396 2.805.396 1.451.771.98 2.438.742 3.058-.604-.194-2.053-.423-4.062.815 0 0 2.098-1.05 4.281-.147 1.203.524 1.994 1.182 2.268 1.92.158.432.119.801.063 1.028z" transform="translate(-9.4 -1) scale(1.88565)"/></g><g id="Top"><path id="Base_Fill" fill="#AF2020" d="M21.253 36.529s-1.25-.938-.625-2.062c.625-1.124 1.75-1.607 1.75-1.491 0 .116 10.812 9.011 22.999-.405V31.29s4.562 2.115 3.062 6.365c0 0-2.736-.875-5.273 1.875-2.539 2.75-4.789 8.625-24.226 3.062 0 0-1.562-.5-.75-2s3.251-2.938 3.063-4.063z" transform="translate(-9.4 -1) scale(1.88565)"/><g id="Stripes" fill="#871212"><path id="Stripe_1_" d="M23.552 33.851s-1.705.608-.83 3.378c0 0-.062 1.582-1.312 2.895s-1.219 2.25-1.438 2.75l2 .477s.094-1.727.906-2.695c.812-.968.961-2.371 1.043-2.998.082-.627-.793-2.127.551-3.158l-.92-.649z" transform="translate(-9.4 -1) scale(1.88565)"/><path id="Stripe" d="M26.908 35.66c.018-.26-.604 1.086-.396 2.853.208 1.767-.854 2.67-1.261 3.843-.407 1.173-.464 1.678-.464 1.678l1.457.279s.693-2.534 1.293-3.576c.6-1.042.267-2.06.267-3.092s.323-1.488.323-1.488l-1.219-.497z" transform="translate(-9.4 -1) scale(1.88565)"/><path id="Stripe_2_" d="M30.816 36.659c0 .079-.708 1.912-.292 3.745.416 1.833-.698 4.134-.698 4.134l1.396.092s.843-2.12.635-3.985c-.208-1.865-.267-2.446.033-3.843l-1.074-.143z" transform="translate(-9.4 -1) scale(1.88565)"/><path id="Stripe_3_" d="M34.66 36.811s.938 2.625.156 4.969c0 0 .687 1.389-.438 2.851h.749s1.095-.937.783-2.69c0 0 1.273-1.131.056-5.129H34.66z" transform="translate(-9.4 -1) scale(1.88565)"/><path id="Stripe_4_" d="M38.77 36.102s1.898 2.386 1.004 5.615c0 0 .229.479-.209 1.333l1.084-.729s.254-.568.188-.771c-.066-.203 1.16-1.824-.648-5.922l-1.419.474z" transform="translate(-9.4 -1) scale(1.88565)"/><path id="Stripe_5_" d="M43.149 34.133s1.771 1.271 1.334 4.292l1.104-.625s0-3.146-1.521-4.208l-.917.541z" transform="translate(-9.4 -1) scale(1.88565)"/><path id="Stripe_6_" d="M45.627 32.693s2.932.922 2.686 4.536l.014.386s2.072-3.377-2.949-6.231l.249 1.309z" transform="translate(-9.4 -1) scale(1.88565)"/></g><path id="Outline_4_" d="M45.483 31.062l-.355-.165v1.549c-3.637 2.782-7.503 4.193-11.495 4.193-6.255 0-10.553-3.394-11.018-3.783l-.017-.149h-.25c-.298 0-1.348.574-1.938 1.637-.536.964.093 1.869.581 2.291l-.008.022c.009.007.019.011.028.018-.018.514-.726 1.212-1.415 1.889-.621.611-1.263 1.242-1.625 1.909-.282.521-.339.999-.17 1.421.272.676 1.031.926 1.071.938 5.382 1.54 9.896 2.321 13.418 2.321 6.548 0 8.73-2.653 10.322-4.59.254-.308.494-.601.738-.864 1.469-1.592 2.998-1.927 4.021-1.927.602 0 .99.12.994.121l.23.073.08-.228c1.558-4.414-3.145-6.653-3.192-6.676zm2.793 6.295c-.764-.154-3.143-.328-5.293 2.002-.25.27-.496.57-.756.886-.24.291-.49.592-.76.895-4.564 1.506-9.058-.049-9.058-.049 3.174 1.806 7.167 1.009 8.466.676-1.541 1.514-3.855 2.886-8.585 2.886-3.475 0-7.943-.774-13.272-2.299-.006-.002-.572-.192-.754-.65-.11-.276-.061-.61.146-.993.326-.601.941-1.206 1.536-1.79.693-.682 1.348-1.333 1.517-1.965 1.416.778 3.103.729 3.103.729-1.766-.441-2.659-.949-3.076-1.257l-.006-.039-.08-.06c-.044-.033-1.067-.823-.557-1.741.482-.869 1.272-1.305 1.471-1.372.961.918 5.473 3.923 11.314 3.923 4.139 0 8.143-1.471 11.899-4.372l.096-.075v-.988c.997.574 3.639 2.442 2.649 5.653z" transform="translate(-9.4 -1) scale(1.88565)"/></g></g></g></g></g></svg>