<svg width="120" height="120" viewBox="0 0 120 120" xmlns="http://www.w3.org/2000/svg"><g fill="none" fill-rule="evenodd"><path fill="#D4D4D4" d="M43.017 6.419h33.801V.499h-33.8z"/><path fill="#FAFAFA" d="M40 119.726h39.836V2.565H40z"/><path fill="#E8E8E8" d="M59.918 119.726h19.918V2.565H59.918z"/><path fill="#3380A3" d="M71.927 100.531h4.891v-5.029h-4.891zm0-5.917h4.891V89.58h-4.891zm0-5.924h4.891v-5.034h-4.891zm0-5.923h4.891v-5.033h-4.891zm0-5.923h4.891v-5.033h-4.891zm0-5.924h4.891v-5.027h-4.891zm0-5.917h4.891v-5.034h-4.891zm0-5.923h4.891v-5.033h-4.891zm0-5.923h4.891v-5.033h-4.891zm0-5.923h4.891v-5.028h-4.891zm0-5.916h4.891v-5.035h-4.891zm0-5.924h4.891V30.36h-4.891zm0-5.923h4.891v-5.034h-4.891zm0-5.923h4.891v-5.034h-4.891zm0-5.923h4.891v-5.028h-4.891zm-5.781 82.906h4.892v-5.029h-4.892zm0-5.917h4.892V89.58h-4.892zm0-5.924h4.892v-5.034h-4.892zm0-5.923h4.892v-5.033h-4.892zm0-5.923h4.892v-5.033h-4.892zm0-5.924h4.892v-5.027h-4.892zm0-5.917h4.892v-5.034h-4.892zm0-5.923h4.892v-5.033h-4.892zm0-5.923h4.892v-5.033h-4.892zm0-5.923h4.892v-5.028h-4.892zm0-5.916h4.892v-5.035h-4.892zm0-5.924h4.892V30.36h-4.892zm0-5.923h4.892v-5.034h-4.892zm0-5.923h4.892v-5.034h-4.892zm0-5.923h4.892v-5.028h-4.892zm-5.781 82.906h4.891v-5.029h-4.891zm0-5.917h4.891V89.58h-4.891zm0-5.924h4.891v-5.034h-4.891zm0-5.923h4.891v-5.033h-4.891zm0-5.923h4.891v-5.033h-4.891zm0-5.924h4.891v-5.027h-4.891zm0-5.917h4.891v-5.034h-4.891zm0-5.923h4.891v-5.033h-4.891zm0-5.923h4.891v-5.033h-4.891zm0-5.923h4.891v-5.028h-4.891zm0-5.916h4.891v-5.035h-4.891zm0-5.924h4.891V30.36h-4.891zm0-5.923h4.891v-5.034h-4.891zm0-5.923h4.891v-5.034h-4.891zm0-5.923h4.891v-5.028h-4.891z"/><path fill="#398EB5" d="M54.584 100.531h4.892v-5.029h-4.892zm0-5.917h4.892V89.58h-4.892zm0-5.924h4.892v-5.034h-4.892zm0-5.923h4.892v-5.033h-4.892zm0-5.923h4.892v-5.033h-4.892zm0-5.924h4.892v-5.027h-4.892zm0-5.917h4.892v-5.034h-4.892zm0-5.923h4.892v-5.033h-4.892zm0-5.923h4.892v-5.033h-4.892zm0-5.923h4.892v-5.028h-4.892zm0-5.916h4.892v-5.035h-4.892zm0-5.924h4.892V30.36h-4.892zm0-5.923h4.892v-5.034h-4.892zm0-5.923h4.892v-5.034h-4.892zm0-5.923h4.892v-5.028h-4.892zm-5.781 82.906h4.891v-5.029h-4.891zm0-5.917h4.891V89.58h-4.891zm0-5.924h4.891v-5.034h-4.891zm0-5.923h4.891v-5.033h-4.891zm0-5.923h4.891v-5.033h-4.891zm0-5.924h4.891v-5.027h-4.891zm0-5.917h4.891v-5.034h-4.891zm0-5.923h4.891v-5.033h-4.891zm0-5.923h4.891v-5.033h-4.891zm0-5.923h4.891v-5.028h-4.891zm0-5.916h4.891v-5.035h-4.891zm0-5.924h4.891V30.36h-4.891zm0-5.923h4.891v-5.034h-4.891zm0-5.923h4.891v-5.034h-4.891zm0-5.923h4.891v-5.028h-4.891zm-5.781 82.906h4.892v-5.029h-4.892zm0-5.917h4.892V89.58h-4.892zm0-5.924h4.892v-5.034h-4.892zm0-5.923h4.892v-5.033h-4.892zm0-5.923h4.892v-5.033h-4.892zm0-5.924h4.892v-5.027h-4.892zm0-5.917h4.892v-5.034h-4.892zm0-5.923h4.892v-5.033h-4.892zm0-5.923h4.892v-5.033h-4.892zm0-5.923h4.892v-5.028h-4.892zm0-5.916h4.892v-5.035h-4.892zm0-5.924h4.892V30.36h-4.892zm0-5.923h4.892v-5.034h-4.892zm0-5.923h4.892v-5.034h-4.892zm0-5.923h4.892v-5.028h-4.892zm7.096 102.101h19.6v-10.942h-19.6z"/><path fill="#4A9FC5" d="M53.585 108.783l-3.466 10.943h2.008l3.468-10.943zm7.791 0l-3.469 10.943h2.008l3.47-10.943zm8.338 0l-3.467 10.943h2.008l1.463-4.614v-6.329z"/><path fill="#2B6C8A" d="M59.614 119.726h.607v-10.942h-.607zm-.374-4.444c0 .303-.217.55-.48.55-.266 0-.479-.247-.479-.55 0-.304.213-.548.48-.548.262 0 .48.244.48.548m2.316 0c0 .303-.217.55-.479.55-.266 0-.48-.247-.48-.55 0-.304.214-.548.48-.548.262 0 .48.244.48.548"/></g></svg>