<svg width="120" height="120" viewBox="0 0 120 120" xmlns="http://www.w3.org/2000/svg" xmlns:xlink="http://www.w3.org/1999/xlink"><defs><path id="a" d="M.001 9.309h97.53v97.358H0z"/><path id="c" d="M5.572 11.272h66.147V80H5.572z"/></defs><g fill="none" fill-rule="evenodd"><g transform="translate(7 4.024)"><mask id="b" fill="#fff"><use xlink:href="#a"/></mask><path d="M93.533 79.361s17.681-22.253-21.293-55.68a100.35 100.35 0 0 0-.71-.533c-.013-.027-.04-.04-.066-.053C28.356-4.84 11.892 18.32 11.892 18.32c-24.677 26.387-4.534 44.454 3.33 50 1.766 1.254 4.146 1.24 5.925-.026 1.846-1.307 3.05-2.707 3.839-4.067 1.471-2.56.307-5.693-2.3-7.12-1.057-.573-1.418-1.787.253-3.48 3.077-3.12 5.284.64 5.284.64 3.437 11.307-2.89 10.547-16.666 26.48C1.34 92.575 6.81 99.081 10.3 101.681a203.81 203.81 0 0 1 3.397 2.534c3.478 2.64 11.289 6.026 19.809-7.054 11.489-17.653 8.988-23.493 20.825-23.373 0 0 4.253 1.053 2.1 4.88-1.15 2.08-2.421 2.067-3.277 1.213-2.087-2.093-5.43-2.333-7.477-.213-1.097 1.107-2.1 2.653-2.849 4.773a5.112 5.112 0 0 0 1.632 5.734c7.53 5.96 30.562 20.186 49.073-10.814" fill="#FDD8D0" mask="url(#b)"/></g><g transform="translate(7 30.69)"><mask id="d" fill="#fff"><use xlink:href="#c"/></mask><path d="M47.556 65.755c7.758-2.094 15.903-6.64 20.905-12.867 9.122-11.333-2.742-16.587-13.094-19.093-12.813-3.094-16.21-10.28-24.637-19.107-8.292-8.72-15.782.96-17.534 9.987-.856 4.48-4.08 6.933-7.624 7.653 3.21 4.333 7.075 7.507 9.643 9.32a5.116 5.116 0 0 0 5.926-.013c1.845-1.307 3.049-2.707 3.838-4.067 1.485-2.573.308-5.707-2.287-7.12-1.057-.587-1.418-1.8.24-3.493 3.09-3.107 5.297.64 5.297.64 3.438 11.306-2.902 10.56-16.678 26.48C1.332 65.9 6.803 72.42 10.307 75.02c1.137.827 2.26 1.667 3.384 2.534 3.477 2.626 11.302 6.026 19.821-7.054 11.49-17.653 8.975-23.506 20.825-23.386 0 0 4.24 1.066 2.1 4.88-1.163 2.08-2.434 2.08-3.29 1.226-2.087-2.093-5.417-2.346-7.477-.226-1.083 1.12-2.1 2.666-2.849 4.773a5.106 5.106 0 0 0 1.632 5.733c.843.667 1.9 1.44 3.103 2.254" fill="#F4C4BD" mask="url(#d)"/></g></g></svg>