<svg width="100" height="100" viewBox="0 0 100 100" xmlns="http://www.w3.org/2000/svg" xmlns:xlink="http://www.w3.org/1999/xlink"><defs><path id="a" d="M23.751.081v21.03H.173V.081h23.578z"/></defs><g fill="none" fill-rule="evenodd"><path d="M26.84 50.438c-.05-.219-.255-.337-.436-.252a9.89 9.89 0 0 1-.835.345c-4.797 1.724-9.72-.736-10.997-5.494a8.976 8.976 0 0 1-.302-2.532c.007-.342-.272-.6-.555-.498l-.01.003c-5.482 1.97-8.546 8.71-6.844 15.055.065.242.314.338.493.192a4.943 4.943 0 0 1 1.458-.83c2.474-.89 5.085.468 6.197 3.073.096.224.347.28.51.114a4.019 4.019 0 0 1 1.506-.975c1.738-.624 3.563.138 4.584 1.746.166.262.526.162.576-.157.47-2.984 2.227-5.598 4.79-6.774a.376.376 0 0 0 .203-.356 13.784 13.784 0 0 0-.339-2.66" fill="gray"/><path d="M5.903 45.975a6.011 6.011 0 0 0-1.88-.044.372.372 0 0 1-.417-.434c1.187-6.536 7.447-10.873 13.983-9.686l.012.002a.5.5 0 0 1 .338.739 7.828 7.828 0 0 0-.86 2.406c-.89 4.902 3.024 9.717 8.743 10.756.34.062.68.108 1.016.14.225.022.38.236.33.457a12.02 12.02 0 0 1-.883 2.54.37.37 0 0 1-.372.207 9.02 9.02 0 0 0-8.046 3.443.375.375 0 0 1-.665-.17 4.812 4.812 0 0 0-5.891-3.941.377.377 0 0 1-.47-.374 6.014 6.014 0 0 0-4.938-6.04" fill="#27221F"/><path d="M28.431 51.603c0 1.429-.584 2.587-1.305 2.587s-1.305-1.158-1.305-2.587c0-1.43.584-2.588 1.305-2.588.72 0 1.305 1.159 1.305 2.588m25.828-38.001l8.353 10.343c.205.255.285.589.216.909l-1.273 5.936c-.107.5-.549.857-1.06.857h-9.774c-.859 0-1.377-.95-.912-1.672l3.44-5.341c.136-.21.194-.46.166-.71l-1.078-9.519c-.122-1.078 1.24-1.647 1.922-.803m-16.398-.015L29.508 23.93a1.085 1.085 0 0 0-.216.909l1.273 5.935c.107.5.549.858 1.06.858h9.774c.859 0 1.377-.95.912-1.672l-3.44-5.341a1.085 1.085 0 0 1-.166-.71l1.078-9.52c.122-1.077-1.24-1.647-1.922-.802" fill="#27221F"/><path d="M77.008 67.661V41.634c0-5.925-4.803-10.728-10.727-10.728H40.255c-5.924 0-10.727 4.803-10.727 10.728v26.027c0 5.925 4.803 10.728 10.727 10.728h26.026c5.924 0 10.727-4.803 10.727-10.728" fill="#1796D1"/><path d="M29.528 52.018v15.643c0 5.925 4.803 10.728 10.727 10.728h26.026c5.924 0 10.727-4.803 10.727-10.728V52.018h-47.48z" fill="#1796D1"/><path d="M82.095 78.837a2.345 2.345 0 0 0 1.03-1.974 14.63 14.63 0 0 0-8.208-12.956l-.74-.361a2.346 2.346 0 1 0-2.06 4.216l.74.362a9.94 9.94 0 0 1 5.575 8.801 2.347 2.347 0 0 0 3.663 1.912" fill="#33ADDC"/><path d="M17.003 78.837a2.344 2.344 0 0 1-1.03-1.974 14.63 14.63 0 0 1 8.208-12.956l.74-.361a2.347 2.347 0 1 1 2.06 4.216l-.74.362a9.938 9.938 0 0 0-5.575 8.801 2.346 2.346 0 0 1-3.663 1.912m40.338 7.932a2.682 2.682 0 0 0 2.007-3.219l-2.12-9.144-5.225 1.212 2.12 9.144a2.682 2.682 0 0 0 3.218 2.007m-13.316-.007a2.682 2.682 0 0 0 1.929-3.265l-2.339-9.09-5.194 1.336 2.338 9.09a2.682 2.682 0 0 0 3.266 1.93" fill="#1796D1"/><path d="M68.006 67.661V41.634c0-5.925-4.802-10.728-10.727-10.728H31.253c-5.924 0-10.727 4.803-10.727 10.728v26.027c0 5.925 4.803 10.728 10.727 10.728H57.28c5.925 0 10.727-4.803 10.727-10.728" fill="#33ADDC"/><path d="M31.253 73.696a6.041 6.041 0 0 1-6.034-6.035V41.634a6.04 6.04 0 0 1 6.034-6.034H57.28a6.04 6.04 0 0 1 6.034 6.034V67.66a6.041 6.041 0 0 1-6.034 6.035H31.253z" fill="#FFF"/><path d="M30.708 59.66a5.49 5.49 0 0 0-5.489-5.49v10.979a5.49 5.49 0 0 0 5.49-5.49m27.115.001a5.49 5.49 0 0 1 5.49-5.49v10.979a5.49 5.49 0 0 1-5.49-5.49" fill="#EF92B7"/><path d="M33.261 50.437a3.655 3.655 0 1 1-7.31 0 3.655 3.655 0 0 1 7.31 0m29.479 0a3.655 3.655 0 1 1-7.31 0 3.655 3.655 0 0 1 7.31 0" fill="#514740"/><path d="M44.148 68.11c-5.892 0-10.686-4.794-10.686-10.687s4.794-10.687 10.686-10.687 10.686 4.794 10.686 10.687S50.04 68.11 44.148 68.11" fill="#6D6D6D"/><path d="M49.688 57.423a5.54 5.54 0 1 1-11.08 0 5.54 5.54 0 0 1 11.08 0" fill="#27221F"/><path d="M86.35 42.01l-.01-.003c-.277-.102-.55.156-.543.498a9.142 9.142 0 0 1-.297 2.532c-1.253 4.758-6.085 7.218-10.793 5.494a9.486 9.486 0 0 1-.82-.345c-.177-.085-.378.033-.427.252a14.03 14.03 0 0 0-.331 2.66c-.005.156.075.299.198.356 2.515 1.176 4.24 3.79 4.701 6.774.05.32.403.419.566.157 1.002-1.608 2.792-2.37 4.499-1.746a3.94 3.94 0 0 1 1.477.975c.16.165.407.11.5-.114 1.092-2.605 3.655-3.962 6.083-3.074a4.827 4.827 0 0 1 1.43.83c.176.147.42.05.485-.191 1.67-6.344-1.337-13.085-6.717-15.055" fill="gray"/><g transform="translate(72.735 35.534)"><mask id="b" fill="#fff"><use xlink:href="#a"/></mask><path d="M21.448 10.441a6.011 6.011 0 0 1 1.88-.044.372.372 0 0 0 .417-.434C22.558 3.427 16.298-.91 9.762.277L9.75.279a.5.5 0 0 0-.338.739c.41.739.704 1.545.86 2.406.89 4.902-3.024 9.718-8.743 10.756-.34.062-.68.108-1.016.141a.375.375 0 0 0-.33.456c.202.894.501 1.744.883 2.54a.37.37 0 0 0 .372.208 9.02 9.02 0 0 1 8.047 3.442.374.374 0 0 0 .664-.17 4.813 4.813 0 0 1 5.891-3.94.377.377 0 0 0 .47-.375 6.014 6.014 0 0 1 4.938-6.04" fill="#27221F" mask="url(#b)"/></g><path d="M71.655 51.603c0 1.429.584 2.587 1.305 2.587s1.306-1.158 1.306-2.587c0-1.43-.585-2.588-1.306-2.588-.72 0-1.305 1.159-1.305 2.588" fill="#27221F"/><path d="M6.415 41.984a14.797 14.797 0 0 1-1.465-6.44m2.52 0c0 2.684.858 5.167 2.313 7.191m82.253-.751a14.795 14.795 0 0 0 1.465-6.44m-2.521 0a12.27 12.27 0 0 1-2.312 7.191" stroke="gray" stroke-width=".9" stroke-linecap="round"/></g></svg>