<svg width="120" height="120" viewBox="0 0 120 120" xmlns="http://www.w3.org/2000/svg"><g fill="none" fill-rule="evenodd"><path d="M58.584 111.209c31.955 0 57.86-17.199 57.86-38.414 0-21.216-25.905-38.415-57.86-38.415v28.928c13.345 0 24.163 3.298 24.163 7.367 0 4.07-10.818 7.368-24.163 7.368v33.166zm0-76.829C26.63 34.38.725 51.58.725 72.795s25.905 38.414 57.86 38.414V78.043c-13.345 0-24.163-3.299-24.163-7.368 0-4.069 10.818-7.367 24.162-7.367V34.38z" fill="#FFC108"/><path d="M58.584 88.144c27.672 0 50.103-11.615 50.103-25.94 0-14.326-22.431-25.94-50.103-25.94v27.044c13.345 0 24.163 3.298 24.163 7.367 0 4.07-10.818 7.368-24.163 7.368v10.1zm0-51.88c-27.67 0-50.102 11.614-50.102 25.94 0 14.325 22.432 25.94 50.102 25.94v-10.1c-13.344 0-24.162-3.3-24.162-7.369s10.818-7.367 24.162-7.367V36.264z" fill="#FFD452"/><path d="M58.584 41.315c-18.035 0-32.655 8.221-32.655 18.364 0 4.967 3.509 9.474 9.207 12.78-.465-.572-.714-1.169-.714-1.784 0-4.069 10.818-7.367 24.162-7.367 13.345 0 24.163 3.298 24.163 7.367 0 .615-.248 1.212-.714 1.784 5.699-3.306 9.208-7.813 9.208-12.78 0-10.143-14.621-18.364-32.657-18.364" fill="#FFC108"/><path d="M35.09 68.95c2.547-3.236 12.099-5.642 23.494-5.642 13.345 0 24.163 3.298 24.163 7.367 0 .615-.248 1.212-.714 1.784 5.598-3.249 9.084-7.654 9.205-12.519-1.032-6.818-6.136-14.363-20.225-17.063 10.227 7.33 7.244 12.278 2.898 15.17-4.348 2.892-33.904-1.496-38.822 10.903" fill="#F0B400"/><path d="M15.018 49.387c-4.158 3.78-6.536 8.155-6.536 12.817 0 6.658 4.847 12.73 12.811 17.321-9.277-10.83-10.764-20.852-6.275-30.138" fill="#FFE16B"/><path d="M110.907 35.925c-3.119 4.926-6.856 11 .713 21.49 9.49 13.154-4.84 27.844-15.102 30.91-17.776 5.311-21.51-10.333-16.997-13.969 8.836-7.122 10.33-18.695-3.081-27.316-13.41-8.62 36.72-29.777 34.467-11.115M73.547 6.303c-2.33 2.212-9.76 4.536-12.23.927-2.47-3.61-2.741 12.24 8.806 9.087 11.548-3.155 7.912-14.273 3.424-10.014" fill="#FFC108"/><path d="M77.066 3.031C74.13 4.34 66.889 5.221 65.766.993c-1.123-4.228-6.273 11.544 5.494 9.903C83.027 9.256 82.717.516 77.066 3.03" fill="#FFC108"/><path d="M88.445.284c-13.749 0-24.894 11.146-24.894 24.894 0 13.75 11.145 24.895 24.894 24.895 13.749 0 24.895-11.145 24.895-24.895C113.34 11.43 102.194.284 88.445.284" fill="#FFC108"/><path d="M87.45 1.313c-10.721 0-19.413 8.692-19.413 19.413 0 10.722 8.692 19.413 19.413 19.413 10.722 0 19.413-8.691 19.413-19.413 0-10.721-8.691-19.413-19.413-19.413" fill="#FFD452"/><path d="M85.65 37.896c-5.028 0-9.128-4.1-9.128-9.127 0-5.029 4.1-9.129 9.128-9.129 5.028 0 9.128 4.1 9.128 9.129 0 5.027-4.1 9.127-9.128 9.127" fill="#FFE16B"/><path d="M101.08 15.252c-2.856 1.495-2.469 8.293-5.925 8.985-3.455.692-5.53-1.974-6.812.79-1.284 2.764 8.392 6.911 14.81 5.826 6.418-1.087 12.7-7.974 15.205-12.837 2.282-4.43.395-6.021-1.777-5.825-2.172.198-6.714 2.469-10.664 2.567-3.95.1-3.547-.182-4.838.494" fill="#F16D82"/><path d="M90.703 27.35c8.378 2.079 21.473-11.775 25.653-12.36 4.18-.585 1.755 4.032-.065 6.372 1.82-2.34 1.334-4.198-2.796-3.12-4.131 1.078-14.375 12.618-22.792 9.109" fill="#A12C3F"/><path d="M110.018 21.36c2.7-1.669 4.383-2.029 6.168-1.136-2.172-1.954-3.404-1.231-6.168 1.137m-6.816-1.705c6.086-4.735 11.929-6.414 14.363-6.573-2.101-.754-8.36.488-14.363 6.573" fill="#FCBBC6"/><path d="M102.025 16.005a.933.933 0 1 0 0 1.866.933.933 0 0 0 0-1.866" fill="#A12C3F"/><path d="M90.381 11.51c-1.901.446-2.95 2.895-2.346 5.47.605 2.575 2.635 4.3 4.536 3.853 1.9-.446 2.951-2.894 2.347-5.47-.605-2.575-2.636-4.3-4.537-3.853" fill="#4D4D4D"/><path d="M90.501 12.193c-.64.15-.993.975-.79 1.842.204.866.887 1.447 1.527 1.297.64-.15.993-.975.79-1.842-.204-.866-.887-1.448-1.527-1.297" fill="#FFF"/><path d="M104.024 8.307c-.448 1.266.275 3.248 1.616 4.428 1.34 1.18 2.79 1.11 3.238-.156.45-1.266-.274-3.249-1.615-4.428-1.34-1.18-2.79-1.11-3.24.156" fill="#4D4D4D"/><path d="M104.366 8.642c-.15.425.093 1.093.545 1.49.45.397.938.373 1.089-.053.15-.426-.093-1.093-.544-1.49-.451-.398-.94-.374-1.09.053" fill="#FFF"/><path d="M89.405 25.5c.893-1.055 3.716 2.044 7.305-.812-3.49 1.623-6.412-.243-7.305.812" fill="#FCBBC6"/><path d="M78.837 85.936c15.37-3.916 17.628-26.883-2.744-39.14 6.823 4.328 11.6 16.402 6.654 23.88-4.945 7.476-22.545 20.01-3.91 15.26" fill="#FFD452"/><path d="M103.045 78.205c-5.02 0-9.113-4.094-9.113-9.113 0-5.02 4.093-9.115 9.113-9.115s9.114 4.094 9.114 9.115c0 5.02-4.094 9.113-9.114 9.113" fill="#FFE16B"/></g></svg>