<svg width="120" height="120" viewBox="0 0 120 120" xmlns="http://www.w3.org/2000/svg" xmlns:xlink="http://www.w3.org/1999/xlink"><defs><path d="M42.414 9.174S18.911 8.674.118.188c0 0 13.327 22.714 14.436 46.381a3.329 3.329 0 0 0 3.322 3.17l24.486.033 24.486.031a3.329 3.329 0 0 0 3.33-3.163C71.349 22.977 84.735.297 84.735.297c-18.815 8.438-42.32 8.877-42.32 8.877" id="a"/></defs><g fill="none" fill-rule="evenodd"><path d="M27.277 45.28a1.821 1.821 0 1 1-3.154 1.821 1.821 1.821 0 0 1 3.154-1.822m7.149-4.127a1.822 1.822 0 1 1-3.156 1.822 1.822 1.822 0 0 1 3.156-1.822" fill="#F8D542"/><path fill="#F8D542" d="M25.241 46.455l5.634 9.758.917-.53-5.634-9.757-.917.529m7.149-4.127l5.633 9.758.917-.53-5.634-9.758"/><path d="M33.622 68.905l-.005-.006a.061.061 0 0 1 .005.006m-.037-.034l-.006-.006.006.006m-.043-.04l-.074-.067.074.067m-8.449-17.203l.006-.006-.006.006m.009-.01l.003-.003-.003.003m.006-.006l.002-.003-.002.003m.006-.007l.001-.001-.001.001m.006-.006" fill="#FFFFFE"/><path d="M31.832 47.12l.005-.001-.005.002m.008-.003l.007-.003-.007.003" fill="#F5C6B4"/><path d="M93.314 42.934a1.823 1.823 0 1 1-3.157-1.823 1.823 1.823 0 0 1 3.157 1.823m7.148 4.128a1.821 1.821 0 1 1-3.156-1.822 1.821 1.821 0 0 1 3.156 1.822" fill="#F8D542"/><path fill="#F8D542" d="M91.277 41.759l-5.634 9.758.917.529 5.634-9.758-.917-.53m7.148 4.128l-5.633 9.757.916.53 5.634-9.758"/><path d="M72.263 97.056c-6.83 5.364-10.02 4.8-10.02 4.8s.209-3.232 7.039-8.596 17.695-10.828 17.695-10.828-7.884 9.26-14.714 14.624" fill="#75AA42"/><path d="M66.949 90.02c-1.444 10.088 1 12.999 1 12.999s3.163-2.109 4.607-12.197c1.444-10.089.622-24.336.622-24.336s-4.785 13.445-6.23 23.533m16.396-20.051c-2.072 3.588-4.72 5.937-5.914 5.247-1.195-.69-.485-4.157 1.587-7.745l4.327 2.498" fill="#75AA42"/><path d="M91.288 68.772c-4.806 4.435-8.167 3.326-10.756.52-2.59-2.806-3.427-6.244 1.379-10.68 4.806-4.435 15.128-9.75 17.717-6.945 2.59 2.806-3.535 12.67-8.34 17.105" fill="#EDA234"/><path d="M86.608 71.59c1.382-.332 2.92-1.202 4.643-2.784-1.724 1.583-3.26 2.452-4.643 2.785m13.02-19.924l-.006-.006.006.006m-.007-.007a.052.052 0 0 0-.005-.005l.005.005m-.007-.008l-.003-.003.003.003m-.007-.007l-.002-.003.002.003m-.007-.007v-.002.002m-.012-.013" fill="#FAE3B8"/><path d="M85.294 71.752c-1.087 0-2.07-.343-2.969-.918.706.253 1.418.397 2.133.397 2.142 0 4.303-1.299 6.358-4.857.598-1.036 1.184-2.258 1.722-3.575 3.164-4.242 5.745-9.405 4.872-11.913.93.01 1.685.236 2.177.738h.001a125.578 125.578 0 0 0 .011.012l.001.002.005.004.002.003.004.004.003.003.002.003a.052.052 0 0 1 .005.005l.001.001.006.006c.425.46.615 1.11.615 1.896 0 4-4.938 11.501-8.955 15.209l-.037.034c-1.723 1.582-3.261 2.452-4.643 2.785-.455.11-.892.16-1.314.16" fill="#EB902F"/><path d="M76.08 59.992c-1.438 6.38 1.204 8.735 4.928 9.575 3.724.84 7.121-.155 8.56-6.534 1.438-6.38.88-17.977-2.845-18.816-3.724-.84-9.204 9.395-10.643 15.775" fill="#EDA234"/><path d="M76.002 60.355v-.001.001m.027-.129l.001-.004v.004m.007-.034v-.002.002m.014-.066v-.001m.007-.03v-.005.005m.007-.034l.001-.005-.001.005m.008-.034l.001-.005a.07.07 0 0 0-.001.005m10.69-15.801h-.003.003m-.008-.002l-.008-.002.008.002m-.012-.003l-.006-.001.006.001m-.01-.002l-.01-.002.01.002" fill="#FFFFFE"/><path d="M79.111 68.946c-2.581-1.174-4.128-3.6-3.115-8.558l.006-.033v-.001l.014-.065a.862.862 0 0 1 .007-.032l.006-.031.001-.004.007-.03v-.002l.007-.032.007-.032v-.001l.007-.03v-.005l.007-.029.001-.005.007-.029.001-.005.006-.03c1.383-6.131 6.498-15.824 10.2-15.824.15 0 .299.016.443.049l.01.002h.004l.006.002h.004c.002.002.005.002.008.003l.005.001.003.001.007.002c.643.162 1.19.647 1.647 1.37-3.162.43-7.217 7.408-9.143 13.147-.151.242-.296.481-.431.716-2.694 4.666-1.932 7.547.268 9.485" fill="#F1B839"/><path d="M90.816 66.374c-3.27 5.663-6.809 5.603-10.115 3.694-3.306-1.91-5.128-4.944-1.858-10.607 3.27-5.664 11.545-13.807 14.851-11.898 3.306 1.909.392 13.147-2.878 18.81" fill="#F8D542"/><path d="M80.786 70.12a14.234 14.234 0 0 1-.019-.011l.02.01" fill="#749A3F"/><path d="M93.908 47.703l-.002-.002.002.002m-.008-.006a.007.007 0 0 1-.002-.002l.002.002m-.016-.012h-.001m-.005-.004l-.004-.003.004.003m-.021-.015l-.006-.004.006.004m-.01-.007l-.005-.003.005.003m-.02-.013l-.008-.006.009.006m-.013-.008l-.006-.004.006.004m-.01-.007l-.008-.005.008.005m-.022-.014l-.007-.005a.065.065 0 0 1 .007.005m-.01-.007l-.01-.006.01.006m-.01-.006l-.01-.006.01.006m-.023-.014l-.021-.012.02.012m-.022-.014a.114.114 0 0 1-.008-.004l.008.004m-.011-.006l-.01-.006a.176.176 0 0 1 .01.006m-.01-.006l-.013-.007.013.007" fill="#FAE3B8"/><path d="M82.573 70.918a9.712 9.712 0 0 1-1.856-.84l-.016-.01c-.139-.08-.275-.163-.409-.247-3.041-1.922-4.582-4.935-1.45-10.36 2.94-5.09 9.92-12.182 13.704-12.182.422 0 .805.089 1.137.278l.011.006.009.005.002.001.007.004.002.002a.24.24 0 0 1 .018.01l.002.002a.037.037 0 0 1 .007.004h.002l.008.006.009.006.003.001.006.005h.002a.097.097 0 0 1 .009.006l.001.001.007.005s.002 0 .003.002l.006.003.003.002.007.006c.001 0 .002 0 .003.002.002 0 .004.002.005.003l.004.003c.002 0 .003.001.005.003l.004.002.004.004a.039.039 0 0 1 .007.004l.004.003.004.003.003.002.005.004.013.009.001.001.006.004.002.001c.514.379.857 1.011 1.056 1.828-3.915 1.144-9.886 7.391-12.545 11.998-2.66 4.606-1.951 7.473.185 9.41" fill="#F3BD35"/><path fill="#75AA42" d="M78.847 71.702L52.25 117.768l.917.53L79.763 72.23"/><path d="M39.895 76.862c6.39 5.882 6.345 9.121 6.345 9.121s-3.225.312-9.614-5.57c-6.39-5.881-13.526-15.73-13.526-15.73s10.405 6.298 16.795 12.18m43.129 2.084c-6.7 7.68-6.232 11.452-6.232 11.452s3.8-.05 10.5-7.73c6.7-7.679 13.76-20.081 13.76-20.081s-11.329 8.679-18.028 16.359" fill="#B8C43A"/><path d="M45.705 67.43c2.07 3.588 2.781 7.055 1.587 7.745-1.195.69-3.843-1.66-5.914-5.247l4.327-2.498" fill="#75AA42"/><path d="M48.64 59.952c1.44 6.38-1.203 8.735-4.927 9.575-3.724.84-7.121-.155-8.56-6.534-1.438-6.38-.88-17.976 2.845-18.816 3.724-.84 9.205 9.396 10.643 15.775" fill="#DE4D2B"/><path d="M49.038 62.978v-.002.002m-.001-.027v-.001m-.003-.134v-.002.002m-.001-.027v-.002.002m-.001-.028v-.001.001m-.002-.054v-.001.001m-.002-.027v-.002.002m0-.028v-.002.002m-.002-.028v-.002.002m-.003-.055v-.001.001m-.001-.027v-.003.003m-.002-.028v-.003.003m-.002-.028v-.003.003m-.001-.029v-.002.002m-.002-.027v-.002.002m-.002-.028V62.4v.002m-.002-.027v-.005.005m-.002-.03v-.003.003m-.002-.028v-.003.003m-.004-.056v-.003.003M49 62.232v-.004.004m-.002-.029V62.2v.003m-.002-.03v-.001.002m-.006-.057v-.002.002m-.003-.028v-.004.004m-.002-.03v-.004.005m-.003-.03v-.004.004M48.98 62v-.004V62m-.003-.028v-.003.003m-.003-.028v-.005.005m-.003-.03v-.005.005m-.003-.03v-.005.005m-.003-.03v-.005.005m-.003-.03v-.002.003m-.004-.028v-.005.005m-.003-.03v-.005.004m-.004-.03v-.005.006m-.003-.031v-.004.004m-.004-.031v-.002.002m-.003-.029v-.002.002m-.004-.028v-.006.006m-.004-.03v-.006.005m-.004-.03v-.006.006m-.004-.032v-.005.005m-.004-.029v-.004.004m-.008-.059v-.007.006m-.004-.031a.03.03 0 0 1-.001-.007v.007m-.004-.032v-.005.005m-.004-.031v-.003.003m-.005-.029v-.005.005m-.004-.03v-.006.006m-.005-.031v-.007.007m-.004-.033l-.001-.005v.005m-.004-.031v-.004.004m-.005-.03v-.004.003m-.01-.062v-.005.005m-.005-.031v-.006.006m-.01-.063l-.001-.004v.005m-.004-.032l-.001-.005v.005m-.004-.031l-.002-.007.002.007m-.006-.033v-.005.005m-.006-.032v-.006.006m-.006-.034v-.002.002m-.005-.03v-.003.004m-.034-.192v-.006.006m-.006-.033a.14.14 0 0 1-.001-.006v.006m-.006-.033v-.006.006m-.012-.065l-.001-.005.001.005m-.006-.033l-.002-.005.002.005m-.007-.032l-.001-.007.001.007m-.007-.034l-.001-.006.001.006m-.007-.033l-.001-.006.001.006m-.007-.035v-.002.002m-.006-.031v-.004.004m-.007-.033l-.001-.005.001.005m-.007-.032c0-.003 0-.005-.002-.007l.002.007m-.007-.035l-.001-.005v.005m-.006-.035l-.001-.003v.003m-.007-.033v-.002.002m-.007-.032v-.004.004m-.007-.033l-.001-.006.001.006m-.008-.035v-.005.005m-.007-.035l-.001-.003v.003M37.874 44.21h.003-.003m.009-.002l.003-.001h-.003m.009-.002l.008-.002-.008.002m.013-.003a.021.021 0 0 1 .005-.002l-.005.002m.019-.006l.009-.002a.056.056 0 0 0-.009.002m.012-.003l.007-.001-.007.001m.01-.002l.008-.002c-.003 0-.005 0-.008.002m.01-.003l.01-.002-.01.002m.011-.002l.01-.003c-.004 0-.007.002-.01.003m.012-.003l.007-.002-.007.002m.01-.003l.01-.002-.01.002m.496-.05h-.044.044" fill="#F5C6B4"/><path d="M45.945 68.745c2.288-1.938 3.123-4.838.383-9.583-.598-1.036-1.363-2.154-2.235-3.28-2.092-4.86-5.272-9.677-7.88-10.174.457-.776 1.009-1.306 1.66-1.499h.003l.006-.002.003-.001.006-.002.008-.002.005-.001.005-.002.004-.001a.14.14 0 0 0 .022-.006l.007-.001.003-.001.008-.002h.002l.01-.003h.001l.01-.003h.002l.007-.002h.003c.003-.002.006-.002.01-.003a2.03 2.03 0 0 1 .442-.049h.044c3.694.077 8.766 9.692 10.151 15.8a.503.503 0 0 0 .006.024l.007.032v.003l.007.03.001.005.007.029.001.006.006.029.001.004.007.03v.002l.007.03v.003l.007.03v.005a.14.14 0 0 1 .006.028l.002.007.006.027.001.005.006.03.001.003.006.029v.002l.006.029.001.006.006.027.001.006.006.027.001.007.005.027.002.005.005.028.001.005.005.027.001.004.005.028.001.006.006.027v.006l.006.027v.006a2581.851 2581.851 0 0 1 .007.032l.005.026v.004l.006.027v.006l.006.027v.006l.006.027v.005l.005.028.001.004a.613.613 0 0 1 .005.03l.006.027v.006l.005.027.001.005.004.026.002.007c0 .009.003.018.004.026v.005a.555.555 0 0 1 .006.032l.004.025.001.004a.573.573 0 0 0 .004.027l.001.006.005.026v.005l.005.027v.005l.004.027.001.003.004.027v.004l.005.026v.005l.005.026v.007l.004.025.001.006.004.025v.005l.004.026v.003l.005.026v.005l.004.025a.03.03 0 0 0 0 .007l.004.025.001.006.004.025v.006l.004.025v.004l.003.024.001.005.004.026v.006a.496.496 0 0 1 .003.025l.001.005.003.025.001.006.003.026v.002l.004.027v.002l.004.027v.004l.003.025v.006a.493.493 0 0 1 .003.025v.004l.004.026v.005l.003.025v.003l.003.024v.005c.002.008.002.017.003.025l.001.005.003.025v.005l.003.025v.005l.003.025v.003l.002.024V62a.115.115 0 0 1 .003.026v.004a.107.107 0 0 1 .003.025v.005l.003.025v.004l.003.026v.002l.002.026v.002l.003.027v.002l.002.026v.003l.002.025v.004l.003.026v.003l.004.053v.003l.002.025v.003l.002.025v.005a.454.454 0 0 1 .004.053v.002c0 .008 0 .017.002.025v.002a9.85 9.85 0 0 0 .003.054v.003l.002.025v.003l.001.026v.001l.003.053v.002l.001.026v.002l.001.026v.002l.002.026v.001l.002.053v.029l.002.025v.029l.003.08v.055l.002.105c.022 2.989-1.225 4.695-3.094 5.662" fill="#DC3F2A"/><path d="M33.434 68.732c4.805 4.435 8.166 3.326 10.755.52 2.59-2.806 3.427-6.244-1.379-10.68-4.805-4.435-15.127-9.75-17.717-6.944-2.59 2.805 3.535 12.669 8.34 17.104" fill="#DE4D2B"/><path d="M39.426 71.711c-1.667 0-3.58-.805-5.804-2.806a.061.061 0 0 0-.005-.006l-.032-.028-.006-.006-.037-.034-.074-.067-.034-.032c-4.018-3.707-8.956-11.209-8.956-15.209 0-.785.19-1.435.615-1.895l.006-.006c0-.002.002-.003.003-.004l.003-.003.003-.003.002-.003.004-.004.001-.001.005-.005c.462-.48 1.158-.713 2.016-.747-1.208 2.952 2.807 9.953 6.814 14.49.134.253.269.498.404.732 2.055 3.56 4.216 4.858 6.36 4.858.666 0 1.33-.126 1.99-.348-.981.701-2.065 1.127-3.278 1.127" fill="#E15E2F"/><path d="M46.328 59.162c3.27 5.663 1.448 8.698-1.858 10.607-3.307 1.908-6.845 1.97-10.116-3.695-3.27-5.663-6.184-16.901-2.878-18.81 3.307-1.91 11.582 6.234 14.852 11.898" fill="#E36947"/><path d="M42.703 70.584l.007-.002-.007.002" fill="#DC3F2A"/><path d="M40.713 70.989c.666 0 1.331-.146 1.99-.405-.66.259-1.323.405-1.99.405" fill="#DE4C2A"/><path d="M44.482 69.772l.005-.002a.02.02 0 0 1-.005.002m.016-.009l.006-.004-.006.004m.032-.018l.008-.005-.008.005m.02-.012l.003-.002-.004.002m.017-.009l.004-.003-.004.003m.017-.01l.004-.003-.004.003m.016-.01l.003-.002-.003.002m.018-.01l.002-.002-.002.001" fill="#73873A"/><path d="M40.713 70.932c-2.143 0-4.304-1.299-6.358-4.858-3.27-5.663-6.185-16.901-2.879-18.81l.011-.006c.094-.054.191-.099.292-.136l.005-.002c.001 0 .003 0 .004-.002h.003l.006-.003c.253-.091.53-.135.827-.135.36 0 .747.064 1.158.184-.967 3.963 1.458 12.258 4.117 16.864 2.055 3.559 4.216 4.857 6.359 4.857.63 0 1.26-.112 1.884-.313a9.542 9.542 0 0 1-1.542 1.12l-.002.001-.013.008-.002.001-.01.006-.004.003-.012.006-.003.003-.01.006-.004.002a.115.115 0 0 1-.01.005l-.007.005-.007.004c-.002 0-.004.002-.005.003a.188.188 0 0 1-.01.005l-.006.004-.009.005a.453.453 0 0 1-.016.01l-.095.053a9.65 9.65 0 0 1-1.666.76l-.005.002a6.22 6.22 0 0 1-1.99.348" fill="#DF5539"/><path fill="#75AA42" d="M44.169 71.202l25.888 43.628.91-.54L45.08 70.661"/><path d="M63.646 32.783a1.822 1.822 0 1 0 3.645 0 1.822 1.822 0 0 0-3.645 0m-8.254 0a1.822 1.822 0 1 0 3.645 0 1.822 1.822 0 0 0-3.645 0" fill="#F8D542"/><path fill="#F8D542" d="M64.939 44.05h1.059V32.784h-1.06zm-8.254 0h1.059V32.784h-1.06z"/><path d="M55.573 79.873c3.233 8.06 6.278 9.168 6.278 9.168s1.435-2.904-1.798-10.964c-3.233-8.061-9.91-18.226-9.91-18.226s2.197 11.962 5.43 20.022" fill="#75AA42"/><path d="M68.879 75.61c-3.794 9.458-7.367 10.757-7.367 10.757s-1.684-3.407 2.11-12.866c3.793-9.459 11.63-21.387 11.63-21.387s-2.58 14.037-6.373 23.495" fill="#B8C43A"/><path d="M58.764 61.18c0 4.143 1.118 7.5 2.498 7.5 1.38 0 2.498-3.357 2.498-7.5h-4.996" fill="#75AA42"/><path d="M52.482 56.172c1.944 6.244 5.41 6.963 9.055 5.828 3.645-1.135 6.09-3.694 4.146-9.938-1.945-6.244-8.227-16.008-11.872-14.873-3.645 1.135-3.273 12.74-1.329 18.983" fill="#1B8D97"/><path d="M57.633 62.313c-2.098-.466-3.926-2.207-5.15-6.141-.888-2.847-1.447-6.81-1.448-10.386 0 3.576.56 7.539 1.447 10.386 1.225 3.934 3.054 5.675 5.15 6.14" fill="#FFFFFE"/><path d="M58.898 62.446a5.82 5.82 0 0 1-1.265-.133c-2.097-.466-3.926-2.207-5.15-6.141-.888-2.847-1.447-6.81-1.448-10.386 0-4.265.793-7.98 2.776-8.597.197-.061.401-.09.612-.09.53 0 1.103.186 1.7.523-2.01 1.735-2.356 7.497-1.738 12.752-.192 1.41-.296 2.761-.296 3.957 0 5.48 2.173 7.574 5.124 8.108a6.62 6.62 0 0 1-.315.007" fill="#23A9AD"/><path d="M70.042 56.172c-1.944 6.244-5.41 6.963-9.055 5.828-3.645-1.135-6.09-3.694-4.146-9.938 1.944-6.244 8.226-16.008 11.871-14.873 3.645 1.135 3.274 12.74 1.33 18.983" fill="#1B8D97"/><path d="M63.626 62.445c-.227 0-.455-.011-.686-.034 2.875-.578 4.975-2.692 4.975-8.08 0-.27-.005-.55-.016-.836 1.202-5.933 1.179-14.003-1.344-15.957.541-.283 1.062-.44 1.547-.44a2.05 2.05 0 0 1 .61.09c1.983.618 2.777 4.333 2.777 8.598-.001 3.576-.56 7.539-1.447 10.386-1.466 4.707-3.796 6.273-6.416 6.273" fill="#1A7F8C"/><path d="M54.09 54.331c0 6.54 3.095 8.257 6.913 8.257 3.817 0 6.912-1.717 6.912-8.257 0-6.54-3.095-17.73-6.912-17.73-3.818 0-6.914 11.19-6.914 17.73" fill="#41BAC6"/><path d="M60.856 36.608h.003-.003m.01 0h.004-.003m.027-.002h.005-.005m.01-.001h.007-.006m.013 0l.009-.001h-.009m.013 0h.007-.007m.012 0l.008-.001h-.008m.013 0h.01-.01m.014 0h.008-.008m.012-.001h.01-.01m.012 0h.01-.01m.014 0h.009-.009m.012 0h.012-.012" fill="#B4DDDE"/><path d="M60.993 62.588h-.004.004m-.04 0h-.001.001" fill="#529944"/><path d="M61.003 62.588h-.051a9.647 9.647 0 0 1-1.996-.2c2.819-.61 4.866-2.738 4.866-8.057 0-5.319-2.047-13.714-4.866-16.663.591-.618 1.216-.997 1.863-1.058h.009v-.001l.023-.002h.012l.012-.001h.008l.005-.001h.01l.007-.001h.011l.006-.001h.034l.003-.001h.043c3.818 0 6.913 11.19 6.913 17.73 0 6.366-2.933 8.162-6.612 8.252-.1.003-.2.004-.3.004" fill="#2DABB9"/><path fill="#75AA42" d="M60.732 118.123h1.059V64.93h-1.059z"/><path d="M108.387 48.346h-1.505c-.001 12.507-4.992 23.815-13.06 32.007-8.072 8.19-19.2 13.246-31.504 13.247-12.304-.001-23.432-5.057-31.503-13.247-8.069-8.192-13.06-19.5-13.06-32.007 0-12.508 4.991-23.816 13.06-32.008 8.071-8.19 19.2-13.246 31.503-13.247 12.304.001 23.432 5.057 31.504 13.247 8.068 8.192 13.059 19.5 13.06 32.008h3.01c0-13.317-5.321-25.389-13.926-34.121C87.364 5.49 75.457.08 62.318.08c-13.14 0-25.046 5.411-33.648 14.145-8.605 8.732-13.927 20.804-13.926 34.12 0 13.317 5.321 25.39 13.926 34.121 8.602 8.734 20.51 14.146 33.648 14.145 13.14 0 25.046-5.411 33.648-14.145 8.605-8.732 13.927-20.804 13.926-34.12h-1.505" fill="#EC982D"/><path d="M62.307 79.282s-23.504-.5-42.297-8.986c0 0 13.327 22.714 14.436 46.38a3.33 3.33 0 0 0 3.323 3.172l24.486.031 24.486.032a3.329 3.329 0 0 0 3.33-3.163c1.17-23.664 14.555-46.344 14.555-46.344-18.814 8.438-42.32 8.878-42.32 8.878" fill="#B8C43A"/><path d="M62.307 79.282s-23.504-.5-42.297-8.986c0 0 13.327 22.714 14.436 46.38a3.33 3.33 0 0 0 3.323 3.172l24.486.031 24.486.032a3.329 3.329 0 0 0 3.33-3.163c1.17-23.664 14.555-46.344 14.555-46.344-18.814 8.438-42.32 8.878-42.32 8.878" fill="#60453B"/><g transform="translate(19.892 70.108)"><mask id="b" fill="#fff"><use xlink:href="#a"/></mask><path d="M67.367 49.803c.015-12.271 3.21-24.592 6.408-33.832A142.452 142.452 0 0 1 78.17 4.806a108.05 108.05 0 0 1 1.445-3.123 61.61 61.61 0 0 1 .544-1.095l-1.146-.594c-.01.019-3.23 6.23-6.456 15.555-3.225 9.325-6.461 21.76-6.479 34.253l1.29.001M4.693.49l.035.068c.363.717 3.526 7.047 6.593 16.172 3.069 9.124 6.038 21.044 6.036 32.918v.092h1.29v-.092c-.001-12.477-3.205-24.897-6.402-34.211C9.046 6.124 5.85-.081 5.84-.101L4.693.49" fill="#EC982D" mask="url(#b)"/><path d="M63.604 49.799c.014-12.289 2.722-24.618 5.429-33.864a158.69 158.69 0 0 1 3.719-11.17c.506-1.348.928-2.406 1.223-3.126.148-.36.263-.635.342-.82l.089-.209.03-.068-1.182-.518c-.008.018-2.731 6.229-5.46 15.548-2.727 9.321-5.463 21.75-5.48 34.225l1.29.002M10.415.46l.03.068c.308.718 2.98 7.047 5.573 16.172 2.593 9.125 5.103 21.048 5.102 32.936v.109h1.29v-.11c0-12.456-2.705-24.864-5.404-34.169-2.7-9.304-5.4-15.503-5.407-15.521L10.415.46" fill="#EC982D" mask="url(#b)"/><path d="M60.406 49.795C60.42 37.49 62.71 25.155 65 15.904a180.387 180.387 0 0 1 3.146-11.177A131.4 131.4 0 0 1 69.18 1.6c.125-.36.222-.636.29-.822l.074-.208.026-.069-1.21-.449c-.006.017-2.307 6.226-4.612 15.542-2.305 9.316-4.617 21.738-4.633 34.2h1.29M15.28.431l.025.069c.26.719 2.517 7.046 4.705 16.172 2.19 9.125 4.31 21.05 4.309 32.948v.129h1.29v-.13c0-12.438-2.28-24.833-4.558-34.129C18.774 6.196 16.497.003 16.491-.014L15.28.431M56.773 49.79c.015-12.32 1.833-24.666 3.648-33.923.907-4.63 1.814-8.486 2.493-11.185A156.479 156.479 0 0 1 63.963.73c.052-.185.08-.278.08-.278L62.805.088c-.007.031-7.288 24.816-7.322 49.7l1.29.002M20.808.396l.079.278c.781 2.769 7.067 25.864 7.065 48.917v.163h1.29v-.163C29.24 24.76 22.054.067 22.047.036l-1.239.36m32.616 49.39c.015-12.387.02-18.533.704-24.659.683-6.126 2.053-12.295 4.817-24.724l-1.26-.28c-2.762 12.424-4.144 18.631-4.84 24.861-.694 6.23-.695 12.42-.712 24.8l1.29.002M25.906.36c2.53 11.512 3.878 17.66 4.593 23.369.716 5.707.806 11.022.806 20.906 0 1.584-.002 3.285-.004 5.122l1.29.002c.002-1.838.005-3.539.005-5.124 0-9.884-.089-15.266-.816-21.067-.728-5.8-2.086-11.975-4.614-23.484l-1.26.277m23.593 49.42c.016-12.386.022-18.548.453-24.698.431-6.15 1.29-12.326 3.015-24.738L51.69.167c-1.725 12.41-2.588 18.611-3.024 24.827-.435 6.215-.44 12.403-.456 24.785l1.29.002M31.884.317c1.543 11.31 2.38 17.534 2.83 23.128.45 5.593.518 10.58.518 19.441 0 2.064-.004 4.338-.007 6.877l1.29.001c.004-2.539.008-4.812.008-6.878 0-8.863-.068-13.895-.523-19.544-.455-5.65-1.295-11.89-2.837-23.199l-1.28.174m13.325 49.459c.032-24.773.03-24.705 1.22-49.498l-1.29-.061c-1.189 24.781-1.189 24.795-1.22 49.557l1.29.002M38.424.268l.047 1.08c.209 4.938 1.046 26.04 1.046 47.386v1.035h1.29v-1.035c0-24.433-1.094-48.519-1.094-48.525l-1.29.059" fill="#EC982D" mask="url(#b)"/></g><path d="M62.295 88.453s19.136-.359 36.696-6.627c3.02-6.989 5.635-11.422 5.635-11.422-18.814 8.438-42.32 8.878-42.32 8.878s-23.503-.5-42.296-8.986c0 0 2.604 4.44 5.606 11.436 17.544 6.313 36.68 6.721 36.68 6.721m-28.082 24.95a72.66 72.66 0 0 1 .231 3.271 3.33 3.33 0 0 0 3.323 3.173l24.487.032 24.487.032a3.33 3.33 0 0 0 3.33-3.164c.056-1.117.14-2.233.246-3.344H34.214" fill="#EC982D"/><path d="M30.965 3.879c-2.828 2.732-4.26 8.482-4.403 11.866-.821-.222-.834.581-1.316 1.046-.482.466-1.335.5-1.124 1.311-3.444.081-9.159 1.338-11.987 4.07-3.42 3.305-1.234 6.116 1.882 9.234 3.115 3.117 5.709 5.625 9.402 2.057 2.828-2.733 4.16-8.376 4.301-11.76.822.222.462-.936.944-1.401.482-.466 1.707-.145 1.496-.957 3.444-.08 9.261-1.443 12.089-4.176 3.42-3.304 1.133-6.009-1.984-9.127-3.115-3.118-5.607-5.732-9.3-2.163" fill="#E36947"/><path d="M27.855 19.575s-3.944 4.132-7.468 5.688c-3.523 1.556-6.846 1.76-7.421.458-.576-1.303 1.814-3.62 5.338-5.176 3.524-1.557 9.551-.97 9.551-.97m.161-.157s4.204-3.867 5.825-7.36c1.621-3.495 1.888-6.814.596-7.413-1.292-.6-3.654 1.747-5.275 5.241-1.62 3.495-1.146 9.532-1.146 9.532" fill="#DE4D2B"/><path d="M31.449 20.298l-2.813 2.761a1.143 1.143 0 0 1-1.617-.015l-4.41-4.493a1.143 1.143 0 0 1 .015-1.616l2.813-2.761a1.143 1.143 0 0 1 1.617.015l4.41 4.493c.442.45.435 1.174-.015 1.616" fill="#E36947"/></g></svg>