<svg width="120" height="120" viewBox="0 0 120 120" xmlns="http://www.w3.org/2000/svg" xmlns:xlink="http://www.w3.org/1999/xlink"><defs><path id="a" d="M0 116.594h119.875V.283H0z"/></defs><g fill="none" fill-rule="evenodd"><path fill="#AEADB3" d="M0 118.717h119.875v-3.869H0z"/><path fill="#BC845E" d="M28.48 115.011h61.83V2.886H28.48z"/><path fill="#A38051" d="M3.368 114.926h.784v-10.11h-.784z"/><g transform="translate(0 2.123)"><path d="M7.206 101.657A3.444 3.444 0 0 1 3.76 105.1a3.444 3.444 0 0 1-3.446-3.442 3.444 3.444 0 0 1 3.446-3.442 3.444 3.444 0 0 1 3.446 3.442" fill="#5DA55D"/><mask id="b" fill="#fff"><use xlink:href="#a"/></mask><path fill="#A38051" mask="url(#b)" d="M10.261 112.802h.784v-10.11h-.784z"/><path d="M14.1 101.657a3.444 3.444 0 0 1-3.447 3.442 3.444 3.444 0 0 1-3.446-3.442 3.445 3.445 0 0 1 3.446-3.442 3.444 3.444 0 0 1 3.447 3.442" fill="#5DA55D" mask="url(#b)"/><path fill="#A38051" mask="url(#b)" d="M17.155 112.802h.784v-10.11h-.784z"/><path d="M20.993 101.657a3.444 3.444 0 0 1-3.446 3.442 3.444 3.444 0 0 1-3.447-3.442 3.445 3.445 0 0 1 3.447-3.442 3.445 3.445 0 0 1 3.446 3.442" fill="#5DA55D" mask="url(#b)"/><path fill="#A38051" mask="url(#b)" d="M24.048 112.802h.783v-10.11h-.783z"/><path d="M27.887 101.657a3.444 3.444 0 0 1-3.447 3.442 3.444 3.444 0 0 1-3.447-3.442 3.445 3.445 0 0 1 3.447-3.442 3.445 3.445 0 0 1 3.447 3.442" fill="#5DA55D" mask="url(#b)"/><path fill="#A38051" mask="url(#b)" d="M94.143 112.725h.784v-10.11h-.784z"/><path d="M97.982 101.58a3.445 3.445 0 0 1-3.447 3.442 3.445 3.445 0 0 1-3.446-3.443 3.444 3.444 0 0 1 3.446-3.442 3.444 3.444 0 0 1 3.447 3.442" fill="#5DA55D" mask="url(#b)"/><path fill="#A38051" mask="url(#b)" d="M101.037 112.725h.784v-10.11h-.784z"/><path d="M104.876 101.58a3.445 3.445 0 0 1-3.447 3.442 3.444 3.444 0 0 1-3.447-3.443 3.444 3.444 0 0 1 3.447-3.442 3.444 3.444 0 0 1 3.447 3.442" fill="#5DA55D" mask="url(#b)"/><path fill="#A38051" mask="url(#b)" d="M107.93 112.725h.784v-10.11h-.784z"/><path d="M111.769 101.58a3.444 3.444 0 0 1-3.447 3.442 3.444 3.444 0 0 1-3.446-3.443 3.444 3.444 0 0 1 3.446-3.442 3.444 3.444 0 0 1 3.447 3.442" fill="#5DA55D" mask="url(#b)"/><path fill="#A38051" mask="url(#b)" d="M114.824 112.725h.783v-10.11h-.783z"/><path d="M118.662 101.58a3.444 3.444 0 0 1-3.447 3.442 3.445 3.445 0 0 1-3.446-3.443 3.444 3.444 0 0 1 3.446-3.442 3.444 3.444 0 0 1 3.447 3.442" fill="#5DA55D" mask="url(#b)"/><path fill="#AF7751" mask="url(#b)" d="M28.48 87.75h61.83v-1.353H28.48zm0-26.868h61.83v-1.354H28.48zm0-27.095h61.83v-1.354H28.48z"/><path fill="#A06944" mask="url(#b)" d="M28.48 7.11h61.83V4.131H28.48z"/><path fill="#CE9772" mask="url(#b)" d="M25.446 4.047h66.889V.283H25.446z"/><path fill="#A5E2FD" mask="url(#b)" d="M30.529 17.673h6.78V10.09h-6.78zm7.36 0h6.78V10.09h-6.78zm7.367 0h6.78V10.09h-6.78zm7.36 0h6.78V10.09h-6.78zm7.325 0h6.78V10.09h-6.78zm7.359 0h6.78V10.09H67.3zm7.368 0h6.78V10.09h-6.78zm7.36 0h6.78V10.09h-6.78zM30.529 28.69h6.78v-7.584h-6.78zm7.36 0h6.78v-7.584h-6.78zm7.367 0h6.78v-7.584h-6.78zm7.36 0h6.78v-7.584h-6.78zm7.325 0h6.78v-7.584h-6.78zm7.359 0h6.78v-7.584H67.3zm7.368 0h6.78v-7.584h-6.78zm7.36 0h6.78v-7.584h-6.78zM30.529 44.856h6.78v-7.584h-6.78zm7.36 0h6.78v-7.584h-6.78zm7.367 0h6.78v-7.584h-6.78zm7.36 0h6.78v-7.584h-6.78zm7.325 0h6.78v-7.584h-6.78zm7.359 0h6.78v-7.584H67.3zm7.368 0h6.78v-7.584h-6.78zm7.36 0h6.78v-7.584h-6.78zM30.529 55.872h6.78V48.29h-6.78zm7.36 0h6.78V48.29h-6.78zm7.367 0h6.78V48.29h-6.78zm7.36 0h6.78V48.29h-6.78zm7.325 0h6.78V48.29h-6.78zm7.359 0h6.78V48.29H67.3zm7.368 0h6.78V48.29h-6.78zm7.36 0h6.78V48.29h-6.78zM30.529 71.6h6.78v-7.583h-6.78zm7.36 0h6.78v-7.583h-6.78zm7.367 0h6.78v-7.583h-6.78zm7.36 0h6.78v-7.583h-6.78zm7.325 0h6.78v-7.583h-6.78zm7.359 0h6.78v-7.583H67.3zm7.368 0h6.78v-7.583h-6.78zm7.36 0h6.78v-7.583h-6.78zM30.529 82.617h6.78v-7.583h-6.78zm7.36 0h6.78v-7.583h-6.78zm7.367 0h6.78v-7.583h-6.78zm7.36 0h6.78v-7.583h-6.78zm7.325 0h6.78v-7.583h-6.78zm7.359 0h6.78v-7.583H67.3zm7.368 0h6.78v-7.583h-6.78zm7.36 0h6.78v-7.583h-6.78z"/><path fill="#E5AE89" mask="url(#b)" d="M45.452 90.983h27.886V87.75H45.452z"/><path fill="#BC845E" mask="url(#b)" d="M48.646 112.888H70.69V90.983H48.646z"/><path fill="#E5AE89" mask="url(#b)" d="M47.212 112.888h1.434V90.983h-1.434zm3.39 0h1.434V90.983h-1.434zm16.698 0h1.434V90.983h-1.433zm3.391 0h1.433V90.983h-1.433z"/><path fill="#A5E2FD" mask="url(#b)" d="M32.568 112.802h10.475v-21.82H32.568zm43.22 0h10.475v-21.82H75.788z"/><path fill="#AF7751" mask="url(#b)" d="M28.48 112.888h18.732v-1.54H28.48zm43.644 0h18.268v-1.54H72.124z"/><path fill="#7FD8EF" mask="url(#b)" d="M53.882 112.888h5.56V92.76h-5.56zm6.013 0h5.56V92.76h-5.56z"/></g></g></svg>