<svg width="120" height="120" viewBox="0 0 120 120" xmlns="http://www.w3.org/2000/svg"><g fill="none" fill-rule="evenodd"><path d="M31.458 51.772c.857-2.906 3.173-4.781 5.17-4.191.592.174 1.086.55 1.471 1.061.037-.319-.124-1.027-2.03-1.543-2.513-.679-5-1.468-7.493-2.213-4.02-1.203-8.033-2.433-12.048-3.655-2.707-.825-5.41-1.746-8.147-2.464-3.203-.839-6.74.32-7.908 3.61-1.848 5.201 1.916 8.487 7.803 9.993 5.888 1.506 23.96 5.613 23.96 5.613s.622.309 1.279.113c-1.993-.594-2.915-3.424-2.057-6.324" fill="#ED9B3D"/><path d="M31.747 51.556l.277.082c.362-1.228.995-2.26 1.74-2.978.747-.72 1.597-1.116 2.398-1.114.228 0 .453.031.673.096.525.156.968.487 1.323.959a.286.286 0 0 0 .306.105.285.285 0 0 0 .21-.245 1.044 1.044 0 0 0-.088-.535c-.105-.235-.309-.476-.649-.7-.34-.224-.82-.435-1.503-.62-2.505-.677-4.99-1.465-7.486-2.212-4.02-1.203-8.031-2.432-12.047-3.654-2.702-.823-5.406-1.746-8.158-2.467A8.245 8.245 0 0 0 6.648 38c-1.324 0-2.617.329-3.705 1.003A5.84 5.84 0 0 0 .49 42.064c-.33.932-.49 1.812-.49 2.64 0 .981.225 1.886.641 2.702.625 1.225 1.673 2.247 3.017 3.079 1.346.831 2.991 1.477 4.837 1.95 5.896 1.508 23.964 5.614 23.965 5.615l.065-.282-.13.258c.024.01.414.207.948.209.17 0 .354-.022.544-.078a.29.29 0 0 0 0-.553c-.66-.197-1.197-.67-1.578-1.35-.379-.679-.594-1.563-.593-2.538 0-.663.098-1.367.308-2.078l-.277-.082-.277-.082a7.971 7.971 0 0 0-.332 2.242c0 1.059.23 2.036.668 2.82.436.782 1.09 1.375 1.916 1.621l.082-.276-.082-.277a1.307 1.307 0 0 1-.379.053 1.765 1.765 0 0 1-.646-.129l-.036-.015-.009-.004-.004.008.005-.008-.005.008.005-.008-.065-.023-.787-.18c-3.538-.805-18.021-4.115-23.164-5.43-2.402-.615-4.434-1.53-5.846-2.728-.707-.599-1.26-1.267-1.635-2.004a5.295 5.295 0 0 1-.578-2.44c0-.753.144-1.568.457-2.447a5.263 5.263 0 0 1 2.212-2.763c.985-.61 2.172-.917 3.4-.916.648 0 1.306.085 1.95.253 2.725.714 5.422 1.635 8.136 2.46 4.015 1.223 8.027 2.453 12.05 3.656 2.49.745 4.98 1.534 7.499 2.215.857.231 1.324.5 1.56.718.12.11.183.205.218.283.035.078.044.14.044.188l-.002.043.286.033.23-.173c-.413-.553-.96-.972-1.62-1.165a2.928 2.928 0 0 0-.836-.12c-.993 0-1.974.481-2.799 1.276-.825.796-1.503 1.912-1.893 3.23l.277.081" fill="#9A6A2C"/><path d="M3.833 39.008a5.94 5.94 0 0 0-.66.35A5.263 5.263 0 0 0 .96 42.123c-.313.88-.457 1.694-.457 2.447 0 .893.202 1.701.579 2.44.375.737.928 1.405 1.634 2.004 1.412 1.199 3.444 2.113 5.847 2.727 5.142 1.316 19.625 4.626 23.163 5.432l.734.167a3.757 3.757 0 0 1-.729-.939 4.74 4.74 0 0 1-.221-.454c-5.347-1.223-16.645-3.822-21.067-4.953C4.557 49.487.792 46.2 2.639 40.999a5.6 5.6 0 0 1 1.206-1.987l-.012-.004" fill="#E87F32"/><path d="M4.215 38.504c-1.677.525-3.084 1.701-3.742 3.553-1.848 5.202 1.916 8.488 7.803 9.993 5.888 1.506 23.96 5.613 23.96 5.613s.28.14.663.172c-.578-.305-1.045-.798-1.382-1.404.198.358.443.675.728.938l-.734-.166c-3.537-.807-18.02-4.116-23.163-5.432-2.402-.614-4.434-1.528-5.847-2.727-.706-.599-1.259-1.267-1.634-2.005A5.295 5.295 0 0 1 .288 44.6c0-.753.145-1.568.457-2.447a5.263 5.263 0 0 1 2.212-2.763c.212-.131.432-.248.66-.35l-.41-.12c.32-.165.655-.302 1.002-.411l.006-.005" fill="#975B2C"/><path d="M31.58 51.826c-.506 1.709-.39 3.39.196 4.607l2.53.577s.625.309 1.281.113c-1.993-.594-2.914-3.423-2.057-6.324.396-1.342 1.105-2.458 1.948-3.22-1.626.297-3.22 1.946-3.899 4.247" fill="#ED9B3D"/><path d="M31.363 51.61l-.276-.082a7.905 7.905 0 0 0-.33 2.233c0 .954.187 1.84.543 2.582a.29.29 0 0 0 .195.156l2.532.577.064-.28-.128.258c.023.009.413.206.948.208.17 0 .353-.021.543-.077a.29.29 0 0 0 .206-.277.29.29 0 0 0-.206-.277c-.66-.197-1.197-.669-1.577-1.35-.38-.679-.595-1.562-.594-2.538 0-.663.098-1.368.308-2.078.382-1.293 1.065-2.366 1.864-3.086a.289.289 0 0 0-.245-.499c-.89.164-1.744.687-2.463 1.459-.72.773-1.308 1.798-1.66 2.99l.276.081.277.082c.328-1.11.876-2.059 1.529-2.76.653-.701 1.409-1.15 2.144-1.284l-.051-.283-.194-.215c-.886.801-1.62 1.963-2.03 3.352a7.968 7.968 0 0 0-.333 2.241c0 1.06.231 2.036.668 2.82.436.782 1.09 1.375 1.916 1.622l.082-.277-.082-.277a1.304 1.304 0 0 1-.378.053 1.717 1.717 0 0 1-.647-.128l-.037-.016-.008-.004-.003.008.004-.008-.004.008.004-.008-.064-.023-.68-.154-1.852-.423-.063.282.259-.126c-.312-.649-.486-1.453-.486-2.331 0-.66.097-1.361.306-2.069l-.277-.082" fill="#9A6A2C"/><path d="M34.55 57.474l3.626-8.556s.034-.063.047-.168c-.386-.512-.88-.887-1.472-1.062-1.997-.59-4.312 1.286-5.17 4.191-.857 2.9.064 5.731 2.057 6.324.318-.094.644-.305.911-.729" fill="#F2CC6C"/><path d="M34.334 57.259l.264.112 3.63-8.556-.268-.112.256.134a.779.779 0 0 0 .077-.269.287.287 0 0 0-.056-.207c-.414-.552-.96-.971-1.62-1.164a2.928 2.928 0 0 0-.837-.121c-.993.001-1.973.482-2.799 1.276-.825.796-1.503 1.912-1.892 3.23a7.971 7.971 0 0 0-.333 2.242c0 1.058.231 2.035.668 2.819.436.783 1.09 1.376 1.916 1.622a.297.297 0 0 0 .165 0c.379-.111.773-.374 1.072-.852l.021-.042-.264-.112-.245-.154c-.236.37-.493.528-.75.606l.084.277.082-.277c-.66-.197-1.196-.669-1.577-1.35-.38-.679-.594-1.563-.594-2.537 0-.664.098-1.368.308-2.078.363-1.228.995-2.26 1.74-2.978.747-.72 1.597-1.117 2.398-1.115.228 0 .453.032.674.097.525.155.967.487 1.322.958l.23-.174-.286-.033a.286.286 0 0 1-.014.064l-.003.01.102.046-.1-.053-.002.007.102.046-.1-.053-.01.022-3.628 8.556.267.113-.245-.154.245.154" fill="#BCA55B"/><path d="M40.328 49.338l-3.082-1.095c-4.045-1.438-7.136 7.304-3.06 8.765.837.299 3.963.956 4.806.75 1.136-.277-.315-1.55-.092-2.567.098-.451 1.579-5.799 1.428-5.853" fill="#7F827F"/><path d="M40.616 49.627l.097-.272-3.08-1.095a2.97 2.97 0 0 0-.995-.176c-.64 0-1.238.218-1.766.576-.791.538-1.435 1.386-1.889 2.347-.452.963-.714 2.043-.714 3.064 0 .763.147 1.495.486 2.114.339.62.88 1.119 1.622 1.383.2.072.494.154.85.242.535.131 1.204.271 1.856.38.652.108 1.282.184 1.757.185.193 0 .36-.012.51-.048a.932.932 0 0 0 .488-.266.695.695 0 0 0 .171-.471 1.508 1.508 0 0 0-.104-.498c-.086-.24-.203-.485-.295-.725-.094-.239-.158-.47-.157-.66 0-.058.006-.113.017-.165.009-.042.04-.167.086-.34.16-.61.498-1.863.795-3.02.15-.578.288-1.132.392-1.573.05-.221.092-.413.123-.569.014-.077.026-.145.035-.205.008-.06.014-.109.014-.163 0-.026 0-.054-.01-.1-.007-.023-.015-.052-.038-.093a.305.305 0 0 0-.154-.124l-.097.272-.097.273.093-.263-.237.147c.02.034.068.088.144.116l.093-.263-.237.147.213-.131-.248.036c.004.016.004.04.035.095l.213-.131-.248.036.12-.017h-.122l.002.017.12-.017h-.122a.744.744 0 0 1-.012.102 18.1 18.1 0 0 1-.267 1.21c-.2.812-.47 1.843-.7 2.707l-.298 1.126c-.08.304-.135.512-.155.601-.021.097-.03.194-.03.29.002.414.162.792.3 1.125.071.166.139.32.186.452.047.132.07.242.07.305-.002.06-.01.068-.025.087-.015.018-.066.058-.195.09a1.7 1.7 0 0 1-.372.03c-.552.001-1.458-.128-2.3-.292a24.49 24.49 0 0 1-1.174-.256 9.257 9.257 0 0 1-.795-.224 2.36 2.36 0 0 1-1.31-1.118c-.28-.51-.415-1.147-.415-1.836-.001-1.229.432-2.61 1.133-3.66.35-.525.765-.967 1.217-1.273.453-.306.936-.476 1.442-.477.258 0 .525.045.801.143l3.08 1.095.097-.272" fill="#4F5250"/><path d="M34.043 50.1a4.63 4.63 0 0 0-.137.198c-.701 1.05-1.134 2.431-1.133 3.66 0 .689.135 1.327.415 1.836.281.51.7.897 1.31 1.118.164.059.45.14.795.224.345.085.753.175 1.174.256.63.123 1.294.226 1.821.27a40.178 40.178 0 0 1-.001-1.72c-1.071-.177-2.2-.444-2.654-.607-1.965-.704-2.262-3.101-1.59-5.234" fill="#606462"/><path d="M34.13 49.597c-2.117 2.124-2.842 6.84.055 7.88.64.228 2.622.667 3.895.767a28.209 28.209 0 0 1-.008-.29 17.933 17.933 0 0 1-1.82-.27 24.49 24.49 0 0 1-1.176-.255 9.257 9.257 0 0 1-.795-.224h.001a2.36 2.36 0 0 1-1.31-1.118c-.28-.51-.415-1.148-.415-1.837-.002-1.228.432-2.61 1.133-3.66.044-.067.09-.133.137-.197.085-.271.186-.537.302-.796" fill="#3C3F3E"/><path d="M119.358 61.557L38.79 50.605s-1.848 10.747 1.78 16.018l.018.002c2.746 5.04 17.37 10.828 35.55 13.717 19.96 3.173 36.927 1.69 38.937-3.263 1.28-2.07 3.874-7.224 4.283-15.522" fill="#7F827F"/><path d="M119.647 61.846l.038-.286-80.568-10.952a.29.29 0 0 0-.323.237c-.001.01-.475 2.76-.475 6.175 0 1.677.114 3.513.457 5.27.342 1.755.914 3.432 1.845 4.785a.29.29 0 0 0 .193.121l.016.003.046-.285-.254.138c.73 1.333 2.193 2.656 4.255 3.969 3.097 1.965 7.554 3.892 12.948 5.605 5.394 1.71 11.725 3.204 18.556 4.29 7.139 1.135 13.896 1.676 19.732 1.676 5.257-.002 9.764-.438 13.14-1.282 1.689-.423 3.095-.947 4.176-1.579 1.08-.63 1.843-1.376 2.201-2.255l-.267-.108.246.152c1.3-2.104 3.914-7.307 4.327-15.66a.29.29 0 0 0-.25-.3l-.04.286-.287-.014c-.408 8.243-2.983 13.348-4.242 15.383l-.022.044c-.287.713-.943 1.382-1.957 1.974-1.519.89-3.82 1.592-6.716 2.063-2.896.473-6.391.718-10.309.718-5.8 0-12.53-.538-19.641-1.668-9.073-1.44-17.257-3.607-23.505-6.036-3.122-1.214-5.761-2.494-7.78-3.777-2.02-1.28-3.414-2.57-4.058-3.757a.287.287 0 0 0-.209-.147l-.017-.003-.045.286.238-.164c-.866-1.258-1.42-2.864-1.753-4.569-.333-1.705-.446-3.509-.446-5.159a41.222 41.222 0 0 1 .446-5.957l.02-.12-.285-.05-.038.287 80.568 10.952.039-.286-.288-.014.288.014" fill="#4F5250"/><path d="M38.982 53.126a40.87 40.87 0 0 0-.158 3.532c0 1.65.112 3.454.446 5.16.327 1.678.869 3.26 1.713 4.51.03.023.054.052.073.086.643 1.188 2.038 2.477 4.058 3.758 2.019 1.282 4.658 2.562 7.78 3.776 6.248 2.429 14.432 4.595 23.505 6.036 7.11 1.13 13.841 1.668 19.641 1.668 3.917 0 7.413-.245 10.31-.718 2.895-.471 5.196-1.173 6.715-2.062.185-.109.358-.22.52-.333-3.278.75-7.564 1.142-12.523 1.142-5.815 0-12.555-.539-19.678-1.671-18.18-2.888-32.804-8.677-35.551-13.717l-.016-.002c-1.305-1.894-1.9-4.494-2.13-7.048-1.964-1.127-3.42-2.272-4.276-3.434a5.28 5.28 0 0 1-.429-.683" fill="#767A77"/><path d="M38.53 52.622c-.34 3.377-.605 10.132 2.04 13.976l.017.002c2.747 5.04 17.37 10.828 35.551 13.717 7.123 1.133 13.865 1.672 19.68 1.672 8.86 0 15.572-1.252 18.218-3.562-.217.055-.44.108-.667.16a7.458 7.458 0 0 1-.52.332c-1.518.89-3.819 1.592-6.715 2.063-2.897.473-6.392.718-10.309.718-5.8 0-12.53-.538-19.642-1.668-9.072-1.44-17.256-3.607-23.504-6.036-3.122-1.214-5.761-2.494-7.78-3.777-2.02-1.28-3.415-2.57-4.059-3.757a.277.277 0 0 0-.073-.087c-.843-1.249-1.385-2.831-1.712-4.51-.334-1.705-.447-3.508-.447-5.159 0-1.317.072-2.536.16-3.532a4.052 4.052 0 0 1-.239-.552" fill="#4A4D4B"/><path d="M119.545 61.955c-.706 5.447-19.344 7.522-41.628 4.634-22.284-2.886-39.778-9.642-39.073-15.09.706-5.446 19.344-7.52 41.629-4.634 22.284 2.887 39.777 9.643 39.072 15.09" fill="#7F827F"/><path d="M119.328 61.74l-.286-.037c-.054.416-.226.814-.523 1.202-.517.678-1.425 1.316-2.681 1.872-1.884.836-4.541 1.493-7.787 1.935-3.245.443-7.08.675-11.331.675-5.712 0-12.176-.418-18.982-1.3-10.906-1.412-20.663-3.755-27.675-6.408-3.506-1.326-6.326-2.733-8.25-4.125-.963-.696-1.7-1.388-2.189-2.054-.49-.668-.728-1.3-.727-1.895 0-.095.006-.19.018-.283.054-.417.226-.815.522-1.203.516-.678 1.426-1.316 2.681-1.873 1.885-.836 4.542-1.493 7.787-1.935 3.245-.443 7.08-.675 11.331-.675 5.712 0 12.177.418 18.983 1.3 10.905 1.413 20.662 3.755 27.675 6.409 3.505 1.326 6.325 2.732 8.25 4.124.962.696 1.7 1.388 2.188 2.055.49.668.729 1.3.729 1.895 0 .095-.007.19-.02.284l.287.036.286.037c.016-.118.023-.237.023-.357 0-.753-.3-1.504-.839-2.236-.945-1.285-2.624-2.549-4.91-3.789-3.432-1.857-8.237-3.646-13.982-5.208-5.746-1.561-12.432-2.892-19.612-3.823-6.83-.885-13.318-1.304-19.058-1.304-6.511 0-12.058.539-16.062 1.56-2.003.511-3.621 1.14-4.791 1.9-.584.38-1.057.795-1.404 1.25-.348.453-.568.95-.637 1.478a2.824 2.824 0 0 0-.023.358c0 .752.301 1.503.84 2.236.945 1.284 2.624 2.548 4.91 3.788 3.43 1.857 8.236 3.646 13.982 5.207 5.746 1.562 12.431 2.894 19.612 3.824 6.83.885 13.317 1.305 19.057 1.305 6.51 0 12.058-.54 16.063-1.56 2.003-.512 3.62-1.141 4.79-1.901.584-.38 1.058-.795 1.405-1.249.348-.453.569-.95.636-1.479l-.286-.037" fill="#4F5250"/><path d="M61.765 46.571c-11.02 0-18.816 1.64-19.81 4.578.692-2.045 4.684-3.46 10.762-4.132-.894 3.547-1.408 8.477 1.498 11.2a90.902 90.902 0 0 1 6.937-.248h.004c5.443 0 11.672.4 18.255 1.243l.021.002.083.01.065.009.11.015c10.909 1.413 20.587 3.753 27.193 6.341 5.764-.767 9.38-2.264 9.654-4.377.61-4.708-15.612-10.69-36.231-13.362-6.69-.867-13.02-1.279-18.541-1.279zm-19.81 4.58l-.005.015.005-.015zm-.006.019l-.002.004.002-.004zm-.003.008l-.001.006.001-.006zm-.002.01l-.002.004c0-.001 0-.003.002-.004zm-.003.009a.007.007 0 0 0-.002.003l.002-.003zm-.004.01l-.001.003.001-.002zm-.003.009zm-.005.018zm-.056.248zm-.003.019zm0 .009l-.001.001v-.001zm-.003.01zm0 .008zm-.018.272c.002 2.15 3.405 4.546 9.055 6.76l.03-.005-.03.004c-5.65-2.213-9.053-4.608-9.055-6.759zm9.11 6.752l-.014.002.013-.002z" fill="#6C716E"/><path d="M61.173 58.168c-2.492 0-4.819.084-6.938.248l.003.003c-1.146.088-2.24.197-3.26.332l-.013.001a.038.038 0 0 1-.01.002l-.03.004c6.605 2.588 16.282 4.93 27.192 6.342 6.688.867 13.017 1.278 18.537 1.278 3.864 0 7.332-.202 10.25-.59-6.607-2.589-16.285-4.929-27.194-6.342l-.11-.014-.065-.008-.082-.011-.022-.003c-6.582-.842-12.813-1.241-18.255-1.242h-.003" fill="#606462"/><path d="M61.173 58.168zm0 0zm-10.194.583l-.014.001.014-.001zm-.024.003l-.03.004.03-.004zm28.476.656l.022.003-.022-.003zm.104.014l.065.008-.065-.008zm.175.022c10.91 1.413 20.587 3.753 27.193 6.342-6.606-2.589-16.284-4.929-27.193-6.342z" fill="#535755"/><path d="M36.233 49.092c-.49 0-.87.167-.93.444-.08.37.438.796 1.16.952.179.038.354.057.517.057.49 0 .871-.167.931-.444.08-.37-.44-.795-1.16-.951a2.468 2.468 0 0 0-.518-.058" fill="#B8BAB6"/><path d="M113.756 67.73c-.002.008-1.77 9.543-8.882 11.128 4.587-.144 9.118-1.148 11.011-5.348.792-1.758 1.233-3.705 1.778-5.532.313-1.049.243-1.383-1.067-1.184-.314.048-2.771.57-2.84.936" fill="#A2A5A1"/><path d="M41.956 51.11v-.001zm-.006.017l-.001.003.001-.003zm-.003.007zm-.002.01l-.001.005v-.004zm-.003.01l-.001.004.001-.005zm-.003.007zm-.003.01l-.002.005.002-.006zm-.003.008a.038.038 0 0 1-.002.008l.002-.008zm-.002.008l-.002.008a.05.05 0 0 1 .002-.008zm-.003.01l-.004.017.004-.017zm-.004.017c-.002.003-.002.006-.003.01 0-.004.001-.007.003-.01zm-.003.01zm-.004.017zm-.044.203l-.003.018.003-.018zm-.003.018zm-.001.01zm-.002.01v-.001zm0 .009a1.972 1.972 0 0 0-.001.008v-.008z" fill="#6C716E"/><path d="M52.717 47.076c-6.078.671-10.07 2.087-10.761 4.132v.002l-.006.015-.001.004-.002.004v.004a.083.083 0 0 1-.002.006l-.001.004-.002.004-.001.005-.002.003a.042.042 0 0 0-.002.008l-.001.002-.002.006v.002l-.003.008a.05.05 0 0 0-.002.008v.002a.048.048 0 0 0-.005.017c-.002.003-.002.006-.003.01a6865.885 6865.885 0 0 1-.05.238c-.002.004-.002.006-.002.009v.001c0 .003 0 .006-.002.009v.01l-.002.008a1.972 1.972 0 0 0-.016.262c.002 2.15 3.405 4.546 9.055 6.76l.03-.005.01-.001.014-.002a59.8 59.8 0 0 1 3.257-.335c-2.906-2.723-2.392-7.653-1.498-11.2" fill="#5D625F"/><path d="M54.205 58.168a59.63 59.63 0 0 0-3.256.335 60.092 60.092 0 0 1 3.26-.331l-.004-.004zm-3.27.337z" fill="#525654"/><path d="M54.205 58.168zm-3.27.337z" fill="#484B49"/><path d="M6.26 38.504h-.001c-.956 0-1.887.185-2.717.555l-.013.014 29.897 8.706c.584-.452 1.226-.752 1.884-.85-2.321-.642-4.62-1.368-6.916-2.056-4.023-1.203-8.035-2.433-12.05-3.655-2.714-.826-5.411-1.746-8.136-2.46a7.722 7.722 0 0 0-1.949-.254zm.74 1.12a1.96 1.96 0 0 1-.485-.065c-.484-.122-.838-.377-.79-.568.03-.123.22-.19.48-.19.145 0 .312.02.485.064.485.123.838.377.79.568-.03.124-.22.191-.48.191z" fill="#F5C888"/><path d="M6.252 38.504c-.742 0-1.47.107-2.155.323a5.62 5.62 0 0 0-.568.52 6.683 6.683 0 0 1 2.717-.555 7.71 7.71 0 0 1 1.95.254c2.724.714 5.421 1.634 8.136 2.46 4.015 1.222 8.026 2.452 12.049 3.655 2.297.688 4.595 1.413 6.917 2.057a2.928 2.928 0 0 1 1.322.092 7.178 7.178 0 0 0-.664-.212c-2.512-.679-5-1.467-7.492-2.213-4.021-1.203-8.034-2.433-12.049-3.655-2.707-.824-5.409-1.746-8.147-2.464a7.975 7.975 0 0 0-2.016-.262" fill="#C7AD7E"/><path d="M36.128 47.076c-.155 0-.308.012-.462.035-.658.097-1.3.397-1.884.85l.353.103c.634-.447 1.321-.699 1.999-.699.252 0 .503.035.75.108.572.169 1.054.526 1.433 1.013l.04.015c.018-.289-.139-.834-1.37-1.298a2.928 2.928 0 0 0-.86-.127" fill="#DBCD9E"/><path d="M38.32 48.588l.037.049.003-.034-.04-.015" fill="#9EA19D"/></g></svg>