<svg width="120" height="120" viewBox="0 0 120 120" xmlns="http://www.w3.org/2000/svg"><g fill="none" fill-rule="evenodd"><path fill="#B5D305" d="M70.05 73.894l-10.185 13.9H38.898l-2.844-13.9z"/><path fill="#A01FA0" d="M68.293 76.288l-6.676 9.117H38.41l-1.865-9.117z"/><path d="M114.372 32.128v17.53L95.223 45.66c-.014-.159-.018-6.432-.018-6.432 0-3.985 3.231-7.21 7.223-7.21 0 0 11.535.037 11.944.11m0 41.655V56.252L95.223 60.25c-.014.159-.018 6.432-.018 6.432 0 3.985 3.231 7.21 7.223 7.21 0 0 11.535-.038 11.944-.11" fill="#FFA105"/><path d="M119.939 53.73S89.963 42.39 53.425 42.39C17.17 42.39.524 53.553.265 53.726c17.299-37.285 114.107-18.338 119.674.003" fill="#FF4412"/><path d="M119.939 53.73S89.963 65.07 53.425 65.07C17.17 65.07.524 53.907.265 53.733c17.299 37.285 114.107 18.338 119.674-.004M53.425 42.39C17.17 42.39.523 53.551.265 53.725H119.93c-.355-.133-30.186-11.337-66.505-11.337" fill="#FFD546"/><path d="M53.425 65.073C17.17 65.073.523 53.91.265 53.736H119.93c-.355.134-30.186 11.337-66.505 11.337" fill="#FF4412"/><path d="M.266 53.726l-.004.003.004.007v-.01z" fill="#FFD546"/><path d="M106.536 54.997H83.872c.026-1.648 1.152-3.295 3.305-3.295h16.055c2.15 0 3.278 1.65 3.304 3.295" fill="#B5D305"/><path d="M106.536 53.725c.023 1.649-1.052 3.298-3.304 3.298H87.177c-2.253 0-3.33-1.65-3.305-3.298h22.664zM72.293 77.183v4.56H61.1c0-2.28 1.508-4.56 4.53-4.56h6.664z" fill="#B5D305"/><path d="M43.84 80.62a2.541 2.541 0 0 1-2.543 2.542H37.95l-1.038-5.08h4.385a2.538 2.538 0 0 1 2.543 2.538m2.248 2.542h5.84V78.08h-5.84zm8.087 2.243h2.92V78.08h-2.92z" fill="#5AE0E0"/><path d="M72.293 81.743V86.3H65.63c-3.023 0-4.531-2.28-4.531-4.557h11.194z" fill="#83AD00"/></g></svg>