<svg width="120" height="120" viewBox="0 0 120 120" xmlns="http://www.w3.org/2000/svg"><g fill="none" fill-rule="evenodd"><path d="M72.354 109.231c-7.014 13.757-19.994 11.856-33.643 4.875-13.648-6.98-22.797-16.396-15.784-30.152S56.309 60.3 64.109 64.29c8.186 4.186 15.258 31.184 8.245 44.94" fill="#6E4D2F"/><path d="M63.092 92.682c-3.01 5.904-10.23 8.247-16.125 5.232-5.895-3.015-8.234-10.246-5.224-16.15 3.01-5.905 10.23-8.247 16.125-5.232 5.895 3.015 8.234 10.245 5.224 16.15" fill="#9C6F42"/><path d="M60.757 91.487c-2.352 4.613-7.992 6.444-12.598 4.088-4.605-2.356-6.432-8.004-4.08-12.617 2.35-4.613 7.991-6.443 12.597-4.088 4.605 2.356 6.432 8.004 4.08 12.617" fill="#38342F"/><path fill="#38342F" d="M80.68 21.234l-32.841 60.9 11.38 5.819 29.996-62.354zm15.497-9.124l1.566 2.42c.23.355.757.328.95-.05l1.309-2.568a.55.55 0 0 0-.517-.799l-2.875.15a.55.55 0 0 0-.433.847M87.94 6.828l-1.566-2.42a.548.548 0 0 0-.95.05l-1.309 2.567a.55.55 0 0 0 .517.8l2.875-.149a.55.55 0 0 0 .433-.848m3.774 14.036l1.566 2.42c.23.355.757.327.95-.05l1.309-2.567a.55.55 0 0 0-.518-.8l-2.874.149a.55.55 0 0 0-.433.848m-8.238-5.282l-1.565-2.42a.549.549 0 0 0-.95.05l-1.31 2.568a.55.55 0 0 0 .518.799l2.875-.149a.55.55 0 0 0 .432-.848"/><path d="M89.784.381s-9.718 20.539-8.982 20.915l8.29 4.24c.737.377 11.65-19.55 11.65-19.55.427-.84-4.272.79-6.639-.42C91.413 4.19 90.212-.456 89.784.38" fill="#6E4D2F"/><path d="M84.78 15.582c.525.269.733.913.465 1.439a1.068 1.068 0 1 1-1.903-.973 1.067 1.067 0 0 1 1.437-.466m6.477 3.312c.526.27.734.913.466 1.44a1.068 1.068 0 1 1-1.902-.973 1.067 1.067 0 0 1 1.436-.467M89.242 6.828a1.07 1.07 0 0 1-.971 1.905 1.071 1.071 0 0 1-.466-1.44 1.067 1.067 0 0 1 1.437-.465m6.478 3.312a1.07 1.07 0 0 1-.972 1.906 1.071 1.071 0 0 1-.466-1.44 1.068 1.068 0 0 1 1.438-.466" fill="#9C6F42"/><path d="M88.162 20.038l6.992-8.125-.391-.247-7.004 8.142-47.95 94.847.418.204 47.935-94.821zm.105-11.648l-2.545 10.375-48.514 94.55.41.22 48.526-94.576 2.552-10.395-.429-.174z" fill="#FFF"/><path d="M90.885 20.291l-.407-.225-.769.646-47.11 95.246c.144.062.287.12.43.183L90.12 20.93l.764-.639zm-6.538-2.332l.068-.995-.421-.197-.064.986-49.396 94.044.4.24 49.413-94.078z" fill="#FFF"/><path fill="#38342F" d="M53.62 111.262l-21.35-10.919 1.641-3.218 21.349 10.919z"/></g></svg>