<svg width="120" height="120" viewBox="0 0 120 120" xmlns="http://www.w3.org/2000/svg"><g fill="none" fill-rule="evenodd"><path d="M39.378 119.225l-20.38-12.92a4.143 4.143 0 0 1-1.274-5.697l28.45-44.877c1.86-2.931 2.62-3.227 5.334-1.505l21.25 13.47c2.712 1.722 2.534 2.59 1.135 4.796l-28.818 45.456a4.14 4.14 0 0 1-5.697 1.277" fill="#262039"/><path d="M68.683 75.493L46.02 61.126a1.5 1.5 0 0 1-.465-2.065l2.666-4.206a1.504 1.504 0 0 1 2.067-.462L72.952 68.76a1.5 1.5 0 0 1 .462 2.065l-2.666 4.206a1.498 1.498 0 0 1-2.065.462" fill="#E1C9A8"/><path d="M61.44 61.727c-6.73-4.266-13.018-6.41-14.047-4.788-1.028 1.623 3.593 6.395 10.323 10.661 6.73 4.269 13.019 6.413 14.048 4.79 1.028-1.622-3.593-6.397-10.323-10.663" fill="#D6AB62"/><path d="M48.94 57.026c-.936 1.478 3.275 5.829 9.41 9.717 6.133 3.888 11.865 5.84 12.804 4.363l25.598-40.38-22.212-14.08-25.6 40.38" fill="#D6AB62"/><path d="M50.29 60.194c1.65 1.9 4.521 4.27 8.022 6.49 3.5 2.218 6.87 3.805 9.292 4.486l26.663-42.054-17.317-10.98-26.66 42.058" fill="#E1C9A8"/><path d="M63.144 69.468l27.148-42.822-9.113-5.776L54.03 63.69a50.723 50.723 0 0 0 4.408 3.125 50.801 50.801 0 0 0 4.705 2.653" fill="#F5E0C6"/><path d="M87.807 25.212l-4.496-2.852a69.54 69.54 0 0 0-3.272 4.728c-4.336 6.842-6.758 13.08-5.41 13.936 1.35.857 5.961-3.995 10.296-10.835a68.752 68.752 0 0 0 2.882-4.977" fill="#D6AB62"/><path d="M87.46 21.006c-6.133-3.889-11.865-5.841-12.802-4.363-.936 1.478 3.275 5.828 9.41 9.717 6.133 3.888 11.865 5.84 12.802 4.362.936-1.475-3.275-5.828-9.41-9.716" fill="#E1C9A8"/><path d="M97.765.75c-7.727-4.9-20.698 15.774-21.495 17.033-.798 1.257 2.79 4.962 8.01 8.27 5.22 3.31 10.099 4.972 10.896 3.715.274-.432 5.354-8.504 6.343-12.596 1.9-7.853-.32-14.246-3.754-16.422" fill="#DC3767"/><path d="M96.694 1.005c-2.482-.251-4.477 3.804-4.457 9.06.02 5.255 2.047 9.722 4.53 9.976 2.481.25 4.479-3.804 4.456-9.061-.02-5.257-2.047-9.722-4.529-9.975" fill="#E0547E"/></g></svg>