<svg width="120" height="120" viewBox="0 0 120 120" xmlns="http://www.w3.org/2000/svg" xmlns:xlink="http://www.w3.org/1999/xlink"><defs><path id="a" d="M.27.706h32.094V7.13H.269z"/><path id="c" d="M.61.247h59.744V49.65H.61z"/></defs><g fill="none" fill-rule="evenodd"><path fill="#B6BBBF" d="M48.169 116.789h6.42V96.78h-6.42z"/><g transform="translate(35.063 112.624)"><mask id="b" fill="#fff"><use xlink:href="#a"/></mask><path d="M27.426.706H5.206C2.492.706.27 2.93.27 5.646V7.13h32.095V5.647c0-2.718-2.222-4.94-4.938-4.94" fill="#D8DEE7" mask="url(#b)"/></g><path d="M78.289 18.479h-53.82c2.469 16.796 1.728 34.087-1.48 50.885-.495 2.963-.989 5.927-.989 8.15 0 16.056 13.084 29.147 29.132 29.147 16.048 0 29.132-13.09 29.132-29.147 0-2.47-.247-5.187-.987-8.15-2.963-16.798-3.704-33.842-.988-50.885" fill="#F8F9F9"/><path d="M73.351 50.59H29.16c-.494 6.423-1.233 12.845-2.468 19.514-.494 2.717-.741 5.434-.741 7.657 0 14.08 11.356 25.442 25.429 25.442 14.073 0 25.429-11.362 25.429-25.442 0-2.223-.247-4.693-.741-7.657-1.48-6.67-2.222-13.091-2.716-19.514" fill="#9BD7F6"/><g transform="translate(37.438 .941)"><mask id="d" fill="#fff"><use xlink:href="#c"/></mask><path fill="#D9DDE6" mask="url(#d)" d="M28.754.247L.61 49.649h6.665l24.689-43.72h28.39V.246z"/></g></g></svg>