<svg width="120" height="120" viewBox="0 0 120 120" xmlns="http://www.w3.org/2000/svg" xmlns:xlink="http://www.w3.org/1999/xlink"><defs><path id="a" d="M.2.3h13.173v5.567H.2z"/></defs><g fill="none" fill-rule="evenodd"><path d="M50.76 109.926c-1.72 1.06-2.974 3.206-1.497 4.966 1.115 1.241 2.756.254 4.003-.272 1.377-.652 2.952-1.114 4.2-1.964.807-.562 1.752-1.153 2.295-1.989.169-.256.249-.494.187-.74H50.76zm19.632 0c1.723 1.06 2.974 3.206 1.497 4.966-1.115 1.241-2.756.254-4.003-.272-1.377-.652-2.952-1.114-4.199-1.964-.806-.562-1.752-1.153-2.296-1.989-.169-.256-.248-.494-.19-.74h9.19z" fill="#FDDFBB"/><path d="M59.948 109.926h-.582c-.016.062-.034.1-.053.17-.08.29-.534.705-1.174 1.149-.01-.01-.82-.759-2.137-1.319h-5.241a1.175 1.175 0 0 0-.335.247s4.144-.79 6.707 1.704c-.453.274-.938.54-1.42.8a2.84 2.84 0 0 0-.255-.231c-.992-.75-2.378-1.622-3.641-1.652a8.88 8.88 0 0 0-2.338.209 4.522 4.522 0 0 0-.35.484c.576-.077 1.413-.065 1.69-.065 1.266.031 2.652.448 3.585 1.35.112.118.217.265.321.414-.305.161-.596.308-.862.442-.383-.38-1-.695-1.564-.888-.849-.31-2.572-.646-3.48-.14.007-.005.005-.01-.013-.01a2.16 2.16 0 0 0-.146.062c-.141.738.01 1.513.603 2.222 1.01 1.121 2.451.426 3.64-.104h.002c.025-.012.047-.023.072-.032.03-.016.062-.03.094-.043l.05-.02c.05-.023.098-.043.143-.066l.248-.111c.041-.018.082-.036.125-.057.04-.018.08-.031.119-.05l.175-.077a.698.698 0 0 0 .061-.025c.076-.031.148-.029.221-.06.337-.139.678-.257 1.017-.381.312-.186.626-.295.931-.437v-.019c.458-.21.897-.455 1.304-.731.1-.068.2-.143.303-.215.002.002.002 0 .005.002.214-.147.43-.304.644-.465-.003 0-.003 0-.003-.002.52-.385 1.013-.795 1.348-1.314.168-.26.248-.494.186-.74m1.256-.001h.585c.016.062.032.1.05.17.08.29.537.705 1.174 1.149.012-.01.822-.696 2.137-1.319h5.242c.113.062.204.093.348.216 0 0-4.156-.77-6.72 1.726.452.274.94.544 1.42.804.088-.088.175-.168.254-.229.992-.75 2.38-1.62 3.642-1.649a8.87 8.87 0 0 1 2.337.206c.127.157.246.32.353.487-.578-.079-1.414-.065-1.694-.065-1.265.031-2.651.448-3.584 1.35-.11.118-.216.265-.321.414.305.161.599.308.863.442.384-.38.999-.695 1.565-.888.85-.31 2.572-.646 3.478-.14a.915.915 0 0 1 .16.052c.14.738-.01 1.513-.604 2.222-1.008 1.121-2.451.426-3.639-.104h-.002l-.07-.032a1.774 1.774 0 0 0-.096-.043l-.05-.02-.144-.066-.246-.111a2.097 2.097 0 0 1-.125-.057c-.04-.018-.08-.031-.118-.05l-.178-.077a.698.698 0 0 1-.061-.025c-.073-.031-.148-.029-.22-.06-.338-.139-.677-.257-1.016-.381-.314-.186-.628-.295-.93-.437v-.019a9.03 9.03 0 0 1-1.307-.731c-.098-.068-.2-.143-.303-.215-.002.002-.002 0-.002.002a19.129 19.129 0 0 1-.646-.465c.002 0 .002 0 .002-.002-.519-.385-1.01-.795-1.347-1.314-.169-.26-.249-.494-.187-.74" fill="#B16B1A"/><path d="M40.515 57.413l-5.342-6.008c.132-.305.225-.64.28-.999.337-.609.614-1.375.78-2.224.438-2.234-.05-4.204-1.085-4.406-.555-.104-1.154.315-1.66 1.074-1.114-1.07-2.491-1.514-3.64-1.029-1.762.741-2.32 3.385-1.248 5.9.7 1.646 1.923 2.83 3.18 3.245 0 0 3.204 9.306 6.063 10.337 2.312.833 9.522-2.463 9.522-2.463s.637-2.718 1.163-3.9c1.333-3.009 2.176-3.51 2.176-3.51l-10.19 3.983zm42.521 21.529c-.12-1.137-.558-2.138-1.165-2.822 0 0-1.043-13.404-4.55-17.864-1.707-2.17-6.857-4.925-6.857-4.925s1.582 1.495 2.305 3.955c0 0 .39 1.024.53 1.536a63.37 63.37 0 0 1 1.132 4.965c1.625 2.29 3.75 12.333 3.75 12.333h.003c-.148.185-.28.412-.396.643a6.53 6.53 0 0 0-1.152 1.577c-.88 1.658-.972 3.33-.202 3.737.41.218.985.028 1.565-.448.626 1.11 1.603 1.787 2.627 1.679 1.57-.166 2.647-2.123 2.41-4.366" fill="#FDDFBB"/><path d="M70.745 53.626c-1.477-1.554-8.389-1.747-8.389-1.747l-1.666.084h-.138l-1.68-.084s-6.939.227-8.414 1.78c-5.485 5.766-5.077 31.323-5.077 31.323v25.007h30.403V84.982s.446-25.591-5.039-31.356" fill="#EEEEED"/><path d="M63.831 51.933c.291-.618.467-1.318.467-1.778h-7.256c0 .458.175 1.155.464 1.774-.705.052-1.604.138-2.537.27l6.4 10.601 6.342-10.37c-1.34-.268-2.817-.417-3.88-.497" fill="#FDDFBB"/><path d="M57.819 52.48l6.452-2.118.011-.014a22.01 22.01 0 0 1-7.225.025c.066.623.352 1.488.762 2.107" fill="#EEAC6C"/><path d="M67.11 77.27c-.135.129-.31.217-.467.308-.04.023-.078.04-.121.063a.199.199 0 0 0 .011-.034c.025-.025.044-.059.06-.086.07-.1.147-.195.254-.258.082-.05.198-.05.294-.025-.011.011-.023.02-.032.032zm-2.136-.202c-.009.1-.03.202-.045.304a.798.798 0 0 1-.248-.263c-.048-.077-.132-.607.066-.578.095.014.186.166.218.24.032.084.014.209.01.297zm10.745.422h-5.267l-8.848-14.573 6.302-10.445c-.105-.025-.212-.046-.319-.068l-6.204 10.132-6.297-10.357-.321.048v.009L70.01 77.49h-2.199c.38-.313.603-.834-.15-1.058-.585-.136-1.513.557-1.9 1.058h-.344c.357-.748.444-1.967-.744-1.83-.63.103-1.209.672-.892 1.245.13.29.496.458.82.585H45.506v.808h19.681a.989.989 0 0 0-.016.451c-.293.585-1.14.904-1.443 1.56-.264.522-.366 1.308-.316 1.933 0 .47.043 1.41.776 1.149.314-.105.146-.47.146-.47v.055c-1.188-1.128.066-2.872.999-3.724.118.247.278.485.382.698a5.96 5.96 0 0 1 .735 2.66c.157 2.244-1.518 4.124-1.41 6.419.785-.313.944-1.984 1.203-2.766.262-.938.735-1.878.892-2.818.16-.992-.104-1.991-.47-2.931-.242-.625-.836-1.47-.89-2.216h9.943v-.808z" fill="#F6B90C"/><path d="M90.668 60.87c-.316-.06-.66-.026-1.036.035-.325-.422-.755-.94-1.024-1.112-.525-.329-1.723-.621-2.728-.619a1.59 1.59 0 0 0-.126-.256c-.389-.589-1.593-1.493-2.603-1.84a.955.955 0 0 0-.018-.156c-.15-.75-1.061-2.197-1.937-2.827-.025-.765-.403-2.048-.938-2.85.052-.086.096-.16.12-.228.342-.818.363-2.975-.234-3.842a1.73 1.73 0 0 0 .187-.236c.553-.906.958-3.772.002-4.238.553-.909.956-3.774-.002-4.236-.483-.231-1.589.8-1.684 1.325-.06.315-.016.657.048 1.03-.415.331-.931.769-1.097 1.036-.551.908-.956 3.774-.003 4.24-.553.909-.953 3.775.003 4.237.03.011.057.02.088.025-.059.09-.109.176-.138.249-.406.976-.353 3.878.664 4.184a.342.342 0 0 0 .153.011c-.073 1.076.85 3.779 1.907 3.765.116 0 .234-.07.343-.183.376 1.12 1.883 3.162 2.83 2.876.134-.043.236-.167.316-.342a.71.71 0 0 0 .05.093c.582.886 3.015 2.483 3.846 1.822a.471.471 0 0 0 .146-.279c.987.54 3.7.933 4.167.018.243-.478-.776-1.595-1.302-1.701" fill="#AD6922"/><path d="M82.167 32.207c.161-1.067.246-2.159.246-3.267 0-11.997-9.77-21.722-21.819-21.722-12.053 0-21.823 9.725-21.823 21.722 0 1.054.075 2.096.223 3.113-1.261.686-2.112 1.982-2.112 3.47 0 2.205 1.864 3.99 4.167 3.99.155 0 .31-.01.464-.025A21.831 21.831 0 0 0 60.594 50.66a21.83 21.83 0 0 0 19.065-11.152c.066.005.127.005.191.005 2.303 0 4.167-1.785 4.167-3.99 0-1.381-.733-2.602-1.85-3.316" fill="#FDDFBB"/><path d="M54.229 28.096c-.772-.174-.908-1.201-3.386-.74-.779.18-2.417 1.156-2.732 1.808-.316.652-.088-2.392 2.457-3.522 1.835-.675 2.457-.642 3.977-.642s1.987.907 1.766 1.65c0 0-.503 1.803-2.082 1.446zm13.905 0c.772-.174.908-1.201 3.386-.74.779.18 2.417 1.156 2.732 1.808.316.652.087-2.392-2.457-3.522-1.835-.675-2.457-.642-3.977-.642s-1.987.907-1.766 1.65c0 0 .503 1.803 2.082 1.446z" fill="#AD6922"/><path d="M54 34c0 1.657-.895 3-2 3s-2-1.343-2-3 .895-3 2-3 2 1.343 2 3m18 0c0 1.657-.895 3-2 3s-2-1.343-2-3 .895-3 2-3 2 1.343 2 3" fill="#6172BB"/><path d="M61.02 37.07c.839-.115 2.96 1.756 2.96 1.756s.103-.414-.34-1.238C63.163 36.703 60.99 36 60.99 36s-1.687.448-2.487 1.604c-.296.29-.503 1.299-.503 1.299s1.895-1.681 3.02-1.834z" fill="#EEAC6C"/><g transform="translate(54 40)"><mask id="b" fill="#fff"><use xlink:href="#a"/></mask><path d="M.2.696S7.097 3.904 13.372.299c0 0-1.39 5.47-5.95 5.561-4.115.122-4.984-1.492-5.477-1.956C1.453 3.441.525 2.132.2.696" fill="#EEAC6C" mask="url(#b)"/></g><path d="M83.276 26.108a42.332 42.332 0 0 0-.262-3.991c-2.931-9.558-11.86-16.512-22.422-16.512A23.443 23.443 0 0 0 39.6 18.547c-1.063 3.015-1.714 5.984-1.768 7.321-.19 4.644 1.162 6.182 1.162 6.182s3.933-5.412 8.585-8.665c3.657-2.555 6.912 2.381 11.252-1.85.387-.377 1.837-1.835 1.837-1.835s1.194 1.334 1.834 1.834c3.86 3.036 6.017-.41 10.337 1.928 3.537 1.917 9.33 8.744 9.33 8.744s1.141-3.547 1.107-6.098" fill="#AD6922"/><path d="M36.38 27.847s22.825-11.168 47.91 0v-2.963s-18.753-10.926-47.914-.567l.005 3.53z" fill="#F7B90B"/></g></svg>