<svg xmlns="http://www.w3.org/2000/svg" width="44.343" height="103.891" viewBox="1.207 0.608 44.343 103.891"><defs><style/></defs><g id="ID0.766191819217056" transform="matrix(.95 0 0 .95 .15 -.25)" stroke="#000" stroke-width="2" stroke-linecap="round"><path id="ID0.9025724199600518" fill="#7F7F7F" d="M112.65 187.4c14.137-1.663 28.332-2.547 42.5-3.5 3.542-.239 3.279-.962 3.5.25.729 5.296-1.305 9.07-1.15 15.85.62 27.119 2.157 54.292 3.15 81.4.38 10.371.82 20.869.75 31.3-.003 2.598.358 1.12-.75 1.25-4.439.536-8.993 1.483-13.25.5-1.324-.29-.425 1.68-1-3.75-2.311-21.712-4.179-43.594-6.5-65.25-.815-7.609-2.185-15.089-3.25-22.75-.661-5.473-.667-11.004-1.25-16.5-.225-2.317 1.029-5.052-.25-7-.659-1.052-2.938-.965-3.75-.05-.854.967.8 1.421.75 3.8-.687 9.708-1.895 19.391-2.75 29-1.499 16.722-3.495 33.456-4.75 50.2-.554 7.38.095 14.718-.25 22.05-.106 1.836.463 2.308-.75 2.5-4.849.786-10.185 1.541-14.75 0-1.584-.536-.452-3.097-.5-5-.037-8.071.062-16.2.25-24.05.644-26.86 1.729-53.651 2.35-80.65.155-6.75-.625-5.776-.15-8.6.12-.717-1.734-.584 1.8-1z" transform="matrix(-.85737 0 0 .82106 139.8 -149.3)"/><g id="ID0.17013505846261978" fill="none"><path id="ID0.47323201317340136" d="M125.75 237.75l-11.5-1.25" transform="matrix(-.85737 0 0 .82106 130.05 -180.95)"/><path id="ID0.7334474860690534" d="M119.25 237.5l-.25-13" transform="matrix(-.85737 0 0 .82106 130.05 -180.95)"/><path id="ID0.7548331739380956" d="M127.5 224l-5 4.5" transform="matrix(-.85737 0 0 .82106 130.05 -180.95)"/><path id="ID0.37362584890797734" d="M131 224.25l-8.25 8" transform="matrix(-.85737 0 0 .82106 130.05 -180.95)"/><path id="ID0.36754080513492227" d="M134.75 217l11 9" transform="matrix(-.85737 0 0 .82106 130.05 -174.8)"/><path id="ID0.06994768511503935" d="M139 217l7.25 6.25" transform="matrix(-.85737 0 0 .82106 130.05 -174.8)"/><path id="ID0.16788794565945864" d="M107 226.25l-7.5 6" transform="matrix(-.85737 0 0 .82106 130.05 -180.95)"/><path id="ID0.6218315488658845" d="M99.5 235.75l14-11" transform="matrix(-.85737 0 0 .82106 130.05 -180.95)"/><path id="ID0.5768417906947434" d="M122.25 224v13.5" transform="matrix(-.85737 0 0 .82106 130.05 -180.95)"/></g></g></svg>