<svg width="120" height="120" viewBox="0 0 120 120" xmlns="http://www.w3.org/2000/svg"><g fill="none" fill-rule="evenodd"><path d="M52.282 41.47H67.21l-1.123-3.846a1.34 1.34 0 0 0-1.286-.964h-10.11a1.34 1.34 0 0 0-1.286.964l-1.123 3.847z" fill="#FBC02D"/><path fill="#2D2E2E" d="M67.21 43.548H52.282v-2.077H67.21z"/><text font-family="LucidaGrande, Lucida Grande" font-size="4.816" letter-spacing="-.03" fill="#FFFFF6" transform="matrix(-1 0 0 1 116 35)"><tspan x="51.61" y="5.373">T</tspan> <tspan x="54.625" y="5.373" letter-spacing=".264">A</tspan> <tspan x="58.212" y="5.373" letter-spacing=".331">X</tspan> <tspan x="61.558" y="5.373">I</tspan></text><path d="M92.482 60.188h3.972c.929 0 1.682-.753 1.682-1.682v-3.072c0-.929-.753-1.682-1.682-1.682h-3.972c-.93 0-1.682.753-1.682 1.682v3.072c0 .93.753 1.682 1.682 1.682m19.229 8.838c2.31 0 4.183 3.62 4.183 8.085 0 4.466-1.873 8.086-4.183 8.086-2.31 0-4.182-3.62-4.182-8.086 0-4.465 1.872-8.085 4.182-8.085" fill="#212121"/><path fill="#212121" d="M111.711 85.197h-4.182l2.638-6.862z"/><path d="M103.671 77.111c0 4.466 1.872 8.086 4.183 8.086 2.31 0 4.182-3.62 4.182-8.086 0-4.465-1.872-8.085-4.182-8.085-2.31 0-4.183 3.62-4.183 8.085" fill="#424242"/><path d="M105.456 77.111c0 2.56 1.074 4.636 2.398 4.636s2.398-2.076 2.398-4.636-1.074-4.636-2.398-4.636-2.398 2.076-2.398 4.636" fill="#919191"/><path d="M107.854 69.026c.696 0 1.351.33 1.928.911.578-.581 1.234-.911 1.93-.911 2.31 0 4.182 3.62 4.182 8.085 0 4.466-1.873 8.086-4.183 8.086h-4.182l.01-.025c-2.163-.312-3.868-3.8-3.868-8.06 0-4.466 1.873-8.086 4.183-8.086" fill="#6A6A6A"/><path d="M45.36 69.026c2.31 0 4.183 3.62 4.183 8.085 0 4.466-1.874 8.086-4.183 8.086-2.31 0-4.184-3.62-4.184-8.086 0-4.465 1.873-8.085 4.184-8.085" fill="#212121"/><path fill="#212121" d="M45.36 85.197h-4.184l2.639-6.862z"/><path d="M37.32 77.111c0 4.466 1.872 8.086 4.182 8.086 2.31 0 4.183-3.62 4.183-8.086 0-4.465-1.873-8.085-4.183-8.085-2.31 0-4.183 3.62-4.183 8.085" fill="#424242"/><path d="M39.104 77.111c0 2.56 1.073 4.636 2.398 4.636 1.324 0 2.398-2.076 2.398-4.636s-1.074-4.636-2.398-4.636c-1.325 0-2.398 2.076-2.398 4.636" fill="#919191"/><path d="M41.502 69.026c.696 0 1.351.33 1.929.911.577-.581 1.233-.911 1.929-.911 2.31 0 4.183 3.62 4.183 8.085 0 4.466-1.874 8.086-4.183 8.086h-4.184l.01-.025c-2.162-.312-3.867-3.8-3.867-8.06 0-4.466 1.873-8.086 4.183-8.086" fill="#6A6A6A"/><path d="M60.822 71.61l-1.076-2.799h4.022c.094-.011.187-.02.282-.02 2.377 0 4.304 3.725 4.304 8.32 0 4.595-1.927 8.32-4.304 8.32h-4.304l1.08-2.81c-.671-1.467-1.08-3.396-1.08-5.51 0-2.11.407-4.034 1.076-5.5" fill="#212121"/><path d="M55.777 77.111c0 4.595 1.927 8.32 4.304 8.32 2.377 0 4.303-3.725 4.303-8.32 0-4.594-1.926-8.32-4.303-8.32s-4.304 3.726-4.304 8.32" fill="#424242"/><path d="M57.613 77.111c0 2.635 1.105 4.77 2.468 4.77 1.362 0 2.467-2.135 2.467-4.77 0-2.634-1.105-4.77-2.467-4.77-1.363 0-2.468 2.136-2.468 4.77" fill="#919191"/><path d="M13.96 71.61l-1.077-2.799h4.022c.094-.011.187-.02.282-.02 2.377 0 4.304 3.725 4.304 8.32 0 4.595-1.927 8.32-4.304 8.32h-4.304l1.08-2.81c-.671-1.467-1.08-3.396-1.08-5.51 0-2.11.407-4.034 1.076-5.5" fill="#212121"/><path d="M8.914 77.111c0 4.595 1.927 8.32 4.304 8.32 2.377 0 4.304-3.725 4.304-8.32 0-4.594-1.927-8.32-4.304-8.32-2.377 0-4.304 3.726-4.304 8.32" fill="#424242"/><path d="M10.75 77.111c0 2.635 1.105 4.77 2.468 4.77s2.467-2.135 2.467-4.77c0-2.634-1.104-4.77-2.467-4.77s-2.468 2.136-2.468 4.77" fill="#919191"/><path d="M4.2 62.165v13.829c0 1.729 1.4 3.128 3.131 3.128h.848v-.11c0-5.79 2.427-10.479 5.423-10.479 1.882 0 3.539 1.854 4.511 4.672.574 1.662.908 3.659.908 5.807v.11h35.872v-.11c0-4.154 1.249-7.74 3.06-9.434.713-.67 1.513-1.045 2.36-1.045.652 0 1.275.221 1.854.63 1.263.887 2.306 2.654 2.931 4.915.408 1.47.637 3.15.637 4.934v.11h8.055V43.28a23.956 23.956 0 0 0-1.84-.07H33.59a27.099 27.099 0 0 0-17.426 6.351 27.098 27.098 0 0 0-4.656 5.053c-.352.492-.736.955-1.158 1.388-.42.431-.873.83-1.36 1.194l-4.214 3.158a3.129 3.129 0 0 0-.576 1.81" fill="#FDD835"/><path d="M18.113 55.985v17.22c.574 1.662.908 3.659.908 5.807v.11h18.934v-33.2h-5.309c-5.317 1.264-10.228 4.294-14.061 8.774a1.956 1.956 0 0 0-.472 1.29" fill="#FBC02D"/><path d="M62.167 69.162c1.264.888 2.306 2.655 2.931 4.916h13.399a4.215 4.215 0 0 0 4.217-4.218.7.7 0 0 0-.698-.698H62.167z" fill="#F08526"/><path d="M52.541 43.21v.142c1.452.27 2.867.914 4.197 1.907 1.514 1.126 2.917 2.701 4.142 4.678l4.276 6.906.637 1.03 1.968 3.177c.373.6.582 1.437.582 2.317v12.57c0 1.76-.832 3.186-1.857 3.186h44.424a3.12 3.12 0 0 0 3.12-3.12v-3.82c0-.128-.003-.256-.005-.381a13.235 13.235 0 0 0-.335-2.64 13.547 13.547 0 0 0-2.273-4.957 13.94 13.94 0 0 0-7.647-5.228l-4.124-1.103-.224-.131c-5.007-3.254-8.43-6.66-13.32-10.077a24.6 24.6 0 0 0-4.305-2.407 24.708 24.708 0 0 0-9.844-2.05H52.54z" fill="#FFEE58"/><path d="M66.486 79.123h44.424a3.12 3.12 0 0 0 3.12-3.12v-3.82a13.23 13.23 0 0 0-.34-3.021 13.549 13.549 0 0 0-2.273-4.957H68.343v11.733c0 1.758-.832 3.185-1.857 3.185" fill="#FFF38A"/><path d="M58.427 45.258c-.557 0-.834.68-.431 1.064 1.037.988 2.007 2.198 2.885 3.615l3.314 5.352.648 1.047a3.245 3.245 0 0 0 2.76 1.539h32.044l-.226-.133c-5.005-3.253-8.428-6.658-13.319-10.077a24.663 24.663 0 0 0-4.306-2.407H58.427z" fill="#343536"/><path d="M97.03 57.21c.13 0 .181-.165.076-.24-1.958-1.39-3.714-2.808-5.427-4.19-1.855-1.496-3.773-3.044-5.957-4.57a24.119 24.119 0 0 0-2.642-1.603 6.008 6.008 0 0 0-2.78-.685H58.538c1.052 1.017 2.03 2.25 2.907 3.665l3.314 5.352.649 1.048a2.581 2.581 0 0 0 2.195 1.223h29.428z" fill="#616161"/><path d="M38.84 45.259v33.864h16.053v-.111c0-4.154 1.25-7.74 3.06-9.434V56.53c0-.032 0-.064-.004-.096a2.135 2.135 0 0 0-.025-.194c-.01-.036-.015-.068-.024-.1a1.516 1.516 0 0 0-.16-.375l-3.429-5.697c-1.813-3.012-4.788-4.808-7.963-4.808H38.84z" fill="#FBC02D"/><path d="M18.113 55.986c0 .966.667 1.888 1.668 1.888h36.977c.702 0 1.193-.649 1.193-1.346a1.45 1.45 0 0 0-.215-.764l-3.514-5.697c-1.858-3.012-4.907-4.81-8.163-4.81h-7.764c-1.914 0-3.805.227-5.648.665-5.318 1.263-10.23 4.295-14.064 8.775-.324.378-.47.837-.47 1.289" fill="#2D2E2E"/><path d="M18.702 55.986c0 .602.404 1.224 1.08 1.224h36.975c.374 0 .605-.354.605-.682a.718.718 0 0 0-.11-.384l-3.515-5.699c-1.747-2.833-4.617-4.523-7.677-4.523h-7.765c-.113 0-.225.001-.338.003-3.502.049-6.913.855-10.14 2.401-3.332 1.596-6.296 3.894-8.81 6.831a1.262 1.262 0 0 0-.305.829" fill="#595A59"/><path d="M104.825 69.728c0 .945.382 1.8 1 2.418a3.408 3.408 0 0 0 2.419 1.002h5.786V71.61a10.823 10.823 0 0 0-.275-2.447h-8.364a.566.566 0 0 0-.566.565m-36.481-.565v4.915h9.09a4.2 4.2 0 0 0 2.981-1.235 4.206 4.206 0 0 0 1.235-2.983.697.697 0 0 0-.697-.697H68.344z" fill="#F4A83F"/><path d="M37.957 45.925V57.21h1.767V45.922h-1.429c-.113 0-.226.001-.338.003m7.069 17.395h-5.302v-1.594h5.302zm-21.022 0h-5.302v-1.594h5.302z" fill="#2D2E2E"/><path fill="#F08526" d="M7.12 72.085H4.198v-5.844H7.12z"/><path d="M52.298 60.188h3.972c.93 0 1.682-.753 1.682-1.682v-3.072c0-.929-.753-1.682-1.682-1.682h-3.972c-.929 0-1.682.753-1.682 1.682v3.072c0 .93.753 1.682 1.682 1.682" fill="#212121"/></g></svg>