<svg width="120" height="120" viewBox="0 0 120 120" xmlns="http://www.w3.org/2000/svg" xmlns:xlink="http://www.w3.org/1999/xlink"><defs><path id="a" d="M0 108h63.069V0H0z"/><path id="c" d="M.065 0h27.297v43.25H.065z"/></defs><g fill="none" fill-rule="evenodd"><g transform="translate(28.44 6)"><path d="M31.331 75.532c-.37 0-.741.105-1.066.315L4.92 92.245a1.962 1.962 0 0 0-.896 1.647v2.19c0 1.085.878 1.963 1.962 1.963h50.69a1.962 1.962 0 0 0 1.963-1.962v-2.19c0-.666-.338-1.287-.897-1.648L32.397 75.847a1.96 1.96 0 0 0-1.066-.315m0 1.66c.04 0 .102.008.164.048l25.346 16.398a.303.303 0 0 1 .138.254v2.19a.303.303 0 0 1-.303.303H5.986a.303.303 0 0 1-.302-.302v-2.19a.3.3 0 0 1 .138-.255L31.167 77.24a.302.302 0 0 1 .164-.048" fill="#CCC"/><path d="M50.886 93.82h-39.11c-1.525 0-2.762-1.226-2.762-2.738 0-.93.475-1.795 1.262-2.3l19.554-12.54a2.784 2.784 0 0 1 3.002 0l19.555 12.54a2.733 2.733 0 0 1 1.262 2.3c0 1.512-1.237 2.738-2.763 2.738m6.856-1.575L32.397 75.847a1.962 1.962 0 0 0-2.132 0L4.92 92.245a1.962 1.962 0 0 0-.896 1.647v2.191c0 1.084.878 1.962 1.962 1.962h50.69a1.962 1.962 0 0 0 1.963-1.962v-2.19a1.96 1.96 0 0 0-.897-1.648" fill="#FFF"/><path d="M21.404 41.665a3.31 3.31 0 0 0 3.31 3.309v61.614h13.235V44.974a3.31 3.31 0 0 0 3.31-3.31H21.403z" fill="#D8D8D8"/><path d="M37.95 60.455h-1.37a1.69 1.69 0 0 0-1.69 1.69v2.46c0 .458.372.83.83.83h2.228" fill="#FFF"/><path d="M37.95 60.455h-1.37a1.69 1.69 0 0 0-1.69 1.69v2.46c0 .458.372.83.83.83h2.228" stroke="#FFF" stroke-width=".83"/><path d="M22.19 43.961h.144a3.297 3.297 0 0 0 2.379 1.013v61.614H31.9V44.974c.656 0 1.248-.39 1.67-1.013h.102" fill="#FFF"/><path d="M24.713 65.435h1.878a.83.83 0 0 0 .83-.83v-2.46a1.69 1.69 0 0 0-1.69-1.69h-1.018" stroke="#E6E6E6" stroke-width=".83"/><path d="M11.263 106.534l12.304.033.116-43.155a7.858 7.858 0 0 0-.83-3.537l-3.659-7.31c-.672-1.344-2.587-1.35-3.267-.01l-3.698 7.292a7.858 7.858 0 0 0-.85 3.532l-.116 43.155z" fill="#C4C4C4"/><path d="M38.947 106.609l12.304.033.117-43.155a7.858 7.858 0 0 0-.83-3.537l-3.66-7.311c-.672-1.343-2.587-1.349-3.267-.009l-3.698 7.291a7.858 7.858 0 0 0-.85 3.533l-.116 43.155z" fill="#F2F2F2"/><path d="M38.947 106.609l12.304.033.117-43.155a7.858 7.858 0 0 0-.83-3.537l-3.66-7.311c-.672-1.343-2.587-1.349-3.267-.009l-3.698 7.291a7.858 7.858 0 0 0-.85 3.533l-.116 43.155z" fill="#C4C4C4"/><path d="M39.064 63.454l-.117 43.155 7.822.02.116-43.153a11.681 11.681 0 0 0-.524-3.537s-1.432-4.481-2.123-6.605a.491.491 0 0 0-.903-.075c-1.085 2.087-3.422 6.662-3.422 6.662a7.858 7.858 0 0 0-.85 3.533" fill="#E6E6E6"/><path d="M11.38 63.454l-.117 43.155 7.821.02.117-43.153a11.685 11.685 0 0 0-.525-3.537s-1.432-4.481-2.122-6.605a.491.491 0 0 0-.903-.075c-1.085 2.087-3.422 6.662-3.422 6.662a7.858 7.858 0 0 0-.85 3.533" fill="#F2F2F2"/><path d="M11.38 63.454l-.117 43.155 7.821.02.117-43.153a11.685 11.685 0 0 0-.525-3.537s-1.432-4.481-2.122-6.605a.491.491 0 0 0-.903-.075c-1.085 2.087-3.422 6.662-3.422 6.662a7.858 7.858 0 0 0-.85 3.533" fill="#E6E6E6"/><path d="M24.76 103.112l-2.334-10.924c-.244-1.143-1.545-1.143-1.789 0l-1.665 7.79c-.395 1.85-2.5 1.85-2.896 0l-1.665-7.79c-.244-1.143-1.545-1.143-1.789 0l-2.334 10.924c-.412 1.93-.858 3.822.744 3.822h12.985c1.602 0 1.156-1.892.744-3.822" fill="#555"/><path d="M23.5 103.112l-1.93-10.924-.003-.012c-.079-.439-.818-.46-.922-.024a1.52 1.52 0 0 0-.008.036l-1.665 7.79a2.365 2.365 0 0 1-.09.315.315.315 0 0 0-.012.042l-1.075 5.035-.004.016c-.172.806.552 1.548 1.51 1.548h3.584c1.324 0 .956-1.892.615-3.822m-7.968 0l-1.93-10.924-.003-.012c-.079-.439-.818-.46-.922-.024a1.52 1.52 0 0 0-.008.036l-1.664 7.79a2.365 2.365 0 0 1-.09.315.335.335 0 0 0-.012.042l-1.076 5.035-.004.016c-.172.806.552 1.548 1.51 1.548h3.584c1.325 0 .956-1.892.615-3.822" fill="gray"/><path d="M52.445 103.112l-2.334-10.924c-.244-1.143-1.545-1.143-1.79 0l-1.664 7.79c-.396 1.85-2.501 1.85-2.896 0l-1.665-7.79c-.244-1.143-1.545-1.143-1.79 0l-2.334 10.924c-.412 1.93-.858 3.822.744 3.822h12.985c1.602 0 1.156-1.892.744-3.822" fill="#555"/><path d="M51.184 103.112l-1.93-10.924-.003-.012c-.079-.439-.818-.46-.922-.024a1.52 1.52 0 0 0-.007.036l-1.665 7.79a2.383 2.383 0 0 1-.09.315.316.316 0 0 0-.012.042l-1.076 5.035-.004.016c-.172.806.552 1.548 1.511 1.548h3.583c1.325 0 .956-1.892.615-3.822m-7.968 0l-1.93-10.924-.002-.012c-.08-.439-.819-.46-.922-.024a1.52 1.52 0 0 0-.008.036l-1.665 7.79a2.365 2.365 0 0 1-.09.315.315.315 0 0 0-.012.042l-1.076 5.035-.003.016c-.173.806.551 1.548 1.51 1.548h3.583c1.325 0 .956-1.892.615-3.822" fill="gray"/><path d="M23.682 64.107h-1.376a1.69 1.69 0 0 0-1.69 1.69v2.46c0 .458.37.83.83.83h2.222l.014-4.98zm27.686 0h-1.376a1.69 1.69 0 0 0-1.69 1.69v2.46c0 .458.371.83.83.83h2.222l.014-4.98zm-40.004 4.98h2.113a.83.83 0 0 0 .83-.83v-2.46a1.69 1.69 0 0 0-1.69-1.69h-1.24l-.013 4.98zm27.583 0h2.113a.83.83 0 0 0 .83-.83v-2.46a1.69 1.69 0 0 0-1.69-1.69h-1.24l-.013 4.98z" fill="#999"/><mask id="b" fill="#fff"><use xlink:href="#a"/></mask><path fill="#1A1A1A" mask="url(#b)" d="M.57 103.408h62.415v-1.871H.569z"/><path fill="#1A1A1A" mask="url(#b)" d="M39.756 108h1.633v-6.723h-1.633zm-4.336 0h1.633v-6.723H35.42zm-4.336 0h1.633v-6.723h-1.633zm-4.336 0h1.633v-6.723h-1.633zm-4.336 0h1.633v-6.723h-1.633zm-4.336 0h1.633v-6.723h-1.633zm-4.336 0h1.633v-6.723H13.74zm-4.336 0h1.633v-6.723H9.404zm-4.336 0h1.633v-6.723H5.068zm-4.336 0h1.633v-6.723H.732zm56.368 0h1.633v-6.723H57.1zm-4.336 0h1.633v-6.723h-1.633zm-4.336 0h1.633v-6.723h-1.633zm-4.336 0h1.633v-6.723h-1.633zm17.344 0h1.633v-6.723h-1.633z"/><path fill="#4D4D4D" mask="url(#b)" d="M39.187 108h1.633v-6.723h-1.633zm-4.337 0h1.634v-6.723H34.85zm-4.335 0h1.633v-6.723h-1.633zm-4.336 0h1.633v-6.723h-1.633zm-4.336 0h1.633v-6.723h-1.633zm-4.336 0h1.633v-6.723h-1.633zm-4.337 0h1.634v-6.723H13.17zm-4.335 0h1.633v-6.723H8.835zm-4.336 0h1.633v-6.723H4.499zm-4.336 0h1.633v-6.723H.163zm56.367 0h1.634v-6.723H56.53zm-4.335 0h1.633v-6.723h-1.633zm-4.336 0h1.633v-6.723h-1.633zm-4.336 0h1.633v-6.723h-1.633zm17.344 0H62.5v-6.723h-1.633z"/><path fill="#4D4D4D" mask="url(#b)" d="M0 102.696h62.662v-1.419H0z"/></g><path d="M60.637 80.409c.206-.32.326-.769.326-1.253 0-.788-.378-1.28-.992-1.28-.497 0-.813.366-.907 1.05l-.042.323c-.052.368-.168.536-.342.536-.233 0-.378-.242-.378-.704 0-.504.145-.797.316-1.02l-.507-.313c-.336.452-.397 1.007-.397 1.327 0 .891.417 1.408 1.01 1.408.53 0 .818-.4.915-1.075l.048-.32c.042-.284.104-.51.32-.51.22 0 .368.216.368.584 0 .384-.148.769-.265.956l.527.29zm.329 2.512c0-.439-.177-.756-.449-.969h.368v-.675H56.5v.675h1.66c-.271.213-.45.53-.45.97 0 .865.682 1.546 1.628 1.546.947 0 1.628-.681 1.628-1.547zm-.636-.08c0 .58-.449.933-.992.933-.542 0-.991-.352-.991-.934 0-.558.426-.933.991-.933.566 0 .992.375.992.933zm.555 5.434V87.6h-.374c.274-.213.455-.532.455-.972 0-.865-.681-1.546-1.628-1.546-.946 0-1.627.681-1.627 1.546 0 .44.177.76.452.972h-.371v.675h3.093zm-.555-1.566c0 .559-.426.933-.992.933-.565 0-.991-.374-.991-.933 0-.581.449-.933.991-.933.543 0 .992.352.992.933zm.636 4.031c0-.986-.7-1.628-1.628-1.628-.926 0-1.627.642-1.627 1.627 0 .462.168.876.494 1.157l.465-.417a1.127 1.127 0 0 1-.323-.759c0-.52.407-.914.991-.914.585 0 .992.394.992.914 0 .297-.116.527-.32.743l.462.433c.326-.275.494-.695.494-1.157zm0 3.164c0-.91-.659-1.54-1.628-1.54-.981 0-1.627.655-1.627 1.582 0 .468.113.895.436 1.273l.481-.336a1.478 1.478 0 0 1-.326-.895c0-.439.232-.83.788-.92v2.286c.077.007.164.013.252.013.965-.003 1.624-.597 1.624-1.463zm-.6-.013c0 .43-.281.71-.763.785v-1.605c.452.071.762.34.762.82z" stroke="#DA4241" stroke-width=".5"/><text font-family="MarkPro-Medium, Mark Pro" font-size="6.459" font-weight="400" fill="#DA4241" transform="translate(28.44 6)"><tspan x="29.352" y="89.294">X</tspan></text><path stroke="#DA4241" stroke-width=".5" d="M62.313 100.653v-.862l-1.647-1.114 1.647-1.105v-.881l-2.216 1.54-2.305-1.605v.86l1.74 1.178-1.74 1.169v.881l2.305-1.608z"/><g transform="translate(46.2 6)"><mask id="d" fill="#fff"><use xlink:href="#c"/></mask><path d="M27.362 37.804v-4.667a48.6 48.6 0 0 0-6.568-24.398l-4.063-7.001c-1.345-2.317-4.69-2.317-6.035 0L6.633 8.739A48.607 48.607 0 0 0 .065 33.137v4.667a5.445 5.445 0 0 0 5.446 5.446h16.405a5.445 5.445 0 0 0 5.446-5.446" fill="#D8D8D8" mask="url(#d)"/></g><path d="M62.55 46.945v-7.808c0-8.57-1.352-16.986-3.919-24.398l-1.127-3.258c-.408-1.176-2.008-1.33-2.633-.254l-2.038 3.512a48.606 48.606 0 0 0-6.559 23.51c-.003.296-.009.592-.009.888v4.673a5.44 5.44 0 0 0 5.44 5.44h9.47c.759 0 1.374-1.032 1.374-2.305" fill="#FFF"/></g></svg>