<svg width="91" height="79" viewBox="11 9 91 79" xmlns="http://www.w3.org/2000/svg"><path fill="#919191" stroke="#919191" stroke-width="2.953" d="M198.125 212.9c10.367 0 19.76 1.014 26.562 2.652 6.803 1.639 11.013 3.901 11.013 6.398s-4.21 4.759-11.013 6.398c-6.802 1.638-16.195 2.652-26.562 2.652s-19.76-1.014-26.562-2.652c-6.803-1.639-11.013-3.901-11.013-6.398s4.21-4.759 11.013-6.398c6.802-1.638 16.195-2.652 26.562-2.652z" transform="matrix(.71598 -.00307 -.00397 1.25608 -69.25 -203.8)"/><path fill="#A85B00" stroke-linecap="round" d="M65.844 17.812c11.62 4.717 21.23 11.256 27.37 18.01 6.139 6.756 8.41 12.78 6.543 19.304-2.539 8.853-10.04 17.193-18.765 20.782-9.696 4.278-21.794 4.663-32.03.91-11.901-4.367-23.421-12.839-29.8-23.693-5.686-9.304-7.314-22.21-3.643-32.188 2.346-6.368 9.035-8.718 18.145-9.284 9.11-.565 20.56 1.443 32.18 6.16z"/><path fill="#EF9300" stroke="#EAC28E" stroke-width="1.903" stroke-linecap="round" d="M65.996 17.892c11.072 4.494 20.382 10.35 26.478 16.179 6.096 5.83 8.979 11.633 7.197 16.023-1.782 4.39-7.894 6.543-16.328 6.475-8.435-.069-19.191-2.357-30.264-6.851-11.073-4.495-20.382-10.35-26.479-16.18-6.096-5.829-8.979-11.632-7.197-16.022 1.782-4.39 7.894-6.543 16.328-6.475 8.435.068 19.192 2.357 30.265 6.851z"/><path fill="none" stroke="#EAC28E" stroke-width="1.379" stroke-linecap="round" d="M63.493 17.59s-4.305 12.608-8.08 17.977C52.622 39.538 44.26 44.95 44.26 44.95m12.695-12.262l35.296 1.609"/><path fill="none" stroke="#EAC28E" stroke-width="1.379" stroke-linecap="round" d="M77.385 55.672L56.682 33.36 22.276 14.4M55.37 32.827l-29.11-.59m29.509 1.536L41.649 11.41m14.982 23.086l42.043 16.318"/></svg>