<svg xmlns="http://www.w3.org/2000/svg" width="185.871" height="39.952" viewBox="-0.611 -3.445 185.871 39.952"><defs><style/></defs><g id="ID0.22178661404177547" transform="translate(-.15 -.05) scale(.9025)"><path id="ID0.942875714506954" fill="#E3DEEE" d="M579.3 828.3c-2.2 11.9 20.2 26.7 73.1 29.3 46.1 2.3 134.6 5.6 170.5 3.3 35.9-2.3 90.1-7.9 83.4-31.7-4-14-35.6-12.5-53.5-8.1-19.6 4.8-31 9-31.8 8.3-1-.9-.1-8.6-17.6-5.8-18.9 3-46.9 15.1-52.9 17.4-29.7-14-73.6-50-95.6-40.7-14.4 6.1-7 25.6-9.3 27-2.3 1.4-22-8.4-38.7-9.3-13.6-.7-26.2 2.8-27.6 10.3z" transform="translate(-354.35 -488.75) scale(.61313)"/><path id="ID0.9047978580929339" fill="#FFF" stroke="#E3DEEE" d="M887.6 848.2c13.6-5.1 19.6-13.1 17.4-21.6-7.1-11.1-35.6-9.5-52.3-5.4-19.6 4.8-31 9-31.8 8.3-1-.9-.1-8.6-17.6-5.8-18.9 3-46.9 15.1-52.9 17.4 20.3 10.9 32.9 14 53.3 16.3 27.4 2.9 68.8-3.7 83.9-9.2z" transform="translate(-354.35 -488.75) scale(.61313)"/></g></svg>