<svg width="131" height="123" viewBox="0 0 131 123" xmlns="http://www.w3.org/2000/svg" xmlns:xlink="http://www.w3.org/1999/xlink"><defs><path id="a" d="M0 .165h15.522V79.5H0z"/><path id="c" d="M.462.465h20.67v78.9H.462z"/><path id="e" d="M0 116.935h64.632V0H0z"/></defs><g transform="translate(35 6)" fill="none" fill-rule="evenodd"><path d="M13.463 50.865s-5.365-.46-8.45 15.65c-3.085 16.11-1.37 32.78-1.37 32.78.4 1.87 3.86 13.105 5.14 14.57.44-3.565 1.235-8.115 3.46-11-1-3.275-.95-9.915 5.09-11.795 1.67-.5 6.045-.335 6.045-.335l5.12 1.425-5.22-21.475s-8.32-14.06-9.815-19.82" fill="#C8C8BE"/><path d="M29.343 94.705S7.843 82.965 5.407 71.79l2.5-6.76s3.46 12.855 8.82 18.77c2.875 3.17 12 9.5 12 9.5l.616 1.405zm-17.101 8.16s-7.86-10.15-8.635-18.175l.645 8.61a22.503 22.503 0 0 0 7.99 9.565" fill="#F0E6D2"/><g transform="translate(0 37.435)"><mask id="b" fill="#fff"><use xlink:href="#a"/></mask><path d="M6.492 13.2a51.538 51.538 0 0 0-3.23 7.93A84.402 84.402 0 0 0 .147 41c-1.15 23.45 4.735 36.38 6.885 38.5l.115-.08c-.165-.445-1.45-3.135-1.06-3.565.39-.43 1.95 2.8 2.28 2.565.33-.235-1.59-2.975-1.16-3.41.43-.435 1.325 1.565 1.575 1.41-3.345-9.855-3.875-19.79-2.55-30.08.675-5.28 1.035-10.365 2.55-15.5.665-2.255 1.255-4.47 2.12-6.67.54-1.39 1.605-3.08 1.65-4.585l2.97-19.42c-.245.21-4.9 4.56-9.03 13.035" fill="#828278" mask="url(#b)"/></g><path d="M59.628 66.88c.135-1.17-10.64-18.595-10.64-18.595L39.343 76.62l-6.366 17.9s8.915-4.9 13.24-2.45c4.326 2.45 2.32 8.175 2.32 8.175 1.81.843 3.35 2.17 4.45 3.835 1.126 1.655 1.69 4.96 2.365 6.365 1.625-2.265 4.185-4.945 4.65-7.69.615-3.6 0-7.805-.034-11.44-.076-5.21-.17-10.42-.255-15.63-.05-2.87-.415-5.94-.085-8.805" fill="#C8C8BE"/><path d="M32.778 94.85s24.28-14.09 22.79-35.44l3.445 10.975a57.89 57.89 0 0 1-17.67 20.05c-2.535 1.81-5.42 2.95-8.565 4.415m15.759 5.395s13.5-15.285 10.97-27.11l1.345 3.445s2.615 11.99-12.315 23.665" fill="#F0E6D2"/><g transform="translate(43.5 35.435)"><mask id="d" fill="#fff"><use xlink:href="#c"/></mask><path d="M18.802 29.6a57.814 57.814 0 0 0-5.715-14.19 57.51 57.51 0 0 0-7.42-9.87C4.813 4.595 1.727.415.462.465l3.885 15.65s3.64 6.415 4.65 8.68a67.313 67.313 0 0 1 4.595 15.055 65.18 65.18 0 0 1 .75 18.575c-.305 3-.79 6-1.235 9-.425 2.885-1.6 5.73-1.695 8.63.245.145 1.05-1.335 1.225-1.23.255.595-.65 2.81-.455 3.405.5-.225 1.17-1.915 1.87-1.685.656.56-.96 2.185-.935 2.82 2-.81 3.595-5.595 4.39-7.415 1.115-2.56 2.215-5.155 2.565-7.935 2.43-19.16.11-29.13-1.27-34.415" fill="#828278" mask="url(#d)"/></g><path d="M26.867 77.875l-10.425-5.5c.59 3.97 4.745 14.5 8.235 18.395 1.09 1.21 4.5 3.935 4.5 3.935s0 1.645-.055 3.44h.8c-.03-3.535.23-7.87.23-7.87s-2.81-10.875-3.285-12.4m7.931-.365c0 .15-2.795 13-2.795 13s-.105 6.235-.14 7.635h.88c0-.93.035-2.365.035-3.3.835-.24 4.1-2.245 6.5-5.975 2.175-3.36 5.21-11.675 5.41-14.865l-9.89 3.505z" fill="#3C3C32"/><path d="M21.193 2.82l-.345-.19v-.5c0-.47-.035-.94-.07-1.41a.67.67 0 0 1 .165-.645c.27.065.33.11.345.315 0 .38.025.76.03 1.14.005.38 0 .62 0 .925a1.82 1.82 0 0 1-.125.365m-.721.535l-.375-.11c-.04-.175-.065-.335-.105-.5-.125-.455-.245-.91-.38-1.365-.105-.345-.12-.34 0-.66.275 0 .345.03.405.23.1.365.195.735.285 1.105.09.37.135.6.185.905.01.132.006.264-.015.395m1.106-.205l.375-.11c.04-.175.065-.335.105-.5.125-.455.245-.91.385-1.36a.671.671 0 0 0 0-.665c-.275 0-.35.03-.405.23-.105.365-.2.735-.29 1.105-.09.37-.135.6-.185.905-.008.132-.003.264.015.395" fill="#64645A"/><path d="M14.842 50.245s-1.854-12.975-1.764-19.41c.08-5.295.905-10.5 1.854-15.71.61-3.35 2.22-12.46 6.41-13.24 4.856 2.08 5.436 15.645 5.666 19.89.305 5.54.585 19.68.175 25.185-2.56 1.12-12.34 3.285-12.34 3.285" fill="#64645A"/><path d="M16.548 41.63s-.5-12.595.575-22.46c.755-6.805 2.435-11.335 3.5-11.5 2.58-.385 3.335 10.54 3.5 13.305.2 3.605.265 15.14 0 18.725-1.7.73-7.575 1.93-7.575 1.93" fill="#3C3C32"/><path d="M39.003 2.745l-.345-.19v-.5c0-.47-.036-.945-.07-1.41A.67.67 0 0 1 38.753 0c.27.06.33.105.344.315.02.38.03.76.03 1.14v.925a1.884 1.884 0 0 1-.124.365m-.721.54l-.375-.11c-.04-.18-.065-.34-.105-.5-.125-.455-.245-.91-.38-1.36-.105-.345-.12-.34 0-.66.275 0 .345.03.405.225.105.37.195.735.285 1.105.09.37.135.605.185.91.01.13.005.261-.015.39m1.105-.205l.38-.11c.035-.175.06-.335.105-.5.12-.455.24-.91.38-1.36a.66.66 0 0 0 0-.66c-.275 0-.35.03-.405.23-.105.365-.199.73-.29 1.1-.09.37-.135.605-.185.91-.007.13-.002.261.015.39" fill="#64645A"/><path d="M48.767 56.405C46.503 53.27 35.032 45.84 34.317 45.07c-1.205-5.135-2.825-43.105 4.106-43.16 5.88-.045 6.7 11.075 7.544 14.955 1.22 5.585 3.02 32.75 2.8 39.54" fill="#64645A"/><path d="M44.923 48.245c-.14-10.2-.5-22.835-.95-26.36-.456-3.75-2.5-17.29-5.226-14.45-2.724 2.84-1.314 31.15-1.16 40.55l7.336.26z" fill="#3C3C32"/><path d="M49.932 48.245c-.395-4.39-2.335-9.31-5.58-12.395-4-3.77-9.34-5.788-14.835-5.605-8.24.195-11.045 1.875-15.24 7.94-3.86 5.59-2.61 15-2.215 21.425.42 6.85 3.86 16.03 9.71 20.035 6.11 4.185 15 4.835 20.61-.46 5.056-4.79 8.46-21.015 7.55-30.94" fill="#64645A"/><path d="M23.843 53.17c.05-.205 0-.385.8-.47 2.45-.255 7.45-.115 9.2-.16 1.75-.045 3.694.245 3.674.755-.02.51-.6.845-1.63.86-1.89.03-3.78.025-5.665 0a92.8 92.8 0 0 1-4.575-.13c-.48-.02-2.005-.01-1.804-.855" fill="#000"/><path d="M24.927 52.03s1.315 2.785 1.69 2.805c.375.02 1.72-2.805 1.72-2.805h-3.41zm6.416-.08s1.845 3.455 2.214 3.47c.37.015 1.78-3.32 1.78-3.32l-3.995-.15z" fill="#FFF"/><mask id="f" fill="#fff"><use xlink:href="#e"/></mask><path fill="#64645A" mask="url(#f)" d="M22.262 52.605h17.166V51.06H22.263z"/><path d="M37.403 42.59c-.965-2.54-2.535-2.43-5-2.755-2.415.125-5.655-.18-7.69 1.38-2.035 1.56-2.5 5-.5 6.655 2.35 1.965 9.735 2.68 12.5-.185 1.014-1.055 1.4-3.245.69-5.095" fill="#F01446" mask="url(#f)"/><path d="M34.782 42.275c1.31-.09 1.37 1.66 1.31 2.44-.06.78-.095 2.155-1.25 2.03-1.154-.125-1.35-1.35-1.279-2.06.07-.71-.096-2.315 1.22-2.41m-8.815 0c1.314-.09 1.375 1.66 1.314 2.44-.06.78-.095 2.155-1.25 2.03-1.154-.125-1.35-1.35-1.285-2.06.066-.71-.095-2.315 1.22-2.41" fill="#6E1E3C" mask="url(#f)"/><path d="M17.788 45.625a.545.545 0 0 1-.535-.5 5.433 5.433 0 0 1-.095-1.335c.03-.44.415-.61.81-.76.297.47.372 1.045.205 1.575-.05.38-.02.805-.385 1.02m25.624.15c-.68-.275-.59-.87-.57-1.425 0-.64.08-.71.69-.97a1.555 1.555 0 0 1-.12 2.395" fill="#000" mask="url(#f)"/></g></svg>