<svg width="120" height="120" viewBox="0 0 120 120" xmlns="http://www.w3.org/2000/svg" xmlns:xlink="http://www.w3.org/1999/xlink"><defs><path id="a" d="M1.505 1.941H6.92v103.822H1.505z"/></defs><g fill="none" fill-rule="evenodd"><g transform="translate(57.17 13.43)"><mask id="b" fill="#fff"><use xlink:href="#a"/></mask><path d="M4.695 105.359C2.11 71.325 2.767 36.99 6.908 3.115c.192-1.56-2.294-1.569-2.463 0C.78 37.138.495 71.313 3.851 105.359c.053.532.887.545.844 0" fill="#556982" mask="url(#b)"/></g><path d="M59.819 93.556c-.752.703-.783 1.669-.406 2.573a.744.744 0 0 1-.599-.323c-.71-1.05-.632-2.004.01-3.071.238-.394.873-.536 1.228-.24.626-2.881 2.18-5.725 4.793-6.68 3.303-1.21 5.622 2.034 5.162 5.066-.523 3.454-3.427 8.262-7.479 7.794-1.16-.135-2.36-1.097-2.96-2.222-1.462 1.114-4.132 1.204-5.924.44-3.596-1.529-6.097-5.389-6.02-9.302.091-4.564 3.714-5.518 7.114-2.98 3.18 2.372 5.049 6.68 4.064 10.595-.142.563-1.03.441-1.01-.137.079-2.418-.247-4.643-1.59-6.72-.654-1.01-1.508-1.94-2.499-2.63-1.28-.89-3.852-.768-4.387.755-.783 2.23.726 5.327 2.174 6.926.863.954 1.977 1.765 3.204 2.18 1.356.456 5.115.222 4.13-2.024h.995zm.045 0a13.021 13.021 0 0 0-.113 2.52c.315-.117.54-.418.393-.83l.086-1.69h-.366zm.528-.406l.02-.011c.446-.238.973.152.85.65-.823 3.3 2.5 3.973 4.561 1.789 1.43-1.518 2.982-4.473 2.357-6.566-1.155-3.856-4.74-.32-5.69 1.48-1.015 1.923-1.402 4.038-1.91 6.125-.116.474-.753.317-.796-.108a10.104 10.104 0 0 1-.02-.22c.772-.695 1.113-1.731.628-3.14zm-.81-19.021c.069.472-.61.69-.737.203-.701-2.73-1.61-5.723-3.044-8.168-1.538-2.622-4.796-4.037-6.615-.744-2.93 5.31 6.285 10.576 9.89 6.293.465-.554 1.32.044 1.159.675-.895 3.494-5.913 2.786-8.348 1.678-3.069-1.395-5.709-4.605-4.649-8.146.899-3.002 4.139-5.172 7.129-3.545 3.821 2.083 4.651 7.959 5.215 11.754zm3.26-58.294c.116.169-.043.346-.21.366-3.266.387-4.45-4.3-4.116-6.777.24-1.783 1.102-3.384 2.156-4.816 1.066-1.446 2.876-3.92 4.7-4.456 3.791-1.12 3.81 4.281 3.726 6.514-.075 2.085-.31 4.235-1.33 6.096-.431.79-2.6 3.96-3.803 3.185.714.46.25 1.538-.57 1.353-.138-.033-.278-.064-.417-.096-.246-.055-.53-.307-.567-.568-.23-1.608.744-1.596 1.963-2.371 2.713-1.725 3.842-6.614 3.146-9.661-.262-1.151-1.422-2.457-2.622-1.99-.463.182-1.047 1.022-1.39 1.384-1.15 1.21-2.202 2.516-2.802 4.088-1.279 3.35.379 5.178 2.136 7.75zm-1.661 16.8c-.122.313-.51.307-.635 0-.854-2.148-.893-4.412-2-6.533-1.04-1.992-2.948-4.721-5.531-4.522-4.99.389-.81 5.91 1.045 7.263 1.853 1.349 4.015 2.03 6.289 2.142 1.076.053 1.08 1.725 0 1.676-3.73-.173-7.29-1.755-9.66-4.702-1.622-2.02-2.706-5.24-.322-7.143 5.91-4.717 12.736 6.858 10.814 11.819zm-2.137 19.9c-.088.365-.607.259-.625-.085-.152-2.758-.523-5.351-2.046-7.74-.972-1.528-2.841-2.824-4.645-1.744-1.003.6-1.798 1.67-2.15 2.782-.795 2.502.457 5.038 2.682 6.306 2.069 1.18 5.8 1.21 6.338-1.707.18-.964 1.654-.555 1.47.407-.648 3.431-4.781 4.212-7.606 3.05-3.191-1.313-5.305-4.718-4.357-8.153.798-2.896 4.355-6.073 7.4-4.062 3.174 2.095 4.376 7.485 3.539 10.947zm.935 2.362c-.167.427-.783.267-.692-.191.556-2.768 1.59-5.241 3.27-7.52.894-1.21 2.305-3.439 4.01-3.579 3.502-.289 4.509 5.504 4.228 7.898-.417 3.547-3.014 8.003-6.944 8.357-3.111.28-5.607-2.91-4.08-5.74.523-.968 2.022-.097 1.477.863-.397 2.501.683 3.547 3.242 3.134a5.51 5.51 0 0 0 2.266-1.483c.828-.801 1.395-1.763 1.83-2.815.808-1.94 1.038-4.098.273-6.091a4.087 4.087 0 0 0-.598-1.23c-1.237-1.268-2.225-1.34-2.97-.212-.872.555-1.781 2.044-2.304 2.802-1.243 1.809-2.217 3.767-3.008 5.807zm.56 24.56c-.049.524-.787.534-.82 0-.29-4.553 1.113-10.197 4.829-13.244 2.977-2.44 6.102.651 6.095 3.846-.008 3.95-2.936 7.892-6.654 9.167-1.377.472-3.171.614-4.168-.673-.793-1.025-.671-2.31.242-3.157.681-.63 1.953.238 1.342 1.037.65 1.339 1.508 1.624 2.577.853.45-.216.88-.468 1.288-.753a8.836 8.836 0 0 0 2.251-2.357c1.089-1.676 2.756-7.23-.937-6.68-2.095.314-3.287 2.98-4.141 4.805-1.042 2.219-1.676 4.724-1.904 7.157zm1.058-43.947c-.297.313-.91-.009-.753-.44.92-2.53 2.583-4.879 3.997-7.163.85-1.37 1.804-2.876 3.343-3.545 3.003-1.31 5.252.97 4.97 3.958-.32 3.352-1.477 7.657-4.951 9.012-2.567.999-6.533-.88-5.604-4.035.206-.7 1.347-.783 1.503 0 .818 4.037 4.735 2.733 6.15-.147.51-1.033.766-2.202.99-3.325a18.76 18.76 0 0 0 .302-1.84c.194-.77-.168-1.264-1.084-1.488-.557-.9-1.21-1.057-1.962-.471a5.647 5.647 0 0 0-1.552 1.57c-.614.838-1.133 1.76-1.692 2.634-1.145 1.796-2.187 3.73-3.657 5.28z" fill="#556982"/><path d="M63.364 7.372c.034-.322.53-.334.51 0-.163 2.813-.17 5.63-.374 8.448-.053.757-1.249.749-1.178 0 .273-2.833.734-5.63 1.042-8.448zm-2.258 22.95c.633.429.027 1.466-.6 1.027-2.603-1.819-5.131-3.84-7.04-6.399-.26-.348.277-.68.564-.433 2.327 1.995 4.534 4.07 7.076 5.805zm8.264-.333c.529-.149 1.01.58.56.962-1.756 1.497-4.955 2.243-7.217 1.952-.444-.057-.61-.697-.114-.83 1.145-.298 2.319-.467 3.456-.8 1.147-.336 2.176-.963 3.315-1.284zM65.616 52.45c.431.218.12.966-.332.783-1.804-.73-3.366-.081-5.178.149-.956.122-1.617-.466-1.202-1.406a.466.466 0 0 1 .26-.238c-.038-.002-.073.004-.116-.004-2.794-.626-5.391-2.011-7.712-3.649-.431-.303-.051-.99.419-.718 2.42 1.404 4.963 2.378 7.572 3.354.484.183.45.771.102.964.118 0 .236.017.333.066.03.016.061.03.094.046.185.09.299.37.23.564.274-.763 2.202-.651 2.906-.61a6.55 6.55 0 0 1 2.624.7zm-5.528 19.503c.675.362.07 1.403-.6 1.027a8870.392 8870.392 0 0 1-8.532-4.782c-.572-.319-.063-1.18.508-.872l8.624 4.627zm5.993-.446c.53-.24 1 .52.465.795-1.098.562-2.005 1.29-2.928 2.1-.81.71-1.514 1.576-2.382 2.202-.608.44-1.312-.399-.98-.98 1.167-2.049 3.779-3.194 5.825-4.117zm-6.8 21.953c.343.297-.097.801-.465.602-2.709-1.458-5.196-3.586-7.719-5.353-.38-.267-.022-.895.369-.63 2.577 1.754 5.463 3.34 7.816 5.38zm6.246-2.337c.49-.191.813.612.353.842-1.096.547-2.129 1.308-3.077 2.08-.675.556-1.413 1.77-2.361 1.66-.208-.024-.468-.14-.5-.38-.16-1.157 1.136-1.822 1.98-2.418 1.125-.797 2.333-1.286 3.605-1.784z" fill="#556982"/></g></svg>