<svg width="480" height="360" viewBox="0 0 480 360" xmlns="http://www.w3.org/2000/svg"><g fill="none" fill-rule="evenodd"><path fill="#F7D8CA" d="M0 309.755h480V-1H0z"/><path fill="#E6C0AF" d="M0 362h480V238.593H0z"/><path fill="#21A58D" d="M256.13 284.5h68.359v-76.594H256.13z"/><path fill="#423E35" d="M111.539 209.096h220.6v-5.744h-220.6z"/><path fill="#F1A51C" d="M259.276 224.379h62.068v-12.556h-62.068z"/><path fill="#B8D8D5" d="M259.276 274.29h62.068v-41.883h-62.068z"/><path fill="#DDF0EE" d="M259.276 274.29l62.067-41.883h-62.067z"/><path fill="#BA3902" d="M221.952 284.5h34.18v-75.403h-34.18z"/><path fill="#E69D2A" d="M119.415 234.23h68.358v-25.134h-68.358z"/><path fill="#BA3902" d="M187.773 284.5h34.179v-75.403h-34.18z"/><path d="M229.047 219.576a2.854 2.854 0 0 0 2.847-2.85c0-1.57-1.278-2.85-2.847-2.85a2.854 2.854 0 0 0-2.846 2.85 2.854 2.854 0 0 0 2.846 2.85m-14.017 0a2.854 2.854 0 0 0 2.848-2.85c0-1.57-1.279-2.85-2.847-2.85a2.854 2.854 0 0 0-2.847 2.85 2.855 2.855 0 0 0 2.847 2.85" fill="#FFF"/><path d="M313.764 241.235h-46.909a2.16 2.16 0 0 1-2.153-2.155 2.16 2.16 0 0 1 2.153-2.156h46.909a2.16 2.16 0 0 1 2.153 2.156 2.16 2.16 0 0 1-2.153 2.155" fill="#423E35"/><path d="M314.736 221.4a3.34 3.34 0 0 0 3.333-3.336 3.341 3.341 0 0 0-3.333-3.338 3.341 3.341 0 0 0-3.333 3.338 3.34 3.34 0 0 0 3.333 3.336m-10.206 0a3.34 3.34 0 0 0 3.333-3.336 3.341 3.341 0 0 0-3.333-3.338 3.341 3.341 0 0 0-3.333 3.338 3.34 3.34 0 0 0 3.333 3.336m-10.206 0a3.34 3.34 0 0 0 3.333-3.336 3.341 3.341 0 0 0-3.333-3.338 3.342 3.342 0 0 0-3.334 3.338 3.341 3.341 0 0 0 3.334 3.336m-10.207 0a3.341 3.341 0 0 0 3.334-3.336 3.342 3.342 0 0 0-3.334-3.338 3.341 3.341 0 0 0-3.333 3.338 3.34 3.34 0 0 0 3.333 3.336m-16.979 0a3.34 3.34 0 0 0 3.333-3.336 3.341 3.341 0 0 0-3.333-3.338 3.341 3.341 0 0 0-3.333 3.338 3.34 3.34 0 0 0 3.333 3.336" fill="#21A58D"/><path d="M153.594 219.576a2.854 2.854 0 0 0 2.846-2.85c0-1.57-1.278-2.85-2.846-2.85a2.854 2.854 0 0 0-2.847 2.85 2.854 2.854 0 0 0 2.847 2.85" fill="#FFF"/><path fill="#E69D2A" d="M119.415 259.365h68.358V234.23h-68.358z"/><path d="M153.594 244.71a2.854 2.854 0 0 0 2.846-2.85c0-1.57-1.278-2.85-2.846-2.85a2.854 2.854 0 0 0-2.847 2.85 2.854 2.854 0 0 0 2.847 2.85" fill="#FFF"/><path fill="#E69D2A" d="M119.415 284.5h68.358v-25.135h-68.358z"/><path d="M153.594 269.844a2.854 2.854 0 0 0 2.846-2.85c0-1.57-1.278-2.85-2.846-2.85a2.854 2.854 0 0 0-2.847 2.85c0 1.57 1.278 2.85 2.847 2.85" fill="#FFF"/><path d="M153.594 269.844a2.854 2.854 0 0 0 2.846-2.85c0-1.57-1.278-2.85-2.846-2.85a2.854 2.854 0 0 0-2.847 2.85c0 1.57 1.278 2.85 2.847 2.85z" stroke="#3B2F1F" stroke-width=".5"/><path fill="#423E35" d="M128.647 294.08h186.381v-9.58H128.647z"/><path fill="#423E35" d="M255.608 290.244h1.045v-86.892h-1.045zm68.358-5.744h1.046v-81.148h-1.046zm-102.537 5.744h1.046v-86.892h-1.046zm-34.179 0h1.045v-86.892h-1.045zm-68.358-5.744h1.045v-81.148h-1.045z"/><path fill="#423E35" d="M118.892 234.754h69.403v-1.047h-69.403zm0 25.135h69.403v-1.047h-69.403z"/><path fill="#F1A51C" d="M314.143 218.063h.987v-3.91h-.987zm-10.107 0h.987v-3.91h-.987zm-10.206 0h.987v-3.91h-.987zm-10.207 0h.988v-3.91h-.988zm-16.978 0h.987v-3.91h-.987z"/><path d="M269.239 185.364h8.269c.787 0 1.432.644 1.432 1.431v.001c0 .789-.645 1.433-1.432 1.433h-8.27a1.436 1.436 0 0 1-1.43-1.433c0-.788.644-1.432 1.43-1.432m33.872 0h8.27c.788 0 1.432.644 1.432 1.431v.001c0 .789-.644 1.433-1.431 1.433h-8.27c-.787 0-1.43-.644-1.43-1.433 0-.788.643-1.432 1.43-1.432" fill="#BA3902"/><path d="M307.246 183.453v17.193a2.712 2.712 0 0 1-2.704 2.706h-28.465a2.712 2.712 0 0 1-2.704-2.706v-17.193h33.873zm-16.936-2.388a2.71 2.71 0 0 0 2.703-2.706 2.71 2.71 0 0 0-2.703-2.706 2.709 2.709 0 0 0-2.703 2.706 2.71 2.71 0 0 0 2.703 2.706" fill="#BA3902"/><path d="M290.31 178.359c9.354 0 16.935 2.281 16.935 5.094h-33.872c0-2.813 7.583-5.094 16.937-5.094" fill="#21A58D"/><path d="M278.462 201.39h-1.632a1.553 1.553 0 0 1-1.548-1.55v-14.464h3.18v16.014z" fill="#E05E26"/><path d="M199.02 175.946c-1.069 2.434-2.631 4.36-4.48 5.476h-7.41c-1.85-1.116-3.412-3.042-4.48-5.476h16.37z" fill="#E69D2A"/><path d="M193.852 177.184a7.24 7.24 0 0 1-3.338 2.743h-2.492a7.24 7.24 0 0 1-3.337-2.743h9.167z" fill="#FAC269"/><path d="M199.02 178.927c-1.069 2.433-2.631 4.36-4.48 5.476h-7.41c-1.85-1.116-3.412-3.043-4.48-5.476h16.37z" fill="#BA3902"/><path d="M193.852 180.164a7.233 7.233 0 0 1-3.338 2.743h-2.492a7.235 7.235 0 0 1-3.337-2.743h9.167z" fill="#E05E26"/><path d="M199.02 182.046c-1.069 2.433-2.631 4.36-4.48 5.475h-7.41c-1.85-1.115-3.412-3.042-4.48-5.475h16.37z" fill="#21A58D"/><path d="M193.852 183.283a7.233 7.233 0 0 1-3.338 2.743h-2.492a7.235 7.235 0 0 1-3.337-2.743h9.167z" fill="#44C7AF"/><path d="M204.438 185.019c-1.776 3.492-4.372 6.256-7.445 7.858h-12.317c-3.073-1.602-5.67-4.366-7.445-7.858h27.207z" fill="#E69D2A"/><path d="M195.85 186.795c-1.324 1.75-3.258 3.134-5.548 3.936h-4.141c-2.29-.802-4.225-2.187-5.548-3.936h15.237z" fill="#FAC269"/><path d="M204.438 190.237c-1.776 3.493-4.372 6.257-7.445 7.858h-12.317c-3.073-1.601-5.67-4.365-7.445-7.858h27.207z" fill="#BA3902"/><path d="M195.85 192.013c-1.324 1.75-3.258 3.134-5.548 3.936h-4.141c-2.29-.802-4.225-2.186-5.548-3.936h15.237z" fill="#E05E26"/><path d="M209.235 196.446c-2.4 1.876-5.913 3.361-10.07 4.222h-16.661c-4.158-.86-7.668-2.346-10.07-4.222h36.801z" fill="#21A58D"/><path d="M197.618 197.4c-1.79.94-4.406 1.684-7.504 2.115h-5.602c-3.097-.431-5.713-1.175-7.503-2.115h20.609z" fill="#44C7AF"/><path d="M209.235 199.13c-2.4 1.876-5.913 3.362-10.07 4.222h-16.661c-4.158-.86-7.668-2.346-10.07-4.222h36.801z" fill="#E69D2A"/><path d="M197.618 200.084c-1.79.94-4.406 1.684-7.504 2.115h-5.602c-3.097-.431-5.713-1.175-7.503-2.115h20.609z" fill="#FAC269"/><path d="M240.49 191.74c0 5.054-2.864 9.437-7.055 11.612H221.43a13.07 13.07 0 0 1-7.056-11.611h26.118z" fill="#21A58D"/><path d="M231.233 193.795a8.448 8.448 0 0 1-4.558 7.504h-4.176a8.448 8.448 0 0 1-4.558-7.504h13.292z" fill="#44C7AF"/><path d="M214.417 192.807h26.03a13.07 13.07 0 0 1-.312 1.976H214.73a13.07 13.07 0 0 1-.313-1.976" fill="#F1A51C"/><path d="M231.176 194.783h-13.178a8.766 8.766 0 0 1-.058-.988h13.293c0 .334-.02.664-.057.988" fill="#FFC863"/><path d="M139.844 203.352c7.942 0 14.421-6.485 14.421-14.437 0-7.952-6.479-14.437-14.421-14.437-7.943 0-14.422 6.485-14.422 14.437 0 7.952 6.479 14.437 14.422 14.437" fill="#21A58D"/><path d="M139.843 198.179c5.097 0 9.254-4.162 9.254-9.264 0-5.102-4.157-9.264-9.254-9.264-5.096 0-9.253 4.162-9.253 9.264 0 5.102 4.157 9.264 9.253 9.264" fill="#44C7AF"/><path d="M139.475 197.045a8.82 8.82 0 0 1-4.005-.955c.873.233 1.79.359 2.737.359 4.755 0 8.776-3.145 10.1-7.47-.41 4.522-4.207 8.066-8.832 8.066" fill="#6CE6D0"/><path d="M139.45 187.574l2.737 4.545a.838.838 0 0 1-.283 1.147l-7.525 4.54a.836.836 0 0 1-1.145-.284l-2.737-4.544 8.953-5.404z" fill="#E69D2A"/><path d="M134.698 196.907l-.432.26a.478.478 0 0 1-.656-.162l-2.303-3.824.842-.507 2.549 4.233z" fill="#FAC269"/><path d="M140.685 187.88c.275-.165.584-.23.89-.206v.656a.793.793 0 0 0-.561.095c-.426.257-.52.883-.21 1.398.188.31.477.508.771.562v.656a1.765 1.765 0 0 1-1.353-.867c-.492-.817-.284-1.843.463-2.294zm.89-.206a1.768 1.768 0 0 1 1.353.867c.491.816.284 1.843-.463 2.294-.275.165-.584.23-.89.206v-.656a.793.793 0 0 0 .561-.095c.425-.257.52-.883.21-1.397a1.171 1.171 0 0 0-.77-.563v-.656z" fill="#F1A51C"/><path d="M141.127 193.696v5.307c0 .46-.375.836-.835.836h-8.785a.837.837 0 0 1-.835-.836v-5.307h10.455z" fill="#BA3902"/><path d="M132.243 199.233h-.504a.48.48 0 0 1-.478-.479v-4.464h.982v4.943z" fill="#E05E26"/><path d="M142.027 198.047c-.872 0-1.58-.772-1.58-1.725 0-.953.708-1.725 1.58-1.725v.636c-.497 0-.9.488-.9 1.089 0 .6.403 1.09.9 1.09v.635zm0-3.45c.872 0 1.58.772 1.58 1.725 0 .953-.708 1.725-1.58 1.725v-.636c.497 0 .899-.488.899-1.09 0-.6-.402-1.088-.9-1.088v-.636z" fill="#BA3902"/><path d="M144.994 199.304c-1.188.927-2.923 1.661-4.977 2.086h-8.234c-2.054-.425-3.79-1.159-4.977-2.086h18.188z" fill="#E69D2A"/><path d="M139.252 199.776c-.884.464-2.178.832-3.708 1.045h-2.769c-1.53-.213-2.823-.581-3.708-1.045h10.185z" fill="#FAC269"/><path d="M144.994 201.266c-1.188.927-2.923 1.661-4.977 2.086h-8.234c-2.054-.425-3.79-1.159-4.977-2.086h18.188z" fill="#BA3902"/><path d="M139.252 201.737c-.884.464-2.178.833-3.708 1.046h-2.769c-1.53-.213-2.823-.582-3.708-1.046h10.185z" fill="#E05E26"/><path d="M139.844 175.901c2.112 0 4.107.505 5.87 1.4a15.47 15.47 0 0 0-4.012-.527c-6.97 0-12.862 4.61-14.805 10.949.603-6.628 6.168-11.822 12.947-11.822" fill="#44C7AF"/><path d="M157.051 203.352c6.187 0 11.234-5.052 11.234-11.246 0-6.193-5.047-11.245-11.234-11.245-6.188 0-11.234 5.052-11.234 11.245 0 6.194 5.046 11.246 11.234 11.246" fill="#BA3902"/><path d="M157.051 199.322c3.97 0 7.208-3.241 7.208-7.215 0-3.975-3.238-7.216-7.208-7.216s-7.208 3.241-7.208 7.216c0 3.974 3.239 7.215 7.208 7.215" fill="#E05E26"/><path d="M156.764 198.439a6.871 6.871 0 0 1-3.12-.744 8.24 8.24 0 0 0 2.133.28c3.703 0 6.835-2.45 7.867-5.82a6.913 6.913 0 0 1-6.88 6.284" fill="#ED8153"/><path d="M157.051 181.97c1.645 0 3.199.393 4.573 1.09a12.074 12.074 0 0 0-3.126-.41c-5.428 0-10.018 3.59-11.53 8.528.468-5.163 4.803-9.208 10.083-9.208" fill="#E05E26"/><path fill="#21A58D" d="M412.116 75.11h41.476V-.291h-41.476z"/><path fill="#BA3902" d="M453.592 75.11h26.351V-.291h-26.35z"/><path fill="#F1A51C" d="M368.504 75.111h43.612V-.292h-43.612z"/><path fill="#BA3902" d="M356.653 97.373h67.314l-11.852-22.262h-43.61z"/><path fill="#423E35" d="M453.07 75.11h1.046V-.291h-1.045zm-41.478 0h1.045V-.291h-1.045z"/><path fill="#B8D8D5" d="M458.271 61.994h21.672V3.62h-21.672z"/><path fill="#DDF0EE" d="M458.27 61.994V3.62h21.673v18.987z"/><path d="M377.274 86.423a2.848 2.848 0 0 1 2.846 2.85 2.848 2.848 0 0 1-2.846 2.85 2.848 2.848 0 0 1-2.847-2.85 2.848 2.848 0 0 1 2.847-2.85m14.016 0a2.848 2.848 0 0 1 2.846 2.85 2.848 2.848 0 0 1-2.846 2.85 2.848 2.848 0 0 1-2.848-2.85 2.848 2.848 0 0 1 2.848-2.85" fill="#FFF"/><path d="M454.804 123.396h25.14v161.756h-38.837V137.107c0-7.541 6.164-13.711 13.697-13.711" fill="#BA3902"/><path fill="#423E35" d="M449.829 284.873h-8.722v9.207h2.996z"/><path fill="#E05E26" d="M441.107 166.365h38.836v-2.651h-38.836z"/><path d="M469.757 182.411H447.71a2.16 2.16 0 0 1-2.153-2.156 2.16 2.16 0 0 1 2.153-2.155h22.048a2.16 2.16 0 0 1 2.153 2.155 2.16 2.16 0 0 1-2.153 2.156" fill="#423E35"/><path d="M448.196 276.99h5.673v-91.746h-5.673v91.745zm0-101.723h5.673v-4.373h-5.673v4.373zm5.479-46.395h5.673c-3.014 0-5.48 3.779-5.48 6.794v23.52h-5.672v-23.52c0-3.016 2.466-6.794 5.479-6.794z" fill="#E05E26"/></g></svg>