<svg width="120" height="120" viewBox="0 0 120 120" xmlns="http://www.w3.org/2000/svg"><g fill="none" fill-rule="evenodd"><path d="M120.039 74.186c2.528 4.546-49.62 62.375-96.814 17.755-42.976-40.6-11.33-89.482-6.08-88.936.393.041.89.157 1.471.357l-.085.234S-7.212 42.513 25.607 79.05c13.13 14.636 32.44 18.785 49.92 15.531 23.14-4.301 43.126-20.988 43.126-20.988l.474-.426c.484.46.785.8.912 1.02" fill="#2D9D58"/><path d="M119.127 73.167l-.472.426S98.666 90.28 75.526 94.581c-17.477 3.254-36.787-.895-49.918-15.53C-7.212 42.512 18.53 3.595 18.53 3.595l.086-.234c15.13 5.064 91.09 60.64 100.511 69.805" fill="#AAD654"/><path d="M45.078 25.251c-1.035-2.39-22.68-14.328-24.982-11.419-2.485 3.143-5.138 21.14-2.199 20.016 9.086-3.476 27.63-7.557 27.181-8.597m8.841 6.511c-5.042-3.822-35.658 5.816-36.844 8.957-1.188 3.143.834 21.618 4.143 19.029 20.61-16.124 34.564-26.571 32.701-27.986m4.733 7.087c-1.73-1.105-36.136 24.59-35.097 27.662 2.943 8.716 18.137 17.092 20.539 16.742 2.406-.347 16.389-43.236 14.558-44.404m9.02 5.411c-2.559-.013-14.303 40.759-10.611 43.158 4.835 3.143 18.185 4.058 21.409.193 3.221-3.864-8.187-43.341-10.798-43.352m14.614 6.879c-2.902.275.385 16.18 2.795 31.075.49 3.037 19.704-8.77 19.235-11.942-.466-3.172-17.909-19.522-22.03-19.133" fill="#D4F277"/><path d="M8.403 51.406c-1.194-1.796-3.783-1.074-4.87.424-.94 1.305.808 2.468 1.957 1.96-.144.072-.073.089.216.05.323.012.728-.104 1.055-.151.728-.104 1.235-.387 1.642-1.005.233-.355.236-.923 0-1.278m.526 8.696c-.46.206-.913.447-1.381.636-.964.385-.976 1.596 0 1.98.98.385 1.932.525 2.86-.08 1.608-1.054.221-3.298-1.48-2.536m6.532 11.724c-.236-.503-.854-.646-1.347-.548a1.83 1.83 0 0 0-1.387 1.309c-.108.428-.262 1.062-.64 1.345-.342.253-.462.846 0 1.072 1.846.91 4.279-1.253 3.374-3.178m6.044 9.338c-.903.666-1.652 1.584-2.221 2.552-.462.785.43 1.541 1.173 1.178 1.335-.654 2.537-1.092 2.7-2.782.075-.791-1.008-1.423-1.652-.948m7.742 8.038c-.56.836-.785 1.79-1.062 2.742-.008.002-.016.002-.024.002-.295-.008-.498.41-.252.611 1.883 1.548 3.29-1.129 3.382-2.8.063-1.162-1.474-1.403-2.044-.555m11.598 7.416c-.265-1.033-1.664-.925-1.98 0-.439 1.31-.188 2.506-.288 3.84-.018.241.29.331.445.186 1.192-1.11 2.268-2.273 1.823-4.026m9.46 3.012c-2.038.843-2.567 3.691-2.1 5.638.194.823 1.382.772 1.608 0 .216-.746.537-1.452.77-2.185.281-.887.849-1.67.808-2.624-.02-.501-.543-1.054-1.086-.83m13.234 1.711c-.053-.587-.36-1.105-.962-1.268a1.26 1.26 0 0 0-.695 0c-.598.163-.918.68-.964 1.268-.122 1.478.132 2.75 1.145 3.871.518.575 1.735.163 1.627-.676-.134-1.058-.051-2.133-.15-3.195m11.154-2.41c-.096 1.484.108 2.872.344 4.331.148.916 1.69.916 1.838 0 .236-1.46.44-2.847.344-4.331-.106-1.631-2.42-1.631-2.526 0m16.51-2.968c-.338-1.422-.218-2.97-.997-4.26a1.203 1.203 0 0 0-2.058 0c-.964 1.602-.63 3.453.02 5.098.732 1.855 3.51 1.183 3.035-.838m6.173-4.973c-.07.764.197 1.4.451 2.105.358.997 1.662.997 2.022 0 .254-.705.52-1.34.45-2.105-.17-1.886-2.754-1.886-2.923 0M5.652 39.422c-.562.157-1.066.44-1.227 1.054.167-.642-.337.459-.368.67-.071.48.191.924.712.938.148.004.287 0 .43-.004.14.067.27.145.453.17 2.522.356 2.18-3.435 0-2.828m.135-7.594c-1.751 0-1.751 2.723 0 2.723s1.751-2.723 0-2.723" fill="#217B44"/><path d="M65.525 35.919c-2.105-1.484-4.463-3.867-7.023-4.483-1.146-.275-1.95.883-1.455 1.894 1.07 2.179 3.66 3.818 5.455 5.355 1.776 1.52 4.56 4.774 7.147 3.765.503-.198.812-.553.84-1.107.14-2.593-3.136-4.136-4.964-5.424m10.955 9.185l-.085-.059c-.002-.008-.006-.016-.008-.026-.403-1.431-2.498-1.443-2.896 0-.21.766-.315 1.49.091 2.216.606 1.076 1.945 1.119 2.899.538 1.035-.632.951-2.02 0-2.669M27.975 23.351c-1.072-.395-2.142.243-3.09.718-.32.16-.66.259-.962.458-.075.051-.783.708-.447.626-.332.082-.366.526-.118.705.287.681 1.298.79 1.924.804 1.442.032 3.02-.314 3.541-1.813.232-.666-.26-1.282-.848-1.498m6.139-2.176c-1.027-.261-2.233-.035-3.093.623l-.134.025c-1.162.202-1.168 2.15 0 2.348l-.127-.112a1.5 1.5 0 0 0 .665.385c.391.106.784.16 1.184.21 1.003.129 1.92-.644 2.317-1.48.366-.77.093-1.77-.812-2m-9.631-2.308c-1.332.587-.356 2.585.956 2.271 1.113-.267 3.124-.593 3.124-2.09 0-2.368-3.122-.603-4.08-.18m4.551 27.841c-.255-.89-1.743-.91-2.372-.453-.931.683-1.745 1.503-2.687 2.17-1.078.762-.455 2.77.954 2.27 1.613-.57 4.75-1.722 4.105-3.987m6.588-3.991a1.755 1.755 0 0 0-.311-.539c-.354-.45-1.023-.405-1.477-.191-.649.308-1.153.815-1.861.982-1.129.267-.74 1.76.254 1.878 1.048.124 1.971-.178 2.838-.752.433-.29.742-.844.557-1.378m7.532-6.433c-1.812.424-3.191 1.61-4.583 2.754-.77.634-.111 1.871.775 1.875 1.833.008 3.515-.662 5.09-1.58 1.667-.972.536-3.473-1.282-3.05m-9.067 1.157c-.879-.897-2.408-1.06-3.466-.289-1.115.81-1.707 1.773-1.666 3.174.025.911 1.041 1.586 1.865 1.072 1.103-.689 2.433-1.247 3.267-2.267.415-.505.488-1.19 0-1.69m1.436 28.345c-1.971-.04-2.343 2.06-2.508 3.587-.075.687.834.92 1.26.524.861-.799 2.02-1.43 2.39-2.605.24-.752-.396-1.492-1.142-1.506m6.489 5.598c-.249-.843-1.16-1.166-1.914-.78-1.223.623-1.603 2.118-2.679 2.953-1.033.8.083 2.549 1.25 2.157 1.768-.595 3.969-2.195 3.343-4.33m.298-11.751c-1.306 1.184-1.68 3.039-2.407 4.586-.506 1.08.881 2.397 1.762 1.362 1.153-1.362 2.31-2.966 2.756-4.717.321-1.262-1.182-2.073-2.112-1.231m9.179-8.027c.008-.683-.5-1.158-1.223-1.037a1.2 1.2 0 0 0-.17.03c-.153-.006-.305-.04-.458 0-.419.116-.785.438-1.062.758-.435.508-.94 1.128-1.039 1.813-.12.821.19 1.639 1.066 1.879.742.206 1.735-.247 1.877-1.068.059-.349.506-.634.708-.952.193-.31.344-.605.344-.983 0-.487-.02-.53-.043-.44m-13.953 4.5c-.826.194-1.335.387-2.002.944-.52.434-.964.946-1.533 1.32-1.678 1.101-.234 3.427 1.541 2.64.71-.315 1.544-.758 2.09-1.329.697-.731.996-1.28 1.224-2.254a1.087 1.087 0 0 0-1.32-1.321M66.59 77.546c-.469-1.295-2.155-1.295-2.623 0-.577 1.602-.103 3.477.859 4.83.238.337.667.337.905 0 .962-1.353 1.436-3.228.858-4.83m-2.562-12.237c-.399 2.212-.175 4.2.17 6.4.17 1.077 1.99 1.075 2.16 0 .29-1.83.593-3.677.973-5.487.456-2.173-2.912-3.074-3.303-.913m8.747 5.073c-.331-.642-1.458-.699-1.771 0-.682 1.529.14 3.017.225 4.595.082 1.498 2.335 1.52 2.337 0 0-1.427-.134-3.319-.79-4.595m-3.713-14.094c-.177-.46-.354-.921-.529-1.382-.27-.703-1.155-.703-1.425 0-.175.46-.352.922-.53 1.382-.786 2.065 3.273 2.065 2.484 0m21.636 2.011c-1.031-1.117-2.077-2.065-2.87-3.386-.94-1.566-3.095-.2-2.388 1.398.576 1.3 1.347 2.465 2.227 3.576.777.978 2.132 2.515 3.54 1.688 1.297-.76.156-2.555-.509-3.276m4.292 6.004c-.433-1.625-3.21-1.843-3.492 0-.27 1.755.025 4.168 2.095 4.662 1.237.295 2.313-.573 2.382-1.819.063-1.09-.718-1.849-.985-2.843m-7.718-.666c-.454-.559-1.385-.596-1.965-.255-.677.4-.862 1.105-.744 1.834.13.806.203 1.431.526 2.198.236.558 1.03 1.038 1.512 1.358.53.348 1.478.034 1.576-.643.096-.678.37-1.288.307-1.985-.091-1.03-.578-1.727-1.212-2.507" fill="#FFF"/></g></svg>