<svg width="120" height="120" viewBox="0 0 120 120" xmlns="http://www.w3.org/2000/svg" xmlns:xlink="http://www.w3.org/1999/xlink"><defs><path id="a" d="M.672.02h21.104v60.975H.672z"/><path id="c" d="M0 119.255h110.487V.02H0z"/></defs><g fill="none" fill-rule="evenodd"><path d="M41.508 91.281h22.206l-24.659 10.735 2.453-10.735zM56.1 61.72L45.706 72.913l2.558-11.193H56.1zm4.805 16.564l2.398 10.497H43.828l17.076-10.497zm-15.128-3.242l11.545-12.437 2.842 12.437H45.776zM44.65 77.54h14.6L42.262 87.985 44.65 77.54zm23.563 32.723h2.817L59.935 61.72h1.96v-8.036H58.1l-1.368-5.99h-8.078l-1.369 5.99h-3.793v8.036h1.957l-11.093 48.544h2.815l1.47-6.43L64.2 92.704l4.013 17.56z" fill="#2A4357"/><path fill="#414B5D" d="M37.722 105.02h29.942v-2.499H37.722zM9.897 55.056l84.62-19.346-1.42-6.165-84.62 19.347z"/><path fill="#414B5D" d="M94.726 36.625l2.198-.507-1.843-7.995-2.196.506z"/><path fill="#414B5D" d="M96.712 35.203l1.344-.31-1.421-6.164-1.343.312z"/><g transform="translate(5 .724)"><g transform="translate(85.671)"><mask id="b" fill="#fff"><use xlink:href="#a"/></mask><path d="M10.692 32.556l7.144-1.648a44.233 44.233 0 0 0-1.053-4.55l-7.14 1.647 1.05 4.55zm4.047 21.666c.429.85 1.242.749 1.433.207 1.723-4.911 2.934-12.33 2.117-20.228l-6.617 2.61L7.81 40l6.929 14.222zM3.792 22.575l4.873 1.176 7.09-.552C13.033 15.74 8.697 9.6 4.998 5.938c-.406-.402-1.181-.136-1.198.816l-.008 15.82zM7.048 31l-.786-3.408-5.59 1.29 1.472-3.957.01-24.904s13.83 8.316 18.337 27.88c4.507 19.56-4.287 33.094-4.287 33.094L5.297 38.608l-3.054-2.91 5.588-1.291L7.048 31z" fill="#871417" mask="url(#b)"/></g><path fill="#871417" d="M10.915 56.285l4.067-.938-2.88-12.513-4.07.94z"/><path d="M46 41.31a2.098 2.098 0 1 0 2.097-2.098c-1.157 0-2.096.94-2.096 2.098" fill="#414B5D"/><mask id="d" fill="#fff"><use xlink:href="#c"/></mask><path fill="#414B5D" mask="url(#d)" d="M46.817 46.97h2.564v-6.162h-2.564z"/><path fill="#4D4D4D" mask="url(#d)" d="M0 119.255h110.487v-9.716H-.001z"/><path fill="#40607A" mask="url(#d)" d="M7.072 109.54h11.98V88.056H7.072z"/><path fill="#40607A" mask="url(#d)" d="M12.1 88.596h1.923V55.348H12.1z"/><path fill="#7484A1" mask="url(#d)" d="M101.375 109.54h.791V59.291h-.791z"/></g></g></svg>