<svg width="120" height="120" viewBox="0 0 120 120" xmlns="http://www.w3.org/2000/svg"><g fill="none" fill-rule="evenodd"><path fill="#EB7A1E" d="M41.624 83.074h3.869l15.582-8.042-3.035-.512z"/><path fill="#FFB235" d="M58.04 33l-8.208 16.484-18.354 2.643 13.281 12.83-3.135 18.117 16.416-8.553 16.416 8.553-3.136-18.117 13.282-12.83-18.354-2.643z"/><path fill="#FFD48F" d="M66.248 49.483h3.869l18.354 2.644h-3.869z"/><path fill="#F0862E" d="M71.32 64.957h3.87l13.28-12.83h-3.869z"/><path fill="#FF9735" d="M74.456 83.074h3.869L75.19 64.957h-3.87z"/><path fill="#FFC65C" d="M58.04 33l4.836 9.712.04-.105 3.496-.564L61.91 33zm9.709 11.728l-3.042 1.493-.104-.04 1.645 3.303h3.869z"/><path fill="#F0862E" d="M66.412 42.043l-.795 2.3-3.642.825.94-2.561z"/><path fill="#FFD48F" d="M65.617 44.343l2.132.385-3.042 1.493-2.732-1.053z"/><path fill="#EB7A1E" d="M6.954 86.97h2.651l10.68-5.511-2.08-.352z"/><path fill="#FFB235" d="M12.58 63.948L0 65.758l9.102 8.796L6.954 86.97l11.251-5.863 11.251 5.863-2.148-12.417 9.102-8.795-12.579-1.811-5.626-11.298z"/><path fill="#FFD48F" d="M23.831 63.947h2.651l12.58 1.812H36.41z"/><path fill="#F0862E" d="M27.308 74.553h2.652l9.103-8.794H36.41z"/><path fill="#FF9735" d="M27.308 74.553l2.148 12.417h2.653l-2.15-12.417z"/><path fill="#FFC65C" d="M21.546 59.234l2.397-.387-3.085-6.198h-2.653l3.315 6.657zm3.314 1.454l-2.086 1.022-.07-.027 1.127 2.264h2.651z"/><path fill="#F0862E" d="M23.943 58.848l-.545 1.576-2.496.566.644-1.755z"/><path fill="#FFD48F" d="M23.398 60.424l1.461.264-2.085 1.023-1.872-.722z"/><path fill="#EB7A1E" d="M87.891 86.97h2.652l10.68-5.511-2.08-.352z"/><path fill="#FFB235" d="M93.517 63.948l-12.58 1.81 9.102 8.796-2.148 12.417 11.251-5.863 11.253 5.863-2.15-12.417 9.102-8.795-12.579-1.811-5.626-11.298z"/><path fill="#FFD48F" d="M104.768 63.948l12.58 1.81H120l-12.58-1.81z"/><path fill="#F0862E" d="M117.347 65.758l-9.103 8.795h2.653L120 65.758z"/><path fill="#FF9735" d="M108.245 74.553l2.15 12.417h2.65l-2.148-12.417z"/><path fill="#FFC65C" d="M102.484 59.234l2.396-.387-3.085-6.198h-2.653l3.316 6.657zm3.314 1.454l-2.085 1.022-.071-.027 1.127 2.264h2.652z"/><path fill="#F0862E" d="M104.88 58.848l-.543 1.576-2.496.566.644-1.755z"/><path fill="#FFD48F" d="M104.337 60.424l1.46.264-2.084 1.023-1.872-.722z"/></g></svg>