<svg width="120" height="120" viewBox="0 0 120 120" xmlns="http://www.w3.org/2000/svg"><g fill="none" fill-rule="evenodd"><path d="M22.75 69.875h75V41.75h-75v28.125zm63.281 25.781a4.687 4.687 0 1 1 0-9.375 4.687 4.687 0 0 1 0 9.375zm-51.562 0a4.688 4.688 0 1 1 0-9.376 4.688 4.688 0 0 1 0 9.376zM111.812 23H8.687A4.7 4.7 0 0 0 4 27.687v65.625A4.701 4.701 0 0 0 8.687 98h103.125a4.702 4.702 0 0 0 4.688-4.688V27.687A4.7 4.7 0 0 0 111.812 23z" fill="#144261"/><path d="M36.813 61.671a5.86 5.86 0 1 1 0-11.718 5.86 5.86 0 0 1 0 11.718m0-29.297c-12.945 0-23.438 10.493-23.438 23.438 0 12.944 10.494 23.437 23.438 23.437 12.944 0 23.436-10.493 23.436-23.437 0-12.945-10.492-23.438-23.437-23.438m46.876 29.297a5.86 5.86 0 1 1 0-11.718 5.86 5.86 0 0 1 0 11.718m0-19.922c-7.767 0-14.064 6.296-14.064 14.063 0 7.766 6.297 14.062 14.064 14.062 7.766 0 14.063-6.296 14.063-14.062 0-7.767-6.297-14.063-14.064-14.063" fill="#000"/><path d="M86.031 93.312a2.345 2.345 0 1 1 .002-4.69 2.345 2.345 0 0 1-.002 4.69zm-51.563 0a2.344 2.344 0 1 1 .003-4.689 2.344 2.344 0 0 1-.003 4.689zm58.594-9.375H27.437l-7.03 14.062h79.687l-7.032-14.062z" fill="#6ACEF2"/><path d="M27.437 65.187h65.625v-18.75H27.437v18.75zM13.375 79.25h93.75V32.375h-93.75V79.25z" fill="#FDC00F"/><path fill="#FDC00F" d="M13.375 46.437h93.75V32.374h-93.75z"/><path fill="#FFF" d="M74.312 74.562h18.75v-4.687h-18.75z"/><path d="M60.25 53.468v4.687m-4.687-4.687v4.687m-4.688-4.687v4.687m14.063-4.687v4.687m4.687-4.687v4.687" stroke="#FFF" stroke-width="2.344"/><path d="M110.64 27.687a1.172 1.172 0 1 0 2.344 0 1.172 1.172 0 0 0-2.343 0m-103.125 0a1.172 1.172 0 1 0 2.343 0 1.172 1.172 0 0 0-2.343 0m0 65.625a1.172 1.172 0 1 0 2.343 0 1.172 1.172 0 0 0-2.343 0m103.124 0a1.172 1.172 0 1 0 2.344 0 1.172 1.172 0 0 0-2.343 0M36.813 60.5a4.7 4.7 0 0 1-4.688-4.688 4.7 4.7 0 0 1 4.688-4.688 4.7 4.7 0 0 1 4.686 4.688 4.7 4.7 0 0 1-4.687 4.688m0-11.72a7.022 7.022 0 0 0-7.03 7.032c0 3.89 3.14 7.032 7.03 7.032a7.022 7.022 0 0 0 7.032-7.032 7.022 7.022 0 0 0-7.032-7.031M83.688 60.5A4.7 4.7 0 0 1 79 55.811a4.7 4.7 0 0 1 4.688-4.688 4.7 4.7 0 0 1 4.686 4.688 4.7 4.7 0 0 1-4.686 4.688m0-11.72a7.022 7.022 0 0 0-7.032 7.032c0 3.89 3.14 7.032 7.031 7.032a7.022 7.022 0 0 0 7.032-7.032 7.022 7.022 0 0 0-7.031-7.031" fill="#FFF"/></g></svg>