<svg width="120" height="120" viewBox="0 0 120 120" xmlns="http://www.w3.org/2000/svg" xmlns:xlink="http://www.w3.org/1999/xlink"><defs><path id="a" d="M.925.956h79.942V118H.925z"/><path id="c" d="M0 0h79.942v117.045H0z"/></defs><g fill="none" fill-rule="evenodd"><g transform="translate(21 2)"><mask id="b" fill="#fff"><use xlink:href="#a"/></mask><path d="M8.84 116.816c5.994 1.166 12.224 1.073 18.306 1.137 12.84.133 25.735.01 38.56-.71 2.72-.153 5.447-.48 7.7-2.138 2.192-1.607 3.416-4.033 4.45-6.478 2.186-5.18 4.029-11.945 2.373-17.532-1.666-5.62-7.02-7.16-12.287-7.293-4.98-.127-9.958-.146-14.943-.185 5.655-5.279 10.493-11.43 14.58-17.988a105.67 105.67 0 0 0 6.935-13.045c2.167-4.858 4.19-9.823 4.465-15.199.509-10.027-5.19-20.246-12.684-26.592-7.248-6.137-16.423-9.4-25.877-9.797C29.582.54 19.77 3.976 10.546 9.351c-6.268 3.656-7.444 10.532-5.827 17.41.617 2.626 1.67 5.15 2.838 7.575 1.216 2.53 2.549 5.524 4.45 7.617 4.166 4.592 9.11-2.039 12.747-4.014 4.69-2.544 9.993-.51 12.39 4.151 2.65 5.17 1.034 11.42-1.78 16.144-5.527 9.282-15.006 15.811-24.548 20.408-4.401 2.117-7.597 4.793-8.675 9.768C.91 94.09.813 100.457.999 106.25c.167 5.288 2.304 9.488 7.842 10.566" fill="#E6E6E6" mask="url(#b)"/></g><path d="M91.549 91.454c.922 4.421-.931 10.081-2.773 14.046-.833 1.794-1.76 3.79-3.77 4.435-2.416.78-5.415.5-7.925.608-11.125.471-22.26.662-33.39.584-5.587-.045-11.341.122-16.865-.834-2.205-.382-3.754-.926-4.371-3.225-.657-2.455-.637-5.18-.74-7.704a70.1 70.1 0 0 1 .16-8.35c.193-2.417.506-4.947 2.344-6.71 1.529-1.46 3.642-2.246 5.544-3.079 2.16-.95 4.259-2 6.287-3.205 7.852-4.67 15.468-11.36 19.78-19.535 4.015-7.6 4.53-18.134-2.538-24.18-3.22-2.75-7.24-4.339-11.498-3.58-2.083.373-4.058 1.285-5.866 2.353-.981.583-1.926 1.23-2.872 1.867-.25.167-.637.338-.937.544-3.043-4.499-6.395-9.15-7.218-14.654-.402-2.68-.098-5.43 1.769-7.523 1.775-1.985 4.386-3.347 6.748-4.504.45-.215.907-.42 1.359-.627 13.78-4.847 29.028-4.832 41.447 4.161 7.023 5.082 12.419 13.615 12.748 22.422.18 4.872-1.573 9.483-3.461 13.894-1.734 4.06-3.641 8.058-5.788 11.914C74.9 69.237 68.809 77.006 61.1 83.28c-1.657 1.348-.24 4.053 1.676 4.053 5.6.005 11.204.063 16.805.103 3.853.03 10.914-1.053 11.968 4.02" fill="#F5846B"/><g transform="translate(17)"><mask id="d" fill="#fff"><use xlink:href="#c"/></mask><path d="M71.775 105.5c1.843-3.965 3.695-9.625 2.773-14.046-1.053-5.072-8.115-3.989-11.967-4.018-5.602-.041-11.204-.099-16.806-.104-1.916 0-3.333-2.705-1.676-4.053 7.71-6.273 13.801-14.042 18.623-22.707 2.148-3.856 4.054-7.855 5.788-11.914 1.888-4.411 3.642-9.022 3.461-13.894-.329-8.807-5.724-17.34-12.748-22.422-12.419-8.993-27.666-9.008-41.447-4.161-.45.206-.907.412-1.358.628-2.363 1.156-4.974 2.518-6.748 4.503-1.868 2.093-2.17 4.842-1.77 7.523.823 5.504 4.176 10.155 7.22 14.654.3-.206.685-.377.935-.544.947-.636 1.892-1.284 2.872-1.867 1.81-1.068 3.784-1.98 5.867-2.352 4.258-.76 8.278.828 11.498 3.578 7.067 6.048 6.552 16.58 2.54 24.181-4.315 8.175-11.93 14.865-19.783 19.535-2.028 1.206-4.126 2.254-6.287 3.206-1.902.833-4.014 1.617-5.544 3.078-1.838 1.763-2.15 4.293-2.342 6.709a69.89 69.89 0 0 0-.162 8.351c.103 2.524.083 5.249.741 7.704.617 2.299 2.166 2.843 4.371 3.225 5.523.956 11.277.789 16.864.834a677.248 677.248 0 0 0 33.391-.584c2.51-.107 5.508.172 7.924-.607 2.01-.647 2.937-2.642 3.77-4.436m7.527-15.359c1.658 5.587-.185 12.35-2.372 17.53-1.034 2.446-2.259 4.872-4.45 6.479-2.254 1.657-4.978 1.986-7.699 2.137-12.825.721-25.72.843-38.56.711-6.083-.063-12.312.029-18.306-1.137-5.538-1.078-7.675-5.278-7.842-10.567-.186-5.793-.088-12.159 1.142-17.839 1.08-4.975 4.274-7.65 8.675-9.768 9.542-4.597 19.021-11.125 24.55-20.408 2.813-4.724 4.43-10.973 1.778-16.143-2.396-4.661-7.7-6.696-12.389-4.152-3.637 1.975-8.582 8.607-12.748 4.014-1.902-2.093-3.235-5.087-4.45-7.616-1.167-2.426-2.22-4.95-2.838-7.577-1.618-6.876-.44-13.752 5.828-17.409C18.844 3.02 28.656-.415 39.492.04c9.454.397 18.63 3.661 25.877 9.798 7.494 6.347 13.194 16.565 12.684 26.593-.274 5.376-2.299 10.34-4.465 15.197a105.76 105.76 0 0 1-6.935 13.047c-4.087 6.557-8.925 12.708-14.58 17.986 4.984.04 9.964.06 14.943.187 5.27.132 10.62 1.671 12.286 7.293" fill="#D6503A" mask="url(#d)"/></g><path d="M83.973 31.57c-.8-6.4-4.366-11.752-9.495-15.563-10.086-7.492-27.71-9.945-38.033-1.834-1.223.96.115 2.864 1.452 2.495 10.632-2.93 22.128-2.777 31.641 3.43 3.915 2.553 6.96 6.341 7.865 10.99.423 2.173.317 4.458-.219 6.602-.533 2.138-1.824 4.106-2.222 6.255-.272 1.473.861 2.688 2.367 2.367 5.987-1.276 7.263-9.79 6.644-14.742m-8.768 23.606c-.556-.511-1.24-.833-2.01-.833-.73 0-1.495.317-2.011.833-.493.493-.864 1.302-.833 2.01.034.736.275 1.498.833 2.01.557.51 1.24.834 2.01.834.73 0 1.495-.318 2.01-.833.494-.494.865-1.302.834-2.01-.033-.736-.274-1.498-.833-2.011M72.11 90.15c-3.09-.638-6.07-.348-9.195-.11-2.704.205-5.745.233-8.096 1.723-.53.337-.505 1.047 0 1.39 2.312 1.567 5.384 1.618 8.096 1.732 3.13.131 6.188.225 9.195-.748 1.817-.587 2.113-3.55 0-3.987m7.854.574l-.306.1c-.917.296-1.644.956-1.906 1.905a2.753 2.753 0 0 0 .702 2.654 2.75 2.75 0 0 0 2.655.7c.949-.26 1.607-.987 1.905-1.904l.099-.306c.59-1.82-1.33-3.74-3.15-3.15" fill="#FFF" opacity=".5"/></g></svg>