<svg width="120" height="120" viewBox="0 0 120 120" xmlns="http://www.w3.org/2000/svg" xmlns:xlink="http://www.w3.org/1999/xlink"><defs><path id="a" d="M0 .304h37.378v69.08H0z"/><path id="c" d="M1.235.304h19.567v58.954H1.235z"/><path id="e" d="M.863 2.578h64.413v4.563H.863z"/></defs><g fill="none" fill-rule="evenodd"><g transform="translate(2 2.227)"><mask id="b" fill="#fff"><use xlink:href="#a"/></mask><path d="M31.39.303c-38.38 12.59-34.2 47.94-25.56 69.081C33.38 61.626 45.649 22.408 31.39.303" fill="#849F28" mask="url(#b)"/></g><g transform="translate(12.588 2.227)"><mask id="d" fill="#fff"><use xlink:href="#c"/></mask><path d="M1.235 59.258c2.315-10.192 5.552-20.011 8.823-29.812 3.368-9.777 6.78-19.483 10.744-29.143-1.267 10.384-4.119 20.439-7.405 30.279-3.395 9.812-7.246 19.458-12.162 28.676" fill="#627712" mask="url(#d)"/></g><path d="M115.528 95.263c-16.45-21.195-62.799-17.38-76.39 6.257 20.036 24.865 68.032 22.694 76.39-6.257" fill="#849F28"/><g transform="translate(51.412 93.991)"><mask id="f" fill="#fff"><use xlink:href="#e"/></mask><path d="M.863 6.969C11.45 4.657 22.177 3.492 32.94 2.875c10.769-.52 21.597-.466 32.337 1.044-10.761 1.282-21.445 1.867-32.153 2.478-10.712.498-21.43 1.024-32.262.572" fill="#627712" mask="url(#f)"/></g></g></svg>