<svg width="226" height="108" viewBox="0 0 226 108" xmlns="http://www.w3.org/2000/svg"><g fill="none" fill-rule="evenodd"><path d="M110.056 97.815h13.052s-2.878-2.98-6.877-4.322c0 0-1.582 1.572-5.823 1.572 0 0-.352.858-.352 2.75" fill="#E09D73"/><path d="M110.056 97.815h13.052s-2.703-3.024-6.877-4.322c0 0-1.582 1.572-5.823 1.572 0 0-.352.858-.352 2.75z" stroke="#362F52" stroke-width=".5"/><path d="M130.245 84.044s-2.373-23.098-15.513-37.089c0 0 35.487-20.854 59.482-28.641 0 0 21.292-7.391 41.288 12.143 0 0-7.559-.22-15.425 0 0 0 9.405 9.37 8.35 22.217 0 0-6.755-6.062-14.854-11.967 0 0 4.482 11.88-4 21.823 0 0-2.416-1.936-4.965-3.74 0 0-2.68 4.575-8.35 8.051l-.835-3.651s-4.835 5.983-11.075 8.535l-1.01-2.244s-10.987 7.875-33.093 14.563" fill="#A77E76"/><path d="M130.276 84.044l-.255-1.81c10.257-3.747 26.594-12.985 29.853-17.724 0 0 2.39 1.628 3.485 5.004 0 0-12.912 8.635-33.083 14.53m45.121-21.524s4.22-2.325 5.365-5.745c0 0 2.629.863 3.868 2.048.395.198-5.046 6.404-8.342 8.019-.22-.396-.89-4.323-.89-4.323M206.76 51.19c-.06-.079-1.335-12.467-7.104-20.915 0 0 9.872 9.058 8.802 22.4 0 0-1.435-1.15-1.698-1.486" fill="#784451"/><path d="M162.873 68.172c2.48-1.727 6.764-4.498 10.51-10.258 0 0 1.322 1.32 2.118 5.068.127.494-5.509 6.459-11.13 8.776-.109.045-1.498-3.586-1.498-3.586m40.333-46.622c-.072-.055 7.46 3.71 12.206 8.79.112.15-1.88.083-1.88.083s-2.257-2.837-10.326-8.874M186.8 60.367c5.985-8.281 4.221-20.622 2.617-22.244-.315-.318 3.45 1.655 4.178 2.617.91 1.202 3.273 14.958-3.921 21.708-.244.13-2.621-1.892-2.875-2.081" fill="#784451"/><path d="M130.276 84.044s-2.373-23.098-15.514-37.089c0 0 35.487-20.854 59.482-28.641 0 0 21.293-7.391 41.289 12.143 0 0-7.56-.22-15.425 0 0 0 9.404 9.37 8.35 22.217 0 0-6.756-6.062-14.855-11.967 0 0 4.483 11.88-3.999 21.823 0 0-2.417-1.936-4.966-3.74 0 0-2.68 4.575-8.35 8.051l-.835-3.651s-4.834 5.983-11.075 8.535l-1.01-2.244s-10.987 7.875-33.092 14.563z" stroke="#362F52" stroke-width=".5"/><path d="M128.87 56.106l2.355-1.776c1.504-1.124 3.673-2.7 6.288-4.574 2.615-1.875 5.7-4.014 9.035-6.26 3.336-2.244 6.94-4.57 10.612-6.78 3.665-2.224 7.398-4.34 10.997-6.122 3.596-1.783 7.05-3.268 10.123-4.198 1.535-.466 2.97-.804 4.26-.988 1.29-.185 2.432-.216 3.364-.13.933.09 1.643.3 2.116.468.463.192.705.31.705.31s-.239-.122-.7-.325a8.808 8.808 0 0 0-2.115-.514c-.936-.107-2.086-.1-3.388.059-1.302.156-2.754.465-4.301.92-3.098.906-6.592 2.333-10.206 4.11-3.617 1.775-7.366 3.88-11.045 6.093a252.078 252.078 0 0 0-10.6 6.833 307.243 307.243 0 0 0-8.978 6.356c-2.598 1.901-4.72 3.544-6.204 4.693l-2.319 1.825m46.769 7.044s-.043-.262-.135-.645c-.087-.385-.233-.89-.402-1.387-.096-.244-.177-.492-.28-.716-.105-.222-.193-.432-.286-.605l-.328-.563.276.588c.077.178.145.395.23.622.08.228.139.481.212.728a14.36 14.36 0 0 1 .347 2.027l.366-.049zm18.422-22.301l-.263-.199a25.609 25.609 0 0 0-2.95-1.878c-.429-.21-.841-.45-1.256-.62l-.593-.255c-.19-.077-.362-.165-.535-.213l-1.132-.37 1.11.423c.17.056.338.153.523.24l.577.28c.401.187.801.448 1.215.676a25.02 25.02 0 0 1 3.07 2.202l.234-.286zm.066 13.826s-.053-.378-.176-.931a20.903 20.903 0 0 0-.54-2.005c-.132-.353-.242-.714-.384-1.037a95.94 95.94 0 0 0-.205-.467c-.069-.146-.118-.292-.19-.413l-.457-.821.403.845c.066.124.106.273.165.422l.174.474c.121.329.208.694.316 1.05.184.724.331 1.455.41 2.008.09.552.118.92.118.92l.366-.045zm-2.49 5.362s-.037-.329-.13-.812a18.234 18.234 0 0 0-.416-1.75c-.105-.31-.192-.625-.305-.91l-.166-.409c-.055-.128-.095-.255-.155-.362l-.375-.721.322.743c.051.11.083.24.128.371l.135.416c.092.288.156.607.237.918a18.1 18.1 0 0 1 .287 1.75c.058.48.07.8.07.8l.368-.034zm3.293-13.01s-.12-.309-.332-.751a18.424 18.424 0 0 0-.845-1.589c-.18-.272-.344-.555-.526-.801l-.264-.354c-.086-.11-.157-.223-.241-.312l-.547-.603.5.638c.078.094.141.211.219.327l.235.367c.162.256.305.548.462.829a17.838 17.838 0 0 1 .992 2.375l.347-.126zM184.797 58.69s-.236-.171-.604-.398a15.78 15.78 0 0 0-1.385-.768c-.265-.115-.52-.247-.773-.34a70.707 70.707 0 0 1-.363-.135c-.117-.04-.222-.091-.328-.114l-.69-.188.67.242c.102.031.204.09.316.139l.347.163c.242.112.484.263.733.397a15.5 15.5 0 0 1 1.297.862c.343.25.555.434.555.434l.225-.293zm-14.294 9.366s-.038-.324-.132-.8a18.122 18.122 0 0 0-.418-1.72c-.105-.305-.192-.615-.305-.895l-.165-.402c-.056-.126-.095-.25-.155-.355l-.373-.71.32.732c.052.108.082.235.128.364l.134.409c.092.284.156.597.237.903a17.764 17.764 0 0 1 .362 2.508l.367-.034zm-15.443 6.278l-.017-.202a8.396 8.396 0 0 0-.066-.535c-.026-.22-.082-.473-.13-.746-.066-.267-.125-.556-.21-.838-.096-.279-.16-.566-.275-.818-.109-.253-.188-.497-.294-.69l-.342-.646s.115.268.29.669c.089.198.148.448.236.705.092.255.134.545.205.824.063.283.097.571.142.837.024.27.06.52.069.735a8.56 8.56 0 0 1 .023.716l.37-.01zm4.602-2.462s-.038-.323-.132-.798a18.122 18.122 0 0 0-.418-1.721c-.105-.306-.192-.615-.305-.895l-.165-.402c-.055-.126-.095-.25-.155-.355l-.372-.71.32.732c.05.108.081.235.127.364l.134.409c.092.284.156.597.238.903a17.764 17.764 0 0 1 .36 2.508l.368-.035zm-10.197 5.221s.006-.058.009-.177a5.35 5.35 0 0 0-.008-.47c-.001-.097-.018-.2-.028-.309-.014-.108-.018-.224-.045-.34-.047-.234-.081-.486-.16-.727a4.684 4.684 0 0 0-.235-.702c-.089-.219-.16-.426-.26-.587l-.295-.55.243.573c.082.167.135.38.202.601.075.22.123.462.165.705.055.24.066.487.09.715.015.114.008.225.012.33 0 .105.007.203 0 .294-.01.182-.018.333-.033.433-.01.1-.023.164-.023.164l.366.047zm31.653-13.867s-.053-.21-.153-.516a12.998 12.998 0 0 0-.412-1.1c-.094-.194-.178-.39-.272-.566-.1-.173-.186-.338-.27-.473l-.304-.435.253.463c.069.142.136.314.215.494.073.183.135.384.205.582.252.804.376 1.626.376 1.627l.362-.076zm-37.184 16.119s-.004-.209-.034-.517a11.171 11.171 0 0 0-.159-1.117c-.048-.2-.083-.402-.138-.586-.058-.184-.103-.356-.156-.5l-.193-.47.137.487c.037.147.061.323.097.508.034.185.046.387.071.587.07.805.006 1.599.006 1.599l.369.01zm-4.897 1.94s-.036-.612-.158-1.2a6.553 6.553 0 0 0-.221-.797l-.146-.344.09.36c.041.218.078.51.094.804.028.591-.028 1.17-.028 1.17l.37.007zm-4.235 1.438s0-.092-.003-.228c-.005-.139-.01-.322-.036-.505a2.31 2.31 0 0 0-.088-.492l-.056-.217-.002.225a2.19 2.19 0 0 1-.038.482c-.021.174-.061.345-.09.472l-.052.214.365.049zm73.623-35.49s-.12-.31-.332-.752a18.424 18.424 0 0 0-.845-1.588c-.18-.273-.344-.556-.526-.802l-.264-.354c-.086-.11-.157-.223-.241-.312l-.546-.602.5.637c.078.094.14.211.218.327l.236.368c.161.255.304.547.462.828a18.19 18.19 0 0 1 .991 2.375l.347-.125zm-1.871-6.973s-.154-.217-.405-.523c-.122-.156-.274-.33-.434-.517-.16-.188-.346-.376-.523-.57-.19-.183-.375-.37-.557-.535-.19-.158-.363-.309-.516-.432l-.54-.37.503.415c.14.135.3.3.471.47.165.18.332.38.501.575.158.207.323.407.464.605.141.198.275.38.38.543.218.322.348.544.348.544l.308-.205zm-42.953 29.27s-.125-.3-.347-.73a17.928 17.928 0 0 0-.874-1.54c-.186-.265-.354-.538-.54-.776l-.27-.34c-.088-.107-.16-.216-.246-.3l-.553-.58.508.616c.079.09.144.204.223.315l.242.355c.166.248.314.532.476.804.3.561.572 1.135.752 1.575.186.439.286.737.286.737l.343-.135z" fill="#362F52"/><path d="M89.492 96.573s39.263 4.62 44.757-21.778c4.516-21.701-3.36-27.453-4.395-29.169-.882-1.463-31.862-2.596-31.862-2.596s-10.962 17.335-8.5 53.543" fill="#C7B4B0"/><path d="M89.492 96.573s39.263 4.62 44.757-21.778c4.516-21.701-3.36-27.453-4.395-29.169-.882-1.463-31.861-2.596-31.861-2.596S87.03 60.365 89.492 96.573z" stroke="#362F52" stroke-width=".5"/><path d="M129.04 75.52s-.054.39-.212 1.06c-.087.331-.18.738-.33 1.192l-.233.723-.294.79c-.2.552-.472 1.128-.748 1.739-.315.594-.614 1.236-1.003 1.857-.19.312-.368.64-.575.954l-.65.939-.331.474-.368.451-.738.907c-.508.59-1.06 1.144-1.58 1.709l-1.676 1.513-1.673 1.289c-.53.414-1.088.724-1.574 1.054-.495.315-.935.629-1.364.842l-1.086.593-.945.525.977-.46 1.12-.538c.443-.19.9-.48 1.407-.784.499-.317 1.072-.612 1.62-1.011.548-.4 1.13-.816 1.721-1.263l1.713-1.513c.533-.566 1.1-1.121 1.62-1.716l.74-.928.367-.46.33-.486.65-.958c.206-.32.383-.654.572-.973.392-.63.67-1.295.969-1.905.26-.627.516-1.216.7-1.78l.267-.807.197-.74c.126-.464.198-.878.268-1.215.12-.68.142-1.073.142-1.073" fill="#362F52"/><path d="M89.475 84.33s2.373-23.097 15.513-37.088c0 0-35.487-20.854-59.482-28.641 0 0-21.292-7.391-41.288 12.143 0 0 7.559-.22 15.425 0 0 0-9.405 9.371-8.35 22.218 0 0 6.756-6.063 14.854-11.967 0 0-4.482 11.879 4 21.822 0 0 2.416-1.936 4.966-3.74 0 0 2.68 4.576 8.35 8.052l.834-3.652s4.835 5.983 11.075 8.535l1.01-2.244s10.987 7.875 33.093 14.563" fill="#A77E76"/><path d="M89.466 84.298l.255-1.81C79.465 78.742 63.127 69.503 59.87 64.764c0 0-2.39 1.628-3.486 5.004 0 0 12.912 8.635 33.083 14.53M44.345 62.774s-4.22-2.324-5.364-5.745c0 0-2.63.863-3.869 2.048-.395.198 5.046 6.404 8.342 8.019.22-.396.891-4.322.891-4.322M12.982 51.443c.06-.077 1.336-12.466 7.104-20.913 0 0-9.872 9.057-8.801 22.398 0 0 1.434-1.148 1.697-1.485" fill="#784451"/><path d="M56.87 68.426c-2.481-1.727-6.765-4.498-10.51-10.258 0 0-1.323 1.32-2.118 5.069-.128.493 5.508 6.458 11.13 8.775.108.045 1.497-3.586 1.497-3.586M16.536 21.803c.073-.054-7.46 3.71-12.206 8.792-.112.15 1.88.083 1.88.083s2.257-2.838 10.326-8.875m16.407 38.818c-5.985-8.28-4.222-20.622-2.618-22.244.315-.318-3.45 1.656-4.178 2.617-.909 1.202-3.273 14.958 3.922 21.708.243.13 2.62-1.891 2.874-2.081" fill="#784451"/><path d="M89.466 84.298S91.84 61.2 104.98 47.209c0 0-35.487-20.854-59.482-28.641 0 0-21.292-7.391-41.288 12.143 0 0 7.558-.22 15.425 0 0 0-9.405 9.371-8.35 22.218 0 0 6.755-6.063 14.854-11.967 0 0-4.482 11.879 4 21.822 0 0 2.416-1.936 4.965-3.74 0 0 2.68 4.576 8.35 8.052l.835-3.652s4.835 5.983 11.075 8.535l1.01-2.244s10.987 7.875 33.092 14.563z" stroke="#362F52" stroke-width=".5"/><path d="M90.873 56.36l-2.318-1.825a276.925 276.925 0 0 0-6.204-4.693 307.961 307.961 0 0 0-8.978-6.356c-3.33-2.26-6.93-4.603-10.6-6.833-3.68-2.214-7.429-4.318-11.045-6.093-3.614-1.777-7.109-3.204-10.206-4.11-1.548-.455-3-.764-4.302-.92-1.302-.16-2.452-.166-3.388-.059a8.803 8.803 0 0 0-2.115.514c-.46.203-.7.326-.7.326s.242-.119.705-.311a8.79 8.79 0 0 1 2.116-.467c.933-.087 2.075-.056 3.364.13 1.29.183 2.726.52 4.26.987 3.074.93 6.527 2.415 10.124 4.198 3.599 1.783 7.332 3.898 10.996 6.121a251.5 251.5 0 0 1 10.612 6.782 376.532 376.532 0 0 1 9.035 6.26 415.67 415.67 0 0 1 6.288 4.573l2.356 1.776M44.47 63.453s.018-.254.076-.636c.051-.383.15-.89.272-1.391.072-.247.131-.5.212-.728.085-.226.153-.444.23-.622l.275-.588s-.13.226-.328.564c-.092.172-.18.382-.287.605-.102.223-.183.472-.28.716a14.755 14.755 0 0 0-.4 1.386c-.093.383-.135.646-.135.646l.365.048zm12.099 6.307s.077-.254.223-.628c.14-.376.357-.866.596-1.347.13-.233.248-.477.383-.688.138-.21.257-.415.376-.578l.414-.532-.46.497c-.133.153-.27.347-.427.548-.155.203-.294.436-.447.662-.283.465-.545.944-.72 1.314-.182.366-.284.623-.284.623l.346.128zM25.916 41.39a25.144 25.144 0 0 1 3.07-2.202c.414-.23.814-.49 1.216-.677l.576-.28c.185-.086.354-.183.523-.24l1.11-.423-1.131.37c-.173.048-.346.137-.536.214l-.593.254c-.414.17-.827.41-1.256.62a25.704 25.704 0 0 0-2.95 1.878l-.263.199.234.287zm.067 13.584a20.46 20.46 0 0 1 .527-2.929c.109-.355.195-.72.316-1.049l.174-.474c.059-.149.099-.298.164-.421l.404-.846-.455.822c-.074.12-.123.266-.192.412l-.204.467c-.143.323-.252.684-.384 1.038a20.886 20.886 0 0 0-.717 2.935l.367.045zm2.491 5.351s.012-.32.07-.8c.05-.48.154-1.117.287-1.75.081-.311.145-.63.237-.918l.135-.416c.046-.13.077-.26.128-.37l.322-.745-.375.722c-.06.108-.1.234-.155.363l-.166.409c-.113.284-.2.6-.305.91a18.33 18.33 0 0 0-.416 1.75c-.093.482-.13.811-.13.811l.368.034zM25.16 47.407s.094-.305.272-.755c.17-.452.431-1.042.72-1.62.158-.28.3-.573.462-.828.082-.128.16-.252.236-.368.078-.115.14-.233.217-.327l.5-.637-.545.603c-.085.088-.156.2-.242.311l-.264.354c-.181.246-.345.529-.526.802-.332.563-.64 1.14-.845 1.588-.212.443-.331.752-.331.752l.347.125zm10.01 11.831s.212-.183.556-.434c.338-.255.809-.57 1.296-.862.25-.134.491-.285.733-.397l.348-.163c.111-.048.213-.108.315-.139l.67-.242-.69.188c-.105.023-.21.074-.327.114l-.364.135c-.253.093-.508.226-.772.34-.516.255-1.02.536-1.385.768-.369.227-.604.399-.605.399l.226.293zm14.437 9.107s.014-.314.073-.786c.05-.474.155-1.1.288-1.722.081-.307.146-.62.237-.904l.134-.408c.046-.13.077-.257.128-.365l.32-.731-.373.709c-.06.105-.099.23-.155.356a299.1 299.1 0 0 0-.164.402c-.114.28-.2.589-.306.894a18.168 18.168 0 0 0-.55 2.52l.368.035zm15.444 6.254l.001-.198c0-.123.008-.302.022-.518.009-.215.045-.465.07-.735.045-.266.079-.554.14-.837.073-.279.114-.569.207-.824.087-.257.146-.507.236-.705l.29-.668s-.138.258-.342.645c-.107.193-.186.438-.295.69-.115.252-.179.54-.274.818-.086.282-.144.57-.21.839-.048.272-.105.525-.131.745-.032.219-.054.404-.066.535l-.016.202.368.01zm-4.603-2.437s.013-.314.072-.786c.051-.474.155-1.1.289-1.723.081-.306.145-.62.237-.903l.134-.409c.046-.128.077-.256.128-.364l.32-.732-.374.71c-.059.105-.098.23-.154.356a299.1 299.1 0 0 0-.165.402c-.113.279-.2.589-.305.893-.18.618-.331 1.246-.418 1.722-.094.475-.132.799-.132.799l.368.035zM70.644 77.3s-.013-.064-.024-.164a5.09 5.09 0 0 1-.032-.433c-.008-.09 0-.19 0-.294.003-.105-.003-.216.012-.33.024-.228.034-.475.09-.715.041-.242.09-.485.164-.704.068-.222.12-.434.202-.602l.244-.574-.296.55c-.1.162-.171.37-.26.588a4.806 4.806 0 0 0-.234.702c-.08.242-.115.492-.161.727-.027.116-.03.232-.045.34-.01.11-.026.213-.028.309-.007.192-.014.352-.007.47.002.119.009.177.01.177l.365-.047zM38.986 63.556s.124-.823.377-1.627c.07-.197.131-.4.205-.582.078-.18.146-.352.214-.494l.253-.463-.303.435c-.085.135-.171.3-.271.474-.094.176-.178.372-.271.565a12.774 12.774 0 0 0-.566 1.616l.362.076zM76.177 79.59s-.064-.794.007-1.6c.024-.198.036-.4.07-.586.036-.185.06-.36.097-.508l.137-.487-.192.47c-.054.144-.099.317-.156.5-.056.184-.091.386-.14.586a11.336 11.336 0 0 0-.191 1.635l.368-.01zm4.897 1.942s-.056-.579-.028-1.17a6.49 6.49 0 0 1 .094-.804l.09-.36-.145.344a6.608 6.608 0 0 0-.221.797 9.433 9.433 0 0 0-.159 1.2l.369-.007zm4.232 1.396l-.054-.214c-.027-.127-.068-.298-.089-.472a2.224 2.224 0 0 1-.038-.482l-.002-.225-.055.217c-.04.132-.077.312-.089.493-.026.182-.03.365-.036.504l-.003.228.366-.049zM11.664 47.613s.094-.306.271-.756c.17-.452.432-1.042.72-1.62.159-.28.3-.573.463-.828l.236-.368c.078-.115.14-.232.217-.326l.5-.638-.546.603c-.084.089-.155.201-.241.311l-.264.354c-.181.246-.346.529-.526.802a18.493 18.493 0 0 0-1.177 2.34l.347.126zm1.832-6.893s.13-.223.348-.544c.105-.163.239-.346.38-.544.141-.198.306-.398.464-.605.17-.195.336-.395.501-.574.172-.172.33-.336.471-.471l.504-.414-.54.37c-.154.122-.327.273-.517.431-.182.166-.368.352-.557.535-.177.194-.362.382-.523.57-.16.187-.312.36-.434.517-.25.306-.404.523-.404.523l.307.205z" fill="#362F52"/><path d="M104.796 97.815h13.053s-2.57-2.618-5.625-3.806c0 0-2.835 1.056-7.076 1.056 0 0-.352.858-.352 2.75" fill="#E09D73"/><path d="M104.796 97.815h13.053s-2.57-2.618-5.625-3.806c0 0-2.835 1.056-7.076 1.056 0 0-.352.858-.352 2.75z" stroke="#362F52" stroke-width=".5"/><path d="M129.27 22.08s-4.987-2.078-11.429-2.345c-7.136-.296-17.017 3.13-18.292 5.14-1.275 2.01-2.625 5.17-2.625 9.208 0 4.036 1.027 6.15 1.027 7.682 0 1.531-2.057.25 2.528 3.907 3.106 2.477 13.486 6.633 23.99 5.643 6.1-.575 6.797-1.92 7.647-2.667l-1.417-1.97c.88-1.026 5.391-6.447 5.391-12.796 0-6.347-2.722-10.087-6.82-11.802" fill="#A77E76"/><path d="M130.798 46.522c1.627-1.53 5.461-7.524 5.296-11.79-.176-4.536-1.15-8.777-4.19-11.099-3.039-2.321-8.444-3.905-14.773-3.905-9.242 0-15.715 3.036-17.57 5.148-1.855 2.111-2.646 6.29-2.646 10.338 0 4.048 1.89 5.984.66 7.348-1.23 1.364 11.082 9.78 26.408 8.755 6.651-.445 8.133-2.67 8.133-2.67-.435-.646-1.318-2.125-1.318-2.125z" stroke="#362F52" stroke-width=".5"/><path d="M99.992 13.975s6.152 10.543 16.628 10.691l-16.628-10.69z" fill="#4B3A42"/><path d="M119.865 26.61c.136.025-20.304-13.067-20.304-13.067s5.757 10.427 20.304 13.067z" stroke="#362F52" stroke-width=".526"/><path d="M127.844 24.591l9.043-10.691s-3.346 10.543-9.043 10.691" fill="#4B3A42"/><path d="M126.08 26.535c-.075.025 11.041-13.067 11.041-13.067s-3.13 10.427-11.042 13.067" stroke="#362F52" stroke-width=".526"/><path d="M124.295 33.852c0-5.643 2.641-10.218 5.9-10.218 3.258 0 5.899 4.575 5.899 10.218s-2.641 10.218-5.9 10.218c-3.258 0-5.899-4.575-5.899-10.218" fill="#C4AFAD"/><path d="M127.635 34.083c0-2.394 1.12-4.334 2.502-4.334 1.382 0 2.503 1.94 2.503 4.334 0 2.393-1.12 4.333-2.503 4.333-1.381 0-2.502-1.94-2.502-4.333" fill="#FCCF87"/><path d="M131.68 34.193c0-1.507-.705-2.728-1.574-2.728-.87 0-1.575 1.22-1.575 2.728 0 1.506.705 2.727 1.575 2.727s1.574-1.22 1.574-2.727" fill="#362F52"/><path d="M127.635 33.995c0-2.393 1.12-4.334 2.502-4.334 1.382 0 2.503 1.94 2.503 4.334 0 2.393-1.12 4.334-2.503 4.334-1.381 0-2.502-1.94-2.502-4.334z" stroke="#605579" stroke-width=".5"/><path d="M124.26 33.883c0-5.65 2.644-10.23 5.905-10.23 3.262 0 5.906 4.58 5.906 10.23 0 5.649-2.644 10.229-5.906 10.229-3.261 0-5.905-4.58-5.905-10.23z" stroke="#605579" stroke-width=".526"/><path d="M130.798 29.023s.077-.263.16-.66a19.53 19.53 0 0 0 .385-2.95c.02-.406.014-.68.014-.68s-.077.263-.162.661a19.501 19.501 0 0 0-.384 2.95c-.02.405-.013.679-.013.679m-1.758 14.375s.072-.265.15-.666a19.75 19.75 0 0 0 .332-2.968c.013-.408.002-.682.002-.682s-.073.265-.15.666a19.24 19.24 0 0 0-.332 2.968c-.014.408-.002.682-.002.682m4.478-1.823s-.063-.23-.186-.562a14.534 14.534 0 0 0-1.109-2.334c-.18-.305-.319-.5-.319-.5s.063.232.186.564a14.264 14.264 0 0 0 1.11 2.333c.18.305.318.5.318.5m1.42-2.957s-.117-.15-.312-.349a9.093 9.093 0 0 0-1.58-1.284c-.236-.15-.406-.233-.406-.233s.116.15.312.349a8.932 8.932 0 0 0 1.58 1.283c.236.15.406.234.406.234m.739-3.439s-.15-.07-.381-.143a6.807 6.807 0 0 0-1.736-.309 3.509 3.509 0 0 0-.408.003s.15.07.382.144a6.811 6.811 0 0 0 1.736.308c.242.01.407-.003.407-.003m-.181-4.099s-.171.038-.414.124a7.776 7.776 0 0 0-1.677.836c-.214.142-.348.257-.348.257s.172-.039.414-.124a7.688 7.688 0 0 0 1.677-.837c.215-.142.348-.256.348-.256m-1.488-3.934s-.144.184-.333.473a14.053 14.053 0 0 0-1.177 2.233c-.132.32-.201.542-.201.542s.144-.183.333-.472a13.905 13.905 0 0 0 1.176-2.234c.132-.319.202-.542.202-.542m-5.451-2.092s.008.27.05.668a18.84 18.84 0 0 0 .535 2.876c.105.387.195.64.195.64s-.007-.27-.049-.667a18.548 18.548 0 0 0-.536-2.877 9.463 9.463 0 0 0-.195-.64m-2.267 2.381s.092.193.254.462a11.663 11.663 0 0 0 1.387 1.836c.215.231.375.373.375.373s-.092-.193-.256-.462a11.333 11.333 0 0 0-1.387-1.836 5.986 5.986 0 0 0-.374-.373m-1.192 3.496s.126.13.333.298a8.14 8.14 0 0 0 1.638 1.043c.24.116.412.174.412.174s-.126-.13-.333-.299a8.12 8.12 0 0 0-1.638-1.042 4.235 4.235 0 0 0-.412-.174m-.193 4.138s.159.042.396.075a6.554 6.554 0 0 0 1.745.004c.238-.032.397-.074.397-.074s-.158-.042-.396-.075a6.679 6.679 0 0 0-1.746-.004 3.44 3.44 0 0 0-.396.074m.642 4.01s.168-.095.401-.26a9.427 9.427 0 0 0 1.552-1.384c.19-.214.303-.37.303-.37s-.17.094-.402.259a9.235 9.235 0 0 0-1.552 1.385c-.19.212-.302.37-.302.37m5.719 4.334s.019-.275.015-.686a19.752 19.752 0 0 0-.259-2.99 9.79 9.79 0 0 0-.133-.672s-.018.275-.014.685a19.23 19.23 0 0 0 .259 2.99c.067.404.132.673.132.673m-4.261-1.541s.128-.211.293-.539a15.923 15.923 0 0 0 .987-2.492c.105-.352.156-.594.156-.594s-.13.21-.293.539a15.353 15.353 0 0 0-.988 2.492 7.892 7.892 0 0 0-.155.594" fill="#605579"/><path d="M123.625 36.116s3.23 3.15 4.136 5.6c.148.109-7.558 0-7.558 0l1.477-4.796s.23 1.841 1.945-.804" fill="#E89B60"/><path d="M123.625 36.116s3.23 3.15 4.136 5.6c.148.109-7.558 0-7.558 0l1.477-4.796s.23 1.841 1.945-.804z" stroke="#615D7A" stroke-width=".5"/><path d="M102.695 33.994c0-5.643 4.57-10.218 10.206-10.218 5.637 0 10.207 4.575 10.207 10.218 0 5.642-4.57 10.218-10.207 10.218-5.637 0-10.206-4.576-10.206-10.218" fill="#C4AFAD"/><path d="M108.474 34.224a4.331 4.331 0 0 1 4.328-4.333c2.391 0 4.33 1.94 4.33 4.333a4.331 4.331 0 0 1-4.33 4.334 4.331 4.331 0 0 1-4.328-4.334" fill="#FCCF87"/><path d="M116.385 34.334a2.726 2.726 0 1 0-5.45 0 2.726 2.726 0 1 0 5.45 0" fill="#362F52"/><path d="M108.474 34.136a4.331 4.331 0 0 1 4.328-4.333c2.391 0 4.33 1.94 4.33 4.333a4.332 4.332 0 0 1-4.33 4.334 4.332 4.332 0 0 1-4.328-4.334z" stroke="#605579" stroke-width=".5"/><path d="M102.634 34.025c0-5.65 4.574-10.23 10.217-10.23 5.644 0 10.218 4.58 10.218 10.23 0 5.649-4.574 10.229-10.218 10.229-5.643 0-10.217-4.58-10.217-10.23z" stroke="#605579" stroke-width=".526"/><path d="M113.945 29.165s.101-.258.223-.654a20.122 20.122 0 0 0 .665-2.95c.06-.408.079-.685.079-.685s-.102.258-.224.653a19.733 19.733 0 0 0-.664 2.95c-.06.409-.079.686-.079.686m-3.041 14.375s.094-.261.204-.66a20.2 20.2 0 0 0 .576-2.968c.046-.41.057-.69.057-.69s-.094.263-.204.661a19.857 19.857 0 0 0-.575 2.969c-.047.41-.058.688-.058.688m7.747-1.824s-.142-.238-.379-.577a19.98 19.98 0 0 0-1.92-2.334c-.285-.299-.493-.483-.493-.483s.142.239.38.577a19.621 19.621 0 0 0 1.92 2.334c.285.298.492.483.492.483m2.458-2.955s-.23-.155-.59-.359a20.15 20.15 0 0 0-2.735-1.283 9.894 9.894 0 0 0-.653-.224s.231.155.59.359a19.901 19.901 0 0 0 2.735 1.282c.386.147.653.225.653.225m1.279-3.44s-.27-.07-.675-.143a19.706 19.706 0 0 0-3.004-.308c-.413-.01-.69.003-.69.003s.268.07.674.144a19.76 19.76 0 0 0 3.004.308c.413.01.69-.004.69-.004m-.313-4.099s-.275.036-.68.12a19.74 19.74 0 0 0-2.901.836c-.388.145-.64.261-.64.261s.276-.035.68-.119a19.469 19.469 0 0 0 2.902-.836c.386-.145.639-.262.639-.262m-2.576-3.933s-.216.175-.516.457a19.935 19.935 0 0 0-2.035 2.234c-.255.326-.408.557-.408.557s.216-.174.517-.457a20.074 20.074 0 0 0 2.035-2.234c.253-.326.407-.557.407-.557m-9.429-2.092s.044.275.14.677a19.765 19.765 0 0 0 .928 2.876c.156.382.281.63.281.63s-.044-.274-.14-.676a19.983 19.983 0 0 0-.928-2.876c-.157-.382-.281-.63-.281-.63m-3.925 2.38s.192.2.5.476a19.925 19.925 0 0 0 2.4 1.836c.345.225.59.358.59.358s-.193-.2-.5-.476a19.751 19.751 0 0 0-2.4-1.836c-.347-.225-.59-.358-.59-.358m-2.062 3.495s.243.134.619.306a20.153 20.153 0 0 0 2.834 1.043c.398.112.67.167.67.167s-.243-.135-.618-.307a19.92 19.92 0 0 0-2.835-1.042c-.397-.112-.67-.167-.67-.167m-.334 4.137s.274.044.686.076a19.88 19.88 0 0 0 3.019.004c.412-.03.686-.073.686-.073s-.274-.043-.686-.075a20.16 20.16 0 0 0-3.019-.004c-.412.032-.686.073-.686.073m1.11 4.01s.263-.088.644-.249a19.565 19.565 0 0 0 2.684-1.385c.352-.216.576-.38.576-.38s-.264.089-.644.249a20.208 20.208 0 0 0-2.684 1.385c-.352.217-.576.38-.576.38m9.896 4.335s.001-.278-.029-.691a19.973 19.973 0 0 0-.448-2.99c-.092-.402-.175-.667-.175-.667s0 .278.028.69a20.018 20.018 0 0 0 .45 2.99c.092.402.174.668.174.668m-7.374-1.541s.19-.203.45-.524a20.03 20.03 0 0 0 1.708-2.494c.206-.357.327-.608.327-.608s-.19.203-.45.525a20.167 20.167 0 0 0-1.707 2.493c-.206.357-.327.608-.327.608" fill="#605579"/><path d="M115.54 33.468a.556.556 0 1 0-1.112 0 .556.556 0 0 0 1.112 0m15.813-.033c-.036-.304-.189-.537-.341-.518-.153.017-.248.279-.21.584.035.305.188.538.34.52.153-.019.247-.28.211-.586" fill="#FFF"/><path d="M123.332 39.303s.874-.38.824-1.665c0 0-.894.42-.824 1.665" fill="#615D7A"/></g></svg>