<svg width="120" height="120" viewBox="0 0 120 120" xmlns="http://www.w3.org/2000/svg" xmlns:xlink="http://www.w3.org/1999/xlink"><defs><path id="a" d="M1.224 1.408h52.747v48.964H1.224z"/><path id="c" d="M.532.652H18.86V36.19H.532z"/></defs><g fill="none" fill-rule="evenodd"><g transform="translate(38.022 1.497)"><mask id="b" fill="#fff"><use xlink:href="#a"/></mask><path d="M53.963 28.477c.363 11.76-12.785 21.503-26.203 21.884C14.344 50.744 1.599 41.3 1.234 29.54.87 17.78 10.627 1.866 26.246 1.42 44.496.898 53.6 16.715 53.963 28.477" fill="#FFCB57" mask="url(#b)"/></g><path d="M67.428 105.951a58.29 58.29 0 0 0-7.545-.863c-1.662-7.796-3.329-15.592-4.99-23.388-.554-2.606-4.546-1.501-3.994 1.097 1.58 7.417 3.165 14.836 4.75 22.253-1.096.03-2.193.086-3.292.181-2.64.227-2.662 4.356 0 4.128a58.11 58.11 0 0 1 5.267-.216c.643.343 1.663 1.254 2.288 1.87.831.826 1.602 1.725 2.14 2.767 1.224 2.367 4.797.28 3.576-2.082a13.782 13.782 0 0 0-1.341-2.086c.68.093 1.36.196 2.04.318 2.611.47 3.727-3.507 1.101-3.979" fill="#FA0"/><path d="M46.625 82.268c.783 5.364 4.292 9.299 7.837 8.783 3.545-.513 5.783-5.28 5-10.648-.784-5.365-4.295-9.297-7.838-8.785-3.545.517-5.783 5.284-5 10.65" fill="#E8AE46"/><path d="M54.483 48.767c2.1-3.447 7.287-14.527 9.206-10.514.625 1.307 1.246 9.055 1.15 14.718-.19 11.145-3.197 30.545-16.978 34.055C34.51 90.424 17.149 78.771 17 63.486c-.049-4.816 14.109 23.647 37.482-14.719" fill="#FFCB57"/><g transform="translate(32.289 83.402)"><mask id="d" fill="#fff"><use xlink:href="#c"/></mask><path d="M17.412 27.86a55.265 55.265 0 0 0-7.141-1.705c-.677-7.84-1.357-15.68-2.03-23.52C8.015.002 3.872-.02 4.1 2.635c.657 7.653 1.32 15.308 1.981 22.964a60.968 60.968 0 0 0-3.549-.238c-2.671-.101-2.662 4.026 0 4.125a54.37 54.37 0 0 1 4.948.42c1.627 1.058 3.156 3.2 3.777 4.881.917 2.476 4.92 1.404 3.994-1.097a16.36 16.36 0 0 0-1.193-2.49 51.01 51.01 0 0 1 2.254.64c2.557.797 3.64-3.19 1.1-3.98" fill="#FA0" mask="url(#d)"/></g><path d="M31.604 85.626c.783 5.365 4.292 9.299 7.837 8.784 3.545-.514 5.783-5.28 4.998-10.647-.784-5.366-4.293-9.3-7.838-8.785-3.543.514-5.781 5.282-4.997 10.648" fill="#FFCB57"/><path d="M45.379 58.88c-10.964.422-10.133 12.439-18.244 7.267-.51-.323-1.855-1.86-2.457-2.403-1.774-1.602-3.037 3.683.38 7.268-2.448-1.31-3.757-3.354-4.684-3.335-1.263.025-1.441 6.21 2.962 8.097-1.924-.07-4.59-2.508-4.434-.425.295 3.974 5.116 8.32 10.555 9.7 9.183 2.33 16.111-2.774 18.072-5.488 8.237-11.398 3.648-20.903-2.15-20.68" fill="#E8AE46"/><path d="M62.219 27.268c1.895 8.524 2.01 9.516 11.766 5.408 6.489-2.732 7.88-1.598 6.152-9.368-1.097-4.931-5.999-8.044-10.947-6.95-4.948 1.095-8.068 5.979-6.971 10.91" fill="#FFF"/><path d="M65.242 26.344c.417 3.272 3.417 5.586 6.699 5.17 3.283-.418 5.603-3.407 5.186-6.679-.418-3.27-3.419-5.585-6.7-5.168-3.281.418-5.603 3.406-5.185 6.677m-7.116-13.573a.886.886 0 0 1-.806-1.301c1.473-2.762 3.875-4.324 6.62-4.259.49.01.88.414.87.903a.882.882 0 0 1-.907.867c-2.041-.03-3.868 1.17-5.015 3.32a.888.888 0 0 1-.762.47" fill="#000"/><path d="M89.53 18.894c-2.915.78-3.502 4.19-2.558 7.682.943 3.491 3.165 6.15 6.082 5.37 2.914-.786 9.767-7.302 9.183-9.464-.581-2.16-9.793-4.371-12.707-3.588" fill="#FF9D00"/><path d="M63.63 38.366c-.411 2.689-3.618 4.434-7.161 3.895-3.542-.537-6.08-3.156-5.669-5.846.413-2.691 3.618-4.436 7.161-3.895 3.543.537 6.08 3.154 5.669 5.846" fill="#FFB0DD"/></g></svg>