<svg width="120" height="120" viewBox="0 0 120 120" xmlns="http://www.w3.org/2000/svg" xmlns:xlink="http://www.w3.org/1999/xlink"><defs><path id="a" d="M0 .73h110v41.533H0z"/><path d="M1.391 4.453c-.115.875-.213 1.679-.235 1.869-.05.428-.755.956-.755 1.735v4.123c0 .653-.401.804-.401 1.457 0 .654 1.257 2.716 2.564 2.866 1.307.151 22.371 1.76 23.73 1.76h64.071s17.372-1.91 17.724-2.212c.352-.302 1.911-4.374 1.911-6.033 0-1.66-.252-5.832-.503-6.586-.076-.228-.12-1.572-.16-3.344L1.391 4.453z" id="c"/><linearGradient x1="50%" y1="-2.072%" x2="50%" y2="84.229%" id="d"><stop stop-color="#BCE2FF" offset="0%"/><stop stop-color="#9ED4FF" offset="100%"/></linearGradient></defs><g fill="none" fill-rule="evenodd"><g transform="matrix(-1 0 0 1 117 37)"><mask id="b" fill="#fff"><use xlink:href="#a"/></mask><path d="M.402 32.058v4.122c0 .653-.402.805-.402 1.458 0 .653 1.257 2.715 2.564 2.865 1.307.152 22.372 1.76 23.73 1.76h64.07s17.373-1.91 17.725-2.212c.353-.302 1.91-4.374 1.91-6.033 0-1.66-.251-5.832-.502-6.586-.251-.754-.151-13.675-.754-14.127-.603-.452-10.406-10.306-11.312-10.91-.904-.603-23.226-1.76-30.466-1.658-7.24.1-15.836.804-19.205 2.112-3.367 1.307-8.244 3.519-12.567 6.283-4.325 2.766-9.603 6.637-10.91 6.989-1.308.35-6.385 1.005-11.262 2.513-4.876 1.509-6.385 2.338-7.466 3.469-1.081 1.132-2.136 2.564-2.438 2.79-.302.227-1.181.503-1.332 1.006-.151.503-.578 3.997-.63 4.424-.048.427-.753.956-.753 1.735" fill="#9ED5FF" mask="url(#b)"/></g><g transform="matrix(-1 0 0 1 117 61)"><mask id="e" fill="#fff"><use xlink:href="#c"/></mask><path d="M1.391 4.453c-.115.875-.213 1.679-.235 1.869-.05.428-.755.956-.755 1.735v4.123c0 .653-.401.804-.401 1.457 0 .654 1.257 2.716 2.564 2.866 1.307.151 22.371 1.76 23.73 1.76h64.071s17.372-1.91 17.724-2.212c.352-.302 1.911-4.374 1.911-6.033 0-1.66-.252-5.832-.503-6.586-.076-.228-.12-1.572-.16-3.344L1.391 4.453z" fill="url(#d)" mask="url(#e)"/></g><path d="M86.826 79.263a11.395 11.395 0 0 1-.39-2.915c0-6.31 5.114-11.423 11.423-11.423 6.308 0 11.423 5.114 11.423 11.423 0 .54-.05 1.068-.124 1.589-6.716.524-17.493 1.326-18.452 1.326h-3.88zM20.739 64.925c6.309 0 11.422 5.114 11.422 11.423 0 1.01-.143 1.982-.39 2.915h-5.136S12.1 77.665 9.357 77.16c-.019-.27-.041-.54-.041-.813 0-6.31 5.114-11.423 11.423-11.423" fill="#6D93B0"/><path d="M91.406 53.767c.151.49 5.021 4.012 6.508 4.589 1.406.547 10.723 2.246 11.994 2.432l.335.05c.906.139 1.969.296 2.879.2l.23.276c-.265.04-.541.058-.825.058-.78 0-1.604-.125-2.329-.234l-.334-.051c-1.309-.192-10.599-1.883-12.06-2.45-1.399-.544-6.467-4.071-6.686-4.78-.11-.357.307-.76.802-1.097.113.062.215.113.314.16-.518.334-.883.667-.828.847m-72.098 4.881c.584 1.58 3.005 2.778 5.808 4.165 1.19.588 2.417 1.197 3.628 1.89 3.731 2.139 5.356 7.828 5.967 9.969.076.26.136.473.184.623C35.405 76.876 37.3 77 37.87 77h16.218c.061-1.685.633-18.74-.88-24.749-1.46-5.797-1.598-11.643-1.61-12.634a204.764 204.764 0 0 0-3.147-.022h-1.042c-3.522 0-19.749.636-21.014.977-1.157.31-4.46 5.938-5.835 8.742-1.239 2.53-2.056 7.158-1.25 9.334zM82.11 77c.794 0 .912-.748 1.104-2.441.028-.245.057-.507.092-.782.262-2.095 1.09-9.325.753-14.413-.229-3.447-.903-5.493-1.35-6.847-.214-.65-.383-1.164-.422-1.597-.02-.236-.03-.452-.039-.652-.038-.88-.06-1.363-.956-2.028-1.49-1.106-8.284-5.55-14.314-7.102-4.303-1.107-10.154-1.43-15.08-1.514.014 1.004.153 6.803 1.602 12.554 1.52 6.035.953 23.072.891 24.823h27.72zM26.317 40.282c1.324-.358 17.47-.987 21.091-.987h1.042c5.4 0 13.203.16 18.603 1.55 6.077 1.565 12.918 6.038 14.418 7.152 1.012.751 1.04 1.382 1.078 2.257.008.197.017.408.037.64.035.4.201.897.41 1.527.45 1.37 1.133 3.435 1.363 6.923.34 5.115-.492 12.368-.755 14.47-.034.275-.063.535-.09.779-.186 1.631-.308 2.708-1.405 2.708H37.87c-.62 0-2.69-.136-3.26-1.913a20.014 20.014 0 0 1-.187-.634c-.603-2.108-2.203-7.71-5.829-9.79-1.202-.688-2.426-1.294-3.61-1.88-2.862-1.415-5.333-2.638-5.958-4.331-.913-2.468.12-7.237 1.263-9.57 1.053-2.15 4.58-8.513 6.03-8.901z" fill="#5FA2D6"/><path d="M88.206 76.348c0 5.33 4.322 9.652 9.653 9.652s9.653-4.321 9.653-9.652a9.653 9.653 0 0 0-9.653-9.653 9.653 9.653 0 0 0-9.653 9.653" fill="#404040"/><path d="M91.262 76.348a6.597 6.597 0 1 0 13.194 0 6.597 6.597 0 0 0-13.194 0" fill="#EFEFEF"/><path d="M11.086 76.348c0 5.33 4.322 9.652 9.653 9.652 5.33 0 9.652-4.321 9.652-9.652 0-5.332-4.322-9.653-9.652-9.653a9.653 9.653 0 0 0-9.653 9.653" fill="#404040"/><path d="M14.142 76.348a6.597 6.597 0 1 0 13.194 0 6.597 6.597 0 0 0-13.194 0" fill="#EFEFEF"/><path d="M55.515 53.693c-.454-.006-.732-.228-.905-.748-1.539-4.625-1.659-10.607-1.76-11.412-.07-.563-.066-.983.09-1.18a.326.326 0 0 1 .283-.121c6.856.25 12.835.97 15.144 1.866 2.03.787 7.273 2.955 12.141 6.068a203.47 203.47 0 0 1 4.263 2.83c1.026.697 2.565 3.03.656 3.03-.85 0-14.698-.15-29.912-.334m-5.514-13.544c.268.004.533.011.8.016.177.088.318.468.265 1.996-.076 2.163 1.03 9.553 1.081 10.458.05.903-.4 1.028-.4 1.028-10.812-.131-21.716-.276-29.539-.276-1.13 0-1.426-.891-1.315-1.314.26-.993.587-1.922.953-2.667 1.031-2.107 3.15-5.799 4.631-7.638.291-.361 1.617-.881 2.04-.901 7.505-.345 16.47-.708 20.547-.708.336 0 .648.003.937.006" fill="#4F4F4F"/><path d="M114.637 62.86c.163.149.98 4.752.49 4.865-.49.114-4.336-.49-5.165-.792-.83-.302-2.45-4.148-2.45-4.525 0-.376-.039-.866.715-.791.754.075 5.717.617 6.41 1.244" fill="#FFF"/><path d="M114.055 74.21c-1 0-2.013-.81-2.262-1.81l-.34-1.368c-.25-.999.358-1.809 1.358-1.809h3.787v3.957c0 .482.218.692.332 1.03h-2.875z" fill="#4F4F4F"/><path d="M7.882 53.293h2.664c.444 0 .782.36.755.803l-.532 8.801a.864.864 0 0 1-.85.802h-2.34c.107-1.927.137-7.078.303-10.406" fill="#F26914"/><path d="M56.844 56.694c-.026.584.945 1.105 2.173 1.163 1.226.058 2.243-.369 2.271-.953.029-.585-.944-1.106-2.171-1.164-1.227-.058-2.244.37-2.273.954" fill="#5FA2D6"/><path d="M56.116 56.66c-.015.297 1.296.602 2.924.68 1.63.076 2.963-.104 2.977-.402.014-.298-1.297-.602-2.925-.679-1.629-.078-2.962.102-2.976.4" fill="#BDE2FF"/><path d="M22.608 56.137c-.027.584.945 1.105 2.173 1.163 1.226.058 2.244-.368 2.272-.953.027-.584-.945-1.106-2.173-1.164-1.227-.058-2.244.37-2.272.954" fill="#5FA2D6"/><path d="M21.88 56.102c-.014.299 1.296.603 2.924.68 1.63.077 2.963-.103 2.977-.401.014-.298-1.296-.602-2.924-.678-1.63-.078-2.963.1-2.977.399" fill="#BDE2FF"/></g></svg>