<svg width="136" height="142" viewBox="0 0 136 142" xmlns="http://www.w3.org/2000/svg"><g fill="none"><path d="M97.368 80.318c2.76-2.285 6.8-5.295 7.544-5.85 2.604-1.93 4.976-4.107 7.572-6.04.8.629-1.508 1.965-1.48 2.474.064 1.224 2.292-1.145 2.676-.845.384.3-1.648 1.753-1.456 2.445.752.228 2.4-1.096 2.608-.756.208.34-7.956 7.431-13.34 11.874-.936.772-7.388 7.103-9.236 4.61-1.848-2.493 4.492-7.396 5.112-7.912z" fill="#BE0A3C"/><path d="M107.94 73.695s-1.104-1.04-.576-2.922c.12-.42.904-2.133 1.392-1.88.488.252-.304 1.036-.264 1.72.04.685 1.048.285 2 1.309s-.772 4.406-2.552 1.773z" fill="#82001E"/><path d="M38.6 78.87c-2.348-2.002-4.8-4.003-5.348-4.403-2.604-1.929-4.976-4.106-7.572-6.039-.8.629 1.508 1.965 1.48 2.474-.064 1.224-2.292-1.145-2.676-.845-.384.3 1.648 1.753 1.456 2.445-.752.228-2.4-1.096-2.608-.756-.208.34 7.808 7.303 13.2 11.75.996.824 5.396 6.002 8.208 3.601 2.812-2.4-4.652-6.975-6.14-8.228z" fill="#BE0A3C"/><path d="M30.232 73.695s1.104-1.04.576-2.922c-.12-.42-.904-2.133-1.392-1.88-.488.252.304 1.036.264 1.72-.04.685-1.048.285-2 1.309s.776 4.406 2.552 1.773zM89.116 108.5c2.652-2.734 7.864 5.094 7.864 5.094l11.2 16.244 1.432-1.2s.684-.24.4.503c-.088.233-3.696 2.758-3.696 2.758s-10.696-9.809-15.68-16.808c-2.22-3.126-2.34-5.743-1.52-6.591zm-38.424-4.102c-3.056-4.423-6.744 2.64-6.744 2.64-2.052 4.623-10.376 22.768-11.6 23.812-.532-.228-.8-.8-1.364-.928-.276.132-.528.248-.428.66.16.116 2.988 2.285 3.104 2.465.304 0 11.252-11.841 15.836-20.53 1.764-3.353 2.048-6.883 1.196-8.12zm15.852-85.642S80.688 33.1 80.832 34.364c-1.484.044-24.456 4.122-24.456 4.122L36.48 33.247l30.064-14.49z" fill="#82001E"/><path d="M81.228 6.319l-26.156-.4c0 .331-.252 5.602.152 6.09.692.8 12.028 1.297 15.036 1.505 1.4.1 11.2-1.425 11.2-1.425s-.092-5.114-.232-5.77z" fill="#BE0A3C"/><path d="M36.48 33.247l18.744-21.21s12.692 3.602 15 6.123C66.016 20.958 36.48 33.247 36.48 33.247z" fill="#FFC800"/><path d="M99.368 34.188c-1.348.184-15.456 2.257-15.456 2.257l-8.424-2.43S61 18.38 55.156 12.006c2-.704 26.304.084 26.304.084s15.612 18.325 17.908 22.099z" fill="#F01446"/><path d="M99.024 116.755l-22.672.5L64.976 79.49l10.512-45.474 23.88.172s.312 52.653.12 62.106l-.464 20.461z" fill="#BE0A3C"/><path d="M75.488 34.016s-34-.865-39.008-.769c-.256 4.675 2.088 59.385 2.6 69.05.128 2.4.136 4.778.204 7.167.036 1.273.336 6.803.336 6.803s2.736.06 3.924.108c2.264.088 4.524.292 6.8.352 4.58.117 9.148.18 13.728.36 2.12.085 12.288.177 12.288.177l-.872-83.248z" fill="#F01446"/><path d="M68.328 42.304s-21.5-.62-24.672-.552c-.164 3.35 1.504 61.585 2 62.43.496.844 1.728.54 2.48.572 1.432.064 2.86.212 4.296.252 2.896.084 5.788.128 8.684.26 1.34.06 7.772.128 7.772.128l-.56-63.09z" fill="#FFF"/></g></svg>