<svg width="120" height="120" viewBox="0 0 120 120" xmlns="http://www.w3.org/2000/svg"><path d="M85.618 80.149c-2.345 13.733-13.351 23.656-27.474 23.407-2.278-16.89 5.444-36.032 7.67-52.035C67.88 36.658 67.39 12.268 50.671 5.446c-.514-.21-.875.652-.379.898 9.942 4.956 13.657 17.51 14.462 27.813.858 11.003-1.417 21.91-3.819 32.582-2.475 11.002-6.596 25.67-4.754 38.24-15.65.044-23.527-15.296-21.272-29.476C37.006 62.32 45.898 52.597 52.668 41.67c4.733-7.641 7.949-16.757 3.955-25.433-1.764-3.83-4.694-7.179-8.345-9.319-3.995-2.343-8.64-2.875-13.033-4.148 12.16-1.166 24.23-1.926 33.456 7.96 8.284 8.876 12.343 20.706 14.597 32.42 2.25 11.707 4.35 25.121 2.32 36.998m.168-35.114c-2.336-13.389-6.842-27.37-16.96-36.979-10.108-9.599-24.47-8.992-37.267-6.443-.4.081-.562.451-.53.803-.107.493.07 1.08.658 1.324 6.317 2.613 13.53 2.462 18.785 7.355 5.466 5.088 7.069 12.41 5.232 19.495-3.2 12.336-13.95 21.648-19.113 33.157-4.205 9.372-5.884 20.608-1.212 30.158 3.856 7.883 12.132 13.333 20.987 12.247.901 5.043 2.822 9.71 6.273 13.617.576.651 1.715-.208 1.216-.937-2.85-4.155-4.528-8.618-5.39-13.272 12.177.312 23.274-6.884 27.56-18.407 4.825-12.98 2.076-28.846-.24-42.118" fill="#3C3C3B" fill-rule="evenodd"/></svg>