<svg width="120" height="120" viewBox="0 0 120 120" xmlns="http://www.w3.org/2000/svg" xmlns:xlink="http://www.w3.org/1999/xlink"><defs><path d="M99.75 81.889c0 9.61-7.893 17.471-17.54 17.471H17.647c-9.646 0-17.54-7.862-17.54-17.47V17.583C.107 7.973 8.001.111 17.648.111h64.561c9.648 0 17.54 7.863 17.54 17.472v64.306z" id="a"/><path d="M99.75 81.889c0 9.61-7.893 17.471-17.54 17.471H17.647c-9.646 0-17.54-7.862-17.54-17.47V17.583C.107 7.973 8.001.111 17.648.111h64.561c9.648 0 17.54 7.863 17.54 17.472v64.306z" id="c"/><path d="M99.75 81.889c0 9.61-7.893 17.471-17.54 17.471H17.647c-9.646 0-17.54-7.862-17.54-17.47V17.583C.107 7.973 8.001.111 17.648.111h64.561c9.648 0 17.54 7.863 17.54 17.472v64.306z" id="e"/><path d="M99.75 81.889c0 9.61-7.893 17.471-17.54 17.471H17.647c-9.646 0-17.54-7.862-17.54-17.47V17.583C.107 7.973 8.001.111 17.648.111h64.561c9.648 0 17.54 7.863 17.54 17.472v64.306z" id="g"/><path d="M99.75 81.889c0 9.61-7.893 17.471-17.54 17.471H17.647c-9.646 0-17.54-7.862-17.54-17.47V17.583C.107 7.973 8.001.111 17.648.111h64.561c9.648 0 17.54 7.863 17.54 17.472v64.306z" id="i"/><path d="M99.75 81.889c0 9.61-7.893 17.471-17.54 17.471H17.647c-9.646 0-17.54-7.862-17.54-17.47V17.583C.107 7.973 8.001.111 17.648.111h64.561c9.648 0 17.54 7.863 17.54 17.472v64.306z" id="k"/><path d="M99.75 81.889c0 9.61-7.893 17.471-17.54 17.471H17.647c-9.646 0-17.54-7.862-17.54-17.47V17.583C.107 7.973 8.001.111 17.648.111h64.561c9.648 0 17.54 7.863 17.54 17.472v64.306z" id="m"/><path d="M99.75 81.889c0 9.61-7.893 17.471-17.54 17.471H17.647c-9.646 0-17.54-7.862-17.54-17.47V17.583C.107 7.973 8.001.111 17.648.111h64.561c9.648 0 17.54 7.863 17.54 17.472v64.306z" id="o"/><path d="M99.75 81.889c0 9.61-7.893 17.471-17.54 17.471H17.647c-9.646 0-17.54-7.862-17.54-17.47V17.583C.107 7.973 8.001.111 17.648.111h64.561c9.648 0 17.54 7.863 17.54 17.472v64.306z" id="q"/><path d="M99.75 81.889c0 9.61-7.893 17.471-17.54 17.471H17.647c-9.646 0-17.54-7.862-17.54-17.47V17.583C.107 7.973 8.001.111 17.648.111h64.561c9.648 0 17.54 7.863 17.54 17.472v64.306z" id="s"/><path d="M99.75 81.889c0 9.61-7.893 17.471-17.54 17.471H17.647c-9.646 0-17.54-7.862-17.54-17.47V17.583C.107 7.973 8.001.111 17.648.111h64.561c9.648 0 17.54 7.863 17.54 17.472v64.306z" id="u"/><path d="M99.75 81.889c0 9.61-7.893 17.471-17.54 17.471H17.647c-9.646 0-17.54-7.862-17.54-17.47V17.583C.107 7.973 8.001.111 17.648.111h64.561c9.648 0 17.54 7.863 17.54 17.472v64.306z" id="w"/><path d="M99.75 81.889c0 9.61-7.893 17.471-17.54 17.471H17.647c-9.646 0-17.54-7.862-17.54-17.47V17.583C.107 7.973 8.001.111 17.648.111h64.561c9.648 0 17.54 7.863 17.54 17.472v64.306z" id="y"/><path d="M99.75 81.889c0 9.61-7.893 17.471-17.54 17.471H17.647c-9.646 0-17.54-7.862-17.54-17.47V17.583C.107 7.973 8.001.111 17.648.111h64.561c9.648 0 17.54 7.863 17.54 17.472v64.306z" id="A"/><path d="M99.75 81.889c0 9.61-7.893 17.471-17.54 17.471H17.647c-9.646 0-17.54-7.862-17.54-17.47V17.583C.107 7.973 8.001.111 17.648.111h64.561c9.648 0 17.54 7.863 17.54 17.472v64.306z" id="C"/><path d="M99.75 81.889c0 9.61-7.893 17.471-17.54 17.471H17.647c-9.646 0-17.54-7.862-17.54-17.47V17.583C.107 7.973 8.001.111 17.648.111h64.561c9.648 0 17.54 7.863 17.54 17.472v64.306z" id="E"/><path d="M99.75 81.889c0 9.61-7.893 17.471-17.54 17.471H17.647c-9.646 0-17.54-7.862-17.54-17.47V17.583C.107 7.973 8.001.111 17.648.111h64.561c9.648 0 17.54 7.863 17.54 17.472v64.306z" id="G"/><path d="M99.75 81.889c0 9.61-7.893 17.471-17.54 17.471H17.647c-9.646 0-17.54-7.862-17.54-17.47V17.583C.107 7.973 8.001.111 17.648.111h64.561c9.648 0 17.54 7.863 17.54 17.472v64.306z" id="I"/><path d="M99.75 81.889c0 9.61-7.893 17.471-17.54 17.471H17.647c-9.646 0-17.54-7.862-17.54-17.47V17.583C.107 7.973 8.001.111 17.648.111h64.561c9.648 0 17.54 7.863 17.54 17.472v64.306z" id="K"/><path d="M99.75 81.889c0 9.61-7.893 17.471-17.54 17.471H17.647c-9.646 0-17.54-7.862-17.54-17.47V17.583C.107 7.973 8.001.111 17.648.111h64.561c9.648 0 17.54 7.863 17.54 17.472v64.306z" id="M"/></defs><g fill="none" fill-rule="evenodd"><path d="M117.14 99.319c0 10.906-8.959 19.829-19.908 19.829H23.96c-10.95 0-19.908-8.923-19.908-19.83V26.337c0-10.906 8.959-19.829 19.908-19.829h73.272c10.95 0 19.908 8.923 19.908 19.83V99.32z" fill="#774111"/><path d="M115.646 98.354c0 10.619-8.722 19.306-19.382 19.306H24.928c-10.66 0-19.383-8.687-19.383-19.306V27.3c0-10.618 8.723-19.305 19.383-19.305h71.336c10.66 0 19.382 8.687 19.382 19.305v71.054z" fill="#B47F44"/><path d="M115.272 98.113c0 10.546-8.662 19.175-19.25 19.175H25.17c-10.588 0-19.25-8.629-19.25-19.175V27.541c0-10.546 8.662-19.174 19.25-19.174h70.852c10.588 0 19.25 8.628 19.25 19.174v70.572z" stroke="#FCEBDB" stroke-width="1.139"/><path d="M111.2 95.485c0 9.76-8.018 17.746-17.817 17.746H27.809c-9.799 0-17.816-7.986-17.816-17.746V30.17c0-9.76 8.017-17.746 17.816-17.746h65.574c9.8 0 17.816 7.985 17.816 17.746v65.315z" fill="#774111"/><path d="M110.452 95.003c0 9.616-7.899 17.484-17.553 17.484H28.293c-9.655 0-17.553-7.868-17.553-17.484V30.652c0-9.616 7.898-17.484 17.553-17.484h64.606c9.654 0 17.553 7.868 17.553 17.484v64.35z" fill="#F7E490"/><g transform="translate(10.667 13.092)"><mask id="b" fill="#fff"><use xlink:href="#a"/></mask><path fill="#FFF6CF" mask="url(#b)" d="M50.025 49.816L47.65-3.482 45.272-56.78h9.506L52.4-3.482z"/></g><g transform="translate(10.667 13.092)"><mask id="d" fill="#fff"><use xlink:href="#c"/></mask><path fill="#FFF6CF" mask="url(#d)" d="M50.045 49.782L31.249-.176 12.454-50.134l4.52-1.463 4.52-1.463L35.77-1.64z"/></g><g transform="translate(10.667 13.092)"><mask id="f" fill="#fff"><use xlink:href="#e"/></mask><path fill="#FFF6CF" mask="url(#f)" d="M50.054 49.744L16.679 8.017l-33.375-41.729 3.845-2.782 3.845-2.783 29.53 44.51z"/></g><g transform="translate(10.667 13.092)"><mask id="h" fill="#fff"><use xlink:href="#g"/></mask><path fill="#FFF6CF" mask="url(#h)" d="M50.05 49.705L5.363 20.293-39.324-9.121l2.794-3.83 2.793-3.83L8.157 16.462z"/></g><g transform="translate(10.667 13.092)"><mask id="j" fill="#fff"><use xlink:href="#i"/></mask><path fill="#FFF6CF" mask="url(#j)" d="M50.035 49.67L-1.59 35.45l-51.626-14.218 1.47-4.503 1.469-4.502L-.122 30.948z"/></g><g transform="translate(10.667 13.092)"><mask id="l" fill="#fff"><use xlink:href="#k"/></mask><path fill="#FFF6CF" mask="url(#l)" d="M50.01 49.64L-3.5 52.007l-53.51 2.367v-9.468l53.51 2.367z"/></g><g transform="translate(10.667 13.092)"><mask id="n" fill="#fff"><use xlink:href="#m"/></mask><path fill="#FFF6CF" mask="url(#n)" d="M49.976 49.62L-.181 68.342l-50.156 18.72-1.469-4.502-1.468-4.503L-1.65 63.84z"/></g><g transform="translate(10.667 13.092)"><mask id="p" fill="#fff"><use xlink:href="#o"/></mask><path fill="#FFF6CF" mask="url(#p)" d="M49.937 49.611L8.044 82.854l-41.893 33.243-2.794-3.83-2.794-3.83L5.25 79.024z"/></g><g transform="translate(10.667 13.092)"><mask id="r" fill="#fff"><use xlink:href="#q"/></mask><path fill="#FFF6CF" mask="url(#r)" d="M49.899 49.615l-29.53 44.51-29.53 44.51-3.845-2.782-3.845-2.783 33.375-41.728z"/></g><g transform="translate(10.667 13.092)"><mask id="t" fill="#fff"><use xlink:href="#s"/></mask><path fill="#FFF6CF" mask="url(#t)" d="M49.862 49.63l-14.275 51.42-14.275 51.42-4.52-1.462-4.52-1.463 18.795-49.958z"/></g><g transform="translate(10.667 13.092)"><mask id="v" fill="#fff"><use xlink:href="#u"/></mask><path fill="#FFF6CF" mask="url(#v)" d="M49.833 49.655l2.376 53.299 2.377 53.298H45.08l2.377-53.298z"/></g><g transform="translate(10.667 13.092)"><mask id="x" fill="#fff"><use xlink:href="#w"/></mask><path fill="#FFF6CF" mask="url(#x)" d="M49.813 49.69l18.796 49.958 18.795 49.957-4.52 1.463-4.52 1.462-14.276-51.42z"/></g><g transform="translate(10.667 13.092)"><mask id="z" fill="#fff"><use xlink:href="#y"/></mask><path fill="#FFF6CF" mask="url(#z)" d="M49.804 49.727l33.375 41.728 33.375 41.728-3.846 2.782-3.845 2.782-29.53-44.51z"/></g><g transform="translate(10.667 13.092)"><mask id="B" fill="#fff"><use xlink:href="#A"/></mask><path fill="#FFF6CF" mask="url(#B)" d="M49.807 49.766l44.688 29.413 44.687 29.413-2.794 3.83-2.794 3.83-41.893-33.243z"/></g><g transform="translate(10.667 13.092)"><mask id="D" fill="#fff"><use xlink:href="#C"/></mask><path fill="#FFF6CF" mask="url(#D)" d="M49.823 49.802l51.625 14.219 51.624 14.218-1.468 4.503-1.468 4.502-50.157-18.721z"/></g><g transform="translate(10.667 13.092)"><mask id="F" fill="#fff"><use xlink:href="#E"/></mask><path fill="#FFF6CF" mask="url(#F)" d="M49.848 49.832l53.511-2.368 53.508-2.367v9.468l-53.508-2.367z"/></g><g transform="translate(10.667 13.092)"><mask id="H" fill="#fff"><use xlink:href="#G"/></mask><path fill="#FFF6CF" mask="url(#H)" d="M49.882 49.851l50.157-18.721 50.155-18.721 1.469 4.502 1.468 4.502-51.624 14.219z"/></g><g transform="translate(10.667 13.092)"><mask id="J" fill="#fff"><use xlink:href="#I"/></mask><path fill="#FFF6CF" mask="url(#J)" d="M49.92 49.86l41.894-33.243 41.892-33.243 2.795 3.83 2.793 3.83-44.687 29.413z"/></g><g transform="translate(10.667 13.092)"><mask id="L" fill="#fff"><use xlink:href="#K"/></mask><path fill="#FFF6CF" mask="url(#L)" d="M49.96 49.857L79.49 5.346l29.528-44.51 3.845 2.783 3.845 2.782L83.334 8.128z"/></g><g transform="translate(10.667 13.092)"><mask id="N" fill="#fff"><use xlink:href="#M"/></mask><path fill="#FFF6CF" mask="url(#N)" d="M49.995 49.841L64.271-1.58 78.546-53l4.52 1.463 4.52 1.462L68.79-.117z"/></g><path d="M90.67 9.036c0 4.725-3.847 8.556-8.592 8.556H39.122c-4.744 0-8.591-3.83-8.591-8.556 0-4.725 3.847-8.556 8.591-8.556h42.956c4.745 0 8.591 3.83 8.591 8.556" fill="#B47F44"/><path d="M90.785 9.036c0 4.745-3.861 8.592-8.625 8.592H39.032c-4.764 0-8.626-3.847-8.626-8.592 0-4.745 3.862-8.591 8.626-8.591H82.16c4.764 0 8.625 3.846 8.625 8.591z" stroke="#562802" stroke-width=".909"/><path d="M88.258 9.036c0 3.563-3.539 6.45-7.904 6.45H40.837c-4.364 0-7.903-2.887-7.903-6.45 0-3.562 3.539-6.45 7.903-6.45h39.517c4.365 0 7.904 2.888 7.904 6.45" fill="#774111"/><path d="M88.258 9.036c0 3.563-3.539 6.45-7.904 6.45H40.837c-4.364 0-7.903-2.887-7.903-6.45 0-3.562 3.539-6.45 7.903-6.45h39.517c4.365 0 7.904 2.888 7.904 6.45z" stroke="#562802" stroke-width=".909"/><path d="M90.327 9.013c0 4.45-3.795 8.057-8.476 8.057H39.468c-4.682 0-8.477-3.608-8.477-8.057 0-4.45 3.795-8.057 8.477-8.057H81.85c4.68 0 8.476 3.608 8.476 8.057z" stroke="#FCCDA9" stroke-width=".909"/></g></svg>