<svg width="120" height="120" viewBox="0 0 120 120" xmlns="http://www.w3.org/2000/svg"><g fill="none" fill-rule="evenodd"><path fill="#58BE00" d="M17.393 10.376h6.376V4h-6.376z"/><path fill="#70A100" d="M23.77 16.752h6.375v-6.376H23.77zm63.758 0h6.375v-6.376h-6.375z"/><path fill="#72C621" d="M30.145 23.128h6.376v-6.376h-6.376zm12.752 0h6.376v-6.376h-6.376z"/><path fill="#58BE00" d="M49.273 23.128h6.375v-6.376h-6.375zm6.375 0h6.377v-6.376h-6.377z"/><path fill="#58BE00" d="M62.025 23.128h6.376v-6.376h-6.376z"/><path fill="#58BE00" d="M68.4 23.128h6.376v-6.376H68.4zm12.752 0h6.376v-6.376h-6.376z"/><path fill="#72C621" d="M36.521 29.504h6.376v-6.376h-6.376z"/><path fill="#58BE00" d="M42.897 29.504h6.376v-6.376h-6.376zm6.376 0h6.375v-6.376h-6.375z"/><path fill="#366171" d="M55.648 29.504h6.377v-6.376h-6.377z"/><path fill="#58BE00" d="M62.025 29.504h6.376v-6.376h-6.376z"/><path fill="#58BE00" d="M68.4 29.504h6.376v-6.376H68.4z"/><path fill="#58BE00" d="M74.776 29.504h6.376v-6.376h-6.376z"/><path fill="#72C621" d="M30.145 35.879h6.376v-6.375h-6.376z"/><path fill="#58BE00" d="M36.521 35.879h6.376v-6.375h-6.376zm6.376 0h6.376v-6.375h-6.376zm6.376 0h6.375v-6.375h-6.375z"/><path fill="#70A100" d="M55.648 35.879h6.377v-6.375h-6.377z"/><path fill="#58BE00" d="M62.025 35.879h6.376v-6.375h-6.376z"/><path fill="#58BE00" d="M68.4 35.879h6.376v-6.375H68.4z"/><path fill="#58BE00" d="M74.776 35.879h6.376v-6.375h-6.376zm6.376 0h6.376v-6.375h-6.376z"/><path fill="#70A100" d="M23.77 42.255h6.375v-6.376H23.77z"/><path fill="#58BE00" d="M30.145 42.255h6.376v-6.376h-6.376zm6.376 0h6.376v-6.376h-6.376z"/><path fill="#FFF" d="M42.897 42.255h6.376v-6.376h-6.376z"/><path fill="#58BE00" d="M49.273 42.255h6.375v-6.376h-6.375zm6.375 0h6.377v-6.376h-6.377z"/><path fill="#58BE00" d="M62.025 42.255h6.376v-6.376h-6.376z"/><path fill="#FFF" d="M68.4 42.255h6.376v-6.376H68.4z"/><path fill="#58BE00" d="M74.776 42.255h6.376v-6.376h-6.376zm6.376 0h6.376v-6.376h-6.376z"/><path fill="#70A100" d="M87.528 42.255h6.375v-6.376h-6.375z"/><path fill="#58BE00" d="M17.394 48.632h6.376v-6.377h-6.376zm12.751 0h6.376v-6.377h-6.376zm6.376 0h6.376v-6.377h-6.376z"/><path fill="#70A100" d="M42.897 48.632h6.376v-6.377h-6.376z"/><path fill="#58BE00" d="M49.273 48.632h6.375v-6.377h-6.375zm6.375 0h6.377v-6.377h-6.377z"/><path fill="#58BE00" d="M62.025 48.632h6.376v-6.377h-6.376z"/><path fill="#70A100" d="M68.4 48.632h6.376v-6.377H68.4z"/><path fill="#58BE00" d="M74.776 48.632h6.376v-6.377h-6.376zm6.376 0h6.376v-6.377h-6.376zm-63.758 6.376h6.376v-6.376h-6.376zm12.751 0h6.376v-6.376h-6.376z"/><path fill="#70A100" d="M36.521 55.008h6.376v-6.376h-6.376z"/><path fill="#58BE00" d="M42.897 55.008h6.376v-6.376h-6.376z"/><path fill="#70A100" d="M49.273 55.008h6.375v-6.376h-6.375z"/><path fill="#58BE00" d="M55.648 55.008h6.377v-6.376h-6.377z"/><path fill="#70A100" d="M62.025 55.008h6.376v-6.376h-6.376z"/><path fill="#58BE00" d="M68.4 55.008h6.376v-6.376H68.4z"/><path fill="#70A100" d="M74.776 55.008h6.376v-6.376h-6.376z"/><path fill="#58BE00" d="M81.152 55.008h6.376v-6.376h-6.376zm-63.758 6.375h6.376v-6.375h-6.376zm12.751 0h6.376v-6.375h-6.376zm51.007 0h6.376v-6.375h-6.376z"/><path fill="#70A100" d="M36.521 67.759h6.376v-6.376h-6.376zm38.255 0h6.376v-6.376h-6.376z"/><path fill="#58BE00" d="M42.897 74.135h6.376v-6.376h-6.376zm25.503 0h6.376v-6.376H68.4zm25.503-63.759h6.377V4h-6.377zm0 38.256h6.376v-6.377h-6.376zm0 6.376h6.376v-6.376h-6.376zm0 6.375h6.376v-6.375h-6.376z"/><path d="M4.618 91.26v4.62H0v13.854h4.618V95.88h13.855v-4.62H4.618zm4.619 9.238v4.618h4.619v4.618H4.618v4.618h9.238v-4.618h4.617v-9.236H9.237zm20.874-4.619h9.237V91.26h-9.237v4.619zm9.237 0v4.618h-9.237v-4.618h-4.618v18.473h4.618v-9.237h9.237v9.237h4.618V95.879h-4.618zm29.888-4.619v4.62H64.62v4.618H60v4.618h4.62v-4.618h4.616v13.854h4.62V91.26h-4.62zm-18.473 0v23.092h4.618v-13.854h4.62V95.88h-4.62v-4.62h-4.618zm30.001 0v23.092H94.62v-4.618h-9.237v-4.618h9.237v-4.618h-9.237V95.88h9.237v-4.62zm20.762 0v23.092h4.62v-9.236h9.235v-4.618H120V95.88h-4.618v4.618h-9.235V95.88h9.235v-4.62h-13.855zm9.238 18.474h4.618v-4.62h-4.618v4.62zm4.617 4.618H120v-4.618h-4.618v4.618z" fill="#366171"/></g></svg>