<svg width="120" height="120" viewBox="0 0 120 120" xmlns="http://www.w3.org/2000/svg" xmlns:xlink="http://www.w3.org/1999/xlink"><defs><path id="a" d="M.484.113h4.968V3H.484z"/><path id="c" d="M0 0h84.67v110.204H0z"/><path id="e" d="M.242.75H6.86v8.514H.241z"/></defs><g fill="none" fill-rule="evenodd"><path d="M54.344 116.626a.445.445 0 0 1-.446-.431c-.074-2.288 1.475-8.547 1.542-8.811a.445.445 0 1 1 .865.215c-.016.064-1.585 6.402-1.516 8.567a.446.446 0 0 1-.43.46h-.015zm14.416 1.844a.447.447 0 0 1-.424-.305c-.726-2.172-1.036-8.61-1.048-8.884a.443.443 0 0 1 .424-.466.44.44 0 0 1 .466.425c.003.066.316 6.588 1.005 8.642a.448.448 0 0 1-.424.587" fill="#434040"/><path d="M52.104 114.783c-1.185 0-1.975.442-2.168 1.213a.814.814 0 0 0 .157.711c.558.715 2.212.751 2.538.751.62 0 2.087-.094 2.342-.963a.855.855 0 0 0-.155-.765c-.462-.615-1.742-.947-2.714-.947" fill="#434040"/><g transform="translate(64 117)"><mask id="b" fill="#fff"><use xlink:href="#a"/></mask><path d="M3.678.113c-.933 0-2.152.292-2.775.944-.29.305-.436.668-.418 1.054.011.268.171.89 1.39.89 1.03 0 2.573-.445 3.23-1.105.231-.233.35-.486.347-.75C5.45.498 4.786.112 3.678.112" fill="#434040" mask="url(#b)"/></g><g transform="translate(18)"><mask id="d" fill="#fff"><use xlink:href="#c"/></mask><path d="M34.98 3.01C33.468.63 19.599-1.683 14.905 1.707 10.212 5.095-5.693 53.852 2.128 60.37c7.823 6.52 37.807 11.474 37.807 11.474s-8.865 30.768-6.518 33.374c2.346 2.606 19.293 7.038 21.639 3.91C57.404 106 66.269 75.234 66.269 75.234s9.126 3.65 12.515.52c3.389-3.13 7.439-18.403 5.28-20.924-2.348-2.737-12.516-5.474-12.516-5.474s9.779-34.026 7.43-36.96C76.405 9.176 61.382 3.988 56.1 7.312c-2.985 1.88-7.56 31.94-9.646 32.462-2.086.52-18.251-2.868-18.513-6.258-.261-3.39 8.409-28.355 7.04-30.506" fill="#F48EB8" mask="url(#d)"/></g><path d="M48.03 46.163a.802.802 0 0 0 .086.106l.269.322c.237.274.585.66 1.029 1.064.446.403.989.817 1.607 1.162.313.168.637.33.982.458.333.133.728.234 1.052.316.216.04.467.102.654.126.174.018.347.03.518.062.377.03.75.044 1.11.022a7.733 7.733 0 0 0 1.039-.116c.326-.067.639-.133.924-.223.28-.096.545-.181.772-.278.223-.1.424-.183.582-.265a97.08 97.08 0 0 1 .466-.245l.262-.09a.681.681 0 0 1 .758 1.062l-.132.172c-.081.098-.195.24-.354.406a6.752 6.752 0 0 1-1.491 1.145 7.722 7.722 0 0 1-2.538.902 10.48 10.48 0 0 1-1.531.11c-.277-.011-.555-.042-.834-.068-.265-.03-.461-.075-.697-.112a6.838 6.838 0 0 1-1.554-.474 6.374 6.374 0 0 1-1.365-.75 7.336 7.336 0 0 1-1.9-1.92 6.826 6.826 0 0 1-.837-1.668c-.14-.413-.191-.725-.188-.708a.705.705 0 0 1 1.312-.518m-6.009-3.188a2.866 2.866 0 0 0-2.142-3.444 2.869 2.869 0 1 0 2.142 3.444" fill="#434040"/><path d="M37.291 42.129a.659.659 0 0 1-.195-.03c-1.406-.43-2.4-1.628-2.442-1.68a.67.67 0 0 1 1.034-.847c.007.008.788.939 1.8 1.249a.669.669 0 0 1-.197 1.308m1.487-.722a.663.663 0 0 1-.405-.138c-.995-.759-1.59-3.246-1.7-3.736a.668.668 0 1 1 1.306-.291c.265 1.186.8 2.655 1.205 2.965a.666.666 0 0 1 .126.936.667.667 0 0 1-.532.264" fill="#434040"/><path d="M40.09 41.386a.669.669 0 0 1-.647-.498c-.295-1.12.503-3.201.667-3.606a.67.67 0 1 1 1.241.499c-.327.815-.749 2.258-.615 2.766a.67.67 0 0 1-.647.84m24.486 6.846a2.87 2.87 0 0 1 3.445-2.143 2.868 2.868 0 1 1-3.445 2.143" fill="#434040"/><path d="M70.053 49.678a4.29 4.29 0 0 1-.672-.051.669.669 0 1 1 .214-1.32c1.046.171 2.156-.32 2.167-.326a.67.67 0 0 1 .553 1.218c-.05.023-1.073.48-2.262.48m-1.58-1.349a.669.669 0 0 1-.128-1.325c.501-.1 1.633-1.181 2.394-2.126a.67.67 0 0 1 1.041.839c-.316.39-1.949 2.358-3.177 2.599a.644.644 0 0 1-.13.013" fill="#434040"/><path d="M67.307 47.731a.668.668 0 0 1-.505-1.107c.346-.398.607-1.878.673-2.754a.664.664 0 0 1 .72-.616.668.668 0 0 1 .614.717c-.033.436-.237 2.656-.997 3.531a.67.67 0 0 1-.505.23" fill="#434040"/><path d="M95.48 14.351a2.217 2.217 0 1 0-4.432.002 2.217 2.217 0 0 0 4.433-.002" fill="#FFEF00"/><path d="M89.842 11.712c0-.79-10.657-5.085-11.83-1.37-1.175 3.717 11.83 3.032 11.83 1.37" fill="#F464A6"/><path d="M89.646 14.938c-.168-.403-11.635 1.271-11.635 5.28 0 4.01 12.124-4.106 11.635-5.28" fill="#E84D9B"/><path d="M91.113 16.796c-.762-.047-8.648 7.758-5.866 9.19 3.226 1.664 7.43-9.091 5.866-9.19" fill="#F464A6"/><path d="M93.656 18.067c-.49 0-4.792 9.875-1.662 10.657 2.212.554 2.736-10.657 1.662-10.657" fill="#E84D9B"/><path d="M50.243 3.27c-.181-.347-1.96 6.728-6.191 9.256-4.693 2.804-3.325 7.04.456 5.606 4.329-1.64 7.299-11.863 5.735-14.862" fill="#FFEBF4"/><path d="M30.427 14.808c-.597.075 2.282-11.667 8.148-10.624 4.656.827-1.108 4.628-3.389 6.778-2.566 2.42-3.716 3.717-4.759 3.846" fill="#B75795"/><path d="M60.197 107.703c-3.684-.88-4.02-4.356.16-5.285 2.883-.641 5.205 1.682 4.965 4.004-.186 1.79-1.431 2.165-5.125 1.28" fill="#FFEF00"/><path d="M60.053 101.014c.49.35 4.824-20.24-.326-19.165-2.443.511-3.78 16.231.326 19.165" fill="#F464A6"/><path d="M62.368 101.111c-.376 1.38 13.003-20.304 7.008-22.455-3.516-1.26-4.042 3.911-4.76 10.625-.691 6.482-2.053 11.112-2.248 11.83" fill="#E84D9B"/><path d="M64.005 101.728c-.319.306 4.13-.66 7.616-2.877 3.074-1.953 4.202-5.269 2.474-6.894-1.679-1.579-3.552 1.112-5.426 4.285-1.809 3.063-4.35 5.186-4.664 5.486" fill="#F464A6"/><path d="M65.993 103.988c-.272.08 2.536.837 5.162.603 2.317-.206 3.929-1.754 3.426-3.183-.49-1.389-2.34-.413-4.335.837-1.925 1.207-3.988 1.664-4.253 1.743m-8.019-1.717c.126.253-2.339-1.288-3.954-3.373-1.426-1.838-1.387-4.074.003-4.677 1.35-.586 1.894 1.435 2.334 3.746.425 2.233 1.495 4.058 1.617 4.304" fill="#E84D9B"/><path d="M38.902 50.333a4.304 4.304 0 0 1-8.605 0 4.303 4.303 0 0 1 8.605 0m35.393 9.191a4.302 4.302 0 1 1-8.604 0 4.302 4.302 0 0 1 8.604 0" fill="#FFBDDB"/><path d="M25.712 21.503c1.661-1.695 5.184-4.986 7.04-2.737 2.207 2.67-4.302 5.084-4.302 5.084s7.432-1.304 7.953 1.433c.522 2.739-7.43 3.26-7.43 3.26s7.3 3.259 5.084 5.214c-2.216 1.956-7.17-1.694-7.17-1.694s3.365 4.869.195 4.986c-2.64.099-3.72-3.57-3.814-7.724-.042-1.885.783-6.126 2.444-7.822" fill="#FFEF00"/><path d="M79.873 83.46c-.917.737-4.28 3.547-5.583 1.707-1.548-2.184 3.605-3.673 3.605-3.673s-5.8.58-6.046-1.56c-.248-2.14 5.913-2.086 5.913-2.086s-5.44-2.93-3.62-4.31c1.82-1.381 5.43 1.717 5.43 1.717s-2.312-4.003.133-3.855c.718.044 2.649 2.458 2.687 5.876.019 1.898-.744 4.755-2.52 6.184" fill="#FFEBF4"/><g transform="translate(96 52)"><mask id="f" fill="#fff"><use xlink:href="#e"/></mask><path d="M6.415 8.82S2.088 10.716.59 6.675C-.912 2.636 2.933.75 2.933.75S5.997 2.141 6.53 3.317c.52 1.146.385 3.396-.115 5.502" fill="#B75795" mask="url(#f)"/></g><path d="M95.35 54.12c.495-.91-7.768-5.763-8.863-2.42-1.098 3.346 8.369 3.325 8.863 2.42" fill="#F464A6"/><path d="M95.153 57.57c.119-1.137-10.327-2.553-10.021 1.307.308 3.86 9.908-.18 10.02-1.308" fill="#E84D9B"/><path d="M96.001 60.697c-.527-.873-8.743 3.741-6.446 6.329 2.297 2.59 6.97-5.462 6.446-6.329" fill="#F464A6"/><path d="M99.392 62.261c-.883-.513-5.882 7.477-2.623 8.646 3.258 1.172 3.498-8.134 2.623-8.645" fill="#E84D9B"/><path d="M19.933 49.096c-.632.948 9.582-5.607 5.476-8.671-1.478-1.101-2.664 1.425-3.455 3.977-.848 2.737-1.759 4.301-2.021 4.694" fill="#FFEBF4"/><path d="M80.764 24.755c.771-.842-10.319 4.09-6.723 7.74 1.293 1.315 2.85-1.004 4.016-3.406 1.253-2.578 2.392-3.986 2.707-4.334" fill="#B75795"/><path d="M37.336 11.624c-1.502 0-1.502 2.327 0 2.327s1.502-2.327 0-2.327m5.281-2.348c-1.502 0-1.502 2.328 0 2.328s1.502-2.328 0-2.328m3.323-4.888c-1.501 0-1.501 2.327 0 2.327 1.504 0 1.504-2.327 0-2.327m44.587 26.204c-1.502 0-1.502 2.329 0 2.329s1.502-2.33 0-2.33m-1.174 4.889c-1.501 0-1.501 2.33 0 2.33 1.503 0 1.503-2.33 0-2.33m-1.873 4.882c-1.502 0-1.502 2.328 0 2.328 1.5 0 1.5-2.328 0-2.328M21.504 51.06c-1.503 0-1.503 2.33 0 2.33 1.5 0 1.5-2.33 0-2.33m.223 4.681c-1.503 0-1.503 2.329 0 2.329 1.501 0 1.501-2.329 0-2.329m3.343-2.451c-1.502 0-1.502 2.328 0 2.328 1.5 0 1.5-2.328 0-2.328" fill="#FFF"/></g></svg>