<svg width="120" height="120" viewBox="0 0 120 120" xmlns="http://www.w3.org/2000/svg"><g fill="none" fill-rule="evenodd"><path fill="#FF8585" d="M46.31 10.276H60.3V1.922H46.31l5.537 4.177z"/><path fill="#7F7370" d="M59.445 18.112h1.904V.603h-1.904z"/><path fill="#F0F0F0" d="M45.803 38.474h29.188v-20.46H45.803z"/><path fill="#FFD586" d="M75.005 114.406h38.542V57.884H75.005z"/><path d="M116.594 58.075a1.904 1.904 0 0 1-1.905 1.903h-29.69a1.903 1.903 0 1 1 0-3.808h29.69c1.051 0 1.905.854 1.905 1.905" fill="#FF8585"/><path fill="#FFD586" d="M6.58 114.406h38.543V57.884H6.58z"/><path d="M37.7 58.075a1.904 1.904 0 0 1-1.904 1.903H6.106a1.903 1.903 0 1 1 0-3.808h29.69c1.051 0 1.904.854 1.904 1.905" fill="#FF8585"/><path fill="#F0F0F0" d="M32.989 114.406h54.816V38.282H32.989z"/><path d="M78.86 91.95c0 .945-.768 1.712-1.714 1.712H43.648a1.714 1.714 0 0 1 0-3.425h33.498c.946 0 1.714.766 1.714 1.713" fill="#333"/><path fill="gray" d="M43.743 114.406h3.426V93.662h-3.426zm29.882 0h3.426V93.662h-3.426z"/><path fill="#674B4D" d="M52.213 114.406H68.58V96.898H52.213z"/><path d="M90.85 38.282a1.904 1.904 0 0 1-1.904 1.904H31.848a1.904 1.904 0 0 1 0-3.807h57.098c1.051 0 1.904.852 1.904 1.903M77.052 18.015a1.62 1.62 0 0 1-1.62 1.619h-30.07a1.619 1.619 0 0 1 0-3.238h30.07c.895 0 1.62.726 1.62 1.619" fill="#FF8585"/><path fill="#0094A8" d="M37.7 51.93h12.16v-5.9H37.7zm33.235 0h12.16v-5.9h-12.16zm-18.091 0h6.08v-5.9h-6.08zm9.045 0h6.08v-5.9h-6.08zM37.7 61.025h12.16v-5.9H37.7zm33.235 0h12.16v-5.9h-12.16zm-18.091 0h6.08v-5.9h-6.08zm9.045 0h6.08v-5.9h-6.08zM37.7 70.119h12.16v-5.9H37.7zm33.235 0h12.16v-5.9h-12.16zm-18.091 0h6.08v-5.9h-6.08zm9.045 0h6.08v-5.9h-6.08zM37.7 79.213h12.16v-5.899H37.7zm33.235 0h12.16v-5.899h-12.16zm-18.091 0h6.08v-5.899h-6.08zm9.045 0h6.08v-5.899h-6.08zM37.7 88.309h12.16v-5.9H37.7zm33.235 0h12.16v-5.9h-12.16zm-18.091 0h6.08v-5.9h-6.08zm9.045 0h6.08v-5.9h-6.08zm3.736-60.064a5.227 5.227 0 1 1-10.455-.001 5.227 5.227 0 0 1 10.455 0M12.6 69.727h6.08v-5.9H12.6zm9.046 0h6.08v-5.9h-6.08zM12.6 78.822h6.08v-5.9H12.6zm9.046 0h6.08v-5.9h-6.08zM12.6 87.917h6.08v-5.9H12.6zm9.046 0h6.08v-5.9h-6.08zM12.6 97.011h6.08v-5.899H12.6zm9.046 0h6.08v-5.899h-6.08zm-9.046 9.095h6.08v-5.9H12.6zm9.046 0h6.08v-5.9h-6.08zm80.468-36.379h6.08v-5.9h-6.08zm-9.044 0h6.079v-5.9h-6.08zm9.044 9.095h6.08v-5.9h-6.08zm-9.044 0h6.079v-5.9h-6.08zm9.044 9.095h6.08v-5.9h-6.08zm-9.044 0h6.079v-5.9h-6.08zm9.044 9.094h6.08v-5.899h-6.08zm-9.044 0h6.079v-5.899h-6.08zm9.044 9.095h6.08v-5.9h-6.08zm-9.044 0h6.079v-5.9h-6.08z"/><path fill="#2C2C2C" opacity=".08" d="M74.991 36.379H45.803l29.188-16.746z"/><path d="M118.795 116.259a3.205 3.205 0 0 1-3.205 3.204H5.204a3.204 3.204 0 1 1 0-6.408H115.59a3.204 3.204 0 0 1 3.205 3.204" fill="#84BE00"/><path d="M118.795 116.259a3.205 3.205 0 0 1-3.205 3.204H5.204c-1.77 0 110.386-6.408 110.386-6.408a3.204 3.204 0 0 1 3.205 3.204" fill="#84BE00"/></g></svg>