<svg width="120" height="180" viewBox="-1 -1 120 180" xmlns="http://www.w3.org/2000/svg"><path fill="#F7EC1E" d="M16.395 126.393l4.485 2.012 7.914 2.255 6.109 1.363 8.75 1.341 11.262 1.06 8.584-.602 11.101-2.115 8.073-2.701 9.069-4.605 2.691-2.002-6.279-9.157-6.378-9.665-6.852-8.854-1.919-2.959-1.395-4.405-2.191-7.208-1.278-.685h-1.92l-9.014 2.387-8.222.4-2.591.601-4.584 2.864-.426 2.943-.937 3.767.036 2.901-1.804 2.942-4.543 5.507-5.342 6.707-6.22 7.809-3.488 4.905-2.691 3.194"/><path fill="#30419A" d="M94.154 120.317c-.692-1.093-1.543-2.092-2.27-3.179-.733-1.094-1.422-2.219-2.158-3.313-.901-1.338-1.859-2.637-2.741-3.988-1.126-1.727-2.109-3.554-3.321-5.216-1.413-1.939-3.034-3.722-4.512-5.614-1.161-1.485-2.234-3.04-3.366-4.548-.25-.332-.561-.628-.891-.968-.017-.015-.035-.028-.051-.047l-.067-.073c-.007-.009-.014-.015-.021-.025-.309-.344-.533-.627-.736-1.033-.188-.375-.442-.776-.853-.929-.445-.166-.97-.108-1.047.394-.095.628.208 1.141.568 1.623.325.434.636 1.192 1.071 1.502.145.103.287.21.396.343 1.053 1.287 2.123 2.561 3.116 3.892a167.247 167.247 0 0 1 3.706 5.188c.132.01.266.074.379.221a35.32 35.32 0 0 1 2.869 4.36c.593.661 1.183 1.324 1.671 2.055 1.569 2.349 3.027 4.775 4.513 7.18.515.833.946 1.719 1.476 2.542.334.519.778.965 1.288 1.584-.016-.018-6.174 3.595-6.759 3.894a58.143 58.143 0 0 1-3.655 1.717c-1.335.57-2.757.868-4.089 1.437-.87.372-1.568.805-2.515.989-1.327.257-2.63.681-3.948 1.002-1.202.293-2.466.328-3.626.654-1.369.384-2.873.606-4.283.884-.416.083-.755.226-.852.533-.065-.005-.129-.012-.196-.014-.675-.019-1.417.105-1.937.113-1.186.018-2.372.037-3.558.045-1.159.008-2.317.007-3.476.005-.461-.001-2.059-.233-2.573.23-.601-.311-1.344-.314-2.026-.349-.889-.045-1.821.114-2.701-.017-1.088-.162-2.177-.261-3.272-.394-1.625-.197-3.227-.523-4.837-.785-1.279-.209-2.591-.628-3.865-.839-.61-.101-1.275-.132-1.87-.287-.957-.25-1.775-.721-2.766-.933a67.532 67.532 0 0 1-3.686-.872c-1.605-.439-3.146-1.112-4.715-1.679-.925-.335-1.861-.641-2.776-1.005-1.217-.484-1.223-.681-.523-1.744.87-1.322 1.733-2.661 2.448-4.07 1.172-2.309 2.89-4.181 4.547-6.113 1.874-2.184 3.791-4.332 5.604-6.566 1.731-2.133 3.325-4.378 5.031-6.532.824-1.038 1.759-1.991 2.714-3.052.174-.193.224-.347.448-.488.215-.137.488-.152.665-.355.373-.426.413-1.066.158-1.575-.515-1.027-1.344.168-1.717.671-.169.229-.347.463-.534.694-.539.666-1.156 1.304-1.881 1.71l-.021.009c-.486.665-.912 1.251-1.342 1.827-.393.525-.798 1.04-1.195 1.562-.586.767-1.127 1.575-1.764 2.297-.947 1.069-2.008 2.039-2.932 3.126-.794.934-1.467 1.972-2.192 2.966-.872 1.195-1.728 2.403-2.619 3.584-.682.904-1.403 1.779-2.117 2.658-.317.391-.661.761-.991 1.142-.625.723-1.393 1.369-1.846 2.19-1.018 1.844-2.059 3.649-3.574 5.138-.224.22-.388.501-.639.831.479.413.861.853 1.339 1.123.426.242.972.258 1.438.442 1.159.459 2.292.987 3.457 1.431 1.571.598 3.152 1.17 4.745 1.701 1.046.349 2.127.582 3.182.906.579.177 1.171.105 1.754.212.482.09.991.26 1.467.4.535.157 1.017.366 1.573.487 1.413.31 2.838.552 4.263.813 2.83.517 5.605 1.191 8.491 1.191.963 0 1.92.05 2.887.05.794 0 1.85.225 2.51-.287.092-.072.157-.141.211-.21.344.205.724.36.895.39.792.138 1.606.188 2.412.204 1.509.032 3.04-.141 4.523.061 1.291.176 2.481-.049 3.713-.241.423-.065.918.223 1.068-.323.017-.064.015-.141.015-.216l.318.022c1.297.093 2.572-.124 3.838-.354.809-.146 1.616-.187 2.411-.36 1.076-.233 2.093-.626 3.156-.928 1.68-.476 3.408-1.05 5.039-1.612 1.392-.478 2.806-1.13 4.157-1.71 1.773-.763 3.488-1.665 5.195-2.569 1.185-.628 2.335-1.331 3.467-2.055 1.129-.724 2.594-1.49 3.508-2.46-.514-.822-1.276-1.473-1.798-2.298z"/><path fill="#F7EC1E" d="M39.526 94.717l-2.389-2.933-1.271-4.28 2.317-1.791 2.766-.311-.748 7.528-.675 1.787"/><path fill="#FABFBD" d="M34.471 87.429l-6.281 2.158-1.369.845-.779 2.096v5.413l1.737 2.157 1.285.478 5.407-2.26 3.936-2.253v-1.651l-2.541-3.379-.523-2.967-.872-.637"/><path fill="#30419A" d="M37.321 87.492c.778-.3 1.619-.654 2.436-.828.594-.126 1.186-.086 1.529-.701.176-.316.194-.811-.044-1.104-.349-.43-.866-.104-1.308-.007-1.228.271-2.494.389-3.639.949-2.612 1.277-5.434 2.123-8.177 3.125-.529.192-1.119.287-1.514.705-.339.358-.753.914-.568 1.439.216.612 1.125.184 1.516.064.883-.27 1.768-.542 2.641-.854 1.175-.419 2.361-.828 3.488-1.355 1.37-.641 1.517-.468 1.725.679.34 1.874.93 3.674 1.998 5.287.35.528.151.93-.423 1.214-2.053 1.013-4.07 2.105-6.151 3.058-.502.229-3.953.963-2.868 2.204.705.806 2.664-.394 3.364-.677l4.043-1.63.139-.056a.595.595 0 0 1 .221-.156 25.629 25.629 0 0 0 1.651-.78c.334-.171.627-.565.933-.791.285-.21.594-.383.882-.588.508-.361 1.018-.813 1.324-1.367.235-.424.25-1.119-.073-1.506-.211-.253-.406-.157-.649-.277-.309-.152-.57-.628-.762-.913-.914-1.356-1.358-2.932-1.912-4.453-.069-.186.058-.628.198-.681z"/><path fill="#FABFBD" d="M75.638 81.503v3.145l-1.205 2.787-.697 3.003s.681 1.202.95 1.352c.27.15 4.381 1.146 4.381 1.146s2.168.148 2.542.214c.374.066.717.157.859-.002.142-.159 1.812-1.059 1.812-1.059l1.29-3.378v-3.304l-1.23-1.877-3.71-1.276-3.584-.751h-1.408z"/><path fill="#F7EC1E" d="M74.059 80.602l-2.915-.751h-1.52l.698 2.328 1.546 5.893.846 2.742 1.022-.376.697-4.129.524-2.536v-2.946l-.898-.225"/><path fill="#30419A" d="M75.649 91.339c-.871-.176-.827-.661-.711-1.216.189-.907.501-1.788.705-2.692.373-1.652.706-3.315 1.099-5.178-.005.023 4.318 1.071 4.711 1.168.851.212 2.052.682 2.888.109.283-.195.386-.625.219-.899-.324-.534-1.599-.756-2.143-.872-.997-.213-2.014-.319-3.005-.561-1.963-.478-3.907-1.032-5.858-1.565-.916-.25-1.859-.474-2.757-.785-.63-.218-1.187-.381-1.327.486-.164 1.02.864 1.358 1.654 1.495 1.154.201 2.3.469 3.447.702.041 2.607-.301 5.016-1.305 7.293-.612.069-.94.789-.963 1.375-.022.597.02 1.392.367 1.883.761 1.077 1.893.903 3.026 1.104 1.583.281 3.102.621 4.627 1.147.473.163 2.256.771 2.522.031.539-1.504-1.853-1.768-2.732-1.986-1.483-.367-2.966-.737-4.464-1.039z"/><path fill="#FABFBD" d="M49.616 82.755l-4.403.29-2.873 2.013-.924 2.302-.936 7.364v9.756l.936 3.804 6.107-1.338h4.585l1.694-1.555 2.635-.911 3.345.5 1.893 1.202 6.877-.791 3.582.49h1.601L72.134 95.7l-.693-9-1.989-5.346-1.419-3.004-3.966 1.903-4.783 1.501-7.699 1.001h-1.969m-7.363 30.622l4.714-.588 5.515-.401 2.964.855 1.794.431 2.243-.643 1.993-1.143h3.787l6.179-.847 2.293.447.697 3.303-3.687 3.504-4.492 2.102s-5.076.932-5.375 1.467c-.299.535-2.741 1.055-2.741 1.055l-2.691-1.055-5.73-.864-3.865-1.504-2.944-3.003-.654-3.116z"/><path fill="#FFF" d="M58.885 86.7h-3.937l-3.363.761-2.467 2.302-1.296 2.666.598 3.271 2.592 2.373 3.846 1.101h2.382l3.339-1.502 2.782-1.972.407-2.764-1.295-3.574-1.495-1.901-2.093-.761"/><path fill="#EF453E" d="M72.738 105.391h-6.485l-4.179.49-3.731-1.116-2.548-.063-1.993.689-2.217.891-8.678 1.675-1.491.327v5.391l4.435-.432 4.75-.717 2.703-.438 2.491 1.587s.697-.016 1.445 0c.748.015 2.442-.886 2.442-.886l2.492-1.748 1.594.847 5.684-.574 4.283-.727-.077-5.196h-.92z"/><path fill="#30419A" d="M74.904 111.716c-.029-.197-.065-.389-.095-.566-.123-.73-.161-1.44-.157-2.183.01-1.929.044-3.882-.55-5.74-.501-1.563-.422-3.314-.583-4.982-.109-1.128-.186-2.259-.277-3.388l.017-.009-.14-2.733s-.17-3.255-.187-3.253l-2.101-7.595a.55.55 0 0 1-.157-.306c-.137-.832-.013-1.887-.633-2.534a1.27 1.27 0 0 0-.364-.078 2.299 2.299 0 0 0-1.047.261c-1.102.599.067 2.051.321 2.791.261.761.709 1.475.866 2.252.46 2.275.846 4.566 1.204 6.86.259 1.661.441 3.334.633 5.005.249 2.176.464 4.356.715 6.533.099.862.322 1.725-.329 2.562-1.505-.855-3.052-.349-4.57-.238-1.246.09-2.485.259-3.727.401-.283.033-.563.095-.842.155-.623.134-1.166.166-1.776-.255-1.709-1.183-5.929-1.828-8.01.131-.312.294-.924.298-1.407.372-.76.116-1.541.122-2.293.273-2.389.481-4.768 1.01-7.154 1.506-.188.039-.399-.039-.688-.072 0-2.103.009-4.164-.007-6.224-.004-.475-.146-.949-.139-1.423.039-2.7.014-5.406.198-8.097.094-1.378.726-2.719.833-4.099.066-.854.624-1.168 1.03-1.673.149-.185.439-.26.673-.367.451-.206 1.075-.279 1.326-.626.199-.275.626-.437.489-.813-.093-.26-.528-.443-.765-.518-.425-.134-1.018-.18-1.43.055-.446.255-.545.66-1.049.846-.602.224-1.208.442-1.815.65-.043.015-.086.026-.131.05-.314.689-.445 1.439-.608 2.173-.015.066-.046.113-.074.164l-.293 6.644c-.018-.019-.032-.039-.049-.058.116.732.071 1.465-.081 2.197.042 1.467-.047 2.927-.162 4.388.286 2.518.563 5.038.848 7.556.141 1.251.298 2.501.451 3.751.015.117.116.294.072.339-.767.788-.632 2.725.315 3.343.781.513 1.219-.055 1.764-.526.675-.585 1.766-.402 2.585-.551 1.866-.341 3.777-.421 5.656-.702 1.503-.225 2.834.358 4.109.899.949.403 1.858.532 2.777.381 1.424-.235 2.728-.817 3.822-1.842.288-.27.818-.357 1.246-.384 1.145-.071 2.294-.062 3.442-.087 1.43-.032 2.86-.083 4.29-.088.471-.002.94.031 1.409.063.557.04.639-.012.845.47.272.642 1.067 1.277 1.582.469.277-.434.25-1.003.172-1.53zm-24.354-.048c-1.302.2-2.469.43-3.647.548-1.248.124-2.51.108-3.76.218-.585.052-.745-.223-.802-.701-.106-.889-.214-1.778-.332-2.755 2.987-.822 5.892-1.606 9.03-1.501-.799 1.386-.738 2.764-.489 4.191zm10.075-.737c-.801.663-1.662 1.28-2.572 1.777-.876.478-1.593.164-2.327-.714-.251-.3-.61-.508-.921-.758l-.177.204c-.148-.018-.299-.069-.441-.049-.534.076-1.249.435-1.398-.378-.135-.733-.22-1.701.144-2.252.723-1.094 1.659-2.131 2.726-2.878.605-.423 1.639-.266 2.483-.298 1.992-.074 2.728 1.337 3.251 2.915.318.96-.03 1.822-.768 2.431zm10.856-.701c-1.873.242-3.774.265-5.661.403-.593.042-1.183.199-1.773.194-.201-.002-.529-.309-.578-.526-.191-.844-.224-1.728-.448-2.561-.204-.759-.115-.956.658-1.03.945-.091 1.881-.361 2.823-.368 1.94-.015 3.883.073 5.822.173.197.01.471.361.541.602.139.482.161.997.232 1.499.041 1.257-.023 1.409-1.616 1.614zm-14.841 9.708c-.963.358-2.434 2.41-1.254 3.215.482.329 1.088.225 1.611.466.807.37 1.14.196 1.14-.7 0-.569-.145-1.146-.351-1.672-.104-.268-.773-1.446-1.146-1.309z"/><path fill="#30419A" d="M60.481 86.622c-1.279-.382-2.601-.624-3.788-.903-1.635.25-3.112.348-4.518.72-1.803.477-2.875 1.985-4.04 3.325-1.153 1.325-1.606 4.852-.647 6.328 1.448 2.23 3.477 3.796 6.098 4.311 3.726.734 6.688-.871 9.346-3.347 3.112-2.898 1.653-9.208-2.451-10.434zm1.251 8.814c-1.73 2.196-3.98 3.129-6.784 3.001-2.311-.106-3.933-1.299-5.366-2.907-.737-.828-.695-3.329-.021-4.487 1.413-2.427 3.529-3.404 6.286-3.084.012-.082.026-.164.039-.245 1.304.283 2.623.513 3.909.861 2.434.658 3.741 4.57 1.937 6.861z"/><path fill="#FABFBD" d="M26.056 100.114l-1.165-5.401V91.93l.583-.638s2.188.262 2.26.413c.073.15 1.343 1.175 1.493 1.601.149.426.528 2.397.528 2.397l-.379 2.534-1.507 2.335-1.034.29-.779-.748z"/><path fill="#EF453E" d="M23.396 91.629l-3.064 1.509-1.944.168-1.121-1.301-2.296-1.652-2.039-.901H8.596l-2.84 1.427-3.364 3.834-1.42 3.749.822 5.181 1.42 3.293 2.018 2.864 3.514 2.177 2.541.826 2.837-.525 2.769-1.953 2.766-2.853.822-2.781.449-1.348 2.99-.601 2.084-1.104-1.113-4.802-.448-5.544-1.047.337"/><path fill="#30419A" d="M27.792 100.094c-.078-.198-.16-.417-.252-.634-.221-.515-.554-1.009-.65-1.547-.318-1.789-.53-3.597-.834-5.389-.091-.537-.027-.87.523-1.046.617-.197 1.55-.488 1.779-1.18.289-.874-.779-1.065-1.425-.952-1.212.214-2.479.86-3.649 1.255-.884.299-1.794.523-2.666.852-1.18.446-2.183.447-2.981-.729-.311-.459-.756-.851-1.204-1.187-2.555-1.916-5.373-1.686-8.206-.878-1.906.543-3.464 1.698-4.812 3.147-2.423 2.605-3.607 5.657-3.369 9.238.153 2.291 1.051 4.317 2.037 6.355 1.045 2.159 2.449 3.934 4.583 4.979 1.971.965 4.039 1.68 6.314 1.043 1.55-.435 2.933-1.111 4.2-2.144 1.538-1.256 2.749-2.749 3.722-4.447.586-1.024.919-2.259 2.121-2.755 1.414-.585 2.83-1.164 4.248-1.74a100.7 100.7 0 0 1 1.752-.689c.424-.163.997-.483 1.178-.93.244-.609-.116-.784-.662-.795-.196-.003-1.802.034-1.747.173zm-3.399 1.415c-.649.362-1.352.741-2.067.823-.491.057-1.037-.373-1.744-.662-.741.143-.658.882-.711 1.654-.208 3.022-1.848 5.254-4.257 6.843-1.64 1.081-3.524 1.993-5.575 1.32-2.482-.814-4.723-2.022-5.796-4.686-.465-1.157-1.195-2.207-1.642-3.368-.829-2.154-1.135-4.451-.233-6.595.622-1.477 1.714-2.787 2.74-4.053 1.775-2.192 4.31-2.735 6.934-2.691 1.879.032 4.043 1.445 4.834 3.254.432.984 1.295 1.174 2.295.722 1.347-.609 2.784-1.021 4.188-1.498.153-.052.349.02.691.049.297 2.666.613 5.335.864 8.01.026.283-.258.731-.521.878z"/><path fill="#FABFBD" d="M44.767 147.218l-4.29-1.701-7.408-3.108-2.389-.997.629-1.877 2.046-5.444 2.729-2.392 5.33 1.078 4.05 2.215 2.953 3.592-2.291 6.632-1.359 2.002"/><path fill="#EF453E" d="M45.228 147.819l-4.366-2.15-7.793-3.26-2.389-.597-1.856 4.605-1.11 5.006-.824 1.301-4.086-1.601h-3.887l-4.813 1.601-2.762 3.204-.897 3.804v4.005l1.993 3.804 2.513 3.304 5.162 2.402 6.777 2.403 5.083 1.101 1.725-.3 1.464-1.627 1.63-5.481 1.611-4.906 3.011-7.408 3.814-9.21"/><path fill="#30419A" d="M45.319 145.251c-.396.919-.694.965-1.62.628-2.324-.847-4.664-1.648-6.992-2.481-1.437-.514-2.859-1.069-4.299-1.574-.517-.181-.786-.507-.681-1.063.091-.479.218-1.083.402-1.534.371-.908 3.799-7.368 2.013-7.728-1.027-.208-1.739 2.096-1.984 2.747a50.546 50.546 0 0 0-.663 1.841c-.32.969-.761 1.841-.999 2.842-.208.871-.329 1.792-1.175 2.285-.112.065-.21.374-.151.48.399.727-.037 1.225-.382 1.791-.274.45-.498.954-.629 1.463-.458 1.793-.826 3.61-1.307 5.396-.319 1.184-.53 1.289-1.645.718-2.438-1.248-4.99-1.378-7.571-.773-1.914.449-3.568 1.492-4.95 2.916-1.199 1.235-2.379 2.592-2.678 4.289-.499 2.828-1.075 5.682.35 8.515.897 1.783 1.852 3.611 3.326 4.988 1.581 1.477 3.228 2.181 5.214 2.93 1.25.472 2.527.885 3.789 1.316 1.963.67 3.931 1.216 5.905 1.98 1.572.609 3.059 1.212 4.819 1.13 1.428-.066 1.79-1.706 2.353-2.713.742-1.327 1.336-2.68 1.871-4.113.448-1.203.709-2.474 1.094-3.702.177-.563.492-1.083.672-1.646.215-.674.289-1.396.534-2.056.699-1.882 1.472-3.738 2.183-5.616.766-2.018 1.445-4.071 2.253-6.072.937-2.321 1.99-4.594 2.959-6.903.31-.737.61-1.488.902-2.234.241-.615.414-1.227.664-1.83.405-.975 1.269-2.062 1.093-3.173-.193-1.224-1.538-.229-1.935.312-.352.479-.551 1.05-.757 1.592-.351.923-.849 1.815-1.159 2.75-.257.776-.489 1.538-.819 2.302zm-1.461 4.111a496.21 496.21 0 0 0-2.722 6.737c-1.088 2.757-2.138 5.528-3.219 8.288-.16.407-.348.811-.54 1.214-.309 1.589-1.022 3.06-1.446 4.618-.03.14-.064.279-.1.415-.035.152-.074.303-.101.457a.6.6 0 0 1-.111.261c-.222.68-.479 1.339-.671 2.032-.197.707-.522 1.191-.953 1.483-.224.477-.715.83-1.371.675-2.823-.667-5.868-1.379-8.625-2.278-2.324-.759-4.907-1.454-7.079-2.613-1.154-.227-1.984-1.158-2.738-2.013-1.077-1.22-1.936-2.681-2.651-4.154-.367-.755-.215-1.765-.291-2.661-.26-3.046.829-5.549 3.134-7.488 2.254-1.894 3.832-2.377 6.89-2.197 1.515.487 3.566.321 4.905 2.113.559.749 1.674.141 1.947-.965.592-2.408 1.181-4.818 1.831-7.209.201-.745.653-1.419.876-2.161.201-.67.519-.66 1.057-.442 1.979.803 3.958 1.61 5.959 2.351 1.596.59 3.225 1.089 4.839 1.63.17.057.344.108.507.18 1.133.499 1.146.576.673 1.727z"/><path fill="#FABFBD" d="M41.392 114.355l-1.468 3.651-3.154 7.008-2.328 5.658.162 4.825.374.829.748.788s1.201.914 1.899 1.014c.698.1 2.698 1.014 2.698 1.014l3.289.15 2.242.263 1.493-.708 1.759-.943 2.454-6.184 3.274-6.206 1.248-3.38-.66-2.195-2.242-1.533s-4.086-2.302-4.385-2.302c-.299 0-3.588-.748-3.588-.748l-3.815-1.001z"/><path fill="#30419A" d="M42.229 113.388c-.476-.289-1.226-.081-1.546.359-.36.496-.011 1.191-.402 1.756-.746 1.076-1.307 2.289-1.878 3.475a125.13 125.13 0 0 0-2.181 4.807c-.968 2.239-1.901 4.495-2.875 6.814-.169.791-.534 1.583-.924 2.375.012.012.026.02.038.034l-.093.291c-.003.164.012.327.024.49a.63.63 0 0 1 .05.247c.001.74.994.405 1.67.164a407.363 407.363 0 0 1 2.237-5.968 145.2 145.2 0 0 1 3.387-8.04c.621-1.361 1.483-2.609 2.239-3.907.236-.406.471-.813.724-1.208.375-.582.156-1.31-.47-1.689zm14.539 8.485c-.045-.397-.2-.657-.608-.714-1.011-.14-1.409 1.414-1.757 2.08-.554 1.064-1.135 2.114-1.622 3.212-.441.992-.49 2.157-.907 3.165-1.202 2.907-2.45 5.795-3.691 8.686-.126.813.551 2.055 1.473 1.075.099-.105.187-.216.275-.327.536-1.233 1.074-2.464 1.613-3.694.136-.309.33-.591.459-.821l.017.011c.112-.252.226-.51.257-.771a.79.79 0 0 1 .202-.459c.488-1.258.92-2.356 1.338-3.452.743-1.945 1.48-3.893 2.213-5.843.125-.331.409-.561.546-.902.156-.389.241-.829.192-1.246z"/><path fill="#FABFBD" d="M71.231 144.016l4.585-2.703 4.802-2.202 3.65-1.703-2.321-5.306-2.368-1.449s-3.624.101-4.261.248c-.638.147-4.472 1.661-4.821 1.576-.577-.138-3.326 2.553-3.326 2.553l-.187 2.253 4.247 6.733z"/><path fill="#EF453E" d="M99.636 144.016l-5.182.758-5.289 2.045-4.537-8.71-5.921 2.403-7.476 3.504 2.493 5.105 4.983 8.01 3.789 6.207 2.937 5.406 3.732 4.204s1.8-.1 2.199 0c.399.101 3.588-.8 3.588-.8l6.079-3.805 5.681-5.906 2.193-4.405v-3.712l-.698-4.798-1.694-2.303-2.99-2.445-3.887-.758z"/><path fill="#30419A" d="M110.067 152.249a20.977 20.977 0 0 0-2.217-5.622c-.779-.746-1.66-1.335-2.624-1.931-4.603-2.849-10.867-2.116-15.291.797-.368.242-.668.219-.835-.263-.675-1.949-1.771-3.677-2.804-5.443-.238-.408-.251-.974-.284-1.473-.045-.695.185-1.619-.602-1.876-.43-.14-.868-.421-1.119-.808-.258-.395-.268-.881-.459-1.307-.234-.519-.532-1.031-.798-1.538-.348-.661-.511-1.534-1.029-2.084-.506-.539-1.329-.396-1.381.423-.039.604.209 1.028.363 1.585.218.79.565 1.479.926 2.228.264.547.825 1.614.392 2.196-.232.313-.723.459-1.169.591-.21.063-.409.122-.567.194-1.902.862-3.749 1.848-5.643 2.73-1.021.475-2.11.8-3.135 1.267-.772.352-1.267-.116-1.636-.764-.428-.751-.952-1.521-1.311-2.3-.212-.461-.392-.933-.625-1.372-.363-.682-.799-1.318-1.686-1.173-1.095.178-.199 1.698.132 2.224.436.693.9 1.35 1.243 2.1.254.558.708.997.964 1.551.275.593.553 1.161.892 1.733.825 1.391 1.776 2.706 2.623 4.084.689 1.122 1.265 2.314 1.965 3.426.968 1.539 2.063 3 2.999 4.557.939 1.564 1.729 3.217 2.619 4.812 1.231 2.205 2.469 4.404 3.713 6.6.552.975 1.043 2.044 1.75 2.91.595.728.821 1.549 1.345 2.329.308.458.536.869.879 1.291.698.858 1.005.901 2.16.901 4.164 0 7.045-2.545 10.485-4.51 3.076-1.755 5.506-4.244 7.45-7.128 1.89-2.805 2.547-6.02 2.4-9.367a56.103 56.103 0 0 0-.085-1.57zm-2.362 5.622c-1.17 3.836-3.761 6.661-6.754 9.205-1.292 1.098-2.634 2.057-4.179 2.678-2.166 1.516-4.946 3.07-6.496 2.4-.409.075-.776-.038-1.103-.267-1.265-.681-2.505-3.164-3.275-4.417a61.605 61.605 0 0 1-1.349-1.749c-.556-.757-.875-1.686-1.322-2.525a90.388 90.388 0 0 0-1.427-2.585c-.877-1.529-1.747-3.062-2.66-4.568-.647-1.067-1.41-2.065-2.032-3.146-1.278-2.217-2.477-4.48-3.749-6.7-.336-.588-.819-1.09-1.295-1.71 3.335-1.505 6.32-3.627 9.893-4.442.202-.047.393-.144.589-.221 1.807-.701 1.923-.743 2.579 1.067.688 1.893 1.678 3.635 2.429 5.489.21.518.381 1.081.42 1.633.048.663.509.823.956.865.364.034.825-.101 1.121-.325 2.121-1.603 4.22-3.159 7.018-3.452 2.059-.216 4.133-.29 5.95.634 1.853.943 3.455 2.344 3.957 4.602.292 1.314.834 2.59.98 3.914.131 1.188.095 2.487-.251 3.62z"/><path fill="#FABFBD" d="M74.202 113.688h-2.061l-4.102 1.017-7.255 3.504-2.435 2.303-.206 2.421 2.841 4.787 3.929 6.719 3.21 2.19 2.728.188 2.89-.713 3.13-1.24 2.053-1.614.934-.976 1.258-1.599-5.481-12.366-.672-2.302-.761-2.319"/><path fill="#30419A" d="M66.844 137.784a.798.798 0 0 0 .208-.096c.312-.222.45-.496.488-.793 0-.078-.009-.158-.014-.238-.321-.538-.642-1.075-.969-1.609-.475-.776-1.103-1.455-1.592-2.222-.706-1.108-1.327-2.271-2.026-3.384-.987-1.569-2.023-3.108-3.02-4.67-.465-.729-.959-1.442-1.384-2.197-.371-.66-.546-1.775-1.55-1.525-.331.082-.409.331-.485.703-.282 1.365.561 1.987 1.27 2.981a129.66 129.66 0 0 1 2.538 3.662c.856 1.294 1.639 2.636 2.445 3.962.595.978.991 2.117 1.741 2.994a21.054 21.054 0 0 1 1.48 1.97c.278.17.574.344.87.462zm13.725-6.297l.046.027c.572.245.91-.151 1.349-.449.007-.25-.041-.516-.07-.722a.682.682 0 0 1 .011-.236c-.193-.47-.415-.923-.743-1.32a.683.683 0 0 1-.107-.182.108.108 0 0 0-.019.008c-.67-1.409-1.382-2.78-1.983-4.199-.824-1.947-1.569-3.928-2.338-5.897-.435-1.112-.957-2.203-1.244-3.352-.223-.893-.175-1.939-.497-2.789-.168-.445-.267-1.25-.843-1.313-1.97-.216-.346 3.676-.152 4.367.265.54.481 1.111.718 1.665 1.139 2.658 2.435 5.255 3.099 8.099.012.051.032.1.046.15.657 1.352 1.169 2.759 1.732 4.161.275.689.631 1.338.995 1.982z"/><path fill="#EF453E" d="M52.496 18.245l-3.24.676-4.473-1.051-5.247-5.857v-4.58s1.618-3.454 1.894-3.529c.275-.075 4.985-2.102 4.985-2.102h3.887l3.439 1.502 2.068 3.303 1.311 3.229v3.454l-1.311 2.628-3.313 2.327z"/><path fill="#FFF" d="M52.282 82.442h-7.311l-7.308-.901-7.027-3.754-9.012-7.508-6.05-11.313.867-8.902 3.189-6.816 5.183-6.107 7.421-4.004 8.725-2.402 12.358-1.302 11.303 1.602 10.35 4.104 6.153 4.806 3.53 7.308 1.603 7.436-1.603 6.68-2.681 6.407-5.632 5.406-6.08 4.305-6.478 3.003-6.529 1.051-4.971.901"/><path fill="#FCF6B6" d="M49.031 82.292l-3.887-.751-6.419-4.805-4.045-4.28-2.446-6.007-1.959-.751-4.64-.75-2.467-3.079s.075-3.529 0-3.754c-.074-.225 1.72-4.205 1.72-4.205l2.842-1.126 3.511 1.051 2.473-1.051 2.685-4.956s4.904-3.378 5.031-3.453c.127-.076 6.405-1.652 6.405-1.652l7.625-.727 6.054 1.252 5.233 3.379 2.242 2.778 2.318.301 3.663-1.652 3.288.976 2.385 2.631.755 3.154v2.849l-1.732 2.703-2.094 1.777h-3.824s-.878 2.578-.576 2.804c.302.225.576 5.331.576 5.331l-1.601 5.255-1.663 1.802-3.812 2.169-7.625 2.261-5.531.676-4.485-.15z"/><path fill="#30419A" d="M86.944 52.416c-.304-1.493-.582-3.001-.722-4.515-.22-2.376-1.153-4.498-2.485-6.357-1.235-1.724-2.806-3.223-4.339-4.705-.87-.841-1.929-1.505-2.963-2.15-1.09-.68-2.236-1.274-3.387-1.848-1.198-.597-2.38-1.371-3.656-1.637-3.778-.787-7.36-2.369-11.229-2.749a11.563 11.563 0 0 0-1.665-.026c-.692.032-1.381.164-2.072.163-.684-.002-1.37-.189-2.049-.163-.759.03-1.083-.293-1.223-.994-.476-2.371-.98-4.737-1.488-7.177.275-.093.518-.229.771-.253 2.673-.244 4.781-1.563 6.338-3.655.686-.922 1.053-2.125 1.403-3.251.424-1.367-.019-2.708-.318-4.07-.511-2.317-1.426-4.376-3.103-6.066C52.342.526 49.479-.493 46.18.646c-1.624.561-3.145 1.495-4.61 2.422-.888.562-2.016 1.306-2.276 2.193-.579 1.978-1.868 3.774-1.169 6.17.524 1.792 1.3 3.233 2.591 4.443a43.267 43.267 0 0 0 3.647 3.09c.756.566 1.447 1.354 2.577 1.256.59-.051.868.406.981.943.46 2.198.911 4.397 1.381 6.593.138.65-.225.761-.739.828-2.273.293-4.546.584-6.812.926-1.77.266-3.54.558-5.291.931-.981.21-1.934.579-2.88.931-.637.237-1.237.573-1.857.855-1.819.827-3.756 1.466-5.427 2.528-1.596 1.014-3.012 2.374-4.331 3.752-1.55 1.618-3.017 3.337-3.983 5.415-.931 2.005-2.024 3.942-2.819 5.997-.505 1.306-1.196 2.627-1.012 4.136.156 1.286.28 2.576.406 3.866.07.717-.01 1.476.201 2.146.41 1.305 1.009 2.549 1.473 3.84.959 2.667 2.415 4.994 4.484 6.939.582.547 1.013 1.257 1.596 1.802 1.138 1.063 2.296 2.109 3.515 3.074 1.193.945 2.423 1.863 3.728 2.639 1.321.786 2.771 1.349 4.133 2.07a22.533 22.533 0 0 0 6.653 2.299c.867.154 1.706.462 2.553.725 1.15.121 2.289.32 3.448.335.04.001.069.017.105.023.222-.044.458-.054.707-.067 1.912-.101 3.828-.179 5.73-.385 2.41-.262 4.801-.714 7.213-.951 2.309-.226 4.41-1.011 6.463-2.021.443-.218.784-.353 1.06-.398.875-.507 1.885-.71 2.749-1.231a2.223 2.223 0 0 1-.077-.022c.501-.24.867-.352 1.16-.565a131.787 131.787 0 0 0 3.651-2.732c1.056-.823 2.11-1.654 3.104-2.55.955-.86 1.905-1.746 2.726-2.731a43.778 43.778 0 0 0 3.034-4.096c.598-.918 1.127-1.938 1.419-2.988.585-2.105 1.029-4.253 1.448-6.4.272-1.402.405-2.82.111-4.26zM49.272 17.557c-.375-.645-1.105-.667-1.544-.372-.67.451-1.278.355-1.852.088-2.832-1.319-4.985-3.267-5.67-6.49-.037-.175-.027-.36-.044-.608.417-2.558 1.127-5.008 3.866-6.155 1.332-.558 2.67-1.277 4.068-1.47 2.628-.364 4.712.74 6.252 2.978 1.344 1.955 1.948 4.142 1.893 6.417-.041 1.71-.735 3.385-2.329 4.353-1.083.657-2.265 1.154-3.421 1.681-.49.224-.921.09-1.219-.422zm22.863 54.239c-.46 1.622-1.296 3.301-2.43 4.516-1.036 1.11-2.697 1.632-4.082 2.414-2.085 1.178-4.418 1.647-6.695 2.192-1.511.362-3.125.287-4.692.411-1.156.091-2.312.263-3.468.265-1.186.002-2.406-.021-3.55-.295-.87-.208-1.656-.802-2.456-1.265-1.843-1.066-3.733-2.073-5.167-3.711-.332-.38-.603-.814-.904-1.222-.334-.453-.639-.8-1.301-.955-.546-.128-1.109-.811-1.379-1.384-1.056-2.237-2.317-4.399-2.656-6.925-.202-1.509-.638-2.995-.734-4.507-.089-1.421.053-2.871.231-4.29.444-3.532 2.438-6.234 4.733-8.791 1.302-1.45 2.854-2.4 4.607-3.202 1.907-.873 3.918-1.121 5.909-1.593 2.931-.695 5.864-.447 8.791-.436 2.014.006 3.841.89 5.608 1.886 2.172 1.224 3.814 3.012 5.382 4.864 1.986 2.347 3.348 5.026 3.774 8.136.182 1.326.516 2.632.73 3.955.203 1.264.34 2.54.537 4.053-.224 1.838-.238 3.938-.788 5.884zm-.182-19.815c-.304-.733-.277-1.274.365-1.609 1.068-.556 2.194-1.003 3.313-1.456.192-.077.504-.017.696.093 1.251.715 2.718 1.208 3.368 2.639.425.934.653 1.957.928 2.812-.441 1.983-.639 3.898-1.859 5.409-.893 1.107-2.11 1.763-3.571 1.753-.22-.002-.571-.369-.636-.625-.36-1.418-.58-2.875-.981-4.28-.458-1.604-.984-3.197-1.623-4.736zm11.466 10.001c-1.624 4.866-4.943 8.536-8.944 11.618a1.22 1.22 0 0 1-.317.163c-.047.018-.111-.01-.277-.029.193-.755.39-1.496.572-2.24.599-2.452.684-4.938.392-7.431-.083-.707.167-.947.789-.996.596-.046 1.251.043 1.774-.179a9.766 9.766 0 0 0 2.256-1.377c2.24-1.799 2.859-4.31 2.775-7.025-.091-2.975-1.647-5.071-4.072-6.706-1.711-1.154-3.347-1.191-5.113-.328-.801.391-1.636.726-2.39 1.193-.526.327-.799.24-1.215-.174-1.501-1.496-2.994-3.009-4.602-4.382-1.487-1.271-3.191-2.288-5.114-2.723-1.988-.45-3.991-.986-6.08-.563-.421.085-.884-.064-1.33-.073-2.644-.053-5.18.58-7.75 1.102-2.688.545-5.019 1.844-7.182 3.325-1.682 1.152-2.991 2.887-4.026 4.735-.496.888-1.005 1.771-1.576 2.61-.098.143-.573.138-.819.05-.643-.233-1.24-.599-1.885-.824-2.85-.995-5.718.806-6.519 3.796-.193.721-.42 1.433-.661 2.14-.502 1.468-.167 2.893.236 4.301.185.643.434 1.292.782 1.859 1.537 2.505 3.808 3.389 6.659 2.939.556-.088 1.126-.086 1.737-.129 1.111 3.067 1.971 6.154 3.912 8.859 1.947 2.716 4.868 3.963 7.494 5.685l-.087.221c-.849-.17-1.732-.243-2.541-.527-2.112-.744-4.225-1.502-6.273-2.403-1.682-.739-3.371-1.547-4.872-2.592-1.753-1.22-3.328-2.704-4.937-4.125-.794-.701-1.477-1.526-2.231-2.274-1.618-1.603-2.717-3.542-3.631-5.601-1.144-2.574-1.708-5.309-1.971-8.084-.109-1.142.193-2.353.466-3.495.766-3.202 2.274-6.107 4.065-8.812 1.261-1.904 2.842-3.619 4.43-5.275 2.139-2.23 4.994-3.346 7.748-4.575 3.477-1.551 7.252-1.79 10.941-2.36 2.475-.382 4.986-.537 7.484-.752.556-.048 1.127.124 1.69.121 1.367-.007 2.75-.198 4.098-.052 1.685.182 3.362.543 5.005.976 2.545.672 5.082 1.396 7.577 2.236 2.327.783 4.546 1.815 6.46 3.436 2.615 2.213 4.535 4.978 6.185 7.92 1.342 2.394 2.132 4.951 2.314 7.793.203 3.173-.462 6.139-1.426 9.028zM31.055 64.42c.019.179-.25.549-.409.562-3.192.265-5.755-.525-6.918-4.048-.628-1.903.792-5.926 2.529-6.858.567-.305 1.237-.418 1.629-.545 1.125.016 2.968 1.172 3.15 1.989.113.508-.174 1.091-.194 1.643-.07 1.902-.13 3.805-.126 5.706 0 .516.283 1.027.339 1.551z"/><path fill="#30419A" d="M66.201 56.356c-.268-.37-.963-.458-1.49-.595-.192-.05-.453.094-.663.191-1.376.635-2.729 1.323-4.125 1.91-1.209.509-2.438 1.015-3.706 1.328-1.846.454-3.734.738-5.606 1.085-1.021.189-2.045.36-3.067.539l-.005-.031c-.651.124-1.308.127-1.967.097a35.5 35.5 0 0 1-1.871.139c-1.308.125-2.617.247-3.928.351-.665.053-1.096.417-1.044.944.056.562.549 1.001 1.232.954 2.076-.142 4.152-.285 6.227-.447 1.726-.135 3.462-.219 5.173-.468a57.926 57.926 0 0 0 5.428-1.076c1.371-.334 2.72-.788 4.042-1.289 1.442-.546 2.835-1.22 4.262-1.809.562-.232 1.418-1.392 1.108-1.823zm-10.565-3.343c.213.088.479.103.8.018 1.088-.286 1.563-1.424.81-2.372-.468-.588-1.665-.938-2.089-.09-.394.791-.32 2.117.479 2.444zm-11.244 1.468c.052.033.105.061.162.085.434.179 1.245.208 1.539-.215.243-.348.173-1.025.056-1.406-.209-.683-1.216-1.532-1.939-1.057-.819.539-.616 2.09.182 2.593z"/><path fill="#FABFBD" d="M84.626 94.046l.931-3.195.299-4.114.373-2.418-1.603-.508-1.686.875s-1.744 1.69-1.844 2.051c-.099.36-.711 3.069-.48 3.366.231.298.755 1.874.979 2.025.224.15 1.802 1.226 1.802 1.226l1.229.692z"/><path fill="#FFF" d="M99.52 117.017l-10.135-3.737-2.302 6.685 10.284 3.873 2.616-5.75-.463-1.071"/><path fill="#DB6FAB" d="M96.892 123.838l-9.809-3.873-2.255 7.994.729.975 8.424 3.138 2.911-8.234"/><path fill="#FCB322" d="M93.331 102.276l-3.946 11.004 9.191 3.25 1.856-3.679 2.466-8.112-2.541-.973-3.465-.751-3.262-1.33-.299.591"/><path fill="#EF453E" d="M108.452 83.493l-4.432-2.328-5.444-.45-2.843 1.389-2.477 2.582-.525 1.66-2.615-.976-3.033-.684-2.255 8.668 1.096 1.407 4.118.971 1.42 2.778s2.018 2.553 2.168 2.666c.149.112 4.77 2.139 4.77 2.139l3.315.451 3.949-1.255 3.364-2.575 2.317-4.655.299-6.353-.953-2.657-2.239-2.778z"/><path fill="#FCB322" d="M110.171 83.268l-3.46-1.484-4.635-1.895h-1.121l3.438-12.164 2.019-6.682 3.759.45 3.566 1.166 1.653 1.237.739.826-5.958 18.546"/><path fill="#FCF6B6" d="M116.129 63.271l-6.952-2.228-2.392-.901 8.605-10.135 1.636.749-.897 12.515"/><path fill="#30419A" d="M118.283 46.424c-.068-1.021-.712-1.373-1.447-.737-.748.647-1.358 1.467-1.965 2.261-2.49 3.252-4.98 6.506-7.415 9.799-.655.885-1.26 1.861-1.636 2.888-.81 2.21-1.442 4.485-2.17 6.726-.709 2.184-1.513 4.34-2.148 6.545-.531 1.844-.878 3.742-1.301 5.592-.247.043-.373.079-.499.085-1.082.045-2.167.218-3.178.617a6.887 6.887 0 0 0-2.676 1.883c-.322.368-.586.773-.905 1.133a2.232 2.232 0 0 0-.475.84c-.005.012-.008.028-.011.041-.082.12-.157.244-.246.358-.125.159-.456.293-.642.243-1.666-.44-3.333-.883-4.972-1.411-.572-.184-4.524-2.175-4.329-.463.065.57.639.9 1.113 1.076.168.062 1.844.492 1.843.497-.181 1.382-.296 2.524-.485 3.653-.28 1.662-.612 3.314-.925 4.988-.457 0-.855.072-1.217-.012-.529-.124-2.1-.355-1.973.594.161 1.21 2.24 1.388 3.145 1.437 1.899.103 3.747.305 5.466 1.183.095.048.226.119.328.187.017.009.03.025.046.036a.477.477 0 0 1 .06.054c-.005.197.008.392.065.584.033.112.072.225.117.338.252.639.662 1.285.955 1.881.371.754.799 1.487 1.48 2 .191.144.348.568.28.787a191.174 191.174 0 0 1-1.846 5.49c-.804 2.3-1.601 4.603-2.459 6.882-.599 1.591-.611 3.395-1.728 4.802-.109.137-.087.379-.131.571-.313 1.358-.58 2.73-.954 4.071-.342 1.228-.91 2.399-1.175 3.641-.303 1.424.919 2.059 1.868 2.555 2.319 1.213 4.725 2.264 7.117 3.333.579.258 1.276.317 1.642-.385.286-.545.443-1.161.64-1.75.846-2.541 1.668-5.09 2.536-7.622a28.24 28.24 0 0 1 1.154-2.824c.307-.656.615-1.38 1.125-1.854.535-.495.792-1.154.226-1.642-.592-.511-.635-1.012-.377-1.739a349.75 349.75 0 0 0 3.335-9.8c.414-1.288 1.037-2.147 2.427-2.522.844-.227 1.749-.728 2.326-1.374 2.614-2.941 4.047-6.467 4.131-10.385.047-2.251.292-4.696-1.542-6.569-.083-.084-.152-.251-.129-.357.274-1.208.487-2.438.874-3.61.49-1.481 1.151-2.906 1.686-4.374.151-.414.034-.928.189-1.339.553-1.465 1.256-2.877 1.745-4.361.814-2.468 1.839-4.932 2.179-7.478.575-4.308.714-8.677.97-13.024.078-1.332-.021-2.682-.112-4.019zm-23.202 80.761c-.28.998-.577 1.995-.934 2.967-.378 1.027-.614 1.099-1.708.64-1.437-.606-2.849-1.277-4.306-1.827-.694-.262-1.47-.308-2.209-.452l.119-.61 1.892-6.655 7.798 3.26c-.208.864-.401 1.779-.652 2.677zm1.6-4.638l-8.109-2.921.334-1.538c1.312.496 2.554.942 3.778 1.435 1.145.461 2.279.956 3.404 1.466.607.274 1.1.65.593 1.558zm1.71-3.801c-.19.504-.425.855-1.089.565a114.645 114.645 0 0 0-4.848-1.989c-.966-.372-1.972-.64-3.068-.989.077-.326.137-.682.244-1.022.37-1.165.746-1.321 1.898-.783.672.315 1.32.683 1.999.981 1.488.655 2.977 1.309 4.489 1.904.785.31.576.805.375 1.333zm.034-3.35l-7.908-2.8 3.65-10.321c2.371 1.598 4.716 2.631 7.547 2.147-1.113 3.716-2.194 7.327-3.289 10.974zm12.128-22.927c-.147 1.939-.92 3.894-1.737 5.695-.485 1.07-1.431 2.127-2.442 2.722-2.718 1.6-5.685 2.131-8.774 1.083-1.41-.479-2.816-1.081-3.936-2.092-.509-.461-1.145-1.032-1.452-1.648-.364-.733-.414-1.571-.636-2.348a3.82 3.82 0 0 0-.08-.243v-.368c-.017-.042-.022-.089-.037-.132-.331-.564-.856-1.004-1.762-1.026-1.155-.027-2.302-.362-3.588-.584.129-1.536.22-2.954.381-4.365.074-.651.279-1.289.434-1.931.057-.234.18-.457.204-.692.116-1.141.128-1.202 1.231-.842.897.293 1.848.612 2.574 1.18.657.513 1.352.609 2.07.767.515.113 1.162-.513 1.267-1.17.012-.075.029-.144.043-.217-.003-.016-.009-.033-.011-.049.334-.607.444-1.551.672-2.078.241-.557.567-1.037 1.081-1.368.493-.319.773-.614 1.35-.734.717-.149 1.375-.283 2.116-.234 1.101.074 2.187.375 3.288.448 3.005.2 5.008 2.004 6.765 4.19 1.447 1.799 1.129 4.039.979 6.036zm-1.113-9.762c-1.264-.638-2.469-1.328-3.738-1.862-1.279-.537-2.622-.918-4.188-1.454.712-2.309 1.432-4.625 2.137-6.946.171-.562.265-1.149.451-1.705.879-2.634 1.779-5.261 2.671-7.89.143-.423.202-.936.86-.8 2.554.529 5.043 1.235 7.225 2.751.158.11.299.242.532.431l-5.95 17.475zm6.485-20.048l-7.995-2.878c.395-.578.765-1.176 1.19-1.731 1.07-1.397 2.163-2.775 3.248-4.161.262-.335.477-.741.811-.976.24-.168.687-.228.962-.124.815.312 1.591.73 2.567 1.194l-.783 8.676z"/></svg>