<svg width="120" height="120" viewBox="0 0 120 120" xmlns="http://www.w3.org/2000/svg" xmlns:xlink="http://www.w3.org/1999/xlink"><defs><path id="a" d="M0 0h88.996v120H0z"/></defs><g fill="none" fill-rule="evenodd"><path d="M36.569 24.694a97.089 97.089 0 0 0-8.728-11.812 2.304 2.304 0 0 0-1.119-.725c-.744-.57-1.711-.91-2.917-.82-5.717.426-5.066 9.313.661 8.886 1.158-.086 2.041-.528 2.688-1.161a96.867 96.867 0 0 1 5.745 8.159c1.525 2.43 5.195-.098 3.67-2.527m26.811-.172a97.03 97.03 0 0 1 12.23-8.129 2.31 2.31 0 0 1 1.3-.301c.895-.283 1.919-.271 3.023.225 5.229 2.349 1.587 10.48-3.651 8.128-1.06-.476-1.74-1.194-2.131-2.009a97.322 97.322 0 0 0-8.182 5.713c-2.263 1.764-4.851-1.863-2.59-3.627" fill="#70700A"/><g transform="translate(16)"><mask id="b" fill="#fff"><use xlink:href="#a"/></mask><path d="M47.416 115.35c-3.01-2.919-4.833-7.113-4.833-11.49V91.55H15.409c-.455 0-.82 0-1.094-.092l-.912-.182c-3.83-.638-7.02-2.46-9.573-5.47C1.276 82.796 0 79.331 0 75.501c0-2.918.639-5.562 1.824-7.84l20.88-57.54C25.258 3.921 31.549 0 38.206 0c4.468 0 8.298 1.642 11.58 4.925 2.826 2.918 4.469 6.84 4.469 10.852 0 2.188-.456 4.285-1.46 6.291L36.748 58.815h5.836c.365-4.285 2.279-8.025 5.289-10.85 3.19-2.829 6.929-4.288 11.306-4.288 4.013 0 8.024 1.551 10.942 4.377 2.918 2.828 4.65 6.656 4.925 10.942 3.92.64 7.204 2.462 9.938 5.472 2.555 3.01 4.014 6.84 4.014 10.76 0 4.013-1.46 7.841-4.014 10.76-2.734 3.191-6.017 4.924-9.938 5.38v12.492c0 4.377-1.733 8.571-4.65 11.49-2.918 2.917-6.93 4.65-11.307 4.65-4.651 0-8.754-1.733-11.672-4.65" fill="#B8B711" mask="url(#b)"/></g><path d="M68.547 58.314c0-6.54-5.301-11.842-11.841-11.842-6.54 0-11.842 5.302-11.842 11.842 0 6.54 5.303 11.841 11.842 11.841 6.54 0 11.841-5.301 11.841-11.841" fill="#FFF"/><path d="M62.841 59.634a6.136 6.136 0 1 0-12.271 0 6.136 6.136 0 0 0 12.271 0" fill="#1F3016"/><path d="M58.234 53.499a2.348 2.348 0 1 0-4.696 0 2.348 2.348 0 0 0 4.696 0M40.56 59.77c1.982-6.95-1.228-13.96-7.168-15.655-5.94-1.695-12.365 2.567-14.348 9.52-1.983 6.95 1.227 13.96 7.167 15.655 5.942 1.694 12.366-2.568 14.348-9.52" fill="#FFF"/><path d="M37.032 60.282c1.027-3.602-.635-7.233-3.714-8.111-3.078-.878-6.406 1.33-7.433 4.93-1.028 3.604.635 7.235 3.713 8.113 3.079.878 6.407-1.33 7.434-4.932" fill="#1F3016"/><path d="M30.438 54.185c.393-1.378-.243-2.768-1.42-3.104-1.18-.335-2.452.51-2.846 1.888-.392 1.378.244 2.768 1.421 3.104 1.178.336 2.451-.51 2.845-1.888m40.769 5.585c-1.982-6.95 1.227-13.96 7.168-15.655 5.94-1.695 12.365 2.567 14.348 9.52 1.982 6.95-1.227 13.96-7.168 15.655-5.941 1.694-12.365-2.568-14.348-9.52" fill="#FFF"/><path d="M74.735 60.282c-1.027-3.602.635-7.233 3.713-8.111 3.078-.878 6.407 1.33 7.433 4.93 1.028 3.604-.634 7.235-3.712 8.113-3.08.878-6.408-1.33-7.434-4.932" fill="#1F3016"/><path d="M81.329 54.185c-.393-1.378.243-2.768 1.42-3.104 1.179-.335 2.452.51 2.846 1.888.392 1.378-.244 2.768-1.421 3.104-1.178.336-2.451-.51-2.845-1.888" fill="#FFF"/><path d="M62.958 7.958c3.64 1.345 5.856 4.426 4.949 6.883-.908 2.456-4.595 3.357-8.235 2.011-3.641-1.345-5.857-4.425-4.95-6.882.908-2.456 4.595-3.357 8.236-2.012m-11.385 8.409c1.3.48 2.09 1.58 1.767 2.458-.325.877-1.641 1.198-2.941.718-1.3-.481-2.091-1.58-1.766-2.457.324-.877 1.64-1.198 2.94-.72m-2.48-9.099c2.131.911 3.258 3.056 2.517 4.79-.743 1.733-3.07 2.4-5.202 1.49-2.13-.912-3.257-3.056-2.516-4.79.741-1.734 3.07-2.4 5.201-1.49" fill="#A1A00F"/><path d="M84.823 107.996c0-6.07-4.306-14.946-9.616-14.946-5.312 0-9.617 8.877-9.617 14.946 0 6.069 4.305 7.033 9.617 7.033 5.31 0 9.616-.964 9.616-7.033" fill="#D1CF13"/><path d="M54.277 86.265c-4.471 0-5.45-5.42-2.956-7.796.713-.683 1.693-1.114 2.956-1.114 1.173 0 2.094.371 2.792.966 2.718 2.301 1.767 7.944-2.792 7.944" fill="#314B22"/><path d="M57.069 78.32l-.817 2.91a.806.806 0 0 1-.757.58h-2.911a.793.793 0 0 1-.773-.653l-.49-2.688a3.913 3.913 0 0 1 2.035-1.025c.282-.06.594-.09.921-.09.192 0 .386.016.564.03.906.105 1.648.447 2.228.937" fill="#FFF"/><path d="M54.841 77.384v1.827c0 .965-1.485.965-1.485 0v-1.767c.282-.06.593-.089.921-.089.192 0 .385.014.564.03" fill="#EBEBEB"/><path d="M80.937 96.934c-3.93 1.127-7.83 1.107-11.75-.056-.919-.272-1.312 1.16-.396 1.432 4.158 1.233 8.373 1.251 12.542.057.916-.264.526-1.697-.396-1.433m3.247 8.793c-5.703 3.013-12.172 3.047-17.902.088-.848-.438-1.6.843-.75 1.282 6.21 3.206 13.22 3.178 19.402-.088.846-.446.096-1.728-.75-1.282" fill="#E0DE15"/></g></svg>