<svg width="137" height="149" xmlns="http://www.w3.org/2000/svg"><path fill="#BE1E2D" stroke="#231F20" stroke-width=".787" stroke-linecap="round" stroke-linejoin="round" d="M67.205 127.056c.248-1.836-.671-4.695-2.367-4.729-1.595-.032-2.241 1.171-2.241 1.171-.782 1.365-2.33 3.81-3.033 5.61-.123.318-.227.62-.325.922v-.018s-2.064.74-1.658 1.706c.244.584.791.855 1.186.987.018 1.16.42 2.045 1.326 2.55 2.12 1.182 5.107-2.112 5.107-2.112.723-.875 1.758-4.251 2.005-6.087h0zm13.813 5.209c-1.39-1.59-2.243-6.203-2.443-7.145-.199-.943.348-3.077 1.6-3.508 1.252-.432 2.476.789 2.476.789.913 1.28 2.694 3.562 3.575 5.28.153.306.285.598.415.887l-.002-.018s2.127.534 1.82 1.535c-.187.606-.701.929-1.084 1.099.095 1.156-.213 2.08-1.067 2.669-1.99 1.393-5.29-1.588-5.29-1.588h0z"/><path fill="#BE1E2D" stroke="#231F20" stroke-linecap="round" stroke-linejoin="round" d="M76.878 133.65c1.559-.453 3.472 0 3.472 0s.847 5.147 1.106 7.01c.26 1.865 1.225 4.782 1.225 4.782s.487.291.35 1.053c-.14.76-1.813.907-3.91 1.306-2.094.395-3.806.057-4.136-.692-.332-.745.287-1.093.287-1.093s.976-6.148.088-8.263c.004.004-.468-3.527 1.518-4.104h0z" stroke-width=".9"/><path fill="#BE1E2D" stroke="#231F20" stroke-linecap="round" stroke-linejoin="round" d="M70.162 134.226c-1.84-.844-3.401 1.145-3.401 1.145s.307 5.154.343 7.032c.033 1.884-.017 3.645-.017 3.645s-.437.362-.18 1.094c.256.732 1.93.62 4.061.689 2.135.067 3.77-.532 3.983-1.322.209-.787-.457-1.032-.457-1.032s-1.78-5.158-1.224-7.378c0-.002-.3-2.584-3.108-3.873h0z" stroke-width=".9"/><path fill="#BE1E2D" stroke="#000" d="M80.995 127.045c-.09-.6-.218-1.228-.367-1.843-.475-3.499-3.331-9.106-9.48-8.206-6.15.9-6.17 8.208-6.17 8.208h0c-.302 3.16-.372 8.806 2.52 10.78 3.492 2.382 6.86 2.621 10.035.833 3.21-1.81 3.877-6.97 3.462-9.772h0z" stroke-width=".9"/><path fill="#E6E7E8" stroke="#231F20" stroke-linecap="round" stroke-linejoin="round" d="M79.3 135.074c.041-1.555-.112-8.92-6.84-8.453-5.925.415-4.222 9.71-4.222 9.71l.033.143c3.217 1.915 6.322 1.998 9.263.342.698-.395 1.278-.947 1.75-1.6l.015-.142h0z" stroke-width=".9"/><g stroke="#000" stroke-linecap="round" stroke-linejoin="round" stroke-width=".9"><path fill="#BE1E2D" d="M116.841 97.192l-.535 1.549c-2.966 7.821-7.183 12.322-7.183 12.322s.152-1.396.07-3.64l-.13-.045c-.38 1.18-1.005 2.704-2.042 4.585-2.274 4.133-8.952 7.597-8.952 7.597s.415-1.42.675-3.745l-.093-.356a36.487 36.487 0 0 1-2.234 1.568 36.702 36.702 0 0 1-2.784 1.653c-.284.15-.578.288-.865.431a38.487 38.487 0 0 1-2.796 1.257c-.42.17-.852.322-1.281.48-.79.283-1.591.546-2.41.79-.268.079-.535.158-.807.232-.584.16-1.173.317-1.773.455l.002.002c-3.01.701-6.203 1.159-9.62 1.37-3.699.226-7.051.19-10.183-.029h0a63.442 63.442 0 0 1-6.992-.872l-.32-.058a59.93 59.93 0 0 1-2.002-.413c-.229-.053-.448-.11-.676-.165a54.912 54.912 0 0 1-2.55-.676 51.26 51.26 0 0 1-1.565-.476 60.28 60.28 0 0 1-3.31-1.173l-.136.13c.296 2.115 1.025 3.253 1.607 3.795 1.188 1.107 3.473 1.37 3.473 1.37s-6.986.977-10.79-4.417a33.07 33.07 0 0 1-1.2-1.8l-.166-.362a13.888 13.888 0 0 1-2.49-1.117c-5.04-2.903-5.673-5.298-5.673-5.298l.105.878c.486 2.288.96 3.732.96 3.732s-6.033-3.817-8.719-9.538c-2.166-4.617-2.338-7.414-2.352-7.884l-.203-1.68c-.13-6.578.278-13.956 1.182-21.215l.056-.194c.806-5.61.024-14.907 7.47-24.419 13.95-17.82 28.203-17.2 36.728-30.37 6.27-9.688 4.66-20.8 4.66-20.8s3.844 5.444 5.378 8.641c1.486 3.116 3.072 7.132 3.072 7.132l.051-.034c.035-.117.067-.237.094-.357.418-1.864.253-4.62.253-4.62s3.665 10.743 9.584 17.786c5.914 7.04 14.463 9.052 25.256 33.162 1.343 2.996 2.592 5.517 3.26 8.312l.302 1.61c.941 5.026.571 18.914-1.406 24.914h0zm-69.14-23.611s-6.992 7.262-6.53 17.367c.407 8.941 2.724 11.703 3.973 12.395 1.284.706 3.274.288 3.274.288s-5.63 2.981-10.22-1.064c-3.07-2.705-6.41-6.193-7.345-16.033m75.026 3.15s.869 2.487-1.249 7.684c-2.382 5.855-7.408 7.666-7.408 7.666s4.176-9.02.672-17.501c-1.53-3.706-6.25-6.466-11.179-8.415-6.678-2.643-13.735-3.795-13.735-3.795m36.113 31.956c-.377 1.196-1.01 2.756-2.077 4.688-2.273 4.132-8.951 7.596-8.951 7.596s1.206-4.144.795-9.851M32.277 93.785c-.686 1.273-1.214 2.638-1.51 4.079-1.854 8.986 1.41 18.884 1.41 18.884s-6.03-3.815-8.718-9.537c-2.383-5.078-2.352-7.954-2.352-7.954m95.195-.51c-2.968 7.821-7.184 12.323-7.184 12.323s.87-7.933-2.641-16.416a13.516 13.516 0 0 0-.528-1.118M72.981 75.323s1.196.317 4.35 2.827c3.155 2.511 4.315 5.25 4.315 5.25s-9.314-2.453-14.47-4.307c-5.152-1.856-22.534-6.59-22.534-6.59m-1.155 40.165c2.526 3.967 5.153 6.125 5.153 6.125s-6.179 1.913-11.855-1.354c-5.04-2.904-5.672-5.298-5.672-5.298m67.531 3.324c-6.659 5.123-14.736 7.634-24.562 8.239-11.714.72-20.276-.99-27.594-3.862m-.208-.524c.221 2.537 1.037 3.853 1.677 4.447 1.188 1.106 3.474 1.369 3.474 1.369s-6.988.978-10.792-4.417a33.07 33.07 0 0 1-1.199-1.8m34.217-43.294s25.515 3.112 25.515 17.038"/><path fill="#E6E7E8" d="M104.173 98.683c-.952 10.015-12.465 20.464-29.314 21.45-14.875.877-36.857-5.812-40.046-18.129a17.18 17.18 0 0 1-.531-3.582l.323.236c1.129 1.653 2.38 2.845 3.594 3.91 4.589 4.044 10.22 1.063 10.22 1.063s-1.991.42-3.275-.286c-1.249-.692-3.566-3.454-3.974-12.395-.46-10.107 6.53-17.368 6.53-17.368l.025-.232c5.232 1.45 15.656 4.375 19.449 5.743 5.156 1.855 14.47 4.308 14.47 4.308s-1.16-2.74-4.315-5.25c-1.579-1.257-2.665-1.963-3.357-2.357l.649.102s19.672 2.908 23.274 11.637c3.504 8.482-.67 17.501-.67 17.501s4.28-1.544 6.807-6.379l.14.028h0z"/></g><g stroke="#000" stroke-linecap="round" stroke-width=".9"><path fill="#BE1E2D" d="M111.125 80.4s9.066-10.15 9.57-10.631c.504-.48 4.251-5.074 15.05-6.643 0 0-6.935 30.836-23.088 37.89 0-.001 1.537-8.825-1.532-20.616h0zm.063.248c-.233-.974-.937-2.697-.937-2.697m1.632 25.429s.62-1.479.774-2.365"/><path fill="#929497" d="M119.094 96.169s-1.617-1.244-1.804-5.333c-.12-2.537.995-7.164.995-7.164l-.09.148a25.377 25.377 0 0 0 2.127-2.82c1.145-1.773 2.483-4.431 3.71-7.052l.19-.361s3.245-4.745 9.97-5.346l.077.043c-1.417 4.687-3.728 11.562-6.287 16.259-2.871 5.268-6.193 9.094-9.006 11.722l.118-.096h0zm-3.61-9.707s2.36-2.305 2.801-2.79"/></g><g stroke="#000" stroke-linecap="round" stroke-width=".9"><path fill="#BE1E2D" d="M23.62 101.015C7.47 93.96.535 63.125.535 63.125c10.799 1.57 14.545 6.163 15.05 6.643.504.48 9.57 10.631 9.57 10.631-3.07 11.792-1.533 20.616-1.533 20.616h0zm2.406-23.064s-.704 1.723-.937 2.697m-1.468 20.367c.154.886.774 2.365.774 2.365"/><path fill="#929497" d="M17.302 96.265c-2.813-2.629-6.134-6.455-9.006-11.722-2.56-4.697-4.87-11.572-6.287-16.26l.077-.042c6.726.602 9.97 5.346 9.97 5.346l.19.361c1.226 2.62 2.565 5.279 3.71 7.052a25.377 25.377 0 0 0 2.127 2.82l-.09-.148s1.114 4.627.994 7.164c-.186 4.09-1.804 5.333-1.804 5.333l.12.096h0zm.69-12.593c.442.485 2.801 2.79 2.801 2.79"/></g><path fill="#231F20" d="M60.498 94c-.144-.04-2.68-.73-5.905-.58a.87.87 0 0 0-.445-.362c-.003-.001-.422-.175-.524-.559a.894.894 0 0 0-1.1-.64.9.9 0 0 0-.64 1.101c.077.288.205.522.344.731-.132.023-.266.052-.399.08a.864.864 0 0 0-.348-.17c-.006-.003-.454-.108-.609-.475a.905.905 0 0 0-1.181-.478.9.9 0 0 0-.479 1.18c.166.394.405.68.658.902a1.33 1.33 0 0 0-.103.995 1.355 1.355 0 0 0 1.673.919c4.095-1.194 8.284-.055 8.326-.042A1.351 1.351 0 0 0 60.498 94zm32.215-1.108a.901.901 0 0 0-.707-1.059.892.892 0 0 0-1.059.707c-.077.385-.476.583-.501.598a.872.872 0 0 0-.38.344c-.105-.024-.218-.046-.336-.07.097-.241.174-.506.192-.82a.9.9 0 0 0-.852-.943c-.532-.056-.92.358-.945.852-.018.283-.202.487-.319.587-2.382-.313-5.359-.35-6.77 1.083a1.35 1.35 0 0 0 .015 1.91 1.346 1.346 0 0 0 1.91-.012c.73-.744 4.36-.493 7.164.199.74.18 1.456-.266 1.635-.989.07-.284.02-.562-.08-.815.393-.29.874-.77 1.033-1.572z"/><path fill="none" stroke="#231F20" stroke-linecap="round" d="M60.074 104.378s3.23 4.957 11.39 4.986c8.157.036 10.758-6.572 10.758-6.572" stroke-width=".9"/></svg>