<svg width="120" height="120" viewBox="0 0 120 120" xmlns="http://www.w3.org/2000/svg"><g transform="translate(0 29)" fill="none" fill-rule="evenodd"><path fill="#504B5A" d="M92.741 18.618l-8.243 4.107-4.122-12.321h8.243z"/><ellipse fill="#DCDBDE" cx="96.863" cy="13.484" rx="4.122" ry="5.134"/><path d="M88.62 6.297h5.152a3.086 3.086 0 0 1 3.09 3.08v8.214a3.086 3.086 0 0 1-3.09 3.08h-1.03L88.618 6.297z" fill="#FF6464"/><path fill="#736F7B" d="M76.254 18.618H37.097l6.182 12.32-8.243 6.161-2.061 6.16 16.487 6.161h16.487l4.122-6.16h2.061l4.122-14.375z"/><path d="M50.492 24.778h24.731a3.086 3.086 0 0 0 3.092-3.08 3.086 3.086 0 0 0-3.092-3.08h-24.73a3.086 3.086 0 0 0-3.092 3.08c0 1.7 1.384 3.08 3.091 3.08z" fill="#504B5A"/><path d="M61.828 24.778l1.345 4.022a4.116 4.116 0 0 0 2.91 2.686l6.05 1.506 3.09-8.214H61.828z" fill="#625D6B"/><path d="M84.417 13.963l1.812 9.152a4.094 4.094 0 0 1-.614 3.073L75.348 41.533a4.125 4.125 0 0 1-3.235 1.824l-2.042.096v-4.3l6.183-18.482 8.163-6.708z" fill="#D2555A"/><path d="M18.548 24.778C8.305 24.778 0 33.053 0 43.26c0 10.207 8.305 18.48 18.548 18.48 10.244 0 18.548-8.275 18.548-18.481 0-10.207-8.304-18.482-18.548-18.482zm0 30.802c-6.83 0-12.365-5.516-12.365-12.32 0-6.805 5.536-12.322 12.365-12.322 6.83 0 12.366 5.517 12.366 12.321 0 6.805-5.536 12.321-12.366 12.321z" fill="#504B5A"/><ellipse fill="#A7A5AC" cx="18.548" cy="43.26" rx="8.244" ry="8.214"/><ellipse fill="#504B5A" cx="18.548" cy="43.26" rx="4.122" ry="4.107"/><path d="M100.985 24.778c-10.244 0-18.548 8.275-18.548 18.481 0 10.207 8.304 18.482 18.548 18.482 10.244 0 18.548-8.275 18.548-18.481 0-10.207-8.304-18.482-18.548-18.482zm0 30.802c-6.83 0-12.366-5.516-12.366-12.32 0-6.805 5.536-12.322 12.366-12.322s12.366 5.517 12.366 12.321c0 6.805-5.537 12.321-12.366 12.321z" fill="#504B5A"/><ellipse fill="#A7A5AC" cx="100.985" cy="43.26" rx="8.244" ry="8.214"/><ellipse fill="#504B5A" cx="100.985" cy="43.26" rx="4.122" ry="4.107"/><path d="M100.985 45.314c-.852 0-1.648-.53-1.946-1.375L85.337 4.93a1.03 1.03 0 0 0-.972-.688h-3.99c-1.138 0-2.06-.92-2.06-2.053 0-1.134.921-2.054 2.06-2.054h3.99c2.185 0 4.14 1.38 4.862 3.437l13.704 39.008a2.054 2.054 0 0 1-1.266 2.617 2.082 2.082 0 0 1-.68.116zm-82.435-.001a2.063 2.063 0 0 1-1.873-1.193 2.05 2.05 0 0 1 1.008-2.725l26.792-12.321a2.065 2.065 0 0 1 2.735 1.004 2.05 2.05 0 0 1-1.008 2.726l-26.792 12.32c-.28.129-.574.189-.862.189zm39.156-26.695l-15.251 5.065a10.46 10.46 0 0 1-6.595 0l-17.998-5.978a3.606 3.606 0 0 1-2.29-4.565 3.622 3.622 0 0 1 3.796-2.45l38.338 3.82v4.108z" fill="#625D6B"/><path d="M84.417 13.963c.588 3.511-2.13 6.708-5.703 6.708h-19.18c-3.202 0-5.284-3.357-3.852-6.21l.009-.018a4.305 4.305 0 0 1 3.197-2.323l18.947-2.904c3.128-.48 6.062 1.636 6.582 4.747z" fill="#FF6464"/><path d="M64.084 51.474H52.45a18.57 18.57 0 0 1-6.513-1.177L32.25 45.183a2.054 2.054 0 0 1-1.205-2.644 2.067 2.067 0 0 1 2.654-1.203l13.688 5.115c1.625.607 3.33.915 5.064.915h11.633a3.924 3.924 0 0 0 3.926-3.913 3.908 3.908 0 0 0-2.687-3.712l-8.27-2.747a2.052 2.052 0 0 1-1.302-2.598 2.057 2.057 0 0 1 2.607-1.299l8.27 2.747a8.013 8.013 0 0 1 5.504 7.609c0 4.423-3.61 8.02-8.048 8.02z" fill="#625D6B"/><ellipse fill="#504B5A" cx="54.614" cy="40.179" rx="5.152" ry="5.134"/><ellipse fill="#A7A5AC" cx="52.553" cy="27.859" rx="3.091" ry="3.08"/><ellipse fill="#D2555A" cx="78.83" cy="15.024" rx="3.607" ry="3.594"/></g></svg>