<svg width="120" height="120" viewBox="0 0 120 120" xmlns="http://www.w3.org/2000/svg"><g fill="none" fill-rule="evenodd"><path fill="#7A8E9B" d="M105.6 48.942L94.007 37.388l11.752-11.711-23.18-23.102L23.817 61.13l46.362 46.212 35.258-35.14-11.59-11.55z"/><path d="M82.579 0L70.827 11.71l-2.586 2.578-9.166 9.135-2.584 2.576L44.74 37.71l11.59 11.552-23.503 23.423 25.766 25.678 23.5-23.423 11.594 11.55 14.335-14.288-11.59-11.55 11.753-11.71L96.59 37.389l10.464-10.424 1.288-1.287L82.579 0zm-4.515 18.924l-4.655-4.637 9.17-9.137 9.006 8.975-9.167 9.137-4.354-4.338zM85 25.838l9.17-9.137 9.005 8.976-9.168 9.135L85 25.837zm-23.34.16l9.164-9.137 9.006 8.977-9.165 9.135-9.006-8.975zm11.588 11.55l9.17-9.134 9.005 8.974-9.168 9.14-9.007-8.98zm-23.346.161l9.172-9.138 9.01 8.976-9.17 9.14-9.012-8.978zm34.939 11.392l9.166-9.138 9.006 8.978-9.168 9.135-9.004-8.975zm-23.345.16l9.17-9.139 9.007 8.979-9.173 9.137-9.004-8.977zm11.59 11.55l9.17-9.137 9.005 8.977-9.17 9.136-9.006-8.976zM37.99 72.685L58.914 51.84l9.005 8.972-20.917 20.85-9.011-8.977zm46.685-.318l9.17-9.142 9.008 8.977-9.168 9.14-9.01-8.975zM49.584 84.235L70.501 63.39l9.007 8.977-20.916 20.845-9.008-8.977z" fill="#525C6B"/><path fill="#DB5743" d="M36.627 73.898l-9.865 3.998 6.574 6.549 9.859-3.999zm.434 14.259l3.004 2.991 28.06 27.965 4.885-8.956L46.923 84.16zM12 63.182l7.31 7.283 9.862-3.992-8.181-8.158z"/><path fill="#F87670" d="M43.194 80.447L86.237 63l-3.71-7.704-45.9 18.601zm35.128-33.895L63.569 15.885l-42.578 42.43 8.182 8.158zM46.923 84.159l26.086 25.998 24.272-24.191-8.943-18.592z"/><path fill="#FFBD66" d="M29.173 66.473l-9.862 3.993 7.45 7.43 9.866-3.998z"/><path fill="#FDDC85" d="M36.627 73.898l45.898-18.602-4.203-8.745-49.149 19.922z"/><path fill="#FFBD66" d="M43.194 80.447l-9.859 3.996 3.727 3.713 9.86-3.996z"/><path fill="#FDDC85" d="M46.923 84.159l41.415-16.785-2.1-4.372-43.043 17.444z"/><path fill="#E2E2E2" d="M97.282 85.966L65.706 67.742 63.57 15.886z"/></g></svg>