<svg width="120" height="120" viewBox="0 0 120 120" xmlns="http://www.w3.org/2000/svg" xmlns:xlink="http://www.w3.org/1999/xlink"><defs><path id="a" d="M.085 0h15.277v117.278H.085z"/><path id="c" d="M0 .066h14.685V43.92H0z"/></defs><g fill="none" fill-rule="evenodd"><g transform="translate(53.64)"><mask id="b" fill="#fff"><use xlink:href="#a"/></mask><path d="M3.495 117.278a3.404 3.404 0 0 1-3.4-3.662L8.56 3.142c.144-1.874 1.778-3.256 3.656-3.133a3.404 3.404 0 0 1 3.137 3.652L6.888 114.135a3.405 3.405 0 0 1-3.393 3.143" fill="#1A1A1A" mask="url(#b)"/></g><g transform="translate(51 76.08)"><mask id="d" fill="#fff"><use xlink:href="#c"/></mask><path d="M6.138 43.92a6.128 6.128 0 0 1-6.12-6.592L2.44 5.72C2.698 2.35 5.646-.158 9.02.08a6.127 6.127 0 0 1 5.646 6.575l-2.421 31.608a6.13 6.13 0 0 1-6.107 5.656" fill="#534741" mask="url(#d)"/></g></g></svg>