<svg width="120" height="120" viewBox="0 0 120 120" xmlns="http://www.w3.org/2000/svg" xmlns:xlink="http://www.w3.org/1999/xlink"><defs><path id="a" d="M.006.1h48.487v17.544H.006z"/><path id="c" d="M.044.083h19.46v53.374H.045z"/><path id="e" d="M.316 1.497l35.243.141.005-1.157L.32.339z"/></defs><g fill="none" fill-rule="evenodd"><path d="M58.784 74.806c-.57-1.507-1.161-3.064-1.732-4.564a5.773 5.773 0 0 1-1.693.005c.136 1.277.913 2.71 1.34 3.93.129.368.394 1.386.73 1.471.293.074.826-.352 1.355-.842" fill="#210D04"/><path d="M60.494 73.614l.375 1.073-1.214.427c-.147-.329-.297-.658-.437-.993.425-.165.851-.332 1.276-.507zm2.196.789l.383 1.095-1.203.496-.14.058-.416-1.156c.46-.162.918-.327 1.376-.493zm3.347.235l.431 1.292c-.831.332-1.66.671-2.487 1.013l-.455-1.255c.839-.345 1.677-.692 2.51-1.05zm.119-.16c.008.007.01.013.003.017 0-.005-.003-.01-.003-.016zm.777 2.848c-.818.327-1.634.66-2.449.997l-.383-1.051c.825-.34 1.65-.682 2.47-1.031l.362 1.085zm-1.887 2.54l-.443-1.214c.813-.335 1.625-.672 2.434-1.016l.417 1.25c-.805.322-1.607.65-2.408.98zm2.913.536c-.792.317-1.582.64-2.37.966l-.424-1.173c.8-.329 1.597-.66 2.393-.998l.401 1.205zm.484 1.452c-.782.314-1.562.633-2.34.955a286.2 286.2 0 0 0-.396-1.112c.787-.324 1.573-.65 2.357-.982l.38 1.14zm.5 1.504c-.775.31-1.548.626-2.32.945l-.253-.732c-.048-.14-.101-.289-.152-.432.778-.32 1.555-.643 2.33-.971l.395 1.19zm.476 1.435c-.769.308-1.536.62-2.302.938-.126-.366-.252-.732-.38-1.098.772-.317 1.542-.637 2.31-.962.125.373.249.747.372 1.122zm.492 1.482c-.763.306-1.524.617-2.284.931l-.395-1.145c.765-.315 1.529-.633 2.291-.956.13.39.26.78.388 1.17zm.436 1.322c-.758.303-1.514.611-2.268.923l-.337-.984a222.91 222.91 0 0 0 2.274-.948l.331 1.009zm.566 1.718c-.752.301-1.503.607-2.252.916l-.47-1.38c.755-.31 1.508-.623 2.26-.942l.462 1.406zm.56 1.702c-.747.298-1.492.601-2.235.908l-.464-1.362c.749-.309 1.496-.62 2.241-.936l.457 1.39zm-1.75 2.353l-.373-1.113c.743-.306 1.484-.614 2.223-.929l.37 1.14c-.741.296-1.48.597-2.22.902zm2.72.635c-.738.293-1.472.593-2.206.895l-.402-1.198c.738-.304 1.475-.61 2.21-.923l.398 1.226zm1.987 6.224c-.715.286-1.428.577-2.14.871l-.11-.336-.288-.873a199.56 199.56 0 0 0 2.15-.899c.132.415.258.824.388 1.237zm.416 1.328c-.71.283-1.417.571-2.124.863l-.323-.987a245.6 245.6 0 0 0 2.13-.889l.317 1.013zm.489 1.565c-.702.282-1.403.566-2.103.855l-.4-1.225c.705-.29 1.41-.584 2.112-.883.13.417.262.838.39 1.253zm.439 1.436c-.694.278-1.385.56-2.075.845l-.357-1.093a288.65 288.65 0 0 0 2.09-.872l.342 1.12zm.501 1.644c-.683.275-1.364.552-2.044.833l-.423-1.3c.688-.283 1.376-.57 2.062-.86.135.443.272.887.405 1.327zm.23.754l.186.628c-.676.266-1.348.544-2.014.832l-.338-1.048c.679-.28 1.357-.562 2.033-.847l.133.435zm.657 2.22c-.666.255-1.328.52-1.988.796-.128-.403-.256-.806-.386-1.208.665-.289 1.332-.572 2-.851l.374 1.263zm.499 1.705c-.666.153-1.341.353-2.01.594-.12-.384-.243-.767-.365-1.15a482.94 482.94 0 0 1 1.97-.829l.405 1.385zm.456 1.557l-1.926.785c-.138-.451-.277-.902-.418-1.352a46.68 46.68 0 0 1 1.985-.657l.359 1.224zm.453 1.541c-.627.294-1.258.578-1.893.848-.126-.418-.25-.836-.377-1.253.64-.261 1.28-.53 1.915-.803l.355 1.208zm.384 1.275c-.625.303-1.254.597-1.888.88-.09-.308-.183-.616-.275-.924a47.624 47.624 0 0 0 1.88-.886c.093.31.19.62.283.93zm.426 1.404c-.66.209-1.319.426-1.975.65l-.243-.84a45.452 45.452 0 0 0 1.89-.89c.11.36.217.72.328 1.08zm-3.687 1.25l-.209-.72c.403-.17.714-.305.802-.342.187-.079.372-.16.558-.24.085.268.171.537.258.805-.471.163-.94.33-1.41.498zm-2.09.77c-.096-.214-.194-.43-.289-.65a28.192 28.192 0 0 0 1.855-.71l.223.699c-.597.217-1.194.437-1.789.661zm-1.987-6.744c.547-.25 1.095-.495 1.645-.736l.355 1.148c-.544.272-1.066.565-1.552.878-.026-.07-.049-.14-.078-.21-.143-.333-.279-.663-.418-.994a.162.162 0 0 0 .048-.086zm-1.095-2.89l.03-.046a.184.184 0 0 0 .027-.065.314.314 0 0 0 .093-.05l.47-.194.78-.322.4-.165.2.629.15.48c-.622.289-1.242.582-1.858.883-.147-.362-.295-.723-.438-1.084a.171.171 0 0 0 .146-.066zm-.782-1.556c.06.032.157.002.194-.054l.03-.045a.179.179 0 0 0 .028-.066.32.32 0 0 0 .093-.05l.47-.194.78-.322.463-.191.416 1.302-1.213.5c-.241.1-.6.158-.772.376-.165-.418-.328-.837-.491-1.257l.002.001zm-.526-1.4c.06.032.157.002.194-.054l.03-.046a.169.169 0 0 0 .028-.065.317.317 0 0 0 .094-.051l.468-.194.782-.322.524-.217c.12.365.238.73.356 1.093l-1.277.526c-.255.105-.64.167-.796.419-.14-.365-.281-.732-.42-1.099l.017.01zm-.574-1.483a.156.156 0 0 0 .082-.057l.03-.046a.175.175 0 0 0 .027-.064.315.315 0 0 0 .094-.051l.469-.194.781-.322.702-.29.401 1.224-1.339.552c-.258.107-.649.168-.802.428-.13-.342-.26-.682-.389-1.027l-.056-.153zm-.98-2.894c.061.033.157.003.194-.053l.03-.046a.175.175 0 0 0 .028-.065.317.317 0 0 0 .094-.051l.469-.194.781-.322.623-.257.401 1.207-1.284.529c-.273.112-.701.172-.83.475-.04.09.013.179.093.221l.064.034c.06.032.157.002.194-.054l.03-.046a.184.184 0 0 0 .028-.065.334.334 0 0 0 .094-.05c.156-.066.312-.13.468-.194l.782-.323.472-.195.324.986-1.514.624c-.216.09-.527.147-.712.317-.306-.833-.6-1.667-.883-2.506l.054.028zm-.459-1.598l.03-.046a.177.177 0 0 0 .028-.065.332.332 0 0 0 .094-.05l.469-.194.78-.322.743-.307.423 1.262-1.434.59c-.264.11-.669.17-.813.446-.14-.418-.278-.835-.413-1.253a.16.16 0 0 0 .093-.061zm-.454-1.454l.03-.045a.175.175 0 0 0 .027-.066.334.334 0 0 0 .094-.05l.469-.194.781-.322.71-.294c.126.37.25.74.374 1.11-.517.212-1.034.426-1.551.64-.216.087-.523.145-.709.311-.11-.342-.219-.685-.326-1.029.04-.008.08-.03.1-.061zm-.605-1.591l.03-.046a.172.172 0 0 0 .028-.065.325.325 0 0 0 .094-.05l.469-.194.781-.322.767-.317.435 1.282-1.52.627c-.216.089-.525.147-.71.314-.127-.408-.252-.817-.376-1.227l.002-.002zm-.779-3.066l.03-.045a.175.175 0 0 0 .028-.066.32.32 0 0 0 .094-.05l.468-.194.782-.322.53-.22.381 1.11-1.292.533c-.26.107-.655.169-.805.433-.11-.372-.218-.744-.326-1.116a.163.163 0 0 0 .11-.063zm-.496-1.727l.03-.046a.18.18 0 0 0 .027-.064.327.327 0 0 0 .094-.051l.469-.194.781-.322.445-.184.468 1.36-1.338.552c-.217.089-.526.147-.712.315l-.374-1.303a.16.16 0 0 0 .11-.063zm-.464-1.76l.03-.046a.175.175 0 0 0 .028-.065.325.325 0 0 0 .093-.05l.47-.194.78-.322.318-.132.477 1.377-1.253.516c-.216.089-.526.147-.711.315l-.381-1.334a.17.17 0 0 0 .149-.065zm-.377-1.345l.03-.046a.178.178 0 0 0 .027-.065.332.332 0 0 0 .094-.05l.469-.194.781-.322.239-.099.34.981-1.124.464c-.228.094-.562.153-.741.345l-.273-.95a.17.17 0 0 0 .158-.064zm-.527-1.469l.03-.045a.181.181 0 0 0 .028-.066.324.324 0 0 0 .094-.05l.468-.194.782-.322.252-.104.398 1.143-1.046.431c-.232.095-.57.154-.749.352a305.95 305.95 0 0 0-.318-1.097.146.146 0 0 0 .061-.048zm-1.546-9.92l-1.08.444a2.527 2.527 0 0 1-.177.063 27.525 27.525 0 0 0-.335-1.293 647.996 647.996 0 0 0 1.15-.475l.442 1.26zm1.053 8.5a.073.073 0 0 0 .016-.014l.03-.046a.175.175 0 0 0 .028-.065.334.334 0 0 0 .094-.051l.468-.193.782-.323.231-.095.383 1.095-1.06.436c-.2.083-.482.138-.67.28a120 120 0 0 0-.302-1.023zm-.458-1.523l.008-.008.03-.045a.181.181 0 0 0 .028-.066.316.316 0 0 0 .093-.05l.47-.194.78-.322.176-.073c.136.388.27.775.407 1.163l-1.038.428c-.186.076-.44.13-.626.25a155.48 155.48 0 0 0-.328-1.083zm-.475-1.533c.002-.006.007-.012.009-.019a.322.322 0 0 0 .093-.05l.469-.194.781-.322.202-.084.39 1.113-.982.405c-.183.076-.434.129-.62.246-.112-.365-.227-.73-.342-1.095zm-.495-1.544c.011-.007.022-.01.034-.019l.469-.193.781-.322.237-.098.413 1.176-1.01.416c-.16.066-.373.115-.548.205-.124-.39-.25-.777-.376-1.165zm-.458-1.59l.308-.128.782-.323.346-.142.427 1.22-1.043.43c-.14.057-.318.101-.477.17-.128-.404-.24-.814-.343-1.228zm-.341-1.448l.236-.097.781-.322.273-.113.37 1.056-1.152.475c-.076.032-.165.059-.255.089-.087-.362-.17-.725-.253-1.088zm4.879 16.807l.052.028c.061.032.157.002.195-.054l.03-.046a.186.186 0 0 0 .028-.065.316.316 0 0 0 .093-.05l.469-.194a1277.414 1277.414 0 0 1 1.265-.522l.408 1.195-1.576.65c-.18.075-.428.128-.613.241a230.52 230.52 0 0 1-.351-1.183zm4.768 1.214l-1.324.546h-.002l-.43-1.284.592-.245.728-.3.436 1.283zm3.006.415c-.727.29-1.452.585-2.176.883-.122-.37-.243-.742-.367-1.112.728-.3 1.455-.602 2.178-.911.123.38.243.76.365 1.14zm-2.52 1.025l-1.336.552-.367-1.113.657-.271.672-.277.375 1.109zm-1.226.884l.635-.262.703-.29.424 1.261-1.238.511-.107.044-.417-1.264zm1.269 11.554l.08-.02a.166.166 0 0 0 .117-.099 89.36 89.36 0 0 1 1.629-.765l.372 1.188c-.584.261-1.165.526-1.743.796-.153-.367-.306-.734-.455-1.1zm1.862 6.173c.654-.2 1.303-.425 1.947-.67.097.312.198.622.296.933-.519.204-1.04.403-1.566.59-.102.037-.218.065-.332.097-.13-.318-.25-.637-.345-.95zm1.827-1.054c-.636.25-1.274.496-1.917.738l-.009-.03c-.107-.428-.171-.85-.233-1.269l.04-.01a.157.157 0 0 0 .105-.078c.54-.205 1.08-.412 1.619-.622l.395 1.271zm-2.478-2.145c.532-.246 1.052-.51 1.576-.766l.4 1.297c-.57.226-1.142.449-1.716.669a8.564 8.564 0 0 0-.26-1.2zm4.574 2.764c-.4.176-.802.348-1.208.513l-.145.056a181.56 181.56 0 0 0-.276-.937c.449-.175.895-.358 1.338-.55l.291.918zm-.41-1.303a82.11 82.11 0 0 1-1.336.543c-.127-.424-.253-.848-.382-1.272.443-.174.886-.349 1.327-.526l.39 1.255zm-.5-1.607c-.441.179-.883.355-1.325.531-.135-.44-.272-.88-.409-1.321.349-.167.7-.33 1.06-.476.084-.034.17-.063.254-.095l.42 1.361zm-.543-1.759c-.447.172-.887.36-1.316.564-.118-.377-.238-.753-.357-1.13.44-.191.88-.382 1.321-.57.118.379.236.757.352 1.136zm-.462-1.492c-.443.187-.884.378-1.323.573l-.379-1.188c.44-.2.882-.398 1.324-.592l.378 1.207zm-.58-1.85c.032.097.062.195.092.293-.444.194-.885.393-1.325.595l-.353-1.094.982-.406.362-.15c.08.254.162.509.243.761zm-.35-1.095l-1.02.421-.324.134-.423-1.3.926-.382.424-.175.418 1.302zm-.525-1.635l-1.081.446-.27.111-.357-1.092.866-.358.487-.2c.12.365.237.729.355 1.093zm-.463-1.427a803.575 803.575 0 0 1-1.354.559l-.401-1.225.69-.285c.221-.09.442-.182.663-.274.134.409.27.818.402 1.225zm-.511-1.557a625.72 625.72 0 0 1-1.353.558l-.324-.986.918-.38.433-.178c.11.329.217.657.326.986zm-.436-1.319l-1.088.45-.262.107-.153-.467c-.08-.247-.163-.494-.244-.741l.761-.315.584-.24.402 1.206zm1.984-2.555c-.722.288-1.442.581-2.16.878-.14-.422-.28-.843-.418-1.264a198.24 198.24 0 0 0 2.165-.906c.137.43.277.862.413 1.292zm-.976-3.052c-.731.29-1.46.588-2.188.888l-.43-1.284c.733-.303 1.465-.608 2.195-.92l.423 1.316zm-3.09-.58l-1.32.545-.401-1.199.868-.358.443-.183.41 1.195zm-.523-1.526l-1.096.452-.214.088-.373-1.113.811-.335.49-.203c.128.37.256.74.382 1.11zm-.495-1.441l-1.142.471-.158.065-.464-1.362a688.275 688.275 0 0 0 1.295-.535l.469 1.36zm-.583-1.691l-1.056.435-.238.098c-.156-.46-.312-.92-.47-1.38l1.01-.416.277-.115.477 1.378zm-.592-1.708l-.927.383-.358.147c-.112-.328-.223-.656-.336-.983a3461.58 3461.58 0 0 1 1.28-.529l.341.982zm-.456-1.312l-.849.35c-.143.06-.287.118-.43.177l-.396-1.144a8125.224 8125.224 0 0 1 1.277-.527l.398 1.144zm-.514-1.474l-.861.355-.414.171-.38-1.096c.36-.15.721-.299 1.082-.447l.191-.08.382 1.097zm-.497-1.427l-.84.348-.432.177-.298-.86-.106-.304 1.134-.468.135-.056.407 1.163zm-.523-1.493l-.784.324-.485.2-.395-1.112 1.113-.46c.054-.021.107-.044.161-.066l.39 1.114zm-.505-1.444l-.812.335-.465.192-.423-1.173a3521.303 3521.303 0 0 1 1.287-.532l.413 1.178zm-.529-1.507l-.846.349-.445.183-.441-1.214.999-.413.305-.126.428 1.22zm-.544-1.551a559.37 559.37 0 0 1-1.308.54l-.384-1.051 1.09-.45.232-.096.37 1.057zm-.486-1.387l-.882.364-.443.183-.456-1.254.786-.325.554-.228.441 1.26zm-2.235-.898l-1.135.467c-.012-.039-.022-.078-.035-.117a11.65 11.65 0 0 0-.43-1.11l.456-.161.732-.257c.136.392.274.784.412 1.178zm-4.123 2.628c1.292 3.711 3.038 9.878 4.409 13.566 1.898 5.103 2.1 7.064 3.561 11.596 1.27 3.936 3.188 7.9 4.91 11.662.233.51 1.827 5.683 3.841 3.905-.077-.18-.162-.366-.248-.556.583-.22 1.167-.433 1.753-.643l.291-.104c.473-.168.946-.335 1.42-.498l.293-.1c.7-.24 1.399-.477 2.1-.71l.056-.018c.051-.028.087-.078.07-.144l-.058-.21c-.102-.38-.207-.76-.31-1.141l-.09-.324c-.086-.315-.173-.63-.262-.946l-.095-.335-.34-1.203-.094-.325c-.115-.398-.233-.796-.35-1.194l-.086-.296c-.143-.485-.287-.968-.432-1.452-.03-.104-.062-.207-.093-.31l-.382-1.27-.099-.322-.326-1.068c-.032-.104-.063-.209-.096-.313l-.41-1.33-.097-.312-.348-1.123a1755.279 1755.279 0 0 0-.582-1.87l-.318-1.025-.097-.31-.21-.673-.177-.57-.097-.307-.434-1.387-.03-.094-.425-1.358a880.964 880.964 0 0 0-.978-3.081l-.098-.307c-.123-.386-.244-.77-.368-1.155l-.09-.285-.457-1.412-.099-.305-.458-1.417-.1-.307c-.11-.339-.219-.678-.33-1.016l-.1-.307-.388-1.177-.101-.308-.371-1.129-.101-.307-.345-1.049-.05-.148-.102-.307a330.45 330.45 0 0 0-1.447-4.222l-.093-.27-.385-1.107-.105-.302-.507-1.462a3.091 3.091 0 0 0-.281-.002.158.158 0 0 0-.098.007c-.847.335-1.69.681-2.532 1.029l-.386-1.076.16-.058c.162-.06.08-.36-.083-.306-.635.21-1.267.43-1.9.651-.146-.412-.289-.814-.424-1.201-.04-.112-.147-.123-.229-.078a.064.064 0 0 0-.054-.005c-.466.169-.931.345-1.397.525a9.93 9.93 0 0 1-.194-.534c-1.09.097-3.12.103-3.208 1.387-.07 1.022 1.234 3.159 1.58 4.153z" fill="#827717"/><path d="M66.913 60.234c-1.58.34-3.212.695-4.786 1.037 0 .552-.08 1.15-.243 1.67 1.288.052 2.826-.503 4.1-.745.384-.073 1.433-.185 1.568-.504.116-.278-.23-.865-.639-1.458" fill="#210D04"/><g transform="translate(65.332 45.648)"><mask id="b" fill="#fff"><use xlink:href="#a"/></mask><path d="M.649 12.726l1.12-.213.245 1.26c-.347.096-.697.196-1.05.285a69.512 69.512 0 0 0-.315-1.332m1.105-2.048l1.143-.217.316 1.258.037.146c-.41.083-.813.163-1.209.241-.093-.476-.19-.952-.287-1.428m.724-3.264l1.347-.235c.208.868.423 1.733.64 2.599l-1.312.265c-.22-.877-.442-1.755-.675-2.629m-.14-.14c.007-.007.013-.01.016-.002-.006 0-.011.002-.017.001m2.942-.348c.204.855.416 1.707.63 2.56l-1.1.223a236.38 236.38 0 0 0-.66-2.586l1.13-.197m2.246 2.232l-1.272.258c-.213-.85-.428-1.7-.651-2.547l1.302-.227c.201.84.41 1.679.62 2.516m.96-2.792c.198.827.403 1.652.611 2.478l-1.227.245c-.21-.835-.421-1.67-.64-2.504l1.255-.219m1.514-.264c.197.817.399 1.632.604 2.447l-1.162.227a234.51 234.51 0 0 0-.63-2.467L9.997 6.1m1.566-.272c.195.809.394 1.617.598 2.424l-.763.142-.452.087c-.205-.814-.41-1.627-.623-2.438l1.24-.215m1.494-.26c.194.804.392 1.606.594 2.407l-1.145.213c-.202-.807-.407-1.613-.618-2.417l1.17-.202m1.544-.268c.192.797.388 1.593.589 2.388l-1.195.222c-.2-.8-.404-1.6-.613-2.399l1.219-.21m1.376-.236c.19.791.385 1.581.584 2.371l-1.026.187c-.2-.793-.4-1.587-.608-2.38l1.05-.178m1.79-.306c.188.786.382 1.57.579 2.354l-1.44.26a215.35 215.35 0 0 0-.604-2.364l1.465-.25m1.771-.301c.187.78.379 1.557.575 2.334l-1.422.258c-.196-.783-.395-1.565-.6-2.346l1.447-.246m2.08 2.068l-1.16.204c-.195-.776-.392-1.552-.596-2.326.395-.067.79-.132 1.186-.198.185.774.376 1.547.57 2.32m1.03-2.587c.183.77.372 1.538.565 2.305l-1.249.22c-.194-.771-.39-1.542-.592-2.312l1.276-.213m6.471-1.045c.18.746.364 1.492.551 2.237l-.35.059c-.303.051-.605.104-.908.156-.189-.752-.38-1.503-.577-2.252.43-.068.855-.133 1.284-.2m1.38-.215c.177.74.36 1.48.545 2.219l-1.027.174c-.187-.744-.376-1.487-.57-2.23L30.5 2.68m1.626-.253c.176.733.356 1.466.54 2.197l-1.275.216c-.185-.738-.373-1.475-.567-2.21.434-.068.87-.137 1.302-.203m1.49-.221c.175.723.353 1.446.535 2.167l-1.138.193c-.183-.73-.369-1.46-.56-2.187.39-.06.775-.115 1.163-.173m1.706-.254c.173.713.348 1.426.527 2.137l-1.352.226c-.18-.72-.364-1.44-.551-2.158l1.376-.205m.783-.115c.217-.032.433-.06.65-.092.166.705.343 1.407.53 2.107l-1.089.18c-.178-.71-.359-1.42-.543-2.129l.452-.066m2.3-.323c.155.694.322 1.386.5 2.076-.42.067-.839.134-1.257.203a137.23 137.23 0 0 1-.552-2.095c.436-.062.873-.124 1.31-.184m1.766-.241c.053.678.153 1.373.294 2.068-.398.062-.796.127-1.195.19-.18-.687-.358-1.374-.534-2.063l1.435-.195m1.612-.221c.167.67.333 1.342.497 2.012l-1.404.214c-.14-.681-.25-1.365-.36-2.052l1.267-.174m1.598-.221c.2.662.388 1.325.563 1.99-.433.063-.866.124-1.3.188a99.875 99.875 0 0 0-.516-2.005c.418-.057.835-.114 1.253-.173m1.322-.19c.209.66.409 1.322.597 1.989l-.958.134a46.829 46.829 0 0 0-.605-1.982c.322-.046.644-.095.966-.142m1.455-.214c.112.682.23 1.362.357 2.042l-.87.115A45.066 45.066 0 0 0 45.04.592c.373-.055.747-.108 1.12-.165m.702 3.817l-.748.1c-.109-.422-.197-.749-.221-.84-.05-.196-.104-.39-.157-.585.28-.045.559-.09.838-.137.092.488.189.975.288 1.462m.457 2.171a38.89 38.89 0 0 1-.687.19 27.61 27.61 0 0 0-.434-1.931l.726-.118c.128.62.26 1.24.395 1.86m-6.988.969c-.168-.575-.33-1.152-.49-1.73l1.192-.18c.19.576.405 1.133.645 1.657-.074.016-.147.028-.22.047-.352.092-.7.177-1.05.266a.163.163 0 0 0-.077-.06m-3.03.656l-.042-.037a.178.178 0 0 0-.06-.036.312.312 0 0 0-.037-.1l-.123-.49-.206-.817-.105-.417c.217-.035.437-.072.654-.106.166-.027.333-.052.5-.078.195.656.395 1.31.603 1.962l-1.14.273a.168.168 0 0 0-.045-.154m-1.66.542c.041-.055.026-.155-.024-.2a3.907 3.907 0 0 0-.041-.036.18.18 0 0 0-.06-.037.33.33 0 0 0-.038-.1l-.123-.49-.206-.817-.121-.483c.453-.075.903-.147 1.353-.22l.319 1.27c.063.251.069.614.26.815-.439.102-.879.2-1.32.3l.002-.002m-1.468.313c.04-.055.025-.154-.026-.2l-.04-.036a.18.18 0 0 0-.06-.036.322.322 0 0 0-.038-.1l-.123-.49-.206-.818-.138-.55 1.138-.189.335 1.335c.067.267.071.655.298.846-.382.086-.768.17-1.152.253l.012-.015m-1.556.348a.155.155 0 0 0-.045-.089l-.04-.037a.186.186 0 0 0-.061-.036.33.33 0 0 0-.037-.1l-.123-.49-.206-.817-.184-.734 1.274-.216.352 1.4c.068.27.071.665.306.853-.359.078-.715.157-1.077.233l-.16.033m-3.017.541c.041-.055.026-.154-.025-.2l-.04-.036a.183.183 0 0 0-.061-.036.33.33 0 0 0-.037-.1l-.123-.49-.206-.818-.163-.65 1.256-.22.337 1.343c.073.287.069.717.35.888.085.052.18.013.234-.06l.043-.057c.04-.055.024-.155-.026-.2l-.04-.036a.174.174 0 0 0-.061-.037.328.328 0 0 0-.037-.1 203.567 203.567 0 0 1-.329-1.307l-.124-.494c.343-.06.684-.117 1.027-.175l.397 1.584c.057.226.069.541.21.748-.871.178-1.743.346-2.618.502l.036-.049m-1.654.218l-.04-.037a.18.18 0 0 0-.062-.036.339.339 0 0 0-.036-.1l-.124-.49-.205-.817-.195-.776c.438-.078.876-.156 1.314-.232.125.5.25 1 .377 1.5.069.275.07.683.322.865-.434.077-.87.152-1.304.224a.16.16 0 0 0-.047-.101m-1.51.235l-.041-.037a.18.18 0 0 0-.061-.036.326.326 0 0 0-.037-.1l-.123-.49-.205-.818-.188-.743c.386-.07.771-.137 1.156-.206l.408 1.624c.057.225.069.536.206.743-.356.058-.712.116-1.069.17a.163.163 0 0 0-.046-.107m-1.669.362l-.04-.037a.18.18 0 0 0-.061-.036.32.32 0 0 0-.037-.1l-.124-.49-.205-.818-.202-.802 1.337-.24.4 1.59c.056.225.068.538.207.746-.424.064-.848.128-1.273.19 0-.002-.001-.003-.002-.003m-3.159.318a3.936 3.936 0 0 1-.04-.037.195.195 0 0 0-.061-.036.33.33 0 0 0-.037-.1l-.123-.49-.206-.817-.14-.555 1.158-.213.34 1.352c.068.271.071.67.311.857-.385.052-.77.105-1.156.156a.16.16 0 0 0-.046-.117m-1.787.236a3.909 3.909 0 0 1-.041-.036.184.184 0 0 0-.06-.037.33.33 0 0 0-.038-.1l-.123-.49-.205-.817-.118-.465 1.42-.263.351 1.4c.057.227.07.54.21.748-.45.06-.9.12-1.35.178a.165.165 0 0 0-.046-.118m-1.816.199l-.041-.036a.18.18 0 0 0-.06-.037.32.32 0 0 0-.037-.1l-.124-.49-.205-.817-.084-.332c.479-.09.958-.18 1.437-.268l.329 1.31c.057.226.068.54.208.747l-1.38.18a.168.168 0 0 0-.043-.157m-1.391.175l-.04-.037a.18.18 0 0 0-.062-.036.34.34 0 0 0-.036-.1l-.124-.49a706.53 706.53 0 0 0-.268-1.067l1.025-.193.295 1.177c.06.239.07.576.234.781l-.984.13c.017-.056.001-.128-.04-.165m-1.535.303l-.041-.036a.178.178 0 0 0-.06-.037.322.322 0 0 0-.038-.1 254.03 254.03 0 0 1-.123-.49l-.206-.817-.066-.264 1.193-.225.275 1.095c.061.241.07.584.24.789l-1.136.152a.15.15 0 0 0-.038-.067M4.999 11.9l.284 1.129c.014.056.025.12.036.184a28.44 28.44 0 0 0-1.333.14l-.146-.582-.156-.62 1.315-.251m8.597.208c-.005-.005-.008-.013-.013-.017l-.04-.037a.178.178 0 0 0-.061-.036.333.333 0 0 0-.037-.1l-.123-.49-.206-.818-.061-.242 1.143-.216.279 1.108c.052.209.065.495.178.7l-1.06.148m-1.58.228l-.006-.008-.041-.037a.18.18 0 0 0-.061-.036.33.33 0 0 0-.037-.1l-.123-.49-.205-.818-.047-.183 1.214-.23.273 1.085c.049.194.065.453.156.653l-1.123.164m-1.591.244c-.006-.003-.012-.009-.018-.011a.323.323 0 0 0-.037-.1l-.123-.49-.206-.817-.053-.212 1.163-.22.258 1.026c.048.192.064.448.153.647-.38.058-.758.117-1.137.177m-1.607.262c-.005-.013-.006-.024-.013-.037l-.123-.49-.206-.817-.062-.248 1.229-.234.264 1.055c.043.168.06.385.124.57-.405.065-.809.132-1.213.2m-1.646.22l-.081-.324-.206-.817-.09-.362 1.273-.242.274 1.09c.037.146.054.329.099.496-.42.067-.843.117-1.27.158m-1.486.124l-.062-.247-.205-.817-.073-.286 1.104-.21.302 1.205c.02.08.035.171.051.265-.372.032-.744.06-1.117.09M23.09 10.84l.035-.047c.04-.056.025-.155-.025-.2l-.041-.037a.186.186 0 0 0-.06-.036.32.32 0 0 0-.038-.1l-.123-.49-.205-.817-.128-.506 1.247-.227.414 1.648c.048.19.064.44.15.64-.409.058-.817.116-1.226.172m1.903-4.52l.35 1.385v.002c-.447.077-.893.157-1.34.235l-.156-.62-.191-.761 1.337-.24m.854-2.903c.18.76.368 1.517.558 2.274-.386.066-.773.131-1.159.198-.19-.76-.384-1.521-.585-2.28l1.186-.192m.649 2.633l.351 1.398-1.158.198-.173-.687-.177-.702c.385-.07.771-.138 1.157-.207m.697 1.339l-.167-.665-.185-.735c.438-.078.877-.156 1.315-.232l.326 1.295.028.111-1.317.226m11.66.443l-.008-.081a.162.162 0 0 0-.082-.13 86.93 86.93 0 0 1-.521-1.718c.411-.064.823-.129 1.235-.192.173.613.351 1.225.534 1.834-.387.097-.774.194-1.158.287m6.402-.929a31.335 31.335 0 0 0-.379-2.017c.323-.05.646-.104.969-.156.127.542.248 1.085.357 1.63.02.106.032.224.047.342-.335.082-.669.152-.994.201m-.778-1.955c.155.663.305 1.328.451 1.997l-.032.004c-.44.043-.868.044-1.293.044l-.004-.04a.157.157 0 0 0-.062-.116 241.55 241.55 0 0 0-.38-1.686l1.32-.203m-2.494 2.127c-.166-.56-.351-1.11-.53-1.665l1.347-.204c.14.595.279 1.191.413 1.788a8.76 8.76 0 0 0-1.23.08m3.416-4.101c.116.42.228.842.331 1.266l.036.15c-.325.044-.648.09-.972.135a37.815 37.815 0 0 0-.35-1.399l.955-.152m-1.354.214c.119.463.232.93.343 1.396-.44.062-.88.124-1.32.19-.107-.463-.216-.925-.328-1.386l1.305-.2m-1.67.256c.113.461.223.923.334 1.384-.458.068-.915.138-1.373.209a19.31 19.31 0 0 1-.316-1.115c-.022-.087-.038-.175-.058-.263l1.414-.215m-1.826.277c.104.466.226.926.365 1.38-.391.06-.782.124-1.173.186-.126-.462-.251-.924-.373-1.386l1.18-.18m-1.55.237c.122.464.246.926.375 1.387-.412.066-.823.132-1.235.2-.133-.464-.266-.927-.393-1.392L39 3.958m-1.923.3l.305-.048c.128.466.26.93.397 1.393l-1.14.187a3958528.066 3958528.066 0 0 1-.353-1.405l.79-.128m-1.137.185l.269 1.066.085.34c-.45.074-.902.15-1.352.226l-.244-.968-.112-.444c.453-.075.904-.148 1.354-.22m-1.7.278l.284 1.13.07.283-1.136.191-.228-.905-.128-.51 1.137-.19m-1.484.248l.301 1.197.055.219-1.275.216c-.06-.24-.12-.481-.182-.722l-.174-.693c.425-.073.851-.146 1.275-.217m-1.622.275a2017.693 2017.693 0 0 1 .357 1.416l-1.028.173-.241-.96-.114-.452 1.026-.177m-1.373.237l.287 1.138.069.273-.487.083-.772.132-.2-.797-.154-.61 1.257-.22m-2.247-2.33c.18.754.366 1.507.555 2.259l-1.316.225a179.17 179.17 0 0 0-.582-2.266l1.343-.218m-3.173.515c.182.763.37 1.525.561 2.287-.446.077-.892.157-1.339.235-.193-.767-.387-1.533-.59-2.298l1.368-.224m-1.029 2.96l.347 1.38-1.248.22-.23-.908-.116-.464 1.247-.227m-1.592.29l.288 1.146c.02.075.038.15.056.224l-1.16.205-.213-.849-.13-.513c.387-.07.773-.142 1.159-.213m-1.504.277l.301 1.194.041.165c-.474.085-.947.172-1.42.258l-.235-.932-.107-.422 1.42-.263m-1.765.327l.278 1.103.063.25-1.44.26-.265-1.056-.073-.29 1.437-.267m-1.782.332a498.501 498.501 0 0 1 .338 1.344l-1.026.187-.285-1.131-.052-.208 1.025-.192m-1.37.257c.074.296.15.592.223.888l.113.45-1.194.222-.28-1.114a41.513 41.513 0 0 1-.056-.221l1.194-.225m-1.539.29l.227.901.109.433-1.145.213a677.969 677.969 0 0 1-.335-1.331l1.144-.216m-1.489.282l.222.879.113.45-.9.168-.315.06-.3-1.186a84.38 84.38 0 0 1-.035-.141l1.215-.23m-1.56.295l.207.82.127.508c-.377.072-.766.148-1.161.226l-.293-1.164a17.25 17.25 0 0 1-.043-.169l1.164-.22M9.2 9.26l.214.848.122.487-1.226.245-.288-1.14-.051-.206L9.2 9.26m-1.575.3c.075.294.149.59.222.884l.118.466c-.421.084-.845.17-1.271.257l-.264-1.046-.08-.319 1.275-.242m-1.62.308a469.117 469.117 0 0 1 .345 1.369l-1.1.223-.287-1.139-.061-.243 1.103-.21m-1.448.276l.232.922.117.464-1.313.265a2855.428 2855.428 0 0 1-.353-1.4l1.317-.251m-1.22 2.07l.298 1.188c-.04.006-.081.01-.122.017-.39.063-.777.158-1.165.262l-.093-.474-.148-.759 1.23-.233m2.006 4.448c3.875-.73 10.254-1.545 14.117-2.356 5.345-1.122 7.323-1.034 12.036-1.808 4.096-.674 8.312-1.984 12.3-3.128.542-.156 5.912-.967 4.442-3.213-.19.05-.388.106-.588.163-.133-.607-.26-1.214-.383-1.822l-.06-.302c-.097-.49-.193-.981-.286-1.472-.02-.101-.038-.203-.057-.304-.135-.724-.268-1.448-.396-2.173-.004-.02-.008-.038-.01-.057-.02-.055-.064-.098-.132-.09l-.217.025c-.393.045-.787.093-1.18.14-.11.013-.223.025-.334.039l-.978.12-.347.045c-.414.052-.83.104-1.244.16l-.337.043c-.412.055-.824.113-1.236.17-.103.014-.205.027-.307.042a360.073 360.073 0 0 0-1.827.258l-1.317.191-.334.05c-.37.054-.738.11-1.108.165l-.325.048a478.536 478.536 0 0 0-1.705.26l-1.167.177-.322.05-1.307.201-.312.048-1.065.164-.323.05-.698.107-.592.093-.319.05-1.44.224-.099.015-1.41.22-.102.016c-1.035.163-2.068.33-3.102.496l-.32.052-1.2.193-.296.048-1.47.243-.316.052a1315.78 1315.78 0 0 0-1.794.297c-.352.06-.705.117-1.056.176l-.321.054-1.225.21c-.107.017-.214.036-.32.054l-1.176.2-.32.055c-.364.062-.729.123-1.092.186l-.155.027-.32.056c-.387.068-.784.139-1.193.213l-.319.058a446.225 446.225 0 0 0-1.576.29l-1.316.245a46880390.851 46880390.851 0 0 0-1.753.329l-1.526.285a3.14 3.14 0 0 0-.043.277.155.155 0 0 0-.007.097c.208.884.428 1.765.65 2.646l-1.125.223-.034-.165c-.036-.17-.346-.134-.316.036.116.656.241 1.311.368 1.967-.43.084-.85.165-1.255.242-.117.023-.143.127-.11.214a.06.06 0 0 0-.014.052c.1.485.206.97.316 1.454-.184.042-.37.082-.558.113-.064 1.09-.356 3.09.907 3.365 1.004.218 3.318-.753 4.356-.949" fill="#827717" mask="url(#b)"/></g><path d="M54.176 51.985c.378 1.74.771 3.536 1.151 5.269a6.39 6.39 0 0 1 1.852.268c.058-1.418-.558-3.11-.826-4.514-.081-.423-.206-1.578-.56-1.725-.307-.128-.96.252-1.617.702" fill="#210D04"/><g transform="translate(38.065 .261)"><mask id="d" fill="#fff"><use xlink:href="#c"/></mask><path d="M14.048 52.75l-.235-1.233 1.396-.27c.108.383.218.767.317 1.155a80.86 80.86 0 0 0-1.478.348m-2.271-1.216l-.241-1.258 1.396-.35a4.78 4.78 0 0 0 .162-.04l.267 1.331c-.529.103-1.057.209-1.584.317m-3.62-.798l-.262-1.482a244.38 244.38 0 0 0 2.883-.706l.294 1.446c-.973.242-1.946.485-2.915.742M8 50.891c-.007-.008-.01-.015 0-.018-.002.006 0 .012 0 .018m-.387-3.238a229.26 229.26 0 0 0 2.84-.694l.248 1.211c-.957.239-1.914.479-2.869.728l-.22-1.245m2.478-2.472l.285 1.4c-.942.235-1.885.471-2.825.717l-.252-1.433c.932-.222 1.863-.45 2.792-.684m-3.098-1.055c.918-.22 1.833-.445 2.749-.674.088.444.18.895.272 1.35-.927.232-1.854.465-2.778.706l-.243-1.382M6.7 42.459a233.38 233.38 0 0 0 2.715-.665c.08.417.165.843.252 1.28-.914.227-1.826.456-2.737.693L6.7 42.46m-.302-1.723c.898-.214 1.794-.434 2.69-.659.053.28.104.56.158.84l.095.498c-.902.225-1.804.452-2.704.685l-.239-1.364M6.11 39.09c.891-.212 1.78-.43 2.67-.653.078.42.156.84.236 1.26-.895.223-1.789.448-2.682.68L6.11 39.09m-.296-1.7c.883-.21 1.766-.428 2.648-.648l.246 1.315c-.888.221-1.775.445-2.66.675l-.234-1.341m-.262-1.515c.878-.21 1.755-.425 2.63-.644l.209 1.13c-.88.22-1.761.441-2.64.67l-.199-1.156m-.339-1.97c.872-.208 1.742-.421 2.61-.638l.29 1.584c-.875.218-1.75.438-2.623.665l-.277-1.612m-.334-1.95c.865-.205 1.727-.417 2.59-.632.094.522.19 1.043.285 1.564-.868.217-1.736.436-2.602.661l-.273-1.593m2.294-2.29c.076.426.15.852.227 1.278-.862.214-1.722.431-2.58.656-.075-.436-.147-.87-.22-1.305a260.43 260.43 0 0 0 2.573-.629m-2.87-1.133c.854-.2 1.706-.41 2.558-.622.08.458.162.916.244 1.375-.856.213-1.712.429-2.566.651l-.236-1.404m-1.16-7.124c.83-.198 1.656-.4 2.483-.607.02.129.043.257.065.386l.173 1c-.834.208-1.667.418-2.498.635-.076-.474-.147-.941-.222-1.414m-.239-1.519c.822-.194 1.643-.395 2.462-.6.065.377.13.754.193 1.131-.825.206-1.65.414-2.473.628l-.182-1.159m-.28-1.79c.814-.193 1.626-.392 2.438-.595l.24 1.404c-.82.204-1.638.41-2.454.624L2.625 18.1m-.245-1.64c.802-.192 1.604-.388 2.404-.588l.213 1.252c-.81.201-1.618.406-2.426.616l-.191-1.28m-.281-1.878c.79-.19 1.58-.383 2.37-.58l.251 1.488c-.8.2-1.597.401-2.395.608L2.1 14.58m-.13-.861l-.1-.717a76.063 76.063 0 0 0 2.337-.584l.199 1.2c-.788.196-1.575.395-2.36.598l-.075-.497m-.357-2.533c.77-.17 1.537-.355 2.302-.55.074.462.15.923.225 1.384-.773.208-1.547.41-2.324.607-.068-.48-.137-.96-.203-1.441m-.268-1.945a19.35 19.35 0 0 0 2.294-.324l.211 1.315c-.762.199-1.525.395-2.289.589l-.216-1.58M1.1 7.468a844.12 844.12 0 0 1 2.232-.548c.078.515.157 1.03.238 1.546-.756.154-1.516.276-2.277.397L1.1 7.468M.855 5.709a64.09 64.09 0 0 1 2.208-.62c.068.476.136.953.208 1.43-.744.182-1.485.372-2.224.569-.064-.46-.127-.92-.192-1.379M.643 4.254c.733-.23 1.468-.45 2.207-.658.048.352.1.703.15 1.055-.74.206-1.474.428-2.2.666-.05-.355-.105-.709-.157-1.063M.405 2.651a95.642 95.642 0 0 0 2.265-.393c.042.32.085.639.129.958a50.1 50.1 0 0 0-2.211.667c-.06-.41-.12-.822-.183-1.232m4.234-.773l.111.823c-.468.12-.83.217-.932.243-.217.056-.433.115-.649.173l-.15-.923c.54-.101 1.08-.207 1.62-.316m2.41-.504c.07.25.142.502.21.758-.58.096-1.427.296-2.143.476l-.13-.799c.688-.14 1.376-.285 2.063-.435m1.075 7.693c-.638.185-1.278.364-1.919.54l-.2-1.312c.639-.21 1.257-.447 1.839-.71.017.08.03.16.052.242.101.387.196.77.294 1.155a.18.18 0 0 0-.066.085m.727 3.336l-.04.045a.2.2 0 0 0-.04.067.36.36 0 0 0-.111.04l-.544.137-.907.226-.462.115c-.04-.24-.08-.48-.117-.72-.03-.183-.057-.366-.087-.55.728-.214 1.453-.435 2.176-.663.102.418.204.836.303 1.255a.189.189 0 0 0-.17.048m.601 1.827c-.061-.044-.172-.028-.221.028l-.041.045a.202.202 0 0 0-.04.066.37.37 0 0 0-.111.041l-.544.136-.907.226-.536.134c-.083-.499-.162-.994-.244-1.49l1.408-.35c.28-.07.683-.076.905-.287.113.483.223.968.332 1.452h-.001m.347 1.616c-.061-.045-.172-.028-.221.027l-.04.045a.21.21 0 0 0-.041.067.368.368 0 0 0-.11.04l-.545.136-.906.226-.61.152-.21-1.251 1.48-.37c.296-.073.727-.078.94-.328.094.42.188.845.28 1.268a.748.748 0 0 0-.017-.012m.386 1.712a.172.172 0 0 0-.099.05l-.04.044a.2.2 0 0 0-.04.067.356.356 0 0 0-.111.04l-.544.136-.907.226-.814.204-.24-1.403 1.554-.387c.3-.075.737-.08.946-.338.086.395.174.787.259 1.186l.036.175m.6 3.322c-.06-.045-.17-.028-.22.027l-.042.045a.195.195 0 0 0-.04.067.348.348 0 0 0-.11.04l-.545.136-.906.226-.722.18a586.57 586.57 0 0 1-.243-1.383l1.49-.37c.317-.08.795-.076.985-.387.057-.092.014-.197-.067-.256-.02-.016-.043-.031-.064-.047-.061-.045-.171-.028-.22.027l-.041.045a.194.194 0 0 0-.04.067.358.358 0 0 0-.112.04l-.544.136-.906.227c-.183.045-.366.09-.548.137l-.194-1.13 1.756-.438c.252-.063.6-.076.83-.231.199.959.385 1.919.558 2.882l-.055-.04m.242 1.82l-.04.046a.194.194 0 0 0-.041.066.361.361 0 0 0-.11.041l-.545.136-.906.226-.86.215a858.34 858.34 0 0 1-.258-1.447l1.663-.414c.307-.077.758-.079.961-.356.085.479.168.957.248 1.436a.178.178 0 0 0-.112.052m.26 1.663l-.04.045a.194.194 0 0 0-.04.066.37.37 0 0 0-.111.04l-.544.137-.907.226-.825.206-.228-1.273 1.8-.448c.25-.063.596-.076.826-.228.064.393.128.785.19 1.178a.178.178 0 0 0-.12.05m.401 1.837l-.04.045a.191.191 0 0 0-.041.067.352.352 0 0 0-.11.04l-.545.136-.906.226-.89.223-.267-1.472 1.764-.44c.25-.062.597-.076.827-.229.072.467.142.935.21 1.402l-.002.002m.353 3.478c-.014.014-.027.03-.04.045a.207.207 0 0 0-.041.066.348.348 0 0 0-.11.04l-.544.136-.907.227c-.205.05-.41.102-.616.154l-.235-1.275 1.499-.373c.301-.076.743-.08.95-.344.059.424.117.848.174 1.273-.05 0-.1.018-.13.05m.262 1.968l-.04.045a.195.195 0 0 0-.041.067.353.353 0 0 0-.11.04l-.545.136-.907.226-.515.13c-.098-.521-.194-1.042-.29-1.563l1.552-.387c.251-.062.6-.076.83-.23l.197 1.485a.184.184 0 0 0-.131.051m.22 2l-.04.044a.185.185 0 0 0-.04.067.354.354 0 0 0-.111.04l-.544.136-.907.226-.367.093c-.1-.527-.2-1.055-.298-1.582l1.453-.362c.25-.063.599-.076.829-.23l.2 1.52a.188.188 0 0 0-.174.047m.193 1.531l-.04.045a.199.199 0 0 0-.04.067.361.361 0 0 0-.111.04l-.544.136-.907.227-.277.069-.213-1.128 1.305-.325c.265-.066.64-.077.867-.258l.144 1.084a.188.188 0 0 0-.184.043m.337 1.69l-.04.046a.191.191 0 0 0-.041.067.351.351 0 0 0-.111.04l-.544.136a1163.701 1163.701 0 0 0-1.199.299l-.249-1.314 1.214-.302c.268-.067.648-.077.875-.264l.17 1.25a.164.164 0 0 0-.075.043m.076 11.094l1.252-.312c.063-.016.133-.028.205-.04.042.491.09.981.155 1.467l-.645.161-.69.172-.277-1.448m.232-9.463c-.007.005-.015.008-.02.014l-.04.045a.197.197 0 0 0-.041.067.351.351 0 0 0-.11.04l-.545.136-.906.226-.269.067-.24-1.259c.41-.102.82-.203 1.229-.306.232-.058.55-.072.777-.197.054.39.11.778.165 1.167m.253 1.74c-.003.003-.008.004-.01.007l-.04.045a.207.207 0 0 0-.041.067.355.355 0 0 0-.11.04 314.026 314.026 0 0 1-1.451.362l-.204.051-.255-1.336 1.204-.3c.215-.054.501-.072.724-.172.06.412.12.824.183 1.236m.27 1.752c-.004.006-.01.012-.012.019a.37.37 0 0 0-.111.04l-.544.136-.907.227-.234.058-.245-1.28 1.139-.283c.213-.054.496-.071.718-.17.063.418.129.835.195 1.253m.29 1.768c-.013.006-.025.007-.04.015l-.543.136-.907.226-.275.069-.26-1.353 1.17-.292c.187-.046.428-.066.634-.135.072.445.146.89.222 1.334m.242 1.812l-.358.09-.907.226-.4.1-.27-1.402 1.21-.302c.162-.04.364-.06.55-.109.074.462.13.929.175 1.397m.138 1.637l-.275.068-.906.227-.317.079-.233-1.214 1.337-.333c.088-.023.19-.039.294-.056.035.409.067.819.1 1.23m-2.6-19.16l-.053-.039c-.062-.045-.172-.028-.221.028l-.041.045a.199.199 0 0 0-.04.066.358.358 0 0 0-.111.041l-.544.136-.907.226-.56.14c-.085-.458-.17-.915-.253-1.372l1.829-.456c.21-.052.489-.07.71-.165.064.45.128.9.19 1.35m-5.013-2.096l1.536-.384h.002l.26 1.474-.687.172-.844.21c-.09-.49-.179-.981-.267-1.472m-3.22-.94c.843-.198 1.683-.404 2.523-.613.073.425.145.85.22 1.275-.844.21-1.688.423-2.53.644l-.212-1.306m2.92-.713l1.55-.388.221 1.276-.763.19-.778.195-.23-1.273m1.485-.769l-.737.185-.815.203-.258-1.447 1.436-.359.124-.03.25 1.448m.493-12.834l-.09.008a.182.182 0 0 0-.145.09c-.634.198-1.269.389-1.906.574-.071-.453-.143-.906-.212-1.36.68-.19 1.358-.386 2.034-.587.107.425.215.851.319 1.275M7.59 3.648a35.41 35.41 0 0 0-2.237.417L5.18 2.998c.6-.14 1.202-.273 1.807-.392.118-.024.25-.036.38-.053.09.37.168.737.223 1.095m-2.17.857c.736-.171 1.474-.337 2.216-.497l.005.034c.047.484.048.957.048 1.424l-.045.004a.176.176 0 0 0-.128.07c-.624.136-1.247.276-1.87.417l-.225-1.452M7.78 7.25c-.62.182-1.233.386-1.847.582L5.708 6.35c.66-.155 1.321-.306 1.984-.454.003.451.021.901.089 1.354m-4.55-3.761c.466-.127.933-.25 1.404-.364l.167-.04c.049.357.099.713.15 1.07-.52.119-1.037.248-1.552.386L3.23 3.49m.238 1.491a86.809 86.809 0 0 1 1.548-.378c.07.484.138.969.21 1.453-.512.118-1.024.238-1.536.361-.073-.479-.148-.957-.222-1.436m.284 1.837l1.535-.367c.076.505.154 1.008.232 1.511a21.4 21.4 0 0 1-1.236.349c-.098.023-.195.042-.293.064l-.238-1.557m.308 2.01c.516-.114 1.027-.25 1.53-.402l.207 1.292c-.513.138-1.025.276-1.538.41l-.2-1.3m.264 1.707a89.266 89.266 0 0 0 1.538-.413l.22 1.36c-.512.147-1.027.293-1.542.433l-.216-1.38m.331 2.116l-.052-.335c.516-.14 1.031-.287 1.545-.437l.208 1.253-1.14.285-.419.105-.142-.87m.205 1.252l1.183-.296.377-.094.251 1.489-1.075.269-.492.122c-.083-.498-.164-.994-.244-1.49m.308 1.872c.418-.105.836-.21 1.255-.313l.313-.078.212 1.251-1.004.252-.566.14-.21-1.252m.274 1.635a680.893 680.893 0 0 1 1.571-.393l.24 1.404-.8.2-.77.192a257.78 257.78 0 0 1-.24-1.403m.305 1.784l1.531-.382.039-.01.193 1.13a801.872 801.872 0 0 0-1.567.393l-.196-1.13m.262 1.51l1.263-.315.303-.075.091.535.147.85-.884.22-.677.17a334.58 334.58 0 0 1-.243-1.385M3.424 23.18c.837-.198 1.672-.403 2.506-.611.082.483.166.966.25 1.45-.84.208-1.678.42-2.514.64-.08-.493-.163-.988-.242-1.479m.57 3.494c.848-.2 1.693-.407 2.538-.618.086.492.175.983.26 1.474-.85.212-1.7.427-2.548.65l-.25-1.506m3.286 1.132l1.53-.382.243 1.375-1.007.251-.515.129-.251-1.373m.321 1.753l1.272-.317.248-.062c.076.425.15.851.227 1.277l-.941.235-.569.142-.237-1.275m.307 1.655a621.367 621.367 0 0 1 1.508-.376l.286 1.564-1.033.258-.47.117-.29-1.563m.362 1.943l1.224-.306.277-.069.289 1.584-1.172.293-.321.08c-.1-.527-.198-1.054-.297-1.582m.368 1.962l1.077-.269.414-.103.208 1.13-1.255.313-.23.058-.214-1.129m.286 1.508l.985-.246.5-.124c.08.438.164.876.246 1.314l-1.236.31-.246.06-.25-1.314m.323 1.694l1-.25.48-.12.236 1.26-1.255.315-.222.055-.24-1.26m.313 1.64l.975-.244.5-.125.186.99.066.348-1.315.329-.157.039-.255-1.338m.328 1.717l.91-.227.562-.14c.08.415.165.843.252 1.278l-1.292.323-.187.047-.245-1.28m.318 1.66c.313-.08.627-.158.941-.236l.54-.134.272 1.35-1.266.316-.228.057-.26-1.354m.333 1.734l.981-.246.517-.128.285 1.399-1.16.29-.354.088-.269-1.403m.342 1.782l1.108-.276.41-.103.249 1.211-1.264.316-.27.067-.233-1.215m.306 1.595l1.023-.256.515-.128c.1.486.197.968.294 1.445a3522.43 3522.43 0 0 0-1.554.388l-.278-1.45m2.297 1.344l1.317-.328c.007.044.012.09.02.134.07.429.174.855.29 1.283l-.526.102-.841.163-.26-1.354m4.935-2.208c-.809-4.265-1.714-11.288-2.613-15.54-1.245-5.885-1.147-8.062-2.007-13.25-.746-4.509-2.2-9.15-3.469-13.541-.172-.596-1.073-6.508-3.564-4.89.056.21.117.427.18.649-.672.145-1.346.285-2.02.42l-.336.066c-.543.107-1.088.213-1.633.316l-.337.062c-.802.15-1.606.295-2.41.437l-.064.011c-.06.021-.108.07-.1.145l.029.238c.05.433.102.866.155 1.3l.043.367c.044.359.088.718.134 1.076l.049.382c.058.457.116.914.177 1.37.017.124.032.247.05.371.06.454.124.907.186 1.36l.047.339c.078.552.156 1.104.236 1.657l.051.354c.07.483.14.967.212 1.45l.055.367c.06.407.122.813.183 1.22l.053.358.233 1.52.055.357.198 1.284.055.355.223 1.439.053.343.182 1.173.055.355.12.769c.033.217.068.433.102.65l.055.352c.082.529.166 1.057.249 1.586l.017.108.244 1.553.017.112c.182 1.139.366 2.276.551 3.414.02.117.038.235.057.352l.214 1.322.053.325c.089.54.18 1.079.27 1.618l.058.349.271 1.622.059.353.194 1.163.061.353c.076.45.155.899.232 1.349l.06.352.222 1.294.061.352.207 1.203.03.17.062.352a242.629 242.629 0 0 0 .3 1.664l.256 1.385.066.35.272 1.449.059.31.24 1.272.066.347.316 1.68c.144.028.24.042.308.047.03.013.065.018.107.009.98-.23 1.958-.472 2.935-.716.085.42.167.833.247 1.239l-.183.037c-.188.04-.148.38.04.348.728-.128 1.455-.265 2.182-.406.093.475.184.937.269 1.383.025.128.14.157.237.121.016.012.034.02.058.015a77.1 77.1 0 0 0 1.612-.348c.047.203.091.408.126.614 1.209.07 3.428.392 3.732-.998.243-1.106-.835-3.652-1.052-4.795" fill="#827717" mask="url(#d)"/></g><path d="M37.742 85.861l23.9.096c-.048.57-.086 1.142-.145 1.711-.261 2.51-1.22 4.435-3.99 4.998-1.07.218-1.13.514-.598 1.441.06.104.128.202.192.303 1.43 2.264 2.865 4.523 4.288 6.79a10167.81 10167.81 0 0 1 10.882 17.375c.157.25.217.56.322.843-15.19-.061-30.38-.121-45.569-.189-.215 0-.43-.091-.646-.14 1.23-1.93 2.457-3.864 3.691-5.792 4.066-6.357 8.135-12.711 12.2-19.068.699-1.093.616-1.316-.6-1.706-.25-.08-.505-.146-.755-.226-1.105-.354-1.933-1.013-2.397-2.102-.591-1.388-.784-2.842-.775-4.334" fill="#5D4037"/><path d="M42.207 72.196c-.119-.932-.243-1.863-.37-2.794l1.16-.153c.128.936.258 1.872.394 2.807l-1.184.14zm-1.564.183a296.65 296.65 0 0 0-.368-2.77l1.211-.16c.127.929.256 1.858.391 2.785l-1.234.145zm-1.393.162c-.117-.919-.24-1.836-.365-2.753l1.04-.133c.126.921.254 1.843.388 2.763l-1.063.123zm-1.812.208c-.116-.912-.237-1.822-.362-2.732.486-.061.972-.122 1.459-.185.125.917.252 1.832.386 2.747l-1.483.17zm-1.794.205a245.33 245.33 0 0 0-.358-2.71l1.44-.182c.124.909.25 1.817.383 2.725l-1.465.167zm-1.528.169a259.76 259.76 0 0 0-.356-2.692c.392-.049.784-.095 1.176-.143.123.901.248 1.802.38 2.702l-1.2.133zm-1.62.18c-.111-.894-.23-1.786-.352-2.677.422-.05.844-.102 1.265-.153.123.896.248 1.792.378 2.686l-1.291.143zm-1.71.184c-.11-.886-.228-1.77-.349-2.654.452-.053.904-.11 1.357-.164.121.89.245 1.78.378 2.67l-1.385.148zm-1.525.16c-.11-.88-.227-1.76-.348-2.638l1.173-.136c.121.884.244 1.767.375 2.648l-1.2.127zm-1.685.178a265.45 265.45 0 0 0-.346-2.621l1.333-.154c.12.878.242 1.756.372 2.632-.453.047-.908.097-1.359.143zm-1.627.162c-.11-.866-.226-1.731-.344-2.596l.354-.04.92-.107c.12.873.241 1.745.369 2.615-.436.045-.865.085-1.3.128zm-1.395.138c-.109-.86-.222-1.718-.34-2.576l1.04-.118c.118.864.238 1.727.364 2.589l-1.064.105zm-1.644.16c-.109-.85-.221-1.7-.338-2.55l1.291-.146c.117.857.237 1.713.363 2.568-.438.042-.88.087-1.316.128zm-1.506.136c-.108-.84-.219-1.678-.334-2.516l1.151-.13c.116.847.234 1.694.358 2.54-.395.037-.783.07-1.175.106zm-1.725.155a258.8 258.8 0 0 0-.33-2.48c.458-.05.914-.1 1.37-.152.114.836.231 1.672.352 2.507-.464.042-.93.085-1.392.125zm-.79.071c-.219.019-.438.035-.657.053a83.55 83.55 0 0 0-.336-2.446L19 72.135c.113.825.228 1.648.346 2.471l-.456.041zm-2.323.188a87.915 87.915 0 0 0-.307-2.408c.424-.044.847-.088 1.271-.134.125.81.244 1.622.358 2.435l-1.322.107zm-1.783.137c.008-.78-.027-1.58-.104-2.384.403-.04.806-.082 1.209-.124.116.798.23 1.598.343 2.397l-1.448.11zm-.39-4.427c.396-.039.792-.08 1.187-.12.084.537.166 1.074.245 1.611l-1.193.113a23.762 23.762 0 0 0-.238-1.604zm-1.238 4.552c-.104-.779-.208-1.557-.31-2.336.472-.044.945-.088 1.419-.134a60.5 60.5 0 0 1 .17 2.371l-1.279.099zm-1.612.127a72.708 72.708 0 0 1-.38-2.316c.438-.037.875-.073 1.313-.112.103.778.214 1.554.33 2.328l-1.263.1zm-1.336.114a84.092 84.092 0 0 1-.413-2.318c.322-.024.646-.051.968-.078.126.775.266 1.547.42 2.31-.324.027-.65.058-.975.086zm-1.471.13c-.048-.786-.104-1.573-.168-2.358.293-.02.585-.042.878-.064.124.778.265 1.553.42 2.322-.376.034-.753.065-1.13.1zm-.197-2.72a189.54 189.54 0 0 0-.152-1.691l.754-.055c.07.489.127.869.143.976.032.227.068.453.103.68-.283.03-.566.059-.848.09zm-.41-4.206c.232-.055.467-.11.704-.163.039.603.15 1.49.254 2.239l-.735.078c-.07-.719-.144-1.437-.222-2.154zm2.104-.396c.04.778.107 1.556.193 2.332-.327.032-.654.068-.98.102a63.764 63.764 0 0 1-.207-1.888c-.01-.123-.011-.259-.016-.394a10.38 10.38 0 0 1 1.01-.152zm.462 4.376c-.322.032-.644.067-.966.1-.077-.49-.15-.98-.214-1.472l-.021-.174.98-.078c.065.543.138 1.084.221 1.624zm-.1-4.4c.442-.014.87.018 1.293.051v.047c0 .06.022.106.052.137.072.651.147 1.303.224 1.954-.445.042-.89.085-1.334.129-.094-.77-.183-1.54-.267-2.316l.032-.002zm1.822 4.235c-.44.041-.879.084-1.318.126a95.554 95.554 0 0 1-.215-1.62c.445-.037.889-.073 1.333-.113.065.536.13 1.072.2 1.607zm1.094-4.15c.113.652.248 1.296.375 1.942l-1.361.128a216.56 216.56 0 0 1-.248-2.074 7.7 7.7 0 0 0 1.234.004zm.704 3.98l-1.43.134c-.069-.534-.137-1.07-.204-1.605.462-.042.925-.086 1.387-.13.08.428.156.86.213 1.296.014.102.022.204.034.306zm-.172-4.057c.36-.077.713-.147 1.07-.22a.17.17 0 0 0 .072.074c.115.67.224 1.34.33 2.012l-1.205.113a20.41 20.41 0 0 0-.491-1.943c.075-.011.15-.02.224-.036zm2.658-.542v.094c0 .071.03.122.07.154.127.666.247 1.333.362 2.002l-1.25.122a153.84 153.84 0 0 0-.363-2.135c.394-.08.789-.16 1.181-.237zm.766 4.287c-.423.043-.846.084-1.268.125-.078-.539-.16-1.076-.246-1.613l1.249-.13c.09.539.18 1.078.265 1.618zm.77-4.58a.21.21 0 0 0 .03.178l.037.045a.18.18 0 0 0 .057.046.405.405 0 0 0 .028.117l.078.57.13.948c.021.162.044.323.066.484-.22.023-.442.048-.662.07-.168.017-.336.032-.505.05-.134-.765-.274-1.527-.421-2.287.387-.074.775-.15 1.161-.222zm.706 4.43l-.8.084-.308.03a101.74 101.74 0 0 0-.268-1.621l1.152-.124.164 1.192.06.44zm1.029-4.742l-.002.001c-.045.06-.039.175.007.23l.038.045a.174.174 0 0 0 .057.046.402.402 0 0 0 .027.117l.078.57.13.948.077.562c-.459.05-.913.097-1.37.144l-.2-1.474c-.04-.292-.013-.707-.186-.95.447-.083.896-.16 1.344-.24zm.692 4.56c-.458.05-.914.097-1.37.145l-.17-1.238-.053-.395c.456-.05.912-.1 1.368-.152l.154 1.125.071.515zm.812-4.818l-.013.017c-.046.06-.04.175.007.23l.037.045a.18.18 0 0 0 .057.046.413.413 0 0 0 .027.117l.078.57.13.948.088.638-1.151.127-.212-1.55c-.042-.31-.011-.753-.22-.99.389-.067.781-.132 1.172-.198zm.69 4.653l-1.15.126-.18-1.313-.046-.327 1.151-.13.145 1.051.08.593zm.718-4.886l.162-.024a.19.19 0 0 0 .036.104l.037.045a.187.187 0 0 0 .057.047.398.398 0 0 0 .028.116l.078.57a894.182 894.182 0 0 1 .247 1.8c-.43.05-.861.1-1.29.147l-.223-1.626c-.043-.313-.01-.764-.227-.998.365-.06.727-.122 1.095-.18zm.925 4.7l-1.291.147a898.27 898.27 0 0 1-.19-1.39l-.035-.255 1.29-.146.116.838.11.805zm1.39-.161l-1.04.12-.22-1.602-.005-.04 1.04-.119.153 1.115.072.526zm.945-4.998l-.04.053c-.046.06-.04.175.006.23l.037.045a.177.177 0 0 0 .058.046.392.392 0 0 0 .027.117l.078.57.13.948.104.756-1.273.151-.214-1.559c-.045-.332-.002-.823-.267-1.041-.08-.065-.178-.029-.238.05l-.048.062c-.046.06-.039.175.007.23l.037.045a.18.18 0 0 0 .057.046.402.402 0 0 0 .028.117l.078.57.13.948.078.574-1.04.12-.25-1.84c-.036-.263-.02-.623-.14-.87a92.5 92.5 0 0 1 2.655-.368zm.68 4.805l-1.274.151-.182-1.321-.043-.318.493-.056.781-.09.127.925.098.71zm.912-4.99c0 .046.013.09.037.12l.037.044a.175.175 0 0 0 .057.047.402.402 0 0 0 .028.117l.078.569.13.949.123.9c-.444.055-.888.11-1.331.162l-.238-1.74c-.044-.322-.008-.786-.243-1.015.44-.053.881-.105 1.322-.152zm.77 4.786c-.444.054-.89.11-1.332.162l-.206-1.503-.018-.13c.445-.05.889-.102 1.333-.154l.106.772.117.853zm.758-4.943a.2.2 0 0 0 .036.127l.037.045a.172.172 0 0 0 .058.046.413.413 0 0 0 .027.117l.078.57.13.948.118.863c-.39.05-.78.097-1.17.145l-.258-1.885c-.036-.261-.02-.618-.138-.865.36-.039.72-.076 1.082-.11zm.764 4.755l-1.172.146-.222-1.623 1.173-.136.11.798.111.815zm.967-4.913l.002.003.037.044a.177.177 0 0 0 .057.047c.003.037.01.075.027.117l.078.57.13.948.128.931-1.355.17-.252-1.846c-.036-.262-.02-.62-.14-.868.43-.04.859-.08 1.288-.116zm.739 4.7l-1.356.17-.22-1.608v-.002l1.356-.164.099.72.12.884zm.957-4.84l-.04.051c-.045.06-.039.175.007.23l.038.045a.174.174 0 0 0 .056.046.414.414 0 0 0 .028.117 322.005 322.005 0 0 1 .208 1.518l.08.587c-.42.055-.843.109-1.263.162l-.262-1.914c-.03-.22-.023-.508-.09-.741.412-.035.825-.069 1.238-.101zm.657 4.634c-.422.054-.843.108-1.264.16l-.22-1.6c.422-.05.844-.102 1.266-.154l.144 1.055.074.539zm.791-4.744a.2.2 0 0 0 .036.137l.037.045a.176.176 0 0 0 .057.047.403.403 0 0 0 .028.116l.078.57.13.949.088.644-1.174.151-.214-1.569c-.043-.315-.01-.77-.232-1.002.389-.03.777-.06 1.166-.088zm.733 4.546l-1.173.153a1758.486 1758.486 0 0 1-.219-1.591c.392-.048.784-.094 1.176-.143l.135.986.081.595zm1.072-4.676a.2.2 0 0 0 .034.138l.038.045a.177.177 0 0 0 .057.046.382.382 0 0 0 .028.117l.077.57.13.948.074.54-1.438.188a2624.4 2624.4 0 0 1-.222-1.625c-.037-.263-.02-.622-.14-.87l1.362-.097zm.718 4.442l-1.44.189-.19-1.387-.026-.192 1.44-.182c.05.36.1.72.148 1.081l.068.491zm1.116-4.57c-.018.06-.007.138.029.181l.037.045a.177.177 0 0 0 .058.047.402.402 0 0 0 .027.116 321.924 321.924 0 0 1 .208 1.519l.052.385c-.485.064-.97.13-1.456.193l-.208-1.52c-.035-.263-.019-.622-.139-.87l1.392-.097zm.691 4.331c-.485.065-.971.13-1.457.193l-.176-1.281-.04-.29 1.459-.184a1313.496 1313.496 0 0 1 .214 1.562zm.716-4.432c-.022.063-.013.146.024.192l.038.045a.18.18 0 0 0 .057.046.402.402 0 0 0 .028.117l.078.57.13.948.04.29-1.04.14-.186-1.366c-.038-.278-.017-.664-.162-.91l.993-.072zm.674 4.246l-1.04.14-.154-1.127-.06-.434 1.04-.133.18 1.313.034.241zm.877-4.36a.18.18 0 0 0 .032.08l.037.045a.183.183 0 0 0 .057.047.399.399 0 0 0 .028.116l.078.57.13.949.042.306-1.21.162-.174-1.27c-.038-.28-.015-.673-.167-.92.383-.027.765-.056 1.147-.085zm.683 4.15l-1.21.164a494.252 494.252 0 0 1-.213-1.554c.404-.052.807-.107 1.21-.16l.178 1.294.035.257zm.852-4.27c.003.007.006.015.011.021l.037.045a.183.183 0 0 0 .057.047.4.4 0 0 0 .028.116l.078.57.13.949.038.28-1.16.158-.175-1.286c-.034-.243-.02-.57-.114-.815.356-.027.713-.056 1.07-.085zm.627 3.835l.032.232-1.16.157-.144-1.047-.069-.503 1.16-.153.181 1.314zm1.126 3.457l-.303.035a292.45 292.45 0 0 0-.374-2.814l.688-.091.003-.506-.758.103-.14-1.021-.072-.524.912-.12.064-.008.002-.507-1.045.142-.172-1.26c-.031-.226-.024-.522-.096-.758.378-.032.756-.066 1.135-.1a.022.022 0 0 0 .005.011l.038.045a.172.172 0 0 0 .057.046.39.39 0 0 0 .027.117l.056.41.018-4.318c-2.69.26-5.405.532-7.443.855-5.432.861-7.396.606-12.165 1.12-4.145.447-8.468 1.612-12.55 2.605-.553.135-5.982.64-4.722 3.32.194-.044.396-.092.602-.141.076.703.147 1.406.213 2.11l.032.35c.052.567.103 1.134.151 1.702l.029.35c.068.838.134 1.674.195 2.512l.006.066c.014.065.054.117.123.113.073-.003.145-.008.218-.012.396-.02.792-.043 1.188-.066l.337-.019.986-.06.35-.024c.419-.027.837-.054 1.256-.084.113-.009.226-.016.34-.024.415-.031.831-.064 1.247-.097.103-.008.207-.015.31-.024.507-.04 1.013-.081 1.52-.124.108-.01.217-.018.325-.027.444-.038.887-.075 1.33-.115l.337-.03c.374-.034.747-.067 1.12-.102l.33-.03c.465-.042.93-.086 1.396-.13l.327-.031 1.179-.112.326-.031 1.32-.128.317-.03 1.076-.104.327-.031.706-.068.598-.059c.108-.01.215-.02.323-.032.486-.046.97-.095 1.456-.143l.1-.01c.476-.046.95-.092 1.426-.14l.104-.01c1.045-.105 2.091-.214 3.136-.323l.324-.034 1.215-.126.299-.031c.496-.053.991-.109 1.487-.162l.32-.035 1.493-.164.323-.035c.357-.04.714-.077 1.07-.117l.324-.037 1.241-.143.324-.037 1.19-.136.325-.037.236-.028.002-.502z" fill="#827717"/><path d="M32.413 73.875l-.053 13.172 15.67.062.12-29.878c-2.764.559-5.6 1.629-8.206 2.137-7.593 2.294-3.863 9.719-7.531 14.507" fill="#B0BEC5"/><path d="M46.44 56.886l-6.343.165c-2.363.061-4.553 1.22-5.89 3.12a7.087 7.087 0 0 0-1.228 3.084l-.539 3.786-.027 6.834c3.667-4.788-.062-12.213 7.53-14.507 2.607-.508 5.443-1.579 8.208-2.137v-.192a7.553 7.553 0 0 0-1.712-.153" fill="#78909C"/><path d="M63.695 67.166l-12.747-8.929a7.481 7.481 0 0 0-2.797-1.198l-.121 30.07 15.584.063.08-20.006z" fill="#78909C"/><path d="M32.44 67.27c.398-3.1 1.707-5.723 3.55-7.95a1.585 1.585 0 0 1 1.22-.583c1.379.002 2.271-.074 3.511.105 1.469.213 2.277.416 3.443 2.493.913 1.628 2.14 3.098 2.598 4.913.067.263.108.674.164 1.08l-14.487-.058zm31.252.484l-15.43-.061.001-.36h-.085c-.323-1.731-1.324-3.52-2.182-4.993-1.062-1.825-2.132-3.633-3.655-5.129-1.775-1.744-2.96-2.182-5.062-.756-2.88 1.954-5.853 7.167-5.894 10.81l-.002.515.52.002c.075.609.097 1.24.121 1.853.021.531-.126 1.222.04 1.722.172.521.357.862.421 1.448.065.597.218.697.775.731.118-1.879.207-3.823.12-5.717a.984.984 0 0 0-.163-.032l13.596.055v.091a.64.64 0 0 0 .366.58c.056.498.075 1.01.097 1.506.021.488-.126 1.12.04 1.58.173.478.358.79.422 1.327.065.548.218.64.775.671.112-1.647.193-3.35.124-5.014l15.052.06.003-.889z" fill="#5C3E35"/><path d="M31.102 67.21l.833.003c.392-3.137 1.609-5.827 3.328-8.15-1.978 1.883-3.434 4.502-4.16 8.147m23.838-12.832a1.259 1.259 0 0 0-.36-.14c-6.72.055-13.236.423-17.778 3.573.083-.013.165-.03.25-.03 1.48.002 2.437-.082 3.767.117 1.575.234 2.443.458 3.692 2.754.98 1.8 2.296 3.424 2.787 5.43.102.418.148 1.173.266 1.763l16.097.064a.638.638 0 0 0 .637-.712c-.253-2.146-.806-5.309-2.022-6.69-2.007-2.278-4.407-4.192-7.336-6.13" fill="#FF8F00"/><path d="M39.51 54.316c-.703-.002-1.46.298-2.382.943-3.09 2.16-6.28 7.922-6.324 11.95l.298.001c.727-3.644 2.183-6.264 4.161-8.146.159-.215.315-.43.483-.638.269-.335.646-.55 1.057-.615 4.542-3.15 11.057-3.518 17.778-3.573-2.491-.649-14.113.081-15.07.078" fill="#FBC02D"/><g transform="translate(28.055 85.534)"><mask id="f" fill="#fff"><use xlink:href="#e"/></mask><path mask="url(#f)" d="M.316 1.497l35.243.141.005-1.157L.32.339z"/></g><path fill="#180100" d="M43.967 85.935l-7.464-.03.048-11.875 7.464.03z"/><path fill="#5C3E35" d="M36.189 73.676l-.05 12.228.683.003.046-11.377 6.801.027-.045 11.377.683.003.049-12.229z"/><path fill="#251109" d="M40.772 89.88l-8.729-.035.002-.438 8.729.035zm-1.149 2.436l-8.73-.035.002-.438 8.73.035zm-1.15 2.436l-8.729-.035.002-.438 8.73.035zm-1.149 2.436l-8.73-.036.003-.437 8.729.034zm-1.149 2.435l-8.73-.035.002-.437 8.73.034zm-1.15 2.437l-8.729-.036.002-.437 8.729.034zm-1.149 2.435l-8.73-.035.002-.437 8.73.034zm-1.15 2.436l-8.729-.035.002-.438 8.729.036zm-1.149 2.436l-8.73-.035.002-.438 8.73.035zm-1.149 2.436l-8.73-.035.002-.438 8.73.035zm-1.15 2.436l-8.729-.035.002-.438 8.729.035zm-1.149 2.436l-8.73-.035.002-.438 8.73.035zm-1.149 2.436l-8.73-.035.002-.438 8.729.035z"/><path fill="#251109" d="M35.791 83.49l-16.627 35.791.82-.208 16.528-35.58zm7.373.03L26.36 119.694l.463.214 16.904-36.386z"/></g></svg>