<svg width="120" height="120" viewBox="0 0 120 120" xmlns="http://www.w3.org/2000/svg" xmlns:xlink="http://www.w3.org/1999/xlink"><defs><path id="a" d="M0 0h87.795v116.878H0z"/></defs><g fill="none" fill-rule="evenodd"><path d="M105.722 22.294c-1.646-3.515-3.634-6.9-5.684-10.188-1.848-2.96-3.856-7.029-7.356-8.297-1.609-.58-3.287-.493-4.964-.497-2.153-.011-4.307-.109-6.46-.14a481.962 481.962 0 0 0-13.92 0c-8.795.129-17.585.461-26.307 1.636a1.63 1.63 0 0 0-.445.134c-2.283.104-4.57.217-6.848.373-2.9.197-5.84.539-8.185 2.397-2.599 2.06-3.4 5.362-4.224 8.427-.967 3.592-1.589 7.278-2.013 10.969-.337 2.956-.073 5.901 2.867 7.376 1.3.653 2.713.715 4.121.922 1.848.269 3.69.616 5.528.937 7.243 1.263 14.624 1.46 21.95 1.729 1.883.073 3.762.14 5.641.238.896.042 1.931.243 2.816.161 1.315-.125 1.243-.456.71.563-1.709 3.278-3.686 6.43-5.483 9.655-3.607 6.481-7.443 12.837-11.284 19.178-3.847 6.352-7.75 12.667-11.533 19.056-1.89 3.188-3.816 6.372-5.56 9.638-1.315 2.459-3.986 6.315-3.759 9.235.281 3.541 3.744 4.09 6.492 5.026 3.634 1.232 7.185 2.707 10.788 4.038 3.556 1.315 7.123 2.651 10.736 3.81 2.945.947 6.15 1.713 9.25 1.123 6.781-1.283 8.77-8.64 11.104-14.157 2.857-6.766 5.368-13.682 8.044-20.526 5.41-13.851 11.037-27.642 17.865-40.873 1.888-3.655 4.08-7.17 5.9-10.855 1.874-3.789 2.014-7.247.213-11.088" fill="#E6E6E6"/><path d="M91.984 16.921c1.206 2.262 3.494 5.389 3.317 8.019-.103 1.532-1.174 3.038-1.888 4.347a247.596 247.596 0 0 0-2.61 4.907c-6.14 11.891-11.28 24.279-16.078 36.759-2.33 6.062-4.581 12.15-6.828 18.242-1.123 3.043-2.267 6.082-3.385 9.131-1.175 3.204-2.035 6.653-3.541 9.722-3.34 6.807-10.508 3.54-16.042 1.645a267.908 267.908 0 0 1-9.478-3.472c-1.76-.679-3.526-1.346-5.238-2.133-.575-.27-1.16-.533-1.73-.812a15.741 15.741 0 0 1-1.697-.866 8.475 8.475 0 0 0-.533-.372c.305-1.139 1.786-2.868 2.288-3.727.787-1.33 1.537-2.676 2.293-4.028a478.531 478.531 0 0 1 5.073-8.856c3.442-5.87 6.973-11.689 10.45-17.538 3.324-5.58 6.57-11.197 9.635-16.922 1.609-3.013 3.146-6.025 4.513-9.157 1.015-2.315 2.972-5.249 2.505-7.874-.45-2.541-2.831-3.002-5.036-3.09-3.597-.146-7.206-.078-10.808-.052-6.808.041-13.806.196-20.531-1.066-1.786-.337-3.84-.761-5.456-1.631-1.645-.891-1.723-1.6-1.496-3.355.492-3.726 1.435-7.438 2.454-11.047.399-1.428.689-3.436 1.895-4.461.973-.818 2.572-.995 3.794-1.166 3.83-.543 7.734-.77 11.585-1.096 8.386-.709 16.813-1.31 25.25-1.73 4.955.021 9.914.094 14.873.301 3.262.14 5.534-.067 7.439 2.815 1.817 2.76 3.463 5.643 5.01 8.563" fill="#7CC366"/><g transform="translate(14)"><mask id="b" fill="#fff"><use xlink:href="#a"/></mask><path d="M81.301 24.94c.177-2.63-2.11-5.758-3.317-8.02-1.548-2.919-3.195-5.802-5.01-8.562-1.906-2.883-4.179-2.676-7.44-2.815-4.96-.208-9.919-.28-14.873-.3-8.437.42-16.864 1.02-25.25 1.728-3.85.327-7.755.554-11.586 1.098-1.22.17-2.82.347-3.794 1.164-1.206 1.025-1.496 3.034-1.894 4.462-1.02 3.608-1.962 7.32-2.454 11.047-.228 1.755-.15 2.464 1.496 3.354 1.615.87 3.67 1.294 5.456 1.631 6.725 1.264 13.723 1.108 20.53 1.067 3.603-.027 7.211-.093 10.81.052 2.204.087 4.585.549 5.035 3.09.467 2.624-1.49 5.56-2.505 7.873-1.367 3.133-2.904 6.146-4.514 9.158-3.064 5.724-6.31 11.342-9.633 16.921-3.479 5.85-7.009 11.668-10.452 17.538a484.405 484.405 0 0 0-5.073 8.858c-.756 1.35-1.506 2.697-2.293 4.026-.502.86-1.982 2.588-2.288 3.728.135.084.311.208.533.373.55.32 1.113.61 1.698.864.57.28 1.155.543 1.73.813 1.712.788 3.478 1.455 5.237 2.133a269.975 269.975 0 0 0 9.48 3.472c5.532 1.895 12.702 5.162 16.041-1.645 1.506-3.07 2.365-6.517 3.541-9.722 1.118-3.048 2.262-6.087 3.385-9.13 2.247-6.093 4.5-12.181 6.828-18.242 4.8-12.481 9.938-24.868 16.078-36.76a250.04 250.04 0 0 1 2.61-4.907c.713-1.31 1.784-2.816 1.888-4.348m5.22-5.767c1.8 3.841 1.66 7.3-.214 11.088-1.822 3.686-4.012 7.2-5.902 10.855-6.827 13.231-12.454 27.021-17.864 40.875-2.676 6.844-5.186 13.759-8.044 20.523-2.334 5.52-4.322 12.874-11.103 14.158-3.1.59-6.305-.175-9.25-1.123-3.614-1.16-7.18-2.495-10.737-3.81-3.602-1.33-7.154-2.805-10.788-4.037-2.748-.938-6.212-1.486-6.49-5.026-.228-2.92 2.443-6.776 3.757-9.236 1.745-3.266 3.671-6.45 5.56-9.638 3.784-6.388 7.687-12.704 11.533-19.055 3.842-6.34 7.676-12.698 11.285-19.178 1.796-3.225 3.773-6.378 5.482-9.654.534-1.02.606-.69-.71-.566-.884.084-1.92-.118-2.815-.16-1.879-.099-3.759-.166-5.643-.238-7.325-.269-14.706-.466-21.948-1.729-1.838-.32-3.68-.667-5.528-.936-1.408-.207-2.822-.27-4.12-.921C.04 29.886-.224 26.941.112 23.985c.424-3.69 1.045-7.376 2.014-10.969.822-3.063 1.625-6.366 4.224-8.428 2.345-1.858 5.285-2.199 8.184-2.396 2.278-.155 4.566-.27 6.848-.373a1.64 1.64 0 0 1 .445-.133C30.551.51 39.341.179 48.136.05c4.638-.067 9.281-.067 13.92 0 2.152.032 4.306.13 6.46.14 1.677.006 3.353-.083 4.964.497 3.5 1.268 5.508 5.337 7.355 8.299 2.05 3.287 4.038 6.671 5.685 10.186" fill="#207B5D" mask="url(#b)"/></g><path d="M87.033 14.399c-3.244-4.9-8.243-6.034-13.791-6.354-13.026-.75-26.062.177-38.55 4.068-1.66.516-1.455 3.28.427 3.157 10.974-.72 22.103-1.35 33.093-.686 3.858.23 9.758-.29 12.32 3.23 2.313 3.171 2.16 7.53 3.8 11.026 1.118 2.378 5.13 1.776 5.656-.74.949-4.548-.395-9.838-2.955-13.702m-6.49 22.215a916.481 916.481 0 0 1-8.948 18.584c-1.458 2.942-2.85 5.915-4.287 8.867-1.576 3.237-3.299 6.343-3.983 9.904-.48 2.503 2.731 5.083 4.715 2.744 4.36-5.143 6.68-12.403 9.12-18.636a495.124 495.124 0 0 0 7.264-19.827c.771-2.247-2.857-3.826-3.88-1.636M65.478 81.23a2.585 2.585 0 0 0-3.042-1.492c-.848.217-1.7.815-2.13 1.588-.57 1.032-.47 2.15.049 3.165l.38.49.49.38a2.4 2.4 0 0 0 1.548.288 2.436 2.436 0 0 0 1.84-1.305c.46-.304.886-.957.995-1.435.13-.576.1-1.131-.13-1.68M59.65 89.03c-1.284-.517-3.195-.158-3.825 1.253-1.05 2.355-2.946 5.193-1.883 7.802.627 1.537 2.02 2.173 3.564 1.45 2.546-1.192 3.097-4.446 3.918-6.892.48-1.429-.435-3.075-1.774-3.613" fill="#FFF" opacity=".5"/></g></svg>