<svg xmlns="http://www.w3.org/2000/svg" width="101.113" height="130.617" viewBox="0.111 -3.535 101.113 130.617"><defs><style/></defs><g id="ID0.4150293259881437" transform="translate(.25 -.4) scale(.77378)"><path id="R_Leg_1_" fill="#1B75BB" stroke="#000" d="M79.206 156.057c-.078 3.557.79 8.695 4.272 8.538 2.29-.103 1.893-5.058 2.054-10.12a28.735 28.735 0 0 1 1.284-7.554s.112-.267.112-.363c.001-2.253-1.247-3.012-2.832-3.249-1.988-.298-2.229 1.422-2.239 1.466-.408 1.748-1.104 3.945-1.104 3.945-.938 3.077-1.5 5.26-1.547 7.337h0z"/><path id="L_Leg" fill="#1B75BB" stroke="#000" d="M69.856 156.057c-.077 3.557.79 8.695 4.272 8.538 2.291-.103 1.893-5.058 2.055-10.12a28.701 28.701 0 0 1 1.283-7.554s.112-.267.112-.363c.001-2.253-1.247-3.012-2.832-3.249-1.987-.298-2.228 1.422-2.238 1.466-.409 1.748-1.104 3.945-1.104 3.945-.939 3.077-1.5 5.26-1.548 7.337h0z"/><g id="Body_1_" stroke="#000"><path id="Body" fill="#1B75BB" d="M84.768 146.56a23.07 23.07 0 0 0 4.385-.908c10.866-3.341 6.688-17.343 5.225-22.778-.589-2.195-1.146-5.416-1.602-8.475l-.082-.193-.875-7.385c-.492-.624-.228-2.074-1.913-2.953-1.993-1.039-6.232-1.643-8.361-1.645-7.829-.008-11.349 2.792-11.349 2.792-1.309 2.871.008 4.214-2.18 9.019-3.986 8.756-4.476 14.853-3.941 17.408 0 0 1.461 6.062 3.973 8.986a14.61 14.61 0 0 0 1.795 1.729s2.129 1.714 4.107 2.663c1.979.948 5.379 1.424 6.962 1.661 1.584.237 3.856.077 3.856.079h0z"/><path id="Belly" fill="#D0D2D3" d="M96.364 135.874c.319-4.81-1.206-10.054-1.977-12.914-.786-2.906-1.506-7.604-2.012-11.351l-.227-.186c-1.137-1.003-2.09-2.92-4.757-2.443-5.84 1.051-8.467 6.669-8.467 14.891 0 8.225 4.533 15.562 9.205 15.562 2.339 0 6.638-.682 8.17-3.378l.065-.181h0z"/></g><g id="Head_1_"><path id="Head" fill="#1B75BB" stroke="#000" stroke-linecap="round" stroke-linejoin="round" d="M124.042 69.899c.118.421 2.93 10.708-4.177 20.235-4.814 6.448-13.201 14.688-34.633 16.537-10.494.903-19.835-1.804-26.55-5.941.099.061.192.125.292.185l-.096-.058c-6.239-2.817-14.15-7.175-19.403-14.47 0 0-2.827 5.898-15.502 6.144C7.956 92.847 1.49 83.968.662 77.275c-.841-6.789 1.233-14.571 14.769-16.867 11.332-1.917 17.492 1.506 19.196 2.669l.132.151c1.249-3.863 3.331-5.642 3.331-5.642l-.171-.061c-4.77-1.79-11.046-4.649-18.726-9.217C3.116 38.743 3.275 21.87 7.722 15.803c4.603-6.272 18.239-14.152 37.502-3.425 10.84 6.032 16.326 15.323 19.053 22.286l.576-.228c.743-.428 1.553-.85 2.42-1.249l.113-.198c-4.225-9.926-10.603-30.336 7.556-31.911C92.212-.42 90.726 20.39 89.333 29.238l.136.021c2.231.157 4.497.484 6.762 1.016-.05-.104-2.626-5.51.682-13.385 2.592-6.164 14.202-20.942 23.633-13.09 9.949 8.286 4.548 17.658-.63 23.406-4.486 4.977-9.646 7.011-11.987 7.909l.066.042c.576.362 1.152.739 1.721 1.141 15.835 11.144 14.477 34.216 14.477 34.216l-.035-.164a7.867 7.867 0 0 0-.116-.451h0zm-18.491-36.153a38.553 38.553 0 0 1 2.803 1.634m-19.065-5.585a72.869 72.869 0 0 1-.692 3.312m-18.688 5.23a70.794 70.794 0 0 1-2.598-5.529M33.869 70.405c-.101-2.219.106-4.459.714-6.599m-15.13 28.433"/><path id="Hair1" fill="#F1F1F2" stroke="#000" d="M19.535 92.367C6.743 91.127 1.409 83.313.662 77.275c-.841-6.789 1.233-14.571 14.769-16.867a39.86 39.86 0 0 1 5.439-.557l.128.008c-5.396 10.436-5.906 22.71-1.545 32.379l.082.129h0z"/><path id="Hair2" fill="#F1F1F2" stroke="#000" d="M16.693 46.672C3.146 36.924 3.519 21.537 7.721 15.802 12.105 9.826 24.7 2.391 42.543 10.985l-.179.059c-10.241 3.206-19.101 11.271-23.26 22.527a37.996 37.996 0 0 0-2.366 13.053l-.045.048h0z"/><path id="Hair3" fill="#F1F1F2" stroke="#000" d="M62.897 17.055c-.754-7.847 1.537-15.069 12.047-15.979 10.604-.918 14.138 6.572 14.962 14.54l-.081-.082c-8.862-3.438-18.543-2.7-26.885 1.397l-.043.124h0z"/><path id="Hair4" fill="#F1F1F2" stroke="#000" d="M110.503 2.453c3.299-1.377 6.801-1.354 10.042 1.347 6.372 5.311 6.448 11.064 4.315 16.026l-.108.008c-2.595-7.163-7.478-13.361-14.264-17.345l.015-.036h0z"/><path id="Face_1_" fill="#E6E7E8" stroke="#000" d="M110.153 55.871c-6.062-4.423-15.547-16.909-15.547-16.909s-.249 13.17-18.238 24.257c-17.991 11.093-27.388 9.4-28.427 22.365-.782 9.74 15.863 22.932 37.292 21.088 21.432-1.85 29.818-10.089 34.633-16.537 7.256-9.728 4.171-20.255 4.171-20.255-2.086-7.272-5.163-7.658-13.884-14.009h0z"/><g id="R_Eye"><path id="Inner_Eye_1_" fill="#FFF" d="M113.204 70.753c-.207-1.319-1.344-2.276-2.703-2.276-.145 0-.289.01-.436.032-1.498.239-2.527 1.63-2.295 3.104.229 1.462 1.596 2.488 3.141 2.242a2.748 2.748 0 0 0 1.809-1.101 2.662 2.662 0 0 0 .484-2.001z"/><path id="Outer_Eye_1_" fill="#231F20" d="M115.18 70.441c-.4-2.539-2.766-4.322-5.426-3.907-2.588.41-4.363 2.829-3.959 5.391.363 2.298 2.328 3.966 4.674 3.966.248 0 .498-.02.752-.06a4.733 4.733 0 0 0 3.115-1.9 4.649 4.649 0 0 0 .844-3.49zm-4.269 3.414c-1.545.246-2.912-.78-3.141-2.242-.232-1.474.797-2.865 2.295-3.104.146-.022.291-.032.436-.032 1.359 0 2.496.957 2.703 2.276a2.662 2.662 0 0 1-.484 2.001 2.748 2.748 0 0 1-1.809 1.101z"/></g><g id="L_Eye"><path id="Inner_Eye" fill="#FFF" d="M82.543 72.016c-.207-1.319-1.344-2.276-2.703-2.276-.145 0-.289.01-.436.032-1.498.239-2.527 1.63-2.295 3.104.229 1.462 1.596 2.488 3.141 2.242a2.748 2.748 0 0 0 1.809-1.101 2.654 2.654 0 0 0 .484-2.001z"/><path id="Outer_Eye" fill="#231F20" d="M84.52 71.704c-.4-2.539-2.766-4.322-5.426-3.907-2.588.41-4.363 2.829-3.959 5.391.363 2.298 2.328 3.966 4.674 3.966.248 0 .498-.02.752-.06a4.733 4.733 0 0 0 3.115-1.9 4.65 4.65 0 0 0 .844-3.49zm-4.27 3.414c-1.545.246-2.912-.78-3.141-2.242-.232-1.474.797-2.865 2.295-3.104.146-.022.291-.032.436-.032 1.359 0 2.496.957 2.703 2.276a2.662 2.662 0 0 1-.484 2.001 2.753 2.753 0 0 1-1.809 1.101z"/></g><path id="Mouth_1_" fill="#FFF" stroke="#231F20" stroke-width="1.091" stroke-linecap="round" d="M95.454 96.415c-12.715.857-15.797-15.506-15.797-15.506s8.645-1.997 18.02-2.579c9.381-.578 14.1 1.756 14.1 1.756s-3.609 15.472-16.323 16.329h0z"/></g><path id="L_Arm" fill="#1B75BB" stroke="#000" d="M65.908 104.438l.194.1a46.73 46.73 0 0 0 1.615.806l.297.14c3.519-7.343 8.372-15.784 13.818-12.726 3.988 2.238 6.853 7.736 2.956 16.474l.094.046c-1.237 2.916-3.352 6.618-6.982 10.479-8.081 8.587-10.437 8.919-11.376 9.147-.144.034-2.923-.588-3.912-1.044-2.985-1.395-2.361-14.317 3.296-23.422h0zm-1.937 14.929c.526-5.004 2.146-9.821 4.29-14.354"/><path id="R_Arm" fill="#1B75BB" stroke="#000" stroke-linecap="round" stroke-linejoin="round" d="M105.833 124.609c2.947.594 7.664.293 11.189-11.398 3.522-11.691-.773-21.338-6.277-20.436-5.582.916-8.645 8.15-8.449 12.871.086 2.092.385 4.049.695 5.58l-.266-.009c-1.164.078-6.007.039-8.949-5.424l-.014.003c-.75.112-1.521.206-2.31.305l1.092 6.85c1.299 1.738 8.118 10.611 13.289 11.658h0zm-2.056-10.218a37.683 37.683 0 0 1-.845-3.244"/></g></svg>