<svg width="120" height="120" viewBox="0 0 120 120" xmlns="http://www.w3.org/2000/svg"><g fill="none"><path fill="#9A1C1F" d="M59.438 66.57L48.03 81.834H30l8.437-17.393z"/><path d="M20.25 59.969c-2.813-13.514-20.469 0-20.469 0s17.657 13.514 20.469 0z" fill="#ED1C24"/><path d="M20.25 59.969c-2.281-11.074-16.75 0-16.75 0s14.438 11.074 16.75 0z" fill="#F7941E"/><path d="M20.25 59.969c-1.75-8.446-12.781 0-12.781 0s11.031 8.446 12.781 0z" fill="#FBB040"/><path d="M20.25 59.969c-1.313-6.32-9.563 0-9.563 0s8.25 6.319 9.563 0z" fill="#F9ED32"/><path d="M18.281 84.118c-1.312-6.319-9.562 0-9.562 0s8.25 6.32 9.562 0z" fill="#ED1C24"/><path d="M18.281 84.118c-1.062-5.161-7.812 0-7.812 0s6.719 5.162 7.812 0z" fill="#F7941E"/><path d="M18.281 84.118c-.812-3.941-5.968 0-5.968 0s5.156 3.942 5.968 0z" fill="#FBB040"/><path d="M18.281 84.118c-.625-2.94-4.468 0-4.468 0s3.843 2.941 4.468 0z" fill="#F9ED32"/><path fill="#9A1C1F" d="M59.438 53.337L48.03 38.103H30l8.438 17.361z"/><path d="M18.281 35.788c-1.312 6.319-9.562 0-9.562 0s8.25-6.32 9.562 0z" fill="#ED1C24"/><path d="M18.281 35.788c-1.062 5.161-7.812 0-7.812 0s6.719-5.162 7.812 0z" fill="#F7941E"/><path d="M18.281 35.788c-.812 3.941-5.968 0-5.968 0s5.156-3.942 5.968 0z" fill="#FBB040"/><path d="M18.281 35.788c-.625 2.94-4.468 0-4.468 0s3.843-2.94 4.468 0z" fill="#F9ED32"/><path d="M63.875 35.788c-.25-.22-14.531-11.606-42.594-2.847v5.693c28.063 8.76 42.344-2.627 42.594-2.846z" fill="#F3F3F3"/><path fill="#9A1C1F" d="M20 35.788v-3.441l-2.594 1.063v4.786L20 39.23z"/><path fill="#C92127" d="M21.281 38.666V32.94L20 32.347v6.882z"/><path d="M21.281 37.102v1.564c28.063 8.759 42.344-2.66 42.594-2.847 0-.031-17.375 9.823-42.594 1.283z" fill="#DCDBDB"/><path fill="#7E1113" d="M17.406 37.352v.844L20 39.23v-1.752z"/><path fill="#9A1C1F" d="M21.281 37.102L20 37.477v1.752l1.281-.563z"/><path d="M63.875 35.788c-.125-.125-4.094-3.285-11.844-5.037A12.837 12.837 0 0 0 51 35.788c0 1.783.375 3.472 1 5.036 7.781-1.752 11.75-4.911 11.875-5.036z" fill="#C92127"/><path d="M63.875 35.788s-5.75 2.909-12.25 3.941c.125.376.25.751.406 1.095 7.75-1.752 11.719-4.911 11.844-5.036z" fill="#9A1C1F"/><path d="M119.281 59.969c-.531-.438-31.187-24.932-91.437-6.132V66.1c60.25 18.8 90.875-5.693 91.437-6.131z" fill="#F3F3F3"/><path fill="#9A1C1F" d="M25.031 59.969v-7.414L19.5 54.807V65.13l5.531 2.221z"/><path fill="#C92127" d="M27.813 66.1V53.806l-2.782-1.251V67.35z"/><path d="M27.813 62.753V66.1c60.28 18.8 90.906-5.693 91.437-6.131.031 0-37.281 21.115-91.438 2.784z" fill="#DCDBDB"/><path fill="#7E1113" d="M19.5 63.285v1.845l5.531 2.221v-3.785z"/><path fill="#9A1C1F" d="M27.813 62.753l-2.782.813v3.785l2.782-1.251z"/><path d="M119.281 59.969c-.281-.25-8.812-7.039-25.469-10.793a27.626 27.626 0 0 0-2.187 10.793c0 3.816.781 7.476 2.188 10.792C110.469 67.007 119 60.188 119.28 59.969z" fill="#C92127"/><path d="M119.281 59.969s-12.344 6.256-26.312 8.446c.25.813.531 1.595.875 2.346C110.469 67.007 119 60.188 119.28 59.969z" fill="#9A1C1F"/><path d="M63.875 84.118c-.25-.219-14.531-11.605-42.594-2.846v5.693c28.063 8.76 42.344-2.628 42.594-2.847z" fill="#F3F3F3"/><path fill="#9A1C1F" d="M20 84.118v-3.44l-2.594 1.032v4.818L20 87.558z"/><path fill="#C92127" d="M21.281 86.996v-5.724L20 80.677v6.882z"/><path d="M21.281 85.432v1.564c28.063 8.76 42.344-2.659 42.594-2.846 0-.032-17.375 9.822-42.594 1.282z" fill="#DCDBDB"/><path fill="#7E1113" d="M17.406 85.683v.844L20 87.56v-1.751z"/><path fill="#9A1C1F" d="M21.281 85.432L20 85.808v1.751l1.281-.563z"/><path d="M63.875 84.118c-.125-.125-4.094-3.284-11.844-5.036A12.837 12.837 0 0 0 51 84.118c0 1.784.375 3.473 1 5.037 7.781-1.752 11.75-4.911 11.875-5.037z" fill="#C92127"/><path d="M63.875 84.118s-5.75 2.91-12.25 3.942c.125.375.25.75.406 1.095 7.75-1.752 11.719-4.911 11.844-5.037z" fill="#9A1C1F"/><g transform="rotate(90 19.051 71.074)"><ellipse fill="#25296B" cx="7.946" cy="7.875" rx="7.821" ry="7.813"/><ellipse fill="#403B89" cx="7.946" cy="7.875" rx="7.101" ry="7.094"/><path d="M2.19 6.594c-.094 0-.157 0-.25-.032-.407-.125-.595-.562-.47-.968A6.846 6.846 0 0 1 7.946 1.03a6.97 6.97 0 0 1 4.598 1.75c.313.281.344.75.063 1.063a.748.748 0 0 1-1.064.062A5.375 5.375 0 0 0 7.946 2.53a5.363 5.363 0 0 0-5.037 3.563.771.771 0 0 1-.72.5z" fill="#4C4B99"/><ellipse fill="#25296B" cx="7.946" cy="7.875" rx="5.068" ry="5.063"/><ellipse fill="#64C0ED" cx="7.946" cy="7.875" rx="4.505" ry="4.5"/><ellipse fill="#92D9F7" cx="7.007" cy="5.969" rx="2.346" ry="2.344"/></g><g transform="rotate(90 5.768 61.545)"><ellipse fill="#25296B" cx="4.192" cy="4.063" rx="4.004" ry="4"/><ellipse fill="#403B89" cx="4.192" cy="4.063" rx="3.66" ry="3.656"/><path d="M1.22 3.406c-.031 0-.094 0-.125-.031a.41.41 0 0 1-.25-.5A3.538 3.538 0 0 1 4.16.531c.875 0 1.72.313 2.346.906a.388.388 0 0 1 .03.532.39.39 0 0 1-.53.031 2.685 2.685 0 0 0-1.846-.719c-1.158 0-2.222.75-2.597 1.844a.366.366 0 0 1-.344.281z" fill="#4C4B99"/><ellipse fill="#25296B" cx="4.192" cy="4.063" rx="2.628" ry="2.625"/><ellipse fill="#64C0ED" cx="4.192" cy="4.063" rx="2.315" ry="2.313"/><ellipse fill="#92D9F7" cx="3.691" cy="3.094" rx="1.22" ry="1.219"/></g><g transform="rotate(90 -1.42 54.357)"><ellipse fill="#25296B" cx="4.192" cy="4.219" rx="4.004" ry="4"/><ellipse fill="#403B89" cx="4.192" cy="4.219" rx="3.66" ry="3.656"/><path d="M1.22 3.563c-.031 0-.094 0-.125-.032a.41.41 0 0 1-.25-.5A3.538 3.538 0 0 1 4.16.687c.875 0 1.72.313 2.346.907a.388.388 0 0 1 .03.531.39.39 0 0 1-.53.031 2.685 2.685 0 0 0-1.846-.719c-1.158 0-2.222.75-2.597 1.844a.366.366 0 0 1-.344.281z" fill="#4C4B99"/><ellipse fill="#25296B" cx="4.192" cy="4.219" rx="2.628" ry="2.625"/><ellipse fill="#64C0ED" cx="4.192" cy="4.219" rx="2.315" ry="2.313"/><ellipse fill="#92D9F7" cx="3.691" cy="3.25" rx="1.22" ry="1.219"/></g></g></svg>