<svg width="120" height="120" viewBox="0 0 120 120" xmlns="http://www.w3.org/2000/svg" xmlns:xlink="http://www.w3.org/1999/xlink"><defs><path id="a" d="M0 .33h118.74V96H0z"/><path id="c" d="M0 .33h118.74V96H0z"/><path id="e" d="M0 .33h118.74V96H0z"/></defs><g fill="none" fill-rule="evenodd"><g transform="translate(1 10.67)"><mask id="b" fill="#fff"><use xlink:href="#a"/></mask><path d="M13.248.489c-6.88 1.086-14.75 12-13 22s13.75 33.942 30.5 37.72c16.75 3.78 22.25 6.058 28.5 14.419 6.25 8.36 25.58 22.94 35.75 21.235 10.169-1.705 30.5-22.102 21.5-30.613s-18-12.511-20.75-21.011-17.5-27.25-28.25-31.5-44.75-13.75-54.25-12.25" fill="#B54F4D" mask="url(#b)"/></g><g transform="translate(1 10.67)"><mask id="d" fill="#fff"><use xlink:href="#c"/></mask><path d="M13.248.489c-6.88 1.086-14.75 12-13 22s13.75 33.942 30.5 37.72c16.75 3.78 22.25 6.058 28.5 14.419 6.25 8.36 25.58 22.94 35.75 21.235 10.169-1.705 30.5-22.102 21.5-30.613s-18-12.511-20.75-21.011-17.5-27.25-28.25-31.5-44.75-13.75-54.25-12.25" fill-opacity=".3" fill="#000" mask="url(#d)"/></g><g transform="translate(1 6.67)"><mask id="f" fill="#fff"><use xlink:href="#e"/></mask><path d="M13.248.489c-6.88 1.086-14.75 12-13 22s13.75 33.942 30.5 37.72c16.75 3.78 22.25 6.058 28.5 14.419 6.25 8.36 25.58 22.94 35.75 21.235 10.169-1.705 30.5-22.102 21.5-30.613s-18-12.511-20.75-21.011-17.5-27.25-28.25-31.5-44.75-13.75-54.25-12.25" fill="#FAE5D5" mask="url(#f)"/></g><path d="M36.248 15.909c-.646 3.9.75 7.25-4 7.75s-14 4.5-15.25 10.75 5.5 9.5 9.625 14 2.625 12.236 8.125 15.243c5.5 3.007 12.25 7.239 16.25 5.873 4-1.366 4.75-4.442 8.25-.28 3.5 4.164 7 12.012 13 17.088 6 5.076 6.75 8.358 14 9.717s9.25.228 11-4.706c1.75-4.935.25-6.007 6.25-7.346 6-1.34 14-6.622 8.75-10.606-5.25-3.983-9.75-1.04-10.5-4.761-.75-3.722-1-8.703-4-11.463s-4.5-4.76-8.25-10.26-7.25-15-12.25-18.5-5-6.5-10.25-8-16-2.75-21.25-4.5-8.995-3.046-9.5 0" fill="#B54F4D"/><path d="M14.248 8.909c-4.877 1.716-8.25 7-9.25 10.75s-2.25 9.25 2.25 12.5 7.946.5 9.598-2.75c1.652-3.25 5.902-6 9.902-7 4-1 5-2.25 6-6s1.75-4.25-2-5.5-13.794-2.952-16.5-2" fill="#B54F4D"/><path d="M81.998 69.525c-4.752-1.362-10 10.855 1.5 13.245 11.5 2.389 8.5-10.379-1.5-13.245" fill="#FAE5D5"/></g></svg>