<svg width="120" height="120" viewBox="0 0 120 120" xmlns="http://www.w3.org/2000/svg" xmlns:xlink="http://www.w3.org/1999/xlink"><defs><path id="a" d="M0 .378h74.556v118.746H0z"/></defs><g fill="none" fill-rule="evenodd"><g transform="translate(22 .498)"><mask id="b" fill="#fff"><use xlink:href="#a"/></mask><path d="M52.313 119.124H6.504C2.912 119.124 0 116.2 0 112.592V6.91C0 3.303 2.912.378 6.504.378h61.548c3.592 0 6.504 2.925 6.504 6.533v89.872c0 12.339-9.958 22.341-22.243 22.341" fill="#F7F6E4" mask="url(#b)"/></g><path d="M59.462 94.449L54.667 98.4a1.172 1.172 0 0 1-1.656-.164l-.014-.018a1.185 1.185 0 0 1 .162-1.663l4.795-3.95a1.173 1.173 0 0 1 1.657.163l.014.018c.412.505.339 1.25-.163 1.663m10.922.001l-4.796 3.95a1.174 1.174 0 0 1-1.655-.163l-.015-.02a1.185 1.185 0 0 1 .162-1.662l4.796-3.951a1.173 1.173 0 0 1 1.656.164l.015.019a1.186 1.186 0 0 1-.163 1.662" fill="#939494"/><path d="M30.826 82.058a1.141 1.141 0 0 1-1.138-1.143v-3.24c0-.63.51-1.143 1.138-1.143h5.177c.292 0 .57.111.782.313l1.705 1.62c.23.218.356.513.356.83 0 .318-.126.613-.356.831l-1.705 1.62c-.212.202-.49.312-.782.312h-5.177zm13.664 0c-.292 0-.57-.11-.781-.312l-1.706-1.62a1.137 1.137 0 0 1-.357-.83c0-.318.128-.613.357-.832l1.706-1.62a1.13 1.13 0 0 1 .781-.312h5.177c.627 0 1.138.513 1.138 1.143v3.24c0 .63-.51 1.143-1.138 1.143H44.49zm-5.937 7.924a1.142 1.142 0 0 1-1.14-1.143v-5.2c0-.292.111-.572.313-.785l1.611-1.713a1.13 1.13 0 0 1 .828-.357c.317 0 .61.127.828.357l1.611 1.713c.202.213.313.493.313.785v5.2c0 .63-.512 1.143-1.14 1.143h-3.224zm1.612-12.012c-.316 0-.61-.127-.827-.357L37.725 75.9a1.142 1.142 0 0 1-.31-.786v-5.198c0-.631.51-1.143 1.137-1.143h3.226c.627 0 1.138.512 1.138 1.143v5.198c0 .294-.11.573-.311.786l-1.613 1.713c-.217.23-.51.357-.827.357" fill="#3E3A39"/><path d="M78.96 80.944a3.77 3.77 0 0 0-3.76-3.777 3.768 3.768 0 0 0-3.76 3.777 3.768 3.768 0 0 0 3.76 3.777 3.77 3.77 0 0 0 3.76-3.777m8.538-6.924a3.769 3.769 0 0 0-3.76-3.777 3.769 3.769 0 0 0-3.76 3.777 3.769 3.769 0 0 0 3.76 3.777 3.769 3.769 0 0 0 3.76-3.777" fill="#E36393"/><path d="M82.974 59.461H34.212c-2.498 0-4.524-2.034-4.524-4.543V12.693c0-2.509 2.026-4.544 4.524-4.544h48.762c2.498 0 4.523 2.035 4.523 4.544v42.225c0 2.51-2.025 4.543-4.523 4.543" fill="#7DC6B1"/><path d="M82.288 114.085l-.005.004a.31.31 0 0 1-.441 0l-7.39-7.422a.314.314 0 0 1 0-.444l.004-.004a.31.31 0 0 1 .44 0l7.392 7.423a.313.313 0 0 1 0 .443m1.526-1.533l-.005.004a.31.31 0 0 1-.44 0l-7.39-7.423a.314.314 0 0 1 0-.443l.004-.004a.31.31 0 0 1 .44 0l7.39 7.423a.314.314 0 0 1 0 .443m1.527-1.534l-.004.005a.31.31 0 0 1-.44 0l-7.391-7.423a.314.314 0 0 1 0-.443l.004-.005a.31.31 0 0 1 .44 0l7.392 7.424a.313.313 0 0 1 0 .442m1.526-1.533l-.004.004a.31.31 0 0 1-.442 0l-7.389-7.422a.314.314 0 0 1 0-.443l.004-.005a.31.31 0 0 1 .44 0l7.39 7.424a.313.313 0 0 1 0 .442m1.528-1.533l-.005.004a.31.31 0 0 1-.44 0l-7.39-7.422a.314.314 0 0 1 0-.444l.003-.004a.31.31 0 0 1 .44 0l7.392 7.423a.313.313 0 0 1 0 .443m1.526-1.534l-.004.005a.31.31 0 0 1-.442 0L82.085 99a.314.314 0 0 1 0-.443l.004-.004a.31.31 0 0 1 .44 0l7.391 7.423a.313.313 0 0 1 0 .442m1.527-1.533l-.004.004a.31.31 0 0 1-.442 0l-7.39-7.422a.314.314 0 0 1 0-.443l.005-.005a.31.31 0 0 1 .44 0l7.391 7.424a.313.313 0 0 1 0 .442m1.527-1.533l-.005.004a.31.31 0 0 1-.441 0l-7.39-7.422a.314.314 0 0 1 0-.444l.005-.004a.31.31 0 0 1 .44 0l7.391 7.423a.314.314 0 0 1 0 .443" fill="#3E3A39"/></g></svg>