<svg width="100" height="100" viewBox="0 0 100 100" xmlns="http://www.w3.org/2000/svg" xmlns:xlink="http://www.w3.org/1999/xlink"><defs><path id="a" d="M.382.384h21.892v28.253H.382z"/><path id="c" d="M0 95.416h94.607V.4H0z"/></defs><g transform="translate(4.6 2.2)" fill="none" fill-rule="evenodd"><g transform="translate(41.2 .016)"><mask id="b" fill="#fff"><use xlink:href="#a"/></mask><path d="M16.735.503L.478 16.22c-.222.215-.034.543.313.543h7.527c.27 0 .467.21.392.42l-3.88 11.03c-.118.337.405.572.695.313l16.642-14.865c.241-.215.046-.56-.312-.552l-7.255.15c-.264.004-.465-.193-.408-.402L17.447.787c.09-.338-.438-.548-.712-.284" fill="#F1BC32" mask="url(#b)"/></g><path d="M31.714 84.338h34.411c6.787 0 12.29-5.502 12.29-12.29v-34.41c0-6.788-5.503-12.29-12.29-12.29H31.714c-6.787 0-12.29 5.502-12.29 12.29v34.41c0 6.788 5.503 12.29 12.29 12.29" fill="#ACC953"/><path d="M73.499 71.798V37.387a7.374 7.374 0 0 0-7.374-7.374h-34.41a7.374 7.374 0 0 0-7.375 7.374v34.411a7.374 7.374 0 0 0 7.374 7.374h34.41a7.374 7.374 0 0 0 7.375-7.374" fill="#FFF"/><path d="M11.681 43.59l-.1.028a2.151 2.151 0 0 0-1.417 2.691l.672 2.168c1.664 5.372 5.376 12.322 9.663 15.962l1.73 1.468a2.15 2.15 0 0 0 2.784-3.28l-1.73-1.467c-3.663-3.11-6.917-9.367-8.34-13.956l-.67-2.168a2.15 2.15 0 0 0-2.592-1.446" fill="#ACC953"/><path d="M.21 60.08a2.15 2.15 0 0 0 1.112 2.908l2.093.877c5.188 2.17 12.9 3.784 18.443 2.83l2.237-.383a2.151 2.151 0 0 0-.73-4.24l-2.236.385c-4.735.813-11.622-.706-16.054-2.56l-2.094-.876A2.15 2.15 0 0 0 .21 60.08" fill="#ACC953"/><mask id="d" fill="#fff"><use xlink:href="#c"/></mask><path fill="#FFF" mask="url(#d)" d="M24.344 69.489h4.912v-9.824h-4.912z"/><path d="M37.124 82.061c-1.087 3.05-4.222 6.398-7.256 7.751l-.045.02m27.483 3.058c1.256-2.984 1.202-7.57-.125-10.616l-.02-.045" stroke="#ACC953" stroke-width="5.052" stroke-linecap="round" stroke-linejoin="round" mask="url(#d)"/><path d="M88.327 81.35a2.15 2.15 0 0 0 1.052-2.93l-1.017-2.029c-2.521-5.027-7.32-11.277-12.144-14.166L74.27 61.06a2.15 2.15 0 1 0-2.21 3.69l1.948 1.166c4.122 2.469 8.355 8.11 10.508 12.404l1.018 2.03a2.15 2.15 0 0 0 2.793 1.002" fill="#ACC953" mask="url(#d)"/><path fill="#FFF" mask="url(#d)" d="M68.58 70.355h4.913v-9.824H68.58z"/><path d="M52.941 54.041c.49 0 .944-.188 1.41-.342a.36.36 0 0 1 .474.342c0 3.177-1.249 7.204-5.76 7.204-4.513 0-5.762-4.027-5.762-7.204a.36.36 0 0 1 .475-.342c.465.154.918.342 1.408.342h7.755z" fill="#514740" mask="url(#d)"/><path d="M50.97 57.664c1.093 0 2.09.31 2.86.822-.85 1.581-2.33 2.76-4.766 2.76-.982 0-1.801-.2-2.494-.531.257-1.717 2.127-3.051 4.4-3.051" fill="#E06E58" mask="url(#d)"/><path d="M40.37 54.03a3.672 3.672 0 1 1-7.343 0 3.672 3.672 0 0 1 7.344 0m24.699-.32a3.672 3.672 0 1 1-7.343 0 3.672 3.672 0 0 1 7.344 0" fill="#514740" mask="url(#d)"/><path d="M37.893 61.795h-6.92a1.188 1.188 0 0 1-1.184-1.184v-.724c0-.65.533-1.184 1.184-1.184h6.92c.65 0 1.184.533 1.184 1.184v.724c0 .651-.533 1.184-1.184 1.184m28.977-.36h-6.92a1.187 1.187 0 0 1-1.184-1.184v-.724c0-.651.533-1.184 1.184-1.184h6.92c.65 0 1.183.533 1.183 1.184v.724c0 .651-.533 1.184-1.184 1.184" fill="#F6BAA3" mask="url(#d)"/><path d="M32.867 41.46l8.39 2.916c.091.031.191.02.272-.032l.46-.291a.314.314 0 0 1 .474.34l-.501 2.067a.99.99 0 0 1-1.173.734l-10.019-2.17a.314.314 0 0 1-.053-.598l.405-.167c.2-.084.258-.34.113-.5l-.718-.798a.314.314 0 0 1 .159-.516l1.01-.247a.314.314 0 0 0 .187-.479.314.314 0 0 1 .362-.47l.632.211zm32.108 0l-8.39 2.916a.314.314 0 0 1-.272-.032l-.46-.291a.314.314 0 0 0-.473.34l.5 2.067a.991.991 0 0 0 1.173.734l10.019-2.17c.3-.066.338-.48.053-.598l-.404-.167a.314.314 0 0 1-.114-.5l.719-.798a.314.314 0 0 0-.159-.516l-1.01-.247a.315.315 0 0 1-.188-.479.314.314 0 0 0-.362-.47l-.632.211zM5.467 57.535a.602.602 0 0 1-.577-.765 17.695 17.695 0 0 1 6.202-9.102.6.6 0 0 1 .73.952 16.487 16.487 0 0 0-5.778 8.48.6.6 0 0 1-.577.435m2.943.879a.599.599 0 0 1-.577-.764 14.435 14.435 0 0 1 4.722-7.226.6.6 0 0 1 .764.925 13.241 13.241 0 0 0-4.332 6.629.6.6 0 0 1-.576.436" fill="#8FBB36" mask="url(#d)"/></g></svg>