<svg width="120" height="120" viewBox="0 0 120 120" xmlns="http://www.w3.org/2000/svg" xmlns:xlink="http://www.w3.org/1999/xlink"><defs><path id="a" d="M.113.197H11.64V15.21H.113z"/></defs><g fill="none" fill-rule="evenodd"><path fill="#FFF" d="M20.675 45.963l18.15 4.478 6.426-11.386 13.428 6.908L72.8 35.219l9.68 9.208 20.23-10.943-3.672 15.817 17.744 5.972-19.95 10.914 6.53 16.915-23.829-8.188-8.815 13.677L59.812 77.84l-12.35 9.605-7.631-10.496-15.62 6.504.847-13.993-20.03-5.27 18.428-7.308z"/><path d="M20.79 46.077l1.453 5.3 1.474 5.438.06.223-.222.092-4.579 1.896-4.585 1.883-9.173 3.756-.06-.972 5.023 1.262 5.02 1.271 10.034 2.568.544.14-.03.566-.751 13.999-1.09-.77 7.794-3.286 7.8-3.276.62-.26.4.545 3.826 5.24 3.813 5.25-1.23-.174 6.177-4.8L59.3 77.19l.58-.447.515.511L71.26 88.048l-1.192.13 4.434-6.822 4.446-6.814.3-.46.512.18 11.887 4.173 11.875 4.21-.614.632-6.376-16.974-.099-.263.244-.131 10.006-5.403 9.98-5.448.04.449-8.882-2.96c-2.965-.971-5.925-1.96-8.895-2.918l-.295-.095.068-.31 3.5-15.856.763.575-10.058 5.578c-1.674.933-3.357 1.85-5.037 2.773l-5.043 2.761-.458.251-.381-.362-4.846-4.598-4.834-4.61.93.05-7.076 5.353-7.087 5.337-.331.25-.361-.19-6.694-3.492-6.683-3.513.716-.213-6.55 11.316-.153.266-.288-.076-9.04-2.378-4.52-1.191-4.379-1.177zm-.223-.22l4.688 1.054 4.556 1.048 9.11 2.099-.442.19 6.302-11.455.248-.45.47.237 6.744 3.395 6.734 3.415-.692.06 7.034-5.405 7.047-5.391.485-.371.445.422 4.847 4.597 4.834 4.61-.838-.111 5.072-2.71c1.691-.902 3.38-1.809 5.077-2.7l10.173-5.365 1.035-.546-.273 1.122-3.846 15.777-.227-.406c2.945 1.033 5.9 2.035 8.85 3.054l8.862 3.013.53.18-.49.268-9.97 5.467-9.944 5.512.145-.394 6.685 16.855.382.963-.995-.331-11.956-3.978-11.942-4.015.812-.28-4.37 6.863-4.381 6.855-.51.798-.683-.667-10.947-10.71 1.095.063-6.157 4.826-6.172 4.805-.706.55-.526-.723-3.818-5.246-3.803-5.256 1.019.285-7.82 3.227-7.825 3.217-1.174.483.084-1.253.943-13.987.513.707-9.997-2.703-4.996-1.364-4.993-1.373-1.509-.415 1.45-.556 9.256-3.552 4.63-1.771 4.634-1.757-.16.314-1.308-5.48-1.321-5.61zm-10.406 5.111l1.206 2.144-2.453-.356-1.688 1.798-.414-2.42-2.248-1.032 2.196-1.14.299-2.436 1.772 1.716 2.431-.473z" fill="#000"/><path fill="#F15A24" d="M2.593 69.778l-.805 1.115-.403-1.311-1.32-.414 1.135-.784-.01-1.37 1.104.825 1.313-.434-.452 1.296.821 1.102z"/><path stroke="#000" stroke-width=".539" d="M2.593 69.778l-.805 1.115-.403-1.311-1.32-.414 1.135-.784-.01-1.37 1.104.825 1.313-.434-.452 1.296.821 1.102z"/><path fill="#FCEE21" d="M35.917 44.811l-1.25 1.714-.613-2.024-2.03-.645 1.753-1.204-.007-2.113 1.698 1.28 2.027-.66-.705 1.994 1.26 1.704z"/><path stroke="#000" stroke-width=".539" d="M35.917 44.811l-1.25 1.714-.613-2.024-2.03-.645 1.753-1.204-.007-2.113 1.698 1.28 2.027-.66-.705 1.994 1.26 1.704z"/><path fill="#000" d="M85.404 82.735l2.34-.785-.802 2.333 1.468 1.979-2.467-.039-1.433 2.008-.724-2.355-2.353-.739 2.02-1.417-.021-2.464z"/><path fill="#F15A24" d="M110.84 84.97l.955.992-1.37.154-.65 1.214-.568-1.253-1.356-.241 1.018-.928-.188-1.363 1.198.678 1.24-.6z"/><path stroke="#000" stroke-width=".539" d="M110.84 84.97l.955.992-1.37.154-.65 1.214-.568-1.253-1.356-.241 1.018-.928-.188-1.363 1.198.678 1.24-.6z"/><path fill="#FCEE21" d="M112.822 68.673l1.465 1.535-2.113.23-1.01 1.866-.868-1.935-2.09-.38 1.576-1.426-.281-2.103 1.842 1.055 1.916-.918z"/><path stroke="#000" stroke-width=".539" d="M112.822 68.673l1.465 1.535-2.113.23-1.01 1.866-.868-1.935-2.09-.38 1.576-1.426-.281-2.103 1.842 1.055 1.916-.918z"/><path fill="#FCEE21" d="M72.2 41.749l6.844 6.51 2.418 2.3 2.94-1.59 11.28-6.102-1.38 5.944-.934 4.022 3.931 1.323 7.88 2.651-10.826 5.922-3.503 1.917 1.434 3.712 3 7.774-14.523-4.99-3.41-1.172-1.946 3.02-5.756 8.93-6.88-6.782-2.868-2.829-3.183 2.475-8.6 6.689-4.842-6.66-2.13-2.93-3.356 1.396-8.83 3.677.404-6.687.225-3.726-3.629-.955-6.613-1.74 5.537-2.196 3.733-1.48-.987-3.874-.902-3.542 10.723 2.646 3.392.837 1.71-3.03 4.257-7.544 9.493 4.884 2.582 1.328 2.309-1.757z"/><path d="M72.237 41.71a907.4 907.4 0 0 1 4.703 4.33l4.693 4.342-.289-.039 14.15-7.82.768-.425-.195.857-2.273 9.975-.286-.509 11.825 3.932 1.043.347-.966.527-7.166 3.916-7.186 3.88.196-.531 4.327 11.527.24.638-.64-.227-8.937-3.166c-1.488-.532-2.984-1.042-4.475-1.564l-4.477-1.557.214-.075-1.936 2.98c-.646.995-1.294 1.986-1.93 2.986l-3.835 5.986-.123.191-.163-.16-4.892-4.788-4.912-4.768.348.02-11.705 9.264-.315.249-.241-.328-7.033-9.547.555.155L29.16 77.43l-.763.322.047-.827.595-10.415.41.563L19.201 64.4l-1.69-.44 1.624-.643 9.27-3.674-.343.669-1.868-7.42-.225-.892.892.224 7.05 1.77 7.047 1.782-.533.23 6.03-10.539.197-.343.345.182 12.015 6.328-.294.026 6.717-4.986 6.732-4.968.065.085-6.583 5.161-6.596 5.143-.136.106-.159-.08-12.135-6.097.542-.161-5.905 10.609-.175.315-.358-.086L33.66 55l-7.065-1.712.668-.667 1.909 7.41.124.484-.467.185-9.269 3.678-.066-1.084 10.237 2.717.438.116-.029.448-.665 10.411-.715-.505 12.206-5.025.342-.141.213.296 6.913 9.634-.556-.079 11.86-9.064.186-.141.161.162 4.838 4.842 4.857 4.823-.287.031 3.868-5.964c.648-.992 1.283-1.992 1.921-2.99l1.915-2.995.077-.12.138.045L81.9 71.32c1.497.506 2.99 1.022 4.491 1.517l8.997 2.996-.4.412L90.446 64.8l-.137-.346.332-.185 7.142-3.959 7.162-3.923.077.874-11.795-4.017-.376-.128.09-.381 2.357-9.956.572.432-14.29 7.564-.163.086-.127-.124-4.57-4.47a906.612 906.612 0 0 1-4.559-4.48l.075-.077z" fill="#000"/><g transform="translate(103.011 31.071)"><mask id="b" fill="#fff"><use xlink:href="#a"/></mask><path d="M11.526.197s-.31.087-.806.311c-.252.109-.541.26-.874.438a15.115 15.115 0 0 0-2.26 1.54c-.413.326-.82.7-1.215 1.114-.4.408-.757.885-1.125 1.358-.354.486-.713.978-1.071 1.472-.342.506-.71.989-1.02 1.503-.313.511-.635 1.003-.891 1.516-.262.507-.542.979-.737 1.467l-.304.696c-.102.222-.193.44-.263.657-.15.428-.287.82-.41 1.167-.112.35-.176.666-.242.92l-.195.802.185.053.332-.746c.111-.234.223-.526.381-.848l.57-1.061c.097-.196.218-.391.348-.59l.394-.619c.258-.43.581-.855.896-1.3.305-.453.684-.881 1.03-1.336.346-.457.752-.882 1.126-1.327a27.64 27.64 0 0 1 1.22-1.242c.432-.383.824-.785 1.218-1.162.383-.388.734-.782 1.067-1.157.328-.38.645-.736.926-1.08.284-.34.544-.654.767-.945.227-.284.419-.543.578-.755.16-.215.28-.387.363-.506L11.64.35l-.114-.153z" fill="#000" mask="url(#b)"/></g><path d="M119.957 36.571s-.231-.09-.634-.173a7.852 7.852 0 0 0-1.665-.15c-.683.012-1.481.083-2.298.32a8.674 8.674 0 0 0-1.22.486c-.406.19-.814.394-1.22.596-.407.2-.807.417-1.194.64-.386.226-.754.468-1.1.718a12.296 12.296 0 0 0-1.751 1.521l-.323.363-.272.342c-.172.213-.297.418-.409.577l-.31.526.157.11.417-.422c.144-.123.303-.286.508-.448l.32-.26c.119-.084.243-.174.372-.267.52-.365 1.16-.738 1.872-1.079.356-.17.734-.324 1.116-.484.385-.15.78-.296 1.181-.424a11.75 11.75 0 0 1 1.22-.315c.407-.087.808-.163 1.187-.267.758-.21 1.45-.483 2.05-.729.6-.245 1.102-.486 1.456-.675.354-.187.558-.316.558-.316l-.018-.19zM1.34 80.294s.131-.288.424-.74c.142-.23.333-.49.556-.788a15.026 15.026 0 0 1 1.842-1.98c.38-.357.808-.7 1.27-1.025.46-.331.981-.61 1.5-.902l1.604-.832c.548-.26 1.075-.55 1.627-.778.548-.232 1.079-.475 1.62-.651.538-.182 1.043-.388 1.551-.507l.729-.197c.234-.066.461-.124.685-.161l1.21-.231c.36-.06.68-.077.94-.104l.818-.075.024.187-.781.217c-.247.074-.55.14-.89.25l-1.126.401a5.848 5.848 0 0 0-.632.256l-.666.295c-.46.189-.925.443-1.41.686-.49.232-.965.54-1.464.811-.499.272-.976.606-1.467.907-.482.32-.947.667-1.4 1.011-.439.365-.891.69-1.319 1.02-.438.317-.875.602-1.293.874-.422.264-.817.522-1.196.746a29.64 29.64 0 0 1-1.041.611c-.312.181-.595.332-.827.456-.235.124-.42.217-.551.28l-.202.098-.134-.135zm6.588 1.066s.022-.242.124-.634c.1-.394.29-.934.596-1.536a8.642 8.642 0 0 1 1.293-1.889 8.62 8.62 0 0 1 .97-.863c.348-.275.709-.546 1.066-.816.357-.272.726-.53 1.095-.774.371-.241.749-.46 1.123-.655a11.757 11.757 0 0 1 2.127-.88c.161-.043.317-.085.464-.126l.425-.09c.265-.059.504-.078.694-.108l.606-.042.03.187-.56.182c-.173.073-.388.142-.622.251l-.373.17-.402.21c-.554.3-1.167.702-1.783 1.181-.31.238-.612.505-.921.772-.305.274-.607.56-.898.858-.29.298-.563.614-.816.938-.255.32-.498.642-.758.93-.52.578-1.066 1.067-1.549 1.49-.483.422-.917.76-1.242.99-.321.23-.526.354-.526.354l-.163-.1z" fill="#000"/><path d="M27.091 65.303l.007-.001c1.885-.485 2.68-1.43 2.497-2.972-.057-.166-.389-1.022-1.244-1.172a3.591 3.591 0 0 0-.286-.01c-.327 0-.844.033-1.454.19a6.081 6.081 0 0 0-.69.218l1.17 3.747zm.175 13.47c-1.024 0-1.55-.256-2.088-.7-.258-.161-.877-.662-1.498-3.053l-2.652-10.202c-.383-1.473-.841-2.568-1.21-3.448-.246-.587-.44-1.051-.551-1.478-.179-.688-.29-1.68.8-2.361l.034-.022.036-.017c.662-.31 1.147-.498 1.573-.607a3.34 3.34 0 0 1 .834-.117c.267 0 .51.042.737.128a12.56 12.56 0 0 1 2.397-.873c1.097-.281 2.066-.419 2.964-.419 3.2 0 5.288 1.787 6.204 5.31.21.806.338 1.506.404 2.203l.004.04-.002.042c-.057 2.013-.905 3.817-2.45 5.219-1.465 1.327-3.174 1.977-4.208 2.272.222.71.578 1.882.877 3.032.698 2.686.739 3.754.124 4.172a3.18 3.18 0 0 1-1.424.769 3.373 3.373 0 0 1-.905.11z" fill="#ED1C24"/><path d="M26.763 61.991a5.218 5.218 0 0 1 1.302-.173c.091 0 .159.003.197.006.4.087.603.492.672.66.11 1.197-.579 1.698-1.396 1.988l-.775-2.48zm1.88-7.057c-.957 0-1.982.144-3.134.44-.81.209-1.588.483-2.282.805a2.82 2.82 0 0 0-.684-.082c-.312 0-.64.045-1.002.139-.469.12-.99.32-1.692.65l-.073.034-.068.043c-1.084.677-1.452 1.719-1.094 3.096.123.474.335.981.582 1.569.36.86.808 1.931 1.18 3.358l2.52 9.695.131.507c.607 2.335 1.241 3.083 1.747 3.422.738.599 1.445.834 2.492.834l.177-.002c.1-.002.457-.017.896-.13a3.856 3.856 0 0 0 1.677-.892c1.07-.765.719-2.517.108-4.866a62.855 62.855 0 0 0-.69-2.427c1.087-.377 2.54-1.051 3.822-2.214 1.684-1.527 2.607-3.496 2.67-5.695l.003-.083-.008-.082a14.422 14.422 0 0 0-.422-2.306c-.69-2.652-2.439-5.813-6.856-5.813zm-2.014 11.149c.21-.054.427-.078.638-.132 1.47-.378 3.318-1.267 2.99-3.761-.023-.09-.448-1.476-1.817-1.697 0 0-.137-.016-.375-.016a6.6 6.6 0 0 0-1.622.212c-.42.107-.863.253-1.342.503l1.528 4.89zm2.013-9.808c2.542 0 4.62 1.224 5.551 4.808.163.626.312 1.32.385 2.097-.117 4.103-3.691 6.232-6.422 6.934l-.42.107s.61 1.85 1.082 3.669c.427 1.64.756 3.274.36 3.472-.381.384-.816.56-1.176.652-.33.085-.585.087-.585.087a5.844 5.844 0 0 1-.151.002c-.847 0-1.23-.186-1.695-.578-.566-.331-1.03-1.868-1.238-2.673l-.132-.507s-2.32-8.92-2.52-9.695c-.644-2.476-1.505-3.942-1.761-4.926-.202-.775-.1-1.247.505-1.625.6-.282 1.063-.465 1.453-.565a2.71 2.71 0 0 1 .665-.096c.316 0 .548.082.741.212a11.438 11.438 0 0 1 2.563-.977c.968-.25 1.91-.398 2.795-.398z" fill="#000"/><path d="M39.835 61.084c-.188 0-.384.033-.584.096-1.628.54-1.844 2.422-1.353 3.942.388 1.203 1.317 2.418 2.514 2.418.195 0 .395-.033.596-.097 1.446-.462 1.668-2.44 1.142-4.068-.342-1.056-1.153-2.29-2.315-2.29m.382 11.957c-3.234 0-5.972-2.258-7.146-5.893-.707-2.185-.726-4.575-.055-6.557.77-2.27 2.405-3.906 4.604-4.609l.221-.07a6.552 6.552 0 0 1 1.82-.272c2.58 0 4.848 1.742 6.388 4.905.042.07.07.129.09.178.024.04.055.097.081.168.19.437.363.894.513 1.357.754 2.335.811 4.393.17 6.119-.879 2.418-1.997 3.572-4.125 4.252a8.433 8.433 0 0 1-2.561.422" fill="#ED1C24"/><path d="M39.464 61.816c.13-.04.255-.061.371-.061.748 0 1.38.917 1.673 1.825.542 1.679.055 2.981-.707 3.225a1.268 1.268 0 0 1-.389.064c-.73 0-1.501-.802-1.873-1.952-.302-.936-.446-2.64.925-3.1m.198-6.846c-.649 0-1.319.098-1.99.292l-.018.005-.019.006-.22.07c-2.41.77-4.198 2.558-5.037 5.034-.717 2.114-.699 4.657.05 6.976 1.268 3.922 4.252 6.358 7.789 6.358.894 0 1.825-.153 2.767-.454 2.328-.744 3.605-2.052 4.555-4.667.691-1.86.637-4.066-.165-6.547-.154-.479-.332-.95-.529-1.403a1.677 1.677 0 0 0-.102-.217 2.04 2.04 0 0 0-.099-.194c-1.663-3.395-4.14-5.259-6.982-5.259m.75 13.24c.26 0 .527-.042.802-.13 1.854-.592 2.209-2.957 1.578-4.91-.487-1.506-1.555-2.757-2.957-2.757-.253 0-.517.04-.79.128-2.023.671-2.4 2.898-1.79 4.785.507 1.567 1.69 2.883 3.157 2.883m-.75-11.898c3.598 0 5.41 3.763 5.793 4.554.051.081.065.125.072.146.007.022.044.06.065.125.093.212.293.681.499 1.318.46 1.426.935 3.647.18 5.68-.876 2.412-1.934 3.282-3.7 3.847a7.722 7.722 0 0 1-2.354.389c-3.314 0-5.558-2.498-6.505-5.427-1.29-3.995-.233-8.933 4.115-10.323l.22-.07a5.806 5.806 0 0 1 1.615-.239" fill="#000"/><path d="M51.981 57.823c-1.72.022-2.505 1.746-2.505 3.34 0 1.521.703 3.157 2.247 3.157 1.519 0 2.339-1.816 2.339-3.525 0-1.37-.545-2.97-2.08-2.972m-.167 11.965c-5.221 0-7.558-4.1-7.558-8.163 0-4.482 2.722-9.246 7.767-9.246h.232c3.459.098 5.78 2.616 6.388 6.91.018.079.027.143.031.195.01.047.022.11.026.185.046.473.07.96.07 1.449 0 2.452-.579 4.429-1.72 5.877-1.58 2.035-3 2.793-5.236 2.793" fill="#ED1C24"/><path d="M51.723 63.65c-1.244 0-1.573-1.626-1.573-2.486 0-.983.387-2.649 1.834-2.67 1.364.007 1.403 2.066 1.403 2.301 0 1.763-.864 2.855-1.664 2.855zm.552-11.941h-.251c-2.53 0-4.783 1.157-6.343 3.259-1.334 1.795-2.098 4.222-2.098 6.657 0 4.397 2.545 8.833 8.232 8.833 2.445 0 4.063-.857 5.773-3.057 1.23-1.561 1.857-3.678 1.857-6.283 0-.504-.024-1.008-.072-1.498a1.681 1.681 0 0 0-.03-.237 2.063 2.063 0 0 0-.035-.214c-.668-4.638-3.222-7.352-7.014-7.46h-.02zm-.552 13.282c1.947 0 3.013-2.144 3.013-4.196 0-1.867-.88-3.642-2.759-3.642-2.132.023-3.175 2.028-3.175 4.01 0 1.937.997 3.828 2.92 3.828zm.533-11.941c4.867.138 5.586 5.37 5.725 6.362a.603.603 0 0 1 .023.161c0 .023.023.07.023.139.023.23.07.737.07 1.406 0 1.498-.232 3.757-1.576 5.463-1.576 2.029-2.851 2.536-4.706 2.536-4.844 0-6.884-3.735-6.884-7.492 0-4.196 2.527-8.575 7.093-8.575h.232z" fill="#000"/><path d="M63.696 56.262c-.237 0-.48.053-.725.157-1.571.69-1.61 2.583-.979 4.05.57 1.326 1.578 2.182 2.567 2.182.248 0 .5-.054.747-.159 1.397-.594 1.432-2.585.756-4.156-.431-1.002-1.28-2.074-2.366-2.074m.692 11.908c-2.98 0-5.6-1.957-7.012-5.235-.908-2.11-1.151-4.488-.668-6.523.552-2.33 2.027-4.112 4.151-5.016l.213-.09c.79-.31 1.564-.464 2.319-.464 1.67 0 4.117.749 6.288 4.315.048.067.082.122.106.17.028.038.064.091.097.159a15 15 0 0 1 .638 1.304c.97 2.254 1.22 4.298.743 6.076-.648 2.489-1.654 3.742-3.708 4.616-1.073.457-2.139.688-3.167.688" fill="#ED1C24"/><path d="M63.242 57.033c.16-.067.309-.1.454-.1.616 0 1.317.67 1.747 1.667.697 1.62.334 2.962-.402 3.276-.166.07-.324.105-.482.105-.697 0-1.497-.73-1.947-1.775-.389-.904-.692-2.587.63-3.173m.15-6.862v1.341l-.001-1.34c-.84 0-1.697.168-2.548.503l-.018.007-.018.007-.213.091c-2.326.99-3.94 2.935-4.542 5.478-.516 2.172-.259 4.702.705 6.941 1.52 3.533 4.373 5.642 7.63 5.642 1.12 0 2.276-.25 3.433-.743 2.247-.956 3.396-2.378 4.097-5.068.514-1.917.253-4.108-.778-6.504-.2-.463-.42-.916-.659-1.348a1.672 1.672 0 0 0-.121-.207 2.09 2.09 0 0 0-.117-.183c-1.824-2.98-4.254-4.617-6.85-4.617m1.167 13.15c.33 0 .669-.066 1.012-.213 1.79-.762 1.923-3.15 1.111-5.036-.593-1.378-1.685-2.48-2.986-2.48-.319 0-.65.066-.99.211-1.952.856-2.118 3.108-1.333 4.93.617 1.435 1.818 2.589 3.186 2.589m-1.168-11.81c3.302 0 5.291 3.3 5.727 4.019a.62.62 0 0 1 .086.14c.008.02.048.054.076.117.112.203.355.651.62 1.266.593 1.377 1.273 3.545.712 5.64-.647 2.481-1.618 3.446-3.323 4.172-1.029.438-1.999.634-2.901.634-3.002 0-5.249-2.172-6.392-4.829-1.66-3.856-1.07-8.872 3.129-10.658l.213-.091a5.593 5.593 0 0 1 2.053-.41" fill="#000"/><path d="M80.415 68.468c-.298 0-.64-.06-1.36-.237-1.216-.323-1.542-1.278-1.664-1.638l-.065-.19V66.4c-.225-.755-.19-2.06-.107-3.437-.467.801-.94 1.581-1.283 2.146-.167.275-.325.537-.388.646l-.03.108-.133.129c-.49.47-1.067.71-1.716.71a2.97 2.97 0 0 1-.762-.105c-1.203-.345-1.525-.51-1.98-1.018-.714-.711-.574-2.43-.469-3.194l-.03-7.945a30.755 30.755 0 0 0-.285-2.703c-.136-.972-.227-1.614-.081-2.155.154-.573.547-.948 1.2-1.147l.044-.014.046-.007c.63-.102 1.106-.15 1.499-.15.31 0 .577.03.813.094.495.131.777.384 1.006.639.908.919.832 3.27.807 3.735a84.397 84.397 0 0 0-.191 4.047c.5-.967.968-1.94 1.45-2.944.444-.921.903-1.874 1.404-2.858l.027-.052.035-.046c.373-.497.828-.75 1.351-.75.149 0 .304.022.462.064l1.236.329c.728.193 1.13.682 1.228 1.494l.009.07-.14 1.476c-.176 1.742-.332 3.375-.413 5.054 1.06-1.83 1.986-3.614 2-3.64.21-.41 1.323-2.486 2.571-2.832.164-.054.408-.12.694-.12.166 0 .333.021.498.065.524.14 1.128.508 1.959 1.195l.033.027.029.031c.46.49.616 1.025.464 1.59-.148.551-.563 1.093-1.138 1.842a30.58 30.58 0 0 0-1.578 2.208c-.323.513-3.888 6.57-4.07 6.88-.355.663-1.26 2.186-2.193 2.446l-.02.007c-.232.079-.452.153-.77.153" fill="#ED1C24"/><path d="M72.85 47.594c-.43 0-.94.05-1.606.158l-.091.015-.088.027c-1.098.334-1.506 1.062-1.654 1.614-.181.673-.078 1.407.064 2.422.098.698.22 1.564.28 2.63.001.777.025 7.036.029 7.881-.168 1.25-.176 2.855.652 3.697.577.64 1.038.846 2.271 1.2l.013.003.013.003c.317.085.632.128.936.128.819 0 1.574-.311 2.185-.899l.267-.257.054-.2.328-.543c.021.34.06.642.122.908l-.008.03.085.25.02.06.025.07.005.017c.14.409.564 1.655 2.116 2.068l.012.004.013.003c.676.165 1.119.255 1.522.255.429 0 .725-.1.986-.188l.006-.002c1.073-.314 1.99-1.66 2.579-2.76 1.05-1.784 3.785-6.425 4.056-6.855a29.808 29.808 0 0 1 1.54-2.153c.62-.81 1.07-1.395 1.252-2.075.149-.552.161-1.385-.622-2.22l-.058-.062-.066-.055c-.91-.752-1.593-1.161-2.215-1.326a2.62 2.62 0 0 0-.673-.09 2.85 2.85 0 0 0-.891.151c-1.433.41-2.557 2.35-2.978 3.174a68.96 68.96 0 0 1-.507.957c.059-.647.125-1.309.195-2l.133-1.413.013-.143-.017-.142c-.165-1.37-1.028-1.878-1.723-2.062l-1.235-.329a2.484 2.484 0 0 0-.637-.086c-.514 0-1.259.177-1.891 1.018l-.07.093-.053.104c-.505.991-.965 1.947-1.41 2.872l-.035.073c.03-.5.054-.81.054-.82l.001-.016.001-.015c.05-.922.05-3.162-.987-4.228-.284-.316-.666-.654-1.323-.83a3.824 3.824 0 0 0-.99-.116m0 1.34c.259 0 .466.025.64.071.344.092.52.26.689.452.758.738.625 3.24.625 3.24s-.3 3.945-.172 6.663c1.572-2.656 2.654-5.222 4.11-8.08.237-.316.494-.48.81-.48.092 0 .187.013.29.04l1.235.33c.481.127.672.422.732.926l-.132 1.404c-.253 2.494-.482 4.897-.475 7.607 1.498-2.285 3.332-5.823 3.332-5.823s1.14-2.234 2.167-2.497c.156-.053.318-.094.5-.094.1 0 .208.013.323.044.39.103.919.415 1.702 1.062.304.325.397.618.306.96-.208.774-1.282 1.757-2.633 3.862-.342.543-4.09 6.914-4.09 6.914s-1.039 1.944-1.8 2.132c-.234.078-.375.13-.594.13-.237 0-.565-.06-1.199-.216-.87-.232-1.083-.899-1.192-1.22.006-.023-.01-.052-.028-.08-.407-1.133.058-4.596.058-6.329-.682 1.624-3.107 5.444-3.138 5.558-.357.343-.77.521-1.247.521a2.28 2.28 0 0 1-.588-.082c-1.161-.333-1.326-.45-1.665-.833-.589-.547-.284-2.686-.284-2.686l-.03-8.01c-.137-2.5-.59-3.914-.389-4.665.092-.341.32-.549.747-.68.592-.095 1.04-.14 1.39-.14" fill="#000"/><path d="M91.507 68.766c-1.238 0-2.225-.859-2.401-2.09-.15-1.051.364-2.224 1.612-2.659-1.054-.01-1.511-.608-1.69-.966-.436-.806-2.09-8.766-2.586-11.186l-.064-.328c-.081-.415-.152-.774-.196-1.084-.183-1.283.027-1.803.94-2.315l.058-.032.063-.021c.766-.25 1.452-.417 2.098-.508a7.738 7.738 0 0 1 1.08-.077c.245 0 .484.012.73.036.554.02 1.485.34 1.746 2.17.037.254.048.498.061.757.007.145.014.297.026.459l.021.147.002.027c.232 3.87.567 10.508.2 11.476-.179.464-.577 1.028-1.467 1.296 1.208.06 2.155.91 2.326 2.108a2.433 2.433 0 0 1-.402 1.74c-.385.554-1 .917-1.734 1.02-.143.02-.285.03-.423.03" fill="#ED1C24"/><path d="M90.42 46.83c-.384 0-.779.027-1.174.083a12.93 12.93 0 0 0-2.214.535l-.126.041-.116.065c-1.319.74-1.466 1.659-1.276 2.993.047.328.12.695.203 1.119l.063.32c.963 4.698 2.194 10.436 2.645 11.364.182.364.441.662.76.883-.632.703-.873 1.654-.747 2.537.225 1.57 1.486 2.667 3.069 2.667.17 0 .344-.013.518-.037.921-.13 1.7-.592 2.194-1.302a3.1 3.1 0 0 0 .514-2.217c-.137-.959-.663-1.743-1.417-2.211.251-.28.414-.581.52-.855.13-.347.474-1.253-.156-11.76l-.003-.052-.008-.053-.014-.1c-.01-.148-.017-.286-.024-.418a8.376 8.376 0 0 0-.066-.822c-.337-2.357-1.715-2.71-2.366-2.743a7.892 7.892 0 0 0-.779-.038m1.185 17.706c1.035 0 1.678.73 1.793 1.535.125.873-.373 1.834-1.562 2.002a2.356 2.356 0 0 1-.33.024c-1.018 0-1.62-.723-1.733-1.514-.124-.873.345-1.83 1.56-2.03.093-.012.184-.017.272-.017M90.42 48.17c.247 0 .475.014.686.036.724.012 1.011.806 1.124 1.594.052.366.048.74.084 1.195l.02.14c.084 1.397.599 10.26.242 11.2-.21.548-.684.873-1.449.981l-.113.016c-.094.01-.183.015-.266.015-.6 0-.94-.242-1.117-.595-.432-.8-2.528-11.021-2.528-11.021-.109-.56-.202-1.006-.254-1.372-.153-1.07-.011-1.292.604-1.637a11.556 11.556 0 0 1 1.983-.481c.357-.05.684-.071.984-.071" fill="#000"/><path d="M104.731 65.012c-.773 0-1.512-.398-1.978-1.065-.61-.874-.68-2.153.241-3.1a2.12 2.12 0 0 1-.935.237c-.37 0-.711-.115-1.015-.34-.753-.526-5.829-6.897-7.366-8.837l-.206-.264c-.26-.335-.485-.623-.665-.88-.743-1.064-.79-1.622-.207-2.488l.037-.055.047-.047a12.216 12.216 0 0 1 1.645-1.392 7.45 7.45 0 0 1 1.598-.845c.204-.093.417-.14.634-.14.664 0 1.306.436 1.907 1.296.147.211.268.425.396.65.072.126.147.258.231.398l.086.122.013.023c1.957 3.353 5.257 9.132 5.367 10.162.05.495-.05 1.177-.726 1.815.332-.147.68-.223 1.025-.223a2.46 2.46 0 0 1 2.007 1.064c.36.517.513 1.133.428 1.735-.094.667-.48 1.265-1.088 1.686-.469.324-.965.488-1.476.488" fill="#ED1C24"/><path d="M96.561 45.126c-.308 0-.608.064-.894.191a8.093 8.093 0 0 0-1.723.914c-.568.392-1.136.872-1.736 1.467l-.094.094-.074.11c-.843 1.252-.56 2.137.213 3.244.19.271.42.566.686.907l.201.258.004.006.005.005c2.975 3.755 6.668 8.328 7.491 8.958.324.241.692.394 1.08.45-.247.91-.032 1.866.48 2.6.591.847 1.538 1.352 2.531 1.352.642 0 1.285-.21 1.86-.608.765-.528 1.252-1.289 1.372-2.143a3.099 3.099 0 0 0-.543-2.21 3.146 3.146 0 0 0-2.266-1.338 2.76 2.76 0 0 0 .078-1c-.04-.369-.142-1.332-5.455-10.434l-.027-.048-.032-.044-.056-.082a14.553 14.553 0 0 1-.21-.362 8.471 8.471 0 0 0-.43-.703c-.735-1.051-1.563-1.584-2.461-1.584m8.298 15.584c.602 0 1.132.315 1.454.776.506.724.496 1.805-.49 2.487-.374.258-.746.368-1.092.368-.59 0-1.106-.32-1.424-.777-.506-.724-.52-1.789.474-2.51.366-.24.734-.344 1.078-.344m-8.298-14.243c.512 0 .984.48 1.353 1.008.212.304.378.64.616 1.03l.081.117c.706 1.21 5.173 8.896 5.28 9.896.059.583-.217 1.085-.852 1.524l-.093.065c-.338.216-.632.307-.887.307a1 1 0 0 1-.611-.208c-.748-.521-7.24-8.714-7.24-8.714-.35-.45-.635-.808-.847-1.112-.62-.887-.594-1.148-.201-1.732a11.527 11.527 0 0 1 1.554-1.316 6.756 6.756 0 0 1 1.476-.778.848.848 0 0 1 .371-.087" fill="#000"/></g></svg>