<svg width="109" height="150" xmlns="http://www.w3.org/2000/svg"><path fill="#BE1E2D" stroke="#000" stroke-linecap="round" stroke-linejoin="round" d="M71.166 124.037c.604 1.405 1.835 3.922 2.32 5.738.09.32.156.621.216.922l.005-.012s1.91.938 1.412 1.822c-.294.542-.852.744-1.246.828-.145 1.115-.626 1.928-1.556 2.317-2.17.91-3.958-.93-4.696-2.584-.745-1.645-5.492-12.088-1.156-13.544 4.332-1.45 4.701 4.513 4.701 4.513h0zM56.778 135.16s-3.206 11.995-.704 13.181c2.5 1.187 7.828 1.937 8.035-.188.213-2.122-3.296-2.178-3.296-2.178l1.496-8.238" stroke-width=".693"/><path fill="#BE1E2D" stroke="#000" d="M62.021 117.825s6.608.332 7.638 6.058c.321 2.042 1.223 9.876-2.264 12.259-3.426 2.34-6.736 2.577-9.852.818-3.151-1.776-3.803-6.838-3.396-9.59a23.319 23.319 0 0 1 1.156-4.443c0-.002 1.949-4.668 6.718-5.102h0z" stroke-width=".693"/><path fill="none" stroke="#000" stroke-linecap="round" stroke-linejoin="round" d="M69.783 126.974c-5.238.617-3.835 6.148-1.496 8.323" stroke-width=".693"/><path fill="#E6E7E8" d="M69.783 127.27s-2.938.126-3.41 2.84c-.448 2.588 1.805 4.812 1.805 4.812s1.737-1.457 1.605-7.653z"/><path fill="#BE1E2D" stroke="#000" stroke-linecap="round" stroke-linejoin="round" d="M61.36 137.51c1.367.328 5.832 2.229 5.832 2.229s-.062 5.387 1.34 5.5c2.76.227 8.008-.957 7.452-3.018-.558-2.064-3.855-.875-3.855-.875.001 0-.278-3.559-.79-4.705-.43-.962-3.822-1.896-4.96-2.19" stroke-width=".693"/><path fill="#BE1E2D" stroke="#000" d="M62.332 128.54c-1.008 1.173-2.758 3.405-4.198 4.652-.25.216-.507.41-.748.6l.015-.006s-.009 2.156-1.037 2.097c-.621-.034-1.05-.45-1.303-.774-1.08.364-2.031.285-2.793-.391-1.79-1.57-.897-4.009.273-5.415 1.168-1.401 8.573-10.342 11.814-7.035 3.237 3.305-2.023 6.273-2.023 6.273h0z" stroke-width=".693"/><g stroke="#000" stroke-width=".693"><path fill="#BE1E2D" d="M97.382 57.684c.878-1.088 3.352-4.221 4.813-6.617 2.455-4.032 5.684-9.164 5.684-9.164s1.474 7.418.403 13.722c-.942 5.55-4.457 10.719-5.274 11.873l-4.074-5.096-1.552-4.718h0z"/><path fill="#939598" stroke-linecap="round" stroke-linejoin="round" d="M103.467 58.557c1.85.248 3.545-.59 4.36-1.416h0c-1.154 5.17-3.969 9.409-4.75 10.494l-.02.079c-.477-1.089-.693-1.774-1.208-2.76h0c1.16-1.643 1.512-4.403 1.618-6.397h0zm0 0c.099-1.274-.245-3.112-.245-3.112"/></g><g stroke="#000" stroke-width=".693"><path fill="#BE1E2D" stroke-linecap="round" stroke-linejoin="round" d="M33.83 103.386s10.937 16.682 32.588 17.344c21.65.66 27.857-8.793 29.054-13.036 1.399-4.95-1.358-9.324-1.728-9.884l-.077-.03c-2.49 1.622-5.402.683-5.402.683s1.546.007 2.346-.822c.776-.795 1.614-5.552.425-12.041-1.582-8.64-4.846-10.496-4.846-10.496l-.306-.266a3390.296 3390.296 0 0 1-17.11 5.256c-7.726 2.336-11.497 4.85-11.497 4.85s.54-3.592 3.054-5.747c1.31-1.128 3.013-2.2 4.344-2.973l-.242-.05s-12.487 1.583-19.115 10.199c-4.671 6.071-2.873 14.802-2.873 14.802s-3.31-4.047-4.356-8.303l-.018-.015s-3.513 3.063-4.367 9.542c-.031.233-.055.491-.072.767l.198.22h0zm59.989 10.847a30.575 30.575 0 0 0 0 0h0zm.229-1.766a17.19 17.19 0 0 1 0 0h0zm.022-.29a10.646 10.646 0 0 0 0 0h0zm.032-.775a7.123 7.123 0 0 0-.022-.671l.003-.004c.017.209.02.437.02.675h0zm-56.03-18.54s-3.513 3.06-4.367 9.54c-.483 3.672.8 12.502.8 12.502s-9.138-10.696-8.837-22.145c.304-11.449 4.184-19.752 4.184-19.752m-6.398 36.825l-2.952 7.033S7.025 103.909 9.926 80.269m20.59 29.525l.736 5.595s-6.803-3.569-10.138-8.678c-6.283-9.619-5.179-19.304-5.179-19.304m81.768-6.462c1.31 8.472-.439 12.003-2.147 14.831-2.552 4.218-7.292 2.687-7.292 2.687s1.546.009 2.348-.818c.777-.797 1.612-5.55.425-12.044-1.585-8.64-5.05-10.615-5.05-10.615h0c-4.484 1.386-10.008 2.924-17.215 5.108-7.726 2.334-11.497 4.85-11.497 4.85s.537-3.593 3.053-5.749c1.256-1.078 2.874-2.11 4.175-2.873l-.072-.151s-12.487 1.582-19.115 10.2c-4.671 6.074-2.873 14.8-2.873 14.8s-3.303-4.038-4.356-8.29l-.018-.026s-3.513 3.065-4.367 9.544c-.255 1.943-.016 5.331.265 8.091l.001.002v.002-.002c.25 2.454.534 4.41.534 4.41s-1.88-2.204-3.912-5.679l-.08.564.736 5.596s-4.215-2.215-7.64-5.649l-.155.095-2.95 7.032s-15.929-15.311-9.43-43.009c3.39-14.432 27.25-31.81 30.932-42.856 3.68-11.047-3.534-19.592-3.534-19.592s.734.15 2.65 1.475c1.913 1.326 4.564 5.006 4.564 5.006s-.021-4.743.441-8.395c.627-4.913 1.768-8.54 1.768-8.54s10.902 20.913 22.535 33.726c11.635 12.814 26.929 14.49 34.76 38.738 8.51 26.343-5.919 40.073-5.919 40.073s.263-1.782.459-4.468l-.17.126s-1.932 4.028-3.324 5.858a68.316 68.316 0 0 1-3.52 4.227s.692-2.475 1.1-4.963l-.047.025c-3.093 4.5-10.6 10.043-27.354 9.532-20.977-.64-31.791-12.587-32.444-13.33-.248-2.427-.461-5.334-.338-7.322l.197.215s10.937 16.68 32.589 17.344c17.3.527 24.736-5.402 27.636-9.972l-.004.003c.011-.015.017-.031.027-.046v-.008l.013-.014c.704-1.123 1.136-2.165 1.376-3 1.364-4.832-1.227-9.118-1.695-9.834l-.075-.098c-2.496 1.653-5.434.704-5.434.704s1.547.008 2.348-.823m-26.105-21.32c1.061-.852 2.296-1.256 2.296-1.256M38.07 92.858s-.29-3.377-.042-4.274m61.533 20.56s-1.933 4.029-3.325 5.859a68.316 68.316 0 0 1-3.52 4.227s1.678-5.992 1.35-8.693m3.945-21.589s3.563 11.082 1.55 20.197"/><path fill="#E6E7E8" d="M33.83 103.386s10.937 16.682 32.588 17.344c21.65.66 27.857-8.793 29.054-13.036 1.399-4.95-1.358-9.324-1.728-9.884l-.077-.03c-2.49 1.622-5.402.683-5.402.683s1.546.007 2.346-.822c.776-.795 1.614-5.552.425-12.041-1.582-8.64-4.846-10.496-4.846-10.496l-.306-.266a3390.296 3390.296 0 0 1-17.11 5.256c-7.726 2.336-11.497 4.85-11.497 4.85s.54-3.592 3.054-5.747c1.31-1.128 3.013-2.2 4.344-2.973l-.242-.05s-12.487 1.583-19.115 10.199c-4.671 6.071-2.873 14.802-2.873 14.802s-3.31-4.047-4.356-8.303l-.018-.015s-3.513 3.063-4.367 9.542c-.031.233-.055.491-.072.767l.198.22h0z"/></g><g stroke="#000" stroke-width=".693"><path fill="#BE1E2D" d="M25.985 97.117a23.306 23.306 0 0 1-.316-4.358c.211-7.97 2.159-14.418 3.319-17.597l-.352-.382c-2.253-2.892-8.771-11.1-12.795-14.643-4.933-4.333-14.6-5.99-14.6-5.99s3.314 15.205 7.719 23.94c6.794 13.476 16.598 18.92 16.598 18.92l.427.11h0z"/><path fill="#939598" stroke-linecap="round" stroke-linejoin="round" d="M18.473 91.33s1.909-1.271 2.336-5.754c.266-2.778-.76-7.918-.76-7.918l.094.165a27.674 27.674 0 0 1-2.279-3.21c-1.208-2.015-2.596-4.998-3.858-7.946l-.194-.411s-3.444-5.384-11.074-6.405l-.094.041c1.373 5.22 3.639 12.896 6.314 18.195 2.992 5.94 6.576 10.32 9.64 13.359l-.125-.116h0zm5.083-10.733s-3.32-2.609-3.413-2.774"/></g><path fill="#939598" stroke="#000" d="M82.993 106.54s-4.52-.14-10.59 0c-6.073.14-12.424.85-12.424.85s3.106 6.215 11.012 5.787c7.908-.425 11.44-3.104 12.002-6.636h0z" stroke-width=".693"/><path fill="#231F20" d="M59.785 92.923c-.118-.034-2.194-.6-4.834-.477a.722.722 0 0 0-.364-.297c-.002-.001-.345-.143-.429-.457a.738.738 0 0 0-1.426.378c.064.236.17.428.283.598-.108.018-.217.043-.327.065a.702.702 0 0 0-.285-.138c-.004-.002-.372-.088-.498-.39a.74.74 0 0 0-.967-.389.737.737 0 0 0-.392.967c.136.323.332.557.538.738a1.095 1.095 0 0 0-.085.815 1.11 1.11 0 0 0 1.37.751c3.353-.976 6.783-.044 6.816-.034a1.11 1.11 0 0 0 1.363-.768 1.104 1.104 0 0 0-.763-1.362zm29.323-1.037a.739.739 0 0 0-.578-.866.731.731 0 0 0-.868.579c-.062.315-.39.477-.41.488a.703.703 0 0 0-.311.283 8.131 8.131 0 0 0-.275-.058 2.14 2.14 0 0 0 .157-.671.737.737 0 0 0-.697-.774c-.435-.045-.753.293-.773.7-.015.23-.166.397-.261.478-1.95-.256-4.387-.286-5.543.887a1.106 1.106 0 0 0 .79 1.883c.287 0 .569-.108.786-.329.598-.608 3.57-.403 5.866.163a1.1 1.1 0 0 0 1.339-.81 1.09 1.09 0 0 0-.067-.668c.322-.235.716-.628.845-1.285z"/></svg>