<svg width="120" height="120" viewBox="0 0 120 120" xmlns="http://www.w3.org/2000/svg" xmlns:xlink="http://www.w3.org/1999/xlink"><defs><path id="a" d="M.295.117h65.958v10.318H.295z"/><path id="c" d="M.285.358h23.777v50.121H.285z"/></defs><g fill="none" fill-rule="evenodd"><path d="M64.535 87.84c-.558-8.2-1.133-16.677.165-24.997 1.025-6.573 3.748-15.799 10.891-22.427l1.09 1.177c-6.806 6.316-9.41 15.176-10.397 21.497-1.27 8.143-.7 16.53-.15 24.641l-1.6.109zm-5.586-11.563a414.626 414.626 0 0 1 .51-35.352c.312-5.44.88-11.6 3.691-15.843l1.337.887c-2.59 3.909-3.128 9.817-3.427 15.047-.67 11.67-.84 23.518-.508 35.216l-1.603.045z" fill="#456C0A"/><path d="M59.221 81.956l-1.59-.214c1.331-9.91-.429-20.278-4.955-29.193-.863-1.7-1.96-3.626-3.56-5.028-1.608-1.407-3.592-2.074-5.312-1.78l-.27-1.582c2.189-.373 4.671.431 6.638 2.154 1.805 1.582 3.002 3.673 3.934 5.51 4.672 9.201 6.489 19.903 5.115 30.133m10.729 6.142l-1.594-.175c1.407-12.864-.947-26.352-6.628-37.978l1.441-.705c5.812 11.895 8.221 25.695 6.781 38.858" fill="#456C0A"/><path d="M61.64 80.515c-1.196 0-2.053-1.034-2.351-2.838-1.384-8.376-2.814-17.036-3.468-25.665-.117-1.545-.214-3.129-.309-4.662-.526-8.563-1.07-17.418-5.3-24.744-.782-1.353-1.542-2.041-2.324-2.103l.128-1.601c1.794.143 2.905 1.724 3.584 2.9 4.419 7.654 4.975 16.7 5.513 25.45.094 1.527.191 3.105.307 4.64.649 8.557 2.073 17.181 3.45 25.522.144.867.468 1.496.77 1.496l.004 1.605h-.004z" fill="#456C0A"/><g transform="translate(30.631 108.207)"><mask id="b" fill="#fff"><use xlink:href="#a"/></mask><path d="M66.253 5.276c0 2.85-14.766 5.16-32.98 5.16-18.213 0-32.978-2.31-32.978-5.16C.295 2.427 15.06.117 33.274.117c18.213 0 32.979 2.31 32.979 5.16" fill="#D3DFED" mask="url(#b)"/></g><path fill="#7C5327" d="M90.304 69.722H37.506l4.542 43.761h43.714z"/><path fill="#936134" d="M92.174 75.816H35.636l-.506-6.095h57.55z"/><path d="M17.918 67.208c.07-4.021.645-8.033.448-12.05-.177-3.611-.976-7.165-1.265-10.77-.29-3.603-.026-7.393 1.76-10.535 2.843-5 9.587-7.315 14.931-5.201 5.345 2.113 8.682 8.331 7.59 13.979 0 0-5.408-1.077-11.612 12.43-6.205 13.507-10.749 9.974-9.325 23.772-2.108-3.423-2.597-7.605-2.527-11.625" fill="#456C0A"/><path d="M41.381 42.631c2.867-.184 5.875-1.54 8.483-.331 1.56.723 2.624 2.28 3.077 3.94.453 1.66.361 3.422.105 5.123-.221 1.463-.579 2.95-1.43 4.158-1.304 1.85-3.536 2.764-5.644 3.584l-10.108 3.931c-1.268.493-2.539.987-3.738 1.628-5.487 2.934-8.921 8.589-11.681 14.17-1.424-13.799 3.12-10.266 9.325-23.773 6.204-13.506 11.611-12.43 11.611-12.43" fill="#548611"/><path d="M49.336 74.392c-1.325-3.318-2.234-6.804-3.776-10.028-1.387-2.898-3.263-5.535-4.74-8.388-1.477-2.853-2.564-6.05-2.18-9.24.61-5.077 5.34-9.298 10.446-9.408 5.106-.11 9.98 3.835 11.025 8.84 0 0-4.8.981-5.24 14.187-.44 13.206-5.378 11.877.534 22.693-2.905-2.079-4.743-5.337-6.069-8.656" fill="#71B70B"/><path d="M60.111 46.168c2.287-1.139 4.285-3.287 6.837-3.195 1.527.055 2.934.964 3.876 2.168.942 1.204 1.474 2.68 1.849 4.163.321 1.274.54 2.615.257 3.9-.432 1.965-1.946 3.482-3.392 4.88l-6.931 6.705c-.87.841-1.74 1.684-2.503 2.623-3.487 4.295-4.357 10.112-4.7 15.636-5.91-10.816-.973-9.487-.533-22.693.44-13.206 5.24-14.187 5.24-14.187" fill="#93C91C"/><path d="M96.84 73.78c.777-4.375 1.005-8.847 2.07-13.16.957-3.878 2.577-7.56 3.655-11.407 1.078-3.846 1.595-8.011.325-11.798-2.021-6.025-8.842-9.967-15.085-8.811-6.243 1.155-11.18 7.187-11.192 13.543 0 0 6.09-.018 9.953 15.945 3.863 15.963 9.539 13.097 5.07 27.755 3.01-3.263 4.428-7.694 5.204-12.068" fill="#456C0A"/><path d="M76.613 42.147c-3.07-.809-6.044-2.918-9.127-2.161-1.844.452-3.328 1.913-4.171 3.617-.843 1.704-1.118 3.634-1.2 5.533-.071 1.633.002 3.32.668 4.812 1.022 2.283 3.247 3.747 5.36 5.084l10.125 6.41c1.27.804 2.543 1.61 3.707 2.56 5.327 4.347 7.851 11.208 9.66 17.844 4.47-14.657-1.206-11.792-5.069-27.754-3.863-15.963-9.953-15.945-9.953-15.945" fill="#548611"/><g transform="translate(23.816 1.043)"><mask id="d" fill="#fff"><use xlink:href="#c"/></mask><path d="M3.48 39.462c-.286-3.893-.082-7.823-.625-11.688-.487-3.476-1.571-6.841-2.167-10.3-.597-3.458-.674-7.146.778-10.34C3.775 2.048 10.092-.782 15.444.792c5.352 1.574 9.124 7.29 8.563 12.847 0 0-5.322-.565-10.136 13.038-4.813 13.603-9.515 10.587-6.93 23.801-2.337-3.124-3.177-7.124-3.462-11.017" fill="#548611" mask="url(#d)"/></g><path d="M47.822 14.683c2.756-.43 5.545-2.004 8.171-1.065 1.572.562 2.738 1.972 3.321 3.538.584 1.565.65 3.276.55 4.944-.084 1.434-.3 2.901-1.017 4.145-1.098 1.904-3.175 2.983-5.141 3.96l-9.428 4.69c-1.182.588-2.367 1.178-3.47 1.903-5.047 3.318-7.872 9.087-10.05 14.725-2.587-13.215 2.116-10.199 6.929-23.802C42.5 14.118 47.822 14.683 47.822 14.683" fill="#66990C"/><path d="M81.575 45.575c.261-3.564.074-7.163.571-10.702.447-3.182 1.44-6.263 1.985-9.43.546-3.166.617-6.543-.712-9.468-2.115-4.655-7.898-7.246-12.799-5.805-4.9 1.44-8.354 6.675-7.84 11.763 0 0 4.873-.518 9.28 11.937 4.407 12.455 8.713 9.693 6.345 21.792 2.14-2.86 2.909-6.522 3.17-10.087" fill="#71B70B"/><path d="M62.78 21.932c-2.523-.393-5.076-1.835-7.481-.975-1.439.514-2.506 1.806-3.04 3.24-.535 1.432-.595 3-.505 4.526.078 1.313.276 2.657.932 3.795 1.006 1.743 2.907 2.731 4.708 3.627l8.632 4.293c1.082.538 2.167 1.078 3.177 1.743 4.621 3.038 7.207 8.32 9.201 13.481 2.369-12.099-1.937-9.337-6.344-21.792-4.407-12.455-9.28-11.938-9.28-11.938" fill="#93C91C"/></g></svg>