<svg width="120" height="120" viewBox="0 0 120 120" xmlns="http://www.w3.org/2000/svg" xmlns:xlink="http://www.w3.org/1999/xlink"><defs><path id="a" d="M.69.32h5.12V3H.69z"/><path id="c" d="M0 .206h54.476v16H0z"/><path id="e" d="M.786.44h41.902v29.744H.786z"/></defs><g fill="none" fill-rule="evenodd"><path d="M71.828 7.687c2.292 3.096 2.998 5.952 2.998 5.952l.01.061c-1.289.155-2.055.609-2.055.609C67.102 2.806 54.815 2.338 54.145 2.318c10.258-1.222 15.98 3.627 17.675 5.361.008 0 .008 0 .008.008" fill="#A3818F"/><path d="M79.462 14.304c4.388 2.288 5.39 11.987 3.817 15.13-1.786 3.57-6.64 4.426-8.569 2.284-4.259-4.732-3.175-16.926-1.795-17.859 0 0 .78-.429 2.074-.54 1.15-.095 2.7.06 4.473.985" fill="#E16278"/><path d="M72.281 14.221s3.68-1.749 7.392 2.321c3.713 4.071 4.122 14.712-1.5 16.194-4 1.053-4.036-3.268-4.036-3.268s-4.499-12.033-1.856-15.247" fill="#C6546D"/><path d="M78.176 53.239a.429.429 0 0 1-.068-.852c.038-.005 3.835-.648 6.125-2.598 5.357-4.564 4.732-8.748 4.725-8.79a.427.427 0 0 1 .844-.146c.033.189.744 4.685-5.014 9.588-2.474 2.107-6.377 2.765-6.542 2.792a.414.414 0 0 1-.07.006" fill="#434040"/><path d="M87.305 37.567c-1.646 1.184-.711 4.435 2.114 3.939 2.826-.497.91-6.114-2.114-3.94" fill="#434040"/><path d="M74.345 75.444c-.194-5.756-5.585-10.237-12.043-10.02-6.458.22-11.533 5.056-11.339 10.812.195 5.755 5.586 10.244 12.044 10.026 6.457-.218 11.533-5.062 11.338-10.818m15.038-14.245c7.848 13.727 6.258 42.025-22.441 51.134-28.7 9.116-55.314-17.97-47.312-59.714 8.003-41.738 43.283-41.071 51.476-38.947 10.656 2.75 12.227 13.442 7.481 17.874-4.812 4.483-14.568 2.018-23.596 5.882-12.652 5.419-10.232 13.329-8.63 15.564 1.602 2.234 5.555-2.05 15.133-3.822 10.116-1.87 21.672 1.16 27.889 12.029" fill="#34BFAB"/><path d="M50.336.44C62.257-1.496 68.603 3.33 71.82 7.68c-1.696-1.734-7.417-6.583-17.674-5.361h-.025a28.81 28.81 0 0 0-2.277.36C37.142 5.578 33.35 22.22 32.896 24.526a2.153 2.153 0 0 0-.359-.21 4.887 4.887 0 0 0-1.236-.311 8.251 8.251 0 0 0-1.254-.051l-.004-.12S29.988 3.745 50.336.44" fill="#C9ADB6"/><path d="M39.4 24.24s.054.13.16.362c.105.23.28.547.513.897.119.173.257.35.419.513.165.157.344.315.546.422.196.125.423.177.652.207.116.01.236-.01.356-.01.12-.025.24-.062.365-.082.045-.018.266-.103.358-.155.07-.073.158-.088.234-.187.167-.154.287-.362.377-.583.184-.444.253-.942.264-1.366a8.671 8.671 0 0 0-.027-1.046 78.31 78.31 0 0 1-.04-.394v-.007a.227.227 0 0 1 .438-.105s.23.59.305 1.54c.02.473.028 1.05-.192 1.665a2.442 2.442 0 0 1-.54.878c-.105.14-.303.25-.462.366a4.186 4.186 0 0 1-.464.209 6.06 6.06 0 0 1-.516.108c-.181.002-.36.019-.537-.002-.354-.05-.703-.158-.98-.342-.294-.165-.513-.395-.697-.615a4.28 4.28 0 0 1-.443-.66c-.45-.855-.525-1.493-.525-1.493v-.007a.228.228 0 0 1 .437-.112m21.472-5.497s.053.13.16.36c.104.23.28.548.512.898.12.172.257.35.42.513.165.156.343.315.546.42.196.126.423.179.651.208.116.01.237-.01.357-.008.121-.027.24-.064.364-.083.045-.018.267-.104.36-.154.07-.075.156-.09.233-.188.167-.154.287-.362.376-.583.185-.444.255-.942.265-1.366a8.706 8.706 0 0 0-.026-1.046l-.04-.395v-.006a.227.227 0 0 1 .438-.105s.23.59.304 1.54c.021.474.028 1.05-.192 1.665a2.442 2.442 0 0 1-.539.878c-.106.14-.304.25-.463.366a4.21 4.21 0 0 1-.465.209c-.17.043-.343.078-.516.108-.18 0-.359.018-.537-.002-.354-.05-.703-.16-.98-.343-.294-.164-.512-.394-.697-.615a4.264 4.264 0 0 1-.442-.66c-.45-.854-.526-1.492-.525-1.492v-.007a.228.228 0 0 1 .436-.112" fill="#434040"/><path d="M46.189 32.926a4.292 4.292 0 1 1-8.579.29 4.292 4.292 0 0 1 8.579-.29m26.466-7.384a4.291 4.291 0 1 1-8.578.291 4.291 4.291 0 0 1 8.578-.29" fill="#F48EB8"/><path d="M59.303 27.233l.054.049c-1.034 1.15-2.544 2.1-4.555 2.52-2.085.44-3.912.194-5.348-.426.679-.726 5.059-5.093 9.849-2.143" fill="#E88587"/><path d="M59.52 20.743c1.999 1.039 1.943 4.196-.163 6.539l-.054-.05c-4.79-2.95-9.17 1.418-9.848 2.144-2.801-1.175-4.156-3.728-3.18-5.261.904-1.428 4.015-.487 6.95-1.384 3.276-1.003 4.776-2.785 6.295-1.988M33.373 70.996c-2.649 0-5.699-.83-7.054-4.241-2.764-6.967 4.406-12.885 4.48-12.945a.429.429 0 0 1 .54.666c-.07.055-6.754 5.583-4.223 11.962 2.325 5.858 10.556 3.033 10.638 3.002a.428.428 0 1 1 .285.809c-.044.015-2.178.747-4.666.747" fill="#434040"/><path d="M40.961 67.354c-1.386-1.479-4.489-.133-3.633 2.604.856 2.739 6.18.115 3.633-2.604m-12.535 46.487c-1.35 0-2.744-.36-4.169-1.083a.428.428 0 0 1 .388-.765c2.072 1.05 4.057 1.266 5.901.64 3.5-1.188 5.367-5.007 5.386-5.045a.427.427 0 1 1 .772.371c-.08.17-2.047 4.184-5.882 5.486-.78.263-1.58.396-2.396.396m45.909 5.354h-.004a.429.429 0 0 1-.425-.433c.021-2.2-1.723-8.598-1.74-8.663a.429.429 0 1 1 .825-.225c.073.266 1.794 6.577 1.773 8.896a.43.43 0 0 1-.429.425" fill="#434040"/><path d="M23.03 110.496c-.562.019-1.05.229-1.408.604-.258.269-.32.612-.174.939.328.733 1.762 1.265 2.774 1.23.483-.017.855-.152 1.106-.401.286-.284.354-.67.188-1.054-.317-.736-1.48-1.352-2.485-1.318" fill="#434040"/><g transform="translate(73 117)"><mask id="b" fill="#fff"><use xlink:href="#a"/></mask><path d="M5.78 1.48C5.566.705 4.745.28 3.526.323 2.535.355 1.301.715.863 1.339a.837.837 0 0 0-.133.752c.28.882 1.805.927 2.447.906.926-.033 2.061-.262 2.468-.816a.795.795 0 0 0 .136-.7" fill="#434040" mask="url(#b)"/></g><path d="M32.261 45.232l.055.074c.033.032.065.057.157.12.171.113.474.243.87.39.801.283 1.997.592 3.443.935.723.173 1.509.365 2.353.496.422.066.854.142 1.305.163.45.018.913.004 1.38.01.932.008 1.872.245 2.845.317.972.087 1.961.11 2.948.164.986.05 1.994.098 2.925-.213.92-.268 1.871-.343 2.614-.76.363-.2.661-.464.769-.794.139-.322-.006-.576-.303-.81-.613-.451-1.463-.493-2.152-.647-1.42-.31-2.657-.445-3.516-.56l-1.355-.168a.185.185 0 0 1 .001-.368s.505-.06 1.389-.076c.882-.005 2.146.014 3.665.294a6.733 6.733 0 0 1 2.34 1.042c.193.15.39.343.508.618.12.276.126.603.035.867-.153.547-.574.955-1.005 1.23-.89.52-1.875.849-2.89.858-1.018-.05-2.008.096-3.02.16-1.008.066-2.016.015-3.007-.027-.987-.058-1.973-.004-2.899-.218-.463-.105-.913-.236-1.354-.346-.443-.106-.881-.163-1.305-.24l-2.399-.404c-1.48-.29-2.691-.666-3.511-1.04-.412-.181-.723-.37-.924-.543a1.266 1.266 0 0 1-.228-.248l-.045-.08a.186.186 0 0 1 .072-.25.187.187 0 0 1 .239.054" fill="#EACCCC"/><g transform="translate(15 45)"><mask id="d" fill="#fff"><use xlink:href="#c"/></mask><path d="M5.516 3.198s-.296.028-.848.146c-.546.125-1.362.32-2.283.784-.45.239-.93.555-1.301 1.015a2.47 2.47 0 0 0-.43.79c-.05.174-.083.26-.053.38.02.122.086.263.17.4.78 1.108 2.256 2.048 3.81 2.94a36.374 36.374 0 0 0 5.352 2.45c.98.369 2.006.699 3.07.98 1.067.272 2.17.485 3.284.725 2.232.449 4.522 1.017 6.903 1.289 2.377.294 4.808.404 7.24.412 2.433-.004 4.884-.202 7.194-.845 2.325-.538 4.607-1.105 6.725-1.94 2.114-.826 4.117-1.796 5.762-3.037 1.64-1.254 2.8-2.901 3.289-4.524.238-.813.279-1.64.07-2.354-.195-.715-.652-1.29-1.212-1.59-.561-.302-1.201-.344-1.767-.21-.572.127-1.07.4-1.481.693-.831.593-1.367 1.239-1.712 1.68-.342.447-.504.704-.504.704a.182.182 0 0 1-.253.057.182.182 0 0 1-.064-.24l.005-.008a9.83 9.83 0 0 1 .465-.765c.328-.481.82-1.205 1.698-1.915.442-.346.99-.69 1.676-.878.674-.192 1.525-.206 2.299.189.769.386 1.388 1.147 1.656 2.04.279.893.26 1.899-.018 2.845-.546 1.936-2.086 3.48-3.775 4.763-1.712 1.31-3.741 2.299-5.866 3.215-2.142.882-4.435 1.654-6.843 2.04-2.422.282-4.86.595-7.325.722-2.464.138-4.937.004-7.351-.252-2.41-.276-4.797-.556-7.03-1.186-1.118-.3-2.194-.68-3.241-1.05a182.672 182.672 0 0 1-3.07-1.085c-1.976-.751-3.826-1.523-5.463-2.401-.82-.435-1.58-.906-2.274-1.406C1.33 8.264.69 7.74.25 7.025a1.788 1.788 0 0 1-.235-.615C.004 6.352.002 6.29 0 6.229c0-.065.01-.157.019-.187.024-.124.056-.197.085-.295a3.02 3.02 0 0 1 .55-.957c.458-.538 1.004-.872 1.5-1.122 1.007-.488 1.864-.637 2.438-.734.578-.09.895-.102.895-.102h.005a.185.185 0 0 1 .19.177.184.184 0 0 1-.166.189" fill="#EACCCC" mask="url(#d)"/></g><g transform="translate(62 55)"><mask id="f" fill="#fff"><use xlink:href="#e"/></mask><path d="M1.638 10.626s-.077.366-.17 1.068a19.876 19.876 0 0 0-.171 3.044c.028.65.087 1.377.318 2.104.217.718.662 1.465 1.442 1.707.775.255 1.732.02 2.653-.357.907-.398 1.829-.993 2.754-1.638 1.848-1.316 3.778-2.865 5.793-4.534a235.728 235.728 0 0 0 3.094-2.584c1.046-.897 2.1-1.834 3.224-2.727a38.87 38.87 0 0 1 7.526-4.707C29.48 1.36 30.938.806 32.493.562a8.96 8.96 0 0 1 2.372-.074c.79.094 1.586.343 2.281.693 1.403.651 2.73 1.555 3.755 2.745 1.009 1.19 1.713 2.698 1.782 4.3.069 1.601-.531 3.158-1.43 4.398a9.234 9.234 0 0 1-3.459 2.87c-.664.322-1.382.556-2.059.73-.704.173-1.401.323-2.148.318-.369-.01-.766-.04-1.159-.298a.938.938 0 0 1-.398-.624c-.041-.258.03-.478.113-.666.37-.735 1.002-1.128 1.631-1.43.645-.289 1.312-.452 2.038-.415.883.176 1.3.773 1.69 1.296.737 1.104 1.082 2.328 1.236 3.508.287 2.376-.269 4.584-1.152 6.284-.894 1.712-2.093 2.922-3.139 3.782a15.736 15.736 0 0 1-2.638 1.705c-.643.332-.995.483-.995.482l-.006.003a.183.183 0 0 1-.155-.333s.338-.17.945-.53a16.323 16.323 0 0 0 2.454-1.792c.975-.86 2.047-2.057 2.834-3.669a10.252 10.252 0 0 0 .966-5.823c-.138-1.076-.421-2.209-.995-3.203-.275-.472-.711-.966-1.109-1.05-.544-.047-1.175.075-1.724.308-.536.25-1.084.648-1.31 1.134-.11.256-.084.402.079.514.179.121.493.175.804.172.631 0 1.308-.14 1.956-.323.677-.19 1.307-.413 1.921-.726 2.446-1.217 4.351-3.786 4.446-6.619a5.49 5.49 0 0 0-1.418-3.96c-.957-1.123-2.259-1.907-3.626-2.494-1.335-.627-2.816-.699-4.26-.459-1.446.243-2.839.783-4.166 1.417-2.66 1.298-4.996 3.091-7.328 4.705-1.16.82-2.31 1.623-3.404 2.453-1.093.83-2.13 1.684-3.141 2.517-2.025 1.657-3.904 3.277-5.774 4.62-.94.67-1.856 1.285-2.853 1.738-.974.42-2.068.69-3.086.35a2.51 2.51 0 0 1-1.2-.898c-.289-.387-.451-.81-.575-1.214-.242-.813-.286-1.574-.302-2.253-.019-1.36.155-2.409.273-3.119.124-.709.22-1.086.22-1.086a.183.183 0 0 1 .22-.137c.096.022.157.12.138.217" fill="#EACCCC" mask="url(#f)"/></g><path d="M29.928 42.06s.815 2.974 1.253 3.244c.438.272 1.563-.266 1.625-.555.061-.288-.397-3.273-.397-3.273s-1.838.563-2.481.584" fill="#C9ADB6"/><path d="M34.511 23.131c.635 1.645-.378 8.132 1.614 16.507.227.953-1.201 2.097-2.826 2.687l-.055-.22c-2.312-12.05-1.054-18.493-.295-19.646.487.096.895.248 1.216.417.118.068.237.157.346.255" fill="#C6546D"/><path d="M33.244 42.105l.055.22c-1.046.384-2.42.514-4.11.19-4.3-.83-5.517-10.23-3.862-15.515 1.156-3.682 4.07-4.718 6.374-4.674.445.01.873.058 1.248.133-.224.784-2.018 7.596.295 19.646" fill="#E16278"/></g></svg>