<svg width="120" height="120" viewBox="0 0 120 120" xmlns="http://www.w3.org/2000/svg" xmlns:xlink="http://www.w3.org/1999/xlink"><defs><path id="a" d="M0 .138h11.81v26.711H0z"/><path id="c" d="M.2.33h11.805v11.19H.2z"/><path id="e" d="M.055.122h68.932v111.484H.055z"/></defs><g fill="none" fill-rule="evenodd"><path d="M55.143 18.137c-.442.518-.899 1.02-1.31 1.564-.173.232-.34.47-.499.711a1.384 1.384 0 0 0-.375-.166l-.367-.05c-.248.001-.48.064-.696.188-.105.05-.212.097-.316.151a1.74 1.74 0 0 0-.455.388 3.84 3.84 0 0 0-.562.877c-.218.473-.382.967-.56 1.456-.09.16-.174.322-.25.492-.194.44-.362.888-.53 1.337-.095.257-.18.519-.27.778a85.71 85.71 0 0 0-.55 1.645l-.072.224-.013.034c-.76 2.086-1.52 4.171-2.282 6.256l-.93 2.538-.37.782-.884 1.867c-.445.942-.9 1.88-1.293 2.846a36.582 36.582 0 0 0-.326.824 1.152 1.152 0 0 0 .533 1.307c.268.156.594.199.893.116.3-.082.525-.275.692-.53.235-.361.501-.713.698-1.095l.327-.636.071-.138h.006l-.472 1.172c-.085.212.019.493.172.647.2.2.562.27.808.104a4.9 4.9 0 0 0 .34-.257l.107-.14c.062-.082.12-.165.176-.25.173-.257.311-.535.445-.812.273-.565.493-1.155.762-1.721l.572-1.216.936-1.985c.123-.261.252-.52.367-.785l1.534-3.52c.334-.763.646-1.534.958-2.307a408.969 408.969 0 0 0 3.197-8.134c.142-.373.286-.746.427-1.12.174-.467.338-.94.524-1.402.076-.153.155-.303.228-.457.1-.207.162-.399.188-.627.022-.19.009-.445-.108-.605a5.034 5.034 0 0 0-.174-.229c-.095-.094-.227-.17-.338-.246a.693.693 0 0 0-.392-.111c-.216 0-.437.082-.567.235" fill="#FFE11A"/><path d="M90.78 42.799c-.364-1.317-1.46-2.475-2.808-2.802-.745-.181-1.516-.228-2.255.02-.469.158-.935.348-1.352.616a7.693 7.693 0 0 0-.833.621 6.294 6.294 0 0 0-.364.257l-1.68 1.287c-.176.135-.354.269-.532.403-.25.067-.497.142-.742.214l-.287.085a2.645 2.645 0 0 0-.574-.045c-.536.05-1.068.119-1.591.234-.172.038-.34.087-.51.13l-.124.031c-.43-.27-.924-.444-1.403-.608-.576-.196-1.203-.24-1.805-.282a8.796 8.796 0 0 0-1.196.02c-.662.041-1.322.155-1.977.26-.37.06-.736.13-1.102.213a51.182 51.182 0 0 0-1.341-.81 19.627 19.627 0 0 0-2.491-1.197 3.665 3.665 0 0 0-3.116.555l-.021-.009 1.035-1.422c.246-.338.52-.668.74-1.023l.86-1.387c.18-.293.361-.585.543-.877.355-.128.679-.283.922-.46 1.003-.73 1.567-1.104 2.208-2.196.256-.438.515-1.014.634-1.557.156-.726.252-1.516.18-2.28.592-1.17 1.313-2.27 2.056-3.35a3.683 3.683 0 0 0 2.06-1.042c1.112-1.122 1.99-2.49 2.917-3.77.16-.22.318-.44.476-.663a148.542 148.542 0 0 1 2.978-3.68 479.993 479.993 0 0 1 4.818-5.64c.36-.415.72-.83 1.082-1.245l.345-.4c.157-.182.32-.36.475-.548.293-.355.708-.816.911-1.272.35-.602.526-1.25.528-1.947a3.827 3.827 0 0 0-.528-1.947 3.882 3.882 0 0 0-1.386-1.384 4.146 4.146 0 0 0-2.014-.55c-.336 0-.665.05-.964.161-.54.2-1.04.419-1.526.71-.15.088-.295.185-.44.28-.157.103-.312.203-.472.298-.332.093-.671.16-1.012.228-.562.111-1.119.238-1.676.372-1.024.247-2.044.512-3.067.765-.936-.5-2.046-.664-3.111-.338l-.165.032c-.881.086-1.77.131-2.65.193-1.206.085-2.411.18-3.617.28-1.06.088-2.117.225-3.174.341-.252.028-.504.058-.757.089a3.411 3.411 0 0 0-.701-.417c-.592-.257-1-.454-1.568-.594-.122-.031-.248-.048-.372-.072-1.245-.239-2.52-.346-3.783-.455-.798-.069-1.598-.116-2.397-.165-.114-.008-.228-.02-.342-.032a4.577 4.577 0 0 0-1.475.169c-.98.144-1.777.76-2.501 1.385a4.913 4.913 0 0 0-1.269 2.17 9.423 9.423 0 0 0-.181 1.407c-.027.454.096.97.204 1.454-.042.06-.084.12-.128.186-.218.332-.33.718-.481 1.082-.208.496-.208 1.22-.162 1.779.015.173.03.344.05.516.04.347.089.68.138 1.035.05.374.207.708.364 1.047-.131.33-.216.668-.269 1.03a2.86 2.86 0 0 1-.032.181l-.084.255c-.302.925-.659 1.832-1.008 2.742-.406.929-.811 1.86-1.222 2.788l-.607 1.435a6.032 6.032 0 0 0 0 3.195c.098.353.231.695.392 1.022a110.49 110.49 0 0 1-.448 1.782l-.173.662c-.339.567-.675 1.133-1.014 1.699a6.308 6.308 0 0 0-.883 3.314c-.3.186-.58.41-.844.678-.43.435-.774.97-1.037 1.518-.121.252-.255.499-.382.748-.222.434-.456.866-.665 1.309-.454.97-.912 1.937-1.357 2.91-.673 1.473-1.338 2.951-2.038 4.411-.278.538-.54 1.084-.803 1.625l-.263.623c-.17.311-.342.621-.524.925-.284.475-.604.922-.91 1.38-.652.975-1.331 1.927-1.8 3.005-.185.425-.382.818-.496 1.258-.157.605-.228 1.622-.007 2.226l.055.152c.184.657.518 1.227.999 1.71.27.335.63.582 1.002.796.762.437 1.749.672 2.626.562.515-.064.934-.102 1.407-.23.502-.136 1.023-.384 1.484-.587 1.253-.553 2.415-1.285 3.501-2.115.09-.07.183-.139.277-.209.726.086 1.449.017 2.18-.12.22-.04.431-.1.638-.17.083.247.192.486.327.72a3.87 3.87 0 0 0 3.347 1.915c1.66.194 3.34.052 5.008.052.704 0 1.407.005 2.11.017.464.166.946.273 1.47.25a4.99 4.99 0 0 0 1.105-.178c.452.017.903.038 1.355.058a95.89 95.89 0 0 1-.756 1.322c-.182.314-.375.624-.565.935-.256.355-.497.719-.714 1.104a3.866 3.866 0 0 0-.532 1.965c0 .68.193 1.445.57 2.065-.293.29-.585.581-.874.875-1.298 1.32-2.735 2.592-3.699 4.182a2.505 2.505 0 0 0-.017 2.506l-.21.224c-.19.204-.382.407-.57.615-.392.438-.932 1.04-1.032 1.675-.206.194-.415.385-.62.578-.425.4-.843.803-1.26 1.21-.817.803-1.627 1.601-2.39 2.456-1.55 1.734-3.015 3.54-4.557 5.28-.495.56-.977 1.124-1.434 1.716-.39.506-.721 1.056-1.07 1.59-.71 1.084-1.395 2.184-2.186 3.211l-.064.082c-.164.21-.206.487 0 .693a.494.494 0 0 0 .694 0c.84-.874 1.732-1.692 2.612-2.524.823-.777 1.556-1.64 2.323-2.47 1.583-1.71 3.073-3.504 4.653-5.216a45.7 45.7 0 0 1 1.403-1.451c.477-.473 1.011-.887 1.52-1.324.481-.413.933-.856 1.395-1.29.37-.346.741-.69 1.107-1.04.116-.066.225-.148.323-.245a.052.052 0 0 1 .004.011c.298-.259.537-.601.81-.887a275.77 275.77 0 0 1 1.442-1.495c.068-.07.137-.14.204-.211.25-.066.49-.16.661-.275.416-.276.736-.585 1.082-.93.382-.378.78-.738 1.15-1.13.425-.45.854-.896 1.261-1.362.414-.476.817-.955 1.215-1.444.098-.121.195-.245.29-.369.401-.393.803-.785 1.208-1.173l.225-.213a4.265 4.265 0 0 0 1.944-1.728c.087-.119.17-.24.252-.364.175-.167.35-.334.527-.5.063-.055.125-.111.186-.167a56.87 56.87 0 0 0 1.244-1.187 858 858 0 0 1 1.36-1.283c1.446-1.36 2.903-2.71 4.328-4.09l2.568-2.485c.393-.381.771-.777 1.157-1.165l.585-.59c.543-.546 1.002-1.17 1.468-1.78.24-.409.358-.85.36-1.325v-.043c1.641-1.503 3.334-2.947 5.041-4.376a3.995 3.995 0 0 0 1.28-.477c.477-.28.994-.739 1.314-1.23.207-.23.42-.455.626-.683.09-.099.18-.196.27-.292.665-.437 1.316-.87 1.936-1.38a4.016 4.016 0 0 0 1.033-1.771 4.043 4.043 0 0 0 0-2.133" fill="#FFE11A"/><path d="M61.744 71.184c-1.91 1.616-3.683 3.376-5.45 5.143-1.739 1.74-3.432 3.523-5.124 5.31-.788.832-1.544 1.695-2.309 2.55-.738.824-1.464 1.657-2.187 2.495-1.718 1.991-3.464 3.959-5.209 5.929-.795.897-1.644 1.747-2.475 2.612l-1.984 2.065c-.655.682-1.332 1.336-2.011 1.994-.442.428-.43 1.165 0 1.593.44.44 1.154.427 1.597 0 .599-.577 1.203-1.148 1.782-1.746l1.544-1.598 2.773-2.87c.26-.27.503-.558.754-.837l1.715-1.908c.668-.741 1.335-1.48 1.998-2.226.842-.947 1.668-1.913 2.528-2.846l2.713-2.936c.317-.343.652-.67.978-1.004l1.69-1.733c.824-.847 1.667-1.675 2.503-2.512.948-.95 1.898-1.897 2.832-2.86.98-1.01 1.914-2.06 2.842-3.117.19-.218.311-.454.311-.75 0-.279-.113-.55-.31-.748a1.069 1.069 0 0 0-.751-.31c-.3 0-.529.123-.75.31" fill="#FFE11A"/><path d="M77.253 56.697c-.8.956-1.67 1.853-2.531 2.754a61.712 61.712 0 0 1-2.432 2.405c-1.77 1.658-3.55 3.31-5.282 5.01-3.654 3.584-7.302 7.176-10.97 10.746a2353.289 2353.289 0 0 1-11.09 10.708c-.65.623-.628 1.706 0 2.332.645.645 1.688.623 2.337 0a3766.03 3766.03 0 0 0 12.048-11.6c3.455-3.344 6.87-6.728 10.339-10.056.898-.861 1.797-1.722 2.694-2.584.793-.762 1.61-1.504 2.382-2.287.476-.481.951-.964 1.426-1.447.386-.391.742-.811 1.108-1.22a43.637 43.637 0 0 0 2.406-2.886 1.545 1.545 0 0 0-1.34-2.327c-.378 0-.844.152-1.095.452" fill="#FFE11A"/><path d="M76.885 23.874l-.085.11.085-.11zM88.242 7.281c-.473.276-.83.835-.801 1.396.01.2.025.4.042.6a1.118 1.118 0 0 0-.578.952l-.042 1.162a2.847 2.847 0 0 0-.77.508c-.254.232-.46.508-.668.782-.402.508-.817 1.005-1.209 1.522-.373.491-.734.991-1.104 1.484l-.898 1.194c-.571.759-1.138 1.52-1.714 2.274-1.28 1.676-2.565 3.349-3.85 5.022a86.796 86.796 0 0 0-2.013 2.661 95.234 95.234 0 0 0-.979.986l-.151.145c-.766.73-1.583 1.44-2.26 2.253l-.364.47a2.3 2.3 0 0 0-.312 1.025l-.621.712c-.178.204-.35.412-.525.618-.1.116-.196.234-.294.352-.19.229-.383.475-.543.73-.127.201-.243.549-.321.805a2.133 2.133 0 0 0-.008 1.18l-.536.763c-.448.643-.977 1.31-1.117 2.095l-.046.343c-.37.686-.37 1.523.028 2.201.198.335.466.602.801.801.179.074.357.15.535.225a2.27 2.27 0 0 0 1.189 0c.837-.16 1.427-.789 2.01-1.359.257-.25.509-.503.758-.76.21-.216.41-.44.612-.662.123-.135.237-.28.356-.42.312-.37.61-.75.84-1.175.008-.012.014-.025.02-.037l.171-.179c.335-.349.666-.7.995-1.052.148-.16.294-.32.438-.482.08-.088.16-.177.238-.266a12.4 12.4 0 0 0 .453-.576c.168-.229.261-.484.362-.75.098-.365.098-.73 0-1.095a2.075 2.075 0 0 0-.705-1.063l.216-.03c.367-.101.684-.286.953-.554.263-.208.527-.413.783-.631.305-.262.585-.563.867-.849.478-.486.942-.984 1.421-1.468l1.287-1.3c.448-.452.898-.903 1.348-1.354.049-.04.096-.084.142-.13.29-.222.58-.448.855-.69.304-.267.595-.55.885-.832.295-.286.588-.574.878-.865.476-.479.965-.947 1.43-1.437.411-.434.835-.86 1.239-1.303l.759-.835a15.6 15.6 0 0 0 .414-.479c.184-.22.361-.451.512-.695.151-.246.244-.574.325-.856a1.99 1.99 0 0 0-.133-1.383c.379-.172.682-.506.81-.93.028-.095.05-.192.066-.29.331-.155.618-.406.794-.727.118-.214.275-.496.327-.717.084-.356.122-.72.163-1.083.035-.311.04-.622.04-.934 0-.263-.006-.522-.03-.784-.025-.259-.065-.516-.105-.773-.046-.297-.214-.586-.366-.844a1.87 1.87 0 0 0-.789-.73l-.02-.137-.002-.015c-.012-.232-.034-.553-.092-.762-.105-.385-.388-.792-.76-.968a1.616 1.616 0 0 0-1.635 0zm5.572 40.351l.022.029-.022-.029m-2.996-3.675c-.689.189-1.201.842-1.192 1.56.006.388.027.777.046 1.165a1.73 1.73 0 0 0-.23-.016c-.385-.003-.81.08-1.144.289-.293.184-.553.414-.822.63l.106-.083c-1.309 1.024-2.499 2.16-3.678 3.33-.428.425-.843.864-1.264 1.298-.599.617-1.226 1.22-1.757 1.896-.221.222-.38.48-.475.777-.711.73-1.421 1.462-2.131 2.195l-.682.705a6.72 6.72 0 0 0-.288.247c-.164.15-.3.311-.419.484l-.352.365c-.224.231-.46.45-.684.683-.393.405-.704.878-1.012 1.348a1.823 1.823 0 0 0-.278.81l-.974.769a243.527 243.527 0 0 0-4.024 3.275c-.663.548-1.324 1.098-1.985 1.648-.294.245-.586.491-.878.737l-.48.404c-.187.161-.378.32-.56.487-.337.307-.587.705-.853 1.073a2.94 2.94 0 0 0-.383 1.127 9.028 9.028 0 0 0-.748.825c-.056.056-.11.114-.16.173-.5.433-.995.873-1.49 1.312-.89.792-1.798 1.564-2.691 2.352-.9.794-1.782 1.609-2.69 2.395-.923.8-1.865 1.576-2.797 2.367-1.729 1.47-3.395 3.041-4.838 4.796-1.491 1.811-2.937 3.656-4.522 5.388-.77.84-1.488 1.726-2.243 2.58-.802.904-1.635 1.78-2.465 2.66a95.314 95.314 0 0 1-1.65 1.707c-.29.292-.58.585-.867.882-.282.294-.523.613-.77.937-.31.407-.508.882-.642 1.376a2.584 2.584 0 0 0 1.18 2.89c.4.232.83.349 1.294.35.708 0 1.296-.287 1.813-.75.264-.237.551-.445.796-.704.21-.223.415-.448.624-.671.388-.413.784-.817 1.177-1.224.808-.834 1.61-1.673 2.417-2.509.805-.834 1.578-1.694 2.36-2.55.765-.84 1.602-1.608 2.421-2.395 1.697-1.627 3.274-3.372 4.951-5.016 1.652-1.619 3.479-3.053 5.244-4.542.935-.788 1.833-1.617 2.735-2.443.866-.792 1.747-1.569 2.613-2.36.867-.794 1.707-1.614 2.564-2.416.124-.117.25-.232.374-.347.697-.512 1.325-1.136 1.96-1.71.427-.386.85-.773 1.269-1.168a53.796 53.796 0 0 0 2.839-2.76 3.14 3.14 0 0 0 .79-1.41c.408-.364.668-.92.77-1.472 1.123-.96 2.249-1.917 3.388-2.859.376-.186.697-.463 1.02-.728.274-.225.52-.482.774-.731.933-.752 1.866-1.502 2.801-2.252.07.006.14.008.211.008l.738-.098c.47-.132.877-.37 1.223-.712.609-.485 1.162-1.031 1.717-1.576a50.039 50.039 0 0 0 1.037-1.04c.3-.306.573-.627.833-.962l.05-.047c.517-.487 1.04-.971 1.56-1.457.556-.52 1.12-1.032 1.636-1.592.212-.231.415-.498.594-.745.196-.27.408-.591.468-.918a8.48 8.48 0 0 0 .105-.746 2.411 2.411 0 0 0-.44-1.393 2.3 2.3 0 0 0 .156-.213c.22-.342.31-.662.337-1.067.016-.256-.042-.505-.076-.758a4.909 4.909 0 0 0-.16-.715c-.21-.728-.451-1.55-1.123-1.967a2.997 2.997 0 0 0-.243-.435c-.331-.486-.836-.802-1.405-.802-.139 0-.281.02-.426.059M54.998 59.93c-.452.147-.89.36-1.323.56-.631.293-1.258.595-1.886.891a95.15 95.15 0 0 1-2.187 1 2.862 2.862 0 0 0-.167-.047 1.899 1.899 0 0 0-.488-.747c-.224-.204-.452-.406-.717-.559-.412-.237-.902-.32-1.372-.314-.595.006-1.148.187-1.698.38-.37.13-.741.258-1.11.39-.765.276-1.529.55-2.29.838-.484.184-.97.368-1.452.557a25.63 25.63 0 0 0-1.75.742c-.218.105-.437.209-.653.318-.347.177-.653.425-.948.675a2.186 2.186 0 0 0-.267.274h-.024c-.405 0-.823.182-1.122.473a1.491 1.491 0 0 0-.346.255l-.23.298c-.132.228-.2.475-.2.74-.063.475.124.918.301 1.348.088.214.177.429.267.642.177.42.354.839.526 1.26h.003c.047.12.096.238.147.355.145.332.553.59.888.682a1.491 1.491 0 0 0 1.808-.972c.266.05.54.037.817-.063.426-.153.774-.374 1.008-.774.02-.034.04-.07.058-.108.138.025.277.034.412.025.953-.064 1.904-.227 2.848-.367.766-.113 1.531-.223 2.297-.343l.03-.005c.375.096.775.096 1.163-.028.175-.056.35-.115.524-.175.098-.021.196-.04.295-.056.408-.046.817-.087 1.224-.138l.879-.11c.343-.042.687-.092 1.03-.139.432-.06.845-.237 1.218-.458.548-.326.943-.84 1.13-1.422l.825-.353.307-.128c.395.173.674.303 1.14.303.278 0 .594-.058.877-.166a1.98 1.98 0 0 0 1.272-1.241c.19-.176.358-.373.494-.623.225-.387.338-.805.34-1.253a4.276 4.276 0 0 0-.106-.734c-.144-.64-.666-1.273-1.26-1.542l-.6-.253a3.987 3.987 0 0 0-.852-.094c-.36 0-.737.096-1.08.206" fill="#FFD34E"/><path d="M58.435 62.599c-1.23.5-2.466.98-3.718 1.421-1.18.417-2.366.809-3.556 1.199a94.046 94.046 0 0 1-3.497 1.046c-1.043.295-2.106.506-3.173.696a2.296 2.296 0 0 0-.231-.552 2.42 2.42 0 0 0-1.437-1.103c-.649-.177-1.268-.06-1.854.242-.478.248-.948.514-1.407.797l-.85.524c-.318.197-.638.382-.938.608-.262.2-.492.369-.719.592-.114.113-.219.234-.33.348-.597.62-.848 1.494-.617 2.33a2.4 2.4 0 0 0 .617 1.057c.476.474 1.043.651 1.696.7.261.02.466.012.698-.015.126.058.257.107.392.148 1 .305 2.103.051 3.103-.105a16.359 16.359 0 0 0 1.56-.339 61.982 61.982 0 0 0 3.549-1.026c1.09-.355 2.156-.77 3.22-1.193 1.197-.478 2.396-.95 3.595-1.423a242.489 242.489 0 0 0 4.98-2.032l.487-.205c.306-.18.55-.424.731-.729.275-.47.35-1.042.205-1.566a2.046 2.046 0 0 0-.936-1.215 2.235 2.235 0 0 0-1.071-.294 1.33 1.33 0 0 0-.5.089" fill="#FFD34E"/><path d="M71.674 22.651a93.694 93.694 0 0 0 2.074-3.499 73.94 73.94 0 0 0 1.757-3.27c.536-1.075 1.08-2.144 1.59-3.232.457-.977.926-1.95 1.39-2.924 0-.002-.001-.005-.003-.005l-.002.001a48.808 48.808 0 0 0-4.208 6.05 40.08 40.08 0 0 0-1.756 3.327 87.856 87.856 0 0 0-1.59 3.649 43.929 43.929 0 0 0-1.087 2.85c0 .004.004.005.006.003.585-.998 1.221-1.966 1.829-2.95M38.372 52.383c-.637 1.756-1.17 3.548-1.707 5.336l-.086.285c0 .003.004.005.005.003a67.792 67.792 0 0 0 2.352-5.312c.302-.77.566-1.552.82-2.339a71.244 71.244 0 0 0 1.113-3.833l.039-.15c0-.002-.001-.003-.003-.003h-.002c-.921 1.97-1.79 3.97-2.531 6.013m23.104 20.213a82.588 82.588 0 0 0 2.28-2.5c.003-.002.001-.005-.001-.005l-.003.001c-.592.526-1.2 1.033-1.802 1.549a227.05 227.05 0 0 0-1.852 1.604 101.78 101.78 0 0 0-3.503 3.185 140.947 140.947 0 0 0-6.153 6.313c-.003.003.001.006.004.005a126.922 126.922 0 0 0 5.43-4.593c.434-.389.868-.779 1.29-1.178a84.09 84.09 0 0 0 2.02-1.995c.774-.786 1.535-1.583 2.29-2.386m26.848-7.982c.533-.56 1.065-1.123 1.59-1.692a60.118 60.118 0 0 0 1.982-2.245c.494-.593 1.002-1.173 1.494-1.768a156.57 156.57 0 0 0 2.466-3.07c.003-.002 0-.004-.001-.004h-.002a75.507 75.507 0 0 0-2.728 2.592c-.56.562-1.127 1.123-1.657 1.714a63.292 63.292 0 0 0-3.383 4.13c-.586.775-1.18 1.553-1.706 2.37-.001.003.003.007.005.004.624-.696 1.294-1.354 1.94-2.031m-3.197 7.67c.87-.83 1.694-1.707 2.494-2.603a60.9 60.9 0 0 0 1.204-1.392c.4-.476.82-.937 1.22-1.413.395-.47.784-.945 1.178-1.417.001-.001 0-.005-.003-.005a42.161 42.161 0 0 0-5.865 4.876c-1.703 1.7-3.241 3.571-4.732 5.455-.34.43-.68.862-1.014 1.297-.002.003.002.005.004.003 1.876-1.558 3.75-3.115 5.514-4.801M35.955 90.542c0-.002 0-.004-.002-.004s-.002 0-.003.002a161.772 161.772 0 0 0-3.42 5.57 144.275 144.275 0 0 0-2.07 3.625c-.633 1.156-1.27 2.311-1.893 3.473-.667 1.245-1.322 2.495-1.98 3.745-.121.23-.245.458-.372.684-.002.004.003.006.005.003.431-.597.84-1.209 1.25-1.82a164.173 164.173 0 0 0 2.282-3.503c.336-.53.676-1.058.995-1.598a70.383 70.383 0 0 0 1.974-3.517 144.05 144.05 0 0 0 2.343-4.741c.3-.638.597-1.278.89-1.92M29.86 70.75c-.384-.405-.782-.798-1.18-1.191a83.518 83.518 0 0 0-1.761-1.691l-.002-.001c-.003 0-.004.002-.002.004.894 1.047 1.81 2.07 2.74 3.086.724.794 1.48 1.558 2.234 2.323.441.449.888.893 1.33 1.342.002.002.006-.001.003-.005a58.297 58.297 0 0 0-2.13-2.524 58.037 58.037 0 0 0-1.232-1.343" fill="#7F7F7F"/><g transform="translate(22 35.878)"><mask id="b" fill="#fff"><use xlink:href="#a"/></mask><path d="M5.703 16.881a100.919 100.919 0 0 0 1.836-3.803c.255-.563.523-1.124.739-1.704A149.088 149.088 0 0 0 11.01 3.33c.105-.343.191-.693.28-1.04.184-.713.348-1.432.52-2.149 0-.002-.002-.003-.003-.003l-.002.001c-.527 1.139-1.017 2.293-1.573 3.419-.445.903-.882 1.811-1.312 2.722a127.868 127.868 0 0 0-2.142 4.768l.01-.025c-1.07 2.192-2.037 4.434-2.96 6.69-.493 1.138-.966 2.283-1.444 3.426C1.58 23.038.792 24.943 0 26.846c0 .003.003.005.005.002 1.037-1.79 2.107-3.561 3.157-5.345.55-.931 1.073-1.878 1.601-2.822.33-.591.634-1.195.94-1.8" fill="#7F7F7F" mask="url(#b)"/></g><path d="M94.32 21.214c1.085-1.385 2.136-2.796 3.21-4.19l-.001.003c.076-.1.153-.197.229-.296.002-.002 0-.005-.001-.005h-.002c-1.207 1.177-2.363 2.407-3.504 3.646-.894.972-1.783 1.957-2.618 2.982a112.51 112.51 0 0 0-5.05 6.738c-.001.003.003.006.005.003 2.707-2.847 5.306-5.79 7.731-8.881m2.213.541h-.001a59.163 59.163 0 0 0-2.747 2.97c-.994 1.154-1.91 2.379-2.8 3.615 0 .003.004.007.006.004a78.42 78.42 0 0 0 2.502-2.74 48.485 48.485 0 0 0 1.924-2.377l-.01.014c.38-.49.755-.987 1.129-1.481.001-.002 0-.005-.003-.005m-57.468 1.661l.005-.012-.003.006a.03.03 0 0 0-.002.006" fill="#7F7F7F"/><path d="M38.992 23.587l-.003.006.077-.183.005-.009-.002.003.004-.01-.001.005a90.916 90.916 0 0 0 1.553-3.926c.078-.216.165-.431.235-.65.095-.296.188-.594.278-.892.209-.695.409-1.393.597-2.094.053-.197.085-.402.126-.602a122.642 122.642 0 0 0 .48-2.47c.09-.504.16-1.011.235-1.517 0-.002-.002-.003-.003-.003l-.003.001c-.147.498-.286.998-.439 1.494a97.615 97.615 0 0 0-.74 2.507c-.045.164-.085.332-.14.494-.427 1.28-.812 2.573-1.216 3.86-.29.927-.57 1.856-.85 2.786-.256.856-.509 1.718-.826 2.554-.002.002.004.004.005.002.227-.444.434-.898.628-1.356m-5.915 3.658c.574-1.131 1.153-2.26 1.704-3.404a72.748 72.748 0 0 0 1.735-3.924c.22-.538.44-1.076.653-1.617 0-.002-.001-.003-.003-.003l-.002.001a74.01 74.01 0 0 0-1.77 3.374c-.367.743-.7 1.504-1.024 2.267l.018-.038a66.263 66.263 0 0 0-1.315 3.343c-.002.002.003.004.004.001m22.159 67.65c-.983.9-1.945 1.822-2.93 2.718-.503.457-1.003.916-1.5 1.378a190.228 190.228 0 0 0-3.789 3.605c-.199.195-.401.38-.607.569a115.8 115.8 0 0 0-1.937 1.791c-.896.848-1.78 1.706-2.673 2.555a535.635 535.635 0 0 0-3.196 3.071c-.909.88-1.816 1.762-2.741 2.624-.064.06-.128.115-.193.173-.002.001.001.006.004.004l.233-.173-.003.001a261.118 261.118 0 0 0 6.485-5.19c.956-.786 1.888-1.6 2.815-2.42a123.62 123.62 0 0 0 1.937-1.756c.203-.188.398-.377.589-.576a198.087 198.087 0 0 0 4.922-5.31c.891-.995 1.735-2.032 2.587-3.06a.002.002 0 0 0-.001-.004h-.002" fill="#7F7F7F"/><g transform="translate(34.506 108.358)"><mask id="d" fill="#fff"><use xlink:href="#c"/></mask><path d="M12 .33C9.593 2.173 7.233 4.12 5.114 6.291c-.422.434-.841.869-1.254 1.312-.34.365-.671.742-1.014 1.105-.882.934-1.724 1.91-2.644 2.808-.003.001.001.005.003.004 1.067-.664 2.064-1.44 3.054-2.21.907-.707 1.768-1.477 2.619-2.248.898-.816 1.74-1.697 2.565-2.586a78.697 78.697 0 0 0 3.562-4.14c.002-.003 0-.006-.002-.006H12" fill="#7F7F7F" mask="url(#d)"/></g><g transform="translate(27.291 .358)"><mask id="f" fill="#fff"><use xlink:href="#e"/></mask><path d="M32.079 82.256c-.833.838-1.676 1.665-2.525 2.488-1.734 1.682-3.449 3.383-5.186 5.064a165.326 165.326 0 0 1-5.238 4.83 201.875 201.875 0 0 1-5.425 4.66c-1.299 1.07-2.615 2.12-3.91 3.196-.257.215-.52.425-.779.639l1.146-1.4c.156-.192.33-.371.494-.555l1.326-1.472c.734-.815 1.468-1.63 2.2-2.446.114-.125.235-.245.353-.367l1.04-1.083 5.24-5.455c.27-.28.548-.552.822-.827.85-.846 1.698-1.692 2.547-2.54 2.747-2.738 5.488-5.48 8.257-8.196l6.092-5.976c.828-.812 1.656-1.622 2.47-2.449l5.661-5.743 2.564-2.602c.292-.296.6-.583.876-.895 1.561-1.764 3.123-3.528 4.685-5.29l2.27-2.565c.156-.176.312-.347.454-.534l.529-.695c1.07-1.412 2.143-2.823 3.214-4.234.356-.47.71-.939 1.051-1.421a65.47 65.47 0 0 0 1.577-2.323c.214-.333.422-.67.621-1.012.197.871.394 1.742.595 2.613.178.775.356 1.55.543 2.323.166.685.357 1.356.588 2.018a622.806 622.806 0 0 1-5.568 5.53 459.547 459.547 0 0 0-4.807 4.765 322.698 322.698 0 0 1-5.354 5.314 130.282 130.282 0 0 1-5.1 4.629 139.17 139.17 0 0 1-2.627 2.217c-.946.776-1.903 1.543-2.828 2.345-.973.845-1.939 1.698-2.896 2.561a75.98 75.98 0 0 0-2.526 2.421c-.823.815-1.629 1.647-2.446 2.467M11.014 97.244c.355-.543.748-1.065 1.122-1.594 1.823-2.586 3.645-5.171 5.469-7.756 1.124-1.595 2.275-3.17 3.421-4.749 1.376-1.896 2.752-3.791 4.136-5.681.619-.844 1.245-1.681 1.85-2.535.755-1.065 1.513-2.13 2.267-3.196a37.044 37.044 0 0 0 2.5-4.083c.372-.705.704-1.431 1.043-2.154.087-.18.165-.362.245-.545.155-.352.321-.703.46-1.061l.323-.833a5.51 5.51 0 0 0 .233-.794c.043-.194.083-.417.094-.612a2.644 2.644 0 0 0-.082-.793c-.116-.47-.578-.802-1.056-.802-.066 0-.131.008-.194.02a1.872 1.872 0 0 0-1.488-.768h-.027c-1.61.023-3.216.052-4.825.115-1.725.066-3.449.134-5.173.202-.89.034-1.786.044-2.674.106l-4.009.276c-1.398.096-2.8.174-4.197.3l-3.13.281c-.325.03-.65.064-.974.085-.426.028-.848.038-1.27.082.501-1.174 1.006-2.346 1.48-3.53a599.904 599.904 0 0 0 2.576-6.512c1.753-4.532 3.515-9.063 5.187-13.626.42-1.144.856-2.282 1.257-3.432l1.447-4.173c.798-2.3 1.519-4.625 2.263-6.943.267-.832.557-1.66.802-2.5l.905-3.103 1.333-4.572c.36-1.238.706-2.48 1.052-3.722 2.568-.288 5.136-.58 7.704-.879 2.387-.277 4.777-.535 7.161-.83 4.93-.612 9.86-1.211 14.783-1.861a477.25 477.25 0 0 0 5.942-.816c.884-.128 1.763-.27 2.645-.416.163-.027.325-.059.488-.087L60.76 5.837a93.976 93.976 0 0 1-1.6 2.39L56.565 12c-.486.706-1.024 1.376-1.538 2.06-1.215 1.616-2.443 3.223-3.643 4.848-1.496 1.887-2.973 3.791-4.464 5.683-.788 1-1.563 2.012-2.344 3.017-.662.852-1.32 1.702-1.96 2.571l-1.9 2.584c-.22.301-.422.619-.631.927l-.979 1.436c-.436.64-.85 1.303-1.253 1.964-.535.876-1.082 1.748-1.508 2.684l-.143.339a1.429 1.429 0 0 0 0 .753 1.425 1.425 0 0 0 .99.987 1.606 1.606 0 0 0 .394 1.649c.285.285.736.505 1.149.475 2.786-.202 5.574-.368 8.36-.548.362-.023.726-.035 1.085-.076l1.94-.224c1.312-.151 2.628-.282 3.935-.463 3.199-.442 6.407-.852 9.595-1.37.004.018.007.036.013.053a53.07 53.07 0 0 1-.416.74c-.288.502-.61.985-.93 1.467-.325.487-.66.968-1 1.445-.272.385-.541.776-.83 1.15l-1.241 1.61c-1.021 1.323-2.05 2.641-3.064 3.97-1.414 1.567-2.814 3.146-4.22 4.718l-2.537 2.835c-.256.285-.506.575-.775.847l-9.585 9.655c-.263.266-.534.523-.801.784l-2.53 2.47-5.884 5.743c-2.86 2.792-5.679 5.624-8.514 8.44l-1.628 1.618c-.4.396-.783.808-1.174 1.213l-5.385 5.572c-.4.414-.785.84-1.173 1.264l-2.54 2.772 1.578-2.418M28.2 65.184c-1.16.332-2.32.665-3.478 1-1.018.295-2.033.596-3.047.902l-2.378.72c-.319.096-.639.185-.955.29-2.5.816-5.003 1.63-7.498 2.462-.222-.37-.45-.736-.689-1.097-.446-.678-.903-1.349-1.357-2.022-.244-.363-.5-.721-.734-1.09l-.718-1.129c.015-.008.03-.013.045-.022.34-.198.607-.507.756-.867l1.898-.175c.88-.08 1.76-.143 2.64-.206 2.334-.165 4.67-.373 7.009-.466a11571.292 11571.292 0 0 0 8.154-.325c1.16-.046 2.321-.045 3.482-.063l.027-.001c-.16.413-.332.823-.499 1.232l-.063.144-.278.073c-.286.074-.572.153-.856.23-.488.133-.975.27-1.46.41m-22.915-.617l.008-.006-.008.006m52.52-42.276c-1.305 1.441-2.62 2.874-3.896 4.341-1.497 1.722-3 3.437-4.472 5.179a344.734 344.734 0 0 0-4.246 5.106 151.84 151.84 0 0 0-1.503 1.876c-.434.552-.88 1.103-1.267 1.69-1.134.074-2.269.15-3.403.232.438-.93.967-1.822 1.494-2.7.298-.499.584-1.007.897-1.496.41-.636.819-1.273 1.227-1.91.654-1.018 1.37-1.995 2.066-2.985.258-.367.506-.744.776-1.102l.993-1.326c1.545-2.06 3.1-4.114 4.665-6.16.729-.95 1.456-1.903 2.184-2.854.67-.876 1.307-1.78 1.96-2.668l2.793-3.802c.482-.657.924-1.34 1.376-2.02l2.472-3.698c.2-.301.382-.615.573-.923l.393-.638c0 1.041.003 2.082.014 3.123.01.918.025 1.835.04 2.753.015.965.051 1.94.162 2.9.011.095.024.19.037.284.052.181.143.34.277.473.027.028.059.05.09.073a1681.41 1681.41 0 0 0-5.701 6.252m-23.155 60.8c.855-.879 1.7-1.775 2.586-2.625.908-.871 1.828-1.727 2.757-2.577a89.024 89.024 0 0 1 2.643-2.297c1.755-1.483 3.543-2.926 5.26-4.455.886-.79 1.78-1.574 2.65-2.384.923-.859 1.836-1.726 2.746-2.6 1.705-1.637 3.343-3.344 5.003-5.026a455.054 455.054 0 0 1 4.372-4.349 693.732 693.732 0 0 0 5.298-5.277l.072-.016c.693-.191 1.079-.91.907-1.595-.413-1.647-.849-3.288-1.255-4.937-.432-1.757-.83-3.523-1.23-5.288a1.234 1.234 0 0 0-.67-.82 1.494 1.494 0 0 0-.788-.531 2.407 2.407 0 0 0-.933-.167 7 7 0 0 0-.832.065l-.58.07c-.437.052-.875.098-1.312.156-.944.126-1.889.25-2.832.374-1.673.22-3.345.45-5.016.68-1.229.143-2.457.284-3.686.425l-1.694.196c-.401.046-.809.056-1.213.082-.62.041-1.241.08-1.862.12l.428-.516 2.11-2.566c1.414-1.72 2.86-3.415 4.3-5.115.551-.65 1.117-1.287 1.676-1.928l2.608-2.998c.422-.486.862-.957 1.295-1.434l3.092-3.41a1520.87 1520.87 0 0 1 5.313-5.82c.19-.206.305-.449.305-.732 0-.274-.11-.54-.305-.733a1.052 1.052 0 0 0-.634-.29c-.033-.818-.042-1.638-.059-2.456-.017-.886-.036-1.772-.052-2.66a261.52 261.52 0 0 1-.022-6.861c.434-.39.651-.96.487-1.558-.191-.69-.821-1.116-1.5-1.116a1.66 1.66 0 0 0-.388.047 7.544 7.544 0 0 1-.661.13c-1.274.17-2.545.372-3.816.56-1.157.173-2.319.328-3.478.49-4.976.663-9.958 1.278-14.94 1.898-4.874.607-9.755 1.156-14.632 1.725-1.589.184-3.18.356-4.77.532l-.448.06a1.68 1.68 0 0 0-.743 2.809c.02.02.045.04.067.06-.312 1.12-.628 2.24-.954 3.356l-1.439 4.927c-.25.86-.48 1.73-.755 2.582l-1.17 3.639c-.449 1.39-.896 2.778-1.343 4.168-.294.914-.627 1.817-.942 2.724-.372 1.067-.728 2.142-1.118 3.203l-1.519 4.133c-.745 2.026-1.52 4.042-2.292 6.058a2916.41 2916.41 0 0 1-2.797 7.294 361.604 361.604 0 0 1-3.644 9.137c-.21.496-.422.992-.63 1.489-.11.261-.206.52-.297.79-.123.36-.164.735-.213 1.113a1.24 1.24 0 0 0 .62 1.077c.266.156.56.196.84.144.25.336.605.597 1.01.694.7.167 1.396.306 2.103.4l.067.128c.072.138.156.271.234.407l.48.83c.172.298.348.593.524.888a228.71 228.71 0 0 1 2.064 3.526l-.398.134c-.26.087-.474.23-.614.472a1.02 1.02 0 0 0-.104.79c.142.515.733.895 1.265.716l.975-.327c.28.191.664.219.967.042a.87.87 0 0 0 .393-.499c.853-.284 1.708-.566 2.563-.844l4.38-1.423c.899-.291 1.808-.549 2.713-.819 1.033-.307 2.064-.621 3.101-.913a794.81 794.81 0 0 1 4.013-1.12c.423-.115.848-.229 1.273-.342a57.98 57.98 0 0 1-.409.768 37.61 37.61 0 0 1-1.336 2.224c-.792 1.245-1.653 2.448-2.489 3.664-1.166 1.697-2.388 3.358-3.589 5.03l-4.828 6.729c-1.174 1.634-2.317 3.291-3.473 4.938l-2.85 4.058-.948 1.351c-.109.157-.225.31-.329.469l-4.392 6.741-.902 1.384c-.603.925-1.164 1.878-1.743 2.819-.216.352-.149.802.108 1.103l-.301.231c-.155.12-.312.237-.469.355-.269.202-.532.416-.833.568-.272.106-.491.241-.644.501-.15.255-.19.565-.112.85.077.275.262.514.508.659.237.137.586.21.852.11.167-.062.33-.133.494-.203.167-.07.32-.193.466-.298.23-.167.45-.349.672-.524l.806-.636c.471-.373.947-.742 1.421-1.11l.05-.04a.997.997 0 0 0 .323-.215c.025-.026.045-.054.067-.082 1.707-1.304 3.417-2.601 5.086-3.955.962-.78 1.926-1.557 2.896-2.329.86-.684 1.725-1.364 2.57-2.068a362.828 362.828 0 0 0 5.568-4.736c1.75-1.516 3.435-3.107 5.097-4.716 1.716-1.66 3.439-3.316 5.136-4.995.855-.847 1.708-1.697 2.547-2.56" fill="#161616" mask="url(#f)"/></g></g></svg>