<svg width="120" height="120" viewBox="0 0 120 120" xmlns="http://www.w3.org/2000/svg" xmlns:xlink="http://www.w3.org/1999/xlink"><defs><path id="a" d="M0 .346h100.535v118.73H0z"/></defs><g fill="none" fill-rule="evenodd"><path d="M55.316 117.438c1.07 0 2.172-.026 3.275-.08 2.954-.146 6.82-.426 10.545-1.318 13.944-3.343 24.272-9.355 31.575-18.38 5.084-6.28 7.715-12.626 8.05-19.403.077-1.551-.134-3.034-.337-4.467-.078-.564-.16-1.128-.218-1.69-.233-7.715-3.91-14.177-10.93-19.209-6.137-4.397-10.33-10.692-13.599-20.409-3.666-10.887-9.519-18.93-17.892-24.59-4.668-3.155-9.814-4.754-15.297-4.754-.617 0-1.246.022-1.868.063-6.511.436-12.377 3.335-16.963 8.383-5.2 5.723-8.472 12.915-9.726 21.376-.727 4.89-.707 10.026.064 16.16.784 6.232-.478 11.914-3.749 16.884-4.06 6.168-5.912 13.024-5.501 20.376.248 4.426 1.78 8.762 4.686 13.256 3.826 5.917 9.497 10.432 17.34 13.807 6.243 2.688 12.963 3.995 20.545 3.995" fill="#96C13E"/><g transform="matrix(-1 0 0 1 111 .577)"><mask id="b" fill="#fff"><use xlink:href="#a"/></mask><path d="M60.512.346c-5.936 0-11.502 1.728-16.544 5.134-8.793 5.944-14.928 14.357-18.755 25.72-3.11 9.25-7.054 15.206-12.788 19.316C4.84 55.954.852 62.969.573 71.369c-.052.488-.124.997-.2 1.534-.207 1.465-.442 3.125-.354 4.887.358 7.26 3.15 14.025 8.539 20.683 7.622 9.42 18.346 15.682 32.785 19.143 3.906.936 7.907 1.228 10.955 1.378 1.142.055 2.28.083 3.386.083 7.892 0 14.9-1.367 21.427-4.177 8.26-3.554 14.255-8.344 18.327-14.64 3.076-4.76 4.771-9.58 5.038-14.333.437-7.836-1.535-15.141-5.863-21.714-2.973-4.52-4.118-9.698-3.402-15.395.786-6.252.805-11.735.057-16.76-1.318-8.901-4.776-16.484-10.276-22.538C76.012 4.038 69.627.89 62.53.414a30.153 30.153 0 0 0-2.017-.068m0 4.43c.57 0 1.142.02 1.718.059 6.084.407 11.33 3.108 15.465 7.659 5.22 5.746 8.047 12.609 9.174 20.213.77 5.187.58 10.378-.071 15.561-.832 6.617.447 12.828 4.096 18.374 3.842 5.836 5.523 12.188 5.14 19.038-.247 4.403-1.936 8.469-4.335 12.18-3.978 6.15-9.736 10.125-16.352 12.973-6.304 2.714-12.91 3.813-19.663 3.813-1.053 0-2.108-.027-3.167-.078-3.394-.167-6.843-.471-10.134-1.26-11.855-2.842-22.492-7.888-30.363-17.616C7.72 90.38 4.8 84.481 4.46 77.572c-.097-1.957.354-3.938.553-5.905.205-7.629 4.06-13.29 10.009-17.554C22.576 48.7 26.599 41.03 29.43 32.61c3.245-9.632 8.51-17.7 17.034-23.462 4.27-2.885 9.04-4.37 14.048-4.37" fill="#3AAA35" mask="url(#b)"/></g><path d="M39.966 77.554c2.374 12.005 13.35 19.96 24.517 17.77 11.168-2.191 18.294-13.698 15.921-25.703C78.031 57.616 67.057 49.66 55.89 51.85c-11.167 2.19-18.297 13.7-15.924 25.704" fill="#7D4E24"/><path d="M39.966 77.554c2.374 12.005 13.35 19.96 24.517 17.77 11.168-2.191-9.89-8.17-12.262-20.174-2.373-12.004 14.836-25.49 3.669-23.3-11.167 2.19-18.297 13.7-15.924 25.704" fill-opacity=".3" fill="#1D1D1B"/></g></svg>