<svg width="120" height="120" viewBox="0 0 120 120" xmlns="http://www.w3.org/2000/svg"><path d="M114.941 48.238a4.017 4.017 0 0 0 4.92-2.847 4.026 4.026 0 0 0-2.84-4.93l-10.049-2.698 1.393-.807a4.03 4.03 0 0 0 1.471-5.5 4.013 4.013 0 0 0-5.488-1.473l-1.394.806 2.693-10.07a4.027 4.027 0 0 0-2.84-4.93 4.016 4.016 0 0 0-4.922 2.846l-4.771 17.848-6.218 3.597 2.692-10.07a4.027 4.027 0 0 0-2.84-4.93 4.016 4.016 0 0 0-4.92 2.846l-4.773 17.847-12.538 7.255V38.52l13.039-13.065a4.031 4.031 0 0 0 0-5.694 4.011 4.011 0 0 0-5.682 0l-7.357 7.372v-7.195L77.556 6.873a4.03 4.03 0 0 0 0-5.694 4.011 4.011 0 0 0-5.682 0l-7.357 7.372V6.94A4.022 4.022 0 0 0 60.5 2.913a4.021 4.021 0 0 0-4.018 4.026V8.55l-7.356-7.37a4.011 4.011 0 0 0-5.682 0 4.032 4.032 0 0 0 0 5.694l13.038 13.065v7.195l-7.356-7.372a4.011 4.011 0 0 0-5.682 0 4.033 4.033 0 0 0 0 5.694L56.482 38.52v14.508l-12.537-7.255-4.772-17.847a4.018 4.018 0 0 0-4.921-2.847 4.026 4.026 0 0 0-2.84 4.931l2.692 10.07-6.217-3.597-4.773-17.848a4.016 4.016 0 0 0-4.92-2.846 4.026 4.026 0 0 0-2.841 4.93l2.692 10.07-1.393-.806a4.012 4.012 0 0 0-5.488 1.474 4.03 4.03 0 0 0 1.47 5.499l1.393.807L3.98 40.46a4.026 4.026 0 0 0-2.841 4.93 4.017 4.017 0 0 0 4.92 2.847l17.81-4.782 6.218 3.597-10.049 2.699a4.028 4.028 0 0 0-2.841 4.93 4.017 4.017 0 0 0 4.92 2.847l17.812-4.782L52.464 60l-12.536 7.254-17.811-4.783a4.017 4.017 0 0 0-4.921 2.847 4.028 4.028 0 0 0 2.841 4.931l10.05 2.699-6.218 3.597-17.81-4.783a4.017 4.017 0 0 0-4.921 2.847 4.027 4.027 0 0 0 2.84 4.93l10.05 2.699-1.394.807a4.03 4.03 0 0 0-1.47 5.499 4.013 4.013 0 0 0 5.488 1.473l1.393-.805-2.692 10.07a4.026 4.026 0 0 0 2.84 4.93 4.017 4.017 0 0 0 4.921-2.847l4.773-17.847 6.217-3.598-2.692 10.07a4.017 4.017 0 1 0 7.76 2.084l4.773-17.847 12.537-7.254v14.508L43.444 94.545a4.033 4.033 0 0 0 0 5.694 4.011 4.011 0 0 0 5.682 0l7.356-7.372v7.195l-13.038 13.065a4.033 4.033 0 0 0 0 5.694 4.013 4.013 0 0 0 5.682 0l7.356-7.372v1.613a4.021 4.021 0 0 0 4.018 4.026 4.022 4.022 0 0 0 4.017-4.026v-1.613l7.357 7.372a4.013 4.013 0 0 0 5.682 0 4.031 4.031 0 0 0 0-5.694l-13.039-13.065v-7.195l7.357 7.372a4.011 4.011 0 0 0 5.682 0 4.031 4.031 0 0 0 0-5.694L64.517 81.481V66.973l12.537 7.254 4.773 17.848a4.016 4.016 0 0 0 4.92 2.846 4.027 4.027 0 0 0 2.841-4.93l-2.692-10.07 6.218 3.597 4.771 17.847a4.016 4.016 0 0 0 4.921 2.847 4.027 4.027 0 0 0 2.841-4.93l-2.693-10.07 1.394.805a4.014 4.014 0 0 0 5.488-1.473 4.03 4.03 0 0 0-1.47-5.5l-1.394-.806 10.049-2.698a4.026 4.026 0 0 0 2.84-4.93 4.017 4.017 0 0 0-4.92-2.848l-17.81 4.783-6.218-3.597 10.049-2.699a4.026 4.026 0 0 0 2.84-4.93 4.017 4.017 0 0 0-4.92-2.848l-17.81 4.783L68.535 60l12.537-7.253 17.81 4.782a4.017 4.017 0 0 0 4.92-2.846 4.027 4.027 0 0 0-2.84-4.931l-10.049-2.699 6.218-3.597 17.81 4.782z" fill="#70A8E2" fill-rule="evenodd"/></svg>