<svg width="480" height="360" viewBox="0 0 480 360" xmlns="http://www.w3.org/2000/svg"><g fill="none" fill-rule="evenodd"><path fill="#C7F7FF" d="M-31 0h541v361H-31z"/><path d="M258.922 242.646c-.27-6.84 42.847-9.981 48.275-10.054 131.824-1.769-87.624-49.222-87.624-55.179 158.153-29.674 371.884-20.974 69.465-103.498C273.6 69.709 137.395 28.465 41.674 0H-31v361h541v-57.543c-82.647-14.982-250.447-44.674-251.078-60.81z" fill="#D4F9FF"/><path d="M53.126 193.045c-7.088-1.065-13.922-1.173-20.324-.451C23.587 165.5-.325 141.332-31 127.686v86.441l140.894 13.538c-11.613-17.4-32.694-31.01-56.769-34.62zm73.594 36.245l16.212 1.551a52.37 52.37 0 0 0-5.609-1.173c-3.679-.541-7.231-.668-10.603-.379zm301.896-25.65c-.92.145-1.822.325-2.705.56l7.844-.758a22.563 22.563 0 0 0-5.14.198zm50.529-17.924c-3.102-.343-6.402-.288-9.828.217-11.632 1.75-21.82 8.321-27.447 16.75l68.13-6.552v-41.804c-14.841 6.589-26.383 18.285-30.855 31.39z" fill="#FFF"/><path d="M176.247 97.335c-31.6 22.075-38.466-1.98-57.13.75-13.496 1.963-18.049 13.99-29.214 14.294-10.407.267-13.388-9.208-25.53-7.085-6.901 1.196-13.424 8.762-18.392 8.37-8.474-.66-18.339-8.298-25.981 4.336h221c-9.088-10.011-30.28-44.738-64.753-20.665z" fill="#E0FBFF"/><path d="M201.873 129.179c-19.594 13.714-23.848-1.232-35.421.464-8.364 1.232-11.195 8.696-18.099 8.875-6.453.178-8.292-5.714-15.827-4.41-4.272.75-8.328 5.446-11.41 5.196-5.246-.411-11.375-5.161-16.116 2.696h137c-5.624-6.179-18.765-27.785-40.127-12.821z" fill="#FFF"/><path d="M445.723 158.121c-4.461.338-10.308-6.423-16.478-7.509-10.865-1.903-13.545 6.602-22.863 6.353-9.984-.267-14.067-11.05-26.173-12.811-16.73-2.438-22.882 19.127-51.196-.677C298.145 121.877 279.15 153.05 271 162h198c-6.836-11.334-15.686-4.466-23.277-3.879z" fill="#F2FDFF"/><path d="M28.284 175.29s5.354-9.561 11.267-20.04c-4.2-7.904-9.176-13.522-14.511-13.522-8.202 0-15.557 13.252-20.514 27.692a6001.316 6001.316 0 0 1 16.187 28.754L1.605 179.017C-.685 187.623-2 195.67-2 200.587c0 14.907 12.114 27.007 27.04 27.007 14.926 0 27.04-12.1 27.04-27.008 0-8.318-3.768-25.675-9.699-39.394L28.284 175.29z" fill="#BBE055"/><path d="M85.212 189.603s13.375-23.892 24.84-44.094c-7.607-22.11-18.873-42.455-31.456-42.455-8.184 0-15.827 8.624-22.263 20.742a9319.649 9319.649 0 0 1 17.27 30.734l-21.596-21.624c-9.085 21.048-14.872 47.659-14.872 60.424 0 22.867 18.568 41.412 41.461 41.412 22.894 0 41.46-18.545 41.46-41.412 0-7.526-2.018-19.877-5.533-33.057l-29.311 29.33z" fill="#94BF1C"/><path d="M392.31 224.55s7.787-13.917 14.457-25.674c-4.434-12.892-10.996-24.72-18.315-24.72-4.777 0-9.211 5.023-12.96 12.08a6946.706 6946.706 0 0 1 10.058 17.897l-12.582-12.603c-5.3 12.261-8.653 27.763-8.653 35.2 0 13.323 10.816 24.126 24.155 24.126 13.34 0 24.156-10.803 24.156-24.127 0-4.393-1.172-11.577-3.227-19.265l-17.09 17.087z" fill="#BBE055"/><path d="M435.952 201.235s9.986-17.861 18.549-32.95c-5.678-16.528-14.097-31.724-23.506-31.724-6.13 0-11.826 6.446-16.639 15.502a7213.327 7213.327 0 0 1 12.907 22.974l-16.152-16.168c-6.796 15.718-11.104 35.614-11.104 45.156 0 17.087 13.862 30.95 30.988 30.95 17.107 0 30.987-13.845 30.987-30.95 0-5.617-1.496-14.854-4.128-24.702l-21.902 21.912z" fill="#94BF1C"/><path d="M-31 295.79V361h541v-42.241c-78.319-49.089-180.009-78.723-291.13-78.723-92.511 0-178.476 20.541-249.87 55.754z" fill="#D4F9FF"/><path d="M259.697 303.362c-.288-11.738 44.56-17.136 50.205-17.262 59.131-1.305 50.277-17.209 21.117-35.703-35.85-6.774-73.414-10.36-112.15-10.36-92.51 0-178.475 20.558-249.869 55.753V361h402.684c-60.502-20.903-111.626-42.676-111.987-57.638z" fill="#EDFDFF"/><path d="M-31 196.162V361h541V196.162c-79.509 10.207-171.912 16.05-270.5 16.05S48.509 206.368-31 196.161z" fill="#A97B57"/><path d="M-31 196.162v43.477c73.251 21.73 167.566 34.804 270.5 34.804s197.249-13.074 270.5-34.804v-43.477c-79.509 10.207-171.912 16.05-270.5 16.05S48.509 206.368-31 196.161z" fill="#AD815F"/><path d="M128.884 355.915c0 .63.504 1.136 1.136 1.136.63 0 1.136-.505 1.136-1.136V209.813l-2.254-.108v146.21h-.018zm19.908 0c0 .63.505 1.136 1.136 1.136.632 0 1.137-.505 1.137-1.136V210.607c-.758-.037-1.497-.055-2.255-.09v145.398h-.018zm79.636 0c0 .63.504 1.136 1.136 1.136.63 0 1.136-.505 1.136-1.136V212.193l-2.254-.018v143.74h-.018zm-19.909 0c0 .63.505 1.136 1.136 1.136.631 0 1.136-.505 1.136-1.136V212.049l-2.254-.018v143.884h-.018zm-99.544 0c0 .63.505 1.136 1.136 1.136.631 0 1.136-.505 1.136-1.136V208.82l-2.254-.126v147.22h-.018zm79.635 0c0 .63.505 1.136 1.136 1.136.631 0 1.136-.505 1.136-1.136V211.743l-2.254-.054v144.226h-.018zm-19.909 0c0 .63.505 1.136 1.136 1.136.631 0 1.136-.505 1.136-1.136v-144.66l-2.254-.071v144.73h-.018zm-159.271 0c0 .63.506 1.136 1.137 1.136s1.136-.505 1.136-1.136v-154.83c-.757-.072-1.497-.162-2.254-.234v155.064H9.43zm19.91 0c0 .63.504 1.136 1.136 1.136.63 0 1.136-.505 1.136-1.136V203.033l-2.254-.217v153.099h-.018zm19.908 0c0 .63.505 1.136 1.136 1.136.632 0 1.137-.505 1.137-1.136V204.764c-.758-.054-1.497-.126-2.255-.18v151.33h-.018zm39.818 0c0 .63.505 1.136 1.136 1.136.631 0 1.136-.505 1.136-1.136V207.649l-2.254-.144v148.41h-.018zm-19.909 0c0 .63.505 1.136 1.136 1.136.631 0 1.136-.505 1.136-1.136v-149.6l-2.254-.163v149.763h-.018zm258.797 0c0 .63.504 1.136 1.136 1.136.63 0 1.136-.505 1.136-1.136v-145.38c-.758.035-1.497.054-2.254.09v145.29h-.018zm119.452 0c0 .63.505 1.136 1.136 1.136.632 0 1.137-.505 1.137-1.136V202.816l-2.255.217v152.882h-.018zm-19.908 0c0 .63.504 1.136 1.136 1.136.63 0 1.136-.505 1.136-1.136V204.584c-.758.054-1.497.126-2.254.18v151.15h-.019zm-19.909 0c0 .63.505 1.136 1.136 1.136.631 0 1.136-.505 1.136-1.136V206.152l-2.254.163v149.6h-.018zm-159.271 0c0 .63.505 1.136 1.136 1.136.632 0 1.137-.505 1.137-1.136V212.193l-2.255.018v143.704h-.018zm218.997 0c0 .63.505 1.136 1.136 1.136.631 0 1.136-.505 1.136-1.136V200.85l-2.254.234v154.83h-.018zm-79.635 0c0 .63.505 1.136 1.136 1.136.631 0 1.136-.505 1.136-1.136V207.523c-.757.054-1.497.09-2.254.144v148.248h-.018zm-119.453 0c0 .63.505 1.136 1.136 1.136.631 0 1.136-.505 1.136-1.136V212.013l-2.254.018v143.884h-.018zm99.544 0c0 .63.505 1.136 1.136 1.136.631 0 1.136-.505 1.136-1.136v-147.22l-2.254.126v147.094h-.018zm-79.635 0c0 .63.505 1.136 1.136 1.136.631 0 1.136-.505 1.136-1.136V211.689l-2.254.054v144.172h-.018zm19.909 0c0 .63.505 1.136 1.136 1.136.631 0 1.136-.505 1.136-1.136V211.202l-2.254.072v144.64h-.018zm39.817 0c0 .63.505 1.136 1.136 1.136.632 0 1.137-.505 1.137-1.136v-146.21l-2.255.108v146.102h-.018z" fill="#9C7253"/><path d="M108.975 267.14c.757.09 1.496.18 2.254.252v-58.57l-2.254-.127v58.444zm59.726 5.193c.758.054 1.497.09 2.254.126v-61.221l-2.254-.072v61.167zm-39.817-3.102l2.254.217v-59.653l-2.254-.108v59.544zm19.908 1.731c.758.054 1.497.108 2.255.18v-60.535c-.758-.037-1.497-.055-2.255-.09v60.445zm59.727 3.084l2.254.054v-62.05l-2.254-.019v62.015zm-19.909-.686c.757.037 1.497.055 2.254.09v-61.725l-2.254-.055v61.69zM9.43 250.243c.758.18 1.498.36 2.255.523v-49.699c-.757-.072-1.497-.162-2.254-.234v49.41zm19.91 4.346c.739.144 1.496.306 2.254.45v-52.006l-2.254-.217v51.773zm199.088 19.8c.757 0 1.496 0 2.254.018v-62.214l-2.254-.018v62.214zm-179.18-15.996c.758.127 1.497.27 2.255.397v-54.026c-.758-.054-1.497-.126-2.255-.18v53.81zm19.909 3.337c.758.126 1.497.234 2.254.342v-55.775l-2.254-.163v55.596zm19.909 2.903c.757.108 1.497.198 2.254.306v-57.29l-2.254-.144v57.128zm159.252 9.774c.758 0 1.497 0 2.254-.018v-62.214l-2.254.018v62.214zm179.18-15.617c.757-.126 1.514-.27 2.254-.397v-53.81c-.758.055-1.497.127-2.255.18v54.027zm-19.909 3.3c.757-.108 1.496-.234 2.254-.342v-55.596l-2.254.163v55.775zm-19.909 2.85c.757-.109 1.497-.199 2.254-.307v-57.128c-.757.054-1.497.09-2.254.144v57.29zm59.726-9.9c.758-.145 1.515-.29 2.254-.451v-51.773l-2.254.217v52.006zm19.909-4.256c.757-.18 1.497-.361 2.254-.523v-49.392l-2.254.234v49.68zm-139.361 20.359a94.833 94.833 0 0 0 2.254-.18v-60.429c-.758.036-1.497.055-2.255.09v60.519zm-39.818 2.307c.757-.035 1.497-.053 2.254-.09v-61.67l-2.254.054v61.708zm79.635-6.058c.757-.09 1.497-.18 2.254-.253v-58.444l-2.254.126v58.57zm-59.726 5.067c.757-.036 1.496-.09 2.254-.126v-61.15l-2.254.073v61.203zm-39.818 1.623l2.254-.054v-62.033l-2.254.018v62.069zm79.635-4.634l2.254-.217v-59.526l-2.254.108v59.635z" fill="#A97B57"/><path d="M-31 273.036V361h541v-87.964c-79.545 18.213-171.93 28.654-270.5 28.654-98.57-.018-190.955-10.44-270.5-28.654z" fill="#BBE055"/><path d="M-31 327.207V361h541v-28.87c-74.027 9.178-160.316 14.444-252.467 14.444-107.55 0-207.149-7.177-288.533-19.367z" fill="#94BF1C"/><path d="M14.095 265.944c.533 2.092 3.145 2.682 5.865 1.331 2.701-1.35 4.479-4.146 3.945-6.219-.533-2.092-3.145-2.682-5.865-1.331-2.701 1.35-4.479 4.146-3.945 6.219zm2.069-8.429c1.906-.9 3.132-2.75 2.774-4.151-.374-1.384-2.213-1.782-4.102-.882-1.906.899-3.132 2.75-2.774 4.133.374 1.419 2.213 1.8 4.102.9zm-.038 17.981c.745 2.554 4.413 3.266 8.212 1.616 3.798-1.65 6.275-5.055 5.53-7.608-.745-2.554-4.413-3.266-8.212-1.616-3.78 1.668-6.256 5.055-5.53 7.608zm-8.94-17.979c2.462.902 4.132.503 3.763-.885-.387-1.389-2.673-3.246-5.135-4.149-2.462-.902-4.132-.503-3.763.885.37 1.389 2.673 3.246 5.135 4.149zm19.292 21.53c-4.336 1.958-7.177 5.982-6.328 8.991.849 3.009 5.037 3.864 9.372 1.923 4.336-1.959 7.177-5.982 6.328-8.991-.849-3.01-5.037-3.882-9.372-1.923zm-19.432-.001c-5.182-1.957-8.742-1.085-7.93 1.922.81 3.007 5.656 7.028 10.838 8.986 5.182 1.957 8.742 1.085 7.93-1.922-.792-3.007-5.639-7.028-10.838-8.986zm.763-1.93c4.634 1.651 7.814.92 7.087-1.617-.726-2.556-5.052-5.963-9.705-7.615-4.634-1.651-7.814-.92-7.087 1.617.726 2.538 5.07 5.946 9.705 7.615zm-.314-9.841c3.552 1.35 5.97.761 5.43-1.331-.558-2.092-3.868-4.869-7.42-6.22-3.552-1.35-5.97-.76-5.43 1.332s3.868 4.869 7.42 6.22zm453.667-3.68c1.91.752 3.627.428 3.82-.735.193-1.163-1.215-2.703-3.144-3.455-1.91-.752-3.627-.428-3.82.735-.193 1.163 1.215 2.703 3.144 3.455zm8.408 7.844c2.75-1.053 5.178-3.21 5.412-4.842.233-1.615-1.798-2.088-4.55-1.036-2.75 1.053-5.177 3.21-5.411 4.842-.252 1.615 1.798 2.088 4.549 1.036zm-5.545 8.276c-.314 2.31 2.342 2.987 5.925 1.484 3.582-1.503 6.728-4.603 7.025-6.914.314-2.31-2.342-2.987-5.925-1.484-3.565 1.484-6.71 4.584-7.025 6.914zm4.174-16.116c1.928-.753 3.615-2.294 3.787-3.458.172-1.164-1.257-1.489-3.185-.736-1.928.753-3.615 2.294-3.787 3.458-.172 1.147 1.257 1.49 3.185.736zm-12.529 18.285c-3.856-1.646-7.27-.93-7.638 1.628-.367 2.54 2.442 5.958 6.298 7.604s7.27.93 7.638-1.628c.367-2.54-2.442-5.958-6.298-7.604zm15.476 0c-4.13 1.647-7.769 5.066-8.119 7.607-.35 2.542 2.695 3.276 6.824 1.63 4.13-1.647 7.77-5.066 8.12-7.608.367-2.56-2.695-3.276-6.825-1.629zm-13.564-9.079c-3.303-1.501-6.226-.844-6.552 1.483-.327 2.308 2.087 5.405 5.39 6.907 3.304 1.501 6.227.844 6.553-1.483.309-2.308-2.105-5.405-5.39-6.907zm1.483-1.37c2.475 1.051 4.678.596 4.914-1.034.237-1.612-1.565-3.785-4.04-4.836-2.476-1.051-4.679-.596-4.915 1.034-.255 1.63 1.565 3.785 4.04 4.836z" fill="#BBE055"/><path d="M451.191 97.814c-4.748.379-10.978-6.929-17.568-8.084-11.592-2.038-14.427 7.11-24.375 6.839-10.635-.289-15.005-11.909-27.878-13.803-17.821-2.635-24.394 20.587-54.547-.722C293.925 58.804 273.685 92.347 265 102h211c-7.295-12.197-16.72-4.818-24.809-4.186z" fill="#D4F9FF"/><path d="M410.57 333.435c2.75-1.052 5.178-3.209 5.412-4.84.233-1.613-1.798-2.086-4.55-1.034-2.75 1.052-5.177 3.209-5.411 4.84-.252 1.63 1.798 2.085 4.549 1.034zm-1.371-6.84c1.928-.752 3.615-2.292 3.787-3.455.172-1.163-1.257-1.487-3.185-.735-1.928.752-3.615 2.292-3.787 3.455-.172 1.163 1.257 1.487 3.185.735zm-4.174 15.12c-.314 2.31 2.342 2.987 5.925 1.484 3.582-1.503 6.728-4.603 7.025-6.914.314-2.31-2.342-2.987-5.925-1.484-3.565 1.503-6.71 4.584-7.025 6.914zm-2.863-15.12c1.91.752 3.627.428 3.82-.735.193-1.163-1.215-2.703-3.144-3.455-1.91-.752-3.627-.428-3.82.735-.193 1.163 1.215 2.703 3.144 3.455zm-6.492 17.289c-3.856-1.646-7.27-.93-7.638 1.628-.367 2.54 2.442 5.958 6.298 7.604s7.27.93 7.638-1.628c.367-2.54-2.442-5.94-6.298-7.604zm15.476-.004c-4.13 1.647-7.769 5.068-8.119 7.61-.35 2.543 2.695 3.277 6.824 1.63 4.13-1.647 7.77-5.068 8.12-7.61.367-2.543-2.695-3.277-6.825-1.63zm-11.081-10.445c2.475 1.051 4.678.596 4.914-1.034.237-1.612-1.565-3.785-4.04-4.836-2.476-1.051-4.679-.596-4.915 1.034-.255 1.63 1.565 3.785 4.04 4.836zm-1.483 1.37c-3.303-1.501-6.226-.844-6.552 1.483-.327 2.308 2.087 5.405 5.39 6.907 3.304 1.501 6.227.844 6.553-1.483.309-2.308-2.105-5.387-5.39-6.907zm-351.487-3.861c.533 2.092 3.145 2.682 5.865 1.331 2.701-1.35 4.479-4.146 3.945-6.219-.533-2.092-3.145-2.682-5.865-1.331-2.701 1.35-4.479 4.146-3.945 6.219zm-6.909-8.427c2.462.902 4.132.503 3.763-.885-.387-1.389-2.673-3.246-5.135-4.149-2.462-.902-4.132-.503-3.763.885.37 1.389 2.673 3.246 5.135 4.149zm8.94 17.979c.745 2.554 4.413 3.266 8.212 1.616 3.798-1.65 6.275-5.055 5.53-7.608-.745-2.554-4.413-3.266-8.212-1.616-3.78 1.65-6.256 5.055-5.53 7.608zm.038-17.977c1.906-.9 3.132-2.752 2.774-4.154-.374-1.385-2.213-1.783-4.102-.883-1.906.9-3.132 2.752-2.774 4.137.374 1.402 2.213 1.8 4.102.9zm-8.669 9.756c3.552 1.35 5.97.761 5.43-1.331-.558-2.092-3.868-4.869-7.42-6.22-3.552-1.35-5.97-.76-5.43 1.332.54 2.073 3.868 4.869 7.42 6.22zm-.449 11.771c-5.182-1.957-8.742-1.085-7.93 1.922.81 3.007 5.656 7.028 10.838 8.986 5.182 1.957 8.742 1.085 7.93-1.922-.792-3.007-5.639-7.028-10.838-8.986zm19.432.005c-4.336 1.958-7.177 5.98-6.328 8.988.849 3.008 5.037 3.862 9.372 1.922 4.336-1.957 7.177-5.98 6.328-8.988-.849-3.025-5.037-3.88-9.372-1.922zm-18.669-1.935c4.634 1.651 7.814.92 7.087-1.617-.726-2.556-5.052-5.963-9.705-7.615-4.634-1.651-7.814-.92-7.087 1.617.726 2.556 5.07 5.963 9.705 7.615z" fill="#94BF1C"/></g></svg>