<svg xmlns="http://www.w3.org/2000/svg" width="28.571" height="40" viewBox="0.473 0 28.571 40"><defs><style/></defs><g id="ID0.7836730098351836" transform="scale(.94563)" fill="#39B54A"><path id="ID0.40728778345510364" d="M42 63v21H21v63H0V0h21v63h21" transform="translate(.5) scale(.28776)"/><path id="ID0.1520094615407288" d="M42 42h21v21H42V42z" transform="translate(.5) scale(.28776)"/><path id="ID0.7291535907424986" d="M42 84h21v21H42V84z" transform="translate(.5) scale(.28776)"/><path id="ID0.5259091379120946" d="M63 21h21v21H63V21z" transform="translate(.5) scale(.28776)"/><path id="ID0.5651258090510964" d="M63 105h21v21H63v-21z" transform="translate(.5) scale(.28776)"/><path id="ID0.11839373270049691" d="M84 0h21v21H84V0z" transform="translate(.5) scale(.28776)"/><path id="ID0.7053913832642138" d="M84 126h21v21H84v-21z" transform="translate(.5) scale(.28776)"/></g></svg>