<svg width="120" height="120" viewBox="0 0 120 120" xmlns="http://www.w3.org/2000/svg" xmlns:xlink="http://www.w3.org/1999/xlink"><defs><path id="a" d="M.758.71h21.9v27.908H.759z"/><path id="c" d="M.698.732h9.845v17.573H.698z"/></defs><g fill="none" fill-rule="evenodd"><path d="M64.39 29.897c.031-1.127-.777-2.18-1.655-2.098-.953.09-1.315.784-1.417 1.608-.13 1.045.7 2.178 1.553 2.217.8.035 1.493-.75 1.52-1.727m22.324 7.406c.03-1.134-.775-2.055-1.761-2.01-.886.04-1.566.913-1.546 1.987.016.97.67 1.732 1.515 1.764.946.037 1.764-.758 1.792-1.74m-19.032 6.954c1.454-.919 2.037-2.285 2.44-3.715.254-.906-.117-1.819-.99-2.136-2.065-.752-4.21-1.184-6.425-.97-.115 1.69 1.903 4.417 4.975 6.821m19.047 4.625c-.02-2.152-2.149-4.637-3.947-4.603-1.868.033-3.918 2.261-3.841 4.173.075 1.835 2.33 4.053 4.148 3.953 1.73-.094 3.972-1.038 3.64-3.523M57.29 37.894c-.012-.177.006-.54-.061-.89-.694-3.61-3.51-4.687-6.35-2.435-.055.045-.113.088-.167.136-1.403 1.218-2.038 3.966-1.276 5.522.812 1.657 2.57 2.591 4.255 2.26 2.28-.447 3.574-2.033 3.598-4.593m-12.022 9.792c-.241-1.257-.4-2.539-.74-3.771-2.211-8.031-.67-15.225 4.487-21.802 4.137-5.274 9.52-8.894 15.261-12.092A52.961 52.961 0 0 1 70.3 7.167c3.066-1.231 6.244-1.66 9.508-.748.476.132.98.173 1.783.309l-.523-6.58.5-.147c1.97 1.486 1.372 4.241 2.723 6.17 1.408-1.625 2.256-3.675 4.172-5.007 1.166 1.72-.34 3.054-.464 4.843l4.38-2.406c-.433 3.019-3.276 3.616-4.565 5.865.656.544 1.555 1.01 2.03 1.747.77 1.19 1.4 2.511 1.845 3.858 1.442 4.35 2.92 8.697 4.111 13.118 1.503 5.585 2.083 11.32.703 16.994-1.283 5.276-4.38 9.59-8.323 13.306-.404.38-.737.834-1.104 1.254a3182.84 3182.84 0 0 0-3.83 1.738c-3.552.805-6.967 2.031-10.689 2.331-3.235.26-6.262.174-9.263-.991-1.005-.39-2.005-.799-3.03-1.128-3.396-1.093-6.375-2.775-8.67-5.593-.85-1.046-1.97-1.874-2.968-2.8-.3-1.836-1.875-4.468-3.36-5.614" fill="#F3E14C"/><path d="M60.737 95.501c4.59.268 8.455-1.618 11.989-4.401 4.38-3.452 4.78-7.51 3.44-12.301-.848-3.035-3.003-5.144-5.109-7.313-2.203-2.269-4.943-3.626-7.983-3.867-3.002-.238-6.049-.618-8.961 1.321-3.326 2.214-5.82 5.75-5.925 9.77a10.766 10.766 0 0 1-.203 1.694c-.812 4.316.472 8.082 3.21 11.363 2.436 2.92 5.77 3.855 9.542 3.734m2.79 5.137c-3 .23-5.921-.327-8.843-.869-1.132-.42-2.265-.843-3.398-1.265a2809.803 2809.803 0 0 0-4.344-3.085c-5.598-3.967-8.247-9.504-8.7-16.203-.108-1.633-.177-3.269-.264-4.902.184-.893.376-1.784.553-2.679 1.03-5.23 3.784-9.674 6.564-14.093.593-.943 1.493-1.694 2.252-2.533.254.112.573.163.754.347 1.248 1.28 2.454 2.6 3.702 3.882 4.582 4.702 10.25 6.963 16.757 6.918 2.977-.021 5.95-.627 8.924-.972 2.062-.24 4.098-.582 5.983-1.523.176-.087.425-.03.641-.04.326.362.778.672.955 1.095.848 2.03 1.861 4.036 2.356 6.159.476 2.049.73 4.269.467 6.337-.303 2.366-1.292 4.644-1.975 6.962-.179.607-.327 1.223-.49 1.835-.213.183-.52.322-.625.553-1.615 3.588-4.701 5.916-7.442 8.51-2.06 1.95-4.739 2.918-7.36 3.92-.995.38-1.957.847-2.935 1.276l-3.532.37" fill="#F3D54C"/><path d="M47.347 55.009c-.758.839-1.659 1.59-2.252 2.533-2.78 4.419-5.534 8.863-6.563 14.094-.177.894-.37 1.785-.553 2.678-2.161.771-4.288 1.574-6.678 1.478-3.073-.123-3.702-.497-4.6-3.575-.665.048-1.389.007-2.06.171-1.285.315-2.433-.052-3.538-.578-1.763-.838-2.14-2.84-.78-4.262.679-.709 1.518-1.267 2.59-2.142-2.955-1.08-4.93-3.049-6.867-5.073-1.54-1.61-2.118-3.542-2.039-5.701.059-1.588.667-2.242 2.288-2.148 1.034.059 2.047.5 3.06.797.197.057.366.228.531.365 3.41 2.83 7.337 2.89 11.226 1.598 3.878-1.289 7.642-2.959 11.339-4.706 1.135-.536 1.888-1.878 2.816-2.851 1.484 1.144 3.06 3.778 3.36 5.613l-1.28 1.709" fill="#F2E26C"/><g transform="translate(82.489 59.034)"><mask id="b" fill="#fff"><use xlink:href="#a"/></mask><path d="M2.933 26.975c.162-.612.31-1.227.49-1.835.682-2.318 1.67-4.596 1.974-6.962.264-2.068.01-4.288-.467-6.337-.494-2.123-1.507-4.128-2.357-6.159-.175-.423-.628-.733-.953-1.095l-.862-2.14c1.277-.58 2.552-1.16 3.83-1.738 1.994 4.414 4.817 8.25 8.385 11.511 1.63 1.489 3.495 2.72 5.209 4.122 1.105.904 2.131 1.903 3.183 2.87.21.194.41.412.552.656.508.86 1.084 1.724.49 2.777-.463.818-1.897 1.418-3.026 1.182-.695-.146-1.353-.463-2.036-.674-.607-.186-1.228-.332-1.842-.496l-.22-.162.168.213c.013 1.067.092 2.137.02 3.198-.086 1.261-.533 1.71-1.793 1.542-1.247-.167-2.456-.627-3.674-.957-2.451 2.686-4.255 2.807-7.07.484" fill="#F2E26C" mask="url(#b)"/></g><g transform="translate(43.644 100.729)"><mask id="d" fill="#fff"><use xlink:href="#c"/></mask><path d="M10.543 1.635c-.158 1.63-.188 3.287-.503 4.887-.494 2.498-.562 4.95-.058 7.451.187.925.544 1.96-.34 3.018l-1.955-.63c-.125.237-.212.525-.397.722-.402.432-.855.818-1.287 1.223-.4-.464-.862-.89-1.18-1.403-.25-.407-.323-.921-.47-1.368-2.445.154-2.445.154-3.655-.36.315-.56.547-1.175.945-1.654C3.823 10.9 4.61 7.7 5.538 4.546c.381-1.293.91-2.544 1.373-3.814 1.211.3 2.422.602 3.632.903" fill="#F3B64F" mask="url(#d)"/></g><path d="M67.678 102.81c.844 1.774 1.668 3.56 2.538 5.322.838 1.695 1.723 3.366 2.737 5.341l-2.585.001-.28-.188.037.433c-.023.212.008.449-.08.63-.202.42-.391 1.052-.72 1.149-.33.095-.868-.294-1.228-.58-.315-.25-.509-.65-.828-1.08-1.318.677-1.51 2.575-3.318 2.755-.434-2.336.399-4.549.29-6.779-.107-2.2-.229-4.4-.344-6.6l3.78-.405" fill="#F3B64F"/><path d="M54.187 102.364l-3.632-.903.731-2.956 3.398 1.264-.497 2.595" fill="#F2AE2B"/><path d="M67.678 102.81l-3.781.403-.371-2.576 3.533-.37.619 2.542" fill="#F2A223"/><path d="M83.247 61.481l.861 2.14c-.215.01-.465-.046-.64.041-1.886.94-3.922 1.283-5.985 1.523-2.973.343-5.946.95-8.923.97-6.506.046-12.174-2.215-16.758-6.917-1.247-1.282-2.452-2.603-3.701-3.881-.181-.185-.5-.235-.754-.348l1.28-1.708c.997.926 2.117 1.754 2.968 2.798 2.294 2.818 5.272 4.501 8.67 5.594 1.024.329 2.024.738 3.028 1.127 3.002 1.167 6.03 1.252 9.264.992 3.722-.3 7.137-1.527 10.69-2.331" fill="#F3B64F"/><path d="M57.289 37.894c-.024 2.56-1.318 4.147-3.598 4.595-1.685.329-3.443-.606-4.255-2.262-.762-1.555-.128-4.303 1.276-5.522.054-.048.111-.092.168-.136 2.84-2.251 5.656-1.175 6.349 2.435.067.349.049.714.06.89M86.73 48.883c.332 2.485-1.91 3.428-3.64 3.523-1.819.1-4.074-2.118-4.148-3.953-.076-1.912 1.973-4.14 3.842-4.173 1.797-.034 3.926 2.45 3.946 4.603" fill="#F2B85B"/><path d="M67.683 44.258c-3.072-2.404-5.09-5.131-4.974-6.82 2.214-.215 4.358.217 6.424.969.872.317 1.244 1.23.99 2.136-.403 1.43-.987 2.796-2.44 3.715" fill="#F28E22"/><path d="M86.715 37.303c-.027.982-.846 1.778-1.792 1.741-.845-.031-1.499-.793-1.515-1.764-.02-1.074.66-1.947 1.545-1.987.987-.045 1.792.875 1.762 2.01M64.39 29.897c-.026.976-.718 1.762-1.52 1.727-.852-.039-1.682-1.172-1.552-2.217.102-.824.464-1.518 1.417-1.608.878-.082 1.686.971 1.656 2.098" fill="#464036"/><path d="M60.737 95.501c-3.772.121-7.106-.813-9.543-3.734-2.737-3.28-4.02-7.047-3.21-11.363a10.63 10.63 0 0 0 .204-1.695c.105-4.019 2.599-7.555 5.925-9.769 2.912-1.939 5.96-1.559 8.96-1.32 3.04.24 5.781 1.597 7.984 3.866 2.106 2.169 4.26 4.278 5.11 7.313 1.338 4.792.939 8.85-3.441 12.3-3.534 2.784-7.4 4.67-11.99 4.402" fill="#F1DB75"/><path d="M97.94 81.741l-.167-.212.22.162-.053.05zm-27.815 31.978l-.037-.433.28.189a9.14 9.14 0 0 1-.243.244" fill="#FFF"/></g></svg>