<svg width="124" height="176" viewBox="-1 -1 124 176" xmlns="http://www.w3.org/2000/svg"><path fill="#70CBD2" d="M45.3 96.31h8.75l16.313.299 7.537-.149.5-6.194 1.25-10.42 1.2-5.784 1.1-3.972v-3.848l-.627-3.704-2.173-.938s-2.15-.4-2.25-.25c-.1.15-2.8 1.453-2.8 1.453l-4.2 2.193-4.95 1.829-4.888.456-3.862.416-.6 4.94s.4 2.497.4 2.647c0 .15-.1 2.614-.1 2.614l-.7 1.431-2.278.517h-3.871l-1.55-.987-.4-2.403.15-2.394s2.149-.635 2.4-.63c.25.004 3.561 0 3.561 0h3.39l.471-2.693-.227-2.622-2.796-.924-5.946-1.595-4.15-1.402-1.653-.449-.8.919s-1.05 3.477-1 3.451c.049-.026.45 3.021.45 3.021l.61 3.514 1.226 1.48s.113 2.797.213 3.146c.1.35.7 7.593.7 7.593l1.5 7.241.1 2.198zm31.559 6.799l-17.834-.357H47.55l-4.2.75-1.875 6.367s5.775 2.12 6.225 1.997c.45-.124 9.722 2.498 9.722 2.498s4.003.599 4.228.599c.225 0 3.3-.934 3.3-.934l4.95.41 6.436-2.922 2.789-2.659.406-2.581-1.355-2.851-1.317-.317z"/><path fill="#32429B" d="M79.811 88.691c.301-1.841.719-3.664.985-5.509.247-1.718.369-3.455.527-5.185l.236-3.934c-.025-.025-.058-.044-.075-.072-.346-.54-.802-1.079-1.432-.655-.511.344-1.085.959-1.162 1.516-.277 2.042-.337 4.113-.52 6.169-.154 1.735-.38 3.462-.543 5.197-.115 1.229-.113 2.472-.284 3.692a64.096 64.096 0 0 1-.927 5.034c-.053.236-.586.496-.911.517-1.101.07-2.212.099-3.313.033-2.887-.173-5.77-.403-8.655-.62-.147-.011-.288-.113-.532-.214-.062-.026-.039-.876-.044-.979l-.424-9.325-.424-9.334-.212-4.671c-.047-1.025.179-2.683-.843-3.332-.492-.312-1.171-.244-1.563.187-.207.228-.365.536-.39.845-.011.139.014.278.02.417.005.113-.04.259-.026.364.025.188.22.362.31.543.237.482.288 1.04.28 1.57-.024 1.428.218 2.859.292 4.29.048.943-.013 1.891.01 2.836.032 1.269.078 2.539.153 3.805.153 2.537.329 5.073.5 7.609.031.476.135.952.121 1.426-.02.732-.108 1.463-.177 2.194-.041.444-.102.886-.178 1.525-1.953.069-4.013.152-6.074.211-2.319.067-4.639.083-6.957.185-.789.035-.951-.417-1.072-.997-.389-1.866-.8-3.729-1.157-5.602-.469-2.458-.974-4.914-1.315-7.391-.27-1.96-.27-3.955-.498-5.922-.044-.383-.524-.867-.91-1.007a.261.261 0 0 0-.113-.012l-.578 2.471c.947 5.201.357 10.292 1.992 15.471-2.921-1.586-5.229-.822-7.55.64-2.416 1.524-3.5 3.903-4.038 6.421-.48 2.247-.143 4.679 1.178 6.666.979 1.471 2.259 2.751 3.832 3.58a9.482 9.482 0 0 0 2.521.893c.478.098.964.161 1.452.191.193.013.411-.037.586-.021h.001c.034-.04.074-.08.104-.122.014-.064.024-.13.042-.192l-.237.305c.312-.653.677-1.337.966-2.005.309-.713.383-1.457.58-2.176.188-.689.622-1.4.671-2.107.722.127 1.448.291 2.168.477.072.011.145.016.218.024.333-.045.681-.034.995.047.135-.002.27-.008.405-.018l-.007-.039c.077.009.155.011.232.019l.104-.009a.536.536 0 0 1 .281.041c1.075.102 2.155.163 3.233.172 1.835.016 3.672-.126 5.505-.09.243.005.488.069.732.151.786-.036 1.587-.087 2.343-.015.36.035.738.093 1.013.324.331.043.631.277.631.707v.849c0 .016-.007.03-.009.045.11.269.141.603.134.987-.021 1.039-.084 2.085-.01 3.119.041.583.05 1.174-.053 1.751-.069.395-.107 1 .371 1.174.614.223 1.328-.095 1.785-.508.469-.423.2-.989.101-1.5-.052-.274-.111-.551-.157-.827-.037-.213-.177-.573-.148-.781.167-1.221.305-2.121.41-3.024.108-.915.701-1.21 1.504-1.149 2.144.162 4.282.431 6.429.529 1.573.073 3.163.018 4.732-.116.736-.063 1.285-.074 1.727.044.715-.171 1.465-.367 2.118-.683-.054-.09-.112-.179-.164-.269-.115-.197-.237-.439-.225-.654.108-2.057.156-4.123.396-6.165.224-1.903.572-3.746-1.382-5.033-.163-.108-.217-.508-.189-.757.159-1.418.323-2.836.552-4.242z"/><path fill="#32429B" d="M56.788 74.302c-.085-1.043-.523-1.878-1.67-2.013-.741-.088-1.5-.017-2.251-.017l-.005-.075c-1.987.182-3.972.403-5.962.527-.888.055-1.086.504-1.035 1.246.132 1.904.27 3.808.396 5.713.072 1.088.708 1.274 1.656 1.149 1.062-.139 2.137-.245 3.207-.25 1.276-.007 2.554.187 3.828.151 1.614-.045 2.206-.744 2.112-2.254-.088-1.393-.162-2.786-.276-4.177zm-1.782 2.979c-.082 1.089-.851 1.315-1.792 1.278-.598-.024-1.196-.005-1.794-.005-.597-.001-1.195-.026-1.79.006-.636.035-.953-.118-1.148-.843-.606-2.265-.327-3.093 2.193-2.954 1.052.058 2.128-.05 3.151.143 1.291.244 1.256 1.372 1.18 2.375z"/><path fill="#70CBD2" d="M87.214 123.879l-2.504-6.892-3.861-8.797-.909-1.466-1.236-.231-3.555 1.697s-4.725 2.258-5.175 2.643c-.45.385-3.225 1.408-3.225 1.408l-.674 2.199 1.2 2.876 3.225 7.312 1.725 5.469 2.925 2.547s3.135.618 3.555.459c.42-.159 3.57-.759 3.57-.759s3.075-1.123 3.225-1.348c.15-.225 1.275-2.175 1.275-2.175s.825-1.421.9-1.646c.075-.225-.461-3.296-.461-3.296z"/><path fill="#32429B" d="M80.237 108.188c1.619 3.847 3.287 7.693 4.565 11.659a98.086 98.086 0 0 1 1.53 5.353c.358 1.382.516 3.663 2.458 3.621 1.361-.029.052-3.103-.113-3.716a99.179 99.179 0 0 0-2.314-7.419c-.886-2.506-1.834-5-2.941-7.413-.714-1.557-1.712-2.984-2.598-4.463-.653.316-1.404.512-2.118.683.668.177 1.09.65 1.531 1.695zm-8.419 16.658c-1.294-3.545-2.861-6.959-4.866-10.177-.531-.852-1.2-1.639-2.058-2.176-.315-.197-.578-.51-.971-.541-.371-.03-.642.21-.736.559-.166.614.018 1.41.304 1.966.067.131.147.277.227.393.171.252.47.416.658.662 1.03 1.349 2.174 2.677 2.88 4.195a163.431 163.431 0 0 1 3.146 7.244c.501 1.231.93 2.507 1.473 3.72.328.734.617 1.837 1.675 1.626.518-.103.557-.351.551-.897-.01-.917-.665-1.987-.967-2.858a240.681 240.681 0 0 0-1.316-3.716z"/><path fill="#70CBD2" d="M39.901 64.148L35.45 65.6 31 67.993l-4.06 3.596-1.19 1.844-.251 2.054.301 1.946 1.4 2.414 2.35 1.249 2.8.637 1.881-.424 2.069-1.462 1.445-1.626 3.105-2.536 1.037-.837.432-2.079 1.05-3.109.431-2.266s-.4-1.854-.45-2.004c-.05-.15-.836-1.498-.836-1.498l-1.346-.27-1.267.526z"/><path fill="#32429B" d="M27.938 72.187a3.81 3.81 0 0 1 .128-.166c1.062-1.304 2.43-2.401 3.844-3.301 2.812-1.789 6.021-2.818 9.213-3.697.39-.107.78-.212 1.17-.316.092-.025.193-.033.294-.037.857-1.096-1.224-2.257-2.872-1.737l.031.045c-.799.244-1.572.427-2.305.715-1.659.651-3.336 1.278-4.932 2.062-1.097.539-2.033 1.397-3.109 1.987-1.416.777-2.632 1.87-3.637 3.127-.491.614-1.837 2.62-.615 3.179 1.413.646 2.1-.922 2.79-1.861zm7.152 7.83l-.296.253 1.556 1.356c.336-.349.63-.72.851-1.124 1.083-1.983 3.142-2.475 4.732-3.96l.003.023.578-2.47c-.268.022-.663.35-.953.559-.662.476-1.313.973-1.936 1.5-1.514 1.283-3.051 2.547-4.533 3.867-.57.508-1.609 2.035-.243 2.307.535.107 1.036-.195 1.336-.556.415-.498.225-.937.116-1.542"/><path fill="#70CBD2" d="M30.3 85.908l-3.36-2.846-3.69-2.697-.75-1.319.825-2.377.825-2.459 1.6-.767h2.15l2.4.662 2.55 2.363 1.944 2.108v1.1l.231 2.068-1.511 2.067-3.214 2.097"/><path fill="#BDDD9D" d="M29.7 87.107l-2.25-2.81-3.499-3.42-1.451-1.019-1.125.883-1.5 3.22-1.685 2.846h-.725s-2.839-.599-3.064-.524c-.225.075-4.125.824-4.125.824l-2.476.974-2.475 1.861-2.175 2.484-.9 3.116-.675 4.675 1.022 4.316 2.428 3.668 3.6 2.204 5.55 1.472s4.725-.423 4.95-.348c.225.075 3.825-1.798 3.825-1.798l3.15-2.472 1.5-4.495-.15-3.746-1.275-2.397-1.526-2.023v-1.773l2.801-2.883 2.25-2.835z"/><path fill="#32429B" d="M25.535 74.087c.357.305 1.27-.086 1.51-.399.263-.343.268-.923.106-1.31-.249-.594-.955-.931-1.568-.691-.658.258-1.069 1.193-1.392 1.762-2.008 3.53-3.624 7.284-5.392 10.95-.194.402-.423.688-.71.841-.563.738-1.954.52-3.207.219-.754.042-1.51.028-2.266.014-1.446.34-2.878.727-4.217 1.313-3.46 1.517-5.973 4.095-7.053 7.846a31.74 31.74 0 0 0-.62 2.442c-.478 2.356-.834 4.729.14 7.047.98 2.335 2.217 4.537 4.265 6.097 1.485 1.132 3.018 2.33 4.725 3.015 3.106 1.248 6.441.921 9.487-.124 1.79-.614 3.476-1.55 5.141-2.526 1.842-1.775 3.329-3.889 4.218-6.195.01-.415.034-.829.12-1.228.681-3.162-.065-5.865-2.342-8.206-.355-.365-.547-1.404-.293-1.759 1.168-1.629 2.611-3.06 3.782-4.687 1.296-1.802 2.563-3.573 4.383-4.921a8.758 8.758 0 0 0 1.793-1.744c.407-.519 1.14-.854.414-1.513-.348-.315-.767-.405-1.225-.228-.485.187-1.067.915-1.475 1.261a243.08 243.08 0 0 0-2.033 1.751c-.502.436-.9.99-1.374 1.521-.961-.888-1.83-1.793-2.803-2.566-.988-.784-2.012-1.581-3.142-2.109-1.048-.49-1.096-1.086-.58-1.855.971-1.448 1.907-2.93 2.948-4.326l-1.87-1.627-.046.066.576 1.869zm1.954 14.807c-1.016.953-1.949 1.993-2.917 2.997-.165.172-.3.384-.487.523-1.077.799-1.2 1.525-.386 2.518 1.375 1.672 2.449 3.456 2.915 5.64.546 2.552-.571 6.035-2.658 7.59-4.148 3.091-8.776 3.704-13.618 2.32-1.453-.414-2.893-1.478-3.924-2.618-1.528-1.689-3.156-3.434-3.545-5.86-.119-.741-.23-1.482-.338-2.178.434-3.224.999-6.3 3.138-8.833 2.601-3.081 5.919-4.214 9.863-3.568.496.081.944.435 1.44.558.979.242 1.812.302 2.318-.957.682-1.697 1.63-3.286 2.423-4.941.323-.674.758-.841 1.308-.379 1.358 1.141 2.679 2.326 4.01 3.501.207.183.372.414.573.605 1.244 1.18 1.188 1.86-.115 3.082z"/><path fill="#70CBD2" d="M85.97 64.095l-4.413-1.56-2.853-.738H77.1s-1.468.771-1.38 1.019c.088.247-.024 2.128-.024 2.128s-.304 2.996 0 3.246 1.46 3.78 1.46 3.78l2.895 1.363 4.199 2.349s1.678 2.866 1.914 2.881c.235.016 2.604 2.165 2.604 2.165l1.182.797 1.25-.432 2.4-2.874 2.074-2.736.576-2.053-1.277-2.228-3.573-3.81-5.43-3.297z"/><path fill="#32429B" d="M81.887 74.201c-.972-.326-1.841-.266-1.937.956-.152 1.935 1.593 1.421 2.756 2.049.56.302 1.14.615 1.599 1.044 1.226 1.143 2.4 2.472 3.721 3.496.445-.355 1.085.223 1.352-.584.557-1.685-1.272-2.713-2.361-3.657a21.674 21.674 0 0 0-2.552-1.929c-.502-.318-1.593-1.044-2.578-1.375zm9.392-8.008c-1.567-1.503-3.147-2.951-5.489-3.415-2.292-.454-4.488-1.391-6.722-2.127-.106-.035-.196-.125-.298-.216-.694-.104-1.415-.21-1.726.027-.413.468-.413.974-.375 1.349.07.294.804.664.807.725.084.143.321-.078.404.066 3.615.586 7.055 1.736 10.196 3.639.968.586 1.799 1.426 2.616 2.227.686.671 1.354 1.359 2.02 2.049.503.52 1.187 1.561 1.881 1.747 1.271.339 1.292-1.377.726-2.017-1.258-1.421-2.671-2.74-4.04-4.054z"/><path fill="#70CBD2" d="M91.501 81.537l1.812-2.962 2.361-3.081v-1.848l-.526-.409-2.547-.241s-1.7 1.898-1.75 2.147c-.05.25-1 3.087-1 3.087s.3 1.229.3 1.443c0 .215.6 1.613.6 1.613l.75.251z"/><path fill="#BDDD9D" d="M98.9 76.142l-1.55-1.098-1.1 1.423-5.2 6.168 6.7 8.34-.05 2.348s-.1 3.346-.05 3.645c.05.3 1.754 4.895 1.754 4.895s2.996 3.147 3.146 3.247c.15.099 3.721 1.248 3.721 1.248l4.179-.32 4.3-1.506 2.8-2.17 3.6-6.821v-4.234l-2.25-5.4-4.15-3.549-3.9-1.482-3.65.229-2.6.881-1.8.372-3-4.717-.9-1.499z"/><path fill="#32429B" d="M122.377 90.908c-.627-2.385-1.635-4.48-3.203-6.453-1.604-2.017-3.509-3.648-5.787-4.451-3.048-1.074-6.281-1.096-9.188.834-.473.313-.8.39-1.171-.189-.945-1.475-1.968-2.899-2.94-4.356-.718-1.079-1.273-2.3-2.136-3.244a141.27 141.27 0 0 0-2.463-2.612l-1.165 1.756c.151.154.3.313.452.465.473.476.534.815.106 1.423-1.26 1.787-2.408 3.651-3.609 5.479-.252.383-.544.737-.873 1.181-.354-.351-.705-.7-1.054-1.044l-1.357 2.046c.602.587 1.2 1.178 1.784 1.784 2.397 2.488 4.705 5.063 7.03 7.62.143.157.158.494.129.734-.138 1.161-.216 2.341-.429 3.487.031.969-.024 1.948.013 2.915.201.729.427 1.45.637 2.175.321.65.658 1.294.91 1.963.132.187.259.379.391.566a22.378 22.378 0 0 1 1.589 1.612c1.394.974 2.786 1.954 4.257 2.793 1.881 1.074 4.048.915 6.065.453 1.764-.405 3.432-1.225 5.152-1.833 1.435-.509 1.982-1.877 2.944-2.845 1.613-1.62 2.742-3.463 3.391-5.573.663-2.16 1.134-4.374.525-6.686zm-2.222 3.292c-.055 1.777-.943 3.56-1.641 5.269-.382.936-1.115 1.735-1.725 2.571-.277.381-.576.815-.972 1.031-2.487 1.358-5.016 2.625-8.402 2.958-.868-.308-2.149-.704-3.385-1.21-3.31-1.356-4.831-4.053-5.423-7.404-.297-1.683.199-3.232.902-4.73.723-1.537.693-1.531-.6-2.549-.523-.412-.901-1.012-1.325-1.542-1.187-1.485-2.36-2.979-3.546-4.463a1.743 1.743 0 0 0-.437-.389c-1.436-.882-1.593-1.427-.529-2.703 1.267-1.518 2.629-2.957 3.992-4.39.121-.126.739-.048.821.101.453.83.807 1.713 1.207 2.572.097.209.237.399.363.595.671 1.053 1.455 2.051 1.986 3.17.638 1.343 1.878 1.771 2.942.739 2.036-1.972 4.499-2.056 7.036-1.604 3.444.613 5.583 2.845 7.311 5.784 1.168 1.987 1.489 4.118 1.425 6.194z"/><path fill="#70CBD2" d="M41.481 112.239l-2.025 7.326-1.481 6.743v2.695s1.853 2.474 2.154 2.698c.301.225 3.451 1.075 4.651 1.399 1.2.324 4.95.051 5.325 0 .375-.05 2.743-.432 3.45-.575.708-.143 2.55-2.547 2.55-2.547l2.85-8.123 2.705-6.71-1.063-1.947-2.091-1.649-6.75-1.648h-7.867l-1.744 1.113-.664 1.225z"/><path fill="#32429B" d="M41.038 118.364c.669-2.063 1.091-4.206 1.77-6.264.747-2.269 1.677-4.479 2.493-6.727.126-.349.515-.608.532-.951.02-.415-.409-.873-.757-1.026-.632-.278-1.214.018-1.551.603-.169.293-.193.662-.306.983-.148.419-.347.819-.464 1.249-.197.719-.271 1.462-.58 2.176-.297.685-.674 1.386-.991 2.057.025 0 .047.003.071.003-.081.395-.101.712-.212.994-.58 1.475-1.272 2.911-1.753 4.417-.637 1.993-1.164 4.026-1.653 6.062-.31 1.296-.757 2.625-.948 3.944-.106.738-.073 1.771.902 1.755.712-.012.884-.601 1.062-1.169.264-.849.439-1.737.675-2.602.506-1.854 1.118-3.676 1.71-5.504zm22.145-6.044a.47.47 0 0 0-.167-.06c-.232-.033-.573-.034-.794.043-.183.065-.317.225-.449.365-.267.284-.317.753-.476 1.1a3.719 3.719 0 0 1-.327.568c-.101.144-.377.356-.425.512-.273.895-.797 1.767-1.183 2.584a11.32 11.32 0 0 1-.447.836c-.404 1.005-.806 2.011-1.14 3.04a781.094 781.094 0 0 0-1.849 5.799l-.914 2.903c-.253.803-.707 1.802-.218 2.613.241.399.551.537 1.026.451.678-.122.651-.769.827-1.286.199-.582.609-1.074.796-1.675.885-2.843 1.631-5.734 2.628-8.535l.105-.287c.516-1.369 1.196-2.667 1.841-3.978.267-.543.481-1.146.803-1.659.257-.409.772-.654.973-1.09.257-.558.022-1.291-.248-1.793-.09-.167-.198-.356-.362-.451z"/><path fill="#70CBD2" d="M36.3 137.835l8.625 1.873 6.15 1.049 2.4-2.473 1.101-4.045-.281-2.187-1.271-3.209-3.824-1.571-7.959-.974s-2.401-.149-2.621.3c-.221.449-1.346 1.719-1.421 2.245-.075.527-.352 3.673-.551 3.898-.199.224-1.473 4.305-1.361 4.55.112.244 1.013.544 1.013.544z"/><path fill="#BDDD9D" d="M51.825 140.757l-16.05-3.147-2.25 10.725v1.861h-7.2l-6.375 1.648-3.9 4.045-.467 4.72.917 4.42 4.8 3.97 8.4 1.499h10.2l5.934-.974 1.641-5.319 4.35-21.576v-1.872"/><path fill="#32429B" d="M54.521 131.615c-.34.597-.582 1.282-.693 1.63-.563 1.767-1.197 3.512-1.719 5.291-.205.7-.604.744-1.168.648-4.203-.72-8.408-1.435-12.609-2.165-.418-.073-.821-.235-1.186-.343.399-2.36.919-4.581 1.122-6.83.094-1.042 1.091-3.822-.112-4.56-1.504-.921-1.795 2.403-1.961 3.117-.42 1.801-.821 3.608-1.175 5.423-.817 4.179-1.448 8.394-2.105 12.601-.303 1.942-.748 2.338-2.953 2.197-2.617-.166-5.171.068-7.671.934-2.921 1.011-5.445 2.488-6.71 5.47-.883 2.084-1.872 4.128-1.441 6.555.711 4.006 3.073 6.563 6.719 8.058 2.891 1.184 5.799 2.302 9.053 1.757.761-.128 1.581.158 2.372.145 4.059-.064 8.125-.039 12.171-.307 1.872-.124 3.117-1.95 3.251-3.919.022-.316.109-.63.18-.941.469-2.05.957-4.096 1.411-6.15.516-2.335.959-4.686 1.516-7.01.404-1.685 1.008-3.323 1.4-5.012.429-1.855.636-3.761 1.083-5.611.576-2.382 1.587-4.626 2.317-6.959.333-1.061.554-2.144.788-3.22.115-.528.378-1.683-.382-1.886-.595-.16-1.111.408-1.498 1.087zm-3.582 11.393c-.512 2.125-1.109 4.23-1.623 6.354-.279 1.154-.464 2.331-.662 3.503-.291 1.721-.529 3.45-.838 5.167-.519 2.889-1.09 5.769-1.612 8.656-.194 1.071-1.595 2.244-2.958 2.306-2.979.136-5.96.503-8.939.374a46.358 46.358 0 0 1-3.072.093c-.793.056-1.589.051-2.383-.016-2.073.373-3.996-.66-5.899-1.39-1.912-.736-3.836-1.527-5.2-3.282-1.748-2.25-2.028-4.597-1.004-7.183 1.831-4.623 5.478-6.369 10.19-6.441.44-.007.88-.042 1.32-.064 1.477-.06 2.905-.15 4.13 1.045.838.818 1.672.482 1.883-.707a347.708 347.708 0 0 0 1.722-10.539c.269-1.841.407-2.055 2.263-1.69 3.363.662 6.719 1.358 10.068 2.086.803.174 1.591.48 2.334.835.199.094.346.621.28.893z"/><path fill="#70CBD2" d="M73.65 133.127l1.2 4.166s2.175 1.52 2.4 1.557c.225.036 9-1.237 9-1.237l3.152-.824v-2.323l-.634-4.045-.343-2.098-2.55-.657-3.925-.617s-2.09 1.495-3.245 1.796c-1.155.302-3.555 1.126-3.63 1.426-.075.299-1.425 2.856-1.425 2.856z"/><path fill="#BDDD9D" d="M89.402 136.788L75.6 138.85l2.576 12.247 2.524 13.859 1.25 7.117 2.65.974s8.7.374 9 0c.3-.375 10.575-3.072 10.575-3.072l5.1-4.869v-5.169l-3.175-5.881-5.525-4.981-3.525-.737h-3.9l-1.35-1.361-1.8-10.188h-.598v-.001z"/><path fill="#32429B" d="M88.4 133.303c.021.077.023.16.048.235.746 2.126.912 2.222-1.87 2.653-2.195.339-4.376.772-6.563 1.164-.157.028-.315.055-.469.094-2.413.618-3.127.341-3.962-1.9-.661-1.774-1.203-3.616-1.971-5.343-.228-.512-.508-.755-1.052-.785-1.626-.089-.161 2.733.071 3.381a77.585 77.585 0 0 1 1.962 6.313c.587 2.21.872 4.499 1.288 6.755.086.469.164.939.238 1.41.391 2.484.51 5.048 1.228 7.432 1.25 4.145 1.567 8.433 2.42 12.632.356 1.75.814 3.513 1.506 5.153.895 2.122 1.329 2.219 3.513 1.724.349-.079.715-.213 1.056-.171 2.607.325 5.171.265 7.77-.271 3.78-.781 7.717-.91 11.097-3.133 1.127-.741 2.538-1.129 3.507-2.018 2.713-2.493 3.017-6.144 2.139-9.307-1.055-3.802-3.494-6.773-6.413-9.338-.974-.856-2.022-1.843-3.208-2.197-1.967-.587-4.067-.756-6.123-1.002-.752-.09-1.311-.204-1.508-1.033-.303-1.268-.735-2.511-.949-3.793-.327-1.963-.381-3.978-.792-5.92a181.446 181.446 0 0 0-1.322-5.742c-.261-1.06-.477-3.969-2.179-3.675-1.139.198-.802 1.441-.605 2.132.431 1.5.75 3.038 1.143 4.55zm1.21 6.886c-.026 1.05.232 2.105.322 3.162.085.981.227 1.977.139 2.948-.135 1.505.919 2.881 2.441 2.935.8.03 1.602.043 2.401.019 4.088-.122 7.289 1.731 9.779 4.739 1.842 2.225 2.996 4.899 3.623 7.743.443 2.006-1.211 5.066-3.002 6.067-2.601 1.455-5.295 2.668-8.23 3.187-2.537.449-5.109.729-7.673.998-1.466.153-2.95.144-4.427.188-1.18.035-2.001-.493-2.264-1.67-.335-1.495-.596-3.007-.903-4.508-.365-1.79-.719-3.583-1.126-5.364-.435-1.897-.925-3.783-1.393-5.672-.029-.116-.112-.23-.108-.342.15-4.901-1.475-9.539-2.181-14.464 1.064-.143 2.077-.304 3.095-.412 2.733-.293 5.468-.559 8.202-.843.975-.102 1.331.264 1.305 1.289z"/><path fill="#DB6FAB" d="M20.089 65.629l1.725-1.349 2.148-4.345 4.896-8.99 4.131-8.24 2.7-7.192 1.875-5.843 1.65-3.746h.825l.525 1.873 2.313 9.364 1.062 2.622 7.125-15.507 8.1 14.159 7.05-17.306 5.175 15.433 6.3-15.433 10.588 22.625 4.862 11.761 2.639 5.694 1.166.449 1.37-23.298-2.175-14.914-3.469-8.46-6.878-7.041-6.153-3.896-12.6-2.922-13.827.45L40.264 3l-8.85 4.42-6.45 6.068-3.6 7.267-2.4 8.091-1.5 11.312.45 14.361 1.2 9.836.975 1.274"/><path fill="#F7B3D1" d="M38.944 26.973l-1.979 5.618-1.35 4.495-2.1 4.87v4.12l1.05 4.869 2.075 4.57 4.6 6.218 7.261 4.12 9.613 1.873 8.775-1.873 11.576-6.817 5.806-7.341 2.493-6.218.45-2.997-3.525-8.315-2.55-5.994-2.144-5.468-1.681-1.574-1.617 3.372-.933 3.745-1.125 2.472-.975 1.948s-.225 1.049-.3 1.274c-.075.225-1.125 1.049-1.125 1.049l-1.05-1.199-1.8-5.619-1.8-7.042-2.396 3.521-1.504 5.544-1.433 4.045-1.07 1.349-.124.899-2.351.225-2.222-4.046-4.199-8.165-1.8 2.771-.989 3.596-1.774 4.345-1.662 2.473-1.125 1.198-1.063-3.071-2.762-7.192-.75-3.147-.421 1.499z"/><path fill="#32429B" d="M99.128 35.233c-.129-2.203-.403-4.403-.72-6.588-.189-1.295-.663-2.547-.879-3.841-.612-3.648-1.491-7.188-3.55-10.341-1.907-2.923-4.448-5.232-7.112-7.422-1.233-1.012-2.42-2.153-3.813-2.885C79.798 2.443 76.346 1.138 72.66.733a97.291 97.291 0 0 0-9.029-.571C61.687.13 59.596.046 57.644.157c-1.906.109-3.949.026-5.857.105-1.505.062-3.382.388-6.188.599-.186.014-.373.038-.561.058-1.786.52-3.567 1.148-5.374 1.544-1.846.787-3.655 1.671-5.459 2.553-3.514 1.719-6.676 3.931-9.125 7.037-1.772 2.247-3.944 5.417-4.807 7.225-.28.587-.481.857-.6 1.099-.39.798-.622 1.496-.878 2.311a37.084 37.084 0 0 0-1.225 5.192c-.966 5.953-1.713 11.939-1.684 17.979.021 4.14.16 8.29.507 12.414.208 2.482.939 4.918 1.391 7.383.179.975.67 1.676 1.627 1.842 1.003.174 1.959.094 2.577-1.008 1.926-3.435 3.949-6.817 5.865-10.259 1.198-2.154 2.275-4.375 3.394-6.571.274-.537.501-1.096.739-1.62 1.108 2.711 1.972 5.409 3.283 7.87 1.163 2.183 2.664 4.188 4.136 6.325a.758.758 0 0 1 .551.31c.777 1.041 2.339 1.836 3.533 2.282.1.038.183.091.252.153.112.035.222.074.323.117 4.423 1.902 8.866 3.655 13.828 3.446.485-.02.875.058 1.193.21a22.057 22.057 0 0 1 1.99-.099l.02-.007c.461-.102.928-.117 1.394-.133.012-.004.019-.013.031-.016.724-.235 1.468-.367 2.222-.45 1.325-.487 2.646-.975 3.956-1.48.838-.324 1.643-.736 2.447-1.137 1.556-.776 3.08-1.622 4.662-2.335 1.056-.854 2.34-1.477 3.251-2.476a1.466 1.466 0 0 0-.101-.086c3.745-3.97 7.103-8.155 8.641-13.581.435.356.715.644.859.988.399.951.727 1.93 1.108 2.888.998 2.51 1.967 5.033 3.032 7.516.719 1.682 1.587 3.286 2.957 4.578.887.837 2.157 1.038 2.425.227.323-.97.66-1.978.715-2.984.287-5.283.563-10.569.69-15.857.074-3.023-.08-6.055-.256-9.076zm-12.882 7.7c-.19 1.586-.681 3.179-1.312 4.657-.951 2.227-2.02 4.422-3.239 6.514-1.645 2.826-4.363 4.616-6.874 6.588-2.058 1.616-4.261 2.968-6.791 3.719-1.448.43-2.908.822-4.358 1.251-4.099 1.214-8.167.829-12.257-.113-3.337-.768-6.374-2.18-9.038-4.255a14.364 14.364 0 0 1-3.462-3.927c-1.676-2.84-3.087-5.838-4.537-8.806-.244-.498-.119-1.171-.191-1.76-.372-3.083.695-5.743 2.108-8.432 1.192-2.27 1.872-4.808 2.778-7.229.096-.257.174-.521.281-.773.022-.053.134-.069.46-.22.318 1.173.618 2.265.91 3.36.431 1.61.845 3.226 1.284 4.835.177.649.344 1.31.621 1.918.21.463.499 1.044.909 1.229.658.299 1.386.082 1.703-.676.783-1.87 1.511-3.763 2.28-5.639.585-1.43 1.17-2.861 1.809-4.267.539-1.184 1.157-2.332 1.837-3.69.524.648 1.134 1.18 1.463 1.85.998 2.033 1.898 4.115 2.814 6.187.656 1.485 1.225 3.01 1.947 4.462.192.386.909.877 1.194.777.668-.233 1.526-.666 1.77-1.244 1.641-3.888 3.154-7.83 4.678-11.767.228-.59.249-1.259.457-1.86.124-.364.422-.669.642-1l.428.043c.375 1.595.744 3.191 1.128 4.784.392 1.624.797 3.246 1.2 4.868.267 1.077.446 2.189.845 3.215.236.604.859 1.522 1.249 1.494.609-.044 1.423-.653 1.695-1.236.635-1.362.965-2.864 1.484-4.286 1.113-3.061 2.265-6.108 3.411-9.156.094-.247.264-.465.516-.902.462.926.886 1.669 1.213 2.452 1.019 2.425 1.968 4.879 3.006 7.295.999 2.324 2.103 4.604 3.101 6.929.387.903.945 1.918.838 2.811zm10.551 4.956c-.215 3.125-.688 6.233-1.056 9.347-.017.138-.102.268-.187.483-.185-.154-.351-.226-.408-.349-1.058-2.314-2.169-4.607-3.135-6.959-1.725-4.2-3.251-8.484-5.067-12.642-1.463-3.35-3.306-6.533-4.843-9.852-.902-1.951-1.531-4.028-2.3-6.041-.271-.708-.523-1.442-.93-2.069-.209-.32-.75-.61-1.126-.593-.719.031-2.288 1.996-2.489 2.686-1.007 3.478-2.063 6.943-3.118 10.407-.073.237-.285.431-.599.888-.443-1.476-.826-2.711-1.184-3.954-.885-3.062-1.735-6.135-2.659-9.186-.125-.415-.589-1.018-.903-1.021-.523-.006-1.314.262-1.527.661-.742 1.39-1.422 2.845-1.875 4.35-1.116 3.703-2.249 7.391-3.924 10.883l-.497.346c-.283-.456-.591-.898-.846-1.369-1.333-2.478-2.65-4.965-3.98-7.446-.49-.914-1.005-1.815-1.495-2.729-.397-.737-.844-1.399-1.831-1.247-1.12.174-1.64.942-1.942 1.958-.553 1.858-1.043 3.742-1.743 5.545-.774 1.994-1.753 3.908-2.732 6.053-.261-.525-.564-.96-.702-1.442-.632-2.215-1.222-4.442-1.819-6.668-.245-.915-.353-1.894-.754-2.734-.226-.474-.926-1.008-1.4-.998-.481.011-1.21.568-1.377 1.045-1.241 3.531-2.294 7.128-3.568 10.647-.604 1.668-1.583 3.2-2.356 4.81-1.585 3.303-3.068 6.658-4.742 9.915-1.27 2.469-2.802 4.802-4.153 7.232-.439.79-.639 1.709-1.008 2.542-.486 1.096-1.03 2.168-1.549 3.25l-.635-.105c-.333-1.448-.84-2.881-.966-4.346-.393-4.552-.825-9.114-.888-13.676-.05-3.606.291-7.234.702-10.824.353-3.079.871-6.166 1.656-9.16.612-2.333 1.711-4.544 2.662-6.78.591-1.388 1.212-2.782 1.99-4.069 1.725-2.852 4.125-5.078 7.028-6.681 2.298-1.269 4.652-2.496 7.106-3.404 1.643-.608 3.508-.612 5.27-.905 1.055-.175 2.096-.459 3.157-.565 1.267-.127 2.549-.092 3.822-.175 1.141-.075 2.276-.295 3.416-.311 2.945-.041 5.892-.028 8.837.016a4.6 4.6 0 0 1 .469.034.735.735 0 0 1 .25-.029c1.135.065 2.271.046 3.405.108.031-.003.063-.004.095-.008a.692.692 0 0 1 .319.035c.085-.001.17-.01.255-.006.981.048 1.981.158 2.923.421 2.412.673 4.794 1.448 7.19 2.177 2.977.904 5.43 2.615 7.6 4.805.597.602 1.47.937 2.048 1.553 1.003 1.072 2.064 2.162 2.764 3.43 1.819 3.294 3.25 6.788 3.897 10.506.607 3.487.95 7.021 1.38 10.538.126 1.025.215 2.063.213 3.096-.004 2.859.056 5.727-.141 8.576z"/><path fill="#FFF" d="M63.904 52.14l-4.664-.999-4.838 1.998-1.48 3.609 2.115 2.783 4.203 2.298 2.793-.484L65 59.531l1.075-3.17-2.171-4.221"/><path fill="#32429B" d="M66.98 56.258c.348 1.745-.531 3.284-1.588 4.784-1.739 2.466-4.293 2.769-6.86 2.193-1.68-.376-3.341-1.304-4.738-2.349-1.773-1.326-2.204-4.236-1.514-6.369.9-2.785 2.89-4.194 5.642-4.443 1.663-.15 3.406-.017 5.049.309 2.965.59 4.336 2.544 4.009 5.875zm-7.203-3.614c-.985-.02-2.011.019-2.889.414-1.011.455-2.154 1.329-2.314 2.506-.218 1.62.114 3.328 2.317 4.216 1.131.456 2.379.751 3.595.839 1.859.136 3.644-1.486 3.867-3.534.107-.98.337-2.218-.29-3.079-.737-1.01-2.437-1.305-3.584-1.342-.23-.007-.465-.015-.702-.02zm10.065-6.339a1.595 1.595 0 0 1-.062.245c-.201.579-.695.809-1.108 1.205-.371.356-.633.498-1.153.242-1.031-.506-1.479-1.955-1.302-3.015.111-.669.991-1.547 1.669-1.708 1.446-.342 2.168 1.851 1.956 3.031zm-21.4.26c-.162-.68-.158-1.48.296-2.055.744-.942 2.075-.522 2.766.279.919 1.064.695 2.583-.177 3.593-.296.343-1.375.494-1.69.233-.54-.446-1.002-1.236-1.195-2.05z"/></svg>