<svg width="120" height="120" viewBox="0 0 120 120" xmlns="http://www.w3.org/2000/svg" xmlns:xlink="http://www.w3.org/1999/xlink"><defs><path id="a" d="M.002 2.257h118.484v113.872H.002z"/></defs><g fill="none" fill-rule="evenodd"><path d="M105.813 110.555c1.803-.186 3.723-.178 5.237-1.18 1.393-.922 2.237-2.478 2.845-4.034 2.195-5.598 1.998-11.807 1.78-17.818-.348-9.36-.696-18.72-1.048-28.077-.442-12.042-.902-24.17-3.546-35.926-1.146-5.094-2.97-10.494-7.285-13.432-3.283-2.238-7.44-2.648-11.408-2.915a308.642 308.642 0 0 0-73.626 3.91c-3.902.68-8.017 1.548-10.904 4.254-3.345 3.14-4.669 7.986-4.878 12.565-1.358 29.574 1.127 52.47 7.03 79.273.538 2.424 1.692 4.882 3.763 6.252 1.738 1.15 3.952 1.096 6.027 1.316 13.28 1.378 62.322-1.722 86.013-4.188" fill="#FFDCA8"/><g transform="translate(0 1.615)"><mask id="b" fill="#fff"><use xlink:href="#a"/></mask><path d="M105.813 111.555c2.736-.243 5.407-.456 7.556-2.35 2.357-2.078 3.449-5.388 4.122-8.36 1.696-7.541.774-15.546.492-23.2-.623-16.625-.476-33.533-3.143-49.989-1.015-6.267-2.195-13.378-6.4-18.41-4.269-5.11-10.621-5.942-16.888-6.349-17.319-1.13-34.742-.758-51.999 1.057-8.024.84-16.215 1.746-24.104 3.492C9.472 8.77 4.66 11.777 2.206 17.56-.534 24.029.085 31.82.02 38.7a279.63 279.63 0 0 0 .763 23.826c.56 7.359 1.443 14.698 2.578 21.99 1.18 7.557 2.148 15.643 4.459 22.944 3.081 9.778 14.086 8.644 22.448 8.617 25.165-.085 50.52-1.947 75.546-4.522 3.31-.344 3.344-5.566 0-5.225-19.437 2.005-38.985 3.29-58.51 4.087-7.932.326-15.914.662-23.853.333a77.696 77.696 0 0 1-3.407-.213c-4.699-.406-6.627-1.9-7.68-6.445-1.494-6.437-2.682-12.971-3.727-19.498A269.136 269.136 0 0 1 5.25 45.041c-.078-6.852-.418-14.118.56-20.915 1.154-8.02 6.253-10.812 13.646-12.143 14.64-2.629 29.532-4.01 44.396-4.394 7.278-.186 14.559-.12 21.829.205 6.499.294 15.24-.371 19.413 5.652 4.184 6.046 4.83 15.135 5.585 22.223.852 7.908 1.107 15.867 1.402 23.814.305 8.257.615 16.514.92 24.77.136 3.562.334 7.154.078 10.715-.158 2.253-.507 4.502-1.204 6.655-1.025 3.182-2.636 4.397-6.061 4.707-3.318.305-3.353 5.527 0 5.225" fill="#ECC075" mask="url(#b)"/></g><path d="M13.121 74.14c.561-2.598 1.363-5.238 1.742-7.812 1.316-8.771-2.431-17.636-1.65-26.473.659-7.464 4.72-14.559 10.813-18.91 4.021-2.872 8.887-4.525 13.811-4.788 4.521-.244 9.778.038 14.013-1.553 6.17-2.322 8.787-5.314 16.444-4.107 4.73.744 9.12 3.794 13.595 7.89 4.463 4.083 7.94-1.061 13.73-.117 5.354.867 10.707 4.533 11.42 10.378.793 6.511-4.804 12.527-4.03 19.042.453 3.836 3.062 7.087 4.049 10.83 1.765 6.748-2.323 9.616-5.323 14.958-4.451 7.928 1.878 17.54-1.707 25.846-2.57 5.966-10.196 9.175-16.258 6.852-4.986-1.905-8.814-2.431-14.079-3.306-6.41-1.072-12.073-.089-18.576.05-7.595.16-13.324-6.627-20.257-9.747-6.097-2.744-14.164-3.302-17.238-9.247-1.563-3.027-1.238-6.372-.499-9.786" fill="#F9C05F"/><path d="M100.713 75.807c-.851-3.484-2.609-6.762-2.942-10.34-.367-3.986 1.065-7.888 1.916-11.802 1.537-7.057 1.077-14.81-2.713-20.961-3.79-6.151-18.616-11.876-23.481-7.204-4.862 4.668-9.887-3.952-14.818-5.923-3.163-1.265-7.328-2.291-9.477.341-1.579 1.928-1.184 5.032-2.988 6.751-.99.94-2.427 1.235-3.79 1.285-4.06.151-7.966-1.479-12-2.005-4.033-.53-8.853.519-10.594 4.192-2.602 5.509 3.538 11.311 3.77 17.396.263 6.864-6.995 13.483-3.987 19.653 1.126 2.323 3.472 3.802 4.904 5.95 2.996 4.506 1.278 10.46.418 15.805-.851 5.342.376 12.318 5.629 13.618 6.313 1.56 10.726-6.515 16.943-8.411 7.39-2.25 14.795 4.765 22.479 3.929 7.552-.821 12.561-8.83 19.985-10.456 2.803-.611 5.954-.321 8.296-1.982 2.926-2.078 3.294-6.348 2.45-9.836" fill="#FFA22E"/><g fill="#FFA22E"><path d="M67.991 40.68v.005c.623 1.335 1.502 2.531 2.563 3.573.02.023.042.042.066.061a14.829 14.829 0 0 0 2.318 1.835c.02.012.039.02.05.027.384.244.775.469 1.181.678l.217.108c.391.198.782.372 1.185.534.038.016.08.035.12.05 1.873.732 3.859 1.116 5.771 1.07 5.373-.136 10.568-3.547 12.685-8.482a13.146 13.146 0 0 0 1.046-5.28c-.016-4.03-1.742-8.079-4.82-10.711-4.455-3.801-11.38-4.355-16.42-1.355-5.304 3.151-8.21 10.068-6.64 16.068.167.631.403 1.24.678 1.82m34.072 47.586c-.414-4.026-2.772-7.754-6.07-10.057a13.335 13.335 0 0 0-4.947-2.137c-5.265-1.064-11.017 1.277-14.183 5.62a14.425 14.425 0 0 0-1.998 3.934h-.004c-.154.468-.286.944-.402 1.42-.008.043-.016.09-.027.132-.093.422-.17.848-.229 1.277a2.56 2.56 0 0 0-.034.24c-.059.453-.097.902-.12 1.351v.058c-.04.995.03 1.986.19 2.958.003.027.01.062.015.089.364 2.106 1.196 4.1 2.597 5.725 4.038 4.703 11.385 6.248 17.001 3.67 5.323-2.44 8.807-8.45 8.21-14.28M24.946 72.204a12.302 12.302 0 0 0 2.152 1.436c.023.012.043.028.07.04 1.126.584 2.334.99 3.588 1.141.55.066 1.107.093 1.66.062 5.304-.306 10.174-4.51 11.335-9.67 1.11-4.892-1.18-10.39-5.466-13.014-2.954-1.815-6.712-2.148-10.003-1.088a11.353 11.353 0 0 0-4.021 2.253c-3.457 3.035-4.855 8.168-3.546 12.581.472 1.572 1.308 3.093 2.4 4.417a.85.85 0 0 0 .077.089c.236.282.488.557.747.824l.147.147c.279.271.562.535.86.782m46.364-3.311c-.336-4.243-3.255-8.199-7.25-9.666a10.525 10.525 0 0 0-4.22-.604c-3.185.186-6.32 1.727-8.264 4.274-2.814 3.689-2.953 9.185-.371 13.045 2.725 4.064 8.322 6.062 12.995 4.564a8.523 8.523 0 0 0 1.413-.616h.003a9.676 9.676 0 0 0 2.714-2.18c.012-.019.03-.034.046-.05a12.17 12.17 0 0 0 1.355-1.92.377.377 0 0 1 .02-.042c.174-.31.332-.631.48-.956.027-.062.05-.12.077-.178.135-.314.26-.635.372-.956.011-.035.027-.07.038-.105.12-.368.225-.743.314-1.126.267-1.158.368-2.342.279-3.484M55.248 86.021c-.043-.108-.093-.22-.135-.333a15.287 15.287 0 0 0-2.002-3.546l-.023-.023a12.88 12.88 0 0 0-1.75-1.889c-.023-.02-.042-.043-.065-.062a13.208 13.208 0 0 0-2.149-1.537 14.149 14.149 0 0 0-4.986-1.707c-2.887-.43-5.83-.468-8.562.678-2.687 1.13-5.01 3.135-6.492 5.655-3.039 5.16-1.947 11.749 1.68 16.312 3.999 5.052 11.052 7.228 17.017 4.522 6.538-2.97 9.735-11.164 7.525-17.888-.015-.062-.035-.116-.058-.182M34.37 44.718l.062.085a13.267 13.267 0 0 0 3.759 3.558l.019.02a15.331 15.331 0 0 0 3.712 1.68h.004c.112.038.225.073.345.108.062.019.123.03.178.042 6.894 1.61 14.783-2.295 17.164-9.062 2.175-6.186-.616-13.014-5.993-16.56-4.87-3.209-11.531-3.72-16.405-.24a13.725 13.725 0 0 0-5.055 6.96c-.902 2.826-.612 5.749.07 8.594a14.096 14.096 0 0 0 2.14 4.815"/><path d="M74.153 69.26c.108.115.228.228.34.336.214.21.434.407.666.592.124.113.252.217.384.318.329.248.666.476 1.018.685.12.074.251.135.375.201.275.155.562.294.852.422.17.078.344.143.522.213a18.218 18.218 0 0 0 1.328.434c.38.104.767.185 1.161.251 0-.004.004-.007.004-.007.101.015.194.042.29.058.055.007.11.011.156.015 5.837.588 11.899-3.46 13.138-9.275 1.122-5.31-1.901-10.626-6.697-12.968-4.34-2.117-9.863-1.827-13.494 1.553a11.369 11.369 0 0 0-3.418 6.263c-.438 2.412.112 4.788.975 7.049.41 1.08.956 2.048 1.603 2.915 0 .004 0 .004-.004.008.251.329.522.638.801.936"/></g><path d="M96.94 32.247c-.015-4.03-1.745-8.082-4.823-10.707-4.463-3.805-11.38-4.359-16.42-1.363-5.307 3.151-8.21 10.077-6.639 16.069 1.572 5.988 8.218 9.913 14.152 9.762 5.365-.135 10.564-3.542 12.682-8.48.716-1.665 1.053-3.473 1.049-5.28" fill="#242166"/><path d="M79.211 35.559c-3.534-2.288-7.223-.414-9.48 2.512 1.676 3.596 5.234 6.232 9.097 7.347 2.57-3.012 4.409-7.25.383-9.86" fill="#242166"/><path d="M86.284 35.589c.004-.995.426-1.994 1.192-2.644 1.1-.94 2.807-1.076 4.053-.337 1.308.782 2.032 2.49 1.641 3.972-.383 1.482-2.028 2.45-3.495 2.411-1.328-.034-2.61-.874-3.136-2.098a3.335 3.335 0 0 1-.255-1.304" fill="#080635"/><path d="M74.467 32.24c1.583-1.092 3.352-2.025 5.183-2.613 1.734-.546 3.883-.271 5.195-1.626.871-.89.635-2.28-.375-2.934-1.967-1.274-4.723.182-6.57 1.169-2.043 1.088-3.607 2.632-4.912 4.525-.604.875.6 2.083 1.479 1.479" fill="#FFF"/><path d="M97.727 75.599c3.31 2.307 5.663 6.027 6.073 10.053.597 5.833-2.883 11.841-8.214 14.287-5.605 2.575-12.948 1.034-16.99-3.67-4.033-4.695-3.487-12.39.012-17.194 3.163-4.336 8.915-6.674 14.187-5.617 1.777.36 3.45 1.107 4.932 2.14" fill="#242166"/><path d="M84.934 88.308c-.123 4.204-3.77 6.182-7.459 6.372-2.001-3.422-2.152-7.85-.87-11.664 3.94-.402 8.473.492 8.33 5.292" fill="#242166"/><path d="M88.923 82.468c.824.565 1.889.782 2.853.522 1.405-.371 2.485-1.703 2.582-3.147.108-1.52-.895-3.085-2.335-3.607-1.44-.52-3.17.282-3.971 1.51-.724 1.11-.767 2.643-.058 3.77.24.379.561.704.929.952" fill="#080635"/><path d="M84.969 94.096c1.8-.685 3.572-1.607 5.094-2.783 1.436-1.111 2.43-3.04 4.293-3.349 1.227-.209 2.23.767 2.194 1.978-.065 2.338-2.83 3.775-4.695 4.738-2.056 1.069-4.216 1.475-6.507 1.475-1.069-.004-1.378-1.68-.38-2.06" fill="#FFF"/><path d="M30.026 48.499c3.29-1.053 7.05-.724 10.003 1.087 4.281 2.625 6.565 8.118 5.466 13.018-1.165 5.16-6.031 9.36-11.334 9.674-5.292.302-10.255-4.072-11.702-8.946-1.317-4.409.08-9.546 3.542-12.584a11.394 11.394 0 0 1 4.025-2.25" fill="#242166"/><path d="M32.03 63.816c2.806 2.272 2.257 5.775.464 8.392-3.375-.414-6.46-2.617-8.392-5.466 1.77-2.887 4.734-5.516 7.928-2.926" fill="#242166"/><path d="M30.129 58.066c.809-.267 1.513-.883 1.838-1.676.48-1.146.132-2.574-.797-3.391-.983-.863-2.57-.991-3.678-.283-1.099.705-1.455 2.304-1.033 3.488.375 1.072 1.405 1.897 2.54 1.994a2.8 2.8 0 0 0 1.13-.132" fill="#080635"/><path d="M35.995 66.802c.469-1.579.76-3.27.747-4.92-.011-1.556-.8-3.228-.046-4.66.495-.94 1.68-1.123 2.485-.472 1.564 1.265 1.103 3.894.79 5.667-.345 1.95-1.185 3.638-2.38 5.198-.554.72-1.855.066-1.596-.813" fill="#FFF"/><path d="M61.58 56.01c-3.186.19-6.317 1.726-8.26 4.273-2.819 3.693-2.954 9.194-.372 13.05 2.721 4.056 8.319 6.061 12.995 4.56 4.664-1.499 7.486-6.926 7.11-11.61-.34-4.238-3.255-8.206-7.25-9.67a10.525 10.525 0 0 0-4.223-.603" fill="#242166"/><path d="M64.96 69.89c-1.657 2.892-.02 5.73 2.392 7.39 2.775-1.482 4.703-4.409 5.423-7.51-2.497-1.9-5.926-3.181-7.816.12" fill="#242166"/><path d="M64.68 64.296c-.786.043-1.595-.252-2.145-.828-.785-.833-.971-2.176-.437-3.194.565-1.068 1.881-1.71 3.07-1.47 1.192.247 2.024 1.501 2.06 2.666.03 1.05-.578 2.102-1.522 2.567a2.6 2.6 0 0 1-1.026.259" fill="#080635"/><path d="M62.537 73.785c-.93-1.208-1.746-2.563-2.288-3.991-.507-1.344-.38-3.055-1.506-4.038-.743-.642-1.83-.402-2.303.426-.925 1.61.344 3.724 1.204 5.148.948 1.568 2.233 2.737 3.786 3.685.723.446 1.625-.56 1.107-1.23" fill="#FFF"/><path d="M57.044 83.59c-.012-.061-.035-.12-.058-.181-1.866-4.96-5.815-8.315-11.102-9.097-2.892-.426-5.834-.469-8.567.681a13.71 13.71 0 0 0-6.491 5.648c-3.039 5.164-1.947 11.752 1.672 16.316 4.006 5.048 11.06 7.227 17.028 4.521 6.53-2.969 9.728-11.164 7.518-17.888" fill="#242166"/><path d="M52.016 84.358c1.622-.21 3.248-.662 4.835-1.278-1.401-3.495-3.863-6.162-7.111-7.641-1.08 1.072-2.028 2.249-2.644 3.565-1.769 3.743 1.564 5.783 4.92 5.354" fill="#242166"/><path d="M36.28 89.442c1.822.829 3.978.163 5.21-1.378 1.107-1.401 1.44-3.414.51-4.993a4.231 4.231 0 0 0-1.985-1.73c-.84-.35-1.738-.341-2.625-.206-1.614.236-2.826 1.262-3.395 2.78a.759.759 0 0 1-.023.054c-.67 2.059.306 4.567 2.307 5.473" fill="#080635"/><path d="M41.44 94.825c2.008.7 3.452 1.382 5.67 1.316 1.959-.058 4.072-.375 5.803-1.308 1.993-1.084 1.2-4.711-1.212-4.467-1.777.174-3.48.747-5.214 1.153-1.707.41-3.356 1.177-5.048 1.533-.948.202-.793 1.498 0 1.773" fill="#FFF"/><path d="M61.35 38.537c2.175-6.182-.612-13.014-5.993-16.56-4.866-3.209-11.52-3.716-16.397-.243a13.78 13.78 0 0 0-5.063 6.967c-.899 2.822-.604 5.745.073 8.594 1.243 5.195 4.936 8.837 10.041 10.262.058.02.12.03.182.042 6.894 1.61 14.776-2.295 17.156-9.062" fill="#242166"/><path d="M44.52 42.522c-.07 1.633-.38 3.29-.852 4.928-3.607-1.096-6.483-3.31-8.233-6.415.968-1.173 2.067-2.214 3.317-2.95 3.573-2.086 5.9 1.054 5.768 4.437" fill="#242166"/><path d="M42.547 24.585a.194.194 0 0 1-.05.019c-1.46.704-2.381 1.997-2.478 3.627-.047.894.023 1.792.441 2.594a4.225 4.225 0 0 0 1.893 1.83c1.653.782 3.635.275 4.932-.948 1.428-1.359 1.9-3.565.917-5.31-1.076-1.913-3.662-2.668-5.655-1.812" fill="#080635"/><path d="M54.016 31.064c.879 1.936 1.68 3.321 1.811 5.54.113 1.95-.019 4.083-.797 5.891-.906 2.083-4.59 1.607-4.556-.817.02-1.78.433-3.534.697-5.295.251-1.734.87-3.45 1.084-5.164.116-.96 1.416-.917 1.76-.155" fill="#FFF"/><path d="M96.12 60.894c1.13-5.315-1.889-10.63-6.689-12.972-4.34-2.113-9.863-1.823-13.498 1.552a11.402 11.402 0 0 0-3.414 6.264c-.442 2.411.116 4.788.975 7.049 1.58 4.142 4.998 6.735 9.34 7.366.055.008.105.012.156.012 5.837.592 11.899-3.46 13.13-9.271" fill="#242166"/><path d="M82.72 65.96c.12 1.35.042 2.744-.175 4.141-3.081-.515-5.679-2.028-7.452-4.393.674-1.069 1.46-2.044 2.412-2.776 2.713-2.094 4.966.233 5.214 3.027" fill="#242166"/><path d="M79.185 51.432l-.04.023c-1.122.732-1.741 1.893-1.648 3.248.054.735.205 1.467.638 2.083a3.508 3.508 0 0 0 1.754 1.3c1.444.469 3.016-.162 3.94-1.304 1.034-1.27 1.193-3.136.198-4.464-1.095-1.451-3.298-1.8-4.842-.886" fill="#080635"/><path d="M89.3 55.537c.922 1.498 1.73 2.543 2.075 4.351.302 1.591.426 3.36-.023 4.924-.519 1.812-3.6 1.815-3.832-.174-.17-1.471-.02-2.958.011-4.432.02-1.448.345-2.927.333-4.355-.003-.802 1.069-.91 1.437-.314M25.294 30.735c-2.28 2.18-3.693 5.35-1.982 8.38.867 1.534 3.615.488 2.93-1.234-.743-1.862-1.413-4.359.1-6.093.628-.716-.348-1.719-1.048-1.053m.824 10.215c-.058.263-.1.51-.085.785.004.178.042.372.034.53-.019.299-.116.589-.096.899.027.43.147.743.313 1.126.252.596 1.15.894 1.727.705.607-.194 1.188-.79 1.126-1.475-.035-.422-.1-.751-.282-1.138-.132-.271-.357-.469-.508-.72-.065-.116-.116-.271-.17-.399-.12-.286-.29-.496-.491-.724-.457-.526-1.417-.252-1.568.41m37.242 1.407c0 1.177-.758 2.377-1.656 3.12-.964.79-2.013.851-3.12 1.281-1.2.46-1.553 2.5 0 2.795 1.896.36 3.79-.79 4.97-2.234 1.204-1.478 1.637-3.081 1.645-4.962.004-1.189-1.835-1.189-1.839 0M48.833 52.593c1.645.58 4.254.425 5.156-1.282.716-1.362-.782-3.116-2.206-2.21-.519.333-.84.82-1.282 1.173-.41.329-.902.348-1.397.31-1.208-.09-1.293 1.637-.271 2.009m19.941-5.273c-.151.386-.391.723-.523 1.133-.108.349-.2.693-.274 1.045-.186.868-.41 1.696-.202 2.567.167.685.867 1.184 1.556 1.184.767 0 1.29-.518 1.553-1.184.302-.747.162-1.68.089-2.47-.031-.38-.082-.766-.151-1.142-.074-.398-.244-.743-.337-1.134-.217-.933-1.42-.75-1.711 0m6.835 26.836c-1.862.608-3.422 1.335-4.704 2.876-1.207 1.452-2.272 3.434-2.214 5.365.054 1.882 3.054 2.478 3.426.465.263-1.432.333-2.764 1.072-4.065.709-1.23 1.765-2.504 3.039-3.17.805-.418.251-1.754-.62-1.471M58.594 84.12c.499.79.84 1.691 1.006 2.62.186.98.02 1.854.434 2.783.422.949 2.105.968 2.52 0 .99-2.287-.747-5.043-2.215-6.754-.824-.956-2.419.29-1.745 1.35m4.808 7.935c-.441 2.067-1.676 4.115-3.476 5.261-2.013 1.27.515 4.107 1.874 2.435 1.846-2.265 2.918-4.564 3.22-7.475.097-.93-1.424-1.126-1.618-.22m4.442-1.834c.081.271.167.503.163.782-.008.368-.05.704.07 1.057.216.662.882 1.091 1.583.902.665-.186 1.087-.914.894-1.584-.105-.367-.31-.627-.523-.92-.17-.24-.244-.465-.337-.744-.379-1.17-2.202-.685-1.85.507m26.858-20.247c2.815.523 6.945-2.66 6.895-5.594-.02-1.28-1.665-2.059-2.594-1.08-.832.887-1.157 2.08-2.001 2.962-.813.851-1.858 1.355-2.71 2.148-.491.453-.282 1.44.41 1.564m5.463-11.016c.84-1.575 1.254-4.056-.07-5.477-.816-.883-2.663-.248-2.527 1.045.093.805.491 1.332.75 2.075.23.65.45 1.308.539 1.997.081.627.944 1.042 1.308.36M93.78 46.189c.542.383.786.526 1.27.99.228.218-.043-.13.127.16.082.135.155.27.233.406.201.352.425.654.681.964.383.476 1.2.557 1.715.325.592-.26.933-.79.968-1.436.108-2.203-2.64-4.17-4.708-3.573-1.033.302-1.095 1.595-.286 2.164M64.253 27.442c1.076-3.514 4.436-5.992 7.885-6.843 2.032-.5 1.126-3.767-.867-3.128-4.576 1.475-7.398 5.001-8.772 9.488-.337 1.122 1.413 1.598 1.754.483m-7.303-9.091c.874.275 1.381.89 1.764 1.607.403.747 1.44.987 2.153.569.731-.434.99-1.417.561-2.153a4.35 4.35 0 0 0-1.905-1.745c-.863-.415-1.649-.434-2.574-.299-1.1.155-.902 1.742 0 2.021M28.457 75.448c-2.554.89-4.602 2.218-5.918 4.676-1.25 2.326-1.65 5.354-.225 7.668.747 1.224 3.081.84 2.907-.785-.364-3.465-.162-8.083 3.782-9.573 1.227-.461.72-2.427-.546-1.986m-7.93-.59c-.02.046-.012.03.003-.043.04-.124.016-.089-.065.105l-.047.03c.05-.034.105-.069.167-.1.096-.05.19-.097.298-.14-.267.11.131-.034.155-.042.278-.089-.12-.007.05 0 .112 0 .22-.004.333 0 .089.004.484.085.093-.011.135.034.255.065.383.12.724.302 1.614-.264 1.881-.922.31-.774.02-1.52-.654-1.985-1.115-.782-2.493-.6-3.526.205-.864.666-1.24 1.715-1.278 2.783-.05 1.424 2.106 1.401 2.207 0" fill="#FFF"/></g></svg>