<svg width="124" height="191" viewBox="-1 -1 124 191" xmlns="http://www.w3.org/2000/svg"><path fill="#65B8E7" d="M46.9 89.344l-.6 5.644v11.638l1.7 12.015.251 3.22 12.149 7.041 2.3.255h.85l13.55-10.744 1.45-5.544.8-12.835-2.036-13.986-1.217-1.619-5.597 1.969-6.8 1.548-9.5.4-6.55-.051-.75 1.049"/><path fill="#EF463C" d="M77.75 111.67l-8.55 1.449-2.4-.724-2.15-.725-3.287 1.149-1.963 1.449-11.8.749.5 6.043 12.3-1.049s1.108 1.299 1.454 1.399c.346.1 2.796-.1 2.946 0 .15.1 4.4-2.148 4.4-2.148l5.4-.621 2.714-.678.436-6.293z"/><path fill="#30419A" d="M61.763 129.694a.325.325 0 0 1 .104-.005c.235.023.54.243.76.335.251.104 1.075.458 1.298.159.111-.15.026-.636-.03-.804-.101-.308-.351-.519-.548-.764-.3-.372-.513-.711-.952-.925-.371-.182-.812-.333-1.232-.298-1.006.083-1.555 1.308-1.493 2.189.022.312.261 1.365.712 1.345.293-.013.749-.643.943-.857.129-.142.253-.336.438-.375z"/><path fill="#FFF" d="M65.05 94.339l-4.3-.5-3.95.5s-2.55 2.697-2.55 2.747c0 .05-.6 4.135-.6 4.135l2.45 3.157 4.05 1.442 4.05.406 3.7-1.257 1.864-2.339v-3.146l-1.114-2.847-3.6-2.298z"/><path fill="#30419A" d="M67.109 93.851c-3.192-1.517-6.478-1.779-9.805-.819-4.263 1.23-5.721 5.376-4.359 8.995 1.015 2.697 4.763 5.805 8.671 5.558 1.457-.186 2.956-.214 4.362-.588 3.53-.939 4.977-3.757 4.896-7.262-.057-2.518-1.232-4.68-3.765-5.884zm1.335 8.717c-.465 1.127-1.339 1.82-2.464 2.168-.86.265-1.755.431-2.643.59-.516.092-1.051.087-1.85.145-2.358-.209-4.675-.995-6.172-3.342-1.554-2.439-.706-5.449 1.906-6.702 3.052-1.465 6.081-1.204 8.984.394 2.163 1.193 3.183 4.459 2.239 6.747z"/><path fill="#30419A" d="M79.93 95.115c-.092-.871-.19-1.742-.292-2.616l-.289-2.484-.147-1.258c-.016-.141-.047-1.18-.142-1.221l.037.016-.537-1.56c-.093-.271-.157-.601-.294-.853-.078-.143-.178-.19-.279-.312-.18-.219-.205-.533-.486-.684-.34-.182-.853-.055-1.163.112-.652.354-.763 1.115-.475 1.727.144.306.19.628.285.953.14.484.345.947.468 1.436.302 1.191.702 2.379.813 3.591.292 3.213.628 6.439.608 9.656-.016 2.676-.647 5.344-.742 8.026-.049 1.361-.661 1.579-1.714 1.675-2.462.225-4.92.5-7.384.703-.305.024-.713-.196-.944-.43-1.105-1.112-2.956-1.477-4.335-.645-1.14.688-2.174 1.552-3.397 2.441-.776-.959-1.959-.441-2.985-.341-2.24.22-4.455.685-6.689.978-1.488.194-1.905-.296-2.029-1.823-.218-2.696-.604-5.38-.763-8.079-.152-2.576-.158-5.164-.122-7.745.023-1.701.248-3.399.352-5.101.029-.469.371-.898.691-1.214.326-.323.823-.471.899-.948a1.405 1.405 0 0 0-.042-.547c-.147-.475-.615-.848-1.067-.997-.374-.124-1.015-.162-1.386.029-.298.153-.571.451-.753.726-.218.331-.163.636-.239 1.003-.058.281-.069.568-.107.852a15.572 15.572 0 0 0-.157 1.641c-.012.478-.145.906-.125 1.392.087 2.054.393 4.097.155 6.15-.06.522-.029 1.058-.048 1.583-.028.768-.024 1.545-.031 2.313-.004.401 0 .803 0 1.204 0 .277-.053.561-.022.837.022.204.117.37.138.573.06.561-.012 1.153-.012 1.715-.001 1.125.11 2.264.682 3.259.198.344.049.885.072 1.334.037.715.048 1.436.136 2.146.148 1.191.355 2.373.519 3.562.051.37-.093.829.079 1.109.279.455.468.962.528 1.493.038.338-.057.713.197.98.377.395 1.144.486 1.662.487 1.29.004 2.534-.287 3.826-.344a208.03 208.03 0 0 0 5.957-.365c.363-.027.714-.201 1.146-.33 1.819 2.303 2.433 2.508 5.125 1.322 1.19-.524 2.198-1.478 3.401-1.947 1.194-.465 2.524-.598 3.805-.819.798-.138 1.613-.147 2.412-.276.346-.055.582-.128.929-.077.384.056.767.04 1.153.039.586-.001 1.074-.152 1.547-.533.312-.251.519-.435.468-.81-.139-1.03-.14-2.021.12-3.043.212-.834.372-1.69.456-2.546.043-.452.087-.905.128-1.357.19-2.055.363-4.112.559-6.168.097-1.027.217-2.053.313-3.08.035-.367-.072-.706-.083-1.075-.015-.497-.042-.994-.06-1.491a33.008 33.008 0 0 0-.117-1.836c-.066-.704-.136-1.406-.209-2.108zm-29.462 25.143c-.457-.034-1.023-.581-1.263-1.035-.343-.647-.444-1.425-.625-2.153-.171-.688.183-1.118.804-1.263 2.113-.496 4.25-.768 6.43-.556.89.087 1.787.112 2.527.157l.316 3.74c-2.665.795-5.387 1.317-8.189 1.11zm13.209.489c-.257.08-.651-.121-.927-.284-1.74-1.025-2.325-3.034-1.819-5.008.507-1.979 2.034-2.583 3.618-3.223.153-.062.376-.016.548.039 1.001.32 2.896 2.876 2.88 3.862-.08 2.882-1.724 3.816-4.3 4.614zm12.786-4.641c-.063.23-.383.484-.633.552-1.621.442-3.25.868-4.895 1.212-.232.05-.758-.333-.812-.587-.215-1.017-.299-2.062-.469-3.404 2.468-.29 4.962-.584 7.508-.882-.229 1.058-.424 2.096-.699 3.109z"/><path fill="#EF463C" d="M80.404 97.761l2.411-9.178-4.552-1.718 2.141 10.896"/><path fill="#65B8E7" d="M83.849 88.354l-2.8 10.032s2.601 1.299 2.8 1.299c.2 0 2.75.349 2.75.349l1.853-.049 1.447-1.299.994-2.098.456-2.748-.456-1.947-2.394-2.046-4.65-1.493z"/><path fill="#30419A" d="M81.571 88.641c.13.064.213.415.173.603a222.491 222.491 0 0 1-.802 3.601c-.116.499-.228 1-.354 1.497-.069.272-.126.526-.382.676-.253.148-.569.153-.83.301a1.766 1.766 0 0 0-.587.56c-.634.951-.564 2.341-.29 3.4.16.619.88 2.423 1.849 1.821.18-.113.186-.335.265-.512.284-.636.718-.874 1.398-.703.433.109.863.242 1.291.357.418.113.786.353 1.214.413.638.091 1.907.798 2.375-.03.15-.265.164-.736-.061-.966-.272-.277-.677-.317-1.01-.485-.345-.174-.637-.377-1.016-.494a75.72 75.72 0 0 1-2.026-.649c-.78-.265-1.025-.772-.804-1.577a204.224 204.224 0 0 0 1.537-5.86c.151-.619.506-.809 1.1-.599.756.268 1.528.463 2.319.598.432.073.917.265 1.357.225.698-.064.706-.84.414-1.319-.449-.74-1.597-.862-2.338-1.144-1.185-.451-2.406-.814-3.574-1.302-.942-.393-1.876-.809-2.807-1.228-.479-.217-.962-.425-1.437-.651-.481-.229-.671-.238-1.02.224-.272.359-.268.801-.078 1.211.308.665.987 1.047 1.686 1.18.409.078.718.084 1.11.252.448.191.893.387 1.328.6z"/><path fill="#EF463C" d="M45.316 89.851l-6.241 2.183 4.958 8.504 1.867-.5V89.851h-.584"/><path fill="#65B8E7" d="M38.299 92.317l4.869 9.271-1.419 1.049-2.18.872-1.819.226-1.679-.676-1.622-.773s-1.4-3.146-1.4-3.296c0-.15-.55-1.708-.55-2.128 0-.419.3-2.267.3-2.267l5.5-2.278z"/><path fill="#30419A" d="M44.453 98.796c-.286.043-.541.017-.68-.218a150.748 150.748 0 0 1-3.139-5.551c-.073-.137.275-.689.521-.774a30.063 30.063 0 0 1 2.261-.67c.606-.155 1.179-.224 1.788-.329.987-.17 1.933-.741 1.919-1.851-.006-.585-.276-.657-.806-.653-.595.006-1.156.066-1.684.334-.477.243-.937.514-1.446.686-1.957.663-3.921 1.308-5.884 1.955-.982.323-1.963.647-2.944.973-.412.138-.879.229-1.275.394-.282.117-.555.413-.751.642-.196.229-.469.61-.218.897.491.563 1.805.353 2.357.07 1.129-.576 2.437-.926 3.625-1.37l3.724 7.554c-.819.381-1.587.823-2.409 1.107-.56.194-1.124.375-1.688.552-.459.144-.914.232-1.288.544-.47.392-1.188 1.331-.341 1.74.282.135.67.148.976.147.412-.002.62-.157.979-.304 1.14-.465 2.44-.697 3.624-1.04.7-.203 1.392-.4 2.071-.651.633-.234 1.389-.085 2.051-.3.487-.159.603-.661.559-1.118-.023-.243-.143-.436-.194-.655-.07-.301.15-.543.164-.844.029-.588.016-1.315-.682-1.481-.283-.067-.77.149-1.19.214z"/><path fill="#65B8E7" d="M32.015 104.978l-4.118-8.631 2.059-1.148 2.331-.427 2.325.427s1.863 3.02 1.913 3.17c.05.149.845 2.485.895 2.697.051.212 0 2.285 0 2.285l-2.772 1.336-2.633.291z"/><path fill="#FFF" d="M27.625 96.097l-5.15 1.773s-1.45.071-1.525.161c-.075.089-1.95-1.335-1.95-1.335l-4.125-2.372H11.65s-4.825 1.913-4.925 1.856C6.626 96.123 3 100.218 3 100.218l-1.3 6.593 2.575 6.019 4.375 3.621 4.675.549 4.85-1.523 3.9-3.546 1.5-4.246 7.95-2.347-3.25-9.091-.65-.15z"/><path fill="#30419A" d="M33.226 104.06c-1.026.413-1.402-.015-1.691-.747-.781-1.98-1.504-3.982-2.239-5.979-.073-.199-.065-.428-.099-.673-.013-.092 2.434-.91 2.671-.999.425-.158.921-.278 1.307-.514.307-.189.63-.224.954-.382.343-.167.558-.372.57-.77.011-.36-.163-.809-.53-.874a1.51 1.51 0 0 0-.097-.013c-.956-.114-1.853.31-2.739.607-.973.326-1.945.652-2.916.982a240.236 240.236 0 0 0-5.805 2.039c-1.133.416-1.82.22-2.68-.603-1.542-1.475-3.256-2.693-5.504-3.051-1.953-.312-3.627.418-5.388.937-4.627 1.364-7.409 4.375-8.488 9.094-.859 3.754.571 6.969 2.296 10.024 1.56 2.763 4.446 4.072 7.249 5.302.551.242 1.259.229 1.886.187 3.247-.212 5.986-1.616 8.415-3.703 1.8-1.545 3.291-3.282 3.668-5.748.039-.258.352-.578.613-.681a46.82 46.82 0 0 1 3.171-1.109c2.222-.699 4.782-.117 6.758-1.772.074-.061.223-.025.331-.055 1.252-.354 3.532-.609 3.864-2.188.091-.433-.134-.547-.521-.64-.735-.179-1.541.12-2.211.333-.958.302-1.911.62-2.845.996zm-10.894 1.972c-.046.737-.121 1.4-.121 2.063 0 1.656-.525 3.309-1.657 4.299-1.8 1.575-3.666 3.151-6.203 3.723-2.829.639-7.464-1.228-8.803-3.677-1.17-2.137-2.044-4.484-2.712-6.834-.474-1.667.123-3.39.895-4.969 1.821-3.722 4.967-5.35 8.939-5.74 2.466-.241 5.247 1.459 6.163 3.816.176.453.585.986 1.067 1.153.206.071.542.004.761.005.285.002.581-.002.848-.112 1.952-.81 3.884-1.665 5.973-2.571l3.03 7.674c-2.685.637-5.149 1.761-8.18 1.17z"/><path fill="#65B8E7" d="M91.95 101.225l2.363-8.1-2.7-1.092-2.729-1.498-2.225 1.273s-1.534 2.473-1.571 2.66c-.037.188-.413 2.51-.375 2.623.038.112 1.887 2.947 1.887 2.947l3.701 1.187h1.649z"/><path fill="#FFF" d="M94.313 93.008l-2.213 8.84 10.425 3.109 1.541 3.934 3.521 2.06 5.813-.262 6.975-4.645 1.275-6.006-.975-2.273-2.775-3.921-6.263-4.021-5.662.344-2.662 1.454-1.238 1.504-.15 1.493-.3.637-6.488-2.473-.824.226"/><path fill="#30419A" d="M92.447 92.958c.168.159.39.418.365.539-.439 2.169-.804 4.075-1.22 5.971-.221 1.01-1.023 1.133-1.906.901a19.13 19.13 0 0 1-1.235-.381 9.42 9.42 0 0 0-.982-.275c-.356-.077-.749-.223-1.113-.225-.239-.001-.305-.013-.452.174-.118.153-.244.401-.256.594-.06.999 1.145.906 1.759 1.205.357.174.609.375 1.02.432a9.722 9.722 0 0 1 1.607.335c1.497.467 3.015.824 4.548 1.154 1 .215 2.012.187 3.03.469 1.078.301 2.586.409 3.232 1.414.411.639.601 1.483.997 2.154.409.696.877 1.356 1.364 1.998 3.197 4.207 10.14 3.483 13.915.437 1.535-1.239 3.2-2.56 4.151-4.219 1.406-2.457 1.631-5.193.468-8.031-1.267-3.09-3.344-5.344-5.954-7.309-1.981-1.49-4.202-1.952-6.533-1.936-2.818.02-5.478.713-7.306 3.096-.512.668-.722 1.565-1.176 2.594-1.121-.565-2.232-1.142-3.359-1.673-1.117-.526-2.374-.629-3.512-1.095-.519-.213-1.041-.591-1.578-.733-.491-.129-.988-.361-1.487-.462-.619-.125-1.207-.447-1.782-.693-.457-.195-1.111-.47-1.517-.039-.696.737.31 1.326.855 1.666.361.225.75.399 1.108.632.404.264.796.549 1.235.756.264.124.526.221.816.263.255.037.532.029.757.174a.988.988 0 0 1 .141.113zm3.128 1.286c1.847.879 3.477 1.617 5.065 2.433.449.231.765.71 1.166 1.046.726.609 1.475.388 2.175-.035.709-.429.46-1.007.279-1.664-.686-2.471-.054-3.738 2.963-4.695 3.586-1.137 6.751.01 9.546 2.431 1.898 1.645 3.289 3.752 3.582 6.089.284 2.27.077 4.831-1.975 6.581-.573.488-1.503.656-1.901 1.226-.473.678-.946.897-1.708 1.074-1.072.251-2.04.951-3.113 1.191-1.721.383-3.457.474-5.17-.31-1.428-.653-2.82-2.82-2.591-4.362.187-1.265-.095-1.636-1.384-1.986-2.833-.769-5.66-1.565-8.748-2.423l1.814-6.596z"/><path fill="#65B8E7" d="M60.001 129.145l-.6-3.65s-4.201-2.46-4.451-2.553c-.249-.094-6.364-.76-6.364-.76l-2.286 2.414s-3.116 8.292-3.133 8.441c-.017.15-4.667 12.836-4.667 12.836l-.45 3.247 2.45 2.048 6.623 3.996 1.98-.35 5.097-10.938 5.1-11.638.701-3.093z"/><path fill="#30419A" d="M40.118 144.022c.642-1.627 1.184-3.292 1.831-4.917.38-.954.9-1.852 1.321-2.79.262-.583.51-1.182.67-1.796.482-1.839.931-3.686 1.367-5.536.484-2.048 2.075-3.455 3.003-5.233.373-.716.932-1.307 1.671-1.647.296-.137.823-.312.618-.741-.158-.328-.671-.462-.984-.563-.509-.166-1.025-.294-1.561-.232-.216.026-.467.086-.651.206-.256.167-.198.316-.223.589-.062.696-.394 1.388-.757 1.973-1.814 2.929-2.861 6.181-4.098 9.348-1.494 3.821-2.875 7.684-4.302 11.53-.248.667-1.181 2.709-.075 3.162a.612.612 0 0 0 .759-.203c.144-.196.192-.453.321-.651a4.66 4.66 0 0 0 .376-.751c.245-.581.483-1.162.714-1.748zm17.966-12.687c-1.35 3.379-2.713 6.753-4.139 10.1l-.146.342a610.312 610.312 0 0 1-2.469 5.69l-1.25 2.837c-.184.416-.354.839-.537 1.256-.141.317-.348.6-.41.951-.056.323-.061.784.239.967.934.567 1.737-1.406 2.024-1.938.608-1.123 1.306-2.2 1.838-3.363 2.283-4.982 4.48-10.003 6.728-15.001.451-1.002.96-1.976 1.44-2.964.292-.601.748-1.521.181-2.101-1.407-1.441-3.138 2.317-3.499 3.224z"/><path fill="#65B8E7" d="M83.099 126.59l-4.599-6.343-1.449-1.349-2.1.55s-2.351.35-2.601.549c-.249.2-4.149 2.611-4.149 2.611l-4.222 3.982s-.928 1.945-.678 2.248c.249.303 1.849 3.246 1.849 3.246l11.901 17.082s1.6 2.298 1.8 2.498c.2.199 2.197.2 2.198.25.001.049 5.401-2.298 5.401-2.298l4.2-2.847.699-1.992-.76-2.77-7.49-15.417z"/><path fill="#30419A" d="M77.331 119.9c1.044 1.436 2.018 2.92 2.989 4.406.917 1.402 1.348 2.906 2.209 4.328 1.352 2.234 2.933 4.15 3.956 6.579a122.357 122.357 0 0 0 1.988 4.419c.289.616.526 1.449.988 1.952.278.3.973.73 1.308.273.347-.473-.125-.772-.273-1.199-.176-.506-.426-.967-.666-1.454-1.752-3.562-3.367-7.194-5.195-10.716-1.411-2.717-2.984-5.36-4.632-7.943a9.321 9.321 0 0 1-.714-1.337c-.195-.457-.265-.952-.443-1.408-.354-.907-1.738-.526-2.327-.135-.39.259-.53.923-.332 1.345.107.227.293.22.506.333.251.133.47.327.638.557zm-3.233 23.751c-1.837-2.529-3.101-5.457-5.029-7.889-.715-.9-1.478-1.769-2.125-2.72-.734-1.08-1.451-2.173-2.268-3.192-.65-.812-1.512-2.057-2.649-2.126-.318-.02-.592.222-.65.538-.064.348.101.773.277 1.068.365.616.96 1.06 1.444 1.579a21.897 21.897 0 0 1 1.535 1.851c.94 1.257 1.777 2.585 2.658 3.883 1.232 1.814 1.711 4.079 3.367 5.635.355.334.844.555 1.119.938.381.529.559 1.201.925 1.743.818 1.213 1.667 2.408 2.504 3.61.585.841 1.013 1.814 2.219 1.625.435-.069.643-.43.72-.851.198-1.086-1.046-2.203-1.687-2.93-.802-.906-1.646-1.78-2.36-2.762z"/><path fill="#65B8E7" d="M79.875 152.387l12.225-6.519s-2.55-2.921-4.8-4.645c-2.25-1.723-6.761 3.578-6.761 3.578l-1.489 2.649v4.488l.825.449z"/><path fill="#FFF" d="M111.525 155.184l-6.15.648-5.775 4.346-7.5-13.545-13.05 6.353 6.596 12.886 5.703 12.213s1.276 4.495 5.101 3.97c3.825-.524 13.575-4.87 13.575-4.87l7.275-4.195 3.225-6.518-1.8-5.068-2.475-3.848-4.725-2.372z"/><path fill="#30419A" d="M120.577 163.757c-.33-2.324-1.349-4.475-2.88-6.281-.933-1.099-1.997-2.147-3.177-2.966-2.089-1.452-4.466-.711-6.762-.602-3.05.144-5.467 1.526-7.586 3.572-.533.515-.873.459-1.206-.178a232.849 232.849 0 0 0-2.007-3.754c-.306-.56-.7-1.076-.96-1.655a145.14 145.14 0 0 1-1.966-4.614c-.148-.36-.204-.76-.278-1.147-.16-.844.236-1.962-1.141-2.195-.176-.031-.352-.281-.458-.468-.36-.642-.726-1.281-1.087-1.923-.294-.526-.598-1.147-1.118-1.493-.205-.136-.578-.509-.807-.157-.301.464.221 1.293.359 1.734.207.667.498 1.281.789 1.917.389.849.509 1.635-.503 2.208-1.775 1.008-3.507 2.093-5.289 3.086-1.441.802-2.929 1.519-4.401 2.267-.233.118-.486.198-.714.288-.087-.067-.187-.104-.197-.158-.226-1.193-.808-3.016-2.098-3.452-.262-.089-.781-.16-.999.068-.216.226-.12.742-.118 1.033.008 1.139.841 2.053 1.414 2.971 1.007 1.61 1.755 3.38 2.623 5.076 1.625 3.177 3.286 6.335 4.869 9.532.865 1.746 1.575 3.57 2.407 5.332 1.393 2.954 2.821 5.89 4.248 8.826 1.615 3.326 5.422 2.627 8.352 1.504 2.072-.794 4.456-1.184 6.382-2.296 1.683-.969 3.436-1.664 5.189-2.51 2.673-1.288 5.616-2.774 7.878-4.72.588-.508.843-1.438 1.151-2.216.158-.4-.006-.93.166-1.318.79-1.789.169-3.581-.075-5.311zm-1.892 5.459c-.354.963-1.154 1.787-1.849 2.593-.753.873-1.654 1.476-2.661 2.01-1.373.729-2.82 1.698-4.276 2.223-1.513.546-3.069 1.047-4.595 1.614-1.359.505-2.687 1.138-4.062 1.597-1.619.54-3.281 1.156-4.964 1.46-1.216.219-1.893-.173-2.74-1.042-1.103-1.133-1.706-2.798-2.484-4.163-.827-1.452-1.681-2.89-2.457-4.371-.542-1.034-.795-2.22-1.193-3.331-.441-1.231-.766-2.525-1.372-3.669-1.29-2.434-2.75-4.78-4.097-7.185a13.072 13.072 0 0 1-1.013-2.373c-.073-.228.165-.711.398-.855.927-.576 1.883-1.122 2.876-1.571 2.6-1.174 5.226-2.29 7.643-4.44 1.089 2.192 2.14 4.217 3.108 6.281.823 1.756 1.558 3.556 2.314 5.343.109.256.046.6.188.825.295.467.594 1.017 1.041 1.279.461.269.962.297 1.59-.199 1.999-1.577 3.433-3.936 6.24-4.438 2.105-.376 4.213-.695 6.3-.234.898.199 1.895.765 2.462 1.472 1.42 1.773 3.227 3.354 3.713 5.719.372 1.813.537 3.699-.11 5.455z"/><path fill="#65B8E7" d="M47.251 155.537l-10.25-6.443 2.15-2.098 1.95-1.798s3.64.5 3.895.65c.255.15 2.105 1.316 2.255 1.557.15.242 1.5 2.588 1.5 2.588l.382 2.493-.282 2.653-.7.648-.9-.25z"/><path fill="#FFF" d="M47.751 156.485l-10.75-6.593-5.75 16.283-.75.45-10.4-2.248s-4.5.2-7.2 2.248-3.8 5.294-4.1 6.293c-.3.999-.702 6.343 2.55 9.84s14.1 5.144 15.401 5.194c1.3.05 6.1 0 7.15-.899 1.05-.899 4.4-7.442 4.4-7.442l4.765-9.34 3.834-8.912s2.15-3.476.85-4.874z"/><path fill="#30419A" d="M48.576 153.688c-.164.373-.395.716-.607 1.093l-9.792-6.152c-.025-.015.431-1.012.47-1.103.135-.316.186-.565.234-.898.073-.499.358-1.348-.128-1.739-.805-.648-1.455 1.25-1.623 1.694-.157.414-.708.663-.99 1.052a2.802 2.802 0 0 0-.493 1.125c-.09.533.102 1.14-.075 1.625-.918 2.502-1.918 4.973-2.881 7.458-.094.242-.127.51-.193.762-.523 1.998-.994 4.012-1.588 5.989-.404 1.343-.509 1.25-1.858.758-1.362-.498-2.793-.817-4.209-1.15-.691-.162-1.438-.101-2.123-.28-1.739-.454-3.47-.503-5.217-.099-2.875.663-5.464 1.861-7.316 4.241-.538.691-.87 1.574-1.174 2.412-.768 2.118-1.601 4.251-.995 6.566.77 2.947 1.663 5.438 3.923 7.568 2.061 1.941 5.367 2.473 7.996 3.266 1.68.508 3.372 1.082 5.1 1.296 2.2.274 4.449.135 6.663.323 1.609.138 2.628-.637 3.352-1.853.954-1.601 1.9-3.234 2.605-4.954 1.601-3.9 3.633-7.582 5.478-11.359.521-1.065.896-2.2 1.387-3.28 1.194-2.635 2.427-5.25 3.623-7.882.357-.785.676-1.588.954-2.403.385-1.129.694-2.281 1.073-3.411.167-.501.341-.982.465-1.491.098-.407.289-.907.062-1.309-.291-.515-.848.021-1.147.24-.5.367-.724 1.321-.976 1.895zm-2.695 5.374c-.352.712-.476 1.536-.705 2.309-.075.249-.13.508-.238.743-.923 2.028-1.811 4.072-2.795 6.068-1.59 3.226-3.267 6.41-4.866 9.633-1.001 2.02-1.722 4.158-2.558 6.247-.386.964-.599 1.494-1.517 2.086-1.463.944-2.66.814-4.291.797-1.856-.02-3.721-.08-5.554-.399-1.933-.337-3.856-1.229-5.776-1.734-1.517-.398-3.015-1.069-4.167-2.134-1.386-1.281-2.86-2.518-3.203-4.421-.391-2.167-.934-4.049-.037-6.198 1.465-3.509 3.87-6.064 7.697-6.868 1.205-.253 2.555-.097 3.79.134 1.533.285 3.048.657 4.551 1.069.721.198 1.486.352 2.152.698.555.287 1.013.707 1.623.891 2.837.86 2.945-3.327 3.33-5.113.434-2.018 1.387-4.138 2.15-6.059.687-1.73 1.485-3.415 2.344-5.367 2.189 1.486 4.298 2.918 6.407 4.347.312.211.619.427.941.619 1.328.791 1.411 1.265.722 2.652z"/><path fill="#FFF" d="M60.75 87.808l-7.1.545-6.05-.545-3.875-.65-7.275-3.092-8.552-5.848-5.473-7.792-2.1-6.818-.766-9.665 2.266-6.743 1.95-4.795 4.35-5.169 7.725-5.17 7.317-3.371 6.033-1.648 9.075-.825 10.275 1.424 11.325 3.746 6.825 5.619 4.649 7.068 2.964 6.568.412 5.319-.9 7.567-2.476 6.968-3.524 5.244-4.726 4.645-8.249 4.642-7.575 2.776H60.75"/><path fill="#FBAE5A" d="M40.15 56.89l-2.4 7.392 1.4 8.891 5.05 9.34L55 87.158l12.5-.849 8.8-5.045 5.65-8.641 1.1-11.288-2.646-7.342-3.804-4.345-15.25-4.146s-7.501 1.049-7.6 1.198c-.1.15-7.95 3.996-7.95 3.996l-5.65 6.194z"/><path fill="#79C8A2" d="M41.6 56.99s4.6.05 4.85 0c.249-.05 6.887-2.348 6.887-2.348l4.912-4.245.995-4.296 3.205 2.547 5.35 5.095s7.6 2.098 7.85 2.148c.25.049 4.551-.6 4.551-.6v-2.198l2.049-1.299s3.801-1.997 4-2.048c.2-.05 2.6-6.892 2.6-6.892l-3.999-7.193-6.45-4.994-4.6-.549-3.9 1.599-2.6 3.346-.5 3.946.05 3.046 1.55 2.847-.3.799-5.15-.2h-4.4L53.338 46.6 46.9 48.848l-.1-4.345-2.7-6.043-5.05-3.746-4.1-.799-7.35 3.796-4.7 6.243v5.644l2.35 4.346 4.7 3.496s5.7.55 6.05.599c.35.05 5.6-1.049 5.6-1.049z"/><path fill="#EF463C" d="M56.3 14.735s-1.9.25-2.05.3c-.15.049-3.4-.95-3.4-.95s-2.851-4.046-2.8-4.195c.05-.15 1.6-5.944 1.6-5.944s5.551-2.048 5.8-1.998c.25.05 5.45 1.049 5.45 1.049l2.55 4.745-.65 4.245-2.65 2.248-3.85.5z"/><path fill="#30419A" d="M49.76 89.229c.732.106 1.463.211 2.195.308 1.987.266 3.991.512 5.995.612 1.187.059 2.377.009 3.56-.093.573-.05 1.126-.096 1.698-.101.627-.006 1.251-.143 1.873-.222.456-.058.909-.138 1.365-.199.885-.121 1.682-.437 2.539-.693.888-.264 1.76-.587 2.608-.961a36.678 36.678 0 0 0 3.466-1.728c.605-.349 1.178-.744 1.803-1.056 1.139-.568 2.289-1.115 3.435-1.676.348-.17.699-.267 1.031-.467.342-.207.665-.44.994-.664 1.211-.826 2.312-1.803 3.338-2.847 2.738-2.786 5.805-6.234 7.398-9.842.576-1.305.964-2.675 1.461-4.009.442-1.192.656-2.437.831-3.706.363-2.646.538-5.007.304-7.69-.089-1.027.013-1.994-.309-2.965a399.568 399.568 0 0 1-1.011-3.089c-.396-1.229-.832-2.461-1.39-3.627-2.665-5.57-6.637-10.473-12.027-13.626-3.695-2.161-7.797-3.596-11.987-4.437-2.721-.547-5.518-.716-8.286-1.02-.749-.083-1.512-.038-2.266-.087-.613-.04-1.014-.258-1.064-1.011-.157-2.361-.334-4.724-.625-7.071-.12-.978.286-1.098 1.078-1.393 1.671-.622 3.512-1.209 4.793-2.356 1.882-1.686 1.913-4.131 1.669-6.597-.273-2.761-3.956-6.948-7.362-6.724-1.839.121-3.69.616-5.451 1.197-1.47.486-2.841 1.157-3.597 2.831-1.09 2.416-1.221 4.866-.411 7.23.789 2.307 2.235 4.21 4.992 4.686 2.019.348 2.028.485 2.273 2.556.207 1.746.361 3.497.564 5.243.106.918-.197 1.351-1.183 1.225a4.73 4.73 0 0 0-1.445.031c-1.848.343-3.717.627-5.524 1.127-2.534.702-5.022 1.567-7.521 2.388-.385.126-.721.398-1.088.585-.627.318-1.291.573-1.886.942-2.16 1.342-4.375 2.613-6.417 4.119-1.499 1.106-2.823 2.477-4.104 3.843-1.146 1.223-2.431 2.459-3.119 3.938-1.039 2.234-2.264 4.376-3.085 6.705-.696 1.974-1.351 4.117-1.339 6.239.009 1.743.034 3.607.204 5.34.58 5.927 2.258 11.312 6.034 15.969 1.299 1.602 2.744 3.126 4.325 4.447 1.428 1.193 3.177 1.994 4.694 3.092a19.94 19.94 0 0 0 4.655 2.485c1.23.465 2.523.908 3.808 1.194.898.199 1.757.513 2.665.68.823.152 1.611.431 2.44.556.801.119 1.596.269 2.409.389zm21.657-5.823c-1.47.741-3.157 1.556-4.717 2.05-.823.26-1.76.333-2.606.574-1.681.478-3.096.246-4.805.252a27.753 27.753 0 0 1-5.242-.462c-3.443-.648-6.775-2.042-9.429-4.361-2.155-1.884-3.597-4.404-4.47-7.182-.348-1.107-.772-2.199-1.015-3.329-.754-3.49-.489-7.109.958-10.389.512-1.159.924-2.123 2.295-2.21 1.799-.115 3.437-.252 5.213-.648 2.656-.591 5.188-1.683 7.604-2.914.423-.216.86-.473 1.177-.816 1.143-1.233 2.292-2.468 3.324-3.793.43-.554.57-1.334.931-2.23.68.73 1.394 1.419 2.018 2.181 2.399 2.93 5.313 5.238 8.98 6.158 2.489.625 5.138 1.291 7.755.155.228-.099.826.203.989.475 1.732 2.888 1.693 6.111 1.6 9.314-.084 2.875-.714 5.672-2.058 8.215-.759 1.437-1.885 2.687-2.889 3.988-1.552 2.012-3.345 3.831-5.613 4.972zM42.83 56.188c1.507-1.783 2.637-3.533 4.164-4.812 1.518-1.271 3.344-2.306 5.2-3.005 1.873-.706 3.949-.874 5.937-1.277.082.173.163.347.243.52-1.178 2.023-2.097 4.237-4.495 5.298-2.116.936-4.186 1.976-6.307 2.901-1.371.598-2.829.661-4.742.375zm19.395-9.459c1.829-.195 3.391-.15 4.982.218 4.641 1.073 9.087 2.428 11.73 7.114-2.58.665-5.079.712-7.617.141-4.212-.946-6.581-4.084-9.095-7.473zM89.5 45.246c.141-1.042.303-1.237.921-.235a17.72 17.72 0 0 1 1.318 2.577c1.258 3.075 1.873 5.734 1.861 9.077-.004.964.062 1.951.002 2.913-.242 3.827-1.8 7.5-3.542 10.832a35.93 35.93 0 0 1-1.721 2.959c-1.162 1.772-2.853 2.934-4.262 4.491-1.053 1.163-2.562 2.348-3.904 3.156-1.649.99-3.378 1.849-5.07 2.767l-.174-.26c.69-.631 1.465-1.193 2.056-1.907 2.231-2.695 4.842-5.007 5.928-8.421 1.088-3.427 1.058-7.084.916-10.638-.12-3.004-1.102-5.739-2.434-8.373-.413-.816-.119-1.116.648-1.22 2.559-.344 4.86-1.752 6.2-3.975.692-1.146 1.079-2.423 1.257-3.743zm-9.407-12.281c1.797 1.48 3.566 3.009 5.223 4.642 1.473 1.452 2.111 3.335 2.18 6.188-.201.814-.326 2.476-1.013 3.86-1.237 2.496-3.69 3.261-6.291 3.526-.3.03-.726-.226-.945-.479-2.143-2.467-4.685-4.273-7.887-5.151-.661-.181-1.238-.821-1.751-1.349-1.628-1.677-1.873-3.756-1.724-5.983.249-3.704 2.524-5.626 5.78-6.643 2.362-.738 4.552-.155 6.428 1.389zM54.907 14.062c-.749.205-1.675.228-2.398-.025-2.36-.824-3.677-2.805-3.343-5.663.09-.778.14-1.599.434-2.306.514-1.242 1.346-2.273 2.716-2.697 1.721-.532 3.331-1.243 5.301-.849 2.587.517 4.763 3.794 4.637 6.078-.086 2.941-1.961 4.34-4.35 5.007-.072.02-.18.061-.218.029-1.111-.929-1.856.174-2.779.426zM42.512 29.831c1.917-.735 3.936-1.247 5.948-1.686 1.831-.399 3.71-.593 5.574-.829.732-.092 1.499-.205 2.072.538.128.165.679.24.833.112.778-.642 1.619-.4 2.463-.312 3.283.343 6.57.648 9.846 1.043.879.106 1.725.478 2.679.879-3.156 1.077-5.266 3.248-5.865 6.353-.551 2.854-.807 5.884 1.577 8.624-6.957-.537-13.247.292-19.512 2.822-.103-7.328-3.941-12.042-10.725-14.542l-.179-.393c1.758-.884 3.461-1.91 5.289-2.609zM24.011 43.712c.824-1.258 1.753-2.456 2.726-3.605 2.496-2.949 5.688-4.575 9.451-4.896 4.083.306 6.522 2.805 8.516 5.87 1.427 2.194 1.611 4.797 1.375 7.231-.159 1.642-1.48 3.114-2.856 4.262-.462.386-.977.731-1.354 1.188-2.741 3.325-6.361 3.667-10.272 3.095-2.667-.39-4.463-1.988-5.909-4.131-1.42-2.104-2.445-4.346-2.349-6.933a4.282 4.282 0 0 1 .672-2.081zm15.485 40.843c-2.024-.995-4.17-1.824-6.014-3.087-5.59-3.828-10.234-8.53-11.784-15.401a51.983 51.983 0 0 1-1.243-10.048c-.051-2.009.819-4.04 1.336-6.33 1.838 3.15 3.332 6.147 6.509 7.831 3.129 1.659 6.364 1.822 9.786 1.169-.414 1.864-.942 3.554-1.137 5.28-.275 2.426-.238 4.851.547 7.246.964 2.942 2.031 5.827 3.622 8.489 1.586 2.655 3.808 4.634 6.613 5.949.973.457 1.952.899 2.881 1.624-.311.043-.631.155-.931.118-3.535-.443-6.971-1.26-10.185-2.84z"/><path fill="#30419A" d="M73.4 65.756c-.402.088-.781.285-1.183.362-2.585.491-5.192.876-7.815 1.09-2.142.174-4.415.508-6.546.433-2.106-.075-4.208-.098-6.297-.33-2.589-.287-5.145-.873-7.894-1.364-.838.944-.656 1.774.847 2.204.75.214 1.554.241 2.335.348 2.976.41 5.943 1.03 8.933 1.166 3.031.137 6.084-.248 9.129-.323 3.537-.086 7.002-.517 10.369-1.719.207-1.74-.307-2.211-1.878-1.867zm-8.353-3.53c.388-.013 1.062-.721 1.07-1.123.026-1.201-.801-2.192-1.534-2.133-.927.074-1.1.637-.832 1.478-.234 1.035.152 1.817 1.296 1.778zm-10.169.018c.396-.061.737-.478.934-.616.008-1.211-.814-2.327-1.474-2.18-.392.087-.924.565-.984.934-.151.92.755 1.982 1.524 1.862z"/></svg>