<svg width="120" height="120" viewBox="0 0 120 120" xmlns="http://www.w3.org/2000/svg"><g fill="none" fill-rule="evenodd"><path fill="#B8B8B8" d="M54.023 11v15.671l9.503 1.841V11z"/><path fill="#E3E3E3" d="M52.816 16.917h11.917V11H52.816z"/><path fill="#8A8A8A" d="M63.527 16.917h-9.504l2.457 2.443h7.047z"/><path fill="#E5B878" d="M2.336 36.802v71.904H69.35V36.78L35.843 19.756z"/><path fill="#AC8A5A" d="M35.843 16.892L2.336 33.985v2.818l33.507-17.047L69.35 36.782v-2.819z"/><path fill="#722200" d="M2.335 108.706h67.016v-8.964H2.335z"/><path fill="#AC8A5A" d="M44.47 83.564H29.252v16.178h31.475z"/><path fill="#391100" d="M29.252 99.742v8.964l40.099.011.001-.39-8.625-8.585z"/><path fill="#3082D8" d="M0 32.493v3.454l35.843-18.893V13.6z"/><path fill="#2462A2" d="M35.843 13.6v3.453l35.844 18.894v-3.454z"/><path fill="#747474" d="M12.84 65.46h7.313V55.433H12.84z"/><path d="M17.127 65.46h3.026V55.433h-3.026v10.025zm-4.287 0h3.027V55.433H12.84v10.025zm-1.259-11.28v12.53h9.831V54.18h-9.83z" fill="#FFF"/><path fill="#747474" d="M32.187 65.46H39.5V55.433h-7.313z"/><path d="M36.474 65.46H39.5V55.433h-3.026v10.025zm-4.287 0h3.026V55.433h-3.026v10.025zm-1.259-11.28v12.53h9.831V54.18h-9.83z" fill="#FFF"/><path fill="#747474" d="M51.462 65.46h7.312V55.433h-7.312z"/><path d="M55.749 65.46h3.026V55.433h-3.026v10.025zm-4.287 0h3.026V55.433h-3.026v10.025zm-1.259-11.28v12.53h9.83V54.18h-9.83z" fill="#FFF"/><path fill="#747474" d="M12.84 85.929h7.313V75.903H12.84z"/><path d="M17.127 85.929h3.026V75.903h-3.026v10.026zm-4.287 0h3.027V75.903H12.84v10.026zm-1.259-11.278v12.53h9.831v-12.53h-9.83z" fill="#FFF"/><path fill="#747474" d="M51.462 85.929h7.312V75.903h-7.312z"/><path d="M55.749 85.929h3.026V75.903h-3.026v10.026zm-4.287 0h3.026V75.903h-3.026v10.026zm-1.259-11.278v12.53h9.83v-12.53h-9.83z" fill="#FFF"/><path fill="#747474" d="M32.187 43.432H39.5V33.406h-7.313z"/><path d="M36.474 43.432H39.5V33.406h-3.026v10.026zm-4.287 0h3.026V33.406h-3.026v10.026zm-1.259-11.279v12.532h9.831V32.153h-9.83z" fill="#FFF"/><path fill="#AC8A5A" d="M41.954 40.849H29.717v3.836l3.04 3.026h13.654v-2.426z"/><path fill="#B8B8B8" d="M29.717 44.685h12.238V40.85H29.717z"/><path fill="#E3E3E3" d="M24.998 90.778h21.726v-2.856H24.998z"/><path fill="#11467F" d="M27.25 108.706h2.002V90.778H27.25z"/><path fill="#0D355F" d="M42.469 108.706h2.002V90.778h-2.002z"/><path fill="#414141" d="M30.348 108.706h11.026V90.778H30.348z"/><path fill="#11467F" d="M27.25 83.564v4.359h8.61v-8.005z"/><path fill="#0D355F" d="M44.47 83.564l-8.61-3.646v8.005h8.61z"/><path fill="#AC8A5A" d="M69.351 108.706h48.374V74.852H69.351z"/><path fill="#3082D8" d="M69.351 74.852h50.379v-2.84H69.35z"/><path fill="#2462A2" d="M69.351 72.012h50.379V56.039H69.35z"/><path fill="#391100" d="M69.351 108.706h48.374v-8.964H69.351z"/><path fill="#11467F" d="M79.46 108.706h28.158v-22.96H79.46z"/><path fill="#0D355F" d="M81.321 84.62H79.46v24.097h1.861V86.473h26.297V84.62z"/><path fill="#18416C" d="M79.46 90.178h1.861v-1.853H79.46z"/><path fill="#2462A2" d="M81.321 90.178h26.297v-1.853H81.321z"/><path fill="#18416C" d="M79.46 93.884h1.861v-1.853H79.46z"/><path fill="#2462A2" d="M81.321 93.884h26.297v-1.853H81.321z"/><path fill="#18416C" d="M79.46 97.59h1.861v-1.853H79.46z"/><path fill="#2462A2" d="M81.321 97.59h26.297v-1.853H81.321zm0 3.705h26.297v-1.853H81.321z"/><path fill="#18416C" d="M79.46 101.295h1.861v-1.853H79.46z"/><path fill="#2462A2" d="M81.321 105h26.297v-1.853H81.321z"/><path fill="#18416C" d="M79.46 105h1.861v-1.852H79.46z"/><path fill="#2462A2" d="M81.321 108.706h26.297v-1.852H81.321z"/><path fill="#18416C" d="M79.46 108.706h1.861v-1.852H79.46z"/></g></svg>