<svg width="120" height="120" viewBox="0 0 120 120" xmlns="http://www.w3.org/2000/svg"><g fill="none" fill-rule="evenodd"><path fill="#686868" d="M40.792 98.215l39.134-.108-2.952-5.578-32.92.09z"/><path d="M77.89 98.113l-17.531.048-17.533.048-.656 16.483s5.897-14.498 18.194-14.489c12.297-.076 18.273 14.389 18.273 14.389l-.746-16.48zM52.138 70.739l15.906-.044-1.622-8.133-10.53.029zm12.084-9.397l-6.708.019 2.463-32.483z" fill="#686868"/><path d="M73.093 84.339c-6.496-15.825-8.918-31.885-9.946-44.411-.867-10.575-1.054-26.345-1.054-26.345l-1.965.005-1.965.006s-.1 15.77-.91 26.35c-.96 12.531-3.294 28.605-9.703 44.465C42.992 95.687 28 120.743 28 120.743l11.298-.031s13.105-26.96 15.945-37.033c5.028-17.832 4.953-45.173 4.953-45.173s.075 27.34 5.199 45.145C68.29 93.71 81.54 120.596 81.54 120.596l11.298-.032S77.711 95.592 73.093 84.34" fill="#A3A3A3"/><path fill="#828282" d="M76.974 92.53l-32.92.09-.012-4.465 32.92-.091zm-8.949-28.747l-15.52.043-.006-2.451 15.52-.043z"/><path fill="#686868" d="M63.29 13.58l-6.709.018-.008-3.297 6.707-.018z"/><path fill="#A3A3A3" d="M61.847 10.286l-3.842.011L57.997 7l3.841-.01z"/><path fill="#A3A3A3" d="M59.58 1.306l.644-.002.015 5.69-.644.002z"/></g></svg>