<svg width="120" height="120" viewBox="0 0 120 120" xmlns="http://www.w3.org/2000/svg" xmlns:xlink="http://www.w3.org/1999/xlink"><defs><path id="a" d="M0 0h120v120H0z"/></defs><g fill="none" fill-rule="evenodd"><mask id="b" fill="#fff"><use xlink:href="#a"/></mask><path d="M120 91.666C120 107.25 107.25 120 91.666 120H28.334C12.75 120 0 107.25 0 91.666V28.333C0 12.75 12.75 0 28.334 0h63.332c15.585 0 28.335 12.75 28.335 28.333v63.333z" fill="#754C28" mask="url(#b)"/><path d="M109.999 84.242c0 14.165-11.591 25.757-25.758 25.757H35.76c-14.167 0-25.758-11.591-25.758-25.757V35.757c0-14.165 11.59-25.756 25.758-25.756h48.48C98.409 10 110 21.59 110 35.757v48.485z" fill="#A87C4F"/><path d="M109.999 85.714c0 13.356-10.928 24.284-24.284 24.284h-51.43c-13.355 0-24.283-10.928-24.283-24.284v-40.32c0-13.357 10.928-24.284 24.283-24.284h51.43c13.355 0 24.284 10.927 24.284 24.284v40.32z" fill="#CEA686"/><path d="M24.545 3.183c-2.387-.796-22.84 4.997-21.818 27.27-1.023 3.637 5.454.454 5.454.454s-.456-17.271 20-24.09c0 0-1.249-2.84-3.636-3.634M2.273 34.545c.684-2.045 5.228-.227 5.228-.227s2.047 8.18-1.135 9.317c-3.184 1.138-4.773-7.045-4.093-9.09m93.709 83.22c2.387.796 22.84-5 21.819-27.273 1.022-3.634-5.455-.452-5.455-.452s.456 17.27-20 24.089c0 0 1.249 2.84 3.636 3.636m22.272-31.363c-.683 2.045-5.228.227-5.228.227s-2.046-8.181 1.136-9.317c3.183-1.14 4.772 7.045 4.092 9.09" fill="#FFF" opacity=".5"/></g></svg>