<svg width="120" height="120" viewBox="0 0 120 120" xmlns="http://www.w3.org/2000/svg" xmlns:xlink="http://www.w3.org/1999/xlink"><defs><path id="a" d="M0 .026h89.931V34.15H.001z"/><path id="c" d="M.218.233h49.735v51.092H.218z"/></defs><g fill="none" fill-rule="evenodd"><g transform="translate(15 .335)"><mask id="b" fill="#fff"><use xlink:href="#a"/></mask><path d="M36.998 18.947c14.061.765 33.42-2.824 43.7-13.326 2.154-2.2 4.616-7.648 8.037-4.78 2.71 2.272.115 7.803-.949 10.425-4.2 10.351-12.767 16.047-23.368 19.173-15.066 4.444-29.655 5.107-44.732.839-5.343-1.514-11.088-4.092-15.263-7.8a.16.16 0 0 1-.011-.01C-.633 18.975-2.897 12.454 6.19 14.13c10.5 1.936 19.937 4.225 30.807 4.817" fill="#3C3B39" mask="url(#b)"/></g><g transform="translate(38.226 68.649)"><mask id="d" fill="#fff"><use xlink:href="#c"/></mask><path d="M.372 42.125c-.172 1.51-.31 3.086.216 4.513.527 1.427 1.917 2.655 3.435 2.492 1.423-.152 2.475-1.44 2.974-2.776.5-1.337.61-2.79 1.072-4.14.98-2.868 3.501-5.024 6.315-6.175 2.814-1.15 5.911-1.41 8.953-1.439a63.504 63.504 0 0 1 12.482 1.123c1.025.196 2.093.44 2.88 1.123 1.014.879 1.346 2.285 1.623 3.594.42 1.982.84 3.964 1.258 5.945.482 2.277 1.692 5.131 4.02 4.93 2.118-.183 2.974-2.773 3.273-4.87 1.794-12.58 1.712-25.765-3.035-37.558C43.762 3.73 38.212.606 32.738.304 21.677-.307 11.979 2.944 6.456 13.15c-1.687 3.116-1.995 6.566-2.657 9.99C2.572 29.475 1.1 35.697.372 42.124" fill="#605F5D" mask="url(#d)"/></g><path d="M76.66 19.497c-7.726-4.369-23.315-2.576-29.691 3.566-6.03 5.808-7.554 16.859-9.464 24.442-2.048 8.132-2.12 17.387 6.604 21.976 8.16 4.292 21.627 4.885 30.783 3.764 7.57-.926 13.681-4.327 17.237-10.784 5.656-10.272-1.142-20.869-6.838-30.114-2.61-4.238-4.08-10.277-8.63-12.85" fill="#605F5D"/><path d="M59.595 11.535c-4.42.033-6.773 1.228-10.574 2.798-3.399 1.405-6.751 1.2-8.906 4.752-2.35 3.875-.491 7.343 3.652 8.764-1.109 3.01 1.74 4.286 3.967 5.066 3.483 1.218 4.418-.783 7.319-.982 2.208-.152 4.719 2.255 6.977 2.116 2.271-.14 4.147-1.82 5.677-3.429 5.296 3.633 15.824-.716 12.158-7.983 4.384-1.07 3.833-6.747 1.439-9.19-1.363-1.391-3.356-2.236-5.311-1.998-.91.11-1.893 1.174-2.705 1.134-1.134-.055-1.369-.696-2.538-1.039-4.185-1.228-7.41-.036-11.155-.009" fill="#893E10"/><path d="M91.565 74.34c15.846-8.551 4.326-29.358-10.278-30.356-9.31-.635-18.96.36-28.08 2.268-13.033 2.728-29.762 14.3-17.437 28.358 12.176 13.887 41.942 7.204 55.795-.27" fill="#3C3B39"/><path d="M86.535 64.854c3.06-1.388 5.512-9.66.117-7.765-3.822 1.342-.513 7.931-.117 7.765m-41.678 4.024c3.06-1.388 5.512-9.66.116-7.765-3.821 1.342-.512 7.931-.116 7.765m32.881-36.793c-.943 1.04-.673 2.414.241 3.372.452.473 1.247.453 1.702 0 .472-.47.452-1.222 0-1.695-.033-.034-.221-.29-.068-.07a1.783 1.783 0 0 1-.1-.17c.055.14.06.146.017.02-.09-.282-.002.246.002-.04a.406.406 0 0 1-.073.265c.067-.11.06-.107-.019.012.44-.484.481-1.216 0-1.694-.446-.445-1.261-.485-1.702 0M47.35 35.01c-.343 1.09-.245 2.218.55 3.083.443.482 1.254.447 1.702 0 .479-.477.442-1.213 0-1.695.158.172-.096-.19.003.05-.015-.037-.068-.371-.046-.13-.001-.012.016-.392-.015-.167.023-.171.074-.339.127-.504.196-.623-.226-1.305-.84-1.474-.65-.178-1.285.214-1.48.837" fill="#050101"/></g></svg>