<svg width="120" height="120" viewBox="0 0 120 120" xmlns="http://www.w3.org/2000/svg" xmlns:xlink="http://www.w3.org/1999/xlink"><defs><path id="a" d="M0 .591h81.584v66.252H0z"/><path id="c" d="M.137.591h40.791v62.296H.137z"/><path id="e" d="M.487.345H27.84v62.74H.487z"/></defs><g fill="none" fill-rule="evenodd"><g transform="translate(19 .095)"><mask id="b" fill="#fff"><use xlink:href="#a"/></mask><path d="M79.025 27.776c-5.613-12.886-23.15-14.34-26.308-20.668C49.561.78 40.792.591 40.792.591s-8.769.19-11.926 6.517C25.71 13.437 8.171 14.89 2.56 27.776c-5.613 12.886-.702 29.99 2.455 33.83 3.156 3.839 6.665-2.793 15.381 3.49 5.972 4.304 20.396-.698 20.396-.698s14.424 5.002 20.396.698c8.717-6.283 12.224.349 15.382-3.49 3.156-3.84 8.068-20.944 2.455-33.83" fill="#FDDE8E" mask="url(#b)"/></g><path d="M78.155 65.19c-1.487 1.19-3.557 1.667-5.772 1.736 2.973.087 5.844-.323 7.805-1.736 2.441-1.759 4.472-2.505 6.203-2.753-2.045-.29-4.65-.118-8.236 2.753m-36.726 0c-3.587-2.871-6.191-3.043-8.236-2.753 1.73.248 3.762.994 6.203 2.753 1.96 1.413 4.832 1.823 7.805 1.736-2.215-.069-4.285-.545-5.772-1.736m6.437-57.987c-3.157 6.329-20.695 7.782-26.306 20.668-5.613 12.886-.702 29.99 2.455 33.83 1.36 1.655 2.788 1.363 4.668 1-.378-.198-.743-.515-1.102-1-2.843-3.84-7.264-20.944-2.21-33.83 5.052-12.886 20.842-14.34 23.684-20.668C51.898.875 59.792.686 59.792.686s-8.769.189-11.926 6.517" fill="#FDDE8E"/><g transform="translate(59.655 .095)"><mask id="d" fill="#fff"><use xlink:href="#c"/></mask><path d="M38.37 27.776C32.757 14.89 15.22 13.436 12.062 7.108 8.905.78.137.591.137.591s7.895.19 10.737 6.517c2.842 6.329 18.632 7.782 23.685 20.668 5.053 12.886.632 29.99-2.21 33.83-.36.485-.725.802-1.104 1 1.881.363 3.308.655 4.67-1 3.156-3.84 8.067-20.944 2.455-33.83" fill="#FDDE8E" mask="url(#d)"/></g><path d="M21.56 31.012c5.612-12.886 23.15-14.34 26.306-20.668 3.157-6.328 11.926-6.517 11.926-6.517s8.769.19 11.926 6.517c3.157 6.329 20.695 7.782 26.307 20.668 1.647 3.782 2.383 7.926 2.527 11.992.182-5.032-.453-10.37-2.527-15.133-5.612-12.886-23.15-14.34-26.307-20.668C68.56.875 59.792.686 59.792.686s-8.77.19-11.926 6.517C44.71 13.53 27.172 14.985 21.56 27.87c-2.074 4.762-2.708 10.1-2.527 15.133.145-4.066.88-8.21 2.527-11.992m65.142 38.974c-2.893-3.816-10.995-11.398-26.91-5.493 0 0 2.397 10.472 15.96 10.937 4.14-.188 7.41-2.938 10.236-3.518.87-.179 1.248-1.22.714-1.926" fill="#209BB0"/><path d="M86.702 69.985a19.243 19.243 0 0 0-1.407-1.648 1.202 1.202 0 0 1-.944 1.004c-2.826.58-6.095 3.33-10.237 3.518-7.167-.246-11.214-3.286-13.44-6.1 1.557 3.108 5.574 8.344 15.078 8.67 4.14-.188 7.41-2.938 10.236-3.518.87-.179 1.248-1.22.714-1.926m-53.82 0c2.894-3.816 10.995-11.398 26.91-5.493 0 0-2.397 10.472-15.96 10.937-4.14-.188-7.41-2.938-10.236-3.518-.87-.179-1.248-1.22-.714-1.926" fill="#209BB0"/><path d="M56.183 12.065c0 1.42-1.156 2.57-2.583 2.57a2.577 2.577 0 0 1-2.583-2.57A2.577 2.577 0 0 1 53.6 9.494a2.577 2.577 0 0 1 2.583 2.57m12.384.001c0 1.42-1.157 2.57-2.583 2.57a2.576 2.576 0 0 1-2.583-2.57 2.577 2.577 0 0 1 2.583-2.571 2.578 2.578 0 0 1 2.583 2.57m-8.775 6.528a2.115 2.115 0 0 1-2.118-2.108c0-.25.202-.45.453-.45.25 0 .452.2.452.45 0 .666.544 1.207 1.213 1.207a1.21 1.21 0 0 0 1.213-1.207c0-.25.202-.45.453-.45.249 0 .452.2.452.45 0 1.163-.95 2.108-2.118 2.108" fill="#3C2415"/><path d="M76.337 23.867c.476.602.884 1.256 1.266 1.922.385.666.726 1.356 1.049 2.055a30.738 30.738 0 0 1 1.566 4.35 33.624 33.624 0 0 1 1.21 9.183c.004.775-.049 1.55-.084 2.324-.082.771-.131 1.545-.256 2.31a33.425 33.425 0 0 1-.962 4.534c-.864 2.963-2.1 5.81-3.79 8.363.754-2.964 1.437-5.862 1.905-8.78.217-1.46.424-2.915.532-4.378.13-1.46.201-2.924.2-4.386.028-2.927-.2-5.853-.637-8.77-.447-2.916-1.074-5.824-2-8.727m-33.088 0c-.926 2.903-1.553 5.81-2 8.728a55.454 55.454 0 0 0-.637 8.769c-.002 1.462.07 2.925.2 4.386.108 1.463.314 2.918.532 4.379.468 2.917 1.152 5.815 1.905 8.779-1.691-2.553-2.926-5.4-3.79-8.363-.416-1.485-.753-3-.961-4.534-.126-.765-.175-1.539-.257-2.31-.036-.774-.087-1.549-.084-2.324a33.57 33.57 0 0 1 1.21-9.183 30.568 30.568 0 0 1 1.567-4.35c.323-.7.662-1.389 1.048-2.055.382-.666.79-1.32 1.267-1.922m21.524 8.523c.93.055 1.802.145 2.664.215.859.073 1.702.127 2.527.12.826-.006 1.632-.075 2.417-.263.393-.098.78-.225 1.168-.392.39-.167.758-.392 1.16-.637-.159.44-.43.834-.756 1.193-.335.347-.74.633-1.173.86-.875.444-1.858.632-2.805.634a8.746 8.746 0 0 1-2.762-.443c-.875-.294-1.717-.692-2.44-1.287m0 18.6c.93.054 1.802.144 2.664.214.859.073 1.702.128 2.527.12.826-.005 1.632-.074 2.417-.263.393-.097.78-.225 1.168-.392.39-.167.758-.392 1.16-.637-.159.44-.43.834-.756 1.194-.335.346-.74.632-1.173.859-.875.444-1.858.633-2.805.634a8.746 8.746 0 0 1-2.762-.443c-.875-.293-1.717-.691-2.44-1.286" fill="#E8C26D"/><path d="M65.502 41.652c.996.042 1.937.102 2.868.133.929.035 1.84.032 2.735-.025.895-.066 1.774-.19 2.637-.425.87-.23 1.706-.583 2.595-1.044-.477.878-1.27 1.589-2.183 2.063-.915.478-1.939.727-2.952.798a9.615 9.615 0 0 1-2.994-.285c-.961-.253-1.895-.624-2.706-1.215m-10.69-9.262c-.93.055-1.802.145-2.664.215-.859.073-1.702.127-2.527.12-.826-.006-1.632-.075-2.417-.263a7.531 7.531 0 0 1-1.168-.392c-.39-.167-.758-.392-1.16-.637.16.44.43.834.756 1.193.336.347.74.633 1.173.86.875.444 1.858.632 2.805.634a8.746 8.746 0 0 0 2.762-.443c.875-.294 1.717-.692 2.44-1.287m0 18.6c-.93.054-1.802.144-2.664.214-.859.073-1.702.128-2.527.12-.826-.005-1.632-.074-2.417-.263a7.46 7.46 0 0 1-1.168-.392c-.39-.167-.758-.392-1.16-.637.16.44.43.834.756 1.194.336.346.74.632 1.173.859.875.444 1.858.633 2.805.634a8.746 8.746 0 0 0 2.762-.443c.875-.293 1.717-.691 2.44-1.286m-.73-9.338c-.995.042-1.937.102-2.868.133a27.03 27.03 0 0 1-2.735-.025c-.895-.066-1.774-.19-2.637-.425-.87-.23-1.705-.583-2.594-1.044.476.878 1.27 1.589 2.182 2.063.915.478 1.939.727 2.953.798a9.61 9.61 0 0 0 2.993-.285c.962-.253 1.895-.624 2.706-1.215" fill="#E8C26D"/><path d="M32.882 69.985c.378-.498.847-1.06 1.407-1.648a1.2 1.2 0 0 0 .945 1.004c2.825.58 6.094 3.33 10.236 3.518 7.167-.246 11.214-3.286 13.44-6.1-1.556 3.108-5.574 8.344-15.078 8.67-4.14-.188-7.41-2.938-10.236-3.518-.87-.179-1.248-1.22-.714-1.926" fill="#209BB0"/><g transform="translate(42.429 56.323)"><mask id="f" fill="#fff"><use xlink:href="#e"/></mask><path d="M20.816 4.003a128.001 128.001 0 0 0-.447 10.092c-.012 3.374.07 6.782.326 10.116.261 3.339.719 6.64 1.515 9.846a41.18 41.18 0 0 0 1.465 4.713c.585 1.536 1.3 3.1 1.98 4.724.68 1.625 1.34 3.32 1.767 5.142.424 1.81.598 3.797.171 5.725a10.529 10.529 0 0 1-1.01 2.734 11.823 11.823 0 0 1-1.641 2.328c-.641.7-1.349 1.348-2.15 1.865-.8.518-1.663.928-2.555 1.222-.893.293-1.814.45-2.727.528-.457.044-.914.043-1.368.048-.453-.02-.907-.033-1.353-.086a18.594 18.594 0 0 1-2.639-.459 23.54 23.54 0 0 1-2.536-.765 28.853 28.853 0 0 1-2.433-.998 36.684 36.684 0 0 1-6.694-4.026c2.922 1.85 6.088 3.319 9.382 4.22.823.227 1.656.404 2.49.537a17.41 17.41 0 0 0 2.508.229c.417.016.832-.007 1.244-.022.411-.039.821-.07 1.222-.143.803-.135 1.589-.336 2.32-.646a9.283 9.283 0 0 0 2.03-1.182c.619-.474 1.149-1.052 1.627-1.665.954-1.253 1.593-2.69 1.781-4.163.2-1.478-.047-3.005-.53-4.508-.485-1.508-1.2-2.994-1.978-4.494-.777-1.502-1.629-3.016-2.412-4.65a44.975 44.975 0 0 1-2.026-5.022c-1.152-3.416-1.931-6.923-2.496-10.428-.561-3.514-.93-6.993-1.207-10.508a134.372 134.372 0 0 1-.397-10.59v-.005A3.383 3.383 0 0 1 17.444.345a3.384 3.384 0 0 1 3.372 3.658" fill="#FDDE8E" mask="url(#f)"/></g><path d="M49.034 116.823c.513.17 1.027.33 1.546.472a22.69 22.69 0 0 0 2.49.537 17.57 17.57 0 0 0 2.508.23c.398.014.793-.006 1.188-.021-.659-.032-1.32-.1-1.978-.209a22.97 22.97 0 0 1-2.49-.537c-3.294-.901-6.46-2.37-9.382-4.22a36.69 36.69 0 0 0 4.36 2.84c.575.322 1.163.62 1.758.908m20.817-11.863c-.427-1.823-1.087-3.517-1.766-5.143-.682-1.625-1.396-3.188-1.98-4.724a40.908 40.908 0 0 1-1.466-4.713c-.797-3.206-1.254-6.507-1.515-9.846-.256-3.333-.339-6.742-.326-10.116.018-3.378.163-6.747.446-10.092a3.384 3.384 0 0 0-4.239-3.544 3.378 3.378 0 0 1 2.521 3.544 128.001 128.001 0 0 0-.446 10.092c-.013 3.374.07 6.783.326 10.116.26 3.34.718 6.64 1.514 9.846a41.18 41.18 0 0 0 1.466 4.713c.586 1.536 1.3 3.1 1.981 4.724.68 1.626 1.34 3.32 1.766 5.143.423 1.81.598 3.796.172 5.724a10.555 10.555 0 0 1-1.011 2.734 11.794 11.794 0 0 1-1.642 2.329c-.64.698-1.348 1.347-2.15 1.864-.8.518-1.662.928-2.554 1.222-.893.293-1.814.45-2.727.529-.09.009-.18.013-.268.02.205.01.411.018.617.027.455-.005.911-.004 1.369-.047.913-.079 1.834-.236 2.727-.53a11.051 11.051 0 0 0 2.554-1.221c.802-.517 1.51-1.166 2.15-1.864a11.823 11.823 0 0 0 1.642-2.33c.455-.849.802-1.775 1.01-2.733.426-1.928.252-3.913-.171-5.724" fill="#FDDE8E"/></g></svg>