<svg width="120" height="120" viewBox="0 0 120 120" xmlns="http://www.w3.org/2000/svg" xmlns:xlink="http://www.w3.org/1999/xlink"><defs><path d="M3.477.959c-.346.33-.683.69-1.006 1.092C.285 4.759 0 9.798 0 13.216c0 1.518.333 3.228 2.281 3.561 1.947.332 5.747.666 6.935.666h94.199c1.805 0 4.465-1.522 5.652-3.564.788-1.356.928-2.523.933-3.696v-.133c-.002-.551-.03-1.104-.03-1.681 0-1.853-1.995-4.18-1.995-5.083V.959H3.477z" id="a"/><linearGradient x1="50%" y1="-6.918%" x2="50%" y2="46.484%" id="b"><stop stop-color="#FFD42A" offset="0%"/><stop stop-color="#FFBA00" offset="100%"/></linearGradient><path id="d" d="M.249.758h18.24V19H.25z"/><path id="f" d="M.204.758h18.24V19H.205z"/></defs><g fill="none" fill-rule="evenodd"><path d="M24.976 40.845s-5.267.302-5.695.374c-.427.071-.546.665-.142.974.403.308 1.757 1.377 1.757 1.377l4.08-2.725z" fill="#FF8C00"/><path d="M115 72.216c0 1.52-.333 3.23-2.28 3.561-1.948.333-5.748.665-6.936.665H11.585c-1.805 0-4.465-1.52-5.653-3.563-1.187-2.042-.902-3.658-.902-5.51 0-1.853 1.995-4.18 1.995-5.083v-6.365c0-.95 1.166-2.66 2.53-3.848 1.365-1.188 11.768-10.403 14.761-11.116 2.993-.712 30.212-1.615 33.68-1.52 3.468.095 6.175 1.663 6.84 1.948.665.285 19.191 10.878 19.619 11.02.428.143 11.449 1.996 16.579 3.278 5.131 1.283 8.695 1.898 11.495 5.368 2.186 2.707 2.471 7.747 2.471 11.165" fill="#FB0"/><g transform="matrix(-1 0 0 1 115 59)"><mask id="c" fill="#fff"><use xlink:href="#a"/></mask><path d="M3.477.959c-.346.33-.683.69-1.006 1.092C.285 4.759 0 9.798 0 13.216c0 1.518.333 3.228 2.281 3.561 1.947.332 5.747.666 6.935.666h94.199c1.805 0 4.465-1.522 5.652-3.564.788-1.356.928-2.523.933-3.696v-.133c-.002-.551-.03-1.104-.03-1.681 0-1.853-1.995-4.18-1.995-5.083V.959H3.477z" fill="url(#b)" mask="url(#c)"/></g><path d="M50.992 52.68c-.338-.022-.466-.291-.52-.488-.053-.196-1.679-9.566-1.732-9.886-.054-.321-.227-.71.178-.71v-.001c2.275.004 4.41.025 6.133.052.997.015 5.06.855 7.588 2.244 2.53 1.39 10.12 6.449 11.365 7.446 1.247.997 1.033 2.742-1.21 2.742-1.059 0-11.26-.68-21.802-1.398m-25.298-2.983c.57-1.532 3.927-6.796 6.164-7.41 1.817-.5 8.283-.666 14.464-.69.268-.002.392.208.428.511.035.303.64 9.442.623 9.87a.403.403 0 0 1-.39.427c-10.44-.716-20.11-1.39-20.327-1.39-.72 0-1.196-.69-.962-1.318" fill="#4F4F4F"/><path d="M18.676 62.12c5.942 0 10.759 4.816 10.759 10.759 0 1.251-.223 2.447-.616 3.563H11.586c-1.006 0-2.278-.473-3.412-1.244a10.743 10.743 0 0 1-.257-2.319c0-5.943 4.817-10.759 10.759-10.759m66.812 14.322a10.733 10.733 0 0 1-.617-3.563c0-5.943 4.818-10.759 10.76-10.759s10.76 4.816 10.76 10.76c0 1.25-.225 2.445-.617 3.562H85.488z" fill="#FF8C00"/><g transform="matrix(-1 0 0 1 105 63)"><mask id="e" fill="#fff"><use xlink:href="#d"/></mask><path d="M18.49 9.88A9.121 9.121 0 1 1 .247 9.877a9.121 9.121 0 0 1 18.243.001" fill="#404040" mask="url(#e)"/></g><path d="M89.398 72.88a6.233 6.233 0 1 0 12.468 0 6.233 6.233 0 0 0-12.468 0" fill="#EFEFEF"/><g transform="matrix(-1 0 0 1 28 63)"><mask id="g" fill="#fff"><use xlink:href="#f"/></mask><path d="M18.445 9.88A9.121 9.121 0 1 1 .202 9.877a9.121 9.121 0 0 1 18.243.001" fill="#404040" mask="url(#g)"/></g><path d="M12.443 72.88a6.233 6.233 0 1 0 12.468 0 6.233 6.233 0 0 0-12.468 0" fill="#EFEFEF"/><path d="M24.515 56.582c.45 2.294 2.314 4.565 4.475 7.195.727.885 1.478 1.801 2.232 2.782 3.222 4.196 3.564 6.256 3.592 6.788.034.637.396.933 1.14.933h14.431c.003-.608.024-1.417.051-2.435.065-2.423.164-6.083.09-10.53-.105-6.276-1.77-8.552-1.788-8.574l-.027-.035-.002-.044c-.352-7.086-1.63-11.148-1.757-11.848-6.554.175-13.669.423-14.717.58-1.847.28-3.18 1.891-5.785 5.501-2.508 3.478-2.6 6.285-1.935 9.687zm56.07 17.698c.68 0 .735-.398.735-.878v-3.99c0-.978.168-1.949.362-3.072.271-1.569.608-3.522.588-6.238-.035-4.562-2.287-6.367-5.96-8.934-3.623-2.532-15.052-9.154-15.168-9.22-.909-.53-2.628-1.162-4.25-1.3a17.75 17.75 0 0 0-1.079-.02c-1.637 0-5.228.091-8.574.18.15.826 1.406 4.866 1.753 11.797.228.326 1.718 2.68 1.82 8.705.073 4.453-.026 8.118-.09 10.542a112.63 112.63 0 0 0-.052 2.428h29.914zM32.191 41.113c1.791-.27 19.127-.77 23.621-.77.57 0 .93.006 1.102.021 1.667.141 3.434.792 4.371 1.337.115.066 11.554 6.694 15.187 9.234 3.761 2.628 6.047 4.557 6.082 9.165.021 2.741-.319 4.708-.592 6.29-.193 1.11-.358 2.068-.358 3.022v3.99c0 .377 0 1.163-1.02 1.163h-44.63c-1.126 0-1.396-.654-1.425-1.203-.02-.364-.28-2.39-3.534-6.63a107.161 107.161 0 0 0-2.227-2.774c-2.184-2.66-4.07-4.956-4.533-7.32-.533-2.726-.863-5.963 1.984-9.91 2.652-3.677 4.018-5.32 5.972-5.615zm71.936 15.901c-.222.007-.357.056-.527.117-.323.117-.725.263-1.877.263-1.152 0-7.552-1.081-9.487-1.412-8.209-1.406-8.249-1.545-8.274-1.637-.075-.264.692-1.11 1.719-1.698.137.026.284.053.439.08-1.038.502-1.714 1.263-1.857 1.488 1.365.366 15.764 2.894 17.46 2.894 1.102 0 1.478-.136 1.78-.245.187-.067.347-.125.614-.135.248-.007.808.042 1.418.107.491.142.966.29 1.422.45-.934-.118-2.401-.293-2.83-.272" fill="#FF8C00"/><path d="M83.232 53.154c-.392.285-1.229.232-1.87-.143-.642-.374-16.745-10.474-16.959-10.6-.214-.123-.25-.48-.107-.675.064-.088.283-.233.504-.367l.036.016c.642.275 17.888 10.133 19.5 10.963l-1.104.806m28.585 19.251v-2.043c0-.944.766-1.71 1.71-1.71h1.339c.106 1.266.134 2.495.134 3.565 0 .638-.061 1.309-.274 1.898h-1.2a1.71 1.71 0 0 1-1.71-1.71" fill="#4F4F4F"/><path d="M114.074 66.646c-.1-.625-.666-3.884-1.876-5.072-1.212-1.188-5.654-2.993-6.033-2.826-.381.166 1.282 3.562 2.303 5.01 1.022 1.45 5.745 3.762 5.606 2.888" fill="#EFEFEF"/><path d="M110.289 63.59c.179.982.834 1.778 1.466 1.778.63 0 .997-.796.819-1.778-.18-.982-.835-1.778-1.466-1.778s-.998.796-.82 1.778" fill="#FF8C00"/><path d="M108.311 61.652c.114.626.533 1.135.935 1.135.403 0 .637-.509.523-1.135-.114-.626-.533-1.135-.936-1.135-.402 0-.636.51-.522 1.135" fill="#E02B61"/><path d="M9.555 57.346v3.064a1.71 1.71 0 0 1-1.71 1.71h-.82v-6.199c0-.087.02-.186.038-.285h.782c.944 0 1.71.765 1.71 1.71" fill="#FF8C00"/><path d="M9.555 52.073c.957-.832 6.348-5.602 10.52-8.63.115.267.223.652.037.911-.308.427-10.332 8.812-10.76 9.05-.257.142-.693.11-1.017-.06.366-.449.78-.888 1.22-1.27" fill="#4F4F4F"/><path d="M52.948 55.27h4.276a.89.89 0 0 1 .891.89h-6.057a.89.89 0 0 1 .89-.89" fill="#FFCB3D"/><path d="M57.225 57.05h-4.276a.89.89 0 0 1-.891-.89h6.057a.89.89 0 0 1-.89.89" fill="#FF8C00"/><path d="M27.298 55.27h4.275a.89.89 0 0 1 .89.89h-6.056a.89.89 0 0 1 .89-.89" fill="#FFCB3D"/><path d="M31.573 57.05h-4.275a.89.89 0 0 1-.892-.89h6.057a.89.89 0 0 1-.89.89" fill="#FF8C00"/></g></svg>