<svg width="120" height="120" viewBox="0 0 120 120" xmlns="http://www.w3.org/2000/svg" xmlns:xlink="http://www.w3.org/1999/xlink"><defs><path id="a" d="M.695.774h11.29V15H.694z"/><path id="c" d="M0 1.709h14.01v11.996H0z"/><path id="e" d="M1.338 1.709h14.008v11.996H1.338z"/><path id="g" d="M.2.3h13.173v5.567H.2z"/></defs><g fill="none" fill-rule="evenodd"><path d="M49.141 105.214c-2.991-2.483-2.955-15.328-2.955-15.328h26.14s.256 12.83-2.71 15.328c-1.893 1.599-9.883 0-9.883 0l-.358-1.81-.36 1.81s-7.968 1.58-9.874 0" fill="#515151"/><path d="M59.127 105.214H49.084l.844 8.747c-1.674 1.044-2.887 3.163-1.457 4.888 1.082 1.22 2.674.257 3.88-.255 1.336-.64 2.865-1.088 4.07-1.922.784-.549 1.7-1.147 2.23-1.963.163-.255.238-.512.18-.748l.296-8.747z" fill="#2C2C2D"/><g transform="translate(58.935 104.44)"><mask id="b" fill="#fff"><use xlink:href="#a"/></mask><path d="M9.897 9.52l.839-8.746H.696L.988 9.52c-.055.235.02.49.181.748.53.816 1.448 1.414 2.23 1.962 1.206.834 2.733 1.282 4.07 1.923 1.21.512 2.802 1.474 3.883.255 1.427-1.725.215-3.845-1.456-4.888" fill="#2C2C2D" mask="url(#b)"/></g><path d="M43.239 64.347c-3.36 4.325-4.65 17.323-4.65 17.323s.004-.02.008-.056c-.432.628-.739 1.447-.832 2.36-.232 2.177.802 4.067 2.308 4.227.981.103 1.92-.557 2.514-1.632.558.462 1.111.647 1.501.435.739-.392.652-2.015-.192-3.618a6.279 6.279 0 0 0-1.105-1.525c-.034-.065-.066-.13-.102-.195 0 0 1.46-9.388 3.021-11.608.777-1.112 1.284-1.738 1.463-2.23.143-.397.298-1.154.364-1.439.5-2.228 3.28-7.245 3.28-7.245s-5.941 3.101-7.578 5.203m45.385-14.475c-1.1-.469-2.42-.038-3.492.999-.483-.737-1.058-1.144-1.59-1.041-.992.195-1.456 2.106-1.04 4.268.16.825.424 1.569.748 2.16.043.27.104.53.19.77l-5.04 5.957-10.845-3.892s1.971 2.94 2.418 3.999c.328.773.959 3.214.959 3.214s7.809 3.195 10.025 2.387c2.742-1 5.885-9.981 5.885-9.981l-.002-.002c1.181-.42 2.322-1.556 2.98-3.118 1.029-2.441.49-5-1.196-5.72" fill="#FDDFBB"/><path d="M83.118 56.83l-4.781 6.013-9.69-3.692c-1.912-1.258-7.709-1.47-7.709-1.47l-1.61.04h-.134l-1.61-.04s-5.777.19-7.698 1.44c-.777.433-5.082 2.876-6.566 4.787-.953 1.224-1.756 3.142-2.423 5.263-1.681 5.376-2.467 12.062-2.467 12.062l4.616-.004s.853-6.476 2.067-9.784c.217-.583.443-1.072.677-1.404.08-.116.158-.225.228-.33-.894 5.33-1.199 11.319-1.297 15.362-.004.195-.86 8.23-.683 13.02 6.521 1.89 24.303 2.514 30.456 0 .07-4.663-.665-12.668-.667-12.728-.091-4.826-.462-12.588-1.841-18.581.51.358 6.847 2.843 8.967 2.066 2.742-.999 6.839-9.656 6.839-9.656l-4.674-2.364z" fill="#2C2C2D"/><path fill="#131313" d="M53.345 99.48l-.12-.006.063-33.664zm2.832-26.63a.826.826 0 0 1-.824.829.823.823 0 0 1-.818-.83c0-.456.367-.827.818-.827.456 0 .824.371.824.827m7.493.001a.824.824 0 0 1-.822.829.824.824 0 0 1-.82-.83c0-.456.367-.827.82-.827.456 0 .822.371.822.827m-7.493 7.846c0 .458-.368.83-.824.83a.823.823 0 0 1-.818-.83c0-.457.367-.827.818-.827.456 0 .824.37.824.827m7.493 0c0 .458-.366.83-.822.83a.824.824 0 0 1-.82-.83c0-.457.367-.827.82-.827.456 0 .822.37.822.827m-7.493 9.055a.827.827 0 0 1-.824.827.824.824 0 0 1-.818-.828c0-.458.367-.829.818-.829.456 0 .824.37.824.83m7.493 0a.825.825 0 0 1-.822.827.825.825 0 0 1-.82-.828c0-.458.367-.829.82-.829.456 0 .822.37.822.83"/><path d="M59.298 60.823c-3.822 0-3.624-3.038-3.624-3.038 1.118-.133 1.959-.176 1.959-.176l1.61.088h.136l1.607-.056s.762.023 1.805.133c0 0-.076 3.05-3.493 3.05" fill="#FDDFBB"/><path d="M57.54 59.076h3.418c.977 0 1.773-2.113 1.773-3.08h-6.96c0 .967.795 3.08 1.77 3.08" fill="#FDDFBB"/><path d="M56.522 58.274l6.18-2.053.013-.012a20.963 20.963 0 0 1-6.925.027c.063.6.336 1.438.732 2.038" fill="#EEAC6C"/><path d="M59.258 60.813s2.683.437 3.7 1.495c2.821-1.898 3.18-2.867 3.083-4.397-.06-.902-2.895-1.761-3.338-1.613-.88 4.05-3.445 4.515-3.445 4.515" fill="#EEEEED"/><path d="M59.316 60.813s-2.727.63-3.638 1.495c-2.334-1.268-2.791-3.092-3.08-4.397-.18-.788 2.797-1.761 3.214-1.613.886 3.627 3.504 4.515 3.504 4.515" fill="#EEEEED"/><path d="M60.755 61.782a.59.59 0 0 0 .004-.202c-.05-.296-1.128-.42-1.128-.42s-1.15-.056-1.254.247a1.183 1.183 0 0 0-.051.244c-1.878.495-5.78 1.693-5.849 3.146-.025.546 1.636 1.641 1.846 1.137.477-1.15 2.702-2.884 4.018-3.84.07.468.36.911 1.141.585.422.371.828.039 1.069-.375 1.33.984 3.29 2.559 3.732 3.63.21.504 1.87-.591 1.846-1.137-.062-1.34-3.381-2.463-5.374-3.015m13.061 21.581a159.22 159.22 0 0 1-29.046-.004c-.16-.013-.364 3.951-.304 3.955 9.757.918 19.8.924 29.559.011.121-.01-.02-3.981-.209-3.962" fill="#487F66"/><path d="M44.654 83.892c-.004.054-.012.116-.017.178 9.751.905 19.566.905 29.317.002-.006-.062-.01-.124-.02-.18-9.74.9-19.541.9-29.28 0m-.184 2.698c-.005.064-.005.124-.007.18a159.48 159.48 0 0 0 29.606.008 2.596 2.596 0 0 0 0-.182c-9.846.917-19.755.915-29.6-.006" fill="#2D5441"/><path d="M74.05 87.264c.003-.045.008-.105.012-.185-9.847.917-19.76.915-29.604-.008-.002.077 0 .141 0 .18a159.1 159.1 0 0 0 29.591.013m-29.329-3.79c-.01.047-.02.107-.033.178 9.72.897 19.5.897 29.216.002a1.724 1.724 0 0 0-.032-.178 159.02 159.02 0 0 1-29.15-.002" fill="#9F191B"/><path d="M44.555 85.026c0 .06-.007.123-.011.183a159.3 159.3 0 0 0 29.49.004 2.608 2.608 0 0 1-.01-.18c-9.804.908-19.667.908-29.47-.007" fill="#EEEEED"/><path d="M44.521 85.51c0 .058-.004.12-.008.18 9.823.915 19.715.917 29.536.002 0-.058-.004-.12-.004-.18a159.29 159.29 0 0 1-29.524-.002" fill="#EEEEED"/><path d="M43.833 83.235c-.502-.915-1.143-1.628-1.74-2.008l-1.505.002c-.477.622-.283 2.09.51 3.532.904 1.646 2.25 2.636 3.007 2.218.754-.422.635-2.098-.272-3.744" fill="#FDDFBB"/><g transform="translate(27 23.012)"><mask id="d" fill="#fff"><use xlink:href="#c"/></mask><path d="M.379 1.709c-2.932 4.466 12.114 11.996 12.114 11.996L14.01 1.983.379 1.71z" fill="#2C2C2D" mask="url(#d)"/></g><g transform="translate(75.968 23.012)"><mask id="f" fill="#fff"><use xlink:href="#e"/></mask><path d="M14.968 1.709C17.9 6.175 2.856 13.705 2.856 13.705L1.338 1.983l13.63-.274z" fill="#2C2C2D" mask="url(#f)"/></g><path d="M79.846 38.622c.153-1.03.234-2.089.234-3.162 0-11.625-9.364-21.054-20.914-21.054-11.552 0-20.917 9.429-20.917 21.054 0 1.024.074 2.033.215 3.019-1.207.664-2.02 1.922-2.02 3.362 0 2.134 1.788 3.866 3.993 3.866.152 0 .298-.009.443-.026 3.57 6.46 10.422 10.83 18.286 10.83 7.859 0 14.701-4.363 18.276-10.809.064.003.126.005.187.005 2.208 0 3.997-1.732 3.997-3.866 0-1.344-.707-2.524-1.78-3.219" fill="#FDDFBB"/><path d="M80.806 32.552a43.416 43.416 0 0 0-.249-3.868c-2.81-9.264-11.369-16-21.492-16-8.814 0-16.44 5.106-20.124 12.54-1.015 2.922-1.641 5.8-1.692 7.096-.18 4.5 3.084 11.244 3.084 11.244-.393-7.41-.31-7.397 1.463-8.679 2.206-1.598 6.856-4.57 8.65-6.628.343-.392 1.052-1.797 1.052-1.797s-.07 1.103.545 1.59c3.703 2.94 14.62-.328 18.763 1.941 3.385 1.856 7.499 13.573 7.499 13.573 1.675-3.19 2.535-8.542 2.501-11.012" fill="#AD6921"/><path d="M90.94 24.721c0 1.052-14.226 2.45-31.778 2.45-17.554 0-31.782-1.398-31.782-2.45 0-1.05 14.228-1.905 31.782-1.905 17.552 0 31.778.855 31.778 1.905" fill="#333433"/><path d="M78.374 23.336c-3.273 4.075-35.197 3.705-38.88 0L43.6 1.933c5.853-2.53 25.49-2.623 31.557 0l3.217 21.403z" fill="#2C2C2D"/><path d="M39.985 20.78l-.49 2.544a88.575 88.575 0 0 0 38.876.007l-.383-2.57a88.651 88.651 0 0 1-38.003.02" fill="#721F2B"/><path d="M55.311 33.65s-.503 1.803-2.082 1.446c-.772-.174-.908-1.201-3.386-.74-.779.18-2.417 1.156-2.732 1.808-.316.652-.088-2.392 2.457-3.522 1.835-.675 2.457-.642 3.977-.642s1.987.907 1.766 1.65m9.741 0s.503 1.803 2.082 1.446c.772-.174.908-1.201 3.386-.74.779.18 2.417 1.156 2.732 1.808.316.652.087-2.392-2.457-3.522-1.835-.675-2.457-.642-3.977-.642s-1.987.907-1.766 1.65" fill="#AD6921"/><path d="M53 41c0 1.657-.895 3-2 3s-2-1.343-2-3 .895-3 2-3 2 1.343 2 3m18 0c0 1.657-.895 3-2 3s-2-1.343-2-3 .895-3 2-3 2 1.343 2 3" fill="#6172BB"/><path d="M60.02 42.07c.839-.115 2.96 1.756 2.96 1.756s.103-.414-.34-1.238C62.163 41.703 59.99 41 59.99 41s-1.687.448-2.487 1.604c-.296.29-.503 1.299-.503 1.299s1.895-1.681 3.02-1.834z" fill="#EEAC6C"/><g transform="translate(53 46)"><mask id="h" fill="#fff"><use xlink:href="#g"/></mask><path d="M.2.696S7.097 3.904 13.372.299c0 0-1.39 5.47-5.95 5.561-4.115.122-4.984-1.492-5.477-1.956C1.453 3.441.525 2.132.2.696" fill="#EEAC6C" mask="url(#h)"/></g></g></svg>