<svg width="120" height="120" viewBox="0 0 120 120" xmlns="http://www.w3.org/2000/svg"><g fill="none"><path d="M61.085 45.682c-5.429 0-10.432.748-14.583 1.977V62.35c4.151-1.23 9.208-1.977 14.583-1.977 5.43 0 10.433.748 14.584 1.977V47.659c-4.151-1.229-9.154-1.977-14.584-1.977z" fill="#F9E7D4"/><path d="M61.085 49.796c-5.429 0-10.432.748-14.583 1.977v14.691c4.151-1.228 9.208-1.976 14.583-1.976 5.43 0 10.433.748 14.584 1.976V51.773c-4.151-1.283-9.154-1.977-14.584-1.977z" fill="#4F3C33"/><g transform="translate(63.161 21)"><path d="M8.25 11.914c-2.182 4.54-4.045 9.67-5.429 15.172 5.323 2.404 12.72 4.702 21.024 6.304 8.303 1.603 16.021 2.244 21.823 2.03a79.746 79.746 0 0 0 .638-16.134c-4.896 1.496-12.082 1.71-19.8.214-7.717-1.496-14.317-4.327-18.256-7.586z" fill="#EFCA52"/><path d="M46.306 19.34c-.053-.641-.106-1.282-.16-1.87a67.097 67.097 0 0 0-.638-4.862L11.55 5.984c-.852 1.335-1.65 2.778-2.448 4.274-.267.534-.586 1.121-.852 1.656a28.529 28.529 0 0 0 3.62 2.457c-.054.16-.16.32-.16.481-.16.962.425 1.87 1.384 2.03a1.748 1.748 0 0 0 1.916-.961c2.874 1.282 6.227 2.404 9.846 3.205-.16.962.426 1.87 1.384 2.03.958.16 1.863-.427 2.023-1.389 3.672.588 7.185.801 10.326.695.053.801.585 1.442 1.384 1.602.958.16 1.862-.427 2.022-1.389a.914.914 0 0 0 0-.534c1.597-.107 3.034-.427 4.311-.801z" fill="#966848"/><path d="M45.668 35.474c-5.855.267-13.52-.427-21.823-2.03-8.303-1.603-15.701-3.9-21.024-6.304a155.57 155.57 0 0 0-1.065 4.808C1.224 34.779.798 37.61.532 40.336c5.323 2.35 12.615 4.594 20.758 6.197 8.144 1.603 15.755 2.244 21.557 2.03.798-2.618 1.437-5.396 1.97-8.227.372-1.657.638-3.26.85-4.862zM.426 54.44c0 .107 0 .267.053.374.532 5.77 1.81 10.845 3.726 14.905 3.672 1.122 7.77 2.137 12.082 2.992 4.311.855 8.516 1.442 12.295 1.763 3.247-3.099 6.334-7.32 8.995-12.448l.16-.32c-5.376-.054-11.976-.695-18.948-2.084C11.763 58.286 5.429 56.47.426 54.44z" fill="#F7ED6F"/><path d="M.532 40.336C.053 45.304.053 50.059.426 54.44c5.003 1.976 11.337 3.793 18.363 5.182 6.972 1.336 13.572 2.03 18.948 2.083 2.023-3.9 3.78-8.334 5.163-13.142-5.802.214-13.413-.427-21.556-2.03C13.147 44.93 5.854 42.74.532 40.336z" fill="#EFCA52"/><path d="M25.974 74.207c.107-.748-.426-1.496-1.17-1.656a1.506 1.506 0 0 0-1.757 1.175v.107c-1.757-.214-3.513-.534-5.323-.855.16-.801-.372-1.603-1.17-1.71a1.506 1.506 0 0 0-1.757 1.176c-1.81-.374-3.566-.802-5.27-1.229v-.107a1.511 1.511 0 0 0-1.17-1.763c-.746-.16-1.49.32-1.704 1.069a34.216 34.216 0 0 1-2.501-.748c.425.961.904 1.816 1.383 2.618-.319 1.656 4.046 3.846 9.794 4.968 5.695 1.122 10.592.695 10.911-.962.745-.587 1.544-1.228 2.289-1.923-.798.054-1.65-.053-2.555-.16z" fill="#966848"/><ellipse fill="#C3996C" transform="rotate(10.947 28.493 9.27)" cx="28.493" cy="9.271" rx="17.298" ry="5.022"/><ellipse fill="#F9E7D4" transform="rotate(10.947 28.862 7.459)" cx="28.862" cy="7.459" rx="14.637" ry="4.221"/><path d="M7.984 71.322c-.16-.054-.32-.16-.373-.374-2.767-15.066-1.17-29.49.639-38.893 1.97-10.204 4.63-16.936 4.684-16.99.106-.213.32-.32.585-.266.213.106.32.32.266.587 0 .054-2.66 6.732-4.63 16.882-1.81 9.35-3.407 23.614-.639 38.573.053.214-.106.48-.372.534-.054-.053-.107-.053-.16-.053zm16.446 3.152c-.053 0-.106-.053-.159-.053-.213-.107-.266-.374-.16-.588 8.09-12.822 11.923-26.659 13.733-36.008 1.969-10.151 1.969-17.31 1.969-17.363a.42.42 0 0 1 .426-.428.42.42 0 0 1 .426.428c0 .053-.054 7.319-1.97 17.523-1.81 9.403-5.695 23.4-13.839 36.329-.053.16-.266.213-.425.16zm-8.25-1.282c-.212-.054-.372-.267-.372-.534l10.273-53.211c.053-.214.266-.374.532-.374.213.053.372.267.372.534l-10.272 53.21a.554.554 0 0 1-.532.375z" fill="#C69E63"/><ellipse fill="#282522" cx="13.36" cy="15.173" rx="1" ry="1"/><ellipse fill="#282522" cx="26.506" cy="19.5" rx="1" ry="1"/><ellipse fill="#282522" cx="40.292" cy="20.408" rx="1" ry="1"/><ellipse fill="#282522" cx="8.09" cy="70.895" rx="1" ry="1"/><ellipse fill="#282522" cx="16.234" cy="72.764" rx="1" ry="1"/><ellipse fill="#282522" cx="24.484" cy="74.047" rx="1" ry="1"/></g><g transform="translate(11 21)"><path d="M38.695 11.914c2.182 4.54 4.045 9.67 5.43 15.172-5.323 2.404-12.722 4.702-21.025 6.304-8.303 1.603-16.021 2.244-21.823 2.03A79.746 79.746 0 0 1 .64 19.287c4.896 1.496 12.082 1.71 19.8.214 7.717-1.496 14.317-4.327 18.256-7.586z" fill="#EFCA52"/><path d="M.639 19.34c.053-.641.106-1.282.16-1.87.16-1.656.372-3.312.638-4.862l33.958-6.624c.852 1.335 1.65 2.778 2.449 4.274.266.534.585 1.121.851 1.656a28.529 28.529 0 0 1-3.62 2.457c.054.16.16.32.16.481.16.962-.425 1.87-1.383 2.03a1.748 1.748 0 0 1-1.917-.961c-2.874 1.282-6.227 2.404-9.846 3.205.16.962-.426 1.87-1.384 2.03-.958.16-1.863-.427-2.023-1.389-3.672.588-7.185.801-10.326.695-.053.801-.585 1.442-1.383 1.602-.958.16-1.863-.427-2.023-1.389a.914.914 0 0 1 0-.534c-1.597-.107-3.034-.427-4.311-.801z" fill="#966848"/><path d="M1.277 35.474c5.855.267 13.52-.427 21.823-2.03 8.303-1.603 15.702-3.9 21.024-6.304a155.57 155.57 0 0 1 1.065 4.808c.532 2.831.958 5.663 1.224 8.388-5.323 2.35-12.615 4.594-20.758 6.197-8.144 1.603-15.755 2.244-21.557 2.03-.798-2.618-1.437-5.396-1.969-8.227a54.862 54.862 0 0 1-.852-4.862zM46.52 54.44c0 .107 0 .267-.054.374-.532 5.77-1.81 10.845-3.726 14.905-3.672 1.122-7.77 2.137-12.082 2.992-4.311.855-8.516 1.442-12.295 1.763-3.247-3.099-6.334-7.32-8.995-12.448l-.16-.32c5.376-.054 11.976-.695 18.948-2.084 6.973-1.336 13.36-3.152 18.363-5.182z" fill="#F7ED6F"/><path d="M46.413 40.336c.479 4.968.479 9.723.106 14.104-5.003 1.976-11.337 3.793-18.363 5.182-6.972 1.336-13.572 2.03-18.948 2.083-2.023-3.9-3.779-8.334-5.163-13.142 5.802.214 13.413-.427 21.557-2.03 8.196-1.603 15.488-3.793 20.81-6.197z" fill="#EFCA52"/><path d="M20.971 74.207c-.106-.748.426-1.496 1.17-1.656a1.506 1.506 0 0 1 1.757 1.175v.107c1.757-.214 3.513-.534 5.323-.855-.16-.801.373-1.603 1.17-1.71a1.506 1.506 0 0 1 1.757 1.176 128.57 128.57 0 0 0 5.27-1.229v-.107a1.511 1.511 0 0 1 1.17-1.763c.746-.16 1.491.32 1.704 1.069a34.471 34.471 0 0 0 2.502-.748 23.966 23.966 0 0 1-1.384 2.618c.319 1.656-4.045 3.846-9.794 4.968-5.748 1.122-10.592.695-10.911-.962-.745-.587-1.544-1.228-2.289-1.923.799.054 1.65-.053 2.555-.16z" fill="#966848"/><ellipse fill="#C3996C" transform="rotate(169.053 18.474 9.267)" cx="18.474" cy="9.267" rx="17.298" ry="5.022"/><ellipse fill="#F9E7D4" transform="rotate(169.053 18.137 7.42)" cx="18.137" cy="7.42" rx="14.637" ry="4.221"/><path d="M38.908 71.322c.16-.054.32-.16.373-.374 2.767-15.066 1.17-29.49-.64-38.893-1.968-10.204-4.63-16.936-4.683-16.99-.106-.213-.32-.32-.585-.266-.213.106-.32.32-.267.587 0 .054 2.662 6.732 4.631 16.882 1.81 9.35 3.407 23.614.639 38.573-.053.214.106.48.372.534.054-.053.107-.053.16-.053zm-16.393 3.152c.053 0 .106-.053.16-.053.212-.107.265-.374.159-.588C14.744 61.01 10.91 47.174 9.102 37.825c-1.97-10.151-1.97-17.31-1.97-17.363a.42.42 0 0 0-.426-.428.42.42 0 0 0-.425.428c0 .053.053 7.319 1.969 17.523 1.81 9.403 5.695 23.4 13.839 36.329.053.16.266.213.426.16zm8.25-1.282c.212-.054.372-.267.372-.534L20.865 19.447c-.054-.214-.267-.374-.533-.374-.213.053-.372.267-.372.534l10.272 53.21c.053.268.32.375.533.375z" fill="#C69E63"/><ellipse fill="#282522" cx="33.532" cy="15.173" rx="1" ry="1"/><ellipse fill="#282522" cx="20.439" cy="19.5" rx="1" ry="1"/><ellipse fill="#282522" cx="6.653" cy="20.408" rx="1" ry="1"/><ellipse fill="#282522" cx="38.855" cy="70.895" rx="1" ry="1"/><ellipse fill="#282522" cx="30.711" cy="72.764" rx="1" ry="1"/><ellipse fill="#282522" cx="22.408" cy="74.047" rx="1" ry="1"/></g></g></svg>