<svg width="120" height="120" viewBox="0 0 120 120" xmlns="http://www.w3.org/2000/svg"><g fill="none" fill-rule="evenodd"><path d="M3.598 43.514c19.692-.421 89.022 5.295 99.656 7.722 10.633 2.427 11.815 15.522 11.815 20.862 0 5.341-6.301 6.84-6.301-2.198s-.788-13.934-7.09-14.49c-6.3-.555-91.386-5.195-97.293-5.356-5.907-.162-4.725-6.784-.787-6.54" fill="#E12444"/><path d="M116.485 43.514c-19.691-.421-89.022 5.295-99.655 7.722C6.197 53.663 5.016 66.758 5.016 72.098c0 5.341 6.3 6.84 6.3-2.198s.787-13.934 7.09-14.49c6.3-.555 91.384-5.195 97.291-5.356 5.908-.162 4.727-6.784.788-6.54" fill="#E12444"/><path d="M29.63 41.002c-10.121-.544-23.59.614-26.047 1.402-3.14 1.008-3.23 1.265-3.37 3.653-.14 2.387.251 4.438 2.106 5.057 2.529.842 2.552 4.036 4.215 13.203 1.514 8.35 5.2 14.955 21.07 16.154.696.053 1.37.083 2.026.092v-2.327c-7.19-.023-15.184-2.596-18.04-7.738-4.059-7.307-5.067-22.07.14-25.143 2.27-1.34 9.952-2.247 17.9-1.88v-2.473zm30.282 4.774c-3.51.077-17.991-3.794-28.235-4.637a71.94 71.94 0 0 0-2.047-.137v2.473c8.266.382 16.82 2.143 19.887 6.233 5.058 6.743-3.09 23.179-10.816 26.83-2.415 1.143-5.652 1.708-9.07 1.698v2.327c14.002.201 18.839-9.086 20.448-12.172 3.005-5.76 2.082-13.701 9.947-13.701 7.865 0 7.081 7.8 10.086 13.56 1.61 3.087 6.32 12.502 20.309 12.313v-2.327c-3.418.01-6.654-.555-9.07-1.698-7.727-3.651-15.874-20.087-10.816-26.83 3.067-4.09 11.622-5.85 19.886-6.233v-2.473c-.7.037-1.384.083-2.047.137-9.167.755-20.202 4.455-28.462 4.637zm30.509 34.787c.656-.01 1.33-.039 2.027-.092 15.869-1.199 19.555-7.803 21.07-16.153 1.663-9.168 1.686-12.362 4.214-13.204 1.856-.62 2.248-2.67 2.108-5.057-.14-2.388-.231-2.645-3.372-3.653-2.457-.788-15.925-1.946-26.047-1.402v2.473c7.949-.367 15.63.54 17.9 1.88 5.208 3.073 4.2 17.836.14 25.143-2.856 5.142-10.85 7.715-18.04 7.738v2.327z" fill="#F16D82"/><path d="M108.32 45.355c-4.629-2.733-31.768-3.67-37.785 4.353-5.058 6.743 3.09 23.179 10.815 26.83 7.498 3.545 22.897 1.545 27.112-6.04 4.059-7.307 5.067-22.07-.141-25.143zm-96.59 0c4.63-2.733 31.77-3.67 37.787 4.353 5.058 6.743-3.09 23.179-10.816 26.83-7.497 3.545-22.897 1.545-27.11-6.04-4.06-7.307-5.068-22.07.14-25.143z" fill="#B1E1EF"/><path d="M71.903 65.883L107.79 45.09c.2.086.378.174.53.265 1.938 1.142 3.016 3.905 3.395 7.3L76.717 72.932c-1.818-1.959-3.49-4.422-4.814-7.05m-2.493-6.866l26.906-15.589c2.762.083 5.311.31 7.387.64L70.695 63.19c-.55-1.393-.987-2.8-1.285-4.174m10.241 16.521l32.199-18.655a36.804 36.804 0 0 1-.592 5.261L84.548 77.62c-1.167-.271-2.246-.632-3.198-1.082a11.703 11.703 0 0 1-1.699-1M9.354 64.665l33.109-19.182c3.124.986 5.658 2.364 7.054 4.225.264.351.49.73.682 1.13L12.981 72.403a9.91 9.91 0 0 1-1.39-1.905c-.912-1.64-1.67-3.657-2.237-5.833m-1.146-7.647L31.404 43.58c2.378.167 4.745.454 6.965.884L8.705 61.65a36.787 36.787 0 0 1-.497-4.632m7.909 17.873L51.07 54.64c.067 1.649-.17 3.45-.647 5.295l-29.426 17.05c-1.764-.53-3.424-1.227-4.88-2.093" fill="#D9F6FF"/></g></svg>