<svg width="120" height="120" viewBox="0 0 120 120" xmlns="http://www.w3.org/2000/svg"><g fill="none" fill-rule="evenodd"><path d="M114.508 47.215c2.684-12.003-11.879-12.1-11.879-12.1-3.634-11.388-15.664-7.254-15.664-7.254-3.625-12.033-17.091-3.063-17.091-3.063-8.073-10.519-17.723.937-17.723.937-8.851-5.38-14.446 4.368-14.446 4.368-11.927-6.739-13.061 9.054-13.061 9.054-13.358 1.296-5.11 10.907-5.11 10.907-9.903 5.192.957 15.248.957 15.248-4.869 6.095 9.9 13.707 9.9 13.707 2.611 12.789 15.092 5.857 15.092 5.857 8.492 8.88 15.477 3.681 15.477 3.681 13.35 9.001 18.504-.73 18.504-.73 7.005 4.503 10.885 3.946 13.008 2.339l.002.003s3.861 10.238 15.996 11.255c0 0-8.673-6.745-10.35-14.12 11.918 3.254 9.937-9.812 9.937-9.812 11.906.478 8.579-11.964 8.579-11.964 8.58-11.964-2.128-18.313-2.128-18.313" fill="#262626"/><path d="M108.84 46.624c2.683-12.002-11.88-12.099-11.88-12.099-3.634-11.388-15.664-7.254-15.664-7.254-3.625-12.032-17.09-3.063-17.09-3.063-8.074-10.52-17.723.936-17.723.936-8.852-5.38-14.447 4.37-14.447 4.37-11.926-6.74-13.06 9.052-13.06 9.052-13.358 1.297-5.11 10.908-5.11 10.908-9.903 5.192.956 15.248.956 15.248-4.869 6.095 9.9 13.708 9.9 13.708 2.612 12.788 15.092 5.856 15.092 5.856 8.492 8.88 15.477 3.682 15.477 3.682 13.351 9 18.504-.731 18.504-.731 7.005 4.503 10.885 3.947 13.009 2.339l.001.003s3.861 10.237 15.997 11.255c0 0-8.674-6.744-10.35-14.12 11.917 3.255 9.936-9.812 9.936-9.812 11.907.479 8.58-11.964 8.58-11.964 8.579-11.964-2.128-18.314-2.128-18.314" fill="#D03388"/><path d="M87.12 88.38l.382.895c.152.398 3.315 8.424 12.817 10.427-2.732-2.517-7.389-7.456-8.608-12.818l-.282-1.241 1.222.333c3.124.853 5.473.6 6.981-.754 2.828-2.537 2.014-8.148 2.006-8.205l-.14-.915.92.037c3.108.12 5.365-.667 6.704-2.352 2.533-3.19 1.127-8.597 1.112-8.65l-.094-.352.211-.294c2.647-3.69 3.653-7.176 2.99-10.358-.93-4.46-4.848-6.827-4.887-6.85l-.477-.283.122-.543c.659-2.949.263-5.367-1.176-7.188-3.073-3.89-9.9-3.98-9.968-3.98l-.55-.004-.168-.527c-.966-3.025-2.644-5.16-4.989-6.345-4.373-2.209-9.654-.437-9.707-.419l-.744.256-.228-.758c-.84-2.787-2.306-4.577-4.357-5.32-4.848-1.757-11.52 2.628-11.588 2.673l-.589.391-.431-.562c-2.065-2.69-4.406-4.084-6.96-4.145a10.164 10.164 0 0 0-.178-.002c-5.026 0-9.36 5.06-9.404 5.111l-.418.495-.554-.335c-2.31-1.405-4.585-1.831-6.76-1.268-4.13 1.07-6.611 5.323-6.636 5.366l-.375.654-.655-.37c-2.991-1.69-5.482-2.02-7.403-.982-3.961 2.143-4.523 9.35-4.528 9.423l-.047.643-.638.062c-3.775.367-6.035 1.42-6.716 3.13-.907 2.275 1.215 5.477 2.11 6.519l.626.73-.85.446c-2.226 1.167-3.475 2.676-3.715 4.486-.586 4.435 4.78 9.473 4.834 9.524l.521.483-.443.556c-.722.904-.962 1.863-.735 2.934 1.003 4.729 10.295 9.567 10.388 9.616l.325.167.073.359c.677 3.313 2.101 5.496 4.234 6.486 4.126 1.916 9.69-1.114 9.747-1.145l.51-.282.404.421c7.938 8.3 14.414 3.646 14.479 3.598l.43-.32.444.3c4.643 3.13 8.735 4.276 12.165 3.414 3.647-.919 5.23-3.841 5.246-3.87l.387-.73.693.445c5.404 3.474 9.603 4.295 12.142 2.372l.774-.585zm18.179 13.43l-2.56-.215c-10.378-.87-14.982-8.354-16.258-10.9-2.99 1.654-7.171.846-12.454-2.411-.777 1.085-2.613 3.148-5.78 3.945-3.757.946-8.116-.181-12.964-3.35-.738.43-2.324 1.193-4.495 1.34-2.643.179-6.69-.56-11.126-4.999-1.597.773-6.522 2.818-10.593.932-2.517-1.166-4.203-3.592-5.015-7.213-1.75-.946-9.811-5.544-10.86-10.486-.276-1.302-.063-2.525.633-3.642-1.42-1.453-5.41-5.974-4.83-10.372.276-2.095 1.53-3.84 3.731-5.195-1.008-1.409-2.907-4.594-1.806-7.357.866-2.173 3.34-3.522 7.361-4.014.244-1.968 1.292-7.875 5.258-10.02 2.264-1.224 5.032-1.003 8.237.654.925-1.352 3.412-4.483 7.173-5.456 2.411-.624 4.891-.245 7.38 1.125 1.313-1.388 5.438-5.272 10.34-5.174 2.856.065 5.445 1.478 7.706 4.2 1.854-1.106 7.647-4.17 12.35-2.468 2.338.848 4.038 2.73 5.06 5.598 1.733-.45 6.184-1.284 10.143.716 2.586 1.307 4.462 3.57 5.582 6.734 1.811.102 7.591.729 10.6 4.536 1.65 2.088 2.18 4.762 1.576 7.953 1.184.834 4.266 3.359 5.139 7.549.737 3.534-.286 7.328-3.04 11.278.302 1.377 1.146 6.338-1.478 9.642-1.521 1.915-3.9 2.901-7.078 2.938.135 1.882.116 6.258-2.587 8.684-1.687 1.514-4.075 1.98-7.111 1.389 2.195 6.557 9.654 12.416 9.733 12.479l2.033 1.58z" fill="#262626"/><path d="M35.047 40.96c3.106 0 5.392 1.698 6.856 5.093l-5.064 5.588c-.687-.721-1.479-1.083-2.374-1.083-1.585 0-3.227 1.368-4.93 4.101-1.404 2.254-2.315 4.357-2.733 6.309-.21.932-.313 1.774-.313 2.524 0 2.013.731 3.395 2.195 4.147.477.24.986.36 1.523.36 1.553 0 3.182-1.157 4.885-3.471l1.433 5.363c-2.957 3.305-5.959 4.957-9.006 4.957-3.107 0-5.377-1.652-6.81-4.957-.867-1.923-1.301-4.07-1.301-6.444 0-1.742.224-3.59.672-5.543.897-3.995 2.6-7.646 5.109-10.95 3.016-3.996 6.303-5.993 9.858-5.993" fill="#444242"/><path d="M35.047 41.725c-3.289 0-6.402 1.914-9.254 5.69-2.432 3.203-4.104 6.789-4.971 10.657-.435 1.892-.655 3.7-.655 5.375 0 2.252.415 4.314 1.233 6.129 1.317 3.036 3.317 4.508 6.119 4.508 2.716 0 5.461-1.48 8.165-4.4l-.938-3.508c-1.532 1.737-3.026 2.586-4.539 2.586a4.094 4.094 0 0 1-1.863-.441c-1.737-.89-2.615-2.515-2.615-4.83 0-.803.111-1.709.332-2.691.434-2.024 1.386-4.229 2.83-6.546 1.87-3 3.693-4.46 5.574-4.46a3.79 3.79 0 0 1 2.316.778l4.222-4.661c-1.34-2.816-3.293-4.186-5.956-4.186m-7.528 33.887c-3.423 0-5.948-1.822-7.507-5.416-.903-2.004-1.363-4.278-1.363-6.749 0-1.79.232-3.714.692-5.715.915-4.08 2.68-7.865 5.244-11.242 3.153-4.175 6.673-6.293 10.462-6.293 3.423 0 5.964 1.868 7.552 5.552l.196.453-5.941 6.557-.562-.59c-.545-.57-1.142-.847-1.827-.847-1.28 0-2.761 1.295-4.286 3.743-1.35 2.166-2.237 4.207-2.635 6.064-.197.88-.296 1.672-.296 2.363 0 1.717.583 2.851 1.781 3.466a2.57 2.57 0 0 0 1.178.277c1.293 0 2.73-1.064 4.274-3.161l.936-1.272 1.949 7.291-.276.308c-3.094 3.457-6.314 5.21-9.571 5.21" fill="#262626"/><path d="M52.881 50.92c-1.644 0-3.316 1.351-5.019 4.055-1.374 2.133-2.33 4.222-2.868 6.265-.268 1.08-.403 2.057-.403 2.928 0 1.232.299 2.238.897 3.02.687.87 1.643 1.306 2.867 1.306 1.673 0 3.182-.886 4.526-2.658 1.076-1.412 1.852-3.08 2.33-5.003.567-2.253.687-4.476.359-6.67-.358-2.162-1.255-3.243-2.689-3.243m1.613-11.176c3.166 0 5.407 1.772 6.722 5.317.686 1.833 1.03 3.846 1.03 6.039 0 2.102-.313 4.386-.941 6.85-1.106 4.206-3.017 8.081-5.735 11.627-3.316 4.326-6.827 6.488-10.53 6.488-3.197 0-5.467-1.773-6.812-5.318-.656-1.741-.985-3.694-.985-5.858 0-2.132.329-4.446.985-6.94 1.105-4.236 3.003-8.126 5.691-11.671 3.316-4.356 6.841-6.534 10.575-6.534" fill="#444242"/><path d="M52.881 51.683c-1.358 0-2.83 1.245-4.377 3.701-1.328 2.06-2.26 4.095-2.775 6.05-.25 1.005-.378 1.929-.378 2.734 0 1.069.241 1.905.739 2.554.532.675 1.276 1.008 2.265 1.008 1.436 0 2.719-.771 3.922-2.357 1.007-1.323 1.746-2.911 2.197-4.726.54-2.145.656-4.288.345-6.37-.43-2.594-1.526-2.594-1.938-2.594m-4.526 17.575c-1.463 0-2.627-.537-3.462-1.596-.707-.922-1.061-2.095-1.061-3.494 0-.931.143-1.979.426-3.114.558-2.123 1.556-4.304 2.967-6.494 1.865-2.962 3.716-4.404 5.656-4.404 1.275 0 2.906.674 3.438 3.883.343 2.295.218 4.64-.371 6.982-.502 2.015-1.33 3.792-2.464 5.28-1.488 1.962-3.214 2.957-5.13 2.957m6.14-28.75c-3.468 0-6.823 2.097-9.972 6.234-2.615 3.449-4.486 7.286-5.559 11.402-.638 2.42-.961 4.69-.961 6.745 0 2.06.315 3.94.936 5.588 1.232 3.246 3.228 4.824 6.101 4.824 3.44 0 6.78-2.083 9.93-6.19 2.643-3.45 4.528-7.27 5.602-11.356.607-2.385.916-4.625.916-6.655 0-2.09-.33-4.031-.982-5.77-1.204-3.246-3.17-4.822-6.01-4.822m-9.456 36.32c-3.528 0-6.058-1.953-7.52-5.808-.688-1.823-1.036-3.885-1.036-6.13 0-2.188.34-4.589 1.011-7.136 1.124-4.31 3.083-8.328 5.82-11.94 3.453-4.535 7.214-6.834 11.18-6.834 3.501 0 6.002 1.956 7.433 5.814.716 1.91 1.08 4.032 1.08 6.306 0 2.157-.326 4.526-.966 7.04-1.128 4.29-3.102 8.292-5.87 11.903-3.451 4.503-7.196 6.786-11.132 6.786" fill="#262626"/><path d="M75.515 52.755c-1.524 0-3.074 1.253-4.653 3.76-1.274 1.977-2.16 3.913-2.658 5.806-.25 1.003-.374 1.908-.374 2.716 0 1.142.276 2.075.83 2.798.637.808 1.524 1.212 2.66 1.212 1.55 0 2.949-.822 4.195-2.465.996-1.308 1.716-2.854 2.16-4.637.525-2.089.636-4.149.332-6.182-.332-2.005-1.163-3.008-2.492-3.008m1.495-10.36c2.935 0 5.012 1.644 6.23 4.93.637 1.698.956 3.565.956 5.597 0 1.95-.29 4.066-.872 6.35-1.025 3.899-2.797 7.492-5.317 10.778-3.074 4.01-6.328 6.015-9.761 6.015-2.964 0-5.068-1.643-6.314-4.93-.609-1.614-.914-3.425-.914-5.43 0-1.977.305-4.12.914-6.434 1.024-3.925 2.783-7.533 5.275-10.818 3.074-4.039 6.341-6.058 9.803-6.058" fill="#444242"/><path d="M75.515 53.519c-1.24 0-2.588 1.146-4.01 3.405-1.229 1.905-2.09 3.784-2.567 5.593-.23.927-.349 1.779-.349 2.52 0 .978.22 1.741.673 2.332.483.612 1.158.914 2.058.914 1.311 0 2.486-.708 3.59-2.164.93-1.219 1.612-2.685 2.028-4.36.499-1.982.606-3.96.318-5.881-.39-2.36-1.372-2.36-1.741-2.36M71.32 69.812c-1.375 0-2.47-.505-3.254-1.501-.663-.864-.996-1.963-.996-3.273 0-.866.134-1.842.397-2.9.52-1.976 1.447-4.003 2.758-6.037 1.74-2.762 3.47-4.109 5.29-4.109 1.203 0 2.742.633 3.241 3.647.32 2.135.203 4.316-.345 6.495-.467 1.875-1.239 3.53-2.294 4.913-1.39 1.835-3.004 2.765-4.797 2.765m5.69-26.652c-3.197 0-6.292 1.937-9.2 5.758a29.848 29.848 0 0 0-5.144 10.548c-.59 2.242-.889 4.34-.889 6.24 0 1.902.29 3.638.865 5.16 1.132 2.985 2.965 4.436 5.604 4.436 3.17 0 6.252-1.924 9.16-5.718 2.445-3.188 4.189-6.723 5.184-10.507.561-2.205.847-4.277.847-6.154 0-1.93-.306-3.722-.907-5.328-1.107-2.985-2.912-4.435-5.52-4.435m-8.764 33.67c-3.297 0-5.66-1.824-7.024-5.421-.64-1.697-.964-3.616-.964-5.703 0-2.032.316-4.261.94-6.63a31.375 31.375 0 0 1 5.405-11.086c3.212-4.22 6.713-6.358 10.407-6.358 3.271 0 5.607 1.826 6.943 5.427.665 1.776 1.003 3.75 1.003 5.864 0 2.004-.302 4.204-.896 6.539-1.048 3.987-2.882 7.705-5.451 11.055-3.21 4.189-6.698 6.313-10.363 6.313" fill="#262626"/><path d="M86.712 43.168l7.707-1.44c-2.15 8.32-3.808 15.996-4.974 23.026l7.887-1.217-.673 8.382c-4.062.36-9.215 1.397-15.458 3.11l5.511-31.86z" fill="#444242"/><path d="M87.37 43.822L82.153 73.98c5.436-1.449 10.07-2.376 13.8-2.76l.545-6.781-7.975 1.23.173-1.04c1.11-6.694 2.687-14.067 4.69-21.932l-6.016 1.125zm-7.122 32.26l5.806-33.567 9.401-1.759-.3 1.163c-2.03 7.85-3.638 15.217-4.785 21.92l7.796-1.203-.8 9.988-.64.056c-4 .355-9.156 1.393-15.325 3.085l-1.153.317z" fill="#262626"/><path d="M107.235 39.608l9.365 1.577c-2.48 4.477-4.302 7.977-5.467 10.501-1.584 3.454-2.988 7.195-4.212 11.22l-6.228-.27 6.542-23.028zm-5.064 28.03c1.046-.15 1.972 0 2.778.451.957.48 1.434 1.232 1.434 2.252 0 1.383-.732 2.644-2.195 3.786-1.136.902-2.375 1.442-3.72 1.622-1.075.15-2.001.03-2.778-.36-.925-.48-1.388-1.232-1.388-2.253 0-1.382.701-2.659 2.105-3.832 1.136-.93 2.39-1.486 3.764-1.666z" fill="#444242"/><path d="M101.687 61.914l4.681.203c1.19-3.831 2.56-7.446 4.075-10.75 1.084-2.348 2.754-5.577 4.97-9.607l-7.634-1.285-6.092 21.44zm5.788 1.78l-7.778-.337 6.994-24.615 11.096 1.869-.524.946c-2.46 4.441-4.29 7.957-5.441 10.45-1.56 3.404-2.965 7.146-4.175 11.122l-.172.565zm-4.541 4.651c-.21 0-.429.017-.655.05h-.01c-1.224.16-2.362.665-3.382 1.502-1.227 1.025-1.826 2.085-1.826 3.24 0 .737.302 1.223.978 1.574.625.314 1.41.41 2.325.282 1.205-.162 2.332-.655 3.353-1.465 1.285-1.002 1.906-2.043 1.906-3.186 0-.734-.312-1.217-1.013-1.57a3.352 3.352 0 0 0-1.676-.427zm-3.324 8.23c-.834 0-1.592-.167-2.259-.501-1.187-.618-1.81-1.631-1.81-2.938 0-1.613.802-3.1 2.381-4.42 1.247-1.02 2.64-1.636 4.147-1.834 1.207-.174 2.3.009 3.249.539 1.184.595 1.824 1.61 1.824 2.92 0 1.624-.837 3.101-2.489 4.39-1.233.979-2.609 1.577-4.084 1.775-.33.046-.65.07-.96.07z" fill="#262626"/><path d="M33.334 38.357c3.106 0 5.392 1.698 6.856 5.093l-5.064 5.589c-.688-.722-1.479-1.082-2.375-1.082-1.583 0-3.226 1.367-4.929 4.1-1.405 2.253-2.315 4.357-2.733 6.31-.21.93-.314 1.772-.314 2.523 0 2.013.732 3.395 2.195 4.145.478.242.986.361 1.524.361 1.553 0 3.182-1.156 4.884-3.47l1.434 5.363c-2.957 3.305-5.96 4.957-9.007 4.957-3.107 0-5.376-1.652-6.81-4.957-.867-1.923-1.3-4.07-1.3-6.444 0-1.742.224-3.59.672-5.544.897-3.994 2.6-7.644 5.109-10.95 3.016-3.995 6.302-5.994 9.858-5.994" fill="#FDEC3D"/><path d="M33.334 39.121c-3.288 0-6.401 1.915-9.253 5.692-2.433 3.204-4.105 6.789-4.972 10.656-.435 1.893-.655 3.7-.655 5.376 0 2.252.415 4.315 1.232 6.129 1.318 3.037 3.318 4.508 6.12 4.508 2.716 0 5.461-1.48 8.165-4.4l-.938-3.509c-1.532 1.738-3.026 2.587-4.539 2.587a4.087 4.087 0 0 1-1.865-.443c-1.735-.89-2.614-2.513-2.614-4.827 0-.804.112-1.71.333-2.692.433-2.024 1.386-4.23 2.83-6.547 1.87-3 3.693-4.458 5.573-4.458.849 0 1.625.26 2.317.776l4.223-4.66c-1.341-2.817-3.294-4.188-5.957-4.188M25.805 73.01c-3.421 0-5.947-1.822-7.507-5.415-.903-2.005-1.363-4.279-1.363-6.75 0-1.791.233-3.715.693-5.715.915-4.08 2.68-7.864 5.244-11.242 3.154-4.176 6.674-6.295 10.462-6.295 3.423 0 5.964 1.869 7.552 5.553l.196.453-5.943 6.558-.562-.59c-.542-.57-1.14-.847-1.826-.847-1.278 0-2.76 1.294-4.285 3.743-1.35 2.166-2.237 4.207-2.635 6.064-.197.88-.297 1.672-.297 2.363 0 1.717.583 2.85 1.781 3.465.369.186.756.278 1.18.278 1.292 0 2.73-1.064 4.273-3.161l.935-1.272 1.95 7.292-.276.308c-3.093 3.457-6.314 5.21-9.572 5.21" fill="#262626"/><path d="M51.168 48.316c-1.644 0-3.317 1.352-5.02 4.057-1.373 2.133-2.329 4.221-2.867 6.263-.268 1.083-.403 2.06-.403 2.93 0 1.232.298 2.238.897 3.018.686.872 1.642 1.308 2.867 1.308 1.673 0 3.182-.887 4.526-2.659 1.075-1.412 1.852-3.08 2.33-5.002.567-2.253.687-4.476.358-6.669-.358-2.163-1.255-3.246-2.688-3.246m1.613-11.175c3.166 0 5.407 1.774 6.721 5.318.687 1.833 1.031 3.846 1.031 6.038 0 2.104-.314 4.388-.94 6.85-1.107 4.206-3.019 8.082-5.737 11.626-3.315 4.326-6.826 6.489-10.53 6.489-3.197 0-5.467-1.772-6.81-5.318-.657-1.74-.987-3.694-.987-5.857 0-2.134.33-4.446.986-6.94 1.105-4.236 3.002-8.126 5.69-11.67 3.317-4.357 6.841-6.536 10.576-6.536" fill="#FDEC3D"/><path d="M51.168 49.08c-1.359 0-2.83 1.245-4.378 3.702-1.328 2.062-2.26 4.096-2.774 6.05-.25 1.006-.378 1.928-.378 2.733 0 1.07.241 1.905.738 2.553.533.677 1.276 1.01 2.266 1.01 1.435 0 2.718-.772 3.922-2.358 1.008-1.324 1.747-2.913 2.197-4.725.54-2.146.656-4.289.344-6.369-.43-2.596-1.525-2.596-1.937-2.596m-4.526 17.575c-1.463 0-2.628-.537-3.463-1.596-.705-.92-1.06-2.093-1.06-3.494 0-.93.143-1.976.426-3.114.558-2.12 1.555-4.302 2.967-6.494 1.865-2.961 3.716-4.404 5.656-4.404 1.275 0 2.906.673 3.437 3.884.344 2.293.219 4.638-.37 6.982-.501 2.012-1.33 3.789-2.464 5.278-1.489 1.963-3.215 2.958-5.129 2.958m6.14-28.75c-3.469 0-6.824 2.098-9.973 6.235-2.615 3.448-4.486 7.284-5.559 11.401-.638 2.422-.961 4.69-.961 6.746 0 2.06.315 3.94.936 5.586 1.231 3.247 3.226 4.825 6.101 4.825 3.44 0 6.78-2.083 9.929-6.191 2.644-3.448 4.529-7.269 5.603-11.356.607-2.384.916-4.624.916-6.654 0-2.09-.331-4.032-.982-5.769-1.205-3.246-3.17-4.823-6.01-4.823m-9.456 36.32c-3.53 0-6.06-1.954-7.52-5.808-.688-1.823-1.036-3.884-1.036-6.13 0-2.187.34-4.587 1.011-7.136 1.124-4.31 3.083-8.329 5.821-11.938 3.453-4.537 7.214-6.836 11.18-6.836 3.5 0 6 1.957 7.432 5.815.715 1.908 1.079 4.03 1.079 6.305 0 2.158-.325 4.526-.965 7.04-1.128 4.29-3.102 8.293-5.87 11.903-3.452 4.502-7.196 6.786-11.132 6.786" fill="#262626"/><path d="M73.801 50.152c-1.523 0-3.074 1.255-4.652 3.76-1.274 1.979-2.16 3.913-2.658 5.807-.25 1.003-.374 1.908-.374 2.714 0 1.143.276 2.075.83 2.8.637.808 1.523 1.211 2.659 1.211 1.55 0 2.95-.82 4.195-2.465.997-1.308 1.717-2.854 2.16-4.636.527-2.088.637-4.15.333-6.182-.333-2.006-1.163-3.009-2.493-3.009m1.496-10.36c2.934 0 5.012 1.645 6.23 4.93.637 1.699.956 3.565.956 5.598 0 1.95-.291 4.066-.872 6.35-1.025 3.9-2.798 7.491-5.317 10.778-3.074 4.01-6.328 6.014-9.762 6.014-2.963 0-5.067-1.643-6.313-4.928-.609-1.615-.914-3.426-.914-5.43 0-1.979.305-4.122.914-6.434 1.023-3.927 2.782-7.534 5.275-10.82 3.074-4.037 6.34-6.057 9.803-6.057" fill="#FDEC3D"/><path d="M73.801 50.916c-1.238 0-2.587 1.146-4.01 3.405-1.229 1.908-2.09 3.788-2.566 5.594-.23.928-.349 1.778-.349 2.518 0 .978.22 1.742.674 2.335.482.611 1.156.912 2.056.912 1.313 0 2.487-.708 3.591-2.164.93-1.22 1.612-2.685 2.028-4.358.499-1.982.606-3.961.317-5.883-.39-2.359-1.371-2.359-1.74-2.359m-4.196 16.292c-1.374 0-2.469-.505-3.253-1.5-.663-.867-.996-1.966-.996-3.275 0-.864.134-1.84.397-2.899.519-1.972 1.446-4 2.758-6.037 1.74-2.762 3.47-4.108 5.29-4.108 1.203 0 2.741.632 3.24 3.646.321 2.136.204 4.318-.344 6.495-.467 1.875-1.238 3.53-2.294 4.914-1.39 1.834-3.005 2.764-4.798 2.764m5.69-26.652c-3.195 0-6.29 1.938-9.199 5.758a29.852 29.852 0 0 0-5.144 10.55c-.59 2.24-.889 4.34-.889 6.24 0 1.901.29 3.637.865 5.158 1.132 2.985 2.965 4.436 5.603 4.436 3.17 0 6.253-1.923 9.16-5.717 2.447-3.192 4.191-6.727 5.184-10.506.562-2.208.847-4.28.847-6.155 0-1.93-.304-3.722-.906-5.328-1.108-2.985-2.913-4.436-5.52-4.436m-8.765 33.67c-3.296 0-5.66-1.824-7.023-5.42-.64-1.697-.964-3.615-.964-5.703 0-2.032.316-4.262.94-6.629a31.374 31.374 0 0 1 5.405-11.087c3.212-4.22 6.713-6.358 10.407-6.358 3.27 0 5.606 1.826 6.942 5.426.666 1.776 1.003 3.75 1.003 5.865 0 2.003-.3 4.203-.896 6.539-1.046 3.983-2.88 7.7-5.45 11.055-3.211 4.188-6.698 6.311-10.364 6.311" fill="#262626"/><path d="M84.999 40.566l7.707-1.442c-2.15 8.322-3.809 15.998-4.974 23.028l7.886-1.217-.672 8.381c-4.062.361-9.215 1.398-15.459 3.11L85 40.565z" fill="#FDEC3D"/><path d="M85.657 41.22L80.44 71.376c5.438-1.449 10.072-2.375 13.8-2.76l.544-6.78-7.974 1.23.173-1.042c1.109-6.688 2.685-14.06 4.69-21.93l-6.016 1.124zm-7.123 32.258l5.807-33.566 9.401-1.758-.3 1.162c-2.03 7.855-3.639 15.222-4.786 21.92l7.796-1.203-.8 9.987-.639.057c-3.997.355-9.154 1.393-15.326 3.085l-1.153.316z" fill="#262626"/><path d="M105.521 37.006l9.366 1.578c-2.48 4.477-4.302 7.976-5.467 10.5-1.584 3.455-2.988 7.194-4.212 11.22l-6.229-.27 6.542-23.028zm-5.063 28.03c1.045-.15 1.972 0 2.778.45.956.481 1.434 1.233 1.434 2.253 0 1.383-.732 2.645-2.195 3.785-1.136.902-2.376 1.443-3.72 1.624-1.075.149-2.001.028-2.778-.361-.926-.48-1.389-1.232-1.389-2.254 0-1.38.702-2.659 2.106-3.83 1.135-.932 2.39-1.487 3.764-1.668z" fill="#FDEC3D"/><path d="M99.974 59.313l4.681.202c1.188-3.827 2.558-7.442 4.075-10.752 1.084-2.349 2.755-5.576 4.97-9.605l-7.635-1.286-6.09 21.44zm5.789 1.78l-7.779-.337 6.993-24.617 11.097 1.87-.524.946c-2.46 4.44-4.29 7.955-5.441 10.45-1.562 3.408-2.967 7.15-4.175 11.122l-.171.566zm-4.545 4.65c-.21 0-.427.016-.653.049h-.008c-1.227.162-2.365.667-3.382 1.503-1.229 1.024-1.828 2.085-1.828 3.238 0 .738.302 1.223.978 1.575.625.313 1.41.41 2.326.283 1.204-.162 2.33-.655 3.353-1.466 1.285-1.001 1.907-2.042 1.907-3.186 0-.733-.313-1.217-1.015-1.57a3.353 3.353 0 0 0-1.678-.426zm-3.317 8.23c-.838 0-1.596-.168-2.263-.503-1.187-.616-1.81-1.63-1.81-2.937 0-1.613.802-3.1 2.381-4.418 1.244-1.021 2.637-1.637 4.147-1.837 1.207-.171 2.302.01 3.25.54 1.183.595 1.824 1.61 1.824 2.921 0 1.625-.838 3.101-2.49 4.39-1.235.979-2.61 1.578-4.084 1.775a6.916 6.916 0 0 1-.955.069z" fill="#262626"/><path d="M105.683 28.376c1.105-3.98 3.624-7.207 3.624-7.207s5.692-.891 4.054 3.114c0 0 3.64-1.48 3.1 1.563 0 0 2.484 2.005.672 3.58-1.812 1.575-4.546 6.487-7.826 1.575 0 0-4.77 1.503-3.624-2.625" fill="#D03388"/><path d="M109.307 30.238c.248 0 .487.123.63.338.757 1.132 1.5 1.733 2.21 1.786 1.14.093 2.366-1.258 3.346-2.338.4-.442.78-.86 1.143-1.176.364-.316.402-.577.4-.746-.012-.624-.713-1.387-1.05-1.66a.766.766 0 0 1-.273-.73c.08-.45.045-.788-.093-.9-.322-.266-1.373-.062-1.975.18a.755.755 0 0 1-.823-.172.766.766 0 0 1-.163-.828c.29-.712.317-1.229.077-1.535-.497-.633-2.082-.664-3.013-.572-.584.81-2.428 3.526-3.308 6.696-.127.46-.288 1.282.07 1.63.51.498 1.995.25 2.595.061a.76.76 0 0 1 .227-.034m2.953 3.656c-.075 0-.15-.003-.226-.008-1.094-.082-2.093-.742-3.044-2.014-.882.192-2.579.393-3.562-.564-.703-.685-.864-1.74-.477-3.138 1.133-4.08 3.652-7.337 3.759-7.473a.76.76 0 0 1 .48-.283c.354-.055 3.491-.495 4.74 1.098.368.47.529 1.038.48 1.696.713-.106 1.557-.082 2.167.417.37.301.764.874.687 1.922.473.465 1.27 1.412 1.29 2.527.009.506-.144 1.252-.924 1.93-.296.257-.645.642-1.015 1.05-1.153 1.27-2.577 2.84-4.355 2.84" fill="#262626"/><path d="M7.765 40.01c-.639-2.304-2.096-4.17-2.096-4.17s-3.293-.516-2.345 1.801c0 0-2.106-.857-1.793.904 0 0-1.437 1.16-.389 2.07 1.049.912 2.629 3.753 4.527.912 0 0 2.759.869 2.096-1.518" fill="#D03388"/><path d="M2.26 38.198a1.02 1.02 0 0 0 .019.213.767.767 0 0 1-.273.73c-.195.162-.484.511-.487.716 0 .02-.001.076.12.18.225.196.45.445.689.708.492.542 1.156 1.284 1.675 1.248.382-.029.774-.5 1.035-.892a.76.76 0 0 1 .858-.303c.46.142 1.058.163 1.183.04.02-.02.074-.192-.046-.624-.458-1.653-1.386-3.09-1.779-3.652-.553-.04-1.172.037-1.317.223-.045.057-.036.258.09.566a.767.767 0 0 1-.164.829.756.756 0 0 1-.824.17c-.262-.105-.612-.17-.78-.152m1.704 5.324c-1.172 0-2.084-1.005-2.757-1.748-.208-.228-.403-.444-.56-.58C.1 40.72-.007 40.19 0 39.828c.012-.676.43-1.249.74-1.58-.01-.652.265-1.029.521-1.238.334-.272.752-.347 1.145-.339.042-.365.185-.639.337-.833.818-1.043 2.678-.81 3.042-.754.19.03.362.131.48.283.064.082 1.56 2.014 2.23 4.437.322 1.158-.018 1.798-.36 2.131-.608.592-1.548.556-2.154.45-.571.701-1.198 1.081-1.867 1.131a1.944 1.944 0 0 1-.152.006" fill="#262626"/><path d="M38.255 30.63l-1.1-1.053c1.75-1.848 6-4.346 10.078-1.282.955-1.127 3.196-3.353 6.27-3.742 2.35-.295 4.669.536 6.893 2.475l-.995 1.154c-1.884-1.643-3.805-2.352-5.707-2.113-3.397.43-5.696 3.712-5.72 3.744l-.489.711-.641-.576c-1.773-1.597-3.74-1.977-5.848-1.13a8.628 8.628 0 0 0-2.74 1.812" fill="#FDEC3D"/></g></svg>