<svg width="120" height="120" viewBox="0 0 120 120" xmlns="http://www.w3.org/2000/svg" xmlns:xlink="http://www.w3.org/1999/xlink"><defs><path id="a" d="M0 .24h26.647v27.302H0z"/><path id="c" d="M.159.163h9.124V9.97H.159z"/></defs><g fill="none" fill-rule="evenodd"><path d="M78.892 102.423c4.511-.943 8.707-6.355 11.832-9.55 4.017-4.108 2.894-9.547 6-13.954 2.406.74 6.172 1.222 5.67-2.432-.335-2.45-2.766-3.332-2.481-6.477.227-2.517 1.612-4.941 2.564-7.21.73-1.737 1.053-4.853 2.406-6.222 2.02-2.042 5.423-.28 4.909-3.957-.309-2.21-3.263-3.604-3.4-6.258-.192-3.726 3.923-8.414 5.765-11.556 2.824-4.817 5.125-9.768 2.381-15.128-4.233-8.271-9.029-.623-11.51 4.908-4.633 10.322-6.61 21.125-9.352 32.107C90.943 67.643 87.72 78.97 82.54 88.971c-2.001 3.865-2.329 10.24-5.47 13.171l1.822.28z" fill="#39A935"/><path d="M105.425 38.575c2.209-2.9 5.067-4.624 6.472-8.315 1.832-4.816 1.993-10.811-.544-15.39-4.21-7.596-13.455-6.833-20.176-2.996-5.003 2.856-6.155 7.468-4.759 13.045-5.435-.532-9.762 5.134-11.47 9.746-2.372 6.404-1.491 9.92 1.51 15.473-5.557.464-9.125 4.23-11.099 9.959-1.56 4.529-2.558 11.701 1.072 15.391-.326.159-.767.405-1.058.521-3.465-1.745-8.35-.532-11.48 1.242-3.338 1.894-3.946 5.595-5.713 8.676-8.618-2.67-18.466-.64-20.73 9.174-4.808-2.097-11.032-4.144-15.528-.31-3.964 3.38-5.536 10.13-3.951 14.764 1.314 3.842 4.58 12.288 9.72 9.73 2.44-1.213 3.233-2.774 6.543-3.22 2.293-.308 5.367-.36 7.59.533 1.86.746 3.166 3.076 5.396 1.734 1.84-1.106 1.779-3.315 3.791-4.496 3.673-2.155 9.926-2.843 14.217-3.616 1.531 5.22 5.724 4.918 8.342.821 3.627-5.677 13.278-4.204 18.326-8.782 3.456-3.133 4.305-6.86 6.6-10.528 2.017-3.226 5.435-1.164 7.654-3.515-.197-3.234-.606-3.822-2.199-6.383-1.471-2.364-1.426-3.274-.57-6.215a203.032 203.032 0 0 1 4.863-14.65c.9-2.392 1.435-4.108 3.826-5.105 4.458-1.858 7.275-1.517 4.11-7.251-1.96-3.551-3.768-5.752-1.123-9.534.12-.172.243-.34.368-.503" fill="#93C01F"/><g transform="matrix(-1 0 0 1 119 .125)"><mask id="b" fill="#fff"><use xlink:href="#a"/></mask><path d="M5.21 3.69c8.92-8.291 22.495-.503 21.371 11.351C25.314 28.417 5.094 33.078.635 18.881-1.15 13.199.97 7.634 5.211 3.69" fill="#39A935" mask="url(#b)"/></g><path d="M96.712 16.91c.1.104.19.218.274.335a70.04 70.04 0 0 1-.192-.266c.165.232.35.44.518.668l-.2-.278c.049.071.093.146.127.226l-.125-.332c.004.01.007.022.007.034l-.034-.352v.015l.057-.337a113.641 113.641 0 0 0 .135-.292l-.008.013.211-.26a.043.043 0 0 1-.012.011l.275-.2-.016.011c-.494.315-.785.849-.647 1.445.16.69.873 1.144 1.563.977a1.4 1.4 0 0 0 1.075-1.312c.012-.462-.19-.852-.497-1.184-.363-.394-.826-.654-1.33-.826-.49-.167-1.053.061-1.322.494a1.172 1.172 0 0 0 .141 1.41m12.256-10.59c-.22-.282.023.053.062.123.114.206.256.393.403.577a9.727 9.727 0 0 1 .152.204c.16.228.307.413.501.604.47.463 1.166.604 1.759.282.649-.353 1.03-1.324.586-1.988-.544-.81-1.261-1.53-2.226-1.794-.528-.144-1.09.043-1.384.517-.307.494-.193 1.04.147 1.474m-3.984 11.831c1.803 1.782 4.568.994 6.174-.668 1.282-1.327 2.94-5.228 1.048-6.61-.207-.15-.507-.092-.686.07-.586.531-.628 1.293-.696 2.05-.082.92-.418 1.837-.887 2.623-1.055 1.767-2.971 1.467-4.717 1.751-.35.057-.48.543-.236.784" fill="#1D1D1B"/><g transform="matrix(-1 0 0 1 11.477 91.955)"><mask id="d" fill="#fff"><use xlink:href="#c"/></mask><path d="M.295 7.894c.612-1.421 1.486-2.581 2.47-3.761C3.8 2.893 5.05 1.508 6.348.554c1.8-1.324 3.43 1 2.797 2.645C8.07 5.984 4.622 7.583 2.559 9.542 1.362 10.677-.336 9.36.295 7.894" fill="#39A935" mask="url(#d)"/></g><path d="M14.025 94.92a25.014 25.014 0 0 0-4.588-5.66c-1.42-1.312-3.796.225-2.808 2.043 1.198 2.206 3.057 3.8 4.938 5.406 1.238 1.058 3.404-.179 2.458-1.788m2.69 9.985c.052-.973.472-1.897 1.332-2.547 1.277-.966 2.61-1.31 4.19-1.031 1.461.256 2.595 1.61 2.937 3.001.448 1.822-.076 4.357-1.506 5.654-1.77 1.607-4.727 1.389-6.245-.533-1.075-1.361-1.458-3.085-.708-4.544m27.688-6.502l-.015.03c.119-.144.204-.311.015-.03m-4.782-1.27a5.67 5.67 0 0 1 .645-2.074c.682-1.25 2.2-2.13 3.635-1.982a5.714 5.714 0 0 1 3.06 1.243c.628.527.73.605.305.234l.168.135c.26.207.601.455.835.72 1.454 1.644 1.902 4.12.468 5.946-1.248 1.59-3.233 2.58-5.283 2.32-2.288-.291-4.806-2.053-4.594-4.633a3.54 3.54 0 0 1 .761-1.908m22.025-9.943c.825-1.103 1.827-1.909 3.151-2.324 1.51-.472 3.227.093 4.021 1.498.434.767.456 1.595.47 2.452.012.723-.026 1.574-.305 2.246-.074.177-.16.347-.254.512a2.538 2.538 0 0 1-.764 1.007 5.267 5.267 0 0 1-3.187 1.533c-1.75.182-3.62-.495-3.992-2.444a4.301 4.301 0 0 1 .1-1.944c-.043-.904.251-1.856.76-2.536m21.46-26.537c1.996 1.587 2.86 4.03 2.255 6.541-.565 2.354-2.9 4.456-5.431 4.187-1.859-.197-3.653-1.512-4.156-3.32a6.033 6.033 0 0 1-.862-.964c-3.125-4.396 4.584-9.313 8.194-6.444m.941-20.925c.18-1.767 1.058-3.86 2.428-5.013 1.99-1.676 4.959-1.268 6.642.67 1.658 1.91 2.024 4.654.702 6.863-1.073 1.792-3.255 3.037-5.323 2.18a5.133 5.133 0 0 1-1.174-.688 3.046 3.046 0 0 1-.82-.215c-1.53-.664-2.636-2.028-2.455-3.798" fill="#39A935"/></g></svg>