<svg width="120" height="120" viewBox="0 0 120 120" xmlns="http://www.w3.org/2000/svg" xmlns:xlink="http://www.w3.org/1999/xlink"><defs><path id="a" d="M0 .372h57.745v112.11H0z"/><path id="c" d="M.566.372h27.18v112.11H.565z"/><path id="e" d="M.556.264h48.822v112.813H.556z"/></defs><g fill="none" fill-rule="evenodd"><g transform="translate(31 -.218)"><mask id="b" fill="#fff"><use xlink:href="#a"/></mask><path d="M34.227 112.482l-13.844-10.72 1.154-.96L8.46 87.535l1.153-1.347-8.459-16.151h1.921L0 55.039h1.54S.735 43.638 3.076 38.17l1.328.624s1.482-13.276 11.481-17.416l.075 2.032s8.672-11.091 11.56-13.356l.469 1.25S36.11 1.699 38.142.37c0 0 1.953 7.966 1.953 10.466l1.027-1.172s3.266 8.903 3.736 11.48l1.171-1.093s9.84 10.856 8.593 21.478l1.091-.937s2.19 13.12.939 17.963l1.093-.547s-.393 12.418-2.423 16.87l1.015-.313s-2.105 8.98-4.842 13.354l1.562-.39s-6.48 10.544-10.853 14.447l1.406-.077s-6.037 7.574-9.383 10.582" fill="#00AE7F" mask="url(#b)"/></g><g transform="translate(61 -.218)"><mask id="d" fill="#fff"><use xlink:href="#c"/></mask><path d="M13.61 101.9l-1.406.078c4.373-3.905 10.853-14.447 10.853-14.447l-1.562.39c2.737-4.375 4.841-13.355 4.841-13.355l-1.014.313c2.03-4.452 2.423-16.87 2.423-16.87l-1.094.547c1.251-4.842-.938-17.964-.938-17.964l-1.091.938c1.247-10.622-8.592-21.479-8.592-21.479l-1.172 1.095c-.47-2.578-3.736-11.482-3.736-11.482l-1.027 1.173C10.095 8.337 8.14.37 8.14.37L5.27 6.033 2.063 25.948l-1.27 17.65-.226 18.174.375 19.744 2.317 22.811.968 8.154c3.348-3.008 9.384-10.581 9.384-10.581" fill="#00AE7F" mask="url(#d)"/></g><g transform="translate(34.462 5.552)"><mask id="f" fill="#fff"><use xlink:href="#e"/></mask><path d="M49.378 70.16s-9.972 13.079-19.64 18.003a448.12 448.12 0 0 1-.933-12.362c2.97-1.861 17.315-11.295 19.598-21.268 0 0-6.85 12.767-19.728 19.004a379.448 379.448 0 0 1-.574-16.88c2.898-1.635 15.644-9.237 18.611-18.084 0 0-6.451 10.392-18.628 15.813a308.37 308.37 0 0 1 .307-15.606c2.254-1.512 11.88-8.22 14.95-14.472 0 0-9.446 9.772-14.827 11.989.352-6.397.879-11.896 1.469-16.523 1.677-.884 6.492-3.622 7.376-6.343 0 0-4.275 4.487-7.052 3.91C31.573 5.616 31.808.263 31.808.263c-.04.108-1.252 3.742-2.549 11.11l-2.358-3.528 1.889 6.364c-.63 3.999-1.248 8.879-1.731 14.66-6.501-4.341-10.095-11.466-10.095-11.466.127.377 3.104 9.093 9.912 13.778-.345 4.66-.597 9.864-.705 15.624-8.67-3.62-17.485-18.052-17.485-18.052.316.696 7.698 16.725 17.453 20.146-.053 4.465-.017 9.252.13 14.362C6.003 50.459 1.588 40.704 1.588 40.704c.094.457 2.625 11.275 24.759 24.925.174 4.982.458 10.256.87 15.837C14.334 73.566.556 54.824.556 54.824c.532.878 13.081 21.382 26.843 29.03.26 3.253.56 6.603.91 10.055-7.915-3.818-19.113-10.841-19.113-10.841.455.392 11.012 9.46 19.349 13.113.366 3.441.774 6.976 1.24 10.613l.246 6.283 1.967-.077-.25-6.327-.008-.085a497.104 497.104 0 0 1-1.8-16.21c2.788-1.73 15.205-9.875 19.438-20.217" fill="#007A58" mask="url(#f)"/></g></g></svg>