<svg width="30" height="42" viewBox="0 0 30 42" xmlns="http://www.w3.org/2000/svg"><g fill="none"><path d="M7.4 8.8s-3.6-2.2-.6-5.2S30.5.5 22.9 9.3c0 0 5.8 16.2 6 25 .1 5-9.4 6.4-16.6 6-8.8-.5-10.4-3-10.2-6.2.2-3.2 3.2-23.2 5.3-25.3z" fill="#CAE8DE"/><path d="M4.8 35.9c-1.9-2.1 1-20.6 4.1-24.4 2.6-3.2 10.5-2.2 12.5.2 1.6 1.9 6.5 18 5.1 23.2-1.1 4.3-18.3 4.8-21.7 1z" fill="#C2E33D"/><path d="M8.9 11.5c-1 1.3 12.4 2.3 12.4.2 0-1.6-9.5-3.8-12.4-.2z" fill="#DCF25F"/><path d="M14.7 33.2c-10.3.7-10.2 2.2-9.9 2.7l.1.1c3.4 3.7 20.5 3.2 21.7-1-.1 0 .1-2.6-11.9-1.8z" fill="#8FCC3D"/><path d="M22.5 4.7c0 1-2.9 2-7.4 2s-7.7-.4-7.7-1.4c0-1 3.3-2.3 7.7-2.3s7.4.7 7.4 1.7z" fill="#B6CFD1"/><path d="M22.5 4.7v.2c0 .1-.1.3-.3.4-.2.1-.4.3-.7.4-.3.1-.6.2-1 .3-.7.2-1.6.3-2.5.4-1 .1-2 .2-3 .2s-2 0-2.9-.1c-.9 0-1.8-.2-2.6-.3-.7-.1-1.4-.3-1.8-.5-.2-.1-.3-.2-.4-.3-.1-.1 0-.2 0-.2v.2c.1.1.2.2.4.3.4.2 1 .3 1.7.3.7.1 1.6.1 2.5.1h2.9c1 0 2 0 2.9-.1.9-.1 1.8-.1 2.5-.3.7-.1 1.3-.3 1.7-.5.2-.1.3-.2.3-.3.3-.1.3-.2.3-.2zM7.4 8.8s.4.1.9.3c.5.1 1.3.3 2 .4.4.1.7.1 1.1.2.3.1.7.1.9.2.6.1.9.2.9.2s-.4.1-.9.1c-.6 0-1.3 0-2.1-.1s-1.5-.4-2-.7c-.5-.3-.8-.6-.8-.6zm17.2-3v.4c0 .2-.1.6-.3 1-.2.4-.4.9-.8 1.3l-.6.6c-.2.2-.5.4-.7.5-.3.2-.5.3-.8.4-.3.1-.6.2-.8.2-.3 0-.5.1-.8.1h-.7c-.4 0-.8-.1-1-.1-.2 0-.4-.1-.4-.1h.4c.3 0 .6 0 1-.1.2 0 .4 0 .7-.1.2-.1.5-.1.7-.2.2-.1.5-.2.8-.3.2-.1.5-.2.7-.4.2-.2.5-.3.7-.5.2-.2.4-.4.6-.5.3-.4.6-.8.8-1.2.4-.5.5-1 .5-1z" fill="#96B7C4"/><path d="M6.9 5.2s-.1.1-.1.4c0 .1 0 .3.1.4l.4.4c.2.1.4.2.7.3.2.1.5.1.8.2l1.8.3c.3.1.6.1.9.1.3 0 .6.1.9.1.6 0 1.1.1 1.6.1.9.1 1.6.1 1.6.1s-.6.1-1.6.2h-2.5c-.3 0-.6 0-1-.1-.6-.1-1.3-.2-1.9-.4-.3-.1-.6-.2-.8-.3-.3-.1-.5-.3-.7-.4-.2-.2-.3-.4-.4-.5-.1-.2-.1-.4-.1-.5.2-.3.3-.4.3-.4z" fill="#FFF"/><path d="M20.1 29.4h.3c.2 0 .5.1.7.3.1.1.2.3.2.5v.3c0 .1-.1.2-.1.3-.2.4-.6.6-1 .7-.2 0-.5 0-.7-.1-.2-.1-.4-.3-.5-.5-.1-.2-.2-.4-.1-.6 0-.2.1-.4.2-.5.2-.3.5-.3.7-.4h.3zm0 0s-.1 0-.2.1-.3.3-.4.5c0 .1-.1.2-.1.3 0 .1 0 .3.1.4 0 .1.1.2.3.3.1.1.3.2.4.2.2 0 .4 0 .5-.1.1-.1.2-.3.3-.4v-.4c0-.1-.1-.2-.1-.3-.1-.2-.3-.4-.4-.5-.3-.1-.5-.1-.4-.1zm2.6-2.2s0 .2-.2.5c-.1.1-.1.1-.2.1H22c-.3-.1-.5-.3-.5-.6 0-.1 0-.3.1-.4.1-.1.2-.2.3-.2.2-.1.5 0 .6.2.3.2.2.4.2.4zm0 0c0-.2-.1-.3-.2-.3s-.3 0-.4.1l-.1.1v.2c0 .1 0 .2.1.3 0 0 .1.1.2.1h.2c.3-.2.2-.5.2-.5zM12 33.4s0 .2-.1.6c-.1.4-.3 1-.9 1.5-.3.2-.7.4-1.1.4h-.6c-.2 0-.4-.1-.6-.2-.8-.4-1.4-1.3-1.5-2.2 0-.5.1-1 .3-1.4.3-.4.6-.7 1.1-1 .4-.2.9-.3 1.3-.2.5.1.8.2 1.1.5.6.5.8 1.1.9 1.5.1.2.1.5.1.5zm0 0v-.2c0-.1 0-.3-.1-.4-.1-.4-.5-.9-1-1.1-.3-.1-.6-.3-.9-.3-.4 0-.7 0-1.1.2-.7.3-1.3 1-1.3 1.9 0 .4.1.9.3 1.2.2.4.6.6 1 .8.4.1.8.1 1.1.1.4-.1.7-.2.9-.3.6-.3.9-.8 1-1.2.1-.2.1-.3.1-.4v-.3zm-.1-11.2s-.1.1-.3.1c-.2.1-.5.2-.9.1-.2-.1-.4-.2-.5-.4 0-.1-.1-.1-.1-.2v-.6c0-.5.2-.9.6-1.3.2-.2.5-.3.7-.3.3 0 .5.1.7.2.2.1.4.4.5.6.1.2.1.5.1.7-.1.4-.3.6-.5.8l-.3.3zm0-.1s.1 0 .2-.2c.1-.1.2-.4.2-.7 0-.1-.1-.3-.1-.4-.1-.2-.2-.3-.3-.4-.1-.1-.3-.2-.5-.2s-.4 0-.6.1c-.2.1-.4.2-.5.4-.1.2-.1.4 0 .6 0 .2.2.3.3.4l.3.3c.2.2.5.2.7.2.2 0 .3-.1.3-.1zm-1.7-3.8s0 .3-.3.6c-.1.1-.2.1-.3.2h-.4c-.3-.1-.6-.4-.6-.8 0-.1.1-.4.2-.5.1-.1.3-.2.4-.3.3-.1.6 0 .7.2.3.3.3.6.3.6zm0 0v-.2c0-.1-.1-.3-.3-.3-.2-.1-.4-.1-.5.1l-.2.2c0 .1-.1.1-.1.2s0 .2.1.2c0 .1.1.1.2.2s.2.1.3.1h.3c.2-.1.3-.2.3-.3-.1-.1-.1-.2-.1-.2z" fill="#D9FFB3"/><path d="M9.8 12.6s-.1.3-.2.8-.2 1.3-.4 2.2c-.1.9-.3 2-.4 3.2-.1 1.2-.3 2.4-.5 3.7-.3 2.5-.6 5-1 6.8-.1.9-.3 1.7-.4 2.3-.1.5-.2.9-.2.9v-3.2c0-.9.1-2 .2-3.2.1-1.2.2-2.4.4-3.7.2-1.3.4-2.5.6-3.7.2-1.2.5-2.2.7-3.2.3-.9.5-1.7.7-2.2.3-.4.5-.7.5-.7z" fill="#FFF"/><path d="M14.2 40.3s.6 0 1.7-.1 2.6-.2 4.4-.5c1.8-.3 4-.8 5.9-1.9 1-.6 1.9-1.4 2.2-2.5.2-.5.1-1.1.1-1.7 0-.6-.1-1.2-.2-1.8-.3-2.4-.8-4.9-1.3-7.1-.5-2.3-1-4.4-1.5-6.2-.9-3.6-1.6-6-1.6-6s.2.6.5 1.6.8 2.5 1.3 4.3c.5 1.8 1.1 3.9 1.6 6.1.3 1.1.5 2.3.7 3.5.2 1.2.4 2.4.6 3.7.1.6.1 1.2.2 1.9 0 .6.1 1.3-.1 1.9-.4 1.3-1.4 2.2-2.4 2.8-1 .6-2.1 1-3.1 1.2-1 .3-2 .5-2.9.6-1.8.3-3.4.3-4.5.4-1-.2-1.6-.2-1.6-.2z" fill="#96B7C4"/><path d="M15.3 38.4s1.9-.1 4.6-.6c1.4-.3 3-.6 4.5-1.4.7-.4 1.5-.9 1.7-1.7.2-.9.1-1.8.1-2.7 0-1.9-.3-3.7-.6-5.4-.3-1.7-.6-3.3-.9-4.7-.3-1.4-.6-2.5-.8-3.3-.2-.8-.4-1.2-.4-1.2s.2.4.4 1.2c.3.8.6 1.9 1 3.3s.8 3 1.1 4.7c.3 1.7.6 3.6.6 5.5 0 .9 0 1.9-.2 2.8-.3 1.1-1.2 1.6-2 2-.8.4-1.6.6-2.4.8-.8.2-1.5.3-2.2.4-1.4.2-2.6.3-3.4.3h-1.1z" fill="#67BA38"/><path d="M26.5 35s0-.1-.1-.2-.2-.2-.4-.3c-.2-.1-.5-.2-.8-.3-.3-.1-.7-.2-1-.3-.8-.1-1.7-.2-2.7-.3-1-.1-2.1-.1-3.1-.1h-3.1c-1 .1-1.9.1-2.7.1-1.6.1-2.7.1-2.7.1s1.1-.2 2.7-.4c.8-.1 1.7-.2 2.7-.3 1 0 2.1-.1 3.2-.1s2.2 0 3.2.1 1.9.3 2.7.5c.4.1.8.2 1.1.4.3.1.6.3.7.4.2.1.3.3.4.4-.1.2-.1.3-.1.3z" fill="#67BA38"/><path d="M23.2 34.4s-.1.1-.3.2c-.2.1-.6.3-1.1.2-.2 0-.5-.2-.7-.4-.1-.1-.1-.1-.1-.2s-.1-.1-.1-.2c-.1-.1-.1-.3-.1-.4-.1-.6.1-1.2.5-1.7.2-.2.5-.4.9-.5.3-.1.7 0 1 .1.3.1.5.4.7.6.2.3.2.5.2.8 0 .5-.3.9-.4 1.1-.4.3-.5.4-.5.4zm0-.1s.1-.1.2-.3c.1-.2.2-.6.1-1-.1-.2-.1-.4-.2-.5-.1-.2-.3-.3-.5-.4-.4-.2-.9-.2-1.4.1-.2.1-.4.4-.5.6-.1.3-.1.5.1.8.1.2.3.4.4.5.2.1.3.2.5.3.3.2.7.2 1 .1.2-.1.3-.2.3-.2z" fill="#D9FFB3"/></g></svg>