<svg width="120" height="120" viewBox="0 0 120 120" xmlns="http://www.w3.org/2000/svg"><g fill="none" fill-rule="evenodd"><path d="M60.18 115.115c.822-9.427 11.945-9.533 13.58.334" fill="#433C20"/><path d="M60.827 110.094c1.353-9.342 12.462-8.82 13.536 1.1" fill="#635429"/><path d="M61.426 104.62c1.823-9.244 12.892-8.162 13.466 1.777" fill="#433C20"/><path d="M61.896 99.442c1.823-9.23 12.89-8.146 13.466 1.777" fill="#635429"/><path d="M62.23 94.515c1.447-9.287 12.55-8.653 13.527 1.226" fill="#433C20"/><path d="M62.364 89.585c1.07-9.333 12.187-9.15 13.567.675" fill="#635429"/><path d="M62.298 84.655c.69-9.363 11.81-9.632 13.582.127" fill="#433C20"/><path d="M62.034 79.737c.309-9.388 11.408-10.102 13.575-.425" fill="#635429"/><path d="M61.571 74.83c-.072-9.396 10.986-10.56 13.544-.975" fill="#433C20"/><path d="M60.906 69.944c-.454-9.394 10.55-11.002 13.498-1.522" fill="#635429"/><path d="M60.045 65.086c-.838-9.38 10.093-11.433 13.422-2.067" fill="#433C20"/><path d="M58.985 60.26c-1.22-9.352 9.618-11.847 13.328-2.608" fill="#635429"/><path d="M57.73 55.475c-1.61-9.316 9.121-12.247 13.212-3.148" fill="#433C20"/><path d="M56.275 50.734c-1.994-9.267 8.607-12.63 13.077-3.682" fill="#635429"/><path d="M54.628 46.043c-2.384-9.202 8.073-12.994 12.911-4.21" fill="#433C20"/><path d="M41.173 116.33c-.756-1.76-4.524-7.037-6.536-8.545 4.523.752 8.545 3.016 11.813 5.78.252-2.26.754-4.272 2.764-5.277.503 2.262.755 4.523 1.508 6.534 1.51-1.508 3.268-2.765 5.027-3.268 0 1.257.25 2.514 0 3.77 1.76-1.508 3.016-4.523 1.76-6.787 2.01 1.258 4.522 6.285 6.784 6.285 2.261.251 6.787-5.027 9.55-5.78-.25 1.76-.502 3.517-.502 5.277 3.017-.25 6.032-1.508 9.048-2.01 0 .25.502 1.005.252 1.76 3.77-2.012 6.533-5.279 10.302-6.786.755 3.016-.753 6.03-1.005 9.047H41.173M1.892 24.614C21.466-2.819 49.673 14.196 55.303 18.1 57.565 6.063 78.27-4.614 95.998 3.046c-10.446.668-21.635 9.464-22.53 16.918 22.933-8.059 43.484 10.678 46.009 25.163-8.864-5.892-23.934-13.174-37.556-8.592 18.738 10.976 19.207 32.69 13.202 47.223-5.8-13.64-17.301-30.335-31.777-35.437-9.177 10.367-16.154 25.79-19.276 39.074-1.816-13.375-3.417-29.866 2.065-41.836-9.688.655-32.642 5.932-45.255 19.366C.791 53.5 21.185 27.723 42.285 29.7 27.477 19.23 9.371 20.02 1.892 24.614" fill="#4E8652"/><path d="M57.565 34.604l-.293-.32c-.177-.225-.504-.485-.904-.812a7.712 7.712 0 0 0-1.65-.885c-.67-.276-1.47-.459-2.344-.623-.883-.124-1.846-.222-2.872-.199-1.024.01-2.103.09-3.215.22-2.226.25-4.572.779-6.872 1.448a58.716 58.716 0 0 0-6.651 2.318c-2.075.872-3.987 1.752-5.576 2.61-1.586.857-2.898 1.6-3.777 2.185-.889.569-1.39.91-1.39.91s.118-.095.337-.275c.224-.175.533-.455.963-.764a38.434 38.434 0 0 1 3.645-2.452c1.568-.922 3.433-1.95 5.523-2.858a59.09 59.09 0 0 1 6.704-2.448c2.348-.644 4.738-1.147 7.018-1.368 1.137-.13 2.25-.147 3.3-.11 1.052.023 2.043.169 2.946.339.899.201 1.71.455 2.38.795.68.317 1.212.7 1.629 1.035.395.367.683.67.84.906l.26.348m-12.94-9.67s1.08.056 2.662.405c.792.171 1.705.422 2.664.75.963.322 1.963.742 2.939 1.216.478.255.97.488 1.423.771.463.268.91.546 1.322.847.42.287.82.575 1.17.884.358.302.707.57.984.87.29.287.547.557.773.796l.538.664c.292.37.449.586.449.586s-.21-.17-.563-.479c-.176-.153-.388-.34-.631-.555a29.448 29.448 0 0 1-.866-.659c-.303-.256-.677-.476-1.043-.741-.366-.27-.78-.51-1.198-.773-.412-.274-.87-.503-1.32-.763-.444-.267-.927-.485-1.394-.726a40.743 40.743 0 0 0-2.83-1.275 62.872 62.872 0 0 0-2.543-.97c-.754-.264-1.383-.492-1.832-.626-.45-.14-.704-.222-.704-.222" fill="#1E3520"/><path d="M26.56 14.033s.667-.038 1.834.02c.584.016 1.29.086 2.102.146.807.102 1.728.167 2.712.358l1.542.268c.53.115 1.076.234 1.638.358 1.13.22 2.288.596 3.498.934 1.18.432 2.427.805 3.638 1.334 1.214.519 2.46 1.022 3.637 1.673.592.317 1.19.624 1.772.952l1.684 1.073c1.14.672 2.156 1.49 3.155 2.255 1.034.722 1.886 1.6 2.725 2.39.415.398.83.776 1.21 1.16.356.409.698.804 1.027 1.185.65.765 1.28 1.44 1.752 2.103l1.187 1.744a1303.8 1303.8 0 0 1 1.017 1.522l-1.145-1.431-1.294-1.648c-.514-.622-1.185-1.248-1.85-1.983l-1.06-1.127c-.394-.363-.818-.718-1.244-1.094-.86-.744-1.733-1.561-2.753-2.27-.993-.737-2-1.526-3.132-2.172l-1.667-1.031-1.754-.913c-1.148-.656-2.367-1.167-3.554-1.695-1.185-.537-2.41-.921-3.568-1.364-1.192-.334-2.315-.768-3.423-1.03l-1.604-.42-1.515-.328c-.97-.221-1.875-.35-2.669-.507-.8-.114-1.498-.232-2.076-.287-1.155-.143-1.822-.175-1.822-.175M45.9 67.202s-.02-.596 0-1.64c.03-1.042.057-2.535.21-4.32.156-1.783.347-3.868.723-6.08a71.87 71.87 0 0 1 .659-3.395c.253-1.151.537-2.317.877-3.468a41.38 41.38 0 0 1 1.187-3.385c.459-1.093.943-2.158 1.51-3.142a15.2 15.2 0 0 1 1.877-2.682c.32-.413.723-.737 1.062-1.091.375-.32.756-.61 1.125-.878.4-.221.76-.48 1.146-.637.394-.14.75-.319 1.111-.401l1.01-.217.875-.048c.525-.056.934.074 1.212.08l.425.05-.429-.006c-.278.019-.688-.057-1.2.033l-.845.11-.957.283c-.34.104-.668.305-1.03.464-.355.176-.69.434-1.059.66a18.26 18.26 0 0 0-1.029.886c-.31.356-.678.676-.966 1.09-.306.396-.622.801-.891 1.257a17.68 17.68 0 0 0-.826 1.387c-.534.96-.99 2.006-1.422 3.08a42.432 42.432 0 0 0-1.115 3.337 50.802 50.802 0 0 0-.917 3.405 71.249 71.249 0 0 0-.703 3.35l-.55 3.159a96.31 96.31 0 0 0-.41 2.846c-.472 3.534-.66 5.913-.66 5.913m19.703-35.015s.115-.546.538-1.429l.38-.714.527-.796c.175-.297.434-.553.672-.855l.383-.45.452-.424c.317-.273.612-.61.988-.868l1.142-.827c.402-.269.852-.483 1.293-.737l.678-.368.731-.284c.494-.188.994-.38 1.501-.576l1.592-.408c1.063-.328 2.185-.41 3.292-.585.278-.035.556-.077.834-.1l.837-.021c.556-.014 1.11-.03 1.66-.043 1.101-.075 2.176.083 3.22.125.52.037 1.032.071 1.534.106.499.063.981.156 1.454.229l2.655.434c.823.125 1.554.36 2.212.514.655.168 1.225.313 1.695.432l1.47.392-1.504-.238a585.31 585.31 0 0 0-1.72-.292c-.666-.096-1.406-.268-2.228-.36-.821-.094-1.711-.193-2.651-.299-.47-.049-.952-.116-1.446-.153l-1.515-.066c-1.026-.026-2.09-.164-3.166-.072l-1.625.068-.817.035c-.272.025-.54.075-.811.108-1.078.154-2.177.214-3.207.516l-1.55.37-1.456.532-.71.261-.664.33c-.434.224-.881.408-1.28.648l-1.14.742c-.377.23-.672.54-.994.79l-.459.386-.395.413c-.252.273-.528.504-.72.776l-.578.735-.429.67c-.238.415-.427.747-.524.986-.11.234-.151.367-.151.367m1.132 3.76s.314-.244.949-.542c.323-.133.717-.297 1.193-.415.235-.078.491-.124.765-.165.273-.04.56-.1.865-.09.303-.002.622-.018.95-.005l1.01.123c.353.027.688.165 1.047.247.36.088.72.199 1.06.372l1.06.48 1.004.633c.7.398 1.271.975 1.9 1.482.623.517 1.11 1.163 1.662 1.728.28.282.52.59.74.908l.671.923c.219.305.444.597.643.896l.527.913.962 1.667c.294.519.495 1.03.7 1.467l.514 1.14c.276.635.432.998.432.998l-.572-.927-.638-1.07c-.255-.407-.51-.884-.828-1.38-.33-.487-.686-1.016-1.064-1.576l-.578-.859-.668-.846c-.468-.562-.882-1.202-1.425-1.74-.539-.538-1.02-1.16-1.62-1.646-.594-.488-1.136-1.054-1.792-1.433l-.934-.624-.978-.484c-.315-.18-.65-.285-.976-.394-.329-.1-.64-.257-.964-.302l-.943-.183c-.306-.032-.607-.036-.895-.056-.29-.034-.563.014-.828.022a4.342 4.342 0 0 0-.747.073c-.47.06-.869.175-1.2.268-.65.212-1.004.398-1.004.398m-1.132 2.685s.705 0 1.917.23c.603.126 1.333.295 2.15.567.417.114.841.282 1.29.463.444.188.931.347 1.394.606l1.474.754c.497.282.99.611 1.507.93l.783.495c.248.19.5.38.754.573a52.24 52.24 0 0 1 1.54 1.206l1.472 1.384.751.707.691.777 1.396 1.574c.472.525.853 1.122 1.286 1.682l1.238 1.718c.362.603.723 1.203 1.08 1.8l1.058 1.771c.332.595.607 1.209.905 1.798.565 1.194 1.19 2.314 1.598 3.455l1.224 3.18c.411.971.656 1.909.897 2.73l.62 2.127c.335 1.18.525 1.856.525 1.856l-.674-1.808-.755-2.077c-.295-.8-.598-1.712-1.037-2.666l-1.339-3.106a15.536 15.536 0 0 0-.803-1.658l-.877-1.713c-.303-.578-.582-1.182-.916-1.764l-1.067-1.734-1.087-1.758-1.237-1.673c-.418-.554-.786-1.148-1.242-1.668l-1.348-1.56-.667-.772-.727-.7c-.48-.466-.957-.924-1.425-1.376l-1.481-1.21c-.242-.199-.48-.397-.716-.59-.252-.174-.5-.346-.747-.514-.495-.331-.964-.675-1.44-.97l-1.416-.796c-.445-.276-.919-.44-1.344-.654-.428-.207-.836-.4-1.238-.537a18.925 18.925 0 0 0-2.085-.697c-.592-.144-1.06-.265-1.385-.308-.322-.06-.497-.074-.497-.074m1.132-28.276s.178-.327.584-.839a12.4 12.4 0 0 1 .785-.877c.307-.337.695-.675 1.126-1.036.443-.343.92-.723 1.465-1.067.527-.375 1.127-.695 1.745-1.032.632-.305 1.287-.625 1.975-.89.7-.235 1.39-.537 2.119-.713.724-.189 1.443-.405 2.171-.52.724-.132 1.433-.285 2.13-.338a38.516 38.516 0 0 1 2.007-.178l1.802-.034c.556-.026 1.067.001 1.518.042l1.168.083 1.013.088-1.016.068c-.646.05-1.567.05-2.664.173l-1.77.166-1.957.294c-.683.072-1.366.27-2.072.398-.71.12-1.403.342-2.106.532-.713.161-1.384.446-2.066.665-.668.254-1.32.523-1.941.8-.605.313-1.216.569-1.75.895-.553.293-1.042.627-1.5.929-.436.326-.856.606-1.197.895-.35.277-.635.541-.87.762-.462.447-.699.734-.699.734" fill="#1E3520"/></g></svg>