<svg width="120" height="120" viewBox="0 0 120 120" xmlns="http://www.w3.org/2000/svg" xmlns:xlink="http://www.w3.org/1999/xlink"><defs><path id="a" d="M.733.566h27.399v22.49H.732z"/></defs><g fill="none" fill-rule="evenodd"><path d="M73.802 12.245c0 6.21-6.134 11.245-13.7 11.245-7.565 0-13.7-5.035-13.7-11.245C46.402 6.035 52.537 1 60.102 1c7.566 0 13.7 5.035 13.7 11.245" fill="#A94201"/><g transform="translate(44.72 96.944)"><mask id="b" fill="#fff"><use xlink:href="#a"/></mask><path d="M28.132 11.811c0 6.211-6.134 11.246-13.7 11.246-7.565 0-13.7-5.035-13.7-11.246 0-6.21 6.135-11.245 13.7-11.245 7.566 0 13.7 5.035 13.7 11.245" fill="#A94201" mask="url(#b)"/></g><path d="M103.846 36.38c-4.402 4.391-12.307 3.624-17.657-1.716-5.348-5.338-6.118-13.225-1.718-17.617 4.4-4.391 12.305-3.623 17.655 1.715 5.35 5.339 6.119 13.226 1.72 17.617m-69.062 67.574c-4.4 4.392-12.305 3.624-17.655-1.715-5.35-5.337-6.119-13.226-1.718-17.618 4.4-4.39 12.304-3.622 17.654 1.716s6.12 13.226 1.72 17.617m73.201-29.309c-6.223 0-11.27-6.12-11.27-13.67s5.047-13.67 11.272-13.67c6.221 0 11.267 6.12 11.267 13.67s-5.046 13.67-11.269 13.67m-96.716-.947C5.045 73.697 0 67.576 0 60.027c0-7.55 5.045-13.67 11.27-13.67 6.223-.001 11.268 6.12 11.268 13.67 0 7.549-5.045 13.67-11.268 13.67m72.53 30.926c-4.4-4.39-3.631-12.28 1.72-17.617 5.348-5.339 13.254-6.106 17.654-1.715 4.4 4.392 3.63 12.28-1.72 17.617-5.35 5.34-13.253 6.107-17.655 1.715M16.082 35.71c-4.4-4.39-3.631-12.279 1.718-17.617 5.35-5.338 13.255-6.106 17.655-1.715 4.402 4.391 3.632 12.279-1.718 17.617-5.35 5.339-13.254 6.107-17.655 1.715" fill="#A94201"/><path d="M110.707 60.5c0 28.15-22.87 50.97-51.08 50.97-28.21 0-51.079-22.82-51.079-50.97S31.417 9.53 59.627 9.53s51.08 22.82 51.08 50.97" fill="#FED19C"/><path d="M105.456 60.5c0 25.256-20.519 45.73-45.83 45.73-25.308 0-45.827-20.474-45.827-45.73 0-25.256 20.519-45.73 45.828-45.73 25.31 0 45.829 20.474 45.829 45.73" fill="#FEE4BB"/><path d="M52.959 12.526a1.668 1.668 0 0 1-1.29 1.977 1.67 1.67 0 0 1-1.981-1.283 1.67 1.67 0 0 1 3.27-.694m-9.85 2.432a1.672 1.672 0 0 1-3.054 1.357 1.67 1.67 0 0 1 .847-2.202 1.675 1.675 0 0 1 2.207.845M33.98 19.38a1.663 1.663 0 0 1-.371 2.329 1.668 1.668 0 1 1-1.964-2.698 1.677 1.677 0 0 1 2.335.37M25.973 25.6c.687.617.74 1.671.123 2.355a1.672 1.672 0 0 1-2.36.124 1.667 1.667 0 0 1-.124-2.355 1.676 1.676 0 0 1 2.36-.125m-6.536 7.745a1.67 1.67 0 1 1-2.283.611 1.675 1.675 0 0 1 2.283-.61m-4.78 8.932a1.664 1.664 0 0 1 1.072 2.1 1.67 1.67 0 0 1-3.177-1.03 1.672 1.672 0 0 1 2.105-1.07m-2.814 9.728a1.667 1.667 0 1 1-.348 3.317 1.671 1.671 0 0 1-1.489-1.832 1.673 1.673 0 0 1 1.837-1.485m-.725 10.099a1.67 1.67 0 0 1 1.836 1.485 1.672 1.672 0 0 1-3.323.348 1.67 1.67 0 0 1 1.487-1.833m1.394 10.03a1.667 1.667 0 1 1 1.033 3.172 1.674 1.674 0 0 1-2.105-1.07 1.666 1.666 0 0 1 1.072-2.102m3.453 9.52a1.672 1.672 0 0 1 2.283.612 1.664 1.664 0 0 1-.61 2.276 1.675 1.675 0 0 1-2.284-.609 1.668 1.668 0 0 1 .611-2.279m5.363 8.598a1.669 1.669 0 0 1 2.359.124 1.663 1.663 0 0 1-.123 2.354 1.676 1.676 0 0 1-2.36-.123 1.664 1.664 0 0 1 .124-2.355m7.035 7.296a1.671 1.671 0 0 1 2.335-.369c.747.54.911 1.583.37 2.328a1.675 1.675 0 0 1-2.334.37 1.664 1.664 0 0 1-.37-2.329m8.401 5.677a1.67 1.67 0 0 1 2.206-.845 1.664 1.664 0 0 1 .848 2.201 1.673 1.673 0 0 1-2.206.844 1.666 1.666 0 0 1-.848-2.2m9.402 3.809a1.67 1.67 0 0 1 1.982-1.284 1.665 1.665 0 0 1 1.287 1.976 1.67 1.67 0 0 1-3.269-.692m9.989 1.776c0-.921.75-1.668 1.672-1.667a1.667 1.667 0 1 1 0 3.334 1.67 1.67 0 0 1-1.672-1.667m10.143-.335a1.666 1.666 0 0 1 1.287-1.977 1.67 1.67 0 0 1 1.982 1.283 1.671 1.671 0 1 1-3.27.694m9.851-2.433a1.665 1.665 0 0 1 .847-2.201 1.667 1.667 0 1 1 1.36 3.045 1.671 1.671 0 0 1-2.207-.844m9.127-4.422a1.664 1.664 0 0 1 .37-2.33 1.674 1.674 0 0 1 2.335.369 1.666 1.666 0 0 1-.37 2.33 1.674 1.674 0 0 1-2.335-.37m8.007-6.219a1.665 1.665 0 0 1-.123-2.355 1.673 1.673 0 0 1 2.359-.124c.686.615.742 1.67.125 2.355a1.677 1.677 0 0 1-2.361.124m6.537-7.745a1.666 1.666 0 0 1-.612-2.277 1.672 1.672 0 0 1 2.282-.61c.8.458 1.073 1.478.613 2.277a1.675 1.675 0 0 1-2.283.61m4.779-8.931a1.667 1.667 0 1 1 1.033-3.173 1.668 1.668 0 1 1-1.033 3.173m2.814-9.729a1.667 1.667 0 1 1 .35-3.317 1.67 1.67 0 0 1 1.487 1.833 1.672 1.672 0 0 1-1.837 1.484m.727-10.099a1.667 1.667 0 1 1-.35-3.317 1.672 1.672 0 0 1 1.837 1.484 1.672 1.672 0 0 1-1.487 1.833m-1.394-10.029a1.672 1.672 0 0 1-2.106-1.07 1.666 1.666 0 0 1 1.071-2.103 1.668 1.668 0 1 1 1.035 3.172m-3.455-9.52c-.799.46-1.82.186-2.282-.611a1.665 1.665 0 0 1 .611-2.277 1.672 1.672 0 0 1 2.282.61 1.667 1.667 0 0 1-.61 2.278m-5.361-8.597a1.674 1.674 0 0 1-2.361-.124 1.664 1.664 0 0 1 .123-2.354 1.674 1.674 0 0 1 2.36.123c.618.685.56 1.74-.123 2.355m-7.037-7.296a1.674 1.674 0 0 1-2.334.369 1.666 1.666 0 0 1-.368-2.33 1.672 1.672 0 0 1 2.333-.368c.746.541.913 1.585.37 2.33m-8.402-5.678a1.673 1.673 0 0 1-2.206.845 1.666 1.666 0 0 1-.848-2.201 1.673 1.673 0 0 1 2.208-.845c.842.375 1.22 1.36.846 2.201m-9.401-3.809a1.672 1.672 0 0 1-1.983 1.284 1.667 1.667 0 1 1 .694-3.262 1.668 1.668 0 0 1 1.288 1.978M63.1 12.19a1.67 1.67 0 0 1-3.342 0 1.67 1.67 0 1 1 3.342 0" fill="#FFEFD3"/><path d="M13.8 60.5c0 25.256 20.517 45.73 45.826 45.73a45.68 45.68 0 0 0 23.527-6.481L36.091 21.257C22.738 29.25 13.8 43.832 13.8 60.5" fill-opacity=".4" fill="#FFF"/></g></svg>