<svg width="131" height="181" viewBox="-1 -1 131 181" xmlns="http://www.w3.org/2000/svg"><path fill="#C1B4D8" d="M95.703 64.65V62.1l-5.542-27.45-3.328-8.85-4.213-9.45-7.885-8.25-5.541-4.05L58.56 1.5l-8.088 1.95L45.53 7.2l-4.783 5.7-3.454 4.2-2.996 5.4-2.845 7.2-1.947 8.4-1.348 18.205 1.647 12.545 7.039 21.9 9.586 11.85 11.981 2.7 5.98.9 4.504-.6 11.532-2.025 6.407-4.5 7.896-19.425.974-15"/><path fill="#897AB8" d="M82.62 89.9l-6.636 2.3-7.09.8-14.378-.9-8.387-2.2-.399 12.6s7.289 2.1 7.589 2.2c.299.1 12.78 1.1 12.78 1.1l9.385-.8 7.788-2.2-.652-12.9z"/><path fill="#EF463C" d="M45.68 7.5l5.541 2.025H61.93l9.285-3.075-3.594-2.925L56.313 1.8l-6.29 1.725-3.07 2.138L45.68 7.5m38.266 12.15l-3.969 1.875-2.022 2.7-1.348 5.025 1.198 5.325 2.921 3.825 5.766 2.775h5.392l-1.947-6.825-3.295-8.85-2.696-5.85M45.53 102.375l.599-26.775-.3-11.625-8.836-3L29.28 62.7l-3.37 2.645-2.771 7.705-.898 5.175L23.589 88.8l4.568 15 5.242 12.6 6.515 11.475-.316-6.675v-11.319l2.298-4.356 3.634-3.15M82.62 66.45l.802 36.075 5.242 2.625 2.695 5.175 1.498 5.55v7.05l7.339-15.675 3.744-12.825 1.872-13.35-2.546-9.6L98.024 66l-6.14-1.875h-6.44L82.62 66.45"/><path fill="#FFF" d="M85.743 23.925L82.62 25.2l-1.37 2.55v3.45l2.495 3.75 3.421 1.425h3.348l-4.771-12.45m-74.51 149.85l-1.498-1.2-2.172-.375-.374-.752-3.22-.373-1.648 1.35s-1.347 2.413-1.273 2.482c.075.069.674 2.093.674 2.093h1.872l.974-.45 2.097 2.025 1.797.525 1.722-1.125 1.049-2.1v-2.1zm115.173-14.325l-.974.9V162l.974 1.125h1.497l.899-1.275v-1.575s-.81-1.195-2.396-.825z"/><path fill="#F7EC1E" d="M68.969 111.525s-6.515-.9-9.211 0c-2.696.9-9.061 5.775-9.061 5.775l-3.22 6.225-3.07 8.406s-.45 11.544 1.722 14.769c2.172 3.225 6.141 7.35 6.141 7.35l7.338 7.202 6.59 8.623h1.348s3.819-7.831 6.889-11.303c3.071-3.472 7.564-10.897 7.564-10.897s4.568-7.619 3.744-15.225c-.824-7.606-3.594-11.897-3.819-11.911-.225-.015-3.894-6.389-12.955-9.014z"/><path fill="#FBF5A8" d="M68.52 122.325l-3.485-.675-4.154.337-2.696 3.413-1.497 4.943 1.348 7.132 1.647 3.025 2.921 1.625 4.193-.375s2.471-2.325 2.921-2.55c.449-.225 2.321-6 2.321-6l-.449-5.7-1.947-3.75-1.123-1.425z"/><g fill="#32419A"><path d="M38.816 129.526c-.857-1.798-1.562-3.608-2.544-5.251-1.036-1.736-1.835-3.579-2.749-5.368-.393-.768-.651-1.604-1.009-2.391-.199-.436-.504-.822-.714-1.254-.572-1.182-1.157-2.362-1.669-3.571a152.769 152.769 0 0 1-2.08-5.187c-.904-2.375-1.765-4.765-2.652-7.146-.269-.723-.629-1.418-.84-2.156-.478-1.668-.885-3.356-1.332-5.034-.097-.363-.295-.703-.357-1.069-.209-1.238-.366-2.484-.566-3.723-.132-.821-.318-1.633-.448-2.455-.058-.37-.023-.752-.054-1.127-.081-.963-.118-1.935-.281-2.885-.137-.8-.266-1.581-.166-2.397.078-.639.102-1.285.121-1.93.048-1.545.145-3.081.639-4.565.11-.331.105-.701.204-1.038.124-.423.294-.833.457-1.243.131-.329.297-.642.419-.974.356-.962.651-1.95 1.064-2.887.228-.515.593-.997.99-1.403.672-.685 1.418-1.297 2.13-1.943.069-.062.117-.149.212-.27-.659-1.332-.174-2.772-.295-4.177-.137-1.598-.071-3.22-.001-4.827.059-1.314-.114-2.65.333-3.941.081-.235.024-.65-.139-.811-.432-.428-.315-.936-.067-1.237.525-.638.516-1.374.574-2.088.209-2.573.291-5.157.569-7.722.19-1.758.55-3.509.975-5.228.338-1.363.848-2.692 1.36-4.005.795-2.035 1.61-4.056 2.566-6.033.909-1.881 2.076-3.599 3.017-5.453.496-.977 1.192-1.874 1.98-2.701.856-.898 1.484-2.012 2.222-3.023a142.823 142.823 0 0 1 2.355-3.17c.348-.45.764-.846 1.152-1.263.064-.069.136-.147.219-.179 1.268-.483 2.176-1.422 3.083-2.38.772-.815 1.724-1.388 2.764-1.814 1.123-.46 2.242-.927 3.363-1.392.03-.012.057-.036.088-.04 1.259-.153 2.496-.527 3.782-.402 1.249.122 2.504.218 3.743.419 1.354.22 2.7.515 4.036.835 1.844.441 3.546 1.261 5.253 2.062.256.12.486.299.715.469.1.074.143.252.245.289 1.295.459 1.993 1.665 3.047 2.424.078.057.146.129.225.184 2.924 2.093 3.231 2.81 5.393 4.982 1.412 1.419 2.466 3.039 3.48 4.704.413.677.86 1.432 1.032 2.185.249 1.088.989 1.87 1.377 2.854.317.806.76 1.561 1.112 2.354.338.765.635 1.548.943 2.325.34.861.66 1.731 1.012 2.586.195.471.419.932.666 1.377a4.97 4.97 0 0 1 .612 1.812c.097.747.401 1.467.62 2.198.338 1.132.662 2.269 1.026 3.393.785 2.424 1.087 4.947 1.57 7.434.006.031.018.064.015.095-.112.928.342 1.483 1.143 1.875.412.202.576.542.232 1.015-.274.375-.654.844-.619 1.239.081.939.379 1.861.59 2.788.091.401.176.804.284 1.202.173.645-.002 1.369.45 1.955.07.089.088.247.076.368-.129 1.177.239 2.263.501 3.388.274 1.175.769 2.345.516 3.613-.062.309-.016.648.023.967.022.18.085.41.213.512.372.295.761.589 1.187.792 1.838.874 3.241 2.268 4.53 3.787.366.431.605.987.837 1.513.738 1.672 1.785 3.2 2.232 5.01.545 2.198 1.098 4.402.985 6.676-.096 1.926-.342 3.85-.604 5.763-.226 1.66-.547 3.308-.864 4.954-.254 1.323-.505 2.651-.863 3.949-.437 1.58-.986 3.13-1.477 4.696-.115.366-.178.751-.298 1.117-.26.795-.544 1.582-.811 2.375-.443 1.309-.88 2.621-1.32 3.932-.091.275-.176.553-.276.824-.615 1.691-1.209 3.39-1.856 5.068-.645 1.672-1.335 3.327-2.022 4.982-1.084 2.61-2.166 5.219-3.281 7.816-.388.905-.865 1.773-1.334 2.727-.091.013-.276.05-.463.071-.664.075-.96-.122-1.108-.739-.153-.635-.228-1.208.223-1.827.293-.401.093-1.079.495-1.518-.102-1.414.623-2.657.839-4.015.337-2.114.185-4.221.155-6.332-.008-.531-.244-1.062-.382-1.59-.671-2.558-1.366-5.102-2.944-7.293-1.004-1.395-2.227-2.38-3.953-2.868-1.2-.341-2.091.319-3.127.455-.785.103-1.531.475-2.311.658-1.503.352-3.015.661-4.526.973-.314.066-.641.068-.962.095-1.566.133-3.132.269-4.697.394-.512.041-1.028.044-1.54.079-1.025.07-2.049.156-3.074.222-.188.013-.382-.047-.574-.061-1.123-.085-2.248-.153-3.368-.254-.479-.043-.95-.162-1.426-.228-.382-.053-.823-.215-1.139-.088-.697.282-1.224-.044-1.833-.235-1.01-.316-2.054-.521-3.083-.778-1.123-.281-2.304-.432-3.342-.901-.663-.301-1.412-.307-2.019-.738-.504-.359-.945.048-1.396.207-.138.05-.245.221-.378.237-.828.105-1.362.776-2.094 1.076-.32.13-.571.51-.777.825a77.628 77.628 0 0 0-1.762 2.842c-.107.182-.109.429-.146.65-.055.316-.057.649-.152.954-.617 1.957-.905 3.945-.664 5.998.029.254.031.516-.001.769-.213 1.684.004 3.349.188 5.016.174 1.57.287 3.147.536 4.705.12.744.046 1.388-.26 2.052-.256.557-.518.729-1.1.624-.254-.047-.506-.105-.806-.168zM71.875 7.39c-1.115.466-2.175.967-3.271 1.401-2.139.849-4.389 1.167-6.598 1.672-1.342.307-2.727.482-4.103.576-1.096.075-2.204.402-3.316.008a3.626 3.626 0 0 0-1.195-.186c-1.364.003-2.66-.401-3.986-.624-.155-.026-.304-.102-.451-.164-1.065-.451-2.152-.859-3.185-1.376-.536-.268-.867-.124-1.164.269-.562.74-1.266 1.34-1.8 2.128-1.365 2.018-2.943 3.892-4.314 5.907-1.027 1.511-1.844 3.163-2.792 4.729-1.037 1.711-1.818 3.53-2.445 5.424-.151.458-.39.888-.534 1.348-.499 1.598-.899 3.229-1.478 4.795-.537 1.45-.633 2.96-.814 4.451-.24 1.968-.324 3.958-.439 5.94-.077 1.316-.069 2.637-.144 3.952-.027.46.164.74.505.955.491.31 1.036.545 1.491.898 1.79 1.388 3.892 2.064 6.016 2.678 1.101.319 2.237.517 3.354.783 2.127.506 4.25 1.04 6.448 1.127 2.059.082 4.119.122 6.179.181.931.027 1.864.096 2.795.073 2.19-.054 4.38-.15 6.569-.232 1.148-.044 2.298-.05 3.44-.152 2.145-.192 4.287-.425 6.426-.674 1.246-.145 2.496-.296 3.723-.545 1.833-.372 3.638-.876 5.47-1.245 2.307-.465 4.601-.959 6.763-1.911 1.109-.488 2.315-.819 3.244-1.785-.343-1.637-.683-3.305-1.046-4.968-.139-.635-.233-.673-.856-.617-.802.073-1.606.124-2.407.206-.794.082-1.573.15-2.342-.189-.378-.167-.814-.203-1.211-.335-.573-.192-1.161-.366-1.698-.637-1.204-.609-2.227-1.475-3.207-2.396-.276-.261-.605-.468-.881-.73-.789-.747-1.193-1.707-1.613-2.698-.688-1.623-1.149-3.253-1.186-5.029-.051-2.408.506-4.666 1.497-6.824.416-.908 1.022-1.707 1.853-2.321 1.017-.751 2-1.55 3.04-2.361-.231-.35-.472-.72-.599-.915.09-.341.234-.576.167-.685-.481-.794-.92-1.639-1.532-2.326-1.458-1.633-2.952-3.238-4.527-4.757-1.151-1.107-2.424-2.101-3.846-2.819zM29.476 61.084c1.092-.533 2.038-.857 3.067-.84.089.001.177-.081.27-.098.601-.102 1.205-.291 1.804-.274 1.602.042 3.202.24 4.804.249 1.15.007 2.118.582 3.194.795.305.06.611.187.878.348.819.493 1.613 1.026 2.429 1.524.499.304 1.01.604 1.03 1.263.008.295-.19.597-.184.892.021.833.112 1.663.151 2.495.058 1.218.111 2.436.137 3.655.023 1.075-.019 2.152.014 3.227.034 1.119.264 2.238-.099 3.349-.078.237-.074.522-.029.771.184 1.026.056 2.043.015 3.072-.055 1.348.063 2.703.102 4.055.003.127-.028.254-.043.381-.102.831-.206 1.662-.306 2.494-.05.416.059.635.509.863 1.207.615 2.414 1.156 3.764 1.386 1.671.284 3.321.685 4.993.956 1.289.209 2.599.294 3.899.44.639.071 1.297.3 1.906.206 1.516-.234 3.027-.118 4.536-.081 2.645.064 5.267-.189 7.853-.678 1.729-.326 3.424-.858 5.111-1.377.848-.261 1.657-.671 2.454-1.076.206-.105.4-.439.412-.678.053-.933.047-1.87.034-2.805-.019-1.388-.091-2.776-.085-4.164.006-.835.163-1.669.171-2.505.012-1.804-.026-3.609-.042-5.413-.007-.707.086-1.429-.031-2.117-.262-1.555-.393-3.118-.301-4.685.044-.705.007-1.605.821-1.936.682-.277 1.044-.801 1.307-1.159.736-.071 1.311-.066 1.856-.194 1.1-.255 2.184-.573 3.332-.347.061.012.129.004.193 0 1.413-.101 2.817-.199 4.172.414.205.093.611-.08.831-.252.254-.199.402-.531.691-.94-1.131-3.895-1.216-8.151-2.46-12.234-.501.243-.99.354-1.289.654-.446.45-.987.573-1.536.742-.49.15-.98.302-1.467.461-.26.084-.508.211-.771.275-1.302.318-2.607.622-3.911.929-.966.227-1.931.464-2.901.668-.31.064-.682-.063-.949.062-1.916.884-3.977.955-6.02 1.145-.705.065-1.407.163-2.112.24-1.079.119-2.16.227-3.239.353-.443.051-.879.18-1.322.198-.853.034-1.707-.006-2.559.024-.733.025-1.464.114-2.196.157a75.379 75.379 0 0 1-4.43.139c-.158 0-.317-.056-.476-.053-1.825.03-3.649.083-5.474.095a38.949 38.949 0 0 1-2.775-.092c-1.08-.069-2.166-.132-3.236-.286-.945-.137-1.868-.413-2.808-.594-.718-.137-1.448-.206-2.169-.333a120.243 120.243 0 0 1-3.2-.611c-.245-.049-.476-.171-.711-.265-.922-.372-1.823-.806-2.767-1.101-.787-.246-1.488-.582-2.091-1.139a1.988 1.988 0 0 0-.544-.379c-.724-.314-1.461-.603-2.306-.947-.09 1.077-.241 2.162-.258 3.249-.021 1.352.05 2.706.114 4.058.048 1.057.149 2.112.243 3.369zm8.972 63.222l.217-.017c.022-.178.074-.357.061-.532-.044-.576-.113-1.15-.168-1.725-.04-.415-.064-.835-.109-1.25-.219-2.007-.312-4.015-.125-6.032.122-1.315.258-2.632.332-3.951.079-1.443.636-2.746 1.079-4.085.324-.98 1.087-1.679 1.694-2.444.622-.784 1.498-1.434 2.386-1.914.636-.345.887-.773.977-1.384.093-.636.181-1.281.174-1.922-.016-1.404-.138-2.809-.134-4.213.004-1.542.109-3.084.157-4.626.016-.515-.028-1.031-.01-1.545.036-1.018.094-2.036.145-3.053.064-1.287.135-2.574.193-3.861.013-.286-.014-.575-.02-.862-.016-.834-.036-1.667-.043-2.501-.002-.29.043-.58.04-.87a482.771 482.771 0 0 0-.068-4.507c-.018-.899.013-1.808-.115-2.692a7.19 7.19 0 0 1 .001-2.087c.066-.468.18-1.107-.058-1.406-.466-.588-.466-1.21-.378-1.807.084-.569-.073-.848-.547-1.055-.96-.418-1.904-.881-2.882-1.257-.594-.228-1.23-.421-1.859-.466a68.43 68.43 0 0 0-4.771-.181c-.591-.002-1.187.184-1.772.324-.342.082-.658.325-.998.353-.965.081-1.744.554-2.576.986-1.183.615-2.102 1.484-2.816 2.556-.839 1.259-1.548 2.613-1.956 4.073-.388 1.388-.602 2.824-.936 4.228-.47 1.975-.388 3.975-.251 5.965.126 1.85.372 3.693.576 5.537.054.48.16.954.224 1.432.123.924.124 1.88.372 2.768.662 2.378.878 4.898 2.172 7.083.062.105.037.256.078.376.658 1.887 1.271 3.791 1.995 5.652.72 1.85 1.552 3.655 2.337 5.479.99 2.302 1.952 4.618 2.984 6.901.572 1.265 1.262 2.477 1.901 3.711.83 1.608 1.663 3.214 2.497 4.821zm55.513-4.483c1.102-1.897 1.719-3.79 2.437-5.633.631-1.614 1.11-3.286 1.697-4.919.441-1.23.957-2.432 1.421-3.654.287-.753.565-1.512.801-2.282.502-1.631 1.012-3.262 1.448-4.911.525-1.985 1.165-3.935 1.489-5.982.384-2.416 1.112-4.769 1.369-7.216.246-2.372.309-4.734-.118-7.089-.534-2.949-1.73-5.629-3.399-8.1-.352-.525-.751-1.039-1.216-1.462-1.523-1.39-3.346-2.271-5.289-2.891-.73-.234-1.507-.335-2.269-.449-.339-.05-.699.053-1.043.025-1.149-.098-2.294-.229-3.442-.336a1.887 1.887 0 0 0-.58.039c-1.088.256-2.175.525-3.244.785 0 2.821-.014 5.56.006 8.297.009 1.193.115 2.385.115 3.577 0 .836-.145 1.671-.153 2.507-.013 1.965.02 3.93.028 5.895.007 1.579-.011 3.158.009 4.737.011.804.102 1.607.119 2.411.022 1.019.009 2.04.009 3.06 0 1.03.001 2.061-.002 3.09-.001.634-.039 1.27-.009 1.903.025.489.229.854.82.887.346.02.716.092 1.025.247 1.968.987 3.647 2.346 4.643 4.334.674 1.344 1.343 2.699 1.816 4.152.575 1.774 1.212 3.513 1.283 5.403.042 1.119.141 2.237.229 3.575zm-21.259-15.348c0-.512.011-.891-.004-1.269-.012-.28-.103-.562-.081-.836.081-.951.32-1.907.27-2.848-.103-1.913-.355-3.818-.553-5.815-.25.04-.523.094-.799.125-.702.082-1.407.218-2.11.217-1.36-.001-2.737-.238-4.076-.093-2.005.217-3.964-.046-5.94-.199-.536-.042-1.071-.074-1.678-.116v.787c-.002 1.647.124 3.306-.043 4.935-.16 1.571-.02 3.079.251 4.605.066.369.19.59.585.64 1.044.129 2.082.352 3.128.403 2.4.118 4.801.006 7.195-.184 1.305-.101 2.605-.236 3.855-.352zM47.22 7.335c.395.145.694.246.987.364 1.248.502 2.51.951 3.86 1.087.669.069 1.337.161 2.009.189 1.503.061 3.023.233 4.51.089 1.617-.155 3.208-.596 4.801-.953.812-.181 1.591-.563 2.407-.655 1.312-.149 2.437-.802 3.664-1.173.156-.048.263-.263.384-.391-.484-.283-.877-.49-1.246-.731-1.677-1.098-3.6-1.541-5.501-1.975-1.37-.313-2.794-.425-4.201-.526a22.337 22.337 0 0 0-3.241.027c-.913.066-1.816.39-2.724.389-.864 0-1.317.328-1.496 1.082-1.923.349-3.117 1.579-4.213 3.177zm8.581 86.296l-8.925-2.262c-.041.626-.078 1.258-.126 1.888-.061.798-.177 1.595-.187 2.393-.016 1.224.042 2.448.061 3.672.01.67.002 1.34.002 2.146.983.36 2.013.798 3.078 1.112 1.384.407 2.795.719 4.197 1.063.608.149 1.222.276 1.879.422.029-.243.074-.372.054-.491-.257-1.5.175-2.981.125-4.475-.061-1.861.155-3.733-.158-5.468zm18.944 10.717c1.332-.327 2.574-.604 3.8-.943 1.011-.279 1.998-.653 3.008-.944.684-.197.888-.663.896-1.304.006-.541.052-1.082.046-1.622-.021-1.935-.036-3.87-.098-5.804-.025-.754-.172-1.503-.277-2.364-1.023.291-1.91.524-2.785.795-.761.237-1.5.546-2.264.767-.675.193-1.367.333-2.059.451-.522.089-.687.372-.668.87.061 1.58.073 3.162.157 4.74.09 1.732.377 3.454.244 5.358zm15.202-66.597c-.994.328-1.899.468-2.803.096-.674-.276-1.313-.645-2.001-.876-.711-.238-1.371-.516-1.915-1.057-.428-.426-.921-.784-1.349-1.209-.196-.195-.311-.476-.452-.725-.19-.334-.417-.657-.539-1.015-.383-1.106-1.016-2.166-.709-3.414.09-.366.244-.722.298-1.092.185-1.313.781-2.457 1.478-3.542a3.534 3.534 0 0 1 1.169-1.109c1.537-.891 1.554-.865.627-2.356-.085-.137-.159-.307-.284-.387-.195-.123-.473-.304-.64-.244-1.137.4-2.353.699-3.02 1.867-.189.333-.333.696-.558 1.002-1.112 1.518-1.301 3.34-1.637 5.094-.276 1.439-.014 2.879.45 4.269.567 1.691 1.282 3.285 2.792 4.373.236.169.475.346.666.56.78.875 1.868 1.356 2.896 1.602 1.569.375 3.234.362 4.86.474.362.025.734-.116 1.18-.196l-.509-2.115zm-.733-2.259c-.875-3.631-2.534-6.93-3.596-10.33-1.066-.002-1.905.24-2.517 1.064-.295.395-.381.854-.592 1.249-.651 1.218-.49 2.46-.194 3.661.391 1.595 2.678 3.874 4.78 3.855.698-.006 1.461-.054 2.119.501z"/><path d="M86.679 134.58c.053.997.211 2.003.133 2.99-.085 1.041-.144 2.098-.64 3.095-.645 1.3-1.175 2.66-1.398 4.12-.049.324-.242.663-.458.92-1.193 1.417-2.171 2.954-2.995 4.624-.58 1.177-1.413 2.236-2.188 3.308-1.552 2.148-3.137 4.273-4.719 6.4-1.101 1.479-2.278 2.906-3.308 4.433-.827 1.228-1.528 2.547-2.197 3.871-.286.563-.32 1.248-.512 1.862-.191.612-1.158 1.29-1.791 1.242-.214-.016-.462-.193-.612-.367a33.985 33.985 0 0 1-1.371-1.743c-.169-.23-.295-.496-.423-.755-.439-.877-.979-1.661-1.769-2.276-.344-.268-.588-.671-.855-1.03-.346-.466-.655-.959-1.004-1.422-1.463-1.946-3.279-3.551-5.017-5.234-.927-.897-1.784-1.868-2.671-2.806-1.867-1.976-3.785-3.907-5.577-5.948-.851-.968-1.706-1.977-2.036-3.327-.212-.867-.687-1.67-1.034-2.505-.099-.238-.232-.492-.231-.737.011-1.741-.643-3.376-.728-5.115-.155-3.155.143-6.228.966-9.272.499-1.843 1.031-3.66 2.032-5.303.127-1.22.737-2.255 1.314-3.287.482-.864 1.091-1.658 1.643-2.483.143-.212.278-.431.432-.633.442-.584.794-1.243 1.559-1.517.245-.087.412-.384.624-.574.782-.703 1.69-1.242 2.407-2.043.357-.398.979-.578 1.505-.803 1.086-.462 2.215-.834 3.276-1.346 1.036-.502 2.25-.33 3.238-.959a.616.616 0 0 1 .377-.077c.746.101 1.491.216 2.235.333.342.054.72.251 1.014.163 1.007-.304 1.974.022 2.953.084.394.025.772.259 1.168.358 1.965.489 3.957 1.029 5.613 2.185 1.616 1.128 3.198 2.339 4.59 3.793 1.399 1.463 2.222 3.24 3.256 4.917.923 1.498 1.404 3.157 2.079 4.737.48 1.123.542 2.432.739 3.666.082.505.038 1.014.325 1.49.136.224.103.561.109.846.013.708.004 1.415.004 2.123-.019.002-.039.002-.057.002zm-20.037 34.4c1.148-1.956 2.132-3.848 3.32-5.603 1.612-2.382 3.372-4.663 5.084-6.977.883-1.194 1.819-2.35 2.691-3.552.929-1.281 1.851-2.568 2.7-3.902.727-1.142 1.375-2.338 2.005-3.538.359-.685.625-1.419.915-2.139.491-1.221 1.231-2.357 1.342-3.712.087-1.057.178-2.116.189-3.174.022-2.147.134-4.304-.42-6.413-.015-.062-.015-.128-.029-.19-.239-1.066-.415-2.153-.735-3.194-.565-1.842-1.411-3.573-2.329-5.262-.852-1.566-2.103-2.835-3.342-4.084-.715-.721-1.655-1.213-2.436-1.874-.736-.623-1.58-.984-2.471-1.277-.243-.081-.524-.105-.728-.244-1.259-.863-2.785-.957-4.159-1.481-.175-.066-.405-.107-.571-.051-.675.23-1.331.051-1.995-.021-1.857-.205-3.706-.328-5.445.582-.081.042-.188.036-.284.051-1.386.219-2.595.918-3.851 1.475-.576.253-1.065.705-1.596 1.062-.237.16-.486.302-.723.464-.995.679-1.68 1.669-2.452 2.558-.917 1.055-1.872 2.112-2.377 3.468-.19.512-.445.998-.653 1.503-.663 1.605-1.448 3.175-1.943 4.83-.542 1.816-.866 3.706-1.184 5.58-.169 1.002-.186 2.04-.162 3.06.045 1.904.474 3.757.947 5.591.322 1.246.59 2.547 1.168 3.676a24.771 24.771 0 0 0 2.751 4.212c1.173 1.455 2.539 2.754 3.846 4.098.697.717 1.464 1.364 2.166 2.077 1.108 1.128 2.106 2.379 3.298 3.403 1.496 1.286 2.602 2.865 3.772 4.41a181.673 181.673 0 0 0 2.476 3.212c.377.473.799.908 1.215 1.376zm-62.16 8.826c-.599.161-1.141.4-1.695.433-1.223.073-2.124-.702-2.247-1.926a7.506 7.506 0 0 1 1.121-4.821c.462-.745 1.132-1.306 1.996-1.415a13.425 13.425 0 0 1 2.978-.062c.747.074 1.357.563 1.71 1.299 1.385-.098 2.268.818 3.229 1.56.167.131.309.352.366.558.469 1.695.302 4.32-1.572 5.607-.964.662-1.987.94-3.108.764-.418-.066-.838-.327-1.185-.594-.584-.45-1.112-.974-1.593-1.403zm2.02-6.038l-.071-.242c-.568-.014-1.136-.035-1.704-.041-.896-.009-1.536.404-1.941 1.2-.461.911-.674 1.883-.727 2.893-.01.19.004.393.057.576.156.533.57.689 1.053.409.448-.261.69-.66.775-1.169.075-.447.353-.684.805-.676.414.008.703.332.78.846.014.095.017.194.008.291-.053.571.219.993.621 1.353.216.193.439.38.663.566.718.598 1.398.671 2.213.241 1.24-.657 1.95-2.542 1.457-3.88a.955.955 0 0 0-.144-.251c-.725-.921-1.956-1.183-3.058-.672-.228.106-.501.229-.727.189-.25-.044-.576-.215-.671-.424-.093-.202.014-.543.127-.78.086-.178.317-.287.484-.429zm121.484-12.601c1.093-.299 1.48-.034 1.629 1.065a4.762 4.762 0 0 1-.596 3.063c-.165.29-.442.579-.738.725-.986.487-2.473.124-3.19-.716-.895-1.051-1.003-2.427-.271-3.485.129-.185.251-.376.398-.546.768-.895 1.921-.935 2.768-.106zm-.172.742c-.468.138-.984.173-1.341.43-.365.262-.669.7-.54 1.252.186.8.7 1.067 1.68.873.409-.818.704-1.644.201-2.555zM63.421 58.323c.439-.098.786.284.928.607.231.527.335 1.148.32 1.725-.004.213-.489.42-.764.617-.439.316-.71-.014-.95-.295-.466-.541-.563-1.215-.562-1.896 0-.418.452-.742 1.028-.758zm21.449-1.066c-.097.782-.456 1.169-1.188 1.225-.427.032-.972-.413-1.042-.946-.05-.396.007-.811.045-1.214.038-.402.269-.66.682-.689.427-.029.846.009 1.047.48.161.376.305.762.456 1.144zm-43.226-.811c.102.55.278 1.029.249 1.497-.02.33-.319.642-.482.942l-1.368-.21c-.291-.633-.702-1.333-.229-2.024.447-.653 1.174-.175 1.83-.205z"/><path d="M56.224 131.023c0-.937-.02-1.875.009-2.813.013-.382.038-.81.215-1.131.791-1.432 1.179-3.069 2.265-4.354 1.109-1.313 2.438-2.199 4.2-2.186 1.451.009 2.901.114 4.349.203.278.016.603.085.814.247.638.49 1.321.965 1.823 1.58 1.107 1.352 2.089 2.814 2.454 4.564.176.844.171 1.727.248 2.592.005.065-.002.131.004.194.27 2.744-.301 5.329-1.437 7.818-.374.822-.67 1.679-1.013 2.516-.084.206-.165.448-.323.586-2.863 2.488-5.962 3.435-9.745 1.299-.25-.141-.534-.294-.692-.518-1.187-1.689-2.518-3.321-2.972-5.394-.225-1.027-.229-2.107-.293-3.165-.041-.676-.007-1.358-.007-2.038h.101zm1.435-.267c.044 1.546-.092 3.037.438 4.478.265.717.408 1.478.634 2.212.63 2.045 1.821 3.589 4.006 4.04.867.179 1.805.125 2.698.042 1.54-.139 2.619-.993 3.236-2.413.515-1.183.977-2.391 1.534-3.552.781-1.629.97-3.339.863-5.109-.042-.679-.075-1.359-.144-2.035-.245-2.388-1.472-4.232-3.242-5.756a1.637 1.637 0 0 0-.86-.38c-1.252-.106-2.511-.216-3.765-.198-.585.01-1.246.185-1.732.502-1.154.752-2.067 1.76-2.511 3.113-.21.644-.386 1.299-.599 1.942-.129.388-.376.751-.435 1.147-.098.669-.088 1.354-.121 1.967z"/></g></svg>