<svg width="120" height="120" viewBox="0 0 120 120" xmlns="http://www.w3.org/2000/svg" xmlns:xlink="http://www.w3.org/1999/xlink"><defs><path id="a" d="M0 .245h119.981v86.252H0z"/></defs><g fill="none" fill-rule="evenodd"><g transform="matrix(-1 0 0 1 120 17.258)"><mask id="b" fill="#fff"><use xlink:href="#a"/></mask><path d="M103.335 1.549c30.384 11.418 13.153 52.933-4.183 67.654-20.819 17.68-57.524 24.237-80.488 8.015C3.4 66.435-10.793 43.914 11.724 31.46c14.283-7.899 28.312 6.901 42.676.623C70.38 25.1 81.908-6.504 103.335 1.55" fill="#B23031" mask="url(#b)"/></g><path d="M54.545 61.407c-4.55-2.877-9.866-9.464-2.526-10.554 4.657-.691 9.911 4.54 14.68 4.77 6.676.314 11.959 1.677 4.405 6.508-4.938 3.159-11.74 2.32-16.559-.724" fill="#FCD73F"/></g></svg>