<svg width="120" height="120" viewBox="0 0 120 120" xmlns="http://www.w3.org/2000/svg" xmlns:xlink="http://www.w3.org/1999/xlink"><defs><path id="a" d="M.44.346h8.875v11.052H.44z"/></defs><g fill="none" fill-rule="evenodd"><path d="M28.625 25.525l-8.781.085-.095-9.784c1.678-1.716 7.202-1.64 8.781-.086l.095 9.785zm-12.75 22.654l-8.78.085L7 38.48c1.678-1.716 7.201-1.64 8.78-.086l.095 9.784zm.251 26.014l-8.78.085-.095-9.784c1.677-1.715 7.201-1.64 8.78-.085l.095 9.784zM29.31 96.596l-8.781.085-.094-9.783c1.677-1.716 7.201-1.64 8.78-.085l.095 9.783zm22.584 12.789l-8.78.085-.095-9.783c1.678-1.716 7.202-1.64 8.78-.085l.095 9.783zm25.934-.251l-8.78.085-.096-9.784c1.678-1.715 7.202-1.64 8.781-.085l.095 9.784zm22.333-13.224l-8.78.084-.094-9.784c1.677-1.715 7.201-1.64 8.78-.085l.094 9.784zm12.422-22.247l-8.78.085-.095-9.784c1.678-1.715 7.202-1.639 8.78-.085l.095 9.784zm-.253-26.242l-8.78.085-.094-9.783c1.677-1.716 7.201-1.64 8.78-.085l.094 9.783zM50.953 11.725l-8.78.085-.095-9.784c1.677-1.715 7.201-1.639 8.78-.085l.095 9.784z" fill="#F73131"/><g transform="translate(67.571 .16)"><mask id="b" fill="#fff"><use xlink:href="#a"/></mask><path d="M9.315 11.313l-8.78.085L.44 1.614C2.117-.1 7.641-.025 9.22 1.53l.095 9.784z" fill="#F73131" mask="url(#b)"/></g><path d="M99.476 24.837l-8.78.085-.095-9.783c1.678-1.716 7.202-1.64 8.78-.085l.095 9.783z" fill="#F73131"/><path fill="#828282" d="M110.042 54l-44.281.43 42.661-11.912-.41-1.48-42.662 11.91 38.135-22.58-.78-1.324-38.134 22.581L95.58 19.913l-1.094-1.077L63.477 50.55l21.77-38.682-1.334-.756-21.77 38.682L73.19 6.777l-1.484-.383L60.66 49.41l-.428-44.419-1.532.016.428 44.418L47.253 6.63l-1.476.412L57.65 49.837 35.14 11.584l-1.32.782 22.512 38.252-31.614-31.105-1.073 1.098 31.614 31.104-38.563-21.837-.753 1.339 38.563 21.837-42.883-11.081-.382 1.488 42.883 11.081-44.282.43.016 1.536 44.28-.43L11.477 67.99l.41 1.48L54.55 57.56 16.415 80.14l.779 1.324 38.134-22.58-31.009 31.712 1.094 1.076L56.422 59.96l-21.77 38.682 1.334.755 21.77-38.682-11.047 43.016 1.484.384L59.24 61.099l.428 44.418 1.532-.015-.428-44.418 11.874 42.793 1.476-.412-11.874-42.793 22.511 38.253 1.32-.782-22.511-38.252 31.614 31.104 1.073-1.097L64.64 58.793l38.562 21.837.753-1.338-38.563-21.837 42.883 11.081.383-1.488-42.883-11.081 44.28-.43z"/><path d="M110.05 54.768l-.767.008c.132 13.668-5.27 26.088-14.112 35.133-8.844 9.043-21.119 14.7-34.745 14.832-13.625.132-26.007-5.286-35.023-14.156-9.016-8.87-14.655-21.185-14.787-34.853-.132-13.667 5.27-26.088 14.112-35.132 8.844-9.043 21.119-14.7 34.744-14.833 13.626-.131 26.008 5.286 35.025 14.157 9.015 8.87 14.654 21.184 14.786 34.852l.767-.008.765-.007c-.271-28.18-23.264-50.803-51.357-50.53-28.093.273-50.645 23.337-50.374 51.517.272 28.18 23.264 50.802 51.358 50.53 28.092-.273 50.645-23.337 50.373-51.517l-.765.007z" fill="#A3A3A3"/><path d="M102.166 54.845l-.767.007c.11 11.484-4.427 21.919-11.856 29.519-7.431 7.598-17.744 12.35-29.193 12.462-11.448.111-21.851-4.441-29.427-11.894-7.574-7.454-12.313-17.798-12.424-29.283-.11-11.484 4.428-21.919 11.857-29.518C37.787 18.539 48.1 13.787 59.55 13.675c11.449-.11 21.85 4.441 29.427 11.895 7.575 7.453 12.313 17.798 12.423 29.282l.767-.007.766-.008c-.23-23.812-19.66-42.928-43.398-42.698-23.739.23-42.796 19.72-42.567 43.532.23 23.813 19.66 42.929 43.398 42.699 23.74-.23 42.796-19.72 42.567-43.533l-.766.008z" fill="#A3A3A3"/><path d="M46.154 95.037l3.714-10.656 20.722-.201 3.92 10.582-28.356.275zm17.01-30.913l5.378 14.522-16.732.163 5.097-14.624 6.257-.061zm20.38 55.037l4.852-.047-25.695-68.599-1.034.01-3.526.034-1.034.01-24.367 69.085 4.851-.047 6.621-18.998 32.346-.314 6.986 18.866z" fill="#A3A3A3"/></g></svg>