<svg width="120" height="120" viewBox="0 0 120 120" xmlns="http://www.w3.org/2000/svg" xmlns:xlink="http://www.w3.org/1999/xlink"><defs><path id="a" d="M0 .1h78.928V65H0z"/><path id="c" d="M.142.137H90.56V77.9H.141z"/></defs><g fill="none" fill-rule="evenodd"><g transform="translate(8 55)"><mask id="b" fill="#fff"><use xlink:href="#a"/></mask><path d="M33.15 17.18l.937-.688S24.67 11.067 20.841 4.838c0 0 3.656-2.906 1.355-4.44-2.302-1.536-3.964 3.365-3.964 3.365s-3.604-4.071-5.296-1.53c-1.692 2.545.3 4.54 3.14 4.766 0 0-4.587 3.119-1.304 4.893 3.286 1.775 4.087-3.33 4.087-3.33s5.997 8.096 14.29 8.619zm-4.606 10.21l.429-.782s-7.17-7.641-10.953-6.827c-3.784.818-4.553 7.655-4.553 7.655S5.47 18.685 3.072 19.747c-2.397 1.061 2.923 4.655 2.666 6.936-.257 2.278-6.212 2.43-5.708 4.789.503 2.363 7.372-.453 8.48 1.728 1.11 2.183-5.045 4.402-3.178 6.665 1.868 2.266 10.436-2.797 11.573-7.192 1.14-4.394-.033-7.598 2.725-8.345 2.757-.745 8.914 3.062 8.914 3.062zm20.082 11.05s6.454 3.277 7.254 6.023c.803 2.747-2.542 3.412-5.696 6.675-3.153 3.261-3.01 13.222-.107 13.64 2.903.415 1.592-6 4.03-6.19 2.436-.188 3.611 7.15 5.887 6.351 2.278-.8-.698-5.966 1.113-7.374 1.811-1.406 7.645 1.27 7.302-1.332-.342-2.602-11.97-4.882-11.97-4.882s5.43-4.216 4.154-7.877c-1.272-3.66-11.523-5.808-11.523-5.808l-.444.774zm5.135-11.3l1.419-3.306s10.104 5.74 15.696 6.003c0 0-1.498-4.427 1.267-4.467 2.764-.04 1.508 4.98 1.508 4.98s5.232-1.463 5.277 1.592c.044 3.055-2.71 3.65-5.22 2.297 0 0 2.167 5.112-1.554 4.819-3.72-.293-1.631-5.016-1.631-5.016s-9.512-2.84-16.762-6.903z" fill="#9EBD79" mask="url(#b)"/></g><path d="M63.551 71.673s4.709 12.58-2.852 22.38c-7.562 9.8-30.95 0-26.024-14.603 4.925-14.6 20.492-13.428 20.492-13.428l8.384 5.651z" fill="#9EBD79"/><path d="M58.902 71.111s3.175 8-1.272 13.639c-4.445 5.639-18.796-.144-14.997-8.253C46.433 68.386 55.417 68 55.417 68l3.485 3.111z" fill="#F4D27F"/><g transform="translate(22)"><mask id="d" fill="#fff"><use xlink:href="#c"/></mask><path d="M78.153 72.038c-3.856 7.74-32.2 7.581-46.756.906C20.084 67.756-6.075 44.722 1.494 32.252c2.508-4.13 9.106-5.38 14.07-8.931A22.405 22.405 0 0 1 18.6 21.52c-3.45-4.552-3.698-11.016-.189-15.888 4.286-5.948 12.554-7.274 18.462-2.96 4.825 3.524 6.587 9.72 4.74 15.112 7.906.832 16.318 3.868 23.748 10.496.351-.754.777-1.487 1.28-2.187 4.286-5.948 12.555-7.274 18.464-2.959 5.908 4.315 7.224 12.64 2.939 18.588a13.177 13.177 0 0 1-11.907 5.44c1.235 8.715 6.036 16.808 2.017 24.876" fill="#9EBD79" mask="url(#d)"/></g><path d="M38.26 36C50.856 51.561 67.326 57.951 87 56.738c-1.455 5.582-10.22 20.6-32.77 11.285C31.682 58.706 35.167 38.122 38.26 36" fill="#FFF"/><path d="M74 70.022c-4.98 1.556-11.583 1.495-20.156-1.949-8.432-3.388-13.26-8.29-15.844-13.23 7.437-1.603 24.4-2.816 36 15.179" fill="#E8832E"/><path d="M105.438 25.667c4.939 3.643 6.04 10.671 2.456 15.694-3.582 5.022-10.492 6.141-15.431 2.498-4.94-3.643-6.04-10.67-2.457-15.694 3.582-5.022 10.493-6.14 15.432-2.498m-47.9-20.526c4.938 3.643 6.038 10.67 2.455 15.693-3.582 5.023-10.492 6.141-15.431 2.499-4.939-3.643-6.039-10.67-2.457-15.694 3.582-5.022 10.493-6.14 15.432-2.498" fill="#FFF"/><path d="M47.663 6c-2.054.03-3.69 1.708-3.663 3.743.028 2.034 1.72 3.659 3.772 3.632 2.052-.028 3.69-1.706 3.663-3.74C51.407 7.6 49.718 5.97 47.663 6m47.563 20.626c-2.052.028-3.693 1.706-3.663 3.742.03 2.038 1.72 3.66 3.771 3.632 2.053-.028 3.693-1.705 3.666-3.739-.028-2.035-1.722-3.662-3.774-3.635" fill="#000"/></g></svg>