<svg xmlns="http://www.w3.org/2000/svg" width="286.807" height="72.976" viewBox="-1.138 0.537 286.807 72.976"><defs><style/></defs><g id="ID0.15856806794181466"><path id="ID0.2259777677245438" fill="#FCD53E" d="M456 204.3H168.8v-30.7H208c21.7 4.3 38.7 11.8 49.3 23.9 8.5-24.1 9.2-47.3 0-69.5-9.2 13.7-38.9 28.3-49.3 31.7-8.8 2.8-61.2 7.3-77.5 8-2.1.1-3.6.1-4.3.1-.3 0-.5 0-.5-.1h-44c-.3 0-.7 0-1 .1-15.1 1.4-21.9 16.4-18.5 28.7 3.7 13.5 18.5 15.9 18.5 15.9h111.2v9.3h-8.3c-.8-1.6-2.2-2.7-3.7-2.7-1.6 0-2.9 1.1-3.7 2.7h-9.4c-1.2-1.1-2.9-1.8-4.8-1.8-1.3 0-3.2-.6-4.3-.2-.4-.5-.9-.9-1.5-1.2-1.3-.7-3.1 0-3.4 1.5-.8 3.3-.9 6.6-.2 10 .4 1.7 2.4 2.5 3.8 1.4.2-.2.5-.4.7-.6 1.2.5 3.7.3 5 .3 2 0 3.8-.8 5-2h9.7c.8 1.2 2 2 3.3 2 1.3 0 2.5-.8 3.3-2H456s9.3-.7 11.5-8.4c2-7.2-2.2-15.9-11.5-16.4zm-366.6 0h-8.7c-16.6-1.7-12.9-28 1-30.7h7.7v30.7zm25.7 0h-18v-30.7h18v30.7zm45.8 0h-39v-30.7H161l-.1 30.7zm50 17.4h-13.2v-9.3h13.2v9.3zm245.1 0H216.7v-9.3H456c5.3-.1 7.9 7.3 0 9.3z" transform="translate(-42.2 -88.85) scale(.69834)"/><path id="ID0.8608506550081074" fill="none" stroke="#FCD53E" d="M277.7 162.5h42" transform="translate(-42.2 -88.85) scale(.69834)"/><path id="ID0.9644269701093435" fill="none" stroke="#FCD53E" d="M277.7 173.7l36.4 21" transform="translate(-42.2 -88.85) scale(.69834)"/><path id="ID0.4391731065697968" fill="none" stroke="#FCD53E" d="M277.7 151.3l36.4-21" transform="translate(-42.2 -88.85) scale(.69834)"/></g></svg>