<svg xmlns="http://www.w3.org/2000/svg" width="101.382" height="192.084" viewBox="0.542 -0.115 101.382 192.084"><defs><style/></defs><g id="ID0.5945051498711109" transform="translate(.65) scale(.95)"><path id="Hair_3_" fill="#371E10" d="M75.961 9.576c-1.862-1.202-3.7-1.187-5.905-1.187-2.455 0-5.016.736-6.767 1.935-1.162.796-2.379 2-2.401 3.602-.018 1.285 1.004 2.715 1.483 3.873.469 1.138 1.021 2.078 1.142 3.323.125 1.298-.588 2.979-1.2 3.463-.375-.82-.398-1.786-.99-2.621-.3-.421-.604-.803-.924-1.139-.375-.393-.672-.444-1.159-.729-.632-.37-.56-.404-.896-1.022-.259-.475-.306-.625-.408-1.163-.209-1.119-.942-2.516-.992-3.688-.026-.681.098-.831-.033-1.495-.155-.789-.084-1.506.247-2.311.232-.563.436-1.306.863-1.743.521-.531.916-.886 1.312-1.555.688-1.163 1.347-1.513 2.378-2.359 1.093-.893 2.225-2.08 3.62-2.494 2.537-.752 6.098-.161 8.325 1.144 1.9 1.117 3.174 3.933 2.379 6.096M58.595.203c-.357.206-1.628-.073-2.118 0-1.137.169-2.027.169-3.166.396-2.437.48-4.972 1.435-7.254 2.48-3.425 1.568-6.827 4.369-7.702 8.164-.222.969.326 3.631 1.682 3.209.046.528-.489.991-.775 1.389-.407.568-.588.373-.649 1.063-.094 1.06-.79 3.165.198 4.071 2.105 1.929 4.298-2.609 6.08-3.28-.167.763-1.383 1.805-1.731 2.576-.303.666-.682 1.077-.938 1.739-.547 1.415-1.093 2.669-1.498 4.147-.284 1.033-.753 3.149.171 4.025 1.076 1.018 2.279.163 2.95-.629-.506.995-.223 2.489-.358 3.511-.125.957.559 1.729 1.556 1.794.451.029 1.139.014 1.469-.346.358-.393.524-.761.758-1.226.478-.947 1.005-1.851 1.691-2.6.029 1.229-1.315 2.127-.225 3.895.805 1.298 2.471.534 3.371-.473-.011 1.23-.754 2.705 1.034 2.922 1.442.176 2.799-.643 3.406-1.691.642-1.107 1.513-2.175 1.693-3.465.158-1.159.365-2.693.358-3.866-.004-.9-.962-1.212-1.479-1.812-.691-.8-.904-1.18-1.146-2.156-.17-.685-.395-1.256-.035-1.934.49-.92.106-1.075.58-1.682-.504-.599-1.1-1.099-1.469-1.851-.343-.699-1.032-1.087-1.329-1.802-.247-.591-.553-1.061-.853-1.626-.385-.727-.533-1.618-.774-2.372-.428-1.336-.357-3.004.003-4.4.299-1.16 1.37-2.973 2.236-4.119 1.263-1.673 2.41-2.852 4.192-3.984"/><path id="Headband_3_" fill="#BD5DA4" d="M66.386 1.843c-.08.053-.161.1-.246.148-.691.334-1.412.486-2.069.897-.489.305-.984.698-1.423 1.064-.463.39-.938.738-1.397 1.146-.484.427-.873.84-1.302 1.318-.889.99-1.968 1.852-2.437 3.151-.209.584-.263 1.186-.479 1.757-.203.531-.108 1.07-.079 1.633.028.583.145 1.134.175 1.712.031.611.27 1.081.385 1.643.236 1.142.895 2.086.833 3.278-.47.134-.802.02-1.219.328-.129.096-.415.471-.559.481-.241.018-.207-.234-.286-.378-.248-.452-.772-.733-1.084-1.158-.32-.438-.679-.832-.997-1.262-.728-.975-1.271-2.207-1.659-3.354-.411-1.212-.873-2.508-.69-3.835.099-.711.238-1.457.385-2.164.161-.794.551-1.453 1.016-2.099.402-.56.746-1.15 1.072-1.764.337-.636.871-1.144 1.372-1.67.589-.615 1.266-1.059 1.879-1.605.432-.386.896-.708 1.475-.771.649-.069 1.341-.026 1.991.003.756.037 1.539.012 2.272.208.526.144 1.092.301 1.604.498.278.108.614.177.875.314.257.136.286.339.592.481"/><path id="Skin_Face_1_" fill="#A16235" d="M55.413 39.125c.422.31-1.409 1.014 0 1.291.732.146 1.318.071 1.965-.34.359-.229.594-.234 1.073-.185.406.041.817 0 1.226.033a8.345 8.345 0 0 1 2.271.535c.715.28 1.383.69 2.033 1.073.443.259.861.51 1.319.742.389.199.549.427.825.726-.006.052-.007.146-.021.203v-1.157c0 .188-.005-.699 0-.707.029-.041.052-.083.105-.119.127-.094-.219-.462-.153-.31.028-.307.286-.35.328-.659-.208-.149.088-.427.167-.39.043-.305.252-.121.279-.428a.488.488 0 0 0 .036.11c.011-.319.003-.644.031-.964.242-.081.404-.086.648-.106.027-.313.027-.627.051-.94.247-.017.454-.214.743-.193.182.014.563.131.68.23 1.568.285 5.161 1.839 6.213-.27.481-.964-.203-2.118.594-2.992.446-.492 1.207-.333 1.693-.812.362-.353.615-1.159.146-1.538.362-.39 1.037-.626 1.07-1.262.024-.479-.296-.831-.408-1.258-.103-.383-.36-.734-.239-1.113.16-.502.764-.359 1.231-.519.328-.114.683-.432.891-.739.167-.246.551-.604.408-.874-.392-.743-.91-.997-1.377-1.434-.251-.233-.53-.652-.775-.896-.25-.249-.367-.663-.596-.942-.501-.614-.685-1.146-.763-1.936-.076-.788.233-1.502.413-2.214.11-.439.113-.905.208-1.342.05-.221.175-.436.247-.646.064-.179-.094-.906-.044-1.077.243-.823-.064-1.387-.265-2.2-.113-.46.021-.908-.277-1.258-.178-.205-.393-.42-.501-.67-.097-.225-.083-.475-.226-.683-.232-.336-.525-1.029-.857-1.289-.555-.436-1.036-.595-1.667-.861-.324-.136-.384-.202-.725-.25-.375-.049-1.072-.122-1.439-.104-.995.043-2.168-.039-3.152.13-.673.115-1.21.152-1.881.289-.425.086-1.091.236-1.485.423-.441.206-1.102.492-1.495.753-.341.226-.521.411-.874.631-.289.181-.32.414-.624.583-.108.062-.845 1.525-.753.962-.004.589-.336.719-.3 1.31-.054-.048-.246.069-.299.118.172.268-.146.542-.098.86.024-.015-.284.841.023.423.01.323.098.244.144.562-.343.017.045.439.137.53.043.321.273.327.313.646.383-.036.56.854.737 1.191.075.143.189.262.213.422.164.007-.021.401.127.44.029.331.386.254.397.586.014-.007.024-.014.036-.019.024.32.016.642.062.959.259.06.099 1.22.104 1.366.005.173.117.356-.07.457.013.841-.022 2.108-.695 2.752-.348-.311-.278-1.04-.384-1.475-.124-.499-.521-.922-.727-1.396-.327-.751-1.381-1.326-2.069-1.72-.447-.257-.937-.616-1.469-.511-.677.139-.933.453-1.268.998-.345.563-.62 1.005-.724 1.687-.092.591-.014 1.218.165 1.779.197.632.339 1.181.812 1.651.394.396.869.836 1.225 1.253 1.179 1.373.536 3.723.078 5.298-.232.804-.467 1.601-.697 2.394-.11.378-.176.766-.33 1.107-.161.351-.278.625-.31 1.017-.054.682-.246.937-.781 1.416-.474.423-.901 1.324-1.454 1.623"/><path id="Eye_White_1_" fill="#FFF" d="M75.55 19.671a1.636 1.636 0 0 1-.509.283c-.165.055-.325.128-.487.191-.094.038-.16.063-.224.148-.068.088-.076.254-.116.365-.049.135-.018.236-.011.377.012.231.112.441.161.664a.77.77 0 0 0 .134.308c.063.098.126.171.206.25.049.052.081.099.145.132.043.021.147.025.168.073.047.104-.235.056-.285.054-.374-.019-.728-.101-1.089-.188a9.156 9.156 0 0 1-.621-.169c-.218-.069-.421-.173-.644-.25-.26-.091-.504-.179-.738-.325-.079-.049-.179-.117-.184-.221-.004-.078.045-.11.087-.17.045-.063.066-.145.112-.205.075-.105.231-.177.346-.234.391-.188.817-.317 1.236-.437.394-.113.797-.203 1.188-.326.228-.073.463-.111.692-.181.139-.043.28-.111.421-.145"/><path id="Iris_3_" fill="#371E10" d="M74.301 20.202a.707.707 0 0 0-.123.286c-.098.379.037.809.129 1.175.025.095.07.189.108.281.036.088.072.096.148.144.124.076.197.2.335.26a.898.898 0 0 0 .277.067c.29.016.481-.065.64-.317.178-.277.35-.552.35-.888 0-.139.013-.283-.017-.419-.029-.143-.097-.264-.152-.399-.071-.169-.176-.301-.279-.449-.066-.095-.129-.12-.239-.113a3.007 3.007 0 0 0-.625.108 1.082 1.082 0 0 0-.299.117c-.086.051-.167.144-.271.156"/><path id="Skin_Arm_Left_1_" fill="#A16235" d="M77.406 83.34c-.207.056-.313.478-.465.656-.235.281-.437.544-.654.85-.387.537-.984 1.273-1.542 1.67-.611.432-1.27.847-1.97 1.113-.878.336-1.816.47-2.708.806-.087.031-.397.074-.444.161-.122.222.06.117.184.192.226.135.557.214.812.291 1.104.336 2.23.696 3.323 1.089 1.528.548 3.031 1.165 4.541 1.729 1.43.533 2.729 1.292 4.19 1.83 1.233.454 2.362 1.146 3.558 1.642.497.205.744.39 1.061.818.263.353.493.502.84.73.466.312.734.744 1.157 1.082.402.324.677.534 1 .964.341.455.807.778 1.236 1.127.422.343.652.836 1.103 1.08.645.349 1.499.519 2.204.772.97.348 1.987.72 2.978.992.705.191 1.175.458 1.567.536.308.062 1.023-.93 1.308-1.079.293-.156.268-.416.564-.584.302-.173.437-.429.691-.602.299-.202.517-.265.741-.578.356-.49.951-.765 1.391-1.243.247-.27.412-.438.444-.81.035-.41-.131-.544-.377-.888-.352-.494-1.105-1.188-1.074-1.849.572.189 1.299.123 1.875-.13.375-.165.773-.353.733-.749-.018-.182-.326-.474-.452-.622-.188-.221-.661-.33-.917-.439-.369-.159-.869-.235-1.246-.378-.669-.251-.98-.489-1.602-.818-.441-.232-1.121-.707-1.495-1.021-.108-.092-.112-.266-.219-.32-.078-.039-.371-.029-.463-.039-1.367-.134-2.769-.141-4.138-.317-1.438-.182-2.859-.43-4.312-.488-.485-.02-.808.031-1.234-.164-.411-.19-.845-.329-1.244-.527-2.146-1.066-4.347-2.276-6.297-3.642-.422-.298-.982-.732-1.448-.975-.49-.256-.63-.612-1.146-.838-.647-.279-1.522-.637-2.053-1.07"/><path id="Skin_Arm_Right_1_" fill="#A16235" d="M39.448 78.954a.544.544 0 0 0-.181-.074c-.083-.25-.341-.365-.466-.611-1.657-.604-2.579-2.298-3.691-3.492-.367-.396-.805-1.012-1.34-1.231-.607-.249-.371.125-.562.824-.272.971-.694 1.953-1.05 2.95-.35.978-.604 1.986-1.032 2.906-.489 1.047-1.12 1.966-1.769 2.925-.314.469-.485 1.629-.738 2.141-.293.594-.429.659-.688 1.229-.197.424-.615 1.002-.934 1.336-.464.479-.877.284-1.465.438-2.271.604-2.862 2.764-3.496 4.721-.368 1.144-.94 2.272-1.409 3.35-.403.928-1.108 1.969-1.75 2.667-.354.386-.812.837-.333 1.354.377.411.864.22 1.271.001.531-.282.916-.704 1.336-1.096.357-.333.957-1.321 1.324-1.454-.131 1.19-1.074 2.145-.762 3.412-.439.025-.753.011-1.149.188-.836.371-1.824 1.222-2.354 1.968-.403.56-1.287 2.011-1.05 2.731.296.891 1.651-.79 2.128-1.144 1.027-.771 2.271-1.182 3.397-1.747.492-.247.949-.533 1.447-.767.555-.265.954-.395 1.268-.845.584-.833 1.051-1.809 1.513-2.728.511-1.025 1.058-1.998 1.729-2.934.767-1.062 1.268-2.329 1.893-3.486.566-1.049 1.292-2.011 1.984-2.981.892-1.242 1.473-2.68 2.412-3.872.906-1.147 1.935-2.23 2.735-3.385.331-.478.614-1.127.887-1.637.352-.65.751-1.238 1.144-1.842"/><path id="Shirt_3_" fill="#4E3A78" d="M54.752 40.091c-.504.526-.811.883-1.538 1.239-.658.324-1.304.796-1.749 1.416-.462.645-.691 1.451-1.188 2.097-.506.654-.834 1.423-1.325 2.098-1.546 2.122-1.956 4.781-3.021 7.197a51.488 51.488 0 0 0-1.67 4.312c-.375 1.108-2.055 2.401-2.974 3.172-1.354 1.139-2.536 1.973-3.948 2.941-.959.658-1.781 1.023-2.698 1.75-.44.348-1.058.807-1.343 1.295-.557.955.487 2.116-.137 2.828-.362.416-1.145.443-1.333.961-.145.391-.014 1.172-.059 1.596 1.639.492 3.469 1.777 4.496 3.18 1 1.364 3.173 2.777 4.683 2.982.666.089 1.504-.193 2.1-.562.638-.397.354-.245.759.572.467.942.548 1.481.254 2.573-.277 1.031-.663 2.126-1.47 2.879-.508.475-.962 1.038-1.552 1.438-.499.337-.871.396-1.048.993-.175.585.006 1.224.208 1.747.228.596.523 1.307.844 1.812.713 1.129-.226 1.538-.703 2.575-.421.916-.863 2.163.086 2.95.462.385 1.459.818 1.96 1.137.564.357.646.203 1.178.602 1.055.792 2.819 1.081 4.299 1.633 1.405.526 3.071.67 4.711 1.015 1.437.302 3.251.345 4.706.215.877-.079 1.494-.11 2.354-.254a45.488 45.488 0 0 0 2.664-.571c2.155-.523 5.351-1.967 5.351-4.929 0-.812-.482-1.054-.979-1.599a14.731 14.731 0 0 1-1.152-1.442c-.42-.6-.697-.976-.617-1.797.07-.713.425-1.123.699-1.754 1.268.526 2.543.408 3.897.271.639-.062 1.043-.172 1.633-.416.683-.283 1.539-.988 2.338-.993.284-.437.964-.649 1.41-.967.478-.339.914-.733 1.345-1.117.882-.786 1.538-2.405 1.537-3.593-.001-1.192-.513-1.209-.912-2.277-.33-.882-1.146-1.717-1.345-2.653-.123-.575.21-1.042.216-1.605.007-.604.162-1.604.034-2.179-.247-1.106-.903-2.033-1.52-2.994-.706-1.1-1.424-1.783-1.735-3.074-.188-.771-.221-2.173.481-2.875.555-1.798.43-3.597.131-5.438-.21-1.304-.781-2.569-1.114-3.845-.34-1.306-.897-2.449-1.378-3.701-.458-1.194-1.142-2.312-1.745-3.427-.312-.572-.471-1.031-.703-1.604-.22-.538-.798-.874-1.103-1.483-.388-.783-.405-1.091-1.115-1.611-.521-.381-1.396-.986-1.968-1.271-1.043-.523-1.514-.802-2.646-1.169-1.029-.334-2.253-.453-3.37-.263-1.222.209-2.199.464-3.354 0"/><path id="Pants_3_" fill="#A17456" d="M66.291 98.771c.812 1.166.98 2.419 2.012 3.689 1.332 1.645 1.314 2.977 2.155 4.851.631 1.405.872 2.289 1.06 3.851.175 1.456.627 2.933.947 4.371.638 2.86 1.333 6.659 1.87 9.422.64 3.291 1.307 5.708 1.462 8.866.118 2.398.239 6.868.78 8.761 1.597.197.678 5.468.674 6.865-.007 2.708-.45 4.662.818 6.918.629 1.12 1.889 3.83 2.524 5.016.551 1.024 1.628 1.622 2.001 2.74.382 1.146-.128 2.629.33 3.749.411 1.005 1.917 1.707 2.605 2.514.562.657 1.313.893 1.874 1.511.491.546 1.258.826 1.508 1.508.501 1.368 1.047 1.445.913 2.748-.166 1.6-.97 2.608-.67 4.16.321 1.674-.537 2.966-.866 4.136-1.84.107-3.276-.144-5.009.394-.216 1.368-2.535 3.873-3.796 4.446-1.632.744-4.163.654-5.974.566-2.335-.111-4.866-.116-7.118-.869-1.399-.472-2.587-2.019-3.942-2.103.306-2.665 1.225-5.137.087-7.904-.495-1.207-1.443-2.567-1.358-3.947.078-1.237.561-2.508.561-3.913-.003-2.675-.811-5.196-1.53-7.722-.422-1.481-.592-2.624-.893-4.152-.251-1.282-1.28-2.506-1.345-3.775-.272-5.384-.728-5.123-1.262-7.687a20.57 20.57 0 0 0-.772-2.747c-.443-1.262-.839-2.512-1.14-3.892-.077-.038.017-.075-.177.061-.217.155-1.179 2.428-1.374 2.843-.412.87-.542 1.883-.593 2.897-.056 1.107.397 2.278.139 3.354-.237.981-1.118 2.105-1.677 2.938-.672.999-1.707 1.788-2.479 2.684-.47.548-.968.661-1.362 1.265-.298.459-1.39 1.571-1.626 1.916-1.577 2.287-3.517 5.548-5.601 7.48-1.553 1.443-3.413 2.901-3.607 5.104-.173 1.978 1.323 4.772.003 6.253-1.048 1.171-2.168.719-1.36 2.524.525 1.187-.092 1.658-.664 2.998-.467 1.09-1.2 1.859-2.08 2.804-.773.828-.865 1.34-1.344 2.233-.726.314-3.924 1.498-4.704 1.625-6.617 1.081-10.342-.25-11.941-.896-1.307-.53-2.209-1.057-2.975-2.314-.843-1.381-1.671-2.79-5.793-3.931-2.511-.696-.722-.208-2.238-.979-.707-1.972 1.376-4.594 2.463-6.156.335-.482.574-1.346.662-1.935.08-.547-.051-1.298.089-1.54.416-.717 2.604-.479 3.312-.708.004-.576.083-1.18.268-1.688.762-2.106 2.405-4.269 3.79-5.918 1.565-1.869 2.58-3.091 4.32-4.829.989-.994 1.972-1.788 2.981-2.854 1.026-1.079 2.229-2.022 3.26-3.107.729-.768 1.916-2.038 2.604-2.806.333-.372-.296-1.063.021-2.06.316.064.312-2.143 1.479-1.478 1.396-2.193 1.312-4.587 2.291-6.928 1.161-2.777 2.067-5.347 2.723-8.308.77-3.464 1.699-8.207 1.898-12.396.139-2.944.327-5.285.413-8.27.073-2.573.247-5.386 1.253-7.815.501-1.21.59-2.537 1.285-3.658.585-.945 1.798-2.148 1.772-3.35.848.221 1.758.855 2.521 1.274 1.626.891 1.781 1.199 3.159 1.527 1.733.413 3.446.972 5.176 1.435.909.244 1.69.377 2.683.389 4.27.05 9.187-1.007 12.441-2.236"/><path id="Pocket_3_" fill="#4E3A78" d="M57.225 103.074c-.314.207-.08 1.414-.08 1.795-.001.949-.793 1.816-1.179 2.658-.446.973-.86 1.66-1.623 2.428-.383.387-.699.728-1.026 1.164-.375.502-.836.771-1.321 1.124-.709.514-1.365.964-2.149 1.358-.514.258-1.081.427-1.588.677-.729.358-1.537.571-2.249.948-.59.311-1.239.407-1.854.652.014.992.878 1.783.836 2.818.954-.107 1.934-.059 2.872-.363.683-.221 1.276-.303 1.958-.554.328-.121.836-.314 1.161-.448.456-.184 1.077-.585 1.485-.86.263-.18.468-.094.72-.295.299-.235.709-.478 1.021-.695.425-.299.601-.324.925-.745.217-.282.754-.687.988-.957.552-.639.903-1.24 1.508-1.827.521-.505.984-1.419 1.336-2.035.396-.694.753-1.47 1.06-2.217.289-.699.226-1.279.271-2.032.033-.519.191-.673-.279-.988-.28-.191-.624-.348-.917-.535-.593-.379-1.208-.836-1.874-1.028"/><path id="Shoe_Left_1_" fill="#4E3A78" d="M96.501 184.778c-.008-.005.183.129.186.134.144.208-.07.712-.176.927-.119.244-.291.29-.469.489-.173.196-.255.468-.409.679-.442.607-1.03 1.227-1.542 1.763-1.265 1.322-3.026 1.899-4.765 2.421-1.438.43-2.75.869-4.252 1.085-1.316.187-2.61.309-3.93.371-1.439.064-2.91-.172-4.34-.041-.747.068-1.502.084-2.226.264-.486.122-1.146.14-1.517.516.001.039.032.032.033.079-.378.355-1.223.361-1.722.519-.363.111-.711.222-1.062.364-.613.243-1.48.516-2.146.582-1.692.171-1.844-1.341-1.999-2.392-.126-.847.22-1.519.396-2.313.083-.366.01-.891.458-1.044.293-.103.865.055 1.18.079 1.015.094 2.016.25 3.061.186 1.353-.085 2.601.193 3.954.271 1.094.065 2.253.111 3.321-.138 1.02-.241 1.658-.817 2.333-1.518.351-.369.582-.83.901-1.227.29-.354.765-.591 1.057-.911.295-.321.472-.795.875-1.043.376-.23 1.006-.337 1.423-.479 1.702-.578 3.555.441 5.191.604 1.089.108 2.213.052 3.294-.045.553-.048 1.121-.021 1.667-.09.418-.055.95-.201 1.356-.047"/><path id="Shoe_Trim_Left_1_" fill="#BFB3D8" d="M96.824 185.01c-.083.01-.184.074-.268.101-.028.589-.561.986-.798 1.49-.271.576-.301.916-.846 1.348-1.026.812-1.902 1.66-3.117 2.318-2.044 1.106-4.788 1.996-7.096 2.128-.72.041-1.101-.007-1.829.062-.59.062-1.188.058-1.776.104-1.385.107-2.814.037-4.211.035-.953-.001-2.284-.097-3.186.216-.938.319-1.73.921-2.651 1.246-.944.334-1.903.704-2.879.917-1.04.228-.699.851-.423 1.646.18.521.434 1.672.972 1.825.338.096.799-.074 1.142-.092.492-.027.948-.028 1.434-.09 2.116-.273 4.125-1.027 6.156-1.783 2.455-.914 4.881-1.804 7.504-2.195 1.147-.17 2.23.085 3.383.047 1.433-.047 2.736-.307 4.111-.736 1.196-.374 2.152-.761 3.188-1.498.36-.259 1.011-.728 1.156-1.154.119-.358.373-.651.532-1.01.187-.43.006-.847.104-1.312.089-.431-.009-.709-.057-1.143-.107-.96-.297-1.639-.688-2.517"/><path id="Shoe_Right_1_" fill="#4E3A78" d="M23.698 190.538c-1.813 0-3.67.025-5.448-.298-1.529-.277-3.437-.474-4.743-1.38-.669-.464-1.313-1.166-1.837-1.761-.367-.415-.645-.816-.996-1.25-.356-.44-.828-.665-1.244-1.021-.426-.362-.65-.671-1.176-.915-.525-.245-1.096-.428-1.646-.641-.695-.27-2.027-.605-2.577-.623-.528-.016-1.021.897-1.307 1.305-.28.401-.339.804-.239 1.283.188.904.721 1.504 1.231 2.259 1.046 1.548 2.17 2.444 3.622 3.625 1.704 1.388 3.147 2.726 5.067 3.8.795.445 1.863 1.055 2.701 1.411.833.36 1.596.639 2.475.843 1.359.321 2.507.512 3.881.847.798.191 1.893.243 2.706.292 1.054.06 1.792.016 2.82-.172.902-.165 1.795-.438 2.687-.744.609-.21 1.196-.615 1.747-.963.342-.22 1.186-.809 1.096-1.323-.05-.308-.48-.425-.773-.548-1.057-.445-2.223-.577-3.245-1.099-.806-.408-1.619-.814-2.386-1.268-.604-.359-2.291-.958-2.274-1.841"/><path id="Shoe_Trim_Right_1_" fill="#BFB3D8" d="M32.798 195.378c.234.171-.042.892-.09 1.19-.073.464-.176.937-.367 1.371-.288.655-.44 1.541-.833 2.136-.593.904-2.155 1.242-3.188 1.383-1.822.246-3.766.185-5.599.09a36.673 36.673 0 0 1-5.771-.771c-1.749-.383-3.419-.663-4.942-1.595-.562-.343-1.077-.559-1.42-1.154-.312-.54-.8-1.136-1.16-1.667-.851-1.255-1.541-1.946-2.744-2.837-.732-.543-1.553-1.421-2.254-2.065-.377-.348-.688-.76-1.104-1.062-.355-.26-.696-.825-1.03-1.116-.944-.827-1.819-1.307-1.882-2.489-.028-.477.641-1.401.864-1.832.258-.491.521-1.054.913-.459.218.33.334.799.48 1.184.198.517.323.751.695 1.14.468.486.53.878 1.004 1.358.427.431.97 1.125 1.419 1.53.526.477 1.057.912 1.554 1.405.458.454 1.059.677 1.521 1.146 2.038 2.059 5.556 4.058 8.44 4.763.875.214 1.159.309 2.104.513 1.282.28 2.558.733 3.881.803 2.086.112 4.359.05 6.276-.896.44-.214.862-.538 1.312-.774.292-.154.54-.324.818-.512.385-.256.914-.383 1.188-.777"/><path id="Face_1_" fill="#010101" d="M59.24 20.176c.149.113.483.001.262-.166-1.003-.758-2.217-.815-2.989.336-1.004 1.494-1.237 3.436-.218 5.004 1.202 1.85 4.26 4.6 5.601 1.449.069-.156-.333-.275-.403-.106-1.188 2.789-4.231.001-5.004-1.729-.429-.953-.636-2.026-.284-3.048.435-1.281 1.394-2.977 3.035-1.74zm2.16 6.629c-.066.159.334.277.405.108.283-.674-.203-1.03-.853-1.062-1.253-.065-2.681.423-3.274-1.118-.059-.154-.464-.175-.384.034.309.8 1.07 1.366 1.935 1.43.566.042 2.612-.444 2.171.608zm-4.695-4.602c-.017.182.391.278.403.11.103-1.143 1.624-1.059 2.25-.382.603.648 1.031 1.431 1.655 2.062.116.117.51.074.334-.104-.925-.938-1.433-2.391-2.836-2.687-.787-.165-1.726.091-1.806 1.001zM75.992 9.936c-.101-.138-.484-.103-.335.101.883 1.201 1.79 2.681 1.994 4.188.216 1.562-.158 2.998-.503 4.507-.335 1.476-.451 3.262.576 4.499.108.128.497.089.335-.104-1.679-2.018-.147-5.087.075-7.318.213-2.135-.923-4.218-2.142-5.873zm2.039 13.155c-.073-.147-.482-.165-.386.032.362.746.875 1.265 1.492 1.81.44.389 1.334 1.001 1.062 1.72-.266.698-.803.972-1.534 1.089-1.053.169-.795 1.144-.688 1.965.022.169.435.231.409.037-.091-.691-.412-1.593.779-1.784.191-.028.532-.152.698-.271.438-.319.703-.638.772-1.188.057-.45-.309-.885-.612-1.168-.751-.705-1.53-1.292-1.992-2.242zm.116 4.439c.24-.078-.079-.309-.237-.257-.379.124-.768.389-1.169.42-.64.049-.839-.469-.493-.953.112-.16-.274-.311-.372-.172-.366.513-.246 1.14.398 1.338.685.21 1.244-.171 1.873-.376zm-3.377 3.489c-.118.155.271.308.373.17.697-.927 2.019-1.225 3.111-1.328.272-.026.04-.293-.146-.274-1.173.114-2.59.438-3.338 1.432zm3.602-1.311c-.084-.139-.497-.15-.383.034 1.632 2.659-3.185 2.619-4.507 1.594-.147-.113-.48-.004-.263.165 1.5 1.163 7.009 1.233 5.153-1.793zm-.689 2.152c-.084-.139-.498-.15-.383.033.435.72.426 1.514-.477 1.809-.666.218-1.48.231-2.118-.085-.197-.097-.423.093-.173.216.757.376 1.838.426 2.617.092.956-.407 1.044-1.221.534-2.065zm-1.373 2.261c.192-.087-.168-.288-.315-.22-1.387.627-.461 2.595-1.296 3.582-1.345 1.587-3.85.595-5.498.066-4.264-1.361-8.96-4.475-9.323-9.409-.013-.168-.424-.234-.409-.037.367 4.969 5.12 8.249 9.438 9.63 1.64.522 3.481 1.22 5.199.65 2.085-.692.582-3.528 2.204-4.262zm-17.385-6.314c-.012-.168-.424-.234-.409-.036.153 2.211-.468 4.799-1.127 6.911-.687 2.199-1.668 4.424-3.626 5.771-.183.126.179.317.315.225 1.87-1.288 2.938-3.402 3.601-5.521.71-2.274 1.413-4.957 1.246-7.35zm6.9 15.195c.005.167.416.236.407.036-.027-.805-.158-1.546.107-2.32.418-1.217 1.046-2.186 1.671-3.292.098-.175-.291-.317-.373-.173-.681 1.209-1.371 2.211-1.771 3.565-.21.715-.066 1.45-.041 2.184zm3.504-24.021c-.186.124.179.313.316.222 1.008-.681 2.186-1.69 3.448-1.768 1.115-.068 2.218.118 3.333.041.274-.019.038-.286-.146-.274-1.226.085-2.614-.312-3.811.048-1.173.355-2.133 1.048-3.14 1.731z"/><path id="Headband_2_" fill="#010101" d="M66.542 2.064c.121.082.475.047.248-.107C64.337.298 61.598.081 58.715.186c-.275.011.015.223.161.217 2.73-.1 5.33.082 7.666 1.661zM58.313 19.47c.055.127.454.175.405.053-1.073-2.571-2.344-6.499-1.219-9.23 1.364-3.31 4.485-5.716 7.356-7.673.103-.066-.263-.229-.377-.154-2.791 1.904-6.516 4.567-7.487 8.018-.806 2.855.219 6.34 1.322 8.986zm-1.984.958c.083.091.486.121.377-.005-2.693-2.924-5.439-7.026-4.438-11.217.787-3.299 3.462-7.424 6.691-8.819.161-.07-.211-.238-.324-.188-1.771.766-3.194 2.361-4.304 3.896-1.169 1.616-2.296 3.447-2.556 5.469-.532 4.186 1.827 7.904 4.554 10.864z"/><path id="Hair_2_" d="M75.876 9.985c.12.148.668.174.505-.027-1.238-1.54-3.535-1.749-5.374-1.731-2.332.02-5.012.23-7.044 1.487-2.032 1.261-4.017 3.624-2.942 6.162 1.331 3.14 3.702 6.153.758 9.229-.157.164.355.368.5.22 1.753-1.832 1.841-4.049.843-6.312-.538-1.222-1.602-2.521-1.776-3.854a4.377 4.377 0 0 1 1.073-3.52c1.695-1.926 3.999-2.691 6.478-2.948 2.105-.218 5.482-.567 6.979 1.294zM64.411 4.447c-.241.115.252.36.428.275 2.238-1.072 5.385-1.096 7.631-.035 1.227.578 2.783 1.468 3.116 2.918.176.773.072 1.563.276 2.335.053.202.6.277.542.06-.378-1.416-.103-2.527-1.081-3.756-.732-.914-1.976-1.6-3.062-1.981-2.468-.869-5.452-.965-7.85.184zm.044-2.04c-.239.114.251.359.426.278 2.377-1.127 6.083-.64 8.271.74 1.196.754 2.472 1.849 2.622 3.357.113 1.124-.039 2.247.11 3.369.026.204.573.295.542.06-.22-1.66.337-3.608-.782-5.048-.777-1.001-1.761-1.817-2.925-2.339-2.412-1.081-5.796-1.587-8.264-.417zM40.547 14.171c.163-.144-.343-.355-.497-.218-1.44 1.264-1.407-2.694-1.333-3.048a7.231 7.231 0 0 1 1.67-3.351c1.759-2 4.019-3.497 6.431-4.602 1.714-.782 3.507-1.474 5.343-1.913 1.203-.287 2.456-.566 3.691-.627.744-.036 1.838-.241 2.536.044.255.104.57-.108.222-.252-.794-.325-1.884-.177-2.714-.137-1.466.07-2.949.354-4.365.732-2.758.74-5.524 1.829-7.922 3.388-2.542 1.65-5.541 4.139-5.52 7.471.006 1.291.776 3.992 2.458 2.513zM58.418 27.14c-.075-.179-.616-.23-.507.023.357.842.753 1.559.587 2.517a16.282 16.282 0 0 1-.523 2.095c-.361 1.15-.795 2.365-1.565 3.312-.744.914-3.973 3.193-4.119.563-.086-1.521.662-2.62 1.631-3.717.153-.176-.364-.374-.499-.222-.97 1.1-2.47 3.176-1.429 4.713.661.978 1.906.944 2.904.48 1.763-.818 2.78-2.498 3.388-4.285.356-1.051.693-2.126.791-3.237.07-.838-.347-1.508-.659-2.242zm-4.449 4.787c.135-.197-.387-.385-.501-.218-.548.798-1.048 1.654-1.718 2.36-.47.496-1.46 1.543-2.277.938-.628-.463-.989-1.131-.884-1.923.254-1.912 1.654-3.786 3.162-4.94.222-.171-.272-.396-.425-.277-1.722 1.319-4.509 4.679-2.732 6.87 2.005 2.473 4.39-1.372 5.375-2.81zm-6.943-15.639c.233-.149-.261-.383-.424-.277-1.686 1.093-3.323 2.364-4.646 3.882-.416.475-.896 1.067-1.556 1.197-1.191.236-1.749-.296-1.762-1.234a8.299 8.299 0 0 1 .67-3.444c1.664-3.806 5.359-7.549 9.503-8.478.316-.071-.135-.358-.323-.315-2.667.596-4.828 2.2-6.618 4.193-1.963 2.185-3.621 4.453-3.778 7.501-.094 1.873 1.348 2.564 2.977 1.969.943-.345 1.508-1.4 2.202-2.055a25.936 25.936 0 0 1 3.755-2.939zm1.068 8.491c.15-.18-.369-.377-.5-.218-.555.669-1.246 1.146-1.737 1.88-.653.979-1.223 2.017-1.978 2.924-.598.721-2.092 2.046-2.865.625a2.603 2.603 0 0 1-.323-1.037c-.067-.832.04-1.666.238-2.475.867-3.542 2.67-7.945 5.884-9.917.235-.144-.259-.379-.425-.277-2.237 1.372-3.734 3.954-4.729 6.321-.784 1.87-1.815 4.211-1.512 6.289.207 1.411 1.736 2.816 3.165 1.73 1.113-.844 1.812-2.06 2.554-3.217.659-1.026 1.469-1.715 2.228-2.628zm2.68 4.256c.242-.099-.248-.351-.423-.277-1.679.693-2.271 2.433-3.062 3.923-.272.512-.566 1.075-.984 1.49-1.161 1.149-2.511.17-2.549-1.073a7.9 7.9 0 0 1 .659-3.429c.081-.187-.451-.35-.54-.145-.54 1.232-1.161 3.407-.343 4.671.409.635 1.214 1.302 2.047.989 2.759-1.043 2.467-5.024 5.195-6.149zM66.281 7.723c-.315.066.134.355.324.312 3.101-.661 6.545-.708 9.092 1.454.146.125.682.096.438-.111-2.763-2.343-6.467-2.38-9.854-1.655zm-16.77 12.05c-.14.194.381.384.499.22 1.068-1.496 2.5-2.139 4.297-2.378.362-.048.024-.363-.204-.333-1.904.254-3.454.896-4.592 2.491zm.203-12.667c-.163.142.344.354.498.22.754-.65 1.692-.675 2.613-.404.324.097.401-.205.081-.301-1.114-.33-2.279-.303-3.192.485zM48.461 14.8c-.082.187.451.351.54.145.56-1.271 1.664-2.231 3.122-2.003.373.058.206-.288-.065-.329-1.65-.255-2.949.716-3.597 2.187zm8.58 11.138c.025-.223-.517-.348-.541-.145-.134 1.141-.479 2.387-1.543 2.99-.237.133.257.373.425.277 1.123-.639 1.514-1.911 1.659-3.122zm2.5-5.937c-.189-.118-.652-.007-.341.187 1.761 1.1 2.881 2.707 2.737 4.839-.015.225.527.343.54.146.153-2.284-1.052-3.997-2.936-5.172z"/><path id="Pocket_2_" d="M43.968 115.853c-.142.047.224.208.328.171 3.164-1.086 6.456-2.188 8.872-4.622 2.115-2.132 4.392-5.012 4.303-8.174-.004-.136-.407-.197-.405-.109.09 3.118-2.141 6.067-4.276 8.136-2.467 2.391-5.641 3.504-8.822 4.598zm16.716-10.667c-.003-.137-.407-.198-.404-.108.103 3.324-2.494 6.857-4.766 9.066-2.899 2.818-6.748 4.18-10.72 4.54-.214.019.154.196.257.188 3.947-.356 8.001-1.695 10.843-4.582 2.248-2.286 4.895-5.734 4.79-9.104zm-3.165-2.076c-.084-.061-.49-.09-.315.035 1.018.729 2.312 1.103 3.187 2.023.075.079.474.12.371.016-.897-.945-2.202-1.325-3.243-2.074zm-13.141 12.906c-.058-.112-.445-.147-.401-.063.415.802.866 1.754.79 2.68-.011.13.397.208.405.108.077-.948-.369-1.907-.794-2.725z"/><path id="Pants_2_" d="M28.629 146.658c-.033.093.5.258.54.144 2.722-7.672 5.556-15.667 6.391-23.812.513-4.984-.04-10.046.783-15.005.385-2.305.89-4.691 1.766-6.867.7-1.738 1.913-3.319 2.471-5.092.028-.101-.506-.255-.541-.146-.61 1.946-1.966 3.608-2.644 5.558-.774 2.231-1.362 4.591-1.671 6.936-.628 4.808-.163 9.665-.704 14.474-.922 8.157-3.662 16.106-6.391 23.81zm37.645-48.327c-.083-.128-.557-.143-.529-.102 1.949 2.995 3.566 6.072 4.593 9.503 1.142 3.816 2.036 7.702 2.74 11.623 1.44 8.033 2.887 16.247 3.161 24.414.005.146.542.209.538.146-.277-8.318-1.727-16.733-3.251-24.909-.7-3.764-1.537-7.508-2.657-11.171-1.05-3.428-2.639-6.502-4.595-9.504zm.007.022c-.032-.157-.549-.182-.539-.146 1.625 8.4.008 16.84-3.011 24.739-1.5 3.928-3.267 7.748-5.104 11.531-.897 1.848-1.839 3.679-2.702 5.543-.842 1.815-1.549 3.7-2.621 5.398-.033.056.462.271.54.146 1.076-1.706 1.749-3.589 2.621-5.401.891-1.852 1.806-3.69 2.702-5.543 1.832-3.782 3.627-7.593 5.104-11.531 2.978-7.931 4.64-16.303 3.01-24.736zm-33.478 52.393c.259-.015-.25-.21-.353-.204-1.814.105-3.626-2.063-3.188-3.832.026-.108-.514-.249-.54-.145-.554 2.225 2.006 4.298 4.081 4.181zm-3.612 2.176c.095.124.556.134.536.103-.678-.904-1.508-1.771-1.977-2.812-.272-.602-.54-1.342-.312-2.004.088-.253.765-1.723 1.197-1.249.105.12.547.122.53.104-.835-.918-2.061-.075-2.27 1.003-.369 1.901 1.251 3.462 2.296 4.855zm27.951-3.167c.095.123.556.13.533.104-.876-1.151-.506-2.447-1.032-3.729-.644-1.568-1.337-3.222-1.571-4.916-.021-.153-.548-.19-.54-.145.24 1.738 1.001 3.323 1.581 4.96.474 1.34.14 2.559 1.029 3.726zM9.367 171.868c-.027.109.514.249.54.147.548-2.186 1.88-4.375 3.118-6.239 1.504-2.26 3.299-4.293 5.217-6.208 3.143-3.141 6.604-5.985 9.455-9.411.023-.034-.438-.267-.539-.146-3.154 3.786-7.059 6.845-10.438 10.413-1.643 1.735-3.24 3.559-4.49 5.604-1.104 1.813-2.342 3.766-2.863 5.84zm-6.593 9.495c-.031.092.499.258.541.143.356-.997.666-2.025 1.127-2.979.449-.93 1.085-1.688 1.613-2.567.429-.713.783-1.475.883-2.312.103-.868.354-1.399 1.354-1.562a9.117 9.117 0 0 1 1.779-.124c.254.01-.251-.198-.354-.203-1.119-.031-2.162.151-3.224.504-.004.006-.012.011-.016.017-.03 1.591-.451 2.919-1.416 4.195-1.112 1.475-1.671 3.166-2.287 4.888zm28.267 7.219c.027-.011-.363-.23-.51-.173-2.715.984-5.248 2.197-8.219 2.075-2.947-.122-7.178-.242-9.489-2.304-1.499-1.338-2.594-3.575-4.516-4.39-1.021-.433-4.88-1.148-4.923-2.42-.006-.146-.543-.209-.541-.145.047 1.349 3.696 2.057 4.623 2.401 2.782 1.036 3.888 4.305 6.61 5.568 2.444 1.134 5.581 1.365 8.228 1.472 3.19.134 5.805-1.021 8.737-2.084zm2.176-11.009c-.094-.124-.553-.132-.534-.101.613.803 1.199 1.627 1.785 2.448.567.804.796 1.016.276 1.956-1.234 2.243-2.872 4.263-4.022 6.542-.035.072.479.268.541.146 1.224-2.425 3.211-4.466 4.262-6.987.291-.7-.108-.97-.522-1.554a98.292 98.292 0 0 0-1.786-2.45zm3.498-6.197c-.001-.143-.541-.212-.539-.142.012 1.137.079 2.272.229 3.406.093.7.614 2.074.194 2.729-.633.983-1.983 1.111-2.451 2.249-.031.084.492.26.541.146.44-1.079 2.372-1.328 2.535-2.474.135-.953-.239-2.03-.34-2.983a31.24 31.24 0 0 1-.169-2.931zm16.526-26.457c.001-.142-.539-.215-.541-.141-.011 2.605.295 5.586-1.538 7.661-1.837 2.079-3.722 4.092-5.492 6.231-1.833 2.213-3.329 4.69-5.129 6.938-.905 1.129-1.878 2.208-2.855 3.27-.615.667-1.239 1.483-1.512 2.355-.031.098.505.254.539.145.405-1.282 1.451-2.237 2.347-3.184.827-.873 1.594-1.893 2.335-2.844 1.771-2.27 3.275-4.741 5.146-6.926 1.061-1.236 2.077-2.521 3.192-3.712.756-.803 1.588-1.582 2.237-2.475 1.52-2.077 1.262-4.835 1.271-7.318zm-12.265 13.648c-.056.037.391.258.511.175 2.77-1.827 5.615-3.584 8.808-4.566.141-.044-.331-.23-.447-.195-3.217.989-6.08 2.744-8.872 4.586zm2.681-5.796c.079.128.559.145.527.102-.697-1.119-1.225-2.541-.98-3.882.026-.148.587-2.574 1.339-1.336.221.364.412.75.51 1.168.376 1.604.152 4.734 1.81 5.711.089.053.631.131.407 0-2.375-1.398-.171-6.642-3.188-7.374-.829-.201-1.216.588-1.344 1.291-.281 1.543.096 3.002.919 4.32zm38.201 10.906c.086.129.558.141.533.103-2.262-3.318-4.48-6.955-4.982-11.023-.249-2.013.05-3.65.438-5.604.357-1.793.017-3.382-1.062-4.857-.063-.086-.565-.209-.531-.102a.408.408 0 0 0 .104.208c.089.126.558.139.531.102a.4.4 0 0 1-.104-.208c-.178-.036-.354-.067-.531-.102 1.297 1.771 1.374 3.597.824 5.66-.497 1.859-.402 3.779-.062 5.663.675 3.733 2.737 7.071 4.842 10.16zm-24.18-13.799c.004-.14-.538-.218-.538-.141-.037 1.511.146 3.084.421 4.57.312 1.678 1.085 3.212 1.49 4.873.664 2.727 1.334 5.47 1.858 8.229.423 2.226.197 4.499.657 6.703.026.123.553.205.531.102-.282-1.345-.169-2.662-.261-4.018-.085-1.252-.354-2.479-.604-3.707-.459-2.247-.99-4.49-1.533-6.719-.467-1.91-1.356-3.703-1.655-5.642-.215-1.396-.4-2.833-.366-4.25zm31.706 25.424c.054.133.56.174.53.106-.446-1.064-.718-2.06-1.575-2.88-.918-.878-1.959-1.58-2.957-2.36-1.124-.879-2.538-1.917-2.554-3.482-.011-1.079.146-2.102-.439-3.059-.079-.129-.558-.146-.531-.101.72 1.171.283 2.5.539 3.78.18.89 1.17 1.729 1.843 2.278.977.799 2.054 1.483 2.999 2.32 1.168 1.038 1.563 2.01 2.145 3.398zm.534-.083c.015-.13-.53-.23-.54-.146-.17 1.651-.548 3.282-.5 4.943.043 1.469.132 3.15-.859 4.354-.024.034.44.268.54.146.991-1.202.904-2.885.86-4.355-.05-1.661.33-3.293.499-4.942zm-1.648 9.298c.314.072.355-.071.039-.142-1.463-.34-3.188-.6-4.542.245-1.574.985-2.224 2.697-3.536 3.928-1.23 1.158-2.713 1.065-4.315 1.013-1.351-.044-2.698-.026-4.047-.078-1.879-.075-4.446.075-6.126-.891-.928-.531-1.774-1.183-2.667-1.767-.088-.057-.627-.143-.409-.001 1.524.999 2.99 2.28 4.865 2.531 2.892.386 5.826.318 8.737.407.948.025 2.336.212 3.238-.188.982-.436 1.64-1.244 2.256-2.096 1.744-2.413 3.326-3.699 6.507-2.961zm-26.423-10.544c.031-.096-.502-.258-.541-.15-.676 1.988.641 3.795 1.104 5.679.6 2.438.577 4.723-.069 7.143-.028.106.512.251.54.146.546-2.045.735-4.126.285-6.211-.451-2.09-2.047-4.469-1.319-6.607zm22.971-2.578c.049-.026-.378-.25-.509-.174-2.302 1.243-3.853 3.727-5.839 5.398-.522.442-1.193 1.149-1.84 1.387-.901.336-.941-1.054-.822-1.511.266-1.013.812-1.874 1.397-2.729.032-.045-.456-.27-.54-.146-.625.916-1.867 2.521-1.389 3.718.24.602.776 1.103 1.479.985.778-.13 1.657-1.023 2.223-1.527a44.387 44.387 0 0 0 2.099-2.017c1.171-1.187 2.256-2.58 3.741-3.384z"/><path id="Iris_2_" d="M74.571 20.108c.071-.118-.187-.218-.247-.117-.574.938-.157 2.673 1.146 2.575.184-.012.033-.2-.095-.19-1.082.081-1.227-1.58-.804-2.268zm1.14-.431c-.076-.089-.336-.054-.225.074.689.805.842 2.033-.17 2.645-.128.078.111.212.209.15 1.096-.661.937-1.997.186-2.869z"/><path id="Eye_1_" d="M71.627 21.352c-.045-.136-.449-.188-.402-.052.068.201.249.292.419.396.063.039.404.109.313-.062-.101-.187-.296-.289-.496-.337-.041-.01-.228-.041-.229.044-.001.04-.009.079-.01.119.13.019.261.034.393.052-.033-.038-.075-.067-.107-.104a.347.347 0 0 0-.267-.109c-.055.001-.175.04-.109.115.032.038.074.067.106.104a.335.335 0 0 0 .216.105c.036.004.172.008.174-.056.001-.04.008-.079.009-.118l-.229.044c.088.021.131.067.173.146l.312-.062c-.101-.059-.225-.107-.266-.225zm-.407.141c.095.086.499.093.324-.062-.331-.296.812-.641.919-.68.649-.237 1.342-.352 2.003-.55.79-.237 1.47-.464 2.074-1.048.104-.104-.275-.255-.376-.158-1.075 1.04-2.667 1.104-4.024 1.562-.366.125-1.498.422-.92.936zm.334-.155c-.179-.088-.411.037-.16.159 1.294.646 3.527 1.753 4.929.854.159-.103-.216-.263-.323-.193-1.265.813-3.258-.228-4.446-.82zm-.036-1.111c-.081-.044-.194-.081-.286-.038-.085.039-.019.125.037.152.436.229.874.411 1.373.406.062 0 .165-.037.109-.115-.058-.077-.177-.109-.27-.108-.351.003-.656-.136-.963-.297zm.641-.177c-.181-.086-.413.04-.16.161.413.2 1.007.429 1.473.332.23-.047-.123-.242-.249-.217-.326.068-.777-.136-1.064-.276zm-.188.887c.229-.03-.124-.233-.25-.215-.452.057-.897.14-1.349.196-.051.007-.108.06-.063.111.548.639 1.465 1.062 2.315.954.228-.029-.124-.234-.249-.216-.618.079-1.294-.285-1.69-.744l-.062.109c.452-.053.898-.136 1.348-.195zm-1.581-.038c-.228.026.124.231.252.224.646-.079 1.243-.345 1.881-.456-.083-.071-.166-.145-.249-.217a6.163 6.163 0 0 0-1.687.634c-.171.093.215.24.323.193.22-.097.438-.185.67-.25.236-.071-.138-.235-.249-.217-.236.033-.472.086-.707.12.096.067.189.138.286.204.16-.053.31-.094.475-.119-.095-.068-.189-.139-.286-.205a2.556 2.556 0 0 1-.521.161c-.214.047.062.209.151.219.148.013.293.021.441.024l-.158-.226a2.555 2.555 0 0 1-.303-.007c-.233-.016-.192.164.002.209.144.034.229.049.377.06.239.019.185-.155-.001-.209a3.199 3.199 0 0 0-.362-.079c-.057-.01-.235.014-.16.112a.874.874 0 0 0 .379.274l.159-.162-.459-.155c-.178-.063-.421.038-.159.161.092.043.183.087.272.133.08.043.468.068.287-.09a2.317 2.317 0 0 1-.218-.202l-.287.089c.079.053.162.104.247.146.081.045.46.079.287-.09a.87.87 0 0 0-.175-.135c-.125-.078-.477-.044-.25.116.112.078.223.143.343.205.121.063.483.045.25-.116a1.481 1.481 0 0 0-.349-.18c-.078-.03-.404-.042-.241.112.157.147.345.231.532.336l.204-.142c-.164-.055-.322-.105-.473-.193a13.83 13.83 0 0 0-.25.114c.269.154.555.276.826.43.124.07.479.043.25-.116-.229-.156-.476-.263-.724-.381-.129-.062-.41-.007-.205.139.288.205.615.333.943.46.121.047.432-.018.204-.139-.238-.127-.49-.227-.729-.354-.123-.065-.479-.049-.25.115.291.208.615.342.945.479.053-.056.106-.107.159-.162-.355-.136-.713-.23-1.003-.487l-.324.062c.59.431 1.265.758 1.98.919.116.027.355-.053.15-.156-.379-.192-.779-.343-1.142-.565-.085-.053-.454-.079-.287.089.217.22.501.283.777.405l.157-.161c-.182-.075-.364-.135-.552-.198-.178-.06-.421.038-.159.162l.374.186c.125.059.42-.005.204-.141a3.693 3.693 0 0 0-.383-.191c-.126-.057-.416-.002-.204.139.111.075.165.103.29.152.122.048.432-.022.204-.141a.991.991 0 0 1-.151-.088l-.204.141c.083.024.163.056.24.095l.106-.18c-.104-.029-.207-.06-.312-.086l.002.208c.057.015.11.027.165.044l.106-.182a3.714 3.714 0 0 0-.291-.068c-.187-.039-.226.125-.051.188.076.027.151.06.223.097l.159-.16-.264-.127-.104.18c.104.036.208.071.312.104.02-.064.035-.132.055-.196a2.087 2.087 0 0 1-.846-.467c-.096-.083-.501-.088-.322.063.322.281.697.495 1.113.601.246.064.289-.119.055-.196-.104-.036-.208-.07-.312-.104-.187-.061-.314.077-.104.181l.262.127c.179.088.412-.038.159-.161a1.45 1.45 0 0 0-.225-.099c-.017.063-.032.128-.051.191l.183.048c.182.054.332-.099.104-.18a2.157 2.157 0 0 0-.38-.104c-.24-.041-.179.159.002.209.103.028.206.06.309.086.186.051.326-.083.106-.18a1.303 1.303 0 0 0-.24-.095c-.119-.04-.427-.004-.204.14a.91.91 0 0 0 .151.087l.205-.139-.199-.106-.205.142c.103.042.198.089.292.146l.204-.14-.374-.186a6.073 6.073 0 0 1-.159.162c.187.063.371.123.554.197.179.073.419-.046.157-.162-.212-.094-.44-.135-.61-.307-.098.028-.191.06-.287.09.366.221.762.372 1.142.563l.152-.155a4.729 4.729 0 0 1-1.709-.782c-.091-.066-.508-.099-.324.062.341.304.75.429 1.168.589.179.068.423-.056.159-.162-.297-.122-.589-.244-.854-.433l-.25.116c.239.127.491.224.729.354.066-.049.137-.095.205-.142-.297-.114-.591-.227-.854-.413-.066.046-.136.092-.204.141.218.104.435.196.633.335l.25-.116c-.271-.155-.557-.276-.826-.428-.128-.073-.488-.023-.25.114.18.104.366.175.562.241.117.04.436-.012.204-.139-.16-.088-.322-.156-.458-.283l-.241.112a.69.69 0 0 1 .257.135l.25-.116a2.85 2.85 0 0 1-.343-.205l-.25.116c.035.026.067.053.102.08l.287-.09a1.76 1.76 0 0 1-.247-.146c-.085-.056-.454-.073-.287.089.068.072.141.141.218.202.096-.027.192-.06.287-.089-.118-.064-.24-.12-.363-.179l-.159.162c.152.051.308.102.458.154.179.062.428-.049.159-.16l-.162-.118c-.053.037-.104.075-.159.11.086.021.17.039.254.06l-.002-.208-.27-.038.002.209c.135.008.269.018.404.013.28-.011-.018-.222-.158-.226-.113 0-.226-.007-.339-.021.05.073.101.147.153.22.209-.047.401-.098.597-.187.181-.082-.205-.219-.286-.205-.19.034-.367.086-.549.146-.179.058.201.217.286.205.235-.035.47-.087.707-.121-.083-.072-.166-.146-.249-.217-.255.073-.5.168-.744.271l.323.193a5.935 5.935 0 0 1 1.61-.61c.232-.049-.128-.238-.249-.217-.634.114-1.231.379-1.876.459zm.745.332c-.093-.093-.491-.104-.323.063.645.652 1.478 1.025 2.396 1.019.26-.002.02-.203-.108-.225a5.896 5.896 0 0 0-.478-.045c-.231-.011-.062.177.053.212.219.069.421.084.652.065.213-.02.088-.183-.055-.212a4.801 4.801 0 0 1-.436-.111c-.02.065-.035.132-.053.197.137.034.271.063.408.092l-.001-.209a5.225 5.225 0 0 0-.572-.057c-.248-.013-.035.211.106.222.151.012.301.028.451.04.284.022.133-.193-.057-.22a5.251 5.251 0 0 0-.599-.056c-.276-.008.017.219.158.228.187.008.359.035.543.025.276-.01-.008-.231-.158-.226-.182.007-.36-.016-.543-.027.055.077.105.152.158.228.168.005.329.023.495.048a34.32 34.32 0 0 0-.057-.22 39.39 39.39 0 0 0-.451-.039c.036.076.072.148.106.223.16.008.316.029.474.051.234.035.186-.17-.002-.208-.14-.028-.274-.059-.41-.092-.245-.06-.291.123-.053.198.144.045.289.08.436.111l-.053-.214a.88.88 0 0 1-.44-.035c.02.068.035.142.055.212.126.002.252.016.376.039l-.107-.225c-.754.007-1.389-.325-1.911-.852zm-.442-.259c-.125-.089-.474-.042-.249.113.429.302.735.688 1.229.891.619.254 1.32.291 1.961.468.242.066.295-.131.053-.197-.557-.154-1.145-.202-1.693-.381-.54-.175-.855-.582-1.301-.894z"/><path id="Left_Arm_1_" d="M77.692 83.322c-.146-.08-.636-.067-.32.108 4.341 2.407 8.075 5.508 12.733 7.346.222.087.554-.023.198-.163-4.61-1.818-8.315-4.909-12.611-7.291zm-8.963 5.151c-.375-.078-.137.192.09.238 3.087.654 6.172 2.068 9.088 3.252 2.779 1.128 5.545 2.302 8.334 3.411.219.088.551-.021.195-.163-3.043-1.212-6.052-2.508-9.095-3.718-2.782-1.103-5.678-2.397-8.612-3.02zM99.83 91.44c.361.009-.059-.249-.227-.253-3.185-.072-6.345-.532-9.526-.699-.36-.017.06.245.224.254 3.181.167 6.341.627 9.529.698zm-.75 12.113c.221.089.551-.02.198-.163-1.447-.587-2.882-1.263-4.389-1.684-.621-.174-1.706-.246-2.204-.67a31.447 31.447 0 0 1-1.829-1.694c-1.578-1.574-3.135-3.697-5.26-4.553-.219-.088-.552.021-.198.163 1.478.594 2.405 1.87 3.51 2.937.985.95 1.92 1.97 2.965 2.858 1.054.898 1.578.733 2.962 1.168 1.45.457 2.838 1.068 4.245 1.638zm1.035-12.229c-.09-.116-.619-.184-.495-.02 1.766 2.307 3.144 4.876 4.735 7.302.079.122.612.199.495.02-1.59-2.426-2.968-4.995-4.735-7.302zm-.885 3.4c-.09-.113-.622-.178-.495-.021 1.413 1.741 2.733 3.56 4.075 5.355.088.116.619.186.495.02-1.342-1.794-2.663-3.614-4.075-5.354zm2.39 6.702c.104.092.643.146.422-.046-1.34-1.152-2.727-2.602-3.658-4.109-.089-.146-.596-.183-.536-.084.965 1.561 2.382 3.043 3.772 4.239zm1.573-1.164c.034-.156-.508-.291-.538-.147-.104.47-.536.873-.983 1.021-.12.038.003.14.059.169.106.056.263.102.379.062.486-.161.971-.587 1.083-1.105zm1.68-1.574c.061-.108-.452-.3-.54-.146-.401.711-1.049 1.298-1.678 1.807-.111.089.378.298.506.193.648-.52 1.301-1.124 1.712-1.854zm-2.791 2.813c.109-.116-.396-.309-.507-.191-.391.405-.993 1.289-1.701.788-.4-.285-.797-.57-1.198-.853-.751-.529-1.501-1.054-2.291-1.526-.143-.086-.632-.077-.321.107a30.353 30.353 0 0 1 2.827 1.902c.36.271.741.597 1.181.736.908.292 1.408-.335 2.01-.963zm-2.961 1.874c-.103.139.418.314.506.194.272-.372.594-.726.937-1.035.111-.098-.386-.301-.506-.194a6.815 6.815 0 0 0-.937 1.035zm1.099-11.915c-.101-.104-.63-.158-.494-.018 1.113 1.141 2.396 1.855 3.875 2.422.341.131 2.503.846 1.649 1.511-.579.45-1.458.502-2.15.354-.318-.068-.381.14-.056.209.575.124 3.56.179 2.812-1.092-.418-.713-1.612-.967-2.307-1.243-1.279-.513-2.361-1.15-3.329-2.143z"/><path id="Right_Arm_1_" fill="#010101" d="M26.838 88.134c-.031.055.347.207.403.108 2.595-4.523 4.902-9.392 6.213-14.455.024-.087-.382-.195-.403-.107-1.31 5.061-3.621 9.931-6.213 14.454zm3.326 4.834c-.029.069.362.205.402.108 1.227-2.827 3.306-5.147 5.029-7.673a257.866 257.866 0 0 0 4.285-6.491c.032-.045-.342-.207-.405-.106a241.424 241.424 0 0 1-4.285 6.489c-1.726 2.521-3.801 4.849-5.026 7.673zm-5.023 8.901c-.029.064.36.205.404.108 1.453-3.093 3.383-5.908 5.021-8.9.034-.055-.349-.206-.401-.108-1.639 2.991-3.571 5.806-5.024 8.9zm-7.014-2.122c-.06.062.312.211.383.137 2.106-2.195 2.738-5.192 3.961-7.87.578-1.267 1.251-2.832 2.661-3.368 1.202-.456 2.515-.155 3.674-.669.039-.02-.274-.187-.382-.139-1.16.516-2.506.1-3.674.67-1.066.522-1.737 1.402-2.246 2.459-1.403 2.921-2.065 6.367-4.377 8.78zm6.238-4.383c.044-.023-.279-.19-.385-.137-.92.484-1.571 1.856-2.168 2.657-.469.632-2.492 3.666-3.3 2.093-.049-.102-.424-.127-.397-.073 1.604 3.138 5.134-3.95 6.25-4.54zm-3.01 5.491c-.058.063.315.21.385.136.487-.528.445-1.368.651-2.019.335-1.056.981-1.973 1.339-3.018.03-.079-.373-.201-.402-.107-.358 1.036-1.068 1.953-1.339 3.017-.159.622-.176 1.499-.634 1.991zm-4.318 5.211c-.008.108.399.178.405.109.167-2.569 2.292-3.939 4.355-5.058.045-.026-.279-.193-.382-.136-2.077 1.126-4.21 2.501-4.378 5.085zm8.662-4.06c.114-.04-.244-.185-.34-.153-3.093 1.053-5.77 2.996-8.4 4.888l.395.122c.046-.23.097-.458.146-.688.021-.091-.385-.19-.404-.106a33.53 33.53 0 0 1-.146.686c-.02.098.333.167.395.122 2.615-1.881 5.279-3.825 8.354-4.871z"/><path id="Shirt_2_" d="M66.258 54.507c-.117.089.258.251.375.159.798-.607 1.818-1.032 2.239-1.995.17-.392-.021-1.177-.019-1.631.003-.677-.006-1.358-.131-2.028-.444-2.385-1.212-5.083-3.197-6.659-1.536-1.222-3.463-1.985-5.362-2.446-1.952-.473-3.699.152-5.181 1.441-.114.099.265.259.375.159 2.075-1.806 4.181-1.721 6.619-.79 1.853.706 3.688 1.636 4.719 3.425 1.041 1.808 1.766 4.235 1.757 6.333-.003.781.218 2.236-.484 2.808-.546.445-1.151.798-1.71 1.224zm-23.7 29.923c-.112.111.271.265.376.159 1.093-1.068 1.292-2.604 1.247-4.075-.057-1.891-.27-3.773-.365-5.661-.118-2.421-.129-4.848-.114-7.272.01-2.333-.002-4.748.441-7.049.805-4.156 2.697-8.03 4.367-11.89 1.468-3.394 3.303-6.293 6.3-8.532.117-.087-.256-.249-.375-.161-2.886 2.156-4.76 4.956-6.176 8.229-1.641 3.794-3.636 7.663-4.425 11.745-.83 4.291-.658 8.936-.494 13.286.077 2.045.241 4.081.378 6.122.119 1.761.198 3.77-1.16 5.099zm-1.607 6.733c.02.143.428.215.404.046-.162-1.147-1.693-2.621-1.308-3.741.528-1.53 2.273-1.83 3.189-3.027.104-.135-.287-.276-.375-.161-.946 1.239-2.999 1.595-3.259 3.348-.172 1.182 1.185 2.373 1.349 3.535zm.045 5.345c.183.095.413-.048.163-.178-2.718-1.382.074-3.306.195-5.244.012-.161-.396-.247-.403-.106-.079 1.266-1.152 2.144-1.386 3.351-.213 1.113.515 1.711 1.431 2.177zm26.438-51.712c-.076-.114-.483-.148-.378.015 2.054 3.144 3.679 6.67 4.784 10.257.93 3.02 2.07 7.143.253 10.054-.092.147.301.28.375.16 1.833-2.934.75-7.127-.222-10.166-1.153-3.606-2.739-7.145-4.812-10.32zm.852 8.651c-.055-.138-.459-.188-.404-.047.939 2.439 1.42 4.831 1.264 7.437-.104 1.765 1.753 2.038 2.557 3.522.504.933.599 1.833.76 2.853.133.847.585 1.386 1.09 2.074.859 1.175 1.982 2.535 2.088 4.05.125 1.767-1.076 4.938-3.457 4.229-.244-.072-.298.142-.057.213 2.556.761 4.41-2.541 3.862-4.751-.391-1.567-1.383-2.812-2.31-4.096-.694-.964-.747-1.632-.955-2.749-.212-1.146-.713-2.197-1.555-3.019-.804-.784-1.696-1.035-1.619-2.22.17-2.617-.322-5.045-1.264-7.496zm7.398 22.176c.032-.154-.375-.255-.401-.108-.188.9.385 1.798.812 2.555.714 1.266 1.709 2.531 1.405 4.079-.48 2.441-2.505 4.092-4.652 5.129-2.239 1.08-4.577 1.97-7.01.985-2.047-.831-4.692-2.603-4.242-5.158.029-.155-.379-.254-.405-.109-.404 2.303 1.693 4.119 3.567 5.033 2.254 1.101 4.065 1.104 6.4.295 2.308-.8 5.072-2.193 6.212-4.496.603-1.219.841-2.599.187-3.858-.625-1.2-2.167-2.925-1.873-4.347zm-6.554 8.868c.229-.073-.112-.27-.245-.228-2.121.674-4.997.466-6.896-.765-.547-.354-1.409-1.025-1.442-1.755-.027-.602.26-1.012.349-1.577.03-.192-.071-.454-.116-.64-.047-.188.316-.696.329-.88.059-.799-.824-2.009-1.089-2.748-.4-1.132-1.084-2.999.137-3.861.165-.116-.209-.28-.321-.201-1.363.964-.611 3.031-.119 4.284.283.72.639 1.415.9 2.145.148.422-.075.702-.267 1.097-.108.225.206.717.09 1.013-1.65 4.234 6.148 4.926 8.69 4.116zm-9.325-12.544c.079.111.487.143.38-.015-.485-.693-.664-1.667-1.004-2.446a33.935 33.935 0 0 0-.854-1.848 58.222 58.222 0 0 0-2.558-4.528c-1.772-2.82-5.562-4.658-4.727-8.518.033-.15-.373-.253-.405-.106-.846 3.91 2.746 5.446 4.518 8.259.991 1.579 1.973 3.231 2.793 4.908.479.979.979 1.977 1.307 3.02.143.456.276.878.55 1.274zm5.9 16.355c.035-.151-.373-.255-.407-.105-.281 1.249-.78 2.568.013 3.739.75 1.105 2.096 2.111 2.125 3.564.057 2.602-3.231 3.675-5.263 4.243-6.931 1.939-15.324.62-21.275-3.54-.131-.092-.478-.028-.253.129 5.875 4.107 14.375 5.642 21.271 3.776 1.886-.509 4.884-1.271 5.706-3.303.481-1.195.088-2.409-.719-3.366-.603-.716-1.521-1.549-1.606-2.538-.077-.892.215-1.743.408-2.599zM43.996 78.068c.115-.104-.267-.261-.375-.159-2.824 2.537-5.855-.02-7.689-2.396-1.141-1.478-2.133-2.41-4.081-2.443-.274-.005-.001.235.155.238 2.944.051 4.16 3.566 6.464 5.03 1.886 1.2 3.811 1.271 5.526-.27zm-6.45-6.025c.169-.105-.204-.273-.326-.203-2.013 1.268-5.175-2.327-3.606-4.19.928-1.103 2.217-1.841 3.396-2.646 2.73-1.86 5.461-3.771 7.438-6.467.101-.138-.29-.277-.375-.161-1.604 2.188-3.707 3.881-5.919 5.421-1.5 1.044-3.496 2.01-4.69 3.429-1.159 1.372-.771 2.888.61 3.976.989.779 2.277 1.592 3.472.841zm-5.788 1.192c.051.14.459.189.407.049-.434-1.174.039-2.408 1.275-2.792.233-.073-.109-.269-.244-.228-1.319.409-1.912 1.681-1.438 2.971zm24.626-32.549c.274 0 .002-.239-.156-.238-.555.001-1.057.005-1.381-.517-.072-.117-.48-.152-.378.014.43.693 1.171.742 1.915.741z"/><path id="Lense_1_" d="M70.326 20.073c-.029-.212-.577-.3-.544-.053.146 1.101.455 2.131.996 3.105.099.182.646.211.509-.036-.524-.947-.817-1.946-.961-3.016zm7.067 2.491c.232-.168-.256-.405-.423-.285-1.6 1.16-3.963 1.159-5.825.752-.329-.073-.42.245-.085.318 2.013.441 4.592.476 6.333-.785zm-7.43-2.752c-.319.067.121.37.321.327 2.208-.469 4.458-1.406 6.714-1.488.366-.014.033-.358-.199-.348-2.315.084-4.577 1.03-6.836 1.509zm7.207-1.307c-.035-.212-.584-.297-.543-.054.215 1.254.372 2.52.319 3.794-.012.235.529.354.54.146.054-1.309-.094-2.599-.316-3.886z"/><path id="Glasses_1_" d="M69.968 20.637c.731-.003.098-.737-.386-.735-2.155.004-4.596.35-6.71-.089-1.463-.305-3.023-.869-4.524-.529-.645.146.205.786.634.688 1.098-.248 2.306.231 3.368.453.782.163 1.52.221 2.32.23 1.766.023 3.532-.015 5.298-.018z"/><path id="Left_Shoe_1_" d="M67.484 195.186c.228.097.553-.035.203-.188-2.064-.893-1.55-4.372-.522-5.919.106-.161-.417-.331-.504-.2-1.217 1.829-1.52 5.292.823 6.307zm29.513-10.224c-.05-.162-.586-.237-.539-.077.822 2.611 1.507 5.563-1.375 7.112-.202.108.299.314.435.241 2.958-1.588 2.334-4.553 1.479-7.276zm-.981 7.034c.124-.095-.367-.307-.501-.199-2.094 1.603-4.787 2.497-7.431 2.324-2.105-.137-4.232-.071-6.256.575-2.399.767-4.704 1.802-7.109 2.551-1.299.404-2.628.765-3.984.921-.812.097-1.8-.061-2.562.188.162.053.324.104.486.159-.614-1.121-.873-2.054-.802-3.351.012-.187-.53-.292-.54-.146-.071 1.289.182 2.277.805 3.415.081.145.333.21.484.157.537-.173 1.42-.041 1.992-.105a19.387 19.387 0 0 0 1.856-.286 27.86 27.86 0 0 0 3.131-.854c2.375-.808 4.695-1.934 7.131-2.539 1.508-.376 3.058-.56 4.614-.475 1.055.06 2.123.146 3.174-.024 2.001-.322 3.898-1.076 5.512-2.311zm.664-7.209c-.102-.116-.639-.168-.498-.007.487.553-1.128 2.632-1.457 2.993a9.92 9.92 0 0 1-2.162 1.814c-1.964 1.203-4.187 1.947-6.438 2.392-2.588.512-5.145.508-7.771.52-1.875.008-4.043-.302-5.748.658-.198.113.303.316.438.241 1.305-.737 2.895-.669 4.348-.642 1.353.028 2.709.047 4.062.021 2.304-.043 4.598-.339 6.82-.966 2.1-.592 4.282-1.415 5.953-2.863.708-.612 1.376-1.304 1.833-2.131.264-.473 1.06-1.531.62-2.03zm.085.09c.362-.003-.04-.272-.219-.271-3.23.031-6.848.771-9.906-.562-.227-.096-.552.035-.204.188 3.231 1.41 6.923.678 10.329.645zm-23.418 8.442c.203-.082-.291-.298-.435-.24-1.763.711-3.367 1.862-5.342 1.801-.363-.011.041.267.219.272 2.06.062 3.715-1.088 5.558-1.833z"/><path id="Right_Shoe_1_" d="M4.537 182.8c.295-.067-.189-.299-.338-.265-1.057.242-1.751 1.377-2.182 2.293-.062.135.463.313.541.146.375-.802 1.041-1.956 1.979-2.174zm13.989 14.707c.321.078.386-.151.062-.23-4.002-.984-7.782-3.198-10.774-6.021-1.949-1.839-4.999-3.976-5.331-6.854-.017-.16-.557-.267-.535-.078.354 3.081 3.898 5.719 6.108 7.591 3.045 2.579 6.573 4.637 10.47 5.592zm10.485 3.964c.296-.058-.188-.295-.339-.269-3.062.58-6.417.368-9.491-.112-2.855-.446-6.289-1.029-8.291-3.289a103.452 103.452 0 0 0-5.92-6.149c-1.383-1.324-2.77-2.651-4.074-4.052-.915-.983.893-2.9 1.646-3.369.119-.075-.357-.294-.506-.2-.554.344-1.025.782-1.336 1.365-.188.35-.814 1.363-.684 1.771.201.627 1.377 1.471 1.848 1.938.636.633 1.273 1.258 1.92 1.878 1.599 1.534 3.278 3.018 4.765 4.664.987 1.091 1.84 2.418 3.049 3.283 2.106 1.508 5.147 2.071 7.668 2.422 3.187.438 6.567.721 9.745.119zm4.194-6.147c.018-.182-.525-.294-.539-.144-.246 2.695-.738 5.728-3.993 6.022-.292.029.192.281.338.268 3.34-.302 3.936-3.308 4.194-6.146zm-.221-.278c-.056-.162-.591-.233-.534-.079.273.814-2.448 2.218-2.92 2.405a11.605 11.605 0 0 1-3.967.812c-2.366.061-4.692-.312-6.975-.906-.321-.083-.382.146-.063.229 2.728.71 5.661 1.228 8.479.856 1.394-.181 2.709-.547 3.938-1.242.522-.296 2.287-1.347 2.042-2.075zm-.148.101c.227.093.555-.041.203-.187-3.011-1.225-6.636-1.935-8.953-4.364-.105-.114-.644-.158-.497-.012 2.418 2.538 6.111 3.285 9.247 4.563z"/></g></svg>