<svg width="120" height="120" viewBox="0 0 120 120" xmlns="http://www.w3.org/2000/svg" xmlns:xlink="http://www.w3.org/1999/xlink"><defs><path id="a" d="M.917.95h68.79V118H.918z"/><path id="c" d="M0 0h68.79v117.05H0z"/></defs><g fill="none" fill-rule="evenodd"><g transform="translate(27 2)"><mask id="b" fill="#fff"><use xlink:href="#a"/></mask><path d="M46.756 51.95c-3.493-.572-7.647-.616-10.344-3.234-2.05-1.987-2.989-5.216-2.422-8.01.28-1.38 1.086-3.16 2.286-3.988 1.961-1.356 5.42.646 7.295 1.448 3.88 1.654 7.667 3.494 11.411 5.436 3.058 1.595 6.091 2.12 7.408-1.766 1.576-4.644 2.501-9.61 3.548-14.396.754-3.434 2.52-8.588-2.09-9.982-1.38-.42-2.916-.41-4.404-.415-4.409-.774-8.963-1.317-13.417-1.454-.284-3.768-.753-7.477-1.296-11.235-.529-3.694-3.514-3.503-6.6-3.327-2.218.127-4.439.25-6.656.377-1.517.083-3.699-.196-5.02.763-1.092.788-1.32 1.982-1.37 3.25-.089 2.206.064 4.428.04 6.64-.02 2.088-.436 2.285-2.497 2.211-1.796-.059-3.537-.014-5.299.376-3.249.715-6.215 2.37-8.744 4.497C3.355 23.546.423 30.48.985 37.304c.583 7.028 4.228 13.663 9.748 18.032 6.244 4.942 14.586 6.22 20.732 11.284 2.643 2.173 4.89 5.157 4.801 8.725-.073 3.062-1.747 6.003-5.02 6.321-4.184.406-9-2.123-12.885-3.425-2.015-.675-4.046-1.326-6.072-1.99-1.718-.565-3.509-1.357-5.28-.589-1.722.75-2.368 2.501-2.77 4.21-.572 2.44-.993 4.94-1.472 7.402-.852 4.413-.896 8.431 2.506 11.778 5.362 5.28 13.382 7.16 20.727 6.091.06 1.092.127 2.183.195 3.274.113 1.791.02 3.846.646 5.554 1.277 3.48 4.673 3.494 7.84 3.621 2.186.087 4.38.201 6.565.294 1.87.083 3.92.352 5.697-.412 2.818-1.213 4.017-4.3 4.051-7.203.02-1.633-.822-3.66-.494-5.225.288-1.385 2.642-1.674 3.87-2.227 2.97-1.336 5.661-3.366 7.888-5.739 4.497-4.79 7.223-11.26 7.437-17.826.426-13.236-10.04-25.2-22.939-27.304" fill="#E6E6E6" mask="url(#b)"/></g><path d="M31.206 78.94c.632 0 1.8.769 2.358.998l3.402 1.409c6.267 2.594 14.483 7.32 21.134 3.294 4.829-2.927 6.199-9.65 4.349-14.71-2.222-6.071-8.074-9.736-13.716-12.208-6.537-2.852-13.29-5.235-17.443-11.425-3.548-5.295-5.025-12.428-2.046-18.32 2.7-5.33 8.089-9.21 14.17-9.165 3.304.024 7.32.073 8.642-3.71.578-1.652.274-3.39.009-5.073-.151-.944-.307-1.894-.464-2.843-.088-.543-.617-2.217-.573-3.02a4.49 4.49 0 0 0 .289-.073c.704-.19 1.512-.156 2.242-.224 1.032-.098 2.069-.197 3.106-.29 1.39-.131 5.74-1.178 6.704-.234 1.12 1.1-.01 5.275-.098 6.679-.157 2.412-.181 4.83-.328 7.242-.092 1.55 1.307 2.52 2.667 2.666 5.48.593 11.279.52 16.832.074.578.137 1.102.323 1.518.587.059.039.107.074.15.098-.121.235-.244.803-.244.812-.307.852-.406 1.835-.592 2.72-.411 1.968-.851 3.93-1.233 5.903-.352 1.83-.636 3.668-.944 5.503-.157.92-.323 1.835-.47 2.755-.244 1.557.089 2.154-1.424 1.474-3.185-1.43-6.287-3.02-9.507-4.385-5.29-2.236-12.586-6.175-16.72-.01-2.995 4.463-2.452 10.648.7 14.87 4.208 5.643 10.868 4.82 16.95 6.533 5.48 1.547 10.168 5.402 13.055 10.27 6.307 10.654 1.756 24.173-8.618 30.328-2.285 1.356-5.661 1.963-6.41 4.909-.797 3.14 2.462 8.014-.557 10.525-1.478 1.228-4.864.572-6.645.479-2.14-.112-4.61-.068-6.684-.646-2.006-.563-1.454-3.082-1.478-4.805-.04-2.29-.068-4.58-.181-6.865-.078-1.643-1.59-2.975-3.268-2.49-6.303 1.82-14.67.886-19.622-3.852-3.113-2.974-1.042-8.254-.348-11.894.177-.92.309-1.87.534-2.78.064-.27.166-1.135.362-1.257 0 .048.939.097.44.15" fill="#7CC366"/><g transform="translate(23)"><mask id="d" fill="#fff"><use xlink:href="#c"/></mask><path d="M45.84 51c12.897 2.104 23.363 14.067 22.937 27.304-.214 6.566-2.94 13.035-7.437 17.825-2.226 2.374-4.917 4.404-7.888 5.74-1.227.553-3.58.842-3.87 2.227-.328 1.565.514 3.591.494 5.225-.034 2.902-1.233 5.99-4.05 7.203-1.778.763-3.828.495-5.697.412-2.187-.094-4.38-.207-6.566-.294-3.166-.127-6.563-.142-7.839-3.62-.627-1.709-.533-3.764-.647-5.555a399.119 399.119 0 0 1-.195-3.274c-7.345 1.067-15.364-.812-20.727-6.09-3.4-3.349-3.357-7.366-2.505-11.78.48-2.46.9-4.962 1.472-7.403.402-1.707 1.047-3.459 2.77-4.208 1.771-.769 3.561.024 5.28.587 2.026.666 4.056 1.316 6.071 1.992 3.886 1.302 8.701 3.831 12.884 3.425 3.274-.319 4.948-3.259 5.021-6.322.088-3.567-2.158-6.552-4.8-8.724-6.146-5.065-14.489-6.342-20.732-11.284C4.296 50.017.651 43.381.068 36.354c-.563-6.826 2.37-13.759 7.6-18.163 2.53-2.129 5.494-3.782 8.743-4.497 1.762-.39 3.504-.435 5.3-.377 2.06.074 2.476-.122 2.495-2.212.025-2.21-.127-4.432-.039-6.639.05-1.268.28-2.46 1.37-3.249C26.86.258 29.04.537 30.558.453c2.217-.127 4.437-.249 6.654-.376C40.3-.1 43.284-.29 43.813 3.404c.544 3.758 1.013 7.467 1.297 11.235 4.453.136 9.008.68 13.417 1.453 1.488.005 3.024-.005 4.404.416 4.61 1.394 2.843 6.547 2.09 9.982-1.048 4.785-1.973 9.752-3.548 14.396-1.317 3.885-4.35 3.361-7.408 1.766-3.744-1.943-7.532-3.782-11.412-5.436-1.874-.803-5.334-2.804-7.295-1.448-1.199.827-2.006 2.607-2.286 3.987-.567 2.794.372 6.023 2.422 8.011 2.697 2.617 6.851 2.662 10.345 3.234M7.765 78.788c-.196.122-.298.988-.362 1.258-.225.91-.357 1.86-.534 2.78-.694 3.64-2.764 8.92.348 11.894 4.952 4.737 13.32 5.672 19.622 3.851 1.678-.484 3.19.847 3.27 2.491.111 2.285.14 4.575.18 6.865.024 1.722-.529 4.242 1.477 4.804 2.075.58 4.546.535 6.684.647 1.782.093 5.167.748 6.645-.48 3.02-2.51-.239-7.383.557-10.525.75-2.945 4.125-3.553 6.411-4.908C62.437 91.31 66.987 77.79 60.68 67.138c-2.887-4.869-7.574-8.725-13.055-10.272-6.082-1.712-12.742-.889-16.95-6.532-3.15-4.223-3.694-10.407-.7-14.87 4.135-6.165 11.43-2.227 16.72.01 3.22 1.365 6.322 2.956 9.507 4.384 1.513.68 1.18.083 1.424-1.473.148-.92.314-1.834.47-2.755.308-1.835.593-3.674.944-5.504.382-1.973.822-3.935 1.234-5.9.185-.887.284-1.87.591-2.722 0-.01.123-.577.245-.813-.043-.024-.092-.058-.15-.097-.417-.265-.94-.45-1.518-.587-5.554.445-11.352.518-16.832-.074-1.36-.147-2.76-1.116-2.667-2.666.146-2.413.17-4.83.328-7.243.088-1.404 1.217-5.578.097-6.678-.964-.945-5.314.102-6.704.234-1.037.093-2.074.191-3.106.29-.73.067-1.537.033-2.24.224a4.534 4.534 0 0 1-.29.073c-.044.803.484 2.477.572 3.02.157.95.313 1.898.465 2.842.264 1.684.568 3.421-.01 5.075-1.32 3.782-5.338 3.733-8.64 3.708-6.083-.043-11.47 3.836-14.172 9.166-2.979 5.891-1.502 13.025 2.046 18.32 4.154 6.19 10.906 8.572 17.444 11.425 5.641 2.471 11.494 6.136 13.715 12.21 1.85 5.058.48 11.781-4.349 14.708-6.65 4.026-14.866-.7-21.134-3.294-1.136-.47-2.266-.94-3.4-1.41-.559-.229-1.728-.998-2.36-.998.5-.053-.44-.102-.44-.15" fill="#207B5D" mask="url(#d)"/></g><path d="M62.627 22.104c-2.799-1.771-7.508-1.75-10.745-1.715-3.548.038-7.087.74-10.252 2.385-2.934 1.522-5.365 4.102-6.91 7.01-1.234 2.32-2.77 6.667-.384 8.744.482.419 1.163.563 1.737.223 1.99-1.177 2.537-4.13 3.654-6.04 1.302-2.23 3.315-3.998 5.644-5.103 2.52-1.195 5.363-1.503 8.12-1.553 2.76-.05 5.978.777 8.628-.073 1.758-.564 2.074-2.886.508-3.878m8.362 1.402c-2.915 0-2.92 4.529 0 4.529 2.915 0 2.92-4.529 0-4.529m10.362 52.092c-.613-6.18-4.065-11.694-9.602-14.57-1.18-.614-2.6.972-1.494 1.936 3.63 3.158 6.18 7.738 6.083 12.634-.1 5.115-2.74 8.556-5.81 12.343-1.749 2.158.386 5.267 3.022 3.918 5.515-2.825 8.39-10.335 7.801-16.261" fill="#FFF" opacity=".5"/></g></svg>