<svg width="480" height="360" viewBox="0 0 480 360" xmlns="http://www.w3.org/2000/svg"><g fill="none"><path fill="#DBFFFB" d="M0 299.43h60.512l82.968 31.358 66.784-31.358h18.845l86.057 36.038L416.46 299.43h28.268l34.875 16.734V9.503L0 91.889z"/><path fill="#EBFFFD" d="M0 70.352l479.602-82.386v-10.83L0 59.522z"/><path fill="#DBFFFB" d="M0 59.522l479.602-82.386v-10.708L0 48.784z"/><path fill="#EBFFFD" d="M0 48.784l479.602-82.356V-34h-60.604L0 37.954z"/><path fill="#DBFFFB" d="M0 81.06L479.602-1.328v-10.707L0 70.352z"/><path fill="#EBFFFD" d="M0 91.89L479.602 9.502v-10.83L0 81.059z"/><path fill="#DBFFFB" d="M0 9.136v11.992L320.918-34h-69.69z"/><path fill="#EBFFFD" d="M219.411-34L0 3.69v5.446L251.228-34z"/><path fill="#DBFFFB" d="M0-34V3.69L219.411-34z"/><path fill="#EBFFFD" d="M0 26.451L352.03-34h-31.112L0 21.128z"/><path fill="#DBFFFB" d="M0 37.954L418.998-34h-66.967L0 26.451z"/><path d="M479.633 298.329l-77.89-134.914-4.252-7.342-8.963 15.02h-.398l54.119 128.337h36.71c.276 0 .52-.153.643-.367a.706.706 0 0 0 .03-.734z" fill="#B8B9BA"/><path d="M377.086 171.094l-10.616 20.803-15.296-20.803H337.01l-73.454 127.235a.78.78 0 0 0 0 .734c.123.245.368.367.643.367h178.08l-54.118-128.336h-11.075z" fill="#D1D3D4"/><path d="M388.558 171.094l8.964-15.021-25.27-43.779c-.275-.458-1.01-.458-1.285 0l-4.374 7.587 21.598 51.213h.367z" fill="#F0F0F0"/><path fill="#FFF" d="M366.47 191.897l10.616-20.803h11.075l-21.599-51.213-25.116 43.534-4.436 7.679h14.164zM197.843 123.95l12.298 18.264 10.494-26.646h1.193l-18.815-42.493-32.734 56.688-6.67 11.595 15.94 14.715z"/><path d="M237.094 115.568l-28.666-49.652c-.275-.459-1.01-.459-1.285 0l-4.13 7.159 18.815 42.523h15.266v-.03z" fill="#F0F0F0"/><path d="M221.828 115.568h-1.193l-10.494 26.616-12.328-18.264-18.264 32.153-15.97-14.715-90.615 156.97a.78.78 0 0 0 0 .735c.122.245.367.367.642.367h189.736c.276 0 .52-.153.643-.367l22.057-38.21-64.214-145.285z" fill="#C7C8C9"/><path d="M286.073 260.853l17.254-29.859a.78.78 0 0 0 0-.734l-58.034-100.497-8.2-14.195h-15.265l64.245 145.285z" fill="#B3B4B5"/><path d="M105.239 205.51h11.84l-7.802-13.521-23.311-40.383c-.215-.367-.796-.367-1.01 0l-1.652 2.876 21.231 49.866.704 1.163z" fill="#F0F0F0"/><path fill="#FFF" d="M80.275 184.157l10.922 18.141 5.843-10.493 7.495 12.512-21.262-49.866-21.66 37.507-6.148 10.677H70.7z"/><path d="M170.8 298.543l-53.722-93.032H105.24l-.704-1.163 40.505 95.113h25.27c.214 0 .397-.123.52-.306a.625.625 0 0 0-.03-.612z" fill="#B8B9BA"/><path d="M97.04 191.805l-5.843 10.524-10.952-18.172-9.545 18.478H55.465L.092 298.543a.648.648 0 0 0 0 .581.592.592 0 0 0 .52.306H145.04l-40.505-95.113-7.495-12.512z" fill="#D1D3D4"/><path fill="#9A9B9C" d="M117.078 364.654L137.3 263.698l20.253 100.956zm311.587-6.639L408.413 257.06l-20.252 100.956zm42.096-14.562l-20.252-100.956-20.253 100.956zm-113.499 3.365L337.01 245.862l-20.253 100.956z"/><path fill="#9A9B9C" d="M382.837 346.818l-20.252-100.956-20.252 100.956z"/><path fill="#9A9B9C" d="M408.413 328.83l-20.252-100.956-20.253 100.956zm46.287 4.191l-20.222-100.956-20.252 100.956z"/><path fill="#9A9B9C" d="M477.89 300.348l-14.532-72.474-20.253 100.956h34.784zM39.22 352.937L59.442 251.98l20.252 100.956z"/><path fill="#9A9B9C" d="M6.7 334.49l20.222-100.957L47.174 334.49zm198.669-25.178l20.252-100.956 20.222 100.956z"/><path fill="#9A9B9C" d="M232.597 347.583l20.252-100.956L273.1 347.583zm41.943-8.688l20.252-100.956 20.221 100.956z"/><path fill="#9A9B9C" d="M252.849 326.627L273.1 225.671l20.253 100.956z"/><path fill="#9A9B9C" d="M220.329 341.587l20.252-100.956 20.253 100.956z"/><path fill="#9A9B9C" d="M186.34 333.633l20.253-100.926 20.222 100.926zm-45.95-23.495l20.252-100.956 20.253 100.956z"/><path fill="#9A9B9C" d="M168.627 302.367l15.205-75.962 15.235 75.962zm-68.681 33.285L120.2 234.696l20.222 100.956z"/><path fill="#9A9B9C" d="M76.574 367.04l20.252-100.956 20.252 100.956z"/><path fill="#9A9B9C" d="M59.442 327.361l20.252-100.956 20.252 100.956z"/><path fill="#9A9B9C" d="M22.73 324.088l20.253-100.956 20.252 100.956z"/><path fill="#9A9B9C" d="M.275 319.866h34.05L14.103 218.91.275 287.805z"/><path fill="#4B7C9A" d="M210.264 299.43L8.382 394.207h141.553l165.231-58.739-86.057-36.038z"/><path fill="#3F6B85" d="M60.512 299.43l69.874-15.113h18.815l61.063 15.113-66.784 31.358-83.09-31.266m168.719-.092l86.057-30.256 16.062 15.143 46.225-23.464 39.006 38.577 63.266-28.543-.123 45.277-164.833 19.12-86.823-35.273"/><path fill="#273852" d="M0 284.317v109.89h8.382l135.098-63.42-82.968-31.357z"/><path fill="#4B7C9A" d="M239.725 206.673l-10.616 11.442V115.75l21.293-25.33h-5.721l-15.572 14.745V58.88l18.447-19.06h-8.963l-9.484 8.842V-34h-18.845v78.685l-15.021-19.12h-7.19l22.21 32.703v102.73l-12.634-12.482h-6.15l18.785 22.761V301.94h18.845v-73.606l16.459-21.66z"/><path fill="#3F6B85" d="M165.109 199.728l-6.577-.122-9.331 8.138v-48.03l13.43-14.288h-5.996l-7.434 6.333V44.103l14.5-15.633-7.464-.06-7.036 6.393V-34h-18.815V98.008L115.977 85.77l-6.027.06 20.436 21.997v136.321l-8.566-9.208h-5.14l13.706 18.57v48.428h18.815V216.86z"/><path fill="#273852" d="M60.512 177.335V19.262L99.672-34h-10.28L60.512-2.704V-34H32.214V99.874L20.008 83.14h-7.373l19.58 30.562v188.237h28.297v-111.48L78.837 165.8H71.22zm396.085 38.822l-11.87 11.594v-64.367l16.244-17.04h-7.434l-8.81 7.801V63.927l20.527-22.394h-9.82l-10.707 9.576V-34h-28.268v140.39l-14.654-19.212-7.985.183 22.639 33.132v104.2l-11.992-11.779h-8.169l20.16 22.394v66.63h28.269V240.54l19.67-24.382z"/><path fill="#273852" d="M479.602 316.164l-34.875-16.734h-28.268l-266.524 94.777h329.667z"/><path d="M373.017 61.296h-2.876v-.459c0-6.669-5.414-12.084-12.084-12.084-5.292 0-10.003 3.519-11.533 8.505a13.973 13.973 0 0 0-8.444-2.845c-7.71 0-13.98 6.272-13.98 13.98 0 7.71 6.27 13.982 13.98 13.982h34.937c5.813 0 10.555-4.742 10.555-10.555 0-5.812-4.712-10.524-10.555-10.524zm-93.093 56.78h2.172a10.837 10.837 0 0 1 6.516-3.977 20.114 20.114 0 0 1 20.13-18.722c10.8 0 19.702 8.596 20.16 19.304 4.1 1.682 6.823 5.66 6.823 10.126 0 6.027-4.895 10.952-10.953 10.952l-44.848.03c-4.895 0-8.842-3.976-8.842-8.84 0-4.895 3.947-8.873 8.842-8.873z" fill="#FFF"/></g></svg>