<svg width="120" height="120" viewBox="0 0 120 120" xmlns="http://www.w3.org/2000/svg" xmlns:xlink="http://www.w3.org/1999/xlink"><defs><path id="a" d="M.064.002h9.061v7.341H.064z"/><path id="c" d="M.27.042h40.242V8.54H.27z"/><path id="e" d="M.178.061H25.4v24.092H.178z"/></defs><g fill="none" fill-rule="evenodd"><path d="M93.621 72.53H89.13a.591.591 0 0 1-.592-.592V68.52a.591.591 0 1 1 1.184 0v2.826h3.306V68.52a.592.592 0 0 1 1.184 0v3.417a.591.591 0 0 1-.59.591M32.271 67.82H27.78a.593.593 0 0 1-.593-.592V63.81a.593.593 0 0 1 1.185 0v2.827h3.306V63.81a.592.592 0 0 1 1.186 0v3.418a.593.593 0 0 1-.593.591m72.831 8.453h-4.907a.647.647 0 0 1-.647-.646v-3.735a.647.647 0 0 1 1.295 0v3.089h3.612v-3.09a.647.647 0 0 1 1.295 0v3.735a.647.647 0 0 1-.648.646m-83.6-4.663h-4.907a.646.646 0 0 1-.648-.646v-3.734a.646.646 0 1 1 1.295 0v3.089h3.612v-3.089c0-.357.29-.646.648-.646.358 0 .648.289.648.646v3.734c0 .357-.29.646-.648.646" fill="#571407"/><g transform="translate(110.852 74.68)"><mask id="b" fill="#fff"><use xlink:href="#a"/></mask><path d="M8.18 7.343H1.01A.944.944 0 0 1 .064 6.4V.946a.945.945 0 0 1 1.892 0v4.511h5.277V.946a.945.945 0 0 1 1.892 0V6.4a.944.944 0 0 1-.946.943" fill="#571407" mask="url(#b)"/></g><path d="M8.115 79.297H.945A.945.945 0 0 1 0 78.354v-5.456a.946.946 0 1 1 1.892 0v4.512H7.17v-4.512a.945.945 0 0 1 1.891 0v5.456c0 .52-.423.943-.945.943m72.597-11.561h-4.491a.555.555 0 0 1-.556-.554v-3.418a.555.555 0 0 1 1.112 0v2.864h3.379v-2.864a.555.555 0 0 1 1.11 0v3.418a.555.555 0 0 1-.554.554m-36.06-7.112h-4.491a.554.554 0 0 1-.556-.554v-3.416a.555.555 0 1 1 1.111 0v2.863h3.38v-2.863a.555.555 0 0 1 1.11 0v3.416a.554.554 0 0 1-.554.554m44.477 8.798a.373.373 0 0 1-.362-.287l-7.499-32.24a.37.37 0 0 1 .706-.214L93.967 68.02a.368.368 0 0 1-.215.476.369.369 0 0 1-.478-.213L83.214 41.99l6.276 26.98a.368.368 0 0 1-.36.452" fill="#571407"/><path d="M76.22 64.675a.369.369 0 0 1-.364-.31L72.25 42.227a.369.369 0 0 1 .27-.417.373.373 0 0 1 .441.226l8.096 21.24a.37.37 0 0 1-.692.263l-6.8-17.839 3.022 18.548a.37.37 0 0 1-.367.427m23.975 7.867a.37.37 0 0 1-.358-.275l-9.594-36.224a.369.369 0 0 1 .242-.444.372.372 0 0 1 .46.212l14.501 35.943a.37.37 0 0 1-.686.276L92.48 41.594l8.073 30.485a.37.37 0 0 1-.358.463m11.637 3.933a.37.37 0 0 1-.35-.25L97.436 35.082a.37.37 0 0 1 .68-.29l20.819 39.962a.37.37 0 1 1-.657.34L99.715 39.465l12.468 36.521a.37.37 0 0 1-.35.488M32.271 63.996a.371.371 0 0 1-.358-.469l6.433-23.168L28.12 63.68a.372.372 0 0 1-.68-.296l12.313-28.077a.372.372 0 0 1 .464-.2.37.37 0 0 1 .232.447l-7.82 28.17a.37.37 0 0 1-.357.27m12.381-6.972a.37.37 0 0 1-.36-.457l3.02-12.42-6.825 12.682a.369.369 0 0 1-.501.15.367.367 0 0 1-.152-.499l8.193-15.225a.372.372 0 0 1 .687.263L45.012 56.74a.371.371 0 0 1-.36.282M21.626 67.597a.368.368 0 0 1-.357-.467l7.558-27.454-11.892 27.39a.37.37 0 0 1-.68-.293l13.982-32.202a.37.37 0 0 1 .697.245l-8.951 32.51a.369.369 0 0 1-.357.271M7.983 73.138a.367.367 0 0 1-.356-.47l9.221-32.629-15.57 32.214a.369.369 0 0 1-.493.171.368.368 0 0 1-.173-.492l17.41-36.02a.37.37 0 0 1 .689.26L8.34 72.87a.37.37 0 0 1-.357.268" fill="#571407"/><g transform="translate(39.82 13.494)"><mask id="d" fill="#fff"><use xlink:href="#c"/></mask><path d="M.27 8.505S10.696.042 20.759.042C30.82.042 40.512 8.54 40.512 8.54L.27 8.505z" fill="#EF4F22" mask="url(#d)"/></g><path d="M13.724 37.427l-.617-10.59s16.173-5.79 49.015-5.79c32.841 0 43.953 4.928 43.953 4.928l-.668 10.569-91.683.883z" fill="#FFC510"/><path d="M51.167 47.184c-2.846-1.345-14.979-2.949-14.979-2.949s-1.5-3.202-7.285-4.187l-15.186-2.586s6.545-5.295 46.176-5.541c39.632-.247 45.514 4.623 45.514 4.623s-14.11 2.709-21.023 7.017c-7.333.312-15.354 3.753-15.354 3.753s-15.766.916-17.863-.13" fill="#571407"/><path d="M23.725 29.966a3.513 3.513 0 0 1-3.517 3.51 3.513 3.513 0 0 1-3.517-3.51 3.513 3.513 0 0 1 3.517-3.507 3.513 3.513 0 0 1 3.517 3.507" fill="#FFF"/><path d="M20.208 27.013a2.961 2.961 0 0 0-2.962 2.953 2.961 2.961 0 0 0 5.923 0 2.96 2.96 0 0 0-2.96-2.953m0 7.017a4.072 4.072 0 0 1-4.073-4.064 4.07 4.07 0 0 1 4.072-4.06 4.072 4.072 0 0 1 4.073 4.06 4.073 4.073 0 0 1-4.073 4.064" fill="#ED2626"/><path d="M37.06 27.874a3.513 3.513 0 0 1-3.518 3.508 3.513 3.513 0 0 1-3.516-3.508 3.512 3.512 0 0 1 3.516-3.508 3.512 3.512 0 0 1 3.517 3.508" fill="#FFF"/><path d="M33.542 24.92a2.96 2.96 0 0 0-2.96 2.954 2.96 2.96 0 0 0 5.92 0 2.96 2.96 0 0 0-2.96-2.954m0 7.015a4.07 4.07 0 0 1-4.073-4.061 4.073 4.073 0 0 1 8.145 0 4.07 4.07 0 0 1-4.072 4.06" fill="#ED2626"/><path d="M50.122 26.782a3.513 3.513 0 0 1-3.518 3.508 3.513 3.513 0 0 1-3.517-3.508 3.513 3.513 0 0 1 3.517-3.508 3.513 3.513 0 0 1 3.518 3.508" fill="#FFF"/><path d="M46.604 23.828a2.962 2.962 0 0 0-2.961 2.955 2.961 2.961 0 0 0 5.922 0 2.962 2.962 0 0 0-2.961-2.955m0 7.016a4.072 4.072 0 0 1-4.073-4.061 4.074 4.074 0 0 1 8.146 0 4.072 4.072 0 0 1-4.073 4.061" fill="#ED2626"/><path d="M63.107 26.459a3.511 3.511 0 0 1-3.516 3.507 3.511 3.511 0 0 1-3.517-3.507 3.511 3.511 0 0 1 3.517-3.507 3.512 3.512 0 0 1 3.516 3.507" fill="#FFF"/><path d="M59.59 23.505a2.962 2.962 0 0 0-2.961 2.954 2.963 2.963 0 0 0 5.923 0 2.961 2.961 0 0 0-2.961-2.954m0 7.016a4.07 4.07 0 0 1-4.072-4.062 4.07 4.07 0 0 1 4.072-4.061 4.07 4.07 0 0 1 4.072 4.061 4.07 4.07 0 0 1-4.072 4.062" fill="#ED2626"/><path d="M76.68 26.459a3.51 3.51 0 0 1-3.516 3.507 3.51 3.51 0 0 1-3.516-3.507 3.51 3.51 0 0 1 3.516-3.507 3.511 3.511 0 0 1 3.516 3.507" fill="#FFF"/><path d="M73.164 23.505a2.96 2.96 0 0 0-2.96 2.954 2.962 2.962 0 0 0 2.96 2.955 2.962 2.962 0 0 0 2.961-2.955 2.96 2.96 0 0 0-2.961-2.954m0 7.016a4.071 4.071 0 0 1-4.073-4.062 4.071 4.071 0 0 1 4.073-4.061 4.07 4.07 0 0 1 4.072 4.061 4.071 4.071 0 0 1-4.072 4.062" fill="#ED2626"/><path d="M90.602 27.567a3.512 3.512 0 0 1-3.517 3.508 3.512 3.512 0 0 1-3.518-3.508 3.512 3.512 0 0 1 3.518-3.507 3.512 3.512 0 0 1 3.517 3.507" fill="#FFF"/><path d="M87.085 24.613a2.961 2.961 0 0 0-2.961 2.954 2.961 2.961 0 0 0 5.922 0 2.962 2.962 0 0 0-2.961-2.954m0 7.017a4.073 4.073 0 0 1-4.073-4.063 4.071 4.071 0 0 1 4.073-4.061 4.07 4.07 0 0 1 4.071 4.061 4.072 4.072 0 0 1-4.071 4.063" fill="#ED2626"/><path d="M103.18 29.238a3.513 3.513 0 0 1-3.517 3.508 3.513 3.513 0 0 1-3.517-3.508 3.512 3.512 0 0 1 3.517-3.508 3.512 3.512 0 0 1 3.516 3.508" fill="#FFF"/><path d="M99.662 26.284a2.96 2.96 0 0 0-2.961 2.954 2.961 2.961 0 0 0 5.923 0 2.96 2.96 0 0 0-2.962-2.954m0 7.015a4.071 4.071 0 0 1-4.072-4.06 4.072 4.072 0 0 1 4.072-4.063 4.072 4.072 0 0 1 4.073 4.062 4.07 4.07 0 0 1-4.073 4.061" fill="#ED2626"/><path fill="#EF4F22" d="M61.247 56.514H50.269v23.274H72.17V56.514z"/><path fill="#571407" d="M72.167 79.75l-10.73-.076v-.003l-.19.002h-.055l-.188-.002v.003l-10.732.076-1.664 4.038v.078h25.223v-.078z"/><g transform="translate(48.43 83.805)"><mask id="f" fill="#fff"><use xlink:href="#e"/></mask><path fill="#FFC510" mask="url(#f)" d="M12.817.061H.178v24.092H25.4V.06z"/></g><path d="M79.71 44.087s-4.33-5.183-17.17-5.183H59.9c-12.84 0-17.565 6.192-17.565 6.192l7.811 13.758 11.074-.248 11.074.248 7.415-14.767z" fill="#EBB712"/><path d="M52.16 58.361a2.774 2.774 0 0 1-2.778 2.771 2.775 2.775 0 0 1-2.778-2.77c0-1.53 1.244-2.77 2.778-2.77a2.773 2.773 0 0 1 2.777 2.77" fill="#FFF"/><path d="M57.716 58.361a2.775 2.775 0 0 1-2.777 2.771 2.775 2.775 0 0 1-2.78-2.77c0-1.53 1.245-2.77 2.78-2.77a2.774 2.774 0 0 1 2.777 2.77m5.788-.001a2.775 2.775 0 0 1-2.78 2.771 2.774 2.774 0 0 1-2.777-2.77c0-1.53 1.243-2.77 2.778-2.77a2.774 2.774 0 0 1 2.779 2.77m5.556-.001a2.775 2.775 0 0 1-2.78 2.771 2.774 2.774 0 0 1-2.776-2.77c0-1.53 1.243-2.77 2.776-2.77a2.774 2.774 0 0 1 2.78 2.77" fill="#FFF"/><path d="M74.615 58.085a2.773 2.773 0 0 1-2.778 2.77 2.773 2.773 0 0 1-2.778-2.77 2.774 2.774 0 0 1 2.778-2.771 2.774 2.774 0 0 1 2.778 2.771" fill="#FFF"/><path d="M49.382 56.144a2.223 2.223 0 0 0-2.223 2.217 2.222 2.222 0 0 0 4.446 0 2.224 2.224 0 0 0-2.223-2.217m0 5.542a3.332 3.332 0 0 1-3.333-3.325 3.333 3.333 0 0 1 6.666 0 3.334 3.334 0 0 1-3.333 3.325" fill="#ED2626"/><path d="M54.939 56.144a2.223 2.223 0 0 0-2.224 2.217 2.223 2.223 0 0 0 4.445 0 2.222 2.222 0 0 0-2.221-2.217m0 5.542a3.333 3.333 0 0 1-3.334-3.325 3.332 3.332 0 0 1 3.334-3.324 3.333 3.333 0 0 1 3.332 3.324 3.333 3.333 0 0 1-3.332 3.325" fill="#ED2626"/><path d="M60.725 56.144a2.223 2.223 0 0 0-2.222 2.217 2.223 2.223 0 0 0 4.445 0 2.223 2.223 0 0 0-2.223-2.217m0 5.542a3.333 3.333 0 0 1-3.333-3.325 3.334 3.334 0 1 1 6.668 0 3.334 3.334 0 0 1-3.335 3.325" fill="#ED2626"/><path d="M66.28 56.144c-1.225 0-2.22.996-2.22 2.217a2.22 2.22 0 0 0 2.22 2.218 2.223 2.223 0 0 0 2.224-2.218 2.224 2.224 0 0 0-2.224-2.217m0 5.542a3.333 3.333 0 0 1-3.332-3.325 3.333 3.333 0 1 1 6.666 0 3.333 3.333 0 0 1-3.334 3.325" fill="#ED2626"/><path d="M71.836 55.868a2.223 2.223 0 0 0-2.222 2.217 2.22 2.22 0 0 0 2.222 2.215 2.222 2.222 0 0 0 2.224-2.215 2.224 2.224 0 0 0-2.224-2.217m0 5.54a3.332 3.332 0 0 1-3.332-3.323 3.332 3.332 0 0 1 3.332-3.326 3.333 3.333 0 0 1 3.334 3.326 3.332 3.332 0 0 1-3.334 3.324" fill="#ED2626"/></g></svg>