<svg width="120" height="120" viewBox="0 0 120 120" xmlns="http://www.w3.org/2000/svg" xmlns:xlink="http://www.w3.org/1999/xlink"><defs><path id="a" d="M.144.032H33.71v34.439H.144z"/><path id="c" d="M0 .094h94.413V64.55H0z"/></defs><g fill="none" fill-rule="evenodd"><g transform="matrix(-1 0 0 1 33.808 51.757)"><mask id="b" fill="#fff"><use xlink:href="#a"/></mask><path d="M.627 14.981c1.176-2.847 5.49-5.135 7.892-6.821 3.12-2.19 6.406-4.123 9.925-5.61 3.328-1.405 11.157-4.769 13.58-.212 0 0 1.477 5.955-10 6.108 0 0 11.316-2.034 11.683 3.942.226 3.677-10.734 3.53-12.654 3.764 3.454-.068 7.988-.716 10.82 1.716.595.512 1.016 1.295.882 2.066-.083.476-.363.894-.68 1.259-1.263 1.451-3.164 2.232-5.073 2.51-1.908.28-3.85.104-5.77-.071 3.532.323 12.481 2.067 9.85 7.592-.714 1.5-2.247 2.494-3.859 2.922-1.612.427-3.312.358-4.974.214-5.098-.441-10.608-1.656-14.946-4.436C2.503 26.85-.311 22.953.204 17.09c.063-.717.149-1.442.423-2.108" fill="#EE9600" mask="url(#b)"/></g><path d="M39.736 23.391c-5.499 3.572-7.945 10.223-5.65 16.413 2.385 6.431 9.654 10.502 15.635 13.051.939.4 1.903.773 2.917.89 1.15.135 2.316-.065 3.438-.354 4.88-1.254 9.29-4.25 12.24-8.315 2.953-4.066 4.425-9.173 4.088-14.178-.204-3.047-2.282-6.234-4.678-8.046-7.74-5.852-20.204-4.52-27.99.539" fill="#FDDE00"/><path d="M46.318 41.96c1.279 1.407 2.961 2.393 4.704 3.16 2.045.9 4.29 1.534 6.504 1.225 11.7-1.633 11.303-22.298-.977-21.881-8.084.274-16.777 10.298-10.231 17.496" fill="#EE9600"/><path d="M70.635 94.834c-3.13 4.698-8.743 9.559-14.604 5.504-4.907-3.396-5.06-11.2-3.385-16.298.28-.852.627-1.697 1.178-2.406.451-.581 1.028-1.056 1.633-1.477 2.858-1.99 6.527-2.846 9.948-2.163 3.118.623 7.267 3.146 8.492 6.283 1.39 3.558-1.377 7.726-3.262 10.557" fill="#FDDE00"/><path d="M66.791 92.207c-4.634 4.445-15.293 1.929-11.005-7.308.574-1.236 1.348-2.459 2.547-3.115 1.224-.67 2.708-.65 4.09-.452 3.11.447 6.535 2.807 6.385 6.266-.085 1.969-.864 3.504-2.017 4.61" fill="#EE9600"/><g transform="matrix(-1 0 0 1 120 24.583)"><mask id="d" fill="#fff"><use xlink:href="#c"/></mask><path d="M82.225 18.441c-3.788-4.18-8.602-7.875-13.095-10.384-5.611-3.133-11.648-5.6-17.952-6.94-12.842-2.732-25.938-.03-35.98 8.589C8.784 15.209 2.624 22.847 0 30.9c0 0 5.132 29.272 48.576 33.042l.117.018c7.974 1.147 16.559.643 24.248-1.75 7.97-2.482 16.092-8.491 19.814-16.047 5.41-10.986-3.56-20.029-10.53-27.723" fill="#4679BB" mask="url(#d)"/></g><path d="M88.894 26.007c5.75 1.483 11.17 4.216 15.909 8.281 6.412 5.504 12.572 13.142 15.197 21.196 0 0-3.157 17.966-25.415 27.56-5.05-17.086-5.645-46.665-5.691-57.037" fill="#93BCE5"/><path d="M120 55.484s-.04.218-.133.6l-19.034 3.29a.746.746 0 0 1-.863-.605.745.745 0 0 1 .609-.86l19.088-3.3c.105.293.237.581.333.875m-19.886-8.424c1.095-.111 1.87-1.305 1.731-2.668-.139-1.362-1.14-2.377-2.235-2.266-1.095.11-1.87 1.305-1.73 2.667.138 1.363 1.139 2.377 2.234 2.266" fill="#1D1D1B"/><path d="M63.665 83.26c3.097-4.265 7.664-10.38 12.388-16.103L63.63 55.08c-4.508 4.604-8.911 9.717-12.565 15.11 4.522 4.845 9.065 9.604 12.6 13.068zM89.02 53.705l-11.458-11.31c-3.917 3.21-8.417 7.158-12.882 11.627l12.33 11.984c4.28-5.111 8.609-9.77 12.01-12.301zM64.317 29.32A195.659 195.659 0 0 0 52.414 42.1l11.202 10.89c4.465-4.471 8.958-8.422 12.882-11.645L64.317 29.32zm-24.02 29.164c2.87 3.16 6.267 6.871 9.732 10.596 3.673-5.368 8.055-10.452 12.538-15.032L51.45 43.242c-3.823 4.576-7.776 9.796-11.152 15.242zm3.166 26.928a36.403 36.403 0 0 1-1.36-.646c1.517-4.909 4.006-9.76 7.064-14.415-3.433-3.688-6.81-7.374-9.684-10.537-3.37 5.638-6.066 11.48-7.29 17.081a.72.72 0 0 1-.262.409c-.364-.386-.75-.757-1.09-1.158 1.338-5.806 4.118-11.789 7.565-17.52-3.875-4.274-6.635-7.37-7.002-7.781a.722.722 0 0 1-.156-.311c.24-.31.489-.616.736-.922.2.006.396.086.539.247.09.102 2.79 3.13 6.699 7.44 3.388-5.438 7.318-10.606 11.115-15.138l-5.31-5.162a.72.72 0 0 1-.195-.378c.355-.27.708-.54 1.066-.797.06.032.122.062.173.111l5.228 5.082a190.523 190.523 0 0 1 11.946-12.755l-.4-.395a.732.732 0 0 1-.205-.433c.467-.156.925-.342 1.396-.487l.283.28c.192-.185.361-.344.525-.498.799-.233 1.608-.428 2.416-.625a.741.741 0 0 1-.238.636c-.04.037-.641.587-1.635 1.542L77.66 40.396c6.182-5 10.672-8.012 10.802-8.098a.749.749 0 0 1 1.037.206.737.737 0 0 1-.206 1.03c-.128.085-4.516 3.031-10.567 7.914l11.976 11.821a.741.741 0 0 1-.105 1.143c-3.375 2.288-7.956 7.2-12.505 12.646l16.46 16c-.488.21-1.001.41-1.509.612L77.136 68.21c-4.723 5.734-9.31 11.879-12.382 16.105 2.039 1.956 3.66 3.38 4.605 3.967.17.107.282.271.327.451-.658.076-1.316.147-1.98.2-.976-.755-2.289-1.933-3.831-3.405a356.531 356.531 0 0 0-2.54 3.563 58.095 58.095 0 0 1-1.693-.071.705.705 0 0 1 .118-.284c.183-.263 1.3-1.868 3.025-4.26-3.544-3.457-8.064-8.18-12.57-13.003-2.932 4.513-5.315 9.202-6.752 13.94z" fill="#2C4B74"/><path d="M90.247 67.118c-6.049-2.154-16.633 4.334-13.682 11.212 1.845 4.298 7.327 7.24 11.476 4.256 2.95-2.122 4.528-6.756 4.765-10.218.165-2.41.044-4.213-2.33-5.164a6.57 6.57 0 0 0-.229-.086" fill="#FDDE00"/><path d="M92.484 70.051a.74.74 0 0 0-.257-.974c-4.358-2.783-10.029 3.13-11.663 5.007a.738.738 0 0 0 .076 1.05.75.75 0 0 0 1.055-.076c.914-1.05 5.226-5.758 8.582-5.173-3.244 2.414-5.303 5.037-6.427 8.182a.743.743 0 0 0 .453.95.751.751 0 0 0 .955-.452c1.137-3.165 3.357-5.796 6.985-8.247a.743.743 0 0 0 .241-.267" fill="#EE9600"/><path d="M77.282 32.583c.806 1.21 2.94.967 3.62-.317 2.364-4.458-6.455-4.28-3.979-.26l.359.577zM63.466 44.415c-7.369-1.023 2.853-9.123 3.378-2.752.099 1.196-.763 2.395-1.928 2.703-.47.124-.968.116-1.45.05m-12.248-8.937c.09.87 1.278 1.397 1.99.884.71-.513.576-1.8-.226-2.157-.802-.356-1.855.404-1.764 1.273m-.196 23.47c-2.79-1.12-.92-5.002 1.612-3.996 1.053.418 1.628 1.753 1.206 2.8-.422 1.048-1.765 1.618-2.818 1.196M38.726 47.74c.344-1.379 2.534-1.61 3.402-.482.591.766.594 1.944-.035 2.68-.63.736-1.844.908-2.626.334-.781-.573-.957-1.828-.326-2.562l-.415.03zM30.23 62.972c.215-1.32 1.954-2.137 3.094-1.429s1.13 2.672-.036 3.336c-1.166.664-2.897-.383-2.804-1.716l-.254-.191zm45.318-8.368c.445 1.514 2.544 2.261 3.837 1.349 1.292-.913 1.256-3.164-.08-4.011-1.338-.847-3.424.106-3.623 1.67-.66.686-.147.573-.039 1.517l-.095-.525zM62.739 73.309c2.583.898 5.723-3.088 3.46-5.059-2.583-2.251-7.974 3.487-3.46 5.059m-20.279.386c-6.553.179 1.835-8.685 2.222-2.416.075 1.215-.997 2.382-2.221 2.416m12.557 9.299c-.802 2.117-4.895.397-2.463-1.537 1.283-1.02 3.118-.19 2.463 1.537" fill="#FDDE00"/></g></svg>