<svg width="120" height="120" viewBox="0 0 120 120" xmlns="http://www.w3.org/2000/svg" xmlns:xlink="http://www.w3.org/1999/xlink"><defs><path id="a" d="M0 0h120v120H0z"/><path id="c" d="M0 .917h110.212V111H0z"/></defs><g fill="none" fill-rule="evenodd"><mask id="b" fill="#fff"><use xlink:href="#a"/></mask><path d="M81.797 118.125c-10.898 2.5-32.695 2.5-43.594 0C18.648 113.64 6.32 101.361 1.875 81.797c-2.512-11.056-2.488-32.851 0-43.594C6.402 18.657 18.66 6.415 38.203 1.875c10.693-2.484 32.487-2.516 43.594 0 19.567 4.433 31.675 16.812 36.328 36.328 2.452 10.285 2.548 32.058 0 43.594-4.327 19.591-16.773 31.843-36.328 36.328" fill="#EF5350" mask="url(#b)"/><g transform="translate(0 9)"><mask id="d" fill="#fff"><use xlink:href="#c"/></mask><path d="M91.64 99.281c-10.898 2.5-32.695 2.5-43.594 0-19.555-4.485-31.883-16.764-36.328-36.328-2.512-11.056-2.488-32.85 0-43.594 1.651-7.13 4.343-13.275 8.03-18.442C10.753 7.337 4.75 16.791 1.874 29.203c-2.487 10.743-2.51 32.538 0 43.594 4.445 19.564 16.773 31.842 36.328 36.328 10.9 2.5 32.696 2.5 43.594 0 12.441-2.854 21.99-8.863 28.416-17.892-5.207 3.707-11.407 6.404-18.572 8.048" fill="#D84A4A" mask="url(#d)"/></g><path d="M60 73.125c-7.344 0-13.125-5.781-13.125-13.125 0-7.343 5.781-13.125 13.125-13.125 7.343 0 13.125 5.782 13.125 13.125 0 7.344-5.782 13.125-13.125 13.125M99.051 57c-.789-2.521-2.175-4.365-4.783-4.783a22.939 22.939 0 0 0-1.974-.214c-2.097-.149-3.93-1.434-4.73-3.379l-.03-.071c-.809-1.957-.483-4.212.934-5.787a29.1 29.1 0 0 0 1.266-1.494c1.627-2.081 1.326-4.479 0-6.764-.854-1.474-2.98-3.582-4.242-4.242-2.34-1.226-4.624-1.549-6.764 0-.465.336-.99.759-1.547 1.243-1.583 1.375-3.778 1.764-5.715.964l-.076-.032c-1.963-.805-3.335-2.635-3.447-4.754a29.187 29.187 0 0 0-.16-1.955c-.322-2.622-2.23-4.105-4.783-4.783-1.646-.438-4.642-.426-6 0-2.52.789-4.365 2.175-4.784 4.783-.09.566-.16 1.238-.214 1.973-.148 2.098-1.433 3.933-3.378 4.732l-.07.029c-1.959.809-4.214.482-5.789-.934a28.538 28.538 0 0 0-1.493-1.266c-2.08-1.627-4.479-1.327-6.765 0-1.473.854-3.582 2.98-4.242 4.242-1.224 2.341-1.549 4.625 0 6.764.336.465.76.99 1.244 1.547 1.374 1.583 1.764 3.778.963 5.715a4.096 4.096 0 0 0-.03.076c-.806 1.963-2.637 3.334-4.755 3.447-.735.039-1.402.092-1.955.16-2.622.321-4.105 2.23-4.784 4.783-.437 1.646-.425 4.642 0 6 .79 2.521 2.176 4.365 4.784 4.783.566.091 1.238.162 1.974.214 2.097.149 3.931 1.435 4.73 3.379l.03.071c.81 1.957.482 4.212-.934 5.787a29.085 29.085 0 0 0-1.267 1.494c-1.626 2.081-1.325 4.479 0 6.764.855 1.474 2.981 3.583 4.242 4.242 2.341 1.225 4.625 1.549 6.765 0 .465-.336.99-.76 1.547-1.244 1.583-1.374 3.778-1.763 5.715-.963l.075.032c1.964.804 3.335 2.635 3.448 4.754.04.735.092 1.402.16 1.955.321 2.622 2.23 4.104 4.783 4.784 1.646.437 4.641.425 6 0 2.521-.789 4.365-2.176 4.783-4.784.091-.566.162-1.238.214-1.974.15-2.097 1.434-3.932 3.38-4.731l.07-.029c1.957-.809 4.212-.482 5.787.934.547.491 1.055.925 1.494 1.266 2.081 1.627 4.48 1.326 6.764 0 1.474-.854 3.583-2.98 4.242-4.242 1.225-2.341 1.55-4.625 0-6.764-.336-.464-.76-.99-1.244-1.547-1.374-1.583-1.764-3.778-.963-5.715l.031-.075c.806-1.963 2.636-3.335 4.755-3.448a29.187 29.187 0 0 0 1.955-.16c2.622-.321 4.105-2.23 4.783-4.783.438-1.646.426-4.642 0-6" fill="#FFF"/></g></svg>