<svg width="284" height="136" viewBox="0 0 284 136" xmlns="http://www.w3.org/2000/svg"><g fill="none" fill-rule="evenodd"><path d="M281.402 113.385s-.557 7.386-4.405 10.078c-3.797 2.656-9.376 4.963-14.962 4.963-5.585 0-199.93-.044-199.93-.044l200.904-8.568s19.855-17.857 18.393-6.43" fill="#F4C5A6"/><path d="M276.082 119.399s1.057 3.18-1.018 5.375m6.249-19.106s1.792 13.367-4.317 17.795c-5.883 4.266-10.17 5.11-21.404 5.11H20.77" stroke="#E7A06B" stroke-width=".5"/><path d="M232.45 98.992s-1.465-1.345-3.132-1.155c-1.667.188-2.522 1.988-3.626 3.625-1.105 1.638-2.313 2.504-3.71 2.663-1.4.16-3.348-.672-3.598-2.832-.25-2.158 1.318-3.2 1.666-3.483" stroke="#EA7B61" stroke-width=".65"/><path d="M219.832 97.596c-.013.01.166-.081.41-.14.122-.039.271-.054.423-.084.158-.004.321-.031.487-.014.165.016.327.015.475.065.144.046.284.06.389.125l.35.171-.378-.075c-.107-.034-.246-.01-.383-.017-.138-.013-.285.03-.427.051-.143.021-.278.085-.405.121-.122.061-.238.103-.327.161-.188.104-.269.184-.282.189l-.332-.553z" fill="#EA7B61"/><path d="M219.759 97.632c.01-.01.116-.054.283-.187.088-.06.17-.15.273-.238.082-.103.193-.204.267-.326.074-.122.169-.242.21-.372.046-.128.12-.247.129-.359l.072-.375.029.387c.02.12-.02.253-.032.404-.009.154-.072.302-.118.46-.047.159-.134.298-.199.44-.085.129-.155.26-.237.357-.149.201-.3.331-.286.324l-.391-.515z" fill="#EA7B61"/><path d="M273.836 120.727c5.306-2.683 8.147-5.705 7.576-13.914-.986-14.19-10.561-21.801-10.808-22.148-.246-.346-1.883-1.2-3.507-2.07-1.624-.869-3.33.008-3.33.008s-33.17 12.095-35.28 12.9c-2.112.805-1.544 1.449 0 2.415 1.542.965 2.38 1.556 3.004 1.69.623.134 16.728 0 24.524 0 7.796 0 9.055-3.38 9.055-3.38l.237 20.857" fill="#4B9095"/><path d="M255.592 111.533c18.847-2.878 9.518-14.728 9.518-14.728s-2.21 2.567-7.322 2.811c0 0 9.281 9.126-2.196 11.917-4.186 1.017 0 0 0 0" fill="#F4C5A6"/><path d="M257.788 99.617s9.768 9.159-3.042 12.102" stroke="#E7A06B" stroke-width=".5"/><path d="M266.693 99.639s-1.822.558-3.653 1.079c-.457.135-.912.277-1.342.392-.434.103-.842.19-1.197.244-.708.112-1.193.137-1.193.137l-.011-.044s.438-.207 1.115-.442c.338-.12.738-.236 1.17-.35.434-.1.902-.191 1.368-.287 1.861-.406 3.732-.773 3.732-.773l.011.044zm.817 4.281s-1.635.269-3.274.498c-.408.063-.817.132-1.202.18-.385.034-.747.056-1.06.056-.622 0-1.044-.05-1.044-.05l-.005-.046s.402-.135 1.012-.263c.305-.066.663-.119 1.047-.164.387-.033.802-.049 1.215-.072 1.65-.113 3.306-.185 3.306-.185l.005.045zm-3.3 4.534s-.786-.166-1.559-.37c-.195-.046-.392-.086-.572-.14a2.544 2.544 0 0 1-.884-.529l.017-.042s.22-.024.522.013c.153.018.323.06.501.115.174.068.354.159.535.242.734.315 1.455.669 1.455.669l-.015.042z" fill="#E7A06B"/><path d="M267.07 122.996s.466 3.424-2.214 5.176m-8.186-3.475s-.284 2.61-3 3.877m-9.035-3.254s-.121 2.328-2.11 3.254m-9.239-3.068s0 2-1.562 3.068m-9.076-2.891s.021 1.925-.831 2.89m-9.703-2.713s.202 1.567-1.016 2.714m-9.52-2.538s.1 1.853-1.098 2.537" stroke="#E7A06B" stroke-width=".5"/><path d="M265.11 96.61s2.582 3.35 2.209 7.055c-.45 4.468-4.58 7.458-16.275 8.477-18.042 1.574-234.13 15.936-249.033 16.633l52.73-.269s169.259-2.856 190.24-3.192c25.103-.402 36.186-5.44 36.51-15.372.488-14.915-10.548-24.93-10.793-25.277-.247-.346-1.884-1.2-3.509-2.07-1.624-.869-3.33.008-3.33.008s-33.168 12.095-35.28 12.9c-2.111.805-1.543 1.449 0 2.415 1.543.965 2.382 1.556 3.005 1.69.623.134 16.729 0 24.524 0 7.796 0 9.11-3.38 9.11-3.38" fill="#4B9095"/><path d="M192.135 126.194c.04.12.006 1.856-1.299 2.38m-7.572-2.231c-.04.402 0 1.567-.873 2.23m-8.709-2.069s0 1.546-.934 2.07m-7.308-1.932s.08 1.409-.934 1.931m-7.661-1.786s.128 1.283-.785 1.786m-7.023-1.655s.1 1.113-.61 1.655m-7.527-1.549s.1.985-.611 1.528m-7.079-1.528s.1.985-.611 1.528m-6.999-1.306s.095.763-.615 1.306m-7.112-1.306s.22.784-.49 1.328m-7.433-1.127s.24.562-.471 1.105m-6.981-.851s.145.362-.4.979m-6.881-.856s.056.138-.427.728" stroke="#E7A06B" stroke-width=".5"/><path d="M260.569 110.286s-.336.007-.658-.025c-.083-.002-.167 0-.24-.013a.482.482 0 0 1-.182-.108c-.097-.094-.147-.207-.147-.207l.012-.043s.103-.068.236-.097a.502.502 0 0 1 .212.005c.07.027.14.075.21.117.29.144.57.328.57.328l-.013.043z" fill="#E7A06B"/><path d="M251.518 90.883c.401 2.55 3.533 4.184 6.996 3.65 3.463-.536 5.946-3.037 5.544-5.588-.401-2.55-3.534-4.185-6.998-3.649-3.461.536-5.943 3.037-5.542 5.587" fill="#FBAC77"/><path d="M265.11 96.61s2.582 3.35 2.209 7.055c-.45 4.468-4.58 7.458-16.275 8.477-18.042 1.574-234.13 15.936-249.033 16.633l52.73-.269s169.259-2.856 190.24-3.192c25.103-.402 36.186-5.44 36.51-15.372.488-14.915-10.548-24.93-10.793-25.277-.247-.346-1.884-1.2-3.509-2.07-1.624-.869-3.33.008-3.33.008s-33.168 12.095-35.28 12.9c-2.111.805-1.543 1.449 0 2.415 1.543.965 2.382 1.556 3.005 1.69.623.134 16.729 0 24.524 0 7.796 0 9.11-3.38 9.11-3.38" stroke="#2B535A" stroke-width=".5"/><path d="M251.518 90.883c.401 2.55 3.533 4.184 6.996 3.65 3.463-.536 5.946-3.037 5.544-5.588-.401-2.55-3.534-4.185-6.998-3.649-3.461.536-5.943 3.037-5.542 5.587z" stroke="#2B535A" stroke-width=".5"/><path d="M250.753 90.753s.013.213.095.577c.041.182.1.401.182.645.085.245.19.516.336.798.063.146.148.287.24.43.097.14.17.302.293.436l.347.431c.125.14.275.264.414.4.135.142.293.262.464.37.168.109.327.237.507.334.378.162.73.39 1.143.48l.6.173c.2.047.411.06.614.092l.604.085c.202.014.403.01.6.016.394.015.773.063 1.137.033.365-.015.71-.022 1.03-.025.321.01.613-.036.875-.053.26-.025.49-.042.68-.05.38-.021.6-.023.6-.023l.015.063s-.205.074-.571.183c-.183.06-.406.123-.665.19-.26.06-.547.173-.877.203-.327.047-.683.092-1.06.134-.377.069-.784.012-1.2.015-.21-.015-.421-.02-.635-.044l-.643-.13c-.215-.05-.435-.081-.648-.147l-.632-.23c-.432-.123-.808-.388-1.2-.586-.186-.116-.352-.263-.524-.39a2.638 2.638 0 0 1-.475-.424c-.14-.153-.292-.294-.416-.45l-.337-.478c-.117-.15-.182-.327-.27-.48a2.98 2.98 0 0 1-.217-.465 6.473 6.473 0 0 1-.418-1.516c-.056-.375-.053-.593-.053-.593l.065-.004zm-18.303 6.052c0 .422.448.764 1.001.764.555 0 1.002-.342 1.002-.764 0-.423-.447-.764-1.002-.764-.553 0-1 .341-1 .764m-4.061 0c0 .422.448.764 1.001.764.554 0 1.002-.342 1.002-.764 0-.423-.448-.764-1.002-.764-.553 0-1.001.341-1.001.764" fill="#2B535A"/><path d="M257.657 94.082s2.868-3.46.296-8.37c0 0-2.946 2.522-.296 8.37" fill="#1A383B"/><path d="M271.454 111.399c-.311.448-.707.783-1.126 1.084l-.187.136-.13-.187c-.272-.395-.516-.808-.655-1.297.421.29.737.653 1.024 1.037l-.317-.052c.42-.3.864-.568 1.391-.721m6.914-5.149c-.312.449-.707.783-1.126 1.084l-.188.135-.13-.186c-.272-.394-.516-.808-.654-1.297.42.289.735.653 1.023 1.036l-.317-.051c.42-.3.864-.569 1.392-.721m-7.235-6.37c-.311.45-.707.784-1.126 1.085l-.187.135-.13-.187c-.272-.394-.516-.808-.655-1.296.42.289.736.653 1.024 1.036l-.317-.051c.42-.3.864-.569 1.391-.721m-10.265 14.158c-.543-.091-1.015-.305-1.468-.555l-.203-.112.116-.194c.246-.41.522-.804.91-1.135-.087.5-.287.936-.516 1.356l-.087-.306c.452.25.884.536 1.248.946m-4.198 6.952c-.542-.09-1.015-.304-1.467-.554l-.203-.112.116-.194c.246-.411.522-.805.91-1.135-.087.5-.287.936-.517 1.356l-.086-.306c.452.25.884.536 1.247.945m-8.808-4.645c-.508-.208-.921-.521-1.306-.865l-.172-.155.156-.163c.334-.346.69-.668 1.144-.905-.198.468-.491.85-.81 1.208l-.015-.317c.384.343.742.718 1.003 1.197m-6.428 5.689c-.508-.208-.921-.521-1.306-.865l-.172-.155.156-.163c.334-.346.69-.669 1.144-.905-.198.468-.491.85-.81 1.208l-.015-.317c.384.343.742.717 1.003 1.197m-6.993-4.445c-.508-.207-.921-.521-1.306-.865l-.172-.154.157-.164c.333-.346.69-.668 1.144-.904-.198.467-.492.849-.81 1.207l-.016-.317c.385.343.742.718 1.003 1.198m-7.333 4.975c-.508-.208-.921-.522-1.306-.865l-.172-.155.156-.164c.334-.345.69-.668 1.144-.904-.198.467-.491.85-.81 1.208l-.015-.318c.384.343.742.718 1.003 1.198m-7.693-4.085c-.485-.256-.864-.607-1.213-.987l-.157-.17.172-.148c.366-.312.753-.598 1.228-.79-.243.447-.573.797-.925 1.123l.016-.317c.349.38.667.787.88 1.29m-6.781 4.949c-.486-.256-.865-.608-1.214-.988l-.156-.17.172-.147c.366-.312.753-.599 1.228-.79-.243.446-.573.797-.926 1.123l.016-.318c.349.38.667.788.88 1.29m-6.562-4.306c-.485-.256-.864-.607-1.213-.987l-.157-.171.172-.147c.366-.312.753-.599 1.228-.79-.243.446-.573.797-.925 1.123l.016-.317c.349.38.667.787.88 1.29m-7.243 4.487c-.485-.256-.864-.607-1.213-.987l-.157-.171.173-.147c.365-.312.752-.599 1.227-.79-.243.446-.573.797-.925 1.123l.016-.317c.349.38.667.787.88 1.29m-6.833-4.085c-.486-.256-.865-.608-1.214-.988l-.156-.17.172-.147c.366-.312.753-.599 1.228-.79-.243.446-.573.797-.926 1.123l.016-.318c.349.38.667.788.88 1.29m-7.571 5.131c-.485-.255-.865-.607-1.213-.987l-.157-.17.172-.147c.366-.313.753-.599 1.228-.79-.243.446-.573.797-.926 1.123l.016-.318c.35.38.668.788.88 1.29m-9.699-4.085c-.485-.256-.865-.607-1.214-.987l-.156-.17.172-.148c.366-.312.753-.598 1.228-.79-.243.447-.573.797-.926 1.123l.016-.317c.35.38.668.787.88 1.29m-9.715 4.538c-.485-.257-.865-.608-1.213-.988l-.157-.17.172-.147c.366-.313.753-.6 1.228-.79-.243.446-.573.797-.926 1.123l.016-.318c.35.38.668.788.88 1.29m-9.16-3.491c-.486-.256-.865-.608-1.214-.988l-.157-.17.173-.147c.365-.312.753-.599 1.227-.79-.243.446-.573.797-.925 1.123l.016-.318c.349.38.667.788.88 1.29m-8.182 4.084c-.486-.256-.865-.608-1.214-.987l-.156-.171.172-.147c.366-.312.753-.599 1.228-.79-.243.446-.573.797-.926 1.123l.016-.317c.349.38.667.787.88 1.29m-7.106-3.038c-.485-.256-.864-.607-1.213-.987l-.157-.17.173-.148c.365-.312.752-.598 1.227-.79-.243.447-.573.797-.925 1.123l.016-.317c.349.38.667.787.88 1.29m-8.803 3.036c-.485-.256-.864-.608-1.213-.987l-.157-.171.172-.147c.366-.312.753-.599 1.228-.79-.243.446-.573.797-.925 1.123l.016-.317c.349.38.667.787.88 1.29m-9.714-1.642c-.485-.256-.864-.608-1.213-.987l-.157-.171.172-.147c.366-.312.753-.599 1.228-.79-.243.446-.573.797-.925 1.123l.016-.317c.349.38.667.787.88 1.29m-10.125 2.294c-.486-.256-.865-.608-1.214-.988l-.157-.17.173-.147c.365-.312.753-.599 1.227-.79-.243.446-.573.797-.925 1.123l.016-.317c.349.38.667.787.88 1.29m-10.539-1.048c-.485-.257-.864-.608-1.213-.988l-.157-.17.172-.147c.366-.313.753-.6 1.228-.79-.243.446-.573.797-.925 1.122l.016-.317c.349.38.667.787.88 1.29m-10.602 1.709c-.485-.256-.865-.608-1.214-.987l-.156-.171.172-.147c.366-.312.753-.599 1.228-.79-.243.446-.573.797-.926 1.123l.016-.317c.35.38.667.787.88 1.29m-9.794-.663c-.486-.256-.865-.608-1.214-.988l-.157-.17.173-.147c.365-.312.753-.599 1.227-.79-.242.446-.572.797-.925 1.123l.016-.317c.349.38.667.787.88 1.29m-9.71 1.517c-.486-.256-.865-.608-1.214-.988l-.156-.17.172-.147c.366-.312.753-.599 1.228-.79-.243.446-.573.797-.926 1.123l.016-.318c.349.38.667.788.88 1.29m-10.415-.81c-.437-.105-.796-.314-1.135-.55l-.275-.193.29-.179c.37-.226.76-.42 1.227-.493-.272.382-.62.646-.988.874l.015-.37c.328.25.636.528.866.91m-11.209.631c-.405-.026-.753-.159-1.083-.322l-.397-.196.404-.2c.373-.185.764-.332 1.222-.344-.291.35-.648.566-1.025.743l.008-.396c.32.183.624.396.87.716m-11.656.284c-.379.027-.717-.052-1.042-.165l-.545-.188.545-.224c.375-.155.767-.268 1.216-.239-.307.327-.671.509-1.052.651l-.001-.412c.315.135.618.303.879.577m231.78-8.933c-.503.22-1.016.3-1.533.337l-.232.017-.01-.225c-.023-.477-.012-.956.13-1.444.204.465.28.939.32 1.414l-.241-.208c.516-.039 1.036-.036 1.566.109m6.688-24.488l-.255 1.33-.07.361-.27-.251-.997-.929 1.25.554-.34.109z" fill="#2B535A"/></g></svg>