<svg width="120" height="120" viewBox="0 0 120 120" xmlns="http://www.w3.org/2000/svg" xmlns:xlink="http://www.w3.org/1999/xlink"><defs><path id="a" d="M.015.126H24.17v25.72H.015z"/><path id="c" d="M.1.145h49.14v8.24H.1z"/><path id="e" d="M0 119.855h72.998V.162H0z"/></defs><g fill="none" fill-rule="evenodd"><g transform="matrix(-1 0 0 1 97 0)"><path d="M0 113.848a6.013 6.013 0 0 0 6.018 6.007H66.98a6.013 6.013 0 0 0 6.018-6.007V34.123H0v79.725z" fill="#E0E6E7"/><path fill="#DDD" d="M11.78 8.403L0 34.123h72.998l-11.78-25.72z"/><g transform="translate(48.829 8.276)"><mask id="b" fill="#fff"><use xlink:href="#a"/></mask><path fill="#CCC" mask="url(#b)" d="M11.795.126L.015 25.846H24.17L12.39.126z"/></g><g transform="translate(11.68 .017)"><mask id="d" fill="#fff"><use xlink:href="#c"/></mask><path d="M43.391.145H5.95A5.845 5.845 0 0 0 .1 5.985v2.4h49.14v-2.4a5.844 5.844 0 0 0-5.85-5.84" fill="#3E9BC7" mask="url(#d)"/></g><path d="M29.958 14.733c-3.613 0-6.541 2.924-6.541 6.53 0 3.606 2.928 6.53 6.54 6.53 3.613 0 6.542-2.924 6.542-6.53 0-3.606-2.929-6.53-6.541-6.53" fill="#48B5E8"/><mask id="f" fill="#fff"><use xlink:href="#e"/></mask><path fill="#007FBB" mask="url(#f)" d="M0 48.713h72.998v-4.876H0zm0 60.426h72.998v-4.876H0z"/><path d="M48.844 119.855H66.98a6.013 6.013 0 0 0 6.018-6.007V34.123H48.844v85.732z" fill="#CFD5D6" mask="url(#f)"/></g><path d="M64.128 69.312h2.544V83.36h-3.2v-6.608l-2.56 6.48h-2.144l-2.576-6.48v6.608h-3.2V69.312h2.672l3.696 8.384.48 1.312.512-1.344 3.776-8.352zm4.304.048h3.52v13.952h-3.52V69.36zm13.456 11.536l.352 2-.576.336h-8.128V69.44h3.52v11.728h4.368l.464-.272zm8.608 2.416l-3.072-5.728-.704.912v4.816h-3.36V69.36h3.36v4.464l3.408-4.464h3.712l-4.352 5.584 4.496 8.368h-3.488z" fill="#007FBB"/></g></svg>