<svg width="120" height="120" viewBox="0 0 120 120" xmlns="http://www.w3.org/2000/svg" xmlns:xlink="http://www.w3.org/1999/xlink"><defs><path id="a" d="M.679.808h86.607V118H.679z"/><path id="c" d="M0 0h86.606v117.192H0z"/></defs><g fill="none" fill-rule="evenodd"><g transform="translate(18 2)"><mask id="b" fill="#fff"><use xlink:href="#a"/></mask><path d="M34.116 83.356c.12-3.901 2.826-8.875 6.556-11.438.465-.2.945-.372 1.453-.51 3.152-.859 6.89-.407 9.569 1.474 2.287 1.608 4.987 3.75 6.068 6.404 1.062 2.626.926 5.757-.373 8.27-2.501 4.844-8.605 7.377-13.858 6.347-5.196-1.016-9.588-4.964-9.415-10.547m6.104-58.8c.466-.2.95-.377 1.454-.512 3.152-.861 6.89-.405 9.569 1.476 2.286 1.607 4.99 3.75 6.067 6.404 1.062 2.62.927 5.75-.373 8.264-2.5 4.848-8.605 7.377-13.857 6.353-5.197-1.015-9.588-4.968-9.416-10.547.12-3.908 2.826-8.875 6.556-11.438m45.287 67.555c2.192-6.442 2.454-13.746.25-20.225-1.964-5.768-5.643-10.69-9.811-15.077 10.673-8.936 9.42-27.13 2.747-38.139C70.432 5.031 53.916-1.452 38.473 1.515c-4.227.815-8.335 2.365-12.138 4.373-.606.317-1.188.657-1.761 1.006-4.97 2.575-9.462 6.072-12.63 10.748-3.967 5.854-5.2 13.332-3.603 20.195 1.49 6.374 5.626 11.516 9.979 16.243-4.111 4.14-7.771 8.913-10.947 13.742C3.847 73.177.737 79.272.68 85.823c-.111 12.838 10.166 22.38 21.179 27.097 12.074 5.168 26.217 6.947 38.84 2.71 11.294-3.79 20.909-12.085 24.808-23.52" fill="#E6E6E6" mask="url(#b)"/></g><path d="M72.521 44.275c2.561-3.073 3.842-7.055 3.385-11.046-.498-4.32-3.036-7.31-6.342-9.9-3.572-2.798-7.67-5.062-12.378-3.953-.419.097-.843.218-1.267.358-1.633.405-3.194 1.187-4.624 2.222-3.054 2.212-5.843 5.918-7.045 9.615-2.314 7.13 1.313 14.306 8.075 17.25 6.878 2.998 15.325 1.293 20.196-4.546m.446 47.367c2.567-3.073 3.847-7.054 3.391-11.05-.498-4.317-3.036-7.306-6.343-9.9-3.57-2.794-7.669-5.062-12.377-3.954-.419.1-.843.224-1.266.36-1.635.404-3.195 1.187-4.624 2.22-3.055 2.212-5.849 5.92-7.05 9.621-2.31 7.124 1.317 14.305 8.08 17.248 6.877 2.994 15.323 1.29 20.19-4.545m20.261-21.295c2.323 4.857 2.873 10.505 1.862 15.768-2.025 10.57-9.63 18.775-19.292 23.101-10.915 4.885-23.525 4.27-34.697.601-10.179-3.339-20.74-10.054-22.668-21.448-1.103-6.557 2.086-12.713 5.63-17.998 3.813-5.682 8.614-10.236 13.43-15.036 1.056-1.048 1.07-2.873 0-3.926-4.313-4.238-8.909-8.68-10.739-14.622a21.107 21.107 0 0 1 2.46-17.649c3.073-4.72 7.845-8.168 12.82-10.654.315-.158.632-.313.95-.46C51.225 4.711 60.33 3.878 69.08 6.48c12.805 3.818 22.635 15.28 23 28.876.18 6.976-2.316 14.096-8.48 17.872-1.473.9-1.906 3.115-.564 4.355 4.027 3.73 7.8 7.762 10.193 12.763" fill="#00B3E6"/><g transform="translate(14)"><mask id="d" fill="#fff"><use xlink:href="#c"/></mask><path d="M81.091 86.115c1.012-5.263.462-10.91-1.861-15.768-2.395-5-6.166-9.034-10.195-12.763-1.34-1.24-.907-3.455.565-4.355 6.165-3.776 8.66-10.896 8.479-17.872-.363-13.596-10.194-25.057-23-28.876-8.75-2.602-17.852-1.769-26.095 1.542-.318.15-.634.303-.95.461-4.973 2.486-9.746 5.933-12.82 10.654a21.103 21.103 0 0 0-2.459 17.65c1.83 5.941 6.426 10.384 10.739 14.621 1.07 1.053 1.056 2.878 0 3.926-4.816 4.801-9.617 9.354-13.43 15.036-3.543 5.285-6.734 11.441-5.63 17.998 1.928 11.394 12.49 18.11 22.668 21.448 11.173 3.67 23.783 4.284 34.698-.6 9.662-4.327 17.267-12.532 19.291-23.102m3.987-15.036c2.201 6.476 1.941 13.783-.252 20.223-3.897 11.437-13.513 19.73-24.805 23.521-12.624 4.237-26.767 2.46-38.841-2.71C10.166 107.395-.11 97.854 0 85.015c.057-6.55 3.167-12.647 6.692-18.002 3.175-4.829 6.836-9.602 10.948-13.742-4.354-4.726-8.489-9.867-9.98-16.242-1.596-6.864-.362-14.343 3.605-20.195 3.166-4.676 7.66-8.173 12.63-10.748a29.83 29.83 0 0 1 1.759-1.006c3.805-2.007 7.912-3.558 12.14-4.372 15.442-2.967 31.959 3.515 40.22 17.154 6.672 11.01 7.925 29.202-2.748 38.14 4.167 4.384 7.846 9.307 9.811 15.077" fill="#118ACB" mask="url(#d)"/></g><path d="M70.71 86.748c1.299-2.515 1.434-5.644.372-8.27-1.08-2.654-3.781-4.796-6.067-6.403-2.678-1.881-6.417-2.333-9.57-1.476a11.13 11.13 0 0 0-1.453.512c-3.73 2.562-6.435 7.534-6.556 11.437-.172 5.583 4.218 9.532 9.416 10.548 5.253 1.028 11.357-1.505 13.858-6.348m5.648-6.156c.456 3.996-.824 7.977-3.39 11.051-4.866 5.834-13.313 7.539-20.191 4.544-6.761-2.943-10.39-10.124-8.08-17.248 1.202-3.702 3.996-7.409 7.05-9.621 1.43-1.033 2.99-1.816 4.625-2.22.424-.136.848-.261 1.267-.36 4.708-1.107 8.805 1.16 12.377 3.954 3.306 2.594 5.844 5.583 6.342 9.9M70.257 39.38c1.3-2.514 1.435-5.643.373-8.265-1.076-2.654-3.78-4.796-6.068-6.402-2.677-1.882-6.416-2.338-9.57-1.477-.503.135-.987.313-1.452.513-3.73 2.56-6.435 7.529-6.556 11.437-.173 5.578 4.218 9.532 9.415 10.547 5.253 1.024 11.358-1.504 13.858-6.352m5.648-6.151c.457 3.99-.824 7.972-3.384 11.046-4.87 5.838-13.319 7.543-20.197 4.544-6.76-2.943-10.388-10.12-8.074-17.25 1.201-3.696 3.99-7.402 7.045-9.614 1.43-1.034 2.99-1.816 4.624-2.221.424-.14.848-.261 1.267-.36 4.708-1.107 8.805 1.156 12.378 3.954 3.306 2.59 5.843 5.579 6.342 9.9" fill="#118ACB"/><path d="M85.65 29.724c-.513-2.95-1.738-5.85-3.367-8.354-3.372-5.186-8.473-8.82-14.229-10.944-5.85-2.158-12.36-2.618-18.388-.902-2.97.846-5.829 2.109-8.318 3.947-2.432 1.798-3.95 3.963-5.762 6.337-.447.584.487 1.227.985.76 1.838-1.72 4.292-2.963 6.513-4.128 2.321-1.218 4.77-2.247 7.314-2.89a26.442 26.442 0 0 1 15.418.748c4.674 1.687 8.865 4.947 11.572 9.114 1.347 2.073 2.34 4.31 2.824 6.743.475 2.383.101 4.636.794 6.976.375 1.265 2.245 2.005 3.193.844 2.067-2.533 2-5.1 1.451-8.251m-2.163 11.012a2.743 2.743 0 0 0-1.391-.377 2.737 2.737 0 0 0-1.39.377l-.124.054a2.697 2.697 0 0 0-.966 3.684c.239.405.561.727.966.966.041.02.083.036.124.055.429.25.893.375 1.39.376a2.742 2.742 0 0 0 1.391-.376 2.775 2.775 0 0 0 1.365-2.38c0-.97-.526-1.889-1.365-2.379m4.76 27.932c-2.442-4.116-5.731-6.751-9.861-9.012-.503-.275-1.071.4-.628.815 5.72 5.365 9.038 13.584 8.046 21.389-.49 3.846-2.12 7.306-4.597 10.262-2.61 3.115-5.922 5.464-8.348 8.737-1.194 1.611.819 4.306 2.71 3.528 8.825-3.629 15.352-13.053 15.95-22.527.284-4.481-.985-9.339-3.272-13.192" fill="#FFF" opacity=".5"/></g></svg>