<svg width="120" height="120" viewBox="0 0 120 120" xmlns="http://www.w3.org/2000/svg" xmlns:xlink="http://www.w3.org/1999/xlink"><defs><path id="a" d="M.379.132h21.56v27.63H.379z"/><path id="c" d="M.112.156h15.75v12.48H.113z"/><path id="e" d="M.495.497H14.6v28.747H.495z"/><path id="g" d="M.46.271h12.568V14.23H.46z"/></defs><g fill="none" fill-rule="evenodd"><path d="M38.872 71.587s-5.32-5.082-7.457.187c-2.136 5.27 2.724 16.236-7.822 14.15 0 0-.154 1.96 2.903 2.338 0 0-1.793 2.05-5.481.46 0 0 .886 3.75 5.212 2.972 0 0-4.328 1.97-6.227.717 0 0 7.552 7.89 13.227 3.786 5.675-4.106-.212-22.828 5.645-24.61" fill="#D4B899"/><path d="M31.75 85.212c0-.47-.027-.935-.08-1.393.097-.36.19-.719.275-1.083.733-3.17.967-6.435 1.802-9.586l.063-.236c.099-.134.2-.267.293-.403a11.96 11.96 0 0 0 2.972-2.252 10.85 10.85 0 0 1 1.797 1.328c-5.857 1.782.03 20.505-5.645 24.61-2.48 1.793-5.316 1.293-7.725.165.063-.087.121-.177.184-.264 3.622-2.313 6.065-6.357 6.065-10.886" fill="#CBA782"/><path d="M66.208 22.176s-7.108-5.443-9.477 4.497c-2.37 9.94-.592 23.903-7.305 25.086 0 0 5.33 3.313 6.515-4.024 0 0 .593 10.887-12.635 10.65 0 0 2.567 4.024 7.897 2.13 0 0-4.936 4.497-10.068 2.13 0 0 3.75 9.94 13.819 8.047 10.069-1.894 14.215-11.361 11.254-26.743-2.962-15.383 0-21.773 0-21.773" fill="#D4B899"/><path d="M53.393 63.01c4.189-4.253 6.168-10.135 7.019-15.913.885-6.003 1.345-11.984 1.66-18.038.1-1.919.19-3.842.363-5.757a6.99 6.99 0 0 1 .31-1.065c.188-.471.33-.948.437-1.427 1.698.352 3.026 1.367 3.026 1.367s-2.962 6.39 0 21.772c2.961 15.382-1.185 24.85-11.254 26.742-4.855.913-8.237-.926-10.443-3.074 3.289-.58 6.407-2.093 8.882-4.606" fill="#CBA782"/><g transform="translate(77.722 81.41)"><mask id="b" fill="#fff"><use xlink:href="#a"/></mask><path d="M5.459.132s12.37 12.617 14.11 16.37c1.738 3.753 2.37 5.831 2.37 5.831s-4.335 6.626-12.993 5.238L.379 3.877 5.459.132z" fill="#895428" mask="url(#b)"/></g><g transform="translate(83.797 96.535)"><mask id="d" fill="#fff"><use xlink:href="#c"/></mask><path d="M7.483 4.16A12.759 12.759 0 0 0 12.775.156c.314.467.56.88.717 1.22 1.739 3.753 2.37 5.83 2.37 5.83s-4.334 6.628-12.992 5.239L.112 4.817c2.407.488 4.964.313 7.37-.657" fill="#5F3A17" mask="url(#d)"/></g><path d="M55.877 89.376s1.814 12.843 2.899 18.132c1.085 5.29 2.832 6.966 2.832 6.966s-3.526 3.377-9.333 3.763c-5.807.383-5.228-1.335-5.228-1.335s-.358-24.457.8-27.894c1.159-3.437 8.03.368 8.03.368" fill="#895428"/><path d="M46.996 109.68c2.862.98 6.067.995 9.04-.203a12.682 12.682 0 0 0 2.825-1.585c1.09 4.98 2.747 6.582 2.747 6.582s-3.526 3.377-9.333 3.763c-5.807.383-5.228-1.335-5.228-1.335s-.046-3.087-.051-7.222" fill="#5F3A17"/><path d="M81.948 57.096s9.082 24.181 0 35.19c-9.082 11.01-40.275 11.6-44.224 1.18-3.948-10.419-6.515-29.293 11.451-26.344 17.966 2.949 15.399-7.864 16.189-16.318.79-8.453 16.584 6.292 16.584 6.292" fill="#A57447"/><path d="M65.452 53.83c.288.453.563.915.817 1.389.05.134.093.261.126.37.223.729.436 1.462.594 2.207.06.28.126.693.182 1.067a30.81 30.81 0 0 1 .09 3.264 38.02 38.02 0 0 1-.123 2.263c-.293 1.516-.65 3.027-1.167 4.485l-.053.15a18.31 18.31 0 0 1-.793 1.457c-.114.185-.27.407-.43.624-.132.14-.266.277-.406.41-.457.286-.923.558-1.404.803-.674.22-1.352.428-2.044.583-.312.07-.783.146-1.185.208-.239.016-.476.036-.715.043-1.444.044-2.89.017-4.329-.113l-.262-.053a39.67 39.67 0 0 1-2.456-.55 43.13 43.13 0 0 1-3.783-1.176 17.634 17.634 0 0 1-.694-.32 35.718 35.718 0 0 1-2.132-1.145 32.683 32.683 0 0 1-1.97-1.24 27.58 27.58 0 0 1-1.353-1.27c1.918-.543 4.292-.643 7.213-.164 16.158 2.653 15.708-5.827 16.028-13.71.081.14.162.28.25.418M46.219 97.652c10.11 2.177 21.408 2.008 30.538-3.433 3.027-1.803 5.639-4.094 7.837-6.72-.624 1.759-1.486 3.381-2.646 4.787-8.47 10.267-36.162 11.471-43.064 3.137a47.945 47.945 0 0 0 7.335 2.23" fill="#875226"/><g transform="translate(67.595 90.485)"><mask id="f" fill="#fff"><use xlink:href="#e"/></mask><path d="M7.603.497s6.711 16.318 6.909 20.446c.198 4.128 0 6.291 0 6.291s-6.515 4.522-14.017 0L1.483 2.07 7.603.497z" fill="#A57447" mask="url(#f)"/></g><path d="M75.488 111.763c2.32 0 4.513-.637 6.414-1.734a9.37 9.37 0 0 1 .205 1.399c.198 4.128 0 6.291 0 6.291s-6.515 4.521-14.017 0l.318-8.101a12.83 12.83 0 0 0 7.08 2.145" fill="#5F3A17"/><path d="M47.596 92.287s-3.16 12.582-4.146 17.89c-.988 5.308 0 7.515 0 7.515s-4.54 1.813-10.069 0c-5.528-1.814-4.344-3.19-4.344-3.19s8.885-22.805 11.254-25.557c2.369-2.753 7.305 3.342 7.305 3.342" fill="#A57447"/><path d="M31.711 107.788c2.285 1.978 5.25 3.19 8.458 3.19 1.106 0 2.184-.143 3.215-.413-.867 5.021.066 7.127.066 7.127s-4.541 1.813-10.07 0c-5.527-1.814-4.343-3.19-4.343-3.19s1.122-2.88 2.674-6.714" fill="#5F3A17"/><g transform="translate(74.684 .233)"><mask id="h" fill="#fff"><use xlink:href="#g"/></mask><path d="M10.168 14.23s6.435-7.275 0-13.96c0 0-5.447 9.634-9 9.634-3.554 0 7.34 2.556 9 4.325" fill="#A57447" mask="url(#h)"/></g><path d="M63.757 51.03s4 13.761 23.15 5.897c19.15-7.864 12.24-20.84 7.502-24.378 0 0-5.528-26.344-21.125-21.429-15.596 4.915-17.87 13.172-9.527 39.91" fill="#A57447"/><path d="M96.574 48.975c-.615-5.919-2.688-11.029-5.914-16.018-4.993-7.722-9.065-15.973-15.664-22.256 14.29-2.551 19.413 21.848 19.413 21.848 3.587 2.679 8.414 10.766 2.242 17.95a14.39 14.39 0 0 0-.077-1.524" fill="#875226"/><path d="M68.741 45.374c1.773-2.001 3.621-3.954 5.664-5.685.166-.141.406-.332.633-.509.156-.108.31-.22.469-.325.95-.626 1.915-1.238 2.924-1.77.493-.26.989-.515 1.492-.755 1.45-.51 2.922-.975 4.413-1.348a57.039 57.039 0 0 1 3.214-.717c.644-.06 2.339-.254 2.889-.272 1.598-.053 3.203-.063 4.798.075.146.013.34.037.546.065l.372.069c4.272 4.92 7.61 15.803-9.248 22.725-17.547 7.205-22.373-3.743-23.059-5.628 1.586-2.012 3.194-4.008 4.893-5.925" fill="#B48965"/><path d="M86.35 54.153c4.04-3.09 8.017-6.355 10.244-11.077a25.055 25.055 0 0 0 1.828-5.343c2.533 5.528 2.02 13.636-11.515 19.194-4.662 1.914-8.423 2.545-11.448 2.405 3.872-.983 7.564-2.635 10.89-5.179" fill="#B08156"/><path d="M62.831 15.303c-.179-.815 4.343-11.156 16.235-6.717 11.504 4.293 12.48 3.531 12.48 3.531s-8.053 2.064-9.62.917c0 0 5.106 5.156 8.488 4.486 0 0-8.553 3.149-10.227 1.575 0 0 3.466 3.898 5.159 4.469 0 0-20.195 2.31-22.515-8.26" fill="#D4B899"/><path d="M62.828 15.215c.016-.261.218-.865.624-1.626 4.634 4.767 11.122 8.56 17.951 10.185-5.702.067-15.828-.786-18.25-7.393a11.868 11.868 0 0 0-.325-1.166" fill="#CBA782"/><path d="M63.848 17.196s-1-8.626-11.866-6.648c0 0 .243 7.337 5.671 10.389 5.428 3.052 6.195-3.74 6.195-3.74" fill="#A57447"/><path d="M61.068 16.553s-.57-4.92-6.767-3.792c0 0 .138 4.184 3.234 5.925 3.096 1.74 3.533-2.133 3.533-2.133" fill="#D4B899"/><path d="M79.337 51.275c.255-2.413-1.594-4.318-4.017-4.255.574.382 1.148.572 1.403 1.334.191.572-.064 1.27.064 1.905.127.889 2.423 2.794 2.55 1.016m14.186-5.267c-1.05-1.658-.391-3.695 1.387-4.51-.279.48-.627.823-.539 1.465.066.482.501.897.637 1.403.225.689-.757 2.885-1.485 1.642" fill="#875226"/><path d="M85.746 30.78c.79 1.13 1.94 1.691 2.568 1.255.629-.436.496-1.706-.295-2.834-.79-1.128-1.94-1.69-2.568-1.253-.628.436-.496 1.704.295 2.833" fill="#313331"/><path d="M87.863 27.889a.79.79 0 0 0-1.096-.195.781.781 0 0 0-.195 1.091.79.79 0 0 0 1.096.195.782.782 0 0 0 .195-1.091" fill="#FFF"/><path d="M73.356 33.645c-.21 1.36-.994 2.37-1.75 2.253-.758-.116-1.2-1.313-.99-2.673.21-1.36.994-2.369 1.751-2.252.757.116 1.2 1.313.99 2.672" fill="#313331"/><path d="M70.176 31.978a.787.787 0 0 1 1.556.239.787.787 0 0 1-1.556-.239" fill="#FFF"/></g></svg>