<svg width="120" height="120" viewBox="0 0 120 120" xmlns="http://www.w3.org/2000/svg"><g fill="none" fill-rule="evenodd"><path d="M81.113 48.006a1.594 1.594 0 1 0 .012 3.187 1.594 1.594 0 0 0-.012-3.187" fill="#FEFEFE"/><path d="M1.997 88.105c-.484 2.096.369 3.322 9.187 3.693 0 0-1.588-3.81 2.82-5.288 0 0 0-1.932-2.204-2.11v.014s2.204 1.24-1.837 2.215c-4.012.974-7.657 1.106-7.246.383-.366.34-.632.694-.72 1.093" fill="#B4B5B5"/><path d="M2.718 87.012c-.412.723 3.234.591 7.246-.383 4.04-.974 1.837-2.215 1.837-2.215v-.015a4.496 4.496 0 0 0-.986.015c-2.587.296-6.45 1.166-8.082 2.583 0 0 0 .015-.015.015" fill="#C8C9C9"/><path d="M38.946 96.993c1.528-2.54 1.749-5.433 1.749-5.433 5.276 1.476 14.213 1.963 14.213 1.963l.618.99c3.423 5.655 7.583 9.714 7.583 9.714 4.409 1.729 8.818-1.226 8.818-1.226 1.719-2.833 1.719-8.857 1.719-8.857 5.027-.62 10.17-1.729 10.17-1.729l5.748 7.385c4.659.855 6.011-1.846 6.011-1.846.75-6.897-1.13-14.544-1.617-16.331-3.835.974-9.157 1.92-14.388 1.552-.34-.03-.693-.06-1.03-.105-10.023-1.093-22.941-3.144-29.144-16.121-.045-.046-.06-.088-.087-.149-1.912-3.263-3.866-9.744-3.41-18.794-31.762-1.078-29.204 37.649-29.204 37.649l-2.69.855c-4.41 1.478-2.82 5.288-2.82 5.288s9.552 6.524 19.105 8.62c4.63 1.004 7.216-1.048 8.656-3.425" fill="#CEEAFA"/><path d="M40.695 91.56s-.22 2.893-1.748 5.433c15.608 2.642 16.58-2.48 16.58-2.48l-.619-.99s-8.937-.487-14.213-1.963" fill="#B8DAEC"/><path d="M45.898 48.006c-.455 9.05 1.499 15.531 3.41 18.794.028.06.043.104.088.148l5.717-8.845.413-.633s-7.599-4.667-4.044-10.574c3.543-5.905 8.085-2.345 8.82 1.965.734 4.312 3.056 3.322 3.791-1.359.735-4.665 2.322-7.87 4.043-9.595 0 0 11.508-4.665 25.469 2.346 0 0-.117-3.572-2.572-5.535 0 0 12.743-.62 21.444 9.595 0 0 1.101-3.203-.25-6.156 0 0 3.969 1.787 6.393 6.6.219.4.412.828.587 1.27 0 0 4.66-21.526-18.74-31.861C77.072 3.83 61.64 16.129 59.685 24.012c0 0-10.406 2.953-12.861 16.241a57.616 57.616 0 0 0-.925 7.753" fill="#B18247"/><path d="M55.112 58.103l-5.715 8.846c6.201 12.977 19.12 15.028 29.142 16.12.338.048.691.076 1.03.106 1-2.894 2.91-13.866-3.601-20.286-6.613-6.526-20.692-4.682-20.692-4.682l-.164-.104z" fill="#FEEFC2"/><path d="M101.938 44.92s2.69-4.798 7.349-.976c0 0-3.556-1.476-7.35.976m-.116 6.156c0-2.584 2.073-4.68 4.644-4.68 2.572 0 4.66 2.096 4.66 4.68 0 2.583-2.088 4.68-4.66 4.68-2.571 0-4.644-2.097-4.644-4.68m-9.686 25.1c-6.363-.12-7.464-4.547-7.216-9.11.235-4.546 3.675-8.357 9.053-8.24 4.982.107 6.41 3.694 6.584 4.24 1.294.027 2.588.294 3.587 1.047 2.94 2.215 2.572 7.264-.984 8.859-1.088.488-2.368.664-3.645.59-.41.664-2.058 2.718-7.379 2.614m-8.45-31.256c-2.807-2.452-6.848-1.714-6.848-1.714 5.51-2.835 6.848 1.714 6.848 1.714m-8.32 6.156c0-2.584 2.073-4.68 4.647-4.68 2.57 0 4.659 2.096 4.659 4.68 0 2.583-2.089 4.68-4.66 4.68-2.573 0-4.645-2.097-4.645-4.68m18.592 30.547c3.41-.871 5.658-1.756 5.658-1.756 2.293-.488 4.278-1.122 5.998-1.83-.264-18.235 12.242-20.066 12.373-20.066h.09c-.118-3.292-.456-6.302-.456-7.516 0-2.11.734-4.783.998-5.698-2.424-4.814-6.392-6.6-6.392-6.6 1.352 2.952.25 6.157.25 6.157-8.7-10.218-21.445-9.597-21.445-9.597 2.456 1.963 2.572 5.537 2.572 5.537-13.96-7.013-25.469-2.347-25.469-2.347-1.719 1.726-3.308 4.93-4.043 9.596-.734 4.68-3.056 5.67-3.79 1.359-.736-4.312-5.278-7.87-8.82-1.965-3.556 5.907 4.043 10.573 4.043 10.573l-.413.633.164.105s14.079-1.846 20.692 4.68c6.51 6.421 4.6 17.393 3.601 20.286 5.233.37 10.554-.577 14.389-1.55" fill="#FEEFC2"/><path d="M63.11 104.228c-3.309 2.835-1.103 5.536 1.233 5.905 2.322.37 5.013-1.107 6.114-2.834 1.103-1.712 2.94-.857 4.409-1.846 1.47-.974-2.94-2.452-2.94-2.452s-4.408 2.956-8.817 1.227" fill="#FCE2AE"/><path d="M79.525 49.6a1.594 1.594 0 1 1 3.19 0 1.595 1.595 0 1 1-3.19 0m.486-3.204c-2.573 0-4.644 2.096-4.644 4.68 0 2.583 2.07 4.68 4.644 4.68 2.572 0 4.66-2.097 4.66-4.68 0-2.584-2.088-4.68-4.66-4.68" fill="#3F3A3A"/><path d="M76.836 43.206s4.041-.738 6.85 1.714c0 0-1.34-4.548-6.85-1.714" fill="#B18247"/><path d="M84.919 67.066c-.248 4.563.853 8.992 7.216 9.11 5.32.104 6.968-1.949 7.378-2.614-2.894-.176-5.863-1.593-6.877-3.292-1.47-2.466-.986-5.418 2.938-6.394 0 0 2.47-.87 4.984-.811-.177-.546-1.604-4.133-6.586-4.239-5.379-.117-8.816 3.693-9.053 8.24" fill="#CEEAFA"/><path d="M89.564 99.8s-1.706 2.7-.852 3.32c.852.622 2.822-1.475 4.408-.856 1.587.606 3.306 2.215 5.878-.132 2.572-2.333.986-5.286-3.423-4.178 0 0-1.353 2.7-6.011 1.845" fill="#FCE2AE"/><path d="M100.557 63.065c-2.513-.059-4.982.811-4.982.811-3.924.976-4.409 3.928-2.94 6.394 1.014 1.7 3.983 3.116 6.878 3.292 1.28.074 2.559-.102 3.645-.59 3.558-1.594 3.924-6.644.986-8.858-.999-.753-2.293-1.02-3.587-1.05" fill="#CEEAFA"/><path d="M105.862 49.482c0-.886.707-1.61 1.588-1.61.88 0 1.587.724 1.587 1.61a1.586 1.586 0 1 1-3.175 0m.603-3.087c-2.572 0-4.644 2.098-4.644 4.682 0 2.582 2.072 4.68 4.644 4.68s4.66-2.098 4.66-4.68c0-2.584-2.088-4.682-4.66-4.682" fill="#3F3A3A"/><path d="M109.288 43.944c-4.66-3.823-7.35.976-7.35.976 3.793-2.452 7.35-.976 7.35-.976" fill="#B18247"/><path d="M117.988 57.97c-.132 0-12.64 1.832-12.375 20.066 6.438-2.718 9.214-6.777 11.14-9.981 1.308-2.17 1.472-6.32 1.324-10.084h-.09z" fill="#FEEFC2"/><path d="M107.45 47.872c-.882 0-1.587.724-1.587 1.61a1.586 1.586 0 1 0 3.175 0c0-.886-.707-1.61-1.588-1.61" fill="#FEFEFE"/><path d="M68.748 24.132c16.269-2.582 23.91-8.377 26.872-11.822a52.285 52.285 0 0 1 4.849 1.855c7.286 3.218 11.85 7.522 14.68 11.922-16.796 4.626-46.4-1.955-46.4-1.955" fill="#DA974C"/><path d="M112.822 40.297a7.358 7.358 0 0 0-.595-2.14s2.377 1.08 4.574 3.795l-3.979-1.655zm-.345 4.016s-10.807-6.791-20.053-7.97a5.967 5.967 0 0 0-1.392-1.626s12.745-.62 21.445 9.596" fill="#FCE2AE"/><path d="M84.919 67.066c.237-4.547 3.674-8.357 9.053-8.24 4.982.106 6.409 3.693 6.586 4.239-1.564-.038-3.107.287-4.053.534-3.47-5.216-8.953-1.876-10.365 2.858-1.47 4.92 4.163 6.643 4.652 1.967.22-2.085 1.46-3.139 2.768-3.67-1.994 1.34-2.083 3.571-.924 5.516 1.014 1.7 3.983 3.116 6.877 3.292-.41.665-2.057 2.718-7.378 2.613-6.363-.117-7.464-4.546-7.216-9.11" fill="#C2DDEC"/><path d="M104.266 66.948s-.98-2.461-3.921-2.461c-2.939 0-5.144 1.23-5.144 2.215 0 .984 2.942 2.214 4.9 2.46 1.96.248 4.165-.984 4.165-2.214" fill="#FEFEFE"/><path d="M74.87 86.633c-9.554-.492-21.799-5.411-28.66-15.256-6.67-9.573-11.5-18.647-21.001-15.286 4.349-4.948 10.877-8.42 20.69-8.085-.456 9.05 1.498 15.53 3.408 18.794.03.06.044.104.09.148 6.2 12.979 19.12 15.03 29.143 16.12.338.048.69.076 1.029.107 5.233.37 10.553-.578 14.39-1.551v.007c-3.085 1.567-11.468 5.393-19.088 5.002" fill="#B8DAEC"/><path d="M53.438 74.514C48.995 69.578 36 54.09 45.86 48.093c-.804.49.534 8.445.696 9.518.477 3.19 1.304 6.339 2.68 9.261 2.932 6.22 8.15 10.618 14.53 12.979 3.78 1.403 7.933 2.364 11.929 2.88-8.214-.37-16.977-2.349-22.257-8.217" fill="#A7C7D7"/></g></svg>