<svg width="120" height="120" viewBox="0 0 120 120" xmlns="http://www.w3.org/2000/svg" xmlns:xlink="http://www.w3.org/1999/xlink"><defs><path id="a" d="M.237.08h8.817V120H.237z"/><path d="M.237 120c.015-2.432.262-4.873.27-7.293.017-4.128-.143-8.256-.071-12.385.142-8.235 1.297-16.46 1.568-24.7.276-8.278.303-16.564.236-24.845-.129-16.438-.627-32.903.684-49.33C3.04.037 9.142-.419 9.054.73c-.663 8.266-.8 16.569-.898 24.844-.192 16.609.555 33.217-.045 49.826-.298 8.237-1.484 16.466-1.555 24.7-.036 4.13.12 8.257.075 12.386-.028 2.495-.292 5.01-.26 7.515H.236" id="c"/><path id="e" d="M.008.198h20.746v109.309H.008z"/><path d="M6.541 109.507H.088c.953-5.8 1.66-11.622 2.334-17.43C4.2 76.802 4.992 61.487 7.2 46.23c1.093-7.566 3.124-15.083 3.982-22.658.431-3.797.658-7.603 1.098-11.4.418-3.604 1.453-7.228.924-10.856-.177-1.244 6.338-1.564 6.512-.38.55 3.778-.574 7.556-.978 11.312-.41 3.798-.636 7.604-1.098 11.4-.929 7.57-2.929 15.086-3.996 22.655-1.075 7.606-1.888 15.23-2.604 22.852-1.269 13.454-2.235 26.942-4.499 40.35" id="g"/></defs><g fill="none" fill-rule="evenodd"><g transform="translate(46)"><mask id="b" fill="#fff"><use xlink:href="#a"/></mask><path d="M6.813 124.274c-.853-3.9-.226-7.87-.182-11.79.045-4.128-.111-8.256-.075-12.384.07-8.235 1.257-16.464 1.555-24.701.6-16.61-.147-33.217.045-49.826.097-8.275.235-16.578.897-24.844.09-1.148-6.013-.692-6.129.718-1.31 16.427-.813 32.892-.684 49.33.067 8.28.04 16.567-.236 24.846-.27 8.238-1.426 16.464-1.568 24.7-.072 4.128.088 8.256.07 12.384-.013 4.083-.706 8.223.183 12.285.28 1.272 6.418.62 6.124-.718" fill="#3CA479" mask="url(#b)"/></g><g transform="translate(46)"><mask id="d" fill="#fff"><use xlink:href="#c"/></mask><path d="M-.151 12.905c5.347.267 10.493-.717 15.755-1.087 1.036-.073-1.217-1.82-2.43-1.735-5.072.358-10.05 1.33-15.2 1.073-1.534-.076.8 1.696 1.875 1.75" fill="#297958" mask="url(#d)"/><path d="M-2.516 21.297c5.73-.257 11.476-.245 17.2-.502.592-.027-.346-2.216-1.48-2.165-5.724.257-11.47.246-17.195.503-.596.027.342 2.215 1.475 2.164" fill="#278F71" mask="url(#d)"/><path d="M.44 29.298c4.742-.656 9.662-.594 14.493-.456.836.024 1.103-.439.671-.814-.542-.478-1.52-.714-2.444-.741-5.093-.146-10.231-.166-15.227.525-.902.124-.457.723-.03.975.64.38 1.64.635 2.537.511M-1.022 4.925c4.742-.656 9.666-.595 14.498-.457.835.024 1.097-.438.67-.813-.546-.478-1.52-.715-2.444-.741-5.093-.146-10.23-.166-15.23.525-.899.124-.454.723-.028.975.636.38 1.64.635 2.534.51" fill="#95B757" mask="url(#d)"/><path d="M-.556 59.491c4.743-.655 9.667-.594 14.494-.456.84.024 1.102-.438.675-.813-.546-.48-1.52-.715-2.449-.742-5.088-.146-10.23-.165-15.226.525-.898.125-.458.723-.031.976.64.379 1.644.634 2.537.51M.262 38.87c4.938-.333 9.8-.951 14.738-1.284.742-.05-.413-.837-.538-.91-.538-.31-1.378-.712-2.173-.659-4.933.333-9.8.951-14.733 1.284-.747.05.408.837.537.91.534.31 1.374.712 2.17.659m-.427 10.74c3.542-.527 7.088-1.042 10.675-1.44.88-.096 1.885-.449 2.093-1.02.196-.534-.697-.804-1.457-.72-3.903.43-7.756 1-11.61 1.573-2.044.304-2.168 1.973.299 1.607m-3.027 38.386c4.609.276 9.249.297 13.853.606.894.06 1.854.04 2.734-.08.644-.09.653-.248-.027-.293-4.605-.309-9.24-.33-13.853-.606a14.148 14.148 0 0 0-2.73.081c-.644.088-.657.251.023.292" fill="#297958" mask="url(#d)"/><path d="M-.684 69.102c5.075-.494 10.084-1.224 15.248-1.251.987-.006-.982-1.855-2.186-1.848-5.165.027-10.178.757-15.25 1.251-1.115.109 1.023 1.961 2.188 1.848" fill="#278F71" mask="url(#d)"/><path d="M-2.209 78.07c5.573.125 10.947-.99 16.507-1.017.924-.004-.596-2.05-1.622-2.045-5.56.028-10.934 1.142-16.507 1.017-.88-.02.573 2.021 1.622 2.045" fill="#95B757" mask="url(#d)"/><path d="M-1.396 96.814c6.05 1.165 12.57.671 18.81.696.773.003 1.595-.285 2.24-.515.048-.018 1.43-.633.977-.635-6.24-.024-12.76.47-18.809-.695-.933-.18-3.36 1.122-3.218 1.15" fill="#278F71" mask="url(#d)"/><path d="M-1.338 108.527c5.85.254 11.6-.797 17.267-1.51 2.147-.27.458-2.372-1.533-2.122-5.41.68-10.84 1.665-16.418 1.423-2.316-.1-1.32 2.122.684 2.21" fill="#95B757" mask="url(#d)"/><path d="M-3.693 117.381c5.306.977 10.644-.195 15.64-1.29 2.209-.483.07-2.372-1.858-1.95-3.938.863-8.667 2.098-12.893 1.32-2.396-.441-3.12 1.51-.89 1.92" fill="#297958" mask="url(#d)"/></g><g transform="translate(53.111 10.493)"><mask id="f" fill="#fff"><use xlink:href="#e"/></mask><path d="M14.093 1.317c.53 3.628-.506 7.252-.924 10.857-.44 3.796-.667 7.602-1.098 11.4-.858 7.574-2.889 15.091-3.982 22.657-2.209 15.255-3 30.571-4.778 45.846-.884 7.61-1.822 15.244-3.298 22.819-.209 1.053 6.254.912 6.507-.38 2.938-15.056 3.982-30.23 5.409-45.36.715-7.623 1.529-15.246 2.604-22.852C15.6 38.735 17.6 31.22 18.53 23.648c.462-3.795.689-7.601 1.098-11.399.404-3.756 1.529-7.534.977-11.312-.173-1.184-6.688-.864-6.51.38" fill="#3CA479" mask="url(#f)"/></g><g transform="translate(54 10.493)"><mask id="h" fill="#fff"><use xlink:href="#g"/></mask><path d="M9.956 104.113c-5.6-.49-11.103.18-16.676.28-1.089.02 1.111 1.73 2.391 1.706 5.369-.096 10.693-.762 16.089-.29 1.604.14-.68-1.597-1.804-1.696" fill="#297958" mask="url(#h)"/><path d="M13.236 96.5c-6.045-.026-12.085-.3-18.13-.325-.63-.003.147 2.054 1.347 2.06 6.045.024 12.085.298 18.13.323.63.003-.152-2.054-1.347-2.059" fill="#278F71" mask="url(#h)"/><path d="M10.889 89.002c-5.045.387-10.218.105-15.285-.243-.875-.06-1.2.352-.782.717.53.466 1.53.728 2.502.794 5.338.368 10.743.621 16.063.214.955-.073.546-.644.124-.896-.635-.378-1.667-.659-2.622-.586" fill="#95B757" mask="url(#h)"/><path d="M14.804 61.265c-5.048.386-10.222.105-15.288-.244-.872-.06-1.196.353-.783.718.53.465 1.53.728 2.503.794 5.342.368 10.742.62 16.062.214.955-.073.55-.645.124-.896-.635-.378-1.662-.66-2.618-.586m-2.817 18.938c-5.223.08-10.4.426-15.618.507-.787.012.355.79.48.861.533.31 1.373.719 2.218.706 5.222-.08 10.395-.427 15.617-.507.787-.012-.355-.79-.48-.862-.533-.31-1.377-.718-2.217-.705m1.466-9.863c-3.773.322-7.55.634-11.36.835-.937.049-2.022.327-2.297.843-.258.483.653.772 1.462.73 4.142-.218 8.249-.566 12.355-.917 2.178-.185 2.467-1.715-.16-1.49m6.827-35.185c-4.818-.464-9.693-.696-14.507-1.19a16.56 16.56 0 0 0-2.88-.052c-.689.053-.71.198-.004.27 4.813.496 9.689.727 14.511 1.192.942.09 1.938.122 2.88.05.68-.052.716-.201 0-.27" fill="#297958" mask="url(#h)"/><path d="M15.853 52.427c-5.382.223-10.724.665-16.155.454-1.036-.04.858 1.751 2.124 1.8 5.431.212 10.774-.23 16.156-.453 1.186-.05-.894-1.852-2.125-1.8" fill="#278F71" mask="url(#h)"/><path d="M18.307 44.245c-5.845-.37-11.605.41-17.454.18-.973-.038.431 1.914 1.511 1.956 5.85.23 11.61-.55 17.454-.18.924.059-.41-1.886-1.511-1.956" fill="#95B757" mask="url(#h)"/><path d="M19.231 26.96C12.982 25.611 6.08 25.768-.48 25.46c-.813-.039-1.707.19-2.404.372-.058.014-1.57.517-1.09.539 6.56.308 13.463.152 19.716 1.501.965.208 3.636-.88 3.49-.91" fill="#278F71" mask="url(#h)"/><path d="M20.28 16.18c-6.124-.5-12.271.202-18.298.599-2.28.15-.706 2.162 1.414 2.023 5.75-.378 11.555-1.036 17.4-.559 2.422.199 1.586-1.892-.516-2.063" fill="#95B757" mask="url(#h)"/><path d="M23.604 8.14C18.116 7 12.391 7.834 7.031 8.61c-2.369.345-.302 2.182 1.773 1.88 4.223-.612 9.307-1.533 13.68-.623 2.476.515 3.427-1.246 1.12-1.726" fill="#297958" mask="url(#h)"/></g></g></svg>