<svg width="119" height="135" viewBox="-1 -1 119 135" xmlns="http://www.w3.org/2000/svg"><path fill="#FFF" d="M80.774 90.836h-8.931l-5.92-.802-14.549-4.306-3.01-1.302-3.713-1.903-5.217-5.308-3.613-5.642-2.307-7.978.903-7.166 1.304-8.057 7.024-8.312 6.522-5.007 6.221-2.504 8.228-2.504 6.422-.501h10.199l9.367 1.402 9.633 3.105 7.425 4.507 6.823 8.713 1.806 4.907 1.405 7.658-1.004 6.063-2.107 5.674-4.314 6.744-6.121 5.008-7.526 4.406s-7.424 2.203-7.826 2.404c-.402.2-7.124.701-7.124.701z"/><path fill="#EF463C" d="M75.155 2.404l-3.211-.902h-3.813l-3.412 1.603-1.103 2.203-.703 3.405.803 2.604 2.207 2.603 4.86 1.402s3.869-1.602 4.372-1.602c.502 0 3.512-4.106 3.512-4.106V6.009l-3.512-3.605z"/><path fill="#FCB322" d="M106.06 48.974h-4.515l-5.92.901-5.72 1.202-7.726-2.103-7.024-.702-6.321.801-7.526 2.003-2.262 1.502-2.454-.801-13.446-.6-2.006 2.203v5.022l2.006 14.207s1.004 1.903 1.305 2.003c.301.1 9.031-6.51 9.031-6.51l1.404 4.607 2.509 5.007 6.823 7.312 5.118 3.405 1.906 2.003-2.809-.101-4.616.101-4.771.4-14.494.601-6.221-2.604-3.914-2.604-7.024 2.805-9.331-3.406-6.924.101-5.016.801-3.111 3.505s-1.104 3.104-1.204 3.605c-.101.501 0 3.405 0 3.405h3.812l5.72-3.405 4.716-1.001 4.816.701 3.311 1.802-2.006 5.208.401 7.011 2.509 6.309 3.311 6.109-.903 1.904s-.502 1.602-.502 1.902c0 .301.502 3.506.502 3.506l2.408 3.705 4.515 2.003 4.917-2.103 4.014 1.602 5.318-1.301 2.81-2.504-.101-4.407-3.211-4.707-2.006-3.705 1.606-5.809 4.414.501 14.667-1.402 5.583 10.215-1.637 3.805 1.054 3.506s1.305 2.604 1.706 2.904c.401.301 5.116 1.603 5.116 1.603l3.613-1.002 2.321-.2 3.599.4 3.913-1.402 2.308-4.306-.1-3.305-2.709-4.407-3.311-4.506 1.906-.801.903-6.11-.201-9.013-.602-5.509-.702-1.702 3.311-3.205 4.415-6.009 3.211-8.347.903-5.573 3.913 3.705 4.014.4 1.003-2.002-1.906-15.123-1.305-3.005-1.104-1.001z"/><path fill="#71CBD2" d="M55.087 76.715H36.524l-3.01 4.407.602 4.407 4.315 3.805 7.024 2.103-1.154 3.706v4.707l2.458 7.211 1.806 2.704 12.743-.501-2.709-4.607-1.304-4.606v-9.014l13.488-1.084-.645-1.72-8.729-5.608-4.817-5.208-1.505-.702"/><path fill="#2A3D98" d="M91.528 90.844c.245 2.035.606 4.283.763 6.545.136 1.955.136 3.931.022 5.888-.17 2.917-.458 5.828-.779 8.733-.059.54-.505 1.036-.849 1.699 1.017 1.408 2.19 2.924 3.246 4.519 1.586 2.395 2.152 5.047 1.431 7.847-.868 3.37-3.414 4.918-6.48 5.497-1.16.219-2.51.181-3.608-.205-1.465-.514-2.455.383-3.622.713-3.174.897-6.063.458-8.49-1.807-.736-.687-1.096-1.771-1.64-2.667-1.518-2.504-1.273-5.217-1.027-7.957.066-.737-.117-1.567-.421-2.251-.866-1.962-1.88-3.854-2.776-5.802-.435-.945-.774-1.441-2.11-1.307-5.172.519-10.381.824-15.563 1.109-.206.012-.943-.126-1.117.015-.22.181-.331.994-.481 1.298-.23.466-.426.887-.599 1.373-.275.776-.227.952.29 1.677 1.645 2.304 3.609 4.588 4.921 7.178 1.055 2.078.696 4.5-.322 6.712-1.02 2.218-2.97 3.112-5.14 3.695-2.696.725-5.918.793-8.018-1.419.405.427-2.977 1.862-3.293 1.905-1.29.178-2.731-.117-3.923-.599-2.435-.983-4.603-3.07-5.263-5.659-.657-2.58-.786-5.091.143-7.689.238-.666-.46-1.835-.998-2.578-1.993-2.747-3.201-5.881-3.979-9.076-.905-3.715-.784-7.552.588-11.237.508-1.366.232-1.886-1.174-2.423-3.396-1.297-6.76-.815-10.026.356-1.701.608-3.176 1.847-4.878 2.451-1.274.45-2.818.664-4.113.388C.947 97.488.655 95.925.488 94.729c-.377-2.696 1.058-4.774 2.723-6.659 2.52-2.851 5.83-3.771 9.525-3.609 2.102.092 4.237-.007 6.296.342 1.794.304 3.51 1.093 5.243 1.712 1.088.389 2.132.906 3.229 1.262.361.116.877.007 1.237-.17 1.275-.624 2.536-1.286 3.745-2.026.257-.158.473-.793.363-1.07-1.214-3.047.065-7.006 2.888-8.755.108-.067.201-.158.182-.142-.868-2.132-1.88-4.16-2.521-6.298-1.153-3.846-1.473-7.799-1.002-11.785.138-1.163.32-2.312.668-3.445.824-2.692 1.698-5.521 3.112-7.974 1.365-2.37 3.132-4.478 5.017-6.451 4.208-4.405 9.239-7.529 15.012-9.314 3.378-1.044 6.912-1.621 10.408-2.229 1.968-.342 3.999-.318 6.241-.475-.38-2.893-.76-5.756-1.128-8.62-.113-.872.112-2.066-.375-2.531-.493-.47-1.686-.153-2.554-.293-3.151-.508-5.646-2.049-6.907-5.045-.781-1.859-.045-3.787.374-5.655.586-2.594 2.408-4.257 4.765-4.875 2.743-.718 5.67-1.12 8.357.526 4.442 2.722 5.72 7.378 2.507 11.784-.496.68-1.151 1.214-1.819 1.719-.585.444-1.677 1.422-2.431 1.396-.074.423.251 1.087.32 1.555.085.588.111 1.187.188 1.769.149 1.125.087 2.303.422 3.396.33 1.071.527 2.173.739 3.271.088.452-.027 1.41.329 1.751.414.395 1.579.28 2.106.296.99.028 2.054-.016 3.023.172 1.628.316 3.25.544 4.881.878 1.202.247 2.426.43 3.595.801 1.911.604 3.832.698 5.722 1.456 2.704 1.086 5.454 2.4 8.036 3.752 1.931 1.011 3.701 2.304 5.326 3.75 1.748 1.555 3.091 3.202 4.594 4.974.514.608 1.066 1.383 1.394 2.108.692 1.526 1.768 3.093 2.079 4.76.316 1.698.647 3.456.887 5.184.276 1.998.507 4.063.305 6.052a31.214 31.214 0 0 1-4.621 13.517c-.854 1.366-1.986 2.581-3.109 3.75-1.474 1.535-2.941 3.121-4.635 4.383-1.947 1.45-4.085 2.679-6.242 3.806-2.307 1.204-4.734 2.181-7.454 3.414zm-.569-2.503c2.755-1.043 5.681-1.981 8.127-3.639 1.542-1.044 3.116-2.065 4.521-3.278 2.224-1.92 4.694-3.718 6.386-6.054 2.885-3.98 4.453-8.58 4.974-13.557.426-4.061-.434-7.859-1.666-11.621-.863-2.637-2.265-4.851-4.168-6.828-.982-1.019-1.848-2.154-2.898-3.08-.853-.753-1.693-1.512-2.684-2.086-1.507-.872-2.934-1.974-4.498-2.703-2.358-1.097-4.653-2.213-7.161-2.967-1.654-.498-3.37-.852-5.043-1.279-1.661-.425-3.408-.33-5.103-.476a116.341 116.341 0 0 0-5.809-.357c-2.99-.106-5.99-.038-8.98.086-1.273.052-2.555.355-3.791.697-3.172.875-6.421 1.587-9.451 2.821-4.794 1.953-8.674 5.196-12.189 9.047-2.372 2.599-3.929 5.451-5.186 8.703-.596 1.54-1.192 3.451-1.441 5.081a40.434 40.434 0 0 0-.252 2.098 25.54 25.54 0 0 0-.053 4.619c.264 3.065 1.622 5.995 2.906 8.731.518 1.105 1.17 2.373 1.876 3.358.925 1.291 1.969 2.591 3.289 3.479 1.353.909 2.452 2.181 3.875 3.035 1.618.972 3.362 1.711 5.084 2.476 2.023.9 4.059 1.805 6.165 2.476 2.278.727 4.637 1.22 6.976 1.742 1.257.281 2.548.41 3.825.607-1.454-1.143-2.983-1.914-4.321-2.934-2.566-1.957-5.302-3.763-7.05-6.596-.811-1.312-1.377-2.436-3.532-1.938-1.774.412-3.464.062-5.243.078-.883.009-2.669.355-3.128-.727-.821-1.936 3.098-1.54 3.964-1.586 1.751-.093 3.503-.176 5.167-.258l-1.711-5.35c-.379.271-.708.422-.917.671-1.656 1.979-3.826 3.233-6.128 4.259-.953.425-2.565.209-2.864-.651-.533-1.53-1.216-3.037-1.504-4.613-.478-2.619-.66-5.29-1.026-7.93-.42-3.04-.775-6.077.075-9.093.435-1.541 1.286-2.858 2.981-3.155 1.107-.195 2.277-.109 3.413-.041.892.054 1.771.293 2.662.415 2.416.332 4.832.657 7.25.975.714.094 1.414.325 2.132.377.839.061.84-.221 1.438-.71.945-.773 2.216-1.076 3.321-1.54.767-.323 1.471-.734 2.223-1.077 1.222-.556 2.756-.706 4.077-.915 2.437-.386 4.982-.418 7.451-.412 2.151.005 4.172.365 6.283.876 1.35.327 2.514.632 3.784 1.225 1.353.631 2.775 1.578 4.333 1.198 1.083-.263 2.119-.687 3.174-1.038a30.72 30.72 0 0 1 9.72-1.591c1.927-.007 3.034.815 3.709 2.32.711 1.584 1.388 3.253 1.66 4.95.658 4.107 1.118 8.246 1.549 12.384.091.877-.05 1.937-.487 2.677-1.091 1.852-3.151 2.361-5.073 1.283-1.261-.708-2.364-1.693-3.632-2.623 0 .336.008.577-.001.817-.082 2.341-.306 4.825-1.364 6.957-.474.957-.738 1.978-1.302 2.906-.589.97-1.33 1.838-1.939 2.793-.772 1.212-1.957 2.354-3.031 3.311-.652.582-1.286 1.188-1.969 1.733-.475.379-1.221 1.235-1.775 1.442zm-11.579-.09c2.396-.021 4.799-.351 7.051-1.189 1.763-.654 3.644-.964 5.256-2.013 1.449-.94 3.057-2.241 3.869-3.797.889-1.699 2.173-3.236 2.834-5.076 1.697-4.735 2.299-9.686-.263-14.261-1.386-2.474-3.251-4.649-5.334-6.563-1.048-.962-2.164-1.83-3.283-2.705-1.691-1.321-3.589-2.419-5.664-2.935-3.124-.777-6.074-.663-9.259-.663-1.648 0-3.244.484-4.875.567-1.461.075-2.737.837-4.14 1.253-1.353.401-2.859 1.224-3.963 2.102-.716.57-1.3 1.356-1.859 2.075a26.877 26.877 0 0 0-3.041 4.978c-1.248 2.625-.649 5.661-1.611 8.377-.082.23-.059.525-.002.771.248 1.054.449 2.129.809 3.145 1.442 4.091 3.656 7.612 7.103 10.409 2.105 1.708 4.467 3.11 6.894 4.213.817.371 1.673.422 2.536.633 2.247.543 4.402.681 6.738.681.068-.002.136-.002.204-.002zm9.944 3.627c.035-.218.077-.369.131-.388-2.549.968-5.488 1.153-8.188 1.161-3.601.013-7.182-.46-10.741-.964-1.467-.21-3.034-.639-4.508-.499-1.491.142-2.964.55-4.447.762-1.054.15-2.464-.157-3.081.418-.583.543-.353 1.969-.462 3.009-.363 3.479-.078 6.847 1.773 9.929.655 1.091 1.212 2.392 2.575 2.685.603.13 2.044.234 2.47-.366.395-.557-.074-1.762.197-2.474.594-1.564 1.776.38 2.045 1.002.65 1.508 1.3 3.025 1.994 4.513 1.651 3.537 3.761 6.791 6.02 9.979 2.645 3.734 5.925 6.572 10.175 8.275 2.127.853 5.136.023 6.918-1.869 1.281-1.361 1.721-4.444.576-6.297-1.732-2.804-3.658-5.491-5.582-8.171-1.25-1.74-2.752-3.276-3.881-5.106-1.331-2.159.291-2.835 1.448-4.404 1.35-1.831 2.397-3.866 3.267-5.961.414-.998.935-2.053 1.121-3.123.044-.245.078-1.469.18-2.111zm-54.847-4.227c-1.1.398-2.191.734-3.232 1.181-3.051 1.313-4.732 3.922-5.996 6.769-1.989 4.483-2.675 9.209-.801 13.839 1.323 3.267 3.124 6.38 5.03 9.36 1.418 2.217 3.357 4.101 5.044 6.15 1.687 2.047 3.291 3.651 5.602 5.022 2.638 1.565 5.059 1.493 7.878.363 1.937-.779 3.363-2.959 2.889-4.955-.379-1.588-1.034-3.248-2.02-4.528-2.452-3.183-5.156-6.172-7.784-9.218-.222-.257-.613-.448-.954-.511-1.132-.206-2.284-.301-3.415-.512-.921-.173-4.703-.435-4.381-1.915.324-1.483 4.813-.173 5.813-.062 1.244.139 2.493.262 3.744.309 1.435.052 2.875.012 4.504.012-2.764-5.361-3.339-10.866-2.102-16.714-3.941-.295-7.237-1.738-9.819-4.59zm23.277-34.796c-1.271-.062-2.402-.073-3.523-.18-2.562-.246-5.116-.715-7.679-.768-2.983-.062-3.938-.013-4.389 3.38a16.36 16.36 0 0 0-.089 3.153c.117 1.874.206 3.766.547 5.605.482 2.594 1.145 5.158 1.837 7.707.083.306 1.003.731 1.236.594a24.995 24.995 0 0 0 3.456-2.424c1.075-.909 2.065-1.932 2.994-2.991.409-.466.674-1.118.836-1.731.575-2.169.878-4.431 1.664-6.516.731-1.94 1.947-3.697 3.11-5.829zm34.647-.915c.845.708 1.537 1.279 2.219 1.859 2.982 2.538 4.957 5.761 6.697 9.232 1.213 2.419 3.111 4.456 5.674 5.578 1.615.708 2.441.019 2.269-1.757-.262-2.695-.787-5.371-.919-8.07a19.22 19.22 0 0 0-1.71-7.053c-.346-.765-1.363-1.711-2.092-1.727-1.955-.042-4.002-.619-5.904.398-.215.115-.505.081-.753.144-1.794.453-3.586.913-5.481 1.396zM63.895 8.483c-.079 1.907 1.282 3.803 2.957 4.689 2.556 1.352 5.059.315 7.436-.209 2.114-.467 3.095-2.671 3.246-4.692.13-1.761-.665-3.463-2.374-4.515-1.718-1.059-3.547-1.17-5.52-1.137-3.478.058-5.656 2.582-5.745 5.864zm-5.259 81.422l-.045-.167c-2.966-1.222-5.941-2.42-8.896-3.673-1.865-.791-3.911-1.374-5.496-2.56-2.405-1.795-4.478-4.033-6.802-6.185-.245.116-.774.201-1.02.511-2.913 3.662-1.891 7.064 1.225 9.636 2.537 2.095 5.7 2.665 8.942 2.633 2.575-.026 5.148-.14 7.723-.19 1.454-.028 2.912-.005 4.369-.005zm-32.752.157c-2.986-1.936-6.119-2.942-9.47-3.292-3.934-.411-7.765-.451-10.987 2.478-1.428 1.298-2.734 4.363-2.31 5.938.213.789.566 1.141 1.369.768.499-.232.976-.51 1.477-.733 1.455-.652 2.954-1.218 4.37-1.944 1.894-.971 3.947-1.054 5.984-1.321 2.229-.292 4.225.483 6.278 1.11.428.131 1.18.02 1.442-.28.695-.79 1.204-1.745 1.847-2.724zm2.956 31.867c-1.76 2.288-.135 6.21 2.052 8.219 1.544 1.418 3.976 1.603 5.604.568l-7.656-8.787zm17.537-20.553c-.536.409-.194 1.297.269 1.971.537.781 1.407 1.174 2.349 1.128 2.561-.126 5.156-.016 7.723-.016l-.832-3.263h-4.555c-1.403 0-3.169-.293-4.534 0a1.074 1.074 0 0 0-.42.18zm43.627-1.256c-.051-.384-.153-.71-.337-.914-.224.92-.995 1.911-1.404 2.816-.585 1.296-1.833 2.167-2.38 3.484-.59 1.423.437 2.004 1.027 3.169.252.5 1.38 3.088 2.225 2.099.621-.728.573-2.23.609-3.137.058-1.447.18-2.928.18-4.385 0-.711.216-2.125.08-3.132zm-17.327 21.057c-.624 2.9.726 6.952 2.621 8.083 1.317.787 4.405.924 5.62-.273-3.931-1.351-5.608-4.965-8.241-7.81zM45.771 97.663c-.019 1.473.281 1.88 1.146 1.827a261.86 261.86 0 0 1 7.568-.343c1.195-.037 1.351-.885 1.38-1.725.032-.979-.667-.895-1.424-.878-2.262.05-4.527.039-6.786-.055-1.39-.058-1.87.15-1.884 1.174zm13.019 10.854a.537.537 0 0 0 .058-.201c.027-.271-.448-.835-.628-1.017-.541-.548-1.255-.716-2.01-.649-.882.081-1.786-.133-2.681-.147-1.918-.028-3.886.032-5.798.121-.348 1.948 1.833 2.413 3.392 2.475 2.241.092 4.485.005 6.705-.307.438-.062.817-.009.962-.275zM46.139 94.306h9.898c.037-.637.079-1.375.106-1.872-2.661 0-5.222.004-7.784-.001-1.934-.004-1.934-.008-2.22 1.873zm-.542 16.982h-1.942l1.431 1.569.511-1.569z"/><path fill="#2A3D98" d="M77.776 64.664c-.5.112-.998.379-1.396.273-.557-.15-1.298-.465-1.492-.911-.287-.664.204-1.299.997-1.307 2.318-.02 4.633-1.485 6.969.048.851.559 1.057 1.135.388 1.856-.246.267-.775.363-1.177.368-.349.004-.699-.232-1.084-.377-.078 1.315.609 2.386 1.828 2.801 1.773.607 3.683.585 5.382-.241 1.987-.97 2.621-2.371 3.296-4.4.27-.808.464-1.564 1.44-1.053.162.487.581.749.766 1.278.66 1.885-1.209 3.886-2.545 5.027-1.662 1.424-3.897 2.452-6.13 2.23-1.876-.187-3.407-.815-4.656-1.374-1.143.845-2.023 1.657-3.044 2.214-2.059 1.125-5.128.048-7.033-1.028-1.292-.729-3.742-1.983-3.413-3.727.43-2.287 1.78-.01 2.542.668 1.482 1.318 3.399 1.805 5.3 2.175 2.66.52 4.08-2.105 3.062-4.52zm6.577-5.055a1.072 1.072 0 0 1-.579-.301c-.777-.739-.679-2.134.308-2.72 1.057-.627 2.057.742 1.825 1.667-.179.712-.854 1.457-1.554 1.354zm-10.29-1.211c.03.225-.013.463-.148.701-.709 1.248-3.234.854-3.128-.765.148-2.258 3.095-1.34 3.276.064z"/></svg>