<svg xmlns="http://www.w3.org/2000/svg" width="51.82" height="80.22" viewBox="0.732 0.089 51.82 80.22"><defs><style/></defs><g id="ID0.9262165585532784"><path id="ID0.7828148500993848" d="M290 356c6.046-1.517 9.333-1.026 11-1 .772.8 2.504.83 4 1-.643 22.321 1.524 32.901 3 52 5.663-.802 13.567.245 22-2 2.656 2.344-.739 10.739 2 13v6c-2.503 1.9-3.927-.83-7 1-.726 3.059 1.726 2.941 1 6-14.428 2.021-24.704-1.811-36 4-1 0-2.073.353-3 0-2.97-5.732-3.459-12.706-6-18-.701-22.624-.087-37.326-1-51-.056-3.146-.23-2.152 0-3 2.285-.23 4.795.364 7 0 .334-3.416.861-6.298 3-8zm0 3c-.119 20.28 1.907 51.04 4 67 10.024-2.643 22.658-2.675 34-4 .383-5.521.383-5.479 0-11-4.955-1-18.636 3.485-23-2-1.745-21.559-3.515-28.138-3-50-3.807-2.027-6.626.817-12 0z" transform="translate(-273.4 -347.25) scale(.97985)"/><path id="ID0.5740158627741039" fill="#FF9400" d="M302 359c-.515 21.862 1.255 28.441 3 50 4.364 5.485 18.045 1 23 2 .383 5.521.383 5.479 0 11-11.342 1.325-23.976 1.357-34 4-2.093-15.96-4.119-46.72-4-67 5.374.817 8.193-2.027 12 0z" transform="translate(-273.4 -347.25) scale(.97985)"/></g></svg>