<svg xmlns="http://www.w3.org/2000/svg" width="92.443" height="108.499" viewBox="1.345 0.195 92.443 108.499"><defs><style/></defs><g id="ID0.8323829737491906" transform="translate(.8 .05) scale(.85737)"><path id="R_Leg" fill="#FFC93E" stroke="#603813" stroke-width="1.548" d="M54.187 113.728c0-1.592.446-3.878 2.916-4.394 3.563-.748 7.64 2.86 8.75 3.922-.083.423 1.304 8.947 1.304 9.686 0 2.498-.668 2.597-.927 2.638-2.44.355-8.942-6.482-11.926-10.46a7.527 7.527 0 0 1-.117-1.392h0z"/><path id="Center_Leg" fill="#FFC93E" stroke="#603813" stroke-width="1.548" d="M44.307 125.672c-1.769-1.919-2.021-7.12-2.021-9.332 0-.938.048-1.563.05-1.582l.003-.048s-.005-.2-.005-.274c0-4.166 3.836-5.612 4.486-5.83 2.22.028 6.06 1.078 6.975 2.664.093.16.18.36.18.618 0 .226-.068.5-.26.83-.088.152-1.665 3.879-3 6.736l-.953 2.643c-.713 2.309-1.836 4.62-3.058 4.62-.965 0-1.75-.341-2.397-1.045h0z"/><path id="R_Arm" fill="#FFC93E" stroke="#603813" stroke-width="1.548" d="M94.333 95.47l-1.725-3.043c-1.889-3.29-4.07-6.301-5.995-8.952-2.474-3.415-4.627-6.948-5.34-9.444-.256-.9-.132-1.757.238-2.232.035-.127.408-.33.671-.385 3.17-.685 16.289 6.847 19.562 10.873 4.795 5.896 6.713 14.167 5.643 18.333-.438 1.703-1.42 2.909-2.84 3.483-3.632 1.467-6.02-1.18-10.214-8.633h0z"/><path id="Body" fill="#FFC93E" stroke="#603813" stroke-width="1.548" stroke-linecap="round" stroke-linejoin="round" d="M42.69 37.345c4.657-2.53-.15-12.06-4.8-21.28-2.542-5.04-7.075-13.553-5.602-14.35 2.85-1.545 16.465 14.52 21.984 20.996l5.626 6.409s4.022 4.934 7.1 8.189c.054.056 2.965-.396 4.975-2.066 1.639-1.368 1.422-2.897 1.944-6.115.479-2.956.999-8.305 2.585-8.332 2.39-.036 3.96 9.812 4.572 13.46l.338 1.952c.803 4.34 4.989 17.386 5.168 17.94.058.134.152.31.152.31l.035.07.048.058c6.464 8.017 11.271 17.738 11.271 26.846 0 19.286-16.905 32.862-39.534 32.862-4.197 0-8.301-.589-12.2-1.745l-.21-.06s-6.12-.514-13.95 9.778c-1.571 2.066-1.431 3.992-3.645 3.399-.738-.198-1.28-.74-1.723-1.725-1.059-2.35-.277-7.915 1.016-11.471l.204-.559-.468-.37c-.114-.091-12.813-9.345-14.096-22.605-1.118-11.559 4.72-18.14 7.143-21.756l1.392-2.319c1.758-4.275-1.55-10.22-4.468-15.467-1.743-3.132-4.556-7.703-3.92-8.777.705-1.19 3.224.077 5.768 1.29 2.063.986 4.048 2.379 5.426 1.46 1.433-.954.493-3.35-.81-6.667-1.224-3.116-3.543-8.037-2.653-10.068.246-.559.676-.951 1.316-1.2 2.366-.916 5.749 3.07 8.487 6.188 3.34 3.806 7.13 8.119 11.528 5.724h0z"/><g id="L_Eye"><path id="White_1_" fill="#FFF" d="M65.386 106.419c0 4.495 3.647 8.14 8.145 8.14a8.141 8.141 0 0 0 8.143-8.14c0-4.498-3.646-8.148-8.143-8.148a8.149 8.149 0 0 0-8.145 8.148z" transform="translate(-4 .5) scale(.77378)"/><path id="Pupil_1_" fill="#603813" d="M74.627 100.467a5.71 5.71 0 0 1 4.051 1.68 5.71 5.71 0 0 1 1.68 4.051 5.71 5.71 0 0 1-1.68 4.051 5.71 5.71 0 0 1-4.051 1.68 5.71 5.71 0 0 1-4.051-1.68 5.71 5.71 0 0 1-1.68-4.051 5.71 5.71 0 0 1 1.68-4.051 5.71 5.71 0 0 1 4.051-1.68z" transform="translate(-4 .5) scale(.77378)"/></g><g id="R_Eye"><path id="White" fill="#FFF" d="M104.618 106.419c0 4.495 3.646 8.14 8.146 8.14 4.495 0 8.143-3.645 8.143-8.14 0-4.498-3.646-8.148-8.143-8.148a8.149 8.149 0 0 0-8.146 8.148z" transform="translate(-4 .5) scale(.77378)"/><path id="Pupil" fill="#603813" d="M108.127 106.198a5.728 5.728 0 0 0 5.73 5.729 5.729 5.729 0 1 0 0-11.46 5.73 5.73 0 0 0-5.73 5.731z" transform="translate(-4 .5) scale(.77378)"/></g><path id="L_Arm" fill="#FFC93E" stroke="#603813" stroke-width="1.548" d="M3.083 107.172c-1.291-.825-2.036-2.187-2.156-3.943-.291-4.296 3.108-12.074 8.898-16.994 3.954-3.36 18.23-8.365 21.22-7.113.247.103.578.37.588.504.28.532.243 1.397-.174 2.234-1.157 2.324-3.919 5.406-6.977 8.307-2.377 2.263-5.07 4.818-7.527 7.71l-2.253 2.669c-5.484 6.563-8.32 8.734-11.619 6.626h0z"/><path id="Mouth" fill="none" stroke="#603813" stroke-width="1.548" stroke-linecap="round" stroke-linejoin="round" d="M73.934 102.678s-5.736.004-9.753-3.438"/></g></svg>