<svg width="120" height="120" viewBox="0 0 120 120" xmlns="http://www.w3.org/2000/svg" xmlns:xlink="http://www.w3.org/1999/xlink"><defs><path id="a" d="M.251.324H13.33V14H.25z"/></defs><g fill="none" fill-rule="evenodd"><path d="M107.168 78.175a6.295 6.295 0 0 1 3.178 8.318 6.296 6.296 0 0 1-8.316 3.182L77.55 78.733a6.298 6.298 0 0 1 5.138-11.5l24.48 10.942z" fill="#EFD3AC"/><g transform="translate(102 84.642)"><mask id="b" fill="#fff"><use xlink:href="#a"/></mask><path d="M9.6.876a6.296 6.296 0 0 1 3.18 8.318l-.48 1.078a6.301 6.301 0 0 1-8.32 3.18A6.295 6.295 0 0 1 .802 5.134l.478-1.08A6.296 6.296 0 0 1 9.6.876" fill="#EFD3AC" mask="url(#b)"/></g><path d="M116.077 75.503a6.298 6.298 0 0 1 3.18 8.316l-.484 1.08a6.297 6.297 0 0 1-11.496-5.14l.48-1.078a6.299 6.299 0 0 1 8.32-3.178" fill="#EFD3AC"/><path d="M48.653 23.834c21.008 9.386 29.846 35.328 24.468 47.36-4.77 10.676-30.594 22.746-51.604 13.358C.511 75.162-4.139 56.78 3.353 40.01c7.496-16.764 24.294-25.566 45.3-16.176" fill="#D99232"/><path d="M55.829 84.532c4.59-1.126 9.764-2.642 14.392-2.842 6.484-.282 10.14-1.202 12.898-7.288 5.312-11.718-8.758-17.118-11.352-25.538" fill="#D99232"/><path d="M51.547 69.718c-7.868-3.7-16.514-3.61-23.06-10.034-11.488-11.274-6.968-26.35-1.17-39.312-10.83 1.684-19.244 9.08-23.964 19.638C-4.14 56.78.51 75.162 21.517 84.552c12.944 5.784 27.706 3.418 38.256-1.744-.618-5.496-2.832-10.552-8.226-13.09" fill="#A36E27"/><path d="M13.973 64.344c3.92 0 3.928-6.094 0-6.094-3.92 0-3.928 6.094 0 6.094m38.181-22.44c3.92 0 3.928-6.094 0-6.094-3.92 0-3.928 6.094 0 6.094m-.244 37.123c3.92 0 3.929-6.094 0-6.094-3.92 0-3.927 6.094 0 6.094M29.3 40.21c2.615 0 2.619-4.061 0-4.061-2.613 0-2.617 4.062 0 4.062m2.92 33.088c2.614 0 2.618-4.062 0-4.062-2.614 0-2.618 4.062 0 4.062M62.936 58.42c2.614 0 2.618-4.062 0-4.062-2.614 0-2.618 4.062 0 4.062M40.34 55.133c2.614 0 2.618-4.062 0-4.062-2.614 0-2.618 4.062 0 4.062M11.317 44.887c2.614 0 2.618-4.062 0-4.062-2.614 0-2.618 4.062 0 4.062" fill="#AF7F4A"/></g></svg>