<svg width="165" height="137" viewBox="0 0 165 137" xmlns="http://www.w3.org/2000/svg"><g fill="none"><path d="M71.747 14.946c-6.396 8.558-12.828 24.268 6.914 32.347 22.803 9.324 23.02-26.756 14.495-34.32-4.15-3.681-7.095-4.113-11.587-3.877-4.222.215-8.677 4.317-9.822 5.85z" fill="#BE0A3C"/><path d="M83.176 11.9c-8.569 0-9.413 9.919-9.111 11.157.852 3.478 2.13 7.64 5.773 9.145 3.033 1.254 7.095.355 9.292-2.057 1.957-2.148 4.25-8.386 3.5-11.241.156-.547-.888-7.005-9.454-7.005z" fill="#A0640A"/><path d="M90.528 27.19c3.74-.236 5.179-2.029 4.978-5.164-.285-4.456-4.576-.646-4.576-.646s-.803 4.947-.402 5.81zm-14.968 0c-3.737-.236-5.18-2.029-4.978-5.164.285-4.456 4.576-.662 4.576-.662s.803 4.963.401 5.826z" fill="#A0640A"/><path d="M83.566 24.522c.09-.038.176-.087.253-.147a3.68 3.68 0 0 0 .052-.44c.08-1.541.089-2.763-.767-3.865-1-.172-1.233 3.158-.984 4.46.467.172.98.169 1.446-.008z" fill="#824600"/><path d="M80.292 27.45c.269-1.23 4.74-1.05 5.552-.1.812.95-.876 1.78-1.98 1.709-1.796-.116-3.841-.38-3.572-1.61zm7.971-6.37c.98-.511.594 1.438.401 1.753-.892-.06-.739-1.178-.401-1.753zm-11.293-.184c.976-.507.59 1.442.401 1.757-.904-.075-.751-1.182-.402-1.757z" fill="#000"/><path d="M83.233 14.048l9.919 7.69s1.068-5.99-3.174-8.717c-4.242-2.727-6.745 1.027-6.745 1.027z" fill="#A0001E"/><path d="M73.21 22.941l16.905-10.67s-8.67-5.939-14.998.056C70.14 17.063 73.21 22.94 73.21 22.94z" fill="#BE0A3C"/><path d="M47.353 96.076c-1.354-.575-3.19 5.132-4.259 5.287-1.068.156 1.55-5.746 1.234-6.417-.402-.819-2.411 4.085-3.745 3.993-.217 0 3.162-8.526 8.292-19.595C56.508 62.863 64.977 45.4 67.082 41.31c2.106-4.09 4.77-4.174 4.77-4.174l5.957 7.404s-28.962 56.51-30.352 56.87c-1.39.36 1.25-4.76-.104-5.335z" fill="#A0640A"/><path d="M38.362 90.298c1.321.866 3.487-1.741 4.869-.943 1.382.799.269 3.25 3.354 3.195 3.086-.056 3.616-1.77 4.114-4.265.804-3.993-4.732-3.414-6.267-2.684-1.173.555-5.79 3.267-6.07 4.697z" fill="#824600"/><path d="M60.068 81.16c-1.057-1.17-9.642-5.554-11.189-5.219-1.546.336-2.812 3.782-3.013 5.935.964.658 9.208 5.027 10.976 5.191 1.768.164 4.283-4.736 3.226-5.906z" fill="#005A5A"/><path fill="#00A08C" d="M47.063 77.056l13.226 6.533-1.27 2.336L45.9 79.69z"/><path d="M121.238 95.257c1.33-.627 3.383 5.008 4.46 5.12 1.076.112-1.772-5.683-1.48-6.366.358-.834 2.552 3.994 3.894 3.834.213-.028-3.487-8.386-9.044-19.268-8.263-16.177-17.395-33.317-19.657-37.314-2.262-3.998-4.921-3.994-4.921-3.994l-5.673 7.624s31.107 55.384 32.521 55.692c1.414.307-1.43-4.709-.1-5.328z" fill="#A0640A"/><path d="M130 89.132c-1.29.918-3.551-1.598-4.905-.755-1.354.842-.14 3.258-3.214 3.314-3.074.056-3.692-1.629-4.275-4.105-.936-3.965 4.596-3.594 6.155-2.92 1.185.516 5.902 3.036 6.239 4.466z" fill="#824600"/><path d="M107.956 80.83c1.013-1.199 9.43-5.919 10.98-5.643 1.55.275 2.96 3.674 3.238 5.814-.936.699-9.007 5.375-10.767 5.59-1.76.216-4.46-4.556-3.45-5.762z" fill="#005A5A"/><path fill="#00A08C" d="M120.796 76.233l-12.968 7.028 1.358 2.288 12.871-6.728z"/><path d="M79.38 57.392L59.763 70.171s-.804 2.943.293 5.359c.98 2.14 3.716 3.846 6.179 3.103 8.324-2.504 10.626 6.533 24.313.327 4.821-2.192 6.902-6.856 13.146-5.335 2.695.66 4.981-.335 6.066-1.597a5.568 5.568 0 0 0 1.205-3.846L79.38 57.392z" fill="#005A5A"/><path fill="#000" d="M70.618 61.318h25.925v11.984H70.618z"/><path fill="#A0640A" d="M91.464 103.2l6.906-6.649-.036-25.538-11.036.456.948 25.458z"/><path fill="#000" d="M99.853 76.305l.173-10.986-14.242.367.257 10.619z"/><path fill="linen" d="M88.343 101.052l.594 16.596 9.622.839-.096-17.351-5.207-1.961z"/><path fill="#F0E6D2" d="M98.463 101.136l-.093-4.585-10.248.28.209 4.305z"/><path fill="#00A08C" d="M104.678 128.778l-6.645-.859-9.02.623.07 1.194 16.057.236z"/><path d="M103.485 127.488a27.57 27.57 0 0 1-3.576-.427l-1.205-12.527H88.62l.402 14.008 15.668.236a7.898 7.898 0 0 1-.402-1.046 3.252 3.252 0 0 0-.803-.244z" fill="#000"/><path fill="#00A08C" d="M91.135 121.422l4.447.012-.385-4.748-4.243-.084z"/><path fill="#005A5A" d="M100.078 117.52h-2.121v-.778h1.98z"/><path fill="#00A08C" d="M100.423 119.342h-2.466v-.783h2.326z"/><path fill="#005A5A" d="M100.773 121.159h-2.816v-.783h2.675z"/><path fill="#00A08C" d="M101.122 122.976h-3.165v-.783h3.025z"/><path fill="#005A5A" d="M101.472 124.793h-3.515v-.78h3.374z"/><path fill="#A0640A" d="M76.556 103.2l-6.906-6.649.036-25.538 11.036.456-.948 25.458z"/><path fill="#000" d="M68.167 76.305l-.173-10.986 14.246.367-.26 10.619z"/><path fill="linen" d="M79.677 101.052l-.594 16.596-9.622.839.092-17.351 5.21-1.961z"/><path fill="#F0E6D2" d="M69.553 101.136l.097-4.585 10.248.28-.209 4.305z"/><path fill="#00A08C" d="M63.342 128.778l6.645-.859 9.02.623-.069 1.194-16.054.236z"/><path d="M64.515 127.488a27.57 27.57 0 0 0 3.576-.427l1.205-12.527h10.1l-.402 14.008-15.668.236c.159-.339.293-.689.402-1.046.25-.114.515-.196.787-.244z" fill="#000"/><path fill="#00A08C" d="M76.885 121.422l-4.447.012.385-4.748 4.247-.084z"/><path fill="#005A5A" d="M67.942 117.52h2.121v-.778h-1.98z"/><path fill="#00A08C" d="M67.597 119.342h2.466v-.783h-2.33z"/><path fill="#005A5A" d="M67.247 121.159h2.816v-.783h-2.675z"/><path fill="#00A08C" d="M66.898 122.976h3.165v-.783h-3.025z"/><path fill="#005A5A" d="M66.552 124.793h3.511v-.78H66.69z"/><path fill="#A0640A" d="M75.101 36.854l-.518 3.674 2.37 5.068 15.182-2.005-2.109-6.737z"/><path d="M94.831 36.319h-6.28c.23 2.268-.224 5.774-5.073 6.25-5.77.563-6.107-4.265-6.026-6.25h-5.766l-11.911 33.84s51.094-2.033 51.202-1.997L94.831 36.32z" fill="#00A08C"/></g></svg>