<svg width="120" height="120" viewBox="0 0 120 120" xmlns="http://www.w3.org/2000/svg" xmlns:xlink="http://www.w3.org/1999/xlink"><defs><path id="a" d="M0 1h15.172v14.483H0z"/></defs><g fill="none" fill-rule="evenodd"><path d="M56.102 33.702c1.672-1.755 3.151-3.712 4.877-5.42 2.234-2.21 4.642-4.166 7.178-6.015.77-.561.045-1.853-.757-1.297-3.744 2.597-8.019 6.018-10.885 9.97.004-.063.018-.12.022-.18.29-4.758-.15-9.975-1.5-14.552-.135-.46-.841-.376-.843.114-.014 5.181 1.084 10.257.49 15.456-.451 3.962-2.424 7.659-3.056 11.558-1.101-1.03-2.362-1.964-3.486-2.869a35.88 35.88 0 0 0-4.902-3.356c-.332-.187-.665.248-.405.526 1.487 1.587 3.065 3.027 4.713 4.443 1.28 1.096 2.51 2.365 3.89 3.35-.002.144-.01.286-.008.43.07 3.91 1.603 7.58 2.315 11.384.531 2.858.378 5.516-1.153 8.055-.983 1.627-2.303 3.054-3.072 4.81a6.614 6.614 0 0 0-.494 1.73c-.032-.028-.05-.061-.089-.085-2.667-1.727-5.193-3.555-7.733-5.47-.415-.314-.806.328-.52.674 2.023 2.443 4.702 4.583 7.484 6.114a.704.704 0 0 0 .807-.05c.135 2.389 1.64 4.488 2.803 6.868 2.39 4.897 3.64 10.293.248 15.016-1.712 2.382-3.677 4.462-4.206 7.172-.712-1.27-1.73-2.46-2.662-3.523-1.123-1.28-2.4-2.59-3.907-3.409-.36-.195-.914.236-.617.62.997 1.294 2.215 2.415 3.273 3.663 1.153 1.359 2.04 2.91 3.18 4.263.186.222.404.267.603.216.014.258.04.521.08.79.729 4.765 3.072 9.587 4.624 14.133.37 1.078 2.089.616 1.717-.472-.919-2.683-1.833-5.366-2.75-8.052-.852-2.486-2.349-5.406-1.824-8.071.728-3.677 4.503-6.057 5.794-9.541a10.99 10.99 0 0 0 .45-1.588c1.257-.767 2.418-1.76 3.634-2.565 1.42-.942 3.007-1.717 4.286-2.844.425-.374-.023-1.094-.545-.937-1.817.547-3.46 1.788-4.975 2.906-.726.533-1.48 1.076-2.18 1.676.166-2.916-.657-5.882-1.794-8.558-.928-2.187-2.636-4.343-3.285-6.621-.763-2.672 1.196-4.844 2.593-6.89.803-1.174 1.389-2.346 1.778-3.55 1.627-1.257 3.042-2.806 4.568-4.183a62.69 62.69 0 0 1 2.495-2.128c.54-.439 1.839-1.855 2.638-2.058.381.154.836.043.981-.497.01-.048.024-.093.036-.138.118-.445-.148-.864-.57-1.005-1.573-.528-4.057 2.354-5.076 3.245-1.558 1.364-3.224 2.818-4.568 4.462.138-1.214.1-2.48-.104-3.834-.677-4.456-2.821-8.776-2.286-13.36.425-3.633 1.926-6.963 2.695-10.526" fill="#2A2120"/><path d="M62.311 58.014c-1.348-.982-1.743-2.918-1.263-4.515.482-1.595 1.674-2.886 2.992-3.903a15.984 15.984 0 0 1 9.26-3.295c.631-.016 1.294.012 1.851.313.675.364 1.098 1.074 1.33 1.804.692 2.175-.083 4.62-1.529 6.383-1.448 1.767-3.478 2.95-5.55 3.91-2.037.941-4.252 1.716-6.485 1.488-.468-.047-.946-.145-1.332-.413-1.068-.736-.978-2.313-.77-3.596" fill="#CC4338"/><path d="M71.993 46.904a16.43 16.43 0 0 0-3.076 1.369c-1.468.842-2.941 2.205-2.81 3.891.154 1.989 2.656 3.124 4.557 2.51 1.898-.611 3.18-2.39 4.022-4.198.467-.999.827-2.223.248-3.163-.444-.724-1.35-1.058-2.199-1.043-.852.016-1.664.325-2.455.636" fill="#D77E7B"/><path d="M47.632 1.7c-1.356 1.267-1.682 3.274-1.775 5.127-.11 2.209.012 4.471.805 6.537.79 2.063 2.327 3.919 4.397 4.696 2.07.779 4.664.273 6.013-1.48 1.494-1.94 1.15-4.697.494-7.056a36.68 36.68 0 0 0-1.379-4.037c-.59-1.444-1.298-2.88-2.416-3.964C52.652.44 51.043-.245 49.521.083c-1.523.329-2.794 1.871-2.499 3.402" fill="#CC4338"/><path d="M48.149 3.345c-.376 1.575-.754 3.218-.398 4.798.356 1.581 1.682 3.07 3.303 3.039 1.456-.026 2.674-1.29 3.041-2.697.372-1.409.054-2.908-.446-4.277-.486-1.328-1.273-2.709-2.615-3.157-1.343-.45-3.145.736-2.742 2.091" fill="#D77E7B"/><path d="M74.552 76.13c-2.929.52-5.931 1.064-8.496 2.567-2.571 1.499-4.66 4.184-4.604 7.157.01.487.08.983.3 1.418.397.78 1.223 1.251 2.057 1.515 2.137.672 4.501.251 6.521-.713 2.023-.961 3.754-2.429 5.416-3.928.98-.881 1.964-1.804 2.575-2.972.614-1.165.795-2.639.146-3.785-.742-1.309-2.392-1.881-3.891-1.77-1.501.111-2.896.776-4.25 1.431" fill="#CC4338"/><path d="M73.666 76.253l-2.425 1.359c-.992.557-2.013 1.137-2.7 2.042-.688.903-.96 2.227-.335 3.177.564.862 1.717 1.188 2.732 1.027 1.019-.16 1.924-.72 2.76-1.324 1.054-.761 2.095-1.684 2.475-2.93.381-1.245-.183-2.856-1.446-3.18-1.297-.333-2.548.757-3.887.775" fill="#D77E7B"/><path d="M71.728 13.953a13.469 13.469 0 0 0-7.18 4.97c-1.082 1.479-1.871 3.377-1.324 5.126.663 2.12 3.16 3.257 5.366 2.984 2.206-.273 4.126-1.64 5.735-3.175a25.629 25.629 0 0 0 2.583-2.86c1.448-1.873 2.648-4.495 1.414-6.516-.936-1.534-3-2.061-4.762-1.72-1.765.341-3.305 1.376-4.79 2.383" fill="#CC4338"/><path d="M74.91 13.1c-.897-.513-2.009.09-2.82.736a21.16 21.16 0 0 0-3.03 2.949c-.798.946-1.551 2.16-1.199 3.344.368 1.251 1.887 1.869 3.167 1.645 1.285-.227 2.363-1.08 3.317-1.964 1.005-.93 1.985-2.004 2.274-3.344.293-1.34-.378-2.972-1.711-3.29-1.116-.265-2.214.43-3.152 1.09" fill="#D77E7B"/><path d="M32.734 27.772a21.597 21.597 0 0 0-.288 6.236c.203 2.057.758 4.186 2.19 5.679 1.22 1.273 2.95 1.944 4.684 2.274 1.528.291 3.185.33 4.572-.378 2.62-1.335 3.342-5.006 2.18-7.71-1.163-2.702-3.703-4.56-6.318-5.907-1.264-.653-2.663-1.233-4.07-1.017-1.406.217-2.728 1.535-2.445 2.93" fill="#CC4338"/><path d="M33.844 28.404c-.035 1.644-.063 3.316.38 4.898.442 1.586 1.436 3.094 2.937 3.765 1.5.671 3.523.262 4.351-1.158.748-1.277.376-2.932-.332-4.23a9.427 9.427 0 0 0-4.889-4.269c-.417-.157-.867-.285-1.304-.193-1.068.233-1.41 1.558-1.544 2.644" fill="#D77E7B"/><path d="M32.311 59.374c-.462 2.811.433 5.813 2.359 7.914 1.926 2.099 4.841 3.25 7.682 3.031.788-.06 1.59-.23 2.25-.663 1.196-.786 1.721-2.35 1.548-3.769-.173-1.422-.94-2.707-1.872-3.794-2.202-2.574-5.43-4.242-8.804-4.555-.83-.076-1.727-.059-2.421.406-.697.464-1.05 1.512-.53 2.164" fill="#CC4338"/><path d="M34.04 59.914c.073 2.061.673 4.274 2.325 5.508 1.65 1.233 4.519.836 5.192-1.116.515-1.49-.433-3.143-1.708-4.08-1.007-.74-2.313-1.188-3.515-.857-1.204.332-2.168 1.623-1.842 2.829" fill="#D77E7B"/><g transform="translate(28 82.067)"><mask id="b" fill="#fff"><use xlink:href="#a"/></mask><path d="M.715 1.193a10.965 10.965 0 0 0-.4 4.167c.286 2.943 1.806 5.717 4.02 7.678 1.355 1.206 3.01 2.132 4.807 2.382 1.798.25 3.744-.244 5.028-1.522.467-.465.848-1.041.962-1.688.142-.793-.12-1.598-.442-2.333-2.068-4.773-6.815-8.27-11.984-8.833C2.04.973 1.328.954.746 1.28.162 1.608-.21 2.393.128 2.972" fill="#CC4338" mask="url(#b)"/></g><path d="M28.534 84.158c-.37 1.627-.104 3.354.525 4.9.561 1.377 1.458 2.686 2.776 3.374 1.32.689 3.104.606 4.13-.472 1.05-1.1 1.022-2.923.269-4.243-.752-1.32-2.078-2.213-3.44-2.882-.884-.433-1.866-.799-2.834-.626-.97.175-1.865 1.084-1.69 2.052" fill="#D77E7B"/></g></svg>