<svg width="480" height="360" viewBox="0 0 480 360" xmlns="http://www.w3.org/2000/svg"><g fill="none"><path d="M-17.608 0h516.35v361.605h-516.35z" fill="#00EBFF"/><path d="M150.984 126.853l8.886-1.661c.962-.18 1.97-.38 2.725-1.003 1.023-.841 1.346-2.237 1.837-3.466.992-2.476 3.424-4.749 6.035-4.213 1.94.4 3.874 2.242 5.594 1.26 1.523-.869 1.277-3.103 1.941-4.726 1.209-2.953 5.345-3.403 8.326-2.268.918.35 1.823.808 2.803.867 3.423.206 5.048-3.97 6.7-6.975 1.538-2.8 4.052-5.192 7.15-5.97 3.099-.779 6.749.355 8.393 3.095.922 1.537 1.155 3.38 1.792 5.057.638 1.676 1.952 3.342 3.742 3.43 1.87.093 3.322-1.517 4.975-2.397 4.145-2.207 10.047 1.415 9.96 6.111-.035 1.839-.703 4.014.625 5.285.79.756 1.982.83 3.064.983 4.432.623 8.523 3.346 10.81 7.195-25.4-.721-50.825-.6-76.218.365m-187.45-64.617A119.53 119.53 0 0 0 .625 61.88c1.228-.184 2.512-.414 3.481-1.19 1.497-1.2 1.812-3.311 2.71-5.006 1.606-3.031 5.448-4.674 8.749-3.74 1.458.412 2.828 1.267 4.343 1.248 2.318-.03 4.105-2.091 5.083-4.194.978-2.104 1.509-4.458 2.95-6.276 2.171-2.742 6.357-3.642 9.464-2.037 1.796.928 3.38 2.614 5.399 2.548 2.845-.093 4.237-3.389 5.362-6.006 2.304-5.359 6.448-10.121 11.907-12.169 5.46-2.048 12.238-.92 16.064 3.482 3.016 3.471 3.864 8.3 6.17 12.28.297.513.653 1.042 1.201 1.269.905.373 1.895-.21 2.721-.736 3.268-2.083 7.15-3.655 10.958-2.94 3.807.714 7.206 4.448 6.384 8.237 4.376-2.477 10.762.216 12.045 5.08.305 1.158.376 2.423 1.058 3.405.761 1.096 2.108 1.594 3.37 2.028l10.404 3.586c-2.384 1.24-5.217 1.123-7.9.976l-27.54-1.513" fill="#FFF"/><path d="M496.34 232.62h-6.176v-17.38H480.03v18.037h-10.79v-77.022h-12.098s-.327-16.42-17.329-16.42-18.636 17.076-18.636 17.076h-13.733v135.07h-18.637v-45.586h-26.032v-61.61l-48.81-.069v94.518h-39.018v17.722h-4.049v-114.27h-58.895v45.966H186.42v-70.704l-8.65-8.676h-37.546v49.474h-12.147v23.629h-14.724v25.475h-33.13v55.012l-2.454-.047V162.303h-3.924v-22.06H24.793v22.06H4.518v23.124h-22.126v143.611H496.34V232.62z" fill="#29CDF7"/><path fill="#77EBFF" d="M462.165 306.599v-14.93h-26.95v54.115h46.036V306.6z"/><path fill="#77EBFF" d="M435.216 291.668h-.577v-65.147l-51.612-.072v66.67H341.77v18.74h-2.462v33.925h95.908zm-97.728 20.192V172.322h-62.276v100.583h-27.05v-74.762l-9.147-9.174h-39.701v52.314h-12.845v24.986H170.9v26.937h-35.03v24.899l-2.595-.05V161.766h-4.15l-1.382-24.07-48.41-1.387-2.075 26.845-20.746-.694-.692 24.278H17.784v99.428h-35.392v59.617h356.916V311.86z"/><path fill="#29CDF7" d="M226.136 237.423h3.402v7.877h-3.402zm0-10.543h3.402v7.876h-3.402zm0-10.547h3.402v7.877h-3.402zm5.062 21.09h3.402v7.877h-3.402zm0-10.543h3.402v7.876h-3.402zm0-10.547h3.402v7.877h-3.402zm-40.188 70.901h5.69v6.303h-5.69zm0-8.438h5.69v6.303h-5.69zm8.464 8.438h5.69v6.303h-5.69zm0-8.438h5.69v6.303h-5.69zm8.466 8.438h5.688v6.303h-5.689zm0-8.438h5.688v6.303h-5.689zm8.464 8.438h5.69v6.303h-5.69zm0-8.438h5.69v6.303h-5.69zm8.464 8.438h5.69v6.303h-5.69zm0-8.438h5.69v6.303h-5.69zm8.465 8.438h5.69v6.303h-5.69zm0-8.438h5.69v6.303h-5.69zM87.56 177.395h4.155v6.303H87.56zm6.181 0h4.156v6.303h-4.156zm6.183 0h4.156v6.303h-4.156zm6.183 0h4.156v6.303h-4.156zm6.183 0h4.156v6.303h-4.156zm6.183 0h4.156v6.303h-4.156zM87.56 186.24h4.155v6.302H87.56zm6.181 0h4.156v6.302h-4.156zm6.183 0h4.156v6.302h-4.156zm6.183 0h4.156v6.302h-4.156zm6.183 0h4.156v6.302h-4.156zm6.183 0h4.156v6.302h-4.156zm-30.913 8.437h4.155v6.303H87.56zm6.181 0h4.156v6.303h-4.156zm6.183 0h4.156v6.303h-4.156zm6.183 0h4.156v6.303h-4.156zm6.183 0h4.156v6.303h-4.156zm6.183 0h4.156v6.303h-4.156zm-30.913 8.438h4.155v6.303H87.56zm6.181 0h4.156v6.303h-4.156zm6.183 0h4.156v6.303h-4.156zm6.183 0h4.156v6.303h-4.156zm6.183 0h4.156v6.303h-4.156zm6.183 0h4.156v6.303h-4.156zm-30.913 8.438h4.155v6.303H87.56zm6.181 0h4.156v6.303h-4.156zm6.183 0h4.156v6.303h-4.156zm6.183 0h4.156v6.303h-4.156zm6.183 0h4.156v6.303h-4.156zm6.183 0h4.156v6.303h-4.156zm-30.913 8.438h4.155v6.303H87.56zm6.181 0h4.156v6.303h-4.156zm6.183 0h4.156v6.303h-4.156zm6.183 0h4.156v6.303h-4.156zm6.183 0h4.156v6.303h-4.156zm6.183 0h4.156v6.303h-4.156zm164.752-26.484h5.689v6.303h-5.69zm8.464 0h5.689v6.303h-5.69zm8.465 0h5.689v6.303h-5.69zm8.464 0h5.689v6.303h-5.69zm8.464 0h5.689v6.303h-5.69zm8.465 0h5.689v6.303h-5.69zm-42.322 8.844h5.689v6.303h-5.69zm8.464 0h5.689v6.303h-5.69zm8.465 0h5.689v6.303h-5.69zm8.464 0h5.689v6.303h-5.69zm8.464 0h5.689v6.303h-5.69zm8.465 0h5.689v6.303h-5.69zm-42.322 8.439h5.689v6.302h-5.69zm8.464 0h5.689v6.302h-5.69zm8.465 0h5.689v6.302h-5.69zm8.464 0h5.689v6.302h-5.69zm8.464 0h5.689v6.302h-5.69zm8.465 0h5.689v6.302h-5.69zm-42.322 8.438h5.689v6.303h-5.69zm8.464 0h5.689v6.303h-5.69zm8.465 0h5.689v6.303h-5.69zm8.464 0h5.689v6.303h-5.69zm8.464 0h5.689v6.303h-5.69zm8.465 0h5.689v6.303h-5.69zm-42.322 8.438h5.689v6.303h-5.69zm8.464 0h5.689v6.303h-5.69zm8.465 0h5.689v6.303h-5.69zm8.464 0h5.689v6.303h-5.69zm8.464 0h5.689v6.303h-5.69zm8.465 0h5.689v6.303h-5.69zm-42.322 8.438h5.689v6.303h-5.69zm8.464 0h5.689v6.303h-5.69zm8.465 0h5.689v6.303h-5.69zm8.464 0h5.689v6.303h-5.69zm8.464 0h5.689v6.303h-5.69zm8.465 0h5.689v6.303h-5.69zm63.409 1.786h3.402v7.877h-3.402zm5.063 0h3.402v7.877h-3.402zm-5.063 11.053h3.402v7.877h-3.402zm5.063 0h3.402v7.877h-3.402zm-5.063 10.547h3.402v7.876h-3.402zm5.063 0h3.402v7.876h-3.402zm-5.063 10.544h3.402v7.877h-3.402zm5.063 0h3.402v7.877h-3.402zm-5.063 10.546h3.402v7.876h-3.402zm5.063 0h3.402v7.876h-3.402zm-5.063 10.544h3.402v7.877h-3.402zm5.063 0h3.402v7.877h-3.402zM87.56 242.848h4.155v6.303H87.56zm6.181 0h4.156v6.303h-4.156zm6.183 0h4.156v6.303h-4.156zm6.183 0h4.156v6.303h-4.156zm6.183 0h4.156v6.303h-4.156zm6.183 0h4.156v6.303h-4.156zm-30.913 8.844h4.155v6.303H87.56zm6.181 0h4.156v6.303h-4.156zm6.183 0h4.156v6.303h-4.156zm6.183 0h4.156v6.303h-4.156zm6.183 0h4.156v6.303h-4.156zm6.183 0h4.156v6.303h-4.156zM87.56 260.13h4.155v6.303H87.56zm6.181 0h4.156v6.303h-4.156zm6.183 0h4.156v6.303h-4.156zm6.183 0h4.156v6.303h-4.156zm6.183 0h4.156v6.303h-4.156zm6.183 0h4.156v6.303h-4.156zm-30.913 8.439h4.155v6.303H87.56zm6.181 0h4.156v6.303h-4.156zm6.183 0h4.156v6.303h-4.156zm6.183 0h4.156v6.303h-4.156zm6.183 0h4.156v6.303h-4.156zm6.183 0h4.156v6.303h-4.156zm-30.913 8.437h4.155v6.303H87.56zm6.181 0h4.156v6.303h-4.156zm6.183 0h4.156v6.303h-4.156zm6.183 0h4.156v6.303h-4.156zm6.183 0h4.156v6.303h-4.156zm6.183 0h4.156v6.303h-4.156zm-30.913 8.438h4.155v6.303H87.56zm6.181 0h4.156v6.303h-4.156zm6.183 0h4.156v6.303h-4.156zm6.183 0h4.156v6.303h-4.156zm6.183 0h4.156v6.303h-4.156zm6.183 0h4.156v6.303h-4.156z"/><path d="M424.331 334.375c-19.234-.04-36.212-18.02-36.26-37.263-.048-19.243 15.828-36.906 34.805-40.044-11.208-27.481-4.183-62.932 20.125-79.946 12.051-8.434 26.86-11.82 41.371-14.204 26.3-4.322 55.795-5.173 76.807 11.23 14.476 11.303 22.673 30.187 21.044 48.486-.159 1.783-.39 3.659.328 5.298 1.383 3.155 5.395 3.907 8.753 4.67 20.307 4.612 34.68 25.106 35.783 45.91 1.101 20.804-9.25 41.056-24.17 55.587-14.923 14.53-34.04 23.997-53.508 31.393" fill="#00DE80"/><path d="M431.757 342.292c-19.234-.04-36.212-18.021-36.26-37.264-.048-19.242 15.828-36.905 34.805-40.043-11.208-27.482-4.183-62.932 20.125-79.946 12.051-8.435 26.86-11.82 41.371-14.205 26.3-4.322 55.796-5.173 76.807 11.231 14.476 11.302 22.673 30.187 21.044 48.485-.159 1.783-.39 3.66.328 5.299 1.383 3.155 5.395 3.907 8.753 4.67 20.307 4.611 34.68 25.106 35.783 45.91 1.102 20.803-9.249 41.055-24.17 55.586-14.923 14.531-34.04 23.998-53.507 31.393" fill="#00B669"/><path d="M438.828 328.176c-8.278-7.09-14.501-17.404-14.047-28.296.456-10.892 9.15-21.624 20.043-21.923 1.71-.047 3.536.122 5.019-.732 3.143-1.81 2.495-6.406 1.953-9.993-3.556-23.56 16.882-44.722 39.14-53.2 15.385-5.862 34.25-7.153 47.011 3.255 11.825 9.644 14.94 26.178 16.882 41.316 10.36-5.94 25.135-2.148 31.357 8.048 3.02 4.95 4.084 10.852 4.46 16.64.6 9.212-.47 18.738-4.675 26.955-4.347 8.493-11.708 15.011-19.21 20.903-16.861 13.241-35.834 24.621-56.887 28.644-21.054 4.023-44.499-.26-60.093-14.974" fill="#009C5A"/><path d="M-47.381 347.667c-10.282-1.891-19.001-9.785-22.854-19.508-3.853-9.723-3.084-20.966 1.112-30.546 4.426-10.103 15.432-19.232 25.726-15.28-6.38-5.034-9.737-12.964-11.976-20.78-9.248-32.283-2.923-68.66 16.678-95.923 5.015-6.976 11.068-13.54 18.884-17.103 15.491-7.06 34.792-.17 45.809 12.813 11.017 12.983 14.986 30.644 15.429 47.669 7.647-4.115 17.926 2.279 19.689 10.784 1.764 8.506-3.188 17.292-10.133 22.506 8.204.672 15.975 5.42 20.319 12.417 4.344 6.996 5.155 16.069 2.121 23.725 14.29.88 27.778 10.01 33.913 22.952 6.134 12.942 4.664 29.167-3.696 40.795-5.253 7.304-12.793 12.64-20.59 17.125-23.25 13.37-50.158 20.301-76.972 19.825-12.075-.214-24.36-1.975-35.162-7.378-10.803-5.403-20.004-14.843-23.058-26.533" fill="#00DE80"/><path d="M-54.566 352.06c-10.281-1.892-19-9.786-22.854-19.509-3.852-9.723-3.083-20.966 1.113-30.545 4.425-10.104 15.431-19.232 25.726-15.28-6.381-5.035-9.737-12.964-11.976-20.78-9.248-32.283-2.924-68.66 16.678-95.924 5.015-6.976 11.067-13.54 18.884-17.102 15.49-7.06 34.792-.17 45.808 12.812 11.017 12.984 14.987 30.644 15.43 47.67 7.646-4.115 17.925 2.278 19.689 10.784 1.763 8.505-3.189 17.291-10.134 22.505 8.204.673 15.976 5.42 20.32 12.417 4.343 6.996 5.154 16.07 2.12 23.725 14.29.881 27.779 10.01 33.913 22.952 6.135 12.942 4.665 29.168-3.696 40.795-5.252 7.305-12.792 12.641-20.59 17.125-23.25 13.371-50.158 20.302-76.971 19.825-12.076-.214-24.36-1.975-35.163-7.378-10.802-5.403-20.003-14.843-23.057-26.533" fill="#00B669"/><path d="M-30.704 383.75c-9.475-6.165-16.594-15.864-19.637-26.755-3.042-10.89-1.982-22.876 2.925-33.063 4.536-9.416 13.963-17.825 24.299-16.304-5.767-19.417-6.811-40.219-3.02-60.117 1.935-10.154 5.514-20.681 13.582-27.14 1.7-1.361 3.66-2.543 5.83-2.728 3.543-.302 6.77 2.104 9.017 4.86 4.204 5.163 6.196 11.73 8.092 18.112 3.095-2.132 7.789-4.08 10.113-1.126 3.764 4.782-6.385 11.864-2.906 16.857.855 1.226 2.324 1.838 3.715 2.384 6.445 2.528 13.242 5.168 17.616 10.537 4.373 5.37 5.068 14.415-.45 18.596 8.241 4.17 16.336 9.268 21.7 16.79 7.332 10.285 8.56 24.236 4.594 36.23-3.966 11.993-12.692 22.059-23.158 29.126-10.466 7.067-22.61 11.322-34.94 14.051-12.446 2.755-26.953 3.513-36.422-5.027" fill="#009C5A"/><path fill="#FFF" d="M498.856 318.883v9.318h-516.58v-9.318z"/><path fill="#B3F9FF" d="M498.856 328.206v4.659h-516.58v-4.66z"/><path fill="#FFF" d="M126.495 0h9.318v321.212h-9.318z"/><path fill="#B3F9FF" d="M135.813 0h4.66v321.212h-4.66z"/><path fill="#FFF" d="M340.677 0h9.318v321.212h-9.318z"/><path fill="#B3F9FF" d="M349.996 0h4.659v321.212h-4.66z"/><path fill="#FFF" opacity=".35" d="M340.677 7.617l-200.205 151.8v68.114l200.205-151.8zm158.064 42.964L354.43 159.417v68.114l144.31-108.836zm0 114.244L354.43 274.137v21.227L498.74 186.05zm-516.349-48.388v68.114l143.343-108.82V7.617zm0 114.72v21.227l143.343-108.82v-21.227z"/><path fill="#468FCA" d="M-17.608 332.865h516.35v28.74h-516.35z"/></g></svg>