<svg width="120" height="120" viewBox="0 0 120 120" xmlns="http://www.w3.org/2000/svg" xmlns:xlink="http://www.w3.org/1999/xlink"><defs><path id="a" d="M.002.097h51.196v109.288H.002z"/><path id="c" d="M.129.338h39.53v109.047H.13z"/><path id="e" d="M0 .314h51.18v21.307H0z"/></defs><g fill="none" fill-rule="evenodd"><g transform="translate(34 10.302)"><mask id="b" fill="#fff"><use xlink:href="#a"/></mask><path d="M24.95 109.381c-9.08-.102-14.24-7.598-14.24-7.598L.003.097l51.196.315-4.25 102.266s-6.614 6.876-21.999 6.703" fill="#9C622F" mask="url(#b)"/></g><path d="M46.735 39.414a166.54 166.54 0 0 1 3.27 14.309c.878 4.861.857 9.792 1.532 14.673.076.547.76.358.796-.123.386-5.116-.517-10.382-1.115-15.447-.56-4.745-1.437-9.404-2.5-14.035-.335-1.459-2.377-.82-1.983.623" fill="#784C25"/><g transform="translate(45.538 10.302)"><mask id="d" fill="#fff"><use xlink:href="#c"/></mask><path d="M27.538.338c2.03 31.953 6.2 64.81-3.67 93.537-2.497 9.606-14.472 11.135-23.74 9.09 1.882 2.116 6.483 6.34 13.283 6.416 15.385.173 21.998-6.703 21.998-6.703L39.659.413 27.54.338z" fill="#82502D" mask="url(#d)"/></g><path d="M70.008 86.659c.317 2.644-.243 6.11.821 8.526.211.479.931.378 1.026-.152.263-1.479-.058-3.059-.18-4.551-.114-1.408-.237-2.81-.465-4.2-.15-.913-1.308-.505-1.202.377" fill="#784C25"/><g transform="translate(34 .148)"><mask id="f" fill="#fff"><use xlink:href="#e"/></mask><path d="M0 10.335c-.11 5.875 11.256 10.917 25.388 11.267 14.132.349 25.68-4.13 25.791-10.003C51.29 5.726 39.924.682 25.792.333 11.66-.017.112 4.463 0 10.335" fill="#CD802E" mask="url(#f)"/></g><path fill="#784C25" d="M67.71 17.296l-1.376-1.504 2.137 5.493 2.286 11.982.235-12.383zm-21.476-2.001l-3.712 3.38-.75 9.565-1.545-10.587z"/></g></svg>