<svg width="120" height="120" viewBox="0 0 120 120" xmlns="http://www.w3.org/2000/svg"><g fill="none" fill-rule="evenodd"><path d="M75.012 55.144a.685.685 0 0 0-.303-.239l-6.526-2.618a.682.682 0 0 0-.364-.04l-1.588.26a.685.685 0 0 0-.535.446l-1.85 5.185a.694.694 0 0 0-.04.2c-.039.828-1.239.888-1.36.067l-.017-.11a.699.699 0 0 0-.039-.147l-1.992-5.139a.685.685 0 0 0-.638-.438h-1.347a.674.674 0 0 0-.276.059l-6.04 2.676a.686.686 0 0 0-.274.22l-.84 1.14a.689.689 0 0 0-.079.675l2.08 4.922a.688.688 0 0 0 .137.209l5.198 5.402c.097.1.223.17.36.196l8.587 1.692a.684.684 0 0 0 .663-.24l5.786-7.138a.69.69 0 0 0 .118-.214l1.87-5.568a.688.688 0 0 0-.092-.618l-.599-.84z" fill="#8A8A8A"/><path d="M97.198 83.69c-6.97 0-12.62-5.666-12.62-12.655 0-6.989 5.65-12.654 12.62-12.654 6.969 0 12.619 5.665 12.619 12.654s-5.65 12.654-12.62 12.654m0-29.415c-9.23 0-16.714 7.504-16.714 16.761s7.483 16.761 16.715 16.761c9.231 0 16.715-7.504 16.715-16.76 0-9.258-7.484-16.762-16.715-16.762" fill="#333"/><path d="M97.198 82.548c-6.34 0-11.48-5.155-11.48-11.513s5.14-11.512 11.48-11.512c6.34 0 11.48 5.154 11.48 11.512 0 6.358-5.14 11.513-11.48 11.513m0-24.282c-7.033 0-12.734 5.717-12.734 12.769 0 7.052 5.7 12.77 12.734 12.77 7.033 0 12.733-5.718 12.733-12.77s-5.7-12.77-12.733-12.77" fill="#6E6E6E"/><path d="M97.198 64.16c-3.786 0-6.855 3.079-6.855 6.875 0 3.797 3.069 6.874 6.855 6.874 3.786 0 6.855-3.077 6.855-6.874 0-3.796-3.07-6.874-6.855-6.874m-18.72-26.406l4.96 8.873c2.91-1.32 2.144-7.983 1.378-9.242-.765-1.259-6.338.369-6.338.369" fill="#ABABAB"/><path d="M21.831 80.926c-5.447 0-9.863-4.429-9.863-9.89 0-5.463 4.416-9.892 9.863-9.892 5.447 0 9.863 4.429 9.863 9.891s-4.416 9.89-9.863 9.89m0-26.651c-9.231 0-16.715 7.504-16.715 16.761S12.6 87.796 21.831 87.796c9.232 0 16.715-7.504 16.715-16.76 0-9.258-7.483-16.762-16.715-16.762" fill="#333"/><path d="M21.831 79.952c-4.911 0-8.892-3.992-8.892-8.917s3.98-8.917 8.892-8.917c4.911 0 8.893 3.992 8.893 8.917s-3.982 8.917-8.893 8.917m0-18.808c-5.447 0-9.863 4.429-9.863 9.891 0 5.463 4.416 9.89 9.863 9.89 5.447 0 9.863-4.427 9.863-9.89 0-5.462-4.416-9.89-9.863-9.89" fill="#6E6E6E"/><path d="M21.831 64.16c-3.786 0-6.855 3.079-6.855 6.875 0 3.797 3.07 6.874 6.855 6.874 3.786 0 6.855-3.077 6.855-6.874 0-3.796-3.069-6.874-6.855-6.874" fill="#ABABAB"/><path d="M19.015 72.566c0 .75.606 1.36 1.354 1.36h22.958v-2.718H20.369c-.748 0-1.354.608-1.354 1.358" fill="#7F7F7F"/><path d="M76.835 53.542l-3.568 17.343a2.572 2.572 0 0 1-2.518 2.058H47.487a1.023 1.023 0 0 1-.984-1.298l3.978-14.37a5.492 5.492 0 0 1 3.357-3.676l4.88-1.836a5.964 5.964 0 0 1 1.729-.371l13.778-.865a2.51 2.51 0 0 1 2.61 3.015zm-1.258-12.01a.875.875 0 0 0-.393 1.227.433.433 0 0 1-.24.626l-7.566 2.491s-16.982 4.038-17.837 5.358c-.856 1.32-13.563 11.085-13.563 11.085s8.35 15.097 10.597 17.571c2.447 2.694 10.898 1.282 23.39 1.282 0 0 4.226-1.29 4.655-5.405.375-3.596 4.562-20.082 5.611-24.178a.322.322 0 0 1 .609-.045l.012.028c.143.34.533.5.874.358l2.539-1.064-6.059-10.551-2.629 1.217z" fill="#242529"/><path d="M23.93 51.449s-7.166-.138-11.437 2.671c-2.506 1.648-4.087 2.877-4.966 3.61a1.223 1.223 0 0 0-.101 1.783c.56.587 1.357 1.192 2.173 1.055 1.516-.253 12.454-5.104 17.545-2.44 5.282 2.763 8.497 6.171 11.345 7.23 1.238.46 4.11.767 5.814 1.08a2.452 2.452 0 0 0 2.368-.892c1.016-1.286 4.357-7.142 2.106-11.15 0 0-24.56-2.308-24.848-2.947m47.91-13.402c-2.792.19-7.166.714-10.018 2.164-4.47 2.272-13.281 7.746-11.299 9.626 1.409 1.336 14.514-.445 19.826-1.098a2.667 2.667 0 0 0 2.28-2.09l1.322-6.16a2.021 2.021 0 0 0-2.111-2.442" fill="#3B456C"/><path d="M49.397 48.202c-.896.23-8.98 4.506-10.296 4.445-1.285-.06-3.913-.062-7.514-3.348a1.152 1.152 0 0 0-.657-.294c-1.286-.134-5.409-.349-7.52 2.047a.378.378 0 0 0 .003.497c.965 1.11 5.174 5.588 10.085 5.427 5.603-.184 16.575-.86 16.738-2.334.164-1.474 0-5.818 0-5.818s.057-.852-.84-.622" fill="#363636"/><path d="M64.658 68.332l-7.567-.37-3.56-2.047a2.73 2.73 0 0 0-3.542.727l-2.495 3.316h.002a6.001 6.001 0 0 0-1.333 3.78c0 3.324 2.686 6.018 6.001 6.018a5.99 5.99 0 0 0 1.507-.191l10.987-1.397a4.911 4.911 0 0 0 4.904-4.918 4.911 4.911 0 0 0-4.904-4.918" fill="#6E6E6E"/><path d="M52.207 69.16a4.416 4.416 0 0 0-4.41 4.42 4.415 4.415 0 0 0 4.41 4.422 4.415 4.415 0 0 0 4.409-4.421 4.416 4.416 0 0 0-4.41-4.422m17.357-1.772a1.907 1.907 0 0 0-1.905 1.91c0 1.055.852 1.91 1.905 1.91a1.908 1.908 0 0 0 1.904-1.91c0-1.054-.852-1.91-1.904-1.91m-3.195 3.821h-3.904c-.939 0-1.7.763-1.7 1.704v.875c0 .94.761 1.704 1.7 1.704h3.904c.938 0 1.7-.763 1.7-1.704v-.875c0-.941-.762-1.704-1.7-1.704" fill="#ABABAB"/><path d="M86.347 56.976c-5.342 4.217-7.195 8.576-7.195 13.848 0 0 1.592-.33 1.913-1.758.322-1.428 1.776-13.057 17.193-14.209 0 0 3.124-.706 3.124-1.29 0-.583-9.033-1.329-15.035 3.409" fill="#3B456C"/><path d="M77.76 35.801a.917.917 0 0 0-1.256-.337.923.923 0 0 0-.336 1.258L97.463 73.81a.917.917 0 0 0 1.255.337.923.923 0 0 0 .336-1.258L77.76 35.8z" fill="#7F7F7F"/><path d="M87.992 52.564a.68.68 0 0 0-.931-.25l-1.365.79a.685.685 0 0 0-.25.934l2.38 4.133a.68.68 0 0 0 .931.25l1.365-.79a.684.684 0 0 0 .25-.933l-2.38-4.134z" fill="#313857"/><path d="M76.787 34.773l-1.547-.237a.997.997 0 0 1-.388-.147l-1.628-1.047a.993.993 0 0 0-.538-.158h-.713c-.203 0-.4.062-.567.177l-.96.665a1 1 0 0 0-.427.894l.077 1.061a1 1 0 0 0 .44.76l.73.488a.995.995 0 0 0 .905.103l1.457-.55a.996.996 0 0 1 .367-.064l2.625.042a.998.998 0 0 0 1.013-1 .998.998 0 0 0-.846-.987" fill="#585858"/><path d="M71.723 34.03a1.46 1.46 0 0 0 0 2.92c.805 0 1.457-.653 1.457-1.46 0-.806-.652-1.46-1.457-1.46" fill="#242529"/><path d="M71.379 34.696l-2.925.9a.629.629 0 0 0-.413.41c-.17.526-.12 1.568.811 1.615l3.033-.944a.62.62 0 0 0 .419-.439c.115-.462.14-1.255-.925-1.542" fill="#242529"/></g></svg>