<svg width="120" height="120" viewBox="0 0 120 120" xmlns="http://www.w3.org/2000/svg"><g fill="none" fill-rule="evenodd"><path d="M102.823 44.087c16.685.421 18.05-14.503 16.54-26.336-1.162-9.075-8.217-16.127-17.285-17.286C90.24-1.05 75.32.32 75.738 17.004c.279 11.051-5.402 15.664-10.648 13.89-2.372-.806-5.19-8.36-9.217-14.931-1.834-.592-8.832-2.435-10.173 3.432-1.444 6.291-9.57 4.176-11.45 3.597 2.136 4.72 5.647 9.174 7.232 11.836 3.432 5.77 6.016 14.352-19.445 18.517-4.745.776-8.497 1.815-11.463 3.012 2.839 1.192 8.911 4.527 5.397 10.228-3.245 5.273 2.472 9.43 5.17 11.02 4.555-.892 10.165-2.428 17.099-4.813 1.74-.6 4.397-1.159 7.177 1.618 2.776 2.78 2.22 5.439 1.617 7.175-2.388 6.935-3.918 12.547-4.814 17.104 1.592 2.698 5.751 8.405 11.017 5.16 5.705-3.513 9.04 2.568 10.23 5.407 1.196-2.966 2.235-6.72 3.012-11.466 4.164-25.465 12.75-22.876 18.518-19.447 2.658 1.583 7.108 5.09 11.826 7.223-.572-1.854-2.707-10.007 3.592-11.45 5.867-1.345 4.032-8.327 3.437-10.173-6.572-4.019-14.12-6.838-14.92-9.207-1.773-5.247 2.838-10.926 13.89-10.649" fill="#F1BB6B"/><path d="M100.415 74.115c-6.3 1.443-4.164 9.598-3.593 11.452 5.904 2.675 12.223 3.2 15.955-4.907 3.371-7.334-2.274-12.642-8.925-16.716.595 1.845 2.428 8.828-3.437 10.17M45.7 19.396c1.341-5.868 8.339-4.026 10.173-3.432C51.803 9.316 46.5 3.676 39.165 7.05c-8.102 3.73-7.581 10.042-4.915 15.942 1.88.577 10.006 2.692 11.45-3.597m7.537 84.455c-5.266 3.245-9.425-2.463-11.017-5.162-3.24 16.494 1.9 19.156 5.278 20.397 2.536.932 10.752 3.102 15.97-9.83-1.192-2.838-4.526-8.92-10.231-5.405M15.971 66.584c3.515-5.7-2.558-9.036-5.397-10.228C-2.36 61.574-.19 69.793.74 72.324c1.243 3.38 3.906 8.522 20.402 5.28-2.698-1.59-8.415-5.747-5.17-11.02" fill="#E49A61"/><path d="M76.772 45.388c-.62 0-1.218-.243-1.647-.693a2.351 2.351 0 0 1-.694-1.646c0-.62.263-1.218.694-1.668.861-.86 2.433-.86 3.316 0 .427.45.672 1.049.672 1.668 0 .618-.245 1.215-.672 1.646a2.325 2.325 0 0 1-1.669.693m-9.454 7.114a2.338 2.338 0 0 1 0-3.312c.918-.9 2.394-.9 3.316 0a2.34 2.34 0 0 1 0 3.312 2.361 2.361 0 0 1-1.647.692 2.42 2.42 0 0 1-1.669-.692m-7.806 7.807a2.337 2.337 0 0 1 0-3.314 2.342 2.342 0 1 1 3.312 3.314c-.45.45-1.049.677-1.644.677-.6 0-1.2-.227-1.668-.677m-6.144 8.503a2.423 2.423 0 0 1-1.668-.692 2.4 2.4 0 0 1-.673-1.668c0-.599.245-1.217.673-1.647.883-.862 2.44-.881 3.317 0 .43.43.692 1.048.692 1.647 0 .62-.263 1.236-.692 1.668a2.358 2.358 0 0 1-1.649.692" fill="#DB5743"/><path d="M97.816 36.84c-8.176 0-14.83-6.653-14.83-14.833a1.871 1.871 0 1 1 3.742 0c0 6.113 4.973 11.088 11.088 11.088a1.873 1.873 0 0 1 0 3.745m12.443-6.488a1.875 1.875 0 0 1-1.873-1.872 4.068 4.068 0 0 0-4.065-4.067 1.872 1.872 0 0 1 0-3.745c4.31 0 7.812 3.503 7.812 7.812 0 1.03-.84 1.872-1.874 1.872M97.285 17.375a1.872 1.872 0 0 1-1.873-1.872 4.07 4.07 0 0 0-4.065-4.067 1.873 1.873 0 1 1 0-3.745c4.31 0 7.81 3.506 7.81 7.812a1.87 1.87 0 0 1-1.872 1.872" fill="#E2E2E2"/></g></svg>