<svg width="480" height="360" viewBox="0 0 480 360" xmlns="http://www.w3.org/2000/svg" xmlns:xlink="http://www.w3.org/1999/xlink" style="background:#fff"><defs><path id="a" d="M0 398.198h935.775V1.173H0z"/><path id="c" d="M.328 364.886h864.865V1.171H.328z"/></defs><g fill="none" fill-rule="evenodd"><path fill="#9CD3DB" d="M-314.041 365.515h864.864V1.8H-314.04z"/><path d="M-314.042 227.007c74.378 43.44 108.126-72.06 200.47-72.06s115.66 82.575 213.23 82.575c97.574 0 144.817-52.746 209.956-64.612 63.526-11.573 173.153 30.873 241.209 30.873v109.498h-864.865v-86.274z" fill="#9B8579"/><path fill="#77674D" d="M361.614 213.34l-1.257 1.287-7.988-7.806 1.254-1.286zm.984 0l1.256 1.287 7.99-7.806-1.257-1.286z"/><path fill="#917E63" d="M359.142 227.953h4.944v-24.17h-4.944z"/><g transform="translate(-345 .629)"><path fill="#917E63" d="M706.614 203.155v21.971h-2.472v2.199h4.944v-24.17z"/><path d="M725.185 175.347a7.559 7.559 0 0 0-1.317-.269c-1.707-11.863-8.78-20.76-17.25-20.76s-15.545 8.905-17.248 20.773a7.675 7.675 0 0 0-1.364.281c-5.782 1.778-8.315 10.21-5.66 18.827 2.651 8.616 9.493 14.159 15.273 12.378a7.654 7.654 0 0 0 2.636-1.44c1.975 1.141 4.119 1.774 6.364 1.774 2.252 0 4.404-.636 6.382-1.782a7.64 7.64 0 0 0 2.668 1.456c5.788 1.762 12.608-3.8 15.236-12.43 2.627-8.624.069-17.044-5.72-18.808" fill="#B5F4B5"/><path d="M730.905 194.157c2.627-8.625.069-17.045-5.72-18.81a7.4 7.4 0 0 0-1.318-.27c-1.312-9.118-5.798-16.479-11.647-19.4 15.498 34.78-12.933 48.028-27.315 44.125 3.314 5.247 8.319 8.13 12.714 6.776a7.667 7.667 0 0 0 2.636-1.44c1.974 1.141 4.119 1.772 6.364 1.772 2.252 0 4.403-.634 6.382-1.78a7.665 7.665 0 0 0 2.668 1.454c5.787 1.764 12.607-3.8 15.236-12.427m-386.361 86.581c164.583-44.299 436.389-73.048 551.279-61.288v78.407l-551.28-17.119z" fill="#93D893"/><path d="M895.823 272.876v-32.22c-206.593 15.956-443.413 25.932-406.95 15.956 43.123-11.8 147.12-23.127 406.95-32.633v-4.528c-105.903-10.841-345.134 12.739-510.815 51.19 6.335 3.311 13.59 6.713 21.537 10.228 1.566.69 3.326 1.344 5.256 1.957l204.234 6.342c105.14-4.373 220.867-13.553 279.788-16.292" fill="#5A9B5A"/><path d="M673.86 263.346c-158.2 5.76-486.197-6.533-642.903 0v101.541l642.903-101.54z" fill="#5EAA6B"/><path d="M30.958 263.346v8.846s261.519-.523 400.634 1.102c139.117 1.622-266.58 41.988-400.634 59.388v32.205l642.903-101.54c-158.2 5.76-486.197-6.534-642.903 0" fill="#5EAA6B"/><path d="M772.412 235.918c-4.844-8.585-16.487-14.637-30.087-14.637-14.719 0-27.146 7.091-31.139 16.809-8.906 1.56-15.454 6.724-15.454 12.866 0 7.379 9.434 13.36 21.074 13.36 2.159 0 4.24-.207 6.2-.589 5.4 2.898 12.083 4.611 19.319 4.611 8.627 0 16.461-2.436 22.281-6.409 2.07.433 4.281.674 6.582.674 11.638 0 21.074-5.984 21.074-13.36 0-7.12-8.784-12.92-19.85-13.325" fill="#5A9B5A"/><path d="M792.261 249.242c0-7.117-8.784-12.92-19.85-13.325a22.616 22.616 0 0 0-3.402-4.527c-10.683 22.488-51.393 17.27-72.586 16.17a8.833 8.833 0 0 0-.69 3.395c0 7.38 9.433 13.36 21.072 13.36 2.159 0 4.242-.205 6.2-.589 5.402 2.898 12.085 4.613 19.32 4.613 8.626 0 16.462-2.438 22.28-6.41 2.072.432 4.281.673 6.584.673 11.638 0 21.072-5.982 21.072-13.36" fill="#5A9B5A"/><path d="M30.958 346.207c112.276 0 592.953-96.7 864.865-96.7v115.379H30.958v-18.68z" fill="#5A9B5A"/><path d="M370.645 364.886c242.225-40.556 525.178-47.533 525.178-47.533v-60.02c-260.15 0-826.64 103.247-864.864 107.553h339.686z" fill="#D8C264"/><path d="M833.812 291.758c53.751 25.265-234.083-26.964-163.519 6.1 70.566 33.059-213.436-11.325-145.398 15.272 68.036 26.6-74.137 26.544-123.793 11.942-49.658-14.598-103.942-4.45-62.726 16.497 41.218 20.948-112.38 19.013-208.034 7.215-54.15 8.937-90.63 15.117-99.384 16.102h339.686c242.226-40.556 525.179-47.533 525.179-47.533v-30.586c-45.692-3.679-89.373-7.868-62.011 4.991" fill="#D8C264"/><path d="M252.256 126.862h160.879c-3.9-4.833-13.034-8.224-23.685-8.224-1.21 0-2.393.06-3.556.145-2.655-2.93-6.673-5.455-11.622-7.35-2.323-5.252-7.67-10.955-14.975-15.3-12.113-7.2-24.976-7.94-28.872-1.695-3.667-2.025-7.777-3.805-12.22-5.214-19.493-6.178-37.917-2.917-41.15 7.283-1.176 3.713-.17 7.83 2.509 11.865-15.616 2.214-27.125 9.64-27.308 18.49" fill="#FCFBE0"/><path fill="#77674D" d="M831.477 217.97l-2.987 3.057-18.997-18.559 2.988-3.058z"/><mask id="b" fill="#fff"><use xlink:href="#a"/></mask><path d="M875.628 129.134a17.808 17.808 0 0 0-3.133-.64c-4.056-28.21-20.87-49.36-41.006-49.36-20.144 0-36.962 21.167-41.01 49.39a17.794 17.794 0 0 0-3.245.664c-13.745 4.236-19.772 24.277-13.458 44.765 6.31 20.489 22.567 33.667 36.315 29.431 2.315-.714 4.406-1.885 6.263-3.422 4.696 2.71 9.797 4.213 15.135 4.213 5.354 0 10.467-1.51 15.173-4.234 1.878 1.56 3.995 2.744 6.34 3.461 13.761 4.191 29.977-9.038 36.226-29.546 6.249-20.508.16-40.531-13.6-44.722" fill="#5A9B5A" mask="url(#b)"/><path d="M889.228 173.857c6.249-20.509.16-40.532-13.6-44.723a17.977 17.977 0 0 0-3.133-.641c-3.12-21.685-13.782-39.186-27.69-46.127 36.85 82.696-30.752 114.19-64.948 104.907 7.879 12.477 19.78 19.331 30.234 16.112 2.315-.714 4.405-1.885 6.263-3.424 4.696 2.712 9.796 4.214 15.135 4.214 5.353 0 10.467-1.511 15.173-4.234 1.878 1.56 3.995 2.744 6.343 3.46 13.758 4.193 29.974-9.036 36.223-29.544" fill="#5A9B5A" mask="url(#b)"/><path d="M482.635 364.886h413.187V335.37c-67.6-9.742-237.456 8.602-413.187 29.517" fill="#427C42" mask="url(#b)"/></g><g transform="translate(-314.37 .629)"><mask id="d" fill="#fff"><use xlink:href="#c"/></mask><path d="M863.38 310.267c-10.188-18.063-34.681-30.796-63.292-30.796-30.966 0-57.11 14.915-65.514 35.362-18.735 3.283-32.513 14.144-32.513 27.069 0 15.524 19.849 28.11 44.335 28.11 4.542 0 8.92-.437 13.045-1.24 11.36 6.094 25.42 9.7 40.647 9.7 18.148 0 34.634-5.13 46.872-13.486 4.36.91 9.009 1.417 13.849 1.417 24.486 0 44.335-12.584 44.335-28.109 0-14.974-18.481-27.178-41.764-28.027" fill="#427C42" mask="url(#d)"/><path d="M905.143 338.294c0-14.975-18.48-27.179-41.764-28.027-4.38-7.766-11.41-14.542-20.272-19.752-.005.055-.016.103-.023.154-5.881 47.045-83.633 61.418-140.674 47.697a18.204 18.204 0 0 0-.35 3.535c0 15.524 19.85 28.112 44.335 28.112 4.543 0 8.923-.438 13.047-1.242 11.359 6.094 25.418 9.701 40.645 9.701 18.15 0 34.635-5.131 46.872-13.486 4.36.91 9.01 1.418 13.85 1.418 24.486 0 44.334-12.586 44.334-28.11" fill="#5A9B5A" mask="url(#d)"/></g><path fill="#5E4F3A" d="M290.993 353.63h17.695V325.7h-17.695z"/><path fill="#77674D" d="M290.993 344.728h17.695v-5.061h-17.695z"/><path fill="#427C42" d="M319.515 287.248l14.737 8.45-15.083-51.888-5.535-8.835 3.562 2.044-19.971-62.204-14.282 55.151 8.05-4.616-11.68 18.64-11.24 43.404 17.038-9.773-30.575 62.046h90.606z"/><path d="M319.515 287.248l14.737 8.45-15.083-51.888-5.535-8.835 3.562 2.044-19.971-62.204c23.958 135.022-12.197 153.77-42.689 164.852h90.606l-25.627-52.42z" fill="#5A9B5A"/><path d="M468.477 63.95c-4.017-9.702-18.372-16.88-35.469-16.88a58.96 58.96 0 0 0-8.976.68c-4.485-4.437-10.456-8.397-17.455-11.264-18.702-7.654-37.663-4.58-42.347 6.868-.496 1.206-.8 2.46-.948 3.743-16.34.456-29.883 7.475-33.764 16.854h138.959z" fill="#FCFBE0"/><path fill="#917E63" d="M93.829 266.919h11.25v-17.755H93.83z"/><path fill="#77674D" d="M93.829 261.26h11.25v-3.219H93.83z"/><path fill="#6FB56F" d="M111.963 224.718l9.367 5.37-9.59-32.985-3.514-5.614 2.26 1.297-12.693-39.544-9.08 35.061 5.116-2.935-7.425 11.849-7.142 27.594L90.09 218.6l-19.436 39.44h57.599z"/><path d="M111.963 224.718l9.367 5.37-9.59-32.985-3.514-5.614 2.26 1.297-12.693-39.544c15.229 85.836-7.755 97.755-27.139 104.798h57.599l-16.29-33.322z" fill="#93D893"/><path d="M-25.763 123.382c-21.117 0-39.904 56.206-39.904 88.324 0 32.118 9.393 30.914 39.904 30.914 30.514 0 39.907 1.204 39.907-30.914s-18.786-88.324-39.907-88.324" fill="#5A9B5A"/><path d="M-23.607 123.583c29.465 29.454 13.09 111.047-40.274 105.926 3.935 13.79 14.917 13.11 38.119 13.11 30.512 0 39.906 1.203 39.906-30.914 0-31.021-17.524-84.506-37.751-88.122" fill="#5A9B5A"/><path fill="#A58763" d="M258.278 217.838l-1.9 1.946-12.087-11.81 1.902-1.945zm1.487-3.187l1.9 1.946 12.09-11.81-1.904-1.945z"/><path fill="#A58763" d="M254.537 239.944h7.483v-36.566h-7.483z"/><path fill="#77674D" d="M258.278 203.38v33.239h-3.74v3.326h7.482v-36.566z"/><path d="M258.278 126.263c-14.58 0-27.548 38.8-27.548 60.972 0 22.172 6.487 21.343 27.548 21.343 21.063 0 27.55.829 27.55-21.343s-12.97-60.972-27.55-60.972" fill="#B5F4B5"/><path d="M259.765 126.4c20.342 20.333 9.038 76.661-27.802 73.126 2.715 9.52 10.296 9.05 26.315 9.05 21.063 0 27.55.831 27.55-21.34 0-21.415-12.1-58.339-26.063-60.836" fill="#5A9B5A"/></g></svg>