<svg width="120" height="120" viewBox="0 0 120 120" xmlns="http://www.w3.org/2000/svg"><g fill="none" fill-rule="evenodd"><path d="M29.545 41.193a4.93 4.93 0 0 1 4.812-3.907h42.327a4.194 4.194 0 0 1 4.085 3.29l3.55 12.143a5.173 5.173 0 0 0 4.323 4.005l12.847 1.807c3.116.438 5.434 3.119 5.434 6.284v16.43c0 2.1-1.69 3.799-3.774 3.799H16.424c-2.087 0-3.776-1.7-3.776-3.798V62.848c0-1.727.983-3.3 2.53-4.049l6.907-3.34a9.132 9.132 0 0 0 4.946-6.31l2.514-7.956z" fill="#755757"/><path d="M51.502 55.444v-16.61h21.123a5.243 5.243 0 0 1 5.087 4.017l3.057 12.593v25.362H51.502V55.444z" fill="#FFF"/><path d="M79.23 55.466L76.793 44.17a4.789 4.789 0 0 0-4.674-3.789H54.41v15.085h24.822zm-7.765 23.641c0 6.86 5.527 12.418 12.344 12.418 6.819 0 12.345-5.559 12.345-12.418 0-6.857-5.526-12.417-12.345-12.417-6.817 0-12.344 5.56-12.344 12.417" fill="#522D2D"/><path d="M77.445 79.197c0 3.488 2.81 6.316 6.278 6.316 3.466 0 6.277-2.828 6.277-6.316 0-3.487-2.81-6.316-6.277-6.316-3.468 0-6.278 2.829-6.278 6.316" fill="#FFF"/><path d="M81.575 79.44a1.91 1.91 0 0 0 1.905 1.916 1.91 1.91 0 0 0 1.905-1.916 1.91 1.91 0 0 0-1.905-1.916 1.91 1.91 0 0 0-1.905 1.916" fill="#522D2D"/><path d="M103.874 71.24c.835 0 1.51-.68 1.51-1.52v-4.605c0-.839-.675-1.52-1.51-1.52-.836 0-1.512.681-1.512 1.52v4.604c0 .84.676 1.521 1.512 1.521m4.226 4.736h-7.834c-1.05 0-1.9.856-1.9 1.912v6.515h6.437c2.87 0 5.197-2.34 5.197-5.228v-1.288c0-1.055-.85-1.91-1.9-1.91m-95.526-.001h7.835c1.048 0 1.899.856 1.899 1.912v6.515H15.87c-2.871 0-5.197-2.34-5.197-5.228v-1.288c0-1.055.85-1.91 1.9-1.91" fill="#FFF"/><path fill="#AE392E" d="M17.692 72.231h-5.224v-8.636h5.224z"/><path fill="#FFD800" d="M17.692 66.144h-5.224v-2.549h5.224z"/><path fill="#522D2D" d="M60.77 60.317h-6.052v-2.912h6.051zm-20 0h-6.052v-2.912h6.051zm-9.498-4.851H50V40.38H36.442a3.275 3.275 0 0 0-3.228 2.773l-1.942 12.312zm-9.037 23.641c0 6.86 5.527 12.418 12.343 12.418 6.819 0 12.345-5.559 12.345-12.418 0-6.857-5.526-12.417-12.345-12.417-6.816 0-12.343 5.56-12.343 12.417"/><path d="M28.212 79.197c0 3.488 2.811 6.316 6.279 6.316 3.467 0 6.278-2.828 6.278-6.316 0-3.487-2.81-6.316-6.278-6.316-3.468 0-6.279 2.829-6.279 6.316" fill="#FFF"/><path d="M32.343 79.44a1.91 1.91 0 0 0 1.905 1.916 1.911 1.911 0 0 0 1.906-1.916 1.911 1.911 0 0 0-1.906-1.916 1.91 1.91 0 0 0-1.905 1.916" fill="#522D2D"/><path d="M53.065 28c2.555 0 4.627 2.085 4.627 4.655v2.769h-9.255v-2.769c0-2.57 2.072-4.655 4.628-4.655" fill="#AE392E"/><path fill="#FFF" d="M60.77 36.297H46.342V34.19H60.77z"/></g></svg>