<svg width="120" height="120" viewBox="0 0 120 120" xmlns="http://www.w3.org/2000/svg" xmlns:xlink="http://www.w3.org/1999/xlink"><defs><path id="a" d="M0 .402h119.358v113.513H0z"/></defs><g fill="none" fill-rule="evenodd"><g transform="translate(0 3.683)"><mask id="b" fill="#fff"><use xlink:href="#a"/></mask><path d="M96.089 16.083C85.518 6.034 69.992 3.168 62.256 6.697 50.182 12.204 43.438.402 43.438.402s4.548 14.95 15.839 14.95c11.29 0 17.72 5.508 14.582 11.173-3.135 5.665-9.095 2.518-9.095 2.518s-15.838-15.265-33.871-5.98C12.859 32.348 0 10.316 0 10.316c3.293 13.376 5.489 31.632 26.816 39.185 21.326 7.554 8.624 28.17.314 14.164C18.817 49.658 3.137 52.492 3.137 52.492c11.76 5.823 12.859 12.904 17.25 30.53 1.613 6.477 4.986 11.142 8.605 14.46.328.35.649.702.99 1.045 20.446 20.518 53.596 20.518 74.042 0 20.446-20.519 20.446-53.786 0-74.305-.503-.505-2.794-2.943-3.57-3.718-.22-.222-4.14-4.208-4.365-4.421" fill="#F77527" mask="url(#b)"/></g><path d="M99.805 97.976c-18.087 18.15-47.517 18.15-65.605 0-.196-.199-.384-.403-.575-.606l-.447-.478-.162-.149c-3.421-3.133-5.722-7-6.842-11.491l-.745-3.01c-1.018-4.125-1.917-7.77-2.927-11.025 3.25 5.009 6.994 6.472 9.62 6.8 3.203.401 6.385-.718 8.73-3.072h.001c3.077-3.09 4.331-7.916 3.273-12.596-.863-3.81-3.998-10.798-15.326-14.81-8.982-3.181-13.904-8.532-16.995-14.78 6.277 2.823 13.736 3.473 21.81-.686 13.934-7.172 26.509 4.492 27.036 4.99l.594.562.741.4c3.155 1.665 9.83 3.143 14.845-1.889a13.6 13.6 0 0 0 2.245-3.02c2.071-3.741 2.057-7.94-.041-11.515-1.724-2.943-4.73-5.233-8.62-6.7 6.235.108 14.909 2.88 21.57 9.211.228.226 2.05 2.076 3.22 3.266l1.03 1.042c.424.425 1.295 1.342 2.065 2.152.67.703 1.27 1.332 1.505 1.567 18.086 18.152 18.086 47.686 0 65.837" fill="#F7921E"/><path d="M95.586 93.742c-15.76 15.817-41.405 15.817-57.166 0-.12-.121-.237-.247-.353-.372l-.695-.741-.328-.303c-2.486-2.277-4.174-5.067-5.023-8.3 4.822.414 9.547-1.331 13.048-4.845 4.516-4.534 6.384-11.49 4.875-18.159-1.134-5.012-5.132-14.162-19.157-19.13a30.466 30.466 0 0 1-3.325-1.392c2.994-.566 5.965-1.599 8.878-3.1 10.19-5.247 19.815 3.64 20.22 4.022l1.166 1.1 1.43.774c6.215 3.283 15.359 3.631 21.894-2.927a19.591 19.591 0 0 0 3.242-4.345c1.528-2.759 2.285-5.754 2.279-8.73.43.357.85.731 1.266 1.124.316.314 1.769 1.789 2.853 2.891l1.304 1.323c.421.423 1.221 1.264 1.937 2.018a145.58 145.58 0 0 0 1.655 1.723c15.761 15.817 15.761 41.552 0 57.37" fill="#F7A621"/></g></svg>