<svg width="120" height="120" viewBox="0 0 120 120" xmlns="http://www.w3.org/2000/svg" xmlns:xlink="http://www.w3.org/1999/xlink"><defs><path id="a" d="M.2.3h13.173v5.567H.2z"/></defs><g fill="none" fill-rule="evenodd"><path d="M49.126 111.244c-1.764 1.09-3.041 3.283-1.535 5.096 1.141 1.28 2.82.255 4.093-.283 1.411-.675 3.024-1.158 4.299-2.035.824-.576 1.792-1.168 2.349-2.029.168-.266.251-.555.188-.749h-9.394zm20.074 0c1.764 1.09 3.043 3.283 1.534 5.096-1.139 1.28-2.818.255-4.093-.283-1.41-.675-3.02-1.158-4.298-2.035-.82-.576-1.79-1.168-2.347-2.029-.17-.266-.254-.555-.19-.749h9.393z" fill="#4F2A11"/><path fill="#545C32" d="M47.009 85.398l1.916 25.846h9.724l.373-18.599h.284l.368 18.599h9.723l1.92-25.846z"/><path d="M90.097 60.63c-.325-.06-.676-.025-1.058.036-.337-.433-.775-.97-1.05-1.146-.537-.337-1.762-.637-2.789-.635a1.33 1.33 0 0 0-.132-.264c-.396-.61-1.628-1.543-2.66-1.895a1.105 1.105 0 0 0-.02-.165c-.154-.769-1.086-2.259-1.981-2.91-.02-.787-.41-2.112-.96-2.94a1.14 1.14 0 0 0 .125-.228c.347-.843.368-3.067-.242-3.96.08-.088.15-.174.193-.24.567-.933.977-3.886.002-4.368.567-.934.975-3.885-.002-4.361-.493-.239-1.628.824-1.723 1.367-.06.322-.019.676.052 1.058-.424.34-.956.79-1.122 1.073-.57.928-.981 3.885-.004 4.361-.567.934-.977 3.887.004 4.363a.265.265 0 0 0 .091.027 1.33 1.33 0 0 0-.142.254c-.418 1.01-.364 3.995.678 4.313.047.018.1.02.156.012-.075 1.103.867 3.893 1.95 3.875.117 0 .237-.07.349-.184.387 1.152 1.93 3.252 2.899 2.953.13-.038.237-.167.319-.346a.434.434 0 0 0 .052.092c.595.918 3.084 2.562 3.933 1.88a.522.522 0 0 0 .152-.287c1.007.554 3.787.963 4.258.019.25-.49-.792-1.643-1.328-1.755M41.804 45.414c.977-.478.565-3.433-.002-4.363-.166-.281-.694-.733-1.125-1.073.07-.38.114-.734.055-1.056-.1-.543-1.232-1.606-1.724-1.368-.98.475-.564 3.425-.002 4.36-.978.484-.562 3.437.002 4.369.043.067.11.153.193.238-.609.893-.59 3.118-.241 3.96.026.07.069.149.126.23-.549.829-.936 2.151-.96 2.941-.9.65-1.83 2.14-1.986 2.91a1.558 1.558 0 0 0-.017.165c-1.033.352-2.267 1.282-2.66 1.893a1.203 1.203 0 0 0-.131.266c-1.024-.004-2.252.295-2.79.635-.28.175-.715.71-1.048 1.144-.385-.06-.739-.096-1.057-.035-.538.112-1.58 1.264-1.334 1.755.475.944 3.25.535 4.261-.02a.475.475 0 0 0 .157.288c.848.682 3.331-.964 3.926-1.88a.641.641 0 0 0 .055-.092c.083.18.183.307.32.346.967.297 2.512-1.803 2.894-2.953.114.112.236.183.351.183 1.084.017 2.029-2.773 1.953-3.876a.3.3 0 0 0 .155-.013c1.041-.315 1.092-3.3.678-4.312a1.725 1.725 0 0 0-.138-.254.328.328 0 0 0 .087-.025c.979-.478.569-3.429.002-4.363" fill="#F7B90B"/><path d="M90.567 42.994c-1.171-.496-2.576-.042-3.713 1.05-.518-.77-1.135-1.202-1.71-1.092-1.054.201-1.555 2.181-1.106 4.418.162.83.436 1.58.763 2.188.144 1.318.772 2.389 1.803 2.822 1.8.763 4.148-.714 5.242-3.309 1.095-2.593.524-5.313-1.279-6.077" fill="#FDDFBB"/><path d="M84.954 50.558l-5.293 6.372-11.382-4.147C66.35 51.452 61 51.336 61 51.336l-1.718.138h-.144l-1.72-.163s-5.244.2-7.22 1.508v-.028s-6.298 3.3-8.042 5.533c-3.585 4.596-4.96 18.406-4.96 18.406l4.666-.006s1.269-9.978 2.93-12.34c.521-.74.927-1.228 1.206-1.654-2.086 9.791-2.343 22.826-2.343 22.826l-.004 13.63h31.114v-13.63s-.297-14.997-2.828-24.932c1.384.547 8.326 3.179 10.452 2.407 2.923-1.062 7.234-10.153 7.234-10.153l-4.668-2.32z" fill="#EEEEED"/><path fill="#D6843B" d="M54.127 106.602l-17.063 3.433-5.492-27.41 17.067-3.438z"/><path fill="#E1E1E1" d="M52.568 104.361l-14.93 3.01-4.782-23.896 14.929-3.004z"/><path d="M40.109 80.056c.436-.087.853.147.948.527l-1.616.322c-.057-.385.235-.763.668-.849zm1.38.44c-.14-.592-.781-.963-1.455-.824-.674.132-1.127.722-1.026 1.322l-3.006.605.35 1.762 8.532-1.715-.351-1.763-3.044.613z" fill="#B2B2B2"/><path fill="#6E6E6D" d="M43.305 83.857l-8.842 1.78-.087-.44 8.842-1.777zm-4.277 1.778l-4.387.885-.092-.442 4.39-.883zm8.405-.712l-12.606 2.54-.09-.442 12.609-2.537zm-.123 1.007l-12.295 2.476-.09-.44 12.298-2.475zm.494.818L35.19 89.283l-.086-.437 12.61-2.54z"/><path d="M36.31 79.236c.108-.97.424-1.807.885-2.476l4.351-.008c.04.07.098.166.13.24.428.415.832.97 1.182 1.616.9 1.705.993 3.433.207 3.85-.423.224-1.01.024-1.602-.466-.64 1.146-1.64 1.846-2.686 1.736-1.606-.167-2.709-2.182-2.467-4.492" fill="#FDDFBB"/><path d="M59.825 69.161l2.028-4.599 2.47-13.145c-1.724-.26-3.261-.313-3.261-.313l-1.716.05H59.2l-1.716-.068s-1.382.063-2.995.3l2.2 13.18 1.881 4.298.735 1.067.52-.77z" fill="#91C78F"/><path d="M59.325 69.942s-3.224-13.287-4.19-18.647c-1.259.157-2.771.421-3.91.855l.523 3.27 2.159.552-1.097 2.116s2.463 9.186 6.515 11.854" fill="#D0D0D0"/><path d="M59.282 69.942s3.224-13.287 4.19-18.647c1.26.157 2.774.421 3.91.855l-.527 3.27-2.152.552 1.098 2.116s-2.469 9.186-6.52 11.854" fill="#D0D0D0"/><path d="M60.021 85.575a.618.618 0 1 1-1.234 0 .618.618 0 1 1 1.234 0m0-6.159a.617.617 0 1 1-1.234 0 .617.617 0 1 1 1.234 0m0-6.347a.616.616 0 1 1-1.234 0 .618.618 0 1 1 1.234 0" fill="#4F4F4F"/><path d="M70.395 69.77c0 .128-.11.238-.242.238h-.026a.243.243 0 0 1-.246-.239v-5.29c0-.133.108-.243.246-.243h.026c.132 0 .242.11.242.242v5.291z" fill="#B2B2B2"/><path d="M70.127 61.673h-.03c-.152 0-.274.128-.303.254h-.04v-.008c0-.035-.053-.053-.09-.053-.034 0-.036.018-.036.053v2.051c0 .035.002.076.036.076.037 0 .09-.04.09-.076v-1.66h.065v1.998c0 .165.11.316.278.316h.03c.169 0 .33-.15.33-.316v-2.34c0-.171-.161-.295-.33-.295" fill="#0771B7"/><path fill="#D0D0D0" d="M65.082 72.636h5.695v-7.824h-5.695z"/><path fill="#878888" d="M65.147 66.352h5.63v-.059h-5.63z"/><path d="M50.407 65.76c-.103-13.553 5.77-14.753 5.77-14.753l.266-.778s-7.019.588-7.01 15.532c0 .474.978.246.974 0" fill="#4F4F4F"/><path d="M51.892 67.12a1.971 1.971 0 0 1-1.973 1.975 1.976 1.976 0 0 1 0-3.952c1.09 0 1.973.886 1.973 1.976" fill="#B2B2B2"/><path d="M66.755 57.827c-.148-6.565-5.021-7.597-5.021-7.597l.26.776s3.902 1.105 3.798 6.821a2.74 2.74 0 0 0-2.235 2.945h.83a1.914 1.914 0 0 1 1.894-2.16 1.913 1.913 0 0 1 1.889 2.16H69a4.34 4.34 0 0 0 .008-.248 2.73 2.73 0 0 0-2.253-2.697" fill="#4F4F4F"/><path d="M63.687 60.773s.183 8.134 4.723 8.07v-.575s-3.8.264-4.152-7.495h-.57z" fill="#B2B2B2"/><path d="M68.835 68.55c0 .17-.203.306-.451.306-.25 0-.453-.136-.453-.307 0-.169.203-.311.453-.311.248 0 .45.142.45.311" fill="#908F90"/><path d="M68.898 60.773s-.104 8.134-4.645 8.07v-.575s3.723.264 4.074-7.495h.57z" fill="#B2B2B2"/><path d="M63.75 68.55c0 .17.2.306.454.306.247 0 .446-.136.446-.307 0-.169-.199-.311-.446-.311-.254 0-.453.142-.453.311" fill="#908F90"/><path d="M81.405 31.105c.164-1.095.246-2.218.246-3.362 0-12.36-9.99-22.374-22.317-22.374-12.324 0-22.322 10.015-22.322 22.374 0 1.087.08 2.157.23 3.201-1.287.712-2.16 2.047-2.16 3.58 0 2.269 1.91 4.109 4.263 4.109.16 0 .319-.009.475-.025 3.813 6.862 11.118 11.505 19.514 11.505 8.385 0 15.686-4.636 19.505-11.487.065.005.128.007.195.007 2.355 0 4.263-1.84 4.263-4.11 0-1.426-.753-2.677-1.892-3.418" fill="#FDDFBB"/><path d="M53.229 28.096c-.772-.174-.908-1.201-3.386-.74-.779.18-2.417 1.156-2.732 1.808-.316.652-.088-2.392 2.457-3.522 1.835-.675 2.457-.642 3.977-.642s1.987.907 1.766 1.65c0 0-.503 1.803-2.082 1.446zm13.905 0c.772-.174.908-1.201 3.386-.74.779.18 2.417 1.156 2.732 1.808.316.652.087-2.392-2.457-3.522-1.835-.675-2.457-.642-3.977-.642s-1.987.907-1.766 1.65c0 0 .503 1.803 2.082 1.446z" fill="#F7B90B"/><path d="M53 34c0 1.657-.895 3-2 3s-2-1.343-2-3 .895-3 2-3 2 1.343 2 3m18 0c0 1.657-.895 3-2 3s-2-1.343-2-3 .895-3 2-3 2 1.343 2 3" fill="#6172BB"/><path d="M60.02 37.07c.839-.115 2.96 1.756 2.96 1.756s.103-.414-.34-1.238C62.163 36.703 59.99 36 59.99 36s-1.687.448-2.487 1.604c-.296.29-.503 1.299-.503 1.299s1.895-1.681 3.02-1.834z" fill="#EEAC6C"/><g transform="translate(53 40)"><mask id="b" fill="#fff"><use xlink:href="#a"/></mask><path d="M.2.696S7.097 3.904 13.372.299c0 0-1.39 5.47-5.95 5.561-4.115.122-4.984-1.492-5.477-1.956C1.453 3.441.525 2.132.2.696" fill="#EEAC6C" mask="url(#b)"/></g><path d="M57.589 52.791h3.648c1.046 0 1.888-2.194 1.888-3.24H55.7c0 1.046.845 3.24 1.889 3.24" fill="#FDDFBB"/><path d="M56.502 51.986l6.595-2.183.014-.01a22.465 22.465 0 0 1-7.39.026c.062.643.357 1.532.781 2.167" fill="#EEAC6C"/><path d="M82.533 24.827c-.014-1.17-.1-2.591-.264-4.111C79.272 10.87 70.14 3.708 59.333 3.708c-9.405 0-17.542 5.43-21.47 13.33-1.089 3.106-1.755 6.163-1.808 7.538-.193 4.787 1.19 6.368 1.19 6.368s4.024-5.578 8.781-8.924c3.734-2.633 7.066 2.452 11.508-1.905.396-.384 1.88-1.89 1.88-1.89s1.218 1.373 1.874 1.89c3.95 3.128 6.152-.423 10.572 1.987 3.616 1.972 9.544 9.003 9.544 9.003s1.164-3.653 1.13-6.278" fill="#F7B90B"/></g></svg>