<svg width="480" height="360" viewBox="0 0 480 360" xmlns="http://www.w3.org/2000/svg" xmlns:xlink="http://www.w3.org/1999/xlink"><defs><path id="a" d="M0 .38h480v171.443H0z"/></defs><g fill="none" fill-rule="evenodd"><path fill="#74D3F2" d="M0 359.64h480V-3H0z"/><path fill="#4897A3" d="M346.73 150.826l17.894-49.613 22.774 50.427zm-313.562 18.49l17.894-49.613 22.774 50.427z"/><path d="M55.129 135.156l3.554 1.422-7.62-16.875L44.822 137a989.08 989.08 0 0 1 2.579 5.475l1.626-3.253 2.554-10.053 3.547 5.986z" fill="#FFF"/><path fill="#4897A3" d="M211.69 166.826l20.333-40.146 20.334 40.96zm55.04 9.6l20.333-40.146 20.334 40.96z"/><path fill="#5ABECC" d="M158.119 153.667l31.467-63.16 2.64 3.48 3.4-11.233 11.597 30.567 3.67-5.678 21.198 43.879-51.222 4.63z"/><path fill="#FFF" d="M197.918 121.063l.825-20.623 4.636 2.748-7.753-20.433-3.4 11.232-2.64-3.48 6.34 21.278z"/><path fill="#3A7982" d="M157.097 155.78l32.489-65.273 2.64 3.48 3.4-11.233 2.988 20.187-1.207 20.101-2.448-6.52.85 38.28-14.94 1.35z"/><path fill="#5ABECC" d="M376.459 171.966l-49.646-80.551-3.106 4.967-5.898-14.59-11.798 42.22-5.587-7.14-23.011 61.16h68.964z"/><path fill="#FFF" d="M317.809 81.79l-11.798 42.223-5.587-7.14 6.83 32.908 9.002-40.67 4.657 11.487 5.9-29.183-3.105 4.967z"/><path fill="#3A7982" d="M378.079 174.665l-51.267-83.25-3.104 4.967-5.9-14.591-1.552 27.32 4.036 26.699 2.484-9.003 3.485 51.225h20.117z"/><path fill="#5ABECC" d="M379.41 201.682l33.196-88.607 4.004 4.276 2.977-15.455 19.711 39.159 4.108-8.084 34.362 55.58-67.673 13.288z"/><path fill="#FFF" d="M419.588 101.896l19.71 39.159 4.108-8.083-.362 33.607-16.67-38.174-2.356 12.17-11.412-27.5 4.004 4.276z"/><path fill="#3A7982" d="M378.34 204.642l34.266-91.567 4.004 4.276 2.977-15.455 6.788 26.509 1.182 26.977-4.171-8.356 6.45 50.937-19.74 3.876z"/><path fill="#4897A3" d="M140.31 184.445l-49.645-80.551-3.106 4.967-5.899-14.59-11.797 42.22-5.588-7.14-23.01 61.16h68.964z"/><path fill="#FFF" d="M81.66 94.27l-11.797 42.222-5.587-7.14 6.83 32.908 9.002-40.67 4.657 11.487 5.9-29.183-3.106 4.967z"/><path fill="#3A7982" d="M141.93 187.144l-51.266-83.25-3.105 4.967-5.898-14.59-1.553 27.319 4.036 26.699 2.484-9.003 3.485 51.225h20.117z"/><path d="M480 338.021v-190.16c0 3.726-49.686-2.355-54.49-3.766-16.23-4.765-30.92-3.785-47.81-3.333-15.536.416-29.691 5.684-43.27 12.667-12.241 6.297-29.129 5.387-42.586 4.486-22.148-1.483-44.062-5.459-66.254-6.417-19.591-.847-36.682 3.432-55.827 7.519-20.452 4.365-41.596 11.384-62.758 8.961-22.085-2.529-41.236-8.797-63.895-8.505-4.995.064-43.095-1.428-43.11 6.861V359.64h449.037c11.107-5.352 21.46-12.873 30.963-21.619" fill="#50D0D9"/><g transform="translate(0 187.817)"><mask id="b" fill="#fff"><use xlink:href="#a"/></mask><path d="M440.636 6.842c-45.965 9.138-94.251-3.245-140.843-1.68-45.705 1.533-89.896 17.314-135.81 19.149-34.373 1.373-68.12-8.897-102.791-6.693-19.486 1.24-39.63 2.564-58.017 9.646A25.948 25.948 0 0 0 0 28.714v143.109h480V.525c-12.733-1.078-28.563 4.17-39.364 6.317" fill="#FFF" mask="url(#b)"/></g><path d="M440.636 194.659c-45.965 9.138-94.251-3.246-140.843-1.681-45.705 1.534-89.896 17.315-135.81 19.15-34.373 1.373-68.12-8.898-102.791-6.693-19.486 1.239-39.63 2.564-58.017 9.645A25.948 25.948 0 0 0 0 216.531V359.64h480v-171.3c-12.733-1.078-28.563 4.17-39.364 6.318" fill="#E4F1F2"/><path d="M260.183 54.247c-27.52 5.12-144 10.88-109.44-5.76 1.824-.878 56.96-33.92 119.68-7.04 0 0 17.28 7.68-10.24 12.8m158.72-12.16c-58.24 16.64-137.6-5.76-177.92-20.48-40.32-14.72-122.88 17.92-160.64 21.76C54.036 46.042 23.073 34.74 0 30.885v22.722c26.28 7.534 96.642 61.209 150.103 44.8 64.64-19.84 94.924-25.568 138.24-19.2 43.316 6.368 161.28-3.2 189.44-22.4.77-.525 1.505-1.041 2.217-1.552V31.847c-12.056-2.28-30.218 1.417-61.097 10.24" fill="#FFF"/><path d="M85.124 184.916a1.362 1.362 0 1 0 2.725 0 1.362 1.362 0 0 0-2.725 0zM79.99 8.756a1.057 1.057 0 1 0-2.114-.003 1.057 1.057 0 0 0 2.114.002zm-.377 144.247a1.362 1.362 0 1 0 .002-2.724 1.362 1.362 0 0 0-.002 2.724zm9.574 61.98a1.342 1.342 0 1 0 2.684 0 1.342 1.342 0 0 0-2.684 0zm6.508-140.138a1.072 1.072 0 1 0-.001 2.143 1.072 1.072 0 0 0 0-2.143zm-.061 38.596a.538.538 0 1 0 1.075 0 .538.538 0 0 0-1.075 0zm4.759 160.313c0 .667.54 1.206 1.208 1.206a1.206 1.206 0 1 0 0-2.414c-.667 0-1.208.54-1.208 1.208zm-52.16 31.38a1.207 1.207 0 1 0 2.415 0 1.207 1.207 0 0 0-2.415 0zm28.793-255.14a2.187 2.187 0 1 0-4.373-.001 2.187 2.187 0 0 0 4.373 0zm-26.37-5.765a1.058 1.058 0 1 0-2.116 0 1.058 1.058 0 0 0 2.116 0zm-1.74 128.73a1.874 1.874 0 1 0 0 3.748 1.874 1.874 0 0 0 0-3.748zM71.77 85.81a1.504 1.504 0 1 0 3.008 0 1.504 1.504 0 0 0-3.008 0zM68.7 283.304a.958.958 0 1 0 1.915 0 .958.958 0 0 0-1.915 0zm-11.017-37.42a2.148 2.148 0 1 0 4.296 0 2.148 2.148 0 0 0-4.296 0zm54.699 66.094a1.343 1.343 0 1 0 2.685 0 1.343 1.343 0 0 0-2.685 0zm28.63-108.49a1.094 1.094 0 1 0-.001 2.187 1.094 1.094 0 0 0 .001-2.188zm3.457-115.292a1.41 1.41 0 1 0-2.82.001 1.41 1.41 0 0 0 2.82 0zm5.412-68.901a2.115 2.115 0 1 0-4.23.001 2.115 2.115 0 0 0 4.23-.001zm-1.506 246.548a1.64 1.64 0 1 0 0-3.282 1.64 1.64 0 1 0 0 3.282zm14.89 25.596a1.094 1.094 0 1 0 2.188 0 1.094 1.094 0 0 0-2.187 0zm-3.15-128.201a1.504 1.504 0 1 0 3.007.001 1.504 1.504 0 0 0-3.008-.001zM105.472 30.6a1.072 1.072 0 1 0 0-2.144 1.072 1.072 0 0 0 0 2.144zm11.387 172.612a.957.957 0 1 0 0 1.915.957.957 0 0 0 0-1.915zM45.505 22.388a1.34 1.34 0 1 0-.001-2.678 1.34 1.34 0 0 0 0 2.678zm60.172 134.85a1.503 1.503 0 1 0 0-3.007 1.503 1.503 0 0 0 0 3.007zm21.008 129.477a.957.957 0 1 0 1.914.001.957.957 0 0 0-1.914-.001zm2.23-242.858a.537.537 0 1 0 1.076 0 .537.537 0 0 0-1.075 0zm-9.734 193.798a2.147 2.147 0 1 0 0-4.296 2.149 2.149 0 1 0 0 4.296zm14.94-52.587a2.115 2.115 0 1 0 4.23 0 2.115 2.115 0 0 0-4.23 0zm317.78-10.962a1.504 1.504 0 1 0 3.007 0 1.504 1.504 0 0 0-3.008 0zm-31.34-10.276a1.322 1.322 0 1 0 .001-2.644 1.322 1.322 0 0 0 0 2.644zm10.33 84.19a1.128 1.128 0 1 0 0 2.255 1.128 1.128 0 0 0 0-2.256zm5.115-114.505a1.074 1.074 0 1 0 0 2.148 1.074 1.074 0 0 0 0-2.148zm1.568 78.793a.678.678 0 1 0 0-1.355.678.678 0 0 0 0 1.355zm-6.822-165.09a1.505 1.505 0 1 0 0 3.008 1.505 1.505 0 0 0 0-3.009zm-10.644-23.33a.678.678 0 1 0 0-1.356.678.678 0 0 0 0 1.355zm-5.452 261.042a1.429 1.429 0 1 0 2.858 0 1.429 1.429 0 0 0-2.858 0zm6.545-197.738a.958.958 0 1 0 0 1.915.958.958 0 0 0 0-1.915zM15.158 6.337h-.705c.11.039.23.064.353.064.124 0 .242-.025.352-.064zM480 88.65c-.37.274-.611.71-.611 1.205 0 .494.242.93.611 1.204v-2.41zM409.6 6.963c.356 0 .64-.277.667-.626h-1.335c.027.35.312.626.667.626zm32.133 95.17a.957.957 0 1 0 1.914.002.957.957 0 0 0-1.914-.001zm-26.396 18.007a1.436 1.436 0 1 0 1.436 1.436c0-.793-.643-1.436-1.436-1.436zm-.957 87.086a1.057 1.057 0 1 0 .001-2.115 1.057 1.057 0 0 0-.001 2.115zM167.416 238.62a1.504 1.504 0 1 0-3.008 0 1.504 1.504 0 0 0 3.008 0zM14.124 312.33a1.056 1.056 0 1 0 0-2.114 1.057 1.057 0 1 0 0 2.115zm-1.891-68.436a1.206 1.206 0 1 0 0 2.414 1.208 1.208 0 1 0 0-2.414zm8.788-150.24a1.288 1.288 0 1 0 2.577 0 1.288 1.288 0 0 0-2.577 0zm2.653-45.025a.922.922 0 1 0 1.844 0 .922.922 0 0 0-1.844 0zm-9.892-27.868a.922.922 0 1 0 0 1.844.922.922 0 0 0 0-1.844zm1.613 112.801a1.288 1.288 0 1 0 2.575 0 1.288 1.288 0 0 0-2.575 0zm456.97-12.668a1.322 1.322 0 1 0 0 2.645 1.322 1.322 0 0 0 0-2.645zm-15.148-47.753a2.186 2.186 0 1 0 4.375 0 2.187 2.187 0 1 0-4.375 0zM42.4 302.405a1.057 1.057 0 1 0 2.116 0 1.057 1.057 0 0 0-2.116 0zm422.698-65.092a1.128 1.128 0 1 0 2.256 0 1.128 1.128 0 0 0-2.256 0zM4.327 204.93a1.61 1.61 0 1 0 1.61-1.61c-.89 0-1.61.72-1.61 1.61zM0 290.602c.104.028.21.049.323.049a1.207 1.207 0 1 0 0-2.415 1.2 1.2 0 0 0-.323.05v2.316zm443.65 19.196a1.429 1.429 0 1 0 2.857 0 1.429 1.429 0 0 0-2.858 0zm31.444-104.311zM232.15 43.544a1.428 1.428 0 1 0-2.857 0 1.428 1.428 0 0 0 2.857 0zm107.26-29a1.435 1.435 0 1 0 0-2.872 1.435 1.435 0 1 0 0 2.872zm-9.009 249.68a2.116 2.116 0 1 0 4.231-.003 2.116 2.116 0 0 0-4.231.002zm17.806-222.98a1.88 1.88 0 1 0 0 3.76 1.88 1.88 0 0 0 0-3.76zM337.292 75.88a.678.678 0 1 0-.001 1.355.678.678 0 0 0 0-1.355zm-16.969 119.425a1.074 1.074 0 1 0 2.149 0 1.074 1.074 0 0 0-2.149 0zm19.015-91.106a1.794 1.794 0 1 0-1.795-1.795c0 .992.803 1.795 1.795 1.795zm-43.302 8.13a1.455 1.455 0 1 0-.001 2.91 1.455 1.455 0 0 0 .001-2.91zm2.562 174.902a1.879 1.879 0 1 0 0-3.76 1.88 1.88 0 0 0 0 3.76zm10.915-34.634a.678.678 0 1 0 0-1.355.678.678 0 0 0 0 1.355zm38.011 52.491a2.08 2.08 0 1 0-.002-4.16 2.08 2.08 0 0 0 .002 4.16zM301.36 25.467a2.078 2.078 0 1 0-4.157 0 2.078 2.078 0 0 0 4.157 0zm15.045 38.785a2.115 2.115 0 1 0-4.23 0 2.115 2.115 0 0 0 4.23 0zm-8.937 160.024a1.795 1.795 0 1 0 0 3.59 1.795 1.795 0 0 0 0-3.59zm8.186-101.578a1.074 1.074 0 1 0 .002-2.148 1.074 1.074 0 0 0-.002 2.148zm-8.257 191.233a1.435 1.435 0 1 0 0 2.872 1.436 1.436 0 0 0 0-2.872zm83.193-92.727a2.313 2.313 0 1 0 0-4.624 2.312 2.312 0 1 0 0 4.624zm3.122-80.867a1.075 1.075 0 1 0-2.15.001 1.075 1.075 0 0 0 2.15 0zm-.727-31.812a1.458 1.458 0 1 0-2.916 0 1.458 1.458 0 1 0 2.916 0zM171.71 122.988a2.115 2.115 0 1 0 0 4.231 2.115 2.115 0 0 0 0-4.23zm214.017 145.875a1.057 1.057 0 1 0 0 2.114 1.058 1.058 0 1 0 0-2.114zm2.116-100.94a1.322 1.322 0 1 0 0-2.644 1.322 1.322 0 0 0 0 2.644zm-33.497 111.548a1.056 1.056 0 1 0 0 2.114 1.057 1.057 0 1 0 0-2.114zm0-143.758c-.806 0-1.458.654-1.458 1.46a1.457 1.457 0 1 0 2.916 0c0-.806-.651-1.46-1.458-1.46zm-10.91 52.723a.678.678 0 1 0 1.355 0 .678.678 0 0 0-1.355 0zm33.464-66.902a1.322 1.322 0 1 0 .001-2.645 1.322 1.322 0 0 0 0 2.645zm-31.329 35.176a1.074 1.074 0 1 0-2.148 0 1.074 1.074 0 0 0 2.148 0zm28.559-73.337a2.188 2.188 0 1 0-.001 4.376 2.188 2.188 0 0 0 0-4.376zm-8.186-32.062a.677.677 0 1 0 1.354 0 .677.677 0 0 0-1.354 0zm42.978-40.182a1.057 1.057 0 1 0 0-2.115 1.058 1.058 0 1 0 0 2.115zM215.914 80.456a1.128 1.128 0 1 0 0-2.256 1.128 1.128 0 0 0 0 2.256zm.138 200.801a1.504 1.504 0 1 0 .003-3.007 1.504 1.504 0 0 0-.003 3.007zm10.645 24.685a.677.677 0 1 0 .001-1.354.677.677 0 0 0-.001 1.354zm-18.144-189.098a.677.677 0 1 0 1.354 0 .677.677 0 0 0-1.354 0zm18.008 123.482a.957.957 0 1 0-1.914-.002.957.957 0 0 0 1.914.002zm-.317-75.68a1.322 1.322 0 1 0-.001 2.643 1.322 1.322 0 0 0 0-2.644zm-41.031 90.688c0 1.209.978 2.187 2.188 2.187a2.187 2.187 0 1 0-2.188-2.188zm17.944-28.993a.957.957 0 1 0 1.914 0 .957.957 0 0 0-1.914 0zm-28.718-18.76a1.321 1.321 0 1 0 0-2.644 1.322 1.322 0 1 0 0 2.643zm59.045-85.275a1.057 1.057 0 1 0-1.058 1.057c.585 0 1.058-.473 1.058-1.057zM179.45 91.162a1.128 1.128 0 1 0 2.256 0 1.128 1.128 0 0 0-2.256 0zm122.858 81.677a1.074 1.074 0 1 0 .001-2.148 1.074 1.074 0 0 0 0 2.148zm-110.411-18.47a1.504 1.504 0 1 0 3.008.001 1.504 1.504 0 0 0-3.008 0zm5.776-112.021a.537.537 0 1 0 1.074 0 .537.537 0 0 0-1.074 0zm2.625-23.67a1.43 1.43 0 1 0 2.858-.001 1.43 1.43 0 0 0-2.858 0zm60.78 40.934a1.057 1.057 0 1 0 0-2.114 1.058 1.058 0 1 0 0 2.114zm11.597 185.489a2.187 2.187 0 1 0 0-4.376 2.187 2.187 0 1 0 0 4.376zm19.784-52.34a1.458 1.458 0 1 0 0-2.916 1.458 1.458 0 0 0 0 2.917zm0-143.757a1.057 1.057 0 1 0 0-2.113 1.057 1.057 0 0 0 0 2.113zm-12.952 228.16a.677.677 0 1 0 1.353.001.677.677 0 0 0-1.353 0zm23.862-137.126a.678.678 0 1 0-1.355 0 .678.678 0 0 0 1.355 0zm-71.9 68.297a1.436 1.436 0 1 0-.002-2.872 1.436 1.436 0 0 0 .001 2.872zm6.308-131.911zm16.044 143.525a1.458 1.458 0 1 0 2.917.003 1.458 1.458 0 0 0-2.917-.003zm5.14-59.397a1.322 1.322 0 1 0 0 2.643 1.322 1.322 0 0 0 0-2.643zm-22.433 161.637a.678.678 0 1 0 1.355 0 .678.678 0 0 0-1.355 0zm1.356-2.729a1.058 1.058 0 1 1-.002-2.116 1.058 1.058 0 0 1 .002 2.116z" fill="#FFF"/></g></svg>