<svg width="120" height="120" viewBox="0 0 120 120" xmlns="http://www.w3.org/2000/svg" xmlns:xlink="http://www.w3.org/1999/xlink"><defs><path id="a" d="M.2.3h13.173v5.567H.2z"/></defs><g fill="none" fill-rule="evenodd"><path d="M67.412 112.826h.203l1.97-26.386H44.654l1.967 26.386h.205c-1.81 1.12-3.122 3.394-1.573 5.26 1.17 1.316 2.89.27 4.199-.287 1.444-.691 3.096-1.181 4.404-2.081.848-.595 1.838-1.222 2.409-2.107.176-.271.26-.521.195-.785h.134l.38-19.13h.288l.38 19.13h.134c-.062.264.021.514.198.785.57.885 1.561 1.512 2.408 2.107 1.309.9 2.96 1.39 4.405 2.08 1.308.558 3.029 1.604 4.199.289 1.546-1.867.236-4.14-1.574-5.261" fill="#343434"/><path d="M30.417 46.128c1.124 2.664.537 5.464-1.31 6.25-1.846.786-4.254-.738-5.379-3.404-1.122-2.666-.534-5.465 1.31-6.25 1.848-.787 4.252.737 5.379 3.404m53.465 0c-1.124 2.664-.54 5.464 1.308 6.25 1.848.786 4.254-.738 5.378-3.404 1.122-2.666.535-5.465-1.31-6.25-1.846-.787-4.254.737-5.376 3.404" fill="#FDDFBB"/><path d="M66.396 52.79l11.675 4.268 5.429-6.557 4.79 2.371s-4.423 9.334-7.419 10.426c-2.423.883-10.968-2.609-10.968-2.609s-.695-2.669-1.053-3.516c-.49-1.154-2.454-4.382-2.454-4.382" fill="#FFF"/><path d="M68.266 55.327c-.564-.463-.664-1.243-1.056-1.716l.084-.492 1.33.487-.358 1.72zm1.359 3.497s-.385-1.176-.774-1.65l.554-3.285 1.275.468-1.055 4.467zm1.734 2.428c-.611-.226-1.067-.406-1.299-.497l1.42-6.106 1.533.56-1.654 6.043zm2.481.869c-.461-.148-.91-.302-1.323-.448l1.602-6.06 1.54.561-1.82 5.947zm4.41-5.281l-1.096 6.224a29.92 29.92 0 0 1-1.36-.35l.842-6.18 1.435.525.179-.218zm.326-.39l1.268-1.534 2.258 7.574c-.42.377-.828.658-1.213.802l-2.313-6.843zm5.849 3.232l-4.316-5.084 1.084-1.312 4.056 5.138a42.5 42.5 0 0 1-.824 1.258m2.38-3.929l-5.199-2.961 1.081-1.308 4.806 2.976c-.2.384-.432.823-.688 1.293" fill="#1679AF"/><path d="M47.9 52.79l-11.675 4.268-5.428-6.557-4.788 2.371s4.42 9.334 7.419 10.426c2.423.883 10.969-2.609 10.969-2.609s.692-2.669 1.052-3.516c.487-1.154 2.452-4.382 2.452-4.382" fill="#FFF"/><path d="M66.825 53.166C65.275 51.519 59 51.289 59 51.289l-1.762.058h-.145l-1.762-.087s-6.276.298-7.825 1.942c-5.753 6.108-6.295 33.237-6.295 33.237H73.12s-.545-27.165-6.295-33.273" fill="#FFF"/><path d="M72.918 81.558H41.411c-.033.593-.062 1.188-.086 1.716h31.682c-.026-.528-.055-1.123-.089-1.716m-31.393-1.847h31.28c-.035-.593-.078-1.12-.121-1.716H41.647c-.048.595-.084 1.123-.122 1.716m.27-3.56h30.741c-.05-.595-.1-1.188-.157-1.716H41.95a75 75 0 0 0-.155 1.716m.331-3.431h30.078a82.2 82.2 0 0 0-.196-1.716H42.325c-.07.528-.137 1.123-.199 1.716m.411-3.366h29.256a48.444 48.444 0 0 0-.246-1.716H42.783c-.089.53-.17 1.123-.246 1.716m.554-3.626h28.15a50.54 50.54 0 0 0-.318-1.716H43.409a44.067 44.067 0 0 0-.318 1.716m2.984-10.438l-.043.08h22.27c-.327-.657-.68-1.252-1.053-1.715H47.087a6.536 6.536 0 0 0-.202.269 1.89 1.89 0 0 1 .202-.312l-.083-.492-1.332.487.36 1.72c.015-.011.027-.023.043-.038" fill="#1679AF"/><path d="M44.798 58.47c-.043.134-.086.264-.127.398h24.991a27.524 27.524 0 0 0-.587-1.716h-23.63l-.554-3.261-1.275.465 1.055 4.467s.048-.144.127-.353" fill="#1679AF"/><path d="M44.127 60.797c-.02.072-.041.144-.06.223-.005.02-.01.027-.014.048a22.02 22.02 0 0 0-.096.38l-.002.007c-.07.288-.134.595-.2.888v.019h26.823s0-.02-.002-.022a31.524 31.524 0 0 0-.201-.878v-.007c-.031-.132-.062-.267-.095-.399-.005-.017-.01-.014-.015-.033-.03-.132-.064-.243-.1-.375H44.212l-1.398-6-1.53.562 1.654 6.04c.525-.194.94-.352 1.189-.453m-3.947-5.184l-1.542.561 1.819 5.948c.465-.152.91-.303 1.325-.45l-1.602-6.06zm-3.954 1.446l-.179-.219 1.096 6.224c.444-.104.902-.221 1.36-.35l-.842-6.18-1.435.525zm-4.03 5.431c.42.376.828.657 1.215.8l2.313-6.842-1.27-1.53-2.258 7.571zm.904-9.205l-4.048 5.139c.265.422.54.847.819 1.257l4.318-5.083-1.089-1.313zm-1.492-1.802l-4.805 2.976c.2.384.432.823.69 1.294l5.2-2.962-1.085-1.308z" fill="#1679AF"/><path d="M74.11 77.644c-17.173 2.481-31.035 2.565-33.522 2.558-1.301-.501-2.175 3.243-2.402 3.963-.572 1.766-1.212 3.53-1.468 5.364-.38 2.923.256 6.252.256 9.307 0 .408 0 .883.064 1.224 1.022-.204 1.721-1.02 2.745-.615 1.02-3.53 2.55-7.05 2.937-10.788.083-.69.15-1.425.171-2.152H74.11s2.175-9.176 0-8.861" fill="#E63744"/><path d="M28.972 92.534V36.44h.079c.465 0 .84-.4.84-.867v-.028a.822.822 0 0 0-.84-.821h-2.848a.823.823 0 0 0-.84.82v.03c0 .465.377.866.84.866h.341v56.023c-1.97.485-3.478 2.292-3.478 4.445v17.232c0 2.53 2.039 4.622 4.555 4.622h.012c2.516 0 4.554-2.093 4.554-4.622V96.909c0-2.057-1.313-3.8-3.215-4.375" fill="#AD6922"/><path d="M84.549 47.923l11.856 5.196-6.889-11.458c-1.988-.132-5.67 4.388-4.967 6.262" fill="#D38014"/><path d="M90.281 42.95c-1.764-.113-5.037 3.895-4.416 5.558l10.539 4.61L90.28 42.95z" fill="#FABF68"/><path d="M89.656 47.562c0 .782-.546 1.418-1.217 1.418-.67 0-1.215-.636-1.215-1.418 0-.782.544-1.418 1.215-1.418.67 0 1.217.636 1.217 1.418" fill="#D38014"/><path fill="#E52F2C" d="M89.078 44.71l.13.727.706-.367-.258-1.126zm1.574 5.013l.128.727.707-.365-.258-1.128z"/><path d="M90.432 46.493s.831.737.862 1.128c.031.391.609-.06.609-.06s-.36-1.507-.807-1.418c-.444.093-.664.35-.664.35" fill="#4BA534"/><path d="M94.018 51.092c.35 0 .668-.178.89-.456l-1.365-2.268c-.437.216-.743.717-.743 1.305 0 .783.547 1.419 1.218 1.419" fill="#D38014"/><path d="M31.737 47.342c-.456 2.364-1.707 4.108-2.796 3.897-1.086-.216-1.594-2.301-1.136-4.665.456-2.364 1.704-4.107 2.793-3.896 1.088.212 1.597 2.302 1.139 4.664m50.823 0c.456 2.364 1.71 4.108 2.796 3.897 1.086-.216 1.596-2.301 1.138-4.665-.456-2.364-1.707-4.107-2.793-3.896-1.088.212-1.597 2.302-1.14 4.664M79.76 30.48a23.26 23.26 0 0 0 .258-3.458c0-12.708-10.248-23.013-22.887-23.013-12.64 0-22.888 10.305-22.888 23.013 0 1.119.079 2.223.232 3.303-1.318.725-2.208 2.1-2.208 3.674 0 2.333 1.955 4.227 4.368 4.227.162 0 .325-.01.485-.027 3.905 7.059 11.403 11.835 20.01 11.835 8.597 0 16.09-4.767 20-11.813.069.002.138.005.205.005 2.416 0 4.37-1.894 4.37-4.227 0-1.469-.77-2.76-1.945-3.518" fill="#FDDFBB"/><path d="M51.229 27.096c-.772-.174-.908-1.201-3.386-.74-.779.18-2.417 1.156-2.732 1.808-.316.652-.088-2.392 2.457-3.522 1.835-.675 2.457-.642 3.977-.642s1.987.907 1.766 1.65c0 0-.503 1.803-2.082 1.446zm13.905 0c.772-.174.908-1.201 3.386-.74.779.18 2.417 1.156 2.732 1.808.316.652.087-2.392-2.457-3.522-1.835-.675-2.457-.642-3.977-.642s-1.987.907-1.766 1.65c0 0 .503 1.803 2.082 1.446z" fill="#AD6922"/><path d="M51 33c0 1.657-.895 3-2 3s-2-1.343-2-3 .895-3 2-3 2 1.343 2 3m18 0c0 1.657-.895 3-2 3s-2-1.343-2-3 .895-3 2-3 2 1.343 2 3" fill="#6172BB"/><path d="M58.02 36.07c.839-.115 2.96 1.756 2.96 1.756s.103-.414-.34-1.238C60.163 35.703 57.99 35 57.99 35s-1.687.448-2.487 1.604c-.296.29-.503 1.299-.503 1.299s1.895-1.681 3.02-1.834z" fill="#EEAC6C"/><g transform="translate(51 39)"><mask id="b" fill="#fff"><use xlink:href="#a"/></mask><path d="M.2.696S7.097 3.904 13.372.299c0 0-1.39 5.47-5.95 5.561-4.115.122-4.984-1.492-5.477-1.956C1.453 3.441.525 2.132.2.696" fill="#EEAC6C" mask="url(#b)"/></g><path d="M80.926 24.024a44.42 44.42 0 0 0-.272-4.23C77.579 9.67 68.214 2.302 57.134 2.302c-9.644 0-17.992 5.583-22.019 13.711-1.112 3.195-1.795 6.341-1.852 7.757-.198 4.92 3.37 12.288 3.37 12.288-.427-8.097-.336-8.08 1.605-9.485 2.415-1.747 7.505-4.999 9.467-7.243.375-.43 1.148-1.965 1.148-1.965s-.074 1.207.597 1.737c4.053 3.214 16-.357 20.531 2.12 3.71 2.03 8.21 14.836 8.21 14.836 1.833-3.485 2.77-9.331 2.735-12.033" fill="#AD6922"/><path d="M55.349 52.798h3.736c1.071 0 1.938-2.244 1.938-3.298H53.41c0 1.054.87 3.298 1.939 3.298" fill="#FDDFBB"/><path d="M54.23 51.964l6.765-2.244.012-.015a22.847 22.847 0 0 1-7.58.027c.07.66.37 1.574.803 2.232" fill="#EEAC6C"/><path d="M62.885 51.654c-.277-.271-1.742-1.776-2.076-1.872.245 1.183-.68 2.405-1.354 3.338-.243-.252-.525-.398-.828-.398-.282 0-.392.286-.406.737-2.332-.216-4.841-1.366-4.793-3.727-.958 0-1.72 1.19-2.557 1.572-1.077.487-1.077 1.03-.3 1.898 1.138 1.243 3.291 2.803 5.034 2.813 1.606.007 1.776-.06 2.821-.497.1.718.2 1.466.2 2.09 0 1.896-.918 1.966 0 1.966.984 0 1.753-1.534 1.753-3.427a6.43 6.43 0 0 0-.105-1.181c.89.067 2.165.113 2.647-.389 1.2-1.255.867-2.045-.036-2.923" fill="#E63744"/><path fill="#FABF68" d="M80.015 15.924V1.807H34.218v14.117h-7.152v1.584h60.167v-1.584z"/><path d="M89.628 29.034c-2.685-3.91-2.334-8.812-4.1-13.077-.548-1.378-1.903-2.182-3.25-2.62-.525-.169-1.473-.49-2.263-.414v-1.35H34.22v4.35h45.796v-.91c.459.135.929.224 1.215.416.714.475 1.05 1.317 1.24 2.124.42 1.805.16 3.681.16 5.51 0 2.062 0 4.195.424 6.255.494 2.064 1.767 3.84 2.829 5.685 1.485-1.21 3.886-3.837 6.077-3.338-.916-.713-1.694-1.707-2.332-2.63" fill="#E63744"/></g></svg>