<svg xmlns="http://www.w3.org/2000/svg" width="95.44" height="172.193" viewBox="0.236 0.445 95.44 172.193"><defs><style/></defs><g id="ID0.7824647170491517" transform="matrix(.95 0 0 .95 -.4 .5)"><g id="Tail"><path id="ID0.5047400761395693" fill="#96C93D" d="M78.324 149.744c-1.311-.556-5.933-2.899-5.933-8.321 0-5.395 4.533-7.945 5.45-8.406 1.485-.116 9.696-1.17 14.043-10.314l.07-.149.02-.164c.695-5.919 3.203-22.005 6.408-25.313 5.091-5.249 9.244-8.288 15.403-8.288.403 0 .817.013 1.239.04l-.47.27c-3.502 2.006-9.362 5.363-10.374 10.873-.615 3.347-.577 7.967-.537 12.857.059 7.137.125 15.225-1.911 20.461-3.057 7.865-20.658 15.329-23.408 16.454z" transform="translate(-2.75 .4) scale(.8145)"/><path id="ID0.7354998346418142" d="M111.101 90.007c-3.283 2.128-7.079 5.298-7.902 9.784-.632 3.441-.594 8.106-.554 13.046.058 7.047.123 15.033-1.844 20.091-2.497 6.423-16.392 13.247-22.451 15.73-1.477-.709-4.958-2.848-4.958-7.234 0-4.555 3.688-6.864 4.739-7.429 2.072-.212 10.266-1.624 14.657-10.863l.142-.298.038-.327c.951-8.098 3.457-21.973 6.133-24.733 4.21-4.342 7.581-7.016 12-7.767m2.685-2.219c-6.799 0-11.213 3.531-16.121 8.592-4.145 4.276-6.684 25.893-6.684 25.893-4.482 9.431-13.396 9.759-13.396 9.759s-6.193 2.768-6.193 9.392c0 7 6.938 9.397 6.938 9.397s20.835-8.169 24.335-17.169 1-25.333 2.5-33.5c1.5-8.167 15.434-11.646 11.5-12.167a21.99 21.99 0 0 0-2.879-.197l-2.685 2.219z" transform="translate(-2.75 .4) scale(.8145)"/></g><g id="Body"><path id="Fill" fill="#96C93D" d="M65.171 97.996c-2.961-3.991-5.741-7.318-8.661-11.279-1.343-1.822-4.241-6.031-4.769-8.233-.953-3.565-1.953-9.666-2.423-13.658-.706-5.981-1.302-11.999-1.368-18.025 0 0-.309-10.877-7.07-9.71-6.761 1.167-5.136 9.557-5.136 9.557 1.202 10.546 2.898 21.608-.204 32.035-.828 2.784-1.082 2.693-3.56 8.104-2.51 4.656-5.231 9.367-7.864 14.163 0 0-7.414 9.746-12.069 30.798a51.22 51.22 0 0 0-.642 6.16c-.493 12.118 6.01 25.943 16.069 31.014 2.898 1.461 30.746 11.804 47.207-11.722 3.026-4.705 4.91-10.208 5.213-16.318.266-5.389-.307-10.636-1.514-15.713-4.387-17.008-13.209-27.173-13.209-27.173z" transform="translate(-2.75 .4) scale(.8145)"/><path id="Belly" fill="#FFED00" d="M66.327 134.645c-.209-5.04-10.874-35.925-13.748-47.606-2.874-11.681-8.256-10.886-8.256-10.886h-.078s-5.383-.796-8.256 10.886c-2.873 11.682-13.539 42.566-13.748 47.606-.208 5.014-2.464 27.45 21.854 28.89v.029c.065-.003.125-.012.189-.015.065.003.124.012.189.015v-.029c24.319-1.44 22.062-23.877 21.854-28.89z" transform="translate(-2.75 .4) scale(.8145)"/><path id="Outline_2_" fill="#231F20" d="M65.909 94.54c.003-.018.013-.027.017-.044a104.024 104.024 0 0 0-5.05-6.13c-4.391-5.279-6.859-9.568-7.131-10.741-2.167-10.658-3.729-21.346-4.198-32.251 0 0-.679-10.917-8.667-9.701-7.988 1.216-6.872 9.593-6.792 10.383 1.064 10.336.869 25.97-.49 31.652-.608 2.542-3.45 6.964-4.914 9.233a197.34 197.34 0 0 0-6.512 10.652C12.004 114.979 9.37 131.489 9.37 131.489c-.581 3.86-.826 7.733-.608 11.586.667 11.691 8.061 23.816 18.055 28.101 32.075 13.75 49.118-11.763 49.118-11.763 3.195-4.597 5.361-9.854 5.995-15.474.726-6.434.239-12.746-1.117-18.862-.001-.001-2.261-15.17-14.904-30.537zm13.985 46.34c-.303 6.11-2.187 11.613-5.213 16.318-16.461 23.525-44.308 13.183-47.207 11.722-10.059-5.07-16.562-18.896-16.069-31.014a51.22 51.22 0 0 1 .642-6.16c4.655-21.052 12.069-30.798 12.069-30.798 2.632-4.796 5.354-9.507 7.864-14.163 2.478-5.41 2.731-5.32 3.56-8.104 3.102-10.427 1.406-21.489.204-32.035 0 0-1.625-8.39 5.136-9.557 6.761-1.167 7.07 9.71 7.07 9.71.066 6.027.663 12.044 1.368 18.025.47 3.992 1.471 10.092 2.423 13.658.528 2.202 3.426 6.411 4.769 8.233 2.919 3.961 5.7 7.289 8.661 11.279 0 0 8.822 10.165 13.209 27.171 1.207 5.079 1.779 10.326 1.514 15.715z" transform="translate(-2.75 .4) scale(.8145)"/></g><g id="R_Leg"><path id="Fill_4_" fill="#96C93D" d="M61.982 170.115c17.117 14.503 31.722 31.658 48.703 46.241.125-1.625.029-3.181-.494-4.854-.243-.777.437-1.795 1.3-1.705 3.312.333 6.389.964 9.438 2.021-.937-2.075-2.07-3.911-4.021-5.459-.76-.601-.328-2.002.576-2.185 1.9-.382 3.725-1.095 5.479-1.944-5.43-2.154-11.204-3.209-17.01-3.886-2.199-.254-6.436.291-8.189-1.314-2.588-2.367-4.561-5.744-6.574-8.578-6.314-8.896-12.74-17.864-18.354-27.222-.329-.548-.942-2.434-.631-2.808-14.75-4.062-14.055 9.945-14.055 9.945l.001.021c.389-.48 1.669-.104 3.831 1.727z" transform="translate(-2.75 .4) scale(.8145)"/><path id="Outline_6_" fill="#231F20" d="M110.737 219.806c.664.608 1.959.435 2.156-.567.448-2.278.686-4.368.338-6.539 3.271.438 6.283 1.216 9.389 2.585.919.403 2.395-.275 1.927-1.479-1.1-2.854-2.188-5.505-4.142-7.696 2.171-.712 4.271-1.76 6.232-2.85.812-.45.904-1.837.008-2.255-8.194-3.83-17.028-5.045-25.933-6.093-3.271-.386-6.401-6.903-8.214-9.446-5.722-8.034-11.54-16.126-16.714-24.54-.519-.784-.969-1.363-1.357-1.786-1.689-1.835-2.229-.729-2.224-.716-.312.374.302 2.26.631 2.808 5.613 9.357 12.039 18.326 18.354 27.222 2.014 2.834 3.986 6.211 6.574 8.578 1.754 1.605 5.99 1.061 8.189 1.314 5.806.677 11.58 1.731 17.01 3.886-1.754.85-3.578 1.562-5.479 1.944-.904.183-1.336 1.584-.576 2.185 1.951 1.548 3.085 3.384 4.021 5.459-3.05-1.057-6.127-1.688-9.438-2.021-.863-.09-1.543.928-1.3 1.705.523 1.673.619 3.229.494 4.854-16.98-14.583-31.586-31.738-48.703-46.241-2.162-1.831-3.442-2.207-3.832-1.727-.189.233-.176.661.065 1.238.33.792 1.066 1.843 2.223 2.985.053-.025 33.388 31.657 50.301 47.193z" transform="translate(-2.75 .4) scale(.8145)"/></g><g id="L_Leg"><path id="Fill_3_" fill="#96C93D" d="M29.265 169.048c-1.188 10.7.37 19.046 7.938 27.151.328.348.414.751.349 1.118a.89.89 0 0 1-.105.352c-.065.14-.158.264-.261.378-.01.011-.021.019-.031.029a1.54 1.54 0 0 1-.349.27l-.001.001s-2.721 1.7-4.754 3.097c-.332.27-.657.547-.976.831-.045.04-.088.084-.134.125-.271.245-.54.493-.799.749-.285.281-.562.57-.832.865l-.053.056c-.287.315-.565.639-.833.97-1.267 1.567-2.603 3.393-3.145 5.372-.09.327-.15.655-.2.985 1.027-.756 2.218-1.24 3.646-1.48.657-.113 1.289.271 1.303.989.029 2.033.28 3.917.817 5.771.968-2.233 2.678-4.111 4.856-5.329.596-.333 1.423-.044 1.592.646.534 2.186.953 4.743 2.464 6.442-.247-7.201 5.693-16.463 11.113-20.425-7.273-5.211-10.21-16.774-5.516-24.545.37-.75 1.058-1.415 1.269-1.689.02-.026.054-.045.08-.067-8.725-14.015-18.093-3.688-18.093-3.688.404.151.716.497.655 1.026z" transform="translate(-2.75 .4) scale(.8145)"/><path id="Outline_5_" fill="#231F20" d="M52.68 195.968c-6.988-3.994-9.681-14.087-6.001-21.172-.024-.077 1.678-2.602.881-3.142a.713.713 0 0 0-.857.055c-.026.022-.06.041-.08.067-.211.274-.899.939-1.269 1.689-4.694 7.771-1.757 19.334 5.516 24.545-5.42 3.962-11.36 13.224-11.113 20.425-1.511-1.699-1.93-4.257-2.464-6.442-.169-.69-.996-.979-1.592-.646-2.178 1.218-3.888 3.096-4.856 5.329-.537-1.854-.788-3.737-.817-5.771-.014-.719-.646-1.103-1.303-.989-1.428.24-2.619.725-3.646 1.48.05-.33.11-.658.2-.985.542-1.979 1.878-3.805 3.145-5.372.268-.331.546-.654.833-.97.017-.019.036-.036.053-.056.27-.295.547-.584.832-.865.26-.256.528-.504.799-.749.045-.041.088-.085.134-.125.318-.284.644-.562.976-.831 2.033-1.396 4.754-3.097 4.754-3.097l.001-.001c.128-.072.245-.161.349-.27l.031-.029a1.51 1.51 0 0 0 .261-.378.88.88 0 0 0 .105-.352 1.267 1.267 0 0 0-.349-1.118c-7.568-8.105-9.126-16.451-7.938-27.151.061-.529-.251-.875-.656-1.027-1.03-.91-1.869 1.702-1.855 1.71-2.282 10.251.855 19.658 7.663 27.398-3.18 1.953-6.149 4.39-8.395 7.362-1.951 2.588-4.771 7.042-3.022 10.34.285.538.975.518 1.348.145.202-.064.395-.2.541-.423.84-1.267 1.846-1.958 3.13-2.362.19 2.881.838 5.543 2.111 8.213.46.964 1.788.397 1.853-.502.158-2.286 1.468-4.771 3.479-6.04.659 3.108 1.521 6.245 4.541 7.833.532.278 1.039.138 1.385-.184a.73.73 0 0 0 .505-.61c.586-4.075.943-7.492 2.668-11.34 1.362-3.039 3.229-5.779 5.318-8.348a32.512 32.512 0 0 1 2.925-2.995l-.003-.003c.632-.565.831-1.701-.121-2.246z" transform="translate(-2.75 .4) scale(.8145)"/></g><g id="Head_1_"><g id="Head"><path id="ID0.5975310066714883" fill="#96C93D" d="M52.535 38.444c4.152-7.097.423-14.428-3.154-21.17-2.155-4.767-4.274-11.332-4.274-11.332-.961-1.88-2.386-3.477-4.783-3.401-2.45.075-5.033 1.19-6.113 3.571-2.08 4.588-3.133 9.885-4.926 14.646-2.935 7.796-3.215 18.278 5.794 22.123 5.777 2.462 14.022 1.433 17.456-4.437z" transform="translate(-2.75 .4) scale(.8145)"/><path id="ID0.6923145093023777" fill="#231F20" d="M47.382 45.454c.592-.184 1.201-.472 1.776-.788 1.177-.648 2.195-1.42 2.524-1.706 9.269-8.024 3.799-19.177-.986-28.312l-3.47-9.145a6.762 6.762 0 0 0-.571-1.505l-.001-.002C45.474 1.778 43.112.42 40.323.062c-4.886-.624-8.06 3.549-9.395 7.614-1.214 3.693-1.778 7.502-3.129 11.189-1.246 3.415-2.279 6.859-2.677 10.479-.528 4.856 1.576 9.784 5.07 13.067 1.103 1.036 2.389 1.872 3.78 2.521l.005.048c.12.036.238.077.358.113.593.183 1.182.38 1.755.619 3.651 1.13 7.747 1.066 11.292-.258zM29.284 20.756c1.793-4.761 2.846-10.058 4.926-14.646 1.08-2.381 3.663-3.496 6.113-3.571 2.397-.076 3.822 1.521 4.783 3.401 0 0 2.119 6.565 4.274 11.332 3.578 6.743 7.306 14.073 3.154 21.17-3.434 5.87-11.679 6.899-17.457 4.436-9.008-3.844-8.728-14.326-5.793-22.122z" transform="translate(-2.75 .4) scale(.8145)"/></g><path id="Mouth" fill="#231F20" d="M30.095 33.099c2.938 4.303 5.757 8.132 11.319 8.498 5.48.361 8.764-3.914 10.981-8.297.674-1.332-1.328-2.506-2.004-1.171-2.004 3.958-3.961 7.669-8.979 7.802-4.642.123-7.497-4.399-9.78-7.729-.644-.943-2.187-.054-1.537.897z" transform="translate(-2.75 .4) scale(.8145)"/><g id="R_Eye"><path id="Pupil_1_" fill="#231F20" d="M45.782 9.395c-2.776.002-2.776 4.305 0 4.305 2.773-.001 2.773-4.305 0-4.305z" transform="translate(-2.75 .4) scale(.8145)"/><path id="White_1_" fill="#FFF" d="M49.971 10.871c-.354-2.384-2.632-4.42-5.006-4.065-2.375.355-3.954 2.97-3.598 5.354.356 2.377 2.632 4.427 5.007 4.072 2.375-.353 3.952-2.979 3.597-5.361zm-4.189 2.828c-2.776 0-2.776-4.303 0-4.305 2.773.001 2.773 4.305 0 4.305z" transform="translate(-2.75 .4) scale(.8145)"/><path id="Outline_1_" fill="#231F20" d="M52.355 10.512c-.561-3.738-3.955-6.329-7.585-5.785-2.265.339-4.085 1.817-4.999 3.789a6.948 6.948 0 0 0-.116 5.568c1.152 2.839 4.058 4.64 7.138 4.179 3.629-.543 6.122-4.013 5.562-7.751zm-5.981 5.721c-2.375.354-4.651-1.695-5.007-4.072-.356-2.385 1.223-4.999 3.598-5.354 2.374-.354 4.652 1.682 5.006 4.065.355 2.381-1.222 5.007-3.597 5.361z" transform="translate(-2.75 .4) scale(.8145)"/></g><g id="L_Eye"><path id="Pupil" fill="#231F20" d="M34.171 9.395c-2.776.002-2.776 4.305 0 4.305 2.773-.001 2.773-4.305 0-4.305z" transform="translate(-2.75 .4) scale(.8145)"/><path id="White" fill="#FFF" d="M38.36 10.871c-.354-2.384-2.632-4.42-5.006-4.065-2.375.355-3.954 2.97-3.598 5.354.356 2.377 2.632 4.427 5.007 4.072 2.375-.353 3.952-2.979 3.597-5.361zm-4.189 2.828c-2.776 0-2.776-4.303 0-4.305 2.773.001 2.773 4.305 0 4.305z" transform="translate(-2.75 .4) scale(.8145)"/><path id="Outline" fill="#231F20" d="M40.744 10.512c-.561-3.738-3.955-6.329-7.585-5.785-2.265.339-4.085 1.817-4.999 3.789a6.948 6.948 0 0 0-.116 5.568c1.152 2.839 4.058 4.64 7.138 4.179 3.629-.543 6.122-4.013 5.562-7.751zm-5.981 5.721c-2.375.354-4.651-1.695-5.007-4.072-.356-2.385 1.223-4.999 3.598-5.354 2.374-.354 4.652 1.682 5.006 4.065.355 2.381-1.222 5.007-3.597 5.361z" transform="translate(-2.75 .4) scale(.8145)"/></g></g><g id="R_Arm"><path id="Fill_1_" fill="#96C93D" d="M54.892 84.3c.225-.307.363-.29.737-.258.17.015.384.032.686.024 10.028 1.003 15.519 10.146 9.491 19.037-3.233 4.771-5.741 9.585-3.995 15.606 1.621 5.59 5.797 8.801 11.225 8.739-1.059-1.477-1.092-3.395-.787-5.618.105-.763 1.066-.945 1.631-.664 3.432 1.699 9.508.929 10.807-3.332-2.692-.113-7.397-.613-7.396-3.311.001-.511.337-.88.796-1.045 2.148-.771 4.303-1.798 5.631-3.621-2.607.48-5.158-.107-7.18-2.271-2.381-2.55-1.297-6.081-.193-8.862 1.774-4.472 4.606-11.017 1.586-15.555-5.058-7.605-15.662-6.003-23.039-2.904-.427.18-.88.303-1.25.551a1.181 1.181 0 0 1-1.219.055c-.234.642-.322 1.601.469 2.676.827 1.125 1.545 1.449 2.002 1.41-.102-.219-.146-.461-.002-.657z" transform="translate(-2.75 .4) scale(.8145)"/><path id="Outline_3_" fill="#231F20" d="M85.99 115.685c-1.558-.021-2.966-.12-4.513-.438-2.803-.579-1.158-.239.84-1.335 2.223-1.221 3.746-3.096 4.453-5.488.293-.989-.771-1.562-1.573-1.211-3.849 1.679-9.125-.204-7.804-5.294.459-1.76 1.306-3.458 1.939-5.158 1.508-4.021 2.438-8.277 1.312-12.507-2.93-11.014-17.368-8.992-25.754-5.659-.464.185-1.343.539-1.346.527-1.702.679-1.654 1.44-1.123 1.75.323.188.824.21 1.219-.055.37-.249.822-.372 1.25-.551 7.377-3.099 17.981-4.702 23.039 2.904 3.021 4.538.188 11.083-1.586 15.555-1.104 2.781-2.188 6.312.193 8.862 2.021 2.164 4.572 2.752 7.18 2.271-1.328 1.823-3.482 2.85-5.631 3.621-.459.165-.795.534-.796 1.045-.002 2.697 4.703 3.197 7.396 3.311-1.299 4.261-7.375 5.031-10.807 3.332-.564-.281-1.525-.099-1.631.664-.305 2.224-.271 4.142.787 5.618-5.428.062-9.604-3.149-11.225-8.739-1.746-6.021.761-10.836 3.995-15.606 6.028-8.891.537-18.034-9.491-19.037a5.579 5.579 0 0 1-.686-.024c-.374-.032-.512-.049-.737.258-.144.196-.101.438.002.659.139.299.391.557.456.591 1.5.792 3.648 1.298 3.63 1.278.482.139 2.013.721 2.071.81 2.377 1.171 4.265 3.105 5.123 5.972 1.124 3.752-2.085 8.031-2.814 9.106-2.976 4.387-4.49 8.118-4.183 13.532.524 9.17 8.128 14.776 16.99 13.107.923-.173 1.126-1.644.271-2.044-1.981-.925-2.274-2.229-2.188-3.647a11.58 11.58 0 0 0 3.148.507c.901-.004 2.674-.184 2.661-.235 3.549-.731 6.61-3.122 7.023-7.157.066-.603-.541-1.087-1.09-1.095z" transform="translate(-2.75 .4) scale(.8145)"/></g><g id="R_Arm_1_"><path id="Fill_2_" fill="#96C93D" d="M33.147 84.432c-.262-.276-.397-.241-.764-.162a5.595 5.595 0 0 1-.678.111c-9.817 2.276-14.095 12.047-6.979 20.094 3.817 4.318 6.919 8.773 5.957 14.969-.894 5.75-4.625 9.469-10.016 10.102.861-1.6.649-3.508.062-5.672-.202-.744-1.178-.803-1.702-.451-3.187 2.125-9.311 2.137-11.144-1.922 2.656-.457 7.258-1.555 6.912-4.23-.066-.506-.447-.83-.923-.934-2.229-.49-4.498-1.234-6.047-2.871 2.647.143 5.102-.766 6.83-3.172 2.036-2.833.509-6.197-.941-8.814-2.332-4.208-5.977-10.337-3.561-15.224 4.044-8.189 14.766-7.956 22.479-5.825.446.124.911.188 1.31.387.426.213.92.127 1.216-.101.314.606.524 1.547-.123 2.714-.676 1.221-1.347 1.635-1.806 1.655.074-.232.086-.478-.082-.654z" transform="translate(-2.75 .4) scale(.8145)"/><path id="Outline_4_" fill="#231F20" d="M6.316 119.534c1.542-.219 2.926-.498 4.42-1.012 2.706-.932 1.118-.383-1.003-1.215-2.36-.926-4.111-2.592-5.118-4.874-.417-.944.564-1.649 1.405-1.403 4.032 1.172 9.024-1.369 7.063-6.248-.68-1.687-1.737-3.263-2.583-4.868-2.01-3.794-3.476-7.897-2.901-12.236C9.097 76.38 23.675 76.54 32.418 78.774c.484.124 1.401.363 1.402.351 1.775.456 1.824 1.217 1.337 1.592-.296.228-.79.314-1.216.101-.398-.199-.863-.263-1.31-.387-7.713-2.13-18.435-2.364-22.479 5.825-2.416 4.887 1.229 11.016 3.561 15.224 1.45 2.618 2.977 5.981.941 8.814-1.728 2.406-4.183 3.314-6.83 3.172 1.55 1.637 3.818 2.381 6.047 2.871.476.104.856.428.923.934.347 2.676-4.256 3.773-6.912 4.23 1.833 4.059 7.958 4.047 11.144 1.922.524-.352 1.5-.293 1.702.451.586 2.164.799 4.072-.062 5.672 5.391-.633 9.123-4.352 10.016-10.102.962-6.195-2.14-10.65-5.957-14.969-7.115-8.047-2.838-17.818 6.979-20.094.3-.031.51-.075.678-.111.367-.079.501-.114.764.162.168.176.156.422.082.653-.1.315-.316.602-.376.645-1.387.977-3.453 1.753-3.437 1.731-.46.2-1.904.973-1.95 1.068-2.208 1.466-3.833 3.625-4.318 6.577-.635 3.865 3.095 7.699 3.955 8.672 3.512 3.97 5.49 7.477 5.878 12.887.652 9.16-6.173 15.695-15.175 15.172-.938-.053-1.327-1.486-.531-1.992 1.847-1.172 1.971-2.504 1.705-3.898-.962.443-1.998.742-3.058.906-.894.111-2.675.16-2.669.105-3.613-.271-6.955-2.25-7.88-6.199-.139-.59.4-1.146.944-1.225z" transform="translate(-2.75 .4) scale(.8145)"/></g></g></svg>