<svg width="120" height="120" viewBox="0 0 120 120" xmlns="http://www.w3.org/2000/svg" xmlns:xlink="http://www.w3.org/1999/xlink"><defs><path id="a" d="M.2.3h13.173v5.567H.2z"/></defs><g fill="none" fill-rule="evenodd"><path d="M90.022 112.634c1.836 1.13 3.164 3.527 1.593 5.418-1.186 1.327-2.927.32-4.255-.242-1.47-.703-3.143-1.175-4.473-2.081-.857-.608-1.86-1.322-2.44-2.22-.185-.273-.27-.604-.205-.875h9.78zm-20.902 0c-1.83 1.13-3.158 3.527-1.592 5.418 1.185 1.327 2.937.32 4.263-.242 1.468-.703 3.149-1.175 4.481-2.081.849-.608 1.859-1.322 2.437-2.22.18-.273.264-.604.2-.875H69.12z" fill="#333433"/><path d="M66.388 60.061c-2.652 10.322-2.96 25.875-2.96 25.875s-.463 15.146 1.954 15.997l9.31-13.94c3.864-.404 4.779-4.644 4.779-4.644s1.036 4.24 4.436 4.643l9.983 13.94c2.513-.889 1.933-16.009 1.933-16.009h-.016s-.306-15.548-2.95-25.883c1.496.6-28.01.636-26.47.021" fill="#343434"/><path fill="#4F4F4F" d="M92.229 85.951l-1.997 26.754H80.106l-.378-19.35h-.297l-.386 19.35H68.923l-2-26.754z"/><path fill="#D0D0D0" d="M88.736 85.951H71.268l8.594-4.973z"/><path d="M52.782 41.768c-.586-.12-1.233.33-1.764 1.148-1.187-1.148-2.658-1.622-3.872-1.107-1.881.79-2.476 3.629-1.332 6.323 1.138 2.698 3.577 4.237 5.448 3.447 1.01-.433 1.654-1.442 1.85-2.71.358-.66.653-1.476.827-2.392.458-2.386-.054-4.496-1.157-4.71" fill="#FDDFBB"/><path d="M60.539 42.828c0 .518-10.646 1.805-23.777 1.805-13.12 0-23.762-1.287-23.762-1.805 0-.523 10.642-.951 23.762-.951 13.13 0 23.777.428 23.777.951" fill="#D0D0D0"/><path d="M31.603 42.342c-1.734-.007-2.565-.385-2.565-.385-.23-.909-.13-6.186 0-6.406.75-1.349 4.335-4.645 4.335-4.645h-9.5s3.584 3.296 4.346 4.645c.121.22.227 5.497 0 6.406 0 0-.83.378-2.572.385-.04 0 0 .206 0 .206h5.956s.048-.206 0-.206" fill="#EEEEED"/><path d="M28.63 34.807c.408 0 1.566-1.169 2.473-2.156h-4.94c.902.987 2.073 2.156 2.468 2.156" fill="#C1263D"/><path d="M42.623 17.473c-.285-2.522-.357-6.3-.357-6.3h-1.797s.073 3.65-.25 6.207c-1.848.913-3.215 3.919-3.215 5.93v19.483c1.885.785 6.93.871 8.653 0V23.31c0-1.949-1.268-4.823-3.034-5.837" fill="#66651F"/><path d="M42.593 11.901s-1.966.424-2.39 0c-.489-.48 0-2.729 0-2.729h2.39v2.73z" fill="#4F4F4F"/><path d="M45.657 42.794V24.376h-8.652v18.418c1.886.784 6.93.871 8.652 0" fill="#9B1826"/><path d="M45.657 24.347c0 .23-1.933.435-4.32.435-2.392 0-4.332-.205-4.332-.435 0-.24 1.94-.436 4.331-.436 2.388 0 4.32.196 4.32.436" fill="#811525"/><path d="M41.123 13.134h-.448s.058 3.293-.213 5.6c-1.565.824-2.712 3.534-2.712 5.346v17.568c.397.184.96.319 1.603.41 0 0-.715-13.693-.248-18.042.329-3.126 1.714-4.893 1.714-4.893.502-2.669.304-5.99.304-5.99" fill="#D0D0D0"/><path d="M53.974 46.158c-.339 2.284-1.468 4.014-2.526 3.855-1.051-.158-1.631-2.133-1.286-4.422.338-2.28 1.466-4.005 2.509-3.844 1.065.155 1.644 2.133 1.303 4.411m49.438 33.35c-.107-1.01-.436-1.874-.907-2.568l-4.52-.008c-.048.073-.101.17-.14.242-.445.429-.866 1.004-1.215 1.682-.938 1.765-1.039 3.55-.227 3.987.436.236 1.049.033 1.666-.478.661 1.178 1.698 1.91 2.788 1.796 1.659-.18 2.811-2.267 2.555-4.653" fill="#FDDFBB"/><path d="M48.123 52.14s4.48 9.444 7.53 10.544c2.191.799 9.287-1.899 10.83-2.505-2.644 10.324-2.95 25.885-2.95 25.885h-.016l-.064 2.069h11.983c3.401-.468 4.438-4.647 4.438-4.647s.91 4.243 4.777 4.647h11.296l-.029-2.076s-.276-13.68-2.494-23.894c.241.476.62 1.074 1.253 1.967 1.733 2.463 3.053 12.838 3.053 12.838l4.86.007s-1.438-14.371-5.168-19.15c-1.82-2.328-8.377-5.765-8.377-5.765s0 .004.009.004c-2.096-1.33-7.462-1.562-7.462-1.562l-1.795.073h-.144l-1.789-.054s-5.487.194-7.531 1.56c.008-.017.008-.02.008-.02l-11.848 4.313-5.508-6.625-4.862 2.392z" fill="#343434"/><path d="M102.394 93.023c1.46-11.381 1.722-15.416-5.126-16.01-.628-1.262-1.665-7.74-1.665-7.74s7.272 1.06 9.389 3.87c2.21 2.931 2.398 20.232-2.598 19.88" fill="#EEEEED"/><path d="M97.303 77.029l-.068-.033c.665-1.231 5.167-.62 5.355-.594l-.01.062c-.052-.006-4.651-.618-5.277.565" fill="#D0D0D0"/><path d="M80.193 69.206l2.117-4.786 2.57-13.676a33.5 33.5 0 0 0-3.4-.33l-1.787.045h-.15l-1.796-.064s-1.427.064-3.104.312l2.282 13.713 1.952 4.471.783 1.111.533-.796z" fill="#FFF"/><path d="M79.753 55.978a.604.604 0 0 0-.601.606c0 .341.264.62.601.62a.612.612 0 1 0 0-1.227m0 1.286a.676.676 0 0 1-.673-.68c0-.376.305-.667.673-.667a.67.67 0 0 1 .682.668.677.677 0 0 1-.682.679m0 2.717a.604.604 0 0 0-.601.607c0 .34.264.618.601.618a.612.612 0 0 0 0-1.225m0 1.29a.681.681 0 0 1-.673-.683.677.677 0 0 1 1.355 0 .681.681 0 0 1-.682.682" fill="#666767"/><path d="M79.626 50.492h-.085l-1.793-.079s-2.017.08-4.064.458c-.05.689-.041 1.423.128 2.106.149.53.407.652.704 1.034.273.385.12.652.651.741.326.058.597-.062.832-.267l.02.017s3.607-2.675 3.607-4.01" fill="#FFF"/><path d="M73.717 50.9c-.058.811-.019 1.494.13 2.07.1.363.26.529.444.723.076.093.169.182.254.294.09.137.142.25.171.356.077.197.128.319.454.372.296.054.55-.035.804-.26l.025-.015.02.025c.294-.223 3.517-2.675 3.577-3.941h-.056l-1.792-.077c-.013 0-2.016.085-4.031.453m1.619 3.896c-.054 0-.114 0-.17-.016-.376-.065-.437-.218-.508-.416-.043-.102-.086-.207-.169-.331a2.882 2.882 0 0 0-.252-.292c-.184-.207-.353-.375-.454-.751-.153-.592-.192-1.285-.124-2.12v-.028h.025a33.46 33.46 0 0 1 4.064-.465l1.792.083h.12v.033c0 1.332-3.47 3.927-3.616 4.04l-.025.017-.02-.023c-.215.184-.434.27-.663.27" fill="#666767"/><path d="M85.138 53.212c.244-.652.533-1.641.312-2.375a32.73 32.73 0 0 0-3.97-.412l-1.788.068h-.013c0 1.333 3.608 4.01 3.608 4.01l.08-.01c.92 0 1.445-.396 1.77-1.281" fill="#FFF"/><path d="M79.713 50.525c.055 1.28 3.36 3.782 3.585 3.943l.066-.014c.898 0 1.419-.373 1.74-1.25.375-1 .482-1.78.323-2.334a32.068 32.068 0 0 0-3.949-.41l-1.765.065zm3.572 4.013l-.01-.006c-.15-.112-3.622-2.706-3.622-4.04v-.032h.039l1.786-.064c.03 0 1.991.064 3.978.408h.016l.019.025c.167.573.064 1.376-.32 2.4-.337.893-.884 1.299-1.803 1.299l-.083.01z" fill="#666767"/><path d="M79.672 70.014s-3.352-13.825-4.364-19.397c-1.299.162-2.88.437-4.062.89l.545 3.401 2.245.572-1.14 2.21s2.561 9.543 6.776 12.324" fill="#4F4F4F"/><path d="M79.626 70.014s3.364-13.825 4.366-19.397c1.307.162 2.88.437 4.068.89l-.543 3.401-2.247.572 1.138 2.21s-2.557 9.543-6.782 12.324m.78 3.257a.65.65 0 1 1-1.299 0c0-.364.296-.654.647-.654.35 0 .652.29.652.654m0 2.861a.65.65 0 0 1-.652.643.646.646 0 0 1-.647-.643c0-.354.296-.646.647-.646.35 0 .652.292.652.646m0 2.936c0 .362-.301.65-.652.65a.65.65 0 0 1-.647-.65.65.65 0 0 1 .647-.644c.35 0 .652.29.652.644" fill="#4F4F4F"/><path d="M102.66 29.483a24.34 24.34 0 0 0 .262-3.498c0-12.85-10.402-23.27-23.242-23.27-12.819 0-23.221 10.42-23.221 23.27 0 1.133.085 2.246.237 3.337-1.336.736-2.242 2.129-2.242 3.718 0 2.362 1.984 4.272 4.436 4.272.17 0 .328-.006.493-.02C63.35 44.426 70.96 49.255 79.68 49.255c8.734 0 16.34-4.82 20.31-11.944h.21c2.443 0 4.432-1.91 4.432-4.272 0-1.484-.782-2.785-1.972-3.557" fill="#FDDFBB"/><path d="M73.229 26.096c-.772-.174-.908-1.201-3.386-.74-.779.18-2.417 1.156-2.732 1.808-.316.652-.088-2.392 2.457-3.522 1.835-.675 2.457-.642 3.977-.642s1.987.907 1.766 1.65c0 0-.503 1.803-2.082 1.446zm13.905 0c.772-.174.908-1.201 3.386-.74.779.18 2.417 1.156 2.732 1.808.316.652.087-2.392-2.457-3.522-1.835-.675-2.457-.642-3.977-.642s-1.987.907-1.766 1.65c0 0 .503 1.803 2.082 1.446z" fill="#AD6921"/><path d="M71 35c-1.105 0-2-1.343-2-3s.895-3 2-3 2 1.343 2 3-.895 3-2 3zm18 0c-1.105 0-2-1.343-2-3s.895-3 2-3 2 1.343 2 3-.895 3-2 3z" fill="#343434"/><path d="M80.02 35.07c.839-.115 2.96 1.756 2.96 1.756s.103-.414-.34-1.238C82.163 34.703 79.99 34 79.99 34s-1.687.448-2.487 1.604c-.296.29-.503 1.299-.503 1.299s1.895-1.681 3.02-1.834z" fill="#EEAC6C"/><g transform="translate(73 38)"><mask id="b" fill="#fff"><use xlink:href="#a"/></mask><path d="M.2.696S7.097 3.904 13.372.299c0 0-1.39 5.47-5.95 5.561-4.115.122-4.984-1.492-5.477-1.956C1.453 3.441.525 2.132.2.696" fill="#EEAC6C" mask="url(#b)"/></g><path d="M103.842 22.947c-.009-1.217-.106-2.696-.283-4.268C100.442 8.437 90.942.99 79.703.99c-9.805 0-18.27 5.64-22.353 13.862-1.13 3.234-1.828 6.412-1.884 7.841-.2 4.978 3.422 12.427 3.422 12.427-.438-8.19-.34-8.17 1.623-9.59 2.454-1.769 7.63-5.059 9.616-7.33.378-.429 1.163-1.984 1.163-1.984s-.077 1.224.6 1.762c4.115 3.253 16.242-.372 20.84 2.142 3.762 2.05 8.332 15 8.332 15 1.865-3.522 2.817-9.437 2.78-12.174" fill="#AD6921"/><path d="M77.877 51.923h3.8c1.087 0 1.962-2.334 1.962-3.404h-7.724c0 1.07.874 3.404 1.962 3.404" fill="#FDDFBB"/><path d="M76.82 51.181l6.789-2.24.016-.015c-1.278.22-2.594.329-3.922.329-1.288 0-2.544-.104-3.775-.3.072.664.452 1.57.892 2.226" fill="#EEAC6C"/><path d="M84.388 51.211c-.8-.602-3.321.785-4.33 1.383-.092-.166-.245-.276-.398-.276-.173 0-.322.114-.41.292-1.004-.594-3.561-2-4.358-1.399-1.033.776-.969 4.767.26 5.154 1.043.331 3.125-1.897 4.04-2.96.08.24.26.405.468.405.194 0 .364-.153.446-.38.938 1.073 2.983 3.266 4.011 2.935 1.233-.387 1.303-4.378.27-5.154" fill="#D0D0D0"/></g></svg>