<svg width="120" height="120" viewBox="0 0 120 120" xmlns="http://www.w3.org/2000/svg" xmlns:xlink="http://www.w3.org/1999/xlink"><defs><path id="a" d="M.2.3h13.173v5.567H.2z"/></defs><g fill="none" fill-rule="evenodd"><path d="M36.712 82.239c3.573 0 4.213 2.91 4.213 6.486l-.002 7.52h-1.527v-7.52c0-2.733.047-4.955-2.684-4.955-2.734 0-2.794 2.224-3.545 4.944-.209.767-.96 1.154-1.527 0-1.295-2.638 1.494-6.475 5.072-6.475" fill="#EEAC6C"/><path d="M40.182 118.64L35.6 91.888c2.397 2.26 4.582 0 4.582 0s2.218 2.54 4.582 0l-4.582 26.754z" fill="#2E6684"/><path d="M48.1 113.285c-1.68 1.04-2.904 3.153-1.462 4.882 1.09 1.218 2.691.253 3.91-.262 1.344-.64 2.881-1.091 4.1-1.923.786-.55 1.71-1.14 2.241-1.96.165-.253.243-.493.183-.737H48.1zm19.167 0c1.685 1.04 2.905 3.153 1.465 4.882-1.09 1.218-2.692.253-3.91-.262-1.346-.64-2.884-1.091-4.1-1.923-.788-.55-1.71-1.14-2.242-1.96-.164-.253-.242-.493-.184-.737h8.971z" fill="#343434"/><path d="M57.597 86.555s-.84 3.887-4.387 4.253h8.452c-3.127-.426-4.065-4.253-4.065-4.253" fill="#FFF"/><path fill="#4F4F4F" d="M60.676 88.855H46.08l1.833 24.43h9.284l.354-17.714h.269l.353 17.713h9.284l1.834-24.429z"/><path d="M35.915 82.922c.231-2.2 1.665-3.85 3.193-3.69.825.088 1.507.681 1.93 1.55.402.396.795.922 1.126 1.54.86 1.63.949 3.27.198 3.667-.4.213-.962.027-1.53-.44-.61 1.087-1.566 1.755-2.564 1.649-1.53-.162-2.584-2.078-2.353-4.276M82.44 48.354c.54-.104 1.125.31 1.62 1.051 1.088-1.046 2.432-1.484 3.554-1.009 1.72.73 2.267 3.32 1.22 5.787-1.046 2.469-3.286 3.88-5.006 3.153-.923-.393-1.51-1.32-1.69-2.477a7.777 7.777 0 0 1-.762-2.185c-.424-2.189.052-4.122 1.065-4.32" fill="#FDDFBB"/><path d="M82.254 55.659l-5.053 6.069-10.869-3.95s.002.008.011.019c-1.88-1.245-6.909-1.43-6.909-1.43l-1.638.056h-.135l-1.642-.07s-4.923.217-6.847 1.433v-.007s-6.011 3.149-7.678 5.278c-3.424 4.375-4.738 17.533-4.738 17.533l4.46-.004s1.207-9.505 2.796-11.752c.576-.815.929-1.368 1.147-1.802-2.031 9.35-2.285 21.874-2.285 21.874l-.033 1.902h10.371c3.544-.367 4.384-4.254 4.384-4.254s.938 3.827 4.065 4.254H72.65l-.065-1.894h-.006s-.285-14.246-2.71-23.702c1.419.558 7.932 3.027 9.936 2.3 2.791-1.01 6.91-9.655 6.91-9.655l-4.46-2.198z" fill="#343434"/><path d="M58.252 73.56l1.94-4.378 2.36-12.52c-1.648-.248-3.117-.293-3.117-.293l-1.638.053h-.138l-1.64-.068s-1.32.053-2.858.28l2.096 12.55 1.798 4.096.702 1.014.495-.734z" fill="#FFF"/><path d="M59.784 65.646c-.022-1.402-1-5.518-1-5.518.436-.36.812-2.113.812-2.113l-1.836-1.591-2.027 1.59s.396 1.796.871 2.114c0 0-.866 4.127-.87 5.524-.007 1.467.87 5.803.87 5.803l1.154 2.809 1.13-2.68s.919-4.436.896-5.938" fill="#0771B7"/><path d="M57.736 56.484h-.076l-1.64-.1s-1.853.062-3.73.408c-.05.632-.045 1.298.113 1.925.133.487.38.591.65.942.243.351.107.591.594.671.298.056.54-.053.758-.242l.024.044s3.307-2.428 3.307-3.648" fill="#FFF"/><path d="M52.32 56.805c-.058.746-.02 1.366.113 1.897.093.332.235.485.404.66.078.08.158.167.24.274.082.122.122.226.158.32.067.182.109.293.418.344.26.05.493-.029.733-.235l.018-.018.024.031c.267-.2 3.222-2.433 3.276-3.596h-.045l-1.642-.086c-.015.002-1.853.073-3.698.409m1.478 3.569a.939.939 0 0 1-.155-.014c-.345-.058-.398-.2-.465-.382a1.283 1.283 0 0 0-.151-.307 2.893 2.893 0 0 0-.233-.264c-.174-.185-.325-.342-.42-.689-.136-.544-.174-1.178-.114-1.942l.003-.022.02-.003a28.975 28.975 0 0 1 3.737-.413l1.64.084h.09v.012c0 1.222-3.174 3.595-3.31 3.695l-.015.016-.022-.02c-.196.169-.392.249-.605.249" fill="#666767"/><path d="M62.792 58.923c.223-.596.492-1.507.287-2.176a26.811 26.811 0 0 0-3.644-.349l-1.638.085h-.009c0 1.22 3.307 3.649 3.307 3.649l.075-.027c.836 0 1.325-.371 1.622-1.182" fill="#FFF"/><path d="M57.818 56.462c.052 1.166 3.083 3.46 3.285 3.61l.06-.008c.827-.002 1.304-.347 1.6-1.151.342-.911.44-1.631.289-2.136a28.845 28.845 0 0 0-3.616-.373l-1.618.058zm3.27 3.675l-.016-.009c-.136-.1-3.322-2.473-3.322-3.695v-.011h.046l1.64-.07c.018 0 1.82.054 3.647.372h.018l.004.016c.16.522.065 1.26-.284 2.193-.305.824-.811 1.191-1.651 1.191l-.083.013z" fill="#666767"/><path d="M57.777 74.305s-3.08-12.656-4.002-17.76c-1.198.149-2.645.402-3.731.815l.502 3.116 2.058.524-1.047 2.018s2.353 8.747 6.22 11.287" fill="#4F4F4F"/><path d="M57.738 74.305s3.078-12.656 4.002-17.76c1.198.149 2.642.402 3.731.815l-.502 3.116-2.058.524 1.047 2.018s-2.353 8.747-6.22 11.287m.705 2.979a.59.59 0 1 1-1.18-.003.59.59 0 0 1 1.18.003m0 2.624a.593.593 0 0 1-.59.593.592.592 0 0 1 0-1.182.59.59 0 0 1 .59.589m0 2.689a.592.592 0 0 1-.59.59.592.592 0 0 1 0-1.184c.326 0 .59.27.59.594" fill="#4F4F4F"/><path d="M78.767 37.063a21.57 21.57 0 0 0 .24-3.205c0-11.768-9.54-21.306-21.307-21.306S36.393 22.09 36.393 33.858c0 1.036.074 2.056.216 3.056-1.231.671-2.06 1.944-2.06 3.404 0 2.163 1.82 3.914 4.069 3.914.15 0 .302-.01.45-.027 3.639 6.538 10.619 10.96 18.632 10.96 8.002 0 14.976-4.413 18.616-10.938.066.003.126.005.188.005 2.25 0 4.07-1.751 4.07-3.914 0-1.357-.718-2.553-1.807-3.255" fill="#FDDFBB"/><path d="M51.229 33.096c-.772-.174-.908-1.201-3.386-.74-.779.18-2.417 1.156-2.732 1.808-.316.652-.088-2.392 2.457-3.522 1.835-.675 2.457-.642 3.977-.642s1.987.907 1.766 1.65c0 0-.503 1.803-2.082 1.446zm13.905 0c.772-.174.908-1.201 3.386-.74.779.18 2.417 1.156 2.732 1.808.316.652.087-2.392-2.457-3.522-1.835-.675-2.457-.642-3.977-.642s-1.987.907-1.766 1.65c0 0 .503 1.803 2.082 1.446z" fill="#BE5916"/><path d="M51 39c0 1.657-.895 3-2 3s-2-1.343-2-3 .895-3 2-3 2 1.343 2 3m18 0c0 1.657-.895 3-2 3s-2-1.343-2-3 .895-3 2-3 2 1.343 2 3" fill="#6172BB"/><path d="M58.02 42.07c.839-.115 2.96 1.756 2.96 1.756s.103-.414-.34-1.238C60.163 41.703 57.99 41 57.99 41s-1.687.448-2.487 1.604c-.296.29-.503 1.299-.503 1.299s1.895-1.681 3.02-1.834z" fill="#EEAC6C"/><g transform="translate(51 45)"><mask id="b" fill="#fff"><use xlink:href="#a"/></mask><path d="M.2.696S7.097 3.904 13.372.299c0 0-1.39 5.47-5.95 5.561-4.115.122-4.984-1.492-5.477-1.956C1.453 3.441.525 2.132.2.696" fill="#EEAC6C" mask="url(#b)"/></g><path d="M43.912 45.088a.476.476 0 0 1-.473.476.474.474 0 0 1 0-.95c.26 0 .473.214.473.474m2.016-.488a.474.474 0 1 1-.947-.001.474.474 0 0 1 .947 0m-.488 1.529c0 .26-.213.473-.473.473a.475.475 0 0 1-.474-.473c0-.26.214-.474.474-.474s.473.214.473.474m24.768-.734c0 .262.21.473.47.473a.474.474 0 0 0 .476-.473.474.474 0 0 0-.946 0m-2.016-.488c0 .26.213.473.473.473s.473-.213.473-.473a.475.475 0 0 0-.473-.474.475.475 0 0 0-.473.474m.49 1.525c0 .263.211.476.471.476a.474.474 0 0 0 0-.947.471.471 0 0 0-.47.471" fill="#EEAC6C"/><path d="M79.848 31.08a41 41 0 0 0-.254-3.916C76.732 17.791 68.012 10.97 57.7 10.97c-8.978 0-16.75 5.169-20.498 12.695-1.036 2.958-1.671 5.87-1.725 7.182-.184 4.556 3.14 11.38 3.14 11.38-.4-7.5-.315-7.486 1.492-8.786 2.248-1.616 6.986-4.627 8.813-6.705.347-.397 1.069-1.822 1.069-1.822s-.07 1.118.555 1.611c3.771 2.978 14.896-.333 19.114 1.962 3.453 1.88 7.642 13.74 7.642 13.74 1.707-3.228 2.58-8.642 2.547-11.146" fill="#BE5916"/><path d="M56.034 57.766h3.48c.998 0 1.805-2.138 1.805-3.113h-7.087c0 .975.81 3.113 1.802 3.113" fill="#FDDFBB"/><path d="M54.993 56.95l6.3-2.078.011-.01a21.635 21.635 0 0 1-7.056.024 5.13 5.13 0 0 0 .745 2.064" fill="#EEAC6C"/><path d="M38.064 22.356c1.357-9.68-.194-20.611 19.73-20.611 19.74 0 18.398 10.953 19.74 20.657.123.9-39.6.867-39.47-.046" fill="#343434"/><path d="M77.024 17.944h-38.46c-.15 1.404-.298 2.882-.48 4.311v.147h39.45c-.205-1.465-.348-2.994-.51-4.458" fill="#5C5C5C"/><path d="M81.204 22.95a2.197 2.197 0 0 1-2.2 2.198H36.739a2.197 2.197 0 1 1 0-4.395h42.265c1.215 0 2.2.984 2.2 2.197" fill="#343434"/></g></svg>