<svg width="120" height="120" viewBox="0 0 120 120" xmlns="http://www.w3.org/2000/svg"><g fill="none" fill-rule="evenodd"><path d="M78.767 82.79H61.376c-.946 0-1.77-.647-2-1.57l-1.67-6.718h24.73l-1.67 6.718a2.062 2.062 0 0 1-2 1.57z" fill="#DCDBDE"/><path d="M63.888 74.502v4.144c0 1.144.923 2.072 2.061 2.072h6.183a2.067 2.067 0 0 0 2.061-2.072v-4.144H63.888zm12.366 0v4.144c0 1.144.923 2.072 2.06 2.072h2.577l1.546-6.216h-6.183z" fill="#625D6B"/><path d="M10.305 49.641L8.644 39.623a2.068 2.068 0 0 1 2.032-2.413h5.89c1.29 0 2.546.405 3.594 1.158l12.815 9.201-22.67 2.072zm0 16.574L8.644 76.234a2.068 2.068 0 0 0 2.032 2.412h5.89a6.163 6.163 0 0 0 3.594-1.157l12.815-9.202-22.67-2.072z" fill="#DCDBDE"/><path d="M119.533 57.928c0 10.298-21.222 18.646-47.4 18.646C35.035 76.574 0 68.226 0 57.928s35.036-18.646 72.132-18.646c26.179 0 47.401 8.348 47.401 18.646z" fill="#625D6B"/><path d="M0 57.928c0 2.18 1.585 4.27 4.412 6.216h112.413c1.748-1.945 2.708-4.036 2.708-6.216 0-.7-.107-1.391-.298-2.072H.49c-.314.681-.49 1.371-.49 2.072z" fill="#D2555A"/><path d="M118.344 53.785c-.839-1.453-2.105-2.842-3.75-4.144H8.004c-2.639 1.302-4.69 2.69-6.058 4.144h116.398z" fill="#FF6464"/><path d="M26.792 60H10.305a2.067 2.067 0 0 1-2.061-2.072c0-1.144.922-2.072 2.06-2.072h16.488c1.138 0 2.061.928 2.061 2.072A2.067 2.067 0 0 1 26.792 60zm86.558-11.275v18.407c3.928-2.716 6.183-5.856 6.183-9.204 0-3.348-2.255-6.487-6.183-9.203z" fill="#DCDBDE"/></g></svg>