<svg width="120" height="120" viewBox="0 0 120 120" xmlns="http://www.w3.org/2000/svg"><g fill="none" fill-rule="evenodd"><path d="M49.325 54.518c-.002 0-.027.01 0 0-.003.001-.003.001 0 0zm.173-.084c-.07.035-.141.072-.215.1a5.26 5.26 0 0 0 .215-.1c-.063.032-.072.036 0 0zm.974-.641c-.047.04-.048.04 0 0zm-24.886-.558l.092.015-.092-.015s.03.005 0 0zm-5.96-3.203s.013.01 0 0c0 0 .002.001 0 0zm26.176-6.497H45.8h.002zm-.022-.004c.002.001.013.001 0 0 .002.001.002.001 0 0zm-.101-.01c.035.004.081.014.115.014l-.115-.014c.036.004.04.005 0 0zm-26.349-2.19s.003.004 0 0zm40.5-4.22c.042.025.081.05.122.077-.012.004-.108-.069-.122-.077.042.025.042.025 0 0zm-32.18-3.739s.004.008 0 0c0 0 0 .001 0 0zm28.354-.766l.06.03-.06-.03c.02.009.02.01 0 0zM31.59 30.393zm20.645-1.056zm-.005-.428l-.002.016.002-.016zm-23.28-3.237c-.004.009-.008.018-.01.027.002-.01.006-.018.01-.027zm-.823-4.015c.002-.001.07.029.073.03l-.073-.03s.024.01 0 0zm20.665-.264l-.039.005.039-.005zm1.331-9.981a.216.216 0 0 0 .023.013c-.007.007-.014.002-.023-.013.007.004.007.004 0 0zm-11.395-6.75l-.02.015.02-.016zm5.775-2.021c.405-.019-1.118.05 0 0 1.006-.046 2.024-.058 3.025.063.91.109 1.83.367 2.595.893.354.244.662.574.777.997.117.43-.009.882-.233 1.255-.474.784-1.248 1.372-1.976 1.902-.783.57-1.604 1.084-2.4 1.635.786.553 1.756.696 2.667.93.399.103.796.223 1.172.396.264.123.934.38.718.775-.213.392-.544.7-.884.98-.373.311-.767.595-1.147.896-.558.441-1.676 1.315-.974 2.096.306.34.75.523 1.17.676.462.168.936.3 1.398.466.795.284 1.718.687 1.98 1.573.254.86.124 1.883-.523 2.54-.624.634-1.534.902-2.384 1.06-.98.184-1.985.227-2.978.243-1.01.017-2.02-.008-3.031-.007-.98.002-1.983-.01-2.947.181-.448.09-.876.226-1.2.562-.291.302-.62.648-.761 1.053-.347.993 1.258 1.16 1.899 1.247-.144-.018.05.007.065.01.058.006.117.012.176.02l.352.035c.236.024.47.042.706.063.474.04.947.094 1.42.151.93.114 1.863.222 2.792.351 1.798.248 3.622.545 5.336 1.163.437.157.865.339 1.277.555.086.044.216.084.22.201.001.086-.102.182-.146.25-.12.182-.233.375-.308.579-.159.425-.182.862-.017 1.29.175.402.472.727.805 1.008.48.404 1.088.743 1.667 1.035.405.204.815.394 1.224.592.154.075.481.165.276.369a5.837 5.837 0 0 0-.336.364s-.109.142-.051.062c-.236.308-.452.669-.427 1.07.012.181.089.35.19.496.062.087.137.165.215.238a1.937 1.937 0 0 0 .143.127c.227.175.474.321.73.451a9.645 9.645 0 0 0 .584.27 25.358 25.358 0 0 0 .664.273c.447.177.895.35 1.331.55.218.098.433.207.635.334.118.075.429.24.181.362-.405.2-.874.294-1.312.397-.48.115-.964.215-1.448.312-1.965.395-3.946.721-5.922 1.06-1.983.342-3.965.678-5.943 1.05-.983.185-1.964.381-2.94.597-.481.108-.961.223-1.437.35a10.898 10.898 0 0 0-1.023.312 6.665 6.665 0 0 0-.236.091c-.126.053-.251.11-.365.187-.126.086-.142.151-.13.3.02.25.097.5.263.693.177.204.414.342.667.43.143.053.29.092.439.124.102.021.252.03.331.056.977.127 1.966.052 2.945.006.493-.024.988-.039 1.48-.011.354.019.895.046 1.141.347.276.334.417.778.575 1.175.153.382.3.767.468 1.14a4.1 4.1 0 0 0 .733 1.156c.335.36.678.711 1.02 1.064.66.682 1.338 1.377 1.83 2.193.464.773.704 1.667.322 2.526-.357.8-1.158 1.434-1.919 1.83-.83.432-1.765.588-2.69.643-1.987.116-3.958-.314-5.942-.208a5.89 5.89 0 0 0-.42.033c-.1.01-.182.028-.268-.036a.262.262 0 0 1-.083-.106c-.06-.004-.121-.006-.182-.008l-.364-.013-1.516-.058a308.858 308.858 0 0 1-3.033-.124 113.89 113.89 0 0 1-6.002-.416c-.996-.1-1.99-.218-2.981-.362a51.94 51.94 0 0 1-1.483-.24c-.218-.037-.46-.07-.496-.337-.023-.18.09-.309.234-.393-1.516-.78-3.233-1.14-4.685-2.05a6.288 6.288 0 0 1-1-.77.362.362 0 0 1-.062-.428c.083-.15.278-.244.412-.342a27.128 27.128 0 0 0 1.977-1.607 8.864 8.864 0 0 0-.95-.832l.073.057c-.46-.356-.94-.688-1.397-1.05-.412-.327-.866-.694-1.106-1.175-.249-.5-.226-1.038.09-1.503.306-.45.761-.779 1.217-1.065-.169-.251-.3-.524-.465-.778-.07-.108-.167-.193-.186-.326a.384.384 0 0 1 .115-.325c.094-.09.255-.132.373-.182a8.312 8.312 0 0 1 1.278-.414c1.246-.296 2.532-.376 3.782-.66-.078-.23-.235-.464-.2-.71.061-.217.345-.356.521-.47a6.618 6.618 0 0 1 1.282-.62c.972-.355 2.001-.522 3.018-.69-.655-.588-.878-1.485-1.144-2.29-.137-.42-.286-.834-.522-1.21-.112-.175-.281-.326-.22-.554.053-.197.22-.252.39-.324 1.72-.712 3.607-.8 5.353-1.421-.504-.979-1.652-1.482-2.54-2.041-.742-.467-1.537-1.013-1.839-1.88-.315-.908.034-1.887.501-2.671.232-.387.562-.778.668-1.222.104-.442-.487-.727-.803-.885-.428-.215-.887-.33-1.327-.516a.398.398 0 0 1-.237-.472c.051-.188.255-.297.406-.403 1.631-1.138 3.808-.89 5.688-1.025.96-.068 1.89-.252 2.75-.693.418-.215.816-.463 1.205-.726a19.535 19.535 0 0 0 .897-.642l.139-.104c-.002.002.146-.117.07-.054 1.126-.861 2.256-1.862 3.415-2.735-.52-.545-1.283-.82-1.985-1.044-.908-.29-1.843-.483-2.76-.735-.853-.235-1.756-.508-2.473-1.042a2.412 2.412 0 0 1-.793-.955c-.19-.433-.205-.906-.125-1.366.164-.948.715-1.77 1.317-2.495a24.407 24.407 0 0 1 1.969-2.08c.694-.66 1.414-1.336 2.223-1.855.393-.25.844-.384 1.292-.494.474-.118.954-.203 1.437-.275a28.09 28.09 0 0 1 2.98-.292zm32.416 9.65c.377-.034-.918.079 0 0 .93-.08 1.87-.074 2.789.104.45.088.896.222 1.31.422.193.092.379.2.553.323.143.1.343.214.39.393.051.193-.084.419-.162.588a3.158 3.158 0 0 1-.31.518 3.602 3.602 0 0 1-.943.884c-.741.49-1.619.742-2.467.968.875.583 1.932.865 2.918 1.193.44.146.881.296 1.307.48.379.162.717.364 1.054.6a90.55 90.55 0 0 1 2.339 1.702c1.414 1.062 2.963 2.246 3.603 3.964.32.86.146 1.753-.525 2.387-.608.574-1.438.898-2.22 1.15-1.534.495-3.136.717-4.681 1.163a9.098 9.098 0 0 0-.693.229c-.068.026-.091.011-.068.086.017.053.036.104.056.156a3.3 3.3 0 0 0 .14.271c.214.357.53.642.874.869.775.512 1.674.798 2.552 1.079.743.238 1.495.463 2.204.796.212.098.274.245.166.459a5.092 5.092 0 0 1-.314.541 4.138 4.138 0 0 1-.823.907c-1.392 1.132-3.297 1.176-5.003 1.043-.937-.074-1.867-.214-2.8-.33-.929-.114-1.878-.225-2.813-.153.72.85 1.615 1.559 2.475 2.262 1.47 1.202 2.993 2.35 4.361 3.668.63.608 1.248 1.258 1.695 2.015.407.694.636 1.53.193 2.265.61.323 1.09.865 1.71 1.16.486.172-.078.667-.262.836-.286.26-.605.484-.943.674-1.389.788-3.036.998-4.402 1.797.742.305 1.5.577 2.224.923.41.196.81.413 1.167.694.32.251.599.596.574 1.023-.051.862-.95 1.28-1.676 1.48-.815.222-1.68.287-2.521.314-.81.024-1.623.002-2.433-.036-1.893-.086-3.776.041-5.669.08-1.771.037-3.584.048-5.333-.28-.803-.15-1.604-.379-2.322-.774-.182-.1-.347-.183-.278-.418.058-.199.133-.393.228-.577.196-.38.48-.72.812-.986 1.427-1.146 3.391-1.24 5.062-1.826-.26-.45-.407-.974-.306-1.495.084-.433.323-.822.616-1.145.657-.722 1.565-1.19 2.432-1.612-.185-.032-.353-.162-.499-.27-.101-.074-.293-.183-.324-.318-.044-.198.178-.291.315-.373.165-.098.343-.191.475-.332a10.124 10.124 0 0 0-1.348-.518c-.43-.14-.906-.249-1.31-.457-.165-.084-.138-.331.04-.382.202-.084.443-.093.66-.117.223-.025.447-.046.67-.079.105-.015.21-.033.312-.06.044-.01.222-.039.243-.08a3.902 3.902 0 0 0-.167-.264c-.056-.083-.105-.097-.203-.123a5.078 5.078 0 0 0-.604-.118c-.285-.043-.559-.087-.809-.24-.376-.232-.622-.613-.963-.887a9.49 9.49 0 0 0-1.174-.717 20.465 20.465 0 0 1-1.305-.54c-.206-.093-.403-.205-.621-.265a.093.093 0 0 1-.066-.067 6.683 6.683 0 0 1-.44-.242c-.679-.397-1.519-.964-1.695-1.787-.18-.844.548-1.511 1.17-1.943-.591-.591-1.34-.992-2.103-1.317a.019.019 0 0 0 .006.003c-.007-.004-.008-.004 0 0-.562-.234-1.136-.435-1.701-.662-.817-.33-1.613-.718-2.282-1.298-.653-.567-1.053-1.354-1.432-2.116-.112-.22-.222-.442-.336-.662a10.057 10.057 0 0 0-.164-.303c-.048-.084-.128-.179-.14-.277-.023-.177.253-.41.364-.528a3.9 3.9 0 0 1 .452-.409c.733-.568 1.58-.93 2.406-1.34-.518-.311-.937-.761-1.406-1.139a2.243 2.243 0 0 0-.34-.229c-.109-.058-.185-.128-.183-.264.003-.227.246-.502.38-.673.641-.834 1.587-1.322 2.574-1.627a10.552 10.552 0 0 1-1.244-.21c-.275-.064-.757-.141-.64-.544.031-.111.132-.215.2-.306a6.761 6.761 0 0 1 .637-.738 7.68 7.68 0 0 1 1.082-.88c.684-.463 1.43-.828 2.192-1.142 1.67-.685 3.426-1.115 5.116-1.742-.214-.192-.455-.41-.733-.51-.209-.074-.386-.23-.329-.478.065-.283.374-.324.612-.385.297-.076.599-.136.902-.186 1.198-.198 2.413-.219 3.623-.293-.263-.095-.563-.197-.794-.36-.183-.127-.204-.408-.057-.572.078-.088.206-.137.31-.19a8.95 8.95 0 0 1 .374-.177c.27-.12.546-.227.824-.325a14.89 14.89 0 0 1 3.636-.777z" fill="#8BAA00"/><path d="M85.669 41.688l-.01.03c.038-.152.086-.302.136-.45-.04.14-.083.28-.126.42m-.108-1.642c-.05.354-.158.698-.248 1.043a7.12 7.12 0 0 0-.186 1.03c-.094.83-.254 1.765-.862 2.387-.471.483-1.178.725-1.786.989-.755.328-1.59.642-2.192 1.223-.464.46-.834 1.026-1.26 1.523-.136.16-.277.314-.434.453-.133.12-.31.285-.502.285-.438 0-.416-.498-.415-.807.005-.815-.017-1.627.025-2.441.041-.795.105-1.59.192-2.38a75.6 75.6 0 0 1 .293-2.337c.066-.48.12-.96.236-1.432.117-.475.255-.944.396-1.411.06-.2.218-.37.334-.544.131-.196.258-.394.381-.595.251-.41.482-.831.707-1.256.321-.609.691-1.165 1.116-1.706.304-.39.61-.78.887-1.19-.036.104.076.34.11.439.06.165.14.32.228.472.175.3.41.571.662.807.225.21.475.386.728.56.285.194.59.401.707.745.236.7.162 1.472.372 2.183.1.339.272.646.39.977.114.312.166.654.12.983-.034.247.017-.122 0 0m-8.24-.245c-.14.369-.206.776-.27 1.164-.073.438-.13.88-.169 1.322-.054.582-.091 1.165-.142 1.746-.058.67-.16 1.332-.21 2.001-.059.8-.08 1.602-.146 2.401-.036.432-.041.93-.246 1.322-.164.316-.407.57-.628.845-.418.529-.785 1.097-1.236 1.602-.272.305-.62.692-1.036.783-.43.092-.668-.387-.812-.71-.146-.324-.242-.67-.362-1.004-.161-.452-.391-.87-.62-1.29-.43-.794-.883-1.576-1.306-2.375a11 11 0 0 1-.084-.159 11.655 11.655 0 0 0 .33-.395c.154-.19.304-.383.452-.577.275-.361.545-.727.81-1.094.314-.436.625-.874.943-1.31a11.004 11.004 0 0 1 1.842-1.969c.44-.366.899-.709 1.353-1.056.266-.201.528-.405.788-.613.13-.103.258-.21.385-.317l.201-.174c.037-.032.152-.113.162-.143-.007.023.001-.001 0 0m-5.992 14.994c-.064.444-.235.863-.454 1.251-.21.373-.466.747-.787 1.034-.316.283-.742.402-1.08.654-.351.262-.555.63-.674 1.047-.222.785-.2 1.615-.382 2.409a13.527 13.527 0 0 1-.907 2.687 11.183 11.183 0 0 1-1.302 2.145c-.47.6-1.018 1.127-1.559 1.664-.615.611-1.224 1.267-1.573 2.074-.361.833-.461 1.78-.461 2.681a10.6 10.6 0 0 0 .48 3.154c-.943-1.442-1.71-3.052-2-4.76-.314-1.853.189-3.685.836-5.411.513-1.37 1.116-2.706 1.668-4.06.708-1.735 1.396-3.48 1.947-5.272.217-.703.397-1.415.596-2.124a12.874 12.874 0 0 1 .113-.382.173.173 0 0 0 .104-.08c.075-.12.067-.326.096-.462.081-.389.313-.746.504-1.092.198-.36.406-.714.625-1.061.217-.344.425-.715.697-1.017.378-.42.773-.822 1.165-1.226.014.067.058.13.089.19l.245.454c.153.28.31.558.46.839.306.57.602 1.145.867 1.735.4.895.811 1.932.687 2.93-.036.255.03-.24 0 0m-11.123.35c-.872.67-1.477 1.642-2.048 2.567.052-.422.03-.869.04-1.293.01-.454.018-.909.022-1.362.01-.885.005-1.767-.04-2.65-.077-1.479-.317-2.937-.522-4.402-.154-1.1-.27-2.226-.24-3.346.674 1.294 1.386 2.56 1.935 3.915.352.87.654 1.756.902 2.661.221.81.561 1.593.69 2.427.045.294.07.618-.097.88-.156.245-.415.428-.642.604m3.124-31.605c.103-.621.524-1.164.912-1.639.098.886.254 1.76.38 2.64.11.752.195 1.503.134 2.263a25.365 25.365 0 0 0-.504-1.696 16.912 16.912 0 0 0-.318-.884 12.842 12.842 0 0 0-.14-.338c-.026-.061-.056-.177-.116-.213-.136-.08-.278.072-.21.205.038.11.09.215.134.323.144.363.273.732.392 1.103.207.649.385 1.306.564 1.962a.954.954 0 0 0-.103-.128c-.057-.062-.067-.175-.09-.257a12.31 12.31 0 0 0-.161-.504c-.05-.146-.059-.31-.083-.463a.203.203 0 0 0-.101-.127c-.068-.043-.086-.154-.115-.23a55.121 55.121 0 0 1-.35-.984c-.117-.331-.262-.675-.225-1.033.025-.15-.01.093 0 0m2.135 6.606c.165.416.357.82.537 1.229a41.294 41.294 0 0 1 .428 1.016 6.443 6.443 0 0 0-.08.685c-.042.597-.036 1.197-.062 1.795-.028.631-.156 1.25-.294 1.864-.124-.104-.251-.209-.373-.317a5.394 5.394 0 0 1-.348-.325c-.085-.087-.11-.116-.11-.24a13.978 13.978 0 0 1 0-.304c.002-.746.03-1.491.05-2.237.039-1.492.042-2.995-.202-4.473.136.442.284.878.454 1.307.11.278-.157-.394 0 0m1.66 3.842c.224.418.49.808.755 1.2.136.202.245.4.321.632.075.236.174.47.3.684.07.12.144.2.174.335.065.281.137.561.209.84.07.272.143.542.212.813.036.135.069.27.102.405.018.08.048.15.022.23a8.03 8.03 0 0 1-.077.218c-.086 0-.136-.04-.224.029-.103.08-.129.235-.173.351-.052.141-.105.281-.163.42-.04.103-.058.144-.142.203-.04-.212-.177-.43-.272-.623-.15-.304-.312-.6-.483-.893-.32-.552-.656-1.115-1.106-1.572-.059-.058-.118-.079-.102-.165l.053-.29a17.2 17.2 0 0 0 .088-.521 8.34 8.34 0 0 0 .11-1.113c.012-.711-.06-1.42-.038-2.132.122.327.264.644.434.95.189.352-.094-.17 0 0m3.657-3.657a5.46 5.46 0 0 1 .244-1.027l.056-.153c.007-.019.076-.188.051-.13l.018-.04c.13-.342.35-.714.559-1.038-.22 1.698.518 3.336.41 5.03-.093 1.47-.817 2.832-1.334 4.186.007-.09-.012-.187-.02-.277l-.038-.404-.021-.228c-.008-.074.023-.124.043-.194.17-.591.018-1.27-.019-1.87-.038-.636-.01-1.28-.016-1.918-.006-.647-.017-1.295.067-1.937.03-.223-.084.642 0 0m2.373-4.088c.42-.407.855-.8 1.268-1.216-.11.341-.158.716-.22 1.067-.067.366-.125.733-.181 1.1-.076.502-.142 1.005-.22 1.507-.226 1.455-.55 2.893-1.295 4.181 0-.25.02-.498.005-.75a11.272 11.272 0 0 0-.099-.921c-.077-.53-.177-1.058-.244-1.59-.075-.603-.106-1.222.009-1.822.05-.265.097-.637.28-.841.224-.248.46-.482.697-.715.378-.365-.265.26 0 0M65.817 37.52c-.128.587-.234 1.18-.248 1.781-.015.602.07 1.207.208 1.791-.249-.727-.349-1.493-.438-2.253a26.147 26.147 0 0 1-.17-2.473c.176.168.36.33.545.487l.213.18c-.037.162-.075.325-.11.487-.153.7.035-.162 0 0m2.373 2.984c-.274.103-.553.308-.77.5-.257.225-.475.489-.706.738-.233-.659-.424-1.353-.482-2.052-.063-.745.04-1.48.174-2.212.463.477.805 1.073 1.126 1.652.167.301.325.61.47.922.062.138.158.306.188.452m.494 1.634c-.027.106-.027.225-.037.333-.027.29-.055.58-.087.87a19.03 19.03 0 0 1-.25 1.698l-.226-.416c-.039-.07-.092-.128-.074-.208l.052-.213c.075-.302.161-.603.255-.9.12-.383.264-.798.367-1.164m-.873 4.554l-.006.013-.003-.176-.007-.292a4.326 4.326 0 0 1 .01-.534c.06.114.242.347.2.468a8.125 8.125 0 0 1-.194.52m-1.525 2.094c-.092-.72-.014-1.455.122-2.165.148-.765.37-1.531.693-2.241.044.084.071.128.062.223-.007.091-.04.182-.061.27-.05.198-.095.397-.135.598-.078.4-.134.803-.175 1.207-.036.36-.048.721-.058 1.084a7.908 7.908 0 0 1-.033.604c-.017.158-.294.347-.412.45l-.003-.03M46.75 62.151c-1.124-1.428-2.44-2.696-3.816-3.88-.712-.612-1.437-1.22-2.223-1.736-.764-.5-1.571-.93-2.393-1.327-1.298-.627-2.63-1.177-3.911-1.836-.79-.406-1.566-.85-2.281-1.377a18.7 18.7 0 0 1-2.06-1.8c.012 0 .02-.007.028-.018 0 .057.216.183.253.213.201.157.405.312.61.462.38.277.771.542 1.173.787.801.489 1.643.912 2.48 1.334.554.279 1.112.55 1.668.825l.425.21c.065.032.095.09.177.106.104.02.205.088.301.135.218.11.436.22.654.333 3.184 1.644 6.226 3.699 8.402 6.594.526.7.996 1.438 1.41 2.21a18.41 18.41 0 0 0-.897-1.235c-.778-.99.354.452 0 0M63 26.128s.002.002 0 0m31.18 11.928c-.03-.063-.176-.077-.236-.099a2.469 2.469 0 0 1-.334-.15c-.198-.108-.386-.229-.582-.338-.431-.236-.858-.339-1.345-.242-.334.066-.656.16-1 .15a6.913 6.913 0 0 1-1.25-.137c.14 0 .315-.104.441-.162a3.23 3.23 0 0 0 .601-.364c.353-.259.67-.585.87-.978.376-.738.338-1.583.278-2.385-.028-.376-.067-.761.006-1.134.084-.425.335-.707.64-.995.268-.253.552-.502.737-.824.233-.402.246-.856.198-1.306-.078-.74-.265-1.464-.353-2.203a6.81 6.81 0 0 1-.045-.669c-.001-.063.03-.191-.044-.225-.121-.055-.1.181-.101.234-.01.482.033.964.084 1.444.049.44.1.878.125 1.32.025.463.01.93-.281 1.315-.269.341-.635.589-.93.905a1.96 1.96 0 0 0-.513 1.13c-.108.923.222 1.84.01 2.761-.192.84-.82 1.457-1.593 1.797-.18.073-.365.132-.55.187-.174.051-.297-.191-.306-.33-.025-.397.237-.806.425-1.136.214-.377.455-.74.627-1.138a3.35 3.35 0 0 0 .264-1.269c.017-.825-.165-1.639-.236-2.458a6.95 6.95 0 0 1-.03-.677c0-.09-.113-.136-.176-.073-.072.073-.03.275-.025.369.019.43.081.857.133 1.285.094.762.224 1.566.021 2.322-.196.727-.698 1.319-1.024 1.987-.172.353-.397.898-.065 1.23-.199.003-.427.102-.617.16a4.27 4.27 0 0 0-.768.304c-.473.254-.822.663-1.048 1.147.015-.045-.046-.168-.06-.209-.033-.095-.07-.188-.105-.282a4.122 4.122 0 0 1-.187-.648 7.986 7.986 0 0 1-.1-.684c-.046-.425-.08-.867-.23-1.271a2.142 2.142 0 0 0-.3-.554c-.052-.065-.01-.186 0-.268.084-.694.267-1.373.433-2.05.226-.92.442-1.85.516-2.796a9.38 9.38 0 0 0 .028-.528c.004-.143-.002-.279-.146-.355a.268.268 0 0 0-.323.063c-.093.106-.066.26-.07.39a13.08 13.08 0 0 1-.226 2.052c-.194 1.06-.442 2.106-.549 3.18-.065-.103-.232-.181-.337-.244l-.28-.174a3.908 3.908 0 0 1-1.001-.865 2.455 2.455 0 0 1-.5-1.241 2.199 2.199 0 0 1-.009-.361 7.015 7.015 0 0 0 .306-.952c.199-.822.292-1.665.614-2.453.164-.364.372-.696.578-1.036.246-.408.47-.832.663-1.269a8.944 8.944 0 0 0 .531-1.608c.029-.129.088-.236.144-.353.105-.22.2-.443.288-.67.176-.451.305-.921.39-1.398.03-.184-.175-.326-.328-.197-.076.064-.071.178-.088.269a8.37 8.37 0 0 1-.086.4c.03-.206.053-.413.08-.618.012-.09.047-.2.007-.287-.045-.098-.153-.164-.262-.14-.21.044-.199.285-.219.453l-.067.578c-.045.407-.098.815-.15 1.222-.023.17-.05.341-.081.51-.043.238-.154.43-.27.638-.375.68-.81 1.326-1.225 1.98a19.22 19.22 0 0 0-1.252 2.327c-.901 1.98-1.572 4.064-2.785 5.887.13-.97.075-1.938-.021-2.907-.097-.975-.27-1.957-.272-2.94 0-.49.033-.97.142-1.448.106-.46.258-.908.432-1.346.327-.824.727-1.614 1.106-2.415.393-.829.765-1.673 1.009-2.56.014-.049.095-.227-.013-.227-.073 0-.092.207-.107.26-.068.24-.145.476-.23.71a14.16 14.16 0 0 1-.526 1.26c-.814 1.74-1.836 3.426-2.153 5.353-.16.968-.035 1.983.024 2.955.06.98.107 1.97-.02 2.947-.07.475-.174.946-.296 1.41-.027.106-.042.24-.112.322a14.6 14.6 0 0 1-.731.798c-.628.638-1.31 1.222-2.003 1.787-.39.317-.785.628-1.177.943-.669.535-1.21 1.173-1.77 1.815-.132.152-.274.372-.453.466-.124.064-.374.134-.491.035-.098-.099-.152-.254-.206-.382a3.542 3.542 0 0 0-.25-.536 5.91 5.91 0 0 1-.38-.755c-.06-.12-.035-.275-.038-.407a27.977 27.977 0 0 0-.058-1.358l-.03-.436c-.006-.099-.014-.197-.022-.296-.01-.123-.048-.278-.008-.395.281-.825.645-1.618.964-2.429.159-.4.303-.808.42-1.223a8.108 8.108 0 0 0 .209-.944 8.42 8.42 0 0 0 .213-.342c.442-.748.758-1.56.995-2.395.292-1.024.462-2.076.628-3.126.072-.449.14-.897.221-1.345.043-.237.09-.475.14-.71.026-.126.143-.555-.15-.456.28-.285.567-.577.774-.92.21-.344.292-.742.371-1.131.08-.396.168-.793.33-1.164a5.73 5.73 0 0 1 .603-1.028c.49-.684 1.075-1.291 1.607-1.94a9.12 9.12 0 0 0 .719-.996c.022-.035.052-.175-.045-.121-.067.037-.127.192-.169.257-.106.162-.26.373-.354.494-.645.776-1.37 1.533-1.95 2.369-.288.415-.54.865-.69 1.348-.153.487-.204 1.01-.39 1.482-.235.576-.747 1.035-1.194 1.461-.492.47-1.007.914-1.495 1.387.184-.388.406-.754.6-1.137a8 8 0 0 0 .544-1.333c.138-.458.22-.931.266-1.407a11.507 11.507 0 0 0 .055-1.009c.003-.11.03-.257 0-.365-.022-.076-.104-.13-.182-.107-.094.027-.11.118-.112.203a16.42 16.42 0 0 1-.033.699 7.94 7.94 0 0 1-.185 1.265c-.214.903-.636 1.692-1.09 2.492a7.07 7.07 0 0 0-.523 1.123 3.724 3.724 0 0 0-.093.29c-.033.123-.1.186-.18.285a5.819 5.819 0 0 0-.382.53 6.077 6.077 0 0 0-.92 2.463 95.855 95.855 0 0 1-.082-2.922c-.007-.463-.012-.927-.014-1.389-.002-.227.085-.457.152-.674.074-.24.156-.477.241-.715.33-.92.657-1.812.716-2.797.058-.992-.076-1.978-.189-2.961-.022-.198-.044-.396-.062-.596-.006-.053.012-.19-.043-.224-.114-.07-.069.19-.065.225.038.439.088.876.132 1.314.084.826.137 1.674.036 2.487-.124.98-.597 1.96-.927 2.912-.006-.996-.012-1.992-.022-2.986-.002-.174.05-.432-.098-.561a.273.273 0 0 0-.432.124c-.032.097-.01.217-.01.317l.005.358.009.775c.019 1.976.027 3.952.091 5.927.042 1.197.11 2.393.205 3.585.106 1.12.117 2.245-.029 3.36 0-.386-.067-.78-.099-1.166-.04-.492-.076-.984-.11-1.475a102.01 102.01 0 0 1-.167-3.023 102.928 102.928 0 0 1-.06-6.707c.002-.092.074-.592-.052-.592-.124 0-.082.473-.084.564-.008.24-.013.481-.018.721a138.207 138.207 0 0 0 .088 8.507c.042 1.048.096 2.097.157 3.144-.168-.123-.316-.274-.467-.415a6.992 6.992 0 0 0-.252-.226c-.074-.064-.225-.136-.237-.227-.061-.49-.111-.982-.152-1.474a42.38 42.38 0 0 1-.127-2.967c-.02-1.96.077-3.917.203-5.872.121-1.872.27-3.744.376-5.616.056-1.001.1-2.003.12-3.005.01-.502.014-1.003.01-1.505 0-.079.047-.6-.1-.541-.079.033-.038.234-.037.302l.003.424c.014 3.883-.41 7.747-.614 11.621-.088 1.658-.144 3.32-.103 4.982a40.781 40.781 0 0 0 .247 3.607c.01.076.033.092-.032.133-.058.037-.036.04-.08-.023a17.114 17.114 0 0 1-.773-1.201 13.2 13.2 0 0 1-.622-1.277 40.199 40.199 0 0 0-.143-.317c-.055-.123-.105-.192-.073-.326a9.05 9.05 0 0 1 .204-.725c.296-.926.603-1.826.678-2.803.076-.995-.078-2-.27-2.975-.047-.236-.095-.47-.145-.706-.007-.033-.008-.097-.057-.097-.036 0-.065.03-.057.066.027.139.056.276.084.414.094.46.194.992.251 1.411.106.844.1 1.691-.076 2.528-.187.89-.568 1.714-.833 2.58-.374-.789-.768-1.568-1.061-2.393-.155-.437-.295-.88-.427-1.325-.03-.1-.059-.176-.043-.28.013-.095.026-.188.037-.283.03-.23.053-.46.068-.691.11-1.614-.334-3.217-.508-4.813a10.301 10.301 0 0 1-.032-.317l-.013-.153.105-.118c.164-.183.335-.36.51-.532.325-.32.68-.615.951-.985a2.25 2.25 0 0 0 .433-1.306c.012-.494-.078-.984.057-1.47.249-.893.767-1.683 1.129-2.535.026-.063-.067-.118-.093-.054-.045.106-.091.21-.14.315-.105.225-.217.449-.329.67-.212.424-.428.848-.59 1.293-.119.326-.19.646-.195.993-.004.338.03.679-.01 1.014a2.34 2.34 0 0 1-.658 1.226c-.38.385-.817.708-1.203 1.088-.07-.89-.253-1.765-.432-2.637-.176-.858-.334-1.704-.422-2.576-.094-.94-.067-1.87.18-2.785.032-.114.065-.227.101-.34.032-.1.078-.192.002-.285-.045-.056-.127-.089-.198-.067-.112.034-.138.143-.173.241a7.47 7.47 0 0 0-.348 1.314 7.85 7.85 0 0 0 .065 2.814c.126.633.28 1.261.416 1.893.177.82.334 1.643.4 2.478.006.085.05.261.025.346a9.03 9.03 0 0 0-.469.545c-.284.36-.543.748-.706 1.18-.255.67.06 1.342.277 1.976a25.623 25.623 0 0 0-1.25-1.592c-.51-.604-1.033-1.2-1.464-1.868-.963-1.492-1.31-3.306-1.588-5.033-.136-.848-.241-1.7-.366-2.55-.033-.23-.068-.46-.104-.69l-.053-.314c-.017-.095-.013-.227-.093-.294-.112-.096-.297-.033-.313.121-.01.098.028.21.045.305.022.136.044.27.064.405.234 1.533.373 3.08.672 4.603.164.83.373 1.654.68 2.443.311.8.74 1.525 1.25 2.212.54.728 1.136 1.412 1.609 2.187a81.55 81.55 0 0 1 .61 1.024c-.045-.064-.12-.118-.176-.174a4.885 4.885 0 0 1-.472-.55c-.25-.337-.473-.693-.71-1.04-.257-.375-.53-.744-.863-1.053-.331-.306-.708-.556-1.087-.798-.334-.214-.672-.422-.99-.66-.33-.25-.621-.551-.94-.816-.67-.55-1.408-.891-2.236-1.134-1.764-.52-3.005-1.925-4.045-3.37-.993-1.38-1.875-2.88-3.103-4.074-.071-.07-.15-.156-.262-.125a.191.191 0 0 0-.14.186c.001.102.093.163.159.227.08.079.16.16.239.242.315.33.6.685.883 1.042.56.712 1.052 1.478 1.573 2.219 1.041 1.483 2.205 3.02 3.922 3.752.578.246 1.204.353 1.769.634.486.24.911.561 1.318.917-.046 0-.13-.056-.174-.073-.1-.042-.201-.088-.302-.13-.424-.173-.873-.263-1.322-.342-.807-.139-1.588-.272-2.264-.769-.598-.439-1.078-1.016-1.676-1.456-.716-.53-1.525-.9-2.35-1.229-.15-.06-.302-.12-.454-.178-.063-.024-.136.012-.126.092.01.094.206.127.276.156.436.171.869.35 1.29.558a7.361 7.361 0 0 1 1.793 1.208c.667.616 1.292 1.266 2.18 1.55.434.14.887.213 1.334.298.423.081.816.201 1.223.332.197.063.386.177.578.256.273.113.546.22.787.392.588.415 1.242.747 1.788 1.217.634.545 1.046 1.27 1.516 1.948.262.376.545.734.894 1.033.165.14.341.27.525.385.126.077.206.206.286.331.083.131.132.282.178.43.02.065.037.13.051.195.018.077.07.134.076.209.026.323.043.648.055.973.028.697.029 1.394.017 2.09-.02 1.005-.076 2.008-.125 3.01-.008-.05-.12-.13-.155-.16a5.34 5.34 0 0 0-.239-.206l-.318-.262c-.342-.285-.63-.592-.848-.982-.372-.663-.596-1.394-.855-2.105a9.42 9.42 0 0 0-.56-1.29c-.037-.068-.096-.147-.181-.09-.111.06-.029.178.01.253.112.218.218.439.308.666.324.812.556 1.662.948 2.446.239.479.532.882.944 1.226.323.27.666.525.934.852.023.08-.015.236-.018.317-.014.319-.025.636-.032.954a44.027 44.027 0 0 0-.02 1.868c-.072-.119-.238-.217-.347-.304-.144-.115-.292-.228-.437-.341-.18-.139-.369-.275-.544-.424-.601-.512-1.04-1.171-1.48-1.819a15.447 15.447 0 0 0-1.429-1.78c-.559-.606-1.132-1.198-1.7-1.794a33.91 33.91 0 0 1-1.844-2.071 17.84 17.84 0 0 1-.378-.485c-.05-.067-.112-.198-.196-.23-.141-.051-.129.127-.08.194.285.385.584.76.892 1.125 1.105 1.313 2.339 2.506 3.465 3.797.596.683 1.058 1.44 1.564 2.187.256.377.53.746.855 1.068.24.239.512.447.756.681.275.263.543.535.805.812.072.075.122.11.125.217a10.04 10.04 0 0 0 .086 1.041c.08.616.204 1.223.326 1.832.039.19.083.38.117.573a9.354 9.354 0 0 0-.836-1.006 8.689 8.689 0 0 0-1.012-.96c-.68-.53-1.563-.788-2.17-1.415-.612-.63-.775-1.545-1.213-2.283-.403-.677-1.011-1.202-1.596-1.716-.345-.304-.688-.61-.995-.952-.322-.36-.604-.76-.894-1.147a50.906 50.906 0 0 1-1.573-2.202 33.3 33.3 0 0 1-.905-1.423c-.041-.07-.076-.164-.162-.187-.1-.028-.197.055-.198.155-.001.08.075.168.114.234l.143.234a34.938 34.938 0 0 0 1.018 1.559c.537.777 1.1 1.536 1.67 2.289.244.32.486.64.768.929.275.28.571.538.865.8.58.512 1.16 1.03 1.55 1.71.34.621.51 1.331.92 1.912.463.652 1.174.977 1.845 1.366.784.453 1.413 1.121 1.977 1.824.282.35.542.718.776 1.103.07.113.09.186.107.311.023.17.043.34.056.512.066.81-.009 1.611-.135 2.411-.15-.3-.443-.57-.685-.798a9.33 9.33 0 0 0-.977-.777c-.358-.254-.725-.495-1.084-.75a15.41 15.41 0 0 1-.272-.196c-.07-.053-.145-.136-.24-.136-.184 0-.328.253-.167.385.66.506 1.37.949 2 1.496.315.274.612.577.849.923.124.184.236.377.331.578.052.109.092.18.066.3l-.073.356a75.42 75.42 0 0 1-.588 2.51c-.059.233-.113.468-.172.701a6.25 6.25 0 0 1-.17.576c-.028.075-.11.305-.217.294-.181-.029-.342-.2-.46-.33a2.136 2.136 0 0 1-.338-.557c-.17-.425-.267-.87-.352-1.32-.16-.845-.222-1.714-.455-2.546-.11-.394-.284-.77-.448-1.142a31.441 31.441 0 0 0-.62-1.328 31.66 31.66 0 0 0-1.398-2.516c-.939-1.523-2.033-2.937-3.367-4.134-1.127-1.01-2.342-1.91-3.509-2.87-1.396-1.15-2.759-2.418-3.603-4.041-.192-.368-.328-.752-.48-1.135a9.26 9.26 0 0 0-.585-1.204c-.462-.813-1.017-1.57-1.529-2.352-.51-.783-.982-1.592-1.263-2.488-.273-.874-.331-1.8-.54-2.69a5.387 5.387 0 0 0-.478-1.308c-.198-.376-.462-.715-.72-1.053-.292-.381-.578-.765-.784-1.201-.174-.368-.248-.777-.32-1.174-.032-.164-.066-.33-.104-.493-.014-.06-.045-.13-.048-.19.022-.079.03-.174.038-.255.042-.408.142-.811.23-1.212.102-.458.206-.915.265-1.382.056-.456.06-.918.036-1.376-.096-1.782-.682-3.566-.24-5.346.116-.466.27-.92.39-1.384.06-.225.11-.453.145-.683.018-.115.03-.23.037-.345.008-.101.042-.252-.035-.334a.149.149 0 0 0-.208-.002c-.068.07-.043.193-.047.28a4.49 4.49 0 0 1-.102.736c-.1.473-.252.932-.377 1.397-.341 1.274-.251 2.594.052 3.868.285 1.199.395 2.427.177 3.647a8.574 8.574 0 0 0 .071-2.063c-.062-.834-.383-1.579-.74-2.325-.184-.388-.358-.78-.54-1.168-.349-.747-.776-1.443-1.212-2.141a12.979 12.979 0 0 1-.682-1.215 6.058 6.058 0 0 1-.244-.578c-.065-.181-.105-.405-.332-.438-.171-.025-.33.108-.357.272-.016.101.038.196.076.287.05.118.103.236.16.35.191.381.428.735.685 1.073.575.752 1.32 1.432 1.746 2.286.16.32.292.652.447.975.194.405.398.808.56 1.227.167.425.284.855.324 1.31.04.444-.033.893-.105 1.331-.138.833-.354 1.65-.49 2.484 0-.083-.08-.194-.115-.264a8.958 8.958 0 0 0-.26-.513 16.96 16.96 0 0 0-.684-1.135c-.435-.67-.91-1.315-1.377-1.963a39.268 39.268 0 0 1-.817-1.163c-.13-.19-.255-.384-.377-.579-.046-.075-.102-.227-.175-.275-.036-.023-.085-.004-.101.032-.035.052.038.129.063.168.484.8 1.038 1.556 1.588 2.313.295.405.586.815.868 1.23-.206-.207-.508-.337-.762-.48a7.643 7.643 0 0 1-1.126-.773c-.723-.592-1.356-1.281-2.045-1.91a13.03 13.03 0 0 0-.504-.437c-.065-.054-.473-.43-.526-.315-.059.092.34.333.406.385.19.155.374.315.554.48.656.6 1.26 1.258 1.943 1.83.489.409 1.018.726 1.562 1.054.292.175.567.384.739.686.186.33.28.702.332 1.076.08.572.06 1.15.141 1.722.093.65.432 1.165.77 1.711-.1-.128-.233-.229-.328-.361a3.175 3.175 0 0 1-.319-.562 6.101 6.101 0 0 1-.282-.826c-.178-.62-.337-1.256-.724-1.787-.523-.718-1.322-1.006-2.142-1.246-.346-.103-.704-.197-1.03-.353a4.666 4.666 0 0 1-1.087-.715c-.67-.595-1.191-1.321-1.698-2.053-.196-.283-.388-.569-.589-.848-.133-.186-.268-.37-.41-.55-.051-.066-.106-.178-.203-.178-.09 0-.17.086-.142.176.024.082.111.159.164.225a23.394 23.394 0 0 1 .637.882c.197.285.392.571.592.854.494.702 1.033 1.385 1.715 1.917.354.277.745.506 1.166.671.393.154.801.262 1.2.394.404.134.809.299 1.134.582.321.28.553.655.703 1.052.271.72.344 1.506.668 2.207.184.397.462.692.758 1.007.317.339.613.699.878 1.08.134.192.27.378.343.6.05.152.098.304.14.457.11.39.229.777.339 1.167.126.45.244.903.35 1.36.107.45.325.909.337 1.375-.095-.072-.222-.113-.325-.178a4.63 4.63 0 0 1-.5-.368c-.292-.24-.567-.5-.859-.74-.284-.234-.585-.443-.868-.679-.357-.297-.7-.613-1.024-.945-.28-.288-.653-.63-.777-1.022-.12-.38-.104-.787-.236-1.165-.149-.424-.446-.63-.852-.785-.4-.152-.727-.312-.99-.663-.111-.147-.209-.303-.32-.451a3.62 3.62 0 0 0-.871-.856c-.753-.525-1.643-.79-2.437-1.237-.371-.208-.745-.434-1.05-.732-.322-.311-.49-.681-.558-1.12-.102-.671-.042-1.358-.203-2.022-.188-.766-.66-1.453-1.083-2.107-.167-.26-.335-.52-.497-.782-.064-.102-.204-.475-.347-.449-.184.067.074.484.122.599.29.674.614 1.321.83 2.021.121.391.204.808.224 1.217.018.424-.026.846-.015 1.271.013.404.061.815.224 1.188.17.393.466.694.815.934.382.264.824.457 1.252.634.202.083.407.157.614.227.163.054.323.093.469.186.73.47 1.472.937 2.13 1.507.349.303.69.634.93 1.033.221.368.369.804.108 1.192-.536.62-1.617.6-2.361.535-.439-.037-.894-.098-1.29-.298-.32-.161-.617-.368-.967-.464-.438-.12-.834-.019-1.245.147a6.006 6.006 0 0 1-.966.287c-.931.205-1.88.292-2.831.325-.187.005-.372.01-.558.013-.165.003-.35.027-.38.229-.03.19.138.311.309.298.248-.017.493-.038.74-.064.88-.089 1.76-.224 2.612-.462.384-.107.76-.227 1.12-.399.373-.177.742-.329 1.162-.223.428.109.751.454 1.154.622.395.174.83.259 1.256.314.447.058.9.076 1.348.023.201-.023.402-.068.59-.14.127-.01.293.043.412.07.911.215 1.639.853 2.255 1.526.494.538.934 1.121 1.4 1.683.278.336.567.666.885.966.314.297.66.536 1.015.777.984.67 1.744 1.58 2.345 2.599.51.865.926 1.782 1.357 2.688-.134-.036-.3.002-.441-.022a3.089 3.089 0 0 1-.61-.183 7.454 7.454 0 0 1-1.102-.579c-.68-.415-1.323-.886-1.965-1.357-.467-.343-.932-.693-1.428-.992-.372-.233-.785-.41-1.181-.596-.409-.19-.82-.373-1.242-.534-1.191-.454-2.44-.663-3.685-.91-1.804-.36-3.611-.707-5.45-.816a10.659 10.659 0 0 1-2.014-.313c-.761-.195-1.498-.473-2.235-.737a42.52 42.52 0 0 0-1.34-.47c-.225-.073-.45-.143-.677-.208-.18-.052-.399-.118-.494.102-.085.194.054.342.23.39.244.067.486.14.727.215.414.131.826.272 1.236.419.78.277 1.559.557 2.361.76-.848-.045-1.71.012-2.557.064-.693.043-1.384.097-2.074.159-.55.048-1.098.101-1.647.149-.233.02-.466.038-.7.056-.146.01-.457.036-.348.273.087.191.408.091.57.078.254-.021.507-.043.76-.066 1.387-.122 2.77-.261 4.16-.325 1.824-.084 3.672-.034 5.436.484.696.206 1.38.45 2.078.654.829.244 1.675.38 2.527.504.9.125 1.798.273 2.658.573a15.8 15.8 0 0 1 2.258 1.002c2.744 1.474 5.042 3.587 7.447 5.536.549.445 1.095.896 1.665 1.313.093.068.185.135.28.2.103.072.181.2.26.296.183.223.363.448.538.676.32.416.64.836.935 1.27-.295-.271-.648-.497-.968-.736l-.818-.605c-.732-.542-1.46-1.09-2.206-1.613-.757-.53-1.533-1.038-2.36-1.449-.82-.406-1.688-.644-2.578-.843-.807-.182-1.634-.351-2.389-.7-.846-.392-1.59-.963-2.266-1.6a19.19 19.19 0 0 1-.97-.992 40.25 40.25 0 0 1-.41-.456c-.043-.047-.143-.105-.17 0-.023.09.143.218.197.278.58.644 1.177 1.277 1.848 1.827.687.565 1.449 1.03 2.29 1.325.88.307 1.802.456 2.7.696 1.811.484 3.334 1.573 4.818 2.679.77.576 1.541 1.152 2.305 1.737a52.806 52.806 0 0 1 1.218.955c.14.113.209.257.31.404.187.268.402.537.685.708.153.092.412.586.614.272.066.117.208.213.303.309.073.071.144.145.216.219-.075.091.05.18.107.232.31.282.594.596.826.947.495.745.725 1.6.792 2.486.066.878-.003 1.76-.015 2.639-.015.916.074 1.799.284 2.69.41 1.741.278 3.495.11 5.257-.07.727-.147 1.456-.175 2.185-.036.905.073 1.804.134 2.706.053.78.065 1.555-.072 2.328-.104.595-.234 1.185-.355 1.776-.256 1.26-.51 2.555-.42 3.846-.044-.07-.11-.13-.168-.188a33.619 33.619 0 0 0-.522-.526c-.333-.334-.665-.67-.967-1.034-.444-.537-.756-1.136-1.019-1.777-.305-.74-.596-1.485-.976-2.19-.44-.815-1.03-1.524-1.613-2.24-.232-.283-.468-.565-.683-.86-.09-.124-.086-.3-.115-.449a7.801 7.801 0 0 0-.194-.724c-.269-.85-.66-1.664-1.053-2.462-.122-.25-.244-.5-.364-.752-.1-.21-.2-.421-.296-.633-.08-.176-.174-.362-.405-.329-.565.08-.118.772.013 1.026.14.27.29.535.436.803.415.764.83 1.532 1.126 2.351-.064-.125-.168-.24-.253-.35-.14-.185-.282-.365-.43-.543-.29-.35-.61-.668-.932-.988-.624-.621-1.25-1.305-1.55-2.15-.141-.398-.196-.808-.253-1.223a68.034 68.034 0 0 1-.161-1.239 33.28 33.28 0 0 1-.21-2.501c-.034-.93-.174-1.846-.475-2.728-.297-.87-.726-1.685-1.23-2.451a13.36 13.36 0 0 0-.194-.29c-.032-.047-.153-.171-.151-.225.01-.192.006-.384.003-.577-.009-.457-.042-.918-.172-1.359a2.58 2.58 0 0 0-.62-1.09c-.286-.29-.63-.516-.907-.815-.572-.618-.742-1.459-.822-2.27l-.045-.506c-.016-.16.01-.388-.064-.53-.045-.087-.156-.108-.236-.059-.098.062-.078.156-.07.255.02.244.035.486.055.73.074.89.225 1.826.8 2.543.24.3.546.527.83.782a2.3 2.3 0 0 1 .688 1.06c.131.435.161.891.166 1.345-.202-.293-.465-.554-.71-.81a21.896 21.896 0 0 0-.475-.484c-.036-.035-.239-.177-.239-.245-.166-.864-.592-1.648-1.072-2.375-.408-.615-.866-1.194-1.298-1.791a11 11 0 0 1-.71-1.086c-.087-.168-.35-.081-.336.1.007.085.074.171.114.243.058.099.116.196.177.293.89 1.425 2.205 2.64 2.725 4.271-.462-.462-.98-.878-1.457-1.325-.436-.408-.854-.832-1.283-1.247-.453-.441-.913-.878-1.374-1.313-.254-.24-.441-.553-.62-.853a5.266 5.266 0 0 1-.514-1.139c-.135-.434-.2-.886-.332-1.322a5.777 5.777 0 0 0-.52-1.204 9.769 9.769 0 0 0-.709-1.035c-.103-.135-.2-.287-.315-.414-.13-.156-.396-.029-.296.167.045.086.127.16.19.234.29.347.59.69.85 1.062.414.594.63 1.232.766 1.936.113.586.286 1.172.567 1.702-.342-.36-.736-.68-1.103-1.013-.69-.629-1.383-1.253-2.078-1.876-.569-.51-1.14-1.019-1.71-1.526-.286-.257-.548-.542-.822-.81a113.733 113.733 0 0 0-4.138-3.862c-.164-.146-.34-.357-.534-.456-.187-.096-.405.042-.425.242-.023.218.217.348.359.47.194.167.387.336.58.504a132.667 132.667 0 0 1 3.073 2.763c2.571 2.378 5.116 4.817 7.405 7.47.565.655 1.112 1.326 1.68 1.978.527.603 1.065 1.196 1.595 1.797-.23-.202-.538-.36-.806-.504a7.285 7.285 0 0 0-1.178-.495c-.68-.224-1.41-.428-1.797-1.085-.196-.332-.318-.698-.59-.982-.224-.225-.497-.393-.739-.595-.321-.274-.537-.601-.724-.978-.192-.383-.387-.71-.787-.902-.76-.363-1.622-.559-2.439-.748a29.58 29.58 0 0 0-.675-.148l-.342-.068c-.06-.012-.148-.053-.205-.022-.18.097.187.154.235.164.233.046.465.095.698.147.815.181 1.628.393 2.405.706.403.164.645.412.832.8.185.382.355.761.643 1.078.298.329.693.573.896.977.193.383.289.808.548 1.156.44.594 1.112.886 1.767 1.177.324.145.643.304.933.513.246.176.478.373.714.564.29.236.575.46.922.608.316.136.704.274 1.056.25.036.018.083.11.107.141.071.093.144.186.214.279.126.164.247.329.366.496.212.3.417.606.6.924.363.63.698 1.29.939 1.977.581 1.665.612 3.41.14 5.105-.073-.204-.262-.406-.382-.579-.12-.175-.244-.349-.373-.516a5.588 5.588 0 0 0-.217-.262c.068-.034.091-.156.097-.22.043-.962-.195-1.903-.443-2.822l-.148-.555c-.104-.39-.7-.31-.695.096 0 .18.088.38.134.554.056.214.113.429.166.645.116.465.224.94.26 1.42.008.113.012.227.013.341-.077-.103-.267-.175-.385-.226a1.984 1.984 0 0 0-.684-.166c-.272-.016-1.161-.013-1.032.456-.116-.047-.235.11-.236.212-.001.19.272.312.403.411a6.7 6.7 0 0 1 .95.91c.59.682 1.035 1.477 1.49 2.253.47.798.967 1.59 1.625 2.25.553.555 1.175 1.045 1.775 1.548 1.21 1.01 2.447 2.006 3.389 3.284.188.256.269.602.379.9.154.415.331.819.518 1.218.153.326.306.652.45.982.17.39.282.8.397 1.21.295 1.056.834 2.027 1.454 2.925.312.455.663.88.978 1.331.264.38.49.783.742 1.172-.068-.052-.173-.07-.251-.1a18.285 18.285 0 0 1-.55-.21 5.938 5.938 0 0 1-1.149-.627c-.73-.51-1.219-1.27-1.531-2.093-.304-.797-.509-1.627-.78-2.434a13.837 13.837 0 0 0-1.146-2.468 17.6 17.6 0 0 0-3.544-4.337 22.007 22.007 0 0 0-2.198-1.71 22.071 22.071 0 0 0-1.719-1.069 16.878 16.878 0 0 0-.308-.171l-.157-.086c-.087-.047-.106-.042-.102-.14.036-.867-.26-1.737-.6-2.521a20.281 20.281 0 0 0-.62-1.274l-.192-.369c-.114-.215-.208-.47-.348-.669-.1-.14-.322-.117-.41.021-.127.195.096.445.192.609.222.383.45.765.664 1.154.454.823.852 1.685.97 2.629.013.115.022.23.025.346-.067-.068-.187-.108-.274-.152a53.44 53.44 0 0 0-1.7-.838 76.78 76.78 0 0 0-.863-.4c-.014-.007 0-.432-.006-.486a5.4 5.4 0 0 0-.094-.65c-.18-.88-.54-1.716-.902-2.534-.138-.312-.277-.623-.412-.937-.069-.169-.114-.424-.327-.466-.182-.035-.395.166-.314.353.263.673.583 1.32.858 1.988.323.783.65 1.635.659 2.493-.199-.137-.464-.222-.682-.323-.447-.205-.894-.411-1.34-.62a61.886 61.886 0 0 1-2.257-1.101c-.8-.414-1.56-.909-2.269-1.466-.087-.07-.157-.098-.164-.212a6.137 6.137 0 0 0-.109-.82 8.101 8.101 0 0 0-.339-1.165c-.333-.9-.782-1.753-1.24-2.594-.181-.33-.362-.66-.539-.993-.08-.153-.155-.405-.293-.514a.315.315 0 0 0-.46.092c-.101.175.018.345.102.5.107.2.22.4.333.6.163.283.33.566.494.851.447.779.886 1.573 1.19 2.421.147.415.266.841.33 1.276-.108-.14-.291-.26-.422-.378a30.52 30.52 0 0 1-.974-.91c-.673-.653-1.25-1.415-1.867-2.12-1.145-1.305-2.36-2.566-3.76-3.6a15.241 15.241 0 0 0-.442-.313c-.132-.09-.345-.306-.51-.187-.194.143-.018.31.114.4.208.138.417.278.611.438.731.602 1.421 1.25 2.092 1.916.53.528 1.046 1.067 1.562 1.608.527.551.99 1.175 1.482 1.759.544.645 1.08 1.295 1.642 1.924-.123-.051-.291-.04-.422-.057a9.108 9.108 0 0 1-.662-.11c-.459-.091-.916-.2-1.367-.324l-1.085-.297a31.1 31.1 0 0 0-.6-.157c-.123-.032-.485-.19-.492.055-.005.184.356.199.481.233.23.06.46.123.69.188.635.18 1.266.376 1.905.544a17.518 17.518 0 0 0 1.86.388l.133.018c.067.01.205.213.254.265a19.078 19.078 0 0 0 2.045 1.866c1.323 1.033 2.833 1.778 4.338 2.509 1.505.73 3.039 1.448 4.385 2.454.624.464 1.202.992 1.784 1.509a36.392 36.392 0 0 1 2.102 2.018c1.139 1.188 2.185 2.481 2.975 3.93a9.45 9.45 0 0 1 .92 2.339c.1.422.165.852.188 1.285.02.39.058.807-.01 1.193-.045-.075-.21-.131-.285-.172a6.007 6.007 0 0 0-.606-.276c-.172-.067-.349-.126-.483.047a.31.31 0 0 0 .126.472c.323.143.632.295.926.494.354.238.68.516 1.001.797.538.472 1.084.933 1.694 1.313.721.46 1.505.823 2.281 1.18.8.366 1.643.707 2.364 1.218.726.514 1.33 1.199 1.854 1.913 1.053 1.436 1.875 3.028 2.861 4.508 1.078 1.619 2.034 3.334 2.733 5.152.35.912.614 1.845.895 2.78.263.87.55 1.732.809 2.603.553 1.857.99 3.778.79 5.728-.09.889-.265 1.86-.683 2.66-.16.31-.41.7-.805.683-.407-.018-.773-.4-.96-.731-.192-.363-.387-.647-.801-.772-.332-.101-.6.056-.889.198-.144.07-.31.13-.472.094-.2-.044-.356-.205-.485-.354-.254-.294-.44-.644-.65-.97-.47-.724-1.13-1.34-1.729-1.956-.61-.627-1.216-1.266-1.693-2.006-.953-1.477-1.61-3.222-2.9-4.455-.604-.577-1.327-.888-2.122-1.108-.618-.17-1.253-.282-1.857-.498-1.697-.606-3.315-1.637-4.53-2.97a63.408 63.408 0 0 1-1.846-2.148c-.115-.138-.243-.237-.433-.237-.22 0-.42.15-.485.36-.057.188.008.358.128.505l.42.502c1.153 1.375 2.343 2.731 3.726 3.884a15.185 15.185 0 0 0 2.327 1.602c.653.364 1.321.698 1.968 1.07.779.449 1.546.949 2.147 1.624.594.667 1.132 1.44 1.502 2.254a1.7 1.7 0 0 1 .165.583c.009.155-.063.253-.192.329-.37.22-.874.128-1.279.098-.081-.007-.185-.075-.262-.106a15.33 15.33 0 0 0-.99-.359 15.218 15.218 0 0 0-1.715-.441 8.777 8.777 0 0 1-.312-.141c-.195-.091-.38-.213-.574-.3-.422-.189-.762.418-.395.69.34.25.79.411 1.179.573.437.182.882.348 1.333.493.77.246 1.602.462 2.418.439.158-.006.363.15.502.223a12.12 12.12 0 0 1 1.786 1.175c1.389 1.106 2.454 2.54 3.051 4.216-.054-.003-.112.037-.16.055a6.637 6.637 0 0 1-.906.274 9.208 9.208 0 0 1-1.332.203c-.926.077-1.86.042-2.783-.06-1.879-.206-3.781-.694-5.508-1.47a16.488 16.488 0 0 1-1.162-.572c-.193-.105-.4-.28-.61-.34a.369.369 0 0 0-.455.284c-.038.205.096.337.258.433.187.111.38.215.578.31.448.217.915.401 1.387.56-.039.037-.014.134.004.177.041.097.117.13.215.148.249.045.494.1.739.162.462.118.917.261 1.37.41.764.252 1.528.518 2.318.688.459.099.926.167 1.396.182.424.012.84-.038 1.26-.084.562-.063 1.122-.139 1.688-.154.944-.029 1.819.147 2.592.712.724.529 1.294 1.29 1.669 2.097.733 1.587.77 3.466.616 5.177-.174 1.926-.626 3.834-1.262 5.66-.073.212-.15.424-.23.635-.068.176-.215.44.038.546.18.076.415-.131.569-.207.17-.084.342-.156.522-.22.819-.29 1.696-.357 2.558-.391.511-.02 1.02-.052 1.53-.07.918-.034 1.892-.051 2.768-.353.37-.126.65-.347.816-.707.182-.397.221-.846.244-1.278.051-.956-.096-1.929-.222-2.874-.08-.598-.184-1.198-.204-1.801-.03-.923.01-1.855.087-2.775.149-1.775.573-3.479 1.172-5.153.588-1.643 1.143-3.33 1.27-5.082.064-.874-.005-1.743-.326-2.563-.313-.803-.782-1.522-1.197-2.274-.447-.81-.786-1.657-.828-2.59a5.892 5.892 0 0 1 .008-.655c.008-.116.015-.092.074-.171.078-.107.053-.22.039-.343-.015-.12-.03-.224-.009-.344a14.545 14.545 0 0 1 .24-1.1c.466-1.807 1.21-3.57 1.291-5.455.006-.13.038-.296-.024-.415a.285.285 0 0 0-.332-.146c-.289.09-.202.506-.216.735-.04.655-.17 1.303-.33 1.94-.273 1.084-.651 2.139-.928 3.222-.022-.16-.086-.326-.133-.481a16.45 16.45 0 0 0-.211-.648 31.6 31.6 0 0 0-.5-1.305c-.315-.787-.653-1.565-.949-2.358-.162-.436-.327-.876-.425-1.331-.08-.376-.06-.734-.014-1.111.054-.45.127-.899.119-1.353-.002-.213-.021-.442-.125-.632a1.662 1.662 0 0 0-.304-.37 5.936 5.936 0 0 1-.72-.839 4.774 4.774 0 0 1-.552-1.142c-.284-.818-.45-1.68-.543-2.54-.094-.886-.174-1.878.085-2.745.232-.784.702-1.474 1.202-2.113.51-.65 1.065-1.264 1.54-1.942.516-.739.895-1.557 1.182-2.41.277-.831.477-1.685.716-2.527.126-.44.252-.899.443-1.315a6.17 6.17 0 0 1 .682-1.125c.478-.638 1.073-1.184 1.613-1.768.611-.66 1.132-1.398 1.718-2.08a30.297 30.297 0 0 1 1.974-2.076c.632-.607 1.293-1.183 1.922-1.792a34.966 34.966 0 0 0 1.799-1.905c.473-.535.911-1.166 1.501-1.578.706-.492 1.52-.789 2.282-1.177.693-.352 1.41-.804 1.773-1.52.426-.838.302-1.813.52-2.703.088-.356.213-.703.305-1.059a3.45 3.45 0 0 0 .116-.67c.01-.17-.058-.377-.016-.535.027-.184.065-.36.06-.548 0-.045-.022-.115-.008-.159.027-.094.07-.18.114-.266.172-.346.393-.662.714-.886.37-.256.802-.386 1.234-.496.15-.039.3-.074.45-.111.116-.029.163-.04.272-.004.113.038.229.064.344.088.45.093.919.133 1.377.133.414 0 .8-.18 1.208-.223.46-.048.854.162 1.239.383.166.095.335.184.51.256.099.042.198.076.3.103.064.018.215-.01.138-.111-.009-.02.015.019 0 0" fill="#472F13"/><path d="M26.463 51.734l.072.04-.072-.04s.023.013 0 0zm9.739-.318l.027.032c-.013.005-.022-.006-.027-.032.009.01.009.01 0 0zm-8.529-.662c.018.008.003.002 0 0 .003.001 0 0 0 0zm-.001-.001c.022.01.007.003 0 0 .003.001 0 0 0 0zm5.717-1.581l.013.01-.013-.01zm-14.048-.4c.004-.005.143.074.156.08l-.156-.08s.052.027 0 0zm14.068-.57a2.8 2.8 0 0 0 .136.042c-.017.009-.116-.034-.136-.042.045.016.045.016 0 0zm1.853-1.52c.018.002.038.002.058.003a.117.117 0 0 1-.058-.002c.018 0 .016 0 0 0zm-.532-.48l.201.056c-.023.014-.17-.047-.201-.055.068.017.068.017 0 0zm-9.555-2.441zm-5.955-1.504zm8.602-.709l.108.002c-.003.003-.106-.002-.108-.002.035.001.035.001 0 0zm-8.975-.208l.054.03-.054-.03s.018.01 0 0zm76.329 8.108l-.021.009c-.434.184-.857.39-1.266.622-.345.196-.869.435-.978.853-.061.238-.055.492-.07.737-.011.183-.038.401.091.552.139.162.164.318.053.51-.1.173-.238.345-.386.479-.33.298-.775.461-1.195.588a8.831 8.831 0 0 1-1.394.291c-1 .136-2.006.09-3.01.041-.992-.048-1.989-.12-2.965-.295-.472-.086-.947-.19-1.389-.38-.38-.163-.82-.455-.99-.848-.364-.844 1.203-1.187 1.711-1.326.456-.125.923-.227 1.361-.407.405-.179.859-.392 1.185-.695a1.03 1.03 0 0 0 .33-.552c.015-.073.035-.185.011-.257-.043-.083-.13-.138-.206-.188-.174-.116-.383-.242-.427-.463a1.757 1.757 0 0 1 .012-.674c.047-.236.142-.46.185-.698.039-.216.056-.438.1-.653.086-.431.255-.846.542-1.184.3-.353.693-.62 1.067-.89.112-.082.225-.165.339-.246.067-.05.252-.139.227-.22a1.848 1.848 0 0 1-.06-.3c-.01-.097-.174-.111-.262-.133-.451-.113-.923-.101-1.377-.186-.21-.04-.472-.085-.61-.262a.412.412 0 0 1-.072-.124c-.024-.07.007-.08-.079-.089a13.03 13.03 0 0 1-.357-.035c-1.783-.206-3.848-.599-5.004-2.117-.248-.323-.509-.73-.578-1.138-.04-.224-.01-.444.084-.65.087-.191.227-.345.34-.52.134-.207.11-.354-.026-.555a1.125 1.125 0 0 0-.464-.397c-.455-.175-.96-.18-1.44-.187-.909-.014-1.972.04-2.763-.49-.144-.097-.393-.245-.405-.44-.013-.197.173-.269.296-.381.332-.306.557-.709.812-1.077a10.188 10.188 0 0 1-1.406-.366c-.413-.145-.858-.33-1.156-.664-.708-.785.282-1.625.907-2.031.797-.517 1.681-.899 2.556-1.259a57.39 57.39 0 0 1 2.744-1.028c-.241-.17-.467-.359-.703-.536a2.764 2.764 0 0 0-.357-.238c-.11-.058-.2-.097-.234-.228-.07-.272.295-.479.463-.635.213-.197.422-.4.633-.6.68-.65 1.385-1.301 2.228-1.735.863-.445 1.823-.609 2.785-.662 1.956-.108 4.013.294 5.913-.317-.916-.955-2.088-1.559-3.345-1.937-1.863-.562-3.822-.698-5.702-1.185-.92-.238-1.825-.556-2.657-1.02a8.345 8.345 0 0 1-1.124-.748c-.257-.204-.837-.592-.385-.918 1.533-1.095 3.398-1.695 5.222-2.082 1.927-.41 3.905-.607 5.874-.64.002 0-1.65.028 0 0 .258 0 .446.302.298.527.83.076 1.687.148 2.481.426.71.248 1.475.652 1.929 1.271.485.665.404 1.534.847 2.22.442.683 1.139 1.151 1.851 1.516.868.444 1.76.832 2.615 1.305.368.204.794.444 1.006.823.231.41.126.883.035 1.317-.05.242-.102.48-.146.723-.02.112-.04.224-.057.338-.017.1.154.153.235.204.368.243.64.584.596 1.046-.042.448-.335.774-.662 1.058-.338.296-.714.547-1.048.847.902.115 1.822.156 2.704.397a4.13 4.13 0 0 1 1.083.456c.252.159.762.468.665.826-.052.187-.244.267-.398.354-.185.105-.374.204-.564.299-.38.19-.766.367-1.15.551-.755.362-1.525.754-2.13 1.347.31.15.603.33.914.476.227.108.55.113.617.407.067.296-.247.43-.411.615-.207.231-.347.518-.522.774.122.058.246.11.372.156.412.153.836.271 1.25.412.396.134.852.283 1.184.543.15.116.19.318.1.484-.094.175-.352.236-.521.313-.45.207-.9.41-1.353.612a50.446 50.446 0 0 1-.868.379c-.061.026-.117.017-.097.092.027.098.05.198.074.298.107.454.166.945-.15 1.33-.283.346-.72.527-1.116.705-.407.183-.812.38-1.17.65.034-.024.003-.003-.004.005a2.2 2.2 0 0 0-.18.155c.338.257.652.547.877.913.23.369.337.788.442 1.204.104.42.194.845.42 1.219.218.361.488.694.655 1.084.174.403.193.868-.058 1.246-.239.357-.732.5-1.127.598-.46.116-.933.169-1.4.247-.464.076-.894.256-1.326.436zM23.97 39.803c.14 0 .28.01.418.028.124.016.322.015.425.094.091.07.115.204.055.303-.065.106-.195.115-.305.14-.581.133-1.173.222-1.764.297a6.16 6.16 0 0 0 1.416.354c-.157-.025.094.01.121.013l.24.024a14.806 14.806 0 0 0 1.322.053c.5.002.998-.008 1.495-.005.258.002.515.007.771.018.165.008.422.012.395.251-.02.188-.235.4-.363.526a2.533 2.533 0 0 1-.49.375c-.376.225-.794.377-1.194.556-.4.178-.8.38-1.117.688a2.107 2.107 0 0 0-.333.41c-.039.062-.077.076-.01.123.181.123.372.23.568.328.423.207.875.35 1.33.46a11.608 11.608 0 0 0 1.063.205l.17.025a.92.92 0 0 1 .057.009c1.34.178 2.692.223 4.037.339.66.056 1.319.13 1.97.257.312.062.624.136.929.233.166.051.6.124.512.39.277.021.555.041.833.043a4.12 4.12 0 0 0 .416-.016c.098-.009.186-.03.263.046a.21.21 0 0 1 .029.253c-.06.1-.185.106-.287.13-.244.055-.488.108-.732.16-1.014.215-2.038.417-3.011.783.37.13.76.258 1.154.29.184-.023.955-.106.805.284-.063.167-.29.145-.431.147-.202.002-.38-.018-.576.037-.366.104-.686.31-1.02.484.102.1.21.2.325.285.733.536 1.626.791 2.376 1.3.194.13.38.278.547.442.137.135.33.314.405.494.092.215-.153.298-.301.36a4.81 4.81 0 0 1-.635.223c-.072.02-.144.036-.216.05-.09.02-.039.037-.06.112a.222.222 0 0 1-.145.15c-.198.068-.463.047-.67.061a75.403 75.403 0 0 1-2.982.127c-.13.003-.241.047-.375.047a11.482 11.482 0 0 0-1.05.048l.068-.01a28.51 28.51 0 0 1-1.589.185c-.533.041-1.066.015-1.582-.134a5.623 5.623 0 0 1-1.363-.633c-.17-.104-.423-.22-.359-.463.056-.22.356-.27.54-.334a14.582 14.582 0 0 1-4.18-.798 18.69 18.69 0 0 1-1.92-.809 27.63 27.63 0 0 1-.955-.486c-.124-.067-.288-.12-.316-.277a.242.242 0 0 1 .09-.232c.337-.266.53-.735.78-1.08.067-.093.071-.082-.016-.157-.04-.034-.08-.07-.119-.106a9.965 9.965 0 0 1-.264-.265c-.163-.167-.327-.336-.507-.486a1.736 1.736 0 0 0-.3-.197c-.09-.048-.207-.07-.27-.155-.125-.171.058-.417.144-.566.219-.381.502-.721.826-1.016a4.887 4.887 0 0 1 .742-.554c.076-.046.004-.223-.013-.307-.093-.458-.207-.923-.451-1.327-.226-.372-.565-.634-.961-.808-.16-.065-.426-.11-.379-.347.04-.195.326-.241.483-.297.89-.314 1.826-.467 2.76-.584.243-.03.487-.06.73-.087l.337-.038a.782.782 0 0 0 .313-.098c.42-.218.874-.368 1.35-.368zm63.528 2.5s-.004.001 0 0c-.005.001-.03.004 0 0zm11.71-2.17c0 .002 0 .002 0 0 0 .014 0 .002 0 0zm-22.584-3.311c.002 0 .001 0 0 0 .019.003.005 0 0 0zm-.902-.31c.004.004 0 0 0 0 .035.023 0 0 0 0zm3.539-7.909c.003.002 0 0 0 0 .026.019 0 0 0 0zm-1.247-9.31c.004.004 0 0 0 0 .034.028 0 0 0 0zm13.24-1.316c.003.001.006.002 0 0 .01.005.036.014 0 0zM38.87.15c.451-.034-.515.039 0 0a17.61 17.61 0 0 1 3.636.106c1.795.239 3.583.728 5.134 1.683.164.1.34.198.38.403.034.174-.049.378-.21.46-.424.216-.864.403-1.31.568a19.3 19.3 0 0 1-1.258.418c-.218.066-.437.128-.656.189-.074.02-.18.03-.249.064.381.022.562.5.33.786-.123.15-.301.17-.483.185-.208.016-.415.036-.622.057-.865.088-1.73.206-2.582.383-1.35.278-2.758.686-3.916 1.458.224.13.528.201.648.45a.528.528 0 0 1-.334.727c-.4.064-.747.24-1.093.441-.133.077-.264.158-.397.235-.057.034-.161.127-.23.127.52.606 1.404.783 2.148.94.172.036.318.072.43.216.11.138.15.322.106.491-.026.094-.37.85-.299.883.693.322 1.515.398 2.268.423.427.014.854.007 1.283-.01.312-.014.628-.05.943-.05-.28-.255-.503-.587-.537-.973-.04-.442.187-.84.48-1.153.605-.647 1.514-1.03 2.347-1.279.892-.266 1.83-.383 2.757-.431.14-.008.278-.013.418-.018l.18-.003c.02-.04.05-.07.078-.103.146-.168.301-.329.466-.477.301-.271.627-.512.971-.723a8.657 8.657 0 0 1 2.191-.929c1.636-.456 3.36-.57 5.05-.637.674-.026 1.35-.044 2.025-.063.479-.013.956-.03 1.434-.057.193-.012.39-.037.583-.037-1.206-.357-2.482-.37-3.72-.533-.14-.021-.224-.197-.19-.324.037-.149.2-.277.307-.379a3.91 3.91 0 0 1 .804-.573c.56-.31 1.18-.502 1.807-.628 1.82-.364 3.73-.254 5.557.008 1.9.272 3.785.735 5.58 1.418.813.308 1.621.662 2.363 1.118.17.105.336.216.497.334.134.1.3.19.295.378-.005.193-.196.294-.34.384a3.47 3.47 0 0 1-.523.263c-.814.328-1.724.382-2.592.392-.778.008-1.559.002-2.336.002 1.07.597 2.195 1.112 3.153 1.888.499.405.945.894 1.188 1.496a2.415 2.415 0 0 1 .168 1.068l.092.074.184.148c.137.109.276.218.417.323.162.122.355.323.56.335.212.012.422.027.632.05.464.048.923.132 1.364.285.111.04.221.082.33.13.054.024.202.059.212.127.012.075-.077.21-.11.274-.045.09-.096.179-.153.262-.052.075.03.182-.038.28a.23.23 0 0 1-.19.099c-.067 0-.054-.03-.112.025a3.456 3.456 0 0 1-.389.325c-.375.272-.783.496-1.152.776a2.505 2.505 0 0 0-.766 1.002c-.173.39-.282.838-.13 1.253.13.357.455.616.755.828.698.489 1.454.87 2.1 1.435.68.594 1.323 1.241 1.885 1.948.51.643.997 1.372 1.2 2.176.102.406.126.837.007 1.241-.106.364-.324.768-.667.957-.356.198-.786.158-1.168.068-.435-.103-.852-.283-1.256-.47-.826-.38-1.613-.839-2.413-1.268-.802-.428-1.64-.894-2.538-1.082-.42-.09-.92-.117-1.246.213-.294.297-.375.78-.382 1.181-.016.89.797 1.417 1.442 1.874.606.429 1.285.884 1.51 1.632.486 1.62-1.406 2.592-2.551 3.229.113.18.23.36.359.53.059.076.167.161.105.268-.048.084-.172.081-.254.096-.225.04-.45.07-.677.083a4.852 4.852 0 0 1-1.352-.102c-.772-.17-1.513-.566-1.956-1.24-.49-.745-.502-1.7-.278-2.536.206-.763.652-1.364 1.188-1.928.297-.31.63-.645.697-1.089.054-.455-.141-.901-.352-1.294-.428-.795-1.057-1.506-1.979-1.688-.863-.17-1.772.165-2.534.545-.383.19-.753.408-1.112.64-.175.112-.415.226-.566.377.165.07.692.243.415.499-.119.109-.372.06-.517.054a18.82 18.82 0 0 1-.56-.032c-.464-.032-.93-.066-1.397-.097a33.86 33.86 0 0 0-2.315-.103c-.355 0-.712.01-1.065.048-.333.035-.71.081-.996.266-.357.233-.356.712-.163 1.043.21.357.543.643.87.888.741.56 1.566 1.004 2.387 1.434.495.259.993.51 1.49.764.406.208.81.42 1.2.657.35.213.74.445.946.813.217.385.394.82.369 1.271-.02.373-.207.706-.485.95-.587.514-1.457.657-2.203.75-1.716.21-3.436.014-5.154.119-1.582.097-3.348.268-4.624-.873-.618-.555-1.106-1.376-1.155-2.219-.022-.453.09-.895.261-1.312.174-.423.409-.822.55-1.258.138-.425.152-.883-.084-1.278-.217-.365-.667-.578-1.038-.749-.802-.37-1.665-.598-2.449-1.01-.368-.194-.754-.459-.947-.84-.193-.378-.204-.847.005-1.218.21-.373.603-.597.974-.783.272-.135.749-.287.846-.607.047-.155.144-.397.103-.557a3.484 3.484 0 0 1-.11-.564c-.007-.092.02-.264-.05-.332-.073-.072-.162-.126-.25-.181-.157-.102-.32-.193-.47-.31-.36-.283-.475-.658-.377-1.103.097-.441.406-.752.72-1.057.175-.172.346-.344.452-.57.078-.198.16-.396.247-.591.126-.279.27-.55.395-.828.187-.41.234-.826.016-1.235-.106-.2-.236-.39-.384-.559a1.917 1.917 0 0 0-.215-.208c-.03-.022-.118-.105-.154-.105-.085.14-.248.257-.415.257l.06.011c.17.029.313.028.455.137a.568.568 0 0 1 .056.862c-.143.14-.346.178-.532.23-.93.264-1.883.438-2.837.596-.732.12-1.466.233-2.197.364-.89.158-1.762.369-2.63.619.25.164.41.416.306.722-.066.195-.25.305-.395.44a5.219 5.219 0 0 0-.413.426c-.276.32-.602.805-.5 1.252.054.232.192.41.363.57.145.134.282.222.323.426.08.401-.338.727-.603.965a6.218 6.218 0 0 1-.989.716c-.705.42-1.47.725-2.232 1.024-.432.171-.866.338-1.289.532-.191.087-.378.18-.563.279-.068.036-.19.079-.247.134.93.63 2.032.944 3.098 1.256 1.682.492 3.553.948 4.787 2.284.3.326.551.692.742 1.091.104.217.19.44.262.67.063.202.105.403-.04.583-.143.176-.396.313-.588.43-.181.11-.373.204-.566.293-.32.146-.651.267-.985.38.366.061.737.083 1.103.142.436.072.872.2 1.238.456.37.261.632.621.88.994.222.333.443.654.746.919.322.281.691.522 1.041.77a87.85 87.85 0 0 0 4.714 3.064c.525.321 1.052.64 1.578.961.21.129.44.333.25.598-.116.165-.36.176-.544.205a4.977 4.977 0 0 1-.653.058c-.961.026-1.93-.147-2.868-.349-.917-.197-1.82-.448-2.728-.69-.911-.244-1.825-.487-2.758-.638a73.023 73.023 0 0 1-2.09-.37c-.686-.132-1.372-.265-2.059-.388-.135-.024-.27-.048-.405-.07a3.614 3.614 0 0 1-.106.29 4.551 4.551 0 0 1-.3.594c-.21.354-.462.664-.716.984.228.137.446.291.681.415.106.055.213.099.327.13.1.027.215.03.306.079.226.125.195.471-.038.567-.21.087-.41.185-.595.32-.433.35-.561.828-.676 1.351-.103.465-.24.902-.584 1.246.17.001.367-.027.533.013.387.094.348.657-.04.713-.187.027-.386.009-.576.01l-.723.014c-.896.02-1.791.038-2.687.037a46.678 46.678 0 0 1-1.361-.02 29.994 29.994 0 0 1-.632-.027c-.177-.009-.372.003-.513-.122-.345-.307.078-.772.25-1.054.21-.345.436-.709.723-.995a15.308 15.308 0 0 1-2.763-1.252c-.158-.092-.305-.223-.489-.232-.395-.02-.791-.036-1.187-.052l-.651-.022c-.155-.004-.319.006-.418-.136-.098-.139-.02-.373.015-.524.04-.172.1-.338.174-.499.148-.325.35-.617.574-.894.11-.134.223-.266.34-.395.044-.05.095-.126.155-.165-.785-.25-1.609-.269-2.425-.308-.439-.02-.878-.046-1.313-.11a6.279 6.279 0 0 1-.622-.124c-.175-.046-.275-.162-.247-.348.127-.819.535-1.538 1.019-2.197.443-.604.97-1.176 1.305-1.849-.406-.221-.853-.342-1.308-.421-.932-.162-1.893-.12-2.818-.336-.208-.049-1.177-.237-.898-.626.072-.127.18-.243.266-.362l.573-.777.414-.563.146-.2c.019-.024.083-.084.083-.107a11.98 11.98 0 0 0-1.588-.428c-.202-.04-.416-.097-.623-.105-.178-.008-.451-.018-.475-.248-.022-.21.283-.411.423-.531.192-.164.394-.315.6-.46.208-.148.42-.29.629-.44.16-.115.346-.23.486-.37-.677-.21-1.36-.397-2.075-.354-.315.019-.34-.392-.04-.448.36-.068.72-.132 1.08-.197.73-.131 1.46-.263 2.183-.425a27.178 27.178 0 0 0 1.883-.51c-.39-.116-.79-.239-1.196-.275a3.33 3.33 0 0 0-.315-.014c-.088 0-.196.024-.282.004-.158-.037-.211-.25-.088-.354.134-.114.43-.078.595-.095.206-.02.412-.043.618-.067a18.5 18.5 0 0 0 .553-.074c.082-.013.17-.038.255-.038a7.464 7.464 0 0 0-.384-.047c-.126-.01-.322.02-.418-.078a.188.188 0 0 1 .057-.305c.15-.07.375-.054.54-.071.58-.063 1.16-.125 1.74-.192a42.537 42.537 0 0 0 1.696-.232l.173-.029a.182.182 0 0 1 .031-.068c.046-.063.146-.087.215-.119a18.316 18.316 0 0 1 1.637-.654c.14-.047.31-.077.442-.143-.737-.413-1.576-.604-2.395-.78-.12-.025-.35-.024-.411-.155-.086-.18.17-.287.288-.359a5.91 5.91 0 0 1 1.046-.485c1.41-.501 2.913-.558 4.361-.892-.797-.088-1.597-.095-2.399-.119-.357-.01-.715-.013-1.073-.026a25.125 25.125 0 0 1-.643-.032c-.127-.009-.362.023-.433-.115-.092-.181.18-.291.297-.363a8.8 8.8 0 0 1 .538-.3c.339-.177.686-.337 1.026-.51a8.25 8.25 0 0 0 .986-.57c.273-.188.487-.414.72-.646-.327-.18-.6-.445-.887-.68a3.401 3.401 0 0 0-.48-.339c-.117-.065-.423-.122-.355-.322.028-.082.139-.147.2-.209.07-.072.135-.15.199-.229.071-.091.14-.184.21-.275a4.94 4.94 0 0 1 .436-.52c.093-.093.208-.166.298-.256-.242-.06-.48-.138-.72-.204a5.201 5.201 0 0 0-.462-.107c-.107-.018-.259.006-.356-.041-.302-.149.112-.423.217-.539.174-.189.319-.42.294-.686-.048-.271-.243-.467-.45-.635-.157-.119-.534-.283-.29-.508.378-.352.747-.68 1.208-.914-.508-.06-1.02-.104-1.53-.149a87.788 87.788 0 0 1-.774-.071c-.18-.018-.478.008-.626-.105-.354-.27.443-.657.616-.762.77-.461 1.612-.8 2.456-1.096 1.709-.6 3.468-1.029 5.093-1.842-.653-.322-1.416-.433-2.13-.525-.303-.039-.606-.076-.907-.12-.235-.032-.47-.07-.703-.115-.165-.03-.408-.034-.51-.19-.257-.39.412-.53.647-.605.414-.133.835-.242 1.257-.349.776-.194 1.53-.416 2.284-.683-.077-.138-.212-.343-.202-.503.013-.225.205-.286.383-.362.465-.197.94-.363 1.426-.503A14.34 14.34 0 0 1 38.87.15z" fill="#B2D900"/></g></svg>