<svg width="44" height="66" viewBox="-1 -1 44 66" xmlns="http://www.w3.org/2000/svg"><path fill="#010001" d="M19.122 56.35c.152-7.95.051-15.9.051-23.9-.557-.05-1.012-.1-1.467-.1-1.467.1-2.884-.1-4.351-.3-1.264-.15-2.58-.3-3.844-.55-1.366-.25-2.631-.7-3.946-1.1-.607-.2-1.214-.45-1.821-.65-.962-.3-1.771-.95-2.631-1.4-.304-.15-.405-.5-.455-.8-.102-1.3-.152-2.65.101-3.95.05-.2.101-.4.253-.5.404-.2.354-.55.354-.95-.101-3.75-.202-7.5-.051-11.2-.151-.45-.657-.45-.759-.8C.455 9.8.455 9.45.405 9.1.354 8 .354 6.85.304 5.75.253 5.1.556 4.7 1.062 4.4c.962-.6 2.024-1 3.086-1.35 2.176-.7 4.351-1.2 6.577-1.55 1.871-.3 3.743-.5 5.666-.7C20.539.4 24.687.25 28.835.45c2.884.1 5.717.4 8.55.9.91.15 1.821.4 2.681.65.303.1.607.2.91.35 1.164.5 1.72 1.45 1.72 2.65.051 1.05.102 2.05-.151 3.1-.051.3-.051.65-.051.95-.303.25-.556.45-.91.7v10.6c.05.2.556.2.657.6.101.4.152.8.203 1.2.101 1.3.101 2.65.101 3.95 0 .55-.253.9-.658 1.2-.152.1-.253.2-.405.25-2.023 1.05-4.047 2-6.222 2.6-.759.2-1.467.35-2.226.5-1.72.35-3.389.7-5.109 1-.961.15-1.923.25-2.884.35-.455.05-.91.05-1.315.25-.253.35-.101.75-.101 1.15 0 2.5 0 4.95-.051 7.4-.05 2.1 0 4.2 0 6.3 0 2.9.152 5.85.051 8.75 0 .3 0 .55.05.8.203.35.456.4.709.5 1.77.55 3.541 1.1 5.311 1.55 1.063.3 2.074.6 3.086.95.455.15.86.15 1.315.2.86.05 1.67.35 2.378.75 1.062.6 1.417 1.85.911 2.9-.658 1.2-1.872 1.7-3.036 1.1-.505-.25-1.011-.55-1.416-.9-.354-.35-.759-.55-1.214-.75-2.53-1-5.059-1.9-7.69-2.55-.202-.05-.354-.05-.607 0-1.163.4-2.377.25-3.591 0-.557-.1-1.113-.15-1.67.05-.354.15-.708.2-1.062.25-2.327.6-4.604 1.5-6.83 2.4-.253.1-.455.25-.708.45-.455.45-1.012.75-1.619 1.05-1.467.75-3.288-.7-3.187-2.15.051-.9.405-1.6 1.316-2 .758-.35 1.568-.65 2.428-.65.556 0 1.012-.15 1.517-.3 1.771-.65 3.643-1 5.413-1.6.86-.25 1.72-.5 2.53-.75.556-.15.759-.6 1.163-.8zm-1.568-47.1a1.685 1.685 0 0 0-.708 0c-1.062-.1-2.125-.1-3.137-.05-.05-.05-.101-.05-.151-.05-.759-.2-1.569-.15-2.378-.25-2.681-.25-5.362-.6-7.942-1.4-.557-.15-1.164-.4-1.72-.6-.152.55.05 1.05.05 1.55 0 1.15.051 1.45 1.518 1.95.202.05.405.15.556.2 1.366.35 2.732.7 4.149.95 1.568.25 3.136.6 4.755.5.405.1.809.1 1.214.05.405.15.809.1 1.214.1 3.288.2 6.627 0 9.915-.15 1.164-.05 2.327-.1 3.491-.25 3.339-.4 6.627-.8 9.865-1.85 1.214-.4 2.327-.8 3.389-1.55.152-.95.152-1.9.101-2.85 0-.05-.101-.1-.151-.15-1.366.6-2.682 1.3-4.149 1.7-4.856 1.2-9.814 1.8-14.822 2-1.113.05-2.175.05-3.288.1h-.253c-.557-.05-1.012-.1-1.518.05zm-4.907 21.6c.101.05.202.15.304.15 2.124.1 4.249.4 6.374.3.657-.05 1.264.05 1.922-.15.202.05.455.1.658-.05h.607c4.502-.2 8.903-1 13.203-2.25 1.821-.5 3.44-1.35 5.059-2.25.202-.1.405-.25.506-.45v-3.4c-.405.05-.658.25-.911.45-.455.35-.961.65-1.467.85a37.47 37.47 0 0 1-6.07 2c-2.277.55-4.604.85-6.931 1.2-.657.1-1.265.2-1.922.25-.708.05-1.467.1-2.175.25-1.316-.1-2.58-.05-3.896 0-1.517-.15-3.086-.25-4.603-.2-.304 0-.607-.05-.911-.05-.253-.2-.506-.15-.809-.2-2.327-.3-4.553-.9-6.83-1.55-.86-.25-1.619-.65-2.428-1-.455-.2-.708 0-.759.45-.05.85 0 1.65.101 2.55.304.2.607.35.911.55 1.315.75 2.782 1.1 4.199 1.5 1.821.55 3.642 1.1 5.514 1.05l.101.05.253-.05zm3.187-17.35h-.405c-.303-.2-.607-.15-.961-.15-1.062-.05-2.175-.05-3.187-.2-.202.2-.202.4-.253.6 0 .35 0 .7-.05 1.1-.102.75-.405 1-1.164 1.1-.253 0-.506-.05-.708.15-.304 2.05-.354 4.15-.253 6.25.253.1.455.15.607.2.809.3 1.214.9 1.265 1.75v.95c0 .25-.051.5.253.75 1.214-.1 2.529.3 3.844.25 1.417.05 2.833.15 4.199.2.557 0 1.113.1 1.67-.15.455.05.961.1 1.416-.05.152 0 .304.05.455.05 2.631-.25 5.211-.5 7.791-.95.708-.1 1.366-.4 2.074-.6-.202-1.95.455-3.35 2.479-3.85-.101-1.85.101-3.65-.101-5.5-.203-.05-.354-.1-.506-.15-1.113-.3-1.315-.55-1.467-1.7-.051-.35 0-.8-.253-1.1-1.568.2-3.086.45-4.604.6-2.327.25-4.654.35-6.981.35-.253 0-.506-.05-.708.15-.708-.1-1.417-.05-2.125.05-.708-.15-1.517-.25-2.327-.1zm22.815-8.05c-.151-.3-.354-.3-.505-.35-1.063-.2-2.125-.4-3.238-.6-2.428-.4-4.907-.55-7.335-.65-3.238-.1-6.476-.05-9.713.25-1.72.15-3.44.3-5.16.55-2.176.35-4.351.85-6.476 1.45-.455.15-.961.2-1.416.55.101.05.152.15.253.15.202.05.354.15.556.2 2.429.5 4.857.85 7.336.9 2.529.05 5.008.1 7.537.05 2.53 0 5.008-.2 7.487-.45 1.923-.15 3.845-.55 5.767-.85 1.619-.15 3.238-.6 4.907-1.2zm2.58-1.4c-.101-.35-.303-.45-.505-.55a10.03 10.03 0 0 0-2.024-.8c-1.821-.45-3.642-.7-5.464-.9-1.618-.2-3.288-.25-4.957-.3-4.553-.1-9.106.05-13.659.55-3.187.35-6.324.9-9.359 1.75-.657.2-1.315.4-1.973.65-.506.15-.961.45-1.315.8-.152.15-.202.35-.051.55.557.55 1.316.65 1.973.3.658-.35 1.316-.65 2.024-.85 1.012-.3 2.023-.55 3.035-.8 3.238-.8 6.526-1.25 9.814-1.4 5.413-.2 10.826-.3 16.188.45 1.619.25 3.289.4 4.857 1 .556.25 1.012.1 1.416-.45zM7.487 21.95c0-2 0-4.05.051-6.15-.354-.15-.658-.25-.962-.35-.91-.3-1.365-.9-1.264-1.9.05-.4 0-.85 0-1.3-1.063-.3-2.024-.6-3.086-.9 0 .3-.051.5-.051.7 0 1.5 0 3.05.051 4.55 0 1.2.152 2.4.101 3.6-.051 1.1.101 2.2.202 3.35.81.5 1.619.8 2.58 1 .051-.45.051-.8.102-1.15.151-.85.505-1.15 1.365-1.25.304-.05.506.05.911-.2zm14.924 34.5v-23.9c0-.05-.051-.05-.051-.1s-.051-.05-.152-.15c-.607 0-1.214 0-1.872.2 0 .15-.05.35-.05.5.05.85.101 1.65.101 2.5v12.1c0 2.25-.101 4.55-.051 6.8 0 .65-.151 1.35.102 2 .607.15 1.214.2 1.973.05zM38.295 22.9c.607-.3 1.063-.5 1.518-.8.405-.25.556-.55.607-1.1.253-3.4.101-6.75.152-10.15 0-.2 0-.4-.304-.5-.506.2-1.062.45-1.568.65-.202.4-.101.8-.051 1.15.203 1.35-.404 2.25-1.618 2.75-.253.1-.506.25-.759.35v5.4c.354.05.657.1 1.012.15.556.1.86.45.91.95.051.35.051.65.101 1.15zm-6.07 39.3c.404-.45.708-.9.556-1.5-.86-.35-8.195-2.4-8.853-2.5-.101.4-.101.75.101 1.2 2.783.75 5.515 1.65 8.196 2.8zm-14.013-4c-.911.25-1.872.55-2.833.85-.961.3-1.923.5-2.884.85-.961.3-1.973.4-2.883.9.05.55.202 1.05.556 1.3.304.1.405 0 .557-.05 1.264-.55 2.58-1 3.844-1.4 1.063-.35 2.125-.7 3.238-1 .506-.15.658-.35.658-.85.05-.25 0-.45-.253-.6zm18.92-46.7c-1.063.25-2.125.3-3.086.7 0 .75.202 1.35.405 2 .961.2 1.72.05 2.529-.4.253-.15.405-.3.405-.55 0-.55.151-1.1-.253-1.75zM19.729 57.2c-.05.75-.101 1.3-.151 1.9 0 .4.253.7.556.65.81-.1 1.67.2 2.58-.15 0-.35.051-.7 0-1.05-.05-.35.152-.7-.152-1.1-.91.15-1.821-.05-2.833-.25zm-13.153-34c-.354.55-.505 1.05-.252 1.7 1.011.4 2.023.7 3.237.65 0-.4.051-.8.051-1.2 0-.35-.203-.6-.557-.7-.809-.25-1.568-.55-2.479-.45zm27.369 1.15c.961 0 1.77-.4 2.58-.65.253-.05.404-.3.404-.55.051-.4.152-.85-.151-1.25-.405 0-.759-.05-1.113 0-1.265.35-1.973.3-1.72 2.45zM6.678 14.3c1.113.5 1.618.55 3.035.25.101-.5.152-1.05-.101-1.65-1.063-.05-2.024-.45-3.086-.4 0 .7 0 1.2.152 1.8z"/><path fill="#D0E9EA" d="M20.387 13.5c.202-.15.455-.15.708-.15 2.327 0 4.654-.1 6.981-.35 1.518-.15 3.036-.4 4.604-.6.253.3.202.75.253 1.1.152 1.15.354 1.4 1.467 1.7.152.05.304.1.506.15.202 1.8 0 3.65.101 5.5-2.074.5-2.732 1.9-2.479 3.85-.708.2-1.366.5-2.074.6-2.58.4-5.16.7-7.79.95-.152 0-.304 0-.456-.05.253-.45.911 0 1.214-.5v-6.15c-.303-.7-.202-1.4-.202-2.1V14.2c0-.25.051-.5-.202-.65-.911 0-1.771-.05-2.631-.05z"/><path fill="#F4E6D0" d="M38.649 5.45c-1.618.55-3.288 1-4.957 1.3-1.923.3-3.794.65-5.767.85-2.479.2-5.009.4-7.487.45-2.53 0-5.009 0-7.538-.05-2.479-.05-4.907-.4-7.335-.9-.203-.05-.405-.1-.557-.2-.05-.05-.152-.1-.253-.15.456-.3.911-.4 1.417-.55 2.124-.6 4.3-1.1 6.475-1.45 1.72-.25 3.44-.4 5.16-.55 3.238-.25 6.475-.3 9.713-.25 2.479.05 4.907.2 7.335.65 1.063.2 2.125.35 3.238.6.202-.05.354 0 .556.25z"/><path fill="#D0E9EA" d="M19.274 9.25c1.113-.05 2.175-.05 3.288-.1 5.009-.2 9.966-.8 14.823-2 1.467-.35 2.782-1.1 4.148-1.7.051.05.152.1.152.15.05.95.05 1.9-.101 2.85-1.063.75-2.226 1.15-3.39 1.55-3.187 1-6.526 1.4-9.865 1.85-1.163.15-2.327.2-3.49.25-3.288.15-6.627.35-9.915.15-.405 0-.81.05-1.215-.1v-2.9c1.063-.05 2.125-.05 3.137.05-.455.9-.202 1.85-.152 2.8h2.884c.657-.6.404-1.35.404-2.05 0-.5-.556-.5-.708-.8zM39.408 7.9c-.455-.2-.809-.15-1.214 0-.91.3-1.821.65-2.732.8-1.618.25-3.187.7-4.806 1-.404.05-.657.3-.86.6.304.5.759.4 1.164.3 1.164-.2 2.327-.45 3.491-.7 1.315-.3 2.63-.6 3.945-1.05.405-.15.81-.35 1.012-.95z"/><path fill="#F3FFFF" d="M20.387 13.5c.86.05 1.669.05 2.479.1.253.2.202.45.202.65v3.25c0 .7-.101 1.45.203 2.1.05.1 0 .25 0 .35v5.8c-.304.5-.962.05-1.215.5-.455.15-.91.1-1.416.05-.809-.15-1.619.1-2.378-.15-.05-.15-.101-.2-.101-.25V13.55c.81-.1 1.518-.15 2.226-.05z"/><path fill="#D0E9EA" d="M21.905 27.7c.708-.15 1.416-.2 2.175-.25.658-.05 1.265-.15 1.922-.25 2.327-.35 4.654-.65 6.931-1.2 2.074-.5 4.098-1.2 6.071-2 .505-.2 1.011-.5 1.467-.85.253-.2.505-.4.91-.45v3.4c-.101.2-.303.35-.506.45-1.619.9-3.237 1.75-5.059 2.25-4.35 1.25-8.751 2-13.203 2.25h-.607c-.101-1.1-.101-2.25-.101-3.35zm17.655-2.55c-.506.15-1.113.25-1.669.4-.81.2-1.619.55-2.429.65-1.163.15-2.226.55-3.389.8-.253.05-.455.2-.658.3-.202.1-.303.25-.151.55.556.1 1.163.1 1.77-.05 1.568-.4 3.086-.75 4.654-1.15.708-.2 1.366-.4 1.973-.85.253-.15.253-.4-.101-.65z"/><path fill="#AACECF" d="M41.229 4.05c-.404.55-.86.7-1.467.45-1.568-.6-3.187-.8-4.856-1-5.362-.75-10.826-.7-16.188-.45-3.289.15-6.577.6-9.814 1.4-1.012.25-2.024.5-3.036.8-.708.2-1.366.5-2.023.85-.658.35-1.417.25-1.973-.3-.152-.15-.152-.4.05-.55.405-.35.81-.65 1.316-.8.657-.2 1.315-.45 1.973-.65 3.085-.85 6.222-1.4 9.358-1.75 4.553-.5 9.106-.6 13.659-.55 1.67.05 3.339.1 4.958.3 1.821.2 3.693.45 5.463.9.709.2 1.366.45 2.024.8.253.1.455.2.556.55z"/><path fill="#CFE8E9" d="M7.487 21.95c-.405.25-.658.15-.86.15-.86.05-1.214.4-1.366 1.25-.05.35-.05.7-.101 1.15-.961-.2-1.821-.5-2.58-1-.101-1.1-.253-2.2-.202-3.35.05-1.2-.102-2.4-.102-3.6-.05-1.5 0-3.05-.05-4.55 0-.2 0-.4.05-.7 1.063.3 2.024.6 3.086.9 0 .45.051.85 0 1.3-.101 1 .304 1.6 1.265 1.9.304.1.607.2.961.35-.05 2.15-.101 4.2-.101 6.2zm14.924 34.5c-.759.15-1.316.1-1.973-.05-.253-.65-.102-1.35-.102-2-.05-2.25.051-4.55.051-6.8V35.5c0-.85-.051-1.65-.101-2.5 0-.15.05-.3.05-.5.658-.15 1.265-.2 1.872-.2.101.05.101.1.152.15 0 .05.051.05.051.1v23.9z"/><path fill="#D0E9EA" d="M14.873 26.25c-1.315.05-2.631-.3-3.845-.25-.303-.25-.253-.5-.253-.75v-.95c-.05-.85-.455-1.4-1.264-1.75-.203-.05-.405-.15-.607-.2-.102-2.1-.051-4.2.252-6.25.253-.25.506-.15.709-.15.809-.1 1.062-.35 1.163-1.1.051-.35.051-.7.051-1.1 0-.2 0-.4.253-.6 1.012.15 2.124.15 3.187.2.303 0 .657-.05.961.15-.658.05-1.265.05-1.973.1v8.3c0 1.35-.101 2.7.051 4.05.506 0 .961.05 1.366.05-.051.1-.051.15-.051.25z"/><path fill="#CFE8E9" d="M38.295 22.9c-.05-.5-.05-.8-.101-1.15-.101-.55-.354-.9-.91-.95-.304-.05-.608-.1-1.012-.15v-5.4c.253-.1.506-.25.759-.35 1.214-.55 1.77-1.45 1.618-2.75-.05-.35-.151-.7.051-1.15.506-.2 1.012-.45 1.568-.65.304.1.304.3.304.5-.051 3.4.101 6.75-.152 10.15-.051.5-.202.85-.607 1.1-.455.3-.911.5-1.518.8z"/><path fill="#F3FFFF" d="M14.873 26c-.455 0-.86-.05-1.366-.05-.152-1.4-.051-2.75-.051-4.05v-8.3c.709-.05 1.366-.1 1.973-.1h.405v3.8c0 .35.051.7.101 1.05a8.483 8.483 0 0 1 0 3.2c-.05.4-.151.75-.151 1.15v2.5c0 .25.05.5-.203.7-.152.1-.405.1-.708.1z"/><path fill="#D0E9EA" d="M14.873 26c.253 0 .556-.05.809-.05.253-.25.203-.5.203-.7v-2.5c0-.4.101-.8.151-1.15.152-1.05.203-2.15 0-3.2-.05-.35-.101-.7-.101-1.05v-3.8c.81-.15 1.619-.05 2.429 0V25.9c0 .05.05.15.101.25.759.2 1.568 0 2.377.15-.556.25-1.113.15-1.669.15-1.417-.05-2.833-.15-4.199-.2-.101-.1-.101-.15-.101-.25z"/><path fill="#CFE8E8" d="M12.445 30.8c-1.923.05-3.744-.5-5.514-1.05-1.417-.45-2.884-.75-4.199-1.5-.304-.2-.607-.35-.911-.55-.101-.9-.152-1.7-.101-2.55.051-.45.304-.65.759-.45.809.35 1.619.75 2.428 1 2.226.6 4.502 1.25 6.829 1.55.253.05.557 0 .81.2-.253.1-.557-.05-.86.4v2.7c.152.15.607-.15.759.25zm-9.106-3.7c-.051.5.354.65.708.85 1.417.65 2.934 1.1 4.502 1.45.405.1.81.15 1.215.2.303.05.505-.25.404-.55-.101-.25-.253-.4-.506-.45-.607-.1-1.214-.2-1.77-.4-1.113-.35-2.226-.7-3.339-1.1-.455-.15-.809-.3-1.214 0z"/><path fill="#CEE7E8" d="M12.445 12.05c-1.619.1-3.187-.25-4.756-.5-1.416-.25-2.782-.6-4.148-.95-.202-.05-.405-.1-.556-.2-1.417-.5-1.518-.8-1.518-1.95 0-.5-.202-1-.051-1.55.608.2 1.164.45 1.72.6 2.58.8 5.262 1.15 7.943 1.4.809.1 1.619 0 2.377.25-.607 0-1.214.05-1.77.05-.253 0-.506-.05-.658.25-.05.75-.05 1.5 0 2.35.405.05.708.05 1.012.05.202 0 .304.05.405.2zm-4.553-1.2c.303 0 .404.05.455 0a.38.38 0 0 0 .354-.25c.051-.2-.05-.3-.152-.4-.253-.25-.556-.3-.86-.35-1.214-.15-2.428-.45-3.642-.8L3.44 8.9c-.253-.05-.506 0-.607.25-.101.2.101.5.455.6.354.15.759.25 1.164.35 1.214.4 2.428.6 3.44.75z"/><path fill="#D0E9EA" d="M13.406 27.45c1.518 0 3.086.1 4.603.2-.455 1.05-.202 2.15-.202 3.3 1.214.05 2.327.05 3.389.1-.607.25-1.264.15-1.922.15-2.125.15-4.249-.2-6.374-.3-.101 0-.202-.1-.304-.15.557-.1 1.113.05 1.72-.15-.303-.95.203-1.95-.05-2.8-.253-.2-.658.05-.86-.35z"/><path fill="#F0FCFC" d="M21.247 31.1c-1.113-.05-2.226-.05-3.389-.1 0-1.15-.253-2.25.202-3.3 1.315-.05 2.58-.1 3.895 0v3.35c-.253.1-.455.1-.708.05z"/><path fill="#CAE2E3" d="M32.225 62.2c-2.681-1.1-5.464-2-8.196-2.75-.202-.45-.202-.8-.101-1.2.658.1 7.993 2.15 8.853 2.5.203.55-.101.95-.556 1.45zm-14.013-4c.253.15.253.4.253.55 0 .55-.152.75-.658.85-1.113.3-2.175.65-3.238 1-1.315.45-2.58.9-3.844 1.4-.152.05-.253.2-.557.05-.354-.25-.506-.75-.556-1.3.91-.5 1.922-.6 2.883-.9.961-.3 1.923-.55 2.884-.85.961-.25 1.922-.55 2.833-.8z"/><path fill="#F3FFFF" d="M19.274 9.25c.202.3.708.3.708.75 0 .7.203 1.45-.404 2.05h-2.884c-.05-.95-.303-1.9.152-2.8.253-.05.506-.05.708 0 .506.35.961.35 1.467 0h.253z"/><path fill="#F1FDFD" d="M13.406 27.45c.202.35.607.1.91.4.253.9-.252 1.85.051 2.8-.607.25-1.214.05-1.72.15h-.101l-.101-.05c-.152-.4-.607-.1-.759-.3v-2.7c.253-.4.607-.3.86-.4.303.1.556.1.86.1z"/><path fill="#CAE2E3" d="M37.132 11.5c.404.6.253 1.2.253 1.75 0 .25-.203.4-.405.55-.759.45-1.568.6-2.529.4-.203-.6-.405-1.25-.405-2 .961-.4 2.023-.45 3.086-.7z"/><path fill="#F0FCFC" d="M12.445 12.05c-.101-.15-.203-.2-.405-.2-.304 0-.607-.05-1.012-.05-.05-.8-.05-1.6 0-2.35.203-.3.456-.2.658-.25.607 0 1.214-.05 1.77-.05.051-.05.102-.05.152.05v2.9c-.354.05-.759.05-1.163-.05z"/><path fill="#CEE7E8" d="M19.729 57.2c1.012.2 1.923.4 2.783.25.303.4.101.8.152 1.1.05.35 0 .7 0 1.05-.911.35-1.72.05-2.58.15-.304.05-.557-.3-.557-.65.101-.6.152-1.15.202-1.9z"/><path fill="#C9E1E2" d="M6.576 23.2c.911-.1 1.67.2 2.429.4.354.1.556.35.556.7 0 .4 0 .8-.05 1.2-1.215.1-2.226-.25-3.238-.65-.202-.6 0-1.1.303-1.65zm27.369 1.15c-.253-2.15.455-2.1 1.77-2.45.354-.1.709 0 1.113 0 .253.4.152.85.152 1.25 0 .25-.152.5-.405.55-.86.25-1.669.65-2.63.65z"/><path fill="#C8E0E1" d="M6.678 14.3c-.152-.6-.152-1.15-.102-1.75 1.063-.05 2.024.35 3.086.4.253.6.203 1.1.102 1.65-1.468.25-1.973.2-3.086-.3z"/><path fill="#D0E9EA" d="M19.021 9.25c-.506.35-.961.35-1.467 0 .506-.15.961-.1 1.467 0z"/><path fill="#FCFEFE" d="M39.408 7.9c-.202.6-.556.8-1.012.95-1.264.45-2.58.8-3.945 1.05-1.164.25-2.327.45-3.491.7-.405.05-.911.2-1.164-.3.203-.35.405-.55.86-.6 1.619-.25 3.188-.7 4.806-1 .962-.15 1.822-.5 2.732-.8.354-.15.759-.2 1.214 0z"/><path fill="#FCFEFD" d="M39.56 25.15c.354.25.354.5.101.7-.607.4-1.265.65-1.973.85-1.517.4-3.086.75-4.654 1.15-.607.15-1.163.15-1.77.05-.102-.3 0-.45.151-.55.203-.15.405-.25.658-.3 1.113-.25 2.226-.65 3.389-.8.81-.1 1.619-.45 2.429-.65.556-.2 1.113-.3 1.669-.45z"/><path fill="#090A0A" d="M3.339 27.1c.405-.3.759-.1 1.163 0 1.113.35 2.226.75 3.339 1.1.557.15 1.164.25 1.771.4.253.05.404.2.506.45.101.3-.102.6-.405.55-.405-.05-.809-.1-1.214-.2-1.518-.35-3.035-.8-4.503-1.45-.303-.2-.708-.35-.657-.85z"/><path fill="#0B0C0D" d="M7.892 10.85c-1.012-.15-2.226-.35-3.44-.7-.405-.1-.759-.2-1.164-.35-.354-.1-.506-.4-.455-.6.101-.25.354-.3.607-.25.202.05.405.05.607.15 1.214.35 2.428.65 3.642.8.304.05.658.1.86.35.102.1.203.25.152.4a.38.38 0 0 1-.354.25c-.051 0-.152-.05-.455-.05z"/></svg>