<svg width="120" height="120" viewBox="0 0 120 120" xmlns="http://www.w3.org/2000/svg"><g fill="none" fill-rule="evenodd"><path fill="#685F51" d="M.082 52.205v14.896h119.752V52.205z"/><path fill="#4F433B" d="M.082 52.205v1.892h119.752v-1.892zm0 13.167v1.84h119.752v-1.84z"/><path fill="#3A3A39" d="M107.898 54.097v2.278h.627v-2.278zm-5.133 0v2.278h.627v-2.278zm-5.132 0v2.278h.626v-2.278zm-5.133 0v2.278h.626v-2.278zm-5.133 0v2.278h.627v-2.278zm-5.133 0v2.278h.627v-2.278zm-5.132 0v2.278h.626v-2.278zm-5.132 0v2.278h.626v-2.278zm-5.133 0v2.278h.626v-2.278zm-5.133 0v2.278h.626v-2.278zm-5.133 0v2.278h.627v-2.278zm-5.132 0v2.278h.626v-2.278zm-5.133 0v2.278h.627v-2.278zm-5.133 0v2.278h.627v-2.278zm-5.133 0v2.278h.627v-2.278zm-5.132 0v2.278h.627v-2.278zm-5.133 0v2.278h.627v-2.278zm-5.133 0v2.278h.627v-2.278zm-5.132 0v2.278h.627v-2.278zm-5.133 0v2.278h.627v-2.278zm-5.132 0v2.278h.626v-2.278z"/></g></svg>