<svg width="120" height="120" viewBox="0 0 120 120" xmlns="http://www.w3.org/2000/svg"><g fill="none" fill-rule="evenodd"><path d="M60.273 4.253c-4.725 0-8.631 3.576-9.155 8.164a40.46 40.46 0 0 1 18.308 0c-.524-4.589-4.428-8.164-9.153-8.164zm13.42 13.786l-2.726-.847a36.247 36.247 0 0 0-21.388 0l-2.727.847v-4.571c0-7.401 6.02-13.422 13.42-13.422 7.402 0 13.422 6.02 13.422 13.422v4.571z" fill="#126456"/><path d="M89.046 119.986H31.5c-5.158 0-9.34-4.183-9.34-9.341V51.58c0-21.05 17.064-38.113 38.114-38.113 21.05 0 38.112 17.063 38.112 38.113v59.064c0 5.158-4.18 9.34-9.339 9.34" fill="#178575"/><path d="M85.654 113.659H34.892a3.91 3.91 0 0 1-3.912-3.91V73.942a3.912 3.912 0 0 1 3.912-3.912h50.762a3.912 3.912 0 0 1 3.91 3.912v35.807a3.91 3.91 0 0 1-3.91 3.91M60.273 13.467c-16.421 0-30.415 10.386-35.776 24.946 5.261 14.675 19.29 25.175 35.776 25.175 16.486 0 30.514-10.5 35.774-25.175-5.36-14.56-19.353-24.946-35.774-24.946" fill="#159D8F"/><path d="M56.862 16.334l-.062-.628c1.143-.112 2.3-.169 3.442-.169v.632a34.78 34.78 0 0 0-3.38.165zm10.115.48a35.294 35.294 0 0 0-3.352-.486l.06-.628c1.137.109 2.286.276 3.412.494l-.12.62zm-16.747.82l-.18-.604a36.206 36.206 0 0 1 3.344-.824l.121.62c-1.104.216-2.21.488-3.285.809zm23.234 1.1a36.05 36.05 0 0 0-3.197-1.115l.18-.605A36.47 36.47 0 0 1 73.7 18.15l-.236.585zm-29.5 1.44l-.291-.56a36.384 36.384 0 0 1 3.127-1.445l.237.585a35.8 35.8 0 0 0-3.073 1.42zm35.502 1.677a36.095 36.095 0 0 0-2.929-1.7l.29-.56a36.621 36.621 0 0 1 2.98 1.73l-.34.53zM38.288 23.85l-.392-.494c.897-.71 1.84-1.385 2.8-2.007l.343.529a36.013 36.013 0 0 0-2.751 1.972zm46.487 2.19a36.048 36.048 0 0 0-2.556-2.22l.392-.494a36.82 36.82 0 0 1 2.6 2.258l-.436.457zm-51.37 2.492l-.479-.412a36.578 36.578 0 0 1 2.373-2.5l.436.455a35.845 35.845 0 0 0-2.33 2.457zm55.792 2.624a35.535 35.535 0 0 0-2.09-2.663l.478-.412a36.277 36.277 0 0 1 2.127 2.71l-.515.365zm-59.699 2.899l-.548-.314a35.75 35.75 0 0 1 1.854-2.907l.515.365a35.148 35.148 0 0 0-1.82 2.856zm63.063 2.962a36.183 36.183 0 0 0-1.541-3.012l.546-.314a35.54 35.54 0 0 1 1.57 3.066l-.575.26zm-65.108 3.206a35.788 35.788 0 0 1-.701-1.684l-.045-.116.046-.115c.2-.505.41-1.003.633-1.497l.575.26a34.63 34.63 0 0 0-.576 1.355c.204.52.418 1.034.644 1.54l-.576.257zm64.116 3.022l-.55-.311a35.122 35.122 0 0 0 1.522-3.025l.577.257a35.448 35.448 0 0 1-1.55 3.079zm-60.72 2.96a35.99 35.99 0 0 1-1.843-2.908l.549-.312a35.27 35.27 0 0 0 1.81 2.858l-.517.363zm56.77 2.68l-.48-.411a34.216 34.216 0 0 0 2.072-2.676l.518.362a35.36 35.36 0 0 1-2.11 2.725zM35.326 51.43a36.215 36.215 0 0 1-2.364-2.504l.479-.411a35.283 35.283 0 0 0 2.323 2.46l-.438.455zm47.342 2.237l-.392-.493a35.996 35.996 0 0 0 2.542-2.233l.44.453a36.667 36.667 0 0 1-2.59 2.273zM40.715 55.71c-.96-.623-1.9-1.3-2.797-2.012l.393-.494c.88.699 1.805 1.364 2.747 1.976l-.343.53zM76.9 57.423l-.292-.559a35.841 35.841 0 0 0 2.92-1.71l.344.529a35.878 35.878 0 0 1-2.972 1.74zm-30.083 1.47a36.5 36.5 0 0 1-3.128-1.446l.292-.56c.996.52 2.03.998 3.074 1.42l-.238.586zm23.71 1.124l-.181-.605a34.774 34.774 0 0 0 3.19-1.124l.24.585a36.155 36.155 0 0 1-3.248 1.144zm-17.11.84a35.977 35.977 0 0 1-3.348-.824l.18-.605c1.08.322 2.186.594 3.288.81l-.12.619zm10.36.49l-.062-.628a35.122 35.122 0 0 0 3.347-.494l.122.62c-1.123.222-2.27.39-3.407.502zm-3.443.172h-.062c-1.143 0-2.3-.056-3.444-.166l.06-.628c1.123.108 2.262.163 3.384.163l.062.631z" fill="#E7F4F2"/><path fill="#1B1A19" d="M30.98 82.704h58.584v-2.33H30.98z"/><path fill="#1B1A19" d="M85.014 87.024h2.557V81.54h-2.557z"/><path d="M60.273 16.169c-19.527 0-35.413 15.886-35.413 35.411v57.734c0 4.393 3.576 7.97 7.972 7.97h54.88c4.397 0 7.974-3.577 7.974-7.97V51.58c0-19.525-15.887-35.411-35.413-35.411zm27.44 101.747H32.832c-4.744 0-8.603-3.86-8.603-8.602V51.58c0-19.874 16.17-36.043 36.044-36.043 19.873 0 36.045 16.17 36.045 36.043v57.734c0 4.743-3.862 8.602-8.605 8.602z" fill="#FFFFFE"/></g></svg>