<svg width="120" height="120" viewBox="0 0 120 120" xmlns="http://www.w3.org/2000/svg" xmlns:xlink="http://www.w3.org/1999/xlink"><defs><path id="a" d="M.104.042h29.71v22.581H.105z"/></defs><g fill="none" fill-rule="evenodd"><path d="M40.541 70.611c.051-.02.102-.042.154-.064l-.154.064zm-.053.022l-.085.036.138-.058-.053.022zm-.309.13zm10.459-2.405l-.021.05.017-.046.004-.004zm37.691-63l-.004.03a.02.02 0 0 0-.002.004l.006-.034zm-5.064-3.853a1.886 1.886 0 0 0-.479.307c-.57.132-1.161.208-1.73.299-.63.1-1.261.191-1.893.28-.559.073-1.118.143-1.678.192-.477.04-.953.082-1.429.123-.225.02-.447.037-.671.047-.45.02-.907.078-1.341.186-.43.108-.75.314-1.068.56-.803.086-1.603.203-2.4.326-.516.08-1.027.173-1.537.273a4.433 4.433 0 0 0-.313-.2c-.917-.535-2.074-.61-3.109-.528a51.51 51.51 0 0 0-1.943.186c-1.823.211-3.663.453-5.464.816-.717.143-1.43.323-2.13.544-.616-.12-1.317.14-1.688.648a21.34 21.34 0 0 1-.156.068c-.526.226-.973.575-1.405.944-.475.406-.823 1.055-.946 1.659a8.185 8.185 0 0 0-.126 1.11c-.012.18-.02.361-.034.542-.326.384-.647.774-.898 1.21-.325.565-.554 1.206-.797 1.803-.201.497-.375 1.008-.556 1.512l-.763 2.12a389.916 389.916 0 0 0-1.08 3.041 1159.34 1159.34 0 0 1-2.766 7.764c-.477 1.329-.969 2.653-1.458 3.978-.509 1.38-.987 2.775-1.508 4.15a13.09 13.09 0 0 0-.345.864c-.273.778-.259 1.696-.077 2.51-.277.41-.554.821-.82 1.24a8.98 8.98 0 0 0-.6 1.05c-.143.31-.425.864-.502 1.27-.025.13-.053.249-.09.37-.093.198-.188.395-.277.594-.164.362-.326.74-.457 1.117-.14.407-.195.846-.224 1.27-.043.634.29 1.348.725 1.781.498.496 1.21.77 1.911.775.704.004 1.362-.193 2.003-.454.472-.191.924-.399 1.374-.63.182-.094.356-.201.526-.317.209-.024.417-.052.619-.108.31-.085.618-.244.897-.421.178.188.383.349.613.473.328.177.718.44 1.073.5.29.048.583.089.875.12.292 0 .723-.077 1.04-.165.533-.146.988-.4 1.42-.7.927 1.184 2.497 1.827 4.003 1.907.393.02.955-.045 1.24-.136.409-.13.849-.29 1.231-.528 1.317-.128 2.637-.236 3.956-.352-.147.183-.294.365-.444.545a39.6 39.6 0 0 0-1.09 1.025c-.228.07-.442.17-.628.3-2.29 1.616-4.498 3.36-6.668 5.13-1.031.84-2.063 1.68-3.092 2.524-1.008.827-2.068 1.628-2.985 2.555a3.888 3.888 0 0 0-.313.357c-.41.279-.814.565-1.21.865-1.164.881-2.26 1.844-3.403 2.753a32.251 32.251 0 0 0-2.643 2.338c-.394.39-.803.761-1.234 1.111-.403.29-.821.55-1.201.875-.68.58-.746 1.696-.316 2.429.437.743 1.426 1.207 2.274.921a7.76 7.76 0 0 0 .91-.381c.173-.069.346-.138.518-.209a55.073 55.073 0 0 0 3.357-1.565 48.632 48.632 0 0 0 1.751-.92c.388-.18.774-.362 1.16-.545.02.512.252 1.027.606 1.379.254.25.554.424.898.52.558.154 1.064.043 1.57-.204.56-.272 1.1-.553 1.625-.89.324-.207.644-.421.957-.644l.971-.689c.041.016.083.03.126.044a.76.76 0 0 0 .048.04l-.633.657c-.231.239-.459.482-.688.724-.14.148-.282.294-.426.438-.236.236-.428.49-.63.76-.244.327-.366.719-.521 1.093-.119.44-.119.88 0 1.32a2.489 2.489 0 0 0 2.043 1.796c-.226.232-.45.466-.668.705-.825.908-1.65 1.81-2.474 2.72-1.618 1.785-3.22 3.589-4.886 5.33-.672.706-1.34 1.412-2.018 2.114l-.682.707a110.75 110.75 0 0 0-2.415 2.421 2.265 2.265 0 0 0-.616 1.938c-.173.206-.344.412-.515.619-.614.74-1.231 1.479-1.837 2.224-.296.365-.589.732-.88 1.1-.301.306-.584.627-.87.945l-.29.323c-.386.417-.76.844-1.133 1.272-.793.908-1.573 1.83-2.375 2.73-1.624 1.82-3.266 3.628-5.022 5.323-1.105 1.07-2.11 2.24-2.954 3.525-.397.605-.755 1.22-1.071 1.871-.191.393-.355.803-.516 1.208-.246.614-.509 1.256-.274 1.917.13.367.325.667.672.87a1.49 1.49 0 0 0 1.473 0c.955-.524 1.765-1.265 2.597-1.958.42-.352.842-.7 1.26-1.055.964-.82 1.928-1.641 2.896-2.458 1.826-1.54 3.663-3.071 5.467-4.636 3.82-3.314 7.592-6.69 11.503-9.899.95-.78 1.908-1.554 2.849-2.346.426-.36.855-.715 1.275-1.08.218-.19.438-.377.651-.573.369-.335.823-.674 1.039-1.128l.008-.018.054-.036a62.967 62.967 0 0 0 2.789-2.006c2.047-1.553 4.081-3.14 6.003-4.846l1.167-1.037c.624-.554 1.246-1.095 1.702-1.804a1.59 1.59 0 0 0 .233-.992c.413-.33.826-.66 1.237-.992 1.955-1.574 3.905-3.154 5.877-4.706l1.34-1.05.052-.039c1.99-1.445 4.035-2.824 5.996-4.31.544-.413 1.09-.826 1.603-1.277a8.82 8.82 0 0 0 .562-.54c.078-.09.153-.181.225-.274.382-.48.527-.65.72-1.129.608-.716.666-1.823.196-2.624a2.347 2.347 0 0 0-1.399-1.06c-.495-.286-.989-.378-1.557-.4-.38-.016-.764.085-1.139.148-.371.062-.73.225-1.078.358a6.369 6.369 0 0 1-.507.17 2.393 2.393 0 0 0-.291-.07 7.087 7.087 0 0 0-1.392-.113c-.698.018-1.393.15-2.082.252-.87.126-1.735.331-2.592.528a95.67 95.67 0 0 0-1.663.399c-.606.062-1.207.162-1.808.255-.27.043-.535.092-.801.147a2.942 2.942 0 0 0-1.139-.271c-.88-.045-1.626.349-2.334.8a2.437 2.437 0 0 0-.775-.052c.123-.207.239-.417.346-.63a2.36 2.36 0 0 0 .319-.784c.207-.225.414-.45.618-.676.281-.312.564-.621.84-.937l.504-.579c.437-.498.917-1.058 1.078-1.718.193-.795.024-1.622-.522-2.234a2.778 2.778 0 0 0 1.082-.402c1.174-.768 2.205-1.696 3.258-2.615l1.882-1.641c.876-.765 1.76-1.521 2.642-2.28 1.757-1.509 3.53-3 5.323-4.466 1.296-1.058 2.587-2.122 3.888-3.174.408-.27.802-.567 1.186-.88l.19-.132c.36-.25.716-.517 1.09-.75.508-.2 1.046-.454 1.373-.865.18-.18.335-.375.465-.585l.012-.008c.48-.282.86-.661 1.144-1.139a3.145 3.145 0 0 0 .436-1.6 3.15 3.15 0 0 0-.436-1.603 3.192 3.192 0 0 0-1.144-1.138c-.613-.28-1.039-.486-1.732-.486-.69 0-1.189.197-1.796.486-.34.161-.653.382-.966.59-.157.104-.313.21-.467.32a1.594 1.594 0 0 0-.05-.003 1.632 1.632 0 0 0-.22-.198l-.57-.44a2.819 2.819 0 0 0-1.423-.383c-.437-.05-.895.098-1.326.185-.467.095-.928.258-1.385.393l-1.026.304c-.286.02-.572.056-.857.092-.455.059-.917.113-1.37.198-.026.005-.053.01-.079.017a2.955 2.955 0 0 0-1.865-1.55 5.72 5.72 0 0 0-.864-.15 5.05 5.05 0 0 1-.387-.103 7.826 7.826 0 0 1-.699-.414 2.514 2.514 0 0 0-.603-.967 2.556 2.556 0 0 0-.768-.52 11.46 11.46 0 0 0-.06-.853 880.134 880.134 0 0 0 3.774-4.238c3.322-3.747 6.626-7.512 9.947-11.257l2.172-2.447c.323-.363.646-.723.967-1.09l.77-.882a16.425 16.425 0 0 0 .982-1.218 2.59 2.59 0 0 0 .196-.316c.157-.238.252-.482.315-.733l.08-.21a3.422 3.422 0 0 0 0-1.816 3.445 3.445 0 0 0-1.577-2.043c-.71-.416-.96-.373-1.757-.48a1.593 1.593 0 0 0-.215-.014c-.552 0-1.059.269-1.545.48z" fill="#FFE11A"/><path d="M87.757 6.247c-.075.405-.124.813-.166 1.222-.49.102-.896.395-1.272.709a2.215 2.215 0 0 0-.713 1.145c-.15.052-.301.114-.417.181-.21.123-.45.337-.637.51-.16.148-.302.314-.442.479l-.806.944c-.437.512-.838 1.057-1.254 1.585a140.965 140.965 0 0 0-2.89 3.786 2.036 2.036 0 0 0-.231 1.485c-.611.784-1.222 1.568-1.842 2.346l-.783.98c-.341.323-.681.648-1.019.974a217.14 217.14 0 0 0-1.897 1.855c-.266.264-.53.53-.793.799l-.478.486c-.44.45-.834.928-1.184 1.451-.485.723-.288 1.77.305 2.361.062.061.126.118.194.17.038.226.118.48.222.633l.07.101c.143.242.337.435.58.578.412.3.977.344 1.463.232.404-.094.769-.304 1.119-.518.279-.17.564-.326.839-.505.286-.187.573-.382.849-.585l.694-.514a53.634 53.634 0 0 0 2.893-2.28c.19-.159.372-.322.555-.487l.257-.231c.329-.296.597-.637.852-.996.188-.265.237-.648.187-.976l.019-.021c.907-1.039 1.8-2.088 2.695-3.137.257-.3.424-.612.424-1.02 0-.284-.087-.563-.244-.798l.444-.388c.944-.82 1.895-1.634 2.845-2.448.53-.455 1.052-.92 1.537-1.42.341-.353.637-.74.934-1.129.318-.415.525-.884.707-1.372l.044-.165c.034-.234.065-.468.096-.7a3.656 3.656 0 0 0-.112-.854 2.237 2.237 0 0 0-.151-.392 7.316 7.316 0 0 0-.01-.181c-.033-.464-.167-.903-.512-1.23a1.245 1.245 0 0 0-.38-.248 1.211 1.211 0 0 0-.055-.045l-.052-.681c-.01-.142-.022-.284-.034-.427-.02-.242-.044-.48-.08-.721a3.023 3.023 0 0 0-.14-.543c-.167-.49-.576-.846-1.114-.846-.481 0-1.022.349-1.115.846m-.532 35.672c.059-.06.113-.122.162-.187.021.08.045.162.07.242.01.251.017.503.02.755l-.078-.06a1.848 1.848 0 0 0-.622-.226c.154-.171.304-.345.448-.524m1.038-5.298c-.254.238-.348.55-.375.875a.879.879 0 0 0-.458.028 2.262 2.262 0 0 0-.428.189c-.198.123-.315.285-.438.477-.098.153-.143.354-.174.53l-.048.261c-.094.041-.188.083-.28.126a1.483 1.483 0 0 0-.444.064c-.231.071-.517.156-.717.277-.163.097-.315.2-.466.311-.37.273-.718.571-1.077.858-.223.178-.443.362-.665.544-.432.353-.87.7-1.296 1.065-.905.775-1.82 1.539-2.71 2.331a561.22 561.22 0 0 0-5.612 5.043l-1.72 1.569-1 .913c-.553.505-1.183.961-1.513 1.652-.151.26-.235.539-.253.836a15.055 15.055 0 0 0-.25.187c-.365.128-.715.312-1.056.492-.54.283-1.063.63-1.565.974-.197.134-.392.269-.588.404-.645.443-1.316.914-1.676 1.627-.223.44-.316.894-.181 1.381.163.593.652 1.102 1.257 1.253.37.092.74.153 1.115.039a3.5 3.5 0 0 0 .672-.285c.197-.11.385-.237.57-.367.194.022.395.015.581-.01.33-.042.588-.077.895-.173 1.041-.329 2.006-.86 2.958-1.386.476-.263.943-.542 1.41-.82.698-.416 1.418-.84 2.02-1.386.276-.25.451-.597.524-.965a1.718 1.718 0 0 0 .28-.948c.468-.294.936-.59 1.403-.885.297.189.657.31.995.285.288-.021.576-.034.846-.144.323-.131.6-.254.885-.445.332-.22.638-.48.95-.732 1.425-1.035 2.862-2.055 4.284-3.095.616-.451 1.223-.913 1.831-1.376.334-.254.669-.507 1.001-.762a1.83 1.83 0 0 0 .336-.258l.404-.31c.488-.374 1.024-.693 1.279-1.282.04-.07.076-.14.106-.212.295-.033.58-.177.787-.382.346-.344.45-.822.342-1.288-.118-.509-.202-1.02-.287-1.536a66.064 66.064 0 0 1-.443-4.715c-.024-.42-.209-.794-.584-1.012a1.15 1.15 0 0 0-.581-.158c-.307 0-.61.121-.846.341m-3.893 26.291c-.217.216-.307.483-.325.783-.01.179-.022.357-.035.536a1.129 1.129 0 0 0-.52-.31c-.425-.116-.835.018-1.153.304-.313.28-.473.666-.488 1.082-.01.276-.03.552-.043.827l-.052 1.051c-.028.576.458 1.064 1.007 1.139-.02.256-.038.513-.059.769-.046.568-.08 1.137-.118 1.705-.032.499.356.93.818 1.062l.003.013c.177.745 1.032 1.207 1.759.994.271-.08.508-.186.712-.389.16-.158.378-.5.42-.725.02-.114.04-.228.054-.343.024-.053.046-.107.066-.164.17-.472.13-.977.115-1.47-.008-.282-.025-.565-.04-.848a188.336 188.336 0 0 1-.145-3.281c-.021-.65-.025-1.304-.077-1.952-.024-.302-.105-.563-.325-.783a1.122 1.122 0 0 0-.787-.325 1.12 1.12 0 0 0-.787.325" fill="#FFD34E"/><path d="M80.631 65.723c-4.104 3.742-8.2 7.497-12.227 11.323l-1.162.795c-.803.546-1.606 1.085-2.394 1.653a1.553 1.553 0 0 0-.772 1.268c-.22.129-.439.258-.66.384-.508.293-1.005.607-1.504.91-.274.168-.542.344-.813.515-.166.105-.328.215-.49.326a7.978 7.978 0 0 0-.677.511c-.264.226-.459.523-.662.804-.128.221-.21.455-.245.7-.56.38-1.116.762-1.671 1.147-.457.316-.906.643-1.36.964-.234.166-.468.335-.702.502-.498.356-1.03.692-1.455 1.132a2.08 2.08 0 0 0-.172.203c-.315.208-.627.419-.938.633-1.003.692-2.035 1.336-3.055 2.002a88.619 88.619 0 0 0-3.033 2.058c-.783.558-1.575 1.1-2.374 1.636-.823.549-1.631 1.119-2.447 1.678-.78.533-1.526 1.101-2.28 1.669-.857.645-1.713 1.285-2.552 1.951-.522.402-1.04.806-1.527 1.25a27.6 27.6 0 0 0-1.486 1.475c-.479.507-.961 1.01-1.43 1.526-.537.593-1.124 1.17-1.562 1.842-.275.421-.17 1.018.177 1.363.443.441 1.153.423 1.598 0 .36-.345.749-.664 1.122-.996a58.07 58.07 0 0 1 1.18-1.024 90.542 90.542 0 0 1 2.157-1.772c.847-.628 1.738-1.188 2.61-1.779.495-.333.993-.66 1.487-.993.465-.314.921-.644 1.395-.947 2.001-1.282 4.053-2.484 6.062-3.756.982-.62 1.977-1.225 2.975-1.822 1.044-.625 2.098-1.236 3.107-1.916 2.204-1.486 4.487-2.867 6.58-4.506.106-.134.21-.269.314-.404.14-.24.226-.493.26-.763.184-.129.37-.256.557-.38.806-.535 1.609-1.074 2.428-1.588.933-.585 1.875-1.156 2.807-1.743.164-.103.31-.225.434-.364l.95-.502a93.457 93.457 0 0 1 2.87-1.44l.134-.065a1.7 1.7 0 0 0 .396.046c.476 0 .957-.176 1.379-.379.39-.188.749-.43 1.129-.637l.395-.216c.216.008.432-.017.64-.082.273-.084.545-.166.814-.26.375-.132.738-.304 1.1-.469.293-.133.583-.274.874-.416.401-.198.803-.394 1.2-.6a56.31 56.31 0 0 0 1.15-.62c.33-.183.65-.382.952-.61.338-.256.714-.522.921-.91a3.63 3.63 0 0 0 .254-.574c.019-.07.034-.14.046-.211a18.321 18.321 0 0 0 1.513-1.124c.375-.314.566-.889.566-1.36a1.908 1.908 0 0 0-.264-.971 1.938 1.938 0 0 0-.694-.69c-.366-.173-.662-.31-1.08-.31-.323 0-.601.074-.878.18a1.829 1.829 0 0 0-.322-.278c.162-.187.283-.422.342-.634a1.55 1.55 0 0 0 .025-.707l.853-.777c.814-.743.755-2.1 0-2.851a2.038 2.038 0 0 0-1.432-.592c-.555 0-1.03.225-1.433.592" fill="#FFD34E"/><path d="M55.735 89.59c-.75.197-1.472.473-2.178.788-.284.127-.586.237-.86.385l-1.007.547c-.54.292-1.05.635-1.57.96-.396.25-.785.505-1.173.769-.934.635-1.874 1.261-2.793 1.919l-3.969 2.84c-3.563 2.55-7.084 5.158-10.617 7.747l-.458.352a2.239 2.239 0 0 0-.353 2.728c.296.502.786.88 1.352 1.034.532.146 1.278.113 1.741-.227 4.867-3.568 9.736-7.129 14.617-10.676 1.274-.927 2.563-1.834 3.849-2.746.807-.571 1.613-1.144 2.419-1.717.754-.537 1.542-1.054 2.363-1.484.698-.363 1.016-1.254.813-1.989-.216-.781-.943-1.289-1.721-1.289-.151 0-.304.02-.455.06" fill="#FFD34E"/><path d="M76.77 76.63l.006-.004.03-.024.003-.002-.038.03m-.198.152a2.71 2.71 0 0 1 .057-.044l-.057.044m-.224.173c-.001 0-.002 0-.003.002l.006-.005-.003.003m-.042.031l.038-.028v-.001l-.038.029m2.384-2.02c-.323.307-.643.627-.986.912a48.636 48.636 0 0 1-.885.714l-.015.01-.009.008-.02.016a.235.235 0 0 0-.017.013l.012-.01-.1.078.09-.07-.132.102.015-.011-.06.045a.79.79 0 0 0-.031.025l.02-.016-.068.052c-.056.035-.107.08-.16.123l.004-.002c.02-.018.043-.034.065-.05l-.07.053.002-.001h-.001l-.001.001-.085.065.048-.037c-.714.545-1.467 1.04-2.21 1.545-.734.5-1.477.983-2.247 1.427-.79.456-1.578.919-2.358 1.394a79.5 79.5 0 0 0-2.418 1.556c-1.449.96-2.85 1.99-4.292 2.96-.858.575-1.718 1.146-2.586 1.708-.686.443-1.38.88-2.054 1.341-.774.53-1.55 1.054-2.311 1.6-.727.52-1.453 1.04-2.173 1.57-1.663 1.22-3.321 2.444-4.978 3.67a592.775 592.775 0 0 1-8.983 6.504c-.487.347-.976.692-1.465 1.038l-.253.196a1.242 1.242 0 0 0-.196 1.514c.164.278.436.488.75.574.3.082.703.06.966-.126 2.03-1.436 4.052-2.882 6.076-4.327 1.41-1.008 2.805-2.04 4.208-3.059 3.007-2.185 5.97-4.43 9.032-6.538 1.502-1.033 3.034-2.023 4.526-3.07 1.573-1.105 3.116-2.252 4.661-3.394 1.475-1.091 2.938-2.208 4.312-3.423.674-.596 1.362-1.175 2.052-1.753a92.654 92.654 0 0 0 2.053-1.78l.624-.552.016-.014a79.49 79.49 0 0 0 2.213-2.002.411.411 0 0 0 0-.58.406.406 0 0 0-.287-.117.428.428 0 0 0-.294.118m-41.676.384l-.04.052a.802.802 0 0 1 .04-.051m.548-.032c.455-.073.903-.148 1.35-.248-.239.133-.477.268-.715.402-.176.1-.354.197-.532.297-.023-.127-.093-.27-.143-.389a1.513 1.513 0 0 0-.022-.053l.062-.009m14.283-6.949c-.578.184-1.162.346-1.705.626-.47.242-.824.746-.962 1.245-.006.02-.01.04-.015.061l-.778.34-.271.118a2.218 2.218 0 0 0-.249-.1 2.806 2.806 0 0 0-.5-.053c-.261-.01-.568.092-.828.14-.273.048-.542.122-.811.188-.173.04-.345.083-.516.126a1.496 1.496 0 0 0-.808-.015c-.127.032-.253.066-.38.1-.772.188-1.574.29-2.357.424-.602.102-1.204.2-1.804.31l-1.233.225c-.33.062-.66.141-.986.22-.497.123-.965.314-1.435.512a2.77 2.77 0 0 0-1.14.925 1.77 1.77 0 0 0-.2.385c-.14.099-.254.23-.368.382a1.29 1.29 0 0 0-.213.463c-.137.224-.225.49-.201.735.076.802.153 1.601.285 2.396.074.433.558.926.998.992l.01.002.002-.002c.233.068.488.075.741.002l.006-.002a1.52 1.52 0 0 0 .615-.356c.205.112.424.169.659.17.347.01.624-.083.922-.206a6.15 6.15 0 0 1-.12.05c.685-.262 1.385-.489 2.073-.742.602-.221 1.2-.45 1.802-.675.69-.259 1.382-.518 2.072-.775.308-.114.615-.23.923-.345.38-.143.757-.301 1.127-.468.168-.076.327-.136.474-.25a1.71 1.71 0 0 0 .294-.218l1.282-.483c.787-.296 1.579-.577 2.364-.877.51-.195 1.01-.407 1.51-.626.286-.124.537-.316.772-.516.182-.14.328-.31.441-.514a1.87 1.87 0 0 0 .245-.535 1.97 1.97 0 0 0 .462-.532c.262-.448.334-.993.195-1.494-.226-.819-1.03-1.432-1.876-1.432a1.69 1.69 0 0 0-.518.08m3.131-21.781c-.239.032-.475.088-.712.135-.374.074-.748.15-1.122.226-.749.153-1.498.301-2.248.45-1.383.274-2.774.503-4.165.733l-1.854.227a4.513 4.513 0 0 1-.216.02 1.778 1.778 0 0 0-.376-.045l.002-.01-.093.012a1.798 1.798 0 0 0-.305.037l-.238.03c-.13.013-.26.023-.393.032-.115.008-.23.007-.346.006a3.491 3.491 0 0 0-.418.011l-.402.054c-.15.041-.288.103-.415.185l-.54.09c-.706.123-1.434.454-1.811 1.095-.11.189-.18.387-.219.59-.138.07-.264.161-.366.276-.177.2-.394.435-.437.714-.033.213-.078.422-.062.637.021.295.077.588.121.88.031.196.06.394.09.591l.022.194a3.67 3.67 0 0 0-.011.863c0 .256.065.494.195.716a1.434 1.434 0 0 0 1.61.652l.341-.142c.156-.092.287-.206.397-.343a1.63 1.63 0 0 0 .144-.028c.16.256.382.473.645.627.447.259.946.302 1.441.187a8.89 8.89 0 0 0 .34-.087c.051.019.104.036.158.051l.123.017c.322.087.644.087.965 0a3.86 3.86 0 0 0 .428-.132c.178-.064.355-.127.532-.192.369-.136.74-.267 1.11-.399.71-.252 1.429-.474 2.146-.703 1.086-.345 2.186-.655 3.247-1.07.322.01.628-.084.93-.228.358-.17.71-.398.99-.677.156-.157.276-.344.355-.546.407-.32.81-.645 1.209-.976a29.857 29.857 0 0 0 1.181-1.02.726.726 0 0 0 .078-.069l.11-.096c.18-.16.289-.263.439-.48a1.496 1.496 0 0 0 .055-1.625l-.01-.037a1.87 1.87 0 0 0-.482-.825c-.178-.143-.352-.294-.55-.41a1.895 1.895 0 0 0-.956-.257 1.764 1.764 0 0 0-.657.058" fill="#FFD34E"/><g transform="translate(30.361 96.961)"><mask id="b" fill="#fff"><use xlink:href="#a"/></mask><path d="M8.772 15.065a227.39 227.39 0 0 0-8.667 7.553c-.003.003 0 .006.004.005 4.275-2.655 8.484-5.43 12.547-8.398 3.82-2.79 7.469-5.79 11.057-8.864 2.05-1.754 4.07-3.54 6.1-5.315.003-.002 0-.004-.002-.004h-.001c-3.626 2.38-7.265 4.744-10.817 7.236a158.893 158.893 0 0 0-6.322 4.652 173.855 173.855 0 0 0-3.9 3.135" fill="#7F7F7F" mask="url(#b)"/></g><path d="M52.354 106.305c-.715.628-1.431 1.255-2.133 1.896-.003.001 0 .005.003.004a78.231 78.231 0 0 0 6.037-4.224c.187-.145.366-.301.547-.456a74.93 74.93 0 0 0 1.377-1.202 80.952 80.952 0 0 0 1.773-1.644 30.757 30.757 0 0 0 1.752-1.79c.001-.002 0-.004-.002-.004h-.002c-.317.263-.64.513-.965.765l.009-.005c-2.863 2.139-5.71 4.301-8.396 6.66m42.132-57.659a.07.07 0 0 0-.007.005l-.028.022.035-.027" fill="#7F7F7F"/><path d="M98.511 45.661c-1.53.69-2.947 1.609-4.332 2.548-1.362.922-2.654 1.952-3.92 3.002a81.68 81.68 0 0 0-1.877 1.605c-.003.002 0 .007.004.005 2.081-1.305 4.136-2.664 6.083-4.163a83.029 83.029 0 0 0 1.506-1.167c.837-.622 1.659-1.265 2.539-1.825.003-.002.001-.005-.001-.005h-.002m-4.841 7.173h-.001a34.767 34.767 0 0 0-3.214 1.695c-1.21.727-2.34 1.591-3.432 2.478-.003.003 0 .006.003.004 1.262-.614 2.514-1.269 3.692-2.034.333-.215.659-.44.983-.668a.168.168 0 0 0 .158.115.17.17 0 0 0 .17-.168c0-.054-.03-.1-.07-.131a56.05 56.05 0 0 0 1.713-1.286c.002-.003 0-.005-.002-.005M72.456 89.768c.966-.582 1.924-1.18 2.89-1.76a95.45 95.45 0 0 0 6.21-4.036c1.977-1.406 3.943-2.826 5.856-4.314l-.03.023c.494-.374.99-.746 1.482-1.123.002-.001.001-.005-.001-.005h-.001c-.74.34-1.479.681-2.205 1.048-.686.347-1.368.702-2.048 1.063-.905.48-1.82.957-2.697 1.489a74.743 74.743 0 0 0-3.711 2.38 65.772 65.772 0 0 0-2.597 1.916c-1 .766-1.98 1.556-2.947 2.363-1.109.925-2.226 1.848-3.286 2.829-.002.001.001.006.004.004 1.008-.655 2.05-1.258 3.08-1.877m17.164-8.494c.003-.002.001-.005-.001-.005h-.002c-2.644 1.544-5.26 3.146-7.78 4.885a165.76 165.76 0 0 0-4.976 3.593c-.004.002-.001.007.003.006 2.255-1.314 4.495-2.668 6.666-4.119 2.076-1.387 4.097-2.857 6.09-4.36m11.356-71.627l-.002.001a174.266 174.266 0 0 0-6.09 5.676c-.506.492-1 .998-1.49 1.507-.7.729-1.396 1.464-2.08 2.208a249.02 249.02 0 0 0-3.979 4.429l-.806.919c-.002.003.001.007.004.004 1.488-1.469 2.998-2.917 4.487-4.386a284.45 284.45 0 0 0 1.828-1.816c.49-.491.977-.985 1.46-1.485.19-.198.379-.399.57-.595a273.933 273.933 0 0 0 4.287-4.509c.606-.648 1.211-1.296 1.812-1.948.002-.002 0-.005-.001-.005M93.94 20.685c1.31-1.497 2.526-3.077 3.688-4.691.002-.002 0-.004-.003-.004h-.001a66.076 66.076 0 0 0-2.615 2.602 33.356 33.356 0 0 0-1.54 1.714 46.309 46.309 0 0 0-1.602 2.054c-.52.708-1.044 1.424-1.47 2.194-.001.002.003.006.005.003.537-.662 1.143-1.267 1.726-1.89a78.304 78.304 0 0 0 1.812-1.982m-54.496 6.437c-.192.673-.37 1.353-.594 2.017-.001.003.003.004.005.002.283-.636.523-1.293.775-1.942.234-.607.46-1.218.688-1.828.406-1.08.8-2.166 1.186-3.253.476-1.345.943-2.695 1.395-4.049.271-.81.522-1.624.767-2.443a211.347 211.347 0 0 0 2.996-11.162c0-.002-.001-.004-.003-.004 0 0-.002 0-.002.002a245.996 245.996 0 0 0-3.786 10.897 217.653 217.653 0 0 0-1.975 6.588c-.312 1.097-.619 2.196-.927 3.295-.177.626-.347 1.254-.525 1.88m-2.076-3.751a43.93 43.93 0 0 0 1.29-3.187c.326-.913.587-1.843.826-2.78.4-1.56.716-3.14.984-4.727 0-.002-.002-.004-.003-.004 0 0-.002 0-.002.002-1.095 2.302-2.098 4.673-2.825 7.119a72.236 72.236 0 0 0-.874 3.265c-.251 1.017-.49 2.038-.776 3.045 0 .004.004.006.005.003a31 31 0 0 0 1.375-2.736m-.028 38.146a61.622 61.622 0 0 0-2.888 2.74 31.847 31.847 0 0 0-1.649 1.783c-1.167 1.379-2.281 2.818-3.28 4.323-.002.002.002.006.004.003 1.26-1.314 2.576-2.572 3.805-3.915 1.43-1.564 2.751-3.229 4.013-4.93.002-.002 0-.004-.003-.004h-.002m-5.308 1.441c.001-.002 0-.004-.003-.004l-.002.001a44.405 44.405 0 0 0-2.366 2.517c-.669.777-1.292 1.593-1.982 2.353 0 .001.001.006.004.004 1.748-1.327 3.118-3.075 4.349-4.87m.315 25.737c0-.002-.001-.004-.003-.004l-.002.001a207.259 207.259 0 0 0-3.41 5.213c-.785 1.248-1.571 2.497-2.313 3.771-.287.495-.562.997-.854 1.49-.458.77-.906 1.544-1.352 2.32-.165.287-.35.565-.526.848-.197.317-.39.637-.589.954a252.32 252.32 0 0 1-1.276 2.017c-.189.295-.39.58-.593.865-.001.003.003.006.005.004a37.563 37.563 0 0 0 1.594-1.9c.523-.66 1.04-1.326 1.55-1.995.445-.583.857-1.187 1.271-1.792.336-.492.673-.982.988-1.488a73.702 73.702 0 0 0 2.35-4.024 150.338 150.338 0 0 0 2.415-4.705c.257-.52.5-1.049.745-1.575m-7.434 7.022c1.004-1.394 1.848-2.904 2.636-4.428.002-.002 0-.005-.002-.005l-.002.001c-1.11 1.286-2.18 2.62-3.102 4.048-.748 1.157-1.423 2.36-2.106 3.555-.002.003.002.006.004.004a37.274 37.274 0 0 0 2.572-3.175m8.491-46.931c.42-.988.833-1.98 1.237-2.974.45-1.106.898-2.213 1.316-3.332.48-1.286.932-2.582 1.375-3.882a191.39 191.39 0 0 0 1.94-6.048c0-.003-.002-.004-.004-.004h-.002c-1.357 3.126-2.661 6.278-3.847 9.472a191.65 191.65 0 0 0-2.195 6.301c-.414 1.241-.806 2.49-1.24 3.724-.002.003.003.005.005.002.495-1.075.954-2.169 1.415-3.259" fill="#7F7F7F"/><path d="M38.234 92.588l.09-.116a.013.013 0 0 0 .002-.003l.03-.04-.036.046h.001l-.05.064.035-.045a.708.708 0 0 1-.024.03l-.048.064" fill="#161616"/><path d="M22.581 112.941l1.741-2.478c1.64-2.093 3.287-4.182 4.914-6.285l-.035.044.02-.026a.526.526 0 0 0 .021-.026l-.007.009v.001a9.248 9.248 0 0 1-.069.089l.035-.047-.074.097.03-.039-.036.048a1.245 1.245 0 0 0 .053-.069l-.02.025.063-.08.1-.13-.053.068.166-.215-.115.15 7.789-10.034-.01.014.272-.351-.024.03.083-.106.04-.05-.01.012.375-.484.013-.017.368-.475-.122.158.078-.1a.343.343 0 0 1-.012.016l.017-.023.11-.143c1.095-1.4 2.163-2.822 3.243-4.233l4.565-5.962c1.587-2.071 3.188-4.132 4.782-6.198 1.042-1.326 2.078-2.655 3.121-3.98.623-.791 1.25-1.58 1.865-2.379.682-.042 1.247-.567 1.247-1.27a1.23 1.23 0 0 0-.047-.33c.14-.191.282-.381.42-.575a1.035 1.035 0 0 0-.897-1.556c-.251 0-.57.102-.734.304-.246.3-.485.606-.721.915a185.2 185.2 0 0 0-1.83.097c-.466.027-.93.05-1.393.098-1.319.135-2.638.253-3.951.437-1.25.176-2.501.335-3.743.561l-2.34.425c-.502.09-1 .212-1.498.322-.93.203-1.855.417-2.78.638a2846.09 2846.09 0 0 1 10.402-8.88c2.528-2.145 5.06-4.284 7.55-6.472 1.094-.279 2.187-.555 3.276-.85.524-.143 1.048-.282 1.567-.437.66-.197 1.312-.387 1.943-.668a.965.965 0 0 0 .444-1.087c-.123-.44-.52-.699-.949-.699-.08 0-.16.009-.24.028-.896.203-1.781.453-2.668.69l-.014.004c.288-.265.576-.527.861-.794a32.495 32.495 0 0 0 1.651-1.687c.366-.393.736-.783 1.11-1.168.423-.15.757-.488.885-.918a1 1 0 0 0 .045-1.071 1.009 1.009 0 0 0-.584-.452 1.32 1.32 0 0 0-.77-.253h-.03c-2.903.064-5.81.112-8.71.26-1.218.062-2.44.094-3.655.196-.815.067-1.628.136-2.443.204-.467.04-.939.063-1.403.12l-2.704.34c-.798.1-1.588.25-2.38.39-.265.046-.529.1-.792.16.297-.766.587-1.535.87-2.306.33-.901.646-1.808.969-2.713.343-.96.702-1.916 1.058-2.873.347-.931.716-1.856 1.074-2.784.353-.914.702-1.832 1.052-2.748.295-.769.583-1.542.87-2.314.326-.877.661-1.751.975-2.633l1.24-3.476c.28-.785.539-1.577.803-2.367.27-.806.545-1.608.8-2.418l1.15-3.653c.582-1.849 1.132-3.71 1.695-5.566.27-.888.518-1.782.777-2.672.256-.88.507-1.759.755-2.64l.222-.794c1.39-.052 2.779-.105 4.167-.178l3.838-.203c2.8-.148 5.6-.298 8.4-.445.72-.038 1.439-.116 2.156-.176l4.903-.41c2.006-.169 4.009-.375 6.008-.598 1.3-.145 2.602-.289 3.902-.438l1.94-.22.202-.02c-.719.976-1.436 1.953-2.17 2.917-2.384 3.066-4.752 6.145-7.126 9.218-3.07 3.773-6.157 7.532-9.243 11.294-.344.418-.687.839-1.03 1.258l-.855 1.044a18.8 18.8 0 0 0-.824 1.093c-.282.402-.156 1.008.174 1.336.152.152.35.252.558.295l.023.017c.2.139.421.228.652.302.229.075.474.105.71.14.305.044.606.098.91.144a24.66 24.66 0 0 0 1.799.196l.23.018-.043.058a1.88 1.88 0 0 0-.188.343.815.815 0 0 0-.115.36 3.176 3.176 0 0 0-.042.387c-.032.479.428.881.886.881a.896.896 0 0 0 .628-.258c.178-.178.235-.382.26-.623l.001-.022a5.25 5.25 0 0 1 .312-.466c.127-.16.255-.32.38-.481l-.137.177.173-.223 1.832.104c.818.045 1.637.08 2.456.12.836.04 1.67.095 2.503.15 1.287.082 2.57.205 3.852.332.855.085 1.71.18 2.563.28l-.001.002c-.17.29-.18.577-.127.895a537.262 537.262 0 0 0-4.332 4.014c-1.712 1.607-3.411 3.23-5.14 4.821-1.759 1.62-3.504 3.255-5.284 4.851a945.828 945.828 0 0 1-5.949 5.293c-2.186 1.925-4.417 3.795-6.564 5.764a.936.936 0 0 0-.289.595c-.127.138-.255.275-.38.414-.56.616-1.12 1.232-1.586 1.922-.233.345-.068.842.274 1.041.373.218.817.073 1.046-.273.122-.183.25-.359.383-.534.174-.206.351-.41.529-.611a1.433 1.433 0 0 0-.045.344c0 .376.152.74.419 1.005.246.245.65.45 1.009.416 5.722-.532 11.443-1.083 17.147-1.783 1.056-.13 2.111-.259 3.167-.397l.719-.093.007.041c-3.929 3.52-7.836 7.066-11.746 10.608-1.499 1.357-3.026 2.683-4.546 4.017a5167.89 5167.89 0 0 0-3.877 3.402c-.497.437-.988.88-1.493 1.306-3.732 3.159-7.458 6.326-11.213 9.46-3.98 3.323-7.947 6.658-11.912 9.998a1258.14 1258.14 0 0 0-10.905 9.319l-3.128 2.703c-.334.29-.67.58-1.006.869l-.978.844-.197.171-.234.205-.374.185.03-.048c.071-.121.138-.249.22-.365m19.165-36.756l-3.713 1.3c-.401.141-.805.276-1.209.41-.371-.801-.727-1.61-1.089-2.414-.323-.717-.642-1.437-.959-2.156.724-.23 1.467-.4 2.204-.586l1.68-.42c1.22-.303 2.448-.577 3.674-.857.468-.107.945-.184 1.416-.274l1.964-.376c.524-.1 1.06-.158 1.587-.236.556-.084 1.111-.166 1.668-.248l3.265-.352c.308-.033.62-.048.93-.063l-1.19 1.631c-.242.332-.489.663-.733.995a.624.624 0 0 0-.185.04 347.073 347.073 0 0 1-6.33 2.485c-.991.382-1.978.769-2.98 1.12m6.528-22.05a74.027 74.027 0 0 1-4.085.653c-.78.104-1.56.204-2.342.289-.281.03-.564.056-.847.08-.25-.658-.467-1.331-.695-1.997l-.476-1.389-.701-2.047c.37-.08.742-.154 1.113-.223.958-.177 1.92-.322 2.883-.466 1.034-.127 2.068-.275 3.105-.364l2.443-.209c.458-.04.918-.093 1.376-.116l4.323-.23c1.2-.063 2.404-.074 3.605-.11l.882-.022c-.35.321-.686.656-1.033.978-.423.394-.843.79-1.272 1.177-.868.783-1.733 1.57-2.614 2.34l-.453.396-1.229.319c-1.32.348-2.642.682-3.983.94M90.342 6.528c.043.35.075.704.131 1.053.041.247.07.5.121.746.131.627.282 1.24.481 1.849.1.305.344.53.637.602a847.94 847.94 0 0 0-6.001 6.951c-1.94 2.278-3.898 4.543-5.761 6.884-.396.497-.79.995-1.18 1.497a.841.841 0 0 0-.383-.097c-.2 0-.462.08-.592.244a279.109 279.109 0 0 1-3.086 3.809l-.025.03c-1-.029-2.002-.076-2.994-.202-.266-.036-.532-.07-.799-.105.546-.13 1.103-.22 1.65-.326.322-.062.502-.44.42-.736a.6.6 0 0 0-.276-.357.568.568 0 0 0-.295-.079.867.867 0 0 0-.168.018l-.116.022 1.258-1.4c.179-.2.293-.426.297-.697l1.641-2c1.494-1.82 2.982-3.644 4.471-5.468.565-.69 1.13-1.381 1.693-2.072.232-.284.469-.565.696-.854l-.03.04.064-.083.064-.083c2.446-3.145 4.873-6.306 7.308-9.458l-.129.165c.263-.34.523-.681.781-1.026.036.379.076.756.122 1.133m.405 37.203a.87.87 0 0 0 .072.195c-.687.402-1.35.847-2.011 1.286-.752.5-1.5 1.005-2.237 1.526-1.608 1.14-3.18 2.326-4.752 3.514-.648.488-1.298.975-1.947 1.462-.717.536-1.427 1.082-2.151 1.609-1.51 1.101-3.01 2.214-4.537 3.293l-1.912 1.353c-.35.247-.694.501-1.046.746a.577.577 0 0 0-.347.095l-.275.208c-2.208.214-4.416.427-6.625.632.007-.006.014-.01.02-.017 1.959-1.527 3.83-3.156 5.698-4.79a462.923 462.923 0 0 0 4.907-4.359c.897-.807 1.805-1.602 2.692-2.42L79.18 45.4c1.77-1.633 3.525-3.28 5.28-4.93A776.057 776.057 0 0 1 89.259 36c.455 2.585.925 5.166 1.488 7.729M85.145 67.1c.19 1.007.377 2.013.578 3.018.156.789.313 1.58.5 2.362-.313.042-.593.166-.876.327-.233.133-.465.27-.697.406-.44.26-.883.516-1.324.773a1026.74 1026.74 0 0 0-3.201 1.876 217.74 217.74 0 0 0-2.756 1.646 181.271 181.271 0 0 0-3.22 2.012 193.7 193.7 0 0 0-5.252 3.49 5745.924 5745.924 0 0 0-6.08 4.154c-3.948 2.7-7.915 5.374-11.867 8.07-3.957 2.7-7.854 5.488-11.761 8.26-.666.473-1.332.937-2.01 1.389l-3.632 2.42c-.218.146-.45.272-.676.405l-.992.583c.969-.846 1.939-1.692 2.916-2.53a3696.78 3696.78 0 0 1 12.206-10.41c3.27-2.778 6.576-5.516 9.845-8.298l6.9-5.87c.463-.396.916-.804 1.37-1.207 1.27-1.118 2.538-2.239 3.807-3.358 1.54-1.359 3.09-2.707 4.607-4.09l6.266-5.712c1.517-1.382 3.038-2.76 4.562-4.133.253 1.474.51 2.947.787 4.417m-53.557 44.202l2.13-1.254c.32-.188.658-.362.967-.57 1.783-1.193 3.59-2.358 5.339-3.6 1.922-1.363 3.842-2.731 5.771-4.087 1.96-1.376 3.916-2.76 5.898-4.106 1.98-1.345 3.96-2.689 5.944-4.026 4.024-2.715 8.033-5.454 12.043-8.192.784-.535 1.568-1.069 2.358-1.596.987-.66 1.968-1.33 2.964-1.975 1.023-.66 2.043-1.327 3.074-1.973 1.04-.65 2.082-1.295 3.125-1.94 1.01-.623 2.02-1.25 3.024-1.886.496-.314.993-.628 1.471-.967l.678-.48c.329-.233.705-.479.867-.857a1.033 1.033 0 0 0 1.035-.506c.148-.25.168-.525.106-.804-.216-.974-.39-1.958-.571-2.938a785.81 785.81 0 0 1-1.53-8.594l.195-.176c.277-.248.352-.637.264-.983.455-.158.765-.666.765-1.127 0-.633-.535-1.208-1.182-1.208h-.032c-1.325.04-2.652.188-3.973.303-1.178.103-2.354.223-3.53.335-2.023.193-4.045.414-6.067.616l.491-.34c.624-.432 1.25-.86 1.868-1.3 1.618-1.151 3.236-2.301 4.845-3.463.715-.516 1.429-1.034 2.145-1.547.806-.577 1.603-1.17 2.419-1.732.752-.519 1.496-1.051 2.262-1.55.426-.277.845-.563 1.276-.831.406-.252.813-.503 1.218-.756a118.66 118.66 0 0 1 3.054-1.819 1 1 0 0 0 .374-1.326c.123-.177.211-.404.187-.603-.385-3.145-.942-6.267-1.493-9.387l.625-.577c.44-.402.41-1.136 0-1.543a1.057 1.057 0 0 0-.672-.306.924.924 0 0 0-.11-.31c-.108-.184-.331-.394-.556-.425a99.1 99.1 0 0 0-2.929-.356 54.915 54.915 0 0 0-2.573-.193 55.558 55.558 0 0 0-2.16-.08c-.83-.018-1.66-.038-2.49-.048-1.119-.015-2.238-.022-3.357-.054l-.318-.009.828-1.046a.726.726 0 0 0 .46.029c.198-.054.315-.174.432-.331.605-.803 1.188-1.621 1.785-2.43.57-.77 1.15-1.532 1.735-2.292 1.794-2.242 3.646-4.438 5.508-6.623a868.494 868.494 0 0 1 5.68-6.578.638.638 0 0 0 .182-.437.616.616 0 0 0-.638-.618c-.013 0-.027.003-.04.004a.687.687 0 0 0-.025-.116 21.113 21.113 0 0 1-.67-2.442c-.152-.7-.26-1.408-.376-2.116l-.1-.804c-.016-.138-.032-.276-.05-.413l-.036-.287c.328-.447.656-.894.986-1.339.172-.23.188-.605.114-.871a1.13 1.13 0 0 0-.072-.186 1.008 1.008 0 0 0-.275-.903L92.051.2a1.013 1.013 0 0 0-.51-.138A7.987 7.987 0 0 0 90.536 0c-.265 0-.53.012-.795.035-.56.047-1.121.094-1.68.15-1.304.134-2.608.271-3.91.41-1.956.208-3.913.423-5.874.587l-4.758.398-2.037.17c-.218.018-.435.042-.653.053l-7.819.413-4.365.232c-2.218.117-4.44.187-6.66.275-.601.025-1.105.483-1.105 1.101 0 .582.503 1.125 1.105 1.1l.896-.034-.877 1.943c-.099.22-.066.474.16.606a.433.433 0 0 0 .147.051c-.844 2.678-1.707 5.35-2.57 8.022-.243.753-.506 1.5-.762 2.248-.293.861-.573 1.729-.885 2.585l-1.25 3.42c-.305.834-.637 1.659-.956 2.487-.252.653-.497 1.311-.759 1.961l-1.201 2.975c-.561 1.387-1.15 2.763-1.727 4.145a704.836 704.836 0 0 0-2.952 6.92c-.47 1.1-.946 2.197-1.454 3.28-.085.182-.175.36-.265.54a1.191 1.191 0 0 0-.853-.091c-.592.163-1.032.839-.824 1.445l.225.657a1.25 1.25 0 0 0-.259.308c-.17.29-.217.642-.127.965.071.255.236.485.448.653.11.234.287.439.507.566.103.06.214.098.328.127l.651 1.898c.193.562.393 1.122.589 1.683.102.29.202.579.31.866.037.098.076.195.114.292a.92.92 0 0 0-.227.164 1.028 1.028 0 0 0 0 1.454c.18.179.47.324.731.301.132-.011.264-.02.396-.032.067.1.136.198.208.294.18.243.363.428.667.511.288.079.602.038.86-.112.317-.185.52-.53.55-.889.65-.066 1.298-.148 1.947-.23a87.73 87.73 0 0 0 4.864-.743c.472-.087.941-.187 1.409-.292-.656.56-1.316 1.115-1.972 1.673l-3.316 2.818c-1.96 1.667-3.914 3.341-5.87 5.012a2257.53 2257.53 0 0 0-6 5.142c-.238.204-.364.557-.374.866-.24.15-.419.384-.494.655l-.04.3c0 .205.051.395.154.572.897 2.057 1.761 4.143 2.804 6.134-.04.17-.043.346.004.516.138.502.695.872 1.216.743a1.09 1.09 0 0 0 .657-.134 1.15 1.15 0 0 0 .193-.148c1.35-.454 2.699-.913 4.046-1.38.983-.342 1.966-.68 2.94-1.05 1.657-.63 3.31-1.267 4.954-1.93-2.323 3.129-4.65 6.255-6.989 9.374-1.787 2.381-3.567 4.768-5.369 7.14a469.652 469.652 0 0 1-1.195 1.566c-2.533 3.303-5.051 6.62-7.6 9.91l-4.706 6.08.083-.107c-.267.348-.507.716-.758 1.076-.346.5-.693.999-1.04 1.497-.054.078-.1.16-.148.24l-.506.846a83.4 83.4 0 0 0-.64 1.086l-.468.201c-.275.12-.49.457-.566.733a1.228 1.228 0 0 0 .86 1.51l.328.044c.223 0 .43-.056.622-.168.868-.378 1.749-.732 2.599-1.151l1.726-.854 3.996-1.976a9.23 9.23 0 0 0 .576-.318l1.837-1.083" fill="#161616"/></g></svg>