<svg width="120" height="120" viewBox="0 0 120 120" xmlns="http://www.w3.org/2000/svg" xmlns:xlink="http://www.w3.org/1999/xlink"><defs><path id="a" d="M0 .231h117.316V90.1H.001z"/></defs><g fill="none" fill-rule="evenodd"><g transform="matrix(-1 0 0 1 119 14.673)"><mask id="b" fill="#fff"><use xlink:href="#a"/></mask><path d="M.572 87.314C-7.174 73.994 66.168 2.61 83.96.332c17.77-2.289 40.582 35.01 31.156 55.666C110.851 65.318 8 100.088.571 87.314" fill="#F66121" mask="url(#b)"/></g><path d="M14.44 60.453C29.07 50.806 36.75 32.243 34.47 15c.196.021.393-.022.578 0 15.644 2.005 74.236 57.464 82.865 79.853-36.272-4.709-71.64-16.394-103.472-34.4" fill="#FF7406"/><path d="M8.656 52.778c9.85-5.156 16.134-16.426 15.36-27.512-9.306 6.126-13.386 16.557-15.36 27.512" fill="#D04C0E"/><path d="M41.564 31.095c17.084 22.072 39.098 40.319 63.96 53.028-8.684-11.107-17.422-22.29-27.785-31.85-10.364-9.58-22.539-17.56-36.175-21.178" fill="#F48D06"/></g></svg>