<svg width="120" height="120" viewBox="0 0 120 120" xmlns="http://www.w3.org/2000/svg" xmlns:xlink="http://www.w3.org/1999/xlink"><defs><path id="a" d="M.11.748h39.983V28.8H.11z"/><path id="c" d="M.148.883h32.586v14.602H.148z"/></defs><g fill="none" fill-rule="evenodd"><g transform="translate(38.898 90.318)"><mask id="b" fill="#fff"><use xlink:href="#a"/></mask><path d="M40.068.748H.135s-.61 8.828 4.123 17.667c4.732 8.839 6.172-4.227 6.172-4.227s.712 3.075 4.436 9.8c1.694 3.06 3.571 4.733 5.42 4.812 1.816-.08 3.658-1.752 5.322-4.812 3.655-6.725 4.354-9.8 4.354-9.8s1.413 13.066 6.06 4.227C40.666 9.576 40.067.748 40.067.748" fill="#380D00" mask="url(#b)"/></g><path d="M97.167 54.333c-3.525-9.86.447-15.522.447-15.522h-76.99s3.957 5.657.447 15.522c-5.866 16.497 3.142 41.491 37.936 41.491h.224c34.795 0 43.143-26.921 37.936-41.491" fill="#C8B4AB"/><path d="M104.92 57.965c-.715-12.694-2.02-44.024-2.02-44.024S83.253 3.244 58.993 3.218c-24.26.026-43.91 10.723-43.91 10.723s-1.216 29.556-2.008 44.024c-.706 12.91 2.827 44.892 45.785 44.892h.277c42.958 0 46.512-31.983 45.784-44.892" fill="#642710"/><path d="M101.62 69.085c-.925-7.558-4.802-14.79-10.781-20.108h-63.68c-5.979 5.319-9.856 12.55-10.78 20.108-.234 1.918.112 4.427 2.164 4.924 2.685.65 6.9-2.345 6.9-2.345s-3.55 6.52-1.826 10.055c.971 1.991 4.024 2.466 6.37 2.024 2.347-.445 4.38-1.725 6.341-2.977-.609 1.348-1.224 2.722-1.37 4.175-.144 1.45.25 3.02 1.409 4.028 1.451 1.264 3.732 1.365 5.687.938 2.972-.648 5.548-2.288 8.043-3.894-1.167 3.226 2.6 11.072 8.725 11.072 6.126 0 10.246-7.846 9.08-11.072 2.495 1.606 5.07 3.246 8.042 3.894 1.955.427 4.235.326 5.688-.938 1.157-1.009 1.553-2.578 1.408-4.028-.145-1.453-.76-2.827-1.37-4.175 1.96 1.252 3.994 2.532 6.34 2.977 2.347.442 5.4-.033 6.371-2.024 1.725-3.535-1.826-10.055-1.826-10.055s4.214 2.995 6.9 2.345c2.052-.497 2.398-3.006 2.164-4.924" fill="#C8B4AB"/><path d="M59.007 83.294h-.016.016zm44.655-32.383c-.514-4.312-2.069-8.047-4.594-11.58H18.932c-2.527 3.533-4.082 7.268-4.596 11.58-.184 1.545.199 3.217 1.455 4.132 2.093 1.524 7.098-2.63 7.098-2.63s-2.86 6.545-.588 9.717c.956 1.333 2.996 1.451 4.476.744 1.48-.707 2.546-2.042 3.558-3.334-.369 1.84-.74 3.71-.582 5.582.157 1.87.92 3.775 2.426 4.894 1.6 1.19 3.82 1.31 5.712.684s3.502-1.908 4.903-3.327c-.817 3.344-1.396 7.839 1.6 9.53 2.995 1.69 6.52-.595 8.956-3.024 0 0-.887 9.407 5.65 9.414 6.535-.007 5.648-9.414 5.648-9.414 2.437 2.429 5.962 4.715 8.957 3.023 2.996-1.69 2.416-6.185 1.599-9.529 1.401 1.42 3.01 2.7 4.903 3.327 1.894.626 4.112.506 5.712-.684 1.507-1.12 2.269-3.024 2.426-4.894.158-1.871-.213-3.741-.583-5.582 1.014 1.292 2.08 2.627 3.56 3.334 1.48.707 3.519.59 4.475-.744 2.272-3.172-.588-9.717-.588-9.717s5.005 4.154 7.098 2.63c1.256-.915 1.64-2.587 1.455-4.132" fill="#E2DAD6"/><path d="M28.968 94.609c-1.158 2.32-1.115 5.198.113 7.48.554 1.034 1.618 2.043 2.75 1.74.58-.157 1.02-.627 1.364-1.12 1.545-2.218 1.677-5.338.328-7.68-.573-.992-1.516-1.904-2.66-1.925-1.144-.023-1.517.605-1.895 1.505" fill="#CA6E13"/><path d="M33.526 94.744c-1.33 2.527-1.28 5.665.13 8.152.639 1.126 1.86 2.226 3.162 1.894.665-.169 1.172-.682 1.567-1.22 1.775-2.417 1.928-5.816.376-8.368-.658-1.082-1.74-2.076-3.056-2.099-1.315-.025-1.742.66-2.179 1.64" fill="#CA6E13"/><path d="M38.998 94.609c-1.158 2.32-1.115 5.198.113 7.48.555 1.034 1.618 2.043 2.75 1.74.581-.157 1.021-.627 1.364-1.12 1.545-2.218 1.678-5.338.328-7.68-.573-.992-1.515-1.904-2.66-1.925-1.144-.023-1.515.605-1.895 1.505" fill="#CA6E13"/><path d="M34.078 100.672c-.345.494-.784.965-1.363 1.121-1.134.302-2.197-.706-2.751-1.74-1.016-1.886-1.207-4.178-.594-6.228-.15.225-.277.488-.403.784-1.158 2.32-1.114 5.199.113 7.48.556 1.035 1.618 2.043 2.751 1.74.58-.156 1.02-.627 1.364-1.121a6.972 6.972 0 0 0 1-2.235c-.042.064-.073.136-.117.199" fill="#A74E16"/><path d="M39.268 101.533c-.396.539-.9 1.052-1.566 1.22-1.303.332-2.524-.767-3.162-1.893-1.161-2.048-1.385-4.535-.69-6.76-.116.194-.22.41-.324.644-1.33 2.527-1.28 5.665.13 8.152.639 1.127 1.86 2.225 3.162 1.895.666-.17 1.171-.683 1.567-1.222.551-.75.926-1.6 1.163-2.486-.094.15-.176.307-.28.45" fill="#A74E16"/><path d="M44.108 100.672c-.343.494-.782.965-1.363 1.121-1.133.302-2.195-.706-2.752-1.74-1.014-1.886-1.206-4.177-.592-6.227-.15.225-.278.487-.403.783-1.158 2.32-1.115 5.199.113 7.48.555 1.035 1.618 2.043 2.75 1.74.581-.156 1.022-.627 1.364-1.121a6.958 6.958 0 0 0 1.001-2.236c-.042.064-.074.136-.118.2" fill="#A74E16"/><path d="M89.05 94.609c1.131 2.32 1.09 5.198-.11 7.48-.543 1.034-1.582 2.043-2.688 1.74-.566-.157-.996-.627-1.333-1.12-1.509-2.218-1.638-5.338-.32-7.68.559-.992 1.48-1.904 2.6-1.925 1.117-.023 1.48.605 1.851 1.505" fill="#CA6E13"/><path d="M84.595 94.744c1.3 2.527 1.251 5.665-.127 8.152-.623 1.126-1.816 2.226-3.089 1.894-.649-.169-1.143-.682-1.53-1.22-1.735-2.417-1.883-5.816-.367-8.368.643-1.082 1.7-2.076 2.986-2.099 1.284-.025 1.702.66 2.127 1.64" fill="#CA6E13"/><path d="M79.25 94.609c1.132 2.32 1.09 5.198-.11 7.48-.544 1.034-1.581 2.043-2.688 1.74-.567-.157-.997-.627-1.333-1.12-1.508-2.218-1.64-5.338-.32-7.68.56-.992 1.48-1.904 2.6-1.925 1.117-.023 1.48.605 1.85 1.505" fill="#CA6E13"/><path d="M84.057 100.672c.337.494.766.965 1.332 1.121 1.107.302 2.146-.706 2.688-1.74.993-1.886 1.18-4.178.58-6.228.147.225.27.488.393.784 1.131 2.32 1.09 5.199-.11 7.48-.543 1.035-1.582 2.043-2.688 1.74-.566-.156-.996-.627-1.333-1.121a7.023 7.023 0 0 1-.976-2.235c.041.064.07.136.114.199" fill="#A74E16"/><path d="M78.986 101.533c.387.539.881 1.052 1.531 1.22 1.272.332 2.465-.767 3.088-1.893 1.136-2.048 1.354-4.535.675-6.76a6.3 6.3 0 0 1 .316.644c1.3 2.527 1.25 5.665-.128 8.152-.623 1.127-1.816 2.225-3.088 1.895-.65-.17-1.144-.683-1.531-1.222a7.46 7.46 0 0 1-1.136-2.486c.092.15.17.307.273.45" fill="#A74E16"/><path d="M74.257 100.672c.336.494.766.965 1.332 1.121 1.107.302 2.145-.706 2.687-1.74.993-1.886 1.18-4.177.58-6.227.148.225.272.487.394.783 1.132 2.32 1.09 5.199-.11 7.48-.544 1.035-1.581 2.043-2.688 1.74-.567-.156-.997-.627-1.333-1.121a7.053 7.053 0 0 1-.977-2.236c.041.064.072.136.115.2" fill="#A74E16"/><path d="M71.5 10.621C61.618 14.448 59 31.653 59 31.653S56.38 14.448 46.497 10.62C30.65 4.484 10.794 18.055 17.973 39.89 34.038 43.569 49.655 52.354 59 62.917c9.343-10.563 24.96-19.347 41.025-23.027C107.205 18.055 87.35 4.484 71.5 10.62" fill="#C8B4AB"/><path d="M23.103 24.05c0 7.594 6.15 13.75 13.738 13.75 7.587 0 13.739-6.156 13.739-13.75" fill="#C8B4AB"/><path d="M23.103 24.05c.394 3.603 2.038 6.885 4.551 9.196 2.508 2.306 5.832 3.62 9.187 3.595 3.354.023 6.677-1.291 9.185-3.598 2.512-2.31 4.156-5.59 4.554-9.192.42 3.61-.893 7.481-3.496 10.252-1.28 1.406-2.889 2.508-4.637 3.29a14.527 14.527 0 0 1-5.606 1.167c-1.92-.021-3.844-.404-5.604-1.17-1.75-.78-3.357-1.884-4.638-3.29-2.6-2.77-3.914-6.64-3.496-10.25" fill="#1E1210"/><path d="M68.387 24.05c0 7.594 6.15 13.75 13.738 13.75 7.587 0 13.738-6.156 13.738-13.75" fill="#C8B4AB"/><path d="M68.387 24.05c.394 3.603 2.038 6.885 4.551 9.196 2.508 2.306 5.832 3.62 9.187 3.595 3.354.023 6.677-1.291 9.185-3.598 2.513-2.31 4.156-5.59 4.553-9.192.42 3.61-.893 7.481-3.494 10.252-1.28 1.406-2.89 2.508-4.638 3.29a14.527 14.527 0 0 1-5.606 1.167c-1.92-.021-3.844-.404-5.604-1.17-1.75-.78-3.358-1.884-4.637-3.29-2.6-2.77-3.915-6.64-3.497-10.25" fill="#1E1210"/><path d="M64.71 7.91a1.699 1.699 0 0 1-.036.02c-1.184.742-2.111 1.817-3.022 2.876.406-1.641.814-3.344.52-5.01-.294-1.666-1.487-3.298-3.16-3.542h-.025c-1.673.244-2.867 1.876-3.16 3.543-.294 1.665.113 3.368.518 5.01-.91-1.06-1.838-2.135-3.02-2.876l-.036-.021c-1.999-1.233-4.495.608-4.101 2.925.437 2.58 1.91 5.106 3.342 7.383l4.16 6.62h4.619l4.16-6.62c1.431-2.277 2.903-4.803 3.342-7.383.394-2.317-2.103-4.158-4.102-2.925" fill="#380D00"/><path d="M55.709 30.267s.735 4.202 3.657 4.202c2.923 0 2.923-4.352 2.923-4.352l-6.58.15z" fill="#A44118"/><path d="M59.112 21.77c-1.953-.015-4.173 6.255-4.35 9.155l8.47-.194c.099-.44-2.168-8.946-4.12-8.96" fill="#CA6E13"/><path d="M23.876.965c-.76-.024-1.632.032-2.109.626-.473.591-.329 1.5.125 2.106.454.607 1.144.98 1.813 1.334.782.416 1.564.833 2.347 1.247a64.989 64.989 0 0 0-7.171-.114c-1.115.043-2.635.645-2.314 1.715.126.42.522.693.901.912a13.551 13.551 0 0 0 3.806 1.49 11.539 11.539 0 0 0-7.399 2.448c-.242.19-.488.408-.581.7-.262.82.741 1.448 1.573 1.66 4.168 1.062 8.586.187 12.681-1.125a61.109 61.109 0 0 0 18.29-9.52c-4.003.17-14.926-3.25-21.962-3.48" fill="#380D00"/><g transform="translate(73.429 .078)"><mask id="d" fill="#fff"><use xlink:href="#c"/></mask><path d="M22.11.887c.76-.024 1.631.032 2.108.626.473.591.329 1.5-.125 2.106-.453.607-1.144.98-1.812 1.335L19.934 6.2a64.989 64.989 0 0 1 7.17-.115c1.115.044 2.636.646 2.314 1.715-.125.42-.521.693-.9.912a13.562 13.562 0 0 1-3.806 1.49 11.54 11.54 0 0 1 7.399 2.448c.242.191.487.408.581.7.262.82-.741 1.448-1.573 1.66-4.168 1.062-8.586.187-12.681-1.125a61.097 61.097 0 0 1-18.29-9.52c4.002.171 14.925-3.25 21.961-3.479" fill="#380D00" mask="url(#d)"/></g><path d="M59.026 47.314c-1.828-6.557-18.314-9.647-28.675-8.079l-3.073 3.63 4.695 33.122 24.023 3.018 3.03-31.691zm.167 0c3.096-6.992 20.581-8.18 29.375-6.992l2.137 2.542-4.66 33.123L62.2 79.005l-3.008-31.691z" fill="#E2DCEE"/><path d="M63.985 45.92v39.724c-2.766 1.653-5.807 1.842-9.225 0V45.92c2.903 2.042 5.996 1.842 9.225 0" fill="#3562A0"/><path fill="#2172B5" d="M54.763 45.92l-28.119-5.598-1.336.94 2.82 41.038 26.635 3.347z"/><path fill="#76AAD9" d="M26.644 40.322l-1.336.94 29.455 6.08V45.92z"/><path fill="#2172B5" d="M63.985 45.92l28.119-5.598 1.337.94L90.62 82.3l-26.636 3.347z"/><path fill="#76AAD9" d="M92.104 40.322l1.337.94-29.455 6.08V45.92z"/><path d="M54.763 45.92v1.42c2.902 2.044 5.993 1.84 9.22 0v-1.42c-3.055 2.01-6.13 1.828-9.22 0" fill="#2172B5"/><path d="M63.985 73.64v6.603c-1.4.368-2.85.546-4.355.546-1.557 0-3.166-.19-4.87-.578v-6.517l.799.21c2.84.737 5.281.758 7.458.053l.968-.316z" fill="#CA6E13"/><path d="M63.985 71.851v6.601c-1.4.369-2.85.559-4.355.559-1.557 0-3.166-.2-4.87-.59v-6.517l.799.21c2.84.737 5.281.758 7.458.053l.968-.316z" fill="#A74E16"/><path fill="#76AAD9" d="M67.758 51.903v5.265l21.565-3.16.547-6.667zm0 6.756v3.335l15.166-2.195v-2.631zm7.192 3.334v2.37l14.198-1.446v-2.679z"/><path d="M30.258 51.369c-4.384 1.17-8.911 4.2-13.045 8.108-8.925 8.44-1.22 23.26 10.792 20.719 6.073-1.285 10.616-3.13 10.616-4.303 0-2.708-12.59-3.235-12.59-3.235s4.81-2.267 9.848-6.414c.47-.386.969-.867.961-1.476-.012-1.127-1.556-1.43-2.678-1.331a43.763 43.763 0 0 0-8.572 1.63 42.236 42.236 0 0 0 6.876-7.71c1.22-1.761 2.233-4.425.162-5.69-.702-.43-1.575-.511-2.37-.298m59.028.489c-1.739-.628-4.006-1.03-4.954.969-.472.997-.327 2.193.264 3.126a42.204 42.204 0 0 0 7.81 9.116 43.835 43.835 0 0 0-8.572-1.63c-1.122-.098-2.666.205-2.68 1.332-.005.609.494 1.09.963 1.475 5.038 4.149 9.848 6.414 9.848 6.414s-12.59.527-12.59 3.234c0 1.175 4.546 3.022 10.621 4.305 11.862 2.509 19.772-12.128 11.006-20.511-3.71-3.547-7.745-6.396-11.716-7.83" fill="#380D00"/></g></svg>