<svg width="85" height="170" viewBox="0 0 85 170" xmlns="http://www.w3.org/2000/svg"><g fill="none"><path d="M61.15 14.294c.5.603.65 1.255.45 2.008-.2.603-.6 1.004-1.1 1.406-.25.2-.55.15-.8.1-.7-.2-1.15-.652-1.4-1.355-.1-.301 0-.653-.25-.904-.15-.1-.25 0-.3.1-.1.151-.15.352-.2.553-.25.904-.5 1.857-.75 2.811.45 0 .6-.351.85-.502 1-.602 2.25-.15 2.55 1.004.2.753-.3 1.958-.95 2.31-.45.25-1.25.15-1.7-.202-.35-.3-.65-.602-.75-1.054-.05-.2 0-.401-.2-.502-.3.05-.3.352-.35.552-.35 1.205-.7 2.46-1.1 3.665-.2.652-.25 1.355-.25 2.008a92.19 92.19 0 0 1-.85 8.333c-.15 1.104-.2 2.258-.3 3.363-.55 4.668-.95 9.337-1.35 14.005l-.6 7.53c-.15 1.807-.35 3.614-.55 5.37l-.45 4.67c-.2 2.258-.3 4.567-.7 6.826-.05.301-.05.552.05.903 1.85-.35 3.1-1.355 3.75-3.112.2-.602.5-1.205.9-1.656 1.05-1.255 2.2-1.556 3.75-1.054.5.15.95.401 1.4.702.4.251.75.452 1.15.653.55.25.95.652 1.15 1.154.65 1.607 1.35 3.163.85 4.97-.2.753-.25 1.556-.4 2.36-.15.853-.55 1.606-.9 2.359-.45.953-.95 1.857-1.35 2.81-.4.904-.9 1.808-1.4 2.661-1 1.606-1.3 3.313-.75 5.17.4 1.406 1 2.661 1.7 3.916.55 1.004.95 2.108 1.5 3.112 1.05 1.908 1.5 3.966 1.9 6.024.25 1.405.1 2.861.05 4.317-.15 2.71-.8 5.22-2.2 7.53-1.65 2.81-3.85 5.12-6.5 6.977-1.6 1.104-3.35 1.857-5.15 2.46-.4.15-.85.2-1.3.25-1.35.201-2.7.553-4.1.703-2.3.201-4.5.05-6.8-.25-2.2-.302-4.3-.854-6.3-1.757-1.1-.502-2.15-1.105-3.2-1.607-.8-.401-1.55-.803-2.35-1.205-2.5-1.254-4.45-3.112-6.05-5.32-2.05-2.862-3.4-6.074-3.95-9.588-.2-1.305-.15-2.66 0-3.966.2-1.807.7-3.514 1.25-5.22.2-.603.45-1.205.8-1.757.9-1.556 1.75-3.163 3.1-4.418.5-.502.95-1.054 1.45-1.606.75-.803 1.5-1.556 2.25-2.31.55-.551.95-1.204 1.4-1.756 1.15-1.456 1.35-3.112 1.05-4.87-.25-1.756-.65-3.463-.95-5.17-.4-2.158-.3-4.317.8-6.324.7-1.306 1.7-2.36 2.8-3.263 1.7-1.305 3.55-2.31 5.65-2.811.75-.201 1.5-.302 2.25-.402.25-.05.45-.05.7-.1.1-.804.25-1.556.3-2.31.3-2.81.55-5.571.85-8.382.2-2.159.45-4.317.65-6.476.2-1.807.35-3.614.5-5.371.15-1.657.4-3.263.6-4.87.3-2.208.55-4.467.85-6.676.25-1.706.5-3.413.8-5.12.2-1.104.4-2.208.4-3.313 0-1.405-.05-2.81-.05-4.216-.4-.201-.75-.151-1 .2-.05.1-.1.201-.2.302-.6.753-1.65.803-2.3.05-.75-.904-.65-1.657.1-2.46.25-.25.55-.351.85-.2.55.3 1.25.3 1.6.953.15.251.5.2.8-.05-.05-.954-.05-1.958-.1-2.962-.45-.15-.75-.15-1.05.251-.4.502-.95.803-1.7.552-.7-.25-1.05-.702-1.15-1.405-.1-.653.25-1.155.8-1.506.8-.502 1.35-.402 2 .301.15.2.25.402.4.602.15.151.35.151.55.1.2-.3.1-.601.1-.903 0-.853-.05-1.656-.05-2.51-.7-.15-.65-.15-.9.201-.7 1.155-2 1.255-2.75.251-.5-.652-.4-1.506.25-2.158.5-.502 1.2-.552 1.85-.1.15.1.35.25.45.4.25.453.65.352 1.1.252.05-.803.1-1.606.1-2.41 0-.502.15-.803.65-1.004 1-.35 1.8-1.003 2.6-1.656.75-.602 1.55-.954 2.55-.904.6 0 1.1.151 1.55.553.15.15.35.3.5.401.15-.05.2-.05.3-.1 1.3-.954 2.15-1.004 3.5-.1.35.2.7.451.95.752.9 1.054 2.05 1.757 3.25 2.36.05.05.15.05.2.1.6.351.7.653.55 1.406-.1.602-.2 1.154-.35 1.857.3-.2.5-.301.6-.402 1-.903 2.35-.05 2.8.803.4.703.15 1.406-.35 2.008-.25.302-.6.502-.9.753-.5-.05-1 .05-1.5-.2-.45-.251-.7-.703-1.15-1.004-.25.702-.65 1.254-.55 1.907.4.251.6 0 .8-.15.6-.352 1.25-.503 1.9-.05.35.05.45.05.5.05zM39.8 95.414c-.4.602-.25 1.255-.1 1.907.35-.05.65.201.85-.2 0-.05.05-.151.05-.201.15-.1.2-.251.2-.402v-1.556c-.7-.402-.9-.351-1 .452zm17.55-84.282c-.05 0-.1.05-.1.05-.35 1.105-.75 2.159-1.1 3.263-.45 1.506-.65 3.112-1.4 4.568-.1.15-.15.351-.2.552-.45 1.958-1.25 3.865-1.4 5.924-.15 1.907-.5 3.764-.65 5.672 0 .15-.05.301-.05.502-.15 1.054-.3 2.108-.4 3.212-.1 1.105-.25 2.21-.35 3.314-.1 1.305-.35 2.61-.45 3.915-.05.753-.1 1.506-.25 2.259-.15.703-.2 1.355-.15 2.008 0 .753-.3 1.405-.25 2.158.05 1.155-.15 2.31-.3 3.464-.2 1.757-.4 3.464-.6 5.22-.15 1.255-.4 2.51-.35 3.815v.352c-.25 1.355-.25 2.76-.45 4.166-.15.954-.1 1.958-.3 2.862-.25 1.204-.15 2.359-.35 3.564-.25 1.355-.2 2.76-.3 4.166 0 .15-.05.301-.1.452-.1.552.05.753.6.753.25 0 .5.05.65-.251.05-.753 0-1.556.1-2.36.2-1.455.4-2.911.4-4.417 0-1.305.35-2.56.25-3.815 0-.15.05-.301.1-.452.35-.803.35-1.656.35-2.46 0-1.104.35-2.208.25-3.363 0-.05.05-.1.05-.1.15-1.205.35-2.36.35-3.564.05-1.707.4-3.363.3-5.02v-.25c.25-.653.2-1.356.2-2.009-.05-.753.3-1.405.25-2.158-.1-1.105.1-2.159.3-3.213.2-1.205.1-2.46.4-3.664.25-1.105.2-2.31.3-3.464 0-.15.05-.301.05-.452.15-.903.25-1.807.4-2.71.15-.904.15-1.858.3-2.711.25-1.305.2-2.61.35-3.916.15-1.405.35-2.76.75-4.116.3-1.004.55-2.058.75-3.112.05-.301.15-.602.25-.904.45-1.254 1.05-2.409.95-3.815 0-.2 0-.401.15-.552.65-.753.7-1.757 1.05-2.61-.05-.301-.2-.552-.35-.753.35 0 .6-.15.75-.502.3-.753.55-1.456.5-2.31 0-.15-.1-.3-.3-.3-.25.1-.35.351-.4.552-.1.903-.65 1.656-.55 2.56zM37.9 67.404c-.35-.201-.55-.151-.8-.1-2.25.35-4.35 1.104-6.2 2.409-.8.552-1.65 1.154-2.25 1.957-1.15 1.607-1.8 3.364-1.8 5.372 0 .401.05.803.15 1.204.4 1.757.85 3.514 1.15 5.271.45 2.41.1 4.719-1.6 6.626-1.2 1.305-2.55 2.46-3.6 3.865-.9.603-1.45 1.456-2.05 2.31-1.55 2.158-2.9 4.417-3.5 7.027l-.3 1.657c-.4 2.41-.4 4.768.2 7.128.2.803.55 1.606.85 2.359.45 1.154 1 2.259 1.8 3.263.35.452.65.903.95 1.355.8 1.104 1.65 2.209 2.7 3.012 1.2.904 2.5 1.656 3.8 2.46 1.2.753 2.55 1.154 3.85 1.656.4.15.8.402 1.25.452 1.55.25 3.15.602 4.7.703 1.9.15 3.8.1 5.7-.15 1.3-.151 2.55-.553 3.85-.904.8-.201 1.65-.402 2.4-.804 1.9-1.004 3.6-2.41 5.3-3.714.15-.1.25-.251.35-.352.75-.702 1.25-1.556 1.9-2.309.95-1.054 1.6-2.259 2.05-3.614 1.15-3.213 1.7-6.526 1-9.889-.45-2.309-1-4.518-2.2-6.526-.15-.25-.3-.552-.4-.853-.15-.401-.4-.803-.6-1.154-.7-1.406-1.5-2.711-1.9-4.267-.45-1.607-.1-3.112.55-4.518.9-1.807 1.9-3.514 2.75-5.321.6-1.255 1.1-2.56 1.4-3.966.25-1.204.15-2.41.2-3.614.05-.803-.25-1.506-.55-2.209-.35-.803-1.15-1.154-2-.903-.35.1-.7.2-.95.301-.55.703-.95 1.406-1.2 2.209-.35.954-1 1.757-1.85 2.259-1.15.702-2.4 1.255-3.85 1.204-.1 0-.2.05-.35.1-.3 1.105-.3 2.21-.5 3.314-.15.803-.2 1.606-.95 1.958-.25 1.957-.2 3.815-.3 5.672.85.954.85 1.004.7 2.209-.15 1.054-.35 2.108-.5 3.262-.75.201-.9.753-.9 1.506 0 .553-.05 1.105-.1 1.657.15.1.3.2.4.301.8.803.75 1.406 0 2.159-.25.25-.5.502-.75.702 0 1.004-.4 1.908-.25 2.962.6.251.75.803.9 1.406.15.552-.15 1.104-.7 1.204-.35.05-.7.201-1.05.1-1.2-.2-2.4-.25-3.55-.4-2-.252-4-.553-6.05-.653-.6-.05-1.2-.251-1.7-.502-.8-.352-.95-1.306-.4-2.008.35-.402.85-.553 1.25-.703.1-.904.2-1.757.3-2.61-.45-.452-.7-1.055-.95-1.607.15-.451.25-.903.6-1.054.65-.351.75-.903.75-1.506 0-.452.05-.903.05-1.305 0-.351 0-.652-.25-.903-.2-.151-.1-.352-.1-.553.1-1.104.35-2.208.3-3.363-.05-.452.1-.853.45-1.205.15-.15.25-.3.25-.552.05-.703.25-1.355.25-2.008.05-1.004.15-2.008.35-2.961.1-.502.05-.904-.25-1.205-.3-.301-.35-.602-.25-.954.2-.703.2-1.405.2-2.158 0-.553.05-1.105.3-1.707.2-.251.65-.251.8-.602.3-2.862.8-5.823.75-8.885zm6.25-45.028c2.85.1 5.55.201 8.35.301 1.55-5.02 3.1-9.989 4.65-14.908-.8-.703-1.55-1.356-2.3-2.008-.25-.2-.45-.452-.7-.653-.8-.652-1.85-.702-2.6.05-.3.302-.6.553-1 .603-.3-.1-.5-.251-.6-.502-.15-.301-.4-.502-.7-.653-.65-.351-1.2-.05-1.7.251-1.1.653-2.2 1.456-3.4 2.058-.25 5.12.15 10.19 0 15.461zM60 73.377c.25.703.7 1.205.7 1.807.05 1.054.15 2.058-.15 3.112a4.63 4.63 0 0 0-.25 1.406c-.05.954-.45 1.757-.85 2.61-.45 1.054-1.05 2.058-1.5 3.113-.35.803-.75 1.606-1.2 2.309-.2.3-.4.602-.55.953-.6 1.607-.8 3.263-.15 4.92.15.401.35.803.5 1.204.35 1.004.95 1.858 1.4 2.761.55 1.155 1.05 2.31 1.65 3.464.35.703.65 1.456.85 2.209.35 1.656.9 3.212.8 4.919-.05.853-.1 1.757-.2 2.61-.1 1.105-.3 2.209-.55 3.313-.3 1.155-.6 2.36-1.25 3.364-1.2 1.857-2.3 3.714-4.05 5.17-.7.602-1.35 1.255-2.05 1.807-2.05 1.556-4.35 2.66-6.85 3.213-.4.1-.8.05-1.2.15-2.15.603-4.35.753-6.6.653-.2 0-.45-.1-.65.2.65.05 1.25.252 1.8.201.6-.05 1.15.1 1.75.05 1.45-.1 2.95-.15 4.4-.25.1 0 .2-.1.35-.1 1.25-.151 2.35-.653 3.6-.904.75-.15 1.45-.402 2.1-.753 1.25-.753 2.5-1.556 3.65-2.46 1.35-1.004 2.6-2.108 3.55-3.514.1-.15.25-.301.4-.452.6-.602 1.05-1.355 1.35-2.108.6-1.456 1.1-2.911 1.45-4.417.2-.803.25-1.657.35-2.46.15-1.104.15-2.259 0-3.363a31.13 31.13 0 0 0-.4-2.108c-.35-1.657-.85-3.263-1.55-4.77-.55-1.154-1.05-2.308-1.7-3.413-.45-.853-.9-1.706-1.25-2.56-.35-.803-.45-1.656-.7-2.51.35-.953.3-2.008.8-2.961 1.05-1.908 2-3.815 3-5.723 1-1.958 1.5-4.016 1.45-6.224v-.954c-.1-1.606-.65-2.811-2.25-3.514zm-12.65-48.24c-.1.803-.2 1.556-.3 2.31-.2 1.706-.3 3.413-.5 5.12-.2 2.058-.5 4.116-.7 6.174-.15 1.656-.35 3.363-.5 5.02-.2 1.807-.3 3.664-.55 5.471-.1.853-.15 1.757-.25 2.61-.1 1.155-.3 2.31-.4 3.464-.1 1.054-.2 2.058-.3 3.112-.2 1.958-.45 3.865-.65 5.823-.1.653-.2 1.355-.2 2.008-.05 1.205-.2 2.41-.35 3.564-.1 1.054-.15 2.159-.35 3.213-.2.953-.2 2.008-.3 2.961-.05.653.05.753.85.653.4-1.506.3-3.062.55-4.618.15-1.004.15-2.058.3-3.113.15-.752.15-1.505.25-2.258.15-1.004.3-2.059.4-3.062.1-1.055.15-2.159.3-3.213.1-.753.1-1.506.25-2.259.25-1.205.2-2.46.4-3.715.2-1.054.15-2.158.35-3.212.15-.854.15-1.657.25-2.51.15-1.105.3-2.209.4-3.313.1-1.054.15-2.058.3-3.112.2-1.456.4-2.912.45-4.418 0-.25.05-.452.1-.703.2-1.857.4-3.714.65-5.572.1-1.004.1-2.007.3-2.961.2-1.054.05-2.159.35-3.213 0-.05-.05-.15-.05-.25-.3-.151-.6-.101-1.05 0zm2.15.1c-.1.703-.2 1.406-.3 2.059-.1 1.054-.15 2.058-.3 3.112-.15.853-.15 1.656-.25 2.51-.1 1.104-.3 2.208-.4 3.313-.1 1.054-.15 2.158-.3 3.212-.15.854-.1 1.657-.25 2.51-.35 1.958-.4 3.966-.65 5.974-.1.652-.2 1.355-.25 2.008-.05 1.104-.25 2.158-.3 3.212-.15 1.757-.45 3.464-.6 5.221-.2 1.958-.35 3.915-.55 5.823-.1.853-.15 1.656-.25 2.51l-.45 3.915c-.1 1.054-.25 2.159-.35 3.213-.1.853-.2 1.757-.3 2.61 0 .1.05.2.1.301.35.1.65.15.95-.05.1-1.004.2-2.058.3-3.062.05-.402.05-.803.1-1.205.2-1.204.35-2.46.4-3.664 0-.301 0-.653.05-.954.35-1.707.35-3.514.6-5.22.1-.653.15-1.356.25-2.008.15-1.205.2-2.41.3-3.564.1-1.004.15-2.008.3-2.962.15-1.305.35-2.61.45-3.915.05-1.055.15-2.159.3-3.213.2-1.406.35-2.76.45-4.166.1-.954.1-1.908.25-2.862.3-1.857.35-3.714.6-5.572.15-1.054.2-2.158.3-3.212l.6-5.572c-.25-.251-.45-.402-.8-.301zm-3.2-.25c-.8-.05-.9 0-.95.502-.15 1.505-.35 3.011-.5 4.517-.1 1.054-.1 2.159-.3 3.213-.15.753-.1 1.506-.2 2.259-.2 1.255-.4 2.51-.4 3.815-.05 1.104-.25 2.209-.3 3.363-.1 1.757-.45 3.464-.6 5.22-.15 1.607-.3 3.163-.5 4.77l-.45 4.517c-.15 1.556-.35 3.112-.5 4.618-.15 1.607-.3 3.263-.5 4.87-.2 1.857-.3 3.764-.55 5.622-.1.753-.05 1.506-.25 2.259-.15.652-.15 1.255-.15 1.907 0 .05.1.15.15.2.25.101.55.152.8-.15 0-.401 0-.853.05-1.255.2-1.857.45-3.714.65-5.572.2-1.807.3-3.664.55-5.471.1-.853.1-1.707.25-2.51.25-1.155.15-2.31.4-3.464.2-1.054.15-2.158.35-3.212.15-.854.1-1.657.25-2.51.2-1.456.4-2.912.45-4.418 0-.2 0-.401.05-.602.15-1.054.2-2.158.4-3.213.25-1.355.2-2.71.4-4.066.1-.853.25-1.756.3-2.61.05-1.154.1-2.309.3-3.463.15-.753.1-1.506.2-2.26.2-1.254.4-2.51.45-3.814 0-.251.05-.502.1-.703.1-.753.05-1.506.05-2.36zm-1.95-.1c-.3.25-.4.501-.4.702 0 1.305-.35 2.51-.55 3.765-.1.753-.2 1.506-.25 2.259-.1 1.004-.3 1.957-.4 2.961a59.715 59.715 0 0 0-.35 2.962c-.1.904-.25 1.807-.35 2.71-.1 1.005-.1 2.009-.3 2.962-.3 1.807-.4 3.665-.6 5.472-.2 1.807-.3 3.564-.5 5.371-.2 1.606-.4 3.162-.45 4.769-.1 1.807-.45 3.564-.55 5.37-.05.854-.15 1.657-.25 2.51-.2 1.406-.4 2.762-.45 4.167 0 .251 0 .502-.05.703-.15 1.004-.3 2.058-.4 3.062l-.15 1.657c.3.05.5.1.75.15.2-.903.3-1.807.35-2.76.05-1.055.15-2.059.3-3.113.2-1.355.3-2.71.45-4.066.1-1.004.25-2.008.3-2.962.1-1.405.35-2.76.4-4.166 0-.15 0-.301.05-.502.25-1.255.4-2.51.45-3.815 0-.251 0-.502.05-.703.3-1.154.15-2.309.4-3.463.15-.653.2-1.356.25-2.008.1-1.105.1-2.26.3-3.364.15-.803.15-1.606.2-2.41.2-1.907.5-3.814.65-5.722.05-.702.25-1.355.25-2.008-.05-1.204.25-2.359.3-3.564.05-.803.15-1.606.2-2.359.15-1.405.3-2.861.45-4.267-.05.05-.1-.1-.1-.3zm1.7 52.104c.8.1.95.05.95-.451 0-1.205.15-2.41.25-3.615.1-1.305.15-2.66.3-3.965.1-.854.1-1.757.25-2.61.25-1.356.2-2.711.4-4.067.2-1.204.2-2.41.3-3.564.2-2.058.5-4.116.65-6.174.1-1.104.25-2.209.35-3.313.1-.904.15-1.807.25-2.76.15-1.256.3-2.56.45-3.816.1-1.054.15-2.058.3-3.112.1-.703.15-1.456.2-2.159.25-1.857.45-3.714.7-5.572.1-.803.15-1.606.3-2.359.25-1.305.35-2.61.55-3.865-.8-.301-1-.2-1.05.402-.05.702 0 1.355-.15 2.058-.2 1.004-.15 2.008-.35 2.961-.2 1.155-.15 2.31-.3 3.464-.1.954-.15 1.907-.3 2.861-.2 1.406-.3 2.761-.45 4.167-.1 1.004-.1 2.007-.3 2.961-.15.854-.15 1.757-.25 2.61-.15 1.155-.3 2.31-.4 3.464-.05.352 0 .703-.05 1.105a34.63 34.63 0 0 0-.4 3.915 27.76 27.76 0 0 1-.3 2.861c-.2 1.105-.25 2.209-.35 3.313-.1 1.255-.3 2.56-.35 3.815-.05.854-.1 1.757-.25 2.61-.2 1.356-.4 2.711-.45 4.067 0 .3-.1.552-.1.853-.15 1.305-.3 2.56-.4 3.915zm-.25 28.663c-.1-.552-.45-.753-.85-.803-.85-.1-1.65-.251-2.5-.301-1.4-.15-2.75-.352-4.15-.502-1.35-.1-2.7-.05-4.05-.402-.1-.05-.25 0-.35 0-.35 0-.5.402-.35.703.1.15.2.251.35.301.65.251 1.3.452 1.95.452.9 0 1.85-.05 2.75.1 1.95.352 3.9.352 5.8.703.5.05.9 0 1.4-.25zM44.75 89.39c.4 0 .7.1 1.05-.1.1-.301.25-.653.25-1.004.05-1.456.35-2.861.3-4.317 0-.1-.05-.201-.1-.301-.3-.05-.55-.151-.85-.201-.05 0-.1 0-.1.05-.3 1.054-.65 4.87-.55 5.873zm-1.1-.301c-.05-1.908.55-3.715.5-5.572-.9-.502-1.1-.402-1.2.452-.05.452-.1.853-.1 1.305-.1 1.104-.25 2.209-.35 3.313 0 .15-.05.301.15.502.2.1.55.15 1 0zm-3.1-.2c.8-.051.9-.101.95-.553.05-.602.1-1.205.2-1.757.15-1.004.45-2.008.35-3.062a.38.38 0 0 0-.1-.2c-.25-.151-.5-.202-.85.05-.2 1.706-.6 3.563-.55 5.521zm-3-6.326c-.4.402-.35.803-.4 1.205 0 .452-.1.853-.15 1.305-.1.853-.15 1.757-.3 2.61-.05.251-.1.553.1.804.1.15.25.2.4.2.1 0 .2-.1.3-.2.05-.1.1-.201.1-.352.15-1.355.3-2.66.5-4.016.05-.401 0-.853 0-1.355-.15-.05-.35-.15-.55-.2zm1.65.452c-.2 1.857-.45 3.715-.55 5.522.25.2.45.351.75.2.3-.401.15-.903.25-1.355.05-.502.2-1.004.2-1.556 0-.502.3-.903.25-1.405-.05-.502.25-1.004-.1-1.506-.3 0-.5-.05-.8.1zm4.55-5.12c-.25.853-.55 3.614-.45 4.317.15.1.35.2.55.15.15 0 .3-.05.45-.1.35-1.405.3-2.861.5-4.217-.35-.25-.7-.15-1.05-.15zm2.8 4.467c.1-1.405.25-2.76.35-4.116-.4-.2-.75-.2-1.25-.1.05 1.405-.35 2.81-.3 4.216.4.151.75.151 1.2 0zM45.5 94.21c.1-1.305.2-2.46.3-3.614-.45-.2-.85-.251-1.35-.1a9.84 9.84 0 0 0-.15 1.706c0 .603-.35 1.155-.05 1.757.4.05.75.15 1.25.251zm-3.9-16.264c-.1 1.305-.4 2.61-.35 3.915 0 .05.05.151.1.201.25.1.5.201.8.05.45-1.706.65-3.865.4-4.216-.25-.1-.55-.1-.95.05zm-1.8-.2c-.2.501-.2 1.003-.25 1.455-.05.452-.05.853-.1 1.305-.05.452-.25.904 0 1.406.3 0 .55.15.8-.15.25-1.306.25-2.661.45-3.967-.3-.2-.55-.2-.9-.05zm3.65 12.599c-.4-.251-.7-.251-1.05-.1-.35 1.606-.5 3.162-.3 3.413.2.05.45.15.65.2.05 0 .15-.05.3-.1.25-1.104.4-2.259.4-3.413zm-5.7-12.6c-.1 1.155-.2 2.31-.25 3.464-.05.401.2.502.9.351.15-1.255.45-2.56.4-3.815-.35-.15-.6-.15-1.05 0zm5.75 23.091c-.1 1.004-.15 1.958-.25 2.912.45.2.85.1 1.3.1.1-1.054.15-2.008.25-2.962-.45-.2-.8-.2-1.3-.05zm1.55-2.861c.15-.954.4-1.857.25-2.71-.4-.302-.75-.352-1.2-.151-.3.853-.15 1.757-.25 2.66.4.05.75.15 1.2.2zM37.4 89.69c-.7-.25-.8-.2-.9.402-.1.753-.2 1.506-.25 2.259 0 .25-.05.452 0 .703 0 .25.2.35.4.401.25.05.5-.1.55-.351.1-.653.15-1.356.25-2.008 0-.452.1-.954-.05-1.406zm5.15 11.144c-.25-.1-.35-.15-.45-.2-.55-.151-.7-.101-.8.401-.15.753-.3 1.506-.2 2.259 0 .05.05.15.1.25.3.101.65.202 1-.05.1-.853.2-1.706.35-2.66zM40.4 90.043c-.15 1.104-.4 2.259-.3 3.413.35.15.6.2.9-.1 0-1.105.45-2.26.2-3.414-.3-.05-.5-.1-.8.1zm-1.35 3.363c.05-1.054.3-2.108.3-3.263 0-.15-.05-.351-.2-.401-.2-.1-.4-.05-.6.05-.25.351-.15.753-.2 1.154-.05.452-.05.854-.15 1.305-.1.402-.15.804-.05 1.105.35.2.55.2.9.05zm3.6 4.217c.25-.904.35-1.757.25-2.66 0-.051-.1-.101-.15-.202-.3-.05-.6-.15-1 .1-.05.804-.1 1.657-.2 2.46.35.352.7.302 1.1.302zm-3.2 2.71c-.45.954-.35 1.958-.3 2.912.35.2.6.2.9-.05.15-.653.05-1.356.2-2.059.15-.652.05-.753-.8-.803zm-3-.15c-.25-.201-.55-.302-.9.05.05.903-.55 1.857-.15 2.861.7-.05.75-.1.8-.502.1-.803.15-1.606.25-2.41zm.2-3.113c.35-.803.25-1.606.3-2.41 0-.2-.15-.35-.35-.4-.25 0-.4.1-.45.3-.05.251-.15.553-.15.804-.05.451 0 .953-.15 1.405 0 .05.05.15.05.201.2.25.45.2.75.1zm1.7 3.263c-.7-.25-.85-.15-.95.301-.05.402-.15.753-.2 1.155-.05.402-.1.853 0 1.305.15.05.25.1.35.1.15 0 .3-.05.45-.25.2-.804.1-1.657.35-2.61zm22.3-89.502c-.4.05-.8.552-.75 1.054.05.402.5.803.95.753.4 0 .85-.502.85-1.004 0-.351-.6-.853-1.05-.803zM38.6 97.07c.1-.804.15-1.557.2-2.31a.38.38 0 0 0-.1-.2c-.2-.1-.45-.1-.75.1-.05.753-.15 1.556-.2 2.36.25.2.5.15.85.05zm19.05-76.954c.1.352.25.603.55.804.3.2.65.1.8-.201.1-.15.2-.352.2-.552.05-.402-.3-.854-.7-.954-.25-.05-.5.1-.7.502-.1.1-.15.25-.15.401zM60.7 15.7c-.05-.15-.05-.2-.1-.301-.35-.452-.75-.603-1.1-.352-.4.302-.45.854-.15 1.255.15.201.3.452.65.452.45-.15.55-.552.7-1.054zm-19.4-1.355c0-.352-.3-.753-.6-.753-.4-.05-.8.351-.75.702.05.352.45.753.8.703.25 0 .55-.351.55-.652zm-.85-3.615c.2-.05.35-.15.45-.35.2-.352.2-.654-.05-.854-.15-.15-.3-.251-.55-.201-.25.05-.5.401-.55.703.05.351.4.753.7.702zm2.1 88.047c-.3-.15-.6-.25-1-.15-.1.35-.2.652 0 1.003 1.1.1 1.1.1 1-.853zm-2.1-80.718c-.05.05-.2.1-.25.15-.2.252-.15.503 0 .754.15.25.4.401.7.351.15 0 .25-.15.35-.301.15-.452-.15-.853-.8-.954zm4.5 80.869c-.5-.1-.85-.1-1.2-.05-.1.35-.2.602.05.853.35.1.75.15 1.15 0v-.803zm-5.35-.603c-.1.352-.2.653-.1.954.25.2.5.301.8.1.05-.35.25-.652.15-.953-.3-.15-.5-.201-.85-.1zm-1.25.954c.15-.402.3-.703.15-1.054-.2-.2-.45-.2-.75-.05-.2 1.004-.2 1.004.6 1.104zm10.3-75.748c-.25-.201-.6-.201-.9-.15-.2 0-.25.15-.25.35 0 .151.1.302.3.302.25 0 .5.05.7-.05.2 0 .25-.201.15-.452zM36.6 98.225c-.1-.05-.2-.15-.3-.15a.484.484 0 0 0-.45.05c-.15.702-.2.702 0 .853.15.1.35.15.55.05.25-.2.25-.502.2-.803zm15.2-74.393c-.2.05-.4 0-.4.301 0 .201.15.251.3.251h.45c.15 0 .2-.1.25-.2.05-.151-.05-.252-.15-.252-.15-.05-.3-.1-.45-.1zM46 23.38c-.25 0-.45 0-.45.301 0 .251.2.302.4.302.1 0 .25 0 .35-.05.1-.05.2-.101.2-.252 0-.15-.1-.2-.2-.25-.1-.05-.2-.05-.3-.05zm4 .753c.2 0 .4-.05.4-.301 0-.2-.15-.251-.3-.251-.2-.05-.4 0-.45.251-.05.251.15.301.35.301zm-5.6-.2c.25-.05.3-.201.25-.402 0-.1-.1-.201-.15-.251-.15-.1-.3.1-.3.351-.05.15-.05.251.2.301zm1.55 75.999c.35-.201.5-.402.25-.804-.3.402-.3.402-.25.804z" fill="#010001"/><path d="M61.15 14.294c-.1 0-.15-.05-.25-.05-.65-.452-1.25-.351-1.9.05-.25.151-.45.402-.8.151-.1-.653.3-1.205.55-1.907.45.3.7.753 1.15 1.004.5.3 1 .15 1.5.2-.05.201-.15.402-.25.552z" fill="#EBEBEA"/><path d="M37.9 67.404c.05 3.011-.45 5.973-.75 8.935-.15.401-.6.401-.8.602-.3.552-.35 1.104-.3 1.707 0 .703.05 1.456-.2 2.158-.1.352-.05.653.25.954.3.301.35.753.25 1.205-.2 1.004-.3 2.008-.35 2.961-.05.703-.25 1.356-.25 2.008a.81.81 0 0 1-.25.553c-.35.3-.5.702-.45 1.204.05 1.105-.2 2.209-.3 3.364 0 .2-.1.401.1.552.3.25.3.552.25.903-.05.452-.05.904-.05 1.305 0 .603-.1 1.205-.75 1.506-.35.201-.45.653-.6 1.054.25.553.45 1.105.95 1.607-.1.853-.2 1.707-.3 2.61-.4.15-.9.301-1.25.703-.55.652-.45 1.656.4 2.008.55.25 1.1.452 1.7.502 2.05.1 4.05.401 6.05.652 1.2.15 2.4.201 3.55.402.35.05.7-.05 1.05-.1.55-.1.85-.653.7-1.205-.15-.603-.35-1.155-.9-1.406-.15-1.054.25-1.957.25-2.961.25-.251.5-.502.75-.703.8-.753.8-1.356 0-2.159-.1-.1-.25-.2-.4-.3.05-.553.1-1.105.1-1.657-.05-.703.15-1.255.9-1.506.15-1.105.35-2.159.5-3.263.15-1.205.15-1.255-.7-2.209.05-1.857 0-3.715.3-5.672.75-.402.85-1.155.95-1.958.2-1.104.2-2.209.5-3.313.15-.05.25-.1.35-.1 1.4.05 2.65-.502 3.85-1.205a4.087 4.087 0 0 0 1.85-2.259c.3-.803.65-1.556 1.2-2.209.3-.1.65-.25.95-.3.85-.202 1.6.1 2 .903.3.702.6 1.405.55 2.208-.05 1.205.05 2.41-.2 3.615-.25 1.405-.75 2.71-1.4 3.965-.9 1.807-1.9 3.514-2.75 5.321-.7 1.406-1 2.912-.55 4.518.4 1.556 1.2 2.861 1.9 4.267.2.401.45.753.6 1.154.1.301.25.603.4.854 1.2 2.008 1.75 4.266 2.2 6.525.65 3.414.15 6.677-1 9.89-.5 1.355-1.15 2.51-2.05 3.614-.65.752-1.15 1.606-1.9 2.309-.1.1-.2.25-.35.351-1.7 1.305-3.4 2.66-5.3 3.715-.75.401-1.55.602-2.4.803-1.25.301-2.5.703-3.85.903-1.9.251-3.8.302-5.7.15-1.6-.1-3.15-.45-4.7-.702-.4-.05-.8-.301-1.25-.452-1.3-.502-2.65-.903-3.85-1.656-1.3-.803-2.6-1.556-3.8-2.46-1.05-.803-1.9-1.907-2.7-3.012-.35-.451-.65-.903-.95-1.355-.75-1.004-1.3-2.108-1.8-3.263-.3-.753-.65-1.556-.85-2.36-.6-2.358-.6-4.768-.2-7.127l.3-1.657c.6-2.66 1.95-4.869 3.5-7.027.6-.854 1.2-1.707 2.05-2.31 1.05-1.405 2.4-2.56 3.6-3.865 1.75-1.907 2.05-4.166 1.6-6.626-.3-1.757-.75-3.514-1.15-5.27a4.97 4.97 0 0 1-.15-1.205c0-2.008.65-3.765 1.8-5.371.6-.804 1.45-1.406 2.25-1.958 1.85-1.305 3.95-2.058 6.2-2.41.25-.1.5-.15.8.05zm-15.7 48.44c.15-.502.1-.853-.15-1.255-.45-.702-.8-1.455-1.2-2.208-.8-1.607-.95-3.364-1.2-5.07-.1-.603.15-1.205.2-1.757.1-1.054.35-2.058.7-3.012.2-.502.35-.954.5-1.456.05-.25.1-.452-.1-.652-.2-.1-.4-.1-.55.05-.45.351-.85.803-.95 1.355-.1.552-.3 1.054-.5 1.606-.1.302-.25.603-.25.904-.05 1.155-.4 2.31-.3 3.464 0 .2.05.451 0 .602-.35.753 0 1.506.15 2.209.3 1.506 1.05 2.81 1.85 4.116.25.351.45.753.8 1.054.3.15.6.2 1 .05zm6.2-39.907c.75-.1 1.2-.25 1.4-1.004.15-.552.45-1.104.9-1.506.6-.552 1.15-1.204 1.85-1.656.4-.251.7-.653 1.05-.954.1-.1.15-.251.2-.402.05-.2-.15-.451-.3-.401-.15.05-.3.05-.45.15-.85.402-1.6 1.055-2.35 1.607-1.1.803-1.7 1.857-2.25 3.012-.15.25-.2.652-.05 1.154zm6.4-5.873c.3-.05.55-.1.75-.2.05 0 .15-.051.2-.101.15-.15.25-.301.2-.502-.05-.251-.25-.301-.45-.301-.15 0-.3 0-.45.05-.45.05-.55.401-.25 1.054zM21.55 99.781c.45-.2.75-.552.95-.904a.49.49 0 0 0-.05-.451c-.15-.15-.3-.1-.45-.05-.25.1-.45.3-.6.552-.1.25-.15.552.15.853zm22.6-77.405c.2-5.22-.25-10.34-.05-15.46 1.2-.603 2.25-1.406 3.4-2.059.5-.3 1.05-.552 1.7-.25.3.15.55.35.7.652.15.25.35.452.6.502.4-.05.7-.352 1-.603.8-.752 1.8-.702 2.6-.05.25.201.5.402.7.653.75.652 1.5 1.305 2.3 2.008l-4.65 14.908c-2.75-.1-5.5-.2-8.3-.3zm9.1-13.352c-.35.1-.55.25-.7.502-.4.502-.25 1.054.3 1.405.45.251.9.1 1.2-.351.35-.603.25-1.004-.4-1.355-.15-.151-.3-.201-.4-.201zm-7.7.753c0 .602.35.953 1 .903.45 0 .9-.502.9-.954 0-.501-.45-.953-1-1.003-.55 0-.9.451-.9 1.054zm1.7 4.266c0-.401-.4-.752-.9-.803-.45 0-.85.352-.8.803 0 .553.35.904.85.904.5.05.8-.351.85-.904zm5 1.406c.45.05.95-.402 1-.853.05-.402-.4-.804-.8-.854a.87.87 0 0 0-.95.854c-.05.401.35.853.75.853zm-.8 2.46c-.35 0-.8.401-.85.853-.05.452.3.803.8.853.5.05.85-.25.9-.702.05-.502-.35-1.004-.85-1.004zm-5.1 1.204c.05 0 .2 0 .3-.05.3-.05.5-.2.6-.502.05-.25-.05-.452-.2-.652-.15-.201-.35-.301-.6-.352-.35-.05-.6.05-.8.352-.2.25-.2.502-.1.753.15.401.4.451.8.451z" fill="#DD002B"/><path d="M60 73.377c1.6.703 2.2 1.958 2.15 3.514v.954c.1 2.208-.45 4.266-1.45 6.224-.95 1.908-1.95 3.865-3 5.723-.5.953-.45 2.008-.8 2.961.2.854.3 1.707.7 2.51.4.854.8 1.757 1.25 2.56.65 1.105 1.15 2.26 1.7 3.414.7 1.506 1.25 3.112 1.55 4.769.15.702.3 1.405.4 2.108.15 1.104.2 2.259 0 3.363-.1.803-.2 1.657-.35 2.46a26.851 26.851 0 0 1-1.45 4.417c-.3.753-.75 1.506-1.35 2.108-.15.151-.3.302-.4.452-.95 1.406-2.2 2.51-3.55 3.514-1.15.904-2.4 1.707-3.65 2.46-.65.401-1.4.602-2.1.753-1.2.25-2.35.753-3.6.903-.1 0-.25.1-.35.1-1.45.101-2.95.201-4.4.252-.6.05-1.15-.1-1.75-.05-.55.05-1.15-.151-1.8-.201.25-.302.45-.201.65-.201 2.25.05 4.45-.1 6.6-.653.4-.1.8-.05 1.2-.15 2.55-.552 4.8-1.607 6.85-3.213.75-.552 1.35-1.255 2.05-1.807 1.75-1.406 2.85-3.313 4.05-5.17.65-1.004.95-2.21 1.25-3.364.3-1.054.45-2.158.55-3.313.1-.853.15-1.757.2-2.61.1-1.707-.45-3.313-.8-4.92-.15-.802-.5-1.505-.85-2.208-.6-1.155-1.1-2.31-1.65-3.464-.45-.953-1.05-1.757-1.4-2.76-.15-.402-.3-.804-.5-1.205-.65-1.657-.5-3.263.15-4.92.15-.351.35-.602.55-.953.45-.753.9-1.506 1.2-2.31.45-1.054 1.05-2.058 1.5-3.112.35-.853.8-1.656.85-2.61 0-.452.15-.954.25-1.406.3-1.054.15-2.058.15-3.112.05-.602-.4-1.104-.6-1.807z" fill="#930119"/><path d="M57.35 11.132c.15.251.3.452.5.753-.3.853-.4 1.857-1.05 2.61-.15.15-.15.352-.15.552.1 1.356-.55 2.56-.95 3.815-.1.302-.2.603-.25.904-.2 1.054-.4 2.108-.75 3.112-.4 1.356-.6 2.71-.75 4.116-.15 1.306-.1 2.61-.35 3.916-.15.903-.2 1.807-.3 2.71-.15.904-.25 1.808-.4 2.711 0 .15-.05.301-.05.452-.1 1.155-.05 2.31-.3 3.464-.25 1.204-.15 2.46-.4 3.664-.2 1.054-.4 2.108-.3 3.213.05.753-.25 1.405-.25 2.158 0 .653.1 1.356-.2 2.008-.05.05 0 .15 0 .251.1 1.707-.25 3.363-.3 5.02-.05 1.205-.25 2.36-.35 3.564 0 .05-.05.1-.05.1.05 1.105-.25 2.209-.25 3.364 0 .853 0 1.706-.35 2.46-.05.15-.1.3-.1.451.1 1.305-.25 2.56-.25 3.815-.05 1.456-.25 2.962-.4 4.417-.1.804-.05 1.607-.1 2.36-.2.3-.45.25-.65.25-.55-.05-.7-.2-.6-.752.05-.15.05-.301.1-.452.1-1.406.05-2.811.3-4.166.2-1.205.1-2.41.35-3.564.2-.904.15-1.908.3-2.862.2-1.355.2-2.76.45-4.166v-.352c-.1-1.305.2-2.56.35-3.815.2-1.756.35-3.463.6-5.22.15-1.155.35-2.31.3-3.464-.05-.753.3-1.405.25-2.158 0-.653 0-1.356.15-2.008.15-.703.2-1.506.25-2.259.1-1.305.35-2.61.45-3.915.1-1.105.25-2.21.35-3.314.05-1.054.25-2.108.4-3.212 0-.15.05-.301.05-.502.15-1.908.5-3.815.65-5.672.15-2.059.9-3.966 1.4-5.924.05-.2.1-.401.2-.552.8-1.405.95-3.012 1.4-4.568.35-1.104.7-2.209 1.1-3.263-.15-.05-.1-.05-.05-.05z" fill="#930019"/><path d="M47.35 25.137c.4-.1.75-.15 1 .05.05.1.1.15.05.251-.3 1.054-.15 2.159-.35 3.213-.2.954-.2 2.008-.3 2.962-.2 1.857-.4 3.714-.65 5.572-.05.25-.05.451-.1.702-.05 1.456-.25 2.962-.45 4.418-.15 1.004-.2 2.058-.3 3.112-.1 1.104-.25 2.209-.4 3.313-.1.853-.1 1.657-.25 2.51-.2 1.054-.15 2.158-.35 3.213-.2 1.204-.15 2.46-.4 3.714-.15.753-.1 1.506-.25 2.26-.15 1.053-.2 2.158-.3 3.212a56.71 56.71 0 0 1-.4 3.062c-.1.753-.1 1.506-.25 2.259-.2 1.004-.15 2.058-.3 3.112-.25 1.556-.15 3.112-.55 4.618-.8.05-.9 0-.85-.652.05-1.004.1-2.008.3-2.962.2-1.054.25-2.159.35-3.213.15-1.205.35-2.359.35-3.564 0-.652.15-1.355.2-2.008.2-1.957.45-3.865.65-5.823.1-1.054.2-2.058.3-3.112.1-1.154.3-2.309.4-3.464.1-.853.15-1.756.25-2.61.2-1.807.35-3.664.55-5.471.2-1.657.35-3.313.5-5.02.2-2.058.45-4.116.7-6.174.2-1.707.35-3.414.5-5.12.15-.804.25-1.557.35-2.36zm2.15.101c.35-.1.55.1.8.2l-.6 5.572c-.1 1.054-.15 2.159-.3 3.213-.25 1.857-.3 3.715-.6 5.572-.15.954-.2 1.907-.25 2.861-.1 1.406-.3 2.761-.45 4.167-.15 1.054-.2 2.158-.3 3.212-.1 1.305-.25 2.61-.45 3.916-.15 1.004-.2 2.007-.3 2.961-.1 1.205-.15 2.41-.3 3.564-.1.653-.1 1.356-.25 2.008-.3 1.757-.25 3.514-.6 5.22-.05.302-.05.653-.05.954-.05 1.255-.25 2.46-.4 3.665-.05.402-.05.803-.1 1.205-.1 1.004-.2 2.058-.3 3.062-.35.2-.65.15-.95.05-.05-.1-.1-.2-.1-.301.1-.854.2-1.757.3-2.61.1-1.055.25-2.159.35-3.213l.45-3.916c.1-.853.15-1.656.25-2.51.25-1.957.35-3.915.55-5.822.2-1.757.5-3.464.6-5.221.1-1.054.25-2.158.3-3.213.05-.652.15-1.355.25-2.008.25-1.957.3-3.965.65-5.973.15-.803.1-1.657.25-2.51.2-1.054.2-2.158.3-3.213.1-1.104.3-2.208.4-3.313.1-.853.1-1.656.25-2.51.15-1.003.2-2.058.3-3.112.05-.602.2-1.255.3-1.957z" fill="#816F5B"/><path d="M46.3 24.987c0 .853.05 1.606-.15 2.359-.05.25-.1.452-.1.703-.05 1.255-.2 2.56-.45 3.815-.1.753-.1 1.506-.2 2.259-.2 1.154-.25 2.309-.3 3.463-.05.904-.2 1.757-.3 2.61-.2 1.356-.2 2.711-.4 4.066-.2 1.055-.3 2.109-.4 3.213 0 .2-.05.402-.05.602-.05 1.456-.25 2.962-.45 4.418-.1.803-.1 1.656-.25 2.51-.2 1.054-.15 2.158-.35 3.212-.2 1.155-.15 2.31-.4 3.464-.15.803-.15 1.657-.25 2.51-.25 1.807-.35 3.664-.55 5.471-.2 1.858-.45 3.715-.65 5.572-.05.452-.05.854-.05 1.255-.25.302-.5.251-.8.15-.05-.05-.15-.15-.15-.2 0-.652 0-1.255.15-1.907.2-.703.15-1.506.25-2.26.25-1.857.35-3.764.55-5.621.2-1.607.35-3.263.5-4.87.15-1.556.35-3.112.5-4.618l.45-4.518c.2-1.606.35-3.162.5-4.768.15-1.757.5-3.464.6-5.22.1-1.105.3-2.21.3-3.364.05-1.255.25-2.56.4-3.815.1-.753.1-1.506.2-2.259.2-1.054.2-2.159.3-3.213.15-1.506.3-3.012.5-4.517.15-.502.25-.553 1.05-.502z" fill="#756354"/><path d="M44.35 24.886c.05.201.05.301.05.452-.15 1.405-.3 2.861-.45 4.267-.1.803-.15 1.606-.2 2.359-.1 1.205-.35 2.36-.3 3.564 0 .703-.2 1.355-.25 2.008-.15 1.907-.45 3.815-.65 5.722-.1.804-.1 1.607-.2 2.41-.2 1.104-.2 2.209-.3 3.363-.05.653-.1 1.356-.25 2.008-.25 1.155-.1 2.31-.4 3.464-.05.25-.05.502-.05.703a24.09 24.09 0 0 1-.45 3.815c-.05.15-.05.3-.05.502-.05 1.405-.3 2.76-.4 4.166-.1 1.004-.25 2.008-.3 2.962-.1 1.355-.2 2.71-.45 4.066a31.244 31.244 0 0 0-.3 3.112c-.05.903-.15 1.807-.35 2.76-.25-.05-.45-.1-.75-.15.05-.552.05-1.104.15-1.656.1-1.004.25-2.058.4-3.062.05-.251.05-.502.05-.703.05-1.406.25-2.761.45-4.167.1-.803.2-1.656.25-2.51.15-1.807.5-3.564.55-5.37.05-1.607.25-3.163.45-4.77.2-1.807.3-3.563.5-5.37.2-1.808.3-3.665.6-5.472.15-1.004.2-2.008.3-2.962.1-.903.25-1.807.35-2.71.1-1.004.2-2.008.35-2.962.15-1.004.3-1.958.4-2.962.1-.753.15-1.506.25-2.259.2-1.255.55-2.51.55-3.764.05-.352.15-.603.45-.854z" fill="#746354"/><path d="M46.05 76.991c.15-1.355.25-2.61.4-3.865.05-.301.1-.552.1-.853.05-1.356.25-2.71.45-4.066.15-.854.2-1.757.25-2.61.1-1.255.25-2.56.35-3.816.1-1.104.15-2.208.35-3.313.2-.953.25-1.907.3-2.86.1-1.306.25-2.611.4-3.916.05-.352.05-.703.05-1.105.15-1.154.25-2.309.4-3.463.1-.854.1-1.757.25-2.61.2-.954.2-2.008.3-2.962.15-1.406.25-2.761.45-4.167.15-.953.15-1.907.3-2.86.15-1.155.1-2.31.3-3.465.2-1.003.15-2.007.35-2.961.15-.653.1-1.356.15-2.058.05-.653.25-.703 1.05-.402-.15 1.305-.3 2.56-.55 3.865-.15.804-.2 1.607-.3 2.36-.25 1.857-.45 3.714-.7 5.572-.1.702-.1 1.455-.2 2.158-.15 1.004-.2 2.058-.3 3.112-.15 1.255-.3 2.56-.45 3.815-.1.904-.15 1.807-.25 2.761-.1 1.105-.25 2.209-.35 3.313-.15 2.058-.45 4.116-.65 6.175-.1 1.204-.15 2.41-.3 3.564-.2 1.355-.15 2.71-.4 4.066-.15.853-.1 1.757-.25 2.61-.2 1.305-.2 2.61-.3 3.965-.1 1.205-.25 2.41-.25 3.615 0 .452-.2.502-.95.401z" fill="#806E5A"/><path d="M45.8 105.654c-.5.251-.9.301-1.35.251-1.9-.351-3.9-.351-5.8-.703-.9-.15-1.85-.1-2.75-.1-.7 0-1.35-.15-1.95-.452-.15-.05-.25-.15-.35-.301-.2-.301 0-.703.35-.703h.35c1.3.352 2.7.251 4.05.402 1.4.1 2.75.351 4.15.502.85.1 1.65.2 2.5.301.35.05.65.251.8.803z" fill="#CBCACA"/><path d="M44.75 89.39c-.1-1.004.25-4.819.55-5.873.05 0 .1-.05.1-.05.25.05.55.15.85.2.05.101.1.201.1.302.05 1.456-.25 2.861-.3 4.317 0 .351-.15.703-.25 1.004-.35.2-.7.1-1.05.1z" fill="#D2022A"/><path d="M43.65 89.089c-.5.15-.8.1-1.05 0-.2-.15-.15-.351-.15-.502.1-1.104.25-2.209.35-3.313.05-.452.1-.853.1-1.305.1-.854.3-.954 1.2-.452.1 1.857-.5 3.664-.45 5.572z" fill="#D4022B"/><path d="M40.55 88.888c-.05-1.958.35-3.815.5-5.572.35-.25.6-.2.85-.05.05.05.1.15.1.2.1 1.055-.2 2.059-.35 3.063-.05.602-.15 1.205-.2 1.757 0 .502-.1.552-.9.602z" fill="#D3032B"/><path d="M37.55 82.563c.2.1.4.15.6.201 0 .452.05.904 0 1.355-.2 1.356-.35 2.66-.5 4.016 0 .1-.05.251-.1.352-.05.1-.2.15-.3.2-.15.05-.3-.05-.4-.2-.2-.251-.15-.553-.1-.804.15-.853.2-1.757.3-2.61.05-.452.1-.853.15-1.305 0-.402 0-.803.35-1.205z" fill="#D2032B"/><path d="M39.2 83.015c.35-.15.55-.1.75-.05.35.452.05 1.004.1 1.506s-.25.903-.25 1.405-.1 1.004-.2 1.556c-.05.452.1.954-.25 1.356-.3.15-.5 0-.75-.201.15-1.857.4-3.715.6-5.572z" fill="#CB042A"/><path d="M43.75 77.895c.4 0 .7-.05 1.1.15-.2 1.356-.15 2.812-.5 4.217-.15.05-.3.1-.45.1-.2 0-.4-.05-.55-.15-.15-.703.1-3.464.4-4.317z" fill="#C6C4C4"/><path d="M46.55 82.362c-.45.151-.8.151-1.2 0-.05-1.405.3-2.81.3-4.216.5-.1.85-.1 1.25.1-.1 1.356-.25 2.71-.35 4.116zM45.5 94.21c-.5-.101-.85-.152-1.2-.252-.3-.602.05-1.205.05-1.757 0-.602.05-1.154.15-1.707.5-.15.9-.1 1.35.1-.15 1.155-.25 2.31-.35 3.615z" fill="#C7C5C5"/><path d="M41.6 77.945c.4-.15.7-.15.95-.05.25.301.05 2.51-.4 4.216-.25.151-.5.05-.8-.05a.381.381 0 0 1-.1-.2c-.05-1.306.25-2.61.35-3.916z" fill="#C4C1C2"/><path d="M39.8 77.744c.35-.1.6-.15.9.1-.2 1.306-.15 2.661-.45 3.966-.25.301-.5.15-.8.15-.25-.501-.05-.953 0-1.405.05-.451.05-.853.1-1.305.05-.552.05-1.004.25-1.506z" fill="#C0BEBE"/><path d="M43.45 90.344c0 1.154-.15 2.309-.35 3.464-.15.05-.25.1-.3.1-.25-.05-.45-.15-.65-.2-.2-.302-.05-1.808.3-3.414.3-.201.65-.201 1 .05z" fill="#C6C3C3"/><path d="M37.75 77.744c.45-.15.7-.2 1 0 .05 1.255-.25 2.56-.4 3.815-.7.1-.9.05-.9-.351.1-1.155.25-2.259.3-3.464z" fill="#BDBABA"/><path d="M43.5 100.835c.5-.15.85-.15 1.3.05-.1.954-.15 1.908-.25 2.962-.45 0-.85.1-1.3-.1.1-.954.15-1.908.25-2.912z" fill="#D7032B"/><path d="M45.05 97.974c-.45-.1-.8-.15-1.25-.2.1-.904-.05-1.808.25-2.661.45-.15.85-.1 1.2.15.2.904 0 1.757-.2 2.71z" fill="#D0042A"/><path d="M37.4 89.691c.15.452.05.954 0 1.406-.05.652-.15 1.355-.25 2.008a.46.46 0 0 1-.55.351c-.2-.05-.35-.15-.4-.401v-.703c.1-.753.15-1.506.25-2.26.15-.601.25-.652.95-.4z" fill="#B6B2B2"/><path d="M42.55 100.835c-.1.904-.25 1.807-.35 2.66-.35.201-.7.101-1 .05-.05-.1-.1-.15-.1-.25-.1-.753.05-1.506.2-2.259.1-.452.25-.552.8-.402.1.05.2.1.45.201z" fill="#C40629"/><path d="M40.4 90.043c.3-.201.5-.15.8-.05.25 1.154-.25 2.309-.2 3.413-.3.25-.6.25-.9.1-.15-1.204.15-2.359.3-3.463z" fill="#C4C1C1"/><path d="M39.05 93.406c-.35.15-.55.15-.85-.05-.1-.352-.05-.753.05-1.105.1-.451.1-.853.15-1.305.05-.401-.05-.803.2-1.154.2-.1.4-.15.6-.05.15.1.2.25.2.401-.1 1.104-.3 2.209-.35 3.263z" fill="#BDB8B9"/><path d="M42.65 97.623c-.4 0-.75.1-1.05-.251.05-.804.1-1.657.2-2.46.4-.251.7-.15 1-.1.05.05.15.15.15.2.05.854-.05 1.707-.3 2.61z" fill="#D2052B"/><path d="M39.45 100.333c.85.05.95.1.8.753-.2.703-.05 1.406-.2 2.058-.3.251-.55.251-.9.05-.05-.903-.2-1.907.3-2.86z" fill="#C5072A"/><path d="M36.45 100.183c-.05.803-.15 1.606-.2 2.41-.05.4-.15.45-.8.501-.4-1.004.2-1.958.15-2.861.3-.352.55-.251.85-.05z" fill="#CC082B"/><path d="M36.65 97.07c-.35.1-.55.15-.75 0-.05-.05-.1-.15-.05-.2.15-.452.1-.954.15-1.406.05-.251.1-.552.15-.803.05-.2.2-.352.45-.301.25 0 .35.15.35.401 0 .703.05 1.506-.3 2.31z" fill="#C9072A"/><path d="M38.35 100.333c-.25.904-.15 1.807-.3 2.56-.15.251-.3.301-.45.251-.1 0-.2-.05-.35-.1-.15-.452-.05-.853 0-1.305.05-.402.1-.803.2-1.155.05-.401.2-.452.9-.25z" fill="#D1072C"/><path d="M60.65 10.83c.45-.05 1 .402 1 .804 0 .502-.4 1.004-.85 1.004-.45 0-.9-.351-.95-.753 0-.452.4-1.004.8-1.054z" fill="#83CFD3"/><path d="M38.6 97.07c-.35.1-.6.15-.85-.05.05-.803.15-1.606.2-2.36.3-.2.55-.2.75-.1.05.05.1.151.1.201-.05.753-.1 1.506-.2 2.31z" fill="#D2062B"/><path d="M57.35 11.132c-.1-.904.45-1.657.55-2.51.05-.2.1-.452.4-.552.2 0 .25.15.3.301.05.803-.15 1.556-.5 2.31-.15.3-.4.451-.75.451z" fill="#850218"/><path d="M57.65 20.117c.05-.1.1-.25.15-.401.2-.402.45-.552.7-.502.4.1.8.602.7.954-.05.2-.1.401-.2.552-.15.3-.5.401-.8.2-.3-.2-.45-.451-.55-.803z" fill="#7CC1C4"/><path d="M60.7 15.7c-.15.452-.25.904-.7 1.104-.35 0-.5-.25-.65-.451-.3-.402-.2-.954.15-1.255.3-.251.7-.151 1.1.351 0 .05.05.1.1.251z" fill="#7DC3C7"/><path d="M40.6 96.92c0 .05 0 .15-.05.2-.25 0-.5.05-.75-.25v-1.456c.1-.803.3-.904.95-.452-.15.1-.2.2-.2.402 0 .502 0 1.054.05 1.556z" fill="#DE042C"/><path d="M41.3 14.345c0 .3-.3.652-.55.652-.35 0-.8-.351-.8-.703-.05-.35.4-.752.75-.702.25 0 .6.401.6.753z" fill="#7DC4C7"/><path d="M40.45 10.73c-.3.05-.7-.35-.65-.702 0-.302.3-.653.55-.703.2-.05.4.05.55.2.25.201.25.553.05.854-.1.2-.25.351-.5.351z" fill="#83CDD1"/><path d="M42.55 98.777c.05.954.05.954-.95.853-.2-.3-.15-.652 0-1.004.35-.1.65 0 .95.151z" fill="#C9C4C5"/><path d="M40.45 18.06c.65.1.95.501.75 1.003-.05.15-.15.301-.35.301-.3.05-.5-.1-.7-.351-.15-.25-.25-.502 0-.753.15-.1.25-.15.3-.2z" fill="#7BC0C3"/><path d="M44.95 98.928v.803c-.4.15-.8.1-1.15 0-.25-.251-.2-.502-.05-.854.35-.05.7-.05 1.2.05z" fill="#BEB6B7"/><path d="M39.6 98.325c.35-.1.55-.05.8.1.15.302-.05.653-.15.954-.3.151-.55.05-.8-.1-.05-.301.1-.602.15-.954z" fill="#CDCCCC"/><path d="M38.35 99.28c-.8-.101-.8-.101-.6-1.155.25-.151.5-.151.75.05.15.451 0 .753-.15 1.104z" fill="#ABA1A2"/><path d="M48.65 23.53c.1.202.05.453-.15.503-.2.05-.45.05-.7.05-.2 0-.3-.15-.3-.301 0-.15.1-.301.25-.352.3-.05.6-.1.9.1z" fill="#A7957A"/><path d="M36.6 98.225c0 .301 0 .602-.2.803-.2.1-.4.1-.55-.05-.2-.15-.15-.2 0-.853.15-.1.3-.1.45-.05.15.05.25.1.3.15z" fill="#C6BEC0"/><path d="M39.8 95.414v1.456c.25.35.5.25.75.25-.2.452-.5.151-.85.201-.1-.652-.3-1.255.1-1.907z" fill="#751221"/><path d="M51.8 23.832c.15.05.3.05.45.1.1.05.2.151.15.251-.05.1-.1.201-.25.201h-.45c-.15 0-.3-.1-.3-.25 0-.302.25-.302.4-.302z" fill="#C3AE8F"/><path d="M46 23.38c.1 0 .2 0 .3.05.1.05.2.1.2.251s-.1.201-.2.251c-.1.05-.25.05-.35.05-.2 0-.4-.05-.4-.3 0-.302.25-.302.45-.302z" fill="#D0BA99"/><path d="M40.6 96.92v-1.607c0-.15.05-.3.2-.401v1.556c0 .2-.1.351-.2.452z" fill="#751221"/><path d="M50 24.133c-.2 0-.4-.05-.35-.351.05-.251.25-.251.45-.251.15 0 .3.05.3.25 0 .352-.2.352-.4.352z" fill="#D6BF9D"/><path d="M44.4 23.932c-.2 0-.25-.15-.25-.3 0-.252.2-.453.3-.352.1.05.15.15.15.25.05.202 0 .352-.2.402z" fill="#9E8D74"/><path d="M45.95 99.932c-.05-.402-.05-.402.25-.804.25.402.15.603-.25.804z" fill="#795C60"/><path d="M22.2 115.844c-.45.15-.75.1-1-.15-.35-.302-.55-.653-.8-1.054-.8-1.255-1.55-2.61-1.85-4.117-.15-.702-.5-1.455-.15-2.208.1-.151.05-.402 0-.603-.15-1.154.2-2.309.3-3.463 0-.302.15-.603.25-.904.2-.502.4-1.054.5-1.606.1-.552.5-1.004.95-1.356.15-.15.35-.15.55-.05.2.201.15.452.1.653-.15.502-.3 1.004-.5 1.456-.35.953-.6 1.957-.7 3.011-.05.603-.3 1.155-.2 1.757.25 1.757.4 3.464 1.2 5.07.35.753.7 1.506 1.2 2.209.3.502.3.903.15 1.355z" fill="#E86A4D"/><path d="M28.4 75.937c-.1-.502-.1-.903.05-1.255.55-1.154 1.15-2.208 2.25-3.012.75-.552 1.5-1.204 2.35-1.606l.45-.15c.2-.05.4.25.3.401-.05.15-.1.301-.2.402-.35.351-.65.702-1.05.953-.7.452-1.25 1.105-1.85 1.657-.45.401-.75.954-.9 1.506-.2.853-.65 1.004-1.4 1.104z" fill="#E7684D"/><path d="M34.8 70.064c-.3-.653-.2-1.004.25-1.104.15-.05.3-.05.45-.05.2 0 .4.05.45.3a.48.48 0 0 1-.2.503.38.38 0 0 1-.2.1c-.25.15-.45.2-.75.251z" fill="#E65A48"/><path d="M21.55 99.781c-.25-.351-.25-.602-.15-.853s.3-.452.6-.553c.15-.05.3-.05.45.05.15.151.15.302.05.452-.2.402-.5.703-.95.904z" fill="#E7634B"/><path d="M53.25 9.024c.1.05.25.1.4.15.6.352.7.753.4 1.356-.3.502-.75.652-1.2.351-.55-.301-.7-.904-.3-1.406.15-.2.4-.35.7-.451z" fill="#0E0003"/><path d="M45.55 9.777c0-.603.35-1.054.85-1.004.5 0 1 .502 1 1.004 0 .451-.45.903-.9.953-.6 0-.95-.35-.95-.953z" fill="#0D0003"/><path d="M47.25 14.043c0 .603-.35.954-.85.954-.55 0-.85-.351-.85-.903 0-.452.35-.854.8-.803.5 0 .9.35.9.752z" fill="#0F0003"/><path d="M52.25 15.449c-.4-.05-.8-.502-.8-.904a.87.87 0 0 1 .95-.853c.45.05.85.502.8.853 0 .502-.5.954-.95.904z" fill="#0B0002"/><path d="M51.45 17.909c.45.05.85.502.8.953-.05.452-.4.753-.9.703-.5-.05-.8-.401-.8-.853.1-.402.55-.854.9-.803z" fill="#130004"/><path d="M46.35 19.113c-.4 0-.65-.05-.8-.401-.15-.301-.1-.502.1-.753a.77.77 0 0 1 .8-.351c.25.05.45.15.6.35.15.202.25.402.2.653-.1.302-.3.452-.6.502h-.3z" fill="#090002"/></g></svg>