<svg width="120" height="120" viewBox="0 0 120 120" xmlns="http://www.w3.org/2000/svg" xmlns:xlink="http://www.w3.org/1999/xlink"><defs><path id="a" d="M.42.092h24.648v25.363H.42z"/><path id="c" d="M0 119.394h95.54V.377H0z"/></defs><g fill="none" fill-rule="evenodd"><path fill="#6F5145" d="M59.776 56.854h45.761V19.213H59.776z"/><path fill="#946C5C" d="M13.909 56.855h45.868V19.213H13.909z"/><path fill="#7A85A8" d="M34.168 26.794v30.06H17.671v62.769h83.903V56.854H85.387v-30.06z"/><path fill="#946C5C" d="M17.67 119.623h41.952v-10.1H17.671z"/><path fill="#6F5145" d="M59.622 119.623h41.951v-10.1H59.622z"/><path fill="#946C5C" d="M59.776.606v26.188h31.162v-.002z"/><path fill="#A9897D" d="M59.776.606l-31.16 26.188h31.16z"/><path fill="#6F5145" d="M19.653 36.492h6.606V12.856h-6.606z"/><path fill="#2E2E2E" d="M40.888 49.41h4.742V35.242h-4.742z"/><path d="M40.888 41.418h4.742v-6.176h-4.742v6.176zm0 7.992h4.742v-6.178h-4.742v6.178zm-1.81 1.812h8.36V33.43h-8.36v17.792z" fill="#FFF"/><path fill="#2E2E2E" d="M73.896 49.41h4.742V35.242h-4.742z"/><path d="M73.896 41.418h4.742v-6.176h-4.742v6.176zm0 7.992h4.742v-6.178h-4.742v6.178zm-1.81 1.812h8.362V33.43h-8.361v17.792z" fill="#FFF"/><path fill="#2E2E2E" d="M73.896 77.162h4.742V62.996h-4.742z"/><path d="M73.896 69.172h4.742v-6.176h-4.742v6.176zm0 7.99h4.742v-6.174h-4.742v6.174zm-1.81 1.817h8.362V61.182h-8.361V78.98z" fill="#FFF"/><path fill="#2E2E2E" d="M87.19 77.162h4.745V62.996H87.19z"/><path d="M87.19 69.172h4.745v-6.176H87.19v6.176zm0 7.99h4.745v-6.174H87.19v6.174zm-1.807 1.817h8.36V61.182h-8.36V78.98z" fill="#FFF"/><path fill="#2E2E2E" d="M27.583 77.162h4.744V62.996h-4.744z"/><path d="M27.583 69.172h4.744v-6.176h-4.744v6.176zm0 7.99h4.744v-6.174h-4.744v6.174zm-1.81 1.817h8.363V61.182h-8.362V78.98z" fill="#FFF"/><path fill="#2E2E2E" d="M40.88 77.162h4.741V62.996H40.88z"/><path d="M40.88 69.172h4.741v-6.176H40.88v6.176zm0 7.99h4.741v-6.174H40.88v6.174zm-1.81 1.817h8.36V61.182h-8.36V78.98z" fill="#FFF"/><path fill="#2E2E2E" d="M54.101 49.41h11.35V35.242h-11.35z"/><path d="M54.101 41.418h11.35v-6.176h-11.35v6.176zm0 7.992h11.35v-6.178h-11.35v6.178zm-1.808 1.812H67.26V33.43H52.293v17.792z" fill="#FFF"/><g transform="translate(12 .23)"><path d="M21.174 89.386c-2.988 0-5.418 2.44-5.418 5.438 0 3 2.43 5.44 5.418 5.44s5.418-2.44 5.418-5.44c0-2.998-2.43-5.438-5.418-5.438" fill="#2E2E2E"/><path d="M22.165 100.163v-4.345h4.327a5.433 5.433 0 0 1-4.327 4.345m-6.309-4.345h4.327v4.345a5.432 5.432 0 0 1-4.327-4.345m4.327-6.33v4.34h-4.327a5.43 5.43 0 0 1 4.327-4.34m6.31 4.34h-4.328v-4.34a5.43 5.43 0 0 1 4.327 4.34m-5.318-6.431c-4.08 0-7.4 3.332-7.4 7.426 0 4.096 3.32 7.43 7.4 7.43s7.4-3.334 7.4-7.43c0-4.094-3.32-7.426-7.4-7.426" fill="#FFF"/><path d="M74.345 89.386c-2.988 0-5.42 2.44-5.42 5.438 0 3 2.432 5.44 5.42 5.44 2.985 0 5.417-2.44 5.417-5.44 0-2.998-2.432-5.438-5.417-5.438" fill="#2E2E2E"/><path d="M75.336 100.163v-4.345h4.326a5.432 5.432 0 0 1-4.326 4.345m-6.31-4.345h4.328v4.345a5.432 5.432 0 0 1-4.328-4.345m4.328-6.33v4.34h-4.328a5.43 5.43 0 0 1 4.328-4.34m6.308 4.34h-4.326v-4.34a5.43 5.43 0 0 1 4.326 4.34m-5.317-6.431c-4.082 0-7.402 3.332-7.402 7.426 0 4.096 3.32 7.43 7.402 7.43 4.08 0 7.398-3.334 7.398-7.43 0-4.094-3.317-7.426-7.398-7.426" fill="#FFF"/><path fill="#2E2E2E" d="M76.14 53.861V26.566h-2.753v30.06H95.54V53.86zm-56.741 0V26.566h2.753v30.06H0V53.86z"/><g transform="translate(35.019 93.94)"><mask id="b" fill="#fff"><use xlink:href="#a"/></mask><path d="M20.917.094v20.469H4.572V.092A12.353 12.353 0 0 0 .42 9.337v16.118h24.648V9.337c0-3.68-1.61-6.977-4.15-9.243" fill="#5C647E" mask="url(#b)"/></g><mask id="d" fill="#fff"><use xlink:href="#c"/></mask><path fill="#2E2E2E" mask="url(#d)" d="M48.961 101.5h4.576v-8.192H48.96zm-6.971 0h4.576v-8.192h-4.575zm0 10.596h11.547v-8.19H41.99z"/><path d="M48.961 101.5h4.576v-8.192H48.96v8.191zm-6.971 10.596h11.547v-8.19H41.99v8.19zm0-10.597h4.575v-8.19H41.99v8.19zm5.773-10.595c-3.14 0-5.996 1.187-8.172 3.127v20.471h16.346V94.033c-2.178-1.94-5.032-3.129-8.174-3.129z" fill="#BFBFBF" mask="url(#d)"/><path fill="#454B5F" mask="url(#d)" d="M35.438 119.394h24.649v-4.892H35.438z"/><path fill="#5C647E" mask="url(#d)" d="M22.169 29.636h51.214v-3.07H22.17zm51.218 30.06h16.186v-3.07H73.387zm-67.705 0h16.185v-3.07H5.682z"/></g></g></svg>