<svg width="480" height="360" viewBox="0 0 480 360" xmlns="http://www.w3.org/2000/svg" xmlns:xlink="http://www.w3.org/1999/xlink"><defs><path id="a" d="M0 484h484V0H0z"/></defs><g fill="none" fill-rule="evenodd"><path fill="#B2DFF6" d="M0 484h484V0H0z"/><path fill="#40AC7D" d="M0 484h484V278H0z"/><path d="M400 76c9.913 0 18-5.84 18-13s-8.087-13-18-13-18 5.84-18 13 8.087 13 18 13" fill="#E7F4FB"/><path d="M415 80c7.71 0 14-4.492 14-10s-6.29-10-14-10-14 4.492-14 10 6.29 10 14 10m-31.5-1c6.885 0 12.5-4.043 12.5-9s-5.615-9-12.5-9-12.5 4.043-12.5 9 5.615 9 12.5 9" fill="#E7F4FB"/><path d="M394 83c4.957 0 9-2.92 9-6.5s-4.043-6.5-9-6.5-9 2.92-9 6.5 4.043 6.5 9 6.5M94 60c9.914 0 18-5.84 18-13s-8.086-13-18-13-18 5.84-18 13 8.086 13 18 13" fill="#E7F4FB"/><path d="M108.5 50c7.436 0 13.5-4.492 13.5-10s-6.064-10-13.5-10C101.065 30 95 34.492 95 40s6.065 10 13.5 10M77 49c6.61 0 12-4.043 12-9s-5.39-9-12-9-12 4.043-12 9 5.39 9 12 9" fill="#E7F4FB"/><path d="M92.5 41c6.334 0 11.5-3.818 11.5-8.5S98.834 24 92.5 24 81 27.818 81 32.5 86.166 41 92.5 41" fill="#E7F4FB"/><path d="M241.5 147c47.773 0 86.5 58.65 86.5 131H155c0-72.35 38.727-131 86.5-131" fill="#7DC5BB"/><path d="M155 229c39.628 0 126.865.26 166-22" stroke="#9ED9CA" stroke-width="6"/><path d="M297.828 123.23c-5.752-1.047-11.009 1.585-11.742 5.876-.734 4.292 3.334 8.619 9.085 9.665 5.752 1.046 11.01-1.585 11.744-5.877.733-4.292-3.335-8.619-9.087-9.665" fill="#E7F4FB"/><path d="M289.392 129.23c-6.026-1.047-11.534 1.584-12.302 5.876-.77 4.292 3.493 8.618 9.518 9.665 6.026 1.046 11.534-1.585 12.302-5.877.77-4.291-3.492-8.618-9.518-9.665m20.058 1.929c-4.11-.72-7.865 1.09-8.389 4.04-.524 2.95 2.382 5.925 6.49 6.644 4.108.72 7.864-1.09 8.388-4.04s-2.381-5.925-6.49-6.644" fill="#E7F4FB"/><path d="M299.012 136.172c-4.382-.785-8.387 1.189-8.947 4.408-.559 3.218 2.54 6.463 6.923 7.248 4.382.785 8.388-1.189 8.947-4.407.56-3.22-2.54-6.464-6.923-7.249" fill="#E7F4FB"/><mask id="b" fill="#fff"><use xlink:href="#a"/></mask><path fill="#67C2A6" mask="url(#b)" d="M118 278h249v-33H118z"/><path d="M97 111c43.63 0 79 74.768 79 167H18c0-92.232 35.37-167 79-167" fill="#67C2A6" mask="url(#b)"/><path d="M52.137 143c7.673 9.232 28.952 20.037 52.834 28.157 19.528 6.639 40.69 11.422 57.51 12.035A231.862 231.862 0 0 1 164 188c-17.604-.371-40.01-5.342-60.56-12.329-24.114-8.198-45.822-19.257-54.44-29.022.434-.722.873-1.431 1.315-2.134L52.137 143z" fill="#94D7C0" mask="url(#b)"/><path d="M387 111c43.63 0 79 74.768 79 167H308c0-92.232 35.37-167 79-167" fill="#67C2A6" mask="url(#b)"/><path d="M336.615 148.265c15.186.257 37.155-1.485 57.589-6.481 10.779-2.636 21.1-6.172 29.7-10.784a92.367 92.367 0 0 1 3.096 3.689c-9.177 5.05-20.186 8.868-31.655 11.673-21.967 5.372-45.735 7.056-61.345 6.554a143.53 143.53 0 0 1 2.615-4.651" fill="#94D7C0" mask="url(#b)"/><path fill="#BFECD9" mask="url(#b)" d="M0 251h484v-6H0z"/><path d="M123.5 231c12.426 0 22.5 16.118 22.5 36h-45c0-19.882 10.074-36 22.5-36" fill="#52AA83" mask="url(#b)"/><path d="M158.5 210c19.606 0 35.5 25.52 35.5 57h-71c0-31.48 15.894-57 35.5-57" fill="#52AA83" mask="url(#b)"/><path d="M203.5 234c12.426 0 22.5 16.118 22.5 36h-45c0-19.882 10.074-36 22.5-36" fill="#52AA83" mask="url(#b)"/><path d="M147 160h-3v5.681c1.061.408 2.067.442 3 0V160z" fill="#778E6D" mask="url(#b)"/><path d="M145.5 141c-3.521 4.86-3.974 5.477-5.528 8.278.59.165 1.18.303 1.773.417-1.54 2.196-2.257 3.385-3.562 5.738a29.84 29.84 0 0 0 2.355.553c-1.397 2.034-2.203 3.393-3.538 5.8 5.556 1.542 11.211 1.693 17 0-1.434-2.613-2.02-3.75-3.426-5.802a26.188 26.188 0 0 0 2.243-.551c-1.398-2.547-1.86-3.465-3.47-5.74a20.17 20.17 0 0 0 1.681-.415c-1.617-2.946-1.576-3.008-5.528-8.278" fill="#98D592" mask="url(#b)"/><path d="M144.542 143c-1.453 3.899-1.638 4.394-2.354 6.642.13.131.265-.046.403.045-.643 1.762-.962 3.006-1.563 4.892.174.175.353-.006.536.115-.588 1.632-.949 3.052-1.564 4.983 1.357.265 2.755.57 4.324 0-.066-2.096-.085-3.34-.208-4.985.207-.119.419.064.634-.113-.064-2.042-.035-3.068-.184-4.893.155-.09.272.088.434-.044-.074-2.363-.057-2.414-.458-6.642" fill="#A2DAA6" mask="url(#b)"/><path d="M0 63c67.794 24.143 118 111.24 118 215H0V63z" fill="#55BE90" mask="url(#b)"/><path d="M0 187.76c16.564-2.489 34.08-7.017 49.82-12.796C66.902 168.692 81.774 161.02 90.83 153a241.483 241.483 0 0 1 3.17 6.723c-9.955 8.182-24.847 15.792-41.643 21.96C35.85 187.742 17.407 192.468 0 195v-7.24z" fill="#94DABC" mask="url(#b)"/><path d="M337 204c-12.702 0-23 18.356-23 41h46c0-22.644-10.298-41-23-41" fill="#46B183" mask="url(#b)"/><path d="M303 215c-9.389 0-17 13.431-17 30h34c0-16.569-7.61-30-17-30" fill="#46B183" mask="url(#b)"/><path d="M281.5 226c-5.8 0-10.5 8.507-10.5 19h21c0-10.493-4.7-19-10.5-19m129-19c-11.874 0-21.5 17.013-21.5 38h43c0-20.987-9.626-38-21.5-38" fill="#46B183" mask="url(#b)"/><path d="M379.5 211c-9.665 0-17.5 14.327-17.5 32h35c0-17.673-7.835-32-17.5-32" fill="#46B183" mask="url(#b)"/><path d="M359 227c-5.523 0-10 8.06-10 18h20c0-9.94-4.477-18-10-18" fill="#46B183" mask="url(#b)"/><path d="M378 191c-3.314 0-6 4.925-6 11h12c0-6.075-2.687-11-6-11" fill="#5DB795" mask="url(#b)"/><path d="M368.5 194c-2.485 0-4.5 3.581-4.5 8h9c0-4.419-2.014-8-4.5-8" fill="#5DB795" mask="url(#b)"/><path d="M363 197c-1.657 0-3 2.239-3 5h6c0-2.761-1.343-5-3-5" fill="#5DB795" mask="url(#b)"/><path d="M484 63c-67.794 24.143-118 111.24-118 215h118V63z" fill="#55BE90" mask="url(#b)"/><path d="M375.795 203c13.557 9.292 34.267 17.862 63.548 23.032 13.142 2.322 27.988 3.951 44.657 4.648V238c-17.13-.703-32.39-2.373-45.903-4.76-28.796-5.085-49.774-13.453-64.097-22.683.568-2.54 1.166-5.058 1.795-7.557" fill="#94DABC" mask="url(#b)"/><path fill="#C07D5D" mask="url(#b)" d="M317 213h4v-11h-4z"/><path fill="#C9C071" mask="url(#b)" d="M314 245h29v-19h-29z"/><path fill="#C07D5D" mask="url(#b)" d="M314 226h29v-15h-29zm10 19h7v-15h-7z"/><path fill="#C9C071" mask="url(#b)" d="M327.5 214l-9.088 7.789L317 223h21z"/><path fill="#CEE3D3" mask="url(#b)" d="M328.5 216l-7.5 6h15z"/><path stroke="#EFECD6" stroke-width="1.2" mask="url(#b)" d="M328.5 216l-7.5 6h15z"/><path fill="#CEE3D3" mask="url(#b)" d="M316 238h6v-8h-6z"/><path stroke="#EFECD6" stroke-width="1.2" mask="url(#b)" d="M316 238h6v-8h-6z"/><path fill="#CEE3D3" mask="url(#b)" d="M334 238h6v-8h-6z"/><path stroke="#EFECD6" stroke-width="1.2" mask="url(#b)" d="M334 238h6v-8h-6z"/><path d="M315 227c.551 0 1-.45 1-1 0-.551-.449-1-1-1-.551 0-1 .449-1 1 0 .55.449 1 1 1m2 0c.551 0 1-.45 1-1 0-.551-.449-1-1-1-.55 0-1 .449-1 1 0 .55.45 1 1 1m2 0c.551 0 1-.45 1-1 0-.551-.449-1-1-1-.55 0-1 .449-1 1 0 .55.45 1 1 1m2 0c.55 0 1-.45 1-1 0-.551-.45-1-1-1-.551 0-1 .449-1 1 0 .55.449 1 1 1m2 0c.55 0 1-.45 1-1 0-.551-.45-1-1-1-.551 0-1 .449-1 1 0 .55.449 1 1 1m2 0c.55 0 1-.45 1-1 0-.551-.45-1-1-1-.551 0-1 .449-1 1 0 .55.449 1 1 1m2 0c.55 0 1-.45 1-1 0-.551-.45-1-1-1-.551 0-1 .449-1 1 0 .55.449 1 1 1m2 0c.55 0 1-.45 1-1 0-.551-.45-1-1-1s-1 .449-1 1c0 .55.45 1 1 1m2 0c.551 0 1-.45 1-1 0-.551-.449-1-1-1-.55 0-1 .449-1 1 0 .55.45 1 1 1m2 0c.55 0 1-.45 1-1 0-.551-.45-1-1-1-.551 0-1 .449-1 1 0 .55.449 1 1 1m2 0c.55 0 1-.45 1-1 0-.551-.45-1-1-1-.551 0-1 .449-1 1 0 .55.449 1 1 1m2 0c.551 0 1-.45 1-1 0-.551-.449-1-1-1-.551 0-1 .449-1 1 0 .55.449 1 1 1m2 0c.551 0 1-.45 1-1 0-.551-.449-1-1-1-.551 0-1 .449-1 1 0 .55.449 1 1 1m2 0c.551 0 1-.45 1-1 0-.551-.449-1-1-1-.551 0-1 .449-1 1 0 .55.449 1 1 1" fill="#C07D5D" mask="url(#b)"/><path fill="#BFECD9" mask="url(#b)" d="M0 278h484v-11H0z"/><path d="M111 125c-3.313 0-6 4.925-6 11h12c0-6.075-2.687-11-6-11" fill="#5DB795" mask="url(#b)"/><path d="M101.5 128c-2.485 0-4.5 3.581-4.5 8h9c0-4.419-2.015-8-4.5-8" fill="#5DB795" mask="url(#b)"/><path d="M96 131c-1.657 0-3 2.239-3 5h6c0-2.761-1.343-5-3-5" fill="#5DB795" mask="url(#b)"/><path d="M55.5 192c-4.694 0-8.5 5.82-8.5 13h17c0-7.18-3.806-13-8.5-13" fill="#52AA83" mask="url(#b)"/><path d="M43 184c-7.18 0-13 9.402-13 21h26c0-11.598-5.82-21-13-21" fill="#52AA83" mask="url(#b)"/><path d="M26.5 192c-4.694 0-8.5 5.82-8.5 13h17c0-7.18-3.806-13-8.5-13" fill="#52AA83" mask="url(#b)"/><path d="M238 150h-2v2.84c.708.204 1.378.222 2 0V150z" fill="#91A085" mask="url(#b)"/><path d="M199 174c1.657 0 3 2.239 3 5h-6c0-2.761 1.343-5 3-5" fill="#5EB89A" mask="url(#b)"/><path d="M202.5 172c2.485 0 4.5 3.134 4.5 7h-9c0-3.866 2.014-7 4.5-7" fill="#5EB89A" mask="url(#b)"/><path d="M209 174c1.657 0 3 2.239 3 5h-6c0-2.761 1.343-5 3-5" fill="#5EB89A" mask="url(#b)"/><path d="M208 176h-1v6.628c.354.476.689.516 1 0V176z" fill="#91A085" mask="url(#b)"/><path d="M203.012 172.501c-1.043-.778-1.33-2.192-.623-3.294.761-1.188 2.391-1.563 3.639-.837a2.55 2.55 0 0 1 1.007 1.061 3.338 3.338 0 0 1 3.433-.058c1.455.847 1.95 2.623 1.154 4.036.364.74.343 1.634-.138 2.384-.762 1.188-2.392 1.563-3.64.837a2.65 2.65 0 0 1-.262-.174 3.336 3.336 0 0 1-3.39.03c-1.438-.836-1.937-2.58-1.18-3.985" fill="#A5D69C" mask="url(#b)"/><path d="M203.641 171.554c-.637-.42-.834-1.21-.432-1.84.433-.68 1.4-.915 2.158-.527.276.141.486.345.621.58a2.1 2.1 0 0 1 2.05-.085c.884.453 1.21 1.442.761 2.249.231.41.235.912-.038 1.34-.433.68-1.4.915-2.159.527a1.766 1.766 0 0 1-.16-.094 2.102 2.102 0 0 1-2.023.07c-.874-.447-1.203-1.419-.778-2.22" fill="#ADDBB0" mask="url(#b)"/><path d="M245.5 151c-1.38 0-2.5 1.79-2.5 4h5c0-2.21-1.12-4-2.5-4" fill="#5EB89A" mask="url(#b)"/><path d="M242 149c-2.21 0-4 2.687-4 6h8c0-3.313-1.791-6-4-6" fill="#5EB89A" mask="url(#b)"/><path d="M236.5 151c-1.38 0-2.5 1.79-2.5 4h5c0-2.21-1.12-4-2.5-4" fill="#5EB89A" mask="url(#b)"/><path d="M368 138c2.209 0 4 2.686 4 6h-8c0-3.314 1.79-6 4-6" fill="#5DB795" mask="url(#b)"/></g></svg>