<svg xmlns="http://www.w3.org/2000/svg" width="103.644" height="156.092" viewBox="0.085 -0.465 103.644 156.092"><defs><style/></defs><g id="ID0.1114896503277123" transform="matrix(.95 0 0 .95 -.3 .05)"><g id="Back_Foot_1_"><path id="ID0.6249615093693137" fill="#F7941E" d="M101.78 182.414c-.241 0-.485-.018-.73-.055-2.838-.427-5.268-2.378-7.269-4.229-4.534-4.199-6.72-9.166-6.497-14.761l.059-1.457 1.939.021c2.604 0 4.896-.246 7.007-.751l.911-.218.596.724c1.146 1.39 4.343 1.39 5.545 1.39a35.444 35.444 0 0 0 3.255-.137c.905-.067 1.845-.139 2.8-.139l.146.001c2.828.017 4.279.939 4.377 2.749a2.072 2.072 0 0 1-.566 1.544c-.614.647-1.573.873-2.611.941a3.866 3.866 0 0 1 1.905 3.527c-.09 1.766-1.479 3.553-3.963 3.553-.315 0-.646-.029-.979-.088-1.561-.273-3.142-.978-4.833-2.15-.056.055-.108.146-.108.198a14.717 14.717 0 0 1 2.645 3.166c.834 1.34.921 2.81.239 4.035-.736 1.318-2.215 2.136-3.868 2.136z" transform="translate(1.95 3.85) scale(.77185)"/><path id="ID0.13570731366053224" d="M96.638 162.64c1.434 1.741 4.376 1.937 6.702 1.937.292 0 .573-.003.843-.007 1.741-.016 3.468-.269 5.212-.269l.135.001c.881.006 2.818-.018 2.891 1.329.048.854-1.552.936-2.682.936-.266 0-.504-.005-.69-.005-.121 0-.223.002-.291.009-1.195.112-1.672.919-1.396 1.564-.109.01-.213.023-.305.041h.025c.104 0 .208.015.312.021.188.368.626.672 1.328.744 3.292.335 3.193 4.675-.04 4.675a4.34 4.34 0 0 1-.721-.064c-1.565-.275-3.003-1.044-4.288-1.941a1.385 1.385 0 0 0-.799-.264c-1.23 0-2.237 1.761-1.15 2.775a14.382 14.382 0 0 1 2.411 2.918c1.315 2.112-.372 3.873-2.354 3.873-.167 0-.336-.013-.505-.038-2.495-.375-4.695-2.199-6.477-3.848-4.041-3.743-6.229-8.238-6.017-13.6l.499.003c2.554.002 5.002-.227 7.357-.79m1.125-3.353l-1.823.437c-1.996.478-4.174.71-6.657.71l-.465-.003-2.916-.033-.116 2.914c-.241 6.052 2.105 11.408 6.977 15.92 2.171 2.008 4.824 4.126 8.067 4.613.312.047.632.07.951.07 2.197 0 4.181-1.113 5.176-2.906.78-1.405.854-3.017.238-4.548.082.018.165.032.248.048.42.072.837.109 1.239.109 3.018 0 5.313-2.093 5.461-4.977a5.272 5.272 0 0 0-.627-2.795 3.87 3.87 0 0 0 .924-.721 3.55 3.55 0 0 0 .976-2.659c-.065-1.239-.766-4.136-5.803-4.164h-.063l-.153-.001c-1.013 0-1.979.072-2.912.144a35.267 35.267 0 0 1-3.14.132c-3.214 0-4.129-.527-4.389-.844l-1.193-1.446z" transform="translate(1.95 3.85) scale(.77185)"/></g><g id="Front_Foot_2_"><path id="ID0.06999378418549895" fill="#F7941E" d="M80.534 205.683a5.73 5.73 0 0 1-2.239-.461c-3.221-1.374-5.436-4.326-7.351-7.312-4.135-6.456-5.213-13.096-3.205-19.733l.422-1.396 1.407.383c3.437.935 6.532 1.415 9.463 1.473l.938.019.395.851c1.076 2.315 5.313 3.356 7.59 3.917.989.247 1.98.427 3.031.616 1.176.213 2.394.434 3.602.756 1.251.334 4.801 1.279 4.188 4.285-.089.438-.55 1.878-2.734 1.878-1.079 0-2.346-.342-3.183-.566-.243-.065-.438-.121-.558-.144l-.028-.004c2.668.991 3.524 3.315 3.189 5.18-.375 2.088-2.129 3.546-4.266 3.546-.795 0-1.622-.193-2.458-.574-1.783-.814-3.462-2.16-5.134-4.115-.088-.103-.137-.103-.172-.103-.179 0-.459.165-.595.409-.099.18-.057.272 0 .361a19.829 19.829 0 0 1 2.181 4.672c.487 1.562.292 3.051-.553 4.199-.855 1.166-2.325 1.863-3.93 1.863z" transform="translate(1.95 3.85) scale(.77185)"/><path id="ID0.22005585068836808" d="M69.175 178.611c3.323.903 6.582 1.462 9.828 1.524 1.349 2.899 5.646 4.018 8.593 4.741 2.184.547 4.426.783 6.604 1.365 1.072.287 3.443.873 3.104 2.536-.104.508-.611.678-1.266.678-1.236 0-2.993-.607-3.5-.689a3.195 3.195 0 0 0-.508-.043c-1.172 0-1.807.737-1.691 1.508a5.235 5.235 0 0 0-.386-.047c.136.032.271.089.406.136.114.508.552 1.019 1.384 1.327 3.566 1.324 2.637 5.82-.549 5.82-.549 0-1.165-.135-1.836-.439-1.822-.832-3.332-2.224-4.615-3.725-.379-.442-.846-.628-1.312-.628-1.387 0-2.771 1.638-1.861 3.073a18.151 18.151 0 0 1 2.017 4.322c.803 2.562-1.001 4.111-3.053 4.111-.546 0-1.11-.109-1.647-.34-2.925-1.247-5.029-4.17-6.68-6.742-3.743-5.843-4.988-12.018-3.032-18.488m-2.026-3.66l-.844 2.792c-2.142 7.077-1.005 14.135 3.377 20.978 1.945 3.036 4.423 6.346 8.027 7.884.898.385 1.851.58 2.825.58 2.079 0 4.001-.926 5.14-2.479 1.136-1.543 1.41-3.507.775-5.529-.045-.143-.09-.282-.138-.422.59.39 1.188.724 1.802 1.003 1.035.472 2.07.711 3.082.711 2.875 0 5.236-1.967 5.742-4.78a5.867 5.867 0 0 0-.334-3.256c2.258-.211 3.36-1.678 3.641-3.059.333-1.635.104-4.597-5.188-6.007l-.082-.021c-1.271-.34-2.519-.565-3.725-.784-1.023-.186-1.993-.36-2.929-.594-1.898-.468-5.826-1.434-6.599-3.097l-.79-1.698-1.873-.036c-2.808-.056-5.783-.52-9.1-1.42l-2.809-.766z" transform="translate(1.95 3.85) scale(.77185)"/></g><g id="Wing_Back_1_"><path id="ID0.6576538775116205" fill="#0062A3" d="M97.274 102.511c-.22 0-.438-.006-.655-.02l-.587-.031-12.288-25.33 1.941.357c.962.177 1.936.266 2.893.266 6.43 0 11.898-3.933 17.689-8.096 6.165-4.433 12.54-9.016 20.529-9.016.883 0 1.78.058 2.668.17 2.677.341 4.203 1.211 4.667 2.661.922 2.883-3.162 6.655-6.766 9.982-1.082 1-2.104 1.944-2.79 2.692-4.122 5.075-7.353 10.084-11.215 16.507-2.913 4.845-9.728 9.858-16.086 9.858.001 0 .001 0 0 0z" transform="translate(1.95 3.85) scale(.77185)"/><path id="ID0.9325869199819863" d="M126.797 61.64c.829 0 1.678.053 2.542.163 10.008 1.273-1.834 9.667-5.5 13.667-4.334 5.334-7.688 10.606-11.334 16.667-2.859 4.754-9.38 9.374-15.231 9.374-.2 0-.4-.006-.601-.018L85.505 78.47c1.05.193 2.072.283 3.072.283 13.797 0 23.204-17.113 38.22-17.113m0-2c-8.312 0-14.819 4.679-21.112 9.204-5.657 4.067-10.999 7.908-17.106 7.908-.896 0-1.81-.084-2.711-.25l-3.886-.713 1.725 3.554 11.168 23.023.514 1.06 1.175.065c.236.013.475.02.712.02 6.966 0 13.93-5.329 16.945-10.343 3.828-6.365 7.028-11.331 11.134-16.389.657-.711 1.646-1.625 2.692-2.59 4.01-3.703 8.155-7.532 7.039-11.022-.883-2.762-4.354-3.203-5.493-3.348a22.126 22.126 0 0 0-2.796-.179z" transform="translate(1.95 3.85) scale(.77185)"/></g><g id="Body_2_"><g id="Body_3_"><path id="ID0.8946978682652116" fill="#0062A3" d="M63.385 182.539c-6.535 0-13.475-1.287-20.187-2.532-.188-.035-.447-.095-.821-.179-.445-.103-1.068-.244-1.833-.408-5.451-1.17-10.642-1.787-15.009-1.787-1.012 0-1.996.033-2.926.098-.021.002-1.561.086-2.189.086-11.585 0-20.758-13.557-20.92-25.22l.004-.136c.585-7.608 4.974-9.709 8.846-11.561 3.38-1.617 6.299-3.015 7.173-7.921.584-3.282.771-7.13.97-11.202.248-5.093.504-10.357 1.528-15.65.81-4.176 1.806-7.829 2.959-12.061 1.928-7.07 4.112-15.084 6.338-28.759.846-5.193-1.572-9.992-4.133-15.071-3.2-6.348-6.826-13.542-4.554-22.741 6.384-30.182 43.79-30.53 45.379-30.53.731 0 1.291.028 1.662.083 2.722.395 5.744 1.72 7.034 2.287.183.08.327.144.428.185 5.393 2.237 10.454 7.085 12.991 9.776 1.492 1.582 2.541 2.867 2.81 3.274.45.686.908 1.451 1.4 2.34.019.027.063.103.107.182l.279.527c.54 1.026.991 1.963 1.379 2.868.051.119.098.244.136.371.244.571.483 1.146.721 1.723l.076.185.023.199c.648 5.223-.474 14.456-2.266 18.639-1.714 4.004-3.889 6.528-5.806 8.756-6.524 7.577-10.464 12.15 23.613 74.291a40.295 40.295 0 0 1 3.101 7.223l.028.104c1.675 7.104 1.002 14.229-2.002 21.177-2.852 6.598-7.812 12.973-14.742 18.947-13.288 11.447-24.279 12.338-27.333 12.338-.398 0-.696-.015-.89-.025a46.409 46.409 0 0 1-3.374.124z" transform="translate(1.95 3.85) scale(.77185)"/><path id="ID0.13931147987022996" d="M64.01-1.536c.453 0 1.072.012 1.443.066 2.919.424 6.313 2.047 7.108 2.375 4.896 2.03 9.631 6.406 12.472 9.418 1.479 1.567 2.451 2.772 2.647 3.07.428.651.866 1.384 1.341 2.242.039.063.076.124.111.187l.263.497c.521.989.954 1.891 1.326 2.758.041.095.074.193.104.292.252.589.5 1.183.743 1.779.631 5.074-.5 13.997-2.155 17.864-7.76 18.133-25.848 4.635 17.872 84.358a38.384 38.384 0 0 1 2.983 6.951c1.602 6.787.967 13.562-1.919 20.235-2.763 6.394-7.59 12.584-14.345 18.407-12.895 11.107-23.431 11.973-26.354 11.973h-.002c-.435 0-.735-.018-.894-.029a43.375 43.375 0 0 1-3.371.129c-6.417 0-13.31-1.281-19.975-2.519-.27-.05-1.188-.274-2.553-.567-3.311-.709-9.295-1.819-15.322-1.819-1.013 0-2.026.032-3.029.103 0 0-1.48.082-2.086.082-10.714 0-19.268-12.65-19.42-23.74 1-13 13.904-7.562 16-19.334 1.32-7.426.651-17.313 2.495-26.83 2.131-10.997 5.725-18.873 9.305-40.863 2.03-12.472-12.636-21.805-8.711-37.694C26.234-1.201 62.47-1.536 64.01-1.536m0-3c-1.638 0-40.175.358-46.847 31.72-2.38 9.713 1.372 17.157 4.683 23.726 2.554 5.067 4.759 9.442 3.992 14.155-2.214 13.597-4.387 21.57-6.305 28.604-1.162 4.26-2.165 7.939-2.984 12.17-1.045 5.399-1.316 10.958-1.555 15.862-.196 4.023-.382 7.824-.948 11.014-.738 4.148-3.089 5.271-6.343 6.828-3.816 1.826-9.042 4.326-9.694 12.8l-.01.136.002.137c.174 12.604 9.799 26.699 22.419 26.699.669 0 2.092-.078 2.252-.088a41.886 41.886 0 0 1 2.863-.097c4.264 0 9.345.606 14.693 1.754.757.162 1.374.303 1.814.403.402.093.683.154.819.18l.062.012c6.779 1.258 13.788 2.559 20.461 2.559 1.136 0 2.274-.041 3.388-.123.271.016.565.022.876.022 3.186 0 14.636-.916 28.314-12.7 7.104-6.123 12.198-12.682 15.141-19.488 3.135-7.25 3.836-14.689 2.085-22.115l-.024-.107-.033-.104a41.66 41.66 0 0 0-3.215-7.491C93.717 92.393 85.376 74.56 82.871 64.107c-2.062-8.599-.062-10.921 3.252-14.768 1.89-2.195 4.242-4.927 6.047-9.145 1.907-4.452 3.062-13.887 2.376-19.414l-.05-.397-.151-.37c-.229-.562-.464-1.123-.7-1.678a4.968 4.968 0 0 0-.17-.449 40.562 40.562 0 0 0-1.425-2.963l-.265-.501-.017-.03-.018-.03a5.218 5.218 0 0 0-.14-.236 36.864 36.864 0 0 0-1.425-2.376c-.358-.546-1.495-1.915-2.974-3.482C84.592 5.49 79.355.479 73.707-1.863c-.101-.041-.233-.101-.403-.175-1.346-.59-4.498-1.973-7.424-2.396-.155-.028-.658-.102-1.87-.102z" transform="translate(1.95 3.85) scale(.77185)"/></g><path id="Belly_1_" fill="#FFF" d="M63.385 181.039c1.165 0 2.298-.047 3.371-.129.158.012.458.029.894.029h.002c2.924 0 13.46-.865 26.354-11.974 6.755-5.823 11.582-12.015 14.345-18.407 2.886-6.674 3.521-13.447 1.919-20.236a38.51 38.51 0 0 0-2.983-6.949c-43.722-79.725-25.633-66.228-17.875-84.36 1.655-3.867 2.786-12.79 2.155-17.864a112.61 112.61 0 0 0-.743-1.779 2.207 2.207 0 0 0-.104-.292 38.302 38.302 0 0 0-1.326-2.758l-.263-.497c-.035-.063-.072-.123-.111-.187a34.953 34.953 0 0 0-1.341-2.242c-.196-.298-1.17-1.503-2.647-3.07C73.301-.091 51.079-5.691 47.528 27.357c-2.059 19.166 30.106 59.239 10.357 71.759-7.609 4.824-23.479 19.463-23.479 34.686 0 15.221 7.229 32.691 6.54 43.055-.025.385-.057.743-.089 1.096 1.364.291 2.283.518 2.553.566 6.665 1.237 13.558 2.52 19.975 2.52z" transform="translate(1.95 3.85) scale(.77185)"/></g><path id="Wing_Front_1_" fill="#0062A3" stroke="#000" stroke-width="2.316" stroke-linecap="round" stroke-linejoin="round" d="M40.43 74.286s-8.847 16.82-4.708 31.566c4.14 14.744 10.402 23.984 19.141 11.043 11.233-16.634 2.507-42.04-5.124-56.98"/><g id="Beak_1_"><path id="ID0.6922540375962853" fill="#F7941E" d="M87.45 65.327c-6.887 0-17.827-3.946-20.591-12.719-2.155-6.834 2.99-14.024 7.688-18.852l.853-.883c3.002-3.119 6.105-6.345 9.77-6.683.368-.034.73-.05 1.092-.05 4.005 0 7.418 1.964 10.719 3.863 2.423 1.396 4.712 2.711 7.003 3.1 1.984.337 3.844.408 5.482.469 3.921.147 7.625.287 9.085 4.581.473 1.391.284 3.029-.53 4.613-1.523 2.961-5.041 5.4-9.903 6.865-2.367.713-5.454 1.105-8.692 1.105h-.002c-5.764 0-11.298-1.203-15.582-3.387a.507.507 0 0 0-.087-.034 2.6 2.6 0 0 0 .154.593c1.89 5.068 6.801 6.528 10.745 7.701 2.9.862 5.191 1.543 5.748 3.586.242.891.107 1.759-.39 2.51-1.388 2.097-5.124 2.749-10.667 3.505l-.217.03c-.566.061-1.113.087-1.678.087z" transform="translate(1.95 3.85) scale(.77185)"/><path id="ID0.7753897323273122" d="M86.26 27.641c6.464 0 11.695 5.962 17.471 6.942 6.83 1.161 11.776-.716 13.398 4.054.847 2.491-1.255 7.09-9.447 9.559-2.139.644-5.051 1.041-8.262 1.041-4.836 0-10.349-.902-14.901-3.223a1.983 1.983 0 0 0-.892-.217c-.961 0-1.826.763-1.127 2.637 3.453 9.26 15.559 7.875 16.452 11.157.744 2.737-5.153 3.499-10.029 4.165-.466.047-.958.071-1.473.071-6.566 0-16.703-3.872-19.159-11.669-1.787-5.666 2.205-12.086 7.331-17.355 3.074-3.162 6.259-6.802 9.684-7.118.321-.03.639-.044.954-.044m0-3c-.409 0-.823.019-1.229.057-4.221.389-7.521 3.819-10.713 7.136-.282.295-.564.588-.847.878-7.144 7.343-9.924 14.379-8.042 20.349 2.99 9.496 14.677 13.767 22.021 13.767.614 0 1.214-.029 1.776-.087l.051-.005.052-.007.217-.029c5.949-.812 9.979-1.54 11.715-4.164.732-1.106.94-2.432.586-3.732-.775-2.849-3.687-3.714-6.768-4.63-2.761-.82-5.786-1.72-7.866-3.808 3.691 1.22 7.893 1.873 12.207 1.873 3.383 0 6.623-.415 9.127-1.168 6.737-2.031 9.595-5.262 10.806-7.615 1.002-1.949 1.223-4.002.617-5.782-1.793-5.271-6.392-5.445-10.449-5.598-1.672-.063-3.399-.128-5.287-.449-2.026-.344-4.202-1.596-6.507-2.922-3.311-1.905-7.062-4.064-11.467-4.064z" transform="translate(1.95 3.85) scale(.77185)"/></g><path id="Eye_1_" d="M66.847 17.512c1.046 0 1.994.545 2.68 1.426.686.88 1.111 2.096 1.111 3.438s-.425 2.558-1.111 3.438c-.686.881-1.634 1.426-2.68 1.426-1.046 0-1.994-.545-2.68-1.426-.686-.88-1.111-2.096-1.111-3.438s.425-2.558 1.111-3.438c.686-.881 1.634-1.426 2.68-1.426z" transform="translate(1.95 3.85) scale(.77185)"/></g></svg>