<svg width="120" height="120" viewBox="0 0 120 120" xmlns="http://www.w3.org/2000/svg"><g fill="none" fill-rule="evenodd" opacity=".2"><path d="M76.388 90.657c.971-2.904 3.384-5.017 5.386-7.06 1.73-1.764 2.642-4.233 3.544-6.568 2.412-6.251 4.146-12.527 5.077-19.243.29-2.099.505-4.205.67-6.312 1.5-3.519 3.28-6.843 4.646-10.446 1.772-4.677 3.234-9.479 4.852-14.22.335-.984-1.106-1.404-1.437-.432-1.405 4.117-2.695 8.277-4.162 12.37-1.045 2.919-2.355 5.66-3.634 8.43.425-9.248.001-18.558-.012-27.8-.002-1.046-1.493-1.046-1.49 0 .015 10.586.525 21.219-.255 31.773a.898.898 0 0 0-.035.438c-.174 2.24-.402 4.48-.712 6.713-.917 6.624-2.794 12.847-5.219 18.983-1.224 3.1-2.879 5.108-5.101 7.375a17.12 17.12 0 0 0-1.725 2.077c.884-6.725 1.767-13.447 2.384-20.174 1.746-19.014 2.569-38.126 2.585-57.234 0-1.046-1.489-1.046-1.49 0a644.007 644.007 0 0 1-2.585 57.234c-1.246 13.85-3.653 27.66-4.87 41.54a108.51 108.51 0 0 0-3.145-13.444 112.566 112.566 0 0 0-2.264-6.69c.489-3.863.953-7.728 1.335-11.597 1.662-16.874 2.568-33.84 2.588-50.81.002-1.048-1.489-1.048-1.49 0-.02 16.627-.917 33.232-2.489 49.769-.306 3.237-.676 6.47-1.07 9.704-2.407-6.074-5.19-12.002-7.906-17.87a.84.84 0 0 0 .141-.315c.921-3.894 1.45-8.251 1.907-12.249.645-5.67.503-11.553.304-17.252-.384-10.914-2-21.785-4.86-32.255-.273-1-1.711-.573-1.436.433 2.83 10.363 4.356 21.028 4.805 31.822.211 5.093.129 10.197-.137 15.284-.137 2.62-.7 5.183-1.124 7.76-.246 1.502-.37 3.064-.613 4.58C48.566 45.983 39.276 26.7 37.045 5.268c-.107-1.028-1.598-1.039-1.49 0 1.563 15.006 6.5 28.979 12.339 42.522-12.31.54-20.642-14.116-23.83-25.384-.28-.996-1.72-.57-1.436.433 3.404 12.033 12.38 27.399 25.556 26.567a.709.709 0 0 0 .359-.122c2.11 4.833 4.324 9.613 6.53 14.369 3.758 8.101 7.617 16.232 10.79 24.645-1.323 10.448-2.805 20.895-3.308 31.408.497 0 .993.002 1.489.004.455-9.5 1.712-18.95 2.925-28.391.238.671.47 1.342.697 2.015 2.368 7.044 3.894 14.486 4.627 21.989a174.612 174.612 0 0 0-.172 4.49c.666.016 1.334.03 2 .05a105.18 105.18 0 0 0-.344-4.465c.052-.987.112-1.97.178-2.954 2.764-7.495 8.626-12.993 12.656-19.652 4.56-7.534 7.266-16.173 10.31-24.503.354-.973-1.086-1.391-1.437-.43-3.127 8.557-5.983 17.21-10.664 24.947-3.237 5.351-7.559 9.815-10.524 15.294.498-5.727 1.195-11.445 1.935-17.16a.838.838 0 0 0 .157-.284" fill="#3D522A"/><path d="M53.291 97.255c.947-2.616.931-5.2.956-8.019.03-3.653-.068-7.257-.84-10.824-1.488-6.898-5.59-13.002-8.223-19.404-.393-.955-1.676-.128-1.288.819 2.379 5.785 5.534 11.153 7.543 17.121 1.008 2.997 1.245 6.178 1.316 9.341.06 2.714.264 5.72-.282 8.449-1.966-5.738-4.492-11.165-7.312-16.65-2.986-5.8-6.096-11.497-9.144-17.256-1.787-3.377-4.618-8.224-5.327-12.792a4.272 4.272 0 0 1-1.478-.262c.5 3.413 2.121 6.869 3.402 9.639 2.614 5.653 5.888 10.914 8.68 16.46 2.166 4.308 4.43 8.555 6.445 12.92-1.209-.43-2.562-.581-3.719-1.017-2.91-1.1-4.734-3.21-6.767-5.609-4.632-5.466-8.92-11.284-12.6-17.556-.517-.88-1.807-.065-1.288.82 3.753 6.395 8.139 12.284 12.833 17.884 1.82 2.17 3.483 4.114 5.953 5.381 1.913.982 4.634.951 6.318 2.277a.678.678 0 0 0 .309.143c1.133 2.607 2.16 5.261 3.007 8.008a.908.908 0 0 0 .217.707c.34 1.15.649 2.313.92 3.497 1.383 6.063 2.66 12.218 3.443 18.43l1.485-.023c-.682-5.427-1.735-10.805-2.886-16.122a76.895 76.895 0 0 0-1.673-6.362" fill="#3D522A"/><path d="M29.381 21.375c-.479-1.341-2.28-2.272-3.515-2.096.423-.721.383-3.132-.376-3.475-1.747-.788-2.365 1.672-2.39 3.039-.92-3.364-3.8-2.944-2.927.732-1.06.294-1.825 1.425-1.217 2.614.45.883 1.166.781 1.913.78-.31 1.768 1.591 5.474 2.948 2.485-.124.275 4.84 1.942 2.712-2.448 1.158.51 3.739.85 2.852-1.631" fill="#5E763F"/><path d="M43.29 19.925c.763.066.714-3.435.177-3.933-1.464-1.358-3.407.628-3.841 2.076-.497-4.443-5.073-3.21-3.705.685-.717-2.038-5.037 2.193-1.357 3.631-.168.258-.273.585-.301 1.025-.048.695.111 1.56.473 2.151.891 1.45 2.65.448 2.74-1.095-.229 3.975 3.41 4.113 3.333.028 3.495 2.688 5.63-2.197 2.481-4.568" fill="#7C9A59"/><path d="M28.056 62.13c.764.065.713-3.434.178-3.933-1.464-1.358-3.407.627-3.84 2.075-.499-4.443-5.075-3.209-3.707.685-.716-2.039-5.035 2.194-1.357 3.631-.166.26-.273.586-.302 1.025-.047.695.113 1.562.474 2.151.892 1.45 2.65.448 2.74-1.094-.229 3.975 3.41 4.113 3.334.027 3.494 2.69 5.629-2.195 2.48-4.566" fill="#5E763F"/><path d="M64.155 35.077c.762.064.711-3.435.174-3.933-1.462-1.36-3.406.626-3.839 2.073-.497-4.442-5.074-3.208-3.706.686-.717-2.038-5.035 2.194-1.357 3.631-.166.258-.273.586-.302 1.024-.047.695.112 1.561.475 2.152.89 1.45 2.649.448 2.738-1.094-.228 3.974 3.412 4.113 3.334.026 3.495 2.69 5.63-2.196 2.483-4.565M49.252 58.522c.763.065.711-3.434.175-3.932-1.462-1.359-3.406.626-3.84 2.075-.496-4.443-5.072-3.21-3.705.686-.717-2.04-5.036 2.192-1.357 3.631-.167.257-.272.584-.302 1.024-.047.694.112 1.561.474 2.152.891 1.449 2.65.447 2.738-1.097-.228 3.977 3.413 4.114 3.335.029 3.494 2.69 5.63-2.196 2.482-4.568" fill="#7C9A59"/><path d="M35.011 46.98c.763.065.712-3.436.177-3.933-1.463-1.358-3.407.627-3.84 2.075-.499-4.443-5.074-3.209-3.706.686-.717-2.04-5.036 2.193-1.357 3.63-.167.258-.272.586-.302 1.025-.047.695.112 1.56.473 2.15.892 1.451 2.652.449 2.74-1.094-.229 3.976 3.41 4.112 3.334.028 3.494 2.69 5.63-2.196 2.481-4.567M33.468 7.46c-1.578.814-3.17-.665-2.782-2.57.369-1.806 1.957-1.556 3.13-.9-2.696-2.456 2.475-6.766 2.444-.887C36.276.05 41.88.93 39.042 5.087c1.662-.019 2.653 2.44 1.477 3.773-1.1 1.245-2.78.74-3.683-.439 2.351 1.674-2.59 5.125-2.295 1.083-.274 3.756-4.178-1.958-1.288-2.277l.215.233M26.962 29.9c5.876 1.795-1.332 11.113-3.837 5.396-1.24-2.83.773-6.332 3.837-5.397m9.602 29.941c5.878 1.795-1.33 11.113-3.835 5.395-1.24-2.829.773-6.331 3.835-5.395M67.99 26.362c-.274-2.012 1.416-2.686 2.942-2.808 1.952-.156 2.982 2.481 2.307 4.24-1.15 2.992-4.892 1.181-5.248-1.432m29.473.722c-.274-2.012 1.415-2.687 2.94-2.808 1.953-.156 2.984 2.481 2.308 4.24-1.15 2.992-4.892 1.18-5.248-1.432" fill="#5E763F"/><path d="M66.003 65.682c-.274-2.012 1.415-2.687 2.94-2.81 1.953-.155 2.984 2.482 2.309 4.241-1.15 2.993-4.893 1.182-5.249-1.43" fill="#7C9A59"/><path d="M55.674 21.398c2.534-4.11 7.744 2.146 4.055 4.304-2.4 1.406-5.737-1.576-4.055-4.304" fill="#5E763F"/><path d="M78.855 8.41c2.534-4.108 7.744 2.148 4.057 4.305-2.403 1.407-5.74-1.574-4.057-4.305m7.948 25.612c2.533-4.108 7.744 2.147 4.057 4.306-2.402 1.405-5.74-1.576-4.057-4.306" fill="#7C9A59"/><path d="M53.463 9.58c-1.616-.286-3.427-2.524-2.684-4.369.8-1.988 3.083-.326 3.82.808-.255-1.407-1.043-6.348 1.589-5.54 1.242.381 2.038 3.99 2.012 5.219.03-1.453 2.198-2.854 3.377-2.126 1.613.997.308 4.872-1.387 4.855 2.113-.207 3.704 2.656 2.252 4.405-1.745 2.095-3.487-.82-4.398-2.067-.26 1.7.547 3.37-1.29 4.175-1.974.865-2.448-1.439-2.378-3.094.034 1.75-2.145 1.983-3.063.853-1.245-1.534.568-4.621 2.15-3.12m34.108 11.905c-1.615-.285-3.425-2.524-2.683-4.369.8-1.989 3.083-.325 3.82.807-.256-1.406-1.042-6.347 1.59-5.54 1.241.381 2.037 3.992 2.012 5.22.03-1.452 2.197-2.854 3.376-2.127 1.613.997.307 4.873-1.386 4.855 2.113-.206 3.705 2.657 2.25 4.406-1.743 2.095-3.486-.82-4.397-2.066-.26 1.7.549 3.37-1.288 4.174-1.976.866-2.45-1.438-2.38-3.093.034 1.75-2.146 1.983-3.064.852-1.244-1.533.569-4.622 2.15-3.12M67.37 47.816c-1.614-.284-3.424-2.523-2.681-4.369.798-1.987 3.082-.324 3.818.808-.255-1.406-1.042-6.347 1.59-5.54 1.241.381 2.037 3.992 2.011 5.22.032-1.452 2.199-2.854 3.378-2.126 1.612.996.308 4.871-1.387 4.854 2.113-.206 3.704 2.657 2.252 4.406-1.744 2.095-3.488-.82-4.398-2.066-.26 1.7.547 3.368-1.29 4.173-1.974.867-2.449-1.437-2.379-3.093.035 1.75-2.144 1.982-3.062.852-1.246-1.532.569-4.621 2.149-3.12" fill="#5E763F"/><path d="M92.96 66.856c-1.007-1.406-.935-4.388.762-5.19 1.828-.864 2.462 2.048 2.294 3.425.692-1.22 3.202-5.424 4.627-2.88.67 1.198-1.002 4.433-1.79 5.313.931-1.04 3.396-.459 3.804.947.559 1.927-2.82 3.797-4.049 2.528 1.677 1.418 1.053 4.694-1.104 4.898-2.586.243-2.042-3.187-1.931-4.775-1.252 1.053-1.703 2.874-3.553 2.104-1.987-.833-.895-2.87.19-4.033-1.068 1.308-2.81-.137-2.777-1.646.046-2.046 3.305-2.965 3.526-.69" fill="#7C9A59"/><path d="M88.225 46.721c-.769-1.572-.228-4.497 1.57-4.968 1.937-.51 2.103 2.478 1.72 3.802.875-1.073 4.01-4.744 5.011-1.971.473 1.305-1.684 4.18-2.599 4.9 1.081-.851 3.416.182 3.598 1.644.247 2.001-3.376 3.212-4.387 1.733 1.427 1.708.297 4.821-1.86 4.618-2.587-.246-1.51-3.521-1.15-5.065-1.4.803-2.131 2.514-3.831 1.407-1.827-1.189-.429-2.994.821-3.935-1.256 1.089-2.746-.662-2.474-2.142.367-2.007 3.722-2.302 3.581-.023" fill="#5E763F"/></g></svg>