<svg xmlns="http://www.w3.org/2000/svg" width="95.642" height="123.492" viewBox="0.638 0.716 95.642 123.492"><defs><style/></defs><g id="ID0.20486638182774186" transform="translate(1.55 1.8) scale(.77185)"><g id="Foot"><path id="ID0.978875685017556" fill="#F7941E" d="M77.8 157.091c-3.31 0-7.674-2.573-7.858-2.683a2.295 2.295 0 0 1-.104-.067c-1.531-1.091-7.551-7.651-8.612-9.254a1.501 1.501 0 0 1 1.013-2.31c3.879-.621 14.587-2.541 17.511-3.941 5.155-2.465 9.247-5.108 10.378-5.86.246-.163.605-.298.901-.298.317 0 .618.101.865.275 6.117 1.309 8.108 4.103 7.903 6.341-.155 1.705-1.753 3.662-5.652 4.106.538.657.971 1.391 1.235 2.184.478 1.428.61 3.629-1.472 6-1.066 1.212-2.615 1.827-4.603 1.827-2.486 0-5.306-.968-7.668-2.12.595 1.882.623 3.916-1.45 5.188-.62.4-1.432.612-2.387.612z"/><path id="ID0.6269367155618966" d="M91.029 134.178l-.146.104c9.834 1.814 9.444 7.712 1.539 7.712-1.143 0-2.442-.123-3.891-.399 2.993.621 8.122 4.591 4.25 9-.829.942-2.062 1.317-3.476 1.317-3.893 0-9.155-2.842-11.117-4.512.793 1.992 3.94 6.129 1.215 7.8-.429.276-.981.392-1.604.392-2.361 0-5.724-1.658-7.092-2.472-1.349-.961-7.263-7.397-8.231-8.86 0 0 14.16-2.269 17.922-4.07 6.087-2.912 10.621-6.012 10.631-6.012m0-3c-.907 0-1.506.398-1.731.549-1.11.737-5.128 3.333-10.193 5.755-2.457 1.177-11.794 2.965-17.103 3.815a2.997 2.997 0 0 0-2.026 4.618c1.038 1.567 7.231 8.393 8.992 9.647.067.048.137.093.208.136.498.296 4.972 2.893 8.625 2.893 1.233 0 2.309-.286 3.199-.851 1.748-1.082 2.405-2.528 2.486-4.024 1.934.713 3.966 1.195 5.821 1.195 3.036 0 4.791-1.271 5.729-2.336 1.992-2.27 2.62-4.921 1.769-7.468a7.571 7.571 0 0 0-.261-.671c3.19-.986 4.576-3.113 4.749-5.006.261-2.848-1.954-6.341-8.831-7.889a3.018 3.018 0 0 0-1.433-.363z"/></g><g id="Body_1_"><g id="Purple"><path id="ID0.8103257887996733" fill="#8A8FC6" d="M61.233 145.103c-6.392 0-13.258-1.018-19.897-2.001-1.026-.151-2.049-.304-3.069-.451a218.47 218.47 0 0 0-6.285-.828l-.957-.11a198.444 198.444 0 0 0-2.546-.24c-.408-.034-.811-.062-1.213-.091a72.225 72.225 0 0 0-1.299-.075c-.371-.02-.735-.036-1.097-.049-.478-.016-.949-.021-1.42-.026l-.916-.007a44.45 44.45 0 0 0-2.02.062l-.161.006c-.696.04-1.313.059-1.917.059-10.672 0-17.943-5.921-18.095-14.732-.021-1.264.11-2.57.391-3.884 1.263-5.894 4.102-9.42 6.847-12.83 1.018-1.265 2.07-2.571 3.047-4.002 3.318-5.375 5.053-12.515 6.889-20.073 2.122-8.734 4.312-17.75 9.268-24.513-7.296-8.991-10.788-17.738-10.67-26.708.047-3.561.931-7.167 1.993-11.173C24.228.36 60.322.095 61.855.095c.452 0 1.068.009 1.438.052 2.907.337 8.281 1.626 9.072 1.886 7.414 2.452 14.491 9.228 15.061 9.919.426.518.862 1.1 1.335 1.781.04.05.076.098.111.148l.262.395c.519.785.951 1.501 1.321 2.191.041.075.074.153.101.231 2.949 5.496 5.608 11.515 3.62 15.219-1.864 3.475-4.716 5.672-7.231 7.61-7.858 6.056-14.646 11.286 17.236 57.645 5.456 7.934 6.075 15.916 1.841 23.724-2.753 5.076-7.561 9.994-14.289 14.618-12.842 8.824-23.339 9.511-26.251 9.511h-.001c-.434 0-.734-.015-.891-.024a53.911 53.911 0 0 1-3.357.102z"/><path id="ID0.9180831182748079" d="M61.855 1.595c.624 0 1.059.018 1.266.042 2.869.333 8.117 1.604 8.775 1.821 7.124 2.355 13.979 8.971 14.372 9.448.44.536.857 1.102 1.261 1.683.035.051.075.096.11.146.083.121.163.245.244.368.439.665.862 1.35 1.251 2.074l-.037-.024c1.597 2.958 5.677 10.479 3.758 14.055-7.514 14.003-32.25 5.25 10.09 66.814 11.687 16.993-2.977 30.013-12.062 36.256-12.438 8.546-22.452 9.247-25.402 9.247-.578 0-.886-.027-.886-.027a52.4 52.4 0 0 1-3.362.104c-7.252 0-15.124-1.332-22.751-2.437a219.26 219.26 0 0 0-6.329-.834c-.323-.037-.648-.077-.97-.111-.454-.049-.903-.09-1.353-.133a76.89 76.89 0 0 0-1.23-.111c-.413-.034-.822-.063-1.23-.092-.446-.03-.889-.056-1.33-.077-.375-.02-.749-.037-1.119-.05-.49-.017-.974-.022-1.456-.027-.261-.003-.525-.008-.785-.008l-.16.001c-.706.006-1.401.027-2.087.064-.077.005-.157.004-.234.009-.601.036-1.188.054-1.763.054-10.316 0-16.465-5.68-16.595-13.258-.02-1.143.098-2.328.358-3.544 1.641-7.655 6-10.934 9.666-16.301 7.668-12.413 7.168-33.389 16.834-45.467l-.001-.001c-6.333-7.549-11.22-16.353-11.085-26.653.045-3.433.92-6.951 1.943-10.808C24.874 3.772 54.968 1.595 61.855 1.595m0-3c-1.58 0-38.785.277-45.199 24.456-1.088 4.104-1.993 7.805-2.042 11.537-.119 9.038 3.253 17.82 10.295 26.785-4.664 6.868-6.789 15.617-8.851 24.102-1.801 7.412-3.502 14.415-6.709 19.639-.933 1.36-1.952 2.626-2.938 3.851-2.855 3.547-5.807 7.214-7.145 13.456a18.732 18.732 0 0 0-.424 4.224c.166 9.694 8.041 16.207 19.594 16.207.636 0 1.289-.02 1.942-.059.09-.002.168-.005.245-.01a43.298 43.298 0 0 1 1.922-.059l.135-.001c.158 0 .318.002.477.005l.28.003c.457.005.916.01 1.382.025.351.013.708.029 1.064.048.432.021.856.045 1.283.074a79.251 79.251 0 0 1 2.373.196l.277.026c.348.032.695.065 1.045.103.207.022.411.047.616.07l.333.039c1.835.211 3.819.473 6.242.822 1.017.147 2.04.299 3.064.451 6.693.991 13.614 2.017 20.117 2.017 1.158 0 2.288-.033 3.361-.099.196.011.495.021.887.021 3.021 0 13.902-.705 27.102-9.774 6.926-4.76 11.892-9.854 14.758-15.139 4.462-8.227 3.797-16.972-1.924-25.29-14.492-21.071-22.146-35.448-23.399-43.95-.946-6.422 1.755-8.504 5.844-11.655 2.635-2.03 5.621-4.331 7.638-8.089 2.313-4.312-.467-10.752-3.57-16.544a3.18 3.18 0 0 0-.151-.325 29.413 29.413 0 0 0-1.391-2.308l-.064-.098a21.124 21.124 0 0 0-.208-.312 5.2 5.2 0 0 0-.153-.208 28.359 28.359 0 0 0-1.375-1.831C87.891 10.154 80.639 3.189 72.84.61c-.85-.28-6.315-1.598-9.371-1.953-.356-.041-.898-.062-1.614-.062z"/></g><path id="White" fill="#FFF" d="M64.596 143.498s11.411 1.003 26.288-9.22c9.085-6.243 23.748-19.263 12.062-36.256-42.34-61.564-17.604-52.812-10.09-66.814 1.919-3.576-2.161-11.098-3.758-14.055l.037.024a26.695 26.695 0 0 0-1.251-2.074c-.081-.123-.161-.247-.244-.368-.035-.051-.075-.096-.11-.146-11.854-4.698-30.01-3.097-37.494 14.758-6.405 15.274 24.195 40.277 5.07 49.945-7.369 3.725-22.738 15.03-22.738 26.784s7 25.246 6.334 33.246a27.633 27.633 0 0 1-.219 1.844c8.823 1.277 17.971 2.859 26.113 2.332z"/></g><g id="Beak"><path id="ID0.37231157114729285" fill="#F7941E" d="M89.842 64.605c-6.424-.001-14.436-4.513-18.634-10.496-2.523-3.596-3.297-7.28-2.179-10.372 2.925-8.097 12.248-17.51 19.885-17.51.538 0 1.065.048 1.567.144 5.787.995 8.878 2.834 11.605 4.458 1.627.969 3.164 1.884 5.198 2.602 2.326.822 4.316 1.165 6.072 1.468 3.455.595 6.439 1.109 7.312 5.309a9.438 9.438 0 0 1-1.408 7.146c-1.205 1.795-3.694 4.128-8.705 5.051-1.221.225-2.635.339-4.2.339-5.331 0-12.011-1.34-16.979-2.889 3.677 5.943 10.8 7.615 11.146 7.693a1.499 1.499 0 0 1 .935 2.282c-1.588 2.446-4.653 3.974-9.112 4.541a12.97 12.97 0 0 1-2.503.236c.002-.002.001-.002 0-.002z"/><path id="ID0.5737760849297047" d="M88.914 27.727a6.9 6.9 0 0 1 1.287.117c8.904 1.531 10.834 4.969 16.584 7 7.119 2.515 11.402.792 12.416 5.667.738 3.536-.881 8.937-8.916 10.417-1.18.217-2.509.314-3.929.314-6.604 0-15.183-2.101-19.821-3.981 3.082 9.5 13.662 11.747 13.666 11.75-1.291 1.988-3.95 3.357-8.096 3.876-.729.147-1.486.217-2.263.217-9.687 0-22.272-10.924-19.403-18.857 2.902-8.032 11.904-16.52 18.475-16.52m0-3c-8.364 0-18.142 9.768-21.296 18.501-1.289 3.564-.45 7.735 2.363 11.744 4.526 6.451 12.88 11.133 19.861 11.133.945 0 1.867-.085 2.743-.254 4.89-.632 8.298-2.383 10.131-5.206a3 3 0 0 0-1.864-4.562c-.232-.053-3.808-.89-7.016-3.462 4.111.955 8.615 1.622 12.52 1.622 1.656 0 3.161-.123 4.473-.364 5.523-1.018 8.312-3.656 9.678-5.69a10.945 10.945 0 0 0 1.631-8.291c-1.08-5.196-5.036-5.878-8.526-6.479-1.696-.292-3.62-.624-5.827-1.403-1.894-.669-3.301-1.506-4.931-2.476-2.835-1.688-6.049-3.601-12.121-4.648a9.886 9.886 0 0 0-1.819-.165z"/></g><path id="Eye" d="M70.439 23.604c1.046 0 1.994.545 2.68 1.426.686.88 1.111 2.096 1.111 3.438s-.425 2.558-1.111 3.438c-.686.881-1.634 1.426-2.68 1.426-1.046 0-1.994-.545-2.68-1.426-.686-.88-1.111-2.096-1.111-3.438s.425-2.558 1.111-3.438c.686-.881 1.634-1.426 2.68-1.426z"/><path id="Wing" fill="#8A8FC6" stroke="#000" stroke-width="3" stroke-linecap="round" stroke-linejoin="round" d="M50.072 79.952s-6.982 18.463 0 32.841 15.396 22.833 22.896 8.333c9.639-18.634-4.145-43.167-15.003-57.214"/></g></svg>