<svg width="120" height="120" viewBox="0 0 120 120" xmlns="http://www.w3.org/2000/svg"><g fill="none" fill-rule="evenodd"><path d="M39.838 71.254l-15.11 36.41c-1.775 4.277.271 9.226 4.546 11l1.637.68c4.275 1.773 9.224-.272 10.999-4.549l15.11-36.408-17.182-7.133" fill="#9B3349"/><path d="M77.81 1.731c8.181 3.396 14.55 13.473 16.634 17.695 2.084 4.222.638 10.173-2.674 12.798-3.311 2.625-14.646 14.12-20.202 19.24-5.911 4.502-22.256 2.163-22.92-7.255-.312-4.446-1.77-26.301-2.288-30.832-.518-4.53 2.712-9.425 7.174-10.93C57.995.94 69.627-1.664 77.809 1.73" fill="#B1856A"/><path d="M46.316 12.826c1.138-1.595 2.774-3.104 2.628-1.68-.181 1.771-.242 23.727-.242 23.727s.816-26.445 3.56-25.491c2.744.954-2.085 29.058-2.085 29.058s4.764-27.946 5.84-27.87c1.076.078-3.753 28.182-3.753 28.182s5.629-28.696 6.982-27.95c1.353.747-4.672 28.17-4.672 28.17s7.22-26.743 8.48-26.22c1.26.524-6.025 27.424-6.025 27.424s8.332-29.421 9.973-28.925c1.642.497-6.548 28.684-6.548 28.684s8.309-27.584 10.042-26.865c1.733.72-7.847 28.7-7.847 28.7s10.395-27.273 12.666-26.515c2.271.758-9.503 26.903-9.503 26.903s11.54-25.134 13.115-24.48c1.576.654-10.502 25.75-10.502 25.75S80.518 19.63 82.41 20.416c1.89.785-11.463 24.058-11.463 24.058s13.842-21.778 15.51-20.9c1.667.876-12.765 21.854-12.765 21.854S86.42 26.33 88.31 27.114c1.89.785-12.495 18.089-12.495 18.089s13.91-14.916 15.746-14.892c.336.004.927.152 1.668.39 2.229-2.993 2.96-7.74 1.214-11.275C92.36 15.204 85.991 5.127 77.81 1.73c-8.182-3.395-19.814-.79-24.275.716-4.281 1.444-7.428 6.009-7.218 10.379" fill="#3B261D"/><path d="M46.316 12.826c-.21-4.37 2.937-8.935 7.218-10.38 4.461-1.505 16.093-4.11 24.275-.715 8.182 3.396 14.55 13.473 16.635 17.695C96.19 22.96 95.46 27.708 93.23 30.7M46.316 12.826c-.21-4.37 2.937-8.935 7.218-10.38 4.461-1.505 16.093-4.11 24.275-.715 8.182 3.396 14.55 13.473 16.635 17.695C96.19 22.96 95.46 27.708 93.23 30.7" stroke="#0A090B" stroke-width=".567"/><path d="M41.483 71.937L27.51 105.606c-1.435 3.457.22 7.46 3.676 8.894l1.323.55c3.457 1.433 7.459-.22 8.893-3.678l13.974-33.67-13.893-5.765" fill="#CF4D6A"/><path d="M45.306 73.523l-13.633 32.849c-.887 2.138-.341 4.415 1.213 5.06l.595.247c1.554.645 3.552-.577 4.44-2.713l13.632-32.85-6.247-2.593" fill="#9B3349"/><path fill="#5D5775" d="M41.098 71.778l7.131-30.851 10.59 3.942.012-.021.302.138.312.116-.007.024 13.218 5.699-16.929 27.024-14.629-6.071"/><path d="M49.218 41.295l9.6 3.574.013-.021.302.138.312.116-.007.024.364.157-4.012 6.14s4.789 3.736 2.701 4.29c-2.088.555-6.35 6.874-7.318 9.205a1694.1 1694.1 0 0 1-3.986 9.387l-5.4-2.242c.865-4.21 3.61-17.61 4.644-21.792.848-3.427 1.88-6.407 2.787-8.976" fill="#A8A7B7"/><path d="M56.387 43.964l2.432.905.012-.021.302.138.312.116-.007.024 13.218 5.699-16.929 27.024-1.004-.416c6.09-10.705 15.222-26.475 14.127-26.93-1.118-.464-1.685-.152-2.388 2.07-.704 2.222-5.547-1.647-7.403-1.652-1.856-.005 1.695 2.605 3.95 3.388 2.254.784-3.229 1.72-6.223 4.194-2.743 2.267-6.668 12.023-8.48 16.266l-1.671-.694c1.17-2.698 2.677-6.715 4.2-12.03 1.708-5.958 2.84-6.581 4.822-6.087 1.98.494-.593-1.995-2.551-2.808-1.681-.697 1.45-6.002 3.281-9.186zM41.098 71.778l7.131-30.851 1.635.609c-.711 1.928-1.265 3.927-2.194 5.751-1.05 2.06-4.07 20.117-4.754 25.245l-1.818-.754z" fill="#262039"/></g></svg>