<svg width="120" height="120" viewBox="0 0 120 120" xmlns="http://www.w3.org/2000/svg"><g fill="none" fill-rule="evenodd"><path fill="#BEC9D2" d="M24.199 97.346h.556V56.098h-.556z"/><path fill="#BEC9D2" d="M3.942 77.002h41.07v-.559H3.942z"/><path fill="#BEC9D2" d="M39.194 91.108l-.393.395L9.76 62.336l.393-.394z"/><path fill="#BEC9D2" d="M10.153 91.503l-.393-.395L38.8 61.941l.393.395z"/><path fill="#BEC9D2" d="M5.64 84.937l-.215-.515 37.89-15.915.214.515z"/><path fill="#BEC9D2" d="M16.297 57.803l.513-.215L32.657 95.64l-.513.216z"/><path fill="#BEC9D2" d="M16.94 95.91l-.514-.213 15.587-38.161.515.211z"/><path fill="#BEC9D2" d="M5.373 69.154l.21-.517L43.582 84.29l-.21.517z"/><path d="M24.477 96.177c-10.699 0-19.372-8.71-19.372-19.454 0-10.746 8.673-19.456 19.372-19.456s19.372 8.71 19.372 19.456c0 10.745-8.673 19.454-19.372 19.454m0-42.64c-12.75 0-23.086 10.38-23.086 23.186 0 12.805 10.336 23.185 23.086 23.185 12.75 0 23.087-10.38 23.087-23.185 0-12.806-10.337-23.186-23.087-23.186" fill="#000"/><path d="M24.477 59.387c-9.518 0-17.26 7.776-17.26 17.335 0 9.56 7.742 17.336 17.26 17.336s17.261-7.777 17.261-17.336c0-9.559-7.743-17.335-17.261-17.335m0 35.37c-9.9 0-17.956-8.09-17.956-18.035 0-9.944 8.055-18.034 17.956-18.034s17.956 8.09 17.956 18.034c0 9.945-8.055 18.034-17.956 18.034" fill="#000"/><path fill="#BEC9D2" d="M96.336 97.346h.557V56.098h-.557z"/><path fill="#BEC9D2" d="M76.08 77.002h41.07v-.559H76.08z"/><path fill="#BEC9D2" d="M111.332 91.108l-.393.395-29.041-29.167.393-.394z"/><path fill="#BEC9D2" d="M82.29 91.503l-.392-.395 29.04-29.167.394.395z"/><path fill="#BEC9D2" d="M77.777 84.937l-.215-.515 37.89-15.915.215.515z"/><path fill="#BEC9D2" d="M88.435 57.803l.513-.215 15.846 38.053-.512.216z"/><path fill="#BEC9D2" d="M89.078 95.91l-.514-.213 15.587-38.161.514.211z"/><path fill="#BEC9D2" d="M77.51 69.154l.212-.517 37.997 15.654-.211.517z"/><path d="M96.615 96.177c-10.7 0-19.372-8.71-19.372-19.454 0-10.746 8.673-19.456 19.372-19.456s19.371 8.71 19.371 19.456c0 10.745-8.672 19.454-19.371 19.454m0-42.64c-12.75 0-23.086 10.38-23.086 23.186 0 12.805 10.335 23.185 23.086 23.185 12.75 0 23.086-10.38 23.086-23.185 0-12.806-10.336-23.186-23.086-23.186" fill="#000"/><path d="M96.615 59.387c-9.518 0-17.26 7.776-17.26 17.335 0 9.56 7.742 17.336 17.26 17.336 9.517 0 17.26-7.777 17.26-17.336 0-9.559-7.743-17.335-17.26-17.335m0 35.37c-9.901 0-17.957-8.09-17.957-18.035 0-9.944 8.056-18.034 17.957-18.034 9.901 0 17.956 8.09 17.956 18.034 0 9.945-8.055 18.034-17.956 18.034" fill="#000"/><path d="M40.378 50.654a1.396 1.396 0 0 1-1.368-1.66c.446-2.334-.123-4.074-1.736-5.32a7.182 7.182 0 0 0-2.652-1.25 1.397 1.397 0 0 1 .52-2.744c.083.015 2.049.403 3.828 1.78 1.713 1.323 3.585 3.796 2.773 8.059a1.392 1.392 0 0 1-1.365 1.135m40.518 0c-.41 0-.816-.181-1.09-.53-3.61-4.565-5.052-9.207-4.284-13.795 1.298-7.764 8.462-12.424 8.766-12.618a1.387 1.387 0 0 1 1.92.428 1.4 1.4 0 0 1-.424 1.927c-.064.042-6.44 4.214-7.522 10.744-.624 3.769.628 7.664 3.722 11.578a1.402 1.402 0 0 1-.225 1.963 1.383 1.383 0 0 1-.863.303" fill="#A6B3BD"/><path d="M1.39 65.507c-.277 0-.555-.083-.798-.253a1.4 1.4 0 0 1-.34-1.946c.104-.148 2.569-3.647 6.726-7.224 5.573-4.796 11.546-7.407 17.272-7.552 7.991-.2 15.548 4.204 22.457 13.098a1.4 1.4 0 0 1-.241 1.96 1.386 1.386 0 0 1-1.952-.241c-6.337-8.158-13.129-12.204-20.193-12.025-12.37.313-21.7 13.456-21.792 13.589-.27.387-.702.594-1.14.594m69.278 11.785a1.394 1.394 0 0 1-1.384-1.553c1.254-11.21 5.398-18.936 12.314-22.963 4.955-2.886 11.405-3.799 18.653-2.64 5.406.863 9.33 2.55 9.495 2.62a1.4 1.4 0 0 1 .725 1.838 1.39 1.39 0 0 1-1.829.727c-.198-.085-14.996-6.342-25.66-.122-6.105 3.56-9.784 10.576-10.934 20.853a1.394 1.394 0 0 1-1.38 1.24" fill="#FFC94E"/><path d="M32.178 36.34c-1.388-.415-2.793-1.003-4.229-.816-.361.047-.737.155-.982.427-.202.223-.287.527-.343.823a5.84 5.84 0 0 0 1.132 4.634 5.787 5.787 0 0 0 4.23 2.172c2.21.097 4.247-1.074 6.235-2.05 1.934-.95 3.981-1.751 6.127-1.92.79-.063 3.873-.274 3.262-1.835-.365-.934-2.709-.769-3.45-.757-4.073.064-7.997.512-11.982-.678" fill="#000"/><path d="M22.078 78.12c-.49 0-.966-.262-1.22-.723a1.4 1.4 0 0 1 .548-1.898l23.95-13.255a1.388 1.388 0 0 1 1.89.55 1.4 1.4 0 0 1-.547 1.896l-23.95 13.256a1.383 1.383 0 0 1-.67.173" fill="#EC9B5E"/><path d="M52.614 72.296L22.575 71.27a4.93 4.93 0 0 0-.32-.011c-2.852 0-5.163 2.322-5.163 5.185a5.183 5.183 0 0 0 3.85 5.016h.002c.258.068.524.116.796.143l28.842 5.194c.47.134.96.224 1.462.262l.021.004v-.002c.182.013.364.023.549.023 4.065 0 7.361-3.31 7.361-7.393 0-4.084-3.296-7.394-7.361-7.394" fill="#FFC94E"/><path d="M91.056 24.923H79.968v-2.462h11.088c.47 0 .85.382.85.854v.755c0 .471-.38.853-.85.853" fill="#7C8B96"/><path d="M81.96 26.078h-8.643c-.91 0-1.648-.74-1.648-1.655v-1.462c0-.914.738-1.655 1.648-1.655h8.643c.91 0 1.648.741 1.648 1.655v1.462c0 .914-.738 1.655-1.648 1.655" fill="#000"/><path d="M83.829 25.388c.019.283.179.535.314.784.412.756.61 1.757.083 2.436-.254.328-.64.528-.918.837-.277.309-.41.837-.103 1.118.155.142.381.177.591.172.679-.014 1.317-.373 1.79-.863.47-.49.795-1.103 1.072-1.725.505-1.131 1.023-3.039-.111-4.013-.812-.697-2.792.135-2.718 1.254" fill="#7C8B96"/><path d="M96.613 78.12c-.713 0-1.32-.549-1.384-1.276l-2.825-32.388a1.396 1.396 0 0 1 1.264-1.514 1.392 1.392 0 0 1 1.507 1.27L98 76.6a1.396 1.396 0 0 1-1.387 1.52M76.74 40.934a1.397 1.397 0 0 1-.317-2.756l7.44-1.757a1.397 1.397 0 0 1 .636 2.72l-7.44 1.756a1.41 1.41 0 0 1-.32.037" fill="#A6B3BD"/><path d="M63.725 81.282H52.551c-.569 0-1.08-.349-1.292-.88L38.99 49.52a1.4 1.4 0 0 1 .777-1.815 1.39 1.39 0 0 1 1.807.78l11.92 30.003h8.637c-.271-2.43-.576-7.276.363-12.737.78-4.542 2.265-8.564 4.414-11.954 2.708-4.273 6.468-7.533 11.174-9.687a1.387 1.387 0 0 1 1.783.574L97.82 76.026a1.4 1.4 0 0 1-.512 1.907 1.389 1.389 0 0 1-1.899-.514l-17.31-30.213c-3.667 1.907-6.63 4.611-8.822 8.054-1.95 3.064-3.306 6.727-4.03 10.887-1.251 7.19-.165 13.428-.153 13.49.073.407-.038.826-.302 1.144a1.39 1.39 0 0 1-1.067.5M98.19 47.872H86.77a3.826 3.826 0 0 1-3.74-3.051l-1.758-8.427c-.558-2.678 1.475-5.193 4.2-5.193h16.6a2.2 2.2 0 0 1 2.145 2.654l-2.286 10.966a3.826 3.826 0 0 1-3.741 3.051" fill="#EC9B5E"/><path d="M52.552 84.322c-2.548 0-4.613-2.073-4.613-4.632 0-2.559 2.065-4.632 4.613-4.632 2.547 0 4.613 2.073 4.613 4.632 0 2.559-2.066 4.632-4.613 4.632m0-11.184c-3.604 0-6.524 2.933-6.524 6.552 0 3.618 2.92 6.55 6.524 6.55 3.602 0 6.522-2.932 6.522-6.55 0-3.62-2.92-6.552-6.522-6.552" fill="#7C8B96"/><path d="M54.174 79.69c0 .9-.727 1.63-1.623 1.63s-1.622-.73-1.622-1.63c0-.901.726-1.63 1.622-1.63.896 0 1.623.729 1.623 1.63" fill="#3B464E"/><path fill="#3B464E" d="M50.26 89.284l-1.301-.42 5.883-18.378 1.301.42z"/><path d="M58.05 71.231h-4.585a.942.942 0 0 1-.94-.945v-.835c0-.52.42-.944.94-.944h4.586c.52 0 .94.423.94.944v.835c0 .522-.42.945-.94.945m-6.114 19.096h-4.586a.942.942 0 0 1-.94-.944v-.835c0-.521.42-.944.94-.944h4.586c.52 0 .94.423.94.944v.835c0 .521-.42.944-.94.944" fill="#000"/></g></svg>