<svg width="24" height="48" viewBox="0 0 24 48" xmlns="http://www.w3.org/2000/svg"><g fill="none"><path d="M3.1 44.4s-1-29.7.2-33.8c0 0 4.3-7 11.1-9.7 0 0 4.8 6.8 6.8 12.8 0 0-9.2 29.4-10.6 31.4 0 0-3.1 1.7-5.1 1.9.1.1-2.4-1.1-2.4-2.6z" fill="#8644B3"/><path d="M3.4 10.7s2.2 5.1 5.6 7l5.4-16.6c-6.7 2.6-11 9.6-11 9.6z" fill="#EA8BE5"/><path d="M3.4 10.7s2.2 5.1 5.6 7l5.4-16.6c-6.7 2.6-11 9.6-11 9.6z" fill="#EA8BE5"/><path d="M21.2 13.8C19.3 7.8 14.5 1 14.5 1s-.1 0-.1.1L8.9 17.7s5.8-1.2 12.1-3.1c.2-.6.2-.8.2-.8z" fill="#AD59C2"/><path d="M3.4 10.7c-1.2 4.1-.2 33.8-.2 33.8 0 1.4 2.4 2.7 2.4 2.7L9 17.8l-5.6-7.1z" fill="#AD59C2"/><path d="M8.9 17.7s-.1 1.6-.3 4c-.1 1.2-.3 2.6-.4 4.1-.2 1.5-.3 3.1-.5 4.6-.2 1.6-.4 3.2-.6 4.6-.2 1.5-.4 2.9-.5 4-.4 2.3-.6 3.9-.6 3.9s.1-1.6.3-4c.1-1.2.3-2.6.4-4.1.2-1.5.3-3.1.5-4.6.2-1.6.4-3.2.6-4.6.2-1.5.4-2.9.5-4 .4-2.4.6-3.9.6-3.9z" fill="#EA8BE5"/><path d="M3.1 44.4c0 1.4 2.4 2.7 2.4 2.7l.4-3.3c-1.2.3-2.8.6-2.8.6z" fill="#A546BD"/><path d="M7.2 43.6c-.2 0-.7.1-1.3.2l-.4 3.3c1.9-.2 5.1-1.9 5.1-1.9S8 43.5 7.2 43.6z" fill="#7C36AB"/><path d="M5.6 47.1c.9-.2 1.8-.5 2.6-.8.8-.3 1.6-.7 2.3-1.3l-.1.1c.6-2 1.3-4 2-6s1.3-4 2-5.9c1.4-4 2.8-7.9 4.3-11.8-1.2 4-2.5 8-3.9 12-.7 2-1.4 4-2 5.9-.7 2-1.4 4-2.1 5.9-.8.5-1.6.9-2.5 1.2-.9.4-1.7.6-2.6.7z" fill="#6B348F"/><path d="M8.9 17.7l2.4-7.4c-3.4 0-8 .4-8 .4s2.3 5 5.6 7z" fill="#E17DE3"/><path d="M11.3 10.3l-2.4 7.4s5.8-1.2 12.1-3.1c.1-.5.2-.7.2-.7 0-.1-.1-.3-.1-.4-2.2-1.1-5.5-2.6-6.4-2.9-.4-.3-1.8-.3-3.4-.3z" fill="#9B4DAE"/><path d="M21 14.5s-.6.3-1.4.6c-.9.3-2 .7-3.2 1.1-1.2.3-2.4.6-3.3.8-.9.2-1.5.2-1.5.2s.1 0 .4-.1c.3-.1.6-.2 1.1-.3.9-.3 2-.6 3.2-1 1.2-.3 2.4-.7 3.3-.9.8-.3 1.4-.4 1.4-.4z" fill="#6B348F"/><path d="M14.4 1.1l-.5 2c-.3 1.2-.8 2.8-1.3 4.4-.5 1.6-1.1 3.2-1.6 4.4-.5 1.2-.8 2-.8 2l.5-2c.3-1.3.8-3 1.3-4.5.5-1.6 1.1-3.2 1.6-4.4.4-1.2.8-1.9.8-1.9z" fill="#FFBCFC"/></g></svg>