<svg width="120" height="120" viewBox="0 0 120 120" xmlns="http://www.w3.org/2000/svg" xmlns:xlink="http://www.w3.org/1999/xlink"><defs><path id="a" d="M0 .169h118.958v119.444H0z"/></defs><g fill="none" fill-rule="evenodd"><g transform="translate(1 .218)"><mask id="b" fill="#fff"><use xlink:href="#a"/></mask><path d="M62.566 26.74c.008-6.743-.34-14.077-1.832-20.516-.592-2.554-2.243-7.304-5.843-5.75-2.401 1.038-4.317 7.372-5.03 9.621-2.34 7.379-1.847 14.064-2.326 21.764-.403 6.486-3.084 13.158-9.303 16.471-6.555 3.493-12.723.412-18.606-3.01-4.77-2.773-9.503-5.765-14.332-8.224-7.82-3.981-5.42 7.245-2.627 11.31 7.513 10.938 19.908 14.026 30.053 21.4 11.228 8.16-1.534 23.677-5.922 32.185-1.772 3.437-8.122 20.68 1.533 17.149 4.45-1.627 8.392-8.751 10.655-12.647 3.019-5.197 6.233-10.411 9.41-15.504 2.211-3.545 5.964-12.656 10.618-13.363 3.23-.491 6.956 3.33 9.07 5.233 6.145 5.53 10.675 12.555 16.641 18.195 2.39 2.26 4.632 4.43 6.707 6.976 1.611 1.979 3.743 6.3 6.2 7.269 7.757 3.058 5.947-8.973 4.652-12.386-2.355-6.206-6.391-12.558-10.949-17.419-3.46-3.69-11.125-8.426-11.638-13.85-.953-10.09 25.003-16.322 31.794-20.516 3.094-1.91 11.593-6.895 5.058-10.45-4.363-2.373-12.248 1.537-16.299 2.816-5.79 1.829-11.85 3.214-17.831 4.936-4.823 1.388-13.103 3.508-17.02-.764-4.527-4.938-2.841-14.922-2.834-20.925" fill="#FF667C" mask="url(#b)"/></g><path d="M57.45 9.75c-2.619-.247-2.854 4.044-.954 5.074 1.076.583 2.21.027 2.616-1.063.168-.45.11-.948-.011-1.402a3.837 3.837 0 0 1-.063-.317c.077.439.013-.117.011-.18-.028-.888-.615-2.018-1.599-2.111m-1.163 12.556c-.952-.058-1.599.449-2.145 1.157.187-.233.197-.254.028-.064a3.51 3.51 0 0 0-.607.883c-.648 1.345-.667 2.949.034 4.285.596 1.136 2.053 1.653 3.256 1.323 1.357-.373 1.95-1.482 2.117-2.776.057-.321.03-.642-.082-.962.054.461.065.525.036.19-.044-.538-.084-1.056-.237-1.579a6.273 6.273 0 0 0-.333-.826c.425.891-.281-.696-.151-.474-.409-.698-1.121-1.108-1.916-1.157M54.515 41.88c-1.672 1.14-1.952 3.484-1.759 5.362.154 1.491 1.137 2.752 2.756 2.752 1.619 0 2.602-1.26 2.756-2.752.194-1.878-.087-4.222-1.759-5.361-.543-.37-1.451-.37-1.994 0m4.942 19.142c.02-.994-.558-1.697-1.194-2.36-1.51-1.57-4.344-.792-5.433.934-.381.311-.683.732-.763 1.185l-.132.738c-.122.686-.111 1.306.253 1.926.302.516.885 1.04 1.496 1.15.773.137 1.573.145 2.364.161a2.518 2.518 0 0 0 2.235-.492c.61-.478 1.016-1.21.986-2.019l.005-.157c.103-.345.175-.68.183-1.066m10.359.504c.352.18.68.394 1.084.45.427.058.858.132 1.286.173.514.05 1.031.08 1.547.118 1.523.111 2.797-1.355 2.797-2.793 0-1.439-1.274-2.905-2.797-2.794l-1.35.1c-.433.03-.863.107-1.292.166-.471.064-.857.262-1.275.475-1.552.792-1.552 3.313 0 4.105m16.508-7.652c-.076.156.221-.236.086-.108l.171-.136c-.107.06-.205.134-.294.22-.079.072-.41.336-.066.078-.304.228-.633.417-.887.704-.376.427-.495 1.01-.196 1.521.333.568 1.145.825 1.719.45.81-.528 1.895-1.342 1.526-2.46-.124-.379-.393-.679-.786-.786-.46-.127-1.052.069-1.273.517m16.858-3.961c.556.157 1.13.133 1.613-.21.495-.351.897-.986.661-1.62-.091-.246-.173-.45-.37-.634-.362-.337-.906-.534-1.398-.369a4.66 4.66 0 0 0-.829.37c-1.026.582-.789 2.15.323 2.463m-33.946 24.27c.13 1.286.503 2.236 1.432 3.173.434.437.873.854 1.446 1.103.31.135.632.302.95.407.127.041 1.061.153.653.088 1.275.203 2.364-.726 2.067-2.065.066.29.051.15-.044-.418-.08-.294-.26-.628-.412-.9-.303-.54-.649-1.003-1.116-1.412-.377-.33-.75-.748-1.189-.995a5.869 5.869 0 0 0-.904-.43c-.557-.203.335.174-.203-.086-1.089-.527-2.825.08-2.68 1.535M84.352 89.9c.091.075.182.15.272.227l-.106-.4c-.089.396-.05.67.127 1.028-.12-.243-.006-.006.012.047.081.242.19.443.366.63.031.032.235.285.068.06.103.14.178.324.313.433.389.316.752.5 1.267.37l-1.05-.277.08.08c.628.61 1.796.188 1.766-.731l-.003-.111-.316.762c.832-.677.17-1.75-.353-2.356-.235-.273-.626-.384-.966-.445-.49-.087-.828-.008-1.205.33l.4-.107c-.117-.03-.236-.058-.353-.087-.296-.07-.586.325-.319.546m9.379 9.983c-.012-.078.01.172.012.201l.243-.587-.024.021c-.391.327-.35.876-.167 1.288.293.66.646 1.512 1.335 2.04.683.524 1.814-.181 1.745-1-.081-.97-.712-1.702-1.408-2.328-.336-.302-.887-.447-1.29-.166l-.022.015.64-.083a3.963 3.963 0 0 0-.37-.093c-.452-.086-.76.256-.694.692m-45.948-22.83c-.58.42-.972.878-1.423 1.425-.33.4-.679.783-.94 1.236-.1.173-.205.345-.31.516a2.15 2.15 0 0 0-.295 1.09c.093.658.105.765.037.32.08 1.562 1.554 2.266 2.904 1.665l-.205.097a2.16 2.16 0 0 0 .954-.555c.238-.238.376-.502.531-.785.292-.53.496-1.07.646-1.652.214-.826.423-1.682.162-2.52-.248-.794-1.297-1.39-2.061-.837m-8.258 13.899c-.44.484-.849.991-1.011 1.64-.354 1.413 1.127 2.508 2.39 1.836.727-.387 1.133-1.117 1.386-1.868.528-1.56-1.667-2.817-2.765-1.608m-4.426 9.299c-.563.534-1.238.977-1.636 1.668-.407.706-.678 1.382-.518 2.203.053.274.357.392.603.342 1.777-.364 2.372-2.388 2.171-3.956-.039-.303-.37-.494-.62-.257m4.852-41.896l-.086-.04.48.479c-.833-1.344-2.404-1.603-3.856-1.378-.623.096-1.149.732-1.306 1.304-.23.836.151 1.65.859 2.109 1.202.777 3.158.781 4.094-.42l-.59.342.096-.036c.434-.164.775-.437.903-.902.142-.515-.074-1.221-.594-1.458M27.37 54.52l-.022-.052.136.503c-.01-.593-.28-.916-.728-1.246l.472.471c-.248-.37-.534-.654-.987-.751-.51-.11-.9-.084-1.372.158-.951.488-.901 1.954 0 2.455.697.387 1.576.294 2.153-.268l-.58.338c.293-.099.549-.205.75-.453l-.44.256.047-.011c.66-.156.8-.861.571-1.4m-12.428-5.582c-.326-.118.285.176-.12-.089a.736.736 0 0 1-.173-.147c-.167-.176.078.132-.047-.06-.05-.096-.049-.085.004.034a1.248 1.248 0 0 1-.04-.141c-.033-.127-.114-.272-.18-.392a.475.475 0 0 0 .006.018 2.265 2.265 0 0 1-.051-.17c-.05-.177-.075-.35-.171-.515-.08-.136-.208-.26-.307-.384-.353-.443-1.063-.247-1.326.17-.509.808-.192 1.941.548 2.496.277.206.655.3.994.318.169.009.344-.028.51-.06a.842.842 0 0 0 .232-.085c.43-.252-.222.059.121-.048.482-.151.452-.783 0-.945" fill="#F9355B"/></g></svg>