<svg width="80" height="139" viewBox="0 0 80 139" xmlns="http://www.w3.org/2000/svg"><g fill="none"><path d="M30.03 9.4c-1.761.75-3.423 1.55-5.135 2.2-3.826 1.5-7.502 3.25-11.278 4.8-1.813.75-3.575 1.55-5.388 2.3-.755.3-1.56.55-2.366.85-.151.05-.302.05-.453.05-.453-.05-.755-.3-.907-.7-.15-.45.05-.8.403-1.05.252-.2.604-.35.957-.5 3.222-1.35 6.445-2.65 9.667-4 3.172-1.35 6.495-2.35 9.718-3.5l4.078-1.5c.352-.1.453-.4.705-.65.554-.55 1.007-.65 1.611-.4.655.3.957.9.856 1.55-.1.5-.755 1.05-1.31 1.1a1.02 1.02 0 0 1-.553-.15 6.29 6.29 0 0 1-.604-.4zm18.832.1c-.353.3-.554.7-1.007.75-.655.05-1.209-.2-1.51-.75-.253-.45-.202-1 .2-1.45.403-.45 1.058-.65 1.662-.4.05 0 .1 0 .1.05.504.6 1.21.5 1.914.55 1.964.15 3.927.35 5.89.4 1.41.05 2.82.2 4.23.35.101 0 .252 0 .353.05 2.064.1 4.078.2 6.142.35 2.467.2 4.985.45 7.452.65.504.05.957.25 1.31.55.452.35.402.9-.101 1.2-.454.3-.957.45-1.511.4-.302 0-.655-.05-.957-.05-3.02-.25-6.092-.4-9.113-.8-2.568-.35-5.085-.55-7.653-.85l-4.532-.6c-.956-.2-1.862-.3-2.87-.4z" fill="#010101"/><path d="M53.242 5.75c.403-.3.755-.3 1.108-.3 2.416.25 4.783.2 7.2.25.352 0 .705 0 1.057.1.201.05.252.2.252.35 0 .2-.101.3-.302.35-.151.05-.302.05-.454.05-2.567.05-5.135 0-7.703-.25-.554 0-.554-.05-1.158-.55z" fill="#0E0E0E"/><path d="M23.133 7.8c-.151.3-.453.4-.705.5l-6.646 2.85c-.353.15-.655.35-1.007.3-.1 0-.252-.1-.252-.2-.05-.1 0-.25.1-.3.202-.15.404-.3.605-.4 2.165-1.05 4.33-2.1 6.596-2.85.302-.1.604-.2.906-.25.201-.05.353.1.403.35z" fill="#0C0C0C"/><path d="M20.666 5.8c0 .35-.302.45-.504.6-1.36.6-2.769 1.2-4.179 1.8-.05.05-.15.05-.201.05-.1 0-.252 0-.302-.1-.05-.1-.101-.2 0-.3.1-.1.201-.25.352-.35 1.31-.85 2.77-1.4 4.23-1.9.15-.05.453-.05.604.2z" fill="#101010"/><path d="M61.348 3.65c-.1.45-.403.5-.755.45-1.208-.2-2.417-.15-3.575-.15-.302 0-.654 0-.956-.05-.152 0-.303-.15-.303-.35 0-.2.151-.3.303-.3.453-.05.855-.05 1.309-.1 1.057-.05 2.064.05 3.121.15.302.05.605.1.856.35z" fill="#131313"/><path d="M36.123 75.35c.151-7.95.05-15.9.05-23.9-.553-.05-1.007-.1-1.46-.1-1.46.1-2.87-.1-4.33-.3-1.259-.15-2.568-.3-3.826-.55-1.36-.25-2.619-.7-3.928-1.1-.604-.2-1.208-.45-1.812-.65-.957-.3-1.762-.95-2.618-1.4-.302-.15-.403-.5-.454-.8-.1-1.3-.15-2.65.101-3.95.05-.2.1-.4.252-.5.403-.2.352-.55.352-.95-.1-3.75-.201-7.5-.05-11.2-.151-.45-.655-.45-.755-.8-.1-.35-.1-.7-.151-1.05-.05-1.1-.05-2.25-.101-3.35-.05-.65.252-1.05.755-1.35.957-.6 2.014-1 3.072-1.35 2.165-.7 4.33-1.2 6.545-1.55 1.863-.3 3.726-.5 5.64-.7 4.128-.4 8.257-.55 12.385-.35 2.87.1 5.69.4 8.51.9.906.15 1.812.4 2.668.65.302.1.604.2.906.35 1.158.5 1.712 1.45 1.712 2.65.05 1.05.1 2.05-.151 3.1-.05.3-.05.65-.05.95-.302.25-.554.45-.907.7v10.6c.05.2.554.2.655.6.1.4.15.8.201 1.2.101 1.3.101 2.65.101 3.95 0 .55-.252.9-.655 1.2-.15.1-.251.2-.402.25-2.014 1.05-4.028 2-6.193 2.6-.756.2-1.46.35-2.216.5-1.712.35-3.373.7-5.085 1-.957.15-1.913.25-2.87.35-.453.05-.906.05-1.31.25-.25.35-.1.75-.1 1.15 0 2.5 0 4.95-.05 7.4-.05 2.1 0 4.2 0 6.3 0 2.9.15 5.85.05 8.75 0 .3 0 .55.05.8.202.35.454.4.705.5 1.763.55 3.525 1.1 5.287 1.55 1.057.3 2.064.6 3.071.95.454.15.856.15 1.31.2.856.05 1.661.35 2.366.75 1.057.6 1.41 1.85.906 2.9-.654 1.2-1.863 1.7-3.02 1.1-.504-.25-1.008-.55-1.41-.9-.353-.35-.756-.55-1.209-.75-2.517-1-5.035-1.9-7.653-2.55-.201-.05-.352-.05-.604 0-1.158.4-2.367.25-3.575 0-.554-.1-1.108-.15-1.662.05-.352.15-.704.2-1.057.25-2.316.6-4.582 1.5-6.797 2.4-.252.1-.453.25-.705.45-.453.45-1.007.75-1.611 1.05-1.46.75-3.273-.7-3.172-2.15.05-.9.403-1.6 1.309-2 .755-.35 1.56-.65 2.417-.65.553 0 1.007-.15 1.51-.3 1.762-.65 3.625-1 5.388-1.6.855-.25 1.711-.5 2.517-.75.554-.15.755-.6 1.158-.8zm-1.56-47.1a1.67 1.67 0 0 0-.706 0c-1.057-.1-2.114-.1-3.121-.05-.05-.05-.101-.05-.151-.05-.756-.2-1.561-.15-2.367-.25-2.668-.25-5.337-.6-7.905-1.4-.554-.15-1.158-.4-1.712-.6-.15.55.05 1.05.05 1.55 0 1.15.051 1.45 1.511 1.95.202.05.403.15.554.2 1.36.35 2.719.7 4.129.95 1.56.25 3.121.6 4.733.5.402.1.805.1 1.208.05.403.15.806.1 1.208.1 3.273.2 6.596 0 9.869-.15 1.158-.05 2.316-.1 3.474-.25 3.323-.4 6.596-.8 9.818-1.85 1.209-.4 2.316-.8 3.374-1.55.15-.95.15-1.9.1-2.85 0-.05-.1-.1-.15-.15-1.36.6-2.67 1.3-4.13 1.7-4.833 1.2-9.767 1.8-14.752 2-1.107.05-2.165.05-3.273.1h-.251c-.554-.05-1.007-.1-1.51.05zm-4.885 21.6c.101.05.202.15.302.15 2.115.1 4.23.4 6.344.3.655-.05 1.26.05 1.914-.15.201.05.453.1.654-.05h.605c4.48-.2 8.861-1 13.14-2.25 1.813-.5 3.425-1.35 5.036-2.25.201-.1.403-.25.503-.45v-3.4c-.403.05-.654.25-.906.45-.453.35-.957.65-1.46.85a37.17 37.17 0 0 1-6.042 2c-2.266.55-4.582.85-6.898 1.2-.655.1-1.259.2-1.913.25-.705.05-1.46.1-2.165.25-1.31-.1-2.568-.05-3.877 0-1.51-.15-3.072-.25-4.582-.2-.302 0-.604-.05-.906-.05-.252-.2-.504-.15-.806-.2-2.316-.3-4.531-.9-6.797-1.55-.856-.25-1.611-.65-2.417-1-.453-.2-.705 0-.755.45-.05.85 0 1.65.1 2.55.303.2.605.35.907.55 1.309.75 2.769 1.1 4.179 1.5 1.812.55 3.625 1.1 5.488 1.05l.1.05.252-.05zM32.85 32.5h-.402c-.303-.2-.605-.15-.957-.15-1.057-.05-2.165-.05-3.172-.2-.202.2-.202.4-.252.6 0 .35 0 .7-.05 1.1-.1.75-.403 1-1.158 1.1-.252 0-.504-.05-.705.15-.302 2.05-.353 4.15-.252 6.25.252.1.453.15.604.2.806.3 1.209.9 1.259 1.75v.95c0 .25-.05.5.252.75 1.208-.1 2.517.3 3.826.25 1.41.05 2.82.15 4.18.2.553 0 1.107.1 1.66-.15.454.05.958.1 1.41-.05.152 0 .303.05.454.05 2.618-.25 5.186-.5 7.754-.95.705-.1 1.36-.4 2.064-.6-.201-1.95.453-3.35 2.467-3.85-.1-1.85.1-3.65-.1-5.5-.202-.05-.353-.1-.504-.15-1.108-.3-1.31-.55-1.46-1.7-.05-.35 0-.8-.252-1.1-1.56.2-3.071.45-4.582.6-2.316.25-4.632.35-6.948.35-.252 0-.503-.05-.705.15-.705-.1-1.41-.05-2.115.05-.704-.15-1.51-.25-2.316-.1zm22.708-8.05c-.151-.3-.352-.3-.503-.35-1.058-.2-2.115-.4-3.223-.6-2.417-.4-4.884-.55-7.3-.65-3.223-.1-6.445-.05-9.668.25-1.712.15-3.423.3-5.135.55a57.1 57.1 0 0 0-6.445 1.45c-.453.15-.957.2-1.41.55.1.05.151.15.252.15.201.05.352.15.554.2 2.417.5 4.833.85 7.3.9 2.518.05 4.985.1 7.503.05 2.517 0 4.984-.2 7.451-.45 1.914-.15 3.827-.55 5.74-.85 1.611-.15 3.223-.6 4.884-1.2zm2.568-1.4c-.1-.35-.302-.45-.504-.55a9.923 9.923 0 0 0-2.014-.8c-1.812-.45-3.625-.7-5.437-.9-1.612-.2-3.273-.25-4.935-.3-4.531-.1-9.063.05-13.594.55-3.172.35-6.294.9-9.315 1.75-.654.2-1.309.4-1.963.65-.504.15-.957.45-1.31.8-.15.15-.2.35-.05.55.554.55 1.31.65 1.964.3.654-.35 1.309-.65 2.014-.85 1.007-.3 2.014-.55 3.02-.8 3.223-.8 6.496-1.25 9.769-1.4 5.387-.2 10.774-.3 16.112.45 1.61.25 3.272.4 4.833 1 .554.25 1.007.1 1.41-.45zm-33.583 17.9c0-2 0-4.05.05-6.15-.352-.15-.655-.25-.957-.35-.906-.3-1.36-.9-1.258-1.9.05-.4 0-.85 0-1.3-1.058-.3-2.014-.6-3.072-.9 0 .3-.05.5-.05.7 0 1.5 0 3.05.05 4.55 0 1.2.151 2.4.101 3.6-.05 1.1.1 2.2.201 3.35.806.5 1.612.8 2.568 1 .05-.45.05-.8.1-1.15.152-.85.504-1.15 1.36-1.25.302-.05.504.05.907-.2zm14.853 34.5v-23.9c0-.05-.05-.05-.05-.1s-.05-.05-.152-.15c-.604 0-1.208 0-1.863.2 0 .15-.05.35-.05.5.05.85.1 1.65.1 2.5v12.1c0 2.25-.1 4.55-.05 6.8 0 .65-.15 1.35.101 2 .604.15 1.209.2 1.964.05zm15.81-33.55c.604-.3 1.057-.5 1.51-.8.403-.25.554-.55.604-1.1.252-3.4.101-6.75.151-10.15 0-.2 0-.4-.302-.5-.503.2-1.057.45-1.56.65-.202.4-.101.8-.051 1.15.201 1.35-.403 2.25-1.611 2.75-.252.1-.504.25-.755.35v5.4c.352.05.654.1 1.007.15.553.1.856.45.906.95.05.35.05.65.1 1.15zm-6.042 39.3c.402-.45.705-.9.553-1.5-.855-.35-8.156-2.4-8.81-2.5-.101.4-.101.75.1 1.2 2.77.75 5.488 1.65 8.157 2.8zm-13.947-4c-.907.25-1.863.55-2.82.85-.956.3-1.913.5-2.87.85-.956.3-1.963.4-2.87.9.05.55.202 1.05.554 1.3.302.1.403 0 .554-.05 1.259-.55 2.568-1 3.827-1.4 1.057-.35 2.114-.7 3.222-1 .503-.15.655-.35.655-.85.05-.25 0-.45-.252-.6zm18.83-46.7c-1.057.25-2.114.3-3.07.7 0 .75.2 1.35.402 2 .957.2 1.712.05 2.518-.4.251-.15.402-.3.402-.55 0-.55.151-1.1-.251-1.75zm-17.32 45.7c-.05.75-.1 1.3-.15 1.9 0 .4.251.7.553.65.806-.1 1.662.2 2.568-.15 0-.35.05-.7 0-1.05-.05-.35.151-.7-.151-1.1-.906.15-1.813-.05-2.82-.25zm-13.09-34c-.353.55-.504 1.05-.252 1.7 1.007.4 2.014.7 3.222.65 0-.4.05-.8.05-1.2 0-.35-.201-.6-.554-.7-.805-.25-1.56-.55-2.467-.45zm27.239 1.15c.956 0 1.762-.4 2.567-.65.252-.05.403-.3.403-.55.05-.4.151-.85-.15-1.25-.404 0-.756-.05-1.109 0-1.258.35-1.963.3-1.711 2.45zM23.737 33.3c1.108.5 1.611.55 3.021.25.1-.5.151-1.05-.1-1.65-1.058-.05-2.015-.45-3.072-.4 0 .7 0 1.2.151 1.8z" fill="#010001"/><path d="M37.382 32.5c.201-.15.453-.15.705-.15 2.316 0 4.632-.1 6.948-.35 1.51-.15 3.02-.4 4.582-.6.252.3.201.75.252 1.1.15 1.15.352 1.4 1.46 1.7.15.05.302.1.503.15.202 1.8 0 3.65.1 5.5-2.063.5-2.718 1.9-2.466 3.85-.705.2-1.36.5-2.065.6-2.567.4-5.135.7-7.753.95-.151 0-.303 0-.454-.05.252-.45.907 0 1.209-.5v-6.15c-.302-.7-.202-1.4-.202-2.1V33.2c0-.25.05-.5-.201-.65-.906 0-1.762-.05-2.618-.05z" fill="#D0E9EA"/><path d="M55.558 24.45c-1.611.55-3.273 1-4.934 1.3-1.914.3-3.776.65-5.74.85-2.467.2-4.985.4-7.452.45-2.517 0-4.984 0-7.502-.05-2.467-.05-4.884-.4-7.3-.9-.202-.05-.403-.1-.554-.2-.05-.05-.152-.1-.252-.15.453-.3.906-.4 1.41-.55a57.1 57.1 0 0 1 6.444-1.45c1.712-.25 3.424-.4 5.136-.55 3.222-.25 6.445-.3 9.667-.25 2.467.05 4.884.2 7.3.65 1.058.2 2.116.35 3.223.6.202-.05.353 0 .554.25z" fill="#F4E6D0"/><path d="M36.274 28.25c1.108-.05 2.165-.05 3.273-.1 4.984-.2 9.919-.8 14.752-2 1.46-.35 2.77-1.1 4.129-1.7.05.05.151.1.151.15.05.95.05 1.9-.1 2.85-1.058.75-2.216 1.15-3.374 1.55-3.172 1-6.495 1.4-9.818 1.85-1.158.15-2.316.2-3.474.25-3.273.15-6.596.35-9.869.15-.403 0-.806.05-1.208-.1v-2.9c1.057-.05 2.114-.05 3.121.05-.453.9-.201 1.85-.15 2.8h2.87c.654-.6.402-1.35.402-2.05 0-.5-.554-.5-.705-.8zm20.04-1.35c-.454-.2-.806-.15-1.21 0-.905.3-1.812.65-2.718.8-1.611.25-3.172.7-4.783 1-.403.05-.655.3-.856.6.302.5.755.4 1.158.3 1.158-.2 2.316-.45 3.474-.7 1.31-.3 2.618-.6 3.927-1.05.403-.15.806-.35 1.007-.95z" fill="#D0E9EA"/><path d="M37.382 32.5c.856.05 1.661.05 2.467.1.252.2.201.45.201.65v3.25c0 .7-.1 1.45.202 2.1.05.1 0 .25 0 .35v5.8c-.302.5-.957.05-1.209.5-.453.15-.906.1-1.41.05-.805-.15-1.61.1-2.366-.15-.05-.15-.1-.2-.1-.25V32.55c.805-.1 1.51-.15 2.215-.05z" fill="#F3FFFF"/><path d="M38.892 46.7c.705-.15 1.41-.2 2.165-.25.655-.05 1.26-.15 1.914-.25 2.316-.35 4.632-.65 6.898-1.2 2.064-.5 4.078-1.2 6.041-2 .504-.2 1.007-.5 1.46-.85.252-.2.504-.4.907-.45v3.4c-.1.2-.302.35-.504.45-1.61.9-3.222 1.75-5.035 2.25-4.33 1.25-8.71 2-13.14 2.25h-.605c-.1-1.1-.1-2.25-.1-3.35zm17.572-2.55c-.503.15-1.107.25-1.661.4-.806.2-1.611.55-2.417.65-1.158.15-2.215.55-3.373.8-.252.05-.454.2-.655.3-.201.1-.302.25-.151.55.554.1 1.158.1 1.762-.05 1.561-.4 3.072-.75 4.632-1.15.705-.2 1.36-.4 1.964-.85.252-.15.252-.4-.1-.65z" fill="#D0E9EA"/><path d="M58.126 23.05c-.403.55-.856.7-1.46.45-1.561-.6-3.172-.8-4.834-1-5.337-.75-10.775-.7-16.112-.45-3.272.15-6.545.6-9.768 1.4-1.007.25-2.014.5-3.02.8-.705.2-1.36.5-2.015.85-.654.35-1.41.25-1.963-.3a.355.355 0 0 1 .05-.55c.403-.35.806-.65 1.31-.8.654-.2 1.308-.45 1.963-.65 3.071-.85 6.193-1.4 9.315-1.75 4.531-.5 9.063-.6 13.594-.55 1.662.05 3.323.1 4.934.3 1.813.2 3.676.45 5.438.9.705.2 1.36.45 2.014.8.252.1.453.2.554.55z" fill="#AACECF"/><path d="M24.543 40.95c-.403.25-.655.15-.856.15-.856.05-1.209.4-1.36 1.25-.05.35-.05.7-.1 1.15-.957-.2-1.813-.5-2.568-1-.101-1.1-.252-2.2-.202-3.35.05-1.2-.1-2.4-.1-3.6-.05-1.5 0-3.05-.05-4.55 0-.2 0-.4.05-.7 1.057.3 2.014.6 3.071.9 0 .45.05.85 0 1.3-.1 1 .302 1.6 1.259 1.9.302.1.604.2.956.35-.05 2.15-.1 4.2-.1 6.2zm14.853 34.5c-.755.15-1.31.1-1.964-.05-.252-.65-.1-1.35-.1-2-.05-2.25.05-4.55.05-6.8V54.5c0-.85-.05-1.65-.1-2.5 0-.15.05-.3.05-.5a8.16 8.16 0 0 1 1.862-.2c.101.05.101.1.151.15 0 .05.05.05.05.1v23.9z" fill="#CFE8E9"/><path d="M31.894 45.25c-1.31.05-2.618-.3-3.827-.25-.302-.25-.252-.5-.252-.75v-.95c-.05-.85-.453-1.4-1.258-1.75-.202-.05-.403-.15-.605-.2-.1-2.1-.05-4.2.252-6.25.252-.25.504-.15.705-.15.806-.1 1.057-.35 1.158-1.1.05-.35.05-.7.05-1.1 0-.2 0-.4.252-.6 1.007.15 2.115.15 3.172.2.302 0 .655-.05.957.15-.655.05-1.259.05-1.964.1v8.3c0 1.35-.1 2.7.05 4.05.504 0 .957.05 1.36.05-.05.1-.05.15-.05.25z" fill="#D0E9EA"/><path d="M55.206 41.9c-.05-.5-.05-.8-.101-1.15-.1-.55-.353-.9-.906-.95-.302-.05-.605-.1-1.007-.15v-5.4c.251-.1.503-.25.755-.35 1.208-.55 1.762-1.45 1.611-2.75-.05-.35-.151-.7.05-1.15.504-.2 1.007-.45 1.561-.65.302.1.302.3.302.5-.05 3.4.101 6.75-.15 10.15-.051.5-.202.85-.605 1.1-.453.3-.906.5-1.51.8z" fill="#CFE8E9"/><path d="M31.894 45c-.453 0-.856-.05-1.36-.05-.15-1.4-.05-2.75-.05-4.05v-8.3c.705-.05 1.36-.1 1.964-.1h.402v3.8c0 .35.05.7.101 1.05a8.55 8.55 0 0 1 0 3.2c-.05.4-.151.75-.151 1.15v2.5c0 .25.05.5-.201.7-.151.1-.403.1-.705.1z" fill="#F3FFFF"/><path d="M31.894 45c.251 0 .554-.05.805-.05.252-.25.202-.5.202-.7v-2.5c0-.4.1-.8.15-1.15.152-1.05.202-2.15 0-3.2-.05-.35-.1-.7-.1-1.05v-3.8c.806-.15 1.611-.05 2.417 0V44.9c0 .05.05.15.1.25.756.2 1.561 0 2.367.15-.554.25-1.108.15-1.662.15-1.41-.05-2.82-.15-4.179-.2-.1-.1-.1-.15-.1-.25z" fill="#D0E9EA"/><path d="M29.477 49.8c-1.913.05-3.726-.5-5.488-1.05-1.41-.45-2.87-.75-4.18-1.5-.301-.2-.603-.35-.906-.55-.1-.9-.15-1.7-.1-2.55.05-.45.302-.65.755-.45.806.35 1.611.75 2.417 1 2.215.6 4.48 1.25 6.797 1.55.252.05.554 0 .806.2-.252.1-.554-.05-.856.4v2.7c.15.15.604-.15.755.25zm-9.063-3.7c-.05.5.352.65.705.85 1.41.65 2.92 1.1 4.481 1.45.403.1.806.15 1.208.2.302.05.504-.25.403-.55-.1-.25-.252-.4-.503-.45-.605-.1-1.209-.2-1.763-.4-1.107-.35-2.215-.7-3.323-1.1-.453-.15-.805-.3-1.208 0z" fill="#CFE8E8"/><path d="M29.477 31.05c-1.611.1-3.172-.25-4.733-.5-1.41-.25-2.77-.6-4.129-.95-.201-.05-.402-.1-.553-.2-1.41-.5-1.511-.8-1.511-1.95 0-.5-.201-1-.05-1.55.604.2 1.158.45 1.712.6 2.567.8 5.236 1.15 7.904 1.4.806.1 1.612 0 2.367.25-.604 0-1.208.05-1.762.05-.252 0-.504-.05-.655.25-.05.75-.05 1.5 0 2.35.403.05.705.05 1.007.05.202 0 .302.05.403.2zm-4.532-1.2c.303 0 .403.05.454 0 .15 0 .302-.1.352-.25.05-.2-.05-.3-.151-.4-.252-.25-.554-.3-.856-.35-1.208-.15-2.417-.45-3.625-.8l-.604-.15c-.252-.05-.504 0-.605.25-.1.2.101.5.454.6.352.15.755.25 1.158.35 1.208.4 2.416.6 3.423.75z" fill="#CEE7E8"/><path d="M30.434 46.45c1.51 0 3.07.1 4.581.2-.453 1.05-.201 2.15-.201 3.3 1.208.05 2.316.05 3.373.1-.604.25-1.258.15-1.913.15-2.115.15-4.23-.2-6.344-.3-.1 0-.201-.1-.302-.15.554-.1 1.108.05 1.712-.15-.302-.95.201-1.95-.05-2.8-.252-.2-.655.05-.856-.35z" fill="#D0E9EA"/><path d="M38.238 50.1c-1.108-.05-2.216-.05-3.374-.1 0-1.15-.251-2.25.202-3.3 1.309-.05 2.568-.1 3.877 0v3.35c-.252.1-.453.1-.705.05z" fill="#F0FCFC"/><path d="M49.164 81.2c-2.669-1.1-5.438-2-8.157-2.75a1.68 1.68 0 0 1-.1-1.2c.654.1 7.955 2.15 8.81 2.5.202.55-.1.95-.553 1.45zm-13.947-4c.252.15.252.4.252.55 0 .55-.152.75-.655.85-1.108.3-2.165.65-3.222 1-1.31.45-2.568.9-3.827 1.4-.151.05-.252.2-.554.05-.352-.25-.503-.75-.554-1.3.907-.5 1.914-.6 2.87-.9.957-.3 1.914-.55 2.87-.85.957-.25 1.913-.55 2.82-.8z" fill="#CAE2E3"/><path d="M36.274 28.25c.202.3.705.3.705.75 0 .7.201 1.45-.403 2.05h-2.87c-.05-.95-.302-1.9.151-2.8.252-.05.504-.05.705 0 .504.35.957.35 1.46 0h.252z" fill="#F3FFFF"/><path d="M30.434 46.45c.201.35.604.1.906.4.252.9-.252 1.85.05 2.8-.604.25-1.208.05-1.712.15h-.1l-.101-.05c-.151-.4-.604-.1-.755-.3v-2.7c.251-.4.604-.3.856-.4.302.1.553.1.856.1z" fill="#F1FDFD"/><path d="M54.048 30.5c.402.6.251 1.2.251 1.75 0 .25-.201.4-.402.55-.756.45-1.561.6-2.518.4-.201-.6-.403-1.25-.403-2 .957-.4 2.014-.45 3.072-.7z" fill="#CAE2E3"/><path d="M29.477 31.05c-.1-.15-.201-.2-.403-.2-.302 0-.604-.05-1.007-.05-.05-.8-.05-1.6 0-2.35.202-.3.453-.2.655-.25.604 0 1.208-.05 1.762-.05.05-.05.1-.05.151.05v2.9c-.352.05-.755.05-1.158-.05z" fill="#F0FCFC"/><path d="M36.727 76.2c1.007.2 1.914.4 2.77.25.302.4.1.8.15 1.1.05.35 0 .7 0 1.05-.906.35-1.711.05-2.567.15-.302.05-.554-.3-.554-.65.1-.6.15-1.15.201-1.9z" fill="#CEE7E8"/><path d="M23.636 42.2c.907-.1 1.662.2 2.417.4.353.1.554.35.554.7 0 .4 0 .8-.05 1.2-1.209.1-2.216-.25-3.223-.65-.201-.6 0-1.1.302-1.65zm27.24 1.15c-.252-2.15.453-2.1 1.762-2.45.352-.1.705 0 1.107 0 .252.4.152.85.152 1.25 0 .25-.152.5-.403.55-.856.25-1.662.65-2.618.65z" fill="#C9E1E2"/><path d="M23.737 33.3c-.151-.6-.151-1.15-.1-1.75 1.057-.05 2.013.35 3.07.4.252.6.202 1.1.101 1.65-1.46.25-1.963.2-3.07-.3z" fill="#C8E0E1"/><path d="M36.022 28.25c-.503.35-.956.35-1.46 0 .504-.15.957-.1 1.46 0z" fill="#D0E9EA"/><path d="M56.313 26.9c-.201.6-.554.8-1.007.95-1.258.45-2.568.8-3.927 1.05-1.158.25-2.316.45-3.474.7-.403.05-.906.2-1.158-.3.201-.35.403-.55.856-.6 1.611-.25 3.172-.7 4.783-1 .957-.15 1.813-.5 2.719-.8.352-.15.755-.2 1.208 0z" fill="#FCFEFE"/><path d="M56.464 44.15c.353.25.353.5.101.7-.604.4-1.259.65-1.964.85-1.51.4-3.07.75-4.632 1.15-.604.15-1.158.15-1.762.05-.1-.3 0-.45.151-.55.201-.15.403-.25.655-.3 1.107-.25 2.215-.65 3.373-.8.806-.1 1.611-.45 2.417-.65.554-.2 1.107-.3 1.661-.45z" fill="#FCFEFD"/><path d="M20.414 46.1c.403-.3.755-.1 1.158 0 1.108.35 2.215.75 3.323 1.1.554.15 1.158.25 1.762.4.252.05.403.2.504.45.1.3-.1.6-.403.55-.403-.05-.806-.1-1.208-.2-1.51-.35-3.021-.8-4.481-1.45-.303-.2-.705-.35-.655-.85z" fill="#090A0A"/><path d="M24.945 29.85c-1.007-.15-2.215-.35-3.423-.7-.403-.1-.756-.2-1.158-.35-.353-.1-.504-.4-.454-.6.101-.25.353-.3.605-.25.201.05.402.05.604.15 1.208.35 2.417.65 3.625.8.302.05.655.1.856.35.1.1.201.25.151.4a.378.378 0 0 1-.352.25c-.05 0-.151-.05-.454-.05z" fill="#0B0C0D"/></g></svg>