<svg width="120" height="120" viewBox="0 0 120 120" xmlns="http://www.w3.org/2000/svg"><g fill="none" fill-rule="evenodd"><path d="M52.97 73.465l-.009.622c-.082 6.337-.397 33.416 2.247 45.777h8.965c4.535-12.186 4.796-38.6 5.045-44.497.552-12.943.624-26.91-2.321-39.53-1.234-5.282-3.544-12.77-7.91-6.282-7.65 11.37-5.846 30.463-6.017 43.91" fill="#5E763F"/><path d="M43.583 94.751c.711 2.3 2.96 16.825 6.467 25.113h7.672c-.092-.835-.216-1.617-.276-2.229-.545-5.579-1.884-10.992-2.637-16.574-1.135-8.414-4.901-15.825-8.087-23.62-1.38-3.374-2.296-10.59-5.995-12.428-4.161-2.064-4.546 2.499-4.46 6.012.2 8.218 4.928 16.014 7.316 23.726m16.319 25.113h4.696c2.592-11.67 6.806-23.003 11.412-34 2.511-6 5.185-11.941 7.739-17.924 1.34-3.142 7.896-19.486-2.496-14.458-.99.48-1.717 1.579-2.622 2.15-.985.618-2.058.894-2.971 1.685-2.718 2.354-4.43 6.03-6.248 9.058-2.292 3.819-3.425 7.849-4.565 12.169-1.877 7.114-2.554 14.448-4.052 21.641-1.12 5.376-1.346 10.634-1.232 16.11.013.598.109 2.042.339 3.57" fill="#5E763F"/><path d="M57.31 119.864c-.485-15.4-.138-30.813 1.171-46.168 1.322-15.516 2.812-31.633 8.583-46.213.42-1.063-1.293-1.521-1.709-.471-5.63 14.22-7.097 29.84-8.493 44.966-1.471 15.912-1.835 31.918-1.33 47.886h1.778m-7.95-32.481c.494 10.83.213 21.696 1.214 32.481h1.753c-1.06-11.068-.728-22.246-1.235-33.35-.612-13.423-2.737-26.753-4.854-40.005-.181-1.125-1.89-.646-1.71.471 2.14 13.396 4.212 26.837 4.831 40.403m10.075 32.481c2.6-20.685 7.972-40.957 15.263-60.476.4-1.073-1.315-1.532-1.71-.47-7.347 19.676-12.72 40.098-15.327 60.946h1.774" fill="#3D522A"/><path d="M61.82 4.075C63.532 1.002 65.597-.653 67.68.46c2.882 1.534.548 8.695.175 11.113C68.822 9.197 71.39.865 74.554.83c4.74-.054.39 9.282-.7 11.388 1.28-2.45 7.043-12.422 10.172-7.523 4.24 6.67-10.956 30.326-17.978 28.755-11.615-2.594-9.53-19.848-4.227-29.376" fill="#DE4F3C"/><path d="M75.951 42.378c.116-.069.231-.135.35-.198 4.162-2.213 9.61-.057 9.097 5.43-.474 5.059-6.666 21.308-13.822 19.736-7.786-1.71-3.17-12.867-1.073-17.179 1.405-2.89 2.596-6.082 5.448-7.79" fill="#B74C32"/><path d="M42.677 51.885c-1.69-1.374-3.333-3.396-4.574-5.148-1.83-2.583-10.77-26.181-2.625-25.018 2.712.389 4.43 7.61 5.51 9.744-1.041-2.06-1.398-10.313 1.783-10.281 3.502.035 7.03 11.895 7.813 14.644 1.318 4.626.65 23.023-7.907 16.06" fill="#DE4F3C"/></g></svg>