<svg xmlns="http://www.w3.org/2000/svg" width="113.111" height="130.837" viewBox="-3.454 0.602 113.111 130.837"><defs><style/></defs><g id="ID0.9723896710202098"><path id="R_Arm_2_" fill="#F05A28" stroke="#000" stroke-linecap="round" d="M73.57 118.405s6.281 8.679 1.812 11.944c-2.398 1.763-5.729-1.726-6.648-2.987-1.332-1.832-1.771-2.273-2.056-4.57-.282-2.292-1.409-10.72-.952-13.771.719-4.781 4.01-12.738 6.396-1.604 0 0 .752 6.307 1.352 10.521l.096.467h0zm-1.36-1.751l1.359 1.751" transform="translate(.7) scale(.9025)"/><g id="Body_1_"><path id="Body_2_" fill="#F05A28" stroke="#000" stroke-linecap="round" stroke-linejoin="round" d="M69.839 108.429c-.432 2.871-1.583 10.349-1.398 11.826l-.269-.603c.552 1.56 1.11 3.778.933 6.086-.344 4.479-2.803 6.879-5.416 8.16l-.029.146-2.242 8.942c.043-.001.424.022 3.105.28 3.398.326 1.816 2.373 1.816 2.373l-6.334-.112-.324-.004-12.799-.229c-.157-.521-.032-2.132.779-6.207.313-1.601.603-2.978.856-4.104l.002-.008c-4.324-3.361-3.805-8.562-2.487-12.242.84-2.354 5.635-20.123 5.635-20.123s2.084-6.824 10.709-4.449c0 0 9.928 1.652 7.464 10.264l-.001.004h0zm-12.63 26.642s2.542.41 6.479-1.17m4.753-13.643c-.226-1.033-1.564-2.854-1.564-2.854m-17.584 14.417s-.289.901-.774 3.157" transform="translate(.7) scale(.9025)"/><path id="Leg_Separation" d="M60.285 145.412h-.021a.501.501 0 0 1-.479-.521.774.774 0 0 0-.206-.6c-.636-.674-2.563-.704-3.715-.722a20.43 20.43 0 0 1-.896-.026.503.503 0 0 1-.445-.642c.413-1.394.813-2.804 1.213-4.214l.506-1.779a.494.494 0 0 1 .618-.343.5.5 0 0 1 .344.618l-.506 1.776c-.341 1.204-.683 2.41-1.033 3.604l.214.004c1.478.021 3.502.053 4.428 1.035.339.358.5.807.479 1.326a.506.506 0 0 1-.501.484z" transform="translate(.7) scale(.9025)"/></g><path id="L_Arm_2_" fill="#F05A28" stroke="#000" stroke-linecap="round" d="M53.505 111.791l-3.281 5.401.015-.095c.105 3.795-.151 10.386-3.172 11.465-1.627.578-5.452 1.509-5.104-8.931.279-8.409 7.787-15.84 10.695-18.409 0 0 2.588 1.44 2.69 4.22.102 2.78-1.845 6.345-1.843 6.349h0zm-3.265 5.306c0-1.609-.446-2.609-.446-2.609" transform="translate(.7) scale(.9025)"/><g id="Head_1_"><path id="Head_2_" fill="#F05A28" stroke="#000" stroke-linecap="round" d="M19.379 39.756s.93-3.812 8.844-11.914c7.91-8.098 16.473-10.887 22.152-13.215 5.679-2.328 9.492-13.96 9.492-13.96s5.229 6.504 10.603 12.418c5.484 6.031 18.254 11.317 31.938 25.09a33.533 33.533 0 0 1 4.188 5.146l.236.207c3.057 2.651 13.896 13.227 12.506 28.625-1.062 11.731-6.396 15.438-8.982 16.434l-.021.086c1.332-2.639 2.125-5.439 2.5-8.282 1.236-9.402-3.83-15.511-7.078-23.688-4.211-10.604-15.73-16.57-30.645-16.273-28.386.561-34.638 16.52-34.638 16.52l-.021.207c5.266 9.78 7.369 31.473-3.414 37.965-11.615 6.983-28.813 4.546-35.511-22.436-6.131-24.694 12.227-32.474 17.627-32.41l.224-.52h0zm87.216 3.565s7.448 11.833 5.024 26.456M19.154 40.275c5.222.141 8.722 3.879 8.722 3.879m12.576 13.001a44.624 44.624 0 0 1-1.492-2.5" transform="translate(.7) scale(.9025)"/><path id="R_Ear" fill="#404041" stroke="#000" d="M111.966 84.658s2.35-4.264 3.936-12.079c1.584-7.82-.529-18.453-.529-18.453 2.625 4.761 4.613 10.871 3.971 18.027-1.029 11.43-6.334 15.328-8.984 16.434l1.606-3.929h0z" transform="translate(.7) scale(.9025)"/><g id="L_Ear" stroke="#231F20"><path id="Outer_Ear" fill="#404041" d="M2.139 75.09c1.201 4.639 3.996 10.063 5.435 12.54 1.435 2.48 4.953 6.315 9.022 8.548 4.072 2.236 6.09 1.979 6.09 1.979 6.162-2.797 8.533-15.012 5.281-28.388-3.455-14.19-11.942-24.311-18.963-22.6-3.75.91-7.157 4.664-8.145 10.457C-.103 63.24.94 70.46 2.139 75.09h0z" transform="translate(.7) scale(.9025)"/><path id="Inner_Ear" fill="#929497" stroke-linecap="round" d="M6.5 63.29c2.701-1.157 7.285 3.496 10.24 10.397 2.952 6.896 3.159 13.431.461 14.587-2.703 1.155-7.285-3.5-10.238-10.399C4.006 70.977 3.801 64.447 6.5 63.29h0zm11.879 23.856C7.257 80.097 7.381 63.116 7.381 63.116" transform="translate(.7) scale(.9025)"/></g><path id="Face_1_" fill="#E6E7E8" stroke="#000" stroke-linecap="round" d="M36.113 95.76c1.301.889 10.918 7.303 21.362 9.905 6.917 1.729 5.188 5.113 5.188 5.113s.279-1.023 5.676-3.355c5.398-2.319 4.75-.271 20.854-4.094 16.104-3.81 22.354-13.156 23.646-22.94 1.238-9.401-3.83-15.51-7.077-23.688-4.212-10.604-15.729-16.57-30.644-16.273-28.392.56-34.644 16.521-34.644 16.521l-.043.172c5.278 9.757 7.403 31.5-3.394 38-.324.194-.652.382-.984.562l.06.077h0z" transform="translate(.7) scale(.9025)"/><path id="Smile" fill="#FFF" stroke="#000" stroke-width=".984" stroke-linecap="round" d="M72.277 84.49c-11.475.774-12.757-14.15-12.757-14.15s6.559-.208 15.023-.733c8.461-.522 10.49 0 10.49 0S83.75 83.716 72.277 84.49h0z"/><path id="R_Eye" d="M98.587 67.651a1.696 1.696 0 0 1-1.63-2.175 2.95 2.95 0 0 0 .078-1.288c-.257-1.631-1.836-2.743-3.482-2.484-1.664.262-2.807 1.804-2.551 3.438a1.698 1.698 0 0 1-1.416 1.942 1.693 1.693 0 0 1-1.942-1.416c-.55-3.482 1.862-6.769 5.38-7.326 3.512-.544 6.818 1.832 7.374 5.312a6.284 6.284 0 0 1-.179 2.774 1.703 1.703 0 0 1-1.632 1.223z" transform="translate(.7) scale(.9025)"/><path id="L_Eye" d="M66.177 67.651a1.697 1.697 0 0 1-1.631-2.175 2.98 2.98 0 0 0 .08-1.288c-.258-1.631-1.832-2.743-3.483-2.484-1.664.262-2.807 1.804-2.551 3.438a1.7 1.7 0 0 1-1.416 1.942 1.695 1.695 0 0 1-1.943-1.416c-.549-3.482 1.863-6.769 5.38-7.326 3.506-.544 6.821 1.832 7.374 5.312a6.284 6.284 0 0 1-.178 2.774 1.703 1.703 0 0 1-1.632 1.223z" transform="translate(.7) scale(.9025)"/></g></g></svg>