<svg width="120" height="120" viewBox="0 0 120 120" xmlns="http://www.w3.org/2000/svg"><g fill="none" fill-rule="evenodd"><path d="M17.772 82.046c-1.906 2.656-2.532 8.954-1.93 12.482.911-.7 2.216-1.237 2.952-2.516.337 1.64 1.083 3.45 2.927 3.495 2.21-3.458 5.455-9.353 8.158-11.454l-12.107-2.007m45.397 4.31c-.982 3.114.392 9.293 2.067 12.46.647-.948 1.72-1.86 2.02-3.305.832 1.455 2.107 2.945 3.874 2.417 1.02-3.97 2.26-10.577 4.173-13.41l-12.134 1.838m35.593-4.663c1.202 2.857.814 9.165-.196 12.585-.657-.804-1.665-1.491-2.093-2.846-.517 1.583-1.398 3.285-2.939 3.108-1.339-3.688-3.187-9.911-5.132-12.315l10.36-.532" fill="#3F3637"/><path d="M28.5 32.484c-8.792-3.564-15.887 2.527-14.706 11.356-9.177-2.932-10.39 12.488-6.432 17.253-3.909 5.43-4.23 13.238 2.899 16.186-3.325 3.56.715 7.826 4.114 9.406 4.56 2.12 7.893-.876 12.092-.538 3.452.278 7.25 3.88 11.113 4.443 4.961.723 7.64-1.295 11.488-3.84 2.57 5.202 19.325 5.514 19.888-1.532 2.632 2.713 7.876 3.203 11.42 3.043 5.123-.23 6.428-3.152 10.562-4.69 4.15-1.545 8.272.893 12.196-2.34 3.345-2.755 4.66-8.518 1.087-11.805-.155-.143-.151-.122.011.061 9.018 2.923 3.933-10.298 3.357-13.425-.304-1.65.517-3.673.223-5.51-.682-4.246-3.236-4.744-5.282-7.906-4.356-6.733-2.369-13.515-13.408-11.757-1.503-6.069-13.137-12.883-17.87-6.007-4.786-3.45-13.839 1.363-14.113 7.06-1.084-4.112-7.948-2.876-9.595.492-4.847-5.095-15.991-4.335-19.045 2.058v-2.008" fill="#DADAD4"/><path d="M78.802 40.72c.267 4.604 5.525 5.214 8.338 2.17.276 3.202 4.15 3.619 6.684 2.724 1.3 3.94 2.871 4.83 2.984 9.005.096 3.533-.775 7.17-1.86 10.378-2.065 6.11-7.644 11.693-14.805 11.135-10.69-.834-19.432-22.24-16.305-31.388 5.941 5.117 11.128.211 15.284-2.947l-.32-1.077" fill="#EEA2A1"/><path d="M67.525 58.223c-3.078-2.342-2.004-7.148 1.017-9.068 3.477-2.21 8.218 1.498 7.9 5.27-.242 2.85-2.489 4.997-5.398 4.913-1.498-.044-2.663-.464-3.519-1.115" fill="#FFFFFE"/><path d="M71.68 51.18c2.697-1.04 5.076 1.869 3.486 4.285-1.415 2.148-5.012 1.492-5.212-1.183-.1-1.343.38-2.582 1.727-3.102" fill="#0A0B09"/><path d="M73.683 52.794c.547-.782 1.9-.397 1.904.584.003.786-.73 1.439-1.418 1.022-.574-.347-.912-.998-.486-1.606m11.406 4.543c-3.357-2.553-2.186-7.795 1.108-9.888 3.792-2.41 8.962 1.633 8.613 5.747-.263 3.108-2.712 5.448-5.885 5.356-1.633-.048-2.903-.505-3.836-1.215" fill="#FFFFFE"/><path d="M89.944 49.434c2.94-1.134 5.535 2.037 3.8 4.672-1.542 2.343-5.465 1.627-5.683-1.29-.11-1.464.415-2.816 1.883-3.382" fill="#0A0B09"/><path d="M91.806 51.419c.597-.853 2.072-.433 2.076.637.004.857-.794 1.568-1.545 1.114-.626-.378-.995-1.088-.53-1.751" fill="#FFFFFE"/><path d="M99.408 40.193c3.448-3.404 17.017-8 20.03-1.464 2.847 6.175-12.718 6.843-16.546 6.855l-3.484-5.391" fill="#DADAD4"/><path d="M101.247 42.622c1.987-2.74 15.996-7.396 14.65-1.597-5.035 1.036-10.859 1.149-15.424 2.367l.774-.77" fill="#EEA2A1"/><path d="M62.39 43.018c-3.348-3.403-16.525-7.999-19.45-1.463-2.765 6.175 12.35 6.842 16.067 6.854l3.383-5.39" fill="#FFFFFE"/><path d="M60.468 45.447c-1.93-2.74-15.533-7.395-14.226-1.597 4.89 1.037 10.545 1.15 14.978 2.368l-.752-.77" fill="#EEA2A1"/><path d="M76.484 71.237c4.107 2.382 15.48-.597 8.462-4.41-2.842-1.545-11.082 2.89-8.462 4.41" fill="#3F3637"/><path d="M17.658 39.067c-.635-7.406-15.867-6.137-11.15.3-5.782-3.633-8.093 4.24-5.37 8.244 2.514 3.698 8.92 3.737 12.989 4.003l3.53-12.547" fill="#DADAD4"/><path d="M11.993 55.604c.28-2.279 1.32-3.72 2.701-5.47.782-.992-.181-2.511-1.413-1.823-2.576 1.438-4.184 4.963-2.875 7.72.405.853 1.496.308 1.587-.427m6.819-13.163c.325-.491.76-.852 1.205-1.23.546-.466 1.27-.725 1.597-1.41.107-.221.079-.539-.174-.66-1.758-.84-3.427 1.336-3.99 2.73-.328.815.923 1.236 1.362.57m1.773 3.226c-1.051.074-1.819.438-2.364 1.387-.588 1.022-.64 2.495-.064 3.526.526.943 1.74.402 1.85-.5.143-1.158-.207-2.384.907-3.207.465-.345.385-1.256-.329-1.206m-4.348 11.344c-1.716.965-3.741 3.777-2.196 5.663.243.297.738.113.83-.218.219-.784.076-1.615.24-2.42.2-.974.806-1.84 1.541-2.489.299-.263-.083-.722-.415-.536m12.756-8.144c-2.456.915-4.378 3.243-5.243 5.647-1.066 2.964.618 6.63 3.996 6.862 1.163.08 1.528-1.361.877-2.106-.595-.68-1.595-1.245-1.94-2.11-.312-.78-.21-1.599.005-2.386.533-1.955 1.77-3.592 2.759-5.32.162-.283-.109-.715-.454-.587m4.693 12.909c-.904 1.058-1.233 2.599-.89 3.953.214.845 1.49.84 1.708 0 .277-1.066.095-2.225.289-3.312.104-.585-.636-1.192-1.107-.64m-8.975 3.67c-2.515.272-3.098 4.296-1.301 5.686.28.218.687.095.706-.29.04-.835-.143-1.634-.102-2.462.047-.952.657-1.555 1.024-2.368.103-.229-.01-.6-.327-.566M66.397 36.61c-.888 1.148.008 2.832 1.08 3.538 1.422.935 3.466.883 4.94.128.589-.301.66-1.01.405-1.534-.393-.81-1.773-.657-2.504-.705-.63-.041-1.304-.1-1.884-.373-.64-.3-1.03-.88-1.664-1.15-.15-.065-.273-.032-.373.097m10.183-5.319c-1.324-.343-2.6.155-3.544 1.109-.767.775.364 1.84 1.177 1.171.727-.598 1.45-1.284 2.368-1.577.336-.107.363-.61 0-.703m-8.626-2.108c-.568-.093-1.177-.228-1.72.029-.594.28-1.119.957-.826 1.616.065.146.289.278.449.256.481-.064.677-.455 1.013-.642.218-.12.696-.22 1.084-.283.487-.081.487-.895 0-.976m12.89 7.613c.015-.628.101-1.396.513-1.907.536-.667 1.385-.847 2.103-1.242.84-.463.447-1.748-.48-1.758-1.336-.014-2.618.784-3.346 1.884-.689 1.04-.542 2.294-.002 3.35.305.596 1.197.286 1.212-.327m3.586 2.066c1.011.505 1.78.648 2.917.494 1.004-.135 2.127-.961 2.542-1.864.332-.723-.407-1.763-1.213-1.208-1.162.802-2.44 1.63-3.942 1.46-.599-.068-.82.86-.304 1.118m18.562 13.79c-.047.14-.504.817-.621 1.23-.267.935-.466 1.883-.73 2.82-.326 1.152-1.7 4.314.08 4.88.858.273 1.622-.693 2.054-1.277.617-.836.706-2.216.793-3.209a10.41 10.41 0 0 0-.182-2.944c-.063-.312-.097-.703-.26-.982-.077-.129-.411-.604-.382-.518a.394.394 0 0 0-.752 0m1.542 11.147c-.751.525-1.498 1.058-2.252 1.596-.947.675-1.82 1.234-2.433 2.253-.252.42.082.863.52.903 1.324.12 2.402-.42 3.42-1.213.971-.758 1.533-1.527 1.84-2.703.152-.587-.536-1.229-1.095-.837" fill="#FFFFFE"/></g></svg>