<svg width="120" height="120" viewBox="0 0 120 120" xmlns="http://www.w3.org/2000/svg"><g fill="none" fill-rule="evenodd"><path d="M32.11 17.555c-.29 2.045-.016 4.17.988 6.194 2.735 5.506 9.06 9.622 14.797 11.355 6.46 1.95 13.679 1.241 19.635-1.929 1.687-.898 3.295-2.002 4.512-3.475 5.968-7.217.117-17.203-6.798-21.035-7.434-4.119-14.902-3.882-22.972-2.009-5.197 1.206-9.438 5.798-10.163 10.9" fill="#E7B06B"/><path d="M81.165 19.823l-6.986 3.394 6.986-8.01-2.023-1.35c-1.831 2.756-8.017 8.914-8.3 9.206l-1.518 1.574-.003-.025-.118-1.086c-.036-.327-.548-.337-.52 0l.086 1.086c.015.183.019.374.038.561a17883.03 17883.03 0 0 0-3.566 3.697c.52-5.446 1.03-10.894 1.543-16.341h-6.038l-1.813 13.613-5.855-11.189-1.328 1.172 2.951 4.423h-5.46s-2.213-4.285-2.656-4.423c-.442-.139-1.18.638-1.18.638l2.95 4.83 6.198.738 4.1 5.91c-.255 1.921-.51 3.842-.767 5.763-.416 3.124-.531 6.275-.42 9.423-.2-.17-.394-.346-.59-.521a.38.38 0 0 0-.234-.1c-.173-.15-.412.044-.337.248a.36.36 0 0 0 .035.266c.228.401.543.729.908 1.01.083.063.172.134.265.201.22 4.207.834 8.401 1.692 12.507.779 3.725 1.918 7.322 2.903 10.99.084.31.164.624.244.937a7.389 7.389 0 0 1-.608-.273c-.631-.327-1.248-.666-1.822-1.087-.203-.148-.46.184-.27.35.812.706 1.845 1.568 2.941 1.96.3 1.2.588 2.406.894 3.601.41 1.606 1.492 3.97 1.376 5.616-.333 4.755-.669 9.509-1.002 14.263-.468-.327-.906-.689-1.248-1.15-.226-.305-.73-.035-.522.304.378.613.852 1.175 1.429 1.607l.273.206c-.537 7.644-1.073 15.288-1.612 22.932-.025.354-.047.726.11 1.044.182.367.565.585.941.748 2.064.89 4.452.703 6.61.312.144-.026.3-.06.4-.167.11-.122.122-.301.128-.466.274-7.88.755-15.791 1.028-23.692.072-.061.138-.12.195-.17a3.904 3.904 0 0 0 1.143-1.614c.092-.236-.27-.442-.43-.25-.27.325-.563.658-.873.962.102-3.21.17-6.416.17-9.62.157-4.387-.864-8.315-1.804-12.564-.1-.45.736-1.759.907-2.166.732-1.748 1.52-3.484 2.229-5.24 1.561-3.865 3.318-7.079 3.49-11.328.022-.535.352-7.585.41-7.585h-1.18l-.738 10.773-3.056-10.05.98 6.004 1.353 5.7-4.958 11.35-2.507-11.326c-.436-1.97-.963-3.93-1.44-5.9.343-.291.68-.59 1.024-.878.247-.206-.075-.62-.343-.444-.285.187-.577.365-.866.547-.546-2.328-.999-4.672-1.128-7.064-.2-3.71.532-7.53.88-11.229 2.167-2.567 4.345-5.124 6.488-7.711.12-.145.252-.298.434-.346.159-.042.326.005.486.041 1.885.428 3.429-.576 5.002-1.43.558-.302 4.76-2.568 4.881-2.406l-.982-1.306" fill="#F3ECD9"/><path d="M64.228 116.09c-.326-.006-.325-.5 0-.506l1.727-.03c.512-.01 1.043-.079 1.53.101a.19.19 0 0 1 0 .364c-.489.18-1.017.111-1.53.102l-1.727-.031zm1.76-8.906c-.328 0-.396-.49-.078-.571.645-.165 1.312-.228 1.977-.25.592-.019 1.219-.06 1.757.21.201.102.125.385-.06.45-.534.187-1.135.097-1.697.105-.633.007-1.266.057-1.9.056zm-.637-2.185c-.392-.02-.394-.627 0-.612 1.21.047 2.578-.068 3.76.205.247.057.271.486 0 .524-1.203.168-2.546-.058-3.76-.117zm.641-15.546c-.392-.018-.394-.623 0-.611l2.159.067c.627.02 1.32-.048 1.915.16.22.076.246.408 0 .473-.615.162-1.283.043-1.915.014l-2.159-.103zm-.16-2.43c-.358-.02-.36-.574 0-.559l1.813.075c.525.022 1.12-.038 1.61.16.186.074.215.342 0 .406-.511.154-1.08.041-1.61.013l-1.813-.095zm1.124-10.521c-.394.033-.482-.637-.094-.69l1.473-.2c.42-.057.855-.145 1.271-.04.247.062.31.44.073.559-.38.191-.82.208-1.24.244l-1.483.127zm-6.983-31.635c-.416-.08-.238-.708.175-.633l1.383.252c.416.075.859.107 1.238.299.275.138.11.503-.142.527-.423.042-.859-.102-1.274-.181l-1.38-.264zm.813-12.068c-.365-.057-.208-.608.152-.553.677.104 1.5.113 2.124.403.233.108.081.404-.116.43-.347.043-.696-.048-1.038-.102l-1.122-.178zm.717-13.901c-.412-.02-.413-.663 0-.641l1.727.088c.51.026 1.056-.003 1.546.153.22.07.253.427 0 .48-1.01.212-2.243-.03-3.273-.08zm-.001 44.439c.586-.021 1.171-.044 1.757-.066.487-.018.997.025 1.424-.23.16-.096.19-.377 0-.464-.46-.21-.929-.125-1.424-.09l-1.757.126c-.46.033-.47.742 0 .724m-.962-3.277c.588-.031 1.178-.05 1.764-.106a.166.166 0 0 0 0-.332c-.586-.056-1.176-.075-1.763-.106-.35-.018-.35.562 0 .544m-2.244-11.795c1.066.1 2.136.243 3.207.25.315.003.401-.5.076-.562-1.081-.209-2.188-.282-3.283-.397-.452-.047-.453.667 0 .71m-.001-9.481c.989.003 2.156.171 3.119-.062.258-.063.259-.461 0-.524-.964-.234-2.131-.066-3.12-.063-.417.002-.417.648 0 .65" fill="#D8D1C1"/><path d="M65.762 112.626c.637.12 1.28.204 1.922.286.578.075 1.166.198 1.744.103.3-.05.22-.443 0-.531-.523-.21-1.138-.21-1.698-.26a33.227 33.227 0 0 0-1.895-.131c-.3-.01-.378.476-.073.533m.55-10.255c.592-.015 1.184-.027 1.776-.043.46-.014.903.067 1.265-.242.114-.098.063-.27-.045-.344-.387-.264-.885-.114-1.331-.077l-1.665.14c-.358.03-.37.575 0 .566m.322-1.098c.48-.012.966-.002 1.443-.063.218-.028.219-.347 0-.375-.477-.061-.962-.05-1.443-.062-.291-.007-.292.507 0 .5m.069-16.937c.288.081.576.162.864.24.132.037.319.006.41-.108.1-.126.16-.245.108-.41-.06-.19-.214-.292-.406-.309-.295-.026-.591-.05-.886-.073-.385-.03-.446.56-.09.66m1.304 9.061l.647.092c.206.03.399.076.597-.005.117-.047.212-.222.085-.322-.309-.243-.808-.228-1.187-.282-.338-.048-.483.468-.142.517m1.353 1.952c.364 0 .365-.566 0-.566-.364 0-.365.566 0 .566m-4.33-21.591l.82.028c.25.009.594-.042.594-.368 0-.303-.31-.374-.55-.37-.288.006-.576.02-.863.03-.437.016-.438.664 0 .68m-.801-1.933c.493-.053 1.131-.023 1.578-.257.206-.108.152-.431-.064-.49-.464-.124-1.045.037-1.515.09-.414.048-.421.702 0 .657m-2.726-15.391a20.568 20.568 0 0 0 1.787-.08c.466-.043.908-.038 1.265-.365.098-.089.085-.292-.045-.35-.449-.197-.855-.068-1.332-.01-.557.067-1.115.105-1.675.126-.436.017-.44.681 0 .68m-.402-1.169c.62-.102 1.401-.118 1.962-.414.165-.088.147-.398-.056-.428-.652-.096-1.422.153-2.064.267-.379.067-.216.637.158.575M59.098 41.37c.345-.03.678-.073 1.019-.136.205-.039.205-.377 0-.415a9.953 9.953 0 0 0-1.02-.136c-.441-.037-.442.724 0 .687m.963-12.385l1.387.026c.397.008.762.031 1.123-.153.135-.069.135-.289 0-.358-.36-.184-.726-.16-1.123-.153l-1.387.027c-.394.007-.395.603 0 .61m.388-2.532c.408.135.821.238 1.247.3.374.056.738.129 1.086-.043.207-.102.197-.43 0-.534-.307-.165-.645-.129-.985-.168a6.889 6.889 0 0 1-1.158-.247c-.445-.131-.626.548-.19.692m2.409-9.644l.558.083c.186.027.386.087.566.012.172-.073.283-.298.118-.448-.15-.136-.317-.159-.51-.196l-.55-.106c-.18-.034-.367.05-.419.238-.044.16.055.39.237.417" fill="#FFFBED"/><path d="M67.997 74.06c.496.291-6.654-28.298-6.654-28.298l2.693-33.233h-3.29l-1.813 13.613-5.855-11.188-1.328 1.171 2.951 4.423h-5.46s-2.213-4.285-2.656-4.423c-.443-.139-1.18.638-1.18.638l2.951 4.83 6.198.738 4.1 5.91-.768 5.763c-.416 3.124-.531 6.275-.42 9.423-.2-.17-.394-.347-.59-.521a.376.376 0 0 0-.234-.1c-.174-.15-.412.044-.337.248a.36.36 0 0 0 .035.266 3.4 3.4 0 0 0 .909 1.01c.082.062.171.134.264.201.22 4.207.834 8.402 1.692 12.507.779 3.725 1.918 7.321 2.903 10.99.084.31.164.624.244.937a7.565 7.565 0 0 1-.608-.273c-.631-.327-1.248-.666-1.822-1.087-.203-.148-.46.185-.27.35.812.706 1.845 1.568 2.942 1.96.298 1.2.587 2.405.892 3.601.41 1.606 1.493 3.97 1.377 5.616-.333 4.754-.669 9.508-1.003 14.263-.466-.327-.905-.689-1.247-1.151-.226-.304-.73-.034-.522.305.378.613.852 1.175 1.429 1.607l.273.206c-.537 7.644-1.073 15.288-1.613 22.932-.024.353-.046.727.112 1.044.18.366.565.585.94.748 1 .431 2.076.608 3.164.633.28-11.194 1.184-45.904 1.6-45.66" fill="#C7C0B4"/><path d="M66.22 48.047c.02.35.055.707.221 1.024.166.316.453.571.748.806 2.259 1.802 5.374 2.783 8.47 2.668 3.098-.114 6.14-1.324 8.275-3.289.605-.556 1.145-1.18 1.461-1.89 1.552-3.48-2.448-6.45-6.017-6.98-3.837-.569-7.056.496-10.3 2.252-2.305 1.248-2.992 3.16-2.859 5.41M37.695 11.963c.335 1.396 1.24 2.734 2.84 3.832 3.336 2.287 8.818 2.975 12.79 2.822 5.196-.199 10.31-2.03 13.908-4.977 1.018-.834 1.93-1.768 2.468-2.83 2.634-5.2-4.048-9.59-10.03-10.347-6.43-.812-11.839.805-17.296 3.45-3.412 1.656-5.415 4.99-4.68 8.05M73.476 8.69c-.255.212-.507.438-.652.745-.146.307-.175.674-.184 1.036-.071 2.775.977 5.762 2.851 8.122 1.874 2.361 4.55 4.067 7.28 4.641.773.163 1.56.238 2.283.089 3.549-.73 3.508-5.52 1.853-8.61-1.78-3.321-4.449-5.247-7.658-6.805-2.281-1.108-4.135-.579-5.773.782m-37.243 7.154c-.096-.258.085-.55.318-.65.242-.1.56-.016.688.226.025.048.051.093.08.138.02.033.044.06.007.014.05.063.11.115.168.17.04.04-.06-.024.03.017.04.017.082.04.12.06a.954.954 0 0 1 .31.306c.265.372-.091.887-.508.886-.598-.004-1.027-.664-1.213-1.167zm.402 3.477c-.322-.165-.322-.687 0-.852.094-.048.176-.097.282-.121.077-.018.157-.028.235-.041.385-.068.772.17.772.588 0 .421-.387.656-.772.588-.078-.013-.158-.023-.235-.04-.106-.025-.188-.074-.282-.122zm3.669 4.743a.493.493 0 0 1-.387-.255c-.099-.17-.063-.34-.031-.52.037-.21.027-.4.044-.63.025-.352.278-.651.65-.651.354 0 .648.299.651.65.004.49-.3 1.474-.927 1.406zm2.242-3.334c-.201-.16-.177-.485-.04-.669a.511.511 0 0 1 .658-.131c.18.1.36.207.547.297.19.09.393.14.567.263.243.17.386.445.304.747-.05.181-.158.286-.304.396-.18.134-.487.114-.668 0-.217-.137-.367-.32-.555-.49-.163-.145-.337-.277-.509-.413zm-.614 8.868c-.174.206-.503.19-.701.042-.22-.164-.259-.454-.137-.69l.173-.337c.16-.31.59-.361.848-.162.29.224.28.598.058.86l-.24.287zm-6.082-4.261c-.234-.189-.209-.565-.047-.782.167-.223.525-.317.768-.153.306.206.556.262.897.384.304.11.493.37.454.695-.033.276-.315.59-.622.55-.55-.075-1.024-.35-1.45-.694zm11.213 4.22c-.245-.175-.34-.457-.193-.735.145-.276.48-.308.736-.193.206.092.38.227.553.37a1.7 1.7 0 0 1 .215.209c.167.202.211.41.158.669-.062.3-.458.54-.752.427-.204-.08-.367-.18-.456-.389a.56.56 0 0 1-.02-.051c-.017-.033-.032-.066-.05-.098-.018-.032-.069-.1-.017-.038a1.265 1.265 0 0 0-.155-.155c-.02-.017-.065-.048-.02-.015zm3.652-2.512c-.264.122-.545.088-.731-.146-.159-.2-.174-.57.044-.744.412-.329.746-.734 1.141-1.078.294-.256.727-.292 1.017 0 .282.28.266.733 0 1.017-.397.426-.949.71-1.471.95zm1.953 3.974c-.495-.487.142-1.285.732-.948a1.7 1.7 0 0 1 .524.482c.157.214.197.448.23.704.042.33-.285.617-.58.657-.296.04-.683-.152-.735-.48a1.093 1.093 0 0 0-.041-.18c-.007-.018-.051-.18-.028-.094a.898.898 0 0 0-.063-.108c.056.088-.003.001-.039-.033zm-.824 3.367c-.079.451-.833.45-.912 0-.031-.18-.089-.375-.07-.556.03-.295.217-.513.526-.526.304-.014.498.253.526.526.02.181-.038.376-.07.556zm2.812-5.852c-.24-.235-.218-.61 0-.847.22-.24.623-.22.847 0 .144.14.3.273.386.46.11.236.093.482-.087.68-.181.196-.457.184-.68.087-.187-.082-.323-.24-.466-.38zm15.41-8.17c-.21.183-.518.208-.726 0-.206-.205-.182-.517 0-.726.06-.068.177-.192.207-.24.193-.297.613-.37.871-.112.26.26.186.678-.113.871-.055.036-.164.142-.239.207zm-1.193-3.559c-.025.292-.22.508-.522.522-.298.014-.5-.25-.522-.522-.012-.14-.022-.293-.041-.39-.057-.303.083-.64.408-.719a.594.594 0 0 1 .31 0c.327.08.466.416.408.718-.018.098-.03.25-.041.391zM57.187 20.22c-.07-.33.35-.641.606-.353.045.051.1.122.143.163.064.06.124.112.171.19.106.175.138.384.155.584.031.367-.35.634-.68.59-.347-.046-.605-.402-.5-.75a4.01 4.01 0 0 0 .046-.165c-.026.1.017-.106.018-.11a.634.634 0 0 1 .042-.11.927.927 0 0 0 .02-.048c-.027.052-.004.09-.021.01zm12.486 9.51c-.204.137-.483.054-.626-.125-.156-.196-.12-.455.039-.637.364-.418.683-1.005 1.332-.892.219.038.355.278.365.48.03.612-.688.892-1.11 1.174z" fill="#FFCD72"/><path d="M41.072 11.028c-.5.159-.877-.517-.507-.872.108-.105.214-.217.334-.31.188-.145.362-.204.594-.233.425-.054.74.536.5.871-.234.33-.553.427-.921.544zm4.191 2.084c-.183-.078-.258-.339-.21-.516a.467.467 0 0 1 .44-.335c.323-.006.641.03.92.21.137.089.269.203.374.33.141.17.182.31.21.526.039.302-.326.52-.584.445-.428-.125-.766-.498-1.15-.66zm2.07-2.989c-.504.002-.565-.7-.114-.849.13-.043-.052.03.069-.032.019-.01.06-.04.019-.01.086-.061-.005.014.02-.03.02-.034.04-.068.056-.104l-.056.432c-.047-.247.01-.602.163-.815.15-.212.363-.337.628-.302.218.03.49.21.525.453.042.286.009.507-.17.738a.797.797 0 0 1-.605.338l.283-.077a1.484 1.484 0 0 1-.817.258zm2.094-3.973a.493.493 0 0 1-.2-.61c.085-.212.35-.363.577-.284.21.074.408.167.605.27.086.044.176.085.256.14.136.095.23.221.326.355.17.239.062.593-.152.758-.25.194-.538.137-.772-.046.068.054.036.03-.095-.072a.493.493 0 0 1-.14-.162c.062.08-.078-.091-.093-.106-.114-.117-.183-.16-.312-.243zm2.333 6.693c-.544.15-.842-.607-.376-.894a.974.974 0 0 0 .086-.056c-.036.026-.031.02.015-.02a.734.734 0 0 0 .053-.056c.025-.029.023-.025-.006.01.033-.057.038-.056.014.005l.017-.047c.034-.098.063-.198.123-.286.172-.254.47-.372.761-.25a.61.61 0 0 1 .353.72c-.13.438-.617.758-1.04.874zm4.285-.374c-.225-.114-.29-.404-.204-.621a.5.5 0 0 1 .587-.288c.463.11.873.506.947.985.053.346-.11.677-.484.727-.368.05-.633-.224-.661-.572.011.14-.019-.052-.03-.086-.037-.122.053.062-.023-.044-.063-.088.045.017-.037-.043-.045-.04-.048-.044-.01-.011a.678.678 0 0 0-.085-.047zm-11.391-3.63c-.314.268-.779-.067-.577-.444l.063-.116c-.019.063-.021.056-.007-.021a.88.88 0 0 1 .066-.246c.069-.175.179-.309.3-.449.183-.211.528-.203.735-.044.199.154.31.5.144.722-.114.153-.215.287-.373.399-.116.083-.245.126-.378.174l.178-.104-.151.13zm10.713-4.926c-.142-.22-.06-.514.134-.668.213-.17.481-.123.68.041l.423.351c.225.187.367.376.386.682.024.408-.392.629-.74.564-.433-.08-.665-.63-.883-.97zM51.665 17.03c-.506.359-1.088-.435-.652-.845.33-.311.788-.63 1.243-.72.329-.063.667.09.76.433a.629.629 0 0 1-.431.761c-.36.095-.61.15-.92.37zm10.937-8.683c-.159-.222-.058-.551.14-.705.206-.158.534-.158.718.043l.368.403c.164.18.34.333.404.577.132.504-.404.871-.844.649-.218-.11-.332-.332-.47-.524l-.316-.443zm-.643-2.919c-.703-.028-.703-1.064 0-1.092l.884-.035c.364-.015.694-.025.901.328a.503.503 0 0 1 0 .506c-.207.353-.538.343-.9.329l-.885-.036zm-1.445 7.69c-.009.672-1.034.671-1.043 0-.006-.41-.048-.84-.005-1.248a.527.527 0 0 1 1.053 0c.043.407.001.838-.005 1.248zm7.007-2.183a.574.574 0 0 1-.796 0c-.226-.207-.205-.584 0-.795.015-.015.147-.171.093-.098a1.654 1.654 0 0 0 .168-.289c-.022.052-.021.046.004-.017a.874.874 0 0 1 .124-.29c.156-.209.37-.318.634-.258.257.058.389.302.413.542.024.236-.116.504-.234.702-.11.184-.25.357-.406.503zm6.809.334c-.603-.134-.603-1.086 0-1.219.2-.044.393-.063.598-.056a.679.679 0 0 1 .665.665c.016.368-.318.654-.665.666a2.37 2.37 0 0 1-.599-.056zm2.783 3.756c-.13.283-.515.367-.779.255-.265-.111-.467-.443-.36-.735.117-.322.217-.66.369-.968.145-.292.535-.385.816-.267.283.12.483.463.379.771-.11.324-.28.635-.425.944zm.749-4.041a.622.622 0 0 1 0-.86c.239-.26.61-.196.859 0 .139.112.268.234.381.371.08.096.154.198.212.309.1.19.104.36.073.568-.027.181-.196.33-.354.396-.193.081-.36.054-.545-.03-.204-.093-.309-.299-.423-.48-.037-.058-.073-.115-.113-.172.067.094-.075-.085-.09-.102zm1.58 8.092c-.195.267-.502.374-.809.212-.298-.158-.344-.53-.212-.809l.252-.531c.155-.326.597-.384.884-.232.287.152.431.61.232.883l-.347.477zm.788-3.628a.627.627 0 0 1-.447-.684c.033-.274.309-.58.613-.54l.8.103c.377.05.766.093.96.469.116.223.124.578-.097.75-.198.156-.366.247-.624.224a2.23 2.23 0 0 1-.422-.086c-.261-.077-.522-.157-.783-.236zm3.353-1.09c-.183-.209-.208-.518 0-.726.212-.212.508-.17.726 0 .244.192.514.44.655.72a.61.61 0 0 1-.214.814c-.27.174-.658.055-.815-.214-.143-.247-.178-.393-.352-.593zm.514 5.52c-.262.085-.556-.1-.626-.356-.077-.28.097-.533.356-.627.263-.096.498-.27.712-.438.217-.17.507-.214.721 0 .204.204.181.515 0 .722-.3.342-.735.56-1.163.699zM69.976 46.037c-.263.12-.572.079-.73-.191-.142-.243-.062-.594.192-.73l.392-.213c.189-.102.336-.172.554-.198.21-.024.412.153.49.33a.537.537 0 0 1-.112.584c-.199.207-.527.301-.786.418zm3.615-1.708c-.3-.125-.514-.391-.418-.737.084-.306.427-.512.737-.418.669.202 1.228.563 1.643 1.105.203.266.06.67-.171.854-.245.195-.65.19-.869-.052-.273-.301-.54-.592-.922-.752zm.074 4.456c-.055.298-.402.44-.668.379-.31-.071-.417-.388-.378-.667l.06-.431c.025-.174.03-.335.135-.484.259-.365.824-.332.965.127.064.208.008.41-.03.617-.028.153-.057.306-.084.46zm-2.534.224a.465.465 0 0 1-.209.511c-.16.094-.422.082-.548-.07-.157-.19-.326-.371-.432-.596-.132-.28-.07-.58.198-.753a.555.555 0 0 1 .753.197c.122.23.177.46.238.711zm11.454-.937c-.29-.067-.46-.4-.384-.677.086-.313.383-.425.677-.384.457.063.854.265 1.213.548.251.199.205.63 0 .835-.24.239-.591.204-.835 0a1.586 1.586 0 0 0-.67-.322zm-2.2-3.398c.128.26.071.577-.192.73a.542.542 0 0 1-.73-.191 1.442 1.442 0 0 1-.06-1.35c.12-.249.455-.326.69-.226.244.102.405.39.321.653l-.05.158c-.037.11-.008-.035-.01.073-.001.138-.03-.06.007.075.002.008.058.147.024.078zm-2.875-1.81a.567.567 0 0 1-.554.555c-.31.013-.54-.266-.555-.555-.008-.152-.024-.305.03-.452a.55.55 0 0 1 1.05 0c.054.15.036.298.029.452zm-2.038 7.613c-.388.437-1.104-.134-.8-.617.122-.194.239-.388.38-.567.17-.214.524-.194.719-.043.199.154.298.483.14.705-.13.186-.288.352-.439.522zm2.472-1.797l.309.692c.125.281.555.368.8.21a.598.598 0 0 0 .21-.8l-.361-.662c-.14-.255-.512-.358-.759-.2-.275.178-.326.475-.199.76" fill="#E7B06B"/></g></svg>