<svg width="110" height="88" viewBox="0 0 110 88" xmlns="http://www.w3.org/2000/svg"><g fill="none" fill-rule="evenodd"><path d="M65.074 87.917a4.326 4.326 0 0 1-4.332-4.319c0-5.964.016-14.71.016-14.798a4.326 4.326 0 0 1 4.332-4.31h.009a4.325 4.325 0 0 1 4.324 4.327c0 .087-.017 8.826-.017 14.781a4.326 4.326 0 0 1-4.332 4.32m-28.52-2.79a4.326 4.326 0 0 1-3.063-1.265 27.26 27.26 0 0 0-.803-.749c-1.816-1.654-4.077-3.713-4.074-6.719.007-5.931 4.491-10.27 5.003-10.746l5.908 6.319.025-.024c-.508.488-1.83 2.07-2.183 3.69.345.356.83.798 1.164 1.102.365.332.742.675 1.086 1.019a4.31 4.31 0 0 1 0 6.108 4.326 4.326 0 0 1-3.063 1.265" fill="#303030"/><path d="M5.056 35.01s7.942 20.874 14.982 8.097" stroke="#303030" stroke-width="8.664" stroke-linecap="round" stroke-linejoin="round"/><path d="M99.813 61.712c-.003 7.344-6.231 13.247-13.795 13.076l-60.587-.45c-6.04-.137-10.848-4.167-10.846-9.09l.02-50.323c0-3.608 3.526-6.559 7.952-6.656l66.53-.601c8.748.003 10.745 5.094 10.743 11.113l-.017 42.931z" stroke="#979797" stroke-width=".5" fill="#FFF"/><path d="M30.327 60.422c0 3.138-2.551 5.68-5.698 5.68-3.148 0-5.699-2.542-5.699-5.68 0-3.137 2.551-5.68 5.699-5.68 3.147 0 5.698 2.543 5.698 5.68m48.556 1.108c0 3.135-2.549 5.676-5.693 5.676-3.144 0-5.692-2.54-5.692-5.675 0-3.134 2.548-5.675 5.692-5.675s5.693 2.54 5.693 5.675m-24.426.209l-10.423-.126c-2.22-.027-4.014-1.86-3.987-4.072.027-2.213 1.865-4.001 4.084-3.974l10.424.125c2.219.027 4.013 1.859 3.986 4.072-.027 2.212-1.865 4-4.084 3.974m-.08 5.635l-10.234-.123a1.568 1.568 0 0 1-1.547-1.58 1.568 1.568 0 0 1 1.585-1.542l10.234.123c.861.01 1.557.721 1.547 1.58a1.568 1.568 0 0 1-1.585 1.542" fill="#DBDBDB"/><path d="M81.507 51.205H25.175c-4.712 0-8.567-3.843-8.567-8.54v-23.23c0-4.697 3.855-8.54 8.567-8.54h56.332c4.712 0 8.567 3.843 8.567 8.54v23.23c0 4.697-3.855 8.54-8.567 8.54" fill="#3A3A3A"/><path d="M94.948 47.786s8.844 3.42 9.927 16.556" stroke="#303030" stroke-width="8.664" stroke-linecap="round" stroke-linejoin="round"/><path d="M40.257 31.41l-.003.111c0 4.97 4.041 8.998 9.026 8.998 4.984 0 9.025-4.029 9.025-8.998l-.003-.111H40.257z" fill="#0FF"/><path d="M74.19 7.69c0 .49.425.887.95.887h10.594c2.309 0 6.935 1.924 8.427 6.012.175.48.624.805 1.135.805h.735l2.85-.18c.526 0 .952-.398.952-.888v-7C97.475-8.9 74.635 6.937 74.635 6.937a.876.876 0 0 0-.446.752m-39.169.038c0 .406-.177.58-.587.58 0 0-8.39-.008-8.617-.018-8.31-.37-10.832 4.894-10.832 4.494V7.394a5.899 5.899 0 0 1 3.355-5.306c3.504-1.73 16.333 5.017 16.333 5.017.216.135.348.622.348.622" fill="#3D3D3D"/><path stroke="#0FF" stroke-width="3.351" stroke-linecap="round" stroke-linejoin="round" d="M70.489 23.245l-7.31 6.278 7.58 6.51"/><path d="M31.25 36.809h-.584c-2.073 0-3.77-1.691-3.77-3.758v-8.14c0-2.068 1.697-3.759 3.77-3.759h.584c2.073 0 3.77 1.691 3.77 3.758v8.14c0 2.068-1.697 3.759-3.77 3.759" fill="#0FF"/></g></svg>