<svg width="120" height="120" viewBox="0 0 120 120" xmlns="http://www.w3.org/2000/svg"><g fill="none" fill-rule="evenodd"><path fill="#323547" d="M17.14 104.694h3.1V84.52h-3.1zm41.282-52.236h3.101v-20.92h-3.1z"/><path fill="#A9A3AF" d="M49.787 32.34H70.71v-3.1H49.787z"/><path fill="#323547" d="M99.76 104.674h3.1V71.9h-3.1z"/><path fill="#4B4E63" d="M119.797 104.674l-3.91.02L99.903 76.08l2.707-1.512z"/><path fill="#4B4E63" d="M82.718 104.674l3.91.02L102.61 76.08l-2.707-1.512z"/><path fill="#A9A3AF" d="M37.843 104.674l-3.91.02L17.95 76.08l2.707-1.512z"/><path fill="#A9A3AF" d="M.764 104.674l3.91.02L20.656 76.08l-2.706-1.512z"/><path fill="#4B4E63" d="M37.843 104.674l-3.91.02L17.95 76.08l2.707-1.512z"/><path fill="#4B4E63" d="M.764 104.674l3.91.02L20.656 76.08l-2.706-1.512zm77.849.151l-3.909.019L58.72 76.23l2.707-1.512z"/><path fill="#4B4E63" d="M41.535 104.825l3.909.019L61.428 76.23l-2.707-1.512z"/><path fill="#816C8E" d="M1.742 92.868h32.266v-39.6H1.742z"/><path fill="#695775" d="M1.742 60.253h32.266v-6.985H1.742z"/><path fill="#CBBAD8" d="M.247 92.868h35.124v-2.566H.247zm0-37.034h35.124v-2.566H.247z"/><path d="M30.302 50.741H5.448a2.566 2.566 0 0 0-2.567 2.566H32.87a2.566 2.566 0 0 0-2.567-2.566" fill="#F1E1FF"/><path d="M17.757 58.872a.934.934 0 0 1-.935-.934v-3.736a.934.934 0 0 1 1.868 0v3.736a.934.934 0 0 1-.933.934m9.277 0a.934.934 0 0 1-.934-.934v-3.736a.934.934 0 0 1 1.868 0v3.736a.934.934 0 0 1-.934.934m-18.33 0a.934.934 0 0 1-.935-.934v-3.736a.934.934 0 0 1 1.868 0v3.736a.934.934 0 0 1-.933.934m9.129 33.934h-.129a.87.87 0 0 1-.87-.87V88.82c0-.48.39-.87.87-.87h.13c.48 0 .869.39.869.87v3.118c0 .48-.39.87-.87.87m9.277-.002h-.128a.87.87 0 0 1-.87-.87V88.82c0-.48.39-.87.87-.87h.129c.48 0 .87.39.87.87v3.118c0 .48-.39.87-.87.87M8.78 92.806h-.129a.87.87 0 0 1-.87-.87V88.82c0-.48.39-.87.87-.87h.13c.48 0 .869.39.869.87v3.118c0 .48-.39.87-.87.87" fill="#ECE4F4"/><path fill="#816C8E" d="M24.308 42.434h30.136V19.146H24.308z"/><path fill="#CBBAD8" d="M22.813 44.426h33.375v-1.992H22.813zm0-24.781h33.375v-4.483H22.813z"/><path d="M39.376 22.447a.934.934 0 0 1-.934-.935v-3.736a.934.934 0 0 1 1.868 0v3.736a.934.934 0 0 1-.934.935m9.278 0a.934.934 0 0 1-.935-.935v-3.736a.934.934 0 0 1 1.868 0v3.736a.934.934 0 0 1-.933.935m-18.331 0a.934.934 0 0 1-.934-.935v-3.736a.934.934 0 0 1 1.868 0v3.736a.934.934 0 0 1-.934.935m9.13 21.979h-.13a.87.87 0 0 1-.869-.87V40.44c0-.48.39-.87.87-.87h.129c.48 0 .87.39.87.87v3.118c0 .48-.39.87-.87.87m9.277-.002h-.129a.87.87 0 0 1-.87-.87V40.44c0-.48.39-.87.87-.87h.13c.48 0 .869.39.869.87v3.118c0 .48-.39.87-.87.87m-18.33-.002h-.13a.87.87 0 0 1-.869-.87V40.44c0-.48.39-.87.87-.87h.129c.48 0 .87.39.87.87v3.118c0 .48-.39.87-.87.87" fill="#ECE4F4"/><path fill="#816C8E" d="M64.99 42.434h30.136V19.146H64.989z"/><path fill="#695775" d="M64.99 24.06h30.136v-4.914H64.989z"/><path fill="#CBBAD8" d="M63.22 44.426h33.374v-1.992H63.22zm.275-24.781H96.87v-4.483H63.495z"/><path d="M80.058 22.447a.934.934 0 0 1-.935-.935v-3.736a.934.934 0 0 1 1.869 0v3.736a.934.934 0 0 1-.934.935m9.277 0a.934.934 0 0 1-.934-.935v-3.736a.934.934 0 0 1 1.868 0v3.736a.934.934 0 0 1-.934.935m-18.33 0a.934.934 0 0 1-.935-.935v-3.736a.934.934 0 0 1 1.869 0v3.736a.934.934 0 0 1-.934.935m9.129 21.979h-.129a.87.87 0 0 1-.87-.87V40.44c0-.48.39-.87.87-.87h.13c.48 0 .869.39.869.87v3.118c0 .48-.39.87-.87.87m9.278-.002h-.13a.87.87 0 0 1-.869-.87V40.44c0-.48.39-.87.87-.87h.129c.48 0 .87.39.87.87v3.118c0 .48-.39.87-.87.87m-18.331-.002h-.129a.87.87 0 0 1-.87-.87V40.44c0-.48.39-.87.87-.87h.13c.48 0 .869.39.869.87v3.118c0 .48-.39.87-.87.87" fill="#ECE4F4"/><path fill="#816C8E" d="M24.308 42.434h30.136V19.146H24.308z"/><path fill="#695775" d="M24.308 24.06h30.136v-4.914H24.308z"/><path fill="#CBBAD8" d="M22.538 44.426h33.374v-1.992H22.538zm.275-24.781h33.375v-4.483H22.813z"/><path d="M39.376 22.447a.934.934 0 0 1-.934-.935v-3.736a.934.934 0 0 1 1.868 0v3.736a.934.934 0 0 1-.934.935m9.278 0a.934.934 0 0 1-.935-.935v-3.736a.934.934 0 0 1 1.868 0v3.736a.934.934 0 0 1-.933.935m-18.331 0a.934.934 0 0 1-.934-.935v-3.736a.934.934 0 0 1 1.868 0v3.736a.934.934 0 0 1-.934.935m9.13 21.979h-.13a.87.87 0 0 1-.869-.87V40.44c0-.48.39-.87.87-.87h.129c.48 0 .87.39.87.87v3.118c0 .48-.39.87-.87.87m9.277-.002h-.129a.87.87 0 0 1-.87-.87V40.44c0-.48.39-.87.87-.87h.13c.48 0 .869.39.869.87v3.118c0 .48-.39.87-.87.87m-18.33-.002h-.13a.87.87 0 0 1-.869-.87V40.44c0-.48.39-.87.87-.87h.129c.48 0 .87.39.87.87v3.118c0 .48-.39.87-.87.87" fill="#ECE4F4"/><path d="M88.217 76.43c0 15.6-12.646 28.244-28.244 28.244-15.599 0-28.244-12.645-28.244-28.244 0-15.598 12.645-28.243 28.244-28.243 15.598 0 28.244 12.645 28.244 28.243" fill="#CBBAD8"/><path fill="#816C8E" d="M85.937 70.08h28.879V54.55H85.937z"/><path fill="#695775" d="M85.937 58.872h28.879V54.55H85.937z"/><path fill="#CBBAD8" d="M84.872 71.898h32.254v-2.566H84.872z"/><path d="M100.258 58.636a.934.934 0 0 1-.934-.934v-3.736a.934.934 0 0 1 1.868 0v3.736a.934.934 0 0 1-.934.934m9.278 0a.934.934 0 0 1-.935-.934v-3.736a.934.934 0 0 1 1.869 0v3.736a.934.934 0 0 1-.934.934m-18.331 0a.934.934 0 0 1-.934-.934v-3.736a.934.934 0 1 1 1.868 0v3.736a.934.934 0 0 1-.934.934m9.017 13.124h-.128a.87.87 0 0 1-.87-.869v-3.118c0-.48.39-.87.87-.87h.128c.48 0 .87.39.87.87v3.118c0 .48-.39.87-.87.87m9.278-.001h-.129a.87.87 0 0 1-.87-.869v-3.118c0-.48.39-.87.87-.87h.13c.48 0 .869.39.869.87v3.118c0 .48-.39.87-.87.87m-18.33-.001h-.13a.87.87 0 0 1-.869-.869v-3.118c0-.48.39-.87.87-.87h.128c.48 0 .87.39.87.87v3.118c0 .48-.39.87-.87.87" fill="#ECE4F4"/><path d="M112.35 50.698H88.47a2.466 2.466 0 0 0-2.466 2.466h28.81a2.466 2.466 0 0 0-2.465-2.466" fill="#F1E1FF"/><path d="M85.937 76.43c0 14.34-11.624 25.965-25.964 25.965-14.34 0-25.965-11.625-25.965-25.965s11.625-25.964 25.965-25.964S85.937 62.09 85.937 76.43" fill="#695775"/><path fill="#CBBAD8" d="M84.25 55.834h32.253v-2.566H84.25z"/><path fill="#737891" d="M56.188 34.673h7.307v-7.307h-7.307z"/><path fill="#CBBAD8" d="M54.444 75.666H64.99v-3.768H54.444z"/></g></svg>