<svg width="120" height="120" viewBox="0 0 120 120" xmlns="http://www.w3.org/2000/svg" xmlns:xlink="http://www.w3.org/1999/xlink"><defs><path id="a" d="M.057.136H6.7V10.73H.057z"/><path id="c" d="M.192.136h6.643V10.73H.192z"/></defs><g fill="none" fill-rule="evenodd"><path d="M77.885 19.16c2.004 3.497 2.096 6.668 4.3 9.632 1.221 1.644 3.04 2.036 4.376 4.185 3.092 4.973.852 10.018-4.198 9.364-2.126-.276-3.467 6.567-8.996 2.968-3.572-2.326-8.795 5.511-11.806-.663M42.586 17.172c-2.392 3.057-2.447 8.656-4.65 11.62-1.222 1.644-3.041 2.036-4.377 4.185-3.092 4.973-.852 10.018 4.198 9.364 2.126-.276 3.467 6.567 8.996 2.968 3.572-2.326 8.795 5.511 11.806-.663" fill="#424242"/><path fill="#FFECB3" d="M63.207 44.832v-5.86h-6.843v5.86l-8.538 1.719 2.5 14.877h18.92l2.5-14.877z"/><path d="M59.69 52.98c-1.492-4.54-11.864-5.152-11.864-5.152l.353.821c4.417 7.545 10.453 5.272 11.51 4.799 1.06.473 7.094 2.746 11.512-4.799l.352-.821s-10.372.613-11.863 5.151" fill="#0288D1"/><path d="M69.246 61.428l2.31-13.754c-1.376 3.28-6.093 5.697-11.703 5.697-6.086 0-11.122-2.844-11.981-6.549l2.453 14.606c-2.208 1.726-4.142 3.895-5.837 6.33h30.043c-2.952-4.103-5.285-6.33-5.285-6.33" fill="#4FC3F7"/><path d="M44.488 67.758c-9.602 13.795-11.477 36.218-11.477 36.218-.014-.005.834 2.713 2.54 3.298 1.706.594 4.008-1.035 3.994-1.04-.015-.003 1.07 2.617 2.813 3.034 1.741.426 3.872-1.417 3.858-1.42-.015-.002 1.3 2.501 3.066 2.75 1.765.257 3.71-1.78 3.696-1.782-.015 0 1.521 2.367 3.299 2.447 1.777.088 3.524-2.123 3.509-2.124-.015 0 1.732 2.212 3.509 2.124 1.778-.08 3.313-2.448 3.299-2.447-.015.002 1.93 2.039 3.696 1.782 1.766-.249 3.08-2.752 3.066-2.75-.014.003 2.117 1.846 3.858 1.42 1.742-.417 2.827-3.037 2.813-3.034-.014.005 2.288 1.634 3.993 1.04 1.707-.586 2.555-3.303 2.54-3.298 0-16.478-6.936-29.141-12.029-36.218H44.488z" fill="#4FC3F7"/><g transform="translate(51.399 105.143)"><mask id="b" fill="#fff"><use xlink:href="#a"/></mask><path d="M6.105 5.166c-1.183 2.845-3.833 6.077-5.2 5.496-1.367-.582-.934-4.756.25-7.601C2.34.216 3.825-.223 5.192.359 6.56.94 7.29 2.321 6.105 5.166" fill="#0288D1" mask="url(#b)"/></g><g transform="translate(61.281 105.143)"><mask id="d" fill="#fff"><use xlink:href="#c"/></mask><path d="M.787 5.166c1.184 2.845 3.833 6.077 5.2 5.496 1.367-.582.934-4.756-.25-7.601C4.552.216 3.066-.223 1.698.359.333.94-.397 2.321.787 5.166" fill="#0288D1" mask="url(#d)"/></g><path d="M86.56 103.975c.015-.004-.833 2.713-2.54 3.299-1.705.594-4.008-1.035-3.993-1.04.014-.003-1.07 2.617-2.813 3.035-1.742.424-3.872-1.417-3.858-1.421.015-.002-1.3 2.501-3.066 2.75-1.766.257-3.711-1.78-3.696-1.782.014 0-1.521 2.367-3.299 2.447-1.778.088-3.524-2.123-3.51-2.125.016.002-1.73 2.213-3.508 2.125-1.778-.08-3.314-2.448-3.299-2.447.015.002-1.93 2.039-3.696 1.782-1.766-.249-3.08-2.752-3.066-2.75.014.004-2.117 1.845-3.858 1.42-1.742-.417-2.828-3.037-2.813-3.034.014.005-2.288 1.634-3.993 1.04-1.707-.585-2.555-3.303-2.541-3.299 0 0 2.593-31.039 17.314-42.547l9.239 6.441 9.683-6.44S86.56 77.943 86.56 103.974" fill="#FDD835"/><path d="M59.514 70.39l11.179-7.436c-.898-1.003-1.446-1.526-1.446-1.526l-9.683 6.441-9.239-6.441a24.28 24.28 0 0 0-1.64 1.413l10.829 7.55z" fill="#0288D1"/><path d="M50.748 74.486c-3.923-8.671-2.985-15.836-1.617-20.17l-.952-5.667-2.069-.821c-6.134 15.76 1.42 25.634 1.499 28.268.093 3.109 3.486 6.273 3.486 6.273.804-1.51.711-3.52.454-5.058.498.351.929.488 1.124.312.318-.288-.106-1.293-.949-2.245a5.809 5.809 0 0 0-.976-.892" fill="#FFECB3"/><path d="M78.127 26.622c0 8.855-8.212 15.719-18.341 15.719-10.13 0-18.341-6.864-18.341-15.719 0-8.856 8.211-17.61 18.34-17.61 10.13 0 18.342 8.754 18.342 17.61" fill="#FFF8E1"/><path d="M79.586 23.081c-.557-8.522-6.218-17.688-19.8-17.688-14.529 0-18.827 10.125-19.384 18.647l18.532-7.163 20.652 6.204z" fill="#424242"/><path d="M51.444 29.019c0 .86-.69 1.559-1.542 1.559a1.551 1.551 0 0 1-1.542-1.56c0-.86.69-1.559 1.542-1.559.852 0 1.542.699 1.542 1.56" fill="#5D4037"/><path d="M49.892 28.791l-1.44-2.292m.624 2.624l-2.291-1.905" stroke="#5D4037" stroke-width=".756" stroke-linecap="round" stroke-linejoin="round"/><path d="M68.128 29.019c0 .86.69 1.559 1.542 1.559a1.55 1.55 0 0 0 1.542-1.56c0-.86-.69-1.559-1.542-1.559-.852 0-1.542.699-1.542 1.56" fill="#5D4037"/><path d="M69.68 28.791l1.44-2.292m-.624 2.624l2.29-1.905" stroke="#5D4037" stroke-width=".756" stroke-linecap="round" stroke-linejoin="round"/><path d="M56.364 36.585c.685 1.63 1.959 2.73 3.422 2.73s2.737-1.1 3.421-2.73h-6.843z" fill="#EF5350"/><path d="M47.148 32.977a4.87 4.87 0 0 0-3.385 1.37c1.743 2.678 4.371 4.848 7.547 6.247a4.977 4.977 0 0 0 .758-2.644c0-2.746-2.203-4.973-4.92-4.973m28.661 1.37a4.87 4.87 0 0 0-3.385-1.37c-2.717 0-4.92 2.226-4.92 4.973 0 .973.28 1.878.758 2.644 3.175-1.4 5.804-3.569 7.547-6.247" fill="#FFCCBC"/><path d="M68.772 74.486c3.923-8.671 2.984-15.836 1.617-20.17l.952-5.667 2.068-.821c6.134 15.76-1.419 25.634-1.498 28.268-.094 3.109-3.487 6.273-3.487 6.273-.804-1.51-.711-3.52-.453-5.058-.498.351-.93.488-1.125.312-.318-.288.107-1.293.949-2.245.325-.368.664-.671.977-.892" fill="#FFECB3"/><path d="M42.586 86.786s-3.038 5.858-3.195 16.033m36.694-16.033s3.039 5.858 3.195 16.033" stroke="#FBC02D" stroke-width="1.247" stroke-linecap="round" stroke-linejoin="round"/><path d="M51.536 88.299s-2.665 6.7-2.822 16.98m19.167-16.98s2.666 6.7 2.822 16.98" stroke="#FBC02D" stroke-width="1.254" stroke-linecap="round" stroke-linejoin="round"/><path d="M58.934 89.558v17.05" stroke="#FBC02D" stroke-width="1.288" stroke-linecap="round" stroke-linejoin="round"/><path d="M71.583 46.81c.353-.73 1.142-1.102 1.84-.913.896.242 1.306 1.32 1.04 2.105-.206.61-.766.885-.902.947.656-.236 1.354.069 1.597.632.207.48.042 1.052-.313 1.368-.412.368-.956.282-1.18.246a1.818 1.818 0 0 1-.763-.316c.793.53 1.056 1.424.763 1.965-.385.713-1.59.544-1.7.526-.772-.119-1.244-.635-1.389-.806l1.007-5.755m-23.578.057c-.353-.73-1.142-1.1-1.84-.912-.897.242-1.307 1.32-1.041 2.105.206.61.766.885.903.948-.657-.237-1.354.068-1.597.631-.207.48-.042 1.052.312 1.368.412.368.957.282 1.18.246a1.81 1.81 0 0 0 .764-.316c-.793.53-1.056 1.424-.763 1.965.385.714 1.589.543 1.7.526.771-.118 1.244-.635 1.388-.807l-1.006-5.754" fill="#0288D1"/><path d="M41.479 25.467c14.024-1.561 17.455-8.969 17.455-8.969-18.487-4.8-17.455 8.969-17.455 8.969m17.455-8.969s2.761 7.808 19.962 9.179c0 0-1.843-15.4-19.962-9.179" fill="#424242"/><path d="M59.786 13.87c6.408 0 12.077 2.933 15.556 7.04-2.466-5.796-8.5-10.45-15.556-10.45-7.057 0-13.09 4.654-15.556 10.45 3.479-4.107 9.148-7.04 15.556-7.04" fill="#EF5350"/><path d="M60.253 13.138s2.801-6.481 6.064-7.564c3.262-1.084 3.613.854 4.512 3.621.9 2.767 2.007 5.315-1.256 6.398-3.262 1.084-9.32-2.455-9.32-2.455" fill="#E53935"/><path d="M60.83 13.138s-2.801-6.481-6.064-7.564c-3.262-1.084-3.613.854-4.512 3.621-.9 2.767-2.007 5.315 1.256 6.398 3.262 1.084 9.32-2.455 9.32-2.455" fill="#E53935"/><path d="M64.22 12.055c0 1.085-1.584 1.965-3.537 1.965-1.954 0-3.537-.88-3.537-1.965 0-1.086 1.583-1.966 3.537-1.966 1.953 0 3.536.88 3.536 1.966" fill="#EF5350"/></g></svg>