<svg width="120" height="120" viewBox="0 0 120 120" xmlns="http://www.w3.org/2000/svg" xmlns:xlink="http://www.w3.org/1999/xlink"><defs><path id="a" d="M.544.45h23.24v22.212H.544z"/><path id="c" d="M0 .211h12.562v6.226H0z"/><path id="e" d="M.031.28h94.023v90.466H.03z"/><path id="g" d="M.219.4h45.095v38.66H.22z"/></defs><g fill="none" fill-rule="evenodd"><g transform="translate(95.122 25.869)"><mask id="b" fill="#fff"><use xlink:href="#a"/></mask><path d="M17.387 4.897c-.685.744-2.301 1.97-1.809 3.138.384.912 1.566 1.313 2.462 1.436 3.195.438 3.587-5.634 1.27-5.837-2.928-.257-6.418 2.88-8.357 4.73-3.86 3.679-4.766 8.972-7.153 13.482-.78 1.472-3.463.823-3.243-.917.912-7.23 5.89-14.342 11.913-18.289 4.367-2.862 10.77-3.853 11.292 2.922.345 4.494-3.407 7.916-7.643 5.556-3.31-1.845-2.856-6.234 1.248-6.271.027 0 .036.032.02.05" fill="#282827" mask="url(#b)"/></g><g transform="translate(2 81.391)"><mask id="d" fill="#fff"><use xlink:href="#c"/></mask><path d="M12.537 1.56c-.518 2.527-2.975 3.51-5.179 4.342-2.39.902-4.925.683-6.958-.805-.506-.37-.57-1.132.028-1.467 1.78-.996 3.426-1.343 5.383-1.867C7.749 1.245 9.51.22 11.524.211c.725-.003 1.148.69 1.013 1.35" fill="#282827" mask="url(#d)"/></g><path d="M13.19 83.204l-.133-.096c-.269-.197-.394-.535-.21-.84.16-.267.57-.408.84-.211l.577.423a.547.547 0 0 1-.562.938l-.645-.31c-.301-.145-.37-.574-.21-.84.183-.307.54-.356.84-.211l.147.071c.732.352.01 1.556-.645 1.076" fill="#282827"/><g transform="translate(10.357 28.854)"><mask id="f" fill="#fff"><use xlink:href="#e"/></mask><path d="M2.319 33.593c-2.617 6.356-2.896 12.763-1.31 19.51.293 1.275.664 2.57 1.097 3.874.708 2.168 1.598 4.372 2.647 6.616 3.529 7.558 9.384 13.906 16.45 18.55a52.848 52.848 0 0 0 15.735 6.981c5.716 1.488 11.649 1.992 17.43 1.347a40.993 40.993 0 0 0 4.038-.638 45.28 45.28 0 0 0 8.382-2.607l.003-.005c15.951-6.732 26.105-22.105 27.17-40.018.8-13.397-3.533-29.763-14.512-38.383C67.483-.575 52.037-1.62 37.914 2.787a60.793 60.793 0 0 0-11.944 5.2 60.864 60.864 0 0 0-9.015 6.243c-3.882 3.237-7.297 6.93-10.062 10.965-1.827 2.663-3.371 5.475-4.574 8.398" fill="#FFC718" mask="url(#f)"/></g><path d="M36.327 36.84c-.6 3.197-.833 6.483-.825 9.705.026 11.103 2.874 22.297 6.771 32.634 4.061 10.755 9.21 21.097 15.586 30.674 2.16 3.243 4.407 6.443 6.866 9.472a40.993 40.993 0 0 0 4.038-.638 45.325 45.325 0 0 0 8.383-2.607l.003-.005c-.39-.492-.783-.992-1.178-1.486-2.978-3.714-5.151-6.618-7.68-10.456a154.67 154.67 0 0 1-14.532-27.816c-3.59-9.027-6.22-18.787-6.835-28.296-.156-2.421-.22-4.861-.062-7.285.14-2.114.343-3.933.63-5.51.221-1.206.482-2.4.78-3.585a60.758 60.758 0 0 0-11.945 5.2M17.25 54.048c-.647 3.717-.815 7.505-.615 11.302.605 11.37 3.984 22.38 8.493 32.771a140.379 140.379 0 0 0 6.432 12.877 52.84 52.84 0 0 0 15.735 6.98 163.288 163.288 0 0 1-12.807-22.433c-4.336-9.243-7.834-19.206-8.912-29.413-.508-4.81-.532-9.737.011-14.548.252-2.23.708-4.461 1.225-6.648.139-.616.32-1.234.5-1.852-3.881 3.237-7.296 6.93-10.061 10.964" fill="#282827"/><g transform="translate(14.536 .197)"><mask id="h" fill="#fff"><use xlink:href="#g"/></mask><path d="M36.902 1.21C29.82-1.653 23.37 3.524 21.505 9.632c-2.185 7.153.28 13.524 2.806 20.07C21.43 22.71 10.583 5.489 2.579 16.587c-9.028 12.52 9.99 23.794 20.92 22.347C38.013 37.014 56.303 9.047 36.902 1.21" fill="#9FD4E0" mask="url(#h)"/></g><path d="M99.577 15.655c-.818.62-1.366 1.375-1.841 2.272-1.408 2.653 1.098 2.033 2.626 1.153 2.804-1.616 3.21-5.29 1.044-7.534-3.489-3.614-8.195-.092-10.121 3.024-2.224 3.6-3.294 7.93-4.314 11.993-.843 3.358-1.302 7.11-2.863 10.232-1.047 2.097-4.362.576-3.725-1.6 1.797-6.143 3.374-12.581 5.96-18.443 2.351-5.331 6.13-10.416 12.58-9.437 7.514 1.14 8.648 10.006 2.596 13.875-1.986 1.269-5.318 2.014-6.134-.86-.703-2.47 1.683-4.82 3.835-5.322.345-.08.678.404.357.647" fill="#282827"/><path d="M56.137 53.276c-1.54 8.879 7.92 15.436 16.126 13.963 9.446-1.698 11.657-15.55 5.125-21.522-4.935-4.512-12.177-4.65-17.012.09-2.489 2.441-3.81 4.999-4.239 7.47" fill="#FFF"/><path d="M74.67 58.746c6.255-2.471 5.702-11.22-.848-12.857-5.826-1.455-10.926 5.353-7.023 10.26 1.96 2.463 4.747 3.831 7.87 2.597" fill="#000"/></g></svg>