<svg width="150" height="181" viewBox="0 0 150 181" xmlns="http://www.w3.org/2000/svg"><g fill="none"><path d="M90.778 140.928c.527 2.484-.855 4.576-3.16 5.034-1.843.392-4.212-.654-4.607-2.746-.198-1.242.329-2.484 1.316-3.268.263-.196.527-.392.856-.523a3.013 3.013 0 0 1 1.316-.327c1.185-.065 3.555 0 4.28 1.83zm-8.097-2.745c.593.327.79 1.111.461 1.7l-.066.065c-.329.523-1.053.719-1.645.392-.33-.261-.461-.588-.461-.98 0-.131.066-.197.066-.327.066-.131.131-.262.197-.327.33-.262.922-.785 1.448-.523zm3.094-.262c-2.699-.261-3.489-.392-4.213-4.772-.592-3.399 1.317-8.17 2.436-11.309 1.185-3.333 2.501-6.733 1.25-10.132-1.316-3.66-.263-6.34 2.107-8.433 1.251-1.11 6.452-.719 8.624 3.4 1.975 3.791 1.053 11.178.329 14.512-1.185 5.295-7.834 16.996-10.533 16.734z" fill="#AAA082"/><path d="M93.412 107.263c.921 1.961-.461 3.4-2.173 3.791-1.514.393-2.962-.522-3.357-2.026v-.13c-.132-.981.263-1.962.987-2.616.198-.196.395-.326.593-.392.329-.13.658-.261.987-.261.922-.066 2.04-.327 2.963 1.634z" fill="#DCD2B4"/><path d="M47.858 171.848l-.724-1.242s36.403-24.252 38.707-23.14c.264 1.11.593 2.287-.921 3.79-7.176 7.518-37.062 20.592-37.062 20.592zm32.849-30.266c.065.262.131.523.197.85-3.555 4.968-14.877 10.46-19.551 14.381L46.41 169.168l-1.515-1.242 1.251-2.942s28.768-25.82 34.56-23.402z" fill="#AAA082"/><path d="M52.005 175.967s-5.464-7.126-5.859-7.649c-.197 0 2.568-1.7 2.568-1.765-.79-.588-1.646-1.111-2.568-1.634l-2.172 2.484c.395 1.177 1.053 2.223 1.843 3.203.132.654 5.464 6.341 5.464 6.341l.724-.98z" fill="#AAA082"/><path d="M41.407 60.59s1.514 23.663 7.504 24.643l4.871-1.242-2.764-22.487-9.611-.915z" fill="#C8BEA0"/><path d="M87.816 62.616l.395 19.872 6.385 2.745s5.99-17.126 2.634-23.533l-9.414.916z" fill="#AAA082"/><path d="M119.414 155.702l-1.317-.065c-6.187-8.172-4.278-20.396-3.423-30.005a61.97 61.97 0 0 0-.79-17.78c-.329-1.57-4.41-11.833 4.938-13.99 9.347-2.157 6.188 13.532 6.188 16.473 0 5.426-.132 10.852-.33 16.277-.329 9.348 2.897 22.357-5.266 29.09zm-1.053-46.674c-1.251 1.111-1.185 6.602-1.317 8.237-.263 3.333-.263 6.667-.066 10.001.264 3.595.527 7.125.527 10.72 0 2.877-.527 6.734.066 9.48l1.185 1.241c.526.262 1.119.262 1.646.131 2.501-6.668 1.316-13.27 1.382-20.2 0-3.66-.066-7.255-.066-10.916 0-2.353 1.053-8.171-2.436-8.89l-.921.196z" fill="#C8BEA0"/><path d="M103.22 55.425c1.448-.262 5.003 2.68 6.32 3.857 4.74 10.524 9.084 22.356 9.677 24.71 1.053 3.987 4.41 16.407.79 19.61-2.107-.261-2.634-4.576-2.897-6.275-2.436-15.427-12.178-35.692-13.034-36.542-.856-.85-2.304-1.111-3.16-2.092-.592-1.634 1.25-2.549 2.304-3.268z" fill="#AAA082"/><path d="M122.903 100.203c.856 2.288-.132 4.772-2.107 5.622-1.711.719-3.752-.065-4.476-1.765 0-.065-.066-.13-.066-.196-.329-1.177-.131-2.419.659-3.4a3.11 3.11 0 0 1 .658-.653c.329-.262.724-.458 1.119-.523 1.448-.13 2.896.13 4.213.915z" fill="#AAA082"/><path d="M125.339 162.37a4.116 4.116 0 0 0-1.383-4.053c-.526-.392-3.62-1.896-5.134-1.112-2.7 1.308-3.95 5.753-2.107 7.256 1.053.85 3.094 1.7 4.74 1.177 1.646-.523 3.028-2.484 3.884-3.268zm-5.135 4.576c0 .653-.066 1.242-.066 1.83l-.131 4.837c0 1.438.131 2.811.526 4.184.33 1.177.922 1.503 2.238 1.242.33-.262.33-.654.33-.98.131-1.766 0-3.465-.395-5.165-.264-1.046-.461-2.157-.725-3.268-.131-.589-.329-1.112-.526-1.635-.132-.588-.659-.98-1.251-1.045zm-2.501 10.524c.855-1.7 1.25-8.433.658-10.786-.132-.13-.33-.196-.527-.261a2.323 2.323 0 0 0-.658-.131c-.132.261-.263.523-.33.784-.065.392-.13.785-.197 1.242-.131 1.635-.329 3.203-.395 4.838 0 1.046.132 2.091.33 3.072.065.588.46 1.111 1.119 1.242zm7.372-13.597l-1.185.785c-.065 1.438 0 2.941.264 4.38a53.07 53.07 0 0 1 .592 4.51c.066 1.046.527 2.026 1.317 2.68.197-.261.46-.392.592-.588.132-.327.132-.72.132-1.112-.263-3.464-.922-6.863-1.448-10.328-.066 0-.132-.065-.264-.327zm4.872 4.053c.46-.392.592-1.046.395-1.634-.198-.654-.33-1.373-.593-2.027-.263-.784-.658-1.503-.921-2.288-.395-.784-.856-1.503-1.514-2.157-.264-.261-.593-.457-.922-.653-.132.261-.263.522-.263.85.065 2.287.658 4.51 1.58 6.602.395.915 1.316 1.503 2.238 1.307z" fill="#C8BEA0"/><path d="M17.84 149.884c-3.16-3.595-1.514-8.171-.856-12.616.79-4.968 2.04-9.806 3.884-14.512 1.58-4.184 3.16-8.433 4.476-12.747.659-2.158 1.514-4.446 1.383-6.734-.132-2.418-1.12-10.916 6.978-10.459 8.097.458.065 14.382-.527 15.95-1.91 5.034-3.028 10.656-4.476 15.82-1.449 5.033-1.844 10.328-3.16 15.362-1.383 5.033-1.91 9.61-7.702 9.936zm12.968-47.328c-2.304.393-4.147 7.126-4.805 9.152-1.251 3.596-2.173 7.322-3.094 11.048-.79 3.137-1.844 6.21-2.765 9.282-.79 2.746-3.226 8.106-1.514 10.786l2.172.785c2.238-2.288 2.37-6.864 3.291-9.871 1.054-3.596 2.304-7.126 3.358-10.786.921-3.073 6.583-19.088 3.357-20.396z" fill="#DCD2B4"/><path d="M32.256 97.915h-.79c-2.962-4.903-1.777-12.616-1.711-18.042 0-3.922-.066-7.91 0-11.832.066-2.876 0-7.125 1.382-9.936.395-.719 2.633-3.072 3.028-.915 1.449 7.256 1.12 30.92-1.909 40.725z" fill="#C8BEA0"/><path d="M34.034 95.562c1.053 1.569.724 3.66-.724 4.772-1.251.915-2.963.588-3.884-.654 0-.065-.066-.065-.066-.13-.461-.85-.527-1.896-.066-2.746a5.74 5.74 0 0 1 .395-.654c.197-.261.46-.457.79-.588 1.25-.392 2.436-.392 3.555 0z" fill="#C8BEA0"/><path d="M38.313 56.47c-.264-.26-3.884-.784-6.386-2.68-.724-3.725 5.332-4.64 7.636-3.79 2.304.849 4.082 2.418 3.884 3.725-.197 1.308-2.699 2.68-5.134 2.746z" fill="#DCD2B4"/><path d="M95.716 51.699c-.264.261-3.95.588-6.518 2.419-.921 3.66 5.135 4.837 7.44 4.118 2.303-.72 4.146-2.223 4.015-3.596-.132-1.438-2.502-2.745-4.937-2.941z" fill="#C8BEA0"/><path d="M83.274 109.682c-.263 4.641-6.715 3.987-10.138 4.118-3.62.13-8.82.261-11.783-2.157-3.423-2.746-.724-7.583-3.358-10.655-3.093-3.53-7.965-.981-11.651-1.896-.461-5.949 14.548-2.942 17.708-2.876 6.978.196 13.89-.589 20.802-1.439 2.567-.261 5.99-1.11 8.492-.457 2.501.654 4.476 3.987 1.316 5.426-1.909.85-5.332-.916-7.57-.458-3.884.784-4.016 3.268-3.818 10.394zm-18.827-8.237c-.395 1.177 0 5.426 1.711 6.864 1.054.85 2.963.915 4.74 1.177 3.62.523 5.99-.066 6.715-3.007.46-2.027.263-2.68.263-4.838 0-2.157-2.37-1.96-3.226-1.634-.856.327-.066 1.7-.921 2.353-.659.458-3.687.98-4.543.131-.855-.85 0-1.765-1.645-2.092-1.646-.327-2.7-.13-3.094 1.046z" fill="#DCD2B4"/><path d="M62.801 96.28c.066-1.045.395-1.699.987-1.895.527-.196 1.054-.327 1.58-.457 1.58-.262 3.226-.066 4.806-.131 1.448-.065 2.896-.13 4.41-.196h.725c.921 1.373.395 3.464-.33 3.987-.131.131-.329.196-.526.262-.988.392-1.975.523-3.028.523a79.845 79.845 0 0 1-5.596 0 5.582 5.582 0 0 1-1.777-.262c-.593-.196-1.054-.719-1.251-1.83zm.329-41.313c.132-1.046.461-1.7 1.053-1.83a6.723 6.723 0 0 1 1.646-.392c1.58-.196 3.226.065 4.806.065 1.448-.065 2.896 0 4.41 0h.724c.856 1.373.264 3.465-.526 3.988-.198.065-.33.196-.527.261a8.062 8.062 0 0 1-3.028.392c-1.843 0-3.686-.065-5.596-.196-.592 0-1.184-.13-1.777-.327-.592-.261-1.053-.784-1.185-1.96z" fill="#DCD2B4"/><path d="M11.783 152.107a5.535 5.535 0 0 1 2.765-1.373c1.185-.196 2.37 0 3.358.654.855.457 1.119 1.372 1.382 2.287.066.327-.066.654-.198.916-.46.719-1.053 1.438-1.58 2.026-1.184.98-2.896 1.242-4.344.523a.908.908 0 0 1-.263-.196c-.725-.85-1.317-1.83-1.778-2.81-.329-.785-.066-1.374.658-2.027z" fill="#AAA082"/><path d="M5.2 169.299l-.921-1.177c0-.588.197-1.111.592-1.503 1.514-1.83 3.028-3.596 4.543-5.426a13.974 13.974 0 0 1 2.238-2.157c.329-.327.856-.523 1.316-.458.395.262.33.523.264.915a6.756 6.756 0 0 1-1.317 2.877c-.922 1.11-1.711 2.353-2.633 3.399-.856.98-1.777 1.83-2.765 2.68-.395.327-.856.588-1.316.85zm-4.805-2.811c-.198-.72.066-1.438.592-1.961.593-.654 1.251-1.373 1.844-2.027 1.25-1.503 2.633-2.876 4.081-4.249a24.736 24.736 0 0 1 2.04-1.634 1.202 1.202 0 0 1 1.515-.13c0 .195-.066.326-.132.457-.395.458-.658.98-.856 1.503-.065.262-.197.458-.395.654-1.316 1.504-2.37 3.203-3.818 4.576a16.487 16.487 0 0 1-2.896 2.288c-.593.458-1.25.588-1.975.523zm0-4.053c.79-2.288 5.925-7.517 8.294-8.433a2.03 2.03 0 0 1-.658 1.896 133.928 133.928 0 0 1-3.16 3.007c-.658.588-1.25 1.242-1.843 1.896a3.567 3.567 0 0 1-2.633 1.634zm15.47 2.811c-.395-.654-.395-1.438-.066-2.157.132-.327.263-.72.46-1.046a37.992 37.992 0 0 0 2.831-5.687c.066-.196.198-.327.264-.523.197.13.395.327.526.523.527.784.725 1.7.461 2.614-.592 1.896-1.053 3.857-2.172 5.557-.658 1.111-.988 1.242-2.304.719z" fill="#C8BEA0"/><path d="M39.432 62.027a5.258 5.258 0 0 1 .526-3.857c2.238-2.288 9.875-.392 12.574-.13 4.081.327 8.162.85 12.244 1.634.395.392.527.98.329 1.503-3.028 1.962-8.294 1.57-11.85 1.765-3.817.197-10.664 1.765-13.823-.915zm1.448 8.303c-.593-1.308-.922-2.485-.263-3.792 6.977-1.373 15.667-2.092 22.776-1.373 1.054 1.307 1.12 1.503 1.054 2.68-6.912 3.465-16.194 4.968-23.567 2.484zm2.83 6.275a90.797 90.797 0 0 1 12.574-2.419c2.172-.327 7.57-2.615 9.413-1.046.33 2.55-11.783 5.818-13.56 6.406-1.778.589-5.596 1.765-7.439 1.177-2.238-.72-1.514-2.223-.987-4.118zm3.095 8.628c3.028-1.83 6.912-2.484 10.269-3.726 2.896-1.046 5.99-2.876 9.15-2.745-1.25 3.203-18.366 11.505-19.42 6.471z" fill="#DCD2B4"/><path d="M42.591 59.478l-3.225 1.96s1.975 20.266 7.833 24.384l2.568.327c-2.173-5.36-4.016-10.852-5.596-16.408a67.857 67.857 0 0 1-1.58-10.263zm33.969 9.74l-.725-1.307c.132-.458.33-.916.527-1.373 2.435-1.896 9.282-.066 12.112.13 3.16.197 6.188.327 9.282 1.112.593.915.922 1.96 1.054 3.072-1.383 3.203-7.834 1.504-10.401 1.242-4.082-.327-8.032-1.307-11.85-2.876zm-.33-7.779c.922-3.203 7.176-2.027 9.48-1.961 3.95.13 7.833.196 11.783.327 3.95 4.183-6.649 4.314-7.965 4.314-2.568-.065-12.705 1.046-13.298-2.68zm1.383 11.897c6.714.523 13.692 2.419 20.34 3.857l.66.98c.065.85-.133 1.7-.528 2.485-2.435.261-22.776-4.38-20.472-7.322zm.263 6.994c.658-2.876 15.667 3.138 18.037 3.923l.46 1.307c-1.118 4.315-16.72-2.55-18.497-5.23z" fill="#DCD2B4"/><path d="M92.753 86.345l3.028.065s2.107-2.288 3.226-7.779c1.12-5.752.79-15.166-1.12-18.107l-3.093-.066c.856 1.504 1.448 3.203 1.646 4.903.395 2.288.066 5.164-.264 8.564-.395 3.987-3.028 10.916-3.423 12.42z" fill="#DCD2B4"/><path d="M69.45 60.85c-.264 4.511-.33 9.022-.132 13.467.066 2.81.263 5.622.263 8.432 0 2.223-.263 4.903.527 6.864.79.458 1.317.196 1.91-1.046.526-8.955-.067-18.63-.923-27.716H69.45z" fill="#C8BEA0"/><path d="M66.027 89.025c.263-3.66 6.45-2.157 9.018-2.027 2.7 6.21-8.623 5.884-9.018 2.027zm.79-7.256c.263-3.66 5.66-2.157 7.9-2.027 2.5 6.276-7.505 5.884-7.9 2.027zm.592-6.537c.263-3.66 5.266-3.988 6.583-1.242 2.106 4.314-6.188 5.099-6.583 1.242z" fill="#C8BEA0"/><path d="M66.62 68.303c.262-3.661 5.265-3.988 6.582-1.242 2.04 4.38-6.188 5.164-6.583 1.242z" fill="#C8BEA0"/><path d="M67.014 62.158c.198-2.942 4.279-3.203 5.332-.98 1.646 3.53-5.003 4.183-5.332.98z" fill="#C8BEA0"/><path d="M72.28 88.633c.132.653-.263 1.372-.987 1.503h-.066c-.658.13-1.25-.327-1.382-.915 0-.392.131-.784.46-.98a.5.5 0 0 1 .264-.131c.132-.066.263-.066.395-.066.395-.065 1.119 0 1.316.589zm-.065-7.191c.131.654-.264 1.373-.988 1.504h-.066c-.658.13-1.25-.327-1.382-.916a.97.97 0 0 1 .46-.98.5.5 0 0 1 .264-.13c.132-.066.263-.066.395-.066.395-.066 1.12 0 1.317.588zm-.066-6.864c.131.654-.264 1.373-.988 1.504h-.066c-.658.13-1.25-.327-1.382-.915 0-.393.132-.785.46-.981a.5.5 0 0 1 .264-.13c.132-.066.264-.066.395-.066.395-.065 1.12 0 1.317.588zm-.593-6.929c.132.654-.263 1.373-.987 1.504h-.066c-.658.13-1.25-.327-1.382-.916a.97.97 0 0 1 .46-.98.5.5 0 0 1 .264-.13c.131-.066.263-.066.395-.066.395-.066 1.119 0 1.316.588zm-.329-6.014c.132.654-.263 1.373-.987 1.504h-.066c-.658.13-1.25-.327-1.383-.916a.97.97 0 0 1 .461-.98.5.5 0 0 1 .264-.13c.131-.066.263-.066.395-.066.46-.066 1.184 0 1.316.588z" fill="#DCD2B4"/><path d="M67.277 135.699c.264.654.988.98 1.646.719 0 0 .066 0 .066-.065.592-.262.856-.981.592-1.57-.197-.326-.526-.522-.921-.588h-.33c-.131.066-.263.066-.394.131-.264.327-.79.785-.659 1.373zM52.4 101.184c-3.555-.196-7.175 2.941-7.768 6.471-.526 3.073 3.357 7.06 6.188 6.014 3.555-.653 4.213 1.896 5.596 4.642 1.448 2.941 3.357 5.556 5.068 8.367 1.317 2.092 2.7 4.968 4.938 6.34 1.58.981 3.094.589 4.41-.326.33-.262 1.58-2.615 1.053-5.687-.855-4.772-3.95-11.179-5.727-13.663-3.884-5.36-10.203-11.962-13.758-12.158z" fill="#C8BEA0"/><path d="M47.858 107.982c.592 1.896 2.106 2.942 3.818 2.484 1.448-.392 2.37-1.83 2.04-3.334 0-.065 0-.065-.065-.13a2.846 2.846 0 0 0-2.107-1.83c-.263-.066-.526-.066-.724-.066a2.65 2.65 0 0 0-.987.196c-.988.261-2.173 1.569-1.975 2.68z" fill="#F0E6D2"/><path d="M77.876 135.437c-.132-.196-.198-.457-.395-.653-1.383-1.961-2.567-2.288-4.937-1.242-1.12.457-1.91 1.372-2.238 2.55-.527 2.548 2.501 4.248 4.608 3.333l1.58-.654c.79-.98 1.58-1.896 1.382-3.334zm3.357 3.792c-.658-.392-1.053-.785-1.711-.654-.593.327-.725.915-.922 1.504 2.896 11.047 13.232 27.716 18.235 37.914l.987-.72c-.527-4.836-5.925-14.707-7.9-19.022-2.896-6.406-5.266-12.877-8.689-19.022z" fill="#C8BEA0"/><path d="M99.468 175.705c.658-.392 1.711-1.307 2.567-1.307.066.196.132.392.198.523-.724 1.438-3.226 2.876-4.477 3.856-1.448 1.112-2.699 1.83-3.094 1.635-.592-.458-1.053-1.112-1.119-1.896.066.13 2.633-.654 2.633-.654s3.16-2.026 3.292-2.157z" fill="#C8BEA0"/><path d="M72.873 143.151c-1.383.523 2.238 5.883 3.62 8.433 1.646 2.941 3.292 5.883 5.07 8.694 1.908 3.007 11.914 18.303 11.914 18.303l1.91.98 1.119-.98-20.078-32.685c.065-.065-2.173-3.268-3.555-2.745zm13.89-98.512c1.843-.065 5.266-.785 7.11-.85.065.392.592 7.322-1.778 8.106-.724.654-2.436 0-3.291-.13-1.317-1.047-2.239-5.1-2.041-7.126z" fill="#C8BEA0"/><path d="M76.428 50.784c-.856-.98-1.054-7.06-.922-8.237 1.12.065 4.806 3.007 5.596 3.334.46.588.131 4.707-.132 5.164-1.843.654-2.83.588-4.542-.261z" fill="#F0E6D2"/><path d="M94.991 45.358c-.131 1.634-.131 3.268.198 4.837 1.58.785 2.37.785 3.686.066.395-.523.527-6.668.527-8.956l-4.41 4.053z" fill="#AAA082"/><path d="M86.631 46.077c.395.72-.263 4.445-.46 5.164-.264.915-1.12 1.438-2.041 1.177-.132-.065-.33-.13-.461-.196-.132-.066-.263-.196-.395-.262-.527-1.046-1.383-5.621-1.053-6.602.921-.327 3.489.458 4.41.719z" fill="#F0E6D2"/><path d="M95.255 17.053c-4.082-2.419-9.48-2.68-14.088-3.334-6.912-.98-24.62 2.68-29.162 9.675-2.04 3.138-2.238 8.694-.132 11.897 2.568 3.857 6.78 4.968 11.06 5.687 5.332.85 9.282.066 12.902 4.707 1.843 2.419 4.542 3.334 7.373 3.53 1.646.065 7.834-.131 9.216-.458 3.16-.784 5.727-2.941 7.11-5.883 6.188-13.924-.395-23.533-4.28-25.821z" fill="#DCD2B4"/><path d="M92.82 29.408c-.79-.066-1.45.457-1.647 1.176a19.471 19.471 0 0 0-1.185 3.792c-.197 1.373-.526 2.68-.79 3.987-.197.916-.592 2.877.922 2.877s1.843-2.158 2.83-2.354c.988-.196.857 1.373 2.37 2.158 1.515.784 1.58-.458 1.712-.785.132-2.81-1.58-10.459-4.213-10.851z" fill="#C8BEA0"/><path d="M85.775 29.08c2.173 3.204 0 7.06-3.357 8.499-2.699 1.177-6.649.13-7.768-3.268a6.275 6.275 0 0 1 1.12-5.753 8.89 8.89 0 0 1 1.118-1.111c.593-.393 1.185-.72 1.91-.915 1.909-.393 4.805-.654 6.977 2.549z" fill="#FFF"/><path d="M83.537 30.715c.527.196.856.654.922 1.177-.132.784-.132 1.634-1.251 1.765-.856-.523-.592-1.308-.592-2.027.065-.523.46-.915.921-.915z" fill="#000"/><path d="M109.803 28.362c2.172 3.203 0 7.06-3.357 8.498-2.7 1.177-6.649.13-7.768-3.269-.593-1.83-.132-4.38 1.119-5.752.33-.392.724-.785 1.12-1.111.592-.393 1.184-.72 1.908-.916 1.91-.457 4.806-.653 6.978 2.55z" fill="#FFF"/><path d="M107.17 29.93c.526.197.856.654.921 1.177-.131.785-.131 1.635-1.25 1.765-.856-.523-.593-1.307-.593-2.026 0-.458.395-.85.922-.915z" fill="#000"/></g></svg>