<svg width="120" height="120" viewBox="0 0 120 120" xmlns="http://www.w3.org/2000/svg" xmlns:xlink="http://www.w3.org/1999/xlink"><defs><path id="a" d="M0 .648h119.443v113.548H0z"/></defs><g fill="none" fill-rule="evenodd"><path d="M48.597 67.005c0 6.13 4.974 11.102 11.113 11.109v-4.021c-3.915-.007-7.086-3.179-7.086-7.088 0-3.91 3.171-7.08 7.086-7.087v-4.021c-6.139.006-11.113 4.976-11.113 11.108" fill="#D76C79"/><path d="M52.624 67.005c0 3.91 3.171 7.081 7.086 7.088V59.918c-3.915.006-7.086 3.176-7.086 7.087" fill="#F29E9F"/><g transform="translate(0 3.156)"><mask id="b" fill="#fff"><use xlink:href="#a"/></mask><path d="M59.722 74.957h-.012c-6.139-.006-11.113-4.977-11.113-11.108S53.571 52.748 59.71 52.74l.012-.001c6.144 0 11.124 4.974 11.124 11.109s-4.98 11.108-11.124 11.108m55.672-31.3l-36.738 4.88c-4.98.661-9.779-2.837-10.666-7.773L61.44 4.338C60.971 1.724 60.337.506 59.71.662c-.556.138-1.108 1.352-1.535 3.67L51.47 40.73c-.908 4.932-5.724 8.41-10.7 7.726L4.053 43.417c-4.976-.68-5.433.714-1.016 3.101L35.63 64.135c4.416 2.388 6.24 8.034 4.053 12.548l-16.145 33.313c-2.187 4.515-1 5.378 2.64 1.923l26.849-25.51c1.84-1.747 4.264-2.604 6.683-2.58 2.368.023 4.729.89 6.521 2.608l26.741 25.627c3.623 3.472 4.815 2.612 2.647-1.912l-16-33.382c-2.168-4.524-.319-10.163 4.108-12.531l32.67-17.476c4.426-2.368 3.976-3.765-1.003-3.105" fill="#EA575B" mask="url(#b)"/></g><path d="M59.722 59.917c3.92 0 7.097 3.174 7.097 7.088 0 3.915-3.178 7.087-7.097 7.087h-.012v4.021h.012c6.144 0 11.124-4.973 11.124-11.108 0-6.135-4.98-11.11-11.124-11.11l-.012.002v4.021l.012-.001" fill="#D76C79"/><path d="M66.82 67.005c0-3.914-3.178-7.088-7.098-7.088h-.012v14.176h.012c3.92 0 7.098-3.174 7.098-7.088" fill="#F9C7B4"/><path d="M60.305 18.848a1.815 1.815 0 0 1-2.308-1.12 1.811 1.811 0 0 1 1.117-2.306 1.813 1.813 0 1 1 1.19 3.426m.404 8.592a2.436 2.436 0 0 1-1.599-4.602 2.44 2.44 0 0 1 3.103 1.504 2.433 2.433 0 0 1-1.504 3.097m.306 10.411a3.13 3.13 0 0 1-3.98-1.928 3.118 3.118 0 0 1 1.931-3.972 3.122 3.122 0 1 1 2.049 5.9m.435 12.305a4.445 4.445 0 0 1-5.655-2.74 4.434 4.434 0 0 1 2.746-5.645 4.444 4.444 0 0 1 5.652 2.74 4.436 4.436 0 0 1-2.743 5.645" fill="#F29E9F"/><path d="M104.656 52.676a1.814 1.814 0 1 1 2.977-2.075 1.81 1.81 0 0 1-.449 2.523 1.817 1.817 0 0 1-2.528-.448m-8.17 2.724a2.436 2.436 0 0 1 .604-3.392 2.441 2.441 0 0 1 3.395.605c.77 1.102.5 2.62-.605 3.39a2.44 2.44 0 0 1-3.394-.604m-9.95 3.126a3.12 3.12 0 0 1 .776-4.347 3.13 3.13 0 0 1 4.353.774 3.119 3.119 0 0 1-.777 4.346 3.129 3.129 0 0 1-4.352-.773m-11.74 3.765a4.435 4.435 0 0 1 1.102-6.18 4.45 4.45 0 0 1 6.19 1.104 4.433 4.433 0 0 1-1.105 6.177 4.448 4.448 0 0 1-6.187-1.101m11.575 41.923a1.815 1.815 0 0 1 2.923 2.15 1.815 1.815 0 0 1-2.923-2.15m-5.206-6.854a2.443 2.443 0 0 1 3.41-.516 2.432 2.432 0 0 1 .516 3.406 2.439 2.439 0 0 1-3.409.515 2.432 2.432 0 0 1-.517-3.405m-6.158-8.405a3.13 3.13 0 0 1 4.373-.661 3.12 3.12 0 0 1 .662 4.364 3.131 3.131 0 0 1-4.372.66 3.12 3.12 0 0 1-.663-4.363m-7.339-9.894a4.447 4.447 0 0 1 6.214-.94 4.433 4.433 0 0 1 .94 6.204 4.45 4.45 0 0 1-6.213.94 4.433 4.433 0 0 1-.941-6.204" fill="#F9C7B4"/><path d="M32.022 103.824a1.812 1.812 0 1 1-1.06 3.465 1.81 1.81 0 0 1-1.205-2.262 1.815 1.815 0 0 1 2.265-1.203m4.748-7.18a2.436 2.436 0 1 1-1.427 4.657 2.433 2.433 0 0 1-1.618-3.039 2.44 2.44 0 0 1 3.044-1.618m5.898-8.588a3.12 3.12 0 0 1 2.075 3.898 3.127 3.127 0 0 1-3.903 2.074 3.122 3.122 0 1 1 1.828-5.972m6.913-10.199a4.438 4.438 0 1 1-2.6 8.488 4.436 4.436 0 0 1-2.95-5.541 4.446 4.446 0 0 1 5.55-2.947m-34.609-27.17c0 1-.813 1.811-1.814 1.811a1.813 1.813 0 0 1-1.815-1.81c0-1.001.813-1.812 1.815-1.812 1.001 0 1.814.81 1.814 1.811m8.264 2.435a2.437 2.437 0 0 1-2.439 2.434 2.437 2.437 0 0 1-2.44-2.434 2.437 2.437 0 0 1 2.44-2.434 2.437 2.437 0 0 1 2.439 2.434m9.949 3.121c0 1.723-1.4 3.12-3.127 3.12a3.124 3.124 0 0 1-3.126-3.12c0-1.724 1.4-3.121 3.126-3.121a3.124 3.124 0 0 1 3.127 3.12m11.788 3.62c0 2.45-1.99 4.437-4.445 4.437a4.441 4.441 0 0 1-4.444-4.437c0-2.45 1.99-4.438 4.444-4.438a4.441 4.441 0 0 1 4.445 4.438" fill="#F29E9F"/></g></svg>