<svg width="120" height="120" viewBox="0 0 120 120" xmlns="http://www.w3.org/2000/svg"><g fill="none" fill-rule="evenodd"><path d="M105.081 112.138H66.426l-.08-.049H7.794a3.74 3.74 0 0 1-1.416-.283l.013-.01c-1.047-.435-1.774-1.312-1.774-2.342V53.78a4.225 4.225 0 0 1-.075-.778V15.546c0-.19.016-.365.028-.54a3.948 3.948 0 0 1-.028-.58 4.08 4.08 0 0 1 .017-.387c.008 0 .012.36.012.954.294-3.52 3.417-3.597 5.466-3.597l93.321-4.249c2.15 0 9.001 0 9.472 8.399v6.986a7.641 7.641 0 0 1 1.666 1.925l-.07.058c1.44 2.325 2.225 5.944 2.225 11.524v16.226c1.693.48 2.93 1.951 2.93 3.709v16.015c0 1.758-1.237 3.228-2.93 3.71v24.588c-.168 3.588 1.063 11.851-11.57 11.851" fill="#CEA758"/><path d="M3.947 57.08h100.49c2.152 0 3.897-1.825 3.897-4.078V15.546c-.467-8.399-7.32-8.399-9.472-8.399l-93.32 4.249c-2.153 0-5.496.076-5.493 4.15v37.456c0 2.253 1.745 4.078 3.898 4.078" fill="#382D2B"/><path fill="#AEBD83" d="M102.462 18.405l-100.43.585v-5.9l100.43-2.638v7.953"/><path fill="#8CA263" d="M2.504 22.384h100.892v-7.958H2.504z"/><path fill="#879C5B" d="M4.373 24.763h100.893v-7.954H4.373z"/><path d="M.05 14.426c-.008.202.003.396.03.598 0-.962-.011-1.335-.03-.598" fill="#412536"/><path d="M109.933 24.514c1.438 2.324 2.226 5.946 2.226 11.525v64.248c-.172 3.588 1.059 11.851-11.57 11.851H61.932l-.081-.049H3.298c-.51 0-.987-.108-1.415-.283l.011-.01c-1.047-.43-1.77-1.315-1.77-2.342V25.378c0-1.06.036-7.796.029-10.354.354 2.869 3.712 5.8 7.798 5.8 2.526 0 93.208-.23 93.208-.23 3.9-.004 6.943.796 8.845 3.863l-.07.057z" fill="#936B4B"/><path d="M8.21 28.647l-.516-.018c-1.147-.054-2.2-.234-3.13-.535l.43-1.335c.81.26 1.744.418 2.767.467l.495.023-.047 1.398m76.611-.27l-.003-1.402c2.584-.01 4.931-.018 6.968-.018v1.402c-2.034 0-4.377.01-6.965.018zm-13.923.081l-.01-1.403 6.965-.044.006 1.402-6.961.045zm-13.927.095l-.012-1.403 6.964-.05.01 1.403-6.962.05zm-13.93.094l-.005-1.403 6.958-.045.006 1.403-6.958.045zm-13.926.077l-.003-1.403 6.959-.036.01 1.403-6.966.036zm-9.834.022c-1.476 0-2.842-.004-4.098-.004l.006-1.408c1.25.005 2.62.01 4.092.01l2.866-.005v1.403l-2.866.004zm85.109 1.956c-1.13-1.38-2.582-2.095-4.568-2.262a18.67 18.67 0 0 0-1.094-.04l.029-1.403c.56.014.959.027 1.18.045 2.357.193 4.171 1.102 5.537 2.77l-1.084.89zm3.005 12.88a98.143 98.143 0 0 0-.057-1.56c-.081-1.955-.266-3.726-.545-5.25l1.382-.252c.291 1.591.482 3.426.567 5.449.022.485.04 1.011.056 1.573l-1.403.04zm1.547 13.894h-1.407v-.805c0-2.122-.006-4.195-.022-6.146l1.404-.01c.02 1.952.025 4.03.025 6.156v.805zm-.084 13.933l-1.404-.014c.022-2.18.044-4.536.057-6.96l1.403.01c-.015 2.423-.034 4.788-.056 6.964zm-1.542 13.942l-.012-2.342c0-.018.028-1.799.069-4.65l1.403.019c-.04 2.855-.069 4.64-.069 4.64l.013 2.324-1.404.01zm.075 13.956l-.037-6.983 1.404-.004.037 6.978-1.404.009zm-7.503 9.594l-.216-1.384c2.704-.423 4.734-1.214 6.021-2.352l.928 1.057c-1.495 1.317-3.76 2.216-6.733 2.68zm-76.71.239l-6.968-.014.004-1.407 6.964.018v1.403zm13.93.031l-6.965-.013.003-1.403 6.965.013-.003 1.403zm13.93.032l-6.962-.018v-1.403l6.965.013-.003 1.408zm13.93.027L58 109.216l.003-1.403 6.962.014v1.403zm13.928.027l-6.964-.014.003-1.403 6.965.014-.004 1.403zm13.943.022l-6.972-.009.004-1.407 6.973.013-.005 1.403zm-83.374-.166l-3.506-.01.003-1.407 3.506.01-.003 1.407m-6.438-.013l-2.88-.01v-1.403l2.882.005-.002 1.407" fill="#382D2B"/><path d="M85.397 75.878h25.59c2.265 0 4.102-1.745 4.102-3.89V55.975c0-2.15-1.837-3.885-4.102-3.885h-25.59c-7.216 2.298-8.2 9.743-8.2 11.892 0 2.145 1.31 9.595 8.2 11.897" fill="#5F4631"/><path d="M87.944 69.89a5.906 5.906 0 0 0 5.905-5.909 5.906 5.906 0 1 0-11.811 0 5.906 5.906 0 0 0 5.906 5.908" fill="#8A6342"/><path d="M112.124 80.199v-4.321H85.365s26.76 4.37 26.76 4.32" fill="#382D2B"/></g></svg>