<svg width="120" height="120" viewBox="0 0 120 120" xmlns="http://www.w3.org/2000/svg" xmlns:xlink="http://www.w3.org/1999/xlink"><defs><path id="a" d="M.418.69h22.94v9.944H.419z"/><path id="c" d="M.487.303h22.859v3.685H.487z"/><path id="e" d="M1.065.69h22.942v9.944H1.065z"/><path id="g" d="M0 107.68h118.87V0H0z"/></defs><g transform="translate(1 6)" fill="none" fill-rule="evenodd"><g transform="translate(72 97.045)"><mask id="b" fill="#fff"><use xlink:href="#a"/></mask><path d="M.595.69c0 1.329-.247 5.316-.158 6.888.158 2.737 3.454 2.58 11.696 2.973 8.244.391 11.226-.627 11.226-2.426 0-1.273-.028-6.044-.028-6.044L.595.69z" fill="#F5C0D3" mask="url(#b)"/></g><g transform="translate(72 103.691)"><mask id="d" fill="#fff"><use xlink:href="#c"/></mask><path d="M12.134 3.905c8.066.383 11.086-.585 11.212-2.313A3.439 3.439 0 0 0 20.982.67c-1.436 0-2.652.852-3.124 2.042-.568-.966-1.652-1.629-2.916-1.629-1.294 0-2.4.694-2.958 1.696C11.46 1.7 10.304.947 8.95.947c-1.227 0-2.287.624-2.87 1.545C5.654 1.225 4.404.302 2.908.302a3.44 3.44 0 0 0-2.42.984c.43 2.365 3.783 2.244 11.645 2.619" fill="#EE8DAA" mask="url(#d)"/></g><g transform="translate(30.667 97.045)"><mask id="f" fill="#fff"><use xlink:href="#e"/></mask><path d="M1.243.69c0 1.329-.25 5.316-.159 6.888.16 2.737 3.456 2.58 11.696 2.973 8.246.391 11.227-.627 11.227-2.426 0-1.273-.03-6.044-.03-6.044L1.244.69z" fill="#F5C0D3" mask="url(#f)"/></g><path d="M25.466 58.705s-8.98 5.122-10.368 5.844c-4.459 2.325 1.426 15.659 6.536 13.485l9.92-5.17-6.088-14.159z" fill="#F5C0D3"/><path d="M18.907 75.033c.27-.568.322-1.2.083-1.757-.35-.812-1.21-1.222-2.136-1.113.524-.708.685-1.614.324-2.365-.337-.697-1.036-1.08-1.804-1.09.619-.545.948-1.351.784-2.16-.165-.817-.799-1.406-1.593-1.616-1.671 1.531-1.17 5.225.36 8.344.009 0 .02.004.029.002-.007.008-.01.018-.016.027 1.46 2.97 3.841 5.394 6.148 4.9.437-.648.567-1.435.276-2.111-.392-.91-1.417-1.313-2.455-1.06" fill="#EE8DAA"/><path d="M33.466 54.398s-7.328 3.71-8.343 4.383c-1.015.677 4.51 13.823 6.088 15.397l3.607-.899-1.352-18.88z" fill="#FEFEFE"/><path d="M95.677 54.32s10.082 2.336 11.618 2.632c4.938.952 3.134 15.41-2.385 14.788l-10.99-2.116 1.757-15.305z" fill="#F5C0D3"/><path d="M106.661 68.087c-.424-.467-.656-1.06-.584-1.66.1-.876.808-1.518 1.723-1.678-.704-.53-1.116-1.352-.988-2.173.122-.766.68-1.33 1.417-1.558-.752-.346-1.301-1.026-1.376-1.845-.077-.83.363-1.58 1.06-2.006 2.043.99 2.625 4.675 2.057 8.1-.009.002-.017.006-.028.008l.024.022c-.545 3.26-2.13 6.263-4.482 6.45-.604-.494-.954-1.214-.87-1.945.115-.979.982-1.662 2.047-1.715" fill="#EE8DAA"/><path d="M86.778 52.48s8.086 1.46 9.252 1.813c1.167.357-.344 14.534-1.402 16.492l-3.711.166-4.139-18.471z" fill="#FEFEFE"/><path d="M33.466 54.398S31.66 74.18 32.45 79.011c0 0 44.062 4.837 59.617-1.794 0 0-2.24-20.123-4.383-25.066-2.14-4.943-54.218 2.247-54.218 2.247" fill="#FEFEFE"/><path fill="#246099" d="M85.554 79.169l-5.022.175-.92-26.34 5.02-.17z"/><mask id="h" fill="#fff"><use xlink:href="#g"/></mask><path fill="#246099" mask="url(#h)" d="M40.637 79.266h5.027V52.91h-5.027z"/><path d="M31.944 75.011c22.809 5.17 54.132.723 60.16-1.727 1.566 6.237 3.437 24.218 3.437 26.445 0 2.228-20.175 1.635-23.07.861-.807-.217.26-7.235-.611-7.235-1.524 0-14.51.835-16.415.045 0 0 .115 5.515-.46 7.008-.628 1.624-21.477.888-23.265-.225-1.79-1.115.224-25.172.224-25.172" fill="#246099" mask="url(#h)"/><path d="M84.306 9.822c7.096-4.523 31.965-18.587 34.42 16.066 2.025 28.52-18.018 26.692-29.2 23.168l-5.22-39.234z" fill="#F2A7B9" mask="url(#h)"/><path d="M86.62 14.31c5.442-3.51 24.518-14.423 26.411 12.484 1.56 22.143-13.816 20.717-22.396 17.979L86.62 14.31z" fill="#625442" mask="url(#h)"/><path d="M35.62 7.635C28.764 2.75 4.665-12.585.404 21.895c-3.507 28.376 16.602 27.59 27.953 24.65l7.261-38.91z" fill="#F2A7B9" mask="url(#h)"/><path d="M33.073 11.997C27.822 8.21 9.34-3.675 6.045 23.096 3.334 45.126 18.763 44.5 27.475 42.21l5.598-30.213z" fill="#625442" mask="url(#h)"/><path d="M57.343 3.563c16.315 1.127 41.498-1.151 38.992 30.79-2.442 31.152-21.433 22.894-38.874 21.405-17.442-1.489-39.367 3.594-35.402-24.521C25.422 7.394 35.222 3.184 57.343 3.563" fill="#F5C0D3" mask="url(#h)"/><path d="M89.565 35.504c0 3.002-2.44 5.436-5.45 5.436a5.442 5.442 0 0 1-5.449-5.436c0-3 2.439-5.431 5.45-5.431 3.009 0 5.449 2.431 5.449 5.431" fill="#F09DC1" mask="url(#h)"/><path d="M68.057 42.684c.59-.243 6.177 1.566 10.425-4.123-.266 1.833-3.054 9.045-11.542 7.892l1.117-3.769z" fill="#403629" mask="url(#h)"/><path d="M50.523 36.065c-2.444-16.258 21.484-15.32 20.732-.861-1.541 13.942-13.628 30.6-34.704 31.73-6.928.382-10.185-2.425-6.897-4.204 2.94-.944-.662-2.915-.582-4.054.08-1.143 1.648-3.04 5.478-.196 3.83 2.845 14.224-1.887 15.924-9.8 1.698-7.91.05-12.615.05-12.615" fill="#EE8DAA" mask="url(#h)"/><path d="M43.083 25.94c-.099 1.449-.944 2.57-1.887 2.507-.942-.067-1.625-1.294-1.525-2.743.101-1.446.947-2.568 1.888-2.503.943.066 1.624 1.292 1.524 2.739m37.223 2.566c-.1 1.45-.947 2.571-1.887 2.506-.945-.064-1.627-1.292-1.527-2.74.102-1.447.946-2.568 1.888-2.504.943.065 1.626 1.29 1.526 2.738m-3.513 9.446l.008.016c1.482.43 2.74 2.223 2.74 2.223-.328-2.22-2.748-2.239-2.748-2.239" fill="#403629" mask="url(#h)"/><path d="M76.793 37.952l.008.016c1.482.43 2.74 2.223 2.74 2.223-.328-2.22-2.748-2.239-2.748-2.239z" stroke="#403629" stroke-width=".5" stroke-linecap="round" stroke-linejoin="round" mask="url(#h)"/><path d="M44.976 79.565c0 1.13-.917 2.043-2.052 2.043a2.048 2.048 0 0 1-2.053-2.043 2.05 2.05 0 0 1 2.053-2.047c1.135 0 2.052.916 2.052 2.047m40.248-1.32c0 1.13-.916 2.044-2.051 2.044a2.049 2.049 0 0 1-2.053-2.044 2.05 2.05 0 0 1 2.053-2.047c1.135 0 2.05.915 2.05 2.047" fill="#FEFEFE" mask="url(#h)"/><path d="M43.448 107.596c8.068.383 11.086-.585 11.212-2.313a3.436 3.436 0 0 0-2.364-.92c-1.438 0-2.652.851-3.124 2.04-.567-.964-1.651-1.627-2.916-1.627-1.294 0-2.4.693-2.958 1.696-.525-1.08-1.684-1.833-3.034-1.833-1.227 0-2.287.623-2.867 1.544-.428-1.267-1.679-2.189-3.173-2.189-.958 0-1.814.383-2.422.984.43 2.364 3.786 2.243 11.646 2.618" fill="#EE8DAA" mask="url(#h)"/><path d="M41.078 32.761c0 3.003-2.442 5.436-5.45 5.436-3.01 0-5.45-2.433-5.45-5.436 0-3.001 2.44-5.431 5.45-5.431 3.008 0 5.45 2.43 5.45 5.431" fill="#F09DC1" mask="url(#h)"/></g></svg>