<svg width="120" height="120" viewBox="0 0 120 120" xmlns="http://www.w3.org/2000/svg" xmlns:xlink="http://www.w3.org/1999/xlink"><defs><path id="a" d="M.2.3h13.173v5.567H.2z"/></defs><g fill="none" fill-rule="evenodd"><path d="M27.22 50.503c8.312 12.834 19.406 2.127 15.633-9.22-2.739-8.235 12.129 2.681 12.129 2.681s-8.705 23.872-16.256 24.23c-7.554.355-11.532-11.327-11.506-17.69" fill="#AD6920"/><path d="M34.487 84.708c1.091.116 2.137-.61 2.799-1.791.621.506 1.233.708 1.673.478.82-.435.723-2.216-.222-3.982a6.82 6.82 0 0 0-1.227-1.678c-.036-.075-.075-.141-.116-.212 0 0 1.623-10.328 3.357-12.768.593-.838 1.057-1.42 1.322-1.881v.008C39.876 73.05 39.62 86.6 39.62 86.6h32.45s-.313-15.59-2.987-25.86c1.438.561 8.688 3.307 10.904 2.51 3.05-1.101 6.545-10.985 6.545-10.985 1.315-.462 2.585-1.71 3.318-3.431 1.143-2.684.543-5.503-1.335-6.293-1.224-.517-2.695-.04-3.883 1.099-.54-.807-1.175-1.257-1.768-1.144-1.104.213-1.624 2.315-1.158 4.695.177.907.474 1.727.832 2.377.048.298.117.581.212.845l-5.609 6.554-12.081-4.306v-.006c-2.198-1.253-7.349-1.497-7.349-1.497l-1.792.109h-.146l-1.8-.077s-5.171.182-7.354 1.422h-.015S39.82 56.152 38 58.467c-3.614 4.593-5.061 18.084-5.158 19.007 0-.002 0-.009.002-.011-.483.69-.82 1.592-.927 2.596-.254 2.392.895 4.473 2.57 4.65z" fill="#FDDFBB"/><path fill="#C6C5C6" d="M86.28 107.514h.533V53.352h-.533z"/><path d="M80.496 46.722h12.08c-.145 3.194-2.795 5.739-6.042 5.739-3.245 0-5.893-2.545-6.038-5.74m-.9-.274c0 3.812 3.104 6.904 6.938 6.904 3.834 0 6.943-3.092 6.943-6.904 0-.266-.017-.528-.045-.785H79.64a6.77 6.77 0 0 0-.045.785" fill="#727371"/><path fill="#B52836" d="M80.551 46.722h11.993v-1.06H80.551z"/><path d="M92.806 112.334c0 3.364-2.742 6.097-6.128 6.097-3.383 0-6.128-2.733-6.128-6.097 0-3.366 2.745-6.097 6.128-6.097 3.386 0 6.128 2.73 6.128 6.097" fill="#E63744"/><path d="M91.155 108.169a6.05 6.05 0 0 1 .852 3.1c0 3.37-2.745 6.1-6.128 6.1a6.121 6.121 0 0 1-4.474-1.931 6.137 6.137 0 0 0 5.274 2.993c3.383 0 6.128-2.732 6.128-6.098a6.06 6.06 0 0 0-1.652-4.164" fill="#B52836"/><path d="M84.878 106.505a6.134 6.134 0 0 0-3.54 2.837 2.845 2.845 0 0 0 2.85 2.75 2.844 2.844 0 0 0 2.85-2.836c0-1.33-.918-2.444-2.16-2.75" fill="#EB6474"/><path d="M81.623 46.873c.34 2.267 1.47 3.98 2.525 3.823 1.05-.155 1.632-2.12 1.294-4.392-.345-2.266-1.473-3.978-2.528-3.821-1.056.154-1.632 2.12-1.291 4.39" fill="#FDDFBB"/><path d="M39.622 86.601c.013-.663.27-11.965 2.014-21.495.041-.208.067-.397.11-.603 3.582-3.984 4.045-7.679 4.884-11.888.973-.551 2.536-.89 3.968-1.099 0 0 0 6.342 5.175 6.342 4.892 0 4.66-6.43 4.66-6.43 1.59.215 3.505.59 4.629 1.236.886 2.646 1.807 8.157 4.567 10.397 2.113 9.867 2.425 22.808 2.443 23.54h-32.45z" fill="#82A74D"/><path d="M64.594 57.696v1.856c0 .99-.804 1.791-1.796 1.791h-.004a1.794 1.794 0 0 1-1.797-1.791v-1.856h3.597z" fill="#F6B90C"/><path d="M69.59 63.03c-.877-.727-1.567-1.778-2.132-2.975V86.6h2.133V63.03zm-25.581-1.649v25.22h-2.133V64.353a17.197 17.197 0 0 0 2.133-2.972m1.731 19.252h20.187V68.17H45.74z" fill="#EEEEED"/><path fill="#99588C" d="M45.74 70.69h20.187v-2.518H45.74zm0 9.943h20.187v-1.59H45.74z"/><path fill="#FDDFBB" d="M53.975 113.076h-8.593l-.023-4.235-.35-7.898-.625-3.048h10.792v3.048l-.237 7.898zm12.327 0h-9.26l-.305-4.235-.227-7.898v-3.048h10.792l-.627 3.048-.347 7.898z"/><path fill="#343434" d="M59.109 86.557H43.183l1.119 11.534h10.977l.416-4.242h.296l.411 4.242h10.974l1.123-11.534z"/><path d="M54.94 108.841h-9.581l-.237 4.044h.006c-.325.2-.634.46-.918.721v2.594h7.799c.15-.088.297-.178.44-.274.877-.614 1.91-1.29 2.505-2.202.186-.28.272-.573.207-.839h-.021l-.2-4.044z" fill="#EEEEED"/><path fill="#E63744" d="M54.963 109.296H45.33l-.011.202h9.651zm.019.4h-9.673l-.013.2h9.694z"/><path d="M68.199 114.433a5.734 5.734 0 0 0-1.643-1.549h.006l-.235-4.042h-9.589l-.2 4.042h-.01c-.066.266.02.558.204.841.593.912 1.628 1.582 2.508 2.193.142.097.289.193.437.281H68.2v-1.766z" fill="#EEEEED"/><path fill="#E63744" d="M56.704 109.497h9.658l-.009-.202h-9.638zm-.017.398h9.699l-.01-.2h-9.68z"/><path d="M45.146 112.885l4.743-.356s-1.272-1.736-2.952-1.654c-1.621.08-1.82 1.995-1.82 1.995l.029.015z" fill="#6E6E6D"/><path d="M45.75 112.703l3.265-.245s-.878-1.193-2.034-1.137c-1.112.056-1.248 1.373-1.248 1.373l.017.009z" fill="#D2771A"/><path d="M45.146 112.885l-.028-.009.004.009h.006c-1.88 1.193-3.25 3.531-1.636 5.452 1.218 1.353 3.01.291 4.37-.28 1.505-.714 3.224-1.207 4.587-2.134.877-.614 1.91-1.287 2.505-2.2.186-.28.272-.572.207-.838v-1.791s-.125-.183-.537 0c-.832.364-1.38 1.997-3.148 1.791-4.381-1.212-6.33 0-6.33 0" fill="#F29221"/><path d="M54.821 113.912l-.215-.198s-2.254 2.27-4.196 2.832l.176.36c.656-.283 1.292-.598 1.861-.984.815-.57 1.77-1.19 2.374-2.01m-9.675-1.027l-.028-.015.004.009h.006c-.051.064-.108.068-.155.105-.291.637-.254 1.31 1.21 1.3 1.14-.009 2.747-1.047 3.706-1.755-3.266-.564-4.743.356-4.743.356" fill="#343434"/><path d="M45.074 114.125a9.53 9.53 0 0 0-1.438.108c-.005.004-.009.012-.013.017-.93 1.212-1.25 2.75-.13 4.087 1.217 1.354 3.008.292 4.369-.28 1.041-.493 2.189-.883 3.245-1.385-1.207-1.523-3.458-2.547-6.033-2.547" fill="#343434"/><path d="M55.106 111.295c-.423 0-.766.779-.766 1.74 0 .467.08.892.212 1.203.148-.163.284-.334.403-.515.185-.28.271-.572.205-.838v-1.586a.456.456 0 0 0-.054-.004" fill="#EEEEED"/><path d="M44.02 113.822a.03.03 0 0 1-.031-.026.03.03 0 0 1 .024-.039c.021-.006 2.145-.521 4.87-.015.018.002.033.022.027.037-.003.019-.018.03-.04.027-2.708-.504-4.819.01-4.842.013 0 .003-.005.003-.009.003m.562-.512a.038.038 0 0 1-.034-.021c-.005-.02.006-.037.023-.041.018-.009 1.993-.654 4.733-.034.016.004.028.023.026.04-.004.018-.023.03-.038.024-2.724-.614-4.677.024-4.699.03-.004.002-.009.002-.01.002" fill="#D2771A"/><path d="M66.54 112.885l-4.748-.356s1.276-1.736 2.954-1.654c1.623.08 1.822 1.995 1.822 1.995l-.028.015z" fill="#6E6E6D"/><path d="M65.935 112.703l-3.264-.245s.877-1.193 2.033-1.137c1.113.056 1.249 1.373 1.249 1.373l-.018.009z" fill="#D2771A"/><path d="M66.54 112.885l.028-.009-.005.009h-.006c1.88 1.193 3.245 3.531 1.636 5.452-1.218 1.353-3.01.291-4.37-.28-1.505-.714-3.224-1.207-4.584-2.134-.88-.614-1.913-1.287-2.508-2.2-.183-.28-.272-.572-.207-.838v-1.791s.12-.183.539 0c.83.364 1.378 1.997 3.148 1.791 4.38-1.212 6.329 0 6.329 0" fill="#F29221"/><path d="M56.864 113.912l.216-.198s2.25 2.27 4.196 2.832l-.177.36c-.656-.283-1.292-.598-1.859-.984-.82-.57-1.77-1.19-2.376-2.01m9.676-1.027l.028-.015-.005.009h-.006c.052.064.103.068.155.105.291.637.255 1.31-1.21 1.3-1.138-.009-2.744-1.047-3.71-1.755 3.268-.564 4.748.356 4.748.356" fill="#343434"/><path d="M66.611 114.125c.494 0 .975.037 1.436.108.005.004.011.012.015.017.93 1.212 1.251 2.75.13 4.087-1.216 1.354-3.008.292-4.369-.28-1.041-.493-2.188-.883-3.25-1.385 1.213-1.523 3.464-2.547 6.038-2.547" fill="#343434"/><path d="M56.58 111.295c.422 0 .765.779.765 1.74 0 .467-.082.892-.213 1.203a4.353 4.353 0 0 1-.401-.515c-.184-.28-.272-.572-.205-.838v-1.586a.422.422 0 0 1 .054-.004" fill="#EEEEED"/><path d="M67.666 113.822a.03.03 0 0 0 .03-.026.032.032 0 0 0-.023-.039c-.022-.006-2.146-.521-4.871-.015-.02.002-.03.022-.03.037.006.019.025.03.043.027 2.708-.504 4.819.01 4.84.013.003.003.007.003.011.003m-.562-.512a.038.038 0 0 0 .034-.021c.005-.02-.006-.037-.023-.041-.022-.009-1.993-.654-4.733-.034-.017.004-.03.023-.026.04.004.018.021.03.039.024 2.723-.614 4.677.024 4.698.03a.024.024 0 0 0 .01.002" fill="#D2771A"/><path d="M57.485 53.014h-3.797c-1.087 0-1.967-2.322-1.967-3.382h7.728c0 1.06-.88 3.382-1.964 3.382" fill="#FDDFBB"/><path d="M52.55 52.152l6.871-2.257.011-.015c-1.276.221-2.59.333-3.933.333-1.28 0-2.538-.103-3.765-.303.071.663.38 1.582.815 2.242" fill="#EEAC6C"/><path d="M32.817 30.51a23.156 23.156 0 0 1-.261-3.48c0-12.788 10.415-23.15 23.264-23.15 12.85 0 23.266 10.362 23.266 23.15 0 1.128-.08 2.235-.238 3.323 1.344.73 2.25 2.11 2.25 3.692 0 2.35-1.99 4.254-4.445 4.254a4.54 4.54 0 0 1-.487-.028A23.283 23.283 0 0 1 55.82 50.18a23.279 23.279 0 0 1-20.33-11.886c-.07.002-.137.006-.209.006-2.451 0-4.444-1.905-4.444-4.254 0-1.474.787-2.774 1.98-3.536" fill="#FDDFBB"/><path d="M52.311 25.65s-.503 1.803-2.082 1.446c-.772-.174-.908-1.201-3.386-.74-.779.18-2.417 1.156-2.732 1.808-.316.652-.088-2.392 2.457-3.522 1.835-.675 2.457-.642 3.977-.642s1.987.907 1.766 1.65m9.741 0s.503 1.803 2.082 1.446c.772-.174.908-1.201 3.386-.74.779.18 2.417 1.156 2.732 1.808.316.652.087-2.392-2.457-3.522-1.835-.675-2.457-.642-3.977-.642s-1.987.907-1.766 1.65" fill="#AD6920"/><path d="M50 33c0 1.657-.895 3-2 3s-2-1.343-2-3 .895-3 2-3 2 1.343 2 3m18 0c0 1.657-.895 3-2 3s-2-1.343-2-3 .895-3 2-3 2 1.343 2 3" fill="#6172BB"/><path d="M57.02 36.07c.839-.115 2.96 1.756 2.96 1.756s.103-.414-.34-1.238C59.163 35.703 56.99 35 56.99 35s-1.687.448-2.487 1.604c-.296.29-.503 1.299-.503 1.299s1.895-1.681 3.02-1.834z" fill="#EEAC6C"/><g transform="translate(50 39)"><mask id="b" fill="#fff"><use xlink:href="#a"/></mask><path d="M.2.696S7.097 3.904 13.372.299c0 0-1.39 5.47-5.95 5.561-4.115.122-4.984-1.492-5.477-1.956C1.453 3.441.525 2.132.2.696" fill="#EEAC6C" mask="url(#b)"/></g><path d="M79.909 24.24a45.407 45.407 0 0 0-.276-4.233C76.526 9.874 67.05 2.501 55.849 2.501a24.872 24.872 0 0 0-22.27 13.724c-1.125 3.197-1.817 6.342-1.873 7.762-.2 4.924 1.233 6.557 1.233 6.557s4.173-5.741 9.106-9.191c3.877-2.708 7.33 2.527 11.937-1.96a797.2 797.2 0 0 0 1.947-1.947s1.268 1.414 1.945 1.948c4.1 3.216 6.38-.438 10.967 2.04 3.747 2.032 9.893 9.273 9.893 9.273s1.211-3.759 1.175-6.467" fill="#AD6920"/></g></svg>