<svg width="120" height="120" viewBox="0 0 120 120" xmlns="http://www.w3.org/2000/svg" xmlns:xlink="http://www.w3.org/1999/xlink"><defs><path id="a" d="M0 .571h42.092v15.036H0z"/></defs><g fill="none" fill-rule="evenodd"><path d="M31.204 80.302c-2.849 2.34-5.79 5.038-7.904 7.621-1.51 2.745-3.754 4.442-5.886 4.442a3.88 3.88 0 0 1-.76-.074c-.472-.095-.73-.402-.688-.82.146-1.475 4.412-4.382 6.428-4.382.233 0 .441.035.622.105 1.023-1.22 2.218-2.459 3.493-3.67-1.222.548-2.434.834-3.565.834-1.287 0-2.388-.379-3.182-1.096-.394-.355-.342-.698-.276-.87.363-.943 2.958-1.286 4.613-1.286 1.18 0 3.19.15 3.808 1.126a85.385 85.385 0 0 1 3.01-2.578c-1.058.417-2.102.633-3.084.633-1.288 0-2.388-.38-3.183-1.097-.394-.354-.341-.698-.275-.87.362-.943 2.958-1.285 4.613-1.285 1.179 0 3.185.15 3.805 1.123 2.14-1.666 4.09-3.049 5.425-3.932l.378.57c-1.302.86-3.191 2.2-5.268 3.811 1.058 3.435.472 6.513-1.505 7.862a.936.936 0 0 1-.525.184c-.352 0-.795-.243-.902-1.399-.107-1.15.175-3.328.808-4.952z" fill="#8E9CDC"/><path d="M28.072 83.09l-.092-.288-.297.056c-1.793.334-2.687 5.075-2.51 6.986.107 1.156.55 1.399.903 1.399a.932.932 0 0 0 .524-.183c1.997-1.364 2.574-4.492 1.472-7.97m19.752-51.957c.783 3.987 2.17 8.4 3.62 12.521.314-.943.596-2.4.891-3.92.699-3.6 1.49-7.679 3.24-9.14.844-.705 1.434-.777 1.779-.354.455.554.24 1.845-.112 3.609-.052.26-.103.512-.142.732.316-.133.662-.235.984-.235.48 0 .724.223.845.41.268.415.203 1.05-.2 1.944-.838 1.86-4.496 6.896-6.887 8.072.828 2.309 1.662 4.502 2.402 6.45.563 1.48 1.07 2.817 1.48 3.95l-.643.233c-.408-1.13-.915-2.463-1.476-3.94l-.441-1.16a4.01 4.01 0 0 1-.933.099l-.001-.001c-2.809 0-7.982-2.004-9.605-3.046-.942-.605-1.345-1.19-1.199-1.742.124-.464.617-.783 1.409-.923a33.795 33.795 0 0 0-.517-.536c-1.368-1.4-2.312-2.447-2.01-3.166.143-.337.51-.507 1.094-.507.156 0 .335.011.54.035 2.262.272 5.15 3.26 7.697 5.898 1.231 1.274 2.404 2.488 3.204 3.04-.896-2.375-1.87-5.008-2.78-7.714-2.51-.04-7.908-3.122-9.632-4.7-.8-.731-1.104-1.362-.906-1.873.126-.324.5-.71 1.565-.716-.123-.187-.27-.4-.42-.617-1.084-1.575-1.824-2.74-1.473-3.41.097-.183.314-.403.803-.403.247 0 .547.054.917.164 2.184.652 4.522 4.086 6.586 7.118.733 1.076 1.44 2.114 2.04 2.86-.903-2.798-1.71-5.634-2.268-8.308-1.842-1.718-3.341-8.25-3.379-10.383-.015-.857.13-1.428.441-1.746a.858.858 0 0 1 .624-.263c.464 0 .918.344 1.268.707.05-.218.104-.471.158-.73.426-2.015.794-3.442 1.648-3.442.543 0 .927.634 1.168 1.11 1.032 2.032.149 6.093-.629 9.676-.376 1.728-.734 3.374-.75 4.347z" fill="#8E9CDC"/><path d="M119.537 58.37a.142.142 0 0 0-.102-.036c-1.659.105-2.994.675-4.286 1.227-1.332.568-2.59 1.104-4.111 1.104-1.427 0-2.945-.49-4.642-1.498a95.463 95.463 0 0 1-1.231-.748c-2.734-1.679-5.316-3.264-9.308-3.264-4.927 0-11.312 2.465-20.094 7.758a.136.136 0 0 0-.06.158c.104.33 2.696 8.067 15.808 8.067 2.838 0 6-.367 9.4-1.09 1.404.922 2.838 1.742 4.858 1.742 1.612 0 3.46-.523 5.648-1.599 3.204-1.574 5.138-3.944 6.195-5.654 1.247-2.017 1.983-4.285 1.969-6.067a.134.134 0 0 0-.044-.1" fill="#C7AFEC"/><path d="M93.484 66.12c-8.13 0-15.066-1.615-17.784-2.775a.342.342 0 1 1 .268-.63c4.93 2.106 23.965 5.73 38.454-1.874a.342.342 0 1 1 .318.606c-6.722 3.528-14.412 4.674-21.256 4.674" fill="#5B6EC7"/><path d="M26.378 51.448c-.37 0-.739-.053-1.1-.16-1.575-.465-2.763-1.94-2.955-3.67-.216-1.947.838-3.769 2.82-4.875 2.79-1.556 5.995-1.428 9.268.367 3.404 1.867 5.838 4.921 6.727 6.148a.684.684 0 0 1-1.108.802c-2.693-3.718-8.72-9.193-14.221-6.121-1.508.84-2.283 2.126-2.127 3.527.132 1.19.93 2.2 1.985 2.511 1.317.39 2.79-.31 4.145-1.968a.684.684 0 1 1 1.059.866c-1.37 1.676-2.96 2.573-4.493 2.573" fill="#5D70C7"/><path d="M69.401 81.81c.522 2.985-.219 5.527-2.014 6.669a.946.946 0 0 1-.507.167c-.352 0-.79-.234-.875-1.35-.14-1.836.852-6.47 2.6-6.952-2.524-4.445-5.418-7.768-7.584-10.255l-.045-.052a.342.342 0 0 1 .515-.45l.046.052c1.563 1.794 3.499 4.018 5.408 6.778 1.478-.711 2.973-1.086 4.329-1.086 1.544 0 2.856.5 3.695 1.405.347.375.28.701.21.863-.376.86-2.535.952-3.445.952-1.27 0-2.73-.168-3.762-.589.85 1.334 1.68 2.78 2.454 4.35a.347.347 0 0 1 .025-.001c3.643-.085 6.498 1.35 7.246 3.627.124.378.03.624-.07.763-.163.225-.452.339-.86.339-1.188 0-3.65-1.032-5.217-2.25a42.353 42.353 0 0 1 1.555 4.405.332.332 0 0 1 .083.004c3.6.59 6.13 2.52 6.442 4.917.037.288-.02.52-.169.692-.1.114-.29.25-.632.25-1.135 0-3.653-1.651-5.05-3.249.304 1.35.554 2.76.74 4.236 1.564 2.569 1.733 5.189.414 6.726-.174.202-.368.305-.58.305-.51 0-.905-.599-1.174-1.78-.358-1.574-.517-4.696.617-5.499a42.813 42.813 0 0 0-1.711-7.584.36.36 0 0 1-.065.023c-.015 3.332-1.358 5.846-3.34 6.544.006.024.016.048.016.074a.333.333 0 0 1-.332.342.69.69 0 0 1-.61-.335c-.1-.165-.15-.376-.15-.648 0-1.806 2.354-6.533 4.267-6.642a42.136 42.136 0 0 0-2.47-5.762z" fill="#5367C3"/><g transform="translate(0 59.743)"><mask id="b" fill="#fff"><use xlink:href="#a"/></mask><path d="M41.993 2.771c-3.68-1.081-10.712-2.2-16.11-2.2-.614 0-1.198.015-1.736.044-3.058.166-6.663 2.13-9.56 3.71-2.13 1.161-3.97 2.164-5.08 2.212-.876.038-1.708-.075-2.596-.195-.849-.115-1.727-.234-2.729-.234-1.342 0-2.68.224-4.088.686-.07.024-.11.1-.088.171.665 2.144 2.363 4.251 4.66 5.781 2.81 1.872 6.432 2.861 10.475 2.861a27.5 27.5 0 0 0 2.95-.163C29.438 14.22 39.14 6.525 42.06 2.99a.14.14 0 0 0 .025-.128.138.138 0 0 0-.093-.09" fill="#C7AFEC" mask="url(#b)"/></g><path d="M9.333 70.558a.342.342 0 0 1-.122-.661c3.742-1.425 9.919-2.392 15.894-3.327 6.682-1.045 12.994-2.033 15.292-3.534a.341.341 0 1 1 .374.573c-2.422 1.58-8.804 2.58-15.561 3.637-5.94.93-12.081 1.89-15.755 3.29a.34.34 0 0 1-.122.022" fill="#5B6EC7"/><path d="M91.072 79.817c-1.618-.709-2.935-.645-4.123-2.329-.869-1.232-.655-2.763-.96-4.143-.202-.916-2.195-.76-2.787-.764-3.556-.025-7.087.636-10.546-.536h-.01a.223.223 0 0 0-.069-.01.242.242 0 0 0-.06.008.239.239 0 0 0-.165.187.241.241 0 0 0 .081.26c.01.007.015.017.025.024 5.03 3.183 9.25 8.133 13.62 12.135 2.496 2.286 5.476.893 5.995-2.236.139-.833-.116-2.209-1-2.596" fill="#7F53C9"/><path d="M50.356 83.19a1.99 1.99 0 1 1-3.897.803 1.99 1.99 0 0 1 3.897-.803M34.603 36.296a1.99 1.99 0 1 1-3.897.802 1.99 1.99 0 0 1 3.897-.802" fill="#C8CFF0"/><path d="M60.5 24.804a1.99 1.99 0 1 1-3.896.803 1.99 1.99 0 0 1 3.897-.803" fill="#8291D7"/><path d="M74.145 60.758c-1.05-.193-2.46-.299-3.972-.299-1.816 0-5.366.167-8.845 1.248 2.945-2.939 6.176-7.13 6.173-11.167-.004-5.88-4.08-8.622-6.832-8.622a2.89 2.89 0 0 0-.808.105c-4.079 1.21-4.805 10.115-4.918 16.446-1.06-2.05-2.664-4.028-4.726-5.753-2.864-2.395-5.563-3.66-7.807-3.66-1.533 0-2.852.57-3.92 1.693-.717.753-.962 1.76-.71 2.913.711 3.26 5.203 7.218 10.679 9.412.648.26 1.244.49 1.818.704-3.719.37-7.702 2.226-10.044 3.97-2.38 1.77-4.066 4.511-4.398 7.152-.232 1.835.21 3.5 1.274 4.816.688.85 1.725 1.28 3.084 1.28h.001c4.04 0 9.772-3.78 11.63-6.876.327-.543.635-1.108.927-1.678-.01 4.003 1.14 9.926 3.763 12.852.999 1.114 2.12 1.678 3.337 1.678.37 0 .753-.054 1.137-.16 1.812-.505 3.081-1.45 3.771-2.812 1.432-2.825.207-6.966-1.18-10.644-.328-.866-.845-1.844-1.468-2.838.58.192 1.184.346 1.818.444.447.068.928.103 1.43.103h.001c4.443 0 10.237-2.71 11.923-5.576l.065-.277c.21-1.5.528-3.768-3.203-4.454" fill="#A788DD"/><path d="M59.652 64.066a3.69 3.69 0 0 0-4.345-2.862c-.962.198-1.79.76-2.33 1.58a3.655 3.655 0 0 0-.531 2.766 3.69 3.69 0 0 0 3.599 2.937 3.683 3.683 0 0 0 3.607-4.421" fill="#E5D8FC"/><path d="M96.736 31.09c-1.656-.947-4.204-1.933-11.77-3.912a25.323 25.323 0 0 0-6.402-.817c-4.24 0-7.327 1.056-7.903 1.268-1.043.383-2.048 2.304-2.335 13.667-.273 11.387 4.382 16.795 8.824 17.001h.016c.015 0 .029 0 .043-.002 10.673-1.35 16.995-14.82 19.375-19.89.27-.576.49-1.044.66-1.374 1.533-2.978 1.372-4.866-.508-5.94" fill="#C8CFF0"/><path d="M98.294 33.586l-.28.076c-1.047.286-2.305.444-3.645.444-1.224 0-2.448-.123-3.549-.362a7.484 7.484 0 0 1-.67-.158c-.862-.218-1.635-.513-2.237-.854-.889-.507-2.154-.855-3.59-1.122-.219-.034-.444-.075-.677-.116-1.265-.206-2.633-.363-3.987-.52-.964-.11-1.88-.212-2.749-.335l-.69-.103c-3.099-.492-4.98-1.354-6.019-2.004l-.335-.204.253-.302c.158-.191.336-.321.548-.396.464-.171 2.605-.91 5.682-1.17.226-.026.452-.04.684-.054a24.88 24.88 0 0 1 6.784.506c.226.04.458.096.684.15.157.034.308.076.465.117a163.33 163.33 0 0 1 6.038 1.675c.233.076.451.144.664.205 2.673.841 4.041 1.443 5.067 2.025.937.546 1.436 1.27 1.532 2.215l.027.287z" fill="#8F9DDD"/><path d="M92.386 23.896c-.082.37-.206 1.306-.356 2.483-.11.82-.232 1.743-.362 2.68-.246 1.683-.527 3.413-.848 4.685a7.47 7.47 0 0 1-.67-.158c.328-1.265.608-3.022.854-4.732.13-.896.246-1.778.349-2.564.157-1.197.28-2.141.37-2.544a.34.34 0 0 1 .41-.253c.184.04.294.219.253.403M84.5 27.062c0 1.436-.04 3.03-.177 4.548-.219-.034-.444-.075-.677-.116a52.69 52.69 0 0 0 .172-4.582c-.008-2.017-.124-3.68-.2-4.302a.342.342 0 1 1 .678-.095c.089.65.198 2.42.205 4.547m-7.591 3.577c-.041-1.395.02-2.873.123-4.233.212-2.599.602-4.78.841-5.272a.342.342 0 0 0-.157-.459.35.35 0 0 0-.458.157c-.294.609-.704 2.941-.91 5.628a42.62 42.62 0 0 0-.13 4.076l.691.103z" fill="#5367C3"/><path d="M93.035 23.479a1.465 1.465 0 1 1-2.905.39 1.465 1.465 0 0 1 2.905-.39m-8.168-1.039a1.466 1.466 0 1 1-2.906.39 1.466 1.466 0 0 1 2.906-.39m-6.417-.617a1.465 1.465 0 1 1-2.904.39 1.465 1.465 0 0 1 2.904-.39" fill="#A788DD"/><path d="M93.74 39.24c-.182-.417-.63-.679-1.365-.8a32.71 32.71 0 0 1-.629-.12c-.54-.107-1.007-.2-1.382-.2-.66 0-.884.318-.955.58-.18.637-.363 2.124.243 3.193.262.458.705.709 1.25.709.83 0 1.779-.602 2.36-1.497.53-.806.682-1.398.478-1.866m-8.875 7.801c-.182-.417-.63-.678-1.365-.8a32.62 32.62 0 0 1-.628-.12c-.54-.107-1.008-.199-1.384-.199-.659 0-.883.317-.954.58-.18.636-.364 2.123.243 3.192.262.458.705.71 1.25.71.83 0 1.779-.602 2.36-1.498.53-.805.682-1.398.478-1.865" fill="#8F9DDD"/><path d="M80.502 50.864c-.182-.417-.63-.678-1.365-.8-.217-.038-.427-.08-.627-.12-.542-.107-1.008-.199-1.384-.199-.66 0-.884.317-.955.579-.181.637-.364 2.124.243 3.193.26.458.705.71 1.25.71.829 0 1.778-.603 2.359-1.498.53-.805.683-1.398.479-1.865m5.521-11.658c-.198-.623-.752-.995-1.478-.995-.752 0-1.581.38-2.216 1.014-.686.677-.959 1.225-.856 1.724.091.446.474.795 1.168 1.067.203.083.4.167.59.248.68.292 1.217.523 1.645.523.444 0 .643-.258.72-.408.31-.584.798-2 .427-3.173" fill="#A788DD"/><path d="M76.854 44.071c-.024-.218-.042-.432-.06-.636-.102-1.148-.19-2.138-1.02-2.138-.662.004-2.14.244-2.997 1.126a1.378 1.378 0 0 0-.345 1.352c.214.816 1.062 1.578 2.111 1.893.435.133.792.199 1.093.199.408 0 .724-.123.938-.365.268-.302.36-.771.28-1.43" fill="#8F9DDD"/><path d="M77.867 34.95a1.375 1.375 0 0 0-1.148-.59c-.866 0-1.839.714-2.365 1.735-.447.855-.54 1.46-.29 1.904.223.396.695.611 1.439.66.218.016.432.036.636.055.398.038.773.074 1.09.074.268 0 1.084 0 1.198-.685.117-.653.15-2.15-.56-3.153" fill="#A788DD"/><path d="M18.963 52.329l-.168-.138a2.461 2.461 0 0 0-.455-.286c.065-.025.132-.05.186-.076.73-.349 1.722-1.712 2.042-2.804.181-.618.154-1.123-.08-1.502-.2-.324-.518-.495-.917-.495-.778 0-1.747.648-2.629 1.312-.23-.749-.684-1.609-1.19-2.161-.439-.48-.888-.723-1.358-.723a1.01 1.01 0 0 0-.76.351c-.582.67-.466 2.111-.31 3.41l.025.216c.018.162.056.323.108.481a2.532 2.532 0 0 0-.189-.067 2.092 2.092 0 0 0-.58-.069c-1.187 0-3.524.674-3.755 1.963-.053.298.015.58.197.815.541.701 1.978.869 3.282.97l.217.017c.061.006.124.008.187.008h.005c-.343.76-.365 2.315-.025 3.337.202.611.513 1.011.922 1.19.137.06.278.09.418.09 1.05 0 1.646-1.581 2.123-3.063l.036-.11c.597.574 2.097 1.213 3.245 1.213.558 0 .985-.145 1.27-.431a1.01 1.01 0 0 0 .302-.782c-.047-.885-1.134-1.84-2.149-2.666" fill="#C8CFF0"/><path d="M15.469 50.397a1.168 1.168 0 0 0 0 2.334 1.168 1.168 0 0 0 0-2.334" fill="#5B6EC7"/></g></svg>