<svg width="111" height="95" viewBox="0 0 111 95" xmlns="http://www.w3.org/2000/svg"><g fill="none" fill-rule="evenodd"><path d="M33.41 79.647l-.001.09v-.09zM38.01 95c-2.682 0-4.86-2.112-4.866-4.724-.015-5.395.185-9.128.25-10.355l.016-.293C33.47 77.062 35.625 75 38.276 75c2.688 0 4.867 2.12 4.867 4.737 0 .167-.007.296-.028.677-.062 1.163-.251 4.701-.237 9.837.007 2.616-2.167 4.742-4.854 4.749h-.014zm42.64 0c-2.553 0-4.627-2.088-4.634-4.67-.007-2.88-.004-5.538-.002-7.477a695.49 695.49 0 0 0 0-2.697 4.763 4.763 0 0 1-.01-.545C76.108 76.707 78.432 75 80.646 75h.082c2.185.043 4.523 1.76 4.553 4.86l.003.672c0 .553 0 1.351-.002 2.33-.002 1.933-.005 4.58.003 7.444.007 2.585-2.063 4.687-4.623 4.694h-.012z" fill="#303030"/><path d="M6 35s8.83 22.765 17.857 12.205" stroke="#303030" stroke-width="11.765" stroke-linecap="round" stroke-linejoin="round"/><path d="M105.175 67.26c-.019 7.972-6.808 14.366-15.038 14.164l-65.926-.616c-6.571-.161-11.795-4.547-11.782-9.891l.128-54.626c.01-3.916 3.852-7.111 8.668-7.208l72.395-.512c9.518.023 11.681 5.554 11.666 12.087l-.11 46.602z" stroke="#979797" stroke-width=".5" fill="#FFF"/><path d="M29.571 65.369a6.071 6.071 0 1 1-12.142-.024 6.071 6.071 0 0 1 12.142.024m52.858 1.429a6.071 6.071 0 1 1-12.143-.024 6.071 6.071 0 0 1 12.143.024m-26.569.344l-11.27-.152c-2.4-.032-4.336-1.953-4.303-4.268.034-2.315 2.025-4.183 4.425-4.15l11.272.153c2.4.032 4.336 1.953 4.302 4.267-.033 2.315-2.025 4.183-4.425 4.15m-.13 6.429l-10.938-.156c-.92-.013-1.663-.792-1.65-1.731.013-.94.777-1.697 1.697-1.684l10.938.157c.92.013 1.663.792 1.65 1.731-.013.939-.776 1.696-1.697 1.683" fill="#DBDBDB"/><path d="M85.18 55.714l-61.304-.12c-5.127-.01-9.315-4.23-9.305-9.376l.05-25.45c.01-5.147 4.214-9.35 9.341-9.34l61.305.12c5.127.011 9.314 4.23 9.304 9.377l-.05 25.45c-.01 5.147-4.213 9.35-9.34 9.34" fill="#494949"/><path d="M102.494 47.857s8.385 6.49-.78 13.572" stroke="#303030" stroke-width="9.412" stroke-linecap="round" stroke-linejoin="round"/><path d="M77.429 8.194c-.001.526.46.953 1.031.954l11.508.022c2.508.005 7.529 2.077 9.141 6.464.19.514.676 2.215 1.231 2.216l.798.001 3.098.006c.57.001 1.034-.424 1.035-.95l.015-9.048c-2.527-17.404-27.372-.47-27.372-.47a.937.937 0 0 0-.485.805M33.957 9.433s-12.27-.031-12.511-.04c-7.338-.248-8.304 6.031-8.303 5.584l.011-6.606c.005-2.523 1.402-4.82 3.6-5.923C20.507.522 34.19 8.341 34.19 8.341c.772.402.207 1.093-.232 1.092" fill="#3D3D3D"/><path d="M32.429 36.429c-1.965 0-3.572-1.654-3.572-3.675v-7.651c0-2.02 1.607-3.674 3.572-3.674 1.964 0 3.571 1.653 3.571 3.674v7.651c0 2.021-1.607 3.675-3.571 3.675m35.714 0c-1.964 0-3.572-1.654-3.572-3.675v-7.651c0-2.02 1.608-3.674 3.572-3.674s3.571 1.653 3.571 3.674v7.651c0 2.021-1.607 3.675-3.571 3.675" fill="#0FF"/><path d="M60.286 35s-8.036 7.292 0 12.857" stroke="#0FF" stroke-width="1.428" stroke-linecap="round"/><path d="M55.286 36.786c0 8.481-6.876 15.357-15.357 15.357-8.482 0-15.358-6.876-15.358-15.357 0-8.482 6.876-15.357 15.358-15.357 8.481 0 15.357 6.875 15.357 15.357" fill="#FF9292"/><path d="M56 36.429c0 8.678-7.035 15.714-15.714 15.714-8.68 0-15.715-7.036-15.715-15.714 0-8.68 7.036-15.715 15.715-15.715S56 27.75 56 36.43z" stroke="#FF5C64" stroke-width=".81"/><path d="M33.857 25.714s-6.913 3-6.401 10" stroke="#FFD9DF" stroke-width="1.499" stroke-linecap="round" stroke-linejoin="round"/></g></svg>