<svg width="156" height="96" viewBox="0 0 156 96" xmlns="http://www.w3.org/2000/svg"><g fill="none" fill-rule="evenodd"><path d="M115.708 95.278s-17.136-73.356-64.334-74.5c-46.336-1.122-57.334 74.5-39.166 74.5h103.5z" fill="#EFAB00"/><path d="M149.932 64.924s15.026-13.646-5.724-20.646c-12.732-4.294-13.168-24.948-22.834-28.834-11.282-4.534-16.586 4.688-26.666 1.084C84.036 12.712 80.886-.982 66.462.674c-9.3 1.068-9.588 15.604-28.506 16.354-22.618.896-11.25 18.25-16.082 28.918C17.04 56.612 1.266 57.256 5.792 76.778c2.736 11.802 10.248 19.09 32.914 15.75 16.926-2.494 111.226-27.604 111.226-27.604" fill="#59C059"/><path d="M27.403 58.942l11.012 3.338a3.923 3.923 0 0 0 4.88-2.608l1.254-4.134a3.925 3.925 0 0 0-2.608-4.882l-11.012-3.338a3.925 3.925 0 0 0-4.88 2.608l-1.254 4.136a3.924 3.924 0 0 0 2.608 4.88" fill="#E8511C"/><path d="M20.024 56.022c2.28.58 5.54 3.06 8.2 3.72-6.88 17.82-8.12 34.9-16.64 35.5h-.04c-6.54-.54-13.6-6.66-9.52-12.96 2.42-3.74-1.34-8.38-.32-12.68 1.46-6.2 7.8-7.54 10-8.16 2.4-.66 4.94-6.28 8.32-5.42" fill="#C18500"/><path d="M37.164 49.22c-2.02 3.66-3.68 7.42-5.08 11.14l-1.88-.58-1.8-.537c1.46-3.722 3.18-7.462 5.26-11.08l3.5 1.058z" fill="#C6431A"/><path d="M32.084 60.362c-6.62 17.44-7.96 34-16.18 34.86-.96 0-1.44 0-3.04.06h-.4c-.3 0-.58-.02-.88-.04 8.52-.6 9.76-17.68 16.64-35.5.72.18 1.38.22 1.98.04l1.88.58z" fill="#A06B00"/><path d="M35.705 36.06l5.37-2.57a3.926 3.926 0 0 0 1.84-5.217l-.36-.75a3.922 3.922 0 0 0-5.218-1.838l-5.37 2.57a3.926 3.926 0 0 0-1.84 5.218l.36.748a3.922 3.922 0 0 0 5.218 1.84" fill="#E8511C"/><path d="M90.204 19.562c-1.46.02-2.96.1-4.5.22-26.84 2.06-40.54 14.92-48.54 29.44l-3.5-1.06c8.08-14.1 21.76-26.36 47.94-28.38 3-.24 5.86-.3 8.6-.22" fill="#4BA04B"/><path d="M136.526 49.754l4.066 7.042a3.925 3.925 0 0 0 5.346 1.432l1.904-1.098a3.924 3.924 0 0 0 1.434-5.346l-4.066-7.044a3.927 3.927 0 0 0-5.346-1.432l-1.904 1.1a3.924 3.924 0 0 0-1.434 5.346M90.4 22.764l7.667-2.71a3.923 3.923 0 0 0 2.386-4.994l-.734-2.074a3.925 3.925 0 0 0-4.992-2.386l-7.668 2.71a3.923 3.923 0 0 0-2.384 4.994l.732 2.074a3.923 3.923 0 0 0 4.992 2.386" fill="#E8511C"/><path d="M143.89 95.278c6.151 0 10.865-5.382 10.151-11.496-2.734-23.428-15.75-68.04-68.334-64.004-66.054 5.07-52.5 75.5-70.5 75.5H143.89zM63.18 17.765a1.998 1.998 0 0 1-1.264-3.55l10.5-8.552a2 2 0 0 1 2.526 3.102l-10.5 8.55c-.372.302-.818.45-1.262.45" fill="#FFBF00"/><path d="M131.362 24.025c-.124 0-.248-.01-.374-.036l-13.306-2.518a2 2 0 0 1-1.594-2.336c.206-1.086 1.254-1.81 2.336-1.594l13.308 2.52a1.997 1.997 0 0 1 1.592 2.336 1.998 1.998 0 0 1-1.962 1.628M17.699 65.082a1.98 1.98 0 0 1-1.264-.452L5.941 56.07a2 2 0 0 1 2.53-3.098l10.494 8.562c.856.696.984 1.956.284 2.812-.394.484-.97.736-1.55.736" fill="#FFBF00"/><path d="M130.538 59.37c-3.262 0-3.268-5.07 0-5.07 3.264 0 3.268 5.07 0 5.07m-25.965 4.534c-3.262 0-3.268-5.07 0-5.07 3.264 0 3.268 5.07 0 5.07m-3.139 20.876c-3.262 0-3.268-5.07 0-5.07 3.264 0 3.27 5.07 0 5.07m-42.943 2.535c-3.262 0-3.268-5.07 0-5.07 3.262 0 3.268 5.07 0 5.07m5.024-44.082c-3.262 0-3.268-5.07 0-5.07 3.262 0 3.268 5.07 0 5.07m26.878-11.489c-3.262 0-3.268-5.072 0-5.072 3.262 0 3.268 5.072 0 5.072M77.217 66.975c-3.262 0-3.268-5.07 0-5.07 3.262 0 3.268 5.07 0 5.07m-28.065 2c-3.262 0-3.268-5.07 0-5.07 3.262 0 3.268 5.07 0 5.07m86.337 10.986c-3.262 0-3.268-5.07 0-5.07 3.262 0 3.268 5.07 0 5.07m-19.781-39.264c-3.264 0-3.27-5.07 0-5.07 3.262 0 3.268 5.07 0 5.07" fill="#EFAB00"/><path d="M28.404 59.242l1.8.54c-.6.178-1.26.14-1.98-.04.06-.16.12-.32.18-.5" fill="#4BA04B"/></g></svg>