<svg width="120" height="120" viewBox="0 0 120 120" xmlns="http://www.w3.org/2000/svg" xmlns:xlink="http://www.w3.org/1999/xlink"><defs><path id="a" d="M0 85.606h119.608V.166H0z"/></defs><g fill="none" fill-rule="evenodd"><path fill="#D5D5D5" d="M53.117 18.575l-1.63 84.258h10.946l-1.631-84.258z"/><path fill="#C4C4C5" d="M53.117 18.575l-1.63 84.258h5.473V18.575z"/><path fill="#B2514D" d="M60.932 25.318h-7.945l-.064 3.26h8.073zm.153 7.878h-8.25l-.064 3.26h8.377zm.152 7.879h-8.556l-.063 3.26h8.683z"/><g transform="translate(0 17.228)"><path d="M60.869.167h-7.806a.278.278 0 0 0-.278.279v.623c0 .154.124.279.278.279h7.806a.28.28 0 0 0 .28-.279V.446a.278.278 0 0 0-.28-.279" fill="#B4B5B5"/><mask id="b" fill="#fff"><use xlink:href="#a"/></mask><path fill="#9E5E3D" mask="url(#b)" d="M.43 85.606h61.404v-19.68H.43z"/><path fill="#404041" mask="url(#b)" d="M.43 85.606h61.404v-2.113H.43z"/><path d="M59.32 75.766H25.956c-.709 0-1.284.575-1.284 1.284v8.555h1.44v-8.089a.31.31 0 0 1 .311-.311H59.32v-1.44z" fill="#A29B9B" mask="url(#b)"/><path d="M61.66 78.573H28.298c-.71 0-1.285.574-1.285 1.283v5.749h1.44v-5.282c0-.172.14-.311.312-.311H61.66v-1.44z" fill="#A29B9B" mask="url(#b)"/><path fill="#8AAAB1" mask="url(#b)" d="M2.068 85.606H23.56V71.199H2.068z"/><path fill="#748F96" mask="url(#b)" d="M2.068 71.628H23.56v-.43H2.068zm0 .978H23.56v-.351H2.068zm0 1.056H23.56v-.352H2.068zm0 1.055H23.56v-.352H2.068zm0 1.055H23.56v-.352H2.068zm0 1.055H23.56v-.352H2.068zm0 1.056H23.56v-.352H2.068zm0 1.055H23.56v-.352H2.068zm0 1.055H23.56v-.352H2.068zm0 1.056H23.56v-.353H2.068zm0 1.054H23.56v-.351H2.068zm0 1.056H23.56v-.352H2.068zm0 1.055H23.56v-.352H2.068zm9.906.941h1.682v-.498h-1.682z"/><path fill="#748F96" mask="url(#b)" d="M2.068 85.606h.413V71.199h-.413z"/><path fill="#C0734B" mask="url(#b)" d="M64.343 85.606h48.807V53.132H64.342z"/><path fill="#D2886C" mask="url(#b)" d="M58.463 85.606h5.88V50.3h-5.88z"/><path fill="#D4C4A5" mask="url(#b)" d="M57.885 52.082h7.036v-1.955h-7.036z"/><path fill="#D2886C" mask="url(#b)" d="M113.15 85.606h5.88V50.3h-5.88z"/><path d="M108.236 59.442c-.772 0-1.948.548-1.948.548v3.895h3.897V59.99s-1.176-.548-1.949-.548" fill="#402E49" mask="url(#b)"/><path fill="#A6665C" mask="url(#b)" d="M106.08 64.381h4.314v-.496h-4.314z"/><path d="M108.236 59.442c-.772 0-1.948.548-1.948.548v.595c.329-.1.69-.183.989-.183.772 0 1.948.547 1.948.547v2.936h.96V59.99s-1.176-.548-1.949-.548" fill="#2E1C36" mask="url(#b)"/><path d="M69.321 59.442c-.772 0-1.949.548-1.949.548v3.895h3.898V59.99s-1.177-.548-1.949-.548" fill="#402E49" mask="url(#b)"/><path fill="#A6665C" mask="url(#b)" d="M67.164 64.381h4.313v-.496h-4.313z"/><path d="M69.32 59.442c-.771 0-1.948.548-1.948.548v.595c.329-.1.69-.183.989-.183.773 0 1.949.547 1.949.547v2.936h.96V59.99s-1.177-.548-1.95-.548" fill="#2E1C36" mask="url(#b)"/><path fill="#D2886C" mask="url(#b)" d="M98.419 50.301l-4.784-3.537-4.889-3.615-4.888 3.615-4.784 3.537H74.3v35.304h28.895V50.301z"/><path d="M109.997 73.712h-1.932a.188.188 0 0 1-.188-.188v-.428c0-.104.084-.188.188-.188h1.932c.104 0 .189.084.189.188v.428a.188.188 0 0 1-.189.188M97.311 63.411h-1.933a.187.187 0 0 1-.187-.187v-.428c0-.104.083-.188.187-.188h1.933c.104 0 .188.084.188.188v.428a.188.188 0 0 1-.188.187M80.96 57.89h-1.933a.188.188 0 0 1-.188-.189v-.428c0-.103.084-.187.188-.187h1.933c.104 0 .188.084.188.187v.428a.188.188 0 0 1-.188.188M70.287 72.493h-1.933a.188.188 0 0 1-.187-.188v-.428c0-.104.083-.188.187-.188h1.933c.104 0 .188.084.188.188v.428a.188.188 0 0 1-.188.188m-7.917 6.06h-1.933a.188.188 0 0 1-.189-.188v-.428c0-.103.085-.187.189-.187h1.932c.104 0 .188.084.188.187v.428a.188.188 0 0 1-.188.188m-1.154-19.86h-1.933a.188.188 0 0 1-.188-.188v-.428c0-.104.084-.188.188-.188h1.933c.104 0 .188.084.188.188v.428a.188.188 0 0 1-.188.188m34.942-5.704h-1.933a.188.188 0 0 1-.188-.188v-.428c0-.104.084-.188.188-.188h1.933c.103 0 .188.084.188.188v.428a.188.188 0 0 1-.188.188m20.233 7.257h-1.933a.188.188 0 0 1-.189-.188v-.428c0-.103.084-.188.189-.188h1.932c.104 0 .188.085.188.188v.428a.188.188 0 0 1-.188.188m-9.807 21.788h-1.932a.188.188 0 0 1-.188-.188v-.428c0-.103.084-.188.188-.188h1.932c.105 0 .189.085.189.188v.428a.188.188 0 0 1-.189.188m-27.473-7.681h-1.933a.188.188 0 0 1-.188-.188v-.428c0-.103.084-.188.188-.188h1.933c.104 0 .188.085.188.188v.428a.188.188 0 0 1-.188.188m-.973-1.057h-1.933a.188.188 0 0 1-.188-.188v-.428c0-.103.084-.187.188-.187h1.933c.104 0 .188.084.188.187v.428a.188.188 0 0 1-.188.188m-52.931-4.044h-1.933a.188.188 0 0 1-.188-.188v-.429c0-.103.084-.187.188-.187h1.933c.104 0 .188.084.188.187v.429a.188.188 0 0 1-.188.188M6.733 68.37H4.801a.188.188 0 0 1-.189-.188v-.428c0-.103.085-.187.189-.187h1.932c.104 0 .189.084.189.187v.428a.188.188 0 0 1-.189.188m1.155 1.044H5.956a.189.189 0 0 1-.19-.188v-.428c0-.104.085-.188.19-.188h1.932c.104 0 .188.084.188.188v.428a.188.188 0 0 1-.188.188" fill="#404041" mask="url(#b)"/><path fill="#353B47" mask="url(#b)" d="M64.343 54.182h9.956v-1.05h-9.956zM0 65.926h58.462v-1.049H0z"/><path fill="#404041" mask="url(#b)" d="M.43 66.29h58.032v-.364H.43z"/><path fill="#353B47" mask="url(#b)" d="M103.193 54.182h9.957v-1.05h-9.957z"/><path fill="#D4C4A5" mask="url(#b)" d="M112.572 52.082h7.036v-1.955h-7.036z"/><path fill="#AC6761" mask="url(#b)" d="M58.463 52.587h5.88v-.505h-5.88zm5.88 1.932h9.956v-.337h-9.956zm38.85 0h9.957v-.337h-9.957zm9.957-1.932h5.88v-.505h-5.88z"/><path d="M96.345 85.606H81.148v-11.62a7.596 7.596 0 0 1 7.598-7.593c4.196 0 7.599 3.4 7.599 7.594v11.619z" fill="#812E2F" mask="url(#b)"/><path fill="#353B47" mask="url(#b)" d="M79.074 50.305l4.784-3.538 4.888-3.615 4.889 3.615 4.784 3.538h4.775V49.06H98.83l-4.454-3.293-4.889-3.615-.741-.548-.74.548-4.89 3.615-4.453 3.293H74.3v1.245z"/><path d="M43.803 63.214v22.392h13.032V63.214c-7.217-3.004-13.032 0-13.032 0" fill="#AEA6A7" mask="url(#b)"/><path d="M43.803 63.214h13.032c-7.217-3.004-13.032 0-13.032 0" fill="#BFBDBD" mask="url(#b)"/><path fill="#353B47" mask="url(#b)" d="M43.803 85.606h13.032v-1.05H43.803z"/><path fill="#404041" mask="url(#b)" d="M43.803 84.556h2.351V63.214h-2.35z"/><path fill="#353B47" mask="url(#b)" d="M52.913 85.606h.48V63.01h-.48z"/><path fill="#353B47" mask="url(#b)" d="M50.195 65.13h3.197v-.48h-3.197zm0 1.86h3.197v-.48h-3.197zm0 1.86h3.197v-.48h-3.197zm0 1.86h3.197v-.48h-3.197zm0 1.86h3.197v-.48h-3.197zm0 1.86h3.197v-.48h-3.197zm0 1.861h3.197v-.48h-3.197zm0 1.861h3.197v-.48h-3.197zm0 1.86h3.197v-.48h-3.197zm0 1.86h3.197v-.48h-3.197zm0 1.86h3.197v-.48h-3.197z"/><path fill="#353B47" mask="url(#b)" d="M50.195 85.606h.48V63.01h-.48z"/><path d="M29.405 63.214v22.392h13.031V63.214c-7.217-3.004-13.031 0-13.031 0" fill="#AEA6A7" mask="url(#b)"/><path d="M29.405 63.214h13.031c-7.217-3.004-13.031 0-13.031 0" fill="#BFBDBD" mask="url(#b)"/><path fill="#353B47" mask="url(#b)" d="M29.405 85.606h13.031v-1.05H29.405z"/><path fill="#404041" mask="url(#b)" d="M29.405 84.556h2.35V63.214h-2.35z"/><path fill="#353B47" mask="url(#b)" d="M38.514 85.606h.48V63.01h-.48z"/><path fill="#353B47" mask="url(#b)" d="M35.796 65.13h3.198v-.48h-3.198zm0 1.86h3.198v-.48h-3.198zm0 1.86h3.198v-.48h-3.198zm0 1.86h3.198v-.48h-3.198zm0 1.86h3.198v-.48h-3.198zm0 1.86h3.198v-.48h-3.198zm0 1.861h3.198v-.48h-3.198zm0 1.861h3.198v-.48h-3.198zm0 1.86h3.198v-.48h-3.198zm0 1.86h3.198v-.48h-3.198zm0 1.86h3.198v-.48h-3.198z"/><path fill="#353B47" mask="url(#b)" d="M35.797 85.606h.48V63.01h-.48z"/><path fill="#AC6761" mask="url(#b)" d="M73.836 85.606h.463V54.182h-.463zm38.85 0h.464V54.182h-.464z"/><path fill="#404041" mask="url(#b)" d="M24.673 85.606h1.44v-.525h-1.44zm2.341 0h1.44v-.525h-1.44zm31.449 0h5.88v-.882h-5.88zm15.836 0h6.849v-.882h-6.85zm22.046 0h6.849v-.882h-6.85zm16.805 0h5.88v-.882h-5.88z"/><path d="M88.746 50.226c-.772 0-1.948.548-1.948.548v3.895h3.897v-3.895s-1.176-.548-1.949-.548" fill="#402E49" mask="url(#b)"/><path fill="#A6665C" mask="url(#b)" d="M86.59 55.165h4.313v-.496h-4.314z"/><path d="M88.746 50.226c-.772 0-1.948.548-1.948.548v.595c.328-.101.69-.183.988-.183.772 0 1.95.547 1.95.547v2.936h.959v-3.895s-1.176-.548-1.949-.548" fill="#2E1C36" mask="url(#b)"/><path fill="#404041" mask="url(#b)" d="M82.202 84.794h5.902v-4.762h-5.902zm0-5.704h5.902v-4.763h-5.902zm7.174 5.704h5.915v-4.762h-5.915zm0-5.704h5.915v-4.763h-5.915zm-7.174-5.627h5.903v-6.058c-2.287.133-3.889 1.633-4.842 2.893a5.243 5.243 0 0 0-1.061 3.165m13.083 0h-5.903v-6.058c2.286.133 3.889 1.633 4.841 2.893a5.24 5.24 0 0 1 1.062 3.165"/></g></g></svg>