<svg width="120" height="120" viewBox="0 0 120 120" xmlns="http://www.w3.org/2000/svg" xmlns:xlink="http://www.w3.org/1999/xlink"><defs><path id="a" d="M.05.151h7.394v17.44H.05z"/><path id="c" d="M.141.048H9.44v23.461H.141z"/></defs><g fill="none" fill-rule="evenodd"><g transform="matrix(-1 0 0 1 45.568 91.732)"><mask id="b" fill="#fff"><use xlink:href="#a"/></mask><path d="M6.264.714l1.12 13.268c.067.792.13 1.62-.115 2.367-.244.748-.9 1.378-1.557 1.217-.659-.16-1.014-.984-1.273-1.719A125.06 125.06 0 0 1 .05.151" fill="#EC9A42" mask="url(#b)"/></g><g transform="matrix(-1 0 0 1 68.273 96.434)"><mask id="d" fill="#fff"><use xlink:href="#c"/></mask><path d="M.24.048C-.03 2.342.304 4.66.635 6.945L2.488 19.7c.131.907.274 1.844.76 2.621.486.778 1.415 1.357 2.308 1.146 1.446-.342 1.742-2.235 1.758-3.72.07-6.595.579-13.218 2.125-19.63" fill="#EC9A42" mask="url(#d)"/></g><path d="M57.952 103.327c.847 1.794 2.658 3.287 4.637 3.131 2.256-.178 3.72-2.253 4.525-4.465.162-.443.297-.892.406-1.332.7-2.82.86-5.612.842-8.407-.002-.22-.003-.44-.008-.66.002 0 0 0 0 0-.03-1.966-.137-3.93-.193-5.911a75.763 75.763 0 0 1-.034-1.769c-.005-.657 0-1.317.017-1.979a87.7 87.7 0 0 0-.045-5.861c-.176-4.527-.634-9.068-1.073-13.595-.46-4.74-.021-10.097-1.315-14.652-.71-2.495-2.864-4.785-5.665-4.25-3.35.636-3.832 4.043-3.916 6.843a343.28 343.28 0 0 0-.132 12.839c.022 3.05.076 6.105.152 9.16.079 3.335.184 6.673.297 10.007.17 5.034.36 10.06.514 15.078.06 1.982.146 4.028.991 5.823M75.73 20.335c2.934 1.034 6.931.454 7.258-2.965.046-.483-.045-.97-.183-1.434-.977-3.316-4.543-5.656-7.976-5.235-4.7.577-3.88 4.97-1.642 7.935.558.739 1.48 1.325 2.544 1.7M54.29 9.726c-.927-.463-2.004-.528-3.037-.446-2.336.184-4.652 1.118-6.28 2.802-.734.76-1.343 1.74-1.294 2.795.04.845.5 1.621 1.072 2.245 5.968 6.511 16.745-3.795 9.539-7.396" fill="#EC9A42"/><path d="M49.167 16.42c-3.326 2.807-4.041 7.611-4.073 11.961-.04 5.506.687 11.143 3.208 16.038 2.52 4.896 7.055 8.967 12.48 9.92 5.165.907 10.614-1.148 14.358-4.817 3.744-3.669 5.869-8.788 6.49-13.992.604-5.072-.188-10.928-3.266-15.143-3.936-5.391-10.592-5.53-16.643-6.192-4.202-.459-9.11-.68-12.554 2.226m-9.018 80.204a22.213 22.213 0 0 0 1.671 2.898c2.03 2.983 4.772 5.479 7.913 7.264 2.568 1.462 5.403 2.447 8.335 2.832 1.276.169 2.594.227 3.833-.124 1.675-.473 3.068-1.66 4.157-3.016 1.037-1.29 1.823-2.863 2.342-4.574.914-3.015 1.003-6.46.178-9.552a14.072 14.072 0 0 0-.224-.758v-.001c-.83-2.583-2.328-4.862-4.544-6.353-1.76-1.182-4.422-2.193-7.363-2.815a30.835 30.835 0 0 0-4.223-.595c-3.137-.22-6.261.073-8.705 1.109-1.295.548-2.4 1.305-3.213 2.307-2.526 3.111-1.886 7.764-.157 11.378" fill="#EC9A42"/><path d="M65.98 22.618a558.12 558.12 0 0 0 1.985-18.49c.068-.756 1.006-1.224 1.682-1.071.82.185 1.14.916 1.072 1.68a558.132 558.132 0 0 1-1.984 18.49c-.223 1.797-2.977 1.182-2.755-.609m-2.1-18.45c-1.52 6.275.591 12.776-.796 19.088-.389 1.77-3.145 1.167-2.754-.61 1.384-6.296-.731-12.786.795-19.088.426-1.758 3.183-1.16 2.754.61" fill="#EC9A42"/><path d="M51.831 15.077c-1.584 1.549-4.327 2.539-4.8.006-.223-1.19.958-2.14 2.025-2.714.699-.375 1.467-.731 2.253-.624 2.37.323 1.858 2.026.522 3.332m27.694-.064c.459.569.815 1.274.744 2-.121 1.237-1.504 2.063-2.74 1.931-1.237-.132-2.286-.98-3.07-1.945-.968-1.194-1.064-3.355.657-3.964 1.503-.531 3.54.9 4.41 1.978" fill="#893E10"/><path d="M72.065 4.072c.585-.268 1.068-.84 1.06-1.483-.01-.765-.663-1.353-1.297-1.782C70.282-.24 66.642-.72 66.951 2.245c.213 2.052 3.61 2.514 5.114 1.827m-7.118-.299c.48-.429.772-1.118.575-1.73-.235-.728-1.034-1.097-1.766-1.32C61.97.18 58.35.797 59.52 3.537c.811 1.898 4.192 1.337 5.426.236" fill="#EC9A42"/><path d="M58.294 32.681a29.486 29.486 0 0 1 15.648 2.913c1.682.83 3.352 1.914 4.526 3.34.294.355.557.733.78 1.134 1.129 2.327.67 4.912-.605 7.19-.255.456-.543.9-.857 1.326a14.533 14.533 0 0 1-2.732 2.764c-.34.265-.69.516-1.05.753-4.042 2.66-9.043 4.012-13.876 3.424a15.68 15.68 0 0 1-1.285-.238 14.816 14.816 0 0 1-3.689-1.374 13.33 13.33 0 0 1-1.126-.714c-1.093-.767-2.084-1.701-2.969-2.732a21.146 21.146 0 0 1-.953-1.227c-2.392-3.474-5.118-8.539-2.462-12.562.177-.25.375-.489.599-.717.223-.228.471-.446.746-.65.39-.246.815-.47 1.264-.677 2.697-1.235 6.263-1.79 8.04-1.953" fill="#F7C596"/><path d="M54.82 39.53c.031.87-.814 1.745-1.658 1.525-.488-.126-.848-.564-1.002-1.043-.901-2.794 2.567-3.026 2.66-.482m19.392 2.349c.032.87-.814 1.744-1.658 1.525-.487-.127-.848-.565-1.002-1.044-.9-2.794 2.568-3.026 2.66-.481" fill="#C06714"/><path d="M54.977 21.712c.045.872-.347 1.601-.874 1.628-.527.027-.991-.658-1.036-1.53-.044-.872.347-1.601.874-1.628.528-.027.991.658 1.036 1.53m19.272 2.18c.044.873-.347 1.601-.874 1.628-.528.027-.991-.658-1.036-1.53-.045-.872.346-1.601.874-1.628.527-.027.99.658 1.036 1.53" fill="#050101"/><path d="M56.15 72.418c1.04.29 2.203.06 3.116-.526.988-.633 1.697-1.65 2.086-2.756.141-.407.246-.837.203-1.264-.065-.656-.459-1.227-.87-1.742-.832-1.042-1.821-2.012-3.06-2.504a4.943 4.943 0 0 0-1.627-.367c.022 3.05.076 6.105.152 9.159M43.519 82.94a5.905 5.905 0 0 0 1.79 2.637c.378.317.8.587 1.261.755 1.104.402 2.382.186 3.369-.446.988-.634 1.695-1.651 2.085-2.757.143-.406.247-.836.204-1.265a.198.198 0 0 0-.004-.033c-3.137-.22-6.261.073-8.705 1.109m8.998 6.965c.62.246 1.115.73 1.53 1.252.206.257.403.543.435.87.022.215-.03.43-.102.633-.194.553-.548 1.061-1.042 1.378-.494.317-1.133.425-1.684.223a2.133 2.133 0 0 1-.63-.377 2.952 2.952 0 0 1-1.033-1.958c-.153-1.597.94-2.652 2.526-2.021m11.01-8.335c.041.485.086.976.26 1.43.215.566.623 1.041 1.087 1.432.915.768 2.1 1.23 3.287 1.25a76.928 76.928 0 0 1-.034-1.768c-.005-.657 0-1.317.018-1.978a88.18 88.18 0 0 0-.046-5.862c-.704-.02-1.456.122-2.232.46-.996.432-1.846 1.25-2.196 2.277-.3.878-.224 1.834-.144 2.76M41.82 99.523c2.03 2.983 4.772 5.48 7.913 7.264 1.338-1.59 1.908-3.882.912-6.016-1.168-2.503-4.8-4.34-7.34-2.71a5.235 5.235 0 0 0-1.485 1.462m20.519-2.737c.23 1.78 1.112 3.575 2.253 4.362a4.94 4.94 0 0 0 2.522.846c.43.026.864-.004 1.286-.09.915-3.014 1.002-6.459.178-9.551a3.513 3.513 0 0 0-.216-.099c-1.169-.485-2.387-.314-3.793.06-1.927.512-2.487 2.482-2.23 4.472" fill="#893E10"/><path d="M57.216 105.275l-2.086 10.693c-.152.777-.33 1.606-.895 2.162-.615.604-1.644.732-2.388.297-1.415-.826-1.275-2.874-1.01-4.49.953-5.8 1.12-11.697 1.287-17.572" fill="#EC9A42"/></g></svg>