<svg width="120" height="120" viewBox="0 0 120 120" xmlns="http://www.w3.org/2000/svg"><g fill="none"><path d="M17.116 40.83H6.696c0-.927.754-1.687 1.673-1.687h7.073c.92 0 1.674.76 1.674 1.686zm12.306 0h-10.42c0-.927.754-1.687 1.674-1.687h7.073c.919 0 1.673.76 1.673 1.686zm12.283 0h-10.42c0-.927.754-1.687 1.674-1.687h7.072c.943 0 1.674.76 1.674 1.686zm12.307 0h-10.42c0-.927.754-1.687 1.673-1.687h7.073c.92 0 1.674.76 1.674 1.686zm12.283 0h-10.42c0-.927.754-1.687 1.673-1.687h7.073c.943 0 1.674.76 1.674 1.686zm12.306 0h-10.42c0-.927.754-1.687 1.674-1.687h7.072c.92 0 1.674.76 1.674 1.686zm12.283 0h-10.42c0-.927.754-1.687 1.674-1.687h7.072c.943 0 1.674.76 1.674 1.686zm12.306 0H92.77c0-.927.755-1.687 1.674-1.687h7.073c.92 0 1.674.76 1.674 1.686zm12.307 0h-10.42c0-.927.754-1.687 1.673-1.687h7.073c.92 0 1.674.76 1.674 1.686z" fill="#A6712F"/><path d="M13.58 80.385a4.47 4.47 0 0 1-6.86 0V47.244h6.86v33.14z" fill="#FFC071"/><path d="M10.138 47.244v33.14a4.615 4.615 0 0 1-1.721 1.26c1.744.712 3.842.308 5.163-1.26v-33.14h-3.442z" fill="#EBB168"/><path d="M22.633 78.009a4.47 4.47 0 0 1-6.86 0V47.244h6.86v30.765z" fill="#FFC071"/><path d="M19.19 47.244v30.765a4.615 4.615 0 0 1-1.72 1.259c1.744.713 3.842.309 5.163-1.26V47.245H19.19z" fill="#EBB168"/><path d="M31.686 75.633a4.47 4.47 0 0 1-6.86 0v-28.39h6.86v28.39z" fill="#FFC071"/><path d="M28.244 47.244v28.39a4.615 4.615 0 0 1-1.721 1.258c1.744.713 3.842.31 5.163-1.259v-28.39h-3.442z" fill="#EBB168"/><path d="M40.715 73.257a4.47 4.47 0 0 1-6.86 0V47.244h6.86v26.013z" fill="#FFC071"/><path d="M37.297 47.244v26.013a4.615 4.615 0 0 1-1.721 1.26c1.744.712 3.842.308 5.163-1.26V47.244h-3.442z" fill="#EBB168"/><path d="M49.768 70.882a4.47 4.47 0 0 1-6.86 0V47.244h6.86v23.638z" fill="#FFC071"/><path d="M46.35 47.244v23.638a4.615 4.615 0 0 1-1.721 1.259c1.744.713 3.843.309 5.163-1.26V47.245H46.35z" fill="#EBB168"/><path d="M58.821 68.506a4.47 4.47 0 0 1-6.86 0V47.244h6.86v21.262z" fill="#FFC071"/><path d="M55.38 47.244v21.262a4.615 4.615 0 0 1-1.722 1.26c1.745.712 3.843.308 5.163-1.26V47.244H55.38z" fill="#EBB168"/><path d="M67.874 68.506a4.47 4.47 0 0 1-6.86 0V47.244h6.86v21.262z" fill="#FFC071"/><path d="M64.432 47.244v21.262a4.615 4.615 0 0 1-1.72 1.26c1.744.712 3.842.308 5.162-1.26V47.244h-3.442z" fill="#EBB168"/><path d="M76.927 70.882a4.47 4.47 0 0 1-6.86 0V47.244h6.86v23.638z" fill="#FFC071"/><path d="M73.485 47.244v23.638a4.615 4.615 0 0 1-1.72 1.259c1.744.713 3.842.309 5.162-1.26V47.245h-3.442z" fill="#EBB168"/><path d="M85.98 73.257a4.47 4.47 0 0 1-6.86 0V47.244h6.86v26.013z" fill="#FFC071"/><path d="M82.538 47.244v26.013a4.615 4.615 0 0 1-1.72 1.26c1.744.712 3.842.308 5.162-1.26V47.244h-3.442z" fill="#EBB168"/><path d="M95.01 75.633a4.47 4.47 0 0 1-6.86 0v-28.39h6.86v28.39z" fill="#FFC071"/><path d="M91.591 47.244v28.39a4.615 4.615 0 0 1-1.72 1.258c1.744.713 3.842.31 5.162-1.259v-28.39h-3.442z" fill="#EBB168"/><path d="M104.063 78.009a4.47 4.47 0 0 1-6.86 0V47.244h6.86v30.765z" fill="#FFC071"/><path d="M100.644 47.244v30.765a4.615 4.615 0 0 1-1.72 1.259c1.744.713 3.842.309 5.162-1.26V47.245h-3.442z" fill="#EBB168"/><path d="M113.116 80.385a4.47 4.47 0 0 1-6.86 0V47.244h6.86v33.14z" fill="#FFC071"/><path d="M109.674 47.244v33.14a4.615 4.615 0 0 1-1.721 1.26c1.744.712 3.843.308 5.163-1.26v-33.14h-3.442z" fill="#EBB168"/><path d="M117.194 47.244H2.64A2.646 2.646 0 0 1 0 44.583v-.998a2.646 2.646 0 0 1 2.64-2.66h114.554a2.646 2.646 0 0 1 2.641 2.66v.998a2.646 2.646 0 0 1-2.64 2.66z" fill="#E0993F"/></g></svg>