<svg width="120" height="120" viewBox="0 0 120 120" xmlns="http://www.w3.org/2000/svg"><g fill="none" fill-rule="evenodd"><path fill="#E05959" d="M49.418 43.748h5.083v-5.084h-5.083z"/><path fill="#DA4343" d="M54.501 43.748h5.084v-5.084h-5.084zm5.084 0h5.083v-5.084h-5.083z"/><path fill="#D73A3B" d="M64.668 43.748h5.084v-5.084h-5.084z"/><path fill="#E05959" d="M39.251 48.831h5.083v-5.083h-5.083zm5.083 0h5.084v-5.083h-5.084z"/><path fill="#DA4343" d="M49.418 48.831h5.083v-5.083h-5.083z"/><path fill="#DA4343" d="M54.501 48.831h5.084v-5.083h-5.084z"/><path fill="#D73A3B" d="M59.585 48.831h5.083v-5.083h-5.083zm5.083 0h5.084v-5.083h-5.084z"/><path fill="#D73A3B" d="M69.752 48.831h5.083v-5.083h-5.083zm5.083 0h5.083v-5.083h-5.083z"/><path fill="#E05959" d="M34.167 53.915h5.084v-5.084h-5.084z"/><path fill="#E05959" d="M39.251 53.915h5.083v-5.084h-5.083z"/><path fill="#DA4343" d="M44.334 53.915h5.084v-5.084h-5.084z"/><path fill="#DA4343" d="M49.418 53.915h5.083v-5.084h-5.083z"/><path fill="#D73A3B" d="M54.501 53.915h5.084v-5.084h-5.084zm5.084 0h5.083v-5.084h-5.083zm5.083 0h5.084v-5.084h-5.084zm5.084 0h5.083v-5.084h-5.083zm5.083 0h5.083v-5.084h-5.083zm5.083 0h5.084v-5.084h-5.084z"/><path fill="#E05959" d="M29.084 58.998h5.083v-5.082h-5.083zm5.083 0h5.084v-5.082h-5.084z"/><path fill="#DA4343" d="M39.251 58.998h5.083v-5.082h-5.083zm5.083 0h5.084v-5.082h-5.084z"/><path fill="#D73A3B" d="M49.418 58.998h5.083v-5.082h-5.083z"/><path fill="#D73A3B" d="M54.501 58.998h5.084v-5.082h-5.084zm5.084 0h5.083v-5.082h-5.083zm5.083 0h5.084v-5.082h-5.084zm5.084 0h5.083v-5.082h-5.083zm5.083 0h5.083v-5.082h-5.083zm5.083 0h5.084v-5.082h-5.084zm5.084 0h5.084v-5.082h-5.084z"/><path fill="#DA4343" d="M29.084 64.081h5.083v-5.084h-5.083zm5.083 0h5.084v-5.084h-5.084z"/><path fill="#DA4343" d="M39.251 64.081h5.083v-5.084h-5.083z"/><path fill="#D73A3B" d="M44.334 64.081h5.084v-5.084h-5.084z"/><path fill="#D73A3B" d="M49.418 64.081h5.083v-5.084h-5.083z"/><path fill="#D73A3B" d="M54.501 64.081h5.084v-5.084h-5.084zm5.084 0h5.083v-5.084h-5.083zm5.083 0h5.084v-5.084h-5.084zm5.084 0h5.083v-5.084h-5.083zm5.083 0h5.083v-5.084h-5.083zm5.083 0h5.084v-5.084h-5.084zm5.084 0h5.084v-5.084h-5.084z"/><path fill="#DA4343" d="M29.084 69.165h5.083v-5.083h-5.083zm5.083 0h5.084v-5.083h-5.084z"/><path fill="#D73A3B" d="M39.251 69.165h5.083v-5.083h-5.083zm5.083 0h5.084v-5.083h-5.084zm5.084 0h5.083v-5.083h-5.083zm5.083 0h5.084v-5.083h-5.084zm5.084 0h5.083v-5.083h-5.083zm5.083 0h5.084v-5.083h-5.084zm5.084 0h5.083v-5.083h-5.083zm5.083 0h5.083v-5.083h-5.083zm5.083 0h5.084v-5.083h-5.084zm5.084 0h5.084v-5.083h-5.084z"/><path fill="#DA4343" d="M24 74.249h5.083v-5.084H24zm5.084-.001h5.083v-5.084h-5.083z"/><path fill="#D73A3B" d="M34.167 74.248h5.084v-5.084h-5.084z"/><path fill="#D73A3B" d="M39.251 74.248h5.083v-5.084h-5.083z"/><path fill="#FFF" d="M44.334 74.248h5.084v-5.084h-5.084z"/><path fill="#D73A3B" d="M49.418 74.248h5.083v-5.084h-5.083z"/><path fill="#D73A3B" d="M54.501 74.248h5.084v-5.084h-5.084zm5.084 0h5.083v-5.084h-5.083zm5.083 0h5.084v-5.084h-5.084z"/><path fill="#FFF" d="M69.752 74.248h5.083v-5.084h-5.083z"/><path fill="#D73A3B" d="M74.835 74.248h5.083v-5.084h-5.083zm5.083 0h5.084v-5.084h-5.084zm5.084 0h5.084v-5.084h-5.084z"/><path fill="#D73A3B" d="M90.085 74.249h5.083v-5.084h-5.083zM24 79.333h5.083v-5.084H24zm5.084-.001h5.083v-5.084h-5.083zm5.083 0h5.084v-5.084h-5.084z"/><path fill="#D73A3B" d="M39.251 79.332h5.083v-5.084h-5.083z"/><path fill="#4C717E" d="M44.334 79.332h5.084v-5.084h-5.084z"/><path fill="#D73A3B" d="M49.418 79.332h5.083v-5.084h-5.083z"/><path fill="#D73A3B" d="M54.501 79.332h5.084v-5.084h-5.084zm5.084 0h5.083v-5.084h-5.083zm5.083 0h5.084v-5.084h-5.084z"/><path fill="#4C717E" d="M69.752 79.332h5.083v-5.084h-5.083z"/><path fill="#D73A3B" d="M74.835 79.332h5.083v-5.084h-5.083zm5.083 0h5.084v-5.084h-5.084zm5.084 0h5.084v-5.084h-5.084z"/><path fill="#D73A3B" d="M90.085 79.333h5.083v-5.084h-5.083zM24 84.416h5.083v-5.083H24zm5.084-.001h5.083v-5.083h-5.083zm5.083 0h5.084v-5.083h-5.084z"/><path fill="#D73A3B" d="M39.251 84.415h5.083v-5.083h-5.083z"/><path fill="#4C717E" d="M44.334 84.415h5.084v-5.083h-5.084z"/><path fill="#D73A3B" d="M49.418 84.415h5.083v-5.083h-5.083z"/><path fill="#D73A3B" d="M54.501 84.415h5.084v-5.083h-5.084zm5.084 0h5.083v-5.083h-5.083zm5.083 0h5.084v-5.083h-5.084z"/><path fill="#4C717E" d="M69.752 84.415h5.083v-5.083h-5.083z"/><path fill="#D73A3B" d="M74.835 84.415h5.083v-5.083h-5.083zm5.083 0h5.084v-5.083h-5.084zm5.084 0h5.084v-5.083h-5.084z"/><path fill="#D73A3B" d="M90.085 84.416h5.083v-5.083h-5.083zM24 89.5h5.083v-5.084H24zm5.084-.001h5.083v-5.084h-5.083zm5.083 0h5.084v-5.084h-5.084z"/><path fill="#D73A3B" d="M39.251 89.499h5.083v-5.084h-5.083z"/><path fill="#4C717E" d="M44.334 89.499h5.084v-5.084h-5.084z"/><path fill="#D73A3B" d="M49.418 89.499h5.083v-5.084h-5.083z"/><path fill="#D73A3B" d="M54.501 89.499h5.084v-5.084h-5.084zm5.084 0h5.083v-5.084h-5.083zm5.083 0h5.084v-5.084h-5.084z"/><path fill="#4C717E" d="M69.752 89.499h5.083v-5.084h-5.083z"/><path fill="#D73A3B" d="M74.835 89.499h5.083v-5.084h-5.083zm5.083 0h5.084v-5.084h-5.084zm5.084 0h5.084v-5.084h-5.084z"/><path fill="#D73A3B" d="M90.085 89.5h5.083v-5.084h-5.083zM24 94.582h5.083V89.5H24zm5.084 0h5.083v-5.083h-5.083zm5.083 0h5.084v-5.083h-5.084z"/><path fill="#D73A3B" d="M39.251 94.582h5.083v-5.083h-5.083zm5.083 0h5.084v-5.083h-5.084zm5.084 0h5.083v-5.083h-5.083zm5.083 0h5.084v-5.083h-5.084zm5.084 0h5.083v-5.083h-5.083zm5.083 0h5.084v-5.083h-5.084zm5.084 0h5.083v-5.083h-5.083zm5.083 0h5.083v-5.083h-5.083zm5.083 0h5.084v-5.083h-5.084zm5.084 0h5.084v-5.083h-5.084z"/><path fill="#D73A3B" d="M90.085 94.582h5.083V89.5h-5.083zM24 99.666h5.083v-5.084H24zm5.084 0h5.083v-5.084h-5.083zm5.083 0h5.084v-5.084h-5.084z"/><path fill="#D73A3B" d="M39.251 99.666h5.083v-5.084h-5.083zm5.083 0h5.084v-5.084h-5.084zm5.084 0h5.083v-5.084h-5.083zm5.083 0h5.084v-5.084h-5.084zm5.084 0h5.083v-5.084h-5.083zm5.083 0h5.084v-5.084h-5.084zm5.084 0h5.083v-5.084h-5.083zm5.083 0h5.083v-5.084h-5.083zm5.083 0h5.084v-5.084h-5.084zm5.084 0h5.084v-5.084h-5.084z"/><path fill="#D73A3B" d="M90.085 99.666h5.083v-5.084h-5.083zM24 104.75h5.083v-5.084H24zm5.084 0h5.083v-5.084h-5.083zm5.083 0h5.084v-5.084h-5.084z"/><path fill="#D73A3B" d="M39.251 104.75h5.083v-5.084h-5.083zm5.083 0h5.084v-5.084h-5.084zm5.084 0h5.083v-5.084h-5.083zm5.083 0h5.084v-5.084h-5.084zm5.084 0h5.083v-5.084h-5.083zm5.083 0h5.084v-5.084h-5.084zm5.084 0h5.083v-5.084h-5.083zm5.083 0h5.083v-5.084h-5.083zm5.083 0h5.084v-5.084h-5.084zm5.084 0h5.084v-5.084h-5.084z"/><path fill="#D73A3B" d="M90.085 104.75h5.083v-5.084h-5.083zM24 109.834h5.083v-5.083H24zm5.084-.001h5.083v-5.083h-5.083zm5.083 0h5.084v-5.083h-5.084z"/><path fill="#D73A3B" d="M39.251 109.833h5.083v-5.083h-5.083zm5.083 0h5.084v-5.083h-5.084zm5.084 0h5.083v-5.083h-5.083zm5.083 0h5.084v-5.083h-5.084zm5.084 0h5.083v-5.083h-5.083zm5.083 0h5.084v-5.083h-5.084zm5.084 0h5.083v-5.083h-5.083zm5.083 0h5.083v-5.083h-5.083zm5.083 0h5.084v-5.083h-5.084zm5.084 0h5.084v-5.083h-5.084z"/><path fill="#D73A3B" d="M90.085 109.834h5.083v-5.083h-5.083zM24 114.918h5.083v-5.084H24zm5.084-.001h5.083v-5.084h-5.083zm5.083 0h5.084v-5.084h-5.084z"/><path fill="#D73A3B" d="M39.251 114.917h5.083v-5.084h-5.083zm10.167 0h5.083v-5.084h-5.083z"/><path fill="#D73A3B" d="M54.501 114.917h5.084v-5.084h-5.084zm5.084 0h5.083v-5.084h-5.083zm5.083 0h5.084v-5.084h-5.084zm10.167 0h5.083v-5.084h-5.083zm5.083 0h5.084v-5.084h-5.084zm5.084 0h5.084v-5.084h-5.084z"/><path fill="#D73A3B" d="M90.085 114.918h5.083v-5.084h-5.083zM29.083 120h5.083v-5.082h-5.083zm5.083 0h5.084v-5.082h-5.084zm20.335 0h5.083v-5.082h-5.083zm5.083 0h5.083v-5.082h-5.083zm20.334 0h5.084v-5.082h-5.084zm5.084 0h5.083v-5.082h-5.083z"/><path fill="#366171" d="M27.231 0v23.986h14.392V19.19h-9.595V0zm26.481 4.797h9.595V0h-9.595v4.797zm9.595 0v4.797h-9.595V4.797h-4.798v19.189h4.798v-9.595h9.595v9.595h4.797V4.797h-4.797zM79.962 0v4.797h-4.797V19.19h4.797V4.797h14.392V0H79.962zm4.797 9.594v4.797h4.797v4.798h-9.594v4.797h9.594V19.19h4.798V9.594h-9.595z"/></g></svg>