<svg width="120" height="120" viewBox="0 0 120 120" xmlns="http://www.w3.org/2000/svg" xmlns:xlink="http://www.w3.org/1999/xlink"><defs><path id="a" d="M.172 1.947H57.98V46.16H.172z"/><path id="c" d="M.2.3h13.173v5.567H.2z"/></defs><g fill="none" fill-rule="evenodd"><path d="M28.956 49.472c8.206 12.819 19.164 2.123 15.438-9.21-2.708-8.224 11.974 2.678 11.974 2.678s-8.595 23.844-16.053 24.202c-7.456.354-11.384-11.314-11.359-17.67" fill="#AD6920"/><g transform="translate(33.387 39.365)"><mask id="b" fill="#fff"><use xlink:href="#a"/></mask><path d="M2.74 44.27c1.082.116 2.11-.608 2.769-1.789.613.506 1.22.707 1.65.478.813-.435.715-2.214-.215-3.977a6.761 6.761 0 0 0-1.216-1.676 3.335 3.335 0 0 0-.113-.212s1.601-10.316 3.317-12.752c.581-.838 1.04-1.419 1.303-1.88v.01C8.063 32.625 7.815 46.16 7.815 46.16h32.037s-.307-15.572-2.949-25.83c1.42.562 8.578 3.305 10.767 2.508 3.008-1.1 6.464-10.972 6.464-10.972 1.296-.46 2.552-1.708 3.274-3.426 1.128-2.681.54-5.497-1.318-6.285-1.207-.517-2.657-.041-3.832 1.097-.532-.806-1.163-1.256-1.748-1.142-1.092.212-1.605 2.312-1.143 4.688.174.907.468 1.725.824 2.374.044.298.115.581.204.845l-5.535 6.546-11.932-4.3v-.007c-2.165-1.251-7.251-1.496-7.251-1.496l-1.77.11h-.146l-1.774-.077s-5.11.182-7.264 1.42h-.01s-6.705 3.536-8.504 5.848C2.643 22.65 1.214 36.123 1.116 37.045c.007-.003.007-.009.007-.011-.477.69-.813 1.59-.916 2.593-.253 2.39.882 4.468 2.534 4.643z" fill="#FDDFBB" mask="url(#b)"/></g><path d="M91.129 41.731c0 3.362-2.704 6.09-6.047 6.09-3.34 0-6.055-2.728-6.055-6.09 0-3.364 2.715-6.092 6.055-6.092 3.343 0 6.047 2.728 6.047 6.092" fill="#ACACAB"/><path d="M89.5 37.571c.535.909.844 1.967.844 3.099 0 3.362-2.713 6.09-6.05 6.09a6.027 6.027 0 0 1-4.423-1.931 6.044 6.044 0 0 0 5.212 2.991c3.343 0 6.046-2.725 6.046-6.09a6.09 6.09 0 0 0-1.628-4.159" fill="#969595"/><path d="M83.303 35.908a6.086 6.086 0 0 0-3.496 2.832 2.826 2.826 0 0 0 2.815 2.748 2.822 2.822 0 0 0 2.812-2.831c0-1.329-.907-2.44-2.131-2.75" fill="#C6C5C6"/><path d="M41.2 85.526c.017-.662.269-11.95 1.989-21.47.045-.207.064-.396.106-.601 3.539-3.98 3.999-7.67 4.827-11.874.958-.55 2.502-.89 3.92-1.097 0 0 0 6.334 5.105 6.334 4.83 0 4.6-6.422 4.6-6.422 1.576.214 3.46.59 4.57 1.234.877 2.642 1.788 8.147 4.511 10.384 2.086 9.855 2.397 22.781 2.412 23.512H41.2z" fill="#E63744"/><path d="M65.86 56.656v1.854c0 .988-.795 1.789-1.779 1.789a1.782 1.782 0 0 1-1.775-1.79v-1.853h3.553z" fill="#F6B90C"/><path d="M70.793 61.984c-.869-.727-1.55-1.777-2.108-2.972v26.513h2.108V61.984zm-25.262-1.647v25.19h-2.105V63.304a17.06 17.06 0 0 0 2.105-2.968m1.709 19.231h19.935V67.12H47.24z" fill="#EEEEED"/><path fill="#99588C" d="M47.24 69.633h19.935v-2.514H47.24zm0 9.934h19.935V77.98H47.24z"/><path fill="#FDDFBB" d="M55.376 111.969h-8.488l-.022-4.23-.345-7.888-.62-3.045h10.657v3.045l-.232 7.888zm12.171 0h-9.146l-.3-4.23-.226-7.888v-3.045h10.658l-.62 3.045-.347 7.888z"/><path fill="#343434" d="M60.44 85.482H44.717l1.105 11.52h10.84l.412-4.236h.291l.407 4.236h10.832l1.114-11.52z"/><path d="M56.326 107.74h-9.46l-.235 4.038h.008c-.32.2-.63.46-.905.72v2.591h7.7a10.4 10.4 0 0 0 .431-.274c.866-.613 1.888-1.288 2.476-2.199.181-.28.266-.572.2-.838h-.019l-.196-4.039z" fill="#EEEEED"/><path fill="#E63744" d="M56.345 108.193h-9.506l-.013.202h9.532zm.023.4h-9.551l-.013.2h9.574z"/><path d="M69.416 113.325a5.681 5.681 0 0 0-1.62-1.548h.007l-.237-4.037h-9.463l-.2 4.037h-.009c-.066.266.021.558.2.84.588.911 1.61 1.58 2.478 2.19.137.097.284.193.43.281h8.414v-1.763z" fill="#EEEEED"/><path fill="#E63744" d="M58.07 108.394h9.536l-.012-.201h-9.515zm-.022.398h9.58l-.01-.2h-9.562z"/><path d="M46.654 111.778l4.686-.356s-1.258-1.733-2.913-1.652c-1.603.08-1.796 1.993-1.796 1.993l.023.015z" fill="#6E6E6D"/><path d="M47.25 111.596l3.222-.244s-.864-1.192-2.001-1.136c-1.103.056-1.237 1.371-1.237 1.371l.017.009z" fill="#E63744"/><path d="M46.654 111.778l-.023-.009v.01h.008c-1.859 1.19-3.206 3.526-1.616 5.444 1.2 1.352 2.97.291 4.314-.278 1.486-.714 3.185-1.207 4.528-2.133.866-.612 1.888-1.285 2.476-2.196.181-.28.266-.572.2-.838v-1.79s-.117-.181-.528 0c-.822.365-1.362 1.996-3.108 1.79-4.324-1.21-6.251 0-6.251 0" fill="#E63744"/><path d="M56.21 112.803l-.213-.197s-2.227 2.267-4.145 2.829l.176.36c.643-.283 1.273-.598 1.835-.984.81-.57 1.746-1.189 2.347-2.008m-9.556-1.025l-.023-.015v.009h.008c-.053.064-.106.068-.158.105-.285.636-.244 1.309 1.195 1.298 1.128-.008 2.714-1.046 3.664-1.753-3.226-.563-4.686.356-4.686.356" fill="#343434"/><path d="M46.585 113.017c-.487 0-.96.036-1.42.107-.006.004-.008.013-.01.017-.922 1.21-1.24 2.747-.13 4.082 1.198 1.352 2.968.292 4.311-.278 1.028-.493 2.163-.883 3.209-1.385-1.197-1.521-3.415-2.543-5.96-2.543" fill="#343434"/><path d="M56.49 110.19c-.419 0-.757.778-.757 1.738 0 .467.08.891.21 1.202a3.95 3.95 0 0 0 .398-.514c.181-.281.267-.573.198-.838v-1.584c-.017-.002-.034-.004-.048-.004" fill="#EEEEED"/><path d="M45.546 112.713s-.032-.008-.034-.025c-.005-.017.008-.035.025-.039.02-.006 2.119-.52 4.81-.015.019.002.027.022.027.037-.004.019-.02.03-.04.027-2.676-.503-4.76.009-4.784.013l-.004.002m.551-.51s-.026-.009-.03-.022c-.006-.019.002-.036.02-.04.02-.009 1.964-.654 4.674-.035a.031.031 0 0 1 .022.041c-.002.017-.02.03-.036.024-2.69-.613-4.62.023-4.64.03-.002.002-.004.002-.01.002" fill="#C12636"/><path d="M67.778 111.778l-4.684-.356s1.254-1.733 2.913-1.652c1.603.08 1.799 1.993 1.799 1.993l-.028.015z" fill="#6E6E6D"/><path d="M67.183 111.596l-3.22-.244s.864-1.192 2.003-1.136c1.1.056 1.234 1.371 1.234 1.371l-.017.009z" fill="#E63744"/><path d="M67.778 111.778l.028-.009v.01h-.009c1.855 1.19 3.204 3.526 1.614 5.444-1.2 1.352-2.972.291-4.316-.278-1.484-.714-3.182-1.207-4.524-2.133-.873-.612-1.892-1.285-2.48-2.196-.179-.28-.264-.572-.198-.838v-1.79s.12-.181.528 0c.822.365 1.362 1.996 3.108 1.79 4.324-1.21 6.249 0 6.249 0" fill="#E63744"/><path d="M58.224 112.803l.215-.197s2.223 2.267 4.144 2.829l-.175.36c-.652-.283-1.273-.598-1.835-.984-.814-.57-1.748-1.189-2.349-2.008m9.554-1.025l.028-.015v.009h-.009c.05.064.104.068.151.105.29.636.252 1.309-1.19 1.298-1.128-.008-2.714-1.046-3.664-1.753 3.221-.563 4.684.356 4.684.356" fill="#343434"/><path d="M67.849 113.017c.487 0 .96.036 1.42.107l.01.017c.922 1.21 1.24 2.747.13 4.082-1.198 1.352-2.97.292-4.313-.278-1.028-.493-2.161-.883-3.206-1.385 1.196-1.521 3.414-2.543 5.959-2.543" fill="#343434"/><path d="M57.946 110.19c.417 0 .756.778.756 1.738 0 .467-.083.891-.211 1.202a4.164 4.164 0 0 1-.4-.514c-.18-.281-.264-.573-.196-.838v-1.584a.265.265 0 0 1 .05-.004" fill="#EEEEED"/><path d="M68.888 112.713c.017 0 .032-.008.036-.025.005-.017-.008-.035-.027-.039-.021-.006-2.119-.52-4.81-.015-.019.002-.027.022-.025.037 0 .019.019.03.04.027 2.674-.503 4.759.009 4.778.013l.008.002m-.551-.51c.01 0 .028-.009.032-.022.004-.019-.004-.036-.023-.04-.017-.009-1.97-.654-4.673-.035a.03.03 0 0 0-.022.041c.002.017.022.03.036.024 2.687-.613 4.62.023 4.64.03.002.002.006.002.01.002" fill="#C12636"/><path d="M58.838 51.98h-3.75c-1.07 0-1.941-2.32-1.941-3.378h7.63c0 1.059-.866 3.377-1.94 3.377" fill="#FDDFBB"/><path d="M53.966 51.119l6.783-2.254.011-.015a22.46 22.46 0 0 1-3.879.332c-1.269 0-2.51-.103-3.717-.302.068.662.368 1.579.802 2.239" fill="#EEAC6C"/><path d="M34.483 29.502a22.83 22.83 0 0 1-.262-3.476c0-12.771 10.29-23.121 22.974-23.121 12.687 0 22.975 10.35 22.975 23.121 0 1.127-.081 2.233-.237 3.32 1.327.728 2.219 2.108 2.219 3.687 0 2.347-1.963 4.25-4.384 4.25a4.52 4.52 0 0 1-.487-.028c-3.924 7.095-11.446 11.893-20.086 11.893-8.63 0-16.146-4.79-20.074-11.872-.066.002-.137.007-.205.007-2.423 0-4.386-1.903-4.386-4.25 0-1.472.773-2.77 1.953-3.531" fill="#FDDFBB"/><path d="M53.311 24.65s-.503 1.803-2.082 1.446c-.772-.174-.908-1.201-3.386-.74-.779.18-2.417 1.156-2.732 1.808-.316.652-.088-2.392 2.457-3.522 1.835-.675 2.457-.642 3.977-.642s1.987.907 1.766 1.65m9.741 0s.503 1.803 2.082 1.446c.772-.174.908-1.201 3.386-.74.779.18 2.417 1.156 2.732 1.808.316.652.087-2.392-2.457-3.522-1.835-.675-2.457-.642-3.977-.642s-1.987.907-1.766 1.65" fill="#AD6920"/><path d="M51 32c0 1.657-.895 3-2 3s-2-1.343-2-3 .895-3 2-3 2 1.343 2 3m18 0c0 1.657-.895 3-2 3s-2-1.343-2-3 .895-3 2-3 2 1.343 2 3" fill="#6172BB"/><path d="M58.02 35.07c.839-.115 2.96 1.756 2.96 1.756s.103-.414-.34-1.238C60.163 34.703 57.99 34 57.99 34s-1.687.448-2.487 1.604c-.296.29-.503 1.299-.503 1.299s1.895-1.681 3.02-1.834z" fill="#EEAC6C"/><g transform="translate(51 38)"><mask id="d" fill="#fff"><use xlink:href="#c"/></mask><path d="M.2.696S7.097 3.904 13.372.299c0 0-1.39 5.47-5.95 5.561-4.115.122-4.984-1.492-5.477-1.956C1.453 3.441.525 2.132.2.696" fill="#EEAC6C" mask="url(#d)"/></g><path d="M80.98 23.24a45.132 45.132 0 0 0-.272-4.227C77.636 8.893 68.285 1.527 57.223 1.527c-9.634 0-17.965 5.582-21.987 13.708-1.113 3.193-1.797 6.334-1.85 7.753-.198 4.918 1.216 6.549 1.216 6.549s4.12-5.735 8.99-9.18c3.829-2.705 7.24 2.524 11.787-1.957.404-.4 1.925-1.946 1.925-1.946s1.25 1.412 1.922 1.946c4.043 3.212 6.3-.437 10.824 2.038 3.702 2.03 9.772 9.261 9.772 9.261s1.193-3.754 1.159-6.458" fill="#AD6920"/></g></svg>