<svg width="152" height="150" viewBox="0 0 152 150" xmlns="http://www.w3.org/2000/svg"><g fill="none"><path d="M99.265 107.708H86.856c1.505 3.301 5.188 10.828 5.188 10.828s6.784.341 9.293-.632c-.16-1.134-1.34-7.19-2.072-10.196z" fill="#A0640A"/><path d="M106.806 141.176l-4.516-23.679H90.173c1.26 2.75 2.509 5.314 2.81 6.052 2.358 6.172 8.264 18.566 8.47 18.751.024.467-.156 2.279.546 2.51l.502-.211c-.1-.793-.12-2.554-.12-2.554l1.4-.066.15 2.344a.71.71 0 0 0 .778-.05s-.256-1.626.085-2.309c1.139 0 1.555-.075 1.65.035.096.11.292 3.081 1.175 2.118-.2-.718-.582-1.465-.19-2.253.571.055 1.073.1 1.309.406.236.306.35 1.646.692 1.907.146-.145.376-.12.427-.17l-.502-2.063a9.93 9.93 0 0 1 1.646-.035s-.066-.457-.096-.587c-.898-.05-3.397-.12-4.099-.146z" fill="#000"/><path fill="#BE0A3C" d="M93.269 127.799l1.058 3.277 5.75-.352-.707-3.176z"/><path d="M102.446 120.468c-.747.003-1.492.048-2.233.135h-.06c-3.186 1.14-2.895 4.933-2.283 7.919.838 4.079 2.438 5.71 5.996 7.34.627 0 1.26.09 1.886.076 1.807-2.037 3.322-1.41 1.726-8.796-1.595-7.387-4.912-6.589-5.032-6.674z" fill="#F01446"/><path d="M51.924 107.708h12.408c-1.505 3.301-5.188 10.828-5.188 10.828s-6.758.341-9.282-.647c.145-1.12 1.33-7.176 2.062-10.181z" fill="#A0640A"/><path d="M44.378 141.176l4.515-23.679h12.118c-1.26 2.75-2.509 5.314-2.81 6.052-2.358 6.172-8.264 18.566-8.47 18.751-.025.467.156 2.279-.547 2.51l-.501-.211c.1-.793.12-2.554.12-2.554l-1.4-.066-.15 2.344a.707.707 0 0 1-.778-.05s.256-1.626-.085-2.309c-1.14 0-1.556-.075-1.651.035-.095.11-.291 3.081-1.174 2.118.2-.718.582-1.465.19-2.253-.571.055-1.073.1-1.31.406-.235.306-.35 1.646-.691 1.907-.146-.145-.377-.12-.427-.17l.502-2.063a9.93 9.93 0 0 0-1.646-.035s.065-.457.095-.587c.904-.05 3.402-.12 4.1-.146z" fill="#000"/><path fill="#BE0A3C" d="M57.92 127.799l-1.059 3.277-5.75-.352.708-3.176z"/><path d="M48.738 120.468a19.84 19.84 0 0 1 2.233.135h.06c3.186 1.14 2.895 4.933 2.283 7.919-.838 4.079-2.439 5.71-5.996 7.34-.627 0-1.26.09-1.887.076-1.806-2.037-3.321-1.41-1.726-8.796 1.596-7.387 4.918-6.589 5.033-6.674z" fill="#F01446"/><path d="M84.96 37.258s5.795 1.586 7.38-3.889c1.586-5.474-6.397-3.944-7.46-1.19-.487 1.25.08 5.079.08 5.079z" fill="#A0640A"/><path d="M87.002 17.95c-.542-.658-9.423-2.575-9.423-2.575L58.01 26.068a48.173 48.173 0 0 0 1.882 6.533c2.263 5.43 6.197 11.326 10.306 12.635 2.223.708 10.738 1.646 15.012-2.94 2.48-2.66 5.053-8.029 4.928-13.9-.096-4.245-2.484-9.654-3.136-10.447z" fill="#A0640A"/><path d="M56.345 13.489l.572-.352c-.863-2.403-2.95-6.272 1.003-7.025 2.388-.471 5.92 2.158 6.653 4.381.397.17.397.17.758-.14-.351-1.832-1.099-4.095.436-5.52 4.546-2.61 6.75 3.849 9.313 6.393l.552-.1c.452-2.008-.928-4.843 2.082-4.923 1.972-.05 2.875 1.69 3.889 3.01 2.383 3.107 5.78 8.767 5.78 8.767s.035 3.467-5.233 4.42c-2.63.502-7.1-2.223-14.05.502-6.949 2.725-6.793 12.148-6.793 12.148s-7.526-14.025-8.374-16.017c-.653-1.505-2.63-5.95-1.004-7.23 1.275-1.019 3.422 1.013 4.416 1.686z" fill="#000"/><path d="M62.476 36.756s-5.795 1.586-7.38-3.889c-1.586-5.474 6.397-3.944 7.46-1.189.487 1.25-.08 5.078-.08 5.078z" fill="#A0640A"/><path d="M71.758 37.168c3.01-.502 5.876-.256 8.881.1-.02 4.968-10.346 4.867-8.88-.1z" fill="#000"/><path d="M75.205 32.777c-2.062-2.765 4.11-6.222 5.42-1.907 1.013 3.332-3.372 2.233-5.42 1.907z" fill="#824600"/><path d="M69.315 30.499l-.256 1.079h-.743c-.33-1.21.362-3.091.999-1.079zm15.535.687h-.603l-.421-1.385c.33-.466.33-.466.787-.38.314.532.4 1.169.236 1.765zm-19.303 80.917l5.042-15.685 9.418-.146v-.125l5.61 16.182 17.06-.667c-1.21-5.62-3.879-15.821-5.64-22.445-1.004-3.728-6.247-16.77-21.53-16.674-15.284.095-18.565 10.643-18.565 10.643s-1.746 4.516-2.007 5.334c-.67 2.15-1.357 4.3-2.063 6.448-1.505 4.646-4.265 12.504-5.79 17.14l18.465-.005z" fill="#000"/><path d="M10.88 55.081c-.135-.748-4.545-.587-4.646-1.064-.1-.476 48.354-1.811 50.22-2.353 0 0 7.246-.356 7.447 5.67.2 6.026-7.983 5.495-7.983 5.495-8.926.567-49.393-2.775-49.769-3.588-.376-.813 4.205.25 4.415-1.174.211-1.425-5.062-1.034-5.318-1.912-.256-.878 5.775-.326 5.635-1.074z" fill="#A0640A"/><path d="M11.739 50.77c-.151.774 3.226 1.832 3.743 2.75.516.919-1.074 3.623 2.007 3.904 3.08.281 3.306-3.01 2.945-4.1-.361-1.088-7.792-3.266-8.695-2.553z" fill="#824600"/><path d="M49.09 64.635H63.9c2.736 0 9.033-.828 9.033-6.9 0-6.071-3.011-7.155-6.523-7.115H48.798c-.08 1.154-.17 13.463.291 14.015z" fill="#F01446"/><path d="M142.355 55.081c.136-.748 4.546-.587 4.647-1.064.1-.476-48.355-1.811-50.221-2.353 0 0-8.43-1.16-8.43 5.52 0 6.678 8.69 6.312 8.69 6.312 8.927.567 49.675-3.457 50.04-4.275.367-.818-4.204.25-4.415-1.174-.21-1.425 5.088-1.034 5.324-1.917.236-.883-5.765-.301-5.635-1.049z" fill="#A0640A"/><path d="M141.477 50.77c.15.774-3.226 1.832-3.743 2.75-.517.919 1.074 3.623-2.007 3.904-3.08.281-3.306-3.01-2.945-4.1.361-1.088 7.817-3.266 8.695-2.553z" fill="#824600"/><path d="M103.193 64.635c-.19 0-12.82-.145-15.554-.145-2.735 0-8.279-.698-8.279-6.77 0-6.071 3.01-7.155 6.523-7.115h17.611c.07 1.17.16 13.478-.3 14.03z" fill="#F01446"/><path d="M66.405 50.605c-3.016 9.79-15.745 42.712-15.745 42.712l48.67-2.51s-9.86-29.785-12.82-40.202H66.405z" fill="#F01446"/></g></svg>