<svg xmlns="http://www.w3.org/2000/svg" width="68.067" height="65.546" viewBox="0.285 0.096 68.067 65.546"><defs><style/></defs><g id="ID0.18169475393369794"><path id="ID0.6904299128800631" fill="#272525" d="M75 23c14.898 0 28.398 5.827 38.174 15.24C122.949 47.654 129 60.654 129 75c0 14.346-6.051 27.346-15.826 36.76C103.398 121.173 89.898 127 75 127s-28.398-5.827-38.174-15.24C27.051 102.346 21 89.346 21 75c0-14.346 6.051-27.346 15.826-36.76C46.602 28.827 60.102 23 75 23z" transform="translate(-12.95 -14.4) scale(.63025)"/><path id="ID0.5407828064635396" fill="#FFF" d="M24.924 75.24c0-26.101 22.837-47.26 51.01-47.26 28.172 0 49.08 20.938 49.08 47.04 0 26.101-20.908 47.479-49.08 47.479-28.172 0-51.01-21.158-51.01-47.259z" transform="translate(-12.95 -14.4) scale(.63025)"/><path id="ID0.9486554213799536" fill="red" d="M53.497 70.676c4.631 0 8.827 1.909 11.865 4.992a17.108 17.108 0 0 1 4.919 12.041c0 4.699-1.881 8.958-4.919 12.041-3.038 3.083-7.234 4.992-11.865 4.992s-8.827-1.909-11.865-4.992a17.108 17.108 0 0 1-4.919-12.041c0-4.699 1.881-8.958 4.919-12.041 3.038-3.083 7.234-4.992 11.865-4.992z" transform="translate(-12.95 -14.4) scale(.63025)"/><path id="ID0.209154793061316" fill="red" d="M77.113 37.042c3.476 0 6.626 1.36 8.907 3.556 2.281 2.196 3.693 5.23 3.693 8.577 0 3.347-1.412 6.381-3.693 8.577-2.281 2.196-5.431 3.556-8.907 3.556s-6.626-1.36-8.907-3.556c-2.281-2.196-3.693-5.23-3.693-8.577 0-3.347 1.412-6.381 3.693-8.577 2.281-2.196 5.431-3.556 8.907-3.556z" transform="translate(-12.95 -14.4) scale(.63025)"/><path id="ID0.47492631059139967" fill="#FFAC00" d="M47.995 39.576c2.726 0 5.196 1.149 6.985 3.006a10.419 10.419 0 0 1 2.896 7.25c0 2.83-1.107 5.394-2.896 7.25-1.789 1.857-4.259 3.006-6.985 3.006s-5.196-1.149-6.985-3.006a10.419 10.419 0 0 1-2.896-7.25c0-2.83 1.107-5.394 2.896-7.25 1.789-1.857 4.259-3.006 6.985-3.006z" transform="translate(-12.95 -14.4) scale(.63025)"/><path id="ID0.6609331765212119" fill="#FFAC00" d="M94.863 32.997c1.614 0 3.077.631 4.136 1.651 1.059 1.02 1.715 2.429 1.715 3.983 0 1.554-.656 2.963-1.715 3.983a5.947 5.947 0 0 1-4.136 1.651 5.947 5.947 0 0 1-4.136-1.651c-1.059-1.02-1.715-2.429-1.715-3.983 0-1.554.656-2.963 1.715-3.983a5.947 5.947 0 0 1 4.136-1.651z" transform="translate(-12.95 -14.4) scale(.63025)"/><path id="ID0.3788029346615076" fill="#FFAC00" d="M100.514 54.68c3.007 0 5.732 1.11 7.705 2.902 1.974 1.793 3.195 4.269 3.195 7.001s-1.221 5.208-3.195 7.001c-1.973 1.792-4.698 2.902-7.705 2.902-3.007 0-5.732-1.11-7.705-2.902-1.974-1.793-3.195-4.269-3.195-7.001s1.221-5.208 3.195-7.001c1.973-1.792 4.698-2.902 7.705-2.902z" transform="translate(-12.95 -14.4) scale(.63025)"/><path id="ID0.2442327979952097" fill="red" d="M113.514 74.887c2.4 0 4.575.939 6.149 2.455 1.575 1.517 2.55 3.611 2.55 5.922 0 2.311-.975 4.405-2.55 5.922a8.841 8.841 0 0 1-6.149 2.455c-2.4 0-4.575-.939-6.149-2.455-1.575-1.517-2.55-3.611-2.55-5.922 0-2.311.975-4.405 2.55-5.922a8.841 8.841 0 0 1 6.149-2.455z" transform="translate(-12.95 -14.4) scale(.63025)"/><path id="ID0.9025586959905922" fill="#FFAC00" d="M92.759 91.411c-9.258.095-16.694 6.995-16.608 15.409.052 4.91 2.654 9.244 6.651 11.986.16.11.322.217.486.322 1.129 1.276 2.935 1.374 4.196 2.061.142.016.272.041.396.08.167-.054.35-.088.547-.097.241-.138.531-.221.863-.239 1.096-.382 2.145-.785 3.275-.996.19-.143.406-.246.652-.283.027-.004.055-.01.081-.016.284-.223.653-.361 1.104-.38a2.4 2.4 0 0 1 1.068-.401c.084-.062.168-.123.269-.168.332-.147.666-.289 1.001-.43.217-.092.234-.1.052-.021.118-.051.235-.102.354-.152a8.99 8.99 0 0 0 1.344-.729c.249-.168.529-.252.814-.272.135-.106.271-.209.442-.274.134-.069.284-.119.442-.156.229-.241.523-.424.895-.51.191-.147.404-.272.67-.334.146-.108.297-.211.482-.274.189-.187.422-.338.705-.429.093-.067.195-.127.304-.178a1.75 1.75 0 0 1 .444-.353c.215-.261.519-.444.882-.552.159-.158.352-.289.577-.379.037-.021.066-.047.105-.062a4.19 4.19 0 0 1 .502-.398c.143-.179.32-.328.531-.443.018-.018.029-.036.049-.053.168-.213.379-.393.643-.513.205-.245.455-.456.795-.565.147-.211.34-.389.574-.522a1.71 1.71 0 0 1 .325-.278c.136-.252.31-.482.554-.649.082-.379.16-.804.262-1.29.027-.156.051-.312.07-.471.086-.629.127-1.27.121-1.922-.082-8.418-7.658-15.166-16.919-15.069z" transform="translate(-12.95 -14.4) scale(.63025)"/></g></svg>