<svg xmlns="http://www.w3.org/2000/svg" width="53.802" height="192.227" viewBox="-4.886 -0.206 53.802 192.227"><defs><style/></defs><g id="ID0.3783438066020608" transform="translate(.15 .55)"><g id="Shoes"><path id="Shoe_Right" fill="#0B1938" d="M36.281 170.044c.189.562 1.638 1.113 2.191 1.359.938.416 2.063.902 3.021 1.205.892.281 1.708.58 2.644.811.403.098 1.242.242 1.641.322.623.127.406.729.527 1.209.633 2.535-2.234 3.635-4.336 3.697-.576.018-1.062-.137-1.607-.252-.432-.092-1.133.008-1.529-.18-.83-.387-.695-1.646-1.723-1.984-2.518-.832-5.367-1.541-7.959-1.762.928-.617 2.574-1.576 3.479-2.094 1.134-.648 2.233-1.396 3.334-1.949m.209 8.305c-.138-.283-.26-.613-.425-.881-.165-.268.079-.166-.181-.314-.213-.121-.922-.18-1.158-.26-.995-.346-2.005-.598-3.016-.916a50.292 50.292 0 0 0-2.377-.682c-.658-.17-1.635-.375-2.293-.23-.576.121-1.381.488-1.978.5-.337 1.602 3.61 1.371 4.438 1.424 1.775.109 3.543 1.166 5.307 1.389.546.072 1.01-.227 1.535-.154" transform="matrix(.95 0 0 .95 .15 .9)"/><path id="Shoe_Trim_Right_1_" fill="#A2C6DD" d="M46.435 173.858c-.06.174.164.531.129.797-.045.334-.166.572-.098.926.129.645-.273.977-.568 1.539-.248.473-1.018.963-1.508 1.129-.953.324-1.863.348-2.854.297-.458-.027-.926-.051-1.377-.096-.23-.023-.598.029-.807-.066-.172-.076-.151-.098-.239-.285-.323-.674-.644-1.154-1.188-1.688-.279-.277-.473-.312-.875-.422-.469-.131-.787-.127-1.259-.246-.417-.107-1.08-.277-1.513-.34-.512-.068-.881-.229-1.387-.354-.611-.148-1.254-.291-1.881-.357-.496-.055-1.043-.217-1.529-.217a2.134 2.134 0 0 0-.885.197c-.869.416-1.211.5-1.313.729.614.256 1.36.051 2.006.277.675.234 1.377.498 2.095.662.756.174 1.502.498 2.273.615.318.047.6.135.921.213.349.082.911.096 1.214.285.246.152.645.965.63 1.246-1.176.062-2.428-.066-3.532-.479-.783-.291-1.59-.598-2.391-.797-1.234-.309-2.652.18-3.855-.209-.553-.178-1.019-.133-1.435-.549-.224-.225-.28-.654-.612-.645-.24.006-.638.041-.854.133-.536.225-.116.934.04 1.338.184.477.533 1.201 1.012 1.365.52.176 1.205.23 1.77.127a10.797 10.797 0 0 1 1.799-.184c1.253-.037 2.51.699 3.697 1.146.816.307 1.658.566 2.455.9.668.279 1.363.332 2.071.439.888.135 1.704.014 2.603.102.949.096 1.951.18 2.91.104.881-.07 1.976.213 2.806-.146.291-.127.524-.139.812-.271.551-.252 1.35-.646 1.766-1.086.559-.592 1.021-.709 1.271-1.604.206-.74.146-1.207.086-1.896a5.496 5.496 0 0 0-.489-1.762c-.125-.27-.404-.492-.656-.629-.207-.113-1.195-.457-1.291-.23" transform="matrix(.95 0 0 .95 .15 .9)"/><path id="Shoe_Left" fill="#0B1938" d="M22.547 185.722c.628.107 1.271.541 1.808.871.608.373.895.719 1.453 1.123.34.248.742.74 1.08.996.375.285.731.574 1.146.803.751.412 1.453.275 2.251.447.295.068.587.203.833.391.297.229.242.449.255.812.011.371.086.707-.12 1.027a7.38 7.38 0 0 1-1.123 1.281c-.391.332-.695.334-1.084.662-.359.305-1.014.611-1.471.701-1.158.229-1.385.52-2.538.791-.851.197-2.53.455-3.417.406-.607-.027-.953-.188-1.527-.34-.654-.176-1.211-.391-1.756-.789-.562-.416-.668-.768-.729-1.445-.023-.264-.285-.625-.414-.859-.127-.234-.191-.527-.416-.639-.538-.281-1.04-.588-1.561-.887-.605-.342-1.166-.74-1.793-1.045-.595-.287-1.148-.703-1.746-.963-.358-.154-.611-.162-.67-.604-.043-.322.148-.617.133-.953.851.299 1.563.879 2.41 1.217.361.145.658.326 1.055.383.443.061.781-.107 1.186-.271.414-.168.848-.328 1.281-.475.512-.174.943-.467 1.42-.697.994-.486 2.057-1.137 3.07-1.57.197-.084 1.488-.312 1.479-.504m-8.622 6.944c-.071-.301-.657-.449-.924-.572-.297-.137-.533-.32-.797-.504-.517-.354-1.037-.727-1.593-1.025-.516-.279-1.178-.35-1.401-.926-.09-.229-.078-.473-.14-.73-.053-.242.119-.604.06-.859-.131-.559-.108-.877.179-1.338-.408-.312-.877-.619-1.375-.768-.371-.113-.576.02-.629.375-.044.285-.24.4-.41.645-.179.252-.006.459-.043.787-.041.342.017.693.03 1.029.024.611-.131 1.229.384 1.656.498.412.891.914 1.37 1.34.619.551 1.371.816 2.111 1.18.384.189.782.334 1.192.475.457.16 1.045.441 1.545.355.25-.043.401-.18.474-.443.043-.16.047-.654-.099-.701" transform="matrix(.95 0 0 .95 .15 .9)"/><path id="Shoe_Trim_Left" fill="#A2C6DD" d="M31.357 190.142c.832.197.287 1.553.025 1.979-.273.445-.367.775-.822 1.086-.268.182-.613.299-.859.516-.283.248-.385.365-.766.535-1.098.482-2.459 1.078-3.627 1.365-.746.182-1.627.34-2.396.414-1.547.145-2.571-.119-3.951-.896-1.008-.57-1.073-1.656-1.457-2.607-.2-.494-.735-.596-1.188-.865-.654-.389-1.277-.805-1.943-1.18-.695-.391-1.418-.73-2.127-1.105-.564-.303-1.225-.596-1.123-1.34.035-.246.382-.615.312-.766-.068-.152-.521-.25-.664-.318-.154-.078-.402-.33-.572-.346-.463-.029-.578.92-.574 1.303.008.482.086 1.09.279 1.527.135.305.369.381.639.541.364.219.688.49 1.061.68.598.305 1.109.678 1.688 1.021.436.26 1.184.543 1.312 1.043.055.211.164.586-.068.701-.159.08-.686-.064-.893-.064-.695 0-1.176-.256-1.783-.549-.78-.377-1.756-.695-2.426-1.242-.533-.432-1.082-1.174-1.779-1.359-.043.258.094.547.162.793.076.277.09.51.09.797 0 .607.148 1.02.582 1.457.766.781 2.127 1.02 3.178 1.195 1.072.178 2.15.561 3.193.924.691.242 1.24.582 1.881.926.683.367 1.145.82 1.744 1.264.301.221.613.398.895.645.223.193.426.236.701.352.359.152.754.369 1.115.484.26.086.504.205.766.248.703.109 1.441-.076 2.141-.098 1.012-.033 1.91-.385 2.855-.738.902-.344 1.857-.453 2.715-.91a7.454 7.454 0 0 0 1.115-.699c.354-.281.751-.379 1.146-.588 1.49-.787 3.099-2.576 2.678-4.359-.148-.629-.665-1.158-1.276-1.361-.585-.197-1.444-.488-2.069-.455" transform="matrix(.95 0 0 .95 .15 .9)"/><g id="Right_Shoe_Lines"><g id="ID0.6123573230579495" fill="#010101"><path id="ID0.28505046339705586" d="M24.16 178.345c-.211-.139-.645.039-.346.229.859.562 1.06.846 2.182.68 3.439-.502 6.411 1.252 9.641 2.061 3.086.77 7.531.658 10.586-.293 3.284-1.023 3.269-4.518 1.869-6.959-.335-.586-6.982-1.73-3.125-.719-2.966-.773-5.767-1.812-8.434-3.336-.258-.145-.541.129-.23.309 2.674 1.527 5.549 2.732 8.569 3.385 1.317.289 3.571.473 3.649 2.562.162 4.357-3.989 5.115-7.444 4.979-4.162-.166-7.601-.873-11.511-2.479-1.781-.732-3.6.762-5.406-.419z" transform="matrix(.95 0 0 .95 .15 .9)"/><path id="ID0.2633480802178383" d="M46.625 173.872c-.021-.232-.555-.309-.531-.041.09 1.002.358 2.113-.308 3-.601.799-1.409 1.369-2.433 1.486-1.451.166-2.873-.107-4.32-.172-.357-.018-.247.363.048.379 1.833.084 4.204.746 5.897-.293 1.761-1.078 1.814-2.472 1.647-4.359z" transform="matrix(.95 0 0 .95 .15 .9)"/><path id="ID0.7318954882211983" d="M37.691 176.095c-.146-.186-.645-.109-.438.15.545.688 1.118 1.354 1.554 2.119.112.197.646.197.502-.059-.456-.798-1.05-1.493-1.618-2.21z" transform="matrix(.95 0 0 .95 .15 .9)"/><path id="ID0.9398090578615665" d="M28.974 174.28c-.357-.045-.24.344.047.379 2.85.348 5.779.924 8.52 1.766.322.1.413-.256.096-.354-2.796-.859-5.76-1.437-8.663-1.791z" transform="matrix(.95 0 0 .95 .15 .9)"/><path id="ID0.4406727198511362" d="M26.793 175.171c-.354.006-.065.381.183.379 1.26-.025 2.752.482 3.945.814 1.508.418 3.012.848 4.532 1.223.323.084.421-.273.095-.354-2.764-.687-5.867-2.121-8.755-2.062z" transform="matrix(.95 0 0 .95 .15 .9)"/><path id="ID0.2346159191802144" d="M36.289 178.833c.355-.029.07-.396-.182-.377-2.225.182-4.471-.912-6.611-1.334-1.113-.221-4.008.383-4.432-1.086-.064-.225-.602-.287-.53-.041.431 1.498 2.606 1.42 3.851 1.436 2.699.031 5.181 1.623 7.904 1.402z" transform="matrix(.95 0 0 .95 .15 .9)"/><path id="ID0.8513877997174859" d="M35.908 177.38c-.123-.188-.659-.184-.501.059.263.4.435.848.657 1.271.104.201.638.205.5-.057-.221-.422-.394-.873-.656-1.273z" transform="matrix(.95 0 0 .95 .15 .9)"/></g></g><g id="Left_Shoe_Lines"><g id="ID0.5589553508907557" fill="#010101"><path id="ID0.23305168049409986" d="M8.468 185.862c.035-.061-.451-.266-.525-.146-1.577 2.6-1.231 7.76 2.263 8.537 5.461 1.219 9.446 6.348 15.237 4.764 2.102-.576 12.791-4.502 8.557-8.145-.654-.562-1.686-.75-2.5-.816-3.693-.299-5.266-2.963-8.225-4.299-.114-.047-.612-.084-.299.061 2.86 1.291 4.289 3.832 7.443 4.33 9.805 1.549-1.984 8.055-5.41 8.674-3.631.656-8.828-3.014-12.484-4.164-2.696-.846-4.864-1.832-4.832-5.107.012-1.349.062-2.517.775-3.689z" transform="matrix(.95 0 0 .95 .15 .9)"/><path id="ID0.32446596631780267" d="M14.5 193.509c.254-.004-.236-.205-.341-.203-2.536.045-4.746-1.564-6.392-3.309-.084-.09-.578-.156-.477-.049 1.844 1.953 4.42 3.612 7.21 3.561z" transform="matrix(.95 0 0 .95 .15 .9)"/><path id="ID0.22177046863362193" d="M30.955 190.071c-.305-.074-.348.074-.04.148 2.134.52-2.454 4.062-2.804 4.207-1.311.545-2.697 1.047-4.11 1.262-2.129.516-4.116.016-5.967-1.506a33.894 33.894 0 0 0-.472-1.955c-.026-.158-.53-.188-.522-.143.345 1.943.86 2.889 2.781 3.566 2.047.723 4.266.439 6.31-.174 2.076-.623 4.686-1.455 5.525-3.695.38-1.016.287-1.469-.701-1.71z" transform="matrix(.95 0 0 .95 .15 .9)"/><path id="ID0.3993028518743813" d="M11.364 188.81c-.117-.059-.61-.1-.302.057 1.142.576 2.238 1.223 3.345 1.859.812.469 1.812.869 2.532 1.467.097.078.58.135.476.047-.875-.725-2.021-1.174-3-1.744a59.584 59.584 0 0 0-3.051-1.686z" transform="matrix(.95 0 0 .95 .15 .9)"/><path id="ID0.7009192113764584" d="M10.255 189.778c-.09-.051-.617-.117-.396.006 1.512.838 2.979 1.752 4.443 2.678.086.057.613.131.396-.006-1.46-.924-2.927-1.84-4.443-2.678z" transform="matrix(.95 0 0 .95 .15 .9)"/><path id="ID0.9466923717409372" d="M9.767 189.794c.064.129.547.16.516.096-.451-.879-.773-2.352-.148-3.223.036-.047-.435-.264-.523-.141-.628.875-.3 2.379.155 3.268z" transform="matrix(.95 0 0 .95 .15 .9)"/><path id="ID0.7554976916871965" d="M14.259 193.372c.004.145.526.211.523.141-.01-.312-.043-.631.025-.943.025-.117-.502-.246-.523-.143-.068.31-.034.629-.025.945z" transform="matrix(.95 0 0 .95 .15 .9)"/><path id="ID0.30537131475284696" d="M10.968 188.796c.043.129.547.186.514.1-.156-.48-.115-.922.057-1.387.038-.092-.479-.256-.521-.141-.181.481-.21.945-.05 1.428z" transform="matrix(.95 0 0 .95 .15 .9)"/></g></g></g><g id="Pants"><path id="Pants_2_" fill="#244764" d="M23.046 175.97c.078.018.154-.008.234.014.017.758.367 1.145.607 1.791.271.734.106 1.586.221 2.391.107.75.498 1.441.619 2.188.113.691.666 1.088.851 1.725.347 1.193-2.479 1.35-3.438 1.787-1.531.697-3.088 1.605-4.625 2.25-1.291.539-2.422 1.359-3.664.756-1.623-.783-1.457-.66-3.195-1.902-1.867-1.01-2.369-.855-3.301-2.459-.502-.865-.351-1.412-.267-2.365.122-1.357.286-2.557.56-3.857.254-1.195.639-1.959 1.061-3.146.418-1.178.652-2.812.523-4.18-.123-1.293-.455-2.398-.508-3.752-.103-2.623.547-5.244.701-7.781.165-2.727.164-5.463.561-8.123.203-1.348.486-2.527.669-3.906.178-1.367.465-2.58.61-4.135.055-.611-.149-1.211-.013-1.869.147-.717.606-1.242 1.037-1.764.929-1.129.938-2.404.938-3.805 0-1.559-.082-3.035-.213-4.605-.145-1.758-.218-3.656-.498-5.547-.397-2.656-.69-4.777-.461-7.502.703-.154-.619-1.984-.068-1.799.488.162-.189-1.141-.043-1.637.25-.859-.527-1.232-.021-3.35.113-.482-.486-3.006.064-2.977-.113.34.207-1.764.207-2.117 0-1.686.246-3.416.576-3.238.523.01 5.08 1.959 5.057 1.938 1.086-.09 2.283.148 3.371.039 1.629-.168 1.727-.209 3.275-.637 3.4-.938 11.203-7.435 14.434-8.251.824-.209 1.611 14.533-.256 18.89-.305.717-.271 1.982-.396 2.629-.169.867-.285 1.85-.326 2.719-.074 1.551.071 3.15-.091 4.666-.176 1.664-.487 3.088-.319 4.705.146 1.4-.25 2.793-.248 4.195.002 1.377-.264 2.844-.26 4.232.014 5.467-1.078 10.834-.81 16.227.065 1.305.372 2.701.247 3.969-.131 1.324-.863 2.486-1.252 3.766-.393 1.301-.258 2.574.205 3.799.398 1.049 1.609 2.277 1.33 3.502-.229.99-1.699 1.471-2.504 2.053-1.141.83-3.056 1.812-4.299 2.434-2.345 1.172-3.923 2.221-6.642 2.24" transform="matrix(.95 0 0 .95 .15 .9)"/><g id="Pants_Lines_2_"><g id="ID0.4155438197776675" fill="#010101"><path id="ID0.21040254598483443" d="M34.159 109.017c.308-.105-.111-.395-.31-.326-.893.307-1.922.527-2.613 1.219-1.147 1.15-1.598 2.936-2.053 4.438-.066.217.457.361.523.143.422-1.396.836-3.18 1.904-4.25.694-.699 1.646-.916 2.549-1.224z" transform="matrix(.95 0 0 .95 .15 .9)"/><path id="ID0.7107321028597653" d="M31.65 110.399c.018-.232-.508-.354-.524-.141-.403 5.311-1.177 11.09-2.817 16.172-1.129 3.494-3.418 7.555-3.418 11.275 0 .209.529.305.529.051 0-4.326 2.952-8.58 3.848-12.758 1.03-4.817 2.007-9.681 2.382-14.599z" transform="matrix(.95 0 0 .95 .15 .9)"/><path id="ID0.5298327566124499" d="M13.032 103.128c.063-.219-.464-.359-.519-.139-1.895 6.73-.861 14.705-.34 21.561.26 3.445.73 6.896.773 10.35.029 2.42-.008 3.318-1.344 5.252-.119.23-.219.469-.295.717-.107 2.174-.676 4.207-.812 6.361-.018.234.509.354.523.141.149-2.363.354-5.971 1.699-7.912.528-.768.784-1.965.774-2.879-.047-3.68-.442-7.312-.72-10.973-.543-7.167-1.711-15.471.261-22.479z" transform="matrix(.95 0 0 .95 .15 .9)"/><path id="ID0.9860925432294607" d="M26.709 132.384c-.01-.211-.541-.303-.528-.055.133 2.793 1.332 5.572.875 8.385-.328 2.016-.847 3.967-.875 6.018-.004.209.524.307.528.051.038-2.652 1.226-5.285.955-7.938-.221-2.176-.85-4.274-.955-6.461z" transform="matrix(.95 0 0 .95 .15 .9)"/><path id="ID0.6904278523288667" d="M39.435 95.845c-.021-.213-.555-.299-.529-.053.453 4.419 1.174 8.957.693 13.406-.447 4.117-1.769 8.018-1.953 12.174-.008.207.518.305.529.051.209-4.693 1.984-9.078 2.041-13.775.049-3.977-.377-7.854-.781-11.803z" transform="matrix(.95 0 0 .95 .15 .9)"/><path id="ID0.6602921220473945" d="M37.134 158.138c.09-.193-.429-.352-.525-.141-1.098 2.398-1.523 5.471-3.271 7.492-1.845 2.137-3.29 2.969-6.229 3.102-.356.018-.041.357.191.348 2.842-.127 4.428-.805 6.254-2.918 1.92-2.223 2.369-5.237 3.58-7.883z" transform="matrix(.95 0 0 .95 .15 .9)"/><path id="ID0.765230895485729" d="M36.607 158.55c.048.209.582.285.529.045-1.609-7.113-.225-15.992.359-23.189.422-5.197.533-10.357.746-15.566.009-.207-.518-.307-.529-.051a764.626 764.626 0 0 1-1.042 19.326c-.413 6.259-1.454 13.279-.063 19.435z" transform="matrix(.95 0 0 .95 .15 .9)"/><path id="ID0.21591732883825898" d="M35.08 163.61c-.048-.209-.583-.285-.529-.051.233 1.012.338 2.361.957 3.234.545.768 1.749 2.043.645 3.105-.705.674-1.465 1.127-2.315 1.57-3.464 1.822-6.58 4.281-10.639 4.471-.36.018-.043.359.188.35 2.062-.096 3.959-.662 5.771-1.654 2.092-1.143 4.447-2.234 6.385-3.617.79-.568 2.044-1.562 1.452-2.717-.827-1.609-1.502-2.894-1.915-4.691z" transform="matrix(.95 0 0 .95 .15 .9)"/><path id="ID0.04007707303389907" d="M10.638 177.968c.025.213.562.295.524.051-.769-5.809-2.636-10.52-1.754-16.547.69-4.709.418-9.695 1.586-14.34.058-.223-.468-.361-.522-.143-1.256 4.998-1.514 10.92-1.896 16.053-.391 5.24 1.388 9.836 2.062 14.926z" transform="matrix(.95 0 0 .95 .15 .9)"/><path id="ID0.05291978782042861" d="M25.839 184.104c-.025-.213-.559-.297-.527-.051.113.934-4.287 2.008-5.021 2.361-.996.479-1.949 1.002-2.924 1.523-2.332 1.252-3.961.477-6.139-.873-2.477-1.537-4.398-3.225-3.773-6.523.229-1.197.465-2.412.875-3.561.672-1.885 1.32-3.598 1.342-5.605.002-.209-.525-.307-.529-.051-.043 4.135-3.599 8.508-2.074 12.705.677 1.855 2.141 2.201 3.822 3.24.955.592 2.109 1.547 3.234 1.85 2.836.76 5.948-2.469 8.521-3.209.929-.268 3.361-.421 3.193-1.806z" transform="matrix(.95 0 0 .95 .15 .9)"/><path id="ID0.024109832476824522" d="M26.591 146.587c-.005-.209-.533-.305-.529-.053.05 3.186.535 6.645-.139 9.779-.453 2.109-1.443 3.771-2.121 5.773-.533 1.584-.804 2.791-.216 4.396 1.826 4.994-.12 5.043-1.836 8.146-.123.225.38.404.481.223 1.045-1.893 2.5-2.996 2.771-5.211.304-2.469-1.909-4.779-.676-7.408 2.496-5.311 2.353-9.907 2.265-15.645z" transform="matrix(.95 0 0 .95 .15 .9)"/><path id="ID0.12331758998334408" d="M21.335 172.313c.028-.232-.5-.357-.525-.141-.242 2.047 1.598 2.627 2.369 4.273 1.17 2.482.959 5.355 2.146 7.9.087.189.615.219.496-.039-1.121-2.402-1.225-4.855-1.901-7.373-.491-1.836-2.844-2.407-2.585-4.62z" transform="matrix(.95 0 0 .95 .15 .9)"/></g></g></g><g id="Face"><path id="Face_1_" fill="#D8AD8C" d="M30.687 12.965c-.129.15.285-.012.349.184.215.662.45.6.655 1.25.209.659-.144 1.614.132 2.281.295.715-.229 1.689.106 2.382.075.157.152.397.301.501.115.079.393.585.474.646.19.147.257.12.315.357.328 1.33.356 2.66.436 4.061.038.698.193 1.382.137 2.085-.031.387.045.735.01 1.122-.045.539-.285 1.025-.394 1.546-.175.843-.246 1.641-.556 2.472-.119.318-.334.607-.418.934-.057.22.023.269-.1.505-.061.117-.14.22-.223.305-1.041 1.075-2.834 1.67-4.244 1.897-.708.115-1.55.217-2.23.179-.274-.014-.601.097-.851.055-.38-.06.007.729-.095 1.097-.164.594.464 1.425.85 1.732.469.372.541.828 1.036 1.18.304.211.726.892.933 1.197.228.331.543 1.405.815 1.698.483.518.07.341.483.903.459.624.31.503.359 1.311.037.583.484 1.534-.043 2.024-.258.243-.341.722-.494 1.025-.223.435-1.218 1.436-1.722 1.538-.851.172-2.614.52-3.315-.142-.25-.236-2.397-2.039-2.646-2.28-1.087-1.066-.712-1.004-1.69-2.376-.473-.663-.91-1.497-1.568-1.988-.635-.471-.336-1.02-1.012-1.408-.711-.408-.104-.527-.814-.965-.285-.176-.42-.769-.738-.891-.299-.111-.248-.501-.619-1.112.088-.526 1.129-2.198 1.121-3.12-.014-1.334-.438-2.072-.494-3.418-.028-.688-.399-.991-.502-1.68-.047-.312-.27-.353-.379-.659-.105-.278-.053-.496-.258-.679-.078-.139-.447-2.365-.896-1.698-.696 1.038-1.373 1.116-1.812.818-.516-.351-.729-.129-1.25-.494-.614-.432-.942-.71-1.353-1.306-.416-.603-.84-1.098-1.129-1.817-.375-.932-.239-2.479.457-2.787.634-.282 1.566-.468 2.195-.304.608.159 1.17.68 1.682 1.025 1.063.716 1.138 1.328 1.384 1.584-.062-.381.733.504 1.032.735.498.421.605.718.875 1.346.14.325.117-.074.185.256.065.316-.188-.898-.065-.594-.098-1 .166.594.062-.426-.049-.481.033-.735-.145-1.21-.219-.594-.047.123-.285-.471.188.287-.936-2.658-.438-1.942.348.493-.908-2.384-.795-1.799-.031-.473 2.203 3.679 2.078 3.199-.111-.423-.07-1.542-.227-1.959-.49-1.308-.24-1.456-.801-2.736-.269-.607-.591-1.474-.753-2.096-.135-.518-.272-1.122-.51-1.937-.134-.239-.543-2.262-.071-1.831.452.416 1.471 2.546 2.036 2.781 1.351.563 1.683 1.054 3.132 1.155-.465-.104 1.76.295 1.432.063-.359-.255-1.227-.59-1.533-.913-.293-.31-.572-.417-.9-.704-.428-.371-.303-.365-.66-.857-.211-.369-1.008-1.927-.543-1.427.553.599 2.073 1.322 2.887 1.63.787.298 1.75.316 2.445.272.821-.052 2.01.003 2.911-.146.765-.128 1.488-.072 2.171-.366 1.002-.032.534-.014.521-.032l.764-.165c1.149-.436.896-.061 2.044-.415" transform="matrix(.95 0 0 .95 .15 .9)"/><g id="Face_Lines"><g id="ID0.5847395132295787" fill="#010101"><path id="ID0.36607834277674556" d="M9.122 25.469c-.104-.123-.629-.168-.483.002.463.555 1.17.874 1.901.796.416-.044.752-.191 1.131-.354.332-.144 1.007-.514.961.119-.016.192.511.3.523.141.043-.581-.328-.819-.882-.808-1.127.022-2.112 1.346-3.151.104z" transform="matrix(.95 0 0 .95 .15 .9)"/><path id="ID0.9774431996047497" d="M13.304 26.61c.047-.172-.476-.314-.523-.141-.809 2.904-3.676.158-4.592-1.199-.43-.641-1.055-1.431-.908-2.251.213-1.21.843-1.86 2.154-1.801.354.016-.023-.274-.209-.283-1.541-.068-2.351.73-2.502 2.257-.098.983 1.113 2.339 1.684 3.01 1.199 1.413 4.156 3.076 4.896.408z" transform="matrix(.95 0 0 .95 .15 .9)"/><path id="ID0.5416430425830185" d="M11.718 24.038c.16.084.633.022.318-.141-.932-.481-1.855-1.613-3.008-1.528-.76.057-1.645.418-1.443 1.33.039.17.564.255.523.07-.17-.77.82-1.39 1.52-1.062.752.351 1.352.949 2.09 1.331z" transform="matrix(.95 0 0 .95 .15 .9)"/><path id="ID0.41236252849921584" d="M12.913 23.841c.097.13.623.183.485-.001-1.123-1.53-3.034-3.482-5.118-2.681-.209.08.271.302.42.244 1.718-.66 3.304 1.201 4.213 2.438z" transform="matrix(.95 0 0 .95 .15 .9)"/><path id="ID0.6560165639966726" d="M32.306 20.208c.082.14.607.203.486-.002-.516-.879-.535-2.357-.643-3.347-.146-1.347-.014-2.504-.803-3.714-.088-.136-.613-.194-.486.002 1.344 2.061.202 4.944 1.446 7.061z" transform="matrix(.95 0 0 .95 .15 .9)"/><path id="ID0.3196215317584574" d="M13.339 26.863c-.051-.169-.574-.244-.525-.071 1.933 6.481 10.056 10.795 16.602 8.475.208-.073-.27-.298-.42-.244-6.289 2.228-13.832-2.031-15.657-8.16z" transform="matrix(.95 0 0 .95 .15 .9)"/><path id="ID0.4138333359733224" d="M28.368 16.921c.118-.162-.39-.337-.488-.201-.97 1.331-.842 4.716.558 5.754.125.093.652.101.418-.074-1.294-.958-1.38-4.254-.488-5.479z" transform="matrix(.95 0 0 .95 .15 .9)"/><path id="ID0.6931495200842619" d="M29.191 26.498c-.127.145.375.331.488.202.53-.605 1.43-.594 1.27-1.637-.145-.944-1.055-1.465-1.766-1.977-.125-.091-.654-.097-.418.074.711.511 1.844 1.132 1.64 2.176-.123.634-.814.706-1.214 1.162z" transform="matrix(.95 0 0 .95 .15 .9)"/><path id="ID0.7708320207893848" d="M26.869 25.663c.117-.162-.391-.337-.488-.201-.447.617-.24 1.393.52 1.614.336.099.783.139 1.102-.035.333-.183.643-.427 1.001-.56.208-.077-.271-.301-.42-.244-.405.15-.776.572-1.21.622-.777.086-.859-.708-.505-1.196z" transform="matrix(.95 0 0 .95 .15 .9)"/><path id="ID0.10616219183430076" d="M24.855 35.793c.056-.164-.465-.314-.523-.141-.391 1.159.277 2.357 1.005 3.229.103.123.63.168.486-.002-.699-.837-1.341-1.972-.968-3.086z" transform="matrix(.95 0 0 .95 .15 .9)"/><path id="ID0.9261908582411706" d="M32.877 28.707c-.046.173.479.314.522.14.468-1.778.522-3.783.41-5.611-.062-.997-.037-2.786-1.229-3.151-.312-.096-.373.15-.064.244 1.014.311.809 3.635.791 4.321-.034 1.348-.085 2.746-.43 4.057z" transform="matrix(.95 0 0 .95 .15 .9)"/><path id="ID0.5998756154440343" d="M28.863 35.025c-.205.06.268.289.419.244 1.034-.305 2.448-.833 3.038-1.804.107-.177-.404-.34-.488-.201-.581.955-1.948 1.459-2.969 1.761z" transform="matrix(.95 0 0 .95 .15 .9)"/><path id="ID0.2880496885627508" d="M13.868 38.167c-.134.13.36.324.485.2 2.064-2.048 1.062-6.049.293-8.398-.053-.168-.58-.24-.522-.07.755 2.311 1.774 6.252-.256 8.268z" transform="matrix(.95 0 0 .95 .15 .9)"/><path id="ID0.5999437849968672" d="M31.945 33.217c-.065.15.449.314.523.141.268-.617.521-1.258.545-1.937.008-.194-.52-.295-.524-.141-.026.679-.278 1.322-.544 1.937z" transform="matrix(.95 0 0 .95 .15 .9)"/></g></g></g><g id="Shirt"><path id="Shirt_2_" fill="#555D7B" d="M14.113 38.271c.609.86.609.86 1.174 1.537.738.88 1.299 1.579 1.762 2.644.512 1.179 2.432 2.382 2.906 3.574.449 1.132 1.768 1.981 2.744 2.735 1.257.97 1.004.799 2.722.97 1.619.159 2.983-1.701 3.536-3.263.506-1.431.124-1.202-.408-2.468-.23-.546-.839-2.567-1.227-3.067-.799-1.033-1.248-1.262-1.528-2.31 1.38.472 4.58 1.451 5.546 2.218 1.994 1.581 4.167 2.464 4.471 5.185.151 1.342 1.566 3.525 2.133 4.291.789 1.067 1.475 1.244 1.85 1.987.602 1.191-.229 4.905-.123 5.965.115 1.147.118 2.031-.469 3.305-.484 1.052-1.671 1.891-2.645 2.447-.564.32-1.783.77-2.752.604-.576-.1-.451.438-.416 1.377.06 1.542-.254 2.662.207 3.777.553 1.342.58 2.584.81 4.004.112.69.086 1.357.282 2.037.23.802.636 1.446.84 2.179.18.647.105 1.251.334 1.862.238.64.623 1.23.91 1.86.58 1.271 1.392 2.209 1.793 3.571.195.667.527 1.262.42 2.015-.088.622-.543 1.214-.588 1.845-.101 1.379.746 2.486 1.084 3.604.228.749.373 1.393.246 2.062-.181.938-.285.967-1.164 1.522-1.26.795-2.594 1.363-3.806 2.214-1.312.926-2.815 1.77-4.194 2.572-1.289.746-2.34 1.633-3.657 2.344-1.06.57-2.847 1.248-4.015 1.396-2.804.357-5.726.186-8.144-.98-1.388-.666-3.2-.438-2.224-1.799.941-1.312-1.777-6.369-2.104-7.75-.682-2.883-1.461-3.717-2.02-7.281-.41-2.651-.549-2.317-.742-5.407-.09-1.373-.674-4.272-.389-5.713.271-1.377-.123-3.356-.834-5.289-1.242-3.38-.072-.66-.717-3.004-.834-.398-1.064-.496-2.062-.884-.506-.194 0-1.252 0-2.377 0-1.303 0-1.622-.154-2.803-.113-.859-.184-.997-.023-1.843.117-.621-.455-2.023-.223-2.697.217-.623-.322-1.229-.406-1.935-.151-1.311-1.353-3.435-1.233-4.812.235-2.726-.089-2.082 1.026-4.5.594-1.288 2.043-2.901 3.104-3.904 1.142-1.075 2.347-1.656 3.604-2.362 2.244-1.259.871-.601 3.312-1.274" transform="matrix(.95 0 0 .95 .15 .9)"/><g id="Shirt_Lines_2_"><g id="ID0.7054122132249177" fill="#010101"><path id="ID0.04322133073583245" d="M14.282 38.374c.257-.004-.231-.215-.341-.212-4.801.082-10.051 4.018-12.029 8.376-.907 1.992-.729 4.147-.055 6.203 1.527 4.667 1.17 9.153 1.537 13.95.011.156.531.213.524.141-.256-3.324.285-6.922-.476-10.183-.573-2.472-1.905-5.213-1.653-7.806.513-5.256 7.547-10.384 12.493-10.469z" transform="matrix(.95 0 0 .95 .15 .9)"/><path id="ID0.8909908910281956" d="M25.33 38.382c-.199-.064-.539.003-.182.117 2.867.919 6.504 1.881 8.58 4.219 1.773 2 1.856 4.65 3.371 6.773.771 1.081 1.75 1.974 2.6 2.994.078.096.581.168.475.041-1.644-1.976-3.119-3.53-3.967-6.036-.695-2.059-1.5-3.517-3.333-4.729-2.381-1.573-4.818-2.506-7.544-3.379z" transform="matrix(.95 0 0 .95 .15 .9)"/><path id="ID0.7282259715721011" d="M39.806 61.163c.043-.083-.459-.27-.524-.141-.869 1.715-3.661 3.932-5.693 3.613-.368-.059-.112.16.099.193 2.27.355 5.128-1.712 6.118-3.665z" transform="matrix(.95 0 0 .95 .15 .9)"/><path id="ID0.7448925022035837" d="M34.583 73.347c-.02-.126-.537-.218-.518-.094.553 3.512 1.5 6.481 3.242 9.601 2.31 4.137.672 6.273-1.426 9.91-.043.074.449.271.524.141 2.208-3.826 3.677-5.807 1.419-9.957-1.711-3.151-2.686-6.073-3.241-9.601z" transform="matrix(.95 0 0 .95 .15 .9)"/><path id="ID0.6100088409148157" d="M19.791 63.536c.041-.092-.468-.266-.523-.139-2.416 5.535-10.932 5.322-15.461 3.328-.123-.054-.619-.072-.303.068 4.779 2.102 13.722 2.625 16.287-3.257z" transform="matrix(.95 0 0 .95 .15 .9)"/><path id="ID0.7704726946540177" d="M19.21 63.347c.078.097.578.17.473.042-1.756-2.162-4.439-6.529-2.529-9.224.041-.058-.432-.27-.523-.141-1.942 2.741.82 7.158 2.579 9.323z" transform="matrix(.95 0 0 .95 .15 .9)"/><path id="ID0.7805127152241766" d="M25.816 38.901c-.088-.089-.584-.152-.473-.041 1.334 1.336 2.618 3.201 3.182 5.046.627 2.052.076 5.299-2.575 5.636-3.515.446-5.513-3.278-7.244-5.593-1.422-1.897-2.905-3.745-4.336-5.635-.097-.124-.556-.14-.521-.094 2.231 2.946 4.332 6.524 6.978 9.099 1.261 1.228 2.507 2.281 4.276 2.503 2.129.268 4.244-1.503 4.262-3.708.021-2.676-1.707-5.368-3.549-7.213z" transform="matrix(.95 0 0 .95 .15 .9)"/><path id="ID0.7762935534119606" d="M38.621 89.161c0-.149-.525-.223-.525-.141.004 2.234 2.774 5.096.703 6.985-.08.074.393.272.495.178 2.124-1.937-.669-4.764-.673-7.022z" transform="matrix(.95 0 0 .95 .15 .9)"/><path id="ID0.987479719799012" d="M22.498 102.356c.262-.006-.23-.217-.337-.213-5.354.105-9.328-5.092-11.916-9.137-.082-.129-.556-.152-.519-.094 2.83 4.427 7.018 9.558 12.772 9.444z" transform="matrix(.95 0 0 .95 .15 .9)"/><path id="ID0.9213130888529122" d="M39.417 95.909c.071-.045-.369-.258-.496-.178-7.885 5.051-16.605 12.651-26.527 6.991-.092-.055-.625-.113-.399.014 10.227 5.835 18.725-1.257 27.422-6.827z" transform="matrix(.95 0 0 .95 .15 .9)"/><path id="ID0.2212864337489009" d="M5.681 67.69c-.06-.134-.557-.18-.517-.096 2.31 5.387 1.59 11.107 2.381 16.739.438 3.116 1.339 6.983 2.584 9.877.945 2.188 3.203 6.095 1.716 8.371-.041.064.438.271.522.141 1.358-2.074-.312-5.148-1.179-7.159-1.453-3.369-2.957-7.929-3.159-11.6-.297-5.406-.178-11.21-2.348-16.273z" transform="matrix(.95 0 0 .95 .15 .9)"/><path id="ID0.09911620896309614" d="M34.601 50.875c-.012-.155-.53-.215-.524-.141.394 5.754-1.5 11.592-.856 17.261.018.159.532.206.524.141-.644-5.668 1.249-11.507.856-17.261z" transform="matrix(.95 0 0 .95 .15 .9)"/></g></g></g><g id="Right_Arm"><path id="Right_Arm_Color" fill="#D8AD8C" d="M32.138 35.562c-.213.538-.363 1.715.037 2.043.363.301-1.14.518-.89.955.371.647-.011.392.382.807.15.16.45.16.471.363.023.234.666.595.728.825.167.636.286.825.83 1.224.733.542.886 1.404 1.522 2.039.368.369.94.481 1.241.916.239.348 1.906 1.022 2.236 1.288.784.633 0 1.225.522 1.717.719 1.945.961 2.809.848 4.963-.08 1.526-.332 3.375-.332 4.911 0 .473-.076 1.039-.143 1.498-.055.389.012.629.055 1.019.09.838-.467 1.608-.951 2.124-.475.507-1.073 1.089-1.676 1.479-.572.366-1.147.689-1.828.815-.243.044-1.123.075-1.305.224-.218.176.381.416.49.637.299.599.648 1.211 1.073 1.773.216.287.43.453.792.432.406-.021.406-.187.667-.451.491-.498 1.554-.965 2.123-1.364.593-.416 1.122-.49 1.548-.908.262-.257.477-.375.777-.353.391.029.813.168 1.217.238.85.148 1.689.312 2.578.269.345-.019.846-.228.861.272.006.172-.307.623-.442.734-.472.389-1.317.369-1.913.396-.324.016-.73.02-1.042.137-.406.152-.613.371-.125.417 1.25.12 2.812-.574 3.838-1.233.59-.377.937-.593 1.224-1.219.26-.568.555-1.209.666-1.809.273-1.459-.115-3.217-.398-4.625-.409-2.021-1.037-3.722-1.645-5.729-.273-.897-.64-1.786-.979-2.64-.4-1.003-.337-.966-.724-1.964-.18-.461-.435-1.021-.588-1.489-.148-.457-.869-1.653-1.023-2.103-.311-.903-.047-2.447-.309-3.377-.262-.93-.453-1.708-.959-2.546-.582-.965-.832-2.51-1.752-3.12-.894-.589-1.875-2.365-2.764-2.962-.682-.456-3.672-3.516-4.618-3.649-.56.437-.7.561-.603 1.391.043.378 1.871 2.041 1.605 2.259-.232.191-1.656 1.786-1.775 2.071" transform="matrix(.95 0 0 .95 .15 .9)"/><g id="Right_Arm_Lines"><g id="ID0.648610710632056" fill="#010101"><path id="ID0.29767346335574985" d="M32.573 28.671c.239-.07-.052-.322-.226-.271-1.899.56-.104 2.748.793 3.422.16.12.478-.026.264-.186-.733-.55-2.442-2.49-.831-2.965z" transform="matrix(.95 0 0 .95 .15 .9)"/><path id="ID0.22740556625649333" d="M36.216 35.109c.115.142.489.073.33-.121-.963-1.173-2.191-2.104-3.109-3.319-.11-.148-.482-.08-.33.121.916 1.215 2.145 2.147 3.109 3.319z" transform="matrix(.95 0 0 .95 .15 .9)"/><path id="ID0.7338390341028571" d="M31.978 35.23c-.031.192.363.293.394.105.144-.893 1.128-1.993 1.997-2.23.238-.066-.053-.318-.227-.271-.945.258-2.008 1.426-2.164 2.396z" transform="matrix(.95 0 0 .95 .15 .9)"/><path id="ID0.6978229340165854" d="M35.634 37.061c.129.127.508.052.332-.121-.943-.93-2.216-1.436-3.092-2.439-.121-.138-.496-.067-.331.121.88 1.005 2.15 1.507 3.091 2.439z" transform="matrix(.95 0 0 .95 .15 .9)"/><path id="ID0.8898559394292533" d="M31.982 35.3c.207.082.428-.139.178-.24-1.096-.443 1.016-2.497 1.455-2.76.193-.115-.15-.322-.303-.23-.682.405-2.828 2.625-1.33 3.23z" transform="matrix(.95 0 0 .95 .15 .9)"/><path id="ID0.2429049531929195" d="M38.562 46.114c.158.124.475-.02.263-.188-.649-.509-1.298-.773-2.019-1.155-1.299-.688-2.166-1.729-2.901-2.98-.546-.928-3.234-3.098-1.839-3.902.193-.111-.149-.319-.303-.23-1.888 1.086.692 2.506 1.264 3.378.738 1.125 1.312 2.328 2.394 3.185.977.778 2.157 1.121 3.141 1.892z" transform="matrix(.95 0 0 .95 .15 .9)"/><path id="ID0.5656414902769029" d="M38.882 45.998c-.057-.171-.451-.17-.377.049 1.152 3.388 1.586 6.684 1.176 10.255-.3 2.607-.496 4.964.256 7.508.052.174.443.174.377-.049-1.088-3.689.143-7.171-.045-10.893-.117-2.358-.627-4.639-1.387-6.87z" transform="matrix(.95 0 0 .95 .15 .9)"/><path id="ID0.821934178005904" d="M42.763 42.966c-.049-.176-.453-.22-.399-.028 1.804 6.562 8.176 15.231 4.76 22.104-.095.19.278.337.358.176 3.435-6.91-2.901-15.638-4.719-22.252z" transform="matrix(.95 0 0 .95 .15 .9)"/><path id="ID0.5435489602386951" d="M35.855 67.704c.123.136.5.064.332-.122-.785-.868-1.561-1.741-2.049-2.818-.074-.163-.473-.159-.377.05.5 1.102 1.291 1.999 2.094 2.89z" transform="matrix(.95 0 0 .95 .15 .9)"/><path id="ID0.9326082416810095" d="M32.618 28.362c-.165-.104-.488.043-.263.187 2.565 1.628 4.894 3.79 6.852 6.105.984 1.165 1.958 2.382 2.48 3.84.619 1.73.496 3.285.767 5.023.028.181.431.231.399.027-.28-1.8-.016-3.366-.789-5.1a14.76 14.76 0 0 0-2.527-3.912c-2.048-2.301-4.309-4.513-6.919-6.17z" transform="matrix(.95 0 0 .95 .15 .9)"/><path id="ID0.1306577129289508" d="M31.986 37.629c.09.153.49.145.378-.049-.347-.59-.136-1.504.008-2.131.043-.189-.351-.293-.394-.105-.156.675-.364 1.652.008 2.285z" transform="matrix(.95 0 0 .95 .15 .9)"/><path id="ID0.743031611200422" d="M32.226 37.523c-.201-.102-.416.119-.176.241a11.88 11.88 0 0 1 2.399 1.568c.153.13.467-.013.263-.186-.767-.655-1.587-1.167-2.486-1.623z" transform="matrix(.95 0 0 .95 .15 .9)"/></g></g></g><g id="Left_Arm"><path id="Left_Arm_Color_2_" fill="#D8AD8C" d="M6.234 67.666c-.041.315.143.596.279.858.194.377.244.656.264 1.09.029.699.537 1.442.742 2.103.25.812.385 1.483.707 2.28.135.339.438.683.588 1.005.222.465.324.909.578 1.36.217.383.431.804.678 1.178.222.33.517.57.746.9.517.739.957 1.616 1.541 2.303.478.562 1.104 1.195 1.709 1.64.781.575 1.367.538 2.312.353 2.021-.395 3.867-1.229 5.75-2.071 3.522-1.578 6.603-3.827 9.771-5.979.824-.559 1.701-1.062 2.557-1.572.729-.434 1.322-.854 2.165-.78.883.079 1.667.327 2.537.543 1.034.254 2.071.302 3.123.464 1.407.218 4.229.059 5.024-1.4.469-.859.846-1.457 1.361-2.314.301-.501.891-1.432.982-2.014.078-.485-.157-.364-.17-.851-.016-.66-.213-.935-.565-1.554-.2-.354-.192-.907-.644-.971-.78-.11-.955 1.012-1.373 1.383-.27.24-.664.324-.937.566-.166.148-.282-.119-.476-.021-.215.108-.518.485-.76.506-.728.073-1.567.462-2.304.354.204-1 1.397-.47 2.077-.443.395.014.723-.121.986-.417.184-.21.642-.769.508-1.078-.12-.274-.568-.072-.915-.091-.468-.024-.933-.131-1.394-.17-.77-.068-1.668-.316-2.44-.272-.369.021-.556.249-.87.522-.586.512-1.361.58-1.986 1.019-.55.384-1.088.81-1.625 1.226-.617.477-1.457.449-2.228.609-.976.204-1.981.366-2.979.462-1.371.134-2.604.541-3.951.808-1.142.224-2.287.461-3.393.812-.999.316-2.105.428-3.124.781-.545.188-1.479.631-2.017.824-.486.175-.33-.139-.602-.646-.205-.377-.096-.777-.229-1.174-.143-.425-.307-.791-.42-1.225-.125-.476-.324-.683-.574-1.104-.15-.249-.48-.79-.475-1.062a4.572 4.572 0 0 1-1.031.584c-.739.311-1.434.643-2.186.806-.8.171-1.562.292-2.392.328-.813.036-1.638-.011-2.437-.048-.848-.039-1.641-.441-2.5-.36" transform="matrix(.95 0 0 .95 .15 .9)"/><g id="Left_Arm_Lines_2_"><g id="ID0.732623090967536" fill="#010101"><path id="ID0.362706299405545" d="M41.531 64.479c.111-.086-.362-.291-.491-.191-1.461 1.125-3.267 1.771-4.551 3.125-.11.115.384.303.491.191 1.283-1.354 3.09-2 4.551-3.125z" transform="matrix(.95 0 0 .95 .15 .9)"/><path id="ID0.25667169596999884" d="M42.042 66.895c-.063.094.427.289.524.141.222-.336.531-.473.933-.375.31.076.369-.131.056-.209-.598-.146-1.151-.108-1.513.443z" transform="matrix(.95 0 0 .95 .15 .9)"/><path id="ID0.878867058083415" d="M49.72 68.392c.049-.136-.47-.294-.524-.141a12.764 12.764 0 0 1-1.806 3.271c-.103.135.402.309.491.19.765-1.016 1.401-2.125 1.839-3.32z" transform="matrix(.95 0 0 .95 .15 .9)"/><path id="ID0.5171960722655058" d="M14.392 82.942c.104.092.625.142.41-.047-4.592-4.009-6.541-9.412-8.307-15.07-.046-.152-.566-.225-.521-.08 1.793 5.746 3.773 11.141 8.418 15.197z" transform="matrix(.95 0 0 .95 .15 .9)"/><path id="ID0.4331868104636669" d="M18.476 71.747c.06.15.57.21.521.08-.724-1.795-1.136-3.696-1.834-5.502-.058-.151-.571-.213-.521-.08.697 1.805 1.109 3.707 1.834 5.502z" transform="matrix(.95 0 0 .95 .15 .9)"/><path id="ID0.024119833949953318" d="M37.185 67.625c.279-.046-.196-.269-.332-.247-5.418.892-10.853 1.558-16.061 3.396-2.647.936-5.81 2.08-6.541 5.09-.039.153.488.289.522.142.847-3.472 4.988-4.565 8.004-5.503 4.707-1.464 9.56-2.08 14.408-2.878z" transform="matrix(.95 0 0 .95 .15 .9)"/><path id="ID0.6288441205397248" d="M14.433 82.795c-.276.013.197.253.33.247 8.903-.407 14.537-8.183 22.455-10.804.187-.062-.289-.271-.425-.227-7.887 2.613-13.501 10.378-22.36 10.784z" transform="matrix(.95 0 0 .95 .15 .9)"/><path id="ID0.45783697767183185" d="M43.554 66.431c-.352-.015.053.243.217.25 1.074.046 2.785-.307 2.531-1.715-.022-.119-.279-.161-.369-.165-1.537-.066-3.129-.027-4.619-.455-.31-.088-.364.12-.057.209 1.582.453 3.26.426 4.891.496-.123-.055-.246-.109-.368-.165.224 1.245-1.271 1.584-2.226 1.545z" transform="matrix(.95 0 0 .95 .15 .9)"/><path id="ID0.21428501699119806" d="M42.06 66.907c-.353 0 .051.25.215.248 2.017-.004 3.731-.527 5.266-1.861.111-.096-.37-.296-.49-.191-1.458 1.267-3.062 1.798-4.991 1.804z" transform="matrix(.95 0 0 .95 .15 .9)"/><path id="ID0.6983160772360861" d="M44.265 68.856c-.182.043.287.258.424.227 1.563-.378 2.951-1.694 3.888-2.963.657-.893.872-1.783-.403-2.078-.311-.071-.369.136-.056.209 1.294.299-.177 1.85-.577 2.326-.827.984-2.011 1.972-3.276 2.279z" transform="matrix(.95 0 0 .95 .15 .9)"/><path id="ID0.4162214584648609" d="M45.861 69.925c-.106.072.355.282.492.19 1.106-.739 4.822-3.557 2.744-4.94-.111-.073-.642-.106-.41.047 1.863 1.241-1.83 4.038-2.826 4.703z" transform="matrix(.95 0 0 .95 .15 .9)"/><path id="ID0.3435832681134343" d="M46.88 70.739c-.109.078.358.287.491.191.708-.501 1.31-1.265 1.812-1.961.237-.33.514-.684.651-1.07.153-.431-.101-.863-.103-1.308 0-.176-.525-.262-.524-.142.002.406.269.936.103 1.309-.19.428-.457.818-.744 1.188-.491.633-1.024 1.326-1.686 1.793z" transform="matrix(.95 0 0 .95 .15 .9)"/><path id="ID0.42599560786038637" d="M36.456 72.157c-.31-.07-.37.137-.056.209 3.963.916 8.404 2.412 11.65-.824.111-.11-.38-.301-.49-.191-3.08 3.071-7.352 1.675-11.104.806z" transform="matrix(.95 0 0 .95 .15 .9)"/></g></g></g><g id="Mouth"><path id="Mouth_1_" fill="#F5F6F6" d="M30.997 28.622c.151.295-.122.483-.181.741-.064.278.095.611.045.864-.107.538-.891.613-1.338.707-.59.124-1.094.316-1.695.249-.307-.034-1.33-.253-1.443-.523.715-.278 1.465-.608 2.158-1.029.4-.245.805-.463 1.253-.632.306-.116.886-.353 1.194-.282" transform="matrix(.95 0 0 .95 .15 .9)"/><g id="Mouth_Lines"><g id="ID0.2163526345975697" fill="#010101"><path id="ID0.3192782602272928" d="M31.099 28.596c.301-.062-.146-.326-.319-.29-.91.185-1.705.569-2.458 1.108-.658.47-1.292 1.007-2.122 1.106-.3.035.149.312.319.291.668-.079 1.211-.413 1.748-.8.892-.643 1.737-1.191 2.832-1.415z" transform="matrix(.95 0 0 .95 .15 .9)"/><path id="ID0.5877434951253235" d="M26.039 30.635c.004.18.531.287.525.065l.033-.113-.524-.141c-.028.143-.054.285-.08.428l.524.141c.002-.18.047-.331.094-.503.054-.189-.471-.33-.523-.141-.048.172-.093.323-.095.503-.003.191.485.337.524.141l.08-.428c.037-.198-.445-.319-.524-.141-.039.085-.036.098-.034.189z" transform="matrix(.95 0 0 .95 .15 .9)"/><path id="ID0.07411610335111618" d="M31.203 28.521c.07-.171-.448-.329-.523-.141-.229.557-.109.92-.068 1.5.029.426-.92.717-1.221.835-1.158.457-2.156.053-3.328.017-.354-.011.002.299.201.305.885.028 1.791.421 2.678.213.771-.18 1.451-.56 2.162-.894.043-.02.058-.052.055-.097-.045-.61-.2-1.146.044-1.738z" transform="matrix(.95 0 0 .95 .15 .9)"/></g></g></g><g id="Eyes"><path id="Eye_Whites_2_" fill="#F5F6F6" d="M23.32 21.324c.75.588-1.247 1.745-1.694 1.878-.959.288-2.321.447-3.241-.01-.587-.291-1.16-.802-1.031-1.561.127-.743 1.287-1.064 1.912-1.229 1.424-.377 2.914-.134 4.022.807m4.971-1.502c-.639-.033-.433 1.155-.033 1.292.315.106 1.039-.017 1.373-.11.758-.211 1.4-.895 1.752-1.618.318-.657.611-1.28-.246-1.592-.703-.254-1.299-.029-1.836.412-.336.275-1.359 1.153-1.229 1.621" transform="matrix(.95 0 0 .95 .15 .9)"/><path id="ID0.860699977260083" fill="#33512E" d="M28.89 18.455c.231.646.478 1.754 1.44 1.225.772-.421.506-1.29.313-1.982-.584-.201-1.478.238-1.806.725" transform="matrix(.95 0 0 .95 .15 .9)"/><path id="ID0.5291979033499956" fill="#33512E" d="M20.23 20.332c.229-.072.379.011.625.022.481.02 1.623.08 1.925.489.418.57-.138 1.196-.658 1.408-.481.196-1.119-.015-1.765-.217-.397-.123-.967-1.667-.362-1.497" transform="matrix(.95 0 0 .95 .15 .9)"/><g id="ID0.3189289798028767"><g id="ID0.03485636645928025" fill="#010101"><path id="ID0.3815922709181905" d="M28.091 20.915c-.236-.095-.549.078-.207.215.954.382 2.045-.087 2.809-.678.644-.499 1.723-1.647.977-2.501-1.619-1.856-4.595 1.151-3.943 3.038.061.174.586.244.524.066-.302-.875.14-1.813.752-2.446.453-.469 1.94-1.589 2.312-.419.233.734-.365 1.449-.896 1.887-.552.452-1.574 1.14-2.328.838z" transform="matrix(.95 0 0 .95 .15 .9)"/><path id="ID0.7067580078728497" d="M23.761 21.613c.049-.183-.476-.323-.522-.141-.435 1.654-5.226 2.636-5.435.592-.228-2.24 4.784-2.153 5.604-.694.082.149.608.207.487-.01-.961-1.707-7.254-1.919-6.614.638.594 2.379 5.926 1.741 6.48-.385z" transform="matrix(.95 0 0 .95 .15 .9)"/></g></g><g id="ID0.40079038217663765"><g id="ID0.8423438775353134" fill="#010101"><path id="ID0.526274039875716" d="M20.082 20.505c.04-.161-.355-.264-.393-.105-.604 2.609 3.861 2.818 3.272.338-.036-.152-.437-.21-.396-.041.201.849-.277 1.59-1.195 1.577-.999-.015-1.501-.842-1.288-1.769z" transform="matrix(.95 0 0 .95 .15 .9)"/><path id="ID0.8224131688475609" d="M30.707 17.637c-.077-.126-.477-.147-.37.027.285.461.534 1.284.073 1.729-.337.324-.848.413-1.081-.061-.126-.255-.208-.525-.296-.795-.049-.149-.448-.199-.396-.041.274.837.635 1.706 1.682 1.354.967-.325.815-1.519.388-2.213z" transform="matrix(.95 0 0 .95 .15 .9)"/></g></g></g><g id="Hair"><path id="Hair_1_" fill="#A15927" d="M32.146 19.463c.16-.214.023-1.091-.117-1.545-.178-.609.057-.746.037-1.374-.016-.635-.471-1.653-.438-2.313.048-.976-.597-1.085-1.058-1.085-.047-.003-.836.387-.422-.076-.713.194-1.402.31-1.779.38-.682.13-1.895.391-2.562.519a28.104 28.104 0 0 1-3.656.464c-1.277.077-1.846-.035-3.094-.435-1.256-.403-2.137-1.04-3.102-1.789.236.899.58 1.489 1.117 2.139.307.373.467.711.92.92.393.18 1.406.577 1.672.909-1.176.206-3.184-.255-4.241-.922-1.75-1.1-2.146-2.744-2.354-3.683.102.838.119 2.236.312 3.08.189.818.604 1.909.898 2.734.609 1.712 1.547 4.395 1.172 5.797-.311-.96-1.314-2.705-1.957-3.555-.127 1.071 1.074 1.321 1.414 4.133.146 1.227.338 1.099.271 2.142-.527-1.203-.477-1.006-1.25-1.683-.371-.146-.906-.916-.705-.38.092-.512-.055-.118-.078-.139-.351-.286-.569-.757-.95-1.111-.388-.359-1.287-1.231-1.9-1.422-.319-.1-1.545-.374-2.17-.034-2.543 1.384-.69 4.04.545 5.327.785.821 2.447 1.815 3.211 1.56.685-.227.987-.924 1.306-.769.264.129.156.668.305.965.867 1.721 1.422 3.11 1.631 5.221-.307.271-1.884 2.177-2.229 2.343-.197-.584.191-1.951.24-2.553.053-.68-.3-.217-.525-.891-.574 1.211-1.459 2.837-2.771 3.329.032-.409.564-1.926.723-2.302.244-.582.229-1.135.146-1.7-.155-1.04-.614-.94-1.084-1.979.166 1.023.522 3.391-1.043 4.179.196-1.407-.987-4.22-1.804-5.226-.748-.919-1.008-1.862-1.707-2.836-.61-.856-1.061-1.852-1.832-2.786-.793-.962-1.129-1.664-1.713-2.81a51.712 51.712 0 0 1-.834-1.749c-.276-.614-.321-1.19-.457-1.864-.215-1.095-.397-1.569.017-2.596 1.435-3.548 1.706-3.518 1.935-3.667 1.899-1.248-.274-1.425 2.481-5.367.572-.821 2.012-2.253 3.069-3.003C8.88 1.15 10.503.266 12.042-.203c1.339-.409 2.524-.397 3.896-.59 1.387-.194.947-.018 2.652.05-.01-.003 1.688.455 1.795.215 1.192.001 1.813.423 2.926.691.039.028 1.207.431 1.668.646 1.344.409.396.481 1.66 1.097.906.442 3.223 1.729 4.053 2.175 1.147.746 1.607 1.055 2.383 1.848.799.817 1.822 2.377 2.132 3.417-1.002-.519-2.054-1.573-3.742-.915.929 1.077 1.603.958 2.644 1.543.798.447 2.472 1.362 2.83 2.281-.711.244-2.568.093-3.322.238-.691.134-.906.198-1.54.33.555 1.078 1.194 1.138 1.862 2.119.39.568.703.975.975 1.66.309.778.975 1.515 1.389 2.131-.254-.159-.996-.454-1.273-.601-.409-.218-.555-.373-.979-.587.345.667.419.975.778 1.657.339.647.635 2.229.906 2.914-.241-.258-1.627-1.685-2.116-1.625-.596.073-.994-.463-1.473-1.028" transform="matrix(.95 0 0 .95 .15 .9)"/><g id="Hair_Lines"><g id="ID0.8998978366144001" fill="#010101"><path id="ID0.6456047515384853" d="M13.214 11.199c-.023-.121-.418-.189-.387-.054.766 4.025 3.504 5.08 7.268 5.277.176.009.107-.125-.006-.169-1.783-.553-2.936-1.647-3.457-3.281l.035.023c1.393.797.762.505 2.287 1.052.605.217 2.001.41 2.646.407 5.213-.025 10.199-1.858 15.422-2.098.054-.002.158-.023.102-.099-.331-.44-.511-.768-.984-1.053a18.67 18.67 0 0 0-1.641-.932c-1.65-.603-1.396-.858.76-.765.032.018.37.102.314-.02-2.105-4.563-6.739-7.392-11.577-8.333-.272-.053-.114.159.062.193 2.319.451 5.977 1.963 7.844 3.674-4.535-4.156 5.759 5.011 2.3 3.625-1.392-.557-1.431-.437-2.927-.445-.088-.001-.162.05-.076.124 1.428 1.237 6.643 3.481 2.459 4.051-5.223.712-12.989 3.963-17.604-.267-.041-.039-.41-.128-.353-.005.741 1.612 1.582 2.773 3.034 3.805-3.546-2.522-4.765-.735-5.521-4.71z" transform="matrix(.95 0 0 .95 .15 .9)"/><path id="ID0.8164167273789644" d="M8.4 33.942c-.09.094.285.237.371.146 1.422-1.49 1.494-3.179.641-5l-.377-.03c1.859 1.961 1.859 5.307-.121 7.186-.096.088.273.226.367.146 1.496-1.286 2.98-2.37 3.584-4.33l-.395-.081c.59 1.117.522 2.97-.14 4.052-.063.105.31.178.381.126.968-.703 2.05-1.745 2.675-2.768.051-.085-.322-.225-.394-.105-.615 1.004-1.699 2.038-2.649 2.727l.381.126c.654-1.068.727-2.988.135-4.101-.043-.081-.35-.219-.393-.081-.601 1.946-2.08 3.02-3.558 4.289l.364.146c2.023-1.917 2.014-5.329.117-7.328-.047-.051-.438-.157-.377-.03.839 1.783.792 3.437-.612 4.91z" transform="matrix(.95 0 0 .95 .15 .9)"/><path id="ID0.46109370747581124" d="M13.218 11.337c.004-.139-.392-.212-.396-.105-.096 2.73.992 5.076 1.791 7.626.212.685.447 1.378.566 2.088.071.442.789 2.461-.088.782-.492-.941-1.178-1.791-1.814-2.635-.068-.091-.461-.135-.363-.004.963 1.274 1.83 2.538 2.467 4.013.038.081.396.205.395.081-.079-4.136-2.704-7.687-2.558-11.846z" transform="matrix(.95 0 0 .95 .15 .9)"/><path id="ID0.3620091271586716" d="M32.257 12.824c-.076-.084-.468-.119-.365-.007 1.291 1.409 2.151 2.858 3.158 4.468.354.566.799 1.024 1.174 1.565.41.218.303.124-.324-.281-.549-.395-1.151-.729-1.733-1.075-.034-.019-.366-.105-.315.02.475 1.136.967 2.266 1.408 3.414.18.454.352.91.516 1.369l.445.259a2.544 2.544 0 0 0-.328-.466c-.881-.904-1.711-1.502-2.897-1.94-.168-.062-.409.041-.149.137 1.327.49 2.641 1.306 3.168 2.698.045.117.434.175.393.057a68.078 68.078 0 0 0-1.59-4.105c-.27-.641-.762-1.319.242-.666.558.333 1.078.714 1.563 1.143.058.047.44.127.337-.021-1.541-2.221-2.865-4.561-4.703-6.569z" transform="matrix(.95 0 0 .95 .15 .9)"/><path id="ID0.6538908984512091" d="M9.37.691c-.15.071.212.227.315.177 4.937-2.354 12.578-2.432 17.01 1.145.087.07.48.091.311-.047C22.415-1.74 14.472-1.743 9.37.691z" transform="matrix(.95 0 0 .95 .15 .9)"/><path id="ID0.7983635314740241" d="M3.282 11.049c.034.121.427.179.39.056C2.23 6.166 6.076 3.312 9.708.853 9.8.792 9.449.633 9.343.707c-3.68 2.489-7.507 5.379-6.061 10.342z" transform="matrix(.95 0 0 .95 .15 .9)"/><path id="ID0.9985817270353436" d="M8.39 33.986c.008.118.402.2.392.056-.625-8.157-13.853-16.764-5.597-24.323.092-.084-.272-.232-.367-.146-8.277 7.576 4.957 16.399 5.572 24.413z" transform="matrix(.95 0 0 .95 .15 .9)"/><path id="ID0.048851495143026114" d="M13.402 19.231c-.025-.121-.42-.188-.393-.058.239 1.124.993 1.918 1.391 2.972.464 1.221.601 2.556.474 3.851l.394.081c-.082-1.065-1.164-1.823-1.957-2.399-.09-.064-.486-.08-.312.047.773.563 1.797 1.264 1.877 2.296.01.106.383.193.393.081.111-1.134.078-2.447-.332-3.525-.438-1.156-1.274-2.125-1.535-3.346z" transform="matrix(.95 0 0 .95 .15 .9)"/></g></g></g><g id="Eyebrows"><g id="ID0.6012311452068388"><g id="ID0.7290764157660306" fill="#010101"><path id="ID0.9351740987040102" d="M23.661 17.702c.715.025.495-.736-.099-.758-2.729-.096-5.56-.223-7.705 1.752-.443.41.477.91.812.6 1.971-1.816 4.483-1.683 6.992-1.594z" transform="matrix(.95 0 0 .95 .15 .9)"/><path id="ID0.011035825125873089" d="M27.896 16.456c-.355.379.642.802.963.459.869-.927 1.642-1.62 2.91-1.913.246-.057.281-.331.135-.5-.186-.214-.48-.26-.742-.199-1.408.323-2.303 1.126-3.266 2.153z" transform="matrix(.95 0 0 .95 .15 .9)"/></g></g></g></g></svg>