<svg width="120" height="120" viewBox="0 0 120 120" xmlns="http://www.w3.org/2000/svg" xmlns:xlink="http://www.w3.org/1999/xlink"><defs><path id="a" d="M.192.201h31.761v31.56H.192z"/></defs><g fill="none" fill-rule="evenodd"><path d="M72.884 41.357a15.822 15.822 0 0 1-7.8 9.926 2.52 2.52 0 0 1 .794-.127c.92 0 1.774.503 2.23 1.314a2.59 2.59 0 0 1-.032 2.595c-1.95 3.257-6.458 4.413-9.726 4.413l-.14-.001c-4.109-.041-7.466-1.411-9.714-3.962a2.695 2.695 0 0 1-.43-2.878 2.663 2.663 0 0 1 2.002-1.546 15.796 15.796 0 0 1-7.624-10.424c-1.408 1.805-3.814 2.999-6.543 2.999-4.332 0-7.855-3.004-7.855-6.697s3.523-6.697 7.855-6.697c2.831 0 5.31 1.288 6.694 3.209 1.736-6.782 7.872-11.807 15.155-11.807 7.022 0 12.977 4.673 14.952 11.086 1.44-1.516 3.64-2.488 6.103-2.488 4.33 0 7.855 3.004 7.855 6.697s-3.524 6.697-7.855 6.697c-2.363 0-4.48-.898-5.92-2.309" fill="#FFF"/><path d="M61.151 52.875c1.367-.285 2.518-.717 3.241-1.238l.02-.015c-1.03.491-2.125.872-3.267 1.127l.006.126m-6.275-.017c.098.026.197.05.297.074v-.022a15.712 15.712 0 0 1-.297-.052" fill="#FFF"/><path d="M64.392 51.637c-.723.522-1.874.953-3.24 1.238l-.007-.126a15.423 15.423 0 0 0 3.267-1.126.261.261 0 0 0-.02.014m-9.516 1.22c.099.02.198.037.297.054l-.001.022a9.247 9.247 0 0 1-.296-.076M86.66 36.97c0-3.693-3.524-6.697-7.856-6.697-2.462 0-4.66.972-6.103 2.488-1.974-6.414-7.93-11.086-14.95-11.086-7.284 0-13.42 5.025-15.157 11.807-1.382-1.921-3.862-3.21-6.693-3.21-4.331 0-7.855 3.005-7.855 6.698 0 3.693 3.524 6.697 7.855 6.697 2.729 0 5.134-1.194 6.543-3a15.798 15.798 0 0 0 7.624 10.425 2.66 2.66 0 0 0-2.001 1.546 2.696 2.696 0 0 0 .43 2.878c2.246 2.55 5.604 3.92 9.712 3.962h.14c3.268 0 7.777-1.155 9.727-4.412a2.593 2.593 0 0 0 .032-2.595 2.569 2.569 0 0 0-2.23-1.314c-.273 0-.54.043-.794.127a15.822 15.822 0 0 0 7.8-9.926c1.442 1.411 3.558 2.309 5.92 2.309 4.332 0 7.856-3.004 7.856-6.697" fill="#FFF"/><path d="M86.163 74.032c-5.937-9.316-14.192-25.384-26.966-21.55-.523.006-1.031.035-1.529.079-.167-.015-.337-.025-.506-.036-12.856-3.997-21.149 12.157-27.11 21.507-7.349 11.53-3.183 23.78 5.994 17.397-.138 4.931-.007 10.264.411 15.966.699 9.513 2.647 12.546 7.055 12.398 5.91-.197 7.577-7.296 7.632-16.105 1.519.113 3.136.164 4.851.164.564 0 1.12-.016 1.673-.037.552.021 1.108.037 1.673.037a65.63 65.63 0 0 0 4.851-.164c.055 8.81 1.722 15.908 7.632 16.105 4.406.148 6.356-2.885 7.054-12.398.439-5.963.562-11.524.391-16.642 9.8 7.848 14.481-4.82 6.894-16.72" fill="#C5CDD0"/><path d="M71.604 80.12c0 10.599-3.93 19.299-14.396 19.19-11.346-.116-14.395-8.591-14.395-19.19 0-10.6 6.445-21.848 14.395-21.848 7.95 0 14.396 11.249 14.396 21.848" fill="#E3F1F4"/><path d="M39.857 5.132c6.824 6.172 7.89 16.163 2.38 22.315-5.51 6.153-15.507 6.136-22.332-.036-6.824-6.173-7.89-16.163-2.38-22.315 5.51-6.153 15.508-6.137 22.332.036" fill="#C5CDD0"/><path d="M31.59 28.366c-3.32 0-6.598-1.312-9.231-3.694-2.628-2.377-4.27-5.51-4.623-8.82-.337-3.16.556-6.104 2.514-8.291 1.955-2.182 4.767-3.384 7.922-3.384 3.32 0 6.598 1.312 9.232 3.694 2.628 2.377 4.27 5.509 4.622 8.82.337 3.16-.556 6.104-2.514 8.291-1.955 2.182-4.768 3.384-7.921 3.384" fill="#E3F1F4"/><g transform="translate(73.702 .29)"><mask id="b" fill="#fff"><use xlink:href="#a"/></mask><path d="M6.097 4.842c-6.824 6.172-7.89 16.163-2.38 22.315 5.51 6.152 15.508 6.136 22.332-.037 6.824-6.172 7.89-16.163 2.38-22.315-5.51-6.152-15.508-6.137-22.332.037" fill="#C5CDD0" mask="url(#b)"/></g><path d="M88.066 28.366c3.32 0 6.597-1.312 9.232-3.694 2.627-2.377 4.27-5.51 4.622-8.82.337-3.16-.556-6.104-2.515-8.291-1.953-2.182-4.767-3.384-7.921-3.384-3.32 0-6.598 1.312-9.232 3.694-2.628 2.377-4.269 5.509-4.622 8.82-.337 3.16.556 6.104 2.515 8.291 1.954 2.182 4.767 3.384 7.92 3.384" fill="#E3F1F4"/><path d="M58.545 59.756c-17.012 0-30.732-6.648-30.732-23.744S41.35 1.897 58.361 1.897c17.011 0 31.055 17.019 31.055 34.115 0 17.096-13.861 23.744-30.871 23.744z" fill="#C5CDD0"/><path d="M70.95 37.4c0 7.326-5.909 13.267-13.2 13.267-7.29 0-13.2-5.94-13.2-13.267 0-7.327 5.91-13.267 13.2-13.267 7.291 0 13.2 5.94 13.2 13.267" fill="#462C1F"/><path d="M57.951 46.672c-.235 1.55-.252 3.105-.262 4.671-.01 1.52-.332 3.423.221 4.863.101.265.434.265.535 0 .494-1.286.233-2.914.225-4.27-.012-1.762-.002-3.518-.266-5.264-.035-.226-.419-.226-.453 0" fill="#462C1F"/><path d="M50.329 53.885c2.02 2.292 4.936 3.103 7.905 3.133 2.577.027 6.312-.827 7.745-3.222.058-.096-.062-.232-.16-.161-1.965 1.418-5.223 1.97-7.585 2.056-2.668.096-5.448-.603-7.65-2.136-.206-.143-.405.16-.255.33" fill="#462C1F"/><path d="M41.31 36.969c0 2.34-2.422 4.238-5.409 4.238-2.988 0-5.408-1.898-5.408-4.238 0-2.341 2.42-4.238 5.408-4.238 2.987 0 5.409 1.897 5.409 4.238m42.903 0c0 2.34-2.422 4.238-5.409 4.238-2.987 0-5.408-1.898-5.408-4.238 0-2.341 2.42-4.238 5.408-4.238 2.987 0 5.41 1.897 5.41 4.238" fill="#E3ACAF"/><path d="M42.593 24.562a1.963 1.963 0 0 1-1.956-1.966c0-1.083.878-1.965 1.956-1.965 1.079 0 1.955.882 1.955 1.965a1.962 1.962 0 0 1-1.955 1.966m30.069 0a1.963 1.963 0 0 1-1.956-1.966c0-1.083.877-1.965 1.956-1.965s1.956.882 1.956 1.965a1.963 1.963 0 0 1-1.956 1.966" fill="#282626"/><path d="M62.515 27.818c0 1.085-2.134 1.965-4.767 1.965-2.633 0-4.767-.88-4.767-1.965 0-1.086 2.134-1.966 4.767-1.966 2.633 0 4.767.88 4.767 1.966m5.581-19.66c-3.517-.705-.164-5.777 2.497-2.988-1.57-3.619 4.188-4.246 3.047-.061 2.213-4.048 6.622 1.283 2.678 2.814 3.84.065 2.5 5.972-1.05 3.33 1.94 2.363-2.672 4.85-2.878 1.983-1.822 3.387-5.2.558-3.369-1.856-.536.49-.943.697-1.22.624-3.288-.87-2.342-3.8.295-3.846z" fill="#E3F1F4"/><path d="M73.884 8.53a1.838 1.838 0 0 1-1.833 1.843 1.838 1.838 0 0 1-1.833-1.843c0-1.017.82-1.842 1.833-1.842 1.012 0 1.833.825 1.833 1.842" fill="#FEB51A"/></g></svg>