<svg width="120" height="120" viewBox="0 0 120 120" xmlns="http://www.w3.org/2000/svg"><g fill="none" fill-rule="evenodd"><path d="M82.535 47.608s6.96 2.395 7.876 3.764c.915 1.368 0 3.421 0 3.421l-6.065-2.737-.457-2.281-1.45-.571.096-1.596z" fill="#AAAE8B"/><path d="M84.637 80.14c-4.7-28.434 0-45.335 0-54.6 0-9.263-1.085-13.994-6.725-16.754-4.855-2.375-14.527-2.705-17.126-2.751v-.008l-.314.003a39.85 39.85 0 0 0-.314-.003v.008c-2.6.046-12.272.376-17.127 2.751-5.64 2.76-6.724 7.49-6.724 16.755 0 9.264 4.699 26.165 0 54.598-3.643 22.037-2.612 34.094 23.85 34.292v.004l.315-.002.314.002v-.004c26.463-.198 27.493-12.255 23.851-34.292" fill="#AAAE8B"/><path d="M38.292 47.608s-6.96 2.395-7.875 3.764c-.915 1.368 0 3.421 0 3.421l6.064-2.737.457-2.281 1.45-.571-.096-1.596z" fill="#AAAE8B"/><path d="M60.436 25.317c-23.133 0-17.614 17.936-17.614 17.936 11.045-2.295 17.614-2.008 17.614-2.008s6.57-.287 17.614 2.008c0 0 5.52-17.936-17.614-17.936M40.823 41.854s3.844 8.291 4.995 13.038c1.15 4.746.796 22.506-2.767 28.972l-6.333 5.032s7.985-26.123 4.105-47.042m40.36 0s-3.843 8.291-4.994 13.038c-1.151 4.746-.797 22.506 2.766 28.972l6.334 5.032s-7.986-26.123-4.106-47.042m1.031 53.639l-8.016-6.023s-6.959 2.961-13.896 3.01c-6.939-.049-13.898-3.01-13.898-3.01l-8.015 6.023c6.285 11.775 19.474 11.25 21.742 11.369v.014s.059 0 .17-.005l.17.005v-.014c2.268-.12 15.457.406 21.743-11.369" fill="#2E6579"/><path d="M77.83 8.786c-4.854-2.375-14.526-2.705-17.126-2.751v-.008l-.273.003-.273-.003v.008c-2.6.046-12.272.376-17.127 2.751-5.64 2.76-6.724 7.49-6.724 16.755 0 3.947.852 9.288 1.468 16.312v.001l3.786-5.307S33.633 9.326 60.431 9.298c26.798.028 18.87 27.25 18.87 27.25l3.786 5.306v-.001c.616-7.024 1.469-12.365 1.469-16.312 0-9.264-1.085-13.995-6.725-16.755M53.254 49.742s.074.484.17 1.33c.097.848.221 2.058.323 3.51.053.726.112 1.513.148 2.345.042.832.096 1.71.116 2.617.023.908.071 1.845.075 2.798l.03 2.89-.025 2.889c-.008.952-.054 1.89-.077 2.798a116.47 116.47 0 0 1-.265 4.962 79.993 79.993 0 0 1-.323 3.509c-.097.847-.172 1.33-.172 1.33s-.076-.483-.172-1.33a79.992 79.992 0 0 1-.324-3.51 116.47 116.47 0 0 1-.265-4.961c-.023-.908-.069-1.846-.077-2.798l-.025-2.89.03-2.889c.004-.953.052-1.89.075-2.798.02-.908.074-1.785.116-2.617.036-.832.095-1.619.148-2.344.102-1.453.227-2.663.323-3.51s.17-1.331.17-1.331m14.437 0s.075.484.17 1.33c.097.848.222 2.058.323 3.51.054.726.112 1.513.148 2.345.042.832.096 1.71.117 2.617.022.908.07 1.845.075 2.798l.03 2.89c-.01.967-.017 1.936-.026 2.889-.008.952-.053 1.89-.077 2.798a116.47 116.47 0 0 1-.265 4.962 79.992 79.992 0 0 1-.323 3.509c-.097.847-.172 1.33-.172 1.33s-.076-.483-.172-1.33a79.992 79.992 0 0 1-.324-3.51 116.47 116.47 0 0 1-.264-4.961c-.024-.908-.07-1.846-.077-2.798-.01-.953-.017-1.922-.026-2.89l.03-2.889c.004-.953.052-1.89.075-2.798.02-.908.074-1.785.116-2.617.036-.832.095-1.619.149-2.344.1-1.453.226-2.663.322-3.51s.17-1.331.17-1.331" fill="#9DA078"/><path d="M76.925 8.388s.42 6.694 6.654 6.79c0 0-.458-5.25-6.654-6.79m-39.532 6.789s.42-6.694 6.654-6.79c0 0-.458 5.25-6.654 6.79" fill="#EAC14E"/><path d="M75.602 112.313l.592-2.477s4.462-2.774 6.02-5.26h2.227s-1.278 6.868-8.839 7.737m-30.287 0l-.592-2.477s-4.462-2.774-6.02-5.26h-2.227s1.278 6.868 8.839 7.737" fill="#BC3B26"/></g></svg>