<svg xmlns="http://www.w3.org/2000/svg" width="95.841" height="74.744" viewBox="0.495 -0.278 95.841 74.744"><defs><style/></defs><g id="ID0.8261458883062005" transform="translate(-192 -149)" stroke="none"><g id="ID0.25774545641615987" transform="translate(192 149)"><path id="ID0.8359734453260899" fill="#FFD351" stroke-linecap="round" d="M244 126.5c12.408.189 25.027 6.511 33.75 15 6.08 6.222 5.105 16.526 6.5 25 1.457 8.857.29 17.96 2 26.5 1.15 6.098 3.934 11.512 6.5 17 2.721 5.823 11.676 11.184 9 17-3.324 7.798-13.713 10.423-22 12.5-12.956 3.245-26.648 2.74-40 3-9.246-.244-18.483-1.125-27.5-3-8.378-1.734-17.198-3.098-24.5-7.5-2.614-1.604-3.528-6.267-2.5-9.5 1.911-5.218 7.906-8.203 10.5-13.5 2.826-5.77 4.168-12.208 5.5-18.5 1.544-7.176 2.151-14.989 3.5-22.5 1.626-9.013-.895-20.324 5.5-27 8.338-8.907 21.506-14.685 33.75-14.5z" transform="matrix(.48827 .11269 -.11269 .48827 -62.1 -79.1)"/><path id="ID0.908154658973217" fill="#FFD351" d="M243 112c1.379 0 2.629 1.205 3.535 3.151.905 1.946 1.465 4.633 1.465 7.599s-.56 5.653-1.465 7.599c-.906 1.946-2.156 3.151-3.535 3.151s-2.629-1.205-3.535-3.151c-.905-1.946-1.465-4.633-1.465-7.599s.56-5.653 1.465-7.599c.906-1.946 2.156-3.151 3.535-3.151z" transform="matrix(.48827 .11269 -.11269 .48827 -62.1 -79.1)"/><path id="ID0.7001172280870378" fill="#EAC24D" d="M247 228c15.312 0 29.187 1.569 39.234 4.103 10.047 2.535 16.266 6.035 16.266 9.897s-6.219 7.362-16.266 9.897C276.187 254.431 262.312 256 247 256c-15.312 0-29.187-1.569-39.234-4.103-10.047-2.535-16.266-6.035-16.266-9.897s6.219-7.362 16.266-9.897C217.813 229.569 231.688 228 247 228z" transform="rotate(12.996 353.23 -314.818) scale(.5011)"/><path id="ID0.7265239926055074" fill="#FFD351" d="M244 215c1.242 0 2.367.98 3.181 2.564.815 1.584 1.319 3.772 1.319 6.186s-.504 4.602-1.319 6.186c-.814 1.584-1.939 2.564-3.181 2.564s-2.367-.98-3.181-2.564c-.815-1.584-1.319-3.772-1.319-6.186s.504-4.602 1.319-6.186c.814-1.584 1.939-2.564 3.181-2.564z" transform="matrix(.48827 .11269 -.11269 .48827 -62.1 -79.1)"/><path id="ID0.635630413889885" fill="#FFF1C8" stroke-linecap="round" d="M219.25 142c3.935-5.574 12.452-7.735 19.5-8.5 3.245-.349 7.727 3.246 7 5.5-.273 2.496-6.008 1.965-9 4-4.654 3.204-9.591 6.65-12.5 11.5-3.396 5.668-1.936 13.411-6 18.5-1.255 1.933-6.561.522-6.5-2 .244-9.97 1.767-20.839 7.5-29z" transform="rotate(12.996 312.977 -314.901) scale(.5011)"/></g><path id="ID0.5902045234106481" fill="#EDC54F" stroke-linecap="round" d="M268.75 168c10.239 1.592 20.853 5.001 28.591 11.633 5.471 4.692 9.883 12.444 9.159 19.617-1.638 16.23-2.615 36.488-15.75 45.75-12.057 8.822-30.047.838-44.5-2.5-3.613-.834-1.091-4.334-1.5-7.5-1.598-12.308-6.004-24.915-4.5-37 1.212-9.753 6.237-19.368 13-26.5 3.804-4.007 10.367-4.744 15.5-3.5z" transform="translate(102.75 77.5) scale(.5011)"/><g id="ID0.25774545641615987" transform="translate(192 149)"><path id="ID0.8359734453260899" fill="#FFD351" stroke-linecap="round" d="M244 126.5c12.408.189 25.027 6.511 33.75 15 6.08 6.222 5.105 16.526 6.5 25 1.457 8.857.29 17.96 2 26.5 1.15 6.098 3.934 11.512 6.5 17 2.721 5.823 11.676 11.184 9 17-3.324 7.798-13.713 10.423-22 12.5-12.956 3.245-26.648 2.74-40 3-9.246-.244-18.483-1.125-27.5-3-8.378-1.734-17.198-3.098-24.5-7.5-2.614-1.604-3.528-6.267-2.5-9.5 1.911-5.218 7.906-8.203 10.5-13.5 2.826-5.77 4.168-12.208 5.5-18.5 1.544-7.176 2.151-14.989 3.5-22.5 1.626-9.013-.895-20.324 5.5-27 8.338-8.907 21.506-14.685 33.75-14.5z" transform="matrix(.47394 -.16275 .16275 .47394 -87.45 -10.6)"/><path id="ID0.908154658973217" fill="#FFD351" d="M243 112c1.379 0 2.629 1.205 3.535 3.151.905 1.946 1.465 4.633 1.465 7.599s-.56 5.653-1.465 7.599c-.906 1.946-2.156 3.151-3.535 3.151s-2.629-1.205-3.535-3.151c-.905-1.946-1.465-4.633-1.465-7.599s.56-5.653 1.465-7.599c.906-1.946 2.156-3.151 3.535-3.151z" transform="matrix(.47394 -.16275 .16275 .47394 -87.45 -10.6)"/><path id="ID0.7001172280870378" fill="#EAC24D" d="M247 228c15.312 0 29.187 1.569 39.234 4.103 10.047 2.535 16.266 6.035 16.266 9.897s-6.219 7.362-16.266 9.897C276.187 254.431 262.312 256 247 256c-15.312 0-29.187-1.569-39.234-4.103-10.047-2.535-16.266-6.035-16.266-9.897s6.219-7.362 16.266-9.897C217.813 229.569 231.688 228 247 228z" transform="rotate(-18.952 -99.518 265.113) scale(.5011)"/><path id="ID0.7265239926055074" fill="#FFD351" d="M244 215c1.242 0 2.367.98 3.181 2.564.815 1.584 1.319 3.772 1.319 6.186s-.504 4.602-1.319 6.186c-.814 1.584-1.939 2.564-3.181 2.564s-2.367-.98-3.181-2.564c-.815-1.584-1.319-3.772-1.319-6.186s.504-4.602 1.319-6.186c.814-1.584 1.939-2.564 3.181-2.564z" transform="matrix(.47394 -.16275 .16275 .47394 -87.45 -10.6)"/><path id="ID0.635630413889885" fill="#FFF1C8" stroke-linecap="round" d="M219.25 142c3.935-5.574 12.452-7.735 19.5-8.5 3.245-.349 7.727 3.246 7 5.5-.273 2.496-6.008 1.965-9 4-4.654 3.204-9.591 6.65-12.5 11.5-3.396 5.668-1.936 13.411-6 18.5-1.255 1.933-6.561.522-6.5-2 .244-9.97 1.767-20.839 7.5-29z" transform="rotate(-18.952 -73.03 257.68) scale(.5011)"/></g></g></svg>