<svg width="120" height="120" viewBox="0 0 120 120" xmlns="http://www.w3.org/2000/svg"><g fill="none" fill-rule="evenodd"><path fill="#FD5959" d="M28.636 6.77h6.77V0h-6.77z"/><path fill="#D43030" d="M21.865 13.539h6.771v-6.77h-6.771z"/><path fill="#773D12" d="M28.635 13.539h6.77v-6.77h-6.77z"/><path fill="#FD5959" d="M35.405 13.539h6.77v-6.77h-6.77zm47.387 0h6.77v-6.77h-6.77z"/><path fill="#D43030" d="M28.635 20.309h6.77v-6.77h-6.77z"/><path fill="#FD5959" d="M76.023 20.309h6.77v-6.77h-6.77z"/><path fill="#773D12" d="M82.792 20.309h6.77v-6.77h-6.77z"/><path fill="#D43030" d="M89.562 20.309h6.771v-6.77h-6.771z"/><path fill="#58BE00" d="M28.635 27.078h6.77v-6.77h-6.77z"/><path fill="#FD5959" d="M55.713 27.078h6.771v-6.77h-6.771z"/><path fill="#D43030" d="M82.792 27.078h6.77v-6.77h-6.77z"/><path fill="#58BE00" d="M21.865 33.848h6.771v-6.77h-6.771z"/><path fill="#70A100" d="M28.635 33.848h6.77v-6.77h-6.77z"/><path fill="#FD5959" d="M48.945 33.848h6.769v-6.77h-6.769z"/><path fill="#773D12" d="M55.713 33.848h6.771v-6.77h-6.771z"/><path fill="#D43030" d="M62.484 33.848h6.77v-6.77h-6.77z"/><path fill="#58BE00" d="M82.792 33.848h6.77v-6.77h-6.77zm-54.157 6.77h6.77v-6.771h-6.77z"/><path fill="#D43030" d="M55.713 40.618h6.771v-6.771h-6.771z"/><path fill="#70A100" d="M76.023 40.618h6.77v-6.771h-6.77z"/><path fill="#58BE00" d="M96.332 40.618h6.77v-6.771h-6.77z"/><path fill="#70A100" d="M35.405 47.388h6.77v-6.77h-6.77z"/><path fill="#58BE00" d="M55.713 47.388h6.771v-6.77h-6.771zm20.31 0h6.77v-6.77h-6.77z"/><path fill="#70A100" d="M89.562 47.388h6.771v-6.77h-6.771zm-74.466 6.769h6.769v-6.77h-6.769z"/><path fill="#58BE00" d="M21.865 54.157h6.771v-6.77h-6.771z"/><path fill="#58BE00" d="M28.635 54.157h6.77v-6.77h-6.77zm6.77 0h6.77v-6.77h-6.77z"/><path fill="#58BE00" d="M42.174 54.157h6.771v-6.77h-6.771z"/><path fill="#70A100" d="M48.945 54.157h6.769v-6.77h-6.769z"/><path fill="#70A100" d="M55.713 54.157h6.771v-6.77h-6.771zm6.771 0h6.77v-6.77h-6.77z"/><path fill="#58BE00" d="M69.253 54.157h6.77v-6.77h-6.77zm6.77 0h6.77v-6.77h-6.77z"/><path fill="#70A100" d="M82.792 54.157h6.77v-6.77h-6.77z"/><path fill="#58BE00" d="M89.562 54.157h6.771v-6.77h-6.771z"/><path fill="#58BE00" d="M96.332 54.157h6.77v-6.77h-6.77z"/><path d="M29.414 71.17v8.206H25.31v8.206h-4.103v4.105h4.103v-4.105h4.104v-8.206h4.103V71.17h-4.103zM13 79.377h4.103V71.17H13v8.206zm4.103 8.206h4.104v-8.206h-4.104v8.206zm22.553 4.103h4.103V71.17h-4.103zm22.551-4.103h4.103V75.272h-4.103v12.311zm-12.31 4.103V71.17h12.311v4.103h-8.207v12.31h8.207v4.103H49.897zM84.76 75.273h-8.207v4.104h8.207v4.103h-8.207v4.104h8.207v4.102H72.45V71.17h12.31zm10.242-4.103v4.102H90.9v12.31h4.102v-12.31h8.208V71.17h-8.208zm8.208 4.102v12.31h-8.208v4.105h8.208v-4.105h4.102v-12.31h-4.102zM22.224 99.484v4.102h-4.103v12.31h4.103v-12.31h12.311v-4.102h-12.31zm4.104 8.206v4.104h4.103v4.103h-8.207V120h8.207v-4.103h4.104v-8.207h-8.207zm18.546-4.104h8.208v-4.102h-8.208v4.102zm8.208 0v4.104h-8.208v-4.104h-4.102V120h4.102v-8.206h8.208V120h4.104v-16.414h-4.104zm26.558-4.102v4.102h-4.104v4.104h-4.103v4.104h4.103v-4.104h4.104V120h4.103V99.484H79.64zm-16.413 0V120h4.102v-12.31h4.104v-4.104h-4.104v-4.102h-4.102zm26.655 0V120h12.31v-4.103h-8.207v-4.103h8.207v-4.104h-8.207v-4.104h8.207v-4.102z" fill="#70A100"/></g></svg>