<svg width="100" height="100" viewBox="0 0 100 100" xmlns="http://www.w3.org/2000/svg"><g fill="none" fill-rule="evenodd"><path d="M57.695 61.91l-.382-.13c-.209-.072-.285-.4-.17-.734l.867-2.538.869-2.54c.114-.335.376-.548.584-.477l.383.13c.208.072.284.4.17.735l-1.737 5.078c-.114.334-.376.547-.584.476" fill="#D58830"/><path d="M62.32 60.766l-.535-.183c-.291-.1-.464-.367-.385-.598l.6-1.754.6-1.756c.08-.23.38-.337.672-.238l.535.183c.292.1.464.368.385.598l-1.2 3.51c-.08.231-.38.337-.672.238" fill="#C97F38"/><path d="M40.722 66.945c-.831-3.108-2.976-5.344-5.174-5.65a1.313 1.313 0 0 0-.376-.035h-.011a3.534 3.534 0 0 0-.752.054c-1.71.197-2.74.833-2.74.833l-.001.002c-2.075 1.167-3.02 4.415-2.119 7.78.88 3.29 3.233 5.605 5.563 5.684v.001h.013c.227.007.453-.009.677-.045.696-.075 1.797-.273 2.719-.798l.022-.013c2.117-1.137 3.088-4.415 2.18-7.813" fill="#3E3F41"/><path d="M29.215 59.849l-7.93-6.948a3.756 3.756 0 0 1-.348-5.304l.1-.114a3.765 3.765 0 0 1 5.31-.348l7.929 6.948a3.756 3.756 0 0 1 .348 5.304l-.1.114a3.765 3.765 0 0 1-5.309.348" fill="#D9568C"/><path d="M60.285 47.665l4.828 2.65c.306.212.454.62.372 1.022l-.42 2.153 1.266.82-.424 3.008-3.918-.286-5.9-1.858 4.196-7.509z" fill="#8B8B8B"/><path d="M58.474 62.175l-.774-.264c-.422-.144-.672-.532-.558-.865l.868-2.538.87-2.54c.113-.335.548-.489.97-.344l.774.264c.423.144.673.532.558.866l-1.737 5.078c-.114.334-.549.488-.971.343" fill="#C97F38"/><path d="M60.028 46.241c-.2.656-.784 1.081-1.4 1.022-1.345-.128-4.328-.496-10.492-1.552-6.167-1.057-9.102-1.702-10.412-2.029-.6-.15-1.009-.744-.98-1.429.04-.934.194-2.544.651-5.21.436-2.537.799-4 1.056-4.832.2-.648.775-1.07 1.386-1.02 1.26.107 4.173-.603 10.574.526 6.375 1.124 9.137 2.791 10.37 3.092.603.147 1.014.742.985 1.428-.037.876-.183 2.372-.613 4.877-.456 2.66-.85 4.23-1.125 5.127" fill="#F2F2F2"/><path d="M61.072 72.459c-.244.711-1.043 1.15-1.918 1.056-1.91-.206-6.148-.756-14.926-2.216-8.78-1.46-12.969-2.313-14.841-2.736-.858-.193-1.472-.867-1.472-1.619 0-1.026.119-2.79.604-5.7.462-2.77.886-4.362 1.2-5.265.243-.703 1.03-1.14 1.897-1.054 1.786.177 5.847.708 14.965 2.26 9.08 1.545 13.1 2.343 14.863 2.733.86.191 1.477.865 1.478 1.618 0 .963-.115 2.602-.571 5.336-.484 2.904-.946 4.613-1.28 5.587" fill="#D9568C"/><path d="M55.224 47.037s3.075-.313 4.977.553a.649.649 0 0 1 .374.708l-.962 5.167c-.041.22.09.437.303.504l2.185.684a.456.456 0 0 1 .314.515l-.256 1.456a.404.404 0 0 1-.464.329l-7.942-1.321 1.47-8.595z" fill="#58595B"/><path d="M54.331 71.481c-.219.716-.876 1.179-1.577 1.113-1.53-.143-4.924-.552-11.942-1.72-7.02-1.167-10.363-1.879-11.856-2.238-.684-.165-1.156-.815-1.131-1.563.033-1.02.186-2.778.67-5.689.462-2.77.856-4.367 1.137-5.275.22-.708.867-1.168 1.561-1.11 1.433.118 4.684.514 11.972 1.761 7.258 1.242 10.468 1.905 11.874 2.237.686.161 1.16.812 1.137 1.561-.03.957-.177 2.591-.633 5.325-.484 2.904-.912 4.619-1.212 5.598" fill="#F2A7BD"/><path d="M30.952 49.608l-18.32-3.047a3.589 3.589 0 0 1-2.952-4.13l3.05-18.301a3.591 3.591 0 0 1 4.132-2.95l18.32 3.047a3.589 3.589 0 0 1 2.953 4.128l-3.05 18.303a3.591 3.591 0 0 1-4.133 2.95" fill="#FECA21"/><path d="M30.952 49.608l-18.32-3.047a3.589 3.589 0 0 1-2.952-4.13l3.05-18.301a3.591 3.591 0 0 1 4.132-2.95l18.32 3.047a3.589 3.589 0 0 1 2.953 4.128l-3.05 18.303a3.591 3.591 0 0 1-4.133 2.95z" stroke="#FEE38D" stroke-width="1.02"/><path d="M22.65 29.924l4.603.648c2.216.313 4.262-.252 4.989-1.275a.224.224 0 0 0-.149-.354l-9.128-1.316a5.977 5.977 0 0 0-6.052 2.993c-.116.207.127.431.32.295 1.26-.89 3.238-1.3 5.416-.99m4.826 2.042v.009l-5.016-.706c-2.218-.314-4.266.253-4.991 1.278a.224.224 0 0 0 .148.354l9.13 1.313A5.977 5.977 0 0 0 32.8 31.22c.116-.208-.128-.43-.323-.292-1.179.832-2.988 1.243-5.002 1.039m.74 10.351l-12.801-2.045a.793.793 0 1 1 .25-1.565l12.466 1.99 3.22-.87a.794.794 0 0 1 .415 1.53l-3.55.96zM16.9 38.504a.793.793 0 0 1-.654-.91l.494-2.996a.793.793 0 0 1 1.566.258l-.494 2.995a.793.793 0 0 1-.912.653m2.367.389a.793.793 0 0 1-.654-.911l.495-2.996a.793.793 0 0 1 1.565.258l-.494 2.996a.793.793 0 0 1-.912.653" fill="#FEE38D"/><path d="M21.634 39.281a.793.793 0 0 1-.654-.91l.495-2.996a.793.793 0 0 1 1.565.258l-.494 2.995a.793.793 0 0 1-.912.653m2.367.389a.793.793 0 0 1-.654-.911l.495-2.996a.793.793 0 0 1 1.565.258l-.494 2.996a.793.793 0 0 1-.912.653m2.366.394a.793.793 0 0 1-.653-.911l.494-2.995a.793.793 0 0 1 1.566.258l-.495 2.995a.793.793 0 0 1-.912.653" fill="#FEE38D"/><path d="M54.732 60.2l-21.745-3.618a2.564 2.564 0 0 1-2.104-2.941l1.538-9.228a2.566 2.566 0 0 1 2.944-2.102l21.745 3.617a2.564 2.564 0 0 1 2.104 2.941l-1.538 9.229a2.566 2.566 0 0 1-2.944 2.101" fill="#8B8B8B"/><path d="M53.913 60.1l-21.286-3.54a2.564 2.564 0 0 1-2.103-2.942l1.544-9.264a2.566 2.566 0 0 1 2.943-2.102l21.286 3.54a2.564 2.564 0 0 1 2.104 2.942L56.857 58a2.566 2.566 0 0 1-2.944 2.101" fill="#3E3F41"/><path d="M38.661 44.555c-.194-.032-1.431-.377-1.895-.454a5.505 5.505 0 0 0-1.81 10.86c.083.013 1.913.178 1.94.182a5.368 5.368 0 0 0 1.765-10.588" fill="#868585"/><path d="M41.32 50.438a5.521 5.521 0 0 1-6.354 4.536 5.517 5.517 0 1 1 1.814-10.883 5.517 5.517 0 0 1 4.54 6.347" fill="#636465"/><path d="M40.663 50.33a4.855 4.855 0 0 1-5.587 3.987 4.851 4.851 0 1 1 1.594-9.57 4.851 4.851 0 0 1 3.993 5.582" fill="#FFF"/><path d="M31.403 49.082a4.855 4.855 0 0 1 8.192-2.662 4.855 4.855 0 0 0-8.512 2.316 4.841 4.841 0 0 0 1.387 4.256 4.835 4.835 0 0 1-1.067-3.91" fill="#515252"/><path d="M53.19 52.648a5.521 5.521 0 0 1-6.354 4.535A5.517 5.517 0 1 1 48.649 46.3a5.517 5.517 0 0 1 4.54 6.348" fill="#888"/><path d="M50.534 46.745c-.195-.032-1.432-.377-1.895-.454a5.505 5.505 0 0 0-1.81 10.86c.083.013 1.913.178 1.94.182a5.368 5.368 0 0 0 1.765-10.588" fill="#868585"/><path d="M53.19 52.648a5.521 5.521 0 0 1-6.354 4.535A5.517 5.517 0 1 1 48.649 46.3a5.517 5.517 0 0 1 4.54 6.348" fill="#888"/><path d="M53.19 52.648a5.521 5.521 0 0 1-6.354 4.535A5.517 5.517 0 1 1 48.649 46.3a5.517 5.517 0 0 1 4.54 6.348" fill="#636465"/><path d="M52.532 52.539a4.855 4.855 0 0 1-5.587 3.988 4.851 4.851 0 1 1 1.595-9.57 4.851 4.851 0 0 1 3.992 5.582" fill="#FFF"/><path d="M43.24 51.26a4.855 4.855 0 0 1 8.192-2.662 4.855 4.855 0 0 0-8.512 2.316 4.841 4.841 0 0 0 1.387 4.256 4.835 4.835 0 0 1-1.067-3.91" fill="#515252"/><path d="M51.43 59.848l6.941-.767" stroke="#F2F2F2" stroke-width="1.817" stroke-linecap="round"/><path d="M50.543 69.797c-.2.655-.784 1.08-1.4 1.022-1.346-.129-4.328-.497-10.492-1.553-6.167-1.056-9.102-1.702-10.412-2.029-.6-.15-1.01-.744-.98-1.428.04-.935.193-2.544.65-5.21.437-2.538.8-4 1.057-4.833.2-.648.775-1.07 1.386-1.019 1.26.106 4.116.463 10.518 1.591 6.374 1.124 9.193 1.726 10.427 2.027.602.146 1.013.741.984 1.427-.037.876-.183 2.373-.613 4.877-.456 2.66-.85 4.23-1.125 5.128" fill="#F2F2F2"/><path d="M48.69 68.9l6.358 2.886" stroke="#F2F2F2" stroke-width="1.817" stroke-linecap="round"/><path d="M63.145 53.296s8.428 1.917 2.404 3.65c-4.117 1.183-9.895 3.014-.449 4.728" stroke="#3E3F41" stroke-width=".889" stroke-linecap="round" stroke-linejoin="round"/><path d="M68.217 64.79l-9.124 2.562-.291-6.384 9.122-2.561c.838-.236 1.548.26 1.587 1.106l.152 3.318c.039.846-.608 1.723-1.446 1.958" fill="#D9568C"/><path d="M43.24 51.26a4.855 4.855 0 0 1 8.192-2.662 4.855 4.855 0 0 0-8.512 2.316 4.841 4.841 0 0 0 1.387 4.256 4.835 4.835 0 0 1-1.067-3.91" fill="#515252"/><path d="M56.48 62.308l5.34-8.911a3.84 3.84 0 0 1 5.265-1.32 3.832 3.832 0 0 1 1.32 5.26l-5.34 8.91a3.84 3.84 0 0 1-5.264 1.32 3.832 3.832 0 0 1-1.321-5.26" fill="#D9568C"/><path d="M57.539 71.274c.658 4.468 3.708 7.72 6.812 7.265 3.105-.457 5.09-4.448 4.432-8.916-.658-4.468-3.708-7.72-6.813-7.264-3.105.456-5.089 4.447-4.431 8.915" fill="#3E3F41"/><path d="M55.549 71.567c.657 4.468 3.707 7.72 6.812 7.264 3.105-.456 5.09-4.448 4.432-8.916-.658-4.468-3.708-7.72-6.813-7.264-3.105.456-5.089 4.448-4.431 8.916" fill="#3E3F41"/><path fill="#3E3F41" d="M64.144 78.569l-2.056.302-2.38-16.18 2.055-.302z"/><path d="M61.952 70.698c.455 3.091 2.081 5.412 3.631 5.185 1.55-.228 2.439-2.918 1.984-6.01-.455-3.09-2.08-5.41-3.63-5.183-1.551.228-2.44 2.918-1.985 6.008" fill="#959595"/><path fill="#959595" d="M65.48 75.898l-1.027.15-1.647-11.192 1.027-.151z"/><path d="M60.959 70.844c.455 3.091 2.08 5.412 3.63 5.184 1.551-.227 2.44-2.918 1.984-6.008-.454-3.091-2.08-5.412-3.63-5.184-1.551.227-2.44 2.918-1.984 6.008" fill="#CCCECD"/><path d="M62.974 70.587c.1.688.54 1.193.98 1.128.439-.064.714-.674.612-1.362-.1-.688-.54-1.193-.98-1.128-.44.064-.714.674-.612 1.362" fill="#3E3F41"/><path d="M75.55 59.237l-16.005-9.412a3.586 3.586 0 0 1-1.273-4.913l9.421-15.99a3.593 3.593 0 0 1 4.917-1.271l16.005 9.413a3.586 3.586 0 0 1 1.273 4.912l-9.422 15.99a3.594 3.594 0 0 1-4.917 1.271" fill="#FECA21"/><path d="M75.55 59.237l-16.005-9.412a3.586 3.586 0 0 1-1.273-4.913l9.421-15.99a3.593 3.593 0 0 1 4.917-1.271l16.005 9.413a3.586 3.586 0 0 1 1.273 4.912l-9.422 15.99a3.594 3.594 0 0 1-4.917 1.271z" stroke="#FEE38D" stroke-width="1.02"/><path d="M72.276 48.785c-3.099-1.97-4.308-5.56-3.081-9.195a2.328 2.328 0 0 1 1.416-1.45 2.327 2.327 0 0 1 2.014.197l9.074 5.51a2.316 2.316 0 0 1 1.104 1.695c.092.708-.14 1.41-.637 1.924-2.708 2.806-6.531 3.36-9.74 1.412a7.8 7.8 0 0 1-.15-.093" fill="#FEE38D"/><path d="M72.095 39.209a1.31 1.31 0 0 0-1.134-.112c-.379.138-.67.437-.799.818-1.086 3.221-.068 6.274 2.658 8.007l.136.085c2.828 1.717 6.076 1.238 8.475-1.25.28-.29.411-.685.36-1.084a1.307 1.307 0 0 0-.622-.954l-9.074-5.51z" fill="#FECA21"/><path d="M70.54 43.637c-1.256-.798-2.07-1.923-1.298-4.125a2.329 2.329 0 0 1 1.434-1.433 2.327 2.327 0 0 1 2.011.222l9.008 5.618a2.322 2.322 0 0 1 1.083 1.708 2.326 2.326 0 0 1-.66 1.916c-2.322 2.35-4.102.898-5.824-.507-.597-.487-1.216-.991-1.914-1.427-.7-.437-1.424-.77-2.124-1.091-.593-.273-1.193-.548-1.715-.88" fill="#FEE38D"/><path d="M72.147 39.166a1.311 1.311 0 0 0-1.133-.125c-.38.134-.675.428-.808.809-.755 2.15.214 2.701 2.477 3.741.695.32 1.483.682 2.238 1.153.753.472 1.426 1.019 2.019 1.502 1.93 1.575 2.85 2.202 4.452.58.284-.287.42-.68.372-1.08a1.308 1.308 0 0 0-.6-.956l-.01-.006-9.007-5.618z" fill="#FECA21"/><path d="M72.624 36.209a1.31 1.31 0 0 0-.027-.018l-.006-.003a1.574 1.574 0 0 0-2.18.586l-.004.006-.024.043a2.06 2.06 0 0 1-2.479.86 1.56 1.56 0 1 0-1.593 2.618c.732.66.89 1.75.378 2.594a1.567 1.567 0 0 0 .523 2.143 1.563 1.563 0 0 0 2.145-.523 2.06 2.06 0 0 1 2.478-.86 1.56 1.56 0 1 0 1.593-2.618 2.056 2.056 0 0 1-.378-2.594l.035-.053.006-.009c.231-.353.31-.79.218-1.2a1.55 1.55 0 0 0-.685-.972" fill="#FEE38D"/><path d="M72.076 37.069a.54.54 0 0 1 .162.751l-.06.093a3.076 3.076 0 0 0 .567 3.881.54.54 0 0 1-.552.906 3.083 3.083 0 0 0-3.709 1.285.54.54 0 0 1-.923-.56 3.076 3.076 0 0 0-.566-3.881.54.54 0 0 1 .551-.906 3.082 3.082 0 0 0 3.709-1.285l.046-.08a.561.561 0 0 1 .338-.266.549.549 0 0 1 .422.053l.006.003.01.006" fill="#FECA21"/><path d="M38.211 51.345a2.765 2.765 0 0 0-5.16-1.98m16.881 4.14a2.755 2.755 0 0 0-1.59-3.567 2.765 2.765 0 0 0-3.57 1.588" stroke="#3D3A39" stroke-width="1.817" stroke-linecap="round"/><path d="M50.784 36.863l-1.66-.28a.592.592 0 0 1-.484-.682l.24-1.424a.592.592 0 0 0-.485-.682l-1.819-.307a.592.592 0 0 0-.682.484l-.241 1.425a.592.592 0 0 1-.683.484l-1.24-.21a.592.592 0 0 0-.682.485l-.308 1.818a.592.592 0 0 0 .485.682l1.24.21c.323.054.54.359.486.681l-.25 1.472a.592.592 0 0 0 .486.682l1.819.308a.592.592 0 0 0 .682-.485l.25-1.472a.592.592 0 0 1 .682-.485l1.659.28a.592.592 0 0 0 .682-.485l.308-1.817a.592.592 0 0 0-.485-.682" fill="#F15A24"/></g></svg>