<svg width="100" height="100" viewBox="0 0 100 100" xmlns="http://www.w3.org/2000/svg" xmlns:xlink="http://www.w3.org/1999/xlink"><defs><path id="a" d="M.113.09h12.932v18.052H.113V.09z"/></defs><g fill="none" fill-rule="evenodd"><path d="M6.753 45.223a5.875 5.875 0 0 0-1.838-.043.364.364 0 0 1-.409-.425c1.16-6.394 7.286-10.637 13.68-9.476l.012.002c.33.06.494.43.331.723a7.657 7.657 0 0 0-.842 2.354c-.87 4.795 2.96 9.507 8.555 10.523.333.06.664.106.994.138.22.02.372.23.323.446-.198.875-.49 1.706-.864 2.485a.363.363 0 0 1-.364.203 8.825 8.825 0 0 0-7.873 3.368.366.366 0 0 1-.65-.166 4.708 4.708 0 0 0-5.764-3.856.37.37 0 0 1-.46-.366 5.884 5.884 0 0 0-4.83-5.91" fill="#27221F"/><path d="M28.795 50.729c0 1.398-.572 2.531-1.278 2.531-.705 0-1.277-1.133-1.277-2.531 0-1.399.572-2.532 1.277-2.532.706 0 1.278 1.133 1.278 2.532" fill="#27221F"/><path d="M54.064 15.313l8.172 10.119c.202.249.28.576.212.889l-1.245 5.807a1.061 1.061 0 0 1-1.038.839h-9.563c-.84 0-1.347-.93-.892-1.636l3.366-5.225c.133-.206.19-.451.162-.694l-1.054-9.313c-.12-1.055 1.213-1.612 1.88-.786" fill="#DC403E"/><g transform="translate(29.5 14.81)"><mask id="b" fill="#fff"><use xlink:href="#a"/></mask><path d="M8.52.488L.35 10.607a1.06 1.06 0 0 0-.213.89l1.246 5.806c.105.49.537.839 1.037.839h9.564c.84 0 1.346-.93.892-1.636L9.51 11.281a1.06 1.06 0 0 1-.163-.694l1.055-9.313C10.52.219 9.188-.338 8.52.488" fill="#DC403E" mask="url(#b)"/></g><path d="M76.322 66.44V40.975c0-5.797-4.7-10.495-10.495-10.495H40.363c-5.796 0-10.495 4.698-10.495 10.495v25.463c0 5.797 4.699 10.495 10.495 10.495h25.464c5.796 0 10.495-4.698 10.495-10.495" fill="#1796D1"/><path d="M29.868 51.135V66.44c0 5.797 4.699 10.495 10.495 10.495h25.464c5.796 0 10.495-4.698 10.495-10.495V51.135H29.868z" fill="#1796D1"/><path d="M81.299 77.373a2.294 2.294 0 0 0 1.007-1.932 14.312 14.312 0 0 0-2.222-7.473 14.31 14.31 0 0 0-5.808-5.201l-.724-.354a2.296 2.296 0 0 0-2.016 4.125l.724.354a9.72 9.72 0 0 1 5.455 8.61 2.296 2.296 0 0 0 3.584 1.87" fill="#33ADDC"/><path d="M17.614 77.373a2.293 2.293 0 0 1-1.008-1.932 14.311 14.311 0 0 1 8.03-12.674l.724-.354a2.296 2.296 0 0 1 2.016 4.125l-.724.354a9.721 9.721 0 0 0-5.455 8.61 2.296 2.296 0 0 1-3.584 1.87m39.467 7.761a2.623 2.623 0 0 0 1.963-3.149l-2.075-8.946-5.111 1.186 2.074 8.946a2.624 2.624 0 0 0 3.149 1.963m-13.029-.006a2.624 2.624 0 0 0 1.888-3.195l-2.288-8.894-5.082 1.307 2.287 8.894a2.624 2.624 0 0 0 3.195 1.888" fill="#1796D1"/><path d="M67.514 66.44V40.975c0-5.797-4.699-10.495-10.495-10.495H31.556c-5.797 0-10.496 4.698-10.496 10.495v25.463c0 5.797 4.7 10.495 10.496 10.495h25.463c5.796 0 10.495-4.698 10.495-10.495" fill="#33ADDC"/><path d="M31.556 72.343a5.91 5.91 0 0 1-5.904-5.904V40.976a5.91 5.91 0 0 1 5.904-5.904h25.463a5.91 5.91 0 0 1 5.904 5.904v25.463a5.91 5.91 0 0 1-5.904 5.904H31.556z" fill="#FFF"/><path d="M31.023 58.61a5.37 5.37 0 0 0-5.37-5.37v10.742a5.37 5.37 0 0 0 5.37-5.371m26.529-.001a5.37 5.37 0 0 1 5.37-5.37v10.742a5.37 5.37 0 0 1-5.37-5.371" fill="#EF92B7"/><path d="M33.52 49.588a3.576 3.576 0 1 1-7.152 0 3.576 3.576 0 0 1 7.152 0m28.842 0a3.576 3.576 0 1 1-7.152 0 3.576 3.576 0 0 1 7.152 0" fill="#514740"/><path d="M44.172 66.878c-5.765 0-10.455-4.69-10.455-10.455s4.69-10.455 10.455-10.455 10.455 4.69 10.455 10.455-4.69 10.455-10.455 10.455" fill="#6D6D6D"/><path d="M49.592 56.423a5.42 5.42 0 1 1-10.841 0 5.42 5.42 0 0 1 10.841 0m43.533-11.2a5.875 5.875 0 0 1 1.839-.043.364.364 0 0 0 .408-.425c-1.16-6.394-7.285-10.637-13.68-9.476l-.012.002a.489.489 0 0 0-.33.723c.4.722.688 1.511.841 2.354.871 4.795-2.96 9.507-8.554 10.523-.333.06-.665.106-.994.138a.367.367 0 0 0-.323.446c.198.875.49 1.706.864 2.485a.363.363 0 0 0 .364.203 8.825 8.825 0 0 1 7.872 3.368.366.366 0 0 0 .65-.166 4.708 4.708 0 0 1 5.764-3.856.37.37 0 0 0 .46-.366 5.884 5.884 0 0 1 4.831-5.91" fill="#27221F"/><path d="M71.084 50.729c0 1.398.572 2.531 1.277 2.531s1.277-1.133 1.277-2.531c0-1.399-.572-2.532-1.277-2.532s-1.277 1.133-1.277 2.532" fill="#27221F"/></g></svg>