<svg width="100" height="100" viewBox="0 0 100 100" xmlns="http://www.w3.org/2000/svg" xmlns:xlink="http://www.w3.org/1999/xlink"><defs><path id="a" d="M12.583.164H.106V26.37h12.477V.164z"/><path id="c" d="M0 81.236h92.797V.18H0z"/></defs><g transform="translate(3.6 9.3)" fill="none" fill-rule="evenodd"><path d="M88.812 35.554c-.826 1.407-2.593 1.903-3.948 1.108-1.355-.795-1.784-2.58-.958-3.988.825-1.407 2.593-1.903 3.948-1.108 1.354.795 1.783 2.58.958 3.988zm-8.68-5.095c-.826 1.407-2.593 1.903-3.948 1.108-1.355-.795-1.784-2.58-.958-3.988.825-1.407 2.593-1.904 3.948-1.108 1.354.795 1.783 2.58.958 3.988" fill="#FDFFFF"/><path d="M91.41 25.576l-4.906-2.88a2.808 2.808 0 0 0-3.843 1l-3.544 6.04 1.07.628 2.99-5.096a.656.656 0 0 1 .898-.234l6.478 3.803a.656.656 0 0 1 .234.898l-2.99 5.097 1.07.628 3.544-6.04a2.81 2.81 0 0 0-1-3.844" fill="#FDFFFF"/><g transform="translate(38.888 .016)"><mask id="b" fill="#fff"><use xlink:href="#a"/></mask><path fill="#FED600" mask="url(#b)" d="M9.853.164L.106 15.216H4.98L2.524 26.37l10.059-14.352-4.757.156z"/></g><path d="M29.011 70.017h27.63c5.45 0 9.867-4.42 9.867-9.87V32.508c0-5.451-4.417-9.87-9.867-9.87H29.01c-5.45 0-9.868 4.419-9.868 9.87v27.637c0 5.451 4.418 9.87 9.868 9.87" fill="#ACC953"/><path d="M62.562 59.945V32.308a5.922 5.922 0 0 0-5.921-5.922H29.01a5.922 5.922 0 0 0-5.92 5.922v27.637a5.921 5.921 0 0 0 5.92 5.923h27.63c3.27 0 5.92-2.652 5.92-5.923" fill="#FFF"/><path d="M55.63 77.999a1.974 1.974 0 0 0 1.515-2.345L54.867 65.04l-3.86.829 2.279 10.615A1.974 1.974 0 0 0 55.63 78m-22.452.7c1.09 0 1.973-.885 1.973-1.975V65.868h-3.947v10.857c0 1.09.884 1.974 1.974 1.974M14.006 63.903a4.651 4.651 0 0 1-.08-.037c-.922-.447-1.442-1.215-1.162-1.715l.534-.957c1.323-2.37 4.298-5.07 7.754-5.935l1.395-.35c.73-.182 1.83.193 2.457.838.627.646.543 1.317-.187 1.5l-1.395.349c-2.952.739-5.56 3.19-6.69 5.215l-.534.957c-.271.486-1.196.541-2.092.135" fill="#ACC953"/><mask id="d" fill="#fff"><use xlink:href="#c"/></mask><path fill="#FFF" mask="url(#d)" d="M23.094 58.09h3.944V50.2h-3.944z"/><path d="M69.387 37.723a1.727 1.727 0 0 1 1.726 1.809l-.086 1.82c-.212 4.512-1.7 10.664-4.3 14.356l-1.05 1.49a1.726 1.726 0 1 1-2.823-1.989l1.05-1.49c2.221-3.155 3.491-8.675 3.674-12.53l.085-1.82a1.727 1.727 0 0 1 1.724-1.646" fill="#ACC953" mask="url(#d)"/><path d="M72.946 42.734c1.533.329 2.737 1.424 3.532 3.214l.173.388m-3.705-6.304c1.533.33 2.737 1.425 3.532 3.214l.173.388" stroke="#FFF" stroke-width="1.02" stroke-linecap="round" stroke-linejoin="round" mask="url(#d)"/><path fill="#FFF" mask="url(#d)" d="M58.613 58.787h3.944v-7.89h-3.944z"/><path d="M35.693 46.647a2.935 2.935 0 1 1-5.87 0 2.935 2.935 0 0 1 5.87 0m19.74-.256a2.935 2.935 0 1 1-5.87.001 2.935 2.935 0 0 1 5.87 0m-10.666 6.492a4.336 4.336 0 0 1-5.316-3.058l8.373-2.26a4.337 4.337 0 0 1-3.057 5.318" fill="#514740" mask="url(#d)"/><path d="M47.822 49.837c-.58-.45-1.402-.627-2.22-.407-1.312.355-2.118 1.6-1.8 2.782.08.296.223.56.413.784a4.335 4.335 0 0 0 3.607-3.159" fill="#E06E58" mask="url(#d)"/><path d="M33.713 52.854h-5.53a.95.95 0 0 1-.947-.946v-.579a.95.95 0 0 1 .947-.946h5.53a.95.95 0 0 1 .946.946v.579a.95.95 0 0 1-.946.946m23.157-.288h-5.53a.95.95 0 0 1-.946-.946v-.579a.95.95 0 0 1 .946-.946h5.53a.95.95 0 0 1 .947.946v.579a.95.95 0 0 1-.947.946" fill="#F6BAA3" mask="url(#d)"/><path d="M29.696 36.598l6.82 2.37.996-.63-.605 2.495a.54.54 0 0 1-.64.401l-9.03-1.957 1.393-.578-1.093-1.213 1.56-.383-.595-.905 1.194.4zm25.661 0l-6.82 2.37-.995-.63.604 2.495a.54.54 0 0 0 .64.401l9.03-1.957-1.393-.578 1.093-1.213-1.56-.383.595-.905-1.194.4z" fill="#8FBB36" mask="url(#d)"/><path d="M19.593 67.03l-5.933.091a1.262 1.262 0 0 0-1.242 1.282l.177 11.59a1.263 1.263 0 0 0 1.281 1.243l5.934-.091a1.262 1.262 0 0 0 1.242-1.282l-.178-11.59a1.262 1.262 0 0 0-1.28-1.243m53.282-.812l-5.67.087a1.262 1.262 0 0 0-1.242 1.281l.178 11.588c.01.697.584 1.254 1.28 1.243l5.67-.087a1.262 1.262 0 0 0 1.242-1.281l-.177-11.589a1.262 1.262 0 0 0-1.281-1.242" fill="#49BFFF" mask="url(#d)"/><path d="M10.484 61.585l-6.488.1a.811.811 0 0 1-.823-.8l-.025-1.622a.811.811 0 0 1 .799-.824l6.488-.1a.811.811 0 0 1 .823.8l.025 1.622a.812.812 0 0 1-.799.824" fill="#F8563D" mask="url(#d)"/><path d="M19.405 64.724l-6.488.1a.811.811 0 0 1-.823-.8l-.025-1.622a.811.811 0 0 1 .799-.824l6.488-.1a.811.811 0 0 1 .823.8l.025 1.622a.811.811 0 0 1-.799.824" fill="#FBB03B" mask="url(#d)"/><path d="M28.326 59.673l-6.488.1a.811.811 0 0 1-.823-.8l-.025-1.622a.811.811 0 0 1 .799-.823l6.488-.1a.811.811 0 0 1 .823.8l.025 1.621a.811.811 0 0 1-.799.824" fill="#FED600" mask="url(#d)"/><path d="M37.248 61.01l-6.488.1a.811.811 0 0 1-.824-.799l-.025-1.622a.811.811 0 0 1 .799-.824l6.488-.1a.811.811 0 0 1 .823.8l.025 1.622a.811.811 0 0 1-.798.824" fill="#BFCF04" mask="url(#d)"/><path d="M46.169 62.675l-6.488.1a.811.811 0 0 1-.824-.799l-.025-1.622a.811.811 0 0 1 .799-.824l6.488-.1a.811.811 0 0 1 .823.8l.025 1.622a.811.811 0 0 1-.798.823" fill="#7BBD0D" mask="url(#d)"/><path d="M55.09 62.539l-6.488.1a.811.811 0 0 1-.824-.8l-.025-1.622a.811.811 0 0 1 .799-.824l6.488-.1a.811.811 0 0 1 .824.8l.024 1.622a.811.811 0 0 1-.798.824" fill="#18BEE9" mask="url(#d)"/><path d="M66.472 55.69l-6.294-1.58a.811.811 0 0 1-.589-.985l.395-1.574a.811.811 0 0 1 .984-.59l6.294 1.581c.434.11.698.55.589.985l-.395 1.573a.811.811 0 0 1-.984.59" fill="#E3669D" mask="url(#d)"/><path d="M72.932 62.265l-6.488.1a.811.811 0 0 1-.824-.8l-.024-1.622a.811.811 0 0 1 .798-.824l6.488-.1a.811.811 0 0 1 .824.8l.025 1.622a.811.811 0 0 1-.799.824" fill="#F8563D" mask="url(#d)"/><path d="M81.853 60.49l-6.488.1a.811.811 0 0 1-.823-.8l-.025-1.622a.811.811 0 0 1 .798-.823l6.488-.1a.811.811 0 0 1 .824.799l.025 1.622a.811.811 0 0 1-.799.824" fill="#FBB03B" mask="url(#d)"/><path d="M84.582 71.103L1.544 72.377a1.425 1.425 0 0 1-1.447-1.404L0 64.67a1.426 1.426 0 0 1 1.403-1.448l83.039-1.273a1.425 1.425 0 0 1 1.447 1.403l.096 6.304a1.426 1.426 0 0 1-1.403 1.447" fill="#49BFFF" mask="url(#d)"/><path fill="#198EC8" mask="url(#d)" d="M20.819 67.06l-8.457.13.14 9.12 8.456-.13zm53.282-.815l-8.192.126.14 9.12 8.192-.126z"/><path d="M84.584 71.236L1.546 72.509a1.426 1.426 0 0 1-1.447-1.404l-.057-3.729L85.93 66.06l.057 3.73a1.426 1.426 0 0 1-1.403 1.447" fill="#289EDE" mask="url(#d)"/></g></svg>