<svg width="100" height="100" viewBox="0 0 100 100" xmlns="http://www.w3.org/2000/svg" xmlns:xlink="http://www.w3.org/1999/xlink"><defs><path id="a" d="M7.815.075H.062v13.153h7.753V.075z"/><path id="c" d="M0 82.25h90V.075H0z"/><path d="M3.507.3C3.126.086 2.647.006 2.13.006 1.447.005.698.145.026.29v2.025h3.482V.3z" id="e"/><path d="M3.486.17C3.12.172 2.703.14 2.269.108 1.5.051.68-.006.004.128v1.736h3.482V.17z" id="g"/></defs><g fill="none" fill-rule="evenodd"><g transform="translate(5 8.875)"><g transform="translate(35.85)"><mask id="b" fill="#fff"><use xlink:href="#a"/></mask><path d="M2.423 4.107v5.089L4.965 6.65 2.423 4.107zm-1.18 9.12a1.178 1.178 0 0 1-1.18-1.18V1.255A1.181 1.181 0 0 1 2.076.42l5.392 5.395c.46.461.46 1.209 0 1.67L2.076 12.88a1.18 1.18 0 0 1-.835.347z" fill="#076BAF" mask="url(#b)"/></g><mask id="d" fill="#fff"><use xlink:href="#c"/></mask><path fill="#076BAF" mask="url(#d)" d="M34.502 24.018h2.491V.075h-2.492z"/><path d="M31.7 18.623a1.181 1.181 0 0 1-.834-2.016l4.557-4.56-4.557-4.56a1.181 1.181 0 0 1 1.669-1.67l5.392 5.394a1.182 1.182 0 0 1 0 1.67l-5.392 5.396a1.18 1.18 0 0 1-.835.346" fill="#076BAF" mask="url(#d)"/><path d="M38.273 14.897v5.09l2.542-2.545-2.542-2.545zm-1.18 9.121a1.178 1.178 0 0 1-1.18-1.18V12.046a1.181 1.181 0 0 1 2.014-.836l5.392 5.396c.46.46.46 1.209 0 1.67l-5.392 5.395a1.18 1.18 0 0 1-.835.346zm-7.948-5.395h2.491v-2.541h-2.491zm0-10.611h2.491V5.47h-2.491z" fill="#076BAF" mask="url(#d)"/><path d="M35.781 4.107v5.089l2.543-2.545-2.543-2.544zm-1.18 9.12a1.18 1.18 0 0 1-1.18-1.18V1.255A1.181 1.181 0 0 1 35.435.42l5.392 5.395a1.181 1.181 0 0 1 0 1.67l-5.392 5.395a1.18 1.18 0 0 1-.834.347z" fill="#458AC1" mask="url(#d)"/><path d="M29.209 18.623a1.181 1.181 0 0 1-.834-2.016l4.557-4.56-4.558-4.56a1.181 1.181 0 0 1 1.67-1.67l5.391 5.394a1.182 1.182 0 0 1 0 1.67l-5.392 5.396c-.23.23-.532.346-.834.346" fill="#458AC1" mask="url(#d)"/><path d="M35.781 14.897v5.09l2.543-2.545-2.543-2.545zm-1.18 9.121a1.179 1.179 0 0 1-1.18-1.18V12.046a1.181 1.181 0 0 1 2.014-.836l5.392 5.396c.461.46.461 1.209 0 1.67l-5.392 5.395a1.18 1.18 0 0 1-.834.346z" fill="#458AC1" mask="url(#d)"/><path d="M35.781 4.107v5.089l2.543-2.545-2.543-2.544zm-1.18 9.12a1.18 1.18 0 0 1-1.18-1.18V1.255A1.181 1.181 0 0 1 35.435.42l5.392 5.395a1.181 1.181 0 0 1 0 1.67l-5.392 5.395a1.18 1.18 0 0 1-.834.347z" fill="#458AC1" mask="url(#d)"/><path d="M35.781 14.897v5.09l2.543-2.545-2.543-2.545zm-1.18 9.121a1.179 1.179 0 0 1-1.18-1.18V12.046a1.181 1.181 0 0 1 2.014-.836l5.392 5.396c.461.46.461 1.209 0 1.67l-5.392 5.395a1.18 1.18 0 0 1-.834.346z" fill="#458AC1" mask="url(#d)"/><path d="M37.356 72.857a3.038 3.038 0 0 1-2.969-2.437L27.46 36.128c-.043-.135 4.122-.333 4.236-.25l34.77 31.769c2.05 1.873.72 5.29-2.057 5.283l-27.052-.073z" fill="#27221F" mask="url(#d)"/><path d="M90 70.289c0 4.96-3.315 8.98-7.403 8.98-4.089 0-7.403-4.02-7.403-8.98 0-4.96 3.314-8.981 7.403-8.981 4.088 0 7.403 4.02 7.403 8.98" fill="#ED7600" mask="url(#d)"/><path d="M80.287 62.577l-4.675-.746.275-.332c1.348-1.622 2.028-3.567 1.95-5.584l-.004-.105 2.215.354c-.726 1.893-.708 3.959.053 5.93l.186.483z" fill="#87B828" mask="url(#d)"/><path d="M78.237 78.042a3.49 3.49 0 1 1-3.488-3.49 3.49 3.49 0 0 1 3.488 3.49" fill="#27221F" mask="url(#d)"/><path d="M78.985 78.042a3.49 3.49 0 1 1-3.489-3.49 3.49 3.49 0 0 1 3.489 3.49" fill="#27221F" mask="url(#d)"/><path d="M60.506 72.215l4.858 3.241" stroke="#87B828" stroke-width=".623" mask="url(#d)"/><path fill="#F29739" mask="url(#d)" d="M68.541 76.266h-3.488v-1.745h3.488zM55.25 68.447l2.524-2.04a.928.928 0 0 1 1.49.524l.777 3.546a.929.929 0 0 1-1.292 1.044l-3.3-1.506a.93.93 0 0 1-.199-1.568m-1.334 1.914l5.198 2.371c1.096.5 2.292-.466 2.034-1.644l-1.223-5.583a1.462 1.462 0 0 0-2.346-.825l-3.975 3.212a1.463 1.463 0 0 0 .312 2.47"/><path d="M80.326 70.402c0 4.96-3.314 8.98-7.403 8.98-4.088 0-7.403-4.02-7.403-8.98 0-4.96 3.315-8.98 7.403-8.98 4.089 0 7.403 4.02 7.403 8.98" fill="#ED7600" mask="url(#d)"/><path d="M85.065 70.289c0 4.96-2.21 8.98-4.936 8.98s-4.936-4.02-4.936-8.98c0-4.96 2.21-8.981 4.936-8.981s4.936 4.02 4.936 8.98" fill="#F29739" mask="url(#d)"/><path d="M80.326 70.402c0 4.96-2.21 8.98-4.935 8.98-2.726 0-4.936-4.02-4.936-8.98 0-4.96 2.21-8.98 4.936-8.98s4.935 4.02 4.935 8.98" fill="#F29739" mask="url(#d)"/><path d="M80.326 70.402c0 4.96-1.193 8.98-2.665 8.98s-2.665-4.02-2.665-8.98c0-4.96 1.193-8.98 2.665-8.98s2.665 4.02 2.665 8.98" fill="#ED7600" mask="url(#d)"/><path d="M84.736 78.76a3.49 3.49 0 1 1-3.488-3.49 3.49 3.49 0 0 1 3.488 3.49" fill="#27221F" mask="url(#d)"/><path d="M85.484 78.76a3.49 3.49 0 1 1-3.488-3.49 3.49 3.49 0 0 1 3.488 3.49" fill="#27221F" mask="url(#d)"/><path d="M83.989 78.76a1.994 1.994 0 1 1-3.988 0 1.994 1.994 0 0 1 3.988 0" fill="#6D6D6D" mask="url(#d)"/><path d="M81.996 76.765c-.063 0-.126.004-.187.01a1.994 1.994 0 0 1 0 3.97 1.994 1.994 0 1 0 .187-3.98" fill="#4D4D4D" mask="url(#d)"/><path d="M82.743 78.76a.997.997 0 1 1-1.994 0 .997.997 0 0 1 1.994 0M68.495 68.709l.886-1.772a.993.993 0 0 1 1.776 0l.885 1.772a.993.993 0 0 1-.888 1.438h-1.77a.993.993 0 0 1-.889-1.438m8.232-.083l-.001.004-.21.42a.236.236 0 0 1-.422 0l-.21-.42a.228.228 0 0 1-.023-.092h-.98a.231.231 0 0 1-.024.092l-.21.42a.236.236 0 0 1-.422 0l-.186-.372a.994.994 0 0 0-.38 1.298l.886 1.771a.993.993 0 0 0 1.776 0l.885-1.771a.994.994 0 0 0-.479-1.35m2.096.344l1.147-2.294a.992.992 0 0 1 1.776 0l1.146 2.294a.993.993 0 0 1-.888 1.438h-2.293a.993.993 0 0 1-.888-1.438" fill="#27221F" mask="url(#d)"/><path d="M23.35 78.507c-.333.01-.639-.315-.655-.748v-.008c-.035-1.055 1.07-1.947 2.466-1.992 1.397-.046 2.557.771 2.592 1.826v.008c.012.433-.272.778-.605.789l-3.797.125z" fill="#87B828" mask="url(#d)"/><path d="M26.972 78.404l-3.071.104c-.058-1.728-.284-10.51.983-13.777 1.187-3.06 6.855-8.954 7.979-10.105l3.118 3.05c-2.537 2.597-6.395 6.993-7.032 8.634-.623 1.607-.79 6.874-.723 10.775a1.298 1.298 0 0 1-1.254 1.32m22.746-1.055c-.207.263-.653.286-.995.02a.195.195 0 0 0-.006-.005c-.828-.653-.798-2.073.067-3.17.866-1.1 2.238-1.46 3.066-.807l.007.005c.338.27.42.71.212.972l-2.351 2.985z" fill="#87B828" mask="url(#d)"/><path d="M51.973 74.514l-1.9 2.416c-1.358-1.069-8.214-6.556-9.893-9.63-1.574-2.88-2.426-11.017-2.58-12.618l4.34-.42c.35 3.614 1.222 9.4 2.066 10.945.826 1.512 4.744 5.034 7.768 7.497a1.3 1.3 0 0 1 .2 1.81M10.707 63.86a1.915 1.915 0 0 0 2.157 1.434c7.012-1.102 10.878-5.177 11.04-5.35a1.917 1.917 0 0 0-.095-2.709 1.914 1.914 0 0 0-2.7.089c-.065.067-3.221 3.3-8.84 4.184a1.916 1.916 0 0 0-1.562 2.353m46.117 4.774a1.755 1.755 0 0 1-2.435-.824c-2.405-5.347-6.105-7.826-6.142-7.85a1.76 1.76 0 0 1-.509-2.43 1.751 1.751 0 0 1 2.42-.517c.186.12 4.58 3.014 7.432 9.355.38.846.037 1.833-.766 2.266" fill="#87B828" mask="url(#d)"/><path d="M67.184 49.518V32.755c0-6.064-4.913-10.98-10.973-10.98H25.698c-6.06 0-10.973 4.916-10.973 10.98v16.763c0 6.064 4.912 10.98 10.973 10.98H56.21c6.06 0 10.973-4.916 10.973-10.98" fill="#87B828" mask="url(#d)"/><path d="M64.007 33.346c-.86 0-1.557.697-1.557 1.558v12.465a1.558 1.558 0 1 0 3.114 0V34.904c0-.86-.697-1.558-1.557-1.558" fill="#CCC" mask="url(#d)"/><path d="M63.384 33.476c-.55.24-.934.789-.934 1.428v12.465c0 .639.384 1.187.934 1.428.55-.24.934-.79.934-1.428V34.904c0-.639-.384-1.187-.934-1.428" fill="#DBDCDC" mask="url(#d)"/><path d="M60.83 49.518V32.755c0-6.064-4.913-10.98-10.972-10.98H19.344c-6.06 0-10.973 4.916-10.973 10.98v16.763c0 6.064 4.913 10.98 10.973 10.98h30.514c6.06 0 10.972-4.916 10.972-10.98" fill="#ACC953" mask="url(#d)"/><path d="M49.963 25.374H19.239a7.134 7.134 0 0 0-7.132 7.136v16.92a7.134 7.134 0 0 0 7.132 7.137h30.724a7.134 7.134 0 0 0 7.132-7.137V32.51a7.134 7.134 0 0 0-7.132-7.136" fill="#FFF" mask="url(#d)"/><path d="M44.873 46.06h-2.244a.97.97 0 0 1 0-1.94h2.244a.97.97 0 0 1 0 1.94m-18.301 0H24.33a.97.97 0 0 1 0-1.94h2.243a.97.97 0 0 1 0 1.94" fill="#EEC6C7" mask="url(#d)"/><path d="M30.735 40.097c.114 1.546-1.024 2.894-2.541 3.01-1.517.114-2.84-1.046-2.953-2.593-.114-1.547 1.023-2.895 2.54-3.01 1.518-.115 2.84 1.046 2.954 2.593m7.647 0c-.113 1.546 1.024 2.894 2.541 3.01 1.518.114 2.84-1.046 2.954-2.593.114-1.547-1.024-2.895-2.541-3.01-1.518-.115-2.84 1.046-2.954 2.593" fill="#514740" mask="url(#d)"/><path d="M26.273 32.416a.709.709 0 0 0-1.01.798 4.766 4.766 0 0 0 2.172 2.967 4.914 4.914 0 0 0 3.746.574.709.709 0 0 0-.336-1.377 3.5 3.5 0 0 1-2.674-.407 3.36 3.36 0 0 1-1.531-2.09.707.707 0 0 0-.367-.465m16.707.157a.709.709 0 0 1 .984.83A4.767 4.767 0 0 1 41.7 36.3a4.916 4.916 0 0 1-3.763.455.708.708 0 0 1 .38-1.365 3.5 3.5 0 0 0 2.685-.323 3.36 3.36 0 0 0 1.597-2.041.707.707 0 0 1 .38-.453" fill="#ACC953" mask="url(#d)"/><path d="M40.207 45.51c.228 3.096-2.103 4.94-5.101 5.168-2.998.228-5.89-1.27-6.117-4.365-.228-3.095 3.486-1.874 5.296-2.03 1.438-.125 5.694-1.868 5.922 1.227" fill="#514740" mask="url(#d)"/></g><g transform="translate(40.85 52.552)"><mask id="f" fill="#fff"><use xlink:href="#e"/></mask><path d="M3.507-.856s-.32 3.05-1.393 3.168C1.21 2.41.025-.003.025-.003l3.482-.853z" fill="#42AED2" mask="url(#f)"/></g><g transform="translate(35.45 53.002)"><mask id="h" fill="#fff"><use xlink:href="#g"/></mask><path d="M.004-1.306s.321 3.05 1.393 3.167c.904.1 2.089-2.314 2.089-2.314L.004-1.306z" fill="#42AED2" mask="url(#h)"/></g><path d="M40.106 59.553c2.17-.164 3.99-1.177 4.743-2.896a4.175 4.175 0 0 0-6.081 2.882c.438.043.886.049 1.338.014" fill="#DE6C6D"/><path fill="#27221F" d="M19.452 82.322L12.24 43.583l2.135-.398 7.212 38.74z"/><path d="M12.993 58.88a6.356 6.356 0 0 1-6.234-5.186l-1.105-5.936 2.135-.398 1.105 5.936a4.177 4.177 0 0 0 4.866 3.34l3.894-.726a4.18 4.18 0 0 0 3.338-4.869l-1.104-5.936 2.134-.398 1.106 5.936c.64 3.442-1.637 6.763-5.076 7.404l-3.894.726c-.391.072-.78.107-1.165.107" fill="#27221F"/><path fill="#27221F" d="M5 49.5l1.373-3.813 2.653 3.063zm14.234-2.652l1.372-3.814 2.653 3.064zM11.4 44.329l1.374-3.814 2.653 3.064zm7.277 38.579a1.955 1.955 0 1 0 3.843-.716 1.955 1.955 0 1 0-3.843.716"/><path d="M19.13 71.824c0 1.308-.893 2.369-1.994 2.369-1.1 0-1.993-1.06-1.993-2.369 0-1.308.892-2.368 1.993-2.368s1.993 1.06 1.993 2.368" fill="#ACC953"/><path d="M50.897 59.961s5.855-1.37 6.727-8.227m-2.519 8.954s-.318-3.24-3.93-4.196m7.066 3.293s-.493-5.021-6.092-6.503" fill="#514740"/></g></svg>