<svg width="100" height="100" viewBox="0 0 100 100" xmlns="http://www.w3.org/2000/svg" xmlns:xlink="http://www.w3.org/1999/xlink"><defs><path id="a" d="M40.635 8.5H.023V.016h40.612V8.5z"/><path id="c" d="M55.009.039H.049v84.98h54.96z"/><path d="M3.789.315a2 2 0 0 0-1.02-.25C1.941.065 1.02.433.246.75v1.873h3.543V.315z" id="e"/><path d="M3.672.294c-.272-.02-.56-.06-.858-.1C1.88.067.873-.06.129.413v1.308h3.543V.294z" id="g"/></defs><g fill="none" fill-rule="evenodd"><g transform="translate(34.9 84.861)"><mask id="b" fill="#fff"><use xlink:href="#a"/></mask><path d="M31.858 2.715h-6.08a.639.639 0 0 0 .002-.054c0-.314-.224-.51-.667-.582l-.538-.09.538-.088c.443-.073.667-.269.667-.582 0-.314-.224-.51-.667-.582L21.038.066a5.108 5.108 0 0 0-1.084-.037c-.325.022-1.002.068-1.002.619v.416L16.964.737a5.156 5.156 0 0 0-1.419 0c-.443.073-.668.268-.668.582 0 .313.225.51.668.582l.538.089-.538.089c-.443.072-.668.268-.668.582l.003.054H8.8c-2.06 0-8.777.133-8.777 1.85V6.65C.023 8.367 6.741 8.5 8.8 8.5h23.058c2.059 0 8.777-.133 8.777-1.85V4.565c0-1.717-6.718-1.85-8.777-1.85" fill-opacity=".3" fill="#4D4D4D" mask="url(#b)"/></g><g transform="translate(27.7 6.961)"><mask id="d" fill="#fff"><use xlink:href="#c"/></mask><path d="M29.517 19.177V17.8l.688.69-.688.688zm0-10.975V6.824l.688.69-.688.688zM27.529.04a1.982 1.982 0 0 0-1.987 1.988v6.176l-2.095-2.095a1.974 1.974 0 0 0-1.405-.582 1.99 1.99 0 0 0-1.405 3.393l4.08 4.08-4.082 4.082a1.99 1.99 0 0 0 1.406 3.393c.53 0 1.03-.207 1.405-.582l2.094-2.095v4.31H12.003C5.41 22.109.049 27.471.049 34.062v17.05c0 6.59 5.362 11.953 11.954 11.953h6.662l-.641 18.682a3.123 3.123 0 0 0 .952 2.385 3.203 3.203 0 0 0 2.238.887c.082 0 .165-.003.249-.009l1.117-.078c1.877-.133 3.355-1.742 3.296-3.589l-.59-18.278h1.161l.706 18.476c.07 1.844 1.657 3.344 3.538 3.344h1.12c.948 0 1.807-.374 2.417-1.052a3.114 3.114 0 0 0 .78-2.441l-1.925-18.327h3.115c.674 1.58 1.544 4.406 1.237 7.998a2.716 2.716 0 0 0 .634 1.995 2.715 2.715 0 0 0 2.094.974c1.407 0 2.603-1.1 2.723-2.503a22.647 22.647 0 0 0-.875-8.464h1.044c6.592 0 11.954-5.362 11.954-11.953v-17.05c0-6.59-5.362-11.953-11.954-11.953H32.206l2.216-2.215a1.99 1.99 0 0 0 0-2.811L30.34 13l4.082-4.082c.375-.375.582-.875.582-1.406 0-.53-.207-1.03-.582-1.405L28.935.621a1.975 1.975 0 0 0-1.406-.582zm1.201 21.037l2.588-2.588-2.588-2.587v5.175zm0-10.975l2.588-2.588-2.588-2.587V10.1zM27.529.825c.312 0 .62.122.85.352l5.486 5.487a1.2 1.2 0 0 1 0 1.699L29.228 13l4.638 4.638a1.2 1.2 0 0 1 0 1.699l-3.558 3.558h12.748c6.168 0 11.167 5 11.167 11.166v17.05c0 6.167-5 11.166-11.167 11.166h-2.132a21.654 21.654 0 0 1 1.18 9.184 1.95 1.95 0 1 1-3.884-.332c.356-4.176-.817-7.374-1.512-8.852H32.21l2.017 19.196a2.34 2.34 0 0 1-.583 1.833c-.46.51-1.11.791-1.833.791h-1.12c-1.463 0-2.697-1.16-2.752-2.587l-.735-19.233h-2.73l.616 19.09c.046 1.43-1.104 2.676-2.565 2.779l-1.118.079c-.065.005-.13.007-.193.007a2.405 2.405 0 0 1-1.692-.668 2.34 2.34 0 0 1-.712-1.791l.669-19.496h-7.476C5.835 62.278.836 57.28.836 51.112v-17.05c0-6.167 5-11.166 11.167-11.166h14.325V15.9l-3.437 3.437a1.198 1.198 0 0 1-1.699 0 1.2 1.2 0 0 1 0-1.699L25.831 13l-4.639-4.638a1.2 1.2 0 1 1 1.699-1.699l3.437 3.437V2.026a1.201 1.201 0 0 1 1.2-1.2z" fill="#534741" mask="url(#d)"/></g><path d="M56.43 11.887v5.176l2.588-2.588-2.588-2.588zm-1.201 9.276a1.2 1.2 0 0 1-1.2-1.201l-.001-10.975a1.201 1.201 0 0 1 2.05-.849l5.487 5.487c.47.47.47 1.23 0 1.7l-5.487 5.486a1.2 1.2 0 0 1-.85.352z" fill="#458AC1"/><path d="M49.742 26.65a1.2 1.2 0 0 1-.85-2.05l4.639-4.638-4.639-4.638a1.2 1.2 0 1 1 1.699-1.699l5.487 5.488a1.2 1.2 0 0 1 0 1.699l-5.487 5.487a1.198 1.198 0 0 1-.85.352" fill="#458AC1"/><path d="M56.43 22.862v5.175l2.588-2.587-2.588-2.588zm-1.201 9.276a1.201 1.201 0 0 1-1.2-1.201l-.001-10.975a1.201 1.201 0 0 1 2.05-.85l5.487 5.488a1.2 1.2 0 0 1 0 1.699l-5.487 5.487a1.2 1.2 0 0 1-.85.352z" fill="#458AC1"/><path d="M58.39 90.798h1.12c1.326 0 2.29-1.061 2.156-2.335l-2.04-19.415h-4.467l.742 19.415c.049 1.274 1.164 2.335 2.49 2.335m-9.303.128l1.119-.08c1.323-.092 2.362-1.23 2.32-2.508l-.626-19.448-4.459.315-.67 19.54c-.044 1.282.993 2.274 2.316 2.18" fill="#CCE561"/><path d="M58.39 90.798h1.12c1.326 0 2.29-1.061 2.156-2.335l-2.04-19.415h-4.467l.742 19.415c.049 1.274 1.164 2.335 2.49 2.335zm-9.302.128l1.119-.08c1.323-.092 2.362-1.23 2.32-2.508l-.626-19.448-4.459.315-.67 19.54c-.044 1.282.993 2.274 2.316 2.18z" stroke="#A9CC54" stroke-width=".524" stroke-linecap="round" stroke-linejoin="round"/><path d="M81.922 58.073v-17.05c0-6.167-5-11.166-11.167-11.166H39.702c-6.167 0-11.166 5-11.166 11.167v17.05c0 6.167 5 11.166 11.166 11.166h31.053c6.168 0 11.167-5 11.167-11.167" fill="#ACC953"/><path d="M70.862 33.517H39.596a7.259 7.259 0 0 0-7.259 7.258v17.208a7.258 7.258 0 0 0 7.259 7.258h31.266a7.258 7.258 0 0 0 7.258-7.258V40.775a7.258 7.258 0 0 0-7.258-7.258" fill="#FFF"/><path d="M68.545 54.798h-4.648a2.008 2.008 0 1 1 0-4.016h4.648a2.008 2.008 0 1 1 0 4.016m-22.009 0h-4.648a2.008 2.008 0 0 1 0-4.016h4.648a2.008 2.008 0 0 1 0 4.016" fill="#EEC6C7"/><path d="M45.547 45.11a.72.72 0 0 1-.72-1.093 4.848 4.848 0 0 1 3.046-2.17 5.003 5.003 0 0 1 3.803.645.72.72 0 1 1-.765 1.221 3.564 3.564 0 0 0-2.713-.462 3.416 3.416 0 0 0-2.148 1.528.72.72 0 0 1-.503.332" fill="#ACC953"/><path d="M50.918 48.693c.834-.155 1.244-.95.723-1.428-.684-.625-1.787-.926-2.943-.71-1.158.214-2.078.89-2.488 1.72-.312.633.354 1.226 1.187 1.072l3.52-.654zm9.014 0c-.834-.155-1.244-.95-.723-1.428.685-.625 1.787-.926 2.943-.71 1.158.214 2.078.89 2.488 1.72.312.633-.354 1.226-1.187 1.072l-3.52-.654z" fill="#514740"/><path d="M65.08 44.673a.72.72 0 0 0 .546-1.19 4.847 4.847 0 0 0-3.34-1.683 5.006 5.006 0 0 0-3.662 1.215.72.72 0 0 0 .942 1.091 3.564 3.564 0 0 1 2.611-.868 3.414 3.414 0 0 1 2.356 1.184.72.72 0 0 0 .547.25" fill="#ACC953"/><path d="M60.934 54.224c.232 5.752-2.14 9.181-5.191 9.604-3.051.423-5.993-2.36-6.225-8.111-.232-5.752 3.548-3.483 5.39-3.774 1.463-.231 5.795-3.47 6.026 2.281" fill="#514740"/><path d="M56.507 59.054c-1.71 0-3.177 1.667-3.809 4.045.929.625 1.979.878 3.045.73 1.492-.207 2.82-1.137 3.761-2.701-.754-1.275-1.816-2.074-2.997-2.074" fill="#DE6C6D"/><g transform="translate(55.9 50.761)"><mask id="f" fill="#fff"><use xlink:href="#e"/></mask><path d="M3.789-.786s-.327 3.28-1.417 3.405C1.452 2.726.246.131.246.131l3.543-.917z" fill="#42AED2" mask="url(#f)"/></g><g transform="translate(50.5 51.661)"><mask id="h" fill="#fff"><use xlink:href="#g"/></mask><path d="M.129-1.686s.326 3.28 1.417 3.405c.92.107 2.126-2.488 2.126-2.488L.129-1.686z" fill="#42AED2" mask="url(#h)"/></g><path d="M67.863 80.206a1.95 1.95 0 0 0 1.94-1.783c.615-7.197-2.47-12.008-2.602-12.209a1.949 1.949 0 0 0-3.267 2.126c.05.08 2.477 3.985 1.985 9.751a1.949 1.949 0 0 0 1.944 2.115M42.43 50.362a2.312 2.312 0 0 0-2.272 2.513c.668 7.69-1.995 12.918-2.022 12.97a2.316 2.316 0 0 0 .975 3.118 2.308 2.308 0 0 0 3.116-.96c.136-.257 3.33-6.407 2.539-15.53a2.313 2.313 0 0 0-2.336-2.111" fill="#ACC953"/><path d="M34.871 54.682a4.16 4.16 0 0 0-.362 1.212c-.21 1.466.332 2.756 1.212 2.883.88.126 1.763-.96 1.973-2.426a4.162 4.162 0 0 0-.007-1.265" fill="#29ABE2"/><path d="M34.871 54.682a4.16 4.16 0 0 0-.362 1.212c-.21 1.466.332 2.756 1.212 2.883.88.126 1.763-.96 1.973-2.426a4.162 4.162 0 0 0-.007-1.265" stroke="#458AC1" stroke-width=".524" stroke-linecap="round" stroke-linejoin="round"/><path d="M39.798 42.821a4.144 4.144 0 0 0-.172 1.254c.018 1.48.753 2.672 1.641 2.662.888-.011 1.594-1.22 1.576-2.7a4.142 4.142 0 0 0-.201-1.25" fill="#29ABE2"/><path d="M39.798 42.821a4.144 4.144 0 0 0-.172 1.254c.018 1.48.753 2.672 1.641 2.662.888-.011 1.594-1.22 1.576-2.7a4.142 4.142 0 0 0-.201-1.25" stroke="#458AC1" stroke-width=".524" stroke-linecap="round" stroke-linejoin="round"/><path d="M69.684 55.668a4.144 4.144 0 0 0-.17 1.253c.017 1.48.752 2.672 1.64 2.662.888-.01 1.594-1.22 1.576-2.7a4.15 4.15 0 0 0-.201-1.25" fill="#29ABE2"/><path d="M69.684 55.668a4.144 4.144 0 0 0-.17 1.253c.017 1.48.752 2.672 1.64 2.662.888-.01 1.594-1.22 1.576-2.7a4.15 4.15 0 0 0-.201-1.25" stroke="#458AC1" stroke-width=".524" stroke-linecap="round" stroke-linejoin="round"/><path d="M33.158 27.372a4.156 4.156 0 0 0-.56-1.134c-.843-1.217-2.119-1.793-2.85-1.287-.73.506-.637 1.903.206 3.12.258.372.556.683.866.922" fill="#29ABE2"/><path d="M33.158 27.372a4.156 4.156 0 0 0-.56-1.134c-.843-1.217-2.119-1.793-2.85-1.287-.73.506-.637 1.903.206 3.12.258.372.556.683.866.922" stroke="#458AC1" stroke-width=".524" stroke-linecap="round" stroke-linejoin="round"/><path d="M26.822 25.033a4.152 4.152 0 0 0-.733-1.03c-1.027-1.067-2.379-1.433-3.019-.817-.64.616-.327 1.98.7 3.048.314.325.658.585 1.003.772" fill="#29ABE2"/><path d="M26.822 25.033a4.152 4.152 0 0 0-.733-1.03c-1.027-1.067-2.379-1.433-3.019-.817-.64.616-.327 1.98.7 3.048.314.325.658.585 1.003.772" stroke="#458AC1" stroke-width=".524" stroke-linecap="round" stroke-linejoin="round"/><path d="M21.72 32.384a4.154 4.154 0 0 0-1.068-.678c-1.353-.602-2.743-.432-3.104.38-.36.812.444 1.958 1.797 2.56.413.183.83.294 1.219.338" fill="#29ABE2"/><path d="M21.72 32.384a4.154 4.154 0 0 0-1.068-.678c-1.353-.602-2.743-.432-3.104.38-.36.812.444 1.958 1.797 2.56.413.183.83.294 1.219.338" stroke="#458AC1" stroke-width=".524" stroke-linecap="round" stroke-linejoin="round"/><path d="M28.462 31.819a4.16 4.16 0 0 0-.942-.844c-1.237-.815-2.635-.875-3.124-.133-.49.742.117 2.004 1.353 2.82.378.248.77.425 1.148.532" fill="#29ABE2"/><path d="M28.462 31.819a4.16 4.16 0 0 0-.942-.844c-1.237-.815-2.635-.875-3.124-.133-.49.742.117 2.004 1.353 2.82.378.248.77.425 1.148.532" stroke="#458AC1" stroke-width=".524" stroke-linecap="round" stroke-linejoin="round"/><path d="M25.812 37.495a4.16 4.16 0 0 0-1.184-.447c-1.447-.313-2.773.137-2.96 1.006-.188.868.833 1.826 2.28 2.139.442.095.872.119 1.262.082" fill="#29ABE2"/><path d="M25.812 37.495a4.16 4.16 0 0 0-1.184-.447c-1.447-.313-2.773.137-2.96 1.006-.188.868.833 1.826 2.28 2.139.442.095.872.119 1.262.082" stroke="#458AC1" stroke-width=".524" stroke-linecap="round" stroke-linejoin="round"/></g></svg>