<svg width="120" height="120" viewBox="0 0 120 120" xmlns="http://www.w3.org/2000/svg" xmlns:xlink="http://www.w3.org/1999/xlink"><defs><path id="a" d="M0 .691h119.605v96.4H0z"/></defs><g fill="none" fill-rule="evenodd"><g transform="translate(0 11.4)"><mask id="b" fill="#fff"><use xlink:href="#a"/></mask><path d="M116.168 15.016c-2.696-3.606-6.58-5.862-10.939-6.354a15.865 15.865 0 0 0-1.754-.099c-5.91 0-11.354 3.44-14.256 8.704-9.288-4.852-17.973-5.614-19.415-5.71-.703-.112-3.202-.462-6.755-.462-3.528 0-8.587.354-14.083 1.871C47.226 6.434 41.902 1.546 35.21.789a15.78 15.78 0 0 0-1.756-.098C25.118.69 18.09 7.265 17.104 15.985c-.709 6.272 1.844 12.207 6.522 15.737-2.787 4.426-4.985 9.53-6.552 15.221-.067.219-.231.799-.393 1.667a5.223 5.223 0 0 0-.605.316 5.104 5.104 0 0 0-2.912-1.829 5.325 5.325 0 0 0-3.812.576 5.228 5.228 0 0 0-1.573 1.38c-2.635.034-4.84 1.98-5.14 4.553a3.374 3.374 0 0 0-.018.186c-.027.228-.03.458-.008.69l.009.076v.02c-1.9 1.08-2.98 3.266-2.514 5.464l.015.074.028.111.015.066a3.3 3.3 0 0 0 .2.592l.03.068c.075.177.157.344.249.506a8.414 8.414 0 0 0 1.257 1.794c.1 3.31 1.123 6.691 2.999 9.868 7.766 13.16 23.259 20.727 35.172 21.812a3.093 3.093 0 0 0 2.947 2.157H87.7a3.092 3.092 0 0 0 2.633-4.713 98.057 98.057 0 0 0-4.642-6.846c9.59-1.578 16.87-5.237 21.69-10.911 6.36-7.488 6.01-15.813 5.943-16.805-.265-6.042-1.322-11.643-3.15-16.698 5.045-2.526 8.642-7.638 9.317-13.605.51-4.512-.67-8.95-3.322-12.496" fill="#000" mask="url(#b)"/></g><path d="M72.503 105.398l-1.134-3.968 6.828-8.881s4.952 5.465 9.503 12.85H72.503z" fill="#222"/><path fill="#222" d="M43.02 105.398l.962-14.74h34.215l.96 14.74zM20.177 27.731c-.87 7.704 4.295 14.613 11.535 15.43 7.24.818 13.816-4.765 14.685-12.469.871-7.704-4.293-14.612-11.535-15.43-7.24-.817-13.815 4.765-14.685 12.47m70.019 7.872c-.869 7.704 4.295 14.612 11.536 15.43 7.24.818 13.815-4.766 14.684-12.47.871-7.704-4.293-14.611-11.534-15.43-7.24-.816-13.815 4.766-14.686 12.47"/><path d="M20.043 59.208C31.037 19.166 69.46 26.033 69.46 26.033s38.988 1.875 40.775 43.36c0 0 2.614 30.382-48.45 24.615-51.066-5.767-41.742-34.8-41.742-34.8" fill="#FFF"/><path d="M65 65.352a8.04 8.04 0 0 0 3.481-.485c2.197-.826 4.548.9 4.387 3.241a6.04 6.04 0 0 1-.021.242c-.422 4.277-4.128 6.731-8.419 6.486-4.537-.26-8.009-3.427-7.645-7.931l.006-.058c.207-2.354 2.803-3.708 4.853-2.533A8.01 8.01 0 0 0 65 65.352" fill="#222"/><path d="M70.408 73.037c-1.548 1.285-3.68 1.93-5.98 1.798-2.469-.14-4.62-1.144-6.012-2.755a7.554 7.554 0 0 1 6.241-2.488 7.549 7.549 0 0 1 5.751 3.445" fill="#F2616B"/><path d="M91.013 33.258c-.296-.188-.592-.356-.89-.534a143.979 143.979 0 0 1-1.125 5.136c-2.523 10.533-5.427 16.67-8.398 17.748-7.668 2.787-21.672 1.206-28.272-3.19-3.983-2.65-4.932-14.877-5.004-24.315-.322.11-.643.224-.966.342.058 9.535 1.025 21.902 5.449 24.846 3.398 2.264 8.703 3.803 14.142 4.417 5.437.615 11.01.305 14.952-1.128 4.832-1.754 8.196-13.905 10.112-23.322" fill="#E6E6E6"/><path d="M87.383 42.815a9.864 9.864 0 0 1 1.79.374l.01.004a9.79 9.79 0 0 1 1.62.66c11.087 5.042 12.66 18.495 12.66 18.495h-.002c.16 1.017.191 2.074.069 3.151-.688 6.095-5.89 10.511-11.617 9.864l-8.102-.915c-5.728-.647-9.813-6.111-9.125-12.205l1.08-9.565c.689-6.094 5.89-10.51 11.617-9.863M60.941 56.503c.206-1.834 1.786-3.175 3.51-2.98l3.763.425c1.723.194 2.963 1.853 2.756 3.687l-.014.128a3.454 3.454 0 0 1-1.186 2.25h-.001l-1.049.902-1.032.877a3.084 3.084 0 0 1-2.348.733 3.083 3.083 0 0 1-2.127-1.238l-.811-1.085-.822-1.114a3.45 3.45 0 0 1-.653-2.458l.014-.127z" fill="#222"/><path d="M8.988 71.406c-.154-.654-.672-1.169-1.354-1.347l-.025-.005c-.435-.121-.637-.533-.639-.537a.094.094 0 0 0-.012-.02c-.394-.751-1.275-1.142-2.153-.954a2.034 2.034 0 0 0-1.255.826 1.798 1.798 0 0 0-.295 1.406l.01.037c.009.04.02.08.032.12 0 .01 0 .02.003.029a.082.082 0 0 0 .006.017l.039.085c.035.088.077.176.124.252 1.365 2.648 3.67 2.404 3.693 2.401.007 0 .012 0 .017-.002.099-.009.187-.02.269-.038 1.066-.23 1.76-1.23 1.549-2.232l-.009-.038z" fill="#FFF"/><path d="M3.142 70.84c.008.035.018.071.03.108a.237.237 0 0 0 .019.077c.007.02.016.038.024.055l.014.029c.038.095.08.18.128.26 1.406 2.72 3.72 2.477 3.818 2.465l.02-.003a2.32 2.32 0 0 0 .278-.04c1.133-.243 1.873-1.308 1.646-2.375l-.009-.039c-.163-.695-.713-1.242-1.432-1.43l-.013-.003c-.394-.108-.579-.476-.58-.48a.456.456 0 0 0-.018-.03c-.42-.793-1.356-1.206-2.288-1.007-1.133.244-1.872 1.308-1.646 2.374l.009.038zm.244-.059l-.008-.032c-.198-.94.45-1.877 1.45-2.09.847-.183 1.673.213 2.026.91l.002-.002s.22.463.733.604h.004c.62.161 1.124.629 1.273 1.263a.423.423 0 0 1 .007.036c.2.94-.45 1.876-1.45 2.09-.091.02-.182.03-.272.037l-.001.002s-2.225.266-3.572-2.344a1.714 1.714 0 0 1-.118-.242l-.04-.084.007-.002a1.236 1.236 0 0 1-.041-.146z" fill="#C1C1C1"/><path d="M11.012 67.052a1.791 1.791 0 0 0-.81-1.114l-.012-.008c-.298-.191-.401-.512-.43-.64a.42.42 0 0 1-.014-.065c0-.005-.004-.019-.005-.023a1.692 1.692 0 0 0-.024-.126c-.182-.775-.867-1.34-1.706-1.407-1.08-.084-2.057.68-2.177 1.704-.005.055-.01.11-.01.163a.113.113 0 0 0-.008.046l.012.093c.003.095.016.191.036.28.022.15.051.303.086.451.593 2.53 2.553 2.898 2.636 2.913a2.057 2.057 0 0 0 1.732-.393c.411-.322.67-.772.728-1.268a1.762 1.762 0 0 0-.034-.606" fill="#FFF"/><path d="M5.828 66.435c.61 2.603 2.645 2.985 2.731 3a2.162 2.162 0 0 0 .296.045c1.15.09 2.187-.724 2.315-1.813a1.873 1.873 0 0 0-.036-.643c-.115-.49-.42-.91-.856-1.183l-.011-.006c-.266-.172-.358-.459-.385-.574-.008-.03-.01-.05-.011-.053a.093.093 0 0 0-.005-.024c0-.003 0-.007-.002-.012a1.842 1.842 0 0 0-.025-.125c-.193-.824-.923-1.425-1.814-1.496-1.15-.09-2.187.724-2.315 1.813-.005.05-.01.1-.01.152-.009.026-.01.052-.009.08a1 1 0 0 0 .008.06l.003.03c.006.103.018.198.037.288.024.157.054.312.089.46m.244-.056a5.796 5.796 0 0 1-.086-.45 1.545 1.545 0 0 1-.034-.267c-.003-.031-.009-.06-.01-.093h.006c0-.062.004-.123.01-.184.113-.962 1.026-1.677 2.039-1.596.807.063 1.432.611 1.598 1.317.01.045.018.09.026.137h.001s.003.029.015.077c.035.151.15.498.486.712a1.639 1.639 0 0 1 .799 1.617c-.113.96-1.026 1.675-2.039 1.596a1.945 1.945 0 0 1-.27-.043l-.001.001s-1.956-.34-2.54-2.824" fill="#C1C1C1"/><path d="M14.828 65.138a1.783 1.783 0 0 0-.58-.947l-.011-.01a.989.989 0 0 1-.295-.516c-.033-.14-.03-.245-.03-.246a1.73 1.73 0 0 0-.048-.427c-.159-.68-.7-1.202-1.414-1.363a2.08 2.08 0 0 0-1.496.228 1.93 1.93 0 0 0-.953 1.316.089.089 0 0 0-.014.044l-.004.095a1.62 1.62 0 0 0-.009.28c-.004.436.04.855.13 1.239.458 1.956 1.954 2.467 2.018 2.489l.017.003c.094.036.175.06.256.079a2.08 2.08 0 0 0 1.495-.227c.456-.262.78-.672.917-1.156.08-.29.088-.594.02-.88" fill="#FFF"/><path d="M9.981 64.86c.475 2.017 2.031 2.55 2.097 2.571a2.216 2.216 0 0 0 1.875-.156c.484-.278.83-.714.975-1.23a1.89 1.89 0 0 0 .022-.936 1.89 1.89 0 0 0-.612-1.003l-.01-.008a.866.866 0 0 1-.263-.46c-.029-.125-.027-.218-.027-.218 0-.012 0-.024-.002-.037 0-.14-.016-.282-.05-.42-.168-.722-.745-1.277-1.505-1.449a2.21 2.21 0 0 0-1.59.241 2.058 2.058 0 0 0-1.01 1.38.223.223 0 0 0-.019.079l-.003.06-.001.03c-.011.103-.014.2-.01.292-.003.447.041.873.133 1.263m.244-.058a5.116 5.116 0 0 1-.126-1.217 1.72 1.72 0 0 1 .009-.27c0-.031.002-.06.004-.092h.005c.011-.06.024-.121.042-.181.262-.939 1.273-1.519 2.258-1.296.69.156 1.182.663 1.326 1.275.03.13.044.263.043.398h.001s-.004.118.034.277c.04.175.132.4.334.578l.001.001c.277.236.468.548.55.893.06.262.059.543-.02.824-.263.938-1.274 1.518-2.26 1.295a1.709 1.709 0 0 1-.259-.08v.002s-1.491-.49-1.942-2.407" fill="#C1C1C1"/><path d="M17.1 67.699c.695.436 1.631.29 2.226-.35.186-.2.326-.435.416-.698l.043-.124h.002l.438-1.275.04-.125c.229-.668.07-1.4-.407-1.865a1.635 1.635 0 0 0-.274-.216c-.695-.436-1.63-.29-2.225.35-.187.2-.326.435-.417.698l-.046.136-.002-.001-.434 1.265-.04.123c-.229.669-.07 1.401.406 1.866.084.082.176.155.274.216" fill="#FFF"/><path d="M19.656 62.932c-.734-.461-1.736-.325-2.387.375a2.1 2.1 0 0 0-.448.749h-.002l-.523 1.524h.002c-.238.697-.095 1.481.438 2 .09.09.19.168.293.233.734.46 1.736.325 2.387-.375.207-.223.355-.48.447-.75h.002l.523-1.523h-.002c.239-.698.095-1.482-.437-2.001-.09-.09-.19-.166-.293-.232m-.143.227c.09.058.177.126.254.201.441.43.59 1.11.378 1.73l-.088.252.003.001-.35 1.018-.089.252a1.793 1.793 0 0 1-.386.648c-.551.592-1.42.729-2.063.324a1.49 1.49 0 0 1-.254-.2c-.442-.432-.59-1.11-.378-1.73l.088-.254h-.003l.35-1.017.089-.253a1.8 1.8 0 0 1 .386-.648c.551-.592 1.418-.728 2.063-.324" fill="#C1C1C1"/><path d="M7.563 82.95c-4.572-7.75-2.956-16.373 3.789-18.857 2.985-1.099 6.566-.938 8.959 2.85 0 0 9.257 19.72 28.353 24.944 2.357 1.116-3.33 11.488-5.699 11.49-10.662 0-27.269-6.648-35.402-20.428" fill="#222"/><path d="M22.99 71.598c.264.407.548.833.85 1.275-2.134 7.035-7.852 12.012-14.505 12.78l-.047-.063c-.176-.246-.346-.498-.517-.75-.079-.117-.16-.231-.237-.35 6.773-.459 12.635-5.603 14.456-12.892m9.967 11.614c.331.29.67.577 1.017.862-1.418 6.278-5.795 11.264-11.46 13.263-.16-.093-.323-.185-.485-.28-.063-.038-.127-.074-.19-.113-.246-.147-.492-.3-.736-.454 5.965-1.638 10.606-6.764 11.854-13.278" fill="#6D6D6D"/><path d="M85.406 36.016c-.157-.884-.96-1.454-1.793-1.274l-4.562.705v.005c-.024.004-.05.002-.075.008-.977.21-1.62 1.22-1.435 2.255.184 1.035 1.126 1.704 2.103 1.494.026-.006.05-.018.077-.026l.002.008 4.458-1.252c.835-.179 1.382-1.04 1.225-1.923M58.082 33.1c-.023-.01-.048-.015-.072-.024l.003-.006-4.29-1.704c-.773-.36-1.684.017-2.033.842-.35.826-.008 1.788.765 2.148l4.068 2.214.002-.006c.025.012.045.03.07.042.905.423 1.972-.02 2.383-.987.41-.968.01-2.096-.896-2.518" fill="#222"/><path d="M43.07 105.398c7.406-6.115 18.11-5.355 18.11-5.355s10.574-.754 17.975 5.244l.008.111H43.07z" fill="#FFF"/><path d="M48.238 38.394a9.864 9.864 0 0 0-1.827-.034h-.001l-.011.001a9.906 9.906 0 0 0-1.726.282c-11.934 2.442-16.465 15.206-16.465 15.206a11.8 11.8 0 0 0-.77 3.058C26.75 63 30.837 68.466 36.564 69.113l8.102.915c5.729.647 10.929-3.77 11.617-9.864l1.08-9.565c.689-6.094-3.397-11.558-9.124-12.205" fill="#222"/><path d="M84.315 68.668c4.858.849 9.454-2.569 10.094-7.569l.184-1.43c.632-4.933-2.866-9.433-7.66-10.03-4.68-.583-8.983 2.768-9.673 7.474l-.2 1.364c-.699 4.766 2.517 9.363 7.255 10.191" fill="#FFF"/><path d="M79.384 58.127c-.547 3.801 1.792 7.374 5.287 7.96 3.558.598 6.913-2.125 7.427-6.062.511-3.906-1.983-7.43-5.508-7.892-3.463-.454-6.661 2.221-7.206 5.994" fill="#222"/><path d="M80.385 53.804c-.24 1.741.863 3.348 2.474 3.586 1.624.24 3.14-1.003 3.373-2.771.232-1.762-.902-3.359-2.52-3.57-1.605-.211-3.088 1.02-3.327 2.755M45.386 64.729c4.84.328 9.08-3.456 9.502-8.369l.121-1.405c.417-4.861-3.065-9.206-7.81-9.701-4.831-.504-9.258 3.148-9.763 8.162l-.146 1.45c-.51 5.07 3.168 9.528 8.096 9.863" fill="#FFF"/><path d="M52.643 55.458c-.342 3.911-3.476 6.894-7.04 6.635-3.61-.263-6.25-3.744-5.855-7.746.392-3.977 3.627-6.89 7.185-6.536 3.512.35 6.05 3.76 5.71 7.647" fill="#222"/><path d="M46.734 50.114c-.156 1.765-1.568 3.087-3.163 2.947-1.606-.14-2.777-1.704-2.611-3.487.164-1.779 1.598-3.087 3.192-2.928 1.585.158 2.737 1.708 2.582 3.468" fill="#FFF"/></g></svg>