<svg width="120" height="120" viewBox="0 0 120 120" xmlns="http://www.w3.org/2000/svg"><g fill="none" fill-rule="evenodd"><path fill="#231F20" d="M15.1 102.754h2.908l9.355-16.106h-9.355z"/><path d="M111.744 21.585c0-1.977-1.583-3.582-3.535-3.582H10.84c-1.952 0-3.535 1.605-3.535 3.582L4.366 58.849h110.317l-2.939-37.264zM3.57 68.956l-.746 9.474h113.402l-.747-9.474z" fill="#FAA519"/><path fill="#FF2700" d="M114.683 58.85H4.366L3.57 68.955h111.91zM2.317 84.851c0 1.977 1.583 3.58 3.535 3.58h107.345c1.952 0 3.535-1.603 3.535-3.58l-.506-6.42H2.824l-.507 6.42z"/><path d="M46.378 79.85c0 1.975-1.583 3.578-3.534 3.578h-21.3c-1.953 0-3.536-1.603-3.536-3.579V30.01c0-1.98 1.583-3.584 3.536-3.584h21.3c1.951 0 3.534 1.605 3.534 3.584v49.84z" fill="#FD0"/><path d="M39.725 30.847h-1.917c-1.184 9.03-7.95 16.268-16.682 18.016v.827c0 1.976 1.583 3.58 3.535 3.58h15.064c1.953 0 3.535-1.604 3.535-3.58V34.428c0-1.979-1.582-3.581-3.535-3.581" fill="#B9E5FA"/><path d="M37.808 30.847H24.66c-1.952 0-3.535 1.602-3.535 3.58v14.436c8.733-1.748 15.498-8.986 16.682-18.016" fill="#FFF"/><path d="M70.463 26.424h-1.158c.076.736.118 1.48.118 2.24 0 11.666-9.29 21.126-20.783 21.228.506 1.763 2.095 3.062 4 3.062h17.823c2.308 0 4.182-1.895 4.182-4.238V30.664c0-2.339-1.874-4.24-4.182-4.24" fill="#B9E5FA"/><path d="M69.423 28.663c0-.758-.041-1.503-.118-2.239H52.64c-2.31 0-4.184 1.901-4.184 4.24v18.052c0 .414.075.8.183 1.176 11.493-.102 20.783-9.562 20.783-21.229" fill="#FFF"/><path d="M100.236 26.591h-1.158c.076.734.118 1.479.118 2.237 0 11.665-9.29 21.129-20.783 21.229.506 1.765 2.095 3.06 4 3.06h17.823c2.308 0 4.182-1.895 4.182-4.234V30.826c0-2.338-1.874-4.235-4.182-4.235" fill="#B9E5FA"/><path d="M99.196 28.828a21.4 21.4 0 0 0-.118-2.237H82.413c-2.31 0-4.183 1.897-4.183 4.235v18.057c0 .41.076.798.183 1.173 11.493-.1 20.783-9.563 20.783-21.228" fill="#FFF"/><path d="M90.74 86.648c0 8.894-7.119 16.106-15.9 16.106-8.782 0-15.9-7.212-15.9-16.106 0-8.895 7.118-16.107 15.9-16.107 8.781 0 15.9 7.212 15.9 16.107" fill="#231F20"/><path d="M82.322 86.648c0 4.183-3.35 7.578-7.482 7.578-4.133 0-7.483-3.395-7.483-7.578 0-4.186 3.35-7.582 7.483-7.582 4.131 0 7.482 3.396 7.482 7.582" fill="#FFF"/></g></svg>