<svg width="120" height="120" viewBox="0 0 120 120" xmlns="http://www.w3.org/2000/svg" xmlns:xlink="http://www.w3.org/1999/xlink"><defs><path id="a" d="M0 1.228h119.637v60.288H0z"/></defs><g fill="none" fill-rule="evenodd"><path d="M83.943 96.17c0 10.235-14.225 12.602-24.46 12.602-10.232 0-24.455-2.367-24.455-12.602l5.93-33.433c0-10.233 8.293-18.53 18.526-18.53 10.234 0 18.53 8.297 18.53 18.53l5.929 33.433z" fill="#D5C9B3"/><g transform="translate(0 11.272)"><mask id="b" fill="#fff"><use xlink:href="#a"/></mask><path d="M117.262 53.884c-11.278 18.903-25.651-4.66-57.294-4.66-31.644 0-44.472 24.223-57.295 4.66-13.286-20.27 25.651-52.656 57.295-52.656 31.643 0 69.596 32.039 57.294 52.656" fill="#CBBBA0" mask="url(#b)"/></g></g></svg>