<svg width="480" height="360" viewBox="0 0 480 360" xmlns="http://www.w3.org/2000/svg" xmlns:xlink="http://www.w3.org/1999/xlink"><defs><path id="a" d="M.49 319.854h479.36V.28H.49z"/></defs><g fill="none" fill-rule="evenodd"><path fill="#85CDDD" d="M.49 359.213h479.36v-91.186H.49z"/><path fill="#FFF1D0" d="M.49 268.027h479.36V0H.49z"/><g transform="translate(0 39.36)"><path d="M13.11 153.667c-1.369 3.043-3.528 9.06.88 8.943 4.355-.115 2.278-5.897.875-8.895-1.062-2.27-.771-2.232-1.754-.048" fill="#17683D"/><path d="M17.3 154.466c-1.11 2.464-2.86 7.339.712 7.244 3.528-.093 1.846-4.777.71-7.205-.861-1.838-.626-1.808-1.422-.039" fill="#24884A"/><path d="M.772 159.46s6.987 2.329 21.173-4.023c14.186-6.352 34.936.212 46.157 29.43 2.633 6.855 7.33 13.244 10.903 18.964 6.492 10.39 13.707 18.575 20.813 23.343 13.62 9.136 17.933.174 30.92 6.574 8.586 4.231 14.859 11.887 14.859 11.887l-38.536 7.622-106.289-.423s-.635-94.01 0-93.374" fill="#5F9E62"/><path d="M57.669 227.177c-1.554 3.451-4.004 10.279.998 10.146 4.94-.131 2.584-6.692.992-10.091-1.205-2.575-.875-2.532-1.99-.055" fill="#17683D"/><path d="M62.963 229.295c-1.554 3.45-4.005 10.278.997 10.145 4.94-.131 2.584-6.69.993-10.091-1.205-2.575-.876-2.532-1.99-.054" fill="#24884A"/><path d="M14.581 196.37c-1.553 3.451-4.004 10.279.999 10.146 4.94-.132 2.583-6.692.992-10.091-1.205-2.575-.875-2.533-1.99-.055" fill="#17683D"/><path d="M111.954 252.29l-4.893.967-106.289-.423s-.19-28.245-.258-53.666c8.094 2.535 28.098 8.82 42.181 23.6 6.406 6.723 14.169 9.476 21.007 10.321 14.894 1.84 23.123-8.084 36.087 1.237 4.21 3.029 8.386 8.055 11.719 16.18l.446 1.784z" fill="#378939"/><path d="M10.576 219.51c-.737-.843 1.091-1.522 1.353-2.24.133-.362.8-1.067.945-1.92.115-.683 1.944-1.057 2.69-1.953.583-.7 1.914-.924 2.237.11.183.585 1.243 1.513 1.866 1.068.38-.271 1.136-.089 1.376.246 1.096 1.53.172.838 1.989 1.791.824.432 1.223 2.938.29 2.937l-12.451-.007c-.055 0-.262.008-.295-.032" fill="#004127"/><path d="M10.024 219.546c-.297-.365.516-1.334.782-1.595a5.47 5.47 0 0 0 .31-.282c.343-.29.721-.55 1.1-.82.591-.422.334.707 1.645-1.164.619-.884 2.024-.675 2.615.414.773 1.423 3.253 3.376 2.535 3.447h-8.987z" fill="#17683D"/><mask id="b" fill="#fff"><use xlink:href="#a"/></mask><path fill="#694727" mask="url(#b)" d="M10.761 203.948h.9v-2.62h-.9zm31.338 22.444h.899v-2.621h-.9z"/><path d="M48.395 178.185c.68-.78-1.011-1.408-1.253-2.073-.123-.336-.74-.988-.874-1.776-.107-.633-1.8-.979-2.49-1.808-.54-.649-1.77-.854-2.07.102-.17.542-1.15 1.4-1.727.988-.351-.25-1.052-.082-1.273.228-1.014 1.415-.159.775-1.841 1.657-.763.4-1.133 2.72-.269 2.718l11.523-.007c.05 0 .242.008.274-.029" fill="#004127" mask="url(#b)"/><path d="M49.416 178.21c.276-.338-.525-1.223-.772-1.465a4.5 4.5 0 0 1-.287-.261c-.317-.268-.667-.509-1.017-.759-.547-.39-.31.654-1.523-1.077-.572-.818-1.873-.625-2.42.382-.715 1.318-3.01 3.125-2.346 3.192h.363l8.002-.011z" fill="#17683D" mask="url(#b)"/><path d="M10.241 191.712c-1.554 3.451-4.004 10.278.998 10.145 4.94-.13 2.584-6.69.992-10.09-1.204-2.575-.875-2.533-1.99-.055m31.336 22.443c-1.553 3.451-4.004 10.279.999 10.146 4.94-.131 2.583-6.69.992-10.09-1.205-2.575-.875-2.533-1.99-.056" fill="#004127" mask="url(#b)"/><path d="M358.136 211.933c-1.553 3.45-4.004 10.278.998 10.145 4.94-.132 2.584-6.691.993-10.09-1.206-2.575-.876-2.533-1.991-.055" fill="#24884A" mask="url(#b)"/><path d="M363.43 214.05c-1.554 3.45-4.005 10.278.998 10.145 4.94-.13 2.583-6.69.992-10.09-1.205-2.575-.875-2.533-1.99-.055" fill="#17683D" mask="url(#b)"/><path d="M238.051 275.066s-2.753-2.965 3.599-8.258c7.38-6.15 13.845-9.534 21.162-12.783 4.086-1.814 8.436-3.586 13.361-5.774 20.565-9.138 33.514 6.158 49.747-17.65 5.728-8.402 16.05-14.278 25.81-15.327 15.587-1.675 18.295 11.834 34.898 4.293 3.146-1.43 6.27-3.798 8.952-7.598 10.162-14.398 27.102-60.132 64.155-55.897 0 0 10.552.11 20.115 6.175v108.886l-241.799 3.933z" fill="#378939" mask="url(#b)"/><path d="M350.686 268.946c.922-1.056-1.367-1.905-1.695-2.806-.166-.453-1.001-1.335-1.182-2.402-.145-.856-2.435-1.325-3.369-2.448-.73-.876-2.396-1.155-2.8.14-.23.732-1.558 1.893-2.338 1.336-.475-.34-1.422-.111-1.723.308-1.372 1.915-.214 1.049-2.49 2.243-1.033.541-1.533 3.678-.365 3.678l15.592-.01c.069 0 .328.01.37-.039" fill="#004127" mask="url(#b)"/><path d="M447.466 212.752c-1.752 3.892-4.515 11.593 1.126 11.442 5.572-.147 2.914-7.546 1.12-11.38-1.36-2.905-.988-2.857-2.246-.062" fill="#17683D" mask="url(#b)"/><path d="M479.85 271.133l-155.447 2.528c2.535-2.562 7.408-6.35 13.162-5.054 8.47 1.905 11.222-10.799 20.539-5.717 9.316 5.082 34.3-20.326 34.3-20.326s10.375-9.317 23.927-1.271c17.739 10.533 22.043-12.174 34.042-20.726 7.941-5.66 19.168-8.302 29.477 6.716v43.85z" fill="#5F9E62" mask="url(#b)"/><path d="M443.396 258.951c.03-1.402 2.294-.49 3.142-.935.428-.225 1.64-.315 2.49-.984.684-.536 2.692.657 4.14.455 1.13-.158 2.55.757 1.98 1.987-.323.696-.122 2.447.83 2.56.58.07 1.127.875 1.068 1.388-.273 2.34-.547.92.334 3.335.4 1.095-1.34 3.752-2.204 2.966l-11.532-10.494c-.05-.046-.25-.212-.248-.278m-20.681-1.482c-.028-1.402-2.294-.49-3.142-.936-.428-.223-1.64-.315-2.49-.983-.684-.536-2.692.657-4.14.455-1.13-.158-2.55.757-1.98 1.986.324.697.122 2.449-.83 2.561-.579.07-1.127.875-1.067 1.388.272 2.34.546.92-.335 3.335-.4 1.094 1.34 3.752 2.204 2.966l11.532-10.494c.05-.046.25-.212.248-.278" fill="#17683D" mask="url(#b)"/><path d="M474.697 271.208l-65.991 1.073c2.815-7.712 13.747-30.594 39.246-10.98 0 0 9.74 8.257 16.621 4.552 4.693-2.527 8.303 2.134 10.124 5.355" fill="#378939" mask="url(#b)"/><path fill="#694727" mask="url(#b)" d="M262.713 255.85h.957v-2.788h-.957z"/><path d="M271.237 255.402c-.736-.845 1.092-1.523 1.354-2.241.132-.363.8-1.067.944-1.92.116-.683 1.944-1.057 2.69-1.953.584-.7 1.914-.923 2.237.11.184.586 1.243 1.512 1.867 1.068.379-.27 1.135-.089 1.376.246 1.096 1.53.171.838 1.989 1.791.824.433 1.223 2.938.29 2.937l-12.451-.008c-.055 0-.262.009-.296-.03" fill="#004127" mask="url(#b)"/><path d="M270.193 255.436c-.298-.367.542-1.34.798-1.59a5.21 5.21 0 0 0 .31-.283c.344-.29.72-.55 1.1-.82.592-.423.334.707 1.644-1.165.62-.884 2.024-.674 2.616.414.772 1.424 3.252 3.377 2.535 3.449l-.392-.001-8.61-.004z" fill="#17683D" mask="url(#b)"/><path fill="#694727" mask="url(#b)" d="M432.87 241.53h.899v-2.62h-.9zm10.631-9.473h1.015v-2.955h-1.015z"/><path d="M437.393 198.548c.97-1.111-1.439-2.005-1.784-2.95-.175-.479-1.053-1.406-1.243-2.529-.153-.9-2.56-1.392-3.544-2.574-.769-.922-2.521-1.215-2.947.146-.24.771-1.637 1.992-2.457 1.406-.5-.356-1.497-.117-1.813.325-1.443 2.013-.226 1.103-2.62 2.359-1.085.569-1.611 3.868-.383 3.868l16.401-.01c.072 0 .344.01.39-.04" fill="#004127" mask="url(#b)"/><path d="M439.089 198.622c.058-.071-.082-.249-.051-.319-.248-.74-.662-1.312-1.164-1.805a6.47 6.47 0 0 1-.41-.371c-.45-.383-.948-.725-1.447-1.081-.78-.556-.44.93-2.167-1.534-.816-1.163-2.666-.887-3.444.546-1.018 1.875-4.284 4.446-3.34 4.54h.517l11.506.024z" fill="#17683D" mask="url(#b)"/><path fill="#694727" mask="url(#b)" d="M403.015 206.597h1.103v-3.211h-1.103zm5.301-2.915h1.03v-2.999h-1.03z"/><path d="M422.174 161.225c-1.358 3.018-3.5 8.986.872 8.87 4.319-.115 2.259-5.849.869-8.822-1.055-2.25-.767-2.214-1.741-.048" fill="#004127" mask="url(#b)"/><path fill="#694727" mask="url(#b)" d="M422.63 171.922h.786v-2.29h-.787z"/><path d="M427.15 159.214c-1.359 3.017-3.501 8.985.872 8.869 4.319-.115 2.259-5.849.868-8.822-1.054-2.25-.766-2.214-1.74-.047" fill="#17683D" mask="url(#b)"/><path d="M262.158 242.832c-1.653 3.672-4.26 10.935 1.062 10.794 5.257-.14 2.75-7.119 1.056-10.736-1.282-2.74-.932-2.696-2.118-.058" fill="#003720" mask="url(#b)"/><path fill="#694727" mask="url(#b)" d="M257.237 258.151h.9v-2.62h-.9z"/><path d="M256.717 245.916c-1.554 3.45-4.005 10.278.998 10.145 4.94-.131 2.584-6.69.992-10.09-1.205-2.576-.875-2.533-1.99-.055m145.659-54.315c-1.904 4.23-4.907 12.597 1.224 12.434 6.054-.16 3.167-8.2 1.216-12.367-1.477-3.155-1.073-3.103-2.44-.067" fill="#004127" mask="url(#b)"/><path d="M407.72 189.679c-1.777 3.95-4.582 11.763 1.143 11.61 5.653-.15 2.957-7.656 1.135-11.548-1.379-2.947-1.001-2.898-2.278-.062" fill="#003720" mask="url(#b)"/><path d="M432.348 229.295c-1.553 3.45-4.004 10.278.998 10.145 4.94-.131 2.584-6.69.992-10.091-1.204-2.575-.875-2.532-1.99-.054m10.566-11.038c-1.752 3.892-4.515 11.593 1.126 11.443 5.572-.149 2.914-7.547 1.12-11.382-1.36-2.904-.988-2.856-2.246-.061" fill="#004127" mask="url(#b)"/><path d="M265.559 181.314c2.546-.625 8.312-2.422 9.013-3.415 1.605-2.278 2.495.097 4.852-3.495 1.716-2.612 3.089.913 8.086-4.513 1.282-1.393 2.128.378 4.724-4.736 1.63-3.212 6.851-4.127 9.688-2.107 2.703 1.925 6.879-11.736 15.35 1.198 1.866 2.849-.388.225 2.407 1.813 2.577 1.464 6.42 5.024 6.632 7.908.146 1.983 7.401-.816 9.4 2.279.592.919 8.368 1.187 10.075 2.33 1.506 1.007 9.11.4.921 1.746-5.312.873-10.334.094-15.139 1.603-2.585.811-5.366-.342-9.222 2.717-2.173 1.723-9.59.28-11.496-1.231-1.804-1.43-3.93.65-7.475.65-1.38 0-11.432-2.49-12.81-1.41-1.17.916-9.057 2.47-11.258 1.941-3.967-.954-9.679-2.892-13.748-3.278m159.335-48.124c2.546-.626 8.312-2.423 9.013-3.416 1.606-2.278 2.495.097 4.852-3.494 1.716-2.614 3.089.913 8.086-4.514 1.282-1.392 2.128.378 4.724-4.736 1.63-3.212 6.851-4.127 9.688-2.107 2.703 1.925 6.879-11.736 15.35 1.198 1.866 2.849-.388.225 2.407 1.813 2.577 1.464 6.42 5.024 6.632 7.908.146 1.983 7.401-.816 9.4 2.28.593.918 8.368 1.186 10.075 2.328 1.506 1.008 9.11.4.921 1.747-5.312.873-10.334.093-15.139 1.603-2.585.812-5.366-.342-9.222 2.717-2.173 1.724-9.59.28-11.496-1.23-1.804-1.431-3.93.648-7.475.648-1.38 0-11.432-2.488-12.81-1.409-1.17.915-9.057 2.47-11.258 1.941-3.967-.954-9.679-2.891-13.748-3.277" fill="#FFF" mask="url(#b)"/><path d="M129.794 147.597s3.2-2.167 6.663-.777c0 0 .516.317.288.738-.13.238-.61.481-.648.87 0 0 1.37-.816 3.114-.616 0 0-.443-.757-.895-.868 0 0 1.981-3.465 6.9-3.161 0 0-2.881-1.481-6.941 1.337 0 0-.39-.62-1.181-.395 0 0-.72.172-.808.952 0 0-3.403-1.667-6.492 1.92m99.388-104.829s2.907-1.009 5.285.772c0 0 .332.35.07.628-.149.156-.568.245-.678.535 0 0 1.223-.345 2.523.168 0 0-.185-.674-.51-.852 0 0 2.236-2.259 5.957-1.013 0 0-1.911-1.732-5.614-.399 0 0-.173-.558-.827-.546 0 0-.589-.016-.817.565 0 0-2.276-1.982-5.39.142" fill="#272626" mask="url(#b)"/><path d="M.49 270.802s29.878 9.233 52.218 30.49c22.34 21.256 19.915 15.163 29.518 18.844H.622c0-16.401-.132-33.12-.132-49.334" fill="#5F9E62" mask="url(#b)"/><path d="M58.147 320.136H.626v-12.659c2.27-8.977 7.655-24.957 16.728-21.958 11.17 3.691 3.305 21.428 9.755 29.011 6.249 7.346 10.55-.454 13.717-3.084 6.485-5.385 14.006.48 16.566 6.652.261.63.514 1.307.755 2.038" fill="#378939" mask="url(#b)"/><path d="M249.195 320.136c13.472-3.583 39.245-9.966 60.64-12.492 30.49-3.6 39.17-12.915 63.096-14.82 23.926-1.907 73.473-3.177 88.082-9.318 5.507-2.315 14.656-4.418 24.349-5.891v42.521H249.195z" fill="#E0CA9D" mask="url(#b)"/><path d="M227.494 169.276c-1.048-3.067-2.182-6.999-3.848-10.98-4.827-11.542-10.94-25.538-9.49-34.752 2.341-14.858 17.242-24.854 33.282-22.327 16.04 2.527 27.146 16.62 24.805 31.477-1.325 8.41-11.378 20.162-19.542 29.825-3.047 3.608-5.603 7.194-7.635 9.863-1.333 1.75-.698 1.495-2.841 1.123-3.259-.566-10.216-1.766-12.928-2.183-1.654-.254-1.147-.126-1.803-2.046" fill="#F9F9FA" mask="url(#b)"/><path d="M243.185 100.836a32.09 32.09 0 0 1 3.365.255c-10.668 6.653-11.702 51.66-11.44 61.566l-4.215-.664c-.905-4.097-1.867-9.184-2.537-14.684-2.047-16.84-.797-37.534 12.737-45.556.592-.35 1.318-.65 2.09-.917" fill="#F9627F" mask="url(#b)"/><path d="M231.57 102.814a30.43 30.43 0 0 1 6.59-1.687c-27.18 12.012-11.184 56.169-11.184 56.169l1.668 4.173-2.206-.348a77.01 77.01 0 0 1-.42-.86c-3.478-7.218-7.472-19.762-8.233-27.665-1.157-12.02 3.4-23.096 13.786-29.782m20.374-.598a31.792 31.792 0 0 0-3.28-.792c8.106 9.61-4.748 52.755-8.043 62.101l4.216.664c2.121-3.62 4.6-8.165 6.928-13.192 7.127-15.395 12.298-35.47 1.886-47.265-.456-.517-1.054-1.024-1.707-1.516" fill="#F9627F" mask="url(#b)"/><path d="M262.113 107.626a30.417 30.417 0 0 0-5.751-3.631c22.17 19.786-6.626 56.886-6.626 56.886l-2.87 3.458 2.205.347c.221-.226.443-.456.665-.689 5.528-5.798 13.186-16.506 16.34-23.794 4.796-11.082 3.865-23.022-3.963-32.577" fill="#F9627F" mask="url(#b)"/><path d="M226.658 184.376l-.311-.03c.118-1.206.241-2.452.064-3.662a15.29 15.29 0 0 0-.193-1.007 17.18 17.18 0 0 1-.186-.953c-.138-.89-.133-1.8-.128-2.683.004-.796.01-1.62-.093-2.416-.101-.781-.31-1.561-.51-2.315a24.08 24.08 0 0 1-.427-1.776c-.263-1.403-.275-2.857-.287-4.263-.016-1.7-.03-3.459-.496-5.105l.3-.086c.477 1.687.493 3.467.508 5.188.013 1.393.025 2.832.283 4.208.11.589.267 1.181.42 1.754.205.764.415 1.553.519 2.354.106.818.1 1.652.096 2.46-.005.868-.01 1.767.125 2.633.048.311.117.628.182.934.072.335.147.68.197 1.028.182 1.247.057 2.513-.063 3.737m2.308.698c-.284-.899-.23-1.851-.176-2.772.02-.343.039-.686.041-1.027.009-1.035-.15-2.085-.303-3.1a50.73 50.73 0 0 1-.189-1.355c-.242-2.017-.217-4.074-.193-6.062l.313.003c-.025 1.978-.05 4.024.19 6.022.055.449.122.898.19 1.347.154 1.026.313 2.087.306 3.148-.003.345-.023.694-.043 1.042-.05.892-.103 1.815.163 2.66l-.299.094zm3.546.705c-.53-1.046-.306-2.236-.09-3.387.03-.151.058-.302.084-.45.264-1.495.307-3.052.347-4.558.054-1.957.11-3.982.65-5.9l.3.084c-.529 1.882-.583 3.887-.637 5.825-.04 1.516-.084 3.085-.352 4.603-.026.15-.055.301-.083.454-.207 1.1-.421 2.237.06 3.188l-.279.14zm3.758.511c-.158-1.379.261-2.725.666-4.026.205-.66.418-1.343.551-2.02.18-.915.224-1.87.266-2.794.042-.9.084-1.83.252-2.733.158-.859.428-1.69.688-2.495l.299.098c-.258.793-.524 1.615-.68 2.453-.163.884-.205 1.803-.245 2.691-.044.935-.088 1.902-.272 2.84-.137.694-.352 1.385-.56 2.053-.414 1.33-.804 2.585-.654 3.898l-.31.036zm3.297.45l-.292-.11 1.017-2.68c.412-1.085.838-2.207 1.058-3.365.082-.431.137-.877.191-1.309.07-.561.142-1.141.274-1.705.406-1.727 1.35-3.237 2.263-4.698l.265.166c-.9 1.44-1.829 2.928-2.224 4.604-.128.547-.199 1.12-.268 1.672-.053.436-.11.888-.193 1.33-.226 1.183-.657 2.319-1.074 3.417l-1.017 2.679zm2.768.28l-.287-.124a80.696 80.696 0 0 0 2.922-7.791l.116-.366c.177-.562.359-1.143.566-1.707.227-.613.492-1.23.726-1.775l1.496-3.489c.503-1.174 1.024-2.388 1.615-3.549l.308-.594c.58-1.105 1.177-2.25 1.336-3.481l.31.04c-.166 1.286-.777 2.456-1.368 3.587a47.17 47.17 0 0 0-.306.59c-.587 1.152-1.106 2.361-1.608 3.53l-1.496 3.49c-.232.54-.495 1.154-.719 1.76a36.36 36.36 0 0 0-.561 1.691l-.116.368a80.971 80.971 0 0 1-2.934 7.82" fill="#D1AC88" mask="url(#b)"/><path d="M227.494 169.276c-.905-2.647-1.874-5.938-3.192-9.35l27.024 4.258c-2.448 3.027-4.541 5.94-6.26 8.198-1.333 1.75-.698 1.495-2.841 1.123-3.259-.566-10.216-1.766-12.928-2.183-1.654-.254-1.147-.126-1.803-2.046m-1.449 16.806l.274 9.044c.101 3.33.088 2.473 3.673 3.037l5.052.796c3.145.496 2.531.964 3.603-1.966l3.02-8.254c1.064-2.91 1.314-2.144-2.262-2.669-2.595-.38-6.343-.915-9.22-1.322-4.027-.57-4.232-1.692-4.14 1.334" fill="#8B4735" mask="url(#b)"/><path fill="#F9627F" mask="url(#b)" d="M226.072 186.984l.067 2.205 14.526 2.288.76-2.074z"/><path d="M150.795 270.798c-1.12-.074-2.28-.141-3.328.278-1.048.42-1.953 1.468-1.864 2.637 8.5.235 17.006.19 25.503-.138.61-.023 1.486.287 1.29.892-.1.308-.45.434-.759.485-1.894.314-4.052-.52-5.634.612 3.065 1.224 6.449 1.222 9.717.921 5.791-.534 11.544-1.955 17.347-1.597.462.029.937.067 1.377-.084.457-.158.827-.503 1.232-.77 1.453-.957 3.29-.893 5.008-.902a42.328 42.328 0 0 0 8.152-.836c.324-.066.694-.172.83-.487.289-.663-.696-1.093-1.393-1.1l-14.125-.12c-5.838-.05-11.676-.1-17.514-.181-3.02-.043-6.04-.093-9.059-.156-2.585-.055-5.089-.394-7.585.218-3.008.736-6.141.529-9.195.328" fill="#31BBC9" mask="url(#b)"/><path d="M182.924 230.99l-.147 34.664-22.864-.295s-3.097-19.028 23.011-34.37m2.396 13.128l.1 23.16 15.274-.198s2.07-12.713-15.373-22.962" fill="#FFF" mask="url(#b)"/><path d="M157.7 265.36s45.137.737 47.35 1.031c2.213.296-1.475 5.606-8.85 5.9-7.376.296-32.01.296-32.01.296s-14.456-7.375-6.49-7.228" fill="#694727" mask="url(#b)"/></g></g></svg>