<svg width="480" height="360" viewBox="0 0 480 360" xmlns="http://www.w3.org/2000/svg"><g fill="none" fill-rule="evenodd"><path fill="#3E8CA5" d="M0 286h480V-20H0z"/><path d="M235.222 118.822c14.76-.963 28.195 5.91 38.244 17.934 9.581-24.45 28.13-41.81 49.441-43.201 16.517-1.079 31.373 7.651 41.682 22.433 7.056-18.11 20.768-30.979 36.53-32.007 21.92-1.43 39.88 20.558 41.47 49.831a32.106 32.106 0 0 1 8.636-1.793c11.736-.766 22.334 5.184 29.897 15.366 8.95-26.924 28.49-46.469 51.156-47.95 6.609-.43 12.948.713 18.84 3.181 7.5-10.513 17.766-17.367 29.09-18.107a31.357 31.357 0 0 1 1.719-.063c.57-.069 1.144-.123 1.72-.16 11.325-.74 21.589 4.774 29.088 14.31 5.892-3.239 12.233-5.208 18.841-5.64 22.669-1.48 42.206 15.516 51.158 41.273 7.561-11.172 18.158-18.503 29.897-19.27 2.96-.193 5.849.045 8.637.666 1.587-29.48 19.546-53.813 41.467-55.243 15.763-1.03 29.476 10.048 36.529 27.238 6.161-9.637 13.946-17.324 22.736-22.18v202.245H204.586V271H-182V75.002a45.637 45.637 0 0 1 4.652 2.356c6.458-20.337 21.058-35.184 38.038-36.292 22.967-1.499 41.585 22.704 41.585 54.062 0 2.217-.097 4.406-.277 6.57 6.61-6.478 14.56-10.527 23.115-11.085 20.995-1.369 38.352 18.743 41.177 46.16 8.88-8.551 19.507-13.889 30.93-14.633 14.76-.963 28.194 5.909 38.242 17.93 9.582-24.448 28.13-41.808 49.443-43.199 16.516-1.079 31.373 7.651 41.683 22.433 8.253-21.192 23.396-31.873 38.224-32.009 15.17-.136 30.007 10.766 36.795 32.753 1.324 4.287 2.192 8.81 2.688 13.409 8.88-8.551 19.505-13.889 30.927-14.635" fill="#56A1B7" opacity=".395"/><path d="M199.469 204.144c7.057-.398 13.48 2.441 18.284 7.407 4.58-10.099 13.448-17.269 23.637-17.843 7.896-.446 15 3.16 19.928 9.265 3.373-7.48 9.928-12.795 17.464-13.22 10.48-.59 19.066 8.491 19.826 20.582a17.468 17.468 0 0 1 4.13-.74c5.61-.317 10.677 2.14 14.292 6.347 4.279-11.121 13.62-19.194 24.458-19.806 3.159-.178 6.19.295 9.006 1.314 3.586-4.342 8.494-7.173 13.908-7.479.275-.015.55-.024.822-.026.272-.028.547-.05.823-.066 5.414-.306 10.32 1.972 13.906 5.91 2.817-1.337 5.848-2.15 9.008-2.329 10.837-.611 20.178 6.41 24.458 17.048 3.615-4.615 8.68-7.643 14.293-7.96 1.415-.08 2.796.019 4.13.275.758-12.176 9.344-22.227 19.824-22.817 7.536-.426 14.092 4.15 17.464 11.25 2.946-3.98 6.668-7.155 10.87-9.162v83.536H184.822V267H0v-80.956c.758.286 1.5.61 2.224.973 3.088-8.4 10.068-14.532 18.186-14.99 10.98-.619 19.88 9.378 19.88 22.33 0 .916-.045 1.82-.131 2.714 3.16-2.676 6.96-4.348 11.05-4.579 10.038-.565 18.336 7.742 19.687 19.066 4.245-3.532 9.326-5.736 14.787-6.044 7.056-.398 13.48 2.44 18.283 7.406 4.581-10.098 13.449-17.268 23.638-17.843 7.896-.445 14.999 3.16 19.928 9.266 3.946-8.753 11.186-13.165 18.275-13.221 7.252-.056 14.345 4.447 17.59 13.528.634 1.77 1.049 3.639 1.286 5.539 4.245-3.532 9.325-5.737 14.786-6.045" fill="#56A1B7"/><path d="M5.26 267C68.629 267 120 254.016 120 238S68.629 209 5.26 209c-1.764 0-3.516.011-5.26.032v57.936c1.744.02 3.496.032 5.26.032" fill="#5D737A"/><path d="M17.163 266C75.991 264.597 122 252.25 122 237.222c0-13.805-38.831-25.348-90.76-28.222C19.695 220.011 13 233.101 13 247.145c0 6.53 1.454 12.851 4.163 18.855" fill="#73878D"/><path d="M141 281c35.801 0 65-11.006 65-24.5S176.801 232 141 232s-65 11.006-65 24.5 29.199 24.5 65 24.5" fill="#5D737A"/><path d="M147.23 281c32.983-1.2 58.77-11.686 58.77-24.446 0-13.352-28.24-24.217-63.415-24.554C128.178 237.637 119 246.148 119 255.672c0 10.51 11.18 19.787 28.23 25.328" fill="#73878D"/><path d="M474.74 267C411.373 267 360 254.016 360 238s51.372-29 114.74-29c1.764 0 3.516.011 5.26.032v57.936c-1.744.02-3.496.032-5.26.032" fill="#5D737A"/><path d="M475.681 267c-24.227 0-46.717-1.857-65.324-5.03A29.215 29.215 0 0 1 409 253.2c0-24.32 30.588-44.05 68.41-44.2.805.003 1.608.009 2.412.016.393.007.785.017 1.178.028v57.924c-1.763.02-3.535.032-5.319.032" fill="#73878D"/><path d="M339 281c35.8 0 65-11.006 65-24.5S374.8 232 339 232s-65 11.006-65 24.5 29.2 24.5 65 24.5" fill="#5D737A"/><path d="M325.102 232.573a169.2 169.2 0 0 1 13.973-.573c34.444 0 62.633 10.152 64.925 23-.605 4.643-2.98 8.975-6.702 12.731-9.04 6.85-26.226 11.883-46.742 13.269-21.87-2.24-38.556-14.082-38.556-28.357 0-7.81 4.997-14.89 13.102-20.07" fill="#73878D"/><path fill="#F4D9B7" d="M0 361h480V249H0z"/><path d="M32.118 274.135a77.045 77.045 0 0 0-.579-.474 40.186 40.186 0 0 1-3.444-.076c.348.104.709.193 1.07.27.941.195 1.87.291 2.544.287.092 0 .16-.001.202-.003.066-.004.136-.004.207-.004m-5.433-11.36c3.393.574 6.328 1.5 7.712 2.545.279.21.482.416.613.615 4.002.537 7.61 1.576 9.193 2.77.072.055.138.109.2.162l.002.003c.092.078.171.157.242.234v.001h.001c.023.026.045.051.065.076l.003.003c.02.025.04.05.058.076l.002.001c.036.051.068.1.096.15l.001.002.003.004.035.07v.002h.001l.03.072.001.003.002.006.019.054c.39 1.283-2.35 2.221-7.052 2.241-.182.668-1.301 1.207-3.151 1.517 2.722 2.175 4.87 4.207 5.549 5.13.241.328-.42.541-1.475.476-1.057-.065-2.108-.384-2.35-.712-.469-.638-1.676-1.834-3.3-3.237l-.243.004c-1.261.007-2.945-.162-4.592-.504-1.506-.313-2.995-.772-4.106-1.374a42.005 42.005 0 0 1-1.695-.295c-.834.08-1.77.125-2.801.125-5.875 0-12.512-1.415-14.825-3.16-1.526-1.152-.789-2.159 1.574-2.711-.663-.285-1.218-.588-1.633-.901-1.676-1.265-.62-2.356 2.324-2.861-1.005-.37-1.826-.777-2.39-1.202-1.895-1.43-.3-2.637 3.57-3.027l.039-.004.04-.004.081-.008.041-.004.041-.003.041-.004.041-.004.083-.007.113-.009.097-.007.043-.004.123-.008.067-.004.176-.011.078-.005.175-.008.07-.004.148-.007.045-.002.038-.002.22-.007.013-.001h.013l.228-.006h.028l.255-.006h.003l.243-.003h.025l.27-.001c5.876 0 12.513 1.415 14.827 3.16.278.21.48.415.612.614m379.988-2.168a1.076 1.076 0 0 0-.04.041l.04-.04zm20.732 9.27a13.28 13.28 0 0 0 1.231 1.616c1.585-.141 3.4-.516 4.487-1.184.37-.226.65-.488.796-.786l-.228-.004h-.034l-.314-.007h-.017a25.454 25.454 0 0 1-.32-.01h-.019l-.319-.011h-.012l-.036-.002a38.429 38.429 0 0 1-.289-.011l-.015-.001-.034-.002-.28-.013-.054-.003a12.326 12.326 0 0 1-.274-.014l-.064-.003h-.004c-1.144.22-2.56.37-4.2.436zm10.732 7.908c1.187.344 1.592.824.903 1.072-.688.247-2.21.169-3.397-.175-3.345-.968-6.512-2.761-8.972-4.742-1.656-1.334-3.033-2.773-3.945-4.104-5.268-.272-10.45-1.257-13.246-2.513l-.17-.017-.117-.013-.17-.017-.124-.014-.149-.017h-.001l-.243-.028-.01-.001-.149-.018-.142-.017-.154-.019-.109-.014-.285-.037-.127-.017-.153-.02-.13-.019-.146-.02-.14-.02-.239-.035-.147-.022-.136-.02-.137-.023-.136-.022-.169-.027-.214-.035-.124-.021-.148-.026-.121-.02-.139-.026h-.006a8.544 8.544 0 0 0-.221-.04l-.004-.001-.124-.023-.145-.028-.125-.025-.134-.025-.162-.033-.19-.038-.112-.023-.145-.03-.118-.026-.15-.032-.137-.03-.195-.044-.082-.019-.16-.037-.1-.023a83.518 83.518 0 0 0-.2-.048l-.1-.025-.153-.038-.101-.026-.147-.038-.088-.022-.22-.06-.043-.011-.177-.05-.082-.022-.163-.047-.058-.016-.21-.063-.064-.019-.147-.046-.078-.024-.146-.046-.062-.02a6.782 6.782 0 0 1-.192-.064l-.06-.02-.148-.051-.057-.02-.165-.059-.025-.009-.002-.001-.018-.006a9.168 9.168 0 0 1-.167-.062l-.053-.02a8.049 8.049 0 0 1-.138-.054l-.054-.02-.168-.069-.035-.015-.142-.059-.045-.02a3.877 3.877 0 0 1-.134-.059l-.033-.015a7.01 7.01 0 0 1-.164-.075l-.02-.01-.128-.061-.05-.025-.12-.06-.025-.014a8.009 8.009 0 0 1-.138-.074l-.04-.022-.096-.054-.044-.027a3.212 3.212 0 0 1-.098-.057l-.03-.018a3.542 3.542 0 0 1-.114-.074l-.04-.026-.076-.051-.04-.028-.104-.076c-2.45-1.85 1.388-3.35 8.573-3.35h.122l.024-.044.011-.017.028-.043.003-.005a.873.873 0 0 1 .065-.083l.016-.02.038-.042.013-.013a1.79 1.79 0 0 1 .142-.13l.02-.017a2.88 2.88 0 0 1 .173-.125l.022-.014.056-.035.034-.02.058-.034c.026-.016.054-.03.08-.045l.066-.035.031-.016.07-.034.032-.015c.044-.02.086-.04.132-.059l.04-.018.069-.03.054-.02.072-.03h.004l.108-.042.071-.025.056-.02.081-.026.058-.02a4.98 4.98 0 0 1 .122-.038l.089-.027.074-.022.076-.022.079-.022.098-.026.103-.027.114-.028.066-.017.11-.025.067-.015.16-.035.091-.02.09-.018.098-.019.11-.02.073-.014.176-.032.09-.015.116-.02.086-.013.193-.03.066-.01.135-.019.107-.014.12-.016.092-.013.204-.024.078-.01.172-.019.06-.006.23-.024.01-.001.017-.002.21-.019.098-.009.19-.016.042-.004.26-.02.041-.002c.075-.006.15-.012.225-.016l.061-.004.214-.013.063-.004c.088-.004.176-.01.263-.013l.06-.003.219-.01.073-.003.264-.01h.017l.04-.002.234-.007.083-.002.226-.006.07-.001.287-.006h.061l.245-.003h.07l.306-.001c7.185 0 14.995 1.5 17.445 3.35.037.028.074.056.108.085h.001v.001l.004.003c.033.027.064.053.094.08l.002.002.003.001.003.004c.03.026.058.052.085.078v.001l.004.003.003.004c.056.054.105.107.15.16l.003.005.003.003c.022.026.042.052.062.079l.002.003a1.8 1.8 0 0 1 .052.076l.005.008c.015.025.03.05.042.074l.004.005v.001c.013.026.026.051.036.076l.004.009c.01.024.02.048.028.073l.003.007a.805.805 0 0 1 .018.068l.003.016a.45.45 0 0 1 .011.064l.002.015.004.046.057.007.208.03.111.017.225.034.105.016.18.029.1.015.24.039.084.014.204.035.123.021.182.032.097.017.23.042.104.019.134.026.157.03.188.036.083.017.214.043.08.017.187.039.089.019.222.048.073.016.195.044.05.012.221.05.085.02.177.043.096.024.18.045.065.016.216.056.06.016.183.048.046.013.21.058.061.018.211.06h.004l.013.005c.065.018.128.037.191.056l.064.02.196.06.045.013.162.053.057.018.186.06.048.018.177.06.014.005h.003l.021.009.159.056.058.021.17.064.04.015.151.058.036.015c.057.021.113.044.167.067l.043.017.164.07h.003l.162.072.032.015.157.072.022.01.139.067.022.012.146.073.027.014c.045.025.091.048.134.073l.005.002h.001l.007.004.123.07.032.019c.042.023.082.048.122.073l.021.013.103.065.023.015.106.072.029.02.104.077c1.9 1.434.017 2.657-4.273 3.134.189.85-.312 1.539-1.202 2.085-1.73 1.062-5.021 1.579-7.578 1.682.336.304.687.606 1.054.9 2.08 1.676 4.54 3.128 6.875 3.804zm-364.123-12.56c.137.026.274.05.41.074l.014.002.098.017.104.018.024.003.08.014.076.012.03.005.104.018.02.003.085.014.013.002.092.015.104.016.017.003.087.014.012.001.093.014.105.017.012.001.005.001.148.023h.003l.144.02.01.002.006.002.137.019.01.001.046.007.104.015h.005l.099.014.054.008.05.007.103.013.102.015h.002l.09.012.012.001.1.013.003.001.102.013.047.006.055.007.096.013h.007l.102.013.041.005.06.008.09.01.011.001.102.013.1.012.086.01.014.002.1.012.033.004.066.007.082.01h.018l.099.013.03.003.068.007.076.009.022.002.097.01.025.003.073.008.071.007.025.003.097.01.021.003.075.007.066.007.03.003.094.01.016.002.077.006.063.007.031.003.094.01.08.007.012.001.058.005.034.004.091.008.01.001.082.008.053.005.036.003.02.001.16.015.048.005.04.003.088.007h.002l.085.008.043.004.043.003.085.007-.182-.068-.02-.008-.021-.008-.02-.007-.02-.008-.022-.008-.04-.015-.022-.008-.375-.14-.02-.008-.022-.008-.021-.009-.022-.007-.012-.005-.009-.003-.021-.008-.021-.008-.022-.008-.021-.008-.02-.008-.023-.008-.021-.008-.016-.006-.006-.002-.021-.009-.022-.008-.021-.007-.022-.008-.021-.009-.022-.008-.021-.007-.022-.008-.022-.01-.022-.007-.021-.008-.022-.009-.022-.008-.022-.007-.022-.008-.022-.01h-.007l-.033-.004-.04-.006-.026-.003-.015-.003-.04-.005-.04-.007h-.004l-.036-.006-.04-.006-.021-.004-.019-.002-.04-.006-.038-.006h-.001l-.039-.006-.056-.01-.021-.002-.04-.007-.034-.006h-.004l-.038-.007-.038-.007-.014-.002-.024-.004-.038-.006-.03-.006-.007-.001h-.002l-.073-.013-.01-.001-.064-.013-.027-.004-.01-.002-.073-.014-.006-.001-.066-.013-.023-.004-.013-.003-.036-.008-.035-.005-.003-.001-.032-.007-.035-.007-.019-.004-.016-.004-.035-.006-.033-.008-.069-.015-.015-.003-.018-.004-.064-.014h-.003l-.066-.016-.012-.002-.021-.005-.058-.014-.006-.001-.064-.016-.009-.002-.023-.005-.031-.009-.023-.006-.008-.001-.062-.016-.005-.001-.055-.014-.019-.005-.01-.003-.03-.008-.03-.009-.002-.001-.027-.007-.029-.008-.016-.004-.012-.004-.057-.016c-.677.092-1.538.144-2.54.144h-.221zm-2.444-7.19l.243.012h.018l.02.002h.018l.019.002.018.001.056.003h.018l.02.002.018.001.018.001.056.004h.02l.017.002.019.001.018.002.056.003.018.002.019.001.019.001.018.002h.013l.004.001h.016l.004.001h.004l.035.003h.009l.004.001h.028l.003.002h.012l.004.001h.016l.004.002h.015l.005.001h.012l.046.005h.017l.004.001.025.002.01.001.095.007.03.003.01.001.087.007h.007l.022.002.016.001.016.002.015.001.016.002.031.003.016.001.016.002.016.001.015.002h.015l.016.002.016.001.046.006.016.001.015.002h.016l.015.002.015.001.093.01.016.001.015.002.108.011.015.002.016.002h.015l.09.01.016.002.015.002.015.002.091.01.015.002.015.001.015.003h.015l.015.003.03.003.015.002.015.001.015.002.028.004h.008l.097.013.008.001h.011l.006.002h.005l.005.001h.006l.006.002h.006l.044.006h.006l.005.002h.006l.005.001.005.001h.006l.006.001h.005l.006.002h.005l.005.001.006.001h.011l.006.002.005.001h.005l.006.002.033.003v.001h.006l.005.002h.006l.005.001h.011l.006.001.005.001.006.001h.005l.006.001.005.001h.005l.005.002h.006l.005.001h.006l.006.002.01.001h.006l.005.002h.006l.005.001.02.003h.004l.003.002h.007l.004.001h.006l.008.001.003.001.004.001h.006l.004.001h.003l.066.01h.011l.002.002h.004l.004.001h.007l.003.002h.007l.003.001h.007l.003.001h.004l.003.001h.004l.003.002h.007l.003.001h.004l.023.004.116.017h.003l.111.018.003.001.02.003h.002l.004.002h.006l.004.001h.006l.003.002h.009l.004.001h.006l.003.002h.006l.004.001h.006l.003.001.003.001h.004l.003.001h.002l.004.001h.003l.003.001h.003l.003.002h.007l.003.001h.006l.012.003h.004l.003.002h.006l.003.001h.007l.002.002h.007l.003.001h.006l.003.002h.004l.003.001h.006l.03.006.081.014.032.005h.003l.003.002h.006l.004.001h.003l.003.002.019.003h.003l.003.001h.007l.003.002h.003l.003.001h.01l.004.001.003.001.003.001h.006l.004.001.003.001h.006l.004.002h.003l.002.001h.007l.003.002h.003l.003.001h.003l.047.01h.006l.004.001.003.001h.003l.003.001h.003l.004.001.006.002h.007l.092.018.01.002.004.001.086.016.001.001.017.003.087.019h.001l.013.003h.006l.003.001h.003l.003.002h.006l.003.001h.006l.003.002h.002l.003.001h.004l.003.001.003.001.002.001h.006l.003.001.004.001h.003l.002.002h.006l.002.001h.004l.003.002h.003l.003.001h.006l.003.002h.003l.003.001.04.009h.003l.006.002h.003l.003.002h.007l.002.001h.003l.003.002h.003l.003.001h.003l.003.002.097.022.066.015.028.006.013.003.08.02h.003l.065.016.002.001.03.007.054.015h.003l.038.01.044.012.049.013.006.002.042.012.032.008.007.003.045.013.041.011.04.013.053.015.023.008.005.001.073.023.004.002.004.001.005.002.003.001.057.018.002.001.002.001.003.001.002.001h.003l.002.002.07.024.032.011.003.002.042.016h.004l.017.007.047.019.027.01.04.017.026.01.039.017.022.01.002.001.037.017h.002l.021.01.002.001.034.016.002.001.018.01.037.018.018.01h.001l.031.017.02.011.028.016.018.011.004.003.039.024h.001l.001.002.002.001.002.002h.001l.002.001.002.002.002.001.002.002.002.001h.001l.002.001v.001l.002.001h.001l.001.002h.001l.001.002h.002v.001h.002l.001.002.002.001h.002v.002h.002v.001h.002v.002h.002l.002.001.002.002v.001h.002v.001l.002.001.002.002h.002v.001l.001.002h.002v.001h.002v.002h.002l.001.001h.001l.001.002h.001l.002.002.002.001v.001h.001l.001.001.001.001.002.001v.001h.002v.001c.28-.009.573-.014.88-.014 3.129 0 6.44.511 7.395 1.142.347.23.336.443.03.622l.05.009.047.01.048.009.047.009.047.009.047.01.046.009.047.009.045.01.045.01.046.009.044.01.044.01.044.01.044.01.043.01.042.01.042.01.042.01.042.01.04.01.04.011.042.01.04.01.039.011.039.01.038.011.038.011.038.01.037.012.037.01.036.011.036.011.035.012.035.01.034.012.034.011.033.012.033.01.032.012.033.012.03.01.032.012.03.012.03.012.03.01.029.013.028.01.028.013.028.012.026.011.027.012.025.013.026.011.024.012.024.012.024.012.023.013.022.011.021.012.022.012.02.013.02.012.02.012h.017l.017-.001.017-.001h.017l.016-.002h.019l.017-.001h.017l.017-.002h.035l.017-.001h.017l.017-.002h.036l.017-.001h.017l.018-.001.018-.001h.017l.017-.001h.036l.018-.001.018-.001h.035l.018-.002h.056l.017-.001h.055l.018-.002h.054l.019-.001h.092l.018-.002h.113l.019-.001h.19c3.13 0 6.44.512 7.396 1.142l.04.028.002.002.008.006.022.016.015.012.024.02.005.004v.001l.027.025.004.003.004.005.022.021.001.003.002.002.02.023.002.003v.001l.019.027.003.005.012.022.001.002.002.003.009.021.001.004.001.002.007.02.001.005v.002l.004.024v.001l.001.004v.026l-.002.022v.002l-.006.024v.002l-.003.007-.006.016v.001l-.004.007-.008.018-.002.004-.002.002-.01.014-.006.01-.015.02-.002.001-.002.003-.005.005-.015.015-.008.008-.017.018-.005.002-.004.004-.024.02-.003.002-.009.006-.018.012-.016.011v.001l-.016.009-.017.01v.001l-.003.001-.032.018-.014.008-.024.012-.019.01-.02.009-.002.001-.018.008-.002.001-.027.011-.014.007-.004.002-.041.017h-.002l-.021.008-.003.001-.026.01-.003.001-.024.009h-.003l-.017.006-.033.012h-.002l-.049.016h-.002l-.049.015-.005.002h-.001l-.034.01-.02.005-.037.011h-.002l-.023.006-.038.01-.057.014-.002.001-.023.005-.002.001h-.005l-.004.001-.001.001-.003.001h-.005l-.001.001h-.002l-.002.001h-.003l-.002.002h-.005l-.003.001h-.003l-.002.002-.036.007h-.005l-.002.002h-.004l-.005.002-.05.01-.013.003-.064.013-.013.003h-.006l-.002.001h-.006l-.002.002h-.006l-.001.001h-.006l-.002.002h-.006l-.002.001H95.8l-.002.001h-.002l-.002.001h-.001l-.003.001h-.002l-.034.007h-.005l-.002.001h-.006l-.002.002h-.006l-.02.004h-.011l-.002.002h-.006l-.003.001h-.001l-.022.004h-.004l-.002.001h-.006l-.002.002h-.006l-.003.001h-.005l-.002.002h-.008l-.002.001h-.006l-.002.002h-.008l-.002.001h-.005l-.002.002h-.008l-.002.001-.009.002h-.001l-.073.01-.058.009-.03.005h-.006l-.05.008-.02.002-.002.001h-.007l-.003.002h-.008l-.004.001h-.003l-.035.004-.004.001h-.007l-.003.002h-.01l-.003.001h-.006l-.004.002h-.01l-.003.001h-.006l-.004.002h-.01l-.003.001h-.007l-.003.002-.023.003h-.01l-.004.001h-.007l-.002.001h-.008l-.003.001-.003.001h-.004l-.018.002h-.006l-.006.002H95.1l-.007.001h-.005l-.007.002h-.006l-.007.001h-.006l-.006.002h-.012l-.006.001h-.006l-.007.002h-.006l-.006.001h-.006l-.007.002h-.013l-.026.003h-.005l-.007.002h-.007l-.006.001h-.006l-.007.002h-.013l-.007.001h-.006l-.007.002h-.006l-.032.003-.007.001h-.007l-.006.002h-.007l-.006.001h-.013l-.008.001-.006.001-.053.005h-.007l-.007.001h-.013l-.007.002h-.011l-.003.001h-.014l-.003.002h-.014l-.007.001h-.003l-.014.002h-.013l-.004.001h-.01l-.004.002h-.017l-.004.001h-.013l-.004.001h-.007l-.073.006-.004.001h-.003l-.024.002-.023.002-.047.003-.025.001-.024.002-.096.006-.024.001-.099.005-.024.002-.025.001-.05.003-.025.001-.026.001-.025.002h-.026l-.025.002h-.026l-.025.002-.026.001h-.025l-.026.002-.026.001h-.027l-.025.002h-.027l-.012.001h-.04l-.027.002h-.027l-.027.002h-.053l-.081.003h-.027l-.028.001-.082.002H93.2l-.056.001h-.084l-.107.002h-.385l-.007-.001h-.118l-.008-.002h-.075l.007.021.002.005.004.021v.002l.002.017v.027l-.003.02v.003l-.002.007-.003.016-.005.014-.002.004-.003.009-.002.002-.007.015v.001l-.014.02-.001.002-.014.02-.001.002-.002.003-.015.015-.002.003-.005.006-.014.013-.002.002-.005.005-.015.013-.003.004-.007.004a.742.742 0 0 1-.076.055l-.003.002h-.001l-.028.018-.004.002-.008.004-.024.013-.004.002-.021.011-.007.004-.017.008h-.001l-.028.013-.005.003-.04.017-.003.003-.01.002-.03.012-.006.003-.006.003-.038.014-.004.001-.008.003-.033.012-.01.004-.01.003-.03.01-.01.004-.01.003-.035.01-.01.004-.028.008-.03.009-.007.002-.04.011-.01.004-.01.001-.04.011-.012.003-.008.003-.055.014h-.002l-.048.01-.016.004-.008.002-.045.01-.034.008-.01.002-.04.008-.008.001-.047.01-.017.004-.015.002-.045.009-.014.002-.007.002-.05.008-.02.004-.03.005-.048.008h-.005l-.053.01-.054.008-.05.007h-.004l-.056.009-.045.006-.027.003-.04.006-.059.007-.026.003-.034.004.036.03.007.007.006.005.066.06.008.007.01.008.029.027.03.027.007.008.025.024.011.01.033.033.002.002.035.035.004.005.029.03.01.012.021.023.004.004.024.026.003.004.023.026.007.007.028.034.029.033.005.007.02.026.01.014.016.02.004.005.02.027.02.027.003.006.022.033.002.001.02.03.005.01.015.023v.002l.018.029.001.002.017.029.001.001.015.03.002.001.015.032.014.028.002.003.005.01.009.02.001.004.024.057.01.03.01.031.002.006.002.005.01.031.007.03.001.005.003.011.005.025.001.004.006.029v.002l.004.027v.008l.003.02.001.015.001.014.002.02v.068l-.001.024v.001l-.002.026-.001.015-.002.012-.003.02-.004.027-.002.006-.001.007-.006.026-.005.02-.003.011-.004.015-.005.016-.004.01-.007.022-.001.004-.01.025-.001.002-.01.023-.004.008-.008.018-.006.012-.006.013-.01.017-.004.007-.013.022-.001.003-.014.024-.002.003-.014.021-.006.009-.01.015-.002.002-.016.022-.014.018-.004.005-.02.023-.025.03-.004.005-.023.025-.002.003-.018.017-.008.01-.013.012-.007.007-.02.019-.015.013-.02.02-.01.008-.009.008-.03.023-.003.005-.036.027-.036.028-.005.003-.033.023-.01.008-.028.02-.017.01-.01.007-.026.017-.016.01-.034.022-.01.005-.041.024-.006.004-.006.004-.044.024-.046.025-.006.003-.016.008c-.03.017-.06.031-.092.047h-.002l-.048.024-.007.003-.022.01-.036.016-.015.007-.045.02-.007.002-.053.022-.062.025-.047.018-.016.007-.04.014-.025.01-.033.011-.011.004-.039.014-.018.007-.048.015-.05.017-.01.003c-.04.013-.08.026-.123.038l-.008.003-.054.016-.005.002-.046.012-.013.004-.027.008-.017.005-.041.01-.015.005-.03.008-.046.012-.019.005-.057.015-.01.002-.067.016-.07.017-.008.002-.06.014-.02.004-.05.011-.03.007-.042.008-.04.009-.03.006-.052.01-.021.005-.022.004-.05.01-.074.013-.075.014-.01.002-.065.011-.022.004-.011.002-.07.011-.011.002-.062.01-.02.003-.033.005-.055.009-.023.003-.066.01-.012.001-.078.01-.08.012-.011.001-.07.01-.022.002-.058.007-.034.004-.047.005-.017.003-.065.007-.058.007-.024.001-.07.008-.012.001-.083.009h-.001l.01.004.01.005.01.004.012.003.01.005.01.004.01.005.01.004.01.004.01.004.01.005.01.004.01.005.01.003.02.01.01.004.01.003.01.005.01.004.01.005.01.003.01.005.01.004.01.004.01.004.01.005.01.004.01.004.01.004.01.005.01.003.009.005.01.004.01.004.01.004.01.005.01.004.009.005.01.003.01.004.01.005.01.004.01.005.009.003.009.005.01.003.01.005.01.004.009.004.01.004.01.005.01.004.009.003.009.005.01.004.01.004.01.004.009.005.009.004.01.004.01.004.009.004.009.004c2.29.994 3.647 1.772 4.568 2.621.218.202-.178.344-.884.318-.706-.027-1.454-.211-1.672-.412-.82-.756-2.044-1.456-4.119-2.356l-.044-.02-.043-.019-.013-.005-.031-.014-.044-.019-.026-.011-.018-.008-.046-.019-.04-.017-.005-.002-.045-.02-.046-.019-.01-.004-.035-.015-.047-.02-.023-.01-.023-.01-.047-.02-.038-.016-.009-.003-.047-.02-.047-.02-.006-.002-.042-.017-.048-.02-.02-.009-.028-.011-.049-.021-.035-.013-.013-.006-.05-.021-.149-.06-.015-.008-.035-.014-.05-.02-.032-.014-.019-.007-.051-.022-.154-.062-.012-.005-.04-.016-.053-.02-.028-.013-.025-.01-.053-.02-.053-.022-.054-.022-.054-.021-.163-.065-.055-.023-.04-.016-.015-.005-.055-.023-.34-.133-.058-.023-.053-.022-.005-.001-.058-.022-.058-.023-.118-.047-.031-.012-.028-.011-.18-.07-.061-.023-.009-.004-.052-.02-.061-.024-.06-.003-.046-.003-.07-.005-.04-.002-.078-.006-.032-.002-.09-.006-.023-.001-.099-.006-.016-.002-.11-.007-.007-.001-.118-.009h-.002l-.12-.009h-.01l-.112-.008-.02-.001-.105-.009-.03-.002-.096-.008-.04-.003-.088-.006-.05-.004-.08-.007-.061-.004-.143-.012-.06-.005-.084-.007-.052-.005-.094-.008-.043-.003-.105-.01-.033-.002-.117-.01-.022-.003-.13-.01-.011-.002-.142-.013h-.001l-.144-.013-.01-.001-.135-.013-.02-.002-.126-.012-.033-.003-.115-.011-.044-.005-.106-.011-.055-.004-.095-.01-.067-.008-.013-.001-.138-.014-.012-.002-.074-.007-.091-.01-.063-.007-.103-.01-.004-.001-.164-.019-.04-.003-.128-.014-.028-.004-.141-.016-.017-.002-.154-.018H77.8l-.16-.019h-.007l-.154-.02-.019-.001-.141-.017-.032-.005-.13-.015-.044-.006-.02-.002-.306-.04-.026-.003-.094-.012-.161-.022h-.01l-.132-.018-.027-.004-.107-.014-.059-.008-.056-.008-.101-.014-.009-.001-.132-.02-.034-.005-.146-.02-.02-.003-.16-.023h-.008l-.167-.025-.005-.001-.164-.025-.017-.002-.15-.024-.03-.004-.14-.022-.12-.02-.048-.007-.055-.009-.038-.006-.114-.018-.03-.005-.1-.017-.031-.005-.1-.016-.073-.013-.117-.019-.018-.003-.105-.018-.024-.004-.126-.023-.046-.007-.118-.022-.049-.009-.038-.006-.05-.01-.119-.02-.155-.029-.013-.002-.168-.032-.068-.013-.055-.01-.012-.002-.11-.022-.024-.005-.067-.012-.03-.007-.036-.007-.068-.013-.019-.004-.047-.01-.067-.013-.007-.001-.06-.013-.061-.012-.005-.002-.01-.001-.087-.018-.02-.004-.016-.003-.067-.014-.037-.008-.029-.007-.066-.013-.026-.006-.04-.008-.066-.014-.015-.003-.051-.012-.066-.014h-.002l-.064-.014-.056-.013-.01-.002-.065-.015-.045-.01-.021-.004-.065-.014-.033-.008-.033-.008-.086-.02-.044-.01-.065-.014-.009-.003-.056-.013-.062-.014h-.002l-.065-.016-.051-.012-.014-.003-.064-.016-.039-.01-.026-.006-.064-.015-.027-.007-.1-.025-.016-.004-.049-.012-.063-.016-.004-.002-.116-.029-.007-.002-.063-.015-.045-.013-.018-.004-.063-.017-.033-.008-.03-.008-.187-.05-.011-.003-.051-.014-.062-.017-.112-.031-.012-.004a7.504 7.504 0 0 1-.184-.052l-.028-.008-.033-.009c-.06-.018-.122-.035-.181-.054l-.006-.001-.11-.034h-.005l-.06-.018-.044-.014-.015-.005-.023-.004-.022-.005-.006-.001-.015-.003-.023-.005-.021-.004-.022-.004-.009-.002-.012-.003-.022-.004-.021-.006-.022-.004-.042-.009-.022-.004-.041-.01-.021-.004-.021-.005-.02-.005-.017-.004h-.005l-.02-.005-.02-.004-.02-.005-.02-.006-.022-.004-.02-.005-.02-.004-.02-.005-.02-.005-.019-.005-.02-.005-.02-.005h-.001l-.018-.004-.019-.005-.02-.005-.018-.005-.02-.006-.019-.004-.019-.005-.018-.005-.007-.001-.012-.004-.019-.005-.018-.005-.019-.005-.008-.003-.01-.002-.019-.005-.035-.01-.01-.003-.008-.003-.018-.005-.035-.01-.013-.002-.005-.003-.018-.005-.017-.005-.017-.005-.014-.005h-.003l-.018-.005-.048-.015-.002-.001-.066-.02c-.663.084-1.493.131-2.45.131-3.13 0-6.441-.51-7.396-1.142-.752-.496.177-.918 2.128-1.077-1.692-.208-3.085-.54-3.651-.913-.955-.631.807-1.144 3.937-1.144.126 0 .252.001.377.003a2.303 2.303 0 0 1-.358-.187c-.955-.63.807-1.142 3.937-1.142a31 31 0 0 1 1.914.06c-.561-.573 1.169-1.019 4.09-1.019h.175l.1.001h.03l.015.001.102.001h.043l.058.002h.065l.009.002h.043l.044.001h.029l.015.002h.043l.015.001h.043l.015.002h.044l.015.001h.014l.015.002h.029l.15.005h.02l.13.006h.02l.111.006h.02zm17.055 7.936l-2.99 1.11-.045-.019-.046-.018-.033-.012-.014-.005-.046-.02-.047-.017-.028-.011-.02-.008-.046-.018-.047-.019-.022-.009-.025-.01-.048-.018-.048-.02-.017-.006-.03-.012-.049-.018-.048-.02-.012-.005-.036-.014-.05-.019-.048-.018-.007-.003-.042-.016-.049-.02-.05-.02h-.002l-.047-.018-.05-.02-.046-.017-.004-.002-.05-.02-.05-.018-.041-.016-.01-.004-.05-.02-.051-.02-.036-.014-.015-.005-.051-.02-.053-.02-.03-.012-.02-.007-.053-.02-.052-.02-.025-.01-.133-.05-.019-.008-.086-.034-.054-.02-.013-.005-.04-.016-.054-.02-.053-.02-.01-.003-.045-.018-.054-.021-.054-.02h-.003l-.052-.022-.055-.02-.051-.019-.004-.002-.055-.02-.055-.022-.046-.017-.01-.004-.056-.02-.056-.023-.04-.014-.016-.007-.057-.021-.057-.022-.034-.012-.023-.01-.057-.02-.058-.023-.027-.01-.03-.011-.057-.022-.059-.021-.021-.01-.037-.013h.028l.013.001.013.001h.041l.014.002h.054l.013.001h.054l.014.002h.041l.026.001h.068l.013.001h.028l.013.001h.054l.014.001h.121l.014.001h.054l.04.001h.135c2.97 0 4.708-.46 4.062-1.047h.014l.014.001h.03l.015.002h.045l.013.001h.031l.012.002h.061l.01.001h.048l.01.001h.018l.009.001h.073l.007.001h.065l.008.001h.05l.009.001h.12l.011.002h.289l.026.026.006.007.018.02.016.015.009.01.023.025.023.024.007.01.015.015.002.003.019.022.02.025.003.002.018.022.008.011.01.014.016.02.003.003.018.025.003.004.014.02.016.023.014.022.002.002.015.024.004.005.01.018.01.014.004.01.013.022.013.023.004.008.007.015.008.016.003.006.01.022.001.003.009.02.004.01.005.013.008.017.001.004.007.022.002.004.005.018.004.012.003.01.006.018v.003l.005.022.001.006.004.015.002.013.001.007.004.022.003.02v.008l.002.013.001.015v.027l.002.018v.01l-.001.011v.02l-.002.02v.003l-.002.016-.002.01v.01l-.003.017-.001.002-.004.019-.001.006-.004.013v.002l-.01.036-.008.025-.004.012-.006.013-.002.006-.007.018v.001l-.008.017-.004.008zm-2.99 1.11h.002l.25-.026.06-.008c.14-.017.28-.036.414-.057h.006l.058-.01h.002l.056-.01.166-.03.007-.001.108-.021.044-.01.01-.001.107-.025h.005l.048-.01.012-.004.04-.01.044-.011.008-.002.025-.006.026-.006.1-.027.044-.013.006-.001.048-.014.048-.014.007-.002.04-.013.013-.004.033-.01.046-.016.025-.008.005-.002.034-.013.012-.003.014-.005.035-.013.008-.003.041-.016h.002l.042-.017.003-.002.038-.015.01-.003.031-.014.014-.006.026-.011.003-.002.028-.012.008-.004.023-.01.002-.001.031-.016.01-.004.01-.005.032-.016.004-.003.037-.018.034-.02.005-.003.03-.016.009-.005.024-.014.013-.008.008-.005.025-.015.006-.005.03-.02.002-.001.01-.006.024-.017.005-.005.028-.019.002-.001.028-.021.001-.002.025-.02.005-.005.008-.006.044-.038.018-.017.014-.013.01-.01.016-.016.005-.007.019-.02.003-.003.02-.024.014-.016.005-.007.008-.01.009-.013.003-.004.012-.016.001-.002.01-.016.006-.008.014-.024.002-.003-2.966 1.065zm285.995-3.031h-.004l-.023.001-.172.01h-.014c-.053.004-.108.005-.163.008h-.019l-.008.002-.166.006h-.02l-.007.002h-.002l-.183.006h-.013l-.187.005h-.007l-.005.001-.2.005h-.033c1.042.303 2.032.567 2.958.796l-.002.001h.004a66.2 66.2 0 0 0 4.387.937 55.176 55.176 0 0 0-2.916-1.536 43.162 43.162 0 0 1-3.206-.244m-10.486-5.92l.04-.005.121-.012.04-.004.12-.01h.003l.041-.004.041-.004.084-.007.042-.003.042-.003.086-.006.042-.003.044-.003h.007l.074-.006.094-.006.044-.002.037-.002.139-.008.05-.002.089-.004.045-.003.033-.002h.014l.046-.002.046-.002.047-.002h.016l.03-.002.048-.001.142-.005h.007l.185-.005h.014c.06-.002.12-.004.181-.004l.022-.001h.027l.15-.003h.049c.063-.002.126-.002.19-.002h.012l.206-.001h.187l.064.001.163.001h.027l.202.004h.03l.17.004.048.001.16.004.046.002.184.004.062.003.141.005.062.003.184.007h.01l.029.002.164.008.057.003.145.007.057.003.184.01.062.005.135.008.066.004.18.013h.01l.008.001.186.013.057.005.145.01.052.005.182.015.074.007.114.01.083.007.124.012.07.007.164.016.08.008.115.012.072.007.15.017.094.01.108.012.092.011.09.01.086.012.167.02.077.01.093.012.095.013.098.013.138.018.087.013.105.015.063.01.106.015.002.001.143.022.096.014.068.011.108.017.035.006.233.038.025.006.105.017.058.01.1.018.05.01c.062.01.122.021.182.033l.063.013.098.018.046.009.102.02.131.026h.004l.088.02.059.011.1.021.021.005c.12.026.236.052.351.079l.013.003c.113.025.224.052.332.078l.03.008.1.026.024.005.306.081.032.01.093.025h.079c4.61 0 9.648.869 11.253 1.941l.064.044.02.015c.015.01.029.022.043.033l.016.011.054.045.006.005.046.04.01.011.035.036.012.01.037.042.01.012c.01.01.017.022.026.033l.009.012a.762.762 0 0 1 .023.035l.006.01a.3.3 0 0 1 .023.041l.006.01.013.032.006.014c.005.011.009.025.013.037v.002l.002.003.008.039.002.014.002.028.001.013v.04l-.001.003-.005.036-.002.014-.007.024-.005.017-.014.036-.004.01a.572.572 0 0 1-.016.028l-.007.013-.017.026-.008.013a.39.39 0 0 1-.027.035l-.01.011-.023.025-.014.015-.027.026-.01.01-.041.034-.014.011-.032.024-.017.011c-.011.008-.023.017-.035.024l-.03.02-.038.023-.026.015-.031.017-.03.016-.04.02-.04.02-.043.02-.03.014-.043.018-.03.013-.07.028-.031.012-.045.016-.04.015-.052.016-.03.012-.08.025-.046.014-.045.013-.045.013-.05.014-.045.013-.083.02-.002.002-.057.014-.048.011-.052.013-.066.015-.073.016-.062.013-.063.013-.05.01-.064.012-.056.01a2.31 2.31 0 0 1-.12.022l-.037.007-.076.012-.056.01-.062.009-.092.014-.088.012-.065.01-.07.01-.061.007-.074.01.018.04.01.03.003.009v.001l.01.034.002.01.003.025.002.01v.01l.002.024v.008l-.002.032v.002l-.005.032-.002.007-.002.01-.002.008-.003.01-.005.02-.003.008-.004.01-.008.018-.004.01-.005.01-.01.017-.005.01-.005.009-.01.015-.002.003-.006.01-.006.007-.002.002-.009.012-.019.024-.01.012-.019.02-.016.016-.003.003-.008.008-.01.01-.007.007-.003.001-.009.008-.01.01-.01.008-.008.007-.003.001c-.559.454-2.095.778-4.317.873 2.054 1.022 3.876 2.062 5.282 3.015 2.18 1.478 3.378 2.766 2.945 3.493-.117.2-.898.26-1.745.132-.846-.128-1.436-.394-1.319-.594.35-.585-.745-1.71-2.698-3.034-.2-.136-.408-.272-.625-.411-1.678-.224-4.318-.662-7.597-1.475l-.002.001a85.228 85.228 0 0 1-5.096-1.433c-3.63-.267-7.017-.985-8.279-1.828a1.984 1.984 0 0 1-.064-.044l-.015-.012a1.006 1.006 0 0 1-.057-.042l-.007-.006-.053-.042-.005-.005-.05-.044-.008-.009-.043-.041-.002-.002-.001-.002c-.013-.014-.026-.027-.036-.04l-.01-.011-.033-.043-.002-.003a.773.773 0 0 1-.029-.043l-.003-.004-.023-.041-.004-.009a.512.512 0 0 1-.019-.04v-.003l-.014-.041-.003-.008a.463.463 0 0 1-.008-.04v-.006a.145.145 0 0 1-.004-.035l-.001-.01v-.038l.001-.008.005-.035.001-.005v-.003a.176.176 0 0 1 .01-.034l.002-.011a.4.4 0 0 1 .015-.037l.003-.005a.174.174 0 0 1 .017-.034l.004-.008a.493.493 0 0 1 .023-.036l.007-.01.025-.032.002-.003.033-.037.009-.008a.578.578 0 0 1 .036-.036l.006-.004.036-.03.011-.01a.634.634 0 0 1 .042-.03l.015-.011c.012-.01.026-.019.04-.028l.008-.004v-.001l.005-.003.047-.029.018-.01a.834.834 0 0 1 .056-.031l.006-.004.058-.029.015-.008.065-.03.013-.006c.021-.01.042-.017.064-.027l.017-.007.065-.026.024-.01.074-.027.015-.006.068-.023.026-.008.078-.026.028-.008.076-.022.01-.004h.003l.088-.025.034-.008.087-.024.031-.007.078-.02.025-.005.099-.023.031-.007.096-.02.012-.003h.003a4.928 4.928 0 0 1-.077-.027l-.02-.007a2.753 2.753 0 0 1-.11-.04l-.017-.005-.106-.04-.017-.007-.106-.041-.009-.004a3.737 3.737 0 0 1-.108-.045l-.006-.002a4.642 4.642 0 0 1-.106-.046h-.003a4.663 4.663 0 0 1-.101-.047l-.004-.002-.006-.002a5.983 5.983 0 0 1-.094-.045l-.003-.001a5.96 5.96 0 0 1-.095-.049l-.004-.002c-.03-.015-.06-.03-.088-.046v-.001h-.003l-.085-.049-.001-.001a1.932 1.932 0 0 1-.081-.048l-.001-.001h-.001v-.001l-.077-.049c-1.24-.828-.07-1.534 2.649-1.813m-238.991-.623a17.99 17.99 0 0 1-.92-.747 9.762 9.762 0 0 1-.88-.3 8.65 8.65 0 0 1-1.196.127c.516.225 1.091.423 1.684.594.436.125.879.234 1.312.326m8.9 1.653c.013.143-.071.272-.229.385.173-.009.343-.023.5-.045.285-.038.533-.098.708-.185a8.13 8.13 0 0 1-.84-.17 3.959 3.959 0 0 1-.14.015m.883 3.636c.072.145-.305.234-.84.198-.536-.036-1.029-.183-1.1-.33-.673-1.369-1.394-1.663-4.339-3.039a19.24 19.24 0 0 1-2.525-1.423 26.224 26.224 0 0 1-3.431-.728c-.903-.26-1.771-.571-2.51-.929-2.048-.164-4.055-.67-4.851-1.269-.973-.73.228-1.323 2.683-1.323.325 0 .657.01.989.03-.244-.565.933-.981 2.99-.981 2.454 0 5.232.593 6.205 1.325a.922.922 0 0 1 .301.331c1.813.27 3.418.75 4.147 1.298 1.123.844-.264 1.527-3.096 1.527-.953 0-1.948-.077-2.892-.212a18.212 18.212 0 0 0 3.588 2.227l.231.108c.489-.058.972-.158 1.286-.298.134-.06.234-.128.285-.203-.2-.025-.401-.055-.6-.092-1.52-.275-2.371-.777-1.901-1.12.371-.272 1.457-.363 2.646-.252-.063-.102-.042-.202.077-.289.407-.297 1.804-.344 3.121-.105 1.317.24 2.054.674 1.648.972a.823.823 0 0 1-.212.105c.933.246 1.395.592 1.054.841-.133.096-.373.167-.68.21-.175.322-.782.525-1.558.63-.846.115-1.903.113-2.838.023a8.856 8.856 0 0 1-.288-.031c-.294.057-.607.103-.92.137 2.04.977 2.734 1.448 3.33 2.662m207.417-5.325c-.608.132-1.405.223-2.35.26.187.126.377.254.568.385.464-.057.951-.155 1.323-.325a1.38 1.38 0 0 0 .46-.32zm-4.844-3.637c3.457 0 7.104.653 8.147 1.458l.033.026.001.002.006.005.023.019.004.003.003.004.027.024.002.001.026.026.024.025.001.002.004.005.019.022.003.003.018.024.001.003.014.018.004.006.004.007.007.012.004.007.003.006.004.006.004.006.003.007v.002l.002.004v.002l.01.02v.002l.004.006.005.013v.006l.003.006.001.006.003.007.001.006.001.005.003.013v.008l.003.016v.012c.023.345-.556.637-1.583.825.501.84.108 1.365-.608 1.694-.643.296-1.545.434-2.316.5l.234.168c1.78 1.285 3.49 2.696 4.32 3.882.113.158-.245.262-.796.233-.553-.027-1.09-.178-1.202-.336-.799-1.14-2.463-2.511-4.197-3.763a57.658 57.658 0 0 0-1.68-1.164c-2.217-.073-4.409-.394-5.846-.832a24.64 24.64 0 0 1-.831.014c-3.457 0-7.105-.652-8.147-1.458-.634-.49-.158-.922 1.09-1.187l.022-.005.023-.003.022-.005.022-.004.021-.005.024-.004.022-.005.023-.004.023-.004.023-.005.024-.004.023-.004.006-.001.017-.003.024-.005.024-.004.046-.007h.002l.025-.005.024-.003.016-.003.009-.001.025-.005.025-.003.025-.004.008-.002.017-.001.026-.004.025-.004.026-.003.026-.004.026-.004.026-.004.027-.003.026-.003.026-.003.027-.004.012-.002.015-.001.026-.004.027-.003.028-.003h.003l.024-.004.028-.003.028-.003.028-.003.028-.003.028-.003.028-.003.014-.001.015-.002.028-.003.028-.003.03-.002h.006l.022-.003.058-.005.027-.003h.003l.106-.009.012-.001.03-.002.03-.003.03-.002.01-.001.021-.002.093-.007c-.031-.606 1.8-1.05 4.65-1.05 2.498 0 5.094.34 6.737.833h.058zm-29.501-1.515c.245-.037.409-.085.473-.139.402.03.84.045 1.28.045h.098c-.516.125-1.242.203-1.87.25.005-.05.012-.102.02-.156zm-1.144.083a2.215 2.215 0 0 0-.008.394 16.59 16.59 0 0 1-2.341-.29c-.53-.11-1.019-.248-1.398-.417h.012c.137 0 .269-.001.394-.004.382.18 1.67.321 2.976.321.126 0 .248-.001.365-.004zm-3.433-2.4h-.057l.02.012a15.561 15.561 0 0 0-.402-.004h-.174l.613-.008zm11.424 1.623l-.001-.001-.01-.004-.007-.003a1.597 1.597 0 0 0-.144-.047h-.002a3.705 3.705 0 0 0-.21-.05l-.02-.004-.009-.002-.03-.005-.021-.005-.01-.001-.064-.012-.022-.004-.01-.002-.024-.004-.01-.001-.024-.004-.01-.002h-.004l-.03-.005-.027-.004-.009-.001-.026-.004-.01-.002-.028-.004-.009-.001-.028-.004-.008-.001-.029-.004-.01-.002-.028-.004h-.009l-.03-.004h-.01l-.037-.006-.032-.004-.008-.001-.04-.005-.033-.003-.007-.001-.035-.004h-.007l-.035-.004h-.006l-.035-.005h-.007l-.036-.004h-.006l-.01-.001-.033-.004-.037-.003h-.007l-.037-.004h-.005l-.04-.004h-.005l-.039-.003h-.005l-.04-.004h-.004l-.042-.004h-.004l-.042-.003h-.003l-.043-.004h-.003l-.042-.003h-.004l-.043-.003h-.003l-.044-.003h-.002l-.046-.003h-.001l-.046-.002h-.001l-.047-.003-.048-.003-.048-.002-.048-.003c.506-.064.742-.166.566-.281-.297-.195-1.653-.352-3.03-.352l-.163.001c-.006-.019-.024-.038-.054-.057-.298-.194-1.653-.352-3.03-.352-.28 0-.54.006-.772.018l-.02-.007-.02-.009-.023-.008-.022-.008-.025-.007-.025-.009-.026-.007h-.001l-.027-.008h-.001l-.027-.007-.002-.001-.028-.007h-.002l-.03-.008h-.002l-.03-.007h-.002l-.03-.007h-.003l-.031-.008h-.004l-.031-.007-.003-.001-.032-.006h-.005l-.033-.007-.004-.001-.033-.006-.005-.001-.034-.005-.005-.001-.034-.006-.006-.001h-.006l-.035-.006-.035-.006-.041-.007h-.008l-.036-.006-.007-.001-.036-.005-.009-.001-.035-.005-.009-.001-.037-.005-.01-.001-.036-.005-.01-.001-.037-.005-.036-.003-.01-.002-.011-.001-.038-.004-.01-.002-.039-.004-.01-.001-.039-.004-.012-.002-.038-.004h-.012l-.039-.004-.044-.004h-.006l-.014-.002-.038-.004h-.014l-.038-.004-.015-.001-.039-.004-.014-.001-.039-.003-.107-.008h-.017l-.038-.004-.053-.003h-.002l-.018-.002-.037-.002-.02-.001-.037-.003h-.004l-.052-.003-.02-.001-.037-.002h-.02l-.037-.003-.106-.004h-.008l-.022-.001-.037-.002-.052-.002h-.006l-.022-.001-.036-.002a14.542 14.542 0 0 0-.176-.004l-.024-.001h-.036l-.024-.002h-.095l-.025-.002h-.039l-.112-.001h-.09c-.26 0-.502.006-.722.017l-.046.002h-.002l-.045.002h-.008l-.037.003c-.15.009-.287.02-.41.033h-.003l-.027.003-.01.001-.166.021-.006.001-.016.003-.016.002-.02.003-.01.002-.026.004-.005.001-.029.005-.028.005h-.005l-.022.006-.02.004-.007.001-.012.003-.013.003h-.004l-.02.005-.019.005-.005.002-.022.004-.002.001-.034.01-.006.002-.005.001-.015.005-.007.002-.011.004-.01.003-.008.003-.012.005-.005.002-.013.005-.001.001-.015.007-.013.006h-.003l-.01.006-.004.003-.007.004-.005.004v.001l-.009.006-.002.001-.003.002-.007.006-.001.001-.006.007-.005.008-.005.006v.002l-.003.006-.002.006v.005l-.001.004v.006l.002.008.002.008.002.003a.12.12 0 0 0 .025.031l.002.002.003.002.008.006.003.002.01.008.027.015h-.075l-.006-.001h-.076l-.005-.001h-.066l-.005-.001h-.169c-1.377 0-2.251.157-1.954.35.072.048.207.093.389.134h.001l.003.001h.004l.004.002h.005l.004.002h.004l.003.002h.002l.004.001h.004l.003.001h.002l.004.002h.008l.001.001h.004l.005.002h.003l.006.002h.005l.013.003.003.001h.001l.005.001.005.002h.009l.008.003h.001l.01.002h.005l.005.002h.004l.004.002h.005l.005.002h.005l.006.001.004.001.01.002.005.001h.01l.004.002h.005l.005.002.005.001h.005l.006.001.005.002h.004l.005.001h.006l.005.002h.005l.005.002.005.001h.005l.006.001.005.001.005.001.005.001h.005c-.238.06-.322.134-.205.214h-.054l-.004-.001h-.052l-.006-.001h-.017l-.008-.001h-.064l-.003-.002h-.134l-.007-.002h-.187c-1.376 0-2.251.156-1.954.352.297.193 1.654.35 3.03.35h.191c.326.103.949.19 1.677.236.478.238 1.145.432 1.886.584.973.2 2.075.325 3.053.378l.028.083c.123.305.41.544.97.806.133.062.469.106.749.098.281-.008.4-.065.267-.127-.499-.233-.755-.447-.865-.725a1.11 1.11 0 0 1-.072-.416c.831-.043 2.106-.144 2.912-.354.322-.083.568-.183.685-.303.1-.03.166-.061.191-.096.388.026.807.041 1.229.041 1.375 0 2.25-.157 1.953-.351a.58.58 0 0 0-.089-.045zm-151.026 1.097a27.702 27.702 0 0 1-1.857-.11h-.022l-.087.004-.016.001-.09.003-.01.001h-.005c-.032 0-.063.002-.094.003h-.016c-.035.001-.07.003-.106.003h-.005l-.107.002h-.006c-.035.002-.071.002-.107.003h-.09c.296.075.608.14.926.197a21.75 21.75 0 0 0 2.57.296 15.183 15.183 0 0 0-.878-.404zm2.613 1.976c.284-.17-.022-.532-.644-.951a8.008 8.008 0 0 0-.357-.226 29.457 29.457 0 0 1-4.083-.419c-.764-.137-1.505-.31-2.13-.522-1.924-.12-3.595-.425-4.086-.784a.202.202 0 0 1-.024-.019l-.007-.005-.02-.018-.004-.004-.017-.016-.003-.004a.093.093 0 0 1-.016-.018l-.004-.004a251.04 251.04 0 0 1-.013-.017v-.002a.117.117 0 0 1-.011-.019l-.002-.003-.01-.018v-.003l-.004-.017-.001-.002a.075.075 0 0 1-.003-.019v-.021c0-.006 0-.012.002-.018v-.004l.005-.017.002-.003a.056.056 0 0 1 .006-.015l.002-.004.01-.016.003-.005a.092.092 0 0 1 .01-.013l.002-.003v-.001a.132.132 0 0 0 .014-.016l.005-.004.016-.014.006-.005.015-.014.005-.003a.533.533 0 0 1 .02-.015l.008-.004.022-.015h.002v-.002a.427.427 0 0 1 .027-.014l.007-.004a.476.476 0 0 1 .028-.016l.006-.003.026-.011.008-.004.032-.015.01-.004a.61.61 0 0 0 .028-.01l.015-.007.029-.01.014-.006a.38.38 0 0 0 .037-.012l.009-.002.033-.012.014-.005.04-.01.016-.006.035-.01.015-.004.04-.01.018-.004.037-.01.031-.007.028-.007.02-.004.05-.01.02-.005.038-.008.027-.006.045-.008.018-.003a1.28 1.28 0 0 1 .055-.01l.022-.005.042-.007.024-.004.054-.008.026-.004.05-.007.014-.003-.036-.012-.012-.002-.048-.016-.012-.004c-.017-.006-.033-.013-.049-.017l-.005-.002a1.274 1.274 0 0 0-.05-.019l-.006-.002-.048-.019-.005-.001-.043-.019-.006-.001a1.299 1.299 0 0 1-.043-.02h-.002l-.042-.02h-.003l-.001-.002a1.062 1.062 0 0 1-.078-.04l-.002-.002h-.001l-.034-.02h-.002l-.001-.002-.031-.02h-.002v-.001l-.03-.02c-.555-.406.582-.744 2.603-.822h.014l.04-.002h.013l.013-.001h.028l.013-.002h.013l.041-.001h.014l.014-.001h.027l.07-.002h.041l.014-.001.056-.001h.014l.008-.001h.022l.07-.002h.029l.1-.001h.045l.073-.001h.38c.036.002.072.002.107.002h.026l.085.002h.032l.09.002h.022l.101.003h.03l.085.003h.025l.105.004.026.001.087.003.025.002c.031 0 .062.002.093.004h.017l.11.006h.018l.08.004.042.003.091.004h.012l.102.006.027.002.076.005.037.002.093.007.042.003.057.004.05.003.064.005.03.002.094.008.042.004.057.005.045.004.088.006.038.004.056.006.052.005.046.005.048.004.086.008.036.004.06.006.038.005.063.006.059.008.056.006.047.005.044.006.045.005.054.008.075.01.036.003.05.008.038.005.045.006.072.01h.003l.049.007.037.006.048.007.028.005c.032.005.065.01.095.013l.025.005.054.008.023.004.051.01.067.01.048.009.029.005.048.01.02.003.164.031.02.003c.017.004.033.008.049.01a8.633 8.633 0 0 1 .108.023l.016.003.047.011.022.005c.03.007.061.015.091.02l.005.002.046.011.017.004.046.012h.042c2.57 0 5.166.374 5.8.837a.202.202 0 0 1 .023.019l.01.007.014.013.007.005a.476.476 0 0 1 .018.019l.005.005.012.014.005.007a.084.084 0 0 1 .01.014l.004.004a.13.13 0 0 1 .011.02l.002.003.007.015.002.006.005.015v.003l.003.018.001.005v.019l-.002.015v.004l-.006.017-.002.005c-.002.004-.003.01-.006.013l-.002.006a.26.26 0 0 0-.01.015v.002l-.002.002-.011.015-.004.005-.011.012-.006.005a.08.08 0 0 1-.016.016l-.006.005-.015.012-.008.006-.015.01-.008.006a.695.695 0 0 1-.024.016l-.007.005-.02.01-.01.006-.024.013-.006.003-.03.014-.013.006-.022.01-.015.006-.024.01-.016.006a.81.81 0 0 1-.032.012l-.017.005-.027.01-.014.004-.033.011-.024.008-.028.008-.022.006-.027.008-.02.006-.037.01-.032.007-.026.006-.026.007-.03.007-.025.006-.047.01h-.001l-.03.006-.026.006-.032.006-.027.006-.048.008-.038.007-.03.005-.033.006-.03.005-.035.006a1.385 1.385 0 0 0-.057.008l-.034.005-.035.006-.032.004-.038.005-.032.005-.072.008-.027.004-.04.005-.036.004-.04.005h-.001l-.065.007-.04.003-.033.005-.046.004-.033.003-.046.004v.005l.001.005v.01l-.001.01-.001.006-.002.01-.005.012v.001l-.002.006-.001.005-.003.004-.002.004-.005.01-.003.004-.006.01-.003.005-.007.008v.001l-.004.004-.004.005-.004.004v.001l-.005.005-.004.004-.004.004-.006.006-.01.007-.005.006-.01.008h-.002l-.024.018-.007.005-.004.003-.001.001-.008.005-.006.004-.005.003-.003.002-.007.004-.013.007-.002.001-.008.004-.007.005-.006.003-.002.001-.017.009-.006.003-.002.001-.01.004-.008.004-.006.003-.003.001-.009.004-.016.007-.003.002-.01.004-.009.004-.006.003-.004.001-.01.003c-.429.171-1.261.295-2.367.34.758.333 1.44.693 1.936 1.026.736.496 1.066.945.66 1.186-.145.086-.626.106-1.074.043-.448-.061-.695-.18-.55-.267zm-2.759-4.295l.048.01a1.003 1.003 0 0 1-.048-.01zm0 0l.048.01-.048-.01z" fill="#E2C39D"/><path fill="#5D737A" d="M76 361h329L277.624 249h-74.248z"/><path fill="#FFF" d="M98 361h284L272.047 249h-64.093z"/><path fill="#5D737A" d="M111 361h259L269.726 249h-58.452z"/><path d="M242.781 259.288L242.354 249h-2.708l-.427 10.288h3.562zm.96 23.137l-.757-18.258h-3.968l-.756 18.258h5.48zm1.223 29.483l-1.021-24.604h-5.886l-1.02 24.604h7.927zM235 361h12l-1.834-44.214h-8.332L235 361z" fill="#FFF"/><path d="M37.84 267.96c.728-.09 1.242-.741 1.15-1.451-.094-.711-.76-1.214-1.487-1.123-.045.006-.114.01-.207.011-.679.012-1.48-.268-2.162-.833-.709-.589-1.273-1.483-1.43-2.683a5.291 5.291 0 0 1-.04-.6c-.012-.717-.617-1.292-1.352-1.28-.736.01-1.323.601-1.312 1.32.005.285.029.582.07.888.25 1.918 1.175 3.366 2.34 4.333 1.195.99 2.654 1.48 3.926 1.457.15-.002.318-.015.504-.038" fill="#AF8D64"/><path d="M40.662 277.558c-.2.97-1.173 1.6-2.174 1.407-1.001-.193-1.652-1.136-1.452-2.107.596-2.89 1.193-9.647 1.271-16.56.06-5.182-.173-10.436-.915-14.173-.191-.97.466-1.907 1.466-2.093 1.001-.185 1.97.45 2.16 1.42.787 3.967 1.035 9.47.973 14.875-.08 7.174-.705 14.207-1.33 17.231" fill="#AF8D64"/><path d="M47.29 231.317c2.645 1.725 4.362 4.503 4.362 7.637 0 .63-.07 1.247-.203 1.843 3.308 1.612 5.551 4.728 5.551 8.31 0 5.187-4.703 9.4-10.537 9.475-1.716 3.203-5.399 5.418-9.666 5.418-2.734 0-5.228-.91-7.12-2.405a12 12 0 0 1-2.981.374c-5.907 0-10.696-4.243-10.696-9.477 0-3.452 2.083-6.472 5.196-8.13a8.478 8.478 0 0 1-.443-2.701c0-3.794 2.516-7.066 6.15-8.58a8.52 8.52 0 0 1-.801-3.604c0-5.234 4.788-9.477 10.695-9.477s10.695 4.243 10.695 9.477c0 .629-.069 1.245-.202 1.84" fill="#85BC47"/><path d="M48.243 231.114c2.658 1.695 4.383 4.422 4.383 7.5 0 .62-.07 1.225-.204 1.81 3.325 1.584 5.578 4.644 5.578 8.162 0 .941-.162 1.849-.462 2.705-.929.24-1.91.376-2.927.389-1.724 3.145-5.425 5.32-9.713 5.32-2.748 0-5.254-.893-7.153-2.362-.952.24-1.958.367-2.997.367-5.936 0-10.748-4.166-10.748-9.307 0-3.389 2.093-6.356 5.22-7.983a8.154 8.154 0 0 1-.444-2.653c0-3.726 2.528-6.94 6.18-8.427a8.153 8.153 0 0 1-.344-6.245 12.27 12.27 0 0 1 3.087-.39c5.935 0 10.747 4.167 10.747 9.307 0 .618-.07 1.223-.203 1.807" fill="#A6DA69"/><path d="M91.525 259.982c-.71.117-1.385-.346-1.506-1.035-.122-.689.356-1.342 1.067-1.46 1.853-.31 3.844-1.43 5.278-3.39 1.212-1.656 2.022-3.923 2.022-6.83 0-.7.584-1.267 1.307-1.267.722 0 1.307.567 1.307 1.267 0 3.474-1.006 6.237-2.512 8.296-1.861 2.544-4.492 4.004-6.963 4.419" fill="#AF8D64"/><path d="M90.984 255.419c.684.14 1.128.826.991 1.532-.136.705-.801 1.164-1.485 1.024-2.052-.425-5.73-1.575-8.579-4.155-1.927-1.747-3.47-4.128-3.9-7.347-.092-.712.391-1.366 1.08-1.461.69-.095 1.324.403 1.417 1.115.335 2.502 1.546 4.364 3.062 5.737 2.417 2.191 5.62 3.183 7.414 3.555" fill="#AF8D64"/><path d="M92.824 268.942c-.085.665-.677 1.134-1.324 1.048-.647-.087-1.103-.697-1.018-1.361.316-2.497.155-4.806-.536-7.78-.71-3.057-1.986-6.843-3.875-12.22-.222-.63.095-1.327.708-1.556a1.174 1.174 0 0 1 1.514.728c1.91 5.44 3.206 9.286 3.95 12.487.761 3.28.936 5.85.58 8.654" fill="#AF8D64"/><path d="M78.326 249.389a7.95 7.95 0 0 1-2.655.441c-3.132 0-5.671-1.702-5.671-3.801 0-1.651 1.569-3.056 3.762-3.58-1.378-.695-2.27-1.8-2.27-3.043 0-2.1 2.54-3.802 5.672-3.802.126 0 .25.003.375.009a2.614 2.614 0 0 1-.077-.622c0-2.1 2.54-3.801 5.672-3.801.639 0 1.252.07 1.825.2.306-1.905 2.713-3.39 5.638-3.39 3.133 0 5.671 1.703 5.671 3.803 0 .057-.001.113-.005.17.293-.031.595-.048.9-.048 3.134 0 5.673 1.703 5.673 3.802 0 .762-.335 1.473-.911 2.067.747.638 1.196 1.439 1.21 2.31a8.354 8.354 0 0 1 1.194-.085c3.132 0 5.671 1.703 5.671 3.802 0 2.1-2.54 3.802-5.671 3.802-.148 0-.295-.004-.44-.011-.574 1.692-2.833 2.955-5.53 2.955-.313 0-.618-.018-.916-.05-.241 1.95-2.679 3.483-5.652 3.483-2.418 0-4.482-1.014-5.298-2.443a7.904 7.904 0 0 1-2.762.481c-2.532 0-4.677-1.113-5.405-2.649" fill="#85BC47"/><path d="M87.235 245.762a7.955 7.955 0 0 1-2.625.431c-3.098 0-5.61-1.662-5.61-3.712 0-1.612 1.552-2.984 3.72-3.496-1.362-.677-2.243-1.757-2.243-2.971 0-2.05 2.51-3.712 5.61-3.712.124 0 .247.002.37.008-.05-.198-.076-.4-.076-.607 0-1.96 2.295-3.564 5.203-3.703 2.73.25 4.834 1.801 4.834 3.677 0 .056-.002.112-.006.167.29-.03.588-.048.891-.048 3.098 0 5.61 1.663 5.61 3.713 0 .745-.33 1.438-.9 2.019.738.623 1.183 1.405 1.195 2.255a8.376 8.376 0 0 1 1.182-.083c3.098 0 5.61 1.663 5.61 3.713 0 1.587-1.505 2.94-3.621 3.472a8.265 8.265 0 0 1-.235-.022l-.011.08a8.219 8.219 0 0 1-2.178.171c-.568 1.653-2.801 2.886-5.47 2.886h-.016c-1.448-.384-2.597-1.156-3.155-2.12a7.94 7.94 0 0 1-2.732.468c-2.505 0-4.627-1.086-5.347-2.586" fill="#A6DA69"/><path d="M134.54 252.594c-.482-.253-.678-.87-.437-1.376.242-.506.829-.712 1.311-.46.03.017.077.037.141.062.47.182 1.095.177 1.709-.07.638-.259 1.252-.783 1.66-1.638a4.65 4.65 0 0 0 .176-.437c.187-.534.75-.807 1.258-.612.507.196.768.787.582 1.321a6.49 6.49 0 0 1-.27.645c-.65 1.366-1.652 2.212-2.702 2.637-1.074.434-2.21.427-3.087.086a3.375 3.375 0 0 1-.34-.158m-3.094-7.377a.923.923 0 0 1 .458 1.248.983.983 0 0 1-1.29.444c-1.093-.503-2.218-1.445-3.091-2.762-.732-1.103-1.293-2.48-1.516-4.091-.069-.512.304-.981.833-1.048.53-.067 1.015.294 1.084.806.18 1.313.635 2.43 1.227 3.323.668 1.006 1.5 1.713 2.295 2.08" fill="#AF8D64"/><path d="M134.126 262.31c-.14.488-.702.785-1.257.662-.555-.121-.892-.616-.754-1.105 1.308-4.606.934-5.598-.334-10.224-.54-1.963-.747-4.226-.777-6.369-.047-3.317.336-6.374.575-7.525.1-.495.637-.824 1.2-.734.561.088.935.56.835 1.055-.225 1.088-.587 3.995-.543 7.183.029 2.022.222 4.146.72 5.96 1.345 4.902 1.722 6.217.335 11.097" fill="#AF8D64"/><path d="M132.445 229c2.393 0 4.333 1.984 4.333 4.432 0 .383-.047.756-.138 1.111a5.136 5.136 0 0 1 2.36 4.343c0 2.825-2.239 5.114-5 5.114-2.183 0-4.039-1.432-4.72-3.426a4.238 4.238 0 0 1-1.946.47c-2.394 0-4.334-1.983-4.334-4.431 0-2.447 1.94-4.43 4.334-4.43.317 0 .626.034.924.1.496-1.89 2.182-3.283 4.187-3.283" fill="#85BC47"/><path d="M128.913 233.415c.372 0 .732.051 1.072.146.085-1.981 1.745-3.561 3.78-3.561 2.09 0 3.784 1.665 3.784 3.72a3.66 3.66 0 0 1-.45 1.76c1.67.43 2.901 1.923 2.901 3.7 0 2.109-1.74 3.82-3.885 3.82-2.104 0-3.818-1.645-3.884-3.698a3.926 3.926 0 0 1-3.318 1.809c-2.16 0-3.913-1.723-3.913-3.848 0-2.126 1.752-3.848 3.913-3.848" fill="#A6DA69"/><path d="M133.064 252.989c-.504.08-.975-.279-1.053-.804-.078-.525.267-1.016.771-1.097.719-.119 1.701-.532 2.438-1.256.505-.495.88-1.139.931-1.932.034-.531.476-.933.985-.898.51.036.896.495.862 1.025-.086 1.344-.695 2.408-1.51 3.208-1.028 1.007-2.408 1.586-3.424 1.754" fill="#AF8D64"/><path d="M141.976 249.113c-.885 1.022-2.496 1.185-3.598.363a2.463 2.463 0 0 1-.448-.432 3.137 3.137 0 0 1-2.828-.45c-1.27-.948-1.472-2.673-.45-3.852.807-.932 2.137-1.245 3.287-.866.08-.35.25-.69.508-.99.885-1.021 2.496-1.184 3.598-.362 1.1.822 1.276 2.316.39 3.338a2.498 2.498 0 0 1-.387.361c.667.847.67 2.034-.072 2.89" fill="#85BC47"/><path d="M140 247c1.102 0 2-.898 2-2 0-1.102-.898-2-2-2-1.101 0-2 .898-2 2 0 1.102.899 2 2 2" fill="#A6DA69"/><path d="M137 248c1.102 0 2-.898 2-2 0-1.101-.898-2-2-2-1.102 0-2 .899-2 2 0 1.102.898 2 2 2" fill="#A6DA69"/><path d="M140 250c1.102 0 2-.898 2-2 0-1.102-.898-2-2-2-1.102 0-2 .898-2 2 0 1.102.898 2 2 2" fill="#A6DA69"/><path d="M343.223 248.983c-.56.102-1.1-.257-1.205-.8a1.006 1.006 0 0 1 .825-1.172 5.277 5.277 0 0 0 2.648-1.312c.992-.907 1.932-2.409 2.465-4.9.116-.542.663-.89 1.222-.778.558.114.916.645.8 1.186-.632 2.96-1.812 4.802-3.071 5.952a7.346 7.346 0 0 1-3.684 1.824" fill="#AF8D64"/><path d="M341.006 240.069c-.06-.533.372-1.01.968-1.064.595-.054 1.128.334 1.188.867.265 2.245.661 6.088.793 10.367.133 4.29-.001 9.004-.805 12.963-.106.526-.668.877-1.257.783-.589-.095-.98-.598-.874-1.125.773-3.806.901-8.387.771-12.568-.13-4.193-.523-7.997-.784-10.223" fill="#AF8D64"/><path d="M346.627 232.632c3.52 0 6.373 2.062 6.373 4.605 0 1.873-1.547 3.484-3.767 4.204-.656 2.04-3.187 3.559-6.209 3.559-2.564 0-4.776-1.095-5.787-2.673a8.95 8.95 0 0 1-.863.042c-3.52 0-6.374-2.062-6.374-4.605 0-2.121 1.985-3.907 4.685-4.442.77-1.92 3.219-3.322 6.123-3.322 2.542 0 4.737 1.076 5.76 2.632h.059z" fill="#85BC47"/><path d="M346.804 232.942c3.423 0 6.196 2.306 6.196 5.149 0 .493-.084.971-.24 1.423a6.543 6.543 0 0 1-1.062.506c-.262.938-.832 1.777-1.617 2.44a6.708 6.708 0 0 1-.744.33 4.45 4.45 0 0 1-.08.255c-1.013.6-2.255.955-3.595.955-2.494 0-4.643-1.224-5.626-2.99a7.41 7.41 0 0 1-.84.048c-3.422 0-6.196-2.305-6.196-5.148 0-.494.084-.972.24-1.424a6.774 6.774 0 0 1 1.954-.772c.747-2.146 3.129-3.714 5.952-3.714 2.472 0 4.606 1.203 5.6 2.943h.058z" fill="#A6DA69"/><path d="M436.143 261a2.142 2.142 0 1 1 0-4.285c1.66 0 4.662-1.033 7.108-3.479 1.71-1.709 3.097-4.113 3.482-7.347a2.14 2.14 0 1 1 4.252.503c-.515 4.326-2.392 7.56-4.704 9.874-3.328 3.329-7.664 4.734-10.138 4.734" fill="#AF8D64"/><path d="M439.663 275.396c.762 1.02.521 2.441-.538 3.175-1.059.734-2.536.502-3.298-.517-2.151-2.866-2.976-8.18-2.805-14.052.18-6.213 1.44-13.2 3.376-18.48.435-1.188 1.788-1.81 3.021-1.391 1.232.418 1.88 1.72 1.446 2.907-1.788 4.874-2.95 11.334-3.118 17.088-.144 4.963.414 9.27 1.916 11.27" fill="#AF8D64"/><path d="M430.783 225.71l-.095.119c.031-.04.062-.08.095-.12m13.238 25.911l.002.001.06.01c.084.014.17.029.256.042l.05.008.262.038.032.004.013.002.274.035.035.004.012.001.304.032.008.001.01.001c.103.01.206.018.31.027h.007l.008.001c.102.008.203.014.304.02h.017l.006.002h.011l.315.015h.004c.108.004.216.007.326.009h.008c.11.003.22.004.331.004 7.187 0 13.014-4.399 13.014-9.825 0-.074-.001-.147-.004-.22l-.002-.061-.01-.211-.004-.043a5.696 5.696 0 0 0-.015-.192l-.005-.04a7.125 7.125 0 0 0-.024-.214l-.008-.054a4.843 4.843 0 0 0-.031-.205l-.002-.01v-.002l-.001-.007a7.214 7.214 0 0 0-.04-.212l-.007-.041c-.016-.073-.031-.145-.049-.217l-.007-.032a9.943 9.943 0 0 0-.05-.198l-.008-.03-.061-.212-.013-.041a6.538 6.538 0 0 0-.068-.211l-.001-.002v-.001a5.6 5.6 0 0 0-.073-.203l-.02-.053a9.194 9.194 0 0 0-.077-.195l-.018-.043c-.024-.057-.048-.115-.073-.171l-.02-.044a5.354 5.354 0 0 0-.087-.186l-.03-.062-.083-.166-.012-.023v-.002l-.01-.014a6.03 6.03 0 0 0-.095-.177l-.027-.05-.104-.18-.033-.054-.093-.151-.026-.042a12.419 12.419 0 0 0-.118-.177l-.037-.056a13.628 13.628 0 0 0-.117-.165l-.008-.012-.002-.004-.131-.176-.038-.05c-.045-.058-.089-.115-.134-.17l-.03-.038-.119-.143-.038-.046-.141-.163-.044-.048-.121-.132-.065-.069-.121-.125-.059-.06-.152-.15-.035-.033c-.046-.042-.09-.086-.138-.128l-.05-.048a13.938 13.938 0 0 0-.159-.14l-.064-.056-.135-.116-.058-.048-.157-.127-.061-.049-.14-.107-.116-.088-.101-.075-.078-.056c-.058-.042-.116-.082-.175-.123l-.074-.05-.14-.094-.095-.062-.158-.102-.066-.04a11.852 11.852 0 0 0-.188-.115l-.078-.046-.144-.083-.083-.048-.18-.099-.091-.049-.167-.087-.048-.024.057-.134.02-.044c.024-.063.049-.124.072-.187l.018-.046.072-.201.006-.021c.025-.071.049-.144.07-.216l.009-.025.062-.219.002-.005.004-.018c.02-.07.037-.141.055-.211l.005-.028a5.81 5.81 0 0 0 .05-.222v-.008c.017-.077.031-.155.044-.233l.002-.009.002-.01c.026-.158.048-.315.064-.474l.001-.011v-.01c.009-.077.015-.155.02-.23v-.01l.001-.006v-.003c.005-.08.01-.158.012-.238v-.011c.003-.083.005-.166.005-.248 0-5.427-5.826-9.825-13.014-9.825l-.306.003-.07.002a9.56 9.56 0 0 0-.25.007l-.062.002a9.276 9.276 0 0 0-.293.014l-.073.004-.232.016-.087.007-.243.02-.041.004-.018.002c-.093.009-.185.019-.277.03l-.078.008-.232.03-.063.008-.282.04-.069.011-.23.038-.066.012-.247.046-.044.008a11.87 11.87 0 0 0-.287.058l-.047.011-.21.047-.11.026c-.079.018-.158.038-.237.058l-.02.005-.01.003c-.088.022-.176.046-.263.07l-.068.018-.196.057-.09.026c-.081.024-.16.048-.238.073l-.108.036-.142.046-.125.043-.161.056-.078.028-.233.088-.105.04-.141.057-.11.044-.217.092-.093.041-.138.062-.123.056-.114.054-.115.055-.208.103-.086.045-.143.075-.09.048-.15.082-.14.08-.132.076-.108.065-.105.063-.103.064-.126.08-.173.113-.081.056-.118.08-.083.057-.103.074-.162.119-.007.005-.11.083-.082.065-.107.084-.064.051-.21.174-.051.045-.117.102-.052.046-.111.1c-.047.044-.095.088-.141.133l-.104.1-.06.058-.102.103-.041.043c-.116.12-.23.242-.34.367l-.04.049a4.837 4.837 0 0 0-.219.26l-.095.119-.032.04-.091.12-.043.059a9.53 9.53 0 0 0-.176.245l-.01.015-.085.127-.032.048-.084.132h-.122c-7.187 0-13.013 4.398-13.013 9.823 0 .075.001.148.004.222l.003.082.007.15.006.079c.004.071.01.143.017.213l.006.054.02.17.01.076c.008.054.015.106.025.159l.01.065c.012.073.026.146.04.218l.008.037.04.179.017.072c.014.061.03.122.046.183l.007.027c.02.074.041.147.063.22l.015.045c.017.057.037.115.055.173l.02.056c.02.06.041.118.062.176l.016.043c.025.066.051.133.078.198l.026.063.067.156.027.06.085.182.009.018v.002l.015.028c.028.058.057.115.087.173l.03.06.08.147.034.06c.035.063.071.125.107.186l.036.058.085.138.045.07.088.133.038.057.127.182.036.05.102.136.051.068.112.143.028.034c.046.058.094.116.142.173l.057.067.097.111.068.076.102.112.068.071c.044.048.09.095.136.142l.068.068.112.11.056.055.138.129.097.088.107.095.083.074.106.09.08.067.14.112.12.095.099.076.094.07.109.081.092.068.003.002.17.119.003.003.107.071.092.063.114.075.097.061c.055.036.111.07.168.104l.131.081.109.063.108.063.107.061.119.065a9.8 9.8 0 0 0 .192.103l.114.06.118.06.106.053.126.061.105.049.236.109.09.04.129.055.12.051.127.053.008.003.204.082h.002l.128.048.106.04.146.053.101.036.146.05c1.338 4.352 6.505 7.594 12.676 7.594 2.43 0 4.704-.505 6.652-1.38" fill="#85BC47"/><path d="M430.05 225.643l-.094.118c.03-.04.061-.079.093-.118m28.17 19.44a7.564 7.564 0 0 0 .777-3.545l-.002-.059a9.853 9.853 0 0 0-.01-.208l-.004-.043-.015-.189-.004-.04a6.986 6.986 0 0 0-.025-.21l-.008-.053a4.752 4.752 0 0 0-.03-.203l-.002-.01v-.002l-.001-.007a4.5 4.5 0 0 0-.04-.208l-.007-.04c-.016-.072-.03-.144-.048-.215l-.007-.031a9.76 9.76 0 0 0-.05-.196l-.008-.03-.06-.208-.013-.04a6.426 6.426 0 0 0-.068-.209v-.001l-.001-.001a5.506 5.506 0 0 0-.072-.2l-.02-.052a9.035 9.035 0 0 0-.076-.194l-.017-.041-.073-.17-.02-.043a5.266 5.266 0 0 0-.086-.183l-.029-.06-.083-.164-.012-.023v-.002l-.009-.014a5.935 5.935 0 0 0-.095-.175l-.027-.049c-.033-.06-.069-.119-.103-.178l-.032-.053-.093-.149-.026-.041a12.238 12.238 0 0 0-.116-.174l-.037-.055a13.43 13.43 0 0 0-.115-.164l-.008-.011-.002-.004-.13-.174-.038-.05-.133-.167-.03-.037-.117-.141-.038-.046-.14-.16-.044-.048-.12-.13-.064-.067-.12-.124-.058-.058-.15-.148-.036-.033-.136-.127-.05-.047a13.805 13.805 0 0 0-.157-.138l-.064-.055-.133-.115-.058-.047-.155-.125-.061-.048-.138-.106-.116-.086-.1-.074-.077-.056-.173-.121-.073-.05-.14-.092-.093-.062-.157-.1-.066-.04a11.742 11.742 0 0 0-.186-.113l-.077-.045-.143-.082-.082-.047-.179-.098-.09-.048-.165-.086-.047-.024.056-.131.019-.044c.025-.062.05-.122.072-.184l.018-.046.071-.198.007-.02a6.7 6.7 0 0 0 .07-.214l.007-.024.062-.216.002-.005.004-.018c.02-.069.037-.139.054-.208l.006-.027a7.1 7.1 0 0 0 .048-.22l.002-.007c.016-.076.03-.153.043-.23l.001-.009.002-.01a6.63 6.63 0 0 0 .063-.467l.002-.011v-.01c.008-.076.014-.152.02-.227v-.019a8.26 8.26 0 0 0 .013-.234v-.01a6.71 6.71 0 0 0 .004-.245c0-5.35-5.773-9.687-12.895-9.687l-.303.003-.07.002a9.528 9.528 0 0 0-.247.007l-.062.001c-.097.004-.193.009-.29.015l-.072.004a25.1 25.1 0 0 0-.23.015l-.086.007-.24.02-.042.004-.018.002a11.62 11.62 0 0 0-.274.029l-.078.008-.23.03-.061.008c-.094.013-.188.025-.28.04l-.068.01-.228.038-.066.012-.244.044-.044.009c-.096.018-.19.037-.284.057l-.047.01-.208.047-.11.025-.234.058-.019.005-.011.002a15.48 15.48 0 0 0-.26.069l-.067.018-.195.056-.09.027c-.08.023-.158.047-.235.072l-.107.034-.14.046-.124.042-.16.056-.078.028-.23.086-.104.04-.14.056-.11.043-.214.091-.092.04-.137.061-.122.055-.112.054-.114.054-.207.102-.085.044-.142.074-.089.048-.148.08-.14.078-.13.076-.107.064-.104.062-.102.063-.125.079a14.16 14.16 0 0 0-.171.112l-.081.054-.116.079-.083.057-.102.072a9.24 9.24 0 0 0-.16.118l-.007.005-.108.082-.083.064-.106.083-.063.05c-.07.057-.14.114-.207.172l-.052.044-.116.1-.05.046-.111.098-.14.131-.103.099-.06.058-.1.101-.041.042c-.115.12-.227.239-.336.362l-.041.048a4.775 4.775 0 0 0-.217.256 4.827 4.827 0 0 0-.093.118l-.032.04-.091.118-.042.058a9.4 9.4 0 0 0-.175.242l-.01.015-.084.125-.032.047-.083.13h-.12c-2.801 0-5.392.67-7.506 1.809a7.554 7.554 0 0 0-.777 3.546l.002.08.008.149.005.076c.005.07.01.141.018.212l.006.052c.006.056.012.112.02.168l.01.076.024.155.01.065.04.214.008.037c.012.06.025.118.039.177l.017.07c.014.061.03.12.046.18l.007.027c.02.073.04.145.063.218l.014.043c.017.057.035.114.055.171l.02.057c.018.057.04.115.06.173l.016.04c.026.066.051.132.079.197l.025.063.067.153.026.058.084.18.008.018.002.002.013.027c.028.058.056.114.086.17l.03.059.08.146.034.06.106.183.035.057.085.135.044.07.088.131.037.057c.041.06.084.12.127.18l.035.048.1.134.051.067.111.141.027.034c.046.057.094.113.142.17l.056.066.096.11.067.074.102.11.067.072.135.139.067.067.11.108.057.054.136.127.095.087.107.095.084.071.104.089.08.066c.045.038.092.075.138.112l.119.094.097.074.093.07.108.079.092.067.004.003c.055.04.11.077.167.116l.004.003.105.071.092.062.114.073.095.061.166.103.13.079.107.062.108.063.107.06.118.064.19.101.112.059.117.059.106.052.123.06.105.048c.077.037.155.073.234.108l.09.04.128.055.119.05.124.051.007.004.204.08h.002l.126.048.105.04.145.052.1.034.145.051c1.325 4.29 6.446 7.486 12.56 7.486 2.408 0 4.662-.496 6.591-1.36h.003l.059.011.254.041.048.008.261.037.032.005.013.001c.09.013.181.024.272.034l.034.004.012.002.3.032h.009l.01.001c.101.01.204.018.306.026h.008l.008.002.302.02h.022l.011.002.311.014.005.001.322.01h.008l.33.001c2.8 0 5.391-.67 7.505-1.809" fill="#A6DA69"/><path d="M387.182 254.353c.73.345 1.027 1.185.662 1.874-.366.69-1.255.97-1.986.625-1.4-.66-3.679-2.092-6.057-4.983l-.003.002c-1.575-1.915-3.213-4.494-4.691-7.95-.305-.719.065-1.533.824-1.82.76-.288 1.623.06 1.927.778 1.356 3.172 2.852 5.528 4.285 7.27l-.003.003.003.002c2.037 2.478 3.906 3.664 5.039 4.2" fill="#AF8D64"/><path d="M386.655 269.342a1.45 1.45 0 0 1-1.988.435 1.41 1.41 0 0 1-.441-1.963c1.255-1.936 1.86-5.656 1.891-10.039.033-4.747-.629-10.19-1.891-14.995-.2-.76.263-1.536 1.033-1.734a1.444 1.444 0 0 1 1.758 1.02c1.323 5.035 2.017 10.74 1.982 15.72-.034 4.888-.784 9.152-2.344 11.556" fill="#AF8D64"/><path d="M381.405 248.095h-.004l-.026.005-.188.032h-.005l-.01.002-.178.026-.02.003-.01.001-.178.022-.022.003h-.007l-.002.002-.195.02h-.007l-.007.001a8.903 8.903 0 0 1-.198.017h-.007l-.006.001c-.07.006-.14.01-.21.014l-.003.001-.212.01h-.003l-.21.006h-.007l-.216.002c-4.68 0-8.474-2.886-8.474-6.447l.002-.144.002-.038c.001-.049.004-.097.007-.145l.001-.017.012-.141.001-.016c.005-.049.012-.098.018-.146l.003-.028c.006-.047.014-.094.021-.14l.001-.006.002-.005c.007-.046.015-.091.024-.137l.007-.033.031-.142.002-.01c.011-.048.024-.095.036-.143l.003-.012.04-.141.01-.029c.013-.044.027-.089.042-.132l.002-.006v-.004l.049-.135.01-.028.052-.133.01-.021.048-.115.014-.031.059-.127.014-.028c.019-.04.038-.08.058-.117l.007-.014v-.001l.005-.01.062-.115.02-.036.07-.122.01-.016.07-.114.017-.026c.024-.04.05-.079.076-.117l.024-.034c.024-.038.05-.074.076-.11l.005-.008.001-.002.088-.12.02-.026c.03-.04.06-.08.092-.118l.012-.015c.027-.035.055-.069.084-.102l.023-.028.092-.107.03-.033.084-.093.015-.016.002-.001.008-.01.092-.096.032-.033.106-.104.012-.012.101-.095.028-.026.112-.101.023-.02.105-.09.03-.025.104-.086.038-.03.118-.092.023-.017.104-.078.04-.03.117-.081.043-.03.112-.075.014-.01.004-.002.126-.082.048-.03.123-.076.044-.025.108-.063.034-.02.134-.075.043-.022.129-.068.015-.008.004-.002-.038-.09-.01-.023-.05-.131-.008-.02-.047-.133-.008-.023c-.015-.046-.03-.09-.044-.138l-.004-.012c-.015-.048-.028-.097-.042-.146l-.002-.009c-.013-.05-.027-.102-.038-.152v-.004a3.388 3.388 0 0 1-.035-.153v-.004l-.002-.01a3.849 3.849 0 0 1-.028-.148v-.005a3.695 3.695 0 0 1-.024-.16v-.006a5.8 5.8 0 0 1-.02-.156v-.006a5.61 5.61 0 0 1-.013-.16v-.003a3.845 3.845 0 0 1-.008-.159v-.006a6.14 6.14 0 0 1-.003-.164c0-3.56 3.793-6.447 8.474-6.447.063 0 .126 0 .19.002l.062.002c.055.001.11.002.165.005h.026c.068.002.134.006.2.01l.03.001c.057.004.113.007.169.012l.046.004c.052.003.104.008.156.013l.045.004c.06.006.12.012.178.02l.06.006.136.017.059.009c.058.007.116.016.174.025l.012.001.026.005.155.025.053.01.136.025.052.01.173.035.056.013.124.028.061.014.163.04.01.003.008.002c.056.014.112.03.167.045l.052.014.13.038.046.014.162.05.065.022.1.032.073.026.108.038.062.023c.048.017.094.034.142.053l.068.027.099.04.062.026.127.053.08.036.09.04.077.036.076.036.071.034c.047.022.092.045.138.069l.063.033.076.04.078.042.08.044c.037.02.073.041.11.063l.07.04.084.05.05.032.085.052.112.073.075.05.052.035.084.058.027.019c.06.042.118.085.176.129l.02.014.08.061.042.033.076.06.036.03c.045.036.09.074.133.111l.046.04.071.061.033.03.074.068.092.087.003.002.062.062.04.04.07.07.015.016c.082.085.162.17.238.26l.009.01c.074.085.146.174.216.262l.019.025.063.084.015.02c.065.089.128.18.188.27l.018.03c.02.028.037.056.056.085v.001h.08c4.678 0 8.473 2.886 8.473 6.446 0 .05-.001.1-.003.149l-.001.048a5.706 5.706 0 0 1-.006.108l-.003.041a3.515 3.515 0 0 1-.012.148l-.002.014c-.004.046-.01.091-.015.136l-.005.036c-.006.039-.011.078-.018.116l-.005.036-.026.14-.009.04-.023.109-.01.04c-.01.04-.018.079-.03.117l-.007.03a4.425 4.425 0 0 1-.04.139l-.01.035-.034.105-.014.044-.045.123-.004.012-.003.006a2.853 2.853 0 0 1-.05.13l-.019.047-.04.09-.02.046a2.575 2.575 0 0 1-.06.13v.002l-.006.011c-.018.039-.039.078-.058.118l-.026.047-.043.082-.03.054c-.022.04-.044.079-.069.118l-.02.035-.058.094-.027.043-.057.087-.028.042-.08.117-.029.038-.06.082-.035.048-.07.088-.022.029-.094.115-.033.038-.068.078-.036.04-.071.08-.06.063-.074.078-.048.048-.06.059-.052.05-.072.07-.072.066-.073.066-.051.045-.072.06-.05.043c-.037.032-.076.063-.114.094l-.048.037-.071.056-.063.047-.08.06-.046.034-.118.084-.07.046-.066.045-.065.044-.07.045-.068.043-.116.07-.003.003-.079.047-.068.039-.07.04-.09.05-.098.053-.084.044-.084.043-.065.032-.084.042-.071.034-.156.073-.048.02-.096.042-.07.03-.078.032c-.038.017-.076.031-.115.047l-.108.042-.08.03-.085.031-.075.027-.09.03c-.872 2.856-4.236 4.984-8.254 4.984-1.582 0-3.063-.33-4.33-.905" fill="#85BC47"/><path d="M379.632 228.453a11.047 11.047 0 0 1 3.353-.452l.063.002.163.005h.027c.067.002.134.006.2.01l.03.002.168.01.047.004.155.014.046.004c.06.005.12.01.178.018l.06.007.135.016.06.008.174.025.011.001.026.004.155.026.054.01.136.024.052.01c.058.01.115.022.172.034l.056.012.124.027.061.015.164.038.01.003.007.001.167.045.053.014.128.037.048.013c.053.016.107.032.161.05l.065.02.1.032.073.024.108.038.062.022.142.052.068.026.099.039.062.025.127.052.079.035.091.04.078.034.075.035.072.033.137.067.063.033.077.04.076.04.08.043.11.061.07.04.085.049.05.03.084.051c.039.023.076.047.112.07l.076.05.051.033.084.058.027.018c.06.04.118.082.176.126l.021.013.078.06.044.032.075.058.036.029.134.108.046.04.07.06.034.028c.024.022.05.044.073.067l.092.084.003.003.063.06.04.037.07.07.015.015c.081.083.16.167.237.253l.009.01c.074.083.146.17.216.257l.018.023.064.082.015.02c.065.086.129.174.188.262l.019.029.054.083.001.001h.079c4.678 0 8.471 2.813 8.471 6.283l-.003.145-.001.046a5.2 5.2 0 0 1-.006.106l-.003.04a2.388 2.388 0 0 1-.011.144l-.003.014-.015.132-.005.035a6.12 6.12 0 0 1-.018.113l-.005.036a2.863 2.863 0 0 1-.026.136l-.008.04-.024.104-.009.04-.03.114-.007.029-.04.135-.01.034-.034.103-.015.042-.044.12-.004.012-.003.006a5.228 5.228 0 0 1-.05.127l-.02.046c-.012.03-.026.059-.039.088l-.02.045a2.548 2.548 0 0 1-.06.127l-.001.001-.005.01a3.47 3.47 0 0 1-.06.115l-.024.047-.043.08-.03.051c-.023.04-.045.078-.069.116l-.02.033-.058.092-.027.042-.058.086-.027.04a3.293 3.293 0 0 1-.082.114l-.027.037-.06.08-.036.047-.069.086-.023.028-.094.112-.032.038-.067.075-.037.04-.072.077-.06.062-.073.075-.048.047-.06.058-.052.05-.072.067-.072.064-.074.064-.05.044-.072.06-.05.04-.114.091-.048.037-.072.054-.062.046-.079.058-.047.033-.118.083-.069.045-.067.044-.065.042-.07.044-.067.042-.116.07-.004.002-.079.044-.067.04-.071.038-.09.049-.098.052-.083.042-.084.042-.065.032-.084.041-.072.032a6.204 6.204 0 0 1-.156.07l-.047.021-.096.041-.07.03-.079.031-.114.045-.107.041-.082.03-.084.03-.075.026-.09.03a5.527 5.527 0 0 1-1.098 1.94c-.977.291-2.044.452-3.162.452-1.582 0-3.063-.322-4.33-.882h-.004l-.026.005a8.888 8.888 0 0 1-.19.03l-.004.002h-.01c-.058.01-.117.018-.176.026l-.022.003-.008.001-.179.022-.022.003h-.007l-.002.001-.195.02h-.008l-.005.001-.2.018h-.012l-.209.014h-.004l-.212.01h-.003l-.21.006h-.008l-.215.002c-4.678 0-8.471-2.813-8.471-6.283 0-.047 0-.094.003-.14v-.038l.008-.14.001-.017.012-.138.001-.015a3.24 3.24 0 0 1 .017-.142l.004-.028a4.48 4.48 0 0 1 .021-.136l.001-.006.002-.005c.006-.045.015-.089.024-.133l.007-.033.031-.138.001-.01.037-.14.003-.01.04-.138.01-.028c.013-.043.027-.087.042-.129l.002-.006v-.003l.049-.132.01-.027.052-.13.01-.02c.014-.038.032-.075.047-.112l.015-.03c.018-.042.039-.084.059-.125l.013-.027c.02-.039.039-.077.06-.114l.006-.014v-.001l.005-.009.062-.113.019-.033.071-.12.01-.016.07-.111.017-.025c.024-.039.05-.077.075-.114l.024-.034a2.92 2.92 0 0 1 .076-.107l.005-.007.002-.002a4.59 4.59 0 0 1 .088-.117l.02-.026.091-.115.012-.015.084-.098.023-.028c.031-.035.061-.07.093-.104l.03-.033c.026-.03.054-.06.083-.09l.015-.015.002-.002.008-.01.092-.092.032-.032.107-.103.011-.01.102-.094.026-.024.114-.1.022-.019.105-.088.03-.024.105-.083.037-.03.118-.09.023-.017.104-.075.04-.028a3.05 3.05 0 0 1 .117-.081l.043-.028.112-.074.014-.01.004-.002.127-.08.047-.028.123-.074.044-.025.107-.061.035-.02.134-.072.043-.023a7.3 7.3 0 0 1 .129-.066l.015-.008.004-.001-.038-.088-.01-.023-.05-.127-.008-.02a2.869 2.869 0 0 1-.047-.13l-.008-.021c-.015-.045-.03-.09-.043-.134l-.005-.013c-.015-.046-.028-.095-.042-.142l-.002-.009a3.746 3.746 0 0 1-.038-.148v-.004a3.23 3.23 0 0 1-.035-.15v-.003l-.002-.01a3.218 3.218 0 0 1-.027-.144l-.001-.005a2.698 2.698 0 0 1-.024-.155v-.007a3.682 3.682 0 0 1-.02-.152v-.006a5.091 5.091 0 0 1-.013-.156v-.002a5.63 5.63 0 0 1-.009-.155v-.006c-.001-.053-.003-.106-.003-.16 0-1.237.484-2.392 1.318-3.365" fill="#A6DA69"/><path d="M307.307 248.992c.323.05.63-.148.684-.443.056-.295-.162-.576-.485-.626-.842-.133-1.746-.612-2.399-1.452-.55-.71-.918-1.682-.918-2.928 0-.3-.267-.543-.594-.543-.328 0-.595.244-.595.543 0 1.49.457 2.674 1.142 3.556a5.067 5.067 0 0 0 3.165 1.893" fill="#AF8D64"/><path d="M306.436 247.809c-.293.065-.484.381-.426.707.06.326.345.537.638.472.878-.196 2.455-.726 3.675-1.917a5.587 5.587 0 0 0 1.672-3.39c.04-.329-.168-.63-.464-.676-.295-.043-.566.187-.606.516a4.36 4.36 0 0 1-1.312 2.648c-1.036 1.01-2.408 1.468-3.177 1.64" fill="#AF8D64"/><path d="M305.076 254.494c.035.319.29.543.567.501.277-.041.472-.332.436-.65-.135-1.195-.067-2.299.23-3.722.304-1.461.851-3.272 1.66-5.843.096-.302-.04-.635-.303-.745-.263-.11-.554.047-.649.348-.819 2.601-1.374 4.441-1.692 5.972-.327 1.569-.402 2.798-.25 4.14" fill="#AF8D64"/><path d="M313.253 245.871c.357.131.763.204 1.194.204 1.41 0 2.553-.785 2.553-1.754 0-.762-.706-1.41-1.693-1.653.62-.32 1.02-.83 1.02-1.404 0-.97-1.141-1.755-2.551-1.755-.057 0-.113.001-.17.004a1.2 1.2 0 0 0 .035-.287c0-.97-1.142-1.754-2.551-1.754a3.62 3.62 0 0 0-.821.092c-.139-.88-1.222-1.564-2.538-1.564-1.41 0-2.552.785-2.552 1.755 0 .026 0 .052.002.078a3.639 3.639 0 0 0-.405-.022c-1.41 0-2.553.785-2.553 1.754 0 .353.151.68.41.955-.335.295-.538.664-.543 1.066a3.748 3.748 0 0 0-.537-.039c-1.41 0-2.553.786-2.553 1.755 0 .969 1.143 1.754 2.553 1.754.066 0 .132-.002.197-.004.258.78 1.274 1.363 2.489 1.363.14 0 .277-.007.411-.023.11.9 1.207 1.608 2.544 1.608 1.088 0 2.017-.469 2.384-1.127.368.141.791.221 1.243.221 1.14 0 2.104-.513 2.432-1.223" fill="#85BC47"/><path d="M315.79 243.919a3.8 3.8 0 0 0 1.21.199c-.012-.737-.74-1.362-1.756-1.598.644-.312 1.06-.811 1.06-1.372 0-.948-1.186-1.716-2.649-1.716-.058 0-.117.001-.175.004a1.11 1.11 0 0 0 .036-.281c0-.948-1.186-1.716-2.65-1.716-.297 0-.583.032-.85.09-.143-.853-1.252-1.519-2.604-1.529l.002.059a4.196 4.196 0 0 0-.607-.018c-1.186.17-2.073.855-2.073 1.675l.003.078a3.67 3.67 0 0 0-.392-.022c.006.336.161.65.425.914-.348.288-.559.65-.564 1.042a4.126 4.126 0 0 0-.558-.038c-.687 0-1.313.169-1.784.447.063.1.14.195.23.284-.35.287-.56.648-.566 1.042a4.04 4.04 0 0 0-.528-.038c.015.939 1.195 1.696 2.648 1.696.069 0 .137-.001.205-.004.268.763 1.322 1.333 2.583 1.333.145 0 .288-.007.427-.022.113.88 1.251 1.572 2.64 1.572 1.129 0 2.092-.458 2.473-1.102.382.138.821.216 1.29.216 1.182 0 2.184-.502 2.525-1.195" fill="#A6DA69"/><path d="M166.118 249a.882.882 0 1 0 0-1.765c-.684 0-1.92-.425-2.927-1.432-.704-.704-1.276-1.694-1.435-3.025a.881.881 0 0 0-1.75.207c.212 1.781.985 3.114 1.937 4.065 1.37 1.372 3.156 1.95 4.175 1.95" fill="#AF8D64"/><path d="M164.502 253.662a.82.82 0 0 0 .2 1.18.916.916 0 0 0 1.238-.193c.806-1.065 1.116-3.039 1.052-5.22-.068-2.307-.54-4.902-1.266-6.864-.164-.44-.67-.672-1.133-.517-.463.156-.706.64-.542 1.08.67 1.81 1.106 4.21 1.168 6.348.055 1.843-.154 3.442-.717 4.186" fill="#AF8D64"/><path d="M167.872 235.766l.035.045-.035-.045m-4.926 9.717h-.001l-.023.003c-.03.006-.063.012-.095.016l-.018.003-.098.014-.012.002h-.005c-.034.005-.067.01-.102.013l-.013.002h-.004l-.114.013h-.006l-.115.01h-.006l-.113.008h-.013a5.958 5.958 0 0 1-.116.006l-.003.001-.12.003h-.003l-.124.002c-2.675 0-4.842-1.65-4.842-3.685v-.082l.002-.023.004-.08v-.016l.007-.071.001-.016.01-.08.003-.02a1.34 1.34 0 0 1 .011-.077v-.004l.002-.003c.003-.027.009-.053.014-.08l.003-.015.018-.082.003-.011.018-.075.003-.011.023-.08.005-.016.025-.078v-.002l.028-.076.007-.019.029-.074.006-.015.027-.065.008-.016.032-.07.011-.024.03-.061.005-.009h.001l.003-.006a.917.917 0 0 1 .036-.066l.01-.02.039-.066.012-.02a.786.786 0 0 1 .035-.057l.01-.016.043-.066.014-.021.043-.062.003-.005v-.002c.017-.02.033-.043.05-.066l.014-.018c.017-.022.033-.044.05-.064l.012-.015.043-.053.014-.017.053-.06.016-.019.045-.05.024-.025.045-.047.022-.022.057-.056.014-.013.05-.048.019-.019.059-.052.024-.02.05-.044.022-.019.058-.047.023-.019.051-.04.044-.032.038-.029.029-.02a4.77 4.77 0 0 1 .065-.047l.028-.019.052-.035.035-.023.058-.038.025-.016.07-.042.03-.017.053-.031.031-.019.067-.037.034-.018.061-.033.018-.01-.02-.05-.008-.016-.028-.07-.006-.017a2.238 2.238 0 0 1-.026-.076l-.003-.007-.026-.082-.003-.008-.023-.083-.001-.002-.002-.007-.02-.079-.002-.01-.019-.084v-.003l-.016-.087v-.003l-.001-.004a2.735 2.735 0 0 1-.024-.177v-.008c-.004-.03-.006-.058-.008-.086v-.007l-.005-.09v-.004l-.001-.093c0-2.035 2.167-3.684 4.842-3.684h.114l.026.002.093.001.023.002c.036 0 .073.003.11.005l.026.001.087.007.032.002.09.008.016.001h.007c.034.005.068.008.102.011l.03.004.086.01.023.005.105.014.025.005.087.014.024.005c.03.004.061.01.091.016l.017.004a4.4 4.4 0 0 1 .107.02l.018.006.078.017.04.01.089.021.007.003h.004l.098.026.025.007.073.021.034.01.088.029.04.012.053.018.046.015.06.022.03.01.087.033.038.016.053.02.041.017.08.035.035.015.051.023.046.021.043.02.042.021.077.038.033.017.053.03.034.017.055.03.052.03.05.029.04.023.04.026.037.023.047.03.065.043.03.02.044.03.03.022.039.027.06.045.002.002.042.031.03.024.04.032.023.02.079.064.019.017.043.038.02.018.041.037.053.05.038.037.022.023.038.038.016.016c.044.046.085.09.126.138l.016.018.036.043.045.055.035.045.012.014.033.046.016.021c.023.03.045.061.066.093l.004.005.032.047.011.02.032.048h.045c2.675 0 4.842 1.65 4.842 3.684v.084l-.002.03-.003.057-.002.029a1.416 1.416 0 0 1-.007.08l-.002.02-.007.064-.004.028-.009.06-.004.024-.015.082-.003.013-.014.068-.007.026a.902.902 0 0 1-.017.069l-.002.01-.025.083-.004.017-.022.065-.006.02-.023.067-.006.015-.03.076-.01.023-.024.058-.01.022-.032.07-.003.006-.006.011-.032.065-.011.022-.03.056-.013.022-.04.07-.013.021-.031.051-.017.028-.033.05-.014.02a1.55 1.55 0 0 1-.048.07l-.013.018-.038.051-.019.025-.042.054-.01.013-.053.065-.021.025-.036.042-.025.028-.038.042-.026.027-.05.053-.026.025-.041.041-.021.02-.051.05-.036.032-.04.036-.031.027-.04.034-.03.025-.051.043-.045.036-.037.028-.035.026-.04.03-.035.026h-.001c-.02.016-.042.03-.063.045l-.001.002-.04.026-.035.024-.042.027-.036.023-.062.04-.05.03-.04.024-.04.024-.04.022-.044.025-.072.038-.042.022-.044.024-.04.019-.046.023-.039.019-.088.04-.034.015-.048.02-.045.02-.046.02-.003.001-.077.03-.048.019-.038.014-.055.02-.038.014-.054.019c-.498 1.632-2.421 2.848-4.717 2.848-.904 0-1.75-.189-2.475-.517" fill="#85BC47"/><path d="M167.869 235.682l.035.043-.035-.043m-5.102-1.613a6.635 6.635 0 0 1 1.08-.068h.025l.093.002.023.001.11.005.026.002.087.006.032.002.09.008h.016l.007.001.103.01.029.004.086.01.023.004.106.014.025.004.086.014.024.004.092.015.017.004a4.6 4.6 0 0 1 .106.02l.019.005.078.016.04.01.088.02.007.002h.005c.033.01.065.017.097.026l.026.006.073.02.033.01.089.027.04.012.053.017.046.015.06.02.03.01.087.031.038.016.053.02.041.014.081.034.034.014.051.022.046.02.043.02.043.02.077.036.032.016.054.028.033.016.055.03.053.028.05.027.04.023.039.024.038.022.046.028.065.041.03.02.044.028.03.021.04.026.059.042.003.003.041.03.03.022.04.03.024.02.079.06.019.017.043.036.02.017.041.035.053.048.038.035.022.022.038.036.016.016c.044.043.085.086.126.131l.016.017.036.041.045.052.035.043.012.014.034.044.016.02c.023.029.045.058.065.088l.004.005.032.045.011.018.032.047.046-.001c2.675 0 4.844 1.572 4.844 3.51v.08l-.002.029a1.302 1.302 0 0 0-.003.054l-.002.028c-.001.025-.004.05-.007.076l-.002.019-.007.062-.004.026a1.414 1.414 0 0 1-.009.056l-.004.024-.015.078-.003.013-.014.064-.007.025a.826.826 0 0 1-.017.066l-.002.01-.025.078-.004.017-.022.062-.007.02-.022.063-.007.014-.029.072-.01.022-.025.056-.01.02-.03.067-.004.006-.006.01-.032.062-.011.021-.03.053-.013.021-.04.067-.013.02-.032.05-.017.025-.032.047-.015.02a1.477 1.477 0 0 1-.047.066l-.014.018a7.766 7.766 0 0 1-.037.049l-.02.023a.977.977 0 0 1-.041.052l-.01.012-.053.062-.022.024-.036.04-.025.027-.038.04-.025.026-.051.05-.025.024-.042.039-.02.02-.052.046-.036.031-.04.034-.03.026-.04.032-.03.024-.052.041-.045.034-.037.027-.035.025-.04.029-.035.024v.001l-.063.042-.002.002-.04.025-.035.023-.042.026-.036.022-.062.037-.05.029-.04.023-.04.022-.04.022-.044.023-.072.037-.042.02-.044.023-.04.018-.046.022-.04.018c-.029.013-.058.027-.087.038l-.034.015-.048.02-.045.019-.047.018-.003.001-.076.029-.048.018-.039.014-.055.019-.037.013-.054.018a3.14 3.14 0 0 1-.745 1.21c-.312.046-.635.07-.966.07-.905 0-1.751-.18-2.477-.493l-.022.004-.096.016-.018.002-.098.014-.012.001h-.005c-.035.005-.068.01-.102.013l-.013.002h-.004a2.197 2.197 0 0 1-.114.011h-.007a5.661 5.661 0 0 1-.115.01l-.002.001h-.003a5.964 5.964 0 0 1-.114.007l-.006.001h-.006a3.173 3.173 0 0 1-.117.005h-.002l-.121.004h-.127c-2.676 0-4.845-1.57-4.845-3.51 0-.026 0-.052.002-.079v-.02l.004-.076.002-.016a.78.78 0 0 1 .006-.068l.001-.015.01-.076.002-.02.011-.072v-.005l.002-.003.014-.075.003-.015.018-.077.003-.012.019-.07.003-.011.023-.076.004-.014.026-.076v-.001l.027-.073.008-.018.028-.07.007-.016.027-.06.008-.016a.822.822 0 0 1 .032-.067l.011-.022.03-.06.005-.007.001-.001.002-.006c.013-.02.024-.042.036-.063l.01-.017.04-.065.011-.019.035-.054.01-.015.044-.063.013-.02.044-.06.003-.004.05-.063.014-.02.05-.06.01-.013.045-.051.014-.017.053-.057.016-.018.045-.047.025-.025.045-.045.021-.02.057-.054.013-.012.051-.046.02-.017.058-.05.024-.02.05-.041.022-.017.058-.046.023-.017.052-.039.043-.032.038-.026.03-.02c.02-.015.042-.03.064-.044l.028-.018.052-.033.035-.023.06-.035.023-.015.07-.042.03-.016.053-.03.031-.016c.022-.013.045-.024.067-.036l.034-.017.062-.032.018-.008-.021-.048-.007-.015a3.148 3.148 0 0 0-.028-.067l-.006-.018a1.988 1.988 0 0 1-.026-.07l-.004-.008-.025-.077-.004-.01-.023-.077v-.002l-.002-.007a2.752 2.752 0 0 1-.02-.075l-.003-.01a13.702 13.702 0 0 0-.018-.08v-.003a3.147 3.147 0 0 1-.016-.082v-.004l-.001-.004a2.49 2.49 0 0 1-.024-.169v-.008a2.74 2.74 0 0 1-.008-.082v-.005l-.001-.001-.004-.085v-.005c-.002-.029-.002-.059-.002-.088 0-.747.322-1.439.871-2.008" fill="#A6DA69"/></g></svg>