<svg width="480" height="360" viewBox="0 0 480 360" xmlns="http://www.w3.org/2000/svg" xmlns:xlink="http://www.w3.org/1999/xlink"><defs><path id="a" d="M.897.728H232.32v52.324H.897z"/><path id="c" d="M.058.728h392.386v52.324H.058z"/><path id="e" d="M.135.953h164.769v40.58H.135z"/><path d="M1.632 2.818l-.13-.001A17.134 17.134 0 0 0 .352.687C.76.66 1.19.644 1.632.644h.01c1.397 0 2.663.15 3.56.389.448.118.804.26 1.026.4a.86.86 0 0 1 .229.19l.048.108-.048.107c-.138.202-.747.496-1.609.675-.863.188-1.985.305-3.21.305h-.007z" id="g"/><path id="i" d="M.058.378H480V97H.058z"/></defs><g fill="none" fill-rule="evenodd"><path fill="#BAE1EC" d="M.058 226.283H480V0H.058z"/><path fill="#47AFA3" d="M.058 361H480V217.932H.058z"/><path fill="#68C0B6" d="M.058 226.283H480v-8.35H.058z"/><g transform="translate(247.68 164.88)"><mask id="b" fill="#fff"><use xlink:href="#a"/></mask><path d="M184.02.728c-30.965 0-57.194 21.971-66.176 52.324h132.351C241.213 22.7 214.985.728 184.02.728" fill="#2D6B66" mask="url(#b)"/><path d="M184.02.728c-30.965 0-57.194 21.971-66.176 52.324h74.193c4.77-24.771 2.995-46.686-8.017-52.324" fill="#317F77" mask="url(#b)"/><path d="M51.791 21.635c-23.814 0-43.986 16.897-50.894 40.24h101.787c-6.907-23.343-27.08-40.24-50.893-40.24" fill="#2D6B66" mask="url(#b)"/><path d="M51.791 21.635c-23.814 0-43.986 16.897-50.894 40.24h57.06c3.67-19.05 2.303-35.905-6.166-40.24" fill="#317F77" mask="url(#b)"/></g><path d="M384.295 177.353c-24.014 0-44.356 17.04-51.322 40.58h102.643c-6.965-23.54-27.306-40.58-51.321-40.58" fill="#328A82"/><g transform="translate(0 164.88)"><mask id="d" fill="#fff"><use xlink:href="#c"/></mask><path d="M384.295 12.473c-24.014 0-44.356 17.04-51.322 40.58h57.54c3.7-19.212 2.323-36.208-6.218-40.58" fill="#3A9C93" mask="url(#d)"/><path d="M42.102.728c-30.965 0-57.194 21.971-66.176 52.324h132.351C99.296 22.7 73.066.728 42.102.728" fill="#2D6B66" mask="url(#d)"/><path d="M42.102.728c-30.965 0-57.194 21.971-66.176 52.324H50.12C54.889 28.281 53.114 6.366 42.102.728" fill="#317F77" mask="url(#d)"/></g><path d="M104.257 177.353c-24.014 0-44.357 17.04-51.322 40.58H155.58c-6.966-23.54-27.309-40.58-51.322-40.58" fill="#328A82"/><g transform="translate(52.8 176.4)"><mask id="f" fill="#fff"><use xlink:href="#e"/></mask><path d="M51.457.953C27.443.953 7.1 17.993.135 41.533h57.54C61.374 22.32 59.997 5.324 51.457.952" fill="#3A9C93" mask="url(#f)"/><path d="M114.01 16.165c-23.813 0-43.986 16.9-50.893 40.243h101.787c-6.907-23.344-27.08-40.243-50.894-40.243" fill="#2D6B66" mask="url(#f)"/><path d="M114.01 16.165c-23.813 0-43.986 16.9-50.893 40.243h57.06c3.668-19.05 2.303-35.905-6.167-40.243" fill="#317F77" mask="url(#f)"/></g><path d="M240 187.452c-18.038 0-33.318 12.798-38.55 30.48h77.1c-5.232-17.682-20.512-30.48-38.55-30.48" fill="#328A82"/><path d="M240 187.452c-18.038 0-33.318 12.798-38.55 30.48h43.22c2.779-14.43 1.745-27.196-4.67-30.48" fill="#3A9C93"/><g transform="translate(303.36 189.84)"><mask id="h" fill="#fff"><use xlink:href="#g"/></mask><path fill="#2E5753" mask="url(#h)" d="M.351 2.818h6.155V.644H.35z"/></g><path d="M304.862 192.657c-1.346-.009-2.56-.159-3.43-.388-.448-.118-.804-.26-1.027-.4a.878.878 0 0 1-.228-.19l-.047-.108.047-.108c.138-.202.747-.496 1.609-.675.55-.12 1.205-.21 1.925-.26.42.654.803 1.365 1.151 2.129" fill="#326561"/><path d="M305.1 193.201a18.614 18.614 0 0 0-.238-.544H305c1.224 0 2.346-.116 3.209-.304.862-.18 1.47-.473 1.609-.675l.048-.107-.048-.108a.877.877 0 0 0-.229-.19c-.222-.14-.578-.282-1.027-.4-.896-.238-2.162-.389-3.56-.389h-.004v-.544c1.258 0 2.414.117 3.327.317.915.208 1.583.457 1.924.873a.727.727 0 0 1 .161.44.72.72 0 0 1-.162.442 1.4 1.4 0 0 1-.37.318c-.298.186-.695.336-1.177.465-.938.248-2.202.4-3.6.406m-1.39-2.674c-.113-.176-.23-.35-.348-.518a18.85 18.85 0 0 1 1.635-.07v.545h-.005c-.443 0-.873.015-1.282.043" fill="#2E5753"/><path d="M304.998 193.202c-1.26 0-2.415-.118-3.329-.317-.914-.208-1.582-.457-1.922-.873a.713.713 0 0 1-.162-.441.715.715 0 0 1 .162-.44 1.39 1.39 0 0 1 .37-.32c.298-.185.694-.336 1.176-.464a12.5 12.5 0 0 1 2.07-.338c.119.168.235.342.348.518-.72.05-1.375.14-1.925.26-.862.18-1.471.474-1.61.676l-.046.108.047.107c.04.053.117.121.228.19.223.14.579.283 1.027.4.87.23 2.084.38 3.43.389.082.178.162.36.238.544h-.102" fill="#326561"/><path d="M305.305 173.42c-2.997 0-5.426 3.565-5.426 7.002s2.429 6.224 5.426 6.224c2.996 0 5.425-2.787 5.425-6.224 0-3.437-2.429-7.002-5.425-7.002" fill="#68C0B6"/><path d="M305.468 185.475l-.55-.454 2.809-3.403c.313-.378.835.109.551.454l-2.81 3.403m-.571.976l.55-.453-2.809-3.403c-.392-.473-.92.007-.551.453l2.81 3.403" fill="#F9D7BE"/><path d="M305.305 191.727a.408.408 0 0 0 .407-.407v-13.058a.41.41 0 0 0-.407-.409.41.41 0 0 0-.408.41v13.057c0 .225.183.407.408.407" fill="#F9D7BE"/><path d="M229.778 206.178c-1.398 0-2.663-.151-3.56-.389-.448-.118-.804-.26-1.027-.399a.914.914 0 0 1-.228-.191l-.047-.107.047-.108c.139-.203.746-.496 1.609-.676.863-.188 1.986-.303 3.209-.303h.007c1.398 0 2.664.15 3.56.389.448.118.805.259 1.027.399.112.07.189.138.229.191l.048.108-.048.107c-.138.202-.747.495-1.61.675-.862.188-1.983.304-3.206.304h-.01" fill="#377E77"/><path d="M229.784 206.723c-1.26-.001-2.415-.119-3.329-.317-.914-.209-1.582-.457-1.923-.874a.724.724 0 0 1-.16-.44.72.72 0 0 1 .16-.441 1.39 1.39 0 0 1 .371-.319c.298-.185.694-.337 1.176-.464.963-.255 2.265-.408 3.705-.408v.545h-.003c-1.223 0-2.346.115-3.21.303-.862.18-1.47.473-1.608.676l-.047.108.047.107a.914.914 0 0 0 .228.191c.223.14.579.281 1.027.4.897.237 2.162.388 3.56.388h.01c1.223 0 2.344-.116 3.207-.304.862-.18 1.47-.473 1.609-.675l.048-.107-.048-.108a.896.896 0 0 0-.229-.191c-.222-.14-.579-.281-1.027-.4-.896-.237-2.162-.388-3.56-.388h-.004v-.545c1.258 0 2.413.118 3.327.317.915.209 1.582.457 1.923.874a.715.715 0 0 1 .161.44.713.713 0 0 1-.161.441 1.39 1.39 0 0 1-.37.319c-.298.185-.695.337-1.177.465-.962.253-2.264.406-3.703.407" fill="#377E77"/><path d="M229.973 191.736c4.73 0 8.588-2.743 8.588-6.107 0-3.363-3.857-6.107-8.588-6.107-4.73 0-8.588 2.744-8.588 6.107 0 3.364 3.859 6.107 8.588 6.107" fill="#68C0B6"/><path d="M223.22 194.54c3.112 0 5.652-1.807 5.652-4.02 0-2.213-2.54-4.018-5.653-4.018-3.113 0-5.651 1.805-5.651 4.019 0 2.212 2.538 4.02 5.651 4.02m13.099-1.636c2.351 0 4.27-1.364 4.27-3.035 0-1.673-1.919-3.036-4.27-3.036-2.35 0-4.269 1.363-4.269 3.036 0 1.671 1.918 3.035 4.27 3.035" fill="#68C0B6"/><path d="M229.764 198.012l.706-.583-5.012-5.237c-.505-.527-1.207.061-.708.583l5.014 5.237m.733-1.994l-.707-.583 4.58-4.63c.427-.431 1.135.15.707.583l-4.58 4.63" fill="#F9D7BE"/><g transform="translate(0 186.96)"><mask id="j" fill="#fff"><use xlink:href="#i"/></mask><path d="M229.974 18.213h-.001a.525.525 0 0 1-.524-.524V.901a.524.524 0 0 1 1.048 0V17.69a.525.525 0 0 1-.523.524" fill="#F9D7BE" mask="url(#j)"/></g><path d="M92.95 62.524c-3.098 0-5.909 1.146-7.975 3.008-1.572-3.199-5.031-5.42-9.046-5.42-1.428 0-2.787.282-4.014.788-1.877-3.647-5.869-6.165-10.49-6.165-6.245 0-11.34 4.598-11.62 10.368a9.497 9.497 0 0 0-2.153-.247c-4.88 0-8.836 3.696-8.836 8.255l.002.146h73.32v-.121c0-3.768-3.27-6.824-7.304-6.824-.956 0-1.871.172-2.71.485-2.096-2.596-5.425-4.273-9.174-4.273m330.02 10.27c5.204 0 9.426 4.726 9.426 10.555l-.003.188h-58.278c0-6.008 4.349-10.878 9.713-10.878 2.618 0 4.995 1.161 6.742 3.048 1.329-3.242 4.254-5.493 7.648-5.493a7.64 7.64 0 0 1 3.393.798c1.588-3.696 4.961-6.248 8.87-6.248 4.671 0 8.582 3.649 9.584 8.541a8.505 8.505 0 0 1 2.904-.51m-173.778 53.117c-7.98 0-14.597 4.636-15.83 10.706a17.314 17.314 0 0 0-.447-.007c-3.108 0-5.973.828-8.267 2.22-2.384-1.479-5.382-2.359-8.638-2.359-7.765 0-14.06 5.007-14.06 11.183h77.88c.7-1.222 1.09-2.58 1.09-4.012 0-5.349-5.45-9.684-12.177-9.684-1.533 0-2.999.225-4.35.636-2.136-5.047-8.135-8.683-15.201-8.683" fill="#FFFFFE"/></g></svg>