<svg width="120" height="120" viewBox="0 0 120 120" xmlns="http://www.w3.org/2000/svg"><g fill="none" fill-rule="evenodd"><path d="M48.228 74.387C22.481 62.253 15.99 49.434 18.501 41.485c1.99-6.307 9.25-9.319 18.492-7.666l-1.202 6.794c-5.554-.992-9.873.197-10.745 2.96-1.356 4.29 4.476 14.376 26.097 24.566l-2.915 6.248zm24.261 0l-2.916-6.248c21.622-10.19 27.454-20.275 26.098-24.567-.872-2.762-5.192-3.951-10.745-2.959l-1.202-6.794c9.243-1.652 16.501 1.359 18.493 7.666 2.51 7.95-3.982 20.768-29.728 32.902M57.193 101.27h6.33V65.605h-6.33z" fill="#FFD786"/><path d="M26.469 25.872l16.715 45.537c2.653 7.227 9.508 12.029 17.174 12.029 7.667 0 14.522-4.802 17.175-12.03l16.715-45.536H26.469zm37.618 75.398H56.63c-6.737 0-12.198 5.488-12.198 12.257h31.853c0-6.77-5.462-12.257-12.198-12.257" fill="#FBC955"/><path fill="#FFD786" d="M42.611 119.821h35.493v-6.361H42.611z"/><path fill="#FFECC6" d="M60.358 33.28l3.808 11.777H76.49l-9.97 7.278 3.809 11.777-9.97-7.279-9.969 7.28 3.808-11.778-9.97-7.278H56.55z"/><path d="M88.962 40.274c3.526.073 6.063 1.253 6.709 3.298 1.075 3.404-2.38 10.453-14.64 18.307l7.93-21.605zM77.29 71.999c21.751-11.402 27.273-23.084 24.927-30.514-1.393-4.412-5.367-7.208-10.79-7.927l2.82-7.686H60.359v93.949h17.747v-6.361h-1.822c-.037-6.738-5.483-12.19-12.196-12.19h-.564V83.151A18.31 18.31 0 0 0 77.29 72z" fill="#FFD786" opacity=".507"/><path fill="#FFF" d="M43.929 26.926l10.297-7.42-7.385 10.346L54.226 40.2l-10.297-7.421-10.297 7.42 7.384-10.347-7.384-10.346z"/><path fill="#FFF6E4" d="M57.576 8.534L51.486 0l8.492 6.121L68.471 0l-6.09 8.534 6.09 8.534-8.493-6.12-8.493 6.12z"/></g></svg>