<svg width="120" height="120" viewBox="0 0 120 120" xmlns="http://www.w3.org/2000/svg" xmlns:xlink="http://www.w3.org/1999/xlink"><defs><path id="a" d="M0 .875h106.185v106.504H.001z"/><path id="c" d="M.638 1.514h96.823V98.63H.638z"/></defs><g fill="none" fill-rule="evenodd"><path d="M106.36 91.967l-.171.172c-3.403 3.414-8.601 4.289-12.907 2.132-26.142-13.098-53.568-40.614-66.63-66.833-2.149-4.317-1.28-9.53 2.125-12.944l.172-.17c5.215-5.235 13.934-4.053 17.623 2.355 12.85 22.326 35.18 44.722 57.437 57.61 6.392 3.7 7.568 12.444 2.35 17.678" fill="#F1BB6B"/><g transform="matrix(-1 0 0 1 119 .77)"><mask id="b" fill="#fff"><use xlink:href="#a"/></mask><path d="M1.868 105.529c1.849 1.854 4.632 2.347 7.044 1.33 38.67-16.373 80.429-58.26 96.754-97.047 1.016-2.419.526-5.208-1.326-7.066-3.093-3.102-8.346-2.232-10.194 1.741C77.324 40.583 39.589 78.433 3.604 95.303c-3.961 1.855-4.83 7.122-1.736 10.226" fill="#DB5743" mask="url(#b)"/></g><g transform="matrix(-1 0 0 1 99.333 20.496)"><mask id="d" fill="#fff"><use xlink:href="#c"/></mask><path d="M4.411 94.632l.197.196c3.914 3.925 9.894 4.933 14.847 2.452C49.53 82.208 81.088 50.553 96.117 20.388c2.473-4.97 1.468-10.964-2.445-14.893l-.199-.197c-6-6.022-16.031-4.664-20.276 2.71C58.409 33.692 32.72 59.462 7.112 74.291c-7.354 4.261-8.704 14.318-2.7 20.341" fill="#F1BB6B" mask="url(#d)"/></g><path d="M101.9 99.128a1.825 1.825 0 0 0 1.81-2.084c-.078-.564-2.126-13.888-19.593-18.333-12.104-3.088-13.05-7.954-14.057-13.113-.307-1.568-.621-3.198-1.244-4.77-2.542-6.444-9.102-11.727-17.13-13.774-9.158-2.342-10.797-10.47-11.675-14.837-.169-.819-.307-1.496-.456-1.976-2.476-8.158-8.407-11.219-16.55-13.305a1.827 1.827 0 0 0-2.225 1.323 1.838 1.838 0 0 0 1.318 2.233c8.547 2.19 12.198 5.021 13.957 10.818.12.396.229.961.367 1.634.891 4.418 2.976 14.756 14.363 17.668 6.904 1.763 12.51 6.195 14.629 11.567.495 1.26.77 2.65 1.055 4.121 1.067 5.49 2.398 12.311 16.746 15.967 14.996 3.82 16.805 14.826 16.876 15.293a1.83 1.83 0 0 0 1.81 1.568" fill="#FDDC85"/></g></svg>