<svg width="120" height="120" viewBox="0 0 120 120" xmlns="http://www.w3.org/2000/svg"><g fill="none" fill-rule="evenodd"><path fill="#0CDCAA" d="M55.378 7.757h7.757V0h-7.757zm7.757 0h7.757V0h-7.757zm-15.514 7.756h7.757V7.757h-7.757zm7.757 0h7.757V7.757h-7.757zm7.757 0h7.757V7.757h-7.757zm7.757 0h7.757V7.757h-7.757z"/><path fill="#8B5A38" d="M47.621 23.27h7.757v-7.757h-7.757z"/><path fill="#0CDCAA" d="M55.378 23.27h7.757v-7.757h-7.757zm7.757 0h7.757v-7.757h-7.757zM32.108 7.757h7.757V0h-7.757z"/><path fill="#E05959" d="M70.892 23.27h7.757v-7.757h-7.757z"/><path fill="#8B5A38" d="M39.865 31.027h7.757V23.27h-7.757zm-7.757 0h7.757V23.27h-7.757z"/><path fill="#8B5A38" d="M47.621 31.027h7.757V23.27h-7.757z"/><path fill="#834F2A" d="M39.865 23.27h7.757v-7.757h-7.757z"/><path fill="#8B5A38" d="M55.378 31.027h7.757V23.27h-7.757z"/><path fill="#E05959" d="M63.135 31.027h7.757V23.27h-7.757zm7.757 0h7.757V23.27h-7.757zm7.757 0h7.757V23.27h-7.757z"/><path fill="#8B5A38" d="M39.865 38.784h7.757v-7.757h-7.757zm-18.864 9.977h7.756v-7.757h-7.756z"/><path fill="#8B5A38" d="M47.621 38.784h7.757v-7.757h-7.757z"/><path fill="#834F2A" d="M55.378 38.784h7.757v-7.757h-7.757z"/><path fill="#E05959" d="M63.135 38.784h7.757v-7.757h-7.757zm7.757 0h7.757v-7.757h-7.757zm19.872-23.271h7.756V7.757h-7.756z"/><path fill="#FFC85F" d="M39.865 46.54h7.757v-7.757h-7.757z"/><path fill="#8B5A38" d="M47.621 46.54h7.757v-7.757h-7.757z"/><path fill="#FFC85F" d="M55.378 46.54h7.757v-7.757h-7.757z"/><path fill="#FFBD3A" d="M63.135 46.54h7.757v-7.757h-7.757z"/><path fill="#FFAB00" d="M70.892 46.54h7.757v-7.757h-7.757z"/><path fill="#FFBD3A" d="M39.865 54.297h7.757V46.54h-7.757z"/><path fill="#834F2A" d="M47.621 54.297h7.757V46.54h-7.757z"/><path fill="#FFBD3A" d="M55.378 54.297h7.757V46.54h-7.757zm7.757 0h7.757V46.54h-7.757zm7.757 0h7.757V46.54h-7.757zm-23.271 7.757h7.757v-7.757h-7.757z"/><path fill="#FFC85F" d="M55.378 62.054h7.757v-7.757h-7.757z"/><path fill="#FFBD3A" d="M63.135 62.054h7.757v-7.757h-7.757z"/><path fill="#FFC85F" d="M47.621 69.811h7.757v-7.757h-7.757z"/><path fill="#FFBD3A" d="M55.378 69.811h7.757v-7.757h-7.757z"/><path fill="#FFAB00" d="M63.135 69.811h7.757v-7.757h-7.757zm22.453 7.803h7.757v-7.757h-7.757z"/><path fill="#FFBD3A" d="M47.621 77.568h7.757v-7.757h-7.757zm7.757 0h7.757v-7.757h-7.757z"/><path fill="#FFAB00" d="M63.135 77.568h7.757v-7.757h-7.757zm-7.757 7.757h7.757v-7.757h-7.757z"/><path fill="#0CDCAA" d="M32.328 96.948V120h13.83v-4.61H36.94V96.947zm25.337 0v4.611h-4.61v13.83h4.61v-13.83h9.221v-4.61h-9.22zm9.221 4.611v13.83h-9.22V120h9.22v-4.61h4.61v-13.83h-4.61zm11.506-4.611V120h13.83v-4.61H83V96.947z"/></g></svg>