<svg width="120" height="120" viewBox="0 0 120 120" xmlns="http://www.w3.org/2000/svg"><g fill="none" fill-rule="evenodd"><path d="M70.222 68.827a35.67 35.67 0 0 0 .736-7.217 35.335 35.335 0 0 0-3.454-15.282l2.298-2.556a2.418 2.418 0 0 0-.18-3.415L51.015 23.62a2.418 2.418 0 0 0-3.415.181l-3.132 3.482a35.533 35.533 0 0 0-8.99-1.151C15.885 26.132 0 42.016 0 61.61c0 19.595 15.884 35.48 35.479 35.48H77.23V68.826h-7.01" fill="#3A3A39"/><path d="M57.728 61.66c0 12.27-9.947 22.217-22.217 22.217S13.294 73.93 13.294 61.66s9.947-22.217 22.217-22.217S57.728 49.39 57.728 61.66" fill="#F3C547"/><path d="M41.419 61.727a5.84 5.84 0 1 1-11.682 0 5.84 5.84 0 0 1 11.682 0" fill="#3A3A39"/><path fill="#9EA0A0" d="M77.318 97.402h35.78l6.881-5.83H77.318v5.83"/></g></svg>