<svg width="120" height="120" viewBox="0 0 120 120" xmlns="http://www.w3.org/2000/svg" xmlns:xlink="http://www.w3.org/1999/xlink"><defs><path id="a" d="M.001 1.522h118.286v115.75H.001z"/></defs><g fill="none" fill-rule="evenodd"><g transform="translate(0 1.205)"><mask id="b" fill="#fff"><use xlink:href="#a"/></mask><path d="M117.841 23.962c1.675 5.779-1.516 12.559-7.039 14.95-4.208 1.825-9.439 1.37-12.91 4.364-2.984 2.572-3.688 6.873-5.802 10.192-5.68 8.91-19.628 8.654-26.312 16.833-5.291 6.471-5.13 17.203-12.434 21.27-4.568 2.539-10.74 1.467-14.774 4.789-3.441 2.83-4.036 7.783-6.065 11.754-2.588 5.07-7.887 8.651-13.557 9.158L0 94.835c5.67-.51 10.97-4.09 13.558-9.16 2.026-3.972 2.62-8.922 6.062-11.755 4.037-3.32 10.209-2.248 14.774-4.79 7.306-4.066 7.143-14.795 12.434-21.27 6.687-8.178 20.631-7.922 26.312-16.83 2.117-3.321 2.82-7.622 5.801-10.191 3.475-2.997 8.706-2.54 12.914-4.364 5.523-2.392 8.714-9.172 7.036-14.953l18.95 22.44z" fill="#F05C4A" mask="url(#b)"/></g><path d="M117.18 24.385L100.963 5.18a10.044 10.044 0 0 0-1.135 2.14c-.55 1.41-1.06 2.679-1.614 3.821a13.313 13.313 0 0 1-2.267 3.538c-1.14 1.273-2.514 2.32-4.09 3.002-.055.022-.115.039-.17.06-.403.189-.82.371-1.276.546-4.197 1.614-8.804 2.746-12 5.904-2.57 2.54-3.876 6.05-5.842 9.08a23.878 23.878 0 0 1-8.572 7.917c-4.058 2.2-8.65 3.169-13.022 4.644-.39.131-.78.273-1.168.418-1.09.82-2.1 1.745-2.975 2.817-5.291 6.472-5.13 17.2-12.434 21.27-4.568 2.539-10.74 1.467-14.776 4.789-3.442 2.834-4.037 7.784-6.063 11.755-1.707 3.343-4.606 6.016-7.999 7.611v.006c.172.425.532.744.884 1.042 4.292 3.657 8.83 7.02 13.576 10.066.7.453 1.557.91 2.33.59.525-.22.847-.75 1.115-1.258 2.225-4.176 3.714-9.273 7.892-11.49 2.463-1.301 5.376-1.298 8.106-1.85 4.922-.992 9.425-3.93 12.313-8.04 2.714-3.856 3.955-8.525 5.698-12.91 1.745-4.383 4.273-8.804 8.484-10.934 3.813-1.93 8.324-1.655 12.51-2.503 5.861-1.195 11.204-4.754 14.567-9.699 1.579-2.331 2.779-4.999 4.925-6.82 2.962-2.518 7.12-2.943 10.65-4.577 5.348-2.47 7.928-6.843 8.572-11.73" fill="#FF7555"/><path d="M4.084 100.878l2.215 2.618c4.382-1.7 8.184-4.986 10.322-9.17.74-1.453 1.301-2.996 1.839-4.491 1.028-2.836 1.996-5.517 4.05-7.208 1.98-1.631 4.682-2.097 7.543-2.594 2.553-.442 5.19-.9 7.56-2.22 4.958-2.757 6.895-8.015 8.766-13.102 1.227-3.338 2.498-6.788 4.606-9.365 3.05-3.734 7.726-5.651 12.676-7.683 5.602-2.299 11.395-4.677 14.755-9.949.903-1.415 1.56-2.943 2.195-4.424.966-2.258 1.882-4.39 3.527-5.811 1.865-1.604 4.448-2.122 7.18-2.67 1.937-.388 3.942-.789 5.82-1.601 4.89-2.12 8.182-7.067 8.673-12.284l-3.504-4.154c1.437 5.199-1.484 11.362-6.437 13.503-1.57.68-3.321 1.031-5.176 1.402-3.019.605-6.142 1.23-8.643 3.387-2.203 1.901-3.308 4.476-4.377 6.968-.61 1.424-1.189 2.771-1.947 3.966-2.82 4.42-7.901 6.502-13.28 8.71-5.1 2.095-10.374 4.26-13.936 8.616-2.446 2.995-3.81 6.701-5.13 10.288-1.748 4.748-3.398 9.229-7.32 11.416-1.895 1.055-4.159 1.445-6.553 1.863-3.145.542-6.396 1.104-9.03 3.272-2.73 2.248-3.895 5.471-5.021 8.586-.53 1.467-1.031 2.853-1.683 4.126-1.953 3.83-5.58 6.742-9.69 8.005M115.943 22.92l-2.705-3.205c-.28 4.277-2.948 8.482-6.884 10.187-1.598.69-3.373 1.047-5.255 1.423-3.06.611-6.224 1.247-8.755 3.426-2.233 1.928-3.354 4.54-4.437 7.066-.619 1.446-1.205 2.812-1.974 4.023-2.864 4.486-8.019 6.6-13.479 8.842-5.173 2.122-10.519 4.317-14.13 8.735-2.479 3.03-3.859 6.788-5.198 10.424-1.773 4.819-3.45 9.37-7.434 11.588-1.929 1.075-4.225 1.47-6.655 1.893-3.185.55-6.483 1.123-9.147 3.319-2.763 2.274-3.944 5.542-5.087 8.7-.54 1.486-1.047 2.894-1.707 4.186-1.99 3.906-5.7 6.87-9.897 8.144l2.217 2.626c4.473-1.715 8.348-5.056 10.527-9.316.75-1.473 1.315-3.038 1.866-4.555 1.039-2.882 2.024-5.601 4.11-7.322 2.015-1.656 4.759-2.13 7.664-2.632 2.588-.45 5.26-.914 7.66-2.25 5.024-2.796 6.985-8.122 8.88-13.277 1.247-3.39 2.537-6.891 4.675-9.507 3.098-3.793 7.844-5.738 12.867-7.8 5.681-2.332 11.553-4.74 14.96-10.08.91-1.432 1.576-2.983 2.217-4.48.984-2.297 1.914-4.463 3.589-5.905 1.895-1.637 4.516-2.16 7.295-2.717 1.961-.392 3.99-.799 5.897-1.622 4.148-1.798 7.161-5.613 8.32-9.914" fill="#FFBBA6"/><path d="M20.757 99.906c.72-1.41 1.268-2.93 1.8-4.4 1.066-2.945 2.07-5.724 4.292-7.554 2.144-1.764 4.948-2.25 7.915-2.765 2.487-.431 5.06-.876 7.31-2.13 4.698-2.616 6.58-7.732 8.402-12.68 1.252-3.4 2.547-6.916 4.737-9.597 3.18-3.886 8.166-5.934 12.99-7.92 5.49-2.247 11.166-4.576 14.39-9.635.866-1.358 1.51-2.858 2.13-4.31 1.006-2.342 1.955-4.56 3.744-6.1 2.023-1.746 4.707-2.283 7.546-2.85 1.896-.38 3.854-.77 5.66-1.552 4.933-2.135 8.143-7.33 8.25-12.622l-1.74-2.064c.81 5.271-2.232 11.094-7.144 13.221-1.65.715-3.523 1.089-5.34 1.451-2.918.584-5.934 1.187-8.274 3.208-2.067 1.78-3.136 4.27-4.17 6.681-.597 1.391-1.211 2.831-2.01 4.078-2.951 4.633-8.146 6.763-13.645 9.022-5.01 2.056-10.186 4.178-13.622 8.383-2.362 2.886-3.704 6.532-5 10.056-1.8 4.887-3.501 9.507-7.682 11.836-2.013 1.118-4.448 1.544-6.802 1.95-3.044.526-6.19 1.072-8.66 3.106-2.56 2.109-3.686 5.229-4.777 8.242-.518 1.427-1.048 2.9-1.721 4.217-1.98 3.875-5.586 6.864-9.71 8.263l1.105 1.307c4.263-1.615 7.958-4.79 10.026-8.842" fill="#C93432"/></g></svg>