<svg xmlns="http://www.w3.org/2000/svg" width="89.632" height="74.725" viewBox="0.677 0.261 89.632 74.725"><defs><style/></defs><g id="Scarf" transform="translate(0 -56)"><g id="Bottom"><g id="Fringe"><path id="ID0.7067680577747524" fill="#871212" d="M10.3 70.262c-.119-.027-.508-.139-.552-.445-.043-.305.281-.484.387-.543.103-.031 1.808-.27 3.535-1.445a17.51 17.51 0 0 1-.473-.41c-.722.68-2.692 1.393-4.23 1.531-.208-.041-.59-.174-.618-.48-.026-.307.308-.47.418-.524.104-.025 1.851-.172 3.657-1.281a11.309 11.309 0 0 1-.493-.559c-.655.609-2.755 1.256-4.356 1.311-.205-.053-.58-.205-.59-.514-.01-.309.333-.451.445-.498.108-.02 1.952-.068 3.871-1.158a8.256 8.256 0 0 1-.309-.52c-.697.498-2.567.945-4.095.945-.099 0-.197-.002-.292-.006-.2-.068-.562-.25-.549-.559.013-.307.365-.424.48-.463l.258-.01a9.05 9.05 0 0 0 3.766-.889 5.414 5.414 0 0 1-.164-.58c-.814.475-2.523.859-3.938.859-.099 0-.196-.002-.292-.006-.2-.068-.563-.25-.55-.559.013-.307.365-.424.481-.463l.255-.008c.472 0 2.147-.07 3.899-.955l.046-.023c.104-.273.487-.471.655-.547l.316-.141.035.344c.341 3.344 4.129 6.127 4.167 6.156l.342.248-1.18.557-.113-.096c-.681.697-2.604 1.512-4.128 1.73l-.046.008-.045-.007z" transform="translate(-9.4 -2) scale(1.88565)"/><path id="ID0.8515774309635162" d="M11.054 61.694c.356 3.498 4.269 6.332 4.269 6.332l-.652.309-.186-.158-.016.037c-.318.578-2.431 1.561-4.113 1.805 0 0-.742-.168-.098-.525 0 0 1.935-.254 3.827-1.65a14.745 14.745 0 0 1-.905-.781c-.011.021-.015.037-.03.061-.348.561-2.511 1.428-4.204 1.58 0 0-.731-.209-.069-.531 0 0 1.964-.148 3.939-1.461-.345-.35-.644-.689-.892-1.014-.019.037-.037.076-.071.125-.379.541-2.586 1.287-4.286 1.346 0 0-.718-.248-.04-.531 0 0 2.027-.037 4.103-1.291l.036-.002a7.317 7.317 0 0 1-.611-1.045c-.02.031-.035.062-.066.1-.396.48-2.435 1.025-4.092 1.025-.095 0-.189-.002-.282-.006 0 0-.698-.301 0-.535 0 0 .063.004.179.004.54 0 2.227-.08 4.01-.98h.006c.012 0 .041.002.076.006a4.725 4.725 0 0 1-.312-1.197l-.024.037c-.396.48-2.435 1.025-4.092 1.025-.095 0-.189-.002-.282-.006 0 0-.698-.301 0-.533 0 0 .062.004.176.004.538 0 2.227-.08 4.012-.982h.001c.011 0 .107.002.194.031a.85.85 0 0 1 .002-.031c-.218-.248.493-.568.493-.568m.427-.74l-.632.285c-.222.1-.578.295-.742.59a8.815 8.815 0 0 1-3.757.912c-.09 0-.142-.004-.148-.004l-.095-.004-.091.029c-.522.174-.643.471-.652.689-.02.469.463.713.612.777l.085.037.093.004c.099.004.2.006.302.006 1.237 0 2.823-.293 3.776-.73l.02.068a8.81 8.81 0 0 1-3.46.771c-.091 0-.144-.002-.151-.002l-.095-.006-.091.029c-.521.176-.642.473-.651.691-.02.469.463.713.612.777l.085.037.093.004c.099.004.2.006.302.006 1.342 0 3.096-.344 4.005-.846l.047.078c-1.773.934-3.415.98-3.432.98l-.095.002-.088.037c-.507.211-.605.518-.598.736.015.467.515.676.667.729l.088.034.093-.004c1.405-.049 3.409-.582 4.312-1.215l.135.154c-1.651.934-3.176 1.064-3.193 1.066l-.094.009-.086.041c-.495.24-.575.551-.556.77.042.467.552.646.708.691l.089.025.092-.007a9.05 9.05 0 0 0 1.074-.172l-.049.027c-.481.268-.545.582-.514.797.066.465.586.617.744.652l.09.021.091-.014c1.366-.197 3.255-.924 4.107-1.639l.059.051.292-.139.652-.307.764-.361-.684-.496c-.037-.027-3.736-2.748-4.065-5.979l-.07-.687zm-1.26 8.039c1.145-.27 2.352-.738 2.988-1.23.015.014.03.027.046.039-1.462.915-2.824 1.157-3.034 1.191z" transform="translate(-9.4 -2) scale(1.88565)"/></g><path id="ID0.4368065632879734" fill="#BA2915" d="M34.378 43.363s-6.104-.458-10.729 4.083c-4.625 4.543-2.875 9.084-13.083 14.293 0 0-.792 3.084 4.292 6.959 0 0 8.682-4.834 10.841-11.543 2.159-6.707 8.037-10.483 11.159-10.505l3.403-.496-5.883-2.791z" transform="translate(-9.4 -2) scale(1.88565)"/><g id="Stripes_2_" fill="#871212"><path id="ID0.9594653621315956" d="M13.23 60.292s-.239 4.113 4.56 6.512l1.151-.939s-4.458-4.416-4.292-6.541l-1.419.968z" transform="translate(-9.4 -2) scale(1.88565)"/><path id="ID0.4252018965780735" d="M16.857 57.448s.292 3.166 4.917 5.791l1.375-1.459s-4.51-2.482-5.117-5.732l-1.175 1.4z" transform="translate(-9.4 -2) scale(1.88565)"/><path id="ID0.09512140555307269" d="M19.334 54.118s1.064 3.205 5.898 4.33l.667-1.793s-5.062-1.588-5.927-3.689l-.638 1.152z" transform="translate(-9.4 -2) scale(1.88565)"/><path id="ID0.781469791661948" d="M21.727 49.808s.86 2.736 5.621 3.75l1.052-1.484s-5.232-2.356-5.783-3.492l-.89 1.226z" transform="translate(-9.4 -2) scale(1.88565)"/><path id="ID0.6844138544984162" d="M24.787 46.448l6.029 2.957 1.676-1.479s-5.688-2.72-6.036-2.6c-.348.12-1.669 1.122-1.669 1.122z" transform="translate(-9.4 -2) scale(1.88565)"/><path id="ID0.42429394368082285" d="M30.105 44.08l4.967 2.849 2.345-.364-4.951-3.187-2.361.702" transform="translate(-9.4 -2) scale(1.88565)"/></g><path id="ID0.09295754041522741" d="M14.836 68.995l-.13-.098c-5.156-3.932-4.417-7.088-4.382-7.221l.028-.109.1-.051c6.519-3.326 8.108-6.377 9.644-9.326.841-1.615 1.71-3.286 3.378-4.922C27.413 43.4 32.448 43.1 33.897 43.1c.321 0 .5.014.5.014l6.717 3.169-4.22.615c-3.214.024-8.908 3.966-10.958 10.333-2.165 6.725-10.599 11.486-10.957 11.686l-.143.078zm-4.044-7.092c-.067.553-.134 3.223 4.086 6.494 1.127-.66 8.629-5.248 10.583-11.318 2.202-6.84 8.135-10.656 11.395-10.679l2.553-.374-5.117-2.428c-.009.01-.162.002-.395.001-1.401 0-6.27.291-10.072 4.024-1.611 1.582-2.424 3.144-3.285 4.796-1.564 3.003-3.181 6.107-9.748 9.484z" transform="translate(-9.4 -2) scale(1.88565)"/></g><g id="Middle"><path id="Base_Fill_1_" fill="#BA2915" d="M30.816 44.903s5.793 2.626 11.427 1.438c5.635-1.188 7.447-2.627 9.51-1.438 0 0 1.125-2.124-2.562-3.624 0 0 1.25-2.562-.75-3.625-.001 0-7.689-3.064-17.625 7.249z" transform="translate(-9.4 -2) scale(1.88565)"/><g id="Stripes_1_" fill="#871212"><path id="Stripe_10_" d="M38.454 39.056s2.939 2.089 1.807 7.594h-.9s.826-4.671-1.731-7.121l.824-.473z" transform="translate(-9.4 -2) scale(1.88565)"/><path id="Stripe_9_" d="M41.627 37.779s2.551 2.042 2.072 7.974l1.129-.29s.549-4.872-1.889-8.028l-1.312.344z" transform="translate(-9.4 -2) scale(1.88565)"/><path id="Stripe_8_" d="M35.066 41.092s1.875 2.375 1.375 5.359l-.645-.101s-.512-4.073-1.418-4.681l.688-.577z" transform="translate(-9.4 -2) scale(1.88565)"/><path id="Stripe_7_" d="M48.44 40.967c-.068-.17-.15-2.875-.793-3.531l-1.426-.207s1.445 1.317 1.113 3.606c0 0 1.723 1.526 1.523 3.532h1.051c.001 0 .063-2.338-1.468-3.4z" transform="translate(-9.4 -2) scale(1.88565)"/></g><path id="Outline_5_" d="M52.026 43.361c-.32-.882-1.162-1.626-2.504-2.213.414-1.032.65-2.857-.988-3.726-.047-.018-1.135-.443-3.016-.443-3.383 0-8.709 1.345-14.882 7.751l-.246.255.323.146c.039.018 3.955 1.769 8.434 1.769 1.102 0 2.16-.105 3.148-.313 1.904-.402 3.379-.833 4.564-1.18 2.299-.673 3.543-.992 4.768-.287l.225.129.121-.229c.016-.03.385-.744.053-1.659zm-.41 1.187c-1.283-.616-2.617-.289-4.896.378-1.176.344-2.641.773-4.527 1.17a14.81 14.81 0 0 1-3.045.303c-3.625 0-6.874-1.176-7.896-1.585 5.941-6.054 11.029-7.336 14.267-7.336 1.76 0 2.801.396 2.805.396 1.451.771.98 2.438.742 3.058-.604-.194-2.053-.423-4.062.815 0 0 2.098-1.05 4.281-.147 1.203.524 1.994 1.182 2.268 1.92.158.432.119.801.063 1.028z" transform="translate(-9.4 -2) scale(1.88565)"/></g><g id="Top"><path id="Base_Fill" fill="#BA2915" d="M21.253 36.529s-1.25-.938-.625-2.062c.625-1.124 1.75-1.607 1.75-1.491 0 .116 10.812 9.011 22.999-.405V31.29s4.562 2.115 3.062 6.365c0 0-2.736-.875-5.273 1.875-2.539 2.75-4.789 8.625-24.226 3.062 0 0-1.562-.5-.75-2s3.251-2.938 3.063-4.063z" transform="translate(-9.4 -2) scale(1.88565)"/><g id="Stripes" fill="#871212"><path id="Stripe_1_" d="M23.552 33.851s-1.705.608-.83 3.378c0 0-.062 1.582-1.312 2.895s-1.219 2.25-1.438 2.75l2 .477s.094-1.727.906-2.695c.812-.968.961-2.371 1.043-2.998.082-.627-.793-2.127.551-3.158l-.92-.649z" transform="translate(-9.4 -2) scale(1.88565)"/><path id="Stripe" d="M26.908 35.66c.018-.26-.604 1.086-.396 2.853.208 1.767-.854 2.67-1.261 3.843-.407 1.173-.464 1.678-.464 1.678l1.457.279s.693-2.534 1.293-3.576c.6-1.042.267-2.06.267-3.092s.323-1.488.323-1.488l-1.219-.497z" transform="translate(-9.4 -2) scale(1.88565)"/><path id="Stripe_2_" d="M30.816 36.659c0 .079-.708 1.912-.292 3.745.416 1.833-.698 4.134-.698 4.134l1.396.092s.843-2.12.635-3.985c-.208-1.865-.267-2.446.033-3.843l-1.074-.143z" transform="translate(-9.4 -2) scale(1.88565)"/><path id="Stripe_3_" d="M34.66 36.811s.938 2.625.156 4.969c0 0 .687 1.389-.438 2.851h.749s1.095-.937.783-2.69c0 0 1.273-1.131.056-5.129H34.66z" transform="translate(-9.4 -2) scale(1.88565)"/><path id="Stripe_4_" d="M38.77 36.102s1.898 2.386 1.004 5.615c0 0 .229.479-.209 1.333l1.084-.729s.254-.568.188-.771c-.066-.203 1.16-1.824-.648-5.922l-1.419.474z" transform="translate(-9.4 -2) scale(1.88565)"/><path id="Stripe_5_" d="M43.149 34.133s1.771 1.271 1.334 4.292l1.104-.625s0-3.146-1.521-4.208l-.917.541z" transform="translate(-9.4 -2) scale(1.88565)"/><path id="Stripe_6_" d="M45.627 32.693s2.932.922 2.686 4.536l.014.386s2.072-3.377-2.949-6.231l.249 1.309z" transform="translate(-9.4 -2) scale(1.88565)"/></g><path id="Outline_4_" d="M45.483 31.062l-.355-.165v1.549c-3.637 2.782-7.503 4.193-11.495 4.193-6.255 0-10.553-3.394-11.018-3.783l-.017-.149h-.25c-.298 0-1.348.574-1.938 1.637-.536.964.093 1.869.581 2.291l-.008.022c.009.007.019.011.028.018-.018.514-.726 1.212-1.415 1.889-.621.611-1.263 1.242-1.625 1.909-.282.521-.339.999-.17 1.421.272.676 1.031.926 1.071.938 5.382 1.54 9.896 2.321 13.418 2.321 6.548 0 8.73-2.653 10.322-4.59.254-.308.494-.601.738-.864 1.469-1.592 2.998-1.927 4.021-1.927.602 0 .99.12.994.121l.23.073.08-.228c1.558-4.414-3.145-6.653-3.192-6.676zm2.793 6.295c-.764-.154-3.143-.328-5.293 2.002-.25.27-.496.57-.756.886-.24.291-.49.592-.76.895-4.564 1.506-9.058-.049-9.058-.049 3.174 1.806 7.167 1.009 8.466.676-1.541 1.514-3.855 2.886-8.585 2.886-3.475 0-7.943-.774-13.272-2.299-.006-.002-.572-.192-.754-.65-.11-.276-.061-.61.146-.993.326-.601.941-1.206 1.536-1.79.693-.682 1.348-1.333 1.517-1.965 1.416.778 3.103.729 3.103.729-1.766-.441-2.659-.949-3.076-1.257l-.006-.039-.08-.06c-.044-.033-1.067-.823-.557-1.741.482-.869 1.272-1.305 1.471-1.372.961.918 5.473 3.923 11.314 3.923 4.139 0 8.143-1.471 11.899-4.372l.096-.075v-.988c.997.574 3.639 2.442 2.649 5.653z" transform="translate(-9.4 -2) scale(1.88565)"/></g></g></svg>