<svg width="261" height="189" viewBox="0 0 261 189" xmlns="http://www.w3.org/2000/svg"><g fill="none"><path d="M158.2 97.1c-5.9 24.7-8.7 28.7-11.2 34.8-2.4 6-16.1 25.5-15.5 28.7.6 3.2 4.5 4.4 4.4 7.7-.2 3.3-23.7-2.7-26-5.2-1.6-1.8 1.3-20.6 2.4-40.9.5-8.7.2-20.8 2.4-27.3 17.5-43.7 48.9-20.1 43.5 2.2z" fill="#856045"/><path d="M110.9 163.7s-.3 0-.6-.4-.4-1-.5-1.9c-.1-.8-.1-1.9 0-3.1.1-1.2.2-2.5.3-4 .3-2.9.7-6.3 1.1-10 .4-3.7.7-7.6 1-11.5.3-3.9.4-7.8.6-11.5.1-3.7.2-7.1.2-10 0-5.9-.1-9.8-.1-9.8s0 3.9-.2 9.8c-.1 2.9-.2 6.4-.4 10-.2 3.7-.4 7.6-.7 11.5-.3 3.9-.7 7.8-1 11.5-.3 3.7-.7 7.1-.9 10-.2 2.9-.3 5.4 0 7.1.1.9.4 1.5.6 1.9.3.5.6.4.6.4zm22-.7s-.2-.1-.4-.5c-.2-.3-.6-.9-.7-1.6-.1-.8 0-1.7.4-2.7.5-.9 1.2-2 1.9-3.1 1.4-2.3 3-5 4.6-7.9.8-1.4 1.7-3 2.5-4.5s1.7-3.1 2.5-4.7c1.7-3.2 3.2-6.4 4.7-9.4s2.8-5.8 3.9-8.3c2.3-4.9 3.8-8.1 3.8-8.1s-1.7 3.2-4.1 7.9c-2.4 4.8-5.6 11.2-8.9 17.5-1.7 3.2-3.5 6.2-5.1 9.2-1.6 2.9-3.2 5.6-4.5 8-.6 1.2-1.3 2.2-1.8 3.2-.4 1-.5 2.1-.3 2.8.2.8.5 1.3.8 1.6.5.4.7.6.7.6zm-4.7 6.3s.1-.3.1-.8-.2-1.2-.5-1.8c-.3-.6-.7-1.1-1.1-1.5-.4-.3-.7-.5-.7-.5s0 .1.1.2.2.3.3.5c.2.4.5 1 .8 1.5.3.6.5 1.1.7 1.6.2.5.3.8.3.8zm5.6.2s0-.4-.1-1-.4-1.3-.8-2c-.2-.3-.4-.6-.7-.9-.3-.3-.5-.5-.8-.6-.2-.2-.5-.3-.6-.3l-.2-.1.2.2c.1.1.3.3.4.5.3.4.8 1 1.2 1.6.4.6.7 1.3 1 1.7.2.6.4.9.4.9z" fill="#59402F"/><path d="M127.1 170.5c.1-.6-.4-3.4-1.5-3.6-1.1-.2-.5 1.1-.1 1.9.3.8 1.5 2.1 1.6 1.7zm5.5.3c.1-.6-.4-3.4-1.5-3.6-1.1-.2-.5 1.1-.1 1.9.4.8 1.5 2.1 1.6 1.7zm3.5-.4c.1-.6-.4-3.4-1.5-3.6-1.1-.2-.5 1.1-.1 1.9.4.8 1.5 2.1 1.6 1.7z" fill="#665A52"/><path d="M83.1 89.5s1.2 26.8-21.3 47.3c-11.3 10.3-19.6 16.1-18.6 19 1 3 3.9 7.5 2.1 8.6-1.9 1.1-9.1-2-22.6-12-1.6-1.2 0-15.9 8.7-29.7 6.8-10.7 6.7-19.2 8.3-28.3 1.6-9.1 1.4-26.9 6.5-32.9S61 45 75 55.5c14.1 10.6 10.1 28.1 8.1 34z" fill="#856045"/><path d="M35.9 161.3s.2-.3.2-.8c.1-.5.1-1.2-.1-1.8-.2-.7-.5-1.3-.8-1.7-.3-.4-.6-.6-.6-.6s0 .1.1.2c0 .1.1.3.2.6.1.5.3 1.1.5 1.7.2.6.3 1.2.4 1.7 0 .3.1.7.1.7zm5.2 1.9s.1-.4.1-1-.1-1.4-.3-2.1c-.1-.4-.3-.7-.5-1-.2-.3-.4-.6-.6-.8l-.5-.5-.2-.2s0 .1.1.2.2.4.3.6c.2.5.5 1.2.8 1.8.2.7.4 1.4.6 1.9.1.7.2 1.1.2 1.1z" fill="#59402F"/><path d="M34.5 162.2c.2-.6.3-3.4-.7-3.8-1.1-.4-.8.9-.5 1.8.2.9 1.1 2.4 1.2 2zm5.3 1.5c.2-.6.3-3.4-.7-3.8-1.1-.4-.8.9-.5 1.8.3.9 1.1 2.4 1.2 2zm3.3 1c.2-.6.3-3.4-.7-3.8-1.1-.4-.8.9-.5 1.8.3.9 1.1 2.4 1.2 2z" fill="#665A52"/><path d="M47.6 96.3s-10.3 7.6-12.6 6.8c0 0 1.7 2.4 3.8 1.4 0 0-4.7.6-6.9 4.6l3.1-.1s-5.6 5-6.4 9.3l3.6-2.2s-4.9 5.3-1.8 9.9" fill="#856045"/><path d="M35.3 103.2s.2.1.5.1.8-.1 1.4-.2c1.1-.3 2.5-1 3.8-1.7.7-.4 1.3-.8 1.9-1.2.6-.4 1.1-.8 1.6-1.2.9-.7 1.4-1.2 1.4-1.2s-.7.3-1.7.9c-1 .6-2.3 1.4-3.6 2.1-.6.4-1.3.7-1.9 1.1-.6.3-1.2.6-1.7.9-.5.2-.9.4-1.3.5-.2-.1-.4-.1-.4-.1zm-3.2 5.8l.8-.8c.5-.5 1.1-1.1 1.8-1.6.3-.3.7-.5 1-.7.3-.2.7-.4 1-.5.3-.1.5-.3.7-.3.2-.1.3-.1.3-.1h-.3c-.2 0-.5 0-.8.1-.3.1-.7.2-1.1.4-.4.2-.8.4-1.2.7-.4.3-.7.6-1 .9-.3.3-.5.7-.7 1-.3.5-.5.9-.5.9zm-3.1 8.8s.1-.7.5-1.6c.2-.5.5-1 .8-1.5.3-.5.7-1.1 1.1-1.6.4-.5.8-1.1 1.2-1.6.4-.5.8-.9 1.1-1.3.3-.4.6-.7.8-.9.2-.2.3-.4.3-.4s-.1.1-.4.3c-.2.2-.6.4-1 .8-.4.3-.9.7-1.3 1.2-.5.5-.9 1-1.3 1.5-.4.6-.8 1.1-1.1 1.7-.3.6-.5 1.2-.7 1.7-.2.5-.2 1-.2 1.3l.2.4zm.7 6.6s-.1-.1-.1-.4c0-.2-.1-.6 0-1 .1-.8.4-1.8.8-2.8.4-1 .9-2 1.3-2.7.4-.7.6-1.3.6-1.3l-.3.3c-.2.2-.4.4-.7.8-.2.3-.6.7-.8 1.2-.1.2-.3.5-.4.7-.1.3-.2.5-.4.8-.2.5-.4 1.1-.5 1.6-.1.5-.1 1-.1 1.5 0 .4.2.8.3 1l.3.3zm1.2-.8s-1.2 1.9-2.7 5c-.8 1.5-1.6 3.3-2.4 5.3-.8 2-1.7 4.1-2.3 6.3-.7 2.2-1.3 4.4-1.5 6.5-.1 1.1-.2 2.1-.1 3.1 0 .5.1 1 .2 1.4 0 .2.1.4.2.7 0 .1 0 .2.1.3.1.1.2.2.2.3.6.6 1.3 1 1.8 1.4.6.4 1.1.7 1.5 1 .8.6 1.3.9 1.3.9s-.5-.3-1.3-.9c-.4-.3-.9-.7-1.4-1.1-.5-.4-1.2-.9-1.8-1.5-.2-.2-.3-.3-.3-.5s-.1-.4-.1-.7c0-.5-.1-.9-.1-1.4 0-1 .1-2 .3-3 .4-2.1.9-4.3 1.6-6.4.7-2.1 1.5-4.3 2.3-6.3.8-2 1.6-3.8 2.2-5.4 1.4-2.9 2.3-5 2.3-5zm51.3-20.3s-2 3.8-5.3 9.5c-1.6 2.8-3.6 6.1-5.8 9.5-1.1 1.7-2.3 3.4-3.6 5.1-1.3 1.7-2.7 3.3-4.3 4.7a155 155 0 0 0-9.1 9c-2.8 3-5.3 5.8-7.4 8.3-1 1.3-2 2.4-2.7 3.6-.4.6-.7 1.1-.9 1.7-.2.6-.2 1.1-.1 1.6.2.9.7 1.6.9 2 .3.4.4.7.4.7s-.1-.2-.4-.7c-.2-.5-.6-1.1-.8-2-.2-.9.3-2 1.1-3.1s1.7-2.2 2.7-3.5c2.1-2.5 4.7-5.2 7.5-8.2 2.8-2.9 5.9-6 9.1-8.9 1.7-1.4 3.1-3.1 4.4-4.8 1.3-1.7 2.5-3.5 3.6-5.2 2.2-3.5 4-6.8 5.6-9.6 3.3-5.8 5.1-9.7 5.1-9.7z" fill="#59402F"/><path d="M41.1 53.2s-10.3-3.8-21.2 11.7c0 0 3.1-2.5 5-2.5 0 0-4.9 1.7-6.2 10 0 0 1.9-3.3 3.3-3.6 0 0-6.9 9.3 3.2 11.1 10.1 1.9 18.3-24.4 15.9-26.7z" fill="#8D674A"/><path d="M19.9 64.9s.2-.3.6-.8c.4-.5 1-1.2 1.7-2s1.6-1.7 2.6-2.6c.5-.5 1-.9 1.5-1.4.5-.5 1.1-.9 1.7-1.3l1.8-1.2c.6-.3 1.2-.7 1.8-1 .6-.2 1.2-.6 1.8-.7.6-.2 1.1-.4 1.7-.5.5-.1 1-.2 1.4-.2.4-.1.8 0 1.1-.1h1s-.4 0-1-.1c-.3 0-.7-.1-1.2-.1-.4 0-.9.1-1.5.1-.5.1-1.1.2-1.7.4-.6.1-1.2.4-1.9.7-.6.3-1.3.6-1.9 1l-1.8 1.2c-.6.5-1.2.9-1.7 1.4-.5.5-1.1 1-1.5 1.4-1 1-1.8 2-2.4 2.8-1.4 1.7-2.1 3-2.1 3zm5-2.5s-.7.3-1.6 1c-.5.3-1 .8-1.4 1.3-.5.5-1 1.1-1.4 1.8-.4.7-.8 1.3-1 2-.1.3-.3.7-.3 1-.1.3-.2.6-.2.9-.1.6-.1 1-.1 1.4v.5s.1-.2.1-.5c0-.2.1-.4.1-.6.1-.2.2-.5.2-.7.1-.3.2-.5.3-.8.1-.3.2-.6.4-.9.1-.3.3-.6.5-.9l.6-.9c.8-1.2 1.8-2.4 2.5-3.2.8-.9 1.3-1.4 1.3-1.4zM22 68.8s-.5.4-1 1.1c-.3.4-.6.8-.8 1.3-.3.5-.5 1.1-.6 1.7-.1.6-.2 1.2-.1 1.8 0 .3.1.6.1.8.1.3.1.5.2.7l.5 1c.1.2.2.3.2.3s0-.1-.1-.4c0-.1-.1-.3-.1-.4 0-.2-.1-.4-.1-.6-.1-.2-.1-.4-.1-.7 0-.2-.1-.5 0-.8v-.8c0-.3.1-.6.1-.8.1-.6.3-1.1.5-1.6s.4-1 .6-1.4c.4-.7.7-1.2.7-1.2z" fill="#59402F"/><path d="M184.3 84.1s-.1 7.8-3.5 10.9l-.2-2.8s-1.1 8.8-7.7 11.3l.8-2.6s-7.4 4.5-7.5 7.9l-1.2-2s-6.8 5.7-9.8 3.7" fill="#8D674A"/><path d="M162.2 29c-19.3-6.5-42.9 2.8-54.2 6.8-16.5 5.8-36.1-10.5-63.3 11.1-27.2 21.6-22.4 54.5-2.5 71 22.2 18.4 101.7 19.7 116.2-8.4 0 0 26.5-9.8 28.1-37.1" fill="#8D674A"/><path d="M184.5 84.1s-.2.7-.4 1.7-.5 2.4-.9 3.8c-.1.3-.2.7-.3 1-.1.3-.2.7-.3 1-.2.6-.4 1.2-.6 1.6-.1.2-.2.5-.3.6-.1.2-.2.4-.3.4-.2.2-.3.4-.3.4s.1-.1.4-.3c.1-.1.3-.2.4-.4.2-.2.3-.4.5-.6.3-.4.6-1 .9-1.6.3-.6.5-1.3.7-2 .3-1.4.5-2.8.6-3.9-.1-.9-.1-1.7-.1-1.7zm-3.9 8s-.2.9-.7 2.1c-.2.6-.5 1.4-.8 2.1-.2.4-.4.8-.6 1.1-.2.4-.4.8-.6 1.1-.2.4-.5.7-.7 1.1-.3.3-.5.7-.8 1-.3.3-.5.6-.8.8-.3.2-.5.5-.8.7-.3.2-.5.4-.7.5-.2.1-.4.3-.6.4-.3.2-.5.3-.5.3s.2-.1.6-.2c.2-.1.4-.2.7-.3.2-.1.5-.3.8-.4l.9-.6c.3-.2.6-.5.9-.8.3-.3.6-.6.9-1 .3-.3.5-.7.8-1.1.5-.8.9-1.6 1.2-2.4.3-.8.5-1.6.7-2.2.1-1.3.1-2.2.1-2.2zm-6.9 8.9s-.7.2-1.6.7c-.5.3-1 .6-1.5 1s-1.1.8-1.6 1.3-1 1-1.4 1.6c-.4.5-.7 1.1-.9 1.6-.1.3-.2.5-.2.7-.1.2-.1.4-.1.5-.1.3-.1.5-.1.5l.2-.4c.1-.1.1-.3.2-.5s.2-.4.4-.6c.1-.2.3-.4.5-.7.2-.2.4-.5.6-.7.4-.5.9-1 1.4-1.4.5-.5 1-.9 1.5-1.3s1-.8 1.4-1.1c.7-.8 1.2-1.2 1.2-1.2zm-8.6 5.9l-1.5 1c-.5.3-1 .6-1.6.9-.6.3-1.2.7-1.8.9-.6.3-1.3.6-1.9.8l-.9.3c-.3.1-.6.1-.8.2-.3 0-.5.1-.7.1h-1.1s.2 0 .5.1c.2 0 .3.1.6.1h.7c.5 0 1.2-.1 1.8-.3.7-.2 1.3-.4 2-.7.7-.3 1.3-.7 1.8-1.1.6-.4 1.1-.8 1.5-1.1.9-.7 1.4-1.2 1.4-1.2zM141.4 27s-3.1.2-7.7.9c-2.3.4-4.9.9-7.8 1.6-2.8.7-5.8 1.5-8.7 2.5-2.9 1-5.7 2.3-8.5 3.2-1.4.4-2.7.8-4 1-1.3.2-2.5.4-3.7.5-1.1.1-2.2.1-3.1.2h-2.4c-1.4 0-2.1-.1-2.1-.1s.8.1 2.1.2c.7.1 1.5.1 2.4.1h3.2c1.2-.1 2.4-.2 3.7-.4 1.3-.2 2.7-.5 4.1-.9 2.8-.8 5.6-2.2 8.5-3.1 1.5-.5 2.9-.9 4.4-1.3 1.5-.4 2.9-.8 4.3-1.2 2.8-.7 5.4-1.3 7.7-1.8s4.2-.8 5.5-1c1.3-.2 2.1-.4 2.1-.4zm-74.1 9s-1.2.2-3.2.8c-2 .6-5 1.6-8.3 3.1-3.3 1.5-7.1 3.5-10.8 6.2-3.7 2.7-7.3 6.1-10.2 10.1-1.4 2-2.7 4.2-3.7 6.3-1.1 2.1-2 4.3-2.9 6.5-.8 2.1-1.5 4.3-1.9 6.3-.4 2.1-.7 4-.7 5.9-.1 3.7.5 6.7.8 8.8.4 2.1.6 3.3.6 3.3s-.2-1.2-.4-3.3c-.3-2.1-.7-5.1-.5-8.8.1-1.8.4-3.8.8-5.8.5-2 1.2-4.1 2-6.2.9-2.1 1.8-4.2 2.9-6.4 1-2.2 2.2-4.2 3.7-6.2 2.8-3.9 6.3-7.3 10-10.1 3.6-2.7 7.4-4.8 10.6-6.4 3.3-1.6 6.1-2.6 8.2-3.3 1.8-.6 3-.8 3-.8zm85.5 80.6s-.4.3-1 .7c-.7.4-1.7 1.1-3 1.8-.7.4-1.4.8-2.2 1.2-.8.4-1.7.8-2.7 1.3-1 .4-2 .9-3.1 1.4-1.1.4-2.3.9-3.5 1.4-1.2.5-2.5.9-3.8 1.4-1.3.5-2.7.8-4.2 1.3-2.9.8-5.9 1.5-9.1 2.1-.8.1-1.6.3-2.4.5-.8.1-1.6.2-2.5.3-.8.1-1.7.2-2.5.3-.8.1-1.7.2-2.5.2-.8.1-1.7.1-2.6.2-.9.1-1.7.1-2.6.1-1.7 0-3.5.1-5.2.1-3.5-.1-6.9-.1-10.3-.5-3.4-.2-6.8-.6-10-.9l-4.8-.6c-1.6-.2-3.1-.5-4.5-.7-2.9-.5-5.7-1-8.2-1.6-2.5-.6-4.8-1.3-6.8-1.9-1-.3-1.9-.7-2.8-1-.8-.4-1.6-.6-2.3-1-1.4-.6-2.4-1.3-3.1-1.7-.7-.5-1-.8-1-.8s.3.3 1 .8 1.7 1.1 3.1 1.8c.7.4 1.5.7 2.3 1.1.9.3 1.8.7 2.8 1.1 2 .7 4.3 1.4 6.8 2 2.5.6 5.3 1.2 8.2 1.8 1.5.2 3 .5 4.5.8 1.6.2 3.1.4 4.8.6 3.2.3 6.6.7 10 1 3.4.3 6.9.4 10.4.5 1.7 0 3.5-.1 5.2-.1.9 0 1.7-.1 2.6-.2.9-.1 1.7-.1 2.6-.2.9-.1 1.7-.1 2.5-.2s1.7-.2 2.5-.4c.8-.1 1.7-.2 2.5-.4.8-.1 1.6-.3 2.4-.5 3.2-.6 6.3-1.4 9.1-2.2 1.4-.5 2.8-.8 4.2-1.3 1.3-.5 2.6-.9 3.8-1.4 1.2-.5 2.4-1 3.5-1.4 1.1-.5 2.1-1 3.1-1.4.9-.5 1.8-.9 2.6-1.4.8-.5 1.5-.9 2.2-1.2 1.3-.8 2.3-1.4 3-1.9.7-.6 1-.9 1-.9z" fill="#59402F"/><path d="M83.9 85.6s1.5 34.3-2.5 46.8c-1.3 4-13.8 29.5-12.2 32.1 1.6 2.7 8 7.6 6.5 9.1-1.6 1.5-22.1-.1-26.4-2.3-1.8-.9-7.2-22.6-6.8-39.5.4-12.7-1.8-24.9-2.3-34.1-.5-9.2-5.5-25.1-1.9-32.2 3.6-7.1 13.9-18.3 30-11.2 16.1 7.1 16.2 25 15.6 31.3z" fill="#8D674A"/><path d="M68.1 173.9s0-.3-.1-.8-.4-1.1-.9-1.6c-.4-.5-1-.9-1.4-1.2-.4-.2-.8-.3-.8-.3s0 .1.1.2.2.3.4.4c.3.4.7.8 1.1 1.3.4.5.8 1 1 1.4.5.4.6.6.6.6zm5.6-.5s-.1-.4-.3-.9c-.2-.5-.6-1.2-1.2-1.8-.3-.3-.6-.5-.9-.7-.3-.2-.6-.4-.9-.5-.3-.1-.5-.2-.7-.2h-.3l.2.2c.1.1.3.2.5.4.4.3 1 .8 1.5 1.3s1 1.1 1.3 1.5c.6.4.8.7.8.7z" fill="#59402F"/><path d="M67.3 175.4c-.1-.6-1.1-3.2-2.3-3.1-1.1.1-.3 1.2.3 1.8.6.6 2.1 1.6 2 1.3zm5.5-1c-.1-.6-1.1-3.2-2.3-3.1-1.1.1-.3 1.2.3 1.8.6.6 2 1.7 2 1.3zm3.4-.5c-.1-.6-1.1-3.2-2.3-3.1-1.1.1-.3 1.2.3 1.8.6.6 2 1.7 2 1.3z" fill="#6C5F57"/><path d="M41.6 107.9s-4.2 12.1-6.5 12.7c0 0 2.7 1 3.9-1 0 0-3.6 3.2-3.1 7.7l2.5-1.9s-1.7 7.3 0 11.3l1.7-3.9s-1.1 7.1 4.1 9.2" fill="#8D674A"/><path d="M35.3 120.6s.2 0 .5-.2.6-.5 1-1c.8-.9 1.5-2.2 2.2-3.6l.9-2.1c.3-.7.5-1.3.6-1.8.3-1.1.5-1.8.5-1.8s-.4.7-.8 1.7c-.5 1-1.1 2.4-1.7 3.8-.3.7-.6 1.4-1 2-.3.6-.6 1.2-.9 1.7-.3.5-.5.9-.8 1.1-.3.1-.5.2-.5.2zm.8 6.6s.1-.5.2-1.1c.1-.7.3-1.5.5-2.3.1-.4.3-.8.4-1.2.2-.4.3-.7.5-1 .2-.3.3-.5.4-.7.1-.2.2-.3.2-.3s-.1.1-.3.2c-.2.1-.4.3-.6.5-.2.2-.5.6-.7 1-.2.4-.4.8-.5 1.3-.1.4-.2.9-.3 1.3v1.2c0 .7.2 1.1.2 1.1zm2.4 9s-.3-.6-.5-1.6c-.1-.5-.1-1.1-.2-1.7v-2c0-.7.1-1.3.1-2 0-.6.1-1.2.2-1.7s.1-.9.1-1.2v-.5l-.2.4c-.1.3-.3.7-.4 1.2-.1.5-.3 1.1-.4 1.7-.1.6-.2 1.3-.2 2s0 1.4.1 2.1c.1.7.2 1.3.4 1.8s.4.9.5 1.2c.3.2.5.3.5.3zm4.3 5s-.1-.1-.3-.2c-.2-.2-.4-.4-.6-.8-.4-.7-.7-1.7-1-2.8-.2-1.1-.4-2.1-.5-3-.1-.8-.2-1.4-.2-1.4s0 .1-.1.4c0 .2-.1.6-.1 1v1.4c0 .3 0 .5.1.8 0 .3.1.6.1.8.1.6.3 1.1.5 1.6s.5.9.8 1.3c.3.3.6.5.8.7.3.2.5.2.5.2z" fill="#59402F"/><path d="M41.6 132.6s.2 2.7.7 6.6c.2 2 .5 4.3.9 6.8s.8 5.1 1.2 7.7c.5 2.6 1 5.2 1.5 7.7.5 2.4 1.1 4.7 1.8 6.6.3 1 .6 1.8 1 2.5.1.2.2.4.3.5.1.1.2.3.4.4.3.2.7.3.9.3 1.1.3 1.8.3 1.8.3s-.7-.1-1.8-.5c-.3-.1-.6-.2-.9-.4-.1-.1-.2-.2-.3-.4-.1-.2-.2-.3-.3-.5-.3-.7-.6-1.6-.9-2.5-.6-1.9-1-4.2-1.5-6.6-.5-2.4-1-5.1-1.4-7.7-.5-2.6-.9-5.2-1.3-7.7s-.8-4.8-1.1-6.7c-.6-3.8-1-6.4-1-6.4zm41-27.2s.3 4.1.3 10.2c0 3-.1 6.6-.6 10.4-.2 1.9-.6 3.8-1.2 5.7-.7 1.8-1.5 3.7-2.3 5.6-1.6 3.7-3.3 7.5-4.8 11s-2.8 6.8-3.8 9.7c-.5 1.5-.9 2.8-1.2 4-.2.6-.3 1.2-.3 1.7 0 .6.3 1 .5 1.4.5.7 1 1.2 1.4 1.6l.5.5-.5-.5c-.3-.4-.8-.9-1.3-1.6-.2-.4-.4-.8-.4-1.3s.2-1.1.3-1.7c.4-1.2.8-2.5 1.3-3.9 1-2.9 2.4-6.1 3.9-9.6s3.2-7.2 4.9-10.9c.8-1.9 1.6-3.7 2.3-5.6.6-1.9.9-3.9 1.2-5.8.4-3.8.4-7.4.4-10.5-.1-3.1-.3-5.6-.4-7.4-.1-2-.2-3-.2-3z" fill="#59402F"/><g fill="#8D674A"><path d="M163.4 88.4c4.9 22.3 1.2 29.9 2.9 36.2 1.6 6.3 10.8 28.6 13.1 30.8 2.4 2.2 7.2 4 9 6.8 1.8 2.8-22.7 8-26 7.2-2.7-.6-30.8-31.5-37.9-53.4-11.8-45.4 34-49.9 38.9-27.6z"/><path d="M123.1 92.7s-2.9 12.5-5.1 13.3c0 0 2.8.7 3.8-1.4 0 0-3.2 3.5-2.3 8l2.2-2.1s-1 7.5 1.2 11.2l1.3-4s-.3 7.2 5.1 8.7"/></g><path d="M118.1 106s.2-.1.4-.3c.2-.2.6-.6.9-1.1.7-1 1.3-2.4 1.8-3.8.2-.7.5-1.4.6-2.1.2-.7.3-1.3.4-1.9.2-1.1.3-1.9.3-1.9s-.3.7-.7 1.8c-.4 1.1-.8 2.5-1.3 3.9-.2.7-.5 1.4-.7 2.1-.3.7-.5 1.3-.7 1.8-.2.5-.5.9-.7 1.2l-.3.3zm1.5 6.5s0-.5.1-1.1c.1-.7.1-1.5.3-2.4l.3-1.2c.1-.4.3-.7.4-1 .1-.3.2-.6.3-.7.1-.2.1-.3.1-.3l-.2.2c-.2.1-.4.3-.6.6-.2.3-.4.6-.6 1-.2.4-.3.8-.4 1.3-.1.5-.1.9-.1 1.4 0 .4 0 .8.1 1.2.1.5.3 1 .3 1zm3.2 8.7s-.4-.6-.6-1.6c-.1-.5-.3-1.1-.3-1.7-.1-.6-.2-1.3-.2-2s-.1-1.3-.1-2v-3.4s-.1.2-.1.5c-.1.3-.2.7-.3 1.2-.1.5-.2 1.1-.2 1.8-.1.6 0 1.3 0 2 .1.7.1 1.4.3 2 .1.6.3 1.2.6 1.7.2.5.5.8.7 1.1.1.3.2.4.2.4zm42.5 48.1s-.2.1-.7.2c-.5.1-1.1.1-2-.2-.8-.2-1.7-.8-2.6-1.6-.9-.8-1.6-1.9-2.6-3.1-1.9-2.3-4.2-4.9-6.6-7.7-2.4-2.8-4.9-5.9-7.4-9-1.2-1.5-2.5-3.1-3.6-4.6-1.2-1.5-2.3-3.1-3.4-4.6-1.1-1.5-2-3-2.9-4.4-.9-1.4-1.7-2.8-2.5-4.1-1.5-2.6-2.7-4.7-3.4-6.3-.4-.8-.6-1.4-.8-1.9-.2-.4-.2-.7-.2-.7s0 .2.2.7c.1.4.4 1.1.7 1.9.7 1.6 1.7 3.8 3.2 6.4.7 1.3 1.5 2.7 2.4 4.2.9 1.5 1.8 3 2.9 4.5 1 1.5 2.2 3.1 3.3 4.7 1.2 1.6 2.4 3.1 3.6 4.7 2.5 3.1 5.1 6.1 7.5 8.9 2.4 2.8 4.8 5.4 6.7 7.6 1 1.1 1.8 2.2 2.8 3 .9.8 1.9 1.3 2.7 1.5.8.2 1.6.2 2 .1.5-.1.7-.2.7-.2z" fill="#59402F"/><path d="M128.9 126.3s-.6-.2-1.3-.8c-.3-.3-.7-.7-1-1.2-.3-.5-.6-1-.8-1.6l-.3-.9c-.1-.3-.2-.6-.3-.8-.2-.6-.3-1.1-.4-1.5-.1-.5-.2-.8-.3-1.1-.1-.3-.1-.4-.1-.4v1.6c.1.5.1 1 .3 1.6.1.3.1.6.2.9l.3.9c.3.6.6 1.2 1 1.7.2.3.4.5.6.7.2.2.4.4.6.5.4.3.8.4 1.1.5.2-.1.4-.1.4-.1zm53.6 31.2l-.6-.3c-.4-.2-.9-.5-1.5-1.1-.6-.5-1.3-1.3-1.9-2.3-.6-1-1-2.2-1.6-3.4-1.2-2.6-2.5-5.6-3.9-8.8-1.4-3.2-2.8-6.7-4-10.2-.6-1.8-1.2-3.5-1.7-5.3-.5-1.8-.8-3.5-.9-5.3-.3-3.5-.3-6.8-.3-9.6s-.2-5.2-.4-6.8c-.1-.8-.2-1.5-.3-1.9-.1-.4-.1-.7-.1-.7s0 .2.1.7c.1.4.1 1.1.2 1.9.1.8.1 1.8.1 3v3.8c-.1 2.8-.3 6.1.1 9.6.1 1.7.4 3.6.9 5.4.5 1.8 1 3.6 1.6 5.4 1.3 3.6 2.7 7 4.1 10.2 1.4 3.2 2.9 6.2 4.1 8.7.6 1.3 1.1 2.5 1.8 3.4.7 1 1.4 1.7 2 2.2.6.5 1.2.8 1.6 1 .3.4.6.4.6.4zm-.7 8.2s0-.3-.2-.8-.5-1.1-1-1.6-1-.9-1.5-1.1c-.5-.2-.8-.3-.8-.3l.2.2.4.4 1.2 1.2c.4.4.8.9 1.1 1.3.3.4.6.7.6.7zm5.4-1.4s-.1-.4-.3-.9c-.3-.5-.7-1.2-1.3-1.7-.3-.3-.6-.5-.9-.7-.3-.2-.6-.3-.9-.4-.3-.1-.5-.1-.7-.2h-.3l.2.2c.1.1.3.2.6.4.5.3 1 .7 1.6 1.2.5.5 1.1 1 1.4 1.4.4.4.6.7.6.7z" fill="#59402F"/><path d="M181 167.1c-.1-.6-1.4-3.1-2.5-3-1.1.1-.2 1.2.4 1.8.7.7 2.2 1.6 2.1 1.2zm5.4-1.3c-.1-.6-1.4-3.1-2.5-3-1.1.2-.2 1.2.4 1.8.7.7 2.2 1.6 2.1 1.2zm3.3-1.3c-.1-.6-1.4-3.1-2.5-3-1.1.2-.2 1.2.4 1.8.7.6 2.1 1.6 2.1 1.2z" fill="#6C5F57"/><g transform="matrix(-1 0 0 1 244 22)"><path d="M70.8 1.7c-20.3-2.8-43.1 9.1-46.2 14.7-3.1 5.6-3.7 18.8-3.7 18.8S.4 45.9.8 50.2c.4 4.3 7 14.1 15.3 14.7 8.3.6 15.4 1.5 25.1 1 9.7-.5 27.1 1.6 35.9-8.2 0 0-1.2 4.3-2.9 5.5 0 0 11.4-2.6 8.4-13.5 0 0 2 1.8 1.4 7.5 0 0 6.1-6.2 2.2-15.2 0 0 2.7 4.9 5.4 4.9 0 0-2.6-3.8-2.5-10.3-.1-6.4-1.3-32.5-18.3-34.9z" fill="#8D674A"/><path d="M67.7.8c-20.4-2-40.1 9.9-43.2 15.6-3.1 5.7-3.7 18.8-3.7 18.8S.4 45.9.8 50.2c.4 4.3 7 14.1 15.3 14.7 8.3.6 16.9 3.5 26.5 2.9 9.6-.6 25.6-.2 34.4-10 0 0-1.2 4.3-2.9 5.5 0 0 11.4-2.6 8.4-13.5 0 0 2 1.8 1.4 7.5 0 0 6.1-6.2 2.2-15.2 0 0 2.7 4.9 5.4 4.9 0 0 4.5-15.2 4.6-21.7.1-6.5-14-23.1-28.4-24.5z" fill="#8D674A"/><path d="M.8 50.2c.4 4 6.1 12.7 13.6 14.4 2.5-1.4 5.3-3.4 5.5-6.1 0 0 16.1-11.1 1.1-23.3-.1 0-20.6 10.7-20.2 15z" fill="#9E7B5C"/><path d="M1.7 53.4C.8 51.8-.6 50.2.3 48.8.8 48 2 46.5 3 46.5c1 0 2.5 3-.5 4.5.4 1.6-.2 2.1-.8 2.4z" fill="#332721"/><path d="M7.1 60.2s.5-.3 1.3-.7c.4-.2.9-.3 1.4-.5.5-.1 1.1-.3 1.7-.3.6-.1 1.2-.1 1.8-.1.6 0 1.1.1 1.5.2.4.1.8.2 1 .3l.4.2h-.4c-.3 0-.6-.1-1-.1h-1.5c-.5 0-1.1.1-1.7.1-1.1.1-2.3.3-3.1.5-.8.3-1.4.4-1.4.4z" fill="#59402F"/><ellipse fill="#332010" transform="rotate(-5.264 30.9 34.6)" cx="30.901" cy="34.601" rx="1.7" ry="2.6"/><path d="M34.1 27.8c.1 1.1-3 1.8-4.4 1.9-1.4.1-2.7-.6-2.8-1.7-.1-1.1 1-2 2.4-2.2 1.5-.1 4.7.9 4.8 2z" fill="#9E7B5C"/><path d="M20.9 35.2v-2.3c.1-1.4.1-3.5.4-6 .1-1.2.3-2.6.6-4s.6-2.9 1.2-4.3c.3-.7.6-1.5 1-2.2.5-.7.9-1.3 1.5-2 1.1-1.2 2.3-2.4 3.6-3.4 1.3-1 2.7-1.9 4.1-2.7 1.4-.8 2.8-1.6 4.2-2.2 1.4-.7 2.8-1.2 4.1-1.7 1.3-.5 2.6-.9 3.8-1.3 1.2-.4 2.3-.7 3.3-.9 1-.2 1.8-.5 2.5-.6 1.4-.3 2.2-.5 2.2-.5s-.8.2-2.2.6c-1.4.4-3.4 1-5.7 1.7-1.2.4-2.4.8-3.7 1.4-1.3.5-2.7 1.1-4.1 1.8-1.4.7-2.8 1.4-4.2 2.2-1.4.8-2.7 1.8-4 2.7-1.3 1-2.5 2.1-3.6 3.3-.5.6-1 1.2-1.4 1.9-.4.7-.7 1.4-1 2.1-1.1 2.9-1.6 5.7-1.9 8.1-.6 5-.7 8.3-.7 8.3zm53.2 28.1s.3-.1.7-.2c.5-.1 1.1-.4 1.9-.8.4-.2.8-.4 1.2-.7.4-.2.8-.6 1.2-.9.4-.3.8-.7 1.2-1.1.4-.4.7-.8 1-1.3.3-.4.5-1 .8-1.4.2-.5.3-1 .5-1.5.1-.5.1-1 .2-1.5s0-.9 0-1.4c0-.4 0-.8-.1-1.2 0-.3-.1-.6-.1-.9-.1-.5-.1-.8-.1-.8s.1.3.2.8c.1.2.2.5.2.9.1.3.2.7.2 1.2 0 .4.1.9.1 1.4 0 .5 0 1-.1 1.6-.2.5-.2 1.1-.5 1.6-.2.5-.4 1.1-.8 1.6-.3.5-.7.9-1.1 1.4-.4.4-.9.8-1.3 1.1-.9.6-1.8 1.1-2.6 1.4-1.5.6-2.7.7-2.7.7zm9.8-6s.7-.7 1.5-2.1c.2-.3.4-.7.6-1.1.2-.4.4-.8.5-1.3.1-.2.2-.4.2-.7.1-.2.1-.5.2-.7l.3-1.5c.1-.5.1-1 .1-1.5s0-1-.1-1.5-.1-.9-.2-1.4l-.3-1.2c-.1-.4-.2-.7-.3-1-.1-.3-.2-.6-.2-.8-.1-.4-.2-.7-.2-.7l.3.6c.1.2.2.5.4.7.2.3.3.6.4 1 .1.4.3.8.4 1.2.1.4.2.9.3 1.4 0 .5.1 1 .1 1.5s0 1-.1 1.6l-.3 1.5c-.1.2-.1.5-.2.7-.1.2-.2.5-.3.7-.2.5-.4.9-.6 1.3-.2.4-.5.7-.7 1.1-.5.6-.9 1.1-1.3 1.4-.3.6-.5.8-.5.8zm7.5-10.4s-.2-.2-.4-.5c-.2-.4-.6-.9-.9-1.6-.3-.7-.6-1.5-.8-2.4-.2-.9-.4-1.9-.5-2.8-.1-.5-.1-1-.1-1.5s-.1-1-.1-1.4c-.1-.9 0-1.8 0-2.5s.1-1.3.1-1.8c0-.4.1-.7.1-.7s0 .2.1.7c0 .4.1 1 .1 1.8 0 .7.1 1.6.2 2.5.1.9.2 1.9.3 2.8.1 1 .2 1.9.4 2.8.2.9.4 1.7.6 2.4.2.7.4 1.2.6 1.6l.3.6zM65 .8s.4-.1 1.1-.2h1.2c.5 0 1 .1 1.6.2.6.1 1.2.2 1.9.4.6.2 1.3.3 2 .6.7.2 1.4.5 2.1.8.7.3 1.4.7 2.1 1 .7.3 1.4.8 2 1.1.7.4 1.3.8 1.9 1.2 1.2.8 2.3 1.6 3.2 2.3.5.3.9.7 1.2 1 .4.3.7.6.9.8.5.4.8.7.8.7l-.9-.6c-.3-.2-.6-.4-1-.7-.4-.3-.8-.6-1.3-.9-.5-.3-1-.7-1.6-1-.5-.4-1.2-.7-1.8-1.1-.6-.4-1.2-.8-1.9-1.1-.7-.4-1.3-.8-2-1.1-.7-.3-1.4-.7-2.1-1-.7-.3-1.4-.6-2-.9-1.3-.5-2.6-.9-3.8-1.2C68 1 67.5.9 67 .8c-.5-.1-.9-.1-1.2-.1-.4 0-.8.1-.8.1z" fill="#59402F"/></g><path d="M192 25.6s-1.7-8.2-6.3-8.8c-4.6-.6-15.3 3.9-7.2 16.6" fill="#8D674A"/><path d="M185.5 19.3s-.4.6-.7 1.5c-.2.5-.4 1-.5 1.6-.2.6-.3 1.3-.3 2v1c.1.3.1.7.2 1l.3.9c.1.3.2.5.4.7.3.4.5.7.8.9l.3.3s-.1-.1-.2-.4c-.1-.1-.2-.3-.3-.4l-.3-.6c-.1-.2-.2-.5-.2-.7-.1-.3-.1-.5-.2-.8-.1-.3-.1-.6-.1-.9v-.9c0-.6.1-1.3.2-1.8.1-.6.2-1.1.3-1.6.1-1.1.3-1.8.3-1.8zm-2.3 9.1s0 .2.1.3c.1.2.2.4.4.6.2.2.4.4.6.5.2.1.3.1.3.1s0-.2-.1-.3c-.1-.2-.2-.4-.4-.6-.2-.2-.4-.4-.6-.5-.1-.1-.3-.1-.3-.1zm-1.2 1.3s0 .1.1.3c.1.2.2.3.3.5.1.1.3.3.5.3.2.1.3.1.3.1s0-.1-.1-.3c-.1-.2-.2-.3-.3-.5-.1-.1-.3-.3-.5-.3-.1-.1-.3-.1-.3-.1z" fill="#59402F"/><path d="M179.1 18.5s.3-.1.7-.4c.5-.2 1.2-.5 2-.7.2-.1.4-.1.7-.2.2 0 .5-.1.7-.1h1.6c.3 0 .5.1.8.1.3.1.5.2.8.2.3.1.5.2.8.3.2.1.5.2.7.4.3.6.8.9 1.1 1.3.4.4.7.8 1 1.3.2.5.6.9.7 1.4.2.5.4.9.6 1.3.2.4.3.8.4 1.1l.3.9c.2.5.3.8.3.8s0-.3-.1-.8c0-.3-.1-.6-.2-.9-.1-.4-.1-.8-.3-1.2-.1-.4-.3-.9-.5-1.4-.1-.5-.4-1-.7-1.5-.2-.5-.6-1-1-1.5-.3-.5-.9-.9-1.3-1.3-.2-.2-.5-.3-.8-.5-.3-.1-.5-.3-.8-.4-.3-.1-.6-.2-.9-.2-.3 0-.6-.1-.9-.1h-.8c-.3 0-.5 0-.8.1-.3.1-.5.1-.7.2-.4.3-.6.3-.8.4-.4.1-.8.3-1.1.5-.3.2-.6.3-.8.5-.5.2-.7.4-.7.4z" fill="#59402F"/></g></svg>