<svg width="120" height="120" viewBox="0 0 120 120" xmlns="http://www.w3.org/2000/svg" xmlns:xlink="http://www.w3.org/1999/xlink"><defs><path id="a" d="M.506.33h86.85v87.092H.505z"/><path id="c" d="M0 .248h22.021v22.077H0z"/></defs><g fill="none" fill-rule="evenodd"><path d="M18.87 111.907a7.149 7.149 0 0 1-10.126 0 7.192 7.192 0 0 1 0-10.153l19.793-19.841a7.146 7.146 0 0 1 10.125 0 7.193 7.193 0 0 1 0 10.151L18.87 111.907z" fill="#806555"/><g transform="translate(32.316 .368)"><mask id="b" fill="#fff"><use xlink:href="#a"/></mask><path fill="#28D7CB" mask="url(#b)" d="M87.355.33L44.083 11.796.506 71.998l7.681 7.701 7.704 7.723 60.043-43.694z"/></g><path d="M53.391 98.524a5.847 5.847 0 0 1-8.285 0l-22.553-22.61a5.883 5.883 0 0 1 0-8.306 5.846 5.846 0 0 1 8.284 0l22.554 22.61a5.883 5.883 0 0 1 0 8.306" fill="#603E2A"/><g transform="translate(1 97.344)"><mask id="d" fill="#fff"><use xlink:href="#c"/></mask><path d="M18.796 19.092c-4.3 4.312-11.27 4.31-15.571 0-4.3-4.31-4.3-11.299 0-15.61a10.99 10.99 0 0 1 15.571 0c4.3 4.31 4.3 11.3 0 15.61" fill="#FFB726" mask="url(#d)"/></g><path d="M17.929 114.565a8.354 8.354 0 0 1-11.837 0c-3.268-3.278-3.27-8.59 0-11.868a8.357 8.357 0 0 1 11.837 0 8.406 8.406 0 0 1 0 11.868" fill="#FFD47D"/><path d="M29.893 74.878a3.801 3.801 0 0 1-5.386 0 3.825 3.825 0 0 1 0-5.4 3.8 3.8 0 0 1 5.386 0 3.824 3.824 0 0 1 0 5.4" fill="#FFB726"/><path d="M29.247 74.23a2.89 2.89 0 0 1-4.095 0 2.907 2.907 0 0 1 0-4.106 2.89 2.89 0 0 1 4.095 0 2.909 2.909 0 0 1 0 4.106" fill="#FFD47D"/><path d="M51.986 97.026a3.801 3.801 0 0 1-5.386 0 3.824 3.824 0 0 1 0-5.4 3.8 3.8 0 0 1 5.386 0 3.824 3.824 0 0 1 0 5.4" fill="#FFB726"/><path d="M51.34 96.379a2.89 2.89 0 0 1-4.094 0 2.908 2.908 0 0 1 0-4.105 2.89 2.89 0 0 1 4.094 0 2.906 2.906 0 0 1 0 4.105" fill="#FFD47D"/><path d="M47.868 75.451c-.764.766-2 .765-2.762 0a1.962 1.962 0 0 1 0-2.768l58.915-59.065a1.95 1.95 0 0 1 2.762 0 1.962 1.962 0 0 1 0 2.769L47.868 75.451z" fill="#FAFCFB"/><path d="M118.829.92l-42.43 11.243-42.416 58.598-3.146-3.154a5.848 5.848 0 0 0-8.285 0 5.884 5.884 0 0 0 0 8.306l5.985 6-15.682 15.72a10.966 10.966 0 0 0-8.631 3.193C.029 105.032-.061 111.78 3.93 116.11L118.829.92z" fill="#FAFCFB" opacity=".366"/></g></svg>