<svg width="120" height="120" viewBox="0 0 120 120" xmlns="http://www.w3.org/2000/svg"><g fill="none" fill-rule="evenodd"><path d="M113.294 62.09c0 29.14-23.623 52.762-52.76 52.762-29.14 0-52.76-23.623-52.76-52.761 0-29.14 23.62-52.762 52.76-52.762 29.137 0 52.76 23.622 52.76 52.762" fill="#507A88"/><path d="M106.067 62.09c0 25.148-20.385 45.533-45.533 45.533C35.385 107.623 15 87.238 15 62.091c0-25.15 20.385-45.535 45.534-45.535 25.148 0 45.533 20.386 45.533 45.535" fill="#E8E0CB"/><path d="M66.259 111.619s1.066-.135 2.89-.546a45.959 45.959 0 0 0 3.258-.839c1.245-.363 2.63-.84 4.125-1.38 1.484-.58 3.083-1.22 4.717-2.019a54.048 54.048 0 0 0 5.008-2.737c1.706-1.004 3.339-2.235 4.995-3.477 1.605-1.31 3.211-2.674 4.66-4.202 1.5-1.473 2.855-3.09 4.127-4.724.644-.813 1.202-1.678 1.808-2.495.579-.836 1.089-1.702 1.625-2.534.992-1.71 1.924-3.385 2.693-5.036.42-.809.748-1.632 1.084-2.42.327-.793.696-1.54.946-2.297.534-1.5 1.084-2.863 1.444-4.111.387-1.24.754-2.318.961-3.23.472-1.81.767-2.845.767-2.845s-.143 1.06-.439 2.918c-.125.935-.392 2.043-.669 3.326-.244 1.292-.67 2.712-1.127 4.267-.205.785-.528 1.565-.807 2.394-.292.825-.597 1.678-.984 2.524a50.55 50.55 0 0 1-2.554 5.274c-.526.87-1.028 1.779-1.6 2.66-.595.863-1.156 1.768-1.818 2.612-1.3 1.702-2.687 3.39-4.23 4.929-1.515 1.568-3.192 2.968-4.865 4.305-1.717 1.282-3.465 2.47-5.242 3.467-1.759 1.032-3.54 1.878-5.255 2.602-1.706.752-3.383 1.296-4.929 1.783a47.268 47.268 0 0 1-7.643 1.615c-.932.126-1.673.161-2.174.19-.504.027-.772.026-.772.026M51.367 14.266s-.922.128-2.5.495c-.79.173-1.738.423-2.815.745-1.075.323-2.27.745-3.562 1.218-1.28.507-2.66 1.069-4.07 1.763a47.594 47.594 0 0 0-4.32 2.379c-1.472.871-2.88 1.939-4.309 3.013-1.386 1.132-2.772 2.31-4.02 3.632-1.298 1.271-2.47 2.666-3.57 4.076-.555.702-1.039 1.45-1.565 2.153-.501.721-.943 1.469-1.41 2.186-.858 1.477-1.67 2.922-2.339 4.346-.368.699-.652 1.41-.947 2.09-.286.684-.608 1.329-.829 1.982-.467 1.296-.952 2.471-1.271 3.55-.343 1.072-.667 2.002-.852 2.79-.42 1.564-.686 2.46-.686 2.46s.114-.92.358-2.533c.103-.81.328-1.773.56-2.887.204-1.122.564-2.355.955-3.705.174-.682.45-1.36.69-2.08.25-.717.512-1.457.845-2.193a43.445 43.445 0 0 1 2.203-4.584c.455-.756.889-1.546 1.384-2.31.513-.751 1-1.538 1.574-2.27 1.128-1.48 2.331-2.945 3.671-4.283 1.316-1.36 2.773-2.576 4.227-3.736 1.492-1.112 3.012-2.138 4.557-3 1.527-.894 3.076-1.622 4.567-2.246 1.482-.647 2.94-1.113 4.282-1.528 2.7-.799 5.019-1.16 6.637-1.358 1.622-.19 2.555-.165 2.555-.165" fill="#FFFFFE"/><path fill="#507A88" d="M59.828 62.14L.476 62.026l53.067 7.671 6.289-7.55-.004-.005"/><path fill="#E6776F" d="M59.776 62.248l-59.36-.152 53.127-7.549 6.289 7.549-.056.152m.776-.108l59.352-.115-53.068 7.671-6.29-7.55.006-.005"/><path fill="#507A88" d="M60.607 62.248l59.356-.152-53.127-7.549-6.29 7.549.06.152m-.447.289l.112-57.051-7.525 51.011 7.408 6.043.005-.003"/><path fill="#E6776F" d="M60.054 62.485l.148-57.054 7.406 51.066-7.406 6.043-.148-.055"/><path fill="#507A88" d="M60.147 61.68l-.113 57.688 7.525-51.58-7.405-6.11-.007.003"/><path fill="#E6776F" d="M60.253 61.733l-.149 57.692-7.407-51.637 7.407-6.11.149.055"/><path fill="#507A88" d="M60 61.953L24.296 26.108l27.363 36.61 8.34-.76.001-.005"/><path fill="#E6776F" d="M59.904 61.983L24.218 26.116l36.571 27.47-.76 8.34-.125.057m.533.405l35.842 35.705L59.668 70.73l.762-8.341h.007"/><path fill="#507A88" d="M60.405 62.483L96.27 98.17 68.8 61.598l-8.34.761-.056.125m-.432-.105l38.29-38.16-38.529 29.83.233 8.33h.006"/><path fill="#E6776F" d="M59.946 62.284L98.26 24.14l-29.935 38.5-8.332-.232-.047-.123"/><path fill="#507A88" d="M60.458 61.88l-38.29 38.16 38.529-29.83-.233-8.33h-.006"/><path fill="#E6776F" d="M60.486 61.974l-38.314 38.143L52.105 61.62l8.332.232.049.122"/></g></svg>