<svg width="120" height="120" viewBox="0 0 120 120" xmlns="http://www.w3.org/2000/svg"><g fill="none" fill-rule="evenodd"><path fill="#FFC85F" d="M48.146 7.123h7.123V0h-7.123z"/><path fill="#FFBD3A" d="M55.269 14.245h7.124V7.123h-7.124z"/><path fill="#A2CACC" d="M48.146 21.369h7.123v-7.124h-7.123z"/><path fill="#90C0C2" d="M55.269 21.369h7.124v-7.124h-7.124z"/><path fill="#73B2B4" d="M62.393 21.369h7.123v-7.124h-7.123z"/><path fill="#90C0C2" d="M48.146 28.492h7.123v-7.123h-7.123z"/><path fill="#73B2B4" d="M55.269 28.492h7.124v-7.123h-7.124zm7.124 0h7.123v-7.123h-7.123z"/><path fill="#517582" d="M41.025 35.615h7.121v-7.123h-7.121zm7.121 0h7.123v-7.123h-7.123z"/><path fill="#406876" d="M55.269 35.615h7.124v-7.123h-7.124zm7.124 0h7.123v-7.123h-7.123z"/><path fill="#366171" d="M69.516 35.615h7.122v-7.123h-7.122z"/><path fill="#406876" d="M33.901 42.737h7.124v-7.122h-7.124z"/><path fill="#517582" d="M41.025 42.737h7.121v-7.122h-7.121z"/><path fill="#FFF" d="M48.146 42.737h7.123v-7.122h-7.123z"/><path fill="#517582" d="M55.269 42.737h7.124v-7.122h-7.124z"/><path fill="#406876" d="M62.393 42.737h7.123v-7.122h-7.123zm7.123 0h7.122v-7.122h-7.122z"/><path fill="#366171" d="M76.638 42.737h7.123v-7.122h-7.123z"/><path fill="#406876" d="M26.778 49.86h7.123v-7.123h-7.123z"/><path fill="#517582" d="M33.901 49.86h7.124v-7.123h-7.124z"/><path fill="#FFF" d="M41.025 49.86h7.121v-7.123h-7.121z"/><path fill="#517582" d="M48.146 49.86h7.123v-7.123h-7.123zm7.123 0h7.124v-7.123h-7.124zm7.124 0h7.123v-7.123h-7.123z"/><path fill="#406876" d="M69.516 49.86h7.122v-7.123h-7.122z"/><path fill="#366171" d="M76.638 49.86h7.123v-7.123h-7.123z"/><path fill="#366171" d="M83.761 49.86h7.123v-7.123h-7.123z"/><path fill="#406876" d="M26.778 56.983h7.123V49.86h-7.123z"/><path fill="#517582" d="M33.901 56.983h7.124V49.86h-7.124z"/><path fill="#517582" d="M41.025 56.983h7.121V49.86h-7.121zm7.121 0h7.123V49.86h-7.123zm7.123 0h7.124V49.86h-7.124zm7.124 0h7.123V49.86h-7.123z"/><path fill="#406876" d="M69.516 56.983h7.122V49.86h-7.122zm7.122 0h7.123V49.86h-7.123z"/><path fill="#366171" d="M83.761 56.983h7.123V49.86h-7.123zm-56.983 7.123h7.123v-7.123h-7.123z"/><path fill="#406876" d="M33.901 64.106h7.124v-7.123h-7.124z"/><path fill="#FFF" d="M41.025 64.106h7.121v-7.123h-7.121z"/><path fill="#517582" d="M48.146 64.106h7.123v-7.123h-7.123zm7.123 0h7.124v-7.123h-7.124z"/><path fill="#406876" d="M62.393 64.106h7.123v-7.123h-7.123zm7.123 0h7.122v-7.123h-7.122z"/><path fill="#366171" d="M76.638 64.106h7.123v-7.123h-7.123z"/><path fill="#366171" d="M83.761 64.106h7.123v-7.123h-7.123z"/><path fill="#406876" d="M33.901 71.228h7.124v-7.122h-7.124z"/><path fill="#517582" d="M41.025 71.228h7.121v-7.122h-7.121zm7.121 0h7.123v-7.122h-7.123z"/><path fill="#406876" d="M55.269 71.228h7.124v-7.122h-7.124z"/><path fill="#366171" d="M62.393 71.228h7.123v-7.122h-7.123zm7.123 0h7.122v-7.122h-7.122zm7.122 0h7.123v-7.122h-7.123z"/><path fill="#406876" d="M41.025 78.351h7.121v-7.123h-7.121zm7.121 0h7.123v-7.123h-7.123z"/><path fill="#366171" d="M55.269 78.351h7.124v-7.123h-7.124zm7.124 0h7.123v-7.123h-7.123zm7.123 0h7.122v-7.123h-7.122zm-21.37 7.123h7.123v-7.123h-7.123zm7.123 0h7.124v-7.123h-7.124zm7.124 0h7.123v-7.123h-7.123z"/><path d="M8.303 98.48v4.304H4v12.912h4.303v-12.912h12.913V98.48H8.303zm4.305 8.608v4.305h4.304v4.303h-8.61V120h8.61v-4.304h4.304v-8.608h-8.608zm19.453-4.304h8.609V98.48h-8.609v4.304zm8.609 0v4.305h-8.609v-4.305h-4.304V120h4.304v-8.607h8.609V120h4.303v-17.216H40.67zm27.855-4.304v4.304H64.22v4.304h-4.303v4.305h4.303v-4.305h4.305V120h4.303V98.48h-4.303zm-17.216 0V120h4.303v-12.912h4.305v-4.304h-4.305V98.48h-4.303zm27.958 0V120h12.912v-4.304H83.57v-4.303h8.609v-4.305H83.57v-4.304h8.609V98.48zm19.35 0V120h4.303v-8.607h8.608v-4.305h4.304v-4.304h-4.304v4.304h-8.608v-4.304h8.608V98.48H98.617zm8.607 17.216h4.305v-4.303h-4.305v4.303zm4.304 4.304h4.304v-4.304h-4.304V120z" fill="#FFBD3A"/></g></svg>