<svg width="120" height="120" viewBox="0 0 120 120" xmlns="http://www.w3.org/2000/svg" xmlns:xlink="http://www.w3.org/1999/xlink"><defs><path id="a" d="M0 90.209h119.398V.489H0z"/></defs><g fill="none" fill-rule="evenodd"><path fill="#7EAF80" d="M.394 105.51h119.004V73.612H.394z"/><path fill="#5A935D" d="M.394 89.56h119.004V73.612H.394z"/><g transform="translate(0 15.301)"><path d="M62.449 8.816h-4.633v-6.02A2.31 2.31 0 0 1 60.132.49a2.31 2.31 0 0 1 2.317 2.306v6.02z" fill="#B8BCA9"/><path d="M72.41 25.105H47.855V17.98c0-6.753 5.497-12.226 12.277-12.226 6.781 0 12.278 5.473 12.278 12.226v7.125z" fill="#F8F9F2"/><mask id="b" fill="#fff"><use xlink:href="#a"/></mask><path fill="#B5B5AA" mask="url(#b)" d="M46.659 38.226h26.946v-8.995H46.66z"/><path fill="#D1D1C3" mask="url(#b)" d="M46.659 29.23h26.946v-1.888H46.66z"/><path fill="#EAEAE4" mask="url(#b)" d="M46.659 29.23h26.946v-.766H46.66z"/><path fill="#D1D1C3" mask="url(#b)" d="M47.474 22.869h25.318v-1.89H47.474z"/><path fill="#EAEAE4" mask="url(#b)" d="M47.474 22.869h25.318V22.1H47.474z"/><path fill="#9E9D90" mask="url(#b)" d="M46.659 38.226h6.97v-8.995h-6.97zm19.976 0h6.97v-8.995h-6.97zm-18.78-10.884H72.41v-4.473H47.855z"/><path d="M51.66 26.93h-1.516v-2.047a.756.756 0 1 1 1.515 0v2.047zm2.31 0h-1.516v-2.047c0-.417.339-.755.757-.755.419 0 .758.338.758.755v2.047zm2.308 0h-1.515v-2.047a.756.756 0 0 1 1.515 0v2.047zm2.31 0h-1.516v-2.047c0-.417.34-.755.758-.755s.758.338.758.755v2.047zm2.309 0h-1.515v-2.047c0-.417.339-.755.757-.755.419 0 .758.338.758.755v2.047zm2.31 0H61.69v-2.047c0-.417.34-.755.758-.755s.758.338.758.755v2.047zm2.309 0H64v-2.047a.757.757 0 0 1 1.516 0v2.047zm2.309 0H66.31v-2.047c0-.417.339-.755.758-.755.418 0 .757.338.757.755v2.047zm2.31 0h-1.516v-2.047c0-.417.34-.755.758-.755s.758.338.758.755v2.047z" fill="#777770" mask="url(#b)"/><path fill="#484949" mask="url(#b)" d="M41.411 65.042h7.987v-2.947H41.41zm28.105 0h7.987v-2.947h-7.987z"/><path d="M13.385 24.755h-2.696v-3.503c0-.741.603-1.342 1.348-1.342.744 0 1.348.6 1.348 1.342v3.503z" fill="#B8BCA9" mask="url(#b)"/><path d="M19.182 34.235H4.892V30.09c0-3.93 3.199-7.115 7.145-7.115 3.947 0 7.145 3.185 7.145 7.115v4.146z" fill="#F8F9F2" mask="url(#b)"/><path fill="#B5B5AA" mask="url(#b)" d="M4.196 41.871h15.683v-5.234H4.196z"/><path fill="#D1D1C3" mask="url(#b)" d="M4.196 36.637h15.683v-1.1H4.196z"/><path fill="#EAEAE4" mask="url(#b)" d="M4.196 36.636h15.683v-.446H4.196z"/><path fill="#D1D1C3" mask="url(#b)" d="M4.67 32.933h14.734v-1.099H4.67z"/><path fill="#EAEAE4" mask="url(#b)" d="M4.67 32.933h14.734v-.445H4.67z"/><path fill="#9E9D90" mask="url(#b)" d="M4.196 41.871h4.056v-5.234H4.196zm11.626 0h4.057v-5.234h-4.057zm-10.93-6.334h14.29v-2.604H4.893z"/><path d="M7.106 35.297h-.882v-1.191a.44.44 0 0 1 .882 0v1.191zm1.344 0h-.881v-1.191a.44.44 0 0 1 .88 0v1.191zm1.344 0h-.882v-1.191a.44.44 0 0 1 .882 0v1.191zm1.344 0h-.882v-1.191a.44.44 0 0 1 .882 0v1.191zm1.344 0H11.6v-1.191a.44.44 0 0 1 .882 0v1.191zm1.344 0h-.881v-1.191a.44.44 0 0 1 .88 0v1.191zm1.344 0h-.882v-1.191a.44.44 0 0 1 .882 0v1.191zm1.344 0h-.882v-1.191a.44.44 0 0 1 .882 0v1.191zm1.344 0h-.882v-1.191a.44.44 0 0 1 .882 0v1.191z" fill="#777770" mask="url(#b)"/><path fill="#B9BDB8" mask="url(#b)" d="M1.805 63.421h20.463V43.046H1.805z"/><path fill="#395F4F" mask="url(#b)" d="M0 43.046h22.268v-5.058H0z"/><path fill="#2D473B" mask="url(#b)" d="M0 43.046h22.268v-1.531H0z"/><path fill="#B9BDB8" mask="url(#b)" d="M0 40.898h22.268v-.761H0z"/><path fill="#869383" mask="url(#b)" d="M0 53.615h22.268v-.761H0z"/><path fill="#395F4F" mask="url(#b)" d="M0 63.421h2.625V43.046H0zm7.208 0h1.37V43.046h-1.37zm6.482 0h1.37V43.046h-1.37zm5.953 0h2.625V43.046h-2.625z"/><path fill="#879899" mask="url(#b)" d="M2.624 50.736h4.584V46.61H2.624z"/><path fill="#6E8282" mask="url(#b)" d="M2.624 50.736h4.584v-2.063H2.624z"/><path fill="#879899" mask="url(#b)" d="M8.577 50.736h5.114V46.61H8.577z"/><path fill="#6E8282" mask="url(#b)" d="M8.577 50.736h5.114v-2.063H8.577z"/><path fill="#879899" mask="url(#b)" d="M15.06 50.736h4.583V46.61H15.06z"/><path fill="#6E8282" mask="url(#b)" d="M15.06 50.736h4.583v-2.063H15.06z"/><path fill="#879899" mask="url(#b)" d="M2.624 59.586h4.584v-3.58H2.624z"/><path fill="#6E8282" mask="url(#b)" d="M2.624 59.586h4.584v-1.79H2.624z"/><path fill="#879899" mask="url(#b)" d="M8.577 59.586h5.114v-3.58H8.577z"/><path fill="#6E8282" mask="url(#b)" d="M8.577 59.586h5.114v-1.79H8.577z"/><path fill="#879899" mask="url(#b)" d="M15.06 59.586h4.583v-3.58H15.06z"/><path fill="#6E8282" mask="url(#b)" d="M15.06 59.586h4.583v-1.79H15.06z"/><path fill="#B9BDB8" mask="url(#b)" d="M23.821 59.853h17.59V42.336h-17.59z"/><path fill="#395F4F" mask="url(#b)" d="M22.268 42.336H41.41V37.99H22.268z"/><path fill="#2D473B" mask="url(#b)" d="M22.268 42.336H41.41v-1.315H22.268z"/><path fill="#B9BDB8" mask="url(#b)" d="M22.268 40.49H41.41v-.654H22.268z"/><path fill="#869383" mask="url(#b)" d="M22.268 51.421H41.41v-.653H22.268z"/><path fill="#395F4F" mask="url(#b)" d="M22.268 59.853h2.257V42.336h-2.257zm6.197 0h1.177V42.336h-1.177zm5.574 0h1.176V42.336h-1.176zm5.115 0h2.257V42.336h-2.257z"/><path fill="#879899" mask="url(#b)" d="M24.525 48.101h3.94v-2.784h-3.94z"/><path fill="#6E8282" mask="url(#b)" d="M24.525 48.101h3.94v-1.392h-3.94z"/><path fill="#879899" mask="url(#b)" d="M29.642 48.101h4.396v-2.784h-4.396z"/><path fill="#6E8282" mask="url(#b)" d="M29.642 48.101h4.396v-1.392h-4.396z"/><path fill="#879899" mask="url(#b)" d="M35.215 48.101h3.94v-2.784h-3.94z"/><path fill="#6E8282" mask="url(#b)" d="M35.215 48.101h3.94v-1.392h-3.94z"/><path fill="#879899" mask="url(#b)" d="M24.525 56.872h3.94v-2.664h-3.94z"/><path fill="#6E8282" mask="url(#b)" d="M24.525 56.872h3.94v-1.333h-3.94z"/><path fill="#879899" mask="url(#b)" d="M29.642 56.872h4.396v-2.664h-4.396z"/><path fill="#6E8282" mask="url(#b)" d="M29.642 56.872h4.396v-1.333h-4.396z"/><path fill="#879899" mask="url(#b)" d="M35.215 56.872h3.94v-2.664h-3.94z"/><path fill="#6E8282" mask="url(#b)" d="M35.215 56.872h3.94v-1.333h-3.94z"/><path fill="#484949" mask="url(#b)" d="M22.268 63.014H41.41v-3.161H22.268zM0 66.583h22.268V63.42H0z"/><path d="M105.904 24.755h2.697v-3.503c0-.741-.604-1.342-1.35-1.342-.744 0-1.347.6-1.347 1.342v3.503z" fill="#B8BCA9" mask="url(#b)"/><path d="M100.107 34.235h14.29V30.09c0-3.93-3.198-7.115-7.145-7.115-3.946 0-7.145 3.185-7.145 7.115v4.146z" fill="#F8F9F2" mask="url(#b)"/><path fill="#B5B5AA" mask="url(#b)" d="M99.41 41.871h15.683v-5.234H99.41z"/><path fill="#D1D1C3" mask="url(#b)" d="M99.41 36.637h15.683v-1.1H99.41z"/><path fill="#EAEAE4" mask="url(#b)" d="M99.41 36.636h15.683v-.446H99.41z"/><path fill="#D1D1C3" mask="url(#b)" d="M99.885 32.933h14.734v-1.099H99.885z"/><path fill="#EAEAE4" mask="url(#b)" d="M99.885 32.933h14.734v-.445H99.885z"/><path fill="#9E9D90" mask="url(#b)" d="M111.037 41.871h4.056v-5.234h-4.056zm-11.627 0h4.057v-5.234h-4.056zm.697-6.334h14.29v-2.604h-14.29z"/><path d="M112.183 35.297h.882v-1.191a.44.44 0 0 0-.882 0v1.191zm-1.343 0h.88v-1.191a.44.44 0 0 0-.88 0v1.191zm-1.345 0h.881v-1.191a.44.44 0 0 0-.88 0v1.191zm-1.345 0h.882v-1.191a.44.44 0 0 0-.881 0v1.191zm-1.343 0h.882v-1.191a.44.44 0 0 0-.882 0v1.191zm-1.344 0h.882v-1.191a.44.44 0 0 0-.882 0v1.191zm-1.343 0h.88v-1.191a.44.44 0 0 0-.88 0v1.191zm-1.345 0h.881v-1.191a.44.44 0 0 0-.881 0v1.191zm-1.345 0h.883v-1.191a.44.44 0 0 0-.882 0v1.191z" fill="#777770" mask="url(#b)"/><path fill="#B9BDB8" mask="url(#b)" d="M97.02 63.421h20.463V43.046H97.02z"/><path fill="#395F4F" mask="url(#b)" d="M97.02 43.046h22.269v-5.058H97.02z"/><path fill="#2D473B" mask="url(#b)" d="M97.02 43.046h22.269v-1.531H97.02z"/><path fill="#B9BDB8" mask="url(#b)" d="M97.02 40.898h22.269v-.761H97.02z"/><path fill="#869383" mask="url(#b)" d="M97.02 53.615h22.269v-.761H97.02z"/><path fill="#395F4F" mask="url(#b)" d="M116.664 63.421h2.626V43.046h-2.626zm-5.952 0h1.37V43.046h-1.37zm-6.482 0h1.368V43.046h-1.369zm-7.21 0h2.626V43.046H97.02z"/><path fill="#879899" mask="url(#b)" d="M112.08 50.736h4.584V46.61h-4.583z"/><path fill="#6E8282" mask="url(#b)" d="M112.08 50.736h4.584v-2.063h-4.583z"/><path fill="#879899" mask="url(#b)" d="M105.598 50.736h5.114V46.61h-5.114z"/><path fill="#6E8282" mask="url(#b)" d="M105.598 50.736h5.114v-2.063h-5.114z"/><path fill="#879899" mask="url(#b)" d="M99.646 50.736h4.584V46.61h-4.584z"/><path fill="#6E8282" mask="url(#b)" d="M99.646 50.736h4.584v-2.063h-4.584z"/><path fill="#879899" mask="url(#b)" d="M112.08 59.586h4.584v-3.58h-4.583z"/><path fill="#6E8282" mask="url(#b)" d="M112.08 59.586h4.584v-1.79h-4.583z"/><path fill="#879899" mask="url(#b)" d="M105.598 59.586h5.114v-3.58h-5.114z"/><path fill="#6E8282" mask="url(#b)" d="M105.598 59.586h5.114v-1.79h-5.114z"/><path fill="#879899" mask="url(#b)" d="M99.646 59.586h4.584v-3.58h-4.584z"/><path fill="#6E8282" mask="url(#b)" d="M99.646 59.586h4.584v-1.79h-4.584z"/><path fill="#B9BDB8" mask="url(#b)" d="M77.878 59.853h17.59V42.336h-17.59z"/><path fill="#395F4F" mask="url(#b)" d="M77.878 42.336H97.02V37.99H77.878z"/><path fill="#2D473B" mask="url(#b)" d="M77.878 42.336H97.02v-1.315H77.878z"/><path fill="#B9BDB8" mask="url(#b)" d="M77.878 40.49H97.02v-.654H77.878z"/><path fill="#869383" mask="url(#b)" d="M77.878 51.421H97.02v-.653H77.878z"/><path fill="#395F4F" mask="url(#b)" d="M94.763 59.853h2.257V42.336h-2.257zm-5.116 0h1.177V42.336h-1.177zm-5.573 0h1.177V42.336h-1.177zm-6.196 0h2.257V42.336h-2.257z"/><path fill="#879899" mask="url(#b)" d="M90.824 48.101h3.94v-2.784h-3.94z"/><path fill="#6E8282" mask="url(#b)" d="M90.824 48.101h3.94v-1.392h-3.94z"/><path fill="#879899" mask="url(#b)" d="M85.25 48.101h4.396v-2.784h-4.395z"/><path fill="#6E8282" mask="url(#b)" d="M85.25 48.101h4.396v-1.392h-4.395z"/><path fill="#879899" mask="url(#b)" d="M80.135 48.101h3.939v-2.784h-3.94z"/><path fill="#6E8282" mask="url(#b)" d="M80.135 48.101h3.939v-1.392h-3.94z"/><path fill="#879899" mask="url(#b)" d="M90.824 56.872h3.94v-2.664h-3.94z"/><path fill="#6E8282" mask="url(#b)" d="M90.824 56.872h3.94v-1.333h-3.94z"/><path fill="#879899" mask="url(#b)" d="M85.25 56.872h4.396v-2.664h-4.395z"/><path fill="#6E8282" mask="url(#b)" d="M85.25 56.872h4.396v-1.333h-4.395z"/><path fill="#879899" mask="url(#b)" d="M80.135 56.872h3.939v-2.664h-3.94z"/><path fill="#6E8282" mask="url(#b)" d="M80.135 56.872h3.939v-1.333h-3.94z"/><path fill="#484949" mask="url(#b)" d="M77.878 63.014H97.02v-3.161H77.878zm19.142 3.569h22.269V63.42H97.02z"/><path fill="#BDBBA3" mask="url(#b)" d="M41.412 62.096h36.41V32.791h-36.41z"/><path fill="#C6C4B5" mask="url(#b)" d="M41.412 62.096h36.41v-8.861h-36.41z"/><path fill="#DEE5DC" mask="url(#b)" d="M87.265 67.171h1.55V55.437h-1.55zm-9.054 0h1.55V55.437h-1.55z"/><path fill="#395F4F" mask="url(#b)" d="M69.416 62.096h3.966V32.791h-3.966z"/><path fill="#8E8C7D" mask="url(#b)" d="M69.517 34.218H79.76V32.79H69.517z"/><path d="M76.643 49.827h-.706V42.03a.353.353 0 0 1 .706 0v7.797zm-1.066 0h-.705V42.03a.352.352 0 0 1 .705 0v7.797zm-1.066 0h-.706V42.03a.353.353 0 0 1 .706 0v7.797z" fill="#6E8282" mask="url(#b)"/><path fill="#352C25" mask="url(#b)" d="M74.158 62.096h2.485v-5.207h-2.485z"/><path fill="#DEE5DC" mask="url(#b)" d="M69.947 55.437h18.867v-1.822H69.947z"/><path fill="#8E8C7D" mask="url(#b)" d="M49.399 34.218h20.118V32.79H49.399z"/><path fill="#567A69" mask="url(#b)" d="M49.499 39.836h20.018v-1.847H49.499zm0 5.057h20.018v-1.847H49.499z"/><path fill="#6E8282" mask="url(#b)" d="M50.424 61.14h1.28v-4.087h-1.28zm2.476 0h1.281v-4.087h-1.28zm2.477 0h1.281v-4.087h-1.28zm7.159 0h1.281v-4.087h-1.281zm2.477 0h1.281v-4.087h-1.281zm2.477 0h1.28v-4.087h-1.28z"/><path fill="#352C25" mask="url(#b)" d="M50.423 50.832h1.427v-4.088h-1.427zm2.761 0h1.427v-4.088h-1.427zm2.76 0h1.427v-4.088h-1.427zm2.761 0h1.427v-4.088h-1.427zm2.76 0h1.428v-4.088h-1.428zm2.76 0h1.428v-4.088h-1.428zm2.761 0h1.428v-4.088h-1.428z"/><path fill="#4F443D" mask="url(#b)" d="M50.423 48.176h1.427v-1.432h-1.427zm2.761 0h1.427v-1.432h-1.427zm2.76 0h1.427v-1.432h-1.427zm2.761 0h1.427v-1.432h-1.427zm2.76 0h1.428v-1.432h-1.428zm2.76 0h1.428v-1.432h-1.428zm2.761 0h1.428v-1.432h-1.428z"/><path fill="#352C25" mask="url(#b)" d="M57.371 62.096h4.546v-6.659H57.37z"/><path fill="#395F4F" mask="url(#b)" d="M45.533 62.096h3.965V32.791h-3.965z"/><path fill="#8E8C7D" mask="url(#b)" d="M39.154 34.218h10.244V32.79H39.154z"/><path d="M42.271 49.827h.706V42.03a.352.352 0 0 0-.706 0v7.797zm1.067 0h.705V42.03a.353.353 0 0 0-.705 0v7.797zm1.065 0h.706V42.03a.352.352 0 0 0-.706 0v7.797z" fill="#6E8282" mask="url(#b)"/><path fill="#352C25" mask="url(#b)" d="M42.271 62.096h2.485v-5.207h-2.485z"/><path fill="#DEE5DC" mask="url(#b)" d="M30.1 55.437h18.867v-1.822H30.1zm0 11.734h1.549V55.437H30.1zm9.055 0h1.549V55.437h-1.549zm8.263-2.551h1.55v-9.183h-1.55zm22.548 0h1.55v-9.183h-1.55zm-18.209-.499h1.762V44.893h-1.762zm4.639 0h1.763V44.893h-1.763zm4.639 0h1.763V44.893h-1.763zm4.639 0h1.764V44.893h-1.764z"/><path fill="#8E8C7D" mask="url(#b)" d="M51.757 46.345h1.762v-1.452h-1.762zm4.639 0h1.763v-1.452h-1.763zm4.639 0h1.763v-1.452h-1.763zm4.639 0h1.764v-1.452h-1.764z"/><path d="M52.905 41.198a.03.03 0 0 1 .03-.03h.143a.03.03 0 0 1 .029.03v.319l.271-.336c.005-.006.015-.012.022-.012h.154c.023 0 .035.027.023.045l-.286.356.311.403c.014.018 0 .045-.023.045h-.168a.036.036 0 0 1-.023-.009l-.281-.381v.362a.03.03 0 0 1-.03.029h-.142a.029.029 0 0 1-.03-.029v-.792zm1.212.529l-.092-.2h-.001l-.091.2h.184zm-.5.26l.381-.817a.023.023 0 0 1 .02-.013h.014c.007 0 .016.005.02.013l.38.817c.009.016 0 .031-.019.031h-.136c-.021 0-.032-.007-.043-.03l-.043-.095h-.332l-.044.097a.045.045 0 0 1-.044.028h-.134c-.018 0-.028-.015-.02-.031zm.916-.808c0-.013.01-.022.022-.022h.03l.488.466v-.43c0-.014.01-.025.024-.025h.147c.01 0 .023.011.023.024v.818c0 .01-.012.02-.023.02h-.02a.035.035 0 0 1-.016-.005l-.482-.482h-.001v.452c0 .013-.01.024-.023.024h-.146a.024.024 0 0 1-.023-.024v-.816zm1.053.168h-.174a.023.023 0 0 1-.023-.023v-.132c0-.013.01-.024.023-.024h.54c.014 0 .024.011.024.024v.132c0 .012-.01.023-.023.023h-.175v.648c0 .013-.01.024-.022.024h-.147a.024.024 0 0 1-.023-.024v-.648zm.883.49c.134 0 .244-.11.244-.242a.245.245 0 0 0-.244-.244.245.245 0 0 0-.243.244c0 .132.11.242.243.242m0-.68a.437.437 0 1 1 0 .874.434.434 0 0 1-.438-.436c0-.243.194-.438.438-.438m.958.375c.05 0 .092-.047.092-.097a.093.093 0 0 0-.092-.092h-.18v.189h.18zm-.372-.34c0-.012.01-.023.024-.023h.364c.146 0 .266.118.266.262 0 .112-.074.201-.18.244l.167.309c.009.016 0 .034-.02.034h-.164a.024.024 0 0 1-.019-.01l-.162-.323h-.085v.31c0 .013-.01.023-.023.023h-.144c-.014 0-.024-.01-.024-.022v-.804zm1.011.006c-.005-.017.005-.03.021-.03h.144c.01 0 .02.01.022.017l.105.413h.004l.19-.428a.022.022 0 0 1 .02-.013h.022c.012 0 .018.005.02.013l.19.428h.005l.104-.413a.027.027 0 0 1 .023-.016h.142c.017 0 .027.012.023.029l-.23.816a.024.024 0 0 1-.023.017h-.02a.022.022 0 0 1-.02-.013l-.224-.497h-.004l-.222.497a.023.023 0 0 1-.02.013h-.02a.024.024 0 0 1-.022-.017l-.23-.816zm1.521.529l-.093-.2-.092.2h.185zm-.501.26l.382-.817a.022.022 0 0 1 .02-.013h.013c.007 0 .016.005.02.013l.382.817c.007.016-.002.031-.021.031h-.135c-.022 0-.032-.007-.044-.03l-.043-.095h-.331l-.045.097a.045.045 0 0 1-.044.028h-.133c-.019 0-.03-.015-.021-.031zm.916-.795c0-.013.01-.023.023-.023h.146c.012 0 .023.01.023.023v.648h.29c.013 0 .024.011.024.024v.132c0 .012-.01.023-.024.023h-.459a.024.024 0 0 1-.023-.023v-.804zm.624 0c0-.013.01-.023.023-.023h.147c.011 0 .023.01.023.023v.804a.024.024 0 0 1-.023.023h-.147a.024.024 0 0 1-.023-.023v-.804zm.402.006a.03.03 0 0 1 .03-.03h.142a.03.03 0 0 1 .03.03v.319l.27-.336a.036.036 0 0 1 .023-.012h.154c.024 0 .035.027.022.045l-.285.356.31.403c.015.018 0 .045-.023.045h-.167a.038.038 0 0 1-.023-.009l-.282-.381v.362a.03.03 0 0 1-.029.029h-.142a.029.029 0 0 1-.03-.029v-.792zm1.179.639c.135 0 .245-.11.245-.242a.245.245 0 0 0-.245-.244.244.244 0 0 0-.242.244c0 .132.11.242.242.242m0-.68a.436.436 0 1 1 0 .874.434.434 0 0 1-.438-.436c0-.243.194-.438.438-.438m.692.19h-.174a.023.023 0 0 1-.023-.023v-.132c0-.013.01-.024.023-.024h.54c.014 0 .024.011.024.024v.132c0 .012-.01.023-.023.023h-.174v.648a.024.024 0 0 1-.023.024h-.147a.024.024 0 0 1-.023-.024v-.648zm.86.38l-.093-.2h-.001l-.092.2h.186zm-.502.26l.382-.817a.023.023 0 0 1 .021-.013h.013c.007 0 .016.005.02.013l.381.817c.008.016-.002.031-.02.031h-.136c-.021 0-.032-.007-.043-.03l-.043-.095H63.5l-.044.097a.044.044 0 0 1-.044.028h-.133c-.02 0-.03-.015-.022-.031zm1.488-.142a.087.087 0 0 0 .087-.088c0-.05-.051-.085-.1-.085h-.098v.173h.11zm-.016-.331c.047 0 .086-.04.086-.088 0-.048-.04-.082-.086-.082h-.095v.17h.095zm-.285-.322c0-.013.01-.023.023-.023h.284c.144 0 .263.098.263.226 0 .093-.085.161-.142.192.064.026.163.085.163.198 0 .136-.12.234-.265.234h-.303a.024.024 0 0 1-.023-.024v-.803zm.746 0c0-.013.012-.023.023-.023h.147c.012 0 .023.01.023.023v.804c0 .012-.01.023-.023.023h-.147a.024.024 0 0 1-.023-.023v-.804zm.487-.016c0-.011.012-.019.021-.019h.02c.007 0 .017.004.021.011l.283.525h.002l.283-.525c.004-.007.015-.01.02-.01h.02c.01 0 .021.007.022.018l.138.816c.003.016-.008.026-.023.026h-.143c-.012 0-.023-.008-.023-.019l-.056-.376h-.002l-.205.395a.03.03 0 0 1-.021.013h-.022a.025.025 0 0 1-.02-.013l-.207-.395h-.002l-.054.376a.023.023 0 0 1-.023.02h-.144c-.015 0-.026-.01-.023-.027l.138-.816zm1.378.551l-.093-.2h-.001l-.09.2h.184zm-.502.26l.382-.817a.023.023 0 0 1 .021-.013h.013c.008 0 .016.005.02.013l.381.817c.008.016-.002.031-.02.031h-.136c-.021 0-.031-.007-.043-.03l-.043-.095h-.332l-.044.097a.044.044 0 0 1-.044.028h-.133c-.019 0-.029-.015-.022-.031z" fill="#2D473B" mask="url(#b)"/><path fill="#DEE5DC" mask="url(#b)" d="M60.105 80.207h1.03V41.04h-1.03z"/><path fill="#B4B7B3" mask="url(#b)" d="M60.62 80.207h.514V41.04h-.515z"/><path fill="#44392F" mask="url(#b)" d="M52.69 81.242h16.893V79.88H52.69z"/><path fill="#EAF9EA" mask="url(#b)" d="M61.135 48.978h11.96v-7.939h-11.96z"/><path fill="#F95858" mask="url(#b)" d="M61.135 45.312h11.96V41.04h-11.96z"/></g></g></svg>