<svg width="480" height="360" viewBox="0 0 480 360" xmlns="http://www.w3.org/2000/svg"><g fill="none" fill-rule="evenodd"><path fill="#FFF0CA" d="M0 362h480V0H0z"/><path d="M57.323 102.673c0 5.43-4.4 9.832-9.828 9.832-5.43 0-9.83-4.402-9.83-9.832 0-5.427 4.4-9.828 9.83-9.828 5.428 0 9.828 4.4 9.828 9.828" fill="#FF0"/><path fill="#302A34" d="M31.705 224.763h3.475V102.449h-3.475zm-5.311 0c-1.93 0-3.505 2.085-3.623 4.864h34.992c-.118-2.779-1.692-4.864-3.622-4.864H26.394z"/><path d="M64.368 102.45v-1.226c0-4.744-3.82-8.505-8.563-8.505H31.36c-4.743 0-8.69 3.761-8.69 8.505v1.225h41.698z" fill="#FED859"/><path fill="#302A34" d="M84.423 229.628H81.09v-10.135h5.345zm116.447 0h3.237v-10.135h-5.25z"/><path d="M214.295 170.17h-12.399v44.64c0 1.071-.546 1.305-1.615 1.305H84.754c-1.07 0-1.667-.234-1.667-1.304v-44.64H70.742c-1.112 0-2.52.182-2.52 1.294v52.327c0 1.112 1.408 1.782 2.52 1.782h143.553c1.109 0 2.465-.67 2.465-1.782v-52.327c0-1.112-1.356-1.294-2.465-1.294" fill="#302A34"/><path d="M141.808 195.506c0 1.11-.973 1.752-2.085 1.752H86.71c-1.11 0-2.332-.641-2.332-1.752v-34.828c0-1.11 1.221-1.933 2.332-1.933h53.013c1.112 0 2.085.822 2.085 1.933v34.828zm0 4.44c0-1.111-1.078-2.012-2.2-2.012h-53.2c-1.122 0-2.03.9-2.03 2.012v12.19c0 1.112.908 2.014 2.03 2.014h53.2c1.122 0 2.2-.902 2.2-2.013v-12.191z" fill="#FED859"/><path d="M141.808 210.081c0-1.111-1.078-2.013-2.2-2.013h-53.2c-1.122 0-2.03.902-2.03 2.013v2.732c0 1.11.908 2.012 2.03 2.012h53.2c1.122 0 2.2-.901 2.2-2.012v-2.732z" fill="#DDB926"/><path d="M200.868 195.506c0 1.11-.973 1.752-2.085 1.752H145.77c-1.11 0-2.333-.641-2.333-1.752v-34.828c0-1.11 1.223-1.933 2.333-1.933h53.013c1.112 0 2.085.822 2.085 1.933v34.828zm0 4.44c0-1.111-1.079-2.012-2.2-2.012h-53.2c-1.122 0-2.03.9-2.03 2.012v12.19c0 1.112.908 2.014 2.03 2.014h53.2c1.121 0 2.2-.902 2.2-2.013v-12.191z" fill="#FED859"/><path d="M200.868 210.081c0-1.111-1.079-2.013-2.2-2.013h-53.2c-1.122 0-2.03.902-2.03 2.013v2.732c0 1.11.908 2.012 2.03 2.012h53.2c1.121 0 2.2-.901 2.2-2.012v-2.732z" fill="#DDB926"/><path d="M115.814 199.387c4.108 2.142-25.056 11.316-22.914 7.208-2.142 4.108-11.316-25.056-7.208-22.914-4.108-2.142 25.056-11.315 22.914-7.207 2.142-4.107 11.316 25.055 7.208 22.913" fill="#F7931E"/><path d="M115.814 199.387c4.108 2.142-25.056 11.316-22.914 7.208-2.142 4.108-11.316-25.056-7.208-22.914-4.108-2.142 25.056-11.315 22.914-7.207 2.142-4.107 11.316 25.055 7.208 22.913" fill="#000"/><path d="M194.565 203.46c2.86 3.645-27.491-.018-23.849-2.877-3.642 2.859.02-27.492 2.88-23.848-2.86-3.644 27.492.018 23.847 2.878 3.645-2.86-.018 27.492-2.878 23.847" fill="#22B573"/><path d="M194.565 203.46c2.86 3.645-27.491-.018-23.849-2.877-3.642 2.859.02-27.492 2.88-23.848-2.86-3.644 27.492.018 23.847 2.878 3.645-2.86-.018 27.492-2.878 23.847" fill="#000"/><path d="M129.192 200.466s-5.326 1.548-13.953 2.425c-8.628.878-13.27.345-13.27.345l-1.216-11.945s4.22-1.436 13.068-2.336c8.848-.9 14.156-.434 14.156-.434l1.215 11.945z" fill="#FFBD32"/><path d="M183.87 203.616s-5.536.3-14.137-.804c-8.602-1.102-13.003-2.675-13.003-2.675l1.526-11.909s4.435-.44 13.257.69c8.822 1.132 13.885 2.789 13.885 2.789l-1.527 11.91z" fill="#ED1C24"/><path fill="#4E1F13" d="M165.303 123.506h47.458V80.568h-47.458z"/><path fill="#FFFDF4" d="M169.822 120.116h39.55v-36.16h-39.55z"/><path fill="#FED356" d="M173.212 115.596h32.769V88.477h-32.769z"/><path fill="#F34B6E" d="M173.212 102.037h15.82V87.348h-15.82z"/><path fill="#FEDD76" d="M189.031 102.037h16.95V87.348h-16.95zm-15.819 14.689h15.82v-14.689h-15.82z"/><path fill="#4E1F13" d="M189.031 116.726h16.95v-14.689h-16.95z"/><path d="M115.403 107.97V0" stroke="#867E55" stroke-width=".6"/><path d="M119.561 118.777a4.14 4.14 0 0 1-4.14 4.139 4.14 4.14 0 1 1 4.141-4.14" fill="#FF0"/><path fill="#C02B2E" d="M105.592 115.648h20.473v-2.56h-20.473z"/><path fill="#E56835" d="M107.298 118.208h16.208v-2.56h-16.208z"/><path fill="#E3C82F" d="M109.858 120.766h11.09v-2.559h-11.09z"/><path d="M118.815 106.264h-5.972a8.1 8.1 0 0 0-7.137 4.265h20.247a8.105 8.105 0 0 0-7.138-4.265m7.138 4.266h-22.921v2.56h25.592v-2.56z" fill="#4E1F13"/><path fill="#F34B6E" d="M239.937 175.31h2.882v-16.716h-2.882z"/><path fill="#FEDD76" d="M245.7 175.31h3.459v-19.021h-3.458z"/><path fill="#C02B2E" d="M242.819 175.31h2.882v-14.411h-2.882z"/><path fill="#8C6239" d="M233.207 175.31h2.575l-.858-16.716h-2.576z"/><path fill="#4E1F13" d="M229.562 175.31h3.458v-19.021h-3.458z"/><path fill="#2FC1C7" d="M235.782 175.31h3.435l.859-14.411h-3.436z"/><path fill="#F34B6E" d="M236.936 227.353h2.586V212.35h-2.586z"/><path fill="#FEDD76" d="M242.108 227.353h3.104v-17.07h-3.104z"/><path fill="#7AC943" d="M239.522 227.353h2.586V215.5h-2.586z"/><path fill="#00A99D" d="M230.896 227.353h2.312l-.77-15.002h-2.312z"/><path fill="#4E1F13" d="M227.624 227.353h3.105v-17.07h-3.105z"/><path fill="#B83230" d="M233.207 227.353h3.081l.771-12.933h-3.082z"/><path fill="#662D91" d="M251.158 227.353h2.27v-13.168h-2.27z"/><path fill="#7AC943" d="M255.698 227.353h2.726v-14.984h-2.726z"/><path fill="#C02B2E" d="M253.429 227.353h2.27V216h-2.27z"/><path fill="#8C6239" d="M245.857 227.353h2.029l-.675-13.168h-2.029z"/><path fill="#2FC1C7" d="M247.886 227.353h2.704l.678-11.352h-2.706z"/><path d="M261.994 141.635s-2.012-16.42-5.07-19.158" stroke="#39B54A" stroke-width=".6"/><path d="M257.147 125.039c1.407.553 2.101 2.139 2.101 2.139s-1.588.695-2.995.143c-1.408-.552-2.1-2.14-2.1-2.14s1.586-.693 2.994-.142m1.287 5.474c1.407.55 2.101 2.138 2.101 2.138s-1.587.694-2.995.143c-1.407-.551-2.1-2.138-2.1-2.138s1.587-.695 2.994-.143m.967 5.474c1.407.551 2.1 2.138 2.1 2.138s-1.588.694-2.993.142c-1.408-.552-2.102-2.14-2.102-2.14s1.587-.692 2.995-.14m-.628-12.492c-.532 1.414.183 2.993.183 2.993s1.577-.715 2.11-2.13c.533-1.414-.181-2.992-.181-2.992s-1.578.715-2.112 2.129m-3.319-1.345c.66.72 1.778.766 1.778.766s.048-1.117-.613-1.835c-.66-.72-1.777-.768-1.777-.768s-.048 1.117.612 1.836" fill="#2CAB61"/><path d="M256.765 121.522c-.112.691.356 1.342.356 1.342s.651-.468.763-1.158c.113-.69-.354-1.342-.354-1.342s-.652.468-.765 1.158" fill="#259954"/><path d="M261.28 128.882c-1.035 1.101-.982 2.834-.982 2.834s1.733-.054 2.769-1.154c1.034-1.102.98-2.834.98-2.834s-1.73.054-2.766 1.154m.966 4.508c-1.037 1.1-.984 2.832-.984 2.832s1.733-.052 2.768-1.153c1.035-1.102.984-2.833.984-2.833s-1.732.053-2.768 1.153m3.143 3.129c-.752.799-.713 2.056-.713 2.056s1.255-.04 2.007-.838c.75-.8.712-2.056.712-2.056s-1.255.039-2.007.838m-1.602 1.288c.75.798.712 2.054.712 2.054s-1.256-.039-2.007-.837c-.752-.799-.714-2.055-.714-2.055s1.256.039 2.009.838" fill="#2CAB61"/><path d="M264.57 141.714s.12-5.876.724-8.088" stroke="#39B54A" stroke-width=".6"/><path d="M265.877 132.758l.018.011c-.011.038-.025.076-.034.115-.003 0-.006 0-.007-.002a.834.834 0 0 0 .023-.124m1.874-.73c.047-.136.078-.281.078-.434a1.325 1.325 0 1 0-2.635-.2 1.316 1.316 0 0 0-.624-.163 1.326 1.326 0 1 0-.318 2.614 1.34 1.34 0 0 0-.043.324 1.324 1.324 0 1 0 2.612.317c.103.027.213.045.325.045a1.324 1.324 0 1 0 .605-2.504" fill="#ECCC2D"/><path d="M266.33 132.76a.452.452 0 1 1-.904 0 .452.452 0 0 1 .904 0" fill="#C02B2E"/><path d="M265.558 138.954c-.925.588-1.195 1.816-1.195 1.816s1.227.271 2.152-.32c.923-.59 1.194-1.817 1.194-1.817s-1.225-.27-2.151.32" fill="#2CAB61"/><path fill="red" d="M257.4 149.4h9.6V141h-9.6z"/><path fill="#C1272D" d="M256.8 142.2h11.4V141h-11.4z"/><path fill="#302A34" d="M223.43 229.628h3.373v-80.044h-3.373zm47.705 0h3.035v-80.044h-3.035z"/><path fill="#302A34" d="M224.149 229.628h50.022v-3.372h-50.022zm0-51.958h50.022v-2.36h-50.022zm0 25.727h50.022v-2.361h-50.022zm-.719-51.452h50.74v-2.361h-50.74z"/><path fill="#E36A36" d="M253.426 182.627l1.805 9.266v9.078h3.293v-9.132l1.505-9.212z"/><path d="M269.464 195.997c0-1.788-1.063-3.345-2.474-4.187v-1.187h-4.703v1.148c-1.412.833-2.538 2.412-2.538 4.226 0 2.226 1.597 4.096 3.478 4.668v.306h2.822v-.323c1.881-.591 3.415-2.449 3.415-4.651" fill="#B83230"/><path fill="#EFCA30" d="M248.949 193.446h-6.327l3.673 3.828v3.697h4.703v-3.697l3.845-3.828z"/><path fill="#302A34" d="M329.45 194.012h3.036v-72.545h-3.036z"/><path fill="#F34B6E" d="M289.72 145.937h2.882V129.22h-2.882z"/><path fill="#FEDD76" d="M295.483 145.937h3.46v-19.021h-3.46z"/><path fill="#C02B2E" d="M292.602 145.937h2.882v-14.411h-2.882z"/><path fill="#8C6239" d="M282.99 145.936h2.575l-.858-16.716h-2.576z"/><path fill="#2FC1C7" d="M285.565 145.936H289l.858-14.41h-3.434z"/><path fill="#0071BC" d="M307.263 145.815l-2.874.202-1.167-16.676 2.875-.201z"/><path fill="#FFD80B" d="M311.672 145.537l-2.83.542-2.708-14.154 2.829-.542z"/><path fill="#2FC1C7" d="M299.146 145.936h3.435l.858-14.41h-3.435z"/><path fill="#F34B6E" d="M320.642 170.41h2.883v-16.716h-2.883z"/><path fill="#DBB03B" d="M326.406 170.41h3.459v-19.02h-3.459z"/><path fill="#72BDC5" d="M323.525 170.41h2.882V156h-2.882z"/><path fill="#8C6239" d="M313.913 170.41h2.575l-.858-16.716h-2.575z"/><path fill="#1B1464" d="M310.267 170.41h3.459v-19.02h-3.46z"/><path fill="#39B54A" d="M316.488 170.41h3.434l.859-14.41h-3.435z"/><path fill="#2FC1C7" d="M284.955 193.922h15.346v-2.194h-15.346z"/><path fill="#93278F" d="M286.608 191.728h11.628v-1.83h-11.628z"/><path fill="#4E1F13" d="M285.395 189.826h15.348v-2.195h-15.348z"/><path fill="#302A34" d="M278.758 194.012h3.373v-70.33h-3.373z"/><path fill="#302A34" d="M278.758 172.768h50.692v-2.361h-50.692zm0-24.471h50.692v-2.36h-50.692zm0-24.47h50.692v-2.36h-50.692zm0 106.206h53.728v-36.021h-53.728z"/><path fill="#353A2D" d="M278.758 230.033h53.728v-36.021h-53.728z"/><path fill="#FED859" d="M281.636 226.8h47.814v-29.557h-47.814z"/><path fill="#413C44" d="M314.4 214.2h9v-2.4h-9z"/><path fill="#3E5A56" d="M321.962 193.8h-4.683l-2.69-7.8h10.062z"/><path fill="#50756F" d="M314.4 188.4h10.2V186h-10.2z"/><path d="M309.166 188.21s-.765-6.245-1.929-7.287" stroke="#39B54A" stroke-width=".5"/><path d="M307.322 181.898c.536.21.8.813.8.813s-.605.264-1.14.054c-.536-.21-.799-.813-.799-.813s.603-.264 1.139-.054m.49 2.082c.534.21.799.813.799.813s-.604.265-1.138.055c-.537-.21-.8-.814-.8-.814s.603-.264 1.14-.054m.367 2.083c.534.21.798.813.798.813s-.604.264-1.139.054c-.535-.21-.799-.813-.799-.813s.603-.265 1.14-.054m-.24-4.753c-.202.538.07 1.139.07 1.139s.6-.272.802-.81c.204-.539-.069-1.139-.069-1.139s-.6.272-.802.81m-1.264-.512c.252.274.677.292.677.292s.018-.425-.233-.699c-.251-.274-.676-.291-.676-.291s-.018.424.232.698" fill="#2CAB61"/><path d="M307.177 180.56c-.043.262.135.51.135.51s.248-.178.29-.44c.043-.263-.135-.51-.135-.51s-.248.177-.29.44" fill="#259954"/><path d="M308.894 183.36c-.392.419-.373 1.078-.373 1.078s.66-.02 1.053-.44c.395-.419.373-1.077.373-1.077s-.659.02-1.053.439m.368 1.714c-.394.419-.374 1.078-.374 1.078s.66-.02 1.053-.44c.394-.418.374-1.076.374-1.076s-.66.02-1.053.438" fill="#2CAB61"/><path d="M310.188 187.968s.39-3.19.986-3.723" stroke="#39B54A" stroke-width=".5"/><path d="M311.13 184.743c-.273.108-.408.416-.408.416s.309.134.582.027c.273-.107.408-.415.408-.415s-.309-.135-.582-.028" fill="#2CAB61"/><path d="M310.88 185.807c-.273.107-.408.414-.408.414s.308.136.581.028c.274-.106.409-.414.409-.414s-.309-.136-.582-.028" fill="#2C8661"/><path d="M310.693 186.87c-.274.108-.41.416-.41.416s.31.135.583.028c.273-.108.408-.416.408-.416s-.308-.135-.581-.027" fill="#2CAB61"/><path d="M310.814 184.443c.103.274-.035.582-.035.582s-.306-.14-.41-.414c-.103-.276.035-.581.035-.581s.306.138.41.413" fill="#2C8661"/><path d="M311.46 184.18c-.129.141-.346.15-.346.15s-.01-.217.119-.356c.128-.14.345-.15.345-.15s.01.217-.118.357" fill="#2CAB61"/><path d="M311.204 184.06c.022.134-.069.26-.069.26s-.126-.09-.148-.225c-.022-.134.07-.26.07-.26s.126.09.147.224" fill="#259954"/><path d="M310.327 185.49c.201.214.19.55.19.55s-.336-.01-.537-.224c-.2-.214-.191-.55-.191-.55s.336.01.538.224" fill="#2C8661"/><path d="M310.139 186.366c.202.213.19.55.19.55s-.336-.011-.536-.224c-.201-.214-.192-.55-.192-.55s.338.01.538.224" fill="#2CAB61"/><path fill="#FF7543" d="M307.408 194.012h3.904l.957-4.67h-5.817z"/><path fill="#BF5832" d="M311.558 187.786h-5.731v1.557h6.847v-1.556z"/><path d="M319.056 182.628l.386.217c.114.066.231.147.356.195.218.082.007.396-.151.227-.105-.11-.243-.196-.36-.287l-.306-.239c-.071-.054-.002-.157.075-.113zm.887 2.086c-.08.125-.274.174-.4.244a1.534 1.534 0 0 0-.405.296c-.047.051-.114-.023-.086-.075a1.24 1.24 0 0 1 .332-.38c.117-.094.273-.264.425-.288a.133.133 0 0 1 .134.203zm.604-3.156c.076-.14.302.012.203.135-.198.247-.373.513-.552.772-.03.044-.1.01-.083-.04.108-.31.275-.58.432-.867zm.384 3.328c.054.05.14.092.172.159.04.083.008.167-.065.215-.146.095-.315-.096-.39-.203a1.456 1.456 0 0 1-.18-.369c-.035-.105.102-.229.18-.12.082.115.179.224.283.318zm-1.632 1.239h2.61a8.34 8.34 0 0 0 .147-.93c-.23-.018-.46-.088-.681-.105-.05-.004-.076-.067-.076-.11-.005-.04.016-.09.067-.095.233-.018.48-.058.726-.076.013-.139.026-.276.04-.407l.022-.253c-.074-.007-.147-.017-.216-.023l-.563-.054a.08.08 0 0 1-.054-.028.112.112 0 0 1-.022-.055c-.002-.04.019-.079.068-.084a186.593 186.593 0 0 0 .811-.074c.033-.49.045-.983.031-1.474-.076 0-.156-.01-.237-.011a3.134 3.134 0 0 0-.57.04c-.143.025-.175-.178-.041-.218.195-.057.393-.094.596-.111.084-.007.163-.019.24-.019a13.517 13.517 0 0 0-.058-.781 5.445 5.445 0 0 0-.145-.795c-.1.088-.255.126-.379.157-.18.046-.362.078-.544.107-.086.014-.138-.12-.05-.15.173-.06.348-.116.515-.194.124-.057.25-.164.384-.183-.188-.606-.493-1.194-.936-1.535a2.37 2.37 0 0 1-.376.401c-.052.045-.14-.024-.094-.082a3.78 3.78 0 0 0 .303-.433 1.35 1.35 0 0 0-.727-.18 3.039 3.039 0 0 1-.098.43c-.027.088-.174.06-.16-.033.02-.124.03-.25.034-.374a1.95 1.95 0 0 0-.722.29c.088.09.18.18.251.284.07.017.139.044.197.08.14.09.232.231.278.389a.645.645 0 0 1-.058.464.646.646 0 0 1-.359.3c.01.011.018.018.026.029.186.223.22.49.178.763.042.032.087.062.133.087.058.033.024.138-.044.126a1.262 1.262 0 0 1-.15-.04c-.049.063-.126.114-.194.118-.286.017-.55-.028-.71-.29a.864.864 0 0 1-.105-.383c-.041.066-.09.129-.137.184-.149.182-.316.33-.533.429a.254.254 0 0 1-.058.018l-.009.045c.191.062.374.15.51.273.073.068-.017.199-.107.16-.134-.059-.25-.155-.377-.227a1.677 1.677 0 0 0-.057-.029c-.066.389-.11.757-.146 1.066-.021.184-.036.367-.05.55.163.022.325.061.463.128.128.061.11.3-.056.266-.145-.028-.283-.08-.423-.123-.019.39-.02.78-.004 1.172.204.022.41.04.611.076.13.022.162.225.013.246a1.52 1.52 0 0 1-.61-.068c.008.14.019.328.03.467.026.274.058.58.122.882h1.53z" fill="#009245"/><path d="M318.57 179.473c.016-.029.03-.058.049-.086a.949.949 0 0 1 .257-.291.889.889 0 0 1 .187-.1 2.199 2.199 0 0 0-.102-.17c-.185.161-.341.36-.476.585.018.045.035.091.048.14l.037-.078" fill="#E6DACF"/><path d="M318.227 184.844c.15-.02.116-.224-.013-.246-.201-.035-.407-.054-.611-.076-.123-.015-.247-.03-.37-.05-.1-.018-.129.14-.036.17.134.044.276.093.42.134.202.057.41.095.61.068m-.141-1.637a1.574 1.574 0 0 0-.462-.129 2.01 2.01 0 0 0-.308-.019c-.145.004-.167.218-.017.23.108.007.209.03.308.061.14.043.278.094.423.123.167.034.184-.204.056-.266m.167-1.487c.09.038.18-.093.107-.161a1.412 1.412 0 0 0-.51-.274 3.226 3.226 0 0 0-.458-.109c-.048-.008-.06.066-.017.081.154.057.3.129.444.206l.057.029c.128.071.242.168.377.227m-.133-2.05a1.268 1.268 0 0 0-.063-.094c0 .019.005.038.01.056l.053.038m1.164-.714a.472.472 0 0 1 .112.012c-.071-.104-.164-.195-.251-.284l-.011-.01a10.162 10.162 0 0 0-.468-.437c-.069-.06-.173.024-.11.096.128.144.255.288.371.441l.034.053c.036.054.07.112.103.17a.65.65 0 0 1 .22-.041m2.091 6.148c.221.016.452.118.682.118h.004c.165 0 .33-.032.49-.05.186-.017.157-.32-.017-.338a2.638 2.638 0 0 0-.442-.013c-.245.018-.493.05-.727.068-.046.003-.066.063-.066.102 0 .042.027.108.076.113m-.008-1.197c-.05.004-.07.044-.067.083.001.02.01.04.021.055a.078.078 0 0 0 .054.028l.563.053c.068.006.142.017.216.023a.92.92 0 0 0 .315-.013c.133-.036.177-.246.02-.288a.917.917 0 0 0-.31-.016l-.185.016-.627.059m-.006-1.737c-.134.039-.102.241.04.217.191-.032.38-.042.571-.04.08.001.16.011.237.01.07 0 .14-.009.208-.044.08-.04.107-.178.014-.224a.487.487 0 0 0-.233-.05c-.077 0-.157.012-.241.018a3.015 3.015 0 0 0-.596.113m-.341-1.594c-.087.031-.035.165.05.151a6.32 6.32 0 0 0 .545-.107c.124-.031.28-.07.379-.157a.296.296 0 0 0 .063-.07c.06-.097-.02-.207-.127-.194l-.01.001c-.134.02-.26.126-.385.183-.165.078-.341.134-.514.193m-.413-1.51a2.37 2.37 0 0 0 .376-.401c.094-.123.18-.253.263-.388.1-.162-.163-.295-.235-.116a2.758 2.758 0 0 1-.195.39 3.78 3.78 0 0 1-.303.433c-.045.057.042.126.094.082m-.616-.265a3.07 3.07 0 0 0 .098-.43l.007-.04c.027-.173.064-.386.014-.556-.03-.103-.189-.138-.225-.016-.044.155-.016.32-.015.48 0 .052-.002.104-.005.155a3.13 3.13 0 0 1-.033.374c-.015.093.132.121.16.034m-.707 4.179c.118.091.256.178.361.287.158.17.369-.145.152-.227-.125-.048-.243-.13-.357-.195l-.386-.217c-.077-.044-.146.06-.075.114.101.08.203.158.305.237m.098 1.821a1.24 1.24 0 0 0-.332.38c-.028.051.04.125.086.074.114-.125.258-.215.406-.296.126-.07.32-.12.4-.245a.133.133 0 0 0-.135-.202c-.152.024-.308.194-.425.289m1.086-.112c.043.13.099.256.179.369.074.106.243.298.388.203.074-.048.107-.133.066-.215-.032-.068-.118-.11-.172-.159a2.003 2.003 0 0 1-.282-.318c-.08-.11-.216.015-.18.12m-.873-3.522c.05.016.1.03.15.039.068.013.103-.094.043-.126a1.108 1.108 0 0 1-.132-.086l-.015.084a.24.24 0 0 1-.046.089m.602 1.3c.18-.26.354-.526.552-.773.099-.123-.127-.275-.203-.136-.157.288-.324.558-.432.869-.016.05.053.082.083.04" fill="#564810"/><path d="M318.12 179.669c.015.027.03.054.043.082l-.032-.024a.23.23 0 0 1-.074-.152c.022.03.043.062.063.094m.52.12c.476 0 .418.74-.057.74-.476 0-.42-.74.056-.74m-.188 1.006a1.67 1.67 0 0 0 .136-.185.88.88 0 0 0 .105.383c.16.262.424.307.71.29.069-.004.146-.055.194-.117a.236.236 0 0 0 .046-.09l.015-.083c.043-.274.008-.54-.178-.764l-.026-.028a.647.647 0 0 0 .359-.3.649.649 0 0 0 .058-.465.673.673 0 0 0-.278-.388.621.621 0 0 0-.308-.093.656.656 0 0 0-.22.04.889.889 0 0 0-.188.1.949.949 0 0 0-.257.293c-.019.027-.033.057-.049.085l-.037.077a1.446 1.446 0 0 0-.368-.633.28.28 0 0 0-.434.03c-.218.298-.345.642-.181.996a.88.88 0 0 0 .188.255.717.717 0 0 0-.081.05c-.247.176-.206.526-.133.777.046.155.182.252.335.216a.303.303 0 0 0 .058-.018c.217-.098.384-.247.534-.428" fill="#FF7543"/><path d="M318.583 180.528c.475 0 .533-.739.056-.739-.475 0-.532.739-.056.739" fill="#FFD80B"/><path fill="#527872" d="M284.684 157.706l-.384-1.373.34 2.501h.121zm-.161-2.272l-.626-4.552-.327.035.384 2.788.606 2.225zm1.341-3.739l-.327.051.332 7.088h.328z"/><path fill="#B6483D" d="M288.904 158.834l1.547-6.376-.321-.1-1.539 6.326-.006.15zm-1.155-2.749l.082-5.4-.327.052-.124 8.097h.018z"/><path fill="#FF7543" d="M285.01 157.589l-.375-5.102-.328.018.216 2.929.036.496zm-.326.194l.077 1.051h.209zm6.906-3.559l-.304-.07-2.109 4.68h.354z"/><path fill="#A6C92E" d="M287.728 158.834l.922-7.115-.326-.072-.575 4.457-.35 2.73zm-1.045-4.384l-.327.058.345 4.326h.329zm1.902 4.384l.006-.169.633-8.299-.327.038-.642 8.43zm-3.615 0h.337l-.298-1.169-.45-1.696-.605-2.244-.062-.237-.318.063.727 2.67.382 1.487z"/><path fill="#FFBD32" d="M289.178 158.834h-5.116l.982 11.607h4.263l.983-11.607h-.758z"/><path d="M301.518 167.952c.176-.407.376-.858.376-1.739 0-.881-.2-1.346-.376-1.753-.151-.35-.27-.622-.27-1.235 0-.613.119-.827.27-1.175.157-.364.333-.734.369-1.415h-1.301c-.032.227-.134.6-.257.886-.178.408-.377.84-.377 1.722 0 .88.2 1.326.377 1.734.15.349.269.613.269 1.225 0 .613-.118.89-.269 1.238-.151.348-.317.694-.364 1.375h1.3c.035-.226.133-.588.253-.863m1.774.864h-4.737c-.85 0-1.549.682-1.654 1.59h8.044c-.106-.908-.804-1.59-1.653-1.59" fill="#302A34"/><path fill="#39B54A" d="M306.362 160.635l-1.49-8.637h-7.898l-1.49 8.637h6.402z"/><path fill="#302A34" d="M395.339 230.009h2.395V189.89h-2.395z"/><path d="M418.8 186.666c0 12.224-9.91 22.134-22.134 22.134h-.132c-12.224 0-22.134-9.91-22.134-22.134v-4.332c0-12.224 9.91-22.134 22.134-22.134h.132c12.224 0 22.134 9.91 22.134 22.134v4.332z" fill="#F2C238"/><path d="M415.744 192.291c-5.261-1.856-11.862-2.87-19.04-2.946-6.952-.075-13.381.734-18.593 2.377 1.813 5.295 6.211 9.314 11.698 10.682l.036.007c.397.098.8.182 1.206.251l.08.015a17.273 17.273 0 0 0 1.434.172c.4.032.805.055 1.215.06l6.118.065c.404.004.8-.01 1.197-.033a16.417 16.417 0 0 0 1.43-.139c.035-.004.07-.011.105-.017.38-.056.755-.126 1.126-.206l.123-.027c5.46-1.234 9.91-5.085 11.865-10.26" fill="#F29538"/><path d="M408.376 229.8c.006 0 .023.007.023-.042 0-2.106-5.422-3.76-12.11-3.76-6.689 0-12.11 1.63-12.11 3.734 0 .05.018.068.023.068h24.174zm12.707.233h-1.938v-11.795h4.281zm30.157 0h1.883v-11.795h-4.226z" fill="#302A34"/><path fill="#302A34" d="M414.6 226.2h42v-12h-42z"/><path d="M457.235 214.2c.063 0 .105-.85.105-1.264 0-4.245-3.44-7.736-7.683-7.736h-27.499c-4.243 0-7.684 3.491-7.684 7.736 0 .413.043 1.264.106 1.264h42.655z" fill="#F2C238"/><path d="M359.375 187.075s3.762-30.7 9.48-35.817" stroke="#39B54A" stroke-width=".6"/><path d="M368.438 156.047c-2.63 1.033-3.93 4-3.93 4s2.97 1.297 5.602.267c2.631-1.033 3.926-4.001 3.926-4.001s-2.966-1.295-5.598-.266m-2.408 10.233c-2.63 1.031-3.928 4-3.928 4s2.967 1.297 5.6.266c2.632-1.03 3.927-3.998 3.927-3.998s-2.966-1.298-5.599-.268m-1.806 10.235c-2.63 1.031-3.927 4-3.927 4s2.968 1.294 5.596.263c2.632-1.031 3.93-4 3.93-4s-2.967-1.294-5.599-.263m1.172-23.355c.995 2.645-.34 5.596-.34 5.596s-2.948-1.337-3.946-3.983c-.996-2.643.34-5.593.34-5.593s2.949 1.335 3.946 3.98m6.208-2.516c-1.234 1.347-3.324 1.435-3.324 1.435s-.09-2.09 1.143-3.434c1.235-1.346 3.323-1.435 3.323-1.435s.092 2.09-1.142 3.434" fill="#2CAB61"/><path d="M369.151 149.473c.212 1.291-.663 2.51-.663 2.51s-1.219-.878-1.428-2.168c-.212-1.292.66-2.507.66-2.507s1.222.872 1.431 2.165" fill="#259954"/><path d="M360.709 163.233c1.937 2.058 1.838 5.297 1.838 5.297s-3.241-.1-5.176-2.159c-1.935-2.059-1.834-5.296-1.834-5.296s3.235.1 5.172 2.158m-1.806 8.427c1.938 2.058 1.839 5.297 1.839 5.297s-3.241-.099-5.175-2.157c-1.937-2.06-1.839-5.297-1.839-5.297s3.238.1 5.175 2.156" fill="#2CAB61"/><path d="M354.773 178.24c1.914.734 2.874 2.88 2.874 2.88s-2.145.957-4.06.227c-1.914-.735-2.874-2.882-2.874-2.882s2.145-.955 4.06-.225m3.097.967c-.453 1.443.351 2.981.351 2.981s1.54-.805 1.99-2.249c.456-1.445-.349-2.982-.349-2.982s-1.537.804-1.992 2.25" fill="#006837"/><path d="M360.384 186.318s-4.988-9.79-7.807-13.02" stroke="#39B54A" stroke-width=".6"/><path d="M351.026 172.502c0 .002-.003.005-.006.006-.033-.04-.07-.076-.106-.114l.015-.023c.03.047.062.09.097.13m-2.846 1.836a1.704 1.704 0 0 0 2.276.792c.13-.063.245-.144.35-.234a1.701 1.701 0 0 0 2.839-1.828 1.743 1.743 0 0 0-.23-.35c.588-.49.795-1.328.447-2.05a1.704 1.704 0 0 0-2.277-.79 1.71 1.71 0 0 0-.63.537 1.7 1.7 0 0 0-2.93 1.705c.085.175.201.326.333.457a1.696 1.696 0 0 0-.178 1.761" fill="#FF7543"/><path d="M350.408 172.627a.58.58 0 1 0 1.044-.505.58.58 0 0 0-1.043.505" fill="#FFD80B"/><path d="M358.06 175.939c-.525 1.02-1.777 1.418-1.777 1.418s-.4-1.252.126-2.27c.527-1.018 1.778-1.417 1.778-1.417s.4 1.249-.128 2.269" fill="#006837"/><path fill="#29A89E" d="M349.895 229.8h18.632l-5.867-45.6h-6.898z"/></g></svg>