<svg width="120" height="120" viewBox="0 0 120 120" xmlns="http://www.w3.org/2000/svg"><g fill="none" fill-rule="evenodd"><path d="M71.55 22.853c-5.668 1.71-10.116.137-15.696-.592-4.308-.564-3.35-4.552-1.525-7.533 1.394-2.277 3.663-3.891 6.064-5.044 1.113-.535 2.439-.982 3.545-.433 1.088.54 1.562 1.918 1.376 3.122-.185 1.203-.897 2.257-1.668 3.197 1.387-2.176 3.771-3.681 6.326-3.995.629-.077 1.3-.077 1.855.231 1.101.613 1.266 2.233.682 3.353s-1.688 1.852-2.746 2.537c1.829-1.645 4.75-1.915 6.847-.633.358.22.715.512.81.923.095.415-.105.84-.335 1.198-1.222 1.906-3.372 3.016-5.535 3.67" fill="#1D1D1B"/><path d="M91.694 102.872c-.953-1.015-2.086-1.864-3.217-2.667-1.08-.767-2.723-.194-3.35.882-.009.015-.016.033-.025.05a2.073 2.073 0 0 0-.853-.936c-.978-.574-2.483-.279-3.018.795-.575 1.152-.815 2.424-1.04 3.686-.2 1.13-.486 2.337-.21 3.47.188.779 1.24 1.049 1.788.473.708-.743 1.073-1.723 1.578-2.608.076-.134.157-.266.239-.397.312.253.623.493.897.724.855.722 1.655 1.352 2.802 1.38.424.01.726-.354.751-.754.04-.636-.127-1.194-.397-1.718.525.278 1.043.57 1.56.866 1.056.608 1.921 1.41 3.187 1.467.688.03 1.347-.63 1.316-1.322-.063-1.417-1.084-2.408-2.008-3.391m-43.994.486c-.826-.745-1.75-.891-2.55-.662a2.8 2.8 0 0 0-1.05-.072c-1.49-.674-3.436.13-3.845 1.798-.256 1.042-.295 2.174-.446 3.254-.147 1.056-.276 2.074-.055 3.128.165.793 1.271 1.055 1.805.479.618-.666 1.055-1.457 1.565-2.204.008-.014.018-.025.027-.038.772 1.991 1.93 3.693 3.311 2.595.578-.46.624-1.182.568-1.896.083.06.168.122.249.183 1.042.791 2.143 1.845 3.507 1.876.788.019 1.501-.697 1.483-1.489-.031-1.365-1.081-2.475-1.868-3.52-.85-1.13-1.653-2.487-2.7-3.432" fill="#FFDF00"/><path d="M101.072 48.652c3.748-4.504 5.566-10.575 4.913-16.407.412-1.117 2.104-1.24 2.99-.447.885.792 1.107 2.094 1.08 3.285a11.025 11.025 0 0 1-1.124 4.593c1.35-.722 2.298-2.15 2.443-3.678 2.295 3.03 1.843 7.803-.98 10.344a4.898 4.898 0 0 0 3.062-3.17c1.45 1.803 1.893 4.372 1.131 6.56-.76 2.187-2.7 3.92-4.954 4.426-2.557.573-5.223-.359-7.484-1.513-2.678-1.367-2.947-1.745-1.077-3.993m-78.45 0c-3.747-4.504-5.565-10.575-4.913-16.407-.411-1.117-2.103-1.24-2.989-.447-.885.792-1.107 2.094-1.08 3.285a11.025 11.025 0 0 0 1.123 4.593c-1.35-.722-2.298-2.15-2.442-3.678-2.296 3.03-1.843 7.803.98 10.344a4.898 4.898 0 0 1-3.063-3.17c-1.45 1.803-1.892 4.372-1.13 6.56.76 2.187 2.7 3.92 4.954 4.426 2.557.573 5.223-.359 7.483-1.513 2.678-1.367 2.947-1.745 1.077-3.993" fill="#1D1D1B"/><path d="M14.655 63.57c-2.226 5.703-3.759 11.782-3.499 17.902.26 6.12 2.455 12.306 6.822 16.585 4.333 4.245 10.41 6.286 16.428 6.96 6.018.673 12.094.11 18.144-.143 14.675-.615 29.581.574 43.892-2.746 4.672-1.084 9.467-2.794 12.609-6.43 1.902-2.202 3.06-4.97 3.755-7.799 1.934-7.866.436-16.303-2.93-23.667-2.849-6.233-6.905-12.57-10.713-18.263a65.069 65.069 0 0 0-13.556-14.703c-6.486-5.16-17.354-12.799-26.102-10.793-12.845 2.946-25.362 13.616-33.46 23.606-4.754 5.866-8.64 12.447-11.39 19.49" fill="#D31216"/><path d="M56.773 43.605c-2.593 9.29-9.338 17.785-18.544 20.554-3.583 1.077-8.06.998-10.366-1.957-1.489-1.908-1.668-4.538-1.383-6.944.694-5.877 3.76-11.279 7.752-15.633 3.487-3.804 11.575-12.168 17.173-11.896 7.177.35 6.676 11.19 5.368 15.876m8.797 0c2.593 9.29 9.338 17.785 18.544 20.554 3.583 1.077 8.06.998 10.366-1.957 1.489-1.908 1.668-4.538 1.384-6.944-.694-5.877-3.76-11.279-7.753-15.633-3.487-3.804-11.574-12.168-17.173-11.896-7.177.35-6.676 11.19-5.367 15.876" fill="#F4F3F0"/><path d="M78.871 42.628c-.072-1.615-.616-2.924-1.94-3.884-1.647-1.194-4.324.393-4.158 2.395.016.19.039.367.068.536-.218 1.28.055 2.844.352 3.7.757 2.188 3.437 2.488 4.73.621.65-.936.999-2.232.948-3.368M49.784 38.51c-1.21-.643-2.442-.401-3.465.483-.704.61-.898 1.432-.748 2.211-.653 1.33-.647 3.147-.466 4.448.133.952 1.221 1.698 2.082 1.8.934.112 2.048-.295 2.495-1.2.388-.786.662-1.616.953-2.442.278-.789.658-1.603.673-2.455.02-1.09-.535-2.321-1.524-2.846" fill="#1D1D1B"/><path d="M56.88 71.537c1.071.94 2.294 1.74 3.662 2.131 3.527 1.007 7.364-.95 9.647-3.83 2.283-2.882 3.338-6.526 4.31-10.075-1.868 1.371-3.082 3.433-4.448 5.308-1.366 1.875-3.083 3.702-5.343 4.2-3.424.756-6.087-1.434-8.134-3.864-1.825-2.165-3.778-3.818-5.849-5.79 1.007 4.664 2.504 8.673 6.155 11.92" fill="#F49C1A"/><path d="M61.8 56.862c.253-.27.542-.575.91-.568.36.007.634.31.878.577 2.415 2.635 6.456 3.622 9.808 2.397.141-.052.284-.108.435-.112.488-.012.83.557.76 1.042-.071.485-.421.878-.78 1.21-3.493 3.25-8.74 3.563-13.498 3.32-3.42-.173-8.658-2.275-10.123-5.695 3.392 1.153 9.017.595 11.61-2.17" fill="#FFDF00"/><path d="M100.562 68.68c-.912-1.148-2.34-1.674-3.717-1.406-2.885-.535-6.268 1.077-8.36 2.834-2.06 1.73-.802 5.13 1.524 5.796 3.458.99 7.518.028 10.257-2.24 1.435-1.19 1.37-3.63.296-4.984m-78.246-3.568c-2.293-.312-5.011 1.418-4.1 4.116 1.62 4.804 8.027 8.614 12.792 5.664 1.952-1.208 2.012-3.682.776-5.145-1.29-2.774-7.367-4.35-9.468-4.635" fill="#EA5B65"/><path d="M102.011 28.538c.46 1.79.314 3.427-.074 5.211-.166.762.954 1.081 1.169.324.535-1.89.268-3.906-.44-5.716-.156-.399-.766-.253-.655.181m-2.915-.237c.2.854-.057 1.519-.324 2.315-.243.725.895 1.217 1.24.525.496-.992.29-2.185-.251-3.12-.21-.364-.759-.12-.665.28m17.31 28.449c1.282-.282 2.677-1.321 3.059-2.605.307-1.036-1.19-1.657-1.728-.732-.274.47-.434.987-.722 1.45-.275.445-.65.803-1.033 1.155-.339.31.022.82.424.731m1.139 2.571l1.81-.208c.694-.08.572-1.073-.128-.956l-1.798.304c-.48.08-.374.916.116.86M3.205 52.343c-.247 2.456 1.314 4.632 3.732 5.134.974.203 1.37-1.195.412-1.501-1.652-.528-3.108-2.024-3.525-3.717-.09-.369-.585-.252-.619.084M.002 55.696c.15 1.188.521 2.358 1.28 3.296.453.56 1.238-.237.79-.791-.655-.81-1.233-1.58-1.594-2.57-.086-.236-.513-.226-.476.065m19.359-26.39a2.224 2.224 0 0 1 1.285 2.276c-.058.584.897.601.921 0 .053-1.306-.728-2.46-1.926-2.943-.38-.153-.651.49-.28.667m1.757-2.413a8.853 8.853 0 0 1 1.406 2.46c.175.467.93.258.748-.207a9.966 9.966 0 0 0-1.64-2.77c-.303-.361-.805.157-.514.517" fill="#1D1D1B"/></g></svg>