<svg width="120" height="120" viewBox="0 0 120 120" xmlns="http://www.w3.org/2000/svg" xmlns:xlink="http://www.w3.org/1999/xlink"><defs><path id="a" d="M.413.497h23.854v10.55H.413z"/></defs><g fill="none" fill-rule="evenodd"><path d="M70.951 66.144l2.651 8.165-6.94-5.047a15.905 15.905 0 0 0 4.289-3.118M67.12 41.042l6.931-4.82-2.793 8.024m2.231 18.501a15.76 15.76 0 0 0 1.766-5.02l6.847 5.203-8.613-.183zm.242-14.969h8.485l-6.89 5.01a15.765 15.765 0 0 0-1.595-5.01m-11.467-8.395a16.014 16.014 0 0 0-2.637-.223c-.87 0-1.721.073-2.553.208l2.593-7.987 2.597 8.002zm-9.622.762a15.915 15.915 0 0 0-4.076 3.218l-2.929-7.869 7.005 4.651zm-4.281 26.06a15.846 15.846 0 0 0 4.278 3.08L45.73 74.31l2.631-8.104zm-4.427-13.47l-6.817-4.957h8.405a15.754 15.754 0 0 0-1.588 4.957m1.518 9.419l-8.44-.18 6.903-4.797a15.78 15.78 0 0 0 1.537 4.977" fill="#FFC510"/><path d="M97.225 63.563H95.26a.61.61 0 0 0-.609.61v1.79l-6.01-1.9a30.368 30.368 0 0 0 1.366-9.028 30.34 30.34 0 0 0-1.25-8.621l7.229-2.333v1.52c0 1.35.674 2.545 1.7 3.27a38.69 38.69 0 0 1 .498 6.164c0 2.93-.34 5.782-.96 8.528zm-13.748 21.76h-1.501l-4.12-5.98a30.54 30.54 0 0 0 10.232-13.68l6.564 2.077v1.862c0 .403.062.791.173 1.16a38.804 38.804 0 0 1-11.348 14.561zm-3.647 0a.609.609 0 0 0-.608.61v2.319a38.265 38.265 0 0 1-10.327 4.24l-1.734-7.998a30.208 30.208 0 0 0 9.315-4.172l3.444 5.001h-.09zm-8.353 27.068H47.653l2.197-9.347a3.985 3.985 0 0 0 2.791 1.141h13.73a3.984 3.984 0 0 0 3.025-1.393l2.081 9.6zM38.924 87.566V85.93l3.69-5.717a30.234 30.234 0 0 0 9.837 4.363l-1.872 7.965a38.316 38.316 0 0 1-11.655-4.976zm-.233-4.395a.593.593 0 0 0-.376-.141h-5.186a38.679 38.679 0 0 1-9.965-15.473c.045-.007.091-.007.136-.022l7.652-2.47a30.536 30.536 0 0 0 10.29 14.155l-2.55 3.952zM22.306 62.447h-.516a38.546 38.546 0 0 1-.722-7.412c0-3.05.367-6.015 1.038-8.862a4.016 4.016 0 0 0 2.586-2.507l5.902 2.406a30.325 30.325 0 0 0-1.348 8.963c0 2.92.421 5.743 1.193 8.418l-7.524 2.427v-2.824a.61.61 0 0 0-.609-.61zm2.612-24.21a38.822 38.822 0 0 1 10.859-13.491h.478c.602 0 1.171-.138 1.683-.377l4.074 5.914a30.545 30.545 0 0 0-10.871 14.184l-6.223-2.538v-3.692zm15.2-16.47a38.276 38.276 0 0 1 19.104-5.313l-.188 8.188a30.168 30.168 0 0 0-15.619 4.695l-4.126-5.992c.385-.45.671-.987.828-1.578zm41.098 4.369l-3.495 4.488a30.197 30.197 0 0 0-16.994-5.97l.186-8.178a38.27 38.27 0 0 1 19.614 6.154v1.262c0 .831.254 1.604.69 2.244zM76.934 55.28l9.942-7.228a28.132 28.132 0 0 1-.19 14.64l-9.752-7.412zm-3.007 10.44l11.618.245a28.305 28.305 0 0 1-8.039 10.782l-3.58-11.028zm-9.368 6.769l.304-.874 9.846 7.16a27.932 27.932 0 0 1-8.027 3.51L64.56 72.49zm.95 12.375l1.736 8a38.55 38.55 0 0 1-6.853.74l-.033-8.182a30.395 30.395 0 0 0 5.15-.558zm-8.364-12.873l.29-1.238c.717.099 1.447.155 2.191.155.82 0 1.625-.063 2.411-.183l-2.826 8.12-2.066-6.854zm-3.04 12.937c1.487.275 3.01.44 4.562.488L58.7 93.6a38.297 38.297 0 0 1-6.468-.696l1.873-7.976zm-.07-12.996l.779 2.584-1.848 7.862a27.938 27.938 0 0 1-8.38-3.576l9.45-6.87zM45.6 65.12l-3.79 11.677a28.274 28.274 0 0 1-8.538-11.938l12.328.261zm-3.665-10.175l-9.642 6.704a28.124 28.124 0 0 1 .096-13.646l9.546 6.942zm3.516 7.21l-8.438-.18 6.901-4.798a15.78 15.78 0 0 0 1.537 4.977zm-1.517-9.42l-6.817-4.957h8.405a15.754 15.754 0 0 0-1.588 4.957zm1.927-7.92H33.428a28.288 28.288 0 0 1 8.843-11.907l3.59 11.907zm.66-8.24l6.537 3.905c-.582.428-3.7 2.4-4.217 2.902l-2.32-6.806zm1.84 29.63a15.854 15.854 0 0 0 4.278 3.08L45.73 74.31l2.631-8.104zm9.036 16.883a28.221 28.221 0 0 1-2.775-.36l1.169-4.971 1.606 5.33zm-3.033-44.96l-9.37-7.123a27.91 27.91 0 0 1 13.004-4.07l-3.634 11.193zm9.128 37.426l1.54 7.103a28.078 28.078 0 0 1-4.186.496l2.646-7.599zm-1.228-36.171a16.01 16.01 0 0 0-2.638-.222c-.869 0-1.72.072-2.553.207l2.594-7.987 2.597 8.002zm2.918-.602l-3.844-11.84a27.934 27.934 0 0 1 14.016 4.767l-10.172 7.073zm9.013 6.034l3.842-11.034a28.246 28.246 0 0 1 7.789 11.034H74.195zm-.464 2.963h8.485l-6.89 5.01a15.765 15.765 0 0 0-1.595-5.01zm-.242 14.97a15.76 15.76 0 0 0 1.766-5.022l6.847 5.204-8.613-.183zM67.12 41.041l6.932-4.82-2.795 8.024a15.905 15.905 0 0 0-4.137-3.204zm3.831 25.102l2.65 8.165-6.94-5.047a15.905 15.905 0 0 0 4.29-3.118zm13.575-38.249h2.482a38.66 38.66 0 0 1 8.979 14.312v.095l-7.752 2.502a30.522 30.522 0 0 0-9.187-13.132l3.4-4.365a3.968 3.968 0 0 0 2.078.588zm32.579 11.668H97.39a40.913 40.913 0 0 0-7.296-11.668h8.16c2.206 0 4-1.796 4-4.003v-5.428a.61.61 0 0 0-.61-.61h-20.51a.608.608 0 0 0-.608.61v1.5a40.63 40.63 0 0 0-11.547-4.69 3.992 3.992 0 0 0 1.335-2.976V6.87a.61.61 0 0 0-.61-.61H49.197a.61.61 0 0 0-.61.61v5.43c0 1.216.548 2.307 1.407 3.041a40.518 40.518 0 0 0-9.74 3.75v-3.776a.61.61 0 0 0-.609-.61H19.137a.61.61 0 0 0-.61.61v5.43a4.006 4.006 0 0 0 4 4.002h9.746a41.074 41.074 0 0 0-8.902 11.566H3.8a.609.609 0 0 0-.61.61v5.429a4.005 4.005 0 0 0 3.999 4.002h12.56a40.825 40.825 0 0 0-.937 8.682c0 2.531.243 5.006.686 7.412H1.797a.61.61 0 0 0-.609.61v5.428a4.005 4.005 0 0 0 4 4.002h13.728a3.99 3.99 0 0 0 3.131-1.52 40.968 40.968 0 0 0 7.9 12.063H17.805a.609.609 0 0 0-.61.608v5.43a4.005 4.005 0 0 0 4 4.002h13.729a4.003 4.003 0 0 0 3.851-2.938 40.604 40.604 0 0 0 9.99 4.271.596.596 0 0 0-.123.35v5.43c0 .16.011.317.03.474l-2.911 12.387a.846.846 0 0 0 .824 1.04h25.94a.85.85 0 0 0 .66-.314c.16-.2.221-.462.168-.712l-2.984-13.76v-4.545a.604.604 0 0 0-.085-.292 40.543 40.543 0 0 0 8.937-3.606v.506a4.005 4.005 0 0 0 3.999 4.003h13.73c2.204 0 4-1.795 4-4.003v-5.428a.61.61 0 0 0-.61-.61H86.98a41.093 41.093 0 0 0 9.36-12.46 3.97 3.97 0 0 0 2.311.741h13.729c2.206 0 4-1.795 4-4.002v-5.43a.609.609 0 0 0-.61-.61H99.54a40.83 40.83 0 0 0 .901-8.527 41.05 41.05 0 0 0-.371-5.431h13.645c2.206 0 4-1.796 4-4.003v-5.428a.61.61 0 0 0-.61-.61z" fill="#571407"/><path d="M59.859 17.107c-20.842 0-37.798 16.97-37.798 37.83 0 20.858 16.956 37.83 37.798 37.83 20.842 0 37.797-16.972 37.797-37.83 0-20.86-16.955-37.83-37.797-37.83m0 79.141c-22.76 0-41.276-18.532-41.276-41.312 0-22.779 18.516-41.311 41.276-41.311 22.76 0 41.276 18.532 41.276 41.311 0 22.78-18.516 41.312-41.276 41.312" fill="#D9471E"/><path d="M38.938 82.592H16.966a.94.94 0 0 0-.94.941v6.325a3.287 3.287 0 0 0 3.281 3.284h17.29a3.287 3.287 0 0 0 3.282-3.284v-6.325a.941.941 0 0 0-.941-.941" fill="#F58B1E"/><path d="M22.912 62.12H.942a.942.942 0 0 0-.942.942v6.325a3.287 3.287 0 0 0 3.282 3.284h17.29a3.287 3.287 0 0 0 3.281-3.284v-6.325a.942.942 0 0 0-.94-.942" fill="#E79D22"/><g transform="translate(47.664 5.065)"><mask id="b" fill="#fff"><use xlink:href="#a"/></mask><path d="M23.325.497H1.354a.94.94 0 0 0-.94.941v6.325a3.287 3.287 0 0 0 3.28 3.285h17.29a3.287 3.287 0 0 0 3.283-3.285V1.438a.942.942 0 0 0-.942-.941" fill="#E79D22" mask="url(#b)"/></g><path d="M116.957 63.176H94.985a.94.94 0 0 0-.94.942v6.324a3.287 3.287 0 0 0 3.281 3.284h17.29a3.286 3.286 0 0 0 3.281-3.284v-6.324a.94.94 0 0 0-.94-.942" fill="#E79D22"/><path d="M24.388 35.951H2.417a.941.941 0 0 0-.941.942v6.324a3.287 3.287 0 0 0 3.282 3.285h17.29a3.287 3.287 0 0 0 3.281-3.285v-6.324a.942.942 0 0 0-.94-.942m78.229-18.571H80.646a.94.94 0 0 0-.94.941v6.324a3.287 3.287 0 0 0 3.282 3.286h17.29a3.287 3.287 0 0 0 3.281-3.286v-6.324a.942.942 0 0 0-.94-.941m-1.687 67.744H78.959a.941.941 0 0 0-.94.942v6.324a3.287 3.287 0 0 0 3.282 3.285h17.29a3.287 3.287 0 0 0 3.282-3.285v-6.324a.942.942 0 0 0-.941-.942" fill="#EF4F22"/><path d="M72.721 114.503H46.68a1.105 1.105 0 0 1-1.08-1.356l13.39-58.353a1.11 1.11 0 0 1 1.08-.86h.007c.518.003.965.366 1.074.874l12.652 58.352a1.106 1.106 0 0 1-1.082 1.343" fill="#571407"/><path d="M76.517 54.62c0 9.383-7.6 16.989-16.975 16.989-9.375 0-16.974-7.606-16.974-16.989 0-9.383 7.6-16.989 16.974-16.989 9.375 0 16.975 7.606 16.975 16.989M40.203 14.214H18.231a.94.94 0 0 0-.94.942v6.324a3.287 3.287 0 0 0 3.281 3.285h17.291a3.287 3.287 0 0 0 3.28-3.285v-6.324a.94.94 0 0 0-.94-.942m78.442 25.114H96.672a.94.94 0 0 0-.94.941v6.325a3.287 3.287 0 0 0 3.282 3.285h17.289a3.287 3.287 0 0 0 3.282-3.285v-6.325a.94.94 0 0 0-.94-.94M70.356 93.566H48.385a.94.94 0 0 0-.94.942v6.324a3.287 3.287 0 0 0 3.28 3.285h17.29a3.287 3.287 0 0 0 3.283-3.285v-6.324a.942.942 0 0 0-.942-.942" fill="#FFC510"/><path d="M59.648 27.174c-15.412 0-27.95 12.549-27.95 27.974 0 15.424 12.538 27.973 27.95 27.973 15.411 0 27.95-12.549 27.95-27.973 0-15.425-12.539-27.974-27.95-27.974m0 58.521c-16.83 0-30.523-13.703-30.523-30.547 0-16.845 13.693-30.55 30.523-30.55S90.17 38.304 90.17 55.149c0 16.844-13.693 30.547-30.523 30.547" fill="#FFC510"/></g></svg>