<svg width="120" height="120" viewBox="0 0 120 120" xmlns="http://www.w3.org/2000/svg" xmlns:xlink="http://www.w3.org/1999/xlink"><defs><path id="a" d="M0 .094h119.997v101.481H0z"/></defs><g fill="none" fill-rule="evenodd"><g transform="translate(0 9.331)"><mask id="b" fill="#fff"><use xlink:href="#a"/></mask><path d="M119.595 20.141c1.596 9.546-1.83 23.839-5.384 33.292a81.97 81.97 0 0 1-.577 1.491c-5.978 14.982-19.13 37.438-34.233 44.792C59.037 109.63-9.166 77.973 1.033 50.327c.392-1.067 4.952-5.927 7.649-6.807.901-.296 1.594-.145 1.852.74-.06-.205-.122-.413-.186-.618-2.094-6.794-5.646-13.139 1.666-17.509 5.494-3.282 11.498-1.396 16.312 1.458l.002.002c.134.08.269.16.4.24.303.184.595.37.885.56-2.039-7.33-.99-20.344 8.129-21.259 7.186-.717 10.136 5.892 13.854 9.962v.003c.126.137.253.27.38.402a19.816 19.816 0 0 1-.134-2.24l-.001-.002C51.78-.29 71.249-2.09 73.537 14.086c-.002 0-.002 0 0 .001.049.332.088.67.12 1.02.316-.881.815-1.918 1.455-3.029C78.372 6.426 85.33-1.131 90.854.262c7.857 1.98 6.4 13.346 6.11 19.23-.01.193-.019.377-.025.556a16.234 16.234 0 0 1 1.606-2.122l.002-.001c6.312-7.095 19.022-9.904 21.048 2.216" fill="#FFAAB3" mask="url(#b)"/></g><path d="M59.955 95.836c-.793-.69-1.581-1.41-2.437-2.02-4.344-3.091-8.682-6.188-13.03-9.277-4.378-3.11-8.75-6.246-12.854-9.716-4.351-3.68-8.536-7.588-12.768-11.404-2.189-1.973-4.259-4.042-6.292-6.171-1.067-1.12-2.044-2.303-3.125-3.41-.286-.291-.521-.644-.767-.988.901-.295 1.594-.144 1.852.742-.06-.206-.121-.414-.186-.619.425.347.796.768 1.203 1.124.531.465 1.132.843 1.667 1.307 1.063.926 2.132 1.844 3.198 2.763 2.217 1.912 4.308 3.973 6.441 5.975 4.091 3.839 8.144 7.75 12.513 11.274 4.176 3.366 8.543 6.484 12.846 9.687 2.137 1.59 4.226 3.219 6.25 4.955 2.004 1.722 3.858 3.625 5.753 5.466.188.183-.064.487-.264.312m8.042-3.612c-1.233-.91-2.55-1.788-3.649-2.86-7.144-6.987-12.567-15.547-17.998-23.867-1.486-2.277-2.979-4.549-4.471-6.823a394.528 394.528 0 0 1-2.514-3.881c-.77-1.204-1.385-2.496-2.158-3.697-1.601-2.485-3.238-4.945-4.824-7.437-1.4-2.2-2.869-4.406-4.055-6.736.135.08.269.161.4.242.624 1.008 1.214 2.039 1.848 3.04 1.575 2.487 3.149 4.966 4.808 7.4 1.678 2.461 3.626 4.688 5.396 7.073 3.214 4.33 6.209 8.807 9.1 13.355 2.716 4.278 5.437 8.565 8.448 12.644 1.495 2.023 3.048 4.004 4.722 5.884 1.648 1.847 3.319 3.762 5.135 5.443.138.127-.038.33-.188.22M57.29 39.535c1.665 5.18 3.16 10.413 4.551 15.676 1.394 5.262 2.82 10.518 4.351 15.743 1.49 5.08 3.247 10.092 4.612 15.206.054.205-.217.294-.306.107-2.322-4.875-3.877-10.131-5.462-15.284-1.6-5.197-3.097-10.428-4.647-15.643-1.55-5.213-3.015-10.453-4.566-15.669-.777-2.608-1.415-5.225-2.29-7.807-.619-1.82-1.29-3.624-1.936-5.434.125.137.252.27.38.402a19.904 19.904 0 0 1-.136-2.24c1.015 2.38 1.866 4.847 2.711 7.29.89 2.565 1.909 5.07 2.738 7.653m17.822-18.126c-.021.38-.04.751-.041 1.11a235.14 235.14 0 0 0 .026 4.026c.04 2.808.28 5.597.354 8.403.147 5.646.363 11.292.58 16.934.22 5.679.356 11.347.365 17.031.005 2.844-.07 5.695-.142 8.54-.035 1.375.041 2.848-.191 4.21-.23 1.351-.348 2.68-.451 4.046-.012.153-.276.137-.27-.017l.011-.34c.047-1.492-.09-2.938-.112-4.423-.02-1.363.014-2.727.013-4.091-.007-2.843-.128-5.676-.24-8.515-.221-5.666-.604-11.329-.928-16.991-.32-5.639-.657-11.267-.797-16.913-.069-2.801.104-5.633.171-8.436.02-.856.045-1.71.077-2.565.049.332.088.67.12 1.02.316-.881.815-1.918 1.455-3.029m23.433 5.848c-.292 2.458-1.405 4.778-2.21 7.104-.898 2.597-1.64 5.22-2.429 7.849a380.388 380.388 0 0 0-4.335 15.71c-1.338 5.266-2.6 10.549-3.883 15.828a196.335 196.335 0 0 1-2.085 7.813c-.741 2.573-1.678 5.081-2.415 7.655-.089.312-.584.223-.5-.099l.156-.615c.66-2.57 1.016-5.23 1.602-7.821.594-2.626 1.154-5.259 1.78-7.878 1.26-5.285 2.502-10.574 3.828-15.842 1.328-5.268 2.724-10.518 4.36-15.699.797-2.525 1.732-5.03 2.63-7.52.59-1.633 1.12-3.357 1.92-4.919-.01.193-.019.377-.025.556a16.262 16.262 0 0 1 1.606-2.122" fill="#FF667C"/></g></svg>