<svg width="120" height="120" viewBox="0 0 120 120" xmlns="http://www.w3.org/2000/svg"><g fill="none" fill-rule="evenodd"><path d="M60 76.53a.5.5 0 1 1-1-.06.5.5 0 0 1 1 .06" fill="#522D2D"/><path fill="#D0D2D3" d="M55.401 91.208h4.312V14.041h-4.312z"/><path d="M37.316 6.03L27.29 12.262a1.298 1.298 0 0 0-.42 1.778l.805 1.318c.376.616 1.18.803 1.787.417l9.728-6.191-1.873-3.554z" fill="#58585B"/><path fill="#404042" d="M32.023 100.207h1.873v-7.819h-1.873z"/><path fill="#58585B" d="M33.896 102.334H57.27V92.44H33.896z"/><path fill="#E5E6E7" d="M57.27 89.857H32.837v4.898l16.207 4.585h8.226z"/><path d="M26.197 78.595c-2.495 0-4.517 2.033-4.517 4.541v26.322c0 2.51 2.022 4.541 4.517 4.541 2.496 0 4.518-2.032 4.518-4.541V83.136c0-2.508-2.022-4.54-4.518-4.54" fill="#404042"/><path fill="#6C6E70" d="M30.715 101.608h1.308V90.986h-1.308z"/><path d="M26.298 76.896h-1.58c-.956 0-1.73.779-1.73 1.74v7.666c0 3.178 2.563 5.755 5.724 5.755h1.58c.956 0 1.731-.779 1.731-1.74v-7.665c0-3.18-2.564-5.756-5.725-5.756" fill="#E5E6E7"/><path fill="#939597" d="M36.259 89.858h19.138v-1.324H36.259z"/><path fill="#F0F0F1" d="M56.17 104.517h3.543V74.494H56.17z"/><path fill="#606163" d="M57.27 104.375h2.443V77.81H57.27z"/><path fill="#E5E6E7" d="M59.713 16.754L37.316 10.17V6.03l22.397 2.037z"/><path fill="#F0F0F1" d="M54.705 50.55h5.008v-3.685h-5.008z"/><path fill="#BFC0C1" d="M59.713 91.208h4.312V14.041h-4.312z"/><path d="M82.109 6.03l10.027 6.232a1.3 1.3 0 0 1 .42 1.778l-.804 1.318a1.285 1.285 0 0 1-1.787.417l-9.73-6.191L82.11 6.03z" fill="#474749"/><path fill="#2F2E2F" d="M85.53 100.207h1.874v-7.819H85.53z"/><path fill="#474749" d="M62.157 102.334H85.53V92.44H62.157z"/><path fill="#D3D4D5" d="M62.156 89.857h24.432v4.898L70.382 99.34h-8.226z"/><path d="M93.228 78.595c2.495 0 4.518 2.033 4.518 4.541v26.322c0 2.51-2.023 4.541-4.518 4.541-2.495 0-4.518-2.032-4.518-4.541V83.136c0-2.508 2.023-4.54 4.518-4.54" fill="#2F2E2F"/><path fill="#5B5C5F" d="M87.403 101.608h1.307V90.986h-1.307z"/><path d="M93.128 76.896h1.58c.956 0 1.73.779 1.73 1.74v7.666c0 3.178-2.563 5.755-5.724 5.755h-1.582c-.954 0-1.73-.779-1.73-1.74v-7.665c0-3.18 2.564-5.756 5.726-5.756" fill="#D3D4D5"/><path fill="#818385" d="M64.029 89.858h19.139v-1.324h-19.14z"/><path fill="#DEDFDF" d="M59.713 104.517h3.543V74.494h-3.543z"/><path fill="#4E5052" d="M59.713 104.375h2.444V77.81h-2.444z"/><path fill="#D3D4D5" d="M59.713 16.754l22.396-6.583v-4.14L59.713 8.067z"/><path fill="#DEDFDF" d="M59.713 50.55h5.009v-3.685h-5.009z"/></g></svg>