<svg width="120" height="120" viewBox="0 0 120 120" xmlns="http://www.w3.org/2000/svg" xmlns:xlink="http://www.w3.org/1999/xlink"><defs><path id="a" d="M0 .998h117.06V118.86H0z"/></defs><g transform="translate(1 1)" fill="none" fill-rule="evenodd"><mask id="b" fill="#fff"><use xlink:href="#a"/></mask><path d="M63.492 57.84l6.612-6.648c.054.378.114.762.186 1.14.444 2.184 1.572 4.05 2.766 5.508h-9.564zm8.682 4.464c-1.122 2.154-1.44 4.71-1.38 7.056l-7.302-7.344h8.874c-.06.096-.132.198-.192.288zM60.612 74.736v-9.804l6.348 6.39c-2.46.54-4.65 1.962-6.348 3.414zm0-31.428c2.13 1.746 5.022 2.82 8.412 3.138l-8.412 8.484V43.308zM56.46 54.93l-7.746-7.818c3.342-.252 5.916-1.872 7.746-3.864V54.93zm0 17.784c-1.512-.822-3.468-1.26-5.79-1.26-.258 0-.444.024-.69.024l6.48-6.546v7.782zm-9.372-4.212c-.504-2.466-1.83-4.68-3.462-6.486h9.93l-6.468 6.486zm-1.254-11.796c.876-1.776 1.062-3.768.936-5.64l6.786 6.774h-8.418c.246-.348.504-.726.696-1.134zm71.226 1.134h-11.196l6.168-5.508-2.766-3.102-9.564 8.61h-7.908l9.174-8.262-2.766-3.102L85.626 57.84H79.02c-.75-.54-2.322-1.806-3.444-3.546l7.218-2.502c.576.48 1.266.798 2.016.798 1.71 0 3.138-1.398 3.138-3.132 0-1.716-1.428-3.108-3.138-3.108-1.512 0-2.766 1.08-3.012 2.502L74.31 51.45c-.378-1.968.066-3.9 1.452-5.922l4.464-4.494L95.94 38.85l-.564-4.122-10.308 1.434 5.532-5.574 11.25-1.548-.564-4.116-5.85.816 5.91-6.006-2.898-2.946-7.29 7.38.504-9.15-4.146-.222-.762 13.77-5.592 5.634.75-13.236-4.146-.222-.936 17.856-3.66 3.666c-.504.036-1.254.096-2.118.096-1.266 0-2.652-.096-3.96-.438l3.762-9.438c1.452-.222 2.634-1.482 2.634-3.066 0-1.704-1.374-3.102-3.072-3.102a3.11 3.11 0 0 0-3.138 3.102c0 .732.246 1.392.678 1.902l-3.774 9.456c-1.566-.912-2.88-2.37-3.57-4.554v-4.554l10.05-13.392-3.258-2.532-6.792 9.018v-7.878l7.344-9.78-3.33-2.496-4.014 5.406V.996H56.46v9.75l-5.532-6.27L47.85 7.26l8.61 9.714v7.986l-8.31-9.342-3.066 2.79L56.46 31.194v2.94l-.198.954c-.06.216-.996 4.08-3.894 6.324l-6.162-10.47c.246-.45.444-.954.444-1.524 0-1.704-1.392-3.102-3.078-3.102-1.758 0-3.156 1.398-3.156 3.102 0 1.71 1.398 3.102 3.156 3.102l6.036 10.254c-.636.126-1.266.252-1.95.252-1.074 0-2.328-.222-3.654-.63l-3.888-3.93-2.262-16.548-4.092.54 1.572 11.136-5.604-5.568-1.626-12.06-4.092.534.948 6.654-6.348-6.366-2.97 2.946 6.984 6.966-8.424-.48-.246 4.146 13.02.732 5.592 5.628-12.45-.69-.252 4.146 17.094.948 4.278 4.308c.504 1.23 1.392 3.636 1.452 5.976l-8.742-4.524c-.126-1.65-1.44-2.97-3.078-2.97-1.704 0-3.084 1.386-3.084 3.126 0 1.71 1.38 3.102 3.084 3.102.63 0 1.194-.186 1.638-.504l9.678 5.004c0 .09-.06.156-.06.252-.762 1.482-2.202 2.466-4.464 2.94H34.44L21.258 47.808l-2.46 3.324L27.6 57.84h-7.794l-9.624-7.314-2.448 3.33 5.214 3.984H0v4.176h13.896l-6.288 5.7 2.706 3.102 9.804-8.802h7.926l-9.378 8.424 2.706 3.096 12.822-11.52h3.084c.702.45 2.016 1.362 3.21 2.664l-7.29 3.162a3.355 3.355 0 0 0-1.512-.378 3.1 3.1 0 0 0-3.09 3.102c0 1.74 1.392 3.132 3.09 3.132a3.118 3.118 0 0 0 3.144-3.132v-.036l7.488-3.258c.864 1.704 1.182 3.702.186 5.856l-2.892 2.91-16.278 2.28.546 4.08 10.878-1.482-5.532 5.562-11.814 1.65.564 4.11 6.408-.912-8.742 8.802 2.97 2.94 9.492-9.564-.504 8.616 4.146.252.69-13.26 5.664-5.64-.75 12.702 4.146.252.948-17.346 2.754-2.79c.06 0 .132-.03.186-.03.954-.192 2.58-.54 4.41-.63l-2.58 7.464a3.098 3.098 0 0 0-2.448 3.042c0 1.74 1.38 3.132 3.084 3.132 1.698 0 3.078-1.392 3.078-3.132 0-.762-.312-1.458-.762-2.028l2.826-8.292c3.27.726 3.468 2.946 3.468 4.056v6.738l-9.876 13.104 3.324 2.526 6.552-8.736v7.884l-7.11 9.498 3.27 2.502 3.84-5.13v10.602h4.152v-11.868l5.772 6.522 3.084-2.79-8.856-9.936v-8.01l8.484 9.594 3.078-2.784-11.562-13.014v-6.042c.816-.948 2.13-2.34 3.702-3.45l3.396 8.328c-.306.468-.432 1.008-.432 1.614 0 1.704 1.38 3.102 3.072 3.102 1.698 0 3.078-1.398 3.078-3.102 0-1.716-1.314-3.072-3.012-3.102l-3.396-8.328a5.989 5.989 0 0 1 1.944-.348c1.254 0 2.394.504 3.456 1.584l1.386 1.458 1.698 1.644 2.202 15.984 4.092-.576-1.44-10.536 5.526 5.574 1.56 11.484 4.092-.57-.882-6.048 7.794 7.824 2.898-2.94-8.934-9.06 8.934.51.246-4.14-13.584-.768-5.592-5.634 13.02.732.258-4.146-17.67-.984-2.334-2.376c-.372-1.422-.948-4.074-.75-6.546l6.798 3.132v.066c0 1.74 1.374 3.132 3.072 3.132 1.71 0 3.138-1.392 3.138-3.132 0-1.71-1.428-3.108-3.138-3.108-.504 0-1.008.132-1.44.384l-7.74-3.576c.06-.096.132-.222.192-.318.63-1.134 1.566-1.896 2.88-2.28h6.234L98.334 72.24l2.508-3.324-9.048-6.9h7.794l9.804 7.464 2.508-3.282-5.46-4.182h10.62V57.84z" fill="#B0E1E7" mask="url(#b)"/></g></svg>