<svg width="480" height="360" viewBox="0 0 480 360" xmlns="http://www.w3.org/2000/svg"><g fill="none" fill-rule="evenodd"><path d="M111.216 141.656l-2.016 3.664m7.664-.208l-2.416 3.648" stroke="#E6C3A1" stroke-linecap="round" stroke-width="1.28"/><path fill="#C7F7FF" d="M0 0h480v361H0z"/><path d="M257.232 213.088c-.24-6.064 38.016-8.848 42.832-8.912 116.96-1.568-77.744-43.632-77.744-48.912 140.32-26.304 329.952-18.592 61.632-91.744C270.256 59.792 149.408 23.232 64.48-2H0v320h480v-51.008c-73.328-13.28-222.208-39.6-222.768-53.904z" fill="#D4F9FF"/><path d="M0 255.032V361h480v-93.344C412.032 240.168 321.632 223.4 222.4 223.4c-82.96 0-159.728 11.712-222.4 31.632z" fill="#D4F9FF"/><path d="M26.688 191.096c-2.16-6.848-7.072-7.552-11.504-7.184-.144-6.384-4.736-10.096-10.08-9.408.048-4.624-2.032-8.208-5.104-10.608v38.592c33.424 15.248 97.088 22.8 131.2 19.68-32.304-3.088-98.096-10.752-104.512-31.072zM460.704 40.087c-8.16-2.512-13.424 7.968-9.984 11.424-8.64-3.408-24.256 9.12-18.24 23.2-3.2 12.8-25.056 29.104-84.48 46.544 71.68-9.152 107.44-32.928 132.48-49.232V18.967c-12.8-2.864-25.6 9.936-19.776 21.12z" fill="#FAFEFF"/><path d="M474.456 106.496c-6.176-1.104-11.472 2.912-11.632 10.272-5.104-.688-10.784-.16-13.28 7.616-7.392 23.056-83.28 28.08-120.544 29.792 39.344 5.584 112.784.56 151.328-15.088V94.56c-3.52 2.592-5.92 6.592-5.872 11.936z" fill="#F2FDFF"/><path d="M87.904 130.696c-2.56-15.872-13.44-18.56-23.6-18.736 1.84-14.368-7.264-23.744-19.616-23.408C49.808 56.648 12.8 47.4 0 63.4v70.016l2.016 1.728c49.408 41.824 177.328 76.368 268.192 86.208-92.16-18.4-175.552-48.816-182.304-90.656z" fill="#EDFDFF"/><path d="M127.968 152.12c-10.992 7.776-13.392-.688-19.888.256-4.704.688-6.288 4.928-10.16 5.04-3.616.096-4.656-3.248-8.88-2.496-2.4.432-4.672 3.088-6.4 2.944-2.944-.224-6.384-2.928-9.04 1.52h76.912c-3.168-3.504-10.544-15.744-22.544-7.264z" fill="#FFF"/><path d="M344.448 166.296c-3.072.24-7.104-4.48-11.36-5.232-7.488-1.328-9.344 4.608-15.76 4.432-6.88-.192-9.696-7.712-18.032-8.928-11.536-1.696-15.776 13.328-35.296-.464-21.28-15.056-34.368 6.672-40 12.912h136.496c-4.72-7.92-10.816-3.136-16.048-2.72z" fill="#F2FDFF"/><circle cx="25.248" cy="25.232" r="25.2" transform="translate(391.84 216.04)" fill="#D4F9FF"/><path fill="#C7EAFC" d="M328.496 361H480V211.146l-30.992-51.86z"/><path fill="#C7EAFC" d="M449.008 361V159.286L328.496 361z"/><path fill="#E8F9FF" d="M414.624 216.855l2.352 20.494 17.68-21.624 12.464 46.193 15.6-48.17L480 238.216v-27.07l-30.992-51.86z"/><path fill="#FFF" d="M416.976 237.35l17.68-21.625 12.464 46.193 1.888-5.81v-96.822l-34.384 57.569z"/><path fill="#A9D3E8" d="M0 242.136V361h151.504L30.992 201z"/><path fill="#A9D3E8" d="M30.992 361h120.512L30.992 201z"/><path fill="#E8F9FF" d="M0 242.136v21.472L17.28 244.2l15.6 38.208 12.464-36.64 17.68 17.152 2.352-16.256L30.992 201z"/><path fill="#FFF" d="M30.992 277.8l1.888 4.608 12.464-36.64 17.68 17.152 2.352-16.256L30.992 201z"/><path d="M63.68 310.255l64.144-213.75 64.128 213.75H63.68z" fill="#C7EAFC"/><path fill="#D4F9FF" d="M110.68 152.417l.56 24.418 9.424-26.522 7.728 47.564 6.192-45.622 8.768 21.366 1.168-20.256-17.056-56.86z"/><path fill="#FFF" d="M127.68 192.143l.928 5.734 6.192-45.622 8.768 21.366 1.168-20.256-17.056-56.86zm240.992-15.703c-1.488 0-3.136 1.2-3.696 2.688-.56 1.488.192 2.688 1.68 2.688s3.136-1.2 3.696-2.688c.56-1.488-.192-2.688-1.68-2.688zm28.432-22.4c-1.488 0-3.136 1.2-3.696 2.688-.56 1.488.192 2.688 1.68 2.688s3.136-1.2 3.696-2.688c.544-1.488-.208-2.688-1.68-2.688zm-16 76.8c-1.488 0-3.136 1.2-3.696 2.688-.56 1.488.192 2.688 1.68 2.688s3.136-1.2 3.696-2.688c.544-1.488-.208-2.688-1.68-2.688z"/><path d="M0 310.6V361h281.6v-73.008c-10.528-.208-21.2-.304-32-.304-99.408 0-188.624 8.864-249.6 22.912z" fill="#94BF1C"/><path d="M0 310.6V361h58.016c-20.24-8.352-31.872-17.52-31.872-26.704 0-27.12 101.6-44.016 226.928-37.744 9.664.48 19.184 1.088 28.528 1.808v-10.384c-10.528-.208-21.2-.304-32-.304-99.408.016-188.624 8.88-249.6 22.928z" fill="#8CB51B"/><path d="M166.4 338.6c8.944 3.088 39.696 19.904 52.4 22.4H480v-54.48c-14.416-2.816-30.096-5.36-46.816-7.616C502.4 345 236.8 357.8 166.4 338.6z" fill="#F2FDFF"/><path d="M440.8 290.856c-13.696-1.52-24.8 4.032-24.8 12.4s11.104 16.384 24.8 17.904c13.696 1.52 24.8-4.032 24.8-12.4s-11.104-16.384-24.8-17.904z" fill="#F2FDFF"/><path d="M249.6 275.816c-111.04 0-201.6 17.696-201.6 39.392S138.56 354.6 249.6 354.6c111.04 0 201.6-17.696 201.6-39.392s-90.56-39.392-201.6-39.392z" fill="#A5D12C"/><path d="M304 277.272c-84.912 4.64-147.2 19.872-147.2 37.936 0 18.08 62.288 33.296 147.2 37.936 84.912-4.64 147.2-19.872 147.2-37.936 0-18.08-62.288-33.296-147.2-37.936z" fill="#F2FDFF"/><path d="M379.92 285.16c26.624 6.672 42.48 15.072 42.48 24.192 0 18.08-62.288 33.296-147.2 37.936-28.32-1.552-54.112-4.272-75.92-7.888 26.144 6.56 62.656 11.456 104.72 13.76 84.912-4.64 147.2-19.872 147.2-37.936 0-12.064-27.68-22.848-71.28-30.064z" fill="#D6F9FF"/><path d="M389.28 287.704c.08-.112.16-.24.24-.368 1.808-2.88 1.504-5.488-.656-5.824-2.128-.336-5.296 1.648-7.104 4.464l-.672-.144c-.864-3.216-3.232-6.064-5.36-6.4-2.064-.336-3.152 1.84-2.528 4.912-29.744-5.216-74.08-8.528-123.6-8.528-89.568 0-162.176 10.832-162.176 24.176 0 8.608 30.176 16.16 75.6 20.448 4.72 1.824 10.368 3.392 16.496 4.448 10.352 1.776 19.648 1.68 25.456.096 1.808 2.864 9.648 5.104 18.896 5.2 7.504.08 13.872-1.28 16.72-3.312 2.496 1.248 7.008 2.048 12.096 1.968 3.632-.048 6.912-.544 9.328-1.312-.48 2.72.432 4.688 2.448 4.688 2.512 0 5.792-3.072 7.328-6.88.192-.48.352-.944.464-1.392h.064c.032.096.08.208.112.304 1.52 3.792 4.8 6.88 7.328 6.88 2.512 0 3.328-3.072 1.792-6.88a7.447 7.447 0 0 0-.224-.528c24.912-.736 47.76-2.32 67.152-4.544 1.312 1.52 4.496 2.496 8.288 2.368 4.336-.144 8.048-1.712 9.104-3.68 1.984 1.408 5.856 1.952 10.256 1.216 3.632-.608 6.816-1.936 8.832-3.536 2.736.976 7.12.848 12-.544 8.048-2.304 14.416-7.248 14.208-11.024-.032-.464-.144-.896-.368-1.28.656-.88.992-1.792.992-2.688-.016-4.512-8.224-8.704-22.512-12.304z" fill="#A5D12C"/><path d="M150.448 324.744c1.808.224 3.488-.112 3.76-.736.272-.624-.96-1.328-2.752-1.536-1.808-.224-3.488.112-3.76.736-.272.624.96 1.312 2.752 1.536zm77.232 5.808c-15.072-1.328-27.68.992-30.784 5.312-1.04-.096-2.096-.176-3.168-.256-1.856-.128-3.68-.224-5.456-.288.16-.24.256-.496.256-.752 0-2.912-10.688-5.904-23.872-6.704-6.304-.384-12.048-.192-16.32.448-1.056-.496-2.512-.896-4.192-1.104-3.824-.464-7.408.24-8 1.568-.528 1.2 1.504 2.496 4.656 3.088.336 2.496 8.4 5.024 19.024 6.144-3.952 1.312-6.24 3.024-6.24 5.056 0 5.648 17.968 11.488 40.128 13.024 18.368 1.28 33.84-.8 38.624-4.752 15.184.608 26.848-2.608 26.848-7.744.016-5.664-14.096-11.488-31.504-13.04zm-89.952-7.648c.4-.896-1.36-1.888-3.936-2.192-2.56-.32-4.96.16-5.36 1.056-.4.896 1.36 1.888 3.936 2.192 2.56.32 4.96-.16 5.36-1.056zm223.184 9.376c-13.184 1.024-23.872 4.208-23.872 7.12s10.688 4.448 23.872 3.424c13.184-1.024 23.872-4.208 23.872-7.12s-10.688-4.448-23.872-3.424z" fill="#F2FDFF"/><path d="M338.144 344.328c-13.184 1.024-23.872 4.208-23.872 7.12s10.688 4.448 23.872 3.424c13.184-1.024 23.872-4.208 23.872-7.12-.016-2.912-10.688-4.448-23.872-3.424zm-111.2-1.92c.16.384.256.784.256 1.168 0 5.648-17.968 8.992-40.128 7.44-13.808-.96-25.984-3.584-33.2-6.8 2.256 5.264 19.248 10.416 39.872 11.84 22.16 1.536 40.128-1.792 40.128-7.44 0-2.112-2.56-4.272-6.928-6.208z" fill="#D6F9FF"/><path d="M394.816 311.928c-3.824.304-6.464 1.232-5.872 2.08.592.848 4.176 1.296 8 .992 3.824-.304 6.464-1.232 5.872-2.08-.592-.848-4.176-1.296-8-.992zm-3.552-2.528c-.272-.4-1.952-.608-3.76-.464-1.808.144-3.04.576-2.752.976.272.4 1.952.608 3.76.464 1.808-.144 3.04-.576 2.752-.976zm13.92-1.584c-2.56.192-4.32.816-3.936 1.392.4.56 2.784.864 5.36.672 2.56-.192 4.32-.816 3.936-1.392-.4-.56-2.8-.864-5.36-.672z" fill="#FFF"/><path d="M118.384 328.776c.496-.432.768-.944.768-1.536 0-2.928-6.544-6.736-14.624-8.496-7.52-1.632-13.712-.928-14.528 1.552-8.4-1.04-16.064-.896-21.968.192a23.15 23.15 0 0 0-1.52-.24c-5.792-.784-10.48.288-10.48 2.384 0 .752.592 1.52 1.6 2.24-1.04 1.072-1.6 2.272-1.6 3.616 0 7.072 15.76 14.944 35.2 17.568 19.44 2.64 35.2-.96 35.2-8.032.032-3.104-3.008-6.352-8.048-9.248zm-59.84-15.68c-1.952-.128-3.52.336-3.52 1.04s1.584 1.392 3.52 1.52c1.952.128 3.52-.336 3.52-1.04.016-.704-1.568-1.392-3.52-1.52zm10.032.016c-1.6-.112-2.88.272-2.88.848s1.296 1.136 2.88 1.248c1.6.112 2.88-.272 2.88-.848 0-.592-1.296-1.136-2.88-1.248zm-5.36-4.768c-1.472-.096-2.656.256-2.656.784s1.184 1.056 2.656 1.152c1.472.096 2.656-.256 2.656-.784.016-.528-1.184-1.04-2.656-1.152z" fill="#F2FDFF"/><path d="M122.768 331.816c-.4 6.512-15.152 9.792-33.296 7.328-15.68-2.128-28.832-7.856-32.368-13.648-.688.912-1.056 1.904-1.056 2.976 0 3.36 3.552 6.896 9.376 9.968-.864.368-1.36.896-1.36 1.584 0 2.112 4.688 4.832 10.48 6.096 5.408 1.184 9.856.656 10.416-1.136 2.048.416 4.144.768 6.304 1.056 19.44 2.64 35.2-.96 35.2-8.032 0-2.032-1.328-4.144-3.696-6.192z" fill="#D6F9FF"/><g fill="#8CB51B"><path d="M16.16 299.352c-2.16.336-2.464 2.944-.656 5.824 1.808 2.88 5.008 4.928 7.184 4.576 2.16-.336 2.464-2.944.656-5.824-1.808-2.864-5.024-4.912-7.184-4.576z"/><path d="M29.296 297.272c-2.16.336-4.592 3.296-5.408 6.576-.816 3.296.272 5.68 2.432 5.328 2.16-.336 4.592-3.296 5.408-6.576.816-3.28-.272-5.664-2.432-5.328z"/></g><path d="M102.112 291.176c-4.912.736-8.88 2.432-8.88 3.808s3.984 1.888 8.88 1.168c4.912-.736 8.88-2.432 8.88-3.808s-3.968-1.888-8.88-1.168zm16.576.688c-3.024.448-5.472 1.504-5.472 2.352 0 .848 2.448 1.168 5.472.72 3.024-.448 5.472-1.504 5.472-2.352 0-.848-2.448-1.168-5.472-.72zm-30.8 6.864c-3.024.448-5.472 1.504-5.472 2.352 0 .848 2.448 1.168 5.472.72 3.024-.448 5.472-1.504 5.472-2.352 0-.848-2.448-1.168-5.472-.72z" fill="#B6E043"/><path d="M455.84 307.112c-9.808-1.088-17.76 2.88-17.76 8.88 0 6 7.952 11.728 17.76 12.816 9.808 1.088 17.76-2.88 17.76-8.88 0-5.984-7.952-11.728-17.76-12.816z" fill="#F2FDFF"/><path d="M136.928 343.048a3.82 3.82 0 0 0-3.232.816c-.176-.448-.656-.768-1.424-.928-2.464-.512-7.104.896-10.336 3.136-3.248 2.24-3.872 4.464-1.392 4.976 2.464.512 7.104-.896 10.336-3.136.432-.304.816-.592 1.152-.896a1.772 1.772 0 0 0-.032.304c-.256 2.848 1.552 5.568 4.016 6.08 2.464.512 4.672-1.392 4.928-4.256.256-2.88-1.552-5.6-4.016-6.096z" fill="#A5D12C"/><path d="M33.696 316.52c-2.112 1.392-2.768 4.576-1.472 7.136.048.096.096.176.144.256a13.559 13.559 0 0 0-1.408-.4c-3.84-.88-8.656-.48-10.768.912s-.704 3.216 3.136 4.096c3.84.88 8.656.48 10.768-.912.656-.432.976-.912.976-1.392a3.795 3.795 0 0 0 3.296-.448c2.112-1.392 2.768-4.576 1.472-7.136-1.296-2.544-4.048-3.488-6.144-2.112zM249.6 275.816c-25.328 0-49.296.864-70.656 2.416.272-.592.48-1.216.64-1.856.816-3.296-.272-5.68-2.432-5.328-2.16.336-4.592 3.296-5.408 6.576-.064.256-.112.512-.16.768a7.19 7.19 0 0 0-.384-.672c-1.808-2.88-5.008-4.928-7.184-4.576-2.16.336-2.464 2.944-.656 5.824.112.192.24.368.368.544-2.896.272-5.744.56-8.512.848-1.76 1.536-2.704 3.152-2.704 4.8 0 11.872 48.24 21.488 107.728 21.488 59.488 0 107.728-9.616 107.728-21.488 0-.576-.112-1.152-.336-1.712-29.584-4.72-71.52-7.632-118.032-7.632z" fill="#94BF1C"/></g></svg>