<svg width="124" height="195" viewBox="-1 -1 124 195" xmlns="http://www.w3.org/2000/svg"><path fill="#AFD7F2" d="M101.475 91.2l-3.15 3.225-2.914 1.05h-5.786l-6.675-3-3.375-2.824-2.204-3.476L75.3 82.95h-2.775l-1.362.75.687 3.075 2.7 5.7s4.8 5.625 4.875 5.85c.075.225 5.475 3.3 5.475 3.3l7.425 1.725 6.9-1.875 4.65-3.825 2.1-3.525-4.5-2.925z"/><path fill="#EF463C" d="M106.685 79.8l-.71-2.55h-1.65l-2.175.525-1.275 2.775-1.2 3.45.825 4.592 1.344 2.848 4.841 2.835 4.915.45 5.1-3.075 1.725-4.125L117.45 84l-2.1-.45-1.95.45-2.025 1.987-2.025 1.538-1.95-.375-1.425-1.425.71-5.925"/><path fill="#30419A" d="M76.765 87.331c.038.083.084.161.136.232.223.3.364.602.549.933.354.632.743 1.324 1.272 1.829.302.288.888.94 1.274 1.033-.1.615-.875 1.485-1.284 1.953-.272.313-.812.835-1.281.735-.411-.088-.831-.785-1.037-1.105-.568-.88-1.096-1.895-1.414-2.895-.145-.455-.331-.896-.486-1.347-.144-.418-.21-.873-.411-1.236-.383-.691-1.004-1.085-1.74-1.353-.28-.102-.552-.128-.786.073-.438.377-.405.891-.384 1.431.04 1.049.543 2.054.97 2.986.516 1.13 1.049 2.278 1.821 3.261.393.5.81.982 1.233 1.457.388.435.733.884 1.086 1.334.227.288.528.552.788.811.496.495 1.085.842 1.627 1.274.819.652 1.683 1.209 2.565 1.767.516.327 1.031.659 1.57.947.316.169.626.346.937.524.493.281 1.024.498 1.546.721 1.643.701 3.38 1.208 5.174 1.281.504.02 1.011.008 1.513-.04 3.197-.3 6.39-.42 9.129-2.365a14.895 14.895 0 0 0 1.941-1.671c1.076-1.085 2.085-2.237 3.153-3.33.34-.348.924-.941 1.148-.845 1.784.765 4.318.209 6.013-.575a11.91 11.91 0 0 0 4.401-3.536c1.232-1.6 2.195-3.432 1.763-5.602-.401-2.015-1.368-3.572-3.589-3.934-1.726-.281-2.817.701-3.804 1.935-.535.669-1.082 1.427-1.8 1.822-.735.404-1.685.518-2.543.527-.227.002-.674-.861-.656-1.314.068-1.762.209-3.531.462-5.276.26-1.793-.135-2.941-1.542-3.778-1.228-.731-3.217-.563-4.341.344-1.337 1.08-2.142 2.492-2.512 4.137-.449 1.997-.984 4.026-.329 6.061.469 1.458 1.128 2.855 1.746 4.391-.647.605-1.334 1.347-2.125 1.953-.525.401-1.214.581-1.803.907-2.111 1.171-4.315 1.308-6.663.873-2.795-.518-5.117-1.921-7.293-3.607-.771-.598-1.509-1.194-2.202-1.873-.419-.411-.904-.763-1.259-1.236-.349-.467-.28-1.007-.645-1.481-.274-.356-.642-.94-1.122-.965-.73-.037-1.027.525-.943 1.185.028.213.082.444.177.647zm25.672-8.3c.662-1.083 1.691-1.381 2.756-.742.29.175.514.78.465 1.147-.261 1.965-.69 3.908-.923 5.875-.343 2.902 1.757 4.514 4.64 4.046 2.312-.375 3.29-2.19 4.697-3.556.6-.584 1.114-1.184 2-.996.975.207 1.107 1.104 1.197 1.876.242 2.056-.738 3.553-2.335 4.731-.604.446-1.114 1.088-1.782 1.367-2.487 1.04-5.048 1.416-7.506-.037-1.066-.631-2.041-1.463-2.937-2.327-1.648-1.59-1.56-3.81-1.932-5.415.009-2.445.625-4.277 1.66-5.969zm-4.025 16.344c.298-.606 1.285-1.149 1.813-1.582.363-.299 1.225-1.4 1.731-1.362.186.014.631.655.792.799.672.6 1.263 1.308 2.098 1.68-.178.731-1.078 1.683-1.59 2.21-.72.743-1.606 1.242-2.366 1.899-.218.189-.365.422-.587.601-.297.242-.659.35-.905.665-.115-.624-.106-1.33-.217-1.983a3.373 3.373 0 0 0-.225-.794c-.289-.652-.918-1.371-.544-2.133zm-9.407 1.631c.972-.042 1.958-.007 2.933-.006 1.063.001 2.041-.161 3.099-.2.408-.015.987-.208 1.34.009.138.084.422.605.512.786.419.848.929 2.17.712 3.117-.161.7-1.542.978-2.245 1.083-1.32.197-2.688.256-4.025.256-.811 0-1.498-.246-2.287-.389-.522-.094-.968-.155-1.443-.411l-.15-.25c.547-.631 1.134-1.622 1.323-2.438.111-.477.123-1.052.231-1.557zm-7.394-4.014c.536-.123 1.439.705 1.868.967.798.488 1.612.948 2.43 1.417.501.288 1.042.566 1.582.782.051.176.064.366.048.563-.063.801-.594 1.726-.903 2.365-.419.87-1.134 1.574-2.11 1.182-.965-.388-1.807-1.016-2.639-1.627-.85-.623-1.935-1.194-2.518-2.104-.432-.673.207-.986.598-1.516.336-.459 1.043-1.89 1.644-2.029z"/><path fill="#AFD7F2" d="M46.425 86.775l-2.1 3.6-5.25 3.225-6.225 2.1-7.35-.975-4.8-2.1-4.275 3.525 2.1 2.625L24 101.7l6.525 1.125 6.45-1.35 6.9-3.225 6.422-6 2.203-3.658v-2.281L51.375 84H49.35s-2.025.758-2.1.754c-.075-.004-.825 2.021-.825 2.021z"/><path fill="#EF463C" d="M22.275 89.762l-2.212 3.388-3.638 2.325s-3.825.9-4.125.975c-.3.075-4.5-1.35-4.5-1.35l-3.375-4.95v-4.275l1.8-.75L9.15 86.7l2.325 2.4 2.55.662 2.4-.512 1.35-2.1-.9-5.175s-.6-3.6-.45-3.9c.15-.3 2.175-1.65 2.175-1.65l2.55.6 2.1 3.9v3.829l-.975 5.008z"/><path fill="#30419A" d="M51.089 88.433c-.074.361-.136.713-.225 1.009-.096.32-.213.632-.323.947-.635 1.815-2.425 2.913-3.643 4.274a3.783 3.783 0 0 1-.797.687c-.223.15-.712.583-.985.585-.214.001-.257-.03-.31-.146-.026-.057-.055-.135-.108-.239-.31-.611-.638-1.068-1.152-1.51-.438-.375-.818-.846-1.241-1.252.268.257 3.122-2.198 3.47-2.464.507-.386.968-.876 1.381-1.36.359-.419.251-.972.219-1.489-.027-.448-.162-1.019-.556-1.274a1.017 1.017 0 0 0-1.364.218c-.256.328-.449.751-.621 1.132-.292.65-.604 1.139-1.154 1.589-.516.423-1.103.745-1.679 1.077-1.667.963-3.317 1.954-5.007 2.875a13.086 13.086 0 0 1-6.909 1.578c-1.631-.078-3.404-.426-4.928-1.026-1.275-.501-2.542-1.028-2.22-2.449.42-1.854 1.341-3.472 1.532-5.418.18-1.844-.097-3.678-.762-5.403-.926-2.4-2.099-4.802-5.277-4.882-1.507-.037-3.646 1.054-3.492 2.903.13 1.578.713 3.257 1.016 4.85.227 1.192.654 3.309.068 4.431-.765 1.468-2.395 1.477-3.655.62a14.427 14.427 0 0 1-1.914-1.586c-.914-.884-1.827-1.732-2.948-2.348-.796-.438-1.966-.74-2.784-.192-.807.539-1.567 1.474-1.805 2.425-.383 1.534.187 2.791.713 4.194 1.528 4.072 6.767 7.78 11.587 6.449.409-.113 1.05.131 1.411.423.975.791 1.749 1.871 2.797 2.52 1.942 1.199 3.812 2.428 6.194 2.961 4.236.948 8.354.966 12.39-.447 3.107-1.088 5.97-2.773 8.49-4.886a34.504 34.504 0 0 0 3.082-2.939c.461-.496.932-.983 1.385-1.485.388-.429.746-.79 1.074-1.262.172-.247.337-.504.455-.78.29-.681.684-1.285.731-2.042.018-.292.125-.569.147-.863.026-.333.002-.668 0-1.001-.004-.664-.457-1.441-1.236-1.005-.669.375-.886 1.209-1.047 2.001zm-38.182 7.082c-2.099.216-3.543-.892-4.966-2.015-1.534-1.211-2.2-2.956-2.773-4.734-.129-.402-.134-.879-.069-1.302.14-.898.963-1.332 1.71-.813 1.058.738 2.055 1.58 2.999 2.462 1.358 1.268 2.727 2.443 4.717 2.527 1.726.073 2.94-.685 3.438-2.322.382-1.251.854-2.525.916-3.808.049-1.01-.501-2.04-.717-3.076-.238-1.139-.478-2.289-.544-3.444-.021-.363.461-1 .811-1.079.481-.11 1.225.018 1.56.346 1.659 1.629 2.231 3.725 2.43 5.999.294 3.377-1.051 6.1-3.241 8.473-1.407 1.523-4.261 2.673-6.271 2.786zm12.344 1.159c-.169.931-.233 1.849-.628 2.72-.247.543-.415.985-1.061 1.054-1.098.116-1.97-.742-2.835-1.284-.688-.43-1.229-.956-1.791-1.528-.244-.248-1.235-.896-.991-1.352.03-.054.17-.144.341-.241.27-.152.613-.32.715-.392.363-.257.732-.508 1.032-.839.752-.834 1.512-.855 2.416-.322.527.312 1.123.654 1.709.912.267.117.738.18.96.35.335.255.212.485.133.922zm7.758 4.992c-.985.455-2.282.294-3.317.131-.784-.123-3.462-.176-3.641-.947-.065-.277.093-.504.15-.762.089-.403.513-3.675.894-3.656 1.813.096 3.629.127 5.424.337.41.048.948.654 1.076 1.104.355 1.251.963 3.079-.586 3.793zm9.489-3.586c-.259.786-1.738 1.3-2.405 1.633-.79.395-3.905 1.813-4.019.065-.067-1.037.123-2.083-.31-3.086-.255-.591-.472-.742.183-1.109.414-.232.889-.3 1.313-.506.737-.361 1.456-.742 2.239-1.007.547-.184.786.006 1.123.416l.066.082c.443.551.81 1.158 1.145 1.78.244.455.828 1.237.665 1.732z"/><path fill="#AFD7F2" d="M53.85 86.85l-1.95 8.625-.375 10.05 1.163 5.231 4.987 7.744 4.2.825 5.025.375 4.263-2.175 3.687-6.225 1.425-8.475-.975-7.8-2.035-5.263-1.155-6.584-3.261-2.703s-4.2-1.125-4.575-1.05c-.375.075-6.075-.532-6.3-.004-.225.529-3.825 3.529-3.825 3.529l-.299 3.9z"/><path fill="#EF463C" d="M68.325 120.525l-10.2-.825-2.925 14.55 1.275 1.2 14.688-.675 2.037-1.425-4.875-12.825"/><path fill="#30419A" d="M71.787 87.753c.274.554.436 1.121.615 1.721.208.694.31 1.413.462 2.12.267 1.242.535 2.523.844 3.764.344 1.382.722 2.773.87 4.183.213 2.016.321 4.052.298 6.078-.017 1.492-1.362 2.836-2.891 3.31-4.097 1.269-8.24 1.317-12.415.499-1.59-.312-3.163-.713-4.757-1.007-1.424-.263-1.718-1.287-1.934-2.489-.719-4.014-.485-7.975.519-11.912.325-1.273.651-2.546.946-3.827.123-.534.228-1.004.464-1.491.216-.446.133-1.072.011-1.537-.081-.307-.176-.847-.492-.986-.259-.113-.744-.053-1 .048-.474.186-.612.629-.787 1.06a12.64 12.64 0 0 0-.687 2.304c-.143.705-.268 1.419-.404 2.127-.092.485-.192.985-.262 1.471-.054.371-.023.749-.09 1.12-.197 1.092-.497 2.173-.614 3.273-.606 5.69.295 11.094 2.359 16.384.37.95.913 1.883 1.614 2.636.763.82 1.775 2.008 2.788 2.501.048.645-.223 1.406-.354 2.041-.206 1.001-.436 1.996-.651 2.995-.375 1.749-.621 3.563-1.149 5.268-.41 1.326-.434 2.71-.937 3.99-.431 1.098-.109 2.17 1.067 2.553 1.189.387 2.413.84 3.683.806 4.134-.114 8.266-.356 12.396-.596 1.692-.098 3.166-1.272 3.099-2.53-.053-.969-.319-1.955-.653-2.874-1.289-3.545-2.643-7.067-3.99-10.644-.025-.065 1.335-1.137 1.472-1.32.345-.458.705-.696 1.138-1.081a10.453 10.453 0 0 0 1.544-1.669c.622-.843 1.276-1.65 1.68-2.622.889-2.146 1.624-4.191 1.707-6.55.064-1.853.135-3.711-.014-5.561a18.413 18.413 0 0 0-.47-2.837c-.067-.28-.176-.552-.226-.837-.036-.209.019-.4-.009-.604-.079-.57-.306-1.104-.494-1.644-.156-.447-.146-.873-.287-1.323-.155-.496-.263-.996-.392-1.498-.187-.737-.453-1.451-.718-2.163-.225-.605-.245-1.271-.431-1.899-.337-1.139-.722-2.586-1.702-3.36-.215-.17-.59-.48-.877-.366-.297.118-.613.627-.673.928-.139.69.36 1.269.671 1.831.039.073.077.144.113.216zm-11.718 35.75a324.717 324.717 0 0 1-.675 6.809c-.097.886-.193 1.774-.317 2.657-.037.26-.044.594-.187.829a.566.566 0 0 1-.152.168c-.395.288-1.472.157-1.824-.113-.467-.356-.438-.923-.413-1.456.02-.418.144-.699.238-1.08.123-.494.055-1.01.1-1.512a16.55 16.55 0 0 1 .462-2.619c.256-.987.485-1.929.799-2.896.282-.868.47-1.75.722-2.619.245-.841.701-.473 1.423-.513-.004.779-.108 1.568-.176 2.345zm4.941 9.873c-.138.303-.426.452-.978.486-.667.042-2.022.322-2.544-.187-.295-.288-.308-.503-.289-.9.057-1.23.11-2.472.152-3.711.049-1.467.41-2.873.451-4.35.018-.668.062-1.335.162-1.995.04-.261.043-.766.189-.986.195-.292.371-.243.753-.241.21.001.514-.062.71.015.35.139.336.359.393.768.096.676.071 1.365.207 2.037.239 1.184.168 2.398.387 3.576.281 1.518.483 3.091.519 4.636.007.365-.017.645-.112.852zm5.251-4.659c.334.912.716 1.776 1.125 2.655.214.461.437 1.032.189 1.439a.825.825 0 0 1-.321.294c-.536.293-1.643.346-2.23.323-.88-.034-1.163-.592-1.463-1.341-.18-.454-.404-.932-.533-1.409a55.577 55.577 0 0 1-.961-4.149c-.26-1.37-.475-2.747-.72-4.119-.097-.546-.281-.912.295-1.126.353-.131 1.116-.125 1.467.02.417.173.645.901.798 1.27.837 2.028 1.601 4.084 2.354 6.143zm-4.828-10.312c-5.396.634-8.859-2.313-10.643-7.476 6.236 1.603 12.4 2.578 18.669.345-1.428 3.931-4.094 6.669-8.026 7.131z"/><path fill="#FFF" d="M82.425 161.4l-12.45-15.6-.825 1.425L75.3 170.7l-3.9-1.2-3.675-.15-2.925 1.875-1.35 3.075 1.275 3.525 2.475 3.525 3.225 1.5.225 3.3 1.275 3.6 2.7 2.475 3.375 1.2 2.7-.675 3.737-2.4 3.538 1.275h3.9c.225 0 4.425-2.55 4.425-2.55l1.5-2.7.375-4.425 2.175-1.575 4.2-3.975.825-4.05v-3.225l-2.4-2.55-2.025-1.35-4.875-.6-1.05-4.125-2.4-2.55-3.3-1.125-2.775.225-3 1.8-1.125 2.55z"/><path fill="#30419A" d="M97.551 163.526c-.8-.02-.974-.261-.97-1.054.023-3.359-1.953-5.829-5.274-6.402-3.641-.628-6.97-.146-9.234 3.584-.493-.811-.897-1.618-1.432-2.327-1.704-2.26-3.342-4.585-5.222-6.692-1.854-2.077-3.201-4.562-5.292-6.437-.16-.144-.165-.46-.322-.612-.268-.258-.699-.695-.884-.62-.393.162-.879.559-.956.937a5.935 5.935 0 0 0-.019 2.258c.708 3.706 1.411 7.414 2.259 11.089.614 2.663 1.481 5.267 2.178 7.912.296 1.118.449 2.273.664 3.397-.25.067-.331.115-.399.101a2.923 2.923 0 0 1-.454-.145c-1.699-.655-3.382-.877-5.205-.346-2.005.584-5.206 4.876-4.758 6.909.489 2.212 1.068 4.454 3.078 5.913 1.031.746 1.971 1.668 3.096 2.22 1.134.556 1.277 1.389 1.26 2.413-.049 2.988 1.002 5.337 3.545 7.12 3.301 2.314 7.762 2.367 10.887-.197.606-.498 1.124-.602 1.845-.354 1.153.397 2.318.798 3.511 1.023 2.066.389 3.613-.998 5.336-1.757 4.095-1.801 5.525-5.648 5.113-9.319 2.501-1.037 4.366-2.744 5.484-5.138 1.164-2.493 1.89-5.086.656-7.812-1.654-3.653-4.485-5.562-8.491-5.664zm6.508 10.407c-.471 2.613-1.907 4.546-4.173 5.922-.679.413-1.054.232-1.658-.175a10.418 10.418 0 0 0-2.97-1.392c-.441-.124-1.284.238-1.551.641-.508.766.027 2.161.864 2.561a8.497 8.497 0 0 0 2.024.687c.925.179 1.134.699 1.029 1.541-.368 2.964-1.773 5.097-4.62 6.289-1.359.568-2.587 1.495-4.163 1.164-.885-.186-1.752-.469-2.608-.763-.152-.053-.248-.371-.302-.582-.472-1.833-.909-3.675-1.401-5.503-.202-.749-.779-1.195-1.54-.97-.776.228-1.048.86-.88 1.7.28 1.399.578 2.805.699 4.222.04.47-.313 1.149-.705 1.454-3.417 2.656-6.044 1.836-8.822-.49-.642-.539-1.05-1.462-1.343-2.285-.315-.887-.438-1.859-.519-2.805-.138-1.619.577-2.663 2.179-2.791.914-.073 1.064-.637 1.243-1.159.095-.276-.218-.906-.509-1.05-.486-.24-1.125-.361-1.656-.271-.556.094-1.062.495-1.587.763-1.738.889-2.463.908-3.7-.475-1.019-1.139-1.841-2.486-2.592-3.828-.617-1.103-.25-2.235.42-3.252.131-.198.277-.388.396-.593 1.283-2.213 3.534-3.019 5.872-1.977.992.441 1.849 1.181 2.822 1.679.483.249 1.351.534 1.578.315.378-.364.599-1.157.502-1.7-.256-1.428-.72-2.817-1.098-4.221l-3.482-12.951c-.423-1.572-.852-3.142-1.262-4.719-.053-.205-.007-.436-.007-.656l.27-.14c1.376 1.722 2.762 3.438 4.124 5.172.637.813 1.228 1.664 1.837 2.501 1.31 1.801 2.792 3.508 3.861 5.442.61 1.104 1.15 2.141 2.237 2.765.351.203.941.294 1.271.131.241-.121.369-.755.32-1.133-.329-2.546.734-4.09 3.245-4.701 1.7-.414 3.344-.705 4.895.494 1.837 1.418 2.328 4.81.771 6.536-.756.839-.768 1.445-.057 2.239.765.853 1.701.761 2.366-.166.463-.647 1.096-1.638 1.669-1.65 1.456-.027 3.208-.013 4.326.744 2.652 1.796 3 4.02 2.385 7.436z"/><path fill="#AFD7F2" d="M92.175 28.5h-33.75l-27.9 2.475L31.95 83.55l1.65 3.525 3 .45L93.525 85.2l.45-3.225-.9-48.75-.9-4.725"/><path fill="#F7EC1E" d="M30.525 39.75L2.4 52.575l1.35 1.8 27.6 9.45-.825-24.075m19.05-10.425c.225 0 25.35-1.5 25.35-1.5l-14.25-25.65-11.1 27.15zM93.6 40.95l.075 26.55L121.2 53.4 93.6 40.95"/><path fill="#30419A" d="M95.405 67.466c3.283-1.575 6.567-3.151 9.89-4.64 2.896-1.297 5.899-2.367 8.749-3.754 2.623-1.276 5.424-2.299 7.49-4.548 1.32-1.437 1.191-2.689-.594-3.646-.721-.387-1.567-.537-2.287-.924-2.008-1.08-3.987-2.157-6.234-2.744-1.855-.486-3.612-1.338-5.424-1.994-1.15-.416-2.336-.733-3.478-1.167-2.148-.818-4.256-1.747-6.419-2.521-2.055-.735-2.074-.675-2.188-2.779-.018-.318-.092-.634-.102-.952-.074-2.455-.266-4.916-.162-7.365.066-1.54-1.702-3.506-2.806-3.556a469.3 469.3 0 0 0-7.597-.268c-1.687-.048-3.349-.038-5.037-.105-.95-.037-3.44.298-4.084-.225-.453-.367-.453-1.038-.64-1.58-.68-1.968-2.053-3.876-2.956-5.762a364.694 364.694 0 0 0-3.212-6.559c-1.535-3.045-3.201-6.026-4.913-8.977-.57-.984-1.393-1.853-2.235-2.631-.318-.294-1.057-.338-1.517-.202-.304.09-.481.692-.659 1.09-.173.387-.231.826-.414 1.207-.598 1.24-1.376 2.413-1.821 3.703-1.325 3.841-3.429 7.345-4.569 11.286-.984 3.4-2.537 6.637-3.887 9.925-.12.291-.586.583-.917.618-1.007.106-2.032.037-3.043.125-4.392.384-8.783.8-13.174 1.205-1.774.164-1.946.698-1.97 2.686-.016 1.306.055 2.611.054 3.916 0 .654.257 1.525.036 2.154-.285.813-1.126 1.065-1.887 1.453-1.777.905-3.636 1.643-5.501 2.345-5.132 1.932-9.948 4.275-14.944 6.496-1.994.887-3.932 1.913-5.839 2.977-.461.257-.902.876-.975 1.383-.051.352.458.95.863 1.176 5.02 2.8 10.531 4.397 15.878 6.395a624.991 624.991 0 0 0 9.741 3.527c1.187.421 2.4.762 3.851 1.218 0 1.744-.076 3.612.018 5.472.222 4.385.468 8.662.509 13.053.018 1.918 1.309 4.636 3.598 4.614 2.275-.022 4.551-.11 6.826-.144.462-.008.884-.065 1.34-.104.495-.04.943.039 1.432-.069.657-.144 1.428-.054 2.1-.054 1.473 0 2.946.028 4.419.029 1.447.001 2.871-.071 4.311-.128.44-.017.882.02 1.323.004 1.116-.04 2.234-.035 3.35-.034 1.404.002 2.809-.004 4.213-.029.912-.016 1.824-.029 2.736-.059.81-.027 1.758.04 2.539-.185.745-.214 1.522-.168 2.298-.199.883-.038 1.764-.082 2.647-.097 1.105-.019 2.239-.172 3.341-.287.721-.075 1.45-.182 2.175-.207.728-.024 1.425-.137 2.157-.161.806-.025 1.613-.053 2.419-.083 1.596-.059 3.192-.123 4.789-.175 1.319-.043 2.671.08 3.945-.183.831-.172 2.089-.795 2.208-1.402.305-1.553.112-3.212.057-4.826-.087-2.592-.24-5.181-.328-7.773a59.616 59.616 0 0 1 .004-4.143c.012-.283.257-.696.507-.816zm-66.736-5.587c-1.428-.416-2.833-.909-4.247-1.372-2.589-.848-5.188-1.672-7.768-2.549a324.75 324.75 0 0 1-8.408-2.966c-1.281-.475-2.5-1.115-3.728-1.875 7.878-4.632 16.509-7.257 24.895-10.957l.744 19.737c-.594 0-1.073.102-1.488-.018zM53.84 20.338a481.767 481.767 0 0 1 3.501-8.903c.899-2.201 1.984-4.326 2.903-6.519.384-.916.789-.874 1.209-.161 1 1.702 1.987 3.418 2.866 5.184a308.672 308.672 0 0 1 4.179 8.773c.609 1.326 1.038 2.733 1.626 4.069.553 1.258 1.208 2.471 1.814 3.706.033.067.027.153.047.283-.027-.171-10.366.543-11.323.593-2.548.134-5.172.035-7.697.342-.743.09-1.35.156-2.074.259.606-2.595 1.993-5.142 2.949-7.626zm38.468 62.571c-.014.739-.269 1.236-1.064 1.281-4.453.255-8.904.598-13.36.711-2.288.057-4.542.06-6.84.351-3.081.391-6.239.155-9.363.227-2.937.067-5.872.191-8.808.28-4.595.138-9.242.291-13.85.341-1.206.013-3.671.287-4.779-.349-1.269-.729-1.176-3.105-1.239-4.36-.128-2.53-.225-5.097-.339-7.65-.096-2.121-.133-4.244-.207-6.365-.09-2.562-.212-5.124-.281-7.687-.076-2.775-.082-5.552-.166-8.327-.075-2.474-.277-4.945-.312-7.42-.054-3.897-.014-7.796-.014-11.998 2.947-.213 5.754-.402 8.558-.625 1.376-.11 2.744-.328 4.122-.418 1.82-.119 3.65-.105 5.467-.247 2.878-.226 5.746-.57 8.624-.789 1.302-.099 2.619.022 3.927-.028 3.231-.123 6.459-.331 9.69-.421 3.661-.102 7.325-.174 10.986-.14 2.486.023 4.969.294 7.457.369 1.001.03 1.303.64 1.377 1.391.217 2.238.397 4.48.51 6.725.091 1.856.109 3.718.082 5.576-.04 2.686-.215 5.372-.216 8.057-.001 4.042.11 8.083.154 12.125.041 3.719.089 7.438.073 11.157-.015 2.744-.137 5.488-.189 8.233zm2.429-39.972c2.093.874 3.989 1.71 5.918 2.46 3.686 1.435 7.413 2.761 11.077 4.248 2.17.88 4.587 1.594 6.593 2.833 1.413.872.483 1.074-.516 1.648-.769.443-1.425 1.066-2.213 1.492-1.705.922-3.389 1.896-5.158 2.68-1.873.83-3.843 1.439-5.754 2.188-3.213 1.26-6.413 2.555-9.774 3.897-.808-7.21.217-14.218-.173-21.446z"/></svg>