<svg xmlns="http://www.w3.org/2000/svg" width="152.172" height="117.282" viewBox="-12.741 -7.092 152.172 117.282"><defs><style/></defs><g id="ID0.38251260574907064" transform="translate(.25)"><g id="Back_Wing"><path id="Outer_1_" fill="#279AFA" d="M127.99 98.015c-.04-12.507 14.096-34.787 23.849-44.198 2.262-2.181 4.042-7.096 3.409-16.196-.283-4.049-1.092-8.288-2.985-12.796 0 0-.834-4.127-5.409-11.547-7.946-12.881-33.181-22.585-29.156 4.853 1.204 8.215 5.503 16.614 8.062 20.082-1.646-.808-9.817-5.424-13.07-1.365-4.161 5.194 11.616 17.001 11.616 17.001-4.129-1.627-9.709-2.738-11.378.555-2.34 4.623 5.717 11.542 5.717 11.542-2.405.207-6.668.071-7.454 2.41-.786 2.339 2.683 7.238 4.244 8.587-4.485.502-6.739 2.489-6.764 4.447-.218 2.082 2.874 6.231 7.643 9.295-2.715 5.16.213 10.823 2.583 12.029 2.269 1.156 4.47.937 6.649-.359 1.028-.602 2.453-1.831 2.444-4.34z" transform="translate(.6 -.25) scale(.7351)"/><path id="Inner_2_" fill="#0043A5" d="M127.99 98.015c-.04-12.507 14.096-34.787 23.849-44.198 2.262-2.181 4.042-7.096 3.409-16.196-.283-4.049-1.092-8.288-2.985-12.796-2.765-6.704-14.283-19.546-21.868-17.708-13.503 3.273 5.023 36.941 5.023 36.941-26.906-7.838-2.886 13.636-2.886 13.636-24.408-4.544-6.401 11.039-6.401 11.039-16.837-.455-3.31 11.165-3.31 11.165-14.275.608-6.507 10.788-6.507 10.788-2.715 5.16.213 10.823 2.583 12.029 2.269 1.156 4.47.937 6.649-.359 1.028-.603 2.453-1.832 2.444-4.341z" transform="translate(.6 -.25) scale(.7351)"/></g><path id="Back_Foot" fill="#FFA600" d="M130.686 121.31c2.035-3.524 4.691-5.063 8.737-5.56 1.737-.199 2.978-.149 4.368.894 1.266.943-.491 3.497-6.174 4.491 6.109.568 9.351 1.267 9.847 3.65.373 1.861-2.283 2.854-4.169 2.581-4.293-.62-8.985-2.283-11.02 1.589-.521.993-.745 1.96-1.787 2.283-1.142.348-2.532-.372-2.681-1.588-.248-2.16.949-3.49.397-5.56-.198-.745-8.339-3.872-11.665-5.212 1.638-.397 3.797-1.812 5.411-2.284 1.092-.323 6.006 2.333 8.736 4.716z" transform="translate(.65 -.25) scale(.7351)"/><g id="Body"><path id="Body_1_" fill="#279AFA" d="M138.129 96.332c.157-.934.418-1.913.785-2.952 2.131-6.038 6.535-9.625 12.644-11.649a44.367 44.367 0 0 1 2.951-.864c4.486-1.146 9.451-1.582 13.558.184a18.346 18.346 0 0 0-2.444-2.445c-13.089-10.924-29.195-5.398-43.757 3.694-11.152 6.961-39.497 26.142-47.168 24.721-25.164-18.56-34.095-15.629-36.083-11.651-1.847 3.765 2.415 7.956 5.825 10.513-6.128 1.047-9.68.621-10.087 4.831-.374 3.859 5.114 4.404 8.95 5.398-3.41 1.42-6.307 3.668-4.991 6.445 1.279 2.7 7.814 3.268 11.792 2.131-2.131 3.978-5.114 13.212 4.139 9.893 8.592-3.083 13.496-7.813 20.742-13.638 11.223 11.649 27.845 16.906 35.943 13.78 14.174-5.47 22.61-18.465 27.513-33.243-.505-1.619-.624-3.293-.312-5.148z" transform="translate(.6 -.25) scale(.7351)"/><path id="Eye_Spot" fill="#0043A5" d="M151.558 81.73a44.367 44.367 0 0 1 2.951-.864c-5.875-4.838-13.858-4.009-21.212-.706-4.639 2.088-7.823 7.101-4.93 10.966 3.486 4.658 7.887 5.578 9.763 5.206.157-.934.418-1.913.785-2.952 2.13-6.039 6.534-9.626 12.643-11.65z" transform="translate(.6 -.25) scale(.7351)"/><path id="Beak" fill="#FFA600" d="M169.885 82.014a12.192 12.192 0 0 0-1.818-.965c-4.107-1.766-9.072-1.33-13.558-.184-1.012.259-2.003.55-2.951.864-6.109 2.024-10.513 5.611-12.644 11.649a17.878 17.878 0 0 0-.785 2.952c-.312 1.855-.193 3.529.311 5.147.596 1.912 1.738 3.743 3.458 5.682 3.872 4.369 10.778 6.765 15.467 3.036-3.907-1.279-5.877-5.202-5.38-9.287 11.915-4.068 20.581 14.543 23.157 26.424 13.38-29.332-5.257-45.318-5.257-45.318z" transform="translate(.6 -.25) scale(.7351)"/></g><path id="Front_Foot" fill="#FFA600" d="M125.14 136.018c3.666-4.525 7.764-6.106 13.593-5.902 2.5.108 5.366 1.081 5.846 3.521.866 4.405-9.661 1.989-11.792 4.12 7.813-.995 15.121 3.45 15.289 6.928.109 2.714-3.866 3.523-6.471 2.715-5.93-1.838-12.188-5.238-15.931-.222-.959 1.287-1.492 2.605-3.037 2.827-1.691.236-3.495-1.093-3.433-2.845.133-3.107 2.825-4.878 1.806-7.769-1.578-4.476-9.959-7.175-15.321-9.978 2.404-.194 6.071-1.459 7.92-3.164 1.987.71 8.205 5.791 11.531 9.769z" transform="translate(.65 -.25) scale(.7351)"/><g id="Eye"><path id="White" fill="#FFF" d="M148.317 83.162c4.713 5.285-3.228 13.114-10.224 7.915-2.731-2.03-2.284-5.958-.742-7.712 2.52-2.868 8.17-3.34 10.966-.203z" transform="translate(.6 -.25) scale(.7351)"/><path id="Pupil" fill="#272525" d="M146.605 86.058c.624 0 1.189.228 1.598.596.409.368.662.876.662 1.437a1.93 1.93 0 0 1-.662 1.437 2.385 2.385 0 0 1-1.598.596 2.385 2.385 0 0 1-1.598-.596 1.93 1.93 0 0 1-.662-1.437c0-.561.253-1.069.662-1.437a2.385 2.385 0 0 1 1.598-.596z" transform="translate(.6 -.25) scale(.7351)"/></g><g id="Front_Wing"><path id="Outer" fill="#279AFA" d="M118.917 92.534c-14.952-8.105-32.326-39.497-37.199-57.27-1.13-4.12-5.833-9.449-17.106-14.623-5.017-2.303-10.602-4.1-17.216-4.778 0 0-5.469-1.696-17.306-1.071-20.55 1.086-48.579 24.875-13.212 37.957 10.588 3.917 23.414 4.261 29.221 3.468-2.037 1.438-12.872 8.181-10.148 14.708 3.486 8.353 27.859-2.781 27.859-2.781-4.634 3.867-9.596 9.802-6.753 13.94 3.99 5.806 17.5.702 17.5.702-1.321 3.005-4.262 8.003-1.983 10.466 2.279 2.462 10.386 1.515 13.015.533-2.324 5.68-1.423 9.664.897 10.969 2.343 1.618 9.311.632 16.074-3.06 4.389 6.604 13.055 6.799 16.039 4.757 2.859-1.953 4.031-4.724 3.907-8.169-.05-1.621-.589-4.121-3.589-5.748z" transform="translate(.6 -.25) scale(.7351)"/><path id="Inner_1_" fill="#0043A5" d="M118.917 92.534c-14.952-8.105-32.326-39.497-37.199-57.27-1.13-4.12-5.833-9.449-17.106-14.623-5.017-2.303-10.602-4.1-17.216-4.778-9.802-1.071-32.636 4.304-35.386 14.554C7.116 48.664 59.37 48.5 59.37 48.5c-26.892 27 14.392 12.333 14.392 12.333-21.333 26.167 9 14.833 9 14.833-11.518 19.798 11.166 11.229 11.166 11.229-8.578 17.43 8.632 14.797 8.632 14.797 4.389 6.604 13.055 6.799 16.039 4.757 2.859-1.953 4.031-4.724 3.907-8.169-.05-1.619-.589-4.119-3.589-5.746z" transform="translate(.6 -.25) scale(.7351)"/></g><g id="L_Eye"><path id="Eyeball_1_" fill="#FFF" stroke="#000" d="M48.638 22.831c2.926 4.48 2.618 9.862-.682 12.015-3.303 2.159-8.352.272-11.275-4.208-2.928-4.48-2.624-9.86.678-12.017 3.302-2.156 8.35-.272 11.279 4.21" transform="rotate(31.046 -8.94 171.662) scale(.77378)"/><path id="Pupil_1_" d="M46.85 28.719c0 1.081-.803 1.957-1.801 1.957-.992 0-1.804-.878-1.804-1.957 0-1.08.812-1.957 1.804-1.957.996 0 1.801.877 1.801 1.957" transform="rotate(31.046 -8.94 171.662) scale(.77378)"/></g></g></svg>