<svg width="120" height="120" viewBox="0 0 120 120" xmlns="http://www.w3.org/2000/svg"><g fill="none" fill-rule="evenodd"><path d="M0 0h120v120H0z"/><ellipse fill="#FFC31A" fill-rule="nonzero" cx="60" cy="69.48" rx="54.05" ry="17.58"/><ellipse fill="#FFF017" fill-rule="nonzero" cx="60" cy="68.34" rx="54.05" ry="17.58"/><ellipse stroke="#F4A721" stroke-width="1.259" stroke-linecap="round" cx="60" cy="67.44" rx="42.2" ry="13.73"/><ellipse stroke="#F4A721" stroke-width="1.259" stroke-linecap="round" cx="60" cy="67.89" rx="33.13" ry="10.78"/><ellipse stroke="#DBDBDB" stroke-width=".457" cx="60.92" cy="68.12" rx="24.06" ry="7.83"/><path d="M95.17 69.22v-.08a3.11 3.11 0 0 0-.2-1.07l-4.11-24.69a2 2 0 0 0 0-.4c0-4.25-13.72-7.69-30.64-7.69S29.61 38.73 29.61 43a2 2 0 0 0 .09.59L26 69.24h.22c.2 5.49 15.56 9.93 34.48 9.93 18.92 0 34.3-4.43 34.47-9.93v-.02z" fill="#CF620D" fill-rule="nonzero"/><path d="M95 68.28l-2.59-15.37c-5.9 7.56-20.6 12.92-37.82 12.92-10.52 0-20.11-2-27.32-5.29L26 69.46h.22c.2 5.49 15.56 9.93 34.48 9.93 18.92 0 34.3-4.39 34.47-9.93v-.08a3.11 3.11 0 0 0-.17-1.1z" fill="#BA550F" fill-rule="nonzero"/><ellipse fill="#E27830" fill-rule="nonzero" cx="60.58" cy="41.7" rx="28.81" ry="5.99"/><path d="M62.07 38.49h-3.84a2.57 2.57 0 0 1-2.56-2.56v-.43a2.57 2.57 0 0 1 2.56-2.56l2.12.23 1.73-.23a2.27 2.27 0 0 1 2.19 1.61c.175.294.3.615.37.95v.43a2.57 2.57 0 0 1-2.57 2.56z" fill="#ED3200" fill-rule="nonzero"/><path d="M62.07 37.21h-3.84a2.57 2.57 0 0 1-2.52-2.14 2.54 2.54 0 0 0 0 .43v.43a2.57 2.57 0 0 0 2.56 2.56h3.84a2.57 2.57 0 0 0 2.56-2.56v-.43c-.04-.14-1.34 1.71-2.6 1.71z" fill="#BC1F00" fill-rule="nonzero"/><path d="M55.88 35.07s.85-.64 1.28-.43a6.24 6.24 0 0 0 1.92.43c.43 0 1.92-.64 2.14-.43.22.21 1.71.85 2.14.43a.62.62 0 0 1 .8-.18" stroke="#C1272D" stroke-width=".214"/><path d="M56 36.46s.75-.55 1.18-.32c.43.23 1.16-.33 1.59-.33a3.69 3.69 0 0 1 1.71.43c.22.24 2.35.69 2.78.21.43-.48 1.07 0 1.07 0m-7.7 1.29s1.28-.21 1.49 0c.21.21 1.71.43 1.92 0 .21-.43 1.28-.21 1.49 0a1.82 1.82 0 0 0 1.49 0 1.05 1.05 0 0 1 .64-.21" stroke="#C1272D" stroke-width=".226"/><path d="M52.35 37.74a5.62 5.62 0 0 1-2.51.64c-1.39 0-2.51-.29-2.51-.64 0-.35 1.12-.64 2.51-.64a5.62 5.62 0 0 1 2.51.64zm14.31 0A4.82 4.82 0 0 1 69 37.1c1.27 0 2.3.29 2.3.64 0 .35-1 .64-2.3.64a4.82 4.82 0 0 1-2.34-.64zM60.2 40.2s1.23.62 1.23 1.39a1.24 1.24 0 1 1-2.46 0c.03-.77 1.23-1.39 1.23-1.39z" fill="#F2F2F2" fill-rule="nonzero"/></g></svg>