<svg width="120" height="120" viewBox="0 0 120 120" xmlns="http://www.w3.org/2000/svg" xmlns:xlink="http://www.w3.org/1999/xlink"><defs><path id="a" d="M.535.365H20.14v17.756H.535z"/><path id="c" d="M.62.255H56.5v58.263H.62z"/><path id="e" d="M.063.365h19.604v17.756H.063z"/></defs><g fill="none" fill-rule="evenodd"><path d="M43.206 91.78c.567.057 1.14.018 1.71-.008.411-.02 1.271.088 1.706-.096.639.961 1.173 1.966 1.448 3.04-.33-.072-.66-.148-.99-.225-1.54-.557-2.844-1.448-3.874-2.712m-1.61-2.84c1.008.093 2.027.091 3.038.122.018 0 .033-.005.048-.008.527.69 1.08 1.39 1.592 2.113a.941.941 0 0 1-.224.1c-.98.267-2.085.03-3.095.195a9.82 9.82 0 0 1-.862-1.396 11.307 11.307 0 0 1-.497-1.126m-1.081-7.763c.581 2.412 1.861 4.602 3.257 6.634.17.248.35.497.536.746-.253.115-.562.06-.96.05-.624-.016-1.248-.035-1.873-.008-.817-2.354-.932-4.93-.96-7.422m5.178 3.91c-.067 1.012-.544 2.225-1.018 3.1-.03.053-.06.095-.091.137l-.022-.029c-1.552-2.183-2.872-4.44-3.695-6.976 1.535 1.352 3.361 2.34 4.826 3.767m1.197 1.411c.315.468.588.945.825 1.432-.224.848-.533 2.335-1.166 3.013-.54-.744-1.116-1.465-1.65-2.185.442-1.073.944-2.139 1.179-3.275.29.314.563.65.812 1.015m1.928 8.374l-.285-.059c-.301-1.22-.914-2.325-1.635-3.374.187-.287.306-.758.408-1.001.26-.62.481-1.253.688-1.89.823 1.985 1.04 4.115.824 6.324m-15.086-4.319c.546.271 1.098.533 1.652.788-1.824.08-3.63.363-5.443.576-.213-.265-.666-.491-.868-.69a6.974 6.974 0 0 1-.829-1.02c.088-.006.174-.017.262-.023 1.667-.1 3.545-.09 5.226.37m3.25-6.088c-.208.292-.585.46-.853.69a3.566 3.566 0 0 0-.508.545c-.116-.595-.231-1.189-.341-1.783.433-.39.853-.798 1.275-1.2.152.465.282.939.377 1.423.021.108.033.217.05.325m.108 3.037a10.809 10.809 0 0 1-.356 1.866c-.08.283-.174.563-.28.838-.219-1.31-.465-2.615-.719-3.915.365-.515.882-.846 1.334-1.251.093.817.103 1.644.02 2.462m-1.797-1.128c.286 1.37.575 2.739.806 4.108-1.182-1.371-1.817-2.941-2.103-4.606.427.18.862.34 1.297.498m-.47-2.348c.115.617.24 1.233.366 1.848a17.57 17.57 0 0 0-1.257-.416 15.152 15.152 0 0 1-.127-2.123c.316.257.683.471 1.019.691m-.304-5.243a14.257 14.257 0 0 1 1.868 3.443c-.404.397-.807.799-1.194 1.214a56.93 56.93 0 0 1-.674-4.657m.21 4.728c-.296-.2-.598-.402-.92-.543.035-1.317.201-2.654.417-3.965.047 1.511.238 3.012.503 4.508m-4.905 9.147c.06-.1.14-.202.189-.312 1.852-.212 3.698-.49 5.562-.547-1.97 1.605-4.285 2.302-6.665 2.35.314-.491.61-.993.914-1.491m-1.985-2.418c.33.58.77 1.101 1.268 1.54.092.08.163.145.218.207-.327.034-.652.066-.98.092-.45.036-.9.057-1.352.079-.143-.21-.437-.433-.562-.58-.28-.332-.516-.702-.801-1.027.73-.14 1.466-.243 2.21-.31m-7.085 1.808a23.579 23.579 0 0 1 4.568-1.442c.223.492.593.927.938 1.333.077.09.134.172.175.25-.63.023-1.263.033-1.895.029-1.243-.008-2.505-.17-3.75-.15l-.036-.02m1.02.502c1.53.21 3.16.173 4.715.083a1.409 1.409 0 0 1-.203.39l-.574.822a18.3 18.3 0 0 1-3.938-1.295m4.363 1.377c.242-.356.486-.71.722-1.07.055-.084.12-.167.165-.256.376-.025.748-.05 1.11-.076.433-.03.865-.072 1.297-.117a2.153 2.153 0 0 1-.148.348c-.243.485-.607.925-.897 1.391a14.778 14.778 0 0 1-2.25-.22m-9.113-8.023c.51-.57.967-1.17 1.358-1.828 1.362-.041 2.723-.109 4.082-.024-1.592 1.305-3.51 1.884-5.44 1.852m-.513-2.203l-.466-.011c-.64-.618-1.168-1.285-1.7-1.981a10.8 10.8 0 0 1 2.1-.285c.493.608 1.067 1.215 1.375 1.912.052.117.08.232.094.345a25.29 25.29 0 0 1-1.403.02m-2.437-1.927a9.114 9.114 0 0 0 1.149 1.58c.117.132.204.23.263.318-1.647-.06-3.289-.22-4.86-.713 1.115-.45 2.27-.89 3.448-1.185m-3.673 1.43c1.576.68 3.425.752 5.132.84-.043.1-.123.217-.255.38-.294.363-.615.7-.92 1.052a10.322 10.322 0 0 1-3.957-2.272m4.316 2.375c.475-.459.889-.98 1.28-1.512.63.034 1.263.034 1.894.021-.153.673-.827 1.278-1.318 1.798a9.636 9.636 0 0 1-1.856-.307m7.704-2.027c-1.348-.063-2.694.046-4.043.11a17.35 17.35 0 0 0-1.613-2.243c.107 0 .214 0 .32.005 2.079.089 3.737.966 5.336 2.128m-.834-12.686c.452 2.16.941 4.264 1.115 6.48-.162-.01-.33-.097-.598-.219-.606-.274-1.214-.573-1.854-.757-.092-1.928.601-3.706 1.337-5.504m2.597 5.17c-.27.365-.586.827-.949 1.094-.04.029-.074.05-.11.073-.012-.164-.022-.33-.037-.496-.157-1.718-.387-3.508-.841-5.2.342.492.692.98.986 1.506.521.934.817 1.967.951 3.023m-.047 3.044c-.165 1.196-.442 2.372-.61 3.57-.097-.847-.23-1.689-.265-2.546-.007-.15-.011-.3-.017-.451.302-.127.611-.354.892-.573m.127-2.142c.021.5-.003.992-.05 1.48-.302.24-.641.534-.99.712-.018-.49-.037-.98-.066-1.47.383-.362.74-.747 1.077-1.151.012.143.022.286.029.429m-2.559 2.455c.325.108.707.34 1.053.362l.016-.002c.017.932.069 1.872.297 2.738-.84-1.044-1.611-2.11-2.144-3.343.26.079.52.159.778.245m-1.285-1.766a7.127 7.127 0 0 1-.16-1.04c.781.47 1.658.821 2.475 1.217.023.477.026.975.032 1.478a.814.814 0 0 1-.254-.01c-.588-.122-1.16-.35-1.745-.516a8.646 8.646 0 0 1-.348-1.13M5.647 48.597c.04-.03.077-.059.112-.08.24-.15.745-.385 1.01-.617.83.438 1.71.77 2.61.91l.002.011c-1.361.389-2.586.253-3.734-.224m-4.244-3.561c-.379-.796-.532-1.677-.639-2.551.915 1.482 2.309 2.796 3.627 3.84.164.13.336.26.509.39-.248.065-.486.265-.676.413-.15.117-.311.238-.459.372-.126-.094-.252-.19-.378-.29-.783-.622-1.545-1.25-1.984-2.174m3.82 1.54c-.353-.248-.7-.511-1.044-.8-1.261-1.063-2.21-2.316-3.24-3.564 1.625.282 3.097 1.062 4.431 2.027-.125.76-.174 1.583-.148 2.336m-1.235 1.084c.11-.085.217-.178.324-.26.136-.103.274-.203.422-.29.132-.08.275-.13.385-.24.406.293.834.569 1.275.822-.325.3-.841.417-1.174.711a9.167 9.167 0 0 1-1.232-.743m2.896-2.214c-.02.314-.068.624-.116.935-.045.294-.05.756-.177 1.044a13.95 13.95 0 0 1-1.27-.778c.006-.006.013-.01.015-.02.17-.684.292-1.444.337-2.17.236.18.468.361.695.547.176.143.346.291.516.442m2.452 3.121a15.335 15.335 0 0 1-2.377-.949c.083-.275.056-.69.079-.919.034-.34.074-.681.093-1.024.899.84 1.677 1.792 2.205 2.892m3.402-3.59c.068.304.136.609.193.915.027.148.025.35.077.51-.396.34-.8.667-1.21.986-.04-.13-.051-.283-.074-.464l-.097-.77a7.57 7.57 0 0 1 1.111-1.177m4.016-1.927c-.93.699-1.775 1.577-2.607 2.345-.289.266-.58.525-.873.78-.06-.166-.066-.379-.099-.56a6.587 6.587 0 0 0-.213-.821 7.26 7.26 0 0 1 .245-.183c1.074-.751 2.294-1.21 3.547-1.56m-.935 3.434c-.134.137-.279.256-.42.378a19.665 19.665 0 0 0-.775-.218 19.197 19.197 0 0 0-.649-.153c-.15-.032-.377-.03-.516-.092l.497-.45c1.19-1.087 2.44-2.078 3.658-3.124l.259-.061c-.706 1.221-1.014 2.661-2.054 3.72m-3.674 1.607c.186.07.363.155.537.242a11.39 11.39 0 0 1-2.397.447.384.384 0 0 0 .009-.028c.482-.257.941-.552 1.382-.876.121.118.323.16.47.215m.996.091c-.318-.168-.66-.27-.997-.419a.732.732 0 0 1-.177-.11c.42-.325.828-.666 1.226-1.018.244.14.67.142.917.2.336.08.668.174.998.271a7.418 7.418 0 0 1-1.967 1.076m-1.643-1.052c.014.121.016.295.046.454-.37.28-.75.549-1.136.811a8.25 8.25 0 0 1 1.027-1.982c.021.24.038.478.063.717M26.51 69.06c.286.006.574-.005.86-.01.138 0 .305.012.458-.01.395.67.746 1.36 1.105 2.048-.68-.321-1.319-.702-1.847-1.274a5.504 5.504 0 0 1-.576-.754m-.697-7.453c0 1.7.25 3.398.777 5.02.026.08.058.153.087.23a16.664 16.664 0 0 0-1.125-.252c-.326-1.659-.11-3.35.26-4.998m2.779 6.413c.113-.196.239-.386.36-.577.21 1.177.303 2.358.367 3.57-.339-.735-.768-1.425-1.188-2.117.188-.206.341-.67.461-.876m-1.432-.95c.428-.542.93-1.114 1.274-1.724.014.046.033.091.047.138.151.48.272.958.373 1.436-.339.482-.552 1.038-.9 1.51-.021.03-.039.053-.054.076a11.8 11.8 0 0 1-.74-1.436m-1.098-6.496c.894 1.372 1.666 2.788 2.222 4.337-.488.509-.882 1.146-1.291 1.738-.665-1.923-.898-4-.943-6.03l.012-.045m-.441 6.354c.405.13.816.243 1.227.352.216.48.477.93.761 1.387l-.022.002c-.177.018-.362.013-.54.02a11.75 11.75 0 0 0-.731.046 7.126 7.126 0 0 1-.695-1.807m7.373 2.846c.081.621.18 1.24.254 1.862l-.057.061c-.316.365-.625.74-.923 1.124-.05-.166-.054-.37-.07-.503-.044-.376-.09-.751-.135-1.127.122-.223.246-.445.382-.665.168-.274.352-.523.549-.752m4.025-2.297c-.906 1.487-2.284 2.567-3.47 3.83-.067-.14-.069-.336-.108-.582a14.08 14.08 0 0 0-.239-1.179c1.03-1.075 2.373-1.645 3.817-2.069m-.788 4.122c-.76.002-1.558.056-2.302-.06-.03-.005-.051-.013-.077-.019.032-.033.06-.067.093-.1 1.1-1.12 2.448-2.102 3.284-3.449-.149.766-.185 1.571-.427 2.311a8.07 8.07 0 0 1-.57 1.317m-1.13 1.625c-.718-.025-1.43-.15-2.15-.169-.088-.002-.309.032-.442.02.324-.42.67-.822 1.032-1.217.812.087 1.635.13 2.455.15a8.82 8.82 0 0 1-.895 1.216m-2.566 1.997c-.602.301-1.328.381-1.91.673a27.455 27.455 0 0 1 1.628-2.481c.613.015 1.21.035 1.82.143.21.038.414.074.617.102a8.313 8.313 0 0 1-2.155 1.563m-.547-2.03a20.178 20.178 0 0 0-1.446 2.23c.253-1.322.678-2.58 1.296-3.8.062.523.123 1.047.15 1.57m23.48 22.663a60.39 60.39 0 0 1-5.824-.814c.57-2.896-.2-6.102-1.749-8.572a12.242 12.242 0 0 0-2.995-3.259c-1.533-1.163-3.244-2.061-4.516-3.54-.238-.275-.707-.048-.704.293.034 3.674.073 7.641 1.954 10.924.56.98 1.351 1.974 2.291 2.783A60.893 60.893 0 0 1 37 91.184c.38-.633.553-1.607.673-2.127.325-1.41.383-2.87.196-4.304-.367-2.806-1.692-5.352-3.511-7.49-.19-.222-.625-.111-.678.18-.736 4.055-1.538 9.553 1.394 12.88-.318-.15-.636-.303-.953-.458-.7-1.66-1.536-3.235-2.11-4.953a33.392 33.392 0 0 1-1.295-5.234 26.555 26.555 0 0 1-.245-2.054c.005-.027.013-.051.01-.081-.082-1.017 2.026-1.347 2.744-1.746a9.425 9.425 0 0 0 2.65-2.2 9.433 9.433 0 0 0 1.622-2.809c.438-1.2.27-2.762.968-3.822.203-.309-.132-.684-.462-.6-2.436.615-4.736 1.384-6.147 3.604a17.116 17.116 0 0 0-1.457 2.819 97.54 97.54 0 0 1 .31-4.3c.022-.242-.346-.276-.41-.056a18.28 18.28 0 0 0-.204.773c-.299-3.516-1.896-6.93-3.853-9.773-.184-.268-.626-.25-.717.094-.703 2.652-1.361 5.507-.483 8.202.715 2.198 2.301 3.715 4.484 4.3.03.017.062.03.096.038-.239 2.486-.081 5.043.269 7.454a32.381 32.381 0 0 0 1.325 5.61c.452 1.355.964 2.806 1.65 4.108a59.718 59.718 0 0 1-6.758-4.1 61.228 61.228 0 0 1-1.96-1.43c.414-1.162.567-2.498.744-3.718.175-1.2.27-2.407.157-3.617-.11-1.193-.397-2.368-.935-3.442-.607-1.211-1.558-2.202-2.139-3.431-.165-.348-.626-.192-.74.097-1.094 2.775-2.336 5.387-1.519 8.42.262.97.713 2.058 1.314 3.072a26.99 26.99 0 0 1-1.131-1.125c-1.924-2.042-3.337-4.458-4.51-6.992-2.314-4.99-3.703-10.366-4.48-15.797-.36-2.515-.582-5.047-.722-7.583 1.964-.034 3.935-.674 5.485-1.89.744-.584 1.39-1.304 1.843-2.138.567-1.042.759-2.258 1.588-3.149.276-.296.002-.758-.39-.669-2.35.537-4.783 1.137-6.634 2.776-.723.64-1.497 1.654-1.994 2.74-.088-2.872-.006-5.75-.137-8.619-.014-.268-.386-.26-.413 0-.284 2.843-.336 5.759-.229 8.672-.638-1.112-1.587-2.06-2.598-2.89-1.852-1.52-3.938-2.76-6.364-2.987-.171-.017-.36.17-.342.341.125 1.17.257 2.359.73 3.448.507 1.169 1.436 1.939 2.407 2.72 1.863 1.497 3.949 2.282 6.286 1.666.136 2.127.346 4.24.603 6.313.683 5.482 1.938 10.906 4.103 16.002 1.07 2.52 2.323 4.992 4.028 7.148a23.24 23.24 0 0 0 2.057 2.26 10.847 10.847 0 0 0-2.379-.606c-2.872-.386-5.735.8-8.343 1.851-.272.11-.389.421-.172.653 3.713 3.984 10.085 4.903 14.19 1.049.027-.026.04-.056.059-.084.12.093.24.188.362.28a60.23 60.23 0 0 0 7.753 5.005c-.99-.11-1.99-.12-2.984-.072-3.134.153-6.179.943-9.02 2.26-.272.127-.235.537 0 .674 5.248 3.05 12.132 4.09 16.966-.33.03-.027.043-.058.063-.087.365.157.727.318 1.094.47a61.285 61.285 0 0 0 17.665 4.307c.546.05.544-.805 0-.854M14.626 32.307c-.028 0-.028.043 0 .043s.028-.043 0-.043" fill="#4E6B2A"/><path d="M9.133 33.76c-1.525-2.04-4.54-2.02-6.32-.2-1.78 1.82-1.479 5.22.594 6.698.597.427 1.31.702 2.043.737.815.039 1.625-.22 2.334-.62a6.128 6.128 0 0 0 2.994-4.327c-.217 1.464.244 3.051 1.335 4.05 1.092 1 2.82 1.304 4.118.591 1.297-.712 1.962-2.467 1.329-3.804-.594-1.254-2.015-1.846-3.314-2.332 1.45.512 3.149.384 4.422-.479 1.273-.863 2.033-2.489 1.725-3.996-.307-1.507-1.754-2.743-3.29-2.67-1.839.089-3.16 1.778-4.032 3.399.84-1.628.574-3.76-.642-5.13S9.127 23.79 7.41 24.432c-.727.272-1.394.745-1.807 1.403-.74 1.178-.544 2.757.129 3.974.672 1.217 2.315 3.043 3.37 3.95" fill="#DD7FC9"/><g transform="translate(.74 23.376)"><mask id="b" fill="#fff"><use xlink:href="#a"/></mask><path d="M8.633 10.243c-1.25-1.7-3.423-2.2-5.347-1.34-2.041.913-3.055 3.093-2.67 5.262.404 2.285 2.435 4.137 4.84 3.802 2.588-.361 4.514-2.728 4.974-5.187-.268-.035-.534-.072-.8-.108-.199 1.698.337 3.51 1.733 4.583 1.328 1.02 3.302 1.205 4.687.196 1.148-.835 1.733-2.434 1.283-3.8-.534-1.618-2.255-2.33-3.715-2.884l-.225.819c1.797.571 3.894.369 5.315-.971 1.237-1.167 1.818-3.053 1.151-4.662-.63-1.521-2.26-2.56-3.91-2.3-1.882.297-3.127 2.013-3.984 3.564l.731.428c.865-1.844.683-4.092-.709-5.643C10.652.512 8.38-.04 6.511.677c-2.02.777-2.906 2.76-2.33 4.814.569 2.02 2.372 3.822 3.895 5.178.387.344.961-.228.57-.57-1.971-1.726-6.065-6.057-2.513-8.317 1.465-.933 3.503-.698 4.82.394 1.469 1.219 1.801 3.355 1.012 5.041-.229.487.463.913.731.428.601-1.086 1.34-2.235 2.466-2.838 1.497-.799 3.268-.064 3.908 1.478.572 1.38-.03 2.985-1.16 3.888-1.224.98-2.845 1.054-4.292.594-.528-.168-.728.63-.225.819 1.055.4 2.303.864 2.92 1.88.697 1.146.183 2.718-.92 3.407-1.203.753-2.858.403-3.838-.556-.974-.954-1.259-2.332-1.111-3.645.05-.453-.717-.559-.8-.108-.361 1.986-1.682 3.843-3.665 4.481-2.168.697-4.193-.826-4.615-2.947-.785-3.948 4.1-6.613 6.83-3.516.207.233.628-.082.439-.339" fill="#8B2695" mask="url(#b)"/></g><path d="M10.246 60.782c.292-2.085-.507-3.637-2.04-5.08-1.533-1.442-4.02-1.885-5.828-.81-1.81 1.076-2.572 3.72-1.395 5.465.575.854 1.496 1.413 2.442 1.817 1.36.582 2.833.897 4.311.923a7.682 7.682 0 0 0-4.45 3.187c-.742 1.128-1.179 2.517-.914 3.84.266 1.324 1.348 2.523 2.692 2.658 1.84.186 3.308-1.506 4.14-3.158A16.953 16.953 0 0 0 10.69 65.3c.477 2.513 2.156 5.078 4.687 5.45 1.44.211 2.944-.355 3.982-1.375 1.038-1.02 1.623-2.455 1.731-3.906.057-.76-.015-1.545-.343-2.233-.6-1.257-1.979-1.995-3.358-2.193-1.378-.2-2.777.057-4.145.313 1.67-.641 3.256-1.639 4.274-3.11 1.017-1.471 1.38-3.467.626-5.089-.754-1.621-2.755-2.657-4.437-2.05-1.738.626-2.568 2.589-2.983 4.389-.42 1.824-.537 3.414-.509 5.285" fill="#DD7FC9"/><path d="M10.487 60.848c.374-2.325-.696-4.476-2.59-5.85-1.791-1.3-4.464-1.517-6.23-.053-1.506 1.247-2.132 3.62-1.152 5.37 1.32 2.355 4.764 3.084 7.221 3.18l-.106-.784c-2.141.596-4.046 2.002-5.07 4.006-.942 1.847-.984 4.237.693 5.68 1.5 1.288 3.442.859 4.777-.426 1.73-1.664 2.576-4.277 3.055-6.561h-.79c.454 2.174 1.661 4.434 3.773 5.384 2.157.97 4.69.127 6.1-1.705 1.37-1.78 2.012-4.784.548-6.693-1.8-2.342-5.047-1.915-7.585-1.446l.224.812c2.315-.922 4.5-2.443 5.318-4.909.741-2.24.024-4.842-2.186-5.92-2.046-.998-4.128-.04-5.204 1.843-1.342 2.35-1.51 5.367-1.484 8.006.005.536.838.537.833 0-.025-2.718.357-10.643 4.978-9.293 2.22.649 2.913 3.124 2.25 5.14-.71 2.16-2.71 3.517-4.729 4.321-.5.2-.316.913.224.812 2.133-.395 4.93-.87 6.564.985 1.465 1.664.711 4.586-.626 6.089-1.354 1.522-3.606 2.025-5.377.941-1.6-.978-2.46-2.812-2.83-4.585-.083-.391-.709-.391-.792 0-.366 1.749-.933 3.535-1.911 5.046-.953 1.471-2.746 2.934-4.466 1.636-1.751-1.322-1.345-3.762-.28-5.384.982-1.494 2.502-2.519 4.206-3.008.437-.126.344-.77-.107-.785-2.13-.066-5.133-.613-6.429-2.53-.993-1.47-.463-3.575.854-4.66 1.521-1.254 3.85-1.017 5.38.097 1.7 1.236 2.59 3.096 2.455 5.178-.018.277.445.346.49.066" fill="#8B2695"/><path d="M17.001 66.614c-.518-1.103-1.624-2.47-2.758-2.99-.838-.385-2.078-.467-3.146-.345.003-.025.009-.05.01-.075a.845.845 0 0 0-.057-.319c1.441-2.964 1.75-6.462 4.49-8.652.119-.094-.036-.296-.16-.208-2.714 1.946-3.426 5.475-4.634 8.437a.966.966 0 0 0-.547-.23.804.804 0 0 0-.489.118c-1.75-2.045-3.633-4.345-6.619-4.01-.143.016-.147.211 0 .224 2.68.227 4.933 1.851 6.33 4.1-.205.371-.178.888.13 1.18-.02.007-.044.01-.064.03-1.876 1.801-3.506 3.802-4.383 6.285-.04.114.143.193.196.083 1.098-2.296 2.449-4.48 4.442-6.113a.139.139 0 0 0 .054-.13c.053.021.11.036.17.046a1.043 1.043 0 0 0 .261.01h.01a.923.923 0 0 0 .708-.382c1.088-.068 2.274-.027 3.178.455 1.038.553 1.993 1.669 2.488 2.715.125.263.513.034.39-.229m-3.106-34.64c.677-.433 1.414-.782 2.07-1.244.104-.073.044-.268-.093-.22-.992.343-1.927.98-2.793 1.563-.225.152-.65.365-.992.617-.03-.01-.058-.024-.09-.031a.911.911 0 0 0-.222-.021c-.223-2.016-1.49-4.157-3.12-5.249-.084-.057-.172.066-.105.136.774.815 1.525 1.625 2.046 2.632.433.836.634 1.68.816 2.568a.936.936 0 0 0-.305 1.426c-1.994 1.566-4.284 2.293-6.823 2.564-.14.015-.147.218 0 .224 2.585.113 5.13-.943 7.133-2.537.242.12.532.131.801-.05a.82.82 0 0 0 .193-.182l.014-.016c1.232 1.067 1.886 2.485 2.004 4.162.017.23.355.234.361 0 .043-1.697-.85-3.352-2.204-4.344.002-.004.006-.006.008-.009.207-.345.13-.744-.113-1.015a26.032 26.032 0 0 1 1.413-.974" fill="#8B2695"/><g transform="translate(62.963 38.19)"><mask id="d" fill="#fff"><use xlink:href="#c"/></mask><path d="M9.418 56.3c-.33.078-.659.153-.99.225.275-1.073.811-2.078 1.448-3.04.435.185 1.295.076 1.707.096.57.026 1.143.066 1.71.008-1.03 1.263-2.334 2.155-3.875 2.712m4.987-4.426a9.795 9.795 0 0 1-.862 1.395c-1.01-.165-2.114.071-3.094-.195a.928.928 0 0 1-.224-.1c.511-.722 1.064-1.424 1.591-2.113.016.004.031.008.049.008 1.01-.03 2.03-.03 3.037-.122-.145.382-.309.759-.497 1.127m.618-1.468c-.624-.026-1.248-.007-1.873.01-.397.009-.707.064-.96-.051.185-.25.367-.499.537-.747 1.396-2.032 2.675-4.221 3.256-6.635-.028 2.494-.142 5.07-.96 7.423m.61-7.28c-.824 2.537-2.144 4.794-3.697 6.977l-.021.029a1.033 1.033 0 0 1-.092-.138c-.474-.874-.95-2.088-1.018-3.1 1.466-1.428 3.291-2.416 4.827-3.768m-5.211 4.163c.235 1.137.737 2.203 1.178 3.275-.533.72-1.11 1.442-1.649 2.186-.634-.678-.943-2.166-1.166-3.013.237-.487.51-.965.825-1.432a8.67 8.67 0 0 1 .812-1.016m-1.916 3.065c.207.637.428 1.27.687 1.89.103.244.221.714.408 1.002-.721 1.048-1.334 2.154-1.634 3.374l-.285.059c-.217-2.21 0-4.34.824-6.325m19.487 1.637c.088.005.175.016.263.022a6.99 6.99 0 0 1-.83 1.02c-.202.2-.654.425-.867.69-1.815-.213-3.619-.496-5.444-.575a61.344 61.344 0 0 0 1.652-.788c1.681-.46 3.56-.47 5.226-.37m-8.425-6.042c.094-.485.225-.958.376-1.424.423.402.843.81 1.276 1.2-.11.595-.225 1.189-.34 1.782a3.564 3.564 0 0 0-.51-.544c-.267-.23-.645-.398-.853-.69.018-.108.03-.217.051-.324m-.137.9c.451.404.968.735 1.333 1.25-.253 1.3-.5 2.605-.719 3.916a9.572 9.572 0 0 1-.279-.838 10.805 10.805 0 0 1-.356-1.867 11.587 11.587 0 0 1 .021-2.462m3.073.836c-.285 1.666-.92 3.235-2.102 4.606.231-1.369.52-2.737.805-4.108.435-.158.87-.318 1.297-.498m.192-2.541a14.94 14.94 0 0 1-.128 2.124c-.424.118-.842.265-1.256.415.127-.615.251-1.23.366-1.847.335-.22.701-.434 1.018-.692m-1.389.105a41.047 41.047 0 0 0-1.194-1.214 14.264 14.264 0 0 1 1.867-3.442 57.044 57.044 0 0 1-.673 4.656m.966-4.436c.217 1.31.383 2.648.417 3.964-.322.142-.624.343-.919.543.264-1.495.456-2.997.502-4.507m5.317 15.145c-2.38-.047-4.697-.744-6.666-2.35 1.865.057 3.71.336 5.563.548.049.109.13.212.19.312.302.497.598 1 .913 1.49m3.28-3.598c-.286.325-.52.696-.801 1.026-.126.149-.42.371-.563.582-.451-.023-.902-.043-1.352-.08a39.414 39.414 0 0 1-.98-.092c.056-.061.127-.126.219-.208a6.084 6.084 0 0 0 1.268-1.538c.742.067 1.479.17 2.209.31m4.837 1.519c-1.243-.021-2.505.141-3.748.15a43.72 43.72 0 0 1-1.896-.03 1.45 1.45 0 0 1 .175-.25c.345-.406.716-.84.938-1.333 1.566.322 3.096.81 4.568 1.443a.453.453 0 0 0-.037.02m-4.92 1.777l-.574-.823a1.419 1.419 0 0 1-.203-.39c1.554.09 3.186.127 4.714-.083a18.28 18.28 0 0 1-3.937 1.296m-2.674.302c-.29-.466-.654-.906-.898-1.391a2.197 2.197 0 0 1-.148-.349c.432.046.864.087 1.297.118l1.11.075c.046.09.11.173.166.257.235.36.48.714.722 1.07-.748.13-1.5.206-2.25.22m5.923-10.096c1.36-.085 2.72-.017 4.082.023.392.66.849 1.26 1.358 1.83-1.929.031-3.847-.547-5.44-1.853m4.55-.37c.014-.114.043-.228.095-.345.307-.697.882-1.305 1.374-1.913.705.022 1.406.125 2.1.285-.531.697-1.06 1.363-1.7 1.98-.155.005-.31.01-.465.012-.469.01-.936-.002-1.404-.019m7.29-.722c-1.572.493-3.215.652-4.862.712.06-.087.147-.186.264-.319.427-.483.833-1.01 1.149-1.578 1.177.294 2.333.735 3.449 1.185m-3.733 2.517c-.305-.353-.627-.69-.92-1.052a1.758 1.758 0 0 1-.255-.38c1.707-.088 3.556-.16 5.132-.84a10.332 10.332 0 0 1-3.957 2.272m-2.215.41c-.492-.52-1.166-1.126-1.319-1.798a25.51 25.51 0 0 0 1.896-.022c.39.532.804 1.054 1.278 1.512a9.696 9.696 0 0 1-1.855.307m-.514-4.462c.108-.004.214-.004.322-.004a17.355 17.355 0 0 0-1.614 2.243c-1.348-.065-2.694-.174-4.043-.111 1.6-1.161 3.258-2.039 5.335-2.128m-3.163-5.054c-.641.185-1.248.483-1.854.758-.27.121-.435.209-.599.218.174-2.215.664-4.32 1.116-6.48.735 1.799 1.43 3.577 1.337 5.504m-2.983-3.357c.294-.527.643-1.013.986-1.506-.454 1.692-.683 3.482-.841 5.201-.016.165-.026.33-.038.496-.035-.023-.07-.045-.11-.074-.362-.266-.679-.729-.95-1.094.136-1.055.431-2.088.953-3.023m-.012 6.64l-.017.451c-.036.857-.168 1.7-.265 2.546-.169-1.198-.446-2.373-.61-3.57.28.22.59.446.892.573m-.99-3.144c.338.404.694.79 1.077 1.152-.029.49-.049.98-.067 1.47-.348-.179-.688-.473-.99-.713-.046-.487-.07-.979-.049-1.48a8.83 8.83 0 0 1 .03-.429m3.307 2.64c-.533 1.233-1.303 2.298-2.145 3.343.23-.867.28-1.806.297-2.738h.017c.346-.02.727-.252 1.053-.36.258-.087.518-.167.778-.245m.158-.392c-.585.165-1.156.394-1.744.515a.813.813 0 0 1-.254.01c.005-.503.008-1 .032-1.477.817-.396 1.693-.749 2.476-1.218-.028.342-.08.688-.162 1.04-.092.395-.21.77-.348 1.13M47.118 10.63v-.012c.902-.14 1.781-.471 2.612-.91.265.233.769.466 1.009.617.035.02.073.05.113.08-1.149.477-2.374.613-3.734.225m5.993-1.612c-.125.1-.251.197-.377.29-.148-.133-.31-.254-.46-.371-.189-.148-.428-.349-.676-.415.174-.128.345-.258.51-.389 1.318-1.043 2.711-2.358 3.626-3.84-.106.874-.26 1.755-.639 2.551-.439.923-1.201 1.552-1.984 2.174m-1.982-2.97c1.333-.966 2.806-1.746 4.43-2.027-1.029 1.246-1.978 2.5-3.24 3.563-.344.29-.691.552-1.042.8a12.175 12.175 0 0 0-.148-2.337m.15 4.164c-.333-.294-.849-.411-1.173-.711.44-.253.87-.53 1.275-.822.11.11.252.159.385.239.147.087.286.187.422.291.107.082.213.174.324.26a9.214 9.214 0 0 1-1.232.743m-1.148-3.4c.227-.186.458-.368.694-.546.046.726.166 1.486.337 2.168.002.01.01.015.015.022a13.95 13.95 0 0 1-1.27.778c-.127-.289-.132-.75-.176-1.044a10.269 10.269 0 0 1-.115-.936c.168-.15.34-.298.515-.442m-.763.672c.018.342.059.684.094 1.024.022.23-.005.644.078.919-.747.376-1.533.687-2.378.948.529-1.1 1.307-2.051 2.206-2.891m-4.497.478c-.031.257-.063.514-.097.77-.023.18-.033.334-.073.464a31.943 31.943 0 0 1-1.211-.985c.052-.161.05-.363.078-.51.057-.307.124-.611.193-.916.403.343.776.74 1.11 1.177m-1.58-1.543c.084.059.165.121.246.183a6.59 6.59 0 0 0-.214.822c-.033.18-.038.394-.098.56a40.645 40.645 0 0 1-.873-.78c-.832-.768-1.677-1.647-2.608-2.345 1.255.35 2.473.81 3.547 1.56m-4.665-1.846l.259.062c1.217 1.045 2.467 2.036 3.658 3.123.164.15.33.3.497.45-.14.063-.366.06-.517.092-.217.047-.434.1-.649.154-.26.065-.517.142-.774.218-.142-.123-.286-.241-.42-.378-1.04-1.059-1.348-2.5-2.054-3.721m6.196 5.112c.442.324.901.62 1.383.876.002.01.006.018.009.028a11.385 11.385 0 0 1-2.398-.447c.175-.087.35-.171.537-.242.147-.055.349-.097.47-.215m-3.434-.77c.331-.096.663-.19 1-.27.247-.06.671-.06.916-.2.397.351.806.693 1.226 1.017a.704.704 0 0 1-.178.11c-.336.149-.679.25-.997.42a7.394 7.394 0 0 1-1.967-1.076m3.673-.694a8.24 8.24 0 0 1 1.028 1.983 25.733 25.733 0 0 1-1.136-.811c.03-.159.032-.333.045-.455.025-.239.043-.477.063-.717m-15.65 23.401c-.529.573-1.168.953-1.848 1.274.36-.688.71-1.377 1.105-2.048.153.022.32.01.459.011.286.005.574.016.86.01-.171.265-.361.52-.577.753m1.534-3.208a16.3 16.3 0 0 0-1.124.251c.028-.077.06-.15.086-.23.527-1.622.778-3.32.78-5.02.368 1.649.585 3.34.258 4.999m-2.577 2.29c-.42.693-.85 1.383-1.188 2.117.063-1.211.156-2.393.366-3.57.122.192.248.382.36.577.12.206.274.67.462.876m.23-.39c-.015-.022-.032-.047-.054-.076-.347-.471-.56-1.028-.9-1.51.101-.477.222-.955.373-1.435l.048-.138c.344.61.846 1.181 1.274 1.723-.208.497-.466.97-.74 1.436m1.85-7.886c-.046 2.029-.278 4.106-.944 6.03-.408-.592-.803-1.23-1.29-1.739.555-1.548 1.327-2.964 2.222-4.337l.012.046m-.266 8.116a11.378 11.378 0 0 0-.732-.046c-.177-.007-.362-.003-.54-.02l-.022-.003c.285-.457.546-.907.76-1.386.412-.11.824-.222 1.229-.352a7.154 7.154 0 0 1-.695 1.807m-6.13 1.79c.136.22.26.443.382.666l-.135 1.127c-.016.132-.02.337-.07.503a25.58 25.58 0 0 0-.923-1.124c-.018-.022-.039-.04-.056-.062.074-.622.172-1.24.254-1.861.196.228.38.477.549.752m-.758-.98c-.098.39-.174.78-.239 1.179-.039.246-.04.441-.108.581-1.185-1.262-2.563-2.342-3.47-3.83 1.444.425 2.788.994 3.817 2.07m-3.6.735c-.24-.739-.277-1.545-.426-2.31.836 1.347 2.183 2.328 3.284 3.449.031.032.06.066.092.1-.025.006-.046.014-.076.018-.744.117-1.542.063-2.303.06a8.047 8.047 0 0 1-.57-1.317m.805 1.726a29.112 29.112 0 0 0 2.455-.15c.361.395.708.798 1.032 1.216-.134.013-.355-.02-.443-.018-.72.018-1.43.143-2.148.169a8.75 8.75 0 0 1-.896-1.217m1.665 1.99a9.696 9.696 0 0 1-.359-.34c.203-.028.406-.064.617-.102.61-.108 1.206-.128 1.82-.143a28.019 28.019 0 0 1 1.629 2.482c-.583-.292-1.31-.372-1.91-.674a8.318 8.318 0 0 1-1.797-1.223m2.493-2.376a14.31 14.31 0 0 1 1.296 3.799 20.178 20.178 0 0 0-1.446-2.23c.027-.523.087-1.046.15-1.57M1.03 58.517a61.286 61.286 0 0 0 17.663-4.307c.368-.151.731-.312 1.095-.47.019.03.033.06.063.088 4.834 4.42 11.717 3.38 16.966.33.235-.137.271-.547 0-.674-2.842-1.318-5.887-2.108-9.02-2.26a18.676 18.676 0 0 0-2.985.072 60.128 60.128 0 0 0 7.753-5.005c.122-.092.242-.187.363-.28.019.028.03.057.059.083 4.104 3.854 10.477 2.935 14.19-1.049.217-.231.099-.543-.172-.652-2.607-1.051-5.472-2.237-8.344-1.851-.74.1-1.574.297-2.379.606a23.344 23.344 0 0 0 2.058-2.261c1.705-2.155 2.957-4.629 4.027-7.148 2.165-5.095 3.422-10.52 4.103-16.003.258-2.07.467-4.185.604-6.311 2.337.616 4.423-.17 6.285-1.666.972-.782 1.901-1.551 2.407-2.72.473-1.09.606-2.278.73-3.448.02-.172-.17-.358-.34-.343-2.428.228-4.513 1.467-6.365 2.988-1.011.83-1.96 1.778-2.599 2.89.108-2.912.056-5.828-.229-8.672-.026-.26-.399-.268-.41 0-.134 2.87-.052 5.748-.14 8.62-.497-1.086-1.27-2.1-1.993-2.74-1.85-1.64-4.285-2.24-6.635-2.777-.39-.089-.666.374-.39.67.83.89 1.02 2.106 1.588 3.149.454.834 1.099 1.553 1.843 2.138 1.55 1.216 3.522 1.855 5.486 1.89-.14 2.535-.362 5.068-.722 7.582-.778 5.432-2.167 10.808-4.48 15.798-1.174 2.534-2.587 4.95-4.51 6.992-.365.386-.744.759-1.13 1.124a12.662 12.662 0 0 0 1.312-3.07c.818-3.034-.425-5.647-1.519-8.422-.114-.289-.574-.446-.739-.097-.582 1.23-1.533 2.22-2.14 3.431-.538 1.074-.824 2.25-.935 3.443-.112 1.21-.017 2.417.157 3.617.177 1.22.33 2.555.745 3.718-.645.49-1.3.967-1.96 1.43a59.892 59.892 0 0 1-6.759 4.1c.686-1.302 1.199-2.754 1.65-4.11a32.463 32.463 0 0 0 1.326-5.608c.35-2.412.508-4.969.269-7.455a.345.345 0 0 0 .095-.038c2.183-.584 3.769-2.101 4.485-4.3.877-2.694.22-5.55-.483-8.202-.092-.344-.533-.361-.717-.094-1.958 2.844-3.555 6.258-3.853 9.773-.063-.259-.13-.517-.204-.773-.065-.22-.433-.185-.41.056.127 1.446.246 2.875.309 4.3a17.058 17.058 0 0 0-1.456-2.819c-1.412-2.22-3.71-2.989-6.147-3.604-.33-.083-.665.292-.462.6.697 1.06.53 2.622.967 3.822a9.414 9.414 0 0 0 1.624 2.81 9.432 9.432 0 0 0 2.648 2.2c.72.399 2.826.728 2.744 1.746-.003.03.006.053.01.08a26.968 26.968 0 0 1-.244 2.054 33.578 33.578 0 0 1-1.295 5.234c-.575 1.719-1.41 3.294-2.11 4.953a63.97 63.97 0 0 1-.954.459c2.932-3.327 2.131-8.826 1.395-12.88-.054-.292-.488-.403-.678-.18-1.82 2.137-3.144 4.682-3.511 7.49a12.171 12.171 0 0 0 .196 4.304c.12.52.294 1.494.672 2.127a61.22 61.22 0 0 1-6.925 2.484 10.88 10.88 0 0 0 2.291-2.783c1.88-3.283 1.92-7.25 1.953-10.925.003-.34-.466-.568-.703-.292-1.272 1.477-2.983 2.377-4.517 3.54a12.266 12.266 0 0 0-2.995 3.258c-1.548 2.47-2.318 5.677-1.748 8.573a60.66 60.66 0 0 1-5.825.814c-.544.049-.547.904 0 .853" fill="#4E6B2A" mask="url(#d)"/></g><path d="M104.836 32.307c.028 0 .028.043 0 .043s-.028-.043 0-.043" fill="#4E6B2A"/><path d="M110.329 33.76c1.524-2.04 4.54-2.02 6.32-.2 1.78 1.82 1.478 5.22-.594 6.698-.597.427-1.31.702-2.044.737-.815.039-1.624-.22-2.334-.62a6.128 6.128 0 0 1-2.993-4.327c.217 1.464-.245 3.051-1.336 4.05-1.092 1-2.82 1.304-4.117.591-1.298-.712-1.963-2.467-1.33-3.804.595-1.254 2.015-1.846 3.315-2.332-1.45.512-3.15.384-4.423-.479-1.273-.863-2.032-2.489-1.725-3.996.308-1.507 1.754-2.743 3.29-2.67 1.84.089 3.16 1.778 4.032 3.399-.84-1.628-.574-3.76.643-5.13 1.216-1.37 3.302-1.887 5.017-1.245.728.272 1.395.745 1.808 1.403.74 1.178.544 2.757-.129 3.974s-2.315 3.043-3.37 3.95" fill="#DD7FC9"/><g transform="translate(98.519 23.376)"><mask id="f" fill="#fff"><use xlink:href="#e"/></mask><path d="M11.57 10.243c1.25-1.7 3.423-2.2 5.346-1.34 2.042.913 3.055 3.093 2.67 5.262-.404 2.285-2.435 4.137-4.84 3.802-2.588-.361-4.514-2.728-4.973-5.187.267-.035.533-.072.8-.108.198 1.698-.338 3.51-1.734 4.583-1.328 1.02-3.302 1.205-4.687.196-1.148-.835-1.733-2.434-1.282-3.8.533-1.618 2.254-2.33 3.714-2.884l.226.819c-1.798.571-3.895.369-5.316-.971C.257 9.448-.324 7.562.343 5.953c.63-1.521 2.26-2.56 3.912-2.3 1.88.297 3.125 2.013 3.983 3.564l-.732.428c-.864-1.844-.683-4.092.709-5.643C9.55.512 11.824-.04 13.69.677c2.02.777 2.907 2.76 2.33 4.814-.568 2.02-2.371 3.822-3.895 5.178-.387.344-.96-.228-.57-.57 1.971-1.726 6.065-6.057 2.514-8.317-1.466-.933-3.503-.698-4.82.394-1.47 1.219-1.802 3.355-1.012 5.041.228.487-.464.913-.732.428-.6-1.086-1.34-2.235-2.466-2.838-1.497-.799-3.268-.064-3.908 1.478-.572 1.38.03 2.985 1.16 3.888 1.224.98 2.846 1.054 4.292.594.529-.168.729.63.226.819-1.056.4-2.303.864-2.92 1.88-.697 1.146-.184 2.718.919 3.407 1.204.753 2.858.403 3.838-.556.975-.954 1.259-2.332 1.111-3.645-.05-.453.717-.559.8-.108.362 1.986 1.682 3.843 3.665 4.481 2.169.697 4.193-.826 4.615-2.947.785-3.948-4.1-6.613-6.83-3.516-.207.233-.627-.082-.438-.339" fill="#8B2695" mask="url(#f)"/></g><path d="M109.216 60.782c-.292-2.085.506-3.637 2.04-5.08 1.532-1.442 4.019-1.885 5.828-.81 1.809 1.076 2.572 3.72 1.395 5.465-.575.854-1.497 1.413-2.443 1.817a11.5 11.5 0 0 1-4.31.923 7.682 7.682 0 0 1 4.45 3.187c.741 1.128 1.178 2.517.913 3.84-.265 1.324-1.347 2.523-2.691 2.658-1.84.186-3.309-1.506-4.14-3.158a16.922 16.922 0 0 1-1.486-4.323c-.478 2.513-2.156 5.078-4.687 5.45-1.44.211-2.943-.355-3.983-1.375-1.037-1.02-1.623-2.455-1.73-3.906-.058-.76.015-1.545.342-2.233.6-1.257 1.98-1.995 3.358-2.193 1.379-.2 2.777.057 4.147.313-1.67-.641-3.257-1.639-4.275-3.11-1.018-1.471-1.38-3.467-.626-5.089.753-1.621 2.755-2.657 4.437-2.05 1.738.626 2.567 2.589 2.982 4.389.42 1.824.537 3.414.51 5.285" fill="#DD7FC9"/><path d="M108.975 60.848c-.374-2.325.695-4.476 2.59-5.85 1.79-1.3 4.463-1.517 6.23-.053 1.505 1.247 2.132 3.62 1.152 5.37-1.32 2.355-4.765 3.084-7.222 3.18l.106-.784c2.142.596 4.047 2.002 5.07 4.006.943 1.847.985 4.237-.693 5.68-1.5 1.288-3.441.859-4.777-.426-1.73-1.664-2.575-4.277-3.055-6.561h.791c-.454 2.174-1.662 4.434-3.774 5.384-2.157.97-4.69.127-6.1-1.705-1.37-1.78-2.012-4.784-.547-6.693 1.8-2.342 5.047-1.915 7.584-1.446l-.223.812c-2.316-.922-4.501-2.443-5.318-4.909-.742-2.24-.025-4.842 2.186-5.92 2.046-.998 4.127-.04 5.204 1.843 1.342 2.35 1.51 5.367 1.484 8.006-.006.536-.839.537-.833 0 .024-2.718-.357-10.643-4.978-9.293-2.22.649-2.913 3.124-2.25 5.14.71 2.16 2.71 3.517 4.728 4.321.5.2.317.913-.223.812-2.134-.395-4.93-.87-6.565.985-1.464 1.664-.71 4.586.626 6.089 1.355 1.522 3.606 2.025 5.378.941 1.6-.978 2.46-2.812 2.83-4.585.083-.391.71-.391.791 0 .366 1.749.933 3.535 1.912 5.046.953 1.471 2.745 2.934 4.465 1.636 1.752-1.322 1.346-3.762.28-5.384-.982-1.494-2.502-2.519-4.205-3.008-.438-.126-.345-.77.106-.785 2.13-.066 5.134-.613 6.43-2.53.992-1.47.463-3.575-.855-4.66-1.52-1.254-3.85-1.017-5.38.097-1.7 1.236-2.589 3.096-2.454 5.178.018.277-.446.346-.491.066" fill="#8B2695"/><path d="M102.46 66.614c.519-1.103 1.625-2.47 2.759-2.99.837-.385 2.077-.467 3.146-.345-.003-.025-.01-.05-.01-.075a.86.86 0 0 1 .056-.319c-1.44-2.964-1.75-6.462-4.49-8.652-.118-.094.037-.296.16-.208 2.715 1.946 3.426 5.475 4.635 8.437a.966.966 0 0 1 .547-.23.804.804 0 0 1 .488.118c1.75-2.045 3.634-4.345 6.62-4.01.142.016.146.211 0 .224-2.68.227-4.934 1.851-6.33 4.1.205.371.178.888-.131 1.18.022.007.044.01.065.03 1.875 1.801 3.505 3.802 4.383 6.285.04.114-.144.193-.196.083-1.098-2.296-2.45-4.48-4.443-6.113a.139.139 0 0 1-.054-.13.856.856 0 0 1-.169.046.381.381 0 0 1-.117.013 1.043 1.043 0 0 1-.144-.003h-.01a.923.923 0 0 1-.709-.382c-1.088-.068-2.272-.027-3.177.455-1.039.553-1.993 1.669-2.489 2.715-.124.263-.513.034-.39-.229m3.107-34.64c-.677-.433-1.414-.782-2.07-1.244-.105-.073-.045-.268.093-.22.992.343 1.927.98 2.793 1.563.225.152.65.365.991.617.03-.01.059-.024.09-.031a.915.915 0 0 1 .222-.021c.223-2.016 1.49-4.157 3.12-5.249.085-.057.172.066.105.136-.774.815-1.524 1.625-2.046 2.632-.432.836-.634 1.68-.816 2.568a.936.936 0 0 1 .305 1.426c1.994 1.566 4.284 2.293 6.823 2.564.141.015.147.218 0 .224-2.585.113-5.13-.943-7.133-2.537a.772.772 0 0 1-.8-.05.809.809 0 0 1-.193-.182.07.07 0 0 1-.014-.016c-1.232 1.067-1.886 2.485-2.005 4.162-.016.23-.355.234-.36 0-.044-1.697.849-3.352 2.204-4.344-.002-.004-.006-.006-.008-.009-.208-.345-.13-.744.112-1.015a23.271 23.271 0 0 0-1.413-.974" fill="#8B2695"/></g></svg>