<svg width="120" height="120" viewBox="0 0 120 120" xmlns="http://www.w3.org/2000/svg"><g fill="none" fill-rule="evenodd"><path d="M81.009 37.697l-.036.04c-7.753-6.405-12.83-9.436-18.718-9.436-3.517 0-7.301 1.085-11.192 3.938-2.196 1.607-5.729 4.023-9.952 6.96 5.017 5.569 1.677 11.232-3.87 16.79-3.658 3.66-7.36 6.397-11.05 6.397-2.083 0-4.168-.87-6.235-2.946a10.286 10.286 0 0 1-2.067-2.925c-3.476 2.88-6.794 5.808-9.674 8.687-13.3 13.325-9.49 29.61 4.54 42.993 7.695 8.074 16.339 12.775 24.82 12.775 6.268 0 12.453-2.563 18.097-8.224 2.886-2.89 5.815-6.196 8.699-9.682a10.67 10.67 0 0 1-2.94-2.084c-5.727-5.73-2.27-11.575 3.455-17.304 3.644-3.65 7.333-6.354 11.013-6.354 1.943 0 3.878.756 5.813 2.528 2.933-4.204 5.363-7.75 6.963-9.942 7.637-10.453 2.547-20.216-7.666-32.21" fill="#F7B018"/><path fill="#3C323F" d="M41.847 87.986l-8.838-8.841-16.823 19.207 6.409 6.549zM102.2 14.054L97.528 9.37a3.699 3.699 0 0 0-5.235 0 3.714 3.714 0 0 0 0 5.25l4.403 4.41-1.799 1.624-4.323-4.327a3.7 3.7 0 0 0-5.234 0 3.724 3.724 0 0 0 0 5.25l4.05 4.052-33.454 30.2 9.003 9.023 9.678-10.557 20.568-22.86 4.041 4.05a3.704 3.704 0 0 0 2.623 1.084c.95 0 1.895-.36 2.613-1.085a3.715 3.715 0 0 0 0-5.25l-4.308-4.317 1.624-1.798 4.403 4.408a3.666 3.666 0 0 0 2.613 1.085c.948 0 1.893-.36 2.612-1.085a3.717 3.717 0 0 0 0-5.249l-4.666-4.68 1.825-2.028-4.357-4.326-2.006 1.81z"/><path d="M115.777 16.304c2.03-2.035-1.207-6.326 4.192-11.742l-3.772-3.77c-5.54 5.564-9.665 2.15-11.719 4.197-1.942 1.956-2.006 5.113-.216 7.205l-.055.05 4.356 4.325.03-.034c2.093 1.782 5.249 1.713 7.184-.23" fill="#F7B018"/><path fill="#000" d="M65.031 64.945l9.585-10.65-9.678 10.557z"/><path fill="#3C323F" d="M58.558 76.162L45.5 62.72l1.341-1.305 13.055 13.44zm-3.393 3.35L42.11 66.071l1.34-1.305 13.055 13.44zM51.5 82.87L38.443 69.427l1.34-1.305 13.055 13.44z"/></g></svg>