<svg width="120" height="120" viewBox="0 0 120 120" xmlns="http://www.w3.org/2000/svg" xmlns:xlink="http://www.w3.org/1999/xlink"><defs><path id="a" d="M.458.595h9.872V7.66H.458z"/><path id="c" d="M.458.595h9.872V7.66H.458z"/></defs><g fill="none" fill-rule="evenodd"><path d="M54.185 36.504a3.128 3.128 0 0 0-3.142-3.118 3.126 3.126 0 0 0-3.132 3.118 3.13 3.13 0 0 0 3.132 3.128 3.131 3.131 0 0 0 3.142-3.128m-3.908-.807c0-.646.516-1.171 1.178-1.171.647 0 1.178.525 1.178 1.171 0 .654-.531 1.172-1.178 1.172a1.164 1.164 0 0 1-1.178-1.172m21.356.442a1.183 1.183 0 0 1-1.188-1.185 1.18 1.18 0 0 1 1.188-1.172 1.178 1.178 0 0 1 0 2.357m2.73-.38c0-1.718-1.402-3.115-3.14-3.115a3.128 3.128 0 0 0-3.133 3.116 3.13 3.13 0 0 0 3.133 3.131 3.13 3.13 0 0 0 3.14-3.131" fill="#3F3A3A"/><g transform="matrix(-1 0 0 1 45.76 112.16)"><mask id="b" fill="#fff"><use xlink:href="#a"/></mask><path d="M7.833 1.261C9.93 3.347 11.278 6.176 9.518 7.25c-1.75 1.075-4.577-.14-7.017-1.613C.083 4.154.482.595.482.595s4.115 2.01 7.35.666" fill="#3F3A3A" mask="url(#b)"/></g><path d="M76.253 105.023s-3.11 2.15-6.413.946c-2.57 6.85 9.717 3.764 9.987 2.28.27-1.484-3.574-3.226-3.574-3.226" fill="#3F3A3A"/><path d="M41.1 96.012s-2.84 2.829-6.013 3.226c-.67 1.548.745 2.56.745 2.56 2.805-.625 5.04-1.927 6.737-3.303-.895-.44-1.275-1.494-1.468-2.483" fill="#595757"/><path d="M60.48 87.56c-6.228.85-12.956 1.086-18.71-.28 0 0 3.369 1.408 3.508 3.893.02.334.02.645-.01.935.301.184.83.613 1.155 1.571 0 0-.583 1.032-1.77 2.375 0 .034.01.065.02.097.27.872.94 2.419-.874 2.55-.485.032-.897-.044-1.23-.206-1.696 1.377-3.931 2.678-6.738 3.302 0 0-1.412-1.01-.745-2.56 0 0-.938-3.624.812-6.516 0 0-2.864-1.71-5.54-3.923-1.134 13.697 7.57 24.624 7.57 24.624 3.236 1.344 7.35-.668 7.35-.668 4.384-3.3 9.782-14.118 9.782-14.118 3.315.064 8.972-1.55 8.972-1.55 2.029 6.12 5.809 8.883 5.809 8.883 3.303 1.204 6.412-.946 6.412-.946 4.027-7.57 3.8-21.055 3.778-22.054a118.986 118.986 0 0 1-12.955 3.462c-.918.182-1.857.364-2.829.537a99.51 99.51 0 0 1-3.766.591" fill="#888889"/><path d="M45.269 92.107c-.088 1.893-.77 3.185-.616 3.947 1.186-1.344 1.769-2.375 1.769-2.375-.324-.96-.854-1.387-1.153-1.572" fill="#595757"/><path d="M24.83 76.935s0 2.41 1.08 6.453c.463 1.742 2.396 3.72 4.447 5.41 2.677 2.213 5.54 3.922 5.54 3.922-1.749 2.893-.81 6.519-.81 6.519C38.26 98.84 41.1 96.01 41.1 96.01c.195.991.574 2.043 1.469 2.485.333.162.745.237 1.23.204 1.814-.13 1.144-1.678.873-2.548-.009-.033-.02-.064-.02-.097-.152-.762.529-2.054.616-3.947.03-.29.03-.602.01-.935-.14-2.485-3.508-3.892-3.508-3.892-1.685-1.613-1.75-9.142-1.75-9.142l-15.18-1.29-.01.086z" fill="#FCE2AE"/><path d="M75.853 53.364a9.966 9.966 0 0 1-5.743 1.786s-.022.01-.054.042c-.14.13-.573.494-1.284.958l.054.075s5.408 5.42 9.014 12.881l.097-.042c.227-.27.444-.568.648-.924 1.813-3.154 2.591-9.346 2.84-11.774.064-.635.086-1.012.086-1.012-1.674-.741-5.107-1.816-5.658-1.99m-44.47 6.086c-9.177 5.916-7.157 17.346-7.157 17.346l.615.053 15.18 1.29 2.159-10.085c-.69-4.776-3.607-6.571-4.48-7.013-2.268-.107-4.448-.601-6.23-1.73l-.087.14z" fill="#DBDCDC"/><path d="M47.814 59.677c-2.741.764-6.53 1.56-10.115 1.364.874.442 3.79 2.236 4.481 7.013L40.02 78.14s.066 7.528 1.75 9.14c5.754 1.365 12.481 1.13 18.71.28 3.54-7.656-1.847-23.4-1.847-23.4-2.699-3-9.63-4.28-10.819-4.483m32.217 23.292c.605-.204.94-.324.94-.324.29-4.753-1.155-9.45-3.13-13.539-3.607-7.461-9.016-12.88-9.016-12.88l-.053-.077c-.4.258-.896.56-1.48.86-.226.7-1.2 3.409-3.12 5.667 0 0 5.874 11.636 2.904 23.732v.023a118.986 118.986 0 0 0 12.955-3.462" fill="#0084BB"/><path d="M63.762 58.395c-.043.248-.485 2.228-2.763 3.745 0 0 6.002 10.129 3.249 24.829.972-.174 1.91-.355 2.827-.538v-.023c2.97-12.096-2.903-23.732-2.903-23.732 1.92-2.258 2.893-4.967 3.12-5.667-.95.484-2.126.99-3.53 1.386" fill="#FEFEFE"/><path d="M60.999 62.14s-3.941-2.367-7.58-3.399c-.01 0-.022 0-.034-.011a24.665 24.665 0 0 1-1.629-.354s-1.589.645-3.942 1.301c1.188.203 8.12 1.483 10.819 4.483 0 0 5.387 15.743 1.848 23.4a99.51 99.51 0 0 0 3.767-.592c2.754-14.699-3.25-24.828-3.25-24.828M50.276 35.698c0 .653.517 1.171 1.178 1.171.648 0 1.178-.518 1.178-1.171 0-.646-.53-1.172-1.178-1.172a1.17 1.17 0 0 0-1.178 1.172m20.169-.743a1.183 1.183 0 1 0 2.365 0c0-.645-.53-1.172-1.177-1.172a1.18 1.18 0 0 0-1.188 1.172" fill="#FEFEFE"/><path d="M60.793 39.687a.528.528 0 0 0 .064.752.512.512 0 0 0 .345.129.563.563 0 0 0 .412-.183c.388-.453 1.586-1.6 2.667-1.558 1.057.042 1.23 1.085 1.24 1.214.044.29.325.495.605.453a.534.534 0 0 0 .475-.591c-.096-.723-.68-2.088-2.268-2.154-1.75-.062-3.476 1.851-3.54 1.938" fill="#FACE8B"/><path d="M59.852 47.041c-1.521 2.454-1.26 5.354.585 6.506 1.845 1.14 4.577.086 6.112-2.366 1.52-2.44 1.261-5.354-.584-6.495-1.847-1.15-4.579-.086-6.113 2.355" fill="#E50113"/><path d="M28.404 55.29c.01.192-.01.376-.054.525l.054.012a8.418 8.418 0 0 0 3.067 3.483c1.78 1.13 3.96 1.624 6.229 1.731 3.585.194 7.373-.6 10.115-1.363 2.352-.657 3.941-1.302 3.941-1.302S47.438 40.17 30.844 43.063l-.108-.022c-.476 1.817-2.451 9.42-2.332 12.248m47.449-1.925c2.138-1.463 3.683-3.741 4.373-6.41.584-2.245-.226-5.537-1.284-8.514-.81.14-8.378 1.945-8.886 16.752.032-.033.054-.042.054-.042 2.16 0 4.124-.657 5.743-1.786" fill="#FCE2AE"/><path d="M53.42 58.741C57.056 59.773 61 62.14 61 62.14c2.277-1.515 2.719-3.495 2.763-3.744-2.668.753-6.144 1.141-10.344.346" fill="#FBDEAE"/><path d="M78.585 68.14l.097.055c4.243 1.343 13.02.204 13.02.204.4 2.482 5.398 3.763 7.957 1.47 2.57-2.278 1.49-6.31 1.49-6.31s6.004-.269 4.653-3.29c-1.349-3.034-12.545-.077-12.545-.077-6.952-3.29-11.811-3.827-11.811-3.827h-.022c-.249 2.429-1.025 8.622-2.839 11.775M60.437 53.546c-1.846-1.15-2.106-4.052-.585-6.505 1.534-2.441 4.266-3.504 6.111-2.354 1.847 1.14 2.106 4.053.586 6.494-1.535 2.452-4.267 3.507-6.112 2.365m11.94-23.064c-1.113-.303-1.716.268-2.71.57-.96.279-1.176-.141-.497-.893 0 0 1.338-1.356 3.1-1.356 1.749 0 2.159.948 1.759 1.484-.454.59-1.059.357-1.652.195m-1.155 2.161c1.738 0 3.142 1.4 3.142 3.116a3.133 3.133 0 0 1-3.142 3.133 3.13 3.13 0 0 1-3.131-3.133 3.127 3.127 0 0 1 3.131-3.116m4.686-5.581c-16.194 2.558-26.312-4.3-26.312-4.3 1.48 3.225 2.56 3.225 4.05 4.429 1.793 1.474.13 2.151-1.21 2.151-9.046-.13-10.797-4.3-10.797-4.3-2.698 1.481-4.459 4.837-5.808 9.547-1.349 4.71-2.288 2.69-3.648-.409-1.338-3.086-5.798-4.838-7.277 2.83-1.49 7.665 5.939 5.644 5.939 5.644s-.046.14-.108.387l.108.022c16.593-2.893 20.91 15.313 20.91 15.313.53.075 1.081.203 1.631.355.01.01.022.01.033.01 4.2.795 7.676.408 10.344-.346a19.352 19.352 0 0 0 3.53-1.385c.583-.3 1.079-.603 1.479-.86.712-.463 1.144-.827 1.284-.958.507-14.807 8.076-16.613 8.886-16.753-1.156-3.248-2.614-6.107-2.894-6.807-.54-1.345-.14-4.57-.14-4.57M50.072 29.62c1.75 0 3.099 1.336 3.099 1.336.68.762.455 1.18-.499.902-.993-.302-1.595-.872-2.708-.57-.593.162-1.198.397-1.65-.194-.403-.537 0-1.474 1.758-1.474m.971 3.765a3.128 3.128 0 0 1 3.142 3.119 3.131 3.131 0 0 1-3.142 3.129 3.13 3.13 0 0 1-3.132-3.13 3.127 3.127 0 0 1 3.132-3.118m13.237 5.442c-1.08-.042-2.277 1.106-2.667 1.558a.562.562 0 0 1-.41.183.508.508 0 0 1-.346-.13.527.527 0 0 1-.064-.75c.064-.089 1.792-2.002 3.54-1.938 1.588.066 2.171 1.43 2.269 2.152a.534.534 0 0 1-.476.591.543.543 0 0 1-.605-.452c-.01-.13-.183-1.172-1.24-1.214" fill="#FCE2AE"/><path d="M72.27 28.803c-1.761 0-3.1 1.356-3.1 1.356-.679.75-.463 1.17.498.893.992-.303 1.597-.872 2.71-.571.593.162 1.198.397 1.652-.194.398-.536-.012-1.484-1.76-1.484m-19.1 2.152s-1.348-1.335-3.099-1.335c-1.758 0-2.16.937-1.758 1.473.452.591 1.057.358 1.65.195 1.113-.302 1.717.269 2.709.57.953.28 1.179-.14.498-.903" fill="#794D45"/><path d="M19.508 50.45c2.905 4.913 8.312 7.709 8.841 5.365a1.58 1.58 0 0 0 .054-.526c-.118-2.828 1.857-10.431 2.334-12.248.063-.247.108-.386.108-.386s-7.429 2.02-5.94-5.645c1.48-7.668 5.94-5.916 7.278-2.83 1.36 3.099 2.3 5.12 3.648.41 1.35-4.71 3.11-8.066 5.81-9.549 0 0 1.75 4.171 10.794 4.301 1.34 0 3.004-.676 1.211-2.15-1.49-1.205-2.57-1.205-4.05-4.43 0 0 10.118 6.859 26.312 4.3 1.36-.41 6.757-16.26-12.134-23.926C50.277-2.38 39.2 5.018 39.2 5.018s0-3.226 4.599-4.57c0 0-8.377-2.687-10.666 5.107 0 0-8.767-2.278-11.066 6.184 0 0 3.778-1.076 5.397-.398 0 0-11.876 4.431-11.606 17.463 0 0 2.29-4.022 4.73-4.431 0 0-8.379 11.7-1.08 26.078" fill="#794D45"/><path d="M53.308 26.933c-1.32-.965-2.346-1.196-3.712-4.173 0 0 7.906 5.344 20.91 4.828-3.857 1.017-9.9 1.682-17.198-.655m34.346 38.661c8.277-1.255 9.177 6.503 13.495-2.036 0 0 1.08 4.033-1.49 6.313-2.558 2.293-7.556 1.01-7.956-1.472 0 0-8.777 1.139-13.02-.204l-.098-.055c.69-1.199 1.229-2.837 1.645-4.54 1.455 1.426 3.774 2.547 7.424 1.994M38.89 96.778c3.598-1.253 3.779-5.735 2.519-6.81-1.26-1.075 0-5.556-4.678-10.217-3.41-3.393-8.817-.987-11.507.57-.388-2.151-.394-3.386-.394-3.386l.01-.085 15.18 1.289s.066 7.53 1.75 9.142c0 0 3.368 1.406 3.508 3.892.02.333.02.645-.009.934-.088 1.894-.769 3.186-.616 3.948 0 .033.01.063.02.097.27.87.94 2.418-.874 2.548-.486.033-.897-.042-1.23-.205-.895-.441-1.274-1.493-1.468-2.484 0 0-2.84 2.83-6.015 3.227 0 0-.761-2.964.387-5.67-.006.167-.11 4.442 3.417 3.21" fill="#FAD4A0"/><path d="M30.63 89.018c-.09-.074-.183-.147-.273-.22-.997-.823-1.962-1.713-2.747-2.609l3.02 2.829z" fill="#FAD4A0"/><path d="M37.7 61.041c3.585.194 7.373-.601 10.115-1.363.751.126 3.793.688 6.61 1.837-2.456-.349-5.924-.466-8.876.853 0 0-1.982 1.077-.722 4.48 1.262 3.407-4.497 17.743 4.139 19.715 8.399 1.916 16.28-4.64 9.274-22.79.135.127.275.253.394.387 0 0 5.387 15.743 1.847 23.399-6.23.85-12.957 1.086-18.71-.279-1.686-1.612-1.75-9.14-1.75-9.14l2.158-10.086c-.69-4.776-3.605-6.571-4.48-7.013m27.698 4.576c-.675-1.85-1.224-2.94-1.224-2.94 1.92-2.259 2.893-4.968 3.12-5.667a17.76 17.76 0 0 0 1.479-.86l.053.076s.535.533 1.377 1.497c-2.153.65-4.441 6.865-4.805 7.894m1.185 3.791c5.713 11.367 3.445 15.644 10.277 11.779 2.939-1.664 3.22-5.209 2.289-9.049 1.257 3.308 2.046 6.891 1.824 10.507 0 0-.336.12-.941.324a118.986 118.986 0 0 1-12.955 3.462v-.023c1.554-6.327.685-12.526-.494-17" fill="#006798"/><path d="M56.884 60.129c-2.287-.538-4.478-.236-6.094.198a36.765 36.765 0 0 0-2.976-.65c2.353-.656 3.942-1.301 3.942-1.301.55.14 1.1.258 1.63.354.011.011.023.011.033.011 3.639 1.032 7.58 3.398 7.58 3.398s6.003 10.13 3.249 24.829c-1.23.214-2.483.419-3.767.59 9.261-5.366.992-26.354-3.597-27.43m7.828-.671c-.828.823-2.28 1.77-3.408 2.448 1.995-1.478 2.418-3.273 2.459-3.51a19.314 19.314 0 0 0 3.53-1.385c-.071.217-.221.64-.442 1.166-.688.175-1.51.654-2.139 1.28" fill="#DADADA"/><path d="M70.056 55.192c.032-.032.053-.041.053-.041a9.97 9.97 0 0 0 5.744-1.787c.237.075 1.006.314 1.935.621-2.289 1.334-5.607 3.84-3.764 6.412 2.262 3.155 5.18 3.662 6.067 3.746-.396 1.505-.89 2.928-1.506 3.997a6.334 6.334 0 0 1-.648.923l-.096.042c-3.607-7.46-9.016-12.88-9.016-12.88l-.054-.076c.713-.462 1.145-.826 1.285-.957m-33.28 8.297c-1.924-3.143-5.47-2.7-8.24-1.69a15.63 15.63 0 0 1 2.847-2.348l.087-.14c1.782 1.129 3.962 1.623 6.23 1.73.873.442 3.79 2.237 4.48 7.013L40.02 78.14l-12.373-1.052c9.309-.133 12.16-8.651 9.13-13.6" fill="#B4B5B5"/><path d="M45.156 90.521c-.614-2.074-3.386-3.24-3.386-3.24a34.59 34.59 0 0 0 4.187.701 14.999 14.999 0 0 1-.801 2.54" fill="#6F6E6E"/><path d="M30.358 88.797c2.677 2.214 5.54 3.923 5.54 3.923a7.228 7.228 0 0 0-.885 2.344c-.764-.885-2.123-2.192-2.69-1.063-.81 1.612 1.213 17.474 7.559 18.147 6.342.671 15.924-15.996 13.358-16.264-2.564-.27-.81-.942 1.485-1.21 2.293-.269 0-2.286-2.43-2.69-2.428-.401-1.483-1.613 1.487-1.745 2.968-.137 6.747-1.614 1.889-1.346-1.897.105-3.749-.222-5.306-.657 3.368.042 6.81-.226 10.115-.677a97.067 97.067 0 0 0 3.768-.591c.972-.172 1.91-.355 2.827-.537 3.287-.68 6.222-1.446 8.543-2.107-.833.783-2.311 1.772-4.833 2.42-4.723 1.208-4.184 1.747-2.025 2.15 2.16.404 2.7 1.613.406 1.613s-5.264 2.418-3.51 2.956c1.755.538 1.349 1.21-.135 1.613s3.374 9.679 7.692 9.947c1.278.079 2.555-.42 3.755-1.507a18.88 18.88 0 0 1-.716 1.507s-3.109 2.15-6.412.946c0 0-3.778-2.764-5.809-8.883 0 0-5.656 1.614-8.971 1.55 0 0-5.398 10.82-9.781 14.12 0 0-4.114 2.01-7.352.666 0 0-8.704-10.927-7.57-24.625" fill="#6F6E6E"/><path d="M69.84 105.969c.487.176.97.276 1.438.324.403 1.241 1.494 3.097 4.365 2.36 2.464-.634 3.515-1.316 3.211-2.04.616.513 1.072 1.092.973 1.636-.27 1.485-12.556 4.57-9.987-2.28" fill="#2C2421"/><g transform="matrix(-1 0 0 1 45.76 112.16)"><mask id="d" fill="#fff"><use xlink:href="#c"/></mask><path d="M7.833 1.261s2.906 3.295.88 4.505c-1.381.827-3.583-2.175-4.84-4.159C1.979 1.32.484.595.484.595S.082 4.154 2.5 5.637C4.941 7.111 7.77 8.325 9.518 7.25c1.76-1.074.412-3.903-1.685-5.989" fill="#2C2421" mask="url(#d)"/></g><path d="M15.858 28.803c-.27-13.031 11.606-17.462 11.606-17.462a2.437 2.437 0 0 0-.478-.135c.688-.358 3.352-1.39.028 6.178-3.778 8.603 12.956 2.688 14.756 5.016 1.799 2.332 6.297 3.943 4.138.18-2.16-3.762 4.678-1.432 4.678-1.432 17.585 5.272 24.481 2.926 27.077-.49-.023 3.598-1.21 6.24-1.755 6.404-16.195 2.558-26.313-4.3-26.313-4.3 1.482 3.225 2.56 3.225 4.052 4.43 1.791 1.474.129 2.15-1.212 2.15-9.046-.13-10.795-4.3-10.795-4.3-2.698 1.481-4.46 4.838-5.809 9.547-1.35 4.71-2.288 2.69-3.649-.409-1.338-3.086-5.797-4.838-7.276 2.83-1.49 7.665 5.938 5.645 5.938 5.645s-.045.139-.108.386c-.476 1.817-2.452 9.42-2.332 12.248.01.193-.01.377-.054.526-.53 2.344-5.938-.452-8.841-5.364-7.3-14.379 1.079-26.079 1.079-26.079-2.442.41-4.73 4.431-4.73 4.431" fill="#623C36"/><path d="M37.81 10.036c15.353 2.816 25.058-2.597 28.973-5.5 4.45 2.342 7.186 5.199 8.804 8.08-22.4 12.278-37.777-2.58-37.777-2.58" fill="#A86E63"/></g></svg>