<svg width="100" height="100" viewBox="0 0 100 100" xmlns="http://www.w3.org/2000/svg" xmlns:xlink="http://www.w3.org/1999/xlink"><defs><path id="a" d="M.085.069h7.012v7.013H.085V.07z"/></defs><g fill="none" fill-rule="evenodd"><path d="M92.84 61.107a2.535 2.535 0 0 1-.99 2.193 15.814 15.814 0 0 1-16.493 1.67l-.802-.386a2.537 2.537 0 0 1 2.21-4.567l.8.387a10.74 10.74 0 0 0 11.205-1.135 2.537 2.537 0 0 1 4.07 1.838M58.533 86.831a2.899 2.899 0 0 0 2.899-2.898V73.786h-5.798v10.147a2.899 2.899 0 0 0 2.899 2.898M39.471 86.3a2.899 2.899 0 0 0 3.706-1.754l3.415-9.555-5.46-1.951-3.415 9.554a2.899 2.899 0 0 0 1.754 3.706" fill="#1794CF"/><path d="M70.577 65.212V37.08c0-6.404-5.191-11.596-11.595-11.596H30.848c-6.404 0-11.596 5.192-11.596 11.596v28.133c0 6.405 5.192 11.596 11.596 11.596h28.134c6.404 0 11.595-5.191 11.595-11.596" fill="#1794CF"/><path d="M7.249 55.16a2.534 2.534 0 0 0 .115 2.403 15.815 15.815 0 0 0 14.726 7.615l.887-.066a2.537 2.537 0 0 0-.376-5.059l-.887.066a10.743 10.743 0 0 1-10.004-5.173 2.537 2.537 0 0 0-4.461.213m73.328 10.053V37.08c0-6.404-5.191-11.596-11.596-11.596H40.849c-6.404 0-11.596 5.192-11.596 11.596v28.133c0 6.405 5.192 11.596 11.596 11.596H68.98c6.405 0 11.596-5.191 11.596-11.596" fill="#33AAD9"/><path d="M40.848 71.735a6.53 6.53 0 0 1-6.523-6.523V37.08a6.53 6.53 0 0 1 6.523-6.523H68.98a6.53 6.53 0 0 1 6.523 6.523v28.133a6.53 6.53 0 0 1-6.523 6.523H40.848z" fill="#FFF"/><path d="M40.259 56.563a5.934 5.934 0 0 0-5.934-5.934v11.868a5.934 5.934 0 0 0 5.934-5.934m29.311 0a5.934 5.934 0 0 1 5.934-5.934v11.868a5.934 5.934 0 0 1-5.934-5.934" fill="#EC8FB4"/><path d="M43.618 46.594a3.951 3.951 0 1 1-7.902 0 3.951 3.951 0 0 1 7.902 0m31.267 0a3.951 3.951 0 1 1-7.902 0 3.951 3.951 0 0 1 7.902 0" fill="#514740"/><path d="M55.387 65.697c-6.37 0-11.552-5.182-11.552-11.552 0-6.369 5.182-11.551 11.552-11.551 6.37 0 11.551 5.182 11.551 11.551 0 6.37-5.182 11.552-11.551 11.552" fill="#6D6D6D"/><path d="M61.376 54.145a5.99 5.99 0 1 1-11.978 0 5.99 5.99 0 0 1 11.978 0" fill="#27221F"/><path d="M55.387 65.697c-6.37 0-11.552-5.182-11.552-11.552 0-6.369 5.182-11.551 11.552-11.551 6.37 0 11.551 5.182 11.551 11.551 0 6.37-5.182 11.552-11.551 11.552" fill="#6D6D6D"/><path d="M61.376 54.145a5.99 5.99 0 1 1-11.978 0 5.99 5.99 0 0 1 11.978 0" fill="#27221F"/><path d="M30.065 28.84c1.215-6.223-2.851-12.253-9.08-13.456-6.229-1.204-12.295 2.932-13.452 9.17-.86 4.636 1.203 9.15 4.897 11.623a2.622 2.622 0 0 1 1.143 2.593l-2.972 18.502a2.19 2.19 0 0 0 4.294.839L19.1 39.858a2.631 2.631 0 0 1 2.037-1.982c4.387-.91 8.017-4.362 8.93-9.035" fill="#8A6239"/><g transform="translate(10 13.131)"><mask id="b" fill="#fff"><use xlink:href="#a"/></mask><path d="M3.585 7.082a3.485 3.485 0 0 1-1.793-.498 3.482 3.482 0 0 1-1.6-2.154 3.482 3.482 0 0 1 .391-2.654 3.481 3.481 0 0 1 2.154-1.6A3.48 3.48 0 0 1 5.39.567a3.481 3.481 0 0 1 1.6 2.154 3.51 3.51 0 0 1-3.406 4.361" fill="#603813" mask="url(#b)"/></g><path d="M26.418 21.323c-1.569 0-3-1.063-3.4-2.651a3.483 3.483 0 0 1 .391-2.654 3.482 3.482 0 0 1 2.154-1.6 3.51 3.51 0 0 1 4.254 2.545 3.51 3.51 0 0 1-3.4 4.36" fill="#603813"/><path d="M30.065 28.84c-1.213 6.217-7.236 10.273-13.453 9.06-6.216-1.214-10.272-7.237-9.058-13.454 1.213-6.216 7.236-10.272 13.453-9.058 6.216 1.213 10.272 7.237 9.058 13.453" fill="#603813"/><path d="M19.5 23.106c-4.86-.949-9.603 1.324-12.02 5.332a11.504 11.504 0 0 0 4.953 7.741 2.613 2.613 0 0 1 1.141 2.583l-.609 3.79c-.228 1.422.702 2.781 2.114 3.06l.026.006.027.005c1.413.272 2.786-.638 3.109-2.04l.858-3.725a2.631 2.631 0 0 1 2.037-1.982 11.505 11.505 0 0 0 7.497-5.309c-.733-4.623-4.272-8.512-9.133-9.461" fill="#603813"/><path d="M7.554 24.446c-.4 2.05-.227 4.08.407 5.922l19.5 3.807a11.414 11.414 0 0 0 2.604-5.334c.4-2.05.227-4.08-.407-5.922l-19.5-3.807a11.414 11.414 0 0 0-2.604 5.334" fill="#F5911E"/><path d="M26.65 29.837l-.708-2.224c-.655-2.057-2.588-2.434-3.968-.775l-1.493 1.795c-1.38 1.66-3.314 1.282-3.968-.775l-.708-2.224c-.655-2.057-2.589-2.434-3.969-.775l-1.492 1.795c-.93 1.118-2.11 1.31-2.983.689.064 1.043.268 2.06.6 3.025l9.53 1.86.44.086 5.648 1.103 3.881.758a11.395 11.395 0 0 0 1.694-2.578c-1.042.248-2.063-.374-2.504-1.76" fill="#B71228"/></g></svg>