<svg width="120" height="120" viewBox="0 0 120 120" xmlns="http://www.w3.org/2000/svg"><g fill="none" fill-rule="evenodd"><path fill="#02A099" d="M.743 61.37l7.925 9.722-7.925 9.72h23.091V61.37z"/><path stroke="#027975" stroke-width="1.486" stroke-linecap="round" stroke-linejoin="round" d="M8.667 71.091l-7.925 9.72h23.092v-19.44H.742l7.925 9.72"/><path fill="#027975" d="M8.667 71.091l-7.925 9.72h23.092v-9.72"/><path fill="#02A099" d="M97.652 61.37v19.442h23.09l-7.922-9.72 7.922-9.722z"/><path stroke="#027975" stroke-width="1.486" stroke-linecap="round" stroke-linejoin="round" d="M112.82 71.091l7.923 9.72H97.652v-19.44h23.09l-7.922 9.72"/><path fill="#027975" d="M112.82 71.091l7.923 9.72H97.652v-9.72"/><path d="M16.073 76.787a.743.743 0 0 1-.743-.743V56.17c0-.41.333-.744.743-.744h89.34c.41 0 .743.333.743.743v19.876c0 .41-.333.742-.743.742h-89.34z" fill="#00D6C8"/><path d="M105.413 54.684h-89.34c-.82 0-1.486.665-1.486 1.485v19.875c0 .821.666 1.486 1.486 1.486h89.34c.82 0 1.485-.665 1.485-1.486V56.169c0-.82-.665-1.485-1.485-1.485zm-89.34 21.36h89.34V56.169h-89.34v19.875z" fill="#027975"/><path fill="#02A099" d="M16.073 76.044h89.34v-9.938h-89.34z"/><path d="M49.136 73.073a.8.8 0 0 1-.376-.094l-9.056-4.795-9.055 4.795a.803.803 0 0 1-.847-.058c-.248-.18-.693-.485-.643-.786l2.053-10.164-7.331-7.198c-.217-.213-.295-2.138-.2-2.428.095-.29.345-.18.646-.224l10.127-.197 4.53-9.244a.804.804 0 0 1 1.442 0l4.529 9.244 10.127.197c.302.044.552-.066.646.224.095.29.017 2.215-.2 2.428l-7.33 7.198 2.035 10.064a.788.788 0 0 1 .033.234c0 .445-.68.804-1.124.804h-.006z" fill="#C94B06"/><path d="M49.136 73.073a.8.8 0 0 1-.376-.094l-9.056-4.795-9.055 4.795a.803.803 0 0 1-.847-.058c-.248-.18-.693-.485-.643-.786l2.053-10.164-7.331-7.198c-.217-.213-.295-2.138-.2-2.428.095-.29.345-.18.646-.224l10.127-.197 4.53-9.244a.804.804 0 0 1 1.442 0l4.529 9.244 10.127.197c.302.044.552-.066.646.224.095.29.017 2.215-.2 2.428l-7.33 7.198 2.035 10.064a.788.788 0 0 1 .033.234c0 .445-.68.804-1.124.804h-.006z" stroke="#772F09" stroke-width="2.605" stroke-linecap="round" stroke-linejoin="round"/><path d="M49.136 71.145a.8.8 0 0 1-.376-.094l-9.056-4.795-9.055 4.795a.803.803 0 0 1-1.167-.844l1.73-10.165-7.331-7.197a.802.802 0 0 1 .446-1.367l10.127-1.482 4.53-9.244a.804.804 0 0 1 1.442 0l4.529 9.244 10.127 1.482a.801.801 0 0 1 .446 1.367l-7.33 7.197 1.712 10.065a.803.803 0 0 1-.768 1.038h-.006z" fill="#C94B06"/><path d="M49.136 71.145a.8.8 0 0 1-.376-.094l-9.056-4.795-9.055 4.795a.803.803 0 0 1-1.167-.844l1.73-10.165-7.331-7.197a.802.802 0 0 1 .446-1.367l10.127-1.482 4.53-9.244a.804.804 0 0 1 1.442 0l4.529 9.244 10.127 1.482a.801.801 0 0 1 .446 1.367l-7.33 7.197 1.712 10.065a.803.803 0 0 1-.768 1.038h-.006z" stroke="#772F09" stroke-width="2.605" stroke-linecap="round" stroke-linejoin="round"/><path d="M49.136 73.073a.8.8 0 0 1-.376-.094l-9.056-4.795-9.055 4.795a.803.803 0 0 1-.847-.058c-.248-.18-.693-.485-.643-.786l2.053-10.164-7.331-7.198c-.217-.213-.295-2.138-.2-2.428.095-.29.345-.18.646-.224l10.127-.197 4.53-9.244a.804.804 0 0 1 1.442 0l4.529 9.244 10.127.197c.302.044.552-.066.646.224.095.29.017 2.215-.2 2.428l-7.33 7.198 2.035 10.064a.788.788 0 0 1 .033.234c0 .445-.68.804-1.124.804h-.006z" fill="#C94B06"/><path d="M49.136 71.145a.8.8 0 0 1-.376-.094l-9.056-4.795-9.055 4.795a.803.803 0 0 1-1.167-.844l1.73-10.165-7.331-7.197a.802.802 0 0 1 .446-1.367l10.127-1.482 4.53-9.244a.804.804 0 0 1 1.442 0l4.529 9.244 10.127 1.482a.801.801 0 0 1 .446 1.367l-7.33 7.197 1.712 10.065a.803.803 0 0 1-.768 1.038h-.006z" fill="#FEDD02"/><path d="M39.011 42.227c-.693 1.102-3.101 5.788.311 4.488 3.099-1.182 1.211-6.907-.311-4.489-.389.618.324-.514 0 0" fill="#FFF"/><path d="M36.626 47.323c-.435.27-.886.9-.784 1.394.076.372.271.751.624.95.412.235 1.031.19 1.418-.083.546-.383.673-1.375.215-1.866-.423-.455-.876-.562-1.473-.395m-5.966 4.37c-1.33-.371-6.896-.187-5.143 1.748 2.424 2.675 7.022-1.225 5.143-1.748-.258-.072.363.102 0 0" fill="#FFF"/><path d="M55.728 52.023a.801.801 0 0 0-.646-.545L47 50.295c-.236 7.687-6.71 14.024-14.444 14.024-.693 0-1.378-.054-2.048-.152l-1.027 6.04a.803.803 0 0 0 1.167.844l9.056-4.795 9.055 4.795a.8.8 0 0 0 .376.094h.005a.804.804 0 0 0 .77-1.038l-1.713-10.064 7.33-7.198a.798.798 0 0 0 .2-.822" fill="#F29101"/><path d="M55.728 52.023a.801.801 0 0 0-.646-.545l-6.073-.89c.005.16.013.319.013.478 0 8.319-6.941 15.26-15.261 15.26a14.93 14.93 0 0 1-3.546-.432l-.733 4.313a.803.803 0 0 0 1.167.844l9.056-4.795 9.055 4.795a.8.8 0 0 0 .376.094h.005a.804.804 0 0 0 .77-1.038l-1.713-10.064 7.33-7.198a.798.798 0 0 0 .2-.822" fill="#F29101"/><path d="M91.212 73.073a.8.8 0 0 1-.376-.094l-9.056-4.795-9.055 4.795a.8.8 0 0 1-.846-.058c-.249-.18-.694-.485-.643-.786l2.052-10.164-7.33-7.198c-.218-.213-.296-2.138-.2-2.428.094-.29.344-.18.645-.224l10.127-.197 4.53-9.244a.802.802 0 0 1 1.442 0l4.53 9.244 10.126.197c.302.044.552-.066.647.224.094.29.016 2.215-.2 2.428l-7.33 7.198 2.034 10.064a.789.789 0 0 1 .034.234c0 .445-.68.804-1.124.804h-.007z" fill="#C94B06"/><path d="M91.212 73.073a.8.8 0 0 1-.376-.094l-9.056-4.795-9.055 4.795a.8.8 0 0 1-.846-.058c-.249-.18-.694-.485-.643-.786l2.052-10.164-7.33-7.198c-.218-.213-.296-2.138-.2-2.428.094-.29.344-.18.645-.224l10.127-.197 4.53-9.244a.802.802 0 0 1 1.442 0l4.53 9.244 10.126.197c.302.044.552-.066.647.224.094.29.016 2.215-.2 2.428l-7.33 7.198 2.034 10.064a.789.789 0 0 1 .034.234c0 .445-.68.804-1.124.804h-.007z" stroke="#772F09" stroke-width="2.605" stroke-linecap="round" stroke-linejoin="round"/><path d="M91.212 71.145a.8.8 0 0 1-.376-.094l-9.056-4.795-9.055 4.795a.8.8 0 0 1-1.167-.844l1.73-10.165-7.33-7.197a.802.802 0 0 1 .445-1.367l10.127-1.482 4.53-9.244a.802.802 0 0 1 1.442 0l4.53 9.244 10.126 1.482a.804.804 0 0 1 .446 1.367l-7.33 7.197 1.712 10.065a.803.803 0 0 1-.767 1.038h-.007z" fill="#C94B06"/><path d="M91.212 71.145a.8.8 0 0 1-.376-.094l-9.056-4.795-9.055 4.795a.8.8 0 0 1-1.167-.844l1.73-10.165-7.33-7.197a.802.802 0 0 1 .445-1.367l10.127-1.482 4.53-9.244a.802.802 0 0 1 1.442 0l4.53 9.244 10.126 1.482a.804.804 0 0 1 .446 1.367l-7.33 7.197 1.712 10.065a.803.803 0 0 1-.767 1.038h-.007z" stroke="#772F09" stroke-width="2.605" stroke-linecap="round" stroke-linejoin="round"/><path d="M91.212 73.073a.8.8 0 0 1-.376-.094l-9.056-4.795-9.055 4.795a.8.8 0 0 1-.846-.058c-.249-.18-.694-.485-.643-.786l2.052-10.164-7.33-7.198c-.218-.213-.296-2.138-.2-2.428.094-.29.344-.18.645-.224l10.127-.197 4.53-9.244a.802.802 0 0 1 1.442 0l4.53 9.244 10.126.197c.302.044.552-.066.647.224.094.29.016 2.215-.2 2.428l-7.33 7.198 2.034 10.064a.789.789 0 0 1 .034.234c0 .445-.68.804-1.124.804h-.007z" fill="#C94B06"/><path d="M91.212 71.145a.8.8 0 0 1-.376-.094l-9.056-4.795-9.055 4.795a.8.8 0 0 1-1.167-.844l1.73-10.165-7.33-7.197a.802.802 0 0 1 .445-1.367l10.127-1.482 4.53-9.244a.802.802 0 0 1 1.442 0l4.53 9.244 10.126 1.482a.804.804 0 0 1 .446 1.367l-7.33 7.197 1.712 10.065a.803.803 0 0 1-.767 1.038h-.007z" fill="#FEDD02"/><path d="M81.087 42.227c-.693 1.102-3.1 5.788.311 4.488 3.1-1.182 1.211-6.907-.31-4.489-.389.618.323-.514 0 0" fill="#FFF"/><path d="M78.703 47.323c-.436.27-.887.9-.785 1.394.076.372.272.751.624.95.412.235 1.031.19 1.418-.083.546-.383.673-1.375.216-1.866-.424-.455-.877-.562-1.473-.395m-5.967 4.37c-1.33-.371-6.895-.187-5.141 1.748 2.424 2.675 7.02-1.225 5.14-1.748-.255-.072.365.102 0 0" fill="#FFF"/><path d="M97.805 52.023a.804.804 0 0 0-.646-.545l-8.081-1.183c-.236 7.687-6.711 14.024-14.445 14.024-.693 0-1.378-.054-2.047-.152l-1.028 6.04a.801.801 0 0 0 1.167.844l9.056-4.795 9.055 4.795a.8.8 0 0 0 .376.094h.005a.804.804 0 0 0 .77-1.038l-1.713-10.064 7.33-7.198a.8.8 0 0 0 .201-.822" fill="#F29101"/><path d="M97.805 52.023a.804.804 0 0 0-.646-.545l-6.074-.89c.006.16.014.319.014.478 0 8.319-6.942 15.26-15.262 15.26a14.93 14.93 0 0 1-3.546-.432l-.733 4.313a.801.801 0 0 0 1.167.844l9.056-4.795 9.055 4.795a.8.8 0 0 0 .376.094h.005a.804.804 0 0 0 .77-1.038l-1.713-10.064 7.33-7.198a.8.8 0 0 0 .201-.822" fill="#F29101"/></g></svg>