<svg xmlns="http://www.w3.org/2000/svg" width="46.188" height="45.132" viewBox="-0.256 0.683 46.188 45.132"><defs><style/></defs><g id="ID0.4861416635103524" transform="translate(-219 -161)"><path id="Star" fill="#FF0" stroke="#000" stroke-width="1.288" d="M253.495 204.832c-3.284 1.983-12.932-8.268-12.932-8.268s-11.243 8.481-14.146 5.97c-2.905-2.511 3.866-14.86 3.866-14.86s-11.54-8.072-10.048-11.608c1.492-3.54 15.326-.914 15.326-.914s4.108-13.469 7.933-13.147c3.83.325 5.61 14.295 5.61 14.295s14.079-.255 14.95 3.485c.878 3.738-11.86 9.75-11.86 9.75s4.593 13.313 1.301 15.297z"/><path id="Star_1_" fill="#FFF" d="M59.498 12.836c-.642.387-2.525-1.614-2.525-1.614s-2.193 1.655-2.759 1.165c-.566-.49.754-2.898.754-2.898s-2.25-1.576-1.96-2.265c.291-.69 2.989-.178 2.989-.178s.802-2.628 1.549-2.564c.746.063 1.092 2.788 1.092 2.788s2.748-.049 2.918.68c.172.73-2.312 1.902-2.312 1.902s.894 2.597.254 2.984z" transform="translate(93.85 162) scale(2.57572)"/></g></svg>