<svg width="120" height="120" viewBox="0 0 120 120" xmlns="http://www.w3.org/2000/svg" xmlns:xlink="http://www.w3.org/1999/xlink"><defs><path id="a" d="M.2.3h13.173v5.567H.2z"/></defs><g fill="none" fill-rule="evenodd"><path d="M23.018 49.722c8.231 12.834 19.219 2.126 15.48-9.221-2.714-8.234 12.01 2.678 12.01 2.678s-8.62 23.876-16.099 24.235c-7.48.354-11.416-11.328-11.39-17.692" fill="#F6B90C"/><path d="M83.715 41.76c-1.212-.516-2.669-.044-3.847 1.097-.532-.807-1.166-1.257-1.751-1.141-1.095.212-1.61 2.315-1.147 4.694.176.907.47 1.727.825 2.377.047.296.113.581.209.843h-.002l-5.554 6.557-11.96-4.304s.26 3.214.755 4.38c.36.848 2.98 3.58 2.98 3.58s8.603 3.514 11.048 2.621c3.017-1.096 6.48-10.98 6.48-10.98h-.002c1.3-.464 2.558-1.71 3.284-3.43 1.131-2.685.542-5.504-1.318-6.293" fill="#FDDFBB"/><path d="M76.572 38.83c0 6.204 5.007 11.235 11.182 11.235 6.179 0 11.183-5.031 11.183-11.236 0-6.207-5.004-11.238-11.183-11.238-6.175 0-11.182 5.031-11.182 11.238" fill="#F6B90C"/><path d="M87.754 50.066c.594 0 1.179-.048 1.751-.135h-.002l-.333-.13-.5-.214-.634-.296-.656-.32-.646-.343-.568-.294-.468-.272-.414-.23-.43-.253-.435-.255-.316-.198-.173-.143-.292-.043-.415-.058-.433-.047-.453-.03-.388-.026-.368-.013-.335-.039h-.703l-.36.011.32.423.297.362.237.288a11.082 11.082 0 0 0 6.717 2.255m0-22.475c-.971 0-1.915.127-2.814.36l-.617.466-.858.71-.735.657-.572.56-.51.53-.423.44-.404.452-.371.468-.25.309 4.309-.009.645-.528.448-.304.995-.635.758-.404.61-.343.801-.358.812-.34.82-.297.779-.232.487-.129.542-.127.478-.096a11.08 11.08 0 0 0-4.93-1.15m8.931 17.964V32.064c-.094-.124-.19-.244-.288-.364h-.013l-.361-.01-.722-.027-.655.022-.846.034-.677.051v16.913l-.015.004c1.407-.776 2.654-1.85 3.577-3.132" fill="#0771B7"/><path d="M79.827 46.728l1.136.002 1.242.056 1.318.125.86.13 1.649.284 1.12.244 1.038.277 1.061.326.224-1.068.178-1.062.168-1.11.154-.982.062-.697.051-.768H77.173a11.313 11.313 0 0 0 2.654 4.243m-3.132-9.548h13.424l-.052-.65-.072-.65-.058-.429-.18-1.004-.166-.796-.145-.6-.156-.526H78.5l-.005.002a11.204 11.204 0 0 0-1.802 4.651l.002.003z" fill="#0771B7"/><path d="M79.793 46.72c.25-.009.502-.013.758-.013 4.33 0 8.255 1.283 8.665 1.425.07-.314.563-2.599.798-5.634H77.18c-.009-.024-.013-.043-.021-.067h12.86c.123-1.605.17-3.413.044-5.235H76.691a.91.91 0 0 1 .008-.07h13.36a23.254 23.254 0 0 0-.502-3.485 14.76 14.76 0 0 0-.322-1.09H78.478l.043-.064h1.652a27.581 27.581 0 0 1 2.938-3.098c.51-.46 1.1-.95 1.749-1.416.06-.017.124-.034.19-.05-2.455 1.736-4.41 4.09-4.793 4.564h4.202c.258-.21 1.659-1.309 3.713-2.291 1.182-.569 2.722-1.161 4.466-1.479.03.018.066.035.098.052-1.77.31-3.337.912-4.535 1.484a20.452 20.452 0 0 0-3.64 2.234h4.693c.128-.037 2.94-.852 6.017-.852.38 0 .75.015 1.106.037.02.023.038.049.058.073a16.834 16.834 0 0 0-1.164-.041c-.722 0-1.429.043-2.088.114v16.835a.972.972 0 0 1-.064.036V31.824a24.315 24.315 0 0 0-3.782.708c.11.363.203.732.286 1.103.786 3.06.716 6.57.492 9.099a42.931 42.931 0 0 1-.818 5.408 20.84 20.84 0 0 0 3.474.732c-.035.02-.073.034-.11.051a21.044 21.044 0 0 1-3.394-.723s-2.236-.813-5.276-1.182c.303.238 2.21 1.371 4.208 2.315.417.195.876.393 1.369.582-.043.006-.085.015-.13.021-.455-.176-.882-.36-1.266-.543-2.274-1.075-4.275-2.39-4.275-2.39-1.187-.182-1.98-.234-3.346-.234l-.318.002c.141.187.485.616.972 1.163-.092-.066-.18-.133-.27-.201-.386-.442-.653-.79-.783-.96l-.295.011a1.788 1.788 0 0 0-.064-.066m16.954-14.572v13.364c-.023.026-.045.058-.066.088V32.06c.021.03.043.058.066.088" fill="#727371"/><path d="M76.887 46.152c.335 2.268 1.458 3.98 2.498 3.823 1.044-.156 1.616-2.122 1.28-4.392-.336-2.267-1.457-3.977-2.5-3.82-1.043.154-1.613 2.12-1.278 4.389M33.702 57.686c-3.704 4.754-5.122 19.058-5.122 19.058l.007-.062c-.477.69-.812 1.59-.919 2.596-.254 2.392.887 4.473 2.543 4.649 1.083.116 2.116-.614 2.776-1.794.61.509 1.22.71 1.653.48.813-.435.717-2.217-.214-3.981a6.886 6.886 0 0 0-1.215-1.68 4.74 4.74 0 0 0-.113-.212s1.61-10.33 3.327-12.772c.589-.837 1.033-1.423 1.32-1.882.132-.214 4.534-2.757 4.603-3.072.553-2.45-.11-7.183-.11-7.183s-6.734 3.54-8.536 5.855" fill="#FDDFBB"/><path d="M35.291 85.79h.009s.269-13.537 2.442-23.705c3.083-4.224 3.664-6.046 4.499-10.255 2.163-1.238 7.274-1.405 7.274-1.405l1.773.086h.151l1.774-.123s5.112.239 7.275 1.494c.88 2.647 1.62 4.988 3.982 8.058 2.647 10.272 2.961 25.85 2.961 25.85h.034-32.174z" fill="#6CC5D8"/><path d="M60.487 51.882c.88 2.646 1.621 4.986 3.982 8.059.092.356.18.72.267 1.09 0-.003-.002-.003-.002-.003-2.925-1.587-5.229-9.354-5.306-9.616.395.14.756.294 1.06.47M37.57 62.922c.058-.284.115-.562.173-.837 3.081-4.222 3.664-6.046 4.499-10.255a5.33 5.33 0 0 1 .764-.354c0 .002-.745 8.103-5.436 11.446" fill="#0771B7"/><path fill="#FDDFBB" d="M50.7 112.294h-9.698l-.371-12.132-.62-3.049h10.69v3.049zm11.02 0h-9.7V97.113h10.686l-.621 3.049z"/><path fill="#EEEEED" d="M40.614 102.554l.389 9.74h9.674l.064-10.092zm11.383 0v9.74h9.723l.376-9.483z"/><path fill="#6CC5D8" d="M52.014 105.267v-.663h9.932l-.023.663zm-11.216 0l-.03-.663h9.965l-.009.663z"/><path fill="#0771B7" d="M54.59 85.774H38.824L39.93 97.31h10.872l.41-4.242h.29l.41 4.242H62.78l1.117-11.536z"/><path d="M40.143 101.397c0 1.479-.06 2.676 1.407 2.676h7.875c1.469 0 1.671-1.197 1.671-2.676v-.021c0-1.476-.202-2.673-1.671-2.673H41.55c-1.467 0-1.407 1.197-1.407 2.673v.021z" fill="#DBDBDB"/><path d="M50.475 100.147l.053-.041c-.341-.455-2.175-.777-3.64-.91-1.552-.144-3.679-.176-4.994.159-.696.178-1.072.435-1.123.768l.066.009c.045-.3.408-.545 1.072-.713 2.438-.62 7.998-.03 8.566.728m-5.807 3.461c.773 0 1.548-.043 2.22-.103 1.465-.133 3.3-.453 3.64-.914l-.052-.037c-.568.756-6.128 1.348-8.567.728-.666-.168-1.027-.412-1.071-.713l-.067.009c.05.333.427.592 1.123.768.746.189 1.758.262 2.774.262" fill="#AFAFAF"/><path d="M62.577 101.397c0 1.479.06 2.676-1.41 2.676h-7.874c-1.467 0-1.667-1.197-1.667-2.676v-.021c0-1.476.2-2.673 1.667-2.673h7.875c1.469 0 1.409 1.197 1.409 2.673v.021z" fill="#DBDBDB"/><path d="M52.243 100.147l-.051-.041c.341-.455 2.173-.777 3.64-.91 1.552-.144 3.677-.176 4.994.159.696.178 1.07.435 1.121.768l-.064.009c-.047-.3-.408-.545-1.074-.713-2.44-.62-7.998-.03-8.566.728m5.809 3.461a25.38 25.38 0 0 1-2.22-.103c-1.467-.133-3.3-.453-3.64-.914l.05-.037c.568.756 6.126 1.348 8.567.728.668-.168 1.027-.412 1.074-.713l.064.009c-.05.333-.425.592-1.121.768-.748.189-1.755.262-2.774.262" fill="#AFAFAF"/><path d="M51.107 52.926c4.584 0 4.144-2.362 4.144-2.362-1.23-.146-2.154-.262-2.154-.262l-1.77.024h-.152l-1.768.008s-1.454.193-2.598.313c0 0-.265 2.279 4.298 2.279" fill="#0771B7"/><path d="M52.985 52.232h-3.762c-1.074 0-1.945-2.321-1.945-3.383h7.655c0 1.062-.872 3.383-1.948 3.383" fill="#FDDFBB"/><path d="M48.098 51.37l6.805-2.256.01-.015a22.947 22.947 0 0 1-7.62.03c.07.663.374 1.581.805 2.24" fill="#EEAC6C"/><path d="M28.558 29.728a23.966 23.966 0 0 1-.256-3.48c0-12.787 10.313-23.15 23.038-23.15 12.724 0 23.038 10.363 23.038 23.15a23.68 23.68 0 0 1-.237 3.321c1.33.732 2.227 2.111 2.227 3.695 0 2.349-1.968 4.252-4.4 4.252-.162 0-.325-.009-.485-.026-3.935 7.104-11.478 11.905-20.143 11.905-8.656 0-16.195-4.792-20.132-11.883a6.532 6.532 0 0 1-.205.004c-2.432 0-4.403-1.903-4.403-4.252 0-1.474.78-2.774 1.958-3.536" fill="#FDDFBB"/><path d="M47.311 24.65s-.503 1.803-2.082 1.446c-.772-.174-.908-1.201-3.386-.74-.779.18-2.417 1.156-2.732 1.808-.316.652-.088-2.392 2.457-3.522 1.835-.675 2.457-.642 3.977-.642s1.987.907 1.766 1.65m9.741 0s.503 1.803 2.082 1.446c.772-.174.908-1.201 3.386-.74.779.18 2.417 1.156 2.732 1.808.316.652.087-2.392-2.457-3.522-1.835-.675-2.457-.642-3.977-.642s-1.987.907-1.766 1.65" fill="#F6B90C"/><path d="M45 32c0 1.657-.895 3-2 3s-2-1.343-2-3 .895-3 2-3 2 1.343 2 3m18 0c0 1.657-.895 3-2 3s-2-1.343-2-3 .895-3 2-3 2 1.343 2 3" fill="#6172BB"/><path d="M52.02 35.07c.839-.115 2.96 1.756 2.96 1.756s.103-.414-.34-1.238C54.163 34.703 51.99 34 51.99 34s-1.687.448-2.487 1.604c-.296.29-.503 1.299-.503 1.299s1.895-1.681 3.02-1.834z" fill="#EEAC6C"/><g transform="translate(45 38)"><mask id="b" fill="#fff"><use xlink:href="#a"/></mask><path d="M.2.696S7.097 3.904 13.372.299c0 0-1.39 5.47-5.95 5.561-4.115.122-4.984-1.492-5.477-1.956C1.453 3.441.525 2.132.2.696" fill="#EEAC6C" mask="url(#b)"/></g><path d="M75.194 23.46a47.4 47.4 0 0 0-.274-4.234C71.84 9.093 62.46 1.72 51.365 1.72c-9.657 0-18.016 5.59-22.05 13.725-1.116 3.197-1.797 6.342-1.855 7.762-.196 4.924 1.222 6.554 1.222 6.554s4.13-5.739 9.014-9.189c3.841-2.71 7.262 2.526 11.82-1.958.406-.402 1.93-1.948 1.93-1.948s1.254 1.411 1.926 1.948c4.057 3.214 6.318-.44 10.858 2.04 3.713 2.032 9.8 9.273 9.8 9.273s1.2-3.761 1.164-6.467" fill="#F6B90C"/><path d="M61.68 112.234l.024-.011v.01h-.011c1.821 1.166 3.145 3.448 1.586 5.328-1.18 1.326-2.912.285-4.23-.275-1.456-.693-3.121-1.178-4.44-2.083-.85-.6-1.85-1.26-2.424-2.152-.18-.275-.262-.558-.198-.817l-.003-1.751s.118-.178.521 0c.803.356 1.335 1.95 3.05 1.75 4.235-1.186 6.125 0 6.125 0" fill="#0771B7"/><path d="M61.747 113.445a9.2 9.2 0 0 1 1.392.105c.004.006.006.013.01.017.906 1.187 1.216 2.688.13 3.995-1.18 1.324-2.911.285-4.23-.275-1.009-.48-2.119-.862-3.142-1.353 1.168-1.487 3.346-2.49 5.84-2.49" fill="#EEEEED"/><path d="M41.036 112.234l-.024-.011v.01h.007c-1.82 1.166-3.143 3.448-1.583 5.328 1.18 1.326 2.91.285 4.228-.275 1.458-.693 3.122-1.178 4.439-2.083.852-.6 1.853-1.26 2.425-2.152.18-.275.265-.558.201-.817v-1.751s-.117-.178-.52 0c-.801.356-1.335 1.95-3.048 1.75-4.238-1.186-6.125 0-6.125 0" fill="#0771B7"/><path d="M40.965 113.445c-.476 0-.94.036-1.388.105l-.013.017c-.903 1.187-1.215 2.688-.128 3.995 1.179 1.324 2.91.285 4.23-.275 1.008-.48 2.118-.862 3.143-1.353-1.17-1.487-3.348-2.49-5.844-2.49" fill="#EEEEED"/></g></svg>