<svg width="120" height="120" viewBox="0 0 120 120" xmlns="http://www.w3.org/2000/svg" xmlns:xlink="http://www.w3.org/1999/xlink"><defs><path id="a" d="M.192.284h12.667v5.29H.192z"/></defs><g fill="none" fill-rule="evenodd"><path d="M45.382 113.22h-.005 9.772-.011c.063.266-.083.524-.263.8-.579.9-1.517 1.563-2.376 2.17-1.321.91-2.995 1.399-4.455 2.099-1.326.563-3.067 1.614-4.253.283-1.566-1.891-.236-4.216 1.59-5.353" fill="#E7C59F"/><path d="M46.788 113.605c-1.528.872-2.527.378-2.93.93-.88 1.203-1.17 2.745-.094 4.044 1.186 1.334 2.927.317 4.25-.242 1.463-.704 3.137-1.175 4.46-2.083.855-.605 1.86-1.325 2.439-2.223.18-.274.45-.77.198-.879-1.566-.023-6.037 3.464-8.323.453" fill="#0771B7"/><path d="M46.652 114.015l-.034-.077-.065.045c-.336.243-.97.335-1.589.426-.484.07-.92.133-1.204.267-.06.09-.119.186-.175.28.128-.241.785-.325 1.402-.416.591-.086 1.206-.176 1.577-.4.432.898 1.26 1.22 2.243 1.22 1.566 0 3.53-.818 4.923-1.393.668-.278 1.217-.507 1.47-.534a.343.343 0 0 0 .01-.131c-.27.018-.812.242-1.534.54-2.24.931-5.994 2.49-7.024.173" fill="#F7B90B"/><path d="M66.238 113.22h.005-9.77.011c-.067.266.084.524.261.8.576.9 1.52 1.563 2.374 2.17 1.325.91 3 1.399 4.46 2.099 1.325.563 3.066 1.614 4.25.283 1.568-1.891.236-4.216-1.59-5.353" fill="#E7C59F"/><path d="M64.834 113.605c1.526.872 2.527.378 2.925.93.882 1.203 1.175 2.745.097 4.044-1.184 1.334-2.927.317-4.253-.242-1.46-.704-3.134-1.175-4.455-2.083-.86-.605-1.86-1.325-2.44-2.223-.179-.274-.45-.77-.199-.879 1.568-.023 6.037 3.464 8.325.453" fill="#0771B7"/><path d="M64.968 114.015l.034-.077.067.045c.331.243.97.335 1.582.426.488.07.927.133 1.206.267.063.09.124.186.178.28-.126-.241-.783-.325-1.402-.416-.592-.086-1.208-.176-1.575-.4-.436.898-1.262 1.22-2.243 1.22-1.568 0-3.53-.818-4.923-1.393-.67-.278-1.22-.507-1.472-.534-.009-.047-.015-.095-.009-.131.27.018.81.242 1.533.54 2.243.931 5.996 2.49 7.024.173" fill="#F7B90B"/><path d="M45.382 113.22h-.005c-5.105-4.405-4.113-26.736-4.113-26.736h28.958s1.1 22.327-3.99 26.735c0 .002-.006 0-.006 0-2.441 0-5.49 1.112-9.758 0-.855-2.565.009-11.762.009-11.762H55.14h.009s.875 8.96 0 11.762c-3.908 1.112-9.767 0-9.767 0" fill="#0B4768"/><path d="M88.281 42.167c-1.872-.797-4.306.745-5.445 3.446-.67 1.596-.74 3.238-.3 4.478l-5.581 6.6-12.018-4.31s2.19 3.255 2.682 4.428c.363.856 1.067 3.56 1.067 3.56s8.649 3.538 11.106 2.644c3.03-1.105 6.511-11.054 6.511-11.054l-.002-.004c1.307-.467 2.572-1.723 3.303-3.453 1.134-2.703.542-5.538-1.323-6.335m-50.28 16.031c-3.721 4.79-5.148 19.187-5.148 19.187s0-.023.007-.066c-.477.698-.815 1.603-.923 2.62-.254 2.407.891 4.5 2.554 4.678 1.091.115 2.13-.616 2.792-1.805.617.512 1.227.715 1.663.48.82-.435.72-2.228-.218-4.008-.358-.679-.78-1.256-1.222-1.689-.034-.072-.074-.142-.112-.212 0 0 1.62-10.4 3.348-12.86.861-1.233 1.422-1.92 1.617-2.469.158-.439.331-1.279.403-1.594.554-2.468 3.634-8.024 3.634-8.024S39.815 55.871 38 58.198" fill="#E7C59F"/><path d="M35.63 80.807c1.002 1.823 2.493 2.923 3.33 2.456.84-.468.705-2.323-.299-4.143-1.003-1.825-2.495-2.923-3.332-2.459-.837.471-.7 2.323.301 4.146m45.868-33.961c.464 2.395 1.73 4.161 2.83 3.948 1.099-.215 1.616-2.332 1.153-4.727-.464-2.394-1.73-4.162-2.829-3.949-1.102.217-1.615 2.334-1.154 4.728" fill="#E7C59F"/><path d="M82.18 49.875l-5.297 6.659-10.735-4.092c-2.117-1.388-8.54-1.625-8.54-1.625l-1.783.045h-.148l-1.782-.045s-6.397.212-8.526 1.598c-.861.473-5.63 3.179-7.278 5.296-1.053 1.356-1.944 3.482-2.68 5.83-1.863 5.957-2.736 13.36-2.736 13.36l5.114-.006s.947-7.17 2.29-10.834c.241-.647.487-1.186.75-1.555.09-.127.173-.25.252-.367-.99 5.903-1.328 12.539-1.436 17.013-.006.217-.7 15.99-1.422 21.038 7.225 2.095 28.254 2.787 35.069 0-.52-4.96-1.404-20.647-1.404-20.712-.101-5.344-.515-13.94-2.04-20.58.566.393 7.584 3.146 9.937 2.288 3.031-1.103 7.574-10.696 7.574-10.696l-5.18-2.615z" fill="#2BAAE2"/><path d="M59.101 50.8c.304-.677.484-1.44.484-1.922H51.88c0 .482.184 1.245.486 1.922-.173.014-.356.034-.55.052l3.684 2.452 4.203-2.436c-.211-.025-.412-.05-.6-.068" fill="#E7C59F"/><path d="M52.705 51.441l6.856-2.275.016-.014a23.416 23.416 0 0 1-7.682.027c.07.666.376 1.597.81 2.262" fill="#E2A86E"/><path d="M43.07 92.969c-.072.065-.324.065-.396 0-.214-.19-.342-.944-.135-1.14.122-.11.542-.11.666 0 .207.196.079.95-.135 1.14" fill="#0B4768"/><path d="M43.152 93.242a.274.274 0 0 1-.27.274.275.275 0 0 1 0-.548c.146 0 .27.122.27.274" fill="#0771B7"/><path d="M43.152 93.776a.276.276 0 0 1-.27.276.276.276 0 0 1-.275-.276.273.273 0 0 1 .545 0" fill="#0B4768"/><path d="M43.404 98.115c-.092.218-.942.218-1.064 0 .018-1.451.4-4.078.4-4.078h.266s.434 2.71.398 4.078" fill="#0771B7"/><path d="M44.2 93.236c-.072.066-.327.066-.399 0-.211-.19-.342-.944-.132-1.138.121-.114.542-.114.666 0 .207.194.076.948-.135 1.138" fill="#0B4768"/><path d="M44.28 93.51a.272.272 0 1 1-.544 0 .272.272 0 1 1 .544 0" fill="#0771B7"/><path d="M44.28 94.043a.274.274 0 0 1-.27.277.275.275 0 0 1 0-.55c.15 0 .27.122.27.273" fill="#0B4768"/><path d="M44.534 98.383c-.095.217-.943.217-1.065 0 .018-1.452.4-4.078.4-4.078h.266s.435 2.71.399 4.078" fill="#0771B7"/><path d="M45.395 92.767c-.072.067-.324.067-.396 0-.214-.19-.342-.942-.133-1.135.12-.113.542-.113.664 0 .21.193.079.944-.135 1.135" fill="#0B4768"/><path d="M45.476 93.043a.276.276 0 0 1-.274.271.274.274 0 0 1 0-.548c.15 0 .274.125.274.277" fill="#0771B7"/><path d="M45.476 93.577a.272.272 0 1 1-.544 0 .272.272 0 1 1 .544 0" fill="#0B4768"/><path d="M45.729 97.913c-.092.217-.943.217-1.064 0 .018-1.45.398-4.078.398-4.078h.265s.437 2.712.401 4.078" fill="#0771B7"/><path d="M47.654 91.363c-.072.068-.327.068-.399 0-.211-.19-.342-.941-.132-1.136.121-.111.542-.111.666 0 .207.195.076.946-.135 1.136" fill="#0B4768"/><path d="M47.733 91.639c0 .15-.122.274-.272.274a.274.274 0 0 1-.27-.274c0-.152.121-.276.27-.276.15 0 .272.124.272.276" fill="#0771B7"/><path d="M47.733 92.174a.272.272 0 0 1-.542 0c0-.152.121-.276.27-.276.15 0 .272.124.272.276" fill="#0B4768"/><path d="M47.988 96.51c-.095.217-.943.217-1.064 0 .018-1.45.4-4.078.4-4.078h.263s.437 2.71.4 4.078" fill="#0771B7"/><path d="M46.592 91.699c-.076.063-.326.063-.398 0-.214-.19-.342-.942-.133-1.137.122-.113.543-.113.666 0 .205.195.077.946-.135 1.137" fill="#0B4768"/><path d="M46.67 91.974c0 .15-.12.274-.27.274a.272.272 0 0 1-.27-.274.27.27 0 1 1 .54 0" fill="#0771B7"/><path d="M46.67 92.506c0 .151-.12.276-.27.276a.273.273 0 0 1-.27-.276c0-.15.118-.274.27-.274.15 0 .27.124.27.274" fill="#0B4768"/><path d="M46.924 96.845c-.092.215-.945.215-1.062 0 .016-1.45.396-4.078.396-4.078h.266s.436 2.71.4 4.078" fill="#0771B7"/><path d="M48.917 91.029c-.076.068-.326.068-.4 0-.21-.188-.34-.942-.13-1.135.12-.113.541-.113.66 0 .21.193.084.947-.13 1.135" fill="#0B4768"/><path d="M48.994 91.305a.27.27 0 0 1-.27.272.27.27 0 0 1-.27-.272c0-.152.12-.276.27-.276.15 0 .27.124.27.276" fill="#0771B7"/><path d="M48.994 91.839c0 .15-.12.274-.27.274a.272.272 0 0 1-.27-.274c0-.152.12-.276.27-.276.15 0 .27.124.27.276" fill="#0B4768"/><path d="M49.249 96.175c-.095.217-.94.217-1.064 0 .015-1.45.4-4.078.4-4.078h.263s.44 2.715.4 4.078m3.231-44.901c-5.22 2.145-2.313 32.745-3.303 39.1-3.53.052-2.718.765-3.303 1.456-.551.652-3.634.824-3.4 0 1.953-6.913-2.394-34.363 3.062-40.062.624-.65 2.491-1.508 3.819-1.404.641-.844 3.546-.489 3.546-.489s-.057 1.252-.421 1.4" fill="#0771B7"/><path d="M46.327 90.227s.009-.05.022-.147c.005-.05.02-.111.025-.181a4.3 4.3 0 0 1 .025-.245c.009-.09.013-.194.02-.303.011-.111.011-.231.018-.358.004-.129.004-.265.004-.407v-.453a28.609 28.609 0 0 0-.031-1.02c-.018-.36-.04-.737-.063-1.131a142.92 142.92 0 0 0-.185-2.464c-.065-.84-.13-1.68-.186-2.465a51.717 51.717 0 0 1-.124-2.609l.002-.41c.002-.128.007-.246.01-.36.001-.108.006-.21.01-.303.014-.183.025-.328.034-.428.014-.097.018-.15.018-.15s-.002.053-.009.15c-.009.1-.011.245-.018.428v.304c0 .113.002.23.007.36.002.255.016.545.031.86.018.315.039.654.063 1.014.027.363.059.74.09 1.135.066.788.133 1.625.2 2.463.068.84.129 1.678.172 2.466.04.79.058 1.526.051 2.16 0 .158-.002.308-.009.453-.006.144-.013.28-.02.407-.011.13-.016.25-.025.36-.015.113-.022.213-.036.304a9.294 9.294 0 0 1-.065.423l-.031.147m3.032-39.863s-.03.022-.081.07c-.054.045-.133.11-.225.199-.045.045-.1.097-.151.154-.027.027-.059.054-.086.086a1.19 1.19 0 0 0-.083.1 1.005 1.005 0 0 0-.092.101c-.032.039-.063.075-.092.114l-.194.253c-.063.09-.126.186-.191.283a21.81 21.81 0 0 0-.191.315 16.65 16.65 0 0 0-.185.344 12.434 12.434 0 0 0-.349.752c-.027.066-.05.131-.076.2-.027.065-.052.133-.079.2-.047.139-.101.272-.142.417-.024.068-.045.14-.067.209l-.063.212a16.966 16.966 0 0 0-.401 1.689c-.05.272-.096.537-.13.788-.04.252-.072.492-.097.709-.027.222-.047.426-.067.602-.016.184-.027.342-.034.467-.023.262-.027.41-.027.41s-.005-.148 0-.41c.004-.258.013-.632.052-1.076l.031-.346c.011-.118.027-.242.04-.37.032-.25.066-.52.12-.794a13.836 13.836 0 0 1 .385-1.707l.067-.213c.02-.072.043-.143.065-.213.045-.142.097-.28.147-.419.051-.138.11-.27.164-.403.054-.133.12-.262.175-.39.061-.121.124-.246.187-.364a9.858 9.858 0 0 1 .4-.656c.075-.098.14-.19.205-.281.07-.088.14-.17.203-.247a29.24 29.24 0 0 0 .196-.213c.033-.031.063-.063.092-.095.031-.03.063-.054.092-.083a3.53 3.53 0 0 1 .155-.143c.102-.086.187-.145.239-.186.056-.043.088-.065.088-.065m19.019 42.605c.075.065.324.065.396 0 .214-.19.345-.944.133-1.14-.12-.11-.542-.11-.661 0-.21.196-.081.95.132 1.14" fill="#0B4768"/><path d="M68.3 93.242c0 .152.12.274.27.274.15 0 .271-.122.271-.274a.273.273 0 0 0-.272-.274.272.272 0 0 0-.27.274" fill="#0771B7"/><path d="M68.3 93.776c0 .152.12.276.27.276a.275.275 0 0 0 0-.548.27.27 0 0 0-.27.272" fill="#0B4768"/><path d="M68.044 98.115c.097.218.943.218 1.067 0-.02-1.451-.4-4.078-.4-4.078h-.266s-.437 2.71-.4 4.078" fill="#0771B7"/><path d="M67.249 93.236c.074.066.324.066.4 0 .21-.19.34-.944.13-1.138-.12-.114-.541-.114-.665 0-.205.194-.079.948.135 1.138" fill="#0B4768"/><path d="M67.17 93.51a.272.272 0 0 0 .542-.001.272.272 0 0 0-.27-.274.273.273 0 0 0-.272.274" fill="#0771B7"/><path d="M67.17 94.043c0 .152.121.277.272.277.149 0 .27-.125.27-.277a.272.272 0 0 0-.27-.274.273.273 0 0 0-.272.274" fill="#0B4768"/><path d="M66.915 98.383c.097.217.943.217 1.066 0-.015-1.452-.4-4.078-.4-4.078h-.266s-.436 2.71-.4 4.078" fill="#0771B7"/><path d="M66.054 92.767c.074.067.324.067.398 0 .211-.19.34-.942.13-1.135-.119-.113-.537-.113-.661 0-.21.193-.081.944.133 1.135" fill="#0B4768"/><path d="M65.974 93.043c0 .147.124.271.27.271a.275.275 0 0 0 .275-.271.276.276 0 0 0-.275-.276.276.276 0 0 0-.27.276" fill="#0771B7"/><path d="M65.974 93.577c0 .152.124.274.27.274a.275.275 0 0 0 0-.548.274.274 0 0 0-.27.274" fill="#0B4768"/><path d="M65.724 97.913c.09.217.94.217 1.062 0-.018-1.45-.4-4.078-.4-4.078h-.266s-.436 2.712-.396 4.078" fill="#0771B7"/><path d="M63.795 91.363c.074.068.326.068.4 0 .21-.19.34-.941.13-1.136-.12-.111-.541-.111-.665 0-.205.195-.079.946.135 1.136" fill="#0B4768"/><path d="M63.716 91.639c0 .15.123.274.272.274.148 0 .27-.125.27-.274a.274.274 0 0 0-.27-.276.276.276 0 0 0-.272.276" fill="#0771B7"/><path d="M63.716 92.174c0 .15.123.272.272.272a.274.274 0 0 0 0-.548.276.276 0 0 0-.272.276" fill="#0B4768"/><path d="M63.46 96.51c.098.217.944.217 1.067 0-.015-1.45-.4-4.078-.4-4.078h-.266s-.436 2.71-.4 4.078" fill="#0771B7"/><path d="M64.856 91.699c.076.063.326.063.4 0 .212-.19.345-.942.131-1.137-.122-.113-.542-.113-.664 0-.207.195-.08.946.133 1.137" fill="#0B4768"/><path d="M64.78 91.974c0 .15.123.274.272.274a.276.276 0 0 0 0-.55.275.275 0 0 0-.273.276" fill="#0771B7"/><path d="M64.78 92.506c0 .151.123.276.272.276a.276.276 0 0 0 0-.55.276.276 0 0 0-.273.274" fill="#0B4768"/><path d="M64.527 96.845c.092.215.942.215 1.062 0-.016-1.45-.4-4.078-.4-4.078h-.264s-.439 2.71-.398 4.078" fill="#0771B7"/><path d="M62.534 91.029c.074.068.321.068.398 0 .214-.188.342-.942.133-1.135-.122-.113-.543-.113-.666 0-.207.193-.077.947.135 1.135" fill="#0B4768"/><path d="M62.455 91.305a.27.27 0 0 0 .272.272.275.275 0 0 0 0-.548.275.275 0 0 0-.272.276" fill="#0771B7"/><path d="M62.455 91.839c0 .15.121.274.272.274.15 0 .272-.125.272-.274a.275.275 0 0 0-.272-.276.275.275 0 0 0-.272.276" fill="#0B4768"/><path d="M62.202 96.175c.092.217.942.217 1.062 0-.018-1.45-.396-4.078-.396-4.078H62.6s-.439 2.715-.398 4.078m-3.248-44.901c5.22 2.145 2.318 32.745 3.31 39.1 3.528.052 2.716.765 3.3 1.456.552.652 3.63.824 3.398 0-1.95-6.913 2.394-34.363-3.062-40.062-.621-.65-2.493-1.508-3.82-1.404-.64-.844-3.546-.489-3.546-.489s.058 1.252.42 1.4" fill="#0771B7"/><path d="M65.109 90.227l-.03-.147c-.018-.097-.045-.24-.067-.423-.011-.091-.023-.19-.034-.304-.009-.11-.013-.23-.027-.36a10.466 10.466 0 0 1-.018-.407 33.925 33.925 0 0 1 .043-2.613c.043-.788.103-1.626.166-2.466.07-.838.138-1.675.205-2.463.032-.394.06-.772.088-1.135.027-.36.047-.7.065-1.014.016-.315.027-.605.032-.86.002-.13.002-.247.006-.36 0-.109-.004-.21-.004-.304-.005-.183-.007-.328-.016-.428a4.885 4.885 0 0 1-.009-.15l.018.15c.011.1.02.245.034.428.004.093.011.195.013.304.003.113.005.23.01.36v.41c-.005.142-.007.296-.01.452a55.81 55.81 0 0 1-.112 2.156l-.187 2.465c-.07.838-.135 1.676-.184 2.464-.023.394-.05.772-.063 1.132-.018.36-.027.704-.032 1.019 0 .158 0 .305-.002.453.002.142.002.278.007.407.006.127.006.247.015.358.01.109.014.213.023.303s.018.175.022.245c.007.07.018.131.027.18l.02.148m-3.029-39.863s.03.022.083.065c.056.041.142.1.239.186.047.04.1.088.16.143.026.029.06.054.087.083.032.032.06.064.092.095l.1.102c.03.034.067.068.098.111.063.077.135.159.203.247l.205.28c.07.1.137.207.202.313l.198.344c.063.118.128.243.19.365.055.127.116.256.17.39.059.133.115.264.164.402.05.138.104.277.149.42.025.07.047.14.067.212l.066.213c.085.285.157.575.222.863.068.285.12.568.165.844.05.274.087.543.117.795l.045.369c.009.12.02.235.029.346.034.444.045.818.052 1.076.004.262 0 .41 0 .41s-.007-.148-.027-.41a16.27 16.27 0 0 0-.104-1.069 15.3 15.3 0 0 0-.094-.709 22.322 22.322 0 0 0-.306-1.626c-.07-.282-.14-.568-.225-.85l-.063-.213-.068-.209c-.045-.145-.097-.278-.146-.416-.023-.068-.052-.136-.074-.202a2.766 2.766 0 0 1-.077-.2c-.056-.133-.117-.26-.17-.386-.062-.123-.12-.247-.179-.365a16.65 16.65 0 0 0-.184-.344c-.068-.106-.128-.213-.191-.315l-.196-.283a9.238 9.238 0 0 0-.19-.253 1.44 1.44 0 0 0-.096-.114 2.207 2.207 0 0 0-.088-.101c-.027-.037-.058-.068-.083-.1a1.411 1.411 0 0 0-.088-.086 3.805 3.805 0 0 0-.148-.154c-.092-.088-.173-.154-.225-.2-.052-.047-.081-.07-.081-.07" fill="#0B4768"/><path fill="#0D8EBC" d="M55.174 104.028h.995v-50.93h-.995z"/><path d="M58.952 53.089c.137-.039.24-.143.342-.229l.124-.109c.04-.04.078-.081.112-.124.542-.673 0-3.476 0-3.476-1.246.209-3.607 1.33-3.834 3.86-.259-2.52-2.567-3.65-3.807-3.853 0 0-.607 2.855 0 3.469.234.233.554.514.99.59 1.499.263 4.62.315 6.073-.128" fill="#0D8EBC"/><path d="M55.63 53.024c-.268-1.738-1.272-2.68-2.064-3.16-.866-.526-1.676-.639-1.685-.641l.02-.134c.032.007.842.118 1.726.657.821.496 1.859 1.465 2.135 3.256l-.132.022z" fill="#0B4768"/><path d="M55.761 53.019l-.132-.014c.34-3.224 3.854-3.912 3.89-3.917l.022.13c-.033.006-3.453.676-3.78 3.8" fill="#0B4768"/><path d="M51.644 51.933s.005.039.018.109c.011.068.03.17.076.29.046.12.124.262.248.39a1.498 1.498 0 0 0 .502.316c.414.16.931.233 1.485.272.274.018.562.03.857.036.29.005.587.005.887.005a28.989 28.989 0 0 0 1.743-.05 7.65 7.65 0 0 0 .794-.093c.248-.043.482-.104.684-.192.2-.089.37-.2.491-.331.12-.134.191-.276.234-.399a1.64 1.64 0 0 0 .085-.374c.005-.015.005-.026.005-.026s0 .011-.005.027c0 .02 0 .045-.002.08-.009.07-.02.173-.06.303a1.202 1.202 0 0 1-.219.42c-.119.146-.29.275-.497.37-.207.1-.446.167-.698.222-.254.05-.522.088-.8.113-.284.022-.572.038-.865.047-.294.01-.594.014-.89.014-.3 0-.597 0-.89-.007a17.1 17.1 0 0 1-.863-.05 7.143 7.143 0 0 1-.806-.108 3.312 3.312 0 0 1-.697-.209 1.564 1.564 0 0 1-.286-.158 1.212 1.212 0 0 1-.466-.61c-.036-.124-.047-.23-.056-.298a2.516 2.516 0 0 1-.009-.109" fill="#0B4768"/><path d="M78.558 29.71c.169-1.146.259-2.314.259-3.507 0-12.877-10.372-23.314-23.173-23.314-12.793 0-23.166 10.437-23.166 23.314 0 1.136.081 2.252.237 3.346-1.337.736-2.241 2.126-2.241 3.722 0 2.366 1.984 4.284 4.428 4.284.162 0 .328-.011.486-.027C39.345 44.68 46.932 49.52 55.644 49.52c8.708 0 16.288-4.832 20.25-11.973.068.005.138.007.207.007 2.442 0 4.424-1.918 4.424-4.284 0-1.485-.781-2.794-1.967-3.561" fill="#E7C59F"/><path d="M50.645 26.474s-.463 1.61-1.916 1.292c-.71-.156-.835-1.074-3.114-.662-.716.161-2.223 1.033-2.513 1.615-.29.583-.08-2.136 2.26-3.146 1.688-.602 2.26-.573 3.658-.573 1.398 0 1.828.81 1.625 1.474m9.71 0s.463 1.61 1.916 1.292c.71-.156.835-1.074 3.114-.662.716.161 2.223 1.033 2.513 1.615.29.583.08-2.136-2.26-3.146-1.688-.602-2.26-.573-3.658-.573-1.398 0-1.828.81-1.625 1.474M48.77 33.55c0 1.574-.862 2.85-1.924 2.85-1.062 0-1.923-1.276-1.923-2.85s.86-2.85 1.923-2.85c1.062 0 1.923 1.276 1.923 2.85m17.308 0c0 1.574-.86 2.85-1.923 2.85-1.063 0-1.923-1.276-1.923-2.85s.86-2.85 1.923-2.85c1.062 0 1.923 1.276 1.923 2.85" fill="#2C2C2D"/><path d="M55.524 34.6c.808-.112 2.85 1.725 2.85 1.725s.1-.407-.327-1.215c-.46-.87-2.552-1.56-2.552-1.56s-1.625.44-2.395 1.575c-.285.285-.485 1.275-.485 1.275s1.825-1.65 2.909-1.8z" fill="#E2A86E"/><g transform="translate(48.77 38.3)"><mask id="b" fill="#fff"><use xlink:href="#a"/></mask><path d="M.192.661S6.825 3.71 12.859.284c0 0-1.338 5.196-5.721 5.283C3.18 5.683 2.346 4.15 1.87 3.71 1.397 3.269.505 2.026.191.66" fill="#E2A86E" mask="url(#b)"/></g><path d="M79.62 22.986a46.63 46.63 0 0 0-.28-4.286C76.23 8.44 66.748.976 55.534.976c-9.762 0-18.213 5.658-22.29 13.895-1.125 3.236-1.82 6.421-1.875 7.857-.198 4.985 3.414 12.45 3.414 12.45-.435-8.205-.342-8.187 1.624-9.611 2.441-1.768 7.592-5.063 9.583-7.336.38-.437 1.16-1.997 1.16-1.997s-.073 1.227.606 1.766c4.102 3.256 16.196-.367 20.781 2.147 3.758 2.053 8.316 15.031 8.316 15.031 1.852-3.532 2.804-9.457 2.768-12.192" fill="#2C2C2D"/></g></svg>