<svg width="120" height="120" viewBox="0 0 120 120" xmlns="http://www.w3.org/2000/svg" xmlns:xlink="http://www.w3.org/1999/xlink"><defs><path id="a" d="M.214.4h118.548v40.517H.214z"/></defs><g fill="none" fill-rule="evenodd"><g transform="translate(0 52.986)"><mask id="b" fill="#fff"><use xlink:href="#a"/></mask><path d="M118.763 20.658C118.763 9.471 92.225.4 59.487.4 26.752.4.214 9.471.214 20.66c0 11.187 26.538 20.258 59.273 20.258 32.738 0 59.276-9.071 59.276-20.259" fill="#F8F8F8" mask="url(#b)"/></g><path d="M16.658 66.948c-1.154 11.794 18.673 15.107 46.255 15.28 27.584.17 41.116-7.555 42.316-14.08 1.2-6.522-20.044-12.53-43.172-12.874-23.126-.343-44.541 2.919-45.4 11.674" fill="#E9B054"/><path d="M17.515 57.161c-.486 7.203 7.71 19.058 30.494 20.26 22.786 1.202 56.192-1.031 58.078-13.906C107.97 50.64 79.361 47.548 62.23 46.003c-17.133-1.546-43.857-1.546-44.715 11.158" fill="#EEB456"/><path d="M20.941 53.557c1.114 8.589 9.251 16.826 41.29 17.511 32.034.688 41.97-9.098 42.655-14.422.686-5.321-11.477-16.48-39.744-17.51-28.268-1.03-45.913 1.202-44.2 14.421" fill="#F6BA58"/><path d="M22.827 42.913C22.572 53.21 30.02 57.677 42.012 60.08c11.993 2.403 58.933 2.918 61.333-12.36 2.398-15.28-25.7-19.743-39.745-19.573-14.047.172-40.431.858-40.773 14.765" fill="#FFC252"/><path d="M25.91 38.277c.939 4.398 4.34 4.35 5.825 7.21 1.485 2.861-.989 4.782 3.654 6.41C50.409 57.16 56.646 59 68.396 58.364c19.017-1.03 29.351-7.496 31.18-12.419 1.825-4.921-.913-16.308-17.817-18.139-16.902-1.832-28.437-1.775-35.291-1.89-6.853-.115-22.272 4.35-20.558 12.361" fill="#D42D2A"/></g></svg>