<svg width="120" height="120" viewBox="0 0 120 120" xmlns="http://www.w3.org/2000/svg" xmlns:xlink="http://www.w3.org/1999/xlink"><defs><path id="a" d="M.2.3h13.173v5.567H.2z"/></defs><g fill="none" fill-rule="evenodd"><path d="M64.48 111.614l-.089-11.323-9.846.078.54 11.318h.004c-1.756 1.11-3.012 3.341-1.487 5.14 1.146 1.267 2.814.246 4.086-.3 1.403-.683 3.012-1.168 4.279-2.047.817-.584 1.779-1.218 2.325-2.083.172-.265.252-.534.188-.783m10.672-.087h.01l.359-11.325-9.849.078.09 11.324c-.06.259.026.518.202.78.555.856 1.531 1.472 2.357 2.044 1.285.859 2.898 1.32 4.311 1.979 1.28.526 2.965 1.52 4.093.236 1.498-1.822.196-4.037-1.573-5.116" fill="#FDDFBB"/><path d="M64.434 107.842l-9.534.074.186 3.808h.006a5.48 5.48 0 0 0-.858.683l.023 2.443 7.305-.06c.137-.077.273-.168.406-.261.819-.584 1.781-1.224 2.33-2.09.171-.264.252-.54.181-.788h-.018l-.027-3.809z" fill="#343434"/><path fill="#5A5A5A" d="M54.921 108.356l.009.184 9.509-.077-.005-.184zm.021.374l.01.188 9.488-.077v-.186z"/><path d="M76.706 113.011a5.263 5.263 0 0 0-1.552-1.447h.009l.122-3.809-9.538.075.03 3.809h-.007c-.069.252.018.526.194.787.563.857 1.535 1.482 2.365 2.049.136.089.269.182.412.259l7.977-.062-.012-1.66z" fill="#343434"/><path fill="#5A5A5A" d="M65.751 108.452l9.517-.074.002-.186-9.521.076zm.002.378l9.5-.076.007-.186-9.507.074z"/><path d="M55.11 111.724l-.025-.009.002.009h.006c-1.753 1.136-3.013 3.351-1.492 5.144 1.15 1.267 2.82.255 4.09-.292 1.407-.685 3.009-1.163 4.275-2.05.821-.581 1.783-1.22 2.33-2.086.171-.27.252-.54.184-.789l-.013-1.69s-.111-.171-.502.007c-.772.344-1.275 1.886-2.932 1.71-4.103-1.112-5.924.046-5.924.046" fill="#E63744"/><path d="M64.18 112.615l-.212-.178s-2.085 2.149-3.906 2.695l.172.338c.61-.273 1.2-.574 1.733-.944.766-.54 1.65-1.13 2.212-1.91" fill="#333433"/><path d="M55.055 112.888a9.295 9.295 0 0 0-1.353.114c-.002.01-.004.01-.009.016-.864 1.15-1.156 2.599-.09 3.851 1.15 1.265 2.817.255 4.088-.294.972-.474 2.044-.849 3.03-1.331-1.143-1.429-3.262-2.375-5.666-2.356" fill="#9B1D2B"/><path d="M64.424 110.153c-.396.002-.714.737-.708 1.64.002.442.085.842.215 1.138.13-.157.26-.319.364-.493.172-.267.255-.538.185-.787l-.013-1.496-.043-.002m10.712 1.413l.031-.01-.004.008h-.01c1.775 1.105 3.07 3.306 1.578 5.121-1.133 1.284-2.816.298-4.094-.227-1.42-.663-3.031-1.116-4.308-1.984-.83-.565-1.802-1.192-2.367-2.05-.176-.264-.262-.533-.192-.786l-.02-1.685s.115-.174.508-.004c.776.335 1.302 1.867 2.953 1.662 4.092-1.173 5.925-.045 5.925-.045" fill="#E63744"/><path d="M66.089 112.599l.202-.182s2.125 2.12 3.954 2.635l-.167.342c-.615-.265-1.213-.56-1.749-.92-.771-.527-1.665-1.103-2.24-1.875" fill="#333433"/><path d="M75.213 112.728c.468-.002.915.031 1.35.091 0 .009.011.009.011.02.882 1.136 1.194 2.576.158 3.846-1.134 1.283-2.816.3-4.095-.226-.983-.464-2.056-.82-3.058-1.286 1.122-1.447 3.226-2.424 5.634-2.445" fill="#9B1D2B"/><path d="M65.802 110.14c.395-.001.728.73.734 1.63.004.443-.07.845-.196 1.14a3.498 3.498 0 0 1-.377-.484c-.176-.265-.263-.534-.195-.787l-.014-1.496.048-.002" fill="#E63744"/><path d="M88.24 78.682c-.113-.992-.454-1.878-.928-2.557.006.041.006.066.006.066s-1.516-14.09-5.222-18.751c-1.696-2.13-7.522-5.2-8.203-5.557-1.29-.915-4.18-1.312-5.98-1.465.3-.667.476-1.383.472-1.911l-7.59.06c.003.526.19 1.23.494 1.884-1.765.188-4.682.629-6.002 1.563 0 0-2.289.84-3.054 1.124-3.412-1.675-8.508 3.128-8.508 3.128l-5.55-6.418c.092-.26.154-.544.198-.832.343-.644.629-1.453.8-2.35.43-2.347-.086-4.42-1.173-4.616-.58-.11-1.204.34-1.73 1.136-1.174-1.115-2.62-1.573-3.814-1.051-1.836.795-2.396 3.58-1.25 6.21.726 1.696 1.978 2.911 3.271 3.36 0 0 3.507 9.716 6.503 10.778 2.423.859 11.228-2.764 11.228-2.764l-.006-.006c-1.579 10.131.283 25.57.283 25.57l24.857-.196s1.376-14.04-.037-24.118v.01c.198.533 1.284 1.473 2.145 2.675 1.717 2.39 3.395 12.566 3.395 12.566a2.243 2.243 0 0 0-.11.21 6.63 6.63 0 0 0-1.189 1.666c-.914 1.745-.995 3.51-.18 3.927.426.224 1.028.017 1.634-.484.658 1.16 1.683 1.863 2.76 1.745 1.637-.19 2.75-2.249 2.48-4.602" fill="#FDDFBB"/><path d="M61.631 51.068l6.722-2.28.02-.01a23.505 23.505 0 0 1-7.56.089 5.56 5.56 0 0 0 .818 2.2M58.31 64.27c-1.825.016-3.118-.295-3.921-.938-.677-.547-1.012-1.348-1.024-2.37l.13-.003c.008 1.025.327 1.754.975 2.273 1.456 1.172 4.64 1.217 9.722.143l.029.122c-2.378.503-4.339.76-5.911.772m13.07-.103c1.82-.014 3.11-.344 3.898-1 .67-.559.987-1.364.98-2.387h-.125c.008 1.023-.298 1.758-.936 2.29-1.438 1.194-4.622 1.29-9.718.296l-.024.122c2.381.466 4.349.691 5.925.679m-6.544-1.951h-.128l-.023-2.873h.126zM47.88 58.18a9.765 9.765 0 0 1-.708-.019c-1.777-.1-3.163-.584-3.178-.592l.044-.12c.012.006 1.384.487 3.14.588 1.62.09 3.907-.132 5.6-1.712l.09.087c-1.498 1.395-3.428 1.758-4.988 1.768m34.413 2.899c.051-.186.372-1.383.45-2.687a2.26 2.26 0 0 0-.121-.2c-.064 1.442-.45 2.844-.458 2.87v.038l1.602 5.167.124-.035-1.597-5.153z" fill="#EEAC6C"/><path d="M77.581 63.33c-1.905.049-3.803-6.211-3.871-12.18l-.002-.008c-1.12-.695-3.192-1.062-4.825-1.246 0 0-.217 10.935-4.109 10.96-3.892.016-4.206-10.894-4.206-10.894-1.471.184-3.284.518-4.42 1.104a3.03 3.03 0 0 0-.374.2s-.006.2-.03.528c-.13 1.706-1.052 10.653-3.897 10.91-.91 7.95-.78 15.01-.28 20.255.169 1.784.504 2.867.504 2.867s2.207 9.52 2.474 14.564l9.846-.08c-.047-1.278.445-7.344.445-7.344l.275-.002s.605 5.676.561 7.337l9.848-.08c.228-4.276 2.394-14.6 2.394-14.6s.344-1.093.524-2.882c.486-4.788.178-12.133-.857-19.41M55.774 51.266h.004-.004zm.004 0c0-.004 0-.006 0 0" fill="#E63744"/><path fill="#0771B7" d="M56.966 100.398l-4.976-14.84 3.563 14.853zm16.283-.129l4.74-14.918-3.333 14.907zM56.782 50.78a6.773 6.773 0 0 0-.635.286c-.137.067-.259.123-.372.2 0 0-.007.198-.031.527-.129 1.706-.872 9.54-3.718 9.792-.147.596-.058.422-.174 1.062 2.555-.41 5.49-8.827 4.93-11.866m20.894 13.246c-.052-.274-.037-.43-.095-.698-1.457-.18-3.803-6.21-3.871-12.179l-.002-.008a5.667 5.667 0 0 0-1.122-.51c-.585 3.363 2.458 13.761 5.09 13.395M64.77 62.234c-4.01.022-4.983-8.87-5.198-12.132.341-.054.674-.101.997-.14 0 0 .313 10.911 4.204 10.893 3.894-.025 4.11-10.96 4.11-10.96.314.035.645.073.982.129-.184 3.266-1.08 12.185-5.096 12.21"/><path d="M42.3 30.386a22.985 22.985 0 0 1-.28-3.34c-.095-12.308 9.795-22.363 22.086-22.462 12.298-.098 22.35 9.802 22.449 22.105a22.131 22.131 0 0 1-.21 3.198c1.296.694 2.17 2.01 2.183 3.536.019 2.259-1.868 4.108-4.216 4.128-.162 0-.319-.008-.474-.025-3.745 6.865-11.003 11.548-19.378 11.616-8.359.066-15.683-4.488-19.543-11.284-.065 0-.133.006-.199.006-2.346.018-4.268-1.8-4.283-4.058-.012-1.416.73-2.674 1.864-3.42" fill="#FDDFBB"/><path d="M57.229 26.096c-.772-.174-.908-1.201-3.386-.74-.779.18-2.417 1.156-2.732 1.808-.316.652-.088-2.392 2.457-3.522 1.835-.675 2.457-.642 3.977-.642s1.987.907 1.766 1.65c0 0-.503 1.803-2.082 1.446zm13.905 0c.772-.174.908-1.201 3.386-.74.779.18 2.417 1.156 2.732 1.808.316.652.087-2.392-2.457-3.522-1.835-.675-2.457-.642-3.977-.642s-1.987.907-1.766 1.65c0 0 .503 1.803 2.082 1.446zM57 32c0 1.657-.895 3-2 3s-2-1.343-2-3 .895-3 2-3 2 1.343 2 3m18 0c0 1.657-.895 3-2 3s-2-1.343-2-3 .895-3 2-3 2 1.343 2 3" fill="#343434"/><path d="M64.02 35.07c.839-.115 2.96 1.756 2.96 1.756s.103-.414-.34-1.238C66.163 34.703 63.99 34 63.99 34s-1.687.448-2.487 1.604c-.296.29-.503 1.299-.503 1.299s1.895-1.681 3.02-1.834z" fill="#EEAC6C"/><g transform="translate(57 38)"><mask id="b" fill="#fff"><use xlink:href="#a"/></mask><path d="M.2.696S7.097 3.904 13.372.299c0 0-1.39 5.47-5.95 5.561-4.115.122-4.984-1.492-5.477-1.956C1.453 3.441.525 2.132.2.696" fill="#EEAC6C" mask="url(#b)"/></g><path d="M87.485 23.772a43.733 43.733 0 0 0-.295-4.09C84.12 9.906 74.95 2.849 64.178 2.934c-9.382.077-17.46 5.546-21.312 13.446-1.061 3.103-1.703 6.146-1.744 7.519-.155 4.765 3.372 11.87 3.372 11.87-.478-7.835-.389-7.819 1.49-9.193 2.336-1.71 7.26-4.896 9.147-7.085.366-.418 1.109-1.912 1.109-1.912s-.066 1.167.596 1.678c3.96 3.08 15.552-.47 19.984 1.89 3.623 1.934 8.098 14.301 8.098 14.301 1.756-3.389 2.625-9.05 2.567-11.675" fill="#343434"/></g></svg>