<svg width="120" height="120" viewBox="0 0 120 120" xmlns="http://www.w3.org/2000/svg" xmlns:xlink="http://www.w3.org/1999/xlink"><defs><path id="a" d="M0 .152h119.914v66.495H0z"/></defs><g fill="none" fill-rule="evenodd"><g transform="translate(0 27.2)"><mask id="b" fill="#fff"><use xlink:href="#a"/></mask><path d="M95.219 64.968c.377 0 .86.046 1.332-.009 1.18-.138 2.37-.268 3.395-.971 1.755-1.206 2.815-2.825 3.182-4.932.191-1.1.226-2.194.24-3.301.01-.8.19-.946 1-.994.158-.01.32.013.478-.001 3.486-.33 6.2-1.877 7.842-5.023.434-.833.726-1.75.619-2.731-.312-2.843-1.47-5.286-3.443-7.375-1.25-1.324-1.078-1.797.726-2.326 1.506-.441 2.956-1.02 4.039-2.188 2.287-2.464 3.702-5.294 3.557-8.754-.126-2.996-1.497-5.444-3.691-7.305-2.656-2.253-5.904-2.912-9.37-2.567-.76.076-1.48.242-2.211.442-.996.274-1.682-.28-1.583-1.276.05-.501-.063-.957-.219-1.382-.639-1.747-1.363-3.451-2.674-4.842-1.556-1.65-3.365-3.017-5.556-3.534-3.849-.908-7.411-.158-10.438 2.53a7.027 7.027 0 0 1-.842.656c-.649.417-.923.43-1.292-.173-.344-.559-.837-.836-1.378-1.07-.984-.426-1.974-.844-2.986-1.196-1.075-.375-2.17-.516-3.224.125-.2.123-.44.18-.662.266-.943.37-1.322.276-1.944-.526-.368-.475-.766-.903-1.303-1.197-.981-.536-2.011-.977-3.084-1.258-2.738-.718-4.92-.479-6.642 2.21-.524.819-1.172.787-1.812-.025-1.317-1.67-3.125-2.666-5.017-3.478-2.84-1.219-5.801-1.29-8.752-.443-2.792.801-5.324 2.066-7.164 4.425-.535.685-1.136 1.32-1.71 1.976-.383.438-.827.583-1.38.296-.963-.5-2.03-.688-3.073-.913-1.555-.335-3.137-.555-4.728-.238-3.112.622-5.27 2.452-6.652 5.247-.211.425-.394.87-.651 1.266-.26.401-.598.76-1.152.724-1.832-.118-3.536.51-5.24.995-1.771.506-3.409 1.401-4.575 2.873-1.69 2.133-2.925 4.503-3.428 7.21-.325 1.746-.327 3.436.519 5.066.5.966.45 1.385-.449 2.03-1.84 1.32-2.471 3.094-2.307 5.264.115 1.511.703 2.724 1.982 3.593 1.289.876 2.64 1.603 4.155 2.031 1.13.32 1.248.605.886 1.722-.06.188-.117.378-.193.56-.877 2.073-.86 4.228-.535 6.392.435 2.894 1.796 5.255 4.104 7.123 2.468 1.997 5.135 2.799 8.203 1.668 1.041-.384 2.083-.815 3.037-1.373 1.605-.937 3.217-1.892 4.129-3.64.33-.632.958-.646 1.463-.083.37.41.652.897 1.012 1.317.772.9 1.351 1.963 2.249 2.752 1.194 1.049 2.497 1.96 3.923 2.671 3.654 1.823 7.238 1.832 10.755-.403 1.089-.692 1.948-1.62 2.896-2.461 1.15-1.02 1.975-2.259 2.588-3.65.063-.144.076-.311.15-.449.403-.763 1.09-.8 1.56-.08.173.264.297.56.45.837.69 1.246 1.355 2.506 2.19 3.666 1.169 1.62 2.78 2.66 4.707 3 1.693.298 3.436.125 4.954-.846 1.654-1.058 3.46-1.988 4.084-4.076.113-.374.39-.614.782-.63.365-.014.598.266.69.567.178.58.493 1.081.835 1.564 2.034 2.87 6.438 3.477 8.958.84.942-.984 1.613-2.043 1.746-3.4.042-.434.16-.783.647-.858.49-.075.855.1 1.061.566.08.181.183.352.267.532a14.305 14.305 0 0 0 1.886 3.011c2.053 2.524 4.562 4.153 8.082 3.964m-67.1-6.764c-.447.425-.836.814-1.245 1.18-1.957 1.75-4.25 2.929-6.723 3.744-2.783.918-5.416.487-7.865-1.107-5.492-3.576-6.86-9.26-5.708-14.709.12-.571.346-1.12.54-1.732-1.346-.484-2.567-1.128-3.775-1.812-4.272-2.42-4.277-8.346-.996-11.04.288-.236.565-.44.35-.877-1.605-3.259-.73-6.406.48-9.52.532-1.37 1.318-2.616 2.187-3.801 1.538-2.097 3.65-3.388 6.103-4.147 1.442-.446 2.912-.84 4.42-.965.751-.063 1.08-.405 1.388-1.036 1.586-3.245 4.096-5.404 7.697-6.172 1.99-.425 3.963-.132 5.915.306.775.174 1.547.377 2.302.623.372.122.597.043.818-.244.266-.345.548-.679.837-1.006C38.967 1.222 44.154-.56 50.28.407c2.825.446 5.186 1.948 7.379 3.703.352.281.594.452.978.032 2.124-2.318 4.758-2.49 7.573-1.663 1.836.54 3.654 1.16 4.97 2.67.269.307.546.274.848.106 1.744-.968 3.474-.57 5.185.078 1.15.435 2.337.818 3.363 1.513.48.326.796.305 1.237-.062 1.683-1.4 3.653-2.232 5.785-2.664 3.225-.653 6.244-.13 9.028 1.664 3.186 2.05 5.218 4.928 6.257 8.526.226.785.214.778.995.66 4.105-.614 8.005-.04 11.32 2.537 4.395 3.416 5.895 9.1 3.749 13.944-.857 1.936-1.862 3.757-3.503 5.168a10.524 10.524 0 0 1-3.265 1.93c-.219.08-.473.112-.598.42.613.88 1.337 1.734 1.854 2.7 1.116 2.082 1.864 4.295 1.477 6.7-.435 2.715-2.081 4.666-4.295 6.158-1.46.984-3.095 1.638-4.86 1.86-.592.073-.702.348-.71.85-.015 1.077-.32 2.101-.608 3.133-.328 1.17-.93 2.17-1.688 3.104-1.358 1.676-3.056 2.685-5.235 2.994-5.792.822-9.524-1.199-12.576-5.795-.195-.294-.367-.603-.56-.922-3.876 5.647-9.083 6.082-13.34 1.039-.723.778-1.54 1.447-2.365 2.105-1.65 1.316-3.473 2.194-5.634 2.329-3.235.202-5.677-1.22-7.65-3.606-.605-.732-1.09-1.556-1.528-2.404-.173-.336-.28-.727-.62-.956-.37.119-.465.452-.627.708-1.365 2.153-3.224 3.828-5.34 5.188-3.589 2.307-7.396 2.481-11.263.74-2.76-1.244-5.163-2.972-6.89-5.512-.223-.327-.486-.626-.734-.936-.049-.06-.117-.106-.27-.242" fill="#FF642C" mask="url(#b)"/></g><path d="M95.219 92.168c-3.52.19-6.029-1.44-8.082-3.963a14.305 14.305 0 0 1-1.886-3.012c-.084-.179-.186-.35-.267-.53-.206-.466-.57-.642-1.06-.568-.489.076-.606.425-.648.858-.133 1.358-.804 2.417-1.746 3.401-2.52 2.637-6.924 2.03-8.958-.84-.342-.483-.657-.984-.835-1.565-.092-.3-.325-.58-.69-.566-.391.015-.67.256-.782.63-.625 2.088-2.43 3.017-4.084 4.076-1.518.97-3.261 1.143-4.954.845-1.927-.339-3.538-1.379-4.707-3-.835-1.16-1.5-2.42-2.19-3.665-.153-.278-.277-.573-.45-.837-.47-.72-1.157-.683-1.56.08-.074.138-.087.305-.15.449-.613 1.39-1.437 2.63-2.588 3.65-.948.84-1.807 1.769-2.896 2.46-3.517 2.235-7.101 2.227-10.755.404-1.426-.711-2.729-1.623-3.923-2.672-.898-.789-1.477-1.851-2.25-2.751-.36-.42-.641-.908-1.01-1.318-.506-.562-1.135-.548-1.464.084-.912 1.748-2.524 2.703-4.13 3.64-.953.557-1.995.988-3.036 1.373-3.068 1.13-5.735.328-8.203-1.668-2.308-1.868-3.67-4.23-4.104-7.123-.326-2.164-.342-4.32.535-6.392.076-.182.132-.373.193-.56.362-1.118.245-1.403-.886-1.722-1.515-.428-2.866-1.155-4.155-2.031-1.279-.87-1.867-2.082-1.982-3.593-.164-2.17.466-3.944 2.307-5.264.9-.645.95-1.065.449-2.03-.846-1.63-.844-3.32-.52-5.065.504-2.708 1.74-5.079 3.43-7.211 1.165-1.472 2.803-2.368 4.574-2.873 1.704-.486 3.408-1.114 5.24-.995.554.036.892-.323 1.152-.724.257-.397.44-.841.65-1.267 1.383-2.794 3.541-4.624 6.653-5.246 1.59-.317 3.173-.097 4.728.238 1.043.224 2.11.413 3.073.913.553.287.997.142 1.38-.297.574-.655 1.175-1.29 1.71-1.976 1.84-2.359 4.372-3.623 7.164-4.424 2.95-.847 5.912-.776 8.752.443 1.892.812 3.7 1.807 5.017 3.477.64.812 1.288.844 1.812.026 1.722-2.69 3.904-2.928 6.642-2.21 1.073.281 2.103.722 3.084 1.258.537.294.935.722 1.303 1.197.622.802 1 .895 1.944.526.222-.087.462-.144.662-.266 1.055-.642 2.149-.5 3.224-.126 1.012.352 2.002.77 2.986 1.197.541.234 1.034.51 1.378 1.07.37.602.643.59 1.292.173.298-.193.576-.42.842-.656 3.027-2.688 6.59-3.438 10.438-2.53 2.191.517 4 1.884 5.556 3.534 1.311 1.39 2.035 3.095 2.674 4.841.156.425.27.881.22 1.383-.1.996.586 1.55 1.582 1.276.73-.2 1.45-.367 2.21-.443 3.467-.344 6.715.315 9.37 2.568 2.195 1.86 3.566 4.309 3.692 7.305.145 3.46-1.27 6.29-3.557 8.754-1.083 1.167-2.533 1.747-4.039 2.188-1.804.529-1.975 1.002-.726 2.325 1.973 2.09 3.13 4.533 3.443 7.375.107.98-.185 1.898-.62 2.732-1.64 3.146-4.355 4.692-7.841 5.022-.158.015-.32-.008-.478.002-.81.048-.99.193-1 .994-.014 1.106-.049 2.2-.24 3.3-.367 2.107-1.427 3.727-3.182 4.932-1.026.704-2.214.833-3.395.972-.472.055-.955.008-1.332.008" fill="#FFC84E"/><path d="M41.702 53.298c-.98.13-1.797.246-2.616.34-.442.051-.456.316-.437.668.022.411.203.54.6.509.512-.04 1.03-.075 1.54-.039.515.037.72-.203.789-.651l.124-.827m28.11 19.07c.254.038.519.066.38-.324-.276-.783-.608-1.547-.853-2.338a1508.342 1508.342 0 0 0-8.765-27.308c-.297-.894-.292-.937-1.223-.84-2.768.284-5.551.41-8.31.797-.521.073-.67.323-.724.751-.195.558-.427 1.106-.58 1.676-.802 2.976-1.583 5.958-2.374 8.937-.675 2.541-1.658 5.032-1.053 7.757.147.661-.14 1.263-.869 1.5-.303.098-.42.275-.506.573-.331 1.169-.7 2.327-1.058 3.496.552.296 1.118.257 1.667.299 1.292.096 1.587.324 1.712 1.634.164 1.731.266 3.47.368 5.206.067 1.138-.212 1.487-1.368 1.657-.904.132-1.821.18-2.733.273-1.145.115-1.145.118-1.389 1.312 1.424.317 5.847.539 7.819.391 1.062.14 1.047.137 1.231-.789.67-3.372 1.53-6.7 2.413-10.022.085-.32.28-.56.444-.829.935-.151 1.867-.337 2.807-.447 1.624-.19 1.862-.038 2.555 1.433.05.107.099.215.147.323.742 1.65 1.464 3.311 2.233 4.95.506 1.08.761 1.216 1.955.96 2.01-.428 4.024-.828 6.073-1.028m8.336-19.526c-.194-.465-.49-.878-.48-1.432.012-.787-.091-1.576-.103-2.365-.042-2.684-.064-5.369-.1-8.053-.01-.788-.019-.808-.771-.748-1.78.142-3.562.297-5.34.466-.798.076-.796.097-.828 1.002-.28 1.279-.347 2.585-.437 3.883-.398 5.756-.472 11.53-.987 17.28-.021.234-.04.488.026.706.54 1.777 1.103 3.548 1.655 5.321.102.329.273.56.65.591 1.383.11 2.726.603 4.139.433.407.082.868.355.939-.407.329-3.53 1.218-6.981 1.519-10.516.057-.667.114-1.334.167-2.002.071-.878.309-1.093 1.201-1.065.197.006.398.021.591.062 1.286.27 2.585.356 3.897.41.968.041 1.986.03 2.862.589.168 1.306-.074 2.596-.158 3.892-.216 3.382-.077 6.783-.525 10.153-.073.547.196.72.638.77.906.099 1.816.174 2.724.26.526.246.676.043.728-.494.263-2.707.569-5.411.85-8.117.436-4.196.818-8.397 1.317-12.585.197-1.648.127-3.309.402-4.947.196-1.165.487-2.314.573-3.5.033-.453-.08-.653-.548-.681a219.741 219.741 0 0 1-3.8-.27c-.581-.047-.515.33-.489.69-.52 2.114-.813 4.262-1.003 6.427-.079.905-.142 1.816-.299 2.71-.264 1.505-.614 1.768-2.154 1.776-1.79.01-3.582-.055-5.371.079-.525.04-1.032-.018-1.485-.318m-70.47-9.739c-.637.073-.451.393-.213.716.8 1.082 1.619 2.15 2.4 3.245 1.75 2.447 3.447 4.93 5.23 7.351a157.418 157.418 0 0 1 2.694 3.76c.256.368.419.736.431 1.196.058 2.131.175 4.262.207 6.393.042 2.726.247 5.442.433 8.16.056.834.09.856.906.789 1.074-.09 2.144-.036 3.216.003.131.086.315.215.401.037.097-.202.091-.455.115-.688.3-2.87.571-5.744.905-8.61.31-2.669.689-5.329 1.036-7.992.047-.362.22-.673.383-.99 2.473-4.79 5.283-9.375 8.497-13.712.155-.21.42-.383.318-.751-1.595-.647-3.206-1.316-4.833-1.945-.253-.097-.572-.345-.871-.03-.217.071-.262.284-.353.45-1.928 3.449-3.573 7.04-5.348 10.567-.288.571-.5 1.175-1.232 1.32-.703-.043-.951-.647-1.288-1.091-2.015-2.647-4.065-5.268-5.896-8.048-.478-.726-1.051-1.39-1.565-2.093-.194-.263-.375-.35-.69-.176-1.563.859-3.328 1.265-4.884 2.14m26.79 1.868c-1.497 1.998-2.669 4.2-3.989 6.308-.132.213-.121.434-.075.68.564 2.992 1.073 5.993 1.678 8.975.871 4.3 1.527 8.643 2.577 12.909.261 1.056.245 1.035 1.291 1.082 2.196.1 4.383-.073 6.559-.284 1.056-.104 2.146-.032 3.176-.378.346.018.367-.185.346-.456-.074-.902-.118-1.806-.196-2.707-.197-2.293-.203-2.278-2.551-2.324-1.188-.022-2.372.149-3.56.02-.405-.263-.533-.634-.533-1.111.002-.669-.077-1.338-.11-2.007-.043-.868-.105-1.736-.1-2.604.004-.824.235-1.075 1.062-1.094 1.362-.03 2.667-.39 4.002-.58.555.184.707-.063.667-.58-.095-1.215-.219-2.432-.228-3.65-.006-.673-.29-.76-.857-.764-1.94-.011-3.879-.145-5.818.012-.366-.314-.73-.641-.693-1.176.075-1.076-.234-2.115-.29-3.179-.121-2.268-.082-2.25 2.164-2.523 1.527-.186 3.091-.164 4.577-.654.42-.062.332-.371.3-.636-.14-1.132-.116-2.276-.297-3.408-.162-1.01-.116-1.028-1.175-1.015-2.178.03-4.356.11-6.533.084-.83-.01-1.25.29-1.394 1.06m-8.36 19.52c-.397 1.902-.492 3.84-.692 5.766-.172 1.652-.31 3.306-.476 4.959-.11 1.078-.441 1.328-1.57 1.23-.04-.003-.08-.009-.12-.011-.671-.04-1.466-.374-1.981-.015-.482.337-.238 1.175-.335 1.788-.148.946-.44 1.341-1.253 1.221-1.714-.253-3.409-.104-5.116-.009-1.087.06-1.082.002-1.27-1.06-.299-1.682-.298-3.387-.36-5.084-.124-3.478-.187-6.958-.306-10.436-.047-1.373-.822-2.484-1.63-3.486-3.089-3.83-5.7-8.007-8.77-11.849a7.803 7.803 0 0 1-.544-.78c-.48-.778-.38-1.208.45-1.602.897-.424 1.82-.794 2.738-1.17.374-.154.735-.226.573-.805-.139-.494.208-.788.662-.975.88-.363 1.737-.787 2.629-1.122 1.265-.476 2.516-.971 3.72-1.593.836-.433.945-.361 1.585.397 2.125 2.52 3.86 5.323 5.89 7.912.097.123.202.24.3.355.383-.125.41-.485.555-.748.974-1.768 1.925-3.548 2.9-5.315.45-.815.566-.847 1.53-.654 1.091.218 1.093.219 1.639-.767.288-.52.564-1.045.86-1.56.434-.753.583-.833 1.441-.666.466.09.93.221 1.372.391a241.56 241.56 0 0 1 4.432 1.749c1.014.411 1.147.628 1.218 1.812 1.102.13 2.213.06 3.323.037 1.354-.03 2.708-.072 4.06-.059 1.252.013 1.296.083 1.47 1.347.02.147.05.293.094.541.853-.569 1.783-.427 2.665-.55.447-.062.681-.219.836-.668.823-2.397.704-2.042 3.09-2.3a142.69 142.69 0 0 1 7.846-.656c1.45-.077 1.784.197 2.332 1.512.655 1.574 1.102 3.215 1.62 4.833.19.59.36 1.194.847 1.953.16-1.52.297-2.8.428-4.078.034-.315.025-.635.078-.945.132-.78.435-1.105 1.231-1.228.668-.103 1.347-.16 2.022-.177.517-.01.66-.234.713-.715.213-1.968.26-1.995 2.208-2.153 1.982-.16 3.963-.329 5.944-.488.357-.028.718-.06 1.073-.032.756.056.983.289 1.052 1.018.02.196.005.395.007.593l.08 9.374c.001.119.003.237.006.356.051 1.873.486 2.18 2.275 1.654.392-.115.303-.408.338-.657.227-1.565.443-3.132.667-4.697.1-.704.203-1.408.314-2.11.166-1.045.585-1.388 1.607-1.293.67.062 1.462.393 1.975.037.53-.367.35-1.227.457-1.879.13-.808.568-1.182 1.398-1.124 1.944.136 3.887.3 5.826.5.745.076.947.362.893 1.127-.089 1.263-.306 2.512-.57 3.75-.208.971-.266 1.954-.34 2.94a270.96 270.96 0 0 1-.617 6.732c-.444 4.367-.91 8.731-1.365 13.097-.156 1.494-.297 2.99-.454 4.484-.096.917-.43 1.196-1.37 1.298-.803.087-1.563-.278-2.393-.2-.213.58-.16 1.18-.236 1.76-.146 1.1-.394 1.4-1.53 1.356-1.268-.049-2.532-.241-3.797-.378-.196-.022-.387-.09-.583-.117-1.2-.162-1.333-.24-1.208-1.382.467-4.254.283-8.537.645-12.795.025-.285.239-.67-.166-.84-.474-.198-.995-.325-1.503-.175-.246.073-.203.404-.252.626-.462 2.087-.732 4.205-1.021 6.32-.13.94-.236 1.884-.402 2.817-.146.826-.273.912-1.115.878-.476-.019-.948-.11-1.423-.149-1.064-.088-1.164-.011-1.314 1.006-.057.391-.061.79-.133 1.178-.153.838-.357 1.015-1.207.91-1.223-.152-2.466-.021-3.68-.312-.379-.091-.79-.103-1.185.043-.04.466.266.827.351 1.246.145.714-.102 1.127-.815 1.33-.267.076-.547.156-.82.152-2.686-.038-5.274.74-7.932.94-1.062.08-1.365.034-1.806-.92-.679-1.471-1.284-2.975-1.91-4.47-.166-.395-.222-.84-.635-1.216-.323.608-.433 1.244-.589 1.856-.437 1.724-.836 3.458-1.278 5.182-.265 1.033-.328 1.049-1.38 1.046-.675-.002-1.453-.252-1.993.08-.57.349-.435 1.211-.63 1.842-.314 1.016-.321 1.04-1.402 1.009-1.791-.05-3.583-.1-5.374-.136a28.524 28.524 0 0 1-3.921-.367c-.982-.158-1.223-.54-.942-1.47.1-.327.37-.604.287-1.067a47.88 47.88 0 0 1-5.217.114c-.279-.01-.559.004-.837-.015-.985-.067-1.271-.278-1.48-1.221-.485-2.2-.961-4.404-1.405-6.612-.506-2.519-.864-5.065-1.46-7.565.065-.355-.018-.696-.098-1.037-.005-.068-.01-.136-.013-.204-.065.012-.163.002-.187.038-.065.102-.063.211.084.26-.272.439-.259.924-.225 1.412m76.127-22.605c-.051.188-.126.374-.15.565-.563 4.696-1.135 9.39-1.676 14.088-.406 3.526-.568 7.071-.829 10.61-.043.596.146.79.653.836 1.105.1 2.21.19 3.316.284.41.243.742.28.868-.304.132-.617.257-1.236.426-1.843 1.466-5.238 2.926-10.478 4.076-15.797.614-2.841 1.147-5.703 2.037-8.576-2.49-.39-4.908-.345-7.318-.406-.356-.01-.713.031-1.069.055-.315.021-.395.208-.334.488m-.388 37.99c.649-.113 1.006-.56 1.312-1.09.602-1.044.512-2.11.138-3.19-.856-2.471-3.65-3.054-5.501-1.148-.943.836-1.492 1.825-1.141 3.117.602 2.226 3.046 3.305 5.192 2.31m-3.752-7.467c-1.178-.13-2.13-.212-3.071-.35-.77-.112-1.056-.466-.949-1.214.346-2.432.328-4.888.519-7.33.345-4.415.967-8.798 1.395-13.203.199-2.046.45-4.085.796-6.112.192-1.13.39-1.294 1.567-1.302.558-.004 1.115-.028 1.671-.022.39.005.578-.158.618-.548.048-.471.112-.943.213-1.406.156-.723.409-.977 1.124-.983 3.14-.027 6.28-.04 9.397.423 1.108.165 1.368.519 1.087 1.498-1.566 5.475-2.45 11.108-3.91 16.606-.659 2.48-1.392 4.94-2.07 7.416-.25.914-.435 1.845-.652 2.768-.144.614-.466.989-1.17.9-.315-.04-.637-.013-.953-.04-1.598-.138-1.231-.314-1.686 1.225-.067.227-.095.467-.177.688-.184.494-.022.738.446 1.019 1.265.758 2.14 1.84 2.54 3.301.547 1.997-.092 3.796-1.84 4.956-.5.33-1.03.601-1.62.732-.454.1-.75.345-.987.757-.575 1-1.458 1.668-2.542 2.047-1.655.577-3.211.42-4.567-.764-.872-.76-1.676-1.585-1.955-2.765-.466-1.966.78-4.43 2.808-5.212 1.042-.402 1.902-.878 2.487-1.84.305-.501.866-.774 1.481-1.245" fill="#060605"/><path d="M54.035 62.558c1.469.15 2.936-.1 4.41.006.81.058 1.11-.473.875-1.262-.169-.567-.362-1.128-.507-1.7-.624-2.451-1.243-4.902-2.174-7.262-.421-1.07-.636-1.174-1.655-.883-.772.11-.98.703-1.15 1.328-.386 1.405-.468 2.86-.693 4.29-.233 1.473-.357 2.962-.255 4.457.061.897.225 1.03 1.149 1.026m-4.083 15.259c-1.971.147-6.394-.074-7.818-.39.244-1.196.244-1.198 1.39-1.314.91-.091 1.828-.14 2.732-.272 1.156-.17 1.435-.519 1.368-1.657-.102-1.737-.204-3.475-.368-5.206-.124-1.31-.42-1.538-1.712-1.635-.55-.04-1.115-.002-1.667-.298.357-1.169.727-2.327 1.059-3.496.084-.298.202-.475.505-.574.729-.236 1.016-.838.87-1.499-.606-2.725.377-5.215 1.052-7.757.791-2.98 1.572-5.961 2.374-8.938.153-.568.385-1.117.58-1.675 1.073.026 2.154.122 3.216-.05 1.78-.286 3.573-.06 5.354-.193.368-.027.584.13.702.49.222.675.506 1.33.718 2.007 1.534 4.895 3.084 9.785 4.703 14.654.871 2.62 1.569 5.296 2.436 7.917.529 1.598 1.028 3.248 2.365 4.437-2.048.2-4.062.6-6.073 1.029-1.194.255-1.449.12-1.955-.962-.769-1.638-1.49-3.298-2.233-4.95-.048-.107-.096-.215-.146-.322-.694-1.471-.932-1.624-2.557-1.433-.94.11-1.87.296-2.806.447-.835-.511-1.278-.385-1.608.47-.056.145-.061.31-.1.462-.427 1.678-.857 3.356-1.284 5.035-.475 1.87-.914 3.747-1.097 5.673m39.474-5.745c-.908-.086-1.818-.161-2.724-.26-.442-.05-.71-.223-.638-.77.448-3.37.31-6.77.525-10.153.083-1.296.326-2.586.159-3.892.016-.605-.29-.96-.876-1.078-.583-.118-1.165-.257-1.754-.327-1.812-.211-3.572-.761-5.405-.818-1.084-.034-1.217.077-1.516 1.076-.559 1.862-.82 3.773-.967 5.705-.21 2.79-.438 5.58-.66 8.37-1.412.17-2.755-.321-4.137-.432-.378-.03-.55-.262-.651-.59-.552-1.775-1.115-3.545-1.655-5.322-.066-.218-.047-.472-.026-.705.515-5.75.589-11.525.987-17.281.09-1.298.157-2.604.437-3.883 1.62-.052 3.241.095 4.86-.2 1.031-.188 1.142-.054 1.11 1.054-.067 2.326.183 4.635.292 6.952.033.704.127 1.407.22 2.107.112.828.32 1.034 1.14 1.217.453.3.96.357 1.485.318 1.789-.134 3.58-.068 5.371-.079 1.54-.008 1.89-.27 2.154-1.777.157-.893.22-1.804.3-2.71.189-2.164.482-4.312 1.002-6.425.82.166 1.643.258 2.484.26.861 0 .935.116.832.99-.47 3.995-.882 7.995-1.223 12.004-.1 1.175-.155 2.359-.31 3.536a76.849 76.849 0 0 0-.537 5.893c-.131 2.404.013 4.82-.28 7.22m-67.426-19.7c.732-.145.944-.749 1.232-1.32 1.776-3.526 3.42-7.118 5.347-10.568.092-.165.137-.378.354-.449.035.619.51.84.977 1.076.942.477 1.878.965 2.817 1.45-2.466 4.583-5.312 8.858-8.04 13.202a4.88 4.88 0 0 0-.76 2.327c-.07 1.02-.141 2.046-.293 3.057-.37 2.459-.464 4.94-.623 7.412-.133 2.045-.029 4.104-.029 6.157-1.072-.039-2.143-.092-3.216-.003-.816.067-.85.045-.906-.79-.186-2.717-.391-5.433-.433-8.159-.033-2.131-.149-4.262-.207-6.392-.012-.461-.176-.828-.431-1.198a157.404 157.404 0 0 0-2.694-3.759c-1.783-2.422-3.48-4.904-5.23-7.351-.781-1.095-1.6-2.163-2.4-3.245-.238-.323-.424-.642.212-.715.42.315.84.31 1.338.124 1.077-.4 2.188-.71 3.27-1.098.404-.145.668-.126.895.26 1.167 1.981 2.772 3.658 3.981 5.606 1.012 1.63 2.607 2.767 3.63 4.38.114.18.377.296.594.372.323.113.526-.061.615-.376" fill="#ABE182"/><path d="M44.043 61.4c-1.334.192-2.64.55-4.002.581-.827.019-1.058.27-1.062 1.095-.005.867.057 1.735.1 2.602.033.67.112 1.339.11 2.008 0 .477.128.848.534 1.11-.06.572.176.901.772.945.904.066 1.806.162 2.71.2 1.655.07 1.315-.28 1.758 1.5.234.942.157 1.963.72 2.823-1.03.346-2.12.274-3.176.378-2.176.211-4.363.384-6.559.284-1.046-.047-1.03-.026-1.29-1.082-1.052-4.266-1.707-8.608-2.578-12.909-.605-2.982-1.114-5.983-1.677-8.974-.047-.247-.058-.468.074-.681 1.32-2.109 2.492-4.31 3.989-6.307.595.008 1.185-.032 1.779-.073 1.782-.124 3.56-.362 5.351-.311.839.024.894.087.976.85.083.783.176 1.565.254 2.35.05.501.192.93.739 1.098-1.486.49-3.05.468-4.577.654-2.246.274-2.285.255-2.164 2.523.056 1.064.365 2.103.29 3.18-.037.534.327.861.693 1.175-.077.736.337.986.996.984 1.147-.004 2.294-.024 3.44-.017 1 .006 1.045.012 1.193 1.019.15 1.012.397 1.999.607 2.996" fill="#ABE182"/><path d="M69.811 72.368c-1.337-1.189-1.836-2.839-2.365-4.437-.867-2.621-1.565-5.298-2.436-7.918a875.827 875.827 0 0 1-4.703-14.653c-.212-.677-.497-1.332-.718-2.007-.118-.36-.334-.517-.701-.49-1.783.133-3.574-.093-5.355.194-1.062.171-2.143.075-3.216.05.054-.43.203-.678.724-.752 2.759-.387 5.542-.513 8.31-.798.931-.096.927-.053 1.223.841a1505.531 1505.531 0 0 1 8.764 27.308c.246.79.578 1.555.855 2.337.138.39-.128.363-.382.325m-46.83 2.348c0-2.053-.104-4.112.029-6.157.16-2.472.253-4.953.622-7.412.152-1.011.224-2.036.294-3.057a4.883 4.883 0 0 1 .76-2.327c2.729-4.344 5.573-8.62 8.04-13.203-.94-.484-1.875-.972-2.817-1.449-.468-.237-.942-.457-.977-1.076.299-.315.618-.067.871.03 1.627.629 3.238 1.298 4.833 1.945.101.368-.163.542-.318.75-3.214 4.338-6.024 8.923-8.497 13.713-.163.317-.336.628-.383.99-.347 2.663-.725 5.323-1.036 7.991-.334 2.867-.604 5.741-.905 8.61-.024.233-.018.487-.115.689-.086.178-.27.05-.401-.037m66.445-2.644c.292-2.4.148-4.816.279-7.22.107-1.97.279-3.939.537-5.893.155-1.177.21-2.361.31-3.536.341-4.01.752-8.009 1.223-12.004.103-.874.03-.99-.832-.99a12.56 12.56 0 0 1-2.484-.26c-.026-.362-.092-.738.489-.692 1.266.1 2.533.194 3.8.27.469.029.58.229.548.682-.086 1.186-.377 2.335-.573 3.5-.275 1.638-.205 3.3-.402 4.947-.499 4.188-.882 8.39-1.317 12.585-.281 2.706-.587 5.41-.85 8.117-.052.537-.202.74-.728.494M75.57 69.926c.222-2.79.45-5.58.66-8.371.147-1.932.408-3.843.967-5.705.3-1 .432-1.11 1.516-1.076 1.833.057 3.593.607 5.405.818.59.07 1.171.209 1.754.327.587.118.892.473.876 1.078-.877-.56-1.895-.548-2.863-.588-1.312-.055-2.611-.14-3.897-.411a3.392 3.392 0 0 0-.59-.062c-.893-.028-1.13.187-1.201 1.066-.054.667-.11 1.334-.168 2.001-.301 3.535-1.19 6.986-1.519 10.517-.07.76-.532.488-.94.406m2.577-17.084c-.82-.183-1.028-.39-1.139-1.217-.094-.7-.188-1.403-.221-2.107-.11-2.317-.359-4.626-.292-6.952.032-1.108-.079-1.242-1.11-1.053-1.619.294-3.24.147-4.86.2.032-.906.03-.927.828-1.003 1.779-.169 3.56-.324 5.34-.466.752-.06.762-.04.772.747.035 2.685.057 5.37.098 8.054.013.789.115 1.578.103 2.365-.008.553.287.967.481 1.432" fill="#F4F5F2"/><path d="M21.999 52.372c-.089.315-.292.489-.615.376-.217-.076-.48-.192-.593-.371-1.024-1.614-2.62-2.752-3.631-4.381-1.21-1.948-2.814-3.625-3.98-5.606-.228-.386-.492-.405-.896-.26-1.082.389-2.193.698-3.27 1.098-.498.186-.917.191-1.338-.124 1.556-.875 3.321-1.281 4.884-2.14.315-.173.496-.088.69.176.514.703 1.087 1.367 1.565 2.093 1.831 2.78 3.881 5.4 5.895 8.048.338.444.586 1.048 1.289 1.091" fill="#E6EFEF"/><path d="M49.953 77.817c.181-1.926.622-3.803 1.097-5.673.426-1.679.856-3.356 1.283-5.035.038-.153.044-.317.1-.462.33-.855.773-.982 1.608-.47-.163.268-.36.51-.444.829-.883 3.323-1.743 6.65-2.413 10.023-.184.925-.17.928-1.231.788" fill="#F4F5F2"/><path d="M43.565 48.887c-.547-.168-.69-.596-.74-1.099-.076-.784-.17-1.566-.254-2.35-.08-.762-.137-.826-.975-.85-1.792-.05-3.57.188-5.351.312-.594.04-1.185.08-1.779.072.145-.77.563-1.07 1.394-1.06 2.177.027 4.355-.055 6.533-.084 1.059-.013 1.014.004 1.175 1.015.181 1.132.157 2.276.296 3.408.033.265.12.574-.3.636" fill="#E6EFEF"/><path d="M44.043 61.4c-.21-.996-.458-1.983-.607-2.995-.148-1.007-.193-1.013-1.192-1.019-1.147-.007-2.294.013-3.441.017-.659.002-1.073-.248-.996-.984 1.94-.157 3.879-.024 5.818-.012.566.004.851.09.857.764.01 1.217.133 2.435.228 3.65.04.518-.113.764-.667.58" fill="#F4F5F2"/><path d="M45.683 74.264c-.563-.86-.485-1.881-.72-2.824-.443-1.778-.102-1.429-1.758-1.499-.904-.038-1.806-.134-2.71-.2-.597-.044-.833-.373-.772-.945 1.187.13 2.372-.041 3.558-.019 2.35.046 2.355.03 2.552 2.324.077.9.123 1.805.196 2.707.021.27 0 .475-.346.456" fill="#E6EFEF"/><path d="M103.547 68.27c-1.106-.094-2.211-.184-3.316-.284-.508-.047-.696-.24-.653-.837.26-3.538.423-7.083.83-10.61.54-4.697 1.112-9.391 1.676-14.087.023-.192.098-.377.15-.565.424.094.824.297 1.28.248 1.743-.19 3.48.119 5.224.085.935-.019.975.09.783.954-.776 3.505-1.576 7.005-2.34 10.513-1.066 4.897-2.765 9.638-3.634 14.583" fill="#ABE182"/><path d="M103.547 68.27c.869-4.945 2.568-9.686 3.635-14.583.763-3.508 1.563-7.008 2.34-10.513.191-.864.151-.973-.784-.954-1.744.034-3.48-.274-5.225-.085-.455.049-.855-.154-1.28-.248-.061-.28.019-.467.334-.488.356-.024.713-.064 1.07-.055 2.41.06 4.827.016 7.317.407-.89 2.872-1.423 5.734-2.037 8.575-1.15 5.32-2.61 10.559-4.076 15.797-.17.607-.294 1.226-.427 1.843-.125.584-.456.546-.867.304" fill="#E6EFEF"/><path d="M101.845 79.877c-2.146.994-4.59-.085-5.192-2.311-.35-1.292.198-2.281 1.141-3.117.534.086 1.026-.104 1.502-.282.853-.322 1.54-.075 2.184.487.571.5.782 1.13.879 1.87.153 1.18-.335 2.238-.514 3.353" fill="#ABE182"/><path d="M101.845 79.877c.18-1.115.667-2.172.514-3.353-.097-.74-.308-1.37-.88-1.87-.642-.562-1.33-.809-2.183-.487-.476.178-.968.368-1.502.282 1.85-1.907 4.645-1.323 5.5 1.147.375 1.082.466 2.147-.137 3.191-.306.529-.663.977-1.312 1.09" fill="#E6EFEF"/><path d="M54.984 51.456c1.019-.29 1.234-.185 1.656.885.93 2.359 1.55 4.81 2.173 7.26.145.573.338 1.134.507 1.701.235.788-.065 1.32-.875 1.262-1.474-.107-2.942.145-4.41-.006-.403-.437-.285-.957-.235-1.467.171-1.729.311-3.462.52-5.187.18-1.487.44-2.965.664-4.448" fill="#060605"/><path d="M54.984 51.456c-.224 1.483-.484 2.96-.664 4.448-.209 1.725-.349 3.458-.52 5.187-.05.51-.168 1.03.235 1.467-.924.004-1.088-.13-1.15-1.026-.101-1.495.023-2.983.256-4.457.225-1.43.307-2.885.692-4.29.172-.625.38-1.217 1.151-1.329" fill="#F4F5F2"/></g></svg>