<svg xmlns="http://www.w3.org/2000/svg" width="172.191" height="168.26" viewBox="-2.42 0.543 172.191 168.26"><defs><style/></defs><g id="ID0.2763061197474599" transform="matrix(.95 0 0 .95 .3 .4)"><g id="Back_Leg"><path id="Fill_3_" fill="#96C93D" d="M95.656 133.483a9.03 9.03 0 0 1 1.281 4.229c-.004.166-.055 1.896-.271 3.225-.273 1.396-.711 2.797-1.182 4.211-.854 2.553-1.861 4.926 1.045 6.457 1.51.795 3.105 1.402 4.695 2.021 4.586 1.79 12.061 4.383 14.275 9.465 1.027-1.834.012-3.953-1.281-5.259-.43-.43-.111-1.188.492-1.188 1.584-.004 3.088.162 4.562.599-.641-1.317-1.648-2.543-2.889-3.187-.523-.271-.436-1.188.17-1.304 1.361-.25 2.693-.114 4.047.028-2.48-3.661-9.611-5.939-13.299-6.898a.707.707 0 0 1-.42-.299c-.752-.34-1.221-1.357-.461-2.128 5.354-5.409 12.988-10.709 14.979-18.472 1.15-4.483-.068-9.315-4.554-11.543-4.425-2.195-9.125-1.723-13.706-.326-.301.091-.521-.02-.646-.206-7.561 3.665-7.346 18.299-7.27 20.425.154-.05.335-.02.433.15z" transform="translate(.2 .15) scale(.9975)"/><path id="Outline_3_" fill="#231F20" d="M108.922 144.72c3.678-3.478 8.496-7.488 11.689-12.146.594-.837 1.891-3.288 1.891-3.288 1.193-2.568 1.783-5.316 1.375-8.262-.641-4.652-3.307-7.637-6.803-9.202-4.229-1.896-9.67-1.728-14.258.088-.455.181-.521.69-.316.999.125.188.352.297.646.206 4.582-1.396 9.281-1.869 13.707.325 4.48 2.229 5.705 7.061 4.553 11.543-1.99 7.764-9.629 13.062-14.979 18.473-.76.771-.291 1.788.461 2.128a.71.71 0 0 0 .422.3c3.686.961 10.812 3.236 13.297 6.897-1.354-.146-2.686-.278-4.045-.028-.605.112-.695 1.029-.17 1.305 1.236.643 2.246 1.865 2.887 3.186-1.479-.436-2.979-.602-4.562-.598-.604.002-.922.76-.49 1.188 1.293 1.305 2.309 3.424 1.279 5.258-2.217-5.082-9.689-7.674-14.275-9.464-1.588-.618-3.188-1.226-4.695-2.021-2.906-1.532-1.896-3.905-1.045-6.457.471-1.414.906-2.815 1.182-4.211.223-1.328.271-3.059.271-3.225a9.051 9.051 0 0 0-1.281-4.23c-.102-.17-.279-.199-.426-.15-.168.061-.299.223-.242.438.018.066.031.136.047.205.246.98.295 1.898.359 2.771.145 1.972-1.42 6.729-1.396 6.795-.484 1.567-.943 3.188-1.08 5.04-.121 1.711.822 3.036 2.203 3.995 6.373 4.433 14.887 5.112 19.785 11.638.037.543.709.995 1.158.479 1.707-1.975 1.453-4.555.146-6.592 1.396.117 2.738.418 4.064.974.508.211.988-.396.855-.858-.416-1.479-1.273-3.016-2.426-4.166 1.072.059 2.146.262 3.207.36.461.047.881-.515.725-.944-1.722-4.639-8.916-7.318-13.72-8.749z" transform="translate(.2 .15) scale(.9975)"/></g><g id="Back_Arm"><path id="Fill_1_" fill="#96C93D" d="M134.125 80.377c.055 3.872 1.252 9.796 5.773 10.613a.822.822 0 0 1 .406.2c6.613-5.545 14.727-6.672 22.947-3.868-.176-2.206-1.275-3.663-3.711-4.223-.355-.083-.473-.57-.215-.819 1.529-1.478 3.035-2.363 5.02-2.603-1.406-1.663-3.727-2.246-5.83-2.587-.516-.083-.521-.709-.271-1.026.76-.984 1.773-1.838 2.848-2.561-7.475-.909-14.447 3.455-18.539 9.652a.528.528 0 0 1-.682.197c-.043-.007-.082-.002-.131-.019-2.559-.862-3.312-4.528-3.553-6.874-3.352-3.42-4.754 3.544-4.754 3.547.27-.157.688-.043.692.371z" transform="translate(.2 .15) scale(.9975)"/><path id="Outline_1_" fill="#231F20" d="M133.213 80.377c-.283 4.703.734 11.222 6.189 12.419.068.018.131.002.199.002a.559.559 0 0 0 .576-.078c2.678-2.106 5.322-3.545 8.039-4.388 0 0 1.775-.536 2.926-.678 3.762-.576 7.711-.097 12.074 1.272.639.199 1.008-.377.912-.884.004-.021.014-.028.014-.053.053-2.74-1.09-4.665-3.494-5.562 1.367-1.131 2.738-1.735 4.705-1.727.424.002.668-.463.471-.822-1.221-2.211-3.568-3.211-5.938-3.758.992-.947 2.191-1.724 3.396-2.342.621-.217.771-1.236-.021-1.455-2.965-.81-6.047-.643-8.977.219-.295.083-2.516.923-2.516.923-3.994 1.774-7.494 4.82-9.707 8.417-1.91-.715-2.771-3.755-3.184-5.519a.355.355 0 0 0-.068-.136c-.193-.216-.656-.111-.621.229.236 2.346.992 6.012 3.553 6.874.049.017.088.012.131.019a.53.53 0 0 0 .682-.197c4.092-6.197 11.064-10.562 18.539-9.652-1.072.723-2.088 1.575-2.848 2.561-.248.317-.242.943.271 1.026 2.105.341 4.426.924 5.832 2.587-1.98.238-3.488 1.125-5.02 2.603-.258.249-.143.736.215.819 2.436.56 3.535 2.017 3.711 4.223-8.225-2.804-16.334-1.679-22.947 3.868a.81.81 0 0 0-.406-.2c-4.521-.818-5.723-6.741-5.773-10.613-.004-.413-.422-.527-.688-.366a.445.445 0 0 0-.227.369z" transform="translate(.2 .15) scale(.9975)"/></g><g id="Tail"><path id="Fill_4_" fill="#96C93D" d="M63.267 127.112l.277 1.582c-15.908 6.477-36.316 7.199-48.672-6.404-8.467-9.32-11.641-22.791-8.74-34.943C.03 101.228-.503 118.156 8.88 130.745c14.1 18.928 38.354 14.203 57.711 7.607-.016.551-.098 1.1-.188 1.646 0-.001 0-.002.002-.003 7.343-9.753-3.138-12.883-3.138-12.883z" transform="translate(.2 .15) scale(.9975)"/><path id="Outline_4_" fill="#231F20" d="M8.881 130.745c-9.383-12.594-8.848-29.52-2.748-43.398-2.896 12.152.275 25.623 8.74 34.943 12.354 13.604 32.764 12.881 48.674 6.404l-.277-1.582-.301-1.678c-.707.26-1.418.512-2.135.758-14.885 5.142-31.361 7.207-43.857-4.652C6.159 111.282 4.723 95.345 8.948 81.771c.004-.01 0-.021.004-.028a.489.489 0 0 0 .012-.128l-.004-.047a.386.386 0 0 0-.043-.125c-.006-.01-.012-.021-.018-.028a.439.439 0 0 0-.08-.093.697.697 0 0 0-.059-.049c-.02-.01-.029-.021-.051-.028-.221-.13-.52-.122-.643.157-10.208 14.732-11.137 36.281-.44 51.025 12.916 17.807 37.641 17.071 56.689 10.229.598-.216 1.189-.438 1.777-.662.062-.667.191-1.33.309-1.993.094-.548.176-1.097.188-1.646-19.355 6.593-43.61 11.316-57.708-7.61z" transform="translate(.2 .15) scale(.9975)"/></g><g id="Body"><path id="Fill_5_" fill="#96C93D" d="M146.416 5.434c-6.469.518-13.736 1.617-19.238 5.338-7.512 5.08-8.244 13.041-6.236 21.369 3.379 14.008 9.02 28.191 3.039 42.418a.677.677 0 0 1-.199.258c-.125.32-.396.578-.793.557-13.883-.723-29.312.56-41.164 8.521-16.879 11.338-19.932 31.678-18.395 50.612.088.271.096.557.047.824.293 1.959 2.227 6.703 14.156 6.111 2.232-.109 4.814-.406 7.805-.943 0 0 7.533-2.072 13.463-4.169 17.645-5.584 33.186-16.009 40.719-32.955.066-.149.143-.312.229-.489 2.479-4.974 4.785-21.653 4.785-21.653a55.657 55.657 0 0 0-2.324-17.848c-2.9-9.607-4.879-20.912-3.32-30.945a1.544 1.544 0 0 1 .209-.869c.018-.03.031-.064.051-.09a1.42 1.42 0 0 1 1.473-.639c4.443.788 10.604.348 12.891-4.07-5.812.104-11.826-1.244-16.537-3.164-1.48-.604-.82-3.039.666-2.418 8.682 3.623 29.531 6.562 31.854-6.918 1.704-9.924-17.068-9.333-23.181-8.838z" transform="translate(.2 .15) scale(.9975)"/><path id="Belly" fill="#FFED00" d="M132.692 88.843c-2.367 31.592-26.432 34.91-41.631 38.533-13.158 3.137-13.561 11.795-13.432 14.066 2.234-.109 4.814-.406 7.807-.943 0 0 7.531-2.074 13.461-4.169 17.646-5.584 33.188-16.009 40.719-32.955.068-.149.145-.312.23-.489 2.477-4.974 4.783-21.653 4.783-21.653a55.325 55.325 0 0 0-.646-10.489c-2.377-4.558-9.489-5.946-11.291 18.099z" transform="translate(.2 .15) scale(.9975)"/><path id="Outline_5_" fill="#231F20" d="M154.022 2.494c-12.135-.573-28.521 1.589-34.734 13.512-3.852 7.388-.535 17.161 1.447 24.573 2.898 10.854 4.756 21.913 2.229 33.01-14.844-1.98-30.645-.135-43.32 8.346-17.115 11.441-20.855 32.762-19.229 51.958l.479 3.177a.68.68 0 0 1 .008.052c3.848 8.991 15.727 8.361 24.723 6.374 6.131-1.354 10.922-3.338 10.922-3.338.082.093 11.109-3.235 16.158-5.757l2.152-1.116c12.686-6.83 23-16.989 28.439-31.302 0 0 1.857-6.668 3.07-13.277.547-2.98.963-5.953 1.018-8.295.012-.866-.02-1.729-.047-2.593a576.537 576.537 0 0 0-.197-3.434c-.031-.365-.057-.732-.1-1.099-.729-6.354-3.105-12.379-4.439-18.615-1.441-6.749-2.562-14.069-1.67-21.001 5.75.83 13.604-.845 15.311-7.046 6.062-.6 11.637-2.981 14.939-8.21 7.456-11.825-9.009-15.534-17.159-15.919zm15.566 11.776c-2.32 13.479-23.172 10.541-31.854 6.918-1.486-.621-2.146 1.812-.666 2.418 4.711 1.92 10.725 3.268 16.537 3.164-2.283 4.418-8.443 4.858-12.891 4.07-.66-.115-1.18.19-1.473.639-.021.024-.033.06-.051.09-.154.269-.23.576-.209.869-1.559 10.033.42 21.338 3.318 30.945a55.678 55.678 0 0 1 1.68 7.359c.555 3.504.766 6.999.646 10.489 0 0-2.311 16.681-4.785 21.653-.088.18-.164.34-.229.489-7.533 16.946-23.072 27.371-40.719 32.955-5.93 2.097-13.464 4.169-13.464 4.169-2.987.537-5.567.834-7.804.943-11.934.592-13.865-4.152-14.158-6.111.051-.27.041-.553-.045-.824-1.539-18.936 1.516-39.273 18.395-50.612 11.854-7.963 27.281-9.244 41.164-8.521.396.021.668-.235.793-.557a.673.673 0 0 0 .199-.258c5.979-14.227.34-28.41-3.039-42.418-2.01-8.328-1.271-16.289 6.236-21.369 5.502-3.721 12.771-4.82 19.238-5.338 6.122-.493 24.894-1.084 23.181 8.838z" transform="translate(.2 .15) scale(.9975)"/></g><g id="Front_Arm"><path id="Fill" fill="#96C93D" d="M124.498 92.646c.062 4.371 1.414 11.058 6.52 11.979a.948.948 0 0 1 .461.229c7.467-6.26 16.617-7.53 25.898-4.366-.197-2.49-1.439-4.136-4.188-4.767-.404-.096-.535-.646-.244-.928 1.727-1.667 3.428-2.667 5.666-2.938-1.59-1.877-4.205-2.534-6.584-2.918-.576-.094-.584-.801-.307-1.16.857-1.11 2.004-2.073 3.215-2.888-8.438-1.027-16.312 3.898-20.928 10.895-.197.301-.518.334-.77.224-.047-.009-.092-.002-.146-.021-2.891-.976-3.74-5.112-4.014-7.761-3.777-3.858-5.363 4.002-5.363 4.004.308-.178.778-.049.784.416z" transform="translate(.2 .15) scale(.9975)"/><path id="Outline" fill="#231F20" d="M123.471 92.646c-.32 5.311.826 12.664 6.982 14.02.08.02.148.002.227.002a.629.629 0 0 0 .65-.09c3.021-2.38 6.012-4 9.074-4.951 0 0 2.006-.604 3.301-.765 4.246-.65 8.703-.109 13.631 1.438.723.227 1.137-.428 1.031-.996.002-.021.012-.035.012-.061.062-3.096-1.229-5.268-3.941-6.277 1.543-1.275 3.092-1.959 5.311-1.947.479.002.754-.521.531-.928-1.379-2.496-4.027-3.625-6.701-4.242 1.119-1.069 2.475-1.944 3.832-2.646.703-.244.873-1.396-.023-1.642-3.346-.914-6.822-.727-10.133.246-.332.094-2.838 1.041-2.838 1.041-4.51 2.002-8.459 5.44-10.957 9.5-2.154-.808-3.129-4.235-3.59-6.229a.362.362 0 0 0-.082-.151c-.217-.242-.738-.127-.701.26.271 2.646 1.123 6.785 4.016 7.761.053.019.098.012.145.021.252.11.568.078.771-.224 4.613-6.995 12.486-11.922 20.926-10.895-1.211.813-2.355 1.776-3.213 2.889-.279.358-.271 1.065.305 1.159 2.379.384 4.994 1.041 6.584 2.918-2.238.271-3.938 1.271-5.666 2.939-.291.279-.16.83.244.926 2.746.631 3.988 2.273 4.188 4.767-9.281-3.164-18.438-1.894-25.9 4.366a.983.983 0 0 0-.461-.229c-5.104-.924-6.457-7.607-6.52-11.979-.006-.465-.477-.596-.777-.414a.482.482 0 0 0-.258.413z" transform="translate(.2 .15) scale(.9975)"/></g><g id="Front_Leg"><path id="Fill_2_" fill="#96C93D" d="M65.701 138.923a10.936 10.936 0 0 1 1.562 5.149c-.004.204-.062 2.31-.332 3.929-.334 1.697-.863 3.406-1.438 5.127-1.037 3.109-2.268 6 1.273 7.867 1.836.969 3.783 1.709 5.717 2.463 5.588 2.182 14.693 5.338 17.396 11.527 1.25-2.234.014-4.816-1.562-6.404-.521-.521-.141-1.445.602-1.447 1.932-.006 3.76.197 5.561.729-.779-1.604-2.01-3.099-3.52-3.882-.641-.332-.529-1.448.207-1.586 1.658-.307 3.281-.144 4.928.035-3.021-4.461-11.707-7.235-16.195-8.404a.848.848 0 0 1-.514-.364c-.918-.412-1.484-1.651-.562-2.592 6.52-6.591 15.822-13.046 18.248-22.5 1.402-5.464-.084-11.351-5.547-14.062-5.391-2.676-11.115-2.099-16.697-.396-.363.111-.637-.023-.787-.252-9.211 4.466-8.947 22.293-8.855 24.884a.414.414 0 0 1 .515.179z" transform="translate(.2 .15) scale(.9975)"/><path id="Outline_2_" fill="#231F20" d="M81.861 152.611c4.479-4.235 10.352-9.123 14.24-14.8.727-1.021 2.305-4.006 2.305-4.006 1.453-3.129 2.172-6.479 1.676-10.062-.781-5.668-4.023-9.303-8.287-11.212-5.146-2.312-11.781-2.103-17.367.104-.557.219-.637.844-.387 1.219.15.229.424.361.787.25 5.582-1.697 11.311-2.274 16.697.398 5.463 2.713 6.949 8.6 5.547 14.061-2.426 9.455-11.729 15.91-18.248 22.5-.926.939-.355 2.182.562 2.594a.835.835 0 0 0 .514.363c4.488 1.168 13.176 3.943 16.195 8.404-1.646-.178-3.27-.342-4.928-.035-.736.139-.848 1.254-.207 1.586 1.51.783 2.736 2.273 3.52 3.881-1.801-.527-3.629-.73-5.561-.729-.74.002-1.123.928-.602 1.449 1.574 1.588 2.812 4.17 1.562 6.404-2.701-6.189-11.809-9.348-17.396-11.527-1.934-.754-3.881-1.494-5.717-2.463-3.541-1.867-2.312-4.758-1.273-7.867.572-1.721 1.104-3.43 1.438-5.127.27-1.619.328-3.725.332-3.929a10.982 10.982 0 0 0-1.562-5.149c-.123-.205-.338-.246-.521-.186-.201.07-.359.27-.293.529.021.084.037.166.061.25.299 1.194.355 2.312.438 3.375.178 2.397-1.729 8.192-1.699 8.275-.596 1.908-1.15 3.887-1.314 6.143-.146 2.084 1.002 3.694 2.686 4.862 7.766 5.399 18.137 6.229 24.102 14.181.047.662.867 1.213 1.414.58 2.08-2.402 1.77-5.549.18-8.029 1.699.145 3.336.51 4.953 1.186.617.26 1.203-.479 1.045-1.045-.508-1.805-1.553-3.674-2.955-5.072 1.311.066 2.613.312 3.906.438.562.056 1.074-.627.879-1.151-2.102-5.635-10.87-8.9-16.722-10.643z" transform="translate(.2 .15) scale(.9975)"/></g><g id="R_Eye"><path id="White" fill="#FFF" d="M145.764 2.1c-2.398 0-4.35 2.353-4.35 4.761s1.949 4.771 4.35 4.771c1.229 0 2.338-.625 3.129-1.554a2.066 2.066 0 0 1-1.16.334c-2.775 0-2.775-4.303 0-4.303 1.521 0 2.205 1.298 2.055 2.468.211-.548.33-1.131.33-1.718-.003-2.407-1.952-4.759-4.354-4.759z" transform="translate(.2 .15) scale(.9975)"/><path id="Pupil" fill="#231F20" d="M147.731 6.11c-2.777 0-2.777 4.303 0 4.303.467 0 .85-.13 1.16-.334.518-.34.814-.899.895-1.501.151-1.17-.532-2.468-2.055-2.468z" transform="translate(.2 .15) scale(.9975)"/><path id="Outline_6_" fill="#231F20" d="M150.91 2.69c-1.215-1.624-3.115-2.675-5.262-2.675-3.67 0-6.646 3.062-6.646 6.845 0 3.778 2.979 6.842 6.646 6.842 2.473 0 4.625-1.393 5.77-3.455a6.907 6.907 0 0 0 .877-3.387 6.931 6.931 0 0 0-1.385-4.17zm-2.018 7.389c-.791.929-1.896 1.554-3.129 1.554-2.396 0-4.35-2.363-4.35-4.771s1.947-4.761 4.35-4.761c2.403 0 4.354 2.353 4.354 4.761 0 .587-.119 1.17-.33 1.718-.08.599-.379 1.159-.895 1.499z" transform="translate(.2 .15) scale(.9975)"/></g><g id="L_Eye"><path id="White_1_" fill="#FFF" d="M134.961 2.085c-2.398 0-4.35 2.354-4.35 4.762 0 2.407 1.949 4.771 4.35 4.771 1.229 0 2.336-.625 3.127-1.554a2.06 2.06 0 0 1-1.16.334c-2.773 0-2.773-4.303 0-4.303 1.523 0 2.205 1.298 2.057 2.468.211-.548.33-1.131.33-1.718-.002-2.407-1.952-4.76-4.354-4.76z" transform="translate(.2 .15) scale(.9975)"/><path id="Pupil_1_" fill="#231F20" d="M136.928 6.096c-2.773 0-2.773 4.303 0 4.303.471 0 .854-.13 1.16-.334.521-.34.816-.9.896-1.501.149-1.17-.533-2.468-2.056-2.468z" transform="translate(.2 .15) scale(.9975)"/><path id="Outline_7_" fill="#231F20" d="M140.108 2.676C138.894 1.052 136.993 0 134.845 0c-3.67 0-6.646 3.063-6.646 6.846 0 3.777 2.979 6.842 6.646 6.842 2.475 0 4.625-1.394 5.771-3.455a6.953 6.953 0 0 0 .877-3.387 6.927 6.927 0 0 0-1.385-4.17zm-2.02 7.388c-.791.929-1.896 1.554-3.127 1.554-2.396 0-4.35-2.364-4.35-4.771 0-2.408 1.947-4.762 4.35-4.762 2.403 0 4.354 2.354 4.354 4.762 0 .587-.119 1.17-.33 1.718-.081.599-.379 1.16-.897 1.499z" transform="translate(.2 .15) scale(.9975)"/></g></g></svg>