<svg width="120" height="120" viewBox="0 0 120 120" xmlns="http://www.w3.org/2000/svg" xmlns:xlink="http://www.w3.org/1999/xlink"><defs><path id="a" d="M0 .003h119.875v44.202H0z"/><path id="c" d="M.336.16H102.17v53.806H.336z"/></defs><g fill="none" fill-rule="evenodd"><path d="M15.658 96.819c3.714 4.304 8.75 7.572 13.968 9.975 10.095 4.647 21.2 7.04 32.303 7.046 9.922.005 22.092-.14 31.144-4.64 20.269-10.073 22.262-39.04 1.03-48.606-13.058-5.883-27.821-6.457-42.13-6.147-10.959.238-22.501 1.13-31.603 7.264-7.463 5.03-11.885 14.061-10.443 23.087.749 4.689 2.84 8.67 5.731 12.021" fill="#D48524"/><path d="M103.582 92.007c-3.937 3.217-8.906 4.837-13.77 6.302-13.342 4.009-27.186 7.36-41.077 6.32-9.07-.687-17.892-3.222-26.624-5.763-5.659-1.647-8.405-4.268-11.542-9.484-1.727-2.874-3.104-6.201-2.573-9.516 1.77-11.042 27.947-1.222 35.6-.646 19.074 1.433 38.393-.368 56.853-5.404 1.343-.365 2.748-.753 4.117-.501 1.933.363 3.377 1.941 4.151 3.796.212.486.37.997.475 1.502 1.077 4.98-1.666 10.178-5.61 13.394" fill="#CC6C23"/><path d="M98.296 104.802c-9.052 4.5-21.222 4.644-31.144 4.64-11.102-.007-22.207-2.4-32.302-7.047-5.218-2.402-10.255-5.67-13.969-9.974C17.99 89.068 15.9 85.089 15.15 80.4c-1.118-6.997 1.298-13.987 5.912-19.124-.23.147-.465.282-.691.435-7.464 5.03-11.887 14.06-10.445 23.087.75 4.69 2.84 8.67 5.732 12.02 3.714 4.305 8.751 7.573 13.969 9.975 10.095 4.649 21.2 7.04 32.301 7.047 9.923.005 22.093-.14 31.145-4.639a29.291 29.291 0 0 0 8.389-6.233 29.979 29.979 0 0 1-3.166 1.834" fill="#CC6C23"/><path d="M107.308 83.579c-3.593 3.6-8.373 5.717-13.064 7.67-12.87 5.345-26.304 10.086-40.228 10.466-9.093.24-18.126-1.387-27.07-3.026-8.357-1.529-17.79-4.19-19.401-13.955a15.283 15.283 0 0 1-.186-1.647c-.393-6.36 3.8-8.417 10.124-7.843 9.671.873 19.112 1.976 28.858 1.715 19.12-.515 38.158-4.272 56.016-11.16 1.299-.5 2.657-1.028 4.045-.916 1.96.163 3.555 1.587 4.513 3.354.26.462.467.954.623 1.446 1.574 4.845-.63 10.295-4.23 13.896" fill="#943C1E"/><path d="M97.955 88.267c-12.87 5.346-26.304 10.087-40.228 10.467-9.093.238-18.125-1.387-27.07-3.027-8.357-1.528-17.79-4.19-19.4-13.955a15.176 15.176 0 0 1-.187-1.647c-.113-1.825.163-3.284.748-4.44-2.994.941-4.717 3.252-4.459 7.421.03.522.089 1.066.185 1.648C9.155 94.5 18.59 97.16 26.946 98.69c8.944 1.64 17.977 3.265 27.07 3.026 13.924-.38 27.358-5.12 40.228-10.466 4.685-1.95 9.458-4.065 13.05-7.657-2.885 1.913-6.128 3.339-9.339 4.675" fill="#733010"/><path d="M63.417 95.862c-1.5 0-1.503 2.341 0 2.341 1.5 0 1.502-2.34 0-2.34m14.103-1.269c-.897 0-.898 1.398 0 1.398.895 0 .896-1.398 0-1.398m1.92-5.679l-.119.017c-.637.093-.637 1.2 0 1.292l.12.017c.431.063.866-.179.866-.663 0-.48-.434-.726-.867-.663m-9.838 8.384c-.932 0-.935 1.456 0 1.456.932 0 .934-1.456 0-1.456M42.78 95.892c-.404-.406-1.039-.377-1.446 0-.123.113-.222.24-.298.39a1.002 1.002 0 0 0 1.357 1.362c.148-.076.275-.176.387-.3.374-.407.402-1.048 0-1.452m4.185 2.507c-.492-.493-1.591-.17-1.495.622.012.054.013.11.005.165-.021.367.341.73.705.709a.475.475 0 0 1 .166.005c.339.041.678-.25.8-.54a.886.886 0 0 0-.181-.961M36.68 98.22c-.471-.277-1.143.185-.958.74l.033.096c.092.277.382.482.68.388l.09-.028c.529-.166.651-.905.155-1.197m-13.995-2.908l-.027-.117c-.189-.8-1.423-.8-1.612 0l-.027.117c-.13.546.26 1.098.833 1.098.57 0 .962-.552.833-1.098m61.267-4.733c-.948 0-.95 1.48 0 1.48.948 0 .95-1.48 0-1.48m17.318-5.428c-1.216 0-1.218 1.899 0 1.899 1.217 0 1.219-1.9 0-1.9m2.474-2.608c-.738 0-.74 1.153 0 1.153s.74-1.153 0-1.153m2.475-.861c-.568 0-.568.886 0 .886.567 0 .568-.885 0-.885M92.858 89.73c-.76 0-.762 1.188 0 1.188.761 0 .763-1.188 0-1.188" fill="#DB511F"/><path d="M24.622 69.263c-2.227 1.645-5.376.795-7.876-.39-2.5-1.186-5.143-2.69-7.853-2.138-2.707 9.041-3.598 20.41 1.38 28.856 1.034 1.754 4.338 7.797 6.13 8.381 2.086.68 3.918-1.41 5.476-2.962 2.493-2.48 5.594-4.172 8.899-5.47 3.56-1.4 7.357-2.343 10.882-3.324l26.798-7.456c6.553-1.824 13.204-3.66 20.003-3.658 7.395.004 14.22 1.785 21.035 4.685 1.942.825 4.408 1.662 5.96.226 1.125-1.041 1.153-2.791 1.033-4.323-.661-8.41-2.689-15.78-8.249-22.181-1.084-1.249-2.225-2.539-3.749-3.172-2.032-.843-4.34-.367-6.484.122-8.116 1.848-15.467 4.76-23.448 6.999-16.233 4.552-35.241 9.066-52.01 5.723.207 0 .414.002.62.003" fill="#FBBB3B"/><path d="M30.07 95.875c-4.506 2.317-9.074 4.67-13.737 1.093-3.455-2.65-7.125-7.737-8.257-11.943-.785-2.92-.938-5.968-1.086-8.989-2.605 4.782.742 15.244 3.284 19.556 1.034 1.753 4.337 7.796 6.13 8.38 2.085.68 3.916-1.41 5.475-2.961 2.32-2.31 5.183-3.92 8.191-5.136" fill="#C99630"/><path d="M108.475 74.685c1.06-1.094 2.052-2.292 2.633-3.702.577-1.4.721-2.943.712-4.458-.002-.573-.032-1.17-.302-1.675-.268-.505-.843-.89-1.399-.76-.287.067-.527.257-.758.44A90.736 90.736 0 0 1 91.7 75.516c-.957.452-1.943.901-2.697 1.645-.755.744-1.241 1.861-.944 2.88.837 2.872 8.275 1.494 10.29.917 3.85-1.104 7.347-3.404 10.125-6.273" fill="#DBA334"/><path d="M16.199 86.327c4.155 3.437 10.308 4.462 15.48 5.129 3.131.403 6.371.486 9.462-.254 1.131-.27 8.082-2.67 7.738-4.348.314 1.531 2.328 1.846 3.885 1.818 1.557-.028 3.253-.107 4.43-1.131-2.241-3.007-4.79-6.222-8.44-7.038-1.048-.235-2.132-.252-3.206-.269-4.183-.064-8.427.078-12.599-.155-3.869-.215-7.805-1.568-11.718-1.568-1.576 0-5.58.027-6.428-1.234a5.517 5.517 0 0 1-2.226.443c-.64 2.304.244 4.817 1.73 6.686a12.83 12.83 0 0 0 1.892 1.921" fill="#C99630"/><path d="M114.4 79.274c-.143-1.404-.284-2.928-1.182-4.05-.305-.382-.97-.063-.95.395.074 1.722.98 3.344 1.117 5.106.05.657.213 2.11-.239 2.64-.965 1.139-2.668.614-3.794.08-.32-.151-.595.298-.28.483 1.658.977 4.242 1.977 5.17-.5.466-1.244.29-2.87.158-4.154m-2.409-8.383c-.595 0-1.166.526-1.138 1.144.027.62.5 1.143 1.138 1.143.596 0 1.167-.526 1.14-1.143-.028-.62-.501-1.144-1.14-1.144M29.516 92.39c-2.287.013-4.806 1.468-6.706 2.651-1.96 1.22-4.06 2.746-5.248 4.764-.137.234.144.538.381.382 1.915-1.247 3.546-2.835 5.561-3.953 2.03-1.126 4.352-1.517 6.342-2.618.573-.317.31-1.23-.33-1.226m3.717-.848c-.82 0-1.005 1.033-.395 1.465l.102.072c.155.11.43.11.585 0l.103-.072c.608-.43.425-1.465-.395-1.465" fill="#FEC"/><path d="M14.044 80.1c5.227 7.864 12.847 8.411 19.799 8.125 2.724-.112 5.518-.278 8.16-1.527 1.802-.852 4.837-2.285 6.007-4.911 3.478-7.812-5.403-10.22-7.845-11.348-5.854-2.703-11.936-3.945-17.995-3.69-4.62.196-15.577 2.14-8.126 13.35" fill="#F55218"/><path d="M14.044 75.209c5.227 7.865 12.847 8.412 19.799 8.126 4.162-.171 8.528-.6 12.075-4.339.798-.841 1.58-1.933 1.868-3.462.365-1.941-.187-4.118-1.066-5.492-.879-1.374-2.028-2.103-3.157-2.745-6.877-3.909-14.152-5.743-21.393-5.437-4.62.195-15.577 2.139-8.126 13.349" fill="#F56F40"/><path d="M27.937 82.369c4.385 1.183 9.063 1.503 13.473.415.154-.038.319-.084.418-.208.272-.342-.178-.788-.567-.983a49.06 49.06 0 0 0-14.375-4.613 49.146 49.146 0 0 0-7.753-.6c-.65.001-2.503-.239-2.438.903.042.732 2.316 1.523 2.913 1.823 2.668 1.34 5.443 2.485 8.329 3.263" fill="#CF5930"/><path d="M47.903 83.319c5.866 7.397 13.504 7.301 20.408 6.432 2.705-.342 5.474-.742 8.003-2.21 1.725-1 4.63-2.682 5.576-5.398 2.815-8.077-6.236-9.73-8.763-10.648-6.059-2.201-12.223-2.926-18.24-2.162-4.586.583-15.343 3.442-6.984 13.986" fill="#F55218"/><path d="M47.495 78.446c5.866 7.397 13.504 7.301 20.408 6.432 4.133-.522 8.448-1.315 11.67-5.34.725-.905 1.414-2.06 1.573-3.607.202-1.965-.53-4.088-1.52-5.383s-2.197-1.925-3.375-2.469c-7.179-3.318-14.581-4.533-21.772-3.62-4.586.584-15.343 3.443-6.984 13.987" fill="#F56F40"/><path d="M66.45 84.022a70.122 70.122 0 0 0 11.567-3.565c.879-.357 1.766-.742 2.476-1.372.71-.63 1.222-1.556 1.132-2.503-1.196-.09-2.394.117-3.575.329a334.201 334.201 0 0 0-19.955 4.21c-.894.216-3.094.332-3.725 1.008-1.78 1.906 2.436 2.54 3.414 2.637 2.9.288 5.834-.133 8.665-.744" fill="#CF5930"/><path d="M85.581 79.669c8.611 3.825 15.336.185 21.052-3.8 2.24-1.56 4.51-3.204 6.073-5.681 1.067-1.69 2.865-4.533 2.45-7.38-1.232-8.467-10.015-5.719-12.679-5.356-6.384.869-12.18 3.095-17.16 6.573-3.795 2.65-12.009 10.19.264 15.644" fill="#F55218"/><path d="M82.971 75.54c8.611 3.826 15.336.185 21.052-3.798 3.422-2.386 6.88-5.097 7.878-10.163.225-1.14.302-2.484-.271-3.93-.727-1.834-2.355-3.375-3.83-4.062-1.475-.686-2.835-.683-4.13-.616-7.892.4-15.013 2.769-20.963 6.925-3.795 2.651-12.008 10.191.264 15.644" fill="#F56F40"/><path d="M90.538 76.132c5.652-1.916 10.737-5.218 15.496-8.832 1.428-1.084 2.848-2.214 3.952-3.63 1.103-1.417 1.875-3.162 1.824-4.96-.02-.72-.35-1.604-1.066-1.644-.429-.024-.798.28-1.124.56-4.175 3.595-9.01 6.278-13.734 9.059-2.43 1.432-4.85 2.89-7.152 4.527-.937.665-5.859 3.741-5.605 4.976.377 1.838 6.513.248 7.409-.056" fill="#CF5930"/><path d="M107.308 65.456c-3.593 3.6-8.373 5.717-13.064 7.67-12.87 5.345-26.304 10.086-40.228 10.467-9.093.238-18.126-1.387-27.07-3.027-8.357-1.529-17.79-4.19-19.401-13.955a15.283 15.283 0 0 1-.186-1.647c-.393-6.36 3.8-8.417 10.124-7.843 9.671.873 19.112 1.976 28.858 1.715 19.12-.514 38.158-4.272 56.016-11.16 1.299-.5 2.657-1.028 4.045-.916 1.96.163 3.555 1.587 4.513 3.354.26.462.467.954.623 1.446 1.574 4.845-.63 10.295-4.23 13.896" fill="#943C1E"/><path d="M97.955 70.145C85.085 75.489 71.651 80.23 57.727 80.61c-9.093.238-18.125-1.387-27.07-3.027-8.357-1.528-17.79-4.19-19.4-13.955a15.162 15.162 0 0 1-.187-1.648c-.113-1.824.163-3.283.748-4.44-2.994.943-4.717 3.253-4.459 7.423.03.521.089 1.066.185 1.647 1.611 9.765 11.045 12.427 19.402 13.955 8.944 1.64 17.977 3.265 27.07 3.026 13.924-.38 27.358-5.121 40.228-10.466 4.685-1.95 9.458-4.065 13.05-7.657-2.885 1.913-6.128 3.339-9.339 4.676" fill="#733010"/><path d="M63.417 77.74c-1.5 0-1.503 2.34 0 2.34 1.5 0 1.502-2.34 0-2.34m14.103-1.269c-.897 0-.898 1.398 0 1.398.895 0 .896-1.398 0-1.398m1.92-5.679l-.119.017c-.637.092-.637 1.2 0 1.292l.12.017c.431.063.866-.179.866-.663 0-.48-.434-.726-.867-.663m-9.838 8.384c-.932 0-.935 1.456 0 1.456.932 0 .934-1.456 0-1.456M42.78 77.77c-.404-.407-1.039-.378-1.446 0-.123.112-.222.24-.298.388a1.002 1.002 0 0 0 1.357 1.363c.148-.076.275-.176.387-.3.374-.407.402-1.048 0-1.452m4.185 2.507c-.492-.493-1.591-.17-1.495.622.012.054.013.11.005.165-.021.367.341.73.705.708a.475.475 0 0 1 .166.006c.339.041.678-.25.8-.54a.886.886 0 0 0-.181-.961m-10.285-.179c-.471-.277-1.143.184-.958.739l.033.097c.092.277.382.483.68.389l.09-.029c.529-.166.651-.905.155-1.196m-13.995-2.909l-.027-.117c-.189-.8-1.423-.8-1.612 0l-.027.117c-.13.546.26 1.098.833 1.098.57 0 .962-.552.833-1.098m61.267-4.733c-.948 0-.95 1.479 0 1.479.948 0 .95-1.48 0-1.48m17.318-5.427c-1.216 0-1.218 1.899 0 1.899 1.217 0 1.219-1.899 0-1.899m2.474-2.609c-.738 0-.74 1.153 0 1.153s.74-1.153 0-1.153m2.475-.86c-.568 0-.568.885 0 .885.567 0 .568-.885 0-.885m-13.361 8.049c-.76 0-.762 1.188 0 1.188.761 0 .763-1.188 0-1.188" fill="#DB511F"/><path d="M106.018 55.525c1.24.64 2.138 2.191 1.9 3.638-.356 2.139-2.457 3.637-4.594 3.995-2.13.365-4.298-.171-6.398-.7.467 4.346-2.88 8.751-7.177 9.46-4.29.7-8.863-2.409-9.798-6.68-.112 2.564-3.303 4.428-5.574 3.25 2.798 2.497-.29 7.619-4.023 7.864-3.733.24-6.97-2.384-9.79-4.86 2.048 3.93-2.04 9.088-6.442 8.849-4.238-.239-7.564-4.28-8.105-8.52.096 2.094-1.982 4.002-4.134 4.04-2.309.03-4.387-1.633-5.493-3.675 1.276 3.898-2.294 8.528-6.376 8.26-4.075-.277-7.014-5.33-5.24-9.028-2.271 3.816-6.85 6.724-11.082 5.405-3.903-1.216-5.618-7.135-2.813-9.729a7.7 7.7 0 0 1-2.642 1.03c-.393-6.36 3.8-8.417 10.124-7.843 9.671.872 19.112 1.975 28.858 1.714 19.12-.514 38.158-4.271 56.016-11.16 1.299-.499 2.657-1.028 4.045-.916 1.96.164 3.555 1.588 4.513 3.354a2.58 2.58 0 0 1-.616.88c-1.351 1.252-3.259 1.469-5.159 1.372" fill="#733010"/><g transform="translate(0 34.014)"><mask id="b" fill="#fff"><use xlink:href="#a"/></mask><path d="M111.942 12.584c2.287-.232 3.231 3.677 1.46 5.317-1.354 1.254-3.258 1.473-5.155 1.38 1.243.637 2.135 2.184 1.897 3.631-.357 2.138-2.458 3.638-4.587 3.996-2.134.359-4.309-.172-6.404-.704.463 4.348-2.882 8.756-7.177 9.46-4.297.703-8.863-2.41-9.795-6.678-.112 2.569-3.305 4.434-5.578 3.252 2.795 2.496-.291 7.614-4.025 7.86-3.728.245-6.973-2.384-9.788-4.852 2.048 3.922-2.036 9.087-6.445 8.84-4.196-.231-7.494-4.18-8.089-8.376 0 2.038-2.042 3.87-4.144 3.896-2.313.034-4.388-1.632-5.492-3.67 1.276 3.903-2.3 8.53-6.378 8.257-4.078-.272-7.012-5.323-5.241-9.027-2.274 3.823-6.854 6.724-11.084 5.403-3.9-1.208-5.61-7.122-2.822-9.718-4.389 2.735-11.348.564-12.736-4.52-1.738-6.386 3.14-8.556 7.958-8.975a22.548 22.548 0 0 1 4.25.027c8.453.856 16.925 1.095 25.412.584 16.734-1.023 33.31-4.793 48.821-11.205C93.522 3.975 100.416.65 107.54.084a24.89 24.89 0 0 1 4.653.06c3.516.386 7.56 2.396 7.68 5.941.125 3.77-4.19 5.955-7.931 6.499" fill="#39B54A" mask="url(#b)"/></g><path d="M61.996 72.428c-4.248-.234-7.566-4.279-8.103-8.529.101 2.1-1.98 4.02-4.133 4.05-2.311.03-4.388-1.632-5.492-3.672 1.008 3.085-1.02 6.614-3.928 7.825 1.064.93 2.372 1.538 3.771 1.52 2.152-.03 4.234-1.95 4.134-4.05.536 4.25 3.855 8.295 8.102 8.53 3.3.182 6.424-2.672 6.92-5.764a5.59 5.59 0 0 1-1.27.09m55.395-31.474c.942-.185 1.673.315 2.114 1.092a4.516 4.516 0 0 0 .354-1.646c-.82.26-1.659.449-2.468.554M37.891 72.533c-4.079-.27-7.016-5.326-5.242-9.025-2.273 3.82-6.852 6.723-11.084 5.405-3.929-1.224-5.633-7.21-2.747-9.774-4.393 2.805-11.416.647-12.808-4.466-.292-1.074-.394-2.027-.345-2.874-3.751.943-6.718 3.347-5.303 8.547 1.392 5.113 8.415 7.271 12.807 4.466-2.885 2.563-1.181 8.55 2.748 9.774C20.148 75.905 24.727 73 27 69.18c-1.774 3.7 1.164 8.756 5.243 9.026 3.203.212 6.083-2.597 6.56-5.702a5.14 5.14 0 0 1-.912.028m30.549-8.946c1.473 2.82-.23 6.27-2.937 7.902 2.138 1.583 4.49 2.795 7.078 2.625 2.817-.185 5.263-3.149 5.09-5.663-3.497-.034-6.556-2.516-9.23-4.864m36.362-9.041c.246 2.308-.588 4.627-2.062 6.407.939.11 1.88.13 2.813-.027 2.133-.358 4.234-1.858 4.592-4a3.179 3.179 0 0 0-.152-1.568c-1.74.044-3.49-.38-5.191-.812m-7.177 9.46c-4.295.703-8.863-2.409-9.8-6.677-.108 2.565-3.303 4.429-5.576 3.253 1.28 1.14 1.32 2.826.64 4.347 1.674 3.228 5.473 5.342 9.087 4.75 3.118-.511 5.726-2.977 6.75-5.95a7.8 7.8 0 0 1-1.1.277" fill="#279135"/><path d="M107.342 45.98c-2.234 3.83-6.669 5.702-10.853 7.142-15.683 5.423-32.192 8.418-48.775 8.928-10.476.326-27.104 1.507-35.769-5.967-1.639-1.414-2.828-3.007-3.628-4.713 1.487-.14 2.967-.1 4.25.026 8.453.857 16.925 1.096 25.412.585 16.734-1.022 33.31-4.793 48.821-11.205 6.722-2.788 13.616-6.113 20.74-6.678 1.5 3.957 1.883 8.317-.198 11.882" fill="#279135"/><g transform="translate(7.273 6.362)"><mask id="d" fill="#fff"><use xlink:href="#c"/></mask><path d="M89.88 44.772c4.18-1.445 8.614-3.313 10.848-7.145 2.775-4.76 1.165-10.928-1.623-15.68C89.385 5.38 68.067-.68 48.942.253 34.185.973 18.368 5.36 8.516 17.135 1.694 25.287-4.237 39.482 5.332 47.73c8.664 7.472 25.294 6.294 35.772 5.97 16.579-.515 33.088-3.508 48.775-8.929" fill="#D48524" mask="url(#d)"/></g><path d="M59.263 54.595c-10.478.325-27.108 1.502-35.773-5.968-9.568-8.25-3.637-22.445 3.185-30.598 2.42-2.892 5.201-5.336 8.237-7.391-7.323 2.652-14.023 6.763-19.123 12.858-6.822 8.153-12.753 22.347-3.185 30.597 8.665 7.471 25.295 6.294 35.772 5.969 16.58-.514 33.089-3.508 48.776-8.928 3.241-1.12 6.63-2.5 9.032-4.846-15.132 5.025-30.993 7.813-46.921 8.307" fill="#CC6C23"/><path d="M94.366 61.445c-.382 1.838-1.084 3.87-3.139 4.32-2.486.545-4.537-1.147-5.395-3.353-.124-.319-.548-.193-.503.14.898 6.661 11.313 5.712 11.412-.784.02-1.342-2.091-1.686-2.375-.323m19.564-25.833c-.938-.05-1.548 1.308-.8 1.94.994.836 3.835 1.653 2.498 3.349-1.26 1.598-3.328 1.395-4.957 2.24-.32.167-.417.495-.354.8a.51.51 0 0 0 .044.596c.734.827 1.474 1.809 1.85 2.827-.4.128-.726.457-.688.955.231 3.086-3.76 2.601-5.738 2.52-.677-.03-.687.876-.148 1.098.625.256 1.277.473 1.936.62a.976.976 0 0 0-.055.725c.134.451.539.76 1.006.77 2.792.062 5.515-1.82 5.908-4.712.207-1.522-.25-3.239-1.254-4.365 2.159-.27 4.486-1.917 5.186-3.626 1.16-2.833-1.726-5.59-4.434-5.737" fill="#4ED962"/><path d="M109.071 54.965c-.431-1.015-1.725-.33-1.827.497-.205 1.69-.444 3.488-2.338 4.087-1.747.553-3.184-.6-4.457-1.615-.465-.37-1.044-.024-.96.562.005.032.016.062.022.095a1.135 1.135 0 0 0-.533 1.201c.732 4.018-2.26 6.445-5.556 7.788-.572.233-.79 1.271 0 1.398 4.434.714 7.639-3.886 7.825-7.992 1.365.817 3.237.988 4.634.482 2.48-.896 4.263-3.98 3.19-6.503" fill="#4ED962"/><path d="M46.769 18.51c-.264-.644-1.212-1.167-1.767-.468-.897 1.13-.727 2.7-.335 4.013.17.568.912.646 1.224.16.635-.986 1.36-2.527.878-3.704m22.933 7.372a3.447 3.447 0 0 1-.976-2.135c-.06-.831-1.132-.967-1.418-.193-.5 1.35-.08 2.802.942 3.787.954.919 2.388-.516 1.452-1.459M32.329 40.321c-.752.124-1.121.956-1.307 1.616-.17.604-.136 1.15-.048 1.754.043.302.398.52.68.52.33 0 .564-.226.678-.52.133-.342.387-.723.617-1.012.348-.437.69-.735.702-1.346.015-.74-.675-1.118-1.322-1.012m61.116-13.029c-.62-.367-1.246-.892-1.343-1.674-.038-.297-.198-.54-.514-.583-.27-.037-.594.134-.649.425-.128.689-.1 1.36.306 1.965.377.563.946 1.1 1.63 1.226.793.145 1.333-.91.57-1.36m-9.931 13.036c-.729-.77-1.433-1.45-1.982-2.372-.349-.585-1.168-.299-1.216.33-.1 1.336.419 2.902 1.472 3.775 1.193.99 2.828-.568 1.726-1.733m-25.046.613c-.291-.606-1.403-.339-1.312.358.192 1.476.242 3.633 1.709 4.42.187.1.44.051.547-.145.8-1.465-.296-3.284-.944-4.632M22.594 27.688c-.096-.535-.688-.728-1.147-.654-.999.16-1.507 1.56-1.822 2.397-.22.586-.652 2.124.435 2.178.91.046 1.22-.91 1.617-1.57.46-.762 1.086-1.416.917-2.35" fill="#FFCF85"/><path d="M60.975 43.779c-.228-.38-.906-.46-1.111 0-.279.623-.063 2.028-.91 2.293-1.164.365-1.304-1.917-1.46-2.566-.12-.496-.892-.504-1.007 0-.223.982-.216 1.991.34 2.875.464.74 1.28 1.257 2.168 1.174.81-.075 1.441-.645 1.788-1.359.327-.674.603-1.733.192-2.417m-27.249-.669c-.245-.242-.579-.253-.874-.114-.451.214-.458.732-.812 1.038-.243.212-.64.35-.956.23-.73-.28-.56-1.454-.387-2.026.1-.33-.24-.697-.577-.58-1.879.647-1.318 3.342.178 4.101.816.413 1.837.301 2.593-.196.713-.47 1.631-1.668.835-2.453M21.792 29.817c-.508.662-.742 1.6-1.622 1.896-.775.26-1.645-.33-1.765-1.119-.04-.263-.483-.326-.588-.077-.557 1.323.55 2.57 1.887 2.682 1.544.13 3.167-1.357 3.32-2.869.061-.594-.856-1-1.232-.513m24.88-8.029c-.359.892-1.278 1.517-2.16.799-.799-.65-.583-1.908-.69-2.814-.055-.453-.616-.541-.787-.107-.603 1.538-.344 3.573 1.318 4.292 1.408.609 3.317-.211 3.541-1.832.113-.81-.913-1.108-1.222-.338M71.26 25.96c-.128-.346-.367-.513-.723-.553-.686-.078-.735.69-.69 1.157.046.484-.072.993-.43 1.342-.813.795-2.01-.305-1.769-1.258.088-.344-.34-.603-.596-.348-1.302 1.296.177 3.351 1.754 3.382 1.75.035 3.04-2.14 2.454-3.723m13.184 13.163c-.415-.147-.997.25-.938.717.101.799.713 1.956-.137 2.573-.954.692-2.037-.455-2.494-1.213-.17-.282-.565-.205-.668.088-.733 2.097 2.231 3.4 3.835 2.565 1.568-.816 2.52-3.98.402-4.73M94.91 26.393c-.453-.128-.856.226-.879.672-.018.36.197.653.13 1.01a1.068 1.068 0 0 1-.588.751c-.932.412-1.81-.623-2.327-1.246-.33-.399-.886.04-.8.467.339 1.665 2.382 3.012 3.986 2.124 1.106-.612 2.297-3.266.477-3.778" fill="#CC6C23"/><path d="M111.808 67.422c-.714 1.385-1.599 2.65-2.703 3.751-1.127 1.125-2.431 1.865-3.73 2.748-.312.213-.129.786.274.65 3.031-1.033 5.547-3.888 7.03-6.638.31-.575-.573-1.09-.87-.511m2.594-2.531a.503.503 0 0 0-.917-.12l-.055.115c-.202.424.204.833.627.63l.115-.055c.185-.09.3-.374.23-.57M76.628 84.885c-1.667.569-3.13 1.56-4.856 2.033-1.908.523-3.849.588-5.81.686-.38.019-.503.61-.095.698 3.43.742 8.634-.091 11.156-2.736.267-.279.004-.817-.395-.681m2.499-1.858c-.694 0-.695 1.083 0 1.083.694 0 .695-1.083 0-1.083M39.622 84.55c-1.638-.19-3.205.51-4.796.841-2.15.448-3.95.333-6.094-.133-.236-.051-.356.248-.16.384 1.442 1.007 3.242 1.032 4.942.83 2.002-.238 4.39-.656 6.213-1.531.208-.1.076-.37-.105-.39" fill="#FEC"/></g></svg>