<svg width="120" height="120" viewBox="0 0 120 120" xmlns="http://www.w3.org/2000/svg" xmlns:xlink="http://www.w3.org/1999/xlink"><defs><path id="a" d="M0 .025h24.196v61.878H0z"/><path id="c" d="M.237.153h75.217V47.19H.237z"/><path id="e" d="M.125.26h24.93v34.196H.126z"/><path id="g" d="M.188.26h24.93v34.196H.188z"/></defs><g fill="none" fill-rule="evenodd"><g transform="translate(0 15.651)"><mask id="b" fill="#fff"><use xlink:href="#a"/></mask><path d="M24.196 60.056c-4.246-.922-7.882-4.253-9.172-8.403-1.115-3.587-.546-7.453.033-11.164l1.995-12.795c1.231-7.889 2.278-16.659-2.24-23.241-1.247-1.816-2.945-3.408-5.04-4.087C7.01-.53 3.758.386 1.846 2.573-.064 4.759-.542 8.084.65 10.733c1.027 2.285 3.081 3.921 4.543 5.956 2.891 4.025 3.277 9.326 2.898 14.267-.379 4.941-1.417 9.874-.972 14.81a24.934 24.934 0 0 0 4.195 11.724c1.55 2.278 3.828 4.452 6.584 4.412l6.3-1.846z" fill="#231F20" mask="url(#b)"/></g><path d="M29.01 98.85c7.663 7.335-5.605 17.107 11.561 16.364 2.171-4.2-1.873-4.657-2.659-8.116-.664-2.925.89-8.464 2.074-10.992L29.01 98.85z" fill="#836253"/><g transform="translate(9.708 72.55)"><mask id="d" fill="#fff"><use xlink:href="#c"/></mask><path d="M75.432 43.974c-.11-.643-.597-1.142-.995-1.659-1.992-2.587-1.224-4.393-.564-7.085.759-3.095.626-6.66.728-9.833.223-6.945-.06-13.907-.849-20.811-.164-1.44-2.977-1.541-4.373-1.93-6.662-1.852-15.506-.482-22.39-1.144C37.774.625 28.508-.262 19.27.362 12.348.829 6.112 2.409 2.56 8.703-.708 14.491.22 25.2.905 31.613c.29 2.71.527 7.388 2.163 9.67 1.546 2.157 4.455 1.642 7.081 1.843.356.027.726.053 1.06-.073 1.324-.499.861-2.453.3-3.752-1.493-3.447-1.545-8.221 1.663-10.177 1.4-.853 3.113-.96 4.75-1.044 9.185-.472 18.43-1.261 27.659-1.399.138 1.767.212 3.538.213 5.31.001 2.81-.26 5.85-2.109 7.965-.723.828-1.7 1.543-1.933 2.617-.302 1.4.893 2.77 2.263 3.185 1.37.416 2.843.131 4.246-.156 1.511-.309 3.186-.727 4.01-2.03.366-.576.514-1.262.622-1.936.716-4.468-.053-9.05.381-13.553.043-.448.1-.894.166-1.339 2.818.095 5.631.276 8.44.572.734.078 1.532.195 2.037.733.501.533.571 1.328.615 2.06.353 5.899-.932 12.266 4.04 16.152.429.334.87.676 1.391.83.816.244 1.689-.005 2.504-.253.722-.22 1.462-.448 2.06-.909.597-.46 1.032-1.211.905-1.955" fill="#9A8479" mask="url(#d)"/></g><g transform="translate(32.63 .01)"><mask id="f" fill="#fff"><use xlink:href="#e"/></mask><path d="M25.056 18.743c-.26-2.347-1.97-4.245-3.657-5.897A89.82 89.82 0 0 0 5.185.259c-5.376 10.572-7.24 23.684-1.75 34.197l21.62-15.713z" fill="#231F20" mask="url(#f)"/></g><path d="M86.68 74.66c.302.893-.246 1.84-.84 2.572-2.438 3.007-6.028 4.945-9.791 5.857-3.763.911-7.703.857-11.545.386-2.866-.352-5.773-.958-8.228-2.478-2.454-1.52-4.402-4.103-4.51-6.988-.046-1.199.249-2.449 1.025-3.364.633-.748 1.532-1.217 2.437-1.593 4.367-1.813 9.32-1.827 13.946-.846 4.626.982 8.993 2.904 13.285 4.89l4.221 1.564z" fill="#231F20"/><g transform="translate(88.45 .01)"><mask id="h" fill="#fff"><use xlink:href="#g"/></mask><path d="M.188 18.743c.259-2.347 1.968-4.245 3.656-5.897A89.813 89.813 0 0 1 20.058.259c5.376 10.572 7.24 23.684 1.75 34.197L.188 18.743z" fill="#231F20" mask="url(#h)"/></g><path d="M54.308 77.7c-2.812-1.044-5.55-2.464-8.295-4.322C34.72 65.73 30.357 52.14 34.023 39.003c3.983-14.274 17.034-26.7 32.247-28.152 10.853-1.035 22.238.599 31.49 6.369 9.25 5.77 15.997 16.087 15.804 26.988-.189 10.634-5.248 20.69-13.905 26.79-9.034 6.367-18.931 8.99-29.956 9.114-5.61.063-10.609-.632-15.395-2.411" fill="#9A8479"/><path d="M53.618 25.13c-.155-.074-.137-.047.056.08a.72.72 0 0 1 .244.228c.2.216.34.467.434.745.132.393.19.813.244 1.222.168 1.246-.352 2.526-1.477 3.157-1.083.607-2.506.066-2.839-1.155-.26-.954-.064-1.956.471-2.776.147-.225.288-.45.426-.68.122-.203.235-.4.415-.567.05-.046.446-.416.3-.254.412-.458 1.32-.49 1.726 0m44.015.455c.426.427.604.913.823 1.464.147.37.387.647.64.985.96 1.282-.217 3.076-1.604 3.262-1.48.199-2.888-1.227-2.407-2.738.16-.506.214-.581.235-1.085.025-.602.08-1.081.342-1.634.353-.74 1.438-.786 1.97-.254M77.205 36.27c-.182-3.21-3.564-4.95-6.488-4.23-1.42.352-2.75 1.395-3.113 2.861-.446 1.803.643 3.395 2.26 4.077.38.16.788.258 1.203.305.842.401 1.791.66 2.649.607 1.883-.115 3.602-1.621 3.489-3.62" fill="#231F20"/><path d="M72.74 45.338s2.254 9.826-2.55 10.067c0 0-5.621.057-2.32-10.82l4.344-.808.527 1.561z" fill="#F16F7A"/><path d="M77.44 43.433c1.4 2.471-2.518 3.946-4.375 2.946-3.24-1.743-2.867-6.27-1.344-9.032.75-1.357 3.048-.442 2.541 1.071-.565 1.685-1.769 3.566-.733 5.33.925 1.574 2.63.979 3.471-.315.102-.156.341-.172.44 0" fill="#231F20"/><path d="M63.48 43.406c2.349.21 4.338.759 5.928-1.42 1.047-1.433 1.322-3.462 2.59-4.66.53-.502 1.608-.35 1.756.464.426 2.336-1.66 5.483-3.514 6.841-2.294 1.681-4.936 1.136-7.047-.53-.27-.215-.05-.725.288-.695m-20.296-1.703c-2.664.137-5.37-.257-8.047-.187-2.714.07-5.393.828-8.09.849-2.18.017-2.818-3.618-.532-3.93 2.85-.386 5.783.191 8.622.515 2.706.308 5.661.53 8.213 1.521.647.25.572 1.194-.166 1.232m.179 5.344c-1.314.471-2.76.557-4.137.786-1.277.212-2.53.526-3.802.753-2.612.463-5.253.863-7.899 1.058-1.999.147-2.476-3.164-.478-3.53a43.941 43.941 0 0 1 8.304-.707c2.539.025 5.55-.135 8.012.496.602.154.524.956 0 1.144m59.631-7.279c2.32-1.612 5.458-1.761 8.197-1.759 2.403.002 6.247-.28 8.065 1.548.666.671.268 1.61-.51 1.927-1.14.466-2.294.163-3.481-.014a39.567 39.567 0 0 0-4.422-.412c-2.563-.092-5.242.233-7.74-.453-.402-.11-.422-.619-.109-.837m.639 4.25c2.283-.718 4.926.01 7.204.511 2.681.59 5.242 1.47 7.8 2.452 2.412.926.826 4.502-1.358 3.222-2.249-1.318-4.655-2.374-7.117-3.224-2.184-.753-4.66-1.009-6.622-2.248a.395.395 0 0 1 .093-.713" fill="#231F20"/><path d="M69.449 90.33c-2.787-.045-7.165-3.148-4.351-7.07.407-.568 1.006-.882 1.605-1.081 2.958-.98 5.456-.534 6.83 3.011.182.47.34.972.328 1.49-.014.599-.255 1.16-.564 1.626a4.52 4.52 0 0 1-3.848 2.024" fill="#EDE83A"/><path d="M70.529 85.967c-.293-.105-.59-.19-.887-.271-.037-.498-.117-.985-.306-1.402-.1-.22-.452-.202-.556 0-.171.328-.273.709-.338 1.106l-.023-.005c-.745-.177-.902.97-.14 1.032l.056.005c-.022.318-.038.63-.065.915-.085.905 1.462.927 1.424 0-.011-.26-.013-.538-.018-.823.258.01.516.017.776.01.337-.011.377-.46.077-.567" fill="#F7983D"/></g></svg>