<svg width="120" height="120" viewBox="0 0 120 120" xmlns="http://www.w3.org/2000/svg"><g fill="none" fill-rule="evenodd"><path d="M0 0h120v120H0z"/><path d="M13.2 103.92a36.26 36.26 0 0 1-1.61-16A63 63 0 0 1 30 51.5l26.51-26.32 5 4.2c21 17.59 35.51 39.88 41.86 64a31.25 31.25 0 0 1 .71 12.26l-90.88-1.72z" fill="#BF2720" fill-rule="nonzero"/><path d="M106.3 114.05L14 112.34c-4.18-.08-7.64-3-7.74-6.62-.1-3.58 3.21-6.41 7.39-6.34L106 101.1c4.18.08 7.64 3 7.74 6.62.05 3.57-3.26 6.41-7.44 6.33zM72.47 32C67.81 38.37 58.2 38.85 51 33.08c-7.2-5.77-9.24-15.63-4.58-22C51.08 4.71 60.7 4.2 67.9 10c7.2 5.8 9.24 15.61 4.57 22z" fill="#FFF" fill-rule="nonzero"/></g></svg>