<svg width="120" height="120" viewBox="0 0 120 120" xmlns="http://www.w3.org/2000/svg"><g fill="none" fill-rule="evenodd"><path d="M0 0h120v120H0z"/><path fill="#ACC953" fill-rule="nonzero" d="M10.16 60.35l-2.11-1.4-2.1-22.47 13.66-1-5.94 24.87 1.53 4.03zm78.62 2.81h21.76V49.82l3.51-16.15A21 21 0 0 1 90.7 42l-1.92-.58v21.74z"/><path d="M14.37 47a5.35 5.35 0 0 1-4.21-5.62m1.4 9.84s-3.51-1.4-3.51-9.83M104.23 47a5.35 5.35 0 0 0 4.21-5.62" fill="#87B828" fill-rule="nonzero"/><path d="M108.44 53.68c0 13.95-22.16 25.25-49.49 25.25-27.33 0-49.49-11.3-49.49-25.25s9.12-26.28 49.49-22.44c40.37 3.84 49.49 8.5 49.49 22.44z" fill="#FFF" fill-rule="nonzero"/><path d="M82.81 74.74L62.46 95.09 42.11 74.74l5.28-3.09A48.24 48.24 0 0 0 67 49.82l3.75 6.84a126.08 126.08 0 0 0 12 18.08h.06z" fill="#87B828" fill-rule="nonzero"/><path d="M7.35 75.44c0 12.6 23.1 22.82 51.6 22.82s51.6-10.21 51.6-22.82V52.28c0 12.6-23.1 22.82-51.6 22.82S7.35 64.88 7.35 52.28v23.16z" fill="#BF8B61" fill-rule="nonzero"/><path d="M65.62 60.35a19 19 0 0 1-10.53 11.94m10.53 0s4.21-4.21 2.11-11.93M74 69.48s.7-2.11-3.51-7.72" fill="#ACC953" fill-rule="nonzero"/><path d="M107 51.22s3.51-1.4 3.51-9.83" fill="#87B828" fill-rule="nonzero"/><ellipse fill="#FFF" fill-rule="nonzero" cx="55.79" cy="28.76" rx="6.32" ry="7.02"/><ellipse fill="#FFF" fill-rule="nonzero" cx="64.21" cy="28.76" rx="4.21" ry="7.02"/><ellipse fill="#FFF" fill-rule="nonzero" cx="69.83" cy="32.27" rx="4.21" ry="7.02"/><ellipse fill="#FFF" fill-rule="nonzero" transform="rotate(-55.993 74.897 30.923)" cx="74.897" cy="30.923" rx="7.029" ry="4.215"/><path d="M64.55 34.51c-.08.41-.14.82-.25 1.23a6.36 6.36 0 0 1-.49 1.21 4.87 4.87 0 0 1-1.84 2 5.94 5.94 0 0 1-2.5.82 8 8 0 0 1-2.54-.14l1.24-.63a19.38 19.38 0 0 1-1 2.52c-.2.41-.39.82-.62 1.22l-.74 1.17a17.76 17.76 0 0 1-3.82 4 21.38 21.38 0 0 1-10.2 3.91 35.78 35.78 0 0 1-10.65-.3A45.75 45.75 0 0 1 21 48.7a1.058 1.058 0 0 1 .69-2 63 63 0 0 0 9.79 1.94 39.85 39.85 0 0 0 9.81 0 20.72 20.72 0 0 0 8.83-3.22 18.63 18.63 0 0 0 6-7.22l.1-.19a.91.91 0 0 1 1.14-.44 6.06 6.06 0 0 0 1.81.09 3.84 3.84 0 0 0 1.62-.52A2.76 2.76 0 0 0 62 36a4.27 4.27 0 0 0 .33-.81c.08-.29.12-.61.19-.91v-.17a1.048 1.048 0 1 1 2.05.44l-.02-.04z" fill="#F9D5CC" fill-rule="nonzero"/><path d="M69.78 31.72c.1.41.23.8.3 1.22.072.433.099.872.08 1.31a4.87 4.87 0 0 1-.8 2.59 5.94 5.94 0 0 1-1.9 1.82 8 8 0 0 1-2.35 1l.89-1.15c.126.894.19 1.797.19 2.7v1.37L66 44a17.75 17.75 0 0 1-1.7 5.29 21.38 21.38 0 0 1-7.5 7.94 35.78 35.78 0 0 1-9.8 4.3 45.75 45.75 0 0 1-10.36 1.83 1.052 1.052 0 1 1-.24-2.09h.05a63 63 0 0 0 9.67-2.49A39.86 39.86 0 0 0 55 54.51a20.72 20.72 0 0 0 6.56-6.73 18.63 18.63 0 0 0 2.3-9.11v-.21a.91.91 0 0 1 .84-.89 6.06 6.06 0 0 0 1.67-.7 3.84 3.84 0 0 0 1.23-1.17c.3-.453.46-.986.46-1.53a4.28 4.28 0 0 0-.06-.87c-.05-.3-.16-.6-.22-.9v-.17a1.03 1.03 0 0 1 2-.49v-.02z" fill="#F9D5CC" fill-rule="nonzero"/><path d="M29 42.18s21 3.46 21.34-5.87c0 0-8.18 4.93-14 .9M82.33 58.6s-.87-21.28-10.08-19.7c0 0 6.49 7 3.72 13.54m.88-15.81s9.51.83 11.86 7.52" stroke="#F9D5CC" stroke-width="2.106" stroke-linecap="round" stroke-linejoin="round"/><path d="M110.54 64v-4c-5.37 9.82-26.82 17.4-51.6 17.4S12.72 69.82 7.35 60v4c7.77 9.28 27.65 15.73 51.6 15.73 3.007 0 5.943-.1 8.81-.3l-.1 14c-2.83.24-5.74.36-8.71.36-25.17 0-46.28-8.81-51.6-20.57v2a10.5 10.5 0 0 0 .46 3A36.33 36.33 0 0 0 20.28 88c10.35 5.28 24.08 8.18 38.67 8.18 14.59 0 28.32-2.93 38.66-8.18a36.33 36.33 0 0 0 12.47-9.72 10.5 10.5 0 0 0 .46-3v-2c-4.54 10-20.52 17.86-40.68 20l.1-14C88.86 77.62 104 71.81 110.54 64z" fill="#C69C6D" fill-rule="nonzero"/><path d="M74.63 84.39a2.58 2.58 0 1 0 2.57-2.72 2.65 2.65 0 0 0-2.57 2.72zm2.94 0a.37.37 0 1 1-.37-.39.38.38 0 0 1 .37.39z" fill="#C69C6D" fill-rule="nonzero"/></g></svg>