<svg width="120" height="120" viewBox="0 0 120 120" xmlns="http://www.w3.org/2000/svg"><g fill="none" fill-rule="evenodd"><path d="M60.05 7.47c-12.519.006-22.662 13.695-22.654 30.577.006 16.882 10.16 30.563 22.68 30.558 12.518-.005 22.66-13.695 22.653-30.577-.007-16.881-10.16-30.563-22.68-30.557M60.047.049a2.058 2.058 0 1 0 .002 4.116 2.058 2.058 0 0 0-.002-4.116" fill="#00A492"/><path d="M60.047 1.51c-4.904.001-8.879 3.54-8.877 7.902.002 4.363 3.98 7.898 8.884 7.896 4.904-.002 8.879-3.54 8.877-7.903-.002-4.363-3.98-7.898-8.884-7.896" fill="#00A492"/><path d="M52.68 2.707a2.058 2.058 0 1 0 .002 4.116 2.058 2.058 0 0 0-.002-4.116m14.736-.006a2.058 2.058 0 1 0 .002 4.116 2.058 2.058 0 0 0-.002-4.116m-16.659 5.45a2.058 2.058 0 1 0 .002 4.116 2.058 2.058 0 0 0-.002-4.116m18.586-.007a2.057 2.057 0 1 0 .001 4.114 2.057 2.057 0 0 0 0-4.114M37.393 32.68c-1.83 0-3.312 2.404-3.311 5.369.001 2.964 1.486 5.367 3.316 5.366 1.83 0 3.312-2.405 3.311-5.37-.001-2.964-1.486-5.366-3.316-5.366m22.684 41.566c-4.904.001-8.882-3.533-8.883-7.896-.002-4.363 3.972-7.9 8.877-7.903 4.904-.002 8.882 3.534 8.884 7.896.001 4.363-3.973 7.9-8.878 7.903" fill="#00A492"/><path d="M67.558 72.215a1.615 1.615 0 1 1 0-3.23 1.615 1.615 0 0 1 0 3.23M50.781 67.61a2.057 2.057 0 1 1-.003-4.114 2.057 2.057 0 0 1 .003 4.114m18.587-.007a2.057 2.057 0 1 1-.003-4.114 2.057 2.057 0 0 1 .003 4.114m2.746-57.07a1.616 1.616 0 1 1 .002 3.231 1.616 1.616 0 0 1-.002-3.23m10.038 18.572a2.057 2.057 0 1 1 .002 4.113 2.057 2.057 0 0 1-.002-4.113" fill="#00A492"/><path d="M82.727 32.66c1.83 0 3.314 2.403 3.315 5.367.003 2.965-1.48 5.369-3.31 5.37-1.83 0-3.316-2.403-3.317-5.367 0-2.965 1.482-5.369 3.312-5.37M72.084 62.265a1.74 1.74 0 1 1 0 3.48 1.74 1.74 0 0 1 0-3.48M52.676 72.22a1.614 1.614 0 1 1-.003-3.228 1.614 1.614 0 0 1 .003 3.228m7.403 5.37c-3.56.002-6.773 36.583.015 36.58 6.788-.003 3.544-36.58-.015-36.58zm-.004-9.595c-7.031.004-13.39 51.97.021 51.964 13.411-.005 7.01-51.966-.021-51.964z" fill="#00A492"/><path d="M60.051 10.383c-10.97.005-19.857 12.39-19.85 27.663.006 15.273 8.903 27.651 19.873 27.647 10.97-.006 19.857-12.39 19.85-27.663-.005-15.274-8.904-27.651-19.873-27.647" fill="#007764"/><path d="M60.052 13.795c-9.025.003-16.338 10.86-16.332 24.25.005 13.388 7.327 24.24 16.352 24.236 9.026-.004 16.338-10.861 16.333-24.25-.006-13.39-7.327-24.24-16.353-24.236" fill="#DBD9D3"/><path d="M74.599 49.135L44.889 29.01a29.208 29.208 0 0 1 1.921-5.166l29.163 19.755a32.276 32.276 0 0 1-1.374 5.536m-2.817 5.802L43.78 35.967c.056-.98.15-1.943.282-2.886l29.004 19.647a24.268 24.268 0 0 1-1.283 2.209m4.545-14.541l-28.121-19.05c.469-.733.97-1.422 1.496-2.064l26.695 18.083a35.49 35.49 0 0 1-.07 3.03" fill="#FFFFFE"/><path d="M60.047.862a1.245 1.245 0 1 0 .001 2.49 1.245 1.245 0 0 0-.001-2.49m7.369 2.652a1.245 1.245 0 1 0 .001 2.49 1.245 1.245 0 0 0 0-2.49M52.68 3.52a1.245 1.245 0 1 0 0 2.49 1.245 1.245 0 0 0 0-2.49m-1.923 5.444a1.245 1.245 0 1 0 .001 2.49 1.245 1.245 0 0 0 0-2.49m18.585-.008a1.245 1.245 0 1 0 .002 2.49 1.245 1.245 0 0 0-.002-2.49m-9.295-5.103c-3.449.002-6.245 1.247-6.244 2.78 0 1.535 2.797 2.777 6.247 2.776 3.449-.002 6.245-1.247 6.244-2.78 0-1.535-2.797-2.777-6.247-2.776m.026 63.547c-3.449.001-6.244 1.246-6.244 2.78 0 1.534 2.798 2.777 6.247 2.774 3.45 0 6.245-1.245 6.244-2.779 0-1.535-2.797-2.777-6.247-2.776m12.04-56.228a.978.978 0 1 0 .001 1.956.978.978 0 0 0 0-1.956m10.038 18.747a1.246 1.246 0 1 0 0 2.492 1.246 1.246 0 0 0 0-2.492M80.47 38.03c0 2.354 1.014 4.262 2.261 4.262 1.248 0 2.258-1.91 2.257-4.264 0-2.355-1.013-4.263-2.26-4.263-1.249 0-2.259 1.91-2.259 4.264m-45.333.019c.001 2.355 1.013 4.263 2.261 4.263 1.248-.001 2.259-1.91 2.258-4.265-.001-2.354-1.013-4.263-2.261-4.262-1.248 0-2.259 1.91-2.258 4.264m36.948 24.905a1.052 1.052 0 1 0 0 2.103 1.052 1.052 0 0 0 0-2.103M50.78 64.308a1.245 1.245 0 1 0 .002 2.49 1.245 1.245 0 0 0-.002-2.49m18.586-.008a1.245 1.245 0 1 0 .002 2.49 1.245 1.245 0 0 0-.002-2.49m-1.809 5.385a.915.915 0 0 0 0 1.828.913.913 0 1 0 0-1.828m-14.882.007a.914.914 0 1 0 0 1.827.914.914 0 0 0 0-1.827" fill="#007764"/><path d="M55.45 77.853a2.502 2.502 0 1 1-.003-5.004 2.502 2.502 0 0 1 .003 5.004" fill="#00A492"/><path d="M55.448 73.934a1.416 1.416 0 1 0 .001 2.833 1.416 1.416 0 0 0 0-2.833" fill="#007764"/><path d="M64.747 77.85a2.502 2.502 0 1 1-.003-5.005 2.502 2.502 0 0 1 .003 5.005" fill="#00A492"/><path d="M64.746 73.93a1.417 1.417 0 1 0 .002 2.834 1.417 1.417 0 0 0-.002-2.834" fill="#007764"/><path d="M54.46 80.766a1.615 1.615 0 1 1 0-3.23 1.615 1.615 0 0 1 0 3.23" fill="#00A492"/><path d="M54.46 78.237a.915.915 0 1 0 .003 1.83.915.915 0 0 0-.004-1.83" fill="#007764"/><path d="M53.857 83.711a1.615 1.615 0 1 1 0-3.23 1.615 1.615 0 0 1 0 3.23" fill="#00A492"/><path d="M53.856 81.182a.915.915 0 0 0 .001 1.828.914.914 0 1 0 0-1.828" fill="#007764"/><path d="M65.708 80.762a1.616 1.616 0 1 0-.004-3.232 1.616 1.616 0 0 0 .004 3.232" fill="#00A492"/><path d="M65.707 78.232a.914.914 0 1 1 0 1.83.914.914 0 0 1 0-1.83" fill="#007764"/><path d="M66.313 83.706a1.615 1.615 0 1 0 0-3.23 1.615 1.615 0 0 0 0 3.23" fill="#00A492"/><path d="M66.312 81.178a.914.914 0 1 1 .002 1.827.914.914 0 0 1-.002-1.827" fill="#007764"/><path d="M37.98 29.124a2.058 2.058 0 1 1 .002 4.116 2.058 2.058 0 0 1-.002-4.116" fill="#00A492"/><path d="M37.98 29.937a1.245 1.245 0 1 0 .001 2.49 1.245 1.245 0 0 0 0-2.49" fill="#007764"/><path d="M48.143 10.543a1.616 1.616 0 1 1 .001 3.232 1.616 1.616 0 0 1 0-3.232" fill="#00A492"/><path d="M48.144 11.181a.977.977 0 1 0 0 1.955.977.977 0 0 0 0-1.955" fill="#007764"/><path d="M82.157 42.583a2.058 2.058 0 1 1 .002 4.117 2.058 2.058 0 0 1-.002-4.117" fill="#00A492"/><path d="M82.157 43.396a1.246 1.246 0 1 0 .003 2.491 1.246 1.246 0 0 0-.003-2.491" fill="#007764"/><path d="M37.986 42.602a2.058 2.058 0 1 1 .001 4.115 2.058 2.058 0 0 1-.001-4.115" fill="#00A492"/><path d="M37.986 43.414a1.245 1.245 0 1 0 .001 2.49 1.245 1.245 0 0 0-.001-2.49" fill="#007764"/><path d="M48.14 62.275a1.74 1.74 0 1 1 0 3.48 1.74 1.74 0 0 1 0-3.48" fill="#00A492"/><path d="M48.14 62.963a1.052 1.052 0 1 0 0 2.103 1.052 1.052 0 0 0 0-2.103" fill="#007764"/><path d="M81.556 26.954a1.364 1.364 0 1 1 .001 2.73 1.364 1.364 0 0 1 0-2.73" fill="#00A492"/><path d="M81.558 27.493a.825.825 0 1 0 0 1.65.825.825 0 0 0 0-1.65" fill="#007764"/><path d="M38.596 26.972a1.363 1.363 0 1 1 .001 2.727 1.363 1.363 0 0 1 0-2.727" fill="#00A492"/><path d="M38.596 27.51a.825.825 0 1 0 0 1.65.825.825 0 0 0 0-1.65" fill="#007764"/><path d="M81.564 46.033a1.364 1.364 0 1 1 .001 2.729 1.364 1.364 0 0 1 0-2.73" fill="#00A492"/><path d="M81.565 46.571a.825.825 0 1 0 .001 1.651.825.825 0 0 0 0-1.65" fill="#007764"/><path d="M38.604 46.05a1.364 1.364 0 1 1 0 2.728 1.364 1.364 0 0 1 0-2.728" fill="#00A492"/><path d="M38.604 46.589a.825.825 0 1 0 .001 1.65.825.825 0 0 0 0-1.65M60.079 77.59c-3.56.003-6.773 36.583.015 36.58 6.788-.003 3.544-36.58-.015-36.58zm.028-2.524c-4.407.002-8.454 41.043-.048 41.04 8.407-.004 4.455-41.042.048-41.04z" fill="#007764"/><path d="M60.133 77.32a.81.81 0 1 1-.001-1.62.81.81 0 0 1 0 1.62" fill="#00A492"/></g></svg>