<svg width="120" height="120" viewBox="0 0 120 120" xmlns="http://www.w3.org/2000/svg" xmlns:xlink="http://www.w3.org/1999/xlink"><defs><path id="a" d="M.2.3h13.173v5.567H.2z"/></defs><g fill="none" fill-rule="evenodd"><path d="M29.474 49.97c7.957 12.399 18.58 2.054 14.968-8.909-2.624-7.955 11.61 2.591 11.61 2.591s-8.334 23.063-15.564 23.41c-7.232.342-11.041-10.944-11.014-17.092" fill="#F6B90C"/><path d="M36.43 83.015c1.045.112 2.046-.589 2.682-1.73.593.489 1.179.683 1.602.462.783-.421.69-2.141-.21-3.847a6.647 6.647 0 0 0-1.18-1.621c-.034-.073-.072-.137-.109-.205 0 0 1.55-9.979 3.213-12.335.567-.81 1.013-1.372 1.267-1.818v.008c-2.103 9.823-2.347 22.914-2.347 22.914h31.069s-.302-15.062-2.864-24.984c1.38.543 8.32 3.196 10.443 2.425 2.917-1.064 6.27-10.613 6.27-10.613h-.005c1.26-.445 2.476-1.652 3.176-3.314 1.096-2.593.522-5.316-1.276-6.08-1.173-.499-2.579-.039-3.716 1.062-.516-.78-1.13-1.215-1.695-1.105-1.06.205-1.555 2.237-1.109 4.535.17.877.452 1.669.797 2.297.043.288.114.562.202.817l-5.37 6.332-11.567-4.16v-.006c-2.104-1.21-7.034-1.447-7.034-1.447l-1.717.106h-.14l-1.723-.075s-4.952.176-7.044 1.374h-.012s-6.5 3.42-8.242 5.657c-3.456 4.437-4.843 17.47-4.934 18.362v-.01c-.462.667-.786 1.538-.888 2.508-.243 2.31.857 4.321 2.461 4.491z" fill="#FDDFBB"/><path d="M41.347 84.844c.014-.64.258-11.56 1.93-20.767.04-.2.06-.383.101-.582 3.434-3.85 3.875-7.418 4.68-11.485.932-.533 2.426-.86 3.8-1.061 0 0 0 6.127 4.952 6.127 4.687 0 4.462-6.212 4.462-6.212 1.525.207 3.356.57 4.434 1.194.847 2.555 1.73 7.88 4.369 10.044 2.025 9.532 2.326 22.035 2.34 22.742H41.348z" fill="#0771B7"/><path d="M65.258 56.919v1.793c0 .955-.772 1.73-1.722 1.73h-.004c-.947 0-1.72-.775-1.72-1.73v-1.793h3.446z" fill="#F6B90C"/><path d="M70.04 62.072c-.84-.702-1.498-1.718-2.04-2.875v25.646h2.04v-22.77zM45.547 60.48v24.364h-2.042V63.35c.85-.97 1.515-1.924 2.042-2.87m1.657 18.6h19.328V67.04H47.204z" fill="#EEEEED"/><path fill="#99588C" d="M47.204 69.47h19.328v-2.43H47.204zm0 9.61h19.328v-1.536H47.204z"/><path fill="#333433" d="M54.492 75.373h-.77v-3.19h-.797v-.59l1.567-.142zm3.105 0h-.77v-3.19h-.797v-.59l1.567-.142zm3.893 0h-2.583v-.508l1.191-1.353c.178-.212.306-.388.38-.535a.9.9 0 0 0 .112-.402.58.58 0 0 0-.118-.38c-.08-.099-.2-.147-.36-.147a.455.455 0 0 0-.385.185.756.756 0 0 0-.138.464h-.75l-.004-.016c-.01-.345.103-.633.334-.873.236-.236.554-.357.944-.357.394 0 .704.104.923.305.217.203.326.475.326.817 0 .232-.06.441-.182.634a7.23 7.23 0 0 1-.636.792l-.633.767.004.01h1.575v.597z"/><path fill="#FDDFBB" d="M55.09 110.421h-8.226l-.025-4.092-.332-7.63-.601-2.945h10.333V98.7l-.227 7.63zm11.803 0h-8.869l-.291-4.092-.219-7.63v-2.945h10.337l-.6 2.946-.337 7.63z"/><path fill="#343434" d="M60.004 84.801H44.758l1.071 11.143h10.51l.4-4.097h.28l.396 4.097H67.92l1.078-11.143z"/><path d="M56.012 106.33H46.84l-.23 3.907h.009a5.763 5.763 0 0 0-.878.697v2.506h7.468c.142-.085.28-.172.417-.266.842-.592 1.83-1.245 2.4-2.126.176-.272.26-.554.197-.81h-.02l-.19-3.908z" fill="#EEEEED"/><path fill="#E63744" d="M56.036 106.77h-9.224l-.01.194h9.243zm.016.386h-9.261l-.01.193h9.282z"/><path d="M68.706 111.733a5.496 5.496 0 0 0-1.57-1.497h.005l-.227-3.905h-9.18l-.19 3.905h-.012c-.061.257.021.539.199.813.567.88 1.556 1.527 2.399 2.118.136.093.274.186.419.271h8.157v-1.705z" fill="#EEEEED"/><path fill="#E63744" d="M57.702 106.964h9.249l-.009-.195h-9.228zm-.018.384h9.292l-.014-.192h-9.268z"/><path d="M46.633 110.237l4.546-.344s-1.22-1.677-2.826-1.598c-1.555.076-1.743 1.927-1.743 1.927l.023.015z" fill="#6E6E6D"/><path d="M47.214 110.06l3.126-.236s-.84-1.152-1.947-1.098c-1.066.054-1.196 1.326-1.196 1.326l.017.009z" fill="#E63744"/><path d="M46.633 110.237l-.023-.008v.008h.009c-1.8 1.152-3.107 3.412-1.57 5.267 1.17 1.308 2.883.282 4.187-.27 1.441-.69 3.087-1.167 4.39-2.062.842-.593 1.83-1.244 2.4-2.125.176-.271.26-.553.197-.81v-1.73s-.114-.177-.514 0c-.795.352-1.32 1.929-3.012 1.73-4.196-1.171-6.064 0-6.064 0" fill="#E63744"/><path d="M55.9 111.229l-.21-.191s-2.153 2.193-4.015 2.736l.17.348c.627-.273 1.234-.578 1.78-.951.784-.552 1.694-1.15 2.274-1.942m-9.266-.992l-.023-.015v.009h.009c-.05.062-.1.066-.149.101-.279.616-.244 1.267 1.158 1.256 1.09-.008 2.628-1.011 3.551-1.695-3.128-.545-4.546.344-4.546.344" fill="#343434"/><path d="M46.567 111.435c-.473 0-.93.035-1.375.104-.007.004-.01.012-.015.016-.89 1.171-1.197 2.658-.126 3.949 1.167 1.308 2.88.282 4.185-.27.997-.476 2.096-.854 3.11-1.339-1.159-1.471-3.312-2.46-5.78-2.46" fill="#343434"/><path d="M56.171 108.7c-.404 0-.73.753-.73 1.682 0 .451.076.862.202 1.162.142-.157.27-.323.384-.497.175-.272.26-.553.194-.81v-1.532a.317.317 0 0 0-.05-.004" fill="#EEEEED"/><path d="M45.559 111.142c-.015 0-.03-.009-.031-.025a.03.03 0 0 1 .022-.038c.02-.006 2.054-.503 4.664-.014.019.002.029.02.027.035a.036.036 0 0 1-.04.027c-2.594-.487-4.614.008-4.634.013-.002.002-.006.002-.008.002m.536-.494a.032.032 0 0 1-.031-.021.03.03 0 0 1 .02-.04c.02-.008 1.908-.632 4.53-.033.019.005.031.023.027.04a.031.031 0 0 1-.04.023c-2.605-.593-4.475.022-4.496.029-.004.002-.006.002-.01.002" fill="#C12636"/><path d="M67.12 110.237l-4.543-.344s1.218-1.677 2.826-1.598c1.553.076 1.743 1.927 1.743 1.927l-.027.015z" fill="#6E6E6D"/><path d="M66.54 110.06l-3.123-.236s.84-1.152 1.942-1.098c1.068.054 1.198 1.326 1.198 1.326l-.017.009z" fill="#E63744"/><path d="M67.12 110.237l.026-.008v.008h-.01c1.802 1.152 3.109 3.412 1.567 5.267-1.167 1.308-2.88.282-4.185-.27-1.441-.69-3.085-1.167-4.391-2.062-.84-.593-1.828-1.244-2.397-2.125-.178-.271-.263-.553-.199-.81v-1.73s.116-.177.512 0c.797.352 1.322 1.929 3.017 1.73 4.193-1.171 6.06 0 6.06 0" fill="#E63744"/><path d="M57.855 111.229l.206-.191s2.158 2.193 4.02 2.736l-.171.348c-.626-.273-1.237-.578-1.782-.951-.78-.552-1.693-1.15-2.273-1.942m9.265-.992l.026-.015v.009h-.01c.051.062.1.066.15.101.277.616.242 1.267-1.16 1.256-1.09-.008-2.63-1.011-3.549-1.695 3.128-.545 4.542.344 4.542.344" fill="#343434"/><path d="M67.188 111.435c.472 0 .93.035 1.377.104.004.004.006.012.012.016.89 1.171 1.197 2.658.124 3.949-1.164 1.308-2.878.282-4.183-.27-.997-.476-2.095-.854-3.107-1.339 1.156-1.471 3.312-2.46 5.777-2.46" fill="#343434"/><path d="M57.583 108.7c.404 0 .733.753.733 1.682 0 .451-.077.862-.203 1.162a3.994 3.994 0 0 1-.384-.497c-.177-.272-.262-.553-.196-.81v-1.532a.368.368 0 0 1 .05-.004" fill="#EEEEED"/><path d="M68.198 111.142s.026-.009.03-.025a.032.032 0 0 0-.024-.038c-.019-.006-2.054-.503-4.664-.014-.016.002-.03.02-.025.035.004.019.02.03.035.027 2.6-.487 4.619.008 4.64.013.001.002.003.002.008.002m-.537-.494s.025-.009.03-.021c.008-.019 0-.035-.021-.04-.017-.008-1.908-.632-4.532-.033a.038.038 0 0 0-.025.04c.004.016.023.029.037.023 2.61-.593 4.483.022 4.499.029a.026.026 0 0 0 .012.002" fill="#C12636"/><path d="M58.45 52.395h-3.636c-1.042 0-1.883-2.243-1.883-3.267h7.4c0 1.024-.843 3.267-1.881 3.267" fill="#FDDFBB"/><path d="M53.722 51.563l6.581-2.18.01-.015a21.875 21.875 0 0 1-3.763.321c-1.228 0-2.434-.1-3.604-.292.068.64.359 1.528.776 2.166" fill="#EEAC6C"/><path d="M34.83 30.653a22.569 22.569 0 0 1-.25-3.361c0-12.354 9.975-22.365 22.277-22.365 12.3 0 22.276 10.011 22.276 22.365 0 1.09-.078 2.16-.227 3.21 1.284.705 2.151 2.04 2.151 3.567 0 2.27-1.905 4.11-4.255 4.11-.157 0-.316-.01-.468-.026-3.803 6.862-11.1 11.503-19.477 11.503-8.37 0-15.66-4.632-19.466-11.483-.068.002-.132.007-.2.007-2.35 0-4.254-1.841-4.254-4.11 0-1.425.752-2.68 1.894-3.417" fill="#FDDFBB"/><path d="M79.92 24.597a43.548 43.548 0 0 0-.265-4.09C76.678 10.719 67.61 3.595 56.884 3.595c-9.34 0-17.425 5.4-21.323 13.26-1.08 3.088-1.738 6.126-1.794 7.499-.192 4.757 1.181 6.334 1.181 6.334s3.995-5.547 8.719-8.88c3.712-2.615 7.017 2.442 11.427-1.892.394-.388 1.868-1.882 1.868-1.882s1.21 1.366 1.86 1.882c3.925 3.107 6.111-.423 10.498 1.971 3.59 1.963 9.474 8.958 9.474 8.958s1.163-3.631 1.125-6.247" fill="#F6B90C"/><path d="M52.311 25.65s-.503 1.803-2.082 1.446c-.772-.174-.908-1.201-3.386-.74-.779.18-2.417 1.156-2.732 1.808-.316.652-.088-2.392 2.457-3.522 1.835-.675 2.457-.642 3.977-.642s1.987.907 1.766 1.65m9.741 0s.503 1.803 2.082 1.446c.772-.174.908-1.201 3.386-.74.779.18 2.417 1.156 2.732 1.808.316.652.087-2.392-2.457-3.522-1.835-.675-2.457-.642-3.977-.642s-1.987.907-1.766 1.65" fill="#F6B90C"/><path d="M50 33c0 1.657-.895 3-2 3s-2-1.343-2-3 .895-3 2-3 2 1.343 2 3m18 0c0 1.657-.895 3-2 3s-2-1.343-2-3 .895-3 2-3 2 1.343 2 3" fill="#6172BB"/><path d="M57.02 36.07c.839-.115 2.96 1.756 2.96 1.756s.103-.414-.34-1.238C59.163 35.703 56.99 35 56.99 35s-1.687.448-2.487 1.604c-.296.29-.503 1.299-.503 1.299s1.895-1.681 3.02-1.834z" fill="#EEAC6C"/><g transform="translate(50 39)"><mask id="b" fill="#fff"><use xlink:href="#a"/></mask><path d="M.2.696S7.097 3.904 13.372.299c0 0-1.39 5.47-5.95 5.561-4.115.122-4.984-1.492-5.477-1.956C1.453 3.441.525 2.132.2.696" fill="#EEAC6C" mask="url(#b)"/></g></g></svg>