<svg width="261" height="189" viewBox="0 0 261 189" xmlns="http://www.w3.org/2000/svg"><g fill="none"><path d="M71.1 93.2s4.8 22.9-14.3 46.5c-9.6 11.9-16.4 22.4-15 25.1 1.4 2.8 6.8 5.4 5.1 6.8-1.7 1.4-21.3 1-25.5-1.6-1.7-1.1-2.9-24.8.1-37.1s7.4-19 7.6-28.2c.2-9.2-2.7-26.8 1.4-33.5 4.1-6.7 12-18.7 27.5-10.4 15.5 8.3 14.2 26.3 13.1 32.4z" fill="#856045"/><path d="M38.7 172.2s0-.3-.1-.8-.4-1.1-.7-1.7c-.4-.6-.9-1-1.3-1.3-.4-.3-.7-.4-.7-.4s0 .1.1.2.2.3.3.5c.3.4.7.9 1 1.4.4.5.7 1 .9 1.4.3.4.5.7.5.7zm5.6-.1s0-.4-.2-.9c-.2-.6-.5-1.2-1.1-1.8-.3-.3-.5-.6-.8-.8-.3-.2-.6-.4-.8-.5-.3-.1-.5-.2-.7-.2-.2 0-.3-.1-.3-.1l.2.2.5.5 1.4 1.4c.5.5.9 1.1 1.2 1.6.4.2.6.6.6.6z" fill="#59402F"/><path d="M37.8 173.5c0-.6-.9-3.3-2-3.3s-.4 1.1.1 1.9c.6.7 1.9 1.8 1.9 1.4zm5.5-.5c0-.6-.9-3.3-2-3.3s-.4 1.1.1 1.9c.5.7 1.9 1.8 1.9 1.4zm3.4-.2c0-.6-.9-3.3-2-3.3s-.4 1.1.1 1.9c.6.6 1.9 1.8 1.9 1.4z" fill="#665A52"/><path d="M29.9 106s-8 10-10.4 9.8c0 0 2.2 1.9 4 .3 0 0-4.4 1.8-5.5 6.2l2.9-.9s-4.1 6.3-3.8 10.6l2.9-3.1s-3.4 6.4.8 10.1" fill="#856045"/><path d="M19.7 115.8s.2 0 .5-.1.8-.3 1.3-.6c1-.6 2.2-1.6 3.2-2.7.5-.5 1-1.1 1.5-1.7.5-.5.9-1.1 1.2-1.5.7-.9 1.1-1.6 1.1-1.6s-.6.5-1.4 1.3c-.8.8-1.8 1.9-2.9 3-.5.5-1.1 1.1-1.6 1.5-.5.5-1 .9-1.4 1.3-.4.4-.8.6-1.1.8-.2.3-.4.3-.4.3zm-1.5 6.5s.2-.4.6-1c.3-.6.8-1.3 1.3-2 .3-.3.5-.7.8-1 .3-.3.5-.6.8-.8.2-.2.5-.4.6-.5.2-.1.2-.2.2-.2s-.1 0-.3.1c-.2.1-.5.1-.8.3-.3.2-.7.4-1 .7-.3.3-.6.6-.9 1-.3.4-.5.8-.7 1.2-.2.4-.3.8-.4 1.1-.2.6-.2 1.1-.2 1.1zm-.9 9.5s-.1-.7.2-1.7c.1-.5.2-1.1.4-1.7.2-.6.4-1.3.7-1.9.3-.6.5-1.3.8-1.9.3-.6.5-1.1.8-1.6.2-.5.4-.9.6-1.1.1-.3.2-.4.2-.4s-.1.1-.3.4c-.2.2-.5.6-.8 1-.3.4-.7.9-1 1.5-.3.6-.6 1.2-.9 1.9-.5 1.3-.9 2.7-.9 3.8 0 .5 0 1 .1 1.3 0 .2.1.4.1.4zm2.5 5.9s-.1-.1-.2-.3c-.1-.2-.2-.5-.3-.9-.1-.8-.1-1.9 0-2.9.1-1.1.4-2.1.5-3 .2-.8.2-1.4.2-1.4s-.1.1-.2.3c-.1.2-.3.5-.4.9-.1.4-.3.9-.5 1.4-.1.3-.2.5-.2.8 0 .3-.1.6-.1.8-.1.6-.1 1.1 0 1.7 0 .5.2 1 .3 1.4.2.4.4.7.5.9.3.3.4.3.4.3zm1.4-4.8s-.4 2.5-.8 6.3c-.2 1.9-.4 4.1-.6 6.5-.2 2.4-.3 4.9-.4 7.4-.1 2.5-.1 5.1 0 7.5.1 2.4.4 4.6.8 6.5.2.9.5 1.8.8 2.5.1.2.2.3.3.5.1.2.2.3.4.4.3.2.6.3.9.4 1.1.3 1.7.5 1.7.5s-.6-.2-1.6-.6c-.3-.1-.5-.2-.8-.4-.3-.1-.4-.5-.5-.8-.3-.7-.5-1.5-.7-2.5-.3-1.9-.5-4.1-.5-6.4-.1-2.4 0-4.9.1-7.4s.2-5.1.3-7.4c.1-2.4.3-4.6.4-6.5 0-4 .2-6.5.2-6.5zM72.4 107s-1.4 4.2-3.8 10.3c-1.2 3.1-2.6 6.6-4.3 10.4-.8 1.9-1.8 3.8-2.8 5.7-.5.9-1.1 1.9-1.7 2.8-.6.9-1.3 1.7-2 2.6-2.8 3.4-5.5 6.8-8 10.1s-4.7 6.5-6.3 9.4c-.4.7-.8 1.4-1.1 2.1-.3.7-.5 1.4-.6 2.1-.1.7-.3 1.3-.2 1.9 0 .6.3 1.1.7 1.5.6.7 1.2 1.2 1.6 1.6.4.4.6.5.6.5l-.6-.6c-.4-.4-.9-.9-1.5-1.6-.3-.4-.6-.8-.6-1.4 0-.6.1-1.2.3-1.8.2-.6.4-1.3.7-2 .3-.7.7-1.4 1.1-2.1 1.7-2.8 4-5.9 6.4-9.2 2.5-3.3 5.3-6.7 8.1-10.1.7-.8 1.4-1.7 2-2.6.6-.9 1.2-1.9 1.7-2.8 1-1.9 1.9-3.9 2.8-5.7 1.6-3.8 3-7.4 4.2-10.5 1.1-3.1 2-5.7 2.6-7.5.3-2.1.7-3.1.7-3.1z" fill="#59402F"/><path d="M173.1 92.5c-3.2 22.6-9.3 28.4-10.1 34.9-.8 6.5 0 30.6 1.4 33.4 1.4 2.9 5.8 5 6.5 8.3.7 3.2-23.7 1.8-26.6 0-2.9-1.8-18.3-42.4-17.3-65.4 5.1-46.8 49.3-33.9 46.1-11.2z" fill="#856045"/><path d="M134.3 82.7s-7.1 10.7-9.5 10.7c0 0 2.4 1.7 4 0 0 0-4.3 2.1-5 6.6l2.8-1.2s-3.6 6.6-2.8 10.9l2.6-3.3s-2.8 6.6 1.7 10" fill="#8D674A"/><path d="M125 93.3s.2 0 .5-.1.8-.3 1.2-.7c1-.7 2-1.8 3-2.9.5-.6.9-1.2 1.4-1.8.4-.6.8-1.1 1.1-1.6.6-1 .9-1.7.9-1.7s-.5.6-1.2 1.4c-.7.9-1.7 2-2.6 3.2-.5.6-1 1.1-1.4 1.7-.5.5-.9 1-1.3 1.4-.4.4-.8.7-1 .9-.4.1-.6.2-.6.2zm-.9 6.6l.5-1c.3-.6.7-1.4 1.1-2.1.2-.4.5-.7.7-1 .2-.3.5-.6.7-.8l.6-.6.2-.2s-.1 0-.3.1c-.2.1-.5.2-.8.4-.3.2-.6.4-.9.7-.3.3-.6.7-.8 1.1l-.6 1.2c-.2.4-.3.8-.3 1.1-.1.6-.1 1.1-.1 1.1zm0 9.3s-.1-.7 0-1.7c0-.5.1-1.1.3-1.7.1-.6.3-1.3.5-1.9.2-.6.4-1.3.6-1.9.2-.6.4-1.2.6-1.6.2-.5.3-.9.4-1.2.1-.3.2-.4.2-.4s-.1.1-.3.4c-.2.3-.4.6-.7 1.1-.3.5-.6 1-.8 1.6-.3.6-.5 1.2-.7 1.9-.2.7-.4 1.4-.4 2-.1.7-.1 1.3-.1 1.8s.1 1 .2 1.3c.1.1.2.3.2.3zm21.7 60.4s-.2 0-.7-.2c-.4-.2-1.1-.5-1.5-1.2-.5-.7-1-1.6-1.5-2.7s-.9-2.4-1.4-3.8c-1-2.8-2.2-6-3.5-9.4-1.3-3.5-2.6-7.1-3.7-10.9-.6-1.9-1.2-3.7-1.7-5.6-.3-.9-.5-1.8-.7-2.8l-.6-2.7c-.4-1.8-.7-3.5-1-5.2-.3-1.7-.5-3.2-.7-4.7-.4-2.9-.8-5.3-1-7-.2-1.7-.2-2.7-.2-2.7s0 1 .1 2.7c.1 1.7.3 4.2.7 7.1.2 1.5.4 3 .6 4.7.2 1.7.5 3.4.9 5.2l.6 2.7c.2.9.5 1.9.7 2.8.5 1.9 1.1 3.8 1.7 5.6 1.2 3.7 2.5 7.4 3.8 10.9 1.3 3.4 2.6 6.6 3.7 9.4.5 1.4 1 2.7 1.5 3.7.5 1.1 1.1 2 1.6 2.7.5.7 1.2 1 1.6 1.2.5.1.7.2.7.2z" fill="#59402F"/><path d="M127.9 116s-.5-.4-.9-1.2c-.2-.4-.4-.9-.5-1.5-.1-.6-.2-1.2-.2-1.8v-1.8c0-.6.1-1.1.1-1.6s.1-.9.1-1.1v-.4s-.1.1-.2.4c-.1.3-.3.6-.4 1.1-.1.5-.3 1-.3 1.6 0 .3-.1.6-.1.9v1c0 .7.1 1.3.3 1.9.1.3.2.6.3.8.1.3.3.5.4.7.3.4.6.7.9.8.4.2.5.2.5.2zm35.7 54.6v-.8c-.1-.5-.3-1.1-.7-1.7-.4-.6-.9-1-1.3-1.3-.4-.3-.7-.4-.7-.4s0 .1.1.2.2.3.3.5c.3.4.7.9 1 1.4.3.5.7 1 .9 1.4.2.4.4.7.4.7zm5.6-.5s0-.4-.2-.9c-.2-.6-.5-1.3-1-1.9-.3-.3-.5-.6-.8-.8-.3-.2-.6-.4-.8-.5-.3-.1-.5-.2-.7-.3-.2 0-.3-.1-.3-.1l.2.2.5.5c.4.4.9.9 1.4 1.5.5.5.9 1.1 1.2 1.6.3.4.5.7.5.7zm-1.6-5.7s-.7-.6-1.8-2c-.3-.3-.6-.7-.8-1.1-.3-.4-.5-.9-.7-1.5-.4-1.1-.6-2.4-.7-3.8-.2-2.9-.4-6.3-.6-9.9-.2-3.6-.3-7.5-.2-11.3.1-1.9.1-3.9.4-5.7.2-1.9.6-3.7 1.1-5.4 1-3.5 2.3-6.6 3.3-9.3 1.1-2.7 1.8-5 2.3-6.7.2-.8.4-1.5.4-1.9.1-.4.1-.7.1-.7s-.1.2-.2.7c-.1.4-.3 1.1-.5 1.9-.2.8-.6 1.8-1 2.9-.4 1.1-.9 2.3-1.5 3.7-1.1 2.7-2.6 5.8-3.6 9.3-.5 1.8-.9 3.6-1.2 5.5-.3 1.9-.4 3.8-.4 5.8-.1 3.9 0 7.8.3 11.4.2 3.6.6 7 .8 9.9.1 1.4.4 2.8.8 3.9.2.6.5 1.1.7 1.5.3.4.6.8.9 1.1 1.3 1.1 2.1 1.7 2.1 1.7z" fill="#59402F"/><path d="M162.7 171.9c0-.6-.9-3.3-2-3.3s-.4 1.1.1 1.9c.5.7 1.9 1.8 1.9 1.4zm5.5-.4c0-.6-.9-3.3-2-3.3s-.4 1.1.1 1.9c.5.8 1.9 1.8 1.9 1.4zm3.4-.9c0-.6-.9-3.3-2-3.3s-.4 1.1.1 1.9c.6.7 1.9 1.8 1.9 1.4z" fill="#665A52"/><path d="M42 55.2s-10.4-3.6-21 12.1c0 0 3.1-2.6 5-2.6 0 0-4.9 1.8-6 10.1 0 0 1.8-3.3 3.2-3.6 0 0-6.8 9.4 3.4 11.1C36.7 83.9 44.4 57.5 42 55.2z" fill="#8D674A"/><path d="M21 67.3s.2-.3.6-.8c.4-.5 1-1.2 1.7-2s1.6-1.7 2.5-2.7c.5-.5 1-1 1.5-1.4.5-.5 1.1-.9 1.7-1.3.6-.4 1.2-.8 1.7-1.2.6-.3 1.2-.7 1.8-1 .6-.2 1.2-.6 1.8-.8.6-.2 1.1-.4 1.7-.5.5-.1 1-.2 1.4-.3.4-.1.8-.1 1.1-.1.6 0 1-.1 1-.1s-.4 0-1-.1c-.3 0-.7-.1-1.2 0-.4 0-.9.1-1.5.1-.5.1-1.1.3-1.7.4-.6.1-1.2.4-1.9.7-.6.3-1.2.7-1.9 1l-1.8 1.2c-.6.5-1.2.9-1.7 1.4l-1.5 1.5c-1 1-1.7 2-2.4 2.9-1.2 1.8-1.9 3.1-1.9 3.1zm5-2.6s-.7.3-1.6 1.1c-.5.4-.9.8-1.4 1.4-.5.5-1 1.1-1.4 1.8-.4.7-.8 1.3-1 2-.1.3-.2.7-.3 1-.1.3-.2.6-.2.9-.1.6-.1 1-.1 1.4v.5s0-.2.1-.5c0-.2.1-.4.1-.6.1-.2.1-.5.2-.7.1-.3.2-.5.3-.8.1-.3.2-.6.4-.9.1-.3.3-.6.5-1l.6-.9c.8-1.3 1.7-2.4 2.5-3.2.7-1 1.3-1.5 1.3-1.5zm-2.8 6.4s-.5.4-1 1.1c-.3.4-.6.8-.8 1.4-.2.5-.4 1.1-.6 1.7-.1.6-.2 1.2-.1 1.8 0 .3.1.6.2.8.1.3.1.5.2.7.2.4.4.7.5 1 .2.2.2.3.2.3s0-.1-.1-.4c0-.1-.1-.3-.2-.4 0-.2-.1-.4-.1-.6-.1-.2-.1-.4-.1-.7 0-.2-.1-.5-.1-.8v-.8c0-.3.1-.6.1-.8.1-.6.3-1.1.4-1.6.2-.5.4-1 .6-1.4.6-.7.9-1.3.9-1.3z" fill="#59402F"/><path d="M185.7 83.8s0 7.8-3.3 11l-.2-2.8s-1 8.8-7.5 11.4l.8-2.6s-7.4 4.6-7.3 8l-1.2-2s-6.8 5.8-9.8 3.8" fill="#8D674A"/><path d="M161.6 28.8c-18-5.6-41.7 3.8-53 8-16.4 6.1-36.2-9.9-63.1 12.1s-21.5 54.9-1.4 71c22.5 18 102 18.1 116.1-10.3 0 0 26.3-10.2 27.5-37.5" fill="#8D674A"/><path d="M185.9 83.9s-.2.7-.4 1.7-.5 2.4-.8 3.8c-.1.3-.2.7-.2 1-.1.3-.2.7-.3 1-.2.6-.4 1.2-.6 1.7-.1.2-.2.5-.3.6-.1.2-.2.4-.3.5-.2.2-.3.4-.3.4s.1-.1.4-.3c.1-.1.3-.2.4-.4.2-.2.3-.4.5-.6.3-.4.6-1 .8-1.7.3-.6.4-1.3.6-2 .3-1.4.5-2.8.5-3.9v-1.8zm-3.8 8s-.2.9-.6 2.1c-.2.6-.5 1.4-.8 2.1-.1.4-.4.8-.5 1.2-.2.4-.4.8-.6 1.1-.2.4-.4.8-.7 1.1-.3.3-.5.7-.8 1-.3.3-.5.6-.8.9-.3.2-.5.5-.8.7-.3.2-.5.4-.7.6-.2.1-.4.3-.6.4-.3.2-.5.3-.5.3s.2-.1.6-.2c.2-.1.4-.2.7-.3.2-.1.5-.3.8-.5l.9-.6c.3-.2.6-.5.9-.8.3-.3.6-.7.9-1 .3-.4.5-.8.8-1.1.4-.8.8-1.6 1.1-2.4.3-.8.5-1.6.6-2.2.1-1.5.1-2.4.1-2.4zm-6.7 9s-.7.2-1.6.8c-.5.3-1 .6-1.5 1s-1.1.8-1.6 1.3-1 1-1.4 1.6c-.4.5-.7 1.1-.9 1.6-.1.3-.2.5-.2.7-.1.2-.1.4-.1.5-.1.3-.1.5-.1.5l.2-.4c.1-.1.1-.3.2-.5l.3-.6c.1-.2.3-.4.5-.7.2-.2.4-.5.6-.7.4-.5.9-1 1.4-1.5.5-.5 1-.9 1.5-1.4.5-.4 1-.8 1.4-1.1.7-.6 1.3-1.1 1.3-1.1zm-8.6 6l-1.5 1-1.5.9c-.6.3-1.2.7-1.8 1-.6.3-1.3.6-1.9.8l-.9.3c-.3.1-.6.1-.8.2-.3 0-.5.1-.7.1h-1.1s.2 0 .5.1c.2 0 .3.1.6.1h.7c.5 0 1.2-.1 1.8-.3.7-.2 1.3-.5 2-.8.6-.3 1.3-.7 1.8-1.1.6-.4 1-.8 1.5-1.1.9-.6 1.3-1.2 1.3-1.2zm-24.9-79.4s-3.1.2-7.7 1.1c-2.3.4-5 1-7.8 1.8-1.4.4-2.9.8-4.3 1.2-1.5.4-3 .9-4.4 1.4-2.9 1.1-5.8 2.4-8.5 3.3-1.4.5-2.7.9-4 1.2-1.3.3-2.5.5-3.7.6-1.2.1-2.2.2-3.2.2h-2.4c-1.4-.1-2.1-.1-2.1-.1s.8.1 2.1.2c.7.1 1.5.1 2.5.1.9 0 2 0 3.2-.1 1.2-.1 2.4-.3 3.7-.5 1.3-.3 2.7-.6 4.1-1.1 2.8-.9 5.6-2.2 8.5-3.2 1.4-.5 2.9-.9 4.4-1.4 1.5-.4 2.9-.8 4.3-1.2 2.8-.8 5.4-1.4 7.7-1.9s4.2-.9 5.5-1.2c1.3-.3 2.1-.4 2.1-.4zm-74 10.1s-1.2.3-3.2.9c-2 .6-4.9 1.6-8.2 3.2-3.3 1.6-7.1 3.6-10.7 6.4-3.7 2.8-7.2 6.2-10 10.3-1.4 2-2.6 4.2-3.6 6.4s-2 4.4-2.8 6.5c-.8 2.2-1.4 4.3-1.8 6.4-.4 2.1-.6 4.1-.6 5.9 0 3.7.6 6.7 1 8.8.4 2.1.6 3.3.6 3.3s-.2-1.2-.5-3.3c-.3-2.1-.8-5.1-.7-8.8.1-1.8.3-3.8.7-5.8.4-2 1.1-4.1 1.9-6.3.8-2.1 1.7-4.3 2.8-6.4 1-2.2 2.2-4.3 3.6-6.3 2.7-4 6.2-7.4 9.8-10.2 3.6-2.8 7.3-4.9 10.5-6.5 3.3-1.6 6.1-2.7 8.1-3.4 1.9-.8 3.1-1.1 3.1-1.1zm86.8 79.3s-.3.3-1 .7c-.7.5-1.7 1.1-3 1.9-.7.4-1.4.8-2.2 1.2-.8.4-1.7.9-2.6 1.3-1 .4-2 .9-3.1 1.4-1.1.5-2.2.9-3.4 1.4-1.2.5-2.5.9-3.8 1.4-1.3.5-2.7.9-4.1 1.3-2.9.8-5.9 1.6-9.1 2.3-.8.2-1.6.4-2.4.5-.8.1-1.6.3-2.5.4-.8.1-1.7.3-2.5.4-.8.1-1.7.2-2.5.3-.8.1-1.7.2-2.6.2-.9.1-1.7.2-2.6.2-1.7.1-3.5.1-5.2.2-3.5-.1-6.9 0-10.3-.3-3.4-.2-6.8-.5-10-.8-1.6-.2-3.2-.4-4.8-.5-1.6-.2-3.1-.4-4.5-.6-2.9-.4-5.7-.9-8.3-1.5-2.5-.6-4.8-1.2-6.9-1.8-1-.3-1.9-.6-2.8-1-.8-.4-1.6-.6-2.3-1-1.4-.6-2.4-1.2-3.1-1.6-.7-.5-1-.7-1-.7s.3.3 1 .8c.7.4 1.7 1.1 3.1 1.7.7.4 1.5.6 2.3 1 .9.3 1.8.7 2.8 1 2 .7 4.3 1.3 6.9 1.9 2.5.6 5.3 1.1 8.3 1.6 1.5.2 3 .5 4.6.7l4.8.6c3.3.3 6.6.6 10 .8 3.4.3 6.9.3 10.4.3 1.7-.1 3.5-.2 5.2-.2.9 0 1.7-.1 2.6-.2.9-.1 1.7-.2 2.6-.3.9-.1 1.7-.2 2.5-.3.8-.1 1.7-.3 2.5-.4.8-.1 1.7-.3 2.5-.4.8-.1 1.6-.3 2.4-.5 3.2-.6 6.3-1.5 9.1-2.4 1.4-.5 2.8-.9 4.1-1.4 1.3-.5 2.6-1 3.8-1.5 1.2-.5 2.4-1 3.4-1.5 1.1-.5 2.1-1 3-1.5.9-.5 1.8-1 2.6-1.4.8-.5 1.5-.9 2.2-1.3 1.3-.8 2.3-1.5 3-1.9.6-.2.9-.5.9-.5z" fill="#59402F"/><path d="M78.1 80.2s11.3 33.6 7.9 42.6c-1.5 3.9-2.4 6.6-4.4 11.3-6.1 14-5.9 18.7-3.8 21 2.1 2.3 9.3 5.9 8.1 7.7-1.2 1.8-21.7 4.2-26.4 2.8-1.9-.6-11.5-23.8-11.9-36.5-.4-12.7.8-17.1-1.3-26.1-7.6-33 31.2-29 31.8-22.8z" fill="#8D674A"/><path d="M78.7 164.6s0-.3-.3-.8c-.2-.5-.6-1-1.2-1.4-.5-.4-1.1-.7-1.6-.9-.5-.2-.8-.2-.8-.2l.2.2c.1.1.3.2.5.4.4.3.9.7 1.3 1.1.5.4.9.8 1.3 1.1.4.2.6.5.6.5zm5.4-1.6s-.1-.4-.5-.9c-.3-.5-.9-1.1-1.5-1.5-.3-.2-.7-.4-1-.5-.3-.1-.7-.2-1-.3-.3-.1-.5-.1-.7-.1h-.3s.1.1.2.1l.6.3c.5.3 1.1.6 1.7 1 .6.4 1.2.9 1.6 1.2.6.4.9.7.9.7z" fill="#59402F"/><path d="M78.2 166.1c-.2-.6-1.7-2.9-2.8-2.6-1.1.3-.1 1.2.6 1.7.7.6 2.3 1.3 2.2.9zm5.1-1.9c-.2-.6-1.7-2.9-2.8-2.6-1.1.3-.1 1.2.6 1.7.8.5 2.4 1.2 2.2.9zm3.3-1.2c-.2-.6-1.7-2.9-2.8-2.6-1.1.3-.1 1.2.6 1.7.7.6 2.3 1.3 2.2.9z" fill="#6C5F57"/><path d="M47.3 105.7s-3.9 12.2-6.2 12.9c0 0 2.7.9 3.9-1.1 0 0-3.5 3.2-3 7.8l2.4-1.9s-1.6 7.4.3 11.3l1.6-3.9s-.9 7.2 4.3 9.1" fill="#8D674A"/><path d="M41.3 118.5s.2 0 .5-.3c.3-.2.6-.5 1-1 .7-.9 1.5-2.2 2.1-3.6.3-.7.6-1.4.8-2.1.2-.7.4-1.3.6-1.9.3-1.1.4-1.8.4-1.8s-.3.7-.8 1.7-1 2.4-1.7 3.8c-.3.7-.6 1.4-.9 2-.3.6-.6 1.2-.9 1.7-.3.5-.5.9-.7 1.1l-.4.4zm.9 6.6s.1-.5.2-1.1c.1-.7.3-1.5.5-2.3.1-.4.3-.8.4-1.2.1-.4.3-.7.5-1 .2-.3.3-.5.4-.7.1-.2.2-.3.2-.3s-.1.1-.3.2c-.2.1-.4.3-.6.6-.2.3-.5.6-.7 1-.2.4-.4.8-.5 1.3-.1.4-.2.9-.2 1.3v1.2c-.1.6.1 1 .1 1zm2.5 9.2s-.3-.6-.5-1.7c-.1-.5-.2-1.1-.2-1.7 0-.6-.1-1.3 0-2 0-.7 0-1.4.1-2 0-.6.1-1.3.1-1.8s.1-1 .1-1.3v-.5s-.1.2-.2.5-.3.7-.4 1.2c-.1.5-.3 1.1-.4 1.8-.1.7-.2 1.4-.2 2.1 0 1.4.2 2.9.5 3.9.2.5.4.9.6 1.2.4.2.5.3.5.3zm4.4 4.7s-.1-.1-.3-.2c-.2-.2-.4-.4-.6-.8-.4-.7-.8-1.7-1-2.8-.3-1.1-.4-2.1-.6-3-.1-.8-.3-1.4-.3-1.4s0 .1-.1.4c0 .2-.1.6-.1 1v1.4c0 .3 0 .5.1.8.1.3.1.6.2.8.2.6.3 1.1.6 1.6.2.5.5.9.8 1.2.3.3.6.5.8.7.4.3.5.3.5.3zm-1.2-5.4s.5 2.3 1.4 5.7c.5 1.7 1 3.7 1.6 5.8.6 2.1 1.3 4.3 2.1 6.6.8 2.2 1.6 4.4 2.4 6.4.4 1 .8 2 1.3 2.9.4.9.9 1.8 1.3 2.5.4.8.9 1.4 1.4 2 .1.1.2.3.4.3.2.1.3.1.5.1.3 0 .6.1.8.1 1 .1 1.6 0 1.6 0s-.6 0-1.6-.2c-.3 0-.5-.1-.8-.1-.3-.1-.6-.1-.8-.4-.5-.5-.9-1.2-1.3-2-.8-1.5-1.6-3.4-2.4-5.5-.8-2-1.6-4.2-2.3-6.4-.8-2.2-1.5-4.4-2.1-6.5-.7-2.1-1.3-4-1.8-5.7-1-3.3-1.7-5.6-1.7-5.6zm33.6-42.7s.3 1.1.8 2.9c.5 1.9 1.1 4.5 1.8 7.7.3 1.6.7 3.4 1 5.2.3 1.9.6 3.8.8 5.8.2 2 .3 4.1.3 6.3 0 2.1-.5 4.2-1.2 6.3-1.3 4.2-3.1 8.2-4.7 11.9-.8 1.9-1.5 3.7-2.2 5.5-.6 1.8-1.1 3.5-1.4 5.1-.1.8-.2 1.6-.2 2.4 0 .7 0 1.5.1 2.1.1.7.3 1.3.6 1.8s.6.9 1 1.3c.7.7 1.3 1.1 1.8 1.4.4.3.7.4.7.4s-.2-.2-.6-.5c-.4-.3-1-.7-1.7-1.4s-1.3-1.7-1.4-3c-.1-.7 0-1.4 0-2.1 0-.7.1-1.5.2-2.3.6-3.2 2.1-6.7 3.7-10.5s3.4-7.8 4.8-12c.6-2.1 1.1-4.3 1.1-6.5.1-2.2-.1-4.3-.3-6.4-.2-2.1-.5-4-.9-5.9-.3-1.9-.7-3.6-1.1-5.2-.7-3.2-1.5-5.8-2-7.7-.7-1.6-1-2.6-1-2.6z" fill="#59402F"/><g transform="matrix(-1 0 0 1 245 21)"><path d="M70.8 1.1c-20.3-2.8-43.1 9.1-46.2 14.7-3.1 5.6-3.7 18.8-3.7 18.8S.4 45.4.8 49.6c.4 4.2 7 14.1 15.3 14.7 8.3.7 15.4 1.5 25.1 1 9.7-.5 27 1.7 35.8-8.1 0 0-1.2 4.3-2.9 5.5 0 0 11.4-2.6 8.4-13.5 0 0 2 1.8 1.4 7.5 0 0 6.1-6.2 2.2-15.2 0 0 2.7 4.9 5.4 4.9 0 0-2.6-3.8-2.5-10.3 0-6.5-1.2-32.6-18.2-35z" fill="#8D674A"/><path d="M67.7.3c-20.4-2-40.1 9.9-43.2 15.6-3.1 5.7-3.7 18.8-3.7 18.8S.4 45.4.8 49.6c.4 4.2 7 14.1 15.3 14.7 8.3.7 16.9 3.5 26.5 2.9 9.6-.6 25.6-.2 34.4-10 0 0-1.2 4.3-2.9 5.5 0 0 11.4-2.6 8.4-13.5 0 0 2 1.8 1.4 7.5 0 0 6.1-6.2 2.2-15.2 0 0 2.7 4.9 5.4 4.9 0 0 4.5-15.2 4.6-21.7.1-6.5-14-23-28.4-24.4z" fill="#8D674A"/><path d="M.8 49.6c.4 4 6.1 12.7 13.6 14.4 2.5-1.4 5.3-3.4 5.5-6.1 0 0 16.1-11.1 1.1-23.3-.1.1-20.6 10.8-20.2 15z" fill="#9E7B5C"/><path d="M1.7 52.9C.8 51.3-.6 49.7.3 48.3.8 47.4 2 45.9 3 46c1 0 2.5 3-.5 4.5.4 1.5-.2 2-.8 2.4z" fill="#332721"/><path d="M7.1 59.6s.5-.3 1.3-.7c.4-.2.9-.3 1.4-.5.5-.1 1.1-.3 1.7-.3.6-.1 1.2-.1 1.8-.1.6 0 1.1.1 1.5.2.4.1.8.2 1 .3l.4.2h-.4c-.3 0-.6-.1-1-.1h-1.5c-.5 0-1.1.1-1.7.1-1.1.1-2.3.3-3.1.5-.8.3-1.4.4-1.4.4z" fill="#59402F"/><ellipse fill="#332010" transform="rotate(-5.264 30.9 34)" cx="30.901" cy="34" rx="1.7" ry="2.6"/><path d="M34.1 27.2c.1 1.1-3 1.8-4.4 1.9-1.4.1-2.7-.6-2.8-1.7-.1-1.1 1-2 2.4-2.2 1.5 0 4.7.9 4.8 2z" fill="#9E7B5C"/><path d="M20.9 34.7v-2.3c.1-1.4.1-3.5.4-6 .1-1.2.3-2.6.6-4s.6-2.9 1.2-4.3c.3-.7.6-1.5 1-2.2.5-.7.9-1.3 1.5-2 1.1-1.2 2.3-2.4 3.6-3.4 1.3-1 2.7-1.9 4.1-2.7 1.4-.8 2.8-1.6 4.2-2.2 1.4-.7 2.8-1.2 4.1-1.7 1.4-.5 2.7-.9 3.9-1.2 1.2-.4 2.3-.7 3.3-.9 1-.2 1.8-.5 2.5-.6 1.4-.3 2.2-.5 2.2-.5s-.8.2-2.2.6c-1.4.4-3.4 1-5.7 1.7-1.2.4-2.4.8-3.7 1.4-1.3.5-2.7 1.1-4.1 1.8-1.4.7-2.8 1.4-4.2 2.2-1.4.8-2.7 1.8-4 2.7-1.3 1-2.5 2.1-3.6 3.3-.5.6-1 1.2-1.4 1.9-.4.7-.7 1.4-1 2.1-1.1 2.9-1.6 5.7-1.9 8.1-.7 4.9-.8 8.2-.8 8.2zm53.2 28.1s.3-.1.7-.2c.5-.1 1.1-.4 1.9-.8.4-.2.8-.4 1.2-.7.4-.2.8-.6 1.2-.9.4-.3.8-.7 1.2-1.1.4-.4.7-.8 1-1.3.3-.4.5-1 .8-1.4.2-.5.3-1 .5-1.5.1-.5.1-1 .2-1.5s0-.9 0-1.4c0-.4 0-.8-.1-1.2 0-.3-.1-.6-.1-.9-.1-.5-.1-.8-.1-.8s.1.3.2.8c.1.2.2.5.2.9.1.3.2.7.2 1.2 0 .4.1.9.1 1.4 0 .5 0 1-.1 1.6-.2.5-.2 1.1-.5 1.6-.2.5-.4 1.1-.8 1.6-.3.5-.7.9-1.1 1.4-.4.4-.9.8-1.3 1.1-.9.6-1.8 1.1-2.6 1.4-1.5.6-2.7.7-2.7.7zm9.8-6.1s.7-.7 1.5-2.1c.2-.3.4-.7.6-1.1.2-.4.4-.8.5-1.3.1-.2.2-.4.2-.7.1-.2.1-.5.2-.7l.3-1.5c.1-.5.1-1 .1-1.5s0-1-.1-1.5-.1-.9-.2-1.4l-.3-1.2c-.1-.4-.2-.7-.3-1-.1-.3-.2-.6-.2-.8-.1-.4-.2-.7-.2-.7l.3.6c.1.2.2.5.4.7.2.3.3.6.4 1 .1.4.3.8.4 1.2.1.4.2.9.3 1.4 0 .5.1 1 .1 1.5s0 1-.1 1.6l-.3 1.5c-.1.2-.1.5-.2.7-.1.2-.2.5-.3.7-.2.5-.4.9-.6 1.3-.2.4-.5.7-.7 1.1-.5.6-.9 1.1-1.3 1.4-.3.7-.5.8-.5.8zm7.5-10.3s-.2-.2-.4-.5c-.2-.4-.6-.9-.9-1.6-.3-.7-.6-1.5-.8-2.4-.2-.9-.4-1.9-.5-2.8-.1-.5-.1-1-.1-1.5s-.1-1-.1-1.4c-.1-.9 0-1.8 0-2.5s.1-1.3.1-1.8c0-.4.1-.7.1-.7s0 .2.1.7c0 .4.1 1 .1 1.8 0 .7.1 1.6.2 2.5.1.9.2 1.9.3 2.8.1 1 .2 1.9.4 2.8.2.9.4 1.7.6 2.4.2.7.4 1.2.6 1.6l.3.6zM65 .2s.4-.1 1.1-.2h1.2c.5 0 1 .1 1.6.2.6.1 1.2.2 1.9.4.6.2 1.3.3 2 .6.7.2 1.4.5 2.1.8.7.3 1.4.7 2.1 1 .7.3 1.4.8 2 1.1.7.4 1.3.8 1.9 1.2 1.2.8 2.3 1.6 3.2 2.3.5.3.9.7 1.2 1 .4.3.7.6.9.8.5.4.8.7.8.7l-.9-.6c-.3-.2-.6-.4-1-.7-.4-.3-.8-.6-1.3-.9-.5-.3-1-.7-1.6-1-.5-.4-1.2-.7-1.8-1.1-.6-.4-1.2-.8-1.9-1.1-.7-.4-1.3-.8-2-1.1-.7-.3-1.4-.7-2.1-1-.7-.3-1.4-.6-2-.9-1.3-.5-2.6-.9-3.8-1.2C68 .4 67.5.3 67 .2c-.5-.1-.9-.1-1.2-.1-.4 0-.8.1-.8.1z" fill="#59402F"/></g><path d="M193 24.1s-1.7-8.2-6.3-8.8c-4.6-.6-15.3 3.9-7.2 16.6" fill="#8D674A"/><path d="M186.5 17.8s-.4.6-.7 1.5c-.2.5-.4 1-.5 1.6-.2.6-.3 1.2-.3 1.9v1c.1.3.1.7.2 1l.3.9c.1.3.2.5.4.7.3.4.5.7.8.9l.3.3s-.1-.1-.2-.4c-.1-.1-.2-.3-.3-.4l-.3-.6c-.1-.2-.2-.5-.2-.7-.1-.3-.1-.5-.2-.8-.1-.3-.1-.6-.1-.9v-.9c0-.6.1-1.3.2-1.8.1-.6.2-1.1.3-1.6.1-1.1.3-1.7.3-1.7zm-2.3 9s0 .2.1.3c.1.2.2.4.4.6.2.2.4.4.6.5.2.1.3.1.3.1s0-.2-.1-.3c-.1-.2-.2-.4-.4-.6-.2-.2-.4-.4-.6-.5-.1 0-.3-.1-.3-.1zm-1.2 1.3s0 .1.1.3c.1.2.2.3.3.5.1.1.3.3.5.3.2.1.3.1.3.1s0-.1-.1-.3c-.1-.2-.2-.3-.3-.5-.1-.1-.3-.3-.5-.3-.1-.1-.3-.1-.3-.1z" fill="#59402F"/><path d="M180.1 17s.3-.1.7-.4c.5-.2 1.2-.5 2-.7.2-.1.4-.1.7-.2.2 0 .5-.1.7-.1h1.6c.3 0 .5.1.8.1.3.1.5.2.8.2.2.1.4.2.6.4.2.1.5.2.7.4.4.4.9.7 1.2 1.1.4.4.7.8 1 1.3.2.5.6.9.7 1.4.2.5.4.9.6 1.3.2.4.3.8.4 1.1l.3.9c.2.5.3.8.3.8s0-.3-.1-.8c0-.3-.1-.6-.2-.9-.1-.4-.1-.8-.3-1.2-.1-.4-.3-.9-.5-1.4-.1-.5-.4-1-.7-1.5-.2-.5-.6-1-1-1.5-.3-.5-.9-.9-1.3-1.3-.2-.2-.5-.3-.8-.5-.3-.1-.5-.3-.8-.4-.3-.1-.6-.2-.9-.2-.3.2-.6.1-.9.1h-.8c-.3 0-.5 0-.8.1-.3.1-.5.1-.7.2-.2.1-.5.2-.7.2-.4.1-.8.3-1.1.5-.3.2-.6.3-.8.5-.5.3-.7.5-.7.5z" fill="#59402F"/><path d="M147.3 92.4c-2.6 16.3-7.2 21.8-7.2 21.8s17.1 16.4 17.9 19.5c2.1 8-13.4 29.6-18.3 24.6-4.7-4.8-.2-13.6-.2-13.6s-16.7-14-18.1-14.9c-2.9-1.8-21.3-3.1-20.2-26.2 5.1-46.8 49.7-33.8 46.1-11.2z" fill="#8D674A"/><path d="M108.6 82.6s-7.1 10.7-9.5 10.7c0 0 2.4 1.7 4 0 0 0-4.3 2.1-5 6.6l2.8-1.2s-3.6 6.6-2.8 10.9l2.6-3.3s-2.8 6.6 1.7 10" fill="#8D674A"/><path d="M99.3 93.2s.2 0 .5-.1.8-.3 1.2-.7c1-.7 2-1.8 3-2.9.5-.6.9-1.2 1.4-1.8.4-.6.8-1.1 1.1-1.6.6-1 .9-1.7.9-1.7s-.5.6-1.2 1.4c-.7.9-1.7 2-2.6 3.2-.5.6-1 1.1-1.4 1.7-.5.5-.9 1-1.3 1.4-.4.4-.8.7-1 .9-.5.2-.6.2-.6.2zm-1.2 6.8s.2-.4.5-1.1c.3-.6.7-1.4 1.2-2.2.2-.4.5-.7.7-1.1.1-.2.2-.3.4-.5.1-.1.2-.3.4-.4.2-.2.4-.5.6-.6.2-.1.2-.2.2-.2s-.1 0-.3.1c-.2.1-.5.2-.8.4-.2.1-.3.2-.5.3-.2.1-.3.3-.5.4-.3.3-.6.7-.9 1.1-.5.8-.8 1.7-1 2.4v1.4zm-.1 9.6s-.1-.7.1-1.8c.1-1.1.4-2.4.9-3.8.2-.7.4-1.4.7-2 .2-.6.5-1.2.6-1.7.2-.5.4-.9.5-1.2.1-.3.2-.5.2-.5s-.1.1-.3.4c-.2.3-.4.6-.7 1.1-.6.9-1.2 2.3-1.6 3.7-.2.7-.4 1.4-.5 2.1-.1.7-.1 1.3-.1 1.9 0 .6.1 1 .2 1.3-.1.4 0 .5 0 .5zm41.3 34.8s-2.5-2.2-6.1-5.4c-1.8-1.6-4-3.5-6.3-5.6-1.2-1-2.4-2.1-3.7-3-1.3-.9-2.9-1.7-4.5-2.1-.8-.2-1.6-.4-2.3-.7-.8-.3-1.5-.6-2.2-.9-1.4-.7-2.7-1.6-4-2.4-.6-.5-1.2-.9-1.8-1.3-.6-.4-1.1-.9-1.6-1.4-1-1-1.7-2.1-2.3-3.2-1.2-2.1-1.8-4.1-2.1-5.5-.3-1.4-.4-2.2-.4-2.2s0 .8.3 2.2c.3 1.4.8 3.4 1.9 5.7.6 1.1 1.3 2.3 2.2 3.3.9 1.1 2.2 2 3.4 2.9 1.3.9 2.6 1.8 4.1 2.6 1.5.8 3.1 1.2 4.7 1.6 3.1.8 5.8 2.8 8.2 4.7 2.3 2 4.5 3.9 6.4 5.5 3.6 3.1 6.1 5.2 6.1 5.2zM102 116s-.5-.4-.9-1.3c-.2-.4-.4-.9-.5-1.5-.1-.3-.1-.6-.1-.9-.1-.3-.1-.6-.1-.9v-1.8c0-.6.1-1.1.1-1.6s.1-.9.1-1.1v-.4s-.1.1-.2.4c-.1.3-.3.6-.4 1.1-.1.5-.3 1-.3 1.6 0 .3-.1.6-.1.9v1c0 .7.1 1.3.3 1.9.1.3.2.6.3.8.1.3.3.5.4.7.3.4.6.7.8.9.4.2.6.2.6.2zm54.9 25.7c.4-.6.7-1.3.9-2 .2-.7.4-1.4.5-2.1.1-.7.1-1.5.2-2.2v-1.1c0-.4-.2-.8-.4-1.1-.7-1.3-1.6-2.5-2.4-3.7-.9-1.2-1.8-2.3-2.8-3.4-1.9-2.2-4-4.3-6-6.4-2-2.1-4.1-4.1-6.3-6.1v.4c1.3-2 2.3-4.1 3.1-6.3.4-1.1.8-2.2 1.1-3.4.2-.6.3-1.1.4-1.7.1-.6.2-1.2.3-1.7-.3 1.1-.6 2.3-1 3.4l-1.2 3.3c-.4 1.1-1 2.1-1.5 3.2-.5 1-1.1 2.1-1.7 3l-.1.2.2.2c2.1 2 4.2 4.1 6.2 6.1 2.1 2.1 4.1 4.1 6 6.3 1 1.1 1.9 2.2 2.9 3.3.9 1.1 1.8 2.3 2.5 3.5.2.3.3.6.3 1v1.1c0 .7 0 1.4-.1 2.2l-.3 2.1c-.2.6-.4 1.3-.8 1.9zm-18.9 9.7h.8c.5-.1 1.1-.3 1.7-.7.6-.4 1-.9 1.3-1.3.3-.4.4-.7.4-.7s-.1 0-.2.1-.3.2-.5.3c-.4.3-.9.7-1.4 1-.5.4-1 .7-1.4.9-.4.2-.7.4-.7.4zm.5 5.6s.4 0 .9-.2c.6-.2 1.3-.5 1.9-1.1.3-.3.6-.5.8-.8.2-.3.4-.6.5-.8.1-.3.2-.5.3-.7 0-.2.1-.3.1-.3l-.2.2-.5.5-1.4 1.4c-.5.5-1.1.9-1.6 1.2-.5.4-.8.6-.8.6z" fill="#59402F"/><path d="M136.6 150.4c.6 0 3.3-.9 3.3-2s-1.1-.4-1.9.1c-.8.5-1.8 1.9-1.4 1.9zm.5 5.5c.6 0 3.3-.9 3.3-2s-1.1-.4-1.9.1c-.7.6-1.8 1.9-1.4 1.9zm.9 3.5c.6 0 3.3-.9 3.3-2s-1.1-.4-1.9.1c-.7.6-1.8 1.9-1.4 1.9z" fill="#6C5F57"/><path d="M142.4 116.3s-.1-.4-.5-1c-.2-.3-.5-.6-.8-.9-.3-.3-.7-.6-1.1-.8l-1.2-.6c-.4-.1-.8-.2-1.1-.3-.3-.1-.6 0-.8-.1h-.3s.1.1.3.1c.2.1.4.2.7.3.3.1.7.3 1 .5.4.2.7.4 1.1.6.7.4 1.4.9 1.9 1.4.5.4.8.8.8.8z" fill="#59402F"/></g></svg>