<svg xmlns="http://www.w3.org/2000/svg" width="62.565" height="79.668" viewBox="0.34 0.151 62.565 79.668"><defs><style/></defs><g id="ID0.4984838617965579"><path id="ID0.9221888086758554" fill="#FF9400" d="M324 351c5.431.902 7.764 4.902 14 5-8.414 10.586-11.263 26.737-20 37-.304 14.565 2.541 18.345 4 33-3.357 2.309-7.662 3.671-14 3-1.941-10.655 1.494-22.322-1-31-1.347-4.684-7.949-6.292-11-10-11.44-16.995-16.362-19.603-19-27 .167-3.073 4.579-5.673 8-6 9.763 6.482 14.118 18.549 23 26 6.267-9.067 10.962-19.705 16-30z" transform="translate(-222.35 -288.6) scale(.83165)"/><path id="ID0.5840734699741006" d="M315 443h-14c-4.524-14.826.137-27.377-4-41-16.24-16.837-20.993-20.694-28-27-1.23-1.568-.127-1.373 0-2 2.48-1.533 3.791-4.209 7-5 .691-4.024-4.211-2.456-4-6 3.748-5.585 9.595-9.071 14-14 1 0 2.219-.796 3 0 3.039 3.322 4.953 7.488 7.65 11.1 2.967 4.051 5.587 13.496 9.35 11.9 5.399-2.466 5.067-14.266 9-20 4.474.143 5.554 1.786 6-3h7v1c5.912 1.421 10.531 4.135 15 7v2c-11.847 7.82-11.758 27.575-22 37 1.697 11.303 3.303 22.697 5 34-5.101 1.312-3.998 6.771-3 12-1.873 1.46-6.627.039-8 2zm-7-62c-8.882-7.451-15.357-21.099-23-26-3.403 1.263-7.222 2.97-8 6 10.091 14.137 13.32 20.025 19 27 3.073 3.754 9.642 5.299 11 10 2.596 8.987-.941 20.345 1 31 6.338.671 10.643-.691 14-3-1.459-14.655-4.304-18.435-4-33 8.737-10.263 11.586-26.414 20-37-6.236-.098-8.569-4.098-14-5-5.038 10.295-9.733 20.933-16 30z" transform="translate(-222.35 -288.6) scale(.83165)"/></g></svg>