<svg xmlns="http://www.w3.org/2000/svg" width="74.846" height="79.466" viewBox="0.939 0.529 74.846 79.466"><defs><style/></defs><g id="ID0.43227694323286414"><path id="ID0.1628495492041111" fill="#FF9400" d="M335 357c4.533 18.627 4.482 44.726 8 67-4.819-2.317-8.934 1.577-15 1 .656-12.291 1.445-20.799-2-32-4.114.553-5.256 4.078-5 9-4.019 7.314-8.57 14.097-11 23-6.662-8.005-8.048-21.285-17-27-2.142 7.097.811 20.317 2 30-6.152-.486-10.503 2.743-16 1-1.024-10.444-1.491-25.64-4-36 2.577-10.835-2.481-23.777 0-34 2.792-1.988 7.997-1.337 12-2 6.366 10.634 8.786 25.214 15 36 9.736-7.598 10.065-24.602 16-36 4.9-2.816 10.49 1.207 17 0z" transform="translate(-244.85 -325.65) scale(.92402)"/><path id="ID0.9830254283733666" d="M316 353h23c1.504 23.549 3.374 48.503 8 70v3c-4.901-.234-4.67 4.663-6 8-7.654-.654-13.237.763-19 2-2.974-10.647-.36-15.252-2-26-3.94 9.727-8.647 18.686-15 26-6.076-2.269-3.467-18.518-9-18 1.551 3.782.936 9.731 4 12-2.882 1.828-3.128 1.622-7 1-.171 2.829.86 6.86-2 7-4.969-.543-12.693-2.511-16 1h-2c-2.193-15.117.446-31.733-6-44 2.779-7.956 2.141-21.323-1-29v-3c7.042 1.376 6.069-5.264 9-8 5.779.445 10.247-.42 15-1 2.435 10.565 8.287 17.713 11 28 4.743-6.618 5.826-15.604 7-23h5c.957-2.043 2.043-3.957 3-6zm2 4c-5.935 11.398-6.264 28.402-16 36-6.214-10.786-8.634-25.366-15-36-4.003.663-8.704.63-12 2-2.115 10.05 5.8 23.633 0 34 4.33 8.678 4.629 25.565 4 36 6.446.779 9.848-1.486 16-1-1.189-9.683-4.142-22.903-2-30 8.952 5.715 10.338 18.995 17 27 2.43-8.903 6.981-15.686 11-23-.256-4.922.886-8.447 5-9 3.445 11.201 2.656 19.709 2 32 6.066.577 10.181-3.317 15-1-3.518-22.274-3.467-48.373-8-67-6.51 1.207-12.1-2.816-17 0z" transform="translate(-244.85 -325.65) scale(.92402)"/></g></svg>