<svg width="120" height="120" viewBox="0 0 120 120" xmlns="http://www.w3.org/2000/svg" xmlns:xlink="http://www.w3.org/1999/xlink"><defs><path id="a" d="M0 100.603h119.02V.748H0z"/></defs><g fill="none" fill-rule="evenodd"><path fill="#A88066" d="M9.267 40.277h100.488V37.97H9.267z"/><path fill="#EBE5D9" d="M9.267 37.97h100.488v-6.837H9.267z"/><path fill="#BB967C" d="M9.267 31.133h100.488v-.862H9.267z"/><path fill="#AA8165" d="M0 23.03l9.267 7.242h100.488l9.265-7.378z"/><path fill="#EAE3D9" d="M3.57 23.03l112.06-.09-5.874 4.615H9.266z"/><path fill="#E9E6D7" d="M9.267 22.623h100.488v-6.745H9.267z"/><path fill="#DAC99E" d="M9.267 15.878h100.488v-1.81H9.267z"/><path fill="#A98064" d="M9.267 14.067h100.488v-1.629H9.267z"/><path fill="#ECE4D9" d="M9.267 12.438h100.488v-1.04H9.267z"/><path fill="#EBE4DA" d="M80.913 106.048h28.842v-65.77H80.913zm-71.646 0h28.839v-65.77H9.266z"/><path fill="#A98064" d="M38.106 106.048h5.333V64.856h-5.333zm37.474 0h5.333V64.856H75.58z"/><path fill="#EBE2D9" d="M9.267 106.047l-3.074 5.205h41.089l-3.753-5.205z"/><path fill="#E8E4D8" d="M80.913 59.152l-7.367.045 2.034 5.659h5.333z"/><path fill="#EBE4DA" d="M38.106 59.152l7.413.045-2.08 5.659h-5.333z"/><path fill="#EBE2D9" d="M75.49 106.047l-3.076 5.205h41.09l-3.749-5.205z"/><g transform="translate(0 10.65)"><path d="M59.532 30.713c10.081 0 18.354 7.83 18.985 17.789H75.67c-.677-8.328-7.638-14.938-16.137-14.938-8.542 0-15.504 6.61-16.185 14.938h-2.846c.632-9.958 8.905-17.789 19.031-17.789" fill="#AA8067"/><path d="M40.501 48.503c.632-9.959 8.905-17.789 19.031-17.789 10.08 0 18.355 7.83 18.986 17.789h2.395V29.627H38.105v18.876h2.396z" fill="#DBC89E"/><mask id="b" fill="#fff"><use xlink:href="#a"/></mask><path d="M18.17 16.907h5.107v-2.761H18.17v2.76zm7.55 0h5.107v-2.761H25.72v2.76zm7.548 0h5.108v-2.761h-5.108v2.76zm7.55 0h5.109v-2.761h-5.109v2.76zm7.549 0h5.108v-2.761h-5.108v2.76zm7.549 0h5.108v-2.761h-5.108v2.76zm7.549 0h5.108v-2.761h-5.108v2.76zm7.55 0h5.108v-2.761h-5.108v2.76zm7.549 0h5.107v-2.761h-5.107v2.76zm7.547 0h5.107v-2.761h-5.107v2.76zm7.552 0h5.107v-2.761h-5.107v2.76zm7.549 0h5.108v-2.761h-5.108v2.76zm-90.635 0h5.153v-2.761h-5.153v2.76zm3.209-4.934h5.198V5.23h-5.198zm8.678 0h5.2V5.23h-5.2zm8.68 0h5.2V5.23h-5.2z" fill="#AA8165" mask="url(#b)"/><path fill="#A97F66" mask="url(#b)" d="M39.825 11.973h5.197V5.23h-5.197z"/><path fill="#AA8165" mask="url(#b)" d="M48.5 11.973h5.201V5.23h-5.2zm8.681 0h5.2V5.23h-5.2zm8.679 0h5.2V5.23h-5.2zm8.68 0h5.199V5.23h-5.2zm8.677 0h5.2V5.23h-5.2zm8.636 0h5.244V5.23h-5.244zm8.677 0h5.246V5.23h-5.245z"/><path d="M24.183 9.754h1.764V7.446h-1.764v2.308zm8.679 0h1.764V7.446h-1.764v2.308zm8.678 0h1.763V7.446H41.54v2.308zm8.68 0h1.764V7.446H50.22v2.308zm8.633 0h1.81V7.446h-1.81v2.308zm8.68 0h1.809V7.446h-1.81v2.308zm8.681 0h1.806V7.446h-1.806v2.308zm8.676 0h1.81V7.446h-1.81v2.308zm8.68 0h1.808V7.446h-1.809v2.308zm8.68 0h1.808V7.446h-1.808v2.308zm-86.746 0h1.762V7.446h-1.762v2.308z" fill="#DDC79E" mask="url(#b)"/><path fill="#A97F66" mask="url(#b)" d="M86.519 100.603h16.408v-5.205H86.519zm-69.569 0h15.73v-5.205H16.95z"/><path fill="#DCC99F" mask="url(#b)" d="M19.074 84.85h11.483v-3.032H19.074z"/><path fill="#DCC99F" mask="url(#b)" d="M17.266 84.85h15.1v-1.084h-15.1z"/><path d="M24.815 81.366c3.661 0 6.6-5.704 6.6-12.72 0-7.015-2.939-12.72-6.6-12.72-3.66 0-6.645 5.705-6.645 12.72 0 7.016 2.985 12.72 6.645 12.72" fill="#DBC89E" mask="url(#b)"/><path fill="#A97F66" mask="url(#b)" d="M9.267 50.314h28.839v-1.586H9.266z"/><path fill="#DBC89E" mask="url(#b)" d="M9.267 53.394h28.839v-3.08H9.266z"/><path d="M13.379 43.206h20.66v-9.869h-20.66v9.87zm-1.989 1.358h24.637V31.98H11.39v12.584z" fill="#DAC99E" mask="url(#b)"/><path fill="#DCC99F" mask="url(#b)" d="M89.594 84.85h11.48v-3.032h-11.48z"/><path fill="#DCC99F" mask="url(#b)" d="M87.784 84.85h15.1v-1.084h-15.1z"/><path d="M95.333 81.366c3.616 0 6.6-5.704 6.6-12.72 0-7.015-2.984-12.72-6.6-12.72-3.663 0-6.645 5.705-6.645 12.72 0 7.016 2.982 12.72 6.645 12.72" fill="#DBC89E" mask="url(#b)"/><path fill="#A98064" mask="url(#b)" d="M80.913 50.314h28.842v-1.586H80.913z"/><path fill="#DBC89E" mask="url(#b)" d="M80.913 53.394h28.842v-3.08H80.913z"/><path d="M84.98 43.206h20.66v-9.869H84.98v9.87zm-1.943 1.358h24.592V31.98H83.037v12.584z" fill="#DFCFAE" mask="url(#b)"/><path fill="#A58065" mask="url(#b)" d="M0 12.652h119.02v-.679H0z"/><path fill="#DBC89E" mask="url(#b)" d="M80.913 95.398h28.842V84.85H80.913zm-71.646 0h28.839V84.85H9.266z"/><path fill="#EBE4DA" mask="url(#b)" d="M89.594 95.398h11.48V84.85h-11.48zm-70.52 0h11.483V84.85H19.074z"/></g></g></svg>