<svg width="120" height="120" viewBox="0 0 120 120" xmlns="http://www.w3.org/2000/svg"><path d="M76.802 98.834c-4.932 5.244-10.3 10.832-18.056 10.487 3.336-16.404 2.075-33.95.64-50.342-.846-9.646-2.111-19.315-4.485-28.715-2.118-8.388-4.752-17.98-10.89-24.39-.3-.312-.825.09-.6.463 10.04 16.687 12.75 36.38 14.258 55.52.775 9.816 1.179 19.51.748 29.146-4.893-3.725-9.719-7.521-14.326-11.598-2.313-2.047-4.735-4.105-5.83-7.123-1.182-3.258.233-7.1 1.064-10.336 4.276 4.774 9.523 7.789 15.777 9.257.606.142 1.145-.634.638-1.097-3.856-3.513-7.796-6.94-11.62-10.487-4.612-4.275-5.884-8.185-5.283-14.372.025-.25.565-7.68 1.104-7.81.958-.229 3.86 2.745 4.623 3.306 3.197 2.357 6.69 4.141 10.366 5.613.473.19 1.046-.387.859-.86-1.036-2.616-3.581-4.06-5.72-5.772-2.996-2.4-5.99-4.819-9.081-7.093.67-4.177-.09-12.098 4.648-12.107.581 0 .835-.594.616-1.074-.648-1.413-1.722-1.836-2.58-3.045-1.923-2.711-.69-5.249-.907-8.164-.171-2.312-1.049-4.307-2.392-6.033 6.586 2.216 11.889 5.861 17.312 10.337-.752 3.457-2.146 6.394-4.342 9.206-.495.633.107 1.592.896 1.163 3.183-1.729 5.294-4.046 6.701-7.243a144.349 144.349 0 0 1 3.619 3.058c.82.72 3.915 2.921 4.298 3.948 1.641 4.385-2.678 8.286-5.61 10.827-.583.506.051 1.351.705 1.21 3.856-.83 6.771-2.733 8.936-5.9 4.014 6.068 7.1 12.794 8.565 19.952 2.156 10.537-9.304 16.036-17.792 18.511-.756.22-.6 1.341.184 1.363 4.957.138 9.772-.536 14.407-2.356 1.55-.608 3.633-2.422 5.082-1.383 1.468 1.05 2.326 7.063 2.91 8.829a.56.56 0 0 0 .118.209c-5.726 3.553-10.9 6.984-17.396 9.193-.668.228-.766 1.274 0 1.458 6.235 1.495 12.053.003 17.946-1.983-1.696 6.353-5.614 11.448-10.11 16.227m-36.947-3.31c-2.972-4.792-4.997-10.01-6.205-15.481 5.733 5.878 13.142 10.655 21.27 12.12a.472.472 0 0 0 .48-.178c.967.222 1.936.397 2.944.533-.314 5.805-.939 11.59-1.985 17.368-6.749.303-13.44-9.425-16.504-14.363m47.926-14.842c-5.127 1.796-10.28 3.448-15.645 2.918 5.541-2.097 11.04-5.006 15.072-9.3a.372.372 0 0 0 .061-.423.5.5 0 0 0 .056-.445 6025.54 6025.54 0 0 0-3.255-10.66c-.128-.419-.613-.635-1.002-.409-4.6 2.689-9.414 4.264-14.541 4.745 6.386-2.466 13.556-6.745 14.563-13.275 1.351-8.762-4.875-19.772-9.591-26.66-.295-.43-.935-.48-1.22 0-1.363 2.304-3.16 3.98-5.384 5.05 2.285-2.21 4.643-5.139 4.558-7.74-.138-4.223-7.349-8.23-10.278-10.59-.464-.374-1.068-.237-1.277.336-.785 2.152-1.888 3.856-3.39 5.259 1.022-1.97 1.686-4.057 2.055-6.358.547.087 1.031-.552.577-1.086C53.837 5.81 45.983 2.024 38.178.023c-.669-.174-1.268.711-.706 1.21 2.622 2.327 3.935 5.034 3.865 8.585-.03 1.562-.662 3.137-.297 4.71.486 2.101 2.157 3.013 3.32 4.568a19.26 19.26 0 0 0-2.468.18c-.418.042-.678.3-.719.72-.395 4.026-.913 8.117-.915 12.172-.454-.052-.871.612-.46.975 2.533 2.229 5.18 4.333 7.806 6.451 1.673 1.353 4.23 2.795 5.789 4.618-3.363-1.48-6.483-3.29-9.418-5.57-1.304-1.014-2.55-2.81-4.326-2.621-.193.022-.425.093-.51.292-1.964 4.526-3 13.249-1.163 17.932 1.147 2.924 3.618 4.974 5.886 7.013 2.964 2.667 5.94 5.318 8.923 7.966-5.027-1.554-9.397-4.247-13.211-8.041-.149-.15-.324-.124-.447-.026a.48.48 0 0 0-.63.283c-2.084 5.313-2.993 10.87.937 15.498 4.634 5.46 11.12 10.057 17.07 14.257a20.63 20.63 0 0 1-2.677-.46.442.442 0 0 0-.16-.002c-8.058-2.896-14.741-6.541-20.617-13.145-.452-.508-1.137.048-1.04.605 1.379 8.015 4.45 15.577 9.338 22.104 3.247 4.334 8.698 11.353 14.82 10.627a119.11 119.11 0 0 1-1.797 8.011c-.286 1.089 1.31 1.508 1.669.463.947-2.753 1.709-5.555 2.344-8.392.08.027.154.06.248.066 7.729.48 13.2-4.513 18.207-9.784 5.41-5.69 10.29-11.798 11.892-19.658.108-.533-.354-1.157-.95-.95" fill="#3C3C3B" fill-rule="evenodd"/></svg>