<svg width="120" height="120" viewBox="0 0 120 120" xmlns="http://www.w3.org/2000/svg" xmlns:xlink="http://www.w3.org/1999/xlink"><defs><path id="a" d="M.326.821h18.369v29.415H.325z"/><path id="c" d="M.209.694h39.084v63.322H.209z"/></defs><g fill="none" fill-rule="evenodd"><path d="M90.5 22.776c5.096-2.027 13.704 2.08 15.478-2.058 1.872-4.366-10.907-1.628-13.158-.848-1.077.373-4.915 1.332-4.092 3.105l1.773-.2z" fill="#D36011"/><path d="M58.455 91.358a2.134 2.134 0 0 1 2.02-2.242 2.133 2.133 0 0 1 2.23 2.03l.675 13.743c4.655-.213 12.232-1.025 13.883.734 1.187 1.266-5.978 2.024-.662 8.993 1.42 1.861-3.713 1.723-14.068-4.57-2.784-1.691-3.608-3.01-3.351-3.885l-.727-14.803z" fill="#F47A00"/><g transform="matrix(-1 0 0 1 57.18 89.07)"><mask id="b" fill="#fff"><use xlink:href="#a"/></mask><path d="M18.6 18.144c.01-.115.016-.231.005-.35L17.311 2.776A2.13 2.13 0 0 0 15.008.83a2.136 2.136 0 0 0-1.936 2.314l1.21 14.039c-4.676.3-12.507.258-13.867 2.362-.969 1.501 6.32 1.513 2.202 9.638-1.1 2.169 4.006 1.442 13.277-6.517 2.444-2.099 3.067-3.6 2.707-4.522" fill="#FF8B00" mask="url(#b)"/></g><path d="M54.409 91.861c.715 4.687 3.784 8.102 6.853 7.628 3.07-.473 4.978-4.656 4.262-9.343-.716-4.686-3.784-8.102-6.853-7.629-3.07.474-4.979 4.658-4.262 9.344" fill="#E8D7C4"/><path d="M87.663 64.132C84.203 82.013 64.6 97.215 45.333 93.78 26.062 90.348 8.84 70.864 14.471 46.557c2.457-10.605 4.455 15.954 24.767 6.794 20.308-9.157 50.922-2.131 48.424 10.78" fill="#F5E2CB"/><path d="M35.723 90.77c-.196 4.737 2.161 8.682 5.264 8.811 3.103.13 5.776-3.606 5.973-8.343.195-4.738-2.161-8.683-5.264-8.813-3.103-.129-5.777 3.606-5.973 8.344" fill="#F5E2CB"/><g transform="matrix(-1 0 0 1 96.66 .25)"><mask id="d" fill="#fff"><use xlink:href="#c"/></mask><path d="M39.293 50.015c-16.404-6.694.726-28.225-9.686-42.084C24.295.86 14.72-.966 8.442 2.175c-16.359 8.184-4.144 21.316.923 19.723 10.05-3.163 10.92 1.7 3.953 16.261C9.56 46.01 8.383 55.243 8.858 62.2c.383 5.618 5.455-4.036 8.808.66l21.627-12.845z" fill="#F5E2CB" mask="url(#d)"/></g><path d="M84.273 11.048c-.544 4.295-.657 4.778 4.544 4.49 3.46-.19 3.915.571 4.41-3.344.316-2.486-1.434-4.758-3.907-5.074-2.472-.317-4.733 1.442-5.047 3.928" fill="#FFF"/><path d="M85.827 11.121a2.962 2.962 0 0 0 2.239 3.533 2.947 2.947 0 0 0 3.514-2.251 2.963 2.963 0 0 0-2.239-3.532 2.947 2.947 0 0 0-3.514 2.25m.313-5.346a.442.442 0 0 1-.295-.698c.924-1.245 2.21-1.83 3.539-1.592a.438.438 0 0 1 .355.508.434.434 0 0 1-.505.356c-.992-.168-1.97.284-2.687 1.252a.434.434 0 0 1-.406.174" fill="#000"/><path d="M84.948 17.733c-.287 1.32-1.916 2.082-3.638 1.703-1.722-.378-2.884-1.755-2.598-3.073.287-1.319 1.916-2.081 3.637-1.703 1.722.378 2.886 1.754 2.6 3.073" fill="#FFB0DD"/><path d="M96.41 10.404c-1.268-2.358-.144 8.185-6.562 8.545-5.372.302-3.315 6.121 1.976 3.264 4.464-2.41 16.657.962 15.027-3.857-.634-1.877-6.955-1.467-10.442-7.952" fill="#FF9D00"/><path d="M62.664 51.013c-14.333-.276-14.35 15.448-24.45 8.1-.636-.463-2.248-2.564-2.983-3.317-2.164-2.222-4.297 4.573-.17 9.5-3.071-1.893-4.59-4.652-5.801-4.698-1.649-.062-2.449 7.983 3.119 10.774-2.503-.236-5.753-3.616-5.742-.885.02 5.2 5.909 11.224 12.873 13.431 11.757 3.725 21.256-2.405 24.06-5.794 11.784-14.236 6.673-26.966-.906-27.111" fill="#AF7E7E"/></g></svg>