<svg xmlns="http://www.w3.org/2000/svg" width="59.525" height="81.92" viewBox="-0.053 -1.043 59.525 81.92"><defs><style/></defs><g id="ID0.4446126422844827"><path id="ID0.08609286043792963" d="M283 352h3c8.197 0 8.483-.089 11 0 12.032 2.021 29.416-2.221 42 2 2.137 12.727 2.681 14.617 1 18-8.397 11.495-20.687 22.653-28 33 5.883 2.838 15.574-5.082 26-4 1.091 6.35-.153 15.666 1 24-2.162 2.255-3.411-.828-7 0-.708 3.708 1.708 4.292 1 8-18.825 1.85-38.265-.018-51 6h-2c-3.149-7.683-.482-15.342-3-24 10.648-11.686 18.798-25.869 30-37-10.825-1.376-19.675 4.169-29 1-.777-8.477.06-10.983-1-18 .726-2.274 6.921.921 6-3v-6zm4 5c-1.067 2.847-1.067 6.968 0 11 14.546 1.645 23.06-3.731 34 0-4.034 12.966-16.864 17.136-20 31-6.542 6.012-18.481 15.415-13 27 16.922-.011 34.726-6.639 47-5-1.311-6.049 2.708-10.06-1-16-10.117 1.889-23.034 6.291-31 7 5.688-19.333 32.615-26.035 33-54-18.681-1.341-31.73-.473-49-1z" transform="translate(-254.25 -322.2) scale(.91817)"/><path id="ID0.5058415131643414" fill="#FF9400" d="M336 358c-.385 27.965-27.312 34.667-33 54 7.966-.709 20.883-5.111 31-7 3.708 5.94-.311 9.951 1 16-12.274-1.639-30.078 4.989-47 5-5.481-11.585 6.458-20.988 13-27 3.136-13.864 15.966-18.034 20-31-10.94-3.731-19.454 1.645-34 0-1.067-4.032-1.067-8.153 0-11 17.27.527 30.319-.341 49 1z" transform="translate(-254.25 -322.2) scale(.91817)"/></g></svg>