<svg width="120" height="120" viewBox="0 0 120 120" xmlns="http://www.w3.org/2000/svg" xmlns:xlink="http://www.w3.org/1999/xlink"><defs><path id="a" d="M0 .084h119.677v90.69H0z"/><path id="c" d="M0 103.785h119.677V0H0z"/></defs><g transform="translate(0 8)" fill="none" fill-rule="evenodd"><g transform="translate(0 13.01)"><mask id="b" fill="#fff"><use xlink:href="#a"/></mask><path d="M59.839 90.775c-17.553 0-49.466-2.047-59.84-5.683 6.384-7.046 10.107-35.23 5.32-38.867C21.544 39.633 57.446 7.585 59.84.085c2.394 7.5 38.297 39.548 54.52 46.14-4.788 3.637-1.065 31.821 5.318 38.867-10.372 3.636-42.286 5.683-59.838 5.683" fill="#EF4F22" mask="url(#b)"/></g><path d="M5.32 59.235c16.223-6.591 52.125-38.639 54.519-46.14 2.394 7.501 38.297 39.549 54.52 46.14-13.494 2.742-39.413 4.183-54.52 4.183-15.107 0-41.027-1.44-54.52-4.183" fill="#EF4F22"/><path d="M100.657 61.224c-13.422 1.444-29.928 2.193-40.818 2.193-10.89 0-27.397-.75-40.818-2.193 16.792-14.468 38.992-40.827 40.818-48.13 1.825 7.303 24.026 33.662 40.818 48.13" fill="#FFC510"/><path d="M85 62.535c-9.166.584-18.285.883-25.161.883-6.876 0-15.995-.3-25.16-.883 10.06-14.124 24.042-41.91 25.16-49.44 1.119 7.53 15.1 35.316 25.162 49.44" fill="#EF4F22"/><path d="M71.983 63.18c-4.444.157-8.593.238-12.144.238s-7.7-.08-12.145-.238c4.782-13.903 11.607-42.44 12.145-50.085.537 7.646 7.363 36.182 12.144 50.085" fill="#FFC510"/><path d="M6.406 99.708c5.462-10.64 7.808-31.068 6.435-39.232 14.166 1.933 34.362 2.942 46.998 2.942 12.635 0 32.832-1.01 46.998-2.942-1.372 8.164.973 28.592 6.435 39.232-13.714 2.627-38.66 4.077-53.433 4.077-14.774 0-39.719-1.45-53.433-4.077" fill="#FFC510"/><path d="M59.839 103.785c-11.507 0-29.185-.88-42.92-2.509 6.225-10.378 8.375-32.846 8.12-39.467 12.08 1.06 25.492 1.609 34.8 1.609 9.308 0 22.719-.55 34.801-1.609-.257 6.62 1.894 29.089 8.12 39.467-13.736 1.63-31.414 2.51-42.921 2.51" fill="#EF4F22"/><mask id="d" fill="#fff"><use xlink:href="#c"/></mask><path fill="#EF4F22" mask="url(#d)" d="M59.171 19.3h1.335V6.415H59.17z"/><path d="M59.839 4.368a2.197 2.197 0 0 0 2.202-2.184A2.197 2.197 0 0 0 59.839 0c-1.212 0-2.2.982-2.2 2.184 0 1.202.988 2.184 2.2 2.184" fill="#FFC510" mask="url(#d)"/><path d="M49.433 25.76c5.653-5.599 9.66-10.326 10.406-12.665.746 2.339 4.754 7.066 10.406 12.665-3.24.545-6.747.844-10.406.844-3.66 0-7.165-.299-10.406-.844" fill="#571407" mask="url(#d)"/><path d="M59.839 103.785c-6.275 0-14.386-.261-22.692-.764 5.337-11.378 6.48-31.966 7.448-39.962 5.61.238 10.879.359 15.244.359s9.634-.121 15.244-.359c.968 7.996 2.11 28.584 7.447 39.962-8.306.503-16.415.764-22.691.764" fill="#FFC510" mask="url(#d)"/><path d="M83.514 102.897c11.433 0 12.305-7.984 12.701-11.876-21.827-4.735-36.24-19.633-36.376-27.604-.136 7.97-14.55 22.869-36.376 27.604.396 3.892 1.269 11.876 12.701 11.876h47.35z" fill="#FFC510" mask="url(#d)"/><path d="M82.53 103.022c-8.305.502-16.416.764-22.69.764-6.276 0-14.387-.262-22.693-.764l.06-.24c8.321-1.364 17.439-13.532 22.496-31.394 5.094 17.992 14.78 30.166 22.776 31.427l.052.207zM60.45 10.854C41.216 7.59 38.57 31.957 10.84 23.98c7.166-1.117 13.241-3.547 13.554-5.831-4.518-.859-8.725-2.858-8.725-6.431 17.447 6.286 25.547-14.43 44.781-6.572v5.707z" fill="#571407" mask="url(#d)"/><path d="M5.363 59.244a3.868 3.868 0 0 0-.086.814c0 2.512 2.383 4.548 5.322 4.548 1.973 0 3.694-.916 4.613-2.28.546 2.016 2.659 3.519 5.183 3.519 1.873 0 3.518-.827 4.467-2.075.764 1.713 2.703 2.929 4.974 2.929 2.16 0 4.019-1.1 4.853-2.681.62 1.924 2.682 3.337 5.13 3.337 2.21 0 4.106-1.15 4.91-2.79.663 1.866 2.692 3.226 5.094 3.226 2.268 0 4.206-1.215 4.97-2.924.709 1.8 2.7 3.1 5.046 3.1 2.345 0 4.338-1.3 5.046-3.1.764 1.709 2.702 2.924 4.971 2.924 2.4 0 4.43-1.36 5.092-3.226.805 1.64 2.7 2.79 4.91 2.79 2.449 0 4.51-1.413 5.13-3.337.835 1.58 2.694 2.681 4.854 2.681 2.272 0 4.21-1.216 4.973-2.929.95 1.248 2.596 2.075 4.467 2.075 2.525 0 4.638-1.503 5.185-3.518.919 1.363 2.639 2.28 4.611 2.28 2.94 0 5.322-2.037 5.322-4.549 0-.278-.029-.55-.085-.814-13.505 2.736-39.385 4.173-54.476 4.173-15.092 0-40.971-1.437-54.476-4.173" fill="#FFF" mask="url(#d)"/></g></svg>