<svg width="120" height="120" viewBox="0 0 120 120" xmlns="http://www.w3.org/2000/svg"><g fill="none" fill-rule="evenodd"><path d="M119.93 96.109c0 3.926-26.846 7.109-59.965 7.109C26.848 103.218 0 100.035 0 96.109S26.848 89 59.965 89c33.119 0 59.965 3.183 59.965 7.109" fill="#C6C2AF"/><path d="M7.86 96.238S8.37 70.689 3 64.124c0 0 5.353 4.114 6.7 14.344 0 0-2.02-11.63 5.518-18.468 0 0-6.865 9.718-.941 23.314 0 0-2.154-7.538.941-11.98 0 0-1.345 8.614 2.155 11.71 0 0 2.138-11.919-.615-16.864 0 0 3.845 5.288 3.845 14.846 0 0-.269-7.026 2.289-8.292 0 0-2.154 2.773 0 9.233 0 0-.348-12.922 5.412-13.864 0 0-5.278 6.192-1.913 13.864 0 0 5.172-13.394 1.913-21.638 0 0 4.952 7.64 3.337 19.62 0 0 1.48-11.307 5.115-14.808 0 0-3.634 9.018-2.154 14.673 0 0 6.327-11.442 3.904-18.845 0 0 4.336 13.864.553 23.422 0 0 5.37-7.404 3.35-14.269 0 0 2.659 5.789.454 13.461 0 0 1.433-6.567 3.72-6.057 0 0-3.04 3.23.566 6.327 0 0 3.124-7.539 0-12.654 0 0 5.087 4.712 2.934 11.98 0 0 4.428-10.424.53-17.327 0 0 4.45 6.02 2.431 16.115 0 0 2.289-11.153 5.788-13.182 0 0-4.173 6.318-1.75 12.24 0 0 2.02-1.094 1.75-5.056 0 0 2.002 3.71.665 8.018 0 0 3.92-7.673 1.627-12.384 0 0 3.496 6.461 1.746 11.442 0 0 4.308-12.264-1.211-20.199 0 0 6.461 8.622 4.442 19.391 0 0 .673-8.64 3.096-9.503 0 0-2.02 8.022 0 10.042 0 0 5.089-9.155 2.827-18.173 0 0 2.833 6.327.81 17.096 0 0 .483-8.75 4.952-9.962 0 0-4.82 4.577-1.455 10.634 0 0 6.993-9.84 1.477-19.525 0 0 6.196 8.891 2.966 20.333 0 0 6.46-8.75 3.903-14.537 0 0 3.207 6.46 1.133 13.999 0 0 1.425-7 3.848-8.615 0 0-2.289 5.115 1.48 9.422 0 0 1.956-2.692.843-6.46 0 0 3.06 3.364 1.446 7.537 0 0 3.706-11.98-3.128-20.326 0 0 8.108 6.461 5.416 19.518 0 0 1.75-11.98 8.211-8.345 0 0-6.192-1.885-4.576 8.75 0 0 3.66-2.168 2.274-5.654 0 0 3.783 1.346 1.696 5.385 0 0 5.452-8.572-.74-16.334 0 0 6.058 4.622 3.635 14.987 0 0 1.884-8.345 5.25-9.153 0 0-2.558 2.154-1.75 7.538 0 0 4.98-4.712 2.422-11.442 0 0 3.346 4.442.73 13.327 0 0 2.502-9.962 7.213-9.155 0 0-5.482 4.498-5.862 22.617H7.86z" fill="#6BA543"/><path d="M119.91 77c-1.198 1.385-2.663 2.674-4.36 3.871-.205.582-.36 1.077-.462 1.43.124-.458.232-.903.326-1.336C98.608 92.692 59.584 95.681 34 96.325h82.28c.216-10.254 2.065-16.143 3.63-19.325" fill="#66963C"/></g></svg>