<svg width="120" height="120" viewBox="0 0 120 120" xmlns="http://www.w3.org/2000/svg"><g fill="none" fill-rule="evenodd"><path d="M36.462 119.748l-.091-.28s.517-.254 1.166-.343l-.053-.184a.42.42 0 1 1 .174 0l.048.165a2.98 2.98 0 0 1 .262-.01c.478 0 .815.103.815.103l-.048.303a2.887 2.887 0 0 0-.514-.044c-.186 0-.414.014-.716.046-.31.033-.65.113-1.043.244" fill="#CAC9C4"/><path d="M56.383.584s6.879.026 7.396 0c.517-.027 18.916 71.685-2.717 93.395 0 0-27.459-72.475-4.679-93.395" fill="#513B32"/><path d="M59.53 90.735C72.616 5.6 63.779.584 63.779.584c2.2-.917 7.16.304 11.163 3.506 2.909 2.328 7.414 3.88 9.818 4.593a5.628 5.628 0 0 1 3.033 2.184c8.977 12.912 17.04 57.185 18.92 68.08l-12.587 3.708c-5.489-11.154-9.374-31.712-9.374-31.712-1.1 11.186 6.235 52.078 6.235 52.078-7.518 19.621-31.204 5.135-31.204 5.135l-.253-17.42" fill="#DE4D2B"/><path d="M60.86 91.014c-.222-1.22-.6-2.71-.78-3.902a1134.56 1134.56 0 0 1-.55 3.623l.253 17.42s.314.193.876.5c2.426-.192 3.818-1.15 3.818-1.15s-2.856-12.337-3.616-16.491" fill="#C6422B"/><path d="M60.632 90.735C47.546 5.6 56.383.584 56.383.584c-2.2-.917-7.16.304-11.163 3.506-2.91 2.328-7.414 3.88-9.818 4.593a5.63 5.63 0 0 0-3.034 2.184C23.392 23.78 15.33 68.052 13.45 78.947l12.586 3.708c5.49-11.154 9.374-31.712 9.374-31.712 1.1 11.186-6.234 52.078-6.234 52.078 7.518 19.621 33.68 4.497 33.68 4.497l-2.223-16.783" fill="#DE4D2B"/><path d="M13.037 81.383l11.92 3.3c.366-.63.725-1.31 1.078-2.028L13.45 78.946c-.269 1.56-.412 2.437-.412 2.437" fill="#C6422B"/><path d="M13.037 81.383l11.92 3.3c.366-.63.725-1.31 1.078-2.028L13.45 78.946c-.269 1.56-.412 2.437-.412 2.437M56.383.584s-2.804-2.998-8.003 9.641c-2.148 5.218-8.523 1.682-8.523 1.682s-2.16 24.55 19.444 69.966c0 0-9.826-59.133-2.918-81.29" fill="#C6422B"/><path d="M20.995 76.692l1.16-3.828-7.225-2.113c-.27 1.437-.513 2.76-.73 3.954l6.795 1.987" fill="#513B32"/><path d="M20.248 74.07a1.024 1.024 0 1 1-2.048 0 1.024 1.024 0 0 1 2.048 0" fill="#F2BA39"/><path d="M107.124 81.383l-11.92 3.3a33.924 33.924 0 0 1-1.078-2.028l12.586-3.709c.27 1.56.412 2.437.412 2.437" fill="#C6422B"/><path d="M107.124 81.383l-11.92 3.3a33.924 33.924 0 0 1-1.078-2.028l12.586-3.709c.27 1.56.412 2.437.412 2.437M63.779.584s2.803-2.998 8.003 9.641c2.147 5.218 8.523 1.682 8.523 1.682s2.16 24.55-19.444 69.966c0 0 9.826-59.133 2.918-81.29" fill="#C6422B"/><path d="M99.167 76.692l-1.16-3.828 7.225-2.113c.27 1.437.513 2.76.73 3.954l-6.795 1.987" fill="#513B32"/><path d="M99.913 74.07a1.024 1.024 0 1 0 2.049 0 1.024 1.024 0 0 0-2.049 0" fill="#F2BA39"/><path d="M13.037 81.383l11.92 3.3c.366-.63.725-1.31 1.078-2.028L13.45 78.946c-.269 1.56-.412 2.437-.412 2.437" fill="#C6422B"/><path d="M13.037 81.383l11.92 3.3c.366-.63.725-1.31 1.078-2.028L13.45 78.946c-.269 1.56-.412 2.437-.412 2.437M56.383.584s-2.804-2.998-8.003 9.641c-2.148 5.218-8.523 1.682-8.523 1.682s-2.16 24.55 19.444 69.966c0 0-9.826-59.133-2.918-81.29" fill="#C6422B"/><path d="M20.995 76.692l1.16-3.828-7.225-2.113c-.27 1.437-.513 2.76-.73 3.954l6.795 1.987" fill="#513B32"/><path d="M20.248 74.07a1.024 1.024 0 1 1-2.048 0 1.024 1.024 0 0 1 2.048 0" fill="#F2BA39"/><path d="M46.805 98.735l-7.91-1.24a3.046 3.046 0 0 1-2.538-3.48l1.603-10.232 13.929 2.183-1.603 10.231a3.046 3.046 0 0 1-3.481 2.538" fill="#C6422B"/><path fill="#513B32" d="M51.379 89.22L37.45 87.037l.51-3.254 13.929 2.183-.51 3.254"/></g></svg>