<svg width="120" height="120" viewBox="0 0 120 120" xmlns="http://www.w3.org/2000/svg" xmlns:xlink="http://www.w3.org/1999/xlink"><defs><path id="a" d="M.04.601h109.175v83.237H.041z"/></defs><g fill="none" fill-rule="evenodd"><path d="M83.337 44.925c13.507 0 24.458 10.949 24.458 24.46 0 13.507-10.95 24.46-24.458 24.46-13.51 0-24.459-10.953-24.459-24.46 0-13.511 10.95-24.46 24.459-24.46m0 60.75c20.043 0 36.29-16.247 36.29-36.29 0-20.044-16.247-36.294-36.29-36.294-20.045 0-36.292 16.25-36.292 36.294 0 20.043 16.247 36.29 36.292 36.29" fill="#DD4047"/><path d="M75.813 72.227a4.152 4.152 0 1 1 0 8.305 4.154 4.154 0 0 1-4.154-4.151 4.155 4.155 0 0 1 4.154-4.154zm0-14.478a4.154 4.154 0 1 1 0 8.307 4.154 4.154 0 0 1 0-8.307zM91.74 72.227a4.155 4.155 0 0 1 4.154 4.154 4.154 4.154 0 0 1-8.307 0 4.15 4.15 0 0 1 4.153-4.154zm0-14.478a4.155 4.155 0 0 1 0 8.308 4.153 4.153 0 0 1-4.153-4.154 4.15 4.15 0 0 1 4.153-4.154zm-7.963 35.853c13.508 0 24.459-10.952 24.459-24.46 0-13.51-10.951-24.46-24.459-24.46s-24.458 10.95-24.458 24.46c0 13.508 10.95 24.46 24.458 24.46z" fill="#C12E37"/><path d="M83.337 44.925c13.507 0 24.458 10.949 24.458 24.46 0 13.507-10.95 24.46-24.458 24.46-13.51 0-24.459-10.953-24.459-24.46 0-13.511 10.95-24.46 24.459-24.46m0 60.75c20.043 0 36.29-16.247 36.29-36.29 0-20.044-16.247-36.294-36.29-36.294-20.045 0-36.292 16.25-36.292 36.294 0 20.043 16.247 36.29 36.292 36.29" fill="#DD4047"/><path d="M47.053 69.898v-.005.005m-.001-.065v-.007.007m-.002-.066v-.006.006m-.002-.2v-.015.015m0-.062l-.001-.022v.022m0-.064v-.023.023m0-.062v-.025.025m0-.064v-.025.025m-.002-.067v-.02.02" fill="#B8B6B2"/><path d="M83.42 33.092h-.003.003m-.035 0l-.027-.001h.027m-.027 0h-.176.176" fill="#D5D2CD"/><g transform="translate(0 14)"><mask id="b" fill="#fff"><use xlink:href="#a"/></mask><path d="M60.626 83.838a36.449 36.449 0 0 1-10.304-13.463 35.848 35.848 0 0 0 1.561-.7 36.289 36.289 0 0 0 8.743 14.163M47.346 58.72a36.628 36.628 0 0 1-.118-2.302v-.004l-.001-.06v-.007c0-.02 0-.04-.002-.06v-.005c0-.064 0-.13-.002-.194v-.062l-.001-.022v-.193l-.001-.042v-.084c0-10.75 4.672-20.407 12.098-27.053.482 1.345.85 2.743 1.092 4.185-6.178 6.302-10.075 14.846-10.357 24.3a24.397 24.397 0 0 1-2.708 1.603m61.869-28.652c-6.246-5.084-14.207-8.14-22.888-8.14a36.14 36.14 0 0 0-15.59 3.511 36.057 36.057 0 0 0-1.252-3.237 36.174 36.174 0 0 1 14.027-2.81h.238c9.948.064 18.946 4.134 25.465 10.675" fill="#C8343B" mask="url(#b)"/><path d="M36.291 12.436c13.508 0 24.458 10.949 24.458 24.46 0 13.507-10.95 24.46-24.458 24.46-13.51 0-24.459-10.953-24.459-24.46 0-13.511 10.95-24.46 24.46-24.46m0 60.75c20.043 0 36.29-16.247 36.29-36.29C72.582 16.851 56.335.6 36.292.6 16.246.601 0 16.851 0 36.895s16.247 36.29 36.291 36.29" fill="#DD4047" mask="url(#b)"/><path d="M28.328 39.98a4.152 4.152 0 1 1 0 8.306 4.154 4.154 0 0 1-4.153-4.152 4.154 4.154 0 0 1 4.153-4.154zm0-14.478a4.154 4.154 0 1 1 0 8.308 4.154 4.154 0 0 1 0-8.308zM44.253 39.98a4.155 4.155 0 0 1 4.155 4.154 4.155 4.155 0 0 1-4.155 4.152 4.15 4.15 0 0 1-4.152-4.152 4.15 4.15 0 0 1 4.152-4.154zm0-14.478a4.155 4.155 0 0 1 0 8.308 4.152 4.152 0 0 1-4.152-4.154 4.15 4.15 0 0 1 4.152-4.154zm-7.962 35.853c13.508 0 24.458-10.952 24.458-24.46 0-13.51-10.95-24.46-24.458-24.46-13.509 0-24.459 10.95-24.459 24.46 0 13.508 10.95 24.46 24.46 24.46z" fill="#3196A0" mask="url(#b)"/><path d="M36.291 12.436c13.508 0 24.458 10.949 24.458 24.46 0 13.507-10.95 24.46-24.458 24.46-13.51 0-24.459-10.953-24.459-24.46 0-13.511 10.95-24.46 24.46-24.46m0 60.75c20.043 0 36.29-16.247 36.29-36.29C72.582 16.851 56.335.6 36.292.6 16.246.601 0 16.851 0 36.895s16.247 36.29 36.291 36.29" fill="#66BFB2" mask="url(#b)"/><path d="M.007 37.628v-.004.004m0-.064v-.007.007m-.002-.067v-.005.005m-.003-.2v-.014.014m0-.062v-.02.02m0-.064L0 37.15v.021m0-.062v-.024.024m0-.064v-.024.024m0-.066v-.021.021M36.53.602h-.004.003m-.035 0h-.027.027m-.027 0h-.176.176" fill="#D5D2CD" mask="url(#b)"/><path d="M13.405 65.047C5.405 58.535.226 48.694.008 37.629v-.004l-.002-.06v-.007l-.001-.06v-.005l-.003-.194v-.127L0 37.15v-.255C0 16.852 16.247.601 36.291.601l.176.001h.062c9.948.064 18.946 4.135 25.465 10.675a36.132 36.132 0 0 0-22.888-8.139c-20.042 0-36.289 16.247-36.289 36.29 0 10.004 4.045 19.056 10.588 25.62" fill="#50A296" mask="url(#b)"/></g></g></svg>