<svg width="194" height="112" viewBox="0 0 194 112" xmlns="http://www.w3.org/2000/svg"><g fill="none" fill-rule="evenodd"><path d="M17.267 55.17C31.536 50.364 33.65 34.379 33.65 34.379" stroke="#424763" stroke-width="1.5"/><path d="M18.914 54.894s-.193.165-.543.432c-.188.138-.392.302-.646.477-.242.186-.55.369-.825.603-.274.224-.61.486-.895.7-.32.287-.651.597-1.013.893-.325.31-.63.646-.97.958l-.992 1.046-1.94 2.137c-.299.35-.583.673-.866.985-.288.306-.52.622-.754.904-.22.291-.468.537-.633.784-.164.248-.322.46-.45.64-.26.355-.424.56-.424.56s.045-.247.152-.683c.056-.217.12-.484.213-.787.087-.306.249-.616.409-.969.164-.349.33-.743.578-1.106.233-.372.473-.785.753-1.169.281-.373.558-.77.865-1.153.33-.407.658-.775.995-1.164.363-.364.718-.731 1.09-1.077.393-.34.798-.66 1.18-.96.383-.268.771-.504 1.135-.733.437-.243.799-.395 1.16-.563.35-.18.682-.253.974-.356.289-.096.556-.172.76-.227.433-.117.687-.172.687-.172" fill="#424763"/><path d="M4.844 61.992l.07-.15c.049-.095.1-.24.206-.417.107-.162.233-.363.391-.58.153-.22.385-.45.63-.703.246-.246.514-.484.81-.73l.449-.365.116-.095.028-.023.058-.039.062-.042.251-.17c.689-.454 1.366-.969 2.187-1.356.82-.373 1.643-.793 2.44-1.015.395-.134.784-.236 1.151-.338a8.762 8.762 0 0 1 1.042-.247c1.308-.242 2.207-.272 2.207-.272s-.752.514-1.924 1.088c-.583.294-1.243.663-1.975.993-.373.155-.727.361-1.09.549-.365.192-.741.371-1.117.552-.38.155-.754.394-1.13.596-.373.211-.755.394-1.116.584l-1.93 1.013c-.257.162-.522.272-.745.426-.22.155-.422.28-.586.384l-.485.357" fill="#424763"/><path d="M1.001 59.582c0 .007.064.046.19-.008.125-.043.297-.143.518-.26.44-.246 1.052-.628 1.795-1.07l.579-.349c.22-.124.367-.23.689-.371.456-.197.935-.412 1.44-.606.505-.197 1.021-.416 1.555-.61.52-.22 1.113-.339 1.674-.505l1.706-.431c.294-.07.536-.134.868-.192l.818-.11c.268-.033.53-.076.792-.1l.786-.038c.51-.03.994-.04 1.423-.038.434-.006.833.005 1.188.014.35-.006.658.002.913.007.51.012.808.032.808.032s-.274.104-.763.263c-.49.165-1.197.368-2.05.543-.431.093-.877.199-1.353.29-.471.084-.972.204-1.505.33-.263.06-.532.12-.803.183l-.768.231-1.622.453c-.547.154-1.094.253-1.636.445-.54.176-1.081.323-1.6.48-.516.16-1.026.288-1.506.416-.145.027-.422.154-.629.22l-.644.223c-.829.286-1.543.476-2.055.57a2.808 2.808 0 0 1-.607.06c-.153.004-.21-.07-.2-.072" fill="#424763"/><path d="M4.844 56.137s.74-.51 1.912-1.087c.282-.163.636-.26 1.004-.371.37-.11.76-.236 1.174-.334.214-.054.399-.107.648-.161.205-.036.413-.07.624-.097.42-.062.85-.11 1.278-.16.426-.046.881-.048 1.315-.06.436-.015.867-.001 1.28.005.825.059 1.59.14 2.24.247 1.303.267 2.137.578 2.137.578 0-.001-.888.193-2.168.285-.644.087-1.387.168-2.181.214-.394.034-.798.099-1.21.126-.414.044-.824.045-1.254.1-.43.041-.859.085-1.282.113-.212.019-.423.029-.63.037l-.563.072c-.38.056-.756.082-1.115.113-.356.042-.703.03-1.026.108a16.551 16.551 0 0 1-2.183.272" fill="#424763"/><path d="M127.721 57.922s-3.329 2.443-4.399 5.388c-1.07 2.943-7.11 19.073-7.11 19.073s.198 1.356.526 2.603c.306 1.164-1.196 3.505-2.653 6.136-1.457 2.63-2.51 6.388-2.551 8.393-.041 2.005.92 3.32.92 3.32-.042 2.455.219 2.733.3 4.166.038.67-5.788.528-6.407.452-.91-.11.755-1 .306-2.003-.448-1.002-2.137-1.953-.885-4.02 1.253-2.067 2.216-3.167 3.133-6.55.917-3.382.718-8.472.4-8.973-.319-.501 1.265-1.801 1.795-4.119.53-2.317 2.23-14.908 1.201-20.17 0 0 4.2-2.255 4.536-5.763" fill="#B1B6CC"/><path d="M127.721 57.922s-3.329 2.443-4.399 5.388c-1.07 2.943-7.11 19.073-7.11 19.073s.198 1.356.526 2.603c.306 1.164-1.196 3.505-2.653 6.136-1.457 2.63-2.51 6.388-2.551 8.393-.041 2.005.92 3.32.92 3.32-.042 2.455.219 2.733.3 4.166.038.67-5.788.528-6.407.452-.91-.11.755-1 .306-2.003-.448-1.002-2.137-1.953-.885-4.02 1.253-2.067 2.216-3.167 3.133-6.55.917-3.382.718-8.472.4-8.973-.319-.501 1.265-1.801 1.795-4.119.53-2.317 2.23-14.908 1.201-20.17 0 0 4.2-2.255 4.536-5.763" stroke="#424763" stroke-width=".563"/><path d="M106.347 107.453l-.907 3.963h10.637s-2.359-2.677-2.534-3.617c0 0-.736-.297-1.138-.548" fill="#424763"/><path d="M112.578 63.135c.754-.06 10.184-1.211 10.184-1.211l-10.146 4.815-.038-3.604zm2.46 4.825s6.301-1.217 7.017-1.221c.312 0-.893 2.397-.893 2.397l-6.124-1.176z" fill="#313753"/><path d="M120.848 69.98s-7.39 1.01-8.122 1.41c-.732.399-.374 2.255-.374 2.255l8.049-2.466.447-1.199zm-8.791 6.178s5.557.118 6.42-.258l-.947 2.607-5.837 1.08.364-3.429zm-1.422 7.306s4.561.234 5.554-.235c0 0 .618 2.043.391 2.537 0 0-6.578 1.571-6.821 1.527l-.28-1.809 1.156-2.02zm-.89 6.966s3.886.303 4.725.003c.222-.094-1.359 2.356-1.359 2.356s-3.2.219-3.559.171c-.359-.046-.138-1.684.193-2.53m-.585 4.967s2.22.187 2.91-.004c.301-.118-.471 2.33-.471 2.33s-2.174.492-3.32.093c-.456-.164-.036-.61-.036-.61l.595-1.813.321.004zm-2.481 4.82c.102-.023 1.744.775 4.13.066 1.421-.424.92 1.338.92 1.338s-3.351 1.186-5.631 1.034c-1.765-.117.58-2.438.58-2.438" fill="#424763"/><path d="M69.358 41.229s4.083 15.535-5.585 27.154C55.811 78.5 42.378 78.97 42.378 78.97s-1.96-.57.473 6.292 5.438 14.956 5.438 14.956 1.186 2.743 3.907 4.372c1.296.814-5.854 3.695-5.854 3.695s-7.476-22.8-13.631-33.7c-1.462-2.601-1.04-2.212.243-2.771 1.416-.617 11.504-3.304 7.988-17.274-3.515-13.968-5.85-19.355-5.917-19.543" fill="#B1B6CC"/><path d="M68.795 38.222s4.646 18.542-5.022 30.161C55.811 78.5 42.378 78.97 42.378 78.97s-1.96-.57.473 6.292 5.438 14.956 5.438 14.956 1.826 3.401 3.907 4.372c1.064.298-5.854 3.695-5.854 3.695s-7.476-22.8-13.631-33.7c-1.462-2.601-1.04-2.212.243-2.771 1.416-.617 11.504-3.304 7.988-17.274-3.515-13.968-5.85-19.355-5.917-19.543" stroke="#424763" stroke-width=".563"/><path d="M47.622 111.323s1.31-1.118 0-3.581c.296-.131 4.511-2.506 4.511-2.506l3.614 1.624 2.453 4.463H47.622zm-.076-63.235s10.087 14.16 18.076 17.723c.304.135-1.85 2.572-1.85 2.572S57.957 64.5 47.547 48.088M37.52 42.193S50.972 59.588 57.2 65c4.758 4.136-8.495-4.948-17.967-17.225m.817 3.305s12.493 17.267 19.628 21.4l-2.664 1.917S45.54 62.747 40.832 54.103c-.55-2.068-.781-3.023-.781-3.023m1.626 8.65s6.16 14.383 11.073 16.771l-2.645.963S45.217 73.344 41.13 64c.077-.816.547-4.27.547-4.27m-2.625 8.157s5.546 9.016 7.584 10.488l-2.394.412s-4.334-4.202-6.525-9.433c-.157-.378 1.335-1.467 1.335-1.467m-4.745 3.391c.231-.043 6.747 7.252 7.628 7.828 0 0-.69 1.407-.183 2.283.507.877-9.041-6.805-9.041-6.805s-1.062-1.607-.918-2.067c.161-.51 1.375-1.034 2.514-1.24m8.544 13.984l-5.56-1.155s1.353 3.696 1.518 3.633c.165-.063 5.06.375 5.06.375l-1.018-2.853zm2.199 6.049l-4.992-.435 1.418 3.694 4.826.248zm2.841 7.83l-4.637.25 1.79 5.2s3.766-1.034 4.848-1.754c.253-.17-1.528-1.88-2.001-3.696" fill="#424763"/><path d="M163.368 26.007s-2.846 8.106 1.003 12.1c2.689 2.79 13.534 8.073 15.988 13.551.309.75.544 1.395.66 2.02a4.23 4.23 0 0 1-.144 2.162s3.473 3.007 7.838.798c4.366-2.208 6.243-7.505 3.427-14.91-2.816-7.405-2.902-7.542-4.6-13.136-1.571-5.176-1.47-6.48-4.707-11.48 0 0 1.87-1.699 4.616-.344 0 0 3.332-11.853-8.211-15.325-10.446-3.141-37.946 1.368-44.735 5.04-6.64 3.592-7.238 6.538-6.745 7.901.493 1.362 4.025 2.728 4.025 2.728" fill="#D3D5DF"/><path d="M174.387 10.54s-3.18-1.915-10.784-.474c-6.52 1.235-24 4.698-27.755 5.324-3.755.627-8.386-.438-14.644 0-6.258.439-13.517 1.629-18.023 1.378-4.506-.25-13.142-.063-16.897-1.315-3.755-1.253-19.462-6.139-28.161-4.26-8.699 1.88-20.089 11.213-22.216 14.22-2.129 3.006-2.691 6.388-2.754 8.769-.063 2.38-.876 21.172 16.834 16.036 13.205-3.696 10.17-3.774 14.16-.11 2.875 2.642 16.52 19.309 32.838 19.904 16.637.607 30.571 1.472 42.332-16.407 8.515-12.77 20.16-17.081 23.334-18.816" fill="#D3D5DF"/><path d="M178.202 14.656s-2.06 1.956-2.685 1.893c-.626-.063-.995-3.85 2.44-7.698 3.339-3.739 5.45-5.623 5.45-5.623s-.887 6.277-5.205 11.428" fill="#C0A1A7"/><path d="M172.422 44.016s2.565-7.298 7.69-8.52c0 0-4.882 5.92-4.42 11.002m2.948-6.084c-.075.065 2.222-3.946 5.914-3.257 3.693.689 4.726 3.257 4.726 3.257s-6.415-3.664-10.64 0m-2.432 6.522s.4-3.549 2.214-5.174c1.501-1.347 5.006-1.066 6.978-.764.807.124 1.532 1.202.218 1.452-1.314.251-3.974-.532-5.507 1.034-1.533 1.566-2.096 3.32-2.127 3.884-.032.563 4.568-3.79 7.259-2.193.782.72-5.28 1.033-6.13 4.792m12.169-9.132s-1.658-2.553-3.098-3.757c-1.44-1.205-3.725-3.741-4.225-5.402-.5-1.66 3.193 3.038 4.382 4.228 1.19 1.19 1.945 1.828 1.945 1.828m-2.425-6.256s-1.867-1.616-2.806-3.214c-.55-.937-1.345-4.102-1.345-4.102s-.448 3.124.554 4.972c1.003 1.848 4.058 5.739 5.32 7.556" fill="#424763"/><path d="M185.524 35.748s-2.566-2.38-2.91-3.539c-.344-1.16-.75-1.015-1.971-.884-1.22.132-3.614-.025-4.435-.431-.822-.408-.938-.91-2.053 0-1.116.908-5.247 4.29-5.09 10.43.018.658 1.096 1.377 1.095 1.144l1.207.814s-.466-4.341 1.055-7.784c.9-2.037 2.4-3.284 2.862-3.284.462 0 1.103 1.279 2.98.903 1.878-.376 3.162-1.096 3.35-.752.187.345 2.393 3.117 3.91 3.383m-3.066-11.745s-3.138-4.448-.756-8.156c.17-.264 1.577 2.245 1.577 2.245s-1.977 3.815-.82 5.911m-1.185-8.833c-.093 0-3.04 1.958-4.386 7.142-.695 2.676-.5 2.286-.845 1.847-.344-.438-1.282-3.257.689-6.326 1.971-3.07 2.676-4.392 2.676-4.392m-14.095 25.683c.094-.031 4.44-5.537 5.724-8.419 1.283-2.881 2.472-7.172 2.472-8.863 0-1.692-2.002 4.353-5.163 8.957-2.13 3.104-4.694 4.698-4.694 4.698s4.991-5.574 5.195-10.523c.203-4.95-1.44 1.687-3.254 4.197-1.288 1.78-2.748 3.476-3.405 4.228m3.125 5.725s-3.538-3.22-2.912-5.694m9.805-23.552s-1.92 1.445-1.764 3.356c.157 1.91.094 6.228-1.033 8.075-.842 1.383-3.066 3.508-3.066 3.508s1.377-3.138 1.377-5.86c0-2.722-1.835-7.58 1.565-9.408.845-.454 2.608.329 2.921.329m-4.611-.35c-.094.032-4.556 5.045-4.944 12.721-.388 7.676-1.753 1.065-1.753 1.065s-1.5-5.794 1.69-11.15c1.94-3.257 3.042-2.448 3.042-2.448l1.965-.188zm-8.485 1.356s-.59 11.115-.026 15.875c.563 4.761.438 4.917-.25 2.756-.689-2.16-2.66-10.398-2.722-15.159-.064-4.76 0-2.89 0-2.89l2.998-.582m-5.006.973s.412 15.403 5.494 24.326l-4.442 2.378s-3.55-7.01-4.677-15.842c-1.126-8.832-.519-9.897-.519-9.897l4.144-.965zm-7.38 1.435s-.531 18.033 5.048 27.433c-.391.526-2.95 2.212-2.95 2.212s-5.769-13.316-4.424-29.195c1.388-.301 1.607-.665 2.076-.508M147 44.487s-4.94-12.637-6.286-26.444c.001-3.29-1.247 8.5-.56 16.703.477 5.71 2.044 11.754 2.883 13.722m-4.605-33.298s-2.628 19.952-1.658 32.167c.266 3.35-1.807-1.838-2.558-7.287-.75-5.45-1.228-10.485-1.009-24.461m1.182 44.078s-4.624-9.45-4.906-27.615c.188-3.852-1.22 10.304-.72 18.573.5 8.268.917 11.171 1.45 12.894m-.292-47.847s-4.374 12.621-7.221 37.39c.156 3.513-.395-14.673.287-20.089.593-4.714 2.21-16.268 3.054-17.49.407-.625 3.88.189 3.88.189m-5.069-.062c-.595.532-3.755 8.236-5.538 17.977-1.784 9.74-3.661 22.519-3.661 22.519-1.596-7.71-1.157-11.106-1.033-16.411.188-8.05 2.44-18.578 4.224-21.95 1.502-2.527 1.491-2.308 1.656-2.32.165-.013 4.352-.14 4.352-.14s.595-.208 0 .324m-8.042.207s-2.34 3.708-4.612 14.138c-2.212 10.15-1.959 31.523-1.959 31.664 0 .14-2.606-6.103-2.628-17.946-.026-13.765 3.943-24.387 4.929-26.194.985-1.806 1.306-1.408 1.306-1.408l2.401-.254h.563zm-6.618.654s-6.289 15.313-8.777 46.37c-.396 4.943-3.566-11.98-1.22-25.98 2.347-14 3.942-17.794 4.74-19.116.799-1.32 2.206-1.046 2.206-1.046l2.817-.229h.234zm-6.474.326c-.093.14-4.04 3.573-6.808 17.104-2.77 13.53-4.553 30.255-4.553 30.255S90.62 56.967 91.09 46.49c.47-10.476 2.159-20.67 5.96-28.282 1.278-2.558 1.366-1.588 1.366-1.588l5.11.171.192.005zm-11.736-.434S80.576 54.102 81 60.209c.378 5.484-2.523-6.232.187-22.645 2.77-16.771 7.024-21.61 7.024-21.61m-6.301.486c-.62 1.118-2.988 7.49-4.385 12.762-3.708 14-3.098 27.671-3.098 27.671s-1.548-4.557-1.454-13.624c.094-9.067.929-15.733 5.012-26.633 1.23-2.843 2.51-2.843 2.51-2.843l2.756.794 1.046.321s-1.765.433-2.386 1.552m-8-3.869c-.188.047-9.247 21.563-7.791 35.094 0 0-2.222-13.794.328-24.805 2.254-9.725 3.628-11.406 3.628-11.406l3.835.713v.404zm-7.119-1.556c-.094.083-10.341 16.401-11.28 34.16-.751 7.94-2.957-19.7 6.759-34.406 2.952-.232 4.521.246 4.521.246M52.585 13.04s-5.428 24.242-1.673 32.792c0 0-6.702-19.854-2.384-30.662 2.103-1.706 4.057-2.13 4.057-2.13m-9.338 5.606s-2.895 12.623.128 24.79c1.437 5.788-4.266-6.907-4.628-13.476-.281-5.122.079-7.779.079-7.779s2.568-2.489 4.421-3.535m45.871 49.408c-.046-.282-1.912-15.84-.923-26.98.94-10.604-3.68 14.264-3.022 25.962l.417.19 3.546 1.382-.018-.554zm10.219 2.202s-2.992-13.59-2.85-19.772c.14-6.108-2.1 9.304-.974 19.452m12.097.32s-1.924-15.13-1.454-23.676c.47-8.546-1.675 15.573-1.69 23.664 0 .394 2.347.009 2.347.009M188.01 12.42s-3.905-.549-6.44 2.232c-.133.082-1.28-1.211-1.28-1.211s1.646-3.416 6.964-4.947c0 0 .896 2.064.755 3.926m-15.803-3.013s1.585-5.367 1.403-8.912c-.017-.266 3.822.529 3.822.529s-.02 4.64-4.06 8.76M168.381.44s.532 6.006-.232 8.686h1.995s2.062-4.628 1.73-8.173l-.1-.512" fill="#424763"/><path d="M167.056.44s.21 5.859-.554 8.769l-2.345.198s-.066-6.906-.698-8.77c-.133-.3 2.627-.196 2.627-.196h.97zm-5.311.281s1.164 3.912.233 9.063l-1.63.29s-.632-6.84-2.012-9.038c-.3-.632.682-.116.682-.116l2.727-.199zm-4.872.515s.383 7.736.955 9.205c-.04.083-2.402.516-2.402.516s-1.33-.998-2.678-9.055c-.04-.367.597-.333.597-.333l3.528-.333zm-6.463.798s1.008 7.508 1.557 9.54l-2.278.498s-2.444-3.795-2.854-9.37l.506-.102 3.068-.566zm-5.943 1.416s.162 2.333.381 3.42c.19.944.633 2.789 1.115 3.671.436.797 1.037 1.964 1.037 1.964l-2.932.691s-1.93-2.538-2.96-6.366c-.462-1.714-.649-2.381-.649-2.381l3.974-1.22.034.221zm-5.123 1.948s1.963 5.226 1.896 8.39l-2.145.415s-1.347-4.478-3.575-8.106c-.145-.184.431-.184.431-.184l3.16-1.098.233.583zm-5.089 1.655s2.245 2.956 2.461 7.383c0 0-1.031.483-1.613.483 0 0-1.979-4.754-3.509-6.214l-.4-.296 2.82-1.688.241.332zm-4.217 2.475c.052-.006.768 2.944 1.956 5.49h-1.547s-1.58-2.313-2.228-2.763c-.65-.45 1.17-2.643 1.82-2.727m55.809-3.649s-1.706-2.037-2.094-2.166c-.386-.13-.868 2.166-.868 2.166l-.715 2.204s-.622 1.56-.599 1.49m-1.696-7.807s.454 2.505-1.298 4.666l4.554-3.382" fill="#424763"/><path d="M185.283 4.978c.07.009 1.944-1.826 1.944-1.826l-.681 3.754-1.263-1.928z" fill="#D3D5DF"/><path d="M185.161 4.825c1.533-1.316 2.21-1.775 2.21-1.775s-.429 1.804-.825 3.856" stroke="#424763" stroke-width=".563"/><path d="M180.643 55.84s.731-2.113.676-2.74c-.056-.626.343-2.22.906-2.345.564-.125 3.675.747 4.512-2.087.349-1.179.979-3.508 1.166-4.767.188-1.259.362-1.777 1.15-2.638.788-.861 2.444-.501 2.627-.128 3.482 7.078.587 12.478-1.297 14.203-3.231 2.96-6.198 2.569-9.74.502" fill="#C0A1A7"/><path d="M163.136 26.007s-2.846 8.106 1.003 12.1c2.689 2.79 13.534 8.073 15.988 13.551.308.75.544 1.395.66 2.02a4.23 4.23 0 0 1-.144 2.162s3.473 3.007 7.838.798c4.366-2.208 6.243-7.505 3.427-14.91-2.816-7.405-3.708-7.358-4.6-13.136-.892-5.78-3.453-10.52-7.77-15.358" stroke="#424763" stroke-width=".563"/><path d="M191.68 41.135s-1.66-.881-2.917.376c-.892.892-.657 1.973-1.22 4.274-.564 2.303-.916 4.253-2.606 4.863-1.69.611-2.792-.446-3.355.54-.563.987.125 2.162-.72 3.383m8.229 0s.61-1.01 0-2.255c-.32-.733-.492-1.41 0-1.762.493-.352 1.667.658 1.174 2.255-.516 1.363-1.174 1.762-1.174 1.762z" stroke="#424763" stroke-width=".5"/><path d="M183.248 29.648s.115-3.482-2.816-3.758c-2.75-.259-4.224-.447-4.224-.447s.774.588.848 1.946c.083 1.526 1.31 1.907 3.564 1.837 2.253-.07 2.628.422 2.628.422" fill="#EDEEF4"/><path d="M183.248 29.648s.115-3.482-2.816-3.758c-2.75-.259-4.224-.447-4.224-.447s.774.588.848 1.946c.083 1.526 1.31 1.907 3.564 1.837 2.253-.07 2.628.422 2.628.422z" stroke="#424763" stroke-width=".5"/><path d="M179.728 26.007s-.939.376-.916 1.41c.024 1.033.494 1.427.916 1.691.422.264 1.135.252 1.135.252s2.267-.04 2.385.288c.118.329.033-3.222-2.635-3.725-.702-.124-.885.084-.885.084" fill="#424763"/><path d="M173.164 16.768s-2.002-2.13-.219-4.823C174.73 9.25 183.71 2.8 183.71 2.8s-1.502 5.386-2.441 7.328a34.19 34.19 0 0 1-2.598 4.417" stroke="#424763" stroke-width=".563"/><path d="M175.386 16.298s-3.035-3.1 8.323-13.498" fill="#C0A1A7"/><path d="M174.155 10.54s-3.18-1.915-10.784-.474c-6.52 1.235-24 4.698-27.755 5.324-3.755.627-8.386-.438-14.644 0-6.258.439-13.517 1.629-18.023 1.378-4.506-.25-13.142-.063-16.897-1.315-3.755-1.253-19.462-6.139-28.162-4.26-8.698 1.88-20.088 11.213-22.216 14.22-2.128 3.006-2.69 6.388-2.753 8.769-.063 2.38-.876 21.172 16.834 16.036 13.205-3.696 10.17-3.774 14.159-.11 2.875 2.642 16.521 19.309 32.84 19.904 16.636.607 30.57 1.472 42.33-16.407 8.516-12.77 20.16-17.081 23.335-18.816" stroke="#424763" stroke-width=".563"/><path d="M182.633 17.128s2.328-1.926 4.816-.36c0 0 2.346-6.499-2.488-12.183C180.127-1.1 163.688.3 159.23.817c-4.459.517-24.465 2.65-30.01 9.419-3.109 3.797-.674 5.187-.674 5.187" stroke="#424763" stroke-width=".563"/><path d="M128.857 57.922s-2.44 2.443-2.44 5.388c0 2.943-.174 19.073-.174 19.073s.69 1.356 1.472 2.603c.73 1.164.078 3.505-.422 6.136-.501 2.63-.188 6.388.5 8.393.689 2.005 2.128 3.32 2.128 3.32.851 2.455 1.212 2.733 1.815 4.166.281.67-5.597.528-6.243.452-.95-.11.392-1-.422-2.003-.814-1.002-2.848-1.953-2.347-4.02.5-2.067 1.064-3.167.75-6.55-.312-3.382-2.362-8.472-2.862-8.973-.5-.501.61-1.801.298-4.119-.314-2.317-3.192-14.908-6.134-20.17 0 0 3.38-2.255 2.441-5.763" fill="#D3D5DF"/><path d="M128.857 57.922s-2.44 2.443-2.44 5.388c0 2.943-.174 19.073-.174 19.073s.69 1.356 1.472 2.603c.73 1.164.078 3.505-.422 6.136-.501 2.63-.188 6.388.5 8.393.689 2.005 2.128 3.32 2.128 3.32.851 2.455 1.212 2.733 1.815 4.166.281.67-5.597.528-6.243.452-.95-.11.392-1-.422-2.003-.814-1.002-2.848-1.953-2.347-4.02.5-2.067 1.064-3.167.75-6.55-.312-3.382-2.362-8.472-2.862-8.973-.5-.501.61-1.801.298-4.119-.314-2.317-3.192-14.908-6.134-20.17 0 0 3.38-2.255 2.441-5.763" stroke="#424763" stroke-width=".563"/><path d="M125.493 107.453l-.61 3.963h11.781s-3.332-2.677-3.849-3.617c0 0-.844-.297-1.337-.548" fill="#313753"/><path d="M115.608 63.135c.733-.06 9.745-1.211 9.745-1.211l-8.395 4.815-1.35-3.604zm4.215 4.825s5.859-1.217 6.573-1.221c.312 0-.02 2.397-.02 2.397l-6.553-1.176zm6.545 2.02s-7.023 1.01-7.61 1.41c-.586.399.446 2.255.446 2.255l7.152-2.466.012-1.199zm-6.545 6.178s5.6.118 6.327-.258v2.607l-5.444 1.08-.883-3.429zm1.235 7.306s4.646.234 5.468-.235c0 0 1.361 2.043 1.314 2.537 0 0-6.007 1.571-6.266 1.527l-.938-1.809.422-2.02zm1.642 6.966s3.998.303 4.727.003c.188-.094-.502 2.356-.502 2.356s-3.121.219-3.496.171c-.376-.046-.751-1.684-.728-2.53m1.22 4.967s2.29.187 2.91-.004c.259-.118.376 2.33.376 2.33s-1.995.492-3.286.093c-.516-.164-.258-.61-.258-.61l-.065-1.813.323.004zm-.727 4.82c.094-.023 2.026.775 4.153.066 1.268-.424 1.408 1.338 1.408 1.338s-2.92 1.186-5.256 1.034c-1.807-.117-.305-2.438-.305-2.438" fill="#424763"/><path d="M32.92 34.996c0 .188.376 5.575-1.188 19.544-1.565 13.968-12.63 16.656-14.269 17.273-1.487.56-1.767.17-1.251 2.772 2.19 10.9 1.376 33.7 1.376 33.7s8.198-2.881 7.197-3.696c-2.128-1.628-2.316-4.372-2.316-4.372s-.062-8.093 0-14.956c.063-6.863 1.816-6.292 1.816-6.292s14.518 1.128 26.158-8.988c13.893-11.62 12.642-26.716 12.642-26.716s-6.533 3.518-12.084 5.838c-7.233 3.025-18.08-14.107-18.08-14.107" fill="#D3D5DF"/><path d="M63.085 43.265S64.337 58.36 50.444 69.98c-11.64 10.116-26.16 8.988-26.16 8.988s-1.752-.57-1.814 6.292c-.063 6.863 0 14.956 0 14.956s.188 2.744 2.315 4.372c1.001.815-7.197 3.696-7.197 3.696s.814-22.8-1.377-33.7c-.515-2.602-.235-2.212 1.252-2.772 1.64-.617 12.704-3.305 14.269-17.273 1.564-13.969 1.188-19.356 1.188-19.544" stroke="#424763" stroke-width=".563"/><path d="M18.777 111.323s.703-1.118.289-3.581c.343-.131 5.422-2.506 5.422-2.506l3.614 2.673 1.69 3.414H18.777z" fill="#313753"/><path d="M40.68 48.088s6.193 15.407 12.888 18.97c.255.135-2.394 2.296-2.394 2.296s-6.05-4.855-10.494-21.266m-7.88-5.895S39.925 59.588 44.185 65c3.254 4.136-6.697-4.948-11.704-17.225m-.383 3.305s7.095 18.74 12.728 22.874L41.18 75.9s-7.836-13.153-9.401-21.797c.202-2.068.318-3.023.318-3.023m-1.517 8.65s1.945 15.293 5.99 17.681l-3.468.837S29.168 73.344 28.48 64c.373-.816 2.1-4.27 2.1-4.27m-5.592 8.157s2.618 9.47 4.12 10.944l-2.76.167s-2.94-4.413-3.229-9.644c-.02-.378 1.869-1.467 1.869-1.467m-5.978 3.391c.246-.043 4.11 7.252 4.782 7.828 0 0-1.201 1.407-1.013 2.283.187.877-6.568-6.805-6.568-6.805s-.477-1.607-.166-2.067c.346-.51 1.752-1.034 2.964-1.24m3.461 13.984l-5.142-1.155s.01 3.696.198 3.633c.187-.063 4.925.375 4.925.375l.018-2.853zm0 6.049l-4.835-.435.075 3.694 4.735.248zm-.008 7.83l-4.727.25-.1 5.2s4.141-1.034 5.485-1.754c.313-.17-.845-1.88-.658-3.696" fill="#424763"/></g></svg>