<svg width="120" height="120" viewBox="0 0 120 120" xmlns="http://www.w3.org/2000/svg"><g fill="none" fill-rule="evenodd"><path d="M.662 58.132s1.506 4.107 7.94 10.815c6.433 6.706 5.337 11.222 13.003 21.216 7.51 9.79 12.457 18.205 28.884 19.3 16.427 1.096 36.414 2.874 46.679-9.718 10.264-12.595 23.408-37.963 22.037-47.865-1.37-9.9-120.323-3.057-118.543 6.252" fill="#868B8A"/><path d="M64.135 31.855c-24.478 0-45.218 5.811-52.378 13.845-1.735 1.475-3.985 3.297-6.233 4.854-4.422 3.055-8.587 8.634 1.678 11.48 4.93 1.367 17.388 4.528 27.257 6.71 1.179.274 2.384.537 3.617.78 4.767.993 8.448 1.618 9.575 1.468 5.206.592 10.744.913 16.484.913 30.414 0 55.07-8.966 55.07-20.025 0-11.058-24.656-20.025-55.07-20.025" fill="#8F9493"/><path d="M64.954 34.54c-21.203 0-39.157 5.033-45.357 11.988-1.501 1.277-3.45 2.856-5.396 4.203-3.83 2.646-7.437 7.476 1.453 9.941 4.27 1.183 15.057 3.92 23.605 5.81 1.014.237 2.06.465 3.13.676 4.127.86 7.314 1.4 8.295 1.27 4.5.513 9.3.792 14.27.792 26.335 0 47.676-7.763 47.676-17.34 0-9.574-21.34-17.34-47.676-17.34" fill="#7C8280"/><path d="M44.83 107.09c13.962 2.87 36.867 2.372 47.27-4.928 10.403-7.3 27.746-40.333 19.897-37.414-7.848 2.92-32.019 9.313-48.551 10.403-16.605 1.095 38.149 13.142 24.276 23.908-8.895 6.909-56.215 5.294-42.892 8.032" fill="#828786"/><path d="M30.355 64.254c3.137.77 6.375 1.54 9.342 2.204a91.24 91.24 0 0 0 3.09.676c4.07.86 7.216 1.4 8.172 1.272 4.444.512 9.179.789 14.076.789 13.249 0 25.216-2.023 33.762-5.274-26.651-10.972-53.96-4.682-68.442.333" fill="#6E7574"/><path d="M66.997 36.083c-.283 0-.551.004-.81.01-23.182.549 1.272 14.966 20.983 21.354 4.054 1.311 2.644 1.985-1.8 2.317a79.028 79.028 0 0 1 11.79 3.505c10.305-4.005 15.948-9.274 13.921-12.94-4.638-8.386-31.938-14.246-44.084-14.246zM45.973 59.999c-13.1.135-22.144.873-14.275 3.798A120.62 120.62 0 0 1 45.973 60z" fill="#7A7F7D"/><path d="M85.37 59.764c-3.162.236-7.865.302-13.232.302-3.211 0-6.665-.024-10.168-.045-3.502-.024-7.054-.047-10.467-.047a554.1 554.1 0 0 0-5.53.025 120.62 120.62 0 0 0-14.275 3.798c1.458.544 3.495 1.16 6.2 1.863a104.055 104.055 0 0 0 26.156 3.323c13.062 0 24.657-2.431 33.105-5.714a79.028 79.028 0 0 0-11.789-3.505" fill="#727977"/><path d="M62.173 69.22S88.63 33.355 93.924 25.325c5.295-8.03 10.573-17.316 17.708-14.417 5.838 2.37-4.2 18.797-6.21 21.718-2.003 2.92-18.706 34.767-18.706 34.767S72.39 70.68 62.173 69.22" fill="#868B8A"/><path d="M72.39 68.581c3.364-3.368 10.037-8.213 12.413-11.682 2.367-3.467 21.721-30.115 20.44-27.011-1.28 3.103-19.346 35.772-19.167 37.78 0 0-15.69 2.921-13.687.913" fill="#828786"/><path d="M55.824 102.482c0 .266-.154.48-.34.48-.187 0-.34-.214-.34-.48 0-.265.153-.48.34-.48.186 0 .34.215.34.48m-14.302.89c0 .265-.154.48-.34.48-.196 0-.341-.215-.341-.48 0-.266.145-.478.34-.478.187 0 .34.212.34.478m41.344.069c0 .264-.154.478-.349.478-.186 0-.34-.214-.34-.478 0-.267.154-.48.34-.48.195 0 .349.213.349.48m-15.47-.411c0 .265-.154.48-.34.48-.196 0-.35-.215-.35-.48s.154-.48.35-.48c.186 0 .34.215.34.48m-20.035-1.507c0 .265-.155.48-.341.48-.187 0-.34-.215-.34-.48s.153-.479.34-.479c.186 0 .34.214.34.479m4.387 4.929c0 .266-.154.479-.349.479-.186 0-.34-.213-.34-.48 0-.265.154-.479.34-.479.195 0 .349.214.349.48m25.297 1.278c0 .265-.154.479-.34.479-.195 0-.34-.214-.34-.479 0-.266.145-.479.34-.479.186 0 .34.213.34.48m-16.175-2.374c0 .265-.154.48-.341.48-.186 0-.34-.215-.34-.48s.154-.48.34-.48c.187 0 .34.215.34.48m13.687-.183c0 .265-.154.478-.34.478-.187 0-.341-.213-.341-.478s.154-.48.34-.48c.187 0 .341.215.341.48m4.93-2.828c0 .265-.154.478-.34.478-.187 0-.341-.213-.341-.478 0-.266.154-.48.34-.48.187 0 .34.214.34.48m3.56 4.083c0 .266-.154.48-.34.48-.187 0-.34-.214-.34-.48 0-.265.153-.48.34-.48.186 0 .34.215.34.48" fill="#6E7574"/><path d="M48.3 79.964c-.195 0-.34.215-.34.48s.145.478.34.478c.186 0 .34-.213.34-.478s-.154-.48-.34-.48" fill="#7D8281"/><path d="M89.635 87.972c-.186 0-.34.214-.34.479 0 .266.154.48.34.48.195 0 .34-.214.34-.48 0-.265-.145-.479-.34-.479" fill="#7A7F7E"/><path d="M72.94 87.562c-.194 0-.348.213-.348.48 0 .265.154.477.349.477.186 0 .34-.212.34-.478s-.154-.479-.34-.479m3.421 1.3c-.194 0-.348.213-.348.48 0 .264.154.478.348.478.187 0 .34-.214.34-.479 0-.266-.153-.48-.34-.48" fill="#7D8281"/><path d="M102.916 82.429c-.194 0-.34.213-.34.478s.146.479.34.479c.187 0 .34-.214.34-.479s-.153-.478-.34-.478" fill="#7A7F7E"/><path d="M101.14 92.215c-.024.04-.056.08-.08.12a.477.477 0 0 0 .08-.12" fill="#7D8281"/><path d="M100.865 91.462c-.195 0-.349.214-.349.48 0 .265.154.479.349.479a.29.29 0 0 0 .194-.086c.025-.04.057-.08.082-.12a.586.586 0 0 0 .064-.274c0-.265-.154-.479-.34-.479" fill="#7A7F7E"/><path d="M39.13 83.66c-.195 0-.349.214-.349.479s.154.48.349.48c.186 0 .34-.215.34-.48s-.154-.478-.34-.478m22.921-.549c-.186 0-.34.215-.34.48 0 .266.154.479.34.479.195 0 .349-.213.349-.479 0-.265-.154-.48-.349-.48m-1.613 9.81c-.195 0-.349.215-.349.48s.154.478.349.478c.186 0 .34-.213.34-.478s-.154-.48-.34-.48" fill="#7D8281"/><path d="M89.019 81.882c-.187 0-.34.213-.34.479 0 .265.153.478.34.478.195 0 .34-.213.34-.478 0-.266-.145-.48-.34-.48" fill="#7A7F7E"/><path d="M49.395 92.01c-.195 0-.34.214-.34.48 0 .265.145.479.34.479.186 0 .34-.214.34-.479 0-.266-.154-.48-.34-.48" fill="#7D8281"/><path d="M36.803 102.894c0 .263-.154.478-.345.478-.19 0-.343-.215-.343-.478 0-.265.153-.48.343-.48.19 0 .345.215.345.48m30.519 4.858c0 .265-.146.479-.34.479-.187 0-.341-.214-.341-.479 0-.264.154-.479.34-.479.195 0 .34.215.34.48" fill="#6E7574"/><path d="M32.51 97.486c-.19 0-.342.214-.342.48 0 .265.152.478.342.478.19 0 .342-.213.342-.478 0-.266-.152-.48-.342-.48" fill="#777C7A"/><path d="M95.108 97.075c-.186 0-.34.215-.34.48s.154.479.34.479c.195 0 .349-.214.349-.479s-.154-.48-.349-.48m-5.748 3.057c-.187 0-.341.214-.341.48 0 .264.154.48.34.48.195 0 .35-.216.35-.48 0-.266-.155-.48-.35-.48m-2.919.616c-.186 0-.34.214-.34.48 0 .265.154.48.34.48.195 0 .35-.215.35-.48 0-.266-.155-.48-.35-.48" fill="#757B79"/><path d="M81.973 95.57c-.195 0-.34.213-.34.478 0 .266.145.48.34.48.186 0 .34-.214.34-.48 0-.265-.154-.478-.34-.478m12.317 5.338c-.187 0-.341.213-.341.478 0 .266.154.48.34.48.195 0 .34-.214.34-.48 0-.265-.145-.478-.34-.478m-25.046-4.724c-.194 0-.348.215-.348.48s.154.48.348.48c.187 0 .34-.215.34-.48s-.153-.48-.34-.48m-30.665-.957c-.186 0-.34.214-.34.479 0 .266.154.478.34.478.187 0 .34-.212.34-.478 0-.265-.153-.48-.34-.48" fill="#777C7A"/></g></svg>