<svg xmlns="http://www.w3.org/2000/svg" width="136.744" height="89.655" viewBox="-0.073 -1.591 136.744 89.655"><defs><style/></defs><defs><linearGradient id="grad_1" y2="1"><stop offset="0" stop-color="#FFF"/><stop offset="1" stop-color="#CCC"/></linearGradient><radialGradient id="grad_2" cx=".575" cy=".448" r=".747"><stop offset="0" stop-color="#FFF"/><stop offset="1" stop-color="#CCC"/></radialGradient></defs><g id="ID0.5991008533164859" transform="translate(-169 -135)" stroke="none" stroke-linecap="round"><path id="ID0.20794556522741914" fill="url(#grad_1)" d="M249 137.5c10.214-2.137 21.897-3.139 32 .5 3.55 1.453-1.186 8.8 1.25 11.9 1.343 1.708 4.737-2.733 6.45-1.05 6.854 5.816 16.756 12.22 16.8 21.4.046 9.434-7.922 19.121-16.559 23.152-12.094 5.633-26.717 2.753-40.041 1.948-12.451-.752-24.547-4.42-36.85-6.5-6.102-.802-13 .829-18.4-2.15-3.287-1.813-5.165-6.658-4.25-10.45 1.334-4.407 9.61-4.208 11.1-8.65 1.523-4.547-5.241-9.943-3.4-14.8 1.394-3.297 6.836-3.04 10.7-3.6 6.622-.951 13.664 1.716 20.1 0 7.751-2.095 13.236-10.055 21.1-11.7z" transform="matrix(1.16814 0 0 1.38626 -51.25 -52.85)"/><path id="ID0.20794556522741914" fill="url(#grad_2)" d="M249 137.5c4.71-1.401 9.907-1.545 13.45 1 2.99 1.824 1.041 6.599 2.4 9.6 1.047 2.317 2.544 5.255 4.9 6.95 2.196 1.22 4.994.909 7.75 1.15 4.393.355 9.442-2.315 13.25-.35 6.281 3.098 15.271 7.557 14.75 14.4-.728 9.55-12.219 14.766-17.95 22.5-1.222 1.987 3.358.502 1.391.652-7.862.597-14.53 1.989-21.941 1.698-9.123-.564-17.878-1.663-27.4-4.25-6.859-1.93-12.075-8.137-19.15-9.6-7.157-1.481-15.376 2.739-21.95.35-3.044-1.116-5.86-6.138-4.1-8.85 2.445-3.696 10.681-.538 13.7-4.2 1.923-2.432-2.113-5.812-1.8-8.85-.41-3.564-1.789-9.009 1.5-10.5 6.09-2.766 13.664 1.716 20.1 0 7.751-2.095 13.404-9.396 21.1-11.7z" transform="matrix(1.0951 0 0 1.29959 -30.9 -34.05)"/></g></svg>