<svg width="120" height="120" viewBox="0 0 120 120" xmlns="http://www.w3.org/2000/svg" xmlns:xlink="http://www.w3.org/1999/xlink"><defs><path id="a" d="M0 0h120v120H0z"/><path id="c" d="M0 .917h110.212V111H0z"/></defs><g fill="none" fill-rule="evenodd"><mask id="b" fill="#fff"><use xlink:href="#a"/></mask><path d="M81.797 118.125c-10.898 2.5-32.695 2.5-43.594 0C18.648 113.64 6.32 101.361 1.875 81.797c-2.512-11.056-2.488-32.851 0-43.594C6.402 18.657 18.66 6.415 38.203 1.875c10.693-2.484 32.487-2.516 43.594 0 19.567 4.433 31.675 16.812 36.328 36.328 2.452 10.285 2.548 32.058 0 43.594-4.327 19.591-16.773 31.843-36.328 36.328" fill="#FBC02D" mask="url(#b)"/><g transform="translate(0 9)"><mask id="d" fill="#fff"><use xlink:href="#c"/></mask><path d="M91.64 99.281c-10.898 2.5-32.695 2.5-43.594 0-19.555-4.485-31.883-16.764-36.328-36.328-2.512-11.056-2.488-32.85 0-43.594 1.651-7.13 4.343-13.275 8.03-18.442C10.753 7.337 4.75 16.791 1.874 29.203c-2.487 10.743-2.51 32.538 0 43.594 4.445 19.564 16.773 31.842 36.328 36.328 10.9 2.5 32.696 2.5 43.594 0 12.441-2.854 21.99-8.863 28.416-17.892-5.207 3.707-11.407 6.404-18.572 8.048" fill="#E8AD28" mask="url(#d)"/></g><path d="M69.447 33.379c-2.581 2.239-5.86 5.272-9.423 8.68-3.556-3.406-6.847-6.46-9.472-8.752-4.243-3.708-11.042-3.376-15.772 1.352-4.728 4.73-4.901 11.39-1.352 15.773 2.262 2.794 5.233 6.144 8.54 9.693-3.346 3.499-6.384 6.779-8.75 9.482-3.71 4.24-3.375 11.043 1.354 15.77 4.729 4.73 11.446 4.97 15.772 1.355 2.684-2.244 6.01-5.254 9.585-8.628 3.638 3.394 7.019 6.389 9.726 8.555 4.404 3.525 11.043 3.376 15.772-1.353 4.729-4.73 5.067-11.534 1.353-15.772-2.341-2.672-5.4-5.967-8.786-9.503 3.33-3.53 6.317-6.83 8.578-9.527 3.62-4.32 3.375-11.044-1.353-15.772-4.73-4.73-11.516-5.046-15.772-1.353" fill="#FFF"/></g></svg>