<svg width="120" height="120" viewBox="0 0 120 120" xmlns="http://www.w3.org/2000/svg"><g fill="none" fill-rule="evenodd"><path fill="#5B606B" d="M0 76.5h111.123v-9.719H0z"/><path fill="#4D525B" d="M0 71.754h111.123V66.78H0z"/><path d="M96.875 70.358a7.273 7.273 0 1 0 0 14.545 7.273 7.273 0 0 0 0-14.545" fill="#323948"/><path d="M96.946 73.338a4.363 4.363 0 1 0 0 8.726 4.363 4.363 0 0 0 0-8.726" fill="#FFF"/><path d="M96.899 74.927a2.727 2.727 0 1 0 0 5.454 2.727 2.727 0 0 0 0-5.454m-63.401-4.569a7.273 7.273 0 1 0 0 14.545 7.273 7.273 0 0 0 0-14.545" fill="#323948"/><path d="M33.37 73.338a4.363 4.363 0 1 0 0 8.726 4.363 4.363 0 0 0 0-8.726" fill="#FFF"/><path d="M33.323 74.927a2.727 2.727 0 1 0 0 5.454 2.727 2.727 0 0 0 0-5.454m-17.905-4.569a7.273 7.273 0 1 0 0 14.545 7.273 7.273 0 0 0 0-14.545" fill="#323948"/><path d="M15.489 73.338a4.363 4.363 0 1 0 0 8.726 4.363 4.363 0 0 0 0-8.726" fill="#FFF"/><path d="M15.442 74.927a2.727 2.727 0 1 0 0 5.454 2.727 2.727 0 0 0 0-5.454" fill="#323948"/><path d="M118.786 56.341V77.85h-12.53v-4.198a6.869 6.869 0 0 0-6.869-6.867H85.63V42.94h28.373l4.784 13.401z" fill="#F04925"/><path fill="#CE2C11" d="M97.152 66.785h.615V42.94h-.615z"/><path fill="#231F20" d="M87.616 56.132h8.094V45.126h-8.094zm13.112-11.006v11.006h14.46l-3.04-11.006z"/><path d="M114.001 43.007H85.63V39.96h24.733a3.62 3.62 0 0 1 3.409 2.402l.23.645z" fill="#CE2C11"/><path fill="#F7B029" d="M1.987 66.849h81.98V34H1.988z"/><path fill="#F08E30" d="M80.265 64.982h1.898V35.788h-1.898zm-4.172 0h1.898V35.788h-1.898zm-4.371 0h1.898V35.788h-1.898zm-4.172 0h1.898V35.788H67.55zm-4.173 0h1.898V35.788h-1.898zm-4.37 0h1.898V35.788h-1.898zm-4.173 0h1.899V35.788h-1.899zm-4.37 0h1.898V35.788h-1.898zm-4.173 0h1.899V35.788h-1.9zm-4.171 0h1.897V35.788H42.12zm-4.372 0h1.898V35.788h-1.898zm-4.172 0h1.898V35.788h-1.898zm-4.172 0h1.898V35.788h-1.898zm-4.371 0h1.898V35.788h-1.898zm-4.173 0h1.899V35.788H20.86zm-4.171 0h1.898V35.788h-1.898zm-4.371 0h1.898V35.788h-1.898zm-4.172 0h1.898V35.788H8.146zm-4.371 0h1.898V35.788H3.775z"/><path d="M108.903 58.636h-4.198a.599.599 0 0 0-.599.599v.542a.6.6 0 0 0 .599.6h4.198a.6.6 0 0 0 .599-.6v-.542a.6.6 0 0 0-.6-.6" fill="#231F20"/><path d="M119.308 70.954h-10.633v8.093h8.127a3.165 3.165 0 0 0 3.165-3.165v-4.269a.66.66 0 0 0-.66-.66m-52.552 6.678h20.032v-9.459H66.755z" fill="#5B606B"/><path fill="#4D525B" d="M66.755 77.775h20.032v-2.848H66.755z"/><path fill="#6E757F" d="M66.755 71.02h20.032v-2.848H66.755z"/><path fill="#323948" d="M69.14 68.172v9.459h1.62v-9.459zm12.118 0v9.459h1.621v-9.459z"/><path d="M118.856 62.013v6.805h-2.726a1.89 1.89 0 0 1-1.892-1.892v-4.913h4.618z" fill="#F08E30"/></g></svg>