<svg width="480" height="360" viewBox="0 0 480 360" xmlns="http://www.w3.org/2000/svg"><g fill="none" fill-rule="evenodd"><path fill="#B4FCD9" d="M-1 361h481V0H-1z"/><path fill="#A7F2CE" d="M-1 361h481V236.858H-1z"/><path fill="#423E35" d="M269.371 159.02h70.675V61.039H269.37z"/><path fill="#8CCCD4" d="M277.846 150.546h53.723V69.514h-53.723z"/><path fill="#423E35" d="M252.217 183.996H357.2v-8.475H252.217z"/><path fill="#423E35" d="M252.218 281.295h8.475V175.52h-8.475zm96.505 0h8.476V175.52h-8.476z"/><path fill="#423E35" d="M252.217 220.186H357.2v-8.475H252.217z"/><path fill="#BEF3FA" d="M331.57 88.709l-53.723 52.978V131.35l53.723-52.978zm0 12.924l-49.621 48.913h-4.102v-1.852l53.723-52.97zm0-30.267l-53.723 52.97v-5.91l49.62-48.912h4.103z"/><path d="M265.138 211.711h37.869v-24.618h-9.326c0 2.518-4.302 4.56-9.609 4.56-5.306 0-9.608-2.042-9.608-4.56h-9.326v24.618zm41.272 0h37.869v-24.618h-9.327c0 2.518-4.301 4.56-9.608 4.56-5.306 0-9.608-2.042-9.608-4.56h-9.326v24.618z" fill="#E69D2A"/><path d="M325.717 168.61c0 3.007-4.608 5.615-11.351 6.91H295.05c-6.744-1.295-11.352-3.903-11.352-6.91h42.018z" fill="#21A58D"/><path d="M310.824 169.833c0 1.943-2.978 3.628-7.335 4.464h-6.717c-4.357-.836-7.334-2.521-7.334-4.464h21.386z" fill="#44C7AF"/><path d="M130.157 212.057a1.183 1.183 0 1 1-2.252.729l-6.476-19.961a4.122 4.122 0 0 0-2.054-2.408 4.127 4.127 0 0 0-3.157-.25 4.128 4.128 0 0 0-2.409 2.054 4.126 4.126 0 0 0-.25 3.157 1.184 1.184 0 0 1-2.25.73 6.482 6.482 0 0 1 .392-4.96 6.487 6.487 0 0 1 3.787-3.233 6.483 6.483 0 0 1 4.961.394 6.474 6.474 0 0 1 3.232 3.786l6.476 19.962z" fill="#E05E26"/><path d="M115.467 213.714l34.997 64.777-9.694-72.985-.028.009a3.405 3.405 0 0 1-6.246 2.026l-.088.03a3.403 3.403 0 1 1-6.245 2.026l-.089.028a3.402 3.402 0 0 1-6.245 2.026l-.088.027a3.405 3.405 0 0 1-6.246 2.026l-.028.01z" fill="#E69D2A"/><path d="M147.773 209.273a1.185 1.185 0 0 0 2.263.693l6.147-20.064a4.13 4.13 0 0 1 5.166-2.744 4.12 4.12 0 0 1 2.442 2.014c.497.935.637 2.059.302 3.151-.191.626.16 1.288.785 1.478a1.181 1.181 0 0 0 1.478-.784 6.484 6.484 0 0 0-.475-4.955 6.49 6.49 0 0 0-3.838-3.169 6.48 6.48 0 0 0-4.955.476 6.481 6.481 0 0 0-3.169 3.839l-6.146 20.065z" fill="#BA3902"/><path d="M162.488 210.688l-33.925 65.345 8.49-73.135.028.01a3.404 3.404 0 0 0 6.277 1.923l.09.027a3.405 3.405 0 0 0 6.278 1.923l.09.027a3.405 3.405 0 0 0 6.276 1.922l.09.028a3.407 3.407 0 0 0 2.405 3.356 3.406 3.406 0 0 0 3.873-1.434l.028.008z" fill="#E05E26"/><path d="M123.283 231.77v3.655l2.724-3.319 2.75 3.35-2.75 3.348-2.724-3.317v3.654l1.224 1.49-1.224 1.492v3.654l2.724-3.32 2.75 3.35-2.75 3.35-2.724-3.319v3.654l1.224 1.492-1.224 1.49v3.654l2.724-3.318 2.75 3.35-2.75 3.348-2.724-3.317v3.654l1.224 1.49-1.224 1.491v3.655l2.724-3.32 2.75 3.351-2.75 3.348-2.724-3.317v3.654l1.224 1.49-1.224 1.492v3.653l2.724-3.318 2.75 3.348-2.75 3.35-2.724-3.318v3.654l.612.746h4.223l2.139-2.604v-3.655l-2.75-3.348 2.75-3.349v-3.653l-2.75-3.35 2.75-3.35v-3.653l-2.75-3.35 2.75-3.348v-3.654l-2.75-3.35 2.75-3.348v-3.654l-2.139-2.604h-4.223l-.612.746zm9.098 30.327v3.653l-.625.76.625.762v3.654l-2.124-2.588v-3.653l2.124-2.588zm0-10.352v3.653l-.625.76.625.762v3.654l-2.124-2.588v-3.654l2.124-2.587zm0-10.352v3.653l-.625.761.625.761v3.654l-2.124-2.588v-3.654l2.124-2.587zm0-10.352l-2.124 2.587v3.654l2.124 2.588v-3.654l-.625-.76.625-.76v-3.655zm-2.124 47.649l2.124 2.588v-3.654l-.625-.762.625-.76v-3.653l-2.124 2.586v3.655zm4.25-8.83v3.655l-2.126 2.587v-3.653l.625-.762-.625-.761v-3.654l2.125 2.588zm0-10.352v3.654l-2.126 2.588v-3.653l.625-.762-.625-.761v-3.654l2.125 2.588zm0-10.352v3.654l-2.126 2.588v-3.653l.625-.76-.625-.763v-3.654l2.125 2.588zm0-10.352v3.654l-2.126 2.588v-3.653l.625-.762-.625-.761v-3.654l2.125 2.588zm0-7.78h-2.112l-.014.017v3.655l2.125-2.588v-1.084zm-2.126 50.254l.014.016h2.111v-1.082l-2.125-2.588v3.654zm4.25-14.005v3.654l-.625.76.625.76v3.655l-2.125-2.588v.001-3.655l2.125-2.587zm0-10.352v3.654l-.625.76.625.761v3.654l-2.125-2.588v-3.654l2.125-2.587zm0-10.352v3.655l-.625.76.625.76v3.654l-2.125-2.588v-3.654.001l2.125-2.588zm0-10.352v3.653l-.625.76.625.762v3.654l-2.125-2.588v-3.654l2.125-2.587zm0-5.177l-.014-.016h-2.11v1.084-.002l2.124 2.588v-3.654zm-2.125 50.254h2.111l.014-.016v-3.653l-2.125 2.587v1.082zm4.25-16.61v3.655l-2.125 2.588v-3.654l.625-.76-.625-.763v-3.654l2.125 2.588zm0-10.352v3.654l-2.125 2.59v-3.655l.625-.76-.625-.763v-3.654l2.125 2.588zm0-10.352v3.655l-2.125 2.589v-3.655l.625-.762-.625-.761v-3.654l2.125 2.588zm0-10.352l-2.125-2.588v3.654l.625.762-.625.761v3.653l2.125-2.588v-3.654zm-2.125 47.65l2.125-2.588v-3.655l-2.125-2.588v3.655l.625.76-.625.763v3.653zm4.25-19.18v3.652l-.625.76.624.762v3.654l-2.124-2.588v.001-3.655.001l2.124-2.588zm0-10.353v3.653l-.626.762.625.76v3.654l-2.124-2.588v-3.654l2.124-2.587zm0-10.352v3.654l-.625.76.624.761v3.654l-2.124-2.587v-3.655l2.124-2.587zm0-10.352l-2.125 2.587v3.654l2.124 2.588v-3.653l-.625-.76.625-.763v-3.653zm-2.125 47.649l2.124 2.588v-3.654l-.624-.762.624-.759v-3.656l-2.124 2.588v3.655zm4.25-8.83v3.655l-2.126 2.588v-3.656l.625-.76-.625-.761v-3.654l2.126 2.588zm0-10.352v3.654l-2.126 2.588v-3.653l.625-.762-.625-.761v-3.653l2.126 2.587zm0-10.352v3.654l-2.126 2.588v-3.653l.625-.76-.625-.763v-3.654l2.126 2.588zm0-10.352v3.655l-2.126 2.588v-3.654l.625-.762-.625-.761v-3.653l2.126 2.587zm0-7.78h-2.112l-.014.017v3.653l2.126-2.588v-1.082zm-2.126 50.254l.014.016h2.112v-1.082l-2.126-2.588v3.654zm4.25-14.006v3.654l-.625.76.625.763v3.653l-2.124-2.588v.001-3.655l2.124-2.588zm0-10.352v3.654l-.625.761.625.762v3.653l-2.124-2.588v-3.654l2.124-2.588zm0-10.35v3.652l-.625.762.625.761v3.653l-2.124-2.588v-3.654.001l2.124-2.588zm0-10.354v3.654l-.625.76.625.763v3.654l-2.124-2.588v-3.655l2.124-2.588zm0-5.175l-.013-.017h-2.111v1.082l2.124 2.588v-3.653zm-2.124 50.253h2.111l.013-.016v-3.654l-2.124 2.588v1.082zm4.249-16.61v3.655-.001l-2.125 2.588v-3.654l.624-.761-.624-.76v-3.654l2.125 2.588v-.001zm0-10.352v3.654l-2.125 2.588v-3.654l.625-.76-.625-.762v-3.653l2.125 2.587zm0-10.352v3.654l-2.125 2.588v-3.653l.625-.762-.625-.76v-3.654l2.125 2.587zm0-10.352l-2.125-2.587v3.653l.625.762-.625.76v3.654l2.125-2.587v-3.655zm-2.125 47.65l2.125-2.588v-3.655l-2.125-2.586v3.653l.624.76-.624.762v3.654zm2.125-2.588l2.138 2.604h4.222l.614-.747v-3.654l-2.725 3.319-2.75-3.35 2.75-3.348 2.725 3.318v-3.653l-1.225-1.492 1.225-1.492v-3.654l-2.725 3.319-2.75-3.348 2.75-3.35 2.725 3.319v-3.653l-1.225-1.493 1.225-1.492v-3.654l-2.725 3.32-2.75-3.349 2.75-3.35 2.725 3.318v-3.652l-1.225-1.492 1.225-1.493v-3.653l-2.725 3.32-2.75-3.35 2.75-3.35 2.725 3.319v-3.654l-1.225-1.492 1.225-1.491v-3.653l-2.725 3.317-2.75-3.348 2.75-3.35 2.725 3.319v-3.655l-.614-.746h-4.222l-2.138 2.604v3.655l2.75 3.348-2.75 3.35v3.653l2.75 3.35-2.75 3.348v3.654l2.75 3.35-2.75 3.348v3.655l2.75 3.348-2.75 3.348v3.655z" fill="#423E35"/><path fill="#423E35" d="M151.97 281.295h2.259v-50.27h-2.258z"/><path fill="#423E35" d="M123.283 233.284h30.946v-2.26h-30.946zm0 48.01h30.946v-2.26h-30.946z"/><path fill="#423E35" d="M123.283 281.295h2.258v-50.27h-2.258zM14.132 192.336h-.001l-6.467-5.31 6.408-5.261H7.016l-2.88 2.365-2.88-2.365H.188v4.917l.418.344-.418.344v5.793l3.947-3.24 6.467 5.31-6.468 5.31-3.946-3.24v5.794l.418.344-.418.342v5.794l3.947-3.24 6.467 5.31-6.467 5.31-3.947-3.242v5.795l.418.344-.418.342v5.794l3.946-3.24 6.468 5.31-6.467 5.31-3.947-3.242v5.795l.418.343-.418.343v4.92h1.066l2.88-2.366 2.881 2.365h7.056l-6.408-5.262 6.467-5.31v-5.794l-6.467-5.308 6.468-5.31v-5.795h-.001l-6.467-5.308 6.468-5.31v-5.795zm4.997 12.31v5.794l-1.47 1.207 1.47 1.207v5.793l-4.997-4.103v-5.795l4.997-4.103zm0 32.827l-4.939 4.055h4.939v-4.055zm-4.997-6.516l4.997 4.103v-5.794l-1.47-1.207 1.47-1.207v-5.793l-4.997 4.103v5.795zm4.997-42.724l-4.997 4.103v5.794l4.997 4.104v-5.793l-1.47-1.207 1.47-1.207v-5.794zm0-6.468H14.19l4.938 4.054v-4.054zm4.999 35.191v5.794l-5 4.102v-5.793l1.47-1.205-1.47-1.207v-5.793l5 4.102zm0-16.413v5.794l-5 4.103v-5.794l1.47-1.205-1.47-1.207v-5.793l5 4.102zm-5 34.517l1.47 1.206-1.47 1.207v4.055h2.119l2.88-2.365v-5.794l-4.998-4.103v5.794zm5-50.93l-2.881-2.365h-2.118v4.054l1.47 1.207-1.47 1.207v5.794l4.999-4.103v-5.794zm4.997 28.724v5.793l-1.47 1.207 1.47 1.205v5.793l-4.997-4.102v-5.794l4.997-4.102zm0-16.413v5.793l-1.47 1.207 1.47 1.205v5.794l-4.997-4.103v-5.794l4.997-4.102zm-4.997 42.722l2.88 2.365h2.117v-4.055l-1.47-1.207 1.47-1.206v-5.794l-4.997 4.103v5.794zm4.997-50.93l-1.47-1.207 1.47-1.207v-4.054h-2.118l-2.88 2.365v5.794l4.998 4.103v-5.794zm4.998 20.516v5.795l-.001-.002-4.997 4.105v-5.793l1.47-1.207-1.47-1.207v-5.794l4.997 4.103zm-4.998 26.311l4.997-4.103v-5.795.002l-4.997-4.105v5.793l1.47 1.207-1.47 1.207v5.794zm0 6.468h4.94l-4.94-4.055v4.055zm0-55.709l4.938-4.054h-4.938v4.054zm4.998 6.517h-.001l-4.997-4.103v5.794l1.47 1.207-1.47 1.207v5.793l4.998-4.104v-5.794zm4.998 12.31v5.794l-1.47 1.207 1.47 1.207v5.793l-4.998-4.103v-5.795l4.998-4.103zm0 32.827l-4.939 4.055h4.939v-4.055zm-4.998-6.516l4.998 4.103v-5.794l-1.47-1.207 1.47-1.207v-5.793l-4.998 4.103v5.795zm4.998-42.724l-4.998 4.103v5.794l4.998 4.104v-5.793l-1.47-1.207 1.47-1.207v-5.794zm0-6.468h-4.939l4.939 4.054v-4.054zm4.998 35.191v5.794l-4.998 4.102v-5.793l1.47-1.205-1.47-1.207v-5.793l4.998 4.102zm0-16.413v5.794l-4.998 4.103v-5.794l1.47-1.205-1.47-1.207v-5.793l4.998 4.102zM39.12 235.06l1.47 1.206-1.47 1.207v4.055h2.118l2.88-2.365v-5.794l-4.998-4.103v5.794zm4.998-50.93l-2.88-2.365H39.12v4.054l1.47 1.207-1.47 1.207v5.794l4.998-4.103v-5.795zm4.998 28.724v5.793l-1.47 1.207 1.47 1.205v5.793l-4.998-4.102v-5.794l4.998-4.102zm0-16.413v5.793l-1.47 1.207 1.47 1.205v5.795l-4.998-4.104v-5.794l4.998-4.102zm-4.998 42.722l2.88 2.365h2.118v-4.055l-1.47-1.207 1.47-1.206v-5.794l-4.998 4.103v5.794zm4.998-50.93l-1.47-1.207 1.47-1.207v-4.054h-2.119l-2.88 2.364v5.795h.001l4.998 4.103v-5.794zm4.997 20.516v5.795l-4.997 4.103v-5.793l1.47-1.207-1.47-1.206v-5.795l4.997 4.103zm-4.997 26.311l4.997-4.103v-5.795l-4.997-4.103v5.793l1.47 1.207-1.47 1.207v5.794zm0 6.468h4.939l-4.94-4.055v4.055zm0-55.709l4.939-4.054h-4.94v4.054zm4.997 6.517l-4.997-4.103v5.794l1.47 1.207-1.47 1.207v5.793l4.997-4.104v-5.794zm4.998 12.31v5.795l-1.47 1.206 1.47 1.207v5.793l-4.998-4.103v-5.795l4.998-4.103zm0 32.827l-4.938 4.055h4.938v-4.055zm-4.998-6.516l4.998 4.103v-5.794l-1.47-1.207 1.47-1.205v-5.795l-4.998 4.105v-.002 5.795zm4.998-42.724l-4.998 4.103v5.794h.001l4.997 4.104v-5.795l-1.47-1.205 1.47-1.207v-5.794zm0-6.468h-4.937l4.937 4.054v-4.054zm4.998 35.191v5.795l-4.998 4.103v-5.795l1.47-1.205-1.47-1.207v-5.793l4.998 4.102zm0-16.413v5.794l-4.998 4.104v-5.795l1.47-1.205-1.47-1.207v-5.795l4.998 4.104zm-4.998 34.517l1.47 1.206-1.47 1.207v4.055h2.118l2.88-2.365v-5.794l-4.998-4.103v5.794zm4.998-50.93l-2.88-2.365h-2.118v4.054l1.47 1.207-1.47 1.207v5.794l4.998-4.103v-5.795zm4.998 28.724v5.793l-1.469 1.207 1.469 1.205v5.795l-4.997-4.104v.001-5.795l4.997-4.102zm0-16.413v5.793l-1.469 1.207 1.469 1.205v5.794l-4.997-4.103v-5.794l4.997-4.102zm-4.998 42.722h.001l2.88 2.365h2.117v-4.055l-1.469-1.207 1.469-1.206v-5.794l-4.997 4.103v5.794zm4.998-50.93l-1.469-1.207 1.469-1.206v-4.055H66.99l-2.879 2.365v5.794l4.997 4.103v-5.794zm4.998 20.516v5.795-.002l-4.998 4.105v-5.793l1.47-1.207-1.47-1.207v-5.794l4.997 4.103h.001zm-4.998 26.311l4.997-4.103h.001v-5.795.002l-4.998-4.105v5.795l1.47 1.205-1.47 1.207v5.794zm0 6.468h4.939l-4.94-4.055v4.055zm0-55.708l4.939-4.055h-4.94v4.055zm4.998 6.516l-4.998-4.103v5.794l1.47 1.207-1.47 1.207v5.793l4.997-4.105.001.001v-5.794zm7.116-10.571h-7.056l6.408 5.26-6.468 5.311v5.794l6.468 5.31-6.468 5.31v5.794l6.468 5.31-6.468 5.308v5.795l6.468 5.31-6.41 5.261h7.058l1.441-1.185v-8.154l-5.029-4.13 5.03-4.128v-8.156l-5.03-4.128 5.03-4.13v-8.154l-5.03-4.13 5.03-4.129v-8.156l-1.442-1.183z"/><path fill="#423E35" d="M.189 241.528h82.474v-4.362H.189z"/><path fill="#423E35" d="M78.3 241.528h4.363v-59.763H78.3z"/><path fill="#423E35" d="M.189 186.127h82.474v-4.362H.189zm73.999 95.168h8.475v-39.766h-8.475z"/><path fill="#423E35" d="M.19 250.003h82.474v-8.475H.189z"/><path d="M78.824 241.529H34.012a3.851 3.851 0 0 1-3.84-3.841V227.31a3.85 3.85 0 0 1 3.84-3.839h44.812a3.85 3.85 0 0 1 3.84 3.84v10.376a3.851 3.851 0 0 1-3.84 3.84" fill="#E69D2A"/><path d="M26.333 241.529H.189v-18.057h26.144a3.851 3.851 0 0 1 3.84 3.84v10.376a3.852 3.852 0 0 1-3.84 3.84" fill="#E69D2A"/></g></svg>