<svg width="120" height="120" viewBox="0 0 120 120" xmlns="http://www.w3.org/2000/svg" xmlns:xlink="http://www.w3.org/1999/xlink"><defs><path id="a" d="M.251.575h9.666v6.984H.251z"/><path id="c" d="M.64.575h9.666v6.984H.64z"/><path id="e" d="M.428.39h31.245v25.794H.428z"/><path id="g" d="M.311.42h88.164v76.47H.31z"/></defs><g fill="none" fill-rule="evenodd"><path d="M27.97 114.627a3.76 3.76 0 0 1-3.768 3.753h-.444a3.76 3.76 0 0 1-3.768-3.753V86.434a3.76 3.76 0 0 1 3.768-3.752h.444a3.76 3.76 0 0 1 3.768 3.752v28.193z" fill="#6D585F"/><g transform="matrix(-1 0 0 1 29.667 112.05)"><mask id="b" fill="#fff"><use xlink:href="#a"/></mask><path d="M1.768 1.511c-.17 1.114-.403 2.112-.722 2.92C.249 6.446-.792 7.213 2.65 6.447c.173-.039-.278.886-.095.941 1.483.44 3.99.036 6.05-1.241C9.922 5.33 10.116 3.422 9.76.575c-2.054 1.87-4.911 2.44-7.993.936" fill="#000" mask="url(#b)"/></g><path d="M82.94 113.206a3.76 3.76 0 0 1-3.768 3.754h-.444a3.76 3.76 0 0 1-3.768-3.754V85.014a3.76 3.76 0 0 1 3.768-3.752h.444c2.08 0 5.298 1.674 5.298 3.746l-1.53 28.198z" fill="#6D585F"/><path d="M82.953 111.772c.169 1.113.402 2.11.722 2.918.797 2.016 1.838 2.783-1.604 2.017-.175-.039.277.886.094.94-1.483.44-3.99.037-6.05-1.24-1.316-.816-1.51-2.726-1.155-5.573 2.053 1.871 4.91 2.441 7.993.938" fill="#000"/><path d="M69.325 114.627a3.76 3.76 0 0 1-3.768 3.753h-.444a3.76 3.76 0 0 1-3.768-3.753V86.434a3.76 3.76 0 0 1 3.768-3.752h.444a3.76 3.76 0 0 1 3.767 3.752v28.193z" fill="#6D585F"/><g transform="matrix(-1 0 0 1 71.41 112.05)"><mask id="d" fill="#fff"><use xlink:href="#c"/></mask><path d="M2.157 1.511c-.17 1.114-.403 2.112-.722 2.92C.637 6.446-.403 7.213 3.039 6.447c.174-.039-.277.886-.094.941 1.483.44 3.99.036 6.05-1.241 1.316-.816 1.508-2.725 1.155-5.572-2.053 1.87-4.912 2.44-7.993.936" fill="#000" mask="url(#d)"/></g><path d="M40.738 113.206a3.76 3.76 0 0 1-3.768 3.754h-.444a3.76 3.76 0 0 1-3.768-3.754V85.014a3.76 3.76 0 0 1 3.768-3.752h.444c2.081 0 5.297 1.674 5.297 3.746l-1.53 28.198z" fill="#6D585F"/><path d="M40.751 111.772c.17 1.113.403 2.11.722 2.918.797 2.016 1.838 2.783-1.605 2.017-.174-.039.278.886.095.94-1.483.44-3.99.037-6.05-1.24-1.316-.816-1.51-2.726-1.155-5.573 2.053 1.871 4.91 2.441 7.993.938" fill="#000"/><path d="M75.733 23.653c-6.386-6.173-16.2-8.687-22.267-4.235-9.53 6.99-6.011 20.545-1.856 23.713 1.105.843-1.603-5.166-.053-10.74 2.628-9.451 11.57-10.687 18.349-2.093 2.69 3.41 10.428-2.197 5.827-6.645" fill="#FFCB57"/><g transform="matrix(-1 0 0 1 92.282 .555)"><mask id="f" fill="#fff"><use xlink:href="#e"/></mask><path d="M.601 21.59C-.33 12.058 2.447 3.056 10.312.952c12.349-3.304 21.473 8.79 21.36 14.42-.03 1.499-3.301-4.83-9.072-7.282-9.785-4.16-15.326 2.602-12.605 14.096 1.08 4.56-8.723 6.272-9.394-.596" fill="#FFCB57" mask="url(#f)"/></g><path d="M27.383 88.307c-1.566 7.798 3.218 15.323 10.684 16.81 7.467 1.487 14.788-3.629 16.353-11.426 1.566-7.797-3.218-15.323-10.684-16.81-7.467-1.486-14.788 3.63-16.353 11.426" fill="#EFA3A3"/><path d="M33.253 104.481c-.15 2.33.795 4.288 2.114 4.373 1.317.084 2.508-1.737 2.658-4.068.15-2.33-.796-4.288-2.113-4.373-1.318-.084-2.508 1.737-2.659 4.068m11.406.759c.648 2.13 2.15 3.563 3.354 3.199 1.205-.364 1.655-2.386 1.007-4.517-.648-2.128-2.15-3.56-3.355-3.197-1.204.363-1.655 2.385-1.006 4.515" fill="#EFA3A3"/><g transform="matrix(-1 0 0 1 94.18 23.232)"><mask id="h" fill="#fff"><use xlink:href="#g"/></mask><path d="M88.474 12.543c-1.492 1.013-2.226 1.87-4.04 2.271C86.787 8.15 82.281 3.1 77.781.421c2.687 3.929 3.753 7.541 1.162 11.378-.238-3.434-2.381-5.085-5.647-6.494 3.537 6.475 2.073 10.756-1.357 17.66a26.78 26.78 0 0 0-4.677-2.339c-18.576-7.197-41.38 15.557-44.886 3.603-1.78-6.064.735-19.87-1.015-20.387-4.535-1.337-13.113.535-16.374 7.234C2.89 15.385-1.283 26.583.95 41.258c.039.251.082.5.123.751 0 0 4.06 16.983 5.189 19.844 1.437 3.647 4.314 6.765 5.635 10.506.964-1.047 2.12-2.97 2.935-4.16.109 2.454 1.673 4.452 3.494 5.978a17.211 17.211 0 0 1 3.124-4.627c-.331 2.58 1.622 5.115 3.138 7.005 1.771-1.37 3.097-3.121 3.862-5.067.34 1.762.916 3.556.853 5.401 2.015-1.364 4.262-3.16 5.38-5.352 1.053.838 1.713 2.719 2.353 5.196 2.203-1.701 3.056-2.655 4.268-4.076 1.336.517 2.679 1.838 3.56 3.462 2.03-1.723 2.581-2.89 3.812-5.418.424 2.422 2.052 3.337 2.052 3.337l2.478-3.657s1.808 3.093 4.081 3.796c.309-1.709.629-3.103 1.624-3.725.73 1.146.763 1.883.616 3.374 1.653-1.59 2.402-2.39 2.626-3.797.28.817 1.684 2.734 3.253 3.445-.094-2.452.273-4.346.891-6.05.926 2.492 1.647 4.866 4.049 6.703.574-3.69.535-4.645 1.411-7.472 1.483 1.829 3.3 4.419 4.067 8.024 1.71-4.934 2.648-10.557.92-15.552 1.227 2.643 2.243 5.29 2.54 8.23 2.826-5.944 3.837-14.95 2.692-22.699.074-1.108.07-2.25-.039-3.432-.669-7.28-3.102-12.32-6.858-15.845 6.035-1.984 13.507-8.112 13.395-12.838" fill="#E8D7C4" mask="url(#h)"/></g><path d="M67.608 50.995c2.248-.142 3.513-1.467 4.281-3.85.086-.263-.703 3.535 4.995 13.111 2.496 4.197 4.26 7.037 9.296 9.963 2.915 1.694 5.337 1.76 5.337 1.76-.138.868-.63 2.646-1.224 4.646-12.385-2.274-20.968-13.694-22.685-25.63" fill="#F03"/><path d="M107.175 64.51c.913 2.44 1.703 4.082 4.437 4.613 1.608.313 2.394.13 4.388-1.518-.856 3.722-4.633 4.697-6.849 3.173.244 1.218 1.684 1.779 3.35 1.916-5.511 1.702-10.506-2.12-12.096-6.76l6.77-1.424zM92.513 17.447s5.797 5.98 11.555 5.026c5.758-.956 11.095-6.984 11.095-6.984s-7.597-7.482-13.355-6.526c-5.757.955-9.295 8.484-9.295 8.484" fill="#F5E2CB"/><path d="M96.718 19.12s3.99 2.447 7.86 1.443c3.872-1.002 7.392-4.492 7.392-4.492s-5.223-3.03-9.094-2.026c-3.872 1.003-6.158 5.076-6.158 5.076" fill="#FFB0DD"/><path d="M68.25 31.787s2.904 7.793-.453 12.549c-3.356 4.755-11.123 6.939-11.123 6.939s-3.483-10.06-.127-14.815c3.357-4.756 11.703-4.673 11.703-4.673" fill="#F5E2CB"/><path d="M67.945 36.286s.488 4.642-2.096 7.682c-2.583 3.042-7.266 4.692-7.266 4.692s-.481-6 2.102-9.042c2.584-3.042 7.26-3.332 7.26-3.332" fill="#FFB0DD"/><path d="M69.233 45.324c5.831 9.941 24.088 29.136 36.555 21.883 12.468-7.253 4.455-32.41-1.375-42.35-5.831-9.941-14.667-9.89-25.193-3.612-10.524 6.276-15.818 14.138-9.987 24.079" fill="#F5E2CB"/><path d="M78.212 44.887c2.368 3.632 2.594 4.074 6.414.477 2.542-2.392 3.386-2.106 1.23-5.418a4.567 4.567 0 0 0-6.302-1.335 4.526 4.526 0 0 0-1.342 6.276" fill="#FFF"/><path d="M79.457 43.934a2.98 2.98 0 0 0 4.016 1.242 2.955 2.955 0 0 0 1.248-4 2.98 2.98 0 0 0-4.016-1.242 2.956 2.956 0 0 0-1.248 4m-3.226-4.285a.437.437 0 0 0 .2-.395c-.074-1.207.387-2.186 1.259-2.702a.439.439 0 1 0-.445-.757c-1.173.68-1.79 1.963-1.694 3.513a.44.44 0 0 0 .68.34" fill="#000"/><path d="M99.981 30.861c2.367 3.633 2.68 4.018-2.174 6.03-3.229 1.336-3.31 2.22-5.469-1.09a4.526 4.526 0 0 1 1.342-6.276 4.567 4.567 0 0 1 6.301 1.336" fill="#FFF"/><path d="M98.6 31.605a2.955 2.955 0 0 1-.494 4.16 2.983 2.983 0 0 1-4.178-.495 2.953 2.953 0 0 1 .497-4.158 2.981 2.981 0 0 1 4.176.493m-2.616-4.679a.44.44 0 0 0-.036-.758c-1.381-.718-2.806-.684-3.91.11a.439.439 0 1 0 .513.713c.827-.584 1.912-.604 2.989-.044a.44.44 0 0 0 .444-.021" fill="#000"/><path d="M77.537 54.816c.998.912 2.783.594 3.986-.71 1.203-1.306 1.368-3.105.37-4.018-.999-.912-2.783-.594-3.986.711-1.203 1.306-1.37 3.104-.37 4.017m24.739-17.981c.068 1.349 1.564 2.37 3.34 2.281 1.778-.09 3.163-1.255 3.094-2.603-.068-1.348-1.563-2.369-3.34-2.28-1.777.089-3.162 1.254-3.094 2.602" fill="#FFB0DD"/><path d="M77.128 33.424a1.743 1.743 0 0 1-2.97-.416c-1.054-2.542-1.75-5.058-1.111-7.34.598-2.131 2.058-4.271 4.783-5.86 2.273-1.325 5.544-2.225 7.91-1.523 2.195.651 3.789 2.2 5.63 3.961a1.728 1.728 0 0 1 .049 2.451 1.745 1.745 0 0 1-2.46.048c-1.564-1.495-2.95-2.625-4.573-3.447a44.79 44.79 0 0 1 3.45 3.796 1.73 1.73 0 0 1-.262 2.437c-.748.6-1.844.484-2.447-.261a42.172 42.172 0 0 0-1.988-2.278c.416.793.853 1.531 1.314 2.133a1.729 1.729 0 0 1-.329 2.43 1.745 1.745 0 0 1-2.438-.327 16.795 16.795 0 0 1-1.28-1.982c.198.638.45 1.197.774 1.628a1.728 1.728 0 0 1-.348 2.426c-.768.574-1.86.42-2.436-.347-1.02-1.353-1.579-3.18-1.87-5.244-.1 2.053.023 3.985.848 5.975.25.602.134 1.264-.246 1.74" fill="#6D585F"/><path d="M101.95 66.943c2.797 0 4.612-1.515 5.513-4.584a.42.42 0 0 0-.286-.523.42.42 0 0 0-.525.286c-1.043 3.544-3.277 4.654-7.243 3.605a.421.421 0 1 0-.218.816c1.008.266 1.927.4 2.758.4" fill="#000"/><path d="M104.309 66.296a.385.385 0 0 0 .359-.533c-.524-1.272-1.87-3.698-2.58-4.53a.388.388 0 0 0-.547-.044.384.384 0 0 0-.044.545c.607.71 1.914 3.014 2.453 4.322a.39.39 0 0 0 .359.24" fill="#000"/><path d="M94.744 61.075c1.038 1.773 7.54 1.104 7.54 1.104s4.078-5.479 3.04-7.251c-1.038-1.772-3.532-.61-6.454 1.087-2.921 1.697-5.164 3.288-4.126 5.06" fill="#C67F94"/><path d="M90.17 78.064a.996.996 0 0 1 .783 1.61.99.99 0 0 1-.666.37.985.985 0 0 1-1.11-.869.994.994 0 0 1 .992-1.111m-.003 3.718a2.716 2.716 0 0 0 2.152-1.04 2.696 2.696 0 0 0 .566-2.004 2.735 2.735 0 0 0-4.863-1.364 2.694 2.694 0 0 0-.567 2.005 2.729 2.729 0 0 0 2.712 2.403" fill="#FFCB57"/><path d="M89.635 74.454c.082 1.511-.094 3.76.533 3.726.628-.034.72-2.41.805-3.92.093-1.684-.457-3.18-1.084-3.148-.627.034-.335 1.831-.254 3.342" fill="#FFCB57"/><path d="M88.942 94.975a3.112 3.112 0 0 0 3.46 2.715 3.106 3.106 0 0 0 2.726-3.447 3.112 3.112 0 0 0-3.46-2.714 3.103 3.103 0 0 0-2.726 3.446" fill="#D1942A"/><path d="M85.684 86.516c-.434-3.632 1.588-6.858 4.515-7.204 2.928-.346 5.651 2.317 6.085 5.95.146 1.218 2.171 4.258 2.26 5 .164 1.365-2.74 3.45-6.572 3.903-3.834.454-7.146-.895-7.308-2.26-.09-.742 1.166-4.17 1.02-5.389" fill="#FFBF3E"/></g></svg>