<svg width="120" height="120" viewBox="0 0 120 120" xmlns="http://www.w3.org/2000/svg" xmlns:xlink="http://www.w3.org/1999/xlink"><defs><path id="a" d="M.001.001H104.86v115.641H.001z"/></defs><g transform="translate(8)" fill="none" fill-rule="evenodd"><mask id="b" fill="#fff"><use xlink:href="#a"/></mask><path d="M73.391 61.201a6.51 6.51 0 1 1 .001-13.021 6.51 6.51 0 0 1-.001 13.021m-44.79 0a6.51 6.51 0 0 1 0-13.02c3.6 0 6.515 2.915 6.515 6.51a6.512 6.512 0 0 1-6.515 6.51M52.446.001h-.03C23.471.001.001 25.391.001 56.711v54.32c0 2.26 2.945 3.135 4.175 1.24l10.53-16.19c.88-1.36 2.875-1.36 3.76 0l13.895 18.545c.885 1.355 2.875 1.355 3.76 0l13.95-18.635c.885-1.355 2.875-1.355 3.76 0l13.895 18.515a2.233 2.233 0 0 0 3.755 0l13.895-18.515c.885-1.36 2.88-1.355 3.76 0l11.545 17.78c1.23 1.9 4.18 1.025 4.18-1.235V56.711c0-31.32-23.465-56.71-52.415-56.71" fill="#FF6187" mask="url(#b)"/></g></svg>