<svg width="173" height="263" viewBox="0 0 173 263" xmlns="http://www.w3.org/2000/svg"><g fill="none" fill-rule="evenodd"><path fill="#624B59" d="M113.372 257.407l-.094 1.066v4.2h12.787l-2.506-3.596-4.264-1.67z"/><path d="M71.647 130.705s2.538.562 1.974 9.366c-.564 8.804-.376 12.55-.376 12.55s-.658 2.436 2.82 5.527c3.48 3.09 12.506 13.861 18.242 29.2 0 0 4.982 11.261 5.264 13.603.282 2.341-.658 4.683 0 6.65.659 1.967 4.795 8.055 6.394 15.641 0 0 4.889 20.7 4.325 31.095 2.162.75 1.598 2.487 3.009 3.07 1.41.583 4.513.26 5.923 0 0 0 2.633-1.196.42-7.097-2.79-7.437-5.285-13.068-6.72-21.167-1.41-7.961-2.62-12.75-2.35-15.454.186-1.873.636-5.604.564-7.774-.126-3.794-3.103-5.433-6.205-13.394-3.103-7.96-7.71-26.787-8.274-30.533-.564-3.747-.47-7.774.564-11.52 1.034-3.747 3.949-16.11 3.479-24.914 0 0-12.838 12.55-12.338 7.212 1.303-13.872-15.412-3.225-16.715-2.061" fill="#DEBB9B"/><path d="M119.395 257.407c-.258.017-1.755-.624-1.693-1.499.063-.874 1.066-2.685.502-4.058-.564-1.374-1.509-3.621-.504-4.059 1.005-.437 2.697 3.871 2.729 5.557.031 1.686-.094 3.997-1.034 4.059m-7.089-.604s3.699-1.748 3.134-3.247c-.564-1.499-1.32-4.308-1.538-5.37-.217-1.061-.154-2.248-1.314-1.936-1.16.313-2.35 1.531-2.35 1.531l.25 6.15s1.864 1.772 1.818 2.872m4.952-12.431s-5.639.277-6.14-.223c-.502-.5-1.755-8.929-1.755-8.929s-.251-2.31.564-2.373c.815-.062 4.44 2.256 4.442 2.381.024 1.616.932 1.519 2.889 9.144m-3.98-13.232s-3.727.084-4.291-1.727c-.564-1.81 0-9.99 0-11.24 0-1.248.94-1.588 1.504-2.025.564-.437.892 4.477 1.706 8.66.815 4.183 1.081 6.332 1.081 6.332m-5.483-3.787c.067.24.252-5.683 0-6.869-.25-1.186-.752-.499-1.44-.624-.691-.125 1.127 6.369 1.44 7.493m-2.68-7.579c.126-.375 3.62-4.66 3.62-4.66s1.128-.375 1.004-1.561c-.127-1.186-.753-5.182-1.004-6.431-.251-1.25-.966-2.123-1.674-1.748-.707.374-1.774 1.498-2.714 1.124-.94-.375-1.567-1.187-2.257-.438-.689.75-1.332 2.704-1.708 3.141-.376.437 2.101 3.165 2.916 5.85a34.641 34.641 0 0 0 1.817 4.723m5.376-14.488s-3.444-.6-4.293-1.91c-.847-1.312-.284-.945 1.221-1.773 1.505-.828 1.587.724 2.33 1.841.742 1.118.742 1.842.742 1.842m-2.077-5.836s-3.815 2.677-6.385 2.74c-2.57.061-3.848-5.734-3.848-5.734l5.889-6.517s3.152 8.578 4.344 9.51m-12.089-8.999c-.099-.366-.188-7.306.69-8.492.877-1.186 3.134-2.185 3.134-2.185s1.19 4.433 2.005 6.493c.815 2.061-.815 4.808-2.193 5.62-1.38.812-2.947 1.125-3.636-1.436m4.293-12.126s-4.481 1.636-5.798.075c-1.316-1.56-.125-2.372.252-2.872.376-.5 3.962-2.616 4.087-2.804.125-.187 1.46 5.226 1.46 5.6m-5.725 10.2s1.054-6.066.365-7.315c-.69-1.248-2.32-1.997-2.82-4.183-.502-2.185-1.129-4.222-1.88-2.891-.753 1.33-1.085 2.38-1.085 2.38s5.646 10.55 5.42 12.009m3.751-17.013s-2.776 1.135-3.144 1.701c-.367.568-.931 1.629-1.683 1.379s-4.263-2.497-4.45-4.058c-.189-1.562 1.127-5.87 1.817-8.367.69-2.498.564-3.622 2.069-4.309 1.504-.687 2.255.313 2.695.937.439.624 2.115 11.065 2.696 12.717m-2.381-14.86s-2.934-1.604-3.505-2.54c-.571-.937-1.763-2.904-1.888-3.856s-.5-1.456 0-2.297c.501-.84 5.955-2.59 6.833-3.151.877-.562 1.253-.25.501 1.873-.752 2.124-1.535 6.79-1.535 6.79l-.406 3.18zm-10.462 13.605s1.183.027 1.433-1.16c.251-1.186-.313-3.558.816-6.43 1.128-2.873 3.76-5.309 3.384-6.307-.376-1-1.442-3.122-1.755-3.996-.313-.875-.464-1.124-1.078-1.062-.615.062-2.557 3.184-3.623 3.247-1.065.063-2.194-.063-2.633 1.249-.438 1.311-1.566 6.93-1.566 6.93s4.395 6.094 5.022 7.53m-7.99-10.463c.126-.187 3.72-5.184 4.41-5.995.689-.812 1.003-1.89 1.065-2.507.062-.616-.69-1.056-2.068-3.333-1.38-2.278-1.191-3.028-2.131-2.902-.94.125-5.83 6.494-4.451 4.808 1.379-1.686-2.079 4.085-.387 6.145a42.7 42.7 0 0 0 3.562 3.784m5.478-17.235s-.88 5.678.812 5.4c1.692-.28 6.77-2.59 9.026-4.432 2.256-1.841 5.382-2.841 5.48-3.84.099-.999-.036-1.873 0-2.248.036-.374.099-.937-.841-1.061-.94-.125-5.955-.812-5.955-.812s-1.191 0-1.818.437c-.627.438.063 2.622-1.88 3.684-1.944 1.062-3.385 1.25-3.949 1.624-.564.375-.822.872-.874 1.248m-8.403 2.873s6.318-3.997 8.174-5.495c1.855-1.499 2.643-1.56 3.064-2.56.42-1 .92-2.02.795-6.202-.126-4.184-.943-3.577-1.633-3.826-.69-.25-4.523-1.232-4.523-1.232s-2.359 2.656-2.861 3.28c-.501.624-1.763 3.672-2.64 5.045-.877 1.374-.188 4.183-.376 5.807-.188 1.624-.52 4.632-.082 4.794" fill="#AF7444"/><path d="M71.72 130.705s2.539.562 1.975 9.366c-.564 8.804-.376 12.55-.376 12.55s-.658 2.436 2.82 5.527c3.48 3.09 12.505 13.861 18.241 29.2 0 0 4.983 11.261 5.265 13.603.282 2.341-.658 4.683 0 6.65.658 1.967 4.795 8.055 6.393 15.641 0 0 4.89 20.7 4.325 31.095 2.163.75 1.599 2.487 3.009 3.07 1.41.583 4.513.26 5.923 0 0 0 2.633-1.196.42-7.097-2.789-7.437-5.285-13.068-6.72-21.167-1.41-7.961-2.62-12.75-2.35-15.454.187-1.873.637-5.604.565-7.774-.127-3.794-3.103-5.433-6.206-13.394-3.103-7.96-7.71-26.787-8.274-30.533-.564-3.747-.47-7.774.564-11.52 1.035-3.747 3.95-16.11 3.48-24.914" stroke="#533D37" stroke-width=".563"/><path d="M24.378 141.57c.094 10.396 7.052 16.484 4.795 28.94-2.256 12.458-14.761 25.008-14.761 25.008s.282 16.86-3.761 34.093C6.608 246.845.403 256.679.403 256.679c3.666 1.873 8.18.656 8.18.656-.847-1.78 1.88-11.895 1.88-11.895s8.744-29.597 11.095-37.184c2.35-7.586 2.35-9.928 18.052-31.47 15.701-21.542 11.94-35.216 11.94-35.216s-3.76-4.59-13.069 4.87c-7.467 7.59-14.103-4.87-14.103-4.87" fill="#DEBB9B"/><path fill="#AF7444" d="M4.122 249.355l5.558-.77 1.566-6.954-4.485 1.133zm3.503-9.073c.094-.187 2.082-6.915 2.082-6.915s3.482-1.414 4.282-1.227c.799.187-1.766 7.353-1.766 7.353l-4.598.79zm7.667-11.139s-3.607-.469-4.504-.12l1.085-5.273 5.928-3.034-2.51 8.427zm-2.896-8.43c-.05.107 3.755-2.622 4.695-3.043.94-.422 2.022-4.778 2.022-4.778s.705-2.856-.564-2.575c-1.27.28-2.68 1.459-2.538-.02.14-1.479.61-9.58.61-9.58s-1.802-1.858-2.084-1.765c-.282.094-1.32 19.982-2.14 21.761"/><path d="M21.338 208.969c-.14 0-3.87-.244-3.917-1.603-.048-1.358.282-7.118.282-7.258 0-.141-.142-1.733.846-2.06.987-.329 8.83-3.446 8.83-3.446s-2.911 5.005-3.475 6.644c-.565 1.64-2.566 7.723-2.566 7.723m-6.926-13.451s4.795-.514 8.368-2.341c3.573-1.826 5.077-2.107 5.5-3.372.423-1.265 2.21-6.696 2.21-6.696s.282-1.359-.94-.89c-1.223.468-6.153 1.859-6.153 1.859s-6.493 10.176-8.985 11.44m10.51-13.992c.282-.234 4.675-2.164 6.131-2.305 1.458-.14 1.787-.093 2.21-.89.423-.795.517-2.294 1.599-2.2 1.08.093 4.367 1.177 4.367 1.177s5.837-8.607 6.449-10.105c.127-.656-1.367-4.279-2.636-4.372-1.27-.094-4.09 2.013-5.36 2.762-1.27.75-1.636.703-2.158.516-.522-.187-1.274-.89-1.696.656-.424 1.545-.612 3.605-.612 3.605s-2.593 4.808-4.09 5.62c-1.991 1.08-4.204 5.536-4.204 5.536m4.618-13.811c-1.422.763 4.193-2.736 4.005-4.887-.188-2.152-1.55-3.744-1.55-3.744s-1.27-.89-1.035-1.78c.235-.89 3.479-4.916 3.479-4.916s.893-.656.564-1.359c-.33-.702-8.274 1.552-8.274 1.552s1.783 5.359 2.43 8.204c.704 3.09.38 6.93.38 6.93" fill="#AF7444"/><path d="M36.507 163.486s-1.74-4.402-2.068-5.947c-.33-1.546 0-2.482 1.034-3.231 1.034-.75 2.538-1.078 2.82-2.623.282-1.545.706-3.418 2.021-3.84 1.317-.421 4.185-2.2 4.749-1.78.564.422.706 7.54.564 10.022-.14 2.483-1.55 4.168-4.842 5.713-3.291 1.546-3.15 2.717-4.278 1.686m10.727.627s-.5-1.377-.53-1.546c-.18-.994-.696-4.679.71-8.4 1.645-4.355 3.666-7.68 3.62-4.776-.048 2.903-.05 4.543-.479 5.84-1.627 4.933-3.324 8.77-3.82 7.505" fill="#AF7444"/><path d="M2.377 257.724l-1.034 4.2H13.19l-1.223-2.1s-2.35-.961-3.949-2.1c-1.598-1.139-4.77.584-5.64 0" fill="#624B59"/><path d="M24.378 141.57c.094 10.396 7.052 16.484 4.795 28.94-2.256 12.458-14.761 25.008-14.761 25.008s.282 16.86-3.761 34.093C6.608 246.845.403 256.679.403 256.679c3.666 1.873 8.18.656 8.18.656-.847-1.78 1.88-11.895 1.88-11.895s8.744-29.597 11.095-37.184c2.35-7.586 2.35-9.928 18.052-31.47 15.701-21.542 11.94-35.216 11.94-35.216" stroke="#533D37" stroke-width=".563"/><path d="M22.872 136.293s2.43 33.156-8.726 39.338c0 0 12.599-7.868 10.536-32.251" fill="#AF7444"/><path d="M22.872 136.293s2.43 33.156-8.726 39.338c0 0 12.599-7.868 10.536-32.251m-14.585 28.715s.25 4.434 4.387 3.372m-5.916-.897c.188.062 3.569 2.744 5.578 1.06m-5.578 1.312c.25 0 4.074 1.56 5.265-1.311m-2.756 2.779c.188-.125 2.508.686 3.197-2.78" stroke="#533D37" stroke-width=".563"/><path d="M157.905 13.3c-.062-.882.261-8.593-.281-8.718-.736-.17-2.946 4.84-3.636 6.15" fill="#FADAB9"/><path d="M157.905 13.324c-.062-.882.261-8.592-.281-8.718-.736-.169-2.946 4.84-3.636 6.15" stroke="#533D37" stroke-width=".563"/><path d="M151.427 8.94c.062-.095.195-3.66-1.403-6.83l1.347.842.345-1.561.94.968 1.065-1.311s-.72 5.962 1.85 10.147" fill="#FADAB9"/><path d="M151.41 8.94c.064-.095.196-3.66-1.402-6.83l1.347.842.345-1.561.94.968 1.065-1.311s-.72 5.962 1.85 10.147" stroke="#533D37" stroke-width=".563"/><path d="M144.763 29.145s1.175 1.889 4.02 3.676c2.844 1.788 7.357 3.474 14.033 3.068 0 0 .814 2.934 2.883 3.62 2.068.688 4.952.75 6.581 0 .44-.249.35-.464-.376-3.933-.814-3.901-7.27-7.367-14.573-23.477 0 0-2.412-4.433-10.592-2.154-6.567 1.436-14.042 15.344-18.228 21.469-4.519 6.669-18.771 32.195-41.242 41.092 0 0-4.591 2.049-8.149 2.974-1.511.393-6.033.808-7.678 2.54-1.645 1.733-7.427 8.477-8.65 9.695-1.222 1.217-5.303 5.79-9.778 9.319-7.005 5.526-15.467 7.118-20.779 14.704-6.128 8.752-9.92 14.799-9.308 27.162.61 12.363 13.361 23.724 25.433 22.807 16.641-1.265 38.066-19.48 42.937-23.54 5.269-4.392 15.73-10.244 14.745-17.484-.752-5.526-1.532-10.415-1.955-12.804 0 0-1.1-3.68 3.976-9.862 0 0 10.688-13.174 18.147-27.536 7.459-14.362 14.652-31.743 16.595-35.614 0 0 2.796.725 6.12-1.958" fill="#FADAB9"/><path d="M36.474 158.908s-2.208-3.695-2.02-3.695c.188 0 3.135-2.747 2.884-5.931-.251-3.185 1.441-3.31 2.695-5.12 1.254-1.811 3.51-6.557 3.447-.563-.062 5.995.002 15.236.002 15.236l-7.008.073zm12.899-7.878s-1.692-9.242-1.504-9.304c.188-.062 7.334 1 7.334 1l-1.317 8.304h-4.513z" fill="#AF7444"/><path d="M50.502 154.09s4.513-.5 4.951-3.06c.439-2.56.564-6.18 1.818-5.682 1.253.5 4.325 1.686 4.325 1.686s3.385-1.686 4.388-2.685c1.002-.999.94 3.435 1.128 6.244.188 2.81-6.394 6.432-11.157 8.243-2.257.749-6.498-4.556-5.453-4.746" fill="#AF7444"/><path d="M44.797 160.77c-.245-.05 0-14.923 0-14.923h1.88s2.01 11.351 4.851 13.061c2.84 1.71-4.662 2.3-6.73 1.863m-9.591-14.111c-.162.114 0-7.057 0-7.057s.564-2.123-.439-2.747c-1.002-.624-3.134-.687-2.382-2.372.752-1.686.628-2.124 2.57-3.248 1.943-1.124 6.832-5.307 6.832-5.307s.753-.312 2.069 3.372c1.316 3.684 3.167 3.747.831 6.307-2.335 2.56-7.726 9.803-9.481 11.052" fill="#AF7444"/><path d="M33.485 148.561c.501-.187 0-8.492 0-8.492s.562-1.124-1.16-1.748c-1.724-.624-2.852-1.374-2.852-1.374v-8.991s-.25-.312-2.57 2.248-3.882 4.055-3.882 4.055-.885 10.731 4.156 16.223c.8.797 5.806-1.733 6.308-1.92" fill="#AF7444"/><path d="M31.07 131.986c-.063-.188 0-8.929 0-8.929s-.564-1.436.815-3.372c1.378-1.936 5.515-8.242 5.515-8.242s.95-1.798.251 8.304c-.7 10.103-.25 6.744-.25 6.744s-.69 1.624-3.95 4.059c-3.258 2.435-2.381 1.436-2.381 1.436m8.713-9.429V110.07s-.555-.937 6.022-4.183c6.577-3.247 9.835-4.746 9.835-3.497v12.488s.064.687-2.757 2.06c-2.82 1.374-11.22 6.057-11.22 6.057s-1.88 1.499-1.88-.437m6.394 8.242c-.287-.252-2.122-3.373-.372-5.558 1.75-2.185 4.533-5.058 4.533-5.058s.916-1.749 2.796 2.06c1.88 3.81 4.45 8.555 4.45 8.555s1.63 1.686 0 3.56c-1.63 1.873-3.197 4.931-3.197 4.931s-.188 1.5-3.26.938c-3.07-.562-5.322-1.249-5.322-1.249s-.873 0 0-1.249 2.049-3.934 2.049-3.934-.11-1.623-1.677-2.997" fill="#AF7444"/><path d="M54.45 117.75l2.194-1.5.627-5.556s-.095-1.062 1.456-1.25c1.553-.187 4.373-.686 4.373-.686s1.316-.187 1.943 1.936c.627 2.123 2.073 6.493 2.073 6.493s1.375 1.125-.945 2.873c-2.318 1.748-3.95 2.934-3.95 2.934s-1.283 1.311-1.236 2.06c.047.75-.392 1.062-1.27 1.437s-1.943 1.373-2.507 0c-.564-1.373-3.197-7.43-3.197-7.43s-.362-.765.44-1.312m3.857-11.489c.016-.296-.285-4.31-.285-4.31s0-1.123 1.002-1.247c1.004-.125 2.132-.188 2.257-.937l1.191-7.118s-.062-.687 1.38-.937c1.44-.25 4.325-.999 4.325-.999s1.629-.436 1.316 1.499c-.315 1.935.04 10.303.04 10.303s.273 1.31-2.673 2.684c-2.947 1.375-8.705 3.872-8.553 1.062" fill="#AF7444"/><path d="M50.08 99.105c-.032.018.798 2.91 2.615 2.035 1.818-.874 6.833-2.685 6.833-2.685s.877-.436.94-2.372c.062-1.936.257-6.203.257-6.203s-6.796 7.014-10.645 9.225m-2.838 1.673c-.313-.256.198 3.36-1.437 4.108-1.635.75-7.896 4.309-7.896 4.309s-2.065-.06-2.755-.805c-.689-.745 10.02-7.384 12.088-7.612m-14.633 10.94s1.668 1.598 1.099 2.285c-.57.687-5.208 7.118-5.835 10.24-.627 3.123-1.003 4.093-1.944 3.701-.94-.391-1.934-.75-1.934-.75s1.814-7.922 8.614-15.476m25.699 29.322s-1.79-1.687-1.351-2.623c.439-.937 2.947-4.683 2.947-4.683s.752-1.03.376-1.545c-.376-.516-1.38-1.602-.628-2.12.753-.519 2.32-2.043 2.32-2.043s1.003-.349 1.128-1.098c.125-.75-.627-1.998 1.566-3.06 2.195-1.061 3.197-1.623 3.197-1.623s.377.312 1.255 1.998c.877 1.686 1.19 2.31.752 2.685-.44.374-.815 3.247-.063 6.12.752 2.871.564 2.31.564 2.31s.126 1.06-1.63 2.497c-1.755 1.436-5.892 5.994-5.892 5.994s-1.176 1.65-2.124.357c-.948-1.294-2.417-3.167-2.417-3.167m11.232 12.848l-1.363-11.849s-.752-1.999 1.003-2.747c1.755-.749 6.707-2.247 6.707-2.247s2.069-.688 1.504 2.934c-.564 3.622-2.444 3.934-2.632 5.87-.188 1.935-.306 5.006-.306 5.006m-6.933-41.659c-.112-.154-1.033-1.436 0-2.186 1.034-.749 2.977-1.748 3.165-2.685.188-.937-.25-4.183.69-4.183s7.145 13.237 8.65 15.173c1.504 1.935 2.005 2.31 1.253 3.122-.753.812-6.08 7.486-6.08 7.486s-.44.18-1.066 0c-.627-.18-3.73-3.036-4.591-4.168-.862-1.133-.926-1.257-.486-1.882.439-.624 3.575-3.62-1.535-10.677m6.809-12.863s-.805-1.187 0-1.624c.806-.436 4.128-3.746 4.128-3.746s-.188-6.807.69-7.118c.877-.312 4.324 3.184 4.324 3.184s4.513.25 4.764.25c.251 0 .502.313.627 1.499.125 1.186 1.128 6.816 1.128 6.816s.815 1.113-1.818 2.3c-2.632 1.187-9.402 5.245-9.402 5.245s-.94.75-1.818-.562c-.877-1.311-2.623-6.244-2.623-6.244" fill="#AF7444"/><path d="M61.777 88.78c.383.184 7.341-2.377 8.093-.628.752 1.749 1.253 5.058 1.253 5.058s-.25 2.248 2.32 0a454.85 454.85 0 0 1 3.447-2.997s.188.124.314-2.998c.125-3.121.884-3.684.285-4.87s-4.356-3.131-7.742-2.44m8.961 25.605c.228-.135 5.83-3.309 5.83-3.309s1.002-.936 1.566 0c.564.937 1.128 3.31 3.385 3.747 2.257.437 3.447.435 3.886 1.591.439 1.156.501 6.526.501 6.526s.252 1.06-1.19 1.873c-1.442.812-2.576 2.036-2.576 2.036s-1.248.462-2.376-1.036c-1.128-1.5-1.003-2.31-3.949-2.623-2.946-.312-1.63 0-2.444-.687-.816-.687-2.759-5.995-3.009-6.681-.251-.687-.778-.746.376-1.436m9.59-4.746c.177-.971 1.19-1.685 2.194-2.372 1.003-.687 2.005-1 1.692-2.435-.313-1.437-1.316-2.25-.5-2.686.814-.437 5.64 1.81 6.58 2.623.94.812.627 1.112.94 3.21.314 2.098 1.38 1.951 1.881 2.68.501.729.188.167-.564 1.29-.752 1.125-.94 2.998-2.132 3.06-1.19.062-2.41-.748-4.496-.437-2.085.312-1.647.312-3.025-1.061-1.379-1.374-2.946-1.811-2.57-3.872M74.329 76.976s-1.576 1.498.806 1.248c2.381-.25 3.322-.757 4.952.028 1.63.784 3.259 4.865 3.698 5.572.439.707.867 1.83 2.157.956 1.29-.873 3.108-2.185 4.487-2.56 1.379-.374 1.003.062 1.567-2.123.564-2.185 1.378-2.122.94-3.496-.439-1.374-2.459-1.423-5.16-4.296m4.722-2.368l2.287 5.04s.095 1.562 1.975 1c1.88-.562 3.886-1.124 5.14-1.061 1.254.062 1.19.312.626-2.061-.564-2.373-1.826-8.104-1.826-8.104M91.244 87.59c-.118-.22-2.069-2.662 0-3.766 2.068-1.104 3.76-2.415 4.45-3.727.69-1.31.627-1.373 1.63.687 1.003 2.061 2.758 4.934 2.821 5.933.062.998-.126 1.935-1.818 2.684-1.692.75-5.203 2.436-6.268 2.186-1.066-.25-1.317.124-1.191-1.436.125-1.561.98-1.421.376-2.56m15.043-11.493s-4.18-.808-6.132.316c-1.954 1.124-1.496 1.498 0 3.87 1.494 2.374 2.12 5.309 2.059 7.244-.064 1.935-.691 5.433 2.005 3.684 2.696-1.749 4.388-3.52 6.645-4.227 2.256-.706 4.073-.767 3.447-2.329-.627-1.561-5.203-4.371-6.268-6.432-1.066-2.06-.31-1.927-1.756-2.126m7.888 13.782s-5.63 2.71-8.764 3.707c-3.135.997-3.7 1.078-3.636 2.005.063.927.25 3.237.25 3.237s2.07 1.312 4.425 1.378m11.133-15.273c.063-.187-.013-2.339-1.643-3.4-1.63-1.062-4.952-1.623-4.2-3.185.752-1.561 5.077-6.868 6.833-9.179 1.755-2.31 1.692-3.06 2.633-2.185.94.874 3.11 4.837 3.028 7.164m-17.947-.171s-1.88 1.312-2.13-.874c-.251-2.185-1.755-6.205-.565-6.474 1.19-.27 4.263-1.206 5.391-2.268 1.128-1.061 3.322-4.433 3.949 0 .627 4.434.92 4.78 1.243 5.574.324.795.135 2.606-3.187 3.105-3.321.5-3.273.601-4.7.937" fill="#AF7444"/><path d="M115.627 66.63s-1.3-4.578-1.34-5.202c-.039-.625-.102-.375.15-1.312.25-.936 2.193-1.81 2.506-4.558.314-2.747.101-3.246.99-3.746.89-.5 4.588-2.623 5.842-3.184 1.254-.562 2.32-.936 3.699 6.119s.69 5.619 0 6.868c-.69 1.249-1.818 4.809-2.82 4.371-1.004-.437-2.571-2.436-4.263-1.749-1.693.688-3.385 3.727-4.074 3.06l-.69-.667zm-4.235-11.791s1.79 3.405 1.164 4.029c-.627.624-6.708 3.87-7.961 4.62-1.253.75-1.783.425-1.456-.692m30.288-7.119s-2.506-.244-2.756-2.18c-.25-1.935-2.257-6.992 0-7.68 2.256-.687 7.235-2.771 8.991-3.99m-22.229 5.801c.327 0 6.01-1.374 6.804-4.184.793-2.81.12-4.79.416-6.05m1.881 8.673c-.57-.162-.063-1.186 0-2.872.062-1.686-.126-4.87 1.128-6.182 1.254-1.31 5.015-4.62 6.707-5.744 1.692-1.124 1.63-1.373 2.445-1.061.814.311 1.691 3.683 2.193 5.12.502 1.436 1.066 1.386.44 2.067-.628.68-7.576 4.739-9.838 6.487-2.26 1.748-2.198 2.434-3.075 2.185m1.189-13.443c.19 0 2.634-1.73 4.702-2.917 2.069-1.186 2.633-1.31 3.135-3.371.501-2.06 2.13-3.31 1.065-4.121-1.065-.812-1.9-.397-1.99-.264m3.181 4.323c.092-.164 1.755-2.123 1.442-4.87-.314-2.748-1.01-3.997.404-5.309 1.413-1.31 1.212-1.872 2.033.438.822 2.31 1.825 5.682 1.825 5.682s.815 1.436-1.065 2.373c-1.88.936-5.794 3.755-4.639 1.686m4.239 10.196c-.181-.125-2.617-2.764-2.393-6.387.222-3.622-.154-2.95.599-3.067.752-.118 2.357.757 3.435 1.443 1.077.686-.176 1.293 1.14 2.832a58.868 58.868 0 0 0 2.463 2.706s-3.603.78-4.484.87c-.384.038-.76 1.603-.76 1.603m5.665-15.484c-.83-.766-2.383.331-2.32 1.904.064 1.573.708 6.628 2.32 8.442 1.611 1.814 3.698 1.291 3.698 1.291s-.063-3.29-.69-4.976c-.627-1.685-1.567-5.33-3.008-6.661m6.268 6.189s-2.758-1.088-2.57-2.712c.188-1.624 1.191-.125 3.26 0 2.068.125 2.381.437 1.629 1.436-.752.999-1.349 1.772-2.32 1.276m-.313 4.781c-1.415-1.702-2.381-3.559-.626-3.06 1.755.5 2.498-.373 3.63 1.187 1.133 1.56 2.647 2.123-.712 2.185-3.357.062-1.563.564-2.292-.312m4.346 3.059s-.897-1.873.607-2.06c1.504-.188 2.256-.937 2.632.312.377 1.249 1.004 1.315.25 1.998-.752.684-3.49-.25-3.49-.25m5.81-4.932s1.253.438 1.504 0c.251-.438-.063-1.492-1.504-3.369-1.442-1.877-2.884-3.563-5.454-3.563s-2.052.185-.43.56c1.622.377 1.668.502 3.054 2.625 1.388 2.123 2.265 3.311 2.83 3.747" fill="#AF7444"/><path d="M161 31.738c.862.017 1.513.093 1.136-.781-.376-.875-1.504-3.123-2.632-4.621-1.128-1.499-1.113-1.686-1.56-.562-.445 1.124-1.26.239-.76 1.555.503 1.317 2.303 4.378 3.815 4.409m-2.979-13.769s-3.23-.033-3.976-3.013c-.746-2.982.634-1.733.508-2.482-.125-.75.596-.999 1.019.562.423 1.56 1.44 3.184 2.374 3.621.932.438 1.034 1 .074 1.312m-7.854 0c.881-1.268 2.569-.562 2.883-1.374.313-.811.375-2.998-1.442-2.373s-2.194 1.311-2.445 2.56c-.25 1.25.44 1.998 1.004 1.187m-3.636-3.857s-2.971 1.273-2.834 2.097c.139.823.699 3.259 1.704 2.759s1.48.124 1.9-1.562c.421-1.686 1.286-4.408-.77-3.294m1.314-1.451c-.84.388-.856-.366 1.266-.776 2.12-.41 4.69-.249 2.309.388-2.382.638-2.761.014-3.575.388m11.473 8.126c-1.314-.473-1.747-1.82-.623-1.32s3.893 2.499.623 1.32m3.51 14.041c-.448-.224-.062-1.21.314-2.135.376-.925 1.88-2.673 1.065-.55s-.752 2.996-1.38 2.685M104.65 103.68l-6.936 5.515s-1.832.676-1.58 2.524c.25 1.846.25 3.595.25 3.595s.376 1.06 1.755.436c1.379-.624 2.006-1.249 2.382-.749.376.5 5.484 7.553 5.531 5.682.047-1.872-1.983-13.144-1.983-13.144s.141-1.828.58-3.858m.949 19.866l-4.27 1.195s-.744.438-.744 1.811v4.34s3.187-2.937 4.002-4.51c.814-1.572 1.012-2.836 1.012-2.836m-6.393-.74l1.379-.562s.674.187.744-.75c.07-.936-.43-1.873-2.123-2.997-1.693-1.124-1.568-1.373-4.42 0-2.851 1.374-3.478.748-3.666 1.686-.188.937.927 1.873-1.01 2.623-1.936.75-2.438.936-2.75 1.56-.315.625-.565 2.66-.565 5.701 0 3.041.138 3.23 1.447 2.792 1.31-.438 4.512-.812 6.986-.438 2.473.375 3.657-.374 3.63-1.529-.028-1.155-.404-6.463.348-8.086" fill="#AF7444"/><path d="M81.623 121.308c1.205-1.528.595-4.87 1.911-4.246 1.316.625 2.633-.187 3.26 1.249.627 1.436.451 1.748 1.447 2.31.998.562 2.376.641.872 1.133-1.504.49-3.574 2.052-5.015 1.178-1.441-.875-3.508-.313-2.475-1.624m-8.118 11.728s3.448-8.357 4.764-8.856c1.316-.499 3.76-.436 4.45-.311.69.124 1.693-.514 1.254 1.429-.439 1.943 0 8.374.69 9.435.689 1.061.877 1.582-.69 2.258-1.567.677-3.636 1.737-4.2 2.3-.564.562-.814-4.184-3.321-3.497-2.508.687-5.203-.896-2.947-2.758m10.064 11.357c0-.25-2.23-3.79-.6-4.415s3.449-.812 4.201-1.437c.752-.624.012-.815 1.071-2.25 1.06-1.434-1.021-2.058 1.868-1.683 2.89.374 4.752.705 4.91.705.156 0-11.45 9.08-11.45 9.08m-7.117 4.077s.438-4.621 2.13-5.994c1.693-1.374 2.202-.438 2.762.811.56 1.25 1.03 1.846 1.03 1.846l-5.922 4.394v-1.057zm-48.118 3.558s1.92-.973 4.24-1.391c2.32-.419 3.59-1.043 1.858 1.954-1.733 2.997-1.737 3.815-1.737 3.815s-3.784-2.852-4.36-4.378M155.57 10.424s-11.549-7.066-18.26 3.097c-6.287 9.522-10.686 16.873-12.657 19.383-15.94 20.297-23.155 30.989-35.665 35.329 3.196.5 3.058.98 3.51 1.704.451.724 18.513-10.806 32.366-32.866 13.852-22.059 18.029-30.529 30.707-26.647" fill="#AF7444"/><path d="M144.773 29.145s1.175 1.889 4.02 3.676c2.844 1.788 7.357 3.474 14.032 3.068 0 0 .816 2.934 2.884 3.62 2.069.688 4.952.75 6.582 0 .439-.249.348-.464-.377-3.933-.815-3.901-7.27-7.367-14.573-23.477 0 0-2.413-4.433-10.593-2.154-6.566 1.436-14.04 15.344-18.227 21.469-4.52 6.669-18.771 32.195-41.243 41.092 0 0-4.59 2.049-8.148 2.974-1.512.393-6.032.808-7.678 2.54-1.645 1.733-7.428 8.477-8.65 9.695-1.222 1.217-5.304 5.79-9.778 9.319-7.005 5.526-15.467 7.118-20.78 14.704-6.126 8.752-9.918 14.799-9.307 27.162.611 12.363 13.361 23.724 25.433 22.807 16.642-1.265 38.067-19.48 42.937-23.54 5.268-4.392 15.731-10.244 14.745-17.484-.752-5.526-1.532-10.415-1.955-12.804 0 0-1.1-3.68 3.977-9.862 0 0 10.687-13.174 18.146-27.536 7.458-14.362 14.651-31.743 16.594-35.614 0 0 2.798.725 6.12-1.958" stroke="#533D37" stroke-width=".563"/><path d="M155.966 10.684s-12.164-8.95-21.028 6.275c0 0-8.197 13.384-14.265 21.584-6.152 8.312-20.967 27.068-31.686 29.69 0 0 3.028.504 3.77 1.703" stroke="#533D37" stroke-width=".563"/><path d="M152.797 10.632s-4.419-4.152-3.008-9.585l-1.067 1.187-1.253-.625-.564.985-2.069-.548s5.014 4.777 2.946 9.304" fill="#FADAB9"/><path d="M152.797 10.632s-4.419-4.152-3.008-9.585l-1.067 1.187-1.253-.625-.564.985-2.069-.548s5.014 4.777 2.946 9.304" stroke="#533D37" stroke-width=".563"/><path d="M142.33 15.284s-1.003-12.239 0-12.676c1.002-.437 4.763 9.43 4.763 9.43" fill="#FADAB9"/><path d="M142.141 15.284s-1.002-12.239 0-12.676c1.003-.437 4.764 9.43 4.764 9.43" stroke="#533D37" stroke-width=".563"/><path d="M144.084 14.927s-.85-4.675-.94-8.01c-.065-2.34 2.49 3.107 2.623 5.297.134 2.19.26 2.355-1.683 2.713m13.101 6.227s-3.364 4.487-7.02-1.156c0 0 2.208-1.691 3.92-1.42 2.175.346 2.885 2.21 3.1 2.576m12.16 16.734s-1.594-.875-2.252-3.98c0 0 1.14.342 1.679 1.419.985 1.963.358 2.194.573 2.56" fill="#A67C9F"/><path d="M154.974 22.89s-2.38-.377-2.177-2.61c.156-1.732 2.177-1.593 2.177-1.593l2.21 2.467-2.21 1.736z" fill="#1B110F"/><path d="M150.165 19.998s4.23-3.933 7.02 1.156c0 0-3.01 4.59-7.02-1.156zm19.18 17.89s-2.132-1.343-2.256-4.06c0 0 2.6 1.188 2.256 4.06z" stroke="#533D37" stroke-width=".5"/><path d="M66.005 258.473l.658 4.2h11.189l-2.539-3.84-3.838-.601s-5.168-.302-5.564-.825c-.397-.523.094 1.066.094 1.066" fill="#624B59"/><path d="M102.485 126.959s-15.137 42.334-18.71 57.414c-3.573 15.08-2.163 20.135-2.163 22.385 0 2.716-2.561 6.265-3.666 9.366-1.862 5.226-2.116 6.228-3.527 17.28-2.241 17.57-.033 18.88-.986 20.559-1.41 2.481-.428 3.093-.565 4.12 0 0-5.923.844-6.957-.676-1.034-1.52-1.808-1.378-1.41-2.32 1.128-1.967 4.513-16.39 5.923-25.757 1.41-9.366.756-18.451.756-23.509s3.428-8.462 5.167-26.038c1.661-16.787.68-14.758-3.933-24.588-1.303-2.776 4.431-17.647 4.431-17.647s3.405-5.237 4.494-2.751c1.723 3.934 2.101 3.315 6.414 2.716 2.142-.298 5.783-.3 5.783-3.794 0-3.675 8.95-6.76 8.95-6.76" fill="#FADAB9"/><path d="M64.783 254.46c.154-.188 3.666.159 4.795-1.527 1.128-1.686 1.068-3.372 2.226-4.121 1.158-.75 1.702-5.99 1.702-5.99s-2.694.343-4.306.745c-1.612.401-2.534 4.484-2.91 5.795-.376 1.312-1.507 5.098-1.507 5.098m8.832-13.279s-3.724-.47-4.977.154c-1.254.625-.058-1.67.507-4.23.564-2.561 1.062-5.09 2.66-5.651 1.597-.562 2.793.563 2.793.563s-.863 8.102-.983 9.164m.789-13.287s-1.263.438-1.759-.624c-.497-1.062-.38-3.435 0-6.681.38-3.247.757-4.683 1.76-6.119 1.002-1.436 1.504-2.374 2.005-1.749.501.625.438 1.561.69 2.06.25.5-1.755 5.12-1.943 6.932-.189 1.81-.753 6.181-.753 6.181m5.281-16.484s-7.027.218-7.757-2.03c-.73-2.248-1.053-4.391-.552-6.14.502-1.748.96-1.572 2.213-2.258 1.254-.686 6.143-2.685 6.519-2.872.376-.187.251-.25.313 2.123.063 2.373 1.688 5.631 1.123 7.317-.564 1.686-.794 3.298-1.859 3.86m-7.271-12.95s6.127-1.162 7.13-2.348c1.004-1.187 2.006-.813 1.442-2.06-.565-1.25-1.38-3.997-2.069-5.12-.689-1.125-.25-1.5-1.19-1.312-.94.187-2.387.068-2.94.61-.554.54-.9 5.309-1.401 6.307-.9 1.79-.597 2.07-.972 3.924m9.622-6.736c-.126-.187-4.435-7.228-3.996-8.414.439-1.186 1.567-1.373 2.946-.998 1.378.374 3.103.78 3.103.78s-.969 3.06-1.031 4.481c-.063 1.42-1.022 4.151-1.022 4.151m-4.917-13.845s2.488 3.31 4.557 3.06c2.068-.25 3.085-.383 3.085-.383l.798-2.822s-1.42-5.538-4.47-6.849-2.109-.312-2.548 1.748c-.438 2.06-1.422 5.245-1.422 5.245m6.321-7.055c-.009-.004-4.147-2.248-4.397-3.122-.251-.875-.44-1.624 0-3.372.438-1.748 1.603-6.743 1.68-8.304.074-1.562.262-.938 1.578-1.937 1.317-.998 4.138-2.685 4.452-3.371.312-.687.124-1.437.752.936.626 2.373 2.82 2.186 1.754 4.06-1.065 1.872-3.51 7.804-3.573 9.74-.062 1.935-.942 6.113-2.246 5.37m13.515-28.076c-.188.062-6.63 2.35-8.008 2.974-1.38.625-2.759 1.937-1.317 3.248 1.442 1.311 2.82 2.185 2.946 3.372.126 1.186-.752 2.746-.125 2.872.627.125 1.97 1.204 2.972-2.105 1.003-3.31 3.532-10.361 3.532-10.361M73.236 154.93c-.306.066 3.579-3.435 4.51-3.996.93-.562 2.184-.813 1.87-2.248-.313-1.436-2.57-.562-3.384-2.81-.815-2.248-.17-2.31-.837-2.56-.668-.25-2.642 6.313-2.642 7.75 0 3.601-.607 4.102.483 3.863m9.004-13.328c.006.25-.045 3.684 1.2 3.872 1.244.187 2.121.5 4.127-.75 2.006-1.249 1.833-1.123 3.8-1.748 1.967-.625 2.844-1.124 3.534-1.374s2.212.687 3.1-2.263c.446-1.479-1.721-1.483-3.978-.734-2.256.75-2.559 3.247-4.476 2.56-1.917-.687-.35-1.997-3.61-1.748-3.259.25-3.717 1.37-3.697 2.185" fill="#AF7444"/><path d="M75.86 139.948s-2.953 8.35-3.546 13.94c-.37 3.476 4.808 6.993 4.805 12.239-.005 7.095-.213 10.322-.772 13.656-2.915 17.421-5.168 20.98-5.168 26.038s.655 14.143-.755 23.509c-1.41 9.366-4.796 23.79-5.924 25.757-.398.942.376.8 1.41 2.32 1.035 1.52 6.958.677 6.958.677.137-1.028-.846-1.639.564-4.121.954-1.679-1.254-2.99.988-20.558 1.41-11.052 1.664-12.055 3.525-17.281 1.105-3.102 3.667-6.65 3.667-9.366 0-2.25-1.41-7.306 2.163-22.385 3.572-15.08 18.71-57.415 18.71-57.415" stroke="#533D37" stroke-width=".563"/><path d="M52.166 258.213s1.63 2.514 1.63 4.2h9.683l-1.41-3.372s-2.155-.974-4.246-1.883c-.442-.085-4.623.305-5.657 1.055" fill="#624B59"/><path d="M25.653 147.223c14.207 31.188 7.74 57.494 8.022 59.274.282 1.78-.094.936 2.726 4.308s6.206 11.989 6.206 11.989c6.272 16.765 8.542 35.778 8.542 35.778 2.243-1.03 8.1-1.31 7.347-1.78-.752-.467-1.41-2.34-1.41-2.34s-12.035-42.054-12.975-46.082c-.94-4.027.564-8.898.564-8.898s6.142-13.691 7.27-21.653c1.128-7.96-.911-24.628-.911-24.628s-1.815 8.005-8.457-1.635c-1.151-1.67-6.265 6.63-8.145 5.408-1.88-1.223-8.78-9.741-8.78-9.741" fill="#FADAB9"/><path d="M49.013 245.889c.047.22 2.966-1.21 3.153-2.52.188-1.312.805-3.342.805-3.342l-1.409-4.953s-2.28 1.489-2.97 2.425c-.689.937-.899 2.378-.899 2.378s1.132 5.138 1.32 6.012m-3.668-14.854c.018.197 2.102-.03 2.676-.343.572-.311 1.637-2.332 1.637-2.332s-1.066-2.662-1.974-4.099c-.91-1.436-2.037-2.373-3.354-2.435-1.316-.062-1.613 1.266-1.613 1.266s2.502 6.632 2.628 7.943m-4.799-13.005c.188 0 2.404-.824 2.53-1.511.126-.687 2.132-2.06 2.257-2.248.125-.188-.828-4.37-.828-4.37s-1.804-.627-3.434.186c-1.63.812-2.799 3.507-2.799 3.507l2.274 4.435zm-4.91-8.13s1.424 0 1.8-.874c.376-.874 2.507-4.558 3.573-4.683 1.065-.125 2.816.19 2.816.19s.272-3.874.85-5.06c.578-1.187-1.153-4.184-2.849-3.934-1.694.25-2.76.811-4.265 2.435-1.504 1.624-2.552 2.293-2.552 2.293s-1.27 5.48-1.334 6.23c-.063.75 1.295 3.078 1.96 3.403m10.701-15.61s-4.701-.374-5.328-1.436c-.626-1.062.063-3.622 0-6.12-.062-2.497-.501-4.995.564-4.995 1.066 0 3.33.562 3.33.562s1.748.624 1.748-.562.94-6.244 2.194-8.242c1.254-1.998 1.999-.557 1.999-.557s-1.686 15.48-4.507 21.35m-10.7.624s3.116-1.435 3.116-2.622c0-1.187-.877-2.936-.5-6.244.375-3.31 2.192-6.806.5-6.432-1.692.375-3.116.75-3.116.75s.925 12.264 0 14.548" fill="#AF7444"/><path d="M35.145 177.489s4.547.879 6.051 1.191c1.505.312 2.735 1.248 2.966.25.231-1 1.234-6.556 2.048-8.554.816-1.999 1.505-2.81.94-3.56-.564-.749-.953.624-1.605-1.561-.65-2.185-1.027-2.31-2.28-2.248-1.253.063-6.518 3.684-6.518 3.684s-.064.313-1.067-.187c-1.002-.5-1.199-.063-1.194 1.748.004 1.811-.517 2.935-.517 2.935l1.176 6.302zm-4.103-21.381l3.443 1.467s-1.062.562-.874 2.248c.188 1.685 2.374 2.435.874 3.933l-1.5 1.499s-2.946-7.867-1.943-9.147m6.518 8.46c-.12-.143-2.256-1.967-1.88-3.887.376-1.92 1.399-2.169 2.142-3.73.742-1.562 1.088-2.872 2.92-3.56 1.834-.687 5.595 4.558 5.595 4.558s.564 1.437 0 2.373c-.564.937-3.684.75-5.415 2.06-1.731 1.312-2.9 2.728-3.362 2.186" fill="#AF7444"/><path d="M49.219 161.196s-2.506.227-2.381 1.799c.125 1.573 1.504 1.698 1.44 2.822-.06 1.124-.563 4.745-.563 4.745s.94 2.123 1.504 0c.564-2.123 1.129-3.496 1.129-3.496s.938-6.73-1.129-5.87" fill="#AF7444"/><path d="M50.843 151.556s2.23 17.848 1.102 25.81c-1.128 7.96-7.59 23.36-7.59 23.36s-1.184 3.617-.244 7.644c.94 4.028 12.975 46.081 12.975 46.081s.658 1.874 1.41 2.342c.753.468-5.104.75-7.347 1.78 0 0-2.27-19.014-8.542-35.779 0 0-3.385-8.617-6.206-11.989-2.82-3.371-2.444-2.528-2.726-4.308-.282-1.78 6.708-29.132-9.291-61.058" stroke="#533D37" stroke-width=".563"/></g></svg>