<svg width="120" height="120" viewBox="0 0 120 120" xmlns="http://www.w3.org/2000/svg" xmlns:xlink="http://www.w3.org/1999/xlink"><defs><path id="a" d="M0 .185h79.9v97.25H0z"/></defs><g fill="none" fill-rule="evenodd"><path fill="#191919" d="M83.707 107.83l-4.092 1.089-4.149-15.642 4.093-1.088z"/><path d="M89.128 105.563H77.913a3.354 3.354 0 0 0-3.35 3.355h17.916c0-1.852-1.5-3.355-3.35-3.355" fill="#191919"/><path d="M86.862 105.563H81.42a3.354 3.354 0 0 0-3.352 3.355h12.145c0-1.852-1.5-3.355-3.351-3.355m-12.948 2.267l-4.092 1.089-4.148-15.642 4.092-1.088z" fill="#242424"/><path d="M79.335 105.563H68.12a3.354 3.354 0 0 0-3.35 3.355h17.916c0-1.852-1.5-3.355-3.35-3.355" fill="#242424"/><path d="M77.069 105.563h-5.442a3.354 3.354 0 0 0-3.351 3.355H80.42c0-1.852-1.5-3.355-3.351-3.355" fill="#404040"/><g transform="translate(18 21.811)"><mask id="b" fill="#fff"><use xlink:href="#a"/></mask><path d="M74.188 28.367s9.253 10.655 4.205 25.982c-5.046 15.326-21.531 22.232-31.96 22.4-10.43.168-15.477-1.852-15.477-1.852s-8.411 13.811-16.99 18.694C5.387 98.476.51 97.802.004 96.455c-.505-1.347 47.27-64.675 47.27-64.675s-5.048-2.526-5.72-10.105C40.881 14.095 47.441 3.654 57.871.79 68.3-2.074 77.889 5.843 78.225 11.57c.337 5.726-4.037 16.797-4.037 16.797" fill="#404040" mask="url(#b)"/></g><path d="M92.188 50.179s-9.42 7.623-19.85 1.728c-10.429-5.894-6.56-17.516-6.56-17.516s-3.14.168-6.617-2.92c-3.476-3.087-2.972-5.389-2.355-5.781.617-.394 2.355.449 2.355.449s-1.95-2.303-2.798-5.784c-.846-3.48-.722-3.93 0-3.93.724 0 1.845 1.853 2.967 2.359 1.122.505 1.57.505 1.57.505s-1.346-2.695-1.234-5.783c.113-3.087.673-5.16 1.29-4.714.616.447 3.083 9.037 3.083 9.037s-1.008-6.175-.168-10.05c.842-3.873 2.468-7.017 3.646-6.736 1.177.28.28 7.86 1.962 12.015 1.682 4.154 10.598 6.593 17.326 8.938 6.73 2.346 9.982 7.286 10.318 10.43.337 3.144-4.935 17.753-4.935 17.753" fill="#FFE126"/><path d="M90.506 44.665s-.337 1.572 0 2.864c.337 1.29 1.01 2.188 1.682 2.526.673.336 8.299-4.155 8.299-4.155s-3.14-3.088-3.42-3.088c-.28 0-6.56 1.853-6.56 1.853" fill="#242424"/><path d="M90.506 44.665s1.177-1.572 2.02-3.37c.84-1.795 1.627-3.886 2.522-4.153.896-.267 3.532 0 5.27 3.088 1.74 3.087.393 7.299.393 7.299s-1.585-2.135-3.316-2.696c-1.73-.56-4.59.955-6.889-.168m1.069-9.336a5.472 5.472 0 0 1-5.47 5.476 5.472 5.472 0 0 1-5.467-5.476 5.472 5.472 0 0 1 5.468-5.475c3.02 0 5.47 2.451 5.47 5.475" fill="#404040"/><path d="M91.074 35.329c0 2.224-1.8 4.027-4.021 4.027a4.025 4.025 0 0 1-4.022-4.027c0-2.224 1.8-4.027 4.022-4.027a4.025 4.025 0 0 1 4.021 4.027" fill="#191919"/><path d="M84.338 44.272s-4.15 4.829-9.981 3.256c-5.831-1.572-6.897-6.513-3.87-8.646 3.03-2.133 4.577-.253 6.103 1.923 1.524 2.176 5.842 3.747 7.748 3.467" fill="#FF4B3A"/><path d="M35.33 85.086s26.747-29.978 29.944-31.495c3.196-1.516 15.812-1.01 16.317 10.106.504 11.115-9.252 22.231-25.065 25.6-11.573 2.466-21.195-4.21-21.195-4.21" fill="#656565"/><path d="M79.862 58.059c-6.595-1.96-11.897 7.49-19.972 9.764-2.719.766-7.084.898-9.223.393-7.632 8.236-15.337 16.87-15.337 16.87s9.622 6.676 21.196 4.21c15.812-3.367 25.57-14.483 25.065-25.6-.106-2.324-.761-4.162-1.73-5.637" fill="#242424"/><path d="M75.815 69.928s-.49 5.502-6.974 10.555c-6.483 5.053-13.661 4.716-14.446 1.684-.785-3.031 5.27-2.695 10.71-7.298 5.439-4.603 5.776-8.422 8.691-8.084 2.916.336 2.019 3.143 2.019 3.143" fill="#FFF"/></g></svg>