<svg width="120" height="120" viewBox="0 0 120 120" xmlns="http://www.w3.org/2000/svg"><g fill="none"><path fill="#B97129" d="M42.218 72.315h5.33v24.433h-5.33zm9.248 0h5.33v24.433h-5.33zm9.288 0h5.33v24.433h-5.33z"/><path d="M100.962 89.469c-1.607 1.849-4.193 4.21-7.838 5.705h-3.292a38.165 38.165 0 0 0 2.509-13.613c0-12.315-5.8-23.253-14.814-30.295 5.408.63 10.15 1.81 13.99 3.068 3.45 1.102 6.428-2.636 4.547-5.744L68.239 2.282C66.36-.826 61.655.039 61.03 3.62c-1.764 10.347-6.741 25.73-20.261 38.596l.078.118-11.64 10.27c-.274.235-.548.471-.783.707l-.078.08C20.78 60.392 16 70.425 16 81.56c0 21.128 17.126 38.321 38.17 38.321 13.834 0 25.944-7.397 32.645-18.492h6.31c3.644 1.495 6.23 3.856 7.837 5.705.706.826 2.038.315 2.038-.787V90.216c0-1.062-1.332-1.573-2.038-.747zM35.085 60.472c4.31-2.518 8.622-4.642 12.972-6.138 1.332-.432 2.625-.826 3.919-1.22.705-.039 1.45-.078 2.155-.078 15.637 0 28.373 12.787 28.373 28.485 0 4.918-1.254 9.561-3.449 13.613h-3.448a12.175 12.175 0 0 0 1.528-5.94c0-6.728-5.447-12.197-12.149-12.197H43.197c-6.701 0-12.148 5.469-12.148 12.196 0 2.164.548 4.17 1.528 5.941h-3.449a28.525 28.525 0 0 1-3.448-13.613 28.792 28.792 0 0 1 9.405-21.049zm2.234 28.721c0-3.265 2.665-5.94 5.917-5.94h21.79c3.252 0 5.917 2.675 5.917 5.94 0 3.266-2.665 5.941-5.917 5.941h-21.79a5.924 5.924 0 0 1-5.917-5.94zm16.812 20.853a28.14 28.14 0 0 1-20.34-8.656H74.47a28.073 28.073 0 0 1-20.339 8.656z" fill="#FBAE36"/></g></svg>