<svg width="120" height="120" viewBox="0 0 120 120" xmlns="http://www.w3.org/2000/svg" xmlns:xlink="http://www.w3.org/1999/xlink"><defs><path id="a" d="M0 59h119.862V0H0z"/></defs><g transform="translate(0 30)" fill="none" fill-rule="evenodd"><path d="M86.562 8.224S28.944 6.168 29.034 6.436c.09.268 9.348 5.9 9.348 5.9h48.18V8.224z" fill="#9B745A"/><path d="M63.662 7.428c-3.503 1.625-7 3.267-10.495 4.908h33.395V8.224s-10.717-.382-22.9-.796M36.944 9.386s-8-3.218-7.91-2.95c.09.269 9.348 5.9 9.348 5.9l-1.438-2.95z" fill="#AA754D"/><mask id="b" fill="#fff"><use xlink:href="#a"/></mask><path fill="#633B34" mask="url(#b)" d="M36.944 39.96h49.618V9.385H36.944z"/><path fill="#000" mask="url(#b)" d="M36.944 38.082h49.618V9.386H36.944z"/><path fill="#E2DAD3" mask="url(#b)" d="M28.045 6.705V4.29l58.517 2.95v1.34z"/><path fill="#EAE6E4" mask="url(#b)" d="M28.045 5.095V5.9l58.517 2.324v-.447z"/><path fill="#1E1F1A" mask="url(#b)" d="M40.45 20.382h3.235v-7.51H40.45z"/><path fill="#315563" mask="url(#b)" d="M40.989 19.845h2.157V13.41H40.99z"/><path d="M43.146 17.015v-.97c-.725.544-1.447 1.092-2.157 1.655v1.135c.729-.607 1.44-1.242 2.157-1.82m-2.157-.908v.574c.713-.553 1.435-1.093 2.157-1.636v-.676c-.725.572-1.443 1.153-2.157 1.738" fill="#609C9A" mask="url(#b)"/><path fill="#9B745A" mask="url(#b)" d="M14.022 34.327H1.318L99.056 5.9l-3.326 4.112 21.663-6.526-11.483 8.94z"/><path fill="#AA754D" mask="url(#b)" d="M99.056 5.9l-8.18 10.102-35.562 8.55 6.321-7.994zM1.348 34.318l24.946.01-16.959-2.41z"/><path fill="#E2DAD3" mask="url(#b)" d="M0 34.864v-3.487L100.045 2.212V5.9z"/><path fill="#EAE6E4" mask="url(#b)" d="M0 32.45v1.073L100.045 4.827v-1.34z"/><path fill="#F2E5CC" mask="url(#b)" d="M62.562 18.505L12.674 32.982v20.654h49.888z"/><path fill="#F2E5CC" mask="url(#b)" d="M62.562 18.505L12.674 32.982v1.882l49.888-13.946z"/><path fill="#BCB09C" mask="url(#b)" d="M106.787 7.152L86.562 13.32v40.316h20.225z"/><path fill="#000" mask="url(#b)" d="M106.787 7.152L86.562 13.32v40.316h20.225z"/><path fill="#9B856A" mask="url(#b)" d="M106.787 7.152L86.562 13.32v3.04l20.225-5.9z"/><path fill="#C9BCB5" mask="url(#b)" d="M118.112 3.688V0l-18.067 5.187V5.9l-1.291.374-3.579 4.419z"/><path fill="#EAE6E4" mask="url(#b)" d="M118.112 1.61v1.005l-21.438 6.23.9-1.113z"/><path d="M119.843 27.26c0 6.52-3.922 11.805-8.761 11.805-4.84 0-8.761-5.285-8.761-11.804 0-6.52 3.922-11.805 8.76-11.805 4.84 0 8.762 5.285 8.762 11.805" fill="#8BAB3E" mask="url(#b)"/><path d="M111.101 15.456v23.61c4.854 0 8.761-5.286 8.761-11.805 0-6.52-3.907-11.805-8.76-11.805" fill="#8BAB3E" mask="url(#b)"/><path d="M111.236 54.039a.404.404 0 0 1-.405-.403V20.382c0-.223.182-.402.405-.402.223 0 .404.18.404.402v33.254a.404.404 0 0 1-.404.403" fill="#8E6639" mask="url(#b)"/><path d="M111.236 29.098a.4.4 0 0 1-.206-.749c3.63-2.128 4.688-4.171 4.698-4.191a.407.407 0 0 1 .543-.18c.2.1.28.34.18.54-.046.091-1.175 2.277-5.01 4.524a.403.403 0 0 1-.205.056m-.155 4.76a.403.403 0 0 1-.14-.025c-.131-.049-3.228-1.223-5.632-4.639a.4.4 0 0 1 .1-.56.406.406 0 0 1 .563.099c2.253 3.2 5.221 4.335 5.251 4.346a.402.402 0 0 1-.142.779" fill="#8E6639" mask="url(#b)"/><path d="M104.258 25.544c.133-2.2 1.137-4.155 2.44-5.898.311-.417-.391-.817-.699-.406-1.393 1.864-2.408 3.96-2.55 6.304-.03.519.778.516.81 0m3.454-6.889a7.12 7.12 0 0 1 1.03-.842c.43-.289.026-.986-.408-.695a8.254 8.254 0 0 0-1.194.968c-.371.365.2.934.572.569" fill="#A0BC48" mask="url(#b)"/><path d="M112.016 50.392c-.273 0-.53.063-.76.174a4.052 4.052 0 0 0-3.383-1.815 4.05 4.05 0 0 0-3.208 1.574 2.507 2.507 0 0 0-2.38-1.708 2.5 2.5 0 0 0-1.66.628 5.177 5.177 0 0 0-3.905-1.772 5.18 5.18 0 0 0-3.941 1.813 2.237 2.237 0 0 0-1.281-.401c-1.237 0-2.24.997-2.24 2.227s1.003 2.196 2.24 2.196l22.127-.472a1.757 1.757 0 0 0-1.61-2.444" fill="#67993A" mask="url(#b)"/><path d="M112.016 50.392c-.273 0-.53.063-.76.174a4.079 4.079 0 0 0-.317-.416 40.873 40.873 0 0 1-5.716 1.066c-3.262.375-6.567.508-9.849.342-1.854-.094-4.155-.072-6.105-.654-.006.069-.01.138-.01.208 0 1.23 1.002 2.196 2.239 2.196l22.127-.472a1.757 1.757 0 0 0-1.61-2.444" fill="#67993A" mask="url(#b)"/><path d="M93.783 49.622c.57-.572 1.31-.878 2.068-1.122.248-.08.142-.468-.107-.388-.823.265-1.629.605-2.247 1.225-.183.185.103.47.286.285m3.04-1.222c.201.028.407.059.592.147.234.111.44-.235.204-.347a2.34 2.34 0 0 0-.689-.188c-.109-.016-.217.025-.249.14-.026.096.032.232.142.248m5.028 1.176c.195-.06.387-.054.587-.027.11.015.203-.103.203-.202 0-.122-.094-.188-.203-.203a1.6 1.6 0 0 0-.694.041c-.248.077-.143.468.107.39m1.361.313c.21.15.414.322.568.531.066.088.175.132.277.072.088-.05.138-.186.073-.275a3.127 3.127 0 0 0-.713-.675c-.09-.065-.225-.016-.277.072-.06.101-.017.211.072.275m2.605.505c.318-.278.684-.476 1.072-.64.239-.1.033-.447-.205-.347a4.228 4.228 0 0 0-1.153.702c-.196.172.09.455.286.285m1.697-.783l.708-.102c.11-.016.168-.153.142-.249-.033-.116-.14-.157-.25-.141l-.707.101c-.11.016-.168.153-.142.249.033.116.14.157.25.141m-17.305.717c.205-.256.51-.376.802-.505.238-.105.032-.451-.204-.348-.323.143-.658.286-.884.568-.16.201.124.488.286.285" fill="#7BAD47" mask="url(#b)"/><path fill="#1E1F1A" mask="url(#b)" d="M23.191 50.418h28.584V35.936H23.191z"/><path fill="#DDC6A4" mask="url(#b)" d="M64.72 21.32l20.493-5.864v32.28H64.72z"/><path fill="#1E1F1A" mask="url(#b)" d="M71.46 47.736h6.473v-14.75H71.46z"/><path fill="#DDC6A4" mask="url(#b)" d="M64.72 21.32l20.493-5.864v2.155L64.72 23.33z"/><path fill="#C9A97D" mask="url(#b)" d="M62.562 18.505l2.157 2.815v31.244h-2.157z"/><path fill="#C9A97D" mask="url(#b)" d="M62.562 18.505l2.157 2.815v2.146l-2.157-2.548z"/><path fill="#675F5C" mask="url(#b)" d="M62.562 50.418h24v-2.682h-24z"/><path fill="#675F5C" mask="url(#b)" d="M74.427 50.418h12.135v-2.682H74.427z"/><path fill="#4D4845" mask="url(#b)" d="M62.562 52.832h24V50.15h-24z"/><path fill="#4D4845" mask="url(#b)" d="M74.427 52.832h12.135V50.15H74.427z"/><path d="M115.146 52.564H1.888c-.298 0-.54.24-.54.536v4.023h114.337V53.1a.538.538 0 0 0-.539-.536" fill="#8BAB3E" mask="url(#b)"/><path d="M115.146 52.564H58.545l.026 4.559h57.114V53.1a.538.538 0 0 0-.539-.536" fill="#8BAB3E" mask="url(#b)"/><path d="M3.056 54.754c2.216.157 4.433.095 6.652.09.522-.002.522-.807 0-.805-2.22.006-4.436.067-6.652-.09-.52-.037-.517.768 0 .805m8.27.223h2.696c.54 0 .54-.804 0-.804h-2.696c-.522 0-.522.804 0 .804" fill="#A0BC48" mask="url(#b)"/><path fill="#936545" mask="url(#b)" d="M1.348 59h114.337v-2.145H1.348z"/><path fill="#936545" mask="url(#b)" d="M58.517 59h57.168v-2.145H58.517z"/><path fill="#8C7760" mask="url(#b)" d="M86.562 13.32l-1.349 2.136v32.28h1.349z"/><path fill="#9B856A" mask="url(#b)" d="M86.562 13.32l-1.349 2.136V17.7l1.349-1.43z"/><path fill="#1E1F1A" mask="url(#b)" d="M67.685 36.74h2.967v-2.95h-2.967z"/><path fill="#315563" mask="url(#b)" d="M30.742 49.882h6.471v-13.41h-6.471zm-7.012 0h6.472v-13.41H23.73zm14.023 0h6.472v-13.41h-6.472zm7.011 0h6.472v-13.41h-6.472z"/><path fill="#609C9A" mask="url(#b)" d="M37.213 39.52v-2.018l-6.471 3.805v1.788zm0 1.99v-1.07l-6.471 3.576v1.198zm-7.011 4.018v-1.215l-6.472 3.62v1.303zm0-2.135V41.62l-6.472 3.64v1.747zm12.526-6.92h-3.757l-1.218.712v2.037l4.975-2.75zm1.497 1.197v-1.107l-6.472 3.578v1.068zm2.245-1.197h-1.706v.91z"/><path d="M17.258 36.473c0 .268.203 1.207.944 1.207.792 0 .944-.94.944-1.207h-1.888z" fill="#FFCB64" mask="url(#b)"/><path d="M18.202 36.473c-.024.467 0 1.207 0 1.207.793 0 .944-.94.944-1.207h-.944z" fill="#FFCB64" mask="url(#b)"/><path fill="#DDC199" mask="url(#b)" d="M16.989 36.473h2.427v-.537h-2.427z"/><path fill="#DDC199" mask="url(#b)" d="M18.067 36.473h1.349v-.537h-1.349z"/><path fill="#F4943D" mask="url(#b)" d="M74.427 31.377h1.079v-3.486h-1.079z"/><path d="M74.427 30.177v1.2h1.079v-2.436c-.35.421-.706.835-1.079 1.236" fill="#E59A4E" mask="url(#b)"/><path fill="#315563" mask="url(#b)" d="M72 47.736h5.393V33.523H72z"/><path fill="#609C9A" mask="url(#b)" d="M77.393 37.32v-1.403L72 39.965v1.456zm0 2.71v-1.707L72 42.46v1.954z"/><path fill="#315563" mask="url(#b)" d="M67.955 36.473h2.427v-2.414h-2.427z"/><path fill="#609C9A" mask="url(#b)" d="M68.235 36.473h.761l1.386-1.028v-.662zm2.147-2.366v-.048h-.592l-1.835 1.384v.572z"/><path fill="#1E1F1A" mask="url(#b)" d="M67.685 43.714h2.967v-2.95h-2.967z"/><path fill="#315563" mask="url(#b)" d="M67.955 43.445h2.427v-2.413h-2.427z"/><path fill="#609C9A" mask="url(#b)" d="M68.235 43.445h.761l1.386-1.027v-.662zm2.147-2.365v-.048h-.592l-1.835 1.384v.571z"/><path fill="#1E1F1A" mask="url(#b)" d="M67.685 40.227h2.967v-2.95h-2.967z"/><path fill="#315563" mask="url(#b)" d="M67.955 39.96h2.427v-2.415h-2.427z"/><path fill="#609C9A" mask="url(#b)" d="M68.235 39.96h.761l1.386-1.028v-.662zm2.147-2.367v-.048h-.592l-1.835 1.384v.572z"/><path fill="#1E1F1A" mask="url(#b)" d="M79.011 36.74h2.967v-2.95H79.01z"/><path fill="#315563" mask="url(#b)" d="M79.28 36.473h2.428v-2.414H79.28z"/><path fill="#609C9A" mask="url(#b)" d="M79.561 36.473h.761l1.386-1.028v-.662zm2.147-2.366v-.048h-.592l-1.835 1.384v.572z"/><path fill="#1E1F1A" mask="url(#b)" d="M79.011 43.714h2.967v-2.95H79.01z"/><path fill="#315563" mask="url(#b)" d="M79.28 43.445h2.428v-2.413H79.28z"/><path fill="#609C9A" mask="url(#b)" d="M79.561 43.445h.761l1.386-1.027v-.662zm2.147-2.365v-.048h-.592l-1.835 1.384v.571z"/><path fill="#1E1F1A" mask="url(#b)" d="M79.011 40.227h2.967v-2.95H79.01z"/><path fill="#315563" mask="url(#b)" d="M79.28 39.96h2.428v-2.415H79.28z"/><path fill="#609C9A" mask="url(#b)" d="M79.561 39.96h.761l1.386-1.028v-.662zm2.147-2.367v-.048h-.592L79.28 38.93v.572z"/><path d="M65.417 44.599a.506.506 0 0 0-.11.013.837.837 0 0 0-.824-.682.837.837 0 0 0-.84.834.837.837 0 0 0 1.376.637.501.501 0 1 0 .398-.802" fill="#8BAB3E" mask="url(#b)"/><path d="M63.757 44.353a.819.819 0 0 0-.113.411.837.837 0 0 0 1.375.637.5.5 0 0 0 .897-.26c-.776-.077-1.522-.32-2.159-.788" fill="#8BAB3E" mask="url(#b)"/><path d="M63.64 45.323v1.718c0 .384.193.695.58.695h1.048c.387 0 .8-.311.8-.695v-1.718H63.64z" fill="#1E1F1A" mask="url(#b)"/><path d="M64.72 45.323h-1.08v1.718c0 .384.193.695.58.695h.5v-2.413z" fill="#1E1F1A" mask="url(#b)"/><path d="M85.372 44.599a.506.506 0 0 0-.11.013.837.837 0 0 0-.824-.682.837.837 0 0 0-.84.834.837.837 0 0 0 1.376.637.501.501 0 1 0 .398-.802" fill="#8BAB3E" mask="url(#b)"/><path d="M83.712 44.353a.819.819 0 0 0-.113.411.837.837 0 0 0 1.375.637.5.5 0 0 0 .897-.26c-.776-.077-1.522-.32-2.159-.788" fill="#8BAB3E" mask="url(#b)"/><path d="M83.596 45.323v1.718c0 .384.192.695.578.695h1.05c.386 0 .798-.311.798-.695v-1.718h-2.426z" fill="#1E1F1A" mask="url(#b)"/><path d="M84.674 45.323h-1.078v1.718c0 .384.192.695.578.695h.5v-2.413z" fill="#1E1F1A" mask="url(#b)"/><path fill="#BF9766" mask="url(#b)" d="M73.888 28.16h2.157v-.805h-2.157z"/><path fill="#BF9766" mask="url(#b)" d="M74.966 28.16h1.079v-.805h-1.079z"/></g></svg>