<svg xmlns="http://www.w3.org/2000/svg" width="99.953" height="73.275" viewBox="0.666 -0.168 99.953 73.275"><defs><style/></defs><g id="ID0.30025462061166763" transform="translate(-.03 -.002) scale(.77395)"><g id="ID0.2505933870561421" stroke="none"><path id="ID0.5673541482537985" fill="#FFF" stroke-linecap="round" d="M179.25 78.5c14.08-1.769 28.395.319 42.5.5 15.148.195 30.629-1.941 45.5 1 3.705.745.973-2.326 1 8.5.754 43.284.737 86.709 1 130 .224 36.876.48 74.036.5 111 .007 9.24 3.65 4.323-.5 4.5-16.582 1.671-33.316.147-50 0-14.974-.138-29.843 1.521-45-.5-3.789-.505-.503 2.991-.5-6 .012-35.966.393-72.036.5-108 .15-44.656-1.617-89.412 0-134 .421-11.154 1.586-6.375 5-7z" transform="matrix(.0962 0 0 .1638 -15.5 1.95)"/><path id="ID0.3195285517722368" fill="#FFC" d="M220.5 233.5h9.5V334h-9.5V233.5z" transform="translate(-83.8 -79.95) scale(.40773)"/><path id="ID0.09529179334640503" fill="#FFF45C" stroke-linecap="round" d="M215.25 196c3.688 3.474 7.281 7.769 9.5 12.5 1.655 3.525 2.629 7.585 2.5 11.5-.13 3.248-1.574 6.717-3.5 9.5-1.373 2.079-3.678 5.431-6 4.5-3.427-1.407-4.497-5.283-5.5-8.5-1.191-3.842-1.511-7.936-1-12 .676-4.921 3.407-9.589 4.5-14.5.274-1.231-1.506-3.926-.5-3z" transform="translate(-83.4 -79.75) scale(.40773)"/><path id="ID0.6337189464829862" fill="#FF8C33" stroke-linecap="round" d="M218.25 210.5c.691-.203 2.712 5.336 3.5 8 .727 2.387 1.473 4.872 1 7-.561 2.714-1.469 5.997-3.5 7.5-.836.603-1.717-1.453-2-2.5-.31-1.884-.559-3.992-.5-6 .183-1.626.531-3.033.5-4.5.527-3.203.326-9.293 1-9.5z" transform="translate(-83.25 -79.75) scale(.40773)"/></g><g id="ID0.2505933870561421" stroke="none"><path id="ID0.5673541482537985" fill="#FFF" stroke-linecap="round" d="M179.25 78.5c14.08-1.769 28.395.319 42.5.5 15.148.195 30.629-1.941 45.5 1 3.705.745.973-2.326 1 8.5.754 43.284.737 86.709 1 130 .224 36.876.48 74.036.5 111 .007 9.24 3.65 4.323-.5 4.5-16.582 1.671-33.316.147-50 0-14.974-.138-29.843 1.521-45-.5-3.789-.505-.503 2.991-.5-6 .012-35.966.393-72.036.5-108 .15-44.656-1.617-89.412 0-134 .421-11.154 1.586-6.375 5-7z" transform="matrix(.0962 0 0 .1638 -.5 2.2)"/><path id="ID0.3195285517722368" fill="#FFC" d="M220.5 233.5h9.5V334h-9.5V233.5z" transform="translate(-68.9 -79.7) scale(.40773)"/><path id="ID0.09529179334640503" fill="#FFF45C" stroke-linecap="round" d="M215.25 196c3.688 3.474 7.281 7.769 9.5 12.5 1.655 3.525 2.629 7.585 2.5 11.5-.13 3.248-1.574 6.717-3.5 9.5-1.373 2.079-3.678 5.431-6 4.5-3.427-1.407-4.497-5.283-5.5-8.5-1.191-3.842-1.511-7.936-1-12 .676-4.921 3.407-9.589 4.5-14.5.274-1.231-1.506-3.926-.5-3z" transform="translate(-68.5 -79.5) scale(.40773)"/><path id="ID0.6337189464829862" fill="#FF8C33" stroke-linecap="round" d="M218.25 210.5c.691-.203 2.712 5.336 3.5 8 .727 2.387 1.473 4.872 1 7-.561 2.714-1.469 5.997-3.5 7.5-.836.603-1.717-1.453-2-2.5-.31-1.884-.559-3.992-.5-6 .183-1.626.531-3.033.5-4.5.527-3.203.326-9.293 1-9.5z" transform="translate(-68.3 -79.5) scale(.40773)"/></g><g id="ID0.2505933870561421" stroke="none"><path id="ID0.5673541482537985" fill="#FFF" stroke-linecap="round" d="M179.25 78.5c14.08-1.769 28.395.319 42.5.5 15.148.195 30.629-1.941 45.5 1 3.705.745.973-2.326 1 8.5.754 43.284.737 86.709 1 130 .224 36.876.48 74.036.5 111 .007 9.24 3.65 4.323-.5 4.5-16.582 1.671-33.316.147-50 0-14.974-.138-29.843 1.521-45-.5-3.789-.505-.503 2.991-.5-6 .012-35.966.393-72.036.5-108 .15-44.656-1.617-89.412 0-134 .421-11.154 1.586-6.375 5-7z" transform="matrix(.0962 0 0 .1638 14.65 1.95)"/><path id="ID0.3195285517722368" fill="#FFC" d="M220.5 233.5h9.5V334h-9.5V233.5z" transform="translate(-53.7 -79.95) scale(.40773)"/><path id="ID0.09529179334640503" fill="#FFF45C" stroke-linecap="round" d="M215.25 196c3.688 3.474 7.281 7.769 9.5 12.5 1.655 3.525 2.629 7.585 2.5 11.5-.13 3.248-1.574 6.717-3.5 9.5-1.373 2.079-3.678 5.431-6 4.5-3.427-1.407-4.497-5.283-5.5-8.5-1.191-3.842-1.511-7.936-1-12 .676-4.921 3.407-9.589 4.5-14.5.274-1.231-1.506-3.926-.5-3z" transform="translate(-53.25 -79.75) scale(.40773)"/><path id="ID0.6337189464829862" fill="#FF8C33" stroke-linecap="round" d="M218.25 210.5c.691-.203 2.712 5.336 3.5 8 .727 2.387 1.473 4.872 1 7-.561 2.714-1.469 5.997-3.5 7.5-.836.603-1.717-1.453-2-2.5-.31-1.884-.559-3.992-.5-6 .183-1.626.531-3.033.5-4.5.527-3.203.326-9.293 1-9.5z" transform="translate(-53 -79.75) scale(.40773)"/></g><g id="ID0.2505933870561421" stroke="none"><path id="ID0.5673541482537985" fill="#FFF" stroke-linecap="round" d="M179.25 78.5c14.08-1.769 28.395.319 42.5.5 15.148.195 30.629-1.941 45.5 1 3.705.745.973-2.326 1 8.5.754 43.284.737 86.709 1 130 .224 36.876.48 74.036.5 111 .007 9.24 3.65 4.323-.5 4.5-16.582 1.671-33.316.147-50 0-14.974-.138-29.843 1.521-45-.5-3.789-.505-.503 2.991-.5-6 .012-35.966.393-72.036.5-108 .15-44.656-1.617-89.412 0-134 .421-11.154 1.586-6.375 5-7z" transform="matrix(.0962 0 0 .1638 29.9 2.45)"/><path id="ID0.3195285517722368" fill="#FFC" d="M220.5 233.5h9.5V334h-9.5V233.5z" transform="translate(-38.35 -79.45) scale(.40773)"/><path id="ID0.09529179334640503" fill="#FFF45C" stroke-linecap="round" d="M215.25 196c3.688 3.474 7.281 7.769 9.5 12.5 1.655 3.525 2.629 7.585 2.5 11.5-.13 3.248-1.574 6.717-3.5 9.5-1.373 2.079-3.678 5.431-6 4.5-3.427-1.407-4.497-5.283-5.5-8.5-1.191-3.842-1.511-7.936-1-12 .676-4.921 3.407-9.589 4.5-14.5.274-1.231-1.506-3.926-.5-3z" transform="translate(-38 -79.25) scale(.40773)"/><path id="ID0.6337189464829862" fill="#FF8C33" stroke-linecap="round" d="M218.25 210.5c.691-.203 2.712 5.336 3.5 8 .727 2.387 1.473 4.872 1 7-.561 2.714-1.469 5.997-3.5 7.5-.836.603-1.717-1.453-2-2.5-.31-1.884-.559-3.992-.5-6 .183-1.626.531-3.033.5-4.5.527-3.203.326-9.293 1-9.5z" transform="translate(-37.75 -79.25) scale(.40773)"/></g><g id="ID0.2505933870561421" stroke="none"><path id="ID0.5673541482537985" fill="#FFF" stroke-linecap="round" d="M179.25 78.5c14.08-1.769 28.395.319 42.5.5 15.148.195 30.629-1.941 45.5 1 3.705.745.973-2.326 1 8.5.754 43.284.737 86.709 1 130 .224 36.876.48 74.036.5 111 .007 9.24 3.65 4.323-.5 4.5-16.582 1.671-33.316.147-50 0-14.974-.138-29.843 1.521-45-.5-3.789-.505-.503 2.991-.5-6 .012-35.966.393-72.036.5-108 .15-44.656-1.617-89.412 0-134 .421-11.154 1.586-6.375 5-7z" transform="matrix(.0962 0 0 .1638 45.9 2.45)"/><path id="ID0.3195285517722368" fill="#FFC" d="M220.5 233.5h9.5V334h-9.5V233.5z" transform="translate(-22.4 -79.45) scale(.40773)"/><path id="ID0.09529179334640503" fill="#FFF45C" stroke-linecap="round" d="M215.25 196c3.688 3.474 7.281 7.769 9.5 12.5 1.655 3.525 2.629 7.585 2.5 11.5-.13 3.248-1.574 6.717-3.5 9.5-1.373 2.079-3.678 5.431-6 4.5-3.427-1.407-4.497-5.283-5.5-8.5-1.191-3.842-1.511-7.936-1-12 .676-4.921 3.407-9.589 4.5-14.5.274-1.231-1.506-3.926-.5-3z" transform="translate(-22 -79.25) scale(.40773)"/><path id="ID0.6337189464829862" fill="#FF8C33" stroke-linecap="round" d="M218.25 210.5c.691-.203 2.712 5.336 3.5 8 .727 2.387 1.473 4.872 1 7-.561 2.714-1.469 5.997-3.5 7.5-.836.603-1.717-1.453-2-2.5-.31-1.884-.559-3.992-.5-6 .183-1.626.531-3.033.5-4.5.527-3.203.326-9.293 1-9.5z" transform="translate(-21.75 -79.25) scale(.40773)"/></g><g id="ID0.2505933870561421" stroke="none"><path id="ID0.5673541482537985" fill="#FFF" stroke-linecap="round" d="M179.25 78.5c14.08-1.769 28.395.319 42.5.5 15.148.195 30.629-1.941 45.5 1 3.705.745.973-2.326 1 8.5.754 43.284.737 86.709 1 130 .224 36.876.48 74.036.5 111 .007 9.24 3.65 4.323-.5 4.5-16.582 1.671-33.316.147-50 0-14.974-.138-29.843 1.521-45-.5-3.789-.505-.503 2.991-.5-6 .012-35.966.393-72.036.5-108 .15-44.656-1.617-89.412 0-134 .421-11.154 1.586-6.375 5-7z" transform="matrix(.0962 0 0 .1638 -15.5 2.7)"/><path id="ID0.3195285517722368" fill="#FFC" d="M220.5 233.5h9.5V334h-9.5V233.5z" transform="translate(-83.8 -79.2) scale(.40773)"/><path id="ID0.09529179334640503" fill="#FFF45C" stroke-linecap="round" d="M215.25 196c3.688 3.474 7.281 7.769 9.5 12.5 1.655 3.525 2.629 7.585 2.5 11.5-.13 3.248-1.574 6.717-3.5 9.5-1.373 2.079-3.678 5.431-6 4.5-3.427-1.407-4.497-5.283-5.5-8.5-1.191-3.842-1.511-7.936-1-12 .676-4.921 3.407-9.589 4.5-14.5.274-1.231-1.506-3.926-.5-3z" transform="translate(-83.5 -79) scale(.40773)"/><path id="ID0.6337189464829862" fill="#FF8C33" stroke-linecap="round" d="M218.25 210.5c.691-.203 2.712 5.336 3.5 8 .727 2.387 1.473 4.872 1 7-.561 2.714-1.469 5.997-3.5 7.5-.836.603-1.717-1.453-2-2.5-.31-1.884-.559-3.992-.5-6 .183-1.626.531-3.033.5-4.5.527-3.203.326-9.293 1-9.5z" transform="translate(-83.25 -79) scale(.40773)"/></g><g id="ID0.2505933870561421" stroke="none"><path id="ID0.5673541482537985" fill="#FFF" stroke-linecap="round" d="M179.25 78.5c14.08-1.769 28.395.319 42.5.5 15.148.195 30.629-1.941 45.5 1 3.705.745.973-2.326 1 8.5.754 43.284.737 86.709 1 130 .224 36.876.48 74.036.5 111 .007 9.24 3.65 4.323-.5 4.5-16.582 1.671-33.316.147-50 0-14.974-.138-29.843 1.521-45-.5-3.789-.505-.503 2.991-.5-6 .012-35.966.393-72.036.5-108 .15-44.656-1.617-89.412 0-134 .421-11.154 1.586-6.375 5-7z" transform="matrix(.0962 0 0 .1638 61.15 2.2)"/><path id="ID0.3195285517722368" fill="#FFC" d="M220.5 233.5h9.5V334h-9.5V233.5z" transform="translate(-7.15 -79.7) scale(.40773)"/><path id="ID0.09529179334640503" fill="#FFF45C" stroke-linecap="round" d="M215.25 196c3.688 3.474 7.281 7.769 9.5 12.5 1.655 3.525 2.629 7.585 2.5 11.5-.13 3.248-1.574 6.717-3.5 9.5-1.373 2.079-3.678 5.431-6 4.5-3.427-1.407-4.497-5.283-5.5-8.5-1.191-3.842-1.511-7.936-1-12 .676-4.921 3.407-9.589 4.5-14.5.274-1.231-1.506-3.926-.5-3z" transform="translate(-6.75 -79.5) scale(.40773)"/><path id="ID0.6337189464829862" fill="#FF8C33" stroke-linecap="round" d="M218.25 210.5c.691-.203 2.712 5.336 3.5 8 .727 2.387 1.473 4.872 1 7-.561 2.714-1.469 5.997-3.5 7.5-.836.603-1.717-1.453-2-2.5-.31-1.884-.559-3.992-.5-6 .183-1.626.531-3.033.5-4.5.527-3.203.326-9.293 1-9.5z" transform="translate(-6.5 -79.5) scale(.40773)"/></g><g id="ID0.2505933870561421" stroke="none"><path id="ID0.5673541482537985" fill="#FFF" stroke-linecap="round" d="M179.25 78.5c14.08-1.769 28.395.319 42.5.5 15.148.195 30.629-1.941 45.5 1 3.705.745.973-2.326 1 8.5.754 43.284.737 86.709 1 130 .224 36.876.48 74.036.5 111 .007 9.24 3.65 4.323-.5 4.5-16.582 1.671-33.316.147-50 0-14.974-.138-29.843 1.521-45-.5-3.789-.505-.503 2.991-.5-6 .012-35.966.393-72.036.5-108 .15-44.656-1.617-89.412 0-134 .421-11.154 1.586-6.375 5-7z" transform="matrix(.0962 0 0 .1638 78.35 3.45)"/><path id="ID0.3195285517722368" fill="#FFC" d="M220.5 233.5h9.5V334h-9.5V233.5z" transform="translate(10 -78.45) scale(.40773)"/><path id="ID0.09529179334640503" fill="#FFF45C" stroke-linecap="round" d="M215.25 196c3.688 3.474 7.281 7.769 9.5 12.5 1.655 3.525 2.629 7.585 2.5 11.5-.13 3.248-1.574 6.717-3.5 9.5-1.373 2.079-3.678 5.431-6 4.5-3.427-1.407-4.497-5.283-5.5-8.5-1.191-3.842-1.511-7.936-1-12 .676-4.921 3.407-9.589 4.5-14.5.274-1.231-1.506-3.926-.5-3z" transform="translate(10.4 -78.25) scale(.40773)"/><path id="ID0.6337189464829862" fill="#FF8C33" stroke-linecap="round" d="M218.25 210.5c.691-.203 2.712 5.336 3.5 8 .727 2.387 1.473 4.872 1 7-.561 2.714-1.469 5.997-3.5 7.5-.836.603-1.717-1.453-2-2.5-.31-1.884-.559-3.992-.5-6 .183-1.626.531-3.033.5-4.5.527-3.203.326-9.293 1-9.5z" transform="translate(10.55 -78.25) scale(.40773)"/></g><g id="ID0.2505933870561421" stroke="none"><path id="ID0.5673541482537985" fill="#FFF" stroke-linecap="round" d="M179.25 78.5c14.08-1.769 28.395.319 42.5.5 15.148.195 30.629-1.941 45.5 1 3.705.745.973-2.326 1 8.5.754 43.284.737 86.709 1 130 .224 36.876.48 74.036.5 111 .007 9.24 3.65 4.323-.5 4.5-16.582 1.671-33.316.147-50 0-14.974-.138-29.843 1.521-45-.5-3.789-.505-.503 2.991-.5-6 .012-35.966.393-72.036.5-108 .15-44.656-1.617-89.412 0-134 .421-11.154 1.586-6.375 5-7z" transform="matrix(.0962 0 0 .1638 103.7 3.15)"/><path id="ID0.3195285517722368" fill="#FFC" d="M220.5 233.5h9.5V334h-9.5V233.5z" transform="translate(35.3 -78.75) scale(.40773)"/><path id="ID0.09529179334640503" fill="#FFF45C" stroke-linecap="round" d="M215.25 196c3.688 3.474 7.281 7.769 9.5 12.5 1.655 3.525 2.629 7.585 2.5 11.5-.13 3.248-1.574 6.717-3.5 9.5-1.373 2.079-3.678 5.431-6 4.5-3.427-1.407-4.497-5.283-5.5-8.5-1.191-3.842-1.511-7.936-1-12 .676-4.921 3.407-9.589 4.5-14.5.274-1.231-1.506-3.926-.5-3z" transform="translate(35.8 -78.55) scale(.40773)"/><path id="ID0.6337189464829862" fill="#FF8C33" stroke-linecap="round" d="M218.25 210.5c.691-.203 2.712 5.336 3.5 8 .727 2.387 1.473 4.872 1 7-.561 2.714-1.469 5.997-3.5 7.5-.836.603-1.717-1.453-2-2.5-.31-1.884-.559-3.992-.5-6 .183-1.626.531-3.033.5-4.5.527-3.203.326-9.293 1-9.5z" transform="translate(36 -78.55) scale(.40773)"/></g><g id="ID0.2505933870561421" stroke="none"><path id="ID0.5673541482537985" fill="#FFF" stroke-linecap="round" d="M179.25 78.5c14.08-1.769 28.395.319 42.5.5 15.148.195 30.629-1.941 45.5 1 3.705.745.973-2.326 1 8.5.754 43.284.737 86.709 1 130 .224 36.876.48 74.036.5 111 .007 9.24 3.65 4.323-.5 4.5-16.582 1.671-33.316.147-50 0-14.974-.138-29.843 1.521-45-.5-3.789-.505-.503 2.991-.5-6 .012-35.966.393-72.036.5-108 .15-44.656-1.617-89.412 0-134 .421-11.154 1.586-6.375 5-7z" transform="matrix(.0962 0 0 .1638 92.15 3.15)"/><path id="ID0.3195285517722368" fill="#FFC" d="M220.5 233.5h9.5V334h-9.5V233.5z" transform="translate(23.8 -78.75) scale(.40773)"/><path id="ID0.09529179334640503" fill="#FFF45C" stroke-linecap="round" d="M215.25 196c3.688 3.474 7.281 7.769 9.5 12.5 1.655 3.525 2.629 7.585 2.5 11.5-.13 3.248-1.574 6.717-3.5 9.5-1.373 2.079-3.678 5.431-6 4.5-3.427-1.407-4.497-5.283-5.5-8.5-1.191-3.842-1.511-7.936-1-12 .676-4.921 3.407-9.589 4.5-14.5.274-1.231-1.506-3.926-.5-3z" transform="translate(24.25 -78.55) scale(.40773)"/><path id="ID0.6337189464829862" fill="#FF8C33" stroke-linecap="round" d="M218.25 210.5c.691-.203 2.712 5.336 3.5 8 .727 2.387 1.473 4.872 1 7-.561 2.714-1.469 5.997-3.5 7.5-.836.603-1.717-1.453-2-2.5-.31-1.884-.559-3.992-.5-6 .183-1.626.531-3.033.5-4.5.527-3.203.326-9.293 1-9.5z" transform="translate(24.5 -78.55) scale(.40773)"/></g><g id="ID0.698288531973958" fill="#7F7F7F" stroke="#7F7F7F" stroke-width="2"><path id="ID0.57411087770015" d="M311.5 191H329v44.5h-17.5V191z" transform="matrix(.70538 0 0 .4369 -159.85 -14.25)"/><path id="ID0.4764567194506526" stroke-linecap="round" d="M253 180.5h149.5V198l-33.45 7.5-39.75 8.65L253 198v-17.5z" transform="matrix(.86136 0 0 .4369 -216.65 -21.5)"/><path id="ID0.5194686623290181" d="M283.5 233H351v14h-67.5v-14z" transform="matrix(.70538 0 0 .4369 -157.35 -13.45)"/></g></g></svg>