<svg width="120" height="120" viewBox="0 0 120 120" xmlns="http://www.w3.org/2000/svg"><g fill="none" fill-rule="evenodd"><path d="M88.933.926l8.727 3.75v7.544l-5.543-2.382 1.951 10.742 3.592-2.351v8.282l-4.162 2.724a3.464 3.464 0 0 1-5.344-2.548L84.164 4.72A3.454 3.454 0 0 1 88.929.936l.004-.01zm8.727 3.75l14.21 6.105a3.466 3.466 0 0 1 .47 6.123l-14.68 9.607V18.23l5.542-3.627-5.542-2.382V4.675z" fill="#FFC108"/><path d="M88.417 24.966a3.467 3.467 0 0 1 6.368 2.738l-26.012 60.54a3.466 3.466 0 0 1-6.368-2.738l26.012-60.54" fill="#FFC108"/><path d="M44.03 25.976c6.466 0 12.353 2.237 16.76 5.897 1.78-.366 3.632-.56 5.535-.56 13.667 0 24.746 9.987 24.746 22.307 0 12.321-11.079 22.309-24.746 22.309-6.466 0-12.352-2.237-16.76-5.898-1.78.367-3.632.56-5.534.56-13.668 0-24.746-9.987-24.746-22.307 0-12.32 11.078-22.308 24.746-22.308" fill="#FACE8D"/><path fill="#95B341" d="M12.327 57.574h87.992V39.566H12.327zm15.214 62.209h57.563l8.439-62.209h-74.44l8.438 62.209"/><path fill="#B6CF72" d="M23.328 57.574h6.827V39.566h-6.827zm10.179 62.209h5.338L31.976 60.76h-6.828l8.36 59.023"/><path d="M7.496 46.115h9.662a2.462 2.462 0 0 1 2.456 2.455 2.462 2.462 0 0 1-2.456 2.456H7.496A2.462 2.462 0 0 1 5.04 48.57a2.462 2.462 0 0 1 2.456-2.455m87.992 0h9.663a2.462 2.462 0 0 1 2.455 2.455 2.462 2.462 0 0 1-2.455 2.456h-9.663a2.462 2.462 0 0 1-2.456-2.456 2.462 2.462 0 0 1 2.456-2.455" fill="#95B341"/><path d="M105.12 51.026c0 13.474-5.463 25.674-14.293 34.504-8.83 8.83-21.03 14.293-34.504 14.293-13.474 0-25.673-5.462-34.503-14.293C12.989 76.7 7.526 64.5 7.526 51.026h3.965c0 12.38 5.018 23.59 13.131 31.702 8.113 8.112 19.32 13.13 31.701 13.13 12.38 0 23.588-5.017 31.701-13.13 8.113-8.112 13.13-19.322 13.13-31.702h3.965" fill="#FFC108"/><path fill="#7C992C" d="M93.11 60.76l.433-3.186h-74.44l.433 3.186H93.11"/><path d="M43.491 32.15c4.528 0 8.222-1.194 8.222-2.659 0-1.465-3.694-2.66-8.222-2.66-4.529 0-8.222 1.195-8.222 2.66s3.693 2.66 8.222 2.66m24.277 5.298c4.528 0 8.222-1.195 8.222-2.66 0-1.464-3.694-2.659-8.222-2.659-4.529 0-8.222 1.195-8.222 2.66 0 1.464 3.693 2.659 8.222 2.659" fill="#FFE3BA"/></g></svg>