<svg width="480" height="360" viewBox="0 0 480 360" xmlns="http://www.w3.org/2000/svg" xmlns:xlink="http://www.w3.org/1999/xlink" style="background:#fff"><defs><path id="a" d="M0 361.6h480V.365H0z"/><path d="M11.839 50.727c0 4.123.443 8.129 1.274 11.965-7.93 8.227-12.898 20-12.898 33.075 0 24.875 17.971 45.04 40.14 45.04a36.233 36.233 0 0 0 14.52-3.039c2.73.5 5.532.764 8.389.764 6.978 0 13.631-1.555 19.705-4.367.525.028 1.051.046 1.582.046 18.922 0 34.262-17.213 34.262-38.444 0-6.434-1.416-12.493-3.906-17.821-.558-14.316-5.742-27.284-13.914-37.07C96.908 17.702 78.696.228 56.845.228 31.99.228 11.84 22.838 11.84 50.727" id="c"/><path d="M37.599 17.744C16.894 19.281.525 38.607.525 62.227c0 22.796 15.247 41.594 34.923 44.259 6.003 3.688 12.893 5.785 20.22 5.785 10.308 0 19.75-4.152 27.077-11.045 21.101-4.803 36.985-25.733 36.985-50.828C119.73 21.755 99.036.393 73.508.393c-14.498 0-27.434 5.633-35.91 17.351" id="e"/><path d="M.2 28.842c0 15.895 12.886 28.78 28.782 28.78 15.895 0 28.781-12.885 28.781-28.78C57.763 12.946 44.877.06 28.982.06 13.086.06.2 12.946.2 28.842" id="g"/><path d="M.257 35.67c0 19.488 15.798 35.286 35.286 35.286S70.829 55.158 70.829 35.67C70.829 16.183 55.03.385 35.543.385S.257 16.183.257 35.67" id="i"/><path id="k" d="M0 361.6h480V.365H0z"/></defs><g fill="none" fill-rule="evenodd"><path fill="#88D9E2" d="M0 359.769h480V-1.467H0z"/><g transform="translate(0 -1.831)"><path d="M442.615 82.097v.56c0 3.696 3.026 6.722 6.722 6.722h30.661v22.33h-91.674c-3.693 0-6.72-3.022-6.72-6.718v-8.894c0-3.696 3.027-6.718 6.72-6.718h14.156c3.697 0 6.72-3.026 6.72-6.723v-.559c0-3.697-3.023-6.722-6.72-6.722h-61.868c-3.508 0-6.38-2.544-6.38-5.655 0-3.107-2.872-5.651-6.383-5.651h-22.912a6.692 6.692 0 0 1-4.745-1.974 6.7 6.7 0 0 1-1.973-4.75c0-3.696 3.021-6.717 6.718-6.717h175.061v24.747h-30.66c-3.697 0-6.723 3.025-6.723 6.722" fill="#FFF"/><path d="M415.245 157.59h13.316m-13.316-33.56h13.316" stroke="#A4E3FF" stroke-width="6.813"/><mask id="b" fill="#fff"><use xlink:href="#a"/></mask><path fill="#00A8B7" mask="url(#b)" d="M374.484 263.999h54.079V99.41h-54.08z"/><path fill="#006881" mask="url(#b)" d="M362.32 263.999h23.862V99.41h-23.863z"/><path d="M419.812 185.918h8.749m-21.549-53.966h6.647m-23.732 53.966h6.533m-26.126-53.966h10.667m-18.681 0h5.994m51.496 7.036h8.75m-19.2 108.245h10.45m-29.885-54.279h12.8m12.797 6.646h13.039m-42.462-53.967h8.574m-32.353 0h6.778m48.863 61.003h6.004m-33.894-53.966h8.509m-30.266 53.966h8.992m29.706-47.321h16.953m-43.14 0h13.39m-18.083 67.692h4.693m-8.211-13.725h3.518m39.388-46.93h13.04m-23.89 40.284h4.221m.079-94.563h2.329m-23.713 94.563h14.755m-22.709 6.646h6.143m-15.505 7.036h9.77m-13.289-53.966h3.52m-4.832-54.279h4.432m51.999 6.646h6.69m-21.55 54.278h14.86m-17.203-54.278h2.343m-29.706 54.278h8.88m-23.864-54.278h3.119m54.372 7.036h8.75M411.296 234h8.516m-17.088-53.967h8.572m-38.044 0h12.931m-13.959-54.278h6.547m-11.239 54.278h4.692m-6.785 67.692h5.212" stroke="#A4E3FF" stroke-width="4.679" mask="url(#b)"/><path d="M411.754 131.952h6.647m-23.732 53.966h6.533m-14.929-53.966h10.666m17.163 115.281h10.449" stroke="#CFF3FF" stroke-width="4.679" mask="url(#b)"/><path d="M375.402 138.988h10.78" stroke="#A4E3FF" stroke-width="4.679" mask="url(#b)"/><path d="M403.179 145.633h8.574m-32.528 0h7.123m24.752 7.037h17.46m-55.504 53.966h8.991m4.052-47.321h12.858m-18.084 67.692h4.693m-8.211-13.725h3.519m28.537-6.646h4.222m.078-94.563h2.329m-25.116 108.245h8.033m-14.583-7.036h6.143m-15.505 7.036h9.77m-13.289-53.966h3.52m36.739 6.645h14.86m-30.102-54.278h12.9m-18.484 108.245h5.585m-25.439-108.245h10.974M416.038 234h8.515m-17.087-53.967h8.572m-26.468-54.278h17.896m-22.291 54.278h5.75m-10.492-54.278h4.742m-14.995 121.97h5.213" stroke="#CFF3FF" stroke-width="4.679" mask="url(#b)"/><path fill="#98BA2D" mask="url(#b)" d="M417.67 263.999h-.048z"/><path d="M138.625 82.824v.868c0 3.799-3.11 6.91-6.913 6.91H64.23c-3.799 0-6.909 3.11-6.909 6.912v2.948c0 3.798-3.11 6.908-6.913 6.908H.707c-.15 0-.3-.003-.45-.016V76.528c.91-.396-.993-.617.083-.617h131.372c3.803 0 6.913 3.11 6.913 6.913" fill="#FFF" mask="url(#b)"/><path fill="#36B2D8" mask="url(#b)" d="M267.512 327.29h74.781V137.46h-74.781z"/><path d="M284.544 155.064h13.535" stroke="#A4E3FF" stroke-width="6.238" mask="url(#b)"/><path d="M261.19 251.94h17.03" stroke="#A4E3FF" stroke-width="9.131" mask="url(#b)"/><path d="M298.194 237.244h34.436m-65.116-72.75h30.68m-11.422 8.907h22.285" stroke="#A4E3FF" stroke-width="6.238" mask="url(#b)"/><path d="M261.19 270.277h19.258m-19.258-63.318h17.033" stroke="#A4E3FF" stroke-width="9.131" mask="url(#b)"/><path d="M267.514 191.739h36.23m-23.639 82.18h16.982m-20.71-72.749h12.592m22.81 81.656h25.23m-22.71-72.749h20.12m-13.749 82.18h16.335m-34.369-72.75H288.97m-6.647 72.75h20.313" stroke="#A4E3FF" stroke-width="6.238" mask="url(#b)"/><path d="M304.998 155.064h11.11m-35.122 72.749h24.012m12.239 18.337h20.239m-23.255-72.749h15.303m-48.538 72.749h26.24m-14.641-63.318h22.827m17.218 8.907h-15.414m-16.656 82.18h9.998m-56.019-63.842h49.556m12.013 9.43h23.325m-36.656 72.75h13.331" stroke="#CFF3FF" stroke-width="6.238" mask="url(#b)"/><path fill="#22557F" mask="url(#b)" d="M295.646 139.552V327.29h-67.794V139.552z"/><path d="M295.802 145.611h46.493m-74.781 0h21.082" stroke="#95E4E8" stroke-width="5.489" mask="url(#b)"/><path d="M290.558 155.064h5.005m-7.508 27.768h5.005" stroke="#95E4E8" stroke-width="6.029" mask="url(#b)"/><path d="M267.514 159.739h11.803" stroke="#95E4E8" stroke-width="6.531" mask="url(#b)"/><path d="M295.802 137.459h46.493" stroke="#FFF" stroke-width="6.947" mask="url(#b)"/><path d="M267.514 137.459h28.288" stroke="#A4EEFF" stroke-width="6.947" mask="url(#b)"/><path fill="#2E9BC6" mask="url(#b)" d="M206.56 322.17h72.214V42.81H206.56z"/><path fill="#22557F" mask="url(#b)" d="M190.254 322.17h31.983V42.812h-31.983z"/><path d="M267.31 289.907h10.113M259.064 60.416h3.577m-12.485 157.16h8.909m-29.376-157.16h6.966m-9.398 229.491h8.756m-35.017-72.331h14.296m-24.984-157.16h14.674m-14.728 157.16h8.034m69.02 9.43h11.466M244.41 69.846h8.893m-26.049 229.491h17.157M222.236 69.846h-8.777m-23.205 0h6.355m64.952 238.398h15.863M250.155 78.753h5.27m-33.299 157.16h11.492M222.46 78.753h16.203m-39.324 0h7.219m66.319 9.431h4.546M264.83 317.675h8.047M240.046 88.184h6.788m-19.384 157.16h11.404m-16.617-157.16h10.769m-34.717 229.491h12.051M190.254 88.184h8.035m74.588 93.318h4.546m-27.267 72.748h22.721m-34.216-72.748h11.495m-17.152 0h5.657m-23.604 72.748h17.947" stroke="#A4E3FF" stroke-width="6.271" mask="url(#b)"/><path d="M204.051 326.582h4.716" stroke="#CFF3FF" stroke-width="6.271" mask="url(#b)"/><path d="M190.254 97.09h6.355m64.95 166.592h15.864m-30.407 53.993h5.659m.105-126.742h3.12m-31.78 126.742h19.775" stroke="#A4E3FF" stroke-width="6.271" mask="url(#b)"/><path d="M200.91 336.013h13.095" stroke="#CFF3FF" stroke-width="6.271" mask="url(#b)"/><path d="M196.194 263.682h4.717m-6.476-157.16h5.94m69.695 93.318h7.354m-27.271 72.749h19.918m-23.058-72.749h3.14m-39.815 72.749h11.902m-31.986-72.749h4.181m72.875 9.43h10.113m-33.014 72.75h11.489m-50.99 0h17.33" stroke="#A4E3FF" stroke-width="6.271" mask="url(#b)"/><path d="M197.24 282.02h6.289M268.57 60.416h5.096m-17.155 157.16h8.908m-23.051-157.16h14.143m-22.899 229.491h8.756m-20.008-72.331h14.295M209.34 60.416h9.977m-22.707 157.16h8.033m52.724-147.73h8.892M233.61 299.337h17.156M222.36 69.846h11.25" stroke="#CFF3FF" stroke-width="6.271" mask="url(#b)"/><path d="M207.788 227.006h14.448" stroke="#A4E3FF" stroke-width="6.271" mask="url(#b)"/><path d="M200.91 69.846h6.878m51.368 8.907h11.406m-25.544 157.16h11.492m-34.05-157.16h22.558m-32.105 157.16h9.547m-11.765-157.16h7.219m-21.304 157.16h9.084m45.071-147.729h20.42" stroke="#CFF3FF" stroke-width="6.271" mask="url(#b)"/><path d="M240.596 98.457h-3.577m32.953 0h-6.966m-7.756 9.431h-8.892m3.148 8.906h-5.27m34.205 0h-17.443m-1.383 9.431h-6.789m25.838 0h-12.01" stroke="#A4E3FF" stroke-width="6.271" mask="url(#b)"/><path d="M231.09 98.457h-5.095m31.298 0h-14.144m-.856 9.431h-8.892m45.141 0h-12.49m-25.547 8.906h-11.406m49.342 0h-23.798m-5.747 9.431h-20.421m27.158 119.119h22.868m-73.857 72.331h12.051M214.16 88.184h8.035m32.611 93.318h5.657m-38.337 72.748h17.233m-28.952 72.332h4.715M201.008 97.09h13.797" stroke="#CFF3FF" stroke-width="6.271" mask="url(#b)"/><path d="M190.254 126.225h8.778m23.204 0h-6.355m-2.729 8.907h-7.22m16.304 9.431h-8.034m8.034 8.907h-6.355m2.174 9.43h-5.94" stroke="#A4E3FF" stroke-width="6.271" mask="url(#b)"/><path d="M203.151 116.794h-9.977m18.406 9.431h-6.878m-2.906 8.907h-7.22m3.754 9.431h-8.035m21.188 8.907h-13.798m61.449 37.463h3.121m-33.662 145.08h10.766" stroke="#CFF3FF" stroke-width="6.271" mask="url(#b)"/><path d="M207.266 336.013h13.094" stroke="#A4E3FF" stroke-width="6.271" mask="url(#b)"/><path d="M202.549 263.682h4.717m49.242 8.907h19.918M236.08 199.84h17.288m-51.382 0h14.707m34.071 82.18h11.489m-33.66-72.75h22.17" stroke="#CFF3FF" stroke-width="6.271" mask="url(#b)"/><path d="M250.156 171.657h8.909m13.812-36.074h4.546m-38.762 0h11.495m-17.152 0h5.657m14.119 9.43h3.12m14.17 8.907h7.354m-30.411 0h3.14m17.157 9.431h10.113" stroke="#A4E3FF" stroke-width="6.271" mask="url(#b)"/><path d="M256.511 171.657h8.908m-43.059 0h14.295m18.151-36.074h5.657m-1.329 9.43h3.121m-26.175 8.907h17.288m-24.775 9.431h22.17m-36.231 45.919h6.355" stroke="#CFF3FF" stroke-width="6.271" mask="url(#b)"/><path d="M222.234 42.81h56.537" stroke="#46C4D1" stroke-width="7.938" mask="url(#b)"/><path d="M190.254 42.81h31.98" stroke="#3A84AD" stroke-width="7.938" mask="url(#b)"/><path d="M222.126 50.963h56.645" stroke="#95E4E8" stroke-width="6.271" mask="url(#b)"/><path fill="#98BA2D" mask="url(#b)" d="M264.44 322.17h-.063z"/><path fill="#36B6DD" mask="url(#b)" d="M44.294 149.348h94.398v-6.021H44.294zm0-12.042h94.398v-6.022H44.294zm.222 24.084h94.398v-6.02H44.516zm0 12.044h94.398v-6.022H44.516zm-.222 24.148h94.398v-6.021H44.294zm0-12.042h94.398v-6.022H44.294zm-.221 24.085h94.397v-6.022H44.073zm0 12.042h94.397v-6.021H44.073z"/><path fill="#2E6193" mask="url(#b)" d="M44.294 193.228h94.398v-6.021H44.294zm0-12.042h94.398v-6.022H44.294zm-.221 24.084h94.397v-6.02H44.073zm0 12.043h94.397v-6.021H44.073zm.221-72.318h94.398v-6.022H44.294zm0-12.043h94.398v-6.021H44.294zm.222 24.085h94.398v-6.021H44.516zm0 12.043h94.398v-6.022H44.516z"/><path fill="#2E6193" mask="url(#b)" d="M43.462 149.444h27.433v-6.022H43.462zm0-12.043h27.433v-6.021H43.462zm.081 24.085h27.432v-6.02H43.543zm0 12.043h27.432v-6.022H43.543zm-.081 24.148h27.433v-6.021H43.462zm0-12.042h27.433v-6.022H43.462zm-.08 24.085h27.432v-6.021H43.382zm0 12.042h27.432v-6.021H43.382z"/><path fill="#FFF" mask="url(#b)" d="M41.052 191.624h100.439v-6.021H41.052zm0 12.043h100.439v-6.022H41.052zm0-24.086h100.439v-6.021H41.052zm-.205 36.129h100.438v-6.022H40.847zm0 12.042h100.438v-6.021H40.847zm.205-84.362H141.49v-6.02H41.052zm0 12.043H141.49v-6.021H41.052zm0-24.148H141.49v-6.022H41.052zm.205 36.191h100.438v-6.022H41.257z"/><path fill="#CCB5A3" mask="url(#b)" d="M41 191.624h31.642v-6.021H41zm0 12.043h31.642v-6.022H41zm0-24.086h31.642v-6.021H41zm-.086 36.129h31.642v-6.022H40.914zm0 12.042h31.642v-6.021H40.914zM41 143.39h31.642v-6.02H41zm0 12.043h31.642v-6.021H41zm0-24.148h31.642v-6.022H41zm.085 36.191h31.643v-6.022H41.085z"/><path fill="#FFF" mask="url(#b)" d="M96.25 132.952H81.066l-3.436 4.41h15.187zm14.671 0h-8.087l-3.436 4.41h8.088zm4.022 11.96h-24.65l-3.435 4.41h24.65zm19.403 0h-8.087l-3.436 4.41h8.087zm-43.182 12.026H75.978l-3.436 4.41h15.186zm9.228 11.96h-24.65l-3.436 4.41h24.65zm28.867 0h-8.088l-3.435 4.41h8.087zm-30.015 12.075H84.06l-3.436 4.41H95.81zm18.693 11.96h-24.65l-3.436 4.41h24.65zm19.403 0h-8.088l-3.435 4.41h8.087zM94.157 204.96H78.971l-3.435 4.41h15.186zm31.233 0h-8.087l-3.435 4.41h8.087zm-22.005 11.96h-24.65l-3.436 4.41h24.65zm28.867 0h-8.087l-3.436 4.41h8.088z"/><path fill="#36B6DD" mask="url(#b)" d="M44.294 245.692h94.398v-6.022H44.294zm0-12.042h94.398v-6.022H44.294zm.222 24.084h94.398v-6.02H44.516zm0 12.043h94.398v-6.021H44.516zm-.222 24.148h94.398v-6.021H44.294zm0-12.042h94.398v-6.022H44.294zm-.221 24.085h94.397v-6.021H44.073zm0 12.042h94.397v-6.021H44.073z"/><path fill="#2E6193" mask="url(#b)" d="M44.294 289.572h94.398v-6.022H44.294zm0-12.042h94.398v-6.022H44.294zm-.221 24.084h94.397v-6.021H44.073zm0 12.043h94.397v-6.022H44.073zm.221-72.319h94.398v-6.022H44.294zm0-12.043h94.398v-6.02H44.294zm.222 24.085h94.398v-6.021H44.516zm0 12.043h94.398v-6.021H44.516z"/><path fill="#2E6193" mask="url(#b)" d="M43.462 245.787h27.433v-6.021H43.462zm0-12.042h27.433v-6.022H43.462zm.081 24.085h27.432v-6.022H43.543zm0 12.042h27.432v-6.021H43.543zm-.081 24.148h27.433V288H43.462zm0-12.042h27.433v-6.021H43.462zm-.08 24.085h27.432v-6.02H43.382zm0 12.043h27.432v-6.022H43.382z"/><path fill="#FFF" mask="url(#b)" d="M41.052 287.967h100.439v-6.02H41.052zm0 12.043h100.439v-6.021H41.052zm0-24.085h100.439v-6.022H41.052zm-.205 36.128h100.438v-6.022H40.847zm0 12.042h100.438v-6.02H40.847zm.205-84.361H141.49v-6.021H41.052zm0 12.043H141.49v-6.022H41.052zm0-24.149H141.49v-6.022H41.052zm.205 36.192h100.438v-6.022H41.257z"/><path fill="#CCB5A3" mask="url(#b)" d="M41 287.967h31.642v-6.02H41zm0 12.043h31.642v-6.021H41zm0-24.085h31.642v-6.022H41zm-.086 36.128h31.642v-6.022H40.914zm0 12.042h31.642v-6.02H40.914zM41 239.734h31.642v-6.021H41zm0 12.043h31.642v-6.022H41zm0-24.149h31.642v-6.022H41zm.085 36.192h31.643v-6.022H41.085z"/><path fill="#FFF" mask="url(#b)" d="M96.25 229.295H81.066l-3.436 4.41h15.187zm14.671 0h-8.087l-3.436 4.41h8.088zm4.022 11.96h-24.65l-3.435 4.41h24.65zm19.403 0h-8.087l-3.436 4.41h8.087zm-43.182 12.026H75.978l-3.436 4.41h15.186zm9.228 11.96h-24.65l-3.436 4.41h24.65zm28.867 0h-8.088l-3.435 4.41h8.087zm-30.015 12.076H84.06l-3.436 4.41H95.81zm18.693 11.96h-24.65l-3.436 4.41h24.65zm19.403 0h-8.088l-3.435 4.41h8.087zm-43.183 12.026H78.971l-3.435 4.41h15.186zm31.233 0h-8.087l-3.435 4.41h8.087zm-22.005 11.96h-24.65l-3.436 4.41h24.65zm28.867 0h-8.087l-3.436 4.41h8.088z"/><path fill="#A4E3FF" mask="url(#b)" d="M417.747 267.316h22.6v-2.447h-22.6zm2.431 3.914h7.29v-2.446h-7.29zm-19.981 0h12.728v-2.446h-12.728zm3.013-70.65h18.399v-2.448h-18.4zm.002 4.145h11.913v-2.448h-11.913zm25.064 0h13.691v-2.448h-13.691z"/><path fill="#CFF3FF" mask="url(#b)" d="M407.922 267.316h18.63v-2.447h-18.63z"/><path fill="#22557F" mask="url(#b)" d="M424.306 192.304v-4.739h-99.083v4.739h1.653v9.898h-1.653v2.995h1.653v10.346h-1.653v2.995h1.653v10.394h-1.653v2.995h1.653v9.954h-1.653v2.994h1.653v10.395h-1.653v2.995h1.653v10.346h-1.653v2.994h1.653V282h-1.653v2.995h1.653v10.174h-1.653v2.995h1.653v13.285h95.777v-13.285h1.653v-2.995h-1.653v-10.174h1.653V282h-1.653v-10.395h1.653v-2.994h-1.653v-10.346h1.653v-2.995h-1.653v-10.395h1.653v-2.994h-1.653v-9.954h1.653v-2.995h-1.653v-10.394h1.653v-2.995h-1.653v-10.346h1.653v-2.995h-1.653v-9.898z"/><path fill="#CFF3FF" mask="url(#b)" d="M410.354 271.23h7.29v-2.446h-7.29zm8.098-66.505h9.721v-2.448h-9.721z"/><path fill="#CCB5A3" mask="url(#b)" d="M433.16 185.318h-95.777v10.394h-1.653v2.995h1.653v10.346h-1.653v2.995h1.653v10.394h-1.653v2.995h1.653v9.954h-1.653v2.995h1.653v10.394h-1.653v2.995h1.653v10.346h-1.653v2.995h1.653v10.394h-1.653v2.996h1.653v10.174h-1.653v2.995h1.653v13.284h95.777v-13.284h1.653v-2.995h-1.653v-10.174h1.653v-2.996h-1.653v-10.394h1.653v-2.995h-1.653v-10.346h1.653v-2.995h-1.653v-10.394h1.653v-2.995h-1.653v-9.954h1.653v-2.995h-1.653v-10.394h1.653v-2.995h-1.653v-10.346h1.653v-2.995h-1.653z"/><path fill="#CCB5A3" mask="url(#b)" d="M335.73 185.814h99.083v-4.739H335.73z"/><path fill="#FFF" mask="url(#b)" d="M357.316 305.299h85.858V185.658h-85.858z"/><path fill="#36B6DD" mask="url(#b)" d="M363.301 196.052h5.904v-10.394h-5.904z"/><path fill="#38C7E8" mask="url(#b)" d="M374.633 196.052h5.903v-10.394h-5.903z"/><path fill="#36B6DD" mask="url(#b)" d="M385.963 196.052h5.904v-10.394h-5.904zm11.33 0h5.904v-10.394h-5.904zm11.33 0h5.904v-10.394h-5.904z"/><path fill="#57DFFF" mask="url(#b)" d="M419.954 196.052h5.904v-10.394h-5.904z"/><path fill="#36B6DD" mask="url(#b)" d="M431.285 196.052h5.904v-10.394h-5.904zm0 13.389h5.903v-10.394h-5.903z"/><path fill="#38C7E8" mask="url(#b)" d="M419.954 209.441h5.904v-10.394h-5.904z"/><path fill="#36B6DD" mask="url(#b)" d="M408.623 209.441h5.904v-10.394h-5.904z"/><path fill="#00CFFF" mask="url(#b)" d="M397.293 209.441h5.904v-10.394h-5.904z"/><path fill="#36B6DD" mask="url(#b)" d="M385.963 209.441h5.903v-10.394h-5.903z"/><path fill="#57DFFF" mask="url(#b)" d="M374.633 209.441h5.903v-10.394h-5.903z"/><path fill="#36B6DD" mask="url(#b)" d="M363.301 209.441h5.904v-10.394h-5.904zm0 13.341h5.904v-10.394h-5.904zm11.332 0h5.903v-10.394h-5.903z"/><path fill="#38C7E8" mask="url(#b)" d="M385.963 222.782h5.904v-10.394h-5.904z"/><path fill="#36B6DD" mask="url(#b)" d="M397.293 222.782h5.904v-10.394h-5.904zm11.33 0h5.904v-10.394h-5.904zm11.331 0h5.904v-10.394h-5.904zm11.331 0h5.904v-10.394h-5.904zm0 13.39h5.903v-10.394h-5.903z"/><path fill="#38C7E8" mask="url(#b)" d="M419.954 236.172h5.904v-10.394h-5.904zm-11.331 0h5.904v-10.394h-5.904z"/><path fill="#36B6DD" mask="url(#b)" d="M397.293 236.172h5.904v-10.394h-5.904zm-11.33 0h5.903v-10.394h-5.903zm-11.33 0h5.903v-10.394h-5.903z"/><path fill="#57DFFF" mask="url(#b)" d="M363.301 236.172h5.904v-10.394h-5.904z"/><path fill="#36B6DD" mask="url(#b)" d="M363.301 249.095h5.904v-10.394h-5.904z"/><path fill="#38C7E8" mask="url(#b)" d="M374.633 249.095h5.903v-10.394h-5.903z"/><path fill="#36B6DD" mask="url(#b)" d="M385.963 249.095h5.904v-10.394h-5.904zm11.33 0h5.904v-10.394h-5.904zm11.33 0h5.904v-10.394h-5.904z"/><path fill="#57DFFF" mask="url(#b)" d="M419.954 249.095h5.904v-10.394h-5.904z"/><path fill="#36B6DD" mask="url(#b)" d="M431.285 249.095h5.904v-10.394h-5.904zm0 13.39h5.903V252.09h-5.903z"/><path fill="#38C7E8" mask="url(#b)" d="M419.954 262.485h5.904V252.09h-5.904z"/><path fill="#36B6DD" mask="url(#b)" d="M408.623 262.485h5.904V252.09h-5.904z"/><path fill="#00CFFF" mask="url(#b)" d="M397.293 262.485h5.904V252.09h-5.904z"/><path fill="#36B6DD" mask="url(#b)" d="M385.963 262.485h5.903V252.09h-5.903z"/><path fill="#57DFFF" mask="url(#b)" d="M374.633 262.485h5.903V252.09h-5.903z"/><path fill="#36B6DD" mask="url(#b)" d="M363.301 262.485h5.904V252.09h-5.904zm0 13.341h5.904V265.43h-5.904zm11.332 0h5.903V265.43h-5.903z"/><path fill="#38C7E8" mask="url(#b)" d="M385.963 275.826h5.904V265.43h-5.904z"/><path fill="#36B6DD" mask="url(#b)" d="M397.293 275.826h5.904V265.43h-5.904zm11.33 0h5.904V265.43h-5.904zm11.331 0h5.904V265.43h-5.904zm11.331 0h5.904V265.43h-5.904z"/><path fill="#FFF" mask="url(#b)" d="M355.662 199.047h89.165v-2.995h-89.165zm0 26.731h89.165v-2.996h-89.165zm0-39.964h89.165v-4.739h-89.165zm0 26.574h89.165v-2.995h-89.165zm0 39.727h89.165v-2.995h-89.165zm0-13.39h89.165v-2.995h-89.165zm0 26.731h89.165v-2.995h-89.165z"/><path fill="#2469CE" mask="url(#b)" d="M357.316 188.653h85.875v-2.995h-85.875zm0 13.487h85.875v-2.994h-85.875zm0 13.243h85.875v-2.995h-85.875zm0 13.487h85.875v-2.994h-85.875zm0 12.851h85.875v-2.995h-85.875zm0 13.489h85.875v-2.996h-85.875zm0 13.241h85.875v-2.995h-85.875z"/><path fill="#A4E3FF" mask="url(#b)" d="M283.553 291.4h22.6v-2.446h-22.6zm2.432 3.916h7.29v-2.447h-7.29zm-19.981 0h12.728v-2.447h-12.728zm3.011-70.651h18.4v-2.448h-18.4zm.004 4.145h11.913v-2.448h-11.913zm25.064 0h13.691v-2.448h-13.691z"/><path fill="#CFF3FF" mask="url(#b)" d="M273.729 291.4h18.63v-2.446h-18.63z"/><path fill="#22557F" mask="url(#b)" d="M290.113 216.388v-4.738h-75.57v4.738h1.653v9.898h-1.653v2.996h1.653v10.345h-1.653v2.995h1.653v10.395h-1.653v2.995h1.653v9.953h-1.653v2.995h1.653v10.395h-1.653v2.995h1.653v10.345h-1.653v2.995h1.653v10.395h-1.653v2.995h1.653v10.174h-1.653v2.995h1.653v13.284h72.263V322.25h1.654v-2.995h-1.654V309.08h1.654v-2.995h-1.654V295.69h1.654v-2.995h-1.654V282.35h1.654v-2.995h-1.654V268.96h1.654v-2.995h-1.654v-9.953h1.654v-2.995h-1.654v-10.395h1.654v-2.995h-1.654v-10.345h1.654v-2.996h-1.654v-9.898z"/><path fill="#CFF3FF" mask="url(#b)" d="M276.161 295.316h7.29v-2.447h-7.29zm8.097-66.506h9.722v-2.448h-9.722z"/><path fill="#CCB5A3" mask="url(#b)" d="M298.967 209.403h-72.264v10.394h-1.652v2.995h1.652v10.346h-1.652v2.995h1.652v10.394h-1.652v2.995h1.652v9.953h-1.652v2.995h1.652v10.394h-1.652v2.996h1.652v10.345h-1.652v2.995h1.652v10.395h-1.652v2.995h1.652v10.174h-1.652v2.995h1.652v13.285h72.264v-13.285h1.653v-2.995h-1.653V302.59h1.653v-2.995h-1.653V289.2h1.653v-2.995h-1.653V275.86h1.653v-2.996h-1.653V262.47h1.653v-2.995h-1.653v-9.953h1.653v-2.995h-1.653v-10.394h1.653v-2.995h-1.653v-10.346h1.653v-2.995h-1.653z"/><path fill="#CCB5A3" mask="url(#b)" d="M225.05 209.899h75.57v-4.739h-75.57z"/><path fill="#FFF" mask="url(#b)" d="M246.636 329.383h62.345V209.742h-62.345z"/><path fill="#36B6DD" mask="url(#b)" d="M251.77 220.137h5.903v-10.395h-5.904zm11.33 0h5.904v-10.395H263.1zm11.33 0h5.904v-10.395h-5.904z"/><path fill="#57DFFF" mask="url(#b)" d="M285.761 220.137h5.904v-10.395h-5.904z"/><path fill="#36B6DD" mask="url(#b)" d="M297.091 220.137h5.904v-10.395h-5.904zm0 13.389h5.904v-10.394h-5.904z"/><path fill="#38C7E8" mask="url(#b)" d="M285.761 233.526h5.904v-10.394h-5.904z"/><path fill="#36B6DD" mask="url(#b)" d="M274.43 233.526h5.904v-10.394h-5.904z"/><path fill="#00CFFF" mask="url(#b)" d="M263.1 233.526h5.903v-10.394H263.1z"/><path fill="#36B6DD" mask="url(#b)" d="M251.77 233.526h5.903v-10.394h-5.904z"/><path fill="#38C7E8" mask="url(#b)" d="M251.77 246.867h5.903v-10.394h-5.904z"/><path fill="#36B6DD" mask="url(#b)" d="M263.1 246.867h5.904v-10.394H263.1zm11.33 0h5.904v-10.394h-5.904zm11.331 0h5.904v-10.394h-5.904zm11.33 0h5.904v-10.394h-5.904zm0 13.389h5.904v-10.394h-5.904z"/><path fill="#38C7E8" mask="url(#b)" d="M285.761 260.256h5.904v-10.394h-5.904zm-11.331 0h5.904v-10.394h-5.904z"/><path fill="#36B6DD" mask="url(#b)" d="M263.1 260.256h5.903v-10.394H263.1zm-11.33 0h5.903v-10.394h-5.904zm0 12.924h5.903v-10.394h-5.904zm11.33 0h5.904v-10.394H263.1zm11.33 0h5.904v-10.394h-5.904z"/><path fill="#57DFFF" mask="url(#b)" d="M285.761 273.18h5.904v-10.394h-5.904z"/><path fill="#36B6DD" mask="url(#b)" d="M297.091 273.18h5.904v-10.394h-5.904zm0 13.39h5.904v-10.395h-5.904z"/><path fill="#38C7E8" mask="url(#b)" d="M285.761 286.57h5.904v-10.395h-5.904z"/><path fill="#36B6DD" mask="url(#b)" d="M274.43 286.57h5.904v-10.395h-5.904z"/><path fill="#00CFFF" mask="url(#b)" d="M263.1 286.57h5.903v-10.395H263.1z"/><path fill="#36B6DD" mask="url(#b)" d="M251.77 286.57h5.903v-10.395h-5.904z"/><path fill="#38C7E8" mask="url(#b)" d="M251.77 299.91h5.903v-10.394h-5.904z"/><path fill="#36B6DD" mask="url(#b)" d="M263.1 299.91h5.904v-10.394H263.1zm11.33 0h5.904v-10.394h-5.904zm11.331 0h5.904v-10.394h-5.904zm11.33 0h5.904v-10.394h-5.904z"/><path fill="#FFF" mask="url(#b)" d="M244.983 223.132h65.651v-2.995h-65.65zm0 26.73h65.651v-2.995h-65.65zm0-13.389h65.651v-2.996h-65.65zm0 39.727h65.651v-2.995h-65.65zm0-13.39h65.651v-2.995h-65.65zm0 26.73h65.651v-2.995h-65.65z"/><path fill="#2469CE" mask="url(#b)" d="M246.636 212.738h62.362v-2.996h-62.362zm29.491 13.488h-29.49v-2.996h62.362v2.996zm-29.491 13.242h62.362v-2.995h-62.362zm0 13.488h62.362v-2.995h-62.362zm0 12.849h62.362v-2.995h-62.362zm0 13.488h62.362v-2.995h-62.362zm0 13.242h62.362v-2.995h-62.362z"/><path fill="#FFF" mask="url(#b)" d="M244.983 209.899h65.651v-4.739h-65.65z"/><path fill="#A4E3FF" mask="url(#b)" d="M332.866 277.827h17.08v-2.83h-17.08z"/><path fill="#CFF3FF" mask="url(#b)" d="M321.505 277.827h12.489v-2.83h-12.49z"/><path fill="#FFF" mask="url(#b)" d="M245.127 278.396h103.11v-3.463h-103.11z"/></g><path fill="#2F8C45" d="M0 322.053h480v-52.896H0z"/><path fill="#2E8C45" d="M0 271.993h480V262.7H0z"/><path d="M55.86 259.585c0 1.295-.167 2.55-.48 3.747H14.633a11.614 11.614 0 0 1 .758-4.798 11.66 11.66 0 0 1 13.402-7.201 14.774 14.774 0 0 1 12.274-6.537c8.17 0 14.792 6.622 14.792 14.79m102.652-.001c0 1.295-.166 2.55-.48 3.747h-40.746a11.614 11.614 0 0 1 .758-4.798 11.66 11.66 0 0 1 13.402-7.201 14.774 14.774 0 0 1 12.274-6.537c8.17 0 14.792 6.622 14.792 14.79" fill="#2E8C45"/><path d="M50.937 260.956c0 .822.106 1.617.306 2.376h25.834a7.366 7.366 0 0 0-.481-3.043 7.394 7.394 0 0 0-8.497-4.565 9.37 9.37 0 0 0-7.783-4.145c-5.18 0-9.379 4.199-9.379 9.377" fill="#2E8C45"/><path fill="#2C6026" d="M0 322.053h480v-6.849H0zm197.293-30.196c0 2.145-11.57 3.884-25.841 3.884-14.272 0-25.841-1.739-25.841-3.884 0-2.145 11.57-3.884 25.84-3.884 14.273 0 25.842 1.739 25.842 3.884"/><g transform="translate(118.4 123.502)"><mask id="d" fill="#fff"><use xlink:href="#c"/></mask><path d="M11.839 50.727c0 4.123.443 8.129 1.274 11.965-7.93 8.227-12.898 20-12.898 33.075 0 24.875 17.971 45.04 40.14 45.04a36.233 36.233 0 0 0 14.52-3.039c2.73.5 5.532.764 8.389.764 6.978 0 13.631-1.555 19.705-4.367.525.028 1.051.046 1.582.046 18.922 0 34.262-17.213 34.262-38.444 0-6.434-1.416-12.493-3.906-17.821-.558-14.316-5.742-27.284-13.914-37.07C96.908 17.702 78.696.228 56.845.228 31.99.228 11.84 22.838 11.84 50.727" mask="url(#d)"/></g><path d="M177.914 207.27v81.02" stroke="#562723" stroke-width="17.728" stroke-linecap="round"/><path d="M177.81 257.74l14.374-24.578" stroke="#562723" stroke-width="9.455"/><path d="M222.313 196.138a26.568 26.568 0 0 0 1.752-9.544c0-8.475-3.898-15.923-9.789-20.223-1.203-19.65-15.787-35.172-33.605-35.172-17.356 0-31.644 14.728-33.485 33.653-9.27 6.734-15.406 18.439-15.406 31.752 0 20.876 15.083 37.8 33.687 37.8 9.598 0 18.252-4.51 24.387-11.736 2.29 10.718 10.88 18.686 21.134 18.686 12.006 0 21.74-10.921 21.74-24.392 0-8.816-4.17-16.538-10.415-20.824" fill="#49843D"/><path d="M200.286 150.815c-3.057-9.648-11.195-17.137-21.19-19.043-3.606-.688-5.15 4.838-1.524 5.53 8.037 1.533 14.697 7.186 17.184 15.038 1.111 3.505 6.65 2.007 5.53-1.525m4.825 14.428l-.58-2.866c-.297-1.473-2.124-2.457-3.526-2.003-1.563.506-2.323 1.95-2.003 3.528l.58 2.866c.297 1.472 2.124 2.456 3.527 2.002 1.562-.505 2.322-1.949 2.002-3.527" fill="#77A33E"/><path d="M117.363 306.397c0 2.01-12.578 3.64-28.093 3.64-15.514 0-28.092-1.63-28.092-3.64 0-2.011 12.578-3.641 28.092-3.641 15.515 0 28.093 1.63 28.093 3.64" fill="#2C6026"/><g transform="translate(33.6 166.169)"><mask id="f" fill="#fff"><use xlink:href="#e"/></mask><path d="M37.599 17.744C16.894 19.281.525 38.607.525 62.227c0 22.796 15.247 41.594 34.923 44.259 6.003 3.688 12.893 5.785 20.22 5.785 10.308 0 19.75-4.152 27.077-11.045 21.101-4.803 36.985-25.733 36.985-50.828C119.73 21.755 99.036.393 73.508.393c-14.498 0-27.434 5.633-35.91 17.351" mask="url(#f)"/></g><path d="M100.358 222.012v81.018" stroke="#562723" stroke-width="17.728" stroke-linecap="round"/><path d="M98.924 274.947l-17.109-29.82" stroke="#562723" stroke-width="9.455"/><path d="M145.503 222.942c6.028-23.174-4.42-44.127-25.074-49.5-14.966-3.892-31.85.428-41.533 13.125-13.703 2.064-25.949 13.17-30.03 28.857-5.279 20.296 4.156 36.276 22.245 40.98 9.294 2.418 24.086-.382 28.673-5.351 16.822 8.028 39.832-5.48 45.719-28.11" fill="#49843D"/><path d="M126.286 185.788a21.788 21.788 0 0 0-14.81-11.275c-3.6-.76-5.14 4.768-1.524 5.53 5.027 1.06 9.016 4.077 11.382 8.64 1.7 3.277 6.651.38 4.952-2.895m7.15 11.928c-1-1.124-3.05-1.096-4.055 0-1.094 1.192-1.065 2.836-.017 4.033.063.097.124.195.178.297l.01.016.016.079c.03.101.056.203.075.307l.003.011a3.96 3.96 0 0 1-.031.341c.007-.046.02-.137.044-.279l.001.007c-.225 1.466.398 3.125 2.006 3.492 1.38.314 3.27-.42 3.527-2.003.386-2.36-.152-4.498-1.757-6.3" fill="#77A33E"/><path d="M322.609 307.092h-4.34" fill="#33312A"/><path d="M128.529 246.322c-3.116-.737-6.088 1.046-6.088 1.046s2.079 2.976 5.194 3.713c3.116.736 6.088-1.047 6.088-1.047s-2.08-2.976-5.194-3.712m-5.438 3.518c-1.712-3.012-4.927-4.146-4.927-4.146s-.439 3.75 1.273 6.761c1.713 3.012 4.927 4.146 4.927 4.146s.44-3.75-1.273-6.761m104.469-48.074c-3.13.655-6.064-1.204-6.064-1.204s2.14-2.921 5.269-3.577c3.13-.655 6.064 1.204 6.064 1.204s-2.14 2.921-5.269 3.577" fill="#49843D"/><path d="M226.417 196.276c-1.774 2.966-5.011 4.017-5.011 4.017s-.362-3.76 1.412-6.726c1.774-2.967 5.01-4.018 5.01-4.018s.363 3.76-1.41 6.727" fill="#49843D"/><path stroke="#4B4332" stroke-width="6.696" d="M319.134 291.296l13.925 24.941 14.856-24.94"/><g transform="translate(318.933 243.502)"><mask id="h" fill="#fff"><use xlink:href="#g"/></mask><path d="M.2 28.842c0 15.895 12.886 28.78 28.782 28.78 15.895 0 28.781-12.885 28.781-28.78C57.763 12.946 44.877.06 28.982.06 13.086.06.2 12.946.2 28.842" mask="url(#h)"/></g><path d="M320.56 267.27c0 13.965 11.321 21.364 25.287 21.364 13.965 0 25.286-7.399 25.286-21.364 0-13.966-11.321-25.287-25.286-25.287-13.966 0-25.287 11.32-25.287 25.287" fill="#49843D"/><g transform="translate(284.8 230.169)"><mask id="j" fill="#fff"><use xlink:href="#i"/></mask><path d="M.257 35.67c0 19.488 15.798 35.286 35.286 35.286S70.829 55.158 70.829 35.67C70.829 16.183 55.03.385 35.543.385S.257 16.183.257 35.67" mask="url(#j)"/></g><g transform="translate(0 -1.831)"><path d="M296.901 263.875c0 17.391 14.099 26.606 31.49 26.606 17.392 0 31.49-9.215 31.49-26.606 0-17.391-14.098-31.49-31.49-31.49-17.391 0-31.49 14.099-31.49 31.49m66.458 7.986c-3.341 5.133-2.557 11.567-2.557 11.567s6.202-1.885 9.544-7.017c3.34-5.132 2.557-11.567 2.557-11.567s-6.202 1.886-9.544 7.017" fill="#49843D"/><path d="M368.552 278.78c-6.004 1.206-10.05 6.27-10.05 6.27s5.688 3.11 11.692 1.904c6.004-1.207 10.05-6.271 10.05-6.271s-5.688-3.11-11.692-1.903" fill="#49843D"/><path d="M292.61 279.675c5.616 3.524 7.768 10.204 7.768 10.204s-6.951.965-12.566-2.56c-5.615-3.526-7.768-10.205-7.768-10.205s6.952-.964 12.567 2.56m30.782 17.957c6.448-1.542 12.725 1.597 12.725 1.597s-4.177 5.639-10.625 7.181c-6.448 1.543-12.725-1.597-12.725-1.597s4.177-5.639 10.625-7.181" fill="#2A593B"/><path d="M345.922 246.271c-3.415-3.492-7.435-6.212-11.963-8.048-4.17-1.691-9.551-3.24-13.96-1.658-3.448 1.238-1.961 6.781 1.524 5.53 3.4-1.221 7.811.328 10.98 1.697 3.555 1.534 6.665 3.775 9.364 6.534 2.584 2.644 6.638-1.413 4.055-4.055m11.063 6.425c-1.55-1.372-3.625-1.973-5.646-1.366-1.435.43-2.487 2.03-2.002 3.527.469 1.45 1.988 2.465 3.527 2.003.042-.014.085-.022.128-.034l.015.004c.033.02.068.035.1.056l-.036-.03c1.13.894 2.866 1.037 3.914-.105.998-1.088 1.199-2.993 0-4.055" fill="#77A33E"/><path d="M175.543 249.337l-6.445-7.232" stroke="#562723" stroke-width=".919"/><path d="M51.335 218.656c2.41 2.335 2.945 6.069 2.945 6.069s-3.37-.053-5.778-2.389c-2.41-2.335-2.946-6.069-2.946-6.069s3.37.054 5.78 2.389" fill="#49843D"/><path d="M49.74 223.374c3.172-.296 5.924 1.888 5.924 1.888s-2.393 2.663-5.566 2.959c-3.173.295-5.925-1.888-5.925-1.888s2.394-2.664 5.566-2.96m95.446-63.8c2.41 2.335 2.946 6.069 2.946 6.069s-3.37-.054-5.78-2.39c-2.409-2.335-2.945-6.068-2.945-6.068s3.37.053 5.78 2.389" fill="#49843D"/><path d="M143.59 164.29c3.172-.295 5.923 1.889 5.923 1.889s-2.392 2.663-5.565 2.958c-3.173.296-5.925-1.888-5.925-1.888s2.393-2.663 5.566-2.958" fill="#49843D"/><mask id="l" fill="#fff"><use xlink:href="#k"/></mask><path fill="#9B9778" mask="url(#l)" d="M0 361.6h480v-37.715H0z"/><path d="M352.333 350.006h-8.688c-3.499 0-3.499-5.426 0-5.426h8.688c3.498 0 3.498 5.426 0 5.426m57.567 0h-39.718c-3.499 0-3.499-5.426 0-5.426H409.9c3.5 0 3.5 5.426 0 5.426m-314.323 2.416h-8.688c-3.498 0-3.498-5.425 0-5.425h8.688c3.499 0 3.499 5.425 0 5.425m57.567 0h-39.718c-3.499 0-3.499-5.425 0-5.425h39.718c3.498 0 3.498 5.425 0 5.425m244.071-11.81h-8.687c-3.5 0-3.5-5.426 0-5.426h8.687c3.499 0 3.499 5.426 0 5.426" fill="#B7B191" mask="url(#l)"/><path d="M84.874 336.176h51.612c3.491 0 3.497-5.425 0-5.425H84.874c-3.491 0-3.497 5.425 0 5.425" fill="#565441" mask="url(#l)"/><path fill="#C1B2A3" mask="url(#l)" d="M109.081 293.763h23.233v-7.148H109.08z"/><path fill="#B78F63" mask="url(#l)" d="M103.789 332.18h33.817v-41.417H103.79z"/><path fill="#775A39" mask="url(#l)" d="M110.316 332.18h6.528v-41.417h-6.528zm14.346 0h6.527v-41.417h-6.527z"/><path d="M457.703 310.422c0 2.526-.325 4.974-.938 7.31h-79.492c-.02-.397-.03-.8-.03-1.201 0-2.877.536-5.63 1.51-8.16 3.278-8.533 11.552-14.584 21.239-14.584 1.685 0 3.325.185 4.907.535 4.588-6.814 12.007-11.563 20.57-12.557a29.211 29.211 0 0 1 3.376-.196c15.939 0 28.858 12.918 28.858 28.853" fill="#2A593B" mask="url(#l)"/><path d="M453.85 296.343c-4.206 9.243-13.867 15.713-25.12 15.713a28.306 28.306 0 0 1-13.682-3.495 28.326 28.326 0 0 1-13.687 3.495c-5.119 0-9.908-1.34-14.006-3.686 3.278-8.531 11.552-14.584 21.239-14.584 1.685 0 3.325.186 4.907.536 4.588-6.814 12.007-11.562 20.57-12.557 8.83 1.098 16.233 6.773 19.78 14.578" fill="#49843D" mask="url(#l)"/><path d="M420.645 261.417c0 1.294.167 2.55.48 3.746h40.746a11.614 11.614 0 0 0-.758-4.798 11.66 11.66 0 0 0-13.402-7.2 14.774 14.774 0 0 0-12.274-6.538c-8.17 0-14.792 6.622-14.792 14.79" fill="#2E8C45" mask="url(#l)"/><path d="M425.568 262.788c0 .821-.106 1.617-.305 2.376h-25.835a7.366 7.366 0 0 1 .481-3.043 7.394 7.394 0 0 1 8.498-4.566 9.37 9.37 0 0 1 7.782-4.145c5.18 0 9.379 4.2 9.379 9.378" fill="#2E8C45" mask="url(#l)"/><path d="M129.615 204.632c-.01.063-.007.051 0 0m312.838 84.744a16.191 16.191 0 0 0-4.592-3.606c-1.327-.698-3.178-.382-3.923 1.028-.7 1.324-.39 3.178 1.028 3.924a13.446 13.446 0 0 1 1.506.903c.042.03.205.154.28.208.592.488 1.14 1.021 1.646 1.598.994 1.13 3.053 1.09 4.055 0 1.106-1.205 1.06-2.85 0-4.055m-12.615-6.31c-.497-.497-1.313-.872-2.028-.84-.741.033-1.51.277-2.027.84-.515.561-.84 1.251-.84 2.028v.287c0 .734.32 1.507.84 2.027.497.497 1.313.872 2.027.84.742-.033 1.511-.277 2.028-.84.515-.56.84-1.25.84-2.027v-.287a2.96 2.96 0 0 0-.84-2.028" fill="#77A33E" mask="url(#l)"/><path d="M186.307 336.293h178.995c3.65 0 3.657-5.674 0-5.674H186.307c-3.652 0-3.658 5.674 0 5.674" fill="#565441" mask="url(#l)"/><path d="M209.007 333.622h-1.596a1.898 1.898 0 0 1-1.897-1.898v-21.776h5.39l.001 21.776c0 1.049-.85 1.898-1.898 1.898m109.942 0h-1.432a1.98 1.98 0 0 1-1.98-1.98v-21.695h5.391v21.695a1.98 1.98 0 0 1-1.98 1.98" fill="#3F3326" mask="url(#l)"/><path fill="#211B14" mask="url(#l)" d="M207.484 316.527h111.632v-3.782H207.484z"/><path fill="#211B14" mask="url(#l)" d="M210.905 317.466h-5.392V255.59h5.392zm110.024 0h-5.391v-65.474h5.39zm-1.811 16.156h-1.77c-1 0-1.81-.81-1.81-1.81v-.019h5.39v.018c0 1-.81 1.811-1.81 1.811m-110.024 0h-1.77c-1 0-1.81-.81-1.81-1.81v-.019h5.391v.018c0 1-.811 1.811-1.811 1.811"/><path fill="#D8783C" mask="url(#l)" d="M195.733 263.572h135.134v-13.38H195.733z"/><path fill="#FFB867" mask="url(#l)" d="M330.867 261.874H195.733v-13.38h135.134z"/><path fill="#D8783C" mask="url(#l)" d="M330.867 280.734H195.733v-13.38h135.134z"/><path fill="#EF9C58" mask="url(#l)" d="M330.867 279.035H195.733v-13.379h135.134z"/><path fill="#D8783C" mask="url(#l)" d="M330.867 296.233H195.734v-10.172h135.133z"/><path fill="#FFB867" mask="url(#l)" d="M330.867 294.535H195.734v-11.97l135.133-.001z"/><path fill="#FFC67E" mask="url(#l)" d="M195.734 303.882h135.133v-5.827H195.734z"/><path fill="#EA9348" mask="url(#l)" d="M330.867 305.486H195.734v-4.517h135.133z"/><path fill="#FFC67E" mask="url(#l)" d="M195.734 309.963h135.133v-6.08H195.734z"/><path fill="#EA9348" mask="url(#l)" d="M195.734 310.777h135.133v-3.854H195.734z"/><path d="M256.38 250.993h-5.48c-.965 0-1.852.634-2.066 1.574-.064.278-.07.548-.03.803.077.483-.322.913-.812.913h-.012c-.712 0-1.255-.584-1.275-1.296l-.002-.034c-.05-1.112-1.024-1.96-2.136-1.96h-16.732c-.988 0-1.895.661-2.089 1.63a2.056 2.056 0 0 0 2.011 2.478h1.65c.713 0 1.256.583 1.276 1.295l.002.034c.05 1.112 1.024 1.96 2.137 1.96h16.809a2.054 2.054 0 0 0 2.032-2.353.816.816 0 0 1 .807-.936h3.832c.987 0 1.895-.661 2.088-1.63a2.056 2.056 0 0 0-2.01-2.478m24.896 35.551h3.968c.699 0 1.341.459 1.498 1.14.046.2.05.397.02.581-.055.35.235.661.589.661h.009c.516 0 .909-.422.924-.938v-.024c.036-.806.742-1.42 1.548-1.42h12.12c.716 0 1.373.478 1.513 1.18a1.49 1.49 0 0 1-1.457 1.795h-1.195c-.516 0-.91.422-.924.938l-.001.025c-.036.806-.742 1.42-1.548 1.42h-12.176a1.488 1.488 0 0 1-1.472-1.705.59.59 0 0 0-.585-.678h-2.775c-.716 0-1.373-.479-1.514-1.18a1.49 1.49 0 0 1 1.458-1.795" fill="#EF9C58" mask="url(#l)"/><path d="M273.025 273.253h-2.684c-1.022 0-1.825-.8-1.924-1.817l-.004-.04c-.112-.946-.966-1.632-1.918-1.632h-16.878c-.97 0-1.835.71-1.927 1.674a1.857 1.857 0 0 0 1.847 2.039h2.764c1.022 0 1.825.8 1.924 1.817 0 .013.002.027.004.04.112.946.965 1.632 1.918 1.632h16.957a1.857 1.857 0 0 0 1.848-2.039c-.092-.965-.958-1.674-1.927-1.674" fill="#FFB867" mask="url(#l)"/><path d="M241.804 288.96h-1.7c-.648 0-1.157-.507-1.22-1.151 0-.009-.002-.017-.003-.026-.071-.6-.612-1.034-1.216-1.034H226.97c-.614 0-1.163.45-1.22 1.062a1.176 1.176 0 0 0 1.17 1.292h1.751c.648 0 1.157.506 1.22 1.151l.002.025c.071.6.612 1.034 1.216 1.034h10.746c.688 0 1.239-.59 1.171-1.291-.058-.612-.606-1.062-1.22-1.062" fill="#EF9C58" mask="url(#l)"/><path d="M319.332 288.55a1.1 1.1 0 1 1-2.2 0 1.1 1.1 0 0 1 2.2 0m0-16.204a1.1 1.1 0 1 1-2.199 0 1.1 1.1 0 0 1 2.2 0m-.001-16.756a1.1 1.1 0 1 1-2.199 0 1.1 1.1 0 0 1 2.2 0m-110.024 32.96a1.1 1.1 0 1 1-2.2 0 1.1 1.1 0 0 1 2.2 0m0-16.204a1.1 1.1 0 1 1-2.2 0 1.1 1.1 0 0 1 2.2 0m0-16.756a1.1 1.1 0 1 1-2.2 0 1.1 1.1 0 0 1 2.2 0" fill="#D87D50" mask="url(#l)"/><path d="M357.842 182.872c0 7.465-6.051 13.516-13.516 13.516-7.464 0-13.516-6.051-13.516-13.516 0-7.464 6.052-13.515 13.516-13.515 7.465 0 13.516 6.05 13.516 13.515" fill="#FFD93B" mask="url(#l)"/><path d="M353.786 180.827c0 5.225-4.235 4.397-9.46 4.397-5.224 0-9.46.828-9.46-4.397a9.46 9.46 0 0 1 18.92 0" fill="#FFE576" mask="url(#l)"/><path fill="#38300E" mask="url(#l)" d="M335.688 171.906h17.276v-5.098h-17.276z"/><path d="M369.516 310.07V162.875c0-6.36-5.175-11.536-11.536-11.536h-.277c-6.36 0-11.536 5.176-11.536 11.536v6.32h-4.34v-6.32c0-8.754 7.122-15.876 15.876-15.876h.277c8.755 0 15.877 7.122 15.877 15.876v147.197" fill="#33312A" mask="url(#l)"/><path fill="#33312A" mask="url(#l)" d="M368.011 219.997h7.398v-5.2h-7.398zm-6.716 71.204h20.829v-12.089h-20.83z"/><path fill="#33312A" mask="url(#l)" d="M361.294 332.64h20.83v-42.16h-20.83z"/><path fill="#33312A" mask="url(#l)" d="M356.62 336.05h30.18v-7.027h-30.18z"/><path d="M378.58 279.113v36.673a3.432 3.432 0 0 1-3.43 3.43 3.431 3.431 0 0 1-3.429-3.43v-36.673h6.859z" fill="#88D9E2" mask="url(#l)"/></g></g></svg>