<svg width="120" height="120" viewBox="0 0 120 120" xmlns="http://www.w3.org/2000/svg" xmlns:xlink="http://www.w3.org/1999/xlink"><defs><path id="a" d="M.771.334H85v76.643H.771z"/></defs><g fill="none" fill-rule="evenodd"><path fill="#FFC92A" d="M59.358 3L41.374 40.839l-5.602.905L0 47.482l30.436 28.797-6.472 41.387 36.8-20.038 37.36 18.949-6.996-37.46-.698-3.73L120 45.696v-.001l-41.545-5.407z"/><path fill="#FDE321" d="M83.152 73.137l5.835 31.24-28.34-14.372-27.91 15.204 4.91-31.396-23.082-21.842 31.378-5.035 13.638-28.7 14.485 28.283 31.51 4.103z"/><g transform="translate(35 2.666)"><mask id="b" fill="#fff"><use xlink:href="#a"/></mask><path d="M55.431 72.72l.697 3.731a49.284 49.284 0 0 1-6.764.526h-.429c-20.956 0-38.879-13.017-46.12-31.403A48.825 48.825 0 0 1 .77 39.077l5.602-.905L24.358.333l19.096 37.288L85 43.03 55.431 72.72z" fill="#FFF" opacity=".5" mask="url(#b)"/></g></g></svg>