<svg width="120" height="120" viewBox="0 0 120 120" xmlns="http://www.w3.org/2000/svg"><g fill="none" fill-rule="evenodd"><path fill="#A7373E" d="M72.728 52.882V19.183H47.89v33.7h-6.554v37.606h37.391V52.882z"/><path d="M77.213 65.532h-6.9V58.1c0-1.931 1.557-3.497 3.477-3.497a3.433 3.433 0 0 1 3.423 3.442v7.487zm0 13.359h-6.9v-7.383c0-1.959 1.579-3.548 3.526-3.548 1.863 0 3.374 1.52 3.374 3.394v7.537zm-8.97-13.359h-6.9v-7.438a3.481 3.481 0 0 1 3.472-3.491 3.439 3.439 0 0 1 3.429 3.448v7.481zm0 13.359h-6.9v-7.36c0-1.972 1.59-3.57 3.549-3.57a3.361 3.361 0 0 1 3.352 3.37v7.56zm-8.97-13.359h-6.9v-7.444a3.476 3.476 0 0 1 3.466-3.485c1.897 0 3.435 1.547 3.435 3.454v7.475zm0 13.359h-6.9v-7.426c0-1.935 1.56-3.505 3.484-3.505a3.426 3.426 0 0 1 3.417 3.436v7.495zm-8.969-13.359h-6.9v-7.42c0-1.938 1.562-3.51 3.49-3.51 1.883 0 3.41 1.537 3.41 3.432v7.498zm0 13.359h-6.9v-7.373c0-1.964 1.584-3.558 3.537-3.558 1.857 0 3.363 1.515 3.363 3.384v7.547zm23.714-27.527V17.797c-3.122-.524-6.482-3.054-8.691-6.917a16.895 16.895 0 0 1-1.653-3.992h-7.89a16.862 16.862 0 0 1-1.724 4.245c-2.145 3.75-5.373 6.235-8.417 6.857v33.374h-5.282v68.31h38.94v-68.31h-5.283z" fill="#E48082"/><path d="M66.62 12.797c-.46-.599-.9-1.228-1.293-1.916a16.913 16.913 0 0 1-1.653-3.993h-7.889a16.828 16.828 0 0 1-1.725 4.244 17.057 17.057 0 0 1-1.098 1.665H66.62z" fill="#000" opacity=".161"/><path d="M60.733 1.22a1.046 1.046 0 0 0-.887-.497h-.019c-.367 0-.71.19-.905.506-1.53 2.473-4.473 4.693-4.473 6.518 0 .74.22 1.436.603 2.049l.02-.002h9.54a3.845 3.845 0 0 0 .6-2.047c0-1.827-2.949-4.05-4.479-6.527" fill="#E48082"/><path fill="#000" opacity=".225" d="M40.36 115.425H79.3V84.604H40.36z"/><path fill="#000" d="M40.36 86.974H79.3v-2.37H40.36z"/><path d="M69.562 98.02c0-5.587-4.504-10.115-10.057-10.115-5.556 0-10.059 4.528-10.059 10.115v21.654h20.116V98.02z" fill="#5B3939"/><path d="M57.147 101.971v3.636m4.714-3.636v3.636" stroke="#D4E5E6" stroke-width="1.084" stroke-linecap="round"/><path d="M59.504 87.905c-.226 0-.449.018-.672.034v31.734h1.344V87.94c-.223-.016-.445-.034-.672-.034" fill="#422A2A"/><path fill="#E48082" d="M37 119.674h45.574v-4.25H37z"/><path fill="#5B3939" d="M38.886 51.411h41.488v-1.264H38.886z"/><path d="M50.23 57.96a3.398 3.398 0 0 0-3.387-3.407 3.398 3.398 0 0 0-3.388 3.407v7.573h6.776V57.96zm-3.387-3.357v10.93m-3.439-3.334h6.777m-6.777-3.161h6.777m9.008-1.052c0-1.883-1.517-3.409-3.389-3.409-1.87 0-3.388 1.526-3.388 3.409v7.571h6.777v-7.571zM55.8 54.628v10.929m-3.438-3.333h6.777m-6.777-3.162h6.777" stroke="#D4E5E6" stroke-width=".542" stroke-linecap="round"/><path d="M54.268 37.181a2.905 2.905 0 0 0-2.893 2.91v6.135h5.786v-6.135a2.905 2.905 0 0 0-2.893-2.91m11.21 0a2.905 2.905 0 0 0-2.893 2.91v6.135h5.786v-6.135a2.905 2.905 0 0 0-2.893-2.91M54.422 24.226a2.905 2.905 0 0 0-2.893 2.91v6.134h5.787v-6.135a2.905 2.905 0 0 0-2.894-2.91m11.211.001a2.905 2.905 0 0 0-2.893 2.91v6.134h5.786v-6.135a2.905 2.905 0 0 0-2.893-2.91" fill="#A7373E"/><path d="M56.891 40.091a2.631 2.631 0 0 0-2.623-2.638 2.632 2.632 0 0 0-2.625 2.638v5.864h5.248V40.09zm-2.623-2.6v8.464m-2.664-2.582h5.249m-5.249-2.448h5.249m11.249-.834a2.631 2.631 0 0 0-2.623-2.638 2.631 2.631 0 0 0-2.624 2.638v5.864h5.247V40.09zm-2.624-2.6v8.464m-2.663-2.582h5.249m-5.249-2.448h5.249M57.046 27.136a2.631 2.631 0 0 0-2.624-2.64 2.632 2.632 0 0 0-2.624 2.64v5.862h5.248v-5.862zm-2.624-2.601V33m-2.662-2.583h5.247M51.76 27.97h5.247m11.249-.834a2.631 2.631 0 0 0-2.623-2.64 2.632 2.632 0 0 0-2.624 2.64v5.862h5.247v-5.862zm-2.623-2.601V33m-2.663-2.583h5.248M62.97 27.97h5.248m-.032 29.99a3.398 3.398 0 0 0-3.389-3.407 3.399 3.399 0 0 0-3.388 3.407v7.573h6.777V57.96zm-3.388-3.357v10.93m-3.439-3.334h6.777m-6.777-3.161h6.777m9.047-1.028a3.398 3.398 0 0 0-3.389-3.407 3.399 3.399 0 0 0-3.388 3.407v7.573h6.777V58.01zm-3.388-3.357v10.93m-3.439-3.334h6.777m-6.777-3.161h6.777M50.281 71.282a3.399 3.399 0 0 0-3.388-3.408 3.4 3.4 0 0 0-3.389 3.408v7.573h6.777v-7.573zm-3.388-3.358v10.93m-3.438-3.334h6.776m-6.776-3.161h6.776m9.007-1.052a3.398 3.398 0 0 0-3.388-3.408 3.398 3.398 0 0 0-3.388 3.408v7.572h6.776v-7.572zM55.85 67.95v10.929m-3.438-3.334h6.777m-6.777-3.161h6.777m9.046-1.102c0-1.882-1.516-3.408-3.388-3.408-1.87 0-3.388 1.526-3.388 3.408v7.573h6.776v-7.573zm-3.388-3.358v10.93m-3.438-3.334h6.777m-6.777-3.161h6.777m9.046-1.027c0-1.882-1.516-3.408-3.388-3.408-1.87 0-3.389 1.526-3.389 3.408v7.572h6.777v-7.572zm-3.388-3.357v10.929m-3.438-3.334h6.777m-6.777-3.161h6.777" stroke="#D4E5E6" stroke-width=".542" stroke-linecap="round"/><path fill="#D4E5E6" d="M38.886 84.604h41.488v-3.636H38.886z"/><path fill="#FFF" d="M43.434 50.147h2.404V14.9h-2.404z"/><path fill="#000" opacity=".225" d="M45.643 51.364h28.375v-4.062H45.643z"/><path fill="#000" opacity=".161" d="M43.404 23.128H76.45v-2.063H43.404z"/><path d="M46.845 14.9a2.215 2.215 0 0 1-2.209 2.222 2.215 2.215 0 0 1-2.209-2.222c0-1.227.989-2.221 2.21-2.221 1.219 0 2.208.994 2.208 2.221m26.997 35.247h2.402V14.9h-2.402z" fill="#FFF"/><path d="M77.252 14.9a2.215 2.215 0 0 1-2.209 2.222c-1.22 0-2.21-.995-2.21-2.222 0-1.227.99-2.221 2.21-2.221s2.21.994 2.21 2.221" fill="#FFF"/><path d="M54.88 9.501h9.742" stroke="#FFF" stroke-width="1.446" stroke-linecap="round"/><path fill="#5B3939" d="M42.427 21.064h34.706v-2.726H42.427z"/></g></svg>