<svg width="120" height="120" viewBox="0 0 120 120" xmlns="http://www.w3.org/2000/svg" xmlns:xlink="http://www.w3.org/1999/xlink"><defs><path id="a" d="M0 .63h54.245v41.238H0z"/><path id="c" d="M.328 1.263H18.36V9.78H.328z"/><path id="e" d="M.2.3h13.173v5.567H.2z"/></defs><g fill="none" fill-rule="evenodd"><path d="M88.173 113.72c-.13-1.034 1.077-2.812 3.277-2.57.905.1 1.815 1.017 1.257 2.122-.577 1.147-3.144.396-3.835 2.06-.057.139.34.356.32.505-.013.132-.332.297-.464.268-.149-.032-.447-.394-.447-.394l.018-.432s.085-.299.146-.43c.886-1.919 3.017-1.231 3.588-1.919.371-.45-.043-1.29-.563-1.383-1.684-.305-3.16.804-3.002 2.638-.045.006-.289-.423-.295-.466" fill="#F6B90C"/><path d="M88.467 113.674c.13-1.526 1.48-2.402 3.004-2.128h.002c-.904-.287-2.872-.063-3.149 2.07.007.037.076.051.143.058" fill="#E7A706"/><path d="M88.717 112.774a.63.63 0 0 0-.22-.27c-.241.392-.355.809-.33 1.155l.292.134c.018-.378.107-.72.258-1.019m.413 1.184a2.345 2.345 0 0 0-.685.89c-.061.133-.147.43-.147.43l-.018.43s.299.365.45.397c.13.029.448-.136.462-.27.018-.146-.376-.364-.32-.502a1.7 1.7 0 0 1 .32-.503c.11-.207.075-.68-.063-.872" fill="#E7A706"/><path d="M92.708 113.272c.055-.107.095-.213.126-.317-.563 1.489-3.332.616-3.83 1.943-.018.042-.01.103.01.16.85-1.308 3.15-.708 3.694-1.786" fill="#E7A706"/><path d="M88.867 115.341c-.154.342.092.645.254.606.041-.036.067-.075.071-.112.019-.144-.365-.358-.325-.494" fill="#C5890C"/><path d="M90.145 111.282c2.519-.504 2.813 1.099 2.539 1.808.148-.98-.453-2.082-2.54-1.808" fill="#FFD97D"/><path d="M84.448 117.22s-.766.487-1.03 1.05c.522.277 2.301.304 3.049 0-.287-.59-1.022-1.05-1.022-1.05h-.997z" fill="#E7A706"/><path d="M84.448 117.22s-.766.487-1.03 1.05c.193.102.55.17.963.2.047-.557.388-1.076.514-1.25h-.447z" fill="#F6B90C"/><path d="M84.39 117.301l-.057-.004c-.22.159-.715.543-.916.973.071.038.155.067.256.093.177-.455.717-1.062.717-1.062" fill="#FFD97D"/><path d="M85.622 117.344l-.164.073s.447.242.786.93a1.51 1.51 0 0 0 .223-.077c-.2-.405-.607-.75-.845-.926" fill="#C5890C"/><path d="M73.228 111.585l1.871-.032c2.921 1.356 5.271 3.274 6.827.714 1.134.058 5.682-.076 5.682-.076 1.83 1.076 1.503 4.928-1.148 5.213-6.973.753-7.455-3.996-13.169-5.72-.032-.048-.02-.054-.063-.099" fill="#F6B90C"/><path d="M87.608 112.192l-.922.026c.501.765.69 1.672.187 2.711-.906 1.88-5.219 1.912-9.401-1.004 2.466 1.912 4.188 3.996 8.988 3.48 2.651-.287 2.978-4.137 1.148-5.213" fill="#E7A706"/><path d="M75.918 112.103c5.076 3.262 6.088.5 6.088.5.217.211.668.216.668.216s-1.353 3.48-6.756-.716" fill="#FFD97D"/><path d="M83.115 117.08c4.138.552 5.137-1.512 5.137-1.512s-.3 2.361-5.137 1.513" fill="#C5890C"/><path d="M75.133 111.599c0-.096-.441-.175-.98-.175-.546 0-.985.08-.985.175 0 .098.44.175.986.175.538 0 .979-.077.979-.175" fill="#E7A706"/><path d="M88.473 115.911l.083-.238a.176.176 0 0 0 .022-.057c.008-.016.013-.039.019-.06.008-.04.022-.082.036-.129.012-.047.027-.094.033-.142.012-.05.018-.098.024-.147l.018-.075a.398.398 0 0 1 .01-.073 1 1 0 0 1 .02-.143c.003-.05.005-.095.011-.138.002-.043.004-.083.004-.122.006-.073.006-.138.006-.181v-.071s0 .024.004.071c0 .043.002.108 0 .181 0 .039-.004.08-.004.122-.006.043-.006.087-.01.138-.006.045-.01.096-.02.145 0 .024-.006.049-.008.075l-.013.073-.028.147c-.01.048-.026.097-.035.144a1.894 1.894 0 0 0-.04.13c-.006.019-.008.04-.019.06l-.02.056c-.057.14-.093.234-.093.234m.057-2.61l-.034-.067c-.02-.037-.045-.094-.075-.144-.015-.027-.025-.055-.037-.078a.577.577 0 0 0-.04-.067c-.021-.04-.033-.067-.033-.067l.043.061c.01.018.026.039.04.065.012.025.027.051.039.077.03.053.053.11.07.151.015.043.027.07.027.07m-.904-1.053c0-.285-1.278-.509-2.848-.509-1.576 0-2.854.224-2.854.509 0 .278 1.278.508 2.854.508 1.57 0 2.848-.23 2.848-.508" fill="#C5890C"/><path d="M82.083 112.199c-.079.217 1.315.4 2.708.405 1.371.004 2.732-.165 2.661-.405-.494-1.088-1.854-1.762-2.675-1.764-.829 0-2.202.657-2.694 1.764" fill="#F6B90C"/><path d="M84.777 110.435l-.075.002c.806.496 1.672 1.178 2.133 2.028.402-.07.648-.16.615-.266-.493-1.089-1.852-1.762-2.673-1.764" fill="#E7A706"/><path d="M82.234 112.192c.3.17.6.136.6.136.229-1.119 1.598-1.753 1.598-1.753s-1.597.4-2.198 1.617" fill="#FFD97D"/><path d="M85.21 110.183c0 .25-.206.451-.451.451a.447.447 0 0 1-.45-.451.449.449 0 1 1 .9 0" fill="#F6B90C"/><path d="M85.007 109.805c.049.074.08.16.08.253a.452.452 0 0 1-.705.374.452.452 0 1 0 .626-.626" fill="#E7A706"/><path d="M84.559 109.996c-.04.055-.096.081-.124.06-.024-.02-.014-.08.026-.135.041-.053.096-.082.124-.06.025.02.015.082-.026.135" fill="#FFD97D"/><path d="M45.005 89.419c1.128 19.27 29.232 9.708 29.082 21.71 3.371-8.226-3.44-7.82-3.854-12.023-.284-2.876 4.995-4.163 4.839-9.687L60.386 86.69l-15.38 2.728z" fill="#54A3D6"/><g transform="translate(28 47.55)"><mask id="b" fill="#fff"><use xlink:href="#a"/></mask><path d="M53.357 33.423l.002.018-.002-.018m.855 2.384c-.097-.94-.412-1.78-.86-2.425-.102-.972-1.455-13.448-4.786-17.71-1.627-2.081-7.382-5.11-7.79-5.324-1.258-.844-3.943-1.22-5.598-1.368-2.007-.27-3.655-.287-6.238-.02-1.589.16-4.15.538-5.475 1.325L12.312 14.27l-5.2-6.106c.09-.25.154-.512.197-.787.333-.606.607-1.373.774-2.219C8.51 2.943 8.034.98 7.01.781c-.55-.108-1.14.311-1.64 1.066C4.269.783 2.905.342 1.772.824.029 1.56-.52 4.19.537 6.689c.68 1.605 1.856 2.77 3.07 3.204 0 0 3.24 9.211 6.066 10.236 2.056.749 8.783-1.85 10.11-2.373-2.484 9.582-2.777 24.112-2.777 24.112h30.065s-.25-12.63-2.294-22.12c.268.432.685.99 1.241 1.773 1.607 2.278 3.116 11.912 3.116 11.912-.04.065-.073.134-.105.202-.409.4-.807.935-1.14 1.566-.873 1.647-.963 3.307-.2 3.712.403.217.972.03 1.547-.448.613 1.102 1.582 1.78 2.594 1.674 1.552-.163 2.618-2.103 2.382-4.332" fill="#70B1E1" mask="url(#b)"/></g><path d="M74.494 92.917c-5.781 3.01-23.719 2.715-29.049 0-1.501-.771-1.808-7.22-.183-6.767 6.348 1.782 23.049 1.782 29.417 0 1.627-.452 1.312 5.984-.185 6.767" fill="#E63744"/><path d="M47.124 86.573s.363.045.999.127c.16.026.335.057.528.09.189.034.394.066.616.117.215.047.45.094.692.153.248.065.502.132.766.205l.819.258.428.155c.142.055.293.102.439.167.288.12.593.236.894.378.15.071.302.136.457.212l.457.23a24.21 24.21 0 0 1 1.846 1.049c.616.38 1.231.787 1.843 1.196.609.409 1.218.82 1.828 1.204.611.384 1.227.746 1.844 1.05.15.08.309.148.461.221.08.035.152.067.232.104.073.034.152.06.225.093.157.063.309.126.46.185.15.05.302.104.454.155.148.053.297.091.445.134.073.02.146.043.217.061.037.01.074.023.106.035.039.006.075.014.112.022.292.065.564.138.839.177.136.02.27.045.4.065.128.019.256.029.38.043.126.014.247.028.367.04.118.01.232.015.346.019.11.01.217.014.325.02.05.002.103.004.15.008h.15c.195-.004.372-.004.532-.004.159.004.301-.01.425-.014.128-.01.232-.014.32-.02.172-.01.26-.017.26-.017s-.088.009-.26.019l-.32.022c-.124.006-.266.02-.425.02-.16.005-.337.007-.532.007-.049.004-.101.004-.15.004-.047-.004-.104-.004-.15-.006-.108-.007-.216-.01-.33-.015-.11-.004-.223-.006-.345-.018-.12-.01-.24-.022-.363-.035-.124-.014-.252-.024-.386-.042-.128-.019-.262-.043-.398-.065-.273-.035-.55-.108-.843-.17-.037-.011-.074-.015-.108-.028-.039-.01-.077-.018-.11-.028-.07-.023-.148-.04-.221-.061-.146-.045-.3-.082-.447-.136a40.682 40.682 0 0 1-.455-.155c-.154-.057-.3-.118-.46-.181-.074-.033-.155-.059-.23-.094-.074-.036-.153-.069-.232-.105-.153-.072-.309-.137-.463-.218a20.405 20.405 0 0 1-1.85-1.045 62.9 62.9 0 0 1-1.835-1.2c-.611-.411-1.22-.82-1.834-1.2a25.482 25.482 0 0 0-1.843-1.056c-.152-.077-.302-.155-.453-.23-.154-.075-.308-.142-.459-.213-.296-.143-.599-.26-.887-.38-.15-.066-.293-.115-.439-.167-.142-.055-.284-.106-.423-.157-.282-.092-.558-.18-.816-.262-.266-.072-.524-.14-.764-.208-.246-.06-.48-.108-.695-.16-.219-.053-.422-.088-.615-.123-.189-.036-.364-.065-.522-.095-.636-.09-1-.137-1-.137" fill="#BC1718"/><path d="M70.557 86.914s-.084.01-.238.033l-.287.038-.182.025c-.063.006-.132.022-.203.036-.145.027-.303.06-.476.092-.172.037-.355.09-.556.138-.047.012-.098.027-.147.037-.052.014-.101.032-.154.049-.102.032-.211.063-.319.1-.217.06-.443.15-.678.233l-.181.067c-.059.025-.116.047-.177.074l-.367.154c-.124.05-.246.112-.374.173-.063.028-.126.061-.19.09-.066.028-.13.06-.192.093-.254.132-.52.266-.78.417a20.63 20.63 0 0 0-.796.466c-.537.331-1.077.683-1.617 1.053-.547.375-1.1.75-1.654 1.13-.39.266-.786.528-1.188.778l-.049-.032a54.45 54.45 0 0 0 1.205-.796l1.65-1.124a45.359 45.359 0 0 1 1.628-1.05c.27-.159.53-.32.8-.462.26-.152.527-.284.783-.415a2.52 2.52 0 0 1 .195-.095c.063-.029.124-.06.189-.088.13-.057.25-.122.377-.172l.37-.153c.057-.024.116-.049.177-.073.06-.023.12-.043.176-.063.242-.084.462-.173.683-.236.112-.033.217-.063.325-.096.05-.014.097-.03.15-.043.051-.014.104-.026.15-.038.2-.045.384-.094.555-.132.175-.03.335-.06.482-.086.07-.01.14-.026.203-.036.067-.007.126-.015.182-.02.114-.015.21-.027.287-.035l.238-.03" fill="#BC1718"/><path d="M31.881 58.33c.725 2.186 2.375 5.381 2.375 5.381l2.77-.992 2.552-1.92-3.754-4.398-2.086.488s-1.706.857-1.857 1.44" fill="#F6B90C"/><path d="M36.174 56.396c-1.42.272-3.492 1.297-4.463 2.135-.162.14-.583-.742-.426-.893.82-.785 3.24-2.048 4.462-2.135.216-.016.638.852.427.893m-2.081 7.281c1.81-.526 4.247-1.934 5.438-3.016.2-.179.863.671.672.864-.991 1.011-4.062 2.889-5.563 3.139-.267.047-.803-.911-.547-.987" fill="#E7A706"/><path d="M81.3 80.02c.258-2.29.101-5.885.101-5.885l-2.933-.26-3.122.669 1.564 5.568 2.099.432s1.911-.057 2.29-.523" fill="#F6B90C"/><path d="M76.593 79.97c1.403.35 3.709.292 4.946-.062.207-.06.215.92.012.99-1.077.369-3.797.495-4.942.062-.21-.078-.228-1.044-.016-.99m4.941-5.736c-1.863-.283-4.666-.028-6.201.454-.26.08-.5-.973-.246-1.066 1.324-.5 4.895-.917 6.366-.51.26.068.35 1.163.081 1.122" fill="#E7A706"/><path d="M65.096 59.24c0 1.874-2.072 3.396-5 3.396-2.93 0-4.996-1.522-4.996-3.397 0-1.391.995-2.585 2.866-3.11a9.553 9.553 0 0 1 2.13-.236c.748 0 1.463.084 2.13.236 1.87.525 2.87 1.719 2.87 3.11m-5-4.104c-4.15 0-6.589 2.154-6.589 4.808 0 2.658 2.44 4.81 6.59 4.81 4.151 0 6.589-2.152 6.589-4.81 0-2.654-2.438-4.808-6.59-4.808" fill="#F6B90C"/><g transform="translate(58.469 .77)"><mask id="d" fill="#fff"><use xlink:href="#c"/></mask><path d="M1.073 9.78c-2.426-5.677 1.602-8.333 4.525-8.51 4.067-.24 7.469 5.07 12.762.787-2.008 2.583-3.132 4.007-8.701 2.596-5.997-1.52-7.847 1.76-5.91 5.127H1.073z" fill="#343434" mask="url(#d)"/></g><path d="M65.256 17.667l-10.34-.415s-.273-6.45 1.508-7.763c1.449-1.064 6.75-.962 7.945.323 1.472 1.58.887 7.855.887 7.855" fill="#E63744"/><path d="M58.315 57.659h3.523c1.01 0 1.826-2.164 1.826-3.155H56.49c0 .99.817 3.155 1.824 3.155" fill="#70B1E1"/><path d="M57.262 56.993l6.374-2.103.014-.015a21.61 21.61 0 0 1-3.648.308 21.55 21.55 0 0 1-3.496-.283c.067.618.35 1.476.756 2.093" fill="#3C8CBF"/><path d="M38.636 36.81a22.222 22.222 0 0 1-.24-3.246c0-11.926 9.654-21.596 21.566-21.596 11.911 0 21.566 9.67 21.566 21.596 0 1.052-.076 2.085-.222 3.1 1.245.68 2.082 1.969 2.082 3.445 0 2.193-1.842 3.969-4.113 3.969-.157 0-.309-.01-.46-.025-3.682 6.625-10.745 11.105-18.853 11.105-8.103 0-15.16-4.472-18.844-11.089-.067.005-.13.009-.2.009-2.27 0-4.115-1.776-4.115-3.969 0-1.374.73-2.587 1.833-3.298" fill="#70B1E1"/><path d="M55.311 30.65s-.503 1.803-2.082 1.446c-.772-.174-.908-1.201-3.386-.74-.779.18-2.417 1.156-2.732 1.808-.316.652-.088-2.392 2.457-3.522 1.835-.675 2.457-.642 3.977-.642s1.987.907 1.766 1.65m9.741 0s.503 1.803 2.082 1.446c.772-.174.908-1.201 3.386-.74.779.18 2.417 1.156 2.732 1.808.316.652.087-2.392-2.457-3.522-1.835-.675-2.457-.642-3.977-.642s-1.987.907-1.766 1.65M53 38c0 1.657-.895 3-2 3s-2-1.343-2-3 .895-3 2-3 2 1.343 2 3m18 0c0 1.657-.895 3-2 3s-2-1.343-2-3 .895-3 2-3 2 1.343 2 3" fill="#343434"/><path d="M60.02 41.07c.839-.115 2.96 1.756 2.96 1.756s.103-.414-.34-1.238C62.163 40.703 59.99 40 59.99 40s-1.687.448-2.487 1.604c-.296.29-.503 1.299-.503 1.299s1.895-1.681 3.02-1.834z" fill="#3C8CBF"/><g transform="translate(53 44)"><mask id="f" fill="#fff"><use xlink:href="#e"/></mask><path d="M.2.696S7.097 3.904 13.372.299c0 0-1.39 5.47-5.95 5.561-4.115.122-4.984-1.492-5.477-1.956C1.453 3.441.525 2.132.2.696" fill="#3C8CBF" mask="url(#f)"/></g><path d="M54.729 54.5s4.13.883 4.13 2.491c0 .761-2.251 1.29-2.237 2.053.012.937 3.313 1.763 3.313 1.763s-1.724-.895-1.706-1.525c.038-1.532 5.43-1.076 4.324-4.782H54.73z" fill="#343434"/><path d="M66.17 52.888c3.228-3.08 2.156-8.284 2.156-8.284s.601 9.004-8.355 9.004c-8.953 0-8.35-9.004-8.35-9.004s-1.077 5.205 2.15 8.284c-7.32-1.133-12.654-8.817-12.654-8.817s4.837 11.087 18.854 11.087c14.022 0 18.854-11.087 18.854-11.087s-5.334 7.684-12.654 8.817" fill="#343434"/></g></svg>