<svg width="120" height="120" viewBox="0 0 120 120" xmlns="http://www.w3.org/2000/svg"><path d="M12.692 99.83c11.48 4.421 26.299 6.84 41.665 7.273V120h10.477v-12.897c14.668-.433 30.008-2.853 41.488-7.273.65-.252.987-.769 1.14-1.451.151-.682-.142-1.339-.626-1.843-9.293-9.66-17.665-19.713-25.107-30.28a.589.589 0 0 1-.068-.576.59.59 0 0 1 .444-.37c3.8-.768 7.374-1.743 10.596-2.928a1.971 1.971 0 0 0 1.274-1.44 1.97 1.97 0 0 0-.508-1.857c-7.599-7.965-14.345-16.292-20.23-25.116a.587.587 0 0 1-.056-.57.586.586 0 0 1 .443-.363 48.23 48.23 0 0 0 5.728-1.49 1.972 1.972 0 0 0 1.327-1.422 1.979 1.979 0 0 0-.484-1.884c-7.772-8.286-14.097-17.2-18.959-27.107A1.984 1.984 0 0 0 59.417 0c-.79 0-1.467.422-1.816 1.133-4.862 9.906-11.188 18.821-18.959 27.107a1.971 1.971 0 0 0-.485 1.884c.175.689.65 1.2 1.326 1.423a48.374 48.374 0 0 0 5.73 1.49.59.59 0 0 1 .442.362c.08.194.06.396-.056.57-5.885 8.824-12.63 17.151-20.231 25.116a1.972 1.972 0 0 0-.507 1.856 1.97 1.97 0 0 0 1.273 1.441c3.223 1.185 6.798 2.16 10.597 2.929a.59.59 0 0 1 .445.37.592.592 0 0 1-.068.574C29.665 76.823 21.293 86.875 12 96.536" fill="#404041" fill-rule="evenodd"/></svg>