<svg xmlns="http://www.w3.org/2000/svg" width="49.65" height="16.328" viewBox="1.182 2.069 49.65 16.328"><defs><style/></defs><defs><linearGradient id="grad_1" y2="1"><stop offset="0" stop-color="#FFF" stop-opacity="0"/><stop offset="1" stop-color="#FFF"/></linearGradient><linearGradient id="grad_2" y2="1"><stop offset="0" stop-color="#FFF" stop-opacity="0"/><stop offset="1" stop-color="#FFF"/></linearGradient></defs><g id="ID0.09714182931929827" transform="matrix(.95 0 0 .95 -.55 .4)" stroke="#000" stroke-width="2" stroke-linecap="round"><path id="ID0.6471739099361002" fill="url(#grad_1)" d="M374.9 54.7c.836.02.944.057 1.15.5.64 1.408 1.017 3.006.95 4.55-.062 1.644-.244 3.548-1.375 4.742-1.025 1.072-2.598 1.289-3.875 1.258-1.817-.053-3.936-.127-5-1.5-1.664-2.149-1.497-5.21-2-7.8-.164-.724-.666-1.274.15-1.4 3.294-.531 6.648-.43 10-.35z" transform="matrix(-1.22064 0 0 1.22064 498.5 -61.35)"/><path id="ID0.6471739099361002" fill="url(#grad_2)" d="M364.25 54.8c6.9-.702 11.255-.663 14.55-.5.794.054.492.209.6.65.347 1.677.674 3.488.35 5.15-.306 1.572-.929 3.501-2.25 4.25-2.027 1.147-4.672.701-7 .5-1.296-.105-2.876-.308-3.75-1.3-1.092-1.257-1.107-3.027-1.6-4.55-.246-.838-.402-1.629-.55-2.45-.104-.585-1.194-1.548-.35-1.75z" transform="matrix(-1.22064 0 0 1.22064 477.2 -61.4)"/><path id="ID0.46460056817159057" fill="none" d="M376.75 56l4.5-.25" transform="matrix(-1.22064 0 0 1.22064 498.5 -61.35)"/><path id="ID0.9668608279898763" fill="none" d="M397.75 55l9.15-3.3" transform="matrix(-1.22064 0 0 1.22064 498.5 -61.35)"/></g></svg>