<svg width="120" height="120" viewBox="0 0 120 120" xmlns="http://www.w3.org/2000/svg" xmlns:xlink="http://www.w3.org/1999/xlink"><defs><path d="M6.89.11C1.472.865.015 11.516.015 11.516c5.463 2.117 16.27-.939 16.27-.939S12.562.073 7.415.073c-.174 0-.349.012-.525.037" id="a"/><path d="M6.89.11C1.472.865.015 11.516.015 11.516c5.463 2.117 16.27-.939 16.27-.939S12.562.073 7.415.073c-.174 0-.349.012-.525.037" id="c"/><path d="M28.589 34.575c.049.138.04.24.043.234l-.006.081-.001.01-.001.013-.001.008a.792.792 0 0 1-.075.225.789.789 0 0 1-.133.18.802.802 0 0 1-.073.068c-.195.158-.381.23-.609.314-.244.086-.54.163-.876.238a20.718 20.718 0 0 1-.553 3.668c.53.345.935 1.312.617 2.326-.359 1.143-1.532 1.911-2.153 1.714a.39.39 0 0 1-.048-.005c-1.65 3.045-4.42 5.81-9.956 6.045v2.925h-1.23v-2.926c-5.23-.24-8.201-3.022-9.868-6.118-.05.033-.152.061-.209.079-.62.197-1.776-.57-2.135-1.714-.344-1.1.172-2.144.763-2.399a22.141 22.141 0 0 1-.594-3.66 6.817 6.817 0 0 1-.536-.157 3.034 3.034 0 0 1-.383-.162c-.074-.041-.147-.078-.247-.162a.849.849 0 0 1-.168-.184.726.726 0 0 1-.126-.406c.012-.17.005-.059.009-.102 0 .003 0-.012.018-.078a.788.788 0 0 1 .055-.143c.026-.05.032-.052.05-.08a.713.713 0 0 1 .17-.176c.103-.08.177-.112.252-.148.143-.063.267-.1.389-.133a6.82 6.82 0 0 1 .693-.141c.45-.07.892-.115 1.33-.152.877-.071 1.75-.118 2.61-.147 1.72-.052 3.418-.085 5.05-.08.198-.001.416 0 .612-.002.397-1.658 1.034-3.946 2.265-5.83V0h1.23v25.685c.923-.753 1.757-1.285 2.818-1.433 4.436-.619 7.98 6.793 9.091 9.5.41.056.763.122 1.05.202.228.069.415.13.613.28.099.08.2.192.253.341z" id="e"/><path d="M1.896.984c-2.085 1.66-2.125 5.105-.09 7.694 2.036 2.59 6.093 4.225 8.178 2.565 2.085-1.66-.92-4.154-1.84-7.322C7.347 1.185 5.838.065 4.307.066c-.834 0-1.676.332-2.412.918z" id="g"/><path d="M10.08 31.989c-.008 0-.018.004-.027.006l.052-.01.006-.002c-.01.002-.019.006-.03.006zm8.432.151s-.064.025-.145.006l.017.064a.627.627 0 0 1 .128-.07zm10.93 4.318a.28.28 0 0 1 .178.266c0 .12-.068.222-.164.263-.05.433-.261.828-.71 1.184-1.21.965-3.088.816-4.848.015-.13.95-.644 1.84-1.454 2.615.612 1.372 1.77 4.143 1.393 4.67-.187.262-.632.614-1.158.922a.558.558 0 0 1-.078.316c-.505.707-2.883 2.076-3.76 1.443-.65-.47-1.392-3.24-1.723-4.808-.055.012-.2.024-.2.035v9.24h-1.539v-9.004a16.174 16.174 0 0 1-3.088.082c-.373 1.574-.98 3.643-1.535 4.042-.501.363-1.493.068-2.343-.382-.175.382-.352.67-.525.795-.876.633-3.245-.736-3.75-1.443-.406-.568.964-3.727 1.521-4.954-1.691-1.07-2.722-2.492-2.722-4.051 0-.463.094-.914.266-1.346-.2-.261-.533-.705-.823-1.14-.395.036-.912.82-.912.82-.204-.138-.068-.682-.068-.682-.17-.167-1.058.358-1.058.358-.376-.564.854-1.085.854-1.085-.171-.276-.854-.16-.854-.16.102-.607 1.058-.528 1.024-.665-.034-.137-.887-.687-.887-.687.443-.275 1.672.515 1.673.515-.13-.084-.273-.738-.294-.888.126.04.317.111.42.207a1.8 1.8 0 0 1 .33.437c.087.156.145.344.254.48.103-.111.177-.278.25-.416.4.425.19 1.091-.018 1.505.309.332.597.625.597.625.923-1.321 2.472-2.421 4.58-3.114.105-.39.122-.705.092-.794-.068-.207-.002-.367-.002-.367s1.226-1.007 1.408-.801c.166.187.695 1.252.405 1.448.924-.322 2.57-.697 4.96-.462.008-.06-.017-.118-.007-.185.031-.191.252-.346.252-.475V0h1.538v30.301c.308-.048.475-.08.565-.108.211-.067.547.792.746 1.458.063-.09.19-.227.237-.106-.078-.2-.05-.438.037-.635.036-.079.152-.154.224-.203.013-.009.344-.09.344-.064v-.31c0-.171.064-.247.142-.28-.676-.308-1.505-.865-1.09-1.652.362-.686 1.394-.126 1.874.186-.248-.175.047-.513.047-.513s-.103-.085 0-.52c.07-.296.456-.447.698-.515-.11.009-.184-.032.045-.261.334-.337.806-.124.967-.034-.092-.065-.248-.228-.097-.533.205-.412 1.153.515 1.153.515s-.129-.644 0-.747c.127-.103.614.773.614.773s-.128-.541.512-.593c.64-.051 0 .835 0 .835s.64-.14 1.05 0c.097.033.134.095.137.17.415-.363 1.095-.83 1.502-.438.258.249.208.725.053 1.196l.303-.138 1.312-.596 1.469-.666-.88.771-.698.611-.892.783-.899.788-.005.004c.195.403.37.857.52 1.37.644 2.22 2.31 4.107 2.534 5.609z" id="i"/><path d="M.417 1.86c-.683 1.375 0 7.074 0 7.074 2.322.34 6.35-.953 6.35-.953S6.154.624 5.335.211C5.174.131 4.916.093 4.6.093 3.289.093.967.753.417 1.86" id="k"/><path d="M.417 1.86c-.683 1.375 0 7.074 0 7.074 2.322.34 6.35-.953 6.35-.953S6.154.624 5.335.211C5.174.131 4.916.093 4.6.093 3.289.093.967.753.417 1.86" id="m"/><path d="M31.384 33.386c3.068 1.434 4.96 3.43 4.96 5.64 0 2.165-1.844 4.125-4.805 5.553-3.008 1.45-7.213 2.35-11.832 2.35-.298 0-.637-.004-.944-.012v6.321h-1.538V46.85c-6.46-.438-11.78-2.701-13.54-5.678.073 1.708.23 4.59-.192 5.6C2.878 48.247.417 47.24.1 46.57c-.26-.55 1.587-4.827 2.259-6.344-.67-.43-1.194-1.131-1.094-1.836.077-.543.511-.979 1.054-1.253-.31-.952-1.83-5.804-.963-6.648.96-.937 2.453-1.243 3.278-.5.685.618-.278 5.06-.627 6.559.747-1.078 1.967-2.054 3.546-2.871-.015-.014-.029-.025-.044-.04-.056-.057-.108-.105-.167-.191a2.197 2.197 0 0 1-.081-.12 1.106 1.106 0 0 1-.149-.554c.016-.21.007-.067.01-.118l.004-.016.007-.032.009-.041a1.354 1.354 0 0 1 .135-.336c.027-.039.056-.077.085-.114.062-.081.116-.125.173-.177.06-.055.11-.087.163-.125a2.83 2.83 0 0 1 .59-.293 7.31 7.31 0 0 1 1.078-.302c.459-.094.91-.165 1.358-.222.042.174.075.349.108.525.168-.03.336-.057.516-.085-.152-1.26-.232-2.738.268-2.855 0 0 3.313-1.546 4.133-.928.442.334.645 1.834.76 3.358.272-.008.717-.014.717-.018V0h1.538v30.988c.307.002.411.004.587.007-.02-.102.012-.203-.008-.306l1.052.022c0 .104.006.21.01.313.675.022 1.327.06 1.95.103-.123-1.752-.188-4 .209-4.797.683-1.375 4.097-2.046 4.917-1.633.82.413 1.434 7.803 1.434 7.803h-.001c.007 0-.11-1.188-.103-1.186.18-.055.432.444.61.382.023.04.374.449.392.493.046.095.084.52.093.584.63.221.922.353 1.479.613z" id="o"/><path d="M0 45.19h.308v-9.144S38.986 37.202 56.81 9.713c.074-.138.143-.275.216-.415l.066-.108c.123-.24.244-.48.362-.722a4.393 4.393 0 0 1-2.14-3.776c0-2.427 1.955-4.394 4.367-4.394 2.411 0 4.367 1.967 4.367 4.394 0 1.65-.905 3.085-2.241 3.837.109.222.218.442.33.661.023.036.043.072.065.108 3.646 7.046 3.652 7.051.008.008 17.703 27.913 56.826 26.74 56.826 26.74v9.144h.308v3.405h-.308v.218c0 3.216-2.261 5.843-5.229 5.843-2.967 0-5.229-2.62-5.229-5.837v-.224h-.243s-.028.11-.028.116c0 3.217-2.433 5.925-5.401 5.925-2.314 0-4.17-1.609-5.093-3.841v26.003c.307.001.411.003.587.006-.02-.102.012-.204-.008-.306l1.052.02c0 .104.006.207.01.311.675.023 1.327.056 1.95.1-.124-1.753-.188-4.008.209-4.806.497-1 2.436-1.634 3.774-1.748.222-.683.346-1.113.351-1.13l1.379.398c-.02.07-.142.494-.352 1.146.08.17.158.404.233.677.42-1.218.66-2.042.666-2.067l.394.127c-.033.115-.347 1.236-.883 2.737.475 2.29.787 6.062.789 6.085.006-.004.014-.047.02-.045.18-.055.357-.165.534-.227.023.041.045.082.063.126.046.095.06.207.069.271.628.222 1.22.463 1.777.723 3.068 1.434 4.966 3.43 4.966 5.64 0 2.164-1.844 4.125-4.804 5.552-3.008 1.45-7.213 2.35-11.832 2.35-.298 0-.637-.004-.944-.011v3.675c9.843.387 16.384.788 17.804 1.408h.343v.214c0 .047.102.095.102.143 0 .048-.102.096-.102.143v5.33c0-.003.029-.01.064-.01.962 0 1.703.784 1.703 1.752 0 1.255-1.151 1.784-1.767 2.031v4.772c0 1.329-25.158 2.388-56.134 2.388-30.977 0-56.135-1.094-56.135-2.422v-4.739c-.615-.247-1.805-.776-1.805-2.03 0-.968.814-1.752 1.776-1.752.034 0 .029.007.029.01v-5.332c0-.047-.099-.094-.099-.141 0-.048.099-.095.099-.141v-.216h.333c1.496-.62 8.587-1.077 19.353-1.468v-1.458c-5.23-.241-8.201-3.023-9.869-6.118-.05.032-.15.06-.208.078-.62.198-1.776-.57-2.135-1.714-.344-1.1.172-2.143.763-2.398a22.082 22.082 0 0 1-.61-3.863 6.24 6.24 0 0 1-.465-.132 2.745 2.745 0 0 1-.36-.148c-.066-.036-.131-.07-.214-.138a.59.59 0 0 1-.064-.06.548.548 0 0 1-.166-.39c.008-.12.004-.045.007-.077 0 0 .001-.014.014-.06a.586.586 0 0 1 .041-.106c.019-.036.024-.04.038-.06a.582.582 0 0 1 .136-.14c.084-.067.15-.098.217-.13.13-.059.247-.096.362-.129.23-.064.453-.107.675-.146.442-.076.88-.126 1.316-.17a49.025 49.025 0 0 1 2.597-.175c.603-.024 1.207-.044 1.802-.062.016.068.049.136.067.204 1.145-.06 2.42-.104 3.743-.131.387-1.67 1.082-4.07 2.313-6.03v-19.94a6.128 6.128 0 0 1-1.538-4.03v-.224h-.217s-.027.121-.027.127c0 3.216-2.434 5.934-5.401 5.934-2.968 0-5.428-2.62-5.428-5.837v-.224.167c0 3.216-2.397 5.849-5.365 5.849-2.967 0-5.364-2.667-5.364-5.883v-.133H0V45.19zm62.967 32.147l.017.063a.627.627 0 0 1 .128-.07s-.063.026-.145.007zm33.308-.534v-24.58c-.923 1.47-2.495 2.433-4.29 2.433-2.901 0-5.219-2.508-5.324-5.628-.13 3.095-2.46 5.608-5.345 5.608-2.968 0-5.342-2.641-5.342-5.858v-.183h-.157s.035.121.035.127c0 3.216-2.371 5.934-5.339 5.934-2.967 0-5.305-2.62-5.305-5.837v-.224h-.307v.25c0 2.42-1.538 4.478-3.384 5.347v21.3c.308-.048.475-.08.565-.109.211-.066.547.792.746 1.458.063-.09.19-.226.238-.105-.08-.2-.052-.439.036-.636.036-.078.152-.154.224-.203.013-.008.345-.09.345-.063v-.31c0-.172.064-.248.14-.28-.675-.309-1.504-.866-1.089-1.653.362-.686 1.394-.126 1.874.186-.248-.174.047-.512.047-.512s-.103-.086 0-.521c.07-.295.456-.447.698-.514-.11.009-.184-.033.045-.262.335-.337.806-.123.967-.034-.092-.065-.248-.228-.097-.533.205-.412 1.153.516 1.153.516s-.129-.645 0-.748c.128-.103.614.773.614.773s-.128-.54.512-.592c.64-.052 0 .834 0 .834s.64-.139 1.05 0c.097.033.135.095.138.17.414-.362 1.094-.83 1.501-.437.258.248.208.725.053 1.195l.303-.138 1.313-.596 1.468-.666-.88.772-.698.61-.892.784-.899.788-.005.004c.195.402.37.857.52 1.37.644 2.219 2.31 4.106 2.534 5.608a.28.28 0 0 1 .18.267c0 .12-.07.222-.164.263-.05.432-.262.827-.71 1.184a2.886 2.886 0 0 1-.708.41l.254.114a2.271 2.271 0 0 1-1.25.125c-.976.094-2.082-.15-3.145-.635-.13.951-.644 1.84-1.454 2.615.612 1.372 1.77 4.143 1.393 4.671-.187.262-.632.613-1.158.921a.558.558 0 0 1-.078.316c-.505.707-2.883 2.076-3.759 1.443-.65-.47-1.393-3.24-1.724-4.808-.055.012-.2.024-.2.036v7.193c13.533.018 25.53.235 34.757.584v-3.688c-6.46-.437-11.78-2.7-13.54-5.677.073 1.708.23 4.59-.192 5.6-.615 1.474-3.076.468-3.394-.203-.26-.55 1.587-4.826 2.259-6.343-.67-.43-1.195-1.131-1.094-1.836.077-.544.511-.98 1.054-1.254-.31-.951-1.83-5.803-.963-6.647.96-.938 2.453-1.244 3.278-.5.685.617-.278 5.059-.627 6.558.747-1.078 1.967-2.054 3.545-2.87l-.044-.041c-.055-.057-.107-.104-.167-.19a2.197 2.197 0 0 1-.08-.12 1.106 1.106 0 0 1-.149-.554c.016-.21.006-.067.01-.119l.004-.015.007-.032.009-.042a1.354 1.354 0 0 1 .135-.336 3.03 3.03 0 0 1 .085-.113c.062-.082.116-.126.173-.178.06-.055.11-.087.163-.124a2.83 2.83 0 0 1 .59-.294 7.31 7.31 0 0 1 1.078-.301c.459-.094.91-.165 1.358-.222.042.173.074.348.108.524.168-.029.336-.057.515-.084-.151-1.26-.231-2.739.269-2.855 0 0 3.312-1.547 4.132-.928.443.333.646 1.834.76 3.357.273-.007.718-.013.718-.017zm-41.564.37c-.01.002-.019.006-.03.006-.009 0-.018.004-.028.007l.052-.01.006-.002zm5.268-1.15V54.6c0 .023-.366.036-.564.036-2.968 0-5.28-2.641-5.28-5.858v-.183h.004l-.005.116c0 3.217-2.412 5.925-5.38 5.925-2.967 0-5.384-2.641-5.384-5.858v-.183h-.07s-.064.11-.064.116c0 3.217-2.47 5.925-5.437 5.925-2.968 0-5.502-2.641-5.502-5.858v-.183h.164l-.013.127c0 3.216-2.42 5.934-5.387 5.934-.86 0-1.531-.226-2.454-.617v16.837c.923-.754 1.757-1.285 2.818-1.433.457-.064.976-.04 1.41.052.072-.606.082-.947.083-.96l1.434.029c-.002.069-.017.592-.135 1.472.22.125.438.267.65.424.058-.526.067-.82.068-.834l.41.01c-.001.014-.013.414-.1 1.119 2.894 2.407 4.946 7.329 5.498 8.757.49.098.835.204 1.014.314.15-.038.299-.078.448-.119a.5.5 0 0 1 .062.118c.037.104.03.18.033.175l-.004.056-.002.01-.001.013-.001.008a.593.593 0 0 1-.056.166c-.018.032-.03.047-.049.075a.639.639 0 0 1-.114.12c-.16.13-.335.2-.551.278a7.44 7.44 0 0 1-.813.217c-.03.7-.146 2.15-.562 3.861.53.345.934 1.313.617 2.326-.359 1.144-1.532 1.912-2.153 1.714l-.048-.004c-1.65 3.045-4.42 5.81-9.956 6.045v1.405c9.843-.33 21.943-.338 35.213-.338h.16v-7.147a16.19 16.19 0 0 1-3.089.083c-.373 1.574-.98 3.642-1.535 4.042-.501.363-1.493.067-2.343-.383-.174.383-.352.671-.524.795-.877.633-3.246-.736-3.752-1.443-.405-.567.965-3.727 1.522-4.954-1.691-1.07-2.722-2.491-2.722-4.05 0-.464.094-.914.266-1.347-.2-.26-.533-.705-.822-1.14-.396.036-.913.82-.913.82-.204-.138-.068-.682-.068-.682-.17-.166-1.058.359-1.058.359-.376-.564.854-1.086.854-1.086-.171-.275-.854-.16-.854-.16.103-.607 1.059-.527 1.024-.665-.034-.137-.887-.687-.887-.687.443-.275 1.672.515 1.673.516-.13-.084-.273-.738-.294-.888.126.04.317.11.42.206a1.8 1.8 0 0 1 .33.438c.087.156.145.343.254.479.103-.11.177-.278.25-.416.4.425.191 1.092-.018 1.505.309.333.597.625.597.625v.001c.923-1.322 2.472-2.422 4.58-3.115.105-.39.122-.705.092-.794-.068-.206-.001-.366-.001-.366s1.225-1.008 1.407-.802c.167.187.696 1.252.406 1.449.923-.322 2.569-.697 4.959-.463.008-.06-.017-.118-.007-.184.031-.192.252-.347.252-.475z" id="q"/><path d="M114.14 5.82c.962 0 1.78.785 1.78 1.752 0 1.256-1.19 1.785-1.805 2.032v4.772c0 1.328-25.158 2.388-56.135 2.388-30.977 0-56.134-1.094-56.134-2.423V9.603C1.23 9.356.04 8.826.04 7.573c0-.968.815-1.753 1.776-1.753.034 0 .03.007.03.01V0h112.269v5.83c0-.002-.01-.01.025-.01z" id="s"/></defs><g fill="none" fill-rule="evenodd"><path fill="#F6AA70" d="M23.377 99.821h1.23V47.202h-1.23z"/><path d="M11.285 82.012s-.124 14.902 12.733 14.902c12.858 0 12.707-14.41 12.707-14.41l-25.44-.492z" fill="#2B8EA5"/><path d="M37.9 82.012c0 .67-6.145 1.214-13.726 1.214-7.58 0-13.726-.544-13.726-1.214 0-.67 6.145-1.214 13.726-1.214 7.58 0 13.726.543 13.726 1.214" fill="#E72D4C"/><path d="M37.3 82.012s-.012.052.022.155c.01.024.022.051.04.077.009.017.011.025.02.038a.32.32 0 0 0 .058.059c.044.02-.067-.05-.218-.102-.32-.122-.893-.25-1.623-.385a51.128 51.128 0 0 0-2.689-.398 69.168 69.168 0 0 0-3.532-.35 61.015 61.015 0 0 0-4.2-.153c-1.493-.013-3.066.046-4.691.108-1.624.089-3.303.194-4.996.39-.845.098-1.697.202-2.537.35-.42.074-.837.155-1.239.256-.2.05-.397.105-.57.17a1.29 1.29 0 0 0-.214.095c-.01.006-.027.015-.03.018.002.002.005.002.005 0l.01-.007a.368.368 0 0 0 .126-.224l-.005.019-.005.02c.008-.064-.024.17.016-.137a.387.387 0 0 0-.053-.23c-.013-.02-.01-.021-.017-.033a.22.22 0 0 0-.036-.05c-.017-.017-.032-.028-.026-.027 0-.004-.002-.006-.004-.007l.033.01c.046.02.132.046.219.066.174.045.374.08.575.11.404.061.824.103 1.245.137.843.066 1.695.11 2.54.137 1.693.046 3.364.077 4.982.07 1.615.018 3.186-.02 4.666-.026 1.483-.02 2.885-.015 4.179-.02 1.293 0 2.479-.004 3.527-.027a41.674 41.674 0 0 0 2.696-.135c.735-.064 1.31-.158 1.634-.246.153-.037.266-.096.225-.067.014-.008-.031.026-.055.058a.375.375 0 0 0-.077.185.346.346 0 0 0 .007-.022l.013-.038-.02.156zm1.18.156l-.01.039-.006.022a.892.892 0 0 1-.261.385 2.21 2.21 0 0 1-.15.11l-.147.078c-.1.048-.208.095-.32.132-.453.162-1.056.29-1.827.431-.77.139-1.697.273-2.761.406a70.6 70.6 0 0 1-3.576.352 61.9 61.9 0 0 1-4.237.154c-1.506.014-3.085-.046-4.727-.108-1.639-.089-3.333-.194-5.053-.392a46.04 46.04 0 0 1-2.602-.357 20.04 20.04 0 0 1-1.323-.27 7.107 7.107 0 0 1-.69-.2 2.724 2.724 0 0 1-.389-.166c-.038-.02-.07-.036-.112-.063a2.233 2.233 0 0 1-.139-.1 1.184 1.184 0 0 1-.174-.194c-.014-.023-.024-.033-.04-.067a.89.89 0 0 1-.088-.347c.043-.32.016-.1.027-.177l.007-.02.006-.019a.902.902 0 0 1 .23-.35c.026-.022.027-.02.041-.032.046-.033.093-.064.14-.093.044-.025.076-.038.115-.056a2.4 2.4 0 0 1 .394-.136 6.48 6.48 0 0 1 .695-.14c.45-.07.89-.114 1.33-.15.877-.07 1.744-.115 2.604-.144 1.72-.048 3.407-.08 5.04-.072 1.631-.019 3.208.019 4.702.025 1.495.02 2.908.015 4.215.021 1.306 0 2.506.005 3.571.029 1.066.025 1.996.072 2.769.143.775.07 1.38.163 1.838.291.112.03.222.07.323.112.054.025.1.046.148.07.057.036.108.071.152.103.043.029.116.11.153.159.021.029.038.05.056.08a.88.88 0 0 1 .05.121c.05.155.045.234.045.234l-.02.156z" fill="#FF4E50"/><path d="M13.774 88.428c.358 1.144.147 2.231-.474 2.428-.62.197-1.776-.57-2.135-1.714-.358-1.144.216-2.231.836-2.428.62-.197 1.414.57 1.773 1.714m20.4 0c-.359 1.144-.147 2.231.473 2.428.621.197 1.776-.57 2.135-1.714.359-1.144-.215-2.231-.835-2.428-.621-.197-1.415.57-1.773 1.714m-12.29.357c0 1.2-.961 2.172-2.147 2.172s-2.147-.972-2.147-2.172c0-1.2.961-2.172 2.147-2.172s2.147.973 2.147 2.172m8.536 0c0 1.2-.962 2.172-2.147 2.172-1.185 0-2.147-.972-2.147-2.172 0-1.2.962-2.172 2.147-2.172 1.185 0 2.147.973 2.147 2.172" fill="#FFD77D"/><path d="M24.45 83.234c.113-.008.226-.02.339-.031v-3.506a8.41 8.41 0 0 0-1.435.022v3.527c.361.068.814.008 1.096-.012" fill="#F6AA70"/><path d="M20.623 82.862s1.458-10.651 6.875-11.407c5.417-.757 9.395 10.467 9.395 10.467s-10.807 3.056-16.27.94" fill="#2B8EA5"/><g transform="translate(20.608 71.345)"><mask id="b" fill="#fff"><use xlink:href="#a"/></mask><path d="M5.347 12.557l-1.24-.726C8.152 4.837 8.309-.743 8.31-.799l1.433.029c-.005.243-.167 6.013-4.396 13.327" fill="#FFF" mask="url(#b)"/></g><g transform="translate(20.608 71.345)"><mask id="d" fill="#fff"><use xlink:href="#c"/></mask><path d="M6.41 13.38l-.355-.208C10.16 6.072 10.325.35 10.326.293l.41.009c-.001.058-.164 5.878-4.327 13.077" fill="#FFF" mask="url(#d)"/></g><path d="M38.267 81.837a.497.497 0 0 0-.062-.118c-.211.058-.422.12-.637.164-.16.033-.327.104-.493.105-.352.082-.853.159-1.47.224-.742.081-1.656.145-2.707.185-1.05.041-2.238.065-3.535.08l-4.188.043c-1.487.007-3.056.03-4.678.003a142.21 142.21 0 0 1-4.994-.121 48.67 48.67 0 0 1-2.55-.17 18.414 18.414 0 0 1-1.26-.161 7.648 7.648 0 0 1-.416-.085c.13-.038.265-.074.402-.105.41-.095.832-.169 1.254-.235a58.265 58.265 0 0 1 4.42-.479 7.721 7.721 0 0 1-.111-.41c-.595.019-1.193.039-1.796.063a49.25 49.25 0 0 0-2.594.175c-.436.044-.873.094-1.314.17a6.906 6.906 0 0 0-.675.146c-.115.033-.232.07-.362.128-.066.033-.132.064-.217.13a.635.635 0 0 0-.135.14c-.014.02-.02.024-.038.06a.605.605 0 0 0-.055.166c-.003.032.002-.042-.007.077a.548.548 0 0 0 .166.391.596.596 0 0 0 .064.06c.083.068.148.102.214.138.129.065.245.107.36.147.229.077.45.133.67.183.44.1.875.176 1.31.245.87.135 1.733.235 2.591.322.858.09 1.71.157 2.55.209.842.053 1.674.1 2.492.133 1.636.054 3.217.097 4.717.085a75.962 75.962 0 0 0 7.796-.43 55.517 55.517 0 0 0 2.75-.356c.765-.125 1.365-.253 1.795-.402.217-.077.39-.147.55-.278a.567.567 0 0 0 .06-.056.476.476 0 0 0 .054-.064c.019-.027.03-.042.048-.074a.589.589 0 0 0 .056-.166v-.008l.002-.013.002-.01.003-.057c-.001.005.005-.07-.032-.174" fill="#FF4E50"/><path d="M10.78 82.187l.006-.006-.002.003-.004.003m26.781-.006l.008.007-.008-.007" fill="#FF4E50"/><g transform="translate(9.843 47.202)"><mask id="f" fill="#fff"><use xlink:href="#e"/></mask><path fill="#721821" opacity=".201" mask="url(#f)" d="M14.457 56.952h15.379v-58.19h-15.38z"/></g><path d="M62.8 88.256c0 .412 1.012 5.229 1.888 5.861.877.633 3.246-.736 3.751-1.443.506-.708-1.747-5.442-1.747-5.442l-3.893 1.024zm-5.554.824c0 .413-1.013 5.23-1.89 5.862-.876.632-3.244-.736-3.75-1.444-.506-.707 1.748-5.442 1.748-5.442l3.892 1.025z" fill="#46667E"/><path fill="#F6AA70" d="M59.98 99.821h1.537V47.202H59.98z"/><path d="M68.535 84.906c0 3.33-4.7 6.03-10.499 6.03-5.798 0-10.5-2.7-10.5-6.03s4.702-6.03 10.5-6.03c5.799 0 10.5 2.7 10.5 6.03" fill="#2B8EA5"/><path d="M61.57 89.493c0 .412 1.013 5.228 1.89 5.861.876.633 3.244-.736 3.75-1.443.506-.707-1.748-5.442-1.748-5.442l-3.892 1.024zm-7.192 0c0 .412-1.013 5.228-1.89 5.861-.876.633-3.244-.736-3.75-1.443-.506-.707 1.747-5.442 1.747-5.442l3.893 1.024z" fill="#2B8EA5"/><path d="M53.928 79.534s2.281-1.414 6.754-.727c0 0 .102.894 0 .997-.102.103-2.663 3.951-2.646 4.054.017.103-.904 1.264-.904 1.264s-5.224.626-5.02-1.195c.205-1.821.478-2.778.478-2.778l1.338-1.615z" fill="#FF4E50"/><path d="M63.033 79.602s-.575-2.314-.917-2.207c-.341.107-2.185.266-2.321 1.114-.137.848-.069 1.138-.478 1.612-.41.473-2.185 3.488-2.322 4.184-.137.696-4.148.55-4.43-.138-.282-.687 1.6-4.972 2.116-4.976.515-.005-.12-1.277-.303-1.483-.183-.206-1.412.801-1.412.801s-.069.16 0 .367c.068.206-.342 1.616-.683 2.389-.342.772-.91 3.231-.763 3.857.148.626 5.79 1.313 6.418.557.627-.756 2.241-4.022 2.546-4.53.745-1.242 1.735-1.758 2.55-1.547" fill="#FFD77D"/><path d="M48.206 82.784s-1.557-1.858-1.762-1.525c-.205.332 1.537 2.53 1.537 2.53s.28-.602.225-1.005" fill="#2B8EA5"/><path d="M47.434 82.532s.871-1.225.256-1.878c-.072.138-.136.305-.238.415-.11-.135-.162-.323-.25-.478a1.795 1.795 0 0 0-.325-.438c-.104-.095-.294-.167-.42-.207.021.15.164.804.295.889-.001-.001-1.23-.79-1.673-.516 0 0 .853.55.887.687.034.138-.922.058-1.024.665 0 0 .683-.115.854.16 0 0-1.23.522-.854 1.085 0 0 .888-.524 1.058-.358 0 0-.136.544.069.681 0 0 .751-1.142 1.135-.735l.23.028z" fill="#2B8EA5"/><path d="M63.985 77.231s-.314-.056-.314.305v.31c0-.027-.333.054-.345.063-.072.049-.188.124-.224.203-.087.197-.115.436-.036.635-.062-.157-.258.122-.276.166-.06.148-.055.31.094.401.118.073.228.028.228.028-.265.102-.518.429-.207.635.274.18.65.22.958.116.057-.02.703-.272.699-.29l-.577-2.572" fill="#FF4E50"/><path d="M71.506 78.052c.921 3.168 3.927 5.662 1.841 7.322-2.085 1.66-6.142.025-8.178-2.565-2.035-2.59-1.995-6.034.09-7.694 2.086-1.66 5.018-1.29 6.247 2.937" fill="#2B8EA5"/><path d="M72.018 83.927a.29.29 0 0 1-.294.283.29.29 0 0 1-.295-.283.29.29 0 0 1 .295-.284.29.29 0 0 1 .294.284" fill="#46667E"/><path d="M74.22 83.927c0 .156-.114.283-.256.283-.141 0-.256-.127-.256-.283 0-.157.115-.284.256-.284.142 0 .256.127.256.284" fill="#2B8EA5"/><path d="M71.194 83.617s.016-.08.083-.175a.518.518 0 0 1 .149-.14.469.469 0 0 1 .382-.062c.045.01.082.035.12.052a.504.504 0 0 1 .15.15c.036.047.045.097.06.126.01.031.014.05.014.05a.038.038 0 1 1-.063.045c-.002.003-.065-.038-.147-.08a.463.463 0 0 0-.259-.069.475.475 0 0 0-.136.028c-.048.015-.095.037-.14.054l-.153.068a.042.042 0 0 1-.057-.02.045.045 0 0 1-.003-.027m-2.325-4.87c0 .256-.138.464-.308.464-.17 0-.307-.208-.307-.464s.137-.464.307-.464c.17 0 .308.208.308.464m2.56-.245c0 .207-.103.374-.23.374s-.23-.167-.23-.374c0-.206.103-.373.23-.373s.23.167.23.373" fill="#46667E"/><path d="M69.367 74.708s1.243-1.373 1.857-.78c.615.593-.512 2.474-.666 2.5-.153.026-1.191-1.72-1.191-1.72m-4.519 1.256s-1.648-1.267-2.126-.36c-.665 1.262 1.844 1.932 1.844 1.932s.461-1.057.282-1.572" fill="#2B8EA5"/><path d="M67.409 75.444s.998.733 1.126.459c.128-.274-.281-.459-.281-.459s1.231.356 1.46-.167c.23-.524-.347-.29-.347-.29s.628-.652.219-.79c-.41-.14-1.05 0-1.05 0s.64-.887 0-.836c-.641.052-.513.593-.513.593s-.486-.876-.614-.773c-.129.103 0 .747 0 .747s-.948-.928-1.152-.515c-.206.412.153.567.153.567s-.615-.412-1.024 0c-.41.412.153.216.153.216s-.794.124-.896.56c-.103.435 0 .52 0 .52s-.296.34-.046.514.533.657.763.429c.23-.23.41-.514.41-.514s-.026.62.281.388c.308-.232.385-.515.385-.515s.358.625.486.325.21-.459.21-.459-.03.331.277 0m5.374-.337l.698-.612a2.872 2.872 0 0 1-.588-.105l-1.313.596c.27.085.693.17 1.203.12" fill="#FF4E50"/><path d="M71.891 75.89l.892-.783c-.51.05-.933-.036-1.203-.121l-1.585.72a5.84 5.84 0 0 0 1.896.183m2.469-2.165l-1.467.666c.158.045.366.09.588.105l.88-.771zm-5.229 2.765c-.002.281.117.493.135.522.028.043.353.516.862.425l.864-.759c-.886.147-1.516-.033-1.86-.188" fill="#FFD77D"/><path d="M70.992 76.677l.899-.788a5.823 5.823 0 0 1-1.896-.184l-.752.343a.931.931 0 0 0-.112.44c.345.156.975.336 1.861.19" fill="#FF4E50"/><g transform="translate(63.363 74.13)"><mask id="h" fill="#fff"><use xlink:href="#g"/></mask><path d="M6.473 10.344s.113.199.338.46c.115.127.252.275.419.404.078.071.173.125.262.19.096.05.188.114.291.153.1.043.2.086.305.108.102.033.205.047.304.056.1.018.196.01.287.006a.985.985 0 0 0 .255-.03c.078-.018.151-.023.213-.046l.16-.056.14-.049.166.452-.17.044-.194.05c-.074.02-.165.02-.26.032-.095.013-.198.02-.31.01-.11-.006-.225-.008-.342-.039a1.676 1.676 0 0 1-.354-.097 1.963 1.963 0 0 1-.342-.156c-.112-.055-.21-.134-.312-.2-.092-.08-.19-.15-.269-.233a3.567 3.567 0 0 1-.409-.47c-.212-.293-.314-.517-.314-.517l.136-.072z" fill="#46667E" mask="url(#h)"/></g><g transform="translate(44.6 47.202)"><mask id="j" fill="#fff"><use xlink:href="#i"/></mask><path fill="#721821" opacity=".201" mask="url(#j)" d="M15.995 55.405h15.379V-.62h-15.38z"/></g><path d="M96.491 94.159v6.982h1.434v-7.23c-.482.058-.974.079-1.434.248" fill="#F6AA70"/><path d="M84.573 86.826a1.9 1.9 0 0 1-2.146 1.623c-1.036-.15-2.262-1.192-2.113-2.237.15-1.047 1.617-1.7 2.653-1.551a1.909 1.909 0 0 1 1.606 2.165" fill="#2B8EA5"/><path d="M81.422 85.122s-1.979-5.875-1.018-6.812c.962-.937 2.454-1.243 3.28-.499.825.744-.747 7.054-.747 7.054l-1.515.257zm.224 2.392s-2.815 6.206-2.497 6.877c.318.67 2.78 1.676 3.394.203.615-1.474.23-6.918.23-6.918l-1.127-.162z" fill="#2B8EA5"/><path d="M110.434 81.208c-2.994-1.4-7.095-2.263-11.621-2.263-9.165 0-16.594 3.537-16.594 7.902s7.43 7.903 16.594 7.903c4.62 0 8.796-.9 11.805-2.35-2.464-4.877-1.148-9.14-.184-11.192" fill="#FF4E50"/><path d="M115.407 86.847c0-2.209-1.905-4.205-4.973-5.64-.964 2.054-2.28 6.316.184 11.193 2.96-1.427 4.79-3.388 4.79-5.553" fill="#FFD77D"/><path d="M93.135 86.847a1.908 1.908 0 0 1-1.902 1.914 1.908 1.908 0 0 1-1.901-1.914c0-1.056.851-1.913 1.9-1.913 1.05 0 1.903.857 1.903 1.913m5.531 0a1.908 1.908 0 0 1-1.902 1.914 1.908 1.908 0 0 1-1.901-1.914c0-1.056.851-1.913 1.901-1.913s1.902.857 1.902 1.913m5.531 0a1.908 1.908 0 0 1-1.901 1.914 1.908 1.908 0 0 1-1.902-1.914c0-1.056.852-1.913 1.902-1.913 1.05 0 1.901.857 1.901 1.913" fill="#FFF"/><path d="M107.964 80.594c0 .987-4.724 1.787-10.552 1.787-5.827 0-10.55-.8-10.55-1.787 0-.987 4.723-1.787 10.55-1.787 5.828 0 10.552.8 10.552 1.787" fill="#46667E"/><path d="M106.913 80.594s-.002.025.002.074c0 .045.032.135.051.19.078.16.142.188.122.162-.019-.029-.12-.107-.283-.187a6.926 6.926 0 0 0-.63-.268 18.063 18.063 0 0 0-1.98-.57 28.438 28.438 0 0 0-2.717-.501 26.983 26.983 0 0 0-3.279-.226 41.102 41.102 0 0 0-3.669.156c-1.265.117-2.572.28-3.859.564-.641.14-1.284.294-1.88.504a5.454 5.454 0 0 0-.814.348.909.909 0 0 0-.242.17c-.005.008-.02.02-.004.015.009-.004.006 0 .04-.032a.616.616 0 0 0 .135-.326c.002-.021 0 .013 0 .016l-.005.065.013-.192v-.037a.478.478 0 0 0-.01-.076l-.03-.124a.46.46 0 0 0-.047-.097.233.233 0 0 0-.025-.05c-.03-.039-.025-.042-.032-.052-.013-.012.004-.007.011-.006.038.012.138.056.257.09.237.073.53.137.83.188a20.8 20.8 0 0 0 1.888.22c1.286.085 2.575.126 3.823.134.624.01 1.24.001 1.84 0l1.764-.03 3.223-.04a57.501 57.501 0 0 0 2.703-.069 15.902 15.902 0 0 0 2.001-.22 4.3 4.3 0 0 0 .942-.268l.012-.002-.007.008c-.01.011.005.007-.02.032a.227.227 0 0 0-.036.064.668.668 0 0 0-.096.297 5.234 5.234 0 0 0 .012-.046l.007-.032-.011.154zm2.09.154l-.003.032-.003.04c-.002.015.002 0-.006.041a1.667 1.667 0 0 1-.178.478c-.039.062-.085.13-.138.199-.059.079-.1.112-.158.174l-.088.084-.082.066c-.464.366-.976.565-1.614.8-.633.22-1.382.428-2.236.623-.855.199-1.817.378-2.87.519a28.591 28.591 0 0 1-3.403.23l-.921-.006-.935-.03a42.736 42.736 0 0 1-1.939-.121c-1.316-.12-2.674-.285-4.057-.583-.692-.149-1.391-.31-2.108-.551a8.56 8.56 0 0 1-1.116-.451 3.665 3.665 0 0 1-.644-.4c-.061-.05-.117-.092-.19-.166-.068-.07-.129-.128-.207-.239a2.607 2.607 0 0 1-.102-.153 1.96 1.96 0 0 1-.1-.216 1.073 1.073 0 0 1-.068-.245 1.75 1.75 0 0 1-.02-.14l-.005-.07c.004-.092-.013.108.01-.223l.014-.063.01-.047a1.595 1.595 0 0 1 .184-.46c.034-.05.07-.098.108-.146.081-.104.146-.156.216-.219.074-.067.133-.103.196-.145.248-.161.46-.248.66-.32a7.393 7.393 0 0 1 1.132-.291 20.75 20.75 0 0 1 2.114-.266c1.382-.1 2.724-.143 4.022-.154a113.47 113.47 0 0 1 3.73.028l3.347.044c1.04.012 2 .033 2.857.087.858.052 1.614.145 2.256.274.323.065.617.146.886.24.269.095.518.208.756.373.235.167.468.388.596.71.062.128.085.286.097.372.01.091.012.137.012.137l-.012.154z" fill="#2B8EA5"/><path d="M101.613 81.208s-.683-5.7 0-7.074c.683-1.374 4.097-2.061 4.917-1.65.819.413 1.434 7.771 1.434 7.771s-4.029 1.292-6.351.953" fill="#2B8EA5"/><g transform="translate(101.196 72.274)"><mask id="l" fill="#fff"><use xlink:href="#k"/></mask><path d="M.65 10.585l-1.074-.956C2.41 6.4 4.52-.944 4.542-1.018L5.92-.62C5.831-.307 3.697 7.114.65 10.585" fill="#FFF" mask="url(#l)"/></g><g transform="translate(101.196 72.274)"><mask id="n" fill="#fff"><use xlink:href="#m"/></mask><path d="M1.7 10.243l-.306-.273C4.303 6.656 6.447-.8 6.468-.876l.394.114c-.088.31-2.19 7.621-5.161 11.005" fill="#FFF" mask="url(#n)"/></g><path d="M90.692 76.402s3.34-1.546 4.16-.928c.82.619 1.005 5.25.82 6.597l-3.484.075-.955-2.33-.541-3.414z" fill="#FF4E50"/><path d="M90.692 81.06s-.883-4.452 0-4.658c.882-.206 1.52.767 1.495 4.772 0 0-1.44 1.208-1.495-.115" fill="#E72D4C"/><path d="M97.925 81.98V47.747h-1.434v34.142c.483.034.961.088 1.434.09" fill="#F6AA70"/><path d="M108.654 80.492c-.01-.064-.023-.18-.071-.278a1.034 1.034 0 0 0-.064-.126 10.71 10.71 0 0 1-1.59.44c.016.006.029.013.043.02a5.34 5.34 0 0 1-.758.219 16.37 16.37 0 0 1-2.04.287c-.806.071-1.726.114-2.73.145-1.006.035-2.098.051-3.254.074l-1.78.016c-.605-.003-1.227-.004-1.856-.02a50.188 50.188 0 0 1-3.862-.21 19.44 19.44 0 0 1-1.924-.275 6.559 6.559 0 0 1-.878-.232l-.04-.014c.257-.129.56-.24.866-.337.41-.13.835-.236 1.265-.33a15.246 15.246 0 0 0-.204-1.054c-.449.058-.901.129-1.36.223a7.288 7.288 0 0 0-1.08.301c-.185.07-.377.154-.59.294-.053.037-.104.069-.163.124-.057.052-.11.096-.173.177-.03.037-.058.075-.085.114a1.288 1.288 0 0 0-.135.336l-.01.042-.006.032-.003.015c-.005.051.005-.092-.011.119.005.132.026.29.073.39.023.056.048.112.075.164l.081.12c.06.085.112.133.168.19.058.06.107.096.16.137.206.158.396.26.579.348.367.176.718.297 1.068.407a18.82 18.82 0 0 0 2.071.496c.684.132 1.362.232 2.033.31.67.08 1.333.149 1.985.198a46.51 46.51 0 0 0 1.923.101l.928.023c.313.003.612.002.913-.001a33.46 33.46 0 0 0 3.373-.196 32.545 32.545 0 0 0 2.841-.443c.845-.17 1.583-.357 2.197-.556.617-.21 1.107-.402 1.502-.711l.07-.056.072-.068c.048-.05.084-.079.128-.14a2.44 2.44 0 0 0 .11-.155 1.245 1.245 0 0 0 .132-.348c.006-.03.003-.023.005-.036l.004-.04.004-.032.007-.102s0-.034-.009-.102m-10.133-1.367c.319.006.633.016.942.03a8.833 8.833 0 0 1-.019-.625l-1.052-.02c.04.205.08.412.13.615" fill="#2B8EA5"/><path d="M87.499 80.78c-.015.01-.003-.002.002-.01 0-.004.008-.01.017-.019l-.012.02a.02.02 0 0 1-.007.01m19.814-.015c.02.02.018.025 0 0" fill="#2B8EA5"/><g transform="translate(79.05 47.821)"><mask id="p" fill="#fff"><use xlink:href="#o"/></mask><path fill="#721821" opacity=".201" mask="url(#p)" d="M18.148 60.357h21.838V-1.857H18.148z"/></g><path fill="#FFD77D" d="M.308 47.512h118.728v-3.405H.308z"/><path d="M59.672 43.488V7.561c-1.846 8.176-5.947 28.189-7.649 35.927h7.649zm-2.595-32.222C39.375 39.179.307 38.057.307 38.057v5.431H3.23c11.916-1.857 42.183-9.676 53.847-32.222" fill="#FF4E50"/><path d="M58.526 8.736c-3.393 12.36-25.467 28.252-34.918 34.752H39.75C52.101 29.559 57.675 13.416 59.57 6.71a50.994 50.994 0 0 1-1.044 2.026" fill="#FF4E50"/><path d="M59.598 6.744c-1.894 6.707-7.497 22.815-19.849 36.744h12.274c1.702-7.738 5.803-27.751 7.649-35.927v-.84c0 .031-.059-.007-.074.023" fill="#FFD77D"/><path d="M58.526 8.736c-.48.87-.98 1.678-1.5 2.496C45.362 33.778 15.146 41.631 3.23 43.488h20.38c9.45-6.5 31.524-22.391 34.917-34.752" fill="#FFD77D"/><path d="M59.672 43.488V7.561c1.538 8.176 5.834 28.189 7.537 35.927h-7.537zm2.538-32.222c17.703 27.913 56.826 26.791 56.826 26.791v5.431h-3.034c-11.916-1.857-42.128-9.676-53.792-32.222" fill="#FF4E50"/><path d="M60.705 8.736c3.393 12.36 25.467 28.252 34.918 34.752h-16.14C67.13 29.559 61.555 13.416 59.66 6.71c.336.679.685 1.377 1.044 2.026" fill="#FF4E50"/><path d="M59.689 6.744c1.895 6.707 7.44 22.815 19.793 36.744H67.21c-1.703-7.738-6-27.751-7.537-35.927v-.84c0 .031.002-.007.017.023" fill="#FFD77D"/><path d="M60.705 8.736c.48.87.981 1.678 1.5 2.496 11.665 22.546 41.88 30.399 53.797 32.256h-20.38c-9.45-6.5-31.524-22.391-34.917-34.752" fill="#FFD77D"/><path d="M64.048 6.704c0 2.427-1.955 4.395-4.367 4.395s-4.367-1.968-4.367-4.395c0-2.427 1.955-4.394 4.367-4.394s4.367 1.967 4.367 4.394m44.53 43.903v.223c0 3.217 2.262 5.837 5.23 5.837 2.967 0 5.228-2.626 5.228-5.843v-.217h-10.458zm-10.988 0l-.001.132c0 3.217 2.406 5.883 5.373 5.883 2.968 0 5.374-2.695 5.374-5.911v-.104H97.59zm-10.85 0v.223c0 3.217 2.415 5.837 5.382 5.837 2.968 0 5.383-2.626 5.383-5.843v-.217H86.74zm-10.766 0v.183c0 3.217 2.374 5.857 5.342 5.857 2.967 0 5.357-2.707 5.357-5.924l-.016-.116H75.974zm-10.766 0v.223c0 3.217 2.338 5.837 5.305 5.837 2.968 0 5.34-2.717 5.34-5.934 0-.005-.036-.126-.036-.126H65.208zm-11.073 0v.183c0 3.217 2.416 5.857 5.383 5.857 2.968 0 5.383-2.575 5.383-5.791v-.249H54.135z" fill="#2B8EA5"/><path d="M43.37 50.607v.183c0 3.217 2.417 5.857 5.385 5.857 2.967 0 5.38-2.707 5.38-5.924l.004-.116H43.37zm-11.073 0v.183c0 3.217 2.534 5.857 5.502 5.857 2.967 0 5.437-2.707 5.437-5.924 0-.005.064-.116.064-.116H32.297z" fill="#2B8EA5"/><path d="M21.839 50.607v.223c0 3.217 2.344 5.837 5.311 5.837 2.968 0 5.343-2.717 5.343-5.934a4.41 4.41 0 0 0-.032-.126H21.839zm-11.073 0v.223c0 3.217 2.46 5.837 5.428 5.837 2.967 0 5.4-2.717 5.4-5.934 0-.005.028-.126.028-.126H10.766zm-10.729 0v.132c0 3.217 2.397 5.883 5.364 5.883 2.968 0 5.365-2.632 5.365-5.848v-.167H.036zm-.037 0h119.344v-3.405H0zm.308-5.881h118.728v-1.238H.308zM115.96 99.821v14.376c0 1.328-25.158 2.388-56.134 2.388-30.977 0-56.135-1.094-56.135-2.423v-14.34h112.27z" fill="#2B8EA5"/><path d="M115.91 100.179c0 1.328-25.113 2.405-56.09 2.405-30.976 0-56.088-1.077-56.088-2.405 0-1.329 25.112-2.406 56.088-2.406 30.977 0 56.09 1.077 56.09 2.406" fill="#F6AA70"/><path d="M59.82 111.551c-15.005 0-29.117-.25-39.734-.706-5.185-.222-9.263-.481-12.121-.771-1.513-.154-2.641-.31-3.449-.48-.69-.145-2.526-.529-2.526-2.2 0-.968.78-1.753 1.742-1.753.445 0 .851.169 1.16.446.764.204 4.082.822 17.285 1.336 10.316.402 23.685.624 37.643.624 13.96 0 27.328-.222 37.644-.624 13.204-.514 16.521-1.132 17.286-1.336a1.728 1.728 0 0 1 1.16-.446c.961 0 1.74.785 1.74 1.753 0 1.671-1.834 2.055-2.525 2.2-.808.17-1.936.326-3.449.48-2.858.29-6.936.55-12.12.771-10.618.455-24.73.706-39.736.706" fill="#FF4E50"/><g transform="translate(0 2.012)"><mask id="r" fill="#fff"><use xlink:href="#q"/></mask><path fill="#721821" opacity=".262" mask="url(#r)" d="M59.672 56.024h68.9V.31h-68.9z"/></g><g transform="translate(1.846 99.821)"><mask id="t" fill="#fff"><use xlink:href="#s"/></mask><path fill="#721821" opacity=".207" mask="url(#t)" d="M57.826 27.548h68.9V-4.024h-68.9z"/></g><path d="M115.91 100.179c0 1.328-25.113 2.405-56.09 2.405-30.976 0-56.088-1.077-56.088-2.405 0-1.329 25.112-2.406 56.088-2.406 30.977 0 56.09 1.077 56.09 2.406" fill="#F6AA70"/></g></svg>