<svg width="120" height="120" viewBox="0 0 120 120" xmlns="http://www.w3.org/2000/svg"><g fill="none" fill-rule="evenodd"><path d="M0 0h120v120H0z"/><path d="M108.42 84.86L98 78.26a2.6 2.6 0 0 1-.86-.9C92.85 70 79.89 64.58 64.57 64.58c-12 0-27.69 7.53-31.13 9.26a2.54 2.54 0 0 0-1.06 1L18.83 98.28a5.17 5.17 0 0 0 1.89 7.06 5.17 5.17 0 0 0 7.06-1.89l5.41-9.37a2.55 2.55 0 0 1 3.73-.77 2.54 2.54 0 0 1 .68 3.32l-5.5 9.67a5.17 5.17 0 0 0 1.9 7.06 5.17 5.17 0 0 0 7.06-1.89l7.37-12.77c.14 0 .27-.2.41-.16a58.7 58.7 0 0 1 16.65-2.31 59.3 59.3 0 0 1 15.7 2c.11 0 .22.21.33.17l12.81 8.1a5.17 5.17 0 0 0 7.13-1.61 5.17 5.17 0 0 0-1.61-7.13l-4.53-2.86a2.54 2.54 0 0 1-.45-3.9 2.55 2.55 0 0 1 3.2-.39l4.78 3A5.17 5.17 0 0 0 110 92a5.17 5.17 0 0 0-1.58-7.14z" fill="#FFF" fill-rule="nonzero"/><path d="M22.49 99.06a.88.88 0 0 0-1.21.32l-2.4 4.16a5.13 5.13 0 0 0 1.23 1.39l2.7-4.67a.88.88 0 0 0-.32-1.2zm3.19 1.16a.88.88 0 0 0-1.21.32l-3 5.17a5.13 5.13 0 0 0 1.85.33l2.68-4.62a.88.88 0 0 0-.32-1.2zm9.57 7.67a.88.88 0 0 0-1.21.32l-1.92 3.32a5.13 5.13 0 0 0 1.23 1.4l2.22-3.84a.88.88 0 0 0-.32-1.2zm3.19 1.11a.88.88 0 0 0-1.21.32l-2.51 4.35a5.13 5.13 0 0 0 1.84.34l2.2-3.81a.88.88 0 0 0-.32-1.2zm59.75-5.51a.885.885 0 0 0-1 1.46l2.5 1.68a5.13 5.13 0 0 0 1.4-1.19l-2.9-1.95zm.15-2.87a.88.88 0 0 0 .24 1.22l3.34 2.25a5.14 5.14 0 0 0 .38-1.87l-2.73-1.84a.88.88 0 0 0-1.23.24zm8.4-9.62a.885.885 0 0 0-1 1.46l2.13 1.43a5.14 5.14 0 0 0 1.52-1.1L106.74 91zm4.07-1.3l-2.69-1.81a.885.885 0 0 0-1 1.46l3.18 2.14a5.13 5.13 0 0 0 .51-1.79z" fill="#4D4D4D" fill-rule="nonzero"/><ellipse fill="#1A1A1A" fill-rule="nonzero" transform="rotate(-40.94 68.912 20.051)" cx="68.912" cy="20.051" rx="19.28" ry="8.28"/><ellipse fill="#1A1A1A" fill-rule="nonzero" transform="rotate(-3.85 84.515 56.986)" cx="84.515" cy="56.986" rx="19.28" ry="8.28"/><path d="M68.48 49.06c2.46 14.64-5.67 25.5-23.12 28.44-17.45 2.94-36.27-3.39-38.74-18C4.15 44.89 19 30.12 36.43 27.19 53.86 24.26 66 34.42 68.48 49.06z" fill="#FFF" fill-rule="nonzero"/><path d="M63.77 36.41a26.26 26.26 0 0 0-9.89 4.79C42.71 49.61 39 63.79 47.5 77.22c16.44-3.29 24-13.94 21.65-28.16a28.22 28.22 0 0 0-5.38-12.65z" fill="#1A1A1A" fill-rule="nonzero"/><ellipse fill="#1A1A1A" fill-rule="nonzero" transform="rotate(-67.43 16.51 57.995)" cx="16.511" cy="57.995" rx="4.82" ry="7.06"/><circle fill="#FFF" fill-rule="nonzero" cx="55.61" cy="56.98" r="4.39"/><circle fill="#1A1A1A" fill-rule="nonzero" cx="38.91" cy="39.73" r="3.26"/><circle fill="#1A1A1A" fill-rule="nonzero" cx="55.61" cy="56.98" r="3.26"/><path d="M58.32 76.6a20.43 20.43 0 0 1-10.66-2.67 17.93 17.93 0 0 1-4.93-4.42 30 30 0 0 1-8.88 2.28c-.787.08-1.56.133-2.32.16.273.487.56.973.86 1.46 4 6.35 11.69 13.93 25.93 13.93a5.365 5.365 0 1 0 0-10.73v-.01z" fill="#E75E58" fill-rule="nonzero"/><path d="M53.54 80.56h-.05a21.1 21.1 0 0 1-10.76-3.62A18.64 18.64 0 0 1 38 72a.68.68 0 1 1 1.13-.75 17.29 17.29 0 0 0 4.39 4.61 19.77 19.77 0 0 0 10.07 3.34.68.68 0 0 1-.05 1.36z" fill="#BD0E00" fill-rule="nonzero"/><path d="M102.77 76.63c7.23-2.88 11.23-8.81 10.86-10.84-.37-2.03-8.1.78-15.34 3.66s-12.1 3.66-10.86 6.77c1.24 3.11 8.1 3.29 15.34.41zm-56.38-9.24A1 1 0 0 0 45 67a27.44 27.44 0 0 1-11.31 3.64 27.22 27.22 0 0 1-7.55-.22 1.016 1.016 0 0 0-.36 2 27.49 27.49 0 0 0 4.8.41c1.106 0 2.21-.057 3.31-.17A29.46 29.46 0 0 0 46 68.79a1 1 0 0 0 .39-1.4z" fill="#1A1A1A" fill-rule="nonzero"/></g></svg>