<svg width="120" height="120" viewBox="0 0 120 120" xmlns="http://www.w3.org/2000/svg" xmlns:xlink="http://www.w3.org/1999/xlink"><defs><path id="a" d="M0 119.817h112.72V0H0z"/></defs><g transform="translate(4)" fill="none" fill-rule="evenodd"><path d="M48.406 42.668H20.883a5.246 5.246 0 0 0-5.248 5.245v13.03h5.617V49.099c0-.452.367-.818.818-.818h25.15a.82.82 0 0 1 .82.818v28.743h5.613V47.913a5.245 5.245 0 0 0-5.247-5.245" fill="gray"/><mask id="b" fill="#fff"><use xlink:href="#a"/></mask><path fill="gray" mask="url(#b)" d="M75.121 76.97h31.046v-5.153H75.121z"/><path fill="#B3B3B3" mask="url(#b)" d="M80.781 50.796h18.345l-.432-7.007h-17.48zm-.864 14.014h20.076l-.433-7.007H80.348zm2.161-35.035l-.432 7.008H98.26l-.432-7.008z"/><path fill="#871417" mask="url(#b)" d="M97.395 22.766H82.511l-.433 7.009h15.75zm-16.18 21.023h17.48l-.435-7.006H81.645zm-.867 14.014H99.56l-.432-7.007H80.78zm-.867 14.014h20.945l-.433-7.008H79.917z"/><path fill="#2A4357" mask="url(#b)" d="M36.887 119.788h75.832V76.97H36.887z"/><path fill="#FFB832" mask="url(#b)" d="M44.014 95.213h3.232v-5.176h-3.232z"/><path fill="#FFF" mask="url(#b)" d="M48.04 95.213h3.231v-5.176H48.04z"/><path fill="#FFDA9E" mask="url(#b)" d="M52.063 95.213h3.232v-5.176h-3.232zm4.024 0h3.233v-5.176h-3.233z"/><path fill="#FFF" mask="url(#b)" d="M60.112 95.213h3.232v-5.176h-3.232zm4.024 0h3.232v-5.176h-3.232z"/><path fill="#FFDA9E" mask="url(#b)" d="M68.16 95.213h3.232v-5.176H68.16z"/><path fill="#FFF" mask="url(#b)" d="M44.014 101.023h3.232v-5.178h-3.232zm4.026 0h3.231v-5.178H48.04z"/><path fill="#FFB832" mask="url(#b)" d="M52.063 101.023h3.232v-5.178h-3.232z"/><path fill="#FFDA9E" mask="url(#b)" d="M56.087 101.023h3.233v-5.178h-3.233z"/><path fill="#FFB832" mask="url(#b)" d="M60.112 101.023h3.232v-5.178h-3.232z"/><path fill="#FFDA9E" mask="url(#b)" d="M64.136 101.023h3.232v-5.178h-3.232z"/><path fill="#FFF" mask="url(#b)" d="M68.16 101.023h3.232v-5.178H68.16z"/><path fill="#FFDA9E" mask="url(#b)" d="M44.014 89.43h3.232v-5.176h-3.232z"/><path fill="#FFF" mask="url(#b)" d="M48.04 89.43h3.231v-5.176H48.04zm4.023 0h3.232v-5.176h-3.232zm4.024 0h3.233v-5.176h-3.233zm4.025 0h3.232v-5.176h-3.232z"/><path fill="#FFB832" mask="url(#b)" d="M64.136 89.43h3.232v-5.176h-3.232z"/><path fill="#FFF" mask="url(#b)" d="M68.16 89.43h3.232v-5.176H68.16z"/><path fill="#FFB832" mask="url(#b)" d="M102.36 95.213h3.234v-5.176h-3.235z"/><path fill="#FFF" mask="url(#b)" d="M98.336 95.213h3.233v-5.176h-3.233z"/><path fill="#FFDA9E" mask="url(#b)" d="M94.312 95.213h3.233v-5.176h-3.233zm-4.026 0h3.234v-5.176h-3.234z"/><path fill="#FFF" mask="url(#b)" d="M86.263 95.213h3.232v-5.176h-3.232zm-4.024 0h3.232v-5.176h-3.232z"/><path fill="#FFDA9E" mask="url(#b)" d="M78.214 95.213h3.232v-5.176h-3.232z"/><path fill="#FFF" mask="url(#b)" d="M102.36 101.023h3.234v-5.178h-3.235zm-4.024 0h3.233v-5.178h-3.233z"/><path fill="#FFB832" mask="url(#b)" d="M94.312 101.023h3.233v-5.178h-3.233z"/><path fill="#FFDA9E" mask="url(#b)" d="M90.286 101.023h3.234v-5.178h-3.234z"/><path fill="#FFB832" mask="url(#b)" d="M86.263 101.023h3.232v-5.178h-3.232z"/><path fill="#FFDA9E" mask="url(#b)" d="M82.239 101.023h3.232v-5.178h-3.232z"/><path fill="#FFF" mask="url(#b)" d="M78.214 101.023h3.232v-5.178h-3.232z"/><path fill="#FFDA9E" mask="url(#b)" d="M102.36 89.43h3.234v-5.176h-3.235z"/><path fill="#FFF" mask="url(#b)" d="M98.336 89.43h3.233v-5.176h-3.233zm-4.024 0h3.233v-5.176h-3.233zm-4.026 0h3.234v-5.176h-3.234zm-4.023 0h3.232v-5.176h-3.232z"/><path fill="#FFB832" mask="url(#b)" d="M82.239 89.43h3.232v-5.176h-3.232z"/><path fill="#FFF" mask="url(#b)" d="M78.214 89.43h3.232v-5.176h-3.232z"/><path fill="#CCC" mask="url(#b)" d="M0 119.817h36.887V68.983H0z"/><path d="M0 68.983s0-8.729 18.444-8.729c18.443 0 18.443 8.729 18.443 8.729H0zm45.324 7.987H56.36v-4.55H45.324z" fill="#871417" mask="url(#b)"/><path d="M91.235 16.383a1.74 1.74 0 0 1-3.48 0 1.74 1.74 0 0 1 3.48 0" fill="#A9D2E7" mask="url(#b)"/><path d="M88.477 14.535a2.229 2.229 0 0 1-4.455 0 2.228 2.228 0 0 1 4.455 0" fill="#A9D2E7" mask="url(#b)"/><path d="M86.341 10.259a3.447 3.447 0 1 1-6.895 0 3.447 3.447 0 0 1 6.895 0" fill="#A9D2E7" mask="url(#b)"/><path d="M80.715 7.372a3.349 3.349 0 1 1-6.698 0c0-1.848 1.5-3.347 3.35-3.347a3.347 3.347 0 0 1 3.348 3.347" fill="#A9D2E7" mask="url(#b)"/><path d="M81.269 12.646a4.025 4.025 0 1 1-8.05 0 4.024 4.024 0 0 1 4.025-4.023c2.224 0 4.025 1.8 4.025 4.023" fill="#A9D2E7" mask="url(#b)"/><path d="M75.276 13.32a4.977 4.977 0 0 1-4.979 4.977 4.977 4.977 0 1 1 0-9.952 4.977 4.977 0 0 1 4.979 4.976" fill="#A9D2E7" mask="url(#b)"/><path d="M66.242 14.588c0 3.179-2.768 5.757-6.184 5.757-3.418 0-6.185-2.578-6.185-5.757 0-3.178 2.767-5.756 6.185-5.756 3.416 0 6.184 2.578 6.184 5.756" fill="#A9D2E7" mask="url(#b)"/><path d="M68.973 7.372a4.878 4.878 0 0 1-9.758 0 4.878 4.878 0 0 1 4.88-4.877 4.878 4.878 0 0 1 4.878 4.877" fill="#A9D2E7" mask="url(#b)"/><path d="M61.032 7.35a7.35 7.35 0 0 1-7.352 7.349A7.35 7.35 0 1 1 53.68 0a7.35 7.35 0 0 1 7.352 7.35" fill="#A9D2E7" mask="url(#b)"/><path d="M50.193 13.284a7.773 7.773 0 0 1-7.775 7.77 7.773 7.773 0 0 1-7.774-7.77 7.773 7.773 0 0 1 7.774-7.77 7.773 7.773 0 0 1 7.775 7.77m-25.06-4.66c0 2.268-1.929 4.105-4.307 4.105-2.38 0-4.307-1.837-4.307-4.105 0-2.27 1.928-4.107 4.307-4.107 2.378 0 4.307 1.838 4.307 4.107m7.192 5.08a2.729 2.729 0 1 1-2.729-2.729 2.727 2.727 0 0 1 2.73 2.729" fill="#A9D2E7" mask="url(#b)"/><path d="M36.227 6.814a3.897 3.897 0 0 1-3.901 3.898 3.897 3.897 0 1 1 0-7.796 3.898 3.898 0 0 1 3.9 3.898" fill="#A9D2E7" mask="url(#b)"/></g></svg>