<svg width="165" height="137" viewBox="0 0 165 137" xmlns="http://www.w3.org/2000/svg"><g fill="none"><path d="M71.632 18.575c-6.35 8.586-12.737 24.347 6.865 32.453 22.64 9.355 22.856-26.844 14.392-34.432-4.121-3.694-7.045-4.127-11.505-3.89-4.192.216-8.616 4.33-9.752 5.869z" fill="#BE0A3C"/><path d="M82.98 15.518c-8.508 0-9.346 9.952-9.047 11.194.846 3.49 2.114 7.665 5.732 9.175 3.012 1.258 7.045.357 9.227-2.063 1.942-2.156 4.22-8.414 3.474-11.279.156-.549-.882-7.027-9.386-7.027z" fill="#A0640A"/><path d="M90.28 30.859c3.713-.237 5.141-2.036 4.942-5.18-.283-4.472-4.543-.666-4.543-.666s-.798 4.98-.4 5.846zm-14.863 0c-3.71-.237-5.142-2.036-4.942-5.18.283-4.472 4.543-.666 4.543-.666s.798 4.98.4 5.846z" fill="#A0640A"/><path d="M83.367 28.182c.09-.038.174-.088.251-.148a3.73 3.73 0 0 0 .052-.44c.08-1.547.088-2.773-.762-3.879-.993-.172-1.224 3.17-.977 4.475.464.172.974.17 1.436-.008z" fill="#824600"/><path d="M81.025 31.103l3.798-.108s-.678 1.25-1.775 1.178c-1.78-.116-2.023-1.07-2.023-1.07zm7.005-6.374c.973-.513.59 1.442.399 1.759-.886-.06-.734-1.182-.399-1.76zm-11.213-.184c.97-.51.587 1.446.4 1.762-.898-.076-.747-1.186-.4-1.762z" fill="#000"/><path d="M83.036 17.673l9.849 7.717s1.06-6.01-3.152-8.746c-4.212-2.737-6.697 1.03-6.697 1.03z" fill="#A0001E"/><path d="M73.084 26.596L89.869 15.89s-8.608-5.957-14.89.057c-4.943 4.751-1.895 10.649-1.895 10.649z" fill="#BE0A3C"/><path d="M80.008 61.16L60.53 73.98s-.797 2.954.292 5.378c.973 2.147 3.69 3.858 6.135 3.113 8.265-2.512 10.55 6.554 24.14.328 4.787-2.2 6.853-6.879 13.052-5.352 2.677.66 4.947-.337 6.024-1.603a5.626 5.626 0 0 0 1.196-3.858L80.01 61.16z" fill="#005A5A"/><path fill="#000" d="M72.904 65.098h25.74v12.024h-25.74z"/><path fill="#A0640A" d="M67.355 98.437l-4.698-1.996 4.75-20.24 10.348.152-5.046 20.465z"/><path fill="linen" d="M61.591 100.252l-5.105 18.197 9.557-.841 5.644-17.356-4.443-1.306z"/><path fill="#000" d="M79.502 80.483l3.287-11.582-16.28.613-2.684 10.97z"/><path fill="#00A08C" d="M48.819 128.774l6.598-.861 8.955.625-.236 1.302-15.628.132z"/><path d="M50 127.48a27.098 27.098 0 0 0 3.546-.429l2.792-12.568h11.624l-3.59 14.055-15.557.236c.157-.34.29-.69.399-1.05.25-.114.515-.196.786-.244z" fill="#000"/><path fill="#00A08C" d="M64.065 121.394l-5.142-.168.662-4.584 5.808-.084z"/><path fill="#005A5A" d="M54.982 117.48h3.051l.252-.782H55.12z"/><path fill="#00A08C" d="M54.635 119.307h3.051l.252-.786h-3.164z"/><path fill="#005A5A" d="M54.292 121.13h3.047l.256-.786H54.43z"/><path fill="#00A08C" d="M53.945 122.953h3.051l.252-.786h-3.164z"/><path fill="#005A5A" d="M53.598 124.776h3.051l.251-.782h-3.163z"/><path fill="#F0E6D2" d="M71.687 100.252l1.15-3.53-10.18-.28-1.066 3.81z"/><path fill="#A0640A" d="M104.373 103.112l5.66-6.67-5.62-21.616-10.958.457 6.526 21.535z"/><path fill="linen" d="M101.273 100.957l5.377 16.65 9.554.842-4.883-17.408-6.366-1.967z"/><path fill="#F0E6D2" d="M111.321 101.04l-1.288-4.599-10.176.28 1.404 4.32z"/><path fill="#000" d="M108.07 80.483l-3.083-11.37-16.167.369 3.574 11.001z"/><path fill="#00A08C" d="M123.874 128.774l-6.597-.861-8.955.625.235 1.302 15.629.132z"/><path d="M122.69 127.48a27.102 27.102 0 0 1-3.55-.429l-2.793-12.568H104.74l3.59 14.055 15.556.236c-.157-.34-.29-.69-.398-1.05a3.205 3.205 0 0 0-.798-.244z" fill="#000"/><path fill="#00A08C" d="M108.381 121.394l5.146-.168-.662-4.584-5.808-.084z"/><path fill="#005A5A" d="M117.712 117.48h-3.052l-.251-.782h3.163z"/><path fill="#00A08C" d="M118.055 119.307h-3.048l-.251-.786h3.163z"/><path fill="#005A5A" d="M118.402 121.13h-3.052l-.251-.786h3.163z"/><path fill="#00A08C" d="M118.749 122.953h-3.052l-.251-.786h3.163z"/><path fill="#005A5A" d="M119.096 124.776h-3.052l-.251-.782h3.163z"/><path d="M149.256 16.19c-.598-1.337 5.062-3.276 5.186-4.35.123-1.074-5.709 1.663-6.383 1.358-.825-.373 4.033-2.472 3.901-3.81 0-.216-8.456 3.317-19.41 8.65-16.31 7.937-40.132 19.832-40.132 19.832l5.94 9.696s55.896-29.969 56.243-31.375c.347-1.406-4.747 1.338-5.345 0z" fill="#A0640A"/><path d="M143.308 7.34c.894 1.303-1.67 3.51-.845 4.876.826 1.367 3.255.2 3.255 3.278 0 3.077-1.7 3.654-4.18 4.187-3.99.857-3.503-4.652-2.793-6.194.523-1.182 3.131-5.838 4.563-6.146z" fill="#824600"/><path d="M134.605 29.16c-1.197-1.03-5.736-9.511-5.43-11.054.308-1.542 3.726-2.88 5.868-3.117.679.946 5.186 9.083 5.401 10.842.216 1.758-4.65 4.359-5.84 3.329z" fill="#005A5A"/><path fill="#00A08C" d="M130.253 16.275l6.78 13.061 2.31-1.314-6.478-12.957z"/><path d="M18.104 77.01c-.674-1.306-5.704 1.951-6.621 1.39-.918-.56 4.838-3.466 5.022-4.187.223-.881-4.432 1.643-5.393.705-.156-.148 7.838-4.595 18.8-9.912C46.233 57.093 72.484 45.31 72.484 45.31l.291 11.403S16.098 81.818 14.793 81.205c-1.304-.613 3.985-2.889 3.311-4.195z" fill="#A0640A"/><path d="M14.89 66.833c.458 1.51 3.777.862 4.327 2.36.55 1.499-1.863 2.684.543 4.596 2.405 1.91 3.9.921 5.863-.682 3.136-2.596-1.46-5.645-3.099-6.05-1.253-.324-6.506-1.161-7.635-.224z" fill="#824600"/><path d="M37.327 73.508c-.068-1.574-3.861-10.417-5.258-11.134-1.396-.717-4.559 1.142-6.079 2.68.32 1.122 3.862 9.736 5.11 10.986 1.249 1.25 6.287-.93 6.227-2.532z" fill="#005A5A"/><path fill="#00A08C" d="M27.183 63.396l6.542 13.049 2.58-1.362-6.677-12.901z"/><path fill="#A0640A" d="M90.59 38.48l3.774 11.326-16.378 6.827L76.29 44.08z"/><path d="M93.347 36.031l-4.615 2.052s.87 8.517-4.878 10.905-6.638-7.131-6.638-7.131l-4.715 1.847-11.967 30.249s50.731-2.04 50.84-2.003L93.346 36.03z" fill="#00A08C"/></g></svg>