<svg width="120" height="120" viewBox="0 0 120 120" xmlns="http://www.w3.org/2000/svg" xmlns:xlink="http://www.w3.org/1999/xlink"><defs><path id="a" d="M.463.713h91.791v118.371H.464z"/><path id="c" d="M0 .42h4.666v11.904H0z"/></defs><g fill="none" fill-rule="evenodd"><g transform="translate(15.432 .203)"><mask id="b" fill="#fff"><use xlink:href="#a"/></mask><path d="M91.855 69.632c-2.074.42-3.745.402-5.495 1.583.986-1.99 1.789-4.09 2.038-6.296.297-2.654.375-5.09-.029-7.744a20.229 20.229 0 0 0-.936-3.686c-.424-1.194-1.23-2.167-1.723-3.305-.183-.421-.86-.249-.787.215.236 1.488.093 2.6-.588 3.946-.28.556-.58 1.068-.903 1.56.057-1.256-.093-2.566-.33-3.873-.686-3.754-1.993-7.593-4.222-10.71-2.155-3.013-5.372-5.253-8.795-6.572-1.596-.616-3.11-1.323-4.543-2.25-1.119-.725-1.944-1.789-2.82-2.78-.28-.507-.534-1.032-.797-1.57a.428.428 0 0 0-.78.001c-.17.363-.099.846-.081 1.232.046 1.058.035 2.088.233 3.134.13.682.367 1.306.69 1.88-1.375-.81-2.748-1.624-4.023-2.585-2.194-1.655-3.26-3.874-4.205-6.383-1.825-4.855-.365-10.752 2.815-14.668.259-.319-.111-.725-.463-.596-1.379.5-2.757 1.335-3.985 2.374 1.394-3.75 1.557-8.043.432-11.652-.084-.27-.556-.212-.561.073-.004.311.019.622.051.933-.51 4.3-4.225 8.103-7.92 10.1-2.14 1.154-4.405 1.769-6.7 2.511-2.263.731-4.25 1.726-6.26 2.988-3.826 2.4-7.254 5.66-9.433 9.635a14.388 14.388 0 0 0-1.523 4.39 14.52 14.52 0 0 1-.216-1.184c-.196-1.445.4-2.802.313-4.193-.004-.057-.04-.096-.084-.126-.047-.047-.108-.06-.184-.029-.014.007-.026.004-.038.016l-.055.057c-4.321 4.253-5.572 10.82-2.745 16.2.73 1.388 1.674 2.608 2.766 3.736 1.28 1.327 3.139 2.326 4.047 3.964.96 1.73 1.719 2.822 1.621 4.893-.085 1.843-1.266 3.056-2.764 3.719.723-1.055.872-2.618.694-3.8-.348-2.315-1.497-3.702-3.577-4.677-.011-.005-.019 0-.028-.001l-.02-.04c-.138-.254-.539-.099-.423.178 1.119 2.662.909 4.899-.47 7.375-1.222 2.191-3.545 3.843-5.465 5.396-3.738 3.025-7.9 6.058-9.216 10.97-.605 2.254-.386 4.749 1.021 6.665.846 1.149 1.994 2.093 3.128 2.946 1.955 1.472 3.508 2.905 4.489 5.2.605 1.418.458 2.686.02 3.903a10.124 10.124 0 0 0-.866-2.117c-1.073-1.953-3.1-3.181-4.89-4.403-.463-.315-1.042.236-.695.697.982 1.303 2.047 2.33 1.834 4.11-.22 1.828-.913 3.24-2.108 4.605-.75.857-1.774 1.396-2.649 2.12-1.311.848-2.267 2.466-2.776 3.857-1.215 3.315.4 7.35 2.89 9.7 1.22 1.153 2.66 1.763 4.284 2.163 2.023.496 3.965 1.25 5.891 2.044 2.627 1.082 6.037 1.864 8.456.154.4-.043.8-.082 1.198-.082 1.439 0 3.294.045 4.579.724 1.175.623 1.968 1.301 3.303 1.512 1.243.197 2.482-.29 3.732-.205.623.042 1.553.155 2.365.106.197.15.394.298.616.422.622.352 1.47.346 2.157.528 1.734.464 3.39-.045 5.125-.051 1.18-.004 2.221.035 3.39.216.521.081 1.195.044 1.69-.124.667-.222 1.107-.56 1.574-.983 1.255 1.07 3.32 1.29 4.872 1.392 2.117.14 3.728-.785 5.629-1.48.952-.347 2.14.017 3.044-.41.752-.354 1.45-.764 2.204-1.085.557.385 1.08.824 1.723 1.097 1.454.614 3.16.14 4.466-.658.702-.429 1.14-1.167 1.93-1.398.406-.12 1.798-.56 2.03-.951.252-.431.297-.734.214-.957.206-.038.41-.079.61-.127.97-.228 1.823-.854 2.749-1.21.896-.344 1.6-.789 2.327-1.415 3.387-2.917 5.533-7.191 6.57-11.471.59-2.427.552-4.847.422-7.326-.126-2.364-.169-4.427-.953-6.696-.83-2.397-2.098-4.62-2.27-7.192-.198-2.95 1.822-6.032 4.356-7.45.339-.19.249-.798-.194-.71" fill="#ED2324" mask="url(#b)"/></g><path d="M96.695 67.107c-1.011 1.38-2.522 2.366-3.323 3.904-.931 1.794-1.485 3.859-1.502 5.888-.031 4.029 1.577 7.715 2.716 11.508.086.284-.22.441-.449.344a22.462 22.462 0 0 1-5.15-3.082c1.124 2.726 2.034 5.508 2.043 8.508.002.352-.497.405-.6.08-1.225-3.874-4.993-5.922-7.444-8.934-2.036-2.503-3.714-5.527-3.7-8.842.026-6.439 3.583-13.682 9.404-16.924.194-.109-2.618 8.218.078 10.852 1.54-2.525 4.756-3.7 7.664-3.761.215-.004.402.268.263.46M77.3 75.657c-.039.187-.29.285-.45.182-1.484-.956-2.234-3.988-2.448-5.589-.367-2.772-.089-5.43 1.544-7.77.104-.146.27-.158.4-.1.734-1.009 1.529-2.283 2.83-2.547.271-.057.464.2.345.448-1.26 2.58-1.861 5.42-2.028 8.276a76.219 76.219 0 0 0-.134 3.889c-.006 1.069.158 2.16-.06 3.21m2.431-36.75c-.012-.128.05-.253.215-.284 2.29-.436 4.119.986 5.708 2.464 1.917 1.781 3.764 3.79 5.07 6.071 2.309 4.029 3.874 9.923.98 14.056-.183.263-.535.148-.569-.153-.991-8.27-4.876-16.423-11.426-21.727-.16-.13-.105-.315.022-.427M62.047 21.97c-.812 1.365-1.831 2.527-3.004 3.533 1.534-.154 3.09.093 4.051 1.346.104.136.017.325-.111.408-1.826 1.191-3.869 1.988-5.682 3.214-1.956 1.32-3.93 2.721-5.644 4.34-6.634 6.272-6.719 10.698-6.824 10.714a3.038 3.038 0 0 1-.876.466c-.198.072-.375-.109-.387-.288-.288-4.417-.45-9.088 1.516-13.199.9-1.881 2.109-3.915 3.733-5.302 1.35-1.15 2.966-1.918 4.407-2.936 2.152-1.754 4.217-3.614 6.074-5.664 1.048-1.162 1.949-2.474 3.055-3.581 1.038-1.04 2.183-1.969 3.162-3.06.207-.232-1.72 7.064-3.47 10.009m-18.46 63.407c-1.259-.49-2.314-1.85-3.21-2.822-1.11-1.208-2.163-2.56-2.754-4.105-1.226-3.203-.792-6.61 1.19-9.41a.304.304 0 0 1 .321-.127c.827-1.033 1.957-1.867 3.438-2.391.212-.075.453.163.377.376-.484 1.344-1.29 2.59-1.547 4.005-.303 1.67-.265 3.344-.077 5.025.353 3.133 1.292 6.142 2.607 9.002.098.211-.067.556-.345.447m-3.16 9.996c-.763 2.75-2.863 4.933-4.076 7.488-1.402 2.956-2.992 6.343-1.887 9.647.08.24-.232.502-.448.343-2.061-1.498-3.555-3.722-3.944-6.264-.45-2.922.35-5.446 1.478-8.121 1.486-3.52 2.138-6.77.866-10.507-.528-1.56-.41-3.397-1.303-4.779-.378-.585-1.61-.85-1.672-1.568-.03-.013-.058-.03-.09-.043-.363-.145-.205-.735.161-.588 3.3 1.327 5.904 3.885 7.443 7.074.784 1.623 1.454 3.418 1.55 5.235.08 1.555-.518 2.628-1.069 3.931.922-.586 1.654-1.412 2.478-2.144.223-.196.596-.009.512.296m63.247-24.205c-1.109.736-2.12 1.602-2.812 2.134-.545.42-1.288-.053-1.473-.599-.327-.952-.217-1.775.186-2.704.896-2.064 1.862-4.123 2.07-6.4.32-3.497-.064-6.409-1.163-9.365-.14 2.031-1.086 4.019-2.88 5.05-.831.476-1.602-.3-1.475-1.13.12-.78.267-1.545.416-2.306a1.037 1.037 0 0 1 .018-.36c1.776-7.77-5.727-15.48-12.27-18.25-2.474-1.047-5.092-2.717-6.695-4.932.11 1.543.596 3.04 1.54 4.353.652.906-.563 1.732-1.373 1.368a24.62 24.62 0 0 1-.304-.136c-5.83-.807-10.139-7.178-10.954-12.676-.674-4.545.295-11.245 4.22-14.501a13.847 13.847 0 0 0-3.166 2.028c1.283-3.449 1.51-7.352.665-10.767.235 2.749-.161 5.564-1.807 7.862-2.688 3.754-6.61 5.516-10.923 6.856-5.597 1.74-10.896 4.179-14.835 8.702-1.999 2.293-3.35 4.724-3.677 7.757-.09.843-.162 1.593-.776 2.205-.366.364-1.063.415-1.42 0a10.69 10.69 0 0 1-1.476-2.205c-.374 1.836-.35 3.727.367 5.536 1.073 2.71 2.847 4.436 4.906 6.387 2.224 2.107 4.131 4.648 4.655 7.748.984 5.81-7.4 13.477-6.058 4.035-1.542 4.982-5.504 7.778-9.31 10.968-1.18.989-2.22 2.107-2.843 3.536-2.08 4.765 1.387 8.693 3.81 12.498 2.113 3.312 3.173 6.69.902 10.213-.676 1.048-2.325.138-1.785-.911-1.14-2.38-2.67-4.151-4.702-5.556.5.555.905 1.174 1.137 1.88.73 1.052 1.176 2.242 1.072 3.518-.28 3.422-2.452 4.734-4.491 7.188-3.559 4.286-.768 9.424 3.4 11.941 1.305.789 2.751 1.403 4.183 1.93 3.56 1.304 6.764.454 10.29-.464 1.107-.289 2.12.18 2.981.81 1.093.794 1.911.648 3.085.948.572.146 1.065.379 1.538.63-1.956-1.608-3.054-4.164-2.886-6.907.144-2.405 1.124-4.148 2.404-6.137.923-1.437 2.05-3.482.88-5.121-.798-1.114-2.024-1.74-3.15-2.468a.308.308 0 0 1 0-.526c1.007-.625 2.296-.939 3.475-.698 1.362.277 1.943.918 3.054 1.58 1.332.793.148-2.725-.022-3.046-.67-1.28-1.73-2.323-2.621-3.446-1.618-2.042-2.74-4.388-2.301-7.06.1-.604.256-1.19.445-1.764.77-3.972 3.721-6.772 6.573-9.594.216-.214.592.002.51.297-.63 2.264-2.152 5.238-1.013 7.535.709-1.34 1.043-2.912 1.729-4.273.71-1.416 1.503-2.83 2.554-4.029 2.071-2.36 4.176-4.58 7.206-5.653a.255.255 0 0 1 .304.085c.138.014.257.106.237.285-.206 1.702-.959 3.382-.918 5.104.037 1.55.423 2.991.815 4.465 1.008-1.346 2.307-2.316 3.919-2.93.275-.104.447.234.345.45-.816 1.696-1.46 3.686-.774 5.546.665 1.806 2.055 3.026 3.263 4.465 2.067 2.462 3.789 5.144 5.295 7.976.356-1.138.463-2.318.587-3.515.03-.272.422-.452.57-.154 3.482 6.952 7.165 15.49 3.649 23.21-.858 1.88-2.248 3.706-3.891 5.202.723-.416 1.524-.637 2.397-.331 2.124.743 2.85-.692 4.652-1.311 1.666-.572 2.84 2.41 4.413.43.88-1.111 1.855-1.987 3.336-2.147 1.816-.196 3.591-.016 5.217-1.048a14.527 14.527 0 0 0 2.537-2.017c2.081-2.679 3.557-6.017 4.026-8.758 1.009-5.912-1.898-10.07-3.213-15.56-1.136-4.755.045-10.135 3.624-12.956" fill="#F6842A"/><path d="M40.426 95.374c-.76 2.749-2.862 4.933-4.075 7.487-1.403 2.956-2.992 6.344-1.886 9.646.08.242-.233.503-.45.344-2.06-1.498-3.554-3.721-3.943-6.264-.45-2.921.35-5.446 1.479-8.12 1.485-3.521 2.136-6.772.865-10.508-.529-1.56-.411-3.397-1.303-4.78-.378-.584-1.61-.85-1.67-1.567-.032-.013-.06-.03-.093-.043-.36-.145-.203-.734.162-.589 3.299 1.328 5.905 3.886 7.444 7.076.783 1.622 1.454 3.416 1.548 5.235.08 1.554-.516 2.628-1.068 3.93.921-.586 1.654-1.411 2.478-2.143.223-.196.596-.01.512.296m7.154-6.157a14.5 14.5 0 0 1-.947-1.335 8.342 8.342 0 0 1-1.193 3.3c-.12.191-.41.202-.528 0-.762-1.307-1.277-2.717-1.787-4.129-.167 2.386-1.057 4.892-1.966 6.415-.14.233-.478.174-.56-.075-.695-2.141-1.154-4.57-2.481-6.434-1.224-1.714-2.85-3.068-4.165-4.706-1.72-2.147-2.051-5.135-1.724-7.842a19.539 19.539 0 0 0-2.198 6.184c-.045.251-.452.307-.558.074-1.452-3.19-2.109-6.601-1.21-10.045.4-1.549.989-3.03 1.647-4.486-.677.56-1.361 1.12-2.041 1.689-1.18.988-2.22 2.107-2.843 3.535-2.079 4.764 1.386 8.693 3.811 12.498 2.112 3.313 3.173 6.69.901 10.212-.675 1.049-2.324.138-1.785-.91-1.14-2.381-2.67-4.15-4.702-5.555.5.554.905 1.173 1.138 1.88.73 1.051 1.174 2.241 1.07 3.517-.28 3.421-2.451 4.734-4.49 7.188-3.56 4.285-.768 9.424 3.399 11.941 1.306.788 2.753 1.403 4.184 1.929 3.56 1.304 6.764.454 10.29-.463 1.107-.288 2.12.18 2.982.809 1.091.794 1.911.649 3.083.948.573.148 1.066.38 1.54.631-1.957-1.607-3.054-4.163-2.888-6.907.145-2.404 1.125-4.147 2.404-6.136.924-1.438 2.052-3.483.88-5.122-.797-1.114-2.023-1.74-3.148-2.467a.309.309 0 0 1 0-.527c1.006-.625 2.296-.938 3.475-.697 1.36.275 1.942.918 3.053 1.578 1.332.793.147-2.723-.022-3.045-.67-1.28-1.73-2.323-2.621-3.447m52.47-5.093c-.559-2.34-.555-4.83.019-7.093-2.296 5.867-.82 13.37-.478 19.634.019.327-.408.385-.57.154-2.188-3.125-4.141-6.808-5.02-10.623-.009.1-.015.199-.023.298.209.635.416 1.274.609 1.913.084.283-.22.442-.45.345-.087-.037-.172-.083-.259-.122-.014 1.187.049 2.383.263 3.612.48 2.74 1.173 5.445 1.323 8.233.017.31-.42.406-.57.155-2.107-3.574-3.322-7.771-4.76-11.827.065.207.116.414.174.62 1.907 4.516.38 8.982-1.918 13.187-.15.273-.562.14-.57-.155-.13-5.415-1.932-10.365-4.039-15.237.155 2.984.007 5.968-.557 8.918-.067.348-.594.254-.6-.08-.066-3.805-1.566-6.857-3.614-9.65-.106.006-.216-.036-.27-.14-.128-.244-.258-.486-.39-.732-1.264-1.61-2.683-3.15-4.083-4.714-1.425-1.593-2.727-3.444-3.096-5.595a11.173 11.173 0 0 1-.145-2.224c-.773 2.832-1.202 5.682-1.048 8.574.168.188.335.378.495.572 2.068 2.462 3.79 5.144 5.295 7.976.358-1.138.464-2.318.588-3.515.03-.272.422-.452.57-.154 3.483 6.952 7.166 15.49 3.65 23.21-.858 1.88-2.25 3.706-3.893 5.203.724-.418 1.525-.638 2.399-.332 2.123.743 2.85-.692 4.65-1.31 1.667-.573 2.842 2.407 4.414.429.881-1.112 1.854-1.988 3.337-2.146 1.814-.196 3.59-.017 5.216-1.05a14.486 14.486 0 0 0 2.537-2.015c2.082-2.68 3.557-6.018 4.025-8.76 1.01-5.91-1.896-10.069-3.211-15.56" fill="#F05F22"/><path d="M43.008 44.055c.303.636.348 1.68.817 2.177.265.28.647.157.744-.2.327-1.196.338-2.571.541-3.825 1.09-2.995 3.14-5.736 5.377-7.878 2.883-2.76 5.907-5.41 9.73-6.762.426-.151.257-.706-.108-.796-1.326-.324-3.05.236-4.3.68-.515.184-1.01.41-1.487.666.183-.149.375-.292.583-.425 1.347-.87 2.465-1.877 3.537-3.066 1.093-1.217 1.635-2.716 2.338-4.166.78-1.61 1.512-3.234 2.444-4.767.26-.43-.327-.911-.635-.484-1.485 2.05-4.012 3.704-6.206 4.871-2.097 1.116-4.262 2.1-6.257 3.394-1.725 1.12-3.292 2.953-4.277 4.737a8.16 8.16 0 0 0-.964 2.791c-.298-1.624-.029-3.349.44-4.992.09-.326-.27-.735-.588-.446-1.34 1.215-2.533 2.771-3.573 4.244-1.28 1.82-1.681 3.828-1.837 5.99-.144 2.02.678 3.89 1.871 5.467.661.872 1.337 1.802 1.81 2.79" fill="#FFCC05"/><path d="M63.085 15.111c-.68 1.951-1.914 3.829-2.953 5.257-1.34 1.842-2.963 3.427-4.79 4.794-1.635 1.22-3.633 2.059-5.026 3.563 1.377-.42 2.94-.777 4.184-.051.245.14.166.466-.073.556-5.705 2.15-9.546 6.429-10.715 12.434-.047.238-.354.276-.512.136-2.336-2.1-2.68-5.474-2.333-8.422.18-1.521.653-3.05 1.267-4.448.169-.384.35-.767.549-1.144a39.476 39.476 0 0 0-1.518 2.023c-1.281 1.819-1.683 3.827-1.838 5.99-.144 2.019.678 3.89 1.872 5.467.66.872 1.337 1.801 1.808 2.79.304.635.349 1.679.818 2.176.265.279.647.157.745-.2.326-1.197.338-2.572.54-3.825 1.09-2.994 3.14-5.737 5.376-7.879 2.885-2.76 5.91-5.41 9.73-6.76.427-.152.258-.708-.107-.797-1.327-.324-3.05.236-4.3.68-.515.184-1.01.41-1.487.665.183-.148.375-.29.584-.425 1.346-.87 2.464-1.875 3.536-3.065 1.094-1.217 1.635-2.715 2.338-4.165.781-1.61 1.513-3.235 2.444-4.767.14-.23.034-.471-.14-.583" fill="#FAC510"/><path d="M82.205 39.901c.236.12 5.93 6.5 7.353 10.08 1.388 3.49 2.223 7.15 2.082 10.89-.011.31.301.682.642.49 1.71-.96 2.853-3.567 3.204-5.39.464-2.42-.013-5.282-1.362-7.364-1.46-2.252-3.07-4.335-5.085-6.13-1.73-1.537-3.643-2.203-5.645-3.104a4.408 4.408 0 0 0-.684-.317l-.126-.058-.002.01c-.041-.011-.08-.033-.12-.043-.567-.153-.724.703-.257.936M43.618 85.056c-.46-.988-1.163-1.857-1.704-2.801-.802-1.395-1.386-2.977-1.88-4.503-.59-1.813-.738-3.696-.6-5.59.107-1.44.662-2.547 1.291-3.806.214-.433-.375-.855-.734-.56-.13.105-.251.22-.37.335-3.293 1.537-4.455 5.438-4.099 8.9.416 4.008 4.06 7.109 7.486 8.635.367.166.782-.242.61-.61m33.06-8.902c.212.034.378-.095.472-.27.238-.436-.094-.861-.197-1.294-.345-1.444-.69-2.803-.834-4.288-.299-3.037-.13-6.223 1.692-8.77a.452.452 0 0 0 .08-.229c.091-.104.044-.294-.083-.341-.117-.182-.333-.29-.571-.169-.313.161-.62.368-.914.6-2.745 1.2-4.126 4.028-4.22 7.138-.052 1.763.809 3.472 1.722 4.935.552.886 1.7 2.497 2.853 2.688M96.881 87.71c-.534-1.393-1.34-2.6-2.195-3.81-1.113-1.58-1.797-3.193-2.426-4.997-.598-1.71-.574-3.456-.275-5.222.264-1.565 1.27-2.704 1.75-4.15.103-.312-.167-.578-.476-.472-1.41.469-2.565 2.044-3.491 3.137-.81.957-1.546 2.068-2.003 3.258-.744-1.622-1.39-3.264-1.516-5.166-.211-3.18.351-6.63 1.74-9.511.085-.174-.139-.32-.28-.216-.321.232-.575.559-.793.926-.192.152-.38.307-.548.484-.587.619-1.049 1.34-1.49 2.063-.859 1.4-1.475 2.944-2.039 4.477-1.163 3.176-1.733 6.261-1.242 9.638.466 3.198 1.935 6.002 3.783 8.61.973 1.374 2.327 2.377 3.285 3.767.513.746.93 1.591 1.262 2.43.305.773.146 1.527.387 2.284.088.274.476.345.686.176 1.006-.815.865-2.915.86-4.073-.002-.081-.01-.163-.014-.245a63.41 63.41 0 0 1 1.69 3.091c.743 1.468.958 2.98 1.093 4.594.14 1.686-.237 3.016-.536 4.6-.073.386.436.684.735.423.873-.762 1.447-1.691 1.888-2.752.619-1.485 1.207-3.01 1.617-4.567.765-2.9-.42-6.08-1.452-8.777" fill="#FFCC05"/><path d="M96.881 87.71c-.534-1.393-1.34-2.6-2.195-3.81-1.113-1.58-1.797-3.193-2.426-4.997-.598-1.71-.574-3.456-.275-5.222.196-1.157.793-2.08 1.287-3.067-2.235 2.625-3.281 6.021-1.757 9.643 1.822 4.33 4.964 8.81 4.167 13.746-.042.263-.444.293-.558.074-1.01-1.933-1.463-4.11-2.498-6.022-.91-1.676-2.1-3.273-3.365-4.734.385 1.431.849 2.84 1.223 4.273.065.243-.218.504-.447.344-5.838-4.05-8.636-12.633-7.055-19.8l-.143.373c-1.163 3.176-1.733 6.261-1.242 9.638.466 3.198 1.935 6.002 3.783 8.61.973 1.374 2.327 2.377 3.285 3.767.513.746.93 1.591 1.262 2.43.305.773.146 1.527.387 2.284.088.274.476.345.686.176 1.006-.815.865-2.915.86-4.073-.002-.081-.01-.163-.014-.245a63.41 63.41 0 0 1 1.69 3.091c.743 1.468.958 2.98 1.093 4.594.14 1.686-.237 3.016-.536 4.6-.073.386.436.684.735.423.873-.762 1.447-1.691 1.888-2.752.619-1.485 1.207-3.01 1.617-4.567.765-2.9-.42-6.08-1.452-8.777" fill="#FAC510"/><path d="M34.436 98.883c1.155-1.993 2.072-4.142 1.783-6.462-.296-2.372-.872-4.48-2.315-6.393-1.413-1.874-2.823-3.447-4.656-4.913-.081-.065-.173-.048-.24.003-.133-.034-.251.13-.17.263.418.666 1.007 1.246 1.482 1.88.973 1.293 1.483 2.725 1.865 4.28.589 2.395-.164 4.483-1.133 6.65-.873 1.955-2.38 3.535-3.139 5.57-.382 1.024-.603 1.92-.615 2.811-.154-.37-.293-.742-.4-1.112-.21-.724-.512-1.448-.47-2.223.02-.353.023-.659-.107-.99-.122-.306-.56-.355-.755-.096-.72.963-1.273 2.593-1.56 3.748-.441 1.781-.225 3.336.687 4.935 1.59 2.792 5.1 4.23 8.088 5.26.245.234.518.421.876.43.212.004.366-.112.418-.28.116-.146.135-.354-.067-.476a.185.185 0 0 0-.027-.016c-.224-.524-.575-.982-.77-1.548-.458-1.335-.44-2.565-.135-3.931.45-2.028 1.633-3.759 2.533-5.6.172-.316-.365-.626-.546-.316a2.42 2.42 0 0 1-.04.07c-.423.83-1.17 1.524-1.803 2.193-.455.48-.892.999-1.402 1.42.167-.675.38-1.337.689-1.95.559-1.102 1.307-2.136 1.929-3.207" fill="#FFCC05"/><path d="M34.008 111.768a.16.16 0 0 0-.027-.016c-.224-.525-.575-.983-.769-1.547-.458-1.336-.44-2.567-.137-3.932.298-1.337.914-2.545 1.558-3.74-.18.192-.348.4-.506.628-1.423 2.086-2.027 4.096-1.715 6.608.022.184-.216.366-.387.295-3.072-1.292-6.828-4.17-6.175-7.919.047-.273.43-.278.558-.073.957 1.548 1.73 3.55 3.378 4.473-.537-1.883-.839-3.88-.206-5.782.8-2.4 2.708-4.286 3.437-6.687.707-2.327.179-5.248-.651-7.5-.767-2.078-1.965-3.84-3.534-5.358a.168.168 0 0 0 .007.162c.417.668 1.006 1.248 1.481 1.88.973 1.294 1.483 2.726 1.866 4.281.588 2.396-.165 4.482-1.133 6.65-.873 1.954-2.382 3.536-3.14 5.571-.382 1.023-.603 1.918-.615 2.81a10.762 10.762 0 0 1-.4-1.112c-.21-.723-.512-1.448-.47-2.224.019-.352.023-.658-.107-.99-.122-.305-.56-.354-.755-.094-.72.962-1.273 2.593-1.56 3.747-.44 1.782-.225 3.335.687 4.935 1.59 2.792 5.1 4.229 8.088 5.26.245.233.518.42.876.43.212.004.366-.113.418-.28.116-.147.135-.354-.067-.476" fill="#FAC510"/><path d="M77.207 93.708c-.029-.054-.045-.113-.076-.166-.096-.158-.341-.06-.366.1-.096.64.052 1.307.05 1.957-.003 1.003-.434 2.166-.776 3.095-.382 1.038-1.052 1.98-1.825 2.834 1.017-2.548.747-5.41.365-8.108-.435-3.065-2.266-6.076-4.194-8.449-1.07-1.32-2.401-2.385-3.544-3.638-.735-.805-1.36-1.54-1.458-2.684-.063-.702.026-1.41-.051-2.107l.024-.054c.074-.173-.086-.325-.246-.3a.208.208 0 0 0-.198.12c-.97.812-1.513 2.315-1.798 3.496-.071.3-.106.6-.127.9-.668-1.668-1.043-3.429-1.228-5.215-.206-1.989-.015-4.138.389-6.092.207-1.008.473-1.919.895-2.86.203-.453.466-.909.45-1.405a.166.166 0 0 0-.007-.121l-.001-.019c-.026-.187-.284-.269-.401-.105-.015.02-.025.04-.039.059-6.144 4.13-12.121 11.455-11.987 19.208a7.414 7.414 0 0 1-1.07-1.727c-.78-1.766-.948-3.408-.633-5.287.022-.133-.103-.23-.22-.23a.195.195 0 0 0-.172.004c-1.5.709-2.838 2.88-3.205 4.462a8.563 8.563 0 0 0 1.11 6.465c1.243 1.98 3.479 2.834 4.923 4.592 1.087 1.325 1.063 3.412.548 4.918-.334.983-.816 1.791-1.373 2.582-.173-.655-.46-1.274-.9-1.775-.701-.793-2.107-1.664-3.174-1.696-.29-.009-.407.357-.136.49.02.012.041.023.061.033 1.98 1.658.938 4.093-.378 5.788-1.064 1.37-2.205 2.228-2.792 3.945-1.028 3.004 1.263 5.714 3.19 7.745 2.32 2.444 5.268 4.098 8.603 4.58 1.576.228 3.275.235 4.862-.11 5.088.813 10.894-1.436 14.724-4.585 2.744-2.254 3.743-6.04 4.335-9.374.323-1.823-.029-3.818-.346-5.625-.328-1.878-.67-4.05-1.808-5.64" fill="#FFCC05"/><path d="M79.015 99.35c-.327-1.879-.67-4.05-1.808-5.642-.029-.054-.045-.113-.077-.166-.095-.159-.34-.06-.365.1-.096.64.052 1.307.05 1.957-.003 1.003-.434 2.166-.776 3.095-.382 1.038-1.052 1.98-1.825 2.834 1.017-2.548.747-5.41.365-8.108-.435-3.064-2.266-6.076-4.194-8.449-1.07-1.32-2.402-2.385-3.545-3.637-.734-.806-1.359-1.542-1.457-2.686-.063-.7.026-1.409-.052-2.106a.739.739 0 0 1 .026-.054c.073-.173-.087-.325-.247-.3-.084-.005-.156.04-.198.12-.97.811-1.513 2.315-1.798 3.496-.072.3-.106.6-.127.9-.669-1.668-1.044-3.43-1.227-5.215-.207-1.988-.016-4.138.388-6.092.207-1.008.473-1.918.894-2.86.204-.453.466-.91.45-1.405.008-.023-.001-.042-.002-.063-1.57.907-2.75 2.713-3.619 4.165-1.269 2.124-2.174 4.408-2.628 6.847-.59 3.179-.526 6.354.335 9.477.505 1.836 1.02 4.268 2.672 5.44 1.578-2.899 1.99-6.308 4.947-8.258.27-.179.553.16.42.416-1.213 2.31-1.213 5.51-.35 7.953.842 2.383 2.767 4.113 3.823 6.384 1.568 3.375 1.896 7.355-.62 10.389-2.175 2.626-5.906 4.749-9.44 4.118a6.885 6.885 0 0 1-.494-.11c-.079.009-.152.02-.231.028-3.44.29-7.088-.793-9.325-3.518-.818-.996-1.045-2.357-.647-3.577.292-.892.771-1.8.709-2.766-.05-.769-.207-1.529-.3-2.294-.04-.33.416-.373.57-.154.856 1.217 1.142 2.652 1.773 3.965 1.326-2.43 3.327-4.67 4.023-7.366.952-3.684-1.49-6.093-4.268-8.067-2.001-1.425-3.853-3.2-3.955-5.824-.07-1.789.438-3.431 1.318-4.898-1.172.954-2.141 2.65-2.444 3.957a8.555 8.555 0 0 0 1.11 6.465c1.242 1.98 3.478 2.834 4.922 4.592 1.088 1.325 1.062 3.412.549 4.917-.336.984-.817 1.791-1.373 2.583-.174-.655-.46-1.274-.902-1.775-.7-.793-2.106-1.664-3.173-1.696-.29-.008-.407.356-.136.49.02.012.04.023.061.033 1.98 1.658.937 4.094-.378 5.787-1.063 1.37-2.205 2.23-2.791 3.946-1.029 3.004 1.261 5.714 3.188 7.745 2.322 2.444 5.269 4.098 8.605 4.58 1.576.228 3.273.235 4.862-.11 5.086.813 10.893-1.435 14.723-4.585 2.745-2.254 3.743-6.04 4.335-9.373.324-1.824-.029-3.818-.346-5.626" fill="#FAC510"/><path d="M89.67 9.625c-2.418 2.43-4.285 5.23-3.36 8.954.483 1.938 1.51 4.07 2.901 5.535.279.293.573.562.875.82l-.04-.081c-.924-2.133.945-3.787.756-5.882-.218-2.427-2.302-4.643-1.976-7.131.11-.834.424-1.552.844-2.215" fill="#ED2324"/><path d="M90.81 19.175c-.628-1.35-1.846-2.601-2.495-3.953a4.677 4.677 0 0 1-.47-1.83c-.3.704-.528 1.447-.668 2.232-.347 1.922-.25 4.134.307 6.014.48.915 1.06 1.772 1.727 2.476.278.293.573.562.875.82l-.04-.081c-.893-2.063.82-3.678.763-5.678" fill="#F6842A"/><g transform="translate(9 83.562)"><mask id="d" fill="#fff"><use xlink:href="#c"/></mask><path d="M3.422 11.535c.361.253.729.5 1.11.736a.428.428 0 0 0 .134.053c-.684-2.507.556-5.525-.927-7.91C3.156 3.471 1.423 1.865.947.418c-2.015 3.533-.64 8.483 2.475 11.116" fill="#ED2324" mask="url(#d)"/></g><path d="M13.358 89.588a3.446 3.446 0 0 0-.46-.924c-.615-.854-1.453-1.395-2.184-2.128-.359-.36-.62-.704-.796-1.057-.487 1.489-.666 3.08-.331 4.583.506 2.287 1.824 4.148 3.619 5.555.11.07.213.145.325.215a.427.427 0 0 0 .136.054c-.539-1.97.107-4.253-.309-6.298" fill="#F6842A"/><path d="M13.604 95.604c-.28-1.3-.116-2.72-.102-4.109-.19-1.363-.833-2.385-1.966-3.285-.41-.325-.84-.668-1.208-1.06-.44 3.158 1.111 6.14 3.276 8.454" fill="#FFCC05"/><path d="M23.818 56.858c-.204-2.683-1.579-5.058-2.135-7.65-.133.958-.382 1.865-.991 2.68-.943 1.264-2.071 2.447-2.457 4.025-.665 2.717.223 5.331 1.896 7.434a.49.49 0 0 0 .24-.086c.173-.796.577-1.51 1.114-2.225.96-1.28 2.465-2.406 2.333-4.178m.085-39.732c-1.9 2.874-4.97 6.23-2.532 9.577.59.812 1.675 1.41 2.55 2.121 1.376-2.258 1.8-4.833.923-7.576-.391-1.224-.99-2.743-.94-4.122" fill="#ED2324"/><path d="M22.97 55.234c-.399-1.354-1.01-2.662-1.228-4.018-.367.925-1.03 1.794-1.605 2.49-1.35 1.638-2.4 3.644-1.876 5.833.24 1.001.644 1.9 1.138 2.766.222.358.468.707.732 1.041a.489.489 0 0 0 .24-.085c.173-.795.577-1.51 1.114-2.225.47-.626 1.068-1.216 1.543-1.862.496-1.259.325-2.643-.057-3.94" fill="#F6842A"/><path d="M21.65 52.648c-.627 1.222-1.827 2.223-2.417 3.449-1.264 2.63-.58 5.028.997 7.215.048-.015.099-.022.14-.051.014-.06.036-.118.052-.177.002-.338.057-.686.18-1.064.498-1.544 2.002-2.366 2.08-4.145.082-1.84-.748-3.52-1.032-5.227" fill="#FFCC05"/><path d="M24.153 21.11c-.493-1.001-.605-1.813-.501-2.644-.665 1.104-1.637 2.063-2.18 3.234-.618 1.335-.88 2.711-.67 3.976.141.342.318.686.57 1.026.59.813 1.674 1.411 2.55 2.122.847-1.392 1.33-2.907 1.374-4.505-.19-1.136-.624-2.156-1.143-3.209" fill="#F6842A"/><path d="M90.085 24.932c-.013-.026-.026-.052-.038-.08-.636-1.469.05-2.712.476-4.028-.316-1.445-1.309-2.662-2.01-4.077-.317-.642-.587-1.308-.69-1.975-.767 3.532-.03 7.38 2.262 10.16m-66.577-3.239a3.517 3.517 0 0 1-.31-1.689c-1.23 1.995-2.302 4.352-1.937 6.527.038.058.068.114.11.172.59.812 1.675 1.41 2.55 2.12a9.283 9.283 0 0 0 1.25-3.269c-.348-1.31-1.052-2.54-1.663-3.86" fill="#FFCC05"/><path d="M107.503 49.519c1.053-1.156.44-2.301.668-3.643.277-1.645 1.395-2.815 2.804-3.547-1.204.056-2.608.257-3.478.834-1.64 1.087-1.172 2.783-1.316 4.418-.106 1.195-.951 2.437-2.022 3.156.008.065.032.13.065.186 1.226-.113 2.448-.493 3.279-1.404" fill="#ED2324"/><path d="M108.115 46.592c-.155-.954-.224-1.904.246-2.717.376-.652.797-1.075 1.3-1.377-1.183.334-2.334.998-2.586 2.122-.305 1.362.047 2.746-.397 4.078a4.02 4.02 0 0 1-1.635 2.104c.935-.19 1.815-.576 2.46-1.284.86-.945.608-1.883.612-2.926" fill="#F6842A"/><path d="M107.703 44.701c.032-.154.081-.293.128-.435-.421.718-.56 1.575-.51 2.742.047 1.096.016 1.97-.569 2.92-.08.13-.176.255-.285.373a3.71 3.71 0 0 0 1.035-.782c.406-.444.559-.888.614-1.34-.073-.494-.203-1.006-.336-1.581-.145-.63-.21-1.254-.077-1.897" fill="#FFCC05"/></g></svg>