<svg width="120" height="120" viewBox="0 0 120 120" xmlns="http://www.w3.org/2000/svg" xmlns:xlink="http://www.w3.org/1999/xlink"><defs><path id="a" d="M.2.3h13.173v5.567H.2z"/></defs><g fill="none" fill-rule="evenodd"><path d="M83.381 39.846a20.27 20.27 0 0 0 .223-3.015c0-11.071-8.928-20.047-19.941-20.047-11.014 0-19.943 8.976-19.943 20.047 0 .977.068 1.934.202 2.875-1.15.632-1.929 1.832-1.929 3.204 0 2.034 1.704 3.682 3.809 3.682.141 0 .283-.009.424-.025 3.405 6.151 9.936 10.312 17.437 10.312 7.492 0 14.02-4.153 17.426-10.291.06.002.117.004.177.004 2.1 0 3.806-1.648 3.806-3.682 0-1.278-.672-2.403-1.69-3.064" fill="#FDDFBB"/><path d="M57.229 34.096c-.772-.174-.908-1.201-3.386-.74-.779.18-2.417 1.156-2.732 1.808-.316.652-.088-2.392 2.457-3.522 1.835-.675 2.457-.642 3.977-.642s1.987.907 1.766 1.65c0 0-.503 1.803-2.082 1.446zm13.905 0c.772-.174.908-1.201 3.386-.74.779.18 2.417 1.156 2.732 1.808.316.652.087-2.392-2.457-3.522-1.835-.675-2.457-.642-3.977-.642s-1.987.907-1.766 1.65c0 0 .503 1.803 2.082 1.446z" fill="#AD6922"/><path d="M57 40c0 1.657-.895 3-2 3s-2-1.343-2-3 .895-3 2-3 2 1.343 2 3m18 0c0 1.657-.895 3-2 3s-2-1.343-2-3 .895-3 2-3 2 1.343 2 3" fill="#6172BB"/><path d="M64.02 43.07c.839-.115 2.96 1.756 2.96 1.756s.103-.414-.34-1.238C66.163 42.703 63.99 42 63.99 42s-1.687.448-2.487 1.604c-.296.29-.503 1.299-.503 1.299s1.895-1.681 3.02-1.834z" fill="#EEAC6C"/><g transform="translate(57 46)"><mask id="b" fill="#fff"><use xlink:href="#a"/></mask><path d="M.2.696S7.097 3.904 13.372.299c0 0-1.39 5.47-5.95 5.561-4.115.122-4.984-1.492-5.477-1.956C1.453 3.441.525 2.132.2.696" fill="#EEAC6C" mask="url(#b)"/></g><path d="M84.395 34.219a40.866 40.866 0 0 0-.237-3.684c-2.681-8.822-10.843-15.239-20.497-15.239-8.403 0-15.677 4.863-19.183 11.943-.97 2.785-1.567 5.524-1.617 6.76-.172 4.284 2.94 10.706 2.94 10.706-.375-7.057-.296-7.045 1.395-8.266 2.105-1.52 6.54-4.353 8.25-6.31.326-.374 1-1.715 1-1.715s-.065 1.054.52 1.518c3.53 2.8 13.942-.313 17.89 1.847 3.23 1.766 7.153 12.926 7.153 12.926 1.595-3.036 2.417-8.132 2.386-10.486" fill="#AD6922"/><path d="M84.38 33.543V8.331a4.535 4.535 0 0 0-4.553-4.556H47.413c-2.528 0-4.593 2.02-4.593 4.556v25.212h41.56z" fill="#343434"/><path fill="#E63744" d="M63.715 25.096l.936 1.907 2.094.307-1.514 1.485.356 2.095-1.872-.99-1.872.99.355-2.096-1.514-1.484 2.095-.307z"/><path fill="#343434" d="M63.353 103.366l.168-8.447h.252l.169 8.447h9.466l1.1-14.768H52.784l1.103 14.768z"/><path d="M63.317 104.48a1.826 1.826 0 0 0-1.44-2.952h-8.176c-1.011 0-1.83.822-1.83 1.838 0 1.017.819 1.84 1.83 1.84h.364l.615 6.359c-1.576.983-2.718 2.969-1.372 4.594 1.02 1.147 2.518.236 3.658-.245 1.263-.602 2.7-1.027 3.84-1.81.734-.52 1.602-1.084 2.099-1.853.154-.24.224-.473.172-.695l.24-7.075z" fill="#515151"/><path d="M73.708 105.206c1.011 0 1.83-.824 1.83-1.84a1.834 1.834 0 0 0-1.83-1.838h-8.174c-1.01 0-1.83.813-1.83 1.83 0 .35.097.675.268.955l.25 7.245c-.057.223.016.458.17.696.497.77 1.365 1.33 2.099 1.848 1.14.784 2.579 1.205 3.84 1.807 1.14.485 2.639 1.39 3.658.245 1.348-1.625.202-3.605-1.37-4.59l.613-6.358h.476z" fill="#515151"/><path d="M79.15 80.396l4.173.005s-1.228-12.385-4.435-16.5c-1.416-1.82-5.52-4.144-6.26-4.554-1.833-1.192-7.339-1.371-7.339-1.371l-1.535.048h-.131l-1.533-.048s-5.529.196-7.35 1.394l-9.352 3.689-4.732-5.713-4.175 2.064s3.854 8.132 6.467 9.083c2.02.738 8.151-2.022 8.665-2.256-2.045 8.884-1.824 22.324-1.824 22.324l.01 4.103 8.247 4.688 6.112-11.668 5.008 11.668 8.43-4.655-.006-4.138s.177-10.88-1.273-19.533l.217.314c1.487 2.116 2.616 11.056 2.616 11.056" fill="#E63744"/><path d="M35.639 50.511c1.05-.447 2.306-.038 3.33.95.46-.701 1.006-1.088 1.512-.992.948.186 1.393 2.005.994 4.067a7.24 7.24 0 0 1-.711 2.053c-.17 1.092-.718 1.966-1.581 2.332-1.608.686-3.707-.642-4.686-2.965-.98-2.323-.466-4.761 1.142-5.445m48.473 32.485c-.218-2.07-1.558-3.624-2.99-3.471-.772.082-1.409.64-1.806 1.46-.377.37-.745.865-1.053 1.448-.807 1.531-.89 3.074-.185 3.448.375.203.899.025 1.43-.414.571 1.023 1.466 1.652 2.402 1.552 1.433-.15 2.419-1.955 2.202-4.023" fill="#FDDFBB"/><path d="M58.478 65.327l7.99-5.334a1.9 1.9 0 0 0 .293-.198l.116-.078-.01-.016c.035-.036.066-.071.097-.105.468-.583 0-2.99 0-2.99-1.075.18-2.177.272-3.303.272-1.112 0-2.206-.09-3.271-.268 0 0-.525 2.46 0 2.986.2.199.493.37.85.506l-6.196 4.138.077.12-.075.043 14.121 32.944 2.455-1.354-13.144-30.666z" fill="#F7B90B"/><path d="M77.572 84.805H49.806c-.042 2.298-.017 3.79-.017 3.79h27.802s.025-1.492-.02-3.79" fill="#343434"/><path d="M37.98 62.29c-1.67-.743-1.499-2.88-1.499-2.88l4.175-2.066s2.317 1.764 2.142 2.586c-.28 1.318-3.592 2.904-4.817 2.36m44.917 14.852c1.466 1.267.42 3.236.424 3.293h-.915l-3.257-.021s-1.548-1.73-.491-3.272c.599-.878 3.436-.694 4.239 0" fill="#F7B90B"/></g></svg>