<svg width="120" height="120" viewBox="0 0 120 120" xmlns="http://www.w3.org/2000/svg" xmlns:xlink="http://www.w3.org/1999/xlink"><defs><path id="a" d="M6.2 14.3h13.173v5.567H6.2z"/></defs><g fill="none" fill-rule="evenodd"><path d="M75.823 59.705l5.27-6.18a4.12 4.12 0 0 1-.198-.793c-.339-.617-.616-1.387-.783-2.245-.437-2.238.049-4.224 1.089-4.425.555-.109 1.153.319 1.66 1.078 1.117-1.071 2.498-1.518 3.65-1.034 1.761.746 2.323 3.404 1.25 5.932-.693 1.621-1.882 2.795-3.116 3.232l.002.006s-3.285 9.312-6.145 10.349c-2.318.835-10.482-2.477-10.482-2.477s-.662-2.533-1.001-3.334c-.468-1.097-2.371-4.106-2.371-4.106l11.175 3.997zm-36.753 1.41c-3.512 4.486-4.858 17.943-4.851 17.904-.453.652-.77 1.5-.87 2.45-.24 2.256.841 4.215 2.408 4.381 1.03.11 2.01-.574 2.635-1.689.584.48 1.158.67 1.57.45.773-.406.681-2.088-.208-3.755a6.223 6.223 0 0 0-1.154-1.578c-.03-.07-.068-.135-.103-.2 0 0 1.528-9.736 3.158-12.042.815-1.152 1.341-1.798 1.53-2.31.146-.41.307-1.2.38-1.493.52-2.308 3.382-7.525 3.382-7.525s-6.166 3.227-7.877 5.407m6.903 51.449h-.004l-.442-11.011h9.646v11.011h.002c.061.251-.015.5-.186.757-.546.838-1.494 1.447-2.3 2.014-1.249.853-2.828 1.31-4.21 1.966-1.247.524-2.89 1.516-4.007.27-1.477-1.771-.225-3.944 1.501-5.007m10.454 0v-11.011h9.657l-.437 11.011h-.007c1.724 1.063 2.978 3.236 1.501 5.005-1.116 1.248-2.762.258-4.014-.266-1.377-.659-2.957-1.117-4.206-1.97-.807-.565-1.755-1.172-2.3-2.01-.17-.259-.246-.508-.187-.759h-.007z" fill="#E7C59F"/><path d="M45.905 112.568H45.9h9.217-.006c.059.25-.083.493-.251.755-.542.837-1.434 1.46-2.24 2.024-1.248.856-2.828 1.314-4.209 1.968-1.248.526-2.89 1.51-4.008.264-1.477-1.771-.227-3.947 1.502-5.011" fill="#E7C59F"/><path d="M47.228 112.929c-1.622-.332-2.384.36-2.762.87-.83 1.128-1.104 2.57-.09 3.788 1.117 1.246 2.762.297 4.012-.227 1.381-.659 2.959-1.1 4.209-1.95.804-.568 1.755-1.24 2.3-2.078.167-.264.423-.724.187-.827-1.48-.02-4.373 1.13-7.856.424" fill="#181818"/><path d="M65.584 112.568h.005-9.22.01c-.064.25.078.493.246.755.546.837 1.433 1.46 2.242 2.024 1.25.856 2.828 1.314 4.209 1.968 1.247.526 2.888 1.51 4.007.264 1.48-1.771.225-3.947-1.499-5.011" fill="#E7C59F"/><path d="M64.257 112.929c1.623-.332 2.384.36 2.764.87.83 1.128 1.104 2.57.09 3.788-1.12 1.246-2.765.297-4.015-.227-1.378-.659-2.956-1.1-4.204-1.95-.808-.568-1.755-1.24-2.303-2.078-.166-.264-.422-.724-.188-.827 1.484-.02 4.375 1.13 7.856.424" fill="#181818"/><path fill="#2C2C2D" d="M67.65 87.537l-1.88 25.091h-9.527l-.36-18.146h-.278l-.365 18.146h-9.525l-1.88-25.09z"/><path d="M71.064 83.344c-.057 3.5 0 22.962 0 22.962s-2.065.907-4.187.755l-.085-.755s-1.64-.181-2.567 0l-.105.755c-11.802 1.627-23.513-.755-23.513-.755s-.024-19.462-.065-22.962c5.275 1.043 25.448 1.115 30.522 0" fill="#181818"/><path d="M42.646 87.257a.177.177 0 1 1 0-.353c.096 0 .177.08.177.174 0 .1-.08.18-.177.18m.487-.657c-.083-.081-.273-.031-.476.109-.2-.14-.393-.19-.476-.11-.083.086-.035.275.109.476-.144.203-.192.393-.11.476.084.08.276.03.477-.11.203.14.393.19.476.11.083-.083.031-.273-.107-.476.138-.2.19-.39.107-.475m-.487 6.453a.175.175 0 0 1-.175-.175c0-.096.079-.174.175-.174.096 0 .177.078.177.174 0 .096-.08.175-.177.175m.487-.655c-.083-.083-.273-.033-.476.107-.2-.14-.393-.19-.476-.107-.083.083-.035.277.109.476-.144.203-.192.392-.11.473.084.083.276.033.477-.107.203.14.393.19.476.107.083-.08.031-.27-.107-.473.138-.199.19-.393.107-.476m-.487 6.454a.176.176 0 0 1-.175-.176.176.176 0 1 1 .352 0c0 .098-.08.176-.177.176m.487-.656c-.083-.081-.273-.033-.476.109-.2-.142-.393-.19-.476-.11-.083.084-.035.276.109.476-.144.203-.192.393-.11.476.084.083.276.03.477-.111.203.141.393.194.476.11.083-.082.031-.272-.107-.475.138-.2.19-.392.107-.475m6.735-10.573a.178.178 0 0 1-.177-.18c0-.095.078-.174.177-.174.098 0 .177.079.177.175a.178.178 0 0 1-.177.179m.485-.66c-.081-.078-.273-.03-.475.112-.203-.142-.393-.19-.478-.111-.08.083-.03.272.11.477-.14.199-.19.391-.11.472.085.085.275.035.478-.105.202.14.394.19.475.105.083-.081.032-.273-.107-.472.14-.205.19-.394.107-.477m-.485 6.456a.177.177 0 0 1-.177-.179c0-.096.078-.172.177-.172.098 0 .177.076.177.172 0 .1-.08.18-.177.18m.485-.657c-.081-.081-.273-.033-.475.109-.203-.142-.393-.19-.478-.11-.08.081-.03.273.11.474-.14.205-.19.395-.11.478.085.08.275.033.478-.111.202.144.394.192.475.11.083-.082.032-.272-.107-.477.14-.2.19-.393.107-.473m-.485 6.453a.177.177 0 0 1-.177-.175.177.177 0 1 1 .354 0 .177.177 0 0 1-.177.175m.485-.655c-.081-.083-.273-.033-.475.11-.203-.143-.393-.193-.478-.11-.08.08-.03.27.11.474-.14.2-.19.395-.11.475.085.081.275.033.478-.109.202.142.394.19.475.11.083-.081.032-.276-.107-.476.14-.203.19-.393.107-.474m7.627-10.939a.18.18 0 0 1-.176-.18c0-.095.083-.174.177-.174.098 0 .175.079.175.175a.176.176 0 0 1-.175.179m.485-.66c-.083-.078-.273-.03-.474.112-.201-.142-.396-.19-.474-.111-.086.083-.035.272.105.477-.14.199-.19.391-.105.472.078.085.273.035.474-.105.2.14.391.19.474.105.083-.081.03-.273-.107-.472.138-.205.19-.394.107-.477m-.486 6.456a.18.18 0 0 1-.176-.179c0-.096.083-.172.177-.172.098 0 .175.076.175.172 0 .1-.077.18-.175.18m.485-.657c-.083-.081-.273-.033-.474.109-.201-.142-.396-.19-.474-.11-.086.081-.035.273.105.474-.14.205-.19.395-.105.478.078.08.273.033.474-.111.2.144.391.192.474.11.083-.082.03-.272-.107-.477.138-.2.19-.393.107-.473m-.486 6.453a.18.18 0 0 1-.176-.175.18.18 0 0 1 .177-.177c.098 0 .175.079.175.177a.175.175 0 0 1-.175.175m.485-.655c-.083-.083-.273-.033-.474.11-.201-.143-.396-.193-.474-.11-.086.08-.035.27.105.474-.14.2-.19.395-.105.475.078.081.273.033.474-.109.2.142.391.19.474.11.083-.081.03-.276-.107-.476.138-.203.19-.393.107-.474m7.443-11.092a.173.173 0 0 1-.188-.161.17.17 0 0 1 .161-.188.176.176 0 0 1 .188.166.176.176 0 0 1-.161.183m.439-.685c-.09-.078-.278-.013-.47.138-.208-.127-.402-.162-.48-.075-.077.09-.012.275.14.467-.128.208-.167.406-.077.48.087.079.275.018.467-.137.116.068.23.111.32.122l.1-.404c-.022-.034-.046-.074-.077-.109.127-.211.162-.403.077-.482" fill="#F6B90C"/><path d="M66.028 99.187a.176.176 0 0 1-.194-.153.184.184 0 0 1 .15-.2l.044.353zm-.057-.546c-.216-.113-.415-.142-.485-.046-.072.092 0 .273.166.456-.118.216-.14.413-.048.485.092.07.278-.002.459-.168l-.092-.727z" fill="#D09B16"/><path d="M68.777 87.257a.177.177 0 1 1 0-.353c.094 0 .172.08.172.174 0 .1-.078.18-.172.18m.485-.657c-.083-.081-.273-.031-.474.109-.204-.14-.396-.19-.479-.11-.08.086-.033.275.11.476-.143.203-.19.393-.11.476.083.08.275.03.479-.11.2.14.39.19.474.11.083-.083.03-.273-.11-.476.14-.2.193-.39.11-.475m-.485 6.453a.176.176 0 0 1-.177-.175.175.175 0 1 1 .177.175m.485-.655c-.083-.083-.273-.033-.474.107-.204-.14-.396-.19-.479-.107-.08.083-.033.277.11.476-.143.203-.19.392-.11.473.083.083.275.033.479-.107.2.14.39.19.474.107.083-.08.03-.27-.11-.473.14-.199.193-.393.11-.476m-.485 6.454a.176.176 0 0 1-.177-.176.174.174 0 1 1 .349 0 .175.175 0 0 1-.172.176m.485-.656c-.083-.081-.273-.033-.474.109-.204-.142-.396-.19-.479-.11-.08.084-.033.276.11.476-.143.203-.19.393-.11.476.083.083.275.03.479-.111.2.141.39.194.474.11.083-.082.03-.272-.11-.475.14-.2.193-.392.11-.475M46.14 90.36a.176.176 0 0 1-.178-.176.18.18 0 0 1 .177-.177c.099 0 .177.083.177.177a.176.176 0 0 1-.177.176m.486-.654c-.081-.08-.274-.033-.477.109-.2-.142-.393-.19-.476-.11-.081.084-.033.274.109.474-.142.203-.19.395-.11.476.084.083.276.033.477-.107.203.14.396.19.477.107.083-.08.032-.273-.11-.476.142-.2.193-.39.11-.473m-.485 6.454a.177.177 0 0 1-.178-.175c0-.098.08-.18.177-.18a.177.177 0 1 1 0 .353m.486-.653c-.081-.083-.274-.035-.477.107-.2-.142-.393-.19-.476-.107-.081.083-.033.275.109.473-.142.203-.19.393-.11.474.084.08.276.035.477-.11.203.145.396.19.477.11.083-.081.032-.27-.11-.474.142-.198.193-.39.11-.473m7.315-4.833a.176.176 0 0 1-.178-.177.177.177 0 1 1 .177.177m.485-.657c-.08-.08-.273-.033-.478.109-.2-.142-.39-.19-.474-.11-.081.082-.033.274.109.479-.142.2-.19.39-.11.473.086.08.276.03.475-.109.205.14.397.19.478.11.081-.084.033-.274-.107-.474.14-.205.188-.397.107-.478m-.484 6.455a.176.176 0 0 1 0-.351.175.175 0 0 1 .176.173c0 .096-.08.177-.177.177m.485-.654c-.08-.081-.273-.033-.478.109-.2-.142-.39-.19-.474-.11-.081.081-.033.273.109.474-.142.2-.19.39-.11.476.086.08.276.032.475-.11.205.142.397.19.478.11.081-.085.033-.275-.107-.476.14-.2.188-.393.107-.473m8.186-5.294a.175.175 0 1 1 0-.351.176.176 0 0 1 0 .351m.484-.654c-.08-.083-.27-.033-.476.107-.2-.14-.393-.19-.476-.107-.081.08-.033.273.111.476-.144.2-.192.39-.111.473.083.08.275.03.476-.11.206.14.396.19.476.11.081-.083.033-.273-.109-.473.142-.203.19-.395.11-.476m-.485 6.451a.176.176 0 0 1-.178-.177c0-.096.079-.172.177-.172.097 0 .175.076.175.172a.176.176 0 0 1-.175.177m.485-.657c-.08-.08-.27-.028-.476.111-.2-.14-.393-.192-.476-.11-.081.084-.033.274.111.477-.144.2-.192.39-.111.473.083.086.275.031.476-.106.206.137.396.192.476.106.081-.082.033-.272-.109-.473.142-.203.19-.393.11-.478m-22.5 4.734l.013 5.91s11.709 2.383 23.513.756l.103-.755c.926-.181 2.567 0 2.567 0l.086.755c2.121.152 4.186-.755 4.186-.755s-.01-2.828-.013-6.225c-1.438.456-3.236.626-4.853.748 0 0-1.101-.342-1.407.094-8.04.52-16.09.39-24.195-.528" fill="#F6B90C"/><path fill="#2C2C2D" d="M66.286 100.821l-.695-6.34h-.002l1.16-10.613-.196.064-1.86 17 .192-.017.612-5.579.599 5.496z"/><path fill="#D09B16" d="M66.784 107.07l-.687-6.236.188-.013.684 6.23zm-2.57 0l.673-6.153-.192.015-.669 6.12z"/><path d="M38.811 78.527l-4.763.002s1.536-13.477 5.05-17.963c1.553-1.981 6.05-4.514 6.863-4.96 2.01-1.297 8.046-1.49 8.046-1.49l1.685.049h.14l1.682-.048s6.06.211 8.057 1.516l10.126 3.956 5.315-6.162 4.573 2.252s-4.222 8.85-7.084 9.888c-2.222.803-8.874-1.829-9.44-2.08 1.44 6.214 1.831 14.326 1.925 19.33l.009.778h-30.46c.007-.37.018-.672.027-1.086.107-4.187.421-10.399 1.359-15.928a9.18 9.18 0 0 1-.243.343c-1.628 2.302-2.867 11.603-2.867 11.603" fill="#2C2C2D"/><path fill="#181818" d="M60.86 72.518l3.052.563 2.966-.563v-6.82H60.86zm-3.617 2.004l-1.222.735-1.18-.787V56.75h-.192v17.817l.043.03 1.274.847.064.037.046-.04z"/><path d="M52.738 56.427c-.131-.037-.227-.133-.321-.211l-.12-.103a1.694 1.694 0 0 1-.106-.118c-.51-.63 0-3.253 0-3.253a21.941 21.941 0 0 0 7.21.005s.574 2.677 0 3.248c-.223.22-.523.482-.936.554-1.411.245-4.357.293-5.727-.122" fill="#2C2C2D"/><path d="M51.965 54.618s0 .042-.006.116a3.074 3.074 0 0 0-.003.327c.003.142.016.31.062.5.045.188.135.39.305.548.084.076.184.144.3.196.116.054.234.109.365.144.26.076.548.118.845.148.298.033.61.044.925.055.319.004.638.002.961-.007.324-.006.647-.017.962-.037.317-.02.627-.035.93-.057.302-.024.597-.045.868-.074.26-.037.498-.15.675-.296a1.39 1.39 0 0 0 .372-.513c.07-.18.105-.35.118-.487.013-.14.015-.25.015-.327l-.002-.113s.002.037.01.113c.01.076.016.188.012.332a1.73 1.73 0 0 1-.09.506c-.061.19-.179.4-.365.57-.188.17-.435.303-.727.353a24.397 24.397 0 0 1-1.805.175c-.317.019-.643.034-.966.043-.326.009-.65.009-.973-.002a9.96 9.96 0 0 1-.937-.07 4.76 4.76 0 0 1-.87-.179 2.152 2.152 0 0 1-.382-.166 1.399 1.399 0 0 1-.317-.233 1.134 1.134 0 0 1-.205-.301 1.502 1.502 0 0 1-.092-.306 2.798 2.798 0 0 1-.03-.515c.004-.142.019-.253.028-.327l.017-.116" fill="#181818"/><path d="M55.593 60.497a.428.428 0 0 0 .854 0 .426.426 0 1 0-.854 0m0-4.882a.428.428 0 0 0 .854 0 .427.427 0 0 0-.854 0m0-1.311a.428.428 0 0 0 .854 0c0-.24-.19-.425-.428-.425a.424.424 0 0 0-.426.425m0 12.201a.428.428 0 0 0 .854 0 .426.426 0 1 0-.854 0m0 6.005c0 .24.192.432.426.432a.428.428 0 1 0-.426-.432M40.51 85.097c10.231.482 20.478.482 30.709 0v-3.57c-10.231.48-20.478.48-30.709 0v3.57z" fill="#F6B90C"/><path d="M77.509 34.476c.162-1.071.245-2.17.245-3.288 0-12.076-9.803-21.864-21.898-21.864-12.095 0-21.9 9.788-21.9 21.864 0 1.065.076 2.112.223 3.137-1.263.694-2.115 1.997-2.115 3.491 0 2.22 1.874 4.02 4.182 4.02.155 0 .312-.012.461-.03 3.739 6.71 10.913 11.248 19.149 11.248 8.225 0 15.394-4.527 19.135-11.225.066.004.132.006.197.006 2.31 0 4.183-1.8 4.183-4.019 0-1.392-.739-2.618-1.862-3.34" fill="#E7C59F"/><g transform="translate(43 28)"><path d="M7.95 1.552s-.48 1.695-1.992 1.36c-.738-.164-.868-1.13-3.238-.697-.745.17-2.312 1.087-2.614 1.7-.302.613-.084-2.248 2.35-3.312C4.212-.03 4.807 0 6.261 0c1.453 0 1.901.853 1.69 1.552m10.099 0s.48 1.695 1.992 1.36c.738-.164.868-1.13 3.238-.697.745.17 2.312 1.087 2.614 1.7.302.613.084-2.248-2.35-3.312C21.788-.03 21.193 0 19.739 0c-1.453 0-1.901.853-1.69 1.552M6 9c0 1.657-.895 3-2 3s-2-1.343-2-3 .895-3 2-3 2 1.343 2 3m18 0c0 1.657-.895 3-2 3s-2-1.343-2-3 .895-3 2-3 2 1.343 2 3" fill="#2C2C2D"/><path d="M13.025 10.105c.84-.118 2.965 1.816 2.965 1.816s.102-.428-.341-1.28C15.17 9.727 12.995 9 12.995 9s-1.69.463-2.491 1.658C10.207 10.958 10 12 10 12s1.898-1.737 3.025-1.895z" fill="#683918"/><mask id="b" fill="#fff"><use xlink:href="#a"/></mask><path d="M6.2 14.696s6.898 3.208 13.173-.397c0 0-1.39 5.47-5.95 5.561-4.115.122-4.984-1.492-5.477-1.956-.493-.463-1.421-1.772-1.747-3.208" fill="#683918" mask="url(#b)"/></g><path d="M78.625 28.34c-.015-1.144-.315-2.49-.324-4.02-2.943-9.619-11.839-16.618-22.44-16.618-9.23 0-17.216 5.304-21.069 13.025-1.064 3.035-1.72 6.024-1.77 7.37-.19 4.676 3.223 11.678 3.223 11.678-.41-7.696-.323-7.678 1.537-9.014 2.307-1.66 7.176-4.747 9.055-6.881.36-.408 1.1-1.872 1.1-1.872s-.07 1.15.572 1.654c3.874 3.054 15.305-.34 19.64 2.016 3.549 1.926 7.858 14.097 7.858 14.097 1.752-3.312 2.653-8.87 2.618-11.435" fill="#2C2C2D"/><path d="M76.756 4.752s-20.934-6.31-41.864 0L33.01 28.09h45.62L76.756 4.75z" fill="#343434"/><path d="M36.37 6.532c-.197.046-.354-.072-.354-.273 0-.196.157-.397.354-.445.195-.043.354.079.354.275a.48.48 0 0 1-.354.443m.975-1.564c-.166-.127-.551.06-.953.445-.406-.188-.791-.192-.957.02-.164.209-.064.573.218.91-.282.482-.382.894-.218 1.02.166.127.55-.074.957-.458.402.192.787.201.953-.006.166-.203.067-.57-.214-.914.281-.474.38-.886.214-1.017m1.979.902c-.197.042-.354-.087-.354-.281 0-.199.157-.393.354-.432.196-.04.354.087.354.286 0 .196-.158.39-.354.427m.98-1.527c-.165-.135-.554.042-.959.41-.406-.2-.795-.22-.961-.017-.166.207-.066.571.216.918-.282.472-.382.884-.216 1.015.166.13.555-.052.961-.421.405.203.794.229.96.028.166-.2.067-.57-.219-.923.286-.464.385-.872.219-1.01m1.989.979c-.197.033-.358-.1-.358-.299 0-.196.161-.382.358-.417.199-.03.356.1.356.301a.437.437 0 0 1-.356.415m.983-1.492c-.163-.142-.557.021-.963.377-.409-.22-.796-.25-.966-.057-.166.201-.066.572.22.93-.286.46-.386.866-.22 1.006.17.135.557-.035.966-.389.406.218.8.26.963.066.169-.195.068-.57-.216-.932.284-.456.385-.86.216-1.001m2 1.05a.305.305 0 0 1-.358-.31c0-.197.16-.378.358-.406a.313.313 0 0 1 .359.314.414.414 0 0 1-.359.402m.99-1.453c-.168-.147-.561-.003-.968.34-.413-.234-.802-.28-.972-.09-.166.192-.066.566.223.934-.289.45-.39.856-.223.995.17.144.56-.009.972-.349.409.234.8.29.968.1.166-.187.066-.562-.218-.94.284-.443.384-.84.218-.99m2.006 1.123a.318.318 0 0 1-.358-.323c0-.196.157-.373.358-.392a.322.322 0 0 1 .359.325.4.4 0 0 1-.359.39m.99-1.416c-.168-.155-.56-.021-.972.301-.41-.248-.802-.312-.97-.122-.17.184-.068.561.22.94-.288.441-.39.838-.22.989.168.148.56.01.97-.312.413.249.804.316.972.135.169-.18.068-.56-.22-.949.288-.434.389-.829.22-.982m14.034 1.414a.404.404 0 0 1-.359-.39c0-.199.162-.343.359-.325a.4.4 0 0 1 .358.393c.004.194-.157.338-.358.322m.992-1.234c-.169-.19-.56-.127-.97.122-.414-.323-.803-.456-.975-.301-.168.152-.068.547.223.981-.29.387-.391.768-.223.95.172.18.561.113.974-.136.411.323.802.46.97.312.169-.15.068-.547-.218-.988.286-.38.387-.757.219-.94m2.004 1.563a.418.418 0 0 1-.359-.404.31.31 0 0 1 .359-.312c.196.026.358.21.358.404a.31.31 0 0 1-.358.312m.987-1.2c-.168-.19-.559-.144-.965.089-.413-.343-.802-.487-.973-.34-.168.15-.068.55.223.992-.29.378-.391.75-.223.94.17.188.56.134.973-.1.406.34.797.493.965.347.169-.137.066-.545-.218-.992.284-.371.387-.744.218-.936m1.996 1.638a.442.442 0 0 1-.358-.416c0-.199.161-.332.358-.301a.446.446 0 0 1 .356.42c0 .197-.16.328-.356.297m.985-1.165c-.166-.196-.557-.163-.963.057-.411-.356-.798-.52-.968-.377-.166.141-.066.545.22 1.001-.288.362-.389.737-.22.932.17.192.557.152.968-.066.406.354.797.524.963.389.164-.14.064-.546-.218-1.006.282-.358.382-.729.218-.93m1.985 1.712a.453.453 0 0 1-.354-.428c0-.198.158-.325.354-.283a.454.454 0 0 1 .357.427c0 .199-.16.325-.357.284m.977-1.126c-.166-.203-.55-.185-.955.018-.406-.37-.795-.546-.963-.41-.166.137-.066.545.218 1.01-.284.353-.384.722-.218.922.168.201.557.175.963-.028.405.369.79.552.955.421.169-.13.07-.543-.214-1.014.284-.347.383-.712.214-.919M75.2 6.521a.485.485 0 0 1-.354-.442c0-.197.162-.319.354-.273.194.05.352.246.352.445 0 .198-.158.318-.352.27m.972-1.088c-.164-.212-.548-.208-.95-.02-.409-.384-.791-.574-.957-.445-.169.13-.068.543.218 1.017-.286.344-.387.711-.218.914.166.207.548.198.957.006.402.384.786.585.95.459.166-.127.066-.54-.216-1.021.282-.336.382-.7.216-.91M51.274 4.328a.33.33 0 0 1-.359-.334c0-.199.16-.369.359-.38.2-.01.36.144.36.34a.38.38 0 0 1-.36.374m.996-1.377c-.172-.164-.566-.044-.974.266-.416-.266-.805-.34-.975-.161-.17.179-.068.56.223.951-.29.43-.393.825-.223.982.17.155.56.028.975-.28.413.265.802.348.974.17.168-.174.068-.56-.223-.955.29-.423.391-.816.223-.973m2.013 1.269a.35.35 0 0 1-.363-.35.37.37 0 0 1 .363-.366.356.356 0 0 1 .36.353.368.368 0 0 1-.36.362m.992-1.344c-.168-.166-.562-.063-.975.231-.41-.279-.806-.366-.974-.194-.17.173-.068.557.222.958-.29.417-.393.807-.222.973.168.162.563.053.974-.244.413.28.807.377.975.207.168-.17.07-.556-.219-.964.289-.41.387-.799.219-.967m2.016 1.345a.37.37 0 0 1-.362-.365.35.35 0 0 1 .362-.351.367.367 0 0 1 .359.364.351.351 0 0 1-.359.351m.993-1.307c-.169-.172-.562-.085-.975.194-.415-.294-.804-.397-.975-.23-.17.167-.07.556.223.966-.293.408-.393.794-.223.964.17.17.56.072.975-.207.413.297.806.406.975.244.168-.166.067-.556-.219-.973.286-.401.387-.785.219-.958m2.012 1.416a.381.381 0 0 1-.36-.375c0-.199.16-.352.36-.339a.38.38 0 0 1 .358.378.333.333 0 0 1-.358.336m.994-1.272c-.168-.18-.561-.105-.972.161-.415-.31-.806-.43-.977-.266-.168.157-.07.55.22.973-.29.395-.388.781-.22.956.17.177.562.094.977-.17.41.307.804.434.972.279.169-.157.068-.552-.223-.982.291-.39.392-.772.223-.951M33.06 27.468h45.522l-.041-.504H33.1z" fill="#F6B90C"/></g></svg>