<svg width="131" height="123" viewBox="0 0 131 123" xmlns="http://www.w3.org/2000/svg" xmlns:xlink="http://www.w3.org/1999/xlink"><defs><path id="a" d="M.417.385h13.335V26.5H.417z"/></defs><g fill="none" fill-rule="evenodd"><path d="M64.642 81.68l-10.44-1.26c.07.18 6.86 23.73 6.86 23.73l-1.435.14s.155.35.115.415l4.035-.16s.865-22.41.865-22.865" fill="#3C3C32"/><g transform="translate(65 78.49)"><mask id="b" fill="#fff"><use xlink:href="#a"/></mask><path d="M5.442 26.5a2.27 2.27 0 0 1 .13-.42 6.071 6.071 0 0 1-1.175-.185c0-.32.27-.71 1.076-2.905 2.5-6.885 8-21.215 8.28-22.21L.416.385c0 .5.5 7.06.386 7.57 0 0-.355-.5-.35-.47.08.87 1.32 18.82 1.32 18.82s3.37.195 3.67.195" fill="#3C3C32" mask="url(#b)"/></g><path d="M57.737 10.41l-.32-.22c0-.18.045-.34.055-.5.03-.47.06-.945.075-1.415 0-.36 0-.36.225-.62.26.085.32.135.31.345 0 .38-.045.76-.08 1.14-.03.305-.065.61-.11.915-.038.124-.09.243-.155.355m-.77.465l-.36-.15c0-.18-.03-.34-.055-.5-.08-.465-.155-.93-.245-1.39a.675.675 0 0 1 .08-.66c.275.03.345.065.38.27.07.375.125.75.175 1.125.05.375.075.615.095.92-.007.13-.03.26-.07.385m1.125-.095l.385-.07c.055-.175.095-.33.15-.5.17-.44.335-.885.5-1.32a.654.654 0 0 0 .05-.66c-.27 0-.345 0-.425.19-.14.35-.27.71-.395 1.07-.125.36-.195.585-.275.88-.01.137-.008.274.01.41" fill="#64645A"/><path d="M46.727 56.98s-.555-13.095.175-19.5c.6-5.265 1.94-10.375 3.4-15.455.94-3.27 3.445-12.175 7.695-12.535 4.625 2.55 3.855 16.105 3.665 20.35-.25 5.545-1.37 19.645-2.325 25.08-2.675.87-12.61 2.06-12.61 2.06" fill="#64645A"/><path d="M49.273 48.57s.735-12.585 2.795-22.29c1.425-6.7 3.545-11.04 4.61-11.095 2.61-.125 2.275 10.82 2.15 13.585-.16 3.605-1.235 15.095-1.855 18.63-1.74.555-7.7 1.17-7.7 1.17" fill="#3C3C32"/><path d="M72.323 7.735l-.35-.18v-.5c-.04-.465-.076-.935-.125-1.405a.674.674 0 0 1 .134-.65c.276.05.34.095.36.3.035.38.055.76.075 1.14 0 .305.025.615 0 .925-.02.126-.052.25-.094.37m-.696.56l-.38-.095c-.045-.175-.074-.33-.125-.5-.14-.45-.28-.9-.435-1.345a.662.662 0 0 1 0-.665c.275 0 .346 0 .41.215a21.006 21.006 0 0 1 .556 1.99c.006.134-.002.268-.026.4m1.096-.245l.375-.125c.03-.18.045-.34.085-.5.1-.455.205-.915.325-1.375a.676.676 0 0 0-.04-.66c-.276 0-.35.045-.395.245-.09.37-.17.74-.245 1.115-.075.375-.11.61-.15.915.002.13.017.259.045.385" fill="#64645A"/><path d="M84.223 60.96c-2.39-3.045-14.145-10-14.89-10.75-1.41-5.085-4.545-42.96 2.379-43.29 5.87-.285 7.136 10.795 8.136 14.64 1.445 5.53 4.32 32.6 4.375 39.4" fill="#64645A"/><path d="M80.058 52.935c-.545-10.185-1.435-22.795-2-26.3-.6-3.73-3.2-17.175-5.796-14.23-2.594 2.945-.07 31.175.456 40.565l7.34-.035z" fill="#3C3C32"/><path d="M84.267 54.255c-.395-4.395-2.335-9.315-5.575-12.395a20.607 20.607 0 0 0-14.84-5.6c-8.235.195-11.045 1.87-15.24 7.94-3.86 5.585-2.61 15-2.215 21.42.42 6.85 3.86 16.03 9.71 20.04 6.11 4.18 15 4.83 20.615-.46 5.056-4.785 8.44-21.01 7.545-30.945" fill="#64645A"/><path d="M63.558 67.525l1.415-.125 1.584 6.275s-.15 2.5-2.18 2.74c-2.03.24-3.04-3.5-3.04-3.5l2.22-5.39z" fill="#828278"/><path d="M71.743 48.61c-.97-2.535-2.54-2.43-5-2.75-2.415.12-5.655-.18-7.69 1.38-2.035 1.56-2.5 5-.5 6.655 2.35 1.965 9.735 2.68 12.5-.19 1.005-1.05 1.395-3.24.69-5.095" fill="#F01446"/><path d="M69.118 48.3c1.31-.095 1.375 1.655 1.31 2.435-.065.78-.095 2.155-1.25 2.03s-1.345-1.35-1.28-2.06c.064-.71-.095-2.33 1.22-2.405m-8.815 0c1.315-.095 1.375 1.655 1.315 2.435-.06.78-.095 2.155-1.25 2.03s-1.35-1.35-1.285-2.06c.065-.71-.09-2.33 1.22-2.405" fill="#6E1E3C"/><path d="M69.337 59.96c-2.224-1.625-3.864-1.655-6.61-1.655-1.23.93-2.674 1.795-1.865 3.535 3.195 2.685 6.93 2.175 8.475-1.88" fill="#000"/><path d="M64.523 58.08a9 9 0 0 0-2.5.735c.19.265 1.61 2.03 1.965 1.955.355-.075.48-2.18.535-2.69m1.3 2.555c.83.2 1.64-1.585 1.755-1.835a5.179 5.179 0 0 0-2.435-.5c.015.075.38 2.175.68 2.335" fill="#FFF"/><path d="M78.743 49.065l.635.115a2.936 2.936 0 0 1-1.58 2.435 1.243 1.243 0 0 1-.606.14c-.36.006-.72-.02-1.074-.08a2 2 0 0 1-1.71-2.365c0-.05.065-.095.14-.19.085.065.195.11.245.195.115.205.195.435.31.65a1.815 1.815 0 0 0 1.915 1.07 1.77 1.77 0 0 0 1.58-1.4c.045-.14.075-.26.145-.57m-23.686.31l.39.14c.041.09.062.187.06.285a2.33 2.33 0 0 1-1.76 1.86 1.805 1.805 0 0 1-2.277-1.153l-.018-.057a2.717 2.717 0 0 1-.134-.525c-.055-.32-.085-.64-.135-1.06.225.05.44.03.5.125.151.18.263.39.33.615.11.31.17.635.26 1l.73.43a2.5 2.5 0 0 0 2.055-1.66" fill="#000"/><path d="M83.442 49.58c4.435 7.93 4.28 21 2.5 29.615-1.78 8.615-7.67 16.475-15.465 22.285-1.855-3.64-5.5-34.08-5.5-34.08s15.08-6.495 18.465-17.82m-23.25 51.615c-4.5-.945-8.05-6.815-10.155-10.08a36.748 36.748 0 0 1-5.05-11.77c-1-4.33-1.945-9.075-2.055-13.5-.24-9.445 3.68-17.385 3.68-17.385s1.65 7.145 5.24 11.24c4.436 5.06 11.706 7.825 11.706 7.825a116.23 116.23 0 0 0-1.66 20.175 48.551 48.551 0 0 1-.405 6.595c-.275 2.155-.165 4.945-1.3 6.9" fill="#C8C8BE"/><path d="M64.977 67.4s17.05-.435 19.07-.35c2.02.085 3.59-.17 3.84 1.815.25 1.985-2.805 1.725-2.805 1.725s-13.91-.175-20.105-3.19" fill="#F0E6D2"/><path d="M82.798 86.505S69.863 74.125 64.978 67.4c0 0 8 18.18 15.97 23.375 0 0 1.16 1.34 2.63-.73 1.47-2.07-.78-3.54-.78-3.54m-19.24-18.98s-14.91-1.12-17.345-1.035c-2.435.085-4.29.865-4.21 2.46.08 1.595 1.335 1.64 3.685 1.81 2.35.17 11.795-.22 17.87-3.235m-15.825 18.03c1.25-1.335 11.035-10.5 15.83-18.03 0 0-3.89 8.5-8.11 15.1-1.79 2.79-5.225 6.205-5.865 6.9-2.16 2.33-2.805 2.545-3.84 1.035-1.035-1.51.735-3.685 1.985-5.005" fill="#F0E6D2"/><path d="M61.058 59.375s2.08-1 3.675-1c1.594 0 3.93 1.03 3.93 1.03l.6-1.8-4.54-.815-3.46.4-.206 2.185z" fill="#64645A"/></g></svg>