<svg width="120" height="120" viewBox="0 0 120 120" xmlns="http://www.w3.org/2000/svg" xmlns:xlink="http://www.w3.org/1999/xlink"><defs><path id="a" d="M0 .342h119.83v85.513H0z"/></defs><g fill="none" fill-rule="evenodd"><g transform="translate(0 17.803)"><mask id="b" fill="#fff"><use xlink:href="#a"/></mask><path d="M53.503.546S25.349-3.142 7.976 20.796C-8.53 43.546-2.807 82.004 57.696 85.605c60.502 3.6 68.29-32.401 58.705-44.401-9.585-12-27.056-5.67-28.754-23.365C85.85-.888 53.503.546 53.503.546" fill="#F4EDD1" mask="url(#b)"/></g><path d="M100.976 84.207a2.248 2.248 0 0 0 2.247 2.249 2.248 2.248 0 0 0 2.245-2.25 2.248 2.248 0 0 0-2.245-2.25 2.248 2.248 0 0 0-2.247 2.25m4.492-6.46a1.509 1.509 0 1 0 3.015 0 1.508 1.508 0 1 0-3.015 0m-8.631 1.732a1.287 1.287 0 1 0 2.575 0 1.287 1.287 0 0 0-2.575 0m-8.311 13.837a1.288 1.288 0 1 0 1.287-1.289c-.711 0-1.287.577-1.287 1.29" fill="#FFF"/><path d="M77.916 53.558c3.353 8.652-1.041 21.05-12.208 25.393-11.167 4.34-24.88-1.02-28.232-9.673-3.352-8.652 2.175-20.397 14.15-23.527 11.59-3.029 22.937-.846 26.29 7.807" fill="#FECA04"/></g></svg>