<svg width="480" height="360" viewBox="0 0 480 360" xmlns="http://www.w3.org/2000/svg"><g fill="none"><path fill="#CFE7F8" d="M0-3h480v423H0z"/><path d="M12.343 204.549c-1.029-9.772 4.766-19.338 12.686-25.166 7.92-5.829 17.691-8.537 27.291-10.526 17.314-34.354 60.514-53.246 97.474-42.686 12.412-15.737 32.949-24.685 52.937-23.04 19.989 1.646 38.778 13.818 48.446 31.372 22.629-12.789 54.96-3.429 67.269 19.474 14.16-5.108 28.765-10.217 43.817-9.806 15.051.412 30.891 7.543 37.371 21.12 6.137-7.817 18.857-8.022 26.915-2.194 8.057 5.829 12 15.977 12.925 25.886 6.377-2.914 14.297-2.126 19.989 1.988 5.691 4.115 8.88 11.418 8.091 18.378-140.708 10.628-282.137 12.171-423.051 4.662-5.109-.274-11.383-1.44-12.789-6.342" fill="#E9F1FA"/><path fill="#72CAC8" d="M0 194.88h480v73.817H0z"/><path fill="#FEE19F" d="M0 299.04h480v73.817H0z"/><path fill="#FFF2CD" d="M0 286.286h480v12.754H0z"/><path fill="#FFF" d="M0 268.457h480v17.829H0z"/><g transform="translate(6.514 -30.171)"><path d="M373.68 155.211l76.114-.137c1.166-3.565.137-7.748-2.468-10.354-2.64-2.606-6.755-3.531-10.183-2.229.994-2.982-.377-6.377-2.64-8.502-2.263-2.126-5.28-3.189-8.297-3.909-3.086-.754-6.377-1.166-9.429-.274-3.051.891-5.863 3.325-6.411 6.514-.755-1.714-2.126-3.086-3.669-4.08-4.046-2.709-9.497-3.291-13.851-1.166-4.389 2.126-7.44 7.029-7.063 11.966-3.326-1.783-7.646-1.371-10.594 1.029-2.915 2.331-2.469 7.44-1.509 11.142z" fill="#FFF"/><path d="M60.309 286.149c-1.509-.446-3.086-.549-4.56-.995-1.44-.445-2.743-2.194-3.6-3.394-.755-1.989-2.949-3.291-5.006-1.714-.686.514-1.543.72-2.297 1.131-.892.48-1.68 1.166-2.537 1.68-.858.48-1.68.823-2.64 1.029-.892.205-1.852-.446-2.606-.755-.857-.342-1.714-.685-2.503-1.131-.926-.514-1.269-1.234-1.817-2.126-1.029-1.645-3.052-1.748-4.457-.583-1.44 1.2-1.817 3.258-3.052 4.629-1.44 1.646-3.188 2.88-4.183 4.869-.685 1.371.96 2.674 2.126 1.645 1.406-1.268 3.086-2.091 4.629-3.188.754-.515 1.44-1.097 2.023-1.817.788.788 1.68 1.405 2.777 1.954 1.988.994 4.251 1.988 6.445 2.263 2.263.274 4.766-.96 6.652-2.057.72-.412 1.406-.96 2.126-1.406l.205-.103c1.166 1.509 2.812 2.811 4.115 3.737 2.331 1.646 5.622 1.817 8.262.892 2.023-.823 2.195-3.875-.102-4.56zm-20.812-47.178c-1.508-.445-3.086-.548-4.56-.994-1.44-.446-2.743-2.194-3.6-3.394-.754-1.989-2.948-3.292-5.006-1.714-.685.514-1.542.72-2.297 1.131-.891.48-1.68 1.166-2.537 1.68-.857.48-1.68.823-2.64 1.029-.891.205-1.851-.446-2.606-.755-.857-.343-1.714-.685-2.502-1.131-.926-.514-1.269-1.234-1.818-2.126-1.028-1.646-3.051-1.748-4.457-.583-1.44 1.2-1.817 3.257-3.051 4.629-1.44 1.646-3.189 2.88-4.183 4.868-.686 1.372.96 2.675 2.126 1.646 1.405-1.268 3.085-2.091 4.628-3.188.755-.515 1.44-1.098 2.023-1.818.789.789 1.68 1.406 2.777 1.955 1.989.994 4.252 1.988 6.446 2.263 2.263.274 4.766-.96 6.651-2.058.72-.411 1.406-.96 2.126-1.405l.206-.103c1.166 1.508 2.811 2.811 4.114 3.737 2.332 1.646 5.623 1.817 8.263.891 2.023-.822 2.194-3.874-.103-4.56zm307.577 41.349c-1.508-.446-3.085-.549-4.56-.994-1.44-.446-2.743-2.195-3.6-3.395-.754-1.988-2.948-3.291-5.005-1.714-.686.514-1.543.72-2.298 1.132-.891.48-1.68 1.165-2.537 1.68-.857.48-1.68.822-2.64 1.028-.891.206-1.851-.446-2.605-.754-.858-.343-1.715-.686-2.503-1.132-.926-.514-1.269-1.234-1.817-2.125-1.029-1.646-3.052-1.749-4.458-.583-1.44 1.2-1.817 3.257-3.051 4.628-1.44 1.646-3.189 2.88-4.183 4.869-.686 1.371.96 2.674 2.126 1.646 1.406-1.269 3.086-2.092 4.628-3.189.755-.514 1.44-1.097 2.023-1.817.789.789 1.68 1.406 2.777 1.954 1.989.995 4.252 1.989 6.446 2.263 2.263.274 4.766-.96 6.652-2.057.72-.411 1.405-.96 2.125-1.406l.206-.103c1.166 1.509 2.811 2.812 4.114 3.738 2.332 1.645 5.623 1.817 8.263.891 2.023-.823 2.194-3.874-.103-4.56zm86.949-36.72c-1.509-.446-3.086-.549-4.56-.994-1.44-.446-2.743-2.195-3.6-3.395-.754-1.988-2.949-3.291-5.006-1.714-.686.514-1.543.72-2.297 1.132-.891.48-1.68 1.165-2.537 1.68-.857.48-1.68.822-2.64 1.028-.892.206-1.852-.446-2.606-.754-.857-.343-1.714-.686-2.503-1.132-.925-.514-1.268-1.234-1.817-2.125-1.028-1.646-3.051-1.749-4.457-.583-1.44 1.2-1.817 3.257-3.051 4.628-1.44 1.646-3.189 2.88-4.183 4.869-.686 1.371.96 2.674 2.125 1.646 1.406-1.269 3.086-2.092 4.629-3.189.754-.514 1.44-1.097 2.023-1.817.788.789 1.68 1.406 2.777 1.954 1.989.995 4.251 1.989 6.446 2.263 2.263.274 4.765-.96 6.651-2.057.72-.411 1.406-.96 2.126-1.406l.206-.103c1.165 1.509 2.811 2.812 4.114 3.738 2.331 1.645 5.623 1.817 8.263.891 2.023-.823 2.194-3.874-.103-4.56zm30.24 44.4c-1.509-.446-3.086-.549-4.56-.994-1.44-.446-2.743-2.195-3.6-3.395-.754-1.988-2.949-3.291-5.006-1.714-.686.514-1.543.72-2.297 1.132-.891.48-1.68 1.165-2.537 1.68-.857.48-1.68.822-2.64 1.028-.892.206-1.852-.446-2.606-.754-.857-.343-1.714-.686-2.503-1.132-.925-.514-1.268-1.234-1.817-2.125-1.028-1.646-3.051-1.749-4.457-.583-1.44 1.2-1.817 3.257-3.051 4.628-1.44 1.646-3.189 2.88-4.183 4.869-.686 1.371.96 2.674 2.125 1.646 1.406-1.269 3.086-2.092 4.629-3.189.754-.514 1.44-1.097 2.023-1.817.788.789 1.68 1.406 2.777 1.954 1.989.995 4.251 1.989 6.446 2.263 2.263.274 4.765-.96 6.651-2.057.72-.411 1.406-.96 2.126-1.406l.206-.103c1.165 1.509 2.811 2.812 4.114 3.738 2.331 1.645 5.623 1.817 8.263.891 2.023-.823 2.228-3.909-.103-4.56z" fill="#97D7D9"/><ellipse fill="#FCD084" cx="53.177" cy="389.417" rx="28.286" ry="10.08"/><ellipse fill="#FCD084" cx="253.474" cy="389.143" rx="28.286" ry="10.08"/><path d="M241.714 392.469l22.217-.103c.652-1.097.549-2.572-.24-3.566-.788-.994-2.194-1.44-3.394-1.029.206-1.782-.514-3.531-1.371-5.108-.789-1.44-1.817-2.812-3.257-3.6-1.68-.96-3.875-.96-5.589 0-1.68.96-2.811 2.811-2.88 4.766-1.543-.96-3.703-.309-4.937 1.028-1.234 1.337-1.714 3.189-1.989 5.006-.137.994 1.132 1.646 1.44 2.606zm-198.754 0l22.217-.103c.652-1.097.549-2.572-.24-3.566-.788-.994-2.194-1.44-3.394-1.029.206-1.782-.514-3.531-1.372-5.108-.788-1.44-1.817-2.812-3.257-3.6-1.68-.96-3.874-.96-5.588 0-1.68.96-2.812 2.811-2.88 4.766-1.543-.96-3.703-.309-4.937 1.028-1.235 1.337-1.715 3.189-1.989 5.006-.137.994 1.131 1.646 1.44 2.606zm412.594-52.286c-4.388-.789-9.188-.617-13.611.137-1.269.206-1.269 2.366 0 2.571 4.388.755 9.223.926 13.611.138 1.406-.275 1.406-2.606 0-2.846zM314.64 337.68c-2.023-.754-4.286-.823-6.411-.994-2.229-.172-4.492-.24-6.72-.309-4.732-.206-9.395-.617-14.058.48-2.16.514-2.16 3.84 0 4.389 4.423 1.063 8.846.685 13.372.514 2.228-.103 4.491-.137 6.72-.309 2.331-.171 4.868-.205 7.097-1.062 1.337-.515 1.337-2.195 0-2.709zm21.051 35.76c-5.52-.137-11.04-.617-16.491.343-2.023.343-2.023 3.703 0 4.046 5.451.96 11.006.48 16.491.342 3.086-.034 3.086-4.662 0-4.731zm-139.782 6.103c-2.366-.686-4.903-.206-7.303-.069-2.503.172-5.04.309-7.543.48-1.612.103-1.612 2.366 0 2.469 2.503.171 5.04.308 7.543.48 2.4.171 4.971.617 7.303-.069 1.645-.445 1.645-2.811 0-3.291zM22.971 343.269c-1.817-1.098-3.634-.686-5.622-.515-1.955.172-3.875.343-5.795.72-1.165.24-1.165 2.126 0 2.366 1.92.377 3.875.549 5.795.72 1.988.171 3.805.583 5.622-.514 1.063-.583 1.063-2.126 0-2.777zm90.686 26.4c-6.343-1.269-13.131-.103-19.508.377-1.783.137-1.783 2.64 0 2.777 6.411.48 13.165 1.646 19.508.377 1.783-.343 1.783-3.189 0-3.531zm-28.937-35.52c-2.366-.583-4.629-.206-7.029.068-1.577.172-1.577 2.263 0 2.434 2.4.275 4.663.652 7.029.069 1.303-.343 1.303-2.263 0-2.571zm153.737 1.44c-1.68-.926-3.531-.515-5.383-.343-1.817.171-3.737.205-5.485.754-.96.309-.96 1.646 0 1.954 1.748.549 3.668.583 5.485.755 1.852.171 3.703.617 5.383-.343 1.029-.583 1.029-2.195 0-2.777zm56.16 28.217c-2.263-1.817-5.486-.892-8.194-.652-1.577.137-3.154.309-4.732.48-1.302.137-2.64.206-3.805.892-.549.308-.549 1.131 0 1.44 2.16 1.234 5.451 1.097 7.885 1.303 2.846.274 6.515 1.302 8.88-.618.755-.617.755-2.194-.034-2.845zm132.103-11.212c-2.537-.583-5.177-.685-7.749-.857-1.337-.103-2.674-.171-4.011-.274-1.68-.103-2.914.308-4.491.788-1.68.48-1.68 2.88 0 3.36 1.337.378 2.4.789 3.805.823 1.337.035 2.709-.171 4.012-.24 2.811-.171 5.657-.274 8.434-.891 1.337-.343 1.337-2.4 0-2.709z" fill="#FCD084"/><path d="M312 241.474c-1.509-.445-3.086-.548-4.56-.994-1.44-.446-2.743-2.194-3.6-3.394-.754-1.989-2.949-3.292-5.006-1.715-.685.515-1.543.72-2.297 1.132-.891.48-1.68 1.166-2.537 1.68-.857.48-1.68.823-2.64 1.028-.891.206-1.851-.445-2.606-.754-.857-.343-1.714-.686-2.503-1.131-.925-.515-1.268-1.235-1.817-2.126-1.028-1.646-3.051-1.749-4.457-.583-1.44 1.2-1.817 3.257-3.051 4.629-1.44 1.645-3.189 2.88-4.183 4.868-.686 1.372.96 2.675 2.126 1.646 1.405-1.269 3.085-2.091 4.628-3.189.754-.514 1.44-1.097 2.023-1.817.789.789 1.68 1.406 2.777 1.955 1.989.994 4.252 1.988 6.446 2.262 2.263.275 4.766-.96 6.651-2.057.72-.411 1.406-.96 2.126-1.405l.206-.103c1.165 1.508 2.811 2.811 4.114 3.737 2.331 1.646 5.623 1.817 8.263.891 2.023-.823 2.194-3.908-.103-4.56z" fill="#97D7D9"/><path d="M429.497 172.663c-2.743-.72-5.28.24-7.474 1.748-1.132-.925-2.469-1.474-4.046-1.508-.994-.034-2.057.377-2.777 1.028-.617.583-1.2 1.68-2.057 1.886-1.44.309-1.029 2.434.343 2.503 1.234.069 2.125-.549 3.051-1.303 1.303-1.097 2.846-.651 3.772.754.685 1.063 1.885 1.098 2.845.378 1.543-1.2 2.983-2.195 5.006-2.229 1.851 0 2.811 1.234 3.326 2.846.343 1.097 2.194 1.268 2.4 0 .514-3.086-1.509-5.349-4.389-6.103zm-398.16-5.794c-2.4-1.063-5.348-1.372-7.371.548-.48.446-.823 1.097-1.2 1.646-1.235-.72-3.257-.857-4.492-.789-3.223.172-7.234 3.463-5.828 7.029.411 1.063 2.263 1.406 2.503 0 .582-3.257 3.154-3.703 5.794-2.812.891.995 2.228 1.338 3.531.618a4.444 4.444 0 0 0 1.509-1.372c.343-.514.651-1.371 1.131-1.748.72-.549 2.263.034 2.983.274 1.063.377 2.057 1.234 2.4 2.297.412 1.337 2.126 1.234 2.606 0 .994-2.606-1.372-4.731-3.566-5.691z" fill="#4E908E"/></g></g></svg>