<svg width="120" height="120" viewBox="0 0 120 120" xmlns="http://www.w3.org/2000/svg" xmlns:xlink="http://www.w3.org/1999/xlink"><defs><path id="a" d="M0 1.153h70.776V74.9H0z"/></defs><g fill="none" fill-rule="evenodd"><g fill="#000"><path d="M112.527 48.145S72.422 6.08 67.41 6.465c-5.013.384-62.583 44.54-63.683 48.424-1.102 3.883 21.264 37.728 28.592 42.344 7.326 4.615 19.57 7.308 25.788 1.923 6.217-5.385 54.42-51.011 54.42-51.011"/><path d="M54.219 48.145c8.269-4.966 13.482 10.241 3.888 15.626-9.593 5.385-12.451-10.484-3.888-15.626m-18.43 10.302c7.054-.428 10.026 15.709 2.313 13.594-7.712-2.115-9.64-13.149-2.313-13.594m5.964-13.522c4.146-1.65 5.841 7.274.902 8.06-4.938.787-5.735-6.136-.902-8.06M54.219 30.31c5.479-.385 8.403 4.678 0 7.53-8.404 2.854-5.48-7.146 0-7.53M24.22 48.885c2.567-1.516 4.264 4.019 1.939 5.414-2.324 1.395-7.338-2.224-1.939-5.414m47.817-7.772c6.17-1.187 7.327 5.962 2.314 7.772-5.013 1.81-8.483-6.584-2.314-7.772m1.075-15.419c2.309.225 1.625 5.344-1.846 4.595-3.47-.748-2.093-4.98 1.846-4.595M49.123 72.04c3.66-2.625 5.561 2.892 2.862 4.62-2.699 1.727-6.88-1.735-2.862-4.62M74.46 57.033c3.361-.185 2.81 5.97-1.348 5.2-4.16-.77-2.014-5.015 1.347-5.2m12.617-12.31c3.086.203 4.243 5.553 0 4.417-4.242-1.137-3.085-4.62 0-4.417"/></g><path d="M115.998 44.683S75.893 2.62 70.88 3.003c-5.012.384-62.582 44.54-63.683 48.424-1.1 3.883 21.265 37.729 28.592 42.344 7.327 4.616 19.57 7.309 25.79 1.924 6.216-5.385 54.419-51.012 54.419-51.012" fill="#FDBB45"/><path d="M46.56 95.218C42.345 93.77 8.794 59.514 8.024 52.988c-.772-6.525-10.797 8.098-4.242 19.056 6.556 10.958 47.212 57.542 52.72 44.059 5.51-13.485-9.942-20.885-9.942-20.885" fill="#DB982C"/><g transform="matrix(-1 0 0 1 116 43.53)"><mask id="b" fill="#fff"><use xlink:href="#a"/></mask><path d="M.002 1.153s68.64 46.782 70.183 52.935c1.542 6.154.386 18.012-7.327 20.737C55.146 77.55-.383 5.526.002 1.153" fill="#FFCE6F" mask="url(#b)"/></g><path d="M57.69 44.683c8.269-4.966 13.481 10.242 3.888 15.627s-12.452-10.484-3.889-15.627M39.26 54.986c7.054-.429 10.026 15.708 2.313 13.593-7.713-2.115-9.64-13.148-2.314-13.593m5.965-13.522c4.146-1.65 5.84 7.274.902 8.06-4.939.786-5.736-6.137-.902-8.06M57.69 26.848c5.478-.384 8.403 4.679 0 7.531-8.404 2.854-5.48-7.147 0-7.531m-30 18.575c2.568-1.516 4.265 4.02 1.94 5.414-2.325 1.395-7.338-2.223-1.94-5.414m47.818-7.771c6.17-1.187 7.326 5.962 2.314 7.771-5.013 1.81-8.484-6.584-2.314-7.771m1.074-15.419c2.31.225 1.626 5.343-1.845 4.594-3.47-.747-2.094-4.98 1.845-4.594M52.594 68.58c3.659-2.627 5.56 2.89 2.862 4.618-2.7 1.727-6.881-1.734-2.862-4.619M77.93 53.571c3.362-.184 2.811 5.97-1.348 5.2-4.159-.769-2.014-5.015 1.348-5.2m12.617-12.31c3.085.203 4.242 5.554 0 4.417-4.242-1.137-3.085-4.62 0-4.417" fill="#DB982C"/></g></svg>