<svg width="120" height="120" viewBox="0 0 120 120" xmlns="http://www.w3.org/2000/svg"><g fill="none" fill-rule="evenodd"><path d="M83.185 91.124c.495.315 1.003.61 1.525.885l1.34-2.324-1.527-.883-1.338 2.322zm5.179 2.408c.559.174 1.129.32 1.705.45l.693-2.592-1.702-.456-.696 2.598zm5.628.965c.292.011.586.022.88.022.297 0 .59-.01.883-.022v-2.681h-1.763v2.68zm6.695-3.563l-1.703.456.693 2.592a21.88 21.88 0 0 0 1.705-.45l-.695-2.598zm4.536-2.132l-1.527.882 1.34 2.325c.522-.274 1.03-.57 1.526-.885l-1.34-2.322zm-91.895 2.322c.495.315 1.004.61 1.526.885l1.339-2.324-1.526-.883-1.34 2.322zm5.18 2.408c.558.174 1.128.32 1.704.45l.693-2.592-1.702-.456-.695 2.598zm5.627.965c.293.011.586.022.882.022.295 0 .588-.01.881-.022v-2.681h-1.763v2.68zm6.695-3.563l-1.703.456.694 2.592c.576-.13 1.146-.276 1.705-.45l-.696-2.598zm4.537-2.132l-1.527.882 1.34 2.325a21.37 21.37 0 0 0 1.525-.885l-1.338-2.322zM7.97 63.774l.882-1.53-2.317-1.34c-.315.496-.61 1.005-.884 1.528l2.32 1.342zm-1.702 4.719l.456-1.704-2.594-.697c-.173.559-.32 1.13-.449 1.707l2.587.694zm-3.101 5.001h2.676v-1.765H3.167c-.011.293-.022.587-.022.883 0 .296.01.59.022.882m.514 3.93c.13.577.276 1.148.449 1.707l2.594-.696-.456-1.706-2.587.695zm1.97 5.367c.274.522.57 1.031.883 1.528l2.319-1.34-.882-1.53-2.32 1.342z" fill="#281A1E"/><path fill="#DADADA" d="M109.988 72.41H96.4l13.125-3.523-.104-.388-13.124 3.522 11.767-6.804-.201-.35-11.767 6.804 9.608-9.623-.285-.285-9.607 9.623 6.793-11.785-.349-.202-6.794 11.787L98.98 58.04l-.388-.104-3.517 13.146v-13.61h-.402v13.61l-3.517-13.146-.388.104 3.516 13.146-6.793-11.787-.349.202 6.793 11.785-9.606-9.623-.285.285 9.606 9.623-11.765-6.804-.202.35L93.45 72.02l-13.124-3.522-.104.388 13.125 3.523H79.758v.403h13.588L80.22 76.336l.104.388 13.124-3.522-11.767 6.804.202.35 11.765-6.804-9.606 9.623.285.285 9.606-9.623-6.793 11.785.35.201 6.792-11.786-3.516 13.146.388.104 3.517-13.146v13.61h.402v-13.61l3.517 13.146.388-.104-3.517-13.146 6.794 11.786.35-.201-6.794-11.785 9.607 9.623.285-.285-9.608-9.623 11.767 6.804.201-.35-11.767-6.804 13.124 3.522.104-.388L96.4 72.813h13.588zm-70.32-3.522l-.104-.39-13.124 3.523 11.767-6.805-.202-.349-11.765 6.804 9.606-9.622-.284-.286-9.606 9.623 6.792-11.785-.349-.201-6.793 11.786 3.517-13.147-.389-.104-3.516 13.147v-13.61h-.402v13.61l-3.517-13.147-.389.104 3.517 13.147L17.633 59.4l-.349.201 6.794 11.785-9.607-9.623-.285.286 9.607 9.622-11.766-6.804-.201.35 11.767 6.804L10.469 68.5l-.104.389L23.49 72.41H9.902v.403H23.49l-13.125 3.522.104.39 13.124-3.523-11.767 6.804.2.35 11.767-6.804-9.607 9.622.285.285 9.607-9.622-6.794 11.785.349.201 6.794-11.786-3.517 13.147.389.103 3.517-13.146v13.61h.402v-13.61l3.516 13.146.389-.103-3.517-13.147L32.4 85.823l.35-.201-6.793-11.785 9.606 9.622.284-.285-9.606-9.622 11.765 6.804.202-.35-11.767-6.804 13.124 3.522.104-.389-13.124-3.522h13.588v-.403H26.544z"/><path d="M84.533 44.35l-.07-.396a7.368 7.368 0 0 0 6.098-7.278c0-4.074-3.309-7.388-7.376-7.388v-.403c4.289 0 7.778 3.495 7.778 7.79a7.77 7.77 0 0 1-6.43 7.676" fill="#473339"/><path d="M84.337 43.836l-.183-.36a7.359 7.359 0 0 0 4.05-6.596 7.41 7.41 0 0 0-4.86-6.948l.137-.378a7.815 7.815 0 0 1 5.126 7.326 7.762 7.762 0 0 1-4.27 6.956" fill="#473339"/><path d="M56.283 61.387a.715.715 0 0 1 .45.663l.005 10.73a.712.712 0 1 1-1.424.001l-.006-10.73a.713.713 0 0 1 .975-.664" fill="#C6C6C6"/><path d="M53.395 60.088h5.256c.233 0 .422.19.422.422v1.605a.421.421 0 0 1-.422.422h-5.256a.421.421 0 0 1-.421-.422V60.51c0-.233.188-.422.42-.422m41.479 15.518a2.99 2.99 0 0 1-2.988-2.994 2.991 2.991 0 0 1 2.988-2.995 2.993 2.993 0 0 1 2.989 2.995 2.991 2.991 0 0 1-2.989 2.994m0-7.564a4.566 4.566 0 0 0-4.562 4.57 4.566 4.566 0 0 0 4.562 4.569 4.566 4.566 0 0 0 4.562-4.57 4.566 4.566 0 0 0-4.562-4.57" fill="#473339"/><path d="M97.253 72.612a2.382 2.382 0 0 1-2.38 2.383 2.382 2.382 0 0 1-2.38-2.383 2.382 2.382 0 0 1 2.38-2.384 2.382 2.382 0 0 1 2.38 2.384" fill="#281A1E"/><path d="M94.873 87.349c-8.126 0-14.713-6.599-14.713-14.738s6.587-14.736 14.713-14.736 14.713 6.597 14.713 14.736c0 8.14-6.587 14.738-14.713 14.738m0-36.645c-12.079 0-21.872 9.809-21.872 21.907 0 12.1 9.793 21.908 21.872 21.908 12.08 0 21.872-9.808 21.872-21.908 0-12.098-9.793-21.907-21.872-21.907" fill="#473339"/><path d="M95.755 50.727a21.098 21.098 0 0 0-.882-.023c-.296 0-.588.01-.881.023v2.68h1.763v-2.68zM89.06 54.29l1.702-.457-.694-2.592c-.576.13-1.146.276-1.704.45l.696 2.599zm-4.537 2.131l1.527-.882-1.34-2.325c-.522.275-1.03.57-1.525.885l1.338 2.322zM78.8 57.76l1.892 1.896 1.246-1.248-1.892-1.896c-.432.398-.848.816-1.247 1.248m-.971 6.014l.88-1.53-2.317-1.34a21.999 21.999 0 0 0-.884 1.528l2.32 1.342zm-1.703 4.719l.456-1.704-2.594-.697a21.6 21.6 0 0 0-.449 1.707l2.587.694zm-3.101 5.001H75.7v-1.765h-2.676c-.012.293-.022.587-.022.883 0 .296.01.59.022.882m.514 3.93c.13.577.275 1.148.449 1.707l2.594-.696-.457-1.706-2.586.695zm1.969 5.367c.275.522.57 1.031.884 1.528l2.318-1.34-.88-1.53-2.322 1.342zm3.293 4.672c.398.432.814.85 1.246 1.248l1.892-1.896-1.246-1.248-1.893 1.896zm30.254-1.896l-1.246 1.249 1.893 1.895c.432-.399.847-.816 1.246-1.248l-1.893-1.896zm2.865-4.117l-.882 1.528 2.318 1.34c.315-.495.61-1.004.884-1.527l-2.32-1.342zm1.702-4.72l-.456 1.705 2.595.696c.173-.559.32-1.13.449-1.707l-2.588-.694zm.425-3.236h2.677c.01-.292.022-.586.022-.882 0-.296-.011-.59-.022-.883h-2.677v1.765zm1.714-7.402l-2.595.697.456 1.705 2.587-.695a22.06 22.06 0 0 0-.448-1.707m-1.521-3.66a21.787 21.787 0 0 0-.884-1.528l-2.318 1.34.881 1.53 2.32-1.342zm-4.539-5.92l-1.892 1.895 1.246 1.249 1.893-1.896c-.399-.432-.814-.85-1.247-1.248m-4.663-3.298l-1.34 2.325 1.526.882 1.339-2.322a22.12 22.12 0 0 0-1.525-.885m-5.36-1.973l-.693 2.591 1.703.458.695-2.599a21.697 21.697 0 0 0-1.705-.45" fill="#281A1E"/><path d="M25.017 75.606a2.991 2.991 0 0 1-2.99-2.994 2.992 2.992 0 0 1 2.99-2.995 2.992 2.992 0 0 1 2.988 2.995 2.99 2.99 0 0 1-2.988 2.994m0-7.564a4.566 4.566 0 0 0-4.562 4.57 4.566 4.566 0 0 0 4.562 4.569 4.566 4.566 0 0 0 4.562-4.57 4.566 4.566 0 0 0-4.562-4.57" fill="#473339"/><path d="M27.397 72.612a2.382 2.382 0 0 1-2.38 2.383 2.382 2.382 0 0 1-2.38-2.383 2.382 2.382 0 0 1 2.38-2.384 2.382 2.382 0 0 1 2.38 2.384" fill="#281A1E"/><path d="M25.017 87.349c-8.126 0-14.714-6.599-14.714-14.738s6.588-14.736 14.714-14.736c8.125 0 14.712 6.597 14.712 14.736 0 8.14-6.587 14.738-14.712 14.738m0-36.645c-12.08 0-21.872 9.809-21.872 21.907 0 12.1 9.793 21.908 21.872 21.908S46.888 84.71 46.888 72.61c0-12.098-9.792-21.907-21.871-21.907" fill="#473339"/><path d="M25.898 50.727a21.096 21.096 0 0 0-.881-.023c-.296 0-.589.01-.882.023v2.68h1.763v-2.68zm-6.695 3.563l1.702-.457-.693-2.592c-.576.13-1.147.276-1.704.45l.695 2.599zm-4.536 2.131l1.526-.882-1.34-2.325c-.522.275-1.03.57-1.525.885l1.339 2.322zM8.943 57.76l1.892 1.896 1.247-1.248-1.893-1.896c-.432.398-.848.816-1.246 1.248m0 29.703c.398.432.814.85 1.246 1.248l1.893-1.896-1.247-1.248-1.892 1.896zm30.255-1.896l-1.247 1.249 1.893 1.895a21.89 21.89 0 0 0 1.246-1.248l-1.892-1.896zm2.864-4.117l-.881 1.528 2.318 1.34c.314-.495.609-1.004.884-1.527l-2.321-1.342zm1.703-4.72l-.457 1.705 2.595.696a21.6 21.6 0 0 0 .449-1.707l-2.587-.694zm.425-3.236h2.676c.011-.292.022-.586.022-.882 0-.296-.01-.59-.022-.883H44.19v1.765zm1.713-7.402l-2.595.697.457 1.705 2.587-.695a21.786 21.786 0 0 0-.45-1.707m-1.52-3.66a22.28 22.28 0 0 0-.883-1.528l-2.318 1.34.88 1.53 2.321-1.342zm-4.538-5.92l-1.893 1.895 1.246 1.249 1.893-1.896c-.398-.432-.814-.85-1.246-1.248m-4.664-3.298l-1.34 2.325 1.527.882 1.338-2.322a21.977 21.977 0 0 0-1.525-.885m-5.359-1.973l-.694 2.591 1.703.458.696-2.599a21.767 21.767 0 0 0-1.705-.45" fill="#281A1E"/><path d="M55.559 72.296L48.997 52.07a29.447 29.447 0 0 0 8.247 1.163c.48 0 .973-.011 1.476-.036 6.021-.298 14.761-2.644 22.89-11.905l1.367 3.331c-3.962 1.989-19.552 9.303-27.418 27.673zm-8.745-19.962l7.107 21.91-26.61-2.543 19.503-19.367zm49.059 19.845L81.94 36.443a1.078 1.078 0 0 0-1.405-.594c-.553.226-.732 1-.507 1.553l.664 1.633c-6.268 7.514-13.657 11.556-21.978 11.997-5.247.279-9.27-1.036-10.547-1.518l-4.672-14.402a1.08 1.08 0 0 0-1.36-.695 1.082 1.082 0 0 0-.693 1.362l4.624 14.251-21.912 21.76a1.08 1.08 0 1 0 .657 1.843l30.541 2.92.087.003.016.002c.067 0 .135-.01.203-.023a.995.995 0 0 0 .126-.03h.004c.007-.002.012-.006.018-.008.055-.02.107-.043.158-.07a1.052 1.052 0 0 0 .163-.11c.017-.013.034-.025.05-.04a1.15 1.15 0 0 0 .121-.127l.008-.009c.038-.05.072-.103.102-.16l.025-.055c.011-.026.025-.05.035-.077 7.017-19.11 23.225-27.075 27.329-29.207l10.076 26.353a1.08 1.08 0 1 0 1.999-.816z" fill="#FCC12B"/><path d="M59.441 76.46l-2.244-1.297a.193.193 0 0 1 0-.335l2.244-1.297a.28.28 0 0 1 .408.164 4.535 4.535 0 0 1 0 2.601.28.28 0 0 1-.408.164zm-3.254 2.715v-2.593c0-.149.161-.242.29-.167l2.244 1.298a.28.28 0 0 1 .061.435 4.56 4.56 0 0 1-2.248 1.298.28.28 0 0 1-.347-.271zm-.559-3.364a.831.831 0 0 1-.325-1.63.83.83 0 0 1 .325 1.63zm-1.23 3.635a4.56 4.56 0 0 1-2.249-1.298.28.28 0 0 1 .061-.435l2.245-1.298a.193.193 0 0 1 .29.167v2.593a.28.28 0 0 1-.347.271zM51.49 76.46a.28.28 0 0 1-.407-.164 4.534 4.534 0 0 1 0-2.601.28.28 0 0 1 .407-.164l2.244 1.297a.193.193 0 0 1 0 .334L51.49 76.46zm3.254-5.644v2.593c0 .149-.16.242-.289.167l-2.245-1.298a.28.28 0 0 1-.06-.435 4.56 4.56 0 0 1 2.248-1.298.28.28 0 0 1 .346.27zm1.79-.271a4.56 4.56 0 0 1 2.248 1.298.28.28 0 0 1-.06.435l-2.246 1.298a.193.193 0 0 1-.289-.167v-2.594a.28.28 0 0 1 .347-.27zm4.241 2.215l-.025-.055a4.834 4.834 0 0 0-.175-.362 5.015 5.015 0 0 0-.105-.195 5.466 5.466 0 0 0-.087-.143 5.754 5.754 0 0 0-4.464-2.755c-.15-.013-.3-.023-.453-.023-.153 0-.304.01-.453.023a5.745 5.745 0 0 0-4.464 2.754c-.03.048-.06.096-.087.144a5.014 5.014 0 0 0-.106.195 4.834 4.834 0 0 0-.174.362c-.009.019-.018.036-.025.054a5.752 5.752 0 0 0-.45 2.237c0 .792.16 1.548.45 2.235.007.019.016.036.025.055.053.124.111.244.174.362.034.066.07.13.106.195.027.048.057.095.086.142a5.751 5.751 0 0 0 4.465 2.756c.149.012.3.023.453.023a7.668 7.668 0 0 0 .721-.05 5.747 5.747 0 0 0 3.86-2.234c.12-.159.233-.324.336-.494.03-.048.06-.095.087-.143.036-.065.072-.129.105-.195.063-.118.122-.238.175-.362l.025-.055c.29-.687.45-1.443.45-2.235 0-.793-.16-1.549-.45-2.236z" fill="#473339"/><path d="M59.587 85.972a.713.713 0 0 1-.662-.45l-3.95-9.975a.714.714 0 0 1 .4-.927.714.714 0 0 1 .923.4l3.95 9.975a.715.715 0 0 1-.661.977" fill="#C6C6C6"/><path d="M62.165 87.197h-5.257a.421.421 0 0 1-.42-.422V85.17a.42.42 0 0 1 .42-.422h5.257c.233 0 .421.189.421.422v1.605a.422.422 0 0 1-.42.422" fill="#473339"/><path d="M79.434 33.906a.838.838 0 0 1-.733-.434c-.206-.367-.081-.835.251-1.093l3.035-2.354a.357.357 0 0 0 .138-.281l.002-.794a.357.357 0 0 0-.356-.358l-1.641-.003c-.44 0-.838-.318-.881-.755a.84.84 0 0 1 .836-.925l2.885.006c.463 0 .838.378.836.842l-.005 2.575c0 .26-.12.504-.325.662l-3.527 2.736a.835.835 0 0 1-.515.176" fill="#DADADA"/><path d="M80.565 38.04l1.487-.718a.396.396 0 0 0 .185-.526l-2.716-5.698a.524.524 0 0 0-.694-.262l-1.172.54a.526.526 0 0 0-.261.695l2.641 5.778c.092.2.33.287.53.19" fill="#281A1E"/><path d="M80.062 29.086l-3.583-.007a.546.546 0 0 1-.544-.546l.003-1.46c0-.3.246-.545.546-.544l3.584.007c.3.001.543.246.542.547l-.002 1.46a.545.545 0 0 1-.546.543" fill="#473339"/><path d="M52.87 32.441c0-.648-.346-1.187-1.173-1.174-3.334.052-5.496.626-10.707-.13-4-.581-7.243-.196-7.243 1.904 0 .943 1.093 4.268 3.336 4.815 3.886.948 7.97-1.384 9.456-2.205 1.511-.835 4.016-1.689 5.415-2.066.519-.14.916-.584.916-1.144" fill="#2F2933"/></g></svg>