<svg width="120" height="120" viewBox="0 0 120 120" xmlns="http://www.w3.org/2000/svg"><g fill="none" fill-rule="evenodd"><path d="M119.574 48.212c-.105-1.661-.87-2.964-1.711-2.91a.794.794 0 0 0-.175.032l-15.925 3c-.777.05-1.336 1.208-1.248 2.59.087 1.379.788 2.458 1.566 2.41l16.163-2.019c.84-.053 1.436-1.442 1.33-3.103" fill="#F1AD6D"/><path d="M118.38 51.365h-.002.002zm-.012.002h-.005.005zm-.012.001h-.006.006zm-.012.001h-.006.005zm-.013 0h-.005.005zm-.012.002l-.007.002.007-.002zm-.015.002h-.007.007zm-.01 0l-.006.001.006-.001zm-.015.001l-.012.001h.012z" fill="#FDE5C9"/><path d="M102.316 48.332l-.342.065a.798.798 0 0 0-.132.02.252.252 0 0 1-.037.248c.72.722 1.087 2.682 1.128 3.694.021.536-.093.803-.23.934.001.017.001.035.003.052l15.749-1.967h.015c.002 0 .002-.002.003-.002h.014l.002-.001h.006c.74-.086 1.279-1.215 1.3-2.637-.73.847-2.658 1.62-7.615 2.164a29.41 29.41 0 0 1-2.526.117c-5.638 0-7.024-1.982-7.338-2.687" fill="#EE9F62"/><path d="M101.9 48.765a.247.247 0 0 1-.095.073c.396.958.691 2.017.857 3.145l.014-.001.02-.001a.248.248 0 0 1 .03.495c.035.309.058.615.072.918.138-.13.252-.398.23-.934-.04-1.012-.408-2.972-1.128-3.695" fill="#EA8C51"/><path d="M102.287 52.404c-.654-5.056-3.902-8.804-7.253-8.37l-68.608 6.642 2.718 24.557 68.262-12.887c3.35-.434 5.537-4.885 4.881-9.942" fill="#F1AD6D"/><path d="M66.233 59.162c-4.844 0-12.54.787-19.036 1.572-6.494.786-11.782 1.57-11.784 1.57a.261.261 0 0 0-.08.028c.016.152.03.304.043.456a.261.261 0 0 0 .11.008 498.342 498.342 0 0 1 14.251-1.862c5.884-.676 12.3-1.276 16.496-1.276h.007c1.357 0 2.481.064 3.265.205.391.07.697.16.893.257.098.05.168.1.209.142a.204.204 0 0 1 .062.102l.001.022c.001.029-.01.076-.06.148-.092.14-.326.334-.677.537-.658.384-1.717.816-3.052 1.265a70.358 70.358 0 0 1-3.718 1.117c1.115-.164 2.247-.326 3.392-.487 1.165-.378 2.153-.745 2.91-1.096.507-.236.91-.463 1.2-.694a1.71 1.71 0 0 0 .354-.36.759.759 0 0 0 .148-.43.587.587 0 0 0-.013-.122.698.698 0 0 0-.192-.349c-.165-.167-.392-.278-.674-.373-.424-.138-.983-.23-1.666-.292a27.626 27.626 0 0 0-2.39-.088zm-27.474 9.632l-.427.097a457.432 457.432 0 0 1-3.594.797 13.66 13.66 0 0 1-.081.306 71.884 71.884 0 0 0 4.102-1.2z" fill="#EB8C4F"/><path d="M56.065 61.762c-1.467 0-3.485.182-5.697.454-6.341.78-14.254 2.302-14.933 2.434-.001.168-.004.334-.01.5h.01a.254.254 0 0 0 .048-.004l.648-.124c1.458-.277 5.185-.969 9.177-1.59 3.988-.622 8.25-1.174 10.753-1.174h.011c.61 0 1.113.034 1.47.102.177.035.318.078.41.123.087.04.126.08.135.098l-.004.01a.466.466 0 0 1-.1.111c-.11.095-.308.213-.571.333-.495.229-1.223.477-2.11.73-3.107.888-8.165 1.847-12.436 2.58a362.184 362.184 0 0 1-7.153 1.156c-.253.038-.433.064-.53.08a14.2 14.2 0 0 1-.093.5.256.256 0 0 0 .083.002c.002 0 5.804-.85 11.61-1.934 2.903-.542 5.807-1.142 7.993-1.725 1.094-.292 2.008-.578 2.662-.858.327-.14.59-.277.788-.424.097-.073.181-.15.246-.24a.494.494 0 0 0 .055-.552.763.763 0 0 0-.36-.314c-.225-.107-.51-.17-.862-.213a10.671 10.671 0 0 0-1.24-.061" fill="#EB8C4F"/><path d="M99.904 46.166a.149.149 0 0 0-.036.005l-.229.047c.165.366.324.75.48 1.148.09-.139.142-.36.129-.596-.019-.345-.168-.604-.344-.604zm2.567 7.818c-.008 0-.017 0-.025.003l-.063.008a42.787 42.787 0 0 1 0 1.189c.039-.004.076-.01.114-.015.192-.024.337-.307.323-.634-.014-.312-.167-.551-.349-.551z" fill="#F9D2A8"/><path d="M99.936 46.166c-.36.039-1.296.14-2.66.292a.09.09 0 0 1 .022.002.248.248 0 0 1-.016.495h-.018s-.169-.013-.508-.033a141.33 141.33 0 0 0-1.527-.078l-.954-.042c-4.05.474-9.724 1.173-15.429 1.995-5.34.77-10.707 1.645-14.799 2.546-2.046.45-3.773.905-5.026 1.361-.628.228-1.137.455-1.517.691-.19.118-.347.238-.472.368a.973.973 0 0 0-.259.437.75.75 0 0 0 .054.514c.095.19.257.338.459.464.355.22.856.384 1.496.524 1.918.415 5.11.573 9.013.574 9.91 0 24.355-1.038 33.384-1.7.09-.17.172-.342.246-.515l-.284.02c-.17.214-.358.366-.554.437-.619.225-6.6.45-13.778.542-6.605.399-13.516.72-19.014.72h-.007c-3.155 0-5.845-.107-7.731-.362-.942-.127-1.685-.294-2.168-.492-.24-.097-.415-.204-.515-.3a.475.475 0 0 1-.1-.13.244.244 0 0 1-.018-.179.497.497 0 0 1 .134-.211c.162-.172.486-.38.94-.587.852-.393 2.156-.804 3.774-1.21 5.668-1.43 15.188-2.85 23.28-3.908a671.055 671.055 0 0 1 14.768-1.759.253.253 0 0 0 .13-.053 8.226 8.226 0 0 0-.346-.423" fill="#EC9458"/><path d="M102.586 56.996c-.116.407-.242.807-.377 1.2.2-.025.303-.04.305-.04.374-.05.633-.352.576-.674-.042-.241-.246-.427-.504-.486zm-41.397 12.11l-8.77 1.657a.248.248 0 0 0 .243.202l.034-.002c2.387-.329 5.334-1.003 8.493-1.856z" fill="#F6C490"/><path d="M97.432 57.863c-.584.108-1.205.226-1.852.352-2.678.525-5.781 1.2-8.504 1.973a225.19 225.19 0 0 0 6.426-1.074c1.58-.29 2.874-.723 3.93-1.251" fill="#EB8C4F"/><path d="M88 46.166c-3.028 0-6.603.457-10.392 1.193 1.71-.176 3.112-.276 4.096-.276.188 0 .36.004.515.011.492.023.704.117.672.272 1.823-.223 3.542-.348 5.11-.348.322 0 .639.006.948.017 2.137.08 3.855.18 5.152.272 1.141-.229 2.154-.427 3.002-.59-.27-.032-2.99-.34-8.143-.535h-.001c-.313-.01-.633-.016-.959-.016zM34.162 55.41l-.32.106-.4.129a.26.26 0 0 0-.085.047c.1.3.199.606.295.918l.905-.298c-.11-.257-.242-.56-.395-.902z" fill="#EC9458"/><path d="M97.009 46.166c-.848.23-1.86.508-3.002.83.349.037.667.069.955.102a55.91 55.91 0 0 1 1.527.189 23.14 23.14 0 0 1 .525.08c.13 0 .238-.242.247-.557.01-.33-.093-.617-.23-.64l-.022-.004" fill="#E88247"/><path d="M101.95 49.632a4.7 4.7 0 0 1-.145 2.256l1.2-.046a8.43 8.43 0 0 0-1.055-2.21m.592 3.032l-.01.001s-.26.022-.736.058a7.54 7.54 0 0 1-.426 1.328l1.256-.091a13.939 13.939 0 0 0-.084-1.296zm.084 1.792l-1.502.11c-.661 1.257-1.777 2.454-3.598 3.365a160.256 160.256 0 0 1 4.695-.799c.022 0 .042.004.063.009.206-.837.324-1.74.342-2.685zm-.478 3.187l-.391.062a175.265 175.265 0 0 0-5.986 1.065c-3.64.712-8.07 1.709-11.213 2.831-3.166 1.13-8.929 3.202-15.007 5.144-2.816.898-5.698 1.77-8.423 2.506L97.63 62.36c2.102-.273 3.745-2.126 4.517-4.717zM87.17 60.256c-6.417.988-13.616 1.905-20.394 2.86-.391.126-.803.254-1.232.383-3.412 1.026-7.948 2.111-12.485 3.102-9.073 1.985-18.142 3.595-18.143 3.595a.186.186 0 0 1-.044.005.268.268 0 0 1-.079-.013c-.847 2.4-2.26 4.159-4.035 4.796l21.6-4.077-.003-.013a.248.248 0 0 1 .212-.28c4.385-.6 10.767-2.405 16.833-4.343 6.068-1.937 11.826-4.006 14.992-5.137a44.51 44.51 0 0 1 2.778-.878zm-23.787 3.347c-3.185.469-6.226.95-8.986 1.46-5.272.97-10.75 2.643-15.417 3.88 2.25-.424 5.23-1 8.47-1.663 5.308-1.087 11.315-2.409 15.933-3.677z" fill="#ED9960"/><path d="M66.64 63.061a573.52 573.52 0 0 0-3.393.488c-4.618 1.269-10.625 2.59-15.933 3.677-3.24.663-6.22 1.24-8.47 1.664a84.372 84.372 0 0 1-4.102.996l-.085.248a.268.268 0 0 0 .079.013c.015 0 .03 0 .044-.004.001 0 9.07-1.611 18.143-3.596 4.537-.99 9.073-2.076 12.485-3.102.43-.129.84-.256 1.232-.384" fill="#E87E46"/><path d="M102.44 53.964c-.405.057-.823.119-1.256.18a21.29 21.29 0 0 1-.245 1.02l1.501-.217a51.79 51.79 0 0 0 0-.983" fill="#E9854D"/><path d="M102.287 56.996a160.256 160.256 0 0 0-4.695.798c-1.056.53-2.35.961-3.93 1.252-2.01.37-4.17.727-6.426 1.074a44.3 44.3 0 0 0-2.778.878c-3.166 1.131-8.924 3.2-14.992 5.137-6.066 1.938-12.448 3.743-16.833 4.344a.248.248 0 0 0-.212.279c0 .005.002.008.003.013l8.77-1.656a199.494 199.494 0 0 0 8.423-2.506c6.078-1.942 11.841-4.013 15.007-5.144 3.142-1.122 7.574-2.119 11.212-2.831a175.265 175.265 0 0 1 6.378-1.127c.049-.164.094-.332.136-.502a.274.274 0 0 0-.063-.009" fill="#E87E46"/><path d="M29.482 75.191h-.024v.004l.024-.004" fill="#ED9960"/><path d="M35.486 61.855c.877 6.771-1.662 12.681-5.672 13.2-4.01.52-7.97-4.548-8.846-11.32-.878-6.771 1.661-12.681 5.671-13.2 4.01-.52 7.97 4.549 8.847 11.32" fill="#EA8956"/><path d="M26.337 55.697c-.048 0-.096.001-.143.005-1.328.105-2.369 1.647-2.8 3.837l1.556-.218a.923.923 0 0 1 .091-.004c1.012 0 1.937 1.314 2.183 3.06a6.266 6.266 0 0 1 .061.898c0 1.764-.74 3.18-1.767 3.261l-1.378.282c.749 1.715 1.85 2.818 3.009 2.818.047 0 .094-.002.143-.006 1.945-.153 3.276-3.396 2.974-7.242-.296-3.751-2.038-6.691-3.93-6.691" fill="#D9714F"/><path d="M27.357 62.613c-.157-1.992-1.194-3.536-2.317-3.447L1.733 62.442l.684 8.679 23.192-4.74c1.122-.088 1.904-1.775 1.748-3.768" fill="#F1AD6D"/><path d="M25.445 59.162c1.022.813 3.365 3.516-5.631 6.536-7.79 2.615-11.761 4.362-14.673 4.362-.925 0-1.742-.176-2.542-.556l.127 1.612 23.192-4.74c1.026-.08 1.767-1.497 1.767-3.261a6.478 6.478 0 0 0-.062-.898c-.244-1.744-1.167-3.052-2.178-3.055" fill="#EE9F62"/><path d="M4.418 66.798c.189 2.397-.64 4.418-1.853 4.513-1.213.096-2.35-1.77-2.538-4.167-.188-2.397.641-4.417 1.854-4.512 1.213-.096 2.349 1.77 2.537 4.166" fill="#EA8956"/><path d="M3.348 67.112c.124 1.58-.423 2.914-1.222 2.978-.801.062-1.55-1.169-1.675-2.75s.423-2.914 1.223-2.977c.8-.063 1.55 1.167 1.674 2.75" fill="#F4B561"/><path d="M97.807 47.032s-35.883 4.523-37.54 6.483c-.855 1.009 9.407 1.34 19.786 1.34 2.263 0 4.531-.016 6.69-.044 5.263-.318 10.33-.684 14.333-.978.26-.327.478-.798.618-1.341-3.622.283-18.265 1.39-26.77 1.39-2.254 0-4.074-.076-5.172-.272-.368-.067-.655-.144-.872-.253a.729.729 0 0 1-.307-.263.45.45 0 0 1-.01-.444.868.868 0 0 1 .266-.298c.112-.085.246-.16.403-.235a7.932 7.932 0 0 1 1.218-.425c.987-.273 2.32-.536 3.886-.787 3.13-.5 7.19-.955 11.213-1.34a541.948 541.948 0 0 1 15.342-1.215c-.637-.722-1.627-1.237-3.084-1.318" fill="#F3BC7C"/><path d="M100.975 53.964c-4.003.36-9.07.81-14.332 1.2 7.177-.113 13.159-.389 13.778-.665.196-.087.384-.273.554-.535" fill="#F0A66A"/><path d="M101.108 48.765l-.588.038a574.315 574.315 0 0 0-10.193.761c-6.08.51-13.258 1.227-17.62 2.043-1.244.232-2.259.474-2.941.715-.362.127-.63.257-.773.367a.49.49 0 0 0-.112.108l.01.008c.04.033.13.08.26.124.263.089.68.167 1.213.227 1.066.119 2.6.171 4.419.171h.007c8.502 0 23.227-1.114 26.772-1.393l.1-.008c.157-1.023.037-2.206-.554-3.16" fill="#F3BC7C"/><path d="M101.672 48.332h-.042l-.258.016c.102.218.201.44.299.662a2.45 2.45 0 0 1 .638-.25.687.687 0 0 0-.637-.428" fill="#F9D2A8"/><path d="M102.01 48.765a2.45 2.45 0 0 0-.638.25v.001c.186.118.366.265.536.437a.699.699 0 0 0 .151-.472.718.718 0 0 0-.049-.216" fill="#EA8B4F"/><path d="M101.372 48.765c.091.212.183.425.272.639a.685.685 0 0 0 .264-.202c-.17-.171-.35-.32-.536-.437" fill="#E77B42"/><path d="M101.795 48.332l-.856.077c.219.357.414.732.586 1.123l.476-.042a.321.321 0 0 0 .138-.046l-.164-.545v-.001a37.71 37.71 0 0 0-.18-.566" fill="#EC9458"/><path d="M102.333 52.231c-.02 0-.038.002-.058.003l-.037.002.001.009v.005a24.156 24.156 0 0 1 .092.583c.03.2.057.4.084.598.364-.038.632-.323.602-.646-.03-.314-.331-.554-.684-.554" fill="#E77B42"/><path d="M102.955 52.231zm0 .012l.004.03c0-.01-.002-.02-.004-.03zm-.872.088l-.125.014c-.04.374-.09.737-.153 1.086l.135-.017c.056-.362.104-.724.143-1.083zm.92.396z" fill="#EC9458"/><path d="M102.238 52.231zm.006.046z" fill="#E56F3C"/><path d="M102.903 52.231l-.944.102c-.042.364-.093.73-.154 1.098.765-.08 1.184-.126 1.185-.126l.015-.002c-.015-.178-.03-.357-.048-.537a32.782 32.782 0 0 0-.054-.523v-.012" fill="#E9854D"/><path d="M100.829 48.332c-1.997.13-8.619.573-15.342 1.215-4.023.385-8.082.84-11.213 1.34-1.566.251-2.899.514-3.886.787a7.932 7.932 0 0 0-1.217.424 2.328 2.328 0 0 0-.404.236.868.868 0 0 0-.266.298.45.45 0 0 0 .01.444.729.729 0 0 0 .307.262c.217.11.504.187.872.254 1.099.196 2.918.272 5.173.272 8.505 0 23.148-1.107 26.77-1.39a5.2 5.2 0 0 0 .102-.506 5.8 5.8 0 0 1-.1.008c-3.545.278-18.27 1.393-26.772 1.393h-.007c-1.819 0-3.353-.053-4.419-.172-.533-.06-.95-.138-1.213-.226a.928.928 0 0 1-.26-.124l-.01-.009a.49.49 0 0 1 .111-.108c.143-.11.412-.24.774-.367.682-.24 1.697-.482 2.942-.715 4.36-.815 11.539-1.531 17.618-2.042a574.315 574.315 0 0 1 10.193-.761l.588-.038a3.71 3.71 0 0 0-.351-.475z" fill="#EFA061"/><path d="M77.594 46.6c-13.232.795-44.942 4.268-44.942 4.268s-2.974-.257-3.83-.257c-.344 0-.348.041.312.156 1.699.296 3.832 2.979 4.844 4.381l.61-.125c.727-.152 1.729-.363 2.83-.605 2.201-.484 4.802-1.09 6.368-1.576.399-.124 1.155-.322 2.214-.577a204.21 204.21 0 0 1 3.997-.915 342.09 342.09 0 0 1 11.682-2.338c5.127-.932 10.72-1.825 15.915-2.413zm5.282.003c-5.42.386-11.756 1.28-17.733 2.302-7.988 1.364-15.34 2.951-19.027 3.842a44.126 44.126 0 0 0-2.183.569c-1.6.494-4.2 1.101-6.409 1.586-1.321.29-2.5.537-3.234.689.175.25.272.403.272.403s47.865-8.138 48.314-9.39z" fill="#F3BC7C"/><path d="M81.935 46.6c-.984 0-2.386.057-4.096.16-5.194.587-10.788 1.48-15.915 2.413a342.09 342.09 0 0 0-11.681 2.338c-1.584.347-2.94.66-3.997.915-1.059.255-1.815.453-2.214.577-1.567.485-4.167 1.092-6.368 1.576-1.101.242-2.104.453-2.831.604l-.61.126c.122.168.226.317.313.442.734-.15 1.912-.397 3.234-.688 2.208-.485 4.81-1.092 6.409-1.586a44.126 44.126 0 0 1 2.183-.57c3.687-.89 11.04-2.478 19.027-3.841 5.977-1.022 12.313-1.916 17.732-2.302.033-.09-.179-.145-.67-.158a18.715 18.715 0 0 0-.516-.007" fill="#F0A66A"/><path d="M23.455 59.596C16.43 61.157.225 61.89 3.452 62.812c.704.201 1.408.804 1.508 1.709 5.228-.402 18.495-4.925 18.495-4.925m94.795-13.43c-1.82 0-12.318 2.13-13.334 2.336 1.615-.296 12.21-.588 13.591-.687 1.407-.1.402-1.206 0-1.608-.028-.028-.116-.04-.258-.04zm-13.195 2.336l-.217.018.217-.018z" fill="#F3BC7C"/></g></svg>