<svg width="120" height="120" viewBox="0 0 120 120" xmlns="http://www.w3.org/2000/svg" xmlns:xlink="http://www.w3.org/1999/xlink"><defs><path id="a" d="M.003 1.454h23.362v23.22H.003z"/><path id="c" d="M1.3.415h23.36v23.221H1.3z"/></defs><g fill="none" fill-rule="evenodd"><path d="M59.14 16.328S56.435 1.923 72.286.001l-.774 6.53s3.093-4.227 20.877-1.92c0 0-1.163 14.792-13.147 19.02l7.636 3.648s-11.113 9.607-23.484-.766c0 0-3.286-3.845-4.254-10.185" fill="#B1E23B"/><path d="M62.344 32.614S61.292 14.457 52.156 3.286L47.59 5.034s7.903 10.647 9.747 29.236l5.007-1.656z" fill="#B1E23B"/><path d="M46.362 40.94c0 6.414-5.23 11.61-11.681 11.61-6.45 0-11.68-5.196-11.68-11.61 0-6.41 5.23-11.61 11.68-11.61 6.452 0 11.682 5.2 11.682 11.61m24.695 0c0 6.414-5.23 11.61-11.682 11.61-6.45 0-11.68-5.196-11.68-11.61 0-6.41 5.23-11.61 11.68-11.61 6.452 0 11.682 5.2 11.682 11.61" fill="#7E5D9B"/><g transform="translate(72.39 27.876)"><mask id="b" fill="#fff"><use xlink:href="#a"/></mask><path d="M23.366 13.065c0 6.412-5.23 11.609-11.682 11.609S.003 19.477.003 13.064c0-6.41 5.23-11.61 11.681-11.61 6.452 0 11.682 5.2 11.682 11.61" fill="#7E5D9B" mask="url(#b)"/></g><path d="M51.404 63.693c0 6.413-5.227 11.613-11.68 11.613-6.45 0-11.682-5.2-11.682-11.613 0-6.41 5.232-11.607 11.682-11.607 6.453 0 11.68 5.196 11.68 11.607m39.899-.195c0 6.413-5.23 11.61-11.68 11.61-6.45 0-11.682-5.197-11.682-11.61 0-6.411 5.232-11.61 11.682-11.61s11.68 5.199 11.68 11.61" fill="#7E5D9B"/><path d="M57.485 85.465c0 6.41-5.23 11.61-11.68 11.61-6.448 0-11.68-5.2-11.68-11.61 0-6.41 5.232-11.61 11.68-11.61 6.45 0 11.68 5.2 11.68 11.61m24.588.922c0 6.412-5.23 11.612-11.682 11.612-6.45 0-11.68-5.2-11.68-11.612 0-6.411 5.23-11.608 11.68-11.608 6.452 0 11.682 5.197 11.682 11.608" fill="#7E5D9B"/><g transform="translate(44.951 95.15)"><mask id="d" fill="#fff"><use xlink:href="#c"/></mask><path d="M24.661 12.028c0 6.409-5.228 11.609-11.682 11.609-6.45 0-11.68-5.2-11.68-11.61C1.3 5.618 6.53.416 12.98.416c6.454 0 11.682 5.202 11.682 11.613" fill="#7E5D9B" mask="url(#d)"/></g><path d="M70.834 62.319c0 6.409-5.23 11.609-11.68 11.609-6.45 0-11.681-5.2-11.681-11.61 0-6.41 5.231-11.614 11.681-11.614 6.45 0 11.68 5.204 11.68 11.615" fill="#7E5D9B"/><path d="M29.9 44.236a1.372 1.372 0 0 1-1.318-.98c-1.438-4.872 1.615-7.685 3.43-8.49a1.38 1.38 0 0 1 1.813.69c.305.684 0 1.486-.684 1.797-.317.147-3.019 1.532-1.925 5.236a1.364 1.364 0 0 1-1.317 1.747m24.538 20.846c-.593 0-1.14-.384-1.317-.979-1.443-4.874 1.61-7.683 3.426-8.489a1.38 1.38 0 0 1 1.813.693 1.357 1.357 0 0 1-.682 1.793c-.315.147-3.02 1.53-1.923 5.233a1.361 1.361 0 0 1-.93 1.692 1.371 1.371 0 0 1-.387.057M64.464 19.96a.907.907 0 0 1-.41-1.722c.512-.255 12.555-6.212 17.95-6.659.484-.06.947.327.989.83a.91.91 0 0 1-.834.981c-5.053.42-17.164 6.413-17.285 6.473a.927.927 0 0 1-.41.096" fill="#FFF"/><path d="M71.07 16.458a.91.91 0 0 1-.841-1.267l2.643-6.13a.92.92 0 0 1 1.204-.478.908.908 0 0 1 .479 1.195l-2.643 6.129a.917.917 0 0 1-.842.55m1.322 4.379a.96.96 0 0 1-.33-.06l-5.725-2.189a.912.912 0 0 1-.525-1.176.917.917 0 0 1 1.184-.522l5.725 2.189a.91.91 0 0 1 .525 1.176.915.915 0 0 1-.854.582" fill="#FFF"/></g></svg>