<svg width="120" height="120" viewBox="0 0 120 120" xmlns="http://www.w3.org/2000/svg" xmlns:xlink="http://www.w3.org/1999/xlink"><defs><path id="a" d="M0 .042h83.232v83.232H0z"/><path id="c" d="M0 .042h83.232v83.232H0z"/><path id="e" d="M0 .042h71.571v77.402H.001z"/></defs><g fill="none" fill-rule="evenodd"><path d="M58.644 81.68v9.1l-7.72-11.13-3.194 2.214 9.26 13.35a9.29 9.29 0 0 1 1.654 5.29v20.453h5.247V81.68h-5.247z" fill="#A87D4A"/><path d="M63.892 81.68h-5.248v9.1l-7.72-11.13-3.194 2.214 5.885 8.484a20.84 20.84 0 0 0 2.484 1.105c3.449 1.282 5.68 4.642 5.68 8.321v21.177l.011.006h2.102V81.68z" fill="#8E6539"/><g transform="translate(18 .958)"><mask id="b" fill="#fff"><use xlink:href="#a"/></mask><path d="M83.232 50.987c0 22.983-18.632 32.287-41.616 32.287C18.632 83.274 0 73.97 0 50.987 0 28.003 18.632.042 41.616.042c22.984 0 41.616 27.96 41.616 50.945" fill="#88AF31" mask="url(#b)"/></g><g transform="translate(18 .958)"><mask id="d" fill="#fff"><use xlink:href="#c"/></mask><path d="M83.232 50.987c0 22.983-18.632 32.287-41.616 32.287C18.632 83.274 0 73.97 0 50.987 0 28.003 18.632.042 41.616.042c22.984 0 41.616 27.96 41.616 50.945" fill="#88AF31" mask="url(#d)"/></g><g transform="translate(18 .958)"><mask id="f" fill="#fff"><use xlink:href="#e"/></mask><path d="M49.428 1.137C46.898.434 44.288.041 41.616.041 18.632.041 0 28.002 0 50.987 0 61.83 4.151 69.627 10.947 74.84c5.7 1.77 12.157 2.604 19.008 2.604 22.984 0 41.616-9.304 41.616-32.288 0-15.947-8.974-34.282-22.143-44.019" fill="#B3DB5A" mask="url(#f)"/></g><path d="M56.399 42.453c-3.783 12.127-12.09 14.923-20.447 12.316-8.358-2.606-13.603-9.628-9.821-21.756C29.914 20.886 41.29 8.245 49.649 10.85c8.358 2.607 10.532 19.474 6.75 31.602" fill="#D5F482"/></g></svg>