<svg width="136" height="142" viewBox="0 0 136 142" xmlns="http://www.w3.org/2000/svg"><g fill="none"><path d="M66.744 18.857S80.888 33.2 81.032 34.464c-1.484.044-24.456 4.122-24.456 4.122L36.68 33.344l30.064-14.487z" fill="#82001E"/><path d="M81.428 6.423l-26.156-.4c0 .332-.252 5.602.152 6.09.692.8 12.028 1.297 15.036 1.505 1.4.1 11.2-1.424 11.2-1.424s-.092-5.115-.232-5.771z" fill="#BE0A3C"/><path d="M36.68 33.348l18.744-21.21s12.692 3.601 15 6.123C66.2 21.058 36.68 33.348 36.68 33.348z" fill="#FFC800"/><path d="M99.568 34.288c-1.348.184-15.456 2.257-15.456 2.257l-8.424-2.429S61.2 18.481 55.356 12.106c2-.705 26.304.084 26.304.084s15.612 18.324 17.908 22.098z" fill="#F01446"/><path d="M99.224 116.856l-22.672.5L65.176 79.59l10.512-45.474 23.88.172s.312 52.653.12 62.106c-.08 3.886-.464 20.462-.464 20.462z" fill="#BE0A3C"/><path d="M75.688 34.116s-34-.864-39.008-.768c-.256 4.674 2.088 59.384 2.6 69.049.128 2.401.136 4.778.204 7.167.036 1.273.336 6.804.336 6.804s2.736.06 3.924.108c2.264.088 4.524.292 6.8.352 4.58.116 9.148.18 13.728.36 2.12.084 12.288.176 12.288.176l-.872-83.248z" fill="#F01446"/><path d="M68.528 42.404s-21.5-.62-24.672-.552c-.164 3.35 1.504 61.585 2 62.43.496.844 1.728.54 2.48.572 1.432.064 2.86.212 4.296.252 2.896.084 5.788.128 8.684.26 1.34.06 7.772.128 7.772.128l-.56-63.09z" fill="#FFF"/></g></svg>