<svg width="120" height="120" viewBox="0 0 120 120" xmlns="http://www.w3.org/2000/svg" xmlns:xlink="http://www.w3.org/1999/xlink"><defs><path id="a" d="M0 .134h110.815v28.944H0z"/><path id="c" d="M.2.021h22.635V10.19H.2z"/></defs><g fill="none" fill-rule="evenodd"><g transform="translate(0 40.392)"><mask id="b" fill="#fff"><use xlink:href="#a"/></mask><path d="M.96.288s17.078-1.934 40.958 7.876c23.88 9.808 42.603 20.05 68.897 17.99 0 0-24.468 7.804-50.771-2.085C40.342 16.662 23.81 6.869 0 8.409L.96.289z" fill="#9B7D73" mask="url(#b)"/></g><path d="M48.547 51.332s10.57 1.408 18.146-2.93c0 0-5.41 3.988-13.27 5.008l-4.876-2.078z" fill="#9B7D73"/><path d="M62.565 50.614s.097-5.592 8.286-4.607c0 0-1.682 7.03-8.286 4.607" fill="#B1C638"/><path d="M68.489 47.663c-.558.317-1.128.618-1.704.91.23.13 1.38-.13 1.537-.16.446-.085 1.025-.162 1.388-.42.044-.031.185.006.126.049-.43.307-1.136.397-1.664.484-.402.066-1.071.25-1.472.1a.156.156 0 0 1-.012-.004l-.571.284c-.403.198-.807.393-1.213.585.036.06.13.076.288.093.32.034.646.043.97.03.73-.029 1.536-.1 2.157-.467.054-.031.177.025.1.07-.698.41-1.634.478-2.453.49-.156.002-1.056.05-1.213-.146-.396.186-.794.369-1.194.548.328.454 2.429.433 2.82.384.052-.007.169.046.072.059-.648.081-1.32.034-1.96-.077-.288-.052-.832-.1-1.074-.303a69.7 69.7 0 0 1-.626.274c-.03.013-.162-.01-.129-.026.234-.1.467-.203.7-.306-.128-.196.214-.753.295-.926.144-.313.297-.622.46-.928.02-.037.167-.018.144.026-.278.52-.62 1.082-.74 1.648a.21.21 0 0 0 .004.107c.402-.18.803-.365 1.201-.553-.068-.381.303-.948.453-1.277.191-.42.39-.835.6-1.247.027-.05.174-.027.144.032-.376.739-.832 1.52-1.021 2.311a.483.483 0 0 0-.016.106 77.122 77.122 0 0 0 1.738-.85c-.201-.343.543-1.722.659-1.97.022-.047.168-.025.143.032-.128.274-.25.552-.362.833-.083.206-.422.79-.33 1.048a36.62 36.62 0 0 0 1.645-.88.122.122 0 0 1-.037-.037c-.137-.221.082-.618.171-.825.088-.204.183-.406.288-.604.017-.033.164-.014.143.025-.198.373-.453.814-.482 1.23-.005.07.004.117.03.145l.205-.12c.614-.362 1.254-.743 1.737-1.239.025-.025.158.004.145.019-.505.518-1.182.917-1.827 1.292-.05.03-.101.058-.152.087a.802.802 0 0 0 .112-.002c.185-.012.37-.038.552-.067.235-.04.468-.082.7-.131.036-.009.178.029.102.045-.338.072-.682.139-1.027.18-.1.012-.372.067-.55.039z" fill="#A1AF1E"/><path d="M19.091 49.98s6.285 17.024 24.423 22.536c0 0-12.775-3.779-21.044-22.236l-3.379-.3z" fill="#9B7D73"/><path d="M29.317 61.627s3.446 1.152 7.295.093c0 0-3.194 1.77-5.59 1.903l-1.705-1.996z" fill="#9B7D73"/><path d="M32.996 62.68s2.941-4.977 9.782-.95c0 0-5.095 5.657-9.782.95" fill="#B1C638"/><path d="M39.815 62.308a44.1 44.1 0 0 1-1.993.162c.14.205 1.304.414 1.46.446.443.095 1.002.25 1.46.156.054-.01.162.078.088.092-.543.111-1.222-.08-1.74-.204-.394-.095-1.088-.187-1.37-.475a.13.13 0 0 1-.009-.008l-.658.035c-.462.022-.924.042-1.386.058.001.069.077.118.211.194.27.155.557.288.853.4.67.255 1.43.5 2.173.41.065-.008.146.09.055.1-.835.1-1.71-.197-2.45-.502-.14-.058-.974-.36-1.013-.596-.45.014-.9.025-1.35.032.063.534 1.957 1.32 2.334 1.427.05.013.126.106.033.08-.623-.175-1.202-.476-1.72-.822-.23-.156-.693-.409-.806-.683l-.702.006c-.032 0-.14-.072-.101-.072.26-.001.521-.004.782-.007-.014-.226.577-.592.737-.717.29-.225.585-.444.887-.656.037-.026.16.048.115.079-.514.36-1.108.733-1.504 1.194a.228.228 0 0 0-.051.097c.453-.008.906-.02 1.359-.035.135-.368.756-.733 1.059-.97a40.11 40.11 0 0 1 1.174-.889c.05-.035.168.043.11.085-.712.518-1.519 1.043-2.093 1.68a.551.551 0 0 0-.068.088 87.832 87.832 0 0 0 1.993-.095c-.007-.384 1.365-1.335 1.595-1.512.044-.034.164.041.112.082-.255.198-.506.401-.75.609-.179.152-.782.547-.83.813a39.688 39.688 0 0 0 1.924-.158.104.104 0 0 1-.014-.047c-.01-.251.388-.523.575-.675.182-.148.37-.293.565-.43.032-.023.155.05.116.077-.368.26-.822.556-1.06.918-.04.062-.056.106-.047.142l.245-.028c.736-.09 1.504-.186 2.19-.445.034-.013.14.065.12.071-.717.271-1.528.37-2.297.458l-.183.02a.739.739 0 0 0 .103.042c.173.059.35.108.53.151.23.055.46.107.693.151.038.007.146.095.07.08a11.09 11.09 0 0 1-1.013-.233c-.096-.028-.368-.083-.513-.176z" fill="#A1AF1E"/><path d="M35.701 68.414s12.51-3.33 15.432 11.002c0 0-16.699 1.572-15.432-11.002" fill="#B1C638"/><path d="M45.971 76.492a76.906 76.906 0 0 1-3.09-2.285c-.147.465 1.15 2.232 1.316 2.476.468.692 1 1.615 1.803 2.062.096.052.1.313-.03.24-.953-.528-1.594-1.654-2.119-2.484-.397-.631-1.225-1.637-1.143-2.401l.004-.024a159.72 159.72 0 0 1-3.048-2.447c-.114.098-.09.265-.028.542a9.2 9.2 0 0 0 .535 1.642c.522 1.206 1.188 2.511 2.388 3.322.105.07.057.312-.09.211-1.35-.911-2.088-2.437-2.623-3.802-.102-.26-.775-1.738-.434-2.124-.66-.547-1.316-1.099-1.964-1.657-.806.834.552 4.339.907 4.965.047.08.001.31-.087.156-.587-1.035-.902-2.192-1.053-3.333-.066-.513-.296-1.456.004-1.986a118.8 118.8 0 0 1-1.003-.878c-.046-.04-.078-.278-.022-.23.37.328.744.655 1.12.979.357-.337 1.808-.111 2.245-.084.786.046 1.57.11 2.353.192.096.01.147.268.031.256-1.33-.14-2.796-.362-4.13-.21a.622.622 0 0 0-.236.073c.653.561 1.314 1.117 1.98 1.666.809-.35 2.302-.084 3.129-.038 1.051.06 2.101.132 3.15.227.13.013.166.273.015.26-1.876-.168-3.9-.443-5.781-.267a1.47 1.47 0 0 0-.244.04 147.725 147.725 0 0 0 2.979 2.38c.635-.55 4.17-.164 4.793-.126.12.007.163.267.021.258a51.767 51.767 0 0 0-2.082-.086c-.508-.01-2.022-.213-2.539.105a69.858 69.858 0 0 0 2.988 2.204.23.23 0 0 1 .06-.085c.405-.369 1.424-.248 1.943-.23.508.02 1.017.052 1.521.106.085.009.137.266.036.255-.955-.098-2.095-.251-3.04-.04-.16.036-.257.08-.304.142.131.09.263.18.395.268 1.192.801 2.44 1.637 3.844 2.136.07.026.089.266.049.254-1.469-.522-2.78-1.406-4.017-2.253a60.885 60.885 0 0 1-.292-.2c.015.053.04.114.075.185.145.303.316.597.496.884.233.37.473.733.729 1.09.04.056.046.316-.037.2a17.224 17.224 0 0 1-1.043-1.609c-.088-.16-.381-.581-.43-.897z" fill="#A1AF1E"/><path d="M22.52 56.409s-.609 5.831-6.845 8.619c0 0 3.687.555 8.465-6.318l-1.62-2.301z" fill="#9B7D73"/><path d="M19.818 62.933s-.224 6.16-9.227 4.946c0 0 2-7.719 9.227-4.946" fill="#B1C638"/><path d="M13.229 66.092c.621-.34 1.255-.664 1.896-.976-.25-.148-1.524.12-1.698.151-.492.088-1.132.163-1.537.443-.049.033-.204-.01-.138-.057.48-.331 1.26-.42 1.844-.507.444-.066 1.185-.26 1.623-.087a.171.171 0 0 1 .012.005c.212-.103.425-.204.637-.305a96.3 96.3 0 0 1 1.35-.625c-.04-.067-.142-.086-.317-.107a7.444 7.444 0 0 0-1.067-.05c-.806.021-1.696.088-2.387.482-.06.034-.194-.03-.11-.079.778-.441 1.81-.502 2.714-.5.172 0 1.165-.04 1.333.179.44-.199.883-.394 1.327-.584-.352-.506-2.666-.516-3.1-.468-.056.008-.183-.054-.077-.066.716-.08 1.456-.016 2.16.116.314.06.914.124 1.175.35.232-.098.464-.196.696-.292.032-.014.179.014.14.03-.259.108-.518.217-.776.327.137.219-.251.826-.344 1.016-.166.342-.341.68-.527 1.016-.023.04-.185.017-.157-.033.316-.567.705-1.182.849-1.803a.232.232 0 0 0-.002-.118c-.447.193-.892.39-1.335.59.066.422-.354 1.04-.527 1.4-.219.46-.447.914-.686 1.365-.031.055-.192.026-.158-.039.43-.807.948-1.66 1.173-2.53a.534.534 0 0 0 .02-.115 88.678 88.678 0 0 0-1.933.91c.215.378-.635 1.887-.767 2.158-.025.052-.187.026-.157-.036.147-.302.287-.606.417-.913.095-.225.48-.864.384-1.15-.619.303-1.232.614-1.83.945.016.011.03.025.04.041.146.246-.104.679-.206.907-.1.223-.21.444-.33.66-.02.035-.181.013-.157-.03.226-.408.517-.89.557-1.347.007-.078-.002-.13-.03-.161l-.229.128c-.683.392-1.398.8-1.94 1.339-.027.027-.173-.007-.158-.023.566-.562 1.32-.992 2.039-1.394l.17-.096a.874.874 0 0 0-.123 0 6.756 6.756 0 0 0-.61.068c-.26.038-.518.081-.773.133-.042.008-.197-.035-.113-.052a12.64 12.64 0 0 1 1.136-.182c.11-.011.411-.068.607-.034z" fill="#A1AF1E"/><path d="M59.077 63.718s5.92 8.815 22.407 12.732c0 0-9.305-2.753-16.166-10.977l-6.241-1.755z" fill="#9B7D73"/><path d="M74.36 73.784s8.093-4.262 13.078 5.34c0 0-11.39 3.677-13.077-5.34" fill="#B1C638"/><path d="M83.22 77.869a61.294 61.294 0 0 1-2.637-1.127c-.007.35 1.264 1.389 1.43 1.534.47.414 1.033.98 1.688 1.168.078.022.135.205.028.175-.777-.225-1.457-.915-1.995-1.417-.408-.382-1.195-.96-1.294-1.51a.162.162 0 0 1-.002-.016 127.753 127.753 0 0 1-2.64-1.247c-.058.087-.007.2.092.385.2.373.442.73.712 1.07.613.765 1.347 1.578 2.356 1.961.087.033.103.21-.022.162-1.133-.43-1.963-1.388-2.617-2.262-.126-.168-.9-1.1-.74-1.423-.576-.282-1.148-.568-1.717-.86-.395.709 1.276 2.958 1.653 3.342.05.05.064.218-.03.124-.622-.636-1.08-1.398-1.42-2.176-.151-.35-.507-.976-.404-1.394-.296-.152-.59-.306-.884-.461-.04-.02-.11-.183-.062-.158.327.173.655.344.985.514.182-.292 1.246-.356 1.558-.404a36.391 36.391 0 0 1 1.69-.229c.07-.009.158.166.076.175-.963.107-2.037.177-2.941.49a.401.401 0 0 0-.15.087c.572.293 1.15.58 1.729.864.495-.37 1.598-.414 2.187-.51.75-.12 1.502-.23 2.256-.326.094-.01.173.166.064.18-1.35.172-2.826.291-4.11.705a.903.903 0 0 0-.162.065 117.677 117.677 0 0 0 2.576 1.21c.331-.484 2.892-.758 3.337-.827.085-.013.169.162.068.178-.495.077-.988.163-1.479.26-.358.072-1.462.162-1.759.465.839.38 1.686.747 2.547 1.086a.153.153 0 0 1 .024-.07c.21-.32.949-.393 1.317-.46.36-.064.724-.12 1.089-.16.06-.007.15.165.077.174-.69.078-1.522.147-2.14.44-.105.05-.164.096-.185.147l.333.127c1 .378 2.045.773 3.133.906.055.007.117.173.087.17-1.137-.14-2.24-.558-3.28-.961a48.553 48.553 0 0 1-.246-.096.884.884 0 0 0 .09.119c.165.19.344.37.53.543.24.223.482.442.734.652.04.034.097.216.015.146a13.853 13.853 0 0 1-1.06-.967c-.095-.099-.387-.35-.486-.563z" fill="#A1AF1E"/><g transform="translate(96.842 62.498)"><mask id="d" fill="#fff"><use xlink:href="#c"/></mask><path d="M.2 5.858S7.006-5.658 22.835 3.662c0 0-11.79 13.09-22.635 2.196" fill="#B1C638" mask="url(#d)"/></g><path d="M112.819 67.495c-1.532.162-3.07.282-4.61.376.321.474 3.018.957 3.379 1.034 1.024.219 2.318.575 3.377.36.126-.026.376.178.203.214-1.256.255-2.827-.185-4.026-.473-.91-.22-2.516-.433-3.171-1.1a.302.302 0 0 1-.019-.02 218.817 218.817 0 0 1-4.73.216c.003.16.18.274.488.45.624.358 1.29.665 1.975.927 1.55.588 3.31 1.153 5.027.946.15-.018.339.209.127.233-1.93.232-3.955-.457-5.667-1.162-.327-.135-2.253-.832-2.346-1.38-1.04.033-2.082.059-3.123.075.145 1.234 4.528 3.057 5.4 3.302.114.032.293.246.077.187-1.442-.407-2.781-1.103-3.978-1.903-.535-.36-1.607-.947-1.868-1.581-.542.007-1.083.011-1.625.013-.074 0-.323-.166-.234-.167a156.37 156.37 0 0 0 1.812-.016c-.034-.52 1.333-1.37 1.706-1.659a49.96 49.96 0 0 1 2.051-1.516c.086-.06.37.109.267.181-1.19.832-2.564 1.696-3.48 2.762a.527.527 0 0 0-.12.226 180.34 180.34 0 0 0 3.145-.08c.311-.852 1.75-1.698 2.45-2.249.89-.7 1.795-1.384 2.717-2.053.116-.082.39.099.258.196-1.65 1.196-3.517 2.413-4.847 3.887a1.28 1.28 0 0 0-.156.204 203.127 203.127 0 0 0 4.611-.22c-.017-.887 3.16-3.087 3.691-3.499.1-.079.38.097.26.19-.59.457-1.17.927-1.736 1.409-.414.352-1.808 1.264-1.92 1.883a93.835 93.835 0 0 0 4.452-.367.24.24 0 0 1-.033-.11c-.024-.58.899-1.207 1.33-1.56.422-.344.856-.68 1.308-.995.075-.054.36.115.268.178-.85.598-1.901 1.286-2.453 2.123-.093.143-.129.246-.108.33l.567-.068c1.701-.208 3.48-.428 5.069-1.028.079-.03.32.15.276.166-1.659.627-3.534.855-5.315 1.058-.14.017-.281.032-.422.048.063.032.141.063.236.096.4.136.813.25 1.227.35a34.99 34.99 0 0 0 1.605.349c.087.016.336.219.16.185a26.24 26.24 0 0 1-2.345-.54c-.22-.063-.851-.191-1.187-.408z" fill="#A1AF1E"/></g></svg>