<svg width="120" height="120" viewBox="0 0 120 120" xmlns="http://www.w3.org/2000/svg" xmlns:xlink="http://www.w3.org/1999/xlink"><defs><path id="a" d="M1.186.573h59.649v106.06H1.186z"/></defs><g fill="none" fill-rule="evenodd"><path fill="#505560" d="M20.254 7.367L0 28.596v84.831h59.648V7.367z"/><path fill="#9D9EA1" d="M22.263 14.132L8.751 28.46v28.784h33.247V68.37H8.75v38.85h46.032V14.133z"/><path d="M45.015 45.933h6.316v-24.82H23.687l-11.484 12.18V54.46h29.782v-5.492a3.033 3.033 0 0 1 3.03-3.036m-3.03 27.93v-.765H12.202v27.14h39.13V76.898h-6.317a3.033 3.033 0 0 1-3.03-3.036m7.648-23.23H46.87c-.716 0-1.295.58-1.295 1.296v21.667c0 .715.58 1.296 1.295 1.296h2.763c.713 0 1.293-.58 1.293-1.296V51.928c0-.716-.58-1.296-1.293-1.296" fill="#505560"/><path d="M50.119 74.196h-2.764A1.296 1.296 0 0 1 46.06 72.9V51.233c0-.715.58-1.296 1.294-1.296h2.764c.713 0 1.293.58 1.293 1.296V72.9c0 .715-.58 1.296-1.293 1.296" fill="#71707C"/><path d="M49.573 71.775H47.9c-.431 0-.782-.464-.782-1.037V53.395c0-.574.35-1.04.782-1.04h1.673c.43 0 .781.466.781 1.04v17.343c0 .573-.35 1.037-.781 1.037" fill="#505560"/><path d="M45.015 45.933h6.316v-24.82H23.687l-4.054 4.3 22.575 22.415a3.027 3.027 0 0 1 2.807-1.895m6.315 30.965h-6.316a3.034 3.034 0 0 1-3.03-3.036v-.764H12.377l27.334 27.139h11.62V76.898z" fill="#676B75"/><path d="M4.672 31.063h-1.39a1.54 1.54 0 0 0-1.537 1.542v11.38a1.54 1.54 0 0 0 1.537 1.542h1.39a1.54 1.54 0 0 0 1.536-1.542v-11.38a1.54 1.54 0 0 0-1.536-1.542" fill="#505560"/><path d="M5.052 45.005H3.664a1.54 1.54 0 0 1-1.538-1.54V32.082c0-.851.689-1.54 1.538-1.54h1.388c.85 0 1.537.689 1.537 1.54v11.381c0 .85-.687 1.541-1.537 1.541" fill="#676B75"/><path d="M5.45 32.97a1.093 1.093 0 1 1-2.184 0 1.094 1.094 0 0 1 2.185 0m-.001 4.914a1.093 1.093 0 1 1-2.184 0c0-.604.49-1.096 1.092-1.096.604 0 1.093.492 1.093 1.096m-.001 4.913c0 .604-.488 1.096-1.092 1.096a1.095 1.095 0 0 1 0-2.191c.604 0 1.093.49 1.093 1.095m-.779 39.565h-1.39a1.54 1.54 0 0 0-1.537 1.543v11.38a1.54 1.54 0 0 0 1.537 1.541h1.39a1.54 1.54 0 0 0 1.536-1.542v-11.38a1.54 1.54 0 0 0-1.536-1.542" fill="#505560"/><path d="M5.052 96.304H3.664a1.54 1.54 0 0 1-1.538-1.54V83.383c0-.85.689-1.541 1.538-1.541h1.388c.85 0 1.537.69 1.537 1.54v11.382c0 .85-.687 1.54-1.537 1.54" fill="#676B75"/><path d="M5.45 84.269a1.093 1.093 0 1 1-2.184 0 1.094 1.094 0 0 1 2.185 0m-.001 4.914a1.093 1.093 0 1 1-2.184 0 1.094 1.094 0 0 1 2.185 0m-.001 4.913c0 .606-.488 1.097-1.092 1.097a1.095 1.095 0 0 1 0-2.192c.604 0 1.093.49 1.093 1.095" fill="#505560"/><g transform="translate(58.636 6.794)"><mask id="b" fill="#fff"><use xlink:href="#a"/></mask><path fill="#505560" mask="url(#b)" d="M40.582.573L60.836 21.8v84.833H1.186V.573z"/></g><path fill="#9D9EA1" d="M97.208 14.132l13.513 14.327v28.784H77.474V68.37h33.247v38.85H64.688V14.133z"/><path d="M74.457 45.933H68.14v-24.82h27.644l11.484 12.18V54.46H77.487v-5.492a3.033 3.033 0 0 0-3.03-3.036m3.029 27.93v-.765h29.783v27.14H68.14V76.898h6.317a3.033 3.033 0 0 0 3.03-3.036m-5.37-23.23h-2.764c-.715 0-1.294.58-1.294 1.296v21.667c0 .715.58 1.296 1.294 1.296h2.764c.713 0 1.293-.58 1.293-1.296V51.928c0-.716-.58-1.296-1.293-1.296" fill="#505560"/><path d="M72.602 74.196h-2.763a1.296 1.296 0 0 1-1.294-1.296V51.233c0-.715.58-1.296 1.294-1.296h2.763c.714 0 1.294.58 1.294 1.296V72.9c0 .715-.58 1.296-1.294 1.296" fill="#71707C"/><path d="M72.056 71.775h-1.672c-.432 0-.783-.464-.783-1.037V53.395c0-.574.35-1.04.783-1.04h1.672c.432 0 .782.466.782 1.04v17.343c0 .573-.35 1.037-.782 1.037" fill="#505560"/><path d="M74.457 45.933H68.14v-24.82h27.644l4.054 4.3-22.575 22.415a3.027 3.027 0 0 0-2.806-1.895M68.14 76.898h6.317a3.034 3.034 0 0 0 3.03-3.036v-.764h29.607L79.76 100.237H68.14V76.898z" fill="#676B75"/><path d="M115.807 31.063h-1.389c-.85 0-1.536.69-1.536 1.542v11.38c0 .852.687 1.542 1.536 1.542h1.389c.85 0 1.538-.69 1.538-1.542v-11.38a1.54 1.54 0 0 0-1.538-1.542" fill="#505560"/><path d="M116.189 45.005h-1.39a1.54 1.54 0 0 1-1.537-1.54V32.082c0-.851.689-1.54 1.537-1.54h1.39c.848 0 1.537.689 1.537 1.54v11.381a1.54 1.54 0 0 1-1.537 1.541" fill="#676B75"/><path d="M116.587 32.97a1.093 1.093 0 1 1-2.186 0 1.093 1.093 0 0 1 2.186 0m0 4.914a1.093 1.093 0 1 1-2.186 0c0-.604.49-1.096 1.094-1.096.604 0 1.092.492 1.092 1.096m0 4.913c0 .604-.488 1.096-1.092 1.096a1.096 1.096 0 0 1 0-2.191c.604 0 1.092.49 1.092 1.095m-.78 39.565h-1.389c-.85 0-1.536.69-1.536 1.543v11.38c0 .85.687 1.541 1.536 1.541h1.389c.85 0 1.538-.69 1.538-1.542v-11.38a1.54 1.54 0 0 0-1.538-1.542" fill="#505560"/><path d="M116.189 96.304h-1.39a1.54 1.54 0 0 1-1.537-1.54V83.383c0-.85.689-1.541 1.537-1.541h1.39c.848 0 1.537.69 1.537 1.54v11.382c0 .85-.689 1.54-1.537 1.54" fill="#676B75"/><path d="M116.587 84.269a1.093 1.093 0 1 1-2.186 0 1.093 1.093 0 0 1 2.186 0m0 4.914a1.093 1.093 0 1 1-2.186 0 1.093 1.093 0 0 1 2.186 0m0 4.913a1.094 1.094 0 1 1-2.186 0 1.093 1.093 0 0 1 2.186 0" fill="#505560"/></g></svg>