<svg width="197" height="147" viewBox="0 0 197 147" xmlns="http://www.w3.org/2000/svg"><g fill="none"><path d="M99.473 118.182c-.573 5.759-2.355 7.678-5.855 8.51-1.782.448-3.5.512-5.09-.32-3.373-1.791-4.073-6.782-5.792-10.045-3.436-.96-2.99 2.687-7.89 2.687-8.528 0-8.464-4.542-10.055-17.53-1.591-12.989 33.473-8.958 33.473-8.958s1.781 19.962 1.209 25.656z" fill="#00A0B4"/><path d="M97.882 118.758c-1.21-3.327 5.854-22.905 5.854-22.905L129 98.796s.89 8.382.955 11.005c.318 11.9-3.5 13.5-6.11 13.436-3.627-.128-6.872-.832-9.99-7.614-3.119-6.782-13.682-.064-15.973 3.135z" fill="#00A0B4"/><path d="M71.473 103.915c-1.655 13.18 4.009 32.63 5.854 34.421h.764c.19-.895-1.082-4.03.127-4.286 1.21.64 1.4 3.007 2.482 3.967.382-1.344-1.845-4.031.382-4.607.636 1.088 1.273 2.943 2.418 3.647.318-.896-1.718-19.834-3.118-29.367l-8.91-3.775z" fill="#78C8C8"/><path d="M79.682 123.045c-1.718.064-1.91 2.687-.064 2.56 1.846-.129 1.591-2.624.064-2.56zm-2.992 1.919c-.763.064-.826 2.944-.063 2.88.764-.064.764-2.944.064-2.88z" fill="#AADCDC"/><path d="M106.982 102.507l10.436-4.607c0 4.287-.063 39.029-.954 40.692-1.273-1.151-.891-3.07-1.91-4.222h-.572c-1.273 1.343-.064 3.775-.891 5.374-2.1-.768-1.336-4.415-2.736-5.758-1.273.768-.255 2.943-1.273 3.39-2.1-1.47-2.355-8.125-2.61-10.364a91.595 91.595 0 0 1-.572-11.837c0-3.966.064-8.957 1.082-12.668z" fill="#78C8C8"/><path d="M113.09 123.749c-2.672.128-2.863 4.095-.126 3.967 2.736-.128 2.418-4.095.127-3.967z" fill="#AADCDC"/><path fill="#006482" d="M92.664 65.078H65.109L67.527 43.9l25.137-.064z"/><path d="M75.418 43.836s-.573 5.055 1.146 5.759c1.718.704 2.927.768 3.563-.704.637-1.472.446-4.67.446-4.67l-5.155-.385z" fill="#FFF"/><path d="M78.855 56.44c-4.01-.831-7.764-.703-10.564 1.344l-.191 9.278 16.99-.768.446-7.742c-.7-.832-3.881-1.471-6.681-2.111z" fill="#000"/><path d="M132.373 31.36c-4.328-14.012-11.646-22.65-26.028-25.592-13.872-2.815-30.927 4.67-36.654 17.339-6.3 13.948-4.9 30.007-5.982 44.786-.636 8.382-.064 16.38.318 24.761.128 3.839-.254 12.988 1.273 19.514 1.59 6.91 5.218 11.133 9.227 10.43 10.755.767 5.218-14.333 10.31-13.757 5.09.576 3.754 7.038 5.09 8.894 2.482 3.455 8.464 6.334 12.537 4.734 8.336-3.327 2.163-17.723 9.227-18.298 7.064-.576 8.082 8.317 10.436 11.004 2.864 3.327 8.018 4.031 10.564 0 2.545-4.03 2.29-10.748 2.482-15.355.254-6.59 2.1-52.4-2.8-68.46zM82.927 54.777c-.127 5.823-3.882 7.486-7.318 7.486-3.436 0-6.364-2.431-6.809-7.422-.445-4.99 2.482-9.15 7.255-8.765 4.581.448 7 2.879 6.872 8.701z" fill="#AADCDC"/><path d="M82.927 15.3c-3.182-1.982-10.882 7.23-7.572 9.342 3.309 2.112 10.309-7.614 7.572-9.341z" fill="#78C8C8"/><path d="M60.018 50.81c-.509-.383-.763-.96-.7-1.535a1.35 1.35 0 0 1 .51-1.408c.636.192.827.384.89 1.088.064.704.127 1.472-.7 1.855zm35.509.32c-.7-.703-.7-1.855 0-2.559.318-.064.51.128.637.384.318.448.381 1.024.19 1.536-.19.127-.509.383-.827.64z" fill="#000"/><path d="M97.818 114.92c.191 2.175 1.082 4.03 4.327 4.158 3.755.192 2.737-15.675-1.209-15.931-3.945-.256-3.5 6.654-3.118 11.772zm-.828-20.219c.192 1.088 1.083 1.984 4.328 2.112 3.755.064 2.737-7.806-1.209-7.998-3.945-.192-3.5 3.327-3.118 5.886zm11.52-12.092c-3.755.384-4.01 11.005-.128 10.685 3.882-.32 3.373-11.005.127-10.685z" fill="#78C8C8"/><path d="M83.436 100.14c-3.754.192-4.009 5.694-.127 5.502 3.882-.192 3.373-5.63.127-5.502zM68.1 80.818c-2.673.127-2.927 4.094-.127 3.966 2.8-.128 2.482-4.03.127-3.966z" fill="#00A0B4"/><path d="M92.345 86.576c-2.672.128-2.863 4.095-.127 3.967 2.737-.128 2.482-4.095.127-3.967z" fill="#78C8C8"/><path d="M129.7 107.434c-2.673.128-2.927 4.094-.127 3.966 2.8-.127 2.418-4.094.127-3.966z" fill="#006482"/><path d="M68.227 102.507c.255 3.263 1.718 5.95 6.746 6.206 5.854.32 4.263-23.097-1.846-23.48-6.109-.385-5.472 9.724-4.9 17.274z" fill="#78C8C8"/></g></svg>