<svg width="120" height="120" viewBox="0 0 120 120" xmlns="http://www.w3.org/2000/svg" xmlns:xlink="http://www.w3.org/1999/xlink"><defs><path id="a" d="M.157.089h6.588V15.09H.157z"/><path id="c" d="M0 .578h15.325v24.455H0z"/><path id="e" d="M.807.285H19.59v13.302H.807z"/></defs><g fill="none" fill-rule="evenodd"><path d="M54.826 89.679V98.2a3.288 3.288 0 1 0 6.575 0v-8.52a3.288 3.288 0 0 0-6.575 0m-16.148-.001V98.2a3.291 3.291 0 0 0 3.294 3.206 3.29 3.29 0 0 0 3.294-3.206v-8.52a3.29 3.29 0 0 0-3.294-3.288 3.3 3.3 0 0 0-2.33.96 3.292 3.292 0 0 0-.964 2.328" fill="#F08453"/><g transform="matrix(-1 0 0 1 36.85 86.326)"><mask id="b" fill="#fff"><use xlink:href="#a"/></mask><path d="M6.745 3.377v8.498a3.293 3.293 0 0 1-3.294 3.216 3.293 3.293 0 0 1-3.294-3.216V3.377A3.29 3.29 0 0 1 3.451.089a3.285 3.285 0 0 1 3.294 3.288" fill="#F08453" mask="url(#b)"/></g><path d="M63.15 89.679V98.2a3.289 3.289 0 1 0 6.576 0v-8.52a3.288 3.288 0 0 0-6.577 0" fill="#F08453"/><path d="M22.874 36.17c.175-.209.352-.411.53-.613C20.5 26.82 30.93 19.93 37.875 25.69c.147-.054.296-.1.446-.15 2.287-7.818 12.965-8.922 16.8-1.705 5.566-6.249 15.925-2.29 15.925 6.038 0 .104-.012.205-.015.308 8.48-3.39 15.997 6.425 10.815 13.706 10.854 23.126-5.984 50.13-31.955 50.13-22.264 0-38.983-20.354-34.58-42.196-6.515-6.032-1.344-17 7.564-15.651" fill="#BFDDF4"/><g transform="matrix(-1 0 0 1 120 41.996)"><mask id="d" fill="#fff"><use xlink:href="#c"/></mask><path d="M.168 25.033l4.774-.387c6.222-.508 10.852-5.95 10.345-12.162L14.314.578S-1.808 5.733.168 25.033" fill="#9CC3D9" mask="url(#d)"/></g><path d="M62.54 64.474l4.774.39c6.222.506 11.675-4.116 12.182-10.326l.974-11.906S63.725 45.11 62.54 64.474" fill="#9CC3D9"/><path d="M75.447 58.965c0 8.958 7.275 16.221 16.25 16.221s16.25-7.263 16.25-16.221c0-8.959-7.275-16.222-16.25-16.222s-16.25 7.263-16.25 16.222" fill="#F08453"/><path d="M83.412 58.825a9.918 9.918 0 0 0 5.948 12.23c4.94 1.877 10.439-.442 12.59-5.186l.715.273c-2.304 5.137-8.242 7.654-13.577 5.626-5.337-2.029-8.095-7.85-6.391-13.216l.715.273z" fill="#9B4D31"/><path d="M95.463 46.156c0 5.149 4.18 9.322 9.339 9.322 5.158 0 9.34-4.173 9.34-9.322 0-5.149-4.182-9.323-9.34-9.323-5.158 0-9.34 4.174-9.34 9.323" fill="#F08453"/><path d="M96.813 46.156c0 4.405 3.577 7.975 7.989 7.975s7.989-3.57 7.989-7.975c0-4.405-3.577-7.975-7.99-7.975-4.411 0-7.988 3.57-7.988 7.975" fill="#FFF"/><path d="M101.708 46.156a3.09 3.09 0 0 0 3.093 3.087 3.09 3.09 0 0 0 3.096-3.087 3.092 3.092 0 0 0-3.096-3.089 3.091 3.091 0 0 0-3.093 3.09" fill="#171B1F"/><path d="M78.247 46.156c0 5.149 4.182 9.322 9.34 9.322 5.159 0 9.34-4.173 9.34-9.322 0-5.149-4.181-9.323-9.34-9.323-5.158 0-9.34 4.174-9.34 9.323" fill="#F08453"/><path d="M79.598 46.156c0 4.405 3.576 7.975 7.99 7.975 4.41 0 7.988-3.57 7.988-7.975 0-4.405-3.577-7.975-7.989-7.975-4.413 0-7.989 3.57-7.989 7.975" fill="#FFF"/><path d="M84.492 46.156a3.09 3.09 0 0 0 3.095 3.087 3.09 3.09 0 0 0 3.094-3.087 3.091 3.091 0 0 0-3.094-3.089 3.092 3.092 0 0 0-3.095 3.09" fill="#171B1F"/><g transform="matrix(-1 0 0 1 19.843 51.428)"><mask id="f" fill="#fff"><use xlink:href="#e"/></mask><path d="M19.59 11.132l-3.288 1.591c-4.285 2.073-9.437.286-11.514-3.99L.808.537S13.397-2.31 19.59 11.132" fill="#BFDDF4" mask="url(#f)"/></g><path d="M69.726 98.2h-6.577a3.288 3.288 0 1 0 6.576 0m-8.323 0h-6.576a3.29 3.29 0 0 0 3.294 3.206 3.287 3.287 0 0 0 3.282-3.205M45.266 98.2h-6.588a3.29 3.29 0 0 0 3.295 3.206 3.29 3.29 0 0 0 3.293-3.205M30.105 98.2a3.292 3.292 0 0 0 3.294 3.217 3.292 3.292 0 0 0 3.294-3.216h-6.588z" fill="#171B1F"/><path d="M34.563 45.045c-6.08-9.74 8.315-19.718 15.155-10.08 1.99-4.598 7.33-6.73 11.949-4.76 9.51 4.054 5.893 18.392-4.43 17.427 5.87 9.88-8.792 19.547-15.393 9.715-1.9 4.886-7.403 7.068-12.069 5.08-9.689-4.133-5.713-18.789 4.788-17.382" fill="#DCEFFB"/><path d="M97.492 65.156c0 .8.426 1.448.952 1.448s.953-.648.953-1.448c0-.8-.427-1.448-.953-1.448s-.952.648-.952 1.448m-4.352 0c0 .8.425 1.448.952 1.448.524 0 .951-.648.951-1.448 0-.8-.427-1.448-.951-1.448-.527 0-.953.648-.953 1.448" fill="#9B4D31"/></g></svg>