<svg width="46" height="45" viewBox="-1 -1 46 45" xmlns="http://www.w3.org/2000/svg"><path fill="#FF0" stroke="#000" stroke-width="1.288" d="M34.245 43.782c-3.284 1.983-12.932-8.268-12.932-8.268s-11.243 8.481-14.146 5.97c-2.905-2.511 3.866-14.86 3.866-14.86S-.507 18.553.985 15.017c1.492-3.54 15.326-.914 15.326-.914S20.419.633 24.244.955c3.83.325 5.61 14.295 5.61 14.295s14.079-.255 14.95 3.485c.878 3.738-11.86 9.75-11.86 9.75s4.593 13.313 1.301 15.297z"/><path fill="#FFF" d="M27.85 34.012c-1.654.997-6.504-4.157-6.504-4.157s-5.648 4.262-7.106 3c-1.458-1.262 1.942-7.464 1.942-7.464s-5.795-4.06-5.048-5.834c.75-1.777 7.698-.459 7.698-.459s2.066-6.768 3.99-6.604c1.922.163 2.813 7.181 2.813 7.181s7.078-.126 7.516 1.752c.443 1.88-5.955 4.899-5.955 4.899s2.302 6.69.654 7.686z"/></svg>