<svg width="120" height="120" viewBox="0 0 120 120" xmlns="http://www.w3.org/2000/svg" xmlns:xlink="http://www.w3.org/1999/xlink"><defs><path id="a" d="M1.606 1.492h13.246v12.222H1.606z"/><path id="c" d="M.357 1.492h13.247v12.222H.357z"/><path id="e" d="M0 .728h21.951v32.167H0z"/><path id="g" d="M.277.484h64.26v57.35H.277z"/><path id="i" d="M.776 1.157h4.333v8.535H.776z"/></defs><g fill="none" fill-rule="evenodd"><g transform="matrix(-1 0 0 1 77.927 106.129)"><mask id="b" fill="#fff"><use xlink:href="#a"/></mask><path d="M8.01 1.562s-9.36 8.612-5.45 11.444c1.469.858 2.773.357 3.79-.833 0 0 .735 1.69 2.3 1.499 1.564-.19 1.824-1.593 1.824-1.593s1.185 2.64 3.483 1.212c2.298-1.426-.26-9.374-2.843-11.8l-3.104.07z" fill="#F58A68" mask="url(#b)"/></g><g transform="matrix(-1 0 0 1 57.439 106.129)"><mask id="d" fill="#fff"><use xlink:href="#c"/></mask><path d="M7.2 1.562s9.359 8.612 5.449 11.444c-1.468.858-2.773.357-3.792-.833 0 0-.733 1.69-2.298 1.499-1.564-.19-1.824-1.593-1.824-1.593s-1.184 2.64-3.483 1.212c-2.3-1.426.26-9.374 2.843-11.8l3.104.07z" fill="#F58A68" mask="url(#d)"/></g><g transform="matrix(-1 0 0 1 95 61.557)"><mask id="f" fill="#fff"><use xlink:href="#e"/></mask><path d="M17.67.728C12.258.78 2.316 10.436.42 18.43c-1.302 5.487.574 7.11 3.496 7.546a6.27 6.27 0 0 0-.055.828c0 3.364 2.53 6.091 5.65 6.091 3.119 0 5.647-2.727 5.647-6.09 0-.392-.036-.77-.099-1.14 3.722-.722 6.87-2.802 6.812-8.898C21.79 7.812 23.084.68 17.67.728" fill="#FCBC5E" mask="url(#f)"/></g><g transform="matrix(-1 0 0 1 89.878 52.986)"><mask id="h" fill="#fff"><use xlink:href="#g"/></mask><path d="M64.537 28.334c0 6.863-2.913 13.051-7.605 17.966-1.845 1.935-3.97 3.674-6.298 5.177-6.21 4.008-13.889 6.357-21.734 6.357-12.255 0-20.95-3.504-25.343-10.874C1.4 43.346.277 38.8.277 33.282c0-1.284.11-2.563.319-3.833C2.969 14.989 18.321 1.899 34.226.484c-.013.273-.02.547-.02.823 0 8.304 5.602 15.036 12.511 15.036 4.827 0 9.015-3.286 11.098-8.095 4.475 4.89 6.722 11.811 6.722 20.086" fill="#FFCC7A" mask="url(#h)"/></g><path d="M35.912 82.223c-4.17 5.995 3.415 6.092 3.415 6.092s-3.272 4.804.425 7.04c14.264 8.28 20.803-12.561 20.803-12.561l-6.013-4.766-1.19-.943c-7.954 5.133-13.517-8.877-18.37-2.685a.116.116 0 0 0-.018.02c-4.927 6.328.948 7.803.948 7.803" fill="#FCBC5E"/><g transform="matrix(-1 0 0 1 64.268 1.557)"><mask id="j" fill="#fff"><use xlink:href="#i"/></mask><path d="M5.008 3.25c-.41 0-1.608 1.386-2.112 3.473-.256-2.568.6-5.567.217-5.567-.524 0-2.337 2.261-2.337 5.36 0 1.18.061 2.274.164 3.176.548-.115 1.132-.19 1.743-.215.154-.005.307-.01.463-.01.268 0 .534.01.793.031.333.02.66.06.975.113-.572-2.698.518-6.362.094-6.362" fill="#FCBC5E" mask="url(#j)"/></g><path d="M33.371 40.208c0 3.214.603 6.144 1.723 8.761 4.043 9.456 14.833 14.84 28.32 14.84 13.56 0 23.574-4.972 27.215-14.324.984-2.523 1.503-5.365 1.503-8.515 0-14.821-11.496-30.833-28.717-30.833-17.222 0-30.044 15.25-30.044 30.07" fill="#FFCC7A"/><path d="M51.479 49.049c.032.159.1.318.215.462 1.916 2.409 6.148 4.079 11.062 4.079 4.906 0 9.134-1.67 11.05-4.077a1.035 1.035 0 0 0-.118-1.433 1.01 1.01 0 0 0-.875-.249 7.02 7.02 0 0 1-3.344-.231c-2.198-.701-3.939-2.46-4.642-4.687a5.283 5.283 0 0 0-.18-.686c-.389-1.172-1.089-1.956-1.891-1.956-.81 0-1.518.8-1.904 1.992a5.863 5.863 0 0 0-.16.609l-.002.009c-.774 2.463-2.824 4.441-5.441 4.93a7.2 7.2 0 0 1-2.57.02.995.995 0 0 0-.855.232h-.002c-.272.24-.413.615-.343.986" fill="#F58A68"/><path d="M84.746 31.795c0 3.465-2.933 6.271-6.552 6.271-3.618 0-6.551-2.806-6.551-6.27 0-3.465 2.933-6.27 6.55-6.27 3.62 0 6.553 2.805 6.553 6.27m-42.432-.001c0 3.465 2.934 6.271 6.551 6.271 3.62 0 6.553-2.806 6.553-6.27 0-3.465-2.933-6.27-6.553-6.27-3.617 0-6.55 2.805-6.55 6.27" fill="#3C3331"/><path d="M35.093 48.97c4.045 9.456 14.833 14.839 28.321 14.839 13.56 0 23.573-4.972 27.215-14.323-4.584 3.763-29.547 22.133-55.536-.516" fill="#FFCC7A"/><path d="M51.479 49.049c.032.159.1.318.215.462 1.916 2.409 6.148 4.079 11.062 4.079 4.906 0 9.134-1.67 11.05-4.077a1.035 1.035 0 0 0-.118-1.433c-3.255 1.743-13.03 6.009-21.864-.017h-.002c-.272.24-.413.615-.343.986" fill="#F58A68"/><path d="M32.946 99.287c1.845 1.935 3.97 3.674 6.296 5.177 6.212 4.006 13.891 6.357 21.736 6.357 12.255 0 20.95-3.504 25.344-10.874-5.18 4.414-24.59 17.729-53.376-.66" fill="#FFCC7A"/></g></svg>