<svg width="120" height="120" viewBox="0 0 120 120" xmlns="http://www.w3.org/2000/svg"><g fill="none" fill-rule="evenodd"><path fill="#C64A42" d="M30.655 49.032l-2.081 1.598-4.412-5.721 2.08-1.598z"/><path d="M27.533 43.792c-.154 1.587-2.275 2.681-4.737 2.443s-4.333-1.718-4.178-3.305c.154-1.588 2.275-2.681 4.737-2.443 2.461.238 4.332 1.718 4.178 3.305" fill="#F05B51"/><path fill="#C64A42" d="M90.184 49.032l2.08 1.598 4.413-5.721-2.081-1.598z"/><path d="M93.306 43.792c.154 1.587 2.275 2.681 4.737 2.443 2.461-.238 4.332-1.718 4.178-3.305-.154-1.588-2.275-2.681-4.737-2.443s-4.332 1.718-4.178 3.305" fill="#F05B51"/><path d="M24.836 92.949c-3.081 0-5.602-2.516-5.602-5.591v-8.84c0-3.074 2.52-5.59 5.602-5.59 3.082 0 5.603 2.516 5.603 5.59v8.84c0 3.075-2.52 5.59-5.603 5.59m71.166.001c-3.081 0-5.602-2.516-5.602-5.591v-8.84c0-3.074 2.52-5.59 5.602-5.59 3.082 0 5.603 2.516 5.603 5.59v8.84c0 3.075-2.521 5.59-5.603 5.59" fill="#6D6E70"/><path d="M92.698 46.898c-.623-1.09-7.329-14.938-8.264-16.338-.936-1.4-17.465-2.43-24.015-2.43-6.549 0-23.078 1.03-24.014 2.43-.936 1.4-7.64 15.249-8.265 16.338-.623 1.089-10.447 9.491-10.447 12.137v13.692c0 3.424 3.274 9.647 8.576 9.647h68.3c5.302 0 8.577-6.223 8.577-9.647V59.035c0-2.646-9.824-11.048-10.448-12.137" fill="#F05B51"/><path d="M82.694 33.205c-.755-1.556-13.386-2.546-22.275-2.546-8.888 0-21.52.99-22.273 2.546-.756 1.556-7.823 14.315-6.575 14.315 1.247 0 14.044-.973 28.848-.973 14.805 0 27.601.973 28.849.973 1.247 0-5.82-12.76-6.574-14.315" fill="#D9F0FC"/><path d="M21.122 60.705l.113.496c.389 1.715 1.485 3.08 2.91 3.624l5.273 2.013c1.404.536 2.763-.957 2.421-2.66l-.27-1.344c-.36-1.797-1.625-3.139-3.17-3.364l-5.76-.838c-.982-.144-1.774.939-1.517 2.073m78.595 0l-.113.496c-.39 1.715-1.485 3.08-2.91 3.624l-5.273 2.013c-1.405.536-2.764-.957-2.422-2.66l.27-1.344c.361-1.797 1.626-3.139 3.172-3.364l5.758-.838c.982-.144 1.775.939 1.518 2.073" fill="#E6E7E8"/><path fill="#F48368" d="M28.19 48.454l3.731 1.4 7.953 12.93zm64.458 0l-3.73 1.4-7.953 12.93z"/><path d="M60.42 75.528H17.093a.9.9 0 0 0-.897.993c.232 2.193 1.301 7.254 6.24 7.254h75.965c4.939 0 6.008-5.06 6.24-7.254a.9.9 0 0 0-.897-.993H60.419z" fill="#E6E7E8"/><path d="M60.42 62.784H44.628c-1.159 0-1.882 1.253-1.299 2.252l1.148 1.968c.27.46.764.744 1.298.744h29.287c.534 0 1.028-.283 1.298-.744l1.148-1.968c.582-.999-.14-2.252-1.299-2.252H60.42z" fill="#5E5E5E"/><path d="M30.005 74.503a1.73 1.73 0 0 1-.313-.029l-4.625-.853a1.555 1.555 0 0 1-.862-.458l-1.781-1.938c-.293-.32-.374-.723-.216-1.08.18-.407.636-.67 1.165-.67.104 0 .21.011.317.03l5.561 1.026c.475.088.88.372 1.056.742l.845 1.765a.939.939 0 0 1-.045.924c-.214.339-.626.541-1.102.541zm60.829 0c.103 0 .208-.01.313-.029l4.624-.853c.344-.063.65-.226.863-.458l1.78-1.938c.294-.32.374-.723.217-1.08-.18-.407-.637-.67-1.165-.67-.104 0-.211.011-.318.03l-5.56 1.026c-.475.088-.88.372-1.057.742l-.844 1.765a.939.939 0 0 0 .045.924c.215.339.626.541 1.102.541" fill="#D24F47"/></g></svg>