<svg width="120" height="120" viewBox="0 0 120 120" xmlns="http://www.w3.org/2000/svg" xmlns:xlink="http://www.w3.org/1999/xlink"><defs><path id="a" d="M.2.3h13.173v5.567H.2z"/></defs><g fill="none" fill-rule="evenodd"><path d="M59.43 111.798h.005l-.09-11.33-9.887.076.537 11.329h.01c-1.76 1.108-3.025 3.341-1.499 5.137 1.16 1.27 2.833.249 4.108-.3 1.41-.68 3.018-1.162 4.293-2.053.823-.576 1.789-1.21 2.337-2.074.17-.267.253-.538.187-.785m10.713-.085h.006l.36-11.334-9.887.076.092 11.333h.004c-.06.257.023.52.2.78.562.856 1.54 1.474 2.373 2.04 1.282.867 2.908 1.323 4.322 1.982 1.286.528 2.977 1.526 4.115.238 1.495-1.821.193-4.04-1.585-5.115" fill="#FDDFBB"/><path d="M59.388 108.02l-9.57.076.18 3.812h.011a5.421 5.421 0 0 0-.858.683l.021 2.443 7.327-.058c.14-.081.277-.168.414-.266.82-.578 1.79-1.22 2.34-2.083.164-.272.245-.55.183-.796h-.014l-.034-3.811z" fill="#EEEEED"/><path fill="#61C6F1" d="M49.84 108.538l.008.184 9.545-.075v-.184zm.018.376l.006.18 9.533-.075v-.18z"/><path d="M71.704 113.196a5.42 5.42 0 0 0-1.554-1.448h.004l.123-3.815-9.575.076.032 3.814h-.01c-.061.246.024.522.196.789.561.856 1.546 1.477 2.372 2.05.137.084.277.18.416.256l8.01-.063-.014-1.659z" fill="#EEEEED"/><path fill="#61C6F1" d="M60.707 108.637l9.552-.077.004-.184-9.556.074zm.003.37l9.534-.075.006-.18-9.541.074z"/><path d="M50.022 111.908l-.023-.01v.01h.01c-1.759 1.133-3.028 3.347-1.501 5.145 1.157 1.27 2.835.25 4.106-.296 1.412-.682 3.022-1.162 4.297-2.045.822-.58 1.792-1.226 2.34-2.086.165-.271.246-.549.186-.795l-.013-1.686s-.114-.172-.509.004c-.777.348-1.277 1.889-2.943 1.713-4.125-1.119-5.95.046-5.95.046" fill="#E63744"/><path d="M59.125 112.802l-.208-.185s-2.098 2.157-3.917 2.702l.17.337c.607-.273 1.207-.576 1.743-.944.76-.543 1.647-1.136 2.212-1.91" fill="#333433"/><path d="M49.967 113.073c-.463.004-.916.04-1.348.116-.008.004-.012.006-.014.016-.87 1.144-1.155 2.598-.098 3.849 1.157 1.268 2.835.25 4.106-.298.976-.47 2.054-.848 3.045-1.326-1.149-1.43-3.267-2.376-5.69-2.357" fill="#9B1D2B"/><path d="M59.37 110.33c-.395.002-.712.741-.706 1.649.004.443.079.84.21 1.13a3.96 3.96 0 0 0 .378-.484c.164-.27.247-.547.185-.794l-.013-1.493a.155.155 0 0 0-.054-.008m10.764 1.418l.02-.01v.01h-.008c1.778 1.106 3.078 3.3 1.583 5.125-1.136 1.286-2.829.292-4.108-.237-1.423-.66-3.043-1.112-4.328-1.974-.833-.567-1.812-1.199-2.374-2.05-.177-.268-.258-.543-.196-.79l-.014-1.684s.112-.176.502-.006c.783.334 1.311 1.866 2.973 1.661 4.108-1.178 5.95-.045 5.95-.045" fill="#E63744"/><path d="M61.045 112.786l.202-.185s2.13 2.12 3.967 2.637l-.169.338c-.614-.261-1.215-.553-1.752-.914-.771-.534-1.677-1.11-2.248-1.876" fill="#333433"/><path d="M70.21 112.913c.46-.006.913.027 1.35.093.003.004.01.006.012.019.884 1.129 1.196 2.579.155 3.846-1.134 1.287-2.826.295-4.106-.234-.99-.453-2.066-.812-3.067-1.278 1.127-1.448 3.233-2.427 5.655-2.446" fill="#9B1D2B"/><path d="M60.755 110.32c.401-.005.731.73.738 1.636.004.443-.073.841-.193 1.137a3.767 3.767 0 0 1-.38-.482c-.18-.266-.258-.541-.198-.788l-.012-1.495c.016-.004.027-.008.045-.008" fill="#E63744"/><path d="M83.279 78.84c-.112-.99-.45-1.873-.93-2.556a.559.559 0 0 1 .006.066s-1.527-14.096-5.24-18.757c-1.703-2.138-7.552-5.208-8.237-5.566-1.292-.92-4.196-1.313-5.994-1.464.292-.665.469-1.386.463-1.912l-7.616.058c.006.528.19 1.234.496 1.887-1.772.188-4.698.632-6.025 1.56l-3.07 1.128c-3.42-1.675-8.54 3.126-8.54 3.126l-5.57-6.421v.008c.089-.265.157-.547.201-.839.351-.646.634-1.448.804-2.349.436-2.353-.09-4.422-1.182-4.621-.58-.108-1.209.342-1.728 1.135-1.18-1.112-2.63-1.566-3.832-1.046-1.842.795-2.41 3.58-1.26 6.214.733 1.693 1.995 2.915 3.29 3.364 0 0 3.518 9.721 6.525 10.784 2.436.853 11.267-2.765 11.267-2.765v-.015c-1.584 10.138.283 25.593.283 25.593l24.954-.197s1.377-14.053-.04-24.132v.004c.202.532 1.29 1.48 2.152 2.68C76.182 66.2 77.87 76.38 77.87 76.38c-.042.072-.077.143-.113.211a7.02 7.02 0 0 0-1.196 1.665c-.912 1.749-.995 3.51-.183 3.936.432.22 1.037.017 1.643-.49.66 1.16 1.693 1.87 2.77 1.748 1.646-.187 2.761-2.246 2.489-4.61" fill="#FDDFBB"/><path d="M56.575 51.215l6.752-2.28.01-.013a22.956 22.956 0 0 1-3.87.352 24.36 24.36 0 0 1-3.714-.259c.077.649.378 1.552.822 2.2m-25.061 5.763l4.829-3.159-3.321-3.83v.009c.031-.091.06-.18.087-.28L29.3 51.843l.013.01s.916 2.513 2.201 5.125M81.4 70.105l-4.728.265a115.154 115.154 0 0 1 1.177 5.906l4.466-.245a86.789 86.789 0 0 0-.914-5.926m-28.168-5.683c-1.832.013-3.128-.294-3.932-.936-.68-.549-1.012-1.348-1.02-2.376h.125c.01 1.028.328 1.755.976 2.273 1.466 1.176 4.656 1.224 9.761.147l.023.122c-2.382.505-4.353.756-5.933.77m13.124-.105c1.828-.014 3.124-.342 3.913-.998.671-.555.995-1.361.99-2.389h-.132c.008 1.028-.297 1.76-.937 2.287-1.447 1.204-4.637 1.3-9.759.3l-.02.125c2.39.468 4.365.69 5.945.675m-6.565-1.952l-.131.002-.025-2.87.133-.003zm-17.027-4.031a8.8 8.8 0 0 1-.713-.021c-1.78-.097-3.169-.588-3.181-.59l.04-.123c.012.009 1.389.49 3.156.585 1.622.089 3.913-.127 5.618-1.713l.087.093c-1.501 1.394-3.445 1.756-5.007 1.769m34.545 2.894c.05-.18.374-1.385.459-2.686-.044-.069-.079-.137-.123-.2-.066 1.445-.457 2.843-.46 2.868v.04l1.607 5.176.122-.04-1.605-5.158z" fill="#EEAC6C"/><path d="M73.055 61.269c-.021-.116-.104-.197-.164-.334-.052.052-.31-.118-.434-.2-1.132-.765-3.691-3.47-3.76-9.436l-.006-.012c-1.117-.696-3.205-1.063-4.84-1.247 0 0-.215 10.943-4.128 10.966-3.905.022-4.218-10.896-4.218-10.896-1.48.184-3.3.507-4.44 1.102-.138.07-.254.122-.37.203 0 0-.009.193-.03.52-.135 1.713-.762 7.03-3.62 7.285-1.838 7.395-1.082 18.655-.58 23.902.17 1.788.504 2.87.504 2.87s2.226 9.526 2.49 14.572l9.886-.077c-.056-1.278.44-7.345.44-7.345l.28-.002s.607 5.675.56 7.335l9.883-.077c.235-4.28 2.414-14.616 2.414-14.616s.345-1.09.521-2.875c.492-4.791 1.171-14.554-.388-21.638" fill="#0771B7"/><path d="M50.695 51.415v-.004.004zm0-.004c.002-.004.002-.004 0 0" fill="#E63744"/><path d="M51.707 50.928c-.23.089-.45.186-.644.284-.137.07-.253.122-.367.203 0 0-.009.192-.031.52-.133 1.713-.763 7.03-3.62 7.285a30.705 30.705 0 0 0-.395 1.856c2.565-.404 5.62-7.111 5.057-10.148M73.223 62.08c-.05-.274-.11-.545-.168-.812-.021-.114-.104-.195-.164-.334-.052.054-.31-.116-.434-.198-1.132-.767-3.691-3.47-3.76-9.438l-.006-.012a5.267 5.267 0 0 0-1.126-.504c-.585 3.364 3.012 11.66 5.658 11.298m-13.503.308c-4.022.022-4.998-8.883-5.216-12.141a19.2 19.2 0 0 1 1-.137s.314 10.919 4.219 10.896c3.913-.023 4.129-10.966 4.129-10.966.316.035.648.074.986.124-.193 3.273-1.082 12.199-5.117 12.224" fill="#F6B90C"/><path d="M37.167 30.519a22.716 22.716 0 0 1-.283-3.345C36.787 14.864 46.717 4.8 59.06 4.7c12.34-.098 22.428 9.808 22.526 22.116a22.59 22.59 0 0 1-.203 3.199c1.296.7 2.178 2.02 2.19 3.542.02 2.264-1.881 4.112-4.236 4.13a4.357 4.357 0 0 1-.472-.023 22.352 22.352 0 0 1-19.448 11.621c-8.393.066-15.745-4.493-19.619-11.29-.072.003-.137.007-.205.007-2.358.02-4.28-1.8-4.297-4.064-.01-1.413.73-2.674 1.87-3.42" fill="#FDDFBB"/><path d="M53.229 27.096c-.772-.174-.908-1.201-3.386-.74-.779.18-2.417 1.156-2.732 1.808-.316.652-.088-2.392 2.457-3.522 1.835-.675 2.457-.642 3.977-.642s1.987.907 1.766 1.65c0 0-.503 1.803-2.082 1.446zm13.905 0c.772-.174.908-1.201 3.386-.74.779.18 2.417 1.156 2.732 1.808.316.652.087-2.392-2.457-3.522-1.835-.675-2.457-.642-3.977-.642s-1.987.907-1.766 1.65c0 0 .503 1.803 2.082 1.446zM53 33c0 1.657-.895 3-2 3s-2-1.343-2-3 .895-3 2-3 2 1.343 2 3m18 0c0 1.657-.895 3-2 3s-2-1.343-2-3 .895-3 2-3 2 1.343 2 3" fill="#343434"/><path d="M60.02 36.07c.839-.115 2.96 1.756 2.96 1.756s.103-.414-.34-1.238C62.163 35.703 59.99 35 59.99 35s-1.687.448-2.487 1.604c-.296.29-.503 1.299-.503 1.299s1.895-1.681 3.02-1.834z" fill="#EEAC6C"/><g transform="translate(53 39)"><mask id="b" fill="#fff"><use xlink:href="#a"/></mask><path d="M.2.696S7.097 3.904 13.372.299c0 0-1.39 5.47-5.95 5.561-4.115.122-4.984-1.492-5.477-1.956C1.453 3.441.525 2.132.2.696" fill="#EEAC6C" mask="url(#b)"/></g><path d="M82.53 23.904a47.667 47.667 0 0 0-.303-4.093c-3.082-9.783-12.282-16.845-23.1-16.758a23.995 23.995 0 0 0-21.391 13.444c-1.064 3.107-1.708 6.16-1.753 7.532-.154 4.766 3.387 11.88 3.387 11.88-.48-7.841-.394-7.827 1.493-9.204 2.345-1.707 7.286-4.903 9.185-7.089.361-.418 1.11-1.91 1.11-1.91s-.066 1.163.597 1.68c3.98 3.08 15.618-.474 20.063 1.888 3.635 1.938 8.131 14.311 8.131 14.311 1.76-3.395 2.634-9.06 2.582-11.68" fill="#343434"/><path fill="#B5B4B4" d="M113.839 102.892L6.4 103.743l-.016-1.844 107.437-.855z"/><path fill="#D7D6D6" d="M15.345 95.29l.125 15.301-1.816-7.57zm9.332-.075l.12 15.303 1.695-7.6z"/><path fill="#33AD72" d="M18.42 116.435l-2.947.023-.216-27.03 2.947-.025z"/><path fill="#B52836" d="M21.622 116.409l-2.953.024-.214-27.032 2.951-.023zm3.264-.027l-2.943.025-.216-27.03 2.943-.025z"/><path fill="#D7D6D6" d="M95.615 94.653l.124 15.301-1.813-7.573z"/><path fill="#B52836" d="M98.69 115.796l-2.948.024-.216-27.03 2.95-.022zm3.202-.025l-2.943.025-.216-27.032 2.943-.025z"/><path fill="#33AD72" d="M105.16 115.745l-2.95.025-.213-27.032 2.949-.023z"/></g></svg>