<svg width="120" height="120" viewBox="0 0 120 120" xmlns="http://www.w3.org/2000/svg" xmlns:xlink="http://www.w3.org/1999/xlink"><defs><path id="a" d="M0 .284h119.95V70.93H0z"/><path id="c" d="M.205.02h1.751v16.654H.205z"/><path id="e" d="M.132.097h16.67V1.95H.131z"/></defs><g fill="none" fill-rule="evenodd"><g transform="translate(0 27.05)"><mask id="b" fill="#fff"><use xlink:href="#a"/></mask><path d="M89.672 49.448a8.156 8.156 0 0 1-.173 1.1 6.682 6.682 0 0 1-.868 2.054c-.095.162-.21.315-.316.471-.121.148-.227.306-.359.444a8.69 8.69 0 0 1-.8.817c-.188.162-.382.316-.58.465 1.712-1.8 2.83-4.239 3.037-6.957l.138.026-.02.393c-.02.413-.025.811-.059 1.187zm-36.001 9.46a9.3 9.3 0 0 1-1.327.388c-.255.053-.516.113-.747.143-.225.037-.457.066-.69.09a9.674 9.674 0 0 0 2.811-1.41l-.047.79zm-14.449-4.653l.057-.061c.076.156.153.311.236.463a12.469 12.469 0 0 1-.293-.402zm-15.347-2.57l-1.06-.45c-.34-.173-.69-.34-1.038-.51-.335-.192-.67-.39-1.012-.579l-.18-.115h.002a9.948 9.948 0 0 0 2.035-.313 12.1 12.1 0 0 0 2.304 2.344l-1.051-.376zm4.776-35.2c.265-.409.533-.855.815-1.309.281-.454.58-.915.905-1.349l.061-.081.031-.041.004-.005-.022.031.01-.01.018-.022.147-.173.292-.353c.1-.13.195-.211.29-.301.094-.091.185-.185.276-.278.079-.078.169-.152.259-.227l.233.25a11.261 11.261 0 0 0-3.144 6.46 9.697 9.697 0 0 0-1.704-.307c.358-.237.682-.735.72-1.144l.034-.04c.251-.318.512-.69.775-1.1zm4.147-4.925l.363-.217c.122-.07.237-.153.367-.207.128-.06.255-.12.38-.185.062-.031.124-.065.188-.094l.195-.076c.174-.066.346-.134.52-.197-.767.369-1.483.835-2.136 1.384l-.212-.17c.112-.08.222-.16.335-.238zm15.56 3.772c.236-.07.465-.154.704-.207l.046-.011.44 2.135 1.686-.474-.684-1.909c.454-.05.911-.054 1.362-.048.472.03.94.07 1.398.16.153.03.304.066.455.102l-.098 1.858h1.752l-.071-1.338c.192.083.38.171.566.264l.281.161.14.08c.045.025.093.053.147.09l.31.204.077.05.039.026.02.013.009.006-.02-.012.004.003.148.107c.208.147.457.327.804.467.341.15.817.192 1.189.118.377-.07.678-.205.933-.329.258-.127.46-.24.66-.327l.3-.144c.101-.045.207-.08.31-.122.104-.04.206-.083.31-.12l.32-.097c.423-.13.859-.223 1.298-.292.04-.007.082-.01.123-.016-.898.419-1.728.97-2.47 1.632-1.165.127-2.473.424-3.958.901a9.664 9.664 0 0 0-4.416-1.11 9.656 9.656 0 0 0-3.536.64 11.404 11.404 0 0 0-.87-2.354c.097-.038.193-.075.291-.107zm52.344 9.264c-.09-.01-.17-.016-.253-.024-.089-.2-.177-.401-.277-.595.084-.02.167-.04.25-.069.06.106.118.212.175.32l.095.216.025.054.006.014.001.003.001.003.013.033.02.05a2.3 2.3 0 0 1-.056-.005zM38.653 53.37c-.123-.215-.24-.433-.356-.651l-.008-.016a1.017 1.017 0 0 0-.222-.28c.147-.102.296-.2.439-.308.14.54.32 1.063.533 1.566l-.386-.31zm63.78-8.82l9.684 2.597-8.8-3.752c.335-.508.642-1.052.91-1.643.035-.079.067-.16.095-.241.204-.593.426-1.197.662-1.796.15-.382.271-.646.361-.825.324-.02.716-.058 1.2-.116.896-.106 1.21-.157 1.383-.188a2.795 2.795 0 0 0 1.854-1.263l10.167.063-9.782-1.094c.015-.09.036-.18.042-.274.101-1.49.15-2.625.15-3.466V29.18c0-.72-.281-1.4-.783-1.894-.445-.438-.82-.8-1.147-1.106l5.703-1.675-6.514.95c-.736-.62-1.134-.81-1.613-.927a2.622 2.622 0 0 0-.748-.07l-2.369.116c-.067-.192-.138-.399-.225-.632l-.058-.143-.033-.08-.035-.076-.142-.305a13.226 13.226 0 0 0-.236-.416 2.903 2.903 0 0 0 .949-1.895c.301-3.486.336-4.495.336-4.95 0-1.414-.015-1.934-.316-2.54a2.631 2.631 0 0 0-.051-.098 6.357 6.357 0 0 0-.552-.817l6.632-3.99-7.194 3.356c-.946-.942-2.219-1.681-3.816-2.198a2.43 2.43 0 0 0-.9-.11c-4.03.253-4.068.256-4.132.262-2.497.215-4.917 1.207-7.227 2.937a10.56 10.56 0 0 0-1.382-1.3l4.014-4.42-4.72 3.915a9.715 9.715 0 0 0-5.266-1.604 9.726 9.726 0 0 0-5.421 1.611l4.912-9.394-8.701 13.085c-.024-.012-.046-.027-.07-.039-.249-.118-.493-.249-.752-.343l-.383-.15c-.129-.05-.26-.085-.391-.127-.131-.04-.262-.084-.394-.12l-.4-.095c-.264-.07-.536-.104-.805-.146-.27-.05-.543-.055-.814-.082-.272-.02-.544-.014-.817-.02-.271.008-.544.025-.814.047-.138.02-.276.036-.413.053l1.973-10.248-3.656 10.635c-.096.03-.194.054-.288.089l-.384.139c-.126.05-.25.109-.375.163-.124.057-.25.108-.371.17l-.361.192c-.246.127-.466.272-.645.375a2.097 2.097 0 0 1-.444.207.456.456 0 0 1-.27.003c-.118-.03-.29-.118-.493-.24l-.162-.097-.036-.022-.01-.006-.02-.01-.041-.023-.081-.044-.327-.176-.082-.044-.096-.044-.192-.087-.382-.168a10.63 10.63 0 0 0-1.257-.39L54.543.284l-.715 13.596c-.131-.01-.264-.016-.396-.023-.26-.021-.523-.003-.783-.004-.26.007-.52.04-.778.06-.256.043-.513.07-.765.128-.252.061-.504.107-.749.19l-.032.01-3.286-9.173 1.994 9.68-.096.045c-.322.158-.624.35-.916.55C46.632 12.624 44.2 10.61 41.3 9.9l-5.581-8.161 3.99 7.396a3.263 3.263 0 0 0-.277-.112l-.352-.126c-.121-.042-.245-.091-.374-.121l-.397-.095c-.135-.033-.274-.061-.415-.092l-.434-.056c-.148-.019-.298-.034-.451-.05-.153-.008-.307-.007-.465-.01a14.463 14.463 0 0 0-.477-.002l-.484.044c-.163.019-.33.027-.495.056l-.494.102c-.165.038-.337.06-.499.117l-.493.16-.248.082c-.082.032-.161.069-.242.103-.161.068-.322.142-.481.215-.164.068-.313.164-.467.25l-.46.267c-.29.203-.574.413-.851.63L27.37 7.684l3.02 3.238c-.105.097-.21.188-.307.306l-.358.41c-.117.139-.238.28-.313.402l-.259.378-.126.19-.057.084-.03.054-.06.106c-.327.567-.567 1.13-.77 1.657-.2.528-.36 1.024-.508 1.476-.119.372-.228.707-.333 1.017a4.043 4.043 0 0 0-.468-.018l-.545.007c-.187-.004-.351.03-.528.046-.175.019-.35.04-.524.065-.345.071-.691.152-1.034.241l-.501.178c-.166.062-.336.113-.493.193-.16.075-.32.149-.476.227-.079.04-.158.077-.235.118l-.223.136-.442.272c-.148.087-.276.203-.413.304l-.398.31c-.084.07-.16.148-.238.224l-3.88-1.75 3.546 2.072-.138.136c-.106.12-.209.243-.308.364-.1.122-.2.24-.293.361-.087.126-.173.25-.254.376l-.24.367c-.068.127-.136.251-.198.376l-.185.364c-.06.116-.102.24-.149.357a11.154 11.154 0 0 0-2.014 3.5c-.285.15-.507.296-.713.52-.268.291-.464.64-.595 1.013l-9.264-1.227 9.038 2.527a28.72 28.72 0 0 0-.299 1.7c-.133.654-.181 1.072-.159 1.41.016 1.282.021 2.2.017 2.806a1.64 1.64 0 0 0 .015.244l.027.211L0 36.87l14.813-.284c.03 1.33.058 2.657.08 3.952v.01c.098 4.399.165 4.658.23 4.91.048.183.123.395.545 1.202l-6.6 2.917 7.095-2.002c.476.845.716 1.155.93 1.35.814.732 1.889 1.102 3.194 1.106l.319.325c.295.262.6.515.903.776.32.236.639.477.965.71.338.212.676.427 1.02.636.354.186.708.379 1.068.562l.116.051-6.54 5.203 7.505-4.777.026.011 1.143.41c.387.115.778.227 1.17.335l1.191.258 1.21.177c.405.036.812.072 1.22.1l1.226.02c.409-.016.819-.037 1.228-.06l1.223-.14c.405-.07.81-.146 1.214-.222l.394-.1c.034.06.072.117.106.176l-6.005 8.644 6.836-7.366a13.45 13.45 0 0 0 1.669 1.863c.406.386.846.734 1.297 1.064.457.323.93.623 1.42.892.121.07.256.134.384.198.13.065.263.133.378.181l.356.158.023.01.043.019.048.019.098.038.195.077c.23.095.467.169.702.248L40.623 70.93l4.96-10.101c.46.103.923.181 1.387.239.55.06 1.104.082 1.655.08.552-.012 1.102-.05 1.645-.13a11.965 11.965 0 0 0 1.615-.337c.28-.072.518-.156.766-.238.277-.098.52-.193.775-.306.06-.026.117-.059.176-.086l-.234 3.91.86-4.223c.217-.12.432-.247.64-.383a7.74 7.74 0 0 0 1.265-1.033c.38-.39.716-.822.986-1.287.264-.467.463-.974.561-1.485a5.5 5.5 0 0 1-.84 1.29 6.118 6.118 0 0 1-1.115 1.007 7.821 7.821 0 0 1-1.263.736l.265-1.3c.83-.782 1.54-1.709 2.093-2.745 1.6 1.8 3.663 3.12 5.986 3.75l1.401 7.064-.626-6.883c.716.143 1.454.224 2.208.23 2.36.017 4.564-.676 6.456-1.878l4.81 9.482-3.868-10.141c.09-.07.185-.134.274-.207 1.652 1.247 3.662 1.987 5.836 2.003a9.653 9.653 0 0 0 1.537-.125c.175.023.34.051.525.067.68.056 1.431.056 2.225-.042.332-.036.67-.105 1.011-.181l9.916 10.79-8.367-11.283c.177-.074.355-.148.515-.234.101-.052.204-.101.305-.156l.3-.171c.202-.11.391-.246.589-.372.19-.135.379-.278.563-.426a8.951 8.951 0 0 0 1.92-2.15c.129-.21.255-.42.361-.642.118-.216.21-.445.306-.672a7.55 7.55 0 0 0 .241-.697l.09-.357.022-.09.011-.044.013-.059.03-.157c.02-.096.041-.235.061-.356.019-.124.032-.239.046-.358a9.53 9.53 0 0 0 .038-.702c.008-.461-.013-.89-.037-1.291l-.005-.118 11.689 7.23-9.43-7.303c1.959-.092 3.557-.383 4.835-.89a9.412 9.412 0 0 0 3.826-2.619z" fill="#CECECE" mask="url(#b)"/></g><g transform="translate(53.462 23.27)"><mask id="d" fill="#fff"><use xlink:href="#c"/></mask><path fill="#000" mask="url(#d)" d="M.205 16.674L1.081.02l.875 16.654z"/></g><path fill="#000" d="M49.548 40.256l-2.51-12.182 4.196 11.708zm-5.912-.835L35.72 24.746l9.412 13.763zm-7.786.364l-8.48-9.094 9.674 7.812zm-4.583 9.185L16.87 40.561l15.198 6.85zm-13.229 3.518L6.066 49.14l12.324 1.632zm-1.372 7.069L0 59.877l16.54-2.067zm4.366 9.65L9.067 72.584l11.372-5.025zm11.17 3.141L18.138 81.3l13.048-10.378zm7.246 4.67l-8.459 9.114 7.095-10.213zm8.526 1.95l-7.35 14.969 5.74-15.657zm7.874-4.188l-2.48 12.188.744-12.415zm6.847-3.03l1.512 16.609L60.962 72zm8.417 1.978l5.943 15.581-7.544-14.871zm13.467 4.352l9.932 13.393L83.23 79.196zm5.441-9.92l13.182 10.207-14.18-8.768zm10.66-2.882l11.437 4.877-12.008-3.221z"/><g transform="translate(103.148 58.445)"><mask id="f" fill="#fff"><use xlink:href="#e"/></mask><path fill="#000" mask="url(#f)" d="M.235.097L16.801 1.95.132 1.846z"/></g><path fill="#000" d="M101.83 49.305l12.302-1.792-11.928 3.503zm-7.782-10.618l15.108-7.047-14.285 8.594zm-15.099-.583l9.571-7.937-8.361 9.204zm-10.158.476l9.233-13.885-7.726 14.777zm-7.59-.31l4.043-11.76-2.351 12.212z"/><path d="M89.671 68.28c-.044 0-.087-.004-.131-.005.081.572.123 1.158.118 1.755-.045 6.08-4.684 10.976-10.36 10.935-2.175-.016-4.185-.757-5.837-2.003-2.129 1.738-4.79 2.764-7.671 2.743-3.535-.026-6.713-1.621-8.97-4.161-1.735 3.256-5.015 5.443-8.762 5.415-4.568-.034-8.392-3.346-9.552-7.837-1.931 1.471-4.295 2.332-6.844 2.313-6.449-.048-11.635-5.686-11.584-12.594a13.38 13.38 0 0 1 .362-2.995c-2.732-1.997-4.514-5.368-4.485-9.178.045-6.081 4.683-10.977 10.36-10.935a9.64 9.64 0 0 1 2.51.351c.713-5.378 5.046-9.5 10.256-9.461 4.737.035 8.699 3.498 9.855 8.178a9.644 9.644 0 0 1 3.536-.641c2.444.018 4.68.95 6.433 2.488 1.866-2.935 5.02-4.853 8.581-4.826a9.663 9.663 0 0 1 2.032.231c1.783-3.353 5.16-5.604 9.016-5.576 5.06.038 9.235 3.987 10.05 9.152a9.647 9.647 0 0 1 2.66-.353c5.677.041 10.243 5.005 10.198 11.086a11.559 11.559 0 0 1-1.426 5.508c-.3 5.835-4.832 10.45-10.345 10.41" fill="#FFF"/><path d="M56.134 81.328a7.772 7.772 0 0 1-1.267 1.034 10.34 10.34 0 0 1-2.216 1.088c-.248.082-.487.165-.765.237-.54.154-1.07.26-1.616.337-.544.081-1.093.119-1.645.13a14.79 14.79 0 0 1-1.655-.08 13.517 13.517 0 0 1-1.638-.292c-.272-.059-.538-.141-.806-.218-.263-.092-.531-.172-.79-.28l-.195-.075-.098-.039-.049-.019-.043-.019-.022-.01-.357-.157c-.113-.048-.248-.117-.377-.181-.128-.065-.263-.13-.383-.199a14.646 14.646 0 0 1-1.421-.892 12.94 12.94 0 0 1-1.297-1.064 13.347 13.347 0 0 1-2.606-3.317l.803-.202-1.175-.515c.118.243.242.482.372.718l-.395.1c-.404.075-.808.152-1.213.222l-1.223.14c-.41.023-.82.044-1.228.06l-1.226-.02c-.408-.029-.815-.065-1.22-.1l-1.21-.178-1.192-.258a68.64 68.64 0 0 1-1.17-.334l-1.142-.41-1.107-.488c-.36-.184-.714-.376-1.068-.563-.344-.208-.682-.424-1.02-.636-.327-.232-.645-.474-.964-.71-.304-.26-.61-.513-.904-.776-.28-.283-.56-.56-.83-.846.336.21.662.426.989.637.343.189.677.387 1.012.578.349.171.697.338 1.039.511l1.059.45 1.078.386 1.094.323 1.105.262 1.114.198 1.121.135 1.123.076 1.123.012 1.119-.05 1.112-.112 1.101-.174c.362-.084.725-.158 1.088-.236l1.068-.3c.449-.126.94.071 1.168.499l.008.015c.225.423.451.845.72 1.242.265.4.549.787.862 1.15.304.371.635.72.983 1.05.345.335.722.635 1.1.931.384.288.783.556 1.198.798.103.064.203.112.304.17.1.057.194.113.318.171l.35.174.312.139c.217.102.446.18.669.27.23.074.454.165.687.229a13.237 13.237 0 0 0 2.864.526c.488.023.979.046 1.47.017.487-.024.99-.07 1.463-.147.231-.03.492-.09.746-.143.222-.048.475-.11.707-.18.943-.282 1.867-.684 2.675-1.27a6.074 6.074 0 0 0 1.115-1.007 5.49 5.49 0 0 0 .84-1.29 4.962 4.962 0 0 1-.561 1.486c-.27.465-.605.896-.985 1.286" fill="#000"/><path d="M37.691 77.11l-.803.203a16.25 16.25 0 0 1-.372-.718l1.175.515zm44.684-42.5a18.871 18.871 0 0 1-.469-.166l-.473-.143-.479-.114-.48-.087-.482-.065-.482-.038-.48-.015-.478.013-.475.035-.47.061-.463.087-.455.11-.446.135-.434.16-.444.191-.39.2-.398.231-.385.25-.37.27-.353.292-.337.308-.32.324-.302.34-.281.356-.262.369-.242.38-.22.393-.195.404-.172.411-.15.42a.983.983 0 0 1-1.457.498l-.05-.033c-.185-.118-.36-.246-.548-.358-.194-.1-.375-.222-.577-.309-.2-.09-.39-.195-.6-.265l-.306-.119c-.103-.038-.21-.065-.315-.098l-.316-.094-.323-.073c-.214-.054-.433-.085-.651-.121-.217-.045-.44-.047-.66-.074-.22-.02-.443-.014-.664-.023l-.666.025c-.22.026-.443.037-.662.074a9.3 9.3 0 0 0-1.299.293l-.319.097c-.104.037-.206.08-.31.12-.103.04-.209.076-.31.122l-.3.143c-.2.088-.402.2-.66.328a3.577 3.577 0 0 1-.933.328 2.155 2.155 0 0 1-1.19-.117c-.346-.14-.595-.32-.803-.468l-.148-.106-.005-.004a.584.584 0 0 1 .02.013l-.009-.007-.019-.012-.039-.026-.078-.05-.31-.205a1.638 1.638 0 0 0-.147-.09l-.14-.08-.28-.16a9.745 9.745 0 0 0-1.26-.536l-.329-.11c-.11-.033-.223-.058-.335-.088a7.991 7.991 0 0 0-.68-.152c-.458-.09-.926-.13-1.398-.16a10.637 10.637 0 0 0-1.425.052l-.358.04c-.12.013-.237.04-.357.059-.118.022-.24.038-.357.067l-.353.089c-.239.053-.468.136-.705.206-.234.077-.46.177-.696.261a8.042 8.042 0 0 1 1.276-.8l.343-.164c.115-.054.235-.096.353-.145.12-.045.237-.097.358-.137l.367-.116c.244-.083.496-.128.748-.19.252-.057.509-.084.765-.127.258-.02.517-.053.778-.06.26 0 .522-.018.784.004.261.013.524.025.784.067.13.018.262.032.392.054l.39.078c.52.1 1.027.27 1.529.458l.382.17.192.085.096.044.082.044.326.177.082.044.04.022.021.01.01.006.036.022.162.097c.204.122.375.21.494.24.12.03.157.023.27-.003.107-.03.262-.101.443-.207.179-.102.4-.248.645-.374l.36-.193c.122-.061.248-.113.372-.17.125-.054.249-.112.375-.163l.383-.139a9.729 9.729 0 0 1 1.577-.414c.267-.052.538-.076.808-.114.27-.022.542-.04.814-.048.272.006.546 0 .817.02.271.028.545.033.814.083.27.041.54.075.806.145l.4.095c.131.037.262.08.393.12.13.042.262.078.391.127l.384.151c.258.094.502.224.75.343.134.063.262.137.389.214l-.057.104-.238.509-.204.524 1.508-.465c-.226-.158-.447-.326-.68-.474-.11-.064-.22-.132-.33-.198l.211-.387.296-.473.32-.455.348-.433.372-.411.393-.388.414-.366.435-.339.453-.312.47-.286.485-.257.5-.225.532-.203.502-.155.53-.127.536-.094.537-.06.538-.027.535.006.533.037.527.07.52.1.51.131.5.16.487.192.472.219.456.245c.148.09.293.182.437.274l.416.302.389.327-.458-.219-.462-.19z" fill="#000"/><path d="M70.651 38.627l-1.508.466.204-.525.238-.509.056-.104c.11.066.22.134.33.198.233.148.454.316.68.474m25.605 29.936a9.636 9.636 0 0 1-3.672.953c-.19.012-.34.018-.534.023a2.65 2.65 0 0 0-.425.04c-.11.024-.174.067-.161.08v.001a.07.07 0 0 0 .018-.01c.01-.004.03-.03.005 0l-.022.028-.011.014.025-.027c.003 0 .005-.002.007-.001.007-.001.006.01.002.044-.008.067-.012.21-.009.404.005.369.015.745.04 1.145.023.4.044.83.036 1.29a9.22 9.22 0 0 1-.038.702c-.014.12-.027.235-.046.358-.02.122-.04.26-.06.356l-.03.158-.014.058-.01.045-.023.089-.09.358c-.072.234-.147.47-.24.697-.096.226-.19.455-.307.671a7.302 7.302 0 0 1-.36.642 8.938 8.938 0 0 1-1.92 2.15c-.185.15-.374.291-.565.426-.197.126-.386.262-.59.372l-.298.172c-.1.054-.204.104-.305.156-.197.105-.42.193-.634.284-.113.049-.207.08-.301.113l-.285.1-.059.021-.039.012-.077.023-.156.045c-.104.028-.205.06-.31.084a10.06 10.06 0 0 1-1.214.225c-.793.098-1.544.099-2.225.043a11.88 11.88 0 0 1-1.825-.3c-.53-.14-.98-.283-1.343-.426a10.156 10.156 0 0 1-1.11-.499l.316.03c.206.028.505.048.882.076.754.05 1.829.093 3.07-.044.62-.068 1.28-.182 1.95-.364.335-.092.674-.2 1.01-.326.085-.03.167-.069.251-.103l.126-.051.064-.026.031-.012c-.007.002.028-.011-.015.005l.009-.004.017-.008.273-.126c.093-.042.187-.085.257-.127.153-.084.304-.163.466-.264l.24-.144.233-.157c.312-.21.607-.449.896-.697.282-.255.553-.526.8-.816.131-.139.237-.297.358-.444.106-.157.22-.31.316-.472a6.672 6.672 0 0 0 .868-2.053 8.18 8.18 0 0 0 .173-1.1c.034-.376.04-.774.059-1.187.018-.414.036-.838.087-1.252.024-.195.043-.443.139-.745a1.717 1.717 0 0 1 .324-.589l.012-.014c.063-.07.022-.022.037-.04l.013-.011.026-.024c.006-.005.065-.06.109-.095l.071-.055.06-.038c.321-.2.63-.24.876-.254a3.49 3.49 0 0 1 .643.039c.157.024.35.05.5.067.151.02.307.032.462.046.617.048 1.193.048 1.706.018A14.659 14.659 0 0 0 97 68.016l.309-.069-.265.176c-.177.106-.436.271-.788.44M41.058 33.387c-.277-.052-.599-.136-.97-.2-.188-.023-.385-.055-.59-.084-.205-.034-.427-.035-.65-.055-.114-.003-.225-.025-.343-.021l-.356.003c-.12.001-.241-.002-.364-.003l-.374.03c-.126.012-.253.019-.38.026-.129.015-.257.04-.386.058-.13.022-.26.04-.392.057l-.392.09c-.131.032-.264.059-.396.093l-.393.122c-.266.071-.52.186-.781.284l-.196.076c-.063.03-.125.063-.188.095a11.13 11.13 0 0 1-.378.185c-.13.053-.247.136-.368.207l-.363.217c-.233.158-.463.322-.69.489-.202.19-.441.358-.63.545-.091.093-.182.187-.276.277-.095.09-.19.171-.29.302l-.292.352-.147.173-.019.022-.009.01.022-.031-.004.005-.03.041-.062.081c-.326.435-.624.895-.905 1.35-.282.454-.55.9-.814 1.31-.264.408-.525.782-.775 1.099-.248.319-.49.58-.695.784-.21.205-.386.35-.507.442l-.188.142.099-.214c.072-.136.155-.345.263-.597.103-.259.227-.568.35-.932.126-.361.258-.77.403-1.225.147-.453.308-.948.508-1.477.203-.527.443-1.09.77-1.656l.06-.107.03-.054.057-.084.126-.19.259-.378c.075-.123.197-.263.313-.401l.358-.41c.119-.145.251-.248.378-.373.127-.12.257-.24.389-.357.278-.217.564-.428.854-.631l.46-.267c.154-.086.303-.183.466-.25.16-.074.32-.147.482-.215.081-.035.16-.071.242-.103l.248-.082.493-.16c.163-.057.334-.079.499-.118l.494-.102c.165-.029.331-.037.494-.055l.485-.044c.161-.002.32-.002.478.001.157.004.311.002.464.01.153.016.303.031.45.05.147.02.292.038.435.056.141.031.28.06.415.092l.397.095c.13.03.252.08.374.121l.352.127c.115.041.227.077.33.133.21.103.406.197.587.29.092.044.176.097.257.15l.23.15c.147.098.282.184.399.269.226.185.393.34.508.441.115.102.172.16.172.16l-.23-.06c-.146-.042-.364-.096-.627-.176" fill="#000"/><path d="M18.497 47.809c.14-.244.284-.544.477-.868.104-.16.207-.33.318-.505.107-.178.25-.347.38-.53.07-.09.127-.188.205-.275l.233-.27c.08-.09.156-.185.234-.28l.266-.264c.09-.089.178-.18.266-.273.095-.088.197-.17.295-.257.1-.085.2-.172.297-.261l.323-.24c.109-.08.215-.164.327-.242l.347-.22c.227-.157.48-.276.723-.411l.185-.1c.063-.03.13-.054.193-.082.13-.053.258-.11.387-.169.125-.064.263-.099.396-.146l.4-.136c.272-.073.546-.143.819-.207.276-.033.56-.105.823-.127.13-.01.26-.018.39-.031.738-.074 1.678-1.781.528-1.903-.142-.022-.328-.02-.508-.022l-.545.007c-.187-.003-.35.03-.528.046-.175.02-.35.04-.524.066-.345.07-.691.151-1.034.24l-.501.178c-.166.062-.336.113-.493.194-.16.074-.32.149-.476.227-.079.04-.158.076-.235.118l-.223.135-.442.272c-.149.087-.276.203-.413.304l-.398.31c-.128.108-.243.229-.362.342l-.348.34c-.106.121-.209.243-.308.365-.1.122-.2.239-.293.36-.087.127-.173.251-.254.376l-.24.367c-.068.128-.136.252-.198.376l-.185.364c-.061.118-.104.244-.15.363l-.133.35c-.043.114-.088.223-.112.339-.058.225-.114.436-.16.635-.026.098-.04.196-.053.292l-.035.273c-.02.175-.042.334-.053.478-.005.292.004.52.006.673.004.154.01.235.01.235l.103-.214c.064-.138.164-.34.273-.592m82.227-.288l-.002-.005.002.005m4.806 8.649c-.05.115-.115.219-.176.32l-.176.286c-.132.172-.251.328-.365.462-.125.126-.236.236-.335.328-.096.094-.197.156-.268.214a7.02 7.02 0 0 1-.228.164l.142-.242c.044-.08.11-.167.163-.286.053-.119.116-.252.185-.397l.18-.502c.04-.192.112-.383.142-.602l.054-.332c.015-.113.018-.233.028-.353l.014-.18-.002-.188c-.005-.126.006-.252-.012-.382-.014-.13-.024-.262-.035-.395l-.073-.4a5.361 5.361 0 0 0-.235-.807c-.044-.136-.106-.266-.167-.396-.031-.065-.058-.133-.092-.196a80.527 80.527 0 0 1-.111-.187l-.111-.188-.128-.177-.127-.176-.13-.142c-.044-.049-.08-.094-.129-.147l-.2-.184-.1-.093-.05-.048-.025-.023.033.032-.006-.004-.011-.01-.19-.148c-.27-.204-.606-.433-.949-.774-.042-.04-.085-.087-.128-.132a4.79 4.79 0 0 1-.135-.155l-.044-.055-.039-.049-.03-.04a4.159 4.159 0 0 1-.457-.8c-.181-.416-.302-.801-.421-1.105l-.048-.123-.013-.034v-.003c0 .003 0 .004-.003-.005l.002.005-.001-.003-.006-.013-.025-.054-.095-.217c-.075-.14-.143-.283-.23-.418a5.874 5.874 0 0 0-.56-.786 8.014 8.014 0 0 0-1.434-1.321c-.258-.194-.537-.365-.801-.527l-.196-.116-.222-.119-.112-.059-.014-.007-.006-.003c.024.01.002 0 .006.002L97 43.867l-.052-.026-.208-.105c-.556-.27-1.11-.496-1.634-.69a37.91 37.91 0 0 0-1.46-.502l-1.152-.373c-.322-.103-.575-.195-.748-.252l-.264-.095.28-.019c.182-.007.45-.027.79-.032.68-.013 1.654-.016 2.833.144a12.77 12.77 0 0 1 2.152.487l.064.021.031.01.044.017.119.043.242.089.267.11c.352.147.69.317 1.032.515.343.193.678.42 1.002.674.326.25.639.534.928.85.292.313.566.656.799 1.033.121.185.224.383.33.58l.14.305.036.076.034.08.057.143c.154.41.257.758.379 1.041.06.141.12.263.181.369.015.027.031.051.047.075l.012.019.003.004c.012.017-.014-.018-.01-.01l.011.013.043.057.048.061c.021.025.04.05.064.074.183.2.45.418.748.684.074.066.15.136.228.21l.067.064.023.025.047.051.092.101.183.202c.067.084.14.184.207.276l.2.28c.054.091.104.182.155.273l.15.27c.04.092.078.187.117.279l.112.277c.034.092.059.187.088.28.056.185.113.367.139.553.142.734.15 1.439.046 2.065-.108.626-.28 1.177-.513 1.626M25.904 69.2c-.135.037-.27.068-.407.102a7.945 7.945 0 0 1-.835.135l-.426.034-.431.005a7.418 7.418 0 0 1-.87-.065c-.147-.02-.291-.05-.437-.076-.145-.032-.29-.07-.435-.106-.144-.04-.286-.092-.43-.138-.141-.054-.281-.113-.423-.17-.14-.062-.275-.133-.412-.203l-.399-.235-.199-.138-.162-.117c-.125-.1-.26-.22-.389-.333-.117-.114-.224-.226-.336-.34-.103-.12-.2-.246-.3-.369-.094-.127-.18-.26-.27-.39a7.02 7.02 0 0 1-.237-.411c-.073-.141-.134-.288-.2-.432-.062-.146-.112-.299-.167-.448-.05-.151-.083-.31-.123-.465-.036-.156-.056-.317-.083-.475-.022-.16-.028-.325-.037-.486-.002-.163.009-.328.014-.49.016-.164.04-.328.066-.49.036-.161.08-.321.123-.48a.403.403 0 0 1 .005-.013l.113.05.324.11c.112.029.224.057.338.081l.35.044-.72-1.17-.233.435c-.06.147-.117.298-.172.45-.065-.029-.13-.057-.194-.088l-.289-.165-.27-.187-.247-.21-.226-.228-.202-.246-.178-.259-.15-.273a7.163 7.163 0 0 1-.123-.283l-.093-.29-.06-.294-.025-.296c0-.098.003-.195.01-.29.051.083.1.164.145.244l.16.224.17.207.18.189c.066.057.13.114.19.171l.2.154.204.138.212.12.213.104.219.085.218.07.218.05c.074.01.146.022.217.034l.213.016c.07-.002.14-.004.208-.004l.201-.018a.745.745 0 0 1 .782.951l-.064.22-.085.294c-.016.101-.04.2-.058.298l-.026.302c.005.103-.004.203-.001.304.011.103.014.204.027.306.022.103.032.204.052.306.027.102.045.204.076.305.035.1.063.2.1.3.04.098.074.198.118.295.049.096.09.194.142.288.056.09.104.187.159.28.06.088.115.18.177.268l.197.254.207.242.199.203.152.129.076.066.037.032.019.017.004.003-.03-.022.003.002.008.006.267.202c.094.06.188.124.281.188l.295.176.308.16.32.15.33.136.342.125.35.112c.238.069.48.132.728.192.125.024.25.053.375.08l.383.073a30.835 30.835 0 0 0 1.183.176c.137.016.273.03.411.051-.249.124-.5.231-.767.324-.131.045-.264.083-.398.125" fill="#000"/><path d="M18.51 61.72l.718 1.17-.349-.042a11.135 11.135 0 0 1-.338-.081l-.324-.11-.113-.051c.054-.152.111-.303.172-.45l.234-.435z" fill="#000"/><path d="M34.75 68.655c.45.376.741.597.921.725.265-.116.767-.371 1.655-.93.12-.21.274-.392.452-.535.43-.345.692-.584.847-.736.003-.077.005-.171.005-.286 0-1.236-.185-3.388-.55-6.39-.118-.965.347-1.912 1.115-2.266.806-.371 1.476-.63 2.046-.79.89-.248 1.779.358 2.037 1.395.514 2.061.868 3.981 1.052 5.708.084.154.284.49.728 1.101a8.4 8.4 0 0 0 .417.534c.486-.298.743-.442.92-.525 1.05-.603 1.857-1.096 2.397-1.463.076-.052.156-.097.238-.136.519-.243.978-.453 1.381-.63a96.064 96.064 0 0 0-.62-1.443 322.41 322.41 0 0 1-1.752-3.982l-.008-.02c-.396-.941-.953-2.39-1.702-4.426l-.006-.016c-.6-1.671-1.122-3-1.553-3.948a96.23 96.23 0 0 1-1.225-3.208 11.856 11.856 0 0 0-.314-.173 6.024 6.024 0 0 0-.402-.198 33.6 33.6 0 0 0-.646.225c-.795.274-1.324.451-1.617.544a1.585 1.585 0 0 1-.14.037c-.465.1-.921.189-1.358.264a3.598 3.598 0 0 0-1.194.56 16.51 16.51 0 0 0-.708 2.519c-2.222 11.27-2.287 11.56-2.314 11.683a3.201 3.201 0 0 1-.023.095l-.04.151-.717 2.69c-.35 1.392-.468 2.272-.497 2.81.03.037.071.084.125.138l.007.008c.06.055.276.25 1.044.914m.77 4.9c-.649-.01-1.274-.378-2.671-1.567l-.02-.018c-.997-.876-1.204-1.067-1.31-1.189-.833-.884-1.254-1.86-1.254-2.907 0-1.128.21-2.52.644-4.259l.008-.03.707-2.685.025-.094a3297 3297 0 0 0 2.24-11.429l.002-.009a20.913 20.913 0 0 1 1.195-3.983 2.12 2.12 0 0 1 .658-.872c.151-.114.362-.27.627-.46l.022-.015a6.887 6.887 0 0 1 2.18-1.004c.04-.01.08-.02.12-.027.388-.07.796-.153 1.214-.247.28-.093.77-.264 1.46-.51 1.07-.395 1.274-.442 1.514-.46.512-.038 1.071.128 1.93.575.898.466 1.277.742 1.558 1.134.113.158.203.336.27.528.297.867.743 2.04 1.325 3.489.48 1.056 1.049 2.483 1.69 4.248.724 1.947 1.28 3.378 1.65 4.25a310.135 310.135 0 0 0 1.759 3.95l.008.02c1.415 3.196 1.471 3.56 1.471 4.139 0 1.18-.567 2.188-1.551 2.76a1.72 1.72 0 0 1-.284.133c-.494.178-1.244.495-2.226.942-.631.413-1.485.92-2.6 1.545a1.62 1.62 0 0 1-.171.084 12.781 12.781 0 0 0-.779.452c-.68.396-1.085.584-1.549.581-1.241-.008-2.219-1.141-3.01-2.244a24.709 24.709 0 0 1-.324-.463c-.069.659-.235 1.28-.618 1.777-.305.414-.766.867-1.466 1.438a4.244 4.244 0 0 1-.426.52c-.101.108-.213.2-.333.276-2.172 1.368-3.043 1.64-3.686 1.63" fill="#29BBAF"/><path d="M32.821 69.043c.038.039.236.223 1.132 1.003 1.232 1.038 1.522 1.118 1.569 1.123.216.001.854-.175 2.712-1.357.186-.202.223-.294.229-.31a.334.334 0 0 1 .106-.158c.694-.554 1.15-.982 1.353-1.27a.574.574 0 0 1 .016-.02c.005-.007.127-.182.127-1.167 0-1.324-.192-3.568-.57-6.664-.02-.161.059-.32.187-.378.734-.335 1.359-.574 1.856-.71.149-.041.296.06.339.233.51 2.059.854 3.96 1.019 5.646l.001.014c.004.06.072.428 1.038 1.764.868 1.202 1.284 1.367 1.434 1.376.037-.011.18-.066.629-.33.667-.41.888-.523.989-.566 1.112-.632 1.974-1.153 2.557-1.545a.26.26 0 0 1 .04-.023c1.07-.496 1.9-.855 2.463-1.063.277-.17.322-.344.325-.48-.022-.121-.19-.66-1.223-3.01a319.98 319.98 0 0 1-1.758-3.975c-.384-.908-.95-2.377-1.685-4.364-.622-1.725-1.167-3.102-1.62-4.098l-.007-.016a81.451 81.451 0 0 1-1.353-3.578c-.058-.052-.25-.196-.838-.505-.68-.36-.926-.393-1.002-.39-.037.006-.216.051-1.035.35a83.71 83.71 0 0 1-1.611.547 30.74 30.74 0 0 1-1.356.269 4.965 4.965 0 0 0-1.577.711c-.207.148-.38.273-.511.37a18.1 18.1 0 0 0-1.002 3.362c-1.504 7.66-2.228 11.33-2.287 11.594l-.003.015-.044.164-.711 2.685c-.375 1.492-.565 2.698-.565 3.58 0 .341.21.73.625 1.157a.188.188 0 0 1 .012.014m2.7 2.808c-.214-.003-.59-.156-1.886-1.251-1.012-.884-1.15-1.017-1.19-1.062-.546-.566-.811-1.111-.811-1.666 0-.948.198-2.218.588-3.778l.711-2.687.041-.154c.068-.312.81-4.077 2.274-11.551.259-1.297.624-2.51 1.085-3.607a.356.356 0 0 1 .11-.145c.142-.107.343-.253.6-.436a5.531 5.531 0 0 1 1.76-.799l.019-.004a30.42 30.42 0 0 0 1.332-.266 85.77 85.77 0 0 0 1.56-.535c1.01-.37 1.109-.377 1.168-.38.16-.012.468.022 1.27.443.784.412.972.58 1.058.701a.337.337 0 0 1 .045.088c.308.901.766 2.113 1.363 3.605.462 1.014 1.015 2.409 1.643 4.148.731 1.975 1.296 3.435 1.675 4.33a315.626 315.626 0 0 0 1.759 3.971c1.295 2.94 1.295 3.17 1.295 3.324 0 .34-.12.816-.69 1.15a.278.278 0 0 1-.046.022c-.546.2-1.364.55-2.428 1.041-.599.401-1.472.927-2.594 1.562a.232.232 0 0 1-.035.016c-.062.025-.267.127-.929.532-.638.375-.783.406-.885.406-.496-.001-1.1-.518-1.895-1.623-.998-1.383-1.154-1.879-1.173-2.153-.153-1.558-.462-3.309-.92-5.205-.37.117-.805.286-1.297.502.361 2.99.544 5.176.544 6.495 0 .887-.089 1.396-.287 1.645-.237.33-.698.77-1.406 1.337a2.04 2.04 0 0 1-.36.488.297.297 0 0 1-.056.046c-2.057 1.307-2.704 1.453-3.013 1.45" fill="#FFF5B0"/><path d="M52.68 64.143c0 .35-.173.626-.517.829-.559.204-1.382.558-2.468 1.062-.594.399-1.46.921-2.593 1.564-.126.05-.45.234-.971.553-.416.246-.665.368-.748.367-.394 0-.952-.5-1.672-1.498-.718-.995-1.085-1.648-1.106-1.963-.163-1.674-.5-3.536-1.008-5.584-.486.133-1.092.365-1.817.694.381 3.127.573 5.368.573 6.72 0 .772-.07 1.242-.211 1.41-.222.314-.694.758-1.415 1.333-.04.12-.15.276-.329.467-1.489.948-2.446 1.417-2.878 1.413-.216-.002-.792-.4-1.727-1.189-.737-.642-1.124-.986-1.162-1.033-.482-.497-.722-.968-.722-1.416 0-.919.192-2.145.577-3.682l.754-2.846c.058-.261.815-4.105 2.28-11.577a18.49 18.49 0 0 1 1.063-3.53c.138-.103.336-.247.594-.43a5.213 5.213 0 0 1 1.671-.755c.44-.077.891-.167 1.355-.27.281-.09.807-.27 1.578-.54.651-.237 1.019-.359 1.1-.365.205-.014.584.125 1.138.417.557.292.877.498.96.614.31.91.767 2.118 1.37 3.629.46 1.006 1.004 2.38 1.634 4.125.737 1.994 1.298 3.445 1.68 4.347.574 1.322 1.16 2.647 1.76 3.977.837 1.903 1.257 2.958 1.257 3.157" fill="#D21C5C"/><path d="M49.154 61.512l-6.435-16.349c-.571.353-1.527.697-2.861 1.033-1.324.334-2.27.697-2.846 1.09-.356 1.334-.603 2.457-.741 3.37-.257 1.68-.483 2.987-.68 3.923-.116.648-.628 3.14-1.533 7.46-.766 3.465-1.147 5.345-1.147 5.652a.61.61 0 0 0 .116.393h.35c.427 0 1.247-.369 2.464-1.11.987-.624 1.681-1.106 2.08-1.445 0-.335-.05-1.221-.15-2.657v-4.025c0-.335.607-.843 1.828-1.529 1.107-.637 1.786-.962 2.03-.97.426-.014.833.931 1.222 2.839.286 1.597.562 3.198.83 4.8.472-.248 1.37-.614 2.7-1.099 1.15-.41 2.076-.869 2.773-1.376" fill="#FFF"/><path d="M38.997 68.056a4.633 4.633 0 0 1-.509-.547c-.2-.242-.34-.363-.418-.363-.08 0-.637.317-1.665.947-.531.314-1.257.614-2.175.9.82.844 1.27 1.267 1.35 1.268.117 0 .608-.262 1.477-.79.973-.578 1.62-1.05 1.94-1.415m11.848-4.078c-.534-.837-.821-1.255-.864-1.254-.106.001-.51.193-1.208.574-.885.455-1.452.745-1.703.87-.522.13-1.23.333-2.122.611-.207.1-.414.205-.62.317a.788.788 0 0 0-.401.497c.804.947 1.32 1.421 1.55 1.42.082 0 .79-.382 2.128-1.152a361.286 361.286 0 0 1 3.24-1.883" fill="#FCB514"/><path d="M48.725 60.423l-.01-.026-.483-1.227-.051-.13-.44-1.12-.093-.234-.398-1.011-.133-.338-.356-.905-.174-.441-.314-.799-.214-.543-.273-.693-.253-.644-.232-.588-.293-.746-.19-.484-.334-.846-.15-.38-.372-.946-.109-.277L43.442 47l-.069-.175-.336-.854a5.984 5.984 0 0 1-.464.212c-.55.227-1.262.45-2.139.669-1.328.332-2.278.693-2.855 1.086-.357 1.335-.605 2.459-.743 3.373-.258 1.683-.485 2.992-.682 3.929a221.301 221.301 0 0 1-.804 3.956c-.181.873-.393 1.885-.633 3.032l-.097.46-.004.021a344.602 344.602 0 0 0-.763 3.529c-.182.878-.3 1.49-.354 1.836a1.67 1.67 0 0 0 .224-.047c.13-.036.277-.088.443-.157a10.62 10.62 0 0 0 1.109-.562c.178-.101.366-.212.566-.333l.12-.077c.433-.275.807-.522 1.122-.74.355-.247.635-.457.837-.629 0-.15-.01-.415-.03-.789-.016-.3-.039-.673-.068-1.117l-.048-.718-.003-.033v-4.025l.001-.017c.007-.115.083-.25.229-.405.119-.127.285-.267.498-.42.283-.205.65-.434 1.1-.687a41.6 41.6 0 0 1 .792-.442c.506-.27.87-.437 1.088-.5a.682.682 0 0 1 .149-.028c.088-.003.176.036.263.115.12.11.236.296.353.561a.3.3 0 0 1 .036.006c.126.027.25.138.373.332.093.149.186.347.278.594.079.213.157.463.234.75.053.194.106.405.158.634.038.167.076.343.114.529l.082.464.1.563.203 1.157.074.434c.074.43.15.86.222 1.29l.008-.003c.093-.042.193-.085.302-.131a36.146 36.146 0 0 1 1.561-.61c.126-.048.257-.096.392-.145.413-.147.796-.3 1.15-.46l.035-.015a9.092 9.092 0 0 0 1.588-.9l-.429-1.09z" fill="#F1E91D"/><path d="M35.35 59.197l7.313-13.052-.09.038-7.183 12.823-.04.19m-.73 3.493l8.822-15.69-.069-.174-8.656 15.403-.097.46m3.879-4.684l5.464-9.682-.11-.277-5.852 10.38c.119-.127.285-.267.498-.42m-4.646 8.233l3.918-6.944v-.447l.001-.017-3.766 6.68-.153.728m6.538-9.362l4.093-7.228-.15-.38-4.467 7.897c.19-.106.364-.203.524-.289M34.166 67.87l3.605-6.367v-.632l-4.048 7.156c.13-.036.277-.088.443-.157m7.462-11.522c.088-.003.176.036.262.115l3.118-5.485-.19-.484-3.339 5.882a.667.667 0 0 1 .15-.028M35.84 66.975l.12-.077 1.862-3.275-.048-.718-2.5 4.403c.179-.101.367-.212.567-.333m6.811-9.613l2.88-5.05-.23-.588-3.022 5.306c.126.027.25.138.372.332M37.92 65.53c0-.152-.01-.416-.03-.79l-.808 1.418c.356-.247.636-.457.838-.629m5.245-6.824l2.894-5.056-.272-.692-2.857 4.999c.08.213.158.463.235.75m.272 1.162l.082.465 3.068-5.342-.314-.798-2.95 5.147c.038.167.076.343.114.528m.385 2.185l3.295-5.716-.356-.905-3.142 5.464.203 1.157m.296 1.725l.008-.004 3.522-6.088-.398-1.011-3.354 5.812.222 1.29m1.709-.684l2.354-4.054-.44-1.118-3.313 5.722c.374-.158.84-.341 1.4-.55m.552-.205c.413-.147.796-.3 1.151-.46l1.184-2.031-.483-1.227-2.243 3.862.392-.144m2.773-1.376l-.429-1.089-1.16 1.99a9.092 9.092 0 0 0 1.589-.9" fill="#FCB514"/><path d="M41.415 52.507c0 .46-.102.743-.304.848-1.432.782-2.274 1.176-2.533 1.185-.419.017-.628-.275-.628-.874 0-1.342.25-2.552.747-3.633.641-.442 1.263-.667 1.868-.675.303.346.586 1.396.85 3.149" fill="#D21C5C"/><path d="M40.051 52.422a8.473 8.473 0 0 0-.332-.653 8.25 8.25 0 0 1-.33-.653c-.121.8-.181 1.368-.181 1.705.18-.08.461-.213.843-.399" fill="#FFF"/><path d="M90.587 50.674c-1.088 1.124-1.586 2.525-1.586 4.376 0 1.705.383 2.409 1.612 2.58a5.671 5.671 0 0 1-.327-1.887c0-.493.016-1.203.045-2.113.029-.88.043-1.497.043-1.884 0-.368.073-.733.213-1.072m-9.006 8.728c.367.637 1.14 1.686 2.755 3.166 1.65 1.51 2.74 2.103 3.366 2.334l.025.01c1.593.608 3.08.914 4.416.906 2.572-.015 3.918-.352 4.592-.632l.074-.03c1.155-.438 1.972-1.234 2.56-2.499.212-.62.441-1.248.682-1.87.395-1.018.791-1.798 1.212-2.381.04-.056.081-.11.125-.162.936-1.114 2.15-1.729 3.515-1.774.009-.281.013-.531.013-.749v-2.207c-.25-.243-.445-.427-.595-.564l-2.929.106c-.362.013-.818-.016-1.476-.094-.535-.064-.738-.06-.773-.059-1.922.071-3.067.224-3.732.36l-.012.368a64.354 64.354 0 0 0-.043 1.956c0 .032.035.176.19.415.078.102.325.42 1.116 1.398.626.774.761 1.86.349 2.797-.325.736-1.028 1.73-2.536 2.288-.795.295-1.746.445-2.905.46-2.373.03-4.23-.647-5.534-2.007-1.296-1.352-1.95-3.277-1.95-5.728 0-4.303 1.844-7.773 5.38-10.066l.017-.011c1.82-1.16 4.607-2.217 8.545-3.232.124-1.616.147-2.223.147-2.45 0-.183 0-.335-.002-.459-.331-.341-.857-.659-1.534-.926l-3.538.177c-2.194.166-4.327 1.33-6.52 3.542-2.007 2.05-3.486 4.4-4.409 6.995l-.007.021c-.805 2.209-1.212 4.684-1.212 7.363 0 .115.018.584.26 1.787.196.978.33 1.356.368 1.451M92.143 71.1c-1.927-.014-3.984-.45-6.11-1.29-1.495-.575-3.09-1.665-4.868-3.325-1.734-1.618-2.946-3.08-3.712-4.476a2.827 2.827 0 0 1-.043-.083c-.308-.614-.562-1.475-.823-2.79-.244-1.232-.357-2.13-.357-2.828 0-3.287.507-6.366 1.511-9.16 1.173-3.337 3.045-6.358 5.58-8.99a.173.173 0 0 0 .01-.01c3.059-3.142 6.348-4.902 9.784-5.198.064-.006.102-.009 4.133-.262.307-.02.612.018.9.111 2.343.758 4.007 1.986 4.928 3.649.018.032.036.065.052.098.3.605.316 1.126.316 2.54 0 .455-.035 1.463-.336 4.95a2.9 2.9 0 0 1-1.513 2.293l-.784.418c-.48.256-1.015.36-1.532.301-.959.23-1.805.454-2.551.67a41.05 41.05 0 0 1 2.415-.185c.411-.02.906.002 1.56.07.488.052.67.053.699.053l3.855-.19c.253-.012.505.012.748.07.788.192 1.35.575 3.57 2.758a2.65 2.65 0 0 1 .785 1.895v3.372c0 .84-.05 1.975-.151 3.465a2.81 2.81 0 0 1-2.28 2.568c-.174.032-.488.082-1.384.188a21.69 21.69 0 0 1-1.2.117c-.09.179-.212.443-.361.824-.236.6-.458 1.203-.662 1.796-.028.082-.06.163-.096.242-1.202 2.66-3.099 4.481-5.62 5.415-1.616.642-3.737.943-6.463.924" fill="#29BBAF"/><path d="M79.831 60.46c.614 1.107 1.68 2.365 3.178 3.747 1.506 1.39 2.854 2.316 4.001 2.747 1.822.706 3.549 1.065 5.132 1.064 2.333-.001 4.15-.258 5.386-.766a.346.346 0 0 1 .013-.004c1.745-.653 3.01-1.884 3.858-3.764.214-.627.447-1.264.693-1.895.326-.837.633-1.449.938-1.87l.022-.027c.52-.616 1.152-.937 1.877-.953.27-.007.705-.048 1.295-.123.343-.043.62-.08.827-.11.077-1.21.116-2.169.116-2.851v-3.16c-1.404-1.391-1.869-1.752-2.016-1.846l-3.759.157c-.241.01-.617-.015-1.147-.075a7.847 7.847 0 0 0-1.102-.066c-4.333.183-5.507.79-5.827 1.122a79.39 79.39 0 0 1-.044 1.844 66.95 66.95 0 0 0-.044 2.021c0 .526.185 1.076.55 1.636l.015.024c.05.076.305.406 1.21 1.534a.454.454 0 0 1 .058.464c-.408.932-1.555 1.402-3.492 1.437-1.8.033-3.172-.43-4.083-1.374-.908-.94-1.366-2.361-1.366-4.23 0-3.544 1.458-6.279 4.367-8.147 1.735-1.095 4.68-2.148 8.809-3.138a.425.425 0 0 1 .196 0l.162.038.403-.219c.197-2.32.298-3.793.298-4.378 0-.83-.017-1.114-.025-1.207-.56-.976-1.649-1.742-3.228-2.277-2.415.133-3.91.216-3.987.222-2.699.212-5.355 1.642-7.897 4.228-2.23 2.292-3.877 4.926-4.905 7.834-.892 2.46-1.342 5.189-1.342 8.125 0 .474.102 1.222.301 2.224.245 1.227.439 1.772.56 2.013m12.31 8.437c-1.683-.002-3.504-.383-5.412-1.127-1.238-.467-2.67-1.45-4.25-2.91-1.56-1.446-2.68-2.777-3.334-3.961l-.007-.014c-.213-.421-.421-1.154-.637-2.24-.214-1.074-.318-1.858-.318-2.398 0-3.038.467-5.87 1.39-8.424 1.07-3.028 2.781-5.773 5.101-8.165 2.693-2.746 5.53-4.27 8.44-4.504.06-.005 1.045-.062 4.084-.237a.404.404 0 0 1 .15.02c1.846.607 3.123 1.525 3.784 2.726l.01.017c.052.106.09.183.09 1.557 0 .643-.106 2.19-.325 4.725a.485.485 0 0 1-.25.382l-.78.42a.435.435 0 0 1-.306.043l-.224-.053c-3.985.953-6.814 1.955-8.454 2.986-2.67 1.708-3.955 4.116-3.955 7.376 0 1.633.38 2.853 1.13 3.627.753.778 1.928 1.156 3.5 1.124 1.319-.027 2.202-.265 2.577-.693-.884-1.107-1.037-1.315-1.083-1.395-.451-.699-.68-1.406-.68-2.102 0-.47.015-1.158.045-2.047.03-.912.044-1.556.044-1.97 0-.089.025-.176.073-.251.377-.594 1.464-1.412 6.598-1.64.296-.013.699.01 1.233.068.598.067.883.074 1.016.068l3.866-.17a.446.446 0 0 1 .124.012c.176.045.444.11 2.563 2.211.083.082.13.195.13.315v3.353c0 .774-.049 1.882-.144 3.292a.469.469 0 0 1-.378.428c-.201.038-.607.095-1.237.173-.62.078-1.086.12-1.387.126-.458.01-.85.211-1.197.616-.253.352-.528.907-.818 1.65a46.624 46.624 0 0 0-.705 1.922c-.94 2.092-2.414 3.522-4.368 4.25-1.34.546-3.262.818-5.699.814" fill="#FFF5B0"/><path d="M107.62 55.64c0 .767-.047 1.853-.142 3.258-.19.037-.593.093-1.208.17-.613.077-1.06.118-1.341.124-.594.013-1.108.278-1.543.791-.28.385-.574.974-.883 1.767-.248.634-.48 1.267-.695 1.9-.893 1.987-2.269 3.326-4.12 4.017-1.296.53-3.149.793-5.546.792-1.64-.001-3.398-.368-5.27-1.096-1.2-.45-2.577-1.396-4.127-2.829-1.539-1.422-2.622-2.706-3.259-3.857-.193-.383-.393-1.093-.6-2.13-.206-1.036-.309-1.805-.309-2.31 0-3.003.454-5.757 1.366-8.274 1.054-2.984 2.718-5.649 5.004-8.002 2.629-2.677 5.35-4.141 8.168-4.366l4.075-.23c1.755.579 2.944 1.427 3.557 2.542.03.06.046.514.046 1.362 0 .628-.107 2.189-.322 4.68l-.78.421-.32-.075c-4.102.98-6.979 2.001-8.68 3.073-2.784 1.785-4.162 4.367-4.162 7.762 0 3.518 1.666 5.243 5.04 5.178 1.738-.034 2.776-.425 3.104-1.174-.802-1.001-1.218-1.53-1.247-1.591-.414-.636-.62-1.261-.62-1.878 0-.462.014-1.139.043-2.033.03-.894.045-1.557.045-1.989.502-.79 2.57-1.266 6.25-1.425.274-.012.662.01 1.167.066.505.058.866.081 1.08.072l3.866-.165c.22.054 1.005.752 2.364 2.1v3.35z" fill="#D21C5C"/><path d="M104.741 55.536v-2.234c0-.221-.047-.513-.14-.874-.093-.36-.139-.62-.139-.779-.71.06-1.619.049-2.72-.034-1.22-.108-2.099-.151-2.642-.13-.663.027-2.28.279-4.83.751-.06.714-.103 1.874-.133 3.48.268.055.744.07 1.431.05.51-.015.764.366.764 1.142 0 3.106-1.57 4.684-4.674 4.734-2.074.033-3.91-.674-5.515-2.115-1.594-1.428-2.385-3.192-2.385-5.3 0-2.74.735-5.275 2.213-7.617 1.605-2.517 3.672-4.107 6.215-4.76a56.59 56.59 0 0 1 2.13-.648c.894-.275 1.626-.433 2.197-.471l1.084-.072v-1.005c0-.609-.06-1.534-.181-2.773-.423-.089-1.204-.12-2.34-.095-1.636.064-3.096.345-4.385.84-3.13 1.239-5.702 3.676-7.736 7.298-1.874 3.37-2.805 6.818-2.805 10.37 0 2.267.333 3.99 1 5.171 1.96 3.36 5.422 5.034 10.463 5 1.65-.011 3.008-.206 4.067-.586 1.065-.382 2.06-1.177 2.985-2.39.927-1.217 1.44-2.378 1.53-3.477.031-.753.139-1.618.322-2.595.184-.288 1.583-.58 4.224-.88" fill="#FFF"/><path d="M98.323 66.355c-.424-.215-.756-.323-.998-.322-.632.003-1.577.133-2.83.386-1.247.253-2.206.379-2.882.381-1.607.006-3.548-.322-5.813-.978.542.513 1.632.933 3.277 1.262 1.395.302 2.624.453 3.684.451 1.361-.002 3.211-.393 5.562-1.18m.684-22.99c-.456-.623-.79-1.004-1.002-1.146-.333-.195-.86-.27-1.583-.224-.929.06-2.344.471-4.236 1.23-2.107.826-3.269 1.546-3.5 2.164-.03.122-.152.303-.368.54-.217.24-.325.434-.325.585 0 .664.13 1.125.39 1.383a12.237 12.237 0 0 1 4.91-3.182c.71-.223 2.604-.67 5.714-1.35M95.21 56.939l-.85.023c.149.213.372.516.67.91l.18-.933zm10.66 1.375c-.378-.975-.691-1.459-.941-1.452-.656.018-1.699.157-3.121.415.246.34.648.834 1.205 1.483.683-.3 1.634-.448 2.856-.446" fill="#FCB514"/><path d="M104.741 53.302a3.38 3.38 0 0 0-.108-.745c-.596.014-1.294-.01-2.096-.071-1.224-.11-2.106-.156-2.652-.135-.665.025-2.288.274-4.848.742-.049.59-.087 1.484-.116 2.682.19.001.405-.001.647-.009.445-.013.695.276.752.867h.02c.511-.015.768.367.768 1.144 0 3.112-1.576 4.69-4.693 4.733-2.08.03-3.924-.683-5.535-2.13a7.812 7.812 0 0 1-1.072-1.17c-1.369-1.37-2.05-3.028-2.05-4.983 0-2.74.735-5.275 2.213-7.617 1.605-2.517 3.672-4.107 6.215-4.76a56.46 56.46 0 0 1 2.13-.648c.894-.275 1.626-.433 2.197-.471l1.084-.072v-1.005c0-.478-.038-1.153-.112-2.021-.424-.025-.97-.031-1.64-.017-1.64.06-3.106.338-4.4.832-3.141 1.235-5.722 3.671-7.764 7.296-1.881 3.372-2.815 6.825-2.815 10.381 0 2.273.334 4 1.004 5.184.204.35.424.68.66.992 2.047 2.13 5.06 3.191 9.083 3.164 1.65-.011 3.008-.206 4.067-.586 1.065-.381 2.06-1.177 2.985-2.39.927-1.218 1.44-2.378 1.53-3.477.031-.753.139-1.618.322-2.595.184-.288 1.583-.58 4.224-.88v-2.235z" fill="#F1E91D"/><path d="M80.87 56.569l3.124-4.958.043-.22-3.168 5.03c0 .049 0 .099.002.148m8.503-13.494l3.133-4.972a2.28 2.28 0 0 0-.118.033l-3.181 5.05a4.33 4.33 0 0 1 .166-.11M81.09 58.978l2.686-4.243a8.882 8.882 0 0 1-.014-.343l-2.72 4.298c.015.098.031.194.048.288m10.788-17.044l2.672-4.22-.258.031-2.708 4.28c.098-.032.195-.062.294-.09M81.645 60.863l2.576-4.051a6.618 6.618 0 0 1-.131-.374l-2.588 4.075c.045.12.093.238.143.35m12.462-19.601l2.323-3.653-.383.003-2.404 3.785.464-.135M82.51 62.273l2.53-3.963a6.956 6.956 0 0 1-.262-.387l-2.535 3.976c.086.127.175.252.267.374m13.739-21.516l1.314-2.06c-.013-.226-.03-.472-.051-.74l-1.846 2.895c.207-.042.402-.074.583-.095M83.64 63.28l2.41-3.76a7.305 7.305 0 0 1-.242-.31c-.043-.043-.083-.087-.125-.13l-2.472 3.86c.14.117.282.23.428.34m13.958-22.621v-.185l-.123.193.123-.008M84.912 64.08l2.235-3.47a9.701 9.701 0 0 1-.503-.45l-2.31 3.592c.188.115.38.225.578.328m1.408.61l2.075-3.206a8.368 8.368 0 0 1-.664-.425l-2.156 3.338c.242.105.49.203.746.292m8.716-11.596a28.41 28.41 0 0 0-.064 1.081l.788-1.212c-.233.041-.474.085-.724.131M87.86 65.116l1.948-2.997a7.626 7.626 0 0 1-.862-.348l-2.017 3.112c.3.088.611.166.93.233m1.666.256l1.899-2.908a7.73 7.73 0 0 1-1.11-.198l-1.922 2.953c.366.063.744.114 1.133.153M96.45 52.84l-1.513 2.325-.016.61c.19.001.405-.001.647-.009a.806.806 0 0 1 .215.022l2.08-3.184c-.417.066-.888.145-1.412.236m3.434-.49c-.302.012-.802.07-1.498.174l-2.275 3.478c.112.145.182.354.208.63h.02c.259-.007.452.088.58.284l2.995-4.566h-.03m-8.573 13.114l1.976-3.012a8.162 8.162 0 0 1-1.423.046l-1.903 2.912c.436.033.886.051 1.35.054m8.935-13.118l-3.2 4.875c.04.155.06.34.06.556 0 .912-.137 1.692-.408 2.342l5.072-7.697a23.179 23.179 0 0 0-1.524-.076m-7.019 13.04l2.691-4.084c-.56.56-1.319.925-2.271 1.096l-2.013 3.067a17.88 17.88 0 0 0 1.593-.08m2.152-.406l4.96-7.494c.048-.34.107-.696.177-1.068.071-.111.322-.222.752-.335l2.34-3.534a26.593 26.593 0 0 1-1.072-.062 48.42 48.42 0 0 0-.59-.05l-8.525 12.93c.731-.08 1.384-.21 1.958-.387m.3-.1c1.065-.381 2.06-1.177 2.985-2.39.928-1.218 1.44-2.378 1.53-3.477.019-.446.064-.932.136-1.457l-4.905 7.41c.087-.028.172-.056.254-.086m7.651-9.167l1.41-2.12v-.29c0-.194-.036-.443-.108-.745a15.76 15.76 0 0 1-.987-.008l-2.332 3.522c.469-.118 1.14-.238 2.017-.359m1.41-.176v-1.944l-1.41 2.12c.423-.058.892-.117 1.41-.176" fill="#FCB514"/><path d="M57.253 66.941c.032.182.062.337.09.469.12-.017.253-.038.402-.063.797-.132 1.406-.197 1.859-.198.9-.003 1.343-.058 1.536-.094.078-.123.227-.405.406-.964.113-.44.166-.676.19-.8.182-.917.862-1.61 1.694-1.723.835-.114 1.64.382 2.001 1.236.232.551.48 1.101.737 1.636l.237-.022c.489-.046.856-.07 1.122-.07a31.51 31.51 0 0 1 1.774.052c.82.042 1.197.05 1.369.05.996-.005 1.271-.234 1.274-.236a.9.9 0 0 1 .017-.015c.122-.104.55-.567.949-2.178.017-.08.027-.14.034-.183a.207.207 0 0 0-.005-.015c-.124-.43-.186-.76-.2-1.072-.236-2.923-.464-5.904-.678-8.861-.28-3.608-.597-6.505-.941-8.613a.89.89 0 0 1-.004-.025c-.216-1.418-.402-2.35-.545-2.954-.356.048-.949.177-1.916.494a.234.234 0 0 1-.013.004c-.883.281-1.272.48-1.41.56a6.844 6.844 0 0 0-.806 1.44c-.057.121-.245.567-.774 2.081-.278.797-.926 1.37-1.671 1.479-.742.109-1.454-.26-1.838-.953l-1.048-1.888-.091-.164a10.4 10.4 0 0 0-.367-.576c-1.146.151-2.537.515-4.145 1.083a23.18 23.18 0 0 0-.633.996c-.322.53-.508.86-.613 1.059.05.834.236 2.883.822 7.899l.003.029c.37 3.524.658 6.225.858 8.023l.002.017c.114 1.1.22 2.103.322 3.06m-.78 4.89c-.449-.005-1.564-.186-2.282-1.769-.267-.589-.478-1.365-.644-2.37a2.312 2.312 0 0 1-.02-.142c-.103-.973-.209-1.99-.324-3.11-.196-1.788-.48-4.464-.841-7.953-.765-6.61-.853-8.18-.853-8.788 0-.777.283-1.46 1.319-3.184.997-1.658 1.48-2.3 2.202-2.59l.03-.012c2.474-.94 4.516-1.463 6.231-1.59.952-.07 1.668.53 2.28 1.345a10.379 10.379 0 0 1 .911-1.341c.596-.717 1.568-1.261 3.258-1.82 1.08-.366 1.962-.594 2.681-.69.302-.18.724-.384 1.212-.423.493-.04 1.426.068 2.115 1.23.219.37.406.83.59 1.447.286.963.564 2.33.849 4.18.373 2.264.713 5.327 1.009 9.106v.012c.22 2.988.453 5.999.694 8.951l.023.085c.14.48.208.906.208 1.304 0 .431-.056.888-.173 1.395l-.01.04c-.544 2.194-1.348 3.711-2.455 4.638-.939.796-2.188 1.175-3.813 1.164a30.565 30.565 0 0 1-1.575-.072 29.75 29.75 0 0 0-1.568-.067c-.087 0-.307.005-.8.046-.494.042-.838.06-1.082.058-.438-.003-1.108-.124-1.772-.693-.292.335-.61.596-.957.786-.669.379-1.638.528-3.312.513-.15 0-.52.015-1.32.138-.806.124-1.382.18-1.812.175" fill="#29BBAF"/><path d="M55.695 67.228c.337 2.016.733 2.075.777 2.076.314 0 .818-.054 1.498-.163.722-.116 1.257-.173 1.634-.172 1.604.003 2.118-.16 2.281-.26l.013-.007c.431-.232.845-.94 1.195-2.051.11-.42.187-.745.232-.97a.347.347 0 0 1 .283-.287c.14-.018.273.065.333.207.247.589.51 1.177.784 1.748l.005.01c.283.639.591.963.915.963.175 0 .476-.02.895-.057.443-.04.766-.06.987-.06.424 0 .992.02 1.688.06a30.09 30.09 0 0 0 1.455.058c1.059 0 1.845-.212 2.332-.631.66-.556 1.19-1.638 1.58-3.219.064-.28.097-.53.097-.736 0-.082-.017-.236-.093-.501-.083-.286-.122-.481-.125-.629-.24-2.946-.47-5.952-.688-8.937-.287-3.68-.613-6.65-.97-8.824-.623-4.064-1.071-4.712-1.194-4.816a1.303 1.303 0 0 0-.251.132c-.244.153-.429.23-.582.24-.586.042-1.43.245-2.506.603-1.527.494-1.998.853-2.144 1.025-.437.545-.824 1.209-1.154 1.973a.17.17 0 0 1-.005.01c-.153.33-.438 1.095-.846 2.27a.361.361 0 0 1-.278.246.3.3 0 0 1-.307-.158l-1.068-1.916-.092-.164c-.762-1.269-1.049-1.395-1.094-1.408-1.487.102-3.384.58-5.626 1.415-.057.05-.299.31-1.066 1.577-.796 1.315-.905 1.652-.92 1.72.004.853.288 3.711.845 8.506.368 3.52.654 6.214.853 8.008.116 1.127.224 2.146.327 3.119m.777 2.798c-.854-.005-1.205-1.529-1.394-2.674a1429.181 1429.181 0 0 1-1.18-11.141c-.57-4.911-.848-7.721-.848-8.598 0-.21.08-.547 1.035-2.128.964-1.596 1.202-1.791 1.378-1.86 2.315-.87 4.278-1.367 5.828-1.474.302-.02.71.172 1.634 1.71l.005.009.095.17.73 1.308c.29-.814.496-1.354.629-1.641.358-.83.783-1.556 1.264-2.156l.005-.007c.353-.422 1.135-.82 2.466-1.254 1.14-.38 2.01-.59 2.657-.637 0 0 .073-.012.276-.139.243-.153.428-.23.581-.242.426-.031.744.413 1.062 1.488.256.865.52 2.183.787 3.918.36 2.196.691 5.193.98 8.905a1110.452 1110.452 0 0 0 .693 8.995c0 .017.004.116.093.422.084.29.125.529.125.729 0 .269-.04.581-.12.929-.439 1.779-1.037 2.964-1.83 3.63-.617.53-1.52.787-2.753.785-.29 0-.792-.022-1.49-.063a30.85 30.85 0 0 0-1.653-.06 11.2 11.2 0 0 0-.934.054c-.442.04-.752.058-.948.058-.595-.001-1.1-.462-1.502-1.369-.14-.292-.276-.588-.41-.886l-.015.058-.005.02c-.422 1.337-.922 2.147-1.528 2.476-.253.149-.8.343-2.581.336-.341-.001-.862.053-1.544.162-.72.114-1.239.168-1.588.167" fill="#FFF5B0"/><path d="M75.026 63.733c0 .238-.037.517-.11.836-.412 1.672-.98 2.811-1.702 3.42-.553.474-1.402.71-2.544.709-.285 0-.776-.02-1.472-.06a30.42 30.42 0 0 0-1.671-.06c-.21 0-.53.018-.96.057-.43.038-.737.057-.922.057-.462 0-.865-.39-1.21-1.168a39.571 39.571 0 0 1-.79-1.765c-.047.232-.127.567-.24 1.004-.39 1.233-.845 1.99-1.367 2.27-.34.205-1.153.304-2.434.3-.358 0-.888.055-1.59.167-.697.11-1.211.166-1.542.164-.462-.001-.824-.795-1.087-2.38-.11-1.03-.219-2.072-.328-3.127-.197-1.78-.48-4.448-.85-7.999-.566-4.861-.847-7.712-.847-8.562 0-.2.325-.838.977-1.917.654-1.081 1.059-1.654 1.213-1.714 2.292-.858 4.21-1.344 5.741-1.448.271-.018.724.501 1.36 1.561l1.165 2.086c.413-1.19.7-1.96.86-2.307.346-.8.75-1.49 1.212-2.069.3-.359 1.068-.738 2.306-1.14 1.104-.368 1.966-.576 2.583-.62.094-.008.237-.07.428-.19.19-.12.333-.183.428-.19.478-.035.98 1.667 1.509 5.112.36 2.197.686 5.152.976 8.867.217 2.982.447 5.968.69 8.956 0 .106.036.284.108.535.073.251.11.456.11.615" fill="#D21C5C"/><path d="M57.4 66.52c0-.327-.084-.84-.25-1.533-.165-.693-.26-1.19-.281-1.493a393.33 393.33 0 0 1-.793-7.396c-.088-2.466-.351-5.916-.79-10.344-.218.54-.59 1.253-1.112 2.135.065.874.228 2.232.49 4.076.349 2.422.545 3.784.59 4.084.129 1.63.355 4.065.68 7.307.198.93.431 2.351.698 4.266.511-.708.768-1.076.768-1.101" fill="#D21C5C"/><path d="M73.683 63.399v-.277c0-1.267-.325-4.78-.974-10.527-.12-1.231-.563-5.167-1.326-11.788-.476.296-1.223.57-2.238.823a80.73 80.73 0 0 0-2.387.593c.046 1.448.372 4.138.98 8.078.538 3.617.784 6.315.737 8.087v.507c-.188.187-.352.282-.492.285-.398.01-.934-.82-1.608-2.486a414.64 414.64 0 0 1-1.18-3.255c-1.654-4.407-2.987-7.656-4.006-9.766-2.267.63-3.978 1.017-5.146 1.166v.264c0 .354.077.89.23 1.612.197.897.311 1.434.344 1.608.033.175.258 2.865.676 8.077.221 2.067.576 5.171 1.066 9.318.111.05.223.074.334.074.29-.002.75-.062 1.378-.181.63-.12 1.1-.18 1.405-.183.305-.002.686-.106 1.141-.316-.114-.767-.284-1.905-.511-3.413-.046-.152-.363-1.502-.95-4.043-.385-1.648-.576-2.992-.576-4.038 0-.51.17-.772.507-.786.294-.012 1.246 1.743 2.866 5.285.965 2.14 1.923 4.293 2.875 6.455.21.05.372.075.49.074.77-.008 1.827-.2 3.174-.58 1.451-.383 2.517-.606 3.191-.667" fill="#FFF"/><path d="M65.957 65.318c0-.233-1.189-2.8-3.544-7.66v.308c0 1.256.375 2.85 1.128 4.788a824.05 824.05 0 0 0 1.861 4.582l.555-2.018zm1.255-9.933a142.001 142.001 0 0 1-1.532-11.19c-.578.81-.865 1.485-.865 2.027 0 1.418.795 4.463 2.397 9.163" fill="#FCB514"/><path d="M71.494 41.776c-.448.197-1.029.384-1.741.56-.802.185-1.6.38-2.395.59.047 1.45.374 4.144.983 8.091.54 3.625.787 6.328.74 8.101v.509c-.19.187-.353.281-.494.284-.226.005-.497-.26-.813-.796-.37-.223-.837-1.03-1.4-2.421a415.524 415.524 0 0 1-1.18-3.255c-1.467-3.912-2.682-6.91-3.649-9.01-2.161.59-3.803.954-4.935 1.097v.265c0 .353.077.891.23 1.614.198.899.313 1.436.346 1.61.033.176.259 2.87.678 8.092.21 1.96.54 4.852.992 8.679a10.59 10.59 0 0 0 1.215-.175c.63-.12 1.1-.18 1.405-.182.305-.003.686-.107 1.141-.317-.114-.767-.284-1.905-.511-3.413-.046-.152-.363-1.502-.95-4.043-.385-1.648-.576-2.992-.576-4.038 0-.51.17-.772.508-.786.108-.004.306.233.594.71.307.033 1.258 1.791 2.863 5.297a799.152 799.152 0 0 1 2.584 5.792c.072.01.135.015.188.015.771-.008 1.828-.2 3.175-.58 1.451-.383 2.517-.606 3.191-.667v-.277c0-1.267-.325-4.78-.973-10.527-.115-1.17-.52-4.783-1.216-10.82" fill="#F1E91D"/><path d="M57.658 54.548l4.782-8.086-.032-.075-4.76 8.05.01.111m.165 2.055l5.195-8.751-.075-.185-5.142 8.664.022.272m3.517-3.568l2.247-3.771-.118-.297-2.314 3.887c.05.03.112.09.185.18m6.018-10.109v.01l.007-.012-.007.002m-9.332 15.671l2.577-4.324c-.01-.158-.017-.31-.02-.458l-2.602 4.37.045.412m10.542-15.978l-1.102 1.846.06.585 1.523-2.547c-.16.038-.32.076-.48.116M58.248 60.56l2.605-4.354c-.032-.18-.062-.355-.089-.525l-2.58 4.318.064.562m3.893-6.509l2.007-3.357a82.706 82.706 0 0 0-.16-.411l-2.066 3.458c.064.08.137.183.219.31m.687 1.216l1.877-3.126-.202-.527-1.917 3.198c.076.14.157.292.242.455m-4.354 7.253l2.748-4.577-.067-.288a28.665 28.665 0 0 1-.075-.331l-2.688 4.484.082.712m11.65-20.281l-2.45 4.086.092.716 2.997-4.991a13.17 13.17 0 0 1-.64.189M58.702 64.48l2.915-4.836-.175-.749-2.84 4.723.1.862m12.832-22.36l-3.619 6.016.122.854 3.6-5.975-.103-.895m-8.059 14.44l1.78-2.953-.06-.168-.181-.48-1.822 3.027c.091.181.185.373.283.575m-4.619 9.225c.14-.009.31-.028.505-.056l2.655-4.389c-.05-.206-.119-.499-.208-.877l-2.995 4.961.043.36m5.249-7.897l1.688-2.79a259.19 259.19 0 0 1-.28-.772l-1.733 2.871.325.69m7.645-13.891l-3.576 5.924.15.992 3.546-5.862-.12-1.054m.215 1.879l-3.525 5.82c.057.4.11.787.16 1.163l3.503-5.77-.138-1.213M60.07 65.61c.338-.063.628-.11.873-.14l1.386-2.284-.169-1.126-2.158 3.564.069-.013m4.474-6.771l.18.4 1.61-2.653-.323-.885-1.654 2.73.187.407m7.634-11.08l-3.495 5.75c.059.472.111.923.158 1.354l3.492-5.73-.155-1.374m-6.839 12.85l1.607-2.637a14.656 14.656 0 0 1-.421-.914l-1.6 2.63.414.92m-3.864 4.821c.298-.003.67-.103 1.111-.303l.026-.043-.19-1.275-.986 1.621h.039m10.915-15.782l-3.497 5.733c.056.567.1 1.096.131 1.586l3.536-5.78a452.11 452.11 0 0 0-.17-1.539m-6.436 12.338l1.774-2.9c-.181-.13-.385-.395-.61-.794l-1.625 2.662.46 1.032m6.756-9.39a126.09 126.09 0 0 0-.11-1.05l-3.553 5.802c.036.668.047 1.26.034 1.771v.162l3.702-6.03-.074-.655M66.57 63.368l2.137-3.48a.393.393 0 0 1-.12.023c-.203.005-.442-.21-.717-.64l-1.808 2.954.508 1.143m.558 1.263c.047.006.09.01.128.012l5.754-9.332c-.064-.59-.132-1.21-.205-1.862l-3.724 6.063v.115a1.658 1.658 0 0 1-.154.135l-2.298 3.74.5 1.13m.188.014a8.43 8.43 0 0 0 1.433-.162l4.466-7.219c-.061-.596-.128-1.235-.202-1.914l-5.73 9.293.033.002m3.047-.544l3.044-4.902c-.056-.587-.12-1.232-.192-1.935l-4.466 7.219a19.58 19.58 0 0 0 1.614-.382m.128-.036a42.233 42.233 0 0 1 1.514-.373l1.574-2.525c-.044-.561-.101-1.217-.172-1.968l-3.044 4.902.128-.036m3.09-.656l.101-.163v-.125c0-.412-.034-1.065-.103-1.954l-1.574 2.525c.65-.146 1.175-.24 1.576-.284" fill="#FCB514"/><path d="M73.683 63.399v-.152l-.101.162a5.21 5.21 0 0 1 .101-.01" fill="#FCB514"/><path d="M19.27 69.276c.82.671 2.544.483 5.01-.56 1.346-.568 2.254-1.248 2.694-2.018.405-.71.454-1.6.151-2.72a23.278 23.278 0 0 0-.336-1.176 1.92 1.92 0 0 0-.719-.8c-.427-.278-.664-.788-.631-1.357a2.05 2.05 0 0 1 .794-1.481c.415-.318.72-.935.905-1.832.205-.98.21-1.84.013-2.559-.09-.33-.422-1.129-1.634-2.78-.006-.008-.2-.262-1.107-.824a12.227 12.227 0 0 0-.859-.523 5.41 5.41 0 0 0-1.123.012c-.399.07-.8.14-1.192.204-1.72.294-2.62.535-3.086.696a27.535 27.535 0 0 0-.327 1.817 2.17 2.17 0 0 1-.026.153 6.297 6.297 0 0 0-.098.55l.002.065c.016 1.265.023 2.197.02 2.84.054.405.094.733.12.975.006.048.009.095.01.143.042 1.655.077 3.31.104 4.92.066 2.89.117 3.844.142 4.157.064.135.209.422.523 1.003.412.751.593 1.017.65 1.095m5.855 2.6c-1.77.733-3.254 1.112-4.538 1.161-1.444.056-2.618-.317-3.493-1.106-.248-.225-.53-.602-1.176-1.792l-.004-.007c-.645-1.206-.735-1.452-.79-1.668-.066-.251-.134-.51-.231-4.91v-.01a628.213 628.213 0 0 0-.099-4.787c-.025-.23-.064-.542-.116-.93a1.627 1.627 0 0 1-.015-.243c.005-.606 0-1.525-.016-2.806-.023-.338.025-.757.159-1.411.061-.46.173-1.086.34-1.909a10.181 10.181 0 0 1 .013-.325 2.95 2.95 0 0 1 .766-1.778c.289-.316.605-.477 1.09-.709.826-.395 2.17-.752 4.244-1.123l.008-.002c.396-.068.802-.141 1.205-.217.03-.005.059-.01.088-.013a8.207 8.207 0 0 1 2.039-.011c.037.005.073.01.109.018.294.061.641.213 1.631.842.925.564 1.49 1.018 1.827 1.47 1.178 1.586 1.851 2.776 2.118 3.745.345 1.248.353 2.673.025 4.23-.21 1.011-.543 1.893-.996 2.637.18.25.334.52.463.806l.016.036c.061.148.154.402.471 1.562.564 2.062.373 3.94-.566 5.573-.893 1.554-2.436 2.792-4.572 3.676" fill="#29BBAF"/><path d="M16.44 57.287a41.759 41.759 0 0 1 .131 1.058c.041 1.647.075 3.295.103 4.898.081 3.623.142 4.36.17 4.476.011.039.088.245.646 1.28.563 1.032.772 1.298.846 1.365 1.163 1.04 3.273.934 6.296-.333 3.365-1.411 4.62-3.583 3.795-6.613-.266-.98-.359-1.257-.39-1.335a3.059 3.059 0 0 0-1.156-1.327.249.249 0 0 1-.106-.227.344.344 0 0 1 .133-.247c.753-.575 1.273-1.533 1.546-2.847.255-1.217.254-2.311-.003-3.25-.2-.733-.82-1.805-1.834-3.18-.207-.28-.682-.65-1.409-1.098-.85-.545-1.082-.637-1.139-.652a6.518 6.518 0 0 0-1.603.002c-.408.074-.819.145-1.22.213-1.85.323-3.113.642-3.76.948-.297.14-.398.199-.43.219a.537.537 0 0 0-.123.33c-.006.114-.01.238-.01.378a.35.35 0 0 1-.007.06 29.335 29.335 0 0 0-.36 1.999l-.005.025c-.144.69-.137.876-.131.917a161.505 161.505 0 0 1 .02 2.941m8.333 13.27c-3.216 1.343-5.49 1.422-6.793.255-.11-.099-.327-.361-.94-1.487-.63-1.172-.671-1.327-.689-1.393-.043-.165-.103-.839-.188-4.601a619.65 619.65 0 0 0-.101-4.877c-.027-.247-.07-.592-.129-1.026a161.586 161.586 0 0 0-.02-2.936c-.014-.132-.007-.385.14-1.09a29.58 29.58 0 0 1 .36-2.002c.001-.138.005-.26.011-.376v-.007c.023-.302.13-.558.32-.76.055-.062.133-.12.607-.345.702-.334 1.974-.66 3.9-.999.402-.068.813-.14 1.222-.215l.015-.003a7.006 7.006 0 0 1 1.74-.003c.007 0 .013.001.019.003.122.026.38.13 1.284.709.782.48 1.284.874 1.528 1.203 1.066 1.443 1.693 2.537 1.914 3.341.282 1.028.285 2.216.009 3.53-.27 1.297-.77 2.3-1.488 2.984a3.46 3.46 0 0 1 1.039 1.323l.002.006c.024.056.095.228.415 1.401.452 1.66.32 3.136-.392 4.38-.703 1.226-1.98 2.231-3.785 2.985" fill="#FFF5B0"/><path d="M28.712 54.066c.27.988.272 2.119.006 3.39-.291 1.404-.85 2.421-1.675 3.05.567.367.98.844 1.242 1.43.058.14.193.595.403 1.37.866 3.18-.477 5.52-3.986 6.988-3.133 1.311-5.306 1.402-6.545.294-.15-.136-.449-.612-.893-1.426-.411-.765-.633-1.21-.666-1.336-.056-.216-.116-1.73-.18-4.54a597.989 597.989 0 0 0-.102-4.893c-.027-.246-.07-.595-.13-1.046a165.5 165.5 0 0 0-.019-2.919c-.02-.15.025-.489.136-1.018.056-.445.178-1.118.364-2.022.001-.14.005-.272.012-.394a.877.877 0 0 1 .23-.557c.029-.034.199-.125.51-.272.673-.32 1.947-.644 3.83-.974.399-.067.807-.139 1.224-.215a6.737 6.737 0 0 1 1.682-.002c.149.032.553.258 1.213.68.754.464 1.245.848 1.47 1.152 1.037 1.405 1.663 2.493 1.874 3.26" fill="#D21C5C"/><path d="M26.956 53.695c-.208-.763-.612-1.537-1.21-2.322-.7-.937-1.388-1.43-2.064-1.478-1.358-.07-3.207.205-5.533.822-.23.09-.535.223-.914.402-.294 1.892-.35 4.202-.17 6.933.063.97.099 2.393.11 4.268.01 2.017.032 3.39.068 4.114-.002.142.075.509.231 1.103 3.378.805 5.899.869 7.527.178.215-.092.383-.193.503-.306.12-.112.205-.19.254-.23.653-.34 1.173-.976 1.557-1.91.386-.937.473-1.792.264-2.564a2.617 2.617 0 0 0-.296-.642c-.504-.887-1.407-1.35-2.704-1.391-.145-.018-.244-.126-.298-.327-.034-.127.242-.514.83-1.162.726-.813 1.242-1.554 1.547-2.223.497-1.083.596-2.172.298-3.265" fill="#FFF"/><path d="M25.745 51.373c-.366-.49-.73-.858-1.089-1.105a1.656 1.656 0 0 0-.376-.072c-1.362-.072-3.216.203-5.548.819-.23.088-.537.222-.917.402-.294 1.895-.351 4.207-.17 6.943.063.973.1 2.397.11 4.275.01 2.02.033 3.395.07 4.121-.003.125.058.425.179.902 3.113.688 5.456.71 6.996.057a1.71 1.71 0 0 0 .504-.306c.12-.113.205-.19.254-.23.653-.34 1.173-.976 1.557-1.91.385-.937.473-1.792.264-2.564a2.622 2.622 0 0 0-.296-.642 2.513 2.513 0 0 0-.737-.82 4.168 4.168 0 0 0-1.364-.253c-.138-.016-.235-.116-.29-.298a5.315 5.315 0 0 0-.313-.02c-.145-.017-.244-.126-.298-.327-.034-.127.242-.514.83-1.162.726-.814 1.242-1.554 1.547-2.223.497-1.083.596-2.172.298-3.265-.208-.763-.612-1.537-1.21-2.322" fill="#F1E91D"/><path d="M25.086 69.151c-.344-.162-.918-.185-1.721-.07-.975.128-1.716.157-2.224.09a43.716 43.716 0 0 1-3.305-.586l.056.217c.024.09.126.278.307.562.18.285.307.453.378.502.617.504 1.547.676 2.795.513.993-.113 2.034-.398 3.124-.857.233-.098.43-.221.59-.37m-7.327-5.909l4.006-12.88-.055.009-3.952 12.707.001.164m.043 2.921l4.962-15.925-.13.012-4.842 15.541.01.372m.471 1.552l5.473-17.531c-.067 0-.135.002-.204.004l-5.457 17.487.188.04m.904.176l5.506-17.604-.027-.02a1.658 1.658 0 0 0-.228-.054l-5.511 17.63.26.048m.919.144l5.342-17.046a5.467 5.467 0 0 0-.265-.286L19.76 67.988l.335.048m.937.103l5.094-16.227a8.739 8.739 0 0 0-.297-.427L20.617 68.1c.141.015.279.028.415.04m.958.047l2.397-7.621a.568.568 0 0 1-.106-.22c-.024-.089.102-.302.377-.64l2.085-6.632a6.263 6.263 0 0 0-.306-.644L21.49 68.17c.17.009.336.015.499.017m.986-.025l2.26-7.17-.053-.002c-.138-.017-.235-.117-.29-.298a5.605 5.605 0 0 0-.143-.012l-2.364 7.508c.203-.004.4-.012.59-.026m3.318-10.526l.829-2.631a4.638 4.638 0 0 0-.166-1.31l-.004-.014-1.67 5.307a10.68 10.68 0 0 0 1.01-1.352m-2.29 10.384l2.177-6.894a4.193 4.193 0 0 0-.628-.111l-2.244 7.116c.243-.027.475-.064.695-.11m.998-.306l.1-.045 1.902-6.009a2.469 2.469 0 0 0-.457-.419 3.708 3.708 0 0 0-.138-.05l-2.138 6.767c.261-.067.505-.148.732-.244m.503-.306c.12-.113.205-.19.254-.23.23-.12.443-.277.64-.47l1.219-3.847a3.643 3.643 0 0 0-.038-.157 2.622 2.622 0 0 0-.296-.642 2.712 2.712 0 0 0-.158-.246l-1.817 5.74a1.27 1.27 0 0 0 .196-.148m1.811-2.141c.328-.796.44-1.534.337-2.212l-1.111 3.503c.3-.336.559-.767.774-1.29" fill="#FCB514"/><path d="M25.113 53.619c.266.978.166 1.854-.3 2.625-.464.77-1.16 1.362-2.084 1.778-.213.095-.734.219-1.563.37-.826.15-1.313.199-1.464.147-.151-.053-.252-.178-.305-.375-.062-.233-.091-1.119-.09-2.655.002-1.536.047-2.434.134-2.696.116-.374.304-.623.566-.746.859-.4 2.133-.451 3.832-.147.38.068.741.439 1.086 1.114.042.082.105.277.188.585m-.259 9.747c.152.566.026 1.198-.377 1.892s-.845 1.143-1.326 1.349c-.356.153-1.004.147-1.943-.017-.935-.162-1.437-.38-1.508-.65-.048-.181-.137-1.402-.266-3.66a1.84 1.84 0 0 1 .11-.638c.08-.247.182-.398.304-.453.088-.039.196-.036.326.007.95-.342 1.905-.29 2.867.155.966.448 1.572 1.12 1.813 2.015" fill="#D21C5C"/><path d="M20.87 63.49c-.018-.071-.105-.215-.26-.43a5.934 5.934 0 0 1-.288-.418c-.01 1.437.025 2.31.107 2.617.024.091.198.197.525.318-.075-1.463-.102-2.158-.083-2.086" fill="#FCB514"/><path d="M23.604 64.733c-.069-.255-.284-.482-.645-.681-.36-.198-.699-.228-1.017-.089l-.345.15c-.046 1.013-.062 1.546-.047 1.6.044.164.252.246.627.247.312-.014.549-.055.709-.123.605-.261.845-.629.718-1.104" fill="#FFF"/><path d="M20.86 54.478c-.02-.071-.282-.424-.785-1.056-.013.91.028 2.35.12 4.32.264-.12.49-.192.68-.217a65.35 65.35 0 0 1-.018-1.837c.016-.752.017-1.156.002-1.21" fill="#FCB514"/><path d="M24.405 55.01c-.118-.434-.468-.69-1.049-.77a2.95 2.95 0 0 0-1.505.176c-.011.328-.043.837-.095 1.527a39.39 39.39 0 0 0-.096 1.529 3.6 3.6 0 0 1 .422-.145 3.8 3.8 0 0 0 .369-.122c.354-.16.675-.335.963-.527.15-.108.366-.363.648-.765.282-.402.397-.703.343-.903" fill="#FFF"/></g></svg>