<svg width="120" height="120" viewBox="0 0 120 120" xmlns="http://www.w3.org/2000/svg" xmlns:xlink="http://www.w3.org/1999/xlink"><defs><path id="a" d="M0 0h60v60H0z"/><path id="c" d="M.004 0H31v30.985H.004z"/><path id="e" d="M0 0h60v60H0z"/><path id="g" d="M.004.015H31V31H.004z"/><path d="M29.296 1.646L21.56 18.875a1.62 1.62 0 0 1-1.3.946L1.483 21.854c-1.388.15-1.947 1.868-.913 2.805l13.996 12.682c.426.385.615.968.497 1.529l-3.868 18.485c-.286 1.366 1.175 2.429 2.387 1.734l16.385-9.39a1.614 1.614 0 0 1 1.608 0l16.386 9.39c1.21.695 2.672-.368 2.386-1.734L46.479 38.87a1.614 1.614 0 0 1 .497-1.529l13.995-12.682c1.034-.937.475-2.655-.912-2.805l-18.775-2.033a1.617 1.617 0 0 1-1.302-.946L32.247 1.646a1.597 1.597 0 0 0-1.476-.955c-.595 0-1.19.318-1.475.955z" id="i"/><path d="M29.296 1.646L21.56 18.875a1.62 1.62 0 0 1-1.3.946L1.483 21.854c-1.388.15-1.947 1.868-.913 2.805l13.996 12.682c.426.385.615.968.497 1.529l-3.868 18.485c-.286 1.366 1.175 2.429 2.387 1.734l16.385-9.39a1.614 1.614 0 0 1 1.608 0l16.386 9.39c1.21.695 2.672-.368 2.386-1.734L46.479 38.87a1.614 1.614 0 0 1 .497-1.529l13.995-12.682c1.034-.937.475-2.655-.912-2.805l-18.775-2.033a1.617 1.617 0 0 1-1.302-.946L32.247 1.646a1.597 1.597 0 0 0-1.476-.955c-.595 0-1.19.318-1.475.955z" id="k"/><path d="M29.296 1.646L21.56 18.875a1.62 1.62 0 0 1-1.3.946L1.483 21.854c-1.388.15-1.947 1.868-.913 2.805l13.996 12.682c.426.385.615.968.497 1.529l-3.868 18.485c-.286 1.366 1.175 2.429 2.387 1.734l16.385-9.39a1.614 1.614 0 0 1 1.608 0l16.386 9.39c1.21.695 2.672-.368 2.386-1.734L46.479 38.87a1.614 1.614 0 0 1 .497-1.529l13.995-12.682c1.034-.937.475-2.655-.912-2.805l-18.775-2.033a1.617 1.617 0 0 1-1.302-.946L32.247 1.646a1.597 1.597 0 0 0-1.476-.955c-.595 0-1.19.318-1.475.955z" id="m"/><path d="M29.296 1.646L21.56 18.875a1.62 1.62 0 0 1-1.3.946L1.483 21.854c-1.388.15-1.947 1.868-.913 2.805l13.996 12.682c.426.385.615.968.497 1.529l-3.868 18.485c-.286 1.366 1.175 2.429 2.387 1.734l16.385-9.39a1.614 1.614 0 0 1 1.608 0l16.386 9.39c1.21.695 2.672-.368 2.386-1.734L46.479 38.87a1.614 1.614 0 0 1 .497-1.529l13.995-12.682c1.034-.937.475-2.655-.912-2.805l-18.775-2.033a1.617 1.617 0 0 1-1.302-.946L32.247 1.646a1.597 1.597 0 0 0-1.476-.955c-.595 0-1.19.318-1.475.955z" id="o"/><path d="M29.296 1.646L21.56 18.875a1.62 1.62 0 0 1-1.3.946L1.483 21.854c-1.388.15-1.947 1.868-.913 2.805l13.996 12.682c.426.385.615.968.497 1.529l-3.868 18.485c-.286 1.366 1.175 2.429 2.387 1.734l16.385-9.39a1.614 1.614 0 0 1 1.608 0l16.386 9.39c1.21.695 2.672-.368 2.386-1.734L46.479 38.87a1.614 1.614 0 0 1 .497-1.529l13.995-12.682c1.034-.937.475-2.655-.912-2.805l-18.775-2.033a1.617 1.617 0 0 1-1.302-.946L32.247 1.646a1.597 1.597 0 0 0-1.476-.955c-.595 0-1.19.318-1.475.955z" id="q"/><path d="M29.296 1.646L21.56 18.875a1.62 1.62 0 0 1-1.3.946L1.483 21.854c-1.388.15-1.947 1.868-.913 2.805l13.996 12.682c.426.385.615.968.497 1.529l-3.868 18.485c-.286 1.366 1.175 2.429 2.387 1.734l16.385-9.39a1.614 1.614 0 0 1 1.608 0l16.386 9.39c1.21.695 2.672-.368 2.386-1.734L46.479 38.87a1.614 1.614 0 0 1 .497-1.529l13.995-12.682c1.034-.937.475-2.655-.912-2.805l-18.775-2.033a1.617 1.617 0 0 1-1.302-.946L32.247 1.646a1.597 1.597 0 0 0-1.476-.955c-.595 0-1.19.318-1.475.955z" id="s"/><path d="M29.296 1.646L21.56 18.875a1.62 1.62 0 0 1-1.3.946L1.483 21.854c-1.388.15-1.947 1.868-.913 2.805l13.996 12.682c.426.385.615.968.497 1.529l-3.868 18.485c-.286 1.366 1.175 2.429 2.387 1.734l16.385-9.39a1.614 1.614 0 0 1 1.608 0l16.386 9.39c1.21.695 2.672-.368 2.386-1.734L46.479 38.87a1.614 1.614 0 0 1 .497-1.529l13.995-12.682c1.034-.937.475-2.655-.912-2.805l-18.775-2.033a1.617 1.617 0 0 1-1.302-.946L32.247 1.646a1.597 1.597 0 0 0-1.476-.955c-.595 0-1.19.318-1.475.955z" id="u"/></defs><g fill="none" fill-rule="evenodd"><path d="M60 60H0V8.652A8.652 8.652 0 0 1 8.651 0h51.35v60z" fill="#A0593A"/><path d="M30.995 5.688v8.401a4.038 4.038 0 0 1-4.038 4.04h-8.819v8.818a4.038 4.038 0 0 1-4.039 4.038H5.69A5.689 5.689 0 0 1 0 25.296V8.652A8.652 8.652 0 0 1 8.652 0h16.655a5.688 5.688 0 0 1 5.689 5.688" fill="#F4B30F"/><path d="M30.995 9.89v4.2a4.038 4.038 0 0 1-4.038 4.039h-8.819v8.819a4.038 4.038 0 0 1-4.039 4.038H9.89V9.89h21.105z" fill="#E29820"/><path d="M9.972 47.555a4.288 4.288 0 1 1 0-8.577 4.288 4.288 0 0 1 0 8.577m33.543-33.542a4.289 4.289 0 1 1 0-8.578 4.289 4.289 0 0 1 0 8.578" fill="#F4B30F"/><g transform="translate(60)"><mask id="b" fill="#fff"><use xlink:href="#a"/></mask><path d="M0 60h60V8.652A8.652 8.652 0 0 0 51.348 0H0v60z" fill="#A0593A" mask="url(#b)"/></g><g transform="translate(89)"><mask id="d" fill="#fff"><use xlink:href="#c"/></mask><path d="M.004 5.688v8.401a4.039 4.039 0 0 0 4.038 4.04h8.82v8.818a4.038 4.038 0 0 0 4.038 4.038h8.412A5.689 5.689 0 0 0 31 25.296V8.652A8.652 8.652 0 0 0 22.348 0H5.692A5.688 5.688 0 0 0 .004 5.688" fill="#F4B30F" mask="url(#d)"/></g><path d="M89.004 9.89v4.2a4.039 4.039 0 0 0 4.038 4.039h8.82v8.819a4.038 4.038 0 0 0 4.038 4.038h4.21V9.89H89.003z" fill="#E29820"/><path d="M110.028 47.555a4.29 4.29 0 1 0 0-8.579 4.29 4.29 0 0 0 0 8.579M76.485 14.013a4.289 4.289 0 1 0 0-8.578 4.289 4.289 0 0 0 0 8.578m-16.485 0a4.289 4.289 0 1 1 0-8.578 4.289 4.289 0 0 1 0 8.578" fill="#F4B30F"/><path d="M60 60H0v51.348A8.652 8.652 0 0 0 8.651 120h51.35V60z" fill="#A0593A"/><path d="M30.995 114.311v-8.4a4.038 4.038 0 0 0-4.038-4.04h-8.819v-8.819a4.038 4.038 0 0 0-4.039-4.038H5.69A5.689 5.689 0 0 0 0 94.704v16.644a8.652 8.652 0 0 0 8.652 8.651h16.655a5.688 5.688 0 0 0 5.689-5.688" fill="#F4B30F"/><path d="M30.995 110.11v-4.2a4.038 4.038 0 0 0-4.038-4.039h-8.819v-8.819a4.038 4.038 0 0 0-4.039-4.038H9.89v21.096h21.105z" fill="#E29820"/><path d="M9.972 72.445a4.288 4.288 0 1 0 0 8.577 4.288 4.288 0 0 0 0-8.577m33.543 33.542a4.289 4.289 0 1 0 0 8.578 4.289 4.289 0 0 0 0-8.578" fill="#F4B30F"/><g transform="translate(60 60)"><mask id="f" fill="#fff"><use xlink:href="#e"/></mask><path d="M0 0h60v51.348A8.652 8.652 0 0 1 51.348 60H0V0z" fill="#A0593A" mask="url(#f)"/></g><g transform="translate(89 89)"><mask id="h" fill="#fff"><use xlink:href="#g"/></mask><path d="M.004 25.311v-8.4a4.039 4.039 0 0 1 4.038-4.04h8.82V4.052A4.038 4.038 0 0 1 16.9.016h8.412A5.689 5.689 0 0 1 31 5.704v16.643A8.652 8.652 0 0 1 22.348 31H5.692a5.688 5.688 0 0 1-5.688-5.688" fill="#F4B30F" mask="url(#h)"/></g><path d="M89.004 110.11v-4.2a4.039 4.039 0 0 1 4.038-4.039h8.82v-8.819a4.038 4.038 0 0 1 4.038-4.038h4.21v21.096H89.003z" fill="#E29820"/><path d="M110.028 72.445a4.29 4.29 0 1 1 0 8.579 4.29 4.29 0 0 1 0-8.579m-33.543 33.542a4.289 4.289 0 1 1 0 8.578 4.289 4.289 0 0 1 0-8.578m-16.485 0a4.289 4.289 0 1 0 0 8.578 4.289 4.289 0 0 0 0-8.578M9.89 64.289a4.289 4.289 0 1 1 0-8.577 4.289 4.289 0 0 1 0 8.577m100.22 0a4.29 4.29 0 1 1 0-8.579 4.29 4.29 0 0 1 0 8.579" fill="#F4B30F"/><g transform="translate(30 30)"><mask id="j" fill="#fff"><use xlink:href="#i"/></mask><path fill="#F4B30F" mask="url(#j)" d="M30.77-1.64l9.592 21.36 23.278 2.521-17.35 15.722 4.795 22.918L30.77 49.238 10.457 60.881l4.796-22.918-17.351-15.722 23.278-2.52z"/></g><g transform="translate(30 30)"><mask id="l" fill="#fff"><use xlink:href="#k"/></mask><path fill="#E29820" mask="url(#l)" d="M30.77-1.64l-9.59 21.36 9.59 9.901z"/></g><g transform="translate(30 30)"><mask id="n" fill="#fff"><use xlink:href="#m"/></mask><path fill="#E29820" mask="url(#n)" d="M15.253 37.963l15.518-8.342-32.87-7.38z"/></g><g transform="translate(30 30)"><mask id="p" fill="#fff"><use xlink:href="#o"/></mask><path fill="#E29820" mask="url(#p)" d="M10.456 60.88L30.77 29.62v19.618z"/></g><g transform="translate(30 30)"><mask id="r" fill="#fff"><use xlink:href="#q"/></mask><path fill="#E29820" mask="url(#r)" d="M46.29 37.963L30.77 29.62l32.87-7.38z"/></g><g transform="translate(30 30)"><mask id="t" fill="#fff"><use xlink:href="#s"/></mask><path fill="#CC8217" mask="url(#t)" d="M51.085 60.88L30.771 29.62v19.618z"/></g><g transform="translate(30 30)"><mask id="v" fill="#fff"><use xlink:href="#u"/></mask><path fill="#F9BF3E" mask="url(#v)" d="M30.77 29.621l9.592-9.9 23.278 2.52z"/></g></g></svg>