<svg width="152" height="136" viewBox="0 0 152 136" xmlns="http://www.w3.org/2000/svg"><g fill="none"><path d="M138.48 47.548c.125-.708 4.316-.562 4.41-1.004.096-.442-45.928-1.717-47.674-2.234l.547 8.5c8.48.536 46.872-.503 47.228-1.301.357-.798-4.014.236-4.19-1.114-.176-1.35 4.833-1.004 5.053-1.818.221-.813-5.51-.316-5.374-1.029z" fill="#DCAA78"/><path d="M137.657 43.452c.14.733-3.062 1.742-3.553 2.61-.492.869 1.003 3.444-1.927 3.71-2.931.266-3.142-2.876-2.8-3.895.34-1.02 7.422-3.103 8.28-2.425z" fill="#BE8C64"/><path d="M83.397 53.763c3.573.035 13.495.06 13.495.06l-.683-10.542h-9.5c-2.83.055-7.372-.502-7.372 5.05 0 5.553 3.89 5.432 4.06 5.432z" fill="#008264"/><path fill="#F01446" d="M93.71 42.383h4.672v12.184H93.71z"/><path d="M97.263 95.877c-.296-1.647-2.113-5.02-5.67-4.805-3.559.216-3.122 2.51-2.921 4.724-.04.834 2.584 10.517 2.976 11.245h6.438c-.085-1.22-.758-9.91-.823-11.164z" fill="#DCAA78"/><path d="M101.303 127.413a2.702 2.702 0 0 0-.06-.347c-.231-5.738-1.265-21.33-1.375-21.963a55 55 0 0 0-10.163.07c2.394 8.073 8.702 22.867 9.134 24.283.502.396 1.897-.206 2.429-.316.296-.588.075-1.16.035-1.727z" fill="#000"/><path d="M107.867 129.581c-.808 0-1.62.07-2.424 0a26.399 26.399 0 0 0-2.79-.296c-.035 0-1.822-7.927-1.922-7.977-.1-.05-2.183 3.795-2.183 3.795s.286 4.202.311 4.358c.033.134.077.265.13.391.095.235.17.477.226.723.066.412.04.834.126 1.24.085.407.3.532.793.412a1.14 1.14 0 0 0-.08-1.506l.356-.849c.502-.12.783.201 1.069.472l.17 1.587.773.19c.038-.191.057-.386.055-.582a5.915 5.915 0 0 0-.175-.823.532.532 0 0 1 .226-.658l1.254.15c.673.628.261 1.582.768 2.31l.597.03c.206-.753-.552-1.43-.06-2.118h.943a.698.698 0 0 1 .246.793c-.13.502.086.763.557.969l.387-.221v-1.396c.532-.09 1.204.312 1.37-.502a.733.733 0 0 0-.723-.492z" fill="#000"/><path fill="#F01446" d="M98.96 118.477l-5.52-.08-1.245-2.957h6.764z"/><path d="M99.421 108.873c1.726 0 3.388 1.045 3.774 1.637a11.99 11.99 0 0 1 1.952 5.156c.502 3.338-.712 8.72-4.08 9.166-6.323.834-7.317-14.924-1.646-15.959z" fill="#00A08C"/><path d="M99.838 111.87a3.315 3.315 0 0 1 2.358 1.004 7.496 7.496 0 0 1 1.22 3.223c.321 2.089-.447 5.452-2.55 5.733-3.974.537-4.596-9.297-1.028-9.96z" fill="#008264"/><path fill="#F01446" d="M88.847 104.175h11.889v2.766H88.847zM81.35 87.096l4.14 11.547h14.172c-.763-3.514-1.621-7.731-2.439-11.547 0 0-.627-7.941-9.42-7.7-8.792.24-6.453 7.7-6.453 7.7z"/><path d="M50.983 106.067l7.111-.677c.341-.502 2.72-5.809 3.644-8.083.18-.447 1.761-5.677-3.277-6.636-5.039-.96-7.383 14.538-7.478 15.396z" fill="#DCAA78"/><path d="M52.93 87.096c-1.251 3.86-2.51 7.708-3.779 11.547H64.79l3.513-11.547s2.509-7.364-6.268-7.073c-7.232.236-9.104 7.073-9.104 7.073z" fill="#F01446"/><path d="M58.732 106.017h-8.718l-3.819 20.864s-1.861.22-2.137.22c-.839 0-1.677 0-2.51-.045a1.004 1.004 0 0 0-.973.723l.115.377.898.105.974-.16-.166 2.384c.437.336.437.336.834.125l.225-2.6 1.155.136c.068.736.068 1.477 0 2.213l.893.211c.085-.22-.07-1.29.22-2.364l1.285-.12c.05.928-.326 1.766.056 2.625h.677c.2-.864-.316-1.848.617-2.646l1.004.05c.17.869-.457 1.682.196 2.465l.456.146.377-.296a1.336 1.336 0 0 0-.035-.261c.044-.797.15-1.59.316-2.37 0 0 5.57-15.266 8.06-21.782z" fill="#000"/><path fill="#F01446" d="M50.01 118.477l5.52-.08 1.244-2.957H50.01z"/><path d="M53.839 113.688a14.969 14.969 0 0 1-1.044 4.608c-.904 2.073-3.78 6.767-6.845 4.875-1.004-.849-1.943-1.506-2.259-2.817-.391-1.576-.206-3.132.025-4.708.231-1.577 1.155-4.815 3.659-6.23 1.104-.623 4.15-1.13 5.61.055 1.185.939.924 3.499.854 4.217z" fill="#00A08C"/><path d="M52.042 114.561a9.742 9.742 0 0 1-.678 3.012c-.587 1.35-2.459 4.403-4.45 3.173-.658-.552-1.266-1.004-1.471-1.832a7.809 7.809 0 0 1 0-3.063c.155-1.049.752-3.132 2.378-4.056.718-.406 2.7-.738 3.649.035.783.588.622 2.264.572 2.731z" fill="#008264"/><path fill="#F01446" d="M48.318 104.175h11.889v2.766H48.318z"/><path d="M86.79 24.175c.893-1.536 1.856-3.575 4.06-3.012 1.67.421 2.434 2.62 2.107 4.206-.326 1.587-2.122 3.113-3.769 3.093-2.9-.05-2.664-2.124-2.398-4.287z" fill="#DCAA78"/><path d="M88.2 17.036l-14.197-2.334-8.622-1.42c-2.118-.347-2.248-.583-3.262 1.63-1.787 3.906-1.114 9.539.105 13.63.768 2.575 5.52 11.1 13.199 11.1 7.678 0 12.747-8.846 12.983-10.784a39.17 39.17 0 0 0-.206-11.822z" fill="#DCAA78"/><path d="M60.287 14.25s-3.95 1.305-5.6 3.63c-2.043 2.881-2.359 6.22-3.222 9.538-.788 3.042-2.289 5.813-5.265 7.108-2.975 1.295-6.654.402-8.2-2.67-2.77-5.493-.23-14.935 4.818-18.274 2.775-1.837 6.178-1.907 9.354-1.506a29.927 29.927 0 0 1 8.115 2.174zm1.802.276c3.01-5.592 10.368-7.36 16.802-5.969 7.989 1.722 10.714 7.32 10.077 14.137-4.366.075-26.623-7.465-26.88-8.168z" fill="#000"/><path d="M63.399 21.876s2.082 4.362 2.193 6.27c-1.08 0-4.045.753-5.435.396-1.12-.286-2.324-1.144-2.585-2.32-.236-1.063-.808-3.292-.356-4.246 1.701-3.57 6.183-.1 6.183-.1z" fill="#DCAA78"/><path d="M61.22 18.356a3.138 3.138 0 0 1-1.083-3.88c1.044-2.51 3.513-1.506 3.513-1.506l-2.43 5.386z" fill="#F01446"/><path d="M75.217 21.59c.378.678.69 1.39.934 2.128.14.607.406 1.32-.211 1.902a1.159 1.159 0 0 1-1.365.267c-.437-.176-.502-.543-.567-.964a4.856 4.856 0 0 1 .692-2.681c.152-.233.325-.452.517-.653z" fill="#BE8C64"/><path d="M77.174 29.084c-.878-.145-1.746-.341-2.634-.431-.698-.076-1.651-.427-2.319-.392-1.6.095-1.094 2.108-.381 3.012 1.59 2.008 6.614.904 7.206-1.596a11.199 11.199 0 0 0-1.872-.593zm-8.677-6.932c.447-.126.688 0 .763.236.11.366.075 1.716-.286 1.967l-.502-.175.025-2.028zM82.042 24.2c-.502-.116-.793-.954-.502-1.531.08-.166.241-.342.357-.327.115.015.29.236.316.412.13.486.068 1.003-.17 1.446zM71.468 14.024L61.06 26.574s-5.149-16.17 10.58-18.258l-.17 5.708z" fill="#000"/><path fill="#000" d="M66.3 12.88l-1.984 15.4L70.5 14.396z"/><path d="M81.159 86.594v-.03.03h15.944c-1.074-5.02-2.058-9.327-2.615-10.602l-28.605-.623c-1.877-.04-9.27.096-9.27.096s-3.387 10.743-3.512 11.13h28.058z" fill="#F01446"/><path d="M86.71 43.301H76.094l-7.638 18.072 3.78 10.332 3.838 11.36 21.253-.868C96.415 78.25 89.776 54.662 86.71 43.3z" fill="#008264"/><path d="M64.146 43.301c-3.106 11.441-9.374 34.378-10.98 40.502l22.92-.733V43.301h-11.94zM85.4 49.35c1.109 1.035 1.801 2.39 1.831 2.832a4.575 4.575 0 0 1-.627 3.012 4.085 4.085 0 0 1-5.977.813c-4.376-3.504.733-9.664 4.773-6.657z" fill="#00A08C"/><path d="M13.6 47.548c-.125-.708-4.315-.562-4.41-1.004-.096-.442 45.928-1.717 47.675-2.234l-.547 8.5c-8.482.536-46.873-.503-47.229-1.301-.356-.798 4.015.236 4.19-1.114.176-1.35-4.832-1.004-5.053-1.818-.221-.813 5.5-.316 5.375-1.029z" fill="#DCAA78"/><path d="M14.414 43.452c-.14.733 3.06 1.742 3.553 2.61.491.869-1.004 3.444 1.927 3.71 2.93.266 3.141-2.876 2.8-3.895-.341-1.02-7.422-3.103-8.28-2.425z" fill="#BE8C64"/><path d="M67.413 53.763c-3.573.035-13.494.06-13.494.06l.682-10.542h9.495c2.83.055 7.372-.502 7.372 5.05 0 5.553-3.879 5.432-4.055 5.432z" fill="#00A08C"/><path fill="#F01446" d="M53.201 42.383h4.672v12.184h-4.672z"/></g></svg>