<svg width="120" height="120" viewBox="0 0 120 120" xmlns="http://www.w3.org/2000/svg" xmlns:xlink="http://www.w3.org/1999/xlink"><defs><path id="a" d="M.363.36h47.739v119.268H.363z"/></defs><g fill="none" fill-rule="evenodd"><path fill="#700208" d="M34.164 109.715h20.003V14.064H34.164z"/><path fill="#FFF7F0" d="M36.933 24.285h2.975v-6.953h-2.975zm5.745 0h2.975v-6.953h-2.975zm5.744 0h2.976v-6.953h-2.976zM36.933 35.088h2.975v-6.953h-2.975zm5.745 0h2.975v-6.953h-2.975zm5.744 0h2.976v-6.953h-2.976zM36.933 45.89h2.975v-6.953h-2.975zm5.745 0h2.975v-6.953h-2.975zm5.744 0h2.976v-6.953h-2.976zM36.933 56.693h2.975V49.74h-2.975zm5.745 0h2.975V49.74h-2.975zm5.744 0h2.976V49.74h-2.976zM36.933 67.496h2.975v-6.953h-2.975zm5.745 0h2.975v-6.953h-2.975zm5.744 0h2.976v-6.953h-2.976zM36.933 78.3h2.975v-6.955h-2.975zm5.745 0h2.975v-6.955h-2.975zm5.744 0h2.976v-6.955h-2.976zM36.933 89.102h2.975v-6.954h-2.975zm5.745 0h2.975v-6.954h-2.975zm5.744 0h2.976v-6.954h-2.976zM36.933 99.905h2.975V92.95h-2.975zm5.745 0h2.975V92.95h-2.975zm5.744 0h2.976V92.95h-2.976z"/><path fill="#700208" d="M56.723 105.63h20.006V.373H56.723z"/><path fill="#FFF7F0" d="M59.002 11.558h2.976V4.604h-2.976zm5.745 0h2.976V4.604h-2.976zm5.745 0h2.976V4.604h-2.976zM59.002 22.36h2.976v-6.953h-2.976zm5.745 0h2.976v-6.953h-2.976zm5.745 0h2.976v-6.953h-2.976zm-11.49 10.803h2.976V26.21h-2.976zm5.745 0h2.976V26.21h-2.976zm5.745 0h2.976V26.21h-2.976zm-11.49 10.803h2.976v-6.954h-2.976zm5.745 0h2.976v-6.954h-2.976zm5.745 0h2.976v-6.954h-2.976zm-11.49 10.803h2.976v-6.954h-2.976zm5.745 0h2.976v-6.954h-2.976zm5.745 0h2.976v-6.954h-2.976zm-11.49 10.802h2.976v-6.953h-2.976zm5.745 0h2.976v-6.953h-2.976zm5.745 0h2.976v-6.953h-2.976zm-11.49 10.804h2.976V69.42h-2.976zm5.745 0h2.976V69.42h-2.976zm5.745 0h2.976V69.42h-2.976zm-11.49 10.802h2.976v-6.953h-2.976zm5.745 0h2.976v-6.953h-2.976zm5.745 0h2.976v-6.953h-2.976z"/><path fill="#530104" d="M72.452 107.126h20.412v-53.05H72.452z"/><path fill="#FFF7F0" d="M75.426 65.571h2.975v-6.953h-2.975zm5.744 0h2.976v-6.953H81.17zm5.745 0h2.976v-6.953h-2.976zM75.426 76.375h2.975V69.42h-2.975zm5.744 0h2.976V69.42H81.17zm5.745 0h2.976V69.42h-2.976zM75.426 87.177h2.975v-6.953h-2.975zm5.744 0h2.976v-6.953H81.17zm5.745 0h2.976v-6.953h-2.976zM75.426 97.98h2.975v-6.953h-2.975zm5.744 0h2.976v-6.953H81.17zm5.745 0h2.976v-6.953h-2.976z"/><path fill="#530104" d="M55.498 110.858H69.54v-36.87H55.498z"/><path fill="#FFF7F0" d="M57.77 83.7h2.976v-6.953H57.77zm5.745 0h2.976v-6.953h-2.976zm-5.745 8.879h2.976v-6.954H57.77zm5.745 0h2.976v-6.954h-2.976zm-5.745 8.877h2.976v-6.953H57.77zm5.745 0h2.976v-6.953h-2.976z"/><path fill="#530104" d="M25.65 110.858h20.416V57.81H25.65z"/><path fill="#FFF7F0" d="M28.626 69.42H31.6v-6.953h-2.975zm5.744 0h2.976v-6.953h-2.975zm5.745 0h2.976v-6.953h-2.976zM28.626 80.224H31.6V73.27h-2.975zm5.744 0h2.976V73.27h-2.975zm5.745 0h2.976V73.27h-2.976zM28.626 91.027H31.6v-6.954h-2.975zm5.744 0h2.976v-6.954h-2.975zm5.745 0h2.976v-6.954h-2.976zM28.626 101.83H31.6v-6.955h-2.975zm5.744 0h2.976v-6.955h-2.975zm5.745 0h2.976v-6.955h-2.976z"/><path fill="#303030" d="M25.93 116.171l.958 1.742 30.879-.391 38.214-.48.362-.87 9.162-21.661v-.001l-12.641 3.135-16.135 4.008-4.277 1.06-2.914.726-8.814 2.192-.232.058-.247-.058-2.478-.596-1.044-.246-1.233-.305-1.318-.32-8.105-1.945-2.971-.712-2.987-.726-2.769-.653-2.972-.726-.203-.043-2.566-.624-2.972-.712-2.971-.712L14 94.51z"/><path fill="#131313" d="M23.423 119.641h74.878v-3.47H23.423z"/><g transform="translate(57.403 .013)"><mask id="b" fill="#fff"><use xlink:href="#a"/></mask><path fill="#000" opacity=".2" mask="url(#b)" d="M38.94 116.158h1.957v3.47H.363V.36h18.962v53.704h16.136v43.57l12.641-3.136z"/></g></g></svg>