<svg width="120" height="120" viewBox="0 0 120 120" xmlns="http://www.w3.org/2000/svg"><g fill="none" fill-rule="evenodd"><path d="M81.241 109.205c-.626 6.514-6.467 11.332-12.98 10.707l-27.41-2.632c-6.514-.626-11.332-6.467-10.707-12.981l9.52-99.147c.286-2.978 2.957-5.18 5.934-4.895l40.268 3.867c2.979.286 5.18 2.956 4.895 5.934l-9.52 99.147" fill="#E7E7E7"/><path d="M35.505 48.465l4.16-43.313c.285-2.978 2.956-5.18 5.933-4.895l40.268 3.867c2.979.286 5.18 2.956 4.895 5.934L86.602 53.37c-.286 2.978-2.956 5.18-5.934 4.895L40.4 54.399c-2.978-.286-5.18-2.956-4.895-5.934" fill="#585370"/><path d="M79.783 108.016a11.134 11.134 0 0 1-3.845 7.394c1.966-4.006 2.579-13.235 1.788-11.005-.79 2.23-2.564 6.364-6.28 7.51s-11.569-1.561-17.61-1.24c-6.04.321-11.703-1.725-15.033-4.599s-2.942-10.048-3.334-7.532c-.392 2.517-2.183 8.655-1.427 11.733a52.88 52.88 0 0 1-.32.515 11.115 11.115 0 0 1-1.92-7.383l4.897-51.005a5.425 5.425 0 0 0 3.7 1.995l40.269 3.867a5.422 5.422 0 0 0 4.013-1.255l-4.898 51.005" fill="#DE4A6A"/><path d="M85.147 56.572a5.438 5.438 0 0 1-4.48 1.694L40.4 54.399a5.39 5.39 0 0 1-2.503-.897l4.477-46.623a5.03 5.03 0 0 1 5.47-4.513l37.127 3.565a5.03 5.03 0 0 1 4.513 5.471l-4.337 45.17" fill="#262039"/><path d="M36.049 95.658c.46-6.554 1.636-30.637 2.685-24.445 1.05 6.192-1.068 29.846-2.685 24.445m3.798-39.566c-.257 2.683-.738 17.526.43 11.378 1.17-6.148.965-13.105-.43-11.378m40.731 5.772c1.41 4.704-1.082 25.276-1.597 30.641-.516 5.365-3.022 15.784-1.046 11.067 1.976-4.717 4.047-22.115 4.5-30.362.454-8.247-1.52-14.867-1.857-11.346" fill="#9B3349"/><path d="M46.728 58.445c3.975.89 2.116 9.678-.83 10.41-2.947.733-4.032-10.877.83-10.41m-5.148 7.796c-.29 3.018-.778 15.153-1.068 18.171-.29 3.018-4.021 17.21-1.26 20.183 2.76 2.972 2.64 2.453 1.253-.726-1.387-3.179-.224-10.004 1.665-15.575 1.888-5.572.035-25.038-.59-22.053" fill="#E9899D"/><path d="M40.549 54.414l-.15-.015a5.435 5.435 0 0 1-1.227-.263c.855-9.727 4.543-50.97 5.579-50.87.975.093-2.742 36.882-4.202 51.148m5.173-51.791a4.972 4.972 0 0 1 2.123-.257l8.185.786c-.704 13.826-2.379 38.933-4.906 39.472-3.282.7-7.971-6.857-7.594-9.02.341-1.961 1.695-23.153 2.192-30.981" fill="#66617B"/></g></svg>