<svg width="120" height="120" viewBox="0 0 120 120" xmlns="http://www.w3.org/2000/svg" xmlns:xlink="http://www.w3.org/1999/xlink"><defs><path id="a" d="M0 89.4h119.877V.208H0z"/></defs><g fill="none" fill-rule="evenodd"><path fill="#AB9A9A" d="M28.2 89.108v15.683h90.135V90.85H46.021l-.258-1.742z"/><path fill="#CFBABA" d="M78.858 90.85H56.12v13.941h45.42V90.85z"/><path fill="#91C95C" d="M75.555 41.489H21.02V90.85h93.695V41.489z"/><path fill="#71A83D" d="M75.555 41.489H36.763l.043 15.937h77.436l.044-15.937z"/><path fill="#6E3535" d="M75.555 64.564H63.623V90.85h23.802V64.564z"/><path fill="#5D4566" d="M75.555 15.6l-32.838.29L0 41.078l31.268.003z"/><path fill="#947B7B" d="M6.58 104.791h27.247V89.107H6.579z"/><path fill="#71A83D" d="M6.579 90.85h30.183V41.49H6.58z"/><path fill="#947B7B" d="M56.12 90.85v13.941h13.594v-2.969H66.48v-3.679h-3.4v-3.486h-3.343V90.85z"/><path fill="#DECACA" d="M36.004 86.865h7.711V41.489h-7.71z"/><path fill="#E39C4B" d="M34.847 86.865h9.475l1.267 3.985H33.8zm.165-41.391h9.476l1.266-3.986H33.966z"/><g transform="translate(0 15.392)"><path d="M36.004 30.082h7.711c-2.578.995-4.716 3.344-4.927 9.89v31.5h-2.784v-41.39z" fill="#B8A5A5"/><path fill="#BD8648" d="M35.012 30.082h3.473l1.266-3.985h-5.785zm-.165 41.391h3.472l1.267 3.985H33.8z"/><mask id="b" fill="#fff"><use xlink:href="#a"/></mask><path fill="#4B3154" mask="url(#b)" d="M0 26.867h31.268v-1.18H0z"/><path fill="#DECACA" mask="url(#b)" d="M50.324 71.473h7.71V26.097h-7.71z"/><path fill="#E39C4B" mask="url(#b)" d="M49.166 71.473h9.476l1.267 3.985h-11.79zm.165-41.391h9.476l1.266-3.985H48.285z"/><path d="M50.324 30.082h7.71c-2.578.995-4.716 3.344-4.926 9.89v31.5h-2.784v-41.39z" fill="#B8A5A5" mask="url(#b)"/><path fill="#BD8648" mask="url(#b)" d="M49.331 30.082h3.473l1.266-3.985h-5.785zm-.165 41.391h3.473l1.267 3.985H48.12z"/><path fill="#DECACA" mask="url(#b)" d="M75.555 1.312v-.036l-.031.018-.031-.018v.036L32.336 26.097h86.375z"/><path fill="#C4AEAE" mask="url(#b)" d="M75.524 23.614l34.513.258L75.555 4.118v-.036l-.03.018-.032-.018v.036L41.01 23.872z"/><path fill="#835D91" mask="url(#b)" d="M119.877 26.867l-.097-1.178L75.555.244V.208l-.031.018-.031-.018v.036L31.269 25.69l-.098 1.178 1.165-.77L75.524 1.294l43.187 24.803z"/><path fill="#B8A5A5" mask="url(#b)" d="M81.072 86.43H69.714v2.97h41.474v-2.97zm0-7.165H63.081v3.487h41.474v-3.487z"/><path fill="#CFBABA" mask="url(#b)" d="M84.482 82.752H66.491v3.486h41.473v-3.486z"/><path fill="#DECACA" mask="url(#b)" d="M107.498 71.473h7.71V26.097h-7.71z"/><path fill="#E39C4B" mask="url(#b)" d="M106.34 71.473h9.476l1.266 3.985h-11.788zm.165-41.391h9.476l1.266-3.985H105.46z"/><path d="M107.498 30.082h7.71c-2.578.995-4.716 3.344-4.926 9.89v31.5h-2.784v-41.39z" fill="#B8A5A5" mask="url(#b)"/><path fill="#BD8648" mask="url(#b)" d="M106.505 30.082h3.473l1.266-3.985h-5.785zm-.165 41.391h3.473l1.266 3.985h-5.785z"/><path fill="#DECACA" mask="url(#b)" d="M93.178 71.473h7.711V26.097h-7.71z"/><path fill="#E39C4B" mask="url(#b)" d="M92.02 71.473h9.476l1.267 3.985H90.974zm.165-41.391h9.477l1.266-3.985H91.14z"/><path d="M93.178 30.082h7.711c-2.578.995-4.716 3.344-4.927 9.89v31.5h-2.784v-41.39z" fill="#B8A5A5" mask="url(#b)"/><path fill="#BD8648" mask="url(#b)" d="M92.185 30.082h3.474l1.265-3.985H91.14zm-.165 41.391h3.473l1.267 3.985h-5.786z"/><path fill="#873939" mask="url(#b)" d="M79.691 73.477h5.451V61.295h-5.45zm0-13.997h5.451v-8.427h-5.45z"/><path fill="#5C2727" mask="url(#b)" d="M78.652 75.458h.335V49.172h-.335z"/><path d="M50.602 21.702l-.52-.71 8.434-4.583c.217 1.858 1.288 4.09 2.66 5.1l-10.574.193zm24.922-.307c.106.03.069.054 0 .072-.07-.018-.106-.042 0-.072m0-11.778c-.106-.03-.07-.054 0-.072.069.018.106.042 0 .072m6.415 5.89c0-3.256-3.209-5.9-6.275-5.995.016-.006-.005-.009-.109-.009l-.03.002-.032-.002c-.105 0-.125.003-.11.009-3.066.096-6.274 2.74-6.274 5.994 0 3.255 3.208 5.898 6.275 5.994-.016.006.004.009.109.009l.031-.002.031.002c.104 0 .125-.003.109-.009 3.066-.096 6.275-2.74 6.275-5.994m18.507 6.196l.52-.71-8.434-4.583c-.217 1.858-1.288 4.09-2.66 5.1l10.574.193z" fill="#DECACA" mask="url(#b)"/><path fill="#873939" mask="url(#b)" d="M65.905 73.477h5.451V61.295h-5.45zm0-13.997h5.451v-8.427h-5.45zm9.65 1.816H73.18v12.182h4.689V61.296zm0-10.243H73.18v8.427h4.689v-8.427z"/><path fill="#5C2727" mask="url(#b)" d="M72.06 75.458h.336V49.172h-.335z"/></g></g></svg>