<svg width="176" height="172" viewBox="0 0 176 172" xmlns="http://www.w3.org/2000/svg"><g fill="none"><path d="M72.802 71.836c.26-3.88 1.624-7.564 2.404-11.38.845-4.46.65-8.857.91-13.318.26-5.496 1.17-8.922 4.093-16.875 2.924-7.953 7.667-14.354 17.283-16.616 5.003-1.164 11.956-.518 15.92 2.844 8.77 7.5 10.525 19.074 5.977 28.578-2.34 4.914-7.927 11.12-9.811 16.228-.975 2.522-1.95 9.181-4.224 10.927 0 0-2.664 4.203-15.918 4.203-13.255 0-16.634-4.59-16.634-4.59z" fill="#DC6629"/><path d="M82.028 46.233c-3.703 1.034-6.367-6.789-1.234-7.694 3.509-.647 4.418 2.392 4.158 4.267-.26 2.392-2.924 3.427-2.924 3.427z" fill="#D25D24"/><path d="M82.028 46.233c-3.248.905-5.847-5.431-1.364-6.336 2.924-.582 3.898 2.262 3.704 3.879-.13 1.616-2.34 2.457-2.34 2.457z" fill="#F2B9A0"/><path d="M82.288 42.806c-.714.194-1.364-.905-.91-1.487-1.364.453-.39 2.78.78 2.457 0 0 .78-.453.845-1.1v-.517c-.195.453-.715.647-.715.647z" fill="#C95320"/><path d="M104.055 39.056c4.873-.711 6.887 5.431 1.95 7.63-4.81 2.198-6.823-6.919-1.95-7.63z" fill="#D25D24"/><path d="M104.315 40.155c2.859-.582 6.562 4.332 1.69 6.53-4.81 2.199-6.044-5.625-1.69-6.53z" fill="#F2B9A0"/><path d="M106.069 42.612c-.065.453-.65.647-.65.647-.65.194-1.17-.647-1.04-1.229-1.169.582-.26 2.586.845 2.263 0 0 .845-.323.91-.905 0-.259 0-.582-.065-.776z" fill="#C95320"/><path d="M88.526 53.733c1.234 2.91 6.432 2.004 7.862-.259.39-.582-.52-1.099-.91-.517-1.04 1.68-5.133 2.327-6.042.259-.26-.582-1.17-.065-.91.517z" fill="#C34A17"/><path d="M89.24 100.155V94.79c2.924-.259 1.885-2.005 1.755-3.104-.13-1.034.39-2.974-1.82-2.327-.064-1.746-.13-3.556-.194-5.237v-.776c2.469.13 1.624-1.746 1.56-2.974 0-1.164.779-2.522-1.235-2.651.13-1.487.13-2.974 0-4.461-1.755-5.755-6.433-6.272-9.162-.259-1.69 3.815.585 11.38-.26 16.422-1.949 11.509-.065 19.914-1.04 31.552-.584 6.983-5.912 16.164-6.562 23.082-.195 2.392.195 4.526.91 6.789.52 1.68 4.808 10.086 6.237 9.957.975-.13.26-4.203-.26-7.436.845-.194 1.17-.129 1.235-1.034 0-.905-.13-2.392-.325-2.91-.13-.452-.844-.323-1.364-.129.13-1.68.91-3.944 1.69-6.142.974 0 1.364-.194 1.753-1.81.325-1.164 1.04-1.164.39-2.263-.13-.194-.325-.324-.52-.518.065-.323.195-.582.26-.84.715-2.716 1.365-4.785 2.015-6.466 2.144.582 1.949-.776 2.534-2.069.714-1.487 1.689-2.198-.585-3.103.65-1.875 1.234-3.88 1.69-6.983 2.533.259 2.143-2.004 2.273-3.168.13-1.164.845-3.103-1.624-3.362.13-1.875.26-3.75.39-5.69.844-.129 1.884-.452 2.079-.97.13-.387-.195-1.099-.26-2.456 0-1.229.195-3.427-1.56-3.298z" fill="#C44D16"/><path d="M85.277 71.448c-.39-2.715-3.184-5.625-4.353-8.017-.585 2.004-1.365 3.815-2.274 5.56-1.69-.84-1.755.712-2.404 1.617-.65.97-2.21 2.004-.715 3.103-1.754 2.134-3.769 4.073-6.108 5.948-1.104-2.068-2.144-.323-2.988.26-.78.581-2.534 1.034-1.365 2.909-2.144 1.422-4.418 2.327-6.692 3.362-.78-1.81-2.664-.388-3.769.258-1.17.711-1.95.84-2.209 1.164-.26.323-.195 1.035.065 1.746-.13.13-.325.194-.455.323-1.95 1.422-3.703 3.168-5.263 5.172-1.69-1.034-2.469.647-3.184 1.552-.714.97-2.599 2.392-.454 3.944l.714-.905c-.91 1.875-1.624 3.88-2.014 5.819a28.063 28.063 0 0 0-.39 3.168c-1.754 0-1.3 1.035-1.3 2.522-.064 1.487-.844 2.586 1.495 2.974.325 2.91 1.04 5.754 1.884 8.599-.39.13-.714.323-.91.582-.844 1.034-.064 1.099.066 2.327.26 2.07.715 2.005 2.339 2.134.13.517.325 1.1.455 1.616.844 2.91 1.624 4.656 2.274 6.724-.455-.064-1.495 0-1.56.518-.065.582.26 2.069.52 2.91.325 1.034.715.646 1.82.646 0 .258.064.517.064.84.325 5.043-3.703 9.763-.714 8.405 2.989-1.293 4.158-3.362 4.808-6.4.715-3.298.715-6.66.325-9.375-.715-5.431-2.34-9.634-2.794-15.065-.65-8.729 1.17-16.81 7.862-22.694 6.757-5.948 17.283-9.504 23.586-16.035 1.884-2.133 4.028-5.56 3.638-8.21zm47.886 63.039c-.454-1.1.195-1.552-1.04-2.069-.259-.13-.584-.13-.909-.065-.585-2.392-1.56-4.72-2.794-6.982 2.015-1.423.78-2.07.065-3.362-.844-1.487-.78-2.78-2.989-1.293-1.559-2.134-3.248-4.138-5.003-5.884 1.69-1.875-.39-2.91-1.234-3.685-.845-.776-2.014-2.393-3.574-.712-1.754-1.551-3.638-3.168-5.328-4.784.52-.711 1.17-1.81.845-2.328-.195-.388-.975-.646-1.95-1.551-.844-.776-2.338-2.457-3.443-1.164-.325-.388-.585-.84-.845-1.229-1.299-2.004-2.079-4.202-2.534-6.53 2.34-.065 1.625-1.81 1.69-2.845 0-1.099.974-3.168-2.08-2.457v.13c0-1.229.066-2.393.196-3.621.13-1.746.584-3.556 1.104-5.237 2.34 1.1 2.21-1.035 2.6-2.198.389-1.164 1.753-2.199-.456-3.04.39-.84.78-1.615 1.17-2.391.974-1.875-.39-4.785-1.56-7.177-1.17-2.392-3.378-3.685-4.808-2.65-2.664 1.939-5.198 10.28-5.977 13.189-2.534 9.31-3.054 18.75 2.209 27.607 5.977 10.022 19.752 16.1 26.185 25.54 3.248 4.784 4.938 8.275 4.223 13.9-.325 2.651-4.873 9.504-4.353 11.315.52 1.81 3.768-2.78 5.003-4.073.26-.324.584-.647.844-1.035.78.259 1.04.582 1.56-.259.52-.775 1.17-2.069 1.3-2.65.064-.388-.39-.647-.845-.776.844-2.07 1.364-4.268 1.429-6.466 1.56-1.034 2.144-1.099 1.3-3.168z" fill="#DA6629"/><path d="M120.104 102.612c-6.693 1.81-9.747 9.569-14.165 5.108-2.534-2.651 0-29.936 0-29.936-2.924-8.21-13.19-6.465-13.19-6.465-3.378 9.44-1.949 23.6-1.754 34.59.13 7.565 8.447 17.07 15.724 14.483 4.613-1.616 6.172-3.233 7.407-4.849.13.453.455.517 1.04.259.714-.324 1.624-1.487 1.104-2.199a.591.591 0 0 0-.455-.194c1.17-1.293 2.924-2.65 6.563-4.137.454-.194.844-.324 1.234-.518.065.194.26.324.65.324.65.064 1.82-.388 1.69-1.164 0-.065 0-.065-.066-.13 4.224-1.616 2.144-.387 4.678 1.294 5.328 3.426 4.744-10.54-10.46-6.466z" fill="#D15A22"/><path d="M100.416 137.332c-.455-3.104-1.104-6.724-3.248-9.375-2.275-2.91-5.133-6.336-7.862-8.729-2.73-2.392-6.563-5.043-7.667-8.793-1.43-4.849.454-10.086 2.209-14.418 1.17-2.715 5.133-9.375 7.927-14.353 2.534-4.526 7.732-9.375 5.587-8.017l-6.692-3.04c-1.04.647-1.82 1.94-4.158 4.72-1.95-1.551-2.144.13-2.924 1.1-.78.905-2.6 1.875-.845 3.232-1.56 1.875-2.924 4.138-4.093 6.53-1.495-.905-1.755.841-2.21 1.682-.52.905-2.079 2.004.066 3.362-.975 2.521-1.69 4.978-2.21 6.983-2.599-.647-2.209 1.94-2.144 3.297.065 1.358-.195 2.069-.065 2.521.13.388.78.582 1.43.776.13 2.78.78 5.431 1.819 8.018-1.105 1.034-.065 2.327.39 3.232.455.97.91 2.974 2.794 2.393 1.624 2.198 3.703 3.879 5.912 5.495-.584.97.39 1.358 1.365 2.263 1.04.905 1.364 2.198 2.989 1.035 1.754 1.422 3.378 3.038 4.548 5.107a.781.781 0 0 0-.325.324c-.78 1.034 0 1.099.195 2.327.325 1.875.78 1.94 2.08 1.94.714 2.974 0 5.496-1.17 9.698-.52 1.746-.195 5.173 1.754 4.461 0 0 3.574-1.616 4.418-6.4.585-3.556.585-4.009.13-7.371z" fill="#D15A22"/><path d="M92.62 58c-1.04 1.94-4.224 4.073-6.238 5.043-1.105-2.392-2.014-.905-3.184-.388-1.105.517-3.119.582-2.144 2.457-2.08.647-4.159 1.1-6.303 1.552-.26-1.875-1.819-.776-2.794-.582-.91.194-2.534-.065-2.534 1.68-2.209.454-4.483.906-6.757 1.488-.13-2.392-2.469-1.358-3.704-.97-1.3.388-2.079.323-2.404.582-.454.323-.39 1.358-.26 2.198a58.428 58.428 0 0 0-5.392 2.134c-.585.259-1.105.582-1.69.905-1.234-1.616-2.599-.258-3.508.388-.975.647-3.12 1.358-1.82 3.362l-3.898 3.298c-.715.646-1.43 1.228-2.08 1.94-1.754-1.294-1.884-.13-2.793 1.228-.78 1.099-1.95 1.68-.715 2.974-1.494 2.004-2.794 4.138-4.028 6.271-.39-.129-.78-.258-1.105-.194-1.3.194-.78.776-1.494 1.81-1.04 1.552-.845 1.876.065 2.78-1.56 2.716-3.184 5.367-5.133 7.889-1.82 2.327 2.858 3.944 4.873 2.263 5.458-4.526 7.797-11.961 11.825-17.586 4.418-6.143 9.161-10.41 16.829-12.156 5.522-1.293 11.37-.582 17.023-.71 8.706-.195 22.936-10.475 22.936-10.475C98.467 61.233 92.619 58 92.619 58z" fill="#DC6629"/><path d="M129.33 68.991c-1.04-4.46-2.924-10.15-3.054-14.741-.065-2.263 2.924-5.108 2.21-7.177-.715-2.069-5.524.194-6.563 3.298-1.495 4.332-1.235 10.991-1.04 13.06.455 6.336.975 13.384-.455 19.655-.454 2.07-2.014 5.82-4.743 4.72-7.862-3.168-7.732-21.465-4.808-29.224 0 0-2.014-1.035-8.057-1.81-6.042-.776-11.825 2.262-12.995 4.202 0 0 5.848 18.104 5.978 18.62-.13.195-.26.518-.195.97.13 1.811.455 3.557 1.82 3.75 1.104 2.458 3.443 5.044 5.262 7.5-.26.26-.26.712 0 1.294.845 1.745 1.82 3.491 3.314 2.91.065 0 .13-.065.13-.065 1.69 1.745 3.509 2.392 5.393 3.491 10.136 5.884 17.283-5.754 18.583-13.707.974-5.69.454-11.12-.78-16.746z" fill="#DC6629"/><path d="M126.796 57.224c.26-1.034-.195-3.103-1.17-3.815 0 0-.26-.064-.584-.064-1.69-.065-1.43 4.461 0 5.108.454.194.91.129 1.234.129.39-.13.325-.582.52-1.358z" fill="#E58961"/><path d="M127.316 57.224c.325-1.293-.26-3.88-1.95-3.88-1.689-.064-1.169 4.268 0 4.85 1.17.647 1.625.323 1.95-.97z" fill="#ED996D"/><path d="M126.666 56.642c.195-.711-.13-2.133-1.04-2.133s-.65 2.327 0 2.65c.65.324.845.194 1.04-.517z" fill="#DC6629"/><path d="M129.395 69.444c.455-1.164.325-3.491-1.04-4.009 0 0-.39-.064-.52-.064-1.689-.194-1.624 4.202-.52 4.913.39.26 1.365.324 1.365.324.455.064.39-.388.715-1.164z" fill="#E58961"/><path d="M129.85 69.509c.455-1.229.13-3.88-1.495-4.074-1.689-.194-1.624 4.138-.52 4.85 1.105.775 1.56.452 2.015-.776z" fill="#ED996D"/><path d="M129.265 68.862c.26-.711.065-2.134-.845-2.198-.91-.13-.91 2.263-.325 2.65.585.389.91.26 1.17-.452z" fill="#DC6629"/><path d="M130.435 82.828c.714-1.035 1.04-3.427-.065-4.268-.13-.064-.325-.064-.52-.064-1.69-.259-2.47 3.62-1.625 4.59.455.453.975.711 1.3.647.39 0 .52-.324.91-.905z" fill="#E58961"/><path d="M130.76 82.892c.78-1.099 1.104-3.685-.455-4.267-1.56-.582-2.664 3.62-1.755 4.59.91.906 1.43.776 2.21-.323z" fill="#ED996D"/><path d="M130.37 82.116c.39-.582.584-2.004-.26-2.327-.845-.323-1.43 2.004-.975 2.521.52.453.78.388 1.235-.194z" fill="#DC6629"/><path d="M125.821 96.017c.975-.776 2.08-3.039 1.3-4.138a.358.358 0 0 0-.325-.194c-1.365-.646-3.639 2.78-3.119 3.944.195.518.715.905 1.04 1.035.325.13.52-.194 1.104-.647z" fill="#E58961"/><path d="M126.146 96.082c1.105-.84 2.274-3.233.975-4.203-1.3-1.034-3.704 2.651-3.119 3.815.52 1.228 1.105 1.228 2.144.388z" fill="#ED996D"/><path d="M126.016 95.241c.585-.452 1.235-1.745.52-2.327-.715-.582-2.014 1.487-1.754 2.133.26.647.65.647 1.234.194z" fill="#DC6629"/><path d="M113.346 100.931c1.235.647 3.964.776 4.483-.776.455-1.552-4.028-2.198-4.938-1.293-.584.517-.844 1.1-.584 1.487.13.259.52.323 1.04.582z" fill="#E58961"/><path d="M113.281 101.254c1.235.647 3.964.776 4.483-.776.455-1.551-4.028-2.198-4.938-1.293-.974.906-.78 1.423.455 2.07z" fill="#ED996D"/><path d="M114.06 100.802c.65.323 2.21.388 2.47-.388.26-.84-2.21-1.229-2.729-.711-.52.517-.39.71.26 1.099z" fill="#DC6629"/><path d="M124.717 40.155c.91-3.362-.39-10.733.65-15.194.844-3.556 3.118-7.694 6.627-9.245 3.574-1.552 6.822.323 8.382 3.49 3.183 6.337-1.235 11.833-5.718 16.1-2.274 2.134-4.029 4.461-5.653 7.112-2.144 3.491-3.119 7.435-4.613 11.185-1.17 2.975-1.95 6.79-3.639 9.505-.65 1.034-2.339 2.198-3.183.776-.715-1.229.324-4.656.65-5.949.649-2.521 1.624-4.72 2.923-6.982 1.17-2.263 2.664-7.436 3.574-10.798z" fill="#ECC985"/><path d="M136.152 33.819c1.56-1.616 2.99-3.362 3.964-5.237-3.509-3.362-9.811-4.073-14.814-3.427-.39 1.681-.39 3.815-.39 5.948.584.065 1.04.194 1.364.194 2.859.453 5.783 1.164 8.512 1.94.52.194.974.388 1.364.582z" fill="#F8F8F8"/><path d="M141.35 22.181c-3.638-2.586-9.356-3.039-13.84-2.392-1.039 1.616-1.754 3.491-2.208 5.172-.065.13-.065.323-.13.517 1.429.065 2.793.324 3.508.453 2.86.453 5.783 1.164 8.512 1.94.974.323 1.754.71 2.534 1.228 1.3-2.133 2.014-4.461 1.624-6.918z" fill="#FBDF00"/><path d="M129.005 45.522c-1.17-3.363-3.054-2.975-4.223-1.423-1.43 1.875-1.365 5.302 1.819 5.496 3.184.194 2.404-4.073 2.404-4.073z" fill="#DC6629"/><g transform="translate(45.838 117.095)"><path d="M25.925 20.754c13.385 0 24.235 5.302 24.235 11.897 0 6.595-10.85 11.896-24.235 11.896S1.689 39.246 1.689 32.651c-.065-6.595 10.786-11.897 24.236-11.897zm0-1.293C11.63 19.461.39 25.216.39 32.651c0 7.37 11.24 13.19 25.535 13.19 14.294 0 25.535-5.755 25.535-13.19-.065-7.37-11.24-13.19-25.535-13.19z" fill="#FBDF00"/><path d="M25.925 1.422c-13.385 0-24.236 5.173-24.236 11.509v20.366c0 6.337 10.851 11.509 24.236 11.509S50.16 39.634 50.16 33.297V12.931c0-6.4-10.85-11.509-24.235-11.509z" fill="#B4E4FC"/><path fill="#FBDF00" d="M10.85 43.125l-2.273-.84V22.822h2.274zm32.943-1.422l-2.274 1.228V23.47l2.274-1.229z"/><ellipse fill="#FFF" cx="25.925" cy="13.448" rx="24.236" ry="11.897"/><path d="M25.925 1.552c13.385 0 24.235 5.301 24.235 11.896 0 6.595-10.85 11.897-24.235 11.897S1.689 20.043 1.689 13.448C1.624 6.853 12.475 1.552 25.925 1.552zm0-1.293C11.63.259.39 6.013.39 13.449c0 7.37 11.24 13.189 25.535 13.189 14.294 0 25.535-5.754 25.535-13.19C51.395 6.078 40.22.258 25.925.258z" fill="#FBDF00"/></g><path d="M47.007 135.65c.39 2.781-2.924 5.755-.65 8.988.585.905 3.964 3.233 5.198 1.616.585-.84-1.3-4.46-1.754-5.56l-2.794-5.043z" fill="#DC6629"/><path d="M96.648 138.948c.844 4.268-4.224 6.595-4.289 10.41 0 1.487 1.17 2.198 2.534 2.004 2.21-.323 3.834-2.521 4.614-4.396l-2.86-8.018z" fill="#D15A22"/><path d="M137.322 98.216c-1.82 1.616-3.964 2.974-5.978 4.396a356.687 356.687 0 0 1-11.5 7.759c-8.252 5.495-16.569 10.926-25.21 15.84-1.495.84-3.054 1.681-4.614 2.457-.065 0-.065 0-.13.065-.325-.259-.78-.453-1.3-.517-1.299-.13-2.468.84-2.598 2.198-.13 1.293.845 2.457 2.209 2.586 1.3.13 2.47-.84 2.599-2.198v-.065c.78-.388 1.43-.776 1.884-1.034 3.899-2.005 7.732-4.332 11.436-6.66 9.031-5.625 17.998-11.444 26.77-17.521 2.663-1.81 5.457-3.556 7.861-5.69 1.105-1.035-.39-2.522-1.43-1.616zm-68.743 29.612c-.52-1.294-1.885-1.875-3.12-1.423 0 0-.064 0-.064.065-.715-.517-1.365-.97-1.754-1.293-3.574-2.716-7.343-5.108-11.046-7.565-9.161-5.884-18.453-11.509-27.874-16.94-2.794-1.616-5.653-3.426-8.642-4.72-1.234-.517-2.339 1.294-1.104 1.876 2.339.97 4.483 2.327 6.692 3.62a463.346 463.346 0 0 1 12.215 7.177c8.772 5.237 17.543 10.539 25.86 16.358 1.43 1.034 2.859 2.004 4.223 3.168.065 0 .065.065.13.065-.065.452-.065.905.13 1.357.52 1.293 1.885 1.875 3.12 1.423 1.169-.453 1.753-1.875 1.234-3.168z" fill="#ECC985"/><path d="M129.915 107.461c.39-1.745 2.274-4.59 3.963-4.138 1.625.453 2.08 4.461-.52 5.884-2.599 1.358-3.443-1.746-3.443-1.746z" fill="#D15A22"/><path d="M96.128 67.181s-10.85-3.62-16.374.453c0 0-9.486 24.375-13.125 23.663-6.172-1.293-.714-22.629-2.728-29.224-4.614-14.935-13.32-15-11.76-10.021 1.558 5.043 5.197 1.81 6.886 11.25 2.015 10.926-6.562 20.883-4.158 31.422 1.69 7.5 9.876 11.638 16.309 7.694 1.754-1.034 3.378-2.521 4.873-4.202.065.129.195.193.325.258 1.559.582 2.469-1.228 3.313-3.103.325-.776.195-1.293-.26-1.552a83.036 83.036 0 0 0 3.769-6.207c.91-.582 1.624-2.004 1.82-2.974 0-.13.064-.259.064-.388.065.065 7.277-9.052 11.046-17.069z" fill="#DC6629"/><path d="M58.248 62.138c-.585-.776-.975-2.522-.455-3.427l.39-.258c1.3-.582 2.599 3.103 1.819 4.073-.26.323-.65.452-.91.517-.324.13-.454-.323-.844-.905z" fill="#E58961"/><path d="M57.858 62.397c-.715-.906-1.105-3.169.13-3.75 1.3-.582 2.404 3.038 1.69 3.879-.716.84-1.105.776-1.82-.13z" fill="#ED996D"/><path d="M58.183 61.685c-.39-.517-.65-1.745.065-2.069.714-.323 1.3 1.681.974 2.134-.39.517-.65.453-1.04-.065z" fill="#DC6629"/><path d="M57.078 73.453c-.195-1.229.455-3.621 1.884-3.88 0 0 .39.065.52.065 1.69.13.715 4.655-.52 5.172-.454.194-1.429.065-1.429.065-.455-.13-.325-.582-.455-1.422z" fill="#E58961"/><path d="M56.623 73.388c-.195-1.358.715-4.009 2.404-3.88 1.69.13.715 4.526-.52 5.108-1.299.518-1.754.194-1.884-1.228z" fill="#ED996D"/><path d="M57.338 72.87c-.13-.775.39-2.198 1.3-2.133.91.065.39 2.522-.325 2.78-.65.324-.91.13-.975-.646z" fill="#DC6629"/><path d="M54.09 85.996c-.196-1.229.52-3.686 1.949-4.009.13 0 .324.065.52.13 1.624.452.65 4.525-.585 5.042-.585.26-1.235.26-1.495.065-.26-.13-.26-.517-.39-1.228z" fill="#E58961"/><path d="M53.764 85.931c-.194-1.358.65-4.009 2.275-3.944 1.689.065.844 4.526-.39 5.108-1.235.582-1.69.194-1.885-1.164z" fill="#ED996D"/><path d="M54.48 85.35c-.13-.777.324-2.2 1.234-2.134.91.064.455 2.521-.195 2.78-.65.323-.91.129-1.04-.647z" fill="#DC6629"/><path d="M56.493 99.38c-.974-.841-1.949-3.233-1.104-4.397.065-.13.26-.13.39-.194 1.364-.647 3.508 3.103 2.924 4.267-.26.517-.78.905-1.04 1.035-.455.129-.585-.194-1.17-.712z" fill="#E58961"/><path d="M56.169 99.444c-1.04-.905-2.08-3.491-.78-4.461 1.364-1.035 3.573 2.974 2.989 4.138-.585 1.163-1.17 1.228-2.21.323z" fill="#ED996D"/><path d="M56.363 98.603c-.584-.517-1.17-1.875-.454-2.456.714-.582 1.949 1.616 1.624 2.262-.26.647-.585.647-1.17.194z" fill="#DC6629"/><path d="M69.878 104.164c-1.234.646-4.028.646-4.418-.97-.39-1.616 4.093-2.134 5.003-1.164.52.582.78 1.164.52 1.552-.195.259-.65.323-1.105.582z" fill="#E58961"/><path d="M69.878 104.487c-1.234.647-4.028.647-4.418-.97-.39-1.616 4.093-2.133 5.003-1.164.845.97.65 1.488-.585 2.134z" fill="#ED996D"/><path d="M69.098 103.97c-.65.323-2.209.323-2.404-.517-.26-.906 2.275-1.164 2.73-.647.52.517.39.84-.326 1.164z" fill="#DC6629"/><path d="M52.92 44.358c-1.04-3.362-6.043-8.923-7.537-13.255-1.17-3.49-1.495-8.21.714-11.379 2.21-3.233 5.913-3.297 8.967-1.422 6.043 3.685 5.198 10.668 3.704 16.68-.78 3.04-1.04 5.884-1.04 8.988 0 4.138 1.3 7.952 2.014 11.961.585 3.168 1.95 6.789 1.95 9.957 0 1.228-.78 3.103-2.34 2.328-1.3-.647-2.209-4.138-2.599-5.367-.78-2.457-1.104-4.849-1.234-7.435-.065-2.586-1.56-7.759-2.6-11.056z" fill="#ECC985"/><path d="M59.287 32.914c.455-2.198.715-4.397.585-6.53-4.743-1.035-10.46 1.68-14.424 4.913.584 1.617 1.69 3.427 2.859 5.237.52-.193.974-.387 1.3-.517a77.768 77.768 0 0 1 8.25-2.845c.52-.129.975-.194 1.43-.258z" fill="#F8F8F8"/><path d="M57.533 20.306c-4.483-.259-9.551 2.328-13.06 5.237 0 1.94.325 3.88.91 5.56.065.13.13.324.195.453 1.234-.647 2.599-1.164 3.248-1.487a77.768 77.768 0 0 1 8.252-2.845c.975-.258 1.884-.323 2.794-.323-.065-2.392-.715-4.72-2.339-6.595z" fill="#FBDF00"/><path d="M52.27 50.565c-.195-2.393 4.743-4.203 4.743-1.746.065 3.362-1.754 5.56-3.768 4.526-2.015-1.035-.975-2.78-.975-2.78z" fill="#DC6629"/></g></svg>