<svg width="120" height="120" viewBox="0 0 120 120" xmlns="http://www.w3.org/2000/svg"><g fill="none"><path fill="#355772" d="M64.818 33.545l3.669-1.443 7.264 18.241-3.706 1.48z"/><path fill="#284356" d="M65.93 74.911H36.059L24.125 49.085h49.773z"/><path d="M77.863 51.083V33.175c0-1.11.89-1.998 2.002-1.998h22.458a1.99 1.99 0 0 1 1.89 1.369l3.521 10.582h5.967c1.112 0 2.001.888 2.001 1.998v5.957H77.863z" fill="#52769A"/><path fill="#284356" d="M113.701 72.95h-45.77l5.967-19.906h33.836z"/><path d="M89.797 57.04c11.007 0 19.901 8.88 19.901 19.869 0 10.989-8.894 19.869-19.901 19.869s-19.902-8.88-19.902-19.869c0-10.989 8.932-19.869 19.902-19.869z" fill="#736F7B"/><path d="M89.797 62.997c7.708 0 13.935 6.216 13.935 13.912 0 7.696-6.227 13.912-13.935 13.912-7.709 0-13.935-6.216-13.935-13.912 0-7.696 6.263-13.912 13.935-13.912z" fill="#514B5A"/><path d="M89.797 66.956c5.485 0 9.97 4.44 9.97 9.953 0 5.476-4.448 9.953-9.97 9.953-5.485 0-9.97-4.44-9.97-9.953.038-5.476 4.485-9.953 9.97-9.953z" fill="#476685"/><path d="M89.797 72.95a3.967 3.967 0 0 1 3.965 3.959 3.967 3.967 0 0 1-7.93 0 3.967 3.967 0 0 1 3.965-3.959z" fill="#587FA6"/><path d="M115.702 49.085H73.898c-.853 0-1.63.555-1.89 1.369l-4.855 14.541H44.027v3.959h21.792l-1.335 3.959H46.028v5.957h16.566a1.987 1.987 0 0 0 1.371 1.998c1.038.333 2.187-.222 2.52-1.258l7.746-23.236a1.992 1.992 0 0 1 1.89-1.369h26.944c.815 0 1.556.481 1.853 1.258l6.967 17.39a2.02 2.02 0 0 0 1.853 1.258h2.001a1.991 1.991 0 0 0 2.002-1.998V51.046c-.075-1.073-.964-1.961-2.039-1.961z" fill="#476685"/><path d="M101.953 35.173H91.427a1.58 1.58 0 0 0-1.593 1.591v4.773a1.58 1.58 0 0 0 1.593 1.591h12.12c1.074 0 1.852-1.073 1.519-2.109l-1.594-4.773c-.26-.629-.852-1.073-1.52-1.073zM83.46 43.128h2.779a1.58 1.58 0 0 0 1.594-1.591v-4.773a1.58 1.58 0 0 0-1.594-1.591h-2.78a1.58 1.58 0 0 0-1.593 1.591v4.773a1.58 1.58 0 0 0 1.593 1.591z" fill="#8CBEE3"/><path d="M62.705 57.04h-14.12c-1.704 0-3.41-.259-5.04-.814L4.224 43.128 20.16 29.216h51.736l-5.3 24.679c-.37 1.813-2 3.145-3.89 3.145z" fill="#52769A"/><path d="M101.767 23.259H77.9c-.407 0-.778.111-1.112.333l-5.484 3.626H20.16a2 2 0 0 0-1.297.481L2.927 41.611c-.816.74-.927 1.961-.186 2.812.408.444.927.666 1.483.666.481 0 .926-.148 1.297-.481l13.86-12.099-3.187 14.837c-.222 1.073.445 2.146 1.52 2.368.148.037.296.037.407.037.927 0 1.742-.629 1.928-1.554l3.632-16.983h5.892l-4.114 19.24c-.222 1.073.445 2.146 1.52 2.368.148.037.296.037.408.037.926 0 1.741-.629 1.927-1.554l4.299-20.054h5.892l-4.817 22.422c-.223 1.073.444 2.146 1.519 2.368.148.037.297.037.408.037.926 0 1.742-.629 1.927-1.554l5.003-23.273h5.893L43.99 56.67c-.223 1.073.445 2.146 1.52 2.368.148.037.296.037.407.037.926 0 1.742-.629 1.927-1.554l5.633-26.233h5.893l-5.448 25.419c-.222 1.073.445 2.146 1.52 2.368.148.037.296.037.407.037.927 0 1.742-.629 1.927-1.554l5.634-26.233h8.338c.408 0 .779-.111 1.112-.333l5.485-3.626h23.274a1.991 1.991 0 0 0 2.001-1.998c.112-1.221-.778-2.109-1.853-2.109z" fill="#355772"/><path d="M30.092 57.04c11.007 0 19.902 8.88 19.902 19.869 0 10.989-8.895 19.869-19.902 19.869-11.007 0-19.902-8.88-19.902-19.869 0-10.989 8.932-19.869 19.902-19.869z" fill="#736F7B"/><path d="M30.092 62.997c7.709 0 13.935 6.216 13.935 13.912 0 7.696-6.226 13.912-13.935 13.912-7.709 0-13.935-6.216-13.935-13.912 0-7.696 6.263-13.912 13.935-13.912z" fill="#514B5A"/><path d="M30.092 66.956c5.485 0 9.97 4.44 9.97 9.953 0 5.476-4.448 9.953-9.97 9.953-5.485 0-9.97-4.44-9.97-9.953.038-5.476 4.485-9.953 9.97-9.953z" fill="#476685"/><path d="M30.092 72.95a3.967 3.967 0 0 1 3.966 3.959 3.967 3.967 0 0 1-7.931 0 3.967 3.967 0 0 1 3.965-3.959z" fill="#587FA6"/></g></svg>