<svg width="120" height="120" viewBox="0 0 120 120" xmlns="http://www.w3.org/2000/svg" xmlns:xlink="http://www.w3.org/1999/xlink"><defs><path id="a" d="M0 115.886h118.992V.426H0z"/></defs><g fill="none" fill-rule="evenodd"><path fill="#1AB2D6" d="M46.422 51.38l-5.53 56.53H59.84V51.38z"/><path fill="#1967CC" d="M73.26 51.38H59.84v56.53h18.95z"/><g transform="translate(0 2.689)"><path d="M59.84 43.93H42.074a21.536 21.536 0 0 0 4.348 4.76H59.84v-4.76zm0-28.574H46.422a21.616 21.616 0 0 0-4.348 4.761H59.84v-4.761zm0 9.524H39.713a21.332 21.332 0 0 0-1.103 4.763h21.23v-4.762zm0 9.524H38.61a21.332 21.332 0 0 0 1.103 4.763H59.84v-4.763z" fill="#F2C53D"/><path d="M81.071 29.643a21.393 21.393 0 0 0-1.103-4.762 21.387 21.387 0 0 0-2.363-4.764 21.469 21.469 0 0 0-4.345-4.76 21.24 21.24 0 0 0-13.42-4.763 21.238 21.238 0 0 0-13.418 4.762H59.84v4.761H42.075a21.38 21.38 0 0 0-2.362 4.764H59.84v4.762H38.61a21.852 21.852 0 0 0-.138 2.38c0 .806.052 1.598.138 2.38h21.23v4.764H39.713a21.395 21.395 0 0 0 2.362 4.763H59.84v4.761H46.422a21.232 21.232 0 0 0 13.418 4.763c5.086 0 9.75-1.788 13.42-4.763a21.446 21.446 0 0 0 4.345-4.761 21.402 21.402 0 0 0 2.363-4.763 21.389 21.389 0 0 0 1.242-7.143c0-.806-.052-1.598-.139-2.38" fill="#F29D35"/><path d="M40.94 105.222c-5.868.001-10.629 4.775-10.629 10.663H59.84v-10.662h-18.9z" fill="#794F1B"/><path d="M78.79 105.224H59.84v10.66h29.582c0-5.887-4.759-10.658-10.632-10.66" fill="#2E1D0A"/><mask id="b" fill="#fff"><use xlink:href="#a"/></mask><path fill="#2E1D0A" mask="url(#b)" d="M57.698 75.794h3.916V41.548h-3.916z"/><path d="M45.683 86.401c0-.325.025-.644.045-.962-.03.315-.046.637-.046.962 0 5.126 4.14 9.279 9.248 9.279h4.893v-9.279h-14.14z" fill="#F2480D" mask="url(#b)"/><path d="M59.823 95.68l4.884.001c5.11 0 9.252-4.155 9.252-9.28H59.823v9.28z" fill="#B6360A" mask="url(#b)"/><path d="M59.823 86.401v-.013h-7.045c0-3.908 3.154-7.076 7.045-7.086v-7.098c-7.487.008-13.597 5.848-14.095 13.235-.02.318-.045.637-.045.962h14.14z" fill="#F56D3D" mask="url(#b)"/><path d="M59.84 72.203l-.017.001v7.098l.017-.002c3.903 0 7.064 3.174 7.064 7.088h-7.081v.013h14.179c0-7.843-6.339-14.198-14.162-14.198" fill="#F2480D" mask="url(#b)"/><path d="M52.778 86.388h7.044v-7.086c-3.89.01-7.044 3.178-7.044 7.086" fill="#A3E0EF" mask="url(#b)"/><path d="M66.905 86.388c0-3.914-3.163-7.088-7.065-7.088l-.018.002v7.086h7.083z" fill="#1AB2D6" mask="url(#b)"/><path d="M54.137 77.549a1.37 1.37 0 1 1-2.74 0 1.37 1.37 0 1 1 2.74 0" fill="#FFF" mask="url(#b)"/><path fill="#2E1D0A" mask="url(#b)" d="M21.459 67.884l-2.772-2.777L42.832 40.89l2.771 2.78z"/><path d="M2.711 64.087c.23-.23.475-.439.714-.648a9.485 9.485 0 0 0-.714.646c-3.615 3.625-3.613 9.498-.003 13.12l3.46 3.47 6.542-6.561-9.999-10.027z" fill="#21BFA2" mask="url(#b)"/><path d="M6.168 80.674L9.62 84.14a9.237 9.237 0 0 0 13.088-.001L12.71 74.113l-6.542 6.561z" fill="#198F7A" mask="url(#b)"/><path d="M12.71 74.114l.01-.01-4.981-4.995a7.047 7.047 0 0 1 9.975-.015l5.007-5.02c-5.3-5.302-13.737-5.505-19.297-.635-.239.21-.483.418-.713.648l9.999 10.027z" fill="#4DCCB5" mask="url(#b)"/><path d="M22.735 64.086l-.014-.012-5.006 5.02c.004.005.012.007.015.01a7.103 7.103 0 0 1-.002 10.023l-5.009-5.022-.009.009 9.998 10.025.028.028c5.53-5.545 5.529-14.533-.001-20.08" fill="#21BFA2" mask="url(#b)"/><path d="M7.738 69.11l4.981 4.995 4.996-5.011a7.05 7.05 0 0 0-9.977.015" fill="#A3E0EF" mask="url(#b)"/><path d="M17.728 79.127a7.103 7.103 0 0 0 .001-10.023c-.002-.003-.01-.005-.014-.01l-4.996 5.01 5.01 5.023z" fill="#1AB2D6" mask="url(#b)"/><path d="M14.932 63.823a1.367 1.367 0 0 1-1.938 0 1.375 1.375 0 0 1 0-1.943 1.367 1.367 0 0 1 1.938-.002c.537.54.534 1.408 0 1.945" fill="#FFF" mask="url(#b)"/><path fill="#2E1D0A" mask="url(#b)" d="M100.072 65.367l-2.767 2.779-24.148-24.215 2.77-2.779z"/><path d="M96.288 84.167c-.23-.23-.437-.474-.647-.715.202.245.414.486.646.715a9.234 9.234 0 0 0 13.083.004l3.458-3.47-6.541-6.561-10 10.027z" fill="#F29D35" mask="url(#b)"/><path d="M112.827 80.7l3.455-3.462c3.614-3.622 3.614-9.499 0-13.124l-9.996 10.025 6.541 6.561z" fill="#B67628" mask="url(#b)"/><path d="M106.286 74.14l-.009-.01-4.981 4.997a7.097 7.097 0 0 1-.017-10.006l-5.005-5.02c-5.286 5.314-5.49 13.776-.634 19.35.21.242.417.486.647.716l9.999-10.027z" fill="#F2C53D" mask="url(#b)"/><path d="M96.288 64.087l-.014.014 5.005 5.02.01-.014a7.053 7.053 0 0 1 9.995.001l-5.006 5.024.009.007 9.995-10.025.029-.029c-5.53-5.546-14.493-5.545-20.023.002" fill="#F29D35" mask="url(#b)"/><path d="M101.296 79.127l4.98-4.995-4.997-5.01a7.098 7.098 0 0 0 .017 10.005" fill="#1AB2D6" mask="url(#b)"/><path d="M111.284 69.108a7.053 7.053 0 0 0-9.995-.001l-.01.014 4.998 5.01 5.007-5.023z" fill="#1486A1" mask="url(#b)"/><path d="M96.023 71.911a1.376 1.376 0 0 1 0 1.944 1.365 1.365 0 0 1-1.936 0 1.375 1.375 0 0 1-.001-1.944 1.368 1.368 0 0 1 1.937 0" fill="#FFF" mask="url(#b)"/><path d="M84.267 41.548a2.38 2.38 0 0 1-2.375 2.382H37.788a2.38 2.38 0 0 1-2.375-2.382 2.377 2.377 0 0 1 2.375-2.381h44.104a2.378 2.378 0 0 1 2.375 2.381" fill="#794F1B" mask="url(#b)"/><path d="M59.84 10.594c2.8 0 5.069-2.278 5.069-5.085H54.77c0 2.807 2.269 5.085 5.069 5.085" fill="#1967CC" mask="url(#b)"/><path d="M59.84.425c-2.8 0-5.07 2.276-5.07 5.083h10.14A5.077 5.077 0 0 0 59.84.425" fill="#1AB2D6" mask="url(#b)"/></g></g></svg>