<svg width="120" height="120" viewBox="0 0 120 120" xmlns="http://www.w3.org/2000/svg" xmlns:xlink="http://www.w3.org/1999/xlink"><defs><path id="a" d="M.077.569h42.008v38.01H.077z"/></defs><g fill="none" fill-rule="evenodd"><g transform="translate(77.714 1.001)"><mask id="b" fill="#fff"><use xlink:href="#a"/></mask><path d="M42.066 24.434C41.686 17.602 31.78 2.798 19.59.9 7.4-.998.077 5.875.077 5.875c.833-.23 1.763.217 2.72 1.215 2.488-1.342 5.64-2.303 8.793-1.256 6.857 2.278 12.19-2.277 15.619 3.038 3.428 5.314 8.762 3.036 9.143 9.869.38 6.832 5.333 6.452 3.048 12.146-1.328 3.306-1.758 5.716-3.227 7.676l.006.015c3.03-3.528 6.183-8.835 5.887-14.144" fill="#E37A42" mask="url(#b)"/></g><path d="M88.542 12.53c4.19 3.795 5.715-3.797 8 1.138 2.286 4.935 7.62.38 9.524 4.555 1.905 4.175 3.428 3.796 4.19 9.49.307 2.29.429 3.658.563 4.673 1.449.768 2.485 1.912 2.485 3.298 0 .846-.154 1.662-.484 2.458.531.444.897.919 1.068 1.423 1.468-1.96 1.898-4.37 3.226-7.677 2.286-5.694-2.667-5.314-3.048-12.146-.38-6.833-5.714-4.555-9.143-9.87-3.429-5.314-8.762-.759-15.619-3.036C86.15 5.789 83 6.749 80.512 8.09c.756.787 1.527 1.918 2.282 3.337 1.834-.548 3.902-.57 5.748 1.101" fill="#8CC63F"/><path d="M88.542 17.464c.762 6.074-.38 7.592 3.81 8.351 4.19.76 5.333-1.898 6.095 1.898.762 3.796 3.047 4.555 6.476 3.796 1.864-.413 4.173-.036 5.896.877-.134-1.015-.256-2.384-.562-4.673-.763-5.694-2.286-5.314-4.191-9.49-1.905-4.175-7.238.38-9.524-4.555-2.285-4.934-3.81 2.657-8-1.139-1.846-1.672-3.914-1.649-5.748-1.1.147.275.293.562.439.859 2.144.383 4.859 1.585 5.31 5.176" fill="#955122"/><path d="M110.82 32.386c-1.725-.913-4.033-1.29-5.897-.878-3.428.76-5.714 0-6.476-3.795-.762-3.796-1.904-1.139-6.095-1.898-4.19-.76-3.048-2.278-3.81-8.35-.45-3.592-3.165-4.794-5.31-5.177 2.48 5.07 4.696 13.177 5.42 22.206 9.923-.829 20.664.717 24.168 3.648.33-.796.484-1.612.484-2.458 0-1.386-1.037-2.53-2.485-3.298" fill="#EC1D24"/><path d="M25.104 98.441C12.832 97.074 1.82 92.421.14 88.515c-.095-.22.098-.717.54-1.455l-.54.316s-1.503 6.764 5.355 15.495c6.63 8.44 17.533 18.3 25.824 15.512-3.036-3.468-6.882-13.525-6.215-19.942" fill="#E37A42"/><path d="M112.82 38.142c-3.504-2.931-14.245-4.477-24.168-3.648.63 7.866.126 16.433-2.334 24.302-7.38 23.61-40.736 40.27-55.215 40.036-2.01-.033-4.02-.17-5.999-.391-.667 6.418 3.18 16.474 6.215 19.942.29.331.572.608.842.81 6.096 4.555 70.476-57.317 81.524-77.815.34-.632.396-1.232.208-1.798l-.005-.015c-.171-.504-.537-.98-1.068-1.423" fill="#F69858"/><path d="M71.018 15.566s-35.81 46.31-50.285 52.003c0 0 36.952-42.513 50.285-52.003m2.667 17.84c-5.714-.379-8.732-5.346-3.428-7.211 6.476-2.278 9.143 7.591 3.428 7.211m-.762 11.388c-4.19 1.519-6.137-3.136-3.429-4.934 4.572-3.037 7.62 3.416 3.429 4.934m-31.238 45.55c-3.428 3.417-7.054-.97-4.19-3.416 2.666-2.277 7.619 0 4.19 3.416m2.286-37.199c3.047-2.657 6.857.38 3.429 3.037-3.429 2.657-5.668-1.084-3.429-3.037M26.447 78.198c6.857-3.796 10.286 5.694 4.19 7.971-6.095 2.278-11.27-4.052-4.19-7.971M.14 88.515c1.679 3.906 12.692 8.559 24.964 9.926 1.978.22 3.989.359 5.998.391 14.48.233 47.836-16.426 55.216-40.036 2.46-7.87 2.964-16.435 2.334-24.302-.723-9.03-2.941-17.135-5.42-22.206a28.61 28.61 0 0 0-.438-.86c-.755-1.419-1.526-2.55-2.282-3.337-.958-.998-1.887-1.445-2.721-1.215C72.443 8.355 7.403 75.818.679 87.06c-.44.737-.634 1.236-.54 1.455" fill="#FBBF7B"/><path d="M73.685 33.407c5.715.38 3.048-9.49-3.428-7.213-5.304 1.866-2.286 6.833 3.428 7.213m-4.191 6.453c-2.708 1.799-.761 6.452 3.429 4.934 4.19-1.518 1.143-7.971-3.429-4.934M30.637 86.169c6.096-2.277 2.667-11.767-4.19-7.971-7.08 3.919-1.905 10.249 4.19 7.971m6.857.759c-2.863 2.446.763 6.833 4.191 3.417 3.429-3.417-1.524-5.694-4.19-3.417M47.4 56.182c3.428-2.657-.382-5.694-3.429-3.037-2.24 1.952 0 5.694 3.429 3.037" fill="#F69858"/><path d="M71.018 15.566C57.685 25.056 20.733 67.57 20.733 67.57c14.476-5.694 50.285-52.003 50.285-52.003" fill="#FEFEFE"/></g></svg>