<svg width="120" height="120" viewBox="0 0 120 120" xmlns="http://www.w3.org/2000/svg"><g fill="none" fill-rule="evenodd"><path d="M69.791 44.452l13.091-13.286 16.362 9.39-5.69 12.095s-9.82-6.83-23.763-8.2" fill="#F0961E"/><path d="M44.429 79.059s1.229 3.244.506 6.592a3.172 3.172 0 0 0 3.207 3.842c7.56-.243 21.475-1.571 28.794-7.781 5.473-4.643 2.189-7.991 2.189-7.991l-34.696 5.338z" fill="#FBB040"/><path d="M102.09 57.346c0 3.426-5.1 7.911-12.952 11.963-4.725 2.436-10.427 4.724-16.621 6.534-5.418 1.593-11.2 2.812-17.017 3.46a79.72 79.72 0 0 1-8.993.523c-4.575 0-8.753-.26-12.543-.785-6.214-.83-11.372-2.334-15.458-4.405C10.754 70.71 6.85 64.744 6.85 57.346c0-7.263 3.768-13.466 11.236-17.689 4.028-2.299 9.14-3.996 15.32-4.975 3.94-.625 8.31-.956 13.1-.956 2.858 0 5.75.183 8.64.523 5.875.672 11.715 1.993 17.19 3.701 6.237 1.934 11.997 4.382 16.755 6.977 7.877 4.291 12.999 8.981 12.999 12.42" fill="#FBB040"/><path d="M18.506 74.636c4.086 2.071 9.244 3.575 15.458 4.405 3.79.524 7.968.785 12.543.785a79.72 79.72 0 0 0 8.993-.523c5.817-.648 11.599-1.867 17.017-3.46 6.194-1.81 11.896-4.098 16.62-6.534 7.853-4.052 12.953-8.537 12.953-11.963H6.85c0 7.398 3.904 13.363 11.656 17.29" fill="#F5A532"/><path d="M53.302 84.652a1.99 1.99 0 1 1-3.98 0 1.99 1.99 0 0 1 3.98 0m8.194-.987a1.74 1.74 0 1 1-3.482 0 1.74 1.74 0 0 1 3.482 0m7.492-1.741a1.491 1.491 0 1 1-2.982.002 1.491 1.491 0 0 1 2.982-.002M18.617 42.685l2.852-1.237c.915-.374 1.997-.892 3.327-1.288 1.318-.413 2.794-.985 4.451-1.391l2.587-.635a25.712 25.712 0 0 1 2.795-.573l2.977-.491c1.015-.189 2.07-.216 3.135-.331 2.13-.238 4.344-.275 6.594-.309 1.125-.006 2.256.075 3.393.109l1.71.07 1.703.158c1.135.128 2.275.211 3.398.383l3.35.518c1.11.169 2.193.429 3.27.652l1.601.342 1.562.398c1.03.275 2.055.501 3.036.801l2.872.881c1.862.579 3.595 1.212 5.19 1.797 1.585.614 3.042 1.159 4.305 1.715 1.27.539 2.375 1.009 3.272 1.428l2.813 1.324-2.973-.9-3.406-1.031c-1.308-.416-2.808-.803-4.419-1.294-1.626-.444-3.384-.927-5.249-1.405a158.242 158.242 0 0 0-5.893-1.362c-.51-.112-1.027-.225-1.547-.337l-1.58-.279c-1.063-.171-2.13-.401-3.215-.561l-3.279-.467c-1.098-.158-2.21-.219-3.317-.337l-1.66-.175-1.662-.086c-1.106-.046-2.208-.14-3.302-.147-2.188.026-4.346-.066-6.427.109-1.04.071-2.07.077-3.068.192l-2.93.309c-.476.055-.95.089-1.41.159l-1.356.229-2.582.415c-.837.107-1.605.329-2.353.483l-2.122.465c-1.34.261-2.49.629-3.443.887l-3 .812" fill="#FFF"/><path d="M89.138 65.894c-4.725 2.437-10.427 4.725-16.621 6.534-5.418 1.593-11.2 2.812-17.017 3.46a79.958 79.958 0 0 1-8.993.525c-4.575 0-8.753-.263-12.543-.787-6.214-.83-11.372-2.334-15.458-4.404-7.145-3.62-11.014-8.975-11.576-15.585-.047.564-.08 1.13-.08 1.709 0 7.399 3.904 13.363 11.656 17.29 4.086 2.07 9.244 3.575 15.458 4.405 3.79.524 7.968.786 12.543.786 2.974 0 5.987-.182 8.993-.524 5.817-.648 11.599-1.867 17.017-3.46 6.194-1.81 11.896-4.097 16.62-6.534 7.854-4.052 12.953-8.537 12.953-11.963 0-.542-.14-1.118-.387-1.716-1.307 3.136-5.954 6.853-12.565 10.264" fill="#F0961E"/><path fill="#F0961E" d="M74.613 53.931l38.417 3.415-38.417 3.414z"/></g></svg>