<svg width="120" height="120" viewBox="0 0 120 120" xmlns="http://www.w3.org/2000/svg" xmlns:xlink="http://www.w3.org/1999/xlink"><defs><path id="a" d="M.363.22h9.928v7.13H.363z"/></defs><g fill="none" fill-rule="evenodd"><path d="M50.851 46.597c.007-.004 13.319 1.817 17.172-.788 2.164-1.462 1.434 3.15-1.51 6.507-2.287 2.608-1.68 6.925-9.05 3.731-2.375-1.03-6.477-5.269-6.515-7.951 0-.007-.629-1.148-.097-1.5" fill="#F1C28C"/><path d="M52.262 57.237C45.94 50.524 15.43 5.644 9.308 30.145 4.532 49.256 57.025 64.302 52.902 58.187l-.64-.95z" fill="#98D3D8"/><path d="M40.372 42.613c-.688-.76 5.12 7.87 3.972 11.254-.972 2.868-9.493 1.388-8.002 2.008 9.21 3.822 17.875 5.092 16.596 2.589-2.664-5.218-8.56-11.429-12.566-15.851" fill="#58BDC1"/><path d="M51.66 59.274c-7.01-2.078-45.87-20.613-40.175-1.503 4.442 14.906 46.265 4.437 40.994 1.898l-.82-.395z" fill="#F5BAB6"/><path d="M51.561 59.274c-2.706-.802-10.156-4.056-17.957-6.65-.977-.325 8.322 3.737 9.01 7.242.583 2.97-7.662 5.47-6.056 5.281 9.917-1.171 18.37-4.251 15.822-5.479l-.819-.394z" fill="#EE8785"/><path d="M42.024 50.926c.425.076 1.165 1.664.174 2.008-2.723.944-2.082-1.71-1.296-1.926.216-.06.874-.127 1.122-.082m-4.072-1.344c1.877-.25 2.505 2.517-.008 1.955-.426-.095-1.457-1.76.008-1.955m-2.939-1.935c1.877-.25 2.505 2.517-.008 1.955-.426-.095-1.457-1.76.008-1.955m-1.586-1.697c.32.058.877 1.254.13 1.513-2.051.711-1.569-1.287-.976-1.45.163-.046.659-.096.846-.062m-3.622-2.294c1.878-.25 2.506 2.517-.007 1.955-.426-.095-1.457-1.76.007-1.955M28.22 41.96c.319.058.877 1.254.13 1.513-2.052.712-1.57-1.287-.977-1.45.163-.045.66-.096.847-.062m-2.503-1.856c.32.057.878 1.253.131 1.512-2.052.711-1.569-1.287-.977-1.45.163-.046.66-.096.846-.062m-2.665-2.444c.32.058.878 1.254.13 1.513-2.051.71-1.569-1.288-.976-1.451.163-.045.659-.096.846-.062m-2.567-2.737c.32.058.877 1.254.13 1.513-2.051.71-1.568-1.288-.976-1.451.163-.045.659-.096.846-.062m-2.468-2.444c.32.058.877 1.254.13 1.513-2.051.711-1.569-1.287-.976-1.45.163-.046.659-.096.846-.062m-2.271-2.737c.32.057.877 1.253.13 1.512-2.051.711-1.568-1.287-.976-1.45.163-.046.66-.096.846-.062" fill="#C7E6EA"/><path d="M39.138 58.232c.31-.125 1.46.607.957 1.24-1.382 1.737-2.078-.26-1.656-.725.117-.128.518-.442.7-.515m-3.225.798c1.12-.936 2.694.613.816 1.28-.319.114-1.691-.55-.816-1.28m-2.733-.054c1.121-.936 2.694.613.817 1.28-.319.113-1.692-.55-.817-1.28m-1.748-.456c.233-.094 1.1.459.72.935-1.04 1.309-1.565-.195-1.247-.546.088-.096.39-.333.527-.388m-3.328-.008c1.12-.936 2.694.613.816 1.28-.319.113-1.691-.55-.816-1.28m-1.748-.455c.232-.094 1.099.457.72.934-1.041 1.309-1.565-.196-1.247-.546.087-.096.39-.333.527-.388m-2.414-.183c.233-.094 1.1.458.72.935-1.041 1.308-1.565-.196-1.247-.547.088-.096.39-.333.527-.388m-2.768-.499c.233-.094 1.1.458.721.935-1.042 1.308-1.565-.196-1.248-.546.089-.097.391-.334.527-.389m-2.825-.731c.232-.094 1.099.458.72.934-1.041 1.309-1.565-.195-1.247-.546.087-.096.39-.333.526-.388m-2.639-.58c.234-.095 1.1.458.722.934-1.041 1.309-1.566-.196-1.248-.546.088-.097.39-.333.527-.388m-2.633-.853c.234-.095 1.1.458.721.934-1.041 1.309-1.565-.196-1.247-.546.087-.097.39-.333.526-.388" fill="#F8D2CF"/><path d="M68.319 56.515c6.321-6.713 36.832-51.593 42.954-27.092 4.776 19.111-47.717 34.158-43.595 28.043l.641-.95z" fill="#98D3D8"/><path d="M80.209 41.89c.688-.758-5.12 7.87-3.973 11.255.973 2.869 9.494 1.389 8.003 2.008-9.211 3.822-17.875 5.093-16.597 2.59 2.665-5.219 8.56-11.43 12.567-15.852" fill="#58BDC1"/><path d="M68.92 58.553c7.01-2.079 45.87-20.613 40.176-1.503-4.443 14.905-46.266 4.437-40.994 1.897l.819-.394z" fill="#F5BAB6"/><path d="M69.02 58.552c2.705-.802 10.156-4.056 17.957-6.65.976-.324-8.323 3.737-9.01 7.242-.584 2.97 7.662 5.47 6.056 5.282-9.917-1.172-18.37-4.252-15.823-5.479l.82-.395z" fill="#EE8785"/><path d="M78.556 50.204c-.424.077-1.164 1.664-.173 2.008 2.722.944 2.081-1.709 1.296-1.926-.217-.06-.875-.126-1.123-.082m4.073-1.344c-1.877-.25-2.506 2.517.008 1.956.425-.096 1.457-1.76-.008-1.955m2.939-1.936c-1.877-.25-2.506 2.517.008 1.955.425-.095 1.456-1.76-.008-1.955m1.586-1.696c-.32.057-.877 1.253-.13 1.512 2.05.712 1.568-1.287.976-1.45-.163-.046-.659-.096-.846-.062m3.621-2.294c-1.877-.25-2.506 2.517.008 1.955.425-.095 1.457-1.759-.008-1.955m1.586-1.695c-.32.057-.877 1.253-.13 1.512 2.051.71 1.569-1.288.976-1.451-.163-.045-.659-.095-.846-.062m2.502-1.856c-.32.057-.878 1.253-.13 1.512 2.051.712 1.569-1.287.976-1.45-.163-.045-.659-.096-.846-.062m2.666-2.443c-.32.057-.878 1.253-.13 1.512 2.05.711 1.568-1.288.976-1.451-.163-.045-.66-.095-.846-.062m2.567-2.737c-.32.058-.878 1.254-.13 1.513 2.05.711 1.568-1.288.975-1.451-.162-.045-.658-.095-.845-.062m2.468-2.443c-.32.057-.878 1.253-.13 1.512 2.05.711 1.568-1.287.976-1.45-.163-.046-.659-.096-.846-.062m2.271-2.737c-.32.057-.878 1.253-.13 1.513 2.05.711 1.568-1.288.976-1.452-.163-.045-.66-.095-.846-.061" fill="#C7E6EA"/><path d="M81.442 57.51c-.31-.125-1.46.608-.956 1.24 1.382 1.737 2.077-.26 1.655-.724-.116-.128-.518-.443-.699-.516m3.225.799c-1.121-.936-2.694.612-.816 1.28.318.113 1.69-.55.816-1.28m2.733-.055c-1.122-.936-2.695.613-.817 1.28.318.114 1.691-.55.816-1.28m1.749-.455c-.233-.094-1.1.457-.72.934 1.04 1.309 1.564-.195 1.247-.545-.088-.097-.391-.334-.527-.389m3.328-.008c-1.121-.936-2.694.613-.816 1.28.318.114 1.69-.55.816-1.28m1.748-.455c-.233-.094-1.1.458-.72.934 1.041 1.31 1.565-.195 1.247-.546-.088-.096-.39-.333-.527-.388m2.414-.182c-.233-.095-1.1.457-.72.934 1.04 1.309 1.564-.196 1.247-.546-.088-.097-.39-.333-.527-.388m2.768-.5c-.234-.094-1.1.458-.721.935 1.041 1.308 1.565-.195 1.247-.546-.088-.096-.39-.333-.526-.389m2.825-.731c-.233-.094-1.1.458-.72.935 1.041 1.308 1.565-.196 1.247-.546-.088-.097-.39-.334-.527-.389m2.639-.58c-.234-.094-1.1.458-.721.934 1.041 1.31 1.566-.195 1.247-.546-.087-.096-.39-.333-.526-.388m2.632-.853c-.233-.094-1.1.458-.72.934 1.04 1.31 1.565-.196 1.247-.546-.088-.097-.39-.333-.527-.388" fill="#F8D2CF"/><path d="M78.943 42.9c3.153-1.19 14.743-7.575 16.802-10.064.853-1.032 2.302-5.026 2.335-4.97.878 1.469 2.48 2.552 1.966 4.09-2.406 7.21-19.167 15.209-24.195 19.255-3.923 3.156-2.368.686-2.567-5.1-.061-1.77 3.303-2.324 5.659-3.211M42.512 56.426c-2.68 1.01-14.273 7.3-16.606 9.57-.711.692-1.47 2.796-2.047 3.352-.41.648-.793 1.305-.955 1.993-.415 1.765-.812 1.47-1.243.957-.25-.298.073-2.063.27-3.176-.9.31-3.107 2.024-5.605 2.708-1.062-.57 3.472-2.987 3.016-2.896-1.21.242-3.829 2.098-4.703 1.667-1.276-.63 3.617-1.789 4.311-2.946.002-.004-4.346 1.81-4.6.828-.022-.085.129-.205.598-.396.661-.269 3.147-1.343 3.603-1.531-.908.104-1.616.196-2.476.098-2.134-.245 2.038-1.143 2.504-1.238 1.528-.313 4.29-1.406 5.546-2.401v.001c5.106-5.897 17.198-11.455 21.48-14.9 3.923-3.158 2.368-.688 2.566 5.098.061 1.77-3.302 2.324-5.659 3.212m3.685 30.561c-.4 1.343 7.172 16.89 6.685 22.752-.172 2.07 5.655 8.775 5.655-2.983 0-4.446.123-22.086-4.918-22.086-1.747 0-6.919.633-7.422 2.317m19.425 1.207c.11 1.396 12.791 13.241 14.45 18.889.585 1.994 8.446 6.198 4.205-4.785-1.603-4.153-7.85-20.674-12.557-18.893-1.633.618-6.236 3.038-6.098 4.789" fill="#FAD3A3"/><path d="M36.638 32.518c.873 19.383 45.536 22.91 44.247-4.334C79.9 7.327 35.442 5.973 36.638 32.518" fill="#FAD3A3"/><path d="M72.206 27.924c-2.885 0-3.765 3.461-2.55 5.249 1.242 1.828 4.628 1.952 5.913-.942 1.287-2.896-2.243-4.307-3.363-4.307" fill="#FEFEFE"/><path d="M69.005 30.247c.231-.62.436-1.146 1.231-1.932 1.598-1.58 3.905-.77 5.281.599 1.213 1.206 2.35-.367 1.644.332-2.01 1.986-4.501-2.116-6.984-.28-.068.05-1.178 1.297-1.172 1.281" fill="#210001"/><path d="M73.506 29.085c-1.74 0-2.271 2.088-1.538 3.167.75 1.102 2.792 1.177 3.567-.569.777-1.746-1.353-2.598-2.029-2.598" fill="#231916"/><path d="M47.516 27.924c2.885 0 3.765 3.461 2.55 5.249-1.241 1.828-4.628 1.952-5.913-.942-1.287-2.896 2.243-4.307 3.363-4.307" fill="#FEFEFE"/><path d="M48.915 29.085c1.74 0 2.272 2.088 1.539 3.167-.749 1.102-2.792 1.177-3.567-.569-.777-1.746 1.353-2.598 2.028-2.598" fill="#231916"/><path d="M50.762 30.247c-.232-.62-.436-1.146-1.232-1.932-1.597-1.58-3.904-.77-5.28.599-1.213 1.206-2.35-.367-1.644.332 2.01 1.986 4.501-2.116 6.984-.28.068.05 1.178 1.297 1.172 1.281" fill="#210001"/><path d="M58.554 31.226c-4.302-.14-4.425 4.201-1.232 5.642 1.85.834-1.418-.32-1.037-3.184.382-2.865 3.29-2.425 2.269-2.458" fill="#F1C28C"/><path d="M70.056 23.417c1.803-1.456 4.354-1.453 5.67.659.236.38-.094.65-1.258.027-.99-.53-2.435-.769-3.536-.514-.306.071-.654.424-.939.141.02-.16-.092-.188.063-.313m-19.47 0c-1.803-1.456-4.353-1.453-5.669.659-.236.38.094.65 1.258.027.989-.53 2.435-.769 3.535-.514.306.071.655.424.94.141-.02-.16.092-.188-.064-.313" fill="#A05A22"/><path d="M74.467 29.619c-.804 0-1.05.965-.71 1.463.346.51 1.29.544 1.648-.263.358-.807-.625-1.2-.938-1.2m-25.009-.018c-.804 0-1.05.966-.711 1.464.346.509 1.29.544 1.648-.263.36-.807-.625-1.2-.937-1.2" fill="#FEFEFE"/><path d="M54.768 40.608c1.778-.153 1.416.746 3.193-.58.966-.72.806 1.134 1.747-.013.581-.707.54.453 1.663.772.655.186 2.56-.11 1.7.17-.188.06-1.582.543-1.59.55-2.138 2.27-3.803 1.053-4.93-.16-.224-.241-1.628-.753-1.783-.74" fill="#EE8785"/><path d="M58.269 41.223c.77.586 1.576.233 1.788-.08-.719.267-1.05.23-1.788.08" fill="#D76B6C"/><path d="M45.15 37.384c-.033-1.054 3.726-1.504 3.54.349-.052.523-3.487 1.331-3.54-.349m25.081 0c-.033-1.054 3.725-1.504 3.54.349-.052.523-3.487 1.331-3.54-.349" fill="#F5BAB6"/><path d="M36.755 33.756c2.51-11.169 11.902-15.12 22.207-14.506 1.461.087 4.12 1.77 7.06 2.971 1.019-.002-1.805-2.504-2.571-3.046-1.42-1.003 4.778 1.777 6.11 2.145-1.543-1.321-2.419-1.634-1.988-1.868.552-.3 1.689.524 3.225 1.304-.565-1.29-1.804-2.295-1.804-2.666 0-1.09 5.523 2.311 8.492 6.77 2.712 4.072 2.885 9.236 3.065 8.399 7.852-36.546-54.194-32.606-43.796.497" fill="#A05A22"/><path d="M42.449 16.595c-1.471-.516-.083-2.118-2.505-4.619-1.137-1.172-4.725-.41-5.856.634-1.459 1.346.923 11.451-.768 14.444-7.316 12.954-15.534-.9-13.673.61 1.23.996 8.59.076 8.59-2.003-.08-.006-1.53.39-2.146.39-.634 0-4.72-.365-4.617-1.66 3.393.86 4.24-1.768 4.418-2.038.289-.437.742-4.338-.814-7.73-2.06-4.484 2.18-9.99 5.924-10.28 7.712-.596 13.677 11.12 11.659 12.267l-.212-.015zm30.787-1.123c1.47-.517.083-2.119 2.505-4.62 1.136-1.172 4.724-.41 5.856.634 1.459 1.346-.923 11.452.768 14.445 7.316 12.953 15.534-.9 13.672.609-1.23.997-8.59.076-8.59-2.003.082-.006 1.531.39 2.147.39.634 0 4.72-.364 4.617-1.66-3.393.861-4.24-1.768-4.418-2.037-.29-.438-.743-4.339.814-7.73 2.059-4.484-2.18-9.99-5.924-10.28-7.712-.597-13.677 11.119-11.659 12.266l.212-.014z" fill="#A05A22"/><path d="M52.645 47.147c1.924 5.579 3.108 9.176 9.118 8.059 4.19-.78 4.533-8.533 6.679-8.946 6.707-1.29 4.419-6.709 5.073 7.758.458 10.125 5.42 21.293 8.998 31.038-8.3 4.922-34.626 3.785-43.218 2.402-.639-7.653 8.22-23.177 8.22-40.39 0-2.108 1.887-.793 5.13.079" fill="#EC7FA9"/><path d="M82.074 83.872c-6.083 2.732-38.872 3.99-42.707 1.662-.17.71-.1 1.444-.26 2.382 6.257 1.996 41.71.414 43.44-2.586-.003-.409-.267-.904-.473-1.458" fill="#B7589D"/><path d="M98.678 27.281c-1.28.172-2.428 1.378-2.733 2.027-.175.374.844.514.8.892-.023.196-.66.258-.553.766.074.354.685.366.813.684.076.19-.233.494-.17.683.178.524 1.189.267 1.323.42.158.18-.344.552-.299.765.188.887 2.408.393 3.464-1.482 1.188-2.109.1-4.755-2.645-4.755" fill="#F2CA99"/><g transform="translate(50.293 108.3)"><mask id="b" fill="#fff"><use xlink:href="#a"/></mask><path d="M.419 4.1c.752-5.771 5.635.257 7.343-2.42.343-.538.413-.832.42-1.278.017-1.278 2.11 4.546 2.11 5.457-1.932 0-1.066.666-1.498-.57-.02-.006-9.228 5.353-8.375-1.19" fill="#A171AE" mask="url(#b)"/></g><path d="M78.174 108.999c-.674-5.78 5.532-1.094 6.538-4.098.203-.604.199-.907.097-1.342-.294-1.244 3.154 3.91 3.375 4.794-1.875.46-.872.9-1.592-.196-.02-.001-7.655 7.395-8.418.842M52.645 47.147c-2.638 2.476-.206 11.514 4.749 11.26 1.267-.064 2.505-.222 2.88-2.043.319-1.55-.022 2.507 3.406 2.003 4.457-.655 6.476-10.178 4.17-11.781-1.933 2.606-2.754 8.938-8.357 8.694-3.967-.173-6.983-8.007-6.848-8.133" fill="#A171AE"/></g></svg>