<svg width="120" height="120" viewBox="0 0 120 120" xmlns="http://www.w3.org/2000/svg"><path d="M89.528 48.142c7.812-.313 21.404 1.25 21.404 6.875 0 5.623-6.718 19.06-21.873 18.747C73.905 73.45 68.28 63.453 67.968 58.61c-.312-4.843 7.187-9.999 21.56-10.468zm-59.056 0c-7.812-.313-21.404 1.25-21.404 6.875 0 5.623 6.718 19.06 21.873 18.747C46.095 73.45 51.72 63.453 52.032 58.61c.312-4.843-7.187-9.999-21.56-10.468zM60 58.61c-2.656 0-3.28-.78-5.78 4.53-2.5 5.313-6.562 13.437-23.748 13.906-17.186.468-24.216-12.81-26.716-17.03-2.5-4.219-6.25-10.312-1.406-13.75 4.843-3.435 16.56-3.748 28.122-2.81 11.561.937 19.842 5.468 23.279 7.81 3.437 2.344 3.905 1.72 6.249 1.72s2.812.624 6.25-1.72c3.436-2.342 11.717-6.873 23.278-7.81 11.562-.938 23.28-.625 28.122 2.81 4.844 3.438 1.094 9.531-1.406 13.75-2.5 4.22-9.53 17.498-26.716 17.03-17.186-.47-21.248-8.593-23.747-13.906-2.5-5.31-3.125-4.53-5.781-4.53z" fill="#87336D" fill-rule="evenodd"/></svg>