<svg width="120" height="120" viewBox="0 0 120 120" xmlns="http://www.w3.org/2000/svg" xmlns:xlink="http://www.w3.org/1999/xlink"><defs><path id="a" d="M.538.626h80.891v46.706H.538z"/><path id="c" d="M0 .202h46.388V25H0z"/></defs><g fill="none" fill-rule="evenodd"><path d="M18.432 101.605s15.483-6.402 26.213-8.353c10.73-1.951 16.25 2.537 16.25 2.537L36.842 107.6s-17.558 2.818-17.363 2.038c.195-.78-1.047-8.034-1.047-8.034" fill="#B27018"/><path d="M62.983 100.572a4.79 4.79 0 0 1-4.784-4.784 4.79 4.79 0 0 1 4.784-4.784 4.788 4.788 0 0 1 4.783 4.784 4.788 4.788 0 0 1-4.783 4.784m12.485-12.978c-1.99-6.507-1.63-1.451-2.653-11.252-.086-.773-.172-1.632-.273-2.599-.203-1.966-.343-4.971-.437-8.67a510.649 510.649 0 0 1-.156-11.275c-.024-3.583-.016-7.398 0-11.27.07-15.34.375-31.642.514-38.798A3.659 3.659 0 0 0 68.804 0H57.162a3.66 3.66 0 0 0-3.66 3.73c.14 7.155.444 23.457.514 38.798.016 3.88.024 7.688 0 11.27-.015 4.142-.07 7.983-.156 11.275-.093 3.699-.233 6.704-.437 8.67-.1.968-.187 1.826-.273 2.599-1.02 9.8-.663 4.745-2.653 11.252-2.146 7.024-2.146 13.072 1.951 16.973 3.191 3.044 7.811 3.12 9.692 3.005a15.294 15.294 0 0 1 1.686 0c1.88.115 6.5.038 9.691-3.005 4.097-3.901 4.097-9.95 1.951-16.973" fill="#A55C34"/><path d="M71.95 53.797H54.015c.024-3.582.016-7.39 0-11.269H71.95a1084.99 1084.99 0 0 0 0 11.27" fill="#8E4D2D"/><g transform="translate(22 3)"><mask id="b" fill="#fff"><use xlink:href="#a"/></mask><path d="M76.597 3.154C70.172.038 67.785.366 57.505 1.186c-10.28.82-16.521.984-16.521.984s-6.242-.163-16.523-.984C14.18.366 11.795.038 5.369 3.154-1.055 6.269.78 23.98.78 23.98s-1.836 17.71 4.588 20.824c6.426 3.116 8.812 2.788 19.092 1.968 10.28-.82 16.523-.983 16.523-.983s6.24.163 16.52.983 12.668 1.148 19.093-1.968c6.426-3.114 4.59-20.825 4.59-20.825s1.836-17.71-4.59-20.825" fill="#ADADAD" mask="url(#b)"/></g><path d="M72.106 65.073H53.86c.086-3.293.14-7.133.156-11.276H71.95c.014 4.143.07 7.983.155 11.276" fill="#C47D58"/><path d="M72.815 76.341H53.15c.086-.772.172-1.631.273-2.598.204-1.966.344-4.971.437-8.67h18.245c.094 3.699.234 6.704.437 8.67.101.967.187 1.826.273 2.598" fill="#8E4D2D"/><path d="M47.474 22.045a8.682 8.682 0 1 1-17.364-.001 8.682 8.682 0 0 1 17.364.001m25.341 11.518a7.308 7.308 0 1 1-14.616 0 7.308 7.308 0 0 1 14.616 0M91.509 16.59a7.31 7.31 0 1 1-14.619 0 7.31 7.31 0 0 1 14.619 0" fill="#999"/><path d="M93.963 36.627a5.901 5.901 0 0 1-5.901 5.901 5.9 5.9 0 1 1 0-11.802 5.902 5.902 0 0 1 5.9 5.901M71.41 15.184a5.902 5.902 0 1 1-11.804-.002 5.902 5.902 0 0 1 11.803.002M50.157 37.932a4.369 4.369 0 1 1-8.738 0 4.369 4.369 0 0 1 8.738 0" fill="#C1C1C1"/><g transform="translate(16 95)"><mask id="d" fill="#fff"><use xlink:href="#c"/></mask><path d="M46.063 1.871a3.962 3.962 0 0 0-4.91-1.293c-4.08 1.926-12.24 5.097-23.043 5.897C2.308 7.645 3.48 4.525 1.334 8.036c-2.147 3.512-1.368 6.633 0 10.145 1.365 3.511 4.486 8.193 9.949 6.437C16.36 22.986 38.97 9.623 45.734 4.236a1.731 1.731 0 0 0 .328-2.365" fill="#E29930" mask="url(#d)"/></g></g></svg>