<svg width="89" height="119" viewBox="-1 -1 89 119" xmlns="http://www.w3.org/2000/svg"><path fill="#005A61" d="M.222 56.282c0-14.683 11.831-26.586 26.424-26.586s26.423 11.903 26.423 26.586v19.192H30.32V56.622c0-2.042-1.645-3.697-3.674-3.697s-3.674 1.655-3.674 3.697v25.309H.222V56.282z"/><path fill="#17242D" d="M26.646 37.303c10.323 0 18.721 8.45 18.721 18.836v19.336h-.698V56.139c0-9.999-8.085-18.134-18.023-18.134-9.938 0-18.023 8.135-18.023 18.134v25.792h-.699V56.139c0-10.386 8.399-18.836 18.722-18.836"/><path fill="#17242D" d="M14.835 81.931V56.774c0-6.553 5.298-11.883 11.811-11.883s11.811 5.33 11.811 11.883v18.701h-.699V56.774c0-6.165-4.985-11.181-11.112-11.181-6.128 0-11.113 5.016-11.113 11.181v25.157h-.698z"/><path fill="none" stroke="#FFDB5D" stroke-width="1.05" d="M47.215 98.954l11.759 10.011c2.427 2.066 2.581 5.778.332 8.039"/><path fill="#751D18" d="M62.625 99.126c3.366-1.536 4.857-5.528 3.33-8.915-1.527-3.387-5.494-4.887-8.861-3.35a6.663 6.663 0 0 0-2.299 1.738l-.003-.004-8.017 9.16c-.677.773-.13 1.988.893 1.986l12.147-.019a6.62 6.62 0 0 0 2.81-.596"/><path fill="#17242D" d="M30.303 75.494c0-6.478 5.219-11.731 11.659-11.731l2.744-.001c.039-.002.083-.009.12-.009h42.05l.007 7.986c0 3.096-1.301 8.418-5.505 12.018-9.371 8.022-20.46 18.41-20.46 18.41L30.303 75.494z"/><path fill="none" stroke="#FFDB5D" stroke-width="1.05" d="M63.714 103.731l16.267 13.85m-9.167-.03c2.161 0 2.161-2.108 4.321-2.108 2.16 0 2.16 2.108 4.32 2.108 2.161 0 2.161-2.108 4.322-2.108 2.162 0 2.162 2.108 4.323 2.108"/><path fill="#751D18" d="M52.713 94.215c-1.454-3.419.123-7.377 3.521-8.84 3.398-1.463 7.332.123 8.786 3.543.395.928.559 1.896.531 2.843l.005-.001-.226 12.204c-.019 1.03-1.237 1.555-1.992.859l-8.952-8.261a6.698 6.698 0 0 1-1.673-2.347"/><path fill="#DE7732" d="M66.745 20.245c.026-.025.054-.049.081-.073a28.975 28.975 0 0 1 2.092-1.739l.213-.159c.3-.223.605-.441.914-.654l.184-.128c.341-.23.687-.453 1.038-.669.111-.069.224-.136.337-.204.113-.068.228-.131.342-.198A30.23 30.23 0 0 1 86.954 42.58v29.397c0 8.342-6.718 15.104-15.008 15.108-8.29-.004-15.008-6.766-15.008-15.108V42.58a30.216 30.216 0 0 1 9.807-22.335"/><path fill="#E8441D" d="M76.95 72.99V20.079a30.2 30.2 0 0 1 10.004 22.502V57.79a16.508 16.508 0 0 1-10.004 15.2"/><path fill="#E8441D" d="M66.946 20.062a30.159 30.159 0 0 1 4.993-3.645 30.2 30.2 0 0 1 5.011 3.662V57.79a16.508 16.508 0 0 1-10.004 15.2V20.062z"/><path fill="#E8441D" d="M56.941 72.716V41.517a30.195 30.195 0 0 1 10.005-21.454V57.79a16.51 16.51 0 0 1-9.986 15.192c-.006-.089-.014-.177-.019-.266"/><path fill="#AD2C24" d="M64.146 21.041c0 4.333 3.491 7.846 7.799 7.846 4.307 0 7.799-3.513 7.799-7.846 0-4.334-3.492-7.847-7.799-7.847-4.308 0-7.799 3.513-7.799 7.847"/><path fill="#CE2235" d="M64.696 23.586l.861-1.169 2.503-.557h6.169l2.613 1.179c3.439.075 6.204 2.898 6.204 6.376 0 3.525-2.84 6.382-6.343 6.382a6.303 6.303 0 0 1-4.715-2.122 6.302 6.302 0 0 1-4.714 2.122c-3.504 0-6.344-2.857-6.344-6.382a6.38 6.38 0 0 1 3.766-5.829"/><path fill="#FFF4E3" d="M73.391 21.07c0 2.083 1.678 3.771 3.748 3.771 2.07 0 3.748-1.688 3.748-3.771s-1.678-3.771-3.748-3.771c-2.07 0-3.748 1.688-3.748 3.771"/><path fill="#17242D" d="M74.581 21.07a2.566 2.566 0 0 0 2.558 2.574 2.567 2.567 0 0 0 2.558-2.574 2.566 2.566 0 0 0-2.558-2.574 2.566 2.566 0 0 0-2.558 2.574"/><path fill="#FFF4E3" d="M63.031 21.099c0 2.083 1.678 3.771 3.748 3.771 2.07 0 3.748-1.688 3.748-3.771s-1.678-3.771-3.748-3.771c-2.07 0-3.748 1.688-3.748 3.771"/><path fill="#17242D" d="M64.221 21.099a2.566 2.566 0 0 0 2.558 2.574 2.566 2.566 0 0 0 2.558-2.574 2.566 2.566 0 0 0-2.558-2.574 2.566 2.566 0 0 0-2.558 2.574"/><path fill="none" stroke="#CE2235" stroke-width="1.05" stroke-linecap="round" d="M71.959.926v19.148"/><path fill="#FFDB5D" d="M73.473 23.061h-3.056v-1.537c0-.849.684-1.538 1.528-1.538s1.528.689 1.528 1.538v1.537z"/><path fill="#B85C39" d="M28.644 34.751c15.602-.007 28.254 12.714 28.26 28.411l.001.622-9.662.004C31.3 63.795 18.37 50.796 18.364 34.755l10.28-.004z"/><path fill="#AD2C24" d="M18.364 34.755h.014l14.249 8.046.006 16.997a29.06 29.06 0 0 1-14.269-25.043"/><path fill="none" stroke="#751D18" stroke-width=".5" d="M18.93 38.732l13.514 7.657M19.732 42.7l12.713 7.202m-10.983-2.71l10.985 6.224m-7.693-.846l7.694 4.359"/><path fill="#573A3C" d="M43.912 52.817a5.507 5.507 0 0 1-4.125-5.337c-.001-3.047 2.453-5.518 5.481-5.519 1.387 0 2.648.525 3.613 1.38a28.407 28.407 0 0 1 8.023 19.821v.622l-9.661.004a28.172 28.172 0 0 1-2.083-.083l.003-.039c-2.975-.06-5.371-2.501-5.372-5.508a5.509 5.509 0 0 1 4.121-5.341"/></svg>