<svg width="120" height="120" viewBox="0 0 120 120" xmlns="http://www.w3.org/2000/svg" xmlns:xlink="http://www.w3.org/1999/xlink"><defs><path id="a" d="M0 .264h119.842v77.431H0z"/></defs><g fill="none" fill-rule="evenodd"><path fill="#1C4D91" d="M35.998 96.447l26.887-2.276 22.781 4.565-4.37-15.035-39.83-3.187z"/><g transform="translate(0 21.04)"><mask id="b" fill="#fff"><use xlink:href="#a"/></mask><path d="M119.842 46.729L82.578 67.076l-13.394 7.317h-.003l-6.049 3.302-6.246-4.057h-.003L40.299 62.872 0 36.713c.671-5.705 5.432-12.249 10.04-17.208a72.223 72.223 0 0 1 3.731-3.733 50.51 50.51 0 0 1 3.64-3.066c5.356-4.106 11.44-7.098 17.866-9.11a67.041 67.041 0 0 1 7.71-1.928 73.23 73.23 0 0 1 5.004-.78A87.69 87.69 0 0 1 63.737.424c3.302.197 6.629.589 9.907 1.202 6 1.12 11.832 2.977 17.06 5.727 3.3 1.736 6.36 3.827 9.063 6.316a36.064 36.064 0 0 1 5.493 6.355c1.36 2.01 2.883 3.936 4.341 5.9 1.498 2.015 2.929 4.073 4.053 6.307.246.491.477.99.695 1.493 1.863 4.328 2.783 9.063 5.493 13.005" fill="#3E68AF" mask="url(#b)"/></g><path d="M41.465 72.367L10.041 40.545a72.223 72.223 0 0 1 3.73-3.733 50.51 50.51 0 0 1 3.64-3.066l24.054 38.62zm7.039-14.337L35.277 24.635a66.994 66.994 0 0 1 7.71-1.927l5.517 35.322zm25.139-35.364L62.886 66.403l.85-44.94c3.303.198 6.63.59 9.907 1.203m26.124 12.042L69.986 74.006l20.719-45.613c3.299 1.736 6.358 3.827 9.062 6.315m14.583 20.056l-33.054 22.44 28.305-30.24c1.498 2.015 2.929 4.073 4.053 6.307.246.491.477.989.695 1.493" fill="#1C4D91"/><path d="M26.51 35.072c1.334-1.307 2.85-2.485 4.677-2.99.943-.262.542-1.726-.403-1.464-2.077.575-3.83 1.893-5.348 3.382-.7.686.375 1.758 1.074 1.072m3.645 5.008c1.061-1.032 2.34-1.701 3.766-2.081.946-.252.544-1.716-.403-1.463-1.674.445-3.193 1.26-4.437 2.47-.702.685.373 1.757 1.074 1.074m6.38 10.015c1.033-.98 2.432-1.622 3.766-2.08.92-.318.525-1.784-.404-1.464-1.589.547-3.207 1.303-4.436 2.47-.711.676.364 1.748 1.074 1.074m16.25-18.091c1.222-.752 2.624-.793 3.972-.378.939.288 1.337-1.177.404-1.463-1.72-.53-3.591-.424-5.142.531-.832.513-.07 1.826.766 1.31m.985 6.477h1.822c.98 0 .98-1.517 0-1.517h-1.823c-.98 0-.98 1.517 0 1.517m17.973 7.712c1.586-.37 3.449-.458 4.73.715.72.66 1.797-.41 1.074-1.072-1.709-1.565-4.056-1.608-6.208-1.106-.953.222-.549 1.685.404 1.463m2.988-7.712c1.075.018 1.888.4 2.653 1.144.701.683 1.776-.39 1.074-1.073-1.051-1.023-2.253-1.563-3.727-1.588-.98-.017-.978 1.5 0 1.517m3.19-6.373c1.389.057 2.602.976 3.717 1.717.818.544 1.578-.77.767-1.31-1.372-.913-2.787-1.855-4.484-1.924-.98-.04-.976 1.477 0 1.517m21.033 12.188c1.38.919 2.592 1.871 3.373 3.37.453.868 1.763.1 1.311-.767-.899-1.724-2.33-2.855-3.917-3.914-.818-.545-1.577.77-.767 1.31m-5.013 7.74c.837.427 1.466 1.043 2.125 1.702.694.692 1.768-.38 1.074-1.073-.744-.743-1.487-1.457-2.432-1.94-.87-.445-1.639.865-.766 1.31M81.565 66.705c-.248-.017.064.051-.089-.018.072.033.14.077.207.12.137.085.243.176.37.285.279.238.539.498.798.757.693.692 1.767-.38 1.074-1.073-.636-.635-1.405-1.521-2.36-1.588-.413-.029-.76.367-.76.759 0 .435.347.73.76.758m16.477 4.449c.644.33 1.16.74 1.669 1.247.693.693 1.767-.38 1.074-1.073-.593-.591-1.228-1.101-1.977-1.484-.87-.445-1.638.864-.766 1.31m10.48-6.828a10.711 10.711 0 0 1 2.918 2.914c.545.806 1.862.047 1.311-.766a12.663 12.663 0 0 0-3.462-3.458c-.814-.55-1.573.765-.767 1.31M5.55 55.102c1.661-1.662 3.297-3.442 3.84-5.797.22-.952-1.245-1.357-1.465-.403-.484 2.102-1.97 3.647-3.45 5.128-.693.692.381 1.765 1.074 1.072m8.202 1.366c.847-.845 1.704-1.672 2.855-2.08.916-.326.521-1.793-.404-1.464-1.413.502-2.48 1.427-3.525 2.471-.693.693.38 1.766 1.074 1.073M46.862 71.61c1.108-.537 2.298-.901 3.464-1.29.924-.308.528-1.773-.404-1.463-1.292.43-2.599.848-3.827 1.442-.881.426-.111 1.735.767 1.31M21.16 66.33c.866-1.244 2.131-2.087 3.374-2.915.81-.54.05-1.855-.767-1.31-1.473.982-2.895 1.988-3.918 3.459-.56.806.757 1.563 1.312.766m7.474 5.735c.79-.406 1.488-.96 2.278-1.366.871-.448.103-1.757-.767-1.31-.79.406-1.488.96-2.278 1.365-.871.448-.103 1.758.767 1.31" fill="#5582C2"/></g></svg>