<svg width="120" height="120" viewBox="0 0 120 120" xmlns="http://www.w3.org/2000/svg" xmlns:xlink="http://www.w3.org/1999/xlink"><defs><path id="a" d="M.2.3h13.173v5.567H.2z"/></defs><g fill="none" fill-rule="evenodd"><path fill="#F7D170" d="M17.683 111.112h85.821V79.728H17.683z"/><path fill="#EA5A26" d="M17.683 81.18h85.821v-1.455H17.683zm0 29.932h85.821v-1.46H17.683z"/><path fill="#343434" d="M22.722 105.283h.996v-4.832h-.996zm6.368 0h.996v-6.685h-.995zm6.369 0h.996v-4.832h-.996zm6.364 0h.998v-4.832h-.998zm6.366 0h.996v-6.685h-.996zm6.368 0h.996v-4.832h-.996zm6.368 0h.996v-4.832h-.996zm6.366 0h.998v-6.685h-.998zm6.366 0h.996v-4.832h-.996zm6.368 0h.996v-4.832h-.996zm6.369 0h.993v-6.685h-.993zm6.368 0h.991v-4.832h-.991zm6.364 0h.996v-4.832h-.996zM26.728 91.485l.554-5.328h5.32v1.533h-3.758l-.262 2.226c.18-.133.406-.242.679-.328a3.34 3.34 0 0 1 .884-.14c.889-.012 1.571.262 2.063.824.485.559.73 1.345.73 2.357 0 .936-.265 1.7-.795 2.295-.53.6-1.337.898-2.425.898-.88 0-1.63-.23-2.254-.697-.624-.465-.93-1.101-.908-1.911l.015-.034 1.842-.084c0 .396.122.705.36.928.239.223.554.332.945.332.455 0 .788-.148.992-.441.21-.3.313-.723.313-1.273 0-.551-.114-.986-.341-1.312-.228-.323-.563-.488-1.01-.488-.368 0-.647.068-.843.205a1.104 1.104 0 0 0-.416.549l-1.685-.111zm22.172-.57c-.348 0-.642.056-.884.167a1.369 1.369 0 0 0-.57.461v.51c0 .733.138 1.3.407 1.704.268.4.624.597 1.064.597.397 0 .715-.165.949-.497.238-.334.356-.754.356-1.262 0-.523-.12-.932-.358-1.232-.236-.298-.563-.448-.964-.448m.401-4.896a4.88 4.88 0 0 1 1.975.4l-.34 1.4a6.793 6.793 0 0 0-.8-.225 3.873 3.873 0 0 0-.82-.075c-.558 0-1.008.214-1.352.64-.345.43-.517 1.023-.517 1.788v.306c.253-.249.558-.444.91-.579a3.18 3.18 0 0 1 1.176-.205c.818 0 1.455.29 1.915.866.457.578.689 1.335.689 2.26 0 .956-.299 1.734-.893 2.33-.595.597-1.372.897-2.327.897-.994 0-1.807-.338-2.436-1.022-.627-.68-.938-1.61-.938-2.792v-1.997c0-1.206.354-2.175 1.065-2.901.708-.727 1.61-1.091 2.693-1.091m38.7 2.697c0-.375-.098-.67-.296-.891-.195-.223-.45-.33-.766-.33-.356 0-.644.105-.859.321-.212.216-.322.516-.322.9 0 .388.11.7.329.936.219.243.509.358.865.358a.93.93 0 0 0 .76-.351c.193-.238.29-.55.29-.943m.313 4.224c0-.427-.133-.774-.395-1.048a1.31 1.31 0 0 0-.981-.407c-.427 0-.783.135-1.067.407-.287.274-.427.621-.427 1.048 0 .43.14.773.423 1.032.281.258.644.384 1.084.384.393 0 .719-.126.976-.384.26-.259.387-.602.387-1.032m1.597-4.31c0 .472-.127.892-.37 1.254a2.49 2.49 0 0 1-1.01.855c.519.214.933.52 1.24.92.305.398.457.854.457 1.37 0 .881-.304 1.567-.92 2.06-.614.488-1.398.733-2.357.733-1 0-1.822-.245-2.466-.733-.642-.493-.962-1.179-.962-2.06 0-.516.157-.972.474-1.37.316-.4.747-.706 1.288-.92a2.55 2.55 0 0 1-1.058-.855 2.126 2.126 0 0 1-.384-1.254c0-.838.285-1.48.858-1.933.571-.45 1.32-.679 2.237-.679.88 0 1.593.23 2.146.68.55.452.827 1.094.827 1.932m-18.715-1c-1.08 1.26-1.815 2.395-2.204 3.405-.386 1.011-.581 2.168-.581 3.473v1.177h-1.913v-1.177c0-1.326.24-2.537.728-3.63.487-1.093 1.195-2.175 2.129-3.248h-4.872v-1.472h6.713v1.472zM21.656 49.314c8.272 12.818 19.317 2.123 15.56-9.21-2.727-8.224 12.074 2.674 12.074 2.674s-8.667 23.848-16.186 24.206c-7.516.353-11.478-11.314-11.448-17.67"/><path d="M50.663 111.858l.107-4.02-.756-15.192s4.336-4.751 6.326-5.302c1.43-.396 5.863.913 5.863.913l-1.888 19.581-.075 4.02h-.01c1.821 1.125 3.141 3.416 1.583 5.283-1.179 1.313-2.906.276-4.224-.277-1.458-.692-3.119-1.178-4.437-2.078-.847-.592-1.783-1.305-2.356-2.188-.179-.275-.198-.487-.133-.74m-11.158 0h-.004l-.058-4.02-1.908-19.581s4.372-1.326 5.784-.943c2.014.55 6.407 5.332 6.407 5.332l-.747 15.192-.1 4.02h-.005c.065.264.311.53.135.804-.575.885-1.577 1.532-2.425 2.124-1.316.9-2.979 1.386-4.436 2.078-1.316.553-3.048 1.59-4.224.277-1.559-1.867-.239-4.162 1.581-5.283" fill="#FDDFBB"/><path d="M62.417 85.39s.221 2.294-.214 2.868c-4.984-.073-12.187 4.388-12.187 4.388h-.29s-6.997-4.592-12.191-4.388c-.434-.574-.215-2.867-.215-2.867h25.097z" fill="#23784C"/><path d="M40.719 88.618c-1.215-.935-2.597-1.762-3.451-2.261.01-.53.051-.94.051-.94h2.53c.894.993 3.506 3.168 5.081 4.677-1.307-.578-2.76-1.133-4.211-1.476m21.753-2.256c-.887.514-2.331 1.39-3.58 2.365-1.46.375-2.937.952-4.254 1.532 1.551-1.508 4.322-3.85 5.252-4.842h2.528s.04.413.054.945M48.98 107.838h-9.537l-.24 4.04h.01a5.99 5.99 0 0 0-.914.722v2.59h7.764c.148-.09.296-.18.438-.276.873-.613 1.9-1.288 2.491-2.198.185-.279.273-.573.209-.838h-.022l-.2-4.04z" fill="#EEEEED"/><path fill="#0771B7" d="M49.003 108.297h-9.588l-.01.197h9.606zm.018.395h-9.628l-.013.2h9.65z"/><path d="M62.178 113.424a5.803 5.803 0 0 0-1.635-1.547h.008l-.236-4.037h-9.544l-.2 4.037h-.01c-.065.265.02.559.203.84.59.91 1.62 1.579 2.496 2.19.142.096.288.193.436.282h8.482v-1.765z" fill="#EEEEED"/><path fill="#0771B7" d="M50.736 108.493h9.616l-.011-.197h-9.594zm-.021.398h9.66l-.012-.2h-9.635z"/><path d="M39.23 111.877l4.723-.355s-1.264-1.734-2.938-1.653c-1.615.082-1.812 1.998-1.812 1.998l.028.01z" fill="#6E6E6D"/><path d="M39.832 111.697l3.248-.246s-.874-1.192-2.02-1.136c-1.11.056-1.245 1.372-1.245 1.372l.017.01z" fill="#0771B7"/><path d="M39.23 111.877l-.027-.008v.008h.01c-1.87 1.194-3.234 3.527-1.628 5.445 1.212 1.357 2.996.292 4.35-.278 1.498-.714 3.21-1.207 4.566-2.132.873-.613 1.9-1.286 2.491-2.197.185-.28.273-.572.209-.838v-1.787s-.123-.182-.535 0c-.828.362-1.373 1.993-3.136 1.787-4.359-1.21-6.3 0-6.3 0" fill="#E63744"/><path d="M48.864 112.903l-.216-.198s-2.243 2.27-4.18 2.831l.179.358c.65-.28 1.285-.594 1.852-.984.816-.57 1.762-1.189 2.365-2.007m-9.634-1.026l-.027-.01v.004h.01c-.05.064-.107.068-.156.107-.288.634-.251 1.307 1.206 1.296 1.134-.008 2.735-1.045 3.69-1.752-3.252-.562-4.722.355-4.722.355" fill="#343434"/><path d="M39.16 113.116c-.492 0-.968.039-1.432.107l-.013.017c-.925 1.211-1.245 2.75-.129 4.083 1.21 1.356 2.995.29 4.349-.28 1.037-.49 2.18-.882 3.23-1.383-1.202-1.522-3.443-2.544-6.005-2.544" fill="#343434"/><path d="M49.145 110.289c-.42 0-.762.778-.762 1.74 0 .465.08.891.21 1.2.149-.163.282-.334.4-.514.184-.281.272-.572.206-.838v-1.584a.453.453 0 0 0-.054-.004m-11.035 2.524c-.013 0-.028-.009-.03-.024-.005-.02.004-.036.023-.04.021-.007 2.136-.521 4.849-.016.017.005.032.022.025.039 0 .017-.021.028-.036.026-2.702-.502-4.8.01-4.823.015h-.009zm.557-.511c-.013 0-.026-.006-.03-.021-.006-.02 0-.037.021-.041.018-.009 1.984-.654 4.712-.034.017.004.028.023.025.04-.004.017-.023.03-.04.024-2.711-.613-4.658.026-4.675.032h-.013z" fill="#EEEEED"/><path d="M60.529 111.877l-4.727-.355s1.269-1.734 2.939-1.653c1.616.082 1.813 1.998 1.813 1.998l-.025.01z" fill="#6E6E6D"/><path d="M59.925 111.697l-3.25-.246s.874-1.192 2.025-1.136c1.107.056 1.242 1.372 1.242 1.372l-.017.01z" fill="#0771B7"/><path d="M60.529 111.877l.025-.008-.002.008h-.008c1.871 1.194 3.23 3.527 1.63 5.445-1.214 1.357-2.995.292-4.352-.278-1.498-.714-3.209-1.207-4.563-2.132-.876-.613-1.904-1.286-2.496-2.197-.183-.28-.27-.572-.204-.838v-1.787s.118-.182.534 0c.827.362 1.372 1.993 3.132 1.787 4.361-1.21 6.304 0 6.304 0" fill="#E63744"/><path d="M50.895 112.903l.217-.198s2.239 2.27 4.175 2.831l-.176.358c-.653-.28-1.284-.594-1.85-.984-.816-.57-1.763-1.189-2.366-2.007m9.634-1.026l.025-.01-.002.004h-.008c.051.064.103.068.154.107.29.634.253 1.307-1.204 1.296-1.133-.008-2.732-1.045-3.692-1.752 3.252-.562 4.727.355 4.727.355" fill="#343434"/><path d="M60.598 113.116c.491 0 .97.039 1.43.107.006.005.01.013.014.017.925 1.211 1.247 2.75.131 4.083-1.213 1.356-2.994.29-4.35-.28-1.037-.49-2.179-.882-3.233-1.383 1.204-1.522 3.443-2.544 6.008-2.544" fill="#343434"/><path d="M50.612 110.289c.421 0 .762.778.762 1.74 0 .465-.081.891-.212 1.2a4.346 4.346 0 0 1-.4-.514c-.182-.281-.27-.572-.201-.838v-1.584a.331.331 0 0 1 .051-.004m11.036 2.524c.013 0 .028-.009.03-.024.004-.02-.006-.036-.024-.04-.021-.007-2.135-.521-4.848-.016a.039.039 0 0 0-.03.039.04.04 0 0 0 .043.026c2.698-.502 4.797.01 4.818.015h.011zm-.56-.511c.015 0 .028-.006.035-.021.004-.02-.007-.037-.024-.041-.02-.009-1.983-.654-4.709-.034-.02.004-.032.023-.028.04s.022.03.04.024c2.71-.613 4.654.026 4.678.032h.008z" fill="#EEEEED"/><path d="M26.267 79.02c.105-.998.44-1.89.918-2.58l-.008.063s1.419-14.207 5.121-18.93c1.698-2.162 7.555-5.3 8.238-5.664 1.294-.934 4.21-1.354 6.024-1.525-.304-.667-.487-1.393-.487-1.92h7.66c0 .527-.18 1.24-.482 1.903 1.785.173 4.73.597 6.072 1.525 0 0 2.32.834 3.095 1.108 1.98.54 8.615 3.084 8.615 3.084l5.553-6.51a4.413 4.413 0 0 1-.209-.84c-.356-.647-.65-1.455-.826-2.36-.46-2.365.054-4.45 1.148-4.665.586-.111 1.217.335 1.75 1.136 1.178-1.13 2.633-1.6 3.846-1.088 1.859.786 2.451 3.585 1.32 6.248-.726 1.71-1.985 2.949-3.284 3.412 0 0-3.462 9.814-6.48 10.907-2.44.883-11.354-2.692-11.354-2.692v-.013c1.676 10.2-.08 25.773-.08 25.773H37.319s-1.502-14.135-.156-24.298v.006c-.198.54-1.282 1.498-2.145 2.71-1.718 2.428-3.327 12.69-3.327 12.69.04.068.077.141.113.214.434.424.861.996 1.215 1.663.934 1.757 1.03 3.527.217 3.958-.434.229-1.039.03-1.653-.476-.659 1.174-1.693 1.896-2.773 1.78-1.657-.175-2.799-2.24-2.543-4.617" fill="#FDDFBB"/><path d="M46.892 50.992l6.81-2.243.015-.016c-1.268.217-2.571.33-3.9.33-1.27 0-2.517-.1-3.73-.3.069.66.373 1.571.805 2.23" fill="#EEAC6C"/><path d="M57.074 50.992a20.817 20.817 0 0 0-1.865-.377c0 .002 1.048 9.351-5.338 9.351-5.47 0-4.21-9.469-4.21-9.469h-.117c-.749.092-1.577.22-2.367.4l-.002.014c-.254 10.6-6.31 13.185-6.31 13.185l-.018.053c-.184 2.402-.25 4.914-.242 7.335h26.612c.022-2.65-.04-5.408-.257-8.012v-.004s-5.222-2.705-5.886-12.476" fill="#23784C"/><path d="M38.31 63.146v8.368h.861v-9.17c-.302.314-.592.58-.86.802m22.349-1.739v10.108h.86v-9.167a11.19 11.19 0 0 1-.86-.941" fill="#EEEEED"/><path d="M27.223 29.344a23.787 23.787 0 0 1-.258-3.476c0-12.771 10.369-23.121 23.159-23.121s23.16 10.35 23.16 23.121c0 1.125-.082 2.233-.237 3.317 1.335.731 2.239 2.109 2.239 3.69 0 2.347-1.984 4.247-4.426 4.247-.163 0-.329-.008-.487-.025-3.954 7.095-11.54 11.89-20.249 11.89-8.701 0-16.28-4.787-20.238-11.869a7.012 7.012 0 0 1-.208.004c-2.443 0-4.421-1.9-4.421-4.247 0-1.472.78-2.77 1.966-3.531" fill="#FDDFBB"/><path d="M45.311 24.65s-.503 1.803-2.082 1.446c-.772-.174-.908-1.201-3.386-.74-.779.18-2.417 1.156-2.732 1.808-.316.652-.088-2.392 2.457-3.522 1.835-.675 2.457-.642 3.977-.642s1.987.907 1.766 1.65m9.741 0s.503 1.803 2.082 1.446c.772-.174.908-1.201 3.386-.74.779.18 2.417 1.156 2.732 1.808.316.652.087-2.392-2.457-3.522-1.835-.675-2.457-.642-3.977-.642s-1.987.907-1.766 1.65M43 32c0 1.657-.895 3-2 3s-2-1.343-2-3 .895-3 2-3 2 1.343 2 3m18 0c0 1.657-.895 3-2 3s-2-1.343-2-3 .895-3 2-3 2 1.343 2 3" fill="#343434"/><path d="M50.02 35.07c.839-.115 2.96 1.756 2.96 1.756s.103-.414-.34-1.238C52.163 34.703 49.99 34 49.99 34s-1.687.448-2.487 1.604c-.296.29-.503 1.299-.503 1.299s1.895-1.681 3.02-1.834z" fill="#EEAC6C"/><g transform="translate(43 38)"><mask id="b" fill="#fff"><use xlink:href="#a"/></mask><path d="M.2.696S7.097 3.904 13.372.299c0 0-1.39 5.47-5.95 5.561-4.115.122-4.984-1.492-5.477-1.956C1.453 3.441.525 2.132.2.696" fill="#EEAC6C" mask="url(#b)"/></g><path d="M74.1 23.083a44.773 44.773 0 0 0-.274-4.228C70.733 8.735 61.302 1.369 50.15 1.369c-9.708 0-18.113 5.582-22.164 13.708-1.124 3.193-1.811 6.334-1.867 7.753-.2 4.918 1.228 6.546 1.228 6.546s4.15-5.732 9.064-9.178c3.859-2.706 7.297 2.523 11.882-1.956.406-.4 1.94-1.946 1.94-1.946s1.258 1.41 1.936 1.946c4.076 3.21 6.351-.44 10.912 2.038 3.733 2.03 9.85 9.261 9.85 9.261s1.208-3.756 1.17-6.458" fill="#343434"/></g></svg>