<svg width="120" height="120" viewBox="0 0 120 120" xmlns="http://www.w3.org/2000/svg" xmlns:xlink="http://www.w3.org/1999/xlink"><defs><path id="a" d="M0 2.366h22.058v27.641H0z"/><path id="c" d="M0 .538h22.057v13.106H0z"/><path id="e" d="M.778.916h2.326v2.728H.778z"/><path id="g" d="M1.375 1.04h1.729v2.727H1.375z"/><path id="i" d="M.253.103H2.97v2.624H.253z"/></defs><g fill="none" fill-rule="evenodd"><path d="M27.257 19.013S15.167 10.389 19.75 5.99c4.58-4.399 25.103-5.397 38.253 0 13.149 5.397 33.072 18.396 36.26 45.581 3.188 27.188-17.526 70.97-67.935 61.375 0 0-11.391-18.164-2.112-24.077 0 0 14.348-8.31 17.294-19.303 2.944-10.997 4.824-15.126 0-32.752 0 0-1.568-7.778-14.253-17.801" fill="#D88D40"/><path d="M27.257 19.013c.451 2.853 4.055-5.842 6.257-7.977-.095.079.484-.581.546-.666.185-.256.37-.51.541-.777.413-.638.796-1.296 1.169-1.956.723-1.276 1.467-2.522 2.326-3.714.384-.535 3.898-2.817 4.308-3.33-8.439-2.34-19.993 2.844-22.654 5.397a3.353 3.353 0 0 0-.826 1.217c-1.324 4.519 7.061 3.76 8.333 11.806" fill="#F1B46D"/><path d="M37.483 10.389s-3.189 4.399-2.99 9.196c.198 4.8-6.376 4.598-7.77-2.4-1.395-6.995.597-16.99 10.76-16.99 10.16 0 6.773 3.198 6.773 3.198s-4.84 3.336-6.773 6.996" fill="#F1B46D"/><path d="M38.278 33.18s-5.178-10.519.796-21.651C45.054.393 58.203-.008 63.582 5.392c5.379 5.398 4.381 6.598 0 7.997-4.384 1.399-15.857 13.693-20.52 23.389-2.792 5.8-4.35-2.567-4.784-3.597" fill="#F1B46D"/><path d="M43.26 47.375s-6.575-7.55 13.945-26.965C77.725.992 92.071 32.181 90.08 36.38c-1.992 4.197-3.985-1.4-11.557-2.4-7.57-.999-19.126 4.8-25.698 9.395-6.577 4.598-7.572 5.798-9.564 4" fill="#F1B46D"/><path d="M43.857 54.97s2.889-13.994 29.09-17.793c26.196-3.8 24.307 23.19 23.706 28.189-.598 4.999-3.783 20.792-9.562 18.99-5.778-1.798-5.58-12.592-19.84-19.991-7.72-4.004-29.945-.276-23.394-9.396" fill="#F1B46D"/><path d="M40.07 72.365s.998-7.6 5.977-8.397c4.982-.805 19.064-3.093 29.487 8.397C85.96 83.852 86.292 88.16 85.1 92.356c-1.196 4.197-20.92 21.791-25.103 17.591-4.186-4.197-6.458-23.65-15.2-31.19-5.563-4.796-4.726-6.392-4.726-6.392" fill="#F1B46D"/><path d="M26.327 99.152s.595-14.796 7.17-20.79c6.574-5.998 14.745 5.195 16.536 10.393 1.794 5.198 12.85 22.593 1.843 26.19-11.008 3.595-24.949 3.595-25.55-15.793" fill="#F1B46D"/><g transform="translate(7 84.056)"><mask id="b" fill="#fff"><use xlink:href="#a"/></mask><path d="M0 17.695s.994-7.29 17.134-14.839c0 0 3.585-2.954.994 5.643-2.59 8.596 1.593 16.99 3.588 19.592 1.992 2.6-5.381 1.8-5.381 1.8S.198 26.891 0 17.695" fill="#F1B46D" mask="url(#b)"/></g><path d="M42.403.592c-.138.213-.28.346-.28.346s-4.84 3.338-6.775 6.998c0 0-3.186 4.4-2.987 9.197.127 3.052-2.485 4.077-4.762 2.623 2.253 4.38 7.064 3.947 6.893-.171-.199-4.798 2.99-9.197 2.99-9.197 1.934-3.66 6.772-6.995 6.772-6.995s2.06-1.945-1.85-2.801M66.675 9.05c-.59.609-1.69 1.064-3.185 1.539-4.381 1.401-15.857 13.696-20.52 23.389-2.792 5.798-4.35-2.567-4.782-3.598 0 0-1.576-3.199-1.986-7.936-.142 6.232 2.076 10.737 2.076 10.737.435 1.031 1.992 9.396 4.784 3.598 4.661-9.699 16.136-21.99 20.518-23.392 3.15-1.004 4.55-1.907 3.095-4.337m23.359 24.418a1.45 1.45 0 0 1-.046.112c-1.993 4.197-3.985-1.4-11.554-2.4-7.573-1.001-19.127 4.797-25.704 9.395-6.575 4.598-7.57 5.801-9.562 3.998 0 0-.565-.649-.848-2.061-.358 3.368.94 4.862.94 4.862 1.99 1.798 2.988.598 9.562-4 6.575-4.596 18.13-10.394 25.701-9.396 7.57 1 9.562 6.597 11.554 2.4.267-.556.242-1.585-.043-2.91m6.808 24.08c0 2.247-.163 4.047-.28 5.02-.598 4.997-3.786 20.79-9.564 18.99-5.776-1.797-5.578-12.594-19.836-19.99-6.115-3.17-21.328-1.495-24.135-5.19-3.28 7.317 16.935 4.208 24.225 7.988 14.26 7.396 14.06 18.193 19.838 19.99 5.778 1.803 8.964-13.99 9.565-18.992.16-1.347.413-4.3.187-7.816m-35.457 45.544c-4.183-4.2-6.455-23.65-15.196-31.189-2.57-2.214-3.772-3.744-4.324-4.756-1.421 2.389-1.794 5.217-1.794 5.217s-.837 1.598 4.727 6.396c8.74 7.538 11.013 26.991 15.196 31.186 4.185 4.2 23.91-13.394 25.105-17.591.43-1.52.664-3.05.291-4.928-4.433 6.033-20.3 19.38-24.005 15.665m-4.825 3.024c-.231 2.752-1.563 4.978-4.776 6.03-10.583 3.458-23.88 3.592-25.418-13.65-.03.426-.04.655-.04.655.6 19.388 14.543 19.388 25.548 15.793 4.246-1.385 5.208-4.827 4.686-8.828M25.04 89.755c-.81 2.684-.96 5.354-.718 7.828.051-1.637.296-3.33.807-5.027 1.128-3.747 1.084-5.299.674-5.858-.144.807-.389 1.811-.764 3.057" fill="#E49C4E"/><g transform="translate(7 100.42)"><mask id="d" fill="#fff"><use xlink:href="#c"/></mask><path d="M21.716 11.728c-.231-.303-.49-.682-.767-1.132-1.642.464-4.705.134-4.705.134S2.49 8.17.222.538C.037 1.048 0 1.33 0 1.33c.199 9.197 16.338 12.197 16.338 12.197s7.37.799 5.379-1.8" fill="#E49C4E" mask="url(#d)"/></g><path d="M66.281 28.016c1.15 0 1.153-1.794 0-1.794-1.15 0-1.152 1.794 0 1.794M80.589 43.57c1.15 0 1.152-1.794 0-1.794-1.15 0-1.153 1.794 0 1.794m-3.577-17.349c1.15 0 1.153-1.794 0-1.794-1.15 0-1.152 1.794 0 1.794m-7.154-4.187c1.15 0 1.152-1.794 0-1.794-1.15 0-1.153 1.794 0 1.794m2.384 22.133c1.15 0 1.153-1.795 0-1.795-1.15 0-1.152 1.795 0 1.795m-8.346.599c1.15 0 1.153-1.795 0-1.795-1.15 0-1.152 1.795 0 1.795m4.77 14.957c1.15 0 1.152-1.794 0-1.794-1.15 0-1.153 1.794 0 1.794m10.731-1.198c1.15 0 1.153-1.795 0-1.795-1.15 0-1.152 1.795 0 1.795m-5.366-25.124c1.15 0 1.153-1.794 0-1.794-1.15 0-1.152 1.794 0 1.794m10.732 26.322c1.15 0 1.152-1.794 0-1.794-1.15 0-1.153 1.794 0 1.794m1.789-5.385c1.15 0 1.152-1.794 0-1.794-1.15 0-1.153 1.794 0 1.794m-5.366 22.135c1.15 0 1.153-1.794 0-1.794-1.15 0-1.152 1.794 0 1.794m-15.502 1.795c1.15 0 1.152-1.794 0-1.794-1.15 0-1.153 1.794 0 1.794m-2.979-8.376c1.15 0 1.152-1.794 0-1.794-1.15 0-1.153 1.794 0 1.794M54.358 81.26c1.15 0 1.153-1.795 0-1.795-1.15 0-1.152 1.794 0 1.794m7.749 12.561c1.15 0 1.153-1.795 0-1.795-1.15 0-1.152 1.795 0 1.795m7.156-4.187c1.15 0 1.152-1.795 0-1.795-1.15 0-1.152 1.795 0 1.795m-17.29-14.356c1.15 0 1.153-1.794 0-1.794-1.15 0-1.152 1.794 0 1.794M54.358 101c1.15 0 1.153-1.794 0-1.794-1.15 0-1.152 1.794 0 1.794m-9.539-2.99c1.15 0 1.152-1.795 0-1.795-1.15 0-1.153 1.794 0 1.794m-2.981-9.572c1.15 0 1.153-1.795 0-1.795-1.15 0-1.152 1.795 0 1.795m-4.77 7.18c1.15 0 1.153-1.794 0-1.794-1.15 0-1.152 1.794 0 1.794m27.424-8.975c1.15 0 1.153-1.795 0-1.795-1.15 0-1.152 1.795 0 1.795m10.733-3.588c1.15 0 1.152-1.794 0-1.794-1.15 0-1.153 1.794 0 1.794m-4.77-32.304c1.15 0 1.152-1.794 0-1.794-1.15 0-1.153 1.795 0 1.795" fill="#F6F9F8"/><g transform="translate(107.564 97.693)"><mask id="f" fill="#fff"><use xlink:href="#e"/></mask><path d="M1.641 2.71c1.15 0 1.153-1.794 0-1.794-1.15 0-1.152 1.795 0 1.795" fill="#F6F9F8" mask="url(#f)"/></g><path d="M98.474 107.581c1.15 0 1.153-1.794 0-1.794-1.15 0-1.152 1.794 0 1.794" fill="#F6F9F8"/><g transform="translate(107.564 111.329)"><mask id="h" fill="#fff"><use xlink:href="#g"/></mask><path d="M2.239 2.835c1.15 0 1.152-1.795 0-1.795-1.15 0-1.153 1.795 0 1.795" fill="#F6F9F8" mask="url(#h)"/></g><g transform="translate(102.128 114.056)"><mask id="j" fill="#fff"><use xlink:href="#i"/></mask><path d="M1.116 1.897c1.15 0 1.152-1.794 0-1.794-1.15 0-1.152 1.794 0 1.794" fill="#F6F9F8" mask="url(#j)"/></g></g></svg>