<svg width="480" height="360" viewBox="0 0 480 360" xmlns="http://www.w3.org/2000/svg" xmlns:xlink="http://www.w3.org/1999/xlink"><defs><path id="a" d="M0 0h512v511H0z"/></defs><g transform="translate(0 -144)" fill="none" fill-rule="evenodd"><mask id="b" fill="#fff"><use xlink:href="#a"/></mask><path fill="#81CDE6" mask="url(#b)" d="M0 511h512V0H0z"/><path d="M439.8 71.966c-19.345 6.95-38.366 14.801-57.898 21.225-18.593 6.115-37.531 11.29-56.812 14.739-38.832 6.946-78.526 7.36-117.117-1.26-19.786-4.419-39.14-10.46-58.493-16.454-19.97-6.182-39.93-12.936-60.903-14.56-10.247-.797-20.54-.785-30.795-.136-10.308.654-20.563 1.622-30.566 4.3C15.916 82.842 5.04 87.172-6 90.982V516h524V50c-.78.086-1.56.19-2.34.282-25.833 4.873-51.198 12.823-75.86 21.684" fill="#2199BA" mask="url(#b)"/><path d="M40.626 282c-9.221 0-18.443-.292-27.616-.874A251.856 251.856 0 0 1 0 279.953v-18.738c2.01.055 4.02.1 6.029.133 4.123.069 8.258.103 12.403.103 19.074 0 38.326-.725 57.195-2.117 20.38-1.507 40.547-4.773 58.478-11.743 13.864-5.388 27.464-13.12 33.282-23.558 6.153-11.041-1.811-21.618-12.019-30.103-22.113-18.39-57.668-27.661-90.05-34.342-21.332-4.399-43.22-8.204-65.318-10.306V141c17.328 1.544 34.588 4.027 51.505 6.567 23.61 3.543 46.998 7.741 70.45 11.732 23.441 3.989 47.108 8.142 71.041 10.497 12.414 1.223 24.864 1.774 37.307 1.774 34.605-.002 69.146-4.257 102.633-10.16 23.55-4.15 46.541-9.81 70.4-13.1 22.286-3.073 45.04-4.214 67.751-4.214 1.088 0 2.177.003 3.265.008 12.575.059 25.12.46 37.648 1.061v7.005a557.328 557.328 0 0 0-27.42-.693c-16.148 0-32.435.892-48.441 2.315-6.952.617-13.937 1.469-20.534 3.127-4.658 1.18-9.577 2.98-11.862 6.142-4.004 5.534 1.945 10.323 8.498 13.19 9.763 4.266 21.796 6.265 32.99 7.913 8.782 1.296 17.725 2.295 26.677 2.843 6.114.374 12.27.475 18.44.475 3.584 0 7.172-.035 10.756-.068 3.583-.034 7.164-.068 10.735-.068H512v17.451c-14.407-1.822-28.802-3.778-43.275-5.2a15.526 15.526 0 0 0-6.156-1.265c-1.21 0-2.39.14-3.523.402-5.79-.46-11.6-.813-17.43-1.015-3.216-.11-6.441-.163-9.677-.163-17.004 0-34.219 1.44-50.862 3.365-20.459 2.367-40.539 6.117-60.098 10.824-39.363 9.469-76.32 23.003-112.52 37.039-19.87 7.703-39.863 14.782-61.373 20.147-21.092 5.262-43.006 8.96-65.233 11.102A430.418 430.418 0 0 1 40.626 282M324.03 170.45c-17.247 0-34.564 2.16-51.05 5.39-10.998 2.153-21.76 4.998-32.124 8.3-.855.272-1.696.561-2.54.853-1.758.54-3.504 1.095-5.225 1.68-11.943 4.076-28.134 13.188-22.44 23.666 2.359 4.34 9.244 6.529 15.352 7.614 4.218.748 8.575 1.047 12.956 1.047 5.635 0 11.304-.495 16.75-1.161 22.557-2.757 44.733-8.41 65.56-14.826 9.628-2.969 19.103-6.265 28.216-9.926 5.61-2.252 11.79-5.177 14.401-9.406 2.67-4.326-3.292-7.713-8.255-9.52-7.047-2.564-15.529-3.218-23.378-3.543a197.441 197.441 0 0 0-8.223-.168M0 498v-9.252a1156.57 1156.57 0 0 0 14.01-2.8c37.405-7.71 78.237-18.054 102.075-36.722 11.006-8.616 19.104-19.171 10.477-29.638-8.155-9.896-25.166-16.871-42.198-21.564-.523-.145-1.046-.286-1.57-.425a9.748 9.748 0 0 0-14.079-3.229c-17.61-3.435-36.216-4.97-54.84-5.491-4.611-.13-9.24-.23-13.875-.299V368c6.23.097 12.458.288 18.671.575 26.506 1.226 52.836 3.975 78.386 8.269 26.055 4.38 50.532 10.476 74.94 17.184 44.472 12.224 89.772 23.932 137.413 31.606 23.67 3.815 47.843 6.685 72.288 8.195 14.817.918 29.97 1.56 45.04 1.56 9.003 0 17.977-.228 26.825-.767 19.756-1.203 39.134-3.61 58.437-6.247v14.32c-7.162.234-14.297.565-21.35 1.153-10.501.874-20.936 2.183-31.144 3.773-13.015 2.025-26.972 4.421-37.973 8.93-7.38 3.028-13.817 7.898-8.408 13.11 3.09 2.978 9.12 4.536 14.764 5.5 7.995 1.354 16.345 1.915 24.63 2.247 11.663.47 23.422.743 35.16.743 8.13 0 16.252-.132 24.321-.419v7.041c-4.385.216-8.774.406-13.172.564a880.877 880.877 0 0 1-32.002.604c-17.494 0-34.994-.584-52.36-1.97-28.572-2.275-56.415-6.883-84.732-10.007-33.476-3.692-67.67-6.255-101.73-6.255-21.633 0-43.215 1.033-64.518 3.469-27.965 3.197-55.392 8.126-82.575 12.89C53.985 488.784 27.158 493.695 0 498m216.569-76.343c-6.823 0-13.631.42-20.054 1.584-7.077 1.287-14.937 3.671-17.183 7.967-5.433 10.374 14.81 18.588 29.412 22.082 2.103.5 4.235.973 6.376 1.432 1.03.25 2.06.496 3.101.726 12.643 2.806 25.703 5.154 38.951 6.82 16.604 2.091 33.8 3.435 50.89 3.435 6.607 0 13.2-.201 19.733-.637 9.227-.613 19.16-1.573 27.162-4.328 5.635-1.942 12.256-5.453 8.573-9.541-3.607-4-11.262-6.6-18.165-8.569-11.208-3.198-22.803-6.032-34.534-8.542-25.381-5.424-52.26-10.056-79.23-11.868-4.922-.33-9.981-.56-15.032-.56m199.662 19.768c-2.483 0-4.504 2.013-4.504 4.487s2.02 4.487 4.504 4.487c2.484 0 4.505-2.013 4.505-4.487s-2.02-4.487-4.505-4.487M258.295 386c-10.013 0-20.036-.46-30.013-1.42-19.77-1.906-39.094-5.533-57.905-9.95C112.517 361.04 58.509 338.892 0 326.436v-15.294c21.959 3.209 43.953 6.338 66.244 8.365 10.602.967 21.22 1.63 31.832 1.973 1.982 3.766 5.93 6.34 10.468 6.34 4.434 0 8.307-2.457 10.33-6.085 26.932-.214 53.725-2.583 79.997-7.419 20.91-3.85 41.154-9.203 60.642-15.53 20.805-6.754 40.31-15.047 60.32-22.754 40.06-15.425 81.703-29.072 126.458-37.275 21.658-3.969 43.615-5.802 65.709-6.758v11.474c-15.527 1.553-30.916 3.713-46.088 6.85-27.924 5.774-56.745 12.761-80.24 24.654-10.159 5.144-19.347 11.586-23.861 19.67-4.154 7.445-3.329 16.357 4.306 22.684 8.157 6.765 21.035 10.012 33.327 11.989 13.089 2.104 26.688 2.76 40.117 2.953 2.147.03 4.288.045 6.432.045 22.063 0 44.014-1.54 66.007-2.616v17.447a329.108 329.108 0 0 0-8.818.001c-24.275.338-47.57 4.42-70.612 9.22-44.483 9.263-87.637 21.747-133.742 27.2-13.426 1.586-26.974 2.429-40.533 2.429m35.248-74.038c-8.638 0-17.327.632-25.825 1.541-18.925 2.028-37.804 4.975-56.343 8.203a553.436 553.436 0 0 0-26.318 5.208c-4 .482-8.004.969-12.006 1.441-12.946 1.528-28.743 3.006-38.442 9.523-8.545 5.743-4.623 13.96 3.158 18.922 9.58 6.112 23.4 9.281 35.867 11.715 22.171 4.326 45.879 6.207 69.306 6.207 9.565 0 19.088-.314 28.433-.903 18.704-1.18 37.447-3.884 54.45-9.334 14.714-4.715 27.556-12.332 28.58-23.855 1.024-11.562-12.655-20.407-27.557-24.588-10.649-2.986-21.932-4.08-33.303-4.08" fill="#16B0C6" mask="url(#b)"/><path d="M75 462c-3.86 0-7-3.14-7-7s3.14-7 7-7 7 3.14 7 7-3.14 7-7 7m-4.781-7.58a.78.78 0 0 0-.378.12c-.35.153-.598.527-.738.863a2.496 2.496 0 0 0-.213.824c-.014.183.054.328.101.497.06.21.21.339.406.339a.548.548 0 0 0 .143-.02c.329-.096.587-.392.75-.677l.032-.053c.114-.166.198-.304.282-.51.134-.34.156-.705.027-1.049-.09-.242-.242-.334-.412-.334m3.438-5.596c-1.635 0-3.589 1.721-3.943 3.117-.32 1.25.697 1.909 1.726 1.909.259 0 .517-.041.757-.127 1.173-.413 4.642-3.926 2.116-4.793a2.012 2.012 0 0 0-.656-.106" fill="#52BDD0" mask="url(#b)"/><path d="M75.5 448.408a7.1 7.1 0 0 0-7.094 7.092 7.1 7.1 0 0 0 7.093 7.094 7.1 7.1 0 0 0 7.095-7.094c0-3.911-3.182-7.092-7.095-7.092m0 14.592c-4.135 0-7.499-3.365-7.499-7.5s3.364-7.5 7.5-7.5c4.135 0 7.5 3.365 7.5 7.5s-3.365 7.5-7.5 7.5" fill="#E8F5F8" mask="url(#b)"/><path d="M72.606 454c-.926 0-1.84-.655-1.552-1.899.318-1.389 2.076-3.101 3.546-3.101.203 0 .402.033.59.105 2.272.862-.848 4.358-1.903 4.77a1.863 1.863 0 0 1-.68.125m-3.05 2c-.216 0-.379-.098-.444-.256-.051-.128-.126-.238-.111-.376.019-.22.11-.421.233-.624.153-.254.424-.537.807-.653.138-.056.28-.091.413-.091.187 0 .353.07.45.253.142.26.119.536-.029.794a1.81 1.81 0 0 1-.308.385l-.034.04c-.179.217-.462.44-.821.513a.851.851 0 0 1-.156.015" fill="#AEDCE0" mask="url(#b)"/><path d="M50.5 441a3.503 3.503 0 0 1-3.5-3.5c0-1.93 1.57-3.5 3.5-3.5s3.5 1.57 3.5 3.5c0 1.931-1.57 3.5-3.5 3.5m-2.39-3.79a.383.383 0 0 0-.19.061c-.177.075-.299.262-.37.431a1.238 1.238 0 0 0-.106.412l.051.248c.03.105.104.17.204.17a.259.259 0 0 0 .071-.01c.164-.049.293-.196.375-.34l.015-.026.142-.254a.713.713 0 0 0 .013-.524c-.045-.121-.12-.169-.206-.169m1.717-2.795c-.817 0-1.792.86-1.969 1.556-.16.626.347.955.861.955.13 0 .26-.02.38-.063.588-.206 2.322-1.961 1.056-2.396a.991.991 0 0 0-.328-.052" fill="#52BDD0" mask="url(#b)"/><path d="M51.501 433.243a4.26 4.26 0 0 0-4.257 4.256 4.26 4.26 0 0 0 4.257 4.257 4.26 4.26 0 0 0 4.256-4.257 4.261 4.261 0 0 0-4.256-4.256m0 8.757A4.506 4.506 0 0 1 47 437.5c0-2.482 2.019-4.5 4.501-4.5A4.505 4.505 0 0 1 56 437.5c0 2.48-2.019 4.5-4.499 4.5" fill="#E8F5F8" mask="url(#b)"/><path d="M48.962 437c-.556 0-1.102-.393-.93-1.141.191-.83 1.244-1.859 2.126-1.859.123 0 .242.019.354.062 1.367.52-.506 2.617-1.14 2.863-.13.05-.27.075-.41.075m-.752 1c-.082 0-.143-.049-.168-.128l-.042-.188a.874.874 0 0 1 .088-.311c.058-.128.159-.27.305-.326a.336.336 0 0 1 .156-.047c.071 0 .133.036.17.127a.498.498 0 0 1-.011.397l-.117.192-.012.02a.57.57 0 0 1-.31.257.232.232 0 0 1-.059.007" fill="#AEDCE0" mask="url(#b)"/><path d="M74 411c-4.964 0-9-4.12-9-9.187A9.236 9.236 0 0 1 69.267 394c.37.075.738.152 1.108.228-1.503.775-2.849 2.28-3.17 3.571-.41 1.641.894 2.504 2.218 2.504.333 0 .666-.054.975-.165 1.163-.418 4.089-3.262 3.865-5.06 2.47.563 4.917 1.169 7.339 1.82A9.274 9.274 0 0 1 83 401.813c0 5.067-4.036 9.187-9 9.187m-6.147-9.95a.969.969 0 0 0-.484.16c-.451.198-.77.69-.95 1.132-.145.351-.25.698-.274 1.08-.018.24.068.435.13.654.077.274.267.444.521.444.058 0 .12-.009.185-.027.424-.124.755-.515.968-.886l.036-.072c.146-.216.256-.396.362-.666.176-.447.2-.929.036-1.376-.115-.32-.31-.442-.53-.442" fill="#52BDD0" mask="url(#b)"/><path d="M82 397a228.171 228.171 0 0 0-7.735-1.704c-.07-.498-.429-.91-1.208-1.151a2.974 2.974 0 0 0-.89-.13c-.651 0-1.34.183-2 .485-.39-.071-.776-.143-1.167-.213A10.17 10.17 0 0 1 73.988 393c3.366 0 6.327 1.597 8.012 4" fill="#5AC0CE" mask="url(#b)"/><path d="M73.5 392.514c-4.956 0-8.985 4.03-8.985 8.986s4.03 8.985 8.985 8.985c4.957 0 8.986-4.03 8.986-8.985 0-4.956-4.029-8.986-8.986-8.986m0 18.486c-5.236 0-9.5-4.264-9.5-9.5 0-5.238 4.264-9.5 9.5-9.5 5.238 0 9.5 4.262 9.5 9.5 0 5.236-4.262 9.5-9.5 9.5" fill="#E8F5F8" mask="url(#b)"/><path d="M69.248 400c-1.297 0-2.574-.852-2.173-2.473.315-1.276 1.633-2.762 3.105-3.527 1.273.268 2.545.549 3.808.84.22 1.775-2.646 4.584-3.785 4.997-.303.11-.63.163-.955.163" fill="#AEDCE0" mask="url(#b)"/><path d="M75 395a306.326 306.326 0 0 0-4-.621c.643-.236 1.316-.379 1.951-.379.3 0 .592.032.87.101.76.19 1.111.51 1.179.899" fill="#AFDCDF" mask="url(#b)"/><path d="M66.556 405c-.216 0-.378-.147-.444-.384-.052-.19-.125-.359-.11-.565.02-.33.11-.63.233-.934.154-.382.424-.808.808-.98a.815.815 0 0 1 .412-.137c.187 0 .353.106.451.382.14.387.119.803-.03 1.19-.09.234-.184.389-.308.576l-.031.063c-.182.32-.463.658-.824.765a.566.566 0 0 1-.157.024" fill="#AEDCE0" mask="url(#b)"/><path d="M114.176 322c-5.244 0-10.493-.084-15.743-.248A11.327 11.327 0 0 1 97 316.219c0-6.186 4.934-11.219 11-11.219s11 5.033 11 11.22c0 2.11-.573 4.083-1.57 5.77-1.082.007-2.17.01-3.254.01m-13.689-6.712c-.19 0-.395.076-.591.194-.554.245-.942.845-1.161 1.384-.176.429-.307.852-.336 1.32-.02.292.085.528.16.797.095.336.328.542.638.542.07 0 .146-.01.225-.033.517-.152.924-.628 1.182-1.083l.047-.086c.178-.264.31-.484.442-.815.213-.545.245-1.13.043-1.681-.142-.389-.38-.539-.649-.539m5.4-8.963c-2.567 0-5.635 2.76-6.192 4.991-.5 2.004 1.094 3.06 2.71 3.06a3.55 3.55 0 0 0 1.192-.203c1.843-.66 7.293-6.29 3.323-7.68a3.106 3.106 0 0 0-1.033-.168" fill="#52BDD0" mask="url(#b)"/><path d="M107.568 326c-4.095 0-7.675-2.017-9.568-5a571.939 571.939 0 0 0 19 .209c-1.926 2.869-5.433 4.791-9.432 4.791" fill="#5AC0CE" mask="url(#b)"/><path d="M109 304.648c-6.26 0-11.352 5.092-11.352 11.351 0 6.26 5.092 11.35 11.351 11.35 6.26 0 11.352-5.09 11.352-11.35 0-6.259-5.092-11.35-11.352-11.35M109 328c-6.617 0-12-5.384-12-12 0-6.617 5.383-12 12-12 6.616 0 12 5.383 12 12 0 6.616-5.384 12-12 12" fill="#E8F5F8" mask="url(#b)"/><path d="M102.889 315c-1.666 0-3.308-1.18-2.793-3.42.574-2.495 3.736-5.58 6.381-5.58.367 0 .725.06 1.064.188 4.092 1.554-1.525 7.848-3.424 8.585a3.402 3.402 0 0 1-1.228.227" fill="#AEDCE0" mask="url(#b)"/><path d="M98.836 318c-.324 0-.567-.195-.666-.512-.079-.254-.189-.477-.167-.752.03-.442.167-.842.35-1.246.23-.51.633-1.076 1.211-1.307a1.33 1.33 0 0 1 .618-.183c.28 0 .529.141.677.508.21.52.178 1.073-.045 1.588a3.58 3.58 0 0 1-.461.768l-.05.082c-.27.43-.694.879-1.232 1.023a.944.944 0 0 1-.235.031" fill="#AEDCE0" mask="url(#b)"/><path d="M69.5 294a6.506 6.506 0 0 1-6.5-6.5c0-3.585 2.914-6.5 6.5-6.5s6.5 2.915 6.5 6.5-2.914 6.5-6.5 6.5m-4.44-7.04a.711.711 0 0 0-.349.112c-.326.143-.557.49-.686.802a2.308 2.308 0 0 0-.2.765c-.012.17.051.307.094.462.058.194.196.316.379.316a.509.509 0 0 0 .133-.02c.304-.089.544-.364.698-.628l.027-.05a2.15 2.15 0 0 0 .261-.473c.127-.314.145-.657.025-.972-.082-.225-.222-.313-.381-.313m3.19-5.194c-1.518 0-3.33 1.599-3.658 2.892-.296 1.162.647 1.774 1.602 1.774.24 0 .48-.04.703-.118 1.09-.383 4.31-3.645 1.964-4.45a1.877 1.877 0 0 0-.612-.098" fill="#52BDD0" mask="url(#b)"/><path d="M69.5 281.353a6.153 6.153 0 0 0-6.149 6.147 6.153 6.153 0 0 0 6.149 6.147 6.153 6.153 0 0 0 6.147-6.147 6.153 6.153 0 0 0-6.147-6.147m0 12.647a6.508 6.508 0 0 1-6.5-6.5c0-3.584 2.916-6.5 6.5-6.5 3.582 0 6.5 2.916 6.5 6.5s-2.918 6.5-6.5 6.5" fill="#E8F5F8" mask="url(#b)"/><path d="M65.606 286c-.926 0-1.84-.525-1.552-1.52.318-1.11 2.073-2.48 3.543-2.48.204 0 .403.026.593.084 2.272.69-.847 3.487-1.903 3.815a2.303 2.303 0 0 1-.68.101m-1.049 3c-.216 0-.378-.099-.446-.257-.05-.126-.125-.238-.11-.377.021-.22.11-.42.235-.622.151-.254.423-.537.808-.653a1.11 1.11 0 0 1 .41-.091c.188 0 .353.072.45.255.141.257.12.536-.03.792a1.69 1.69 0 0 1-.307.384l-.032.041c-.18.215-.463.44-.822.512a.85.85 0 0 1-.156.016" fill="#AEDCE0" mask="url(#b)"/><path d="M107 246c-8.274 0-15-6.726-15-15 0-8.274 6.726-15 15-15 8.274 0 15 6.726 15 15 0 8.274-6.726 15-15 15m-10.245-16.244c-.258 0-.538.1-.808.26-.754.325-1.284 1.128-1.582 1.85-.242.57-.42 1.138-.458 1.764-.03.39.114.707.216 1.066.132.448.448.725.87.725.097 0 .2-.015.307-.044.707-.205 1.258-.84 1.614-1.448l.062-.115a5.2 5.2 0 0 0 .602-1.091c.293-.73.336-1.515.059-2.247-.191-.52-.515-.72-.882-.72m7.362-11.984c-3.5 0-7.683 3.688-8.442 6.674-.685 2.679 1.491 4.09 3.698 4.09.554 0 1.11-.089 1.625-.27 2.512-.884 9.945-8.41 4.528-10.27a4.323 4.323 0 0 0-1.409-.224" fill="#52BDD0" mask="url(#b)"/><path d="M106.5 215.84c-8.086 0-14.66 6.574-14.66 14.66s6.574 14.66 14.66 14.66c8.085 0 14.659-6.574 14.659-14.66s-6.574-14.66-14.66-14.66m0 30.16C97.954 246 91 239.044 91 230.5s6.954-15.5 15.5-15.5c8.544 0 15.5 6.956 15.5 15.5s-6.956 15.5-15.5 15.5" fill="#E8F5F8" mask="url(#b)"/><path d="M98.855 229c-2.224 0-4.416-1.442-3.726-4.18.765-3.05 4.98-6.82 8.505-6.82a4.3 4.3 0 0 1 1.42.23c5.457 1.9-2.032 9.591-4.562 10.495a4.9 4.9 0 0 1-1.637.275m-3.742 6a.902.902 0 0 1-.89-.64c-.103-.317-.25-.597-.219-.94.04-.553.22-1.054.467-1.558.305-.637.845-1.346 1.614-1.633.276-.14.562-.229.825-.229.374 0 .705.177.9.635.283.647.24 1.34-.06 1.984-.18.39-.366.648-.614.962l-.063.102c-.364.537-.926 1.097-1.647 1.278-.11.026-.215.039-.313.039" fill="#AEDCE0" mask="url(#b)"/><path d="M464 309c-6.066 0-11-4.933-11-11 0-6.065 4.934-11 11-11s11 4.935 11 11c0 6.067-4.934 11-11 11m-7.513-11.912c-.19 0-.395.074-.593.188-.554.242-.94.83-1.16 1.358-.176.421-.308.836-.336 1.294-.021.287.084.519.16.783.095.328.327.531.638.531.072 0 .147-.01.225-.032.516-.15.923-.617 1.182-1.064l.047-.083a3.81 3.81 0 0 0 .442-.798c.213-.535.246-1.11.043-1.65-.14-.38-.38-.527-.648-.527m5.399-8.789c-2.567 0-5.634 2.706-6.192 4.894-.5 1.965 1.094 3 2.71 3 .407 0 .815-.066 1.192-.199 1.843-.646 7.293-6.167 3.324-7.53a3.17 3.17 0 0 0-1.034-.165" fill="#52BDD0" mask="url(#b)"/><path d="M464 287.648c-6.259 0-11.35 5.092-11.35 11.352 0 6.26 5.091 11.35 11.35 11.35 6.26 0 11.352-5.09 11.352-11.35S470.26 287.648 464 287.648M464 311c-6.618 0-12.001-5.383-12.001-12 0-6.618 5.383-12 12-12 6.616 0 12 5.382 12 12 0 6.617-5.384 12-12 12" fill="#E8F5F8" mask="url(#b)"/><path d="M458.889 298c-1.666 0-3.308-1.18-2.793-3.42.575-2.495 3.736-5.58 6.38-5.58.37 0 .725.06 1.066.188 4.09 1.554-1.526 7.848-3.425 8.585a3.402 3.402 0 0 1-1.228.227" fill="#AEDCE0" mask="url(#b)"/><path d="M454.836 301c-.325 0-.567-.195-.666-.512-.079-.254-.189-.477-.167-.754.03-.44.167-.84.351-1.245.23-.509.632-1.075 1.21-1.307.206-.11.42-.182.619-.182.28 0 .529.141.675.508.212.519.178 1.073-.044 1.588-.136.312-.276.52-.462.768l-.049.08c-.27.431-.694.88-1.233 1.025a.928.928 0 0 1-.234.031" fill="#AEDCE0" mask="url(#b)"/><path d="M425.5 277a6.506 6.506 0 0 1-6.5-6.5c0-3.587 2.915-6.5 6.5-6.5s6.5 2.913 6.5 6.5c0 3.585-2.915 6.5-6.5 6.5m-4.44-7.04a.712.712 0 0 0-.35.112c-.327.143-.556.49-.686.801a2.36 2.36 0 0 0-.2.766c-.01.169.052.307.095.46.056.196.195.317.378.317a.456.456 0 0 0 .132-.02c.306-.088.547-.363.699-.627l.028-.05a2.18 2.18 0 0 0 .26-.473c.128-.316.147-.657.026-.972-.082-.227-.223-.313-.382-.313m3.19-5.194c-1.517 0-3.33 1.599-3.659 2.892-.296 1.162.647 1.774 1.603 1.774.24 0 .482-.04.704-.118 1.089-.383 4.31-3.645 1.963-4.45a1.863 1.863 0 0 0-.61-.098" fill="#52BDD0" mask="url(#b)"/><path d="M425.5 264.353a6.152 6.152 0 0 0-6.147 6.147 6.153 6.153 0 0 0 6.147 6.147 6.153 6.153 0 0 0 6.147-6.147 6.152 6.152 0 0 0-6.147-6.147m0 12.647a6.508 6.508 0 0 1-6.5-6.5c0-3.584 2.916-6.5 6.5-6.5s6.5 2.916 6.5 6.5-2.916 6.5-6.5 6.5" fill="#E8F5F8" mask="url(#b)"/><path d="M421.606 269c-.926 0-1.84-.525-1.552-1.52.318-1.11 2.074-2.48 3.544-2.48.204 0 .403.026.591.084 2.274.69-.847 3.487-1.901 3.815-.215.067-.45.101-.682.101m-1.049 2c-.215 0-.378-.098-.444-.257-.05-.125-.125-.238-.111-.376.02-.22.111-.421.235-.624.152-.252.422-.536.807-.652a1.11 1.11 0 0 1 .41-.091c.188 0 .354.07.451.255.141.257.12.535-.031.792-.09.157-.181.26-.306.385l-.033.041a1.47 1.47 0 0 1-.822.511.76.76 0 0 1-.156.016" fill="#AEDCE0" mask="url(#b)"/><path d="M463 229c-8.272 0-15-6.727-15-15 0-8.274 6.728-15 15-15 8.274 0 15 6.726 15 15 0 8.273-6.726 15-15 15m-10.244-16.245c-.26 0-.539.1-.808.26-.755.326-1.283 1.129-1.583 1.849-.242.573-.418 1.14-.458 1.766-.028.39.114.707.216 1.066.132.448.45.725.87.725.099 0 .2-.015.307-.046.708-.203 1.26-.839 1.614-1.446l.062-.117a5 5 0 0 0 .602-1.089c.293-.73.336-1.515.059-2.247-.191-.52-.515-.721-.88-.721m7.362-11.984c-3.501 0-7.685 3.69-8.444 6.673-.684 2.681 1.491 4.092 3.698 4.092a4.92 4.92 0 0 0 1.625-.27c2.512-.884 9.946-8.41 4.53-10.27a4.336 4.336 0 0 0-1.41-.225" fill="#52BDD0" mask="url(#b)"/><path d="M462.499 198.84c-8.085 0-14.66 6.574-14.66 14.661 0 8.085 6.575 14.66 14.66 14.66 8.086 0 14.66-6.575 14.66-14.66 0-8.087-6.574-14.661-14.66-14.661m0 30.16c-8.546 0-15.499-6.955-15.499-15.499 0-8.545 6.953-15.501 15.499-15.501S478 204.956 478 213.501c0 8.544-6.955 15.499-15.501 15.499" fill="#E8F5F8" mask="url(#b)"/><path d="M454.854 212c-2.223 0-4.414-1.441-3.725-4.18.764-3.05 4.979-6.82 8.506-6.82.49 0 .966.074 1.42.231 5.456 1.9-2.034 9.59-4.564 10.494a4.894 4.894 0 0 1-1.637.275m-3.741 6a.903.903 0 0 1-.89-.64c-.103-.317-.248-.596-.22-.94.042-.553.22-1.053.468-1.559.306-.635.845-1.344 1.616-1.632.274-.14.56-.229.824-.229.373 0 .704.178.9.637.282.645.238 1.339-.061 1.982-.179.391-.365.649-.615.962l-.062.102c-.362.536-.925 1.097-1.648 1.277-.109.027-.213.04-.312.04" fill="#AEDCE0" mask="url(#b)"/><path d="M444.001 474c-4.412 0-8.001-3.587-8.001-8 0-4.41 3.59-8 8.001-8 4.41 0 7.999 3.59 7.999 8 0 4.413-3.59 8-7.999 8m-5.464-8.663a.89.89 0 0 0-.431.137c-.403.175-.684.603-.844.987a2.86 2.86 0 0 0-.245.941c-.014.21.061.377.116.57.07.238.239.387.465.387a.58.58 0 0 0 .162-.024c.377-.11.672-.45.862-.773l.034-.061c.128-.189.226-.346.32-.582.156-.389.18-.806.032-1.198-.103-.277-.276-.384-.471-.384m3.926-6.393c-1.867 0-4.098 1.969-4.503 3.56-.363 1.429.797 2.181 1.972 2.181.296 0 .592-.046.866-.143 1.34-.471 5.304-4.485 2.416-5.477a2.306 2.306 0 0 0-.75-.12" fill="#52BDD0" mask="url(#b)"/><path d="M443.001 458.432c-4.173 0-7.569 3.396-7.569 7.568 0 4.174 3.396 7.566 7.57 7.566 4.17 0 7.566-3.392 7.566-7.566 0-4.172-3.396-7.568-7.567-7.568m0 15.568c-4.412 0-8.001-3.59-8.001-8 0-4.411 3.589-8 8.001-8 4.409 0 7.999 3.589 7.999 8 0 4.41-3.59 8-7.999 8" fill="#E8F5F8" mask="url(#b)"/><path d="M438.927 464c-1.11 0-2.206-.655-1.863-1.9.383-1.386 2.49-3.1 4.254-3.1.245 0 .484.033.71.105 2.727.864-1.018 4.36-2.283 4.77a2.634 2.634 0 0 1-.818.125m-1.37 4c-.216 0-.378-.148-.445-.385-.052-.19-.123-.358-.11-.565.02-.332.11-.63.234-.935.153-.38.422-.806.807-.98a.829.829 0 0 1 .412-.135c.187 0 .353.106.45.38.141.39.12.804-.03 1.19-.09.235-.184.39-.306.578l-.033.06c-.181.322-.463.66-.823.768a.535.535 0 0 1-.156.024" fill="#AEDCE0" mask="url(#b)"/><path d="M417.5 451a4.504 4.504 0 0 1-4.5-4.5c0-2.482 2.017-4.5 4.5-4.5s4.5 2.018 4.5 4.5-2.017 4.5-4.5 4.5m-3.073-4.873a.485.485 0 0 0-.242.077c-.226.098-.386.34-.474.556a1.597 1.597 0 0 0-.14.529l.066.32c.039.135.134.217.26.217.03 0 .06-.004.093-.014.21-.06.378-.251.484-.433l.018-.036a1.46 1.46 0 0 0 .18-.327.905.905 0 0 0 .019-.672c-.058-.157-.154-.217-.264-.217m2.208-3.595c-1.05 0-2.305 1.107-2.532 2.003-.205.804.447 1.227 1.11 1.227.166 0 .332-.027.487-.081.754-.266 2.982-2.524 1.358-3.08a1.298 1.298 0 0 0-.423-.07" fill="#5AC0CE" mask="url(#b)"/><path d="M416.5 442.243a4.26 4.26 0 0 0-4.257 4.257 4.26 4.26 0 0 0 4.257 4.257 4.26 4.26 0 0 0 4.256-4.257 4.26 4.26 0 0 0-4.256-4.257m0 8.757a4.505 4.505 0 0 1-4.5-4.5c0-2.481 2.019-4.5 4.5-4.5s4.5 2.019 4.5 4.5-2.019 4.5-4.5 4.5" fill="#E8F5F8" mask="url(#b)"/><path d="M414.964 446c-.557 0-1.104-.393-.932-1.14.191-.832 1.245-1.86 2.127-1.86a.97.97 0 0 1 .355.064c1.363.517-.508 2.614-1.14 2.86-.13.051-.27.076-.41.076m-1.73 2c-.091 0-.159-.097-.187-.256l-.047-.377c.009-.218.047-.42.1-.623.063-.254.178-.539.34-.654.057-.055.117-.09.173-.09.079 0 .148.07.189.255.06.258.051.535-.013.792-.038.158-.076.26-.129.384l-.013.043c-.076.214-.196.439-.347.51a.146.146 0 0 1-.066.016" fill="#AFDCDF" mask="url(#b)"/><path d="M442.001 417c-5.516 0-10.001-4.485-10.001-10 0-5.516 4.485-10 10.001-10 5.514 0 9.999 4.484 9.999 10 0 5.515-4.485 10-9.999 10m-6.83-10.83a1.1 1.1 0 0 0-.539.173c-.503.217-.855.752-1.055 1.233-.16.38-.279.76-.306 1.178-.018.259.077.471.145.71.088.298.3.483.581.483.065 0 .133-.01.204-.03.47-.136.838-.56 1.076-.964l.04-.078c.164-.236.285-.432.403-.726.194-.486.223-1.01.039-1.498-.128-.346-.344-.48-.587-.48m4.907-7.99c-2.333 0-5.123 2.46-5.629 4.449-.457 1.786.995 2.727 2.465 2.727.37 0 .74-.06 1.083-.18 1.675-.59 6.631-5.607 3.02-6.846a2.88 2.88 0 0 0-.94-.15" fill="#52BDD0" mask="url(#b)"/><path d="M442.5 397.57c-5.478 0-9.932 4.452-9.932 9.93s4.454 9.932 9.932 9.932c5.476 0 9.93-4.454 9.93-9.931 0-5.479-4.454-9.932-9.93-9.932m0 20.431c-5.79 0-10.5-4.71-10.5-10.5 0-5.787 4.71-10.5 10.5-10.5 5.788 0 10.5 4.713 10.5 10.5 0 5.79-4.712 10.5-10.5 10.5" fill="#E8F5F8" mask="url(#b)"/><path d="M437.89 405c-1.666 0-3.31-.918-2.793-2.66.574-1.94 3.734-4.34 6.379-4.34.367 0 .725.046 1.065.147 4.092 1.208-1.525 6.102-3.424 6.677a4.25 4.25 0 0 1-1.227.176m-4.054 5c-.324 0-.566-.196-.666-.513-.079-.252-.188-.477-.167-.751.03-.443.167-.844.351-1.248.23-.509.633-1.076 1.21-1.305.206-.112.422-.183.62-.183.28 0 .528.142.674.509.211.517.179 1.072-.044 1.586-.136.312-.275.52-.463.769l-.046.083c-.273.428-.694.877-1.235 1.022a.962.962 0 0 1-.234.031" fill="#AEDCE0" mask="url(#b)"/></g></svg>