<svg width="120" height="120" viewBox="0 0 120 120" xmlns="http://www.w3.org/2000/svg" xmlns:xlink="http://www.w3.org/1999/xlink"><defs><path id="a" d="M.2.3h13.173v5.567H.2z"/></defs><g fill="none" fill-rule="evenodd"><path d="M29.083 49.72c8.21 12.82 19.164 2.122 15.438-9.21-2.706-8.228 11.974 2.675 11.974 2.675S47.9 67.033 40.442 67.387c-7.456.358-11.384-11.313-11.359-17.666" fill="#AD6920"/><path d="M57.507 112.21l-.509-19.214s4.3-4.75 6.272-5.301c1.42-.396 5.817.913 5.817.913l-1.948 23.601h-.009c1.806 1.125 3.115 3.416 1.574 5.282-1.171 1.314-2.89.277-4.194-.276-1.446-.692-3.094-1.179-4.4-2.079-.844-.591-1.834-1.238-2.403-2.123-.179-.275-.262-.55-.2-.804m-10.934.001h-.006L44.62 88.607s4.334-1.327 5.737-.943c1.993.55 6.351 5.331 6.351 5.331l-.51 19.213c.061.264-.022.53-.2.804-.57.885-1.561 1.532-2.404 2.123-1.306.9-2.958 1.387-4.401 2.079-1.305.553-3.021 1.59-4.192.276-1.544-1.866-.234-4.161 1.571-5.282M33.439 79.372c.104-.999.436-1.89.911-2.58-.004.04-.004.062-.004.062s1.405-14.207 5.078-18.93c1.682-2.162 7.492-5.3 8.171-5.664 1.282-.934 4.177-1.354 5.974-1.526-.3-.666-.483-1.392-.483-1.92h7.598c0 .528-.176 1.241-.475 1.903 1.768.174 4.342.759 6.02 1.526.742.34 2.303.834 3.071 1.108 2.317.812 8.544 3.084 8.544 3.084l5.51-6.51a4.286 4.286 0 0 1-.206-.84c-.354-.648-.645-1.456-.82-2.36-.456-2.366.053-4.45 1.137-4.665.581-.111 1.207.334 1.737 1.136 1.169-1.13 2.61-1.6 3.815-1.089 1.846.787 2.43 3.585 1.31 6.249-.722 1.71-1.97 2.948-3.26 3.411h.002s-3.434 9.815-6.425 10.907c-2.423.883-11.265-2.69-11.265-2.69v-.014c1.66 10.2-.079 25.772-.079 25.772H44.404s-1.489-14.134-.154-24.298v.007c-.196.54-1.275 1.498-2.127 2.71-1.705 2.426-3.3 12.689-3.3 12.689.039.068.075.14.109.214.432.424.854.996 1.205 1.663.928 1.757 1.024 3.527.22 3.957-.43.23-1.035.03-1.642-.475-.654 1.174-1.682 1.896-2.753 1.78-1.644-.175-2.772-2.24-2.523-4.617" fill="#FDDFBB"/><path d="M53.9 51.343l6.757-2.244.015-.015a22.85 22.85 0 0 1-7.573.03c.073.66.37 1.571.8 2.229" fill="#EEAC6C"/><path d="M69.566 61.245c1.546 6.66-.045 26.79-.48 27.364-4.94-.075-12.088 4.387-12.088 4.387h-.29s-6.94-4.59-12.088-4.386c-.434-.575-1.852-19.65-.507-26.015 0 0 6.4-3.872 7.148-11.558.79-.197 1.539-.221 1.539-.221s.3 5.893 4.196 5.893c4.03 0 4.126-5.88 4.126-5.88s.941.096 1.689.323c.38 7.719 6.755 10.093 6.755 10.093" fill="#0771B7"/><path d="M56.996 56.708c-1.995 0-3.047-1.547-3.6-3.053l-9.77 13.592c-.365 8.151.64 20.895.996 21.362.79-.032 1.62.05 2.465.212l9.408-24.208 3.039-9.021c-.594.66-1.414 1.116-2.538 1.116" fill="#2AA73F"/><path d="M48.072 89.041l13.813-38.104c-.428-.075-.762-.11-.762-.11s-.079 4.885-3.147 5.75l-12.233 32.06c.762.06 1.546.203 2.33.404" fill="#EEEEED"/><path d="M34.493 29.762a23.657 23.657 0 0 1-.257-3.476c0-12.77 10.285-23.122 22.972-23.122 12.687 0 22.972 10.353 22.972 23.122 0 1.125-.08 2.235-.234 3.317 1.326.73 2.22 2.108 2.22 3.69 0 2.346-1.965 4.25-4.388 4.25-.161 0-.325-.011-.483-.026-3.924 7.092-11.45 11.89-20.087 11.89-8.63 0-16.147-4.79-20.073-11.87a4.72 4.72 0 0 1-.206.005c-2.423 0-4.386-1.903-4.386-4.25 0-1.471.77-2.77 1.95-3.53" fill="#FDDFBB"/><path d="M53.311 24.65s-.503 1.803-2.082 1.446c-.772-.174-.908-1.201-3.386-.74-.779.18-2.417 1.156-2.732 1.808-.316.652-.088-2.392 2.457-3.522 1.835-.675 2.457-.642 3.977-.642s1.987.907 1.766 1.65m9.741 0s.503 1.803 2.082 1.446c.772-.174.908-1.201 3.386-.74.779.18 2.417 1.156 2.732 1.808.316.652.087-2.392-2.457-3.522-1.835-.675-2.457-.642-3.977-.642s-1.987.907-1.766 1.65" fill="#AD6920"/><path d="M51 32c0 1.657-.895 3-2 3s-2-1.343-2-3 .895-3 2-3 2 1.343 2 3m18 0c0 1.657-.895 3-2 3s-2-1.343-2-3 .895-3 2-3 2 1.343 2 3" fill="#6172BB"/><path d="M58.02 35.07c.839-.115 2.96 1.756 2.96 1.756s.103-.414-.34-1.238C60.163 34.703 57.99 34 57.99 34s-1.687.448-2.487 1.604c-.296.29-.503 1.299-.503 1.299s1.895-1.681 3.02-1.834z" fill="#EEAC6C"/><g transform="translate(51 38)"><mask id="b" fill="#fff"><use xlink:href="#a"/></mask><path d="M.2.696S7.097 3.904 13.372.299c0 0-1.39 5.47-5.95 5.561-4.115.122-4.984-1.492-5.477-1.956C1.453 3.441.525 2.132.2.696" fill="#EEAC6C" mask="url(#b)"/></g><path d="M80.993 23.5a45.157 45.157 0 0 0-.275-4.225C77.648 9.152 68.295 1.787 57.235 1.787c-9.634 0-17.967 5.584-21.989 13.708-1.111 3.192-1.794 6.336-1.852 7.75-.196 4.92 1.222 6.551 1.222 6.551s4.116-5.734 8.987-9.182c3.832-2.702 7.239 2.524 11.786-1.957.405-.396 1.927-1.941 1.927-1.941s1.25 1.41 1.92 1.941c4.043 3.215 6.3-.435 10.824 2.043 3.705 2.029 9.773 9.259 9.773 9.259s1.194-3.757 1.16-6.459" fill="#AD6920"/></g></svg>