<svg xmlns="http://www.w3.org/2000/svg" width="120.714" height="273.01" viewBox="0.639 -1.108 120.714 273.01"><defs><style/></defs><g id="ID0.7322605256922543" transform="matrix(1.05 0 0 1.05 .05 -.55)"><g id="ID0.6400628206320107"><g id="ID0.7449043984524906"><g id="Leg"><path id="Fill_4_" fill="#CCE2EA" d="M17.5 136.062s-10.184.707 1.004 41.145c0 0-2.879 3.535-1.879 7.164 0 0 0 .49 2.25.56 0 0 .125 1.04 2.25 1.367 2.125.327 12.005 1.069 11.252-1.927 0 0 1.917.277 2.77-.734.853-1.011.824-3.973-.287-4.805 0 0 2.569-12.19 5.264-15.336 2.695-3.146-14.744-30.883-22.624-27.434z" transform="translate(-5.2 -2.85) scale(1.40007)"/><path id="Outline_7_" d="M39.079 157.33c-3.502-7.613-13.496-21.814-20.108-21.814-.562 0-1.09.107-1.488.297-.05.003-1.223.103-2.354 1.701-2.109 2.98-4.506 12.092 3.1 39.638-.478.625-2.785 3.873-1.854 7.219 0 .266.306.717 2.315.803.154.368.673 1.105 2.397 1.371.859.132 2.925.329 5.099.329 3.399 0 5.485-.465 6.2-1.381.197-.253.292-.536.283-.846.087.005.188.009.298.009.752 0 1.775-.149 2.373-.858.589-.7.735-2.045.619-3.067-.061-.53-.248-1.462-.821-1.993.302-1.389 2.713-12.201 5.178-15.078.9-1.054-.176-4.023-1.237-6.33zm.856 6.003c-2.705 3.158-5.213 14.947-5.319 15.447l-.033.156.127.096c.382.286.655.926.75 1.755.122 1.066-.09 2.197-.504 2.688-.499.592-1.46.681-1.99.681-.083 0-.16-.002-.228-.005.02-.507-.063-1.426-.613-2.9 0 0 .261 1.623.145 2.867l-.038.306c-.048.302-.124.568-.241.762-.598.767-2.659 1.188-5.805 1.188-2.13 0-4.211-.198-5.022-.323-.783-.12-1.256-.34-1.555-.555-1.1-.987-.191-4.578-.191-4.578-.914 1.37-.751 3.735-.75 3.751-1.565-.074-1.802-.364-1.8-.364-.548-3.069.66-5.715 1.913-7.04.768-.812 5.689-4.312 10.304-1.389 0 0-.865-.985-2.958-1.334-1.892-.315-4.781-.12-7.467 2.28-7.459-27.099-5.182-36.054-3.15-38.977.993-1.429 2.001-1.533 2.092-1.554a3.392 3.392 0 0 1 1.371-.275c5.862 0 15.711 12.955 19.653 21.523 1.372 2.983 1.861 5.149 1.309 5.794z" transform="translate(-5.2 -2.85) scale(1.40007)"/></g><g id="Leg_1_"><path id="Fill_5_" fill="#CCE2EA" d="M74.383 136.062s10.184.707-1.004 41.145c0 0 2.879 3.535 1.879 7.164 0 0 0 .49-2.25.56 0 0-.125 1.04-2.25 1.367-2.125.327-12.004 1.069-11.252-1.927 0 0-1.918.277-2.77-.734-.854-1.012-.824-3.973.286-4.805 0 0-2.569-12.19-5.265-15.336-2.694-3.145 14.746-30.883 22.626-27.434z" transform="translate(-5.2 -2.85) scale(1.40007)"/><path id="Outline_8_" d="M51.568 163.659c2.465 2.877 4.876 13.689 5.178 15.078-.572.531-.76 1.463-.82 1.993-.117 1.022.029 2.367.619 3.067.598.709 1.619.858 2.372.858.11 0 .212-.004.298-.009-.008.31.086.593.283.846.715.916 2.801 1.381 6.199 1.381 2.174 0 4.24-.197 5.1-.329 1.723-.266 2.242-1.003 2.396-1.371 2.009-.086 2.314-.537 2.314-.803.932-3.346-1.376-6.594-1.854-7.219 7.605-27.546 5.209-36.658 3.1-39.638-1.131-1.599-2.304-1.698-2.354-1.701-.398-.19-.927-.297-1.488-.297-6.612 0-16.605 14.201-20.107 21.814-1.061 2.308-2.136 5.277-1.236 6.33zm1.691-6.12c3.942-8.568 13.792-21.523 19.653-21.523.492 0 .953.093 1.371.275.091.021 1.1.125 2.092 1.554 2.031 2.923 4.309 11.878-3.15 38.977-2.686-2.4-5.574-2.596-7.467-2.28-2.094.349-2.958 1.334-2.958 1.334 4.614-2.923 9.536.577 10.304 1.389 1.254 1.325 2.462 3.971 1.914 7.04.002 0-.236.29-1.801.364.002-.016.164-2.381-.75-3.751 0 0 .908 3.591-.191 4.578-.299.215-.772.435-1.555.555-.812.125-2.893.323-5.023.323-3.146 0-5.207-.422-5.805-1.188-.117-.193-.193-.46-.241-.762l-.038-.306c-.115-1.244.145-2.867.145-2.867-.549 1.475-.633 2.394-.613 2.9a5.197 5.197 0 0 1-.228.005c-.529 0-1.491-.089-1.989-.681-.415-.491-.627-1.622-.505-2.688.095-.829.368-1.469.749-1.755l.128-.096-.032-.156c-.105-.5-2.614-12.289-5.319-15.447-.554-.645-.064-2.811 1.309-5.794z" transform="translate(-5.2 -2.85) scale(1.40007)"/></g><g id="Arm_2_"><path id="Fill_3_" fill="#CCE2EA" d="M32.166 107.15c-2.81-6.338-14.595-12.045-10.476-30.062 0 0 8.479-5.489 7.659-8.647-.821-3.158-3.574-.214-3.574-.214s.232-7.447 2.085-9.585c1.853-2.139-1.613-3.592-2.892-2.047s-1.987 3.637-1.987 3.637 1.066-3.732.604-5.387c-.442-1.581-3.042-3.177-4.464.75 0 0-1.278-2.839-3.865.085-2.587 2.925-10.9 15.971-10.9 36.137l2.613-.81s-2.303 7.863-.642 14.307l2.182-2.586s-1.766 19.338 17.383 32.089c.001 0 12.927-12.657 6.274-27.667z" transform="translate(-5.2 -2.85) scale(1.40007)"/><path id="Outline_9_" d="M32.403 107.049c-.761-1.717-2.128-3.341-3.712-5.222-4.331-5.145-9.718-11.543-6.771-24.585.948-.624 8.5-5.708 7.68-8.864-.354-1.362-1.07-1.648-1.609-1.648-.719 0-1.334.404-1.797.792.103-1.808.724-6.049 1.87-8.077.781-1.382.61-2.598.438-2.976-.254-.557-.837-1.094-1.656-1.094-.766 0-1.495.403-2 .875-.404.377-.601.626-.969 1.25.247-.389.219-1.656 0-2.44-.12-.43-.203-.939-.501-1.33-.376-.492-1.014-.798-1.667-.798-.524 0-1.708.081-2.558 1.97-.295-.404-.899-.795-1.699-.795-.749 0-1.547.473-2.373 1.407-3.051 3.447-10.964 16.69-10.964 36.303v.339l2.504-.776c-.451 1.762-1.958 8.435-.525 13.997l.121.469 2.022-2.396c-.074 3.691.592 20.3 17.525 31.576l.169.112.145-.142c.131-.128 12.974-12.952 6.327-27.947zm-6.535 27.445C7.251 121.975 8.75 102.942 8.768 102.75l1.471-2.257s-.812.815-1.399 1.467l-.001.001a8.178 8.178 0 0 0-.459.545l-1.915 2.269c-1.399-6.21.732-13.622.754-13.698l.131-.447-.011.003c.271-.912.579-1.741.579-1.741-.224.301-.788 1.39-1.04 1.883l-2.261.701c.089-19.272 7.839-32.244 10.836-35.632.727-.821 1.399-1.238 1.998-1.238.944 0 1.482.888 1.487.899l.081.161c.023.112.052.235.099.39 0 0 .05 2.359-2.325 6.943 0 0 2.239 2.792 1.182 8.583 0 0 1.86-5.625-.39-8.542 0 0 2.797-5.823 1.899-7.648.524-1.246 1.321-1.96 2.225-1.96.5 0 .986.23 1.269.601.202.264.384.902.43 1.185.312 1.936-.667 4.859-.667 5.012l-.802 2.582c1.307-1.95 1.729-3.334 1.867-3.984.331-.679.812-1.476 1.508-2.172.383-.383.883-.5 1.5-.5.615 0 .966.379 1.137.753.161.352-.029 1.542-.355 2.122-1.43 2.542-2.051 8.88-2.061 9.188l-.908 1.06 1.341-.881c.304-.325 1.26-1.168 2.024-1.168.196 0 .793 0 1.125 1.274.636 2.447-5.236 6.875-7.552 8.375l-.085.055-.022.099c-3.052 13.351 2.673 20.151 6.854 25.117 1.559 1.852 2.905 3.451 3.637 5.103 6.125 13.824-4.701 25.796-6.081 27.241z" transform="translate(-5.2 -2.85) scale(1.40007)"/></g><g id="Arm_3_"><path id="Fill_7_" fill="#CCE2EA" d="M58.177 106.774c2.811-6.338 14.596-12.045 10.477-30.062 0 0-8.479-5.489-7.658-8.647.82-3.158 3.573-.214 3.573-.214s-.232-7.447-2.085-9.585c-1.854-2.139 1.613-3.592 2.891-2.047 1.279 1.545 1.988 3.637 1.988 3.637s-1.066-3.732-.604-5.387c.442-1.581 3.042-3.177 4.464.75 0 0 1.278-2.839 3.865.085 2.588 2.925 10.9 15.971 10.9 36.137l-2.613-.81s2.303 7.863.641 14.307l-2.182-2.586s1.766 19.338-17.383 32.089c-.001 0-12.927-12.657-6.274-27.667z" transform="translate(-5.2 -2.85) scale(1.40007)"/><path id="Outline_10_" d="M64.267 134.62l.145.142.17-.112c16.934-11.276 17.599-27.885 17.525-31.576l2.021 2.396.121-.47c1.434-5.562-.074-12.235-.525-13.997l2.505.776v-.339c0-19.613-7.913-32.855-10.962-36.303-.826-.934-1.625-1.407-2.373-1.407-.801 0-1.404.391-1.699.795-.851-1.89-2.033-1.97-2.559-1.97-.652 0-1.29.306-1.666.798-.299.391-.381.899-.502 1.33-.219.784-.246 2.051 0 2.44-.367-.624-.564-.873-.969-1.25-.505-.472-1.233-.875-2-.875-.818 0-1.401.537-1.656 1.094-.172.378-.344 1.594.438 2.976 1.146 2.027 1.768 6.269 1.87 8.077-.464-.388-1.079-.792-1.798-.792-.538 0-1.254.286-1.608 1.648-.819 3.156 6.731 8.241 7.68 8.864 2.946 13.042-2.44 19.441-6.771 24.585-1.583 1.881-2.95 3.505-3.712 5.222-6.648 14.996 6.195 27.82 6.325 27.948zm-5.87-27.745c.732-1.652 2.078-3.251 3.637-5.103 4.182-4.965 9.906-11.766 6.854-25.117l-.022-.099-.086-.055c-2.316-1.5-8.188-5.928-7.552-8.375.331-1.274.929-1.274 1.124-1.274.766 0 1.721.843 2.025 1.168l1.34.881-.908-1.06c-.01-.308-.631-6.646-2.061-9.188-.326-.581-.516-1.771-.355-2.122.171-.374.522-.753 1.137-.753.617 0 1.117.117 1.5.5.696.696 1.178 1.493 1.509 2.172.138.65.56 2.034 1.866 3.984l-.802-2.582c.001-.153-.979-3.076-.667-5.012.047-.283.229-.921.431-1.185.283-.371.77-.601 1.269-.601.904 0 1.701.714 2.225 1.96-.898 1.825 1.899 7.648 1.899 7.648-2.25 2.917-.39 8.542-.39 8.542-1.058-5.792 1.182-8.583 1.182-8.583-2.375-4.583-2.325-6.943-2.325-6.943.046-.155.075-.278.099-.39l.08-.161c.006-.011.544-.899 1.488-.899.599 0 1.271.417 1.998 1.238 2.996 3.388 10.746 16.36 10.836 35.632l-2.262-.698c-.252-.493-.816-1.582-1.039-1.883 0 0 .309.829.578 1.741l-.01-.003.131.447c.021.076 2.152 7.488.754 13.698l-1.916-2.269a8.178 8.178 0 0 0-.459-.545l-.001-.001a48.701 48.701 0 0 0-1.399-1.467l1.471 2.257c.018.191 1.517 19.225-17.1 31.743-1.381-1.445-12.206-13.417-6.079-27.243z" transform="translate(-5.2 -2.85) scale(1.40007)"/></g><g id="Body"><path id="Fill_6_" fill="#CCE2EA" d="M42.109 81.156s-13.249 2.727-22.458 26.993c-9.333 24.59-1.427 36.291 4.037 45.128l.125-4.89s.366 5.56 7.519 11.227v-3.09s12.267 19.498 28.293 1.544l-1.327 3.565s7.853-4.843 10.02-11.098v3.616s12.722-13.943 8.917-31.92c-3.933-18.583-12.918-36.867-25.417-41.076l-3.166-3.875v2.167s-2.501-2.667-5-4.167c0 0 .833 1.167 1.333 4.667l-2.876 1.209z" transform="translate(-5.2 -2.85) scale(1.40007)"/><path id="Belly" fill="#FFF" d="M46.158 113c-.187.229-1.491-1.833-3.241-2.25 0 0 .975 1.124.946 2.271 0 0-1.612-1.083-2.946-1.135 0 0 1.413 1.115 1.415 1.615 0 0-19.588 3.25-19.793 19.833-.205 16.583 17.353 26.5 21.324 27.333 3.971.833 5.888.083 13.221-5.917s14.082-16.417 12.416-24.5c-1.666-8.083-12.584-14.833-16.75-15.917l-4.166-1.083s.25-1.166 1.25-1.833c0 0-2.185-.25-3.676 1.583z" transform="translate(-5.2 -2.85) scale(1.40007)"/><path id="Outline_6_" d="M77.494 122.149c-3.59-16.965-12.176-36.689-25.513-41.238l-3.564-4.362v2.253c-.826-.828-2.646-2.73-4.622-3.766-.279-.146-.801-.285-.801-.285.286.213.616.718.616.718.233.442.631 1.066 1.115 4.292l-2.65 1.119c-.134.027-13.489 3.034-22.642 27.149-9.136 24.073-1.757 35.972 3.631 44.66l.868 1.401.096-3.736c.709 2.145 2.526 5.75 7.165 9.425l.405.32v-2.808c1.548 2.123 6.875 8.593 14.274 8.593 4.413 0 8.813-2.268 13.093-6.746l-1.139 3.059.619-.382c.303-.187 6.998-4.364 9.639-10.032v2.982l.435-.476c.127-.14 12.763-14.244 8.975-32.14zm-9.397 28.274c-1.755 5.064-7.382 9.25-9.281 10.549l1.06-2.848c.25-.702.523-2.03.523-2.03l-.944 1.777c-4.451 4.985-9.021 7.514-13.583 7.514-8.529 0-14.255-8.935-14.312-9.024l-.461-.733v3.434c-4.848-3.984-6.479-8.332-6.96-10.168a26.21 26.21 0 0 1-.172-.882c-.162-.92-.214-1.511-.214-1.511l-.172 1.85-.104 4.053c-5.332-8.598-12.615-20.375-3.574-44.195 9.045-23.832 22.144-26.81 22.321-26.852l3.053-1.283-.027-.191c-.281-1.963-.666-3.207-.958-3.932 2.173 1.493 4.173 3.614 4.194 3.638l.433.461v-2.097l2.723 3.332.113.079c13.178 4.437 21.685 24.032 25.253 40.891 3.331 15.739-6.233 28.519-8.423 31.188v-2.936l.011-1.695-.499 1.611z" transform="translate(-5.2 -2.85) scale(1.40007)"/></g><g id="Face"><g id="Mouth"><path id="Inside" fill="#5E0808" d="M24.988 100.75s7.139-2.062 22.083-2.688c7.616-.318 14.278.188 17.364.625 3.086.437 4.537.875 1.028 3-3.713 2.249-10.467 6.125-17.667 5.812-7.199-.312-18.998-3.75-20.752-4.25-1.754-.5-4.939-1.994-2.056-2.499z" transform="translate(-5.2 -2.85) scale(1.40007)"/><path id="Tongue" fill="#AF2020" d="M37.312 105.887s10.037-7.545 20.287-.201c.001 0-7.14 3.897-20.287.201z" transform="translate(-5.2 -2.85) scale(1.40007)"/><path id="Tooth" fill="#FFF" stroke="#000" stroke-width=".7" d="M37.246 142.843s3.021-6.083 2.88.903l-2.88-.903z"/><path id="Tooth_1_" fill="#FFF" stroke="#000" stroke-width=".7" d="M80.28 142.655s-1.93-6.513 2.723-1.3l-2.723 1.3z"/><path id="Outline_2_" d="M48.622 107.768a19.5 19.5 0 0 1-.836-.018c-4.506-.196-11.821-1.687-20.6-4.2l-.21-.06c-.035-.01-3.456-1.016-3.397-2.131.029-.558.793-.755 1.366-.855.045-.015 7.313-2.072 22.116-2.691a117.6 117.6 0 0 1 4.853-.1c5.476 0 10.077.376 12.558.728 2.107.299 3.136.56 3.273 1.234.118.577-.525 1.243-2.15 2.227-2.901 1.755-9.689 5.866-16.973 5.866zm3.291-9.556c-1.623 0-3.248.034-4.831.1-14.734.616-21.954 2.657-22.025 2.678-.957.169-.979.393-.979.395-.018.337 1.38 1.152 3.035 1.625l.211.06c8.741 2.502 16.016 3.986 20.483 4.18 7.462.331 14.556-3.977 17.526-5.776 1.821-1.103 1.949-1.556 1.92-1.699-.092-.448-1.957-.712-2.854-.839-2.462-.35-7.037-.724-12.486-.724z" transform="translate(-5.2 -2.85) scale(1.40007)"/></g><g id="Eye"><path id="White" fill="#FFF" d="M35.865 87.584c.724 0 1.38.444 1.856 1.16.475.717.769 1.706.769 2.798s-.294 2.081-.769 2.798c-.476.716-1.132 1.16-1.856 1.16-.724 0-1.38-.444-1.856-1.16-.475-.717-.769-1.706-.769-2.798s.294-2.081.769-2.798c.476-.716 1.132-1.16 1.856-1.16z" transform="rotate(-6.459 20.945 172.284) scale(1.4)"/><g id="Iris_1_"><path id="Iris" fill="#3579BC" d="M36.076 87.486c.549 0 1.047.28 1.407.732.361.453.584 1.078.584 1.767 0 .689-.223 1.314-.584 1.767-.36.452-.858.732-1.407.732s-1.047-.28-1.407-.732c-.361-.453-.584-1.078-.584-1.767 0-.689.223-1.314.584-1.767.36-.452.858-.732 1.407-.732z" transform="matrix(1.39111 -.15765 .15765 1.39111 -19.05 3.45)"/><path id="Pupil" d="M36.189 87.682c.365 0 .695.192.935.503a2 2 0 0 1 .387 1.214 2 2 0 0 1-.387 1.214c-.24.311-.57.503-.935.503-.365 0-.695-.192-.935-.503a2 2 0 0 1-.387-1.214 2 2 0 0 1 .387-1.214c.24-.311.57-.503.935-.503z" transform="matrix(1.39111 -.15765 .15765 1.39111 -18.9 3.45)"/><path id="Highlight" fill="#FFF" d="M35.148 88.153c.196 0 .374.086.503.225.129.138.209.33.209.541 0 .211-.08.403-.209.541a.685.685 0 0 1-.503.225.685.685 0 0 1-.503-.225.792.792 0 0 1-.209-.541c0-.211.08-.403.209-.541a.685.685 0 0 1 .503-.225z" transform="rotate(-6.477 20.152 168.69) scale(1.40005)"/></g><path id="Outline" d="M36.403 95.715l-.064.009c-.783.088-1.562-.277-2.195-1.031-.608-.724-1.012-1.728-1.136-2.827-.26-2.294.758-4.27 2.319-4.498.847-.097 1.626.269 2.259 1.022.608.725 1.012 1.729 1.136 2.828.26 2.294-.758 4.269-2.319 4.497zm-.956-7.858c-1.318.192-2.167 1.962-1.941 3.952.113 1.002.477 1.913 1.022 2.562.521.621 1.145.925 1.755.855l.084.241-.036-.248c1.27-.185 2.12-1.956 1.894-3.945-.113-1.003-.477-1.913-1.022-2.562-.521-.621-1.144-.924-1.756-.855z" transform="translate(-5.2 -2.85) scale(1.40007)"/></g><g id="Eye_1_"><path id="White_1_" fill="#FFF" d="M58.556 87.069c.724 0 1.38.444 1.856 1.16.475.717.769 1.706.769 2.798s-.294 2.081-.769 2.798c-.476.716-1.132 1.16-1.856 1.16-.724 0-1.38-.444-1.856-1.16-.475-.717-.769-1.706-.769-2.798s.294-2.081.769-2.798c.476-.716 1.132-1.16 1.856-1.16z" transform="rotate(8.169 98.85 88.301) scale(1.40014)"/><g id="Iris_2_"><path id="Iris_3_" fill="#3579BC" d="M58.396 86.978c.549 0 1.047.28 1.407.732.361.453.584 1.078.584 1.767 0 .689-.223 1.314-.584 1.767-.36.452-.858.732-1.407.732s-1.047-.28-1.407-.732c-.361-.453-.584-1.078-.584-1.767 0-.689.223-1.314.584-1.767.36-.452.858-.732 1.407-.732z" transform="rotate(8.163 98.74 85.915) scale(1.40012)"/><path id="Pupil_1_" d="M58.309 87.177c.365 0 .695.192.935.503a2 2 0 0 1 .387 1.214 2 2 0 0 1-.387 1.214c-.24.311-.57.503-.935.503-.365 0-.695-.192-.935-.503a2 2 0 0 1-.387-1.214 2 2 0 0 1 .387-1.214c.24-.311.57-.503.935-.503z" transform="rotate(8.152 98.793 84.992) scale(1.40008)"/><path id="Highlight_1_" fill="#FFF" d="M57.417 88.129c.197 0 .375.086.504.224.129.139.209.33.209.541 0 .211-.08.402-.209.541a.688.688 0 0 1-.504.224.688.688 0 0 1-.504-.224.793.793 0 0 1-.209-.541c0-.211.08-.402.209-.541a.688.688 0 0 1 .504-.224z" transform="rotate(8.152 97.039 85.117) scale(1.40008)"/></g><path id="Outline_1_" d="M58.023 95.201l-.064-.007c-.78-.112-1.442-.663-1.864-1.552-.404-.854-.542-1.928-.386-3.022.329-2.286 1.813-3.939 3.38-3.766.845.12 1.507.671 1.929 1.56.404.854.542 1.928.386 3.023-.33 2.284-1.814 3.938-3.381 3.764zm1.06-7.845c-1.325-.146-2.594 1.351-2.877 3.333-.144.998-.022 1.971.341 2.737.348.733.874 1.184 1.482 1.271l.021.254.027-.249c1.275.142 2.545-1.357 2.828-3.339.144-.999.021-1.971-.341-2.737-.346-.731-.873-1.182-1.481-1.27z" transform="translate(-5.2 -2.85) scale(1.40007)"/></g><path id="L_Eyebrow" d="M32.552 88.918s1.842-3.618 5.191-2.028c0 0-3.424-4.77-5.191 2.028z" transform="translate(-5.2 -2.85) scale(1.40007)"/><path id="R_Eyebrow" d="M61.215 88.097s-1.819-3.162-5.13-1.772c0 0 3.385-4.17 5.13 1.772z" transform="translate(-5.2 -2.85) scale(1.40007)"/></g><g id="Hat_1_"><g id="Hat_Base_1_"><path id="Fill_2_" fill="#3579BC" d="M57.08 79.816s.396-6.065-6.839-9.615c-7.232-3.55-11.31-7.224-11.877-7.919-.431-.528-1.369-2.482-2.326-1.386-.963 1.096-.829 5.149.309 9.301 1.133 4.152-1.119 6.821-.744 9.934 0 0 9.885-4.917 21.477-.315z" transform="translate(-5.2 -2.85) scale(1.40007)"/><g id="Stripes_1_" fill="#1F519B"><path id="ID0.7481364733539522" d="M56.489 76.644s-9.918-5.002-20.663.687l.509-1.945s8.266-4.683 19.213-.637l.941 1.895z" transform="translate(-5.2 -2.85) scale(1.40007)"/><path id="ID0.9103221707046032" d="M52.056 71.12s-9.313-2.25-15.061 1.734l-.403-1.555s6.266-3.832 12.795-1.901l2.669 1.722z" transform="translate(-5.2 -2.85) scale(1.40007)"/><path id="ID0.7694051619619131" d="M42.718 66.225s-4.81.198-6.263 3.054l-.644-1.401s.856-2.779 5.598-2.881l1.475 1.343" transform="translate(-5.2 -2.85) scale(1.40007)"/><path id="ID0.012456162832677364" d="M38.364 62.282s-2.334.49-2.901 1.961l.166-1.87 2.241-1.354.494 1.263z" transform="translate(-5.2 -2.85) scale(1.40007)"/></g><path id="Outline_5_" d="M57.384 80.297l-.429-.17a27.482 27.482 0 0 0-11.117-1.928c-5.923.197-10.045 2.211-10.085 2.231l-.426.21-.056-.47c-.167-1.375.15-2.634.483-3.967.444-1.771.901-3.602.269-5.918-1.025-3.743-1.436-8.246-.238-9.61.25-.284.528-.432.826-.442.758-.025 1.336.839 1.756 1.47.099.149.185.279.258.367.434.533 4.453 4.24 11.766 7.831 7.35 3.606 7.027 9.875 7.024 9.937l-.031.459zM36.631 60.903c-.107.003-.222.075-.343.215-.765.869-.835 4.554.38 8.991.68 2.486.179 4.489-.266 6.257-.277 1.115-.543 2.175-.505 3.262 1.235-.534 4.911-1.931 9.919-2.098a28.12 28.12 0 0 1 10.926 1.797c-.07-1.459-.782-5.947-6.649-8.824-7.515-3.69-11.514-7.426-11.989-8.009a5.66 5.66 0 0 1-.293-.417c-.28-.416-.791-1.186-1.18-1.174z" transform="translate(-5.2 -2.85) scale(1.40007)"/></g><path id="Puff_1_" fill="#FFF" stroke="#000" stroke-width=".7" d="M45.342 83.456a3.46 3.46 0 0 1-2.416-.86 3.12 3.12 0 0 1-1.063-2.232 3.12 3.12 0 0 1 .913-2.298 3.46 3.46 0 0 1 2.353-1.018c.93-.031 1.785.3 2.415.86a3.12 3.12 0 0 1 1.063 2.232 3.12 3.12 0 0 1-.912 2.298 3.46 3.46 0 0 1-2.353 1.018z"/><g id="Brim_1_"><path id="Brim_Fill_1_" fill="#FFF" d="M58.113 81.645s.905-1.032-.062-1.861c-.967-.827-6.171-3.052-11.774-2.8-5.599.252-7.421.979-8.836 1.691-1.414.711-4.162 2.531-2.906 4.02 0 0-1.609 2.865-.09 2.814.343-.012 1.365-.462 1.365-.462s8.351-5.066 21.198-.704c-.002 0 3.977 1.484 1.105-2.698z" transform="translate(-5.2 -2.85) scale(1.40007)"/><path id="Brim_Outline_1_" d="M33.628 84.996c.114.438.332.761.829.76.437 0 1.578-.556 1.578-.556.712-.389 4.251-2.166 9.732-2.348 3.551-.118 7.222.446 10.916 1.678 0 0 2.093.957 2.528-.306.255-.747-.014-1.617-.804-2.589.144-.22.343-.612.31-1.059-.025-.377-.206-.711-.534-.993-1.012-.864-6.149-3.059-11.728-2.873l-.232.009c-5.604.252-7.492.987-8.944 1.718-.501.253-3.028 1.594-3.344 3.13a1.45 1.45 0 0 0 .229 1.141c-.232.396-.766 1.419-.536 2.288zm1.08-2.15l.06-.091.014.001s.377-.516 1.196-.941c0 0-.643.028-1.379.542-.128-.215-.194-.438-.141-.683.191-.94 1.676-2.065 3.06-2.761 1.403-.706 3.231-1.414 8.728-1.663l.228-.009c5.486-.182 10.515 2.021 11.361 2.747.222.188.335.393.354.625.021.283-.107.537-.208.695-.819-.542-1.517-.524-1.517-.524.844.371 1.256.86 1.256.86l.149.175c.76.883 1.043 1.634.839 2.229-.235.686-1.465.108-1.465.108l-.192-.066c-3.82-1.297-7.625-1.892-11.301-1.77-6.278.209-9.969 2.405-10.121 2.499 0 0-1.236.719-1.486.041-.253-.68.346-1.691.565-2.014z" transform="translate(-5.2 -2.85) scale(1.40007)"/></g></g><g id="Gift"><g id="Box"><path id="Box_Fill" fill="#1F519B" d="M31.336 10.824l1.122 19.375 11.5 5.687 14.063-6.187 1.336-18.875-15.024-4.063-12.997 4.063" transform="translate(-5.2 -2.85) scale(1.40007)"/><path id="Box_Top" fill="#3579BC" d="M31.336 10.824L44.25 14.97l15.209-4.146-15.126-4.063-12.997 4.063" transform="translate(-5.2 -2.85) scale(1.40007)"/><path id="Box_Side" fill="#2964AA" d="M44.25 14.97l-.292 20.916 14.063-6.187 1.438-18.875L44.25 14.97" transform="translate(-5.2 -2.85) scale(1.40007)"/><path id="Box_Outline" d="M43.952 36.162l-11.735-5.804-1.142-19.714 13.253-4.143 15.292 4.135-1.361 19.23-14.307 6.296zM32.7 30.04l11.265 5.571 13.818-6.08 1.311-18.52-14.755-3.99-12.742 3.982L32.7 30.04z" transform="translate(-5.2 -2.85) scale(1.40007)"/></g><path id="R_Ribbon" fill="#CECECE" stroke="#000" stroke-width=".7" d="M45.669 10l18.687 6.037s-.835 28.58-.919 28.617c-.084.038 6.911-2.818 6.911-2.818l1.246-27.773-19.755-6.121L45.669 10z"/><path id="L_Ribbon" fill="#CECECE" stroke="#000" stroke-width=".7" d="M63.696 8.366l-19.256 5.79.455 27.964 5.523 2.732-.09-28.805 20.019-5.843-6.65-1.838"/><g id="Bow"><g id="ID0.7295177006162703"><path id="ID0.6765771945938468" fill="#CECECE" d="M53.475 12.132c-4.01 0-7.617-.673-8.754-.909l.568-.781c1.002.053 1.989.08 2.938.08 9.234 0 13.48-2.464 14.807-3.449-.244 1.145-1.262 2.479-1.273 2.495l-.221.285.346.106c.449.139.879.208 1.23.241-2.395 1.283-5.631 1.932-9.639 1.932h-.002z" transform="translate(-5.2 -2.85) scale(1.40007)"/><path id="ID0.06285197334364057" d="M62.572 7.684a8.693 8.693 0 0 1-1.012 1.731l-.438.571.688.212c.166.051.328.093.486.127-2.275 1.034-5.234 1.557-8.822 1.557-3.615 0-6.898-.55-8.323-.827l.259-.356c.96.048 1.906.073 2.816.073 8.182-.001 12.501-1.937 14.346-3.088m.762-1.183s-3.787 3.771-15.107 3.771c-.965 0-1.982-.027-3.06-.087l-.875 1.202s4.259.996 9.183.996c3.625 0 7.611-.539 10.525-2.412 0 0-.107.009-.289.009a6.12 6.12 0 0 1-1.754-.259c0-.001 1.459-1.897 1.377-3.22z" transform="translate(-5.2 -2.85) scale(1.40007)"/></g><g id="ID0.18313720868900418"><path id="ID0.18367112940177321" fill="#CECECE" d="M35.521 12.392c-2.899 0-5.236-.65-6.958-1.936.259-.035.575-.106.904-.247l.256-.109-.136-.243c-.008-.015-.698-1.263-.908-2.393 1.128 1.075 4.246 3.316 10.647 3.316.67 0 1.368-.025 2.074-.076l.416.788c-.84.24-3.424.9-6.295.9z" transform="translate(-5.2 -2.85) scale(1.40007)"/><path id="ID0.6842367174103856" d="M29.128 8.175c1.515 1.177 4.647 2.856 10.199 2.856.625 0 1.272-.022 1.929-.065l.194.368c-1.043.277-3.372.807-5.929.807-2.588 0-4.714-.525-6.341-1.563.125-.038.254-.083.385-.139l.512-.218-.271-.486c-.158-.284-.46-.902-.678-1.56m-.755-1.414c-.061 1.323.997 3.219.997 3.219a3.315 3.315 0 0 1-1.271.259c-.132 0-.21-.009-.21-.009 2.114 1.873 5.004 2.412 7.633 2.412 3.571 0 6.659-.996 6.659-.996l-.634-1.202c-.781.06-1.52.087-2.219.087-8.209.001-10.955-3.77-10.955-3.77z" transform="translate(-5.2 -2.85) scale(1.40007)"/></g><path id="ID0.6194290756247938" fill="#CECECE" stroke="#000" stroke-width=".7" d="M56.344 9.504s4.989-3.92 6.826-6.02c1.837-2.1 6.15-4.015 6.719-1.52.568 2.494.544 2.291 2.075 3.516 1.53 1.226 2.581 4.42-2.232 6.126-4.814 1.706-9.333 2.042-12.09 1.649-2.755-.396-2.178-3.05-1.298-3.75z"/><path id="ID0.47165424237027764" fill="#CECECE" stroke="#000" stroke-width=".7" d="M53.588 9s-2.551-2.764-3.865-3.58c-1.313-.816-2.83-3.004-4.084-1.313-1.254 1.691-3.004 2.1-4.23 3.296-1.224 1.195.292 2.07 2.538 3.063 2.246.993 7.64 1.72 9.64 1.837 1.999.116 1.037-2.494 0-3.303z"/><path id="ID0.8625920997001231" fill="#CECECE" stroke="#000" stroke-width=".7" d="M53.253 13.384c.88.493 1.386 1.02 4.027.267.493-.14.58-.792-.12-2.192-.7-1.4.935-2.16-.874-2.51-1.81-.35-3.384-.176-3.326 1.05.06 1.227-.998 2.664.293 3.385z"/></g></g></g></g></g></svg>