<svg width="120" height="120" viewBox="0 0 120 120" xmlns="http://www.w3.org/2000/svg" xmlns:xlink="http://www.w3.org/1999/xlink"><defs><path id="a" d="M1.087.533h19.095v18.163H1.087z"/><path id="c" d="M.582.28h14.405v14.988H.582z"/><path id="e" d="M0 .184h107.373V8.21H0z"/></defs><g fill="none" fill-rule="evenodd"><path d="M40.16 35.12c-.919-1.274-3.624-1.229-3.176-2.969.25-.994.817-2.169-.36-2.963-.975-.651-2.236-.74-3.444-.525-1.284.23-2.017.963-2.532 1.872-.18.326-.33.67-.487 1.002-.304.644-.922.8-1.58.813-.73-.201-1.425-.5-2.241-.422-1.748.162-2.677.918-3.318 2.2-.424.845.024 1.948.563 2.692.333.459.854.682 1.394.86.198.13.41.253.649.362.207.091.465.146.743.176.254.15.466.344.593.625.444.941.697 1.857 1.692 2.538 1 .685 2.468.383 3.35-.244.535-.38.816-.968 1.078-1.478.695-1.354 1.757-1.386 3.36-.702 1.441.619 2.668.358 3.691-.652.783-.773.596-2.39.025-3.185m42.613-15.656c-.199-.1-1.672-.323-1.662-.599.026-.67.566-1.356.73-2.018.26-1.052-.596-1.674-1.385-2.12-1.099-.62-2.163-.735-3.191.048-.479.368-.782.917-1.11 1.409-.124.176-.376.59-.678.773-.34-.143-.663-.376-.948-.606-1.563-1.26-3.238-2.36-4.72-.182-.998 1.469-1.17 3.967-.155 5.497.71 1.075 1.549 1.41 2.767 1.688.39.088.98.028.797.705-.096.354-.147.715-.246 1.071-.195.684-.269 1.325-.12 2.022.463 2.175 3.233 2.849 4.498 1.086.762-1.065.602-2.48 1.384-3.549.704-.958 1.802-.008 2.573.174.627.15 1.31.144 1.855-.261.825-.612 1.396-1.486 1.329-2.548-.078-1.307-.559-2.01-1.718-2.59m-15.05 10.312c-.476-1.116-1.677-1.53-2.705-1.937-.245-.097-.568-.101-.828-.138-.89-.116-1.556-1.425-.539-1.858.57-.244 1.02-.362 1.45-.83.669-.74.306-1.938-.21-2.624-.322-.427-.858-.673-1.345-.834-.223-.077-.42-.11-.65-.149-1.08-.17-.606-.733-.686-1.284-.36-2.47-3.702-2.193-4.967-.613-.478.593-.292 1.582-.56 2.11-.491.123-1.045-.121-1.553-.004-1.47.335-1.557 2.751-1.269 3.85.177.685.791 1.086 1.329 1.47a.873.873 0 0 1 .327.4c-.335.712-.82 1.407-.566 2.173a.576.576 0 0 0 .054.202c.045.1.108.176.177.243 1.078 1.494 3.828.616 5.292.324 1.478-.293 1.409 2.198 1.781 3.188.341.904 1.348 1.796 2.384 1.603 2.432-.449 4.075-2.957 3.084-5.292" fill="#FAA91C"/><path d="M91.757 32.606c-.56-1.25-2.107-1.599-3.263-1.988-1.1-.37-2.076-.786-2.046-2.15.022-.735.622-1.388.847-2.065.277-.818-.166-1.902-1.102-2.026-2.53-.335-5.138 1.992-6.038 4.213-.641 1.583-.895 3.277-2.292 4.432-.91.758-2.198.753-3.238.346-1.06-.421-1.635-1.014-2.338-1.881-1.106-1.358-2.574-.37-3.455.775-.11.143-.199.31-.263.49a4.825 4.825 0 0 0-.343.766c-.46 1.303.144 2.562.584 3.758 1.16 3.176 3.994 3.754 7.06 3.71 1.59-.026 3.252.025 4.753-.555 1.4-.541 2.346-1.876 3.695-2.516 1.531-.724 3.365.241 4.985.052 1.12-.127 2.173-.71 2.643-1.79.523-1.198.331-2.4-.19-3.57" fill="#FAA91C"/><path d="M88.302 12.044c-1.087-.492.3-1.872.535-2.376.158-.354.203-.921.096-1.286-.321-1.097-1.353-2.163-2.52-2.34-1.313-.201-2.313.227-3.389.95-.498.336-.904.816-1.24 1.309-.273.401-.169.95-.991.962-.724.007-1.41-.614-1.989-.98-1.92-1.225-5.207.174-4.44 2.733.162.546.374 1.08.664 1.566.228.558.512 1.05.86 1.548.75 1.067 1.663 1.518 1.663 3.002 0 1.156.293 2.063 1.391 2.577 1.033.486 2.625-.053 3.477-.658.625-.44 1.156-.964 1.68-1.522.617-.665 1.036-1.68 2.005-.961 1.148.853 1.88 1.149 3.254.53 2.615-1.177.743-4.237-1.056-5.054" fill="#FFE38C"/><path d="M85.015 11.435c-.406 1.083-1.322 1.705-2.464 1.052a2.556 2.556 0 0 1-1.086-1.255c-.563-1.364.323-2.825 1.194-3.83.036-.041-.02-.095-.063-.064-1.55 1.195-2.288 3.492-.971 5.113 1.178 1.452 4.036 1.29 3.872-.958-.017-.253-.395-.285-.482-.058" fill="#FDBB3E"/><path d="M72.685 9.836c-.393-.708-1.474-1.157-2.22-1.317-.446-.097-.868-.094-1.32-.052-.253.022-.506.062-.757.095-.882.103-.912-.479-1.07-.982-.22-.715-.76-1.727-1.627-1.794-2.053-.159-3.084 1.426-3.357 3.25-.068.441-.057 1.18-.634 1.335a.24.24 0 0 1-.053.009c-.125.013-.254.03-.375.06a1.663 1.663 0 0 0-.989.407c-.47.394-.57 1.083-.494 1.654.048.378.233.749.497 1.093.253.785.925 1.488 1.486 2.043.613.602 1.626.954 2.442 1.155.471.116.895.001 1.373.015.43.015.65 1.08.896 1.38.864 1.044 3.553.674 3.735-.844.066-.58-.368-1.341.365-1.688.408-.193.814-.332 1.186-.585.783-.528 1.136-1.497 1.288-2.387.147-.886.068-2.056-.372-2.847" fill="#FFD162"/><path d="M68.408 9.908c-.5-.177-1.364-.119-1.678.404-.158.267-.412 1.388-.931 1.09-.311-.18-.625-.376-1.003-.33-1.489.183-2.3 2.102-1.414 3.315.05.07.167 0 .124-.073-.498-.872-.11-1.955.617-2.564.784-.651 1.35.267 2.108.276.328.002.516-.339.63-.597.138-.31.076-.656.34-.92.29-.294.794-.302 1.173-.356.125-.017.152-.202.034-.245" fill="#FDBB3E"/><g transform="translate(35.928 .77)"><mask id="b" fill="#fff"><use xlink:href="#a"/></mask><path d="M20.143 10.072c-.212-1.214-.685-2.117-1.7-2.829-.44-.309-.983-.428-1.5-.54a17.537 17.537 0 0 0-.977-.186c-.616-.094-.39-.685-.339-1.157.13-1.18-.156-2.428-.952-3.312-.669-.742-2.118-1.583-3.124-1.51-1.797.129-3.534 1.548-4.013 3.28-.21.76.123 2.124-.475 2.726-.485-.152-.966-.375-1.42-.53-1.116-.383-2.139-.275-3.172.306-1.136.636-1.401 1.448-1.383 2.69.022 1.14.578 1.935 1.45 2.619.45.36 1 .618 1.52.866.283.137.576.255.864.377.816.341.858.9.845 1.616-.02 1.168-.074 2.278.615 3.279.698 1.002 2.073.945 3.138.918 1.404-.04 2.3-.19 3.176-1.33.381-.496.585-1.17.778-1.753.124-.368.245-.73.34-1.107.318-1.214 1.387-.976 2.197-.618.976.432 1.917.561 2.71-.276.841-.883 1.652-2.241 1.422-3.529" fill="#FFE38C" mask="url(#b)"/></g><path d="M54.8 8.45c-1.538-1.57-3.986-2.269-5.606-.426-.478.546-.615.994-.807 1.673-.274.973-2.255-.079-2.795-.199-1.055-.23-2.16.585-2.502 1.535-.058.165.143.27.255.15 1.18-1.303 2.418-1.042 3.885-.438.647.268 1.18-.027 1.611-.507.145-.16.206-.45.246-.656.242-1.15 1.356-2.2 2.564-2.14 1.13.055 2.123.461 3.042 1.12.07.05.174-.046.108-.111" fill="#FDBB3E"/><path d="M34.482 21.587a4.53 4.53 0 0 0-1.208-1.295c-.656-.475-1.359-.575-1.725-1.4-.324-.742-.144-1.758-.307-2.544-.108-.526-.514-.943-.892-1.292-1.614-1.497-5.5-1.63-6.652.508-.536.998-.078 2.68-1.482 2.641-.523-.236-1.057-.592-1.37-.702-.55-.194-1.299-.043-1.841.103-1.086.293-2.2 1.31-2.661 2.325-.543 1.193-.667 2.83-.088 4.046.179.378.374.759.77.953.813.4 2.046.183 2.455 1.16.47 1.123.757 1.96 1.816 2.688.955.66 2.721.49 3.69-.034.982-.528 1.07-1.84 1.175-2.807.183-1.651 1.934-1.634 3.106-1.223.749.266 1.395.818 2.183.968 2.392.448 4.521-1.798 3.031-4.095" fill="#FFE38C"/><path d="M58.454 17.004c-.317-1.083-1.327-1.768-2.37-2.005-.93-.213-1.533.699-2.344-.523-.48-.719-.642-1.597-1.157-2.302-1.487-2.043-5.028-.778-6.403.717-1.038 1.13-.564 2.658-.625 4.015-.045 1.04-1.664.59-2.27.71-.318.066-.56.24-.758.464a2.74 2.74 0 0 0-1.436 1.91c-.215 1.152-.026 2.463.652 3.444.601.869 1.663 1.917 2.84 1.702.523-.095 1.043-.25 1.49-.563.394-.278.858-.748 1.412-.59.452.132.824.605 1.128.94.904.976 1.675 1.604 3.054 1.611.851.003 2.22-.472 2.661-1.275.872-1.584-2.038-3.5.2-4.704 1.053-.567 3.002.744 3.793-.378.646-.916.435-2.166.133-3.173" fill="#FFD957"/><path d="M92.36 13.77c-1.314.038-2.619.338-3.586 1.28-.724.71-.974 1.668-2.239 1.174-.703-.276-1.263-.67-2.025-.769-.92-.12-1.785.711-2.34 1.425-.03.026-.058.054-.086.082-1.95 2.056-2.149 5.157-.643 7.531.583.92 1.75 1.277 2.76 1.18.54-.053 1.12-.229 1.578-.519.312-.195.614-.405.91-.623.934-.69 1.592-.22 2.15.558.652.903 1.549 2.348 2.803 2.454 1.286.11 2.384-.569 3.246-1.486.775-.819.623-1.812.32-2.803-.186-.618-.602-1.098-1-1.582-.663-.809 1.09-2.088 1.458-2.712 1.214-2.066-1.076-5.254-3.307-5.19" fill="#FFC83D"/><path d="M77.689 15.394c-.068-1.15-.416-2.93-1.327-3.728-2.061-1.813-5.271-.414-6.875 1.328-.772.847-1.565 2.028-2.904 1.504-.627-.245-1.138-.676-1.745-.959-1.143-.534-2.266-.224-3.176.62-1.64 1.517-1.063 4.36.942 5.174.564.223.966.547 1.111 1.052-.093.176-.196.348-.285.512-.652 1.174-.944 2.219-.386 3.518.475 1.109 1.715.914 2.578.52.314-.143.616-.309.925-.461.726-.365 1.209.588 1.439 1.021.28.544.608 1.127 1.07 1.535 2.02 1.796 4.64-.004 5.07-2.31.072-.391-.06-1.038-.177-1.406-.265-.824-1.24-1.754-.63-2.676.345-.527 1.22-.752 1.768-.994a5.6 5.6 0 0 0 1.691-1.15c.774-.772.97-2.064.911-3.1m29.466 2.124c-.947-2.383-3.795-3.621-5.696-1.485-.539.606-1.098 1.212-1.624 1.828-.826.961-1.372.292-2.091-.384-.905-.848-1.975-1.018-3.18-.793-.704.132-1.234.595-1.66 1.147-.072.04-.143.078-.198.125-2.103 1.604-1.558 4.771-.256 6.766.65.99 1.976 1.28 2.937 1.854.735.441 1.006 1.346 1.359 2.078.329.69.778 1.295 1.374 1.771 2.028 1.628 4.652.824 5.054-1.784.161-1.059-.203-2.148-.719-3.05-1.398-2.43 2.585-1.313 3.68-1.74 2.586-1.01 1.815-4.323 1.02-6.333" fill="#FFD957"/><path d="M49.225 19.17c-.313-1.091-.974-2.527-2.25-2.735-.544-.089-.982-.044-1.504.112-.692.205-1.358 1.474-2.172 1.053-.113-.378-.178-.79-.262-1.004-.23-.546-.591-1.037-.985-1.47a3.113 3.113 0 0 0-.352-.332 3.552 3.552 0 0 0-.567-.52c-.601-.433-1.231-.5-1.824-.329a4.747 4.747 0 0 0-.36-.004c-2.886.12-4.003 3.474-3.383 5.909.32 1.252 1.564 2.473 2.43 3.368.521.535 0 1.943.065 2.663.05.608.548 1.054.963 1.447 1.674 1.58 5.349 1.34 6.676-.562.548-.787-.169-1.969-.581-2.643-1.014-1.649 1.71-1.333 2.19-1.351.651-.028 1.204-.152 1.699-.595.702-.625.43-2.257.217-3.008" fill="#FDB714"/><path d="M66.368 15.697c-.714-.911-2.008-1.056-3.063-.86-1.045.198-1.928.714-2.752-.388-.438-.585-.692-1.058-1.366-1.381-.617-.298-1.307-.028-1.86.394a1.933 1.933 0 0 0-.805.44c-.968.863-.88 1.893-.608 3.09.227.998-.073 1.412-.818 1.995-.358.28-.74.713-.81 1.18-.38 2.545 3.129 3.937 5.15 3.122.562-.227 1.236-.679 1.665.205.14.29.25.6.389.893.18.374.485.737.859.925 1.034.522 2.268.388 3.254-.208.698-.425 1.68-1.121 1.39-2.068-.165-.534-.362-.936-.791-1.306-.2-.17-.387-.335-.625-.454-.653-.322-1.141-.98-.125-1.257.837-.229 1.702-.172 1.972-1.178.28-1.071-.426-2.344-1.056-3.144" fill="#FFE38C"/><path d="M99.005 26.015c-.423-.41-.722-.856-.298-1.413.105-.135.194-.317.216-.487.104-.707-.022-1.32-.375-1.941-1.2-2.11-4.246-3.364-6.415-2.016-.572.357-1.457 1.043-2.14.186-.19-.247-.292-.574-.48-.825-.244-.326-.569-.695-1.016-.722-1.224-.079-2.22.604-2.903 1.583-.685.985-.417 2.238-.016 3.275.066.176.142.338.224.497.028.92-.1 1.783-.898 2.574-.738.73-1.694 1.769-1.107 2.918.44.868 1.191 1.138 2.124 1.22.578.05 1.713-.277 1.833.625.096.722.141 1.24.592 1.824.638.828 1.936.913 2.845.656 1.321-.377 1.702-1.51 2.175-2.653.873-2.107 3.044-.089 4.598-.395.917-.18 2.172-1.052 2.379-2.022.276-1.286-.503-2.066-1.338-2.884" fill="#FDB714"/><path d="M17.342 34.567c.084-.282.2-.51.335-.707 1.624 1.336 4.307 1.315 5.818-.293.65-.695.69-1.855.306-2.642-.328-.677-1.096-1.046-1.529-1.64-.563-.771 1.934-2.343 2.358-2.65 2.272-1.653 1.436-4.107-.712-5.323-1.028-.581-2.086-.138-2.945.538-.943.74-1.909 1.916-3.267 1.287-.867-.402-1.463-1.64-2.088-2.314-1.907-2.053-4.51-1.465-6.352.492-1.754 1.86-2.355 4.687.232 6.013.396.2.765.23 1.141.532.616.484-.291 1.47-.59 1.845a4.777 4.777 0 0 0-.896 1.806c-.28 1.072-.142 2.036.348 3.007.938 1.854 3.197 2.955 5.288 2.63.714-.113 1.505-.549 1.93-1.126.333-.458.464-.916.623-1.455m30.202-7.584c-.584-.316-1.211-.145-1.817-.014-1.595.348-2.258-1.987-2.389-3.098-.205-1.753-1.155-2.6-2.9-2.828a4.628 4.628 0 0 0-.652-.034c-.924-.215-2.043.172-2.859.53-1.257.545-2.041 1.81-2.476 3.054-.395 1.129-.412 2.436.02 3.546.106.268.321.568.44.819.352.73-.107 1.319-.599 1.749-.59.511-1.369.725-1.978 1.229-1.295 1.065-1.568 4.04.12 4.907 1.133.585 2.291-.05 3.292-.616.493-.282.773-.578 1.442-.402.426.111.545.913.652 1.295.127.473.338.813.69 1.142 1.536 1.43 5.38-.6 5.602-2.447.057-.488-.183-.885-.432-1.275-.4-.63-1.081-1.209-.25-2.05.327-.326.909-.239 1.304-.194 1.327.143 2.224.388 3.456-.338 1.887-1.11.932-4.113-.666-4.975" fill="#FFC83D"/><path d="M77.733 23.535c-.765-.102-1.503-.042-2.265-.034-1.41.013-1.329-1.11-1.227-2.138.138-1.316.161-2.538-.834-3.542-1.584-1.598-4.462-1.193-5.858.377-.626.696-.336 1.957-.189 2.76.027.147.052.294.077.442a7.206 7.206 0 0 1-.014.447c-.089 1.518-1.769 1.282-2.743.977-.654-.205-1.268-.137-1.937-.025-.927.157-2.005 1.42-2.098 2.327-.145 1.379.253 2.632 1.211 3.636.334.345.734.545 1.157.688.614.407 1.357.659 2.048.648a2.1 2.1 0 0 1 .606.482c.505.592.535 1.555.866 2.255.273.573.627 1.01 1.145 1.372 1.015.71 2.242.547 3.255-.023 1.048-.592 1.308-1.678 1.893-2.639 1.03-1.69 3.225-.19 4.698-.172 1.155.017 2.002-1.041 2.509-1.951 1.03-1.858.087-5.564-2.3-5.887" fill="#FDB714"/><g transform="translate(98.386 20.336)"><mask id="d" fill="#fff"><use xlink:href="#c"/></mask><path d="M12.787.455c-1.038-.455-2.224.05-3.066.668-.558.406-.945.993-1.424 1.478-.268.274-.525.497-.874.678-.91.474-1.614-.683-1.882-1.299C4.582-.232 1.968.356.96 2.271c-.613 1.165-.434 2.36.222 3.472.862 1.455 3.2 1.877 2.42 3.95-.511 1.365-2.17 1.865-2.573 3.322-.293 1.036 1.189 1.808 1.941 2.052.98.315 2.43.245 3.394-.106.843-.307 2.057-1.107 2.113-2.108a.205.205 0 0 0-.103-.197c.544.048 1.068.136 1.621.111 1.12-.05 2.161-.336 2.817-1.299.58-.85-.034-2.009-.5-2.742-.178-.275-.418-.492-.64-.729-.75-.794-.045-.944.469-1.183.667-.312 1.293-.626 1.892-1.064 1.97-1.446.567-4.508-1.245-5.295" fill="#FFE38C" mask="url(#d)"/></g><path d="M39.354 32.031c-.306-1.085-1.133-1.664-1.992-2.293-1.123-.82.029-1.71.71-2.29.418-.36.587-.903.703-1.422.577-2.601-2.036-4.28-4.302-3.869-1.22.224-2.138 1.036-2.923 1.938-1.536 1.766-2.274-1-3.857-.717-.29.05-.565.142-.817.265-.41.088-.837.304-1.287.683-.806.678-.957 1.753-.603 2.703.263.708.588 1.398.893 2.09.268.612.15 1.721-.195 2.286-.225.368-.644.59-.915.92-.73.888-.97 1.653-.526 2.76.413 1.044 1.261 2.34 2.492 2.487 1.32.158 2.394-.479 3.46-1.188 1.086-.726 1.878-.542 2.867.212a3.254 3.254 0 0 0 1.876.695c2.76.152 5.16-2.64 4.416-5.26" fill="#FDB714"/><path d="M59.828 16.332c-.934-.855-1.813-1.205-3.041-.874-1.085.29-1.763-.01-2.639-.609a1.84 1.84 0 0 0-1.19-.326c-1.103.109-1.954.677-2.622 1.555a1.92 1.92 0 0 0-.37 1.304c.073.8.932 2.083-.176 2.563-.652.282-1.378.557-1.324 1.416.018.336.071.733.164 1.13-.406.697-.74 1.553-.96 2.28-.459 1.542.234 3.518 1.928 3.829.947.176 1.8-.316 2.432-.964.134-.21.28-.407.438-.6.676-.87 1.448-.436 2.067-.1.481.264 1.014.318 1.548.293.865-.051 1.662-.828 1.766-1.672.097-.787-.065-1.477-.249-2.241-.27-1.126 1.071-1.54 1.822-1.888 1.781-.821 1.734-3.876.406-5.096m47.052 12.08c-.058-1.385-.546-2.815-1.722-3.628-.899-.623-2.182-.61-3.184-.284-.726.237-1.32.543-1.956.946-.81.515-1.703 2.154-2.815 1.109-.775-.723-1.55-.888-2.517-.419-1.339.65-1.19 1.976-1.593 3.19-.238.728-1.875.53-2.51.694-.38.1-.66.396-.904.683-.735.875-.455 2.383-.043 3.318.055.125.119.248.189.366.052.147.11.287.182.424.692 1.345 2.4 1.21 2.76 2.883.228 1.06.73 2.018 1.815 2.358 1.011.316 2.022-.66 2.56-1.377.707-.945.935-1.624 2.338-1.619.92.004 1.776.451 2.705.453.981.004 1.698-.506 2.122-1.36.245-.485.132-1.07.028-1.572-.258-1.243.236-2.017.996-2.942.78-.95 1.605-1.899 1.549-3.223m-34.889 7.134c-.392-.414-1.024-.604-1.487-.92-.729-.495.103-1.918.205-2.582.162-1.024-.796-2.02-1.729-2.228-1.108-.243-2.233.16-2.961 1.054-.74.909-1.944 1.454-2.674.154-.344-.617-.255-1.414-.507-2.066-.886-2.274-3.92-1.618-5.219-.055-.438.527-.72.991-.818 1.668-.17 1.17.55 2.53-1.133 2.971-.77.2-1.766.067-2.492.422-.46.167-.85.44-1.006.905-.358 1.034.091 2.015.861 2.747.475.455.93.745 1.546.963.333.116.659.234.984.362.877.342 1.038 1.22 1.245 2.022.574 2.212 3.283 2.013 4.882 1.214 1.31-.652 2.007-2.132 3.34-2.702 1.02-.437 2.341-.08 3.36.195.815.22 1.204.776 2.08.852.89.074 2.083-.786 2.362-1.62.432-1.28.072-2.399-.839-3.356" fill="#FFC83D"/><path d="M27.51 31.58c-1.084-.493.3-1.87.535-2.376.162-.354.205-.92.096-1.29-.317-1.095-1.353-2.16-2.518-2.337-1.313-.2-2.316.226-3.39.95-.5.34-.902.817-1.24 1.31-.273.401-.17.953-.992.962-.721.01-1.41-.613-1.986-.98-1.922-1.225-5.211.174-4.442 2.733.164.545.374 1.082.662 1.568.23.556.515 1.051.861 1.546.75 1.065 1.665 1.518 1.665 3.002 0 1.155.291 2.063 1.392 2.578 1.03.484 2.625-.054 3.477-.656.622-.443 1.155-.968 1.674-1.525.62-.663 1.04-1.68 2.01-.961 1.146.853 1.877 1.149 3.251.53 2.62-1.177.745-4.237-1.055-5.054" fill="#FFD162"/><path d="M24.226 30.971c-.407 1.085-1.325 1.705-2.464 1.052a2.54 2.54 0 0 1-1.085-1.253c-.565-1.367.319-2.827 1.192-3.83.036-.041-.024-.097-.065-.066-1.55 1.198-2.285 3.495-.97 5.115 1.178 1.453 4.037 1.288 3.874-.96-.02-.252-.398-.285-.482-.058" fill="#FDBB3E"/><path d="M58.201 26.85c-.581-1.049-2.182-1.71-3.28-1.949-.662-.143-1.28-.137-1.953-.077-.372.03-.746.094-1.123.137-1.297.158-1.339-.703-1.573-1.445-.33-1.055-1.122-2.55-2.405-2.65-3.036-.238-4.555 2.104-4.964 4.804-.096.647-.078 1.737-.934 1.968-.028.009-.052.01-.076.014a3.502 3.502 0 0 0-.555.09c-.084.01-.177.021-.26.034-.462.07-.846.27-1.205.569-.694.579-.838 1.596-.73 2.44.076.56.344 1.109.737 1.615.373 1.16 1.364 2.203 2.198 3.02.908.89 2.4 1.41 3.606 1.706.695.17 1.322.004 2.028.026.635.017.957 1.591 1.322 2.035 1.278 1.545 5.248.995 5.514-1.247.104-.857-.538-1.984.547-2.496.602-.283 1.195-.489 1.75-.862 1.161-.781 1.682-2.213 1.902-3.525.222-1.313.104-3.038-.546-4.207" fill="#FFD957"/><path d="M51.874 26.958c-.73-.263-2.011-.18-2.472.593-.234.393-.611 2.05-1.375 1.61-.46-.266-.92-.556-1.482-.487-2.198.27-3.398 3.107-2.09 4.9.074.1.246 0 .185-.109-.74-1.29-.165-2.892.91-3.79 1.156-.964 2 .4 3.113.407.487.003.763-.5.934-.88.205-.457.114-.97.5-1.36.427-.432 1.174-.445 1.737-.524.177-.026.223-.298.04-.36" fill="#FDBB3E"/><path d="M88.302 29.023a6.483 6.483 0 0 0-1.875-.966c-.562-.184-1.147-.127-1.474-.658-.585-.939.201-2.168.153-3.168-.062-1.229-.88-2.08-1.907-2.641-2.115-1.152-5.484-.343-6.756 1.689-.568.906-.379 1.943-.048 2.891.27.78.823 1.92 1.483 2.673.164 1.104-1.15.94-1.723.862-1.598-.212-2.937-.493-4.47.182a2.414 2.414 0 0 0-1.42 2.306c.09 1.604 1.082 2.578 2.21 3.606.534.484 1.157.817 1.814 1.104.612.266 1.841.157 2.033.986.265 1.17.247 2.72 1.539 3.31 2.729 1.248 4.358-2.024 4.758-4.209.248-1.349 1.3-1.857 2.606-1.681.572.075 1.165.564 1.776.444 1.192-.228 2.005-1.064 2.459-2.167a4.207 4.207 0 0 0 .043-3.025c-.223-.612-.664-1.126-1.201-1.538" fill="#FFD957"/><path d="M87.524 28.708c-2.036-1.533-4.705-1.538-6.538.283-1.622 1.61-1.557 4.67.402 5.941.078.05.19-.044.118-.12-1.507-1.582-1.408-3.999.134-5.537 1.664-1.664 3.848-1.081 5.801-.421.088.029.165-.086.083-.146" fill="#FDBB3E"/><path d="M103.343 114.495c-48.018 11.843-81.549-1.61-81.549-1.61L11.69 35.717s60.23 9.462 99.96-1.73l-8.307 80.508z" fill="#F10D28"/><path d="M34.717 38.168l8.988 79.919c2.027.285 4.177.538 6.437.747l-6.678-80.076a407.717 407.717 0 0 1-8.747-.59M9.216 35.356l11.477 77.1s1.328.564 3.825 1.366l-9.663-77.685c-3.584-.457-5.64-.78-5.64-.78m11.938 1.532l8.977 78.545c2 .514 4.298 1.04 6.873 1.54l-8.77-79.363a408.47 408.47 0 0 1-7.08-.722m31.513 2.275l5.818 80.207c2.043.073 4.155.107 6.333.091L60.656 39.33c-2.704-.023-5.374-.08-7.99-.165m48.262-2.74l-4.553 79.663c1.67-.344 3.36-.724 5.068-1.132l6.472-79.995c-2.273.55-4.609 1.035-6.987 1.464m-16.685 2.126l-.53 79.65a164.84 164.84 0 0 0 7.216-1.083l2.922-79.583a190.4 190.4 0 0 1-9.608 1.016m-14.041.712l1.028 80.029c1.852-.089 3.738-.214 5.667-.375L77.38 39c-2.393.124-4.793.211-7.179.264" fill="#FBF9DD"/><g transform="translate(6 32.075)"><mask id="f" fill="#fff"><use xlink:href="#e"/></mask><path d="M52.747 8.21C23.95 8.21 1.804 4.827 1.46 4.772a1.728 1.728 0 0 1 .528-3.414c.542.085 54.47 8.317 103.334-1.142a1.729 1.729 0 0 1 .652 3.394c-18.023 3.487-36.718 4.6-53.227 4.6" fill="#C50D28" mask="url(#f)"/></g><path d="M32.884 66.777c-.177.704 30.734 14.083 32.667 14.083 1.933 0 30.907-14.609 31.261-15.666.351-1.056-29.152-13.909-31.964-13.734-2.808.179-31.612 13.91-31.964 15.317" fill="#C50D28"/><path d="M34.98 66.737c-.166.66 28.73 13.167 30.535 13.167 1.804 0 28.895-13.659 29.225-14.647.327-.988-27.255-13-29.881-12.837-2.629.163-29.55 13.002-29.879 14.317" fill="#FBF9DD"/><path d="M96.619 20.326c-1.468-.782-2.92-.602-4.465-.137-1.298.389-2.144 1.81-2.34 3.07-.154.974.155 2.583 1.17 2.981.127.048.23-.125.116-.207-1-.741-.94-2.343-.59-3.378.389-1.168 1.48-1.817 2.598-2.077 2.61-.606 4.367.734 5.023 3.24.078.282.468.23.451-.07-.09-1.306-.755-2.78-1.963-3.422m-59.206 8.899c-1.892-1.316-4.44-.613-6.346.284-.177.084-.062.35.118.276 1.636-.681 3.607-1.164 5.313-.447 1.867.783 2.671 2.841 2.593 4.74-.003.13.167.144.198.024.483-1.92-.255-3.75-1.876-4.877m37.154-4.467c-.914-.328-1.67-.454-2.586-.003-.9.446-.84 1.502-1.156 2.31-.2.513-1.453-.738-1.56-.83-.397-.35-.884-.545-1.395-.663-1.138-.265-2.17-.106-3.034.722-.07.068-.006.209.093.156 1.203-.627 2.214-.67 3.474-.17.813.326 1.344 1.383 2.258 1.493.447.053.649-.596.705-.9.15-.83.176-1.46 1.068-1.925.647-.341 1.417-.112 2.087-.013.104.015.147-.143.046-.177" fill="#F89D21"/><path d="M41.048 66.347a.457.457 0 0 1-.164-.037 9.395 9.395 0 0 0-.096-.548c-.08-.428-.293-1.561-.164-1.812a.804.804 0 0 1 .613-.29.91.91 0 0 1 .627.258.945.945 0 0 1 .282.698c0 .207-.12.696-.398 1.137-.225.367-.494.594-.7.594zm5.603-.193c-.062-.57 0-1.215.173-1.77.485-1.037 1.005-1.5 1.225-1.5.08 0 .252.105.459.41.894 1.3.752 3.024.315 4.206-.13.36-.411.542-.825.542-.147 0-.306-.027-.46-.078-.489-.158-.771-.734-.887-1.81zm8.84-4.57c.77-.06 1.24.233 1.554 1.026.39.902.341 1.87-.133 2.594-.523.803-1.469 1.096-2.426.73l-.008-.138a89.235 89.235 0 0 1-.116-1.994c-.016-.31-.05-.618-.087-.928-.022-.207-.046-.42-.06-.63.204-.467.545-.66 1.141-.66l.099.002.036-.003zm2.716-2.186c-.735-.463-1.75-.728-2.788-.728-2.179 0-3.775 1.11-4.073 2.828a6.29 6.29 0 0 0-.086 1.242c-.302-.691-.683-1.302-1.111-1.753a2.634 2.634 0 0 0-1.961-.85c-.786 0-1.612.327-2.266.903-.687.606-1.162 1.267-1.443 1.994-.335-.773-.943-1.377-1.81-1.707-1.55-.585-4.477-.005-4.644 2.179-.072.928.1 1.866.263 2.777.08.433.154.841.2 1.232.16 1.344.482 2.707 1.055 4.418.139.417.533.7.985.7a.947.947 0 0 0 .957-.983c-.013-.899-.126-1.79-.248-2.658 1.196-.105 2.212-.982 2.839-2.086.017.14.03.278.056.419.358 1.982 1.997 3.421 3.904 3.422.962 0 1.86-.374 2.593-1.083.548-.525.904-1.185 1.114-1.905.144 1.678.48 3.367.783 4.886.095.495.543.856 1.058.856.524 0 .94-.385.989-.913.108-1.208.11-2.418.08-3.47.266.051.542.079.819.079 1.544 0 3.028-.786 3.874-2.047.808-1.203 1.094-3.073.737-4.769-.285-1.34-.953-2.402-1.876-2.983zm24.748 6.219a2.987 2.987 0 0 0 1.404-1.313v.02c-.073.83-.13 1.74-.13 2.68-.375-.487-.8-.958-1.274-1.387m-2.086-2.11c-.11.017-.223.028-.337.041a1.394 1.394 0 0 1-.068.005c-.012-.265-.02-.545-.017-.824a52.24 52.24 0 0 0-.008-1.106l-.002-.375c0-.092.01-.15.018-.185h.029c.43 0 1.198.454 1.365.661.264.327.33.647.21.957-.166.418-.653.759-1.19.827m10.88-2.802c-.072-.558-.519-.96-1.066-.96-.466 0-.871.293-1.028.747-.43 1.254-.448 2.553-.439 3.822a41.246 41.246 0 0 0-.572-1.093 11.86 11.86 0 0 1-.326-.681c-.402-.887-.861-1.889-1.634-2.382-.557-.353-1.364-.137-1.715.441a3 3 0 0 0-.316.733c-.456-1.328-1.636-2.429-2.921-2.9-1.028-.374-2.172-.088-2.974.728-.587.593-.914 1.378-.907 2.147.032 2.603.294 5.306.825 8.506.077.466.49.817.963.817a.906.906 0 0 0 .898-.766c.159-.867.185-1.745.159-2.606a9.805 9.805 0 0 1 2.074 2.363c.25.397.647.626 1.092.626.28 0 .545-.1.769-.258.18.214.442.347.736.347a.944.944 0 0 0 .9-.68c.273-.888.299-1.797.326-2.679.01-.283.017-.56.034-.837.024-.391.057-.781.099-1.18.036.083.076.163.113.242l.4.818c.1.192.2.437.317.708.486 1.155 1.093 2.588 2.196 2.996.124.05.258.073.39.073.534 0 1.027-.383 1.202-.935.287-.915.295-1.997.299-2.948.002-.32.002-.63.017-.927.017-.372.044-.753.073-1.136.072-1.032.148-2.098.017-3.146m-17.737 6.995c-.528-.828-.743-1.985-.61-3.254.02-.153.033-.307.049-.466.095-.996.191-2.032.78-2.71a.65.65 0 0 1 .208-.179c.065.037.248.22.38.622.304.902.452 1.95.437 3.111-.01.963-.06 2.053-.5 2.842-.131.238-.285.343-.381.343-.08 0-.221-.08-.363-.309m.732-9.385a2.982 2.982 0 0 0-.283-.011c-1.082 0-2.344.523-2.977 2.658-.098-.694-.293-1.39-.643-1.963-.402-.673-.974-1.111-1.642-1.27-2.33-.55-4.496.993-5.6 3.944-.892 2.396-.904 5.87.809 7.88.927 1.087 2.199 1.734 3.4 1.734 1.136 0 2.11-.576 2.75-1.624a1.1 1.1 0 0 0 .023-1.127c-.309-.554-1.084-.77-1.622-.438-1.008.625-1.706.677-2.23.017-.89-1.11-.993-3.74-.68-5.116.123-.485.301-.956.546-1.421.277-.589 1.045-1.273 1.613-1.273.155 0 .395.047.655.435.457.67.653 1.75.817 2.623l.016.086a.85.85 0 0 0 .845.707c.203 0 .39-.067.54-.18-.044 1.036-.035 2.108.193 3.153.247 1.146.759 2.13 1.478 2.84.57.563 1.178.847 1.808.847 1.836 0 3.028-2.415 3.078-4.654.003-.155.012-.341.02-.546.09-2.28.285-7.027-2.914-7.3" fill="#FFCB05"/><path d="M40.073 63.453c1.004-1.117 2.811-.36 2.811 1.163 0 .908-1.008 3.06-2.415 2.318a.475.475 0 0 0-.24-.12c-.008-.003-.02 0-.027-.003-.005-.071-.02-.142-.024-.211-.062-.685-.622-2.572-.105-3.147m2.336-1.431c-1.163-.444-3.522-.077-3.648 1.54-.097 1.248.318 2.623.461 3.866.172 1.466.554 2.872 1.02 4.268.084.25.508.282.503-.034-.017-1.174-.212-2.336-.379-3.503 2.81.943 5.47-4.833 2.043-6.137m7.108 5.735c-.35.95-1.324 1.201-2.206.914-1.02-.335-1.291-1.5-1.394-2.435a5.304 5.304 0 0 1 .215-2.121c.615-1.332 1.823-2.934 2.982-1.242.97 1.406.975 3.332.403 4.884m.097-6.262c-.924-.977-2.314-.681-3.208.101-.846.746-1.34 1.567-1.458 2.588-.269.968-.274 1.993-.09 3.008.454 2.515 3.35 3.78 5.266 1.94 1.912-1.845 1.114-5.918-.51-7.637m4.16 4.927c-.053-.869-.112-1.734-.15-2.586-.027-.566-.128-1.137-.157-1.706.311-.881.968-1.313 1.969-1.287 1.103-.083 1.866.408 2.287 1.471 1.207 2.786-1.151 5.602-3.949 4.108m4.04-6.398c-1.69-1.062-5.312-.87-5.742 1.6-.273 1.568.27 3.568.341 5.156.08 1.907.466 3.85.837 5.719.058.304.552.382.587.023.131-1.458.105-2.953.032-4.446 1.62.836 3.801.247 4.865-1.341 1.199-1.787 1.043-5.477-.92-6.711m11.219-1.574c-2.39-.562-3.986 1.465-4.74 3.483-.789 2.116-.871 5.324.679 7.143 1.334 1.565 3.712 2.24 4.957.202.22-.363-.24-.76-.581-.55-4.008 2.48-4.574-3.43-4.014-5.912a7.45 7.45 0 0 1 .593-1.559c.516-1.076 2.384-2.64 3.55-.932.56.82.767 2.033.944 2.99.028.148.24.118.273-.008.345-1.35.119-4.435-1.661-4.857m10.674 4.275c.002-.489-.003-.977-.008-1.467-.017-1.791 2.27-.564 2.725 0 1.088 1.345-.04 2.799-1.458 2.984-.406.052-.8.08-1.197.167a27.493 27.493 0 0 1-.062-1.684m4.692 5.88c-.67-1.261-1.79-2.454-3.036-3.308 1.21-.228 2.2-.493 2.653-2.092.504-1.779-1.013-3.52-2.54-4.074-1.472-.54-2.901.819-2.883 2.169.033 2.867.344 5.584.815 8.397.033.211.359.286.404.037.225-1.258.163-2.587.064-3.912 1.433.767 2.671 2.049 3.52 3.407.407.653 1.353.042 1.003-.624m6.523-3.646c.055-1.364.264-2.807.094-4.164-.048-.382-.536-.42-.664-.06-.702 2.06-.198 4.384-.486 6.516-.205-.414-.423-.87-.498-1.016-.461-.885-.901-1.784-1.374-2.661-.433-.803-.913-2.283-1.708-2.789-.24-.154-.55-.02-.687.203-.541.874-.42 2.412-.505 3.398-.142 1.658-.217 3.37.056 5.017.039.225.337.274.41.04.324-1.067.261-2.243.332-3.347.054-.93.161-1.855.272-2.78.026-.24.033-.524.06-.808.074.12.143.222.175.267.567.925 1.018 1.945 1.504 2.913.456.91 1.069 2.96 2.104 3.344.283.106.556-.146.63-.391.348-1.1.234-2.536.285-3.682m-17.532 3.14c-.697-1.093-.853-2.466-.72-3.733.132-1.216.157-2.601 1.003-3.58.775-.9 1.525-.28 1.85.692.359 1.073.485 2.226.475 3.356-.017 1.055-.074 2.259-.597 3.196-.5.898-1.425.997-2.01.069m1.294-9.043c-2.294-.196-2.74 2.6-2.837 4.305-.062 1.183-.104 2.446.147 3.61.198.915.607 1.809 1.277 2.474 1.9 1.875 3.57-.768 3.629-3.3.039-1.701.53-6.855-2.216-7.09" fill="#F16528"/></g></svg>