<svg xmlns="http://www.w3.org/2000/svg" width="92.442" height="108.499" viewBox="1.375 0.067 92.442 108.499"><defs><style/></defs><g id="ID0.06485128961503506" transform="translate(0 .5)"><path id="R_Leg" fill="#FFC93E" stroke="#603813" stroke-width="1.327" d="M47.288 96.929c0-1.364.383-3.324 2.5-3.767 3.055-.64 6.55 2.453 7.501 3.363-.07.362 1.118 7.67 1.118 8.303 0 2.143-.572 2.228-.794 2.263-2.093.305-7.667-5.557-10.226-8.968a6.552 6.552 0 0 1-.1-1.194h0z"/><path id="Center_Leg" fill="#FFC93E" stroke="#603813" stroke-width="1.327" d="M38.817 107.17c-1.516-1.646-1.733-6.105-1.733-8.001 0-.805.042-1.34.044-1.357l.002-.04s-.004-.172-.004-.236c0-3.572 3.288-4.812 3.845-4.998 1.904.023 5.196.924 5.981 2.283.08.138.154.31.154.53 0 .194-.058.429-.222.713-.076.13-1.428 3.324-2.572 5.775l-.818 2.266c-.611 1.98-1.574 3.96-2.621 3.96-.828 0-1.5-.292-2.056-.895h0z"/><path id="R_Arm" fill="#FFC93E" stroke="#603813" stroke-width="1.327" d="M81.708 81.275l-1.479-2.61c-1.62-2.82-3.49-5.402-5.14-7.674-2.121-2.928-3.966-5.958-4.578-8.097-.22-.772-.114-1.508.203-1.914.03-.11.35-.284.576-.33 2.716-.587 13.965 5.87 16.772 9.322 4.11 5.055 5.755 12.146 4.838 15.719-.376 1.46-1.217 2.493-2.435 2.986-3.113 1.258-5.161-1.013-8.757-7.402h0z"/><path id="Body" fill="#FFC93E" stroke="#603813" stroke-width="1.327" stroke-linecap="round" stroke-linejoin="round" d="M37.43 31.44c3.993-2.17-.128-10.34-4.115-18.245-2.18-4.32-6.066-11.62-4.803-12.303 2.444-1.325 14.117 12.45 18.849 18.002l4.824 5.495s3.449 4.23 6.087 7.02c.047.05 2.542-.338 4.265-1.77 1.405-1.172 1.22-2.485 1.667-5.243.41-2.534.856-7.12 2.216-7.143 2.048-.031 3.395 8.412 3.92 11.54l.29 1.674c.688 3.72 4.277 14.906 4.43 15.38.05.115.13.266.13.266l.03.06.042.05c5.542 6.874 9.664 15.208 9.664 23.017 0 16.536-14.494 28.175-33.895 28.175-3.598 0-7.118-.504-10.46-1.495l-.18-.052s-5.248-.441-11.961 8.382c-1.347 1.772-1.227 3.424-3.125 2.915-.633-.17-1.098-.634-1.478-1.479-.907-2.014-.237-6.786.872-9.835l.175-.478-.401-.318c-.098-.078-10.986-8.012-12.086-19.38-.959-9.91 4.047-15.553 6.124-18.654l1.194-1.988c1.506-3.666-1.329-8.763-3.831-13.26-1.494-2.686-3.906-6.605-3.361-7.526.604-1.02 2.764.065 4.946 1.106 1.768.845 3.47 2.04 4.651 1.252 1.23-.819.423-2.873-.694-5.718-1.05-2.67-3.038-6.89-2.274-8.63.21-.48.579-.816 1.127-1.029 2.03-.785 4.93 2.632 7.277 5.305 2.864 3.262 6.113 6.96 9.884 4.907h0z"/><g id="L_Eye"><path id="White_1_" fill="#FFF" d="M65.386 106.419c0 4.495 3.647 8.14 8.144 8.14a8.142 8.142 0 0 0 8.143-8.14c0-4.498-3.646-8.148-8.143-8.148a8.148 8.148 0 0 0-8.144 8.148z" transform="translate(-2.6 -.15) scale(.66342)"/><path id="Pupil_1_" fill="#603813" d="M74.627 100.467a5.71 5.71 0 0 1 4.051 1.68 5.71 5.71 0 0 1 1.68 4.051 5.71 5.71 0 0 1-1.68 4.051 5.71 5.71 0 0 1-4.051 1.68 5.71 5.71 0 0 1-4.051-1.68 5.71 5.71 0 0 1-1.68-4.051 5.71 5.71 0 0 1 1.68-4.051 5.71 5.71 0 0 1 4.051-1.68z" transform="translate(-2.6 -.15) scale(.66342)"/></g><g id="R_Eye"><path id="White" fill="#FFF" d="M104.618 106.419a8.142 8.142 0 0 0 8.145 8.14 8.143 8.143 0 0 0 8.143-8.14c0-4.498-3.646-8.148-8.143-8.148a8.149 8.149 0 0 0-8.145 8.148z" transform="translate(-2.6 -.15) scale(.66342)"/><path id="Pupil" fill="#603813" d="M108.127 106.198a5.729 5.729 0 0 0 5.73 5.729 5.73 5.73 0 1 0 0-11.46 5.731 5.731 0 0 0-5.73 5.731z" transform="translate(-2.6 -.15) scale(.66342)"/></g><path id="L_Arm" fill="#FFC93E" stroke="#603813" stroke-width="1.327" d="M3.473 91.308c-1.107-.708-1.746-1.876-1.848-3.381-.25-3.683 2.664-10.352 7.628-14.57 3.39-2.88 15.63-7.172 18.194-6.099.212.088.496.317.504.433.24.455.208 1.197-.15 1.915-.99 1.993-3.36 4.635-5.981 7.122-2.038 1.94-4.348 4.13-6.454 6.61l-1.932 2.289c-4.701 5.627-7.133 7.489-9.961 5.68h0z"/><path id="Mouth" fill="#603813" d="M95.592 122.07c.775 0 1.478.69 1.986 1.806.509 1.115.824 2.656.824 4.356 0 1.7-.315 3.241-.824 4.356-.508 1.116-1.211 1.806-1.986 1.806-.775 0-1.478-.69-1.986-1.806-.509-1.115-.824-2.656-.824-4.356 0-1.7.315-3.241.824-4.356.508-1.116 1.211-1.806 1.986-1.806z" transform="translate(-2.6 -.15) scale(.66342)"/></g></svg>