<svg width="120" height="120" viewBox="0 0 120 120" xmlns="http://www.w3.org/2000/svg" xmlns:xlink="http://www.w3.org/1999/xlink"><defs><path id="a" d="M1 .14h6.956v8.335H.999z"/><path id="c" d="M.754.14H6.27v7.578H.754z"/></defs><g fill="none" fill-rule="evenodd"><path d="M70.273 35.157c-2.069.247-1.765 1.782.243 2.642 2.007.863 2.615 2.644 2.889 4.642.273 2 2.741-.363 2.444-1.863-.643-3.278-1.826-5.867-5.576-5.421" fill="#342D2B"/><path d="M75.96 41.888s-.062-3.903-1.765-5.257c-1.702-1.352-2.828-.738-1.702-.245 1.125.492 3.04 1.845 3.466 5.502" fill="#B0AAA8"/><path d="M41.864 57.38s-8.818 7.408-9.792 9.667c-.974 2.258.562.888 5.17-3.335 4.606-4.223-.035-3.456 2.325-1.912 2.358 1.543 12.247 9.756 17.931 7.383 5.683-2.373 5.352-4.856 5.595-7.376.245-2.52-4.438 2.177-7.51 3.69-3.073 1.513-14.824-4.008-12.05-6.462 2.772-2.454-1.669-1.655-1.669-1.655" fill="#000"/><path d="M38.582 58.33a2.234 2.234 0 0 1 2.223 2.246 2.235 2.235 0 0 1-2.223 2.247c-1.227 0-2.222-1.006-2.222-2.247 0-1.24.995-2.246 2.222-2.246" fill="#320001"/><path d="M38.582 59c.862 0 1.56.706 1.56 1.576 0 .871-.698 1.576-1.56 1.576-.86 0-1.56-.705-1.56-1.576 0-.87.7-1.577 1.56-1.577" fill="#81181B"/><path d="M38.582 59.903a.67.67 0 0 1 .668.672.672.672 0 0 1-.668.676.672.672 0 0 1-.667-.676.67.67 0 0 1 .667-.672" fill="#ED1C24"/><path d="M38.38 58.739s-22.881 5.1-24.997 5.559c-2.115.459.007 5.291 23.04 3.433 23.034-1.857 28.451 1.01 33.005-3.534 4.553-4.543 4.858.314 4.858.314s.12 3.873-14.112 6.64c-14.235 2.767-50.183 1.598-50.67-2.705-.486-4.305 1.769-4.964 13.869-8.054 12.098-3.09 19.343-5.779 15.006-1.653" fill="#000"/><path d="M65.953 63.712s.365 2.275-13.566 2.582c-13.929.307-28.249-.445-36.204-.929-7.956-.485.134 1.483 6.643 2.773 6.508 1.292 48.34 2.24 48.479-5.287.138-7.526-5.352.861-5.352.861" fill="#928A89"/><path d="M68.846 61.702s1.418 5.383-11.626 5.816c-13.044.436-38.455.413-41.48-1.282-3.023-1.695-1.016 3.425-1.016 3.425s59.014 4.563 57.92-6.994c-1.095-11.557-3.798-.965-3.798-.965" fill="#5F5654"/><path d="M36.359 44.929s2.738 3.995 1.277 5.41c-1.46 1.414-18.673-1.107-21.959-3.196-3.285-2.092-1.642-2.09-3.953-2.52-2.312-.432-6.449 4.978-8.638 8.298-2.19 3.32-3.528 5.656.06 5.963 3.59.309 4.502-9.713 7.969-8.79 3.467.922 26.823 4.61 33.76 5.41 6.934.798 11.13 1.351 7.542-3.567-3.59-4.918-16.058-7.008-16.058-7.008" fill="#342D2B"/><path d="M39.773 43.175s-3.231-.213-3.415 1.754c-.182 1.967 3.29 3.335 8.152 6.27 4.86 2.935 7.299 5.103 7.299 5.103s13.016 3.475 15.568-2.932c2.552-6.405-.057-5.859-5.775-6.352-5.717-.49-21.829-3.843-21.829-3.843" fill="#5F5654"/><path d="M63.061 46.036s-15.388-1.291-19.464-2.151c-4.075-.861-4.136-.985-4.562-.124-.425.861 21.359 5.12 27.312 4.12 5.953-1.002-3.286-1.845-3.286-1.845" fill="#928A89"/><path d="M63.061 46.036s2.069 1.413 1.461 3.38c-.609 1.97-4.993 6.457-4.993 6.457s6.575 3.32 11.137-.861c4.561-4.18 2.736-9.283-7.605-8.976" fill="#211B19"/><path d="M82.162 41.056s-2.129-1.414-7.664.122c-5.536 1.538-11.437 4.858-11.437 4.858s6.266.307 6.448 2.397c.183 2.09-5.108 9.468-5.108 9.468s2.007 2.766 8.575-1.045c6.57-3.812 12.232-11.05 9.186-15.8" fill="#000"/><path d="M67.94 56.117s-43.444-4.364-51.35-6.516C8.68 47.45 4.727 46.65 6.491 48.495c1.764 1.845 21.572 7.548 32.653 10.445 11.081 2.896 26.782 5.976 28.863 6.337 2.082.36-.067-9.16-.067-9.16" fill="#776E6C"/><path d="M97.96 64.029s-14.402 2.599-24.621 1.923c-10.22-.676-8.835-3.03-8.835-3.03s15.727-1.254 16.073-6.007c.346-4.754 9.924-6.895 13.873-5.139 3.95 1.756 9.425 7.352 3.51 12.253" fill="#000"/><path d="M110.384 60.128l1.74 1.59a.594.594 0 0 1 .041.831l-4.634 5.183a.58.58 0 0 1-.823.043l-1.74-1.59a.594.594 0 0 1-.042-.832l4.635-5.183a.58.58 0 0 1 .823-.042m.046-.79l2.467 2.254a.842.842 0 0 1 .058 1.178l-5.127 5.735a.822.822 0 0 1-1.165.059l-2.468-2.254a.843.843 0 0 1-.059-1.178l5.127-5.734a.823.823 0 0 1 1.167-.06" fill="#81181B"/><path d="M80.231 67.823s3.583 2.817 14.957 2.644c11.373-.172 15.864-2.355 17.855-5.92 1.99-3.562.284-4.195.284-4.195s-2.431 7.04-10.52 6.954c-8.09-.086-6.54-.92-10.577.057-4.037.978-9.156.805-11.999.46" fill="#000"/><path d="M112.133 64.203s-2.445 4.77-13.25 5.632c-10.805.862-12.51-.804-12.51-.804s17.458 2.758 25.76-4.828" fill="#928A89"/><path d="M89.565 54.193s-1.339 8.913-7.177 10.696c-5.841 1.783-17.885-1.967-17.885-1.967l1.308-3.196s12.501-10.883 18.705-10.33c6.205.554 24.633 7.315 24.633 7.315s-1.64 1.416-2.795 1.355c0 0-4.076 3.749-8.395 5.963 0 0 1.765-4.98-.607-6.456-2.373-1.475-7.787-3.38-7.787-3.38" fill="#211B19"/><path d="M89.402 52.696s-4.855 9.12-7.654 9.61c-2.797.493-15.937-2.58-15.937-2.58s5.53-8.67 5.625-12.42c0 0 5.263-.307 10.252.615 4.988.923 7.714 4.775 7.714 4.775" fill="#342D2B"/><path d="M77.623 44.245l-6.187 3.06s29.44 9.59 37.713 9.407c0 0-3.42-2.875-8.996-6.078-5.576-3.203-18.028-7.096-22.53-6.389" fill="#B01D21"/><path d="M106.017 55.236s-3.955-3.074-10.919-5.594c-6.965-2.52-13.463-5.334-13.463-5.334l9.22 1.69s6.676 1.615 15.162 9.238" fill="#F05139"/><path d="M80.392 36.545s-.76 5.995-2.768 7.7c0 0 5.88.535 7.881-.846 2.003-1.383-.186-5.901-5.113-6.854" fill="#776E6C"/><path d="M82.854 37.375s-1.854-.707-2.159-.768l-.303-.062s-.076 1.245-.32 1.46c-.243.216.593 1.076.837 2.26.242 1.184-1.11 3.027-1.11 3.027s2.48-1.644 2.099-3.304c-.381-1.66 1.52-.6 1.52-.6l-.564-2.013z" fill="#B0AAA8"/><path d="M82.854 37.375s-.699.077.03 1.184c.73 1.107.975 4.272-.76 4.98-1.733.706-4.5.706-4.5.706s5.05.738 9.093 1.2c4.045.46 4.137.553 4.137.553s1.978-5.656-8-8.623" fill="#81181B"/><g transform="translate(81.818 32.963)"><mask id="b" fill="#fff"><use xlink:href="#a"/></mask><path d="M2.04.14s-.883.415-.989 1.445c-.107 1.029-.015 2.827-.015 2.827s4.639 1.753 6.433 3.72C9.263 10.1 5.796 3.092 2.04.14" fill="#928A89" mask="url(#b)"/></g><path d="M89.923 45.449s1.635-1.653-.117-3.542c-1.752-1.888-5.138-3.658-4.204-2.006.935 1.652-1.167 3.305.583 4.249 1.754.945 3.738 1.299 3.738 1.299" fill="#E2E0DF"/><path d="M90.137 44.999s.837-1.907-.791-3.444c-1.628-1.536-3.164-1.982-3.164-1.982s3.225 2.889 3.955 5.426" fill="#FFF"/><g transform="translate(82.91 32.963)"><mask id="d" fill="#fff"><use xlink:href="#c"/></mask><path d="M6.27 7.718S4.644 3.83 3.031 2.077C1.42.325.95.14.95.14S.644.8.796 1.355c.153.552 2.547 1.087 5.474 6.363" fill="#FFF" mask="url(#d)"/></g><path d="M85.486 42.064s.228-1.384-.381-2.307c-.608-.923-1.292-1.291-1.292-1.291s.882 1.783.562 2.783c-.32.999 1.11.815 1.11.815" fill="#FFF"/><path d="M86.338 47.135s-2.235-1.168-4.243-1.782c-2.007-.615-4.274-.184-4.897.015l-.623.2 9.763 1.567zm3.315.232l4.592 1.46.942-.308s-2.021-2.72-5.534-1.152" fill="#320001"/><path d="M86.159 54.591s-3.65-1.659-7.816-3.657c-4.167-1.999-6.175-2.859-6.175-2.859l14.568 4.887-.577 1.63z" fill="#776E6C"/><path d="M107.327 57.42s-4.015 1.044-9.641-.923c-5.627-1.966-7.208-2.92-7.208-2.92s4.38 1.752 10.402 2.552c6.02.8 6.447 1.29 6.447 1.29" fill="#47403D"/><path d="M92.096 56.992l.625-.259a.603.603 0 0 1 .789.332l2.858 7.048a.614.614 0 0 1-.33.796l-.626.26a.604.604 0 0 1-.787-.334l-2.858-7.046a.614.614 0 0 1 .33-.797" fill="#5F5654"/><path d="M92.576 57.163c.774-.321 1.554-.204 1.743.26a.66.66 0 0 1-.009.48c-.345-.162-.876-.146-1.404.072-.53.22-.917.587-1.05.945a.639.639 0 0 1-.34-.335c-.19-.465.286-1.103 1.06-1.422" fill="#320001"/><path d="M92.67 57.394c.645-.267 1.281-.207 1.42.132.023.059.03.122.023.187-.244-.202-.772-.204-1.306.018-.536.222-.91.598-.944.914a.377.377 0 0 1-.112-.15c-.139-.34.274-.833.92-1.101" fill="#ED1C24"/><path d="M92.974 58.145c.773-.321 1.554-.204 1.743.26a.654.654 0 0 1-.009.48c-.344-.162-.876-.146-1.404.072-.53.22-.917.587-1.05.946a.65.65 0 0 1-.34-.336c-.19-.464.286-1.102 1.06-1.422" fill="#320001"/><path d="M93.069 58.377c.644-.268 1.28-.208 1.419.132a.4.4 0 0 1 .024.186c-.243-.202-.772-.203-1.307.017-.536.223-.91.6-.944.915a.38.38 0 0 1-.112-.15c-.138-.34.274-.832.92-1.1" fill="#ED1C24"/><path d="M93.372 59.126c.775-.32 1.555-.202 1.744.262a.666.666 0 0 1-.009.48c-.345-.163-.876-.147-1.404.072-.53.22-.917.587-1.05.945a.646.646 0 0 1-.34-.335c-.189-.465.286-1.103 1.06-1.424" fill="#320001"/><path d="M93.467 59.359c.646-.268 1.281-.207 1.42.132a.39.39 0 0 1 .022.187c-.242-.202-.772-.204-1.305.017-.535.222-.91.599-.944.915a.393.393 0 0 1-.112-.15c-.138-.341.272-.834.92-1.101" fill="#ED1C24"/><path d="M93.77 60.11c.774-.321 1.555-.206 1.744.26a.654.654 0 0 1-.009.48c-.344-.162-.876-.147-1.404.072-.53.22-.917.586-1.05.945a.646.646 0 0 1-.34-.335c-.19-.465.286-1.102 1.06-1.422" fill="#320001"/><path d="M93.865 60.342c.645-.268 1.281-.208 1.419.131.024.059.031.122.024.187-.242-.202-.771-.203-1.307.017-.535.222-.909.599-.943.915a.38.38 0 0 1-.112-.15c-.139-.34.274-.833.919-1.1" fill="#ED1C24"/><path d="M94.17 61.091c.774-.32 1.554-.203 1.743.262a.663.663 0 0 1-.01.48c-.344-.163-.875-.147-1.403.072-.53.22-.918.586-1.052.944a.65.65 0 0 1-.34-.335c-.187-.465.288-1.102 1.061-1.423" fill="#320001"/><path d="M94.264 61.324c.646-.267 1.28-.208 1.418.131.024.06.032.122.024.188-.242-.203-.77-.204-1.305.017-.536.22-.91.598-.944.914a.387.387 0 0 1-.112-.15c-.138-.34.273-.833.92-1.1" fill="#ED1C24"/><path d="M94.568 62.074c.773-.321 1.554-.203 1.743.262a.654.654 0 0 1-.009.478c-.344-.162-.876-.146-1.404.073-.529.22-.918.586-1.051.944a.642.642 0 0 1-.339-.334c-.19-.465.286-1.103 1.06-1.423" fill="#320001"/><path d="M94.661 62.306c.647-.267 1.282-.207 1.42.132a.39.39 0 0 1 .024.187c-.244-.202-.772-.204-1.306.017-.536.222-.91.599-.944.914a.37.37 0 0 1-.112-.15c-.138-.34.274-.832.918-1.1" fill="#ED1C24"/><path d="M94.966 63.057c.775-.321 1.555-.204 1.743.26a.663.663 0 0 1-.008.48c-.345-.162-.876-.147-1.404.072-.53.22-.918.587-1.052.945a.644.644 0 0 1-.338-.335c-.189-.465.285-1.102 1.06-1.422" fill="#320001"/><path d="M95.06 63.288c.647-.267 1.282-.207 1.42.132a.384.384 0 0 1 .024.187c-.243-.202-.772-.204-1.307.018-.535.22-.91.598-.943.914a.393.393 0 0 1-.113-.15c-.137-.34.274-.833.92-1.101" fill="#ED1C24"/><path d="M97.272 63.615s-1.939-.762-3.357.388c-1.418 1.15-.84 1.488.072 1.55.913.06 1.429.982 2.464 2.49 1.033 1.505 1.033 2.857 1.033 2.857l1.917-.06s1.795-2.86-2.13-7.225" fill="#B0AAA8"/><path d="M96.382 64.535s2.229 1.755 2.38 4.49c.152 2.737 1.673-4.364-2.38-4.49" fill="#E2E0DF"/><path d="M115.2 63.284l1.861 1.701a.635.635 0 0 1 .045.889l-4.957 5.544a.622.622 0 0 1-.88.046l-1.863-1.702a.637.637 0 0 1-.044-.89l4.957-5.543a.62.62 0 0 1 .88-.045m.05-.845l2.64 2.41c.36.33.386.897.061 1.26l-5.484 6.135a.88.88 0 0 1-1.247.064l-2.638-2.411a.904.904 0 0 1-.064-1.261l5.484-6.133a.88.88 0 0 1 1.248-.064" fill="#81181B"/><path d="M82.947 71.515s3.832 3.012 15.998 2.828c12.165-.185 16.97-2.52 19.1-6.332 2.13-3.811.303-4.487.303-4.487s-2.6 7.53-11.253 7.438c-8.653-.092-6.995-.984-11.314.061-4.317 1.046-9.794.862-12.834.492" fill="#000"/><path d="M117.07 67.642s-2.614 5.104-14.171 6.026c-11.557.922-13.382-.861-13.382-.861s18.673 2.95 27.554-5.165" fill="#928A89"/><path d="M21.394 49.785s3.65 4.795 7.116 6.516c3.468 1.722 36.12 7.439 36.12 7.439l.584-.609s-31.714-5.6-35.668-7.505c-3.954-1.906-8.152-5.841-8.152-5.841" fill="#FFF"/><path d="M66.408 56.548l-2.251 4.242s-30.353-5.226-34.855-7.009C24.8 52 35.324 53.536 66.408 56.548" fill="#928A89"/><path d="M13.975 64.232c1.512 0 2.737 1.24 2.737 2.768 0 1.528-1.225 2.766-2.737 2.766S11.236 68.528 11.236 67s1.227-2.768 2.739-2.768" fill="#320001"/><path d="M13.975 65.058A1.93 1.93 0 0 1 15.895 67a1.93 1.93 0 0 1-1.92 1.94A1.93 1.93 0 0 1 12.054 67a1.93 1.93 0 0 1 1.92-1.942" fill="#81181B"/><path d="M13.975 66.17c.453 0 .821.37.821.83 0 .458-.368.83-.821.83a.826.826 0 0 1-.822-.83c0-.46.368-.83.822-.83" fill="#ED1C24"/><path d="M33.56 65.272a2.235 2.235 0 0 1 2.223 2.246c0 1.242-.995 2.247-2.222 2.247-1.227 0-2.223-1.005-2.223-2.247 0-1.24.996-2.246 2.223-2.246" fill="#320001"/><path d="M33.56 65.943c.862 0 1.56.706 1.56 1.576 0 .872-.698 1.575-1.56 1.575-.86 0-1.56-.703-1.56-1.575 0-.87.7-1.576 1.56-1.576" fill="#81181B"/><path d="M33.56 66.846a.67.67 0 0 1 .667.672.671.671 0 0 1-.666.676.671.671 0 0 1-.668-.676.67.67 0 0 1 .668-.672" fill="#ED1C24"/><path d="M56.553 65.272a2.234 2.234 0 0 1 2.223 2.246 2.235 2.235 0 0 1-2.223 2.247c-1.227 0-2.222-1.005-2.222-2.247 0-1.24.995-2.246 2.222-2.246" fill="#320001"/><path d="M56.553 65.943c.862 0 1.56.706 1.56 1.576 0 .87-.698 1.575-1.56 1.575-.86 0-1.56-.704-1.56-1.575 0-.87.7-1.576 1.56-1.576" fill="#81181B"/><path d="M56.553 66.846a.67.67 0 0 1 .667.672.67.67 0 0 1-.667.676.67.67 0 0 1-.666-.676.67.67 0 0 1 .666-.672" fill="#ED1C24"/></g></svg>