<svg width="480" height="360" viewBox="0 0 480 360" xmlns="http://www.w3.org/2000/svg"><g fill="none" fill-rule="evenodd"><path d="M10-13.32c40.862-4.872 81.99 4.042 123.113 5.525 22.453.809 44.99-.6 67.367 1.426 23.276 2.108 46.127 7.913 69.44 9.567 30.106 2.136 60.564-2.682 90.437 1.637 15.586 2.253 30.755 6.965 46.38 8.933 24.759 3.118 50.375-.652 75.294-.775L484-46.092c-12.226 1.471-24.45 2.73-36.682 1.73-16.189-1.322-31.82-6.56-47.93-8.638" fill="#C9ECEF"/><path d="M-2.942 68.574c76.822-5.08 151.035 42.652 227.533 33.214 20.493-2.528 40.52-9.142 61.1-10.466 23.814-1.533 47.425 4.058 70.905 8.496 41.736 7.889 83.928 12.194 126.236 15.182L485 39.972c-36.997-2.938-74.66 1.964-111.932 4.1-23.734 1.36-47.544 1.582-71.228-.363-18.155-1.491-36.214-4.255-54.4-5.25-25.104-1.374-50.26.629-75.371 2.15C133.21 42.964 28.712 42.516-10 38.459" fill="#9BD4E0"/><path d="M-49 183.836L482.864 191 484 104.782c-42.362-2.184-84.63-5.585-126.5-12.297-23.558-3.776-47.264-8.613-71.053-6.878-20.561 1.5-40.479 7.871-60.931 10.48-76.347 9.74-151.364-33.285-228.108-27.56" fill="#7FC5D5"/><path d="M-7 39.962c38.612 4.81 137.77 8.336 176.635 6.564 25.115-1.145 50.282-2.784 75.343-.956 18.154 1.325 36.15 4.462 54.266 6.295 23.631 2.392 47.425 2.558 71.16 1.556 37.277-1.573 74.989-5.981 111.906-2.349L484 12.961c-24.896-.087-50.548 3.909-75.23.188-15.574-2.349-30.65-7.769-46.183-10.436C332.816-2.4 302.31 2.725 272.27.058c-23.261-2.065-45.991-8.78-69.209-11.355-22.32-2.475-44.857-1.1-67.273-2.21C94.732-15.54 33.899-24.553-7-19.461v59.424z" fill="#B0DEE5"/><path d="M369 71.5c0 14.084-11.417 25.5-25.5 25.5S318 85.584 318 71.5c0-14.083 11.417-25.5 25.5-25.5S369 57.417 369 71.5" fill="#FFE94D"/><path d="M-48 317.588c58.564 18.44 119.406 29.694 180.714 33.351 32.958 1.967 66.02 1.755 98.97 3.82 81.183 5.087 162.827 23.936 243.043 10.492 2.76-.463 5.52-.97 8.273-1.532V287H-48" fill="#66B547"/><path d="M12.78 372.993c23.264 8.03 45.59 20.151 70.073 22.458 18.047 1.7 36.11-2.07 54.202-3.179 47.382-2.903 94.481 12.473 141.86 9.526 23.442-1.46 46.487-7.39 69.963-8.11 26.445-.812 52.584 4.997 78.844 8.242A408.084 408.084 0 0 0 483 404.966v-40.348c-2.752.569-5.514 1.08-8.273 1.549-80.216 13.586-161.86-5.463-243.042-10.603-32.952-2.088-66.013-1.874-98.971-3.86C71.407 348.006 10.564 336.634-48 318" fill="#5FA640"/><path d="M-48 178.956S159.33 172 219.511 172C279.692 172 483 178.956 483 178.956V314.29s-46.375 17.461-67.842 17.461c-21.468 0-92.39 2.81-129.103 0-30.74-2.353-110.503-11.721-127.706-13.93-21.1-2.708-38.616-9.163-72.494-13.02C59.499 301.798-48 287.092-48 287.092" fill="#B0DEE5"/><path d="M58.628 198.628c23.018-2.791 46.066-5.585 69.235-6.505 20.956-.833 41.94-.13 62.9.573 74.93 2.514 149.926 5.032 224.515 12.596 16.853 1.71 33.983 3.756 49.473 10.608-1.252 4.304-4.5 7.984-8.617 9.763l1.001-.124c9.978 6.129 18.787 14.14 25.865 23.461v-70.062S279.692 172 219.511 172C159.33 172-48 178.938-48 178.938M76.97 311.492c61.512 13.312 144.389 20.827 206.498 27.761 30.622 3.419 115.746 5.01 137.061 2.568C456.071 337.749 483 322.233 483 322.233v-39.85c-.235.16-.471.319-.707.472-26.221 17.087-59.126 19.37-90.404 20.032-77.384 1.639-154.746-3.509-231.905-9.655C99.58 288.42 38.972 282.955-20 269" fill="#9ED4D5"/><path d="M58 229.205c19.541.736 38.887-1.162 58.168-4.336 19.676-3.238 39.152-7.625 58.802-11.02 20.31-3.51 40.651-5.406 61.254-5.016 32.557.616 65.147 4.439 97.588 7.125l49.097 4.066c14.146 1.171 31.484.31 43.304 9.721l-.148-1.183-1.673 3.757 1.072-.449-3.985-.675c-1.183-.2-1.71 1.552-.505 1.883 10.573 2.905 20.519 7.526 29.635 13.756 1.022.699 1.972-.993.957-1.687a100.302 100.302 0 0 0-30.087-13.952l-.505 1.883 3.985.675c.392.067.884-.027 1.072-.448l1.672-3.757c.163-.364.207-.901-.148-1.184-6.286-5.005-13.77-7.078-21.533-8.184-9.312-1.327-18.783-1.75-28.149-2.526l-62.944-5.213c-41.156-3.408-82.488-8.488-123.684-3.056-39.433 5.198-77.984 16.919-117.91 18.01" fill="#D0F2F7"/><path d="M53.062 254.192c20.6 2.504 41.25 4.574 61.925 6.345 41.373 3.547 82.846 5.786 124.328 7.517 41.13 1.717 82.378 3.749 123.546 3.94 19.812.091 39.663-.864 59.217-4.24 8.124-1.402 16.607-2.899 24.016-6.714 4.714-2.428 12.262-8.517 9.193-14.581-.712-1.407-2.27-2.418-3.511-3.288-1.007-.705-1.953.955-.956 1.654 10.71 7.509-8.177 16.084-14.095 17.807-9.467 2.756-19.454 4.16-29.216 5.31-20.035 2.36-40.273 2.37-60.41 1.908-41.328-.946-82.671-2.551-123.968-4.413-41.473-1.87-82.924-4.395-124.265-8.258A1655.854 1655.854 0 0 1 37 250.245" fill="#D0F2F7"/><path d="M435.759 91.193c12.78 4.29 24.56 11.187 37.08 16.209A133.345 133.345 0 0 0 483 111V56.716s-.632-3.86-3.79 0c-3.16 3.86-103.606 14.798-117.504 14.798-8.407 0-18.202 7.062-27.706 13.355 34.008 2.25 69.369-4.547 101.759 6.324" fill="#469237"/><path d="M473.814 106.268c-12.553-4.946-24.361-11.74-37.174-15.966-32.472-10.709-67.921-4.014-102.014-6.23-6.222 4.049-12.32 7.775-17.824 9.027-13.638 3.102-30.307 8.03-41.802 18.936 3.453.225 6.905.423 10.35.618l41.863 2.365c11.825.668 23.775 1.358 35.13 4.723 24.976 7.401 45.685 27.305 71.54 30.47 8.512 1.042 17.157.182 25.695.992 8.602.816 16.711 3.257 24.422 6.797v-48.187a134.88 134.88 0 0 1-10.186-3.545" fill="#458637"/><path d="M434.025 150.207c-25.78-3.168-46.43-23.088-71.334-30.495-11.324-3.368-23.239-4.058-35.03-4.726l-41.745-2.368c-3.434-.194-6.876-.393-10.32-.618-.247.235-.496.47-.739.712-10.667 10.611-46.137 21.22-69.857 17.064 9.08 1.75 47.153 8.865 62.835 8.308 17.869-.634 33.025 6.343 42.498 8.246 9.472 1.903 88.412 13.955 87.78 39.961-.047 2.003-.784 3.905-2.097 5.709H484v-33.998c-7.689-3.543-15.776-5.986-24.353-6.803-8.512-.81-17.134.05-25.622-.992" fill="#3D7E31"/><path d="M-48 191h448.626c1.314-1.799-1.212-4.81-1.791-6.722-9.721-32.115-79.444-36.923-88.93-38.82-9.485-1.898-24.66-8.856-42.552-8.223-15.703.555-53.826-6.54-62.918-8.285a46.022 46.022 0 0 1-5.197-1.203C175.833 120.789 17.13 92.325 1.323 86" fill="#4C934D"/><path d="M18.551 142.759c27.87-3.27 56.074-8.4 83.784-3.984 16.099 2.565 31.492 8.286 47.186 12.69a295.679 295.679 0 0 0 98.207 10.389c22.108-1.39 44.456-5.255 66.235-1.213 13.072 2.426 25.435 7.625 38.061 11.784C367.358 177.476 383.122 181 399 184a5.041 5.041 0 0 1-.155-.43c-9.715-32.027-79.393-36.822-88.872-38.715-9.48-1.892-24.646-8.831-42.525-8.2-15.693.554-53.79-6.523-62.877-8.263a45.956 45.956 0 0 1-5.194-1.2c-4.436-1.315-13.74-3.404-26.01-5.966-8.347.355-16.69.694-25.03.981C85.308 124.377 21.012 123.363-39 104" fill="#5BA249"/><path d="M-39 104.216c60.19 19.127 124.677 20.129 187.897 17.985 8.362-.283 16.731-.619 25.103-.97C121.432 110.418 14.553 91.05 1.713 86" fill="#5EA64C"/><path d="M-48 190h448.625c1.22-1.627-.865-4.27-1.635-6.131-15.889-2.931-31.663-6.375-47.006-11.31-12.635-4.066-25.006-9.145-38.087-11.516-21.793-3.95-44.155-.172-66.277 1.185-33.032 2.028-66.41-1.42-98.27-10.152-15.705-4.304-31.11-9.893-47.218-12.4-27.728-4.316-55.952.698-83.84 3.892" fill="#6BB155"/><path d="M491.165 271.819c-4.912 4.526-12.733 5.501-18.595 2.318-2.81-1.525-5.097-3.842-7.61-5.822-5.557-4.379-12.22-7.105-18.953-9.24-18.196-5.767-37.363-7.56-56.361-9.32l-78.058-7.23c-18.748-1.738-37.536-3.476-56.362-3.255-20.116.237-40.479 2.69-60.192-1.344-.326-1.635 1.76-2.584 3.392-2.89 53.292-9.968 108.12-5.591 162.173-9.693 44.865-3.405 89.433-12.669 134.401-11.183l-3.835 57.659z" fill="#397C39"/><path d="M198.402 235.76c-1.62.298-3.692 1.225-3.368 2.822 19.578 3.938 39.802 1.542 59.78 1.311 18.697-.215 37.356 1.482 55.975 3.177L321 244c-16.055-4.01-31.89-8.759-47.012-15-25.374.698-50.65 2.174-75.586 6.76M385 224.719l50.56 5.74c19.453 2.209 41.352 3.648 57.001-7.427l.439-8.996c-36.207-.581-72.034 5.963-108 10.683m77 42.333a40.04 40.04 0 0 1 1.834 1.316c2.574 1.966 4.916 4.267 7.793 5.782 6.003 3.161 14.011 2.192 19.04-2.302L491 267c-2.01.098-4.019.175-6.02.227a351.14 351.14 0 0 1-22.98-.175" fill="#469237"/><path d="M436.53 229.545L385.764 223c-8.339.93-16.683 1.765-25.038 2.397-28.472 2.152-57.16 1.952-85.725 2.748 15.166 6.341 31.047 11.166 47.149 15.241l67.507 6.229c18.923 1.746 38.015 3.525 56.139 9.246 6 1.895 11.943 4.264 17.093 7.853 7.44.299 14.892.375 22.353.174 1.947-.052 3.9-.128 5.856-.227L494 223.187c-15.93 10.675-37.937 8.875-57.47 6.358" fill="#458637"/><path d="M488.602 19.756a120.956 120.956 0 0 0-23.677.378 2.613 2.613 0 0 1-2.591-1.347c-3.835-7.078-13.843-9.064-21.95-7.47-1.983.39-3.999.927-5.997.625-2.348-.354-4.364-1.816-6.555-2.741-4.964-2.096-10.939-.982-15.166 2.314-1.19.928-2.924.748-3.789-.494-1.27-1.826-3.355-3.097-5.576-3.017-2.716.096-5.088 2.192-5.98 4.749a2.548 2.548 0 0 1-3.392 1.53c-3.548-1.446-7.907-.972-10.875 1.513-1.082.905-2.02 2.052-3.327 2.567-1.342.53-2.847.306-4.264.05-3.849-.696-8.295-1.421-11.263 1.15-1.372 1.19-2.276 3-3.946 3.703-1.218.512-2.598.321-3.911.19-5.95-.597-12.027.238-17.62 2.368-2.667 1.015-2.098 4.997.746 5.194l.073.005 35.342 2.405 31.474 2.143c5.215.355 10.465.709 15.656.096 3.535-.419 7.013-1.283 10.561-1.583 4.59-.388 9.199.175 13.79.54a161.3 161.3 0 0 0 47.23-3.231c2.65-.582 5.502-1.385 7.495-3.116 1.136-.987 1.215-2.737.2-3.85-2.978-3.267-8.11-4.293-12.688-4.67M173.448 76.298a71.679 71.679 0 0 0-13.345.202c-.593.065-1.174-.219-1.46-.72-2.162-3.793-7.802-4.857-12.371-4.003-1.119.209-2.255.497-3.382.336-1.323-.19-2.459-.974-3.694-1.47-2.798-1.122-6.165-.526-8.548 1.24-.671.497-1.649.401-2.136-.265-.716-.977-1.89-1.658-3.142-1.616-1.531.052-2.869 1.175-3.371 2.544-.277.754-1.14 1.12-1.912.82-2-.775-4.456-.521-6.13.81-.609.485-1.138 1.1-1.875 1.376-.756.284-1.604.164-2.403.026-2.17-.372-4.676-.76-6.348.617-.774.638-1.283 1.607-2.224 1.983-.687.274-1.464.172-2.205.102a22.94 22.94 0 0 0-9.93 1.268c-1.504.545-1.184 2.678.42 2.783.014 0 .027.002.04.003l19.92 1.288 17.741 1.148c2.939.19 5.898.38 8.823.051 1.994-.224 3.954-.686 5.953-.847 2.587-.209 5.185.093 7.773.288a95.532 95.532 0 0 0 26.62-1.73c1.494-.312 3.101-.742 4.225-1.67.64-.528.685-1.466.113-2.062-1.68-1.75-4.572-2.3-7.152-2.502" fill="#FFF"/></g></svg>