<svg width="120" height="120" viewBox="0 0 120 120" xmlns="http://www.w3.org/2000/svg" xmlns:xlink="http://www.w3.org/1999/xlink"><defs><path id="a" d="M0 1.027h21.615V22.69H0z"/></defs><g fill="none" fill-rule="evenodd"><path d="M60.187 118.735l-1.713-3.838c-2.234-5.003 0-10.872 4.989-13.11l9.568-4.295s2.834 14.588-12.844 21.243M.725 35.134v5.558c0 7.24 5.852 13.105 13.078 13.105H27.65S23.213 34.677.725 35.134m0 39.344v-5.556c0-7.24 5.852-13.108 13.078-13.108H27.65S23.213 74.937.725 74.478M32.339 22.55c0 11.902 9.624 21.55 21.5 21.55 11.874 0 21.5-9.648 21.5-21.55C75.34 10.65 65.713 1 53.84 1c-11.876 0-21.5 9.649-21.5 21.55" fill="#52C2BC"/><path d="M27.063 55.02c0 23.74 19.201 42.983 42.886 42.983 23.683 0 42.886-19.244 42.886-42.984 0-23.74-19.203-42.986-42.886-42.986-23.685 0-42.886 19.246-42.886 42.986" fill="#FAB52D"/><path d="M84.776 56.961c-2.498 5.509-.334 12.08 5.07 14.957 5.402 2.878 12.05.998 15.201-4.16l.783.415c-3.383 5.593-10.564 7.636-16.4 4.53-5.836-3.106-8.164-10.217-5.434-16.156l.78.414z" fill="#171B1F"/><g transform="matrix(-1 0 0 1 120 31.725)"><mask id="b" fill="#fff"><use xlink:href="#a"/></mask><path d="M21.615 11.859c0 5.983-4.84 10.831-10.806 10.831-5.97 0-10.81-4.848-10.81-10.831C0 5.875 4.84 1.027 10.81 1.027c5.966 0 10.806 4.848 10.806 10.832" fill="#FAB52D" mask="url(#b)"/></g><path d="M99.948 43.583c0 5.118 4.14 9.267 9.243 9.267 5.106 0 9.245-4.149 9.245-9.267 0-5.118-4.139-9.266-9.245-9.266-5.104 0-9.243 4.148-9.243 9.266" fill="#BFDDF4"/><path d="M105.61 43.583a3.585 3.585 0 0 0 3.582 3.59 3.584 3.584 0 0 0 3.58-3.59 3.584 3.584 0 0 0-3.58-3.589 3.585 3.585 0 0 0-3.581 3.59" fill="#171B1F"/><path d="M78.349 43.41c0 5.984 4.837 10.832 10.806 10.832 5.97 0 10.806-4.848 10.806-10.831 0-5.984-4.837-10.832-10.806-10.832-5.97 0-10.806 4.848-10.806 10.832" fill="#FAB52D"/><path d="M79.91 43.41c0 5.119 4.138 9.267 9.244 9.267 5.107 0 9.245-4.148 9.245-9.266 0-5.119-4.138-9.267-9.245-9.267-5.106 0-9.245 4.148-9.245 9.267" fill="#BFDDF4"/><path d="M85.574 43.41A3.585 3.585 0 0 0 89.155 47a3.584 3.584 0 0 0 3.58-3.59 3.584 3.584 0 0 0-3.58-3.588 3.585 3.585 0 0 0-3.58 3.589" fill="#171B1F"/><path d="M72.581 12.124c-9.542 15.588-10.848 37.32-8.512 54.254 1.496 10.839 4.643 21.39 8.904 31.506-25.039 1.756-45.91-18.12-45.91-42.865 0-24.63 20.664-44.405 45.518-42.895" fill="#11A7BB"/><path d="M44.2 64.616c-6.142-2.947-6.13-12.714.054-15.617-7.265-3.416-6.014-16.325 3.763-16.46.663-3.67 3.46-6.908 8.402-6.908.1 0 .195.01.292.016v1.652c-.097-.003-.192-.016-.292-.016-9.232 0-9.24 13.994 0 13.994.1 0 .195-.01.292-.016v1.684c-.097-.004-.192-.014-.292-.014-9.19 0-9.282 13.937 0 13.937.1 0 .195.01.292.016v1.677c-.097.003-.192.014-.292.014-9.434 0-9.128 14.324.292 13.923 0 .506.165 1.668-.292 1.668-5.7 0-8.547-4.345-8.539-8.68-9.135.29-8.747 14.302.576 13.908 0 .504.164 1.67-.293 1.67-9.84 0-11.241-12.958-3.963-16.448m8.31-22.513c-3.125-1.469-4.663-4.698-4.638-7.909-8.891.297-8.846 13.845.168 13.973.468-2.542 1.944-4.879 4.47-6.064m-.055 15.618c-3.089-1.482-4.617-4.689-4.59-7.88-8.85.302-8.876 13.795.18 13.918.463-2.522 1.912-4.84 4.41-6.038" fill="#FAB52D"/></g></svg>