<svg width="109" height="150" xmlns="http://www.w3.org/2000/svg"><path fill="#BE1E2D" stroke="#000" stroke-linecap="round" stroke-linejoin="round" d="M61.404 134.922c.936 1.05 3.517 5.16 3.517 5.16s-3.128 4.387-2.042 5.28c2.137 1.763 7.121 3.787 7.842 1.777.72-2.013-2.666-2.92-2.666-2.92.001 0 1.804-3.08 2.038-4.314.196-1.035-2.054-3.738-2.82-4.63m-7.341-9.487c-1.055 1.108-2.885 3.23-4.365 4.388-.26.208-.51.387-.764.56h.013s-.113 2.125-1.121 2.014c-.614-.057-1.018-.492-1.251-.82-1.083.304-2.02.182-2.742-.521-1.69-1.639-.7-4.005.531-5.333 1.22-1.333 8.959-9.8 12-6.383 3.038 3.413-2.3 6.095-2.3 6.095h0z" stroke-width=".693"/><path fill="#BE1E2D" stroke="#000" d="M61.149 117.825s6.607.332 7.638 6.058c.32 2.042 1.222 9.876-2.264 12.259-3.426 2.34-6.736 2.577-9.853.818-3.15-1.776-3.803-6.838-3.395-9.59a23.319 23.319 0 0 1 1.155-4.443c0-.002 1.95-4.668 6.719-5.102h0z" stroke-width=".693"/><path fill="none" stroke="#000" stroke-linecap="round" stroke-linejoin="round" d="M68.91 126.974c-5.238.617-3.835 6.148-1.496 8.323" stroke-width=".693"/><path fill="#E6E7E8" d="M68.91 127.27s-2.937.126-3.409 2.84c-.448 2.588 1.805 4.812 1.805 4.812s1.736-1.457 1.604-7.653z"/><path fill="#BE1E2D" stroke="#000" stroke-linecap="round" stroke-linejoin="round" d="M55.905 135.16s-3.205 11.995-.703 13.181c2.5 1.187 7.828 1.937 8.035-.188.212-2.122-3.296-2.178-3.296-2.178l1.496-8.238" stroke-width=".693"/><path fill="#BE1E2D" stroke="#000" d="M62.292 124.488c.262 1.522.865 4.294.909 6.199.007.331-.008.65-.014.96l.005-.017s1.656 1.38.954 2.136c-.42.457-1.016.522-1.427.51-.407 1.064-1.075 1.747-2.081 1.903-2.35.38-3.662-1.863-4-3.661-.334-1.794-2.504-13.197 2.108-13.588 4.612-.387 3.546 5.558 3.546 5.558h0z" stroke-width=".693"/><g stroke="#000" stroke-width=".693"><path fill="#BE1E2D" d="M96.51 57.684c.877-1.088 3.352-4.221 4.812-6.617 2.456-4.032 5.684-9.164 5.684-9.164s1.475 7.418.404 13.722c-.942 5.55-4.457 10.719-5.274 11.873l-4.074-5.096-1.552-4.718h0z"/><path fill="#939598" stroke-linecap="round" stroke-linejoin="round" d="M102.595 58.557c1.85.248 3.545-.59 4.36-1.416h0c-1.154 5.17-3.97 9.409-4.75 10.494l-.02.079c-.478-1.089-.694-1.774-1.208-2.76h0c1.16-1.643 1.512-4.403 1.618-6.397h0zm0 0c.098-1.274-.246-3.112-.246-3.112"/></g><g stroke="#000" stroke-width=".693"><path fill="#BE1E2D" stroke-linecap="round" stroke-linejoin="round" d="M32.958 103.386s10.937 16.682 32.588 17.344c21.65.66 27.857-8.793 29.054-13.036 1.398-4.95-1.359-9.324-1.728-9.884l-.078-.03c-2.489 1.622-5.401.683-5.401.683s1.546.007 2.346-.822c.775-.795 1.613-5.552.425-12.041-1.583-8.64-4.847-10.496-4.847-10.496l-.306-.266a3390.296 3390.296 0 0 1-17.11 5.256c-7.726 2.336-11.497 4.85-11.497 4.85s.54-3.592 3.054-5.747c1.31-1.128 3.014-2.2 4.345-2.973l-.242-.05s-12.487 1.583-19.116 10.199c-4.67 6.071-2.872 14.802-2.872 14.802s-3.31-4.047-4.357-8.303l-.017-.015s-3.514 3.063-4.367 9.542c-.032.233-.056.491-.073.767l.199.22h0zm59.989 10.847a30.575 30.575 0 0 0 0 0h0zm.228-1.766a17.19 17.19 0 0 1 0 0h0zm.022-.29a10.646 10.646 0 0 0 0 0h0zm.033-.775a7.123 7.123 0 0 0-.023-.671l.004-.004c.016.209.02.437.019.675h0zM37.2 92.862s-3.513 3.06-4.367 9.54c-.483 3.672.799 12.502.799 12.502s-9.137-10.696-8.836-22.145c.304-11.449 4.183-19.752 4.183-19.752m-6.398 36.825l-2.951 7.033S6.153 103.909 9.054 80.269m20.59 29.525l.735 5.595s-6.803-3.569-10.137-8.678c-6.283-9.619-5.18-19.304-5.18-19.304m81.769-6.462c1.309 8.472-.439 12.003-2.148 14.831-2.552 4.218-7.291 2.687-7.291 2.687s1.546.009 2.348-.818c.777-.797 1.612-5.55.424-12.044-1.585-8.64-5.05-10.615-5.05-10.615h0C80.63 76.372 75.107 77.91 67.9 80.094c-7.727 2.334-11.498 4.85-11.498 4.85s.538-3.593 3.054-5.749c1.256-1.078 2.874-2.11 4.175-2.873l-.072-.151s-12.488 1.582-19.116 10.2c-4.67 6.074-2.872 14.8-2.872 14.8s-3.303-4.038-4.357-8.29l-.017-.026s-3.514 3.065-4.368 9.544c-.255 1.943-.016 5.331.266 8.091v.004-.002c.25 2.454.534 4.41.534 4.41s-1.88-2.204-3.911-5.679l-.08.564.736 5.596s-4.216-2.215-7.64-5.649l-.155.095-2.951 7.032S3.7 101.55 10.2 73.852c3.389-14.432 27.249-31.81 30.932-42.856 3.68-11.047-3.535-19.592-3.535-19.592s.735.15 2.65 1.475c1.913 1.326 4.564 5.006 4.564 5.006s-.02-4.743.442-8.395C45.879 4.577 47.02.95 47.02.95s10.902 20.913 22.535 33.726c11.636 12.814 26.93 14.49 34.761 38.738 8.51 26.343-5.92 40.073-5.92 40.073s.263-1.782.46-4.468l-.17.126s-1.933 4.028-3.325 5.858a68.316 68.316 0 0 1-3.52 4.227s.692-2.475 1.1-4.963l-.046.025c-3.093 4.5-10.6 10.043-27.355 9.532-20.976-.64-31.79-12.587-32.444-13.33-.247-2.427-.46-5.334-.337-7.322l.197.215s10.936 16.68 32.588 17.344c17.3.527 24.736-5.402 27.636-9.972l-.003.003c.01-.015.017-.031.027-.046v-.008l.013-.014c.703-1.123 1.135-2.165 1.376-3 1.364-4.832-1.227-9.118-1.695-9.834l-.076-.098c-2.495 1.653-5.434.704-5.434.704s1.548.008 2.348-.823m-26.105-21.32c1.062-.852 2.297-1.256 2.297-1.256m-28.73 17.791s-.29-3.377-.043-4.274m61.533 20.56s-1.933 4.029-3.325 5.859a68.316 68.316 0 0 1-3.52 4.227s1.678-5.992 1.35-8.693m3.946-21.589s3.562 11.082 1.549 20.197"/><path fill="#E6E7E8" d="M32.958 103.386s10.937 16.682 32.588 17.344c21.65.66 27.857-8.793 29.054-13.036 1.398-4.95-1.359-9.324-1.728-9.884l-.078-.03c-2.489 1.622-5.401.683-5.401.683s1.546.007 2.346-.822c.775-.795 1.613-5.552.425-12.041-1.583-8.64-4.847-10.496-4.847-10.496l-.306-.266a3390.296 3390.296 0 0 1-17.11 5.256c-7.726 2.336-11.497 4.85-11.497 4.85s.54-3.592 3.054-5.747c1.31-1.128 3.014-2.2 4.345-2.973l-.242-.05s-12.487 1.583-19.116 10.199c-4.67 6.071-2.872 14.802-2.872 14.802s-3.31-4.047-4.357-8.303l-.017-.015s-3.514 3.063-4.367 9.542c-.032.233-.056.491-.073.767l.199.22h0z"/></g><g stroke="#000" stroke-width=".693"><path fill="#BE1E2D" d="M25.112 97.117a23.306 23.306 0 0 1-.315-4.358c.21-7.97 2.158-14.418 3.319-17.597l-.353-.382c-2.252-2.892-8.77-11.1-12.794-14.643-4.933-4.333-14.6-5.99-14.6-5.99s3.314 15.205 7.718 23.94c6.794 13.476 16.598 18.92 16.598 18.92l.427.11h0z"/><path fill="#939598" stroke-linecap="round" stroke-linejoin="round" d="M17.6 91.33s1.91-1.271 2.337-5.754c.265-2.778-.76-7.918-.76-7.918l.093.165a27.674 27.674 0 0 1-2.278-3.21c-1.208-2.015-2.597-4.998-3.859-7.946l-.194-.411S9.495 60.872 1.865 59.85l-.093.041c1.372 5.22 3.639 12.896 6.313 18.195 2.992 5.94 6.577 10.32 9.64 13.359l-.125-.116h0zm5.084-10.733s-3.32-2.609-3.413-2.774"/></g><path fill="#939598" stroke="#000" d="M82.12 106.54s-4.519-.14-10.59 0c-6.072.14-12.423.85-12.423.85s3.106 6.215 11.012 5.787c7.908-.425 11.44-3.104 12.002-6.636h0z" stroke-width=".693"/><path fill="#231F20" d="M58.913 92.923c-.118-.034-2.194-.6-4.834-.477a.722.722 0 0 0-.364-.297c-.003-.001-.346-.143-.429-.457a.738.738 0 0 0-1.426.378c.063.236.17.428.282.598-.107.018-.217.043-.326.065a.702.702 0 0 0-.285-.138c-.005-.002-.372-.088-.498-.39a.74.74 0 0 0-.968-.389.737.737 0 0 0-.392.967c.136.323.332.557.539.738a1.095 1.095 0 0 0-.085.815 1.11 1.11 0 0 0 1.37.751c3.353-.976 6.783-.044 6.815-.034a1.11 1.11 0 0 0 1.364-.768 1.104 1.104 0 0 0-.763-1.362zm29.322-1.037a.739.739 0 0 0-.578-.866.731.731 0 0 0-.867.579c-.063.315-.39.477-.411.488a.703.703 0 0 0-.31.283 8.131 8.131 0 0 0-.275-.058 2.14 2.14 0 0 0 .157-.671.737.737 0 0 0-.697-.774c-.436-.045-.753.293-.773.7-.015.23-.166.397-.261.478-1.95-.256-4.388-.286-5.544.887a1.106 1.106 0 0 0 .79 1.883c.288 0 .57-.108.786-.329.598-.608 3.57-.403 5.867.163a1.1 1.1 0 0 0 1.338-.81 1.09 1.09 0 0 0-.066-.668c.321-.235.716-.628.844-1.285z"/></svg>