<svg xmlns="http://www.w3.org/2000/svg" width="236.045" height="161.389" viewBox="0.436 -2.791 236.045 161.389"><defs><style/></defs><g id="ID0.4247132698073983" transform="translate(.25 .05) scale(.9975)"><g id="Back_Leg"><path id="Fill_5_" fill="#96C93D" d="M141.82 136.094c-.162 5.122.637 9.909-2.175 14.283-1.08 1.687-2.147 3.388-3.326 5.008-.396.543-5.092 6.241-2.742 6.7 2.73.531 5.568.031 8.331.319 2.435.256 3.209.611 5.612 1.068 6.265 1.188 12.596 2.683 18.978 1.885-1.485-.941-3.184-1.804-4.534-2.533-.818-.441-.893-1.415.073-1.596 2.214-.412 4.563-.073 6.651-.908-2.109-1.011-4.716-1.743-6.963-1.882-1.051-.063-1.467-.613-.463-1.177 2.132-1.195 4.393-1.895 6.669-2.65-5.477-.964-11.674-.479-17.119.072-1.144.432-2.414-1.089-1.378-2.139 5.317-5.378 12.9-10.646 14.879-18.361 1.145-4.459-.068-9.26-4.525-11.473-4.395-2.183-9.066-1.711-13.62-.326-.28.085-.491-.011-.618-.177-1.11 1.325-4.484 5.909-4.626 12.814.49.083.917.437.896 1.073z" transform="translate(.25) scale(.85737)"/><path id="Outline_7_" d="M139.491 138.739a36.2 36.2 0 0 1-.102 1.399v.015h-.001c-.462 5.182-1.987 9.479-5.202 13.979-1.276 1.785-6.547 7.631-2.662 9.75 1.616.881 3.401.904 5.207.898 4.007-.011 6.176.371 10.128 1.095 7.161 1.309 14.106 2.896 21.391 1.509.807-.154 1.506-1.532.87-2.064-1.179-.986-2.503-1.852-3.859-2.653 1.621-.261 2.9-.477 4.681-1.324.762-.363.698-1.555 0-1.936a18.833 18.833 0 0 0-5.312-1.955c2.149-.509 3.841-.786 6.102-1.676.87-.341 1.057-1.689 0-1.954-5.734-1.433-11.308-2.006-17.143-1.607 1.065-.979 2.182-2.003 3.299-3.064.733-.738 6.64-6.762 8.804-11.363.985-2.359 1.449-4.867 1.079-7.541-1.138-8.241-8.649-11.225-15.885-10.336-1.728.212-3.44.642-5.046 1.277-.468.186-.519.722-.289 1.021.127.166.338.262.618.177 4.554-1.385 9.226-1.856 13.62.326 4.457 2.213 5.67 7.014 4.525 11.473-1.979 7.715-9.562 12.983-14.879 18.361-1.036 1.05.234 2.57 1.378 2.139 5.445-.552 11.643-1.036 17.119-.072-2.276.756-4.537 1.455-6.669 2.65-1.004.563-.588 1.113.463 1.177 2.247.139 4.854.871 6.963 1.882-2.088.835-4.438.496-6.651.908-.966.181-.892 1.154-.073 1.596 1.351.729 3.049 1.592 4.534 2.533-6.382.798-12.713-.696-18.978-1.885-2.403-.457-3.178-.812-5.612-1.068-2.763-.288-5.601.212-8.331-.319-2.35-.459 2.345-6.157 2.742-6.7 1.179-1.62 2.246-3.321 3.326-5.008 2.812-4.374 2.013-9.161 2.175-14.283.021-.636-.406-.989-.896-1.071-.452-.077-.954.075-1.21.469-.086-.074-.201 2.108-.225 2.936-.006.186-.006.304.001.309z" transform="translate(.25) scale(.85737)"/></g><g id="Tail"><path id="Fill_4_" fill="#96C93D" d="M107.778 146.653c4.773-11.614-2.563-22.915-2.563-22.915-16.982-7.036-33.222-15.73-49.905-23.45-16.105-7.454-32.147-15.546-48.552-22.427 16.143 11.223 32.735 21.877 49.005 32.9 11.471 7.771 23.014 15.457 34.399 23.354 5.86 4.066 12.083 7.975 17.616 12.538z" transform="translate(.25) scale(.85737)"/><path id="Outline_6_" d="M107.778 146.653c-5.534-4.563-11.756-8.473-17.616-12.538-11.386-7.896-22.929-15.582-34.399-23.354-16.27-11.023-32.863-21.677-49.005-32.9 16.405 6.881 32.447 14.973 48.553 22.427 16.683 7.72 32.923 16.414 49.905 23.45l.67-3.642c-16.474-8.05-33.458-15.204-50.144-22.786C37.858 89.184 19.808 79.646.977 73.855a.617.617 0 0 0-.264-.029.628.628 0 0 0-.579.393c-.179.287-.208.658.097.909 16.682 13.718 35.353 25.277 53.133 37.484 17.471 11.991 36.427 24.769 53.465 37.604l.949-3.563z" transform="translate(.25) scale(.85737)"/></g><g id="Back_Arm"><path id="Fill_1_" fill="#96C93D" d="M178.89 88.887c-1.318 3.989-1.929 10.585 3.489 13.42.211.112.345.245.441.385 10.341-2.757 20.995-.326 30.373 6.179.568-2.338-.298-4.316-3.174-5.966-.419-.241-.396-.793.021-.934 2.461-.839 4.68-1.08 7.273-.448-1.181-2.323-3.903-3.946-6.438-5.226-.622-.312-.403-.955.026-1.17 1.312-.672 2.897-1.099 4.515-1.365-9.116-4.232-19.487-2.845-26.876 1.694-.321.194-.687.101-.934-.101-.051-.026-.103-.037-.158-.077-2.924-2.013-2.562-6.1-2.025-8.609-3.01-4.983-7.276 1.528-7.277 1.532.4-.041.886.26.744.686z" transform="translate(.25) scale(.85737)"/><path id="Outline_3_" fill="#231F20" d="M177.737 88.484c-2.043 4.692-3.094 11.817 3.368 15.452.08.05.166.062.251.092a.89.89 0 0 0 .755.174c4.139-.974 7.994-1.279 11.727-.941 0 0 2.437.235 3.94.599 4.957 1.073 9.775 3.308 14.796 6.639.736.485 1.409.06 1.469-.503.013-.02.028-.022.038-.049 1.047-2.782.293-5.258-2.422-7.24 2.131-.555 4.08-.566 6.562.311.534.189 1.011-.179.891-.634-.751-2.804-3.357-4.865-6.155-6.473 1.592-.532 3.386-.797 5.129-.897.862.053 1.416-.926.494-1.5-3.455-2.139-7.408-3.329-11.417-3.742-.402-.044-3.511-.167-3.511-.167-5.68.052-11.193 1.625-15.276 4.33-2.157-1.576-2.156-5.069-2.045-7.058a.382.382 0 0 0-.038-.169c-.166-.307-.789-.404-.866-.041-.543 2.506-.9 6.595 2.025 8.611.057.039.108.052.159.077.246.199.612.291.933.1 7.388-4.538 17.76-5.928 26.877-1.693-1.615.267-3.202.689-4.516 1.365-.427.214-.644.858-.025 1.169 2.537 1.28 5.26 2.902 6.44 5.228-2.586-.631-4.811-.39-7.273.447-.417.141-.444.691-.022.934 2.877 1.651 3.743 3.628 3.174 5.965-9.385-6.506-20.03-8.937-30.373-6.179a1.184 1.184 0 0 0-.44-.384c-5.417-2.835-4.814-9.432-3.49-13.42.143-.424-.344-.725-.738-.678-.184.017-.341.097-.421.275z" transform="translate(.25) scale(.85737)"/></g><g id="Teeth"><g id="Tooth_6_"><path id="ID0.17694995738565922" fill="#FFF" d="M251.208 31.871c-.27 0-.529-.109-.719-.304l.719-.696-.754.66c-.505-.525-.838-1.063-1.131-1.539l-.113-.182a14.759 14.759 0 0 1-1.056-2.056 1 1 0 0 1 .879-1.386 69.19 69.19 0 0 0 4.283-.304 1.003 1.003 0 0 1 .958.473 1 1 0 0 1-.016 1.068c-.312.48-.585 1.005-.872 1.561-.405.782-.824 1.591-1.389 2.318a.998.998 0 0 1-.735.386l-.054.001z" transform="translate(.25) scale(.85737)"/><path id="ID0.7231707707978785" d="M253.421 27.059c-.796 1.222-1.326 2.668-2.213 3.812l-.094-.095c-.42-.438-.735-.981-1.056-1.495a13.644 13.644 0 0 1-.982-1.914 70.2 70.2 0 0 0 4.345-.308m0-2c-.069 0-.139.003-.209.011a68.726 68.726 0 0 1-4.221.3 2 2 0 0 0-1.758 2.773 15.81 15.81 0 0 0 1.127 2.194l.113.182c.319.517.682 1.103 1.197 1.641l.077.079a2.042 2.042 0 0 0 1.559.618 2.013 2.013 0 0 0 1.482-.76c.619-.8 1.06-1.649 1.485-2.471.276-.533.537-1.037.822-1.475a2 2 0 0 0-1.674-3.092v2z" transform="translate(.25) scale(.85737)"/></g><g id="Tooth_5_"><path id="ID0.3461822741664946" fill="#FFF" d="M223.347 36.627c-.166 0-.333-.042-.484-.125-.462-.255-.864-.558-1.254-.85l-1.027-.771a1 1 0 0 1-.185-1.429 14.09 14.09 0 0 1 1.612-1.688 1 1 0 0 1 1.626.474c.271.953.567 2.088.706 3.273a.998.998 0 0 1-.994 1.116z" transform="translate(.25) scale(.85737)"/><path id="ID0.6845668721944094" d="M222.672 32.512c.293 1.028.551 2.053.675 3.115-.431-.238-.826-.541-1.219-.835-.316-.235-.634-.479-.952-.715.45-.561.953-1.083 1.496-1.565m0-2c-.483 0-.958.175-1.328.505a14.829 14.829 0 0 0-1.729 1.81 2.001 2.001 0 0 0 .372 2.86c.167.124.333.25.5.375l.447.336.073.056c.397.298.849.636 1.37.925a2.004 2.004 0 0 0 2.083-.089 2 2 0 0 0 .872-1.893c-.146-1.256-.455-2.439-.737-3.431a2.001 2.001 0 0 0-1.923-1.454v2z" transform="translate(.25) scale(.85737)"/></g><g id="Tooth_4_"><path id="ID0.06560678733512759" fill="#FFF" d="M240.763 32.407a1 1 0 0 1-.777-.455 4.255 4.255 0 0 1-.113-.188c-.335-.531-.562-1.035-.781-1.522a57.53 57.53 0 0 1-.922-2.197 1 1 0 0 1 .875-1.372c1.233-.065 2.473-.108 3.719-.139h.024a1.001 1.001 0 0 1 .945 1.33c-.459 1.312-1.116 2.973-2.142 4.189a1 1 0 0 1-.828.354z" transform="translate(.25) scale(.85737)"/><path id="ID0.7078851307742298" d="M242.787 27.534c-.482 1.38-1.09 2.84-1.962 3.875-.054-.083-.101-.169-.136-.226-.277-.438-.492-.92-.705-1.393a58.053 58.053 0 0 1-.888-2.119c1.224-.064 2.455-.107 3.691-.137m0-2h-.049c-1.372.034-2.598.08-3.747.14a2.002 2.002 0 0 0-1.75 2.743c.312.776.597 1.476.919 2.193.242.537.495 1.098.84 1.643.049.084.096.164.146.241a2 2 0 0 0 1.553.91 2 2 0 0 0 1.655-.707c1.13-1.341 1.834-3.111 2.32-4.503a2 2 0 0 0-1.887-2.66v2z" transform="translate(.25) scale(.85737)"/></g><g id="Tooth_3_"><path id="ID0.896744784899056" fill="#FFF" d="M232.119 32.238a1 1 0 0 1-.436-.1 3.796 3.796 0 0 1-.211-.114c-.658-.342-1.21-.791-1.695-1.187a40.428 40.428 0 0 1-1.112-.962 1.005 1.005 0 0 1 .375-1.713c.938-.276 1.95-.511 3.187-.74a1.001 1.001 0 0 1 1.176 1.091c-.038.35-.06.708-.08 1.055-.043.703-.083 1.368-.238 1.934a1.001 1.001 0 0 1-.966.736z" transform="translate(.25) scale(.85737)"/><path id="ID0.10462514078244567" d="M232.408 28.406c-.11 1.02-.09 2.105-.289 2.832-.087-.042-.168-.094-.207-.113-.543-.281-1.031-.678-1.504-1.062a44.034 44.034 0 0 1-1.086-.94 30.59 30.59 0 0 1 3.086-.717m0-2c-.121 0-.243.011-.364.033a32.216 32.216 0 0 0-3.286.764 2 2 0 0 0-.762 3.415c.379.335.754.667 1.137.984.536.437 1.13.919 1.859 1.297.057.034.155.089.257.138a1.992 1.992 0 0 0 1.697.02 2.003 2.003 0 0 0 1.102-1.292c.183-.667.229-1.414.272-2.138.021-.332.04-.674.076-1.008a2.002 2.002 0 0 0-.628-1.682 2.01 2.01 0 0 0-1.36-.531v2z" transform="translate(.25) scale(.85737)"/></g><g id="Tooth_2_"><path id="ID0.4969696132466197" fill="#FFF" d="M235.204 61.842a19.119 19.119 0 0 1-3.133-.286 1 1 0 0 1-.612-1.598c.309-.397.584-.848.876-1.324.466-.762.948-1.55 1.627-2.214a1.02 1.02 0 0 1 .903-.323 1 1 0 0 1 .787.632c.183.492.25.993.31 1.434l.042.304c.076.513.114 1.034.151 1.555.018.244.034.488.057.731a.999.999 0 0 1-.996 1.09l-.012-.001z" transform="translate(.25) scale(.85737)"/><path id="ID0.03902015741914511" d="M234.715 57.076c.182.488.224 1.027.3 1.537.108.732.134 1.484.201 2.229a17.966 17.966 0 0 1-2.968-.271c.857-1.103 1.432-2.488 2.435-3.458.014-.013.02-.023.032-.037m0-2c-.567 0-1.113.241-1.496.673-.756.758-1.275 1.608-1.737 2.362-.276.452-.537.879-.812 1.232a1.998 1.998 0 0 0 1.226 3.196 20.02 20.02 0 0 0 3.298.302h.023a2 2 0 0 0 1.992-2.181 42.639 42.639 0 0 1-.056-.712 21.215 21.215 0 0 0-.159-1.629l-.041-.292c-.062-.469-.141-1.053-.363-1.65a1.996 1.996 0 0 0-1.875-1.301v2z" transform="translate(.25) scale(.85737)"/></g><g id="Tooth_1_"><path id="ID0.8049523672088981" fill="#FFF" d="M221.685 55.352a.999.999 0 0 1-.774-.367 18.345 18.345 0 0 1-1.803-2.645 1 1 0 0 1 .308-1.313c.621-.426 1.389-.695 2.347-.822.353-.048.733-.07 1.196-.07.129 0 .255.013.382.027.3.035.588.206.749.46.161.255.22.571.123.857-.15.447-.431.895-.656 1.253-.094.149-.182.285-.239.398-.314.609-.532 1.1-.687 1.546a1 1 0 0 1-.946.676z" transform="translate(.25) scale(.85737)"/><path id="ID0.9668038636445999" d="M222.958 51.135c.104 0 .204.014.307.025-.174.516-.642 1.132-.838 1.514a12.81 12.81 0 0 0-.742 1.678 17.187 17.187 0 0 1-1.704-2.5c.563-.387 1.241-.566 1.912-.655.353-.049.71-.062 1.065-.062m0-2a9.68 9.68 0 0 0-1.334.08c-1.111.147-2.021.471-2.775.988a1.998 1.998 0 0 0-.613 2.625 19.322 19.322 0 0 0 1.901 2.791 2 2 0 0 0 3.439-.615 10.8 10.8 0 0 1 .629-1.411c.049-.096.122-.206.198-.327.253-.404.569-.906.758-1.466a2.002 2.002 0 0 0-1.668-2.626 4.277 4.277 0 0 0-.535-.039v2z" transform="translate(.25) scale(.85737)"/></g><g id="Tooth"><path id="ID0.2617056421004236" fill="#FFF" d="M228.593 60.486a.996.996 0 0 1-.386-.077 18.754 18.754 0 0 1-4.392-2.587 1.002 1.002 0 0 1 .063-1.616c.378-.253.758-.525 1.141-.8 1.068-.766 2.174-1.557 3.385-2.068a.995.995 0 0 1 .927.078c.278.177.45.48.461.809l.017.362c.013.637-.02 1.269-.052 1.881-.021.421-.051.783-.083 1.146-.056.641-.107 1.246-.082 1.827a1 1 0 0 1-.999 1.045z" transform="translate(.25) scale(.85737)"/><path id="ID0.046727840323001146" d="M228.793 54.26c.004.115.014.23.016.346.013.627-.021 1.256-.054 1.882-.047.978-.206 2.005-.162 2.999a17.725 17.725 0 0 1-4.157-2.449c1.402-.94 2.828-2.133 4.357-2.778m0-2c-.264 0-.528.052-.777.157-1.313.555-2.465 1.379-3.579 2.177-.374.269-.745.534-1.114.782a2 2 0 0 0-.126 3.23 19.738 19.738 0 0 0 4.626 2.726 2.006 2.006 0 0 0 1.917-.206 2.001 2.001 0 0 0 .853-1.728c-.022-.515.027-1.088.079-1.696.033-.377.065-.751.083-1.119l.003-.062c.032-.629.066-1.28.053-1.956a8.79 8.79 0 0 0-.012-.268l-.005-.105a1.997 1.997 0 0 0-2.001-1.932v2z" transform="translate(.25) scale(.85737)"/></g></g><g id="Body"><path id="Fill_3_" fill="#96C93D" d="M238.723 8.866s-11.635 3.193-15.926 3.443-12.662 1.154-16.727 3.744c-3.002 1.547-5.078 4.248-5.302 8.728-.229 4.595 1.83 10.288 1.732 14.805-.278 12.644-9.471 25.103-17.77 33.956-3.582 3.823-7.594 8.078-13.093 8.096-8.717.027-18.32-.865-26.821 1.228-18.059 4.443-36.05 17.142-37.637 37.106l-3.257 2.672s-3.157 35.742 33.546 28.621l.938-1.592c11.122-5.928 20.683-13.088 27.919-23.939 2.63-3.944 4.775-8.135 6.844-12.36.073-.145.969-1.898 2.204-4.277l3.614-6.855c1.412-2.626 2.737-5.009 3.526-6.229a52.925 52.925 0 0 1 2.226-3.076c7.445-9.498 16.161-23.098 27.883-26.705 8.065-2.484 17.576 1.977 24.084-2.938-4.942.972-9.688-1.364-13.615-4.366-5.973-4.566-7.936-11.635-7.085-18.887 1.384-11.814 14.035-13.261 23.917-13.67 2.194-.091 4.599-.128 7.049-.245.177-.04.359-.049.538-.026 9.895-.525 20.354-2.537 20.778-14.971.491-14.451-21.408-6.125-29.565-2.263z" transform="translate(.25) scale(.85737)"/><path id="Belly" fill="#FFED00" d="M131.838 152.202s-19.5-5.894 6.5-16.894c26-11 37.332-42.499 39.166-43.666 1.834-1.167 7.309-4.667 8.571 1.333 0 0-10.071 19.667-11.404 22.167-1.333 2.5-12.333 20.332-17.833 24.166-5.5 3.834-15.666 12.454-25 12.894z" transform="translate(.25) scale(.85737)"/><path id="Outline_5_" d="M267.451 2.502c-7.698-5.146-21.572-1.564-29.389 3.639-1.726 1.065-12.223 4.585-19.057 4.502-6.834-.083-12.442 3.185-12.442 3.185-2.286.799-4.329 2.123-5.797 4.25-2.909 4.216-2.946 9.396-2.313 14.298.312 2.407.979 4.782 1.062 7.21.123 3.608-.104 7.315-1.371 10.634-3.076 8.053-9.239 15.348-15.146 21.588-2.138 2.256-4.555 4.303-7.197 5.934-3.126 1.927-8.196.925-11.757 1.005-9.709.22-20.777 1.481-30.112 5.563-15.832 6.924-28.816 17.733-30.32 35.139-.382 2.369-.106 3.486.311 4.006.204.083.405.173.61.255.021.009.042.019.064.022.188.074.374.103.552.097.928.037 1.897-.539 1.922-1.737.434-21.188 19.056-34.627 37.746-39.226 8.501-2.093 18.104-1.2 26.821-1.228 5.499-.018 9.511-4.272 13.093-8.096 8.299-8.854 17.491-21.312 17.77-33.956.098-4.517-1.962-10.21-1.732-14.805.224-4.479 2.3-7.181 5.302-8.728 4.064-2.59 12.436-3.494 16.727-3.744s15.926-3.443 15.926-3.443c8.157-3.862 30.057-12.188 29.566 2.259-.425 12.434-10.884 14.445-20.778 14.971a1.57 1.57 0 0 0-.538.026c-2.45.117-4.854.154-7.049.245-9.882.409-22.533 1.855-23.917 13.67-.851 7.252 1.112 14.32 7.085 18.887 3.927 3.002 8.673 5.338 13.615 4.366-6.508 4.915-16.019.454-24.084 2.938-11.722 3.607-20.438 17.207-27.883 26.705a53.401 53.401 0 0 0-2.226 3.076c-.789 1.221-2.114 3.604-3.526 6.229l-3.614 6.855a714.816 714.816 0 0 0-2.204 4.277c-2.068 4.226-4.214 8.416-6.844 12.36-7.261 10.889-16.863 18.062-28.035 24.002 0 0-4.286 1.825-9.202 1.492-4.916-.333-3.75 3.001-.5 2.917 3.25-.084 7.879-1.017 7.879-1.017 3.938-1.37 7.747-3.267 11.357-5.545.595-.427 5.473-3.923 7.031-5.104a79.791 79.791 0 0 0 10.423-10.311c4.606-5.49 7.794-11.714 10.886-17.997.064-.134.288-.595.642-1.304l.796-1.621.022-.002c.203-.396.427-.833.665-1.29.188-.362.382-.735.591-1.132l4.152-7.505c.572-.982 1.166-1.978 1.776-2.972a2.763 2.763 0 0 1-.097.034c.229-.349.441-.701.681-1.045.154-.225.318-.46.476-.688a90.02 90.02 0 0 1 3.839-5.609c.5-.67 1.001-1.319 1.5-1.929l.004-.001c7.363-9.954 16.494-19.907 27.806-21.267 5.42-.65 17.266 4.189 22.751-5.23.787-1.354-.495-2.516-1.7-2.299a3.694 3.694 0 0 0-.384.064c-.299.067-.593.115-.887.165v.006l-.134.018c-.308.05-.614.09-.919.125-15.304 1.911-18.734-10.924-18.734-10.924l.009-.002c-.076-.188-.159-.375-.225-.566-1.288-3.752-.96-8.018.774-11.55l-.012-.02s1.78-6.007 8.697-7.663c6.917-1.656 12.897-1.824 14.532-1.906 1.468-.074 14.384.094 19.473-2.201 7.574-4.115 13.667-17.686 5.191-23.351z" transform="translate(.25) scale(.85737)"/></g><g id="L_Eye"><path id="White" fill="#FFF" d="M223.219 15.014a4.126 4.126 0 0 0-.115-.763c-.591-2.495-3.476-4.639-6.859-4.501-3.724.154-5.95.499-7.218 3.004-.055.108-.089.226-.129.34-1.056 2.956 2.455 7.806 7.803 7.755 3.729-.035 6.631-3.031 6.518-5.835z" transform="translate(.25) scale(.85737)"/><path id="Pupil" fill="#231F20" d="M220.26 20.088c3.289 0 3.289-5.103 0-5.103-3.292.001-3.292 5.103 0 5.103z" transform="translate(.25) scale(.85737)"/><g id="Eyelid"><path id="ID0.31918339990079403" fill="#96C93D" d="M216.244 9.75c-3.256.135-5.367.416-6.693 2.159 4.761-.03 9.869.537 13.179 1.346-1.024-2.04-3.565-3.624-6.486-3.505z" transform="translate(.25) scale(.85737)"/><path id="ID0.8650408904068172" fill="#231F20" d="M224.662 13.829a17.133 17.133 0 0 0-1.933-.574c-3.31-.81-8.418-1.376-13.179-1.346-2.07.013-4.074.137-5.831.406-1.827.279-1.066 2.451.757 2.156 6.759-1.096 13.429-.56 19.96.293.842.111.226-.935.226-.935z" transform="translate(.25) scale(.85737)"/></g><path id="Outline" fill="#231F20" d="M226.453 13.821c-.31-1.442-1.116-2.738-2.281-3.788-.017-.016-.037-.028-.055-.044-1.963-1.74-4.9-2.792-8.151-2.657-5.69.235-9.206 1.275-10.716 5.415-1.635 4.474 5.683 10.757 11.373 10.521 4.359-.18 7.989-2.429 9.373-5.448a6.403 6.403 0 0 0 .602-2.945 6.338 6.338 0 0 0-.145-1.054zm-17.556-.727c.04-.114.074-.232.129-.34 1.268-2.505 3.494-2.85 7.218-3.004 3.384-.138 6.269 2.006 6.859 4.501.06.252.104.506.115.763.113 2.805-2.789 5.801-6.519 5.836-5.346.05-8.857-4.8-7.802-7.756z" transform="translate(.25) scale(.85737)"/></g><g id="R_Eye"><path id="White_1_" fill="#FFF" d="M226.728 14.58a4.301 4.301 0 0 1-.357-.631c-1.026-2.175-.307-5.266 2.055-6.899 2.6-1.796 4.299-2.682 6.584-1.454.099.053.189.124.281.189 2.4 1.675 2.803 7.116-.833 9.824-2.536 1.89-6.205 1.133-7.73-1.029z" transform="translate(.25) scale(.85737)"/><path id="Pupil_1_" fill="#231F20" d="M236.331 13.408c3.289 0 3.289-5.103 0-5.103-3.292.002-3.292 5.103 0 5.103z" transform="translate(.25) scale(.85737)"/><g id="Eyelid_1_"><path id="ID0.5477729514241219" fill="#96C93D" d="M228.425 7.05c2.272-1.571 3.858-2.444 5.747-1.818-3.229 2.422-6.349 5.471-8.118 7.778-.476-2.056.334-4.55 2.371-5.96z" transform="translate(.25) scale(.85737)"/><path id="ID0.14418168924748898" fill="#231F20" d="M225.077 14.433c.246-.426.58-.908.977-1.423 1.77-2.307 4.89-5.356 8.118-7.778 1.404-1.054 2.826-1.989 4.165-2.69 1.391-.729 2.118 1.292.722 2.007-5.185 2.649-9.377 6.476-13.295 10.47-.504.515-.687-.586-.687-.586z" transform="translate(.25) scale(.85737)"/></g><path id="Outline_1_" fill="#231F20" d="M224.37 16.211a6.623 6.623 0 0 0 2.087 1.9c2.658 1.554 6.391 1.377 9.434-.727 3.973-2.745 5.319-11.216 1.661-13.732-3.384-2.33-6.348-1.305-10.32 1.441-2.269 1.569-3.649 3.866-3.98 6.18-.002.021-.009.04-.011.061-.187 1.385.01 2.772.625 4.013.146.295.308.587.504.864zm10.087-.601c-2.535 1.889-6.204 1.132-7.729-1.03a4.301 4.301 0 0 1-.357-.631c-1.026-2.175-.307-5.266 2.055-6.899 2.6-1.796 4.299-2.682 6.584-1.454.099.053.189.124.281.189 2.399 1.676 2.802 7.117-.834 9.825z" transform="translate(.25) scale(.85737)"/></g><g id="Front_Arm"><path id="Fill" fill="#96C93D" d="M162.332 97.197c-1.487 4.505-2.175 11.95 3.944 15.15.233.123.389.277.501.438 11.675-3.111 23.689-.369 34.28 6.973.643-2.637-.338-4.872-3.584-6.733-.475-.275-.444-.897.024-1.058 2.779-.945 5.287-1.217 8.21-.507-1.337-2.624-4.403-4.452-7.272-5.896-.691-.352-.449-1.079.028-1.323 1.48-.759 3.275-1.238 5.097-1.537-10.292-4.781-22.002-3.215-30.341 1.909-.356.222-.774.112-1.054-.11-.056-.03-.114-.042-.176-.086-3.303-2.277-2.894-6.888-2.29-9.721-3.389-5.621-8.209 1.729-8.209 1.729.453-.046 1.002.294.842.772z" transform="translate(.25) scale(.85737)"/><path id="Outline_2_" fill="#231F20" d="M161.035 96.744c-2.308 5.297-3.493 13.334 3.798 17.443.094.056.186.068.285.103.219.171.527.273.854.195 4.669-1.103 9.027-1.439 13.236-1.061 0 0 2.75.267 4.444.674 5.597 1.211 11.033 3.734 16.704 7.495.831.553 1.589.064 1.659-.562.01-.021.027-.031.036-.059 1.188-3.143.334-5.938-2.729-8.17 2.406-.624 4.607-.64 7.407.354.604.214 1.139-.2 1.004-.716-.85-3.166-3.789-5.493-6.946-7.306 1.797-.6 3.823-.896 5.788-1.016.977.061 1.604-1.045.56-1.692-3.899-2.415-8.357-3.759-12.889-4.226-.452-.051-3.958-.188-3.958-.188-6.413.058-12.634 1.833-17.244 4.887-2.432-1.779-2.436-5.719-2.304-7.965a.39.39 0 0 0-.049-.192c-.188-.343-.888-.456-.979-.042-.605 2.828-1.011 7.444 2.292 9.722.062.044.122.056.177.087.279.224.689.331 1.053.11 8.335-5.124 20.045-6.692 30.339-1.911-1.821.297-3.611.778-5.094 1.539-.48.244-.724.972-.03 1.322 2.869 1.444 5.938 3.272 7.272 5.897-2.924-.712-5.431-.439-8.211.505-.467.158-.499.78-.022 1.058 3.241 1.859 4.223 4.09 3.582 6.732-10.592-7.343-22.612-10.087-34.282-6.973a1.432 1.432 0 0 0-.5-.439c-6.116-3.201-5.433-10.644-3.945-15.149.16-.478-.389-.819-.833-.768-.209.021-.389.111-.475.312z" transform="translate(.25) scale(.85737)"/></g><g id="Front_Leg"><path id="Fill_2_" fill="#96C93D" d="M107.493 145.328c-.198 6.279.781 12.146-2.665 17.508-1.325 2.068-2.633 4.153-4.078 6.139-.485.666-6.241 7.65-3.36 8.213 3.347.651 6.825.039 10.212.392 2.983.313 3.934.75 6.879 1.31 7.68 1.457 15.439 3.289 23.263 2.311-1.82-1.153-3.902-2.211-5.559-3.105-1.002-.541-1.094-1.734.091-1.955 2.713-.506 5.594-.09 8.153-1.113-2.586-1.239-5.781-2.137-8.536-2.307-1.288-.078-1.798-.752-.566-1.443 2.612-1.465 5.384-2.322 8.174-3.248-6.713-1.182-14.31-.588-20.984.088-1.401.529-2.959-1.334-1.688-2.621 6.518-6.592 15.812-13.051 18.238-22.508 1.402-5.465-.084-11.35-5.547-14.062-5.388-2.676-11.114-2.098-16.696-.4-.343.104-.602-.013-.757-.216-1.361 1.624-5.497 7.243-5.67 15.707.598.098 1.122.531 1.096 1.31z" transform="translate(.25) scale(.85737)"/><path id="Outline_4_" d="M104.638 148.571c-.03.582-.073 1.152-.124 1.716v.018h-.001c-.566 6.352-2.437 11.62-6.377 17.135-1.564 2.188-8.025 9.354-3.263 11.951 1.98 1.08 4.169 1.108 6.383 1.102 4.911-.014 7.569.455 12.414 1.342 8.778 1.604 17.292 3.551 26.221 1.85.989-.189 1.846-1.879 1.066-2.531-1.444-1.209-3.068-2.27-4.73-3.252 1.987-.32 3.555-.584 5.737-1.623.934-.445.856-1.906 0-2.373-2.098-1.141-4.248-1.939-6.512-2.396 2.635-.623 4.708-.964 7.479-2.054 1.066-.418 1.295-2.071 0-2.396-7.029-1.756-13.861-2.459-21.014-1.971 1.305-1.199 2.674-2.455 4.043-3.756.899-.905 8.139-8.288 10.792-13.93 1.208-2.892 1.776-5.966 1.323-9.243-1.395-10.103-10.602-13.759-19.472-12.67-2.118.26-4.216.787-6.185 1.565-.574.228-.636.886-.355 1.253.156.203.415.32.757.216 5.582-1.697 11.309-2.275 16.696.4 5.463 2.713 6.949 8.598 5.547 14.062-2.426 9.457-11.721 15.916-18.238 22.508-1.271 1.287.287 3.15 1.688 2.621 6.675-.676 14.271-1.27 20.984-.088-2.79.926-5.562 1.783-8.174 3.248-1.231.691-.722 1.365.566 1.443 2.755.17 5.95 1.067 8.536 2.307-2.56 1.023-5.44.607-8.153 1.113-1.185.221-1.093 1.414-.091 1.955 1.656.895 3.738 1.952 5.559 3.105-7.823.979-15.583-.854-23.263-2.311-2.945-.56-3.896-.996-6.879-1.31-3.387-.353-6.865.26-10.212-.392-2.881-.562 2.875-7.547 3.36-8.213 1.445-1.985 2.753-4.07 4.078-6.139 3.446-5.361 2.467-11.229 2.665-17.508.026-.779-.499-1.212-1.099-1.313-.553-.094-1.17.093-1.482.575-.106-.091-.248 2.584-.275 3.598-.003.235-.003.38.005.386z" transform="translate(.25) scale(.85737)"/></g></g></svg>