<svg width="120" height="120" viewBox="0 0 120 120" xmlns="http://www.w3.org/2000/svg" xmlns:xlink="http://www.w3.org/1999/xlink"><defs><path id="a" d="M0 .387h32.35v38.422H0z"/></defs><g fill="none" fill-rule="evenodd"><path d="M49.68 28.15c-2.048-.654-4.508-.53-5.627.333 2.064.022 3.87.328 5.628-.334m-12.996 3.705c2.255 1.895 5.53 2.023 6.984.367-2.26-.12-4.522-.237-6.984-.367M56.81 23.59c-2.185-.406-5.759-.307-6.96.192 2.478 1.236 5.492 1.153 6.96-.192m11.58 9.917c-.022-1.043-.746-1.807-1.677-1.769-.871.036-1.61.826-1.564 1.676.05.892.897 1.624 1.882 1.623.891 0 1.38-.551 1.36-1.53M41.447 50.661c-.001.869 1.141 1.997 1.979 1.883.88-.12 1.171-.807 1.233-1.577.081-.981-.722-1.95-1.565-1.971-.837-.021-1.644.796-1.647 1.665m26.82-11.349c.02 2.177 1.327 3.45 3.145 3.064 1.712-.364 3.059-2.294 2.805-4.025-.238-1.635-1.763-2.909-3.128-2.614-1.529.331-2.836 1.988-2.822 3.575M49.991 58.461c-.037-2.21-2.198-4.157-4.507-4.067-1.103.043-2.575 2.249-2.587 3.877-.013 1.724 2.041 3.66 3.819 3.596 1.632-.058 3.303-1.796 3.275-3.406m-5.13 11.356l-5.51-1.124c-.575-.41-1.094-1.021-1.73-1.19-2.128-.558-3.767-1.884-5.299-3.3-3.83-3.536-7.074-7.602-9.965-11.92-2.146-3.204-3.63-6.695-3.353-10.722.062-.89-.238-1.806-.37-2.71.335-1.334.647-2.675 1.01-4.001.99-3.607 3.383-6.356 5.642-9.193C30.833 18.69 38.523 14.94 46.44 11.52c2.305-.996 4.618-2.039 7.146-2.195 2.489-.154 4.995-.054 7.493-.042.782.004 1.566.085 2.349.13.438.274.841.65 1.317.806 4.82 1.585 8.862 4.218 11.578 8.606 1.38 2.23 2.634 4.536 4.013 6.765 1.145 1.852 2.056 3.784 2.51 5.918.177.828.341 1.66.51 2.49.21 2.135-.485 4.063-1.323 5.97-.277.632-.404 1.329-.6 1.996-1.33 2.034-1.95 4.334-2.844 6.72.527-.027.842.024.88-.055.996-2.14 2.16-4.222 2.362-6.643l2.313-.77c-.072.715-.138 1.43-.219 2.145-.142 1.261-.439 2.535.228 3.819.838-.81.838-.81.799-6.403l2.722-1.58c.3 1.192.562 2.395.924 3.568.094.303.505.508.77.758.097-.074.194-.147.293-.22l-1.129-4.846 3.5-2.442c.573 1.241.457 2.948 2.593 3.623l-1.73-4.401 2.235-2.784c1.551 1.164 2.967 2.21 4.361 3.282.534.41.69.925.293 1.553-2.352 3.716-4.48 7.597-8.167 10.269-1.539 1.114-2.99 2.357-4.414 3.615-.452.399-.695 1.037-1.035 1.565-.673.193-1.432.248-2.006.602-2.47 1.523-4.975 2.987-7.86 3.506-1.538.277-3.14.247-4.715.26-1.056.007-1.679.396-2.134 1.38-.94 2.032-1.984 4.031-3.836 5.425-2.428 1.828-5.003 3.361-7.912 4.364-3.023 1.044-6.07 1.695-9.278 1.552-1.187-.053-2.378-.008-3.567-.008" fill="#D3D3D3"/><path d="M79.896 82.304a49.833 49.833 0 0 1-.395-.161l-1.04 1.337-1.491-.319 1.282 2.8 3.172-.58-1.731-1.165.203-1.912m18.1-13.7c.595 1.78 1.153 3.574 1.795 5.338.86 2.364 1.17 4.794 1.075 7.292-.008.593 0 1.186-.024 1.778-.222 5.304-1.909 9.859-6.562 12.932-.438.288-.681.872-1.014 1.317-.501.107-1.099.073-1.487.342-3.724 2.577-7.923 3.79-12.334 4.443-.171.024-.318.215-.476.328-1.042.106-2.083.22-3.125.315-1.766.162-3.534.443-5.3.438-2.494-.006-4.99-.226-7.485-.355-3.015-.646-5.583-2.29-8.241-3.723-2.022-1.089-3.164-2.924-3.973-5.004-.262-.673-.555-1.334-.835-2.001-.131-1.702-.391-3.404-.369-5.105.046-3.685.27-7.368.359-11.055.06-2.54.074-2.623 2.438-3.234.19-.05.393-.05.587-.087 3.909-.76 7.605-2.072 10.999-4.192 2.916-1.822 5.734-3.745 7.881-6.51.31-.397.94-.674 1.462-.761 3.794-.636 7.188-2.116 10.08-4.667.602-.532 1.17-.592 1.78-.155a98.193 98.193 0 0 1 2.996 2.248c3.501 2.714 6.653 5.758 9.01 9.554.15.24.504.352.762.525" fill="#C7C7C7"/><g transform="translate(7 38.464)"><mask id="b" fill="#fff"><use xlink:href="#a"/></mask><path d="M11.634.387c.133.905.431 1.82.37 2.711-.277 4.026 1.207 7.517 3.353 10.722 2.891 4.317 6.134 8.383 9.965 11.92 1.533 1.416 3.172 2.742 5.3 3.3.635.167 1.155.78 1.728 1.19-2.788 4.806-6.988 7.943-12.411 8.504-4.938.513-9.207-1.63-12.534-5.524-2.38-2.786-3.815-5.969-4.734-9.443a733.49 733.49 0 0 1-2.312-8.976c-.985-3.929.025-7.17 3.422-9.515C6.005 3.742 8.267 2.264 10.53.786c.319-.208.733-.27 1.104-.4" fill="#C7C7C7" mask="url(#b)"/></g><path d="M83.356 33.998c-.17-.83-.333-1.662-.51-2.492-.454-2.134-1.366-4.066-2.51-5.917-1.38-2.229-2.633-4.536-4.013-6.765-2.716-4.389-6.757-7.02-11.578-8.606-.475-.156-.88-.532-1.318-.806.127-2.712.747-5.274 2.827-7.165.843-.767 1.94-1.446 3.034-1.717 6.523-1.615 11.792.52 15.975 5.632.166.203.26.479.454.645 3.6 3.103 4.989 7.365 6.148 11.738.7 2.64.971 5.385.565 8.045-.543 3.557-2.579 6.216-6.134 7.353-.894.287-1.956.051-2.94.055" fill="#C7C7C7"/><path d="M97.996 68.604c-.26-.172-.613-.285-.762-.525-2.358-3.795-5.51-6.838-9.01-9.553a96.642 96.642 0 0 0-2.996-2.247c-.612-.438-1.18-.377-1.782.154-2.892 2.55-6.285 4.031-10.079 4.667-.522.087-1.152.363-1.461.762-2.149 2.764-4.966 4.687-7.882 6.509-3.394 2.12-7.09 3.431-10.999 4.192-.194.038-.396.038-.587.087-2.364.612-2.378.695-2.439 3.235-.088 3.685-.311 7.369-.358 11.055-.022 1.7.237 3.402.37 5.104l-.397-.021c-.133-.567-.222-1.15-.411-1.698-.217-.628-.522-1.227-.8-1.864-.881.298-1.484.501-2.167.73-.084-.366-.144-.611-.194-.86-.309-1.51-.81-1.744-2.14-.955-.424.253-.806.58-.928.668-.815-.599-1.397-1.322-2.1-1.47-.937-.198-1.454.715-1.9 1.452-.095.155-.07.384-.098.579-.256-.06-.537-.072-.764-.188-1.38-.698-1.538-1.304-.726-2.642 1.327-2.19 2.774-4.316 3.947-6.584 1.538-2.973 2.817-6.075 3.527-9.375 1.19 0 2.38-.045 3.567.009 3.208.143 6.255-.508 9.277-1.552 2.91-1.003 5.485-2.536 7.914-4.364 1.852-1.394 2.895-3.393 3.836-5.426.454-.983 1.076-1.372 2.133-1.38 1.575-.012 3.177.018 4.716-.259 2.884-.52 5.39-1.983 7.86-3.506.573-.354 1.332-.409 2.006-.602 4.106 1.335 8.21 2.674 12.32 4 1.245.403 2.495.793 3.756 1.143.87.242 1.15.782.988 1.621-.68-.047-1.517-.683-1.98.101-.338.572-.24 1.4-.337 2.115-1.73-.069-1.84.127-1.481 2.66-1.725.086-2.134.67-1.548 2.26.156.428.402.823.607 1.232l-.498.736M63.06 102.772c2.495.13 4.99.349 7.484.355 1.767.005 3.534-.276 5.3-.438 1.042-.095 2.084-.209 3.125-.315 1.259 3.92 1.5 7.996 1.879 12.056.089.957-.234 1.526-1.12 1.799-.502.155-1.014.276-1.52.413-.003-.198.004-.396-.006-.592-.063-1.156-.563-2.032-1.7-2.404-1.046-.343-1.76.32-2.399.982-.557.58-1.02 1.248-1.546 1.9-.905-1.667-1.545-2.248-2.476-1.768-.906.465-1.57 1.403-2.34 2.134l-2.218-2.261c-1.435 1.001-2.146 2.1-2.011 3.642-1.67-.092-3.247-.453-4.605-1.507-1.016-.789-1.163-1.043-.492-2.117 1.762-2.821 2.804-5.932 3.833-9.053.307-.93.543-1.883.812-2.826m30.206-5.511c.333-.446.576-1.03 1.014-1.317 4.653-3.074 6.34-7.627 6.562-12.932.026-.592.016-1.185.024-1.778l8.73 2.282c.252.065.51.124.767.164 2.086.312 2.55 1.173 1.767 3.174-.254.647-.375 1.344-.556 2.018-.328 0-.657-.014-.985.002-1.597.076-1.863.31-1.779 1.867.041.766.294 1.521.47 2.382-.367.039-.745.109-1.123.113-.827.007-1.508.412-1.615 1.157-.077.54.325 1.17.584 1.727.24.516.573.988.865 1.48-.445-.24-.928-.43-1.324-.73-.828-.627-1.771-.708-2.546-.188-.784.524-1.078 1.429-.73 2.429.235.67.417 1.361.623 2.043-1.613 1.572-3.376 1.461-5.277.56-2.197-1.044-3.939-2.612-5.471-4.453" fill="#B8B8B8"/><path d="M63.512 118.275c-.135-1.542.575-2.64 2.011-3.642l2.218 2.261c.77-.73 1.434-1.668 2.34-2.134.932-.48 1.57.1 2.477 1.769.524-.654.988-1.321 1.546-1.9.638-.663 1.351-1.326 2.398-.983 1.137.372 1.636 1.248 1.7 2.404.01.197.004.394.006.592-2.402 1.365-5.142 1.498-7.746 2.124-2.362.568-4.683.376-6.95-.49M38.875 88.605c.03-.195.003-.424.098-.58.446-.736.964-1.65 1.902-1.45.703.147 1.284.87 2.099 1.47.122-.089.503-.416.93-.67 1.327-.788 1.828-.554 2.137.956.05.249.112.494.194.86a786.14 786.14 0 0 0 2.168-.73c.278.637.584 1.236.8 1.864.189.549.278 1.13.411 1.698-3.928-.045-7.493-1.233-10.739-3.418m69.116 8.995c-.291-.491-.625-.964-.865-1.48-.259-.556-.66-1.187-.584-1.726.106-.746.788-1.15 1.615-1.158.378-.004.755-.074 1.124-.113-.177-.86-.43-1.616-.47-2.382-.085-1.558.18-1.791 1.779-1.867.327-.015.656-.002.985-.002-.466 3.208-1.4 6.224-3.584 8.728m-9.497-29.732c-.205-.41-.45-.803-.607-1.23-.586-1.592-.177-2.176 1.547-2.263-.358-2.532-.248-2.728 1.482-2.659.097-.715 0-1.543.336-2.114.464-.785 1.302-.149 1.981-.102-1.313 2.941-2.357 6.033-4.74 8.368" fill="#C7C7C7"/><path d="M104.013 101.154c-.205-.682-.387-1.373-.62-2.044-.35-1-.056-1.904.727-2.429.776-.518 1.719-.438 2.546.189.398.3.88.49 1.326.73-1.093 1.446-2.257 2.812-3.979 3.554" fill="#C7C7C7"/><path d="M81.831 41.985c-.203 2.42-1.366 4.505-2.363 6.643-.036.079-.353.028-.879.055.893-2.386 1.514-4.686 2.844-6.72l.398.022m3.12-1.209c.04 5.592.04 5.592-.798 6.403-.667-1.283-.37-2.557-.228-3.82.082-.713.147-1.429.22-2.144l.806-.44m7.944-5.539l1.73 4.4c-2.137-.673-2.02-2.38-2.594-3.622l.864-.778m-4.362 3.22l1.127 4.846-.292.22c-.266-.25-.676-.455-.77-.758-.363-1.172-.624-2.376-.925-3.568l.86-.74" fill="#B8B8B8"/><path d="M49.991 58.46c.028 1.611-1.643 3.35-3.275 3.407-1.778.063-3.832-1.872-3.82-3.596.013-1.628 1.485-3.834 2.588-3.877 2.31-.09 4.469 1.858 4.507 4.067m18.277-19.149c-.014-1.587 1.293-3.243 2.822-3.574 1.365-.296 2.89.978 3.128 2.614.254 1.73-1.093 3.66-2.805 4.024-1.818.386-3.125-.887-3.145-3.064" fill="#E0B0B0"/><path d="M41.449 50.66c.001-.868.81-1.685 1.645-1.664.844.02 1.647.99 1.566 1.971-.062.77-.354 1.455-1.233 1.576-.838.116-1.98-1.013-1.978-1.882M68.39 33.507c.022.977-.468 1.529-1.36 1.529-.984 0-1.832-.73-1.88-1.623-.046-.85.691-1.64 1.563-1.676.93-.039 1.655.726 1.678 1.77" fill="#464036"/><path d="M56.81 23.59c-1.468 1.345-4.482 1.427-6.96.191 1.201-.5 4.775-.598 6.96-.192m-20.124 8.266l6.983.366c-1.454 1.657-4.728 1.528-6.983-.366M49.68 28.15c-1.757.661-3.563.355-5.627.333 1.119-.863 3.58-.987 5.628-.334" fill="#B8B8B8"/><path d="M79.896 82.304l-.203 1.912 1.73 1.165-3.171.58-1.282-2.8 1.49.319 1.04-1.337.396.161" fill="#787878"/></g></svg>