<svg width="120" height="120" viewBox="0 0 120 120" xmlns="http://www.w3.org/2000/svg"><g fill="none" fill-rule="evenodd"><path fill="#952702" d="M105.146 21l-6.115 6.355v7.316h1.78v-6.06h3.446v6.06h1.778v-6.06h3.447v6.06h1.779v-7.316z"/><path fill="#C63604" d="M94.182 31.294l.074 3.118v17.255l-2.86 8.454h28.302l-2.86-8.454V31.33h-1.945v2.157h-1.013V31.33h-1.945v2.157h-1.014V31.33h-1.945v2.157h-1.013V31.33h-1.946v2.157h-1.013V31.33h-1.945v2.157h-1.014V31.33H100.1v2.157h-1.014V31.33h-1.945v2.157h-1.014v-2.194z"/><path fill="#952702" d="M96.881 42.282h2.15V37.7h-2.15zm7.555 0h2.15V37.7h-2.15zm8.011 0h2.15V37.7h-2.15zm-18.191 9.385h22.583v-.591H94.256z"/><path fill="#D6613D" d="M100.15 61.11L79.512 91.344l-6.754-17.748 27.433-36.807zM69.179 75.806v-1.583h-2.207v1.583H65.94v-1.583h-2.207v1.583H62.7v-1.583h-2.207v1.583H59.46v-1.583h-2.207v1.583H56.22v-1.583h-2.207v1.583H52.98v-1.583h-2.207v1.583H49.74v-1.583h-2.207v1.583H46.5v-1.583h-2.207v1.583H43.26v-1.583h-2.207v1.583H40.02v-1.583h-2.207v1.583H36.78v-1.583h-2.207v1.583h-1.032v-1.583h-2.208v1.583h-1.032v-1.583h-2.207v1.583H27.06v-1.583h-2.207v1.583h-1.115v20.01H71.14v-20.01z"/><path fill="#EDB0A0" d="M74.66 73.596l25.409-35.71h11.696L86.489 74.6z"/><path fill="#D6613D" d="M111.765 37.886l1.504 20.786L91.13 93.91l-6.386-16.625 26.5-39.29z"/><path fill="#952702" d="M13.147 60L7.3 66.077v6.995H9v-5.794h3.296v5.794h1.701v-5.794h3.296v5.794h1.701v-6.995z"/><path fill="#C63604" d="M2.664 69.843l.07 2.982v16.498L0 97.408h27.06l-2.734-8.085V69.879h-1.86v2.062h-.969v-2.062h-1.86v2.062h-.969v-2.062h-1.86v2.062h-.97v-2.062H13.98v2.062h-.97v-2.062h-1.859v2.062h-.97v-2.062h-1.86v2.062h-.968v-2.062h-1.86v2.062h-.97v-2.098z"/><path fill="#952702" d="M5.245 80.35H7.3v-4.382H5.245zm7.223 0h2.055v-4.382h-2.055zm7.66 0h2.055v-4.382h-2.055zM2.734 89.323h21.593v-.565H2.734z"/><path fill="#D6613D" d="M91.381 69.633l-1.619 2.578-2.188-1.365 1.62-2.578zm2.483-3.955l-1.619 2.578-2.188-1.365 1.619-2.578zm2.483-3.955l-1.62 2.579-2.187-1.366 1.619-2.578zm2.483-3.954l-1.62 2.578-2.187-1.365 1.619-2.579zm2.482-3.955l-1.618 2.578-2.188-1.365 1.619-2.578zm2.483-3.955l-1.619 2.578-2.187-1.365 1.618-2.578zm2.483-3.955l-1.619 2.578-2.188-1.365 1.62-2.578zm2.482-3.954l-1.618 2.578-2.188-1.365 1.62-2.579zm2.484-3.955l-1.62 2.578-2.187-1.365 1.619-2.579zM77.38 69.178l-1.755 2.487-2.11-1.481 1.755-2.487zm2.695-3.816l-1.757 2.488-2.11-1.482 1.756-2.486zm2.693-3.815l-1.756 2.488-2.11-1.482 1.756-2.486zm2.694-3.814l-1.756 2.487-2.11-1.482 1.756-2.487zm2.694-3.816L86.4 56.404l-2.11-1.48 1.755-2.488zm2.694-3.815l-1.756 2.487-2.11-1.48 1.755-2.488zm2.693-3.815l-1.756 2.487-2.11-1.48 1.756-2.488zm2.694-3.815l-1.756 2.487-2.11-1.48 1.756-2.488zm2.693-3.815l-1.755 2.487-2.11-1.481 1.755-2.487z"/><path fill="#952702" d="M79.376 60.364L73.51 66.46v7.018h1.706v-5.813h3.306v5.813h1.707v-5.813h3.306v5.813h1.706V66.46z"/><path fill="#C63604" d="M68.858 70.24l.07 2.99v16.553l-2.743 8.11h27.15l-2.743-8.11V70.274h-1.865v2.07h-.973v-2.07h-1.866v2.07h-.972v-2.07H83.05v2.07h-.972v-2.07H80.21v2.07h-.972v-2.07h-1.866v2.07H76.4v-2.07h-1.865v2.07h-.973v-2.07h-1.865v2.07h-.973V70.24z"/><path fill="#952702" d="M71.448 80.78h2.062v-4.395h-2.062zm7.246 0h2.062v-4.395h-2.062zm7.686 0h2.061v-4.395H86.38zm-17.452 9.003h21.664v-.567H68.928z"/></g></svg>