<svg width="120" height="120" viewBox="0 0 120 120" xmlns="http://www.w3.org/2000/svg" xmlns:xlink="http://www.w3.org/1999/xlink"><defs><path id="a" d="M0 .613h119.611v30.528H0z"/><path d="M29.255 7.446c-.135.558-.396 1.116-.345 1.689-.44.912-.064 1.598.394 2.347.417.686.532 1.537.628 2.346.1.85-.01 1.719-.357 2.566-.39.95-1.843 2.517-2.937 1.862-.743-.446-1.002-1.75-1.313-2.518-.363-.896-.763-1.798-1.435-2.5a1.824 1.824 0 0 0-1.717-.564c-.372.066-.638.325-.874.602-.538.651-.586 1.364-1.293 1.98-2.267 1.971-4.823-2.813-5.98-3.884-.619-.573-1.482-1.045-2.433-1.01-1.43.06-2.627 1.333-3.992 1.309-1.274-.02-1.862-1.53-2.007-2.525-.11-.756-.03-1.56.013-2.338.062-1.188.32-2.919-.89-3.563-.517-.274-4.11-.323-3.47-1.308.888-.322 1.832-.298 2.785-.1.693.252 1.362.574 2.065.869 1.296.542 2.56.584 3.942.24 1.65-.408 2.52-1.98 4.245-2.285 3.188-.563 5.93-1.044 8.705.07 1.795.72 3.196 1.82 5.114 4.397" id="c"/><path d="M34.808 1.248c-.18.47-.555.91-1.193 1.298-1.176.71-2.557.704-3.883.81-1.921.146-3.09 1.157-3.32 3.115-.115 1.002-.133 1.757-.896 2.511-.579.57-1.532.625-2.288.673-1.154.076-2.273.225-3.35.654-2.027.801-2.61 2.797-2.48 4.798.093 1.435.732 2.856.09 4.247-.791 1.702-3.101 2.066-4.71 1.583-.479-.146-.9-.36-1.277-.63-1.013-.946-1.83-2.145-2.421-3.39-.878-1.85-1.766-5.657-4.31-5.704-1.417-.025-3.395.815-3.85-1.191-.375-1.654.744-3.63 1.652-4.914C3.651 3.582 5.2 2.411 6.847 1.56a5.833 5.833 0 0 1 1.56-.557c1.366-.074 2.64.349 4 .558 1.433.222 2.786.014 4.172-.366 1.503-.413 2.948-.916 4.528-.95 1.832-.044 3.652.816 5.447 1.112 1.062.173 2.205.085 3.338-.187.063-.01.125-.024.19-.036 1.158-.25 3.16-1.256 4.31-.724" id="e"/><path d="M40.408 17.312c-.469.364-1.123.572-2.006.561-1.627-.02-3.01-.887-4.403-1.61-2.026-1.053-3.837-.77-5.294 1.056-.743.93-1.235 1.678-2.473 1.96-.94.21-1.93-.328-2.72-.753-1.21-.644-2.422-1.192-3.78-1.44-2.534-.46-4.373 1.183-5.496 3.275-.803 1.496-1.053 3.324-2.57 4.32-1.856 1.22-4.41.14-5.723-1.35a5.052 5.052 0 0 1-.886-1.431c-.428-1.581-.497-3.301-.312-4.921.277-2.407 1.769-6.785-.758-8.423C2.582 7.643.067 7.251.869 4.951c.66-1.896 3.02-3.179 4.74-3.901C7.648.186 9.94-.02 12.13.154a7.127 7.127 0 0 1 1.916.416c1.416.78 2.433 2.002 3.664 3.06 1.303 1.116 2.793 1.756 4.423 2.24 1.77.526 3.536.925 5.144 1.874 1.87 1.103 3.158 3.102 4.776 4.521.956.841 2.165 1.464 3.47 1.9.073.027.142.056.214.08 1.319.477 3.957.715 4.783 1.969" id="g"/><path d="M34.817 1.096c-.004.596-.242 1.237-.798 1.925-1.02 1.27-2.555 1.822-3.983 2.471-2.08.946-2.973 2.542-2.431 4.813.276 1.155.563 2.006.022 3.156-.414.87-1.451 1.315-2.27 1.677-1.253.55-2.437 1.165-3.465 2.078-1.926 1.71-1.764 4.17-.804 6.344.683 1.554 1.971 2.875 1.82 4.685-.183 2.21-2.609 3.55-4.595 3.664a5.162 5.162 0 0 1-1.672-.181c-1.511-.64-2.908-1.646-4.071-2.788-1.73-1.703-4.26-5.574-7.107-4.599-1.587.545-3.448 2.278-4.766.231-1.087-1.687-.645-4.334-.159-6.13.58-2.137 1.828-4.067 3.315-5.682a6.953 6.953 0 0 1 1.51-1.25c1.487-.633 3.076-.68 4.67-.995 1.686-.336 3.106-1.112 4.494-2.097 1.508-1.068 2.91-2.21 4.648-2.893 2.021-.79 4.39-.57 6.509-.969C26.938 4.324 28.17 3.76 29.32 3c.067-.04.131-.075.197-.119 1.185-.744 3.003-2.674 4.5-2.547" id="i"/><path id="k" d="M1.108 1.165h12.116v15.878H1.108z"/><path d="M23.92 25.252c-.49.445-1.102.81-1.43 1.403-1.012.58-1.108 1.498-1.175 2.536-.062.949-.509 1.85-.951 2.698a5.978 5.978 0 0 1-2.021 2.238c-.99.655-3.376 1.186-3.967-.19-.4-.937.213-2.374.429-3.329.248-1.115.465-2.256.3-3.397-.105-.743-.497-1.355-1.233-1.71-.394-.188-.811-.121-1.205-.009-.937.263-1.45.922-2.514 1.038-3.412.367-2.656-5.997-3.038-7.82-.201-.976-.696-2.02-1.606-2.63-1.378-.913-3.33-.496-4.588-1.445C-.259 13.75.19 11.89.704 10.83c.392-.805.998-1.532 1.547-2.252.84-1.11 2.22-2.61 1.509-4.057C3.463 3.902.135 1.414 1.382.898c1.037.29 1.905.954 2.665 1.793.48.71.896 1.484 1.36 2.247.854 1.404 2.003 2.3 3.523 2.911 1.81.724 3.654-.208 5.465.666 3.347 1.617 6.227 3.018 8.086 5.982 1.201 1.915 1.79 3.93 1.889 7.727" id="m"/><path d="M73.388 7.527c.184 2.51-2.268 19.378-2.276 19.502-7.337-.77-60.47-8.612-63.534-8.96L.281 1.139c4.07.042 7.087 4.035 7.087 4.035 3.74-3.94 8.927-.408 8.927-.408C21.099.82 26.06 6.19 26.06 6.19c4.803-4.464 11.66 1.564 11.66 1.564 5.472-3.634 9.404.179 9.404.179 8.285-4.875 12.645 2.313 12.645 2.313" id="o"/></defs><g fill="none" fill-rule="evenodd"><g transform="translate(0 49.046)"><mask id="b" fill="#fff"><use xlink:href="#a"/></mask><path d="M2.8 15.992L0 13.724s1.6-4.127 29.896-9.597c28.302-5.463 58.334-3.063 65.142-2.53 6.808.533 25.18 1.209 24.558 5.997-.617 4.79-11.21 11.198-11.21 11.198s-36.309 14.266-46.05 12.132C52.59 28.788 13.481 25.192 2.8 15.992" fill="#CA000C" mask="url(#b)"/></g><path d="M39.256 39.11c-.878-.455-1.702-1.031-2.53-1.56-.639-.418-3.256-1.603-3.286-2.398-.07-1.654-.108-2.661-2.078-2.866-1.542-.155-1.693 2.151-1.734 3.06-.02.394-2.634.917-3.045 1.629-.655 1.131-.386 2.315.937 2.768.801.27 1.397.344 2.234.138 1.46-.362 2.017-.615 3.446.124 1.746.904 3.928 2.542 5.921 2.79.16.02.262-.08.29-.21a.629.629 0 0 0 .408-.489c.281-1.272.775-2.292-.563-2.986" fill="#FFE8C8"/><path d="M36.726 37.55a8.188 8.188 0 0 0-.553-.318c-.162.275-.326.55-.508.815-.181.274-.552.999-.957 1.044-1.232.136-1.98-1.394-3.22-1.114-1.007.227-3.77 1.57-4.139-.089-.525-2.336 4.93-1.088 3.559-3.521-.307-.546-.663-1.32-.118-1.886.066-.069.136-.119.2-.17-1.191.22-1.325 2.206-1.362 3.035-.02.394-2.634.918-3.045 1.629-.655 1.131-.387 2.315.937 2.768.8.27 1.397.344 2.234.138 1.46-.362 2.017-.615 3.446.123 1.747.905 3.928 2.543 5.921 2.79.16.02.262-.08.291-.209a.629.629 0 0 0 .407-.489c.281-1.272.774-2.292-.563-2.986-.878-.455-1.702-1.031-2.53-1.56" fill="#FFCDA4"/><path d="M68.086 40.97c-3.187-4.142-7.53-7.111-13.05-6.455-3.01.357-6.066 1.716-9.094 1.58-2.695-.127-4.617-.592-7.22.523-5.504 2.359-1.539 9.053.107 12.416 1.398 2.852 1.42 5.973 2.66 8.83 1.09 2.502 3.498 4.517 5.934 5.662 2.673 1.257 6.525 1.661 9.9.924a12.55 12.55 0 0 0 1.07-.152c1.394-.252 2.45-1.245 3.763-1.79 1.472-.616 2.821-1.324 4.223-2.087 2.003-1.088 3.296-3.628 3.68-5.744.28-1.574-.172-3.204.174-4.75.235-1.043.666-1.82.712-2.918.094-2.288-1.56-4.35-2.859-6.04" fill="#FF9505"/><path d="M40.804 40.912c-.74.196-1.529.296-2.136-.23-.167-.147-.425.084-.265.25.68.699 1.65.722 2.541.365.226-.092.087-.445-.14-.385m20.036-3.023c-1.758-1.569-3.63-1.968-5.987-1.608-.153.022-.138.28.018.268 1.035-.098 1.999-.119 3 .132 1.022.255 1.884.922 2.705 1.525.185.136.432-.166.263-.317m2.651 3.408c-.169-.13-.408.161-.244.3.438.38.756.77.94 1.326.158.486-.093.995-.306 1.433-.126.258.23.488.384.226.314-.518.51-1.015.417-1.617-.11-.704-.66-1.247-1.191-1.668m-9.91-.619c-.226-.063-.334.28-.112.35 1.584.503 2.369 1.894 3.143 3.229.138.232.472.036.378-.205-.6-1.518-1.76-2.928-3.408-3.374m.564 6.817c-.21-.02-.273.327-.067.358 1.796.278 2.789 2.429 2.69 4.046-.019.311.442.307.484.008.268-1.85-1.092-4.226-3.107-4.412m-11.774-2.501c-.39 1.414.841 2.873 1.761 3.776.214.21.548-.11.348-.331-.756-.846-1.936-2.128-1.703-3.385.041-.232-.345-.283-.406-.06M49.54 56.17c-1.248.392-2.282.42-3.295-.464-.902-.787-1.326-1.965-1.503-3.106-.029-.189-.35-.156-.343.037.03.79.081 1.136.418 1.888.303.667.763 1.369 1.361 1.814 1.078.805 2.27.793 3.502.224.227-.102.095-.466-.14-.393m9.887-.02c-.436.87-.847 1.719-1.556 2.413-1.126 1.094-2.845.79-4.062.198-.167-.084-.33.16-.164.252 1.022.562 2.354.975 3.529.483 1.42-.6 2.126-1.811 2.596-3.2.072-.2-.245-.349-.343-.146M47.791 38.103c-1.5.529-2.874.583-4.262-.165-.242-.132-.472.229-.235.37 1.412.83 3.128 1.037 4.649.215.225-.125.1-.509-.152-.42m16.231 11.061c-.135-.107-.334.067-.208.194 1.721 1.744 2.016 3.635 1.182 5.962-.07.184.213.306.312.132 1.276-2.222.57-4.775-1.286-6.288m-15.324-2.097c.03.473.001.845.177 1.3.193.499.566.919.846 1.368.126.21.463.033.348-.189-.198-.381-.43-.74-.641-1.111-.266-.459-.302-.905-.432-1.4-.043-.152-.311-.143-.298.032" fill="#F6760C"/><g transform="translate(37.576 35.73)"><mask id="d" fill="#fff"><use xlink:href="#c"/></mask><path d="M29.255 7.446c.24-.985-.603-1.582-1.152-2.318C26.185 2.55 24.784 1.45 22.989.73 20.215-.384 17.472.097 14.284.66c-1.725.305-2.594 1.877-4.245 2.285-1.382.344-2.646.302-3.942-.24-.703-.295-1.372-.617-2.065-.87-.953-.197-1.897-.221-2.785.1-.64.986 2.953 1.035 3.47 1.31 1.21.643.952 2.374.89 3.562-.042.777-.122 1.582-.013 2.338.145.995.733 2.505 2.007 2.525 1.365.024 2.561-1.25 3.992-1.309.951-.035 1.814.437 2.434 1.01 1.156 1.071 3.712 5.855 5.98 3.884.706-.616.754-1.329 1.292-1.98.236-.277.502-.536.874-.602.7-.124 1.28.103 1.717.563.672.703 1.072 1.605 1.435 2.501.311.768.57 2.072 1.313 2.518 1.094.655 2.546-.912 2.937-1.862a5.128 5.128 0 0 0 .357-2.566c-.096-.809-.21-1.66-.628-2.346-.458-.75-.835-1.435-.394-2.347-.05-.573.21-1.131.345-1.69" mask="url(#d)"/></g><path d="M112.314 35.644a5.516 5.516 0 0 0-1.505-.962c-1.089-.488-1.013-.698-1.393-1.717-.35-.932-1.745-1.39-2.62-1.053-.546.213-.781.934-.981 1.405-.508 1.201-.776 2.44-1.98 3.186-1.96 1.22-3.967 2.486-5.985 3.581-.151.085-.151.264-.071.394-.053.245-.03.504-.048.78-.026.434.032.91.324 1.257.149.173.416.299.65.254 1.069.237 2.44-.759 3.379-1.139 2.352-.953 4.72-3.181 7.405-2.644.967.194 2.387.614 3.153-.323.718-.88.515-2.276-.328-3.02" fill="#FFE8C8"/><path d="M112.314 35.644a5.516 5.516 0 0 0-1.505-.962c-1.089-.488-1.013-.698-1.393-1.717-.159-.424-.537-.742-.978-.937.092.102.18.217.253.337.538.87-.768 1.942.881 2.524.84.297 2.785 1.02 2.27 2.3-.582 1.441-1.936.909-3.147.67-.735-.143-1.427-.022-2.095.213-.82.511-1.7.958-2.535 1.222-1.06.33-1.877-1.039-2.051-1.658-1.234.758-2.91 1.769-4.164 2.448-.151.085-.151.264-.071.394-.053.245-.03.504-.048.78-.026.434.032.91.324 1.257.149.173.416.299.65.254 1.069.237 2.44-.759 3.379-1.139 2.352-.953 4.72-3.181 7.405-2.644.967.194 2.387.614 3.153-.323.718-.88.515-2.276-.328-3.02" fill="#FFCDA4"/><path d="M103.664 42.604c-.09-1.487-1.335-2.885-2.025-4.126-.747-1.348-1.738-1.545-2.818-1.333-1.706-.022-3.805.703-5.039.91-1.71.287-3.402.28-5.04-.272-1.115-.378-2.151-.316-3.292-.174-1.167.146-2.246.362-3.355.749-1.951.685-4.155-.46-6.111-.753-4.651-.697-8.766 3.61-9.908 7.78-1.063 3.892-3.606 7.103-.203 10.523 1.505 1.51.866 3.879 2.336 5.424 1.436 1.51 3.784 1.626 5.632 2.372 2.475.994 4.443 3.181 7.29 2.985 1.541-.103 3.004-.706 4.547-.766 1.683-.064 3.198.864 4.9.499 2.558-.55 3.914-3.269 4.848-5.448.575-1.339.81-2.853 1.255-4.232.43-1.325 1.694-2.39 2.387-3.598a9.568 9.568 0 0 0 1.22-3.573c.157-1.221-.378-4.209 1.077-4.901.779-.37 2.369-.969 2.299-2.066" fill="#FF8105"/><path d="M75.274 46.85c-.162-.414-.301-.813-.236-1.26.08-.523.496-.88.781-1.29.313-.444-.288-.942-.655-.534-.533.597-1.002 1.003-1.174 1.826-.135.656.184 1.283.653 1.713.303.28.771-.095.63-.455m13.478-5.077c-.682-.663-1.527-1.027-2.49-.932-.847.087-1.364.43-1.907 1.078-.209.247.14.635.389.419.533-.463.943-.559 1.614-.654.685-.098 1.432.422 2.02.698.388.18.652-.337.374-.609m-4.143 7.245c-1.148-.026-3.007-.202-3.262-1.59-.069-.382-.637-.327-.6.067.168 1.876 2.295 2.317 3.853 2.135.339-.037.37-.605.01-.612m1.759 4.892c-.766.124-1.557.169-2.237-.267-.285-.181-.63.22-.34.413.862.587 1.716.572 2.682.27.231-.076.137-.457-.105-.417m9.245-4.391c-.426.702-.903 1.79-1.734 2.08-.4.137-.158.7.232.595 1.07-.278 1.717-1.466 2.154-2.388.203-.425-.42-.665-.652-.287m-24.564 1.369c-.332-.332-.755-.514-1.108-.819-.396-.345-.22-1.105-.129-1.552.09-.443-.59-.63-.76-.219-.288.698-.524 1.528-.111 2.228.388.658 1.058.943 1.764 1.139.464.126.613-.509.344-.777m4.361 7.109c-1.808.317-3.54-.78-3.11-2.749.094-.427-.608-.635-.746-.214-.374 1.134-.258 2.19.61 3.07.926.939 2.226 1.244 3.473.823.518-.177.317-1.023-.226-.93m7.821.323c-.926.103-1.794.143-2.593-.419-.805-.563-1.486-2.088-1.182-3.029.137-.426-.487-.72-.65-.285-1.01 2.616 2.003 5.647 4.59 4.402.347-.164.246-.715-.165-.67m6.409 4.072c-.698.613-1.442 1.136-2.41.823-.71-.228-1.546-1-1.797-1.696-.096-.265-.543-.164-.49.124.19 1.041 1.037 1.867 1.945 2.348 1.231.655 2.493-.071 3.322-.992.317-.353-.216-.922-.57-.607m5.325-17.701c-.897 1.284-1.889 2.456-3.363 3.08-.36.158-.147.715.225.572 1.669-.64 2.766-1.82 3.655-3.333.177-.3-.32-.6-.517-.32m3.752-5.723c-.668.262-1.41.333-2.096.54-.733.221-1.355.613-1.955 1.072-.356.275.026.771.4.556.646-.38 1.329-.734 2.037-.983.6-.212 1.25-.349 1.824-.64.33-.168.149-.688-.21-.545m-20.431.709c-.863-.352-1.606-.637-2.548-.604-.909.032-1.709.427-2.446.93-.334.227-.034.742.33.61.64-.236 1.295-.463 1.962-.586.868-.159 1.677.111 2.517.285.374.08.53-.491.185-.635" fill="#F5720B"/><g transform="translate(65.455 38.152)"><mask id="f" fill="#fff"><use xlink:href="#e"/></mask><path d="M34.808 1.248c.02-.351-.073-.678-.416-.839-1.15-.532-3.152.473-4.31.724l-.19.036c-1.133.272-2.276.36-3.338.187C24.759 1.06 22.939.2 21.107.243c-1.58.035-3.025.538-4.528.95-1.386.38-2.739.589-4.173.367-1.36-.21-2.633-.632-3.999-.558a5.833 5.833 0 0 0-1.56.557C5.2 2.411 3.651 3.582 2.572 5.11 1.664 6.392.545 8.368.92 10.021c.455 2.006 2.433 1.166 3.85 1.191 2.544.047 3.432 3.853 4.31 5.704.59 1.245 1.408 2.444 2.42 3.39.379.27.8.484 1.278.63 1.609.483 3.919.119 4.71-1.583.642-1.391.003-2.812-.09-4.247-.13-2 .453-3.997 2.48-4.798 1.077-.429 2.196-.578 3.35-.654.756-.048 1.709-.103 2.288-.673.763-.754.781-1.51.896-2.51.23-1.96 1.399-2.97 3.32-3.116 1.326-.106 2.707-.1 3.883-.81.638-.388 1.013-.828 1.193-1.298" mask="url(#f)"/></g><path d="M105.784 67.361a6.603 6.603 0 0 0-.907-1.909c-.79-1.17-.582-1.331-.33-2.596.236-1.155-.877-2.483-1.97-2.693-.68-.13-1.37.448-1.866.797-1.264.893-2.308 1.967-3.985 1.963-2.734-.002-5.542.023-8.256-.139-.207-.013-.319.167-.319.349-.207.213-.347.491-.536.753-.302.421-.535.937-.46 1.466.037.27.228.561.494.664.925.905 2.924.764 4.103.965 2.961.512 6.74-.246 9.1 1.97.85.8 2.01 2.11 3.37 1.645 1.276-.432 1.942-1.96 1.562-3.235" fill="#FFE8C8"/><path d="M105.784 67.361a6.603 6.603 0 0 0-.907-1.909c-.79-1.17-.582-1.331-.33-2.596.107-.525-.072-1.079-.391-1.555.03.164.041.334.041.498-.002 1.214-1.989 1.473-.693 3.09.66.821 2.157 2.766.84 3.725-1.491 1.087-2.52-.295-3.586-1.29-.648-.603-1.422-.914-2.236-1.093-1.146 0-2.306-.105-3.315-.359-1.27-.328-1.235-2.216-1.02-2.949-1.718-.008-4.034-.04-5.717-.139-.207-.013-.319.167-.319.349-.207.213-.347.491-.536.753-.302.421-.535.937-.46 1.466.037.27.228.561.494.664.925.905 2.924.764 4.103.965 2.961.512 6.74-.246 9.1 1.97.85.8 2.01 2.11 3.37 1.645 1.276-.432 1.942-1.96 1.562-3.235" fill="#FFCDA4"/><path d="M92.73 68.949c.84-1.552.469-3.736.557-5.415.089-1.82-.782-2.634-1.999-3.096-1.704-1.091-4.269-1.676-5.635-2.236-1.897-.779-3.594-1.845-4.89-3.422-.888-1.077-1.962-1.665-3.2-2.235-1.262-.58-2.483-1.041-3.843-1.343-2.387-.536-3.885-3.057-5.664-4.575-4.239-3.608-11.072-1.855-14.832 1.623-3.505 3.247-8.076 4.886-6.795 10.448.564 2.459-1.56 4.434-1.052 6.907.496 2.412 2.783 4 4.172 5.902 1.86 2.545 2.47 5.974 5.452 7.556 1.615.857 3.46 1.17 5.05 2.075 1.73.981 2.669 2.864 4.612 3.56 2.916 1.047 5.978-.837 8.284-2.444 1.414-.987 2.597-2.358 3.909-3.466 1.264-1.062 3.2-1.343 4.656-2.122a11.39 11.39 0 0 0 3.465-2.832c.924-1.128 2.256-4.462 4.15-4.249 1.014.117 2.985.508 3.604-.636" fill="#F16E04"/><path d="M61.547 55.469c.097-.512.206-1.001.554-1.41.407-.478 1.044-.574 1.592-.808.591-.25.301-1.13-.323-.943-.91.263-1.636.376-2.322 1.098-.548.574-.62 1.402-.417 2.128.13.47.833.385.916-.065m16.72 3.326c-.273-1.098-.89-1.989-1.915-2.492-.907-.445-1.644-.425-2.594-.112-.362.118-.254.727.136.664.82-.131 1.29.029 2.026.35.753.329 1.174 1.32 1.594 1.968.276.421.863.068.753-.378m-8.695 4.687c-1.14-.743-2.901-2.084-2.282-3.637.165-.425-.438-.725-.65-.308-1.008 1.994.856 3.766 2.533 4.554.365.172.753-.38.399-.609m-1.299 6.015c-.852-.356-1.671-.802-2.08-1.67-.173-.359-.768-.171-.602.207.495 1.13 1.366 1.644 2.526 1.943.279.071.42-.367.156-.48m12.038 1.367c-.869.437-2.029 1.232-3.04 1.003-.492-.11-.598.603-.144.745 1.25.389 2.641-.402 3.66-1.053.467-.302-.008-.931-.476-.695m-25.537-13.98c-.127-.539-.438-.984-.6-1.513-.183-.595.472-1.247.841-1.64.37-.388-.195-1.002-.626-.694-.724.52-1.483 1.205-1.506 2.165-.022.906.472 1.614 1.06 2.248.386.423.933-.126.831-.566m-.074 9.873c-2.014-.815-3.068-2.997-1.4-4.709.36-.37-.213-1.018-.614-.68-1.09.905-1.634 2.037-1.314 3.463.343 1.525 1.458 2.644 2.977 2.997.63.152.96-.829.352-1.07m7.656 5.208c-.995-.477-1.891-.977-2.344-2.043-.456-1.064-.183-3.023.71-3.78.406-.34-.033-1.027-.473-.696-2.656 2-1.525 6.929 1.851 7.297.453.05.7-.565.256-.778m3.888 8.096c-1.082.18-2.16.24-2.938-.679-.568-.674-.927-1.97-.742-2.825.072-.328-.44-.506-.566-.184-.464 1.163-.13 2.525.48 3.572.828 1.43 2.55 1.489 3.96 1.079.537-.153.365-1.055-.194-.963m16.442-14.455c-1.705.731-3.434 1.285-5.309.992-.462-.07-.599.624-.136.713 2.08.401 3.924-.101 5.765-1.062.365-.19.056-.803-.32-.643m7.356-3.408c-.833-.154-1.628-.545-2.448-.767-.87-.234-1.741-.228-2.631-.144-.529.051-.457.792.053.807.885.025 1.794.095 2.658.285.743.165 1.48.434 2.238.498.438.037.577-.598.13-.68M69.07 50.143c-.642-.89-1.215-1.64-2.18-2.196-.934-.537-1.986-.639-3.04-.598-.477.022-.502.724-.05.82.788.162 1.59.345 2.339.639.97.38 1.616 1.158 2.35 1.86.324.31.843-.163.582-.525" fill="#E35709"/><g transform="translate(50.91 45.415)"><mask id="h" fill="#fff"><use xlink:href="#g"/></mask><path d="M40.408 17.312c.244-.336.358-.724.11-1.098-.825-1.254-3.463-1.492-4.782-1.969-.072-.024-.14-.053-.214-.08-1.305-.436-2.514-1.059-3.47-1.9-1.618-1.419-2.907-3.418-4.776-4.521-1.608-.95-3.374-1.348-5.144-1.874-1.63-.484-3.12-1.124-4.423-2.24-1.231-1.058-2.248-2.28-3.664-3.06A7.127 7.127 0 0 0 12.13.154c-2.192-.175-4.483.032-6.52.896-1.722.722-4.08 2.005-4.74 3.9-.802 2.3 1.712 2.692 3.117 3.605 2.527 1.638 1.035 6.016.758 8.423-.185 1.62-.116 3.34.312 4.92.21.507.493.987.886 1.431 1.313 1.492 3.867 2.57 5.722 1.351 1.518-.996 1.768-2.824 2.571-4.32 1.123-2.092 2.962-3.734 5.496-3.276 1.358.249 2.57.797 3.78 1.44.79.426 1.78.964 2.72.754 1.238-.282 1.73-1.03 2.473-1.96 1.457-1.825 3.268-2.109 5.294-1.056 1.393.723 2.776 1.59 4.403 1.61.883.011 1.537-.197 2.006-.561" mask="url(#h)"/></g><path d="M58.819 32.613a6.596 6.596 0 0 0-2.064-.461c-1.41-.102-1.408-.366-2.249-1.345-.767-.895-2.502-.84-3.338-.107-.521.455-.492 1.354-.521 1.956-.077 1.544.123 3.028-.908 4.346-1.689 2.148-3.4 4.37-5.201 6.403-.137.158-.062.358.08.468.04.296.172.575.263.889.146.492.408.997.872 1.26.235.137.583.168.828.024 1.281-.17 2.404-1.83 3.29-2.633 2.229-2.014 3.96-5.45 7.164-5.941 1.153-.174 2.899-.282 3.374-1.636.443-1.268-.353-2.738-1.59-3.223" fill="#FFE8C8"/><path d="M58.819 32.613a6.596 6.596 0 0 0-2.064-.461c-1.41-.102-1.408-.366-2.249-1.345-.345-.406-.894-.606-1.47-.647.151.075.29.167.423.271.951.751-.068 2.474 2.003 2.45 1.057-.01 3.512.01 3.457 1.638-.061 1.842-1.786 1.797-3.225 2.023-.876.138-1.598.552-2.24 1.086-.708.902-1.506 1.75-2.33 2.382-1.04.8-2.505-.392-2.95-1.012-1.064 1.343-2.52 3.147-3.636 4.407-.137.158-.062.358.08.468.04.296.172.575.263.889.146.492.408.997.872 1.26.235.137.583.168.828.024 1.281-.17 2.404-1.83 3.29-2.633 2.229-2.014 3.96-5.45 7.164-5.941 1.153-.174 2.899-.282 3.374-1.636.443-1.268-.353-2.738-1.59-3.223" fill="#FFCDA4"/><path d="M52.027 43.855c-.707-1.616-2.656-2.67-3.931-3.773-1.377-1.192-2.555-1.012-3.67-.338-1.908.67-3.95 2.326-5.237 3.053-1.783 1.01-3.669 1.688-5.713 1.738-1.394.034-2.522.519-3.733 1.14-1.238.635-2.35 1.31-3.43 2.19-1.891 1.551-4.803 1.175-7.1 1.64-5.453 1.107-8.282 7.563-7.858 12.66.397 4.76-1.125 9.363 4.05 11.786 2.285 1.072 2.533 3.961 4.799 5.084 2.204 1.098 4.866.279 7.221.358 3.157.106 6.236 1.74 9.32.37 1.668-.744 3.054-2.001 4.743-2.693 1.843-.756 3.908-.337 5.656-1.431 2.62-1.649 3.022-5.219 3.176-8.025.092-1.716-.256-3.495-.321-5.208-.06-1.65.915-3.343 1.195-4.969a11.325 11.325 0 0 0-.093-4.47c-.323-1.42-2.131-4.523-.792-5.882.714-.729 2.239-2.04 1.718-3.23" fill="#FF8105"/><path d="M22.177 60.072c-.347-.393-.667-.782-.77-1.304-.126-.615.192-1.178.343-1.75.166-.619-.704-.932-.944-.328-.35.877-.71 1.518-.568 2.503.117.785.727 1.35 1.424 1.64.45.187.817-.417.515-.761m12.928-11.1c-1.033-.462-2.116-.526-3.144-.03-.91.437-1.349 1.028-1.69 1.971-.128.357.415.65.608.304.401-.729.817-.997 1.527-1.379.72-.387 1.765-.107 2.531-.038.504.04.588-.64.168-.828M33.44 58.7c-1.288.441-3.43.996-4.276-.445-.233-.396-.842-.101-.64.32.95 2.018 3.495 1.644 5.151.813.36-.18.166-.824-.235-.689m3.942 4.731c-.802.448-1.662.818-2.598.61-.39-.088-.61.496-.207.599 1.196.304 2.137-.062 3.086-.79.23-.179-.03-.56-.281-.42m8.498-8.625c-.193.953-.28 2.356-1.085 3.01-.387.318.109.845.502.574 1.076-.745 1.314-2.327 1.424-3.53.052-.555-.738-.57-.841-.054M19.116 66.27c-.504-.232-1.044-.261-1.561-.458-.58-.225-.695-1.14-.777-1.676-.077-.53-.908-.465-.929.064-.039.89.033 1.91.775 2.523.702.577 1.563.622 2.425.55.574-.048.475-.812.067-1.003m7.739 6.141c-1.884 1.085-4.252.567-4.576-1.797-.069-.511-.932-.46-.915.06.045 1.417.6 2.544 1.924 3.172 1.413.667 2.984.48 4.198-.497.506-.399-.063-1.262-.631-.938m8.828-2.808c-.99.491-1.936.884-3.054.583-1.123-.299-2.5-1.717-2.545-2.886-.018-.533-.83-.608-.84-.057-.059 3.32 4.524 5.47 6.895 3.039.316-.325-.017-.897-.456-.68m8.78 1.933c-.526.964-1.145 1.85-2.347 1.891-.882.032-2.125-.487-2.685-1.156-.214-.258-.67.035-.493.33.629 1.083 1.91 1.66 3.113 1.827 1.636.23 2.744-1.087 3.293-2.451.206-.516-.609-.936-.881-.44M43.2 49.695c-.478 1.792-1.103 3.495-2.489 4.787-.342.32.123.853.478.545 1.599-1.386 2.338-3.142 2.714-5.19.076-.403-.598-.533-.702-.142m1.846-7.885c-.635.562-1.435.944-2.111 1.451-.725.543-1.256 1.23-1.738 1.98-.286.451.342.848.67.455.564-.68 1.178-1.35 1.865-1.914.585-.48 1.25-.893 1.769-1.45.3-.322-.115-.825-.455-.522m-22.433 9.062c-1.1-.044-2.045-.058-3.075.36-.998.405-1.73 1.17-2.345 2.025-.28.39.26.84.615.542.614-.518 1.25-1.036 1.947-1.441.9-.53 1.91-.558 2.912-.704.449-.065.39-.762-.054-.782" fill="#F6760C"/><g transform="translate(12.121 40.573)"><mask id="j" fill="#fff"><use xlink:href="#i"/></mask><path d="M34.817 1.096c-.116-.398-.355-.726-.799-.762-1.497-.127-3.315 1.803-4.5 2.547-.066.044-.13.08-.197.119-1.15.759-2.383 1.324-3.637 1.556-2.12.399-4.488.18-6.51.969-1.738.684-3.139 1.825-4.647 2.893-1.388.985-2.808 1.761-4.493 2.097-1.595.314-3.184.362-4.67.996a6.953 6.953 0 0 0-1.51 1.25c-1.488 1.614-2.735 3.544-3.316 5.68-.486 1.797-.928 4.444.159 6.131 1.318 2.047 3.18.314 4.766-.23 2.846-.976 5.377 2.895 7.107 4.598 1.163 1.142 2.56 2.149 4.071 2.788a5.162 5.162 0 0 0 1.672.181c1.986-.113 4.412-1.455 4.595-3.664.151-1.81-1.137-3.131-1.82-4.685-.96-2.174-1.122-4.633.804-6.344 1.028-.913 2.212-1.528 3.466-2.078.818-.362 1.855-.808 2.269-1.677.541-1.15.254-2-.022-3.156-.542-2.27.351-3.867 2.431-4.813 1.428-.649 2.963-1.2 3.983-2.47.556-.69.794-1.33.798-1.926" mask="url(#j)"/></g><g transform="translate(71.515 26.046)"><mask id="l" fill="#fff"><use xlink:href="#k"/></mask><path d="M12.96 13.48c-.522-1.034-.917-2.149-1.339-3.226-.325-.838-1.99-3.763-1.494-4.554 1.02-1.644 1.646-2.645-.06-4.178-1.337-1.2-2.994.926-3.63 1.78-.273.366-3.062-.902-3.91-.49-1.355.648-1.883 1.977-.945 3.314.568.806 1.077 1.278 1.996 1.648 1.6.646 2.286.779 3.134 2.461 1.039 2.063 2.004 5.133 3.697 6.723.142.13.3.098.413-.003.225.06.478.017.703-.2 1.095-1.037 2.226-1.69 1.434-3.275" fill="#FFE8C8" mask="url(#l)"/></g><path d="M83.137 36.3a11.172 11.172 0 0 0-.312-.682c-.33.158-.661.312-1.008.447-.35.137-1.169.59-1.58.357-1.236-.704-.932-2.69-2.276-3.267-1.09-.461-4.55-1.037-3.808-2.893 1.048-2.618 5.322 2.294 5.64-.993.072-.737.248-1.727 1.132-1.906.104-.02.201-.022.3-.03-1.264-.594-2.692 1.237-3.272 2.015-.274.367-3.063-.902-3.912-.49-1.354.649-1.882 1.978-.943 3.314.567.806 1.075 1.278 1.994 1.649 1.601.645 2.286.778 3.135 2.46 1.04 2.064 2.005 5.133 3.698 6.723.14.13.3.098.413-.003.223.061.477.017.703-.2 1.094-1.037 2.226-1.69 1.434-3.275-.521-1.033-.916-2.149-1.338-3.226" fill="#FFCDA4"/><path d="M110.182 60.909c-.257-6.176-2.36-11.998-7.952-15.112-3.042-1.699-6.79-2.46-9.528-4.646-2.438-1.953-3.928-3.706-7.088-4.393-6.691-1.457-7.387 7.716-8.06 12.088-.568 3.711-2.598 6.746-3.313 10.352-.632 3.166.295 6.752 1.82 9.51 1.672 3.033 4.998 6.044 8.639 7.622.354.203.719.397 1.1.578 1.47.704 3.107.46 4.692.821 1.779.404 3.504.636 5.313.849 2.588.307 5.463-1.274 7.21-3.064 1.3-1.332 1.952-3.218 3.29-4.478.903-.852 1.818-1.31 2.582-2.341 1.59-2.151 1.4-5.27 1.295-7.786" fill="#FF9505"/><path d="M84.737 42.324c-.823-.314-1.624-.748-1.843-1.671-.06-.256-.455-.206-.411.063.17 1.135 1.064 1.818 2.13 2.077.273.066.376-.37.124-.469m20.698 10.678c-.611-2.71-2.097-4.367-4.536-5.621-.159-.082-.306.184-.153.272 1.024.607 1.938 1.245 2.712 2.166.784.938 1.152 2.173 1.524 3.314.083.253.513.132.453-.131m.237 5.103c-.07-.241-.483-.126-.426.12.165.663.201 1.262.01 1.923-.169.578-.741.9-1.227 1.182-.289.163-.107.626.21.48.633-.289 1.145-.638 1.45-1.283.362-.758.207-1.656-.017-2.422m-8.847-7.331c-.173-.214-.497.04-.337.263 1.15 1.562.966 3.444.819 5.26-.028.32.413.358.48.06.438-1.875.28-4.03-.962-5.583m-3.958 6.983c-.177-.16-.467.129-.29.3 1.489 1.49 1.01 4.245-.144 5.743-.229.29.206.598.444.338 1.465-1.609 1.754-4.834-.01-6.38m-9.35-10.419c-1.292 1.108-1.1 3.354-.834 4.852.058.348.583.269.542-.084-.15-1.332-.409-3.378.631-4.434.193-.198-.136-.508-.34-.334m-.644 15.687c-1.424-.467-2.405-1.14-2.774-2.686-.327-1.374.054-2.801.638-4.027.098-.205-.224-.388-.347-.197-.492.786-.669 1.152-.847 2.11-.159.856-.187 1.845.078 2.683.478 1.51 1.6 2.31 3.126 2.598.277.052.391-.393.126-.48m9.248 6.691c-.978.55-1.921 1.094-3.041 1.281-1.767.296-3.177-1.164-3.919-2.565-.104-.194-.417-.069-.317.137.585 1.237 1.553 2.538 2.974 2.858 1.718.385 3.175-.308 4.53-1.33.2-.15-.003-.506-.227-.38m.988-25.369c-1.746-.506-3.066-1.387-3.87-3.054-.143-.293-.597-.1-.464.2.773 1.763 2.235 3.128 4.205 3.364.286.032.425-.425.13-.51m7.888 21.727c-.051-.192-.347-.16-.315.05.458 2.854-.51 4.89-2.815 6.57-.187.136-.001.446.206.345 2.651-1.284 3.668-4.235 2.924-6.965M88.068 53.643c-.281.477-.556.819-.69 1.38-.147.61-.075 1.276-.113 1.899-.016.291.414.345.452.053.069-.501.085-1.007.128-1.512.055-.626.315-1.082.517-1.649.065-.174-.196-.346-.294-.17" fill="#F6760C"/><g transform="translate(83.636 36.941)"><mask id="n" fill="#fff"><use xlink:href="#m"/></mask><path d="M23.92 25.252c.875-.792.478-1.943.45-3.028-.098-3.796-.688-5.812-1.889-7.727-1.86-2.964-4.74-4.365-8.086-5.982-1.81-.874-3.654.058-5.465-.666-1.52-.611-2.67-1.507-3.523-2.911-.464-.763-.88-1.536-1.36-2.247-.76-.839-1.628-1.503-2.665-1.793C.135 1.414 3.463 3.902 3.76 4.52c.71 1.448-.67 2.948-1.51 4.057-.548.72-1.154 1.447-1.546 2.252-.515 1.06-.962 2.921.217 3.806 1.257.95 3.21.532 4.588 1.446.91.609 1.405 1.653 1.606 2.629.382 1.823-.374 8.187 3.038 7.82 1.064-.116 1.577-.775 2.514-1.038.394-.112.81-.179 1.205.009.736.355 1.128.967 1.232 1.71.166 1.14-.05 2.282-.3 3.397-.215.955-.828 2.392-.428 3.33.591 1.375 2.978.844 3.967.19a5.978 5.978 0 0 0 2.02-2.24c.443-.848.89-1.748.952-2.697.067-1.038.163-1.957 1.176-2.536.327-.594.94-.958 1.429-1.403" mask="url(#n)"/></g><path d="M0 62.77l8.274 21.333s65.006 9.464 68.212 9.729c3.203.268 37.245-14.788 39.243-16.394 1.156-.935 3.603-20.266 3.867-20.797.27-.534-6.807-2.799-9.608 3.998 0 0-5.606-2.664-9.079 3.065 0 0-6.138-3.998-10.412 3.468 0 0-6.805-5.998-12.145 3.334 0 0-6.806-9.067-16.553-.269 0 0-4.916-7.863-13.204-1.599 0 0-4.28-6.131-9.752-1.466 0 0-6.81-6.797-11.615-1.064 0 0-4.805-5.867-9.61-.802 0 0-5.338-4.93-9.077.133 0 0-2.534-4.27-8.54-2.668" fill="#FF000C"/><path d="M48.595 68.638s-4.281-6.13-9.753-1.466l5.732 22.184c2.945.426 5.872.846 8.689 1.246l-4.668-21.964zm-21.367-2.53s-4.805-5.867-9.611-.803L25.35 86.58c2.714.394 5.625.816 8.63 1.25l-6.752-21.721zM8.54 65.439S6.008 61.169 0 62.77l8.274 21.332s3.014.436 7.772 1.13L8.541 65.438zm53.26 4.798l2.413 21.924c6.68.947 11.462 1.604 12.272 1.67l1.866-23.325s-6.805-9.067-16.552-.269" fill="#FFFFE7"/><path d="M109.988 60.64l-2.803 20.998v.005c4.563-2.08 7.952-3.73 8.543-4.205 1.156-.936 3.604-20.265 3.869-20.798.268-.533-6.808-2.798-9.609 4m-9.078 3.065s-6.139-4-10.413 3.467l-3.194 23.017v.002a435.11 435.11 0 0 0 10.366-4.33v-.006l3.24-22.15z" fill="#EEEDD0"/><g transform="translate(2.424 63.573)"><mask id="p" fill="#fff"><use xlink:href="#o"/></mask><path d="M73.388 7.527c-4.217-3.647-8.544-.845-13.618 2.72 0 0-4.36-7.188-12.645-2.313 0 0-3.932-3.813-9.404-.18 0 0-6.857-6.027-11.66-1.563 0 0-4.962-5.371-9.766-1.426 0 0-5.187-3.533-8.927.408 0 0-3.018-3.993-7.087-4.035L7.578 18.07c3.063.347 56.197 8.189 63.534 8.959.008-.124 2.46-16.991 2.276-19.502" mask="url(#p)"/></g></g></svg>