<svg width="120" height="120" viewBox="0 0 120 120" xmlns="http://www.w3.org/2000/svg"><g fill="none" fill-rule="evenodd"><path d="M115.658 68.58h-7.59a4.411 4.411 0 0 1-4.412-4.41V52.838a4.411 4.411 0 0 1 4.411-4.41h7.59V68.58zm.358-24.517H89.473c-1.135 0-2.054.92-2.054 2.054v13.858l.105.118c.788.852 5.88 6.366 7.27 8.172l4.463 5.018c.39.438.947.688 1.534.688h15.225a3.878 3.878 0 0 0 3.878-3.878V47.942a3.878 3.878 0 0 0-3.878-3.879z" fill="#AB2531"/><path d="M.005 46.117H87.42V59.98s8.215 8.857 7.701 8.857c-.513 0-6.29 6.803-6.29 6.803l-1.283-3.594-2.824 2.696-1.54-3.466-2.439 3.08-1.54-3.594-2.824 2.953-1.412-3.594-2.696 2.695-1.669-3.466-2.567 3.081-1.155-3.85-2.695 3.208-1.54-3.979-2.696 3.08-1.67-3.593-2.566 2.824-1.54-3.595-2.825 3.081-1.155-3.722-2.62 2.824-1.487-3.21-2.953 2.696-1.412-3.466-2.567 2.824-1.412-3.594-3.209 2.824-1.155-3.465-2.696 3.208-1.668-3.722-2.568 2.952-1.54-3.594-2.824 2.953-1.412-3.595-2.952 2.953-1.155-3.594-2.568 2.695-1.668-3.466-2.568 2.696-1.54-3.466-2.567 2.824-1.412-3.465-2.824 2.182L.005 58.31V46.117" fill="#515251"/><path d="M94.094 48.428a1.54 1.54 0 1 1-3.081 0 1.54 1.54 0 0 1 3.08 0m.001 9.049a1.54 1.54 0 1 1-3.081 0 1.54 1.54 0 0 1 3.08 0" fill="#797B79"/></g></svg>