<svg xmlns="http://www.w3.org/2000/svg" width="113.111" height="130.837" viewBox="-3.403 0.602 113.111 130.837"><defs><style/></defs><g id="ID0.21277596149593592"><g id="Body_1_"><path id="Body_2_" fill="#F05A28" stroke="#000" stroke-linecap="round" stroke-linejoin="round" d="M69.84 108.429c-.432 2.871-1.583 10.349-1.398 11.826l-.269-.603c.552 1.56 1.11 3.778.933 6.086-.344 4.479-2.803 6.879-5.416 8.16l-.029.146-2.242 8.942c.043-.001.424.022 3.105.28 3.398.326 1.816 2.373 1.816 2.373l-6.334-.112-.324-.004-12.799-.229c-.157-.521-.032-2.132.779-6.207.313-1.601.603-2.978.856-4.104l.002-.008c-4.324-3.361-3.805-8.562-2.487-12.242.84-2.354 5.635-20.123 5.635-20.123s2.084-6.824 10.709-4.449c0 0 9.928 1.652 7.464 10.264l-.001.004h0zm-12.63 26.642s2.542.41 6.479-1.17m4.753-13.643c-.226-1.033-1.564-2.854-1.564-2.854m-17.584 14.417s-.289.901-.774 3.157" transform="translate(.75) scale(.9025)"/><path id="Leg_Separation" d="M60.286 145.412h-.021a.501.501 0 0 1-.479-.521.774.774 0 0 0-.206-.6c-.636-.674-2.563-.704-3.715-.722a20.43 20.43 0 0 1-.896-.026.503.503 0 0 1-.445-.642c.413-1.394.813-2.804 1.213-4.214l.506-1.779a.494.494 0 0 1 .618-.343.5.5 0 0 1 .344.618l-.506 1.776c-.341 1.204-.683 2.41-1.033 3.604l.214.004c1.478.021 3.502.053 4.428 1.035.339.358.5.807.479 1.326a.506.506 0 0 1-.501.484z" transform="translate(.75) scale(.9025)"/></g><g id="Head_1_"><path id="Head_2_" fill="#F05A28" stroke="#000" stroke-linecap="round" d="M19.38 39.756s.93-3.812 8.844-11.914c7.91-8.098 16.473-10.887 22.152-13.215 5.679-2.328 9.492-13.96 9.492-13.96s5.229 6.504 10.603 12.418c5.484 6.031 18.254 11.317 31.938 25.09a33.533 33.533 0 0 1 4.188 5.146l.236.207c3.057 2.651 13.896 13.227 12.506 28.625-1.062 11.731-6.396 15.438-8.982 16.434l-.021.086c1.332-2.639 2.125-5.439 2.5-8.282 1.236-9.402-3.83-15.511-7.078-23.688-4.211-10.604-15.73-16.57-30.645-16.273-28.386.561-34.638 16.52-34.638 16.52l-.021.207c5.266 9.78 7.369 31.473-3.414 37.965-11.615 6.983-28.813 4.546-35.511-22.436-6.131-24.694 12.227-32.474 17.627-32.41l.224-.52h0zm87.216 3.565s7.448 11.833 5.024 26.456M19.155 40.275c5.222.141 8.722 3.879 8.722 3.879m12.576 13.001a44.624 44.624 0 0 1-1.492-2.5" transform="translate(.75) scale(.9025)"/><path id="R_Ear" fill="#404041" stroke="#000" d="M111.967 84.658s2.35-4.264 3.936-12.079c1.584-7.82-.529-18.453-.529-18.453 2.625 4.761 4.613 10.871 3.971 18.027-1.029 11.43-6.334 15.328-8.984 16.434l1.606-3.929h0z" transform="translate(.75) scale(.9025)"/><g id="L_Ear" stroke="#231F20"><path id="Outer_Ear" fill="#404041" d="M2.14 75.09c1.201 4.639 3.996 10.063 5.435 12.54 1.435 2.48 4.953 6.315 9.022 8.548 4.072 2.236 6.09 1.979 6.09 1.979 6.162-2.797 8.533-15.012 5.281-28.388-3.455-14.19-11.942-24.311-18.963-22.6-3.75.91-7.157 4.664-8.145 10.457C-.102 63.24.941 70.46 2.14 75.09h0z" transform="translate(.75) scale(.9025)"/><path id="Inner_Ear" fill="#929497" stroke-linecap="round" d="M6.501 63.29c2.701-1.157 7.285 3.496 10.24 10.397 2.952 6.896 3.159 13.431.461 14.587-2.703 1.155-7.285-3.5-10.238-10.399-2.957-6.898-3.162-13.428-.463-14.585h0zM18.38 87.146C7.258 80.097 7.382 63.116 7.382 63.116" transform="translate(.75) scale(.9025)"/></g><path id="Face" fill="#E6E7E8" stroke="#000" stroke-linecap="round" d="M36.114 95.76c1.301.889 10.918 7.303 21.362 9.905 6.917 1.729 5.188 5.113 5.188 5.113s.279-1.023 5.676-3.355c5.398-2.319 4.75-.271 20.854-4.094 16.104-3.81 22.354-13.156 23.646-22.94 1.238-9.401-3.83-15.51-7.077-23.688-4.212-10.604-15.729-16.57-30.644-16.273-28.392.56-34.644 16.521-34.644 16.521l-.043.172c5.278 9.757 7.403 31.5-3.394 38-.324.194-.652.382-.984.562l.06.077h0z" transform="translate(.75) scale(.9025)"/><path id="Mouth_1_" fill="#FFF" stroke="#231F20" stroke-width=".985" stroke-linecap="round" d="M73.877 79.685C59.657 79.361 58.17 65.24 58.17 65.24s8.632-2.695 17.093-3.22c8.465-.52 14.617 2.23 14.617 2.23s-.994 15.778-16.004 15.435h0z"/><g id="R_Eye"><path id="Middle" fill="#FFF" d="M96.47 56.787c2.594-.408 5.026 1.337 5.43 3.898.402 2.563-1.375 4.971-3.964 5.381-2.601.411-5.027-1.336-5.431-3.897-.403-2.563 1.371-4.973 3.965-5.382z" transform="translate(.75) scale(.9025)"/><path id="Outside" fill="#231F20" d="M97.177 67.125c-2.84 0-5.221-2.019-5.659-4.801a5.642 5.642 0 0 1 1.041-4.248 5.724 5.724 0 0 1 3.756-2.275c3.2-.493 6.087 1.652 6.573 4.729.487 3.102-1.664 6.028-4.795 6.523-.311.05-.614.072-.916.072zm.048-9.397c-.197 0-.396.016-.599.048a3.768 3.768 0 0 0-2.457 1.487c-.59.8-.83 1.774-.677 2.749.314 1.999 2.201 3.389 4.285 3.065 2.044-.323 3.45-2.225 3.134-4.235-.284-1.804-1.835-3.114-3.686-3.114z" transform="translate(.75) scale(.9025)"/><path id="Center" fill="#231F20" d="M97.204 58.819a2.6 2.6 0 0 1 1.844.764 2.6 2.6 0 0 1 .764 1.844 2.6 2.6 0 0 1-.764 1.844 2.6 2.6 0 0 1-1.844.764 2.6 2.6 0 0 1-1.844-.764 2.6 2.6 0 0 1-.764-1.844 2.6 2.6 0 0 1 .764-1.844 2.6 2.6 0 0 1 1.844-.764z" transform="translate(.75) scale(.9025)"/></g><g id="L_Eye_1_"><path id="Middle_1_" fill="#FFF" d="M58.321 58.008c2.594-.408 5.026 1.337 5.43 3.898.402 2.563-1.375 4.971-3.964 5.381-2.6.411-5.027-1.336-5.43-3.897-.405-2.563 1.37-4.973 3.964-5.382z" transform="translate(.75) scale(.9025)"/><path id="Outside_1_" fill="#231F20" d="M59.028 68.345c-2.84 0-5.221-2.019-5.66-4.801a5.642 5.642 0 0 1 1.041-4.248 5.729 5.729 0 0 1 3.756-2.275c3.201-.493 6.087 1.652 6.574 4.729.487 3.102-1.664 6.028-4.795 6.523a5.63 5.63 0 0 1-.916.072zm.047-9.396c-.197 0-.396.016-.598.048a3.766 3.766 0 0 0-2.457 1.487c-.59.8-.83 1.774-.676 2.749.314 1.999 2.201 3.389 4.285 3.065 2.043-.323 3.45-2.225 3.133-4.235-.284-1.804-1.836-3.114-3.687-3.114z" transform="translate(.75) scale(.9025)"/><path id="Center_1_" fill="#231F20" d="M59.054 60.04a2.6 2.6 0 0 1 1.844.764 2.6 2.6 0 0 1 .764 1.844 2.6 2.6 0 0 1-.764 1.844 2.6 2.6 0 0 1-1.844.764 2.6 2.6 0 0 1-1.844-.764 2.6 2.6 0 0 1-.764-1.844 2.6 2.6 0 0 1 .764-1.844 2.6 2.6 0 0 1 1.844-.764z" transform="translate(.75) scale(.9025)"/></g></g><path id="L_Arm" fill="#F05A28" stroke="#000" stroke-linecap="round" d="M46.112 108.248s-.101-1.852.002-2.457c.156-.919 1.102-3.158 1.701-3.317 2.473.898 1.817.662 4.557 1.643.051-1.01.148-2.021.322-2.896.758-3.858 2.998-7.225 5.398-6.815 2.403.41 4.046 6.324 1.17 13.799-2.877 7.473-5.613 8.008-7.912 7.555-2.816-.559-5.23-3.6-5.238-7.512h0zm6.972 1.406l-.712-5.538" transform="translate(.75) scale(.9025)"/><path id="R_Arm" fill="#F05A28" stroke="#000" stroke-linecap="round" d="M69.376 107.01s.533-.215 2.565-.905c2.033-.688 3.742-.564 3.742-.564.086-1.004.217-2.01.418-2.881.888-3.834 3.233-7.125 5.623-6.637 2.387.49 3.834 6.453.713 13.828-3.119 7.375-5.873 7.819-8.151 7.291-2.802-.65-5.113-3.769-4.992-7.679l.082-2.453h0zm6.183 3.532s.125-4.188.125-5.001" transform="translate(.75) scale(.9025)"/></g></svg>