<svg width="120" height="120" viewBox="0 0 120 120" xmlns="http://www.w3.org/2000/svg"><g fill="none" fill-rule="evenodd"><path d="M103.968 76.691V64.378h-89.44V76.69h3.2c-.002-.058-.002-.114-.002-.174h22.762c0 .06 0 .116-.002.174h35.61c-.002-.058-.002-.114-.002-.174h22.762c0 .06 0 .116-.002.174h5.114z" fill="#F7B029"/><path d="M115.828 64.05l-.06 3.624-.13 7.98a1.052 1.052 0 0 1-1.05 1.037H98.855c.002-.058.002-.114.002-.174 0-6.312-5.106-11.448-11.38-11.448-6.276 0-11.382 5.136-11.382 11.448 0 .06 0 .116.003.174H40.486c.002-.058.002-.114.002-.174 0-6.312-5.104-11.448-11.381-11.448-6.273 0-11.38 5.136-11.38 11.448v.174H5.525a2.47 2.47 0 0 1-2.462-2.477V63.24a6.88 6.88 0 0 1 1.263-3.986A6.82 6.82 0 0 1 9.9 56.362h11L32.65 44.24a8.741 8.741 0 0 1 6.28-2.663h30.413a8.74 8.74 0 0 1 6.339 2.726l9.975 10.493 24.324 2.294a6.805 6.805 0 0 1 3.24 1.41 6.918 6.918 0 0 1 2.607 5.55" fill="#FFD702"/><path d="M58.37 56.266h25.567L74.054 45.87a6.53 6.53 0 0 0-4.711-2.026H58.369v12.423zm-2.829-12.423h-14.33a6.537 6.537 0 0 0-4.667 1.98L26.42 56.266h29.121V43.843z" fill="#46BFF9"/><path d="M29.108 67.513c-5.04 0-9.127 4.11-9.127 9.181 0 5.07 4.086 9.181 9.127 9.181 5.04 0 9.127-4.11 9.127-9.181 0-5.07-4.086-9.181-9.127-9.181" fill="#323948"/><path d="M29.108 71.186c-3.024 0-5.475 2.466-5.475 5.508s2.45 5.508 5.475 5.508c3.024 0 5.476-2.466 5.476-5.508s-2.452-5.508-5.476-5.508" fill="#FFF"/><path d="M29.108 74.009a2.677 2.677 0 0 0-2.67 2.685 2.677 2.677 0 0 0 2.67 2.685 2.677 2.677 0 0 0 2.67-2.685 2.677 2.677 0 0 0-2.67-2.685m58.368-6.496c-5.04 0-9.127 4.11-9.127 9.181 0 5.07 4.086 9.181 9.127 9.181 5.04 0 9.127-4.11 9.127-9.181 0-5.07-4.086-9.181-9.127-9.181" fill="#323948"/><path d="M87.476 71.186c-3.024 0-5.475 2.466-5.475 5.508s2.45 5.508 5.475 5.508c3.024 0 5.475-2.466 5.475-5.508s-2.451-5.508-5.475-5.508" fill="#FFF"/><path d="M87.476 74.009a2.677 2.677 0 0 0-2.67 2.685 2.677 2.677 0 0 0 2.67 2.685 2.677 2.677 0 0 0 2.67-2.685 2.677 2.677 0 0 0-2.67-2.685" fill="#323948"/><path d="M57.26 34h-1.344c-1.122 0-2.06.621-2.167 1.433l-.613 4.66h6.905l-.613-4.66c-.107-.812-1.045-1.432-2.167-1.432" fill="#FFD702"/><path fill="#182C65" d="M52.296 41.597h8.79v-2.123h-8.79z"/><path fill="#323948" d="M67.188 61.358l4.26-.014.014 4.284-4.26.015zm-4.245 4.299l4.26-.014.013 4.284-4.259.014zm-4.273-4.271l4.259-.014.014 4.285-4.26.014zm-4.246 4.299l4.26-.014.014 4.284-4.26.014zm-4.274-4.271l4.26-.014.014 4.285-4.26.014zm-4.245 4.299l4.26-.014.013 4.285-4.259.014zm-4.274-4.27l4.26-.015.014 4.285-4.26.014z"/><path d="M7.751 59.253v3.776c0 2.427-1.955 4.394-4.366 4.394h-.323v-4.184a6.88 6.88 0 0 1 1.263-3.986h3.426z" fill="#F04925"/><path d="M115.828 64.05l-.06 3.624h-2.633c-2.782 0-5.04-2.27-5.04-5.069v-2.801a1.3 1.3 0 0 1 1.296-1.303h3.83a6.918 6.918 0 0 1 2.607 5.549m-11.86 12.641V64.378h-89.44V76.69h3.2c-.002-.058-.002-.114-.002-.174h22.762c0 .06 0 .116-.002.174h35.61c-.002-.058-.002-.114-.002-.174h22.762c0 .06 0 .116-.002.174h5.114z" fill="#F7B029"/><path d="M115.828 64.05l-.06 3.624-.13 7.98a1.052 1.052 0 0 1-1.05 1.037H98.855c.002-.058.002-.114.002-.174 0-6.312-5.106-11.448-11.38-11.448-6.276 0-11.382 5.136-11.382 11.448 0 .06 0 .116.003.174H40.486c.002-.058.002-.114.002-.174 0-6.312-5.104-11.448-11.381-11.448-6.273 0-11.38 5.136-11.38 11.448v.174H5.525a2.47 2.47 0 0 1-2.462-2.477V63.24a6.88 6.88 0 0 1 1.263-3.986A6.82 6.82 0 0 1 9.9 56.362h11L32.65 44.24a8.741 8.741 0 0 1 6.28-2.663h30.413a8.74 8.74 0 0 1 6.339 2.726l9.975 10.493 24.324 2.294a6.805 6.805 0 0 1 3.24 1.41 6.918 6.918 0 0 1 2.607 5.55" fill="#FFD702"/><path d="M58.37 56.266h25.567L74.054 45.87a6.53 6.53 0 0 0-4.711-2.026H58.369v12.423zm-2.829-12.423h-14.33a6.537 6.537 0 0 0-4.667 1.98L26.42 56.266h29.121V43.843z" fill="#BFC0C4"/><path d="M29.108 67.513c-5.04 0-9.127 4.11-9.127 9.181 0 5.07 4.086 9.181 9.127 9.181 5.04 0 9.127-4.11 9.127-9.181 0-5.07-4.086-9.181-9.127-9.181" fill="#323948"/><path d="M29.108 71.186c-3.024 0-5.475 2.466-5.475 5.508s2.45 5.508 5.475 5.508c3.024 0 5.476-2.466 5.476-5.508s-2.452-5.508-5.476-5.508" fill="#FFF"/><path d="M29.108 74.009a2.677 2.677 0 0 0-2.67 2.685 2.677 2.677 0 0 0 2.67 2.685 2.677 2.677 0 0 0 2.67-2.685 2.677 2.677 0 0 0-2.67-2.685m58.368-6.496c-5.04 0-9.127 4.11-9.127 9.181 0 5.07 4.086 9.181 9.127 9.181 5.04 0 9.127-4.11 9.127-9.181 0-5.07-4.086-9.181-9.127-9.181" fill="#323948"/><path d="M87.476 71.186c-3.024 0-5.475 2.466-5.475 5.508s2.45 5.508 5.475 5.508c3.024 0 5.475-2.466 5.475-5.508s-2.451-5.508-5.475-5.508" fill="#FFF"/><path d="M87.476 74.009a2.677 2.677 0 0 0-2.67 2.685 2.677 2.677 0 0 0 2.67 2.685 2.677 2.677 0 0 0 2.67-2.685 2.677 2.677 0 0 0-2.67-2.685" fill="#323948"/><path d="M57.26 34h-1.344c-1.122 0-2.06.621-2.167 1.433l-.613 4.66h6.905l-.613-4.66c-.107-.812-1.045-1.432-2.167-1.432" fill="#FFD702"/><path fill="#182C65" d="M52.296 41.597h8.79v-2.123h-8.79z"/><path fill="#323948" d="M67.188 61.358l4.26-.014.014 4.284-4.26.015zm-4.245 4.299l4.26-.014.013 4.284-4.259.014zm-4.273-4.271l4.259-.014.014 4.285-4.26.014zm-4.246 4.299l4.26-.014.014 4.284-4.26.014zm-4.274-4.271l4.26-.014.014 4.285-4.26.014zm-4.245 4.299l4.26-.014.013 4.285-4.259.014zm-4.274-4.27l4.26-.015.014 4.285-4.26.014z"/><path d="M7.751 59.253v3.776c0 2.427-1.955 4.394-4.366 4.394h-.323v-4.184a6.88 6.88 0 0 1 1.263-3.986h3.426z" fill="#F04925"/><path d="M115.828 64.05l-.06 3.624h-2.633c-2.782 0-5.04-2.27-5.04-5.069v-2.801a1.3 1.3 0 0 1 1.296-1.303h3.83a6.918 6.918 0 0 1 2.607 5.549" fill="#F7B029"/></g></svg>