<svg width="120" height="120" viewBox="0 0 120 120" xmlns="http://www.w3.org/2000/svg" xmlns:xlink="http://www.w3.org/1999/xlink"><defs><path id="a" d="M.089.583h5.804v6.88H.089z"/><path id="c" d="M0 119.417h56.888V.8H0z"/></defs><g transform="translate(32)" fill="none" fill-rule="evenodd"><path d="M23.57 19.518l-.981 2.844-1.136 16.358h11.743l-.972-15.358s-8.534-4.186-8.653-3.844" fill="#FDFFFF"/><path d="M39.95 10.136s4.714-.248 6.037-.865c1.324-.618 1.756-1.456 1.756-1.832 0-.376-.432-.807-.432-.807s-2.995.538-2.913.216c.08-.324 1.052-1.076.62-1.21-.432-.135-1.7 1.129-1.97 1.666-.27.539-.674.579-.674.579l-1.862.282-.563 1.971zM8.86 6.243s-.212.678-.014 1.043c.197.365 1.945 1.826 1.945 1.826l4.79 1.069V7.919l-2.373-.433-.71-1.243s-1.311-.807-1.48-.694c-.168.112.146.926.146.926s-2.208-.8-2.304-.232" fill="#9397A2"/><g transform="translate(24.887 .217)"><mask id="b" fill="#fff"><use xlink:href="#a"/></mask><path d="M.86 2.645S.284 5.76.284 6.115c0 .353-.195 1.347-.195 1.347h5.804s-.337-4.128-.846-5.115C4.54 1.358 3.903.583 3.47.583h-.75S1.036 1.683.86 2.645" fill="#9F9B9C" mask="url(#b)"/></g><path d="M27.415 1.44s-.953.803-.953 1.585c0 .782-.044 2.367.476 2.938.52.57 1.071.824 1.071.824s1.379-.401 1.379-2.008c0-1.606-.149-2.578-.446-2.874-.297-.296-.933-.887-1.527-.465" fill="#C4CCD4"/><path fill="#9397A2" d="M33.322 26.457l-.83 1.072-.144-2.26z"/><mask id="d" fill="#fff"><use xlink:href="#c"/></mask><path fill="#B5B8BF" mask="url(#d)" d="M17.77 40.68h19.87v-2.058H17.77z"/><path fill="#9A9EA5" mask="url(#d)" d="M19.201 42.668h17.01v-1.989H19.2z"/><path fill="#767C87" mask="url(#d)" d="M20.687 44.72h14.036v-2.051H20.687z"/><path fill="#626872" mask="url(#d)" d="M22.2 46.68h11.01v-1.96H22.2z"/><path fill="#B5B7BA" mask="url(#d)" d="M22.2 27.898l2.01-2.023 8.379 3.185-.638-8.437-7.905-1.067-1.47 2.79z"/><path d="M15.015 7.68l.45 2.609 1.511 2.953 3.474 1.375 2.615.443-.654 6.513.164.773s.409-1.06 1.47-1.06c1.063 0 7.643 3.176 7.643 3.176l1.634 1.996-.898-11.036 3.963-1.263 3.065-.285.286-1.913 1.267-4.035-10.34-.247h-15.65z" fill="#CBD2DD" mask="url(#d)"/><path d="M15.676 10.674s4.608 2.485 6.524 2.485c1.916 0 9.152.573 9.152.573l4.111-1.53 4.275-.242-.286 1.915-3.064.284-3.965 1.263-9.358-.366-2.616-.447-3.473-1.383-1.3-2.552z" fill="#B5B7BA" mask="url(#d)"/><path fill="#B5B8BF" mask="url(#d)" d="M22.2 50.65h10.996v-3.97H22.2z"/><path fill="#C5C9D1" mask="url(#d)" d="M23.047 50.65h9.3V47.5h-9.3z"/><path fill="#FDFFFF" mask="url(#d)" d="M18.704 52.378h18.44V50.65h-18.44zm2.922 15.12h2.776v-15.12h-2.776zm8.761 0h2.776v-15.12h-2.776z"/><path fill="#DAE0E0" mask="url(#d)" d="M21.626 59.938h2.776v-7.56h-2.776zm8.761 0h2.776v-7.56h-2.776z"/><path fill="#414647" mask="url(#d)" d="M21.626 70.056h11.696v-2.558H21.626z"/><path fill="#727981" mask="url(#d)" d="M3.75 75.506h47.449v-5.45H3.749z"/><path fill="#626A72" mask="url(#d)" d="M33.322 70.056H21.627l-2.889 5.45H36.21z"/><path d="M27.207 3.428h-.365a.118.118 0 0 1-.118-.116c0-.066.054-.118.118-.118h.365c.065 0 .117.052.117.118a.117.117 0 0 1-.117.116m1.719 0h-.364a.117.117 0 1 1 0-.234h.364a.117.117 0 0 1 0 .234m-1.03 1.368h-.036a.134.134 0 0 1-.135-.135V3.652c0-.073.06-.134.135-.134h.036c.074 0 .134.06.134.134v1.01c0 .074-.06.134-.134.134" fill="#B5B7BA" mask="url(#d)"/><path d="M26.322 6.06s.493-1.088 1.002-1.11c.51-.02 1.256-.111 1.337 0 .082.113.828 1.274.828 1.274s-.933.804-1.565.743c-.632-.06-1.602-.907-1.602-.907" fill="#9F9B9C" mask="url(#d)"/><path d="M11.16 6.787l-.318 1.572 1.606.502s.278-.645 0-1.243c-.281-.597-1.288-.831-1.288-.831m31.98 1.234l.265 1.412s2.007-.382 2.066-.97c.059-.589-1.505-.912-2.331-.442" fill="#B5B7BA" mask="url(#d)"/><path fill="#5A935D" mask="url(#d)" d="M0 119.417h56.888V75.505H.001z"/><path fill="#4A754B" mask="url(#d)" d="M0 97.46h56.888V75.507H.001z"/><path fill="#B97D7F" mask="url(#d)" d="M11.405 119.417h32.139V75.505h-32.14z"/><path fill="#A0676B" mask="url(#d)" d="M11.405 97.46h32.139V75.507h-32.14z"/><path d="M7.24 98.4h.153c-.647 0-1.2.024-1.744.288 1.377.668 2.385 1.952 2.385 3.579v6.483c0 1.628-.931 2.762-2.309 3.43.545.264 1.174.14 1.822.14h.002c2.28 0 4.017-1.298 4.017-3.57v-6.483c0-2.272-2.045-3.867-4.326-3.867" fill="#33635B" mask="url(#d)"/><path d="M8.034 108.75v-6.484c0-1.627-.39-3.033-1.766-3.701-1.377.668-1.766 2.074-1.766 3.701v6.484c0 1.628.389 3.035 1.766 3.702 1.377-.667 1.766-2.074 1.766-3.702" fill="#457F77" mask="url(#d)"/><path d="M7.428 110.214l-1.866-1.392a.254.254 0 1 1 .306-.407l1.866 1.393a.254.254 0 1 1-.306.406" fill="#664634" mask="url(#d)"/><path d="M7.81 107.2h-.67c-.073 0-.553-.05-.609-.012.09.062-.262.094-.262.21V117.6h1.766v-10.201c0-.19-.032-.2-.223-.2" fill="#724F3D" mask="url(#d)"/><path d="M6.268 107.115c-.09.063 0 .167 0 .283v9.91-9.91c0-.116.09-.22 0-.283" fill="#895F4C" mask="url(#d)"/><path d="M10.043 110.515L8.21 111.95a.256.256 0 0 1-.358-.042.253.253 0 0 1 .043-.356l1.833-1.435a.254.254 0 0 1 .315.398" fill="#664634" mask="url(#d)"/><path d="M47.222 98.4h.152c-.646 0-1.2.024-1.744.288 1.376.668 2.384 1.952 2.384 3.579v6.483c0 1.628-.931 2.762-2.308 3.43.545.264 1.174.14 1.821.14h.003c2.28 0 4.017-1.298 4.017-3.57v-6.483c0-2.272-2.045-3.867-4.325-3.867" fill="#33635B" mask="url(#d)"/><path d="M48.014 108.75v-6.484c0-1.627-.39-3.033-1.766-3.701-1.377.668-1.765 2.074-1.765 3.701v6.484c0 1.628.388 3.035 1.765 3.702 1.377-.667 1.766-2.074 1.766-3.702" fill="#457F77" mask="url(#d)"/><path d="M47.41 110.214l-1.866-1.392a.253.253 0 0 1-.051-.356.255.255 0 0 1 .356-.05l1.865 1.392a.253.253 0 0 1 .051.355.255.255 0 0 1-.355.05" fill="#664634" mask="url(#d)"/><path d="M47.792 107.2h-.672c-.073 0-.634-.05-.69-.012.09.062-.342.094-.342.21V117.6h1.926v-10.201c0-.19-.032-.2-.222-.2" fill="#724F3D" mask="url(#d)"/><path d="M46.088 107.115c-.09.063 0 .167 0 .283v9.91-9.91c0-.116.09-.22 0-.283" fill="#895F4C" mask="url(#d)"/><path d="M50.024 110.515l-1.833 1.435a.254.254 0 1 1-.315-.398l1.833-1.435a.253.253 0 1 1 .315.398" fill="#664634" mask="url(#d)"/></g></svg>