<svg width="480" height="360" viewBox="0 0 480 360" xmlns="http://www.w3.org/2000/svg" xmlns:xlink="http://www.w3.org/1999/xlink"><defs><path id="a" d="M.062.608h254.18V126.81H.061z"/><path id="c" d="M.227.58h368.175v196.748H.227z"/></defs><g fill="none" fill-rule="evenodd"><path fill="#9ED5F1" d="M-13 461h494V-33H-13z"/><path d="M433.551 41.532c.19-2.544.553-4.89 1.705-7.009 2.881-5.297 8.512-7.271 13.889-5.325 3.086 1.117 5.127 3.453 5.804 6.806.524 2.591.465 5.189.147 7.792-.151 1.246-.332 2.49-.502 3.747 1.508 0 3.119-.122 4.707.024 3.67.334 6.294 2.335 8.185 5.427 1.5 2.452 1.613 4.955.146 7.406-.939 1.567-2.405 2.66-4.012 3.528-3.711 2.008-7.724 1.864-11.753 1.68-2.15-.099-4.304-.055-6.456-.127-2.13-.07-4.256-.316-6.382-.282-1.64.029-3.268.448-4.91.555-2.064.134-4.135.129-6.203.177-1.863.042-3.727.068-5.589.114-2.01.049-4.028.238-6.03.14-2.567-.124-5.162-.405-7.503-1.564-2.94-1.457-4.24-4.156-5.053-7.177-.462-1.716-.176-3.42.511-4.903.58-1.251 1.652-2.36 2.724-3.277 2.4-2.052 5.33-2.645 8.4-2.4 1.59.129 3.157.566 4.803.876-.224-1.724-.109-3.324.583-4.989 1.225-2.956 3.962-4.09 6.723-3.92 2.14.132 4.033.875 5.592 2.388.099.096.232.155.474.313M62.503 47.233c2.027-1.969 4.488-2.934 7.271-3.105 3.588-.22 7.147 1.253 8.74 5.096.899 2.165 1.048 4.244.757 6.485 2.14-.402 4.176-.971 6.245-1.138 3.99-.319 7.799.452 10.919 3.12 1.393 1.192 2.787 2.634 3.54 4.26.895 1.928 1.265 4.142.666 6.374-1.057 3.927-2.748 7.435-6.57 9.33-3.043 1.507-6.416 1.871-9.753 2.034-2.604.126-5.225-.12-7.84-.183-2.42-.06-4.844-.094-7.265-.148-2.688-.062-5.382-.056-8.063-.23-2.136-.139-4.252-.685-6.383-.721-2.764-.045-5.53.274-8.298.365-2.797.095-5.599.037-8.391.165-5.24.24-10.456.427-15.28-2.182-2.09-1.131-3.996-2.55-5.216-4.587-1.907-3.187-1.76-6.442.19-9.629 2.457-4.019 5.87-6.62 10.64-7.055 2.065-.189 4.16-.03 6.12-.03-.222-1.636-.457-3.252-.653-4.872-.414-3.384-.491-6.76.19-10.13.88-4.358 3.535-7.395 7.546-8.848 6.99-2.53 14.31.037 18.056 6.924 1.499 2.754 1.97 5.803 2.216 9.11.314-.204.489-.28.616-.405M221.277 92.25c-.46-3.4 1.21-5.35 3.494-6.262 1.92-.766 4.342-.143 6.65 2.553.142-.712.245-1.34.394-1.954.378-1.57 1.34-2.814 2.33-4.027 2.369-2.907 5.482-3.902 9.094-3.335 1.585.249 3.192.619 4.675 1.213 2.89 1.158 4.436 3.443 4.888 6.514.307 2.075-.165 4.001-.979 5.943.917.06 1.825.02 2.688.196 2.15.435 3.734 1.622 4.553 3.73.717 1.846 1.085 3.726.405 5.65-.643 1.815-1.506 3.405-3.4 4.35-2.49 1.24-5.047 1.933-7.822 1.984-4.217.08-8.432.354-12.645.329-2.81-.017-5.613-.447-8.422-.627-2.324-.148-4.659-.112-6.975-.314-2.826-.247-5.76-.189-8.234-1.927-1.599-1.124-2.515-2.64-2.755-4.661-.258-2.193.581-3.99 1.603-5.766.234-.408.643-.748 1.036-1.029 2.697-1.93 5.692-2.831 9.019-2.543.107.009.216-.01.403-.017" fill="#D8EEF9"/><path d="M306.501 345.233h-179.8a9.882 9.882 0 0 1-8.455-4.77 9.906 9.906 0 0 1-.308-9.71l89.895-172.275a9.884 9.884 0 0 1 8.762-5.315 9.885 9.885 0 0 1 8.762 5.315l89.666 171.84a9.852 9.852 0 0 1 1.364 5.018c0 5.466-4.426 9.897-9.886 9.897" fill="#8CB1C3"/><path d="M216.595 153.163a9.885 9.885 0 0 1 8.762 5.315l89.666 171.84a9.852 9.852 0 0 1 1.364 5.018c0 5.466-4.426 9.897-9.886 9.897H216.91" fill="#4B84A1"/><path d="M238.534 283.22H58.733a9.882 9.882 0 0 1-8.454-4.77 9.906 9.906 0 0 1-.308-9.71l89.895-172.275a9.884 9.884 0 0 1 8.761-5.315 9.885 9.885 0 0 1 8.763 5.315l89.666 171.84a9.852 9.852 0 0 1 1.364 5.018c0 5.466-4.426 9.897-9.886 9.897" fill="#6F9DB4"/><path d="M148.628 91.15a9.885 9.885 0 0 1 8.762 5.315l89.666 171.84a9.852 9.852 0 0 1 1.364 5.018c0 5.466-4.426 9.897-9.886 9.897h-90.21" fill="#4B84A1"/><path d="M481.395 307.036H366.11c-3.422 0-6.6-1.91-8.403-5.047-1.803-3.139-1.973-7.06-.45-10.366l83.637-181.664c1.67-3.627 5.1-5.921 8.854-5.921 3.754 0 7.184 2.294 8.854 5.92l22.793 49.486" fill="#6F9DB4"/><path d="M481.395 159.896c0-.112-.03-.34 0-.43l-22.793-49.507c-1.67-3.627-5.1-5.921-8.854-5.921l.391 202.998h31.256c-.104-1.437-.052-2.754-.044-4.21.002-.129-.04-.516 0-.618-.308-5.417-.1-10.664.096-16.084.16-4.433-.135-8.765-.051-13.196-.004-1.071.002-2.485 0-3.557-.031-1.336.127-2.324 0-3.66" fill="#4B84A1"/><path d="M481.371 299.412c0-.278-.13-2.17.024-2.318l-74.828-150.809a9.886 9.886 0 0 0-8.854-5.494 9.885 9.885 0 0 0-8.854 5.494L305.22 314.85a9.91 9.91 0 0 0 .452 9.618 9.883 9.883 0 0 0 8.402 4.683h167.289c.273 0-.266.021 0 0-.012-9.832.012-19.906.008-29.738" fill="#4B84A1"/><path d="M481.351 313.871c0-2.504-.079-5.148 0-7.651.063-2.012 0-3.393 0-5.61 0-.34-.146-3.314.043-3.516l-74.827-150.809a9.886 9.886 0 0 0-8.854-5.494l.391 188.359h83.26c.22 0-.23.015-.013 0v-15.28z" fill="#386379"/><path d="M366.256 195.17c1.492 5.355 8.3 5.937 12.843 4.349 4.2-1.47 7.613-5.037 11.97-5.959 2.808-.595 4.801 1.835 6.266 3.848 1.578 2.17 3.223 5.17 5.746 6.382 2.809 1.349 6.424.774 8.027-2.084 1.693-3.017 2.843-6.335 6.39-7.632 3.703-1.356 8.137-.566 11.8-1.974l-22.731-45.815a9.885 9.885 0 0 0-8.854-5.494 9.885 9.885 0 0 0-8.854 5.494l-22.957 46.268c.016.896.119 1.775.354 2.618" fill="#FFF"/><path d="M366.256 195.17c1.492 5.355 8.3 5.937 12.843 4.349 4.2-1.47 7.613-5.037 11.97-5.959 2.808-.595 4.801 1.835 6.266 3.848 1.578 2.17 3.223 5.17 5.746 6.382 2.809 1.349 6.424.774 8.027-2.084 1.693-3.017 2.843-6.335 6.39-7.632 3.703-1.356 8.137-.566 11.8-1.974l-22.731-45.815a9.885 9.885 0 0 0-8.854-5.494 9.885 9.885 0 0 0-8.854 5.494l-22.957 46.268c.016.896.119 1.775.354 2.618z" stroke="#FFF" stroke-width="2" stroke-linecap="round" stroke-linejoin="round"/><path d="M381.66 326.83h-179.8a9.884 9.884 0 0 1-8.2-4.37 9.909 9.909 0 0 1-.958-9.254l89.894-221.453a9.885 9.885 0 0 1 9.158-6.17 9.886 9.886 0 0 1 9.159 6.17l89.7 220.973a9.88 9.88 0 0 1 .933 4.207c0 5.466-4.425 9.897-9.885 9.897" fill="#3779A1"/><path d="M291.754 85.582a9.885 9.885 0 0 1 9.158 6.171l89.7 220.973c.6 1.277.935 2.703.935 4.207 0 5.466-4.426 9.897-9.886 9.897H291.45" fill="#386379"/><path d="M272.032 149.406c3.573 2.57 5.294 6.911 7.672 10.466 2.51 3.748 5.677 7.907 10.11 9.467 2.68.942 5.91 1.373 8.69.535 2.578-.777 4.519-2.408 6.792-3.759 3.426-2.037 7.06-2.843 10.811-1.172 4.682 2.084 10.034 4.328 14.766.925.034-.024.063-.05.095-.074l-30.056-74.04a9.886 9.886 0 0 0-9.158-6.172 9.886 9.886 0 0 0-9.157 6.171l-22.271 54.863c4.144-.247 8.188.258 11.706 2.79" fill="#FFF"/><path d="M272.032 149.406c3.573 2.57 5.294 6.911 7.672 10.466 2.51 3.748 5.677 7.907 10.11 9.467 2.68.942 5.91 1.373 8.69.535 2.578-.777 4.519-2.408 6.792-3.759 3.426-2.037 7.06-2.843 10.811-1.172 4.682 2.084 10.034 4.328 14.766.925.034-.024.063-.05.095-.074l-30.056-74.04a9.886 9.886 0 0 0-9.158-6.172 9.886 9.886 0 0 0-9.157 6.171l-22.271 54.863c4.144-.247 8.188.258 11.706 2.79z" stroke="#FFF" stroke-width="2" stroke-linecap="round" stroke-linejoin="round"/><path d="M-12.938 239.703l50.856-97.464a9.883 9.883 0 0 1 17.525 0l89.666 171.84a9.86 9.86 0 0 1 1.364 5.02c0 5.465-4.426 9.897-9.886 9.897-.005 0-.009-.002-.013 0H-12.938" fill="#4B84A1"/><path d="M46.68 136.925a9.885 9.885 0 0 1 8.763 5.315l89.667 171.84a9.859 9.859 0 0 1 1.363 5.018c0 5.466-4.426 9.897-9.886 9.897H45.141" fill="#386379"/><path d="M9.866 199.876c2.784 2.405 6.65 3.218 10.251 3.237 2.99.016 6.29.314 9.16-.7 2.639-.934 4.682-2.504 6.666-4.44 2.686-2.622 5.26-5.049 9.087-5.683 3.547-.588 6.963.905 10.388 1.524 5.644 1.021 9.326-1.703 13.581-5.042 2.532-1.987 5.173-3.804 8.158-4.917L55.443 142.24a9.885 9.885 0 0 0-8.763-5.315 9.885 9.885 0 0 0-8.762 5.315l-29.34 56.227c.373.507.795.984 1.288 1.41" fill="#FFF"/><path d="M9.866 199.876c2.784 2.405 6.65 3.218 10.251 3.237 2.99.016 6.29.314 9.16-.7 2.639-.934 4.682-2.504 6.666-4.44 2.686-2.622 5.26-5.049 9.087-5.683 3.547-.588 6.963.905 10.388 1.524 5.644 1.021 9.326-1.703 13.581-5.042 2.532-1.987 5.173-3.804 8.158-4.917L55.443 142.24a9.885 9.885 0 0 0-8.763-5.315 9.885 9.885 0 0 0-8.762 5.315l-29.34 56.227c.373.507.795.984 1.288 1.41z" stroke="#FFF" stroke-width="2" stroke-linecap="round" stroke-linejoin="round"/><path d="M-12.895 262.486c1-.698 2.305-1.05 3.895-1.05 4.356 0 10.449 2.856 12.31 5.767a.202.202 0 0 0 .03-.087c.668-4.978 2.124-8.615 7.313-11.369 1.85-.98 3.66-1.478 5.378-1.478 2.966 0 5.616 1.437 7.877 4.275a.285.285 0 0 0 .059-.078c.458-1.089.702-2.22.96-3.419l.145-.666c.67-3.021 2.875-4.63 4.72-5.692 2.289-1.318 5.314-1.958 9.25-1.958.761 0 1.545.023 2.396.071 6.688.38 12.525 5.13 15.613 12.706a.135.135 0 0 0 .043.04c.138-.754.239-1.516.336-2.254.112-.846.228-1.72.396-2.588.565-2.919 2.796-4.407 4.677-5.378 3.186-1.647 7.183-1.867 9.912-1.89l.147-.001c5.951 0 10.383 3.159 13.546 9.656a.093.093 0 0 0 .02-.031c.457-6.006 4.517-13.024 14.458-13.024 5.167 0 10.3 2.192 13.741 5.865h.007c.22-1.751.014-3.451-.206-5.249-.131-1.085-.268-2.208-.308-3.359-.208-6.14 6.749-8.954 8.887-9.671a13.15 13.15 0 0 1 4.178-.7c5.517 0 10.292 3.79 11.884 9.433.02.075.033.15.035.228l.021.028a.11.11 0 0 0 .044-.021c.015-.02.041-.047.064-.071 5.728-7.655 13.22-11.696 21.674-11.696.4 0 .803.008 1.208.026 5.573.25 10.21 2.118 13.41 5.402 3.293 3.38 4.636 8.084 5.439 11.805a.95.95 0 0 1 .02.167l.024.756c.02.63.042 1.26.053 1.89.019-.003.04-.006.068-.019.902-.43 1.818-.648 2.726-.648 2.613 0 5.068 1.795 6.734 4.928 1.961 3.682 1.138 8.69-.286 12.147a.921.921 0 0 1-.343.418.177.177 0 0 0-.022.018c3.689 3.689 9.754 5.471 14.63 6.907l.184.053c5.734 1.688 12.026 2.89 20.402 3.897 2.613.312 5.323.466 8.286.466 4.338 0 8.553-.318 13.614-.732 1.553-.128 3.598-.274 5.642-.274 1.96 0 3.692.13 5.293.397.689.115 1.358.262 2.005.403 1.274.28 2.476.543 3.696.543.475 0 .92-.039 1.362-.12a.872.872 0 0 1 .205-.014c.566.023 1.165.041 1.775.041 3.3 0 5.29-.551 6.089-1.682a.93.93 0 0 1 .403-.321c-.433-3.431-.65-7.369.87-10.825 1.223-2.781 4.285-4.443 8.192-4.443 2.067 0 4.16.487 5.744 1.335-.007.027.028-.022.038-.098.087-.692.096-1.38.032-2.297a.934.934 0 0 1 .116-.515c2.228-6.022 5.099-10.023 9.031-12.586 2.267-1.476 4.926-2.225 7.903-2.225 1.93 0 3.971.317 6.07.938 6.154 1.828 11.184 5.644 13.803 10.468 2 3.687 2.321 7.597 2.632 11.379.18 2.174.365 4.424.873 6.581l.01.002c1.419-6.269 5.847-14.15 12.564-17.682 1.51-.795 2.999-1.197 4.426-1.197 7.792 0 11.337 11.55 11.426 17.442.115.112.178.23.223.383.001.005.004.01.007.016.774-.837 1.547-1.72 2.294-2.572 4.383-5.001 8.915-10.173 15.991-10.173.694 0 1.409.052 2.125.155 10.181 1.457 11.448 10.379 12.566 18.253l.163 1.144.002-.001c1.365-5.546 6.124-13.744 13.71-13.744l.22.002c8.92.196 9.752 12.178 10.153 17.938l.006.095-.004.073c4.424-14.478 13.033-18.26 15.566-19.076 1.195-.385 2.369-.579 3.488-.579 8.435 0 12.317 10.704 12.87 17.909 0-.06 0-.118.007-.152 1.107-7.29 7.252-14.645 18.482-14.645 1.77 0 3.541.21 5.263.626 4.692 1.13 8.05 2.899 11.304 6.775.14.166-.034.7-.034.917l.09 147.069c0 .512-.095 1.585-.095 1.585h-494.29" fill="#90AD68"/><path d="M-12.895 262.486c1-.698 2.305-1.05 3.895-1.05 4.356 0 10.449 2.856 12.31 5.767a.202.202 0 0 0 .03-.087c.668-4.978 2.124-8.615 7.313-11.369 1.85-.98 3.66-1.478 5.378-1.478 2.966 0 5.616 1.437 7.877 4.275a.285.285 0 0 0 .059-.078c.458-1.089.702-2.22.96-3.419l.145-.666c.67-3.021 2.875-4.63 4.72-5.692 2.289-1.318 5.314-1.958 9.25-1.958.761 0 1.545.023 2.396.071 6.688.38 12.525 5.13 15.613 12.706a.135.135 0 0 0 .043.04c.138-.754.239-1.516.336-2.254.112-.846.228-1.72.396-2.588.565-2.919 2.796-4.407 4.677-5.378 3.186-1.647 7.183-1.867 9.912-1.89l.147-.001c5.951 0 10.383 3.159 13.546 9.656a.093.093 0 0 0 .02-.031c.457-6.006 4.517-13.024 14.458-13.024 5.167 0 10.3 2.192 13.741 5.865h.007c.22-1.751.014-3.451-.206-5.249-.131-1.085-.268-2.208-.308-3.359-.208-6.14 6.749-8.954 8.887-9.671a13.15 13.15 0 0 1 4.178-.7c5.517 0 10.292 3.79 11.884 9.433.02.075.033.15.035.228l.021.028a.11.11 0 0 0 .044-.021c.015-.02.041-.047.064-.071 5.728-7.655 13.22-11.696 21.674-11.696.4 0 .803.008 1.208.026 5.573.25 10.21 2.118 13.41 5.402 3.293 3.38 4.636 8.084 5.439 11.805a.95.95 0 0 1 .02.167l.024.756c.02.63.042 1.26.053 1.89.019-.003.04-.006.068-.019.902-.43 1.818-.648 2.726-.648 2.613 0 5.068 1.795 6.734 4.928 1.961 3.682 1.138 8.69-.286 12.147a.921.921 0 0 1-.343.418.177.177 0 0 0-.022.018c3.689 3.689 9.754 5.471 14.63 6.907l.184.053c5.734 1.688 12.026 2.89 20.402 3.897 2.613.312 5.323.466 8.286.466 4.338 0 8.553-.318 13.614-.732 1.553-.128 3.598-.274 5.642-.274 1.96 0 3.692.13 5.293.397.689.115 1.358.262 2.005.403 1.274.28 2.476.543 3.696.543.475 0 .92-.039 1.362-.12a.872.872 0 0 1 .205-.014c.566.023 1.165.041 1.775.041 3.3 0 5.29-.551 6.089-1.682a.93.93 0 0 1 .403-.321c-.433-3.431-.65-7.369.87-10.825 1.223-2.781 4.285-4.443 8.192-4.443 2.067 0 4.16.487 5.744 1.335-.007.027.028-.022.038-.098.087-.692.096-1.38.032-2.297a.934.934 0 0 1 .116-.515c2.228-6.022 5.099-10.023 9.031-12.586 2.267-1.476 4.926-2.225 7.903-2.225 1.93 0 3.971.317 6.07.938 6.154 1.828 11.184 5.644 13.803 10.468 2 3.687 2.321 7.597 2.632 11.379.18 2.174.365 4.424.873 6.581l.01.002c1.419-6.269 5.847-14.15 12.564-17.682 1.51-.795 2.999-1.197 4.426-1.197 7.792 0 11.337 11.55 11.426 17.442.115.112.178.23.223.383.001.005.004.01.007.016.774-.837 1.547-1.72 2.294-2.572 4.383-5.001 8.915-10.173 15.991-10.173.694 0 1.409.052 2.125.155 10.181 1.457 11.448 10.379 12.566 18.253l.163 1.144.002-.001c1.365-5.546 6.124-13.744 13.71-13.744l.22.002c8.92.196 9.752 12.178 10.153 17.938l.006.095-.004.073c4.424-14.478 13.033-18.26 15.566-19.076 1.195-.385 2.369-.579 3.488-.579 8.435 0 12.317 10.704 12.87 17.909 0-.06 0-.118.007-.152 1.107-7.29 7.252-14.645 18.482-14.645 1.77 0 3.541.21 5.263.626 4.692 1.13 8.05 2.899 11.304 6.775.14.166-.034.7-.034.917l.09 147.069c0 .512-.095 1.585-.095 1.585h-494.29" stroke="#749942"/><path d="M477.287 295.052c.159-.12-.086.08-.12.115-.049.048-.096.098-.143.146-.156.158-.353.303-.573.356-.496.12-1.03-.04-1.526-.111-.698-.1-.876-1.114-.408-1.55.133-.126.28-.235.43-.338.156-.332.536-.606.908-.566.366-.263.873-.256 1.208.079a.906.906 0 0 1 .16.23c.022.012.044.021.064.037.59.45.588 1.15 0 1.602m-3.29-17.723c.165-.485.484-.876.787-1.278.304-.404.794-.611 1.269-.334.23.136.403.405.453.686.058.02.118.03.175.057.414.198.747.692.71 1.164-.089 1.148-1.152 1.808-2.177 2.057-.524.127-.96-.163-1.14-.648-.205-.55-.27-1.14-.078-1.704m-10.221 8.27c-.134 1.052-.47 2.372-1.543 2.844-.97.428-1.972.124-2.746-.547-.463-.401-.847-.981-.951-1.597-.002-.008-.005-.013-.008-.019-.23-.663.187-1.369.644-1.818a4.719 4.719 0 0 1 1.72-1.064c.63-.227 1.404-.292 2.002.063.738.437.985 1.326.882 2.138m-1.167-13.513c1.195 0 1.195 1.855 0 1.855-1.196 0-1.196-1.855 0-1.855m-17.436 19.731c-.046.144-.09.29-.12.439l-.018.104c-.022.234-.033.506-.173.71-.341.493-.822.543-1.365.632-.55.09-.93-.141-1.14-.648a1.318 1.318 0 0 1-.017-.915v-.001a.936.936 0 0 1 .37-.903c.01-.02.023-.04.034-.06.12-.2.261-.35.45-.485.482-.34 1.077-.147 1.553.08.36.17.545.68.426 1.047m-8.309-18.7c-1.195 0-1.195-1.857 0-1.857 1.196 0 1.196 1.856 0 1.856m-8.822 7.645c-.065.403-.326.708-.66.928-.159.3-.464.526-.813.5a5.06 5.06 0 0 1-.494-.066c-.794.088-1.703.03-2.193-.688-.275-.4-.218-.992.067-1.37.038-.052.085-.095.127-.143.18-.816.938-1.421 1.788-1.444 1.172-.032 2.37 1.081 2.178 2.283m-40.3 6.803c-.345.49-.84.872-1.375 1.136-.596.294-1.499.59-2.022-.02-.691-.806-.076-1.81.437-2.527.282-.392.76-.584 1.21-.358.22-.036.439-.059.655-.051.436.016.953.16 1.166.59.195.395.192.862-.07 1.23m-4.7-16.423a2.22 2.22 0 0 1-.563-.057l-.124-.027a.86.86 0 0 1-.067-.003.994.994 0 0 1-.756-.394c-.295-.226-.483-.626-.344-.986a6.45 6.45 0 0 1 .372-.817c.004-.057.007-.116.007-.174a.937.937 0 0 1 .927-.928c.152 0 .298.044.429.114.406-.008.788.187 1.054.56.336.47.33 1.15.267 1.697-.073.652-.581.98-1.203 1.015m-11.053-2.562c-1.195 0-1.195-1.855 0-1.855s1.195 1.855 0 1.855m-3.568 16.726c-.075.009-.149.009-.224.009-.083.03-.167.057-.255.072-.952.17-1.725-.279-2.214-1.029a1.434 1.434 0 0 1-.486-.473c-.442-.678-.257-1.714.215-2.333.633-.832 1.672-1.35 2.718-.94.4.155.75.386 1.035.667.02.019.042.036.06.056.045.047.084.097.124.148.056.069.111.138.162.213.009.016.02.03.03.046.844 1.306.67 3.339-1.165 3.564m-13.732 1.42c-1.195 0-1.195-1.856 0-1.856s1.195 1.856 0 1.856m-9.483-9.12c-.217.518-.685.995-1.302.924-.601-.069-1.116-.447-1.267-1.06-.158-.641.034-1.265.338-1.832.24-.444.843-.58 1.268-.332.046.027.074.069.114.102.27.041.522.182.631.437.227.532.455 1.188.218 1.76m-4.687-12.975c-.565.123-1.077.039-1.464-.356-.033-.014-.065-.032-.097-.048a1 1 0 0 1-.554-.408c-.326-.471.002-1.073.298-1.467.204-.273.36-.44.689-.569.3-.117.696.026.911.24.05.052.09.104.123.156.13.145.254.298.33.476l.047.112a.933.933 0 0 1 .14.275c.044.076.083.152.13.226.316.487.017 1.24-.553 1.363m-22.078-9.864c-1.195 0-1.195-1.856 0-1.856 1.196 0 1.196 1.856 0 1.856m-3.806 12.807c-1.22 1.011-3.247.676-4.437-.235-.61-.467-1.174-1.214-.913-2.035.088-.278.237-.508.418-.704-.001-1.421 1.369-2.335 2.714-2.17 1.398.172 2.702 1.14 2.917 2.592.135.914.065 1.919-.699 2.552m-14.401-15.508a2.977 2.977 0 0 1-.097.382.687.687 0 0 1 .046.113c.144.522-.175.963-.647 1.142l-.156.058c-.394.398-.912.54-1.369.365-.32.037-.666.038-.933-.157-.92-.672-.387-1.675.291-2.267.114-.099.239-.206.373-.313.09-.123.22-.21.366-.263.347-.227.728-.404 1.106-.396.742.013 1.139.65 1.02 1.336m-5.551 19.61c-.5.233-1.005.224-1.537.102-.528-.12-1.017-.3-1.178-.888-.128-.464-.002-1.052.01-1.38a.983.983 0 0 1 .34-.708c.2-.537.738-.779 1.298-.687.61.098 1.16.79 1.432 1.298.375.706.534 1.844-.365 2.263m-15.373-2.27c-1.196 0-1.196-1.855 0-1.855 1.195 0 1.195 1.856 0 1.856m-101.908-10.788a.866.866 0 0 1-.778.243c.045.006.063.013-.043-.003l-.013-.002h-.005c-.022-.002-.043 0-.064 0 .01.003.012.005-.003 0-.04-.002-.079-.003-.118-.002-.143.005-.286.017-.429.024-.33.015-.715.036-1.03-.081-.632-.236-1.023-.79-.857-1.483.136-.571.6-1.048 1-1.452a.925.925 0 0 1 1.051-.17c.11-.03.22-.05.332-.05.575 0 1.033.462 1.036 1.038.002.156-.03.313-.06.467l-.02.108v.05l.001.001c.393.319.329.983 0 1.312m-11.99-20.53c-.048.062-.104.116-.156.172-.592 1.358-1.924 2.003-3.424 1.72-1.344-.255-2.743-1.115-3.284-2.414-.224-.537-.201-1.013-.025-1.424.07-.543.305-1.065.722-1.453.273-.254.581-.439.91-.567a2.978 2.978 0 0 1 1.54-1.023c1.422-.372 2.84.262 3.59 1.525.606 1.024.913 2.445.126 3.465m-10.698 14.742c-.23.42-.726.789-1.228.749a1.387 1.387 0 0 1-1.26-.992c-.175-.545-.05-1.158.15-1.677.181-.471.615-.793 1.14-.647a.882.882 0 0 1 .326.173c.43-.021.791.268.938.68.196.55.22 1.19-.066 1.714m-7.625-10.436c-1.195 0-1.195-1.856 0-1.856 1.196 0 1.196 1.856 0 1.856m.577 17.255c-.245.701-.935.854-1.565 1.063-.523.173-.956-.2-1.14-.65-.134-.323-.114-.665-.08-.986a1.38 1.38 0 0 1-.119-.544c.002-.812.779-1.153 1.463-1.26.505-.077.988.12 1.14.65.15.516.492 1.18.301 1.727m-17.457-.695a4.075 4.075 0 0 1-.41.486c-.226.395-.535.734-.947.942-.996.503-2.153.296-2.943-.457-.813-.477-1.464-1.281-1.37-2.264.135-1.399 1.133-2.483 2.56-2.596a3.073 3.073 0 0 1 2.08.616c.297.144.57.333.782.56.696.744.858 1.85.248 2.713m-2.636-18.625c.013-.027.034-.078.05-.118l.013-.044c.047-.477.42-.866.919-.866h.017a.984.984 0 0 1 1.068-.08c.324.192.612.506.69.888.03.152.048.308.066.463l.004.04v.002l-.004-.053c.023.073.02.08.005.053l.002.023c.176.45.105.95-.351 1.216a.96.96 0 0 1-.503.12.896.896 0 0 1-.583.214c-.719-.008-1.597-.233-1.606-1.122-.004-.27.095-.5.213-.736m-15.29 23.715c-1.195 0-1.195-1.856 0-1.856 1.196 0 1.196 1.856 0 1.856m-4.479-10.606c-.489 1.114-2.53 1.693-3.37.653-.836-1.038-.575-2.523.047-3.609.374-.652 1.144-.525 1.518-.083.354-.06.73-.013 1.02.198.89.65 1.233 1.82.785 2.84m-35.188.121c.026.253-.04.586-.187.799-.256.367-.541.634-1.022.612-.22-.01-.45-.024-.658-.096-.507-.174-.863-.6-.87-1.15-.002-.17.031-.342.061-.51.005-.022.01-.063.014-.098.002-.034.006-.068.006-.103a.939.939 0 0 1 .927-.928c.147 0 .288.041.415.107a.84.84 0 0 1 .655-.073c.44.12.843.673.647 1.14a.565.565 0 0 1-.023.063c.013.079.027.159.035.237m-9.826 19.614a1.982 1.982 0 0 1-.703.643.942.942 0 0 1-1.269-.334c-.238-.391-.35-.873-.209-1.323.034-.106.08-.208.112-.314 0-.02-.002-.039-.001-.058a.935.935 0 0 1 .653-1.11.931.931 0 0 1 1.023.4c.056.021.112.044.163.073.397.221.569.6.605 1.04.021.264-.211.748-.374.983m-11.881-15.52c-1.195 0-1.195-1.856 0-1.856 1.196 0 1.196 1.856 0 1.856m-6.546 13.073c-1.75.616-3.274-.829-3.49-2.5-.28-2.155 1.8-3.204 3.652-3.15.302.01.528.135.677.317.262.13.502.304.705.522 1.522 1.641.41 4.125-1.544 4.811m-6.802-16.85c-.553.453-1.4 1.1-2.13.578-.316-.225-.462-.493-.602-.844a1.87 1.87 0 0 0-.166-.335c-.272-.426-.09-1.021.332-1.27a.9.9 0 0 1 .778-.062c.023-.007.038-.024.062-.03.3-.084.656.01.892.224.047.014.095.027.142.042.27.094.473.201.692.384.36.304.367 1.01 0 1.313m-13.632 27.283c-1.195 0-1.195-1.856 0-1.856s1.195 1.856 0 1.856m-2.341-14.1a1.99 1.99 0 0 1-.287.433c-.079.13-.175.253-.298.356a2.28 2.28 0 0 1-1.095.508c-.585.165-1.208.157-1.705-.119-.74-.41-.933-1.244-.785-2.023.138-.724.514-1.653 1.217-2.004.73-.368 1.495-.166 2.057.316.832.58 1.389 1.481.896 2.532M5.93 286.287c-.94.675-2.352.445-3.057-.466-.9-1.162-.545-2.564.421-3.566.311-.323.69-.34.997-.192.16-.073.33-.127.512-.155.629-.096 1.37.038 1.798.56.96 1.17.515 2.967-.671 3.82m-10.449-14.456c-.428.593-1.075 1.524-1.947 1.251-.534-.166-.764-.645-.802-1.155a.848.848 0 0 1-.18-.811c.12-.44.673-.845 1.14-.648.027.01.282.055.165.058a.784.784 0 0 1 .099 0 5.249 5.249 0 0 1 .725-.092c.66-.025 1.213.825.8 1.397m-2.448 21.904c-1.195 0-1.195-1.856 0-1.856s1.195 1.856 0 1.856m-5.973 129.818h494.29s.094-1.344.094-1.856l-.089-147.184c0-.219.174-.364.034-.531-3.254-3.876-6.612-5.645-11.304-6.775a22.453 22.453 0 0 0-5.263-.625c-11.23 0-17.375 7.355-18.482 14.643a1.054 1.054 0 0 0-.007.153c-.553-7.206-4.435-17.91-12.87-17.91-1.12 0-2.293.196-3.488.58-2.533.815-11.142 4.598-15.566 19.076l.004-.073-.007-.095c-.4-5.76-1.232-17.742-10.151-17.938l-.221-.003c-7.586 0-12.345 8.2-13.71 13.745h-.002l-.163-1.143c-1.118-7.874-2.385-16.796-12.566-18.253a15.027 15.027 0 0 0-2.125-.155c-7.076 0-11.608 5.172-15.99 10.173-.748.853-1.52 1.735-2.295 2.572-.003-.006-.006-.01-.007-.015a.82.82 0 0 0-.223-.383c-.089-5.893-3.634-17.443-11.426-17.443-1.427 0-2.916.403-4.426 1.197-6.717 3.533-11.145 11.413-12.565 17.682l-.009-.001c-.508-2.158-.693-4.408-.873-6.583-.311-3.781-.633-7.69-2.632-11.378-2.619-4.824-7.649-8.64-13.803-10.467-2.099-.623-4.14-.94-6.07-.94-2.977 0-5.636.75-7.903 2.226-3.932 2.563-6.803 6.564-9.03 12.586a.933.933 0 0 0-.116.516c.063.917.054 1.604-.033 2.297-.01.076-.045.124-.038.097-1.583-.848-3.677-1.335-5.744-1.335-3.907 0-6.969 1.661-8.192 4.442-1.52 3.457-1.303 7.394-.87 10.826a.931.931 0 0 0-.403.321c-.798 1.131-2.79 1.682-6.089 1.682-.61 0-1.209-.018-1.775-.041a.906.906 0 0 0-.205.014c-.441.081-.887.12-1.362.12-1.22 0-2.422-.263-3.696-.542-.647-.142-1.316-.29-2.005-.404-1.6-.267-3.332-.396-5.293-.396-2.044 0-4.089.145-5.642.273-5.061.414-9.276.732-13.614.732-2.963 0-5.673-.153-8.286-.466-8.376-1.007-14.668-2.209-20.402-3.897l-.184-.053c-4.876-1.435-10.941-3.219-14.63-6.907l.022-.018a.917.917 0 0 0 .343-.418c1.424-3.458 2.247-8.464.286-12.147-1.666-3.133-4.12-4.928-6.734-4.928-.908 0-1.824.218-2.726.648-.027.014-.05.016-.068.02-.01-.631-.033-1.261-.053-1.891l-.024-.757a.95.95 0 0 0-.02-.166c-.803-3.721-2.146-8.424-5.439-11.805-3.2-3.284-7.837-5.152-13.41-5.402a27.342 27.342 0 0 0-1.208-.027c-8.454 0-15.946 4.042-21.674 11.697a.875.875 0 0 0-.063.071.11.11 0 0 1-.045.02l-.02-.027a.955.955 0 0 0-.036-.228c-1.592-5.643-6.367-9.433-11.883-9.433-1.388 0-2.794.236-4.18.7-2.137.716-9.095 3.531-8.886 9.672.04 1.15.177 2.273.309 3.358.219 1.798.426 3.498.205 5.249h-.007c-3.442-3.674-8.574-5.865-13.741-5.865-9.94 0-14.001 7.018-14.457 13.024a.1.1 0 0 1-.021.032c-3.163-6.498-7.595-9.658-13.546-9.658l-.147.001c-2.73.023-6.726.245-9.912 1.89-1.88.971-4.112 2.46-4.677 5.379a44.283 44.283 0 0 0-.396 2.588c-.097.738-.199 1.5-.336 2.254a.129.129 0 0 1-.043-.04c-3.088-7.577-8.925-12.327-15.613-12.706a41.986 41.986 0 0 0-2.396-.071c-3.936 0-6.961.64-9.25 1.958-1.845 1.063-4.05 2.67-4.72 5.692l-.145.666c-.258 1.198-.502 2.33-.96 3.419a.276.276 0 0 1-.06.078c-2.26-2.837-4.91-4.276-7.876-4.276-1.718 0-3.528.498-5.378 1.48-5.189 2.753-6.645 6.39-7.313 11.368a.202.202 0 0 1-.03.087c-1.861-2.912-7.954-5.768-12.31-5.768-1.59 0-2.896.354-3.895 1.05" fill="#749942"/><path d="M414.262 296.67c-19.306-1.361-38.277-3.336-57.176-6.95-19.156-3.667-38.027-8.237-57.034-12.381-36.524-7.963-73.52-13.15-111.37-13.42-69.586-.494-138.483 13.144-201.62 36.99v160.959h494.29V299.8c-22.392-.542-44.766-1.556-67.09-3.13" fill="#B0CC69"/><g transform="translate(-13 335.097)"><mask id="b" fill="#fff"><use xlink:href="#a"/></mask><path d="M251.504 119.973c-4.782-11.64-9.5-25.195-19.402-33.596-10.203-8.658-24.757-9.999-37.567-10.813-14.201-.904-28.463-1.157-42.64-2.346-16.022-1.343-32.467-4.064-45.704-13.826-11.77-8.678-20.644-20.34-30.98-30.545C63.379 17.162 49.359 9.322 33.349 4.807 22.528 1.757 11.246.177.062.71l.043 126.1 254.136-.039c-.942-2.172-1.846-4.627-2.737-6.798" fill="#9CB152" mask="url(#b)"/></g><path d="M283.025 274.114c.61 3.63.977 7.39 2.176 10.888 3.467 10.114 14.368 15.86 23.76 19.507 16.244 6.306 33.742 6.973 50.964 6.875 17.275-.1 35.341-1.372 52.135 3.529 8.68 2.532 15.96 6.792 23.44 11.772 7.7 5.126 15.428 10.16 24.204 13.266a83.975 83.975 0 0 0 21.647 4.566v-44.878c-22.391-.54-44.765-1.55-67.089-3.115-19.307-1.355-38.277-3.321-57.177-6.921-19.155-3.649-38.027-8.199-57.033-12.325a702.759 702.759 0 0 0-17.085-3.482c.018.107.04.212.058.318m136.992 76.61c-16.987-7.458-34.249-12.407-52.856-13.393-18.38-.976-36.72.811-54.983 2.717-18.371 1.915-36.856 4.002-55.358 3.34-15.772-.563-30.9-2.779-43.58-12.9-11.61-9.268-19.685-22.01-30.74-31.848-12.408-11.043-27.033-19.814-37.858-32.56-4.843.37-9.678.807-14.503 1.306 33.948 5.008 34.997 50.706 45.27 75.956 4.87 11.977 13.84 22.575 24.98 29.173 11.844 7.014 25.487 9.413 39.097 9.647 13.963.24 27.854-1.348 41.767-2.266 16.516-1.091 33.2-.925 49.74-.597 32.675.647 69.65 4.745 95.133 27.408 16.221 14.427 27.604 34.001 33.878 54.89h21.347v-70.303c-17.622-17.23-38.747-30.653-61.334-40.57" fill="#9CB152"/><g transform="translate(113.044 264.578)"><mask id="d" fill="#fff"><use xlink:href="#c"/></mask><path d="M326.774 197.32a635.432 635.432 0 0 1-4.812-8.906c-3.038-5.697-6.18-11.587-9.61-17.167-7.701-12.533-18.425-24.173-32.782-35.584-23.67-18.811-53.415-30.094-83.756-31.772-2.672-.147-5.416-.22-8.39-.22-7.382 0-14.902.46-22.173.906-6.99.428-14.218.87-21.331.905l-.72.001c-19.293 0-35.025-3.956-48.096-12.098-13.976-8.706-24.506-21.91-32.118-32.44-2.995-4.143-5.857-8.519-8.625-12.75-5.208-7.968-10.594-16.204-17.105-23.251-7.568-8.19-16.879-14.225-26.927-17.453C7.332 6.527 4.113 5.81.762 5.358a.618.618 0 0 1 .001-1.226A550.96 550.96 0 0 1 35.861.58a.663.663 0 0 1 .294.053c16.53 7.374 28.782 20.841 40.63 33.866 6.58 7.233 13.383 14.711 20.817 21.02 11.879 10.081 25.39 16.138 40.16 18 7.682.97 15.557 1.205 23.174 1.434 1.354.04 2.708.08 4.063.126 2.431.08 5.146.117 8.544.115 2.031 0 4.082-.011 6.135-.025 2.054-.012 4.109-.025 6.141-.025 3.411 0 6.137.037 8.58.118 19.853.652 32.833 1.534 52.906 4.783 15.734 2.547 36.31 10.1 51.334 15.615l.315.116c25.912 9.51 49.65 24.684 69.397 44.633.115.116 0-.163 0 0v56.919" fill="#3F8391" mask="url(#d)"/></g><path d="M352.534 367.076c-7.279-.642-14.019-2.46-17.8-8.88-.147-.073-.29-.15-.435-.228.808 1.8 1.366 3.792 2.485 5.573 3.673 5.856 8.896 6.94 15.662 7.472 6.47.51 16.72.293 22.685 4.484-4.026-7.451-14.727-7.728-22.597-8.421" fill="#FFF"/><path d="M252.04 287.026c-.19 1.2-.247 2.392-.247 3.606 0 1.493 2.316 1.495 2.317 0 0-.999.008-2 .164-2.99.098-.618-.158-1.248-.809-1.426-.55-.152-1.327.187-1.424.81m-4.943 2.268c-.201 1.062-.248 2.115-.248 3.194 0 1.493 2.316 1.495 2.317 0 0-.865.004-1.725.164-2.578.117-.615-.17-1.251-.809-1.427-.565-.156-1.308.192-1.424.81m-4.325-2.886c-.21 1.13-.248 2.256-.248 3.401 0 1.493 2.316 1.495 2.317 0 0-.93-.005-1.867.164-2.785.114-.614-.17-1.25-.809-1.426-.563-.155-1.31.191-1.424.81m-4.532 3.093c-.212.917-.247 1.845-.248 2.783 0 1.492 2.317 1.495 2.317 0 .001-.73 0-1.453.165-2.167.142-.609-.188-1.255-.809-1.426-.586-.161-1.283.197-1.425.81m18.494 1.545v1.65c0 .606.533 1.187 1.159 1.16.628-.029 1.158-.51 1.158-1.16v-1.65c0-.606-.532-1.187-1.158-1.16-.628.029-1.159.51-1.159 1.16m-23.685-2.474v1.65c0 .605.533 1.187 1.16 1.16.627-.03 1.158-.51 1.158-1.16v-1.65c0-.606-.533-1.188-1.159-1.16-.627.029-1.158.51-1.158 1.16m-105.304 41.456c-.19 1.201-.247 2.393-.248 3.608 0 1.492 2.317 1.495 2.317 0 0-1 .01-2.001.165-2.992.098-.618-.158-1.247-.809-1.426-.55-.152-1.327.187-1.425.81m-4.943 2.268c-.201 1.063-.247 2.116-.248 3.195 0 1.493 2.316 1.496 2.317 0 0-.865.004-1.725.165-2.579.116-.614-.171-1.25-.809-1.426-.565-.156-1.308.191-1.425.81m-4.325-2.886c-.209 1.128-.247 2.255-.248 3.4 0 1.493 2.316 1.496 2.317 0 0-.93-.005-1.866.165-2.784.114-.615-.17-1.25-.809-1.427-.564-.155-1.31.191-1.425.81m-4.532 3.093c-.21.917-.246 1.845-.247 2.783 0 1.492 2.317 1.495 2.317 0 0-.73 0-1.453.165-2.166.14-.61-.188-1.256-.81-1.427-.585-.16-1.283.197-1.425.81m18.495 1.546v1.649c0 .606.533 1.188 1.158 1.16.628-.029 1.159-.51 1.159-1.16v-1.65c0-.606-.533-1.187-1.159-1.16-.627.03-1.158.51-1.158 1.16m-23.685-2.474v1.65c0 .606.533 1.187 1.159 1.16.628-.03 1.158-.51 1.158-1.16v-1.65c0-.606-.532-1.187-1.158-1.16-.628.029-1.159.51-1.159 1.16" fill="#75AC34"/><path d="M309.432 358.46c3.535 5.727 5.383 12.056 6.872 18.569.12.521.897.388.91-.124.21-7.86-.37-15.696-1.234-23.505-.065-.587-.993-.594-.926 0 .863 7.81 1.443 15.644 1.234 23.505l.91-.123c-1.508-6.593-3.39-12.998-6.966-18.792-.313-.506-1.115-.04-.8.47" fill="#3AA970"/><path d="M314.333 344.373l.337 2.763" stroke="#683C11" stroke-width=".6" stroke-linecap="round" stroke-linejoin="round"/><path d="M316.714 353.174c.073.606-.443 1.165-1.154 1.252-.712.087-1.348-.332-1.423-.936l-.81-6.654c-.074-.604.44-1.164 1.153-1.252.71-.086 1.348.333 1.422.938l.812 6.652z" fill="#B17F4A"/><path d="M329.99 355.544l-2.51 2.393" stroke="#683C11" stroke-width=".6" stroke-linecap="round" stroke-linejoin="round"/><path d="M324.657 361.91c-.404.385-1.018.396-1.371.025-.352-.372-.312-.985.092-1.37l4.444-4.236c.404-.386 1.018-.396 1.371-.026.352.372.312.985-.093 1.37l-4.443 4.237z" fill="#B17F4A"/><path d="M306.147 351.135l.973 2.002" stroke="#683C11" stroke-width=".6" stroke-linecap="round" stroke-linejoin="round"/><path d="M310.563 357.673c.222.456-.046 1.043-.599 1.313-.55.27-1.18.118-1.402-.339l-2.44-5.022c-.223-.456.045-1.043.597-1.313.552-.27 1.18-.117 1.402.338l2.442 5.023z" fill="#B17F4A"/><path d="M144.812 289.363c1.506 5.682 3.444 11.216 3.842 17.124.032.474.774.478.741 0-.402-5.967-2.346-11.58-3.868-17.32-.122-.462-.838-.267-.715.196" fill="#3AA970"/><path d="M149.94 283.229a207.904 207.904 0 0 1-.418 12.08c-.235 3.783-.899 7.586-.868 11.375.004.418.615.505.728.098 1.398-5.01 3.442-9.424 7.319-13 .352-.323-.173-.847-.524-.523-3.948 3.638-6.085 8.217-7.51 13.327l.728.098c-.03-3.788.634-7.593.868-11.375.25-4.024.403-8.049.418-12.08.002-.478-.74-.479-.741 0" fill="#3AA970"/><path d="M150.876 275.395l-.163 2.295" stroke="#683C11" stroke-width=".48" stroke-linecap="round" stroke-linejoin="round"/><path d="M151.396 282.745c-.035.486-.526.847-1.098.808-.572-.042-1.007-.47-.973-.955l.38-5.348c.033-.486.524-.848 1.097-.807.572.042 1.007.468.973.954l-.379 5.348z" fill="#B17F4A"/><path d="M143.073 283.291l.617 1.861" stroke="#683C11" stroke-width=".48" stroke-linecap="round" stroke-linejoin="round"/><path d="M145.862 289.343c.141.424-.06.874-.45 1.002-.387.129-.817-.11-.957-.533l-1.547-4.665c-.141-.424.06-.872.448-1.001.389-.13.818.11.959.532l1.547 4.665z" fill="#B17F4A"/><path d="M160.963 288.97l-1.66 1.645" stroke="#683C11" stroke-width=".48" stroke-linecap="round" stroke-linejoin="round"/><path d="M157.166 293.99c-.288.286-.802.234-1.147-.115-.346-.35-.394-.865-.105-1.15l3.17-3.146c.288-.286.802-.234 1.148.116.345.349.392.865.104 1.15l-3.17 3.145z" fill="#B17F4A"/><path d="M235.907 316.005c2.561 5.333 4.53 10.852 4.568 16.836.003.507.791.509.788 0-.038-6.102-2.062-11.791-4.675-17.234-.22-.457-.9-.058-.681.398" fill="#3AA970"/><path d="M244.9 311.39c-.615 3.516-1.758 6.878-2.644 10.328-.925 3.6-.999 7.156-1.557 10.806-.076.497.684.711.76.21.553-3.619.64-7.237 1.556-10.807.887-3.45 2.029-6.812 2.644-10.328.088-.497-.67-.71-.759-.21" fill="#3AA970"/><path d="M248.233 321.143c-3.886 2.946-6.432 7.1-7.64 11.804-.125.491.634.701.76.21 1.153-4.493 3.558-8.514 7.277-11.332.4-.303.007-.988-.397-.682" fill="#3AA970"/><path d="M232.936 310.688l1.31 2.062" stroke="#683C11" stroke-width=".51" stroke-linecap="round" stroke-linejoin="round"/><path d="M237.232 315.686c.232.365.062.887-.378 1.167-.442.28-.986.213-1.216-.15l-2.545-4.007c-.232-.364-.062-.886.378-1.166.44-.282.985-.212 1.216.15l2.545 4.006z" fill="#B17F4A"/><path d="M254.434 316.614l-1.918 1.511" stroke="#683C11" stroke-width=".51" stroke-linecap="round" stroke-linejoin="round"/><path d="M249.316 321.65c-.372.293-.891.253-1.16-.089-.27-.341-.187-.857.186-1.151l4.1-3.23c.371-.293.892-.253 1.161.089.269.342.185.858-.187 1.151l-4.1 3.23z" fill="#B17F4A"/><path d="M247.456 304.34l-.647 2.152" stroke="#683C11" stroke-width=".51" stroke-linecap="round" stroke-linejoin="round"/><path d="M246.324 311.938c-.149.496-.743.756-1.326.58-.584-.176-.935-.721-.786-1.216l1.639-5.455c.15-.495.743-.755 1.326-.58.584.176.936.72.786 1.217l-1.639 5.454z" fill="#B17F4A"/><path d="M126.826 276.865c3.094 3.546 4.127 8.281 4.395 12.869.028.488.826.67.91.123.735-4.799.372-9.679 1.441-14.434.131-.582-.762-.83-.893-.247-1.07 4.762-.707 9.632-1.442 14.434l.91.124c-.283-4.855-1.4-9.782-4.666-13.526-.393-.45-1.046.208-.655.656m98.871 41.578c1.848 3.414 3.158 6.999 3.866 10.817.099.528.9.384.91-.124.103-4.937-.851-9.83.19-14.722.124-.583-.77-.831-.894-.247-1.06 4.98-.118 9.941-.222 14.97l.91-.124c-.724-3.902-2.074-7.554-3.96-11.039-.284-.524-1.084-.057-.8.469m241.834 47.968c.483 2.467 1.363 4.808 2.06 7.216.117.403.828.48.894 0 .65-4.639 1.897-9.035 3.866-13.29.25-.539-.55-1.011-.8-.47-2 4.32-3.3 8.798-3.96 13.514h.894c-.698-2.409-1.576-4.75-2.06-7.216-.114-.586-1.008-.338-.894.246" fill="#3AA970"/><path d="M389.275 44.864c0 14.174-11.479 25.666-25.636 25.666-14.16 0-25.636-11.492-25.636-25.666 0-14.176 11.476-25.667 25.636-25.667 14.157 0 25.636 11.49 25.636 25.667" fill="#FFF3A3"/><path d="M382.69 44.864c0 10.533-8.53 19.074-19.051 19.074-10.522 0-19.052-8.54-19.052-19.074 0-10.535 8.53-19.075 19.052-19.075 10.52 0 19.052 8.54 19.052 19.075" fill="#FFEB66"/><path d="M377.09 44.864c0 7.437-6.023 13.466-13.451 13.466-7.43 0-13.45-6.03-13.45-13.466 0-7.438 6.02-13.467 13.45-13.467 7.428 0 13.45 6.03 13.45 13.467" fill="#FFDE00"/></g></svg>