<svg width="120" height="120" viewBox="0 0 120 120" xmlns="http://www.w3.org/2000/svg" xmlns:xlink="http://www.w3.org/1999/xlink"><defs><path id="a" d="M.021 1.095h22.32v25.024H.021z"/><path id="c" d="M.03 1.274h14.35v15.65H.03z"/><path d="M8.542 1.412C5.72 2.818 3.895 5.818 3.448 8.932c-.468 3.273.73 5.679 1.596 8.688.683 2.378.02 4.865-.397 7.352-.97 5.77-2.238 11.48-3.165 17.251C-.288 53.285-.92 65.235 4.993 75.255c5.732 9.711 15.637 16.197 26.6 18.563 6.798 1.471 13.528 2.339 20.05-.416 10.028-4.236 17.57-13.871 19.004-24.759.053-.388.095-.775.13-1.163.898-10.286-4.313-19.994-14.597-23.25-5.395-1.707-11.059-2.36-16.646-3.135-3.199-.444-6.517-.781-9.337-2.352-7.701-4.288-4.478-15.983-3.926-22.932.303-3.913.493-8.226-1.915-11.334C22.177 1.677 18.05.218 14.142.218c-2.027 0-3.995.393-5.6 1.194" id="e"/></defs><g fill="none" fill-rule="evenodd"><g transform="matrix(-1 0 0 1 41.182 47.096)"><mask id="b" fill="#fff"><use xlink:href="#a"/></mask><path d="M2.936 18.549C1.67 18.07.008 17.519.021 15.866c.01-.874.463-1.679.948-2.408C3.122 10.208 4.165 6.658 5.424 3c.221-.644.486-1.342 1.073-1.691.646-.382 1.494-.21 2.14.17 1.583.93 2.288 3.091 1.558 4.768.493-1.355 1.595-2.563 2.93-3.135.97-.417 2.201-.388 2.966.337.427.403.658.969.81 1.54.14.535.218 1.101.107 1.644-.136.694-.89 1.98-1.385 2.502 1.154-1.217 2.984-2.199 4.66-1.07.863.578 1.423 1.516 1.789 2.485.215.563.37 1.182.192 1.754-.36 1.134-2.824 3.2-3.972 3.39 1.443-.238 2.911.809 3.408 2.182.494 1.371.139 2.948-.663 4.17-.8 1.22-2.002 2.134-3.261 2.878-1.01.597-2.108 1.114-3.278 1.186-1.747.108-2.206-.75-3.246-1.867-.942-1.017-2.021-2.414-3.135-3.17-1.59-1.069-3.39-1.853-5.18-2.524" fill="#7B3100" mask="url(#b)"/></g><path d="M76.6 11.635c-.753.008-1.495-.043-2.216-.203-2.248-.495-3.665-3.498-3.552-5.606.076-1.423 1.18-3.55 2.6-4.083.488-.18 1.018-.203 1.539-.203.757-.006 1.531.032 2.23.318.677.279 2.695 2.49 2.395 3.257.976-2.495 3.798-4.828 6.191-2.354 1.319 1.37.449 2.743 1.033 4.196-.553-1.379 2.973-1.66 3.488-1.639.802.036 1.649.13 2.29.61 1.217.909 1.161 2.707.988 4.212 1.381-.234 2.873.575 3.426 1.857.818 1.909-.876 4.31-2.613 5.086-.733.326-1.569-.114-2.19-.614-1.27-1.034-2.026-2.515-3.306-3.512-1.361-1.06-3.103-1.616-4.802-1.79-2.434-.246-5.029.443-7.501.468" fill="#EA2425"/><path d="M61.378 113.892a37.14 37.14 0 0 1 .545-1.797 15.8 15.8 0 0 0 .897-5.739c-.03-1.167-.376-2.714.125-3.812.375-.825 1.605-1.158 2.445-.978 1.53.329 1.07 1.815.966 2.961-.237 2.612-.444 5.177-.543 7.81 4.037-.48 7.403.353 9.247 4.296-2.221.625-4.57.431-6.86.457l-7.487.08c-.039-1.144.365-2.194.665-3.278" fill="#E78874"/><g transform="matrix(-1 0 0 1 69 102.48)"><mask id="d" fill="#fff"><use xlink:href="#c"/></mask><path d="M13.712 13.643c-.249-.898-.5-1.658-.547-1.792a15.85 15.85 0 0 1-.895-5.741c.028-1.167.373-2.714-.127-3.811-.375-.826-1.605-1.159-2.441-.977-1.53.326-1.071 1.814-.97 2.958.237 2.616.444 5.179.545 7.81-4.037-.479-7.405.352-9.247 4.295 2.223.625 4.568.434 6.859.457 2.494.028 4.992.054 7.488.081.038-1.146-.365-2.195-.665-3.28" fill="#F7B9AE" mask="url(#d)"/></g><path d="M27.586 77.654c-.896-10.288 4.313-19.994 14.597-23.25 5.397-1.709 11.06-2.36 16.646-3.135 3.199-.445 6.519-.781 9.34-2.354 7.699-4.286 4.475-15.981 3.925-22.93-.303-3.914-.495-8.228 1.914-11.334 3.31-4.256 11.114-5.41 15.815-3.065 2.822 1.406 4.646 4.405 5.092 7.518.469 3.274-.73 5.68-1.596 8.69-.682 2.378-.02 4.864.399 7.352.969 5.768 2.236 11.48 3.163 17.25 1.77 11.062 2.403 23.013-3.511 33.033-5.732 9.71-15.637 16.197-26.6 18.563-6.796 1.47-13.526 2.339-20.048-.417-10.029-4.235-17.57-13.87-19.006-24.758a29.727 29.727 0 0 1-.13-1.163" fill="#CC6101"/><g transform="matrix(-1 0 0 1 98.364 10.173)"><mask id="f" fill="#fff"><use xlink:href="#e"/></mask><path d="M26.1 32.734a73.7 73.7 0 0 1-5.443-5.332 45.125 45.125 0 0 0-1.966 5.07 74.971 74.971 0 0 0-3.83-2.758 38.014 38.014 0 0 1-2.714 4.131 48.822 48.822 0 0 1-3.194-3.344c.28.321-6.888 6.389-7.573 6.949-.015-1.126.113-2.248.244-3.366.195-1.671.538-3.177.903-4.785.216-.96.304-1.957.512-2.92.18-.861.64-1.912.64-2.79.902-3.785.443-7.36-.512-11.068-.906-3.525-.99-7.668 1.465-10.36C6.71-.118 10.035-.733 13.12-.95c3.821-.268 7.996-.008 10.921 2.45 2.196 1.845 3.253 4.638 3.583 7.418.2 1.73.445 3.643.112 5.344-.785 3.974-1.21 8.05-1.496 12.085a59.732 59.732 0 0 0-.154 3.284c-.01.471-.312 2.816.014 3.103" fill="#7B3100" mask="url(#f)"/></g><path d="M83.262 19.616c0 1.161.949 2.108 2.122 2.108 1.17 0 2.118-.947 2.118-2.108a2.115 2.115 0 0 0-2.118-2.112 2.116 2.116 0 0 0-2.122 2.112" fill="#040000"/><path d="M82.249 25.047a2.812 2.812 0 0 1-2.82 2.806 2.811 2.811 0 0 1-2.82-2.806 2.813 2.813 0 0 1 2.82-2.81 2.814 2.814 0 0 1 2.82 2.81" fill="#E89E9E"/><path d="M93.213 25.758c-1.559-.173-3.522-.571-3.413-2.05.027-.381.18-.741.332-1.095.808-1.9 1.95-4.9 4.36-5.134.137-.014.273-.015.409.014.193.039.366.142.533.246 1.958 1.217 3.675 2.74 5.434 4.223.836.705 1.714 1.466 2.037 2.511.111.345.148.737-.02 1.055-.303.573-1.074.66-1.723.665a67.607 67.607 0 0 1-7.949-.435" fill="#F2B16B"/><path d="M32.467 83.346c.99 1.437 1.607 2.466 3.278 3.076.947.344 4.104 1.606 5.049 1.064-1.116.64-2.23 1.28-3.348 1.919 2.356.444 4.726.887 7.125.897 2.398.007 4.848-.442 6.9-1.67A7.473 7.473 0 0 1 49.3 91.13c5.879.008 11.115-.907 16.218-3.924 4.387-2.597 8.17-6.382 9.59-11.373 1.757-6.175-2.464-13.107-8.59-14.898-.802-.235-1.624-.29-2.431-.295-14.027-.09-22.281 10.323-30.069 20.318-.214.282-1.792 1.925-1.551 2.39" fill="#A34600"/></g></svg>