<svg width="114" height="98" viewBox="0 0 114 98" xmlns="http://www.w3.org/2000/svg"><g fill="none" fill-rule="evenodd"><path d="M50.83 55.638s1.867 14.39-11.787 16.773c-11.56 2.422-15.857-4.58-15.857-4.58l-9.983 10.854s-3.688 4.308-6.009-.627L24.315 63.35s3.036 3.057 5.643.822c1.708-1.464 1.252-4.609 1.252-4.609" fill="#D9E2F3"/><path d="M10.844 78.642l-.04.008c-.011.013.035-.003-.015.016a5.11 5.11 0 0 1-.389.165c-.329.12-.844.237-1.31.047a1.532 1.532 0 0 1-.571-.397l-.192-.246-.135-.242c-.09-.145-.122-.286-.164-.374l-.056-.143.075.134c.054.082.104.214.21.343l.16.212.209.204c.157.123.337.235.537.275.398.102.8-.05 1.072-.192.138-.074.249-.145.333-.198a.824.824 0 0 1 .185-.087l.038-.013.053.488z" fill="#738CB5"/><path d="M50.83 55.638s1.867 14.39-11.787 16.773c-11.56 2.422-15.857-4.58-15.857-4.58l-9.983 10.854s-3.688 4.308-6.009-.627L24.315 63.35s3.036 3.057 5.643.822c1.708-1.464 1.252-4.609 1.252-4.609" stroke="#738CB5" stroke-width=".5"/><path d="M93.36 44.213s-8.122-.933-18.348-6.492c-10.224-5.56-12.79-12.624-13.335-14.468 0 0 19.077.46 32.143 18.55" fill="#FFFEF9"/><path d="M93.36 44.213s-8.122-.933-18.348-6.492c-10.224-5.56-12.79-12.624-13.335-14.468 0 0 19.077.46 32.143 18.55" stroke="#738CB5" stroke-width=".5"/><path d="M84.866 61.267c1.992 1.717 5.086 7.97 5.086 7.97l16.923 7.711s1.867.335 3.23-.262c1.397-.612 3.33 3.758 3.33 3.758h-6.312l-19.8-5.803s-.764-2.196-2.762-3.336" fill="#D9E2F3"/><path d="M84.866 61.267c1.992 1.717 5.086 7.97 5.086 7.97l16.923 7.711s1.454-.006 2.961-.237c2.422-.372 3.6 3.733 3.6 3.733h-6.313l-19.8-5.803s-.764-2.196-2.762-3.336" stroke="#738CB5" stroke-width=".5"/><path d="M111.012 77.825s.643.492 1.045 1.174c.205.335.326.717.351 1.005.029.29-.025.477-.015.477-.01 0 .013-.193-.06-.464-.07-.27-.238-.6-.476-.876a4.09 4.09 0 0 0-1.111-.904l.266-.412z" fill="#738CB5"/><path d="M29.128 55.022c0-.2-5.217-1.585-2.284-6.265 2.822-4.503 7.359 0 7.359 0" fill="#FFFEF9"/><path d="M29.128 55.022c0-.2-5.217-1.585-2.284-6.265 2.822-4.503 7.359 0 7.359 0" stroke="#738CB5" stroke-width=".5"/><path d="M67.002 48.156c8.12 4.568 11.867 2.963 11.867 2.963s5.516-.772 5.145-4.882c-.376-4.155 3.966-5.692 7.617-5.955 3.247-.235 5.242.494 7.215 1.694 1.077.654 3.324 2.035 3.34 3.631.018 1.732-.477 1.946 1.302 3.49 2.246 1.952 2.502 2.147 2.502 2.147s-.611 1.377-1.495 2.733c-.244.375-1.34 1.915-4.541 1.865-2.554-.04-3.17.124-5.022.455-1.523.271-3.584-.857-3.584-.857S90.9 72.734 78.074 74.898C63.79 77.308 61.056 64.005 50.347 61.29c-3.62-.917-15.935 3.425-20.37-1.735-6.948-8.084 11.925-17.074 17.458-17.77 4.257-.536 6.496-.985 19.567 6.37" fill="#FFFEF9"/><path d="M91.352 55.638l-.81-.862c-8.925 34.926-35.498 1.442-42.916 5.121.161.156-.272 1.34-.272 1.34s4.338.33 6.987 1.866c7.69 4.465 9.24 11.512 20.662 12.166 16.141-.654 16.35-19.63 16.35-19.63" fill="#D9E2F3"/><path d="M89.034 51.267c.022.95.542 3.031 2.314 4.173.522.336 1.153.59 1.912.71 2.981.474 4.14-.349 6.694-.308 3.201.05 4.297-1.49 4.54-1.864a22.083 22.083 0 0 0 1.496-2.734s-.256-.195-2.502-2.146c-1.779-1.545-1.284-1.76-1.302-3.491-.016-1.596-2.263-2.977-3.34-3.632-1.973-1.199-3.969-1.927-7.215-1.693-3.65.263-8.052 1.805-7.618 5.956.546 5.207-7.608 5.112-7.608 5.112s-4.641-.327-13.11-5.152c-8.468-4.825-12.703-5.397-18.525-3.844-5.822 1.554-18.688 8.546-15.879 15.456 2.81 6.91 15.269 3.557 19.706 3.311 4.438-.245 10.138 5.234 13.68 8.75 3.543 3.517 16.81 11 25.65-2.084 0 0 3.62-5.152 3.421-12.347" stroke="#738CB5" stroke-width=".5"/><path d="M94.073 45.12s2.648-1.045 3.895.321c1.247 1.367 1.013 2.933 1.013 2.933s-1.552.962-2.985-.164c-1.435-1.127-1.923-3.09-1.923-3.09" fill="#D9E2F3"/><path d="M104.822 53.216s-.066-.804-.507-1.5c-.441-.694-.595-1.06-.083-1.332.411-.218 1.252.59 1.252.59l.437.418-1.1 1.824zm-7.096-7.998s-1.191-.327-1.797 1.336c-.587 1.608.602 1.984.602 1.984s1.056.545 1.717-.919c.603-1.337.077-2.058-.522-2.4" fill="#0F233A"/><path d="M94.073 45.12s2.648-1.045 3.895.321c1.247 1.367 1.013 2.933 1.013 2.933s-1.552.962-2.985-.164c-1.435-1.127-1.923-3.09-1.923-3.09z" stroke="#0F233A" stroke-width=".5"/><path d="M89.54 45.18s-8.318.137-19.524-4.114C58.81 36.815 55.054 30.03 54.2 28.245c0 0 19.253-2.065 35.402 14.445" fill="#FFFEF9"/><path d="M87.435 43.56s-21.612-1.897-30.087-13.454c0 0 21.686 1.815 30.087 13.453" fill="#D9E2F3"/><path d="M89.54 45.18s-8.318.137-19.524-4.114C58.81 36.815 55.054 30.03 54.2 28.245c0 0 19.253-2.065 35.402 14.445" stroke="#738CB5" stroke-width=".5"/><path d="M83.621 59.495c1.504 2.81 2.285 11.222 2.285 11.222l15.864 15.756s3.19 1.135 5.035 1.114c1.088-.01.787 4.65.787 4.65l-7.161-1.356-19.837-15.213s.089-2.813-1.67-4.974" fill="#FFFEF9"/><path d="M83.621 59.495c1.504 2.81 2.285 11.222 2.285 11.222l15.864 15.756s2.73 1.133 4.571 1.02c1.842-.115 1.251 4.745 1.251 4.745l-7.161-1.357-19.837-15.213s.089-2.813-1.67-4.974" stroke="#738CB5" stroke-width=".5"/><path d="M104.6 89.518c-.01-.006.126.136.262.358.077.106.14.247.219.387.06.151.137.305.183.47.037.17.101.328.105.49.007.16.044.304.022.431l-.04.413-.036-.409c0-.121-.064-.256-.097-.4-.03-.147-.12-.286-.18-.43-.069-.142-.167-.27-.243-.392-.097-.114-.173-.225-.258-.305-.159-.174-.273-.251-.277-.26l.34-.353zm1.705-.644l.071.138c.05.093.11.227.171.386.132.316.252.758.31 1.206.004.227.05.45.015.66-.031.21-.025.406-.083.565-.103.314-.17.524-.17.524l.095-.537c.034-.158 0-.352.004-.55.006-.2-.07-.41-.101-.617a4.565 4.565 0 0 0-.442-1.073 3.258 3.258 0 0 0-.196-.317c-.046-.072-.084-.118-.084-.118l.41-.267z" fill="#738CB5"/><path d="M48.475 56.912s-2.32 14.323-16.082 12.674c-11.766-1.009-13.884-8.955-13.884-8.955L5.847 68.155S1.084 71.22.269 65.824l20.602-9.159s2.036 3.803 5.17 2.413c2.055-.912 2.516-4.056 2.516-4.056" fill="#FFFEF9"/><path d="M48.475 56.912s-2.32 14.323-16.082 12.674c-11.766-1.009-13.884-8.955-13.884-8.955L5.847 68.155S1.084 71.22.269 65.824l20.602-9.159s2.036 3.803 5.17 2.413c2.055-.912 2.516-4.056 2.516-4.056" stroke="#738CB5" stroke-width=".5"/><path d="M1.496 65.384s.041.177.153.448c.108.265.29.609.56.874.133.133.29.24.458.298.165.06.338.077.482.059.295-.022.477-.135.48-.12l-.123.063c-.078.044-.192.1-.345.133a1.17 1.17 0 0 1-.535.014 1.451 1.451 0 0 1-.572-.256c-.35-.254-.61-.605-.772-.876a3.728 3.728 0 0 1-.248-.477l.462-.16z" fill="#738CB5"/></g></svg>