<svg width="120" height="120" viewBox="0 0 120 120" xmlns="http://www.w3.org/2000/svg" xmlns:xlink="http://www.w3.org/1999/xlink"><defs><path id="a" d="M0 0h107.046v119.587H0z"/></defs><g transform="translate(6)" fill="none" fill-rule="evenodd"><mask id="b" fill="#fff"><use xlink:href="#a"/></mask><path d="M107.046 94.58v-.062l-.34-93h-.004L106.695 0 35.213 8.913l.12 11.138.34 71.499c-3.732-3.56-9.208-5.811-15.318-5.811-11.24 0-20.356 7.617-20.356 17.014 0 9.396 9.116 16.834 20.356 16.834 11.143 0 20.19-6.921 20.35-16.941h.007v.132-.058l-.304-83.27 61.254-7.995.344 71.897c-3.731-3.561-9.207-5.813-15.315-5.813-11.244 0-20.358 7.618-20.358 17.014 0 9.399 9.114 16.836 20.358 16.836 11.14 0 20.186-6.92 20.346-16.943h.009v.135z" fill="#1BAF8E" mask="url(#b)"/></g></svg>