<svg width="120" height="120" viewBox="0 0 120 120" xmlns="http://www.w3.org/2000/svg" xmlns:xlink="http://www.w3.org/1999/xlink"><defs><path id="a" d="M0 119.474h71.372V0H0z"/></defs><g transform="translate(24)" fill="none" fill-rule="evenodd"><path d="M47.947 59.659c-.158-2.944-.227-7.107-.24-11.84H22.634c-.183 5.42-.404 10.16-.672 13.308-3.661 42.934-19.41 57.756-19.41 57.756h67.357s-19.399-11.52-21.96-59.224" fill="#5979A6"/><mask id="b" fill="#fff"><use xlink:href="#a"/></mask><path fill="#5979A6" mask="url(#b)" d="M20.9 49.562h28.182v-5.138H20.9zM0 119.474h71.372v-2.936H0z"/><path fill="#50B6C7" mask="url(#b)" d="M21.647 54.237h26.827v-2.901H21.647zm0 5.111h26.827v-2.901H21.647z"/><path d="M46.956 27.536c0 4.888-3.952 8.85-8.828 8.85-4.875 0-8.827-3.962-8.827-8.85 0-4.89 3.952-8.851 8.827-8.851 4.876 0 8.828 3.962 8.828 8.85" fill="#C4D8DB" mask="url(#b)"/><path d="M54.803 19.177c0 5.16-4.172 9.342-9.318 9.342s-9.319-4.183-9.319-9.342c0-5.16 4.173-9.343 9.32-9.343 5.145 0 9.317 4.183 9.317 9.343" fill="#C4D8DB" mask="url(#b)"/><path d="M51.86 12.292c0 4.617-3.733 8.36-8.337 8.36-4.604 0-8.337-3.743-8.337-8.36 0-4.616 3.733-8.358 8.337-8.358 4.604 0 8.337 3.742 8.337 8.358" fill="#C4D8DB" mask="url(#b)"/><path d="M60.688 7.376c0 4.073-3.293 7.375-7.357 7.375-4.063 0-7.356-3.302-7.356-7.375C45.975 3.302 49.268 0 53.331 0c4.064 0 7.357 3.302 7.357 7.376" fill="#C4D8DB" mask="url(#b)"/></g></svg>