<svg width="175" height="160" viewBox="0 0 175 160" xmlns="http://www.w3.org/2000/svg"><g fill="none"><path d="M76.6 88.9c6.1 10.6 30.5 26.2 30.5 26.2 3.2-2.7 11.9-18.7 11.9-18.7.1.1 6.7-5.4 6.7-5.4s-18.2-27.4-34.1-28.1c0 0-2.7 6.9.3 10.3L76.6 88.9z" fill="#4A3369"/><g fill="#A3B339"><path d="M60 99.1c-4.1.3-4.8 15.8-1.7 22.8 3.1 7 11.1.2 10.1-6.3S65.1 98.7 60 99.1z"/><path d="M68.3 115.6c-.2 3.1.4 7.2 2.6 7 2.2-.2 7.2.6 5.9 2.3-1.3 1.7-8.6-.6-8.6-.6s8 3.7 6.7 5.4c-1.3 1.7-9.1-4.1-9.1-4.1s5.7 5.4 3.7 5.8c-2 .4-5.6-6-7.2-5.7-1.6.3 1.2 6.4-1.4 5.5-2.6-.9-4.2-12.2-3.5-14.1"/></g><path d="M86.1 121.2c-3.5 1.9-25.7-3.2-28.1-15.6-2.4-12.4 11.2-10 19.9-2.7 8.7 7.4 14.3 15.1 8.2 18.3z" fill="#A3B339"/><path d="M89.7 92.9c5.2 10.6 6.9 26.7-3.6 28.4-10.5 1.7-20.4-22.9-17.6-29.6 2.8-6.7 13-15.4 21.2 1.2z" fill="#A3B339"/><path d="M90.5 94.6s.1.2.2.6c.1.4.3 1 .5 1.7.4 1.5 1 3.6 1.4 6.2.4 2.6.8 5.6.6 8.8-.2 1.6-.5 3.2-1.3 4.6-.8 1.4-2 2.4-3.5 3l-1.2.4-1.2.3-1.2.3-1.2.2c-1.7.2-3.3.1-4.9-.1-3.2-.4-6-1.6-8.3-2.9-2.3-1.3-4.1-2.6-5.2-3.6-1.2-1-1.8-1.6-1.8-1.6s.5.7 1.6 1.8c.5.6 1.2 1.2 2.1 1.9.8.7 1.8 1.5 2.9 2.2 2.2 1.5 5.2 2.8 8.5 3.5 1.7.3 3.5.4 5.3.3l1.2-.2 1.3-.3 1.3-.4 1.3-.4c1.9-.6 3.5-2 4.3-3.7.9-1.7 1.3-3.5 1.4-5.2.1-1.7 0-3.4-.2-4.9-.2-1.5-.5-3-.8-4.2-.7-2.6-1.5-4.7-2.1-6.1-.3-.7-.6-1.3-.8-1.6-.1-.4-.2-.6-.2-.6zm-25.8 2.2s-.1 0-.3-.1c-.2 0-.5-.1-.9-.2H62c-.6.1-1.2.2-1.9.6-.3.1-.6.4-1 .6-.3.3-.6.5-.9.8-.3.3-.6.6-.8 1-.3.4-.5.8-.6 1.2-.2.4-.3.8-.5 1.3-.2.4-.3.9-.4 1.3-.2.9-.3 1.8-.4 2.7-.1.9-.1 1.8-.1 2.7 0 .9.1 1.8.1 2.6.1 1.7.4 3.3.6 4.6.3 1.3.6 2.4.9 3.2.1.4.3.7.4.9.1.1.1.2.2.2s0-.1.1-.1h-.1s-.1-.1-.1-.2c-.1-.2-.1-.5-.1-.9-.1-.8-.2-1.9-.3-3.2-.1-1.3-.1-2.9-.1-4.6v-2.6c0-.9.1-1.8.2-2.6.1-.9.2-1.7.3-2.6.2-.8.3-1.6.6-2.4.1-.4.3-.7.5-1l.6-.9c.2-.3.5-.5.7-.8.3-.2.5-.4.8-.6.5-.4 1.1-.6 1.6-.8.5-.1 1-.3 1.3-.3.7.2 1.1.2 1.1.2zm-2.3 28.9l.3.3c.2.2.4.5.6.8.2.4.5.8.8 1.2.3.4.7.9 1.1 1.4.8.9 1.8 1.7 2.7 2.1.5.2.9.2 1.2.2.3-.1.4-.2.4-.2h-.1c-.1 0-.2 0-.3-.1-.2-.1-.5-.3-.7-.6-.6-.6-1.2-1.5-2-2.4l-1.2-1.2c-.4-.4-.9-.7-1.3-.9-.4-.2-.8-.4-1.1-.4-.3-.3-.4-.2-.4-.2zm3.4-.1s.3.6 1 1.4c.3.4.7.8 1.2 1.2.5.4 1 .8 1.6 1.1.6.3 1.2.6 1.8.8.3.1.6.2.9.2.3 0 .6.1.9.1.3 0 .5 0 .7-.1.2-.1.4-.1.5-.2.3-.2.4-.3.4-.3h-.5c-.1 0-.3-.1-.5-.1s-.4-.1-.6-.2c-.2-.1-.4-.2-.7-.3-.2-.1-.5-.3-.7-.4-.5-.3-1-.6-1.6-.9-1.1-.6-2.2-1.2-3.1-1.6-.6-.5-1.3-.7-1.3-.7zm11-.7s-.1.1-.4.1c-.2 0-.6 0-.9-.1-.4-.1-.8-.1-1.3-.2l-1.5-.3c-1.1-.2-2.1-.2-3-.2-.8 0-1.4.1-1.4.1s.5.4 1.2.8c.8.4 1.8.8 3 .9.6.1 1.1.1 1.7.1.5 0 1.1-.1 1.5-.3.4-.1.8-.4 1-.6.1-.1.1-.3.1-.3z" fill="#687A27"/><path d="M68.5 116.8s-.3.4-.5 1-.3 1.4-.1 2.2c.1.4.2.8.4 1.2.2.4.5.7.7.9.1.1.3.2.4.2.1.1.2.1.4.1h.3s0-.1-.1-.3c0-.1-.1-.2-.1-.3 0-.1-.1-.2-.1-.3-.1-.5-.2-1.1-.3-1.8-.1-.7-.3-1.4-.5-1.9l-.5-1z" fill="#687A27"/><path d="M122.6 110.6c2.2.3 8.1 5.8 9.9 6.7 1.8.9 3.2 4.5-2.2.5 0 0 2.2 4.7.4 4.2-1.8-.5-2.7-3.4-2.7-3.4s-1.2 5.9-2.4 5.1c-1.2-.8-.6-4.9-.6-4.9s-1.6 4.6-2.6 3.1c-.5-.6 1.2-3.5-1.6-5.5" fill="#A3B339"/><path d="M107.2 88.4c-5.2 5.6-7.1 12.2-4.3 17.3 2.8 5.1 13.2 9.4 17.3 11.4 4.8 2.4 8.8-.8 5.8-4.3-3-3.4-11.2-9.4-11-12.8.2-3.4.8-4.4 2.6-8 1.8-3.5-5.1-9.3-10.4-3.6z" fill="#A3B339"/><path d="M122.2 121s.1-.1.2-.4c.1-.3.2-.7.3-1.3 0-.3 0-.6-.1-1s-.4-.8-.8-1c-.4-.3-.8-.4-1.2-.6-.4-.1-.7-.3-1.2-.5-1.7-.8-3.6-1.8-5.6-2.9-1-.6-2-1.2-3.1-1.8-1-.6-2-1.3-3-2s-1.9-1.5-2.8-2.3c-.4-.4-.8-.8-1.1-1.3-.2-.2-.3-.5-.4-.7-.1-.3-.3-.5-.4-.8-.4-.9-.7-2-.8-3-.1-1-.1-2 0-2.9.2-1.8.7-3.3 1-4.3.4-1 .7-1.5.7-1.5s-.1.1-.3.4c-.2.2-.4.6-.7 1.1-.5 1-1.2 2.4-1.6 4.3-.2.9-.3 2-.3 3.1.1 1.1.2 2.3.7 3.5.1.3.2.5.4.8.1.3.3.6.5.9.4.6.8 1 1.2 1.5.9.9 1.9 1.7 2.9 2.5s2.1 1.4 3.1 2.1c1.1.6 2.1 1.2 3.2 1.8 2.1 1.1 4.1 2 5.8 2.7.4.2.9.4 1.3.5.4.1.8.2 1.1.3.6.2.8.8.9 1.3.1.5.1.9 0 1.2.1.1.1.3.1.3zm2.9-9.2l-2.7-2.7c-.8-.8-1.7-1.8-2.7-2.8-.9-1-1.9-2.2-2.7-3.4-.4-.6-.8-1.2-1-1.8-.3-.6-.4-1.1-.3-1.9 0-.6.1-1.3.2-1.9.1-.6.3-1.2.4-1.7.3-1.1.6-2 .9-2.6.2-.6.4-1 .4-1s-1.1 1.1-2.1 3.2c-.3.5-.5 1.1-.7 1.8-.2.7-.4 1.3-.5 2.2v1.3c0 .4.2.8.3 1.2.3.8.7 1.5 1.2 2.1.9 1.3 2 2.4 3.1 3.4.5.5 1.1.9 1.6 1.4.5.4 1 .8 1.5 1.1 1.8 1.4 3.1 2.1 3.1 2.1zm9 7.7h-.2c-.1 0-.2-.1-.4-.2-.2-.2-.6-.5-1-.8-.4-.3-.9-.5-1.4-.5-.4-.1-.8-.1-.8-.1s0 .4.3.8c.2.4.6.9 1.1 1.2.3.2.6.3.9.3.3.1.6.1.9 0 .3-.1.5-.3.6-.4.1-.2 0-.3 0-.3zm-3.4 2.5s-.1-.4-.3-.7c-.2-.4-.5-.8-.8-1.2-.3-.4-.6-.7-1-1-.2-.1-.3-.3-.4-.4-.1-.1-.2-.1-.2-.1s0 .1-.1.2-.1.4-.1.6c0 .3 0 .5.1.8.1.3.3.6.5.8.4.5 1 .8 1.5.9.5.2.8.1.8.1zm-5.1 1.8v-.9c0-.5.1-1 0-1.6 0-.3-.1-.6-.1-.8-.1-.3-.1-.5-.2-.8-.1-.5-.3-.8-.3-.8s-.3.3-.6.7c-.3.5-.4 1.1-.4 1.8 0 .3.1.7.2 1 .1.3.3.6.5.8.2.2.4.3.6.4.2.2.3.2.3.2z" fill="#687A27"/><g transform="matrix(-1 0 0 1 138 47)"><circle fill="#A3B339" cx="8" cy="9.2" r="7.9"/><path d="M.9 5.7s.1-.3.3-.8c.2-.5.6-1.3 1.3-2 .3-.4.8-.8 1.3-1.1.5-.3 1.1-.6 1.7-.8.6-.2 1.3-.3 2-.4.7 0 1.3 0 2.1.1.3.1.6.1.9.2.4.1.7.2 1 .4.3.2.6.3.9.5.3.2.6.4.8.6 1 .9 1.6 1.9 2 2.9.4.9.6 1.8.6 2.3.1.6 0 .9 0 .9s-.1-.3-.4-.8c-.2-.5-.6-1.2-1.1-2-.3-.4-.6-.8-.9-1.1-.3-.4-.8-.7-1.2-1-.2-.2-.5-.3-.7-.4-.2-.1-.5-.2-.8-.4l-.8-.3c-.3-.1-.6-.1-.9-.2-.5-.1-1.2-.1-1.7-.1-.6 0-1.1.1-1.7.2-.5.1-1 .3-1.5.5s-.9.5-1.2.7c-.7.5-1.3 1.1-1.6 1.5-.2.4-.4.6-.4.6z" fill="#687A27"/></g><path d="M141 61.5s-.1-.1-.3-.4c-.2-.3-.5-.6-.9-1.1-.4-.5-.9-1-1.5-1.6-.6-.6-1.4-1.2-2.3-1.8-.9-.6-1.9-1.2-3-1.6-1.1-.5-2.3-.9-3.6-1.2-1.3-.3-2.6-.5-4-.6-1.4-.1-2.8 0-4.2 0-2.7.1-5.5.2-8.1.5-1.3.1-2.6.4-3.7.7-1.2.3-2.3.7-3.2 1.2-.5.3-.9.5-1.3.8-.4.3-.8.5-1.1.8-.3.3-.6.5-.9.8l-.7.7c-.4.4-.7.8-.9 1.1-.2.3-.3.4-.3.4s.1-.1.4-.3c.3-.2.6-.5 1.1-.9.2-.2.5-.4.8-.6.3-.2.6-.4 1-.6.7-.4 1.5-.8 2.5-1.2.9-.3 2-.7 3.1-.9 1.1-.2 2.3-.4 3.6-.5 1.3-.1 2.6-.1 3.9-.2 1.4 0 2.7-.1 4.1-.1 1.4-.1 2.7-.1 4 0 1.3 0 2.6.2 3.8.4 1.2.3 2.4.6 3.5 1s2.1.9 3 1.3c.9.5 1.7 1 2.4 1.5s1.2.9 1.7 1.3l1.1 1.1z" fill="#687A27"/><path d="M144.4 69.4c0-4.2-6-14.7-17.6-15.2-11.6-.5-21.4-.2-27.8 8.1-6.5 8.4-30.9 11.5-41.1 15.7-10.2 4.2-15.1 26.9-10.4 38 4.7 11.1 42 13.9 57.3-6.1 15.3-20 15-19.3 21.7-22.4 14-6.6 17.9-14.7 17.9-18.1z" fill="#A3B339"/><path d="M143.4 73.9s-2 .2-4.9.8c-1.5.3-3.2.7-5 1.3-.9.3-1.8.6-2.8.9-.9.3-1.9.7-2.8 1-.9.4-1.9.8-2.8 1.2-.9.4-1.8.8-2.6 1.1-.8.4-1.7.7-2.5.9-.8.3-1.6.5-2.3.7-1.4.4-2.6.6-3.5.6-.9.1-1.4 0-1.4 0s.5.2 1.4.3c.9.1 2.2.1 3.7-.1s3.2-.6 5-1.2c.9-.3 1.8-.7 2.7-1 .9-.3 1.8-.7 2.7-1.1 3.7-1.4 7.4-2.7 10.2-3.7 3-.9 4.9-1.7 4.9-1.7zm-9.7-7v-.2c0-.1-.1-.4-.2-.7-.1-.3-.4-.5-.6-.7l-.9-.6c-.3-.1-.7-.2-1-.3h-.5c-.2 0-.3.1-.5.1-.1 0-.2.1-.2.1-.1.1-.1.2-.1.2v.4c.1.2.2.2.2.2v-.2c0-.1.1-.1.1-.1h.2c.4 0 1 .3 1.5.5.6.2 1.1.5 1.5.7.1.1.2.1.3.2.1.1.2.1.2.2-.1.1 0 .2 0 .2zm6.1 11.6s-.2.3-.8.7c-.5.4-1.3 1-2.3 1.7-1 .7-2.3 1.5-3.7 2.4-1.5.9-3.1 1.9-5 2.8-1.9.8-4.1 1.7-6.2 2.9-2.1 1.3-4.1 3-5.9 5-1.8 2-3.5 4.2-5 6.5-1.6 2.3-3.2 4.6-5 6.7-1.8 2.2-3.6 4.2-5.7 6-2 1.8-4.2 3.4-6.4 4.8-4.5 2.7-9.1 4.3-13.2 5.2-2.1.4-3.9.7-5.6.9-.8.1-1.6.2-2.4.2-.7.1-1.4.1-2 .1-1.2.1-2.2.1-2.9.1h-1s.4 0 1 .1c.7 0 1.6.1 2.9.1h2c.7 0 1.6 0 2.4-.1 1.7-.1 3.7-.3 5.8-.6 4.2-.7 9.1-2.2 13.7-4.8 2.3-1.3 4.6-2.9 6.7-4.8 2.1-1.9 4.1-4 5.9-6.2 1.8-2.2 3.4-4.5 5-6.8s3.1-4.5 4.8-6.4c1.7-1.9 3.5-3.7 5.5-5 2-1.3 4.1-2.2 6-3.1 1.9-1 3.5-2.1 4.9-3.1 1.4-1 2.6-1.9 3.6-2.7 1-.8 1.7-1.4 2.2-1.9.5-.4.7-.7.7-.7z" fill="#687A27"/><path d="M104.8 126.3c4.4 1.6 7.4 4.6 9.5 4.6 2.1 0-3.2-3.4-3.2-3.4s9.7.8 10.5-.9c.9-1.8-5.7-.9-7.7-1.7 0 0 6.8-.1 5.5-1.9-.8-1.1-3.9.9-6.9.2 0 0 3.5-1.2 1.9-2.3-1-.7-3.3 2-5.8.2" fill="#A3B339"/><path d="M91.8 97.6c-5.2 5.6-7.1 12.2-4.3 17.3 2.8 5.1 13.2 9.4 17.3 11.4 4.8 2.4 8.8-.8 5.8-4.3-3-3.4-11.2-9.4-11-12.8.2-3.4.8-4.4 2.6-8 1.8-3.6-5.1-9.3-10.4-3.6z" fill="#A3B339"/><path d="M112 130.2s-.5-.4-1.5-1.1c-1-.7-2.4-1.6-4.2-2.6-.4-.2-.9-.5-1.5-.7-.5-.2-1-.4-1.5-.7-1-.5-2.1-1.1-3.2-1.6-1.1-.6-2.2-1.2-3.4-1.9-1.1-.7-2.3-1.3-3.3-2.1-1.1-.7-2.1-1.5-3.1-2.3-.9-.8-1.8-1.7-2.4-2.7-.1-.3-.3-.6-.4-.8-.1-.3-.2-.5-.3-.8-.2-.5-.3-1.1-.4-1.6-.2-1.1-.2-2.1-.2-3.1.2-1.9.6-3.5 1-4.6.2-.5.4-1 .5-1.2.1-.3.2-.4.2-.4s-.1.1-.3.4c-.2.3-.5.6-.8 1.2-.6 1-1.3 2.6-1.7 4.7-.2 1-.2 2.2-.1 3.4l.3 1.8c.1.3.2.6.3 1 .1.3.3.6.4.9.7 1.3 1.6 2.3 2.6 3.2 1 .9 2.1 1.7 3.3 2.5 1.1.8 2.3 1.4 3.5 2.1 1.2.7 2.3 1.2 3.5 1.8 1.1.6 2.3 1 3.3 1.5.5.2 1.1.4 1.6.6.5.1 1 .4 1.4.5 1.8.8 3.3 1.5 4.4 2 1.5.3 2 .6 2 .6zm-2.9-9.9l-2.6-2.6c-.8-.8-1.7-1.7-2.6-2.7-.9-1-1.8-2.1-2.6-3.2-.4-.6-.7-1.2-.9-1.8-.1-.3-.2-.6-.2-.8v-.9c0-.6.1-1.2.3-1.8.1-.6.3-1.1.4-1.7.3-1 .6-1.9.8-2.5.2-.6.4-1 .4-1s-1 1.1-2.1 3.1c-.3.5-.5 1.1-.7 1.7-.2.6-.4 1.3-.5 2l-.1.6v.5c0 .5.1.9.2 1.3.2.8.6 1.5 1 2.2.9 1.3 1.9 2.4 2.9 3.4s2.1 1.8 3 2.4c2 1.1 3.3 1.8 3.3 1.8zm2 7.2s.6.3 1.6.6 2.4.5 3.7.4c.7 0 1.4-.1 2-.2.6-.1 1.2-.3 1.7-.6.2-.1.5-.2.6-.4.2-.1.3-.2.4-.4.2-.3.3-.4.3-.4s-.2.1-.5.1c-.1 0-.3 0-.5.1-.2 0-.4 0-.7.1h-3.6c-1.3 0-2.6.1-3.6.3l-1.4.4zm8.4-4.6v.3c0 .1-.1.1-.2.2-.1 0-.2.1-.3.1-.1 0-.2 0-.4.1-.1 0-.3 0-.5.1-.3 0-.7.1-1.1.2-.2 0-.4.1-.6.1-.2 0-.4.1-.6.1-.4.1-.7.2-1 .3-.6.2-1 .5-1 .5s.4.2 1 .4c.3.1.7.1 1.1.2.4 0 .8 0 1.2-.1.4-.1.9-.2 1.2-.4l.6-.3c.2-.1.3-.3.4-.4.1-.2.2-.4.2-.6 0-.2 0-.4-.1-.5.2-.2 0-.2.1-.3zm-5-2.1v.2c0 .1 0 .3-.1.4 0 0-.1.1-.1 0h-.1c-.1 0-.1 0-.2.1l-.2.1c-.3.2-.6.5-.9.8-.3.3-.4.6-.4.6s.3.2.7.2c.4 0 1 0 1.5-.4.1-.1.2-.2.4-.3.1-.1.2-.3.3-.4.1-.2.1-.4.1-.6 0-.2-.1-.4-.2-.5-.2-.3-.4-.3-.6-.3-.1.1-.2.1-.2.1z" fill="#687A27"/><g fill="#A3B339"><path d="M37 102.9c-4-.4-7.7 14.6-6 22 1.7 7.4 10.8 2.3 11.1-4.3.3-6.6.1-17.1-5.1-17.7z"/><path d="M42.2 120.7c-.8 3-1 7.2 1.2 7.4 2.2.2 7 2 5.4 3.4-1.6 1.4-8.4-2.2-8.4-2.2s7.2 5.2 5.6 6.6c-1.6 1.4-8.2-5.8-8.2-5.8s4.6 6.4 2.6 6.4c-2 0-4.4-7-6-7-1.6 0 0 6.6-2.4 5.2-2.4-1.4-1.8-12.7-.8-14.5"/></g><path d="M58.5 129.5c-3.8 1.2-24.6-8-24.6-20.6 0-12.6 12.9-7.7 20 1.1s11.2 17.5 4.6 19.5z" fill="#A3B339"/><path d="M67.4 102.3c3.1 11.4 1.7 27.5-8.9 27.2-10.6-.3-15.7-26.3-11.7-32.4 4-5.9 15.7-12.5 20.6 5.2z" fill="#A3B339"/><path d="M67.8 104.2s.1.2.1.6c.1.4.1 1 .2 1.8.2 1.5.3 3.7.2 6.4-.1 2.6-.2 5.7-1.1 8.8-.5 1.5-1.1 3-2.1 4.2-1 1.2-2.4 2-4 2.3l-1.3.2-1.2.1h-1.3l-1.3-.1c-1.7-.1-3.3-.5-4.8-1-3-1-5.6-2.7-7.6-4.4-2-1.7-3.5-3.3-4.5-4.5-1-1.2-1.5-1.9-1.5-1.9s.4.8 1.2 2.1c.4.6 1 1.4 1.7 2.3.7.8 1.5 1.8 2.5 2.7 1.9 1.9 4.5 3.8 7.7 5 1.6.6 3.3 1.1 5.1 1.2l1.4.1h1.4l1.4-.1 1.3-.2c1.9-.2 3.8-1.3 5-2.8 1.2-1.5 1.9-3.2 2.3-4.9.4-1.7.6-3.3.7-4.8.1-1.5.1-3 0-4.3-.2-2.7-.6-4.9-.9-6.4-.2-.8-.3-1.3-.4-1.7-.1-.5-.2-.7-.2-.7zm-25.6-2.6s-.1-.1-.3-.1c-.2-.1-.5-.2-.9-.3-.4-.1-.9-.2-1.5-.3-.6 0-1.2 0-1.9.2-.4.1-.7.2-1.1.4-.3.2-.7.4-1.1.6-.3.2-.7.5-1 .8-.3.3-.6.7-.9 1-.3.4-.5.8-.7 1.2l-.6 1.2c-.3.9-.6 1.7-.9 2.6l-.6 2.7c-.2.9-.3 1.8-.4 2.6-.2 1.7-.3 3.3-.2 4.7 0 1.4.1 2.5.2 3.3.1.4.1.7.2.9 0 .1.1.2.1.2.1 0 .1-.1.1-.1h-.1s-.1-.1-.1-.2v-.9c.1-.8.2-1.9.4-3.2.2-1.3.4-2.9.7-4.5.1-.8.3-1.7.5-2.5.2-.9.4-1.7.6-2.6.2-.8.5-1.7.8-2.5.3-.8.6-1.6 1.1-2.2.2-.3.4-.7.7-.9.2-.3.5-.6.7-.8.2-.3.6-.4.8-.6.3-.1.6-.3.9-.4.6-.3 1.2-.4 1.7-.4s1-.1 1.4 0c.9-.1 1.4.1 1.4.1zm-7.8 27.8s.1.1.2.3c.1.2.3.6.5.9.2.4.4.8.6 1.3.2.5.5 1 .8 1.5.6 1 1.4 2 2.3 2.5.4.3.9.4 1.2.4.3 0 .4-.2.4-.1h-.1c-.1 0-.2-.1-.3-.1-.2-.1-.4-.4-.6-.8-.4-.7-.9-1.7-1.5-2.7-.3-.5-.6-1-1-1.4-.4-.5-.7-.9-1.1-1.2-.4-.3-.7-.5-1-.6h-.4zm3.4.6s.2.7.7 1.5c.2.4.6.9 1 1.4.4.5.9 1 1.4 1.4.5.4 1.1.8 1.7 1.1.3.1.6.3.9.4.3.1.6.2.8.2.3.1.5.1.7 0 .2 0 .4 0 .6-.1.3-.1.4-.2.4-.2s-.2-.1-.4-.1c-.1 0-.3-.1-.5-.2s-.3-.2-.5-.3c-.2-.1-.4-.3-.6-.4-.2-.1-.4-.3-.6-.5-.4-.4-.9-.8-1.4-1.2-.9-.8-1.9-1.6-2.7-2.2-.9-.5-1.5-.8-1.5-.8zm10.9 1.4s-.1.1-.4 0c-.2 0-.5-.1-.9-.3-.4-.1-.8-.3-1.3-.5s-1-.4-1.5-.5c-1-.3-2.1-.6-2.9-.8-.8-.2-1.4-.1-1.4-.1s.4.5 1.1 1c.7.5 1.7 1.1 2.8 1.5.5.2 1.1.3 1.6.4.5.1 1.1.1 1.5 0 .5-.1.8-.2 1.1-.4.3-.1.3-.3.3-.3z" fill="#687A27"/><path d="M42.1 121.9s-.4.3-.6.9c-.3.5-.5 1.3-.5 2.2 0 .4.1.8.2 1.2.1.4.3.7.6 1 .1.1.2.2.4.3.1.1.2.1.3.2.2.1.3.1.3.1s0-.1-.1-.3c0-.1 0-.2-.1-.3v-2.3c0-.7-.1-1.4-.2-2-.2-.6-.3-1-.3-1zm23.4-46.3s-.9 0-2.5.3c-.8.2-1.7.4-2.8.7-1.1.4-2.3.8-3.5 1.5-1.2.7-2.5 1.6-3.6 2.7-1.1 1.2-2.2 2.6-3 4.2-1.5 3.1-3 6.5-4 10.1-.5 1.8-.9 3.6-1.1 5.5-.2 1.8-.3 3.6-.2 5.4.2 3.5 1.1 6.7 2.1 9.3.5 1.3 1.1 2.4 1.6 3.4s1.1 1.8 1.5 2.5c.4.7.8 1.2 1.1 1.5.3.3.4.5.4.5s-.4-.8-1.2-2.2c-.4-.7-.8-1.6-1.2-2.6-.4-1-.9-2.2-1.3-3.5-.4-1.3-.8-2.7-1.1-4.2-.3-1.5-.5-3.1-.5-4.8 0-1.7 0-3.4.3-5.1.2-1.7.6-3.5 1.1-5.2 1-3.5 2.3-6.8 3.7-9.9.7-1.5 1.6-2.8 2.6-4 1-1.1 2.1-2 3.3-2.8 2.2-1.5 4.4-2.3 5.9-2.7 1.4-.5 2.4-.6 2.4-.6z" fill="#687A27"/><path d="M51.9 89.9c3 2.5 1.6 8-1.1 6-2.6-2-1.5-8.3 1.1-6zm10.6 2.3c4.7 2.2 3 9.2-1.3 8.1-4.3-1.1-3.6-10.4 1.3-8.1zM60 88.7c3.3-2.4 2-8.9-2.7-6.7-4.7 2.3-5.8 12.8 2.7 6.7z" fill="#969330"/><path d="M119 96.4s-.7-.1-1.9-.4c-1.2-.2-2.9-.7-4.9-1.3-2-.6-4.3-1.5-6.6-2.7-1.2-.6-2.3-1.3-3.5-2-1.1-.8-2.2-1.5-3.3-2.5-1.1-.9-2-1.9-2.9-2.9-.8-1-1.7-2.1-2.3-3.2-.7-1.1-1.2-2.2-1.7-3.3-.5-1.1-.8-2.2-1.2-3.1-.1-.5-.3-1-.4-1.4-.1-.5-.3-.9-.3-1.3-.2-.8-.3-1.6-.4-2.2-.2-1.2-.3-1.9-.3-1.9v1.9c0 .6.1 1.4.1 2.2 0 .9.2 1.8.4 2.9.1.5.3 1.1.4 1.6.1.6.4 1.1.6 1.7.4 1.2.9 2.4 1.6 3.6.7 1.2 1.4 2.4 2.3 3.5.9 1.1 1.9 2.2 3 3.1 1.1 1 2.3 1.8 3.5 2.6 1.2.7 2.4 1.4 3.7 1.9 1.2.6 2.5 1 3.6 1.4 1.2.4 2.3.7 3.3.9 2.2.5 4 .7 5.2.8 1.2.1 2 .1 2 .1zm-31.1-28s-2.8-.4-6.9-.1c-1 0-2.2.2-3.4.3-1.2.2-2.4.3-3.7.6-1.3.3-2.6.5-3.9 1-1.3.4-2.6.8-4 1.3-1.3.4-2.6 1-3.9 1.6-.6.2-1.2.6-1.8.9l-1.8.9c-1.2.6-2.2 1.3-3.2 1.9-1 .6-1.9 1.3-2.8 1.9-.8.6-1.6 1.2-2.3 1.7-.6.6-1.2 1-1.6 1.4-.9.8-1.4 1.3-1.4 1.3s.6-.4 1.6-1c.5-.3 1.1-.7 1.8-1.2s1.5-.9 2.4-1.4c.9-.5 1.8-1.1 2.9-1.6 1.1-.5 2.1-1.2 3.3-1.7 1.2-.5 2.3-1.1 3.6-1.6 1.2-.5 2.5-1.1 3.8-1.5 1.3-.5 2.6-.9 3.9-1.3 1.3-.4 2.6-.7 3.8-1.1 1.2-.3 2.4-.6 3.6-.8 1.2-.2 2.2-.5 3.3-.6 3.9-.8 6.7-.9 6.7-.9zm-2.8 49.1s-.8-.1-2.3-.4c-.7-.1-1.6-.3-2.5-.6-1-.3-2.1-.6-3.2-1-2.3-.8-5-1.9-7.7-3.5-1.4-.7-2.7-1.6-4-2.5-1.3-.9-2.6-1.9-3.8-3.1-1.2-1.1-2.4-2.2-3.5-3.4-.5-.6-1-1.2-1.6-1.8-.5-.6-1-1.2-1.4-1.9-.9-1.3-1.7-2.5-2.5-3.7-.4-.6-.7-1.2-1-1.8-.3-.6-.7-1.1-.9-1.7-.5-1.1-1.1-2.1-1.5-3.1-.4-.9-.8-1.7-1-2.4-.5-1.4-.9-2.1-.9-2.1s.2.8.6 2.2c.2.7.5 1.6.8 2.5.3 1 .7 2.1 1.2 3.2.5 1.2 1 2.4 1.7 3.7.7 1.3 1.5 2.6 2.3 3.9.9 1.3 1.9 2.6 3 3.9 1.1 1.2 2.3 2.5 3.6 3.6 1.3 1.1 2.6 2.2 4 3.1 1.4.9 2.8 1.8 4.2 2.5 1.4.7 2.8 1.3 4.2 1.9 1.4.5 2.7.9 3.9 1.2 2.4.6 4.5.9 6 1 1.5.4 2.3.3 2.3.3zm32.4-20.1s-2 .9-4.9 2.5c-1.5.8-3.1 1.7-4.9 2.8-1.8 1-3.7 2.2-5.5 3.3-.9.6-1.9 1.2-2.8 1.8-.9.6-1.8 1.2-2.7 1.7-1.7 1.1-3.3 2.2-4.7 3.2-2.7 1.9-4.4 3.3-4.4 3.3s2-.9 4.9-2.5c1.5-.8 3.1-1.7 4.9-2.8.9-.5 1.8-1 2.7-1.6.9-.6 1.9-1.1 2.8-1.7 1.9-1.2 3.7-2.3 5.4-3.5 1.7-1.1 3.3-2.2 4.7-3.2 2.7-1.9 4.5-3.3 4.5-3.3z" fill="#4A3369"/><path d="M126.8 54.1s-11.5-18.8-25.3-31c0 0-2.1 32.1-.8 37.7 0 0 10-9 26.1-6.7z" fill="#6D4B9B"/><path d="M100.7 60.8s.2-2.2.4-5.6c.1-1.7.2-3.6.3-5.7 0-1 .1-2.1.1-3.2s.1-2.2.1-3.3V30.8c0-1.7-.1-3.1-.1-4.1 0-1-.1-1.5-.1-1.5s-.4 2.2-.8 5.6c-.2 1.7-.3 3.6-.5 5.7-.1 2.1-.2 4.3-.3 6.6v6.6c0 2.1.1 4.1.2 5.7.4 3.1.7 5.4.7 5.4z" fill="#4A3369"/><path d="M115.1 44.6c-.4 1.3-3.8 4.7-3.8 4.7-.8-1.4-.3-5.3-.3-5.3-1.9.6-6.7-2.1-6.7-2.1 1.6-1.3 6.4-2.3 6.4-2.3-.7-1.1.4-5.8.4-5.8 1.1 1.1 3.8 4.2 3.8 4.2.1-.1.2-.2.3-.2 1 1.3 2 2.5 2.9 3.7-.2.3-.2.4-.2.4 1.2 1.2 2.7 4.6 2.7 4.6-3.7-.8-5.5-1.9-5.5-1.9z" fill="#E0C448"/><path d="M126.8 54.1s-1.2-2.2-3.2-5.4c-1-1.6-2.2-3.4-3.5-5.4l-2.1-3c-.7-1-1.5-2-2.3-3-1.6-2-3.1-3.9-4.7-5.7-.8-.9-1.6-1.7-2.3-2.5-.7-.8-1.5-1.5-2.2-2.1-.7-.7-1.3-1.2-2-1.7-.6-.5-1.1-.9-1.6-1.2-.9-.6-1.4-1-1.4-1s.5.4 1.2 1.2c.4.4.8.9 1.4 1.4.5.5 1.1 1.2 1.7 1.9 1.2 1.4 2.6 3.1 4.1 4.9.7.9 1.5 1.9 2.2 2.8.8 1 1.5 2 2.3 2.9 1.5 2 3.1 4 4.5 5.8 1.4 1.9 2.8 3.6 3.9 5.1 2.4 3.1 4 5 4 5z" fill="#4A3369"/><g transform="matrix(-1 0 0 1 121 63)"><path d="M2 33.4s4.1-2.9 4.3-7.6c0 0 19.7-6 23.2-25.8l2.1 5.3s24.1-1.1 42.2 14.8c0 0-6.6 32.1-37.9 34.5L2 33.4z" fill="#6D4B9B"/><path d="M60.3 25.9s-1.7-2.6-1.9-4.4c0 0 3.4.5 4.2 1.3 0 0 2.2-2.5 3.1-3.4 0 0 .8 3.7.3 4.6 0 0 3.7.8 5.1 1.8 0 0-3.8 2.1-5.4 1.7 0 0 .5 3.1-.2 4.2 0 0-2.7-2.7-3-3.7 0 0-1.5.8-4.3 1.5 0 .1 1.2-2.6 2.1-3.6zM38.2 42.2s.4-3.1 1.3-4.6c0 0 2.3 2.5 2.4 3.7 0 0 3.3-.5 4.5-.6 0 0-1.8 3.4-2.7 3.7 0 0 2.3 3.1 2.7 4.7 0 0-4.3-.8-5.2-2.2 0 0-1.6 2.6-2.9 3.1 0 0-.3-3.8.1-4.8 0 0-1.7-.3-4.3-1.6.1.1 2.8-1.2 4.1-1.4zm2.2-22.5s-1.3-2.8-1.2-4.6c0 0 3.3 1 4 1.9 0 0 2.6-2.2 3.5-2.9 0 0 .3 3.8-.4 4.6 0 0 3.6 1.4 4.7 2.6 0 0-4.1 1.5-5.6.8 0 0 0 3.1-.9 4.1 0 0-2.2-3.1-2.4-4.2 0 0-1.6.6-4.5.9.1.1 1.7-2.5 2.8-3.2zM19.5 30.3s-3.1-.2-4.6-1.1c0 0 2.4-2.4 3.6-2.6 0 0-.7-3.3-.9-4.5 0 0 3.5 1.6 3.9 2.5 0 0 2.9-2.5 4.5-2.9 0 0-.6 4.3-1.9 5.3 0 0 2.7 1.5 3.2 2.7 0 0-3.7.5-4.8.1 0 0-.2 1.7-1.3 4.3-.1.2-1.6-2.5-1.7-3.8zM33.4 6.8c1.5.9 4.6 1.1 4.6 1.1.2 1.3 1.7 3.9 1.7 3.9C40.8 9.1 41 7.5 41 7.5c1 .4 4.8-.1 4.8-.1-.1-.3-.3-.6-.6-.8-4.1-.8-7.6-1.1-10-1.3-.9.7-1.8 1.5-1.8 1.5zm-8.6 40.4c1.3-1 1.9-5.3 1.9-5.3-1.6.4-4.5 2.9-4.5 2.9-.4-.9-3.9-2.5-3.9-2.5 0 .3.1.8.2 1.4l9.2 5.8c-.8-1.2-2.9-2.3-2.9-2.3z" fill="#E0C448"/><path d="M2 33.4s.7-.1 1.9-.4c1.2-.2 2.9-.7 4.9-1.3 2-.6 4.3-1.5 6.6-2.7 1.2-.6 2.3-1.3 3.5-2 1.1-.8 2.2-1.5 3.3-2.5 1.1-.9 2-1.9 2.9-2.9.8-1 1.7-2.1 2.3-3.2.7-1.1 1.2-2.2 1.7-3.3.5-1.1.8-2.2 1.2-3.1.1-.5.3-1 .4-1.4.1-.5.3-.9.3-1.3.2-.8.3-1.6.4-2.2.2-1.2.3-1.9.3-1.9v1.9c0 .6-.1 1.4-.1 2.2 0 .9-.2 1.8-.4 2.9-.1.5-.3 1.1-.4 1.6-.1.6-.4 1.1-.6 1.7-.4 1.2-.9 2.4-1.6 3.6-.7 1.2-1.4 2.4-2.3 3.5-.9 1.1-1.9 2.2-3 3.1-1.1 1-2.3 1.8-3.5 2.6-1.2.7-2.4 1.4-3.7 1.9-1.2.6-2.5 1-3.6 1.4-1.2.4-2.3.7-3.3.9-2.2.5-4 .7-5.2.8-1.2.1-2 .1-2 .1zm31.1-28s2.8-.4 6.9-.1c1 0 2.2.2 3.4.3 1.2.2 2.4.3 3.7.6 1.3.3 2.6.5 3.9 1 1.3.4 2.6.8 4 1.3 1.3.4 2.6 1 3.9 1.6.6.2 1.2.6 1.8.9l1.8.9c1.2.6 2.2 1.3 3.2 1.9 1 .6 1.9 1.3 2.8 1.9.8.6 1.6 1.2 2.3 1.7.6.6 1.2 1 1.6 1.4.9.8 1.4 1.3 1.4 1.3s-.6-.4-1.6-1c-.5-.3-1.1-.7-1.8-1.2s-1.5-.9-2.4-1.4c-.9-.5-1.8-1.1-2.9-1.6-1.1-.5-2.1-1.2-3.3-1.7-1.2-.5-2.3-1.1-3.6-1.6-1.2-.5-2.5-1.1-3.8-1.5-1.3-.5-2.6-.9-3.9-1.3-1.3-.4-2.6-.7-3.8-1.1-1.2-.3-2.4-.6-3.6-.8-1.2-.2-2.2-.5-3.3-.6-3.9-.8-6.7-.9-6.7-.9zm2.8 49.1s.8-.1 2.3-.4c.7-.1 1.6-.3 2.5-.6 1-.3 2.1-.6 3.2-1 2.3-.8 5-1.9 7.7-3.5 1.4-.7 2.7-1.6 4-2.5 1.3-.9 2.6-1.9 3.8-3.1 1.2-1.1 2.4-2.2 3.5-3.4.5-.6 1-1.2 1.6-1.8.5-.6 1-1.2 1.4-1.9.9-1.3 1.7-2.5 2.5-3.7.4-.6.7-1.2 1-1.8.3-.6.7-1.1.9-1.7.5-1.1 1.1-2.1 1.5-3.1.4-.9.8-1.7 1-2.4.5-1.4.9-2.1.9-2.1s-.2.8-.6 2.2c-.2.7-.5 1.6-.8 2.5-.3 1-.7 2.1-1.2 3.2-.5 1.2-1 2.4-1.7 3.7-.7 1.3-1.5 2.6-2.3 3.9-.9 1.3-1.9 2.6-3 3.9-1.1 1.2-2.3 2.5-3.6 3.6-1.3 1.1-2.6 2.2-4 3.1-1.4.9-2.8 1.8-4.2 2.5-1.4.7-2.8 1.3-4.2 1.9-1.4.5-2.7.9-3.9 1.2-2.4.6-4.5.9-6 1-1.5.4-2.3.3-2.3.3zM3.5 34.4s2 .9 4.9 2.5c1.5.8 3.1 1.7 4.9 2.8 1.8 1 3.7 2.2 5.5 3.3.9.6 1.9 1.2 2.8 1.8.9.6 1.8 1.2 2.7 1.7 1.7 1.1 3.3 2.2 4.7 3.2 2.7 1.9 4.4 3.3 4.4 3.3s-2-.9-4.9-2.5c-1.5-.8-3.1-1.7-4.9-2.8-.9-.5-1.8-1-2.7-1.6-.9-.6-1.9-1.1-2.8-1.7-1.9-1.2-3.7-2.3-5.4-3.5-1.7-1.1-3.3-2.2-4.7-3.2-2.7-1.9-4.5-3.3-4.5-3.3z" fill="#4A3369"/><ellipse fill="#BDABD6" transform="rotate(-23.004 4.1 34.5)" cx="4.1" cy="34.499" rx="2" ry="3.9"/></g><g transform="matrix(-1 0 0 1 123 50)"><circle fill="#A3B339" cx="8.7" cy="9" r="8.3"/><circle fill="#E7FFBD" cx="8.7" cy="9" r="6.3"/><path d="M4 9.1c0 2.9 8.8 3.1 9.9.3C15 6.7 4 5 4 9.1z" fill="#2B3021"/><path d="M.5 7.6s.1-.4.3-1.1c.2-.7.6-1.7 1.3-2.7.4-.5.8-1 1.4-1.5.6-.5 1.2-1 2-1.2.4-.2.8-.3 1.2-.4.4-.1.8-.2 1.3-.2.4 0 .9-.1 1.3 0h.6l.6.1c.9.1 1.7.4 2.4.8.8.4 1.4.9 2 1.5.5.6 1 1.2 1.3 1.9.3.7.6 1.3.7 1.9.2.6.3 1.2.3 1.7.1.5 0 1 0 1.3 0 .7-.1 1.1-.1 1.1s0-.4-.1-1.1c-.1-.4-.1-.8-.2-1.3s-.2-1-.4-1.6c-.2-.6-.5-1.2-.8-1.8-.3-.6-.8-1.1-1.3-1.7-.5-.5-1.1-1-1.9-1.3-.7-.3-1.5-.6-2.2-.7l-.6-.1H9c-.4-.1-.8 0-1.2 0-.4 0-.8.1-1.1.1-.4.1-.7.2-1.1.3-1.4.5-2.5 1.5-3.2 2.4-.8.9-1.3 1.8-1.6 2.5-.2.7-.3 1.1-.3 1.1z" fill="#687A27"/></g><path d="M120.7 60.2v-1c0-.6-.1-1.5-.4-2.5-.3-1-.9-2.2-2-3.2-.5-.5-1.2-.8-1.9-1-.7-.2-1.4-.3-2.2-.3-.7 0-1.5.1-2.1.3-.7.2-1.4.5-1.9.9-1.1.8-1.8 2-2.1 3.1-.3 1-.3 2-.3 2.6.1.6.2 1 .2 1s-.1-.3 0-1c0-.6.2-1.5.5-2.4.4-.9 1.1-1.9 2.1-2.6.5-.3 1.1-.6 1.7-.8.6-.2 1.3-.3 2-.3.6 0 1.3 0 1.9.2.6.2 1.2.4 1.7.8 1 .7 1.6 1.8 2 2.7.4 1 .6 1.8.7 2.4 0 .8.1 1.1.1 1.1z" fill="#687A27"/></g></svg>