<svg width="120" height="120" viewBox="0 0 120 120" xmlns="http://www.w3.org/2000/svg" xmlns:xlink="http://www.w3.org/1999/xlink"><defs><path id="a" d="M.51 1.47h18.996v20.762H.51z"/><path id="c" d="M.98 1.662h89.17v95.736H.98z"/><path id="e" d="M0 .532h22.363v14.064H0z"/></defs><g fill="none" fill-rule="evenodd"><path d="M17.298 48.611c-1.627-1.315-3.564-2.71-5.616-2.29-2.234.455-3.514 3.01-3.341 5.28.173 2.267 1.414 4.299 2.62 6.224-3.832.228-12.546 2.242-10.233 7.935 1.253 3.084 6.764 3.99 9.567 4.681 5.836 1.426 10.721 2.75 16-.202 2.984-1.667 7.085-3.004 5.107-7.153-3.1-6.525-8.469-9.914-14.104-14.475" fill="#E1B808"/><path d="M52.868 111.025c.329-1.192.658-2.201.722-2.383.876-2.478 1.253-4.988 1.184-7.617-.032-1.546-.494-3.596.172-5.05.495-1.1 2.12-1.539 3.234-1.298 2.018.435 1.416 2.407 1.276 3.927-.307 3.465-.586 6.868-.718 10.36 5.345-.64 9.805.463 12.243 5.698-2.942.828-6.05.575-9.079.604-3.307.036-6.614.075-9.914.11-.053-1.52.482-2.911.88-4.351" fill="#E78874"/><g transform="matrix(-1 0 0 1 63.429 96.106)"><mask id="b" fill="#fff"><use xlink:href="#a"/></mask><path d="M18.623 17.885a46.432 46.432 0 0 0-.725-2.382c-.87-2.48-1.246-4.99-1.185-7.62.04-1.543.494-3.595-.164-5.053-.5-1.096-2.124-1.534-3.235-1.3-2.025.433-1.42 2.412-1.282 3.932.31 3.467.588 6.868.718 10.357-5.345-.634-9.799.469-12.24 5.703 2.942.828 6.046.573 9.079.604 3.307.034 6.61.07 9.914.106.053-1.515-.482-2.907-.88-4.347" fill="#F7B9AE" mask="url(#b)"/></g><g transform="matrix(-1 0 0 1 106.286 2.048)"><mask id="d" fill="#fff"><use xlink:href="#c"/></mask><path d="M90.151 73.466c0-5.73-.046-11.945-3.993-16.674-3.704-4.448-11.386-4.03-16.952-5.009-4.972-.872-10.044-1.777-14.457-4.224-8.031-4.46-12.523-13.197-16.561-21.44-3.19-6.517-4.943-15.114-10.569-19.906-6.36-5.416-13.932-6.312-20.71-.978-7.656 6.018-8.51 18.847 1.066 23.408 3.137 1.498 6.813 1.94 9.543 4.093 3.244 2.568 4.389 7.047 4.216 11.174-.178 4.13-1.456 8.125-2.152 12.202-2.792 16.313 3.239 31.3 18.991 37.859 15.43 6.426 37.85 4.314 47.827-10.6a23.262 23.262 0 0 0 3.751-9.905" fill="#F8D134" mask="url(#d)"/></g><path d="M89.173 18.267a3.755 3.755 0 0 0 3.76 3.748 3.753 3.753 0 0 0 3.76-3.748 3.753 3.753 0 0 0-3.76-3.747 3.756 3.756 0 0 0-3.76 3.747" fill="#040000"/><path d="M87.378 27.919c0 2.758-2.24 4.99-5 4.99a4.995 4.995 0 0 1-5-4.99 4.996 4.996 0 0 1 5-4.989c2.76 0 5 2.236 5 4.989" fill="#E89E9E"/><path d="M18.701 63.942c.573 1.76.89 2.993 2.4 4.113.856.638 3.682 2.868 4.802 2.603-1.324.311-2.65.627-3.977.946 2.257 1.156 4.53 2.317 6.961 3.049 2.431.725 5.058 1.009 7.512.37a7.912 7.912 0 0 1-2.958 1.887c5.969 1.777 11.556 2.415 17.65.874 5.239-1.322 10.224-4.04 13.172-8.693 3.647-5.754 1.458-14.07-4.215-17.732-.744-.482-1.562-.785-2.38-1.033C43.453 46.022 31.926 54.145 21 61.979c-.303.22-2.405 1.418-2.299 1.963" fill="#E1B808"/><g transform="matrix(-1 0 0 1 120 19.15)"><mask id="f" fill="#fff"><use xlink:href="#e"/></mask><path d="M22.083 11.025c.756-1.389-.214-2.473-.615-3.714-.492-1.499-.492-2.99-1.332-4.4-1.42-2.374-4.77-3.491-6.581-.863-2.404 3.479-5.21 6.008-9.521 6.97-.893.2-1.816.326-2.62.753-.805.426-1.48 1.25-1.409 2.16.106 1.398 1.762 2.066 3.15 2.294 4.323.723 8.752.268 13.098-.337 1.762-.248 4.908-1.168 5.83-2.863" fill="#EAA250" mask="url(#f)"/></g></g></svg>