<svg width="480" height="360" viewBox="0 0 480 360" xmlns="http://www.w3.org/2000/svg"><g fill="none" fill-rule="evenodd"><path fill="#A7DAEB" d="M0 360h480V0H0z"/><path fill="#6EC6E5" d="M318.093 278.265l7.283-59.873 23.06 5.114 6.572-20.743 19.878 4.342 2.132-9.146 8.96 2.041-21.332 90.881-46.553-12.616"/><path fill="#C7E7F1" d="M330.227 229.532l-.998 7.564 4.653.668.998-7.562-4.653-.67m8.506 1.111l-.999 7.564 4.653.669.992-7.563-4.646-.67m18.393-17.051l-.998 7.565 4.646.668.999-7.563-4.647-.67m8.928 1.421l-.998 7.564 4.653.668.992-7.562-4.647-.67m-2.182 12.897l-.998 7.565 4.652.668.992-7.563-4.646-.67m-10.842 9.858l-.998 7.565 4.653.668.998-7.563-4.653-.67m6.919 11.57l-.999 7.564 4.647.668.998-7.562-4.646-.67m-9.741 9.652l-.998 7.565 4.652.668.999-7.563-4.653-.67m5.645 11.351l-.992 7.564 4.646.668.999-7.562-4.653-.67M336.55 244.42l-.998 7.565 4.653.668.992-7.563-4.647-.67m-9.145 9.034l-.999 7.564 4.653.668.999-7.562-4.653-.67m5.645 11.273l-.992 7.565 4.646.668.998-7.563-4.652-.67"/><path fill="#6EC6E5" d="M80.825 290.578l-7.288-59.873-23.055 5.114-6.577-20.743-19.876 4.342-2.134-9.145-8.96 2.04 21.334 90.881 46.556-12.616"/><path fill="#C7E7F1" d="M68.687 241.845l.997 7.565-4.65.668-.997-7.563 4.65-.67m-8.505 1.111l.998 7.565-4.65.668-.997-7.563 4.65-.67m-18.391-17.05l.997 7.565-4.65.667-.997-7.562 4.65-.67m-8.931 1.42l.998 7.565-4.65.668-.997-7.563 4.65-.67m2.183 12.898l.997 7.564-4.65.668-.996-7.562 4.65-.67m10.837 9.858l.997 7.564-4.65.668-.996-7.563 4.649-.67m-6.914 11.57l.997 7.564-4.65.669-.997-7.563 4.65-.67m9.738 9.653l.997 7.564-4.65.669-.997-7.563 4.65-.67m-5.647 11.35l.997 7.565-4.65.668-.997-7.563 4.65-.67m19.306-25.921l.997 7.565-4.65.668-.997-7.562 4.65-.67m9.144 9.033l.997 7.565-4.65.668-.996-7.563 4.649-.67m-5.646 11.273l.997 7.565-4.65.668-.997-7.563 4.65-.67"/><path fill="#6EC6E5" d="M206.548 268.068l-8.382-104.524 16.845-13.497 22.645 13.466 2.934 22.953 14.284-9.03 16.652 12.675 4.794 35.283 21.126.306-3.507 48.758-87.39-6.39"/><path fill="#C7E7F1" d="M205.02 170.21l.57 7.609 4.688-.296-.57-7.607-4.688.294m10.011-.492l.569 7.608 4.689-.296-.57-7.607-4.688.295m10.862-.704l.57 7.609 4.688-.297-.57-7.606-4.688.294m-9.594 13.956l.57 7.608 4.688-.296-.57-7.607-4.688.295m-8.65 12.01l.57 7.608 4.688-.297-.57-7.606-4.688.294m10.011 9.665l.57 7.608 4.688-.296-.57-7.607-4.688.295m9.829 10.992l.57 7.61 4.688-.297-.57-7.606-4.688.293m17.919-18.003l.097 7.63 4.697-.005-.096-7.628-4.698.003m9.638 0l.096 7.63 4.698-.005-.096-7.628-4.698.003m0 11.807l.096 7.629 4.698-.005-.096-7.628-4.698.003m-9.638 9.993l.097 7.63 4.697-.005-.096-7.628-4.698.003m19.021 10.707l.102 7.63 4.698-.006-.103-7.627-4.697.003m14.342 1.781l-.41 7.62 4.685.309.416-7.617-4.69-.311m9.746.746l-.416 7.618 4.692.31.41-7.616-4.686-.312m-.658 12.488l-.417 7.619 4.685.31.416-7.617-4.685-.312m-10.541 8.451l-.416 7.618 4.692.31.416-7.617-4.692-.311m-22.272-14.726l.096 7.628 4.698-.005-.096-7.627-4.698.003m-8.322 12.482l.098 7.63 4.698-.006-.096-7.628-4.7.004m9.814 0l.096 7.63 4.697-.006-.096-7.628-4.697.004m7.891-53.728l.102 7.63 4.698-.005-.103-7.628-4.697.003m-45.501 31.497l.57 7.609 4.688-.297-.57-7.606-4.688.294m-10.051.861l.57 7.609 4.687-.296-.57-7.607-4.687.294m11.412 11.791l.57 7.61 4.688-.297-.57-7.607-4.688.294m8.611 10.771l.569 7.608 4.688-.296-.57-7.606-4.688.294"/><path fill="#6EC6E5" d="M109.227 289.6l-8.656-82.495 22.736-3.542-2.56-22.123 27.38-4.004 6.097 47.027 20.024-4.66 8.563 60.793-73.584 9.004"/><path fill="#C7E7F1" d="M105.28 212.252l1.28 7.522 4.64-.734-1.28-7.52-4.64.732m9.6-1.44l1.28 7.522 4.64-.734-1.28-7.52-4.64.732m2.96 15.618l1.28 7.522 4.64-.734-1.28-7.52-4.64.732m10.08-39.07l1.28 7.52 4.64-.733-1.28-7.52-4.64.732m11.84 10.693l1.28 7.521 4.64-.734-1.28-7.52-4.64.733m1.93 12.76l1.28 7.522 4.64-.734-1.28-7.52-4.64.732m-7.2 15.315l1.28 7.522 4.64-.734-1.28-7.52-4.64.732m10.676 11.343l1.28 7.523 4.64-.734-1.28-7.52-4.64.732m15.04-9.509l1.28 7.522 4.64-.734-1.28-7.52-4.64.732m2.96 17.763l1.28 7.522 4.64-.734-1.28-7.52-4.64.732m-24.436 4.399l1.28 7.521 4.64-.734-1.28-7.52-4.64.733m6.436 12.143l1.28 7.522 4.64-.734-1.28-7.52-4.64.732M130 199.368l1.28 7.522 4.64-.734-1.28-7.52-4.64.732m-18.8 42.23l1.28 7.522 4.64-.735-1.28-7.52-4.64.733m9.6 10.182l1.28 7.521 4.64-.734-1.28-7.52-4.64.732m-5.92 13.606l1.28 7.522 4.64-.734-1.28-7.52-4.64.732"/><path fill="#6EC6E5" d="M395.347 292.89l18.976-80.747 22.637 4.139 4.864-21.734 27.174 5.231-9.721 46.415 20.441 2.19-11.923 60.224-72.448-15.718"/><path fill="#C7E7F1" d="M417.075 218.553l-1.267 7.524 4.627.834 1.267-7.522-4.627-.836m9.543 1.8l-1.268 7.524 4.621.834 1.267-7.522-4.62-.836m-2.349 15.723l-1.267 7.523 4.627.834 1.267-7.522-4.627-.835M446.65 202.5l-1.268 7.523 4.621.834 1.267-7.522-4.62-.836m7.66 13.994l-1.267 7.524 4.621.834 1.267-7.522-4.62-.836m-2.375 12.685l-1.267 7.524 4.62.834 1.268-7.523-4.621-.835m-11.84 12.092l-1.267 7.523 4.62.834 1.268-7.522-4.621-.836m6.342 14.226l-1.267 7.524 4.627.834 1.268-7.522-4.628-.836m17.332-4.028l-1.268 7.524 4.628.834 1.267-7.523-4.627-.835m-3.047 17.747l-1.267 7.524 4.62.834 1.268-7.522-4.62-.836m-24.526-3.89l-1.267 7.525 4.621.834 1.267-7.523-4.62-.836m2.079 13.586l-1.267 7.523 4.621.834 1.267-7.522-4.62-.836m6.381-64.385l-1.268 7.524 4.627.834 1.261-7.523-4.62-.835m-31.649 33.688l-1.267 7.524 4.62.834 1.268-7.522-4.62-.836m5.708 12.774l-1.267 7.524 4.627.835 1.267-7.523-4.627-.836m-10.067 10.899l-1.267 7.524 4.627.834 1.26-7.522-4.62-.836"/><path d="M0 360v-64.64s89.436-29.251 234.318-29.251S480 298.56 480 298.56V360H0" fill="#8CB83F"/><path d="M91.556 276.068c-6.204 5.617-8.335 14.203 21.909 21.157 49.415 11.361 236.045 12.106 265.927 0 15.027-6.086 17.594-12.706 14.56-17.993-41.702-6.957-96.48-13.123-159.634-13.123-56.79 0-105.057 4.495-142.762 9.96" fill="#97C53E"/><path d="M235.775 336.746c-83.906 0-156.095-7.253-191.295-23.692-24.068-11.24-12.83-22.241-3.315-28.076C14.465 290.632 0 295.36 0 295.36V360h480v-61.44s-14.483-4.66-40.346-10.449c28.64 41.903-106.56 48.635-203.88 48.635" fill="#80A63F"/><path d="M0 360h162.053c-36.852-2.221-70.975-5.597-97.733-9.828C28.7 344.538 9.722 336.932 0 329.515V360m348.614 0H480v-41.264c-7.776 9.005-23.54 18.882-51.52 28.329-18.38 6.207-46.586 10.413-79.866 12.935" fill="#73963F"/><path d="M423.654 303.421s-1.337-8.31-9.35-14.098c0 0 7.123 1.929 10.093 9.349 0 0-.595-11.576-5.043-15.434 0 0 5.932 3.74 7.27 12.482 0 0 .595-13.521-2.97-17.38 0 0 7.424 6.53 8.167 19.739 0 0 1.037-10.24 6.38-14.84 0 0-2.527 7.895-2.374 12.48 0 0 2.221-4.764 7.123-5.951 0 0-4.307 4.304-4.307 8.608 0 0 2.375-5.195 9.799-6.382 0 0-7.719 5.046-7.424 11.427h-17.364M176.4 348.316s-2.145-8.052-10.56-10.667c0 0 6.6-.679 11.386 4.953 0 0-.66-9.833-6.766-13.569 0 0 9.406 3.507 10.726 13.334 0 0 .66-16.086-3.63-19.878 0 0 7.59 4.923 8.58 18.716 0 0 .99-10.416 7.756-12.172 0 0-3.96 8.145-3.63 14.58 0 0 2.805-5.658 8.415-5.964 0 0-5.28 4.149-5.775 10.667H176.4m-146.755-8.041s-1.04-7.133-7.961-9.899c0 0 6.378-.791 9.386 4.95 0 0-.316-8.924-6.49-12.753 0 0 6.807 2.349 8.073 8.442 0 0 .317-8.656 8.391-10.385 0 0-5.857 5.08-5.7 12.996 0 0 2.059-7.314 7.917-7.457 0 0-5.541 3.905-5.541 9.322 0 0 3.483-5.186 9.973-4.476 0 0-7.757 2.294-9.34 9.26h-8.708" fill="#C3D536"/><path d="M102.932 72.6s6.955-.427 12.171-2.56c5.216-2.133 8.693-6.827 11.823-2.56 0 0 4.869-4.745 7.302-1.733 0 0 1.044-7.654 9.39-6.8 0 0 4.868-6.96 8.346-.067 0 0 3.477-9.01 10.084-5.325 0 0 7.65-4.422 8.693 4.112 0 0 4.869-3.414 6.607 2.986 0 0 5.216-4.403 6.26 1.852 0 0 2.086-8.678 7.65-5.265 0 0 2.782-6.517 9.04-3.685 0 0 5.565-.582 4.522 4.965 0 0 5.216-1.844 5.216 3.985 0 0 4.173-3.985 6.607 2.842 2.434 6.826 15.996 7.253 15.996 7.253H102.932m314.879-5.615s6.957-.427 12.173-2.56c5.216-2.134 8.691-6.827 11.82-2.56 0 0 4.871-4.745 7.303-1.733 0 0 1.043-7.654 9.389-6.8 0 0 4.87-6.96 8.346-.067 0 0 3.481-9.01 10.086-5.325 0 0 7.648-4.422 8.691 4.111 0 0 4.87-3.413 6.611 2.987 0 0 5.216-4.404 6.26 1.852 0 0 2.086-8.679 7.648-5.265 0 0 2.784-6.517 9.043-3.685 0 0 5.561-.582 4.518 4.965 0 0 5.216-1.844 5.216 3.985 0 0 4.173-3.985 6.605 2.841 2.438 6.827 16 7.254 16 7.254H417.811m-88.582 48.873s16.32-2.88 19.2-4.48c2.88-1.6 1.92-6.08 7.04-4.48 0 0 .32-4.16 4.48-2.88 0 0 1.92-4.97 6.08-.245 0 0 .64-6.795 6.72-6.475 6.08.32 6.72 2.56 6.72 2.56s1.6-5.782 5.76-2.572c0 0 8.32-2.868 8.32 3.852 0 0 2.56-4.16 5.76-1.28 0 0 3.84-5.12 7.36 1.28 0 0 4.8-4.267 6.72.426 0 0 4.057-1.066 4.909 3.414 0 0 1.068-4.48 5.12-2.987 0 0 2.348-4.053 5.76-1.28 3.41 2.773 1.708 5.376 1.708 5.376s3.84-.256 3.84 2.944c0 0 7.252 5.973 14.503 6.827h-120M-60 153.965s16.32-2.88 19.2-4.48c2.88-1.6 1.92-6.08 7.04-4.48 0 0 .32-4.16 4.48-2.88 0 0 1.92-4.97 6.08-.244 0 0 .64-6.796 6.72-6.476 6.08.32 6.72 2.56 6.72 2.56s1.6-5.781 5.76-2.57c0 0 8.32-2.87 8.32 3.85 0 0 2.56-4.16 5.76-1.28 0 0 3.84-5.12 7.36 1.28 0 0 4.8-4.266 6.72.427 0 0 4.053-1.067 4.907 3.413 0 0 1.066-4.48 5.12-2.986 0 0 2.346-4.054 5.76-1.28 3.413 2.773 1.706 5.376 1.706 5.376s3.84-.256 3.84 2.944c0 0 7.254 5.973 14.507 6.826H-60m108.072-40.039h79.36l-13.653-3.627s0-3.733-3.734-3.306c0 0 .747-3.307-2.773-3.734 0 0-.533-4.053-4.8-4.693-4.267-.64-5.547 2.24-5.547 2.24s-1.173-7.36-7.893-7.04c-6.72.32-6.827 5.973-6.827 5.973s-1.706-2.133-4.16-1.173c-2.453.96-1.92 3.413-1.92 3.413s-2.026-1.493-3.84-.64c-1.813.853-1.386 2.502-1.386 2.502s-2.774-1.329-3.414 1.872c0 0-2.666-1.067-4.053.213s-.533 2.987-.533 2.987-1.707-2.24-3.2 0c-1.494 2.24-11.627 5.013-11.627 5.013M-46.096 70.22h79.36L19.61 66.594s0-3.734-3.733-3.307c0 0 .747-3.307-2.773-3.733 0 0-.534-4.054-4.8-4.694-4.267-.64-5.547 2.24-5.547 2.24s-1.173-7.36-7.893-7.04c-6.72.32-6.827 5.974-6.827 5.974s-1.707-2.134-4.16-1.174c-2.453.96-1.92 3.414-1.92 3.414s-2.027-1.494-3.84-.64c-1.813.853-1.387 2.501-1.387 2.501s-2.773-1.328-3.413 1.872c0 0-2.667-1.067-4.053.213-1.387 1.28-.534 2.987-.534 2.987s-1.706-2.24-3.2 0c-1.493 2.24-11.626 5.013-11.626 5.013m413.974 96.512h79.36l-13.65-3.627s0-3.733-3.732-3.306c0 0 .742-3.307-2.778-3.734 0 0-.53-4.053-4.8-4.693-4.262-.64-5.542 2.24-5.542 2.24s-1.178-7.36-7.898-7.04c-6.72.32-6.822 5.973-6.822 5.973s-1.709-2.133-4.16-1.173c-2.458.96-1.92 3.413-1.92 3.413s-2.029-1.493-3.84-.64c-1.818.854-1.389 2.502-1.389 2.502s-2.771-1.328-3.411 1.872c0 0-2.669-1.067-4.058.213-1.382 1.28-.53 2.987-.53 2.987s-1.71-2.24-3.2 0c-1.492 2.24-11.63 5.013-11.63 5.013M297.446 77.06c.948-.267 1.87-.59 2.72-1.039a8.466 8.466 0 0 0 1.216-.735c.199-.14.346-.274.564-.444.192-.15.39-.3.652-.441.244-.132.487-.247.75-.324a4.38 4.38 0 0 1 .786-.177 4.746 4.746 0 0 1 1.613.071c.269.048.531.14.781.247.256.105.5.242.73.398.23.158.448.348.64.557.192.217.358.458.492.72l-.876-.061a5.26 5.26 0 0 1 1.165-1.157c.223-.16.454-.31.703-.423.244-.128.512-.218.781-.292.275-.06.55-.108.826-.11.281-.025.557.031.832.058.262.075.537.11.78.229.25.103.5.206.717.352.23.138.442.266.64.403l.615.392c.403.256.825.496 1.26.715.423.229.865.436 1.319.615.454.172.915.338 1.402.446-.999-.01-1.972-.288-2.919-.606a14.367 14.367 0 0 1-2.054-.937 9.532 9.532 0 0 0-.634-.33c-.198-.114-.416-.18-.627-.25-.211-.09-.429-.099-.64-.153-.218-.006-.429-.047-.64-.012a2.93 2.93 0 0 0-.627.113c-.199.072-.403.133-.595.24-.192.09-.378.215-.55.345a3.84 3.84 0 0 0-.5.435c-.154.152-.307.34-.41.487l-.486.688-.39-.748a2.747 2.747 0 0 0-.327-.497c-.14-.15-.288-.29-.46-.411a3.192 3.192 0 0 0-.557-.312 3.45 3.45 0 0 0-.608-.213 3.9 3.9 0 0 0-2.567.197c-.096.048-.185.082-.288.14l-.307.199c-.18.114-.41.292-.634.404a8.292 8.292 0 0 1-1.376.634c-.953.312-1.926.543-2.912.587m19.002-6.86c.94-.267 1.869-.59 2.714-1.038a8.408 8.408 0 0 0 1.216-.735c.204-.14.352-.274.57-.445a4.141 4.141 0 0 1 1.395-.764c.255-.091.524-.134.793-.177a4.93 4.93 0 0 1 .806-.033c.27.016.544.041.807.104.269.048.531.14.78.247a4 4 0 0 1 .73.397c.23.159.442.348.64.558.192.217.352.458.493.719l-.877-.06c.18-.256.346-.439.544-.633a4.79 4.79 0 0 1 .621-.525c.218-.159.454-.308.704-.423.243-.127.512-.218.78-.291a3.81 3.81 0 0 1 .826-.11c.282-.026.557.03.826.058.262.075.544.11.787.228.25.103.493.207.717.353.23.138.442.266.64.403l.614.392c.404.256.826.495 1.255.714.429.23.87.437 1.325.616.454.172.915.337 1.395.445-.992-.009-1.971-.287-2.919-.606a14.742 14.742 0 0 1-2.048-.937 9.532 9.532 0 0 0-.633-.33c-.205-.113-.416-.18-.627-.249-.212-.09-.43-.1-.64-.153-.218-.007-.436-.047-.647-.012a2.902 2.902 0 0 0-.62.113c-.205.071-.41.133-.596.24-.198.09-.377.215-.55.345-.18.13-.346.276-.5.435a4.272 4.272 0 0 0-.415.487l-.48.687-.39-.748a2.782 2.782 0 0 0-.334-.497 2.995 2.995 0 0 0-.454-.41 3.234 3.234 0 0 0-.557-.313 3.45 3.45 0 0 0-.608-.212 3.922 3.922 0 0 0-2.573.197c-.09.048-.179.081-.281.14l-.307.199c-.18.114-.416.291-.634.404a8.292 8.292 0 0 1-1.376.633c-.954.313-1.926.543-2.912.587M34.845 89.326c.946-.267 1.87-.59 2.72-1.039a8.478 8.478 0 0 0 1.216-.734c.201-.14.346-.274.568-.445a4.2 4.2 0 0 1 .648-.441c.247-.132.487-.247.748-.323a4.36 4.36 0 0 1 .79-.177 4.97 4.97 0 0 1 .809-.033c.27.016.54.04.805.103.268.05.528.14.78.247a3.929 3.929 0 0 1 1.37.955c.192.217.354.46.491.72l-.875-.061c.18-.255.349-.438.545-.632a4.97 4.97 0 0 1 .62-.525c.22-.159.452-.309.703-.423a3.89 3.89 0 0 1 .78-.291 3.8 3.8 0 0 1 .829-.11c.278-.026.555.03.827.058.263.075.541.11.783.228.249.103.496.206.715.353.235.137.445.265.644.402l.61.393c.406.256.83.496 1.261.714.427.23.868.436 1.321.616.455.172.917.337 1.399.445-.996-.009-1.972-.287-2.918-.606a14.739 14.739 0 0 1-2.051-.936 9.587 9.587 0 0 0-.636-.33c-.201-.114-.415-.18-.627-.25-.208-.09-.428-.099-.64-.153-.215-.007-.43-.047-.642-.012-.213.009-.42.058-.625.112-.2.073-.405.134-.594.24a3.29 3.29 0 0 0-.553.345 4.02 4.02 0 0 0-.497.436c-.153.151-.31.339-.413.487l-.484.688-.391-.75a2.603 2.603 0 0 0-.329-.495 2.912 2.912 0 0 0-1.01-.724 3.576 3.576 0 0 0-.612-.213 3.912 3.912 0 0 0-2.569.198c-.093.048-.184.08-.285.14l-.308.199c-.177.114-.412.291-.63.404a8.501 8.501 0 0 1-1.38.633c-.953.313-1.925.543-2.913.587m42.354 75.93c.946-.267 1.868-.59 2.718-1.039a8.501 8.501 0 0 0 1.216-.735c.203-.14.347-.274.569-.445.186-.149.386-.3.648-.44a3.9 3.9 0 0 1 .748-.324 4.459 4.459 0 0 1 1.598-.21c.27.016.541.041.806.104.268.048.528.14.78.247a3.936 3.936 0 0 1 1.37.955c.192.217.354.458.491.72l-.875-.061c.18-.255.35-.438.546-.633.19-.191.398-.367.62-.525.22-.158.45-.309.703-.423a3.75 3.75 0 0 1 1.608-.4c.278-.027.555.03.827.057.262.075.54.11.783.229.249.103.496.206.715.352.235.138.445.266.644.403l.61.392c.406.256.83.496 1.26.715.428.229.868.436 1.322.615.455.172.917.338 1.399.446-.996-.01-1.972-.288-2.919-.606a14.656 14.656 0 0 1-2.05-.937 9.403 9.403 0 0 0-.636-.33c-.2-.114-.416-.18-.628-.25-.207-.09-.428-.099-.639-.153-.215-.007-.43-.047-.642-.012-.213.01-.42.059-.625.113-.2.072-.405.133-.594.24-.195.09-.377.215-.553.345a3.87 3.87 0 0 0-.497.436c-.153.15-.31.338-.413.486l-.485.688-.39-.749a2.655 2.655 0 0 0-.328-.496 2.97 2.97 0 0 0-.46-.411 3.576 3.576 0 0 0-1.164-.525 3.91 3.91 0 0 0-2.568.197c-.094.048-.185.081-.285.14l-.309.2c-.176.113-.411.29-.63.403a8.444 8.444 0 0 1-1.379.634c-.953.312-1.925.543-2.912.587M53.846 82.467c.946-.267 1.868-.59 2.718-1.04a8.443 8.443 0 0 0 1.216-.734c.203-.14.347-.274.569-.445.186-.149.386-.299.648-.44.248-.132.487-.248.748-.324.256-.09.523-.134.79-.176a4.699 4.699 0 0 1 1.614.07c.268.049.528.14.78.247.255.104.498.242.73.397.232.16.445.349.641.558.192.217.353.459.49.72l-.874-.062c.179-.254.348-.437.545-.632.19-.191.398-.366.62-.525.22-.158.45-.308.703-.423.244-.127.51-.217.778-.291.274-.06.548-.109.83-.11.278-.025.555.03.827.059.262.074.54.109.783.228.249.103.496.206.715.352.235.138.445.266.644.403l.61.392c.406.256.83.496 1.26.714.428.23.869.438 1.322.616.455.172.917.337 1.399.446-.996-.01-1.972-.287-2.919-.606a14.83 14.83 0 0 1-2.05-.937 9.423 9.423 0 0 0-.636-.33c-.2-.114-.416-.18-.628-.249-.207-.09-.428-.1-.639-.154-.215-.006-.43-.046-.642-.012a2.95 2.95 0 0 0-.625.113c-.2.072-.405.134-.594.24a3.26 3.26 0 0 0-.553.345 3.87 3.87 0 0 0-.497.436c-.153.15-.31.338-.413.486l-.485.688-.39-.749a2.63 2.63 0 0 0-.328-.496 2.94 2.94 0 0 0-.46-.411 3.578 3.578 0 0 0-1.164-.525 3.91 3.91 0 0 0-2.568.197c-.094.048-.185.081-.285.14l-.309.2c-.176.113-.411.29-.63.404a8.498 8.498 0 0 1-1.379.633c-.953.313-1.925.543-2.912.587m270.692 1.811c.947-.266 1.868-.589 2.72-1.038a8.408 8.408 0 0 0 1.216-.735c.204-.14.345-.274.57-.445.185-.149.383-.299.646-.44.25-.132.486-.248.748-.324a4.45 4.45 0 0 1 1.6-.21c.27.016.538.041.807.104.269.048.525.14.78.247.25.104.493.242.73.397.23.16.442.348.64.558.192.217.352.459.487.719l-.87-.06a4.23 4.23 0 0 1 .543-.633 4.84 4.84 0 0 1 .621-.525 3.95 3.95 0 0 1 .704-.423c.243-.127.506-.218.774-.291.276-.06.55-.109.832-.109.276-.026.557.03.826.058.262.074.544.108.78.228.25.103.5.206.718.352.236.138.448.266.646.403l.608.392c.41.256.832.496 1.26.714.43.23.871.437 1.326.616.454.172.915.338 1.395.445-.992-.008-1.971-.286-2.919-.605a14.58 14.58 0 0 1-2.048-.937 9.637 9.637 0 0 0-.64-.33c-.198-.114-.416-.18-.627-.25-.205-.09-.429-.098-.64-.153-.211-.006-.429-.047-.64-.012a2.96 2.96 0 0 0-.627.113c-.198.072-.403.133-.589.24a3.23 3.23 0 0 0-.557.345 4.15 4.15 0 0 0-.492.435 3.708 3.708 0 0 0-.416.487l-.487.688-.39-.749a2.423 2.423 0 0 0-.327-.496 2.74 2.74 0 0 0-.46-.411 3.132 3.132 0 0 0-.55-.312 3.711 3.711 0 0 0-.615-.213c-.839-.234-1.773-.149-2.567.197-.096.048-.185.082-.281.14l-.314.2c-.173.113-.41.29-.627.404a8.657 8.657 0 0 1-1.382.633c-.954.312-1.92.543-2.912.586m119.699 50.125c.94-.267 1.862-.59 2.713-1.039a8.408 8.408 0 0 0 1.216-.734c.205-.14.352-.274.57-.445a4.12 4.12 0 0 1 .646-.441c.25-.131.487-.247.75-.323.255-.091.524-.135.793-.177a4.93 4.93 0 0 1 .806-.033c.269.016.544.04.807.104.268.048.524.14.78.247.256.104.5.242.73.397.23.16.442.348.64.557.192.217.352.46.493.72l-.877-.061c.18-.254.346-.438.544-.632a4.84 4.84 0 0 1 .62-.525c.218-.159.449-.309.705-.423.243-.127.512-.218.774-.291.275-.061.55-.11.832-.11.282-.025.557.03.826.058.262.075.544.11.787.228.25.103.493.207.71.353.237.138.448.266.647.403l.608.392c.41.256.832.496 1.26.714.43.23.871.437 1.325.616.455.172.916.337 1.396.445-.992-.009-1.972-.287-2.919-.605-.467-.172-.928-.37-1.382-.59a10.46 10.46 0 0 1-.666-.347 9.553 9.553 0 0 0-.633-.33c-.205-.114-.416-.18-.628-.25-.21-.09-.428-.099-.64-.153-.217-.006-.435-.047-.646-.012a2.902 2.902 0 0 0-.62.112c-.206.073-.41.134-.596.241-.198.09-.378.215-.557.344a4.308 4.308 0 0 0-.493.436 3.708 3.708 0 0 0-.416.487l-.48.688-.396-.75a2.423 2.423 0 0 0-.327-.495 2.966 2.966 0 0 0-.454-.412 3.19 3.19 0 0 0-.557-.311 3.451 3.451 0 0 0-.608-.213 3.922 3.922 0 0 0-2.573.197c-.09.048-.185.081-.281.14l-.308.199c-.179.114-.416.291-.633.404a8.344 8.344 0 0 1-1.376.634c-.954.312-1.927.543-2.912.586m10.899 15.011c.947-.266 1.869-.59 2.72-1.038a8.466 8.466 0 0 0 1.216-.735c.198-.14.346-.274.57-.445.185-.149.384-.3.646-.44.25-.133.486-.248.749-.324.256-.09.525-.134.787-.177a4.764 4.764 0 0 1 1.62.071c.262.048.524.14.774.247.256.104.499.242.73.397.236.159.447.348.646.558.185.217.352.458.486.719l-.877-.06a4.38 4.38 0 0 1 .55-.633c.193-.191.397-.367.615-.525.224-.159.454-.309.704-.423.25-.127.512-.218.78-.291.276-.06.551-.109.833-.11.275-.026.55.03.825.058.263.075.538.11.781.229.25.103.5.206.717.352.237.138.448.266.646.403l.608.392c.404.256.832.495 1.261.714.429.23.87.437 1.319.615.454.172.921.338 1.401.446-.998-.009-1.971-.287-2.918-.606a14.412 14.412 0 0 1-2.048-.937 9.616 9.616 0 0 0-.64-.33c-.199-.113-.416-.18-.627-.249-.205-.09-.43-.099-.64-.153-.212-.007-.43-.047-.64-.012a2.96 2.96 0 0 0-.628.113c-.198.071-.403.133-.595.24-.192.09-.377.215-.55.345a4.212 4.212 0 0 0-.909.922l-.486.687-.39-.748a2.747 2.747 0 0 0-.327-.497 3.015 3.015 0 0 0-.461-.41 3.135 3.135 0 0 0-.55-.313 3.71 3.71 0 0 0-.615-.212c-.838-.234-1.773-.149-2.566.197-.096.048-.186.081-.288.14l-.307.198c-.173.114-.41.292-.628.405a8.601 8.601 0 0 1-1.382.634c-.954.312-1.926.542-2.912.586" fill="#FFFFFE"/><path d="M117.29 319.332c-.213-9.741-2.583-20.659-2.606-20.767l.42-.093c.024.11 2.403 11.068 2.617 20.85l-.431.01" fill="#24793E"/><path d="M117.72 318.685l-.43-.035c.672-8.333 5.374-16.07 5.421-16.148l.367.225c-.046.077-4.695 7.73-5.358 15.958" fill="#24793E"/><path d="M117.505 319.327s-8.528 0-11.437-9.33c0 0 9.782-1.656 11.437 9.33" fill="#D2DB34"/><path d="M117.505 319.327s-4.816-6.02-8.352-6.923c0 0 6.095 4.29 8.352 6.923" fill="#B5C037"/><path d="M117.505 319.327s7.954 0 10.667-8.702c0 0-9.123-1.543-10.667 8.702" fill="#D2DB34"/><path d="M117.505 319.327s4.492-5.614 7.79-6.456c0 0-5.684 4-7.79 6.456" fill="#B5C037"/><path d="M112.072 292.927l-1.131-.716s-1.139 1.405-1.022 4.279c.116 2.873 2.688 4.04 4.975 3.317l-2.822-6.88m1.181-.373l.514-1.236s1.74.496 3.295 2.916c1.555 2.419.119 4.85-2.168 5.573l-1.64-7.253" fill="#E5752B"/><path d="M114.894 299.807c-2.312.73-4.644-3.79-2.58-8.171 0 0 1.842 1 3.191 3.485 1.35 2.484.341 4.385-.61 4.686" fill="#EB8C30"/><path d="M124.53 297.51l-.28-1.31s-1.8.17-3.773 2.263c-1.971 2.094-1.005 4.747 1.11 5.876l2.942-6.83m1.094.584l1.243-.497s.862 1.59.22 4.394c-.64 2.804-3.382 3.478-5.498 2.35l4.035-6.247" fill="#E5752B"/><path d="M121.588 304.34c-2.14-1.143-.541-5.97 4.034-7.56 0 0 .573 2.016-.258 4.718-.832 2.702-2.896 3.312-3.776 2.841" fill="#EB8C30"/><path d="M113.837 300.015s.637 1.25 1.546.95c.91-.3.776-1.794.776-1.794s-1.623.249-2.322.844m6.937 3.773s-.458 1.325.39 1.771c.848.446 1.83-.687 1.83-.687s-1.307-.996-2.22-1.084" fill="#85BF43"/><path d="M452.858 349.41c-.218-9.742-2.586-20.66-2.612-20.768l.423-.092c.025.11 2.406 11.068 2.617 20.85l-.428.01" fill="#24793E"/><path d="M453.286 348.763l-.428-.035c.672-8.334 5.37-16.071 5.42-16.15l.365.226c-.045.077-4.697 7.73-5.357 15.959" fill="#24793E"/><path d="M453.069 349.405s-8.525 0-11.437-9.331c0 0 9.786-1.655 11.437 9.33" fill="#D2DB34"/><path d="M453.069 349.405s-4.813-6.02-8.352-6.923c0 0 6.093 4.29 8.352 6.923" fill="#B5C037"/><path d="M453.069 349.405s7.955 0 10.669-8.702c0 0-9.127-1.544-10.67 8.702" fill="#D2DB34"/><path d="M453.069 349.405s4.493-5.614 7.789-6.457c0 0-5.684 4-7.79 6.457" fill="#B5C037"/><path d="M447.635 323.005l-1.133-.717s-1.132 1.405-1.017 4.279c.115 2.874 2.688 4.04 4.973 3.317l-2.823-6.88" fill="#E5752B"/><path d="M448.82 322.631l.511-1.236s1.741.496 3.296 2.916c1.555 2.42.122 4.85-2.17 5.573l-1.638-7.253" fill="#E5752B"/><path d="M450.458 329.884c-2.31.73-4.64-3.79-2.58-8.171 0 0 1.844 1 3.194 3.485 1.35 2.485.34 4.385-.614 4.686" fill="#EB8C30"/><path d="M460.096 327.587l-.282-1.31s-1.798.17-3.77 2.263c-1.977 2.094-1.01 4.748 1.108 5.877l2.944-6.83m1.094.583l1.242-.497s.858 1.59.218 4.394c-.64 2.804-3.38 3.479-5.498 2.35l4.038-6.247" fill="#E5752B"/><path d="M457.152 334.417c-2.138-1.142-.538-5.97 4.032-7.56 0 0 .576 2.016-.256 4.718-.832 2.703-2.893 3.311-3.776 2.842" fill="#EB8C30"/><path d="M449.402 330.093s.64 1.25 1.548.95c.91-.3.775-1.795.775-1.795s-1.626.249-2.323.845m6.938 3.771s-.462 1.326.39 1.772c.844.446 1.83-.688 1.83-.688s-1.306-.995-2.22-1.084" fill="#85BF43"/><path d="M53.267 287.327c-4.584.714-8.637 4.232-9.062 7.59-.426 3.36 5.525 4.001 11.69 3.994 6.164-.008 8.255-1.773 9.37-3.9 1.116-2.126-5.076-8.763-11.998-7.684" fill="#B6B8B5"/><path d="M62.003 289.757c1.417 1.871 1.623 7.882-7.864 7.97-7.271.068-9.279-2.288-9.82-3.397a5.147 5.147 0 0 0-.114.588c-.426 3.358 5.525 4 11.69 3.993 6.164-.008 8.255-1.773 9.37-3.9.58-1.105-.817-3.428-3.262-5.254" fill="#989B9A"/><path d="M59.487 288.27c-1.853-.838-3.998-1.29-6.22-.943-3.311.516-6.337 2.496-7.927 4.821.239 1.354 1.414 3.902 6.91 3.76 6.144-.159 8.368-5.125 7.237-7.637" fill="#CDCECA"/><path d="M53.825 288.856c.19.55-.817 1.397-2.25 1.894-1.434.497-2.75.453-2.94-.096-.19-.55.817-1.398 2.25-1.894 1.434-.497 2.75-.453 2.94.096" fill="#E5E6E3"/><path d="M63.082 293.745c-3.57.556-6.727 3.296-7.058 5.913-.332 2.615 4.303 3.115 9.104 3.11 4.802-.006 6.431-1.381 7.3-3.037.869-1.657-3.954-6.827-9.346-5.986" fill="#B6B8B5"/><path d="M69.886 295.638c1.105 1.457 1.264 6.14-6.125 6.208-5.663.053-7.227-1.783-7.649-2.647a3.71 3.71 0 0 0-.088.459c-.332 2.615 4.303 3.115 9.104 3.11 4.802-.006 6.431-1.381 7.3-3.037.451-.862-.637-2.671-2.542-4.093" fill="#989B9A"/><path d="M67.927 294.48c-1.444-.654-3.114-1.005-4.845-.735-2.579.402-4.935 1.945-6.174 3.755.186 1.055 1.102 3.04 5.383 2.929 4.785-.124 6.517-3.993 5.636-5.949" fill="#CDCECA"/><path d="M63.517 294.936c.148.428-.636 1.088-1.753 1.476-1.116.386-2.142.352-2.29-.076-.149-.428.637-1.089 1.753-1.475 1.117-.387 2.142-.353 2.29.075" fill="#E5E6E3"/><path d="M320.077 331.706c-4.583.715-8.634 4.233-9.063 7.591-.422 3.359 5.53 4 11.693 3.993 6.163-.007 8.256-1.773 9.37-3.899 1.113-2.126-5.075-8.763-12-7.685" fill="#B6B8B5"/><path d="M328.813 334.137c1.42 1.87 1.625 7.882-7.86 7.97-7.276.068-9.28-2.289-9.823-3.398-.052.197-.09.392-.116.588-.422 3.359 5.53 4 11.693 3.993 6.163-.007 8.256-1.773 9.37-3.899.582-1.105-.82-3.428-3.264-5.254" fill="#989B9A"/><path d="M326.298 332.65c-1.85-.839-3.994-1.29-6.221-.944-3.309.517-6.336 2.498-7.923 4.822.236 1.354 1.414 3.901 6.912 3.76 6.137-.16 8.364-5.126 7.232-7.638" fill="#CDCECA"/><path d="M320.64 333.236c.186.55-.82 1.398-2.253 1.894-1.433.496-2.752.453-2.937-.096-.192-.55.812-1.398 2.246-1.895 1.434-.496 2.752-.453 2.944.097" fill="#E5E6E3"/><path d="M338.157 334.506c-3.571.556-6.727 3.296-7.06 5.912-.332 2.616 4.301 3.116 9.108 3.11 4.8-.005 6.425-1.38 7.296-3.037.87-1.656-3.955-6.826-9.344-5.985" fill="#B6B8B5"/><path d="M344.96 336.399c1.107 1.457 1.26 6.139-6.125 6.208-5.664.053-7.225-1.783-7.648-2.647a4.16 4.16 0 0 0-.09.458c-.332 2.616 4.301 3.116 9.108 3.11 4.8-.005 6.425-1.38 7.296-3.037.454-.86-.634-2.67-2.541-4.092" fill="#989B9A"/><path d="M343.002 335.24c-1.447-.653-3.117-1.004-4.845-.734-2.58.402-4.935 1.945-6.176 3.755.185 1.055 1.1 3.039 5.382 2.928 4.787-.123 6.515-3.992 5.639-5.949" fill="#CDCECA"/><path d="M338.592 335.697c.147.428-.64 1.088-1.754 1.475-1.12.386-2.144.353-2.29-.075-.148-.428.64-1.089 1.753-1.475 1.113-.387 2.144-.354 2.291.075" fill="#E5E6E3"/><path d="M225.514 311.201s-.86-3.62 3.342-4.619c0 0-1.623-2.996 1.815-4.193 3.438-1.197 4.68 1.816 4.68 1.816s1.527-1.964 4.01-.149c2.483 1.816.573 3.529.573 3.529s1.814-.758 2.674 1.152c.86 1.91-.382 2.464-.382 2.464s2.96.297 3.533 2.927-3.151 4.849-3.151 4.849h-17.166l.072-7.776" fill="#7C9A3E"/><path d="M214.054 318.977s-2.769-1.225-1.91-3.422c.86-2.196 2.866-1.057 2.866-1.057s-1.433-1.569 0-3.216c1.432-1.647 2.96.415 2.96.415s-1.242-4.259 2.483-5.022c3.724-.765 4.297 3.501 4.297 3.501s1.05-2.07 3.82-.446c2.77 1.624.382 4.123.382 4.123s2.1-1.798 3.438 0c1.337 1.798 1.05 4.153-.668 5.124h-17.668" fill="#A2C940"/><path d="M369.9 313.713s-.857-3.621 3.348-4.619c0 0-1.626-2.996 1.811-4.193 3.437-1.197 4.679 1.816 4.679 1.816s1.53-1.964 4.012-.149c2.484 1.816.576 3.529.576 3.529s1.812-.758 2.67 1.152c.863 1.91-.378 2.464-.378 2.464s2.956.297 3.532 2.927c.57 2.63-3.155 4.849-3.155 4.849H369.83l.07-7.776" fill="#7C9A3E"/><path d="M358.445 321.489s-2.771-1.225-1.907-3.422c.857-2.196 2.86-1.058 2.86-1.058s-1.433-1.568 0-3.215c1.434-1.647 2.964.415 2.964.415s-1.242-4.259 2.483-5.023c3.725-.764 4.294 3.501 4.294 3.501s1.05-2.069 3.821-.445c2.771 1.624.384 4.123.384 4.123s2.1-1.798 3.437 0c1.337 1.798 1.05 4.152-.672 5.124h-17.664" fill="#A2C940"/></g></svg>