<svg width="120" height="120" viewBox="0 0 120 120" xmlns="http://www.w3.org/2000/svg" xmlns:xlink="http://www.w3.org/1999/xlink"><defs><path id="a" d="M.305.266h119.136v58.508H.305z"/></defs><g fill="none" fill-rule="evenodd"><path d="M114.647 42.91a26.845 26.845 0 0 0 1.82-5.857c.52-2.801-2.708-5.776-5.332-3.827-.2.148-.393.306-.591.457 1.072-3.156 1.418-6.492.505-9.887-.287-1.069-1.84-1.837-2.785-1.066-2.51 2.04-4.72 4.352-6.837 6.758 1.454-3.438 3.492-7.3 3.09-10.898-.183-1.622-1.797-3.295-3.565-2.568-4.047 1.668-6.432 5.918-8.732 9.55l.096-.54c.526-2.933-3.245-5.367-5.367-2.849-2.112 2.504-3.684 5.319-4.873 8.302a27.696 27.696 0 0 0-.702-1.952c-.855-2.106-4.202-3.072-5.295-.509-1.667 3.904-2.785 8.38-3.264 13.013-.133-.23-.259-.464-.408-.682-1.146-1.693-3.252-1.82-4.71-.474-3.852 3.562-2.182 10.659-.437 14.86 1.464 3.526 3.535 7.284 6.321 10.168a22.25 22.25 0 0 0-1.632 1.312c-2.72 2.436-.957 7.496 2.482 8.085 3.608.615 7.291.208 10.918-.762.295.193.592.381.915.538 2.905 1.428 6.645-.095 7.328-3.41.015-.073.018-.141.032-.214 2.788-1.286 5.47-2.72 7.972-4.069 7.48-4.028 17.533-11.33 17.669-20.812.034-2.22-2.724-3.832-4.618-2.668" fill="#629B21"/><path d="M80.111 26.732c1.049-2.664-1.076-6.876-4.454-5.418a86 86 0 0 0-2.813 1.284c2.081-2.617 3.844-5.42 4.781-8.658.926-3.195-2.386-5.456-5.18-4.852-2.865.619-5.536 2.018-8.037 3.81.193-.967.363-1.94.474-2.921.343-3.001-3.15-5.467-5.483-2.91-2.297 2.516-4.838 5.432-7.275 8.615-.747-2.239-2.262-3.821-5.225-3.19-4.978 1.056-6.697 7.209-7.617 11.775-.053-.032-.104-.07-.158-.1-3.998-2.395-8.348 1.976-7.288 6.046 1.038 3.992 2.048 8.256 4.922 11.297-.074-.002-.147-.012-.22-.013-4.902-.092-6.867 5.451-4.944 9.257C38.21 63.87 63.91 62.174 73.123 53.17c2.08-2.034.612-5.235-1.837-5.976-.372-.114-.755-.182-1.133-.268 2.902-1.788 5.516-3.86 7.444-6.178 1.3-1.562.814-4.422-1.468-4.781a20.807 20.807 0 0 0-3.318-.239c3.171-2.427 5.871-5.368 7.3-8.995" fill="#A4BE24"/><path d="M52.998 47.57c0 5.895-4.757 10.675-10.625 10.675-5.867 0-10.625-4.78-10.625-10.674 0-5.895 4.758-10.675 10.625-10.675 5.868 0 10.625 4.78 10.625 10.675m46.25 3.767c0 5.895-4.757 10.675-10.625 10.675-5.867 0-10.625-4.78-10.625-10.675 0-5.895 4.758-10.674 10.625-10.674 5.868 0 10.625 4.78 10.625 10.674" fill="#D63A26"/><path d="M38.928 42.832c-.57-2.72-3.59-4.256-6.233-3.912.152-1.923.01-3.87-.51-5.796-.85-3.147-5.235-4.235-7.383-1.734-.064.073-.116.145-.176.217-1.11-3.155-3.011-6.112-4.906-7.958-1.898-1.85-5.76-1.468-6.834 1.172-.73 1.797-1.186 3.784-1.386 5.818a14.154 14.154 0 0 0-2.35-1.082c-1.21-.439-2.553-.333-3.78-.058-1.6.36-2.733 1.557-3.595 2.867-.6.91-.825 2.363-.764 3.427.074 1.296.475 2.572 1.247 3.62.377.51.783.984 1.224 1.418-3.897 1.388-5.057 7.878-.686 9.703 1.414.591 2.854 1.062 4.306 1.498-1.836 1.602-1.601 4.319-.049 6.112 1.963 2.268 5.39 2.79 8.125 3.577 2.72.784 4.942 1.257 7.462.566-1.475 3.367-2.54 7.069-.29 9.977 1.843 2.381 4.378 3.088 7.102 1.7 4.13-2.101 5.804-10.298 7.453-14.434 2.185-5.482 3.25-10.857 2.023-16.698" fill="#629B21"/><path d="M102.519 57.681c-6.086 7.609-16.486 9.666-24.843 5.5a20.436 20.436 0 0 0 3.105 3.131c8.745 7.06 21.531 5.661 28.559-3.124 7.026-8.786 5.633-21.632-3.112-28.69a20.399 20.399 0 0 0-3.715-2.375c5.85 7.305 6.09 17.949.005 25.558" fill="#FFF"/><path d="M71.017 56.612c-6.591-6.655-7.442-16.864-2.584-24.447a19.496 19.496 0 0 0-3.314 2.65c-7.65 7.645-7.68 20.076-.07 27.762 7.612 7.685 19.984 7.717 27.635.07a19.856 19.856 0 0 0 2.654-3.315c-7.575 4.84-17.731 3.937-24.321-2.72m-43.025.991c-9.256-1.29-16.084-8.9-16.785-17.89a19.665 19.665 0 0 0-1.041 4.122c-1.484 10.741 5.98 20.653 16.669 22.145 10.69 1.49 20.557-6.009 22.04-16.749.198-1.439.225-2.86.117-4.253-3.115 8.46-11.744 13.914-21 12.625" fill="#FFF"/><g transform="translate(0 53.262)"><mask id="b" fill="#fff"><use xlink:href="#a"/></mask><path d="M.305.266c.73 32.435 27.11 58.508 59.568 58.508 32.46 0 58.84-26.073 59.569-58.508H.305z" fill="#454C53" mask="url(#b)"/></g><path d="M86.094 110.088a3.445 3.445 0 0 1-3.438 3.453H37.031a3.445 3.445 0 0 1-3.437-3.453v-.628a3.445 3.445 0 0 1 3.438-3.454h45.624a3.445 3.445 0 0 1 3.438 3.454v.628z" fill="#F9AA3C"/></g></svg>