<svg width="120" height="120" viewBox="0 0 120 120" xmlns="http://www.w3.org/2000/svg" xmlns:xlink="http://www.w3.org/1999/xlink"><defs><path id="a" d="M0 119.548h81.584V0H0z"/></defs><g transform="translate(19)" fill="none" fill-rule="evenodd"><path d="M17.804 9.306S29.26 0 40.318 0c11.056 0 21.707 9.344 21.707 9.344l-44.221-.038z" fill="#EF4F22"/><path d="M1.838 24.5l-.677-11.644S5.924 8.26 42.014 8.26c36.088 0 38.246 3.647 38.246 3.647l-.734 11.622-77.688.971z" fill="#FFC510"/><path d="M28.897 33.698c-5.026-5.311-27.066-9.16-27.066-9.16s-5.818-4.051 37.734-4.322c43.55-.272 39.961 3.313 39.961 3.313s-21.654 5.005-26.384 9.874c-6.226.265-20.844.295-24.245.295" fill="#571407"/><path d="M14.472 15.766c0 2.13-1.73 3.858-3.866 3.858a3.86 3.86 0 0 1-3.862-3.858 3.86 3.86 0 0 1 3.862-3.858 3.861 3.861 0 0 1 3.866 3.858" fill="#FFF"/><path d="M10.607 12.518a3.254 3.254 0 0 0-3.253 3.248 3.254 3.254 0 0 0 6.507 0 3.254 3.254 0 0 0-3.254-3.248m0 7.713a4.475 4.475 0 0 1-4.475-4.465 4.477 4.477 0 0 1 4.475-4.468 4.477 4.477 0 0 1 4.475 4.468 4.475 4.475 0 0 1-4.475 4.465" fill="#ED2626"/><path d="M28.827 14.566a3.862 3.862 0 0 1-3.867 3.857 3.861 3.861 0 0 1-3.864-3.857 3.862 3.862 0 0 1 3.864-3.859 3.863 3.863 0 0 1 3.867 3.86" fill="#FFF"/><path d="M24.96 11.317a3.255 3.255 0 0 0-3.253 3.25 3.254 3.254 0 0 0 6.508 0c0-1.792-1.46-3.25-3.254-3.25m0 7.716a4.476 4.476 0 0 1-4.475-4.467 4.478 4.478 0 0 1 4.475-4.468 4.479 4.479 0 0 1 4.476 4.468 4.477 4.477 0 0 1-4.476 4.467" fill="#ED2626"/><path d="M43.097 14.21a3.86 3.86 0 0 1-3.865 3.857 3.86 3.86 0 0 1-3.865-3.857 3.86 3.86 0 0 1 3.865-3.857 3.86 3.86 0 0 1 3.865 3.857" fill="#FFF"/><path d="M39.232 10.962a3.256 3.256 0 0 0-3.255 3.248c0 1.79 1.46 3.249 3.255 3.249a3.256 3.256 0 0 0 3.254-3.249 3.255 3.255 0 0 0-3.254-3.248m0 7.715a4.475 4.475 0 0 1-4.475-4.467 4.475 4.475 0 0 1 4.475-4.466 4.474 4.474 0 0 1 4.475 4.466 4.474 4.474 0 0 1-4.475 4.467" fill="#ED2626"/><path d="M58.012 14.21a3.86 3.86 0 0 1-3.865 3.857 3.86 3.86 0 0 1-3.864-3.857 3.86 3.86 0 0 1 3.864-3.857 3.86 3.86 0 0 1 3.865 3.857" fill="#FFF"/><path d="M54.148 10.962a3.254 3.254 0 0 0-3.254 3.248c0 1.79 1.46 3.249 3.254 3.249A3.256 3.256 0 0 0 57.4 14.21a3.254 3.254 0 0 0-3.253-3.248m0 7.715a4.476 4.476 0 0 1-4.476-4.467 4.476 4.476 0 0 1 8.95 0 4.475 4.475 0 0 1-4.474 4.467" fill="#ED2626"/><path d="M73.31 15.428a3.862 3.862 0 0 1-3.866 3.859 3.862 3.862 0 0 1-3.865-3.859 3.861 3.861 0 0 1 3.865-3.857 3.862 3.862 0 0 1 3.866 3.857" fill="#FFF"/><path d="M69.445 12.18a3.255 3.255 0 0 0-3.254 3.248 3.255 3.255 0 0 0 6.508 0c0-1.79-1.46-3.248-3.254-3.248m0 7.716a4.478 4.478 0 0 1-4.476-4.468 4.476 4.476 0 0 1 8.95 0 4.477 4.477 0 0 1-4.474 4.468" fill="#ED2626"/><path d="M42.273 30.885c-5.606 0-13.278 1.932-13.278 1.932l.092 81.897h24.015l.087-82.173s-5.31-1.656-10.916-1.656" fill="#571407"/><mask id="b" fill="#fff"><use xlink:href="#a"/></mask><path fill="#EF4F22" mask="url(#b)" d="M2.447 68.45h76.326V52.1H2.447z"/><path fill="#EF4F22" mask="url(#b)" d="M15.927 68.796h1.045V52.097h-1.045zm14.296.003h1.046v-16.7h-1.046zm27.776 0h1.046v-16.7h-1.046z"/><path fill="#FFC510" mask="url(#b)" d="M12.974 119.548h53.558v-5.16H12.974zm4.894-67.451h-1.662s.127 12.548-2.05 12.548c-2.18 0-2.05-3.565-3.967-3.565-.012 0-.02.002-.03.004-.012-.002-.02-.004-.032-.004-1.917 0-1.787 3.565-3.966 3.565-2.179 0-2.051-12.548-2.051-12.548H2.447v16.7l7.7.082h.021l7.7-.083v-16.7z"/><path d="M14.964 52.142a.524.524 0 0 0-1.045.046c.003.064.26 6.42-1.96 8.616-.506.5-1.095.725-1.79.688h-.023c-.694.037-1.284-.189-1.79-.688-2.221-2.195-1.963-8.552-1.96-8.616a.522.522 0 1 0-1.045-.046c-.012.279-.28 6.882 2.27 9.403.669.662 1.47.996 2.384.996.051 0 .101-.002.153-.004.051.002.102.004.153.004.914 0 1.714-.334 2.383-.996 2.551-2.521 2.283-9.124 2.27-9.403" fill="#221E1F" mask="url(#b)"/><path d="M10.188 46.968l-.03.001h-.03c-2.647 0-4.794 2.18-4.794 4.87 0 .087.01.174.014.26h9.62c.004-.086.012-.173.012-.26 0-2.69-2.145-4.87-4.792-4.87" fill="#EF4F22" mask="url(#b)"/><path d="M33.288 52.098h-1.662s.128 12.548-2.05 12.548c-2.179 0-2.05-3.566-3.967-3.566-.011 0-.02.002-.03.004-.012-.002-.02-.004-.031-.004-1.917 0-1.788 3.566-3.967 3.566-2.178 0-2.05-12.548-2.05-12.548h-1.663v16.699l7.699.083h.022l7.7-.083v-16.7z" fill="#FFC510" mask="url(#b)"/><path d="M30.385 52.142a.523.523 0 0 0-1.045.047c.003.063.26 6.42-1.96 8.616-.507.499-1.096.725-1.791.688h-.021c-.695.037-1.285-.19-1.79-.688-2.222-2.196-1.965-8.553-1.962-8.616a.522.522 0 1 0-1.044-.047c-.013.28-.28 6.882 2.269 9.403.67.662 1.47.997 2.385.997.05 0 .1-.002.152-.004.051.002.102.004.153.004.914 0 1.715-.335 2.384-.997 2.55-2.52 2.283-9.124 2.27-9.403" fill="#221E1F" mask="url(#b)"/><path d="M25.608 46.969l-.03.001a.279.279 0 0 0-.03-.001c-2.647 0-4.793 2.18-4.793 4.87 0 .088.009.174.013.26h9.62c.005-.086.013-.172.013-.26 0-2.69-2.146-4.87-4.793-4.87m-8.454 21.958h1.429v-16.83h-1.43z" fill="#EF4F22" mask="url(#b)"/><path d="M48.696 52.098h-1.662s.127 12.548-2.051 12.548c-2.18 0-2.05-3.566-3.966-3.566-.012 0-.02.002-.032.004-.01-.002-.018-.004-.03-.004-1.917 0-1.787 3.566-3.967 3.566-2.177 0-2.05-12.548-2.05-12.548h-1.662v16.699l7.699.083h.022l7.7-.083v-16.7z" fill="#FFC510" mask="url(#b)"/><path d="M45.792 52.142a.522.522 0 0 0-1.044.047c.003.063.26 6.42-1.962 8.616-.505.499-1.094.725-1.789.688h-.022c-.695.037-1.284-.19-1.79-.688-2.222-2.196-1.964-8.553-1.961-8.616a.523.523 0 0 0-1.045-.047c-.013.28-.28 6.882 2.27 9.403.67.662 1.47.997 2.384.997.051 0 .101-.002.152-.004.052.002.103.004.153.004.914 0 1.716-.335 2.385-.997 2.55-2.52 2.282-9.124 2.27-9.403" fill="#221E1F" mask="url(#b)"/><path d="M41.016 46.969l-.03.001a.254.254 0 0 0-.03-.001c-2.647 0-4.793 2.18-4.793 4.87 0 .088.009.174.013.26h9.62c.005-.086.012-.172.012-.26 0-2.69-2.145-4.87-4.792-4.87M32.56 68.927h1.43v-16.83h-1.43z" fill="#EF4F22" mask="url(#b)"/><path d="M64.11 52.098h-1.662s.127 12.548-2.05 12.548c-2.18 0-2.05-3.566-3.967-3.566-.012 0-.02.002-.03.004-.012-.002-.02-.004-.03-.004-1.919 0-1.789 3.566-3.968 3.566-2.178 0-2.05-12.548-2.05-12.548H48.69v16.699l7.7.083h.02l7.7-.083v-16.7z" fill="#FFC510" mask="url(#b)"/><path d="M61.207 52.142a.523.523 0 0 0-1.045.047c.004.063.26 6.42-1.96 8.616-.506.499-1.095.725-1.791.688h-.021c-.696.037-1.286-.19-1.79-.688-2.223-2.196-1.965-8.553-1.962-8.616a.522.522 0 0 0-1.045-.047c-.012.28-.28 6.882 2.27 9.403.67.662 1.47.997 2.385.997.05 0 .101-.002.152-.004.051.002.103.004.153.004.914 0 1.715-.335 2.384-.997 2.55-2.52 2.283-9.124 2.27-9.403" fill="#221E1F" mask="url(#b)"/><path d="M56.43 46.969l-.03.001a.279.279 0 0 0-.03-.001c-2.647 0-4.793 2.18-4.793 4.87 0 .088.01.174.014.26h9.619c.005-.086.013-.172.013-.26 0-2.69-2.145-4.87-4.792-4.87m-8.455 21.958h1.429v-16.83h-1.43z" fill="#EF4F22" mask="url(#b)"/><path d="M79.534 52.098h-1.662s.128 12.548-2.05 12.548c-2.18 0-2.05-3.566-3.967-3.566-.011 0-.02.002-.031.004-.01-.002-.02-.004-.03-.004-1.917 0-1.788 3.566-3.968 3.566-2.177 0-2.05-12.548-2.05-12.548h-1.662v16.699l7.7.083h.02l7.7-.083v-16.7z" fill="#FFC510" mask="url(#b)"/><path d="M76.631 52.142a.523.523 0 0 0-1.045.047c.003.063.26 6.42-1.961 8.616-.506.499-1.095.725-1.79.688h-.022c-.695.037-1.284-.19-1.79-.688-2.221-2.196-1.964-8.553-1.96-8.616a.523.523 0 0 0-1.045-.047c-.014.28-.281 6.882 2.27 9.403.668.662 1.469.997 2.383.997.051 0 .102-.002.153-.004.051.002.102.004.153.004.914 0 1.715-.335 2.384-.997 2.551-2.52 2.282-9.124 2.27-9.403" fill="#221E1F" mask="url(#b)"/><path d="M71.854 46.969l-.03.001a.254.254 0 0 0-.03-.001c-2.647 0-4.793 2.18-4.793 4.87 0 .088.009.174.013.26h9.621c.004-.086.012-.172.012-.26 0-2.69-2.146-4.87-4.793-4.87m-8.455 21.958h1.43v-16.83h-1.43z" fill="#EF4F22" mask="url(#b)"/><path d="M81.426 69.208a1.107 1.107 0 0 0-.946-.535l-79.368-.276h-.004A1.106 1.106 0 0 0 .1 69.96l5.54 12.165c.18.395.575.648 1.01.648h.005l67.733-.276c.41-.002.786-.23.977-.593l6.094-11.613c.18-.342.167-.752-.032-1.084" fill="#F58B1E" mask="url(#b)"/><path fill="#FFF" mask="url(#b)" d="M20.215 72.839l1.006 1.975h-1.756l-.437-.795h-1.524l.904 1.555h1.853l.642 1.189H19.1l.66 1.134h.942l.665 1.189h-3.34l-.762-1.19h.573l-2.435-3.877h-.626l-.757-1.18zm4.315 2.681h.44c.567 0 .835-.25.64-.724-.217-.527-.66-.795-1.247-.795h-.504l.672 1.52zm-.532-2.681c2.403 0 3.171.823 3.545 1.841.256.697-.164 1.189-.926 1.295.701.09 1.497.626 1.736 1.27.142.384.28.608.447.608.138 0 .174-.108.11-.287l-.106-.294h.628l.17.491c.255.742.179 1.43-.814 1.43-1.173 0-1.996-.617-2.435-1.662-.342-.814-.53-1.01-1.38-1.01l.613 1.385h.563l.506 1.18h-2.899l-.59-1.18h.517l-1.901-3.896h-.566l-.586-1.171h3.368zm10.516 0l.402 1.975H33.2l-.192-.795h-1.616l.342 1.233H33.6l.28 1.189h-1.817l.404 1.456h1.479l-.202-.83h1.631l.411 2.019h-5.413l-.4-1.19h.582L29.3 74.02h-.636l-.398-1.18zm6.766 0l.117 1.975H39.68l-.078-.795h-1.616l.164 1.233h1.867l.108 1.189h-1.818l.194 1.456h1.479l-.081-.83h1.63l.12 2.019h-5.414l-.23-1.19h.583l-.693-3.877h-.635l-.228-1.18zm6.714 0l-.166 1.975h-1.756l.036-.795h-1.525l-.019 1.555h1.853l-.064 1.189H44.55l-.013 1.134h.942l-.04 1.189h-3.34l-.057-1.19h.573l-.133-3.877h-.626l-.057-1.18zm4.125 3.396l-.304-1.93-.955 1.93h1.259zm-.863 2.85l.208-1.17h.878l-.076-.608h-1.921l-.284.608h.72l-.19 1.17h-2.854l.107-1.17h.628l1.78-3.923h-.414l.147-1.153h3.978l.559 5.076h.646l-.312 1.17h-3.6zm8.956-6.246l-.408 1.18h-.535l-1.295 3.878h1.192l.411-1.134h1.595l-.928 2.323h-5.028l.328-1.19h.508l1.116-3.877h-.556l.326-1.18zm6.32 0l-.567 1.18h-.535l-1.818 3.878h1.19l.565-1.134h1.595l-1.242 2.323h-5.027l.489-1.19h.508l1.64-3.877h-.556l.485-1.18z"/></g></svg>