<svg width="120" height="120" viewBox="0 0 120 120" xmlns="http://www.w3.org/2000/svg" xmlns:xlink="http://www.w3.org/1999/xlink"><defs><path id="a" d="M.422.035h64.39v46.917H.422z"/><path id="c" d="M.26.068h106.438V69.63H.26z"/></defs><g fill="none" fill-rule="evenodd"><g transform="matrix(-1 0 0 1 92.034 55.98)"><mask id="b" fill="#fff"><use xlink:href="#a"/></mask><path d="M64.812 19.42C64.812 8.714 50.398.035 32.619.035 14.837.035.422 8.714.422 19.42c0 5.845 4.3 11.081 11.09 14.637-.01.039-.02.079-.032.119C9.507 41.183 7.6 46.49 8.892 46.929c1.09.366 6.057-3.553 9.792-9.783.041-.07.074-.14.116-.208 4.187 1.2 8.871 1.872 13.819 1.872 6.626 0 12.783-1.207 17.903-3.274-1.822 6.323-3.408 10.984-2.201 11.393 1.09.366 6.058-3.553 9.793-9.783a14.089 14.089 0 0 0 2.098-7.736c2.919-2.918 4.6-6.336 4.6-9.99" fill="#E7D6B7" mask="url(#b)"/></g><g transform="matrix(-1 0 0 1 108.586 17.313)"><mask id="d" fill="#fff"><use xlink:href="#c"/></mask><path d="M106.698 34.848A534.633 534.633 0 0 0 95.4 41.55a78.503 78.503 0 0 0 5.767 13.238c-4.668-.776-9.322-1.555-13.96-2.337.094 4.393.644 8.69 1.654 12.817a468.413 468.413 0 0 1-14.574-6.678c-.87 3.797-1.38 7.495-1.527 11.04a223.912 223.912 0 0 1-14.146-9.125 100.416 100.416 0 0 0-4.818 9.125A137.503 137.503 0 0 1 41.41 58.59c-3 2.266-5.875 4.496-8.62 6.678a85.256 85.256 0 0 1-8.313-12.818L11.89 54.785c-.34-4.33-.224-8.766.342-13.238A539.095 539.095 0 0 1 .26 34.848a533.706 533.706 0 0 1 11.972-6.699 64.964 64.964 0 0 1-.34-13.239c4.18.775 8.377 1.554 12.587 2.337a85.472 85.472 0 0 1 8.313-12.818 441.468 441.468 0 0 0 8.618 6.68A137.104 137.104 0 0 1 53.796.067a99.927 99.927 0 0 0 4.818 9.125c4.466-3.13 9.18-6.181 14.144-9.125.15 3.543.66 7.243 1.53 11.04A470.254 470.254 0 0 1 88.863 4.43c-1.01 4.128-1.561 8.424-1.653 12.817 4.638-.78 9.29-1.56 13.96-2.336a78.532 78.532 0 0 0-5.77 13.24 528.885 528.885 0 0 0 11.298 6.697" fill="#A4A799" mask="url(#d)"/></g><path d="M85.659 62.084a10.318 10.318 0 0 1-1.278-2.036c-2.13-4.554-.266-9.922-.266-9.922s5.31 2.005 7.442 6.562c.307.656.524 1.333.682 2.006 4.479-1.827 8.378-2.68 8.378-2.68l18.531 15.728s-7.707 13.429-18.53 15.728c-10.77 2.314-21.508-4.689-21.524-15.728.006-4.047 2.901-7.236 6.565-9.658" fill="#E7D6B7"/><path d="M100.278 78.737c2.268.942 4.528 1.45 6.566 1.561-.032.084-.057.17-.091.253-1.443 3.48-5.371 5.15-8.776 3.737-3.404-1.417-4.995-5.383-3.553-8.862.036-.083.079-.162.116-.242 1.517 1.366 3.472 2.609 5.738 3.553" fill="#D77822"/><path d="M100.368 67.645c0 1.986 1.124 3.596 2.508 3.596 1.386 0 2.509-1.61 2.509-3.596 0-1.978-1.123-3.589-2.51-3.589-1.383 0-2.507 1.61-2.507 3.59m13.59 4.411a3.527 3.527 0 0 0 3.521 3.527 3.524 3.524 0 0 0 3.52-3.527 3.521 3.521 0 1 0-7.04 0M52.984 57.312c-3.07 2.808-4.398 6.362-4.398 6.362s3.655-.997 6.73-3.808c3.076-2.812 4.398-6.364 4.398-6.364s-3.654.996-6.73 3.81m-10.503 1.164c-3.072 2.81-4.399 6.362-4.399 6.362s3.653-.995 6.73-3.808c3.076-2.812 4.397-6.362 4.397-6.362s-3.65.997-6.728 3.808m-2.752-5.96c-3.773 1.755-6.108 4.743-6.108 4.743s3.783.15 7.563-1.607c3.778-1.754 6.106-4.742 6.106-4.742s-3.784-.15-7.561 1.606" fill="#685D4F"/></g></svg>