<svg width="120" height="120" viewBox="0 0 120 120" xmlns="http://www.w3.org/2000/svg" xmlns:xlink="http://www.w3.org/1999/xlink"><defs><path id="a" d="M.224 0h60.584v55.382H.224z"/><path id="c" d="M0 120h93.934V0H0z"/></defs><g transform="translate(13)" fill="none" fill-rule="evenodd"><g transform="translate(12)"><mask id="b" fill="#fff"><use xlink:href="#a"/></mask><path d="M60.808 55.382H47.786V30.524c0-9.514-7.597-17.413-17.11-17.5-9.596-.087-17.43 7.693-17.43 17.268v11.12a5.209 5.209 0 0 1-5.21 5.209H5.434a5.209 5.209 0 0 1-5.21-5.21V30.599C.224 13.847 13.692.04 30.443 0 47.18-.04 60.809 13.565 60.809 30.292v25.09z" fill="#E8E8E8" mask="url(#b)"/></g><path fill="#FFB235" d="M85.29 94.504V53.409H0v41.315L25.276 120h34.517z"/><path d="M50.314 78.257a7.645 7.645 0 0 0-7.645-7.645 7.645 7.645 0 0 0-3.731 14.317l-.96 10.318c0 .929.76 1.689 1.69 1.689h6.002c.929 0 1.689-.76 1.689-1.69l-.96-10.317a7.642 7.642 0 0 0 3.915-6.672" fill="#EB7A1E"/><path d="M45.94 71.346a7.645 7.645 0 0 0-.46 13.583l-.96 10.318c0 .837.618 1.535 1.42 1.665a1.694 1.694 0 0 0 1.419-1.665l-.96-10.318a7.642 7.642 0 0 0 3.915-6.672 7.647 7.647 0 0 0-4.374-6.911" fill="#BA6118"/><path fill="#F0862E" d="M93.934 94.504h-8.645L59.793 120h8.645z"/><mask id="d" fill="#fff"><use xlink:href="#c"/></mask><path fill="#FFC65C" mask="url(#d)" d="M85.289 94.504h8.645V53.409h-8.645z"/></g></svg>