<svg width="120" height="120" viewBox="0 0 120 120" xmlns="http://www.w3.org/2000/svg" xmlns:xlink="http://www.w3.org/1999/xlink"><defs><path id="a" d="M0 1.167h97.845v102.2H0z"/></defs><g fill="none" fill-rule="evenodd"><g transform="matrix(-1 0 0 1 110 16.087)"><mask id="b" fill="#fff"><use xlink:href="#a"/></mask><path d="M2.635 87.943c-9.748-22.773 8.971-36.079 32.812-45.954C61.77 31.084 56.23-.24 82.417 1.216 108.6 2.67 96.503 47.34 82.422 70.75 68.445 93.974 16.806 121.063 2.635 87.943" fill="#504493" mask="url(#b)"/></g><path d="M37.106 17.249c11.812 6.733 10.386 12.542 9.087 15.73-2.092 5.139-6.46 7.553-6.46 7.553l-6.317-9.038s-1.49 8.958-3.081 12.057c-1.595 3.102-8.376-7.93-8.376-7.93s1.456 5.336.914 11.136c-.544 5.796-10.147 2.065-11.59-6.874C8.51 22.676 22.98 9.194 37.107 17.25" fill="#2EAF27"/><path d="M20.635 15.774s-4.682-5.637-2.487-15.18" stroke="#2EAF27" stroke-width="5.941" stroke-linecap="round"/></g></svg>