<svg width="120" height="120" viewBox="0 0 120 120" xmlns="http://www.w3.org/2000/svg"><g fill="none" fill-rule="evenodd"><path d="M0 0h120v120H0z"/><path fill="#E01804" fill-rule="nonzero" d="M10.01 25.28H113.5v27.95H10.01z"/><path fill="#E6E6E6" fill-rule="nonzero" d="M9.67 34.67h9.07v9.29H9.67zm9.07-9.29h9.07v9.29h-9.07zm9.07 9.29h9.07v9.29h-9.07zm9.07-9.29h9.07v9.29h-9.07zm9.07 9.29h9.07v9.29h-9.07zm9.07-9.29h9.07v9.29h-9.07zm9.07 9.29h9.07v9.29h-9.07zm9.07-9.29h9.07v9.29h-9.07zm9.07 9.29h9.07v9.29h-9.07zm9.08-9.29h9.07v9.29h-9.07zm9.07 9.29h9.07v9.29h-9.07zm-81.64 9.3h9.07v9.29h-9.07zm18.14 0h9.07v9.29h-9.07z"/><rect stroke="#1A1A1A" stroke-width="2.422" fill="#1A1A1A" fill-rule="nonzero" x="6.25" y="22.77" width="4.15" height="74.47" rx=".72"/><rect stroke="#1A1A1A" stroke-width="2.422" fill="#1A1A1A" fill-rule="nonzero" transform="rotate(180 111.675 59.995)" x="109.6" y="22.76" width="4.15" height="74.47" rx=".72"/><path fill="#E6E6E6" fill-rule="nonzero" d="M55.02 43.97h9.07v9.29h-9.07zm18.14 0h9.07v9.29h-9.07zm18.15 0h9.07v9.29h-9.07z"/></g></svg>