<svg width="90" height="80" viewBox="0 0 45 40" xmlns="http://www.w3.org/2000/svg" xmlns:xlink="http://www.w3.org/1999/xlink"><defs><path id="a" d="M44.886 0v36.036H0V0z"/></defs><g fill="none" fill-rule="evenodd"><path d="M13.475 3.849S6.792.32 6.238.179c0 0-.295-.071-.443-.097A5.75 5.75 0 0 0 4.822 0C2.29 0 .215 1.634.012 3.712l-.009-.003v4.975S13.676 4.69 13.475 3.849" fill="#939393"/><path d="M11.922 4.065S6.541 1.224 6.095 1.11c0 0-.238-.056-.357-.077a4.637 4.637 0 0 0-.783-.066c-2.039 0-3.71 1.315-3.873 2.989l-.007-.003v4.006s11.009-3.216 10.847-3.893" fill="#3D3D3D"/><path d="M31.409 3.849S38.092.32 38.646.179c0 0 .295-.071.443-.097A5.75 5.75 0 0 1 40.062 0c2.532 0 4.607 1.634 4.81 3.712l.009-.003v4.975S31.208 4.69 31.409 3.849" fill="#939393"/><path d="M32.962 4.065s5.381-2.841 5.827-2.956c0 0 .238-.056.357-.077.253-.043.515-.066.783-.066 2.039 0 3.71 1.315 3.873 2.989l.007-.003v4.006S32.8 4.742 32.962 4.065" fill="#3D3D3D"/><g transform="translate(0 3.849)"><mask id="b" fill="#fff"><use xlink:href="#a"/></mask><path d="M39.505 36.036H5.38c-2.959 0-5.38-2.417-5.38-5.372V5.372C0 2.417 2.421 0 5.381 0h34.124c2.96 0 5.381 2.417 5.381 5.372v25.292c0 2.955-2.421 5.372-5.381 5.372" fill="#C6C6C6" mask="url(#b)"/></g><path d="M38.762 38.383H6.364c-2.506 0-4.556-2.047-4.556-4.549V10.32c0-2.502 2.05-4.55 4.556-4.55h32.398c2.506 0 4.557 2.048 4.557 4.55v23.514c0 2.502-2.05 4.55-4.557 4.55" fill="#E8E8E8"/><path d="M38.866 26.912H6.26c-2.45 0-4.453-2-4.453-4.446v-12.25c0-2.445 2.004-4.445 4.453-4.445h32.605c2.449 0 4.453 2 4.453 4.445v12.25c0 2.445-2.004 4.446-4.453 4.446" fill="#6B6B6B"/><path d="M11.313 33.148a2.534 2.534 0 0 1-2.536 2.533 2.534 2.534 0 0 1-2.537-2.533 2.534 2.534 0 0 1 2.537-2.532 2.534 2.534 0 0 1 2.536 2.532m27.072 0a2.534 2.534 0 0 1-2.536 2.533 2.534 2.534 0 0 1-2.537-2.533 2.534 2.534 0 0 1 2.537-2.532 2.534 2.534 0 0 1 2.536 2.532m-13.278 3.794H20.08a1.569 1.569 0 0 1-1.566-1.563v-.238c0-.86.705-1.562 1.566-1.562h5.027c.861 0 1.565.703 1.565 1.562v.238c0 .86-.704 1.563-1.565 1.563" fill="#DBDBDB"/><path d="M26.233 32.834h-7.34a1.326 1.326 0 0 1-1.323-1.321v-.914c0-.726.596-1.32 1.324-1.32h7.34c.727 0 1.323.594 1.323 1.32v.914c0 .726-.596 1.321-1.324 1.321" fill="#6B6B6B"/><path d="M6.08 9.555a1.085 1.085 0 0 1-1.084-1.081c0-.595.488-1.082 1.083-1.082.596 0 1.083.487 1.083 1.082 0 .594-.487 1.08-1.083 1.08m.001 2.932a1.085 1.085 0 0 1-1.084-1.082c0-.594.488-1.08 1.083-1.08.596 0 1.083.486 1.083 1.08 0 .595-.487 1.082-1.083 1.082m.001 2.93a1.085 1.085 0 0 1-1.084-1.08c0-.595.488-1.082 1.083-1.082.596 0 1.083.487 1.083 1.081 0 .595-.487 1.081-1.083 1.081m.001 2.931a1.085 1.085 0 0 1-1.084-1.08c0-.595.488-1.082 1.083-1.082.596 0 1.083.487 1.083 1.081 0 .595-.487 1.081-1.083 1.081m.001 2.931a1.085 1.085 0 0 1-1.084-1.08c0-.595.488-1.082 1.083-1.082.596 0 1.083.487 1.083 1.081 0 .595-.487 1.081-1.083 1.081m.001 2.932a1.085 1.085 0 0 1-1.084-1.082c0-.594.488-1.08 1.083-1.08.596 0 1.083.486 1.083 1.08 0 .595-.487 1.081-1.083 1.081M9.388 9.555a1.085 1.085 0 0 1-1.083-1.081c0-.595.488-1.082 1.083-1.082.596 0 1.083.487 1.083 1.082 0 .594-.487 1.08-1.083 1.08m0 2.932a1.085 1.085 0 0 1-1.083-1.082c0-.594.488-1.08 1.083-1.08.596 0 1.083.486 1.083 1.08 0 .595-.487 1.082-1.083 1.082m0 2.93a1.085 1.085 0 0 1-1.083-1.08c0-.595.488-1.082 1.083-1.082.596 0 1.083.487 1.083 1.081 0 .595-.487 1.081-1.083 1.081m0 2.931a1.085 1.085 0 0 1-1.083-1.08c0-.595.488-1.082 1.083-1.082.596 0 1.083.487 1.083 1.081 0 .595-.487 1.081-1.083 1.081m0 2.931a1.085 1.085 0 0 1-1.083-1.08c0-.595.488-1.082 1.083-1.082.596 0 1.083.487 1.083 1.081 0 .595-.487 1.081-1.083 1.081m0 2.932a1.085 1.085 0 0 1-1.083-1.082c0-.594.488-1.08 1.083-1.08.596 0 1.083.486 1.083 1.08 0 .595-.487 1.081-1.083 1.081m3.309-14.654a1.085 1.085 0 0 1-1.083-1.081c0-.595.487-1.082 1.083-1.082s1.083.487 1.083 1.082c0 .594-.487 1.08-1.083 1.08m0 2.932a1.085 1.085 0 0 1-1.083-1.082c0-.594.487-1.08 1.083-1.08s1.083.486 1.083 1.08c0 .595-.487 1.082-1.083 1.082m0 2.93a1.085 1.085 0 0 1-1.083-1.08c0-.595.487-1.082 1.083-1.082s1.083.487 1.083 1.081c0 .595-.487 1.081-1.083 1.081m0 2.931a1.085 1.085 0 0 1-1.083-1.08c0-.595.487-1.082 1.083-1.082s1.083.487 1.083 1.081c0 .595-.487 1.081-1.083 1.081m0 2.931a1.085 1.085 0 0 1-1.083-1.08c0-.595.487-1.082 1.083-1.082s1.083.487 1.083 1.081c0 .595-.487 1.081-1.083 1.081m0 2.932a1.085 1.085 0 0 1-1.083-1.082c0-.594.487-1.08 1.083-1.08s1.083.486 1.083 1.08c0 .595-.487 1.081-1.083 1.081m3.068-14.45l.24-.204a1.085 1.085 0 0 1-1.082-1.081c0-.595.487-1.082 1.083-1.082.595 0 1.083.487 1.083 1.082 0 .594-.728 1.285-1.324 1.285m.241 2.727a1.085 1.085 0 0 1-1.083-1.082c0-.594.487-1.08 1.083-1.08.595 0 1.083.486 1.083 1.08 0 1.14-1.13 1.082-1.083 1.082m-.241 3.134a1.085 1.085 0 0 1-1.083-1.08c0-.595.488-1.082 1.083-1.082.596 0 1.083.487 1.083 1.082 0 .594-.487 1.08-1.083 1.08m.241 2.727a1.085 1.085 0 0 1-1.083-1.08c0-.595.487-1.082 1.083-1.082.595 0 1.083.487 1.083 1.081 0 .595-.488 1.081-1.083 1.081m0 2.931a1.085 1.085 0 0 1-1.083-1.08c0-.595.487-1.082 1.083-1.082.595 0 1.083.487 1.083 1.081 0 .595-.488 1.081-1.083 1.081m0 2.932a1.085 1.085 0 0 1-1.083-1.082c0-.594.487-1.08 1.083-1.08.595 0 1.083.486 1.083 1.08 0 .595-.488 1.081-1.083 1.081m3.309-14.654a1.085 1.085 0 0 1-1.083-1.081c0-.595.487-1.082 1.083-1.082.595 0 1.083.487 1.083 1.082 0 .594-.488 1.08-1.083 1.08m0 2.932a1.085 1.085 0 0 1-1.083-1.082c0-.594.487-1.08 1.083-1.08.595 0 1.083.486 1.083 1.08 0 .595-.488 1.082-1.083 1.082m0 2.93a1.085 1.085 0 0 1-1.083-1.08c0-.595.487-1.082 1.083-1.082.595 0 1.083.487 1.083 1.081 0 .595-.488 1.081-1.083 1.081m0 2.931a1.085 1.085 0 0 1-1.083-1.08c0-.595.487-1.082 1.083-1.082.595 0 1.083.487 1.083 1.081 0 .595-.488 1.081-1.083 1.081m0 2.931a1.085 1.085 0 0 1-1.083-1.08c0-.595.487-1.082 1.083-1.082.595 0 1.083.487 1.083 1.081 0 .595-.488 1.081-1.083 1.081m0 2.932a1.085 1.085 0 0 1-1.083-1.082c0-.594.487-1.08 1.083-1.08.595 0 1.083.486 1.083 1.08 0 .595-.488 1.081-1.083 1.081m3.308-14.654a1.085 1.085 0 0 1-1.082-1.081c0-.595.487-1.082 1.082-1.082.596 0 1.083.487 1.083 1.082 0 .594-.487 1.08-1.083 1.08m0 2.932a1.085 1.085 0 0 1-1.082-1.082c0-.594.487-1.08 1.082-1.08.596 0 1.083.486 1.083 1.08 0 .595-.487 1.082-1.083 1.082m0 2.93a1.085 1.085 0 0 1-1.082-1.08c0-.595.487-1.082 1.082-1.082.596 0 1.083.487 1.083 1.081 0 .595-.487 1.081-1.083 1.081m0 2.931a1.085 1.085 0 0 1-1.082-1.08c0-.595.487-1.082 1.082-1.082.596 0 1.083.487 1.083 1.081 0 .595-.487 1.081-1.083 1.081m0 2.931a1.085 1.085 0 0 1-1.082-1.08c0-.595.487-1.082 1.082-1.082.596 0 1.083.487 1.083 1.081 0 .595-.487 1.081-1.083 1.081m0 2.932a1.085 1.085 0 0 1-1.082-1.082c0-.594.487-1.08 1.082-1.08.596 0 1.083.486 1.083 1.08 0 .595-.487 1.081-1.083 1.081m3.309-14.654a1.085 1.085 0 0 1-1.083-1.081c0-.595.488-1.082 1.083-1.082.596 0 1.083.487 1.083 1.082 0 .594-.487 1.08-1.083 1.08m0 2.932a1.085 1.085 0 0 1-1.083-1.082c0-.594.488-1.08 1.083-1.08.596 0 1.083.486 1.083 1.08 0 .595-.487 1.082-1.083 1.082m0 2.93a1.085 1.085 0 0 1-1.083-1.08c0-.595.488-1.082 1.083-1.082.596 0 1.083.487 1.083 1.081 0 .595-.487 1.081-1.083 1.081m0 2.931a1.085 1.085 0 0 1-1.083-1.08c0-.595.488-1.082 1.083-1.082.596 0 1.083.487 1.083 1.081 0 .595-.487 1.081-1.083 1.081m0 2.931a1.085 1.085 0 0 1-1.083-1.08c0-.595.488-1.082 1.083-1.082.596 0 1.083.487 1.083 1.081 0 .595-.487 1.081-1.083 1.081m0 2.932a1.085 1.085 0 0 1-1.083-1.082c0-.594.488-1.08 1.083-1.08.596 0 1.083.486 1.083 1.08 0 .595-.487 1.081-1.083 1.081m3.309-14.654a1.085 1.085 0 0 1-1.083-1.081c0-.595.488-1.082 1.083-1.082.596 0 1.083.487 1.083 1.082 0 .594-.487 1.08-1.083 1.08m0 2.932a1.085 1.085 0 0 1-1.083-1.082c0-.594.488-1.08 1.083-1.08.596 0 1.083.486 1.083 1.08 0 .595-.487 1.082-1.083 1.082m0 2.93a1.085 1.085 0 0 1-1.083-1.08c0-.595.488-1.082 1.083-1.082.596 0 1.083.487 1.083 1.081 0 .595-.487 1.081-1.083 1.081m0 2.931a1.085 1.085 0 0 1-1.083-1.08c0-.595.488-1.082 1.083-1.082.596 0 1.083.487 1.083 1.081 0 .595-.487 1.081-1.083 1.081m0 2.931a1.085 1.085 0 0 1-1.083-1.08c0-.595.488-1.082 1.083-1.082.596 0 1.083.487 1.083 1.081 0 .595-.487 1.081-1.083 1.081m0 2.932a1.085 1.085 0 0 1-1.083-1.082c0-.594.488-1.08 1.083-1.08.596 0 1.083.486 1.083 1.08 0 .595-.487 1.081-1.083 1.081M32.55 9.555a1.085 1.085 0 0 1-1.083-1.081c0-.595.487-1.082 1.083-1.082s1.083.487 1.083 1.082c0 .594-.487 1.08-1.083 1.08m0 2.932a1.085 1.085 0 0 1-1.083-1.082c0-.594.487-1.08 1.083-1.08s1.083.486 1.083 1.08c0 .595-.487 1.082-1.083 1.082m0 2.93a1.085 1.085 0 0 1-1.083-1.08c0-.595.487-1.082 1.083-1.082s1.083.487 1.083 1.081c0 .595-.487 1.081-1.083 1.081m0 2.931a1.085 1.085 0 0 1-1.083-1.08c0-.595.487-1.082 1.083-1.082s1.083.487 1.083 1.081c0 .595-.487 1.081-1.083 1.081m0 2.931a1.085 1.085 0 0 1-1.083-1.08c0-.595.487-1.082 1.083-1.082s1.083.487 1.083 1.081c0 .595-.487 1.081-1.083 1.081m0 2.932a1.085 1.085 0 0 1-1.083-1.082c0-.594.487-1.08 1.083-1.08s1.083.486 1.083 1.08c0 .595-.487 1.081-1.083 1.081m3.309-14.654a1.085 1.085 0 0 1-1.083-1.081c0-.595.487-1.082 1.083-1.082.595 0 1.083.487 1.083 1.082 0 .594-.488 1.08-1.083 1.08m0 2.932a1.085 1.085 0 0 1-1.083-1.082c0-.594.487-1.08 1.083-1.08.595 0 1.083.486 1.083 1.08 0 .595-.488 1.082-1.083 1.082m0 2.93a1.085 1.085 0 0 1-1.083-1.08c0-.595.487-1.082 1.083-1.082.595 0 1.083.487 1.083 1.081 0 .595-.488 1.081-1.083 1.081m0 2.931a1.085 1.085 0 0 1-1.083-1.08c0-.595.487-1.082 1.083-1.082.595 0 1.083.487 1.083 1.081 0 .595-.488 1.081-1.083 1.081m0 2.931a1.085 1.085 0 0 1-1.083-1.08c0-.595.487-1.082 1.083-1.082.595 0 1.083.487 1.083 1.081 0 .595-.488 1.081-1.083 1.081m0 2.932a1.085 1.085 0 0 1-1.083-1.082c0-.594.487-1.08 1.083-1.08.595 0 1.083.486 1.083 1.08 0 .595-.488 1.081-1.083 1.081m3.309-14.654a1.085 1.085 0 0 1-1.083-1.081c0-.595.487-1.082 1.083-1.082.595 0 1.082.487 1.082 1.082 0 .594-.487 1.08-1.082 1.08m0 2.932a1.085 1.085 0 0 1-1.083-1.082c0-.594.487-1.08 1.083-1.08.595 0 1.082.486 1.082 1.08 0 .595-.487 1.082-1.082 1.082m0 2.93a1.085 1.085 0 0 1-1.083-1.08c0-.595.487-1.082 1.083-1.082.595 0 1.082.487 1.082 1.081 0 .595-.487 1.081-1.082 1.081m0 2.931a1.085 1.085 0 0 1-1.083-1.08c0-.595.487-1.082 1.083-1.082.595 0 1.082.487 1.082 1.081 0 .595-.487 1.081-1.082 1.081m0 2.931a1.085 1.085 0 0 1-1.083-1.08c0-.595.487-1.082 1.083-1.082.595 0 1.082.487 1.082 1.081 0 .595-.487 1.081-1.082 1.081m0 2.932a1.085 1.085 0 0 1-1.083-1.082c0-.594.487-1.08 1.083-1.08.595 0 1.082.486 1.082 1.08 0 .595-.487 1.081-1.082 1.081" fill="#707070"/><path d="M12.654 18.323c-.62 0-1.126-.505-1.126-1.124v-5.8c0-.618.507-1.124 1.126-1.124.62 0 1.126.506 1.126 1.124v5.8c0 .619-.507 1.124-1.126 1.124m19.853 0c-.62 0-1.126-.505-1.126-1.124v-5.8c0-.618.507-1.124 1.126-1.124.62 0 1.126.506 1.126 1.124v5.8c0 .619-.507 1.124-1.126 1.124" fill="#0FF"/><path d="M13.118 5.17h-3.73a.36.36 0 1 1 0-.72h3.73a.36.36 0 1 1 0 .72m-5.174 0H6.38a.36.36 0 1 1 0-.72h1.564a.36.36 0 1 1 0 .72" fill="#FFF"/><path d="M18.292 17.302s3.61 2.403 8.783-.12" stroke="#43FFFA" stroke-width="1.68" stroke-linecap="round" stroke-linejoin="round"/><path d="M32.971 26.071H12.998a.48.48 0 1 1 0-.96H32.97a.48.48 0 1 1 0 .96" fill="#7C7C7C"/></g></svg>