<svg width="120" height="120" viewBox="0 0 120 120" xmlns="http://www.w3.org/2000/svg"><g fill="none" fill-rule="evenodd"><path d="M0 0h120v120H0z"/><path d="M66.44 22.77S60.89 2.86 48.12 6.36s3.05 13.84 3.05 13.84-16.89-10.78-28.48 2 9.83 6.6 9.83 6.6-17.94 1.33-19.05 11.56c-1.11 10.23 8.4 6 8.4 6S4.42 53.57 6.64 62.86c2.22 9.29 11.89.14 11.89.14S5.77 82.61 12.3 85.54c6.53 2.93 13.64-4.6 13.64-4.6s-7.15 21.75.61 22.25c7.76.5 12.45-9.9 12.45-9.9s-3.89 20 5.44 20.69c9.33.69 16.26-4.35 15.79-12.29-.47-7.94-1.42 12 5.4 10.2 6.82-1.8 10.57-11.75 10.45-13.48-.12-1.73 0 12.14 6.81 9.32C89.7 104.91 97.2 99 92.24 91.3c0 0 5.29 9.95 10.16 6.31 4.87-3.64 2.25-15-1-17.8 0 0 9.34 8.28 9.91-2.17.57-10.45-8.74-18.29-11.24-19.33 0 0 10 7.1 12.19 1.92 2.19-5.18 3.81-16.23-13.91-21.49 0 0 10.57 2.29 10.83-1.37.26-3.66-7.48-12.74-22.3-13.87 0 0 10.22-3.93 7.8-8.7-1.17-2.3-5.52-7.24-12-4.79-7.06 2.63-16.24 12.76-16.24 12.76z" fill="#FA7997" fill-rule="nonzero"/></g></svg>