<?xml version="1.0" encoding="UTF-8"?>
<svg width="23px" height="24px" viewBox="0 0 23 24" version="1.1" xmlns="http://www.w3.org/2000/svg" xmlns:xlink="http://www.w3.org/1999/xlink">
    <!-- Generator: Sketch 51.1 (57501) - http://www.bohemiancoding.com/sketch -->
    <title>google表格</title>
    <desc>Created with Sketch.</desc>
    <defs></defs>
    <g id="图标按钮汇总V0.2" stroke="none" stroke-width="1" fill="none" fill-rule="evenodd">
        <g id="V1.412月24日" transform="translate(-66.000000, -2836.000000)" fill="#FFFFFF" fill-rule="nonzero">
            <g id="Microsoft-Excel" transform="translate(66.000000, 2836.680556)">
                <path d="M14.8398664,3.21488636 L14.8398664,3.86806818 C14.8398664,4.08898208 15.0189525,4.26806818 15.2398664,4.26806818 L17.1065702,4.26806818 L17.1065702,6.56545455 L15.2057755,6.56545455 C15.0036894,6.56545455 14.8398664,6.72927763 14.8398664,6.93136364 L14.8398664,6.93136364 C14.8398664,7.13344965 15.0036894,7.29727273 15.2057755,7.29727273 L17.1065702,7.29727273 L17.1065702,9.59727273 L15.21623,9.59727273 C15.0083701,9.59727273 14.8398664,9.76577647 14.8398664,9.97363636 L14.8398664,9.97363636 C14.8398664,10.1814963 15.0083701,10.35 15.21623,10.35 L17.1065702,10.35 L17.1065702,12.5245455 L15.2398664,12.5245455 C15.0189525,12.5245455 14.8398664,12.7036316 14.8398664,12.9245455 L14.8398664,12.9975 C14.8398664,13.2184139 15.0189525,13.3975 15.2398664,13.3975 L17.1065702,13.3975 L17.1065702,15.5772727 L15.2398664,15.5772727 C15.0189525,15.5772727 14.8398664,15.7563588 14.8398664,15.9772727 L14.8398664,16.0502273 C14.8398664,16.2711412 15.0189525,16.4502273 15.2398664,16.4502273 L17.1065702,16.4502273 L17.1065702,18.6430682 L15.2398664,18.6430682 C15.0189525,18.6430682 14.8398664,18.8221543 14.8398664,19.0430682 L14.8398664,19.8426136 C14.8398664,20.0635275 15.0189525,20.2426136 15.2398664,20.2426136 L22.55902,20.2426136 C22.7799339,20.2426136 22.95902,20.0635275 22.95902,19.8426136 L22.95902,3.21488636 C22.95902,2.99397246 22.7799339,2.81488636 22.55902,2.81488636 L15.2398664,2.81488636 C15.0189525,2.81488636 14.8398664,2.99397246 14.8398664,3.21488636 Z M21.5324053,18.6404545 L17.8442094,18.6404545 L17.8442094,16.4502273 L21.5349666,16.4502273 L21.5324053,18.6404545 Z M21.5324053,15.5772727 L17.8442094,15.5772727 L17.8442094,13.3948864 L21.5349666,13.3948864 L21.5324053,15.5772727 Z M21.5324053,12.5245455 L17.8442094,12.5245455 L17.8442094,10.3578409 L21.5349666,10.3578409 L21.5324053,12.5245455 Z M21.5324053,9.59727273 L17.8442094,9.59727273 L17.8442094,7.29988636 L21.5349666,7.29988636 L21.5324053,9.59727273 Z M21.5324053,6.55238636 L17.8442094,6.55238636 L17.8442094,4.26806818 L21.5349666,4.26806818 L21.5349666,6.56806818 L21.5324053,6.55238636 Z M0.826149126,20.7543704 C0.34832205,20.6700152 -3.84667394e-16,20.2548144 -4.4408921e-16,19.7695985 L0,3.29422379 C-5.91972217e-17,2.81084179 0.345757664,2.39665757 0.82136463,2.31030845 L12.3678012,0.213987887 C12.4267443,0.20328643 12.4865298,0.197903231 12.5464365,0.197903231 C13.0987213,0.197903231 13.5464365,0.645618482 13.5464365,1.19790323 L13.5464365,3.20439833 L13.5464365,21.8079973 C13.5464365,21.8662806 13.5413411,21.9244524 13.5312085,21.9818482 C13.4351933,22.5257227 12.9164602,22.8887845 12.3725857,22.7927693 L0.826149126,20.7543704 Z M7.10044617,10.6041016 C7.09865314,11.1714557 7.10044617,11.7405663 7.1022392,12.3079204 C8.07406004,12.3395377 9.04767392,12.3254855 10.0194948,12.3395377 C9.59096122,14.4526242 6.65936143,15.1376647 5.10839274,13.7570446 C3.51259836,12.5468063 3.58790551,9.89271339 5.24645585,8.76854431 C6.40654457,7.862183 8.05433674,8.0852603 9.21442546,8.87042214 C9.66985442,8.4576413 10.0965949,8.01499973 10.5071982,7.55830604 C9.54254948,6.80476146 8.3591514,6.26726812 7.10044617,6.32347657 C4.47186801,6.23740737 2.05666011,8.49277159 2.01362746,11.0695779 C1.84508288,13.1756384 3.25798847,15.2395426 5.25183493,15.9843046 C7.23850928,16.7343361 9.7864012,16.2231905 11.0558646,14.4737024 C11.8932084,13.368855 12.0743042,11.9460785 11.9756876,10.6093712 C10.3494118,10.5970756 8.72492899,10.5988321 7.10044617,10.6041016 Z" id="google表格"></path>
            </g>
        </g>
    </g>
</svg>