<svg width="12" height="12" xmlns="http://www.w3.org/2000/svg"><path d="M10.87611 10.87825c-.634.643-1.671.643-2.314 0l-2.633-2.633-2.634 2.633c-.639.639-1.675.639-2.314 0-.319-.319-.481-.741-.481-1.157 0-.417.162-.838.481-1.157l2.633-2.633-2.637-2.638c-.32-.32-.482-.741-.477-1.162 0-.417.157-.833.477-1.152.638-.639 1.674-.639 2.314 0l2.638 2.637 2.637-2.637c.639-.639 1.676-.639 2.315 0 .639.638.639 1.675 0 2.314l-2.639 2.638 2.639 2.637c.639.639.639 1.666-.005 2.31" fill="#575E75" fill-rule="evenodd"/></svg>