<svg width="24" height="24" xmlns="http://www.w3.org/2000/svg"><g fill="none" fill-rule="evenodd"><g stroke="#575E75" stroke-width="1.5" stroke-linecap="round" stroke-linejoin="round"><path d="M16.22668 10.8h1.43999C18.4 10.8 19 11.46443 19 12.27651v8.04698c0 .81208-.6 1.47651-1.33333 1.47651H6.33333C5.6 21.8 5 21.13557 5 20.32349v-8.04698C5 11.46443 5.6 10.8 6.33333 10.8h4.95122"/><path d="M18.93365 18.46022l-2.78673-2.7491c-.3981-.39272-1.06161-.45817-1.52607-.06545l-3.45023 2.68364c-.53081.39273-1.26067.32727-1.65877-.19636l-.33176-.39273c-.3981-.52364-1.1943-.5891-1.65876-.19637L5 19.57295v.58909c0 .65454.5308 1.17818 1.19431 1.17818H17.8057c.6635 0 1.19431-.52364 1.19431-1.17818v-1.70182h-.06635z" fill="#575E75"/></g><path d="M11.0493 13.60077l-.31673-.31673c-.1749-.17333-.1891-.47903-.0394-.80049l.77055-1.64824c.17018-.36873.52788-.68545.89346-.79733.45224-.13552.87297-.57673.97539-1.02424l.03151-.13394c.052-.22691.1891-.46328.38449-.6571l4.30182-4.30339c.41442-.41285.96594-.5326 1.23224-.26473l1.3977 1.3977c.2663.2663.14812.81624-.2663 1.2291l-4.30182 4.30339c-.1954.19539-.43176.33406-.65867.38606l-.13394.03151c-.44594.10243-.88873.52315-1.02267.97382-.11188.36715-.4286.72327-.79733.89503l-1.64824.76897c-.32146.1497-.62873.13552-.80206-.0394z" stroke="#575E75" stroke-width="1.2" stroke-linecap="round" stroke-linejoin="round"/><path d="M20.10218 7.29994l-3.068-3.068c-.3183-.3183-.3183-.83673 0-1.15503l.60037-.60036c.31987-.3183.83515-.3183 1.15503 0l3.068 3.068c.3183.3183.3183.83673 0 1.15503l-.60194.60036c-.3183.31988-.83516.31988-1.15346 0" fill="#575E75"/><path d="M18.66036 3.91758l2.16037-2.16037c.48533-.48533 1.27163-.48533 1.7554 0 .48532.48534.48532 1.27164 0 1.7554l-2.16037 2.16036c-.48376.48376-1.27006.48376-1.7554 0-.48533-.48533-.48533-1.27006 0-1.7554" fill="#575E75"/></g></svg>