<svg width="20" height="20" xmlns="http://www.w3.org/2000/svg"><g fill="none" fill-rule="evenodd"><path d="M5.65233 11.0745h2.10693l.90472-6.8381c.09794-.78407.79577-1.33677 1.5548-1.22109.61213.08998 1.08959.60412 1.16427 1.2211l.90472 6.8381h2.05796c.58642 0 .86922.73265.464 1.15681l-4.34487 4.57588c-.2571.25707-.67457.25707-.9182 0l-4.35955-4.57588c-.404-.42416-.11018-1.15682.46522-1.15682" fill="#4C97FF"/><path d="M6 9H2" stroke="#575E75" stroke-linecap="round" stroke-linejoin="round"/><path d="M6 7H3" stroke="#575E75" opacity=".75" stroke-linecap="round" stroke-linejoin="round"/><path d="M6 5H4" stroke="#575E75" opacity=".5" stroke-linecap="round" stroke-linejoin="round"/><path d="M18 9h-4" stroke="#575E75" stroke-linecap="round" stroke-linejoin="round"/><path d="M17 7h-3" stroke="#575E75" opacity=".75" stroke-linecap="round" stroke-linejoin="round"/><path d="M16 5h-2" stroke="#575E75" opacity=".5" stroke-linecap="round" stroke-linejoin="round"/></g></svg>