<svg width="29" height="25" viewBox="0 0 29 25" xmlns="http://www.w3.org/2000/svg"><g fill="none" fill-rule="evenodd"><path d="M20 24H3c-1.1 0-2-1.027-2-2.282V9.282C1 8.027 1.9 7 3 7h17c1.1 0 2 1.027 2 2.282v12.436C22 22.973 21.1 24 20 24z" stroke="#1EAAFF" stroke-width="2"/><path d="M22 19.5l-4.2-4.2c-.6-.6-1.6-.7-2.3-.1l-5.2 4.1c-.8.6-1.9.5-2.5-.3l-.5-.6c-.6-.8-1.8-.9-2.5-.3L1 21.2v.9c0 1 .8 1.8 1.8 1.8h17.5c1 0 1.8-.8 1.8-1.8v-2.6H22z" stroke="#1EAAFF" stroke-width="2" fill="#1EAAFF"/><g transform="translate(16 1)"><circle cx="5" cy="5" r="5" transform="translate(1 1)" fill="#1EAAFF"/><circle stroke="#FFF" stroke-width="2" cx="6" cy="6" r="6"/></g><path d="M22 5v4m2-2h-4" stroke="#FFF" stroke-width="2"/></g></svg>