<svg width="20" height="20" xmlns="http://www.w3.org/2000/svg"><g transform="translate(2 3)" fill="none" fill-rule="evenodd"><circle fill="#575E75" opacity=".5" cx="8" cy=".75" r="1"/><circle fill="#575E75" opacity=".5" cx="8" cy="13.25" r="1"/><circle fill="#575E75" opacity=".5" cx="8" cy="3.875" r="1"/><circle fill="#575E75" opacity=".5" cx="8" cy="7" r="1"/><circle fill="#575E75" opacity=".5" cx="8" cy="10.125" r="1"/><path d="M16 3.08425v7.8315c0 .51851-.74255.77995-1.17642.41249l-4.62165-3.9172c-.26924-.22658-.26924-.59695 0-.82353l4.62165-3.91575C15.25745 2.3043 16 2.56574 16 3.08426" fill="#4C97FF" opacity=".5"/><path d="M0 10.91575v-7.8315c0-.51851.74255-.77995 1.1747-.41249l4.62337 3.9172c.26924.22658.26924.59695 0 .82353l-4.62336 3.91575C.74255 11.6957 0 11.43426 0 10.91574" fill="#4C97FF"/></g></svg>