<svg width="20" height="20" xmlns="http://www.w3.org/2000/svg"><path d="M14.0451 9.6935l-.01442-.01434c-.59102-.31532-1.51358-.98897-2.60913-2.07828-.33155-.32966-.63426-.64498-.87932-.94597l.51894-.64499c.31713.258.6631.57332 1.02347.93165.23065.22932.41804.42998.60544.63065.02883.043.07207.086.12973.129.80725.9173 1.28295 1.66262 1.49917 2.0926 0 .01434.01442.02867.01442.043-.0865-.043-.1874-.086-.2883-.14332m-3.44521.37265c-.8649.47299-1.68657.91731-2.98393.61632-1.4415-.32966-2.13343-.91731-2.42173-1.2613l3.11366-4.01323c.21623.42999.53336.8743.8649 1.28997-.34596.51598-.61984.94597-.74958 1.14663-.14415.24366-.07208.57332.1874.73098.08649.05734.1874.086.27388.086.1874 0 .36038-.10033.46129-.258.15856-.27232.34596-.55898.54777-.84564.30272.344.5766.61632.764.80265a17.12924 17.12924 0 0 0 1.2397 1.11797c-.4757.129-.89374.37266-1.29736.58765m-.3892-4.72988c-.11533.15767-.24506.31533-.36039.45866-.34596-.45866-.56218-.83131-.6775-1.0893.24505.10032.59101.31532 1.03788.63064m3.30106-1.2613c.15856 0 .33155.02867.36038.10033.17298.31533-.24506 1.31864-.80725 2.22161l-.21623-.215c-.23064-.22932-.61985-.58764-1.06671-.97463.6631-.67365 1.26853-1.1323 1.7298-1.1323m3.0416 8.08379c-.21623-.559-.5622-1.06064-.96582-1.49063-.04324-.05734-.1009-.10033-.15856-.14333.24505-.53032-.15857-1.28997-.50453-1.83462-.27389-.44432-.64868-.94598-1.09555-1.44763.56219-.85998 1.528-2.5656 1.00906-3.56891C14.67936 3.37265 14.31898 3 13.51173 3h-.0144c-.82167 0-1.72982.65932-2.55148 1.5193-.92256-.67366-1.93162-1.20397-2.53706-.85998-.05766.02866-.12973.05733-.17298.11466-.01441.01433-.04324.02867-.05766.05733-.01441.01433-.02883.02867-.04324.05733l-.01442.02867-3.99298 5.1312c-.01441 0-.01441 0-.02883.01433l-.89373 1.16097-.04325.043c-.04325.043-.07208.10033-.08649.14333v.01434c-.44687.9173 1.21087 2.70893 1.98928 3.49724C5.75642 14.6097 7.28442 16 8.23581 16c.20181 0 .36038-.05733.50453-.18633l5.52098-4.25689c.02883-.01433.04325-.043.07208-.07166.02883.02866.04324.07166.05766.10033.17298.34399.2883.70231.30272 1.0893.04324.387.01441.78832-.04325 1.1753v.01434c-.01441.11466-.01441.215 0 .32966.1009.64498.70634 1.0893 1.3406.98897.64868-.10033 1.09555-.70231.99465-1.3473-.0865-.55898-.20182-1.1323-.43246-1.67695" fill="#575E75" fill-rule="evenodd"/></svg>