<svg width="20" height="20" xmlns="http://www.w3.org/2000/svg"><g fill="none" fill-rule="evenodd"><path d="M2.00053 6.4169v7.18934c0 .476.576.71467.91334.37733l3.59466-3.59466c.208-.20934.208-.548 0-.756L2.91387 6.03824c-.33734-.33733-.91334-.09867-.91334.37867" fill="#4D97FF"/><path d="M9.87547 15.75677c-.17334 0-.33334-.06666-.46667-.19866-.05333-.05334-.10667-.13467-.14667-.21467-.02533-.07867-.05333-.16-.05333-.25333 0-.08.028-.17334.05333-.252.04-.08134.09334-.16134.14667-.21467.18667-.18533.48133-.25333.73333-.14667.08134.04.148.08134.21334.14667.05333.05333.10666.13333.148.21467.02533.07866.05333.172.05333.252 0 .09333-.028.17466-.05333.25333-.04134.08-.08134.16133-.148.21467-.11867.132-.292.19866-.48.19866zm-.6524-8.4792c0-.37333.29333-.66666.66666-.66666.36 0 .66667.29333.66667.66666 0 .36-.30667.66667-.66667.66667-.37333 0-.66666-.30667-.66666-.66667zm0 2.6c0-.37333.29333-.66666.66666-.66666.36 0 .66667.29333.66667.66666 0 .372-.30667.66667-.66667.66667-.37333 0-.66666-.29467-.66666-.66667zm0 2.61334c0-.37334.29333-.66667.66666-.66667.36 0 .66667.29333.66667.66667 0 .36-.30667.66666-.66667.66666-.37333 0-.66666-.30666-.66666-.66666zm.6524-7.15987c-.08 0-.17334-.01333-.252-.04-.08134-.04133-.148-.09467-.21467-.148-.05333-.06533-.10667-.14533-.14667-.22667-.02533-.07866-.05333-.16-.05333-.252 0-.08133.028-.17333.05333-.25333.04-.08.09334-.16133.14667-.21467.18667-.18533.48133-.252.73333-.14533.08134.03867.148.08.21334.14533.12.12134.20133.29467.20133.468 0 .092-.028.17334-.05333.252-.04134.08134-.08134.16134-.148.22667-.132.12133-.292.188-.48.188z" fill-opacity=".25" fill="#575E75"/><path d="M17.767 13.6057V6.41638c0-.47733-.57733-.716-.91467-.37866L13.259 9.6337c-.20933.208-.20933.54666 0 .756l3.59333 3.59333c.33734.33733.91467.09867.91467-.37733" fill="#4D97FF"/></g></svg>