<svg width="20" height="20" xmlns="http://www.w3.org/2000/svg"><path d="M10.70006 5.80137H9.2998v2.79858h-1.4V4.39999H6.49983v1.40138H5.09983V3H9.2998v1.39999h1.40138v1.40124h1.39887v1.4h-1.39999V5.80136zM5.10011 8.60121V7.20122h1.4v1.39999h-1.4zm11.1999 8.39852V10.0012H17.7v6.99853h-1.39999zM12.10033 7.2008h1.39999V8.6008h2.79997v1.39999h-1.39998v1.35658h-1.4v1.4014h-1.39998v1.39998h-1.39999v1.39999H9.29896v1.39998h-1.4v-1.39998H6.49899v-1.4H5.1004v-1.39998H3.70041v-1.40139h2.79857v.014h2.79998v-1.37058h2.80137V7.2008zM3.7 8.60065h1.39998v1.39999H3.7v1.35658H2.3V9.95724h1.39999v-1.3566z" fill="#575E75" fill-rule="evenodd"/></svg>