<svg width="20" height="20" xmlns="http://www.w3.org/2000/svg"><path d="M9.50063 11.49817h.99894v3.00084h-.99994v-2.99984H6.49979v-.99994h3.00084v.99894zM13.4992 3.5h3.00084v.99995H17.5v2.99984h-.99995v.99894h-1.00094v.99995h-.99995v.99995h-1.9999v.99994h-.99994v-.99994h-.99995v-.99995h-.99994v-1.9989h.99994v-.99994h.99995v-.99995h.99995v-.99994h.99994V3.5zm-7.99967 7.99877h.99995v1.00095h1.00094v.99995h.99995v.99994h.99995v.99995h-.99995v.99895H4.49959v-.99895h-.99994v-1.9999h1.99989v-2.00089zM2.5 13.49907v-.99995h.99995v.99995H2.5z" fill="#575E75" fill-rule="evenodd"/></svg>