<svg width="40" height="47" xmlns="http://www.w3.org/2000/svg"><path d="M40 26.89647c0 11.04041-8.96138 20.00179-19.9982 20.00179C8.99721 46.89826 0 37.93688 0 26.89646 0 16.42959 8.13334 7.82667 18.38875 7.00222V2.48568c0-1.9715 2.14714-3.1544 3.83188-2.07904l11.75733 7.5634c1.54135.96783 1.54135 3.19025 0 4.19393l-11.75733 7.52755c-1.68474 1.07537-3.83188-.10754-3.83188-2.07904v-4.30146c-6.81424.7886-12.11579 6.55973-12.11579 13.58545 0 7.59925 6.16543 13.72883 13.72883 13.72883 7.55982 0 13.72525-6.12958 13.72525-13.72883 0-1.717 1.40156-3.11856 3.1544-3.11856C38.60202 23.7779 40 25.17947 40 26.89647" fill="#FFF" fill-rule="evenodd"/></svg>