<?xml version="1.0" encoding="UTF-8"?>
<svg width="16px" height="16px" viewBox="0 0 16 16" version="1.1" xmlns="http://www.w3.org/2000/svg" xmlns:xlink="http://www.w3.org/1999/xlink">
    <!-- Generator: Sketch 52.5 (67469) - http://www.bohemiancoding.com/sketch -->
    <title>icon/关闭弹窗</title>
    <desc>Created with Sketch.</desc>
    <defs>
        <rect id="path-1" x="0" y="0" width="16" height="16"></rect>
    </defs>
    <g id="icon/关闭弹窗" stroke="none" stroke-width="1" fill="none" fill-rule="evenodd">
        <g>
            <mask id="mask-2" fill="white">
                <use xlink:href="#path-1"></use>
            </mask>
            <g id="Mask" fill-rule="nonzero"></g>
            <path d="M7.3137085,7.3137085 L7.3137085,1.3137085 C7.3137085,0.761423749 7.76142375,0.313708499 8.3137085,0.313708499 C8.86599325,0.313708499 9.3137085,0.761423749 9.3137085,1.3137085 L9.3137085,7.3137085 L15.3137085,7.3137085 C15.8659932,7.3137085 16.3137085,7.76142375 16.3137085,8.3137085 C16.3137085,8.86599325 15.8659932,9.3137085 15.3137085,9.3137085 L9.3137085,9.3137085 L9.3137085,15.3137085 C9.3137085,15.8659932 8.86599325,16.3137085 8.3137085,16.3137085 C7.76142375,16.3137085 7.3137085,15.8659932 7.3137085,15.3137085 L7.3137085,9.3137085 L1.3137085,9.3137085 C0.761423749,9.3137085 0.313708499,8.86599325 0.313708499,8.3137085 C0.313708499,7.76142375 0.761423749,7.3137085 1.3137085,7.3137085 L7.3137085,7.3137085 Z" id="Combined-Shape-Copy-2" fill="#46B5FF" mask="url(#mask-2)" transform="translate(8.313708, 8.313708) rotate(45.000000) translate(-8.313708, -8.313708) "></path>
        </g>
    </g>
</svg>