<svg width="20" height="20" xmlns="http://www.w3.org/2000/svg"><g fill="#FF661A" fill-rule="evenodd"><path d="M18.0022 3.82934L12.40456 9.4537l-1.89382-1.90504 3.76586-3.78383c1.01113-1.01485 2.65026-1.01485 3.6603 0l.0653.06452zM6.5421 14.87736c0 .79832-.64541 1.44573-1.43015 1.44573-.79562 0-1.44104-.6474-1.44104-1.44573 0-.79067.64542-1.43698 1.44104-1.43698.78474 0 1.43016.64631 1.43016 1.43698zm2.09191-1.29372c.19591-.19575.19591-.51508 0-.71302l-1.52485-1.53213c-.197-.19794-.51481-.19794-.71072 0l-.52135.52274c-.24162-.06999-.50284-.1017-.76514-.1017-1.72185 0-3.11174 1.3976-3.11174 3.12767 0 1.95425 1.79477 3.49075 3.83226 3.03581 1.53682-.34338 2.5153-1.76615 2.36727-3.34092-.01524-.16076-.04354-.31824-.08707-.47462l.52134-.52383zM18.0022 16.17064L9.7728 7.902c-.16979-.1706-.44515-.1706-.61494 0L7.87899 9.18806c-.1698.1706-.1698.44727 0 .61897l6.39761 6.42813c1.01113 1.01486 2.65026 1.01486 3.6603 0l.0653-.06452zM6.5421 5.11617c0 .79942-.64541 1.44683-1.43015 1.44683-.79562 0-1.44104-.64741-1.44104-1.44683 0-.78957.64542-1.43588 1.44104-1.43588.78474 0 1.43016.64631 1.43016 1.43588M8.634 6.41864l-.52134-.52273c.04353-.15748.07183-.31277.08707-.47462.14802-1.57478-.83045-2.99754-2.36727-3.33983-2.03749-.45603-3.83226 1.08047-3.83226 3.03471 0 1.73007 1.38989 3.12658 3.11174 3.12658.2623 0 .52352-.03062.76514-.1006l.52135.52273c.19591.19794.51372.19794.71072 0l1.52485-1.53212c.19591-.19685.19591-.51727 0-.71412"/><path d="M10.39297 10.04478c0-.23075-.18502-.41666-.41468-.41666-.22856 0-.41468.1859-.41468.41666 0 .22965.18612.41665.41468.41665.22966 0 .41468-.187.41468-.41665"/></g></svg>