<?xml version="1.0" encoding="UTF-8"?>
<svg width="24px" height="19px" viewBox="0 0 24 19" version="1.1" xmlns="http://www.w3.org/2000/svg" xmlns:xlink="http://www.w3.org/1999/xlink">
    <!-- Generator: Sketch 51.1 (57501) - http://www.bohemiancoding.com/sketch -->
    <title>Fill 1</title>
    <desc>Created with Sketch.</desc>
    <defs></defs>
    <g id="图标按钮汇总V0.2" stroke="none" stroke-width="1" fill="none" fill-rule="evenodd">
        <g id="V1.311月19日-Copy-2" transform="translate(-67.000000, -1892.000000)" fill="#FFFFFF">
            <g id="Group-3" transform="translate(67.000000, 1892.000000)">
                <path d="M17.04915,16.0294667 C16.52465,16.6846333 15.6064833,16.7719667 14.9508167,16.2478 C14.51365,15.8984667 14.3388167,15.3743 14.4263167,14.8938 C14.4633167,14.7453 14.5023167,14.5668 14.5663167,14.4091333 L13.8509833,13.8089667 C12.9219833,14.7721333 11.4639833,14.9518 10.3594833,14.2371333 L9.71681667,15.0029667 C10.2798167,15.6651333 10.3279833,16.6806333 9.74865,17.3838 C9.09298333,18.1696333 7.95631667,18.3006333 7.12565,17.6454667 C6.33881667,16.9904667 6.20765,15.8551333 6.86331667,15.0248 C6.90698333,14.9816333 6.95081667,14.9374667 6.99448333,14.8506333 C7.57098333,14.2743 8.49631667,14.1636333 9.22281667,14.5544667 L9.86615,13.7879667 C8.91948333,12.8269667 8.81748333,11.3389667 9.60198333,10.2436333 L8.85998333,9.62096667 C8.42198333,10.0021333 7.73265,10.0418 7.25681667,9.65246667 C6.73231667,9.21563333 6.64481667,8.4298 7.08198333,7.86213333 C7.51915,7.33796667 8.30598333,7.25013333 8.87431667,7.68696667 C9.31165,8.05096667 9.44398333,8.59696667 9.27381667,9.09796667 L10.10315,9.79396667 C11.04015,9.00063333 12.3783167,8.8893 13.41915,9.55346667 L14.32065,8.47913333 C13.8343167,7.90796667 13.7829833,7.05813333 14.27865,6.47996667 C14.8469833,5.78163333 15.8088167,5.6943 16.50815,6.26163333 C17.20765,6.82946667 17.29515,7.7903 16.7268167,8.4893 C16.2474833,9.0878 15.47665,9.21096667 14.81365,8.9288 L13.88765,10.0323 C14.7268167,10.9334667 14.8508167,12.2361333 14.2568167,13.2793 L15.0058167,13.9076333 C15.5339833,13.5288 16.2813167,13.5058 16.7868167,13.9328 C17.0929833,14.1954667 17.2678167,14.5008 17.3114833,14.8938 C17.44265,15.2873 17.3114833,15.7241333 17.04915,16.0294667 M19.3224833,5.72146667 C19.1038167,5.72146667 18.9289833,5.72146667 18.7103167,5.76513333 C18.5354833,2.5333 15.8688167,-3.33333333e-05 12.6338167,-3.33333333e-05 C9.96715,-3.33333333e-05 7.95631667,1.92146667 7.12565,4.3238 C6.68848333,4.19263333 5.98915,3.93096667 5.50815,3.93096667 C2.44815,3.93096667 -1.66666667e-05,6.37663333 -1.66666667e-05,9.43413333 C-1.66666667e-05,12.4914667 2.44815,14.9374667 5.50815,14.9374667 L5.98915,14.9374667 C5.37698333,16.0736333 5.59565,17.5144667 6.64481667,18.3879667 C7.12565,18.7816333 7.73765,18.9999667 8.34981667,18.9999667 C9.18031667,18.9999667 9.96715,18.6501333 10.4918167,17.9949667 C11.06015,17.2528 11.2349833,16.3351333 10.97265,15.5058 C11.27865,15.5926333 11.58465,15.6368 11.89065,15.6368 C12.5028167,15.6368 13.0709833,15.5058 13.59565,15.1999667 C13.59565,15.8984667 13.90165,16.5536333 14.4699833,17.0344667 C14.9069833,17.3838 15.3879833,17.5581333 15.9563167,17.5581333 C16.6558167,17.5581333 17.35515,17.2528 17.7923167,16.6846333 C18.1858167,16.2041333 18.36065,15.5926333 18.3168167,15.0248 L19.4098167,15.0248 C21.9453167,15.0248 23.9999833,12.9719667 23.9999833,10.4386333 C23.91265,7.7748 21.8579833,5.72146667 19.3224833,5.72146667" id="Fill-1"></path>
            </g>
        </g>
    </g>
</svg>